# avbd fit, rung f180-i32-s300-settle10 of Gate 6d (body space, fit phase only)
v -0.003557971 0.681097329 0.037996057
v -0.110033616 0.703200698 0.073750332
v -0.003304795 0.695037961 0.040358864
v 0.000179410 0.936914265 0.079480618
v -0.159293339 0.690075755 0.064667426
v 0.004550830 0.946950734 0.089961424
v -0.002878088 0.722490013 0.044183906
v -0.003051909 0.708805919 0.042546347
v -0.159938976 0.705817819 0.065086685
v 0.139442965 0.954981685 -0.097938783
v -0.179246545 0.702486753 0.057477690
v -0.195267901 0.704746544 0.041018087
v -0.203281075 0.705797076 0.024326935
v -0.174763724 0.699547529 -0.075189486
v 0.010470724 0.670957386 -0.065124758
v -0.157068998 0.695673466 -0.082935318
v 0.025048081 0.670438290 -0.067041531
v -0.139717743 0.695666492 -0.090819821
v -0.122720286 0.699053109 -0.099455431
v 0.202318579 0.665230215 0.012613368
v -0.000106591 0.910121143 0.069761112
v -0.000274543 0.896257997 0.067733794
v -0.104206182 0.693776071 -0.100907721
v -0.089821711 0.699677050 -0.097035527
v 0.096770771 0.853601575 -0.140848219
v -0.074962124 0.707548857 -0.093516372
v -0.128829136 0.922573566 -0.124711551
v -0.129172891 0.852546215 0.060546894
v 0.039579071 0.752798140 -0.094298817
v -0.141765594 0.862293243 0.053783990
v 0.069162354 0.881350636 -0.149220511
v -0.177300110 0.845679104 0.037914053
v 0.087818645 0.822150230 -0.123122171
v -0.207437083 0.699976802 -0.029746547
v 0.073122784 0.815331459 -0.116515920
v -0.152309701 0.927813709 -0.100172237
v -0.168268412 0.926639676 -0.059684493
v 0.013663465 0.805469990 0.050052375
v -0.169948667 0.931086242 -0.040399861
v -0.075849421 0.918728948 -0.143924579
v -0.026193893 0.900294185 0.066992834
v 0.012386354 0.718384326 -0.081869692
v -0.016717885 0.883085370 0.065590441
v 0.061691176 0.756582141 -0.099406809
v -0.036356617 0.884875655 0.064905688
v -0.166871816 0.936523139 -0.021987533
v -0.165369153 0.923210740 -0.008808689
v 0.071744472 0.773760021 -0.103992179
v -0.153988749 0.926092148 0.007257920
v -0.041577667 0.699561179 0.047296472
v 0.054800041 0.860188961 0.059084587
v -0.063069552 0.700906634 0.055046201
v -0.075651653 0.773139477 0.065121159
v 0.056846339 0.828933120 0.057213981
v -0.084258668 0.700969577 0.063378491
v 0.103965238 0.833192527 -0.129143909
v -0.099266902 0.771859288 0.074020222
v -0.170351595 0.782970548 0.065303013
v 0.119704723 0.848010242 -0.128905714
v -0.197760016 0.782165408 0.034527551
v 0.082632586 0.759276628 -0.104422435
v 0.102678753 0.756192148 -0.109872416
v -0.185869396 0.854407489 0.019767636
v -0.178452075 0.870305896 0.016469385
v -0.208806902 0.779056787 -0.030913929
v -0.199734256 0.772390425 -0.055000938
v -0.189378873 0.781445086 -0.071934380
v 0.005380199 0.678542972 0.026791951
v 0.013363717 0.669432402 0.034252074
v -0.175547421 0.769110799 -0.088783816
v 0.028195921 0.669242561 0.037551481
v -0.119721673 0.775485992 -0.115410790
v 0.042724535 0.668717206 0.042698279
v -0.020788681 0.802402318 -0.103773691
v 0.057042234 0.668240726 0.048587978
v -0.094555378 0.921635747 -0.139842883
v 0.070930749 0.667808115 0.055457376
v -0.111303985 0.923598945 -0.132673696
v 0.085199475 0.667574584 0.061277419
v -0.120002128 0.910561860 -0.132993624
v 0.099376462 0.667331934 0.067059182
v -0.134955406 0.936567485 -0.113279320
v 0.113358721 0.666996121 0.072753742
v -0.166613057 0.898408890 -0.082810774
v 0.129251420 0.666693687 0.074893676
v 0.043057170 0.794594407 0.057599701
v -0.128719062 0.923133492 0.043474644
v -0.125124425 0.848112941 -0.123684943
v -0.160059124 0.732232809 0.067402788
v 0.141776055 0.666651666 0.069221869
v -0.143493086 0.856894970 -0.114874080
v -0.017063159 0.847746730 0.056812625
v 0.155339897 0.667124867 0.063639864
v -0.036226101 0.850869954 0.058332473
v 0.168922931 0.667029977 0.058033843
v -0.022997899 0.865657985 0.062394761
v 0.182441071 0.666576922 0.052296143
v -0.016429748 0.915075183 0.069555327
v 0.190508783 0.666440845 0.039204422
v -0.062810823 0.931605995 -0.139103398
v 0.196815640 0.665998042 0.026226694
v 0.025238935 0.803154647 -0.104621194
v -0.087967388 0.903888345 -0.147471398
v -0.108792745 0.739567876 0.075898565
v 0.037143193 0.777368069 0.054361034
v 0.055957280 0.815623283 -0.115108587
v -0.118153870 0.894459248 -0.136078760
v -0.142359883 0.728436708 0.073377952
v 0.127660662 0.814377010 -0.113565646
v -0.133538038 0.885098279 -0.128421843
v 0.134131834 0.859290004 -0.123194024
v 0.139960259 0.844071090 -0.112665161
v 0.141279623 0.825758159 -0.107878841
v -0.165595859 0.748694658 0.066369206
v -0.147749454 0.876327693 -0.117059313
v 0.202458099 0.664520621 -0.001697671
v 0.202479526 0.663626075 -0.015056767
v -0.198444515 0.741132915 0.038841356
v 0.149301276 0.860282779 -0.112195812
v -0.160263106 0.887617230 -0.100677550
v -0.172643751 0.887638092 -0.064323731
v -0.173958153 0.898588300 -0.049913786
v -0.057238352 0.872656167 -0.148358360
v 0.157608166 0.752005041 -0.093669519
v -0.153533190 0.886431575 0.032954160
v -0.169373900 0.885131180 0.015808782
v -0.110060290 0.876394391 0.052763503
v -0.119728804 0.891087532 0.048989527
v 0.201771528 0.663042903 -0.029722521
v -0.021765161 0.863334060 -0.141039804
v 0.194060877 0.662704945 -0.042238154
v -0.041096367 0.859756649 -0.141863629
v 0.185784549 0.662126422 -0.054293532
v -0.025169035 0.760461628 -0.093407705
v 0.176893800 0.661399066 -0.065897547
v -0.097045615 0.926828742 0.053285170
v 0.163489580 0.661147118 -0.073173001
v -0.079574287 0.921953797 0.060965400
v 0.150025323 0.660813272 -0.079022720
v -0.022672061 0.847549081 -0.135548264
v 0.136559263 0.660274744 -0.084843650
v 0.159660175 0.852320850 -0.099279918
v -0.024090432 0.833151221 -0.126315400
v 0.123642638 0.660402656 -0.089543127
v -0.043226782 0.842644811 -0.136284679
v -0.172953129 0.859703362 -0.085995868
v 0.109362021 0.660679162 -0.093981922
v -0.132482141 0.939702690 0.042408813
v 0.095061481 0.662768543 -0.088957831
v -0.030042123 0.782351851 -0.098128140
v 0.081341431 0.664669216 -0.083909459
v 0.143873677 0.809269905 -0.106589891
v 0.067474283 0.666420758 -0.079098836
v -0.105228826 0.814017296 -0.115451738
v 0.053509105 0.667987347 -0.074519970
v -0.064220279 0.743759394 -0.098285064
v 0.039407950 0.669408619 -0.070277765
v 0.045948975 0.889583468 0.064522795
v -0.183669448 0.832402229 -0.078754537
v -0.208016083 0.707057416 -0.009455202
v 0.157157019 0.834048092 -0.100178935
v -0.196308076 0.850427747 -0.032814283
v -0.203797385 0.819720268 -0.021885881
v 0.178965539 0.746249378 -0.081424169
v -0.204880804 0.808161139 -0.040343817
v -0.003806638 0.696872115 -0.074259751
v 0.014414698 0.686130226 -0.071235724
v -0.003996776 0.683914542 -0.069394976
v -0.003603434 0.709887505 -0.078959994
v 0.162548155 0.873284996 -0.098261513
v -0.197087973 0.811087430 -0.059564710
v -0.003437722 0.723201692 -0.082790442
v -0.003257715 0.736533046 -0.086633518
v -0.207800820 0.807723820 -0.001799423
v -0.003071483 0.750131011 -0.089610234
v 0.172653586 0.841991723 -0.092367485
v -0.176902115 0.805165172 -0.092126317
v -0.111948475 0.679344177 -0.098921396
v -0.196533382 0.815881133 0.023483228
v 0.188929662 0.762306154 -0.068470553
v -0.194643676 0.799675465 0.034830190
v -0.091462739 0.800429940 -0.111968517
v -0.077609934 0.788487315 -0.107595347
v 0.174741521 0.858193099 -0.083166525
v -0.045085624 0.828703284 -0.124914430
v -0.001775453 0.838590264 -0.129096910
v -0.001591907 0.850912929 -0.135952279
v -0.091020137 0.907587826 0.057512321
v -0.001425038 0.864275813 -0.140417099
v -0.108778045 0.902795970 0.051177047
v 0.183843061 0.838259220 -0.075800411
v -0.098519519 0.890129209 0.055259861
v -0.001268811 0.878160834 -0.142984763
v -0.110526584 0.917830288 0.047406834
v -0.150971994 0.804942250 0.067631021
v -0.001124659 0.892319977 -0.143062443
v -0.104167938 0.942499042 0.054317612
v 0.173429266 0.877164960 -0.070832133
v 0.178057462 0.682944238 0.056423567
v -0.001019879 0.906415939 -0.141387492
v -0.115544036 0.934537530 0.046243139
v -0.000933151 0.920310199 -0.138022885
v -0.135126039 0.894553065 0.037135419
v 0.194563642 0.833195686 -0.057634898
v -0.140569329 0.912509739 0.036752239
v -0.199935704 0.847577929 0.002311226
v -0.000835416 0.933766544 -0.132902130
v -0.136511028 0.944779217 0.026249727
v -0.141528964 0.928343177 0.026086057
v -0.148056000 0.942539811 0.010367271
v -0.132365346 0.797997475 0.073701546
v 0.029985448 0.947937489 0.083706409
v 0.015999902 0.949525356 0.083790630
v 0.175584957 0.890745342 -0.049810994
v 0.000046025 0.923697114 0.073701993
v -0.159251571 0.940121174 -0.005688128
v 0.186058640 0.870332062 -0.047638927
v -0.166969582 0.946821511 -0.034808002
v -0.164288387 0.943413615 -0.051414978
v -0.073018119 0.725944877 -0.097007617
v 0.043953445 0.948280454 0.081444934
v 0.181932777 0.881692231 -0.030904826
v 0.196882084 0.848098636 -0.038651038
v -0.161972612 0.941597462 -0.068783134
v -0.145202398 0.944753766 -0.099835061
v -0.118017472 0.938441455 -0.124784924
v -0.147348329 0.896127343 -0.114585854
v -0.103450656 0.728016675 -0.107518494
v 0.071696088 0.949722767 0.074846588
v 0.057884462 0.948888004 0.078567132
v -0.099837691 0.889261723 -0.143664166
v -0.000458659 0.882411659 0.066051081
v -0.105381884 0.907353997 -0.140345305
v 0.190446168 0.863917351 -0.025579672
v -0.122449398 0.719538808 -0.105083361
v 0.085294597 0.950328052 0.070420511
v -0.024705881 0.767336011 0.051890571
v -0.026370782 0.684499681 0.041836318
v 0.178054959 0.890332580 -0.015440004
v -0.180754632 0.882998645 -0.040856790
v -0.037744436 0.726126552 0.049254335
v 0.099095345 0.948976398 0.066914432
v 0.210660338 0.769416809 0.000449445
v -0.050962508 0.684218049 0.048336901
v 0.210107297 0.768480122 -0.018539896
v 0.185808271 0.876223683 -0.010209455
v 0.198924258 0.847095847 -0.013480440
v -0.053996056 0.736781001 0.055678487
v -0.074886732 0.684694171 0.058129657
v -0.097558640 0.686386943 0.067408770
v -0.091492094 0.730461955 0.068444312
v 0.182862878 0.867902935 0.013051179
v -0.093611248 0.715210915 0.068185329
v 0.192812964 0.861908138 -0.005399136
v -0.045808624 0.869145095 0.062490236
v 0.086479709 0.886232674 0.059612654
v -0.109701619 0.722605407 0.075087242
v 0.068112507 0.826094925 -0.125216573
v -0.119479194 0.685405910 0.076127633
v -0.201951697 0.741680562 -0.049533129
v -0.127357915 0.733602285 0.079066738
v -0.138531715 0.700115442 0.073316604
v 0.060608607 0.835728288 -0.134884045
v 0.150477618 0.907652974 0.021032792
v -0.129907221 0.716263235 0.077384248
v -0.207735345 0.728459954 -0.038888540
v -0.142751336 0.683310330 0.070644841
v 0.195351616 0.850981712 0.010643138
v 0.192509189 0.836063862 0.021697396
v -0.123170361 0.906755924 0.041509409
v -0.149642497 0.716767728 0.069603354
v -0.175104752 0.684477508 0.057324219
v 0.168919638 0.880642533 0.020855581
v 0.170367926 0.864009976 0.032644723
v -0.181052193 0.736248016 0.060266029
v -0.171340629 0.719414592 0.062042795
v 0.169907168 0.847992241 0.045934699
v -0.190754101 0.687611282 0.046245378
v 0.136223346 0.911218166 0.036265258
v -0.191593677 0.721104920 0.050534349
v 0.205995798 0.765559316 0.022134565
v -0.043748617 0.948469520 0.081848152
v -0.201060340 0.721660912 0.031153399
v -0.019490365 0.933372617 0.073979832
v 0.158296034 0.876967788 0.037962154
v -0.150161728 0.901789188 0.030735362
v 0.196053579 0.760770321 0.041864850
v -0.148652121 0.912635446 0.018462041
v -0.208663896 0.715818107 0.010887316
v 0.168231994 0.832600594 0.057783842
v -0.159660831 0.898968220 0.016615195
v 0.021714989 0.876702666 -0.143198937
v 0.022673866 0.895848453 -0.143514782
v 0.143569008 0.873397171 0.049475111
v -0.025096189 0.933193326 -0.134767786
v 0.155958325 0.861614525 0.051195811
v -0.208845064 0.734125555 0.016497072
v -0.019868152 0.915537655 -0.140234157
v 0.023422331 0.791823983 0.053643771
v -0.018828543 0.707646668 -0.079213694
v -0.040098567 0.920889020 -0.141034991
v 0.126144826 0.878887177 0.050718658
v -0.044680916 0.937306702 -0.136382937
v -0.159293845 0.909679234 0.002160384
v 0.147439390 0.843648434 0.060375489
v -0.171190351 0.896029472 0.001059580
v 0.132771552 0.828410804 0.068443455
v -0.173250809 0.901362717 -0.032207672
v -0.178209096 0.890090764 -0.017940672
v 0.133094802 0.861705303 0.056464929
v -0.169589907 0.906161666 -0.013900682
v 0.112594441 0.834210873 0.070945457
v -0.205918834 0.687727273 -0.014941296
v -0.209441662 0.725012898 -0.004449979
v 0.101470269 0.756240606 0.074688785
v 0.123751774 0.756306291 0.079997316
v 0.100183211 0.795045137 -0.111809120
v 0.080574244 0.932705760 0.060352284
v -0.019452851 0.724935710 0.045406252
v 0.111743309 0.949697316 0.061502326
v -0.172956541 0.914737701 -0.045939706
v 0.131115049 0.772689342 0.077404730
v 0.107079640 0.868093789 0.056677986
v -0.209445596 0.732327580 -0.019639254
v -0.173139721 0.908983707 -0.065666020
v 0.122695282 0.951639533 0.054617889
v -0.158050805 0.908537984 -0.099960215
v 0.123036526 0.847885907 0.064202942
v -0.064071387 0.825154901 -0.124212906
v 0.089939281 0.772607744 0.070791192
v -0.202346683 0.683308303 -0.036526807
v 0.091933742 0.834154725 0.071732178
v -0.208491415 0.716959834 -0.024442587
v -0.194673046 0.724008858 -0.055510275
v -0.191064298 0.679487109 -0.051379561
v 0.070223883 0.768270671 0.063771769
v 0.100926206 0.851436913 0.067784965
v -0.066160358 0.801900566 -0.108758792
v 0.082399279 0.846022308 0.067411683
v -0.195917755 0.695058763 -0.048102088
v -0.187638089 0.736738682 -0.067982167
v 0.056465320 0.780618072 0.059702419
v -0.080145836 0.815946460 -0.116655327
v -0.181422293 0.685622036 -0.065223843
v 0.017973311 0.841807365 -0.132029682
v 0.080530092 0.863281131 0.058983780
v 0.063553154 0.878538907 0.062473305
v -0.182095572 0.718474269 -0.071453862
v 0.130526155 0.954016984 0.042527422
v 0.018566107 0.744650066 -0.089417338
v 0.019804647 0.730343103 -0.086188294
v -0.163838819 0.681875348 -0.076557711
v 0.140127048 0.954559028 0.031817213
v -0.126925662 0.815753102 -0.114256300
v 0.149846762 0.954172254 0.021401186
v -0.153904080 0.723703325 -0.090625986
v 0.043957166 0.904446483 -0.145115241
v -0.166155368 0.713047743 -0.082306325
v 0.157075495 0.955470681 0.009259359
v 0.032172941 0.769106030 -0.095974982
v 0.035376079 0.786518574 -0.099666186
v -0.140614003 0.803260505 -0.108305298
v 0.161978349 0.956739068 -0.004031003
v -0.144441277 0.819974124 -0.106882237
v -0.101282142 0.937823296 -0.131320804
v -0.037198111 0.920230210 0.068217911
v 0.162545115 0.956965566 -0.018313404
v -0.145320639 0.679627538 -0.084251516
v -0.159338251 0.812375426 -0.100363076
v -0.150916904 0.708291173 -0.088847563
v -0.143562362 0.915993810 -0.113467477
v 0.160410494 0.956206322 -0.031443935
v -0.175135419 0.822839618 -0.093555711
v 0.031854101 0.717231214 -0.084265344
v -0.128186733 0.680976629 -0.092113450
v -0.186975121 0.816372573 -0.076530799
v 0.159163371 0.955972493 -0.045519736
v -0.134926990 0.903955758 -0.126655295
v 0.156792909 0.955764771 -0.059390087
v -0.193384618 0.831635118 -0.060921513
v -0.137340188 0.713060141 -0.096571140
v 0.181689590 0.795550227 0.058200318
v 0.153201684 0.955841184 -0.072996393
v -0.202000424 0.822080731 -0.044818688
v 0.046237454 0.802251518 -0.106255889
v -0.094066456 0.681616962 -0.094826937
v -0.020467240 0.690995932 -0.073591053
v 0.146656349 0.954997361 -0.085664712
v -0.199741676 0.836076915 -0.038328644
v 0.182495415 0.850110710 0.027967924
v -0.019473288 0.752233922 0.048634119
v 0.128786236 0.953734219 -0.107587993
v 0.181956768 0.829654038 0.039382510
v -0.064107493 0.824046731 0.059966139
v -0.104918480 0.709821761 -0.104332112
v -0.075606123 0.687394977 -0.088975996
v 0.051980712 0.719442964 -0.089441843
v -0.088943645 0.718095660 -0.100372232
v -0.058321934 0.701709926 -0.086734533
v -0.055943310 0.684807897 -0.080851503
v 0.073277228 0.742807984 -0.100217864
v 0.058344193 0.787819564 -0.103488982
v -0.183255970 0.810503185 0.047115304
v 0.043822814 0.841697872 0.061043851
v 0.037346579 0.826065242 0.051705301
v -0.180692300 0.827924371 0.041644361
v 0.031459518 0.808580399 0.052044034
v -0.027934453 0.818002045 -0.114121996
v 0.096336916 0.775241256 -0.109997049
v -0.164968148 0.839040577 0.057469517
v -0.056819834 0.730059743 -0.093346007
v -0.061776698 0.716501117 -0.091546305
v 0.104563139 0.733871162 -0.108201765
v -0.163398594 0.819627881 0.061614197
v -0.038083818 0.701560795 -0.080840148
v 0.118029617 0.953314006 -0.115561962
v 0.122581504 0.749745965 -0.110349379
v -0.045667619 0.718385577 -0.087587431
v -0.143283859 0.830335140 0.065127805
v -0.041009337 0.741763473 -0.092419408
v 0.105373979 0.952215075 -0.122162424
v -0.027180377 0.722866237 -0.084928513
v 0.112795867 0.713034034 -0.106546655
v -0.207302883 0.698711991 0.007195340
v -0.199800923 0.688767612 0.027383214
v 0.138307035 0.746533632 -0.102163851
v -0.136203438 0.814342201 0.070150241
v -0.119567335 0.823840618 0.072287299
v 0.117449760 0.784946799 -0.115746722
v -0.067137405 0.872576118 0.060822863
v -0.057635047 0.949529290 0.078766361
v -0.111007355 0.804886699 0.078438848
v 0.138255209 0.779597819 -0.107426725
v -0.096865393 0.819047749 0.073916264
v -0.078586951 0.859247863 0.064227268
v 0.173505947 0.784989655 -0.092043258
v -0.085345194 0.803284049 0.069681622
v 0.110829011 0.891793132 -0.139077410
v -0.070034154 0.841613948 0.062961593
v -0.090948418 0.847745538 0.069871202
v 0.187412277 0.779912531 -0.074360959
v -0.084478535 0.831319630 0.067512520
v 0.185617268 0.732434392 -0.069239020
v 0.193460852 0.745194316 -0.061298095
v -0.079312913 0.816729903 0.065432444
v -0.064564928 0.806184888 0.060496069
v -0.105383478 0.835732281 0.071691617
v -0.025488954 0.816668510 0.048519038
v -0.111689426 0.850492775 0.065384760
v -0.099982396 0.862083554 0.060683209
v 0.198521823 0.777685940 -0.056083005
v 0.209928542 0.754852235 -0.030799847
v -0.057004321 0.854429245 0.061600827
v -0.125756294 0.839146972 0.066210605
v -0.041422404 0.754752874 0.053086810
v -0.121308982 0.864650905 0.057496078
v 0.202019334 0.759253144 -0.050807655
v -0.134486496 0.878199279 0.047722947
v 0.210547045 0.753202438 -0.010801668
v -0.162011147 0.855610371 0.049939495
v 0.209261373 0.788745582 -0.015663402
v -0.145296201 0.846285999 0.059318461
v -0.057152152 0.887625873 0.062644310
v -0.156619042 0.871641278 0.044227425
v 0.208955258 0.720239818 -0.006364665
v -0.059538741 0.919885159 0.064826667
v -0.002158422 0.816202641 -0.111774504
v -0.054932840 0.936205089 0.067579456
v -0.166106731 0.875048518 0.028959643
v -0.191793114 0.836173654 0.022278074
v -0.038483210 0.938366592 0.072625019
v -0.001962844 0.827331185 -0.120550230
v -0.085053504 0.951309979 0.070771135
v -0.203922346 0.827900589 0.001615406
v 0.076095149 0.864657044 -0.147244006
v 0.113362253 0.927690387 -0.130174637
v -0.182804018 0.881935716 0.000721999
v -0.071403854 0.950537801 0.075021267
v 0.210506678 0.786550105 0.010782180
v 0.091025889 0.950977027 -0.125727654
v -0.171144754 0.919006467 -0.026964873
v 0.200805902 0.800301671 0.024895716
v -0.200412124 0.839105010 -0.016943682
v -0.194251701 0.857459724 -0.016682101
v -0.186438411 0.873857498 -0.019269023
v 0.076286748 0.950169683 -0.128257424
v 0.202992246 0.831737220 0.003017960
v 0.061218023 0.949642181 -0.129777953
v -0.078554645 0.889635384 0.060225718
v -0.016468961 0.896813273 -0.143281654
v 0.192575678 0.792525649 0.042430706
v 0.046073478 0.949035823 -0.130089015
v 0.056022625 0.937017083 -0.136608705
v 0.206254631 0.713965535 0.019551752
v -0.071899682 0.937234223 0.063233458
v -0.020671111 0.880204082 -0.143826500
v -0.193265483 0.851158798 -0.053184908
v -0.163250789 0.921690941 -0.081142694
v -0.088127717 0.874675155 0.056877445
v 0.030425485 0.948293686 -0.129256785
v -0.183851302 0.848444283 -0.071945570
v 0.014834170 0.947248101 -0.127197400
v -0.157626331 0.849052906 -0.101537190
v 0.189103335 0.720258951 0.054883581
v -0.174203649 0.841646016 -0.091405280
v 0.014890352 0.936868489 -0.132005826
v -0.000835972 0.945733845 -0.124585807
v 0.188576058 0.776004672 0.052501131
v 0.180643663 0.755799651 0.062178213
v 0.081192724 0.835562229 -0.135746717
v 0.016191099 0.928471386 0.073053546
v -0.159927830 0.867729664 -0.101186454
v -0.157932520 0.830853760 -0.100795008
v -0.154965088 0.941408336 -0.085194178
v 0.066109434 0.849587560 -0.143862709
v 0.166612715 0.773910820 0.066822782
v -0.138862401 0.836901486 -0.111827947
v -0.047095306 0.669655323 -0.072953895
v -0.109509811 0.838197827 -0.131329700
v -0.060876090 0.668486953 -0.077565409
v -0.074541830 0.667197645 -0.082416251
v -0.117739841 0.830220222 -0.119933918
v 0.145203948 0.762276888 0.073138654
v 0.159587458 0.748997808 0.068789378
v -0.088100731 0.665746570 -0.087371483
v 0.152476251 0.727598071 0.070097819
v -0.114429936 0.876474082 -0.138295963
v 0.035180166 0.923428893 0.069073752
v 0.022373281 0.911748767 0.068867311
v -0.101316534 0.664018989 -0.092685357
v 0.146735743 0.783541977 0.072117247
v -0.107793152 0.856638432 -0.138140097
v 0.128460974 0.787315309 0.076367304
v 0.137345463 0.741894782 0.076029047
v -0.116187796 0.663196683 -0.093169309
v -0.000878477 0.855708480 0.059259009
v -0.001069993 0.842504323 0.055405747
v -0.090968601 0.839088619 -0.137560785
v -0.129553884 0.663372636 -0.088701986
v -0.077704534 0.885406196 -0.148508236
v -0.097712629 0.827106476 -0.124468409
v -0.141851008 0.663574874 -0.083430991
v -0.154900998 0.664355636 -0.077892818
v -0.167989761 0.664864421 -0.072298482
v -0.046485633 0.833662689 0.056379993
v -0.023593675 0.833347619 0.052924089
v 0.083982490 0.757902384 0.067743346
v 0.087506965 0.741844475 0.068066135
v -0.179630533 0.665565908 -0.063604161
v -0.188298911 0.666511297 -0.052435707
v -0.026254937 0.783872187 0.052561067
v 0.069242038 0.750666738 0.062243670
v 0.050322246 0.761532247 0.057463281
v -0.196258113 0.667324007 -0.040928043
v -0.074813724 0.867178261 -0.148206919
v 0.075804956 0.785007656 0.065982603
v -0.203093603 0.667910814 -0.028664704
v -0.049719568 0.774141669 0.057470791
v 0.029448330 0.760495007 0.052579831
v -0.029753909 0.739262223 0.050107025
v -0.094529346 0.871357322 -0.145519733
v 0.026617074 0.723451614 0.047386345
v -0.063052759 0.756553829 0.059690505
v 0.068267852 0.814730763 0.061998677
v -0.030119702 0.712649465 0.046423711
v -0.051477872 0.715885162 0.052537292
v -0.055421412 0.891266704 -0.147300258
v -0.070685707 0.901930928 -0.148671836
v -0.068293825 0.789540410 0.064272866
v -0.055917103 0.911458492 -0.145837963
v 0.088385679 0.895350099 -0.147252455
v -0.203228638 0.668593347 -0.014735979
v 0.080634989 0.801718414 0.068224177
v -0.072645321 0.720262170 0.060426079
v -0.092089258 0.787749529 0.071775578
v 0.095442541 0.876048744 -0.145023257
v -0.075133547 0.740878224 0.063062683
v -0.084635139 0.758134246 0.067523994
v -0.068967052 0.904865265 0.062747493
v 0.070600145 0.724242449 -0.095702395
v -0.047304299 0.903233886 0.065602966
v 0.098017000 0.806462467 0.075582422
v -0.093208097 0.745217383 0.070066422
v 0.132774100 0.890677631 -0.128878921
v -0.203214377 0.669028223 -0.001801401
v -0.025248598 0.800399125 0.053098507
v 0.090198234 0.715790272 -0.099926755
v -0.198063895 0.670654118 0.024849281
v -0.126156300 0.768311381 0.078730270
v 0.085649163 0.731746316 -0.101933219
v -0.192070529 0.671003163 0.037403006
v -0.106440149 0.756175458 0.076087490
v 0.115052998 0.797388196 0.078626983
v 0.118363604 0.815484703 0.075294919
v 0.122733355 0.909062207 -0.131998286
v -0.185626447 0.670845866 0.050068121
v -0.115173265 0.786110103 0.079530820
v -0.172672972 0.670857787 0.056496210
v -0.127577692 0.750508964 0.078579552
v -0.159469396 0.670672476 0.061971743
v -0.146155491 0.669874072 0.067410372
v -0.134791866 0.783439875 0.074784353
v -0.147068098 0.758591950 0.072097845
v -0.133795515 0.669585109 0.072817400
v 0.137097210 0.805079639 0.071918331
v -0.150410831 0.774550855 0.071326353
v -0.118303046 0.669276178 0.074352458
v -0.104684368 0.669274807 0.068845704
v 0.131890520 0.707340717 -0.097132713
v -0.151952669 0.790451705 0.069472387
v 0.175345972 0.815161049 0.057292562
v 0.132790953 0.720908880 -0.100117028
v 0.149006039 0.939053893 -0.099328972
v -0.090838358 0.669093966 0.063232668
v -0.145212531 0.742824078 0.073084272
v -0.076858424 0.668859303 0.057561159
v 0.123649932 0.940595508 -0.120503843
v -0.062810883 0.668670893 0.051749904
v -0.049288403 0.668794215 0.044629350
v 0.187815890 0.809557438 0.040496401
v 0.140828148 0.907315552 -0.119152352
v -0.035421673 0.669010878 0.038425740
v -0.021113375 0.668984234 0.034091476
v -0.169265360 0.801095307 0.063165829
v -0.014291763 0.678994060 0.026804605
v -0.168806389 0.765679121 0.065446928
v 0.147465706 0.716808915 -0.091906242
v 0.151559383 0.890848815 -0.110760286
v 0.196771383 0.818844795 0.022388943
v -0.186773404 0.792661786 0.051537890
v -0.189017460 0.755183578 0.057010751
v -0.188638479 0.773907304 0.052959643
v -0.042525347 0.800884426 -0.105093971
v 0.163766474 0.712621272 -0.082863137
v 0.202299714 0.828035474 -0.017843287
v 0.144745693 0.923089504 -0.109788164
v 0.012385183 0.828829169 -0.121955946
v -0.053009469 0.815077662 -0.114302956
v 0.066673763 0.802766204 -0.109054767
v -0.046402313 0.794072747 0.058086477
v 0.207373217 0.809233010 -0.000356347
v -0.198718384 0.762886405 0.035780862
v -0.206459805 0.794542193 0.017722428
v -0.171445638 0.861219049 0.033173360
v 0.181829885 0.715699017 -0.070694149
v -0.209298089 0.753999352 0.017147599
v 0.112349987 0.933859348 0.047727305
v 0.205498964 0.809234023 -0.026219342
v -0.208850980 0.774164498 0.015721327
v -0.210301638 0.785799921 -0.006107990
v -0.208010763 0.798367381 -0.024081875
v 0.191591769 0.707817852 -0.055673510
v 0.207190186 0.793603778 -0.041007496
v -0.210570574 0.743804812 -0.004180811
v -0.191471905 0.865740180 0.001326268
v 0.155165970 0.907508850 -0.103360221
v -0.029624278 0.948639870 0.083449095
v 0.200859234 0.812431633 -0.051469792
v 0.188957393 0.816108346 -0.072764963
v -0.082801536 0.853617549 -0.144428581
v -0.060188234 0.854628384 -0.144406155
v 0.194948137 0.726111531 -0.054954160
v -0.210538715 0.764065266 -0.010647396
v 0.201333359 0.698772788 -0.041005667
v 0.196205407 0.796219766 -0.062230635
v -0.016398696 0.947621226 -0.127445668
v -0.031911083 0.948860824 -0.129466683
v 0.164690003 0.892906964 -0.089158900
v 0.017710002 0.821678817 0.047866713
v -0.047386162 0.949724317 -0.129905492
v -0.046173889 0.812528133 0.053406317
v 0.185767442 0.796830475 -0.079117738
v 0.174239248 0.805438399 -0.093000434
v -0.062491447 0.950460076 -0.129580870
v 0.163979784 0.912574589 -0.085149840
v -0.209911108 0.746331096 -0.026891178
v -0.077404976 0.951163411 -0.127741128
v -0.083672099 0.935696304 -0.136607513
v -0.189092904 0.865170777 -0.038456857
v -0.091756225 0.952253222 -0.125089481
v -0.105710827 0.953833461 -0.121090032
v 0.155280396 0.794137001 -0.101051629
v -0.202316195 0.791536152 -0.052601062
v -0.181693479 0.868209481 -0.062912911
v -0.168283507 0.878014743 -0.082320251
v -0.209159285 0.760471463 -0.039768063
v 0.172671199 0.901138604 -0.069115855
v 0.160667568 0.942097068 -0.071362771
v -0.201572701 0.711613119 -0.043973256
v 0.050020643 0.811748326 0.056250788
v 0.134494260 0.796318412 -0.110255383
v -0.065812103 0.837391675 -0.137453109
v -0.189169854 0.798875034 -0.074020505
v 0.165838212 0.937949777 -0.055858143
v -0.079444185 0.828250229 -0.129088938
v -0.188345239 0.705822170 -0.060155135
v 0.116566978 0.801449955 -0.116394483
v -0.194706127 0.753995478 -0.061097622
v -0.178338200 0.749907851 -0.083308712
v 0.168686301 0.936590314 -0.038836114
v -0.187417388 0.765343606 -0.071955517
v -0.177097410 0.786957860 -0.091226950
v 0.173334554 0.901098549 -0.030195624
v -0.172014832 0.730707288 -0.083137326
v -0.020142239 0.739928663 -0.088604569
v 0.080512211 0.789953113 -0.107829273
v -0.117896095 0.954792678 -0.114527844
v -0.128559500 0.955674529 -0.106389686
v -0.158362567 0.794770062 -0.100262344
v -0.157781824 0.776864767 -0.098625138
v -0.158002421 0.758822024 -0.095233515
v -0.157044873 0.740934730 -0.092624277
v -0.130613416 0.865106404 -0.129508272
v 0.063962415 0.845462918 0.065026604
v 0.207710862 0.718742490 -0.035727005
v -0.145812973 0.957161307 -0.084202781
v -0.152209625 0.958048820 -0.071638599
v 0.209486678 0.736568093 -0.022453168
v -0.004171087 0.670848727 -0.064806826
v -0.155510083 0.958047748 -0.057898868
v 0.169593379 0.903837025 -0.008704051
v -0.158000752 0.958180428 -0.043954931
v -0.159429461 0.957665622 -0.029713249
v -0.164419338 0.959726214 -0.017384291
v 0.201487213 0.826519191 -0.038281541
v 0.166872114 0.941096187 -0.023654472
v -0.161927596 0.958787918 -0.003269657
v -0.156019926 0.957408547 0.009633786
v -0.149690822 0.955632329 0.022525880
v 0.048504010 0.828002274 -0.124932431
v -0.141101748 0.954421341 0.034015708
v 0.163383812 0.936618209 -0.008690740
v -0.129708454 0.956530392 0.042587943
v -0.138729602 0.731028318 -0.099689320
v 0.162399888 0.897733331 0.009838034
v 0.015647996 0.774947107 -0.095271036
v -0.002891624 0.763725877 -0.092733353
v -0.002738534 0.777542114 -0.095219739
v 0.136649564 0.939083278 -0.110281728
v -0.139476195 0.748959482 -0.102410994
v -0.002558416 0.791111767 -0.098973975
v -0.138686761 0.785434127 -0.108088158
v 0.013973055 0.790397286 -0.098955020
v -0.002353048 0.804242611 -0.104190849
v -0.122613885 0.954231381 0.054869276
v 0.159120649 0.815821350 -0.100017190
v 0.152891889 0.937321663 0.005359110
v -0.122295856 0.738215148 -0.108911932
v -0.111458555 0.952198982 0.061356891
v -0.098536827 0.951814294 0.066170260
v 0.144548923 0.925512493 0.022128973
v 0.044741593 0.886023641 -0.145550698
v -0.139263421 0.767032027 -0.105619751
v -0.116944745 0.796157956 -0.116744481
v 0.143674940 0.942899406 0.018376581
v -0.121440530 0.756477416 -0.112338945
v 0.154493541 0.890393853 0.026282039
v -0.101276338 0.746664822 -0.108993635
v -0.001580467 0.803499579 0.050280012
v -0.088112481 0.939615071 0.058584429
v 0.128072232 0.940276504 0.045705970
v 0.130350605 0.926049888 0.041452445
v 0.134618759 0.939890981 0.031690177
v -0.085329503 0.736724019 -0.103273571
v -0.098754622 0.764720559 -0.110091090
v -0.080000892 0.754719317 -0.103613995
v 0.046562482 0.731350958 0.053212952
v -0.097671144 0.782946646 -0.111125097
v 0.047344260 0.921616435 -0.141377971
v -0.076300092 0.772408843 -0.105119482
v 0.024277823 0.913240075 -0.141022533
v -0.039418645 0.878102005 -0.145367667
v -0.036418930 0.899681687 -0.144448861
v 0.209118292 0.732087135 0.015957821
v 0.193335205 0.740577340 0.049290754
v -0.051931918 0.763242126 -0.098435946
v -0.056186926 0.784382343 -0.102722153
v -0.138633594 0.956969440 -0.096304297
v 0.141058207 0.897567749 0.031835001
v 0.126301274 0.895471275 0.041919407
v -0.205162004 0.683162212 0.005996416
v 0.167051569 0.713195145 0.063459277
v 0.173752218 0.734186351 0.063221410
v -0.203174517 0.669959664 0.011851193
v 0.115537785 0.912232757 0.045847517
v -0.036536466 0.683896005 -0.074428841
v -0.033041783 0.670494795 -0.069062814
v 0.014336988 0.706833541 0.042913891
v -0.018740643 0.671032429 -0.066011377
v -0.005714393 0.941911340 0.092201717
v 0.063144013 0.914573550 -0.145357043
v -0.015689539 0.948160529 0.085432291
v -0.021510202 0.699829102 0.042724423
v 0.131087571 0.721729159 0.077462032
v 0.030738026 0.938040853 0.074457161
v 0.083565161 0.685842872 0.062177368
v 0.071967527 0.697716653 0.058630913
v 0.104174659 0.696137547 0.071459495
v 0.047739580 0.865197003 -0.144278854
v 0.126113862 0.701509178 0.078506552
v 0.054275714 0.699637353 0.052184146
v 0.202593401 0.695801616 0.024288235
v 0.109689452 0.889382243 0.051992573
v 0.098865330 0.903779984 0.054827966
v 0.158796757 0.918113708 0.002621794
v 0.107651964 0.714758992 0.074267127
v 0.170202419 0.920925915 -0.022176290
v 0.172667012 0.915656567 -0.047687575
v 0.046890117 0.936396897 0.070467636
v 0.088953376 0.723928928 0.067505516
v 0.110100523 0.736209810 0.076800480
v 0.168056086 0.923101604 -0.069061026
v 0.158622369 0.932108700 -0.084697038
v 0.088308223 0.705661416 0.065854944
v 0.155704349 0.922885597 -0.097057067
v 0.187795728 0.689964592 -0.057148494
v 0.171504334 0.696009278 -0.075480923
v 0.067862026 0.731470466 0.060072728
v 0.145765558 0.696368396 -0.087807499
v 0.131045356 0.924351871 -0.121876776
v 0.070276365 0.713467360 0.059425145
v 0.109456658 0.775378764 0.078951791
v 0.146660298 0.706486821 0.070757143
v 0.181952000 0.700548828 0.056884419
v 0.196279988 0.707363427 0.039394289
v 0.208580539 0.774590254 -0.036328398
v 0.156992689 0.772998691 -0.097781107
v 0.049798094 0.716042638 0.052441023
v 0.139590293 0.762216926 -0.104165450
v 0.207739666 0.703968942 -0.018512182
v 0.207374737 0.701259851 0.003316783
v 0.036070727 0.744117022 0.051863283
v 0.011800152 0.760643601 0.050205298
v 0.083057180 0.909748852 0.060571004
v 0.062950455 0.935593307 0.066499107
v 0.017401768 0.776276410 0.050799370
v 0.032864951 0.856173694 0.059008248
v 0.021216521 0.838118434 0.056085814
v 0.019634698 0.702285945 -0.077911235
v 0.052952558 0.920332611 0.066202030
v 0.037063561 0.734135091 -0.089874454
v 0.030323099 0.897886872 0.066653661
v 0.042830218 0.907175899 0.066827014
v 0.014334257 0.897124410 0.067303635
v 0.034073040 0.686889768 -0.075186864
v 0.055421978 0.738379061 -0.094897285
v 0.075046070 0.831157088 0.063533351
v 0.199368924 0.779716253 0.032231864
v 0.186614841 0.854845822 -0.062669978
v 0.056950908 0.685030758 -0.081378438
v 0.175268039 0.765552700 -0.087660745
v 0.122558035 0.831321061 -0.118005231
v 0.120758496 0.767349780 -0.114103988
v 0.080942430 0.682338774 -0.089274906
v 0.050523501 0.771494091 -0.099390343
v 0.037136674 0.816337883 -0.113775849
v 0.120211229 0.693716228 -0.098840222
v 0.103820600 0.679206014 -0.097415537
v 0.095286600 0.931450546 -0.135667503
v 0.069024272 0.919479370 0.063723132
v 0.064092889 0.900179744 0.063167110
v 0.128830835 0.677906036 -0.090775780
v 0.025278050 0.883844197 0.065443389
v 0.040691949 0.872476101 0.063286051
v 0.074517824 0.931276798 -0.139108345
v 0.152406573 0.678270221 -0.080501184
v 0.176781267 0.824621797 -0.091612585
v 0.022360204 0.857693493 -0.139356151
v 0.174504727 0.727221429 -0.080573156
v 0.173784882 0.677608550 -0.071040973
v 0.016868329 0.759585321 -0.092579857
v 0.186682209 0.674394608 -0.055536725
v 0.029909993 0.829760551 -0.123955049
v 0.198606133 0.679600716 -0.040539235
v 0.206166118 0.689205885 -0.026061948
v 0.061978083 0.797972202 0.062616751
v 0.103215888 0.911820590 -0.139697403
v 0.082885429 0.914670169 -0.144544989
v 0.017643522 0.816596687 -0.112498477
v 0.205673814 0.686864257 -0.008110563
v 0.125892267 0.733226061 -0.106013432
v 0.210166603 0.738250375 -0.003014085
v 0.199551255 0.726681292 0.035098340
v 0.160694629 0.732348740 -0.088568218
v 0.144249067 0.733347178 -0.097010039
v 0.192403346 0.686687589 0.042496186
v 0.142455488 0.886652768 0.042146254
v 0.176937982 0.887653649 0.003690655
v 0.204974651 0.739493072 -0.044271860
v 0.044856608 0.702064157 -0.083082922
v 0.161513746 0.690191507 0.064215511
v 0.085310861 0.818075001 0.068816319
v 0.211179286 0.751133561 0.009463644
v 0.203203723 0.745950878 0.029917959
v 0.090130717 0.745138288 -0.105110601
v 0.141023099 0.685116649 0.071967147
v 0.119117156 0.870945454 -0.136268556
v -0.001506845 0.816590786 0.046524368
v -0.002467892 0.749569714 0.047528237
v 0.054154240 0.744156182 0.056797314
v 0.118409976 0.683353961 0.076144315
v 0.142826810 0.875602126 -0.120802566
v -0.001852456 0.789968133 0.050991315
v -0.001230508 0.829665542 0.050513487
v 0.100770928 0.680065513 0.068658330
v 0.019315716 0.868893147 0.063656300
v -0.000663928 0.868614674 0.064370237
v 0.097820267 0.921758831 0.053868793
v 0.062758915 0.683927000 0.053996645
v 0.096670881 0.939288974 0.056546353
v 0.204901785 0.682748497 0.009557052
v 0.100787304 0.822076797 0.076077774
v 0.033279195 0.931417584 -0.136200771
v 0.041524999 0.684633613 0.046836104
v 0.065251246 0.898520172 -0.148158491
v 0.018355677 0.687275529 0.041958239
v 0.034215953 0.703039289 0.046314836
v 0.041152131 0.844269395 -0.136737302
v 0.014057362 0.854455471 0.058806248
v 0.016104776 0.741748571 0.047883663
v -0.002626052 0.735970557 0.046590548
v -0.002047089 0.776492059 0.049816847
v 0.204272360 0.676058471 -0.020521156
v -0.002252746 0.762929857 0.049983930
v 0.070253417 0.703145385 -0.090692982
v 0.086697653 0.807285666 -0.112824157
v 0.106005654 0.816856563 -0.116107129
v 0.152681202 0.819996357 0.065054871
v 0.094742060 0.789399445 0.073494755
v 0.159455091 0.799476802 0.066716239
v 0.095439635 0.697439134 -0.098117031
v 0.198790878 0.679357409 0.026388425
f 555 540 123
f 389 162 497
f 567 540 568
f 583 104 251
f 463 489 430
f 453 94 255
f 483 484 162
f 446 640 671
f 574 577 251
f 50 244 238
f 52 244 50
f 575 57 53
f 55 249 52
f 55 2 250
f 577 248 563
f 575 437 432
f 57 597 589
f 2 265 262
f 589 592 57
f 262 259 2
f 5 267 262
f 602 606 589
f 5 9 11
f 58 606 610
f 11 272 5
f 12 278 11
f 565 793 8
f 630 60 632
f 13 425 12
f 424 289 160
f 289 424 13
f 643 649 60
f 181 403 179
f 483 206 484
f 163 651 174
f 53 563 558
f 651 65 650
f 163 389 384
f 683 66 65
f 455 558 563
f 165 384 171
f 340 331 34
f 67 66 683
f 206 470 63
f 385 102 856
f 67 702 70
f 344 340 696
f 179 403 406
f 710 70 702
f 16 352 14
f 111 112 59
f 63 64 655
f 18 368 16
f 710 742 753
f 119 112 111
f 394 671 545
f 551 922 903
f 19 375 18
f 753 740 711
f 406 470 179
f 261 615 108
f 545 453 439
f 178 386 530
f 24 386 23
f 72 753 742
f 26 396 24
f 768 765 72
f 119 142 112
f 32 63 470
f 112 142 161
f 399 400 396
f 154 343 182
f 545 671 448
f 399 415 400
f 768 770 765
f 32 406 410
f 418 415 399
f 770 183 777
f 387 300 166
f 415 418 422
f 105 86 299
f 169 42 839
f 170 142 119
f 173 172 705
f 329 638 343
f 134 738 737
f 185 638 329
f 692 661 145
f 150 74 741
f 637 345 873
f 132 145 661
f 170 184 142
f 138 495 760
f 138 136 188
f 136 194 188
f 201 87 194
f 270 87 205
f 216 49 210
f 46 216 724
f 198 184 170
f 43 96 907
f 219 39 218
f 45 43 41
f 224 37 219
f 498 224 514
f 86 105 342
f 225 36 514
f 378 107 110
f 80 233 107
f 22 41 43
f 198 217 849
f 41 581 45
f 103 233 76
f 76 40 103
f 222 217 214
f 678 100 40
f 98 41 22
f 366 41 98
f 40 76 678
f 215 4 284
f 215 98 21
f 537 536 92
f 222 234 217
f 904 537 92
f 460 462 30
f 284 471 366
f 222 239 246
f 586 903 759
f 462 28 30
f 246 234 222
f 454 449 28
f 237 391 924
f 560 319 921
f 246 888 252
f 431 471 282
f 455 560 391
f 319 560 241
f 50 238 793
f 50 566 52
f 52 574 55
f 258 263 510
f 244 52 249
f 55 253 2
f 284 792 657
f 303 670 667
f 303 100 674
f 250 249 55
f 273 274 252
f 251 253 574
f 100 303 301
f 301 570 100
f 104 261 257
f 677 100 678
f 273 285 274
f 257 2 253
f 2 257 265
f 250 2 259
f 570 568 40
f 752 292 293
f 294 296 285
f 285 296 274
f 684 497 679
f 277 274 296
f 440 447 442
f 579 489 463
f 692 329 695
f 259 262 267
f 871 736 360
f 262 271 9
f 40 100 570
f 570 567 568
f 203 128 270
f 310 296 294
f 305 296 310
f 87 270 194
f 9 5 262
f 5 272 600
f 276 9 271
f 9 276 11
f 272 11 278
f 302 323 310
f 568 103 40
f 108 615 89
f 280 11 276
f 11 280 12
f 103 568 540
f 278 12 425
f 323 337 328
f 283 12 280
f 12 283 13
f 283 297 289
f 289 13 283
f 540 561 231
f 425 13 424
f 209 288 205
f 291 125 286
f 346 337 323
f 49 304 288
f 173 350 351
f 297 654 314
f 347 158 864
f 304 47 311
f 47 304 49
f 47 46 481
f 360 361 855
f 501 684 146
f 481 311 47
f 46 39 481
f 343 695 329
f 314 289 297
f 289 314 160
f 481 321 308
f 481 39 321
f 325 122 321
f 325 321 37
f 37 321 39
f 333 160 314
f 324 266 333
f 527 107 231
f 84 121 325
f 36 327 498
f 160 333 34
f 327 120 84
f 36 82 371
f 277 393 390
f 689 34 333
f 34 689 340
f 313 34 331
f 266 334 689
f 334 260 341
f 340 335 331
f 107 527 110
f 54 404 405
f 696 14 344
f 61 401 44
f 38 299 407
f 358 14 348
f 14 358 16
f 344 14 352
f 356 704 712
f 352 16 368
f 413 62 417
f 370 16 358
f 16 370 18
f 175 705 134
f 713 115 110
f 371 27 378
f 27 371 82
f 381 18 370
f 18 381 19
f 368 18 375
f 80 378 27
f 19 381 235
f 19 395 23
f 19 23 178
f 202 506 913
f 23 395 24
f 386 24 396
f 398 24 395
f 24 398 26
f 26 398 220
f 26 412 399
f 396 26 399
f 418 399 412
f 164 180 444
f 444 443 164
f 175 173 705
f 685 84 120
f 422 300 415
f 685 121 84
f 172 169 300
f 172 300 422
f 78 80 27
f 226 365 78
f 89 615 114
f 240 485 309
f 134 737 175
f 226 27 82
f 245 459 452
f 187 186 140
f 243 459 245
f 189 187 130
f 581 466 579
f 467 472 637
f 308 122 240
f 138 579 466
f 430 255 463
f 499 435 430
f 453 430 435
f 435 440 439
f 435 499 450
f 243 479 281
f 308 321 122
f 897 438 584
f 439 453 435
f 243 281 893
f 450 440 435
f 480 859 865
f 440 449 447
f 442 439 440
f 450 449 440
f 447 449 454
f 492 488 493
f 127 458 456
f 449 456 28
f 82 225 708
f 454 28 462
f 28 456 30
f 456 450 127
f 30 456 458
f 225 82 36
f 30 464 460
f 506 507 502
f 126 469 125
f 287 508 509
f 207 507 506
f 410 460 32
f 126 306 477
f 460 464 644
f 644 32 460
f 32 644 63
f 475 31 576
f 470 406 32
f 64 63 644
f 306 309 477
f 125 464 458
f 528 795 511
f 516 523 524
f 655 206 63
f 206 655 484
f 206 474 470
f 162 679 497
f 316 322 822
f 313 160 34
f 37 498 325
f 523 316 534
f 497 684 501
f 501 146 505
f 146 512 503
f 505 503 513
f 263 515 510
f 512 120 115
f 503 512 91
f 517 513 503
f 115 713 91
f 458 203 125
f 315 547 548
f 91 512 115
f 547 330 336
f 91 713 88
f 517 88 522
f 552 548 547
f 532 88 713
f 88 532 519
f 552 336 553
f 522 519 541
f 527 231 561
f 127 128 458
f 538 660 692
f 514 36 498
f 224 498 37
f 538 692 695
f 114 626 631
f 553 342 105
f 219 37 39
f 555 660 561
f 127 450 499
f 891 199 824
f 660 555 661
f 218 39 46
f 199 97 886
f 366 98 284
f 22 21 98
f 41 366 581
f 43 232 22
f 907 232 43
f 96 536 907
f 45 463 255
f 45 581 463
f 255 94 96
f 255 96 45
f 94 453 545
f 448 546 545
f 582 593 594
f 595 584 438
f 216 46 47
f 216 47 49
f 551 640 558
f 558 640 569
f 49 288 209
f 793 565 50
f 569 53 558
f 566 50 565
f 209 210 49
f 841 351 350
f 574 52 566
f 578 53 57
f 612 609 423
f 53 578 563
f 575 53 569
f 597 432 211
f 253 55 574
f 57 575 597
f 578 57 592
f 592 583 578
f 627 609 612
f 584 621 628
f 603 589 606
f 602 589 597
f 634 819 627
f 610 606 602
f 835 318 229
f 626 606 58
f 610 624 58
f 58 624 630
f 632 58 630
f 634 884 869
f 58 632 626
f 60 642 632
f 642 60 649
f 60 630 181
f 650 649 643
f 662 652 645
f 656 628 621
f 621 636 656
f 658 659 204
f 64 644 469
f 466 495 138
f 694 377 700
f 468 471 431
f 663 650 65
f 628 656 668
f 679 162 484
f 65 686 663
f 672 673 659
f 686 65 66
f 683 65 651
f 468 431 478
f 683 693 67
f 685 146 684
f 146 685 512
f 696 340 689
f 66 67 701
f 473 495 478
f 66 698 686
f 702 67 693
f 668 675 687
f 701 698 66
f 405 690 54
f 701 67 70
f 54 690 564
f 14 696 348
f 711 70 710
f 699 70 711
f 702 709 710
f 229 318 236
f 657 282 471
f 710 709 742
f 753 756 740
f 756 753 72
f 742 754 72
f 72 754 768
f 72 765 756
f 766 765 770
f 490 193 496
f 130 772 496
f 770 776 766
f 15 719 168
f 87 201 148
f 183 770 768
f 201 194 136
f 422 705 172
f 633 777 338
f 777 633 150
f 408 74 633
f 638 185 408
f 106 730 258
f 688 379 694
f 275 631 118
f 185 692 145
f 197 750 749
f 736 737 738
f 263 258 730
f 738 741 743
f 185 145 143
f 743 741 744
f 744 741 74
f 744 467 879
f 132 140 145
f 123 132 661
f 741 738 150
f 123 540 567
f 773 772 567
f 738 134 150
f 78 27 226
f 238 623 1
f 264 279 779
f 776 150 134
f 134 705 420
f 695 541 538
f 104 599 261
f 365 681 680
f 761 762 763
f 365 678 76
f 76 78 365
f 411 156 420
f 156 411 220
f 541 519 538
f 220 764 156
f 76 233 78
f 80 78 233
f 168 789 387
f 70 699 701
f 398 395 228
f 434 437 445
f 779 780 887
f 428 432 434
f 926 317 706
f 197 749 745
f 213 6 4
f 279 785 780
f 419 427 428
f 148 201 745
f 454 462 419
f 526 782 783
f 381 734 235
f 410 414 419
f 493 769 913
f 511 4 215
f 4 511 213
f 406 414 410
f 208 731 729
f 21 511 215
f 210 728 727
f 794 800 823
f 511 21 529
f 470 474 179
f 724 218 46
f 227 110 115
f 118 280 275
f 219 218 722
f 806 800 794
f 803 804 256
f 716 778 225
f 224 219 720
f 407 86 690
f 356 734 381
f 389 497 380
f 809 795 528
f 810 806 811
f 717 716 514
f 497 501 380
f 317 697 429
f 810 818 821
f 913 771 202
f 341 698 699
f 373 376 159
f 369 177 373
f 341 260 698
f 260 334 266
f 365 226 681
f 517 522 354
f 828 821 818
f 354 362 364
f 569 640 446
f 519 522 88
f 767 828 818
f 266 324 676
f 602 597 211
f 804 834 256
f 121 240 122
f 345 868 918
f 610 602 211
f 169 839 166
f 427 195 211
f 643 179 174
f 683 651 165
f 693 683 171
f 627 884 634
f 324 654 676
f 846 397 841
f 841 397 374
f 362 709 369
f 580 397 846
f 192 188 190
f 192 499 489
f 128 192 190
f 270 205 203
f 205 288 286
f 291 306 126
f 208 148 733
f 288 304 291
f 304 311 306
f 311 481 308
f 286 125 203
f 283 118 297
f 589 599 592
f 283 280 118
f 227 115 120
f 747 805 732
f 707 226 82
f 107 378 80
f 275 114 631
f 118 646 297
f 89 114 275
f 231 233 103
f 87 209 205
f 816 872 870
f 271 108 89
f 248 560 455
f 248 241 560
f 108 271 265
f 566 565 241
f 86 876 690
f 622 244 619
f 517 91 88
f 574 566 248
f 715 662 889
f 244 249 618
f 249 250 614
f 882 465 718
f 253 251 257
f 774 465 882
f 250 259 608
f 883 494 774
f 921 391 560
f 259 267 604
f 54 564 847
f 251 577 583
f 600 267 5
f 89 276 271
f 503 91 517
f 690 405 407
f 275 276 89
f 892 573 582
f 272 278 596
f 248 577 574
f 280 276 275
f 425 588 591
f 425 424 781
f 781 313 572
f 424 313 781
f 572 585 781
f 314 654 324
f 136 197 201
f 313 557 572
f 237 551 558
f 554 331 335
f 334 341 348
f 760 136 138
f 335 344 549
f 341 699 704
f 348 696 334
f 921 319 7
f 358 348 704
f 344 352 544
f 912 582 594
f 903 586 551
f 352 368 543
f 381 370 356
f 368 375 539
f 788 8 3
f 535 375 178
f 221 795 809
f 828 767 562
f 559 833 920
f 921 920 899
f 546 448 898
f 903 922 836
f 38 903 299
f 235 228 395
f 405 669 407
f 546 92 94
f 400 518 520
f 92 546 904
f 639 35 926
f 386 396 525
f 927 926 33
f 928 605 930
f 200 490 298
f 94 545 546
f 96 92 536
f 927 56 852
f 143 472 408
f 220 412 26
f 400 520 521
f 412 220 411
f 109 113 152
f 920 832 559
f 418 412 411
f 152 113 746
f 387 789 786
f 420 418 411
f 746 161 867
f 418 420 422
f 490 773 298
f 496 772 773
f 394 442 445
f 562 767 832
f 739 636 820
f 204 725 658
f 773 490 496
f 725 223 635
f 447 454 428
f 472 186 637
f 215 284 98
f 189 130 496
f 458 464 30
f 410 462 460
f 125 469 464
f 635 247 487
f 487 269 629
f 641 487 629
f 268 269 487
f 269 393 629
f 390 269 268
f 469 126 64
f 349 761 763
f 655 64 477
f 303 674 670
f 290 393 277
f 611 290 928
f 163 474 483
f 928 307 605
f 635 641 648
f 531 605 533
f 677 674 100
f 477 309 485
f 506 202 207
f 679 485 240
f 240 121 684
f 312 912 594
f 684 679 240
f 121 685 684
f 186 187 345
f 503 505 146
f 912 332 892
f 772 130 132
f 685 120 512
f 501 505 159
f 725 648 658
f 505 513 373
f 513 517 364
f 892 847 564
f 110 527 713
f 714 847 339
f 522 541 154
f 51 714 346
f 231 103 540
f 714 51 404
f 541 695 343
f 567 772 123
f 502 500 506
f 578 577 563
f 867 659 673
f 577 578 583
f 597 575 432
f 592 104 583
f 913 492 493
f 845 167 839
f 599 104 592
f 386 178 23
f 599 603 615
f 110 227 378
f 615 261 599
f 706 402 639
f 603 626 114
f 132 123 772
f 624 610 195
f 409 706 317
f 746 673 682
f 114 615 603
f 120 327 227
f 624 414 403
f 691 429 697
f 642 631 632
f 642 118 631
f 429 433 853
f 646 118 642
f 642 649 646
f 152 682 691
f 682 433 691
f 181 643 60
f 654 297 646
f 122 325 121
f 140 130 187
f 421 416 617
f 123 661 555
f 309 308 240
f 698 260 686
f 702 693 177
f 698 701 699
f 672 441 436
f 291 126 125
f 109 691 697
f 143 140 186
f 874 872 816
f 665 441 672
f 188 192 489
f 665 658 653
f 712 704 699
f 653 451 665
f 927 697 317
f 712 740 734
f 648 461 653
f 178 375 19
f 923 880 116
f 641 461 648
f 740 756 748
f 748 758 228
f 926 706 639
f 479 641 482
f 754 742 362
f 354 754 362
f 407 669 38
f 203 458 128
f 482 629 620
f 756 765 758
f 182 754 154
f 128 127 192
f 254 246 252
f 611 382 620
f 764 398 228
f 499 192 127
f 764 766 156
f 766 776 156
f 930 611 928
f 420 156 776
f 140 132 130
f 788 7 8
f 387 166 168
f 420 776 134
f 136 760 197
f 300 387 415
f 750 197 760
f 745 201 197
f 148 208 209
f 733 148 745
f 258 35 106
f 593 533 605
f 731 208 733
f 236 318 910
f 729 210 208
f 728 210 729
f 727 216 210
f 188 489 579
f 929 573 556
f 724 216 727
f 573 929 582
f 723 218 724
f 722 218 723
f 720 219 722
f 717 224 720
f 514 224 717
f 188 579 138
f 876 556 573
f 707 681 226
f 898 904 546
f 472 143 186
f 212 795 221
f 899 391 921
f 854 925 931
f 213 795 212
f 140 143 145
f 404 54 714
f 833 922 924
f 415 387 786
f 143 408 185
f 238 3 793
f 1 3 238
f 31 799 752
f 622 238 244
f 918 799 515
f 380 376 171
f 915 752 357
f 617 476 421
f 619 244 618
f 618 249 616
f 616 249 614
f 636 739 613
f 388 613 10
f 614 250 608
f 357 791 915
f 383 688 388
f 608 259 607
f 571 438 576
f 295 667 666
f 92 96 94
f 607 259 604
f 372 726 700
f 667 295 303
f 367 726 372
f 604 267 601
f 298 295 207
f 923 875 880
f 363 732 367
f 408 467 74
f 148 209 87
f 298 301 295
f 359 747 363
f 601 267 600
f 359 355 755
f 600 272 598
f 598 272 596
f 353 755 355
f 301 298 773
f 596 278 591
f 747 755 751
f 591 278 425
f 588 425 781
f 388 688 813
f 769 771 913
f 763 353 349
f 202 771 200
f 506 500 913
f 74 467 744
f 773 570 301
f 82 708 707
f 320 647 326
f 500 492 913
f 331 554 557
f 242 910 320
f 344 335 340
f 910 908 647
f 554 335 550
f 239 222 703
f 549 550 335
f 549 344 544
f 166 167 168
f 544 352 543
f 543 368 542
f 17 15 167
f 17 845 157
f 907 536 919
f 157 850 155
f 155 850 153
f 542 368 539
f 150 633 74
f 153 854 151
f 151 854 149
f 149 858 147
f 147 862 144
f 539 375 535
f 759 903 38
f 530 535 178
f 144 862 141
f 141 866 139
f 139 866 137
f 530 386 525
f 137 870 135
f 525 396 521
f 135 870 872
f 133 872 131
f 131 874 129
f 129 923 117
f 923 874 875
f 170 119 902
f 521 396 400
f 20 932 101
f 99 101 932
f 99 886 97
f 95 97 199
f 95 891 93
f 93 896 90
f 518 400 786
f 90 896 85
f 85 901 83
f 83 905 81
f 169 166 300
f 81 905 79
f 77 79 796
f 77 909 75
f 439 394 545
f 75 914 73
f 73 914 71
f 71 916 69
f 442 394 439
f 468 466 366
f 442 447 434
f 7 562 920
f 794 534 811
f 924 899 833
f 434 447 428
f 428 454 419
f 419 462 410
f 38 898 759
f 902 111 897
f 466 468 495
f 526 524 534
f 25 59 56
f 96 43 45
f 895 401 61
f 182 343 338
f 483 389 163
f 483 162 389
f 897 59 25
f 883 894 775
f 776 777 150
f 59 897 111
f 380 384 389
f 774 882 893
f 111 902 119
f 778 708 225
f 501 159 380
f 167 166 839
f 159 505 373
f 176 191 867
f 373 513 369
f 364 369 513
f 850 890 925
f 354 364 517
f 354 522 154
f 177 369 709
f 154 541 343
f 446 445 437
f 376 380 159
f 204 223 725
f 217 198 214
f 214 703 222
f 437 569 446
f 610 211 195
f 414 624 195
f 403 630 624
f 889 718 715
f 160 313 424
f 181 630 403
f 888 246 239
f 179 643 181
f 174 650 643
f 651 650 174
f 163 384 165
f 487 247 268
f 165 651 163
f 171 683 165
f 174 474 163
f 557 313 331
f 475 515 799
f 376 693 171
f 285 273 757
f 177 693 376
f 627 885 884
f 174 179 474
f 509 508 516
f 294 302 310
f 709 702 177
f 709 362 742
f 154 754 354
f 182 338 183
f 780 785 803
f 183 768 182
f 423 413 881
f 183 338 777
f 638 338 343
f 633 638 408
f 590 401 895
f 692 185 329
f 190 188 194
f 515 475 25
f 270 190 194
f 190 270 128
f 195 427 414
f 7 788 562
f 915 878 571
f 877 595 438
f 203 205 286
f 44 48 61
f 474 206 483
f 210 209 208
f 61 62 895
f 413 895 62
f 211 432 427
f 172 42 169
f 398 764 220
f 515 263 918
f 437 575 569
f 228 758 764
f 124 885 426
f 175 871 350
f 84 498 327
f 225 514 716
f 327 371 227
f 918 263 730
f 898 448 759
f 371 327 36
f 839 374 890
f 227 371 378
f 451 441 665
f 228 235 748
f 444 180 457
f 233 231 107
f 187 868 345
f 759 448 586
f 189 292 868
f 734 748 235
f 653 461 826
f 924 922 237
f 292 193 196
f 446 671 394
f 461 641 479
f 922 551 237
f 391 237 455
f 482 641 629
f 918 868 799
f 196 200 293
f 771 293 200
f 558 455 237
f 281 287 894
f 894 893 281
f 248 566 241
f 257 251 104
f 255 430 453
f 257 261 265
f 509 775 287
f 260 266 676
f 509 516 524
f 265 261 108
f 523 516 531
f 322 316 523
f 273 252 888
f 265 271 262
f 811 534 316
f 316 315 811
f 676 686 260
f 366 466 581
f 478 495 468
f 330 547 315
f 547 336 552
f 366 471 468
f 760 495 473
f 657 471 284
f 336 342 553
f 553 900 552
f 832 900 553
f 865 878 791
f 792 284 4
f 31 571 576
f 286 288 291
f 438 571 877
f 906 864 863
f 4 790 792
f 8 7 319
f 303 295 301
f 291 304 306
f 570 773 567
f 739 617 392
f 617 416 392
f 306 311 309
f 309 311 308
f 170 628 668
f 613 739 10
f 739 392 10
f 656 675 668
f 656 815 675
f 680 678 365
f 813 613 388
f 324 333 314
f 687 198 668
f 379 688 383
f 295 666 207
f 815 656 636
f 377 694 379
f 325 498 84
f 689 333 266
f 334 696 689
f 700 377 372
f 861 834 860
f 703 721 239
f 732 726 367
f 834 861 256
f 348 341 704
f 747 732 363
f 356 358 704
f 735 888 721
f 370 358 356
f 735 264 757
f 735 273 888
f 755 747 359
f 369 364 362
f 353 763 755
f 647 761 326
f 761 349 326
f 376 373 177
f 779 757 264
f 780 779 279
f 384 380 171
f 235 395 19
f 736 871 737
f 562 788 917
f 910 647 320
f 785 804 803
f 414 406 403
f 256 323 803
f 813 675 815
f 415 786 400
f 427 419 414
f 422 420 705
f 432 428 427
f 430 489 499
f 587 580 590
f 437 434 432
f 445 442 434
f 446 394 445
f 671 586 448
f 819 609 627
f 456 449 450
f 455 563 248
f 865 791 769
f 581 579 463
f 645 652 817
f 644 464 469
f 652 662 715
f 874 923 129
f 715 664 652
f 694 812 688
f 477 64 126
f 750 760 473
f 485 655 477
f 465 715 718
f 507 207 666
f 465 774 494
f 865 486 480
f 812 675 813
f 485 484 655
f 207 202 298
f 883 504 825
f 493 865 769
f 783 782 504
f 679 484 485
f 202 200 298
f 196 490 200
f 196 193 490
f 877 859 476
f 302 803 323
f 189 496 193
f 814 806 810
f 168 719 789
f 821 814 810
f 391 899 924
f 713 527 532
f 467 408 472
f 302 294 887
f 786 787 518
f 538 519 532
f 561 532 527
f 926 35 33
f 538 532 660
f 540 555 561
f 551 586 640
f 319 241 565
f 660 532 561
f 113 161 746
f 161 176 867
f 8 319 565
f 223 247 635
f 781 585 784
f 620 629 393
f 887 780 302
f 269 390 393
f 671 640 586
f 781 784 588
f 599 589 603
f 393 290 611
f 626 603 606
f 928 290 305
f 623 238 622
f 625 1 623
f 774 893 894
f 312 332 912
f 626 632 631
f 332 339 847
f 847 892 332
f 757 887 285
f 847 714 54
f 793 3 8
f 732 807 726
f 858 931 857
f 675 812 687
f 168 167 15
f 273 735 757
f 920 921 7
f 402 385 639
f 167 845 17
f 638 633 338
f 646 649 663
f 650 663 649
f 845 850 157
f 888 239 721
f 663 654 646
f 706 409 48
f 850 854 153
f 676 654 663
f 429 409 317
f 661 692 660
f 854 858 149
f 676 663 686
f 858 862 147
f 433 429 691
f 678 680 677
f 699 711 712
f 712 734 356
f 711 710 753
f 862 866 141
f 712 711 740
f 682 436 827
f 734 740 748
f 866 870 137
f 214 687 808
f 748 756 758
f 664 816 652
f 872 133 135
f 198 687 214
f 754 182 768
f 872 874 131
f 665 659 658
f 758 765 766
f 658 648 653
f 766 764 758
f 776 770 777
f 668 198 170
f 117 923 116
f 787 786 789
f 929 330 822
f 533 822 322
f 556 336 330
f 531 322 523
f 899 920 833
f 662 444 889
f 346 323 256
f 491 482 620
f 116 880 911
f 911 20 116
f 382 491 620
f 911 932 20
f 932 886 99
f 645 443 662
f 930 382 611
f 382 930 516
f 886 824 199
f 605 531 930
f 491 508 848
f 628 170 902
f 256 347 346
f 482 848 479
f 891 896 93
f 347 256 861
f 820 617 739
f 866 819 817
f 605 594 593
f 896 901 85
f 929 593 582
f 612 881 885
f 901 905 83
f 826 451 653
f 451 457 180
f 672 659 665
f 441 180 851
f 79 905 796
f 436 673 672
f 436 851 827
f 909 914 75
f 682 673 436
f 914 916 71
f 584 902 897
f 876 86 342
f 69 916 1
f 829 433 827
f 700 808 694
f 788 3 916
f 853 829 417
f 409 61 48
f 402 48 855
f 870 817 816
f 855 29 360
f 874 816 664
f 385 361 102
f 830 880 875
f 576 897 25
f 819 634 817
f 68 69 1
f 106 856 730
f 743 736 738
f 910 242 236
f 862 857 819
f 744 879 102
f 880 830 831
f 840 528 843
f 401 846 44
f 803 302 780
f 769 791 357
f 878 915 791
f 831 911 880
f 918 873 345
f 576 25 475
f 799 31 475
f 841 29 846
f 879 856 102
f 106 639 385
f 573 564 876
f 911 831 802
f 342 556 876
f 337 339 332
f 25 510 515
f 350 29 841
f 564 573 892
f 892 582 912
f 510 25 56
f 864 906 837
f 312 328 337
f 929 822 593
f 33 35 258
f 871 360 29
f 840 860 835
f 864 158 863
f 29 855 44
f 916 914 917
f 808 687 812
f 594 307 312
f 307 305 328
f 916 917 788
f 33 56 927
f 840 835 809
f 307 594 605
f 736 743 361
f 531 516 930
f 290 277 305
f 852 109 927
f 318 835 860
f 21 844 529
f 852 59 112
f 620 393 611
f 102 743 744
f 112 113 852
f 751 763 762
f 647 785 762
f 805 747 751
f 252 268 254
f 230 835 229
f 487 641 635
f 637 879 467
f 124 851 164
f 809 230 221
f 161 142 176
f 807 732 805
f 247 234 254
f 230 809 835
f 808 700 807
f 345 637 186
f 176 184 191
f 812 694 808
f 204 849 223
f 849 204 191
f 813 688 812
f 635 648 725
f 849 184 198
f 815 613 813
f 815 636 613
f 217 223 849
f 659 191 204
f 217 234 223
f 191 184 849
f 859 480 421
f 795 213 511
f 245 461 243
f 878 865 859
f 802 886 932
f 191 659 867
f 452 718 889
f 223 234 247
f 176 142 184
f 246 254 234
f 865 493 486
f 293 771 357
f 268 247 254
f 771 769 357
f 805 264 735
f 268 252 390
f 161 113 112
f 486 493 488
f 390 252 274
f 867 673 746
f 264 751 279
f 274 277 390
f 746 682 152
f 281 848 287
f 827 433 682
f 808 703 214
f 152 691 109
f 109 852 113
f 476 859 421
f 296 305 277
f 476 595 877
f 305 307 928
f 196 293 292
f 595 476 820
f 726 807 700
f 752 293 357
f 307 328 312
f 310 328 305
f 56 59 852
f 292 752 799
f 328 310 323
f 886 825 824
f 312 337 332
f 807 703 808
f 891 824 782
f 193 292 189
f 844 21 22
f 429 853 409
f 109 697 927
f 56 33 510
f 105 559 553
f 339 337 346
f 346 714 339
f 51 346 347
f 317 926 927
f 564 690 876
f 863 844 232
f 799 868 292
f 510 33 258
f 843 528 529
f 844 863 842
f 861 840 843
f 861 158 347
f 861 860 840
f 752 915 31
f 158 843 842
f 843 158 861
f 842 529 844
f 919 837 906
f 906 232 907
f 809 528 840
f 730 873 918
f 730 856 873
f 873 856 879
f 856 106 385
f 817 634 645
f 837 919 838
f 817 652 816
f 919 906 907
f 919 536 537
f 743 102 361
f 904 669 838
f 898 669 904
f 669 898 38
f 703 807 721
f 405 404 838
f 669 405 838
f 922 833 836
f 294 285 887
f 361 385 402
f 869 645 634
f 830 875 664
f 916 3 1
f 864 51 347
f 402 855 361
f 909 801 914
f 397 890 374
f 48 44 855
f 796 909 77
f 879 637 873
f 901 798 905
f 580 925 397
f 48 402 706
f 896 800 901
f 891 823 896
f 409 62 61
f 853 62 409
f 881 413 417
f 417 62 853
f 86 407 299
f 459 893 882
f 199 891 95
f 830 465 831
f 829 426 417
f 426 829 124
f 426 881 417
f 124 829 827
f 433 829 853
f 886 802 825
f 774 894 883
f 851 124 827
f 164 884 124
f 441 851 436
f 180 164 851
f 443 869 164
f 911 802 932
f 715 830 664
f 874 664 875
f 736 361 360
f 451 180 441
f 457 452 889
f 889 444 457
f 866 817 870
f 106 35 639
f 459 718 452
f 826 452 457
f 452 826 245
f 451 826 457
f 862 819 866
f 858 857 862
f 461 245 826
f 459 882 718
f 479 243 461
f 854 931 858
f 850 925 854
f 846 401 580
f 845 890 850
f 491 848 482
f 848 281 479
f 825 494 883
f 382 508 491
f 900 832 767
f 508 287 848
f 896 823 800
f 839 890 845
f 504 782 824
f 42 374 839
f 516 508 382
f 908 910 318
f 534 524 523
f 552 818 548
f 42 172 173
f 901 800 798
f 818 552 900
f 533 322 531
f 871 175 737
f 868 187 189
f 22 232 844
f 593 822 533
f 822 315 316
f 929 556 330
f 330 315 822
f 838 919 537
f 904 838 537
f 318 860 834
f 908 318 834
f 465 830 715
f 556 342 336
f 105 836 559
f 833 559 836
f 29 44 846
f 908 834 804
f 562 917 828
f 299 836 105
f 818 900 767
f 832 553 559
f 562 832 920
f 811 315 548
f 828 801 821
f 801 828 917
f 821 797 814
f 836 299 903
f 401 590 580
f 797 821 801
f 905 798 796
f 796 814 797
f 810 548 818
f 814 798 806
f 798 814 796
f 909 796 797
f 811 548 810
f 413 587 590
f 404 51 837
f 51 864 837
f 837 838 404
f 909 797 801
f 529 842 843
f 158 842 863
f 232 906 863
f 800 806 798
f 529 528 511
f 794 811 806
f 785 908 804
f 785 647 908
f 859 877 878
f 526 534 794
f 877 571 878
f 571 31 915
f 173 351 42
f 524 783 509
f 350 173 175
f 29 350 871
f 823 526 794
f 783 524 526
f 526 823 782
f 42 351 374
f 841 374 351
f 504 775 783
f 509 783 775
f 782 823 891
f 885 124 884
f 887 757 779
f 914 801 917
f 426 885 881
f 890 397 925
f 825 504 824
f 775 504 883
f 925 587 931
f 587 925 580
f 802 494 825
f 785 279 762
f 494 831 465
f 831 494 802
f 894 287 775
f 590 895 413
f 438 897 576
f 884 164 869
f 762 279 751
f 423 931 587
f 587 413 423
f 931 423 857
f 762 761 647
f 617 820 476
f 595 820 621
f 751 755 763
f 893 459 243
f 751 264 805
f 609 857 423
f 423 881 612
f 662 443 444
f 721 805 735
f 621 584 595
f 857 609 819
f 443 645 869
f 612 885 627
f 636 621 820
f 628 902 584
f 805 721 807
