# avbd fit, rung f600-i32-s300 of Gate 6d (body space, fit phase only)
v -0.009253926 0.688031614 0.009010038
v -0.104637489 0.703546405 0.071649410
v -0.009163984 0.702047050 0.010909930
v 0.000268756 0.934831619 0.073328517
v -0.155807033 0.689756334 0.066059843
v 0.006088624 0.943684876 0.083930805
v -0.009138005 0.728862405 0.016596135
v -0.008900246 0.715618014 0.013565260
v -0.156408474 0.705333531 0.066462569
v 0.141271323 0.955787182 -0.094050422
v -0.175880834 0.701884806 0.058626134
v -0.194510847 0.704052925 0.042514041
v -0.202592224 0.705242395 0.025698503
v -0.172745243 0.701341033 -0.076568216
v 0.008987905 0.686692297 -0.047638107
v -0.154903561 0.698111296 -0.084574617
v 0.024599696 0.685503781 -0.051112413
v -0.137601346 0.698888242 -0.092647493
v -0.120857999 0.703077555 -0.101383284
v 0.202137351 0.663981616 0.012659435
v -0.000252081 0.907463729 0.068828978
v -0.000608202 0.893498540 0.067389950
v -0.100717962 0.699381232 -0.100794628
v -0.086623527 0.705941617 -0.097154535
v 0.096336648 0.854736209 -0.141269118
v -0.072212368 0.714509904 -0.093800768
v -0.130648986 0.924998283 -0.122062936
v -0.126514271 0.851601481 0.061533324
v 0.034693681 0.763034523 -0.085968196
v -0.138898641 0.861029029 0.054945052
v 0.067709230 0.883846641 -0.149204373
v -0.175794423 0.845029175 0.040398218
v 0.087302193 0.821474850 -0.121593669
v -0.207454488 0.700323701 -0.029757341
v 0.071708210 0.816132367 -0.114680491
v -0.154316977 0.928894699 -0.096288905
v -0.168778256 0.925923645 -0.055974238
v 0.012593339 0.810899615 0.030790236
v -0.170737877 0.929769874 -0.037149180
v -0.077032380 0.922491670 -0.142427891
v -0.025884297 0.897634983 0.066735469
v 0.010217743 0.732064664 -0.065563664
v -0.016880717 0.880478740 0.065269068
v 0.057022564 0.764041185 -0.097937897
v -0.036095046 0.882397532 0.064664505
v -0.166701853 0.934807956 -0.018627521
v -0.163863748 0.920894980 -0.006228915
v 0.067906871 0.780484557 -0.102672815
v -0.152990803 0.923890769 0.009230876
v -0.042195287 0.703751087 0.031996664
v 0.053779490 0.858655930 0.055512536
v -0.056967773 0.702752531 0.052551292
v -0.071205802 0.773853302 0.062705971
v 0.053713769 0.828695178 0.050924052
v -0.078445472 0.702092350 0.061140519
v 0.104503490 0.832677186 -0.127530307
v -0.094620071 0.771678209 0.072121039
v -0.166923791 0.781658232 0.066341035
v 0.120396040 0.848680496 -0.128646418
v -0.196626514 0.781098485 0.036657006
v 0.078131668 0.765085995 -0.103958175
v 0.098429456 0.760906398 -0.109101258
v -0.184218705 0.853593946 0.022571556
v -0.176898569 0.869437695 0.019270124
v -0.208912775 0.778969526 -0.029571500
v -0.199881166 0.772794127 -0.054818492
v -0.189798370 0.782189488 -0.071390800
v -0.003391177 0.676284850 0.001338076
v 0.011799229 0.677084327 0.005782029
v -0.175226271 0.770502329 -0.089189678
v 0.027386907 0.676315010 0.011158275
v -0.119488023 0.779513478 -0.115720019
v 0.039803796 0.674337566 0.021484856
v -0.023852158 0.814182878 -0.093265861
v 0.048722006 0.671896100 0.034636416
v -0.096197203 0.925083160 -0.137919843
v 0.057449836 0.669746816 0.048426487
v -0.113040328 0.926769733 -0.130913481
v 0.073892698 0.668939471 0.056760777
v -0.121568121 0.913446903 -0.131408021
v 0.088818528 0.668052197 0.062796928
v -0.136997014 0.938704669 -0.110356823
v 0.103535891 0.667176247 0.068748698
v -0.167562306 0.897951722 -0.080000117
v 0.117738768 0.666249096 0.074485794
v 0.037810124 0.796845078 0.047313392
v -0.124005057 0.920552075 0.040469516
v -0.126927301 0.849562943 -0.123017706
v -0.156272858 0.731278181 0.068666495
v 0.135423511 0.665609539 0.071994111
v -0.145186752 0.857580483 -0.114002168
v -0.018097546 0.845463455 0.055322777
v 0.149401546 0.665847123 0.065912440
v -0.037183911 0.849363208 0.054006714
v 0.163594082 0.665681422 0.060045868
v -0.023476971 0.862960637 0.061237007
v 0.177509993 0.665153980 0.054244302
v -0.016166311 0.912474453 0.068523146
v 0.189352080 0.664752424 0.041035943
v -0.063880011 0.935465693 -0.137613520
v 0.195847645 0.664595664 0.027667437
v 0.024209287 0.814359844 -0.093948826
v -0.089600384 0.908734977 -0.146425828
v -0.103812292 0.739559054 0.073911622
v 0.034308225 0.780719161 0.037869088
v 0.054227032 0.816603065 -0.114006862
v -0.119773582 0.897029102 -0.135263398
v -0.138403028 0.727694690 0.074724630
v 0.127164155 0.817191124 -0.113754287
v -0.135252401 0.887190461 -0.127040297
v 0.134783834 0.859651387 -0.122913346
v 0.139131412 0.845443726 -0.110331751
v 0.140792459 0.828001380 -0.107692324
v -0.161743298 0.747741640 0.067634538
v -0.149470866 0.878320336 -0.115166500
v 0.202327341 0.663569093 -0.002096426
v 0.202396274 0.662978530 -0.015878771
v -0.197472483 0.740139365 0.040715631
v 0.150024846 0.860123932 -0.111454129
v -0.161622122 0.888580441 -0.098474160
v -0.172922090 0.888044536 -0.062183827
v -0.172488958 0.896887660 -0.046811998
v -0.057726406 0.876390755 -0.148424178
v 0.155280903 0.753553748 -0.095063277
v -0.151828155 0.886412978 0.035019942
v -0.167954683 0.884475708 0.018369880
v -0.107192479 0.874624908 0.051117152
v -0.115815960 0.887645841 0.045344938
v 0.200338930 0.662743688 -0.032196596
v -0.022233576 0.866898417 -0.137867838
v 0.192465156 0.662873566 -0.044849388
v -0.041333351 0.862302005 -0.142566234
v 0.183649376 0.662936807 -0.057275385
v -0.030197188 0.772875905 -0.080578968
v 0.172317892 0.662838280 -0.069550097
v -0.095292196 0.924242973 0.054643817
v 0.158632651 0.663342834 -0.075617716
v -0.077653036 0.919279277 0.061353892
v 0.144948274 0.663643837 -0.081655547
v -0.022949494 0.850913167 -0.133947015
v 0.131286547 0.663748085 -0.087655038
v 0.158686668 0.853160679 -0.097224385
v -0.024688425 0.836438358 -0.123917602
v 0.118022479 0.664217293 -0.092491932
v -0.043314453 0.843691528 -0.137203455
v -0.173670217 0.861059010 -0.083634317
v 0.100860275 0.666180015 -0.092563555
v -0.126060337 0.937168300 0.039178096
v 0.087268241 0.668979228 -0.087696619
v -0.034385126 0.794266999 -0.086576350
v 0.073305584 0.671644747 -0.082942553
v 0.143193632 0.811258316 -0.106950521
v 0.059353240 0.674295306 -0.078123525
v -0.105658129 0.818197906 -0.112584457
v 0.045533862 0.676834166 -0.073277265
v -0.063042022 0.751447737 -0.098137222
v 0.035551347 0.681924880 -0.059710450
v 0.044921666 0.886877835 0.064191729
v -0.184487075 0.833410382 -0.076965585
v -0.208001092 0.706882417 -0.009092445
v 0.156927824 0.835427105 -0.100106433
v -0.196447402 0.850541949 -0.030258736
v -0.203993365 0.819517732 -0.019874005
v 0.176574737 0.746762872 -0.083559178
v -0.204965025 0.808307528 -0.038417332
v -0.009480855 0.711556435 -0.057258766
v 0.013088131 0.701247633 -0.054323047
v -0.009318973 0.699025571 -0.052070975
v -0.009085088 0.724055350 -0.062407203
v 0.163482398 0.873558164 -0.096751176
v -0.197656661 0.811646760 -0.058358513
v -0.009013415 0.736998498 -0.066285074
v -0.009081719 0.750092328 -0.070375726
v -0.208018541 0.807286084 -0.000133045
v -0.008668792 0.763754666 -0.072758265
v 0.173481405 0.842865288 -0.091402903
v -0.178070366 0.806726575 -0.091053650
v -0.106320009 0.684701920 -0.099852875
v -0.195207328 0.814936340 0.025780495
v 0.188497573 0.762221813 -0.069012687
v -0.193525240 0.798966289 0.037041504
v -0.092119552 0.805618763 -0.109596871
v -0.078028679 0.794968545 -0.106040180
v 0.175436482 0.858806729 -0.081479810
v -0.045426182 0.829666972 -0.125821397
v -0.003500043 0.844812989 -0.121964216
v -0.003217197 0.856061757 -0.128848597
v -0.089313418 0.905154884 0.057593621
v -0.003047745 0.868994415 -0.131968468
v -0.106245026 0.899730563 0.050654769
v 0.184448525 0.838448226 -0.074656874
v -0.096406221 0.887672126 0.053830020
v -0.002810552 0.882120013 -0.134753838
v -0.108354464 0.915158927 0.048778623
v -0.147653148 0.803807437 0.068757206
v -0.002569864 0.895669818 -0.134231463
v -0.099238798 0.940225601 0.050458543
v 0.174270123 0.877375901 -0.069303825
v 0.173160762 0.681324720 0.058221005
v -0.002378476 0.909212589 -0.132605165
v -0.111266568 0.931834579 0.045591533
v -0.002071783 0.922818780 -0.130321965
v -0.131891668 0.892811120 0.038322486
v 0.195215896 0.832644820 -0.056561220
v -0.135348469 0.909160137 0.033973739
v -0.198899001 0.846938968 0.007603623
v -0.001669789 0.936526418 -0.127587229
v -0.135884494 0.942142308 0.026822472
v -0.139945552 0.926033676 0.026509080
v -0.146453857 0.939895272 0.012076521
v -0.128862232 0.797142863 0.074717872
v 0.028100953 0.945423305 0.077623866
v 0.014925040 0.948481262 0.075042807
v 0.175792426 0.890266240 -0.047253437
v 0.000048299 0.921451926 0.069620475
v -0.157659575 0.937988758 -0.002807766
v 0.186487392 0.869730949 -0.045280013
v -0.165055484 0.945014775 -0.031079795
v -0.164932609 0.942587495 -0.047711231
v -0.070881888 0.732739389 -0.097542949
v 0.041663818 0.946675479 0.075308502
v 0.182473138 0.880843043 -0.028578633
v 0.197354585 0.847405553 -0.036528815
v -0.162900209 0.941449285 -0.064624503
v -0.146978304 0.946219802 -0.095480710
v -0.120734654 0.941707015 -0.122262716
v -0.148971826 0.897758007 -0.112582050
v -0.101368412 0.733553469 -0.107711457
v 0.068030939 0.948618114 0.067523859
v 0.055029087 0.947615981 0.071984082
v -0.101380743 0.892158151 -0.143114835
v -0.000936228 0.879761815 0.065713964
v -0.106915019 0.910556197 -0.138674349
v 0.191023543 0.863012135 -0.023380646
v -0.121287212 0.723468661 -0.106667578
v 0.081130788 0.948947430 0.063370675
v -0.029073885 0.772481561 0.030736674
v -0.032252304 0.690852344 0.017638249
v 0.178685442 0.889609694 -0.013271399
v -0.181031406 0.882790089 -0.038237900
v -0.039322216 0.730201185 0.033353765
v 0.094490342 0.945817769 0.062615648
v 0.210732058 0.767720580 0.002076418
v -0.048005126 0.687616706 0.037199549
v 0.210164279 0.767140687 -0.017242935
v 0.186489865 0.875083447 -0.008082437
v 0.199372545 0.845417976 -0.011301937
v -0.047730289 0.738726795 0.050136138
v -0.068697065 0.686364651 0.055789847
v -0.091663264 0.687289119 0.065117702
v -0.086231053 0.731053889 0.066393398
v 0.181934848 0.866051495 0.015822012
v -0.088147350 0.715880156 0.066082157
v 0.193486154 0.860786557 -0.003268805
v -0.045797613 0.866599679 0.060208786
v 0.084790006 0.883620143 0.058614194
v -0.104515508 0.722717643 0.073051438
v 0.066502765 0.826080024 -0.125078812
v -0.113857687 0.685706675 0.073907480
v -0.201745942 0.741957486 -0.049876463
v -0.120740198 0.733011961 0.079986043
v -0.134804115 0.699893177 0.074781083
v 0.058348112 0.836373210 -0.134856030
v 0.147639409 0.903639913 0.021124473
v -0.124891661 0.715855956 0.079087101
v -0.207502097 0.728580475 -0.039372522
v -0.139134929 0.683067143 0.072118558
v 0.194209248 0.849172115 0.013555308
v 0.191091523 0.833878398 0.024597097
v -0.120782435 0.903979599 0.042864271
v -0.145927161 0.716211021 0.071049348
v -0.171862856 0.684051394 0.058617193
v 0.168101639 0.878811538 0.023463834
v 0.169354811 0.862263083 0.035339978
v -0.177378774 0.735147119 0.061474286
v -0.167799562 0.718574464 0.063230038
v 0.168575630 0.846417248 0.048905663
v -0.189951673 0.686845481 0.047677334
v 0.132792100 0.908043027 0.035975356
v -0.190575331 0.720188379 0.052493084
v 0.204638794 0.763604999 0.024733866
v -0.041398905 0.946602821 0.076533318
v -0.200241596 0.720886469 0.032767959
v -0.018661443 0.931334198 0.069345847
v 0.157449454 0.875311732 0.040403366
v -0.143728703 0.898680568 0.027477568
v 0.194867179 0.758877397 0.044752281
v -0.148151129 0.910569668 0.019438364
v -0.208616525 0.715249062 0.011548781
v 0.162798896 0.829569817 0.060617972
v -0.156330377 0.896437824 0.016908502
v 0.019842004 0.880314648 -0.138840973
v 0.021043118 0.898940086 -0.138784811
v 0.140794486 0.871129990 0.050998230
v -0.025662178 0.937138557 -0.133262485
v 0.152515396 0.859145939 0.053097196
v -0.208014339 0.733419538 0.018146088
v -0.020343812 0.919043064 -0.136600479
v 0.022511940 0.796234190 0.033211727
v -0.024738530 0.721419156 -0.064067051
v -0.040693901 0.924915016 -0.139825940
v 0.123033784 0.876666248 0.050218593
v -0.045802541 0.941535592 -0.134540826
v -0.158146113 0.907384038 0.003998172
v 0.143819362 0.841438949 0.062061600
v -0.169786766 0.894933105 0.003678784
v 0.128553957 0.826586425 0.069903582
v -0.171589538 0.898064613 -0.029244006
v -0.178542972 0.889844239 -0.015649762
v 0.130212173 0.859781921 0.057876356
v -0.168590099 0.905189812 -0.012114560
v 0.108818099 0.832993627 0.072124362
v -0.205922082 0.687748969 -0.014980395
v -0.209405467 0.724584401 -0.003763563
v 0.093495131 0.755441546 0.071414746
v 0.113344297 0.754441321 0.079358712
v 0.097270593 0.799510717 -0.111028753
v 0.078786574 0.929221988 0.061129194
v -0.025832307 0.730749011 0.020780260
v 0.105643630 0.948064327 0.055655975
v -0.173607484 0.913490176 -0.042955048
v 0.125205696 0.771127403 0.079106033
v 0.104518257 0.866994202 0.057376511
v -0.209459096 0.732155144 -0.018996673
v -0.173508167 0.908662617 -0.062232435
v 0.116723344 0.948819995 0.049708158
v -0.159479246 0.909607232 -0.096600756
v 0.119803086 0.846330166 0.065548010
v -0.064917155 0.825959682 -0.125142232
v 0.082328297 0.772024930 0.067646213
v -0.201581687 0.683818936 -0.037908640
v 0.087233186 0.832552075 0.069428951
v -0.208506986 0.717023134 -0.024087701
v -0.194259554 0.724684775 -0.056227081
v -0.189946964 0.680691898 -0.053081561
v 0.062319487 0.768792927 0.059315156
v 0.098033778 0.850706279 0.068722814
v -0.068731792 0.809468150 -0.101737931
v 0.078180343 0.844989777 0.063059777
v -0.195064634 0.695893884 -0.049385168
v -0.187426120 0.737712681 -0.068490572
v 0.049319647 0.781763017 0.054461844
v -0.081610702 0.817976475 -0.115542844
v -0.180378422 0.687249064 -0.066913106
v 0.016034789 0.845973611 -0.127239257
v 0.078151092 0.862165153 0.056576300
v 0.062120367 0.876311660 0.061445706
v -0.181639403 0.719809592 -0.072377101
v 0.128494233 0.949414432 0.042710803
v 0.016822664 0.757319331 -0.073945597
v 0.017997995 0.743116021 -0.071376458
v -0.161111593 0.684421182 -0.078107119
v 0.132561535 0.951037705 0.029625500
v -0.127779275 0.819109261 -0.113874018
v 0.143980563 0.950657725 0.021858301
v -0.152619243 0.726195276 -0.091789037
v 0.042478736 0.907323956 -0.144870311
v -0.164533645 0.715084255 -0.083539940
v 0.150168270 0.952562511 0.009835873
v 0.031061867 0.780287027 -0.083778828
v 0.034888066 0.797403216 -0.088293374
v -0.141182452 0.806098104 -0.108141109
v 0.155281961 0.953567207 -0.002693399
v -0.145142451 0.822528720 -0.106569692
v -0.102909863 0.941598296 -0.129158661
v -0.036281273 0.917628407 0.068016954
v 0.160316214 0.954141140 -0.015205799
v -0.142516226 0.682788193 -0.086087286
v -0.159921527 0.814376950 -0.100167260
v -0.149198860 0.711024761 -0.090276219
v -0.145373136 0.917731881 -0.110941872
v 0.160843462 0.954331517 -0.027853947
v -0.176791459 0.824357629 -0.092111342
v 0.030211646 0.729216456 -0.071909778
v -0.125549391 0.684896767 -0.094365552
v -0.187781900 0.817457020 -0.075117335
v 0.160619602 0.954769611 -0.041629959
v -0.136507228 0.906419277 -0.124203824
v 0.158115298 0.954868913 -0.055180587
v -0.194158286 0.832124889 -0.059353404
v -0.135857150 0.716419697 -0.098023914
v 0.174738735 0.792611897 0.063682154
v 0.155192405 0.955624223 -0.068742022
v -0.202101260 0.822227120 -0.042605318
v 0.045473725 0.811256111 -0.097526237
v -0.090100817 0.687959552 -0.094814874
v -0.026248440 0.704999864 -0.058570094
v 0.148535401 0.955470920 -0.081710301
v -0.199897975 0.835996628 -0.035894968
v 0.181295872 0.848332286 0.030929351
v -0.024798427 0.757769048 0.025412995
v 0.130726501 0.955410302 -0.104775131
v 0.180384964 0.827449322 0.042511154
v -0.061836578 0.824583232 0.056516219
v -0.102075122 0.715129554 -0.104386128
v -0.071823671 0.694308639 -0.089489758
v 0.046090532 0.727689981 -0.087605067
v -0.086420640 0.724061787 -0.100725509
v -0.055583119 0.709621608 -0.087007299
v -0.052534170 0.692841291 -0.081132874
v 0.068195172 0.749661446 -0.099158756
v 0.055816989 0.795817435 -0.099425323
v -0.182201594 0.809768975 0.049237225
v 0.043313880 0.842059016 0.049639519
v 0.036453970 0.827386081 0.040828418
v -0.179513529 0.827116668 0.043752752
v 0.030030593 0.811479926 0.037980154
v -0.028618192 0.821214020 -0.112292394
v 0.092606284 0.780189753 -0.109206498
v -0.160974741 0.837254703 0.059145726
v -0.055202335 0.737898648 -0.093448684
v -0.059704769 0.724088311 -0.091598324
v 0.099726915 0.738811076 -0.107281767
v -0.160162643 0.818161964 0.062774256
v -0.035276242 0.711358786 -0.076207757
v 0.119643353 0.955344558 -0.112893604
v 0.119422510 0.753169179 -0.112400793
v -0.044335127 0.726914763 -0.087037452
v -0.140093863 0.829186320 0.066175893
v -0.040155783 0.751127660 -0.091357462
v 0.106633388 0.954872727 -0.119474530
v -0.032310415 0.735165596 -0.072911575
v 0.106129661 0.717765927 -0.105822049
v -0.207273290 0.698354900 0.007564073
v -0.199125677 0.688166797 0.028604075
v 0.135677874 0.749118745 -0.103870109
v -0.133016557 0.813297451 0.071223900
v -0.116544463 0.823309124 0.073108256
v 0.113577709 0.788646817 -0.115102604
v -0.066495329 0.870270610 0.059743244
v -0.054335654 0.948880672 0.072643384
v -0.104781911 0.803576469 0.077619530
v 0.136464834 0.782077193 -0.108382761
v -0.093126193 0.818452835 0.072087698
v -0.077206708 0.857734978 0.056948461
v 0.172301352 0.785595596 -0.092731282
v -0.081200913 0.803715527 0.067700379
v 0.111190721 0.893619895 -0.138828546
v -0.068545409 0.841613591 0.056805789
v -0.086771712 0.847466469 0.067651793
v 0.187282830 0.779899299 -0.074573942
v -0.081138946 0.830966949 0.065875031
v 0.184606791 0.732718408 -0.070695810
v 0.192688122 0.744995177 -0.062318455
v -0.075816996 0.816843987 0.063595220
v -0.061643094 0.807512283 0.057064127
v -0.102721430 0.835532367 0.072331659
v -0.027707899 0.820346534 0.036023341
v -0.109388947 0.850001156 0.066109151
v -0.097869821 0.862015247 0.060450099
v 0.198355943 0.777181089 -0.056289695
v 0.209965199 0.753885746 -0.030012984
v -0.057103228 0.854122281 0.052658059
v -0.122923329 0.838260353 0.067100100
v -0.040014517 0.757926106 0.040880490
v -0.118718743 0.863991141 0.058234714
v 0.201605648 0.758725941 -0.051346194
v -0.131364405 0.877131820 0.048691213
v 0.210599378 0.751796961 -0.009691613
v -0.158299476 0.854454041 0.053044867
v 0.209460020 0.787290215 -0.014007488
v -0.142255098 0.845094502 0.060490806
v -0.056402452 0.885332704 0.062250227
v -0.153915972 0.870848536 0.047189511
v 0.208838224 0.718823254 -0.005779772
v -0.058216937 0.917257190 0.064939663
v -0.004290653 0.824738026 -0.103768304
v -0.053346056 0.933461308 0.066261217
v -0.164639190 0.874379754 0.031478386
v -0.190334469 0.835087419 0.024823748
v -0.036926426 0.936217129 0.068685830
v -0.003851976 0.834663987 -0.113149941
v -0.080516607 0.950899243 0.064659432
v -0.204186842 0.827359080 0.003613702
v 0.075066917 0.866265953 -0.147702545
v 0.114241466 0.930015743 -0.128958121
v -0.181242540 0.880843341 0.003907311
v -0.067317948 0.950258076 0.068326443
v 0.208906248 0.784719527 0.014919993
v 0.091787018 0.953706622 -0.123854302
v -0.170907691 0.917077541 -0.023983076
v 0.199409351 0.798576474 0.028104857
v -0.200628191 0.838699937 -0.014534284
v -0.194488600 0.857360661 -0.014148248
v -0.186749786 0.873558879 -0.016850326
v 0.076685354 0.952981174 -0.126349911
v 0.203418463 0.830143273 0.006106973
v 0.061281364 0.952616692 -0.128092974
v -0.076997980 0.887573600 0.060278736
v -0.017344346 0.900140584 -0.137770981
v 0.191011995 0.789835572 0.045812361
v 0.045877703 0.952133298 -0.128330141
v 0.055764187 0.940421700 -0.134993464
v 0.205234259 0.712240219 0.021440152
v -0.069738567 0.934548080 0.062152319
v -0.021358285 0.883976936 -0.139581233
v -0.194124371 0.851858914 -0.050607108
v -0.164555699 0.921979249 -0.077948101
v -0.087014087 0.872900665 0.056192227
v 0.029899087 0.951591194 -0.127744526
v -0.184731811 0.849276662 -0.070060685
v 0.014173848 0.950873077 -0.125515372
v -0.157198578 0.850724995 -0.098696694
v 0.182747871 0.718059659 0.058386616
v -0.175292701 0.843202591 -0.089050397
v 0.013757354 0.940267742 -0.129546732
v -0.001226115 0.949931502 -0.123229958
v 0.187216312 0.773994803 0.055766024
v 0.175693899 0.753484309 0.063645817
v 0.079440780 0.835879207 -0.135490686
v 0.015728073 0.926025093 0.069259927
v -0.161135510 0.868156314 -0.098810032
v -0.158532053 0.832971752 -0.100293875
v -0.156433269 0.941961884 -0.081252672
v 0.063925520 0.851261973 -0.143928364
v 0.161417574 0.771400154 0.068361558
v -0.137914330 0.839744091 -0.107564941
v -0.043251716 0.678486049 -0.073031761
v -0.111999929 0.840074658 -0.131257892
v -0.056559462 0.676534653 -0.077911302
v -0.069916293 0.674520552 -0.082792267
v -0.117636107 0.833595455 -0.116647065
v 0.139453709 0.760340393 0.074910268
v 0.154009312 0.746993959 0.070610449
v -0.083294787 0.672340989 -0.087584421
v 0.146384746 0.725684345 0.072063811
v -0.115862176 0.879043937 -0.137785569
v 0.034252584 0.920539379 0.068326205
v 0.021764060 0.908876419 0.068170406
v -0.096651167 0.670040965 -0.092279874
v 0.141233981 0.781435311 0.073777892
v -0.109238245 0.858960509 -0.138081446
v 0.122877680 0.785663903 0.077995375
v 0.131083727 0.740383446 0.078055330
v -0.112511531 0.668014944 -0.095713712
v -0.001548008 0.853018761 0.058130383
v -0.001945426 0.840639949 0.052810300
v -0.092311040 0.840744674 -0.138203591
v -0.126002401 0.667788863 -0.090903863
v -0.078656361 0.888620555 -0.148331121
v -0.099728398 0.828221679 -0.123588219
v -0.138331085 0.667367995 -0.085504159
v -0.151495844 0.667520642 -0.079825401
v -0.164716378 0.667453706 -0.074090697
v -0.048104677 0.834621549 0.045282222
v -0.025528824 0.832133770 0.047085531
v 0.075607143 0.757830858 0.064357504
v 0.078755260 0.741910517 0.064547434
v -0.178211838 0.667499065 -0.065844968
v -0.186946720 0.668004632 -0.054502416
v -0.029369231 0.788451791 0.034356751
v 0.060435914 0.751516283 0.057800900
v 0.041455049 0.763275087 0.046720989
v -0.195288584 0.668256342 -0.042773224
v -0.075770989 0.869757771 -0.148747534
v 0.068662554 0.784842372 0.062550835
v -0.202896595 0.668433964 -0.029998099
v -0.046093702 0.776277304 0.052611519
v 0.027919203 0.765128493 0.030559381
v -0.034431785 0.744229674 0.029246470
v -0.095888302 0.874271214 -0.145037502
v 0.024654131 0.728941321 0.023227423
v -0.058479588 0.758091450 0.056969482
v 0.063324295 0.814354599 0.057953138
v -0.035279788 0.717942834 0.024804521
v -0.046931133 0.718494177 0.043619618
v -0.055908740 0.894787192 -0.147201836
v -0.071725711 0.905273914 -0.148514986
v -0.064620078 0.790398717 0.060703039
v -0.056649655 0.915366292 -0.144689307
v 0.087907270 0.897529483 -0.147250399
v -0.203273341 0.668895543 -0.015184151
v 0.074236803 0.801460624 0.065141022
v -0.067109123 0.721612573 0.058222793
v -0.087579668 0.787583411 0.069932163
v 0.095318280 0.877957940 -0.145077348
v -0.070017651 0.741946340 0.060624767
v -0.079780348 0.758589864 0.065618686
v -0.067483470 0.902323425 0.062661499
v 0.064798869 0.731147647 -0.094758078
v -0.046514060 0.900627494 0.065412030
v 0.092066035 0.804953396 0.073064871
v -0.088179581 0.745568752 0.068084762
v 0.133695751 0.891939998 -0.128129333
v -0.203230351 0.669116855 -0.002047520
v -0.027706450 0.804243445 0.036329329
v 0.084366001 0.721653998 -0.099068306
v -0.197461873 0.670379937 0.025926739
v -0.122299001 0.768199623 0.079845466
v 0.080269970 0.737866521 -0.101509333
v -0.191413134 0.670533419 0.038633455
v -0.101715408 0.756009102 0.074191846
v 0.106118739 0.795005381 0.078425333
v 0.113827422 0.813927829 0.076813675
v 0.123364285 0.911067605 -0.131090432
v -0.182706386 0.670461059 0.052231718
v -0.108685218 0.784977198 0.078415230
v -0.169337049 0.670644641 0.057857133
v -0.123784207 0.750095427 0.079812557
v -0.155940086 0.670503139 0.063419171
v -0.142424479 0.669829905 0.068958744
v -0.131139040 0.782758713 0.075819358
v -0.143332884 0.757776618 0.073321953
v -0.130026996 0.669775307 0.074560225
v 0.132007718 0.802917659 0.073622540
v -0.146805733 0.773469806 0.072423875
v -0.112596527 0.669959426 0.072099768
v -0.098578729 0.670241237 0.066454314
v 0.128259718 0.710226059 -0.099576712
v -0.148431465 0.789397120 0.070517041
v 0.169006258 0.812174320 0.061898213
v 0.129631057 0.723809838 -0.102311395
v 0.150817007 0.940220356 -0.095671944
v -0.084432103 0.670487761 0.060753934
v -0.141292855 0.742142618 0.074364543
v -0.070206724 0.670775235 0.055025004
v 0.125118405 0.942562699 -0.118134119
v -0.055616878 0.671105862 0.045095600
v -0.047418896 0.672744155 0.032156669
v 0.186273843 0.807719707 0.044002060
v 0.141952157 0.908592820 -0.117508948
v -0.039270427 0.674517512 0.019263877
v -0.028530722 0.675948262 0.008865140
v -0.165993646 0.799834549 0.064300530
v -0.023849444 0.687551022 0.001993761
v -0.165130749 0.764545739 0.066565320
v 0.144315168 0.719008207 -0.093947694
v 0.152578205 0.891643524 -0.109529674
v 0.195241898 0.816767693 0.025406376
v -0.185674891 0.792031169 0.053672455
v -0.183566973 0.753520787 0.060631495
v -0.187704623 0.772986174 0.055095822
v -0.045595892 0.811094582 -0.096727893
v 0.160711825 0.714094520 -0.084703200
v 0.202666044 0.826685548 -0.015813287
v 0.146268815 0.924086869 -0.107796825
v 0.010711511 0.835126698 -0.115457132
v -0.054357577 0.816578865 -0.114255093
v 0.065879494 0.809932053 -0.100989819
v -0.044364534 0.796747386 0.050499953
v 0.207828209 0.807742238 0.001694293
v -0.197771698 0.762079358 0.037910860
v -0.205305964 0.793552876 0.019879501
v -0.169897720 0.860517621 0.035753679
v 0.180567175 0.716242433 -0.072557002
v -0.208404377 0.753616035 0.018903282
v 0.108626083 0.930178285 0.047213830
v 0.205849677 0.808150768 -0.024451884
v -0.207734659 0.773335576 0.017794099
v -0.210438132 0.785221457 -0.004719765
v -0.208151489 0.798295498 -0.022440404
v 0.190281287 0.707904696 -0.057422549
v 0.207340762 0.792669594 -0.039619513
v -0.210574463 0.743275225 -0.003288382
v -0.189869493 0.865074933 0.005626732
v 0.156418651 0.908195019 -0.101765528
v -0.027711282 0.948025823 0.075627312
v 0.201354057 0.811808765 -0.050710969
v 0.189379722 0.816220284 -0.071971402
v -0.083763376 0.856047809 -0.144933611
v -0.060523253 0.857112527 -0.145104274
v 0.193944007 0.725908339 -0.056292593
v -0.210584477 0.763611257 -0.009478656
v 0.200051829 0.698412180 -0.042627655
v 0.196383536 0.795856357 -0.061963398
v -0.017035708 0.951494992 -0.125869274
v -0.032646645 0.952661157 -0.127939790
v 0.165324524 0.892917037 -0.086622648
v 0.016481062 0.823761106 0.038298238
v -0.048424546 0.953388989 -0.127833694
v -0.044595964 0.815022588 0.047991488
v 0.185850829 0.797098815 -0.078966625
v 0.173525676 0.806109309 -0.093336962
v -0.063881114 0.954147995 -0.127228841
v 0.165126994 0.912546456 -0.082657583
v -0.209933832 0.746183455 -0.026019309
v -0.078851432 0.954695702 -0.125245512
v -0.085084692 0.939651847 -0.134161368
v -0.189279735 0.865159810 -0.035829082
v -0.093469158 0.955738544 -0.122578397
v -0.107621349 0.956639886 -0.117600776
v 0.154146567 0.795761049 -0.101631165
v -0.202741429 0.791572154 -0.051906519
v -0.182499185 0.868777275 -0.060942777
v -0.168057561 0.877967954 -0.079000562
v -0.209241867 0.760705054 -0.038611047
v 0.173244715 0.899681389 -0.066267148
v 0.162267849 0.941836655 -0.067624085
v -0.200955421 0.712073147 -0.044873085
v 0.045987017 0.812698364 0.049356651
v 0.133380517 0.798810303 -0.110917769
v -0.066787526 0.838292718 -0.138450891
v -0.189718783 0.799788833 -0.073085800
v 0.166746199 0.936905742 -0.052305024
v -0.079846673 0.829231381 -0.130104050
v -0.187644035 0.706936479 -0.061294537
v 0.113864705 0.805356383 -0.115418449
v -0.194622248 0.754755795 -0.061233710
v -0.178000093 0.751300037 -0.083896019
v 0.169699758 0.935094476 -0.035749950
v -0.187650904 0.766242087 -0.071749605
v -0.177600816 0.788269520 -0.091134533
v 0.171675697 0.898349881 -0.027512450
v -0.170826942 0.732386947 -0.084080666
v -0.025973763 0.752750754 -0.074471891
v 0.077706799 0.795839310 -0.105561137
v -0.120063826 0.957412839 -0.111064449
v -0.130889043 0.957882524 -0.102872871
v -0.158624157 0.796966672 -0.100213543
v -0.157800764 0.778932035 -0.098992750
v -0.157560691 0.760980785 -0.095836371
v -0.156145379 0.743275464 -0.093443967
v -0.132697552 0.867527008 -0.128922686
v 0.063321732 0.844320416 0.052579183
v 0.206902817 0.717893660 -0.037301619
v -0.147691756 0.957997441 -0.079791829
v -0.153729707 0.958134830 -0.067068510
v 0.209443063 0.735403419 -0.021941841
v -0.008853574 0.686183333 -0.047662601
v -0.156609908 0.957553506 -0.053638805
v 0.170194522 0.902816594 -0.005866893
v -0.159041494 0.957446933 -0.040320471
v -0.159361631 0.957089245 -0.027027721
v -0.159008637 0.956943870 -0.014682149
v 0.201776981 0.825532556 -0.036352508
v 0.166087985 0.938864589 -0.020380778
v -0.155190781 0.956483543 -0.002044086
v -0.149474397 0.955402493 0.009957802
v -0.144708484 0.953436375 0.022589665
v 0.046102084 0.828649521 -0.124807581
v -0.137193054 0.950948119 0.033951093
v 0.161313713 0.934139073 -0.005552747
v -0.124961272 0.954209030 0.038985219
v -0.137736574 0.734294236 -0.100827672
v 0.161444813 0.895880520 0.012280608
v 0.014715536 0.788210928 -0.079297662
v -0.007632616 0.777773738 -0.075971112
v -0.006269666 0.792692542 -0.078258663
v 0.138382807 0.940568089 -0.107958697
v -0.138937324 0.752065659 -0.103183351
v -0.005535963 0.805731654 -0.084204465
v -0.138939887 0.788451970 -0.108195469
v 0.012644323 0.804285169 -0.084368199
v -0.004877005 0.817138791 -0.092314251
v -0.115253076 0.952963233 0.048269492
v 0.158641025 0.817055225 -0.100266553
v 0.151310861 0.934244514 0.008034853
v -0.121646307 0.742292047 -0.109897867
v -0.105807997 0.950256050 0.055967309
v -0.093091220 0.951576412 0.059287488
v 0.143483102 0.921997190 0.023589836
v 0.043085307 0.888923287 -0.145282164
v -0.139212519 0.769977391 -0.106180467
v -0.116520785 0.800018966 -0.116857171
v 0.141482800 0.939196289 0.019915745
v -0.121276796 0.760452092 -0.113074020
v 0.153734729 0.889371276 0.028669830
v -0.099731110 0.751903474 -0.109058782
v -0.003565314 0.809559226 0.029700616
v -0.085655108 0.936815083 0.058215313
v 0.121591829 0.937690139 0.041360732
v 0.125873834 0.922886550 0.039929744
v 0.133511066 0.936069846 0.032393053
v -0.083588414 0.743023813 -0.103386626
v -0.097695701 0.769871235 -0.110589825
v -0.078862056 0.761053264 -0.103900954
v 0.040840786 0.734618485 0.037864193
v -0.097233273 0.787931561 -0.111208156
v 0.046423797 0.924890876 -0.140242726
v -0.075859085 0.779093742 -0.105091169
v 0.022627316 0.916455567 -0.137673467
v -0.039826535 0.881734490 -0.145250708
v -0.036843278 0.903220654 -0.144442052
v 0.207960516 0.730257094 0.018200580
v 0.191839188 0.738269091 0.052055568
v -0.051726561 0.771755636 -0.097946063
v -0.057145111 0.793058038 -0.100100160
v -0.140632838 0.958178997 -0.091837510
v 0.140280604 0.896357238 0.034334488
v 0.123776078 0.891965389 0.040374458
v -0.205120251 0.682885170 0.006123685
v 0.161350057 0.711321950 0.065291047
v 0.168430269 0.732075334 0.064894274
v -0.203150421 0.669790328 0.011818262
v 0.113692448 0.908788204 0.047124904
v -0.035335831 0.694848716 -0.067200109
v -0.035193183 0.682829976 -0.059198875
v 0.012009153 0.713694155 0.014452619
v -0.024557011 0.685670495 -0.050103061
v -0.005161426 0.942020118 0.085101403
v 0.062575638 0.917817950 -0.144220814
v -0.014181331 0.947676659 0.076926440
v -0.027548920 0.706051946 0.017703898
v 0.121582165 0.720230222 0.079866059
v 0.029553851 0.935931981 0.069126993
v 0.072953902 0.686916351 0.057952870
v 0.061356526 0.699187815 0.054350059
v 0.094630048 0.696112037 0.067623280
v 0.045702595 0.867239952 -0.144415766
v 0.115095340 0.700564206 0.076154560
v 0.046158783 0.702827990 0.038980596
v 0.201477498 0.694003701 0.025994267
v 0.106827199 0.885723710 0.049408622
v 0.097083911 0.900225520 0.054823987
v 0.157577634 0.914977193 0.004806112
v 0.098836608 0.714412093 0.070723251
v 0.169646621 0.918781877 -0.019672021
v 0.173276991 0.914371610 -0.044729594
v 0.045585159 0.933528066 0.067799941
v 0.079749182 0.724194348 0.063853189
v 0.101928577 0.735435367 0.073453814
v 0.169274807 0.922498584 -0.065365590
v 0.160009637 0.932022274 -0.081535429
v 0.078509703 0.706201434 0.061978579
v 0.156921640 0.923232913 -0.094186038
v 0.186196506 0.690390646 -0.059346117
v 0.168101117 0.697263956 -0.077449277
v 0.058371276 0.732751727 0.055800069
v 0.141969636 0.698698461 -0.090178207
v 0.132348478 0.926034093 -0.119990751
v 0.060182769 0.714785457 0.055297405
v 0.102411702 0.773967266 0.075987659
v 0.140490040 0.705045104 0.073107645
v 0.177051008 0.698988557 0.058582693
v 0.195029587 0.705467761 0.041737832
v 0.208705857 0.773691654 -0.035268508
v 0.155289367 0.774413943 -0.098855615
v 0.043198664 0.719342768 0.037935995
v 0.137364939 0.764579356 -0.105662718
v 0.207662061 0.702996790 -0.018508164
v 0.207259327 0.699854732 0.003800604
v 0.033743273 0.748370647 0.031577103
v 0.009885881 0.766546845 0.023935871
v 0.081283733 0.906516731 0.060930133
v 0.061320234 0.932518959 0.064601526
v 0.016164424 0.781685889 0.027583238
v 0.032367814 0.853916764 0.057106219
v 0.020414274 0.836440563 0.051962048
v 0.018324334 0.716290832 -0.062229596
v 0.051821791 0.917275548 0.066213019
v 0.033597901 0.744936049 -0.080022037
v 0.029471939 0.895073116 0.066403881
v 0.041867536 0.904192448 0.066612735
v 0.013842421 0.894340634 0.067040563
v 0.032969944 0.700265825 -0.062277775
v 0.049925011 0.746331692 -0.093450084
v 0.070289873 0.830008149 0.061049856
v 0.197788790 0.777581155 0.035243139
v 0.187395006 0.854730308 -0.061237466
v 0.049799941 0.693339288 -0.079927497
v 0.173491046 0.766222596 -0.088634953
v 0.120916568 0.834085584 -0.114374317
v 0.114685699 0.771459877 -0.114708200
v 0.073783033 0.689056277 -0.088374726
v 0.046564210 0.780359447 -0.096900284
v 0.034222491 0.818477988 -0.112103164
v 0.116017461 0.697252393 -0.101717815
v 0.097159415 0.684753716 -0.096208274
v 0.096049704 0.934095025 -0.134374633
v 0.067405358 0.916265786 0.063563935
v 0.062597826 0.897225678 0.062981293
v 0.124322116 0.681163311 -0.093578145
v 0.024479708 0.881157577 0.065191723
v 0.039813910 0.869428039 0.062438451
v 0.074254140 0.934269547 -0.137962028
v 0.147995815 0.680747807 -0.082791165
v 0.177499801 0.825209022 -0.090753563
v 0.020377401 0.861308753 -0.135409415
v 0.171887830 0.728133857 -0.082075663
v 0.169651926 0.679111362 -0.073068462
v 0.015343467 0.772405028 -0.076774366
v 0.184809178 0.675013006 -0.058134157
v 0.027482891 0.832516074 -0.121412322
v 0.197113305 0.679585159 -0.042781111
v 0.206063628 0.688444495 -0.026526814
v 0.056241702 0.798751950 0.056503005
v 0.103713676 0.914226532 -0.138721943
v 0.082635038 0.917512298 -0.143511027
v 0.015418382 0.822440624 -0.107039586
v 0.205516577 0.685736954 -0.008197945
v 0.122909188 0.736540139 -0.108012199
v 0.210114643 0.736660957 -0.002069640
v 0.198226392 0.724629819 0.037546005
v 0.158017293 0.733824074 -0.090219885
v 0.141415894 0.735720694 -0.098867267
v 0.191053852 0.684699595 0.044626437
v 0.139614686 0.884574592 0.043725140
v 0.176454812 0.885685563 0.006637090
v 0.204233736 0.738746166 -0.045102783
v 0.037311461 0.711267948 -0.079105183
v 0.155909121 0.688554525 0.066302106
v 0.079938993 0.816915631 0.066168144
v 0.211122483 0.748888373 0.011074187
v 0.201879814 0.743832290 0.032356013
v 0.085344903 0.750804067 -0.104277536
v 0.134675190 0.683729529 0.074393585
v 0.119188026 0.872490048 -0.136249095
v -0.003262866 0.820460141 0.034804285
v -0.007335776 0.755654931 0.021053920
v 0.044307943 0.745943069 0.047048502
v 0.109280206 0.683044016 0.072396874
v 0.143620878 0.876616001 -0.120156989
v -0.004296377 0.796796978 0.027769297
v -0.002571729 0.828775227 0.044988804
v 0.090709321 0.680458128 0.064595506
v 0.018607397 0.866059959 0.062689170
v -0.001353809 0.865698934 0.063512370
v 0.096050896 0.918104529 0.054709118
v 0.051711686 0.686444461 0.043642994
v 0.093417779 0.935798645 0.054318268
v 0.204687923 0.681306362 0.009879746
v 0.094871059 0.820021272 0.073532023
v 0.032280587 0.934852004 -0.134905115
v 0.039289638 0.690255880 0.024512276
v 0.064025804 0.901143730 -0.147832766
v 0.016885396 0.694531322 0.012892686
v 0.032324336 0.708716989 0.023008641
v 0.038652949 0.845418274 -0.136895567
v 0.013379757 0.851795077 0.057896130
v 0.014275551 0.747468710 0.021204675
v -0.008223011 0.742271543 0.018545315
v -0.006041812 0.782998443 0.025003437
v 0.204176739 0.675333202 -0.021184880
v -0.006559445 0.769215524 0.023423994
v 0.063780412 0.710412502 -0.089736342
v 0.085473396 0.812574983 -0.106674694
v 0.104570791 0.820617497 -0.111518219
v 0.148080513 0.817526519 0.066748463
v 0.087943897 0.788273096 0.070644662
v 0.154287845 0.797046363 0.068559289
v 0.089334086 0.703191161 -0.097142085
v 0.197772712 0.677709937 0.027942499
f 555 540 123
f 389 162 497
f 567 540 568
f 583 104 251
f 463 489 430
f 453 94 255
f 483 484 162
f 446 640 671
f 574 577 251
f 50 244 238
f 52 244 50
f 575 57 53
f 55 249 52
f 55 2 250
f 577 248 563
f 575 437 432
f 57 597 589
f 2 265 262
f 589 592 57
f 262 259 2
f 5 267 262
f 602 606 589
f 5 9 11
f 58 606 610
f 11 272 5
f 12 278 11
f 565 793 8
f 630 60 632
f 13 425 12
f 424 289 160
f 289 424 13
f 643 649 60
f 181 403 179
f 483 206 484
f 163 651 174
f 53 563 558
f 651 65 650
f 163 389 384
f 683 66 65
f 455 558 563
f 165 384 171
f 340 331 34
f 67 66 683
f 206 470 63
f 385 102 856
f 67 702 70
f 344 340 696
f 179 403 406
f 710 70 702
f 16 352 14
f 111 112 59
f 63 64 655
f 18 368 16
f 710 742 753
f 119 112 111
f 394 671 545
f 551 922 903
f 19 375 18
f 753 740 711
f 406 470 179
f 261 615 108
f 545 453 439
f 178 386 530
f 24 386 23
f 72 753 742
f 26 396 24
f 768 765 72
f 119 142 112
f 32 63 470
f 112 142 161
f 399 400 396
f 154 343 182
f 545 671 448
f 399 415 400
f 768 770 765
f 32 406 410
f 418 415 399
f 770 183 777
f 387 300 166
f 415 418 422
f 105 86 299
f 169 42 839
f 170 142 119
f 173 172 705
f 329 638 343
f 134 738 737
f 185 638 329
f 692 661 145
f 150 74 741
f 637 345 873
f 132 145 661
f 170 184 142
f 138 495 760
f 138 136 188
f 136 194 188
f 201 87 194
f 270 87 205
f 216 49 210
f 46 216 724
f 198 184 170
f 43 96 907
f 219 39 218
f 45 43 41
f 224 37 219
f 498 224 514
f 86 105 342
f 225 36 514
f 378 107 110
f 80 233 107
f 22 41 43
f 198 217 849
f 41 581 45
f 103 233 76
f 76 40 103
f 222 217 214
f 678 100 40
f 98 41 22
f 366 41 98
f 40 76 678
f 215 4 284
f 215 98 21
f 537 536 92
f 222 234 217
f 904 537 92
f 460 462 30
f 284 471 366
f 222 239 246
f 586 903 759
f 462 28 30
f 246 234 222
f 454 449 28
f 237 391 924
f 560 319 921
f 246 888 252
f 431 471 282
f 455 560 391
f 319 560 241
f 50 238 793
f 50 566 52
f 52 574 55
f 258 263 510
f 244 52 249
f 55 253 2
f 284 792 657
f 303 670 667
f 303 100 674
f 250 249 55
f 273 274 252
f 251 253 574
f 100 303 301
f 301 570 100
f 104 261 257
f 677 100 678
f 273 285 274
f 257 2 253
f 2 257 265
f 250 2 259
f 570 568 40
f 752 292 293
f 294 296 285
f 285 296 274
f 684 497 679
f 277 274 296
f 440 447 442
f 579 489 463
f 692 329 695
f 259 262 267
f 871 736 360
f 262 271 9
f 40 100 570
f 570 567 568
f 203 128 270
f 310 296 294
f 305 296 310
f 87 270 194
f 9 5 262
f 5 272 600
f 276 9 271
f 9 276 11
f 272 11 278
f 302 323 310
f 568 103 40
f 108 615 89
f 280 11 276
f 11 280 12
f 103 568 540
f 278 12 425
f 323 337 328
f 283 12 280
f 12 283 13
f 283 297 289
f 289 13 283
f 540 561 231
f 425 13 424
f 209 288 205
f 291 125 286
f 346 337 323
f 49 304 288
f 173 350 351
f 297 654 314
f 347 158 864
f 304 47 311
f 47 304 49
f 47 46 481
f 360 361 855
f 501 684 146
f 481 311 47
f 46 39 481
f 343 695 329
f 314 289 297
f 289 314 160
f 481 321 308
f 481 39 321
f 325 122 321
f 325 321 37
f 37 321 39
f 333 160 314
f 324 266 333
f 527 107 231
f 84 121 325
f 36 327 498
f 160 333 34
f 327 120 84
f 36 82 371
f 277 393 390
f 689 34 333
f 34 689 340
f 313 34 331
f 266 334 689
f 334 260 341
f 340 335 331
f 107 527 110
f 54 404 405
f 696 14 344
f 61 401 44
f 38 299 407
f 358 14 348
f 14 358 16
f 344 14 352
f 356 704 712
f 352 16 368
f 413 62 417
f 370 16 358
f 16 370 18
f 175 705 134
f 713 115 110
f 371 27 378
f 27 371 82
f 381 18 370
f 18 381 19
f 368 18 375
f 80 378 27
f 19 381 235
f 19 395 23
f 19 23 178
f 202 506 913
f 23 395 24
f 386 24 396
f 398 24 395
f 24 398 26
f 26 398 220
f 26 412 399
f 396 26 399
f 418 399 412
f 164 180 444
f 444 443 164
f 175 173 705
f 685 84 120
f 422 300 415
f 685 121 84
f 172 169 300
f 172 300 422
f 78 80 27
f 226 365 78
f 89 615 114
f 240 485 309
f 134 737 175
f 226 27 82
f 245 459 452
f 187 186 140
f 243 459 245
f 189 187 130
f 581 466 579
f 467 472 637
f 308 122 240
f 138 579 466
f 430 255 463
f 499 435 430
f 453 430 435
f 435 440 439
f 435 499 450
f 243 479 281
f 308 321 122
f 897 438 584
f 439 453 435
f 243 281 893
f 450 440 435
f 480 859 865
f 440 449 447
f 442 439 440
f 450 449 440
f 447 449 454
f 492 488 493
f 127 458 456
f 449 456 28
f 82 225 708
f 454 28 462
f 28 456 30
f 456 450 127
f 30 456 458
f 225 82 36
f 30 464 460
f 506 507 502
f 126 469 125
f 287 508 509
f 207 507 506
f 410 460 32
f 126 306 477
f 460 464 644
f 644 32 460
f 32 644 63
f 475 31 576
f 470 406 32
f 64 63 644
f 306 309 477
f 125 464 458
f 528 795 511
f 516 523 524
f 655 206 63
f 206 655 484
f 206 474 470
f 162 679 497
f 316 322 822
f 313 160 34
f 37 498 325
f 523 316 534
f 497 684 501
f 501 146 505
f 146 512 503
f 505 503 513
f 263 515 510
f 512 120 115
f 503 512 91
f 517 513 503
f 115 713 91
f 458 203 125
f 315 547 548
f 91 512 115
f 547 330 336
f 91 713 88
f 517 88 522
f 552 548 547
f 532 88 713
f 88 532 519
f 552 336 553
f 522 519 541
f 527 231 561
f 127 128 458
f 538 660 692
f 514 36 498
f 224 498 37
f 538 692 695
f 114 626 631
f 553 342 105
f 219 37 39
f 555 660 561
f 127 450 499
f 891 199 824
f 660 555 661
f 218 39 46
f 199 97 886
f 366 98 284
f 22 21 98
f 41 366 581
f 43 232 22
f 907 232 43
f 96 536 907
f 45 463 255
f 45 581 463
f 255 94 96
f 255 96 45
f 94 453 545
f 448 546 545
f 582 593 594
f 595 584 438
f 216 46 47
f 216 47 49
f 551 640 558
f 558 640 569
f 49 288 209
f 793 565 50
f 569 53 558
f 566 50 565
f 209 210 49
f 841 351 350
f 574 52 566
f 578 53 57
f 612 609 423
f 53 578 563
f 575 53 569
f 597 432 211
f 253 55 574
f 57 575 597
f 578 57 592
f 592 583 578
f 627 609 612
f 584 621 628
f 603 589 606
f 602 589 597
f 634 819 627
f 610 606 602
f 835 318 229
f 626 606 58
f 610 624 58
f 58 624 630
f 632 58 630
f 634 884 869
f 58 632 626
f 60 642 632
f 642 60 649
f 60 630 181
f 650 649 643
f 662 652 645
f 656 628 621
f 621 636 656
f 658 659 204
f 64 644 469
f 466 495 138
f 694 377 700
f 468 471 431
f 663 650 65
f 628 656 668
f 679 162 484
f 65 686 663
f 672 673 659
f 686 65 66
f 683 65 651
f 468 431 478
f 683 693 67
f 685 146 684
f 146 685 512
f 696 340 689
f 66 67 701
f 473 495 478
f 66 698 686
f 702 67 693
f 668 675 687
f 701 698 66
f 405 690 54
f 701 67 70
f 54 690 564
f 14 696 348
f 711 70 710
f 699 70 711
f 702 709 710
f 229 318 236
f 657 282 471
f 710 709 742
f 753 756 740
f 756 753 72
f 742 754 72
f 72 754 768
f 72 765 756
f 766 765 770
f 490 193 496
f 130 772 496
f 770 776 766
f 15 719 168
f 87 201 148
f 183 770 768
f 201 194 136
f 422 705 172
f 633 777 338
f 777 633 150
f 408 74 633
f 638 185 408
f 106 730 258
f 688 379 694
f 275 631 118
f 185 692 145
f 197 750 749
f 736 737 738
f 263 258 730
f 738 741 743
f 185 145 143
f 743 741 744
f 744 741 74
f 744 467 879
f 132 140 145
f 123 132 661
f 741 738 150
f 123 540 567
f 773 772 567
f 738 134 150
f 78 27 226
f 238 623 1
f 264 279 779
f 776 150 134
f 134 705 420
f 695 541 538
f 104 599 261
f 365 681 680
f 761 762 763
f 365 678 76
f 76 78 365
f 411 156 420
f 156 411 220
f 541 519 538
f 220 764 156
f 76 233 78
f 80 78 233
f 168 789 387
f 70 699 701
f 398 395 228
f 434 437 445
f 779 780 887
f 428 432 434
f 926 317 706
f 197 749 745
f 213 6 4
f 279 785 780
f 419 427 428
f 148 201 745
f 454 462 419
f 526 782 783
f 381 734 235
f 410 414 419
f 493 769 913
f 511 4 215
f 4 511 213
f 406 414 410
f 208 731 729
f 21 511 215
f 210 728 727
f 794 800 823
f 511 21 529
f 470 474 179
f 724 218 46
f 227 110 115
f 118 280 275
f 219 218 722
f 806 800 794
f 803 804 256
f 716 778 225
f 224 219 720
f 407 86 690
f 356 734 381
f 389 497 380
f 809 795 528
f 810 806 811
f 717 716 514
f 497 501 380
f 317 697 429
f 810 818 821
f 913 771 202
f 341 698 699
f 373 376 159
f 369 177 373
f 341 260 698
f 260 334 266
f 365 226 681
f 517 522 354
f 828 821 818
f 354 362 364
f 569 640 446
f 519 522 88
f 767 828 818
f 266 324 676
f 602 597 211
f 804 834 256
f 121 240 122
f 345 868 918
f 610 602 211
f 169 839 166
f 427 195 211
f 643 179 174
f 683 651 165
f 693 683 171
f 627 884 634
f 324 654 676
f 846 397 841
f 841 397 374
f 362 709 369
f 580 397 846
f 192 188 190
f 192 499 489
f 128 192 190
f 270 205 203
f 205 288 286
f 291 306 126
f 208 148 733
f 288 304 291
f 304 311 306
f 311 481 308
f 286 125 203
f 283 118 297
f 589 599 592
f 283 280 118
f 227 115 120
f 747 805 732
f 707 226 82
f 107 378 80
f 275 114 631
f 118 646 297
f 89 114 275
f 231 233 103
f 87 209 205
f 816 872 870
f 271 108 89
f 248 560 455
f 248 241 560
f 108 271 265
f 566 565 241
f 86 876 690
f 622 244 619
f 517 91 88
f 574 566 248
f 715 662 889
f 244 249 618
f 249 250 614
f 882 465 718
f 253 251 257
f 774 465 882
f 250 259 608
f 883 494 774
f 921 391 560
f 259 267 604
f 54 564 847
f 251 577 583
f 600 267 5
f 89 276 271
f 503 91 517
f 690 405 407
f 275 276 89
f 892 573 582
f 272 278 596
f 248 577 574
f 280 276 275
f 425 588 591
f 425 424 781
f 781 313 572
f 424 313 781
f 572 585 781
f 314 654 324
f 136 197 201
f 313 557 572
f 237 551 558
f 554 331 335
f 334 341 348
f 760 136 138
f 335 344 549
f 341 699 704
f 348 696 334
f 921 319 7
f 358 348 704
f 344 352 544
f 912 582 594
f 903 586 551
f 352 368 543
f 381 370 356
f 368 375 539
f 788 8 3
f 535 375 178
f 221 795 809
f 828 767 562
f 559 833 920
f 921 920 899
f 546 448 898
f 903 922 836
f 38 903 299
f 235 228 395
f 405 669 407
f 546 92 94
f 400 518 520
f 92 546 904
f 639 35 926
f 386 396 525
f 927 926 33
f 928 605 930
f 200 490 298
f 94 545 546
f 96 92 536
f 927 56 852
f 143 472 408
f 220 412 26
f 400 520 521
f 412 220 411
f 109 113 152
f 920 832 559
f 418 412 411
f 152 113 746
f 387 789 786
f 420 418 411
f 746 161 867
f 418 420 422
f 490 773 298
f 496 772 773
f 394 442 445
f 562 767 832
f 739 636 820
f 204 725 658
f 773 490 496
f 725 223 635
f 447 454 428
f 472 186 637
f 215 284 98
f 189 130 496
f 458 464 30
f 410 462 460
f 125 469 464
f 635 247 487
f 487 269 629
f 641 487 629
f 268 269 487
f 269 393 629
f 390 269 268
f 469 126 64
f 349 761 763
f 655 64 477
f 303 674 670
f 290 393 277
f 611 290 928
f 163 474 483
f 928 307 605
f 635 641 648
f 531 605 533
f 677 674 100
f 477 309 485
f 506 202 207
f 679 485 240
f 240 121 684
f 312 912 594
f 684 679 240
f 121 685 684
f 186 187 345
f 503 505 146
f 912 332 892
f 772 130 132
f 685 120 512
f 501 505 159
f 725 648 658
f 505 513 373
f 513 517 364
f 892 847 564
f 110 527 713
f 714 847 339
f 522 541 154
f 51 714 346
f 231 103 540
f 714 51 404
f 541 695 343
f 567 772 123
f 502 500 506
f 578 577 563
f 867 659 673
f 577 578 583
f 597 575 432
f 592 104 583
f 913 492 493
f 845 167 839
f 599 104 592
f 386 178 23
f 599 603 615
f 110 227 378
f 615 261 599
f 706 402 639
f 603 626 114
f 132 123 772
f 624 610 195
f 409 706 317
f 746 673 682
f 114 615 603
f 120 327 227
f 624 414 403
f 691 429 697
f 642 631 632
f 642 118 631
f 429 433 853
f 646 118 642
f 642 649 646
f 152 682 691
f 682 433 691
f 181 643 60
f 654 297 646
f 122 325 121
f 140 130 187
f 421 416 617
f 123 661 555
f 309 308 240
f 698 260 686
f 702 693 177
f 698 701 699
f 672 441 436
f 291 126 125
f 109 691 697
f 143 140 186
f 874 872 816
f 665 441 672
f 188 192 489
f 665 658 653
f 712 704 699
f 653 451 665
f 927 697 317
f 712 740 734
f 648 461 653
f 178 375 19
f 923 880 116
f 641 461 648
f 740 756 748
f 748 758 228
f 926 706 639
f 479 641 482
f 754 742 362
f 354 754 362
f 407 669 38
f 203 458 128
f 482 629 620
f 756 765 758
f 182 754 154
f 128 127 192
f 254 246 252
f 611 382 620
f 764 398 228
f 499 192 127
f 764 766 156
f 766 776 156
f 930 611 928
f 420 156 776
f 140 132 130
f 788 7 8
f 387 166 168
f 420 776 134
f 136 760 197
f 300 387 415
f 750 197 760
f 745 201 197
f 148 208 209
f 733 148 745
f 258 35 106
f 593 533 605
f 731 208 733
f 236 318 910
f 729 210 208
f 728 210 729
f 727 216 210
f 188 489 579
f 929 573 556
f 724 216 727
f 573 929 582
f 723 218 724
f 722 218 723
f 720 219 722
f 717 224 720
f 514 224 717
f 188 579 138
f 876 556 573
f 707 681 226
f 898 904 546
f 472 143 186
f 212 795 221
f 899 391 921
f 854 925 931
f 213 795 212
f 140 143 145
f 404 54 714
f 833 922 924
f 415 387 786
f 143 408 185
f 238 3 793
f 1 3 238
f 31 799 752
f 622 238 244
f 918 799 515
f 380 376 171
f 915 752 357
f 617 476 421
f 619 244 618
f 618 249 616
f 616 249 614
f 636 739 613
f 388 613 10
f 614 250 608
f 357 791 915
f 383 688 388
f 608 259 607
f 571 438 576
f 295 667 666
f 92 96 94
f 607 259 604
f 372 726 700
f 667 295 303
f 367 726 372
f 604 267 601
f 298 295 207
f 923 875 880
f 363 732 367
f 408 467 74
f 148 209 87
f 298 301 295
f 359 747 363
f 601 267 600
f 359 355 755
f 600 272 598
f 598 272 596
f 353 755 355
f 301 298 773
f 596 278 591
f 747 755 751
f 591 278 425
f 588 425 781
f 388 688 813
f 769 771 913
f 763 353 349
f 202 771 200
f 506 500 913
f 74 467 744
f 773 570 301
f 82 708 707
f 320 647 326
f 500 492 913
f 331 554 557
f 242 910 320
f 344 335 340
f 910 908 647
f 554 335 550
f 239 222 703
f 549 550 335
f 549 344 544
f 166 167 168
f 544 352 543
f 543 368 542
f 17 15 167
f 17 845 157
f 907 536 919
f 157 850 155
f 155 850 153
f 542 368 539
f 150 633 74
f 153 854 151
f 151 854 149
f 149 858 147
f 147 862 144
f 539 375 535
f 759 903 38
f 530 535 178
f 144 862 141
f 141 866 139
f 139 866 137
f 530 386 525
f 137 870 135
f 525 396 521
f 135 870 872
f 133 872 131
f 131 874 129
f 129 923 117
f 923 874 875
f 170 119 902
f 521 396 400
f 20 932 101
f 99 101 932
f 99 886 97
f 95 97 199
f 95 891 93
f 93 896 90
f 518 400 786
f 90 896 85
f 85 901 83
f 83 905 81
f 169 166 300
f 81 905 79
f 77 79 796
f 77 909 75
f 439 394 545
f 75 914 73
f 73 914 71
f 71 916 69
f 442 394 439
f 468 466 366
f 442 447 434
f 7 562 920
f 794 534 811
f 924 899 833
f 434 447 428
f 428 454 419
f 419 462 410
f 38 898 759
f 902 111 897
f 466 468 495
f 526 524 534
f 25 59 56
f 96 43 45
f 895 401 61
f 182 343 338
f 483 389 163
f 483 162 389
f 897 59 25
f 883 894 775
f 776 777 150
f 59 897 111
f 380 384 389
f 774 882 893
f 111 902 119
f 778 708 225
f 501 159 380
f 167 166 839
f 159 505 373
f 176 191 867
f 373 513 369
f 364 369 513
f 850 890 925
f 354 364 517
f 354 522 154
f 177 369 709
f 154 541 343
f 446 445 437
f 376 380 159
f 204 223 725
f 217 198 214
f 214 703 222
f 437 569 446
f 610 211 195
f 414 624 195
f 403 630 624
f 889 718 715
f 160 313 424
f 181 630 403
f 888 246 239
f 179 643 181
f 174 650 643
f 651 650 174
f 163 384 165
f 487 247 268
f 165 651 163
f 171 683 165
f 174 474 163
f 557 313 331
f 475 515 799
f 376 693 171
f 285 273 757
f 177 693 376
f 627 885 884
f 174 179 474
f 509 508 516
f 294 302 310
f 709 702 177
f 709 362 742
f 154 754 354
f 182 338 183
f 780 785 803
f 183 768 182
f 423 413 881
f 183 338 777
f 638 338 343
f 633 638 408
f 590 401 895
f 692 185 329
f 190 188 194
f 515 475 25
f 270 190 194
f 190 270 128
f 195 427 414
f 7 788 562
f 915 878 571
f 877 595 438
f 203 205 286
f 44 48 61
f 474 206 483
f 210 209 208
f 61 62 895
f 413 895 62
f 211 432 427
f 172 42 169
f 398 764 220
f 515 263 918
f 437 575 569
f 228 758 764
f 124 885 426
f 175 871 350
f 84 498 327
f 225 514 716
f 327 371 227
f 918 263 730
f 898 448 759
f 371 327 36
f 839 374 890
f 227 371 378
f 451 441 665
f 228 235 748
f 444 180 457
f 233 231 107
f 187 868 345
f 759 448 586
f 189 292 868
f 734 748 235
f 653 461 826
f 924 922 237
f 292 193 196
f 446 671 394
f 461 641 479
f 922 551 237
f 391 237 455
f 482 641 629
f 918 868 799
f 196 200 293
f 771 293 200
f 558 455 237
f 281 287 894
f 894 893 281
f 248 566 241
f 257 251 104
f 255 430 453
f 257 261 265
f 509 775 287
f 260 266 676
f 509 516 524
f 265 261 108
f 523 516 531
f 322 316 523
f 273 252 888
f 265 271 262
f 811 534 316
f 316 315 811
f 676 686 260
f 366 466 581
f 478 495 468
f 330 547 315
f 547 336 552
f 366 471 468
f 760 495 473
f 657 471 284
f 336 342 553
f 553 900 552
f 832 900 553
f 865 878 791
f 792 284 4
f 31 571 576
f 286 288 291
f 438 571 877
f 906 864 863
f 4 790 792
f 8 7 319
f 303 295 301
f 291 304 306
f 570 773 567
f 739 617 392
f 617 416 392
f 306 311 309
f 309 311 308
f 170 628 668
f 613 739 10
f 739 392 10
f 656 675 668
f 656 815 675
f 680 678 365
f 813 613 388
f 324 333 314
f 687 198 668
f 379 688 383
f 295 666 207
f 815 656 636
f 377 694 379
f 325 498 84
f 689 333 266
f 334 696 689
f 700 377 372
f 861 834 860
f 703 721 239
f 732 726 367
f 834 861 256
f 348 341 704
f 747 732 363
f 356 358 704
f 735 888 721
f 370 358 356
f 735 264 757
f 735 273 888
f 755 747 359
f 369 364 362
f 353 763 755
f 647 761 326
f 761 349 326
f 376 373 177
f 779 757 264
f 780 779 279
f 384 380 171
f 235 395 19
f 736 871 737
f 562 788 917
f 910 647 320
f 785 804 803
f 414 406 403
f 256 323 803
f 813 675 815
f 415 786 400
f 427 419 414
f 422 420 705
f 432 428 427
f 430 489 499
f 587 580 590
f 437 434 432
f 445 442 434
f 446 394 445
f 671 586 448
f 819 609 627
f 456 449 450
f 455 563 248
f 865 791 769
f 581 579 463
f 645 652 817
f 644 464 469
f 652 662 715
f 874 923 129
f 715 664 652
f 694 812 688
f 477 64 126
f 750 760 473
f 485 655 477
f 465 715 718
f 507 207 666
f 465 774 494
f 865 486 480
f 812 675 813
f 485 484 655
f 207 202 298
f 883 504 825
f 493 865 769
f 783 782 504
f 679 484 485
f 202 200 298
f 196 490 200
f 196 193 490
f 877 859 476
f 302 803 323
f 189 496 193
f 814 806 810
f 168 719 789
f 821 814 810
f 391 899 924
f 713 527 532
f 467 408 472
f 302 294 887
f 786 787 518
f 538 519 532
f 561 532 527
f 926 35 33
f 538 532 660
f 540 555 561
f 551 586 640
f 319 241 565
f 660 532 561
f 113 161 746
f 161 176 867
f 8 319 565
f 223 247 635
f 781 585 784
f 620 629 393
f 887 780 302
f 269 390 393
f 671 640 586
f 781 784 588
f 599 589 603
f 393 290 611
f 626 603 606
f 928 290 305
f 623 238 622
f 625 1 623
f 774 893 894
f 312 332 912
f 626 632 631
f 332 339 847
f 847 892 332
f 757 887 285
f 847 714 54
f 793 3 8
f 732 807 726
f 858 931 857
f 675 812 687
f 168 167 15
f 273 735 757
f 920 921 7
f 402 385 639
f 167 845 17
f 638 633 338
f 646 649 663
f 650 663 649
f 845 850 157
f 888 239 721
f 663 654 646
f 706 409 48
f 850 854 153
f 676 654 663
f 429 409 317
f 661 692 660
f 854 858 149
f 676 663 686
f 858 862 147
f 433 429 691
f 678 680 677
f 699 711 712
f 712 734 356
f 711 710 753
f 862 866 141
f 712 711 740
f 682 436 827
f 734 740 748
f 866 870 137
f 214 687 808
f 748 756 758
f 664 816 652
f 872 133 135
f 198 687 214
f 754 182 768
f 872 874 131
f 665 659 658
f 758 765 766
f 658 648 653
f 766 764 758
f 776 770 777
f 668 198 170
f 117 923 116
f 787 786 789
f 929 330 822
f 533 822 322
f 556 336 330
f 531 322 523
f 899 920 833
f 662 444 889
f 346 323 256
f 491 482 620
f 116 880 911
f 911 20 116
f 382 491 620
f 911 932 20
f 932 886 99
f 645 443 662
f 930 382 611
f 382 930 516
f 886 824 199
f 605 531 930
f 491 508 848
f 628 170 902
f 256 347 346
f 482 848 479
f 891 896 93
f 347 256 861
f 820 617 739
f 866 819 817
f 605 594 593
f 896 901 85
f 929 593 582
f 612 881 885
f 901 905 83
f 826 451 653
f 451 457 180
f 672 659 665
f 441 180 851
f 79 905 796
f 436 673 672
f 436 851 827
f 909 914 75
f 682 673 436
f 914 916 71
f 584 902 897
f 876 86 342
f 69 916 1
f 829 433 827
f 700 808 694
f 788 3 916
f 853 829 417
f 409 61 48
f 402 48 855
f 870 817 816
f 855 29 360
f 874 816 664
f 385 361 102
f 830 880 875
f 576 897 25
f 819 634 817
f 68 69 1
f 106 856 730
f 743 736 738
f 910 242 236
f 862 857 819
f 744 879 102
f 880 830 831
f 840 528 843
f 401 846 44
f 803 302 780
f 769 791 357
f 878 915 791
f 831 911 880
f 918 873 345
f 576 25 475
f 799 31 475
f 841 29 846
f 879 856 102
f 106 639 385
f 573 564 876
f 911 831 802
f 342 556 876
f 337 339 332
f 25 510 515
f 350 29 841
f 564 573 892
f 892 582 912
f 510 25 56
f 864 906 837
f 312 328 337
f 929 822 593
f 33 35 258
f 871 360 29
f 840 860 835
f 864 158 863
f 29 855 44
f 916 914 917
f 808 687 812
f 594 307 312
f 307 305 328
f 916 917 788
f 33 56 927
f 840 835 809
f 307 594 605
f 736 743 361
f 531 516 930
f 290 277 305
f 852 109 927
f 318 835 860
f 21 844 529
f 852 59 112
f 620 393 611
f 102 743 744
f 112 113 852
f 751 763 762
f 647 785 762
f 805 747 751
f 252 268 254
f 230 835 229
f 487 641 635
f 637 879 467
f 124 851 164
f 809 230 221
f 161 142 176
f 807 732 805
f 247 234 254
f 230 809 835
f 808 700 807
f 345 637 186
f 176 184 191
f 812 694 808
f 204 849 223
f 849 204 191
f 813 688 812
f 635 648 725
f 849 184 198
f 815 613 813
f 815 636 613
f 217 223 849
f 659 191 204
f 217 234 223
f 191 184 849
f 859 480 421
f 795 213 511
f 245 461 243
f 878 865 859
f 802 886 932
f 191 659 867
f 452 718 889
f 223 234 247
f 176 142 184
f 246 254 234
f 865 493 486
f 293 771 357
f 268 247 254
f 771 769 357
f 805 264 735
f 268 252 390
f 161 113 112
f 486 493 488
f 390 252 274
f 867 673 746
f 264 751 279
f 274 277 390
f 746 682 152
f 281 848 287
f 827 433 682
f 808 703 214
f 152 691 109
f 109 852 113
f 476 859 421
f 296 305 277
f 476 595 877
f 305 307 928
f 196 293 292
f 595 476 820
f 726 807 700
f 752 293 357
f 307 328 312
f 310 328 305
f 56 59 852
f 292 752 799
f 328 310 323
f 886 825 824
f 312 337 332
f 807 703 808
f 891 824 782
f 193 292 189
f 844 21 22
f 429 853 409
f 109 697 927
f 56 33 510
f 105 559 553
f 339 337 346
f 346 714 339
f 51 346 347
f 317 926 927
f 564 690 876
f 863 844 232
f 799 868 292
f 510 33 258
f 843 528 529
f 844 863 842
f 861 840 843
f 861 158 347
f 861 860 840
f 752 915 31
f 158 843 842
f 843 158 861
f 842 529 844
f 919 837 906
f 906 232 907
f 809 528 840
f 730 873 918
f 730 856 873
f 873 856 879
f 856 106 385
f 817 634 645
f 837 919 838
f 817 652 816
f 919 906 907
f 919 536 537
f 743 102 361
f 904 669 838
f 898 669 904
f 669 898 38
f 703 807 721
f 405 404 838
f 669 405 838
f 922 833 836
f 294 285 887
f 361 385 402
f 869 645 634
f 830 875 664
f 916 3 1
f 864 51 347
f 402 855 361
f 909 801 914
f 397 890 374
f 48 44 855
f 796 909 77
f 879 637 873
f 901 798 905
f 580 925 397
f 48 402 706
f 896 800 901
f 891 823 896
f 409 62 61
f 853 62 409
f 881 413 417
f 417 62 853
f 86 407 299
f 459 893 882
f 199 891 95
f 830 465 831
f 829 426 417
f 426 829 124
f 426 881 417
f 124 829 827
f 433 829 853
f 886 802 825
f 774 894 883
f 851 124 827
f 164 884 124
f 441 851 436
f 180 164 851
f 443 869 164
f 911 802 932
f 715 830 664
f 874 664 875
f 736 361 360
f 451 180 441
f 457 452 889
f 889 444 457
f 866 817 870
f 106 35 639
f 459 718 452
f 826 452 457
f 452 826 245
f 451 826 457
f 862 819 866
f 858 857 862
f 461 245 826
f 459 882 718
f 479 243 461
f 854 931 858
f 850 925 854
f 846 401 580
f 845 890 850
f 491 848 482
f 848 281 479
f 825 494 883
f 382 508 491
f 900 832 767
f 508 287 848
f 896 823 800
f 839 890 845
f 504 782 824
f 42 374 839
f 516 508 382
f 908 910 318
f 534 524 523
f 552 818 548
f 42 172 173
f 901 800 798
f 818 552 900
f 533 322 531
f 871 175 737
f 868 187 189
f 22 232 844
f 593 822 533
f 822 315 316
f 929 556 330
f 330 315 822
f 838 919 537
f 904 838 537
f 318 860 834
f 908 318 834
f 465 830 715
f 556 342 336
f 105 836 559
f 833 559 836
f 29 44 846
f 908 834 804
f 562 917 828
f 299 836 105
f 818 900 767
f 832 553 559
f 562 832 920
f 811 315 548
f 828 801 821
f 801 828 917
f 821 797 814
f 836 299 903
f 401 590 580
f 797 821 801
f 905 798 796
f 796 814 797
f 810 548 818
f 814 798 806
f 798 814 796
f 909 796 797
f 811 548 810
f 413 587 590
f 404 51 837
f 51 864 837
f 837 838 404
f 909 797 801
f 529 842 843
f 158 842 863
f 232 906 863
f 800 806 798
f 529 528 511
f 794 811 806
f 785 908 804
f 785 647 908
f 859 877 878
f 526 534 794
f 877 571 878
f 571 31 915
f 173 351 42
f 524 783 509
f 350 173 175
f 29 350 871
f 823 526 794
f 783 524 526
f 526 823 782
f 42 351 374
f 841 374 351
f 504 775 783
f 509 783 775
f 782 823 891
f 885 124 884
f 887 757 779
f 914 801 917
f 426 885 881
f 890 397 925
f 825 504 824
f 775 504 883
f 925 587 931
f 587 925 580
f 802 494 825
f 785 279 762
f 494 831 465
f 831 494 802
f 894 287 775
f 590 895 413
f 438 897 576
f 884 164 869
f 762 279 751
f 423 931 587
f 587 413 423
f 931 423 857
f 762 761 647
f 617 820 476
f 595 820 621
f 751 755 763
f 893 459 243
f 751 264 805
f 609 857 423
f 423 881 612
f 662 443 444
f 721 805 735
f 621 584 595
f 857 609 819
f 443 645 869
f 612 885 627
f 636 621 820
f 628 902 584
f 805 721 807
