# avbd fit, rung f60-i32-s300-a300 of Gate 6d (body space, fit phase only)
v -0.004060323 0.673150480 0.037017889
v -0.111114338 0.694379270 0.073509082
v -0.003875405 0.687277436 0.040078949
v -0.000580810 0.939754188 0.080176122
v -0.159527004 0.680265784 0.063244551
v 0.002283657 0.954176903 0.086038046
v -0.003697909 0.715230763 0.045333721
v -0.003728478 0.701197326 0.043429736
v -0.160727739 0.696323752 0.064387828
v 0.141084105 0.953120112 -0.098025754
v -0.179820657 0.692592502 0.056456547
v -0.195090026 0.694647908 0.039561357
v -0.203049332 0.695598781 0.022942441
v -0.172048405 0.689778030 -0.074469157
v 0.012244327 0.661408782 -0.061340589
v -0.154271111 0.685896277 -0.081579730
v 0.027077477 0.660884500 -0.063283868
v -0.137088552 0.685885012 -0.089386411
v -0.120282575 0.689384997 -0.097965434
v 0.200948045 0.655768633 0.012805206
v -0.000761638 0.911688507 0.069305941
v -0.000889468 0.897041202 0.067809977
v -0.102019742 0.684229255 -0.098252706
v -0.087754503 0.690281749 -0.094452277
v 0.098232046 0.849796891 -0.139435440
v -0.073109940 0.698408961 -0.090929456
v -0.128693581 0.919254422 -0.126203731
v -0.132337138 0.848478973 0.061431337
v 0.041364249 0.745084226 -0.092356898
v -0.145181000 0.858211517 0.054616403
v 0.070871718 0.878107071 -0.149149418
v -0.180423215 0.839392960 0.037471406
v 0.088800386 0.819587350 -0.119227327
v -0.206099838 0.689492047 -0.031179508
v 0.074586846 0.810455978 -0.114452854
v -0.152362496 0.924243629 -0.101256266
v -0.169294775 0.922957718 -0.060798954
v 0.013627850 0.800825894 0.051735628
v -0.170646653 0.927409351 -0.041371427
v -0.075056300 0.916031063 -0.144993067
v -0.027618084 0.900955200 0.066989779
v 0.013940008 0.709720314 -0.079325043
v -0.017747041 0.883047938 0.065551586
v 0.063448839 0.749019086 -0.097816572
v -0.037982173 0.884610772 0.064755365
v -0.167957991 0.933304012 -0.022799712
v -0.166152880 0.919685721 -0.009721524
v 0.073446408 0.766738057 -0.102919713
v -0.159022167 0.923321605 0.008491771
v -0.042893276 0.691519380 0.047224510
v 0.055740017 0.859039009 0.060919769
v -0.064437762 0.692660987 0.054646701
v -0.077623501 0.766956627 0.065165259
v 0.057130408 0.824988663 0.059332937
v -0.085479431 0.692439198 0.063095935
v 0.103986301 0.831225753 -0.124315456
v -0.101104580 0.765272021 0.074516430
v -0.172379822 0.775207222 0.064523116
v 0.120355487 0.844435811 -0.126030222
v -0.199037775 0.773811460 0.033179097
v 0.084048405 0.751757324 -0.103993997
v 0.103944615 0.748654008 -0.109491922
v -0.189436078 0.848863602 0.019528773
v -0.181913346 0.865269065 0.016077338
v -0.209153369 0.770624101 -0.032503676
v -0.198659033 0.763985515 -0.056160599
v -0.187919199 0.773420036 -0.072740391
v 0.008789010 0.671097815 0.043845613
v 0.013539123 0.660583138 0.034957506
v -0.173095495 0.761093497 -0.088486537
v 0.028755819 0.660468578 0.037809975
v -0.116684064 0.767871559 -0.115309834
v 0.043507114 0.659975708 0.042637885
v -0.019324582 0.796468377 -0.102495059
v 0.057985552 0.659499645 0.048261218
v -0.094067708 0.918761849 -0.141113132
v 0.071915850 0.658976436 0.054992653
v -0.110936023 0.920459926 -0.133819193
v 0.086102210 0.658619523 0.060923893
v -0.119643986 0.907030582 -0.134258047
v 0.100194596 0.658267200 0.066662185
v -0.135035008 0.933442712 -0.114571117
v 0.114054486 0.657829881 0.072298482
v -0.165829152 0.894105256 -0.083282962
v 0.129561320 0.657471955 0.073847085
v 0.043925453 0.789363146 0.057990003
v -0.134048030 0.921269417 0.045341801
v -0.123338595 0.843332767 -0.122444555
v -0.161076337 0.723416328 0.066139534
v 0.141972199 0.657337427 0.068217665
v -0.141363859 0.852222621 -0.113478698
v -0.017879330 0.846205890 0.055914730
v 0.155229956 0.657768726 0.062420480
v -0.037566964 0.849042535 0.057694256
v 0.168585151 0.657620609 0.056901086
v -0.024090039 0.864738166 0.061833926
v 0.181827113 0.657204568 0.051137459
v -0.017653279 0.916685224 0.069111213
v 0.189240485 0.657037318 0.038494550
v -0.062033605 0.929365933 -0.139964998
v 0.195559606 0.656539500 0.025918067
v 0.026988506 0.796987176 -0.103438303
v -0.087005146 0.900477767 -0.147590086
v -0.110284030 0.731784701 0.075979136
v 0.037678801 0.771588445 0.055885542
v 0.057539534 0.810695171 -0.112962708
v -0.117351510 0.890481830 -0.136622608
v -0.143460959 0.719871402 0.072173484
v 0.129241973 0.809019923 -0.112936720
v -0.132834986 0.880749106 -0.129000425
v 0.134744555 0.855639577 -0.120541379
v 0.141001388 0.839635968 -0.110547267
v 0.142912835 0.820650876 -0.107047237
v -0.167140514 0.740009904 0.065649331
v -0.147104651 0.871594071 -0.117592514
v 0.201074094 0.655001223 -0.001202742
v 0.201137304 0.654103041 -0.014269471
v -0.198733866 0.731882215 0.037171699
v 0.149511009 0.856588066 -0.109236278
v -0.160029605 0.883000255 -0.101433530
v -0.173983663 0.882935047 -0.065513507
v -0.174762800 0.893923640 -0.050843500
v -0.055827361 0.868934274 -0.147177666
v 0.158348694 0.744657278 -0.092097349
v -0.157564372 0.882706523 0.033518761
v -0.172705352 0.880616486 0.015486221
v -0.113383159 0.874281764 0.053717047
v -0.123284854 0.889246941 0.048787005
v 0.200551122 0.653583169 -0.028439602
v -0.020319475 0.860224605 -0.138749644
v 0.193093702 0.653214037 -0.040652417
v -0.039464273 0.856181026 -0.140597075
v 0.185452491 0.652557075 -0.052672915
v -0.024147306 0.752951980 -0.091423608
v 0.176810980 0.651841104 -0.064114332
v -0.100729488 0.927339435 0.052158497
v 0.164069280 0.651501894 -0.071525872
v -0.082827672 0.922435284 0.060312837
v 0.150851399 0.651070237 -0.077253535
v -0.021218846 0.844589889 -0.132117674
v 0.137259290 0.650503099 -0.082219817
v 0.160787001 0.847799122 -0.097465739
v -0.022644337 0.830079198 -0.122384191
v 0.124474727 0.650645375 -0.086604670
v -0.041687094 0.839411080 -0.133079231
v -0.173524946 0.854226291 -0.087414324
v 0.110739544 0.650844574 -0.091196522
v -0.132983133 0.938767076 0.040925663
v 0.096325763 0.652740598 -0.086876050
v -0.028745646 0.775458217 -0.097047552
v 0.082951710 0.654775739 -0.081281699
v 0.145365268 0.803620636 -0.105760790
v 0.069213882 0.656547964 -0.076324329
v -0.103446424 0.808101177 -0.114682876
v 0.055431195 0.658241749 -0.071323059
v -0.062823221 0.735794961 -0.095537804
v 0.041532461 0.659850776 -0.066506207
v 0.046643890 0.889975369 0.064315714
v -0.183786854 0.825865626 -0.080292396
v -0.207187980 0.696903110 -0.010854495
v 0.159154013 0.829120815 -0.099950001
v -0.198499814 0.843917549 -0.034288354
v -0.205182672 0.812408566 -0.023386981
v 0.179191381 0.738763273 -0.079516366
v -0.206199601 0.800656140 -0.041969068
v -0.002744629 0.687788606 -0.070920959
v 0.016163975 0.676816285 -0.067917667
v -0.002850262 0.674551606 -0.065805145
v -0.002547534 0.701090276 -0.075903364
v 0.162805051 0.868884921 -0.095859461
v -0.197030008 0.803516746 -0.061126001
v -0.002398833 0.714663327 -0.080153622
v -0.002270628 0.728341937 -0.084229089
v -0.209277749 0.800016224 -0.003164704
v -0.002064926 0.742231727 -0.087789647
v 0.174991921 0.837245464 -0.091317758
v -0.174766347 0.797859550 -0.093157321
v -0.108937860 0.669292331 -0.096700802
v -0.199030399 0.808628738 0.022750668
v 0.189620405 0.755096555 -0.067316063
v -0.197341993 0.791607738 0.034230076
v -0.089643829 0.794150472 -0.110827222
v -0.075900748 0.781806171 -0.106245205
v 0.176510319 0.853736281 -0.081990205
v -0.043554749 0.825143993 -0.121418752
v -0.000257864 0.835770309 -0.125055417
v -0.000099458 0.848064303 -0.132491648
v -0.093886584 0.907264411 0.055518143
v 0.000043049 0.861343503 -0.137782991
v -0.112010442 0.901753724 0.049446203
v 0.185494974 0.832970142 -0.074705608
v -0.101331890 0.888828158 0.053817384
v 0.000170711 0.875229836 -0.141183898
v -0.114320099 0.917513072 0.045530163
v -0.153688818 0.798416317 0.067994893
v 0.000294849 0.889545441 -0.141465038
v -0.109997392 0.941665828 0.058599692
v 0.175821856 0.873449802 -0.069835640
v 0.177652419 0.673916996 0.055370145
v 0.000422622 0.903826714 -0.139986783
v -0.121826813 0.931702018 0.053460330
v 0.000489442 0.917983532 -0.137076750
v -0.139577717 0.892419457 0.038079079
v 0.195942566 0.827634931 -0.056559794
v -0.145445958 0.910576046 0.036842354
v -0.201218531 0.840859890 0.001036860
v 0.000541187 0.931880176 -0.132746726
v -0.145522773 0.943298697 0.029464573
v -0.142409220 0.926031888 0.024449099
v -0.157262057 0.940474868 0.013778520
v -0.134806603 0.791629314 0.073814608
v 0.030703193 0.951733589 0.084550276
v 0.016131558 0.952327073 0.085539341
v 0.177696019 0.887359798 -0.048581623
v -0.000637312 0.925974250 0.073510721
v -0.162623554 0.937810063 -0.005473731
v 0.188095942 0.866053462 -0.046488155
v -0.168582380 0.943730354 -0.035925951
v -0.165378526 0.940306842 -0.052628107
v -0.071445271 0.717431128 -0.094109997
v 0.045263827 0.951872170 0.082362391
v 0.183801562 0.877798676 -0.029628966
v 0.198539168 0.842358708 -0.037543532
v -0.162872955 0.938372791 -0.070147313
v -0.145448849 0.941736817 -0.101328470
v -0.117792025 0.935537040 -0.125828773
v -0.147104174 0.891865730 -0.115531877
v -0.101466894 0.719492853 -0.105036363
v 0.074311271 0.952129722 0.076632649
v 0.059830636 0.952039897 0.079744481
v -0.098831482 0.885390759 -0.144013837
v -0.001030965 0.882522762 0.066045471
v -0.104730785 0.903444886 -0.141269118
v 0.192627341 0.859404266 -0.024445491
v -0.120053068 0.710443318 -0.103728428
v 0.088624820 0.951971173 0.073306389
v -0.026047120 0.761333287 0.053417660
v -0.028565358 0.677178681 0.038958427
v 0.180316672 0.887060046 -0.014062730
v -0.182878926 0.878192425 -0.041996572
v -0.039138585 0.718780696 0.049702443
v 0.102873109 0.951457202 0.069837242
v 0.210778877 0.761987388 0.001014004
v -0.052508861 0.675845444 0.046882547
v 0.210230201 0.761116922 -0.017798088
v 0.187838584 0.872055054 -0.008941790
v 0.200059444 0.841453552 -0.012434554
v -0.055708546 0.729682922 0.055337340
v -0.075969525 0.675863862 0.057764351
v -0.098556682 0.677305520 0.067011096
v -0.092932597 0.722659945 0.068481266
v 0.184898168 0.863255858 0.014236795
v -0.094896510 0.706942081 0.068066500
v 0.195093840 0.857183754 -0.004245887
v -0.047504120 0.868107438 0.061178483
v 0.087820843 0.885636687 0.057519227
v -0.110989138 0.714309812 0.074967280
v 0.069568761 0.822749496 -0.121746317
v -0.120324075 0.676008582 0.075708762
v -0.199926227 0.732582867 -0.050284702
v -0.128827557 0.725208580 0.078175731
v -0.139346257 0.690826714 0.072615929
v 0.062269188 0.832549930 -0.131683081
v 0.150387511 0.904639244 0.022463245
v -0.130971700 0.707542658 0.076607928
v -0.205567881 0.718927085 -0.040188227
v -0.143048316 0.673597932 0.069208220
v 0.197196573 0.844681084 0.011559458
v 0.193667054 0.830096126 0.022395497
v -0.126792520 0.905296981 0.039516144
v -0.150640249 0.707714200 0.068839833
v -0.175065860 0.674281240 0.055962116
v 0.170703381 0.876463890 0.021982964
v 0.172380641 0.859281659 0.033787586
v -0.182037443 0.727137923 0.058984362
v -0.172064707 0.710089386 0.060833115
v 0.171958163 0.842953026 0.047274377
v -0.189844534 0.677380443 0.044465445
v 0.141945630 0.910764694 0.041514467
v -0.191780955 0.711553037 0.049038567
v 0.206283882 0.758012414 0.022454901
v -0.046394564 0.952011108 0.082481787
v -0.201136589 0.711947322 0.029669955
v -0.021149091 0.935625911 0.074606493
v 0.160247162 0.872581840 0.038946830
v -0.154394552 0.898829103 0.030256590
v 0.196920127 0.753180504 0.042253669
v -0.150327533 0.909107506 0.017173653
v -0.207875133 0.705924690 0.009358868
v 0.169432431 0.826887131 0.058658738
v -0.160691306 0.893675148 0.014870632
v 0.023296718 0.873727918 -0.141712874
v 0.024274502 0.893125236 -0.142471999
v 0.145627186 0.869578362 0.050522197
v -0.024003940 0.931263745 -0.134918839
v 0.158069000 0.857171357 0.052375864
v -0.208978847 0.724563956 0.014591634
v -0.018658888 0.913072884 -0.139399529
v 0.023751827 0.786625147 0.054842405
v -0.017945331 0.698913217 -0.075583681
v -0.038946055 0.918645263 -0.141599387
v 0.128029376 0.876018882 0.050220717
v -0.043806918 0.935341716 -0.136902019
v -0.164640471 0.906840205 0.003349538
v 0.149149194 0.838869095 0.061732389
v -0.174975902 0.892019629 0.000884159
v 0.134315982 0.823388398 0.069536142
v -0.174181804 0.896723866 -0.033001818
v -0.181012064 0.885697961 -0.018801780
v 0.134843186 0.858122051 0.057488661
v -0.170678720 0.901855767 -0.014600374
v 0.113971792 0.829958797 0.071964636
v -0.204446554 0.677210391 -0.016100708
v -0.208667234 0.715299368 -0.005955458
v 0.102679148 0.749426365 0.074710011
v 0.124813758 0.749235690 0.079831988
v 0.101669058 0.788833857 -0.111954227
v 0.083498299 0.934173405 0.061633535
v -0.020616286 0.717655182 0.046311140
v 0.116279110 0.951866150 0.065107994
v -0.174120545 0.910634339 -0.046902120
v 0.132265896 0.765700400 0.077160783
v 0.108773008 0.866213799 0.058133554
v -0.208906442 0.722784042 -0.021084692
v -0.173914760 0.904135585 -0.066853307
v 0.128300592 0.952982068 0.059043448
v -0.158100277 0.904463410 -0.101338066
v 0.124613978 0.844036281 0.065354206
v -0.062455751 0.821626365 -0.120596349
v 0.091160618 0.766393781 0.071061723
v -0.199844629 0.672789872 -0.037035771
v 0.093128234 0.830253720 0.072420113
v -0.207935542 0.707040668 -0.025815334
v -0.192701548 0.714510262 -0.056169230
v -0.189021245 0.668872535 -0.051956482
v 0.071439698 0.762095094 0.063915662
v 0.102422036 0.848233581 0.068715267
v -0.064501062 0.795746684 -0.107370891
v 0.083466209 0.842780888 0.067244485
v -0.193903521 0.684813023 -0.048713647
v -0.185715988 0.727628171 -0.068562552
v 0.057430159 0.774874926 0.060378022
v -0.078393534 0.810595810 -0.114796303
v -0.179490939 0.675243676 -0.065701164
v 0.019599067 0.838870406 -0.128416374
v 0.081905164 0.862146080 0.062026244
v 0.064430155 0.878329098 0.061377902
v -0.180187494 0.708930492 -0.071917802
v 0.137796015 0.954635024 0.047379844
v 0.020169277 0.736629665 -0.087465391
v 0.021455403 0.722030699 -0.083745554
v -0.161457717 0.671557486 -0.076095685
v 0.147891924 0.953550220 0.036838364
v -0.125434995 0.809590161 -0.114926063
v 0.156163618 0.953696609 0.024748888
v -0.151380032 0.714566529 -0.089944668
v 0.045577575 0.901846230 -0.145373702
v -0.163551748 0.703620553 -0.081603028
v 0.162513003 0.954521656 0.011570523
v 0.033894699 0.761716068 -0.094762020
v 0.037089922 0.779580116 -0.098973736
v -0.138892591 0.796457887 -0.108789466
v 0.166576236 0.955346406 -0.002501130
v -0.143044561 0.813700378 -0.107513413
v -0.100912824 0.935146511 -0.132343963
v -0.039220028 0.921686172 0.068027250
v 0.167960376 0.955815494 -0.017130578
v -0.143057868 0.669248641 -0.083729431
v -0.157753617 0.805623531 -0.100855574
v -0.148285627 0.698779285 -0.087762065
v -0.143545479 0.912279010 -0.114673473
v 0.166631922 0.955929577 -0.030911867
v -0.173334092 0.816078782 -0.094333075
v 0.033702992 0.708688438 -0.081410170
v -0.125942662 0.670690179 -0.091349602
v -0.186435863 0.809255779 -0.077809803
v 0.163391367 0.955439210 -0.045168497
v -0.134213150 0.899680972 -0.127830431
v 0.159593374 0.954851508 -0.059169739
v -0.193602666 0.824800372 -0.062352598
v -0.134758934 0.703746915 -0.095244996
v 0.183452442 0.787936985 0.059284531
v 0.154543743 0.954256713 -0.072627649
v -0.203023404 0.814871490 -0.046961300
v 0.047920886 0.796093285 -0.105130397
v -0.092207715 0.671991706 -0.091108888
v -0.019554555 0.681907058 -0.069556288
v 0.147960573 0.953327477 -0.085497022
v -0.200936601 0.829260230 -0.039854564
v 0.184667706 0.844847500 0.029269984
v -0.020625418 0.745743811 0.050465990
v 0.130461544 0.951978326 -0.107784130
v 0.183131427 0.823658109 0.040067665
v -0.065825067 0.820256829 0.061121918
v -0.102806091 0.700700879 -0.101787344
v -0.073905319 0.677889049 -0.085436575
v 0.053878475 0.710999489 -0.086667888
v -0.086993292 0.709208846 -0.097930543
v -0.057011146 0.692722678 -0.082935207
v -0.054626077 0.675415576 -0.076783165
v 0.074800834 0.734785140 -0.099020213
v 0.060032882 0.781125188 -0.102672122
v -0.185983256 0.803325653 0.046771649
v 0.044893187 0.839977384 0.058159687
v 0.037314054 0.822091877 0.054759532
v -0.183286816 0.821281612 0.040955923
v 0.031759299 0.803997219 0.053690750
v -0.026474316 0.813444316 -0.111364007
v 0.097731307 0.768234909 -0.109892324
v -0.168905601 0.832651913 0.056865890
v -0.055681042 0.721889377 -0.089710750
v -0.060357094 0.707809329 -0.088321328
v 0.105720043 0.725471735 -0.107200995
v -0.166396067 0.813229859 0.061877329
v -0.037227608 0.692867577 -0.076270722
v 0.119946517 0.951496124 -0.115979746
v 0.123563610 0.742265224 -0.108637676
v -0.044656519 0.709960878 -0.083684310
v -0.146299750 0.824717999 0.065530084
v -0.040021989 0.733930826 -0.089022122
v 0.107249960 0.950539887 -0.122593686
v -0.026281187 0.714487731 -0.081503004
v 0.114719376 0.704493880 -0.104168095
v -0.205921575 0.688483894 0.005732951
v -0.198776633 0.678391993 0.025795180
v 0.139204860 0.739008904 -0.100485921
v -0.138869300 0.808465958 0.070416354
v -0.122283839 0.818766594 0.073250100
v 0.119781040 0.778439462 -0.115184069
v -0.069489703 0.871162713 0.060744990
v -0.060933959 0.952569485 0.079731993
v -0.113580070 0.799246669 0.078463718
v 0.139501840 0.772932172 -0.106157944
v -0.099045776 0.814308763 0.075106166
v -0.081037037 0.856637955 0.063674919
v 0.174286529 0.778512120 -0.090490021
v -0.087424055 0.798094869 0.070317388
v 0.112598106 0.888486207 -0.138494715
v -0.071972355 0.838553071 0.063606262
v -0.093556151 0.844393253 0.070935369
v 0.187578335 0.773195922 -0.072740152
v -0.086542979 0.827447712 0.068624206
v 0.185567901 0.724602878 -0.067544900
v 0.193355352 0.737620175 -0.059739262
v -0.081299998 0.812319160 0.066407755
v -0.066168912 0.801589489 0.062020324
v -0.107918002 0.831497848 0.072450273
v -0.026194077 0.812831879 0.052292913
v -0.114562847 0.846800327 0.066187568
v -0.102980018 0.859832466 0.062346794
v 0.199158520 0.770734370 -0.055009197
v 0.209793955 0.747106910 -0.029936016
v -0.058905106 0.852407813 0.060752142
v -0.128665656 0.834557176 0.066997737
v -0.042856891 0.748222053 0.054320205
v -0.124533974 0.861290336 0.058147352
v 0.202566817 0.751858115 -0.049839590
v -0.138303205 0.875503659 0.049094830
v 0.210312724 0.745428205 -0.010176539
v -0.165343106 0.850330949 0.049820028
v 0.209703803 0.781795740 -0.014878708
v -0.148670062 0.841562927 0.060414750
v -0.059282202 0.887133002 0.062054098
v -0.159732863 0.866845429 0.043983683
v 0.208286554 0.711901367 -0.005877618
v -0.062218308 0.920822144 0.064324856
v -0.000621661 0.811562181 -0.109120406
v -0.058268975 0.937601924 0.069191433
v -0.169364989 0.870242000 0.028645163
v -0.194216043 0.829511285 0.021418098
v -0.041115124 0.940261066 0.073957428
v -0.000430923 0.823875785 -0.116827630
v -0.089714721 0.953236401 0.072795101
v -0.205306172 0.820682824 0.000346533
v 0.077679597 0.861090481 -0.146280423
v 0.115278326 0.925162911 -0.130204976
v -0.186043128 0.876906216 -0.000544442
v -0.075389259 0.953010678 0.076496072
v 0.210648626 0.779395819 0.011212680
v 0.092925787 0.949446857 -0.126385182
v -0.171869040 0.914998710 -0.027818093
v 0.202258557 0.793006301 0.025696864
v -0.201623723 0.832242668 -0.018330859
v -0.196873859 0.851606190 -0.018021809
v -0.188812673 0.868547559 -0.020413982
v 0.078158550 0.948692441 -0.129025519
v 0.204300433 0.825698972 0.003943942
v 0.063076355 0.948227108 -0.130582407
v -0.081197962 0.888870239 0.059913389
v -0.015149370 0.894046187 -0.141953185
v 0.193108633 0.785076737 0.042648379
v 0.047841273 0.947631538 -0.130892962
v 0.057815146 0.935253739 -0.137326121
v 0.205703214 0.705460131 0.019552184
v -0.075993486 0.938245177 0.065134808
v -0.019292396 0.877186894 -0.142348543
v -0.194587991 0.844716430 -0.054886937
v -0.163798943 0.917887211 -0.082329139
v -0.091132507 0.873159587 0.058321290
v 0.032169417 0.946996331 -0.130096734
v -0.184468836 0.842362761 -0.073469482
v 0.016452158 0.946008503 -0.128000230
v -0.156371087 0.843529105 -0.101424098
v 0.188762233 0.711940825 0.054374538
v -0.173672378 0.835531533 -0.093450487
v 0.016454495 0.935194373 -0.132269904
v 0.000547561 0.944792926 -0.125802428
v 0.189436212 0.768686593 0.052827038
v 0.181353852 0.748281121 0.061890744
v 0.082451105 0.832036793 -0.132948056
v 0.016172562 0.930856049 0.073231988
v -0.158133671 0.862968624 -0.100904070
v -0.156877518 0.824684620 -0.101634130
v -0.155711755 0.938379467 -0.086591370
v 0.067888170 0.845715702 -0.142855316
v 0.167416215 0.766773105 0.066437036
v -0.137118727 0.831399143 -0.110959694
v -0.045963675 0.660055816 -0.068287030
v -0.106971011 0.834734261 -0.127986699
v -0.059450306 0.658680975 -0.073340870
v -0.072910175 0.657277167 -0.078374229
v -0.115811445 0.825098872 -0.118364677
v 0.146164834 0.755154431 0.072904207
v 0.160420671 0.741301060 0.068669848
v -0.086284913 0.655769527 -0.083411597
v 0.152908608 0.719639301 0.069133356
v -0.113397636 0.872192562 -0.138653368
v 0.035895616 0.925423324 0.069131024
v 0.022488605 0.913374901 0.068421997
v -0.099267967 0.653920472 -0.089025371
v 0.147983953 0.776818037 0.072554871
v -0.106393293 0.852087975 -0.137746185
v 0.129710332 0.781049609 0.076782875
v 0.138310328 0.734132946 0.075789288
v -0.113627017 0.652690530 -0.091166995
v -0.001287322 0.854564011 0.058784585
v -0.001420902 0.840923905 0.054554213
v -0.089102522 0.834863365 -0.135540575
v -0.126871139 0.652796566 -0.086755924
v -0.076514229 0.881769955 -0.148734182
v -0.095311053 0.823297858 -0.121672019
v -0.139459416 0.652816176 -0.082541198
v -0.152568072 0.653598428 -0.077346347
v -0.165552467 0.654113293 -0.071798101
v -0.047960103 0.830633163 0.057132743
v -0.024479529 0.830694973 0.054043062
v 0.085216276 0.751314461 0.067790136
v 0.088693671 0.734773755 0.068099171
v -0.177648932 0.654687047 -0.064048305
v -0.186234772 0.655585706 -0.052950270
v -0.027567495 0.778388679 0.054443441
v 0.070521019 0.744015098 0.062035352
v 0.051270030 0.755255818 0.058036171
v -0.193766028 0.656413198 -0.041292123
v -0.073350802 0.863284111 -0.147392079
v 0.077063963 0.779314637 0.066121519
v -0.201042578 0.656947851 -0.029511565
v -0.051426411 0.768212914 0.058129471
v 0.029933438 0.754251063 0.053987373
v -0.031245481 0.732445359 0.050284971
v -0.093208268 0.866783619 -0.145309657
v 0.027078096 0.716229141 0.048481204
v -0.064769424 0.749931097 0.060024887
v 0.069166079 0.810232818 0.062946871
v -0.031401150 0.705004275 0.046819873
v -0.052920539 0.708153844 0.052540433
v -0.054138046 0.888063312 -0.147253543
v -0.069613516 0.898731411 -0.148873001
v -0.070499025 0.784070730 0.063756816
v -0.054798942 0.908664048 -0.146554589
v 0.090828709 0.892217040 -0.146792263
v -0.201687098 0.657591581 -0.015675139
v 0.081854269 0.796554685 0.068493515
v -0.074105434 0.712424934 0.060285687
v -0.094058283 0.781838953 0.072325133
v 0.097162001 0.872543335 -0.144373849
v -0.076848574 0.733641744 0.062829062
v -0.086386755 0.751304030 0.067759000
v -0.071605839 0.904921234 0.062354881
v 0.072255746 0.715816617 -0.093731508
v -0.049375881 0.903641701 0.065359071
v 0.099309877 0.801275849 0.075890809
v -0.094802029 0.737844229 0.070206538
v 0.134212285 0.887213230 -0.127728000
v -0.201651141 0.658150375 -0.002781251
v -0.026605159 0.795453191 0.053496014
v 0.091502950 0.707045674 -0.098652162
v -0.197187096 0.659782648 0.023405302
v -0.128043666 0.761211514 0.078165792
v 0.087149099 0.723506689 -0.100421667
v -0.191005126 0.660262585 0.035769951
v -0.108149670 0.748930752 0.076277569
v 0.116302684 0.791629493 0.078982875
v 0.119648837 0.810300469 0.075832203
v 0.124740854 0.906172931 -0.132026166
v -0.184928387 0.660273910 0.048343625
v -0.117657796 0.779766917 0.079694018
v -0.172480509 0.660358429 0.055157095
v -0.129217416 0.742748141 0.078242108
v -0.159414366 0.660362542 0.060600996
v -0.146281362 0.659756780 0.066139206
v -0.137077123 0.776569068 0.074997477
v -0.148849636 0.750684559 0.071718290
v -0.134079248 0.659651875 0.071711525
v 0.138385043 0.799162447 0.072426006
v -0.152327329 0.767022491 0.070585683
v -0.118996061 0.659503281 0.073850080
v -0.105441093 0.659675658 0.068383001
v 0.132580802 0.698855281 -0.094535626
v -0.154402137 0.783421636 0.069661386
v 0.176654175 0.808931828 0.058541555
v 0.133535028 0.712708533 -0.097819053
v 0.150791660 0.936472535 -0.098836526
v -0.091665499 0.659664869 0.062812053
v -0.146700472 0.734435678 0.072428592
v -0.077734247 0.659612715 0.057174843
v 0.125388116 0.938367009 -0.120461300
v -0.063830003 0.659643710 0.051147111
v -0.050300229 0.659846485 0.044207830
v 0.189427972 0.803149521 0.041522115
v 0.142440811 0.904176712 -0.118391216
v -0.036295757 0.660053253 0.038363568
v -0.021712033 0.659840167 0.034721710
v -0.172090024 0.794023514 0.063593611
v -0.018064428 0.670660496 0.043560810
v -0.170604467 0.757477582 0.064729944
v 0.148087651 0.708553135 -0.089850850
v 0.153093278 0.887310505 -0.109670937
v 0.197994977 0.812466145 0.023155255
v -0.188662320 0.784004986 0.050473906
v -0.190577433 0.745728672 0.055399328
v -0.190311283 0.765495420 0.051954888
v -0.041012570 0.794709802 -0.103731453
v 0.164115056 0.704305589 -0.080931902
v 0.203536555 0.822065651 -0.016904071
v 0.146216661 0.920296550 -0.109071411
v 0.014036375 0.825425029 -0.118266985
v -0.051433552 0.810006917 -0.112001717
v 0.068281010 0.796750903 -0.108045503
v -0.048281770 0.788879514 0.057947438
v 0.208771110 0.802728832 0.000486057
v -0.200462252 0.754141808 0.034726538
v -0.207736537 0.786442518 0.016347839
v -0.174818426 0.855960011 0.032960668
v 0.181769133 0.707482040 -0.068929009
v -0.210022062 0.744615078 0.015453069
v 0.117236421 0.934051394 0.052071083
v 0.206866190 0.802895904 -0.025329132
v -0.210216135 0.765527487 0.014206463
v -0.210467786 0.777360559 -0.007522860
v -0.208594561 0.790181994 -0.025565585
v 0.191419855 0.699359059 -0.054222636
v 0.207635760 0.786885619 -0.039997198
v -0.210039616 0.734504938 -0.005749847
v -0.194334373 0.859934986 -0.000292996
v 0.156813309 0.904387832 -0.102555335
v -0.031711768 0.951945961 0.084213212
v 0.202237755 0.806288421 -0.050553758
v 0.189937919 0.810112119 -0.071568206
v -0.081202403 0.849377513 -0.143541798
v -0.058524262 0.850777447 -0.143090308
v 0.194755390 0.718082428 -0.053529102
v -0.210602373 0.755219340 -0.012241111
v 0.200926274 0.690054178 -0.039815806
v 0.196668297 0.789535522 -0.060868315
v -0.015347530 0.946166992 -0.127901211
v -0.031064054 0.947339416 -0.129987538
v 0.165582165 0.889337063 -0.087725393
v 0.017420743 0.817835927 0.052016795
v -0.046662748 0.948174000 -0.130779639
v -0.047240663 0.808445632 0.056230057
v 0.186576992 0.790214181 -0.077813990
v 0.175781995 0.799446702 -0.092132702
v -0.061983615 0.948781967 -0.130528644
v 0.165279552 0.909569919 -0.084111556
v -0.209387183 0.737132370 -0.028407048
v -0.077061608 0.949392200 -0.128951147
v -0.083149061 0.933267593 -0.137630254
v -0.191483840 0.859742999 -0.039860979
v -0.091596782 0.950290024 -0.126369804
v -0.105683208 0.951584160 -0.122742891
v 0.156561241 0.787962317 -0.100054070
v -0.200994968 0.783752441 -0.053689741
v -0.183039263 0.862806022 -0.064301431
v -0.168458894 0.873000503 -0.083104491
v -0.208449364 0.751417279 -0.042605322
v 0.172375768 0.897857308 -0.067393176
v 0.161909729 0.940020263 -0.070631079
v -0.199576586 0.701753557 -0.044635035
v 0.050630014 0.807209849 0.057568520
v 0.135855958 0.790301859 -0.109233893
v -0.064138100 0.834305942 -0.134015709
v -0.188504010 0.791075826 -0.075301394
v 0.166802377 0.935612798 -0.054943182
v -0.077726379 0.824895680 -0.125510946
v -0.186453328 0.695911288 -0.060670204
v 0.118782975 0.795576990 -0.116300665
v -0.193287820 0.745087504 -0.062137056
v -0.175342128 0.741201699 -0.083707824
v 0.169663489 0.934144139 -0.037875831
v -0.185909882 0.756987572 -0.072896399
v -0.174476191 0.779357791 -0.091158792
v 0.174184188 0.897579312 -0.028861051
v -0.169345751 0.721726298 -0.082560793
v -0.019256590 0.731925130 -0.085800342
v 0.082147241 0.783505142 -0.107148863
v -0.118246868 0.952628970 -0.116339289
v -0.128906101 0.953386962 -0.108003780
v -0.156424075 0.787479341 -0.100601986
v -0.155398339 0.769168437 -0.098353870
v -0.155541092 0.750632465 -0.094949648
v -0.154499739 0.732232511 -0.092133887
v -0.128726542 0.860789120 -0.128357679
v 0.065384105 0.842783630 0.062791333
v 0.207276180 0.710446298 -0.034726389
v -0.146665826 0.954864621 -0.085846737
v -0.153360382 0.955636322 -0.073136777
v 0.209104702 0.728592515 -0.021676783
v -0.002902083 0.661300004 -0.060784448
v -0.159514755 0.956658840 -0.060129583
v 0.171515420 0.901081681 -0.007027755
v -0.163198918 0.957087398 -0.046131060
v -0.166669160 0.957504451 -0.031963222
v -0.168893456 0.957551301 -0.018429605
v 0.202659041 0.820593953 -0.037272967
v 0.167935342 0.938899636 -0.022727454
v -0.166322723 0.957340360 -0.004031483
v -0.162846014 0.956716418 0.010193134
v -0.157865375 0.955699325 0.024228895
v 0.050115079 0.824259877 -0.121890530
v -0.148877829 0.955146134 0.035807356
v 0.164608091 0.934437394 -0.007433591
v -0.139620662 0.954543471 0.047091685
v -0.136320144 0.722133517 -0.099002406
v 0.163582325 0.894496620 0.011325689
v 0.017242635 0.767615080 -0.094520137
v -0.001790017 0.756185889 -0.091341347
v -0.001542391 0.770378947 -0.094479367
v 0.138301522 0.936798394 -0.110028408
v -0.137143716 0.740545452 -0.102145277
v -0.001127881 0.784650683 -0.097956978
v -0.136678308 0.778087854 -0.108426049
v 0.015641097 0.783578813 -0.098316222
v -0.000839716 0.798471689 -0.102720305
v -0.129243851 0.953952789 0.057425570
v 0.160663754 0.810253441 -0.099167630
v 0.157365888 0.935452163 0.008746923
v -0.120100640 0.729513228 -0.108532570
v -0.117550477 0.953135669 0.064241692
v -0.103937998 0.953157127 0.069001280
v 0.143787310 0.923564076 0.023027845
v 0.046244223 0.883064091 -0.145935386
v -0.136895806 0.759194851 -0.105343662
v -0.114615843 0.789491594 -0.115955815
v 0.150108308 0.941314816 0.023034466
v -0.119028710 0.748376727 -0.112142876
v 0.157857880 0.887849987 0.028949276
v -0.099244393 0.738448441 -0.107570693
v -0.002163211 0.798823953 0.051383823
v -0.092967749 0.940200806 0.060837794
v 0.133080363 0.940834224 0.049715795
v 0.135483533 0.925962329 0.046126328
v 0.138377160 0.939990819 0.034859724
v -0.083568662 0.728374958 -0.100809112
v -0.096790142 0.757154584 -0.108711407
v -0.078175530 0.746871829 -0.102166370
v 0.047465071 0.724278152 0.053706586
v -0.095666699 0.775940180 -0.110302269
v 0.049009927 0.919570267 -0.142208695
v -0.074662678 0.765206158 -0.103375100
v 0.025907477 0.910823524 -0.140342161
v -0.037896879 0.874714732 -0.145075351
v -0.035102479 0.896855533 -0.144289285
v 0.208556935 0.723937809 0.015967369
v 0.193084300 0.732622385 0.048883066
v -0.050664287 0.755888581 -0.096061222
v -0.054685850 0.777594447 -0.101243518
v -0.139542714 0.954723954 -0.098249286
v 0.148418039 0.896940887 0.038860865
v 0.130102754 0.894147217 0.042040590
v -0.203661561 0.672683835 0.004632477
v 0.167259738 0.704863191 0.062646583
v 0.173940226 0.726234376 0.062344313
v -0.203097627 0.659326971 0.010856168
v 0.118689500 0.912171245 0.044402067
v -0.035623360 0.674737215 -0.069753684
v -0.032070838 0.661040604 -0.064260527
v 0.014495800 0.699236155 0.043922476
v -0.017750330 0.661592603 -0.061466109
v -0.005328494 0.947802544 0.092757471
v 0.064887345 0.912264943 -0.146279186
v -0.017188665 0.951656699 0.086019352
v -0.022564828 0.691958427 0.043041155
v 0.131847173 0.713769019 0.076839678
v 0.031559952 0.940438151 0.075760148
v 0.084615745 0.677351832 0.061829329
v 0.073131718 0.689632773 0.058273565
v 0.105150722 0.687728226 0.071142778
v 0.049203269 0.861713290 -0.143654794
v 0.127010331 0.693123639 0.077864163
v 0.055455923 0.691788197 0.051789563
v 0.201266453 0.687046945 0.023935553
v 0.111873530 0.888061702 0.050707079
v 0.101051711 0.903607965 0.053153735
v 0.158435270 0.915195763 0.003449067
v 0.108670972 0.706789613 0.074065939
v 0.169859901 0.918013394 -0.021330992
v 0.173656896 0.912679791 -0.046494961
v 0.048439015 0.938432515 0.071930602
v 0.090116814 0.716367483 0.067393079
v 0.111218534 0.728751481 0.076757357
v 0.169308662 0.920409381 -0.068003692
v 0.159763828 0.929584384 -0.083804086
v 0.089413904 0.697622776 0.065636501
v 0.156913564 0.920049965 -0.096115328
v 0.187605456 0.681084454 -0.055641484
v 0.171592414 0.687273145 -0.073493287
v 0.069100186 0.724301040 0.059887223
v 0.146188229 0.687645793 -0.085269704
v 0.132756263 0.921661019 -0.121496461
v 0.071523994 0.705808520 0.059096962
v 0.110711597 0.769006550 0.079193279
v 0.147203833 0.698069930 0.070200481
v 0.181926519 0.691803575 0.056027878
v 0.195864812 0.698755383 0.039097741
v 0.209041879 0.767436862 -0.035437081
v 0.157824486 0.766250849 -0.096154086
v 0.050801091 0.708578587 0.052718710
v 0.140547588 0.755164027 -0.102496222
v 0.206939027 0.695256770 -0.017813910
v 0.206355140 0.692487359 0.003596726
v 0.036812872 0.737467885 0.052365500
v 0.011721428 0.754456341 0.051974434
v 0.085187793 0.910191536 0.059808958
v 0.065181836 0.937301159 0.067995265
v 0.017405059 0.770546019 0.053043783
v 0.033357266 0.855039477 0.059037257
v 0.021534070 0.836511731 0.054636937
v 0.021436675 0.693382561 -0.074726321
v 0.054238986 0.921937764 0.065926239
v 0.038888313 0.726004958 -0.087333634
v 0.030641979 0.898743510 0.066726983
v 0.043642595 0.908330560 0.066850007
v 0.014172969 0.897991002 0.067399845
v 0.036087058 0.677689850 -0.071709827
v 0.057259738 0.730380058 -0.092601597
v 0.075781174 0.827264309 0.064866796
v 0.199695736 0.772416949 0.032456994
v 0.188846290 0.850178242 -0.061790071
v 0.058857001 0.675715566 -0.078345738
v 0.175909907 0.758546114 -0.086077698
v 0.123543642 0.826921344 -0.115451813
v 0.122126475 0.760416508 -0.112330496
v 0.082467705 0.672807574 -0.087020367
v 0.052296977 0.764289081 -0.098081753
v 0.038805403 0.811440468 -0.111506179
v 0.120985925 0.684838533 -0.096098952
v 0.104946777 0.669541121 -0.095359385
v 0.097128049 0.929162681 -0.135828868
v 0.070793606 0.920729280 0.062968038
v 0.065450683 0.900696576 0.062994458
v 0.129856840 0.668429434 -0.088957503
v 0.025409099 0.884093165 0.065462962
v 0.041177485 0.872181296 0.063192062
v 0.076409049 0.929208577 -0.139713511
v 0.153140053 0.668964803 -0.078835770
v 0.178344235 0.819220424 -0.089818195
v 0.023944501 0.854626834 -0.136825681
v 0.174762085 0.719285369 -0.078767762
v 0.174316019 0.668416023 -0.069411829
v 0.018450726 0.751897216 -0.091141626
v 0.186429679 0.665134907 -0.054036807
v 0.031594720 0.826338887 -0.120486476
v 0.197636604 0.670516670 -0.039091669
v 0.204910636 0.680309236 -0.025158126
v 0.063192219 0.792782724 0.062559322
v 0.105132341 0.909042358 -0.139730275
v 0.084815949 0.912214279 -0.145287484
v 0.019327853 0.811807036 -0.110008597
v 0.204408810 0.677876174 -0.007566979
v 0.126799196 0.725236773 -0.104030177
v 0.209724620 0.730212092 -0.002493200
v 0.199175566 0.718423426 0.034865685
v 0.161161155 0.724529982 -0.086682931
v 0.144928232 0.725530446 -0.095018752
v 0.191246241 0.677763283 0.041724324
v 0.145412534 0.883432209 0.043915305
v 0.178963810 0.883519769 0.005179978
v 0.204748839 0.731691599 -0.043022566
v 0.046854548 0.693262041 -0.079759963
v 0.161463931 0.681372583 0.063043989
v 0.086451702 0.813548088 0.069492437
v 0.210667297 0.743085563 0.009919600
v 0.202808976 0.738058627 0.029808909
v 0.091403633 0.737179875 -0.104690358
v 0.141247228 0.676289082 0.070681646
v 0.120686628 0.866733074 -0.135226041
v -0.001900234 0.812859356 0.050843876
v -0.003207317 0.743063450 0.049241327
v 0.055254020 0.737421751 0.056793552
v 0.119209550 0.674579263 0.075760141
v 0.144358486 0.871811032 -0.119577169
v -0.002667326 0.784826219 0.052802127
v -0.001640394 0.826889992 0.052397240
v 0.101671413 0.671304464 0.068319000
v 0.019342996 0.868385136 0.063476786
v -0.001188149 0.868046463 0.064252310
v 0.100325286 0.922554970 0.052649271
v 0.063953117 0.675617695 0.053253699
v 0.100996360 0.939722657 0.060325027
v 0.203588724 0.673680425 0.009714316
v 0.101731911 0.817344844 0.076868005
v 0.034883805 0.929712296 -0.137026235
v 0.042929024 0.676726818 0.045075610
v 0.066970892 0.895683467 -0.148573011
v 0.019941250 0.680352926 0.039259113
v 0.035049990 0.695401251 0.046553858
v 0.042666242 0.840800405 -0.134212941
v 0.014064966 0.853311360 0.058398526
v 0.016252063 0.735084116 0.048696481
v -0.003427225 0.729198992 0.047091223
v -0.002869904 0.770836949 0.052135784
v 0.202973083 0.666846991 -0.019654851
v -0.003006432 0.756845653 0.051753301
v 0.071697176 0.694011569 -0.089006275
v 0.088213935 0.801579833 -0.111986831
v 0.107433617 0.811700642 -0.114670351
v 0.154047921 0.814275742 0.065661930
v 0.096010178 0.783664167 0.073769219
v 0.160782859 0.792971492 0.067401156
v 0.096637219 0.688225150 -0.096712790
v 0.197533518 0.670232892 0.026069146
f 555 540 123
f 389 162 497
f 567 540 568
f 583 104 251
f 463 489 430
f 453 94 255
f 483 484 162
f 446 640 671
f 574 577 251
f 50 244 238
f 52 244 50
f 575 57 53
f 55 249 52
f 55 2 250
f 577 248 563
f 575 437 432
f 57 597 589
f 2 265 262
f 589 592 57
f 262 259 2
f 5 267 262
f 602 606 589
f 5 9 11
f 58 606 610
f 11 272 5
f 12 278 11
f 565 793 8
f 630 60 632
f 13 425 12
f 424 289 160
f 289 424 13
f 643 649 60
f 181 403 179
f 483 206 484
f 163 651 174
f 53 563 558
f 651 65 650
f 163 389 384
f 683 66 65
f 455 558 563
f 165 384 171
f 340 331 34
f 67 66 683
f 206 470 63
f 385 102 856
f 67 702 70
f 344 340 696
f 179 403 406
f 710 70 702
f 16 352 14
f 111 112 59
f 63 64 655
f 18 368 16
f 710 742 753
f 119 112 111
f 394 671 545
f 551 922 903
f 19 375 18
f 753 740 711
f 406 470 179
f 261 615 108
f 545 453 439
f 178 386 530
f 24 386 23
f 72 753 742
f 26 396 24
f 768 765 72
f 119 142 112
f 32 63 470
f 112 142 161
f 399 400 396
f 154 343 182
f 545 671 448
f 399 415 400
f 768 770 765
f 32 406 410
f 418 415 399
f 770 183 777
f 387 300 166
f 415 418 422
f 105 86 299
f 169 42 839
f 170 142 119
f 173 172 705
f 329 638 343
f 134 738 737
f 185 638 329
f 692 661 145
f 150 74 741
f 637 345 873
f 132 145 661
f 170 184 142
f 138 495 760
f 138 136 188
f 136 194 188
f 201 87 194
f 270 87 205
f 216 49 210
f 46 216 724
f 198 184 170
f 43 96 907
f 219 39 218
f 45 43 41
f 224 37 219
f 498 224 514
f 86 105 342
f 225 36 514
f 378 107 110
f 80 233 107
f 22 41 43
f 198 217 849
f 41 581 45
f 103 233 76
f 76 40 103
f 222 217 214
f 678 100 40
f 98 41 22
f 366 41 98
f 40 76 678
f 215 4 284
f 215 98 21
f 537 536 92
f 222 234 217
f 904 537 92
f 460 462 30
f 284 471 366
f 222 239 246
f 586 903 759
f 462 28 30
f 246 234 222
f 454 449 28
f 237 391 924
f 560 319 921
f 246 888 252
f 431 471 282
f 455 560 391
f 319 560 241
f 50 238 793
f 50 566 52
f 52 574 55
f 258 263 510
f 244 52 249
f 55 253 2
f 284 792 657
f 303 670 667
f 303 100 674
f 250 249 55
f 273 274 252
f 251 253 574
f 100 303 301
f 301 570 100
f 104 261 257
f 677 100 678
f 273 285 274
f 257 2 253
f 2 257 265
f 250 2 259
f 570 568 40
f 752 292 293
f 294 296 285
f 285 296 274
f 684 497 679
f 277 274 296
f 440 447 442
f 579 489 463
f 692 329 695
f 259 262 267
f 871 736 360
f 262 271 9
f 40 100 570
f 570 567 568
f 203 128 270
f 310 296 294
f 305 296 310
f 87 270 194
f 9 5 262
f 5 272 600
f 276 9 271
f 9 276 11
f 272 11 278
f 302 323 310
f 568 103 40
f 108 615 89
f 280 11 276
f 11 280 12
f 103 568 540
f 278 12 425
f 323 337 328
f 283 12 280
f 12 283 13
f 283 297 289
f 289 13 283
f 540 561 231
f 425 13 424
f 209 288 205
f 291 125 286
f 346 337 323
f 49 304 288
f 173 350 351
f 297 654 314
f 347 158 864
f 304 47 311
f 47 304 49
f 47 46 481
f 360 361 855
f 501 684 146
f 481 311 47
f 46 39 481
f 343 695 329
f 314 289 297
f 289 314 160
f 481 321 308
f 481 39 321
f 325 122 321
f 325 321 37
f 37 321 39
f 333 160 314
f 324 266 333
f 527 107 231
f 84 121 325
f 36 327 498
f 160 333 34
f 327 120 84
f 36 82 371
f 277 393 390
f 689 34 333
f 34 689 340
f 313 34 331
f 266 334 689
f 334 260 341
f 340 335 331
f 107 527 110
f 54 404 405
f 696 14 344
f 61 401 44
f 38 299 407
f 358 14 348
f 14 358 16
f 344 14 352
f 356 704 712
f 352 16 368
f 413 62 417
f 370 16 358
f 16 370 18
f 175 705 134
f 713 115 110
f 371 27 378
f 27 371 82
f 381 18 370
f 18 381 19
f 368 18 375
f 80 378 27
f 19 381 235
f 19 395 23
f 19 23 178
f 202 506 913
f 23 395 24
f 386 24 396
f 398 24 395
f 24 398 26
f 26 398 220
f 26 412 399
f 396 26 399
f 418 399 412
f 164 180 444
f 444 443 164
f 175 173 705
f 685 84 120
f 422 300 415
f 685 121 84
f 172 169 300
f 172 300 422
f 78 80 27
f 226 365 78
f 89 615 114
f 240 485 309
f 134 737 175
f 226 27 82
f 245 459 452
f 187 186 140
f 243 459 245
f 189 187 130
f 581 466 579
f 467 472 637
f 308 122 240
f 138 579 466
f 430 255 463
f 499 435 430
f 453 430 435
f 435 440 439
f 435 499 450
f 243 479 281
f 308 321 122
f 897 438 584
f 439 453 435
f 243 281 893
f 450 440 435
f 480 859 865
f 440 449 447
f 442 439 440
f 450 449 440
f 447 449 454
f 492 488 493
f 127 458 456
f 449 456 28
f 82 225 708
f 454 28 462
f 28 456 30
f 456 450 127
f 30 456 458
f 225 82 36
f 30 464 460
f 506 507 502
f 126 469 125
f 287 508 509
f 207 507 506
f 410 460 32
f 126 306 477
f 460 464 644
f 644 32 460
f 32 644 63
f 475 31 576
f 470 406 32
f 64 63 644
f 306 309 477
f 125 464 458
f 528 795 511
f 516 523 524
f 655 206 63
f 206 655 484
f 206 474 470
f 162 679 497
f 316 322 822
f 313 160 34
f 37 498 325
f 523 316 534
f 497 684 501
f 501 146 505
f 146 512 503
f 505 503 513
f 263 515 510
f 512 120 115
f 503 512 91
f 517 513 503
f 115 713 91
f 458 203 125
f 315 547 548
f 91 512 115
f 547 330 336
f 91 713 88
f 517 88 522
f 552 548 547
f 532 88 713
f 88 532 519
f 552 336 553
f 522 519 541
f 527 231 561
f 127 128 458
f 538 660 692
f 514 36 498
f 224 498 37
f 538 692 695
f 114 626 631
f 553 342 105
f 219 37 39
f 555 660 561
f 127 450 499
f 891 199 824
f 660 555 661
f 218 39 46
f 199 97 886
f 366 98 284
f 22 21 98
f 41 366 581
f 43 232 22
f 907 232 43
f 96 536 907
f 45 463 255
f 45 581 463
f 255 94 96
f 255 96 45
f 94 453 545
f 448 546 545
f 582 593 594
f 595 584 438
f 216 46 47
f 216 47 49
f 551 640 558
f 558 640 569
f 49 288 209
f 793 565 50
f 569 53 558
f 566 50 565
f 209 210 49
f 841 351 350
f 574 52 566
f 578 53 57
f 612 609 423
f 53 578 563
f 575 53 569
f 597 432 211
f 253 55 574
f 57 575 597
f 578 57 592
f 592 583 578
f 627 609 612
f 584 621 628
f 603 589 606
f 602 589 597
f 634 819 627
f 610 606 602
f 835 318 229
f 626 606 58
f 610 624 58
f 58 624 630
f 632 58 630
f 634 884 869
f 58 632 626
f 60 642 632
f 642 60 649
f 60 630 181
f 650 649 643
f 662 652 645
f 656 628 621
f 621 636 656
f 658 659 204
f 64 644 469
f 466 495 138
f 694 377 700
f 468 471 431
f 663 650 65
f 628 656 668
f 679 162 484
f 65 686 663
f 672 673 659
f 686 65 66
f 683 65 651
f 468 431 478
f 683 693 67
f 685 146 684
f 146 685 512
f 696 340 689
f 66 67 701
f 473 495 478
f 66 698 686
f 702 67 693
f 668 675 687
f 701 698 66
f 405 690 54
f 701 67 70
f 54 690 564
f 14 696 348
f 711 70 710
f 699 70 711
f 702 709 710
f 229 318 236
f 657 282 471
f 710 709 742
f 753 756 740
f 756 753 72
f 742 754 72
f 72 754 768
f 72 765 756
f 766 765 770
f 490 193 496
f 130 772 496
f 770 776 766
f 15 719 168
f 87 201 148
f 183 770 768
f 201 194 136
f 422 705 172
f 633 777 338
f 777 633 150
f 408 74 633
f 638 185 408
f 106 730 258
f 688 379 694
f 275 631 118
f 185 692 145
f 197 750 749
f 736 737 738
f 263 258 730
f 738 741 743
f 185 145 143
f 743 741 744
f 744 741 74
f 744 467 879
f 132 140 145
f 123 132 661
f 741 738 150
f 123 540 567
f 773 772 567
f 738 134 150
f 78 27 226
f 238 623 1
f 264 279 779
f 776 150 134
f 134 705 420
f 695 541 538
f 104 599 261
f 365 681 680
f 761 762 763
f 365 678 76
f 76 78 365
f 411 156 420
f 156 411 220
f 541 519 538
f 220 764 156
f 76 233 78
f 80 78 233
f 168 789 387
f 70 699 701
f 398 395 228
f 434 437 445
f 779 780 887
f 428 432 434
f 926 317 706
f 197 749 745
f 213 6 4
f 279 785 780
f 419 427 428
f 148 201 745
f 454 462 419
f 526 782 783
f 381 734 235
f 410 414 419
f 493 769 913
f 511 4 215
f 4 511 213
f 406 414 410
f 208 731 729
f 21 511 215
f 210 728 727
f 794 800 823
f 511 21 529
f 470 474 179
f 724 218 46
f 227 110 115
f 118 280 275
f 219 218 722
f 806 800 794
f 803 804 256
f 716 778 225
f 224 219 720
f 407 86 690
f 356 734 381
f 389 497 380
f 809 795 528
f 810 806 811
f 717 716 514
f 497 501 380
f 317 697 429
f 810 818 821
f 913 771 202
f 341 698 699
f 373 376 159
f 369 177 373
f 341 260 698
f 260 334 266
f 365 226 681
f 517 522 354
f 828 821 818
f 354 362 364
f 569 640 446
f 519 522 88
f 767 828 818
f 266 324 676
f 602 597 211
f 804 834 256
f 121 240 122
f 345 868 918
f 610 602 211
f 169 839 166
f 427 195 211
f 643 179 174
f 683 651 165
f 693 683 171
f 627 884 634
f 324 654 676
f 846 397 841
f 841 397 374
f 362 709 369
f 580 397 846
f 192 188 190
f 192 499 489
f 128 192 190
f 270 205 203
f 205 288 286
f 291 306 126
f 208 148 733
f 288 304 291
f 304 311 306
f 311 481 308
f 286 125 203
f 283 118 297
f 589 599 592
f 283 280 118
f 227 115 120
f 747 805 732
f 707 226 82
f 107 378 80
f 275 114 631
f 118 646 297
f 89 114 275
f 231 233 103
f 87 209 205
f 816 872 870
f 271 108 89
f 248 560 455
f 248 241 560
f 108 271 265
f 566 565 241
f 86 876 690
f 622 244 619
f 517 91 88
f 574 566 248
f 715 662 889
f 244 249 618
f 249 250 614
f 882 465 718
f 253 251 257
f 774 465 882
f 250 259 608
f 883 494 774
f 921 391 560
f 259 267 604
f 54 564 847
f 251 577 583
f 600 267 5
f 89 276 271
f 503 91 517
f 690 405 407
f 275 276 89
f 892 573 582
f 272 278 596
f 248 577 574
f 280 276 275
f 425 588 591
f 425 424 781
f 781 313 572
f 424 313 781
f 572 585 781
f 314 654 324
f 136 197 201
f 313 557 572
f 237 551 558
f 554 331 335
f 334 341 348
f 760 136 138
f 335 344 549
f 341 699 704
f 348 696 334
f 921 319 7
f 358 348 704
f 344 352 544
f 912 582 594
f 903 586 551
f 352 368 543
f 381 370 356
f 368 375 539
f 788 8 3
f 535 375 178
f 221 795 809
f 828 767 562
f 559 833 920
f 921 920 899
f 546 448 898
f 903 922 836
f 38 903 299
f 235 228 395
f 405 669 407
f 546 92 94
f 400 518 520
f 92 546 904
f 639 35 926
f 386 396 525
f 927 926 33
f 928 605 930
f 200 490 298
f 94 545 546
f 96 92 536
f 927 56 852
f 143 472 408
f 220 412 26
f 400 520 521
f 412 220 411
f 109 113 152
f 920 832 559
f 418 412 411
f 152 113 746
f 387 789 786
f 420 418 411
f 746 161 867
f 418 420 422
f 490 773 298
f 496 772 773
f 394 442 445
f 562 767 832
f 739 636 820
f 204 725 658
f 773 490 496
f 725 223 635
f 447 454 428
f 472 186 637
f 215 284 98
f 189 130 496
f 458 464 30
f 410 462 460
f 125 469 464
f 635 247 487
f 487 269 629
f 641 487 629
f 268 269 487
f 269 393 629
f 390 269 268
f 469 126 64
f 349 761 763
f 655 64 477
f 303 674 670
f 290 393 277
f 611 290 928
f 163 474 483
f 928 307 605
f 635 641 648
f 531 605 533
f 677 674 100
f 477 309 485
f 506 202 207
f 679 485 240
f 240 121 684
f 312 912 594
f 684 679 240
f 121 685 684
f 186 187 345
f 503 505 146
f 912 332 892
f 772 130 132
f 685 120 512
f 501 505 159
f 725 648 658
f 505 513 373
f 513 517 364
f 892 847 564
f 110 527 713
f 714 847 339
f 522 541 154
f 51 714 346
f 231 103 540
f 714 51 404
f 541 695 343
f 567 772 123
f 502 500 506
f 578 577 563
f 867 659 673
f 577 578 583
f 597 575 432
f 592 104 583
f 913 492 493
f 845 167 839
f 599 104 592
f 386 178 23
f 599 603 615
f 110 227 378
f 615 261 599
f 706 402 639
f 603 626 114
f 132 123 772
f 624 610 195
f 409 706 317
f 746 673 682
f 114 615 603
f 120 327 227
f 624 414 403
f 691 429 697
f 642 631 632
f 642 118 631
f 429 433 853
f 646 118 642
f 642 649 646
f 152 682 691
f 682 433 691
f 181 643 60
f 654 297 646
f 122 325 121
f 140 130 187
f 421 416 617
f 123 661 555
f 309 308 240
f 698 260 686
f 702 693 177
f 698 701 699
f 672 441 436
f 291 126 125
f 109 691 697
f 143 140 186
f 874 872 816
f 665 441 672
f 188 192 489
f 665 658 653
f 712 704 699
f 653 451 665
f 927 697 317
f 712 740 734
f 648 461 653
f 178 375 19
f 923 880 116
f 641 461 648
f 740 756 748
f 748 758 228
f 926 706 639
f 479 641 482
f 754 742 362
f 354 754 362
f 407 669 38
f 203 458 128
f 482 629 620
f 756 765 758
f 182 754 154
f 128 127 192
f 254 246 252
f 611 382 620
f 764 398 228
f 499 192 127
f 764 766 156
f 766 776 156
f 930 611 928
f 420 156 776
f 140 132 130
f 788 7 8
f 387 166 168
f 420 776 134
f 136 760 197
f 300 387 415
f 750 197 760
f 745 201 197
f 148 208 209
f 733 148 745
f 258 35 106
f 593 533 605
f 731 208 733
f 236 318 910
f 729 210 208
f 728 210 729
f 727 216 210
f 188 489 579
f 929 573 556
f 724 216 727
f 573 929 582
f 723 218 724
f 722 218 723
f 720 219 722
f 717 224 720
f 514 224 717
f 188 579 138
f 876 556 573
f 707 681 226
f 898 904 546
f 472 143 186
f 212 795 221
f 899 391 921
f 854 925 931
f 213 795 212
f 140 143 145
f 404 54 714
f 833 922 924
f 415 387 786
f 143 408 185
f 238 3 793
f 1 3 238
f 31 799 752
f 622 238 244
f 918 799 515
f 380 376 171
f 915 752 357
f 617 476 421
f 619 244 618
f 618 249 616
f 616 249 614
f 636 739 613
f 388 613 10
f 614 250 608
f 357 791 915
f 383 688 388
f 608 259 607
f 571 438 576
f 295 667 666
f 92 96 94
f 607 259 604
f 372 726 700
f 667 295 303
f 367 726 372
f 604 267 601
f 298 295 207
f 923 875 880
f 363 732 367
f 408 467 74
f 148 209 87
f 298 301 295
f 359 747 363
f 601 267 600
f 359 355 755
f 600 272 598
f 598 272 596
f 353 755 355
f 301 298 773
f 596 278 591
f 747 755 751
f 591 278 425
f 588 425 781
f 388 688 813
f 769 771 913
f 763 353 349
f 202 771 200
f 506 500 913
f 74 467 744
f 773 570 301
f 82 708 707
f 320 647 326
f 500 492 913
f 331 554 557
f 242 910 320
f 344 335 340
f 910 908 647
f 554 335 550
f 239 222 703
f 549 550 335
f 549 344 544
f 166 167 168
f 544 352 543
f 543 368 542
f 17 15 167
f 17 845 157
f 907 536 919
f 157 850 155
f 155 850 153
f 542 368 539
f 150 633 74
f 153 854 151
f 151 854 149
f 149 858 147
f 147 862 144
f 539 375 535
f 759 903 38
f 530 535 178
f 144 862 141
f 141 866 139
f 139 866 137
f 530 386 525
f 137 870 135
f 525 396 521
f 135 870 872
f 133 872 131
f 131 874 129
f 129 923 117
f 923 874 875
f 170 119 902
f 521 396 400
f 20 932 101
f 99 101 932
f 99 886 97
f 95 97 199
f 95 891 93
f 93 896 90
f 518 400 786
f 90 896 85
f 85 901 83
f 83 905 81
f 169 166 300
f 81 905 79
f 77 79 796
f 77 909 75
f 439 394 545
f 75 914 73
f 73 914 71
f 71 916 69
f 442 394 439
f 468 466 366
f 442 447 434
f 7 562 920
f 794 534 811
f 924 899 833
f 434 447 428
f 428 454 419
f 419 462 410
f 38 898 759
f 902 111 897
f 466 468 495
f 526 524 534
f 25 59 56
f 96 43 45
f 895 401 61
f 182 343 338
f 483 389 163
f 483 162 389
f 897 59 25
f 883 894 775
f 776 777 150
f 59 897 111
f 380 384 389
f 774 882 893
f 111 902 119
f 778 708 225
f 501 159 380
f 167 166 839
f 159 505 373
f 176 191 867
f 373 513 369
f 364 369 513
f 850 890 925
f 354 364 517
f 354 522 154
f 177 369 709
f 154 541 343
f 446 445 437
f 376 380 159
f 204 223 725
f 217 198 214
f 214 703 222
f 437 569 446
f 610 211 195
f 414 624 195
f 403 630 624
f 889 718 715
f 160 313 424
f 181 630 403
f 888 246 239
f 179 643 181
f 174 650 643
f 651 650 174
f 163 384 165
f 487 247 268
f 165 651 163
f 171 683 165
f 174 474 163
f 557 313 331
f 475 515 799
f 376 693 171
f 285 273 757
f 177 693 376
f 627 885 884
f 174 179 474
f 509 508 516
f 294 302 310
f 709 702 177
f 709 362 742
f 154 754 354
f 182 338 183
f 780 785 803
f 183 768 182
f 423 413 881
f 183 338 777
f 638 338 343
f 633 638 408
f 590 401 895
f 692 185 329
f 190 188 194
f 515 475 25
f 270 190 194
f 190 270 128
f 195 427 414
f 7 788 562
f 915 878 571
f 877 595 438
f 203 205 286
f 44 48 61
f 474 206 483
f 210 209 208
f 61 62 895
f 413 895 62
f 211 432 427
f 172 42 169
f 398 764 220
f 515 263 918
f 437 575 569
f 228 758 764
f 124 885 426
f 175 871 350
f 84 498 327
f 225 514 716
f 327 371 227
f 918 263 730
f 898 448 759
f 371 327 36
f 839 374 890
f 227 371 378
f 451 441 665
f 228 235 748
f 444 180 457
f 233 231 107
f 187 868 345
f 759 448 586
f 189 292 868
f 734 748 235
f 653 461 826
f 924 922 237
f 292 193 196
f 446 671 394
f 461 641 479
f 922 551 237
f 391 237 455
f 482 641 629
f 918 868 799
f 196 200 293
f 771 293 200
f 558 455 237
f 281 287 894
f 894 893 281
f 248 566 241
f 257 251 104
f 255 430 453
f 257 261 265
f 509 775 287
f 260 266 676
f 509 516 524
f 265 261 108
f 523 516 531
f 322 316 523
f 273 252 888
f 265 271 262
f 811 534 316
f 316 315 811
f 676 686 260
f 366 466 581
f 478 495 468
f 330 547 315
f 547 336 552
f 366 471 468
f 760 495 473
f 657 471 284
f 336 342 553
f 553 900 552
f 832 900 553
f 865 878 791
f 792 284 4
f 31 571 576
f 286 288 291
f 438 571 877
f 906 864 863
f 4 790 792
f 8 7 319
f 303 295 301
f 291 304 306
f 570 773 567
f 739 617 392
f 617 416 392
f 306 311 309
f 309 311 308
f 170 628 668
f 613 739 10
f 739 392 10
f 656 675 668
f 656 815 675
f 680 678 365
f 813 613 388
f 324 333 314
f 687 198 668
f 379 688 383
f 295 666 207
f 815 656 636
f 377 694 379
f 325 498 84
f 689 333 266
f 334 696 689
f 700 377 372
f 861 834 860
f 703 721 239
f 732 726 367
f 834 861 256
f 348 341 704
f 747 732 363
f 356 358 704
f 735 888 721
f 370 358 356
f 735 264 757
f 735 273 888
f 755 747 359
f 369 364 362
f 353 763 755
f 647 761 326
f 761 349 326
f 376 373 177
f 779 757 264
f 780 779 279
f 384 380 171
f 235 395 19
f 736 871 737
f 562 788 917
f 910 647 320
f 785 804 803
f 414 406 403
f 256 323 803
f 813 675 815
f 415 786 400
f 427 419 414
f 422 420 705
f 432 428 427
f 430 489 499
f 587 580 590
f 437 434 432
f 445 442 434
f 446 394 445
f 671 586 448
f 819 609 627
f 456 449 450
f 455 563 248
f 865 791 769
f 581 579 463
f 645 652 817
f 644 464 469
f 652 662 715
f 874 923 129
f 715 664 652
f 694 812 688
f 477 64 126
f 750 760 473
f 485 655 477
f 465 715 718
f 507 207 666
f 465 774 494
f 865 486 480
f 812 675 813
f 485 484 655
f 207 202 298
f 883 504 825
f 493 865 769
f 783 782 504
f 679 484 485
f 202 200 298
f 196 490 200
f 196 193 490
f 877 859 476
f 302 803 323
f 189 496 193
f 814 806 810
f 168 719 789
f 821 814 810
f 391 899 924
f 713 527 532
f 467 408 472
f 302 294 887
f 786 787 518
f 538 519 532
f 561 532 527
f 926 35 33
f 538 532 660
f 540 555 561
f 551 586 640
f 319 241 565
f 660 532 561
f 113 161 746
f 161 176 867
f 8 319 565
f 223 247 635
f 781 585 784
f 620 629 393
f 887 780 302
f 269 390 393
f 671 640 586
f 781 784 588
f 599 589 603
f 393 290 611
f 626 603 606
f 928 290 305
f 623 238 622
f 625 1 623
f 774 893 894
f 312 332 912
f 626 632 631
f 332 339 847
f 847 892 332
f 757 887 285
f 847 714 54
f 793 3 8
f 732 807 726
f 858 931 857
f 675 812 687
f 168 167 15
f 273 735 757
f 920 921 7
f 402 385 639
f 167 845 17
f 638 633 338
f 646 649 663
f 650 663 649
f 845 850 157
f 888 239 721
f 663 654 646
f 706 409 48
f 850 854 153
f 676 654 663
f 429 409 317
f 661 692 660
f 854 858 149
f 676 663 686
f 858 862 147
f 433 429 691
f 678 680 677
f 699 711 712
f 712 734 356
f 711 710 753
f 862 866 141
f 712 711 740
f 682 436 827
f 734 740 748
f 866 870 137
f 214 687 808
f 748 756 758
f 664 816 652
f 872 133 135
f 198 687 214
f 754 182 768
f 872 874 131
f 665 659 658
f 758 765 766
f 658 648 653
f 766 764 758
f 776 770 777
f 668 198 170
f 117 923 116
f 787 786 789
f 929 330 822
f 533 822 322
f 556 336 330
f 531 322 523
f 899 920 833
f 662 444 889
f 346 323 256
f 491 482 620
f 116 880 911
f 911 20 116
f 382 491 620
f 911 932 20
f 932 886 99
f 645 443 662
f 930 382 611
f 382 930 516
f 886 824 199
f 605 531 930
f 491 508 848
f 628 170 902
f 256 347 346
f 482 848 479
f 891 896 93
f 347 256 861
f 820 617 739
f 866 819 817
f 605 594 593
f 896 901 85
f 929 593 582
f 612 881 885
f 901 905 83
f 826 451 653
f 451 457 180
f 672 659 665
f 441 180 851
f 79 905 796
f 436 673 672
f 436 851 827
f 909 914 75
f 682 673 436
f 914 916 71
f 584 902 897
f 876 86 342
f 69 916 1
f 829 433 827
f 700 808 694
f 788 3 916
f 853 829 417
f 409 61 48
f 402 48 855
f 870 817 816
f 855 29 360
f 874 816 664
f 385 361 102
f 830 880 875
f 576 897 25
f 819 634 817
f 68 69 1
f 106 856 730
f 743 736 738
f 910 242 236
f 862 857 819
f 744 879 102
f 880 830 831
f 840 528 843
f 401 846 44
f 803 302 780
f 769 791 357
f 878 915 791
f 831 911 880
f 918 873 345
f 576 25 475
f 799 31 475
f 841 29 846
f 879 856 102
f 106 639 385
f 573 564 876
f 911 831 802
f 342 556 876
f 337 339 332
f 25 510 515
f 350 29 841
f 564 573 892
f 892 582 912
f 510 25 56
f 864 906 837
f 312 328 337
f 929 822 593
f 33 35 258
f 871 360 29
f 840 860 835
f 864 158 863
f 29 855 44
f 916 914 917
f 808 687 812
f 594 307 312
f 307 305 328
f 916 917 788
f 33 56 927
f 840 835 809
f 307 594 605
f 736 743 361
f 531 516 930
f 290 277 305
f 852 109 927
f 318 835 860
f 21 844 529
f 852 59 112
f 620 393 611
f 102 743 744
f 112 113 852
f 751 763 762
f 647 785 762
f 805 747 751
f 252 268 254
f 230 835 229
f 487 641 635
f 637 879 467
f 124 851 164
f 809 230 221
f 161 142 176
f 807 732 805
f 247 234 254
f 230 809 835
f 808 700 807
f 345 637 186
f 176 184 191
f 812 694 808
f 204 849 223
f 849 204 191
f 813 688 812
f 635 648 725
f 849 184 198
f 815 613 813
f 815 636 613
f 217 223 849
f 659 191 204
f 217 234 223
f 191 184 849
f 859 480 421
f 795 213 511
f 245 461 243
f 878 865 859
f 802 886 932
f 191 659 867
f 452 718 889
f 223 234 247
f 176 142 184
f 246 254 234
f 865 493 486
f 293 771 357
f 268 247 254
f 771 769 357
f 805 264 735
f 268 252 390
f 161 113 112
f 486 493 488
f 390 252 274
f 867 673 746
f 264 751 279
f 274 277 390
f 746 682 152
f 281 848 287
f 827 433 682
f 808 703 214
f 152 691 109
f 109 852 113
f 476 859 421
f 296 305 277
f 476 595 877
f 305 307 928
f 196 293 292
f 595 476 820
f 726 807 700
f 752 293 357
f 307 328 312
f 310 328 305
f 56 59 852
f 292 752 799
f 328 310 323
f 886 825 824
f 312 337 332
f 807 703 808
f 891 824 782
f 193 292 189
f 844 21 22
f 429 853 409
f 109 697 927
f 56 33 510
f 105 559 553
f 339 337 346
f 346 714 339
f 51 346 347
f 317 926 927
f 564 690 876
f 863 844 232
f 799 868 292
f 510 33 258
f 843 528 529
f 844 863 842
f 861 840 843
f 861 158 347
f 861 860 840
f 752 915 31
f 158 843 842
f 843 158 861
f 842 529 844
f 919 837 906
f 906 232 907
f 809 528 840
f 730 873 918
f 730 856 873
f 873 856 879
f 856 106 385
f 817 634 645
f 837 919 838
f 817 652 816
f 919 906 907
f 919 536 537
f 743 102 361
f 904 669 838
f 898 669 904
f 669 898 38
f 703 807 721
f 405 404 838
f 669 405 838
f 922 833 836
f 294 285 887
f 361 385 402
f 869 645 634
f 830 875 664
f 916 3 1
f 864 51 347
f 402 855 361
f 909 801 914
f 397 890 374
f 48 44 855
f 796 909 77
f 879 637 873
f 901 798 905
f 580 925 397
f 48 402 706
f 896 800 901
f 891 823 896
f 409 62 61
f 853 62 409
f 881 413 417
f 417 62 853
f 86 407 299
f 459 893 882
f 199 891 95
f 830 465 831
f 829 426 417
f 426 829 124
f 426 881 417
f 124 829 827
f 433 829 853
f 886 802 825
f 774 894 883
f 851 124 827
f 164 884 124
f 441 851 436
f 180 164 851
f 443 869 164
f 911 802 932
f 715 830 664
f 874 664 875
f 736 361 360
f 451 180 441
f 457 452 889
f 889 444 457
f 866 817 870
f 106 35 639
f 459 718 452
f 826 452 457
f 452 826 245
f 451 826 457
f 862 819 866
f 858 857 862
f 461 245 826
f 459 882 718
f 479 243 461
f 854 931 858
f 850 925 854
f 846 401 580
f 845 890 850
f 491 848 482
f 848 281 479
f 825 494 883
f 382 508 491
f 900 832 767
f 508 287 848
f 896 823 800
f 839 890 845
f 504 782 824
f 42 374 839
f 516 508 382
f 908 910 318
f 534 524 523
f 552 818 548
f 42 172 173
f 901 800 798
f 818 552 900
f 533 322 531
f 871 175 737
f 868 187 189
f 22 232 844
f 593 822 533
f 822 315 316
f 929 556 330
f 330 315 822
f 838 919 537
f 904 838 537
f 318 860 834
f 908 318 834
f 465 830 715
f 556 342 336
f 105 836 559
f 833 559 836
f 29 44 846
f 908 834 804
f 562 917 828
f 299 836 105
f 818 900 767
f 832 553 559
f 562 832 920
f 811 315 548
f 828 801 821
f 801 828 917
f 821 797 814
f 836 299 903
f 401 590 580
f 797 821 801
f 905 798 796
f 796 814 797
f 810 548 818
f 814 798 806
f 798 814 796
f 909 796 797
f 811 548 810
f 413 587 590
f 404 51 837
f 51 864 837
f 837 838 404
f 909 797 801
f 529 842 843
f 158 842 863
f 232 906 863
f 800 806 798
f 529 528 511
f 794 811 806
f 785 908 804
f 785 647 908
f 859 877 878
f 526 534 794
f 877 571 878
f 571 31 915
f 173 351 42
f 524 783 509
f 350 173 175
f 29 350 871
f 823 526 794
f 783 524 526
f 526 823 782
f 42 351 374
f 841 374 351
f 504 775 783
f 509 783 775
f 782 823 891
f 885 124 884
f 887 757 779
f 914 801 917
f 426 885 881
f 890 397 925
f 825 504 824
f 775 504 883
f 925 587 931
f 587 925 580
f 802 494 825
f 785 279 762
f 494 831 465
f 831 494 802
f 894 287 775
f 590 895 413
f 438 897 576
f 884 164 869
f 762 279 751
f 423 931 587
f 587 413 423
f 931 423 857
f 762 761 647
f 617 820 476
f 595 820 621
f 751 755 763
f 893 459 243
f 751 264 805
f 609 857 423
f 423 881 612
f 662 443 444
f 721 805 735
f 621 584 595
f 857 609 819
f 443 645 869
f 612 885 627
f 636 621 820
f 628 902 584
f 805 721 807
