# avbd fit, rung f20-i32-s300 of Gate 6d (body space, fit phase only)
v -0.002792729 0.652678549 0.044054210
v -0.112331748 0.675314188 0.072421506
v -0.002669492 0.667515039 0.046640910
v -0.000605046 0.937727094 0.079507977
v -0.160135090 0.660693765 0.060345519
v 0.002158239 0.954136491 0.080285065
v -0.002502202 0.696973562 0.051540129
v -0.002561431 0.682255328 0.049281523
v -0.161355764 0.677397370 0.062094945
v 0.142616749 0.950198829 -0.098639920
v -0.180242494 0.673783898 0.053738303
v -0.193520740 0.676514685 0.036315281
v -0.201651692 0.678099871 0.020100471
v -0.170091778 0.675038636 -0.072860569
v 0.011970736 0.643525004 -0.062232397
v -0.152592123 0.671110332 -0.079870135
v 0.026665201 0.643567920 -0.062493224
v -0.136789620 0.671095729 -0.089775294
v -0.118994191 0.675283074 -0.095023222
v 0.198382571 0.637606919 0.009316133
v -0.000733844 0.906846642 0.070886657
v -0.000774560 0.891507804 0.067774221
v -0.101721622 0.669893503 -0.094444387
v -0.087645754 0.676175654 -0.090564877
v 0.098685361 0.842689037 -0.137347981
v -0.073086917 0.684525728 -0.087084278
v -0.130419999 0.915192604 -0.126445264
v -0.135433286 0.837076485 0.064748786
v 0.041255824 0.732074618 -0.091956474
v -0.148845762 0.847348988 0.058080100
v 0.071670063 0.871854007 -0.149183720
v -0.182647943 0.827157199 0.039115973
v 0.089167014 0.810430646 -0.118596569
v -0.203142494 0.673634887 -0.031893339
v 0.074768029 0.800426662 -0.114803232
v -0.154013276 0.920160770 -0.100765720
v -0.170673579 0.918793678 -0.059299100
v 0.014095856 0.787922680 0.060059316
v -0.172811389 0.923809648 -0.039489515
v -0.075907230 0.912464440 -0.146246463
v -0.028587127 0.895304024 0.067906566
v 0.013975794 0.695232749 -0.077686541
v -0.018174147 0.876541436 0.065234512
v 0.063281476 0.736303210 -0.097225465
v -0.039122250 0.877827168 0.065485254
v -0.173765302 0.930751979 -0.020512700
v -0.175097734 0.916662693 -0.006015189
v 0.073302403 0.754682720 -0.103183314
v -0.170342535 0.921237588 0.013709003
v -0.042008020 0.672048688 0.051134981
v 0.057706732 0.850474536 0.064796984
v -0.064477786 0.673469782 0.056009095
v -0.078073882 0.751526117 0.067558870
v 0.058334392 0.813909054 0.065338507
v -0.086471654 0.673376918 0.062224843
v 0.104041517 0.823781312 -0.122121073
v -0.102622129 0.749544203 0.074114673
v -0.173699960 0.759565294 0.063810058
v 0.119772866 0.837681293 -0.122793950
v -0.200512737 0.758758664 0.033330239
v 0.083985850 0.739300430 -0.102736458
v 0.103747800 0.736062706 -0.108181834
v -0.192246348 0.837196529 0.021214407
v -0.186020434 0.855443358 0.018744763
v -0.209893197 0.757220268 -0.032321889
v -0.198712960 0.751157045 -0.055675577
v -0.187257573 0.761526227 -0.071456872
v 0.009647720 0.648902655 0.052024581
v 0.013952972 0.639266551 0.041516785
v -0.172330186 0.749205053 -0.086683854
v 0.029257972 0.639367521 0.043558553
v -0.116920888 0.756606698 -0.113860667
v 0.044383645 0.639243603 0.046821736
v -0.019053500 0.784580469 -0.105435684
v 0.059376620 0.639106274 0.050593816
v -0.095204741 0.915086746 -0.142072290
v 0.074109815 0.638915479 0.055031009
v -0.112305917 0.916664720 -0.134416655
v 0.088527925 0.638665020 0.060107898
v -0.121026620 0.902063668 -0.134474963
v 0.102469958 0.638310075 0.065982156
v -0.136549741 0.929988384 -0.114698865
v 0.116244994 0.637881637 0.071584448
v -0.167270333 0.888322830 -0.081922390
v 0.130933613 0.637621999 0.071275152
v 0.044975292 0.775846839 0.063060589
v -0.140459687 0.918334484 0.050011121
v -0.123916104 0.836199105 -0.121135749
v -0.161703080 0.705674529 0.064383492
v 0.143351108 0.637530744 0.065646991
v -0.142708629 0.844932735 -0.112601832
v -0.017956924 0.836290658 0.061252672
v 0.156559452 0.638057709 0.059721708
v -0.038199432 0.839329541 0.062601544
v 0.169758290 0.638071656 0.053775586
v -0.024581328 0.856827080 0.063079141
v 0.183105126 0.637947202 0.048226781
v -0.018393692 0.911899567 0.071380369
v 0.188161910 0.638182282 0.034750320
v -0.062701061 0.926552474 -0.141079113
v 0.197407693 0.637744069 0.023732655
v 0.026800741 0.785441399 -0.106154047
v -0.087867342 0.895972550 -0.147606820
v -0.111549534 0.714396656 0.075194754
v 0.038514756 0.756919265 0.061417710
v 0.057582401 0.800507545 -0.113686778
v -0.118502773 0.885233223 -0.136409149
v -0.144328207 0.701846302 0.071095787
v 0.129769832 0.799009442 -0.112503707
v -0.133898944 0.874942958 -0.128167480
v 0.135011226 0.848653316 -0.118260637
v 0.142254546 0.831154466 -0.109907649
v 0.143911257 0.811143219 -0.106628634
v -0.167641014 0.723009229 0.063738540
v -0.147956297 0.864588737 -0.116053544
v 0.206376836 0.636861682 -0.002554620
v 0.198854178 0.637011766 -0.013696219
v -0.198474318 0.715115666 0.035694573
v 0.150431886 0.849164009 -0.107839741
v -0.161218017 0.876827061 -0.100101456
v -0.177667290 0.876756370 -0.064371437
v -0.178284883 0.888236880 -0.048897862
v -0.056216240 0.863636971 -0.145879328
v 0.157161325 0.731852651 -0.090231799
v -0.162779897 0.874565482 0.038145900
v -0.177497596 0.872146130 0.018679198
v -0.117386818 0.865900040 0.060269553
v -0.128307700 0.881477535 0.055543512
v 0.197390556 0.636022866 -0.028077334
v -0.020262901 0.854396224 -0.138035700
v 0.189741790 0.635880828 -0.040295720
v -0.039631311 0.850409806 -0.139141411
v 0.185568705 0.635184169 -0.054056026
v -0.023606071 0.740151048 -0.091696516
v 0.174658433 0.634729981 -0.063508227
v -0.107062720 0.922406197 0.062231362
v 0.161615863 0.634749174 -0.069706932
v -0.086847208 0.917528987 0.066036873
v 0.150217623 0.634214461 -0.078607574
v -0.021191973 0.838086009 -0.130836472
v 0.135777652 0.634212017 -0.078289658
v 0.162873149 0.839414775 -0.097226575
v -0.022545960 0.821913898 -0.122201994
v 0.122967266 0.634253621 -0.082655922
v -0.042003371 0.833693326 -0.130317345
v -0.175894424 0.846237004 -0.086709596
v 0.109357633 0.634555459 -0.086932413
v -0.143545613 0.937153518 0.047776829
v 0.095793076 0.636568129 -0.082322434
v -0.028281201 0.763184547 -0.098973565
v 0.082554594 0.638663530 -0.076722123
v 0.145870999 0.793281138 -0.105086602
v 0.069260210 0.640688539 -0.071124032
v -0.103829168 0.798475862 -0.115496054
v 0.055608083 0.642387629 -0.066246681
v -0.062699199 0.723189712 -0.093139261
v 0.041286048 0.643343747 -0.063397616
v 0.048524357 0.883737683 0.066346183
v -0.185144037 0.816008449 -0.079493091
v -0.207489222 0.680632055 -0.012545931
v 0.160600424 0.819716752 -0.099475726
v -0.200468689 0.833887875 -0.032901477
v -0.207666233 0.800638378 -0.022498593
v 0.177403912 0.725403428 -0.078446940
v -0.207501799 0.788410425 -0.041381691
v -0.002445236 0.671958804 -0.069837414
v 0.015987027 0.660358012 -0.066968612
v -0.002639472 0.657689452 -0.065764628
v -0.002208395 0.686160445 -0.074249081
v 0.163717002 0.861869991 -0.094417036
v -0.197861731 0.792173505 -0.060078900
v -0.002009525 0.700388253 -0.078707293
v -0.001815797 0.714632809 -0.083227396
v -0.210525423 0.786520362 -0.002236636
v -0.001597720 0.728957832 -0.087644726
v 0.177237809 0.827557266 -0.091012269
v -0.175449982 0.786895752 -0.092070036
v -0.108279288 0.654497743 -0.092683442
v -0.202524811 0.795557201 0.024346886
v 0.189069375 0.741909564 -0.066612430
v -0.198169276 0.777185619 0.034349293
v -0.089704216 0.783647656 -0.111967206
v -0.075752757 0.770648360 -0.107091263
v 0.178860992 0.845405936 -0.081458338
v -0.043557435 0.816917717 -0.120835856
v -0.000115155 0.828077435 -0.124681868
v 0.000074389 0.841542900 -0.131554767
v -0.098374560 0.901236415 0.062352698
v 0.000250624 0.855443478 -0.137344003
v -0.117457986 0.895150542 0.057508297
v 0.187226385 0.823241353 -0.074102141
v -0.105616845 0.881562114 0.060896486
v 0.000409089 0.869967937 -0.141251057
v -0.121447347 0.912150204 0.056776941
v -0.155746371 0.783792913 0.069266275
v 0.000557238 0.884994686 -0.142357662
v -0.115017556 0.940068603 0.063415781
v 0.178969890 0.866344333 -0.068994790
v 0.178511411 0.655247509 0.052492887
v 0.000681813 0.900080383 -0.141462952
v -0.127580702 0.930646062 0.056545395
v 0.000791320 0.915079236 -0.138870075
v -0.146834642 0.885821462 0.047185160
v 0.197820231 0.817231059 -0.055865455
v -0.151821852 0.905422390 0.042588696
v -0.203670189 0.829573929 0.002804152
v 0.000905784 0.929868698 -0.134834379
v -0.156277776 0.942744613 0.035400204
v -0.156688929 0.923941016 0.033389155
v -0.167395160 0.939847767 0.018001737
v -0.136493295 0.776840091 0.075118102
v 0.031161081 0.951692462 0.082869999
v 0.016148552 0.952022433 0.083424978
v 0.181246847 0.880895793 -0.047114782
v -0.000628593 0.922222495 0.074726991
v -0.172661647 0.936206639 -0.001994227
v 0.191836685 0.858030677 -0.045554779
v -0.172005191 0.941513419 -0.034806352
v -0.168761775 0.937776268 -0.051929753
v -0.071170665 0.704126954 -0.091381386
v 0.046183236 0.951722264 0.081563316
v 0.187453151 0.870062828 -0.028040424
v 0.200493962 0.832249463 -0.036651697
v -0.164386243 0.935044885 -0.069326386
v -0.147210121 0.938643098 -0.101414159
v -0.119268730 0.932452381 -0.126417011
v -0.148611203 0.886288285 -0.114810027
v -0.101033472 0.706445992 -0.102303013
v 0.076307110 0.952093005 0.077808246
v 0.061252795 0.951881230 0.079932936
v -0.099616542 0.880155921 -0.143705413
v -0.000854028 0.876194596 0.065284319
v -0.105674490 0.898878694 -0.141107798
v 0.196847558 0.850522697 -0.023231722
v -0.118638054 0.697202623 -0.100813612
v 0.091279157 0.952283680 0.075194225
v -0.025264319 0.745770991 0.058815040
v -0.026403543 0.656173229 0.045936018
v 0.184277967 0.879269004 -0.011882261
v -0.186297178 0.871004760 -0.040212054
v -0.038180672 0.700698495 0.054636724
v 0.106142402 0.952480972 0.071726039
v 0.210757643 0.747565448 0.000818843
v -0.051618733 0.655530632 0.050599374
v 0.210159943 0.747080922 -0.017922882
v 0.192046925 0.863292217 -0.007115689
v 0.202167779 0.830689251 -0.011333032
v -0.055232882 0.712257326 0.059002072
v -0.076735631 0.656024694 0.057343774
v -0.099770963 0.657512724 0.065917119
v -0.094023034 0.704990268 0.067764327
v 0.189313143 0.853625774 0.016360922
v -0.096048124 0.688532948 0.066995472
v 0.199557424 0.846904755 -0.002644557
v -0.048879690 0.859780431 0.064387709
v 0.091560215 0.878959775 0.063337609
v -0.112192012 0.696129799 0.074066296
v 0.069831558 0.814245105 -0.120371506
v -0.121961020 0.656135142 0.074643895
v -0.198307201 0.718578696 -0.049631350
v -0.129612267 0.707419991 0.077140309
v -0.140022486 0.671548724 0.070191763
v 0.062729761 0.827036560 -0.127415538
v 0.162207589 0.901075184 0.029291099
v -0.131806925 0.688929677 0.075518921
v -0.203589082 0.704173207 -0.039857648
v -0.143795505 0.653628469 0.066674344
v 0.199680492 0.833496928 0.012417050
v 0.196232364 0.818161130 0.023433220
v -0.134783819 0.899740219 0.051783353
v -0.151591152 0.689171672 0.067707986
v -0.176216453 0.654587090 0.053898532
v 0.175168008 0.867732406 0.024531322
v 0.176532567 0.849335015 0.036297999
v -0.182532817 0.709719360 0.057032872
v -0.172858879 0.691809058 0.059250910
v 0.175030142 0.831071258 0.048866741
v -0.188468665 0.658267498 0.040451013
v 0.148178011 0.906325161 0.046275187
v -0.191417173 0.693522215 0.046980549
v 0.207000047 0.742960930 0.021883199
v -0.047291838 0.951735854 0.081538603
v -0.200644612 0.694625974 0.027714256
v -0.022037065 0.932196498 0.076257542
v 0.164038420 0.863259017 0.041429572
v -0.160478309 0.892324805 0.036098383
v 0.197116151 0.737433195 0.041269340
v -0.163901448 0.906486332 0.025460362
v -0.206011608 0.689185739 0.007450579
v 0.171988502 0.814416111 0.060462076
v -0.170684040 0.889009118 0.021467650
v 0.023660194 0.868278503 -0.141761184
v 0.024746455 0.888560116 -0.143448487
v 0.149867430 0.860259414 0.053253807
v -0.024073411 0.928972840 -0.136302099
v 0.162336081 0.846969962 0.055311806
v -0.208044291 0.708253860 0.012811648
v -0.018603787 0.909856677 -0.140882581
v 0.024540650 0.772798777 0.060623251
v -0.017535340 0.684022546 -0.073620364
v -0.039277732 0.915471911 -0.142649785
v 0.133059874 0.868529677 0.056655489
v -0.044244565 0.932927430 -0.137714595
v -0.175154552 0.902990520 0.008488490
v 0.152539551 0.827257454 0.063845001
v -0.180823192 0.884860992 0.004027837
v 0.137025297 0.811132729 0.070896998
v -0.179729834 0.891567528 -0.030432085
v -0.184922889 0.878227353 -0.016170381
v 0.138665795 0.848261714 0.060528774
v -0.179137722 0.897467434 -0.010972283
v 0.116889738 0.818508029 0.074877635
v -0.208572358 0.660293758 -0.018585678
v -0.207398534 0.699424922 -0.007249360
v 0.104948521 0.733721614 0.074561022
v 0.126545981 0.733338475 0.079668537
v 0.102009773 0.777923703 -0.111607768
v 0.087810345 0.930418015 0.068531454
v -0.019412246 0.699460685 0.052400161
v 0.120142378 0.953026950 0.066772655
v -0.174847573 0.905550659 -0.044644788
v 0.134085357 0.750640273 0.076852001
v 0.112534486 0.857843876 0.062970743
v -0.208085850 0.707514405 -0.021886621
v -0.173050478 0.898674190 -0.064483613
v 0.132823303 0.953693092 0.060584031
v -0.159955859 0.899018407 -0.100190684
v 0.127843037 0.833274961 0.067990758
v -0.062492222 0.813102603 -0.120058894
v 0.093318388 0.751562953 0.071881071
v -0.196757659 0.656231344 -0.036485374
v 0.096155062 0.818983257 0.074196324
v -0.206492901 0.691386402 -0.026868680
v -0.190898091 0.700028002 -0.055662751
v -0.186251834 0.652426779 -0.051903367
v 0.072892465 0.747021794 0.066771112
v 0.105338752 0.837766171 0.071391627
v -0.064270988 0.784809649 -0.109201111
v 0.086419433 0.832444072 0.069221973
v -0.191564530 0.668853641 -0.048621099
v -0.184164941 0.713997185 -0.067620672
v 0.058581889 0.760503173 0.064742036
v -0.078503616 0.800805569 -0.115550101
v -0.178880721 0.659382582 -0.066959620
v 0.019832812 0.831862926 -0.127144501
v 0.084697664 0.853760064 0.066977300
v 0.066991024 0.871137261 0.065721065
v -0.178419024 0.694700122 -0.071137711
v 0.145143211 0.954455197 0.051225144
v 0.020203684 0.723227799 -0.086837344
v 0.021454958 0.708112895 -0.082346223
v -0.159778550 0.656004906 -0.074572176
v 0.155337781 0.954981327 0.039759375
v -0.125928730 0.800147533 -0.114632465
v 0.163567439 0.955292106 0.026822004
v -0.149795458 0.701180756 -0.087721124
v 0.046485312 0.897332966 -0.145573765
v -0.161553115 0.689661145 -0.079281636
v 0.169587314 0.955483317 0.012859942
v 0.033770297 0.749111772 -0.095782943
v 0.036874954 0.767493844 -0.101179421
v -0.139172092 0.786412179 -0.107949391
v 0.172419146 0.955268025 -0.001984279
v -0.143844768 0.804354310 -0.106920525
v -0.102061667 0.932193935 -0.133017138
v -0.040971681 0.916947722 0.071122974
v 0.172791377 0.954784691 -0.017022111
v -0.143444985 0.653485179 -0.085777298
v -0.158567742 0.795681238 -0.100199685
v -0.146488443 0.684843123 -0.085230149
v -0.145181149 0.907696545 -0.114359103
v 0.171179369 0.954280972 -0.031021610
v -0.174619704 0.806256413 -0.093473896
v 0.033563532 0.694297552 -0.079380602
v -0.125004217 0.655802608 -0.088200316
v -0.187370136 0.798746169 -0.076918773
v 0.168200150 0.953699708 -0.045704383
v -0.135235444 0.894638538 -0.127028272
v 0.163805008 0.952986121 -0.059987497
v -0.195531294 0.814629197 -0.061503731
v -0.133207142 0.690204501 -0.092522420
v 0.183990106 0.773350000 0.060594082
v 0.158037022 0.952196777 -0.073682174
v -0.205076933 0.803763986 -0.046287771
v 0.047728680 0.784718812 -0.107380271
v -0.091630585 0.656877577 -0.088480905
v -0.019207194 0.665960908 -0.068105757
v 0.151790261 0.951423526 -0.087200321
v -0.202991962 0.818660736 -0.038826384
v 0.187228709 0.833268940 0.030383911
v -0.019614231 0.729175568 0.056599796
v 0.132168427 0.949129462 -0.108886048
v 0.186341971 0.811438859 0.041798450
v -0.066422187 0.808252335 0.066383176
v -0.102300927 0.686896622 -0.098878995
v -0.074240729 0.663292646 -0.080902085
v 0.053684287 0.696905494 -0.084224463
v -0.086600676 0.695662618 -0.095112696
v -0.057172578 0.678555310 -0.078766935
v -0.055045150 0.660531282 -0.072152406
v 0.074814573 0.721835554 -0.096549928
v 0.059829284 0.769348741 -0.104323961
v -0.189362943 0.788886905 0.048692834
v 0.046243798 0.829945207 0.063462995
v 0.038042482 0.810747147 0.062172264
v -0.186497107 0.808335006 0.043100942
v 0.032335356 0.791450143 0.061550803
v -0.026250962 0.803109288 -0.113105401
v 0.097915873 0.756589413 -0.108521901
v -0.171051562 0.819625378 0.059197593
v -0.055382419 0.708604157 -0.087292582
v -0.060325306 0.694203258 -0.084738210
v 0.105359986 0.712166667 -0.104451239
v -0.169034183 0.799367726 0.063528597
v -0.037011940 0.678170025 -0.073195092
v 0.121545732 0.948580444 -0.117182717
v 0.122685120 0.729466677 -0.106954873
v -0.044416796 0.696165264 -0.080712222
v -0.148690268 0.811511636 0.067137666
v -0.039602064 0.720857561 -0.087515488
v 0.108839452 0.947632015 -0.123802558
v -0.025842721 0.700525343 -0.079377726
v 0.113317989 0.690430164 -0.101008877
v -0.203488469 0.671341062 0.002959812
v -0.199546784 0.659840763 0.022898946
v 0.138110921 0.726078928 -0.098546647
v -0.140898257 0.794450760 0.071889780
v -0.124331512 0.805286050 0.074941538
v 0.119925104 0.766898513 -0.114320502
v -0.071706399 0.862774074 0.065481372
v -0.062350780 0.952169061 0.079818942
v -0.114643857 0.784857333 0.079687744
v 0.138914794 0.761467636 -0.104353070
v -0.101413950 0.801062703 0.076140799
v -0.083196044 0.846886277 0.067745686
v 0.173734397 0.766882300 -0.088638291
v -0.089059643 0.784329772 0.071373731
v 0.113794759 0.882362664 -0.138280734
v -0.073421136 0.827683806 0.067453347
v -0.095651105 0.832903206 0.072890379
v 0.186840162 0.760953307 -0.071519665
v -0.088678166 0.815413177 0.070533186
v 0.183956832 0.710528851 -0.066598915
v 0.191791669 0.723853827 -0.058797192
v -0.082358643 0.799523413 0.070049688
v -0.066622205 0.788342118 0.066537954
v -0.110143282 0.819331944 0.075728334
v -0.025793005 0.800556004 0.060573053
v -0.117198482 0.835375190 0.069235638
v -0.105949029 0.849878609 0.066949390
v 0.199279025 0.757897556 -0.054442428
v 0.209067822 0.732916355 -0.030076673
v -0.060300428 0.842728496 0.065105826
v -0.131384686 0.822284043 0.070128396
v -0.042178523 0.731817007 0.059221447
v -0.127774909 0.850813687 0.061555572
v 0.201306969 0.738109469 -0.048888452
v -0.142512411 0.865922630 0.053242624
v 0.209556580 0.730816066 -0.010597223
v -0.169502720 0.838771462 0.053445823
v 0.210224196 0.768433332 -0.014638513
v -0.151829451 0.829230309 0.063201517
v -0.061404437 0.880027413 0.065466098
v -0.163486406 0.856497109 0.047330000
v 0.206961423 0.696124971 -0.006942178
v -0.065096863 0.915860832 0.068778351
v -0.000510880 0.800791144 -0.111368872
v -0.060888857 0.933813214 0.073288433
v -0.173170209 0.860525608 0.031603850
v -0.196646839 0.817185700 0.022799861
v -0.042733319 0.937035739 0.076209739
v -0.000310054 0.814580441 -0.117753543
v -0.092353381 0.953133464 0.074845701
v -0.207911938 0.808506489 0.001741056
v 0.078298241 0.854674816 -0.144717023
v 0.116915628 0.920707822 -0.130887955
v -0.190071523 0.867994428 0.002140253
v -0.077386484 0.952643216 0.077645175
v 0.211014301 0.765415072 0.010799708
v 0.094494089 0.946747184 -0.127846330
v -0.175997883 0.910895824 -0.025265569
v 0.203087181 0.779354632 0.025735836
v -0.203871086 0.821190178 -0.016995406
v -0.200015381 0.841417432 -0.016277904
v -0.192896515 0.860099494 -0.018370789
v 0.079647236 0.946163476 -0.130533487
v 0.206822515 0.813827217 0.005075656
v 0.064475968 0.945871174 -0.131919131
v -0.084165953 0.881712615 0.064195573
v -0.015052794 0.889771819 -0.142836452
v 0.194182247 0.770932436 0.042759079
v 0.049124770 0.945467770 -0.132124931
v 0.059057273 0.932180882 -0.138547644
v 0.204759955 0.688845992 0.017617475
v -0.079635061 0.934398353 0.070719004
v -0.019244879 0.872108102 -0.142225593
v -0.196849838 0.835152447 -0.053542495
v -0.165490583 0.913455367 -0.081307426
v -0.094312340 0.864878178 0.064549014
v 0.033321407 0.945037723 -0.131128713
v -0.186821222 0.833355069 -0.072646402
v 0.017326133 0.944557369 -0.129795432
v -0.158472419 0.835397363 -0.101301633
v 0.188953951 0.694716811 0.052113980
v -0.175993055 0.826205552 -0.092888102
v 0.017114477 0.933178723 -0.134292513
v 0.001024170 0.944331288 -0.129433110
v 0.191337690 0.753685832 0.053219825
v 0.182319596 0.732122540 0.059971727
v 0.083116613 0.826616406 -0.128251821
v 0.016934214 0.927188098 0.075177029
v -0.160420939 0.855810165 -0.100300036
v -0.158204585 0.815620124 -0.100957990
v -0.157078266 0.934949517 -0.086169340
v 0.068269104 0.838663459 -0.138534576
v 0.169017151 0.751683652 0.065727964
v -0.138423771 0.823001206 -0.110834323
v -0.046511970 0.644436479 -0.063455477
v -0.106284402 0.829090893 -0.125489861
v -0.060077500 0.643135071 -0.068468414
v -0.073557653 0.641753554 -0.073682196
v -0.116493501 0.816707134 -0.118100807
v 0.147915602 0.739546180 0.072727829
v 0.161418483 0.725188673 0.066679940
v -0.086762682 0.640165448 -0.079470083
v 0.154173568 0.702584684 0.067663528
v -0.114112481 0.865997910 -0.137727946
v 0.037576184 0.921193957 0.072424695
v 0.023528561 0.908561528 0.070604309
v -0.098311290 0.637717783 -0.087839834
v 0.149688840 0.762087166 0.071763977
v -0.106737055 0.845591366 -0.136337623
v 0.131874174 0.766471624 0.077295676
v 0.139596194 0.717782795 0.073977910
v -0.112710714 0.637080133 -0.087223567
v -0.001031348 0.845743537 0.061723690
v -0.001120039 0.830614865 0.060639143
v -0.088706806 0.829023838 -0.132041782
v -0.126230344 0.637377203 -0.082772143
v -0.077110872 0.876582325 -0.148836717
v -0.095669344 0.814966083 -0.121004760
v -0.139462858 0.636505008 -0.085251227
v -0.150122941 0.637604833 -0.075516142
v -0.163641810 0.637708902 -0.070246592
v -0.048300076 0.819541931 0.063296646
v -0.024428932 0.819644570 0.060948513
v 0.086984158 0.735678554 0.069308534
v 0.090600394 0.718319595 0.068756737
v -0.177599266 0.637836277 -0.066537037
v -0.182692856 0.638809443 -0.053069729
v -0.026974464 0.763859570 0.060078401
v 0.071804695 0.727910817 0.065007254
v 0.052324809 0.739724100 0.062152594
v -0.190444246 0.639214098 -0.040903494
v -0.073608346 0.857588768 -0.145995274
v 0.078681752 0.765209138 0.069039807
v -0.198148951 0.639628053 -0.028729016
v -0.051198095 0.753006399 0.062373508
v 0.030749749 0.738528132 0.059080124
v -0.030255768 0.715117276 0.055812769
v -0.093385428 0.860924900 -0.143957645
v 0.027882108 0.698241413 0.053730868
v -0.064667925 0.733611047 0.063256502
v 0.070551038 0.798119247 0.067933649
v -0.030347878 0.686214745 0.051658679
v -0.052432738 0.689624190 0.055637401
v -0.054518521 0.883333206 -0.147553742
v -0.070221357 0.894305706 -0.148951024
v -0.071004331 0.769688725 0.066869982
v -0.055335201 0.904502034 -0.146910727
v 0.091813810 0.886550784 -0.146407187
v -0.208818004 0.639721334 -0.019131536
v 0.083906889 0.783444285 0.070840828
v -0.074472740 0.694236338 0.061121576
v -0.095652588 0.767075419 0.072437592
v 0.097896852 0.865791678 -0.143247038
v -0.077166602 0.716471076 0.064372852
v -0.087179214 0.735017776 0.068632200
v -0.074461184 0.898979545 0.065718129
v 0.072060861 0.702062607 -0.090950243
v -0.051243007 0.897874057 0.067341462
v 0.102100864 0.788257003 0.076477736
v -0.095906824 0.720871210 0.069867335
v 0.135334015 0.880913615 -0.126842737
v -0.200632647 0.640698612 -0.008497904
v -0.026120132 0.782003880 0.060612757
v 0.091012225 0.692941546 -0.095699579
v -0.199977368 0.640420794 0.020282608
v -0.129172102 0.745008469 0.078201056
v 0.086924195 0.710116506 -0.097675785
v -0.190387473 0.640632749 0.030955579
v -0.109531306 0.732385337 0.075717106
v 0.118513629 0.777817667 0.080038428
v 0.122026466 0.797332168 0.076842546
v 0.126272768 0.900181293 -0.132059425
v -0.183870554 0.640192151 0.043727718
v -0.118193053 0.764092088 0.080652021
v -0.174547762 0.639976621 0.054720234
v -0.130268544 0.725600839 0.077622101
v -0.160417005 0.639868557 0.057717718
v -0.147212729 0.639159441 0.063689187
v -0.138329819 0.760925531 0.074857131
v -0.149941698 0.733947277 0.071213856
v -0.134828433 0.639049232 0.069344342
v 0.140755221 0.785626352 0.073408246
v -0.153543383 0.751076579 0.070195630
v -0.120492481 0.638916373 0.072796457
v -0.106741406 0.639096737 0.067260861
v 0.130833894 0.684499145 -0.091481455
v -0.155886933 0.767993808 0.069500148
v 0.179227203 0.795654714 0.061054230
v 0.131893605 0.698927760 -0.094870947
v 0.152192622 0.932402253 -0.098541163
v -0.092902735 0.639128089 0.061470889
v -0.147281796 0.717147946 0.070552051
v -0.078773104 0.639106154 0.056028765
v 0.127064139 0.934344947 -0.121165559
v -0.064372808 0.639064252 0.051010668
v -0.049653880 0.638974965 0.046796683
v 0.192562014 0.789575458 0.043116353
v 0.143844694 0.898344398 -0.117899835
v -0.034795508 0.638877511 0.043065149
v -0.019766781 0.638540447 0.040572237
v -0.174182102 0.778572917 0.064029254
v -0.016601276 0.648092389 0.051458977
v -0.171826676 0.741034150 0.064069256
v 0.146222681 0.694508791 -0.087097771
v 0.154746324 0.880877852 -0.108919308
v 0.201190084 0.800037086 0.024429133
v -0.190349370 0.769076109 0.050874103
v -0.190248102 0.729069829 0.054051928
v -0.192256361 0.749213755 0.052425176
v -0.040639549 0.783231914 -0.106251463
v 0.162093714 0.689922035 -0.078570791
v 0.205960348 0.810554981 -0.016105045
v 0.147826478 0.915439248 -0.108865336
v 0.014104821 0.816423893 -0.118792906
v -0.051280878 0.799815953 -0.113215171
v 0.068216965 0.785692811 -0.109612726
v -0.048209496 0.774936497 0.063022017
v 0.210410431 0.789413095 0.001250966
v -0.200672671 0.738030791 0.033918526
v -0.208578750 0.772247910 0.016415533
v -0.178884566 0.845396698 0.036070120
v 0.180003643 0.692784011 -0.068055481
v -0.209457353 0.728975892 0.013967236
v 0.123282477 0.931436360 0.058857191
v 0.208513409 0.790463805 -0.024844177
v -0.211131960 0.750363052 0.013442176
v -0.210659504 0.763543487 -0.007297393
v -0.209342763 0.777406096 -0.025008108
v 0.189490885 0.684037209 -0.053734820
v 0.208359629 0.774271429 -0.039687213
v -0.208980486 0.719188809 -0.006537677
v -0.198991597 0.850299358 0.002027579
v 0.158573240 0.898564339 -0.101926602
v -0.032230906 0.951556563 0.082520150
v 0.203682542 0.794262767 -0.050121158
v 0.190811992 0.799212754 -0.070797578
v -0.081363790 0.842757881 -0.141765788
v -0.058743108 0.844602466 -0.141529709
v 0.193009049 0.703466773 -0.052937429
v -0.210124999 0.740735233 -0.012480864
v 0.198229596 0.674114943 -0.039330412
v 0.196054444 0.777669311 -0.059516091
v -0.015277271 0.944901347 -0.129638284
v -0.031343080 0.945684314 -0.130750641
v 0.166834265 0.882915139 -0.086553693
v 0.017980730 0.805946827 0.060207464
v -0.047119882 0.946508408 -0.131728753
v -0.047112476 0.795836091 0.063130379
v 0.186012998 0.778715730 -0.076452330
v 0.176359743 0.788067460 -0.091234609
v -0.062652275 0.947031975 -0.131523848
v 0.167144224 0.904123485 -0.083226644
v -0.208625630 0.722554088 -0.028829526
v -0.077931665 0.947565675 -0.130066484
v -0.084126584 0.930408597 -0.138627559
v -0.195427164 0.851400197 -0.038505409
v -0.092653498 0.948361278 -0.127428144
v -0.106889986 0.949500203 -0.123594657
v 0.156512812 0.776810765 -0.098705031
v -0.201357439 0.771576226 -0.052815247
v -0.186467648 0.855133057 -0.063350521
v -0.172071844 0.866472602 -0.082696810
v -0.206900626 0.737446010 -0.042111102
v 0.172855362 0.892057121 -0.065499015
v 0.163593635 0.936334252 -0.070209123
v -0.197387338 0.686474681 -0.044478554
v 0.051480949 0.794960380 0.064277247
v 0.135984719 0.779466569 -0.108405732
v -0.064470872 0.829752266 -0.129672751
v -0.188052848 0.779907346 -0.073815420
v 0.169136375 0.931998849 -0.054196578
v -0.078078158 0.817970097 -0.123144075
v -0.185019150 0.680780113 -0.060637973
v 0.119414032 0.785006464 -0.115647420
v -0.191886082 0.731909156 -0.061092842
v -0.173940092 0.728576541 -0.081733480
v 0.172231570 0.930628479 -0.036564078
v -0.185726002 0.744301140 -0.072293371
v -0.174083352 0.768170178 -0.089307062
v 0.179887712 0.892180443 -0.026632596
v -0.167647496 0.708404839 -0.080585942
v -0.018725652 0.718492389 -0.084709376
v 0.082099363 0.772128284 -0.108034298
v -0.119658530 0.950465560 -0.117242202
v -0.130761907 0.951414704 -0.109137833
v -0.156461865 0.776793182 -0.099238344
v -0.154818863 0.757871509 -0.096570775
v -0.154706478 0.738542557 -0.093355611
v -0.153159633 0.719512105 -0.090108737
v -0.128273547 0.855179131 -0.125352040
v 0.067453064 0.832998574 0.066428229
v 0.205126911 0.695024967 -0.035187494
v -0.151027888 0.953818440 -0.087866299
v -0.158007771 0.954619229 -0.074668840
v 0.208325177 0.713594377 -0.022220476
v -0.002802145 0.643308759 -0.062175803
v -0.163871855 0.955386937 -0.060875714
v 0.178420261 0.895323157 -0.003768482
v -0.168442458 0.956001163 -0.046569649
v -0.171956986 0.956535697 -0.031944428
v -0.173739597 0.956955254 -0.017930027
v 0.204793498 0.809440970 -0.036700662
v 0.173131615 0.936449885 -0.021292517
v -0.173585981 0.957373261 -0.002797458
v -0.170435429 0.957459629 0.012033078
v -0.165136948 0.957287669 0.026484434
v 0.050324310 0.816202283 -0.120447412
v -0.156822309 0.956593633 0.039466627
v 0.172525674 0.932488561 -0.004720871
v -0.146166176 0.955953240 0.050548773
v -0.134951159 0.709188104 -0.096619748
v 0.173137099 0.889387250 0.016553471
v 0.017240630 0.755041480 -0.096180230
v -0.001370925 0.743283749 -0.092156768
v -0.001181611 0.757737815 -0.096479222
v 0.139912814 0.932795167 -0.110327587
v -0.136191502 0.728201985 -0.100348853
v -0.000958809 0.772187173 -0.101021171
v -0.136460692 0.767213881 -0.106982611
v 0.015554747 0.771383762 -0.101052105
v -0.000720273 0.786672533 -0.105706438
v -0.133733436 0.955126107 0.059562288
v 0.161502481 0.800005257 -0.098492213
v 0.168597788 0.934316337 0.013218719
v -0.118824944 0.716742873 -0.105979405
v -0.121192262 0.954363704 0.066096351
v -0.107160605 0.953688323 0.071078405
v 0.158189878 0.921428680 0.030783415
v 0.046900608 0.877723098 -0.146308154
v -0.136273891 0.747597992 -0.103728577
v -0.115201734 0.779094100 -0.115683757
v 0.160862073 0.940873146 0.027765255
v -0.118363500 0.736339688 -0.110493377
v 0.164626986 0.881164372 0.033634938
v -0.098940261 0.725938678 -0.105466425
v -0.001658913 0.785594285 0.059665374
v -0.097614549 0.936632752 0.067578517
v 0.138784647 0.939715862 0.052992057
v 0.141692430 0.923246682 0.050275087
v 0.150115639 0.938248634 0.041244138
v -0.083421394 0.715666175 -0.097956747
v -0.096719757 0.745388627 -0.107515439
v -0.078034572 0.734656513 -0.100458875
v 0.048394453 0.706921875 0.057948720
v -0.095898971 0.764936090 -0.109343253
v 0.050021648 0.915884197 -0.143483922
v -0.074452728 0.753498435 -0.103240274
v 0.026507849 0.907165527 -0.141773179
v -0.038175978 0.869642437 -0.143854812
v -0.035361547 0.892649055 -0.144432843
v 0.207794353 0.708086133 0.014233331
v 0.192934677 0.716394544 0.047317620
v -0.050260283 0.743533015 -0.095995001
v -0.054317780 0.765873730 -0.102662660
v -0.141849041 0.952803612 -0.099429503
v 0.154056028 0.890861154 0.043368891
v 0.136803538 0.888671398 0.051915329
v -0.201143146 0.654962480 0.000827317
v 0.168387935 0.687188506 0.060978960
v 0.174756721 0.709581077 0.060357500
v -0.199007064 0.640664518 0.005894487
v 0.125655204 0.907480717 0.055246461
v -0.035519041 0.659075439 -0.066781566
v -0.031995218 0.644127548 -0.063044608
v 0.015350024 0.680204272 0.049620040
v -0.017452626 0.643833041 -0.062371422
v -0.004310710 0.949713230 0.090151593
v 0.066011488 0.907730699 -0.147773191
v -0.017256763 0.951509774 0.083514065
v -0.021331452 0.672424793 0.048527535
v 0.133294910 0.696363032 0.075562082
v 0.032712959 0.937721550 0.077342287
v 0.086755544 0.658162653 0.061692037
v 0.074853681 0.670866132 0.059357516
v 0.107332811 0.669078052 0.070455953
v 0.049784403 0.855793178 -0.142252117
v 0.128696784 0.674724936 0.075934000
v 0.056572806 0.672825754 0.054914366
v 0.199936539 0.669839084 0.021387670
v 0.117174223 0.881726444 0.058958478
v 0.106125630 0.898136795 0.061043620
v 0.171994224 0.912569404 0.009758817
v 0.110750042 0.689018250 0.073540196
v 0.175575942 0.914035797 -0.018592633
v 0.174686775 0.907345593 -0.044585645
v 0.050458252 0.935285211 0.075052477
v 0.092158243 0.699035048 0.067363754
v 0.113324031 0.712016046 0.076321155
v 0.171124369 0.915620506 -0.066789202
v 0.161297604 0.925247371 -0.083262444
v 0.091547184 0.679403007 0.065318383
v 0.158480167 0.915148735 -0.095632516
v 0.185545772 0.665068746 -0.055191685
v 0.169774026 0.672068477 -0.071997672
v 0.070397422 0.707155228 0.062452309
v 0.144572899 0.672630191 -0.083117992
v 0.134543225 0.916932404 -0.121919736
v 0.073022321 0.687779784 0.060811251
v 0.113153398 0.754134297 0.079260625
v 0.148458511 0.680015862 0.068215944
v 0.182589084 0.673925757 0.053325403
v 0.194426581 0.681549072 0.036380339
v 0.209788948 0.753982306 -0.035454139
v 0.157062978 0.754331291 -0.094350062
v 0.051824324 0.690435231 0.056303661
v 0.139762580 0.742880821 -0.100852884
v 0.204707786 0.679275990 -0.018809393
v 0.204062268 0.676047266 0.001939345
v 0.037521157 0.720686495 0.057968844
v 0.012517577 0.738626063 0.057607122
v 0.088796936 0.905156910 0.064576775
v 0.068148218 0.933942318 0.072651915
v 0.018123787 0.755665898 0.059391148
v 0.034600850 0.846138299 0.062915668
v 0.022250455 0.826053262 0.061114706
v 0.021321340 0.678154707 -0.072744310
v 0.056777216 0.917518139 0.070081465
v 0.038782790 0.712354422 -0.085820809
v 0.031935789 0.893187642 0.067710198
v 0.045446381 0.903300285 0.068594202
v 0.014831498 0.892470956 0.067822367
v 0.035896320 0.661936104 -0.068996795
v 0.057123352 0.717044592 -0.090841517
v 0.077641651 0.816216111 0.069135420
v 0.201142341 0.757995844 0.032512568
v 0.191504762 0.841092110 -0.061139572
v 0.059014995 0.660634935 -0.073555984
v 0.174937889 0.746109545 -0.084280595
v 0.124389373 0.818021476 -0.114924774
v 0.121463336 0.748424172 -0.110675797
v 0.082440659 0.657679856 -0.082031265
v 0.052100725 0.751919508 -0.098926373
v 0.038757000 0.801122189 -0.112836957
v 0.119552732 0.669722140 -0.093469933
v 0.104468964 0.654123604 -0.091032282
v 0.098606199 0.925087929 -0.136805564
v 0.074109778 0.916274905 0.067977495
v 0.068155080 0.895094395 0.066072643
v 0.128323317 0.652593434 -0.085826539
v 0.026483867 0.877716660 0.065663785
v 0.042766441 0.864836037 0.064671449
v 0.077786580 0.925476193 -0.140979007
v 0.152344793 0.652876318 -0.079003736
v 0.179208860 0.809039772 -0.089026295
v 0.024252785 0.848522067 -0.135688454
v 0.172905743 0.705383658 -0.076759964
v 0.172207221 0.652187407 -0.068060115
v 0.018495414 0.738958001 -0.091508314
v 0.185622960 0.648336411 -0.054694861
v 0.031693477 0.817772985 -0.120171286
v 0.194520518 0.653849959 -0.038577389
v 0.202605605 0.663819015 -0.025893906
v 0.064627096 0.779516757 0.066559725
v 0.106557094 0.903517604 -0.140290663
v 0.086242780 0.907382369 -0.146909207
v 0.019286906 0.801249683 -0.111947834
v 0.205972344 0.661015630 -0.009017843
v 0.125406280 0.711875558 -0.101331390
v 0.208515331 0.714987457 -0.003311745
v 0.198908642 0.701949120 0.033201478
v 0.159547135 0.710941017 -0.084619924
v 0.143543750 0.712081015 -0.092870340
v 0.189793468 0.659787774 0.038318373
v 0.150628120 0.875511289 0.047726966
v 0.183115542 0.874818027 0.006949858
v 0.203072309 0.717339456 -0.042390916
v 0.046745248 0.678486824 -0.076594248
v 0.162348866 0.662797093 0.060168743
v 0.088788182 0.801416874 0.072060809
v 0.209472254 0.728047788 0.009199140
v 0.202483818 0.722376764 0.028522169
v 0.091358997 0.724276602 -0.102029301
v 0.142427221 0.657355785 0.068013564
v 0.121598586 0.859869480 -0.133482128
v -0.001439453 0.800550818 0.059500117
v -0.002208908 0.726370096 0.055732064
v 0.056204725 0.720823169 0.061044026
v 0.121782973 0.655365944 0.075076208
v 0.144989580 0.864196956 -0.117854200
v -0.001866146 0.770706296 0.059245069
v -0.001257141 0.815549195 0.059972227
v 0.103944421 0.651922405 0.067684442
v 0.020189617 0.861151218 0.063578025
v -0.000938010 0.860935807 0.063288517
v 0.106332622 0.918183506 0.062217068
v 0.065548003 0.656076193 0.054965813
v 0.105747662 0.937478900 0.066254631
v 0.201130986 0.656380475 0.007216913
v 0.104397774 0.804747581 0.078137606
v 0.035840463 0.926781058 -0.138149172
v 0.043664496 0.656694531 0.049788196
v 0.068235956 0.890482128 -0.148950279
v 0.019999115 0.659599900 0.046288464
v 0.035819843 0.676304638 0.051404547
v 0.043281529 0.835226893 -0.130680159
v 0.014745121 0.844357967 0.061820131
v 0.016960472 0.717968941 0.055350136
v -0.002340659 0.711665273 0.053750940
v -0.001984143 0.755872548 0.058637291
v 0.200599864 0.649898410 -0.019960525
v -0.002079376 0.741087615 0.057489682
v 0.071734980 0.679644644 -0.084738508
v 0.088425204 0.791071773 -0.112800285
v 0.107977584 0.801867664 -0.115132153
v 0.156817868 0.801409841 0.067111030
v 0.098555654 0.769741952 0.074220732
v 0.163057312 0.778783500 0.068005264
v 0.096161261 0.673442006 -0.092751838
v 0.198008865 0.652076781 0.023675531
f 555 540 123
f 389 162 497
f 567 540 568
f 583 104 251
f 463 489 430
f 453 94 255
f 483 484 162
f 446 640 671
f 574 577 251
f 50 244 238
f 52 244 50
f 575 57 53
f 55 249 52
f 55 2 250
f 577 248 563
f 575 437 432
f 57 597 589
f 2 265 262
f 589 592 57
f 262 259 2
f 5 267 262
f 602 606 589
f 5 9 11
f 58 606 610
f 11 272 5
f 12 278 11
f 565 793 8
f 630 60 632
f 13 425 12
f 424 289 160
f 289 424 13
f 643 649 60
f 181 403 179
f 483 206 484
f 163 651 174
f 53 563 558
f 651 65 650
f 163 389 384
f 683 66 65
f 455 558 563
f 165 384 171
f 340 331 34
f 67 66 683
f 206 470 63
f 385 102 856
f 67 702 70
f 344 340 696
f 179 403 406
f 710 70 702
f 16 352 14
f 111 112 59
f 63 64 655
f 18 368 16
f 710 742 753
f 119 112 111
f 394 671 545
f 551 922 903
f 19 375 18
f 753 740 711
f 406 470 179
f 261 615 108
f 545 453 439
f 178 386 530
f 24 386 23
f 72 753 742
f 26 396 24
f 768 765 72
f 119 142 112
f 32 63 470
f 112 142 161
f 399 400 396
f 154 343 182
f 545 671 448
f 399 415 400
f 768 770 765
f 32 406 410
f 418 415 399
f 770 183 777
f 387 300 166
f 415 418 422
f 105 86 299
f 169 42 839
f 170 142 119
f 173 172 705
f 329 638 343
f 134 738 737
f 185 638 329
f 692 661 145
f 150 74 741
f 637 345 873
f 132 145 661
f 170 184 142
f 138 495 760
f 138 136 188
f 136 194 188
f 201 87 194
f 270 87 205
f 216 49 210
f 46 216 724
f 198 184 170
f 43 96 907
f 219 39 218
f 45 43 41
f 224 37 219
f 498 224 514
f 86 105 342
f 225 36 514
f 378 107 110
f 80 233 107
f 22 41 43
f 198 217 849
f 41 581 45
f 103 233 76
f 76 40 103
f 222 217 214
f 678 100 40
f 98 41 22
f 366 41 98
f 40 76 678
f 215 4 284
f 215 98 21
f 537 536 92
f 222 234 217
f 904 537 92
f 460 462 30
f 284 471 366
f 222 239 246
f 586 903 759
f 462 28 30
f 246 234 222
f 454 449 28
f 237 391 924
f 560 319 921
f 246 888 252
f 431 471 282
f 455 560 391
f 319 560 241
f 50 238 793
f 50 566 52
f 52 574 55
f 258 263 510
f 244 52 249
f 55 253 2
f 284 792 657
f 303 670 667
f 303 100 674
f 250 249 55
f 273 274 252
f 251 253 574
f 100 303 301
f 301 570 100
f 104 261 257
f 677 100 678
f 273 285 274
f 257 2 253
f 2 257 265
f 250 2 259
f 570 568 40
f 752 292 293
f 294 296 285
f 285 296 274
f 684 497 679
f 277 274 296
f 440 447 442
f 579 489 463
f 692 329 695
f 259 262 267
f 871 736 360
f 262 271 9
f 40 100 570
f 570 567 568
f 203 128 270
f 310 296 294
f 305 296 310
f 87 270 194
f 9 5 262
f 5 272 600
f 276 9 271
f 9 276 11
f 272 11 278
f 302 323 310
f 568 103 40
f 108 615 89
f 280 11 276
f 11 280 12
f 103 568 540
f 278 12 425
f 323 337 328
f 283 12 280
f 12 283 13
f 283 297 289
f 289 13 283
f 540 561 231
f 425 13 424
f 209 288 205
f 291 125 286
f 346 337 323
f 49 304 288
f 173 350 351
f 297 654 314
f 347 158 864
f 304 47 311
f 47 304 49
f 47 46 481
f 360 361 855
f 501 684 146
f 481 311 47
f 46 39 481
f 343 695 329
f 314 289 297
f 289 314 160
f 481 321 308
f 481 39 321
f 325 122 321
f 325 321 37
f 37 321 39
f 333 160 314
f 324 266 333
f 527 107 231
f 84 121 325
f 36 327 498
f 160 333 34
f 327 120 84
f 36 82 371
f 277 393 390
f 689 34 333
f 34 689 340
f 313 34 331
f 266 334 689
f 334 260 341
f 340 335 331
f 107 527 110
f 54 404 405
f 696 14 344
f 61 401 44
f 38 299 407
f 358 14 348
f 14 358 16
f 344 14 352
f 356 704 712
f 352 16 368
f 413 62 417
f 370 16 358
f 16 370 18
f 175 705 134
f 713 115 110
f 371 27 378
f 27 371 82
f 381 18 370
f 18 381 19
f 368 18 375
f 80 378 27
f 19 381 235
f 19 395 23
f 19 23 178
f 202 506 913
f 23 395 24
f 386 24 396
f 398 24 395
f 24 398 26
f 26 398 220
f 26 412 399
f 396 26 399
f 418 399 412
f 164 180 444
f 444 443 164
f 175 173 705
f 685 84 120
f 422 300 415
f 685 121 84
f 172 169 300
f 172 300 422
f 78 80 27
f 226 365 78
f 89 615 114
f 240 485 309
f 134 737 175
f 226 27 82
f 245 459 452
f 187 186 140
f 243 459 245
f 189 187 130
f 581 466 579
f 467 472 637
f 308 122 240
f 138 579 466
f 430 255 463
f 499 435 430
f 453 430 435
f 435 440 439
f 435 499 450
f 243 479 281
f 308 321 122
f 897 438 584
f 439 453 435
f 243 281 893
f 450 440 435
f 480 859 865
f 440 449 447
f 442 439 440
f 450 449 440
f 447 449 454
f 492 488 493
f 127 458 456
f 449 456 28
f 82 225 708
f 454 28 462
f 28 456 30
f 456 450 127
f 30 456 458
f 225 82 36
f 30 464 460
f 506 507 502
f 126 469 125
f 287 508 509
f 207 507 506
f 410 460 32
f 126 306 477
f 460 464 644
f 644 32 460
f 32 644 63
f 475 31 576
f 470 406 32
f 64 63 644
f 306 309 477
f 125 464 458
f 528 795 511
f 516 523 524
f 655 206 63
f 206 655 484
f 206 474 470
f 162 679 497
f 316 322 822
f 313 160 34
f 37 498 325
f 523 316 534
f 497 684 501
f 501 146 505
f 146 512 503
f 505 503 513
f 263 515 510
f 512 120 115
f 503 512 91
f 517 513 503
f 115 713 91
f 458 203 125
f 315 547 548
f 91 512 115
f 547 330 336
f 91 713 88
f 517 88 522
f 552 548 547
f 532 88 713
f 88 532 519
f 552 336 553
f 522 519 541
f 527 231 561
f 127 128 458
f 538 660 692
f 514 36 498
f 224 498 37
f 538 692 695
f 114 626 631
f 553 342 105
f 219 37 39
f 555 660 561
f 127 450 499
f 891 199 824
f 660 555 661
f 218 39 46
f 199 97 886
f 366 98 284
f 22 21 98
f 41 366 581
f 43 232 22
f 907 232 43
f 96 536 907
f 45 463 255
f 45 581 463
f 255 94 96
f 255 96 45
f 94 453 545
f 448 546 545
f 582 593 594
f 595 584 438
f 216 46 47
f 216 47 49
f 551 640 558
f 558 640 569
f 49 288 209
f 793 565 50
f 569 53 558
f 566 50 565
f 209 210 49
f 841 351 350
f 574 52 566
f 578 53 57
f 612 609 423
f 53 578 563
f 575 53 569
f 597 432 211
f 253 55 574
f 57 575 597
f 578 57 592
f 592 583 578
f 627 609 612
f 584 621 628
f 603 589 606
f 602 589 597
f 634 819 627
f 610 606 602
f 835 318 229
f 626 606 58
f 610 624 58
f 58 624 630
f 632 58 630
f 634 884 869
f 58 632 626
f 60 642 632
f 642 60 649
f 60 630 181
f 650 649 643
f 662 652 645
f 656 628 621
f 621 636 656
f 658 659 204
f 64 644 469
f 466 495 138
f 694 377 700
f 468 471 431
f 663 650 65
f 628 656 668
f 679 162 484
f 65 686 663
f 672 673 659
f 686 65 66
f 683 65 651
f 468 431 478
f 683 693 67
f 685 146 684
f 146 685 512
f 696 340 689
f 66 67 701
f 473 495 478
f 66 698 686
f 702 67 693
f 668 675 687
f 701 698 66
f 405 690 54
f 701 67 70
f 54 690 564
f 14 696 348
f 711 70 710
f 699 70 711
f 702 709 710
f 229 318 236
f 657 282 471
f 710 709 742
f 753 756 740
f 756 753 72
f 742 754 72
f 72 754 768
f 72 765 756
f 766 765 770
f 490 193 496
f 130 772 496
f 770 776 766
f 15 719 168
f 87 201 148
f 183 770 768
f 201 194 136
f 422 705 172
f 633 777 338
f 777 633 150
f 408 74 633
f 638 185 408
f 106 730 258
f 688 379 694
f 275 631 118
f 185 692 145
f 197 750 749
f 736 737 738
f 263 258 730
f 738 741 743
f 185 145 143
f 743 741 744
f 744 741 74
f 744 467 879
f 132 140 145
f 123 132 661
f 741 738 150
f 123 540 567
f 773 772 567
f 738 134 150
f 78 27 226
f 238 623 1
f 264 279 779
f 776 150 134
f 134 705 420
f 695 541 538
f 104 599 261
f 365 681 680
f 761 762 763
f 365 678 76
f 76 78 365
f 411 156 420
f 156 411 220
f 541 519 538
f 220 764 156
f 76 233 78
f 80 78 233
f 168 789 387
f 70 699 701
f 398 395 228
f 434 437 445
f 779 780 887
f 428 432 434
f 926 317 706
f 197 749 745
f 213 6 4
f 279 785 780
f 419 427 428
f 148 201 745
f 454 462 419
f 526 782 783
f 381 734 235
f 410 414 419
f 493 769 913
f 511 4 215
f 4 511 213
f 406 414 410
f 208 731 729
f 21 511 215
f 210 728 727
f 794 800 823
f 511 21 529
f 470 474 179
f 724 218 46
f 227 110 115
f 118 280 275
f 219 218 722
f 806 800 794
f 803 804 256
f 716 778 225
f 224 219 720
f 407 86 690
f 356 734 381
f 389 497 380
f 809 795 528
f 810 806 811
f 717 716 514
f 497 501 380
f 317 697 429
f 810 818 821
f 913 771 202
f 341 698 699
f 373 376 159
f 369 177 373
f 341 260 698
f 260 334 266
f 365 226 681
f 517 522 354
f 828 821 818
f 354 362 364
f 569 640 446
f 519 522 88
f 767 828 818
f 266 324 676
f 602 597 211
f 804 834 256
f 121 240 122
f 345 868 918
f 610 602 211
f 169 839 166
f 427 195 211
f 643 179 174
f 683 651 165
f 693 683 171
f 627 884 634
f 324 654 676
f 846 397 841
f 841 397 374
f 362 709 369
f 580 397 846
f 192 188 190
f 192 499 489
f 128 192 190
f 270 205 203
f 205 288 286
f 291 306 126
f 208 148 733
f 288 304 291
f 304 311 306
f 311 481 308
f 286 125 203
f 283 118 297
f 589 599 592
f 283 280 118
f 227 115 120
f 747 805 732
f 707 226 82
f 107 378 80
f 275 114 631
f 118 646 297
f 89 114 275
f 231 233 103
f 87 209 205
f 816 872 870
f 271 108 89
f 248 560 455
f 248 241 560
f 108 271 265
f 566 565 241
f 86 876 690
f 622 244 619
f 517 91 88
f 574 566 248
f 715 662 889
f 244 249 618
f 249 250 614
f 882 465 718
f 253 251 257
f 774 465 882
f 250 259 608
f 883 494 774
f 921 391 560
f 259 267 604
f 54 564 847
f 251 577 583
f 600 267 5
f 89 276 271
f 503 91 517
f 690 405 407
f 275 276 89
f 892 573 582
f 272 278 596
f 248 577 574
f 280 276 275
f 425 588 591
f 425 424 781
f 781 313 572
f 424 313 781
f 572 585 781
f 314 654 324
f 136 197 201
f 313 557 572
f 237 551 558
f 554 331 335
f 334 341 348
f 760 136 138
f 335 344 549
f 341 699 704
f 348 696 334
f 921 319 7
f 358 348 704
f 344 352 544
f 912 582 594
f 903 586 551
f 352 368 543
f 381 370 356
f 368 375 539
f 788 8 3
f 535 375 178
f 221 795 809
f 828 767 562
f 559 833 920
f 921 920 899
f 546 448 898
f 903 922 836
f 38 903 299
f 235 228 395
f 405 669 407
f 546 92 94
f 400 518 520
f 92 546 904
f 639 35 926
f 386 396 525
f 927 926 33
f 928 605 930
f 200 490 298
f 94 545 546
f 96 92 536
f 927 56 852
f 143 472 408
f 220 412 26
f 400 520 521
f 412 220 411
f 109 113 152
f 920 832 559
f 418 412 411
f 152 113 746
f 387 789 786
f 420 418 411
f 746 161 867
f 418 420 422
f 490 773 298
f 496 772 773
f 394 442 445
f 562 767 832
f 739 636 820
f 204 725 658
f 773 490 496
f 725 223 635
f 447 454 428
f 472 186 637
f 215 284 98
f 189 130 496
f 458 464 30
f 410 462 460
f 125 469 464
f 635 247 487
f 487 269 629
f 641 487 629
f 268 269 487
f 269 393 629
f 390 269 268
f 469 126 64
f 349 761 763
f 655 64 477
f 303 674 670
f 290 393 277
f 611 290 928
f 163 474 483
f 928 307 605
f 635 641 648
f 531 605 533
f 677 674 100
f 477 309 485
f 506 202 207
f 679 485 240
f 240 121 684
f 312 912 594
f 684 679 240
f 121 685 684
f 186 187 345
f 503 505 146
f 912 332 892
f 772 130 132
f 685 120 512
f 501 505 159
f 725 648 658
f 505 513 373
f 513 517 364
f 892 847 564
f 110 527 713
f 714 847 339
f 522 541 154
f 51 714 346
f 231 103 540
f 714 51 404
f 541 695 343
f 567 772 123
f 502 500 506
f 578 577 563
f 867 659 673
f 577 578 583
f 597 575 432
f 592 104 583
f 913 492 493
f 845 167 839
f 599 104 592
f 386 178 23
f 599 603 615
f 110 227 378
f 615 261 599
f 706 402 639
f 603 626 114
f 132 123 772
f 624 610 195
f 409 706 317
f 746 673 682
f 114 615 603
f 120 327 227
f 624 414 403
f 691 429 697
f 642 631 632
f 642 118 631
f 429 433 853
f 646 118 642
f 642 649 646
f 152 682 691
f 682 433 691
f 181 643 60
f 654 297 646
f 122 325 121
f 140 130 187
f 421 416 617
f 123 661 555
f 309 308 240
f 698 260 686
f 702 693 177
f 698 701 699
f 672 441 436
f 291 126 125
f 109 691 697
f 143 140 186
f 874 872 816
f 665 441 672
f 188 192 489
f 665 658 653
f 712 704 699
f 653 451 665
f 927 697 317
f 712 740 734
f 648 461 653
f 178 375 19
f 923 880 116
f 641 461 648
f 740 756 748
f 748 758 228
f 926 706 639
f 479 641 482
f 754 742 362
f 354 754 362
f 407 669 38
f 203 458 128
f 482 629 620
f 756 765 758
f 182 754 154
f 128 127 192
f 254 246 252
f 611 382 620
f 764 398 228
f 499 192 127
f 764 766 156
f 766 776 156
f 930 611 928
f 420 156 776
f 140 132 130
f 788 7 8
f 387 166 168
f 420 776 134
f 136 760 197
f 300 387 415
f 750 197 760
f 745 201 197
f 148 208 209
f 733 148 745
f 258 35 106
f 593 533 605
f 731 208 733
f 236 318 910
f 729 210 208
f 728 210 729
f 727 216 210
f 188 489 579
f 929 573 556
f 724 216 727
f 573 929 582
f 723 218 724
f 722 218 723
f 720 219 722
f 717 224 720
f 514 224 717
f 188 579 138
f 876 556 573
f 707 681 226
f 898 904 546
f 472 143 186
f 212 795 221
f 899 391 921
f 854 925 931
f 213 795 212
f 140 143 145
f 404 54 714
f 833 922 924
f 415 387 786
f 143 408 185
f 238 3 793
f 1 3 238
f 31 799 752
f 622 238 244
f 918 799 515
f 380 376 171
f 915 752 357
f 617 476 421
f 619 244 618
f 618 249 616
f 616 249 614
f 636 739 613
f 388 613 10
f 614 250 608
f 357 791 915
f 383 688 388
f 608 259 607
f 571 438 576
f 295 667 666
f 92 96 94
f 607 259 604
f 372 726 700
f 667 295 303
f 367 726 372
f 604 267 601
f 298 295 207
f 923 875 880
f 363 732 367
f 408 467 74
f 148 209 87
f 298 301 295
f 359 747 363
f 601 267 600
f 359 355 755
f 600 272 598
f 598 272 596
f 353 755 355
f 301 298 773
f 596 278 591
f 747 755 751
f 591 278 425
f 588 425 781
f 388 688 813
f 769 771 913
f 763 353 349
f 202 771 200
f 506 500 913
f 74 467 744
f 773 570 301
f 82 708 707
f 320 647 326
f 500 492 913
f 331 554 557
f 242 910 320
f 344 335 340
f 910 908 647
f 554 335 550
f 239 222 703
f 549 550 335
f 549 344 544
f 166 167 168
f 544 352 543
f 543 368 542
f 17 15 167
f 17 845 157
f 907 536 919
f 157 850 155
f 155 850 153
f 542 368 539
f 150 633 74
f 153 854 151
f 151 854 149
f 149 858 147
f 147 862 144
f 539 375 535
f 759 903 38
f 530 535 178
f 144 862 141
f 141 866 139
f 139 866 137
f 530 386 525
f 137 870 135
f 525 396 521
f 135 870 872
f 133 872 131
f 131 874 129
f 129 923 117
f 923 874 875
f 170 119 902
f 521 396 400
f 20 932 101
f 99 101 932
f 99 886 97
f 95 97 199
f 95 891 93
f 93 896 90
f 518 400 786
f 90 896 85
f 85 901 83
f 83 905 81
f 169 166 300
f 81 905 79
f 77 79 796
f 77 909 75
f 439 394 545
f 75 914 73
f 73 914 71
f 71 916 69
f 442 394 439
f 468 466 366
f 442 447 434
f 7 562 920
f 794 534 811
f 924 899 833
f 434 447 428
f 428 454 419
f 419 462 410
f 38 898 759
f 902 111 897
f 466 468 495
f 526 524 534
f 25 59 56
f 96 43 45
f 895 401 61
f 182 343 338
f 483 389 163
f 483 162 389
f 897 59 25
f 883 894 775
f 776 777 150
f 59 897 111
f 380 384 389
f 774 882 893
f 111 902 119
f 778 708 225
f 501 159 380
f 167 166 839
f 159 505 373
f 176 191 867
f 373 513 369
f 364 369 513
f 850 890 925
f 354 364 517
f 354 522 154
f 177 369 709
f 154 541 343
f 446 445 437
f 376 380 159
f 204 223 725
f 217 198 214
f 214 703 222
f 437 569 446
f 610 211 195
f 414 624 195
f 403 630 624
f 889 718 715
f 160 313 424
f 181 630 403
f 888 246 239
f 179 643 181
f 174 650 643
f 651 650 174
f 163 384 165
f 487 247 268
f 165 651 163
f 171 683 165
f 174 474 163
f 557 313 331
f 475 515 799
f 376 693 171
f 285 273 757
f 177 693 376
f 627 885 884
f 174 179 474
f 509 508 516
f 294 302 310
f 709 702 177
f 709 362 742
f 154 754 354
f 182 338 183
f 780 785 803
f 183 768 182
f 423 413 881
f 183 338 777
f 638 338 343
f 633 638 408
f 590 401 895
f 692 185 329
f 190 188 194
f 515 475 25
f 270 190 194
f 190 270 128
f 195 427 414
f 7 788 562
f 915 878 571
f 877 595 438
f 203 205 286
f 44 48 61
f 474 206 483
f 210 209 208
f 61 62 895
f 413 895 62
f 211 432 427
f 172 42 169
f 398 764 220
f 515 263 918
f 437 575 569
f 228 758 764
f 124 885 426
f 175 871 350
f 84 498 327
f 225 514 716
f 327 371 227
f 918 263 730
f 898 448 759
f 371 327 36
f 839 374 890
f 227 371 378
f 451 441 665
f 228 235 748
f 444 180 457
f 233 231 107
f 187 868 345
f 759 448 586
f 189 292 868
f 734 748 235
f 653 461 826
f 924 922 237
f 292 193 196
f 446 671 394
f 461 641 479
f 922 551 237
f 391 237 455
f 482 641 629
f 918 868 799
f 196 200 293
f 771 293 200
f 558 455 237
f 281 287 894
f 894 893 281
f 248 566 241
f 257 251 104
f 255 430 453
f 257 261 265
f 509 775 287
f 260 266 676
f 509 516 524
f 265 261 108
f 523 516 531
f 322 316 523
f 273 252 888
f 265 271 262
f 811 534 316
f 316 315 811
f 676 686 260
f 366 466 581
f 478 495 468
f 330 547 315
f 547 336 552
f 366 471 468
f 760 495 473
f 657 471 284
f 336 342 553
f 553 900 552
f 832 900 553
f 865 878 791
f 792 284 4
f 31 571 576
f 286 288 291
f 438 571 877
f 906 864 863
f 4 790 792
f 8 7 319
f 303 295 301
f 291 304 306
f 570 773 567
f 739 617 392
f 617 416 392
f 306 311 309
f 309 311 308
f 170 628 668
f 613 739 10
f 739 392 10
f 656 675 668
f 656 815 675
f 680 678 365
f 813 613 388
f 324 333 314
f 687 198 668
f 379 688 383
f 295 666 207
f 815 656 636
f 377 694 379
f 325 498 84
f 689 333 266
f 334 696 689
f 700 377 372
f 861 834 860
f 703 721 239
f 732 726 367
f 834 861 256
f 348 341 704
f 747 732 363
f 356 358 704
f 735 888 721
f 370 358 356
f 735 264 757
f 735 273 888
f 755 747 359
f 369 364 362
f 353 763 755
f 647 761 326
f 761 349 326
f 376 373 177
f 779 757 264
f 780 779 279
f 384 380 171
f 235 395 19
f 736 871 737
f 562 788 917
f 910 647 320
f 785 804 803
f 414 406 403
f 256 323 803
f 813 675 815
f 415 786 400
f 427 419 414
f 422 420 705
f 432 428 427
f 430 489 499
f 587 580 590
f 437 434 432
f 445 442 434
f 446 394 445
f 671 586 448
f 819 609 627
f 456 449 450
f 455 563 248
f 865 791 769
f 581 579 463
f 645 652 817
f 644 464 469
f 652 662 715
f 874 923 129
f 715 664 652
f 694 812 688
f 477 64 126
f 750 760 473
f 485 655 477
f 465 715 718
f 507 207 666
f 465 774 494
f 865 486 480
f 812 675 813
f 485 484 655
f 207 202 298
f 883 504 825
f 493 865 769
f 783 782 504
f 679 484 485
f 202 200 298
f 196 490 200
f 196 193 490
f 877 859 476
f 302 803 323
f 189 496 193
f 814 806 810
f 168 719 789
f 821 814 810
f 391 899 924
f 713 527 532
f 467 408 472
f 302 294 887
f 786 787 518
f 538 519 532
f 561 532 527
f 926 35 33
f 538 532 660
f 540 555 561
f 551 586 640
f 319 241 565
f 660 532 561
f 113 161 746
f 161 176 867
f 8 319 565
f 223 247 635
f 781 585 784
f 620 629 393
f 887 780 302
f 269 390 393
f 671 640 586
f 781 784 588
f 599 589 603
f 393 290 611
f 626 603 606
f 928 290 305
f 623 238 622
f 625 1 623
f 774 893 894
f 312 332 912
f 626 632 631
f 332 339 847
f 847 892 332
f 757 887 285
f 847 714 54
f 793 3 8
f 732 807 726
f 858 931 857
f 675 812 687
f 168 167 15
f 273 735 757
f 920 921 7
f 402 385 639
f 167 845 17
f 638 633 338
f 646 649 663
f 650 663 649
f 845 850 157
f 888 239 721
f 663 654 646
f 706 409 48
f 850 854 153
f 676 654 663
f 429 409 317
f 661 692 660
f 854 858 149
f 676 663 686
f 858 862 147
f 433 429 691
f 678 680 677
f 699 711 712
f 712 734 356
f 711 710 753
f 862 866 141
f 712 711 740
f 682 436 827
f 734 740 748
f 866 870 137
f 214 687 808
f 748 756 758
f 664 816 652
f 872 133 135
f 198 687 214
f 754 182 768
f 872 874 131
f 665 659 658
f 758 765 766
f 658 648 653
f 766 764 758
f 776 770 777
f 668 198 170
f 117 923 116
f 787 786 789
f 929 330 822
f 533 822 322
f 556 336 330
f 531 322 523
f 899 920 833
f 662 444 889
f 346 323 256
f 491 482 620
f 116 880 911
f 911 20 116
f 382 491 620
f 911 932 20
f 932 886 99
f 645 443 662
f 930 382 611
f 382 930 516
f 886 824 199
f 605 531 930
f 491 508 848
f 628 170 902
f 256 347 346
f 482 848 479
f 891 896 93
f 347 256 861
f 820 617 739
f 866 819 817
f 605 594 593
f 896 901 85
f 929 593 582
f 612 881 885
f 901 905 83
f 826 451 653
f 451 457 180
f 672 659 665
f 441 180 851
f 79 905 796
f 436 673 672
f 436 851 827
f 909 914 75
f 682 673 436
f 914 916 71
f 584 902 897
f 876 86 342
f 69 916 1
f 829 433 827
f 700 808 694
f 788 3 916
f 853 829 417
f 409 61 48
f 402 48 855
f 870 817 816
f 855 29 360
f 874 816 664
f 385 361 102
f 830 880 875
f 576 897 25
f 819 634 817
f 68 69 1
f 106 856 730
f 743 736 738
f 910 242 236
f 862 857 819
f 744 879 102
f 880 830 831
f 840 528 843
f 401 846 44
f 803 302 780
f 769 791 357
f 878 915 791
f 831 911 880
f 918 873 345
f 576 25 475
f 799 31 475
f 841 29 846
f 879 856 102
f 106 639 385
f 573 564 876
f 911 831 802
f 342 556 876
f 337 339 332
f 25 510 515
f 350 29 841
f 564 573 892
f 892 582 912
f 510 25 56
f 864 906 837
f 312 328 337
f 929 822 593
f 33 35 258
f 871 360 29
f 840 860 835
f 864 158 863
f 29 855 44
f 916 914 917
f 808 687 812
f 594 307 312
f 307 305 328
f 916 917 788
f 33 56 927
f 840 835 809
f 307 594 605
f 736 743 361
f 531 516 930
f 290 277 305
f 852 109 927
f 318 835 860
f 21 844 529
f 852 59 112
f 620 393 611
f 102 743 744
f 112 113 852
f 751 763 762
f 647 785 762
f 805 747 751
f 252 268 254
f 230 835 229
f 487 641 635
f 637 879 467
f 124 851 164
f 809 230 221
f 161 142 176
f 807 732 805
f 247 234 254
f 230 809 835
f 808 700 807
f 345 637 186
f 176 184 191
f 812 694 808
f 204 849 223
f 849 204 191
f 813 688 812
f 635 648 725
f 849 184 198
f 815 613 813
f 815 636 613
f 217 223 849
f 659 191 204
f 217 234 223
f 191 184 849
f 859 480 421
f 795 213 511
f 245 461 243
f 878 865 859
f 802 886 932
f 191 659 867
f 452 718 889
f 223 234 247
f 176 142 184
f 246 254 234
f 865 493 486
f 293 771 357
f 268 247 254
f 771 769 357
f 805 264 735
f 268 252 390
f 161 113 112
f 486 493 488
f 390 252 274
f 867 673 746
f 264 751 279
f 274 277 390
f 746 682 152
f 281 848 287
f 827 433 682
f 808 703 214
f 152 691 109
f 109 852 113
f 476 859 421
f 296 305 277
f 476 595 877
f 305 307 928
f 196 293 292
f 595 476 820
f 726 807 700
f 752 293 357
f 307 328 312
f 310 328 305
f 56 59 852
f 292 752 799
f 328 310 323
f 886 825 824
f 312 337 332
f 807 703 808
f 891 824 782
f 193 292 189
f 844 21 22
f 429 853 409
f 109 697 927
f 56 33 510
f 105 559 553
f 339 337 346
f 346 714 339
f 51 346 347
f 317 926 927
f 564 690 876
f 863 844 232
f 799 868 292
f 510 33 258
f 843 528 529
f 844 863 842
f 861 840 843
f 861 158 347
f 861 860 840
f 752 915 31
f 158 843 842
f 843 158 861
f 842 529 844
f 919 837 906
f 906 232 907
f 809 528 840
f 730 873 918
f 730 856 873
f 873 856 879
f 856 106 385
f 817 634 645
f 837 919 838
f 817 652 816
f 919 906 907
f 919 536 537
f 743 102 361
f 904 669 838
f 898 669 904
f 669 898 38
f 703 807 721
f 405 404 838
f 669 405 838
f 922 833 836
f 294 285 887
f 361 385 402
f 869 645 634
f 830 875 664
f 916 3 1
f 864 51 347
f 402 855 361
f 909 801 914
f 397 890 374
f 48 44 855
f 796 909 77
f 879 637 873
f 901 798 905
f 580 925 397
f 48 402 706
f 896 800 901
f 891 823 896
f 409 62 61
f 853 62 409
f 881 413 417
f 417 62 853
f 86 407 299
f 459 893 882
f 199 891 95
f 830 465 831
f 829 426 417
f 426 829 124
f 426 881 417
f 124 829 827
f 433 829 853
f 886 802 825
f 774 894 883
f 851 124 827
f 164 884 124
f 441 851 436
f 180 164 851
f 443 869 164
f 911 802 932
f 715 830 664
f 874 664 875
f 736 361 360
f 451 180 441
f 457 452 889
f 889 444 457
f 866 817 870
f 106 35 639
f 459 718 452
f 826 452 457
f 452 826 245
f 451 826 457
f 862 819 866
f 858 857 862
f 461 245 826
f 459 882 718
f 479 243 461
f 854 931 858
f 850 925 854
f 846 401 580
f 845 890 850
f 491 848 482
f 848 281 479
f 825 494 883
f 382 508 491
f 900 832 767
f 508 287 848
f 896 823 800
f 839 890 845
f 504 782 824
f 42 374 839
f 516 508 382
f 908 910 318
f 534 524 523
f 552 818 548
f 42 172 173
f 901 800 798
f 818 552 900
f 533 322 531
f 871 175 737
f 868 187 189
f 22 232 844
f 593 822 533
f 822 315 316
f 929 556 330
f 330 315 822
f 838 919 537
f 904 838 537
f 318 860 834
f 908 318 834
f 465 830 715
f 556 342 336
f 105 836 559
f 833 559 836
f 29 44 846
f 908 834 804
f 562 917 828
f 299 836 105
f 818 900 767
f 832 553 559
f 562 832 920
f 811 315 548
f 828 801 821
f 801 828 917
f 821 797 814
f 836 299 903
f 401 590 580
f 797 821 801
f 905 798 796
f 796 814 797
f 810 548 818
f 814 798 806
f 798 814 796
f 909 796 797
f 811 548 810
f 413 587 590
f 404 51 837
f 51 864 837
f 837 838 404
f 909 797 801
f 529 842 843
f 158 842 863
f 232 906 863
f 800 806 798
f 529 528 511
f 794 811 806
f 785 908 804
f 785 647 908
f 859 877 878
f 526 534 794
f 877 571 878
f 571 31 915
f 173 351 42
f 524 783 509
f 350 173 175
f 29 350 871
f 823 526 794
f 783 524 526
f 526 823 782
f 42 351 374
f 841 374 351
f 504 775 783
f 509 783 775
f 782 823 891
f 885 124 884
f 887 757 779
f 914 801 917
f 426 885 881
f 890 397 925
f 825 504 824
f 775 504 883
f 925 587 931
f 587 925 580
f 802 494 825
f 785 279 762
f 494 831 465
f 831 494 802
f 894 287 775
f 590 895 413
f 438 897 576
f 884 164 869
f 762 279 751
f 423 931 587
f 587 413 423
f 931 423 857
f 762 761 647
f 617 820 476
f 595 820 621
f 751 755 763
f 893 459 243
f 751 264 805
f 609 857 423
f 423 881 612
f 662 443 444
f 721 805 735
f 621 584 595
f 857 609 819
f 443 645 869
f 612 885 627
f 636 621 820
f 628 902 584
f 805 721 807
