v -0.002678580749909505 -0.39066069897476302 0.12679642623152493
v -0.20365091458323853 -0.36608646732574335 0.10278331046048997
v -0.0026900426928193931 -0.37005939563067963 0.12416042757921847
v -0.0016555799397649045 -0.07806125380521052 0.10210187481312546
v -0.27160774043982189 -0.3872085679276499 0.081577338196799604
v -0.0008558022483528395 -0.052924177839889064 0.10247028606016417
v -0.0027023468292038046 -0.33303962496466488 0.12040843045984545
v -0.0025993442470305878 -0.35124787467774565 0.12213101892026454
v -0.27170259755853488 -0.36478520118875368 0.079715674634883202
v 0.20065838458326207 -0.075023677535246303 -0.16759194518626869
v -0.28985727668011985 -0.3702042917682446 0.06032915577165944
v -0.30410361768589605 -0.36770628342377015 0.03792880735619461
v -0.31345458073049232 -0.36621758294226625 0.018201211141640923
v -0.28512305996314136 -0.36898695692255629 -0.10555724298590841
v 0.016321258032579253 -0.41589002641196227 -0.18917379156182351
v -0.26977921390504661 -0.37372505242772491 -0.12643655611712679
v 0.043353338085044699 -0.41588515537677223 -0.1800132722282892
v -0.25040454136667367 -0.37343510698967164 -0.14637769507655257
v -0.22312568697096696 -0.36778714970763643 -0.158157082583023
v 0.31691896983162715 -0.41611893049955556 0.0016996209010921026
v -0.0014465596549361997 -0.11450436293481095 0.10258499627159492
v -0.0012843505066127243 -0.13093564032201749 0.10301839209106484
v -0.19624640159967746 -0.37471351857190532 -0.16366079612953394
v -0.17035166962680667 -0.36829322919376678 -0.1692761943787279
v 0.1492260027876976 -0.18167648871369968 -0.21575449712400713
v -0.14251518375902 -0.35891519637811292 -0.17461890631351024
v -0.18950601602628758 -0.11454085624878524 -0.19528168297162515
v -0.2129895728315464 -0.18220316449311891 0.061399618560309371
v 0.068867864650950919 -0.30061329922774815 -0.19751562590798555
v -0.22724299680078139 -0.17352443172993903 0.04592114529764707
v 0.104953476116747 -0.15488403330280914 -0.22626720195329458
v -0.26562311437091407 -0.19804695866111816 0.016083272412207181
v 0.14282687796708532 -0.21681829219517973 -0.21188594552237311
v -0.31784503064766423 -0.37197469126103189 -0.043372012501885888
v 0.12091926162456093 -0.22735480778531345 -0.21373245752239894
v -0.217889574417303 -0.10882519464548754 -0.16047239601570712
v -0.24496182184320234 -0.10793004122097151 -0.11013917140818147
v 0.025608229347641249 -0.23389990594075738 0.10519594767870249
v -0.25173811375425875 -0.10115244771362496 -0.087273245150448542
v -0.11460606691923375 -0.11850828022852257 -0.22129656323689875
v -0.046197081003779582 -0.12590937849009257 0.091472999859179643
v 0.020089842480376211 -0.34769000601521366 -0.1964605262602358
v -0.029499035853230691 -0.14611289036022526 0.096513408324855832
v 0.10800888390268909 -0.29450618199101813 -0.19267334785890813
v -0.063715999315019867 -0.14388897591956071 0.088596570883448494
v -0.25189441739950919 -0.092882378875057722 -0.064641949310883184
v -0.25266039607183266 -0.10673053096001109 -0.045207139984328529
v 0.12342401820497451 -0.27386477444550394 -0.19674619861306927
v -0.24187763928457837 -0.10128064792436714 -0.022148268595302029
v -0.074984437537656892 -0.3682221302280973 0.1092612152631923
v 0.097744035307091151 -0.17128200770016661 0.085360937273674914
v -0.11678150919900152 -0.36772970923235271 0.10559267807850875
v -0.13614305802226467 -0.27153715616370355 0.098538671019509472
v 0.10107316681612943 -0.20840859008227081 0.090414092305424049
v -0.15704797583154342 -0.36870265067894381 0.10417174973703219
v 0.16367571167581807 -0.20298484450644683 -0.20869798057618524
v -0.1779221843477552 -0.27386878402320464 0.096155857869265976
v -0.26843146810625179 -0.26616003503325159 0.056769565347388418
v 0.18417282394388382 -0.18874419678231277 -0.20238386946102191
v -0.29600397743619261 -0.27024332861413186 0.018340359697069535
v 0.14363600737325935 -0.29020606097281154 -0.18814532831338529
v 0.17748544588386739 -0.29302974615191624 -0.18140993235489969
v -0.27351438769969177 -0.18913772240226284 -0.006524273714349077
v -0.26564291956252417 -0.17010422997005065 -0.010310021187336857
v -0.30866540143478227 -0.27326301796318553 -0.054847703665955871
v -0.29786647365599239 -0.28029219080978024 -0.081825245602474034
v -0.28420521825034473 -0.26879331770001569 -0.10499743686158776
v -0.0024634889875957307 -0.41665302746444516 0.12978356532837337
v 0.026224828640449088 -0.41625018086744731 0.12262081007095554
v -0.27165734088830606 -0.28168733166168269 -0.12602937512145976
v 0.054766431190419691 -0.41632760177034089 0.11591015894337964
v -0.20254027582167666 -0.2729188937646545 -0.17981825832820592
v 0.083358884344165898 -0.41635892836255906 0.11184098743980264
v -0.038679140866479764 -0.2475468487609013 -0.224293074039222
v 0.11164406173556925 -0.41631494860968521 0.10918358751525117
v -0.14084164979323616 -0.115442819225929 -0.2143178168672982
v 0.13929265486618458 -0.41631522264129306 0.10780810764880427
v -0.16520218268116046 -0.11310619249941703 -0.20620654366517596
v 0.16591233745079845 -0.41630558147602137 0.10697177711544126
v -0.17777175697242631 -0.12731553199348125 -0.20281556090989677
v 0.19118331840090924 -0.41628561947327569 0.10587465151605036
v -0.19801767973615167 -0.098905887233726772 -0.18408193380322008
v 0.21558309720898136 -0.41625452557591264 0.1043731683215105
v -0.24239778833870754 -0.1397661472353528 -0.13437784604782177
v 0.2383428616284522 -0.41624735687629483 0.10175936826541569
v 0.080686569969668248 -0.24698128489656943 0.098678398491317126
v -0.20817953070689291 -0.099267299905069259 0.030971428041480287
v -0.19725361688450904 -0.19213839301363028 -0.19676665275143546
v -0.26928754825272966 -0.32809056345930299 0.07797430062393379
v 0.25766539137360944 -0.41626786683881306 0.095122974066804145
v -0.2206228501204788 -0.18321368490175244 -0.18044313660603964
v -0.02898914325419041 -0.1860489979550822 0.099702914063660969
v 0.27210166716180922 -0.4162039884282222 0.080124964743269481
v -0.062819002656502504 -0.18266760152551897 0.09239759916385909
v 0.28525551035015595 -0.41620006167069573 0.065499708328701486
v -0.040036546091994488 -0.16579669772964117 0.095408521056619566
v 0.29579362213094096 -0.41618649622872428 0.050186555410983116
v -0.02947921163809402 -0.10805922875884878 0.094865494192816618
v 0.30447701144916678 -0.41617123661037236 0.034442992421965295
v -0.094833127803324452 -0.10358029754421233 -0.22386463655611832
v 0.31136252093207639 -0.41614950303977727 0.018264290752035381
v 0.040591646414687266 -0.24489100248155959 -0.22197192673224619
v -0.13280977091044846 -0.13387882741783513 -0.21879388134558111
v -0.19814532448020211 -0.31519015330988026 0.099975567789266029
v 0.070273521661314495 -0.26659559924299214 0.10221236660092312
v 0.092480693216702631 -0.22798716274588715 -0.21888549071776703
v -0.17656791630056307 -0.14363094055742578 -0.20506066146162572
v -0.24888892242026481 -0.33169542521430856 0.093135370804963147
v 0.20481373426184316 -0.22778411434270113 -0.18848187341053552
v -0.19899357034881979 -0.1532989219308066 -0.19473903589399366
v 0.20387965284786463 -0.17777395255017889 -0.19214076533793897
v 0.21746704111085094 -0.19552635218908337 -0.18251415154581782
v 0.22261678770625287 -0.21570005280879304 -0.17809280843856032
v -0.27143193878253224 -0.30727506958009598 0.07010467388130584
v -0.21908078019564442 -0.16289934721367999 -0.17774519533131408
v 0.32187705729574623 -0.41612373354878252 -0.015135506600692348
v 0.32029994969779563 -0.41614227975050183 -0.031648476927422189
v -0.30296478321831172 -0.31977203832061579 0.029387245735891084
v 0.22281395663824427 -0.17752538942321394 -0.17345289685677401
v -0.23281834197354528 -0.15175818230042937 -0.15547975075867376
v -0.25732111999445856 -0.15078705023232822 -0.11101747296592669
v -0.26066098736731991 -0.13782969159287828 -0.094106081153907437
v -0.091750128215406665 -0.16500806555704739 -0.23021421907328071
v 0.25463785031066416 -0.29904189709760842 -0.14520884680191376
v -0.23950969638118114 -0.14734755748756412 0.015257844455784819
v -0.2568581090468221 -0.1516346837607071 -0.01031028965164138
v -0.18647279480306533 -0.15208793260209535 0.06181520184233813
v -0.20048774635104044 -0.13611180262392014 0.05155338416543534
v 0.31247386945945654 -0.41607566185530492 -0.047793676458691335
v -0.036316665705616757 -0.17615092225949991 -0.24056020728859789
v 0.30402475216810615 -0.41606574472471775 -0.064228038592848424
v -0.067436528016294087 -0.17892711239352305 -0.23448288426598685
v 0.29414724394909825 -0.41605848771907034 -0.080496282769719124
v -0.048217904151322419 -0.29386948066681934 -0.20653960020922105
v 0.28331637404713289 -0.41603951935239125 -0.096637829516770746
v -0.16489943668099766 -0.093217747215532179 0.05866248431553861
v 0.27094024970706759 -0.41601394971105005 -0.11257347865064088
v -0.13559292167802253 -0.098640455327398902 0.068259113989853737
v 0.25723024157762536 -0.41598782271056339 -0.12832578108658454
v -0.038854871828820199 -0.19275486819873131 -0.23866278468254173
v 0.24274554665888115 -0.4160731009426562 -0.14444761836480519
v 0.23804810475031954 -0.18781047630367656 -0.15571014405996952
v -0.042309780633109827 -0.20958158392345599 -0.23502911066406568
v 0.22326209341576386 -0.41601816052611973 -0.15265913077314885
v -0.07290588962372832 -0.1962991113846303 -0.2318842369391701
v -0.25308807587616106 -0.18260953967544341 -0.13413249421086729
v 0.20057272796280062 -0.41596118791543391 -0.15720920996906956
v -0.20733402365788628 -0.080182112879077477 0.023526629547210076
v 0.17627132803567028 -0.41595090392260037 -0.1608380443252396
v -0.055520291264084976 -0.26873801367858136 -0.21315622873445
v 0.15087205278090646 -0.41594833766181549 -0.16383776273147355
v 0.22764518720471491 -0.23373813989181164 -0.17324289643763083
v 0.12474948044833795 -0.41593263453821133 -0.16673361712881068
v -0.17577394506824123 -0.23047433530084849 -0.19883802351431978
v 0.097998311940161023 -0.41592593116298032 -0.1700913224969135
v -0.11908713804956851 -0.31190763909511271 -0.18751188297509924
v 0.070799809913109343 -0.41590593354804906 -0.17425434869185027
v 0.080142156372630585 -0.13688253143735785 0.084715060109707613
v -0.26719858734310792 -0.21248953412770544 -0.11985720260181529
v -0.32352251890136619 -0.36358039547607734 -0.020370032452532608
v 0.23815442672445128 -0.20732027249703333 -0.15910764006549388
v -0.28654625658472577 -0.19325676455135801 -0.066819759323694272
v -0.30043198771397683 -0.22665327884006314 -0.049907260281520274
v 0.27581979076083868 -0.30630810854873974 -0.11971704062468562
v -0.29724835803299376 -0.24013125078835637 -0.06938844623147436
v -0.0098716347498079109 -0.37840287913719373 -0.20064213994483307
v 0.023884692914994787 -0.39312036593093075 -0.18849053900985707
v -0.010226764722118916 -0.39700158261090246 -0.19966150999167454
v -0.009522564740826113 -0.36034945861494128 -0.20274479192503553
v 0.23686343091167408 -0.16546041060956862 -0.15167525657697783
v -0.2865107932685102 -0.23643670317746024 -0.092058151319954817
v -0.0092906489773797191 -0.34253341405619392 -0.20535513262337649
v -0.0090780239235251185 -0.32518501388237109 -0.20886346840344477
v -0.30336244295121967 -0.24106723452818662 -0.024929607805721031
v -0.0088672997102726865 -0.30844216435333793 -0.21283441880477
v 0.25091662666525272 -0.20030112624665103 -0.13976150213556127
v -0.26351838927056398 -0.24121798381608539 -0.13301659496153825
v -0.20905643844353863 -0.39347497967478251 -0.15830068576479506
v -0.29112088038408479 -0.2318278363966797 0.0017464517696974408
v 0.28555175812289524 -0.28894575276041079 -0.10388927306336278
v -0.29024650803263058 -0.25032740436202816 0.016431546811743691
v -0.15647766686802522 -0.24566303536361961 -0.19992067627432281
v -0.13565791673754291 -0.25934381329606709 -0.2000868671325165
v 0.25368267498920044 -0.18285859470330165 -0.13040712960328879
v -0.077345931955814948 -0.2138099920795507 -0.22735927584205265
v -0.0051822591820727733 -0.2043377577695262 -0.24415078338122609
v -0.0043018090127552927 -0.19021370776355256 -0.24658485858960605
v -0.15523970408422338 -0.11603816344344167 0.064799851770726946
v -0.0036429601969014728 -0.17593535513105812 -0.24803831873658491
v -0.1838862872273839 -0.12200517153006925 0.055913709873652573
v 0.26534082298578437 -0.20514608458301942 -0.11811421893798971
v -0.16800798970138375 -0.13637135890849897 0.064100515990995949
v -0.0030662271742914939 -0.16125388677806168 -0.24867206535869041
v -0.18723664833000955 -0.10422331725206922 0.050946554734360244
v -0.24564934940438998 -0.23826032100578431 0.066166259719646903
v -0.0027020208690345373 -0.14630056437497674 -0.24878271469170216
v -0.17219607602595619 -0.074096872544518286 0.05295938096470007
v 0.25609960648101887 -0.16127566237839844 -0.11748007553505591
v 0.29192744127970649 -0.39375776573080312 0.055164364591345522
v -0.002750306965421224 -0.13120073411950486 -0.24852257957883855
v -0.19145711969294987 -0.084973406705916923 0.04348011840379723
v -0.0029584755382471512 -0.11567472817109302 -0.24829236200074717
v -0.22094236109857346 -0.13362358242088604 0.030996036896244333
v 0.27930458149021314 -0.21155523461259987 -0.094298780469357107
v -0.22254151800359301 -0.1143428508893501 0.019211377404221158
v -0.28552794482815602 -0.19782482038419305 -0.025623358183418592
v -0.0027674104852733411 -0.099748596867549139 -0.2482869248751369
v -0.21939332547177712 -0.076657755172914996 0.0029352453335508705
v -0.2259245430800936 -0.096221003291944954 0.004431615300866748
v -0.23340875050020649 -0.081837425001039299 -0.019741782966385138
v -0.22328835286054141 -0.2441775405161461 0.081156778469746504
v 0.044711807549395605 -0.0537715387503023 0.089080814611664394
v 0.021872996466193385 -0.053301882847954285 0.095752627620390884
v 0.26299045325984638 -0.14525527341177352 -0.092335905558696696
v -0.0016674084248291796 -0.097131143986850563 0.10233222641089448
v -0.24446282203416619 -0.086880440567231099 -0.04312013881420329
v 0.27212033274863018 -0.17017195263154375 -0.087303657618963679
v -0.24702646250059401 -0.083254449894340776 -0.083794280899204571
v -0.24119932373316133 -0.088119367656522285 -0.10393154642245531
v -0.13673250573604778 -0.3344640598825383 -0.17973441943265861
v 0.067291186964019756 -0.054577415955925579 0.082771980845226995
v 0.27339282203831644 -0.1554783199813346 -0.068085064464294728
v 0.28445500274660895 -0.19607995578101539 -0.074141211204690916
v -0.23303224185546437 -0.091965910008932256 -0.12450698030662011
v -0.20840719213018349 -0.089957577011778173 -0.16570897604784968
v -0.17464448101711461 -0.096890635589856097 -0.20037962553962946
v -0.21607572196399621 -0.14242906050491824 -0.17607298157131954
v -0.1890131872860481 -0.32985122447405096 -0.17160754024070396
v 0.11211587245759748 -0.056048814055634222 0.07094577928719692
v 0.089839175649736203 -0.05530674504523389 0.076811485393775941
v -0.15094252199272032 -0.14867775031822941 -0.21494964119133883
v -0.0010342240921278711 -0.14666681302311133 0.10371342013936993
v -0.15691188294583047 -0.13072377252487885 -0.21118784652018491
v 0.28155937186765301 -0.17696302648673645 -0.060241035146509594
v -0.21795459076337995 -0.34078519429905207 -0.16324018273091623
v 0.1337556541196244 -0.056730964320231725 0.064544382750578444
v -0.043493451440009781 -0.2772055122900694 0.10827120941648086
v -0.045022830145715835 -0.38982524238876554 0.11535718069150835
v 0.268884438892808 -0.14547346093986271 -0.048950010635620947
v -0.27078637768240194 -0.15517240248409825 -0.081241672598024714
v -0.06797338734895926 -0.33020019318621402 0.10841499746140579
v 0.15466553246640605 -0.057425319947044057 0.058011773048582488
v 0.31141970567250754 -0.28423011118160779 -0.022087899814117334
v -0.092293382568606905 -0.39268972499804555 0.10860931345770747
v 0.31173031410007623 -0.28448848964116569 -0.044074832290162527
v 0.27467378549993798 -0.16358200616970958 -0.042145545863594994
v 0.28895927464908544 -0.19720224579359547 -0.04436400622247598
v -0.09894773407307042 -0.31649122553021003 0.10471006344075887
v -0.13901656519134792 -0.39279976554395457 0.10572077292080886
v -0.18111434168679616 -0.39076327265495198 0.10450859177300079
v -0.16865811235597081 -0.32691998271276917 0.10221270451689932
v 0.27006561936603946 -0.17414949619778305 -0.01516819852285127
v -0.17356931463910857 -0.34837769678829927 0.10297413752853757
v 0.28047140820541561 -0.18136458992545412 -0.035924943690026384
v -0.080075878319799829 -0.16181728753063854 0.086809996932657257
v 0.14949287218414217 -0.13998329061871534 0.070585200589003722
v -0.20144536953153544 -0.3383847237032549 0.1013505754267188
v 0.11131237322946369 -0.21362279122537922 -0.21995701634810511
v -0.21939303937026952 -0.39229595174282289 0.10317577693958577
v -0.30537223416643056 -0.3173836592602578 -0.071193286063581315
v -0.22549258383572637 -0.32404211914510511 0.097918395237562683
v -0.24599276606335724 -0.37132676821672872 0.097936478198996493
v 0.098098222416354505 -0.20053324153711088 -0.2254714168986823
v 0.23726365944874644 -0.12060458368017024 0.0012695007745512216
v -0.23111187609907069 -0.34779182214374721 0.098903177592127772
v -0.31255381214803696 -0.33431243370410185 -0.056113665888822627
v -0.2524289844911809 -0.39594137721814027 0.097264471742306541
v 0.28165400593435908 -0.19551084092985643 -0.01951800604151975
v 0.28236241364474279 -0.21047349789475914 -0.0041177192694622639
v -0.20572606677887467 -0.11789297617780355 0.040684203245628464
v -0.25981826348581305 -0.34859030460572998 0.088403980769621512
v -0.2869163309054012 -0.39584481862803594 0.065553596628154603
v 0.25621000824977946 -0.15697477501802595 -0.0033889120342427415
v 0.25819513231745644 -0.17694850304147225 0.010536830736373459
v -0.28695212943282428 -0.32440052108069356 0.056160838544875899
v -0.28144933686977486 -0.34643283184098661 0.067565584111533739
v 0.2579257971885322 -0.19604805051310714 0.025989387258717175
v -0.3002339487886701 -0.39140370319966383 0.046897146754251447
v 0.21874726474646916 -0.1129406661691357 0.024380918299793122
v -0.29704766877921346 -0.3451467532706658 0.046107336133777724
v 0.30633982474015542 -0.28955646913625799 0.0016296337231979929
v -0.070208152901701473 -0.055319495406230323 0.082173263653265355
v -0.30915311988739974 -0.34512896049102743 0.023804911993882266
v -0.034272970090058842 -0.083087354764820473 0.092787610460098563
v 0.24412675243686788 -0.16053660174985115 0.019196678070059911
v -0.23427040333043597 -0.12903647913915312 0.010841222424300717
v 0.29752821120950745 -0.29539725101996722 0.02565479417674156
v -0.23796987673064118 -0.11510963337610686 -0.0039940024992916046
v -0.31857382672303175 -0.35243972167728777 0.0018816132281623751
v 0.25704097193023112 -0.21319986718107298 0.038943808309992847
v -0.24766288335767261 -0.13374181189504464 -0.0079643461756818412
v 0.032773298945118101 -0.16165834657257483 -0.24091264835081944
v 0.033548873142025669 -0.1417227352818376 -0.240259152782591
v 0.22965540343790614 -0.16192622574646715 0.038547214946133168
v -0.038525339942651809 -0.10067723336473401 -0.23729913118822613
v 0.24255365226620421 -0.17885471936089362 0.033962168261325781
v -0.31492452935404974 -0.32880272203416266 0.0043234698141088046
v -0.031692304400349806 -0.12118315403982158 -0.24056487698662193
v 0.044487088502701229 -0.24956120825370076 0.10353996205324159
v -0.038011899567801995 -0.36255133082705376 -0.19408281481853223
v -0.061903396843634162 -0.11533192428831637 -0.23261188261607718
v 0.21042844609575057 -0.15078784481995575 0.051803741307198142
v -0.067445343789978338 -0.096671689365887062 -0.22925897950609925
v -0.25107173524055937 -0.12040826547743734 -0.026306241866065984
v 0.23733836452918505 -0.19692199359078477 0.05139483120011748
v -0.26028583852674397 -0.1394087713591507 -0.029745146165251493
v 0.22282500453489357 -0.21153061874754697 0.070009806621154302
v -0.26564599289463775 -0.13265962798418626 -0.072266042209170697
v -0.27027386518005109 -0.14601606966348735 -0.053031627138408456
v 0.21959821806038027 -0.17283881306044901 0.054581588577610612
v -0.26141533692170399 -0.12622830904759211 -0.048851452987395211
v 0.19336082663955895 -0.20436382293359334 0.075861860060162073
v -0.32331345549913026 -0.38923703993069547 -0.024560365057950638
v -0.32176836714182583 -0.34018529803243247 -0.016916017237460626
v 0.18965978993302934 -0.29426775536366306 0.098894752469576797
v 0.22188127070301317 -0.29505425226611609 0.094686433271265275
v 0.16700942135317917 -0.24901495081682273 -0.19595072937632238
v 0.13479406065600819 -0.082846223909960659 0.067061678346733267
v -0.033528401862855918 -0.33069243839659784 0.1137941270679588
v 0.17421408943448338 -0.058164179569125229 0.05066215290968637
v -0.25630094896616867 -0.11986161075537791 -0.091248799714778075
v 0.22990632813206072 -0.27567790091124744 0.088332365943191105
v 0.18353266475977331 -0.16179023848117924 0.066753084165107668
v -0.31985427758153828 -0.33042279480112341 -0.035793230827975808
v -0.24951613639572939 -0.12840850026713463 -0.11395313027323285
v 0.1891029078874896 -0.059230165904477577 0.038171962198405879
v -0.22665782569474313 -0.12988549693962609 -0.15628216412531085
v 0.20746692185638177 -0.18823679781336086 0.067338123388194004
v -0.10865954911613689 -0.21706842931040035 -0.22037580943381282
v 0.16730174399644479 -0.27404592143747408 0.09758176565419624
v -0.31452528268796115 -0.39381102097283249 -0.049282823663887296
v 0.16347695940729035 -0.20355527833534026 0.080811598997347384
v -0.31942306436627793 -0.35006783784252637 -0.039398144047272717
v -0.30193395092931508 -0.33933183026415104 -0.078606363866542489
v -0.30428223089249445 -0.398058888469356 -0.070277787296170846
v 0.1326270405635333 -0.2785599943734034 0.099862387289298749
v 0.17408059201193812 -0.18425217941910915 0.074240716712891647
v -0.11513354034928694 -0.24532262900260141 -0.20948576435692423
v 0.14570558965921215 -0.18942721162640019 0.080483470873467078
v -0.30739620164282039 -0.37754292244380272 -0.066335293588374589
v -0.29206701867739671 -0.32245147425983062 -0.096461447584019117
v 0.1060011666746481 -0.26346886836376127 0.098909999718972436
v -0.1363144911511513 -0.22892264031308773 -0.21054475326663202
v -0.29358930516792059 -0.38849655100328839 -0.090651606964440135
v 0.027760152577014155 -0.19850743396862799 -0.23821059825893387
v 0.14129925555193157 -0.16716406103145637 0.077006690844304809
v 0.11143018159612178 -0.1493829992206363 0.079984371793710679
v -0.28929831736310979 -0.3450752364537899 -0.100571721077408
v 0.20016082634772095 -0.060627775027008168 0.021225205335535097
v 0.030831605121741452 -0.31278041356863562 -0.20200217579671298
v 0.033632567332786065 -0.33108913112917998 -0.19696378164854447
v -0.27798861802730362 -0.39241026539835783 -0.11365640928991448
v 0.21088329488021293 -0.062002416643875624 0.0046833779218076743
v -0.2068271246687613 -0.22835804856613784 -0.18772396803162916
v 0.22066494998103647 -0.0633714360466478 -0.011935160957411747
v -0.26161742196854249 -0.33746289194586215 -0.13871909380812109
v 0.065771213406096346 -0.13205099946112853 -0.23266842892351924
v -0.27545834605033842 -0.35123747649108467 -0.12053287259485021
v 0.22947716546392075 -0.064716848005068078 -0.028756354101924633
v 0.054415267711530553 -0.28218047131951141 -0.20628912086459072
v 0.059080090041683929 -0.26222707944505425 -0.21216557197516506
v -0.22827485762120472 -0.24239223765185727 -0.17417899656198579
v 0.23632197975064231 -0.065994494875831589 -0.046165254364334045
v -0.2306066167912843 -0.22406218810245454 -0.17349594350548131
v -0.1503365814056794 -0.097061598829534357 -0.20920437290793278
v -0.064793476104751613 -0.10091445276332635 0.085743506403447717
v 0.24254485239545565 -0.067191039607671033 -0.063580289302176282
v -0.2604961463792751 -0.39467469854571302 -0.13612893694475128
v -0.24689799688837269 -0.23264157313836628 -0.15475580718162849
v -0.26129425719986793 -0.35720451603016701 -0.13781029664898459
v -0.20943260923567658 -0.1214212435015684 -0.1778563200058903
v 0.2424497523447886 -0.068474316855151873 -0.080896116797124384
v -0.25827906941756684 -0.22196821536607575 -0.13700521214666206
v 0.056444146509801667 -0.34747546030040988 -0.18818554104271154
v -0.23579746003255922 -0.3924223456388668 -0.15107577552577894
v -0.27345242463589481 -0.22981303088285027 -0.11452349327866376
v 0.23602767228186719 -0.069839928655775207 -0.09840056294236102
v -0.19749611710447809 -0.13420486614416063 -0.19282723044502975
v 0.22902219135480606 -0.071115345352688708 -0.11601078922774877
v -0.27970543040929946 -0.21387185107750251 -0.096888510461218297
v -0.24300243755418743 -0.35053359462190464 -0.15286922782577064
v 0.27541878001177839 -0.25581649555598324 0.041693452402536288
v 0.22059412081727331 -0.07240033676937721 -0.13329661893341088
v -0.2910668735232928 -0.22480556868365734 -0.076554859814328538
v 0.076965849522204394 -0.24416892603661816 -0.21576923030049044
v -0.18042011063128935 -0.3922761390309481 -0.16426430362006356
v -0.041046094070925146 -0.38621011182727633 -0.19041453001469985
v 0.21143669868478904 -0.073700804434911671 -0.15060076052784727
v -0.28958837214453376 -0.20914832811545603 -0.071224516532201812
v 0.27112085922829898 -0.19443203085672123 0.0033469005411956437
v -0.033735784087389635 -0.2956601523216722 0.11140464077238021
v 0.18944272370171739 -0.076299697547507206 -0.18468147473043761
v 0.27382623248359278 -0.21677679612658329 0.018421313145880233
v -0.11093880080245754 -0.21271630674481873 0.089481495032271735
v -0.19476995638357406 -0.35341130196297937 -0.16692933017163053
v -0.1459435512997321 -0.38661835499819608 -0.16988759138019832
v 0.093785140965944508 -0.34264384309774493 -0.18254390139539703
v -0.16591365328555432 -0.34383074785051365 -0.17356227321674428
v -0.11233375259195269 -0.36822996576502215 -0.17721513477651316
v -0.10853599476591715 -0.39255541647027137 -0.17400439173854318
v 0.12994165437964583 -0.31064045186119116 -0.18471726268235317
v 0.098934351408110466 -0.25908403541683533 -0.20633950912692633
v -0.27659903386218032 -0.23735831457307366 0.030068969834048401
v 0.079600947905690514 -0.19231113614383807 0.091117772519631129
v 0.066489123966887956 -0.21153613971089164 0.09563304396303704
v -0.27223172862259043 -0.2175186366598052 0.02223749851251286
v 0.057479126500425644 -0.23078037294952025 0.099374844374231386
v -0.049843489882373568 -0.22854410394553465 -0.22829533170309069
v 0.16412911558611992 -0.27104732774424334 -0.19000402422586787
v -0.25260050025698366 -0.2049404767238609 0.038782615093400197
v -0.10719616804592141 -0.3299309156683109 -0.18540729950111179
v -0.11746990676849298 -0.34772492041265629 -0.18016585654085993
v 0.1847041853444287 -0.31986169117091146 -0.17416092322949658
v -0.25577508781034231 -0.22463358583758486 0.048441750498114208
v -0.074197304625337121 -0.36984327416547669 -0.18363835684071619
v 0.17462477422643347 -0.077394701096517943 -0.19688527955939936
v 0.20664728514131417 -0.30040198629262482 -0.17356784038190615
v -0.087642489439580862 -0.3461316749348517 -0.18545394732242365
v -0.23281713253719227 -0.20919312263701856 0.061649737781269698
v -0.077799344557776443 -0.31544044070070298 -0.19410414346242974
v 0.15521139557083766 -0.078306314972717311 -0.20398615329348294
v -0.053268397522069286 -0.34125648523232543 -0.19380790056071409
v 0.19986587429905195 -0.34524264900421864 -0.16705031211776022
v -0.32075736283062722 -0.37517226717157648 0.00024803850040864064
v -0.31219899910943205 -0.38972281674400872 0.024709496200836213
v 0.23218965864598159 -0.30543634800528319 -0.16352844068266348
v -0.22639920857621462 -0.22586220371396837 0.073432327234881689
v -0.20127774611944119 -0.21499168515171674 0.076756598475201221
v 0.19494333370154279 -0.25982922293438698 -0.18551626400402119
v -0.11684581223560901 -0.15759795797469869 0.079211887352081761
v -0.092776992431498145 -0.05589531059770203 0.076267710482836287
v -0.19078338539823428 -0.23623154609203909 0.085250346157701579
v 0.22525952268496749 -0.26656047513864206 -0.17202882146784865
v -0.16926493744404836 -0.21958200779126286 0.083417962695540027
v -0.1358408143326954 -0.1734119554708142 0.077922148679987757
v 0.26187804246432611 -0.26096602957115578 -0.13483259867384834
v -0.15048037206194007 -0.23675713896713144 0.090100358912683032
v 0.16457363460142604 -0.14440493677431807 -0.20895913442020778
v -0.1212526709508804 -0.193101953869287 0.084142660445693462
v -0.15679916379204256 -0.18764470007220743 0.077005025274463679
v 0.27869590876446959 -0.26831740102851531 -0.11171442978140682
v -0.14650791562145746 -0.20523367675834814 0.082909119818196042
v 0.28665284437915578 -0.32404087091579964 -0.10341148954214817
v 0.29320176622990579 -0.30938555214201036 -0.092988030540907984
v -0.13796282709204682 -0.22133206440871445 0.087856574280913979
v -0.11279537030310073 -0.23274972344031253 0.093196845694901498
v -0.17863262042145547 -0.20154534250060724 0.076849223649817888
v -0.042502254115974698 -0.22093239211287885 0.10114018793459295
v -0.18770474015864735 -0.18424199401051167 0.06995513023288083
v -0.17022745271329059 -0.16955800077358249 0.07010212570361854
v 0.2928981755486823 -0.2723365632248983 -0.08816704739983626
v 0.31021668371421307 -0.29992716823498855 -0.057022540670763289
v -0.099195182848305516 -0.17842440780000818 0.085324404274005367
v -0.20888349361526073 -0.1974746353047768 0.068698065808675407
v -0.074355490869523699 -0.29306014759121546 0.10553240267249236
v -0.2019633976687828 -0.16755273453934777 0.060733735194119759
v 0.29953306697847032 -0.29378213560227379 -0.079626992949939066
v -0.21920930971798464 -0.15321552360951426 0.04328543748527186
v 0.31589569300323639 -0.30260407885201024 -0.033788772023005391
v -0.24705350992662886 -0.18583479670650704 0.031746269866550117
v 0.30855686998942133 -0.26144442604273033 -0.042191585131519299
v -0.23261268408936775 -0.19213984131305123 0.051718676421509471
v -0.099582608902021849 -0.14029837528059685 0.080743490433777432
v -0.24053433513190658 -0.16661822253752662 0.026357125021569228
v 0.32001463929847507 -0.34302318626541783 -0.025806651746218587
v -0.10247627008322133 -0.10107458501732827 0.076803921754619392
v -0.0068882737070642243 -0.23266633326863662 -0.23666013702474376
v -0.093652828476698133 -0.079761528146952282 0.077508577443264753
v -0.25249615844967221 -0.16288734323692233 0.0066531367469103292
v -0.28202611594074645 -0.20941817801358942 -0.0022341921124654357
v -0.065451511886026242 -0.075513894360981673 0.084383856605684426
v -0.0061612526133936934 -0.2185467549053059 -0.24083284632737478
v -0.13634711005654651 -0.05694676932189624 0.063621414022711931
v -0.29459676261642653 -0.21894267926574029 -0.023715339048670563
v 0.11715348236150649 -0.17051758939610495 -0.22402252214297524
v 0.16652187616973965 -0.10692058716864677 -0.20375280198464543
v -0.26905040589350648 -0.15837069253048736 -0.031187979656812408
v -0.1149777206482844 -0.056436013691222392 0.070294878036906067
v 0.30512386907948491 -0.26528820571541356 -0.012830270206113617
v 0.13349466010672434 -0.079076005509163022 -0.21005598551731652
v -0.25903065542407416 -0.11286692045890931 -0.068086513360003945
v 0.29587827764555724 -0.25054979822236845 0.0021019178626173335
v -0.29339366819709412 -0.20535898600730801 -0.046628034283569722
v -0.2853858108483151 -0.18507448543395821 -0.048605426307385131
v -0.27838171561242658 -0.16548146058816704 -0.053495241078877875
v 0.11090555477316338 -0.079875085910197985 -0.21558617979779549
v 0.29176746025601347 -0.2155132311991258 -0.023981267014711524
v 0.087898623484022276 -0.08072294276662248 -0.22080138007052527
v -0.13529851024024575 -0.13726465870130861 0.07265542326599353
v -0.026732897586654213 -0.14151249716660508 -0.24259132878030026
v 0.28833575847525406 -0.25918058383496284 0.023148078985082338
v 0.065047145597159212 -0.08155491530618908 -0.22614652746453995
v 0.081341247090465779 -0.096108975195422094 -0.22458055511734346
v 0.31466296747574657 -0.35197955647488599 0.0036979813007414347
v -0.1219170044612824 -0.079294850694009447 0.070065861345355113
v -0.03374312362334575 -0.15876499187809992 -0.24135714566755473
v -0.27803606033475614 -0.19326708506881213 -0.08970700787078581
v -0.23473193910461315 -0.11480007396328219 -0.13540583130149392
v -0.15196199548580963 -0.15426922675933735 0.07120137930498463
v 0.042003268909714203 -0.082317204356811446 -0.23204441908707601
v -0.26714148244267877 -0.19525910924993989 -0.11372520603353548
v 0.019577174120441267 -0.082839919685543745 -0.24013487244971243
v -0.23871961381650647 -0.19281752104308489 -0.15914487876636638
v 0.29563362427622963 -0.34401590088897821 0.044441822721473304
v -0.25457254143939628 -0.2022994250382788 -0.13791613440844294
v 0.019994291955335391 -0.095677101808288187 -0.24070064808564234
v -0.0022379812345270714 -0.083337929957788714 -0.24910012934705489
v 0.28640341220193688 -0.2774825257231589 0.036921179780161031
v 0.28481894086175974 -0.30000599237219544 0.04931390188795709
v 0.13064772266455485 -0.19945715984894569 -0.21919814366721682
v 0.025733245260448376 -0.089881844134041558 0.094466332079245596
v -0.23669833034618593 -0.17254533724510507 -0.15665887488905242
v -0.24229484823668188 -0.21257436224050419 -0.15802029754326807
v -0.22196697028911022 -0.092878632542159889 -0.14547466796602337
v 0.10481523238761563 -0.18563410734732508 -0.22636255275087053
v 0.26963818968382458 -0.27741608414849805 0.060353160766816502
v -0.2204461605680898 -0.20534880516087534 -0.18199908379669166
v -0.091411814607599839 -0.41577381984037326 -0.17436224053429378
v -0.17297653582554265 -0.19923142299902388 -0.20621034730658949
v -0.11829419931658984 -0.41573174827240666 -0.16966850058991753
v -0.14484779508477 -0.4157048963800577 -0.16593601855803475
v -0.19097628447953163 -0.21193328892196076 -0.19720541814307549
v 0.25101902519965658 -0.28881832983191469 0.082560970711687415
v 0.26881809509486215 -0.3065552091797008 0.072005139334908819
v -0.17059530494313913 -0.41568247645597967 -0.16254869086523577
v 0.26569680331669188 -0.33301500960158209 0.081522612386794632
v -0.17353543505850705 -0.16173331153271064 -0.20763423385480362
v 0.058621014170359753 -0.095089897207212934 0.086438671841525982
v 0.037377828434980519 -0.11115411888596399 0.092357800620929187
v -0.19516931178828742 -0.41564405488409717 -0.15827193907518908
v 0.24814230140227989 -0.26387152170671285 0.076085167097024467
v -0.16746768572509452 -0.18135467744027362 -0.2102341898070646
v 0.22344497350125236 -0.25827992859027454 0.085404223010251606
v 0.24463317203845764 -0.31371635352011995 0.091808366237185232
v -0.21851350543880982 -0.41560292981065494 -0.15299659067419208
v -0.0008504600356807197 -0.17676947234718832 0.10572233656983568
v -0.00078063669077256276 -0.19152425715282914 0.10700249218245295
v -0.14613863787044359 -0.19799954605864184 -0.21597479226992428
v -0.24022042654969669 -0.4155928764255935 -0.14683383676335418
v -0.12010356009008936 -0.15248289171720061 -0.22381206273156301
v -0.16044541381636257 -0.21405040742450882 -0.20783917855171924
v -0.25834387065804798 -0.41560696557264087 -0.13726872886585464
v -0.27083422601906904 -0.41547106711914666 -0.12049816119009198
v -0.28281607619192556 -0.4154223662010697 -0.10414860754580811
v -0.080112002172439745 -0.20188207931316032 0.091961394841736765
v -0.039865875838943639 -0.20225423634585277 0.099151154664853719
v 0.15856114574471039 -0.29169925148131959 0.10080973794882989
v 0.16697064077652526 -0.31212606445055535 0.10203963422162354
v -0.2933173843541319 -0.41537914407973864 -0.087761530451474529
v -0.30242450912703983 -0.41532888264904444 -0.071390286023761046
v -0.045880946423300525 -0.25792236705881127 0.10563234002868818
v 0.13256173917339709 -0.30016582855022783 0.10212508359858991
v 0.096370134168293015 -0.28586586833623889 0.10202657035968354
v -0.31077601323834775 -0.41527783173463745 -0.055066752885329626
v -0.11790120580078049 -0.16988464635406042 -0.22494467499287224
v 0.14058544291209946 -0.25900618449061885 0.096141948949468342
v -0.31783132346217446 -0.41521631497638312 -0.038557839488905558
v -0.089206678885994234 -0.26959191672886745 0.10164663957111297
v 0.056899825370694324 -0.28623083252312703 0.10554127185292786
v -0.053274307042529105 -0.31222312956175047 0.10936946708124004
v -0.14519764807660568 -0.16646109726288549 -0.21771879534594077
v 0.052903638965213585 -0.33327556081320464 0.1090744038881393
v -0.11450969501302292 -0.29147558498528547 0.10221107031227394
v 0.12310441824956007 -0.22458352390688202 0.090641427951824893
v -0.053599475375199906 -0.34827764843229608 0.1112457118988979
v -0.09448808263542384 -0.34518977044884097 0.10623259796775034
v -0.086970803937845176 -0.1467394240560102 -0.23016724068236544
v -0.10818251246678201 -0.13584160979186388 -0.22478242514514241
v -0.12198867037444787 -0.25197845458511386 0.096062221947253223
v -0.086308229178666998 -0.12614258506662285 -0.2283849875831504
v 0.13198595648094616 -0.14077938903962356 -0.21884306115553109
v -0.32427029330243773 -0.41520072635715671 -0.022193710030918339
v 0.14716922297583629 -0.23993223801450575 0.091523427609257552
v -0.13472865576775894 -0.34014570695222873 0.10382555898277357
v -0.16346997742685113 -0.25479749387855821 0.09314630612017652
v 0.14351694001232021 -0.15984675278710705 -0.21699521886059714
v -0.13806363972073996 -0.31214968957424682 0.10262431249079096
v -0.15373288050771508 -0.29025856695845653 0.10049921153328115
v -0.11880819660127784 -0.11938779409868239 0.074550865425642182
v 0.12726797765043249 -0.33466634358368308 -0.1794498564724985
v -0.08234620079336416 -0.12181749155663682 0.082956076707341925
v 0.17678391412989847 -0.23511554648743888 0.08720394024249789
v -0.17024948230599235 -0.30721881315399657 0.10100638937649792
v 0.19504092907509119 -0.14564374690995407 -0.19484159383484934
v -0.32432766758340836 -0.41524306402425587 -0.0062796678580232749
v -0.043684668712897147 -0.2393764147055335 0.10350056513727615
v 0.16291277645593039 -0.3440432903250274 -0.17291222960769989
v -0.31254650329183387 -0.41534721614932035 0.024773969535279855
v -0.21852447910340422 -0.27906738287543986 0.092330712036671564
v 0.15293058290129691 -0.32374578507643281 -0.17829531126181583
v -0.30503846369669047 -0.4154322772984545 0.039975402643531041
v -0.19219902419642373 -0.29348430510426082 0.098190068805362796
v 0.20179229986735259 -0.24649441327048 0.086837959276966109
v 0.20394202102897765 -0.22597436402071885 0.080333516862645393
v 0.18015896315779786 -0.12711260360272858 -0.200809712246348
v -0.29580598653048534 -0.41551730825136207 0.054660567417122184
v -0.19970591880346877 -0.25777779120091643 0.089890114966250406
v -0.28481171231053731 -0.41560576385963549 0.068813853583775897
v -0.22356884818337397 -0.30170051824962613 0.095606440660318259
v -0.27201510698989634 -0.41568068265144986 0.082363421464676193
v -0.25747230644300617 -0.41581886350411923 0.096646257716381578
v -0.22900390518151925 -0.26124241874940374 0.085066404692484388
v -0.25027172555076388 -0.29239406346702718 0.084884291603115877
v -0.23829881960688271 -0.41600986245498051 0.10252060173074672
v 0.23222212333902695 -0.23825511319107096 0.075967585156459821
v -0.25066209322788496 -0.27314886741243427 0.077682225251641562
v -0.21618852031446853 -0.41628743060280393 0.10441366483069223
v -0.19247738861986904 -0.41658239318906565 0.10530984041012487
v 0.23002367353722986 -0.3541720967265326 -0.15778935283848983
v -0.24928181315411288 -0.25483090232987077 0.070928765276890807
v 0.26660263960491726 -0.23320154872451154 0.040028277032867987
v 0.2288252692648208 -0.33674320485007653 -0.16074539341273175
v 0.21132750796360242 -0.094302102143614952 -0.16090907921324202
v -0.16752175398290475 -0.4168783393190264 0.10609456201980921
v -0.25078434561862989 -0.3125759900598814 0.089690334633285976
v -0.14147002274953344 -0.41719105898316727 0.10708283740201022
v 0.18054768256350176 -0.092789835458279707 -0.19494159550945858
v -0.11463375876043469 -0.41746205805777792 0.1086568034954854
v -0.087166548056491017 -0.41781358778134359 0.11118004638601067
v 0.28254437839458479 -0.23956101654397732 0.020805674650864234
v 0.20439144462262299 -0.12877169013315617 -0.18304766510415205
v -0.059165106310628109 -0.41804322273773975 0.11503045589672525
v -0.031065477265132518 -0.41826520822500374 0.12131517846764731
v -0.26442373398442148 -0.24606298444113078 0.050997454579400942
v -0.0026728286209039744 -0.41859503463898773 0.12793888395911651
v -0.27083672766723937 -0.28647190688106383 0.063046158441739192
v 0.24994809505887738 -0.34239125421836597 -0.14666489236535307
v 0.22010583625466365 -0.14625687639941087 -0.16923997242114414
v 0.28998321532456234 -0.22943480689427076 -0.0017508174889172279
v -0.2811369884128212 -0.25822806860070835 0.036203576198565054
v -0.28824632381483972 -0.30181204232035386 0.046827199858831617
v -0.2855878902881443 -0.27943891163817924 0.040802511227244473
v -0.075565827862901919 -0.24772689923442553 -0.21652223405336063
v 0.267926154841235 -0.34779834851183922 -0.12679535186904189
v 0.29628844954003331 -0.21768889892688642 -0.047969833225114396
v 0.2082068895696082 -0.11165383263969761 -0.17293880599073128
v 0.01831774684206685 -0.21491932397578062 -0.23611962036545647
v -0.091970652291472027 -0.23083893369935696 -0.21931554902391587
v 0.11163936513844699 -0.24226311193661942 -0.21033294549827436
v -0.082347207491987887 -0.2465101604563773 0.099091391276222213
v 0.30135303347369868 -0.23979469546246068 -0.025816218374373257
v -0.30029233927145255 -0.29316835681869108 0.022732926711784181
v -0.3015450068087332 -0.2562869181835819 -0.0036868121469876766
v -0.25853467853332768 -0.17955379473709154 0.010992089149629125
v 0.28501207833042547 -0.34451179208556015 -0.10496660888183675
v -0.31173017270611802 -0.30422875555097023 0.0016441309916159705
v 0.18571572897505967 -0.082964333998863674 0.047993187118321429
v 0.30091042379198829 -0.2384197625343441 -0.056207691544416516
v -0.30787565449929782 -0.27992050381936917 -0.0029411913098463735
v -0.310506421619409 -0.26565695091884434 -0.027082145762481635
v -0.30667681253621026 -0.25104999509585557 -0.049556021950952496
v 0.2978736769597794 -0.35581994056646599 -0.08445413169437857
v 0.29847429044673957 -0.25552181611691899 -0.071540467620034132
v -0.31919081441308117 -0.31623638928091252 -0.01926838739243885
v -0.27715980541170093 -0.17771063284344307 -0.029073495590165872
v 0.22201252732742 -0.12879955549142191 -0.16002079799564245
v -0.04762866215259022 -0.054729292261988471 0.088238550952584149
v 0.28880843268572098 -0.23453641622793164 -0.084401369407682919
v 0.2735496541474135 -0.22912103555930374 -0.11169887621275562
v -0.13184033161130176 -0.18341496747468608 -0.22156475581996024
v -0.098452056979533298 -0.18277471483984536 -0.22872917180193861
v 0.29860072368518942 -0.33292173385608503 -0.084181830683065867
v -0.31636009976195467 -0.29118801155692808 -0.029471614792258273
v 0.30867355504359045 -0.36812488992621173 -0.063698636758951932
v 0.28550368619605138 -0.25139758822389718 -0.096591671714700095
v -0.02458302681468158 -0.082773908009201119 -0.24060528169923148
v -0.04705629710690408 -0.082197095451576468 -0.23295583133668485
v 0.2381992275232781 -0.14436022000708712 -0.14129574903810913
v 0.031998061082872231 -0.21609704221878148 0.10206855987032401
v -0.06974136191638998 -0.081429501426448309 -0.22701693092935157
v -0.079120325630237298 -0.22537452558639454 0.096003207259434814
v 0.27223379318479213 -0.24953025756258168 -0.11822755204065812
v 0.258383955229678 -0.23897542745295952 -0.13678424346262491
v -0.092513192430024302 -0.080597868531232963 -0.22156499347593667
v 0.23432677623317386 -0.12295909067488242 -0.13753041370399613
v -0.31567847016692074 -0.31256561817747225 -0.045952287694193863
v -0.11494023113591495 -0.079748256370155673 -0.21627315467768801
v -0.12495641728183851 -0.099408556861817293 -0.21637086239194248
v -0.2786918332386058 -0.17617997420698664 -0.075771561406341614
v -0.13664729461350436 -0.078932655763570975 -0.21071676242174492
v -0.15752341986964866 -0.078153671524969326 -0.20470525047053695
v 0.24271278894878431 -0.25049123479759827 -0.15777202232549833
v -0.29586531957395368 -0.2580579265846662 -0.080432240176949915
v -0.26605779240432215 -0.17335057512334551 -0.10556468400066131
v -0.24913105356912493 -0.16192875288220115 -0.13268040911403883
v -0.30821847817694464 -0.29528937285620405 -0.061995990692289171
v 0.24929838747763788 -0.13437636158169222 -0.11597151697798708
v 0.22992866450922139 -0.088861553404172136 -0.12629156717370602
v -0.31029057052031517 -0.35587474901873323 -0.061442444027359613
v 0.090707355070578186 -0.22753402118878757 0.094753729512374651
v 0.2173373979771957 -0.24777250176075255 -0.17958136971676347
v -0.10938281941525051 -0.19961875115298627 -0.22490142499222238
v -0.27955239595112308 -0.24914521955131522 -0.10910061087158872
v 0.24070714016310768 -0.092618988005725697 -0.10617117147402956
v -0.13269609403567709 -0.21149112777453238 -0.21644935304975682
v -0.29850605449658568 -0.36243919086526055 -0.084149902901828111
v 0.19174052233010294 -0.2416733826377595 -0.19077558095652741
v -0.29618011986418946 -0.30194326708037889 -0.088165947894328453
v -0.27854085525942368 -0.30495587571164201 -0.11774580157087788
v 0.24907087217166154 -0.092880305767666177 -0.084786176731199453
v -0.28610673022310218 -0.28758446656969749 -0.10415977125414069
v -0.26791142125692075 -0.26096106271593433 -0.12953579814999994
v 0.26550877326514427 -0.13181425886975992 -0.068400408684304748
v -0.27751573104595223 -0.32866271497012389 -0.11898458959741728
v -0.039905913861721543 -0.31931400008895078 -0.20177015153901801
v 0.1360428016173385 -0.2554046906083805 -0.20080036050794142
v -0.17668986548326812 -0.077279158363774025 -0.19751556991595814
v -0.1910160511282801 -0.07615166790930239 -0.18501228093059874
v -0.24963834510380534 -0.25212498574527609 -0.15308716688331794
v -0.25327601420454071 -0.27247956036029924 -0.14951143910478426
v -0.25810217164629873 -0.29390450757926101 -0.14407146198243093
v -0.26132104618128349 -0.31581121228172349 -0.14023552268740952
v -0.19781655529870609 -0.17273561006234894 -0.19678284779052457
v 0.11494295813220276 -0.18896909281055838 0.08523460074917974
v 0.31187913483511503 -0.3430270826352072 -0.058745497875573427
v -0.21179720916703915 -0.073439341314349343 -0.15129859069353913
v -0.22119947836597381 -0.072078993857793844 -0.13425254512324064
v 0.31619878386121331 -0.32199205529841146 -0.04614247726908699
v -0.010517238685365958 -0.41598955102998542 -0.20007061537298809
v -0.22949326876351611 -0.070754835753015721 -0.11698589495421195
v 0.25965695863308691 -0.12855463291077504 -0.040376780103547061
v -0.23650479766097104 -0.069430270632064667 -0.099559620804482329
v -0.24305937338273612 -0.06800357897081688 -0.082349080777003175
v -0.24365152488939129 -0.066739563452103357 -0.065099021358982212
v 0.29107829134032959 -0.2193772660866741 -0.071702859730036636
v 0.24937989096422902 -0.086071007314093256 -0.066429141428368171
v -0.23775295652718845 -0.065560755802490461 -0.047661731946888462
v -0.23105108667581145 -0.064301772105518185 -0.030302324646782008
v -0.22300041174125201 -0.063001119630303665 -0.013263640525005962
v 0.079018974961343955 -0.21250765934917634 -0.22586775611380561
v -0.21338171897785016 -0.061684870504489731 0.0034243841116753104
v 0.24581340558812984 -0.08970628477497157 -0.045813636628404555
v -0.20266083537709351 -0.060353644074874535 0.019918551214010982
v -0.24118400683056312 -0.32771856991190401 -0.15654450287223814
v 0.25175001475325376 -0.13426036127856125 -0.014894402843720164
v 0.02451229815881021 -0.27718241814964023 -0.21395743877144985
v -0.0086949505869604159 -0.29247588643406131 -0.21742657687128014
v -0.0083907287812454642 -0.27678782279725794 -0.22219769147131058
v 0.1980254305594541 -0.093806271088669915 -0.17951042817697377
v -0.23819545077372373 -0.30553015075984014 -0.16049306726866738
v -0.0079158628228783411 -0.26180999609119615 -0.2272003420836094
v -0.22913222300975761 -0.26249436243005309 -0.17157331583183974
v 0.021171718240493635 -0.2602232682066285 -0.22053693750798592
v -0.0074204946763637963 -0.24705010104100969 -0.2320364055736247
v -0.19138464343559133 -0.05902245433164377 0.036812825578575903
v 0.24244715033295666 -0.22703241888541098 -0.15615572740836747
v 0.23656737850422091 -0.086942665895692856 -0.024520600392306691
v -0.21346374211277699 -0.31736160937107039 -0.16798930587801661
v -0.17621029011505634 -0.058029364373557935 0.049377806172010985
v -0.15703795000959539 -0.057450761399099215 0.056839876343515144
v 0.22832717230371063 -0.098757763746366245 0.0011216586787739097
v 0.068007651163696142 -0.15098527412347151 -0.23363167103333365
v -0.2336546523102781 -0.28376122947875826 -0.16577767966284498
v -0.19652207639153507 -0.24964960905347375 -0.18731858970552129
v 0.22445791741389143 -0.078580352905346318 -0.0069650916151182268
v -0.20804267670037077 -0.29498753213268747 -0.17345980907934661
v 0.24247523569950402 -0.14173821972976447 0.0081213710097791658
v -0.18167901560755997 -0.30705610157593721 -0.17728550631241369
v -0.001838432491584215 -0.23567763053809887 0.1115831638142453
v -0.1480748141743517 -0.077152649713174315 0.062166806034621935
v 0.19997320283697634 -0.075777797965151078 0.03040137851347427
v 0.20779937896602108 -0.093923562431409147 0.029022862825039353
v 0.2131691406297081 -0.079482551992551789 0.012649032143550801
v -0.15694665225950791 -0.31987136392392829 -0.17934969428089775
v -0.17408178143510294 -0.28547241094428821 -0.18389751493845782
v -0.14470487911620178 -0.29793723915376136 -0.18654380798874176
v 0.090869540599831045 -0.32408501192418648 0.10503449204848372
v -0.1690188308171286 -0.26473762404355944 -0.19082834340628163
v 0.069741642151065486 -0.11350860677557326 -0.22964651306957101
v -0.13583713493405178 -0.27730737012948709 -0.19415285610582639
v 0.035180237413921012 -0.12301319150643943 -0.23861995183369603
v -0.063325003254448398 -0.16036510175227131 -0.23540217987708298
v -0.057434015486359152 -0.13826867513984428 -0.23553489360426683
v 0.31419298395047851 -0.32902823639224232 -0.0023967214249971808
v 0.29679073786307225 -0.3189790965363864 0.036157167280019359
v -0.095336513514112625 -0.28880958154446595 -0.19822808984284268
v -0.10032831474205837 -0.26490158965957344 -0.20541713350666652
v -0.20152998975521288 -0.074819343612980593 -0.16807184809118189
v 0.22829459705696867 -0.1301001101636704 0.021190214647812303
v 0.2117387645447999 -0.12988748575374776 0.04196326399803546
v -0.32147739424115335 -0.39634294375591289 0.0011205852979000348
v 0.28087806663268272 -0.35290043911485297 0.067067271655150265
v 0.28341343295151356 -0.32582773812795623 0.059191214567138634
v -0.31857362859743571 -0.4152793061013893 0.0091203645410332657
v 0.19491576712640712 -0.10903718425604042 0.048673666025703527
v -0.071217255818254804 -0.39571197480928266 -0.18100538585891138
v -0.064302818577378074 -0.415800827412248 -0.18075425670044271
v 0.029973518291973429 -0.35526372876372103 0.11463722306324159
v -0.037463456799573906 -0.41584141098278982 -0.18941142103508549
v -0.0023153433994393385 -0.053174963176741946 0.10118463179628873
v 0.094057940468821655 -0.12160782266023279 -0.22541343823280108
v -0.024915470417676104 -0.05430182042604817 0.094673451390482638
v -0.036742106283004138 -0.36593396446874099 0.11555003764010963
v 0.23836264541372579 -0.33968958481007178 0.097207103656654179
v 0.049022467680740998 -0.073650772412608062 0.088199050236161064
v 0.16351744219096226 -0.38950366784249135 0.1056649137114001
v 0.14132447324120681 -0.37210775046515376 0.10529096223231646
v 0.20033327120712727 -0.37463828070534788 0.1037073033481033
v 0.07444419131386025 -0.17154604805224732 -0.23279238760586532
v 0.23309426009550152 -0.3669884369981658 0.10004509054568508
v 0.10714498831910937 -0.3685759914654036 0.10607705258873171
v 0.31342330338931945 -0.37562678047705716 0.011528481223917204
v 0.18745316945090981 -0.13628790333532576 0.059546233392932579
v 0.16858784858031428 -0.11883230599190803 0.062107034764554758
v 0.24677814233959458 -0.1101089431646077 -0.02581227876672431
v 0.20540594440882512 -0.34858489524317149 0.10219767680536568
v 0.25712294970851773 -0.10902839585817237 -0.060342283177965486
v 0.25472149714855397 -0.11739861884019212 -0.092019864387834577
v 0.07669130914820925 -0.076614538784181688 0.081248487868166158
v 0.17158539432408332 -0.33581381025812729 0.10316451079189792
v 0.20756739971659469 -0.31991855531814273 0.10007038984661262
v 0.24065817652792273 -0.11067660241143175 -0.1188081085935646
v 0.22583253966847072 -0.10102004774185971 -0.14072911223568102
v 0.17169270398411268 -0.36106707758051276 0.10430411603221454
v 0.2207265844263045 -0.11200676279645697 -0.1544951943773743
v 0.29540456410462235 -0.37876125896347557 -0.085598230408378162
v 0.27769946971718246 -0.36930244616585445 -0.11261556804441766
v 0.13170399731134999 -0.32492721638582284 0.10347514325138704
v 0.25107781094669335 -0.36872200149670425 -0.14227865153418129
v 0.19104240073370943 -0.11053035963208709 -0.19138542033263378
v 0.13748629697831222 -0.3495970291439825 0.10438772275363584
v 0.20041792689445653 -0.2713115877857874 0.093496700559712514
v 0.26199819174288641 -0.36098814145381719 0.088389643326975367
v 0.29377031402271248 -0.36978204256515645 0.050954734987264619
v 0.30561199335622752 -0.36103841143140331 0.028421171252048093
v 0.30449695790755582 -0.27701512294479852 -0.064842317896618748
v 0.24896232579822397 -0.27437044399808264 -0.15120299224937223
v 0.097885027244377795 -0.34494247041541815 0.10549728388601801
v 0.231019744013235 -0.28674630151593922 -0.16683486094590061
v 0.31959213863192143 -0.36299984830660043 -0.039007782502488098
v 0.31998944466676299 -0.36772969422358248 -0.012735368395204808
v 0.070087672675085533 -0.3069057111029973 0.10558049291384003
v 0.023590608854155398 -0.28537780234692123 0.11067599296659156
v 0.14132913115109402 -0.11144865446865204 0.068587551418495846
v 0.10413991811519455 -0.078298896945793825 0.074617766543116526
v 0.033437698108175963 -0.26713289032067616 0.10725967510677611
v 0.059307379941270701 -0.17629714785911274 0.092744964420688192
v 0.038917728218306413 -0.19636171534822794 0.098625868574853337
v 0.033841602442016276 -0.36920787028894164 -0.18899366122880107
v 0.089369064639751833 -0.098349066363907278 0.079482499407703716
v 0.065401584821469461 -0.32439552688698786 -0.19175493385351444
v 0.052168123647181049 -0.12769070474717048 0.089949758806508184
v 0.07313203903499664 -0.11546782140183093 0.084342205564094247
v 0.024247248245125908 -0.12953593859417623 0.096558709821092437
v 0.06099796937760698 -0.39044768535941093 -0.17956409457397635
v 0.098663411728467265 -0.31739404126987719 -0.18768230263071245
v 0.13321644691786069 -0.20613944242791049 0.085744728894151773
v 0.29809234592221195 -0.27333362037494224 0.012704804456981932
v 0.26951953060827916 -0.18763289212427817 -0.10328421145964735
v 0.10487150006574258 -0.39037891852567713 -0.17251858371574835
v 0.26848597207269254 -0.28325172508613716 -0.12815424726909774
v 0.19509894412360576 -0.2088125675513077 -0.19559526835994215
v 0.20063128683346554 -0.27947612782877407 -0.17941095407459973
v 0.15015277342739708 -0.39071480713457774 -0.16745356500072517
v 0.086890452717158076 -0.27779957176793424 -0.20170645343281818
v 0.060580508160666457 -0.2283593883652639 -0.22414646577828135
v 0.21334536492863468 -0.37119126964153587 -0.16089941242298256
v 0.1914931089774799 -0.39142017242878818 -0.162211096515464
v 0.13960943533561379 -0.10285794860405256 -0.21190843268429932
v 0.11662021642621238 -0.099213888345383458 0.0732206798321276
v 0.11055817083897562 -0.12341364809359237 0.076947313205820878
v 0.23008420414071937 -0.39278325517320217 -0.15307897499104356
v 0.044307452830111692 -0.1444676145300324 0.092983372037590994
v 0.072126891945053631 -0.15706878765013776 0.088360615732821585
v 0.10942609111602425 -0.10297152337686527 -0.21942600293659742
v 0.26009349470879933 -0.39269782642812251 -0.12971513132601104
v 0.25619574301346792 -0.21863173731801464 -0.13618284054843488
v 0.034496424167151055 -0.18110735729271299 -0.23958682524193611
v 0.2756694929672095 -0.32932255250366393 -0.11875912565741407
v 0.280696909383777 -0.39389855146807778 -0.10458957549397613
v 0.027197498250867289 -0.29472337917792235 -0.2078051348793255
v 0.29498302001145932 -0.39951326147723126 -0.082688909619603956
v 0.04783736228239012 -0.21208637811487288 -0.23129705786101226
v 0.30756325607100082 -0.39326722467064057 -0.062256931897600336
v 0.31606042384964994 -0.38131203744015113 -0.046366578461403324
v 0.11481491999306248 -0.24364302963390369 0.095047402522562913
v 0.15171881504412058 -0.12427029730171957 -0.2111321552171023
v 0.12262313190948081 -0.12163649585667717 -0.21890418722195465
v 0.027168516549963273 -0.22986057324142212 -0.22994814225014903
v 0.32145697148437402 -0.38592324474205308 -0.025008500015303844
v 0.2153759177604585 -0.32084395562040158 -0.16776588180778951
v 0.31783017283675413 -0.32084092823878052 -0.023463654105479553
v 0.30654562591364798 -0.33636907831138352 0.021136783600019249
v 0.26174172611364827 -0.32297066569085653 -0.13651620167707287
v 0.24291171673627471 -0.32156614040634263 -0.15462154227938205
v 0.30387652157539569 -0.38836896985221825 0.035004078542159082
v 0.22833110749999996 -0.1457393463076577 0.03066935512805595
v 0.26389688868443167 -0.15084477459652526 -0.026472994886785145
v 0.30594710511289724 -0.31718357297999927 -0.069740644467421606
v 0.081480976027099555 -0.36730092257261715 -0.17964748608384087
v 0.27771739072961232 -0.38388937222637864 0.073385761328471133
v 0.15296715362848121 -0.22144136462629593 0.086567805955926169
v 0.3130464559119791 -0.30605742950893366 -0.010321844141523522
v 0.30662894480458208 -0.31265469488591907 0.012706070458066911
v 0.1585212995818992 -0.30687585379179966 -0.18133601566572893
v 0.25543602026894546 -0.39018608306595137 0.093377928643181715
v 0.17884644733136087 -0.16549905229088221 -0.20492770518322218
v -0.0013264099442255612 -0.22091965160303412 0.10984200051009649
v -0.0025953213709431944 -0.298612728956482 0.11810461578751777
v 0.10463596081663579 -0.307823954712095 0.1034327316919067
v 0.22486043840567368 -0.39244580945953039 0.10240318342019117
v 0.21119800287471238 -0.16155328281949366 -0.18377515494157234
v -0.002210375305250591 -0.2506633217281829 0.11309960978456321
v -0.00094575986269268813 -0.20625055974496276 0.10831153892724807
v 0.19438011374540098 -0.39772814074777973 0.10491614336665595
v 0.034593725732802963 -0.16157629293092854 0.09645279006280616
v -0.0008014762624767507 -0.16190932256095728 0.10458395654443522
v 0.16520654736515339 -0.096942334128675922 0.059860489886575829
v 0.12399957996961328 -0.39216120939975307 0.106755739498295
v 0.15928593240563219 -0.075250055477108113 0.058728684402374359
v 0.31856755233862977 -0.39228815765403674 -0.0035672455641050441
v 0.17865176376383538 -0.21813484048148896 0.08228318108019203
v 0.047740071784705171 -0.1022376211237816 -0.23332802418272716
v 0.082675810328459734 -0.3903776156364932 0.10919344669433448
v 0.098456618802791204 -0.13786273739923965 -0.22638018457015457
v 0.03812135049859669 -0.38427929231812896 0.11540277804345472
v 0.068024057865285065 -0.36220453764026311 0.10882997001021549
v 0.065880904624054076 -0.19320125044212086 -0.2323956671685205
v 0.025886510486178453 -0.17832247623004921 0.099639626777816376
v 0.032154583836852893 -0.30890659060636977 0.11090740594692403
v -0.0025855394358141118 -0.31553514187397397 0.11916985086909856
v -0.0024129751082248444 -0.26597397172793391 0.11494691879723037
v 0.31809923884420055 -0.3991910271369512 -0.038999855732149744
v -0.0025699703058565298 -0.28200673335532317 0.11676410980037263
v 0.12889052070243012 -0.36310684342684185 -0.1738341933375655
v 0.14408237042844746 -0.23617973858895458 -0.20570888901167891
v 0.17313260229616204 -0.22499009518982005 -0.20107269956116403
v 0.24658611514464937 -0.223778903288263 0.057735083981685267
v 0.17334109707166892 -0.25454577170588338 0.092641998680218191
v 0.2573438504889704 -0.24773167894369533 0.059659591618759625
v 0.17482508096266819 -0.36787974208286794 -0.16763395130019401
v 0.31202144677487526 -0.39792930181470548 0.016578027008558205
f 555 540 123
f 389 162 497
f 567 540 568
f 583 104 251
f 463 489 430
f 453 94 255
f 483 484 162
f 446 640 671
f 574 577 251
f 50 244 238
f 52 244 50
f 575 57 53
f 55 249 52
f 55 2 250
f 577 248 563
f 575 437 432
f 57 597 589
f 2 265 262
f 589 592 57
f 262 259 2
f 5 267 262
f 602 606 589
f 5 9 11
f 58 606 610
f 11 272 5
f 12 278 11
f 565 793 8
f 630 60 632
f 13 425 12
f 424 289 160
f 289 424 13
f 643 649 60
f 181 403 179
f 483 206 484
f 163 651 174
f 53 563 558
f 651 65 650
f 163 389 384
f 683 66 65
f 455 558 563
f 165 384 171
f 340 331 34
f 67 66 683
f 206 470 63
f 385 102 856
f 67 702 70
f 344 340 696
f 179 403 406
f 710 70 702
f 16 352 14
f 111 112 59
f 63 64 655
f 18 368 16
f 710 742 753
f 119 112 111
f 394 671 545
f 551 922 903
f 19 375 18
f 753 740 711
f 406 470 179
f 261 615 108
f 545 453 439
f 178 386 530
f 24 386 23
f 72 753 742
f 26 396 24
f 768 765 72
f 119 142 112
f 32 63 470
f 112 142 161
f 399 400 396
f 154 343 182
f 545 671 448
f 399 415 400
f 768 770 765
f 32 406 410
f 418 415 399
f 770 183 777
f 387 300 166
f 415 418 422
f 105 86 299
f 169 42 839
f 170 142 119
f 173 172 705
f 329 638 343
f 134 738 737
f 185 638 329
f 692 661 145
f 150 74 741
f 637 345 873
f 132 145 661
f 170 184 142
f 138 495 760
f 138 136 188
f 136 194 188
f 201 87 194
f 270 87 205
f 216 49 210
f 46 216 724
f 198 184 170
f 43 96 907
f 219 39 218
f 45 43 41
f 224 37 219
f 498 224 514
f 86 105 342
f 225 36 514
f 378 107 110
f 80 233 107
f 22 41 43
f 198 217 849
f 41 581 45
f 103 233 76
f 76 40 103
f 222 217 214
f 678 100 40
f 98 41 22
f 366 41 98
f 40 76 678
f 215 4 284
f 215 98 21
f 537 536 92
f 222 234 217
f 904 537 92
f 460 462 30
f 284 471 366
f 222 239 246
f 586 903 759
f 462 28 30
f 246 234 222
f 454 449 28
f 237 391 924
f 560 319 921
f 246 888 252
f 431 471 282
f 455 560 391
f 319 560 241
f 50 238 793
f 50 566 52
f 52 574 55
f 258 263 510
f 244 52 249
f 55 253 2
f 284 792 657
f 303 670 667
f 303 100 674
f 250 249 55
f 273 274 252
f 251 253 574
f 100 303 301
f 301 570 100
f 104 261 257
f 677 100 678
f 273 285 274
f 257 2 253
f 2 257 265
f 250 2 259
f 570 568 40
f 752 292 293
f 294 296 285
f 285 296 274
f 684 497 679
f 277 274 296
f 440 447 442
f 579 489 463
f 692 329 695
f 259 262 267
f 871 736 360
f 262 271 9
f 40 100 570
f 570 567 568
f 203 128 270
f 310 296 294
f 305 296 310
f 87 270 194
f 9 5 262
f 5 272 600
f 276 9 271
f 9 276 11
f 272 11 278
f 302 323 310
f 568 103 40
f 108 615 89
f 280 11 276
f 11 280 12
f 103 568 540
f 278 12 425
f 323 337 328
f 283 12 280
f 12 283 13
f 283 297 289
f 289 13 283
f 540 561 231
f 425 13 424
f 209 288 205
f 291 125 286
f 346 337 323
f 49 304 288
f 173 350 351
f 297 654 314
f 347 158 864
f 304 47 311
f 47 304 49
f 47 46 481
f 360 361 855
f 501 684 146
f 481 311 47
f 46 39 481
f 343 695 329
f 314 289 297
f 289 314 160
f 481 321 308
f 481 39 321
f 325 122 321
f 325 321 37
f 37 321 39
f 333 160 314
f 324 266 333
f 527 107 231
f 84 121 325
f 36 327 498
f 160 333 34
f 327 120 84
f 36 82 371
f 277 393 390
f 689 34 333
f 34 689 340
f 313 34 331
f 266 334 689
f 334 260 341
f 340 335 331
f 107 527 110
f 54 404 405
f 696 14 344
f 61 401 44
f 38 299 407
f 358 14 348
f 14 358 16
f 344 14 352
f 356 704 712
f 352 16 368
f 413 62 417
f 370 16 358
f 16 370 18
f 175 705 134
f 713 115 110
f 371 27 378
f 27 371 82
f 381 18 370
f 18 381 19
f 368 18 375
f 80 378 27
f 19 381 235
f 19 395 23
f 19 23 178
f 202 506 913
f 23 395 24
f 386 24 396
f 398 24 395
f 24 398 26
f 26 398 220
f 26 412 399
f 396 26 399
f 418 399 412
f 164 180 444
f 444 443 164
f 175 173 705
f 685 84 120
f 422 300 415
f 685 121 84
f 172 169 300
f 172 300 422
f 78 80 27
f 226 365 78
f 89 615 114
f 240 485 309
f 134 737 175
f 226 27 82
f 245 459 452
f 187 186 140
f 243 459 245
f 189 187 130
f 581 466 579
f 467 472 637
f 308 122 240
f 138 579 466
f 430 255 463
f 499 435 430
f 453 430 435
f 435 440 439
f 435 499 450
f 243 479 281
f 308 321 122
f 897 438 584
f 439 453 435
f 243 281 893
f 450 440 435
f 480 859 865
f 440 449 447
f 442 439 440
f 450 449 440
f 447 449 454
f 492 488 493
f 127 458 456
f 449 456 28
f 82 225 708
f 454 28 462
f 28 456 30
f 456 450 127
f 30 456 458
f 225 82 36
f 30 464 460
f 506 507 502
f 126 469 125
f 287 508 509
f 207 507 506
f 410 460 32
f 126 306 477
f 460 464 644
f 644 32 460
f 32 644 63
f 475 31 576
f 470 406 32
f 64 63 644
f 306 309 477
f 125 464 458
f 528 795 511
f 516 523 524
f 655 206 63
f 206 655 484
f 206 474 470
f 162 679 497
f 316 322 822
f 313 160 34
f 37 498 325
f 523 316 534
f 497 684 501
f 501 146 505
f 146 512 503
f 505 503 513
f 263 515 510
f 512 120 115
f 503 512 91
f 517 513 503
f 115 713 91
f 458 203 125
f 315 547 548
f 91 512 115
f 547 330 336
f 91 713 88
f 517 88 522
f 552 548 547
f 532 88 713
f 88 532 519
f 552 336 553
f 522 519 541
f 527 231 561
f 127 128 458
f 538 660 692
f 514 36 498
f 224 498 37
f 538 692 695
f 114 626 631
f 553 342 105
f 219 37 39
f 555 660 561
f 127 450 499
f 891 199 824
f 660 555 661
f 218 39 46
f 199 97 886
f 366 98 284
f 22 21 98
f 41 366 581
f 43 232 22
f 907 232 43
f 96 536 907
f 45 463 255
f 45 581 463
f 255 94 96
f 255 96 45
f 94 453 545
f 448 546 545
f 582 593 594
f 595 584 438
f 216 46 47
f 216 47 49
f 551 640 558
f 558 640 569
f 49 288 209
f 793 565 50
f 569 53 558
f 566 50 565
f 209 210 49
f 841 351 350
f 574 52 566
f 578 53 57
f 612 609 423
f 53 578 563
f 575 53 569
f 597 432 211
f 253 55 574
f 57 575 597
f 578 57 592
f 592 583 578
f 627 609 612
f 584 621 628
f 603 589 606
f 602 589 597
f 634 819 627
f 610 606 602
f 835 318 229
f 626 606 58
f 610 624 58
f 58 624 630
f 632 58 630
f 634 884 869
f 58 632 626
f 60 642 632
f 642 60 649
f 60 630 181
f 650 649 643
f 662 652 645
f 656 628 621
f 621 636 656
f 658 659 204
f 64 644 469
f 466 495 138
f 694 377 700
f 468 471 431
f 663 650 65
f 628 656 668
f 679 162 484
f 65 686 663
f 672 673 659
f 686 65 66
f 683 65 651
f 468 431 478
f 683 693 67
f 685 146 684
f 146 685 512
f 696 340 689
f 66 67 701
f 473 495 478
f 66 698 686
f 702 67 693
f 668 675 687
f 701 698 66
f 405 690 54
f 701 67 70
f 54 690 564
f 14 696 348
f 711 70 710
f 699 70 711
f 702 709 710
f 229 318 236
f 657 282 471
f 710 709 742
f 753 756 740
f 756 753 72
f 742 754 72
f 72 754 768
f 72 765 756
f 766 765 770
f 490 193 496
f 130 772 496
f 770 776 766
f 15 719 168
f 87 201 148
f 183 770 768
f 201 194 136
f 422 705 172
f 633 777 338
f 777 633 150
f 408 74 633
f 638 185 408
f 106 730 258
f 688 379 694
f 275 631 118
f 185 692 145
f 197 750 749
f 736 737 738
f 263 258 730
f 738 741 743
f 185 145 143
f 743 741 744
f 744 741 74
f 744 467 879
f 132 140 145
f 123 132 661
f 741 738 150
f 123 540 567
f 773 772 567
f 738 134 150
f 78 27 226
f 238 623 1
f 264 279 779
f 776 150 134
f 134 705 420
f 695 541 538
f 104 599 261
f 365 681 680
f 761 762 763
f 365 678 76
f 76 78 365
f 411 156 420
f 156 411 220
f 541 519 538
f 220 764 156
f 76 233 78
f 80 78 233
f 168 789 387
f 70 699 701
f 398 395 228
f 434 437 445
f 779 780 887
f 428 432 434
f 926 317 706
f 197 749 745
f 213 6 4
f 279 785 780
f 419 427 428
f 148 201 745
f 454 462 419
f 526 782 783
f 381 734 235
f 410 414 419
f 493 769 913
f 511 4 215
f 4 511 213
f 406 414 410
f 208 731 729
f 21 511 215
f 210 728 727
f 794 800 823
f 511 21 529
f 470 474 179
f 724 218 46
f 227 110 115
f 118 280 275
f 219 218 722
f 806 800 794
f 803 804 256
f 716 778 225
f 224 219 720
f 407 86 690
f 356 734 381
f 389 497 380
f 809 795 528
f 810 806 811
f 717 716 514
f 497 501 380
f 317 697 429
f 810 818 821
f 913 771 202
f 341 698 699
f 373 376 159
f 369 177 373
f 341 260 698
f 260 334 266
f 365 226 681
f 517 522 354
f 828 821 818
f 354 362 364
f 569 640 446
f 519 522 88
f 767 828 818
f 266 324 676
f 602 597 211
f 804 834 256
f 121 240 122
f 345 868 918
f 610 602 211
f 169 839 166
f 427 195 211
f 643 179 174
f 683 651 165
f 693 683 171
f 627 884 634
f 324 654 676
f 846 397 841
f 841 397 374
f 362 709 369
f 580 397 846
f 192 188 190
f 192 499 489
f 128 192 190
f 270 205 203
f 205 288 286
f 291 306 126
f 208 148 733
f 288 304 291
f 304 311 306
f 311 481 308
f 286 125 203
f 283 118 297
f 589 599 592
f 283 280 118
f 227 115 120
f 747 805 732
f 707 226 82
f 107 378 80
f 275 114 631
f 118 646 297
f 89 114 275
f 231 233 103
f 87 209 205
f 816 872 870
f 271 108 89
f 248 560 455
f 248 241 560
f 108 271 265
f 566 565 241
f 86 876 690
f 622 244 619
f 517 91 88
f 574 566 248
f 715 662 889
f 244 249 618
f 249 250 614
f 882 465 718
f 253 251 257
f 774 465 882
f 250 259 608
f 883 494 774
f 921 391 560
f 259 267 604
f 54 564 847
f 251 577 583
f 600 267 5
f 89 276 271
f 503 91 517
f 690 405 407
f 275 276 89
f 892 573 582
f 272 278 596
f 248 577 574
f 280 276 275
f 425 588 591
f 425 424 781
f 781 313 572
f 424 313 781
f 572 585 781
f 314 654 324
f 136 197 201
f 313 557 572
f 237 551 558
f 554 331 335
f 334 341 348
f 760 136 138
f 335 344 549
f 341 699 704
f 348 696 334
f 921 319 7
f 358 348 704
f 344 352 544
f 912 582 594
f 903 586 551
f 352 368 543
f 381 370 356
f 368 375 539
f 788 8 3
f 535 375 178
f 221 795 809
f 828 767 562
f 559 833 920
f 921 920 899
f 546 448 898
f 903 922 836
f 38 903 299
f 235 228 395
f 405 669 407
f 546 92 94
f 400 518 520
f 92 546 904
f 639 35 926
f 386 396 525
f 927 926 33
f 928 605 930
f 200 490 298
f 94 545 546
f 96 92 536
f 927 56 852
f 143 472 408
f 220 412 26
f 400 520 521
f 412 220 411
f 109 113 152
f 920 832 559
f 418 412 411
f 152 113 746
f 387 789 786
f 420 418 411
f 746 161 867
f 418 420 422
f 490 773 298
f 496 772 773
f 394 442 445
f 562 767 832
f 739 636 820
f 204 725 658
f 773 490 496
f 725 223 635
f 447 454 428
f 472 186 637
f 215 284 98
f 189 130 496
f 458 464 30
f 410 462 460
f 125 469 464
f 635 247 487
f 487 269 629
f 641 487 629
f 268 269 487
f 269 393 629
f 390 269 268
f 469 126 64
f 349 761 763
f 655 64 477
f 303 674 670
f 290 393 277
f 611 290 928
f 163 474 483
f 928 307 605
f 635 641 648
f 531 605 533
f 677 674 100
f 477 309 485
f 506 202 207
f 679 485 240
f 240 121 684
f 312 912 594
f 684 679 240
f 121 685 684
f 186 187 345
f 503 505 146
f 912 332 892
f 772 130 132
f 685 120 512
f 501 505 159
f 725 648 658
f 505 513 373
f 513 517 364
f 892 847 564
f 110 527 713
f 714 847 339
f 522 541 154
f 51 714 346
f 231 103 540
f 714 51 404
f 541 695 343
f 567 772 123
f 502 500 506
f 578 577 563
f 867 659 673
f 577 578 583
f 597 575 432
f 592 104 583
f 913 492 493
f 845 167 839
f 599 104 592
f 386 178 23
f 599 603 615
f 110 227 378
f 615 261 599
f 706 402 639
f 603 626 114
f 132 123 772
f 624 610 195
f 409 706 317
f 746 673 682
f 114 615 603
f 120 327 227
f 624 414 403
f 691 429 697
f 642 631 632
f 642 118 631
f 429 433 853
f 646 118 642
f 642 649 646
f 152 682 691
f 682 433 691
f 181 643 60
f 654 297 646
f 122 325 121
f 140 130 187
f 421 416 617
f 123 661 555
f 309 308 240
f 698 260 686
f 702 693 177
f 698 701 699
f 672 441 436
f 291 126 125
f 109 691 697
f 143 140 186
f 874 872 816
f 665 441 672
f 188 192 489
f 665 658 653
f 712 704 699
f 653 451 665
f 927 697 317
f 712 740 734
f 648 461 653
f 178 375 19
f 923 880 116
f 641 461 648
f 740 756 748
f 748 758 228
f 926 706 639
f 479 641 482
f 754 742 362
f 354 754 362
f 407 669 38
f 203 458 128
f 482 629 620
f 756 765 758
f 182 754 154
f 128 127 192
f 254 246 252
f 611 382 620
f 764 398 228
f 499 192 127
f 764 766 156
f 766 776 156
f 930 611 928
f 420 156 776
f 140 132 130
f 788 7 8
f 387 166 168
f 420 776 134
f 136 760 197
f 300 387 415
f 750 197 760
f 745 201 197
f 148 208 209
f 733 148 745
f 258 35 106
f 593 533 605
f 731 208 733
f 236 318 910
f 729 210 208
f 728 210 729
f 727 216 210
f 188 489 579
f 929 573 556
f 724 216 727
f 573 929 582
f 723 218 724
f 722 218 723
f 720 219 722
f 717 224 720
f 514 224 717
f 188 579 138
f 876 556 573
f 707 681 226
f 898 904 546
f 472 143 186
f 212 795 221
f 899 391 921
f 854 925 931
f 213 795 212
f 140 143 145
f 404 54 714
f 833 922 924
f 415 387 786
f 143 408 185
f 238 3 793
f 1 3 238
f 31 799 752
f 622 238 244
f 918 799 515
f 380 376 171
f 915 752 357
f 617 476 421
f 619 244 618
f 618 249 616
f 616 249 614
f 636 739 613
f 388 613 10
f 614 250 608
f 357 791 915
f 383 688 388
f 608 259 607
f 571 438 576
f 295 667 666
f 92 96 94
f 607 259 604
f 372 726 700
f 667 295 303
f 367 726 372
f 604 267 601
f 298 295 207
f 923 875 880
f 363 732 367
f 408 467 74
f 148 209 87
f 298 301 295
f 359 747 363
f 601 267 600
f 359 355 755
f 600 272 598
f 598 272 596
f 353 755 355
f 301 298 773
f 596 278 591
f 747 755 751
f 591 278 425
f 588 425 781
f 388 688 813
f 769 771 913
f 763 353 349
f 202 771 200
f 506 500 913
f 74 467 744
f 773 570 301
f 82 708 707
f 320 647 326
f 500 492 913
f 331 554 557
f 242 910 320
f 344 335 340
f 910 908 647
f 554 335 550
f 239 222 703
f 549 550 335
f 549 344 544
f 166 167 168
f 544 352 543
f 543 368 542
f 17 15 167
f 17 845 157
f 907 536 919
f 157 850 155
f 155 850 153
f 542 368 539
f 150 633 74
f 153 854 151
f 151 854 149
f 149 858 147
f 147 862 144
f 539 375 535
f 759 903 38
f 530 535 178
f 144 862 141
f 141 866 139
f 139 866 137
f 530 386 525
f 137 870 135
f 525 396 521
f 135 870 872
f 133 872 131
f 131 874 129
f 129 923 117
f 923 874 875
f 170 119 902
f 521 396 400
f 20 932 101
f 99 101 932
f 99 886 97
f 95 97 199
f 95 891 93
f 93 896 90
f 518 400 786
f 90 896 85
f 85 901 83
f 83 905 81
f 169 166 300
f 81 905 79
f 77 79 796
f 77 909 75
f 439 394 545
f 75 914 73
f 73 914 71
f 71 916 69
f 442 394 439
f 468 466 366
f 442 447 434
f 7 562 920
f 794 534 811
f 924 899 833
f 434 447 428
f 428 454 419
f 419 462 410
f 38 898 759
f 902 111 897
f 466 468 495
f 526 524 534
f 25 59 56
f 96 43 45
f 895 401 61
f 182 343 338
f 483 389 163
f 483 162 389
f 897 59 25
f 883 894 775
f 776 777 150
f 59 897 111
f 380 384 389
f 774 882 893
f 111 902 119
f 778 708 225
f 501 159 380
f 167 166 839
f 159 505 373
f 176 191 867
f 373 513 369
f 364 369 513
f 850 890 925
f 354 364 517
f 354 522 154
f 177 369 709
f 154 541 343
f 446 445 437
f 376 380 159
f 204 223 725
f 217 198 214
f 214 703 222
f 437 569 446
f 610 211 195
f 414 624 195
f 403 630 624
f 889 718 715
f 160 313 424
f 181 630 403
f 888 246 239
f 179 643 181
f 174 650 643
f 651 650 174
f 163 384 165
f 487 247 268
f 165 651 163
f 171 683 165
f 174 474 163
f 557 313 331
f 475 515 799
f 376 693 171
f 285 273 757
f 177 693 376
f 627 885 884
f 174 179 474
f 509 508 516
f 294 302 310
f 709 702 177
f 709 362 742
f 154 754 354
f 182 338 183
f 780 785 803
f 183 768 182
f 423 413 881
f 183 338 777
f 638 338 343
f 633 638 408
f 590 401 895
f 692 185 329
f 190 188 194
f 515 475 25
f 270 190 194
f 190 270 128
f 195 427 414
f 7 788 562
f 915 878 571
f 877 595 438
f 203 205 286
f 44 48 61
f 474 206 483
f 210 209 208
f 61 62 895
f 413 895 62
f 211 432 427
f 172 42 169
f 398 764 220
f 515 263 918
f 437 575 569
f 228 758 764
f 124 885 426
f 175 871 350
f 84 498 327
f 225 514 716
f 327 371 227
f 918 263 730
f 898 448 759
f 371 327 36
f 839 374 890
f 227 371 378
f 451 441 665
f 228 235 748
f 444 180 457
f 233 231 107
f 187 868 345
f 759 448 586
f 189 292 868
f 734 748 235
f 653 461 826
f 924 922 237
f 292 193 196
f 446 671 394
f 461 641 479
f 922 551 237
f 391 237 455
f 482 641 629
f 918 868 799
f 196 200 293
f 771 293 200
f 558 455 237
f 281 287 894
f 894 893 281
f 248 566 241
f 257 251 104
f 255 430 453
f 257 261 265
f 509 775 287
f 260 266 676
f 509 516 524
f 265 261 108
f 523 516 531
f 322 316 523
f 273 252 888
f 265 271 262
f 811 534 316
f 316 315 811
f 676 686 260
f 366 466 581
f 478 495 468
f 330 547 315
f 547 336 552
f 366 471 468
f 760 495 473
f 657 471 284
f 336 342 553
f 553 900 552
f 832 900 553
f 865 878 791
f 792 284 4
f 31 571 576
f 286 288 291
f 438 571 877
f 906 864 863
f 4 790 792
f 8 7 319
f 303 295 301
f 291 304 306
f 570 773 567
f 739 617 392
f 617 416 392
f 306 311 309
f 309 311 308
f 170 628 668
f 613 739 10
f 739 392 10
f 656 675 668
f 656 815 675
f 680 678 365
f 813 613 388
f 324 333 314
f 687 198 668
f 379 688 383
f 295 666 207
f 815 656 636
f 377 694 379
f 325 498 84
f 689 333 266
f 334 696 689
f 700 377 372
f 861 834 860
f 703 721 239
f 732 726 367
f 834 861 256
f 348 341 704
f 747 732 363
f 356 358 704
f 735 888 721
f 370 358 356
f 735 264 757
f 735 273 888
f 755 747 359
f 369 364 362
f 353 763 755
f 647 761 326
f 761 349 326
f 376 373 177
f 779 757 264
f 780 779 279
f 384 380 171
f 235 395 19
f 736 871 737
f 562 788 917
f 910 647 320
f 785 804 803
f 414 406 403
f 256 323 803
f 813 675 815
f 415 786 400
f 427 419 414
f 422 420 705
f 432 428 427
f 430 489 499
f 587 580 590
f 437 434 432
f 445 442 434
f 446 394 445
f 671 586 448
f 819 609 627
f 456 449 450
f 455 563 248
f 865 791 769
f 581 579 463
f 645 652 817
f 644 464 469
f 652 662 715
f 874 923 129
f 715 664 652
f 694 812 688
f 477 64 126
f 750 760 473
f 485 655 477
f 465 715 718
f 507 207 666
f 465 774 494
f 865 486 480
f 812 675 813
f 485 484 655
f 207 202 298
f 883 504 825
f 493 865 769
f 783 782 504
f 679 484 485
f 202 200 298
f 196 490 200
f 196 193 490
f 877 859 476
f 302 803 323
f 189 496 193
f 814 806 810
f 168 719 789
f 821 814 810
f 391 899 924
f 713 527 532
f 467 408 472
f 302 294 887
f 786 787 518
f 538 519 532
f 561 532 527
f 926 35 33
f 538 532 660
f 540 555 561
f 551 586 640
f 319 241 565
f 660 532 561
f 113 161 746
f 161 176 867
f 8 319 565
f 223 247 635
f 781 585 784
f 620 629 393
f 887 780 302
f 269 390 393
f 671 640 586
f 781 784 588
f 599 589 603
f 393 290 611
f 626 603 606
f 928 290 305
f 623 238 622
f 625 1 623
f 774 893 894
f 312 332 912
f 626 632 631
f 332 339 847
f 847 892 332
f 757 887 285
f 847 714 54
f 793 3 8
f 732 807 726
f 858 931 857
f 675 812 687
f 168 167 15
f 273 735 757
f 920 921 7
f 402 385 639
f 167 845 17
f 638 633 338
f 646 649 663
f 650 663 649
f 845 850 157
f 888 239 721
f 663 654 646
f 706 409 48
f 850 854 153
f 676 654 663
f 429 409 317
f 661 692 660
f 854 858 149
f 676 663 686
f 858 862 147
f 433 429 691
f 678 680 677
f 699 711 712
f 712 734 356
f 711 710 753
f 862 866 141
f 712 711 740
f 682 436 827
f 734 740 748
f 866 870 137
f 214 687 808
f 748 756 758
f 664 816 652
f 872 133 135
f 198 687 214
f 754 182 768
f 872 874 131
f 665 659 658
f 758 765 766
f 658 648 653
f 766 764 758
f 776 770 777
f 668 198 170
f 117 923 116
f 787 786 789
f 929 330 822
f 533 822 322
f 556 336 330
f 531 322 523
f 899 920 833
f 662 444 889
f 346 323 256
f 491 482 620
f 116 880 911
f 911 20 116
f 382 491 620
f 911 932 20
f 932 886 99
f 645 443 662
f 930 382 611
f 382 930 516
f 886 824 199
f 605 531 930
f 491 508 848
f 628 170 902
f 256 347 346
f 482 848 479
f 891 896 93
f 347 256 861
f 820 617 739
f 866 819 817
f 605 594 593
f 896 901 85
f 929 593 582
f 612 881 885
f 901 905 83
f 826 451 653
f 451 457 180
f 672 659 665
f 441 180 851
f 79 905 796
f 436 673 672
f 436 851 827
f 909 914 75
f 682 673 436
f 914 916 71
f 584 902 897
f 876 86 342
f 69 916 1
f 829 433 827
f 700 808 694
f 788 3 916
f 853 829 417
f 409 61 48
f 402 48 855
f 870 817 816
f 855 29 360
f 874 816 664
f 385 361 102
f 830 880 875
f 576 897 25
f 819 634 817
f 68 69 1
f 106 856 730
f 743 736 738
f 910 242 236
f 862 857 819
f 744 879 102
f 880 830 831
f 840 528 843
f 401 846 44
f 803 302 780
f 769 791 357
f 878 915 791
f 831 911 880
f 918 873 345
f 576 25 475
f 799 31 475
f 841 29 846
f 879 856 102
f 106 639 385
f 573 564 876
f 911 831 802
f 342 556 876
f 337 339 332
f 25 510 515
f 350 29 841
f 564 573 892
f 892 582 912
f 510 25 56
f 864 906 837
f 312 328 337
f 929 822 593
f 33 35 258
f 871 360 29
f 840 860 835
f 864 158 863
f 29 855 44
f 916 914 917
f 808 687 812
f 594 307 312
f 307 305 328
f 916 917 788
f 33 56 927
f 840 835 809
f 307 594 605
f 736 743 361
f 531 516 930
f 290 277 305
f 852 109 927
f 318 835 860
f 21 844 529
f 852 59 112
f 620 393 611
f 102 743 744
f 112 113 852
f 751 763 762
f 647 785 762
f 805 747 751
f 252 268 254
f 230 835 229
f 487 641 635
f 637 879 467
f 124 851 164
f 809 230 221
f 161 142 176
f 807 732 805
f 247 234 254
f 230 809 835
f 808 700 807
f 345 637 186
f 176 184 191
f 812 694 808
f 204 849 223
f 849 204 191
f 813 688 812
f 635 648 725
f 849 184 198
f 815 613 813
f 815 636 613
f 217 223 849
f 659 191 204
f 217 234 223
f 191 184 849
f 859 480 421
f 795 213 511
f 245 461 243
f 878 865 859
f 802 886 932
f 191 659 867
f 452 718 889
f 223 234 247
f 176 142 184
f 246 254 234
f 865 493 486
f 293 771 357
f 268 247 254
f 771 769 357
f 805 264 735
f 268 252 390
f 161 113 112
f 486 493 488
f 390 252 274
f 867 673 746
f 264 751 279
f 274 277 390
f 746 682 152
f 281 848 287
f 827 433 682
f 808 703 214
f 152 691 109
f 109 852 113
f 476 859 421
f 296 305 277
f 476 595 877
f 305 307 928
f 196 293 292
f 595 476 820
f 726 807 700
f 752 293 357
f 307 328 312
f 310 328 305
f 56 59 852
f 292 752 799
f 328 310 323
f 886 825 824
f 312 337 332
f 807 703 808
f 891 824 782
f 193 292 189
f 844 21 22
f 429 853 409
f 109 697 927
f 56 33 510
f 105 559 553
f 339 337 346
f 346 714 339
f 51 346 347
f 317 926 927
f 564 690 876
f 863 844 232
f 799 868 292
f 510 33 258
f 843 528 529
f 844 863 842
f 861 840 843
f 861 158 347
f 861 860 840
f 752 915 31
f 158 843 842
f 843 158 861
f 842 529 844
f 919 837 906
f 906 232 907
f 809 528 840
f 730 873 918
f 730 856 873
f 873 856 879
f 856 106 385
f 817 634 645
f 837 919 838
f 817 652 816
f 919 906 907
f 919 536 537
f 743 102 361
f 904 669 838
f 898 669 904
f 669 898 38
f 703 807 721
f 405 404 838
f 669 405 838
f 922 833 836
f 294 285 887
f 361 385 402
f 869 645 634
f 830 875 664
f 916 3 1
f 864 51 347
f 402 855 361
f 909 801 914
f 397 890 374
f 48 44 855
f 796 909 77
f 879 637 873
f 901 798 905
f 580 925 397
f 48 402 706
f 896 800 901
f 891 823 896
f 409 62 61
f 853 62 409
f 881 413 417
f 417 62 853
f 86 407 299
f 459 893 882
f 199 891 95
f 830 465 831
f 829 426 417
f 426 829 124
f 426 881 417
f 124 829 827
f 433 829 853
f 886 802 825
f 774 894 883
f 851 124 827
f 164 884 124
f 441 851 436
f 180 164 851
f 443 869 164
f 911 802 932
f 715 830 664
f 874 664 875
f 736 361 360
f 451 180 441
f 457 452 889
f 889 444 457
f 866 817 870
f 106 35 639
f 459 718 452
f 826 452 457
f 452 826 245
f 451 826 457
f 862 819 866
f 858 857 862
f 461 245 826
f 459 882 718
f 479 243 461
f 854 931 858
f 850 925 854
f 846 401 580
f 845 890 850
f 491 848 482
f 848 281 479
f 825 494 883
f 382 508 491
f 900 832 767
f 508 287 848
f 896 823 800
f 839 890 845
f 504 782 824
f 42 374 839
f 516 508 382
f 908 910 318
f 534 524 523
f 552 818 548
f 42 172 173
f 901 800 798
f 818 552 900
f 533 322 531
f 871 175 737
f 868 187 189
f 22 232 844
f 593 822 533
f 822 315 316
f 929 556 330
f 330 315 822
f 838 919 537
f 904 838 537
f 318 860 834
f 908 318 834
f 465 830 715
f 556 342 336
f 105 836 559
f 833 559 836
f 29 44 846
f 908 834 804
f 562 917 828
f 299 836 105
f 818 900 767
f 832 553 559
f 562 832 920
f 811 315 548
f 828 801 821
f 801 828 917
f 821 797 814
f 836 299 903
f 401 590 580
f 797 821 801
f 905 798 796
f 796 814 797
f 810 548 818
f 814 798 806
f 798 814 796
f 909 796 797
f 811 548 810
f 413 587 590
f 404 51 837
f 51 864 837
f 837 838 404
f 909 797 801
f 529 842 843
f 158 842 863
f 232 906 863
f 800 806 798
f 529 528 511
f 794 811 806
f 785 908 804
f 785 647 908
f 859 877 878
f 526 534 794
f 877 571 878
f 571 31 915
f 173 351 42
f 524 783 509
f 350 173 175
f 29 350 871
f 823 526 794
f 783 524 526
f 526 823 782
f 42 351 374
f 841 374 351
f 504 775 783
f 509 783 775
f 782 823 891
f 885 124 884
f 887 757 779
f 914 801 917
f 426 885 881
f 890 397 925
f 825 504 824
f 775 504 883
f 925 587 931
f 587 925 580
f 802 494 825
f 785 279 762
f 494 831 465
f 831 494 802
f 894 287 775
f 590 895 413
f 438 897 576
f 884 164 869
f 762 279 751
f 423 931 587
f 587 413 423
f 931 423 857
f 762 761 647
f 617 820 476
f 595 820 621
f 751 755 763
f 893 459 243
f 751 264 805
f 609 857 423
f 423 881 612
f 662 443 444
f 721 805 735
f 621 584 595
f 857 609 819
f 443 645 869
f 612 885 627
f 636 621 820
f 628 902 584
f 805 721 807
