# curvenet mesh_build output (body space) of Gate 8 run pen-0.05.txt, mesh_edge 0.05
v -0.000834504 0.545012534 0.199611366
v -0.197117716 0.564198077 0.051300906
v -0.205784619 0.787105978 -0.049622081
v -0.000149655 0.932061732 0.178539664
v -0.077502251 0.878063917 -0.201906711
v -0.000112715 0.952752292 0.177429274
v -0.035756242 0.850549996 0.166911677
v -0.000758319 0.587828815 0.197290063
v -0.198206797 0.902611494 -0.006151385
v 0.164140299 0.952752292 -0.131006703
v -0.040094964 0.565616906 0.179772764
v 0.134744197 0.910776556 -0.172739714
v -0.118275434 0.559425712 0.142391667
v -0.105039075 0.696695924 0.142400622
v 0.017125905 0.524922252 -0.251646876
v -0.188262820 0.846235931 -0.085807659
v 0.035120621 0.524922252 -0.242952779
v -0.036461174 0.917638123 0.162881091
v -0.086406246 0.915899515 -0.195331618
v 0.218420208 0.524922252 -0.001864528
v -0.000225536 0.889021635 0.180890635
v -0.112875186 0.652021706 0.140697673
v -0.155056760 0.640136659 0.119963646
v -0.182055101 0.636533260 0.078978412
v 0.108766206 0.838741124 -0.189692974
v -0.159376472 0.891392708 -0.152191073
v -0.202218130 0.634822369 0.027663432
v 0.071289100 0.662837863 -0.217708975
v -0.036866162 0.815607011 -0.224521071
v -0.120568499 0.914852679 0.124755122
v -0.079057284 0.913633227 0.143795356
v -0.041344065 0.773922145 -0.225286826
v -0.034936242 0.663670361 -0.235545084
v -0.218088716 0.587768316 -0.052738365
v 0.099724732 0.765672266 -0.198177487
v -0.167551965 0.738967180 -0.155896068
v -0.204053462 0.727224767 0.007943749
v -0.219385043 0.632500112 -0.021817764
v -0.105928026 0.869747519 0.133887693
v -0.155087218 0.920787394 0.100572132
v -0.170616880 0.904168904 0.067445993
v -0.183604583 0.919565737 0.030069655
v -0.107931949 0.741400898 0.138932750
v 0.173454821 0.554918051 0.105518796
v -0.185476914 0.922037005 -0.079514094
v -0.143279776 0.922329128 -0.166913971
v -0.135016456 0.601352870 -0.191059008
v 0.128280878 0.952752292 -0.173842013
v -0.155606359 0.643123388 -0.177825212
v -0.191610754 0.632465184 -0.113358445
v 0.217914701 0.647415161 -0.027296865
v 0.157631174 0.579325438 -0.179470792
v -0.124414235 0.604542315 0.137340784
v 0.069635272 0.785076439 0.154833838
v -0.155644074 0.565019011 0.123156428
v -0.151200667 0.883634508 0.107657589
v -0.182174295 0.564520001 0.089473717
v -0.171077013 0.602571189 0.107672386
v -0.191423804 0.601192117 0.060316171
v -0.055103831 0.952175260 0.152457803
v -0.172591642 0.854889512 0.070327885
v 0.104577415 0.640181363 -0.202902123
v -0.212325305 0.594383121 0.007874867
v -0.048836585 0.910876334 -0.212703168
v -0.185823947 0.879971147 0.030842204
v -0.201669365 0.855440259 -0.007793898
v -0.224076301 0.558337033 -0.020010456
v -0.000870759 0.524641275 0.200715646
v 0.017126979 0.524922252 0.192038566
v -0.208251581 0.630600452 -0.071025655
v 0.035122763 0.524922252 0.183346644
v -0.203704864 0.559414625 -0.094240181
v 0.053118546 0.524922252 0.174654722
v -0.132501096 0.558193207 -0.194804743
v 0.071114331 0.524922252 0.165962785
v -0.197737634 0.596692741 -0.103474334
v 0.089110114 0.524922252 0.157270849
v 0.031337027 0.843197942 -0.224917084
v 0.107105896 0.524922252 0.148578927
v -0.177143231 0.609010518 -0.153954998
v 0.125101686 0.524922252 0.139887005
v -0.186047330 0.565981567 -0.138263747
v 0.143097460 0.524922252 0.131195083
v -0.187492102 0.737839580 -0.106911898
v 0.160490528 0.524922252 0.121945389
v 0.070410147 0.697809994 0.158597559
v -0.120404124 0.887824833 -0.181460395
v -0.198567286 0.910793126 -0.045694008
v -0.204504892 0.744177759 -0.060836960
v 0.174776852 0.524922252 0.109820664
v -0.164744616 0.567101359 -0.175848946
v -0.072597437 0.561069608 -0.223581150
v 0.182050750 0.524922252 0.091206461
v -0.103244744 0.568085611 -0.208365574
v 0.189324632 0.524922252 0.072592266
v -0.187944770 0.738221824 0.048662461
v 0.196598530 0.524922252 0.053978074
v -0.038965028 0.579000294 -0.238786638
v 0.203872412 0.524922252 0.035363883
v -0.081453100 0.605849087 -0.216695592
v 0.211146310 0.524922252 0.016749684
v 0.046395253 0.707028985 -0.227013513
v -0.172510922 0.741832554 0.087597445
v -0.210860699 0.554699719 0.017574606
v 0.124598011 0.800657690 -0.184189215
v -0.073432639 0.952320576 0.144157395
v -0.146675676 0.745109499 0.119416431
v -0.123467103 0.778155565 0.129742518
v 0.142252371 0.765261173 -0.177207157
v -0.144896835 0.806737959 0.117382593
v -0.079560466 0.780728519 0.150760382
v -0.161930710 0.776566267 0.105203994
v -0.147092149 0.843662560 0.113920622
v -0.072845280 0.834643483 0.150976509
v -0.168811798 0.812522531 0.086457022
v 0.225694090 0.524922252 -0.020478716
v 0.225701749 0.524922252 -0.039090320
v -0.178999007 0.774854898 0.066050209
v 0.180248171 0.812293231 -0.111725785
v -0.195647910 0.769994378 0.023192184
v 0.031882931 0.562779069 0.183222920
v -0.110090300 0.952611029 0.127556577
v -0.189764008 0.841146529 0.026878223
v 0.183376312 0.667857111 -0.125674963
v -0.091761485 0.952465832 0.135856971
v -0.201199710 0.870865107 -0.046551239
v -0.211057261 0.758959413 -0.018481297
v -0.203963429 0.828873813 -0.046793219
v 0.218431532 0.524922252 -0.057699319
v -0.186718315 0.885628402 -0.082795925
v 0.211144328 0.524922252 -0.076308325
v -0.173585504 0.908194184 -0.113864116
v 0.203857139 0.524922252 -0.094917327
v -0.110560641 0.820223331 0.134009331
v 0.196569949 0.524922252 -0.113526307
v -0.193365827 0.770373344 -0.085908428
v 0.189282760 0.524922252 -0.132135302
v -0.178229049 0.777358770 -0.124199748
v 0.181995556 0.524922252 -0.150744304
v -0.149881840 0.843064487 -0.167499408
v 0.174708366 0.524922252 -0.169353306
v -0.158363461 0.790414929 -0.163878486
v -0.054847009 0.525030434 -0.234255344
v 0.160467297 0.524922252 -0.181523189
v 0.164088830 0.796099603 -0.154225111
v -0.072839744 0.525066316 -0.225560144
v 0.143089041 0.524922252 -0.190788150
v -0.090832502 0.525102198 -0.216864929
v 0.125094324 0.524922252 -0.199482232
v -0.127817929 0.756690562 -0.185480997
v 0.107099585 0.524922252 -0.208176345
v -0.108825229 0.525138080 -0.208169729
v 0.089104839 0.524922252 -0.216870472
v -0.126817957 0.525174022 -0.199474514
v 0.071110114 0.524922252 -0.225564569
v -0.144810706 0.525209904 -0.190779299
v 0.053115379 0.524922252 -0.234258667
v 0.076318644 0.835461497 0.149106786
v -0.118563861 0.801208198 -0.187392190
v -0.162189260 0.525246620 -0.181515440
v 0.180761859 0.769993544 -0.116957210
v -0.176436052 0.525287986 -0.169352159
v -0.183721438 0.525339305 -0.150743902
v -0.191006824 0.525390565 -0.132135674
v -0.040324204 0.807747304 0.167206958
v -0.198292211 0.525441885 -0.113527402
v -0.205577612 0.525493205 -0.094919130
v -0.212862998 0.525544524 -0.076310873
v -0.000792903 0.567870975 -0.257494539
v -0.220148385 0.525595784 -0.057702634
v -0.037958011 0.700082660 0.174224466
v -0.000716931 0.610858798 -0.254645497
v -0.078887001 0.626926064 0.158237904
v -0.104485445 0.843606114 -0.191718459
v -0.000641213 0.653705120 -0.251805842
v -0.040485501 0.607770383 0.177628934
v -0.065964445 0.841978192 -0.209558621
v -0.072257221 0.725757837 0.156847030
v -0.227433786 0.525647104 -0.039094374
v 0.197568491 0.653553963 -0.091588423
v -0.080559812 0.577625990 0.159719139
v -0.073526226 0.674879670 0.158596054
v 0.179748610 0.855271280 -0.105834097
v -0.058240987 0.879758000 0.155104354
v -0.227441624 0.525646687 -0.020483863
v -0.000414091 0.782219946 -0.243288428
v -0.212896153 0.525542200 0.016741531
v -0.205622151 0.525489986 0.035354219
v -0.000338774 0.824837208 -0.240463957
v -0.142429158 0.678811073 0.125008404
v 0.191964790 0.791520953 -0.083999977
v -0.198348135 0.525437713 0.053966939
v -0.133405849 0.714184165 0.127827749
v -0.191074133 0.525385499 0.072579637
v -0.183800131 0.525333285 0.091192335
v -0.000263278 0.867556989 -0.237632677
v 0.193637133 0.832036614 -0.072641522
v -0.176526129 0.525281012 0.109805040
v -0.163690493 0.709446549 0.107632160
v -0.162254587 0.525119245 0.121937662
v -0.144864321 0.524908781 0.131182194
v -0.000188031 0.910135150 -0.234810799
v -0.126866415 0.524688721 0.139864013
v -0.108868517 0.524468660 0.148545817
v -0.090870619 0.524248660 0.157227650
v -0.072872721 0.524028659 0.165909469
v -0.173492625 0.672753572 0.095446661
v -0.054874830 0.523808599 0.174591303
v -0.036876932 0.523588538 0.183273107
v -0.018879037 0.523368537 0.191954926
v -0.180840194 0.705399454 0.071757548
v 0.036571156 0.952752292 0.160816625
v 0.018229220 0.952752292 0.169122934
v -0.000881144 0.523148477 0.200636759
v -0.190677509 0.669197857 0.052025821
v -0.046215478 0.732635915 -0.225847408
v -0.195049807 0.703061521 0.035762496
v -0.184949026 0.808335423 0.045330320
v -0.209707379 0.676866889 0.001347520
v -0.214954168 0.712993383 -0.032988891
v 0.054913096 0.952752292 0.152510285
v -0.203372225 0.806851149 -0.003755968
v 0.206493571 0.794691265 -0.042030219
v -0.036774978 0.952030003 0.160758227
v -0.076373838 0.805745959 -0.207268462
v -0.018437596 0.952776313 -0.223675966
v -0.036762498 0.952800035 -0.215365618
v -0.055087391 0.952823699 -0.207055271
v 0.091596968 0.952752233 0.135897636
v 0.073255032 0.952752292 0.144203961
v 0.205148980 0.857293427 -0.031717733
v -0.038127769 0.755914330 0.171065480
v -0.073412277 0.952847421 -0.198744923
v -0.091737166 0.952871084 -0.190434575
v -0.110062055 0.952894866 -0.182124227
v 0.109938912 0.952752233 0.127591312
v -0.128386915 0.952918530 -0.173813894
v -0.213655874 0.670905471 -0.049274381
v -0.200638518 0.705356896 -0.078215726
v -0.190425068 0.806710064 -0.087189548
v -0.173991352 0.821326256 -0.127941564
v 0.128280848 0.952752233 0.119284980
v -0.084357888 0.765515089 -0.205996662
v -0.196439475 0.667234480 -0.095433764
v -0.182881042 0.699507236 -0.124854401
v -0.039225146 0.624519706 -0.235989586
v -0.145489782 0.952943146 -0.164362371
v -0.157126933 0.952971816 -0.149806872
v -0.165200338 0.690072894 -0.165771842
v -0.171203300 0.953036010 -0.112106651
v -0.178241476 0.953068137 -0.093256548
v 0.183115929 0.843490541 0.042989016
v -0.185279667 0.953100264 -0.074406430
v 0.199813053 0.822784543 0.001612191
v -0.192317843 0.953132391 -0.055556305
v -0.199356034 0.953164518 -0.036706191
v -0.179170579 0.657575190 -0.141077027
v -0.199368283 0.953164220 -0.017856352
v 0.203664646 0.771348834 -0.000550857
v -0.192340761 0.953131557 0.000993224
v -0.185301080 0.953098774 0.019842759
v -0.178261384 0.953065991 0.038692322
v 0.080967426 0.801638663 -0.205145836
v -0.171221703 0.953033268 0.057541858
v 0.185431734 0.917432189 0.025098376
v -0.164182007 0.953000486 0.076391429
v -0.157142326 0.952967703 0.095240958
v -0.145519719 0.952889323 0.109808035
v 0.188894778 0.797603428 0.034794196
v -0.128419146 0.952756286 0.119256169
v 0.173307851 0.816037774 0.072904296
v -0.132598057 0.713602066 -0.185639441
v -0.133510709 0.674087405 -0.187504038
v -0.112087689 0.640830755 -0.199858040
v -0.098664515 0.682900369 -0.203894168
v -0.091545634 0.724179447 -0.204930425
v 0.178150088 0.777542055 0.065891527
v -0.035783213 0.865944445 -0.221635625
v 0.161084235 0.903026521 0.092008166
v -0.071856573 0.650925636 -0.218707830
v -0.059329554 0.693276227 -0.222294629
v -0.164165109 0.953003883 -0.130956754
v -0.220170155 0.525594473 -0.001871157
v -0.036854304 0.524994493 -0.242950544
v -0.018861551 0.524958670 -0.251645774
v -0.000113726 0.952432513 0.177426830
v 0.192809433 0.651766598 0.045951430
v -0.018446166 0.951884806 0.169058621
v 0.215057120 0.694467425 -0.031335223
v 0.197964877 0.906102479 -0.006951779
v 0.050078891 0.877265811 -0.214199051
v -0.000489812 0.739373624 -0.246128097
v 0.162122890 0.911154568 -0.143184960
v 0.177886620 0.672791123 0.081201918
v 0.209086969 0.665192187 -0.059681963
v 0.166871548 0.683178544 -0.163174599
v 0.221128955 0.560877740 -0.043537065
v 0.069935039 0.912293196 0.147875801
v 0.045032840 0.869996190 0.161420807
v 0.163658991 0.782775044 0.100688472
v 0.049310226 0.759096861 -0.222284287
v 0.154573619 0.827545464 0.108481430
v 0.037473388 0.822620690 0.167386487
v -0.173100114 0.864946425 -0.122990750
v 0.038638331 0.805297256 -0.224092171
v 0.101603411 0.921128035 -0.187993780
v 0.118117891 0.837312937 0.129338294
v 0.095171802 0.879866123 -0.193608016
v 0.208119720 0.623820364 -0.069029510
v 0.208836675 0.625473857 0.008542794
v -0.000454490 0.759494364 0.187948197
v 0.155983478 0.627275407 0.119258307
v 0.147451937 0.834396005 -0.169645607
v 0.168836936 0.833480239 -0.137840569
v 0.120755017 0.642446041 0.136748925
v -0.000529823 0.716934204 0.190265521
v -0.000302256 0.845694840 0.183251828
v 0.104026005 0.920375049 0.132005081
v -0.000606565 0.673549294 0.192626446
v 0.145409495 0.952752233 0.109844506
v 0.079732224 0.576092005 -0.218516305
v 0.188030779 0.704173684 0.050857689
v 0.135021806 0.911156416 0.117541432
v -0.000681930 0.630958200 0.194944158
v 0.198980406 0.701381326 -0.080514185
v 0.157088012 0.952752233 0.095309362
v 0.188406721 0.919135213 -0.071825497
v 0.133511081 0.795058250 0.123656139
v 0.143810973 0.564004362 0.128927976
v 0.118309729 0.693100333 0.135672554
v -0.038807683 0.652506411 0.176308438
v 0.188279703 0.564217806 0.069775797
v 0.202896968 0.558663011 0.033145726
v 0.137853712 0.657924056 -0.185812384
v 0.206732556 0.577768505 -0.079609416
v 0.192402110 0.562724531 -0.118471906
v 0.179203048 0.580123007 -0.149555460
v 0.130050138 0.566775680 -0.194721162
v 0.107737198 0.771146536 0.137300879
v 0.073294617 0.623149157 -0.218975782
v 0.027478008 0.566231251 -0.244318262
v 0.036514319 0.660484672 -0.234502569
v 0.031876910 0.782567382 0.172069743
v 0.044438437 0.610702276 0.175024122
v 0.100557558 0.805577338 0.139234155
v 0.069430329 0.567291617 0.164887950
v 0.097789876 0.877183378 0.137145489
v 0.107477039 0.565017819 0.146612778
v 0.164140299 0.952752233 0.076449677
v 0.090965651 0.606993794 0.152717069
v 0.131310493 0.600286901 0.133525178
v 0.068808965 0.841229796 -0.208076403
v 0.171192586 0.952752233 0.057590012
v 0.141901925 0.869325042 0.115468860
v 0.178244859 0.952752233 0.038730353
v 0.178518504 0.633806288 0.085031994
v 0.167422131 0.859485567 0.081895448
v 0.032572702 0.914212465 -0.219707802
v 0.185297132 0.952752233 0.019870678
v 0.068048045 0.913008392 -0.203721285
v 0.175784096 0.894263864 0.054563932
v -0.000565309 0.696653843 -0.248959377
v 0.192349419 0.952752233 0.001010997
v 0.192394316 0.871434271 0.013755445
v -0.000868812 0.524922252 -0.260340989
v 0.220431894 0.602954745 -0.034934454
v 0.199401692 0.952752233 -0.017848661
v 0.191143870 0.876938581 -0.071677476
v 0.123628668 0.736341417 -0.188280642
v 0.200207740 0.905785918 -0.042535342
v 0.158270717 0.724657178 -0.168933272
v 0.199401706 0.952752233 -0.036708321
v 0.168598369 0.755346417 -0.150226235
v 0.039647039 0.610894144 -0.235922858
v 0.176602200 0.901659310 -0.106364213
v 0.050882097 0.743908346 0.165534243
v 0.192349434 0.952752233 -0.055568002
v 0.195731416 0.749230325 -0.081114866
v 0.185297146 0.952752233 -0.074427664
v 0.190821782 0.613307774 -0.114883557
v 0.211866304 0.739897728 -0.038753051
v 0.087009162 0.726012766 -0.206555083
v 0.178244859 0.952752292 -0.093287356
v 0.171529174 0.629883707 -0.160306692
v 0.190230846 0.750389695 0.038550138
v 0.165420935 0.870103061 -0.141044006
v 0.180601671 0.719574332 -0.124965541
v 0.171192601 0.952752292 -0.112147003
v 0.136815608 0.614395380 -0.188707769
v 0.173300326 0.742194593 0.083241165
v 0.140134424 0.743830204 0.122622445
v 0.157088026 0.952752292 -0.149866357
v 0.105629310 0.597781181 -0.204782397
v 0.137387410 0.872210860 -0.173553601
v 0.098049007 0.683647573 -0.203607753
v 0.031982526 0.706798911 0.176084504
v 0.092816830 0.735347986 0.146102771
v 0.038334835 0.660463452 0.175669149
v 0.080153696 0.652116179 0.155928314
v -0.000377734 0.802957237 0.185580254
v 0.164265320 0.705730021 0.106085189
v 0.173498034 0.593593478 0.102771297
v 0.033197287 0.913451493 0.164449349
v 0.155647263 0.665129006 0.116779283
v -0.000112714 0.952752411 -0.231986314
v 0.194289163 0.603120744 0.048961677
v 0.018229231 0.952752292 -0.223679990
v 0.036571153 0.952752292 -0.215373665
v 0.130989879 0.699601769 -0.186789095
v 0.215193942 0.576939762 -0.000876451
v 0.054913104 0.952752292 -0.207067341
v 0.073255017 0.952752292 -0.198761001
v 0.091597021 0.952752292 -0.190454662
v 0.204348981 0.722431898 0.005357699
v 0.109938934 0.952752292 -0.182148337
v 0.145409510 0.952752292 -0.164401531
v 0.205590576 0.675105870 0.009524368
f 174 177 225
f 3 240 136
f 52 338 389
f 89 127 3
f 114 184 39
f 111 178 232
f 11 206 208
f 206 11 181
f 44 329 83
f 14 178 43
f 199 207 190
f 2 59 63
f 324 176 8
f 104 63 67
f 220 89 239
f 171 331 319
f 170 72 168
f 120 222 127
f 245 84 36
f 72 82 164
f 120 218 222
f 249 257 245
f 44 332 402
f 171 319 316
f 272 273 249
f 306 12 308
f 272 150 276
f 275 273 272
f 92 94 100
f 276 281 275
f 118 115 218
f 169 98 172
f 276 243 216
f 281 276 216
f 280 33 246
f 32 216 243
f 33 362 175
f 29 225 177
f 125 30 31
f 31 30 39
f 30 56 39
f 56 41 61
f 41 42 65
f 46 87 26
f 21 18 184
f 184 7 21
f 5 174 87
f 87 19 5
f 4 18 21
f 313 105 25
f 308 12 394
f 165 400 317
f 400 165 232
f 18 288 224
f 112 110 115
f 8 11 1
f 181 205 206
f 205 181 13
f 8 121 344
f 53 13 181
f 64 19 233
f 53 58 55
f 64 278 5
f 53 181 173
f 234 19 235
f 13 55 201
f 240 3 128
f 134 108 111
f 184 31 39
f 55 13 53
f 5 19 64
f 57 58 59
f 41 56 40
f 57 55 58
f 59 2 57
f 2 104 192
f 177 174 5
f 23 24 58
f 63 104 2
f 65 61 41
f 66 123 65
f 9 126 66
f 9 65 42
f 63 38 34
f 34 67 63
f 126 128 66
f 344 324 8
f 70 34 38
f 374 321 155
f 34 70 76
f 119 183 197
f 394 12 293
f 174 140 87
f 76 50 80
f 361 353 349
f 140 26 87
f 152 74 94
f 74 91 47
f 235 19 87
f 94 92 148
f 47 94 74
f 100 98 92
f 246 33 175
f 100 94 47
f 98 100 246
f 241 240 16
f 344 121 346
f 175 172 246
f 362 33 281
f 189 186 29
f 39 134 114
f 134 110 108
f 222 66 128
f 110 134 113
f 108 110 112
f 113 56 61
f 112 115 118
f 282 46 26
f 218 61 123
f 118 218 120
f 222 128 3
f 3 127 222
f 89 3 136
f 88 9 258
f 130 45 132
f 140 241 304
f 241 140 142
f 142 138 241
f 142 140 159
f 150 159 243
f 159 225 243
f 250 132 45
f 278 177 5
f 346 73 75
f 7 317 21
f 317 7 165
f 113 134 39
f 7 184 114
f 114 165 7
f 23 53 22
f 24 215 27
f 12 416 392
f 178 171 232
f 178 14 182
f 181 11 176
f 182 171 178
f 22 14 190
f 193 199 190
f 190 14 193
f 211 207 199
f 211 215 207
f 215 211 217
f 217 219 215
f 37 219 217
f 31 184 18
f 31 18 60
f 220 219 37
f 238 219 220
f 238 220 239
f 239 245 244
f 244 238 239
f 240 241 138
f 76 72 34
f 245 257 244
f 245 36 249
f 272 249 36
f 271 302 300
f 202 196 278
f 272 276 275
f 189 29 278
f 281 280 275
f 216 32 292
f 362 216 292
f 32 243 225
f 29 32 225
f 46 237 235
f 281 33 280
f 87 46 235
f 100 280 246
f 100 274 280
f 47 91 80
f 103 107 112
f 42 41 264
f 49 80 257
f 120 127 37
f 9 42 260
f 256 45 88
f 27 59 24
f 80 82 76
f 251 250 45
f 144 52 337
f 138 142 36
f 159 150 142
f 70 38 238
f 199 193 107
f 16 128 126
f 61 115 113
f 65 123 61
f 41 40 266
f 66 65 9
f 345 158 54
f 61 218 115
f 63 27 38
f 304 132 26
f 63 59 27
f 98 169 284
f 46 282 248
f 248 237 46
f 27 219 38
f 52 389 384
f 181 176 173
f 208 209 1
f 58 53 23
f 13 203 204
f 22 190 23
f 173 22 53
f 55 57 198
f 58 24 59
f 2 192 194
f 67 185 283
f 67 179 185
f 30 40 56
f 67 170 179
f 305 78 352
f 30 125 122
f 74 152 154
f 70 244 50
f 70 50 76
f 340 28 62
f 160 91 156
f 316 232 171
f 160 162 91
f 80 49 47
f 352 78 291
f 176 324 331
f 202 278 64
f 92 98 143
f 246 172 98
f 165 111 232
f 278 196 189
f 4 288 18
f 118 120 96
f 222 218 123
f 228 64 233
f 89 220 127
f 234 233 19
f 123 66 222
f 128 16 240
f 138 136 240
f 29 177 278
f 241 16 304
f 136 138 84
f 138 36 84
f 150 272 36
f 43 193 14
f 107 193 43
f 207 23 190
f 24 23 207
f 211 199 103
f 207 215 24
f 304 26 140
f 217 211 96
f 219 27 215
f 238 38 219
f 126 130 16
f 32 29 186
f 244 70 238
f 257 50 244
f 274 49 273
f 56 113 39
f 275 280 274
f 30 270 268
f 268 40 30
f 267 40 268
f 266 40 267
f 264 41 266
f 262 42 264
f 261 42 262
f 260 42 261
f 258 9 260
f 256 255 45
f 172 374 341
f 327 372 370
f 253 251 45
f 45 255 253
f 237 248 247
f 292 32 186
f 383 327 375
f 208 1 11
f 210 1 209
f 82 162 163
f 162 82 91
f 204 205 13
f 201 203 13
f 202 227 226
f 51 417 310
f 201 55 200
f 227 64 228
f 200 55 198
f 198 57 195
f 195 57 194
f 194 57 2
f 192 104 188
f 188 104 187
f 187 104 283
f 104 67 283
f 216 362 281
f 72 166 167
f 167 168 72
f 166 72 164
f 163 164 82
f 329 402 351
f 14 22 182
f 156 91 74
f 154 156 74
f 34 72 170
f 148 152 94
f 148 92 146
f 146 92 143
f 143 98 284
f 349 279 361
f 111 114 134
f 108 107 43
f 107 108 112
f 112 118 103
f 103 118 96
f 96 120 37
f 89 136 84
f 36 142 150
f 150 243 276
f 43 178 111
f 239 89 84
f 103 199 107
f 96 211 103
f 37 217 96
f 338 393 389
f 84 245 239
f 220 37 127
f 43 111 108
f 47 274 100
f 232 311 400
f 49 274 47
f 106 125 31
f 49 257 249
f 50 257 80
f 28 102 395
f 331 324 319
f 111 165 114
f 173 182 22
f 18 224 60
f 60 106 31
f 122 270 30
f 330 86 399
f 4 286 288
f 64 227 202
f 80 91 82
f 115 110 113
f 405 202 226
f 169 365 285
f 140 174 159
f 159 174 225
f 297 335 366
f 214 1 210
f 398 399 86
f 249 273 49
f 274 273 275
f 391 330 401
f 344 346 350
f 404 401 330
f 294 322 401
f 322 287 417
f 307 158 345
f 417 414 322
f 295 325 289
f 124 387 325
f 387 124 296
f 296 334 409
f 334 62 395
f 380 336 337
f 395 409 334
f 395 62 28
f 336 380 335
f 116 297 410
f 301 35 382
f 298 403 299
f 116 117 297
f 339 397 391
f 298 347 318
f 298 318 229
f 300 391 390
f 401 404 294
f 298 229 230
f 21 299 403
f 385 277 390
f 269 259 254
f 265 363 359
f 269 385 259
f 254 252 269
f 290 363 265
f 221 403 298
f 259 381 223
f 375 293 388
f 223 378 191
f 191 161 119
f 293 392 10
f 403 212 4
f 191 378 161
f 196 358 291
f 358 360 291
f 373 109 145
f 109 105 145
f 387 296 371
f 196 291 78
f 333 410 406
f 409 371 296
f 105 35 263
f 35 105 109
f 332 406 402
f 317 400 303
f 311 376 343
f 376 311 396
f 324 344 398
f 11 8 176
f 121 8 1
f 348 77 79
f 44 85 93
f 331 171 182
f 292 102 362
f 333 406 332
f 333 20 410
f 284 169 285
f 342 362 102
f 335 297 131
f 337 384 380
f 338 52 147
f 341 169 172
f 396 86 376
f 323 242 318
f 374 172 175
f 402 329 44
f 305 186 189
f 230 221 298
f 311 343 400
f 329 351 348
f 347 354 323
f 398 396 319
f 62 393 340
f 331 173 176
f 346 77 348
f 73 346 121
f 54 376 397
f 323 318 347
f 351 315 350
f 279 323 354
f 402 312 351
f 229 318 236
f 356 404 312
f 357 271 252
f 334 384 389
f 410 20 116
f 124 380 384
f 361 279 357
f 82 72 76
f 265 364 290
f 290 364 231
f 370 372 367
f 367 290 370
f 15 365 169
f 410 297 366
f 231 370 290
f 393 338 151
f 327 370 368
f 51 366 309
f 327 379 377
f 375 388 383
f 386 293 375
f 335 380 309
f 384 337 52
f 293 386 394
f 381 325 378
f 88 130 126
f 393 62 389
f 109 371 369
f 287 406 310
f 322 414 385
f 356 287 294
f 259 414 381
f 287 356 406
f 342 374 175
f 173 331 182
f 12 306 416
f 130 88 45
f 132 304 130
f 17 15 341
f 158 299 303
f 54 303 343
f 396 398 86
f 307 302 354
f 330 315 404
f 315 312 404
f 350 399 344
f 294 404 356
f 322 294 287
f 417 51 289
f 51 310 366
f 289 51 295
f 325 295 180
f 295 51 309
f 309 180 295
f 325 180 124
f 180 380 124
f 296 124 384
f 334 389 62
f 130 304 16
f 358 405 407
f 393 321 340
f 340 321 374
f 303 54 158
f 297 117 129
f 213 6 4
f 376 54 343
f 102 28 342
f 101 20 333
f 35 301 263
f 186 305 301
f 263 301 305
f 400 343 303
f 412 360 411
f 299 158 347
f 347 298 299
f 303 299 317
f 345 54 339
f 403 4 21
f 307 345 328
f 328 345 339
f 299 21 317
f 302 328 300
f 300 277 271
f 271 277 269
f 269 252 271
f 259 223 254
f 306 412 413
f 231 254 223
f 223 197 231
f 197 223 191
f 119 161 145
f 292 186 301
f 145 161 373
f 145 105 313
f 109 369 35
f 263 25 105
f 342 175 362
f 394 25 308
f 342 28 340
f 360 308 291
f 68 69 1
f 394 313 25
f 306 48 416
f 69 121 1
f 35 369 382
f 313 386 314
f 397 330 391
f 81 329 348
f 83 85 44
f 95 332 44
f 390 401 322
f 333 332 97
f 385 414 259
f 380 180 309
f 316 319 396
f 183 314 386
f 289 325 381
f 375 368 183
f 151 321 393
f 336 335 133
f 387 371 373
f 368 370 231
f 337 336 141
f 52 144 147
f 26 132 282
f 340 374 342
f 409 395 382
f 155 341 374
f 169 341 15
f 252 364 361
f 252 361 357
f 339 54 397
f 328 339 391
f 382 395 102
f 406 410 310
f 277 300 390
f 402 406 356
f 357 302 271
f 348 351 350
f 357 354 302
f 306 413 415
f 412 306 360
f 415 48 306
f 378 387 161
f 306 308 360
f 347 307 354
f 307 347 158
f 242 323 320
f 279 354 357
f 344 399 398
f 279 349 326
f 323 279 326
f 361 265 353
f 355 353 265
f 364 265 361
f 367 363 290
f 377 372 327
f 368 375 327
f 86 397 376
f 250 282 132
f 309 366 335
f 386 375 183
f 311 232 316
f 386 313 394
f 346 348 350
f 310 410 366
f 399 350 315
f 315 330 399
f 287 310 417
f 78 305 189
f 414 417 289
f 289 381 414
f 78 189 196
f 325 387 378
f 305 352 263
f 384 334 296
f 25 263 352
f 109 373 371
f 291 308 352
f 102 292 301
f 352 308 25
f 302 307 328
f 364 252 254
f 197 368 231
f 119 197 191
f 119 314 183
f 145 313 314
f 312 402 356
f 396 311 316
f 351 312 315
f 314 119 145
f 254 231 364
f 71 121 69
f 73 121 71
f 75 77 346
f 258 256 88
f 170 67 34
f 79 81 348
f 83 329 81
f 126 9 88
f 277 385 269
f 93 85 90
f 93 95 44
f 97 332 95
f 99 333 97
f 333 99 101
f 391 300 328
f 129 131 297
f 133 335 131
f 135 336 133
f 137 139 336
f 336 135 137
f 141 336 139
f 144 337 141
f 223 381 378
f 149 338 147
f 151 338 149
f 151 153 321
f 368 197 183
f 155 321 153
f 157 341 155
f 341 157 17
f 411 360 358
f 320 323 326
f 358 408 411
f 202 358 196
f 407 408 358
f 359 355 265
f 405 358 202
f 382 369 409
f 382 102 301
f 383 379 327
f 371 409 369
f 161 387 373
f 10 388 293
f 392 293 12
f 213 4 212
f 398 319 324
f 212 403 221
f 330 397 86
f 242 236 318
f 385 390 322
f 391 401 390
