#usda 1.0
(
    customLayerData = {
        string gate = "S"
        string sketch = "1"
    }
    defaultPrim = "Creation"
    metersPerUnit = 1
    upAxis = "Y"
)

def Xform "Creation"
{
    def BasisCurves "s1_0"
    {
        int[] curveVertexCounts = [13]
        point3f[] points = [(-0.18083417, 0.067311645, 0.7877178), (0.37094676, 0.29821217, 0.26801145), (-0.39970732, 1.9944689, -0.72582793), (0.20325768, 0.5919099, -0.1690476), (-0.14286405, 1.6729349, -0.58045447), (-0.9403903, 0.12718207, 0.8867037), (0.6263834, 1.4391621, -0.047855377), (-0.095773935, 1.2743613, -0.7070216), (-0.4829644, 1.1531922, -0.8999231), (0.7045121, 1.4677664, 0.078361034), (0.69938946, 1.9020978, -0.5928662), (-0.28801352, 1.79151, -0.58232915), (-0.75987005, 0.6010895, 0.32003093)]
        uniform token type = "linear"
    }

    def BasisCurves "s1_1"
    {
        int[] curveVertexCounts = [3]
        point3f[] points = [(0.61130047, 0.9101909, -0.45923555), (0.5576178, 1.1630652, 0.06132281), (0.35687387, 0.15685862, 0.65706587)]
        uniform token type = "linear"
    }

    def BasisCurves "s1_2"
    {
        int[] curveVertexCounts = [4]
        point3f[] points = [(-0.86962557, 1.9916234, 0.47218537), (-0.37485677, 0.22849071, 0.61070144), (-0.3819974, 0.98302686, -0.6872132), (-0.93826884, 0.36964703, -0.5877733)]
        uniform token type = "linear"
    }
}

