# avbd fit, rung f180-i32-s300 of Gate 6d (body space, fit phase only)
v -0.010656342 0.585560679 0.013673152
v -0.120454982 0.605752826 0.069311775
v -0.010194881 0.602382243 0.016538527
v -0.000475734 0.905668437 0.068721637
v -0.153044373 0.588752031 0.054710735
v 0.006675935 0.916320443 0.080343723
v -0.009437337 0.635980368 0.020841952
v -0.009580245 0.619293869 0.017962994
v -0.157133758 0.607215285 0.055231374
v 0.150067583 0.925787747 -0.103082918
v -0.176535740 0.600211680 0.046958383
v -0.186154023 0.602642715 0.025736740
v -0.193072662 0.604457438 0.007361302
v -0.153756216 0.605475485 -0.067761503
v 0.008594071 0.582202077 -0.042191040
v -0.133790687 0.599518299 -0.073101878
v 0.026571551 0.581927180 -0.042832322
v -0.135970846 0.600730360 -0.092149474
v -0.116719209 0.609347224 -0.093804970
v 0.185883522 0.560029030 -0.007010085
v -0.000929226 0.871029496 0.064655736
v -0.001205074 0.854472756 0.058741383
v -0.104991004 0.606483161 -0.078758672
v -0.091837734 0.610977709 -0.089993365
v 0.094740741 0.815918148 -0.119694844
v -0.088981137 0.625288844 -0.076518424
v -0.135750651 0.883671641 -0.126652986
v -0.146309987 0.790308595 0.070963971
v 0.039304428 0.684610426 -0.072081581
v -0.162037253 0.801484108 0.065125212
v 0.067292206 0.842754662 -0.141914740
v -0.194289163 0.776139081 0.041351903
v 0.087507047 0.774913430 -0.107643947
v -0.186640114 0.600725651 -0.034829140
v 0.072483011 0.763607860 -0.102157772
v -0.160404712 0.888113499 -0.100414395
v -0.180592582 0.884366333 -0.058873195
v 0.012925354 0.739803672 0.035064790
v -0.178890392 0.886812508 -0.037874885
v -0.080763325 0.886271834 -0.148231044
v -0.032359622 0.859139323 0.059241850
v 0.009792555 0.641816676 -0.056932956
v -0.021299152 0.838614762 0.052695889
v 0.061382450 0.688263893 -0.083110608
v -0.044701226 0.841205418 0.051003136
v -0.190685660 0.895138621 -0.023206886
v -0.191653579 0.881092548 -0.005240403
v 0.071047761 0.709111094 -0.091990933
v -0.175737113 0.882435441 0.009915963
v -0.053551562 0.606406868 0.028201083
v 0.062250286 0.809079647 0.057543825
v -0.070579953 0.604841113 0.047132682
v -0.083200857 0.694603205 0.062375121
v 0.060260940 0.767403483 0.058418803
v -0.093422726 0.603893340 0.057007950
v 0.103378139 0.790024340 -0.112454794
v -0.107921794 0.691099405 0.072002538
v -0.177411586 0.698608339 0.057885755
v 0.117135897 0.802819550 -0.125436217
v -0.201226994 0.695939958 0.026950598
v 0.082469940 0.690727651 -0.092310756
v 0.103334904 0.686008811 -0.098590001
v -0.204382971 0.787320077 0.022203995
v -0.200128078 0.809126496 0.020962164
v -0.203746840 0.696007192 -0.038033150
v -0.187902033 0.690817714 -0.057763152
v -0.177891850 0.703971922 -0.073832974
v 0.006341085 0.590084016 0.007159723
v 0.012918569 0.573445439 0.006981626
v -0.156511158 0.692968667 -0.082462050
v 0.031049486 0.572881520 0.010329586
v -0.121396936 0.706754804 -0.102126464
v 0.047431115 0.570535779 0.017571108
v -0.027335647 0.747427583 -0.080638200
v 0.062292047 0.567827821 0.027082015
v -0.100438453 0.887399197 -0.143437400
v 0.073955014 0.565044701 0.039820138
v -0.118499719 0.887537599 -0.136291191
v 0.088618204 0.563614964 0.048868354
v -0.125597209 0.870548844 -0.134179920
v 0.104039431 0.562896252 0.055991031
v -0.144517407 0.900114715 -0.116983518
v 0.111495234 0.561823189 0.070964307
v -0.176547602 0.851868451 -0.083170548
v 0.125807315 0.560765207 0.064516857
v 0.046426356 0.724645078 0.045808904
v -0.152966112 0.883111000 0.053875051
v -0.120151326 0.797492206 -0.116691314
v -0.159860268 0.639016271 0.057888687
v 0.140918538 0.560256720 0.063394062
v -0.140438229 0.805527031 -0.108450517
v -0.023060618 0.795242190 0.040243398
v 0.152177125 0.559248328 0.051826574
v -0.043621648 0.797814965 0.049910698
v 0.166695073 0.558485985 0.044627741
v -0.029670417 0.818137169 0.043617148
v 0.182502449 0.558606505 0.040636800
v -0.020647239 0.877221763 0.064748652
v 0.179482326 0.560896993 0.025002277
v -0.068746738 0.904372573 -0.148708478
v 0.185425967 0.559673071 0.009542049
v 0.023646805 0.748805106 -0.082164399
v -0.091378994 0.867458999 -0.146091923
v -0.117230475 0.650171399 0.074033797
v 0.039573781 0.703361213 0.039700039
v 0.054736406 0.764795721 -0.097423017
v -0.119773470 0.852756143 -0.131787211
v -0.150423735 0.633877337 0.073482968
v 0.126609087 0.756396890 -0.120233163
v -0.130518526 0.841165543 -0.118259594
v 0.128553376 0.814399540 -0.113186814
v 0.136575386 0.792939544 -0.109108686
v 0.136174500 0.769493341 -0.107127979
v -0.167294025 0.657928109 0.056989253
v -0.144296736 0.828625560 -0.106646381
v 0.199804604 0.559540629 -0.015816759
v 0.186524272 0.562724829 -0.020811496
v -0.193948567 0.646401525 0.025775503
v 0.146283701 0.812951922 -0.105629280
v -0.163441822 0.839607358 -0.097482838
v -0.189419866 0.837335110 -0.066752099
v -0.194516927 0.850533605 -0.051072855
v -0.058948815 0.835411906 -0.134599209
v 0.143076465 0.675909579 -0.084247187
v -0.177710772 0.832874000 0.043995108
v -0.193611532 0.829718590 0.022211503
v -0.128334671 0.825001359 0.070024043
v -0.140651137 0.841467023 0.062257934
v 0.179093763 0.563180566 -0.035229377
v -0.024269870 0.829793155 -0.117869519
v 0.171167672 0.563797891 -0.049256068
v -0.043712623 0.824060082 -0.120537475
v 0.160105243 0.565284967 -0.060746588
v -0.033919550 0.693787456 -0.070200093
v 0.176967397 0.565620303 -0.062583901
v -0.115034893 0.882614315 0.045318399
v 0.165023118 0.563036323 -0.073569581
v -0.094190128 0.881245136 0.054130070
v 0.148597628 0.563888133 -0.068397805
v -0.027018571 0.814041257 -0.104176022
v 0.132162079 0.564050078 -0.069989093
v 0.160540506 0.799683213 -0.098909602
v -0.029660206 0.794411838 -0.094211496
v 0.117233291 0.565951288 -0.074213177
v -0.048103403 0.807129979 -0.106887206
v -0.179552287 0.802541375 -0.089255974
v 0.105344296 0.567804515 -0.084687427
v -0.149873704 0.902211845 0.043180913
v 0.104171887 0.575015128 -0.070311151
v -0.036119826 0.720267117 -0.080639929
v 0.089219719 0.576311171 -0.063143060
v 0.135042772 0.748639643 -0.104100302
v 0.074239060 0.577851951 -0.055981714
v -0.108954147 0.756667256 -0.112268612
v 0.059757661 0.580147624 -0.047903579
v -0.074062735 0.671553910 -0.083554767
v 0.043586329 0.581208587 -0.044421747
v 0.054181583 0.847080410 0.052316017
v -0.182679161 0.766997933 -0.080104686
v -0.206469983 0.606136382 -0.024191925
v 0.154448330 0.777473807 -0.099815853
v -0.208158046 0.784352899 -0.035644110
v -0.209864229 0.745182812 -0.026547050
v 0.166915745 0.667758048 -0.083361529
v -0.203546718 0.731956363 -0.045417450
v -0.011154464 0.614897430 -0.049353473
v 0.013285251 0.601695418 -0.046695799
v -0.011102307 0.598341107 -0.045873743
v -0.010776822 0.630986512 -0.054674525
v 0.165789306 0.824968338 -0.097310118
v -0.192531437 0.738069594 -0.061594535
v -0.010559170 0.647551835 -0.058384158
v -0.010364706 0.664105654 -0.062588431
v -0.209684730 0.728417337 -0.006988268
v -0.009899825 0.680899024 -0.066278026
v 0.172226459 0.784072936 -0.092490092
v -0.165292591 0.736096323 -0.087605573
v -0.116776407 0.589945197 -0.076652944
v -0.207185104 0.737943649 0.020504497
v 0.177369311 0.685474992 -0.069874771
v -0.201489881 0.717225254 0.029646775
v -0.094410278 0.740230143 -0.106315628
v -0.079279155 0.725426316 -0.105232142
v 0.181191534 0.803775132 -0.086124793
v -0.050657880 0.786002636 -0.098281883
v -0.005588977 0.804144025 -0.093171075
v -0.004878601 0.819727242 -0.102028824
v -0.107109949 0.863502324 0.059625126
v -0.004266425 0.834279895 -0.111902311
v -0.128389806 0.856163621 0.059292771
v 0.185262710 0.777451754 -0.077449158
v -0.115338027 0.842694581 0.067376763
v -0.003495927 0.847380161 -0.123032667
v -0.132483393 0.873207390 0.051097788
v -0.162062615 0.727357447 0.066186294
v -0.003051493 0.862863243 -0.129561082
v -0.124751434 0.899774671 0.040199790
v 0.186887041 0.827546775 -0.073568538
v 0.175275534 0.578319192 0.039661512
v -0.002918765 0.879060447 -0.132915378
v -0.134633809 0.893910408 0.054765560
v -0.002800006 0.895697117 -0.132833406
v -0.162165880 0.846669376 0.056423187
v 0.196225256 0.768884718 -0.058887344
v -0.160328224 0.866172969 0.043742165
v -0.210778907 0.777482867 0.001680098
v -0.002724484 0.912474811 -0.132228896
v -0.146278694 0.899675548 0.023710610
v -0.159338355 0.884205818 0.029272193
v -0.162176907 0.899057031 0.007924175
v -0.142187834 0.720622718 0.072707385
v 0.033945333 0.923048675 0.068429716
v 0.017073005 0.922969222 0.069058642
v 0.196270496 0.843678117 -0.051584620
v -0.000671614 0.888387024 0.066768266
v -0.174857646 0.896020234 -0.010305842
v 0.201197892 0.815198898 -0.050082527
v -0.173046768 0.904057205 -0.030060241
v -0.173861310 0.903526962 -0.049372964
v -0.085874915 0.649114013 -0.081441723
v 0.050751828 0.923258781 0.066595621
v 0.201378152 0.829209030 -0.030870581
v 0.207636327 0.784778595 -0.041600171
v -0.173383147 0.903420269 -0.068637706
v -0.155297250 0.909173965 -0.102881476
v -0.128559381 0.904136360 -0.131170735
v -0.147240907 0.851925671 -0.107488073
v -0.102986299 0.648781657 -0.089402504
v 0.084032014 0.923267007 0.060299627
v 0.067405678 0.923440635 0.063628659
v -0.100754321 0.849808812 -0.139047772
v -0.001653859 0.838377774 0.051821012
v -0.109273814 0.868956387 -0.140022174
v 0.206372693 0.804924607 -0.026385050
v -0.118708074 0.635169744 -0.096425250
v 0.099204257 0.922394633 0.053069867
v -0.033649273 0.691328228 0.032607295
v -0.039779168 0.590598941 0.012776867
v 0.200487494 0.839135528 -0.012605220
v -0.200786203 0.829333127 -0.042210676
v -0.048470974 0.639119208 0.031661857
v 0.114047028 0.920822740 0.045935981
v 0.205545545 0.685970962 -0.007776142
v -0.063533135 0.587085426 0.029909912
v 0.207926035 0.686551452 -0.026211724
v 0.204746097 0.819267452 -0.008148720
v 0.209744453 0.781345248 -0.014659464
v -0.060817469 0.650335491 0.047647122
v -0.084033623 0.584359765 0.049917109
v -0.108332053 0.585561991 0.061063897
v -0.099825755 0.640037060 0.064539857
v 0.203736737 0.807331860 0.016942734
v -0.102476656 0.621001601 0.063550331
v 0.209090069 0.799461961 -0.004378954
v -0.055388637 0.820476890 0.053437896
v 0.099536963 0.841254234 0.071549334
v -0.117628515 0.629232287 0.073340289
v 0.067896612 0.781366050 -0.102705382
v -0.134204775 0.585828662 0.063612252
v -0.186296403 0.653285980 -0.052694194
v -0.134429336 0.641231537 0.069741368
v -0.148726389 0.602819860 0.076604255
v 0.060691576 0.798680007 -0.104545400
v 0.173843220 0.861295581 0.030299172
v -0.136267155 0.621787131 0.079636768
v -0.189047605 0.636247754 -0.042143486
v -0.157058239 0.582939386 0.072520636
v 0.210707352 0.783266187 0.009855399
v 0.206041291 0.765643001 0.022045456
v -0.147962436 0.862459540 0.060966272
v -0.148269206 0.621365190 0.061639674
v -0.169372484 0.578594148 0.048290528
v 0.191354215 0.825049222 0.027712207
v 0.190689251 0.802705884 0.039751071
v -0.180829331 0.641365647 0.048571486
v -0.169614032 0.622080207 0.051547885
v 0.187805384 0.780862451 0.052682132
v -0.179962665 0.581968427 0.031089142
v 0.163758069 0.869583249 0.051335741
v -0.185657829 0.622492909 0.036686748
v 0.204373270 0.679420352 0.012369665
v -0.052476190 0.923804581 0.066143706
v -0.194963649 0.622986555 0.016362790
v -0.024376724 0.900503933 0.067104749
v 0.179741606 0.819877267 0.047621779
v -0.172330409 0.852218151 0.039191861
v 0.195032641 0.672488093 0.031841222
v -0.173664004 0.867039204 0.025597114
v -0.195651487 0.617920280 -0.006421772
v 0.181953713 0.760558844 0.061871190
v -0.185556263 0.848946393 0.024529066
v 0.019438691 0.843591332 -0.126943022
v 0.020815270 0.865008652 -0.136496097
v 0.164882973 0.817019939 0.062201850
v -0.028020883 0.910857022 -0.141044363
v 0.176550612 0.799640119 0.061693389
v -0.198876321 0.639300704 0.000674401
v -0.022035135 0.889045417 -0.139622658
v 0.024684869 0.722239256 0.036010046
v -0.028934050 0.627945483 -0.054946758
v -0.043246083 0.893588662 -0.145479023
v 0.146281078 0.827348351 0.065555319
v -0.049784757 0.913442612 -0.144503593
v -0.188007638 0.864126980 0.008905640
v 0.163213134 0.777395308 0.067930378
v -0.199753940 0.844989181 0.006857471
v 0.144370660 0.759510815 0.073368222
v -0.195376724 0.852747321 -0.030853212
v -0.200890541 0.836904824 -0.015837861
v 0.150714979 0.803363144 0.068458095
v -0.197859913 0.859414101 -0.010120717
v 0.123302579 0.768894374 0.079857275
v -0.201026008 0.583578944 -0.032951456
v -0.209969446 0.627755284 -0.016403560
v 0.105830088 0.672013640 0.070078015
v 0.127462402 0.670150638 0.076008484
v 0.099734321 0.734683573 -0.106873311
v 0.096692294 0.897440255 0.056961767
v -0.028910726 0.638658226 0.023228029
v 0.128364101 0.920826256 0.051619243
v -0.187106103 0.868566215 -0.044677265
v 0.136440426 0.689755976 0.074063405
v 0.122424103 0.816364646 0.074023768
v -0.198958963 0.638742030 -0.025726810
v -0.182822227 0.862313390 -0.065082401
v 0.137257248 0.919932485 0.039394259
v -0.163613647 0.864565492 -0.098360851
v 0.136746913 0.786094487 0.074382693
v -0.069203176 0.779077053 -0.103296675
v 0.094243415 0.693321109 0.067210719
v -0.178872198 0.581968665 -0.041738406
v 0.101348557 0.770954669 0.075419240
v -0.193418473 0.620422125 -0.030153727
v -0.182022363 0.632611394 -0.062583320
v -0.167495310 0.579397619 -0.058985688
v 0.072849698 0.689372301 0.058134872
v 0.111673795 0.792425334 0.079737633
v -0.069421224 0.743622661 -0.100859128
v 0.091056190 0.787379622 0.071888521
v -0.174397081 0.597590148 -0.054227777
v -0.169759959 0.649551153 -0.069315895
v 0.058189232 0.705776095 0.053661935
v -0.084520407 0.762178481 -0.105674721
v -0.164309353 0.588147104 -0.076716021
v 0.016248373 0.807991207 -0.097476669
v 0.090184510 0.812166810 0.071384713
v 0.072636060 0.832347214 0.062162798
v -0.161618814 0.628076792 -0.068727441
v 0.130250707 0.906412125 0.039826375
v 0.016526477 0.674470305 -0.065218255
v 0.018355343 0.656896114 -0.061223440
v -0.145013094 0.583347619 -0.067119531
v 0.141772658 0.911438286 0.029012451
v -0.127814338 0.754530191 -0.123207532
v 0.150901824 0.914717853 0.015238886
v -0.128809765 0.637449861 -0.081832096
v 0.042793237 0.872843266 -0.145311669
v -0.142536655 0.622435808 -0.074063115
v 0.159872487 0.917150378 0.001031468
v 0.031397335 0.705004811 -0.074055977
v 0.034595288 0.726704597 -0.079903021
v -0.142692178 0.738560021 -0.115777649
v 0.168803662 0.918246627 -0.013297799
v -0.138587266 0.758087575 -0.106113516
v -0.110655650 0.906386554 -0.138359636
v -0.045519788 0.883588314 0.063577563
v 0.173737496 0.916870773 -0.029256338
v -0.139112711 0.579935551 -0.085361026
v -0.150959954 0.748002946 -0.096721992
v -0.127066880 0.616098762 -0.081345066
v -0.150814846 0.874808967 -0.114287972
v 0.185775191 0.918005109 -0.040478073
v -0.168398201 0.757727265 -0.090101898
v 0.032944374 0.641108453 -0.057458568
v -0.120261170 0.584257305 -0.093431279
v -0.182167381 0.746993303 -0.077553347
v 0.171651691 0.922915101 -0.041983098
v -0.136705428 0.861442447 -0.122717641
v 0.169356644 0.924006283 -0.058172423
v -0.193832368 0.763783574 -0.062575407
v -0.136008233 0.622815013 -0.095540807
v 0.187656954 0.712651253 0.055492252
v 0.165381283 0.924946487 -0.073988147
v -0.203425735 0.749554455 -0.049283460
v 0.044176850 0.745950758 -0.091430455
v -0.099850729 0.589444697 -0.086030275
v -0.031101083 0.607379615 -0.048278991
v 0.158644468 0.925562978 -0.089018546
v -0.208235264 0.766741574 -0.042742230
v 0.199621096 0.783580422 0.031365305
v -0.027947659 0.672559738 0.028217247
v 0.138441578 0.925441742 -0.114790179
v 0.196322381 0.757633507 0.042203285
v -0.071687274 0.760917485 0.062428504
v -0.104581296 0.626343369 -0.084158093
v -0.089900434 0.600529253 -0.069653720
v 0.053974677 0.643287957 -0.065814674
v -0.089491710 0.634124100 -0.095431633
v -0.071504794 0.618958235 -0.066406801
v -0.069014333 0.598023057 -0.058911484
v 0.073932223 0.671297789 -0.083081111
v 0.056938458 0.726989686 -0.091090441
v -0.194614500 0.730886579 0.045489084
v 0.048025109 0.786343098 0.054111522
v 0.039878797 0.764934421 0.046618666
v -0.196233898 0.753651023 0.043366909
v 0.033418987 0.743195176 0.041765776
v -0.033912279 0.770013452 -0.088310771
v 0.096212976 0.710042357 -0.100871108
v -0.182111219 0.766917825 0.061338715
v -0.068362482 0.654355347 -0.075553231
v -0.074731097 0.637303710 -0.073046118
v 0.105825961 0.658715367 -0.092850275
v -0.177604631 0.743820667 0.062276192
v -0.050680302 0.620277643 -0.055736769
v 0.129861876 0.925901711 -0.127381891
v 0.122409917 0.678255916 -0.093675889
v -0.057569969 0.640248835 -0.066492267
v -0.157911927 0.759736657 0.068711683
v -0.050672304 0.669118047 -0.073199466
v 0.114153907 0.925692856 -0.130531773
v -0.038269594 0.647157669 -0.059361797
v 0.112352774 0.633857906 -0.086156644
v -0.192396730 0.597247064 -0.011501906
v -0.190138474 0.583426893 0.010720437
v 0.135706946 0.667817950 -0.102893099
v -0.148288816 0.740644813 0.072146304
v -0.131783292 0.753962040 0.077138856
v 0.117991842 0.721237779 -0.107254602
v -0.078617468 0.823153496 0.064822167
v -0.069832690 0.923858821 0.062915012
v -0.120488726 0.730756402 0.079829648
v 0.137685031 0.710853517 -0.111920096
v -0.108112954 0.750487685 0.076368608
v -0.089678884 0.804621041 0.071513824
v 0.160288036 0.716458201 -0.085414670
v -0.094575427 0.731996655 0.069760792
v 0.111375526 0.853477120 -0.135978341
v -0.079259604 0.782992959 0.066348284
v -0.102890395 0.787415743 0.076159611
v 0.177098483 0.707241058 -0.074769698
v -0.094773389 0.767951131 0.072047010
v 0.180125654 0.650932193 -0.075498864
v 0.179438680 0.664636612 -0.063175909
v -0.088023923 0.749943376 0.068319596
v -0.071720049 0.737829208 0.061049521
v -0.117072962 0.770457387 0.080499239
v -0.032874845 0.754102349 0.039881982
v -0.126303464 0.789380431 0.076302141
v -0.114799120 0.807159901 0.077211812
v 0.189110503 0.702048600 -0.057807989
v 0.199472994 0.671597123 -0.036507539
v -0.066060595 0.800874710 0.060626097
v -0.140531152 0.773201585 0.074365385
v -0.051011641 0.674425840 0.039057750
v -0.139158368 0.807163358 0.070559993
v 0.189572737 0.679405987 -0.052709591
v -0.156650707 0.823909760 0.062767498
v 0.209089234 0.667270184 -0.019757524
v -0.182909697 0.789935470 0.059230946
v 0.208195493 0.710554242 -0.021404507
v -0.163304478 0.779975653 0.067431293
v -0.069308490 0.842687786 0.056948416
v -0.178400904 0.811670482 0.054307960
v 0.205245212 0.626617432 -0.018344307
v -0.071648255 0.882260323 0.060550474
v -0.007060779 0.768675923 -0.082864478
v -0.067753449 0.902507782 0.062644914
v -0.188009664 0.816171825 0.036211841
v -0.205970734 0.763701797 0.021985682
v -0.047460537 0.906544685 0.065964594
v -0.006141154 0.787144661 -0.086510867
v -0.102819763 0.920976281 0.051021039
v -0.211008102 0.753041804 -0.001156479
v 0.074237004 0.828447700 -0.127702251
v 0.119490623 0.894655526 -0.135236874
v -0.204966038 0.823385894 0.003142757
v -0.087080888 0.922896504 0.058713794
v 0.207701355 0.705386817 0.003712974
v 0.098706730 0.926246345 -0.136328667
v -0.186715141 0.872545600 -0.023961069
v 0.206251189 0.720572591 0.020448850
v -0.210162878 0.768924832 -0.019801252
v -0.209054112 0.792415977 -0.017821250
v -0.205023855 0.814807415 -0.019041929
v 0.082560070 0.926854253 -0.139956713
v 0.210824877 0.760319829 0.001791275
v 0.065997556 0.927463830 -0.140499547
v -0.091380209 0.844384551 0.070454657
v -0.018063951 0.866421223 -0.135968983
v 0.197293013 0.710371494 0.037693944
v 0.049395002 0.928121924 -0.139554054
v 0.058755826 0.912107944 -0.145646662
v 0.195450976 0.618260026 0.004519574
v -0.088589497 0.901255608 0.058140237
v -0.021859774 0.846444249 -0.130915448
v -0.200196579 0.786663651 -0.055125661
v -0.168309212 0.878925025 -0.078616664
v -0.102232121 0.825258911 0.075263180
v 0.032448817 0.928870022 -0.136903763
v -0.188550010 0.786370933 -0.074285850
v 0.015381360 0.929078758 -0.132523701
v -0.157412782 0.792704523 -0.100550927
v 0.184034735 0.623949409 0.038021035
v -0.173206136 0.779948711 -0.091869019
v 0.014588346 0.915965080 -0.135108784
v -0.002593764 0.929320991 -0.131178796
v 0.191366524 0.690039456 0.045888972
v 0.183736429 0.666135490 0.051299948
v 0.081719235 0.797325134 -0.108495846
v 0.019038463 0.894153893 0.066784777
v -0.162057579 0.815825284 -0.099273488
v -0.153938547 0.770211816 -0.099236540
v -0.165553719 0.904408574 -0.086552702
v 0.065413758 0.814829051 -0.114587352
v 0.171718955 0.688993812 0.059851341
v -0.134800285 0.780321956 -0.109394275
v -0.060692322 0.580595016 -0.046121605
v -0.105435692 0.790679097 -0.128054589
v -0.073759787 0.577546716 -0.055981837
v -0.088489883 0.575414598 -0.063012496
v -0.118123986 0.774898052 -0.126772240
v 0.149556115 0.676402986 0.067275628
v 0.162426725 0.659233868 0.059655048
v -0.103080668 0.573955238 -0.070055559
v 0.153750360 0.633674145 0.060562052
v -0.110110357 0.834841251 -0.125535518
v 0.041942187 0.887637496 0.064685687
v 0.026392007 0.873088181 0.064158015
v -0.109311260 0.569184303 -0.082933709
v 0.152993664 0.702203631 0.068108685
v -0.106432542 0.812386155 -0.132925913
v 0.134918898 0.708174706 0.075411245
v 0.140578359 0.651964128 0.069459185
v -0.122408077 0.569351614 -0.073533855
v -0.002838626 0.806457162 0.038748082
v -0.004261627 0.788943410 0.037555508
v -0.095476918 0.799785554 -0.113672182
v -0.120451972 0.561991155 -0.087802835
v -0.078723893 0.847543597 -0.143236175
v -0.102453806 0.778269172 -0.112225391
v -0.135078549 0.560543776 -0.086423531
v -0.134851262 0.562627435 -0.070219636
v -0.150227323 0.562122881 -0.067741655
v -0.053135116 0.774760127 0.055411391
v -0.030903731 0.776029110 0.040984523
v 0.087139286 0.675379634 0.062701300
v 0.090330549 0.655076146 0.062368114
v -0.163791865 0.563009501 -0.077085443
v -0.162706226 0.564370275 -0.060845010
v -0.035028946 0.711978495 0.036049403
v 0.071086593 0.667337298 0.055483144
v 0.053029675 0.682592213 0.044759698
v -0.172164500 0.562944591 -0.047969319
v -0.076313250 0.830788970 -0.130403817
v 0.079523295 0.710023582 0.062682338
v -0.180049360 0.562975764 -0.033863403
v -0.055945225 0.697484910 0.051370960
v 0.031457197 0.682794392 0.032689627
v -0.039877217 0.656096399 0.030027157
v -0.093430385 0.830153286 -0.138040453
v 0.027922440 0.636689126 0.025711363
v -0.069853574 0.674441457 0.055175792
v 0.072495423 0.748544753 0.062465400
v -0.041099660 0.623153389 0.025188297
v -0.060664058 0.624905586 0.040258672
v -0.056870084 0.855884850 -0.144047514
v -0.073176347 0.866945386 -0.148269668
v -0.075999796 0.715978086 0.061301179
v -0.058986425 0.879729271 -0.148460299
v 0.088692777 0.858357131 -0.144264683
v -0.195870072 0.560416639 -0.036135159
v 0.085917518 0.730773449 0.066738628
v -0.080435827 0.628375113 0.054773770
v -0.100968182 0.711691976 0.070819154
v 0.093696252 0.836901784 -0.135356769
v -0.082572915 0.653971374 0.058677305
v -0.092535920 0.675021350 0.064393714
v -0.081479609 0.863354206 0.064497128
v 0.072690278 0.648999453 -0.075242333
v -0.057177037 0.862782478 0.057014912
v 0.105737507 0.735071540 0.074961305
v -0.101514660 0.658257604 0.066681817
v 0.130649000 0.850930333 -0.120844200
v -0.188621417 0.561225057 -0.022836912
v -0.033624690 0.732831836 0.038129531
v 0.089067526 0.637148142 -0.087195680
v -0.190411747 0.561107814 0.008059268
v -0.134090781 0.684397519 0.074399143
v 0.086092308 0.657256961 -0.086469568
v -0.181253135 0.561312914 0.021202451
v -0.115084589 0.670974314 0.073541932
v 0.121018253 0.721437156 0.079864703
v 0.127129093 0.744119287 0.079220876
v 0.126889139 0.871337712 -0.133288264
v -0.175622508 0.561390698 0.036275759
v -0.123895682 0.706782162 0.078677610
v -0.163242698 0.562830567 0.046456307
v -0.135193199 0.662247181 0.071456894
v -0.148929566 0.565154970 0.053513788
v -0.162472412 0.570958853 0.060866155
v -0.143346846 0.702387631 0.071505800
v -0.155888647 0.671137154 0.072121941
v -0.148688003 0.566163063 0.067602307
v 0.145755440 0.729656100 0.072691835
v -0.158822373 0.690528989 0.068474226
v -0.133949980 0.566020250 0.061364524
v -0.117264174 0.564840198 0.061918110
v 0.130231693 0.624118030 -0.077942006
v -0.160890773 0.709573448 0.065234162
v 0.185803443 0.737784028 0.059264433
v 0.133030087 0.641387641 -0.081304543
v 0.157938302 0.904848278 -0.101173207
v -0.101916708 0.564640820 0.054774683
v -0.153624445 0.651573956 0.073462918
v -0.086430661 0.565030932 0.047771208
v 0.132341549 0.909040570 -0.127266467
v -0.072747841 0.566326797 0.037505794
v -0.062390644 0.568463504 0.024104934
v 0.197539687 0.731901765 0.039774429
v 0.145006865 0.867795825 -0.119031921
v -0.048669454 0.569858789 0.014123691
v -0.031814028 0.569768488 0.016315017
v -0.179805681 0.720093369 0.059069306
v -0.027757391 0.585432410 0.022368211
v -0.173257053 0.677955985 0.057212401
v 0.146326497 0.629814923 -0.088003978
v 0.152124971 0.847867191 -0.105451807
v 0.207509428 0.744001091 0.020971064
v -0.193124250 0.707850695 0.045857366
v -0.187361330 0.662963033 0.045002270
v -0.191090986 0.685487568 0.044755422
v -0.046696473 0.743294835 -0.091865145
v 0.159484118 0.625559807 -0.072733521
v 0.210176781 0.758394301 -0.020841707
v 0.151627973 0.886498153 -0.111387514
v 0.010042051 0.789260268 -0.088000022
v -0.057431787 0.763161898 -0.098192677
v 0.065357618 0.745983958 -0.097964779
v -0.052763253 0.723102450 0.052480526
v 0.209881872 0.733258545 -0.004021858
v -0.198014364 0.672484815 0.025471171
v -0.208312303 0.711394429 0.009793071
v -0.192356527 0.797588527 0.039713163
v 0.179290205 0.629879773 -0.078930542
v -0.202211708 0.662603498 0.003819138
v 0.132835507 0.895022690 0.052085102
v 0.209205598 0.735993981 -0.030690823
v -0.205694169 0.686847329 0.005206848
v -0.207662866 0.702515543 -0.013498473
v -0.208374545 0.718711138 -0.030389568
v 0.173831433 0.620305181 -0.061110020
v 0.201263309 0.718754053 -0.045062132
v -0.211448744 0.651391625 -0.014788801
v -0.209466815 0.801122367 0.002256278
v 0.159650564 0.866795719 -0.101980522
v -0.035018347 0.923491776 0.068276338
v 0.198756069 0.742529392 -0.053399265
v 0.184954122 0.750105143 -0.073420778
v -0.086170726 0.818003356 -0.119741186
v -0.063712172 0.818653226 -0.120267093
v 0.179013103 0.641611218 -0.059178788
v -0.209620282 0.676647246 -0.020051880
v 0.180838183 0.606972337 -0.046151131
v 0.188801140 0.724868059 -0.063147709
v -0.020176331 0.929591656 -0.134159476
v -0.037293524 0.929332554 -0.137797132
v 0.173062116 0.848285973 -0.090264127
v 0.017751019 0.760317504 0.038100135
v -0.054224759 0.928740621 -0.140057877
v -0.051751874 0.747417748 0.053712111
v 0.177197665 0.727708936 -0.079110973
v 0.164834574 0.740419090 -0.088201150
v -0.070963696 0.927940726 -0.140696496
v 0.168970853 0.870912194 -0.083407760
v -0.198840424 0.656285524 -0.033198390
v -0.087511152 0.927133381 -0.139476344
v -0.092217296 0.906544328 -0.146267623
v -0.205452517 0.804971397 -0.040841479
v -0.103158042 0.926035225 -0.134930164
v -0.118464902 0.924975872 -0.129133910
v 0.144122526 0.729046702 -0.096164845
v -0.193488270 0.713880658 -0.055013828
v -0.193832040 0.811043739 -0.065622032
v -0.180718333 0.826560974 -0.085803248
v -0.195384547 0.674311638 -0.044613313
v 0.182615221 0.857177734 -0.068719603
v 0.172023743 0.907010734 -0.070897855
v -0.181570843 0.616816461 -0.048306055
v 0.052037757 0.745933473 0.054067302
v 0.134116620 0.733045697 -0.116013192
v -0.070799842 0.800004184 -0.110071495
v -0.180498600 0.725271404 -0.075162597
v 0.173344463 0.899824917 -0.052671842
v -0.084911890 0.784050524 -0.108455919
v -0.174897969 0.611326158 -0.069729194
v 0.117490470 0.742041230 -0.111333825
v -0.180015221 0.669282317 -0.063835278
v -0.156218961 0.668371975 -0.077903293
v 0.173993900 0.894597232 -0.033479657
v -0.172590122 0.684640050 -0.073168136
v -0.160929590 0.714773893 -0.085259192
v 0.194702536 0.854336858 -0.028442914
v -0.149050042 0.644632578 -0.077097684
v -0.029574420 0.668304384 -0.063873097
v 0.079655692 0.729063749 -0.099256106
v -0.134313732 0.925024152 -0.128752887
v -0.139344841 0.924469113 -0.114570335
v -0.144807070 0.727311134 -0.095893785
v -0.139984339 0.705346942 -0.093299925
v -0.137204215 0.682525158 -0.088395163
v -0.133944109 0.659482479 -0.086104088
v -0.123737589 0.819952786 -0.115558341
v 0.070842877 0.788859427 0.063623071
v 0.188572437 0.629900813 -0.040299334
v -0.158813640 0.925569177 -0.088541202
v -0.165402859 0.925413966 -0.073634461
v 0.199226171 0.648986399 -0.029418265
v -0.010801486 0.581643939 -0.042601962
v -0.169120416 0.924334645 -0.057730518
v 0.195322096 0.857311726 -0.003588453
v -0.171742737 0.922413945 -0.041719794
v -0.170894518 0.920393169 -0.026599254
v -0.183167845 0.923143566 -0.018713692
v 0.207995087 0.758218884 -0.042648237
v 0.187286586 0.902648926 -0.024062123
v -0.168312535 0.918488324 -0.012734627
v -0.160286680 0.917975724 -0.000333865
v -0.151779801 0.916854382 0.013002193
v 0.048086472 0.785473943 -0.097410992
v -0.142874703 0.914875388 0.026099140
v 0.175805196 0.894048035 -0.012472307
v -0.131800309 0.912814796 0.037240706
v -0.138744637 0.645022333 -0.099961564
v 0.189516842 0.850285530 0.018744418
v 0.013130918 0.712125659 -0.073460147
v -0.009127555 0.697920203 -0.070108697
v -0.008432886 0.715332687 -0.072880663
v 0.145326257 0.906503379 -0.114478327
v -0.140106335 0.668020487 -0.105617858
v -0.007829916 0.732816398 -0.076761469
v -0.139175519 0.715321660 -0.115404382
v 0.011322023 0.731818199 -0.077277042
v -0.007687319 0.750565290 -0.080064043
v -0.134481728 0.922217369 0.050056648
v 0.151697800 0.754991829 -0.097043529
v 0.167828426 0.895556808 0.005680851
v -0.119520113 0.658527613 -0.099707946
v -0.126555160 0.909763336 0.054003142
v -0.118192807 0.918218017 0.043507133
v 0.163257286 0.881443381 0.027671879
v 0.042454995 0.850899220 -0.139548734
v -0.139385760 0.691455245 -0.110965058
v -0.119753100 0.732772410 -0.109238043
v 0.153575704 0.898875058 0.017862421
v -0.120517746 0.682274282 -0.099772945
v 0.180054873 0.840212226 0.037936889
v -0.101075634 0.671487689 -0.094566151
v -0.006290182 0.737317204 0.033460252
v -0.107497968 0.900548637 0.050194848
v 0.148662522 0.905661941 0.044368863
v 0.155130967 0.888586164 0.052286536
v 0.144830793 0.892995954 0.033936013
v -0.085632682 0.657875061 -0.099889249
v -0.099755779 0.694299638 -0.099452056
v -0.080076531 0.681281805 -0.102431521
v 0.049827736 0.645370841 0.036290701
v -0.099620327 0.717221797 -0.103940032
v 0.047922142 0.893740654 -0.145826191
v -0.076983288 0.704569459 -0.103388764
v 0.023192298 0.885852158 -0.139900178
v -0.040466920 0.842032790 -0.134970665
v -0.037785999 0.867761433 -0.143286332
v 0.198909298 0.640402198 0.002057462
v 0.189161733 0.648453832 0.035777889
v -0.058769308 0.695342600 -0.084440008
v -0.061325032 0.721763074 -0.091581568
v -0.150674164 0.925421834 -0.102716342
v 0.170431763 0.852011561 0.049429812
v 0.150814757 0.849470317 0.057310056
v -0.189149261 0.578126669 -0.013478604
v 0.167098910 0.615089297 0.052158415
v 0.174917817 0.640493870 0.051978417
v -0.186212331 0.561874986 -0.007266890
v 0.137487262 0.869489193 0.052393597
v -0.049825519 0.599025607 -0.046696778
v -0.044845652 0.581675649 -0.048466254
v 0.013300416 0.616793513 0.018187325
v -0.028759893 0.581589639 -0.044190276
v -0.000954923 0.922988117 0.069578879
v 0.064140238 0.882811844 -0.148774475
v -0.017805202 0.922843456 0.068962373
v -0.031801999 0.607863545 0.019756762
v 0.133651420 0.627770782 0.072734222
v 0.036229957 0.906589866 0.067277119
v 0.086708486 0.585994601 0.051744409
v 0.073890962 0.601217926 0.048415963
v 0.108122088 0.597707450 0.063165389
v 0.045794778 0.829449356 -0.125403836
v 0.127843127 0.603200316 0.074033402
v 0.059285361 0.606047332 0.033719070
v 0.191333070 0.596077800 0.008127820
v 0.128411666 0.842607677 0.064989746
v 0.116085805 0.860744178 0.060681928
v 0.182161048 0.875165343 0.007921832
v 0.111159086 0.620348454 0.067824848
v 0.193088323 0.878511310 -0.020091254
v 0.185202673 0.872448802 -0.045865212
v 0.055925377 0.903928161 0.064666584
v 0.091660276 0.632699430 0.060649376
v 0.114050642 0.646614730 0.071391508
v 0.173501402 0.882199943 -0.066331051
v 0.165639952 0.895295322 -0.083949730
v 0.091202259 0.610136926 0.057441436
v 0.162524968 0.884849250 -0.097311541
v 0.163811237 0.599619389 -0.063030154
v 0.171773672 0.605242252 -0.083914563
v 0.069281071 0.643394113 0.052007176
v 0.142993391 0.606654465 -0.077283397
v 0.137460396 0.888885379 -0.125095859
v 0.071814731 0.620811224 0.050488174
v 0.115569018 0.694974542 0.075917266
v 0.146277398 0.608250499 0.060796410
v 0.179104343 0.599918008 0.039399110
v 0.195783168 0.608137727 0.025935018
v 0.200546458 0.695529282 -0.041402094
v 0.142536953 0.702744961 -0.091004632
v 0.053651053 0.626295507 0.035077438
v 0.138711333 0.687995851 -0.106965289
v 0.200369239 0.609297514 -0.033117313
v 0.193566501 0.604683518 -0.012549472
v 0.038701028 0.661942601 0.032631464
v 0.010515446 0.683496833 0.027866010
v 0.097966075 0.869754493 0.063144699
v 0.075396255 0.902308464 0.061825883
v 0.017174512 0.702917457 0.031557318
v 0.037987810 0.805118740 0.046044644
v 0.023331057 0.782956064 0.041235697
v 0.019420605 0.622102916 -0.052192010
v 0.063095368 0.883627892 0.061720788
v 0.037987430 0.662227213 -0.063718230
v 0.035657436 0.856719673 0.057562083
v 0.050827302 0.867622375 0.060346901
v 0.016438119 0.855461955 0.059034657
v 0.036961056 0.603061259 -0.049531348
v 0.056058042 0.666319013 -0.074233912
v 0.080987975 0.769036651 0.066985242
v 0.202018172 0.695787072 0.025495991
v 0.194522724 0.796577573 -0.064937577
v 0.062295116 0.600968063 -0.056418858
v 0.161931232 0.692266881 -0.084559716
v 0.121778764 0.778937280 -0.122606911
v 0.120434269 0.700088620 -0.100449778
v 0.087849692 0.598408461 -0.067678809
v 0.049268108 0.706829965 -0.083733708
v 0.036133800 0.767295957 -0.089848109
v 0.116275191 0.608712554 -0.079817913
v 0.102929667 0.591313183 -0.088332057
v 0.100603819 0.901010513 -0.142958313
v 0.082006492 0.882203698 0.059609257
v 0.076304540 0.858490646 0.056625105
v 0.124085031 0.586784244 -0.073476262
v 0.029425779 0.840156376 0.051933486
v 0.048013367 0.825812697 0.049124710
v 0.078313336 0.902829647 -0.147834361
v 0.151053533 0.584662855 -0.073363766
v 0.170700341 0.762986481 -0.089384481
v 0.020452008 0.825076759 -0.111654267
v 0.166152611 0.644297004 -0.079504110
v 0.177132592 0.583716750 -0.073592015
v 0.014425417 0.692977071 -0.069569744
v 0.161063477 0.580174923 -0.061234910
v 0.028969789 0.789119184 -0.092928484
v 0.176295131 0.584246218 -0.046300318
v 0.186625108 0.595007956 -0.032240611
v 0.065386303 0.727404952 0.058288049
v 0.105838560 0.876471698 -0.141190410
v 0.085047528 0.880986392 -0.147719413
v 0.015570961 0.768904686 -0.084625781
v 0.201948956 0.587758064 -0.022535957
v 0.125904649 0.657448828 -0.087970234
v 0.208544344 0.648344815 -0.012812125
v 0.198663518 0.632026851 0.022472855
v 0.149545997 0.650564551 -0.077752307
v 0.143253654 0.651047230 -0.095534384
v 0.191807047 0.582718432 0.028530549
v 0.167637199 0.835152924 0.057426073
v 0.201928973 0.833863080 0.008643428
v 0.189664781 0.655442536 -0.046879895
v 0.049003821 0.622921824 -0.054274328
v 0.159946382 0.587346911 0.051591288
v 0.092026532 0.751216054 0.070532478
v 0.202278659 0.663317084 -0.001372080
v 0.200705081 0.655680776 0.018179853
v 0.090890214 0.673343003 -0.090593413
v 0.138928831 0.582784116 0.061264861
v 0.117906712 0.829899609 -0.128611907
v -0.005862623 0.754422963 0.034720719
v -0.007876134 0.669597924 0.025141384
v 0.056555409 0.660509706 0.044260461
v 0.120073602 0.581263542 0.073337004
v 0.137447357 0.832302451 -0.108555771
v -0.007130350 0.720398486 0.030930892
v -0.005247359 0.771652043 0.036227040
v 0.105018020 0.578261673 0.059052479
v 0.022215251 0.823162258 0.043791138
v -0.002214564 0.823422730 0.042761140
v 0.114217326 0.880236030 0.047891885
v 0.067206383 0.585828722 0.037093960
v 0.114162207 0.903062046 0.047325768
v 0.189521655 0.581719697 -0.008657612
v 0.109632410 0.753916860 0.077824421
v 0.033359997 0.907870471 -0.142978102
v 0.045359332 0.588631690 0.025995424
v 0.064904206 0.863376975 -0.147192627
v 0.018330073 0.592843592 0.021160800
v 0.037512299 0.611590981 0.023398360
v 0.040297873 0.809700131 -0.106005453
v 0.015782371 0.804127872 0.040121414
v 0.015600133 0.659722745 0.024873395
v -0.008626447 0.652854979 0.022544164
v -0.007316976 0.703353047 0.029316312
v 0.186500445 0.578234911 -0.026893651
v -0.007389856 0.686393380 0.027549181
v 0.074149065 0.623238206 -0.068629690
v 0.086243466 0.751306057 -0.104589723
v 0.106297515 0.762638927 -0.111569896
v 0.164452836 0.746873260 0.067295238
v 0.100656092 0.713954568 0.071414344
v 0.167866170 0.720542014 0.063919023
v 0.093496427 0.614017546 -0.087798126
v 0.187800363 0.575830758 0.009609144
f 555 540 123
f 389 162 497
f 567 540 568
f 583 104 251
f 463 489 430
f 453 94 255
f 483 484 162
f 446 640 671
f 574 577 251
f 50 244 238
f 52 244 50
f 575 57 53
f 55 249 52
f 55 2 250
f 577 248 563
f 575 437 432
f 57 597 589
f 2 265 262
f 589 592 57
f 262 259 2
f 5 267 262
f 602 606 589
f 5 9 11
f 58 606 610
f 11 272 5
f 12 278 11
f 565 793 8
f 630 60 632
f 13 425 12
f 424 289 160
f 289 424 13
f 643 649 60
f 181 403 179
f 483 206 484
f 163 651 174
f 53 563 558
f 651 65 650
f 163 389 384
f 683 66 65
f 455 558 563
f 165 384 171
f 340 331 34
f 67 66 683
f 206 470 63
f 385 102 856
f 67 702 70
f 344 340 696
f 179 403 406
f 710 70 702
f 16 352 14
f 111 112 59
f 63 64 655
f 18 368 16
f 710 742 753
f 119 112 111
f 394 671 545
f 551 922 903
f 19 375 18
f 753 740 711
f 406 470 179
f 261 615 108
f 545 453 439
f 178 386 530
f 24 386 23
f 72 753 742
f 26 396 24
f 768 765 72
f 119 142 112
f 32 63 470
f 112 142 161
f 399 400 396
f 154 343 182
f 545 671 448
f 399 415 400
f 768 770 765
f 32 406 410
f 418 415 399
f 770 183 777
f 387 300 166
f 415 418 422
f 105 86 299
f 169 42 839
f 170 142 119
f 173 172 705
f 329 638 343
f 134 738 737
f 185 638 329
f 692 661 145
f 150 74 741
f 637 345 873
f 132 145 661
f 170 184 142
f 138 495 760
f 138 136 188
f 136 194 188
f 201 87 194
f 270 87 205
f 216 49 210
f 46 216 724
f 198 184 170
f 43 96 907
f 219 39 218
f 45 43 41
f 224 37 219
f 498 224 514
f 86 105 342
f 225 36 514
f 378 107 110
f 80 233 107
f 22 41 43
f 198 217 849
f 41 581 45
f 103 233 76
f 76 40 103
f 222 217 214
f 678 100 40
f 98 41 22
f 366 41 98
f 40 76 678
f 215 4 284
f 215 98 21
f 537 536 92
f 222 234 217
f 904 537 92
f 460 462 30
f 284 471 366
f 222 239 246
f 586 903 759
f 462 28 30
f 246 234 222
f 454 449 28
f 237 391 924
f 560 319 921
f 246 888 252
f 431 471 282
f 455 560 391
f 319 560 241
f 50 238 793
f 50 566 52
f 52 574 55
f 258 263 510
f 244 52 249
f 55 253 2
f 284 792 657
f 303 670 667
f 303 100 674
f 250 249 55
f 273 274 252
f 251 253 574
f 100 303 301
f 301 570 100
f 104 261 257
f 677 100 678
f 273 285 274
f 257 2 253
f 2 257 265
f 250 2 259
f 570 568 40
f 752 292 293
f 294 296 285
f 285 296 274
f 684 497 679
f 277 274 296
f 440 447 442
f 579 489 463
f 692 329 695
f 259 262 267
f 871 736 360
f 262 271 9
f 40 100 570
f 570 567 568
f 203 128 270
f 310 296 294
f 305 296 310
f 87 270 194
f 9 5 262
f 5 272 600
f 276 9 271
f 9 276 11
f 272 11 278
f 302 323 310
f 568 103 40
f 108 615 89
f 280 11 276
f 11 280 12
f 103 568 540
f 278 12 425
f 323 337 328
f 283 12 280
f 12 283 13
f 283 297 289
f 289 13 283
f 540 561 231
f 425 13 424
f 209 288 205
f 291 125 286
f 346 337 323
f 49 304 288
f 173 350 351
f 297 654 314
f 347 158 864
f 304 47 311
f 47 304 49
f 47 46 481
f 360 361 855
f 501 684 146
f 481 311 47
f 46 39 481
f 343 695 329
f 314 289 297
f 289 314 160
f 481 321 308
f 481 39 321
f 325 122 321
f 325 321 37
f 37 321 39
f 333 160 314
f 324 266 333
f 527 107 231
f 84 121 325
f 36 327 498
f 160 333 34
f 327 120 84
f 36 82 371
f 277 393 390
f 689 34 333
f 34 689 340
f 313 34 331
f 266 334 689
f 334 260 341
f 340 335 331
f 107 527 110
f 54 404 405
f 696 14 344
f 61 401 44
f 38 299 407
f 358 14 348
f 14 358 16
f 344 14 352
f 356 704 712
f 352 16 368
f 413 62 417
f 370 16 358
f 16 370 18
f 175 705 134
f 713 115 110
f 371 27 378
f 27 371 82
f 381 18 370
f 18 381 19
f 368 18 375
f 80 378 27
f 19 381 235
f 19 395 23
f 19 23 178
f 202 506 913
f 23 395 24
f 386 24 396
f 398 24 395
f 24 398 26
f 26 398 220
f 26 412 399
f 396 26 399
f 418 399 412
f 164 180 444
f 444 443 164
f 175 173 705
f 685 84 120
f 422 300 415
f 685 121 84
f 172 169 300
f 172 300 422
f 78 80 27
f 226 365 78
f 89 615 114
f 240 485 309
f 134 737 175
f 226 27 82
f 245 459 452
f 187 186 140
f 243 459 245
f 189 187 130
f 581 466 579
f 467 472 637
f 308 122 240
f 138 579 466
f 430 255 463
f 499 435 430
f 453 430 435
f 435 440 439
f 435 499 450
f 243 479 281
f 308 321 122
f 897 438 584
f 439 453 435
f 243 281 893
f 450 440 435
f 480 859 865
f 440 449 447
f 442 439 440
f 450 449 440
f 447 449 454
f 492 488 493
f 127 458 456
f 449 456 28
f 82 225 708
f 454 28 462
f 28 456 30
f 456 450 127
f 30 456 458
f 225 82 36
f 30 464 460
f 506 507 502
f 126 469 125
f 287 508 509
f 207 507 506
f 410 460 32
f 126 306 477
f 460 464 644
f 644 32 460
f 32 644 63
f 475 31 576
f 470 406 32
f 64 63 644
f 306 309 477
f 125 464 458
f 528 795 511
f 516 523 524
f 655 206 63
f 206 655 484
f 206 474 470
f 162 679 497
f 316 322 822
f 313 160 34
f 37 498 325
f 523 316 534
f 497 684 501
f 501 146 505
f 146 512 503
f 505 503 513
f 263 515 510
f 512 120 115
f 503 512 91
f 517 513 503
f 115 713 91
f 458 203 125
f 315 547 548
f 91 512 115
f 547 330 336
f 91 713 88
f 517 88 522
f 552 548 547
f 532 88 713
f 88 532 519
f 552 336 553
f 522 519 541
f 527 231 561
f 127 128 458
f 538 660 692
f 514 36 498
f 224 498 37
f 538 692 695
f 114 626 631
f 553 342 105
f 219 37 39
f 555 660 561
f 127 450 499
f 891 199 824
f 660 555 661
f 218 39 46
f 199 97 886
f 366 98 284
f 22 21 98
f 41 366 581
f 43 232 22
f 907 232 43
f 96 536 907
f 45 463 255
f 45 581 463
f 255 94 96
f 255 96 45
f 94 453 545
f 448 546 545
f 582 593 594
f 595 584 438
f 216 46 47
f 216 47 49
f 551 640 558
f 558 640 569
f 49 288 209
f 793 565 50
f 569 53 558
f 566 50 565
f 209 210 49
f 841 351 350
f 574 52 566
f 578 53 57
f 612 609 423
f 53 578 563
f 575 53 569
f 597 432 211
f 253 55 574
f 57 575 597
f 578 57 592
f 592 583 578
f 627 609 612
f 584 621 628
f 603 589 606
f 602 589 597
f 634 819 627
f 610 606 602
f 835 318 229
f 626 606 58
f 610 624 58
f 58 624 630
f 632 58 630
f 634 884 869
f 58 632 626
f 60 642 632
f 642 60 649
f 60 630 181
f 650 649 643
f 662 652 645
f 656 628 621
f 621 636 656
f 658 659 204
f 64 644 469
f 466 495 138
f 694 377 700
f 468 471 431
f 663 650 65
f 628 656 668
f 679 162 484
f 65 686 663
f 672 673 659
f 686 65 66
f 683 65 651
f 468 431 478
f 683 693 67
f 685 146 684
f 146 685 512
f 696 340 689
f 66 67 701
f 473 495 478
f 66 698 686
f 702 67 693
f 668 675 687
f 701 698 66
f 405 690 54
f 701 67 70
f 54 690 564
f 14 696 348
f 711 70 710
f 699 70 711
f 702 709 710
f 229 318 236
f 657 282 471
f 710 709 742
f 753 756 740
f 756 753 72
f 742 754 72
f 72 754 768
f 72 765 756
f 766 765 770
f 490 193 496
f 130 772 496
f 770 776 766
f 15 719 168
f 87 201 148
f 183 770 768
f 201 194 136
f 422 705 172
f 633 777 338
f 777 633 150
f 408 74 633
f 638 185 408
f 106 730 258
f 688 379 694
f 275 631 118
f 185 692 145
f 197 750 749
f 736 737 738
f 263 258 730
f 738 741 743
f 185 145 143
f 743 741 744
f 744 741 74
f 744 467 879
f 132 140 145
f 123 132 661
f 741 738 150
f 123 540 567
f 773 772 567
f 738 134 150
f 78 27 226
f 238 623 1
f 264 279 779
f 776 150 134
f 134 705 420
f 695 541 538
f 104 599 261
f 365 681 680
f 761 762 763
f 365 678 76
f 76 78 365
f 411 156 420
f 156 411 220
f 541 519 538
f 220 764 156
f 76 233 78
f 80 78 233
f 168 789 387
f 70 699 701
f 398 395 228
f 434 437 445
f 779 780 887
f 428 432 434
f 926 317 706
f 197 749 745
f 213 6 4
f 279 785 780
f 419 427 428
f 148 201 745
f 454 462 419
f 526 782 783
f 381 734 235
f 410 414 419
f 493 769 913
f 511 4 215
f 4 511 213
f 406 414 410
f 208 731 729
f 21 511 215
f 210 728 727
f 794 800 823
f 511 21 529
f 470 474 179
f 724 218 46
f 227 110 115
f 118 280 275
f 219 218 722
f 806 800 794
f 803 804 256
f 716 778 225
f 224 219 720
f 407 86 690
f 356 734 381
f 389 497 380
f 809 795 528
f 810 806 811
f 717 716 514
f 497 501 380
f 317 697 429
f 810 818 821
f 913 771 202
f 341 698 699
f 373 376 159
f 369 177 373
f 341 260 698
f 260 334 266
f 365 226 681
f 517 522 354
f 828 821 818
f 354 362 364
f 569 640 446
f 519 522 88
f 767 828 818
f 266 324 676
f 602 597 211
f 804 834 256
f 121 240 122
f 345 868 918
f 610 602 211
f 169 839 166
f 427 195 211
f 643 179 174
f 683 651 165
f 693 683 171
f 627 884 634
f 324 654 676
f 846 397 841
f 841 397 374
f 362 709 369
f 580 397 846
f 192 188 190
f 192 499 489
f 128 192 190
f 270 205 203
f 205 288 286
f 291 306 126
f 208 148 733
f 288 304 291
f 304 311 306
f 311 481 308
f 286 125 203
f 283 118 297
f 589 599 592
f 283 280 118
f 227 115 120
f 747 805 732
f 707 226 82
f 107 378 80
f 275 114 631
f 118 646 297
f 89 114 275
f 231 233 103
f 87 209 205
f 816 872 870
f 271 108 89
f 248 560 455
f 248 241 560
f 108 271 265
f 566 565 241
f 86 876 690
f 622 244 619
f 517 91 88
f 574 566 248
f 715 662 889
f 244 249 618
f 249 250 614
f 882 465 718
f 253 251 257
f 774 465 882
f 250 259 608
f 883 494 774
f 921 391 560
f 259 267 604
f 54 564 847
f 251 577 583
f 600 267 5
f 89 276 271
f 503 91 517
f 690 405 407
f 275 276 89
f 892 573 582
f 272 278 596
f 248 577 574
f 280 276 275
f 425 588 591
f 425 424 781
f 781 313 572
f 424 313 781
f 572 585 781
f 314 654 324
f 136 197 201
f 313 557 572
f 237 551 558
f 554 331 335
f 334 341 348
f 760 136 138
f 335 344 549
f 341 699 704
f 348 696 334
f 921 319 7
f 358 348 704
f 344 352 544
f 912 582 594
f 903 586 551
f 352 368 543
f 381 370 356
f 368 375 539
f 788 8 3
f 535 375 178
f 221 795 809
f 828 767 562
f 559 833 920
f 921 920 899
f 546 448 898
f 903 922 836
f 38 903 299
f 235 228 395
f 405 669 407
f 546 92 94
f 400 518 520
f 92 546 904
f 639 35 926
f 386 396 525
f 927 926 33
f 928 605 930
f 200 490 298
f 94 545 546
f 96 92 536
f 927 56 852
f 143 472 408
f 220 412 26
f 400 520 521
f 412 220 411
f 109 113 152
f 920 832 559
f 418 412 411
f 152 113 746
f 387 789 786
f 420 418 411
f 746 161 867
f 418 420 422
f 490 773 298
f 496 772 773
f 394 442 445
f 562 767 832
f 739 636 820
f 204 725 658
f 773 490 496
f 725 223 635
f 447 454 428
f 472 186 637
f 215 284 98
f 189 130 496
f 458 464 30
f 410 462 460
f 125 469 464
f 635 247 487
f 487 269 629
f 641 487 629
f 268 269 487
f 269 393 629
f 390 269 268
f 469 126 64
f 349 761 763
f 655 64 477
f 303 674 670
f 290 393 277
f 611 290 928
f 163 474 483
f 928 307 605
f 635 641 648
f 531 605 533
f 677 674 100
f 477 309 485
f 506 202 207
f 679 485 240
f 240 121 684
f 312 912 594
f 684 679 240
f 121 685 684
f 186 187 345
f 503 505 146
f 912 332 892
f 772 130 132
f 685 120 512
f 501 505 159
f 725 648 658
f 505 513 373
f 513 517 364
f 892 847 564
f 110 527 713
f 714 847 339
f 522 541 154
f 51 714 346
f 231 103 540
f 714 51 404
f 541 695 343
f 567 772 123
f 502 500 506
f 578 577 563
f 867 659 673
f 577 578 583
f 597 575 432
f 592 104 583
f 913 492 493
f 845 167 839
f 599 104 592
f 386 178 23
f 599 603 615
f 110 227 378
f 615 261 599
f 706 402 639
f 603 626 114
f 132 123 772
f 624 610 195
f 409 706 317
f 746 673 682
f 114 615 603
f 120 327 227
f 624 414 403
f 691 429 697
f 642 631 632
f 642 118 631
f 429 433 853
f 646 118 642
f 642 649 646
f 152 682 691
f 682 433 691
f 181 643 60
f 654 297 646
f 122 325 121
f 140 130 187
f 421 416 617
f 123 661 555
f 309 308 240
f 698 260 686
f 702 693 177
f 698 701 699
f 672 441 436
f 291 126 125
f 109 691 697
f 143 140 186
f 874 872 816
f 665 441 672
f 188 192 489
f 665 658 653
f 712 704 699
f 653 451 665
f 927 697 317
f 712 740 734
f 648 461 653
f 178 375 19
f 923 880 116
f 641 461 648
f 740 756 748
f 748 758 228
f 926 706 639
f 479 641 482
f 754 742 362
f 354 754 362
f 407 669 38
f 203 458 128
f 482 629 620
f 756 765 758
f 182 754 154
f 128 127 192
f 254 246 252
f 611 382 620
f 764 398 228
f 499 192 127
f 764 766 156
f 766 776 156
f 930 611 928
f 420 156 776
f 140 132 130
f 788 7 8
f 387 166 168
f 420 776 134
f 136 760 197
f 300 387 415
f 750 197 760
f 745 201 197
f 148 208 209
f 733 148 745
f 258 35 106
f 593 533 605
f 731 208 733
f 236 318 910
f 729 210 208
f 728 210 729
f 727 216 210
f 188 489 579
f 929 573 556
f 724 216 727
f 573 929 582
f 723 218 724
f 722 218 723
f 720 219 722
f 717 224 720
f 514 224 717
f 188 579 138
f 876 556 573
f 707 681 226
f 898 904 546
f 472 143 186
f 212 795 221
f 899 391 921
f 854 925 931
f 213 795 212
f 140 143 145
f 404 54 714
f 833 922 924
f 415 387 786
f 143 408 185
f 238 3 793
f 1 3 238
f 31 799 752
f 622 238 244
f 918 799 515
f 380 376 171
f 915 752 357
f 617 476 421
f 619 244 618
f 618 249 616
f 616 249 614
f 636 739 613
f 388 613 10
f 614 250 608
f 357 791 915
f 383 688 388
f 608 259 607
f 571 438 576
f 295 667 666
f 92 96 94
f 607 259 604
f 372 726 700
f 667 295 303
f 367 726 372
f 604 267 601
f 298 295 207
f 923 875 880
f 363 732 367
f 408 467 74
f 148 209 87
f 298 301 295
f 359 747 363
f 601 267 600
f 359 355 755
f 600 272 598
f 598 272 596
f 353 755 355
f 301 298 773
f 596 278 591
f 747 755 751
f 591 278 425
f 588 425 781
f 388 688 813
f 769 771 913
f 763 353 349
f 202 771 200
f 506 500 913
f 74 467 744
f 773 570 301
f 82 708 707
f 320 647 326
f 500 492 913
f 331 554 557
f 242 910 320
f 344 335 340
f 910 908 647
f 554 335 550
f 239 222 703
f 549 550 335
f 549 344 544
f 166 167 168
f 544 352 543
f 543 368 542
f 17 15 167
f 17 845 157
f 907 536 919
f 157 850 155
f 155 850 153
f 542 368 539
f 150 633 74
f 153 854 151
f 151 854 149
f 149 858 147
f 147 862 144
f 539 375 535
f 759 903 38
f 530 535 178
f 144 862 141
f 141 866 139
f 139 866 137
f 530 386 525
f 137 870 135
f 525 396 521
f 135 870 872
f 133 872 131
f 131 874 129
f 129 923 117
f 923 874 875
f 170 119 902
f 521 396 400
f 20 932 101
f 99 101 932
f 99 886 97
f 95 97 199
f 95 891 93
f 93 896 90
f 518 400 786
f 90 896 85
f 85 901 83
f 83 905 81
f 169 166 300
f 81 905 79
f 77 79 796
f 77 909 75
f 439 394 545
f 75 914 73
f 73 914 71
f 71 916 69
f 442 394 439
f 468 466 366
f 442 447 434
f 7 562 920
f 794 534 811
f 924 899 833
f 434 447 428
f 428 454 419
f 419 462 410
f 38 898 759
f 902 111 897
f 466 468 495
f 526 524 534
f 25 59 56
f 96 43 45
f 895 401 61
f 182 343 338
f 483 389 163
f 483 162 389
f 897 59 25
f 883 894 775
f 776 777 150
f 59 897 111
f 380 384 389
f 774 882 893
f 111 902 119
f 778 708 225
f 501 159 380
f 167 166 839
f 159 505 373
f 176 191 867
f 373 513 369
f 364 369 513
f 850 890 925
f 354 364 517
f 354 522 154
f 177 369 709
f 154 541 343
f 446 445 437
f 376 380 159
f 204 223 725
f 217 198 214
f 214 703 222
f 437 569 446
f 610 211 195
f 414 624 195
f 403 630 624
f 889 718 715
f 160 313 424
f 181 630 403
f 888 246 239
f 179 643 181
f 174 650 643
f 651 650 174
f 163 384 165
f 487 247 268
f 165 651 163
f 171 683 165
f 174 474 163
f 557 313 331
f 475 515 799
f 376 693 171
f 285 273 757
f 177 693 376
f 627 885 884
f 174 179 474
f 509 508 516
f 294 302 310
f 709 702 177
f 709 362 742
f 154 754 354
f 182 338 183
f 780 785 803
f 183 768 182
f 423 413 881
f 183 338 777
f 638 338 343
f 633 638 408
f 590 401 895
f 692 185 329
f 190 188 194
f 515 475 25
f 270 190 194
f 190 270 128
f 195 427 414
f 7 788 562
f 915 878 571
f 877 595 438
f 203 205 286
f 44 48 61
f 474 206 483
f 210 209 208
f 61 62 895
f 413 895 62
f 211 432 427
f 172 42 169
f 398 764 220
f 515 263 918
f 437 575 569
f 228 758 764
f 124 885 426
f 175 871 350
f 84 498 327
f 225 514 716
f 327 371 227
f 918 263 730
f 898 448 759
f 371 327 36
f 839 374 890
f 227 371 378
f 451 441 665
f 228 235 748
f 444 180 457
f 233 231 107
f 187 868 345
f 759 448 586
f 189 292 868
f 734 748 235
f 653 461 826
f 924 922 237
f 292 193 196
f 446 671 394
f 461 641 479
f 922 551 237
f 391 237 455
f 482 641 629
f 918 868 799
f 196 200 293
f 771 293 200
f 558 455 237
f 281 287 894
f 894 893 281
f 248 566 241
f 257 251 104
f 255 430 453
f 257 261 265
f 509 775 287
f 260 266 676
f 509 516 524
f 265 261 108
f 523 516 531
f 322 316 523
f 273 252 888
f 265 271 262
f 811 534 316
f 316 315 811
f 676 686 260
f 366 466 581
f 478 495 468
f 330 547 315
f 547 336 552
f 366 471 468
f 760 495 473
f 657 471 284
f 336 342 553
f 553 900 552
f 832 900 553
f 865 878 791
f 792 284 4
f 31 571 576
f 286 288 291
f 438 571 877
f 906 864 863
f 4 790 792
f 8 7 319
f 303 295 301
f 291 304 306
f 570 773 567
f 739 617 392
f 617 416 392
f 306 311 309
f 309 311 308
f 170 628 668
f 613 739 10
f 739 392 10
f 656 675 668
f 656 815 675
f 680 678 365
f 813 613 388
f 324 333 314
f 687 198 668
f 379 688 383
f 295 666 207
f 815 656 636
f 377 694 379
f 325 498 84
f 689 333 266
f 334 696 689
f 700 377 372
f 861 834 860
f 703 721 239
f 732 726 367
f 834 861 256
f 348 341 704
f 747 732 363
f 356 358 704
f 735 888 721
f 370 358 356
f 735 264 757
f 735 273 888
f 755 747 359
f 369 364 362
f 353 763 755
f 647 761 326
f 761 349 326
f 376 373 177
f 779 757 264
f 780 779 279
f 384 380 171
f 235 395 19
f 736 871 737
f 562 788 917
f 910 647 320
f 785 804 803
f 414 406 403
f 256 323 803
f 813 675 815
f 415 786 400
f 427 419 414
f 422 420 705
f 432 428 427
f 430 489 499
f 587 580 590
f 437 434 432
f 445 442 434
f 446 394 445
f 671 586 448
f 819 609 627
f 456 449 450
f 455 563 248
f 865 791 769
f 581 579 463
f 645 652 817
f 644 464 469
f 652 662 715
f 874 923 129
f 715 664 652
f 694 812 688
f 477 64 126
f 750 760 473
f 485 655 477
f 465 715 718
f 507 207 666
f 465 774 494
f 865 486 480
f 812 675 813
f 485 484 655
f 207 202 298
f 883 504 825
f 493 865 769
f 783 782 504
f 679 484 485
f 202 200 298
f 196 490 200
f 196 193 490
f 877 859 476
f 302 803 323
f 189 496 193
f 814 806 810
f 168 719 789
f 821 814 810
f 391 899 924
f 713 527 532
f 467 408 472
f 302 294 887
f 786 787 518
f 538 519 532
f 561 532 527
f 926 35 33
f 538 532 660
f 540 555 561
f 551 586 640
f 319 241 565
f 660 532 561
f 113 161 746
f 161 176 867
f 8 319 565
f 223 247 635
f 781 585 784
f 620 629 393
f 887 780 302
f 269 390 393
f 671 640 586
f 781 784 588
f 599 589 603
f 393 290 611
f 626 603 606
f 928 290 305
f 623 238 622
f 625 1 623
f 774 893 894
f 312 332 912
f 626 632 631
f 332 339 847
f 847 892 332
f 757 887 285
f 847 714 54
f 793 3 8
f 732 807 726
f 858 931 857
f 675 812 687
f 168 167 15
f 273 735 757
f 920 921 7
f 402 385 639
f 167 845 17
f 638 633 338
f 646 649 663
f 650 663 649
f 845 850 157
f 888 239 721
f 663 654 646
f 706 409 48
f 850 854 153
f 676 654 663
f 429 409 317
f 661 692 660
f 854 858 149
f 676 663 686
f 858 862 147
f 433 429 691
f 678 680 677
f 699 711 712
f 712 734 356
f 711 710 753
f 862 866 141
f 712 711 740
f 682 436 827
f 734 740 748
f 866 870 137
f 214 687 808
f 748 756 758
f 664 816 652
f 872 133 135
f 198 687 214
f 754 182 768
f 872 874 131
f 665 659 658
f 758 765 766
f 658 648 653
f 766 764 758
f 776 770 777
f 668 198 170
f 117 923 116
f 787 786 789
f 929 330 822
f 533 822 322
f 556 336 330
f 531 322 523
f 899 920 833
f 662 444 889
f 346 323 256
f 491 482 620
f 116 880 911
f 911 20 116
f 382 491 620
f 911 932 20
f 932 886 99
f 645 443 662
f 930 382 611
f 382 930 516
f 886 824 199
f 605 531 930
f 491 508 848
f 628 170 902
f 256 347 346
f 482 848 479
f 891 896 93
f 347 256 861
f 820 617 739
f 866 819 817
f 605 594 593
f 896 901 85
f 929 593 582
f 612 881 885
f 901 905 83
f 826 451 653
f 451 457 180
f 672 659 665
f 441 180 851
f 79 905 796
f 436 673 672
f 436 851 827
f 909 914 75
f 682 673 436
f 914 916 71
f 584 902 897
f 876 86 342
f 69 916 1
f 829 433 827
f 700 808 694
f 788 3 916
f 853 829 417
f 409 61 48
f 402 48 855
f 870 817 816
f 855 29 360
f 874 816 664
f 385 361 102
f 830 880 875
f 576 897 25
f 819 634 817
f 68 69 1
f 106 856 730
f 743 736 738
f 910 242 236
f 862 857 819
f 744 879 102
f 880 830 831
f 840 528 843
f 401 846 44
f 803 302 780
f 769 791 357
f 878 915 791
f 831 911 880
f 918 873 345
f 576 25 475
f 799 31 475
f 841 29 846
f 879 856 102
f 106 639 385
f 573 564 876
f 911 831 802
f 342 556 876
f 337 339 332
f 25 510 515
f 350 29 841
f 564 573 892
f 892 582 912
f 510 25 56
f 864 906 837
f 312 328 337
f 929 822 593
f 33 35 258
f 871 360 29
f 840 860 835
f 864 158 863
f 29 855 44
f 916 914 917
f 808 687 812
f 594 307 312
f 307 305 328
f 916 917 788
f 33 56 927
f 840 835 809
f 307 594 605
f 736 743 361
f 531 516 930
f 290 277 305
f 852 109 927
f 318 835 860
f 21 844 529
f 852 59 112
f 620 393 611
f 102 743 744
f 112 113 852
f 751 763 762
f 647 785 762
f 805 747 751
f 252 268 254
f 230 835 229
f 487 641 635
f 637 879 467
f 124 851 164
f 809 230 221
f 161 142 176
f 807 732 805
f 247 234 254
f 230 809 835
f 808 700 807
f 345 637 186
f 176 184 191
f 812 694 808
f 204 849 223
f 849 204 191
f 813 688 812
f 635 648 725
f 849 184 198
f 815 613 813
f 815 636 613
f 217 223 849
f 659 191 204
f 217 234 223
f 191 184 849
f 859 480 421
f 795 213 511
f 245 461 243
f 878 865 859
f 802 886 932
f 191 659 867
f 452 718 889
f 223 234 247
f 176 142 184
f 246 254 234
f 865 493 486
f 293 771 357
f 268 247 254
f 771 769 357
f 805 264 735
f 268 252 390
f 161 113 112
f 486 493 488
f 390 252 274
f 867 673 746
f 264 751 279
f 274 277 390
f 746 682 152
f 281 848 287
f 827 433 682
f 808 703 214
f 152 691 109
f 109 852 113
f 476 859 421
f 296 305 277
f 476 595 877
f 305 307 928
f 196 293 292
f 595 476 820
f 726 807 700
f 752 293 357
f 307 328 312
f 310 328 305
f 56 59 852
f 292 752 799
f 328 310 323
f 886 825 824
f 312 337 332
f 807 703 808
f 891 824 782
f 193 292 189
f 844 21 22
f 429 853 409
f 109 697 927
f 56 33 510
f 105 559 553
f 339 337 346
f 346 714 339
f 51 346 347
f 317 926 927
f 564 690 876
f 863 844 232
f 799 868 292
f 510 33 258
f 843 528 529
f 844 863 842
f 861 840 843
f 861 158 347
f 861 860 840
f 752 915 31
f 158 843 842
f 843 158 861
f 842 529 844
f 919 837 906
f 906 232 907
f 809 528 840
f 730 873 918
f 730 856 873
f 873 856 879
f 856 106 385
f 817 634 645
f 837 919 838
f 817 652 816
f 919 906 907
f 919 536 537
f 743 102 361
f 904 669 838
f 898 669 904
f 669 898 38
f 703 807 721
f 405 404 838
f 669 405 838
f 922 833 836
f 294 285 887
f 361 385 402
f 869 645 634
f 830 875 664
f 916 3 1
f 864 51 347
f 402 855 361
f 909 801 914
f 397 890 374
f 48 44 855
f 796 909 77
f 879 637 873
f 901 798 905
f 580 925 397
f 48 402 706
f 896 800 901
f 891 823 896
f 409 62 61
f 853 62 409
f 881 413 417
f 417 62 853
f 86 407 299
f 459 893 882
f 199 891 95
f 830 465 831
f 829 426 417
f 426 829 124
f 426 881 417
f 124 829 827
f 433 829 853
f 886 802 825
f 774 894 883
f 851 124 827
f 164 884 124
f 441 851 436
f 180 164 851
f 443 869 164
f 911 802 932
f 715 830 664
f 874 664 875
f 736 361 360
f 451 180 441
f 457 452 889
f 889 444 457
f 866 817 870
f 106 35 639
f 459 718 452
f 826 452 457
f 452 826 245
f 451 826 457
f 862 819 866
f 858 857 862
f 461 245 826
f 459 882 718
f 479 243 461
f 854 931 858
f 850 925 854
f 846 401 580
f 845 890 850
f 491 848 482
f 848 281 479
f 825 494 883
f 382 508 491
f 900 832 767
f 508 287 848
f 896 823 800
f 839 890 845
f 504 782 824
f 42 374 839
f 516 508 382
f 908 910 318
f 534 524 523
f 552 818 548
f 42 172 173
f 901 800 798
f 818 552 900
f 533 322 531
f 871 175 737
f 868 187 189
f 22 232 844
f 593 822 533
f 822 315 316
f 929 556 330
f 330 315 822
f 838 919 537
f 904 838 537
f 318 860 834
f 908 318 834
f 465 830 715
f 556 342 336
f 105 836 559
f 833 559 836
f 29 44 846
f 908 834 804
f 562 917 828
f 299 836 105
f 818 900 767
f 832 553 559
f 562 832 920
f 811 315 548
f 828 801 821
f 801 828 917
f 821 797 814
f 836 299 903
f 401 590 580
f 797 821 801
f 905 798 796
f 796 814 797
f 810 548 818
f 814 798 806
f 798 814 796
f 909 796 797
f 811 548 810
f 413 587 590
f 404 51 837
f 51 864 837
f 837 838 404
f 909 797 801
f 529 842 843
f 158 842 863
f 232 906 863
f 800 806 798
f 529 528 511
f 794 811 806
f 785 908 804
f 785 647 908
f 859 877 878
f 526 534 794
f 877 571 878
f 571 31 915
f 173 351 42
f 524 783 509
f 350 173 175
f 29 350 871
f 823 526 794
f 783 524 526
f 526 823 782
f 42 351 374
f 841 374 351
f 504 775 783
f 509 783 775
f 782 823 891
f 885 124 884
f 887 757 779
f 914 801 917
f 426 885 881
f 890 397 925
f 825 504 824
f 775 504 883
f 925 587 931
f 587 925 580
f 802 494 825
f 785 279 762
f 494 831 465
f 831 494 802
f 894 287 775
f 590 895 413
f 438 897 576
f 884 164 869
f 762 279 751
f 423 931 587
f 587 413 423
f 931 423 857
f 762 761 647
f 617 820 476
f 595 820 621
f 751 755 763
f 893 459 243
f 751 264 805
f 609 857 423
f 423 881 612
f 662 443 444
f 721 805 735
f 621 584 595
f 857 609 819
f 443 645 869
f 612 885 627
f 636 621 820
f 628 902 584
f 805 721 807
