# avbd fit, rung f1800-i32-s300 of Gate 6d (body space, fit phase only)
v -0.020113265 0.613869727 0.000745737
v -0.094548993 0.624442995 0.060508482
v -0.019605646 0.630139112 0.006968900
v -0.002099148 0.897474885 0.067865647
v -0.141585037 0.598525047 0.061452515
v -0.003827002 0.920980334 0.069548696
v -0.017004043 0.659340262 0.002061881
v -0.017362330 0.644523978 0.002007846
v -0.145336375 0.615255237 0.061848212
v 0.150200963 0.920006752 -0.104793310
v -0.164358780 0.609225631 0.052147396
v -0.181667715 0.608993649 0.037175473
v -0.190294594 0.610064685 0.020526858
v -0.150980487 0.615205646 -0.070184208
v 0.012245908 0.625924647 -0.004393003
v -0.132494003 0.610729337 -0.075495996
v 0.033529960 0.623333991 -0.003574422
v -0.114270128 0.613034546 -0.081532940
v -0.096654840 0.622720480 -0.079149708
v 0.185610384 0.559435546 0.000574778
v -0.000805024 0.867418110 0.064121813
v -0.000833607 0.852369189 0.057816774
v -0.078987017 0.623818994 -0.070810728
v -0.066234596 0.632519305 -0.071516313
v 0.088073984 0.819567502 -0.115748033
v -0.045876801 0.637579799 -0.060008138
v -0.135719359 0.883048058 -0.126680225
v -0.138781041 0.792371213 0.072688386
v 0.033231869 0.703494966 -0.061530806
v -0.155408829 0.802729309 0.066768795
v 0.064327113 0.844208360 -0.142205149
v -0.191662386 0.777768075 0.045835234
v 0.075482473 0.784298658 -0.104833081
v -0.188598484 0.608950555 -0.034370266
v 0.059693038 0.776627481 -0.100341693
v -0.160439432 0.885934949 -0.100544892
v -0.178348035 0.881508350 -0.059559524
v 0.015577872 0.753285170 0.004646764
v -0.179702610 0.885338604 -0.039797433
v -0.080373935 0.885554612 -0.148268282
v -0.030152339 0.856977940 0.058712743
v 0.014008420 0.676699996 -0.020939749
v -0.019483078 0.837586999 0.052315436
v 0.051457249 0.700999677 -0.082898200
v -0.041356258 0.841576099 0.049755804
v -0.177219644 0.891205609 -0.021324467
v -0.185539037 0.877978802 -0.005624418
v 0.073920958 0.721827328 -0.095551521
v -0.174762934 0.880693614 0.012676713
v -0.052026916 0.628489912 0.026277265
v 0.055942398 0.812000394 0.054332197
v -0.074108608 0.626692772 0.052502651
v -0.069541492 0.707447946 0.058042519
v 0.051286172 0.772331655 0.054918744
v -0.060098916 0.624212086 0.040757690
v 0.092363551 0.794406414 -0.109675921
v -0.094959520 0.702097237 0.067724869
v -0.168892041 0.703150630 0.061438750
v 0.109527335 0.806111217 -0.114112958
v -0.198188737 0.699222147 0.034129344
v 0.075467274 0.704396009 -0.092660800
v 0.065995686 0.693435550 -0.086642332
v -0.202199981 0.788217366 0.025980145
v -0.197884351 0.809493184 0.024067324
v -0.206264734 0.698269546 -0.034884155
v -0.189709097 0.693950236 -0.056016356
v -0.179166883 0.706742644 -0.072821036
v -0.007506862 0.617927670 -0.014243415
v 0.015430543 0.611215413 -0.009644009
v -0.157286525 0.696046710 -0.082936756
v 0.034189917 0.605789840 -0.006877564
v -0.093589194 0.711452723 -0.100685954
v 0.045295034 0.596303523 0.000613698
v -0.027642984 0.770891845 -0.063809589
v 0.053715240 0.589744151 0.012675633
v -0.100171402 0.886441052 -0.143530503
v 0.058851402 0.577726543 0.017469699
v -0.118244603 0.886858642 -0.136433810
v 0.064447887 0.580790401 0.029610973
v -0.125451013 0.870526910 -0.134241268
v 0.071217470 0.580135763 0.042303126
v -0.144627362 0.898633599 -0.117103294
v 0.085065536 0.577210724 0.049727488
v -0.176696077 0.851203799 -0.083196402
v 0.099916935 0.572918117 0.055967785
v 0.039509542 0.733349323 0.035165139
v -0.143604890 0.876347899 0.047795080
v -0.119786993 0.802914321 -0.116971470
v -0.149685636 0.645651400 0.063195691
v 0.114284739 0.568802238 0.061895192
v -0.140819535 0.807491601 -0.108342215
v -0.022911120 0.806875110 0.020730469
v 0.132566303 0.566435933 0.062407754
v -0.033723887 0.804405570 0.042684849
v 0.147820532 0.564321756 0.054639101
v -0.026861865 0.824285030 0.035423703
v 0.163045868 0.562224030 0.046914704
v -0.019428669 0.873475194 0.064335175
v 0.175052181 0.560635328 0.033621229
v -0.068361655 0.903296769 -0.148737103
v 0.182604164 0.559731662 0.018175948
v 0.025203567 0.773325264 -0.061615281
v -0.091243170 0.866947353 -0.146039978
v -0.101253450 0.663718581 0.067013502
v 0.036285780 0.714901447 0.024603855
v 0.043133046 0.779265285 -0.095943354
v -0.120373353 0.853123307 -0.131432086
v -0.131827876 0.643847287 0.071188599
v 0.109966852 0.758442640 -0.112223312
v -0.130249456 0.842720807 -0.116226830
v 0.127424002 0.814466000 -0.113665342
v 0.133727670 0.792280853 -0.110301375
v 0.131099671 0.768821061 -0.109439626
v -0.157825261 0.663876712 0.061738055
v -0.144759923 0.829892337 -0.106303826
v 0.186208174 0.559394419 -0.016879473
v 0.179946810 0.560986102 -0.032895960
v -0.189835906 0.651430666 0.035121903
v 0.144843787 0.811243534 -0.106217757
v -0.163319468 0.839744389 -0.097516380
v -0.189776629 0.836575687 -0.066293657
v -0.194961667 0.849687457 -0.050801981
v -0.056513708 0.837262750 -0.135491922
v 0.131496340 0.676074982 -0.089343682
v -0.175460130 0.832898438 0.047246426
v -0.191784233 0.829464734 0.024960132
v -0.121563151 0.825827718 0.071239419
v -0.134431392 0.841198564 0.063691974
v 0.171693251 0.563982427 -0.048648588
v -0.022134310 0.833526015 -0.120169424
v 0.159125671 0.567672193 -0.060764957
v -0.040163457 0.827602506 -0.122548446
v 0.137713626 0.573734879 -0.068601437
v -0.029839005 0.718279123 -0.055368066
v 0.147049218 0.561899066 -0.064569935
v -0.107850097 0.882074058 0.048327614
v 0.133959040 0.561056733 -0.069329143
v -0.089017063 0.880034328 0.056321569
v 0.118007541 0.565368295 -0.074143752
v -0.023040108 0.818225384 -0.106798969
v 0.100558303 0.567626357 -0.067465760
v 0.158629343 0.797452807 -0.099691778
v -0.028557982 0.811447799 -0.087142505
v 0.085053042 0.571411669 -0.060393326
v -0.042791151 0.813083053 -0.107681572
v -0.179989174 0.802702427 -0.088544875
v 0.066562384 0.575216293 -0.051590480
v -0.144122422 0.892637134 0.039733015
v 0.077567443 0.582230151 -0.058232408
v -0.030317228 0.742397368 -0.067157559
v 0.065733165 0.588733137 -0.054714888
v 0.127974257 0.748325765 -0.107489787
v 0.055879086 0.592416227 -0.041161314
v -0.093241476 0.764146447 -0.108445607
v 0.049695894 0.601784766 -0.026509324
v -0.054953348 0.689462066 -0.081118628
v 0.043529108 0.613333285 -0.013990110
v 0.050862711 0.847108066 0.050113607
v -0.183020443 0.767552793 -0.079652354
v -0.195202619 0.614558697 -0.013731258
v 0.150900513 0.775637746 -0.101183310
v -0.208335131 0.784739554 -0.033007734
v -0.210048005 0.746313334 -0.022924162
v 0.153771475 0.667240322 -0.078310087
v -0.205264762 0.733239293 -0.043420821
v -0.017118609 0.654510736 -0.011389712
v 0.018200841 0.640647769 -0.013194278
v -0.016356733 0.639124513 -0.011187525
v -0.015361500 0.668546200 -0.017731849
v 0.164498746 0.822274089 -0.097821325
v -0.193650886 0.739361405 -0.060354959
v -0.014828509 0.683209181 -0.022030674
v -0.015070541 0.696987629 -0.029592967
v -0.209837317 0.730025887 -0.002177289
v -0.014819019 0.712170839 -0.034041531
v 0.169745713 0.781426370 -0.093198255
v -0.164471552 0.737483680 -0.088305444
v -0.077707350 0.606413543 -0.064491600
v -0.204727247 0.739887595 0.025834043
v 0.172869623 0.683424532 -0.072281979
v -0.198619559 0.719905019 0.036010917
v -0.075230405 0.755715728 -0.102175929
v -0.077387765 0.737855136 -0.101139233
v 0.180863753 0.800856113 -0.086829402
v -0.043272279 0.798693955 -0.095166296
v -0.005129564 0.817228317 -0.089528181
v -0.003910745 0.825825334 -0.104493842
v -0.101092696 0.862927139 0.059925936
v -0.003704969 0.838293374 -0.114918388
v -0.121854924 0.855683625 0.060987025
v 0.184479028 0.774431348 -0.078150138
v -0.108947471 0.843102157 0.068638884
v -0.003325410 0.850139320 -0.125452682
v -0.124028422 0.872038722 0.052618880
v -0.153750479 0.731419683 0.069587529
v -0.003097361 0.865468621 -0.130172864
v -0.115983501 0.900316417 0.045720201
v 0.187078670 0.824219108 -0.074113481
v 0.159642905 0.582111299 0.051137060
v -0.003017373 0.880918503 -0.132974118
v -0.127373546 0.887845159 0.041743986
v -0.002912704 0.896612346 -0.132866994
v -0.156403512 0.845826268 0.056944512
v 0.196030915 0.765792489 -0.059050560
v -0.159581110 0.865094960 0.045576960
v -0.210889965 0.778352857 0.005289126
v -0.002838142 0.912594914 -0.132248014
v -0.147941664 0.897372067 0.025117377
v -0.160350099 0.881910980 0.030849556
v -0.161105126 0.896924019 0.011205482
v -0.133017987 0.726284146 0.076563083
v 0.031531554 0.918434322 0.068358533
v 0.015165539 0.918525219 0.068954103
v 0.196500704 0.840069652 -0.052133523
v -0.000953762 0.883272529 0.066138916
v -0.174203977 0.896663189 -0.003806967
v 0.201723903 0.812073052 -0.049945466
v -0.173268825 0.902240276 -0.035295062
v -0.173192412 0.900160193 -0.052135248
v -0.059580855 0.663873076 -0.075110719
v 0.048279550 0.918619931 0.066851661
v 0.201949403 0.826393306 -0.030123731
v 0.207917333 0.781752229 -0.040053803
v -0.171878755 0.899482250 -0.069939271
v -0.155772462 0.906441033 -0.103238210
v -0.128108159 0.903150856 -0.131435186
v -0.147163346 0.851661980 -0.107279457
v -0.085567012 0.656141102 -0.083166346
v 0.081011996 0.917591453 0.060968976
v 0.064711720 0.918456256 0.064065441
v -0.100760713 0.849660218 -0.139006034
v -0.001136932 0.837354362 0.051355410
v -0.109106317 0.868527889 -0.140002340
v 0.207033068 0.802276909 -0.024781881
v -0.099118404 0.644831836 -0.086528376
v 0.096163407 0.916050136 0.054649960
v -0.031528961 0.707777917 0.014103571
v -0.045906361 0.614722967 0.010305345
v 0.200992674 0.836674035 -0.011845072
v -0.200968191 0.828823268 -0.040728606
v -0.044754896 0.658972800 0.023283590
v 0.110465325 0.913763404 0.048215300
v 0.205089182 0.683086693 -0.002084702
v -0.059316956 0.609545112 0.031458560
v 0.205324605 0.683428526 -0.022604432
v 0.205348521 0.816918731 -0.006497342
v 0.210084349 0.778689444 -0.011955856
v -0.051522572 0.669552445 0.037867259
v -0.083690375 0.611168802 0.053880822
v -0.067902602 0.605465412 0.046161879
v -0.082917117 0.658169389 0.059162479
v 0.202049777 0.805242062 0.020191234
v -0.080880173 0.642679870 0.056563698
v 0.209740400 0.797129095 -0.001790553
v -0.049133252 0.823199093 0.048852697
v 0.092666879 0.841037452 0.071705803
v -0.098397866 0.644463837 0.064316973
v 0.058046658 0.793979406 -0.100058474
v -0.100255013 0.600772321 0.059528757
v -0.188014895 0.658047736 -0.050955445
v -0.115907982 0.652700067 0.072056644
v -0.120551512 0.611663342 0.070140079
v 0.054649174 0.812501907 -0.098431632
v 0.174237698 0.858824432 0.031747065
v -0.114725471 0.632651925 0.069973089
v -0.191266447 0.641877532 -0.040475290
v -0.123270094 0.590937018 0.067972787
v 0.209404305 0.781032741 0.014448419
v 0.203420565 0.763670325 0.026867980
v -0.140511841 0.859127641 0.055327732
v -0.137049124 0.629066110 0.067347392
v -0.158168763 0.590386689 0.052398115
v 0.189898401 0.823090851 0.030576864
v 0.188568458 0.801503301 0.043826301
v -0.170763746 0.647646487 0.054153919
v -0.158952147 0.629385829 0.057357870
v 0.184915811 0.780141950 0.058571976
v -0.174877271 0.589300215 0.043501679
v 0.157699496 0.864498794 0.048474405
v -0.179497242 0.628710210 0.047244020
v 0.201361105 0.677283406 0.020801470
v -0.047808267 0.918365777 0.066777967
v -0.190192133 0.628559947 0.027674679
v -0.023096364 0.894995093 0.066603385
v 0.177820951 0.818888843 0.051255722
v -0.170830444 0.851553142 0.041680507
v 0.190035224 0.671522200 0.042031847
v -0.173000216 0.865425885 0.027790472
v -0.196207061 0.622548640 0.007120882
v 0.172946230 0.760051608 0.064614661
v -0.184130162 0.848200679 0.026985589
v 0.017953362 0.846606255 -0.128733337
v 0.019772477 0.867378891 -0.136603907
v 0.159347147 0.815847218 0.063930228
v -0.027937064 0.910877585 -0.141011387
v 0.169994205 0.798512578 0.063975632
v -0.199311391 0.643325448 0.012231750
v -0.021907430 0.890116394 -0.139524624
v 0.026303638 0.735120296 0.011427721
v -0.033167176 0.663973272 -0.024216168
v -0.043097541 0.893803239 -0.145455122
v 0.140754789 0.826239765 0.067270011
v -0.049670570 0.912867188 -0.144672036
v -0.186868086 0.863210201 0.011194894
v 0.155090943 0.777401090 0.070413299
v -0.198472649 0.844513714 0.009281787
v 0.133490875 0.761493325 0.076776728
v -0.195692450 0.852158248 -0.030299518
v -0.201037958 0.836595893 -0.014299246
v 0.144022837 0.803325176 0.070310161
v -0.194515184 0.858090758 -0.009284768
v 0.111942209 0.772216439 0.079839237
v -0.192218155 0.595299304 -0.021751365
v -0.198270231 0.634334445 -0.008178464
v 0.081618279 0.682990611 0.061122548
v 0.103722237 0.678650737 0.069751278
v 0.064677685 0.746814668 -0.097844675
v 0.091986023 0.892109692 0.056300581
v -0.033962548 0.659904838 0.005883676
v 0.123600617 0.911229491 0.041859634
v -0.187636629 0.867332101 -0.045185838
v 0.114455484 0.695955753 0.075547792
v 0.115915075 0.817350566 0.075442143
v -0.199770585 0.643683493 -0.023295790
v -0.183176577 0.860942483 -0.065409794
v 0.134580597 0.910002351 0.035076860
v -0.159228608 0.863181591 -0.094824456
v 0.128688306 0.787647486 0.076269872
v -0.058857948 0.791681886 -0.100593746
v 0.062457375 0.709400177 0.055983998
v -0.181109980 0.590219736 -0.040581819
v 0.092198834 0.776548982 0.071890846
v -0.195430040 0.626766622 -0.028940186
v -0.179601148 0.638846755 -0.057987709
v -0.171988636 0.590416431 -0.056011707
v 0.069882579 0.694623411 0.057414990
v 0.102890238 0.794913650 0.077090986
v -0.057777338 0.756193757 -0.097184740
v 0.082573324 0.791268945 0.068561159
v -0.177791029 0.606022477 -0.051237665
v -0.171566099 0.655035615 -0.069327429
v 0.048534028 0.713541865 0.046683438
v -0.070584901 0.774558187 -0.103486791
v -0.159026593 0.600301981 -0.065236770
v 0.014047449 0.816743672 -0.096255474
v 0.083508372 0.814009368 0.068015337
v 0.067399159 0.833311558 0.058980204
v -0.161984429 0.635029852 -0.070146799
v 0.132205039 0.896781147 0.033959985
v 0.020831669 0.703246713 -0.036765493
v 0.022773679 0.687009692 -0.031604268
v -0.138877600 0.593517363 -0.070463993
v 0.144318789 0.906373501 0.026479695
v -0.114327013 0.759482503 -0.114089645
v 0.151434258 0.909578145 0.014873075
v -0.131818324 0.644537032 -0.082848415
v 0.041598540 0.874093235 -0.145380065
v -0.143293068 0.630949736 -0.075301886
v 0.158774063 0.911777020 0.003229680
v 0.029836291 0.726269126 -0.060017727
v 0.030418992 0.746556282 -0.068151228
v -0.126275927 0.741122544 -0.107474960
v 0.166167736 0.914131463 -0.008511778
v -0.135225162 0.760959744 -0.106439695
v -0.110167399 0.904849529 -0.138886228
v -0.042859767 0.879861653 0.063519612
v 0.170373857 0.914963126 -0.021682940
v -0.118355311 0.593013406 -0.076711051
v -0.148479402 0.749074638 -0.098093666
v -0.127227202 0.626643002 -0.079706743
v -0.150940314 0.873966217 -0.114288591
v 0.173175231 0.915441394 -0.034425497
v -0.167430267 0.758543909 -0.090709895
v 0.034073643 0.667071819 -0.034550536
v -0.098817892 0.602344334 -0.074528433
v -0.182529241 0.748217285 -0.077111386
v 0.172295287 0.916637242 -0.048690792
v -0.136742547 0.861245632 -0.122572139
v 0.170829475 0.917880654 -0.063262694
v -0.194623441 0.764432549 -0.061543901
v -0.114147089 0.633897424 -0.085875407
v 0.175351471 0.713083327 0.060503416
v 0.165635780 0.918805957 -0.077673413
v -0.204755336 0.750576377 -0.047616504
v 0.033936538 0.762950063 -0.083518416
v -0.084487885 0.610514700 -0.078666694
v -0.036093306 0.645846546 -0.017551724
v 0.159061953 0.919577777 -0.091700003
v -0.208772272 0.767494500 -0.039863490
v 0.197089747 0.781881154 0.036000814
v -0.029656425 0.690873027 0.007043404
v 0.139309376 0.920445263 -0.116150811
v 0.193385273 0.756572604 0.048342351
v -0.059099715 0.768278360 0.057593197
v -0.083446577 0.638490200 -0.077462837
v -0.063985296 0.617634356 -0.062468160
v 0.040346853 0.656893313 -0.056746088
v -0.069975309 0.651451349 -0.075252980
v -0.057516199 0.645036519 -0.068095967
v -0.047840036 0.623308837 -0.051044334
v 0.060919654 0.679428279 -0.080298707
v 0.049105790 0.739808321 -0.091599360
v -0.191686869 0.733601093 0.051798798
v 0.039671205 0.791621804 0.049331401
v 0.034254815 0.772654533 0.034829747
v -0.193349943 0.755950451 0.048521332
v 0.031473607 0.753263116 0.023650404
v -0.032336079 0.789830029 -0.076372303
v 0.057258755 0.718488991 -0.089121714
v -0.174745217 0.768866360 0.063666217
v -0.045303591 0.673908591 -0.072505869
v -0.044350561 0.656475127 -0.069648616
v 0.068019517 0.664681554 -0.078538723
v -0.170042053 0.746821761 0.064982109
v -0.040066544 0.648455203 -0.042502560
v 0.128302425 0.921261430 -0.125539407
v 0.091628887 0.680179954 -0.092964187
v -0.038441014 0.663808048 -0.056658160
v -0.149948999 0.762661934 0.071238972
v -0.034986179 0.691823602 -0.063658498
v 0.114071868 0.921784878 -0.131797299
v -0.033056639 0.675813973 -0.040384658
v 0.071981363 0.638324022 -0.071323812
v -0.192971960 0.603492618 0.002744459
v -0.185006037 0.589741766 0.023357488
v 0.108574644 0.670933485 -0.096722603
v -0.139648780 0.744954228 0.074825272
v -0.122689292 0.758235395 0.079965048
v 0.090172894 0.725652158 -0.101970240
v -0.071499035 0.824337840 0.061284743
v -0.063634478 0.919074416 0.064042173
v -0.109030977 0.737326980 0.075841479
v 0.112774923 0.713131547 -0.106569432
v -0.097376399 0.756302476 0.072481237
v -0.081491999 0.807069659 0.067174457
v 0.153890818 0.714817643 -0.088269845
v -0.082224853 0.740413785 0.065373823
v 0.109675907 0.851266384 -0.136156648
v -0.068591349 0.787572563 0.062199555
v -0.093687691 0.790573239 0.072546974
v 0.172437698 0.704980612 -0.076909080
v -0.084014140 0.773076892 0.067871414
v 0.163680375 0.649101436 -0.071349502
v 0.176964223 0.662598848 -0.066042088
v -0.075990282 0.757152915 0.064009584
v -0.058291923 0.747321844 0.056300562
v -0.106872953 0.774193883 0.077217080
v -0.028554047 0.767109752 0.020092880
v -0.118174016 0.792072237 0.078109279
v -0.105955556 0.808909893 0.078148767
v 0.187637180 0.699414372 -0.059232414
v 0.198754400 0.668793917 -0.036732495
v -0.057207722 0.804693341 0.055390287
v -0.132322222 0.776273608 0.076275006
v -0.042140611 0.691226721 0.028560782
v -0.132093504 0.808632672 0.072287261
v 0.188037723 0.677041888 -0.054269802
v -0.150775954 0.824218452 0.064361297
v 0.202632934 0.664687574 -0.015559052
v -0.176284418 0.791128993 0.062916920
v 0.208008617 0.707389474 -0.017925803
v -0.155792236 0.782039583 0.069461085
v -0.063853309 0.842577577 0.053084213
v -0.174717635 0.812804818 0.058682181
v 0.196878940 0.625161707 -0.014568381
v -0.067477867 0.878984749 0.060806073
v -0.009765905 0.798648715 -0.060700543
v -0.062744908 0.898392797 0.062872037
v -0.185660303 0.816706479 0.039709505
v -0.203432277 0.765151441 0.026332026
v -0.043956067 0.901661098 0.065891288
v -0.006993455 0.809951127 -0.074093677
v -0.094418712 0.918413937 0.055202026
v -0.211133048 0.754309356 0.003017267
v 0.070015639 0.829370677 -0.128770664
v 0.118598044 0.891451716 -0.135783419
v -0.204999134 0.823666215 0.005740655
v -0.079384252 0.919166088 0.061007123
v 0.207448408 0.702731490 0.009739811
v 0.098920815 0.923108399 -0.137434423
v -0.187020987 0.871710300 -0.025075257
v 0.202933744 0.718560040 0.027072912
v -0.210266635 0.769699216 -0.016444517
v -0.209243491 0.792825341 -0.015005064
v -0.205172390 0.814914525 -0.016820030
v 0.082721345 0.924524665 -0.140851542
v 0.210977763 0.757839084 0.005782493
v 0.066076189 0.925865769 -0.141126156
v -0.084290341 0.844553649 0.066784821
v -0.017750269 0.868657291 -0.136354104
v 0.193016559 0.709202349 0.046323620
v 0.049286805 0.927073658 -0.139872670
v 0.058249556 0.911359489 -0.145826414
v 0.194752976 0.616198421 0.012078393
v -0.082008146 0.898507297 0.060318746
v -0.020932091 0.849448800 -0.132593066
v -0.200986743 0.786720335 -0.053833105
v -0.168573946 0.877096534 -0.079127267
v -0.094258696 0.825961888 0.072463349
v 0.032152884 0.928268075 -0.137053505
v -0.189054281 0.786454320 -0.073470406
v 0.014820861 0.928510547 -0.132501647
v -0.157184124 0.793637633 -0.100716189
v 0.173297048 0.625086486 0.050698329
v -0.172859341 0.780327797 -0.092102602
v 0.014023243 0.915977836 -0.134962097
v -0.002892413 0.928465188 -0.129619390
v 0.181803226 0.689906240 0.055822194
v 0.169327617 0.667840838 0.057976812
v 0.073926881 0.805756390 -0.103902519
v 0.017744457 0.890071869 0.066425115
v -0.162282169 0.816318810 -0.099189773
v -0.152673319 0.771356106 -0.100045286
v -0.165490717 0.900887787 -0.087241456
v 0.059648626 0.817972481 -0.115882799
v 0.156841859 0.691221952 0.066156588
v -0.133729294 0.783394337 -0.110075295
v -0.047451124 0.611513495 -0.030962501
v -0.101310574 0.800478339 -0.112648286
v -0.052504182 0.603943706 -0.043349683
v -0.061642617 0.595405042 -0.054662108
v -0.109232545 0.781707048 -0.114190981
v 0.131595269 0.680796266 0.075265355
v 0.145412296 0.662910223 0.067208663
v -0.076264694 0.591993451 -0.060609799
v 0.135774463 0.638682425 0.069188789
v -0.111993410 0.835990310 -0.125501484
v 0.039702915 0.884556592 0.064634070
v 0.025002386 0.870378852 0.063809976
v -0.092397586 0.590212047 -0.067928120
v 0.136618480 0.705735326 0.074647740
v -0.101098202 0.823405921 -0.111554779
v 0.114392497 0.714008510 0.076899439
v 0.117522016 0.658253491 0.073751613
v -0.084451750 0.580825865 -0.061585527
v -0.001594383 0.813860536 0.026992688
v -0.000680368 0.803794384 0.013692657
v -0.085635900 0.806220174 -0.107657053
v -0.098362632 0.578158140 -0.068275608
v -0.078043602 0.847623706 -0.143279165
v -0.089414433 0.785716474 -0.109011568
v -0.111240067 0.575148404 -0.074253246
v -0.128090262 0.573434949 -0.071949974
v -0.143739343 0.572686553 -0.067133918
v -0.039486587 0.782029986 0.048192021
v -0.026227672 0.787787616 0.022481469
v 0.056310862 0.688022137 0.051048141
v 0.058577031 0.665030897 0.049818922
v -0.158321992 0.571260571 -0.061945349
v -0.159692273 0.584925532 -0.062575527
v -0.030958867 0.726859689 0.017796395
v 0.067541175 0.677945793 0.054985136
v 0.046778806 0.693390310 0.037399642
v -0.172470778 0.573629856 -0.050383251
v -0.073219255 0.831337631 -0.131045982
v 0.078169152 0.712135673 0.062303860
v -0.180758029 0.570795715 -0.035383992
v -0.045381613 0.712218940 0.039493747
v 0.032481916 0.697359204 0.013887133
v -0.037606601 0.674896300 0.016635889
v -0.092602111 0.831248403 -0.132569730
v 0.032365717 0.657452941 0.005952674
v -0.055203389 0.690425098 0.049528144
v 0.065652378 0.753078222 0.060013615
v -0.043293420 0.644992828 0.016286837
v -0.054754656 0.644360423 0.035737600
v -0.056032103 0.857163072 -0.144200534
v -0.072805695 0.866844654 -0.148272514
v -0.062422913 0.727195382 0.056714438
v -0.058587771 0.880019844 -0.148380965
v 0.087001532 0.857411385 -0.144455940
v -0.187736422 0.569218457 -0.021243066
v 0.088367082 0.731674016 0.067770645
v -0.064920045 0.651526034 0.050775558
v -0.088251151 0.721420407 0.066542149
v 0.090769753 0.835940838 -0.135519713
v -0.068042696 0.672309041 0.054272819
v -0.078382865 0.689448774 0.059968226
v -0.076809347 0.861445129 0.055269677
v 0.057902258 0.653530836 -0.070768014
v -0.053594910 0.860597312 0.056313235
v 0.081927113 0.746813238 0.066149130
v -0.086407050 0.673610508 0.061802559
v 0.129289567 0.848537624 -0.120448075
v -0.189670175 0.580644011 -0.015674170
v -0.029584298 0.746772528 0.018452149
v 0.085795946 0.645461142 -0.080051810
v -0.183521241 0.568341792 0.018927742
v -0.120256484 0.693048000 0.077012084
v 0.082450576 0.667310357 -0.085175112
v -0.175672442 0.568521738 0.035176810
v -0.101134345 0.683005512 0.068541214
v 0.103019215 0.729238153 0.073511235
v 0.110477909 0.748445094 0.077790909
v 0.125463650 0.868125439 -0.133777484
v -0.161518559 0.572398603 0.048596870
v -0.111458518 0.715137124 0.075214885
v -0.146373123 0.584791303 0.057527572
v -0.119193770 0.672043264 0.074934199
v -0.142627075 0.571353316 0.057795744
v -0.126672164 0.574073911 0.065641604
v -0.133232489 0.708889067 0.075769112
v -0.141702443 0.678123593 0.070380673
v -0.111237839 0.577609181 0.061294544
v 0.131271556 0.732845545 0.078145243
v -0.147512734 0.696293950 0.069610566
v -0.097449139 0.579249978 0.055256449
v -0.080486037 0.580474079 0.047591172
v 0.099076904 0.624681175 -0.080627427
v -0.151807100 0.714459777 0.068653576
v 0.175060660 0.737580299 0.063103110
v 0.099960610 0.640337229 -0.085264139
v 0.157282561 0.899624348 -0.103152335
v -0.090719752 0.590838730 0.053207826
v -0.137129515 0.660085797 0.070358619
v -0.076993242 0.593289733 0.052698843
v 0.132189542 0.905302167 -0.128856689
v -0.067886218 0.589936078 0.039500587
v -0.060006123 0.592349887 0.025369143
v 0.193851188 0.730630696 0.047100186
v 0.143428162 0.863767743 -0.118787788
v -0.051676869 0.594693065 0.011029994
v -0.043524165 0.599420726 -0.003165832
v -0.171969280 0.723764718 0.062259741
v -0.040107451 0.614730000 -0.004019311
v -0.164358854 0.683151066 0.061621644
v 0.119559862 0.632223606 -0.083261773
v 0.148736611 0.845568299 -0.102261722
v 0.204625562 0.741924644 0.026574042
v -0.189254582 0.711120725 0.053396411
v -0.180374175 0.667790532 0.052873265
v -0.186171398 0.689296424 0.053177439
v -0.034161292 0.761088252 -0.084965862
v 0.139548093 0.624326587 -0.074896187
v 0.210298970 0.755525112 -0.018059658
v 0.150974199 0.882312775 -0.112769768
v 0.008944266 0.810404956 -0.076759644
v -0.045853294 0.776558518 -0.096902110
v 0.054010384 0.759674191 -0.096385039
v -0.042139895 0.735599637 0.039730467
v 0.209722355 0.730427086 0.000357114
v -0.194775417 0.676497638 0.033634868
v -0.207556874 0.713778257 0.016430821
v -0.189516693 0.798769474 0.043637950
v 0.156155616 0.630021811 -0.070296258
v -0.202587605 0.666123569 0.013069995
v 0.125214785 0.886013985 0.043857925
v 0.209124774 0.732918799 -0.028217772
v -0.206022590 0.689673483 0.012450915
v -0.207820579 0.704662859 -0.008107937
v -0.208614781 0.720518470 -0.026139775
v 0.169914052 0.621206939 -0.064367644
v 0.200965971 0.715677559 -0.044844754
v -0.201381639 0.655864954 -0.007590561
v -0.209551260 0.801824391 0.005233701
v 0.157212615 0.862905860 -0.101050355
v -0.031613570 0.917315960 0.068198554
v 0.198220357 0.739428878 -0.053440042
v 0.183720484 0.747295201 -0.074987680
v -0.079491884 0.819112778 -0.119438723
v -0.058927577 0.822249293 -0.120691136
v 0.177048683 0.640403092 -0.061535276
v -0.204778984 0.679665744 -0.013573336
v 0.176105589 0.606574595 -0.053616364
v 0.187404960 0.722020268 -0.064431511
v -0.020173125 0.928917587 -0.134310767
v -0.037440784 0.928463817 -0.138108358
v 0.172786146 0.844991326 -0.091556497
v 0.022553805 0.772491753 0.011799546
v -0.054339446 0.927490830 -0.140547574
v -0.040303450 0.757740259 0.041420944
v 0.172901869 0.725278020 -0.080964819
v 0.159849644 0.738365829 -0.090262309
v -0.070784084 0.926258266 -0.141351491
v 0.169775829 0.867127120 -0.085417494
v -0.201040074 0.660363793 -0.030977678
v -0.087055266 0.925106883 -0.140332252
v -0.091909863 0.904858589 -0.146597132
v -0.205573052 0.804996669 -0.038681712
v -0.102357522 0.923930287 -0.136028022
v -0.116924390 0.923126400 -0.130383223
v 0.136068866 0.728140056 -0.100004114
v -0.195145532 0.715930045 -0.053248666
v -0.194380030 0.810843110 -0.064658396
v -0.181110650 0.826359093 -0.085129000
v -0.197442114 0.677798569 -0.042496033
v 0.183275864 0.853341877 -0.070247829
v 0.170603469 0.900787830 -0.074288622
v -0.184164360 0.623812675 -0.046178091
v 0.042980962 0.752520084 0.046105720
v 0.110967539 0.734945416 -0.110177740
v -0.064046435 0.813607335 -0.101884209
v -0.181302384 0.727142096 -0.074484400
v 0.172184914 0.893920064 -0.057147838
v -0.073666409 0.794562459 -0.104799427
v -0.171367928 0.619123638 -0.063702814
v 0.092710428 0.746666789 -0.106014773
v -0.181805760 0.673591793 -0.062342085
v -0.157910049 0.673231840 -0.077874266
v 0.175771385 0.891203046 -0.039775215
v -0.174272627 0.688174844 -0.073028758
v -0.160824224 0.716851711 -0.085750595
v 0.195779353 0.851956666 -0.028880928
v -0.151167259 0.651193261 -0.077604897
v -0.029736072 0.697113872 -0.041311383
v 0.078110240 0.738660455 -0.101011254
v -0.130400255 0.922831535 -0.123207152
v -0.141268298 0.922477543 -0.113711908
v -0.142928526 0.728172958 -0.097006291
v -0.139002681 0.707130611 -0.094225399
v -0.137475580 0.685996175 -0.089240365
v -0.135968700 0.664859354 -0.086164132
v -0.125393063 0.822958469 -0.114846446
v 0.062507883 0.792839110 0.060360562
v 0.186507791 0.628007829 -0.043066166
v -0.159617156 0.921698868 -0.089106381
v -0.165852159 0.921332538 -0.075417742
v 0.198202237 0.646133065 -0.030132344
v -0.014648196 0.625721991 -0.005137472
v -0.170002908 0.920600593 -0.060865618
v 0.196017370 0.855320930 -0.003450456
v -0.171695828 0.919332385 -0.046688858
v -0.172184974 0.918379009 -0.032717727
v -0.170055509 0.918041587 -0.019849312
v 0.208489776 0.755168259 -0.041738253
v 0.173615769 0.896044910 -0.024845349
v -0.164779782 0.916911602 -0.007308263
v -0.157407030 0.914836228 0.004483589
v -0.149849206 0.913249969 0.016522197
v 0.041014083 0.800191045 -0.092509076
v -0.142058223 0.908770442 0.029105639
v 0.177208453 0.892346025 -0.008521462
v -0.128137559 0.902578235 0.038100470
v -0.116721079 0.654942214 -0.090742871
v 0.189507157 0.847979665 0.020584377
v 0.016208939 0.739117742 -0.046030670
v -0.013142598 0.727569461 -0.039587416
v -0.013586307 0.744112790 -0.042577419
v 0.145050958 0.901811957 -0.116035461
v -0.117396511 0.676145911 -0.095839947
v -0.012390809 0.761359274 -0.047597691
v -0.119501874 0.719314456 -0.106362745
v 0.013470778 0.759077847 -0.049940102
v -0.013033489 0.779459655 -0.052910872
v -0.133018941 0.915494442 0.035810340
v 0.146510854 0.753477037 -0.099314876
v 0.169123307 0.892181098 0.007598930
v -0.099176586 0.665973425 -0.092118733
v -0.121264420 0.916043282 0.042187385
v -0.108350575 0.917195916 0.048568368
v 0.165045768 0.878280282 0.027946025
v 0.040731102 0.853375793 -0.139833644
v -0.117269740 0.697220743 -0.101440392
v -0.096122012 0.737738013 -0.106574155
v 0.156430513 0.895703137 0.017889421
v -0.094496600 0.686543703 -0.096074834
v 0.178841025 0.838259816 0.040451843
v -0.067823149 0.677111089 -0.082714856
v -0.008431395 0.752777040 -0.000119507
v -0.099638574 0.899111450 0.053365879
v 0.142838925 0.895195365 0.044102956
v 0.147126466 0.879775643 0.046065755
v 0.149418071 0.891476810 0.030517885
v -0.083017781 0.673837304 -0.087973587
v -0.062523074 0.704181314 -0.088381775
v -0.078531556 0.696796715 -0.092509978
v 0.048038989 0.659709990 0.029456690
v -0.063228793 0.728565812 -0.093880668
v 0.047099389 0.893949986 -0.145715043
v -0.077198878 0.717076123 -0.096014142
v 0.022371735 0.887174487 -0.139521733
v -0.038849052 0.844312966 -0.136454731
v -0.037373215 0.869255245 -0.143594235
v 0.198433414 0.638026714 0.009897489
v 0.182812482 0.648192108 0.048336588
v -0.043836258 0.713693082 -0.083696879
v -0.046794087 0.738643467 -0.090757623
v -0.151880294 0.922223270 -0.102426767
v 0.166230649 0.849250495 0.049694531
v 0.145864099 0.847045422 0.059386432
v -0.190016776 0.586486399 0.000562010
v 0.150230795 0.619270205 0.060513198
v 0.159255996 0.643620253 0.059048176
v -0.187466979 0.571477115 0.000898043
v 0.131893381 0.865372360 0.055284668
v -0.041745409 0.630761921 -0.029759517
v -0.042144783 0.618971050 -0.017196251
v 0.015223938 0.641357780 0.003493916
v -0.033861715 0.627118230 -0.005447400
v 0.004352806 0.909501374 0.068917185
v 0.062918656 0.882788837 -0.148582712
v -0.016518375 0.915115654 0.068656243
v -0.040113606 0.632553041 0.006995281
v 0.108618893 0.635935307 0.068306647
v 0.033885062 0.902634740 0.066978320
v 0.056110252 0.605381370 0.024245353
v 0.064072683 0.610805154 0.042196795
v 0.077844352 0.612691462 0.052032240
v 0.042430114 0.832329094 -0.126913577
v 0.101289131 0.613608599 0.062435247
v 0.051469136 0.621963441 0.024067149
v 0.189537808 0.594821334 0.016646516
v 0.122843899 0.841135383 0.066628382
v 0.110787667 0.858651757 0.062664099
v 0.183067709 0.872047067 0.009324172
v 0.086307622 0.633341193 0.058337159
v 0.186081082 0.874037921 -0.021080565
v 0.186642841 0.868973851 -0.048237961
v 0.053069957 0.900019765 0.064603105
v 0.058708169 0.645266831 0.044217706
v 0.090365373 0.657564402 0.062591672
v 0.174097210 0.877637208 -0.069352701
v 0.165759385 0.890204310 -0.086502686
v 0.058929075 0.627569199 0.039362945
v 0.161775202 0.880299866 -0.098881200
v 0.144711867 0.608518064 -0.070727229
v 0.159727007 0.600878358 -0.064592615
v 0.071953177 0.653889954 0.054615088
v 0.120054640 0.607186735 -0.078362480
v 0.136522502 0.885053754 -0.125867456
v 0.069387175 0.631200194 0.051229615
v 0.093434133 0.704194188 0.067788452
v 0.127207056 0.614146471 0.070546560
v 0.165368259 0.602468848 0.051194161
v 0.183142096 0.608761609 0.034200951
v 0.200182289 0.692588925 -0.041300826
v 0.133566424 0.702238262 -0.094991550
v 0.050844230 0.641479135 0.028595228
v 0.112408862 0.690897524 -0.101340674
v 0.189950287 0.607717216 -0.030972909
v 0.193056360 0.602092147 -0.006810388
v 0.038620241 0.677045166 0.019337270
v 0.012733047 0.700605631 0.000970698
v 0.092556112 0.865810752 0.057542883
v 0.071791224 0.897869289 0.061803114
v 0.019360282 0.718107045 0.003630695
v 0.032802813 0.810481369 0.041481361
v 0.025288666 0.793738544 0.023189394
v 0.026219990 0.658186793 -0.014795120
v 0.059829701 0.880554676 0.061881505
v 0.033449173 0.682611704 -0.050040208
v 0.033889789 0.855150223 0.057290323
v 0.048089888 0.865480602 0.059561681
v 0.015722593 0.853698134 0.058445800
v 0.039300494 0.633494973 -0.020748541
v 0.042746522 0.678181827 -0.072534062
v 0.072005160 0.774436235 0.063499384
v 0.197788328 0.694132864 0.033820271
v 0.194559485 0.793379247 -0.065055534
v 0.048702184 0.615434051 -0.042519942
v 0.152529925 0.691130579 -0.083291195
v 0.111020267 0.781480908 -0.114138007
v 0.091677420 0.703894377 -0.098086715
v 0.078679197 0.601146698 -0.064081684
v 0.039146051 0.721884727 -0.083712034
v 0.032634392 0.787082672 -0.077625886
v 0.090924680 0.612622261 -0.072750881
v 0.060568761 0.605399787 -0.056936543
v 0.099997655 0.898376822 -0.143353209
v 0.077795088 0.878324866 0.060031153
v 0.071308494 0.857269883 0.053475738
v 0.094159797 0.590160787 -0.068429291
v 0.028084045 0.839658141 0.052020658
v 0.044590410 0.828533947 0.044769861
v 0.077602051 0.901212037 -0.147910371
v 0.125184745 0.585248470 -0.072890900
v 0.167224377 0.760562658 -0.090610512
v 0.017957311 0.829322040 -0.114202105
v 0.148767009 0.644076645 -0.076558672
v 0.153049797 0.581670284 -0.064194113
v 0.018205648 0.720775187 -0.041914064
v 0.139610082 0.587154448 -0.068622760
v 0.028085640 0.809579194 -0.082144096
v 0.169408768 0.585701346 -0.058381535
v 0.181153268 0.592773318 -0.040861219
v 0.055664051 0.733547449 0.054760326
v 0.104699746 0.874270737 -0.141600952
v 0.083814278 0.879818916 -0.147824571
v 0.015103554 0.796982944 -0.064133584
v 0.190199986 0.586207092 -0.022625793
v 0.093835220 0.657770038 -0.086983338
v 0.199963942 0.646426857 -0.008822550
v 0.188945353 0.631390452 0.031324074
v 0.133865997 0.650638580 -0.083410248
v 0.115283526 0.653370082 -0.090470836
v 0.177623674 0.584650576 0.037058305
v 0.163104758 0.833391547 0.059876256
v 0.201280594 0.831479192 0.010917922
v 0.188241214 0.653409958 -0.048488420
v 0.041138183 0.642429054 -0.039253175
v 0.141836405 0.592791855 0.061003812
v 0.084216274 0.762143731 0.068094537
v 0.201782897 0.660737395 0.005899557
v 0.194504306 0.654201806 0.027258134
v 0.077337615 0.682356536 -0.087816395
v 0.115451649 0.590648890 0.065563098
v 0.111324169 0.831861317 -0.118833028
v -0.005616865 0.769877076 0.002101957
v -0.011625050 0.688632369 0.000018742
v 0.050677657 0.673639297 0.038361933
v 0.092825785 0.594484150 0.055753995
v 0.136715993 0.830536544 -0.109073177
v -0.011730784 0.736157358 -0.001949158
v 0.002493659 0.785815597 0.007489135
v 0.071900874 0.595233083 0.046777863
v 0.021179762 0.826093197 0.040290214
v -0.001443995 0.824552357 0.039929714
v 0.109446868 0.876259983 0.050430585
v 0.063490748 0.595635951 0.034112997
v 0.109560430 0.896693528 0.049291708
v 0.188957930 0.580163777 -0.001794878
v 0.098266684 0.759872079 0.073645025
v 0.032653231 0.907856643 -0.142734990
v 0.046979971 0.610928059 0.010709131
v 0.063138954 0.863966167 -0.146989331
v 0.021819491 0.619215012 0.009151530
v 0.040296655 0.633380055 0.007885968
v 0.034975521 0.814445138 -0.107396483
v 0.016785255 0.814796627 0.025636340
v 0.018735701 0.678442121 0.001176934
v -0.014483765 0.673745036 -0.001036611
v -0.011512047 0.719742179 -0.001620401
v 0.180256128 0.576541305 -0.037342705
v -0.010408700 0.703987777 -0.000409981
v 0.055767965 0.628448963 -0.061637532
v 0.070841350 0.764680028 -0.101871870
v 0.090464301 0.767578900 -0.107772946
v 0.153078705 0.747890115 0.070884310
v 0.072275065 0.729511082 0.061201446
v 0.154295295 0.722077727 0.068889916
v 0.073965304 0.619624972 -0.078622043
v 0.185065731 0.575411737 0.018506657
f 555 540 123
f 389 162 497
f 567 540 568
f 583 104 251
f 463 489 430
f 453 94 255
f 483 484 162
f 446 640 671
f 574 577 251
f 50 244 238
f 52 244 50
f 575 57 53
f 55 249 52
f 55 2 250
f 577 248 563
f 575 437 432
f 57 597 589
f 2 265 262
f 589 592 57
f 262 259 2
f 5 267 262
f 602 606 589
f 5 9 11
f 58 606 610
f 11 272 5
f 12 278 11
f 565 793 8
f 630 60 632
f 13 425 12
f 424 289 160
f 289 424 13
f 643 649 60
f 181 403 179
f 483 206 484
f 163 651 174
f 53 563 558
f 651 65 650
f 163 389 384
f 683 66 65
f 455 558 563
f 165 384 171
f 340 331 34
f 67 66 683
f 206 470 63
f 385 102 856
f 67 702 70
f 344 340 696
f 179 403 406
f 710 70 702
f 16 352 14
f 111 112 59
f 63 64 655
f 18 368 16
f 710 742 753
f 119 112 111
f 394 671 545
f 551 922 903
f 19 375 18
f 753 740 711
f 406 470 179
f 261 615 108
f 545 453 439
f 178 386 530
f 24 386 23
f 72 753 742
f 26 396 24
f 768 765 72
f 119 142 112
f 32 63 470
f 112 142 161
f 399 400 396
f 154 343 182
f 545 671 448
f 399 415 400
f 768 770 765
f 32 406 410
f 418 415 399
f 770 183 777
f 387 300 166
f 415 418 422
f 105 86 299
f 169 42 839
f 170 142 119
f 173 172 705
f 329 638 343
f 134 738 737
f 185 638 329
f 692 661 145
f 150 74 741
f 637 345 873
f 132 145 661
f 170 184 142
f 138 495 760
f 138 136 188
f 136 194 188
f 201 87 194
f 270 87 205
f 216 49 210
f 46 216 724
f 198 184 170
f 43 96 907
f 219 39 218
f 45 43 41
f 224 37 219
f 498 224 514
f 86 105 342
f 225 36 514
f 378 107 110
f 80 233 107
f 22 41 43
f 198 217 849
f 41 581 45
f 103 233 76
f 76 40 103
f 222 217 214
f 678 100 40
f 98 41 22
f 366 41 98
f 40 76 678
f 215 4 284
f 215 98 21
f 537 536 92
f 222 234 217
f 904 537 92
f 460 462 30
f 284 471 366
f 222 239 246
f 586 903 759
f 462 28 30
f 246 234 222
f 454 449 28
f 237 391 924
f 560 319 921
f 246 888 252
f 431 471 282
f 455 560 391
f 319 560 241
f 50 238 793
f 50 566 52
f 52 574 55
f 258 263 510
f 244 52 249
f 55 253 2
f 284 792 657
f 303 670 667
f 303 100 674
f 250 249 55
f 273 274 252
f 251 253 574
f 100 303 301
f 301 570 100
f 104 261 257
f 677 100 678
f 273 285 274
f 257 2 253
f 2 257 265
f 250 2 259
f 570 568 40
f 752 292 293
f 294 296 285
f 285 296 274
f 684 497 679
f 277 274 296
f 440 447 442
f 579 489 463
f 692 329 695
f 259 262 267
f 871 736 360
f 262 271 9
f 40 100 570
f 570 567 568
f 203 128 270
f 310 296 294
f 305 296 310
f 87 270 194
f 9 5 262
f 5 272 600
f 276 9 271
f 9 276 11
f 272 11 278
f 302 323 310
f 568 103 40
f 108 615 89
f 280 11 276
f 11 280 12
f 103 568 540
f 278 12 425
f 323 337 328
f 283 12 280
f 12 283 13
f 283 297 289
f 289 13 283
f 540 561 231
f 425 13 424
f 209 288 205
f 291 125 286
f 346 337 323
f 49 304 288
f 173 350 351
f 297 654 314
f 347 158 864
f 304 47 311
f 47 304 49
f 47 46 481
f 360 361 855
f 501 684 146
f 481 311 47
f 46 39 481
f 343 695 329
f 314 289 297
f 289 314 160
f 481 321 308
f 481 39 321
f 325 122 321
f 325 321 37
f 37 321 39
f 333 160 314
f 324 266 333
f 527 107 231
f 84 121 325
f 36 327 498
f 160 333 34
f 327 120 84
f 36 82 371
f 277 393 390
f 689 34 333
f 34 689 340
f 313 34 331
f 266 334 689
f 334 260 341
f 340 335 331
f 107 527 110
f 54 404 405
f 696 14 344
f 61 401 44
f 38 299 407
f 358 14 348
f 14 358 16
f 344 14 352
f 356 704 712
f 352 16 368
f 413 62 417
f 370 16 358
f 16 370 18
f 175 705 134
f 713 115 110
f 371 27 378
f 27 371 82
f 381 18 370
f 18 381 19
f 368 18 375
f 80 378 27
f 19 381 235
f 19 395 23
f 19 23 178
f 202 506 913
f 23 395 24
f 386 24 396
f 398 24 395
f 24 398 26
f 26 398 220
f 26 412 399
f 396 26 399
f 418 399 412
f 164 180 444
f 444 443 164
f 175 173 705
f 685 84 120
f 422 300 415
f 685 121 84
f 172 169 300
f 172 300 422
f 78 80 27
f 226 365 78
f 89 615 114
f 240 485 309
f 134 737 175
f 226 27 82
f 245 459 452
f 187 186 140
f 243 459 245
f 189 187 130
f 581 466 579
f 467 472 637
f 308 122 240
f 138 579 466
f 430 255 463
f 499 435 430
f 453 430 435
f 435 440 439
f 435 499 450
f 243 479 281
f 308 321 122
f 897 438 584
f 439 453 435
f 243 281 893
f 450 440 435
f 480 859 865
f 440 449 447
f 442 439 440
f 450 449 440
f 447 449 454
f 492 488 493
f 127 458 456
f 449 456 28
f 82 225 708
f 454 28 462
f 28 456 30
f 456 450 127
f 30 456 458
f 225 82 36
f 30 464 460
f 506 507 502
f 126 469 125
f 287 508 509
f 207 507 506
f 410 460 32
f 126 306 477
f 460 464 644
f 644 32 460
f 32 644 63
f 475 31 576
f 470 406 32
f 64 63 644
f 306 309 477
f 125 464 458
f 528 795 511
f 516 523 524
f 655 206 63
f 206 655 484
f 206 474 470
f 162 679 497
f 316 322 822
f 313 160 34
f 37 498 325
f 523 316 534
f 497 684 501
f 501 146 505
f 146 512 503
f 505 503 513
f 263 515 510
f 512 120 115
f 503 512 91
f 517 513 503
f 115 713 91
f 458 203 125
f 315 547 548
f 91 512 115
f 547 330 336
f 91 713 88
f 517 88 522
f 552 548 547
f 532 88 713
f 88 532 519
f 552 336 553
f 522 519 541
f 527 231 561
f 127 128 458
f 538 660 692
f 514 36 498
f 224 498 37
f 538 692 695
f 114 626 631
f 553 342 105
f 219 37 39
f 555 660 561
f 127 450 499
f 891 199 824
f 660 555 661
f 218 39 46
f 199 97 886
f 366 98 284
f 22 21 98
f 41 366 581
f 43 232 22
f 907 232 43
f 96 536 907
f 45 463 255
f 45 581 463
f 255 94 96
f 255 96 45
f 94 453 545
f 448 546 545
f 582 593 594
f 595 584 438
f 216 46 47
f 216 47 49
f 551 640 558
f 558 640 569
f 49 288 209
f 793 565 50
f 569 53 558
f 566 50 565
f 209 210 49
f 841 351 350
f 574 52 566
f 578 53 57
f 612 609 423
f 53 578 563
f 575 53 569
f 597 432 211
f 253 55 574
f 57 575 597
f 578 57 592
f 592 583 578
f 627 609 612
f 584 621 628
f 603 589 606
f 602 589 597
f 634 819 627
f 610 606 602
f 835 318 229
f 626 606 58
f 610 624 58
f 58 624 630
f 632 58 630
f 634 884 869
f 58 632 626
f 60 642 632
f 642 60 649
f 60 630 181
f 650 649 643
f 662 652 645
f 656 628 621
f 621 636 656
f 658 659 204
f 64 644 469
f 466 495 138
f 694 377 700
f 468 471 431
f 663 650 65
f 628 656 668
f 679 162 484
f 65 686 663
f 672 673 659
f 686 65 66
f 683 65 651
f 468 431 478
f 683 693 67
f 685 146 684
f 146 685 512
f 696 340 689
f 66 67 701
f 473 495 478
f 66 698 686
f 702 67 693
f 668 675 687
f 701 698 66
f 405 690 54
f 701 67 70
f 54 690 564
f 14 696 348
f 711 70 710
f 699 70 711
f 702 709 710
f 229 318 236
f 657 282 471
f 710 709 742
f 753 756 740
f 756 753 72
f 742 754 72
f 72 754 768
f 72 765 756
f 766 765 770
f 490 193 496
f 130 772 496
f 770 776 766
f 15 719 168
f 87 201 148
f 183 770 768
f 201 194 136
f 422 705 172
f 633 777 338
f 777 633 150
f 408 74 633
f 638 185 408
f 106 730 258
f 688 379 694
f 275 631 118
f 185 692 145
f 197 750 749
f 736 737 738
f 263 258 730
f 738 741 743
f 185 145 143
f 743 741 744
f 744 741 74
f 744 467 879
f 132 140 145
f 123 132 661
f 741 738 150
f 123 540 567
f 773 772 567
f 738 134 150
f 78 27 226
f 238 623 1
f 264 279 779
f 776 150 134
f 134 705 420
f 695 541 538
f 104 599 261
f 365 681 680
f 761 762 763
f 365 678 76
f 76 78 365
f 411 156 420
f 156 411 220
f 541 519 538
f 220 764 156
f 76 233 78
f 80 78 233
f 168 789 387
f 70 699 701
f 398 395 228
f 434 437 445
f 779 780 887
f 428 432 434
f 926 317 706
f 197 749 745
f 213 6 4
f 279 785 780
f 419 427 428
f 148 201 745
f 454 462 419
f 526 782 783
f 381 734 235
f 410 414 419
f 493 769 913
f 511 4 215
f 4 511 213
f 406 414 410
f 208 731 729
f 21 511 215
f 210 728 727
f 794 800 823
f 511 21 529
f 470 474 179
f 724 218 46
f 227 110 115
f 118 280 275
f 219 218 722
f 806 800 794
f 803 804 256
f 716 778 225
f 224 219 720
f 407 86 690
f 356 734 381
f 389 497 380
f 809 795 528
f 810 806 811
f 717 716 514
f 497 501 380
f 317 697 429
f 810 818 821
f 913 771 202
f 341 698 699
f 373 376 159
f 369 177 373
f 341 260 698
f 260 334 266
f 365 226 681
f 517 522 354
f 828 821 818
f 354 362 364
f 569 640 446
f 519 522 88
f 767 828 818
f 266 324 676
f 602 597 211
f 804 834 256
f 121 240 122
f 345 868 918
f 610 602 211
f 169 839 166
f 427 195 211
f 643 179 174
f 683 651 165
f 693 683 171
f 627 884 634
f 324 654 676
f 846 397 841
f 841 397 374
f 362 709 369
f 580 397 846
f 192 188 190
f 192 499 489
f 128 192 190
f 270 205 203
f 205 288 286
f 291 306 126
f 208 148 733
f 288 304 291
f 304 311 306
f 311 481 308
f 286 125 203
f 283 118 297
f 589 599 592
f 283 280 118
f 227 115 120
f 747 805 732
f 707 226 82
f 107 378 80
f 275 114 631
f 118 646 297
f 89 114 275
f 231 233 103
f 87 209 205
f 816 872 870
f 271 108 89
f 248 560 455
f 248 241 560
f 108 271 265
f 566 565 241
f 86 876 690
f 622 244 619
f 517 91 88
f 574 566 248
f 715 662 889
f 244 249 618
f 249 250 614
f 882 465 718
f 253 251 257
f 774 465 882
f 250 259 608
f 883 494 774
f 921 391 560
f 259 267 604
f 54 564 847
f 251 577 583
f 600 267 5
f 89 276 271
f 503 91 517
f 690 405 407
f 275 276 89
f 892 573 582
f 272 278 596
f 248 577 574
f 280 276 275
f 425 588 591
f 425 424 781
f 781 313 572
f 424 313 781
f 572 585 781
f 314 654 324
f 136 197 201
f 313 557 572
f 237 551 558
f 554 331 335
f 334 341 348
f 760 136 138
f 335 344 549
f 341 699 704
f 348 696 334
f 921 319 7
f 358 348 704
f 344 352 544
f 912 582 594
f 903 586 551
f 352 368 543
f 381 370 356
f 368 375 539
f 788 8 3
f 535 375 178
f 221 795 809
f 828 767 562
f 559 833 920
f 921 920 899
f 546 448 898
f 903 922 836
f 38 903 299
f 235 228 395
f 405 669 407
f 546 92 94
f 400 518 520
f 92 546 904
f 639 35 926
f 386 396 525
f 927 926 33
f 928 605 930
f 200 490 298
f 94 545 546
f 96 92 536
f 927 56 852
f 143 472 408
f 220 412 26
f 400 520 521
f 412 220 411
f 109 113 152
f 920 832 559
f 418 412 411
f 152 113 746
f 387 789 786
f 420 418 411
f 746 161 867
f 418 420 422
f 490 773 298
f 496 772 773
f 394 442 445
f 562 767 832
f 739 636 820
f 204 725 658
f 773 490 496
f 725 223 635
f 447 454 428
f 472 186 637
f 215 284 98
f 189 130 496
f 458 464 30
f 410 462 460
f 125 469 464
f 635 247 487
f 487 269 629
f 641 487 629
f 268 269 487
f 269 393 629
f 390 269 268
f 469 126 64
f 349 761 763
f 655 64 477
f 303 674 670
f 290 393 277
f 611 290 928
f 163 474 483
f 928 307 605
f 635 641 648
f 531 605 533
f 677 674 100
f 477 309 485
f 506 202 207
f 679 485 240
f 240 121 684
f 312 912 594
f 684 679 240
f 121 685 684
f 186 187 345
f 503 505 146
f 912 332 892
f 772 130 132
f 685 120 512
f 501 505 159
f 725 648 658
f 505 513 373
f 513 517 364
f 892 847 564
f 110 527 713
f 714 847 339
f 522 541 154
f 51 714 346
f 231 103 540
f 714 51 404
f 541 695 343
f 567 772 123
f 502 500 506
f 578 577 563
f 867 659 673
f 577 578 583
f 597 575 432
f 592 104 583
f 913 492 493
f 845 167 839
f 599 104 592
f 386 178 23
f 599 603 615
f 110 227 378
f 615 261 599
f 706 402 639
f 603 626 114
f 132 123 772
f 624 610 195
f 409 706 317
f 746 673 682
f 114 615 603
f 120 327 227
f 624 414 403
f 691 429 697
f 642 631 632
f 642 118 631
f 429 433 853
f 646 118 642
f 642 649 646
f 152 682 691
f 682 433 691
f 181 643 60
f 654 297 646
f 122 325 121
f 140 130 187
f 421 416 617
f 123 661 555
f 309 308 240
f 698 260 686
f 702 693 177
f 698 701 699
f 672 441 436
f 291 126 125
f 109 691 697
f 143 140 186
f 874 872 816
f 665 441 672
f 188 192 489
f 665 658 653
f 712 704 699
f 653 451 665
f 927 697 317
f 712 740 734
f 648 461 653
f 178 375 19
f 923 880 116
f 641 461 648
f 740 756 748
f 748 758 228
f 926 706 639
f 479 641 482
f 754 742 362
f 354 754 362
f 407 669 38
f 203 458 128
f 482 629 620
f 756 765 758
f 182 754 154
f 128 127 192
f 254 246 252
f 611 382 620
f 764 398 228
f 499 192 127
f 764 766 156
f 766 776 156
f 930 611 928
f 420 156 776
f 140 132 130
f 788 7 8
f 387 166 168
f 420 776 134
f 136 760 197
f 300 387 415
f 750 197 760
f 745 201 197
f 148 208 209
f 733 148 745
f 258 35 106
f 593 533 605
f 731 208 733
f 236 318 910
f 729 210 208
f 728 210 729
f 727 216 210
f 188 489 579
f 929 573 556
f 724 216 727
f 573 929 582
f 723 218 724
f 722 218 723
f 720 219 722
f 717 224 720
f 514 224 717
f 188 579 138
f 876 556 573
f 707 681 226
f 898 904 546
f 472 143 186
f 212 795 221
f 899 391 921
f 854 925 931
f 213 795 212
f 140 143 145
f 404 54 714
f 833 922 924
f 415 387 786
f 143 408 185
f 238 3 793
f 1 3 238
f 31 799 752
f 622 238 244
f 918 799 515
f 380 376 171
f 915 752 357
f 617 476 421
f 619 244 618
f 618 249 616
f 616 249 614
f 636 739 613
f 388 613 10
f 614 250 608
f 357 791 915
f 383 688 388
f 608 259 607
f 571 438 576
f 295 667 666
f 92 96 94
f 607 259 604
f 372 726 700
f 667 295 303
f 367 726 372
f 604 267 601
f 298 295 207
f 923 875 880
f 363 732 367
f 408 467 74
f 148 209 87
f 298 301 295
f 359 747 363
f 601 267 600
f 359 355 755
f 600 272 598
f 598 272 596
f 353 755 355
f 301 298 773
f 596 278 591
f 747 755 751
f 591 278 425
f 588 425 781
f 388 688 813
f 769 771 913
f 763 353 349
f 202 771 200
f 506 500 913
f 74 467 744
f 773 570 301
f 82 708 707
f 320 647 326
f 500 492 913
f 331 554 557
f 242 910 320
f 344 335 340
f 910 908 647
f 554 335 550
f 239 222 703
f 549 550 335
f 549 344 544
f 166 167 168
f 544 352 543
f 543 368 542
f 17 15 167
f 17 845 157
f 907 536 919
f 157 850 155
f 155 850 153
f 542 368 539
f 150 633 74
f 153 854 151
f 151 854 149
f 149 858 147
f 147 862 144
f 539 375 535
f 759 903 38
f 530 535 178
f 144 862 141
f 141 866 139
f 139 866 137
f 530 386 525
f 137 870 135
f 525 396 521
f 135 870 872
f 133 872 131
f 131 874 129
f 129 923 117
f 923 874 875
f 170 119 902
f 521 396 400
f 20 932 101
f 99 101 932
f 99 886 97
f 95 97 199
f 95 891 93
f 93 896 90
f 518 400 786
f 90 896 85
f 85 901 83
f 83 905 81
f 169 166 300
f 81 905 79
f 77 79 796
f 77 909 75
f 439 394 545
f 75 914 73
f 73 914 71
f 71 916 69
f 442 394 439
f 468 466 366
f 442 447 434
f 7 562 920
f 794 534 811
f 924 899 833
f 434 447 428
f 428 454 419
f 419 462 410
f 38 898 759
f 902 111 897
f 466 468 495
f 526 524 534
f 25 59 56
f 96 43 45
f 895 401 61
f 182 343 338
f 483 389 163
f 483 162 389
f 897 59 25
f 883 894 775
f 776 777 150
f 59 897 111
f 380 384 389
f 774 882 893
f 111 902 119
f 778 708 225
f 501 159 380
f 167 166 839
f 159 505 373
f 176 191 867
f 373 513 369
f 364 369 513
f 850 890 925
f 354 364 517
f 354 522 154
f 177 369 709
f 154 541 343
f 446 445 437
f 376 380 159
f 204 223 725
f 217 198 214
f 214 703 222
f 437 569 446
f 610 211 195
f 414 624 195
f 403 630 624
f 889 718 715
f 160 313 424
f 181 630 403
f 888 246 239
f 179 643 181
f 174 650 643
f 651 650 174
f 163 384 165
f 487 247 268
f 165 651 163
f 171 683 165
f 174 474 163
f 557 313 331
f 475 515 799
f 376 693 171
f 285 273 757
f 177 693 376
f 627 885 884
f 174 179 474
f 509 508 516
f 294 302 310
f 709 702 177
f 709 362 742
f 154 754 354
f 182 338 183
f 780 785 803
f 183 768 182
f 423 413 881
f 183 338 777
f 638 338 343
f 633 638 408
f 590 401 895
f 692 185 329
f 190 188 194
f 515 475 25
f 270 190 194
f 190 270 128
f 195 427 414
f 7 788 562
f 915 878 571
f 877 595 438
f 203 205 286
f 44 48 61
f 474 206 483
f 210 209 208
f 61 62 895
f 413 895 62
f 211 432 427
f 172 42 169
f 398 764 220
f 515 263 918
f 437 575 569
f 228 758 764
f 124 885 426
f 175 871 350
f 84 498 327
f 225 514 716
f 327 371 227
f 918 263 730
f 898 448 759
f 371 327 36
f 839 374 890
f 227 371 378
f 451 441 665
f 228 235 748
f 444 180 457
f 233 231 107
f 187 868 345
f 759 448 586
f 189 292 868
f 734 748 235
f 653 461 826
f 924 922 237
f 292 193 196
f 446 671 394
f 461 641 479
f 922 551 237
f 391 237 455
f 482 641 629
f 918 868 799
f 196 200 293
f 771 293 200
f 558 455 237
f 281 287 894
f 894 893 281
f 248 566 241
f 257 251 104
f 255 430 453
f 257 261 265
f 509 775 287
f 260 266 676
f 509 516 524
f 265 261 108
f 523 516 531
f 322 316 523
f 273 252 888
f 265 271 262
f 811 534 316
f 316 315 811
f 676 686 260
f 366 466 581
f 478 495 468
f 330 547 315
f 547 336 552
f 366 471 468
f 760 495 473
f 657 471 284
f 336 342 553
f 553 900 552
f 832 900 553
f 865 878 791
f 792 284 4
f 31 571 576
f 286 288 291
f 438 571 877
f 906 864 863
f 4 790 792
f 8 7 319
f 303 295 301
f 291 304 306
f 570 773 567
f 739 617 392
f 617 416 392
f 306 311 309
f 309 311 308
f 170 628 668
f 613 739 10
f 739 392 10
f 656 675 668
f 656 815 675
f 680 678 365
f 813 613 388
f 324 333 314
f 687 198 668
f 379 688 383
f 295 666 207
f 815 656 636
f 377 694 379
f 325 498 84
f 689 333 266
f 334 696 689
f 700 377 372
f 861 834 860
f 703 721 239
f 732 726 367
f 834 861 256
f 348 341 704
f 747 732 363
f 356 358 704
f 735 888 721
f 370 358 356
f 735 264 757
f 735 273 888
f 755 747 359
f 369 364 362
f 353 763 755
f 647 761 326
f 761 349 326
f 376 373 177
f 779 757 264
f 780 779 279
f 384 380 171
f 235 395 19
f 736 871 737
f 562 788 917
f 910 647 320
f 785 804 803
f 414 406 403
f 256 323 803
f 813 675 815
f 415 786 400
f 427 419 414
f 422 420 705
f 432 428 427
f 430 489 499
f 587 580 590
f 437 434 432
f 445 442 434
f 446 394 445
f 671 586 448
f 819 609 627
f 456 449 450
f 455 563 248
f 865 791 769
f 581 579 463
f 645 652 817
f 644 464 469
f 652 662 715
f 874 923 129
f 715 664 652
f 694 812 688
f 477 64 126
f 750 760 473
f 485 655 477
f 465 715 718
f 507 207 666
f 465 774 494
f 865 486 480
f 812 675 813
f 485 484 655
f 207 202 298
f 883 504 825
f 493 865 769
f 783 782 504
f 679 484 485
f 202 200 298
f 196 490 200
f 196 193 490
f 877 859 476
f 302 803 323
f 189 496 193
f 814 806 810
f 168 719 789
f 821 814 810
f 391 899 924
f 713 527 532
f 467 408 472
f 302 294 887
f 786 787 518
f 538 519 532
f 561 532 527
f 926 35 33
f 538 532 660
f 540 555 561
f 551 586 640
f 319 241 565
f 660 532 561
f 113 161 746
f 161 176 867
f 8 319 565
f 223 247 635
f 781 585 784
f 620 629 393
f 887 780 302
f 269 390 393
f 671 640 586
f 781 784 588
f 599 589 603
f 393 290 611
f 626 603 606
f 928 290 305
f 623 238 622
f 625 1 623
f 774 893 894
f 312 332 912
f 626 632 631
f 332 339 847
f 847 892 332
f 757 887 285
f 847 714 54
f 793 3 8
f 732 807 726
f 858 931 857
f 675 812 687
f 168 167 15
f 273 735 757
f 920 921 7
f 402 385 639
f 167 845 17
f 638 633 338
f 646 649 663
f 650 663 649
f 845 850 157
f 888 239 721
f 663 654 646
f 706 409 48
f 850 854 153
f 676 654 663
f 429 409 317
f 661 692 660
f 854 858 149
f 676 663 686
f 858 862 147
f 433 429 691
f 678 680 677
f 699 711 712
f 712 734 356
f 711 710 753
f 862 866 141
f 712 711 740
f 682 436 827
f 734 740 748
f 866 870 137
f 214 687 808
f 748 756 758
f 664 816 652
f 872 133 135
f 198 687 214
f 754 182 768
f 872 874 131
f 665 659 658
f 758 765 766
f 658 648 653
f 766 764 758
f 776 770 777
f 668 198 170
f 117 923 116
f 787 786 789
f 929 330 822
f 533 822 322
f 556 336 330
f 531 322 523
f 899 920 833
f 662 444 889
f 346 323 256
f 491 482 620
f 116 880 911
f 911 20 116
f 382 491 620
f 911 932 20
f 932 886 99
f 645 443 662
f 930 382 611
f 382 930 516
f 886 824 199
f 605 531 930
f 491 508 848
f 628 170 902
f 256 347 346
f 482 848 479
f 891 896 93
f 347 256 861
f 820 617 739
f 866 819 817
f 605 594 593
f 896 901 85
f 929 593 582
f 612 881 885
f 901 905 83
f 826 451 653
f 451 457 180
f 672 659 665
f 441 180 851
f 79 905 796
f 436 673 672
f 436 851 827
f 909 914 75
f 682 673 436
f 914 916 71
f 584 902 897
f 876 86 342
f 69 916 1
f 829 433 827
f 700 808 694
f 788 3 916
f 853 829 417
f 409 61 48
f 402 48 855
f 870 817 816
f 855 29 360
f 874 816 664
f 385 361 102
f 830 880 875
f 576 897 25
f 819 634 817
f 68 69 1
f 106 856 730
f 743 736 738
f 910 242 236
f 862 857 819
f 744 879 102
f 880 830 831
f 840 528 843
f 401 846 44
f 803 302 780
f 769 791 357
f 878 915 791
f 831 911 880
f 918 873 345
f 576 25 475
f 799 31 475
f 841 29 846
f 879 856 102
f 106 639 385
f 573 564 876
f 911 831 802
f 342 556 876
f 337 339 332
f 25 510 515
f 350 29 841
f 564 573 892
f 892 582 912
f 510 25 56
f 864 906 837
f 312 328 337
f 929 822 593
f 33 35 258
f 871 360 29
f 840 860 835
f 864 158 863
f 29 855 44
f 916 914 917
f 808 687 812
f 594 307 312
f 307 305 328
f 916 917 788
f 33 56 927
f 840 835 809
f 307 594 605
f 736 743 361
f 531 516 930
f 290 277 305
f 852 109 927
f 318 835 860
f 21 844 529
f 852 59 112
f 620 393 611
f 102 743 744
f 112 113 852
f 751 763 762
f 647 785 762
f 805 747 751
f 252 268 254
f 230 835 229
f 487 641 635
f 637 879 467
f 124 851 164
f 809 230 221
f 161 142 176
f 807 732 805
f 247 234 254
f 230 809 835
f 808 700 807
f 345 637 186
f 176 184 191
f 812 694 808
f 204 849 223
f 849 204 191
f 813 688 812
f 635 648 725
f 849 184 198
f 815 613 813
f 815 636 613
f 217 223 849
f 659 191 204
f 217 234 223
f 191 184 849
f 859 480 421
f 795 213 511
f 245 461 243
f 878 865 859
f 802 886 932
f 191 659 867
f 452 718 889
f 223 234 247
f 176 142 184
f 246 254 234
f 865 493 486
f 293 771 357
f 268 247 254
f 771 769 357
f 805 264 735
f 268 252 390
f 161 113 112
f 486 493 488
f 390 252 274
f 867 673 746
f 264 751 279
f 274 277 390
f 746 682 152
f 281 848 287
f 827 433 682
f 808 703 214
f 152 691 109
f 109 852 113
f 476 859 421
f 296 305 277
f 476 595 877
f 305 307 928
f 196 293 292
f 595 476 820
f 726 807 700
f 752 293 357
f 307 328 312
f 310 328 305
f 56 59 852
f 292 752 799
f 328 310 323
f 886 825 824
f 312 337 332
f 807 703 808
f 891 824 782
f 193 292 189
f 844 21 22
f 429 853 409
f 109 697 927
f 56 33 510
f 105 559 553
f 339 337 346
f 346 714 339
f 51 346 347
f 317 926 927
f 564 690 876
f 863 844 232
f 799 868 292
f 510 33 258
f 843 528 529
f 844 863 842
f 861 840 843
f 861 158 347
f 861 860 840
f 752 915 31
f 158 843 842
f 843 158 861
f 842 529 844
f 919 837 906
f 906 232 907
f 809 528 840
f 730 873 918
f 730 856 873
f 873 856 879
f 856 106 385
f 817 634 645
f 837 919 838
f 817 652 816
f 919 906 907
f 919 536 537
f 743 102 361
f 904 669 838
f 898 669 904
f 669 898 38
f 703 807 721
f 405 404 838
f 669 405 838
f 922 833 836
f 294 285 887
f 361 385 402
f 869 645 634
f 830 875 664
f 916 3 1
f 864 51 347
f 402 855 361
f 909 801 914
f 397 890 374
f 48 44 855
f 796 909 77
f 879 637 873
f 901 798 905
f 580 925 397
f 48 402 706
f 896 800 901
f 891 823 896
f 409 62 61
f 853 62 409
f 881 413 417
f 417 62 853
f 86 407 299
f 459 893 882
f 199 891 95
f 830 465 831
f 829 426 417
f 426 829 124
f 426 881 417
f 124 829 827
f 433 829 853
f 886 802 825
f 774 894 883
f 851 124 827
f 164 884 124
f 441 851 436
f 180 164 851
f 443 869 164
f 911 802 932
f 715 830 664
f 874 664 875
f 736 361 360
f 451 180 441
f 457 452 889
f 889 444 457
f 866 817 870
f 106 35 639
f 459 718 452
f 826 452 457
f 452 826 245
f 451 826 457
f 862 819 866
f 858 857 862
f 461 245 826
f 459 882 718
f 479 243 461
f 854 931 858
f 850 925 854
f 846 401 580
f 845 890 850
f 491 848 482
f 848 281 479
f 825 494 883
f 382 508 491
f 900 832 767
f 508 287 848
f 896 823 800
f 839 890 845
f 504 782 824
f 42 374 839
f 516 508 382
f 908 910 318
f 534 524 523
f 552 818 548
f 42 172 173
f 901 800 798
f 818 552 900
f 533 322 531
f 871 175 737
f 868 187 189
f 22 232 844
f 593 822 533
f 822 315 316
f 929 556 330
f 330 315 822
f 838 919 537
f 904 838 537
f 318 860 834
f 908 318 834
f 465 830 715
f 556 342 336
f 105 836 559
f 833 559 836
f 29 44 846
f 908 834 804
f 562 917 828
f 299 836 105
f 818 900 767
f 832 553 559
f 562 832 920
f 811 315 548
f 828 801 821
f 801 828 917
f 821 797 814
f 836 299 903
f 401 590 580
f 797 821 801
f 905 798 796
f 796 814 797
f 810 548 818
f 814 798 806
f 798 814 796
f 909 796 797
f 811 548 810
f 413 587 590
f 404 51 837
f 51 864 837
f 837 838 404
f 909 797 801
f 529 842 843
f 158 842 863
f 232 906 863
f 800 806 798
f 529 528 511
f 794 811 806
f 785 908 804
f 785 647 908
f 859 877 878
f 526 534 794
f 877 571 878
f 571 31 915
f 173 351 42
f 524 783 509
f 350 173 175
f 29 350 871
f 823 526 794
f 783 524 526
f 526 823 782
f 42 351 374
f 841 374 351
f 504 775 783
f 509 783 775
f 782 823 891
f 885 124 884
f 887 757 779
f 914 801 917
f 426 885 881
f 890 397 925
f 825 504 824
f 775 504 883
f 925 587 931
f 587 925 580
f 802 494 825
f 785 279 762
f 494 831 465
f 831 494 802
f 894 287 775
f 590 895 413
f 438 897 576
f 884 164 869
f 762 279 751
f 423 931 587
f 587 413 423
f 931 423 857
f 762 761 647
f 617 820 476
f 595 820 621
f 751 755 763
f 893 459 243
f 751 264 805
f 609 857 423
f 423 881 612
f 662 443 444
f 721 805 735
f 621 584 595
f 857 609 819
f 443 645 869
f 612 885 627
f 636 621 820
f 628 902 584
f 805 721 807
