# avbd fit, rung f600-i32-s300-b1e-3 of Gate 6d (body space, fit phase only)
v -0.015448707 0.603339076 0.002287875
v -0.106230244 0.612106681 0.063863106
v -0.014809075 0.619511247 0.002814064
v 0.000377496 0.903215766 0.068563908
v -0.153022662 0.595472217 0.055506743
v 0.007471324 0.913313389 0.079600677
v -0.013500655 0.651183903 0.000754119
v -0.013501389 0.635288358 -0.000149598
v -0.154543430 0.612776637 0.057214327
v 0.149659693 0.920634449 -0.105185524
v -0.173002005 0.608393550 0.048424117
v -0.184429973 0.607915819 0.031048680
v -0.192659885 0.607516885 0.014888954
v -0.155943453 0.610787451 -0.067878000
v 0.010213138 0.604144573 -0.009348829
v -0.137137100 0.607986987 -0.073567130
v 0.029048955 0.604747772 -0.006863557
v -0.122134648 0.611842096 -0.085244641
v -0.106509626 0.616661608 -0.095381603
v 0.186044201 0.562218010 -0.000433398
v -0.000727776 0.869846165 0.064519025
v -0.001290033 0.853966117 0.058526866
v -0.101529226 0.614630997 -0.079327688
v -0.086327702 0.621102989 -0.074008606
v 0.089895420 0.816417098 -0.112571374
v -0.070412718 0.630762160 -0.069268078
v -0.135378316 0.880819917 -0.126961306
v -0.140983790 0.791685939 0.072193533
v 0.033667434 0.694170177 -0.058040489
v -0.157311842 0.802386165 0.066294439
v 0.065541089 0.838657081 -0.138466999
v -0.192144364 0.777405322 0.045019653
v 0.079563722 0.775251746 -0.105552472
v -0.185577959 0.604593277 -0.037984412
v 0.063457146 0.765193462 -0.099904805
v -0.160220221 0.885654807 -0.100910880
v -0.178245917 0.881872535 -0.059487980
v 0.011896806 0.750246465 0.013114236
v -0.179692775 0.885337353 -0.039942905
v -0.079988532 0.880068302 -0.148453787
v -0.030847589 0.858923137 0.059365701
v 0.009904864 0.660606146 -0.025405666
v -0.020766674 0.839047432 0.052881263
v 0.047308229 0.692762554 -0.078745283
v -0.042706974 0.842983365 0.050051201
v -0.177126974 0.891349912 -0.021287033
v -0.185423881 0.878230274 -0.005599791
v 0.057990111 0.712595940 -0.088166192
v -0.174885377 0.881005883 0.012251405
v -0.049260031 0.619353831 0.018296961
v 0.056548126 0.810654819 0.054665975
v -0.061455566 0.615856767 0.038233079
v -0.073204204 0.700849414 0.058918118
v 0.051026881 0.771294653 0.054773837
v -0.080066666 0.612421811 0.052471977
v 0.096132658 0.789408982 -0.110510074
v -0.098616362 0.696281135 0.068726413
v -0.171857134 0.701615155 0.060204040
v 0.112697601 0.803592026 -0.115218744
v -0.199254468 0.698549628 0.031798806
v 0.068666212 0.693882585 -0.087738901
v 0.089179538 0.688449860 -0.094179966
v -0.202503562 0.788136005 0.025450211
v -0.198252454 0.809431672 0.023558434
v -0.206529647 0.697784305 -0.034185957
v -0.191024408 0.693482280 -0.054200448
v -0.181529939 0.706688106 -0.069579788
v -0.009046512 0.588732064 -0.006771856
v 0.010620117 0.590827227 -0.004431213
v -0.162788078 0.695432723 -0.080250487
v 0.028829221 0.590182841 -0.004586270
v -0.109772637 0.709304750 -0.105866611
v 0.045035366 0.587433994 -0.001787251
v -0.028460834 0.756304145 -0.065815404
v 0.054541696 0.582359910 0.011100478
v -0.099646613 0.881976008 -0.143702328
v 0.062813006 0.577727973 0.025140682
v -0.117837712 0.883448720 -0.136781678
v 0.070976190 0.573397934 0.039100058
v -0.125447899 0.867062926 -0.133889541
v 0.084718391 0.570602059 0.048608959
v -0.144065216 0.897330284 -0.117915675
v 0.099730447 0.568182588 0.055021871
v -0.176943660 0.851233661 -0.082753591
v 0.114302412 0.565773010 0.061233275
v 0.039323431 0.732297540 0.034552868
v -0.145246089 0.878002346 0.046721615
v -0.124211743 0.798238277 -0.115234517
v -0.155730620 0.643320322 0.060200982
v 0.129160613 0.563885093 0.063930660
v -0.143786952 0.805710971 -0.106986657
v -0.023843266 0.803717971 0.028387543
v 0.143295556 0.563504159 0.056740779
v -0.038343873 0.803479075 0.046109684
v 0.157347530 0.562724471 0.049767368
v -0.028581906 0.825154185 0.036455847
v 0.170832962 0.561974704 0.041940607
v -0.019411970 0.876084924 0.064652056
v 0.178032935 0.561950862 0.028331136
v -0.067636684 0.897684574 -0.148929670
v 0.184665337 0.561811566 0.014649609
v 0.023197200 0.758509398 -0.064477220
v -0.090969943 0.861726105 -0.144800618
v -0.106674239 0.656175613 0.068601348
v 0.035876211 0.713084161 0.023466077
v 0.045482747 0.767621875 -0.095302939
v -0.120143928 0.849966526 -0.129688263
v -0.138255626 0.639799297 0.067850053
v 0.120837390 0.756856680 -0.112371050
v -0.130627021 0.840785384 -0.114413604
v 0.129871607 0.813577354 -0.112634085
v 0.137565032 0.792190135 -0.108624481
v 0.137279630 0.769284546 -0.106559932
v -0.162630543 0.661895633 0.059468389
v -0.146544546 0.828396142 -0.105753839
v 0.186655968 0.562478006 -0.015523044
v 0.182578593 0.563787580 -0.029043421
v -0.191917747 0.650429368 0.030835137
v 0.147620395 0.811454177 -0.104991749
v -0.164561972 0.839368165 -0.097053126
v -0.190108150 0.836911857 -0.065587789
v -0.195022315 0.849881828 -0.050378054
v -0.057699967 0.831862569 -0.130885258
v 0.143666923 0.679910719 -0.084566489
v -0.175976321 0.832890213 0.046501745
v -0.192155883 0.829517186 0.024400763
v -0.123564124 0.825845063 0.070799433
v -0.136129484 0.841653466 0.063182481
v 0.175733238 0.566291809 -0.042317048
v -0.023005325 0.827191830 -0.114989854
v 0.168367356 0.568607509 -0.054949384
v -0.041515574 0.821177781 -0.117444001
v 0.154395059 0.572748125 -0.062279724
v -0.031547848 0.704290092 -0.054495841
v 0.169683099 0.573302448 -0.068289503
v -0.109541439 0.883821666 0.047739349
v 0.155403838 0.572797596 -0.075705975
v -0.090259865 0.881628156 0.055928916
v 0.141759977 0.572091937 -0.067287229
v -0.025756961 0.814773440 -0.098382875
v 0.126157507 0.570579648 -0.072081670
v 0.162030071 0.798615634 -0.098216958
v -0.030543264 0.800548375 -0.082625814
v 0.110016599 0.571194291 -0.072601460
v -0.046193372 0.811020374 -0.099042550
v -0.181166798 0.802869678 -0.086643599
v 0.095207289 0.573784411 -0.065733537
v -0.147996396 0.897433281 0.044065069
v 0.080134146 0.577148318 -0.058785953
v -0.031532846 0.728568792 -0.067905404
v 0.065093115 0.581210732 -0.051892608
v 0.136809960 0.749139547 -0.103322402
v 0.056643736 0.587517917 -0.038072299
v -0.100573123 0.757321715 -0.109849527
v 0.050699405 0.595226228 -0.024283109
v -0.057009630 0.675093532 -0.077665359
v 0.044869345 0.602920175 -0.011079365
v 0.051130217 0.846962452 0.049992464
v -0.184745163 0.768051922 -0.076905996
v -0.194507867 0.609843850 -0.018724218
v 0.155978203 0.777040303 -0.099003211
v -0.208378881 0.785086393 -0.032171853
v -0.210075527 0.746473491 -0.022368094
v 0.164022833 0.671930075 -0.074496947
v -0.206445843 0.733400702 -0.041905478
v -0.014368996 0.635019660 -0.014668603
v 0.014531588 0.622848511 -0.012487875
v -0.013435286 0.618754506 -0.011648526
v -0.013723676 0.650461972 -0.020714406
v 0.166904002 0.823385119 -0.096786752
v -0.195419014 0.739716768 -0.058018703
v -0.013050862 0.665454745 -0.027629668
v -0.013113268 0.679810941 -0.035606090
v -0.209827259 0.729888439 -0.002532389
v -0.012592557 0.696105421 -0.038015306
v 0.174014196 0.783403933 -0.091510899
v -0.169816390 0.737528443 -0.085667923
v -0.114399731 0.598730922 -0.077602558
v -0.205233574 0.739598274 0.024763767
v 0.180099294 0.687691629 -0.066868320
v -0.199440688 0.719363570 0.034243066
v -0.085215181 0.742039800 -0.103770591
v -0.070518591 0.728619456 -0.096407525
v 0.182312950 0.802730083 -0.084368609
v -0.043972339 0.788762450 -0.096366242
v -0.006307670 0.811366856 -0.081933290
v -0.004720646 0.820521653 -0.096942142
v -0.102875017 0.863629997 0.059480380
v -0.003991295 0.832138419 -0.109851882
v -0.123520933 0.856470227 0.060291726
v 0.186600730 0.777104735 -0.075150870
v -0.110791758 0.843501270 0.068114877
v -0.003533602 0.844712257 -0.120640554
v -0.125921503 0.873249173 0.051671751
v -0.156116545 0.729773164 0.068569444
v -0.003100288 0.858963013 -0.128676802
v -0.117158853 0.902276695 0.045056093
v 0.187789112 0.825944304 -0.072312057
v 0.167482764 0.581561208 0.047301684
v -0.002961107 0.874538064 -0.132050604
v -0.130398184 0.889828861 0.040326118
v -0.002793878 0.890614331 -0.132854551
v -0.157896921 0.846172214 0.056463599
v 0.198128641 0.768702865 -0.056327205
v -0.160102800 0.865292430 0.044738360
v -0.210892051 0.778430641 0.005381481
v -0.002750394 0.906822562 -0.132763788
v -0.147579417 0.896567464 0.026351457
v -0.160488546 0.882089913 0.030495444
v -0.161009118 0.897210896 0.011026824
v -0.135593370 0.723650575 0.075437658
v 0.033693984 0.919744313 0.068321124
v 0.017350748 0.919926524 0.068929449
v 0.197025985 0.841822147 -0.050671108
v -0.000127257 0.886562467 0.066559725
v -0.174461335 0.897332549 -0.003964594
v 0.202383548 0.814097762 -0.048157331
v -0.173290730 0.902168393 -0.035636969
v -0.173422813 0.901238739 -0.052405614
v -0.066794939 0.653071582 -0.074489608
v 0.050078988 0.919556737 0.066569686
v 0.201728866 0.827900290 -0.028938215
v 0.207917646 0.784281433 -0.038069203
v -0.172063932 0.900570095 -0.070277914
v -0.155156925 0.906107724 -0.104014434
v -0.127139986 0.900639236 -0.131973043
v -0.147102326 0.850977898 -0.106367409
v -0.096165083 0.655128241 -0.087888196
v 0.082384631 0.918298841 0.060698975
v 0.066287309 0.919164479 0.063815124
v -0.101340234 0.844700634 -0.137518376
v -0.002069865 0.838503480 0.051894706
v -0.108975813 0.864407897 -0.139241710
v 0.206744865 0.804153442 -0.023436103
v -0.108238779 0.642449856 -0.098368570
v 0.097197033 0.917016149 0.054165341
v -0.033613928 0.702138066 0.016521357
v -0.045060605 0.605829716 0.003362156
v 0.200816482 0.837903321 -0.010808785
v -0.200934201 0.829137802 -0.040293835
v -0.044496197 0.650950551 0.020220205
v 0.111379072 0.915356159 0.047594514
v 0.205565363 0.686519504 -0.001528552
v -0.056795008 0.599002004 0.022100266
v 0.205848932 0.687301457 -0.020568218
v 0.205116004 0.818392396 -0.005526084
v 0.210043937 0.780977428 -0.010732980
v -0.053483389 0.660293937 0.038151450
v -0.070043363 0.594206274 0.044497058
v -0.093098558 0.593358815 0.055256009
v -0.088169657 0.647168577 0.060335964
v 0.201711059 0.806435108 0.020205643
v -0.089880601 0.628498554 0.058915854
v 0.209449798 0.798949599 -0.000867640
v -0.051765472 0.823259056 0.050608642
v 0.093880594 0.840190113 0.072108641
v -0.106650829 0.635538101 0.066939272
v 0.060426760 0.782516122 -0.100771025
v -0.115226746 0.589704931 0.064769968
v -0.187966406 0.656724036 -0.050596826
v -0.123078704 0.646712005 0.074019648
v -0.133693680 0.606054425 0.066187039
v 0.056066196 0.799931228 -0.099215023
v 0.173666731 0.859481931 0.031964857
v -0.124957301 0.625666499 0.072096810
v -0.189982891 0.639634132 -0.041773759
v -0.138106197 0.585969746 0.061715506
v 0.209263518 0.782870889 0.014494528
v 0.203566074 0.765427411 0.026419759
v -0.142013371 0.859983921 0.054642636
v -0.144964904 0.625651777 0.063390322
v -0.173702464 0.589346528 0.056913741
v 0.189623266 0.823873639 0.030662274
v 0.188517421 0.802142322 0.043548163
v -0.176601723 0.646259964 0.051534407
v -0.165993661 0.627853632 0.053984515
v 0.185375929 0.780721843 0.057554930
v -0.177900985 0.588903069 0.037855916
v 0.157554895 0.864729524 0.048457764
v -0.183197126 0.627991855 0.040974177
v 0.202522919 0.680065155 0.019385524
v -0.048665948 0.921324611 0.066738352
v -0.192665011 0.626939654 0.022288714
v -0.022539323 0.898485780 0.066989146
v 0.177754909 0.819163144 0.051207066
v -0.171349525 0.851565063 0.040993150
v 0.191820100 0.673440576 0.038958453
v -0.173364967 0.865563989 0.027204117
v -0.195831567 0.619682431 0.001862934
v 0.175469473 0.760465264 0.063851468
v -0.184567645 0.848213851 0.026403848
v 0.018580385 0.840843499 -0.124202192
v 0.020168234 0.860809505 -0.135195091
v 0.160036951 0.815688431 0.063767299
v -0.027643433 0.904659629 -0.141342610
v 0.171049505 0.798641860 0.063662373
v -0.199112982 0.641560137 0.007754312
v -0.021608662 0.883704841 -0.139692098
v 0.022996923 0.732450306 0.016209126
v -0.032105736 0.645646453 -0.024318481
v -0.042676814 0.887554526 -0.145511419
v 0.141379714 0.825704098 0.067189820
v -0.048852228 0.906877816 -0.145994157
v -0.187137127 0.863360405 0.010710007
v 0.156981334 0.777065039 0.069828846
v -0.198748603 0.844729066 0.008796265
v 0.136723235 0.759985745 0.075786427
v -0.195642665 0.852286816 -0.030166090
v -0.201000959 0.836839855 -0.014145510
v 0.145019978 0.802514374 0.070174649
v -0.194462150 0.858209610 -0.009254741
v 0.114418983 0.769527853 0.080650195
v -0.188946590 0.587217450 -0.026197398
v -0.197873116 0.631308258 -0.012315826
v 0.094093814 0.676603377 0.065645948
v 0.115359411 0.673435271 0.074092276
v 0.089062318 0.736046731 -0.103894331
v 0.093348898 0.892708898 0.055784442
v -0.032355525 0.653014541 0.003318582
v 0.124490276 0.914336860 0.041216657
v -0.187571824 0.867471099 -0.045201838
v 0.126527756 0.691835880 0.077946648
v 0.116716191 0.815715909 0.075705811
v -0.199222267 0.641024888 -0.026302412
v -0.183236763 0.861161411 -0.065132581
v 0.138064206 0.914505303 0.038744304
v -0.159333870 0.863285899 -0.094834439
v 0.130070165 0.785976827 0.076111332
v -0.061389972 0.780283749 -0.101239622
v 0.082845643 0.697928727 0.062988810
v -0.177167729 0.586782813 -0.046094488
v 0.093318768 0.772279382 0.072167650
v -0.193003759 0.623460472 -0.031918097
v -0.181915790 0.637023211 -0.060040046
v -0.163886368 0.587994397 -0.061624520
v 0.060405612 0.695604622 0.053635221
v 0.104104951 0.792408347 0.077483162
v -0.059736758 0.746187866 -0.096632101
v 0.083612852 0.788468719 0.068868391
v -0.174289584 0.603347182 -0.056033224
v -0.173743874 0.653639913 -0.068024859
v 0.047820598 0.712752044 0.044486366
v -0.075732514 0.763038516 -0.103333198
v -0.163883567 0.593779504 -0.076651894
v 0.015722116 0.813290894 -0.088164151
v 0.084516302 0.812225997 0.068559885
v 0.068148516 0.832173645 0.059767533
v -0.164623126 0.632776618 -0.068648659
v 0.130783498 0.903001785 0.036821004
v 0.016625505 0.689496100 -0.039283775
v 0.018343709 0.673016012 -0.034457382
v -0.143927008 0.589856625 -0.068253875
v 0.143328175 0.908889771 0.027385304
v -0.123102769 0.756875753 -0.111604109
v 0.151184306 0.911595643 0.015080532
v -0.135945350 0.642616570 -0.080941930
v 0.042057279 0.867793918 -0.143851742
v -0.147129089 0.628200054 -0.073466703
v 0.159243345 0.913574338 0.002335543
v 0.029348891 0.715370834 -0.057240665
v 0.030850548 0.735204577 -0.066540949
v -0.134702742 0.740356505 -0.103289761
v 0.167322844 0.915119648 -0.010402163
v -0.141501650 0.759882331 -0.103255332
v -0.109093390 0.901241899 -0.139545098
v -0.043198146 0.882280171 0.063752286
v 0.170848727 0.913295627 -0.025230667
v -0.128640980 0.590031743 -0.081937499
v -0.154690370 0.748819232 -0.095060021
v -0.131197244 0.624616504 -0.078097247
v -0.150956616 0.872618377 -0.114439011
v 0.180068284 0.917368770 -0.034004193
v -0.172096059 0.758623779 -0.088510796
v 0.032924201 0.657461703 -0.032245841
v -0.107202038 0.590809584 -0.090796158
v -0.184854478 0.748584986 -0.074029766
v 0.171941727 0.918815136 -0.046303567
v -0.136563241 0.859439492 -0.121629775
v 0.170302495 0.919979393 -0.061817836
v -0.196148485 0.764894783 -0.059529893
v -0.117305025 0.632617950 -0.084468327
v 0.180010110 0.713622928 0.058905721
v 0.165417224 0.920543313 -0.076971076
v -0.206006959 0.750901818 -0.045963306
v 0.034138113 0.751530766 -0.083893076
v -0.093894936 0.599943221 -0.071454003
v -0.034469083 0.625082195 -0.017196318
v 0.158719093 0.920889497 -0.091662124
v -0.208841830 0.767834902 -0.038689762
v 0.197235003 0.783161759 0.035605215
v -0.030018721 0.684813797 0.008843413
v 0.138552874 0.920109749 -0.116971493
v 0.193847850 0.757694423 0.047109675
v -0.063797005 0.765449882 0.059394598
v -0.099652477 0.633559406 -0.083769903
v -0.073177315 0.606459320 -0.063413993
v 0.041152027 0.651631236 -0.053504735
v -0.083208166 0.643190205 -0.078605577
v -0.053667407 0.624526262 -0.059721760
v -0.053332858 0.605336607 -0.049443159
v 0.058858853 0.675009847 -0.078136101
v 0.044703662 0.730970383 -0.087940648
v -0.192424670 0.732910991 0.050207991
v 0.040021461 0.790361524 0.049747411
v 0.034853749 0.771661878 0.035741802
v -0.193958655 0.755332291 0.047470648
v 0.030999819 0.751843274 0.025421822
v -0.031974763 0.776438892 -0.078286916
v 0.083741732 0.712270916 -0.097001120
v -0.176669449 0.768266499 0.063057579
v -0.050171614 0.659001946 -0.069657721
v -0.056307398 0.642225087 -0.066628650
v 0.091037780 0.661710680 -0.086824998
v -0.172157586 0.745777547 0.064325884
v -0.043602921 0.631347775 -0.039299332
v 0.127284437 0.919980228 -0.126562476
v 0.106835261 0.678893149 -0.098380521
v -0.042500056 0.647342026 -0.055835404
v -0.152138636 0.761527956 0.070537627
v -0.036683660 0.676477134 -0.062593974
v 0.113056526 0.919546425 -0.132947266
v -0.036673635 0.659864783 -0.039474022
v 0.097650118 0.636591733 -0.083192565
v -0.192397252 0.599087715 -0.002648994
v -0.186975315 0.587393403 0.018420001
v 0.124074258 0.673970163 -0.092290856
v -0.142054886 0.743074775 0.074095950
v -0.125300422 0.756342053 0.079169981
v 0.105786622 0.722004712 -0.106539890
v -0.074252151 0.824606597 0.062635206
v -0.064790629 0.921624362 0.063897409
v -0.112333640 0.734210551 0.076947160
v 0.126914874 0.713694453 -0.101126686
v -0.100773752 0.753722966 0.073661119
v -0.084637344 0.806612492 0.068854228
v 0.162963867 0.717785478 -0.084355831
v -0.086018518 0.736462831 0.066638246
v 0.110874794 0.848093152 -0.135102540
v -0.072762132 0.786172271 0.063838162
v -0.096965291 0.789588451 0.073839605
v 0.179688603 0.708818853 -0.072097704
v -0.087773554 0.771065176 0.069322355
v 0.174630284 0.654428720 -0.069650240
v 0.182150275 0.667224288 -0.060105272
v -0.080040537 0.754049063 0.065414265
v -0.062760197 0.743217111 0.057823230
v -0.110063806 0.772666335 0.078451216
v -0.032525040 0.762891829 0.026924383
v -0.120691374 0.791168690 0.077557944
v -0.109255254 0.808721364 0.078343160
v 0.191732496 0.703475893 -0.054626167
v 0.201619461 0.672698855 -0.033433817
v -0.060946025 0.803999901 0.057416815
v -0.134690061 0.775065541 0.075798675
v -0.044269335 0.683990359 0.030070703
v -0.134195417 0.808288872 0.071757264
v 0.192193598 0.681223869 -0.049606409
v -0.152440161 0.824320197 0.063877173
v 0.203154445 0.668503761 -0.014084011
v -0.178283706 0.790805638 0.062368058
v 0.208281472 0.710948825 -0.016286675
v -0.157916427 0.781335175 0.068989016
v -0.065957651 0.843181610 0.054363795
v -0.175845951 0.812565804 0.057671331
v 0.197476700 0.629050016 -0.013061645
v -0.068484835 0.880882144 0.060800254
v -0.009358940 0.779581547 -0.063522249
v -0.063655056 0.900705636 0.063012101
v -0.186139792 0.816537857 0.039029401
v -0.203831166 0.764940798 0.025647152
v -0.044361766 0.904454887 0.066157967
v -0.007277278 0.797152758 -0.070850015
v -0.095638305 0.920556664 0.054626919
v -0.211131305 0.754274607 0.002952510
v 0.071458392 0.825421512 -0.124604188
v 0.118720248 0.889093697 -0.135853559
v -0.204982996 0.823755085 0.005694035
v -0.080740236 0.921436965 0.060732435
v 0.207685798 0.705702007 0.009687771
v 0.097916320 0.919902444 -0.139032200
v -0.186947927 0.871872306 -0.025057387
v 0.203621432 0.720886827 0.025956994
v -0.210280538 0.769911528 -0.015952976
v -0.209263831 0.793077350 -0.014549740
v -0.205157548 0.815117061 -0.016471813
v 0.081790827 0.920389950 -0.142516211
v 0.210965425 0.760191262 0.006448503
v 0.065319069 0.921084583 -0.142985716
v -0.086601645 0.845332444 0.068087250
v -0.017811947 0.862058342 -0.134847105
v 0.194320425 0.710843682 0.043871261
v 0.048835926 0.921827137 -0.141477451
v 0.057979822 0.905726552 -0.146921858
v 0.195364803 0.619351149 0.010957041
v -0.083372258 0.900461376 0.060161252
v -0.021505786 0.843248963 -0.128043652
v -0.201970533 0.787349284 -0.052507769
v -0.168514922 0.877216041 -0.079117581
v -0.096954517 0.826357841 0.073782481
v 0.031913094 0.922855675 -0.138797432
v -0.190297872 0.786976218 -0.071522489
v 0.014987448 0.923055947 -0.133703396
v -0.160602361 0.793030143 -0.099201724
v 0.179316849 0.625749290 0.047155339
v -0.176532060 0.780485392 -0.090368822
v 0.014121450 0.910298944 -0.136213958
v -0.002806442 0.923027396 -0.130537868
v 0.186999112 0.690771580 0.053286482
v 0.175285757 0.668002665 0.055545248
v 0.075857893 0.797147632 -0.105037071
v 0.018832270 0.891916931 0.066564783
v -0.164409041 0.815882981 -0.098243430
v -0.157484338 0.770933032 -0.097685643
v -0.165277287 0.901490867 -0.087876372
v 0.061608892 0.814193606 -0.110455729
v 0.163533002 0.690521419 0.063428633
v -0.138399497 0.781271458 -0.107913509
v -0.053410351 0.592293322 -0.031297576
v -0.105357371 0.793039560 -0.113603696
v -0.058956593 0.585585594 -0.045764610
v -0.072728984 0.582278788 -0.056143988
v -0.115093209 0.776521683 -0.115550436
v 0.140283674 0.678434193 0.071368374
v 0.153132886 0.661394894 0.063774154
v -0.088087313 0.580522537 -0.063541137
v 0.144117460 0.636320055 0.065181203
v -0.111772254 0.833454728 -0.121288165
v 0.040661387 0.885242581 0.064582899
v 0.025430351 0.871486843 0.063991949
v -0.103141502 0.580105126 -0.070770003
v 0.144192234 0.703727126 0.071608007
v -0.105207607 0.813755512 -0.112794206
v 0.125549331 0.710099399 0.079053923
v 0.129915178 0.654479265 0.073392823
v -0.120567240 0.579269350 -0.073769644
v -0.003732646 0.814742744 0.027847925
v -0.005168727 0.799221098 0.021407070
v -0.088330522 0.798260570 -0.108960606
v -0.109122001 0.571429908 -0.079518273
v -0.078557253 0.841359973 -0.141071647
v -0.094064251 0.777675092 -0.109940387
v -0.123104021 0.570262551 -0.083607927
v -0.131554544 0.570574760 -0.070788927
v -0.146314532 0.567684233 -0.068585314
v -0.045567561 0.780062675 0.052536495
v -0.030328372 0.784240186 0.029915273
v 0.074706927 0.681077600 0.058133364
v 0.077395730 0.661259592 0.057574254
v -0.163159549 0.568601906 -0.071682565
v -0.155552372 0.576803207 -0.063273981
v -0.033884726 0.721737027 0.021567233
v 0.057690829 0.674474359 0.049711399
v 0.044715125 0.691472352 0.033439539
v -0.168823943 0.570233285 -0.055677433
v -0.074540190 0.826911747 -0.126389772
v 0.068084083 0.714997768 0.058497317
v -0.176437482 0.566963553 -0.041773535
v -0.048187036 0.705644727 0.042444278
v 0.030017534 0.694447756 0.012804573
v -0.038534462 0.667933702 0.016025741
v -0.093631268 0.826571763 -0.128741682
v 0.026862431 0.651695728 0.003768696
v -0.058630966 0.682175398 0.051175356
v 0.062426429 0.752417803 0.058666162
v -0.041448180 0.636971712 0.010621054
v -0.053507321 0.636139035 0.031115925
v -0.056226730 0.850593567 -0.142574817
v -0.072717108 0.860923886 -0.146879405
v -0.066432849 0.721872270 0.057975866
v -0.058280259 0.873596787 -0.148622587
v 0.087714180 0.852882266 -0.143045291
v -0.183646858 0.564651489 -0.027994594
v 0.075505354 0.734550357 0.062790170
v -0.068384171 0.637170434 0.050527979
v -0.091872588 0.716535091 0.067600131
v 0.092079222 0.832041621 -0.132908180
v -0.071456477 0.661783576 0.054728657
v -0.082067296 0.681543529 0.060734022
v -0.078647688 0.862445951 0.056209754
v 0.056102376 0.653034270 -0.069880076
v -0.054613478 0.862390518 0.057103436
v 0.096202083 0.737631202 0.071289524
v -0.090630673 0.664862812 0.062809870
v 0.130275294 0.847740471 -0.119219325
v -0.186828986 0.564024448 -0.013708477
v -0.032848634 0.742058754 0.024076995
v 0.076229751 0.641248167 -0.074468121
v -0.183871835 0.565690041 0.017277103
v -0.124836110 0.688775957 0.077625923
v 0.071734563 0.660781443 -0.078734078
v -0.177406132 0.567792058 0.031455062
v -0.105325654 0.676517844 0.069685012
v 0.111034416 0.723675609 0.076296777
v 0.117276348 0.745231211 0.080293156
v 0.126295537 0.866190135 -0.132987574
v -0.169110015 0.571634412 0.044744410
v -0.114878573 0.711098850 0.076257572
v -0.162422746 0.585033536 0.049197301
v -0.124755085 0.667035043 0.075856879
v -0.156378955 0.571682572 0.051038928
v -0.142228633 0.570106208 0.057815570
v -0.136138648 0.705835104 0.074495785
v -0.145557120 0.675155818 0.068373635
v -0.128826663 0.569831669 0.064419597
v 0.137498468 0.730824947 0.075740181
v -0.150771558 0.693782747 0.068219960
v -0.113569126 0.570753515 0.061414354
v -0.099434741 0.572148204 0.055174004
v 0.117442332 0.627181411 -0.082645088
v -0.154518992 0.712407053 0.067497872
v 0.178599820 0.738177419 0.061908413
v 0.118103243 0.643426955 -0.086806096
v 0.157452196 0.900362790 -0.102849722
v -0.085276827 0.573629498 0.048934836
v -0.142003253 0.656653225 0.067791536
v -0.071895786 0.575346589 0.040984880
v 0.131893903 0.903844178 -0.129354894
v -0.064302541 0.578341961 0.027701700
v -0.056601591 0.581653714 0.014341044
v 0.194832548 0.732157052 0.045287892
v 0.144285247 0.863610566 -0.118040264
v -0.048712857 0.585202515 0.001343907
v -0.035681125 0.589110076 -0.006493986
v -0.174328446 0.722540200 0.061287113
v -0.031585176 0.606589854 -0.004653745
v -0.168098181 0.681426287 0.059830688
v 0.133437544 0.638031363 -0.080124669
v 0.150421038 0.845670521 -0.101558030
v 0.205076858 0.744046807 0.025904149
v -0.190794528 0.710336208 0.050916322
v -0.184770092 0.666627705 0.050044231
v -0.188927218 0.688423038 0.050218295
v -0.035575055 0.748000264 -0.087066852
v 0.150323212 0.632608771 -0.072908506
v 0.210308954 0.758336544 -0.016433064
v 0.151413530 0.882325172 -0.112292372
v 0.010007821 0.798687100 -0.072949708
v -0.048486020 0.765747845 -0.096080191
v 0.054731548 0.748782039 -0.095141947
v -0.045315996 0.730370879 0.043912038
v 0.209949061 0.733328164 0.001061834
v -0.196093172 0.675675750 0.030527461
v -0.208128959 0.713292301 0.014757519
v -0.190062866 0.798422158 0.042951234
v 0.170181021 0.635609925 -0.073566653
v -0.202473402 0.664937556 0.009789502
v 0.128714338 0.887707829 0.042441558
v 0.209363073 0.736298442 -0.026046921
v -0.205944985 0.688955903 0.010394058
v -0.207782269 0.704159260 -0.008870521
v -0.208620831 0.720380604 -0.025762210
v 0.175355181 0.623534441 -0.059650749
v 0.203940362 0.719407380 -0.041654032
v -0.201140136 0.653938234 -0.010527652
v -0.209558696 0.801847577 0.005392830
v 0.158030957 0.863816857 -0.100439951
v -0.032201890 0.920860946 0.068288833
v 0.201024771 0.742895961 -0.050354440
v 0.186855704 0.750510871 -0.070881650
v -0.081694707 0.817012966 -0.112736106
v -0.060864218 0.817121804 -0.115356289
v 0.181338876 0.644225836 -0.056509245
v -0.204634234 0.678584218 -0.015019591
v 0.180968329 0.609720349 -0.046725750
v 0.191146940 0.725799918 -0.060123809
v -0.019860331 0.923343062 -0.135465175
v -0.036654271 0.922902107 -0.139809638
v 0.173815742 0.846134961 -0.089950189
v 0.016717708 0.769945979 0.018997252
v -0.053186752 0.922041059 -0.142182902
v -0.043668270 0.753716886 0.047048572
v 0.179635271 0.728704095 -0.076645561
v 0.167238563 0.740965486 -0.087113395
v -0.069493569 0.921339989 -0.143251359
v 0.170035973 0.868130386 -0.084127672
v -0.200168341 0.658724189 -0.031893782
v -0.085629418 0.920795321 -0.142212316
v -0.090707973 0.900173664 -0.147030458
v -0.205560490 0.805290103 -0.037945934
v -0.100856937 0.920419097 -0.137921780
v -0.115388855 0.920411289 -0.131902233
v 0.146041006 0.729987562 -0.095403425
v -0.196613312 0.715898633 -0.051319532
v -0.194983825 0.811238468 -0.063431069
v -0.181682512 0.826435566 -0.084046647
v -0.197612047 0.676885843 -0.041926067
v 0.183517620 0.854817569 -0.068719082
v 0.171396777 0.902928233 -0.073359773
v -0.181935877 0.621107399 -0.048945472
v 0.042742826 0.751787782 0.045532089
v 0.125323445 0.734184623 -0.106448427
v -0.066308491 0.801023483 -0.102411568
v -0.183766112 0.727426231 -0.071181610
v 0.172632933 0.896178544 -0.055684943
v -0.077203721 0.783941567 -0.105649091
v -0.175613075 0.616618514 -0.069255590
v 0.107397079 0.742340624 -0.109871425
v -0.182988539 0.672720671 -0.060620345
v -0.162084684 0.671922505 -0.075877003
v 0.175053820 0.892516613 -0.037512641
v -0.177644357 0.687589049 -0.070492059
v -0.166493014 0.716660142 -0.082902685
v 0.195488140 0.852754474 -0.027750526
v -0.154661313 0.649163783 -0.075798139
v -0.031902712 0.682308793 -0.040650479
v 0.068156347 0.731509507 -0.095978454
v -0.129108638 0.921005070 -0.125131965
v -0.140021637 0.921406746 -0.115274750
v -0.150375798 0.728030324 -0.093287960
v -0.147055596 0.706822991 -0.090449475
v -0.144454300 0.685119450 -0.085832849
v -0.141349345 0.663280785 -0.083605662
v -0.127522975 0.819798768 -0.113976464
v 0.063270189 0.790944874 0.060592748
v 0.189679712 0.631883025 -0.039091017
v -0.158981889 0.922190666 -0.090187907
v -0.165381253 0.922241330 -0.075872138
v 0.200382993 0.650024593 -0.026967511
v -0.011067476 0.602194607 -0.011351549
v -0.169677719 0.921704888 -0.060751516
v 0.195754334 0.856061816 -0.002296618
v -0.171681434 0.920195580 -0.045477979
v -0.178531319 0.916575551 -0.032300476
v -0.170175821 0.919194698 -0.021509377
v 0.209330708 0.758311868 -0.038482241
v 0.182180390 0.897436500 -0.024112983
v -0.165067196 0.918299019 -0.007886760
v -0.157470316 0.915891290 0.004288034
v -0.149708197 0.913485646 0.016722694
v 0.041149355 0.788109124 -0.094820410
v -0.142013028 0.909244537 0.028976450
v 0.177015811 0.892642200 -0.008473950
v -0.129443526 0.904975295 0.037353516
v -0.122134306 0.654029906 -0.088679738
v 0.188934535 0.848597169 0.020835912
v 0.013227955 0.725177407 -0.049230527
v -0.011108250 0.712078035 -0.043591253
v -0.010856383 0.728772759 -0.047515266
v 0.144953117 0.901627243 -0.116171107
v -0.125780970 0.675571203 -0.092125967
v -0.010150427 0.745274007 -0.053071789
v -0.130197823 0.719137311 -0.101401091
v 0.011161012 0.743946493 -0.054348283
v -0.010386633 0.761960030 -0.058487058
v -0.134770915 0.918775916 0.034877621
v 0.153646201 0.755225360 -0.096151538
v 0.168331593 0.893054605 0.007597517
v -0.109065577 0.665154099 -0.099802881
v -0.122515775 0.918464005 0.041305248
v -0.109600544 0.919269204 0.047851615
v 0.163901925 0.879424691 0.028503444
v 0.040987216 0.846466899 -0.138004273
v -0.128046855 0.697290242 -0.096560732
v -0.110359691 0.734211147 -0.110442497
v 0.154997259 0.896730065 0.018432278
v -0.109338343 0.687140465 -0.101026610
v 0.178588122 0.838815331 0.040595204
v -0.092413269 0.676694632 -0.092677057
v -0.008830477 0.748261511 0.010868952
v -0.101038113 0.901011944 0.052928500
v 0.144343019 0.899038434 0.046784364
v 0.149452254 0.882005990 0.049366467
v 0.146698251 0.892276943 0.032677449
v -0.078096762 0.665590465 -0.083234787
v -0.090104856 0.698460698 -0.096894071
v -0.071867697 0.687312663 -0.087416783
v 0.043886311 0.657013774 0.021682996
v -0.090065405 0.720330536 -0.101207457
v 0.047194578 0.888012290 -0.145836160
v -0.068532273 0.709142268 -0.091449343
v 0.022543112 0.880773723 -0.139872923
v -0.039678823 0.838526368 -0.131747395
v -0.037414785 0.862712502 -0.141894668
v 0.198913962 0.641267061 0.009170620
v 0.185451865 0.649738908 0.043857068
v -0.044476695 0.699801445 -0.079905622
v -0.049125291 0.725474477 -0.088321611
v -0.150789410 0.922006130 -0.103682980
v 0.166060477 0.849392116 0.049802464
v 0.146390185 0.846939385 0.059309751
v -0.189151675 0.580384135 -0.004354839
v 0.158178076 0.618145227 0.056694824
v 0.165927619 0.643037796 0.056024242
v -0.186428592 0.564686894 0.001856741
v 0.132895619 0.865891159 0.054853272
v -0.046653491 0.612305760 -0.028386373
v -0.045059003 0.598542988 -0.018319510
v 0.011784578 0.633378983 0.000912561
v -0.028856074 0.598989129 -0.016336365
v 0.000261377 0.920157909 0.069273137
v 0.063176349 0.877068639 -0.148911625
v -0.015848648 0.920116901 0.068936400
v -0.036078054 0.624058664 0.000731906
v 0.120030478 0.630912781 0.072554238
v 0.035558883 0.903720379 0.067013428
v 0.069517113 0.594826341 0.044613354
v 0.061526805 0.611660838 0.037095673
v 0.092293330 0.603986681 0.056978792
v 0.043445062 0.826838017 -0.122511603
v 0.113484360 0.607476234 0.066981219
v 0.050520141 0.618757248 0.020730551
v 0.191058442 0.597554088 0.014314060
v 0.123596467 0.840577424 0.066640526
v 0.111885190 0.858418167 0.062549599
v 0.182301432 0.872766376 0.009737048
v 0.097403362 0.625816464 0.062383592
v 0.186124876 0.874109387 -0.019899799
v 0.186179787 0.870181203 -0.046838634
v 0.054507412 0.900630593 0.064477973
v 0.077932492 0.639525890 0.055379204
v 0.101824895 0.651223540 0.066760689
v 0.174213409 0.879090667 -0.067900836
v 0.165775135 0.891505361 -0.085665800
v 0.076031372 0.617716610 0.051897764
v 0.162211046 0.881145835 -0.098122209
v 0.164208680 0.604736924 -0.063696086
v 0.159977853 0.613868535 -0.079951137
v 0.057153128 0.652077138 0.042811781
v 0.132713258 0.613676429 -0.075495392
v 0.136803865 0.884021461 -0.125643522
v 0.059419774 0.630396247 0.040367521
v 0.105284251 0.698360980 0.072071798
v 0.136994615 0.611334503 0.065503493
v 0.172509760 0.602440298 0.047900055
v 0.185297534 0.610674620 0.030661121
v 0.203324705 0.696481109 -0.037919495
v 0.145095319 0.704781651 -0.090375975
v 0.046850864 0.638643622 0.020759167
v 0.126420572 0.692831874 -0.095748663
v 0.192860276 0.611412168 -0.027265206
v 0.193615630 0.605658233 -0.006068581
v 0.036271408 0.674051642 0.014614036
v 0.009581203 0.696075320 0.004628086
v 0.093856722 0.865532279 0.057843834
v 0.073223703 0.898324311 0.061660599
v 0.016187612 0.714632869 0.008545781
v 0.032918956 0.809215546 0.041842278
v 0.022542123 0.791281581 0.026143629
v 0.020503247 0.643151879 -0.017021690
v 0.060869753 0.880774379 0.061791997
v 0.034515485 0.674054444 -0.046940990
v 0.033954218 0.855589390 0.057461955
v 0.048630718 0.865826249 0.059677791
v 0.015533099 0.854716003 0.058818471
v 0.038687386 0.624176860 -0.016575072
v 0.040010564 0.671713114 -0.068399288
v 0.072381780 0.771464765 0.063543633
v 0.199086398 0.696389139 0.031895034
v 0.195866928 0.795794308 -0.062804662
v 0.048935063 0.612053990 -0.038493551
v 0.162628964 0.694796145 -0.079634309
v 0.117190577 0.779300809 -0.115453646
v 0.106085122 0.700796306 -0.102458239
v 0.066412695 0.601972461 -0.058631532
v 0.035780933 0.712477207 -0.077303559
v 0.032608602 0.773600459 -0.079483703
v 0.104542814 0.611779332 -0.079564564
v 0.090671025 0.596307695 -0.068461195
v 0.099671781 0.894731343 -0.143544093
v 0.079010688 0.878537774 0.059924312
v 0.072416022 0.856648266 0.054509591
v 0.116183862 0.591392696 -0.076762877
v 0.027661020 0.839860439 0.052200299
v 0.044857465 0.827493072 0.045230914
v 0.077402338 0.896375179 -0.148003042
v 0.142987803 0.593035102 -0.068662129
v 0.172872931 0.762891889 -0.088325247
v 0.018589141 0.822894752 -0.108882830
v 0.160569623 0.650009811 -0.072843358
v 0.168044776 0.592032552 -0.075144276
v 0.014615309 0.706963658 -0.044193432
v 0.156702697 0.587125182 -0.063314378
v 0.029035440 0.795994401 -0.080586992
v 0.174560770 0.587826610 -0.050458718
v 0.184829623 0.595947027 -0.035654318
v 0.053990714 0.732668757 0.054036122
v 0.105239853 0.870753407 -0.141386509
v 0.084223159 0.875031471 -0.147908494
v 0.015588343 0.778881967 -0.066625878
v 0.191282213 0.589699984 -0.019517094
v 0.110345080 0.658348680 -0.093285143
v 0.200486034 0.650145948 -0.007915097
v 0.190794557 0.633628488 0.028446004
v 0.146731049 0.656138241 -0.079790473
v 0.129979759 0.657844305 -0.086692527
v 0.180196658 0.586165786 0.032290664
v 0.163548276 0.833490252 0.059736956
v 0.200794622 0.832479000 0.011220141
v 0.191734627 0.657402337 -0.044212308
v 0.042068914 0.635964274 -0.036230765
v 0.150880307 0.590942562 0.056403242
v 0.082752883 0.753814578 0.066966988
v 0.202267602 0.664064586 0.005667887
v 0.196072444 0.656735539 0.024998847
v 0.076232180 0.676284254 -0.085560143
v 0.129576519 0.586178541 0.066192582
v 0.112493709 0.830840290 -0.116073385
v -0.008472090 0.765132129 0.013340438
v -0.010506273 0.682767570 0.003256071
v 0.047933981 0.670167148 0.032756835
v 0.106632754 0.586842000 0.060980033
v 0.138902947 0.829995155 -0.108232975
v -0.010254929 0.731741726 0.007513477
v -0.007404793 0.782189786 0.016916592
v 0.087465107 0.585424066 0.051991295
v 0.020211715 0.826139271 0.040668711
v -0.002886105 0.825448155 0.040870026
v 0.111327790 0.876845717 0.050091308
v 0.057426006 0.598416507 0.023519177
v 0.111346006 0.897995353 0.048641704
v 0.189494729 0.583313763 -0.001965623
v 0.101004705 0.755602539 0.074457154
v 0.032891482 0.901974201 -0.142962545
v 0.044866446 0.605800807 0.004671792
v 0.063733913 0.858238697 -0.145657331
v 0.017664678 0.611393094 0.005520885
v 0.036528092 0.627694011 0.002805949
v 0.037922762 0.811795890 -0.099542342
v 0.014396966 0.812493145 0.028130015
v 0.014616100 0.673324525 0.002958036
v -0.011891541 0.667064309 0.001026732
v -0.010064756 0.715156555 0.005404777
v 0.183455363 0.579461336 -0.032629848
v -0.009745667 0.698801279 0.004343849
v 0.055586815 0.627774715 -0.061359800
v 0.076585650 0.752670944 -0.101906911
v 0.098057494 0.762865961 -0.109187663
v 0.156988576 0.747374535 0.069654599
v 0.090104789 0.717462361 0.067471780
v 0.159826472 0.721499801 0.066868789
v 0.081701592 0.618677735 -0.070758380
v 0.186920121 0.577749133 0.015494535
f 555 540 123
f 389 162 497
f 567 540 568
f 583 104 251
f 463 489 430
f 453 94 255
f 483 484 162
f 446 640 671
f 574 577 251
f 50 244 238
f 52 244 50
f 575 57 53
f 55 249 52
f 55 2 250
f 577 248 563
f 575 437 432
f 57 597 589
f 2 265 262
f 589 592 57
f 262 259 2
f 5 267 262
f 602 606 589
f 5 9 11
f 58 606 610
f 11 272 5
f 12 278 11
f 565 793 8
f 630 60 632
f 13 425 12
f 424 289 160
f 289 424 13
f 643 649 60
f 181 403 179
f 483 206 484
f 163 651 174
f 53 563 558
f 651 65 650
f 163 389 384
f 683 66 65
f 455 558 563
f 165 384 171
f 340 331 34
f 67 66 683
f 206 470 63
f 385 102 856
f 67 702 70
f 344 340 696
f 179 403 406
f 710 70 702
f 16 352 14
f 111 112 59
f 63 64 655
f 18 368 16
f 710 742 753
f 119 112 111
f 394 671 545
f 551 922 903
f 19 375 18
f 753 740 711
f 406 470 179
f 261 615 108
f 545 453 439
f 178 386 530
f 24 386 23
f 72 753 742
f 26 396 24
f 768 765 72
f 119 142 112
f 32 63 470
f 112 142 161
f 399 400 396
f 154 343 182
f 545 671 448
f 399 415 400
f 768 770 765
f 32 406 410
f 418 415 399
f 770 183 777
f 387 300 166
f 415 418 422
f 105 86 299
f 169 42 839
f 170 142 119
f 173 172 705
f 329 638 343
f 134 738 737
f 185 638 329
f 692 661 145
f 150 74 741
f 637 345 873
f 132 145 661
f 170 184 142
f 138 495 760
f 138 136 188
f 136 194 188
f 201 87 194
f 270 87 205
f 216 49 210
f 46 216 724
f 198 184 170
f 43 96 907
f 219 39 218
f 45 43 41
f 224 37 219
f 498 224 514
f 86 105 342
f 225 36 514
f 378 107 110
f 80 233 107
f 22 41 43
f 198 217 849
f 41 581 45
f 103 233 76
f 76 40 103
f 222 217 214
f 678 100 40
f 98 41 22
f 366 41 98
f 40 76 678
f 215 4 284
f 215 98 21
f 537 536 92
f 222 234 217
f 904 537 92
f 460 462 30
f 284 471 366
f 222 239 246
f 586 903 759
f 462 28 30
f 246 234 222
f 454 449 28
f 237 391 924
f 560 319 921
f 246 888 252
f 431 471 282
f 455 560 391
f 319 560 241
f 50 238 793
f 50 566 52
f 52 574 55
f 258 263 510
f 244 52 249
f 55 253 2
f 284 792 657
f 303 670 667
f 303 100 674
f 250 249 55
f 273 274 252
f 251 253 574
f 100 303 301
f 301 570 100
f 104 261 257
f 677 100 678
f 273 285 274
f 257 2 253
f 2 257 265
f 250 2 259
f 570 568 40
f 752 292 293
f 294 296 285
f 285 296 274
f 684 497 679
f 277 274 296
f 440 447 442
f 579 489 463
f 692 329 695
f 259 262 267
f 871 736 360
f 262 271 9
f 40 100 570
f 570 567 568
f 203 128 270
f 310 296 294
f 305 296 310
f 87 270 194
f 9 5 262
f 5 272 600
f 276 9 271
f 9 276 11
f 272 11 278
f 302 323 310
f 568 103 40
f 108 615 89
f 280 11 276
f 11 280 12
f 103 568 540
f 278 12 425
f 323 337 328
f 283 12 280
f 12 283 13
f 283 297 289
f 289 13 283
f 540 561 231
f 425 13 424
f 209 288 205
f 291 125 286
f 346 337 323
f 49 304 288
f 173 350 351
f 297 654 314
f 347 158 864
f 304 47 311
f 47 304 49
f 47 46 481
f 360 361 855
f 501 684 146
f 481 311 47
f 46 39 481
f 343 695 329
f 314 289 297
f 289 314 160
f 481 321 308
f 481 39 321
f 325 122 321
f 325 321 37
f 37 321 39
f 333 160 314
f 324 266 333
f 527 107 231
f 84 121 325
f 36 327 498
f 160 333 34
f 327 120 84
f 36 82 371
f 277 393 390
f 689 34 333
f 34 689 340
f 313 34 331
f 266 334 689
f 334 260 341
f 340 335 331
f 107 527 110
f 54 404 405
f 696 14 344
f 61 401 44
f 38 299 407
f 358 14 348
f 14 358 16
f 344 14 352
f 356 704 712
f 352 16 368
f 413 62 417
f 370 16 358
f 16 370 18
f 175 705 134
f 713 115 110
f 371 27 378
f 27 371 82
f 381 18 370
f 18 381 19
f 368 18 375
f 80 378 27
f 19 381 235
f 19 395 23
f 19 23 178
f 202 506 913
f 23 395 24
f 386 24 396
f 398 24 395
f 24 398 26
f 26 398 220
f 26 412 399
f 396 26 399
f 418 399 412
f 164 180 444
f 444 443 164
f 175 173 705
f 685 84 120
f 422 300 415
f 685 121 84
f 172 169 300
f 172 300 422
f 78 80 27
f 226 365 78
f 89 615 114
f 240 485 309
f 134 737 175
f 226 27 82
f 245 459 452
f 187 186 140
f 243 459 245
f 189 187 130
f 581 466 579
f 467 472 637
f 308 122 240
f 138 579 466
f 430 255 463
f 499 435 430
f 453 430 435
f 435 440 439
f 435 499 450
f 243 479 281
f 308 321 122
f 897 438 584
f 439 453 435
f 243 281 893
f 450 440 435
f 480 859 865
f 440 449 447
f 442 439 440
f 450 449 440
f 447 449 454
f 492 488 493
f 127 458 456
f 449 456 28
f 82 225 708
f 454 28 462
f 28 456 30
f 456 450 127
f 30 456 458
f 225 82 36
f 30 464 460
f 506 507 502
f 126 469 125
f 287 508 509
f 207 507 506
f 410 460 32
f 126 306 477
f 460 464 644
f 644 32 460
f 32 644 63
f 475 31 576
f 470 406 32
f 64 63 644
f 306 309 477
f 125 464 458
f 528 795 511
f 516 523 524
f 655 206 63
f 206 655 484
f 206 474 470
f 162 679 497
f 316 322 822
f 313 160 34
f 37 498 325
f 523 316 534
f 497 684 501
f 501 146 505
f 146 512 503
f 505 503 513
f 263 515 510
f 512 120 115
f 503 512 91
f 517 513 503
f 115 713 91
f 458 203 125
f 315 547 548
f 91 512 115
f 547 330 336
f 91 713 88
f 517 88 522
f 552 548 547
f 532 88 713
f 88 532 519
f 552 336 553
f 522 519 541
f 527 231 561
f 127 128 458
f 538 660 692
f 514 36 498
f 224 498 37
f 538 692 695
f 114 626 631
f 553 342 105
f 219 37 39
f 555 660 561
f 127 450 499
f 891 199 824
f 660 555 661
f 218 39 46
f 199 97 886
f 366 98 284
f 22 21 98
f 41 366 581
f 43 232 22
f 907 232 43
f 96 536 907
f 45 463 255
f 45 581 463
f 255 94 96
f 255 96 45
f 94 453 545
f 448 546 545
f 582 593 594
f 595 584 438
f 216 46 47
f 216 47 49
f 551 640 558
f 558 640 569
f 49 288 209
f 793 565 50
f 569 53 558
f 566 50 565
f 209 210 49
f 841 351 350
f 574 52 566
f 578 53 57
f 612 609 423
f 53 578 563
f 575 53 569
f 597 432 211
f 253 55 574
f 57 575 597
f 578 57 592
f 592 583 578
f 627 609 612
f 584 621 628
f 603 589 606
f 602 589 597
f 634 819 627
f 610 606 602
f 835 318 229
f 626 606 58
f 610 624 58
f 58 624 630
f 632 58 630
f 634 884 869
f 58 632 626
f 60 642 632
f 642 60 649
f 60 630 181
f 650 649 643
f 662 652 645
f 656 628 621
f 621 636 656
f 658 659 204
f 64 644 469
f 466 495 138
f 694 377 700
f 468 471 431
f 663 650 65
f 628 656 668
f 679 162 484
f 65 686 663
f 672 673 659
f 686 65 66
f 683 65 651
f 468 431 478
f 683 693 67
f 685 146 684
f 146 685 512
f 696 340 689
f 66 67 701
f 473 495 478
f 66 698 686
f 702 67 693
f 668 675 687
f 701 698 66
f 405 690 54
f 701 67 70
f 54 690 564
f 14 696 348
f 711 70 710
f 699 70 711
f 702 709 710
f 229 318 236
f 657 282 471
f 710 709 742
f 753 756 740
f 756 753 72
f 742 754 72
f 72 754 768
f 72 765 756
f 766 765 770
f 490 193 496
f 130 772 496
f 770 776 766
f 15 719 168
f 87 201 148
f 183 770 768
f 201 194 136
f 422 705 172
f 633 777 338
f 777 633 150
f 408 74 633
f 638 185 408
f 106 730 258
f 688 379 694
f 275 631 118
f 185 692 145
f 197 750 749
f 736 737 738
f 263 258 730
f 738 741 743
f 185 145 143
f 743 741 744
f 744 741 74
f 744 467 879
f 132 140 145
f 123 132 661
f 741 738 150
f 123 540 567
f 773 772 567
f 738 134 150
f 78 27 226
f 238 623 1
f 264 279 779
f 776 150 134
f 134 705 420
f 695 541 538
f 104 599 261
f 365 681 680
f 761 762 763
f 365 678 76
f 76 78 365
f 411 156 420
f 156 411 220
f 541 519 538
f 220 764 156
f 76 233 78
f 80 78 233
f 168 789 387
f 70 699 701
f 398 395 228
f 434 437 445
f 779 780 887
f 428 432 434
f 926 317 706
f 197 749 745
f 213 6 4
f 279 785 780
f 419 427 428
f 148 201 745
f 454 462 419
f 526 782 783
f 381 734 235
f 410 414 419
f 493 769 913
f 511 4 215
f 4 511 213
f 406 414 410
f 208 731 729
f 21 511 215
f 210 728 727
f 794 800 823
f 511 21 529
f 470 474 179
f 724 218 46
f 227 110 115
f 118 280 275
f 219 218 722
f 806 800 794
f 803 804 256
f 716 778 225
f 224 219 720
f 407 86 690
f 356 734 381
f 389 497 380
f 809 795 528
f 810 806 811
f 717 716 514
f 497 501 380
f 317 697 429
f 810 818 821
f 913 771 202
f 341 698 699
f 373 376 159
f 369 177 373
f 341 260 698
f 260 334 266
f 365 226 681
f 517 522 354
f 828 821 818
f 354 362 364
f 569 640 446
f 519 522 88
f 767 828 818
f 266 324 676
f 602 597 211
f 804 834 256
f 121 240 122
f 345 868 918
f 610 602 211
f 169 839 166
f 427 195 211
f 643 179 174
f 683 651 165
f 693 683 171
f 627 884 634
f 324 654 676
f 846 397 841
f 841 397 374
f 362 709 369
f 580 397 846
f 192 188 190
f 192 499 489
f 128 192 190
f 270 205 203
f 205 288 286
f 291 306 126
f 208 148 733
f 288 304 291
f 304 311 306
f 311 481 308
f 286 125 203
f 283 118 297
f 589 599 592
f 283 280 118
f 227 115 120
f 747 805 732
f 707 226 82
f 107 378 80
f 275 114 631
f 118 646 297
f 89 114 275
f 231 233 103
f 87 209 205
f 816 872 870
f 271 108 89
f 248 560 455
f 248 241 560
f 108 271 265
f 566 565 241
f 86 876 690
f 622 244 619
f 517 91 88
f 574 566 248
f 715 662 889
f 244 249 618
f 249 250 614
f 882 465 718
f 253 251 257
f 774 465 882
f 250 259 608
f 883 494 774
f 921 391 560
f 259 267 604
f 54 564 847
f 251 577 583
f 600 267 5
f 89 276 271
f 503 91 517
f 690 405 407
f 275 276 89
f 892 573 582
f 272 278 596
f 248 577 574
f 280 276 275
f 425 588 591
f 425 424 781
f 781 313 572
f 424 313 781
f 572 585 781
f 314 654 324
f 136 197 201
f 313 557 572
f 237 551 558
f 554 331 335
f 334 341 348
f 760 136 138
f 335 344 549
f 341 699 704
f 348 696 334
f 921 319 7
f 358 348 704
f 344 352 544
f 912 582 594
f 903 586 551
f 352 368 543
f 381 370 356
f 368 375 539
f 788 8 3
f 535 375 178
f 221 795 809
f 828 767 562
f 559 833 920
f 921 920 899
f 546 448 898
f 903 922 836
f 38 903 299
f 235 228 395
f 405 669 407
f 546 92 94
f 400 518 520
f 92 546 904
f 639 35 926
f 386 396 525
f 927 926 33
f 928 605 930
f 200 490 298
f 94 545 546
f 96 92 536
f 927 56 852
f 143 472 408
f 220 412 26
f 400 520 521
f 412 220 411
f 109 113 152
f 920 832 559
f 418 412 411
f 152 113 746
f 387 789 786
f 420 418 411
f 746 161 867
f 418 420 422
f 490 773 298
f 496 772 773
f 394 442 445
f 562 767 832
f 739 636 820
f 204 725 658
f 773 490 496
f 725 223 635
f 447 454 428
f 472 186 637
f 215 284 98
f 189 130 496
f 458 464 30
f 410 462 460
f 125 469 464
f 635 247 487
f 487 269 629
f 641 487 629
f 268 269 487
f 269 393 629
f 390 269 268
f 469 126 64
f 349 761 763
f 655 64 477
f 303 674 670
f 290 393 277
f 611 290 928
f 163 474 483
f 928 307 605
f 635 641 648
f 531 605 533
f 677 674 100
f 477 309 485
f 506 202 207
f 679 485 240
f 240 121 684
f 312 912 594
f 684 679 240
f 121 685 684
f 186 187 345
f 503 505 146
f 912 332 892
f 772 130 132
f 685 120 512
f 501 505 159
f 725 648 658
f 505 513 373
f 513 517 364
f 892 847 564
f 110 527 713
f 714 847 339
f 522 541 154
f 51 714 346
f 231 103 540
f 714 51 404
f 541 695 343
f 567 772 123
f 502 500 506
f 578 577 563
f 867 659 673
f 577 578 583
f 597 575 432
f 592 104 583
f 913 492 493
f 845 167 839
f 599 104 592
f 386 178 23
f 599 603 615
f 110 227 378
f 615 261 599
f 706 402 639
f 603 626 114
f 132 123 772
f 624 610 195
f 409 706 317
f 746 673 682
f 114 615 603
f 120 327 227
f 624 414 403
f 691 429 697
f 642 631 632
f 642 118 631
f 429 433 853
f 646 118 642
f 642 649 646
f 152 682 691
f 682 433 691
f 181 643 60
f 654 297 646
f 122 325 121
f 140 130 187
f 421 416 617
f 123 661 555
f 309 308 240
f 698 260 686
f 702 693 177
f 698 701 699
f 672 441 436
f 291 126 125
f 109 691 697
f 143 140 186
f 874 872 816
f 665 441 672
f 188 192 489
f 665 658 653
f 712 704 699
f 653 451 665
f 927 697 317
f 712 740 734
f 648 461 653
f 178 375 19
f 923 880 116
f 641 461 648
f 740 756 748
f 748 758 228
f 926 706 639
f 479 641 482
f 754 742 362
f 354 754 362
f 407 669 38
f 203 458 128
f 482 629 620
f 756 765 758
f 182 754 154
f 128 127 192
f 254 246 252
f 611 382 620
f 764 398 228
f 499 192 127
f 764 766 156
f 766 776 156
f 930 611 928
f 420 156 776
f 140 132 130
f 788 7 8
f 387 166 168
f 420 776 134
f 136 760 197
f 300 387 415
f 750 197 760
f 745 201 197
f 148 208 209
f 733 148 745
f 258 35 106
f 593 533 605
f 731 208 733
f 236 318 910
f 729 210 208
f 728 210 729
f 727 216 210
f 188 489 579
f 929 573 556
f 724 216 727
f 573 929 582
f 723 218 724
f 722 218 723
f 720 219 722
f 717 224 720
f 514 224 717
f 188 579 138
f 876 556 573
f 707 681 226
f 898 904 546
f 472 143 186
f 212 795 221
f 899 391 921
f 854 925 931
f 213 795 212
f 140 143 145
f 404 54 714
f 833 922 924
f 415 387 786
f 143 408 185
f 238 3 793
f 1 3 238
f 31 799 752
f 622 238 244
f 918 799 515
f 380 376 171
f 915 752 357
f 617 476 421
f 619 244 618
f 618 249 616
f 616 249 614
f 636 739 613
f 388 613 10
f 614 250 608
f 357 791 915
f 383 688 388
f 608 259 607
f 571 438 576
f 295 667 666
f 92 96 94
f 607 259 604
f 372 726 700
f 667 295 303
f 367 726 372
f 604 267 601
f 298 295 207
f 923 875 880
f 363 732 367
f 408 467 74
f 148 209 87
f 298 301 295
f 359 747 363
f 601 267 600
f 359 355 755
f 600 272 598
f 598 272 596
f 353 755 355
f 301 298 773
f 596 278 591
f 747 755 751
f 591 278 425
f 588 425 781
f 388 688 813
f 769 771 913
f 763 353 349
f 202 771 200
f 506 500 913
f 74 467 744
f 773 570 301
f 82 708 707
f 320 647 326
f 500 492 913
f 331 554 557
f 242 910 320
f 344 335 340
f 910 908 647
f 554 335 550
f 239 222 703
f 549 550 335
f 549 344 544
f 166 167 168
f 544 352 543
f 543 368 542
f 17 15 167
f 17 845 157
f 907 536 919
f 157 850 155
f 155 850 153
f 542 368 539
f 150 633 74
f 153 854 151
f 151 854 149
f 149 858 147
f 147 862 144
f 539 375 535
f 759 903 38
f 530 535 178
f 144 862 141
f 141 866 139
f 139 866 137
f 530 386 525
f 137 870 135
f 525 396 521
f 135 870 872
f 133 872 131
f 131 874 129
f 129 923 117
f 923 874 875
f 170 119 902
f 521 396 400
f 20 932 101
f 99 101 932
f 99 886 97
f 95 97 199
f 95 891 93
f 93 896 90
f 518 400 786
f 90 896 85
f 85 901 83
f 83 905 81
f 169 166 300
f 81 905 79
f 77 79 796
f 77 909 75
f 439 394 545
f 75 914 73
f 73 914 71
f 71 916 69
f 442 394 439
f 468 466 366
f 442 447 434
f 7 562 920
f 794 534 811
f 924 899 833
f 434 447 428
f 428 454 419
f 419 462 410
f 38 898 759
f 902 111 897
f 466 468 495
f 526 524 534
f 25 59 56
f 96 43 45
f 895 401 61
f 182 343 338
f 483 389 163
f 483 162 389
f 897 59 25
f 883 894 775
f 776 777 150
f 59 897 111
f 380 384 389
f 774 882 893
f 111 902 119
f 778 708 225
f 501 159 380
f 167 166 839
f 159 505 373
f 176 191 867
f 373 513 369
f 364 369 513
f 850 890 925
f 354 364 517
f 354 522 154
f 177 369 709
f 154 541 343
f 446 445 437
f 376 380 159
f 204 223 725
f 217 198 214
f 214 703 222
f 437 569 446
f 610 211 195
f 414 624 195
f 403 630 624
f 889 718 715
f 160 313 424
f 181 630 403
f 888 246 239
f 179 643 181
f 174 650 643
f 651 650 174
f 163 384 165
f 487 247 268
f 165 651 163
f 171 683 165
f 174 474 163
f 557 313 331
f 475 515 799
f 376 693 171
f 285 273 757
f 177 693 376
f 627 885 884
f 174 179 474
f 509 508 516
f 294 302 310
f 709 702 177
f 709 362 742
f 154 754 354
f 182 338 183
f 780 785 803
f 183 768 182
f 423 413 881
f 183 338 777
f 638 338 343
f 633 638 408
f 590 401 895
f 692 185 329
f 190 188 194
f 515 475 25
f 270 190 194
f 190 270 128
f 195 427 414
f 7 788 562
f 915 878 571
f 877 595 438
f 203 205 286
f 44 48 61
f 474 206 483
f 210 209 208
f 61 62 895
f 413 895 62
f 211 432 427
f 172 42 169
f 398 764 220
f 515 263 918
f 437 575 569
f 228 758 764
f 124 885 426
f 175 871 350
f 84 498 327
f 225 514 716
f 327 371 227
f 918 263 730
f 898 448 759
f 371 327 36
f 839 374 890
f 227 371 378
f 451 441 665
f 228 235 748
f 444 180 457
f 233 231 107
f 187 868 345
f 759 448 586
f 189 292 868
f 734 748 235
f 653 461 826
f 924 922 237
f 292 193 196
f 446 671 394
f 461 641 479
f 922 551 237
f 391 237 455
f 482 641 629
f 918 868 799
f 196 200 293
f 771 293 200
f 558 455 237
f 281 287 894
f 894 893 281
f 248 566 241
f 257 251 104
f 255 430 453
f 257 261 265
f 509 775 287
f 260 266 676
f 509 516 524
f 265 261 108
f 523 516 531
f 322 316 523
f 273 252 888
f 265 271 262
f 811 534 316
f 316 315 811
f 676 686 260
f 366 466 581
f 478 495 468
f 330 547 315
f 547 336 552
f 366 471 468
f 760 495 473
f 657 471 284
f 336 342 553
f 553 900 552
f 832 900 553
f 865 878 791
f 792 284 4
f 31 571 576
f 286 288 291
f 438 571 877
f 906 864 863
f 4 790 792
f 8 7 319
f 303 295 301
f 291 304 306
f 570 773 567
f 739 617 392
f 617 416 392
f 306 311 309
f 309 311 308
f 170 628 668
f 613 739 10
f 739 392 10
f 656 675 668
f 656 815 675
f 680 678 365
f 813 613 388
f 324 333 314
f 687 198 668
f 379 688 383
f 295 666 207
f 815 656 636
f 377 694 379
f 325 498 84
f 689 333 266
f 334 696 689
f 700 377 372
f 861 834 860
f 703 721 239
f 732 726 367
f 834 861 256
f 348 341 704
f 747 732 363
f 356 358 704
f 735 888 721
f 370 358 356
f 735 264 757
f 735 273 888
f 755 747 359
f 369 364 362
f 353 763 755
f 647 761 326
f 761 349 326
f 376 373 177
f 779 757 264
f 780 779 279
f 384 380 171
f 235 395 19
f 736 871 737
f 562 788 917
f 910 647 320
f 785 804 803
f 414 406 403
f 256 323 803
f 813 675 815
f 415 786 400
f 427 419 414
f 422 420 705
f 432 428 427
f 430 489 499
f 587 580 590
f 437 434 432
f 445 442 434
f 446 394 445
f 671 586 448
f 819 609 627
f 456 449 450
f 455 563 248
f 865 791 769
f 581 579 463
f 645 652 817
f 644 464 469
f 652 662 715
f 874 923 129
f 715 664 652
f 694 812 688
f 477 64 126
f 750 760 473
f 485 655 477
f 465 715 718
f 507 207 666
f 465 774 494
f 865 486 480
f 812 675 813
f 485 484 655
f 207 202 298
f 883 504 825
f 493 865 769
f 783 782 504
f 679 484 485
f 202 200 298
f 196 490 200
f 196 193 490
f 877 859 476
f 302 803 323
f 189 496 193
f 814 806 810
f 168 719 789
f 821 814 810
f 391 899 924
f 713 527 532
f 467 408 472
f 302 294 887
f 786 787 518
f 538 519 532
f 561 532 527
f 926 35 33
f 538 532 660
f 540 555 561
f 551 586 640
f 319 241 565
f 660 532 561
f 113 161 746
f 161 176 867
f 8 319 565
f 223 247 635
f 781 585 784
f 620 629 393
f 887 780 302
f 269 390 393
f 671 640 586
f 781 784 588
f 599 589 603
f 393 290 611
f 626 603 606
f 928 290 305
f 623 238 622
f 625 1 623
f 774 893 894
f 312 332 912
f 626 632 631
f 332 339 847
f 847 892 332
f 757 887 285
f 847 714 54
f 793 3 8
f 732 807 726
f 858 931 857
f 675 812 687
f 168 167 15
f 273 735 757
f 920 921 7
f 402 385 639
f 167 845 17
f 638 633 338
f 646 649 663
f 650 663 649
f 845 850 157
f 888 239 721
f 663 654 646
f 706 409 48
f 850 854 153
f 676 654 663
f 429 409 317
f 661 692 660
f 854 858 149
f 676 663 686
f 858 862 147
f 433 429 691
f 678 680 677
f 699 711 712
f 712 734 356
f 711 710 753
f 862 866 141
f 712 711 740
f 682 436 827
f 734 740 748
f 866 870 137
f 214 687 808
f 748 756 758
f 664 816 652
f 872 133 135
f 198 687 214
f 754 182 768
f 872 874 131
f 665 659 658
f 758 765 766
f 658 648 653
f 766 764 758
f 776 770 777
f 668 198 170
f 117 923 116
f 787 786 789
f 929 330 822
f 533 822 322
f 556 336 330
f 531 322 523
f 899 920 833
f 662 444 889
f 346 323 256
f 491 482 620
f 116 880 911
f 911 20 116
f 382 491 620
f 911 932 20
f 932 886 99
f 645 443 662
f 930 382 611
f 382 930 516
f 886 824 199
f 605 531 930
f 491 508 848
f 628 170 902
f 256 347 346
f 482 848 479
f 891 896 93
f 347 256 861
f 820 617 739
f 866 819 817
f 605 594 593
f 896 901 85
f 929 593 582
f 612 881 885
f 901 905 83
f 826 451 653
f 451 457 180
f 672 659 665
f 441 180 851
f 79 905 796
f 436 673 672
f 436 851 827
f 909 914 75
f 682 673 436
f 914 916 71
f 584 902 897
f 876 86 342
f 69 916 1
f 829 433 827
f 700 808 694
f 788 3 916
f 853 829 417
f 409 61 48
f 402 48 855
f 870 817 816
f 855 29 360
f 874 816 664
f 385 361 102
f 830 880 875
f 576 897 25
f 819 634 817
f 68 69 1
f 106 856 730
f 743 736 738
f 910 242 236
f 862 857 819
f 744 879 102
f 880 830 831
f 840 528 843
f 401 846 44
f 803 302 780
f 769 791 357
f 878 915 791
f 831 911 880
f 918 873 345
f 576 25 475
f 799 31 475
f 841 29 846
f 879 856 102
f 106 639 385
f 573 564 876
f 911 831 802
f 342 556 876
f 337 339 332
f 25 510 515
f 350 29 841
f 564 573 892
f 892 582 912
f 510 25 56
f 864 906 837
f 312 328 337
f 929 822 593
f 33 35 258
f 871 360 29
f 840 860 835
f 864 158 863
f 29 855 44
f 916 914 917
f 808 687 812
f 594 307 312
f 307 305 328
f 916 917 788
f 33 56 927
f 840 835 809
f 307 594 605
f 736 743 361
f 531 516 930
f 290 277 305
f 852 109 927
f 318 835 860
f 21 844 529
f 852 59 112
f 620 393 611
f 102 743 744
f 112 113 852
f 751 763 762
f 647 785 762
f 805 747 751
f 252 268 254
f 230 835 229
f 487 641 635
f 637 879 467
f 124 851 164
f 809 230 221
f 161 142 176
f 807 732 805
f 247 234 254
f 230 809 835
f 808 700 807
f 345 637 186
f 176 184 191
f 812 694 808
f 204 849 223
f 849 204 191
f 813 688 812
f 635 648 725
f 849 184 198
f 815 613 813
f 815 636 613
f 217 223 849
f 659 191 204
f 217 234 223
f 191 184 849
f 859 480 421
f 795 213 511
f 245 461 243
f 878 865 859
f 802 886 932
f 191 659 867
f 452 718 889
f 223 234 247
f 176 142 184
f 246 254 234
f 865 493 486
f 293 771 357
f 268 247 254
f 771 769 357
f 805 264 735
f 268 252 390
f 161 113 112
f 486 493 488
f 390 252 274
f 867 673 746
f 264 751 279
f 274 277 390
f 746 682 152
f 281 848 287
f 827 433 682
f 808 703 214
f 152 691 109
f 109 852 113
f 476 859 421
f 296 305 277
f 476 595 877
f 305 307 928
f 196 293 292
f 595 476 820
f 726 807 700
f 752 293 357
f 307 328 312
f 310 328 305
f 56 59 852
f 292 752 799
f 328 310 323
f 886 825 824
f 312 337 332
f 807 703 808
f 891 824 782
f 193 292 189
f 844 21 22
f 429 853 409
f 109 697 927
f 56 33 510
f 105 559 553
f 339 337 346
f 346 714 339
f 51 346 347
f 317 926 927
f 564 690 876
f 863 844 232
f 799 868 292
f 510 33 258
f 843 528 529
f 844 863 842
f 861 840 843
f 861 158 347
f 861 860 840
f 752 915 31
f 158 843 842
f 843 158 861
f 842 529 844
f 919 837 906
f 906 232 907
f 809 528 840
f 730 873 918
f 730 856 873
f 873 856 879
f 856 106 385
f 817 634 645
f 837 919 838
f 817 652 816
f 919 906 907
f 919 536 537
f 743 102 361
f 904 669 838
f 898 669 904
f 669 898 38
f 703 807 721
f 405 404 838
f 669 405 838
f 922 833 836
f 294 285 887
f 361 385 402
f 869 645 634
f 830 875 664
f 916 3 1
f 864 51 347
f 402 855 361
f 909 801 914
f 397 890 374
f 48 44 855
f 796 909 77
f 879 637 873
f 901 798 905
f 580 925 397
f 48 402 706
f 896 800 901
f 891 823 896
f 409 62 61
f 853 62 409
f 881 413 417
f 417 62 853
f 86 407 299
f 459 893 882
f 199 891 95
f 830 465 831
f 829 426 417
f 426 829 124
f 426 881 417
f 124 829 827
f 433 829 853
f 886 802 825
f 774 894 883
f 851 124 827
f 164 884 124
f 441 851 436
f 180 164 851
f 443 869 164
f 911 802 932
f 715 830 664
f 874 664 875
f 736 361 360
f 451 180 441
f 457 452 889
f 889 444 457
f 866 817 870
f 106 35 639
f 459 718 452
f 826 452 457
f 452 826 245
f 451 826 457
f 862 819 866
f 858 857 862
f 461 245 826
f 459 882 718
f 479 243 461
f 854 931 858
f 850 925 854
f 846 401 580
f 845 890 850
f 491 848 482
f 848 281 479
f 825 494 883
f 382 508 491
f 900 832 767
f 508 287 848
f 896 823 800
f 839 890 845
f 504 782 824
f 42 374 839
f 516 508 382
f 908 910 318
f 534 524 523
f 552 818 548
f 42 172 173
f 901 800 798
f 818 552 900
f 533 322 531
f 871 175 737
f 868 187 189
f 22 232 844
f 593 822 533
f 822 315 316
f 929 556 330
f 330 315 822
f 838 919 537
f 904 838 537
f 318 860 834
f 908 318 834
f 465 830 715
f 556 342 336
f 105 836 559
f 833 559 836
f 29 44 846
f 908 834 804
f 562 917 828
f 299 836 105
f 818 900 767
f 832 553 559
f 562 832 920
f 811 315 548
f 828 801 821
f 801 828 917
f 821 797 814
f 836 299 903
f 401 590 580
f 797 821 801
f 905 798 796
f 796 814 797
f 810 548 818
f 814 798 806
f 798 814 796
f 909 796 797
f 811 548 810
f 413 587 590
f 404 51 837
f 51 864 837
f 837 838 404
f 909 797 801
f 529 842 843
f 158 842 863
f 232 906 863
f 800 806 798
f 529 528 511
f 794 811 806
f 785 908 804
f 785 647 908
f 859 877 878
f 526 534 794
f 877 571 878
f 571 31 915
f 173 351 42
f 524 783 509
f 350 173 175
f 29 350 871
f 823 526 794
f 783 524 526
f 526 823 782
f 42 351 374
f 841 374 351
f 504 775 783
f 509 783 775
f 782 823 891
f 885 124 884
f 887 757 779
f 914 801 917
f 426 885 881
f 890 397 925
f 825 504 824
f 775 504 883
f 925 587 931
f 587 925 580
f 802 494 825
f 785 279 762
f 494 831 465
f 831 494 802
f 894 287 775
f 590 895 413
f 438 897 576
f 884 164 869
f 762 279 751
f 423 931 587
f 587 413 423
f 931 423 857
f 762 761 647
f 617 820 476
f 595 820 621
f 751 755 763
f 893 459 243
f 751 264 805
f 609 857 423
f 423 881 612
f 662 443 444
f 721 805 735
f 621 584 595
f 857 609 819
f 443 645 869
f 612 885 627
f 636 621 820
f 628 902 584
f 805 721 807
