# avbd fit, rung f600-i32-s300-nosim of Gate 6d (body space, fit phase only)
v -0.020018023 0.591036379 0.006669899
v -0.109356210 0.592332006 0.062459201
v -0.019281952 0.610815287 0.009292895
v 0.004183429 0.927585125 0.069769956
v -0.160438150 0.577403545 0.049814962
v 0.024563428 0.929872394 0.069119938
v -0.015832353 0.642085195 0.005681334
v -0.012986039 0.624690890 -0.001023752
v -0.162714809 0.597760916 0.051290143
v 0.140005797 0.951404750 -0.100775979
v -0.183426976 0.586978674 0.054563202
v -0.181119144 0.588761032 0.031012710
v -0.192830175 0.588282466 0.012288587
v -0.152937546 0.592302620 -0.065541774
v 0.013464518 0.586247563 -0.006277204
v -0.146148115 0.581892192 -0.082797006
v 0.033538777 0.587456703 0.000380801
v -0.126208976 0.576222897 -0.085849449
v -0.102914847 0.586689472 -0.094027169
v 0.185449421 0.529719532 -0.000709729
v 0.001265021 0.888077438 0.066706955
v 0.000101907 0.868613720 0.064382285
v -0.112979665 0.588802934 -0.075404584
v -0.093622997 0.598377585 -0.070878617
v 0.095571429 0.823481917 -0.118650749
v -0.074901596 0.611612320 -0.065780215
v -0.139232174 0.903769791 -0.132214397
v -0.139287397 0.794135571 0.072347954
v 0.031427555 0.691370368 -0.045692582
v -0.156157821 0.805077255 0.066153832
v 0.067910314 0.856044769 -0.145519480
v -0.192128018 0.778006136 0.044982508
v 0.078189582 0.781007051 -0.105418704
v -0.183462650 0.586196244 -0.035175703
v 0.059122425 0.770324171 -0.099513344
v -0.157946378 0.908331573 -0.100220576
v -0.173348516 0.900386989 -0.053925969
v 0.012934871 0.753563702 -0.005172916
v -0.171255678 0.897474885 -0.030791927
v -0.079941317 0.905695796 -0.148000300
v -0.031119194 0.875675082 0.064211912
v 0.012074871 0.649951160 -0.010852001
v -0.020024996 0.852176547 0.057607748
v 0.039571956 0.688111246 -0.073534325
v -0.043192312 0.855061233 0.055042677
v -0.189154193 0.908502698 -0.021067487
v -0.190688878 0.893878639 0.003457249
v 0.050922476 0.710323811 -0.085275486
v -0.167267308 0.890139461 0.011181901
v -0.051495135 0.607962668 0.015431868
v 0.055485975 0.816151917 0.054005940
v -0.063476153 0.599024653 0.034829061
v -0.071011536 0.695743382 0.057572316
v 0.045531075 0.771831334 0.052535385
v -0.081839398 0.592366874 0.050181646
v 0.098571524 0.795460820 -0.111391880
v -0.097735263 0.689815521 0.067790918
v -0.172652170 0.695564210 0.059643071
v 0.115778998 0.807609677 -0.126320660
v -0.198285326 0.692444921 0.031950139
v 0.063909180 0.688856304 -0.084311694
v 0.086880364 0.682299078 -0.091670647
v -0.202608496 0.789802313 0.025080547
v -0.197330520 0.812845886 0.023535848
v -0.203302890 0.692050278 -0.037826858
v -0.186046228 0.687039971 -0.059447087
v -0.173780918 0.701306701 -0.076048046
v -0.014509410 0.569335461 0.001049278
v 0.010008791 0.570631683 0.001945305
v -0.149421290 0.689368010 -0.084716946
v 0.030466374 0.569983661 -0.002611635
v -0.112605013 0.703618407 -0.110399842
v 0.047637623 0.565930247 -0.003247788
v -0.025443742 0.764004767 -0.056428861
v 0.060326923 0.558974147 0.006888432
v -0.100772545 0.907022357 -0.142489687
v 0.069522910 0.551359773 0.020338835
v -0.119271755 0.908081651 -0.134089306
v 0.078561857 0.544399559 0.034106452
v -0.126220793 0.888708889 -0.132976308
v 0.093029298 0.539856613 0.045654543
v -0.139214247 0.921556950 -0.115895294
v 0.110695556 0.536903441 0.054325290
v -0.173520014 0.864447951 -0.081885941
v 0.130428061 0.537264168 0.060643084
v 0.035641965 0.730811179 0.027632544
v -0.158327520 0.891308427 0.053647935
v -0.114504993 0.806090355 -0.116019979
v -0.160270780 0.628780007 0.056695055
v 0.150054678 0.546504855 0.063776687
v -0.136207774 0.814781845 -0.110371865
v -0.023606798 0.815283775 0.021843497
v 0.164124891 0.547035992 0.042811874
v -0.035322670 0.808077216 0.043367457
v 0.146430716 0.535174012 0.051066358
v -0.026220050 0.831480801 0.045130797
v 0.163875908 0.534588873 0.055609662
v -0.018778704 0.896471500 0.066969626
v 0.170432568 0.532675385 0.035292275
v -0.069923416 0.926424503 -0.141269714
v 0.179956868 0.530835450 0.018028427
v 0.023816112 0.767462373 -0.050909799
v -0.091183834 0.884508729 -0.146840930
v -0.108781673 0.643820822 0.068464130
v 0.032958612 0.709396005 0.017445456
v 0.039241113 0.773328662 -0.093844905
v -0.121189021 0.868162155 -0.135637313
v -0.140691802 0.625464320 0.065326914
v 0.118309595 0.757517576 -0.115390517
v -0.131808549 0.854065776 -0.121987022
v 0.126336336 0.822941601 -0.114021994
v 0.135697275 0.798689485 -0.109900311
v 0.135441497 0.772307217 -0.107991651
v -0.165768236 0.650281250 0.056591205
v -0.140850574 0.839619994 -0.106560431
v 0.191625699 0.529233515 -0.018860791
v 0.182392448 0.534659863 -0.032325663
v -0.190013051 0.638038397 0.030928263
v 0.145907998 0.821598530 -0.105769575
v -0.160559803 0.850326896 -0.097539261
v -0.187352628 0.847559094 -0.066299208
v -0.190261975 0.861258686 -0.048410457
v -0.055868842 0.845515728 -0.141319543
v 0.142025322 0.670877635 -0.083980806
v -0.174108341 0.838343441 0.047038760
v -0.190313295 0.834827721 0.024957474
v -0.123063549 0.832982183 0.068701528
v -0.138166726 0.849932790 0.059513409
v 0.174683049 0.539251745 -0.047818743
v -0.018537929 0.839058578 -0.123042867
v 0.163585871 0.544641614 -0.061218262
v -0.039437383 0.832215965 -0.126395300
v 0.142611325 0.547780812 -0.067861535
v -0.029894713 0.701919675 -0.045005478
v 0.154585049 0.538039505 -0.075332746
v -0.117768861 0.899652481 0.044578705
v 0.141030788 0.547649086 -0.084841430
v -0.096216075 0.900560021 0.054907382
v 0.126967773 0.552441239 -0.072710261
v -0.021159856 0.819860935 -0.107665993
v 0.107758239 0.556256056 -0.069021121
v 0.160608262 0.807116866 -0.099099472
v -0.028324703 0.810484231 -0.084673204
v 0.113692045 0.543217421 -0.079035282
v -0.042996973 0.814042568 -0.110173538
v -0.177818686 0.809570313 -0.091273226
v 0.097756520 0.542565525 -0.066056088
v -0.159426227 0.914906383 0.041328840
v 0.083014622 0.548739493 -0.056997858
v -0.029006232 0.730844200 -0.058590747
v 0.070389435 0.554532945 -0.045699351
v 0.134611934 0.749691069 -0.104470886
v 0.063181005 0.561933696 -0.031214949
v -0.103786394 0.761085987 -0.111159645
v 0.055998147 0.571637094 -0.019006129
v -0.058112711 0.665603757 -0.075078472
v 0.048012435 0.583514214 -0.008437890
v 0.054822087 0.857587993 0.054700632
v -0.181538552 0.770326912 -0.082753591
v -0.202511698 0.592029929 -0.022165341
v 0.154465452 0.782244802 -0.100558951
v -0.207984447 0.787922800 -0.035328634
v -0.209884450 0.745159328 -0.025930500
v 0.164046124 0.660952210 -0.072901070
v -0.202962786 0.731137872 -0.046020292
v -0.015768383 0.619465947 -0.018709380
v 0.017802045 0.605756938 -0.010805716
v -0.014700334 0.603586078 -0.007044160
v -0.016814221 0.638184667 -0.012586614
v 0.165880769 0.835556507 -0.096381895
v -0.191174850 0.738062024 -0.063446544
v -0.014908264 0.655686855 -0.017994881
v -0.016269280 0.674779356 -0.015568214
v -0.209580630 0.726731420 -0.004923281
v -0.016170627 0.694278955 -0.020686947
v 0.173334584 0.790118158 -0.092912726
v -0.161169738 0.736518323 -0.089740708
v -0.115476809 0.562545538 -0.073309943
v -0.205545813 0.737217486 0.023847295
v 0.185475498 0.677627146 -0.077247120
v -0.199238390 0.715371490 0.034104474
v -0.086583816 0.743243039 -0.104296468
v -0.070018008 0.727537632 -0.095970862
v 0.181450397 0.811990619 -0.085217789
v -0.042789459 0.795300841 -0.095741458
v -0.002164670 0.817128778 -0.086364157
v -0.000477522 0.827788174 -0.104427442
v -0.104155362 0.876130402 0.049757477
v 0.000404262 0.842854142 -0.117350981
v -0.126141295 0.867022634 0.055399261
v 0.186097935 0.782479942 -0.077068850
v -0.111280940 0.853243351 0.064388752
v 0.000749493 0.860472322 -0.127643704
v -0.134030610 0.883715451 0.044365831
v -0.155241579 0.726505160 0.068551213
v 0.000653646 0.879319072 -0.131719366
v -0.127586558 0.919827759 0.037986748
v 0.186466530 0.838608563 -0.071047977
v 0.156689569 0.564673424 0.049699374
v -0.000378588 0.898846924 -0.132003576
v -0.139691874 0.905841172 0.045817576
v -0.001035322 0.918689251 -0.130642056
v -0.161303490 0.854090214 0.063624270
v 0.196794331 0.772085905 -0.058224630
v -0.151185721 0.871450424 0.047306441
v -0.210831091 0.779573083 0.004034974
v -0.001809926 0.938446999 -0.127154589
v -0.141563997 0.913955569 0.028445100
v -0.147957906 0.893271267 0.029614363
v -0.154953092 0.909927845 0.007522502
v -0.134357929 0.719820499 0.075769879
v 0.041514367 0.946374416 0.068957262
v 0.023782348 0.948028743 0.069759816
v 0.192832887 0.855756581 -0.046279669
v 0.002564945 0.907607198 0.068753958
v -0.170310169 0.902382195 -0.008573631
v 0.201224238 0.823733211 -0.047365949
v -0.170772851 0.917296112 -0.022965036
v -0.171898156 0.921891987 -0.042015564
v -0.070758969 0.638906360 -0.071605451
v 0.058880705 0.945772052 0.064620696
v 0.199966371 0.837825894 -0.026903868
v 0.207523704 0.788827777 -0.040053360
v -0.168824241 0.923894405 -0.063505955
v -0.150102198 0.933096528 -0.100884929
v -0.129669860 0.928404450 -0.134499893
v -0.150772542 0.864319623 -0.113775909
v -0.103778973 0.638401091 -0.087012440
v 0.092894390 0.941090763 0.054021131
v 0.076188929 0.944279373 0.060317297
v -0.101002432 0.864353836 -0.142064258
v -0.000442869 0.850252748 0.056892503
v -0.109124102 0.886518300 -0.140280575
v 0.205478743 0.810213685 -0.023719503
v -0.109238163 0.620469213 -0.101228431
v 0.108729303 0.940362275 0.063782856
v -0.031082863 0.698241234 0.011196197
v -0.045762967 0.598090589 -0.006841471
v 0.199238628 0.847427964 -0.006496052
v -0.199306011 0.837618828 -0.040834166
v -0.045239583 0.644076765 0.019120313
v 0.108159721 0.936893821 0.046333339
v 0.204373032 0.677962005 -0.007371861
v -0.058152467 0.582220018 0.016478900
v 0.210329980 0.679178596 -0.027504066
v 0.203906685 0.824623406 -0.004540946
v 0.209785268 0.783321261 -0.012537685
v -0.054279663 0.652485847 0.037411474
v -0.071830988 0.571178555 0.039104648
v -0.096219942 0.568974733 0.053121280
v -0.089730792 0.633634329 0.059446722
v 0.201576114 0.808573067 0.019586887
v -0.091676399 0.611499786 0.057407074
v 0.208703160 0.802380741 -0.001689835
v -0.051343005 0.832586646 0.047684960
v 0.093229935 0.845411181 0.076434411
v -0.109508671 0.619993806 0.066502050
v 0.058746547 0.790719628 -0.100269124
v -0.120894112 0.566787601 0.064112522
v -0.184873849 0.646240234 -0.052054178
v -0.125787348 0.632730603 0.076383457
v -0.138989881 0.588411927 0.061562859
v 0.056516461 0.812472999 -0.097342089
v 0.169845268 0.866864085 0.031058315
v -0.128506154 0.608595788 0.071945883
v -0.188174427 0.627045691 -0.040548097
v -0.146304637 0.567040682 0.062757835
v 0.210008949 0.783906460 0.012873526
v 0.204518914 0.764494061 0.024865579
v -0.143760189 0.873327255 0.067867406
v -0.148945272 0.610015869 0.059435885
v -0.175457180 0.561938286 0.057413954
v 0.189511895 0.827100456 0.029549148
v 0.188407406 0.803392589 0.043020401
v -0.183866560 0.632400990 0.056867093
v -0.172922552 0.610749483 0.064730316
v 0.185465395 0.780178964 0.057528056
v -0.175433591 0.566388130 0.035378862
v 0.157743946 0.873941779 0.052515693
v -0.179879993 0.612147927 0.041933984
v 0.203032345 0.670831561 0.014469750
v -0.051321149 0.952495396 0.066042945
v -0.190512896 0.611048758 0.020470537
v -0.021621071 0.923924625 0.068856582
v 0.177027330 0.822028995 0.050758880
v -0.166160375 0.858056366 0.042550307
v 0.192269295 0.664208293 0.034674224
v -0.166423976 0.874794841 0.028780874
v -0.193220094 0.603993535 -0.002005206
v 0.176595792 0.758337379 0.063465402
v -0.180269390 0.855041504 0.026578000
v 0.020966636 0.855192542 -0.134006694
v 0.022228930 0.882434666 -0.139676705
v 0.159303442 0.818030000 0.063566752
v -0.028864289 0.936379135 -0.134052679
v 0.171312422 0.799606562 0.063423932
v -0.197180346 0.628347516 0.005238696
v -0.020620514 0.911185145 -0.138470173
v 0.022875169 0.732510805 0.003652045
v -0.038290031 0.633210719 -0.018042225
v -0.042955481 0.916259170 -0.142826051
v 0.139692113 0.829570115 0.066613644
v -0.051961839 0.938521028 -0.136185259
v -0.182208210 0.871597111 0.010323657
v 0.157171950 0.776129723 0.069752209
v -0.195612282 0.851254284 0.009603473
v 0.136617035 0.757543921 0.075879604
v -0.191296533 0.862113297 -0.025908479
v -0.199753076 0.843922436 -0.013053680
v 0.144535378 0.803755462 0.070094809
v -0.200815111 0.869662762 -0.005331027
v 0.113541067 0.767931461 0.080312707
v -0.195813417 0.564145923 -0.030783951
v -0.195626810 0.617504656 -0.017673910
v 0.095685579 0.666421413 0.065475330
v 0.117889963 0.662512183 0.074245989
v 0.084502004 0.736153126 -0.102567807
v 0.102386691 0.910089612 0.070631728
v -0.033542275 0.644239962 -0.002950956
v 0.124170996 0.935012698 0.040503506
v -0.182166621 0.880323887 -0.039617907
v 0.127648070 0.683324516 0.077211171
v 0.115671352 0.817904174 0.075323150
v -0.207106158 0.627937555 -0.030760834
v -0.179114357 0.876793742 -0.061766367
v 0.140063152 0.933150768 0.045986198
v -0.161884427 0.879685879 -0.098863259
v 0.129505724 0.785636663 0.076296277
v -0.061873280 0.788319945 -0.101466559
v 0.082279719 0.691022992 0.062126815
v -0.174115628 0.564365029 -0.045026213
v 0.091309540 0.771366417 0.071307428
v -0.198129088 0.606883883 -0.037964594
v -0.182870418 0.624335885 -0.063527577
v -0.155524164 0.567453384 -0.061633267
v 0.058448154 0.688567519 0.052179955
v 0.103049837 0.792782187 0.077064544
v -0.058119781 0.748349249 -0.096368626
v 0.081506804 0.789203286 0.068032309
v -0.171444952 0.584420800 -0.055429734
v -0.167291045 0.642268717 -0.069343939
v 0.045728497 0.708656669 0.039883222
v -0.076681986 0.768378139 -0.104447186
v -0.164590538 0.571563542 -0.079275630
v 0.017882137 0.815914035 -0.095276102
v 0.083818533 0.814945221 0.068147533
v 0.070386395 0.838359237 0.059539627
v -0.160570011 0.618286014 -0.067368492
v 0.120763600 0.918055058 0.041629009
v 0.019218965 0.686978638 -0.019385749
v 0.021940691 0.666937232 -0.016835231
v -0.136860088 0.567323804 -0.068813764
v 0.134738311 0.923290253 0.032788910
v -0.120599210 0.758052051 -0.127085283
v 0.145197958 0.927995503 0.018979559
v -0.125882551 0.622959197 -0.079237789
v 0.044127796 0.892414927 -0.145355061
v -0.144738689 0.610091567 -0.080781378
v 0.155255944 0.930450082 0.004229647
v 0.027484721 0.716746807 -0.042430855
v 0.027366016 0.739389300 -0.054226033
v -0.138636261 0.741662621 -0.118803069
v 0.165571913 0.929661870 -0.010639098
v -0.131602675 0.761879385 -0.108158924
v -0.108218908 0.928205848 -0.131776571
v -0.044618420 0.904432297 0.066119276
v 0.169512004 0.933593452 -0.029177379
v -0.139872387 0.554027021 -0.087881997
v -0.146813884 0.750576138 -0.099146374
v -0.130973250 0.597043216 -0.073261105
v -0.147859186 0.892359912 -0.114650689
v 0.162712172 0.946536899 -0.014274095
v -0.164853022 0.760499120 -0.092310652
v 0.036766753 0.646683991 -0.021491285
v -0.113981977 0.554258645 -0.093330003
v -0.180196553 0.748134673 -0.080434218
v 0.163395256 0.949163556 -0.032261163
v -0.140093401 0.876560032 -0.128342837
v 0.160953671 0.950900912 -0.050458916
v -0.192761585 0.766230524 -0.064078793
v -0.126328140 0.604224026 -0.091339558
v 0.182491601 0.708067179 0.057459187
v 0.157009929 0.952367783 -0.068285428
v -0.202874213 0.750334799 -0.050112955
v 0.031306557 0.757203579 -0.074876621
v -0.098018289 0.573140502 -0.067441121
v -0.032363601 0.605159402 -0.023305707
v 0.148998201 0.952358603 -0.084769540
v -0.208083719 0.768869996 -0.043034337
v 0.197668701 0.783301234 0.034827612
v -0.029219877 0.678708971 0.003096679
v 0.127187520 0.948176384 -0.113150857
v 0.194745749 0.755599022 0.045906536
v -0.058516949 0.767421842 0.057325583
v -0.108811915 0.610048175 -0.081252396
v -0.077788278 0.582963407 -0.058778308
v 0.042315971 0.642315030 -0.046414964
v -0.088891372 0.624308646 -0.076187499
v -0.054547291 0.605044186 -0.058598381
v -0.057879232 0.583491027 -0.044583265
v 0.055242646 0.667473137 -0.074284852
v 0.035605170 0.732290924 -0.082571656
v -0.192121997 0.730348885 0.050529260
v 0.036775403 0.792956650 0.046579383
v 0.031079596 0.774447739 0.028735783
v -0.194033518 0.754254937 0.047622234
v 0.027412573 0.753479302 0.015719086
v -0.030381743 0.785370052 -0.072610810
v 0.079141818 0.709400475 -0.094845131
v -0.176359519 0.768192828 0.063152306
v -0.051517822 0.647223353 -0.066321708
v -0.058724739 0.626601994 -0.062659077
v 0.092326313 0.651699185 -0.084738329
v -0.171537340 0.743949056 0.064470038
v -0.047703508 0.616137207 -0.037927978
v 0.126874313 0.951421440 -0.130344018
v 0.107059598 0.671455264 -0.096629724
v -0.041656520 0.633752346 -0.053855233
v -0.150742143 0.761137605 0.070963316
v -0.037010785 0.669146180 -0.056215994
v 0.112054788 0.951308608 -0.120206699
v -0.038510513 0.648940146 -0.033619214
v 0.102965549 0.622759938 -0.081885204
v -0.189420208 0.581036448 -0.008314216
v -0.185275257 0.564861834 0.014069458
v 0.126740128 0.664907932 -0.100016430
v -0.140507936 0.741160095 0.074641757
v -0.122502565 0.755795598 0.080083504
v 0.102431275 0.720171690 -0.105018690
v -0.072954126 0.834227681 0.061742008
v -0.070389211 0.952405930 0.061099071
v -0.110115632 0.731808305 0.075913772
v 0.124714993 0.710695803 -0.101332143
v -0.097671911 0.753542125 0.072411738
v -0.082693204 0.812876523 0.067080908
v 0.162785873 0.715182185 -0.083894953
v -0.082374580 0.734894872 0.065097362
v 0.112448692 0.867083907 -0.138261735
v -0.068777129 0.789995849 0.062386639
v -0.094144121 0.793370783 0.072852224
v 0.182936326 0.703819394 -0.081582434
v -0.084100842 0.772973657 0.067902796
v 0.174928218 0.640929341 -0.078560039
v 0.187825352 0.653885782 -0.067679331
v -0.075752415 0.754410684 0.063728586
v -0.057234086 0.743092000 0.055623539
v -0.107397780 0.774202466 0.077431157
v -0.027196992 0.767685056 0.017447788
v -0.118275359 0.794269919 0.077823594
v -0.107330084 0.814332783 0.077691749
v 0.186802298 0.697170973 -0.059841134
v 0.198130742 0.663653314 -0.036008298
v -0.058349021 0.810222626 0.055143218
v -0.132644325 0.776121736 0.076208748
v -0.043188602 0.678509295 0.026796827
v -0.132716134 0.812694192 0.071412183
v 0.187153906 0.671730042 -0.054268651
v -0.151597947 0.829196751 0.063272223
v 0.209083885 0.656659722 -0.018927883
v -0.177981228 0.792154908 0.062210061
v 0.207897589 0.705710948 -0.021287836
v -0.156813338 0.782440543 0.069146924
v -0.069050059 0.855606437 0.051050656
v -0.174464688 0.815675080 0.057883870
v 0.194899350 0.612045884 -0.016279830
v -0.071929336 0.902534127 0.062061083
v -0.007629684 0.795383751 -0.051171251
v -0.068017885 0.926991284 0.063178323
v -0.184661627 0.820333302 0.039267220
v -0.204262495 0.764660180 0.024912413
v -0.046209455 0.931853771 0.067502253
v -0.004099341 0.808213353 -0.067795090
v -0.106701136 0.947054684 0.046206195
v -0.211076826 0.753307104 0.000970052
v 0.074293025 0.834841728 -0.134389743
v 0.121008076 0.914199233 -0.131082371
v -0.203807160 0.828748226 0.006222297
v -0.089206219 0.950685322 0.054784171
v 0.207210541 0.699343622 0.004972817
v 0.104398511 0.951790452 -0.136320263
v -0.182312503 0.882701039 -0.016485095
v 0.204954505 0.716000378 0.022528095
v -0.210173368 0.770762801 -0.018733231
v -0.208959416 0.796083450 -0.016386122
v -0.204046369 0.820259094 -0.017201176
v 0.089159958 0.949581742 -0.126750365
v 0.210913256 0.759485424 0.003954433
v 0.071351491 0.953002810 -0.126936331
v -0.087895177 0.856993377 0.067173436
v -0.015798222 0.884708107 -0.137352094
v 0.195517540 0.705187738 0.040685944
v 0.053187083 0.955783248 -0.126286596
v 0.061157912 0.937516034 -0.136491790
v 0.192071512 0.600358129 0.008717848
v -0.090036467 0.924841702 0.057312716
v -0.017738424 0.861059308 -0.134621143
v -0.200134128 0.791043162 -0.056103349
v -0.167640880 0.896817088 -0.079083443
v -0.096563548 0.834889412 0.072917596
v 0.035113003 0.957343936 -0.125330895
v -0.187929437 0.791310191 -0.076295964
v 0.016586374 0.957833946 -0.122887239
v -0.153884172 0.799554706 -0.102371156
v 0.176293686 0.611527979 0.047012560
v -0.170556903 0.784927249 -0.094032891
v 0.015596502 0.943066716 -0.129099011
v -0.002301405 0.957623124 -0.120733917
v 0.188548714 0.683865905 0.049603481
v 0.181391954 0.658873439 0.056952108
v 0.077638663 0.806299567 -0.104928769
v 0.023239587 0.909808338 0.068204597
v -0.159341231 0.824665189 -0.100601360
v -0.149802700 0.774576783 -0.101993956
v -0.160637170 0.926917255 -0.083561473
v 0.063393630 0.820506275 -0.118878148
v 0.165675789 0.682848334 0.061509103
v -0.130211219 0.786532104 -0.111814022
v -0.057818592 0.569267631 -0.022217518
v -0.096909389 0.799109101 -0.127531737
v -0.065108523 0.560773909 -0.036433265
v -0.073174462 0.552976489 -0.051065929
v -0.111616671 0.781682730 -0.128314644
v 0.142578378 0.668749034 0.069114327
v 0.157516778 0.650359035 0.060481418
v -0.088930719 0.549619973 -0.060090691
v 0.150026575 0.621777296 0.060680546
v -0.114119232 0.846134305 -0.133284211
v 0.046971098 0.904181361 0.065916032
v 0.029938897 0.888216972 0.065679543
v -0.092947036 0.548936367 -0.077677570
v 0.145327061 0.696689010 0.070876852
v -0.104634121 0.822553933 -0.135503531
v 0.125578269 0.703563571 0.078732818
v 0.133861840 0.641654313 0.070346378
v -0.105262101 0.537693024 -0.071341895
v -0.003224996 0.818431079 0.032372285
v -0.004008610 0.808749497 0.013971669
v -0.093924634 0.811125576 -0.109702587
v -0.116775058 0.528554082 -0.083303630
v -0.077374190 0.860869110 -0.146532163
v -0.098216265 0.785651267 -0.111381099
v -0.134700432 0.530092597 -0.086792007
v -0.120937705 0.544380069 -0.077514037
v -0.140330181 0.539748132 -0.073511042
v -0.039338231 0.783582807 0.048346043
v -0.025264245 0.791802108 0.021821313
v 0.075667910 0.672010779 0.057751901
v 0.079854719 0.649311304 0.057372324
v -0.160451517 0.539848685 -0.074587435
v -0.148462608 0.551756084 -0.064734712
v -0.030133706 0.720535457 0.014668606
v 0.058729507 0.665364265 0.049280830
v 0.043979891 0.685191512 0.030479634
v -0.166550905 0.546643853 -0.059094351
v -0.073236421 0.837365627 -0.137551397
v 0.065190129 0.709923506 0.056895882
v -0.175992936 0.539855063 -0.044123411
v -0.046089109 0.702773929 0.038211994
v 0.029935513 0.688481450 0.007358310
v -0.037654541 0.661300778 0.012403203
v -0.092734732 0.842714310 -0.139293164
v 0.030927440 0.642815232 0.002878835
v -0.057515167 0.675752699 0.049228363
v 0.057882667 0.750989795 0.056734174
v -0.042740237 0.626499534 0.010166220
v -0.054550923 0.624807239 0.029665057
v -0.054815203 0.871037781 -0.147525609
v -0.071691051 0.883957863 -0.149132729
v -0.062194835 0.719383419 0.056117039
v -0.057995550 0.899122596 -0.147366494
v 0.089528561 0.873794854 -0.147192553
v -0.188796833 0.534884810 -0.032548748
v 0.072267041 0.731521964 0.061305396
v -0.069515333 0.622886062 0.049438801
v -0.089452319 0.712678432 0.066354379
v 0.094240487 0.847433269 -0.139851347
v -0.072039843 0.651454091 0.053891204
v -0.081584945 0.673520327 0.059845548
v -0.080824539 0.880047500 0.059486747
v 0.055185728 0.642102838 -0.065983057
v -0.056397222 0.878872573 0.061919224
v 0.094366267 0.733944833 0.070325837
v -0.091782622 0.654031157 0.062411834
v 0.134057924 0.862838924 -0.125375152
v -0.196940869 0.543725610 -0.020880586
v -0.028110052 0.743879974 0.015160109
v 0.078256324 0.627782941 -0.071825780
v -0.182802096 0.538027346 0.010461906
v -0.125025570 0.681133926 0.077107027
v 0.071353696 0.650823951 -0.075303681
v -0.175235733 0.539924979 0.026233513
v -0.106230125 0.667399526 0.069320545
v 0.110302851 0.718444228 0.075605907
v 0.116751671 0.741701722 0.079861529
v 0.127637759 0.887576222 -0.132202238
v -0.169460997 0.542299867 0.042980634
v -0.113804258 0.706196666 0.075463280
v -0.160855591 0.558597624 0.047266465
v -0.126355976 0.656388223 0.077016644
v -0.152631313 0.542800844 0.048649769
v -0.153947085 0.549012363 0.065161601
v -0.135790631 0.699999332 0.074395441
v -0.146712825 0.665272593 0.066556178
v -0.138071567 0.546591222 0.057307042
v 0.137713104 0.726061940 0.075178638
v -0.151402429 0.686287463 0.067443244
v -0.121313795 0.543710530 0.061956696
v -0.105351448 0.543592274 0.052137345
v 0.125873908 0.611940980 -0.077382967
v -0.154342026 0.707241595 0.067357227
v 0.180402398 0.734473109 0.060891420
v 0.126798898 0.632295489 -0.080820411
v 0.153135717 0.928173363 -0.098901086
v -0.088277012 0.544962287 0.044196349
v -0.143993556 0.644286215 0.065665752
v -0.075654782 0.549395800 0.031058853
v 0.132852912 0.931959808 -0.130765006
v -0.066416964 0.555423200 0.016415242
v -0.057314001 0.561542392 0.001985345
v 0.195818305 0.728189290 0.042834107
v 0.146091536 0.883944333 -0.117844842
v -0.042836588 0.564994335 -0.011404757
v -0.043899454 0.572576761 0.006644187
v -0.174027920 0.718715787 0.061005753
v -0.041250575 0.590850115 0.010915857
v -0.169856548 0.672801018 0.057932205
v 0.141906381 0.620892167 -0.088525988
v 0.154030949 0.861124635 -0.107178047
v 0.206187770 0.741354585 0.023343710
v -0.192301601 0.705850184 0.053243853
v -0.189744517 0.656573892 0.053284265
v -0.192047924 0.681548893 0.052981593
v -0.032981984 0.752424359 -0.080889717
v 0.148717031 0.611409545 -0.069864370
v 0.210235208 0.758369982 -0.019113231
v 0.149731025 0.905965030 -0.109783016
v 0.013265505 0.806892693 -0.071554638
v -0.045641888 0.770717323 -0.096065864
v 0.048096754 0.751596391 -0.093495242
v -0.041840501 0.730177641 0.037764616
v 0.209720731 0.730148673 -0.002662975
v -0.194468945 0.666904390 0.030801246
v -0.207994699 0.708453596 0.013618307
v -0.189313084 0.800608993 0.042924620
v 0.170208126 0.617689013 -0.081918024
v -0.201001048 0.654650033 0.008391115
v 0.125634372 0.903189182 0.054914646
v 0.209119350 0.734083772 -0.030333603
v -0.204896361 0.681634307 0.009456931
v -0.207347542 0.698655009 -0.011258656
v -0.208279207 0.716495752 -0.029867243
v 0.170721740 0.609289587 -0.061309587
v 0.200267106 0.715397179 -0.045712676
v -0.199572191 0.642774761 -0.014371119
v -0.208911270 0.804852188 0.004990928
v 0.160468653 0.883633018 -0.100655593
v -0.031689800 0.951830983 0.069409326
v 0.198700532 0.742234051 -0.053410541
v 0.185208231 0.752164245 -0.073144749
v -0.082327344 0.822813630 -0.124895215
v -0.060947411 0.825351536 -0.124234833
v 0.176824540 0.631177664 -0.060015321
v -0.203525335 0.670606017 -0.017491985
v 0.176233560 0.591096520 -0.048621956
v 0.187656775 0.723068833 -0.064204231
v -0.021294612 0.958015621 -0.123750493
v -0.040224034 0.956935406 -0.125754461
v 0.171266451 0.862195969 -0.087074451
v 0.018743351 0.776482463 0.003270326
v -0.058942176 0.954577446 -0.127228111
v -0.039808255 0.755941808 0.039735861
v 0.181766242 0.728014112 -0.084571674
v 0.165558681 0.741743326 -0.088083543
v -0.077491485 0.951338768 -0.127615616
v 0.167556718 0.889097095 -0.079986788
v -0.203777283 0.649186254 -0.036338452
v -0.095459163 0.946788907 -0.127862900
v -0.092484176 0.928387165 -0.146598414
v -0.204428390 0.810582757 -0.040283360
v -0.110214546 0.950539231 -0.137694299
v -0.115280092 0.949605286 -0.120623514
v 0.144555405 0.728629589 -0.095860086
v -0.192097098 0.711781144 -0.056420434
v -0.192555994 0.818265796 -0.066051386
v -0.178576767 0.835968614 -0.086434260
v -0.193885416 0.669089973 -0.045274746
v 0.179359615 0.872094333 -0.063958399
v 0.166477352 0.931717098 -0.065471895
v -0.178983614 0.606024384 -0.049292114
v 0.039362580 0.751818478 0.038909484
v 0.122810498 0.732695937 -0.107472122
v -0.067394778 0.813749433 -0.101603247
v -0.177966982 0.724220514 -0.078204527
v 0.170986682 0.922697544 -0.046727020
v -0.079764195 0.793790936 -0.106539391
v -0.174418479 0.600088000 -0.072089858
v 0.104253732 0.742634714 -0.109013222
v -0.177774817 0.663644135 -0.065655008
v -0.150683001 0.662115216 -0.079184875
v 0.171630174 0.915646195 -0.027484840
v -0.167728499 0.680451214 -0.074667230
v -0.155145422 0.713557601 -0.087866649
v 0.189857423 0.865869343 -0.021070788
v -0.144610822 0.635586381 -0.075939231
v -0.031597413 0.675343454 -0.030756772
v 0.061831020 0.731603563 -0.093869247
v -0.131726265 0.953094840 -0.126425311
v -0.129225105 0.949297130 -0.110423282
v -0.138142705 0.729109406 -0.099112526
v -0.132459819 0.704826176 -0.095692858
v -0.127593338 0.677466571 -0.090564422
v -0.124858037 0.649472237 -0.085685931
v -0.117341399 0.831814170 -0.112903990
v 0.060266010 0.793111265 0.059445180
v 0.185735926 0.616583228 -0.041046713
v -0.150788456 0.951481998 -0.082634129
v -0.158441871 0.950112700 -0.065731265
v 0.204383224 0.635123014 -0.033827193
v -0.012775612 0.584332049 -0.008722248
v -0.163091347 0.946975589 -0.047949500
v 0.200767472 0.867841363 0.003434637
v -0.166026250 0.943123460 -0.030487355
v -0.181858510 0.932995200 -0.022217207
v -0.177294791 0.937532544 -0.003608263
v 0.208411977 0.759295583 -0.041948430
v 0.180459097 0.918692231 -0.008828170
v -0.165736869 0.932758212 -0.016088348
v -0.157232553 0.933206201 -0.000095278
v -0.146179929 0.934262574 0.013510047
v 0.040104177 0.795200706 -0.093296662
v -0.155816942 0.923048139 0.023141133
v 0.170718759 0.900253117 -0.013818194
v -0.149860710 0.938522041 0.030734647
v -0.135056347 0.631642461 -0.097820505
v 0.187176496 0.854020715 0.018808238
v 0.014018858 0.730275035 -0.027750811
v -0.014640175 0.714026332 -0.024148110
v -0.014387069 0.734436631 -0.027044807
v 0.139139906 0.927715659 -0.113124669
v -0.139692575 0.659346461 -0.101990521
v -0.012822205 0.754753590 -0.032784790
v -0.138011709 0.713879347 -0.117403865
v 0.011827402 0.753052592 -0.033951290
v -0.012262153 0.775325954 -0.040479738
v -0.139585301 0.939920068 0.046631493
v 0.152478963 0.757629633 -0.097146586
v 0.160170168 0.903896332 0.005460533
v -0.113408767 0.648866475 -0.107029915
v -0.126623049 0.930851460 0.051936626
v -0.124490812 0.942243099 0.038969066
v 0.155823678 0.888081551 0.028074201
v 0.043513495 0.865782619 -0.143610209
v -0.141657621 0.686501682 -0.108704686
v -0.114357784 0.733267009 -0.110989943
v 0.147216931 0.908760369 0.021503827
v -0.112981245 0.676030099 -0.110359490
v 0.177858427 0.843398094 0.039333992
v -0.099568993 0.665507436 -0.092260674
v -0.009761338 0.752344966 -0.008798124
v -0.109854005 0.922469318 0.047479175
v 0.145505935 0.909676254 0.040215194
v 0.149199799 0.893949211 0.052711077
v 0.131380707 0.896592021 0.034882620
v -0.083239473 0.652884841 -0.081208758
v -0.094248824 0.691325128 -0.096934088
v -0.074288540 0.678991079 -0.085923269
v 0.045975603 0.645770490 0.021404754
v -0.092271410 0.717303693 -0.101381458
v 0.049114220 0.917058766 -0.143012494
v -0.068426631 0.704686582 -0.090530723
v 0.024273816 0.907527328 -0.139849871
v -0.037692398 0.855167985 -0.140054971
v -0.035910483 0.886038899 -0.144627035
v 0.196820453 0.626494348 0.005253780
v 0.184437320 0.638041377 0.041699760
v -0.040609770 0.695143104 -0.076816365
v -0.044907831 0.724760473 -0.086704500
v -0.141867250 0.951398730 -0.098545514
v 0.163409293 0.854759336 0.049081553
v 0.143149272 0.852729797 0.057781398
v -0.185838863 0.558810949 -0.010534806
v 0.166260540 0.602048516 0.069290303
v 0.174583733 0.631209373 0.064536862
v -0.186518565 0.539387107 -0.007000696
v 0.129991755 0.875189781 0.050532900
v -0.051743746 0.592985213 -0.026158148
v -0.051432531 0.580484271 -0.008309479
v 0.013954135 0.622457325 0.003228599
v -0.033254854 0.583189368 -0.003127687
v 0.006073800 0.947617888 0.070422478
v 0.064707443 0.903509974 -0.147851616
v -0.012357147 0.949981511 0.070191272
v -0.037370957 0.616993070 -0.007157086
v 0.125961304 0.614525676 0.071421824
v 0.042242713 0.926455975 0.068195172
v 0.075641528 0.569711626 0.044004671
v 0.063898981 0.590737760 0.040638968
v 0.099095151 0.580630362 0.056654464
v 0.045506395 0.837790787 -0.132444426
v 0.119833648 0.586342335 0.069148228
v 0.056853045 0.604481041 0.025271079
v 0.187115237 0.574143350 0.013545970
v 0.120405398 0.846588731 0.065309837
v 0.105661616 0.865802586 0.058421962
v 0.177534893 0.881460786 0.008785900
v 0.102358557 0.607173562 0.061937921
v 0.194376305 0.892671466 -0.013621894
v 0.177844629 0.888185620 -0.038678400
v 0.061907608 0.922534823 0.064632259
v 0.082178399 0.623898208 0.055429794
v 0.105173670 0.637130201 0.066993296
v 0.174195141 0.903025627 -0.062623695
v 0.164244920 0.918090522 -0.081257157
v 0.082114235 0.597747684 0.051541924
v 0.161571249 0.905143261 -0.094956517
v 0.150503695 0.588624358 -0.065156810
v 0.172932059 0.586440265 -0.071866550
v 0.059900176 0.639909327 0.044027649
v 0.138305247 0.593610704 -0.085547179
v 0.141707644 0.907701850 -0.128430977
v 0.063352332 0.614179790 0.043666624
v 0.105513908 0.690666795 0.071559295
v 0.143271565 0.592949033 0.060103677
v 0.165099591 0.586675942 0.049115218
v 0.181879193 0.591711164 0.030781597
v 0.199105680 0.689519525 -0.042115625
v 0.143563256 0.700426877 -0.089911498
v 0.050921869 0.626157761 0.024126168
v 0.125832990 0.687165082 -0.097757459
v 0.194420174 0.591737747 -0.031276412
v 0.189868331 0.583630681 -0.009228772
v 0.037241504 0.665724874 0.013571364
v 0.010994597 0.690541387 -0.003666050
v 0.091794282 0.879764199 0.072864860
v 0.083028093 0.918396950 0.060573805
v 0.017951133 0.711765647 -0.003698636
v 0.033959810 0.816104233 0.040520731
v 0.023332756 0.798663020 0.017946441
v 0.023348561 0.627849042 -0.016623572
v 0.067966044 0.898027718 0.062375061
v 0.034071248 0.667337954 -0.034945793
v 0.038102247 0.868951499 0.062383074
v 0.054980725 0.880770206 0.062361427
v 0.018712729 0.868834794 0.063669793
v 0.045395784 0.603704274 -0.014238332
v 0.038524594 0.665359020 -0.058780570
v 0.068814903 0.771268129 0.062072583
v 0.199813560 0.689199090 0.027773935
v 0.195024118 0.803304672 -0.063733116
v 0.054503035 0.591944516 -0.034496278
v 0.162636966 0.688205123 -0.077663429
v 0.117186986 0.781580210 -0.119785525
v 0.103726462 0.696363986 -0.100768581
v 0.070335940 0.580057502 -0.054372489
v 0.032919012 0.712880552 -0.065642267
v 0.030423338 0.782429039 -0.073283270
v 0.109795943 0.593760550 -0.077006407
v 0.095320024 0.573497713 -0.065752372
v 0.100578383 0.922045529 -0.137288243
v 0.088811293 0.895873725 0.057827264
v 0.080413967 0.865902424 0.054520003
v 0.115490630 0.569057524 -0.087175831
v 0.030453298 0.850815892 0.056218635
v 0.046994053 0.836775422 0.042472463
v 0.078104347 0.925281167 -0.141069442
v 0.132786855 0.575295150 -0.070135280
v 0.171598285 0.766732812 -0.089635611
v 0.020908743 0.831707180 -0.117687657
v 0.160083860 0.633946538 -0.070072383
v 0.164574549 0.561708331 -0.073182091
v 0.015452350 0.707737505 -0.024688082
v 0.147107601 0.562839627 -0.064356141
v 0.033921354 0.807452321 -0.077890702
v 0.170190364 0.566265583 -0.051448844
v 0.181248546 0.574445248 -0.035052739
v 0.048841882 0.729911804 0.050464522
v 0.106456697 0.894236684 -0.140836269
v 0.085486054 0.900629342 -0.147430465
v 0.020008339 0.792101860 -0.053245354
v 0.195199594 0.564391732 -0.022748174
v 0.115700245 0.649221718 -0.089200132
v 0.198532984 0.636953056 -0.013130246
v 0.189177662 0.618296504 0.026178140
v 0.143776387 0.641510367 -0.077533863
v 0.136150241 0.645154059 -0.095301174
v 0.174666166 0.563265860 0.035412829
v 0.162441045 0.837552667 0.059364658
v 0.205277115 0.838564396 0.013737135
v 0.187916934 0.645680130 -0.046279758
v 0.044897489 0.620990038 -0.033160027
v 0.156207472 0.570536077 0.073179826
v 0.079840466 0.751841545 0.065656193
v 0.200806230 0.653307736 0.000309286
v 0.196454719 0.644416869 0.021000052
v 0.074332237 0.668590009 -0.082351357
v 0.135336593 0.565104842 0.061014421
v 0.117897734 0.839439869 -0.131572172
v -0.008204544 0.773474753 -0.006741703
v -0.009905259 0.677059531 0.003155785
v 0.049216773 0.661764801 0.032086276
v 0.111959770 0.559329748 0.064690128
v 0.137487695 0.842758477 -0.109454170
v -0.012176980 0.731993198 -0.008932688
v -0.005120923 0.794742465 -0.000856998
v 0.095176712 0.557716429 0.050599087
v 0.020690154 0.832628608 0.049033981
v -0.001577703 0.831695437 0.048410371
v 0.107904300 0.888422012 0.049099173
v 0.062520042 0.576621473 0.024071110
v 0.104307733 0.916478813 0.050284814
v 0.185231209 0.555958509 -0.004827571
v 0.099414423 0.753210247 0.073651336
v 0.035334595 0.933431745 -0.135874778
v 0.051787704 0.589474738 0.009338292
v 0.065727428 0.880732417 -0.149129927
v 0.018380899 0.598508477 0.013196928
v 0.040177759 0.616376042 0.006559831
v 0.038297869 0.814990401 -0.110591374
v 0.015202871 0.818032861 0.030720070
v 0.015821455 0.665700257 0.003730606
v -0.011743592 0.659063160 -0.000214024
v -0.010772302 0.712418437 -0.006221596
v 0.179167017 0.553591609 -0.031742550
v -0.009454394 0.693503857 -0.004535596
v 0.057099633 0.612082362 -0.057358831
v 0.072208598 0.755484819 -0.100909397
v 0.096135683 0.765708506 -0.109050438
v 0.157845214 0.744042277 0.069463536
v 0.088508420 0.712140918 0.066428974
v 0.161182255 0.716198444 0.065847538
v 0.085569642 0.601082146 -0.067321032
v 0.181698143 0.550296664 0.016793165
f 555 540 123
f 389 162 497
f 567 540 568
f 583 104 251
f 463 489 430
f 453 94 255
f 483 484 162
f 446 640 671
f 574 577 251
f 50 244 238
f 52 244 50
f 575 57 53
f 55 249 52
f 55 2 250
f 577 248 563
f 575 437 432
f 57 597 589
f 2 265 262
f 589 592 57
f 262 259 2
f 5 267 262
f 602 606 589
f 5 9 11
f 58 606 610
f 11 272 5
f 12 278 11
f 565 793 8
f 630 60 632
f 13 425 12
f 424 289 160
f 289 424 13
f 643 649 60
f 181 403 179
f 483 206 484
f 163 651 174
f 53 563 558
f 651 65 650
f 163 389 384
f 683 66 65
f 455 558 563
f 165 384 171
f 340 331 34
f 67 66 683
f 206 470 63
f 385 102 856
f 67 702 70
f 344 340 696
f 179 403 406
f 710 70 702
f 16 352 14
f 111 112 59
f 63 64 655
f 18 368 16
f 710 742 753
f 119 112 111
f 394 671 545
f 551 922 903
f 19 375 18
f 753 740 711
f 406 470 179
f 261 615 108
f 545 453 439
f 178 386 530
f 24 386 23
f 72 753 742
f 26 396 24
f 768 765 72
f 119 142 112
f 32 63 470
f 112 142 161
f 399 400 396
f 154 343 182
f 545 671 448
f 399 415 400
f 768 770 765
f 32 406 410
f 418 415 399
f 770 183 777
f 387 300 166
f 415 418 422
f 105 86 299
f 169 42 839
f 170 142 119
f 173 172 705
f 329 638 343
f 134 738 737
f 185 638 329
f 692 661 145
f 150 74 741
f 637 345 873
f 132 145 661
f 170 184 142
f 138 495 760
f 138 136 188
f 136 194 188
f 201 87 194
f 270 87 205
f 216 49 210
f 46 216 724
f 198 184 170
f 43 96 907
f 219 39 218
f 45 43 41
f 224 37 219
f 498 224 514
f 86 105 342
f 225 36 514
f 378 107 110
f 80 233 107
f 22 41 43
f 198 217 849
f 41 581 45
f 103 233 76
f 76 40 103
f 222 217 214
f 678 100 40
f 98 41 22
f 366 41 98
f 40 76 678
f 215 4 284
f 215 98 21
f 537 536 92
f 222 234 217
f 904 537 92
f 460 462 30
f 284 471 366
f 222 239 246
f 586 903 759
f 462 28 30
f 246 234 222
f 454 449 28
f 237 391 924
f 560 319 921
f 246 888 252
f 431 471 282
f 455 560 391
f 319 560 241
f 50 238 793
f 50 566 52
f 52 574 55
f 258 263 510
f 244 52 249
f 55 253 2
f 284 792 657
f 303 670 667
f 303 100 674
f 250 249 55
f 273 274 252
f 251 253 574
f 100 303 301
f 301 570 100
f 104 261 257
f 677 100 678
f 273 285 274
f 257 2 253
f 2 257 265
f 250 2 259
f 570 568 40
f 752 292 293
f 294 296 285
f 285 296 274
f 684 497 679
f 277 274 296
f 440 447 442
f 579 489 463
f 692 329 695
f 259 262 267
f 871 736 360
f 262 271 9
f 40 100 570
f 570 567 568
f 203 128 270
f 310 296 294
f 305 296 310
f 87 270 194
f 9 5 262
f 5 272 600
f 276 9 271
f 9 276 11
f 272 11 278
f 302 323 310
f 568 103 40
f 108 615 89
f 280 11 276
f 11 280 12
f 103 568 540
f 278 12 425
f 323 337 328
f 283 12 280
f 12 283 13
f 283 297 289
f 289 13 283
f 540 561 231
f 425 13 424
f 209 288 205
f 291 125 286
f 346 337 323
f 49 304 288
f 173 350 351
f 297 654 314
f 347 158 864
f 304 47 311
f 47 304 49
f 47 46 481
f 360 361 855
f 501 684 146
f 481 311 47
f 46 39 481
f 343 695 329
f 314 289 297
f 289 314 160
f 481 321 308
f 481 39 321
f 325 122 321
f 325 321 37
f 37 321 39
f 333 160 314
f 324 266 333
f 527 107 231
f 84 121 325
f 36 327 498
f 160 333 34
f 327 120 84
f 36 82 371
f 277 393 390
f 689 34 333
f 34 689 340
f 313 34 331
f 266 334 689
f 334 260 341
f 340 335 331
f 107 527 110
f 54 404 405
f 696 14 344
f 61 401 44
f 38 299 407
f 358 14 348
f 14 358 16
f 344 14 352
f 356 704 712
f 352 16 368
f 413 62 417
f 370 16 358
f 16 370 18
f 175 705 134
f 713 115 110
f 371 27 378
f 27 371 82
f 381 18 370
f 18 381 19
f 368 18 375
f 80 378 27
f 19 381 235
f 19 395 23
f 19 23 178
f 202 506 913
f 23 395 24
f 386 24 396
f 398 24 395
f 24 398 26
f 26 398 220
f 26 412 399
f 396 26 399
f 418 399 412
f 164 180 444
f 444 443 164
f 175 173 705
f 685 84 120
f 422 300 415
f 685 121 84
f 172 169 300
f 172 300 422
f 78 80 27
f 226 365 78
f 89 615 114
f 240 485 309
f 134 737 175
f 226 27 82
f 245 459 452
f 187 186 140
f 243 459 245
f 189 187 130
f 581 466 579
f 467 472 637
f 308 122 240
f 138 579 466
f 430 255 463
f 499 435 430
f 453 430 435
f 435 440 439
f 435 499 450
f 243 479 281
f 308 321 122
f 897 438 584
f 439 453 435
f 243 281 893
f 450 440 435
f 480 859 865
f 440 449 447
f 442 439 440
f 450 449 440
f 447 449 454
f 492 488 493
f 127 458 456
f 449 456 28
f 82 225 708
f 454 28 462
f 28 456 30
f 456 450 127
f 30 456 458
f 225 82 36
f 30 464 460
f 506 507 502
f 126 469 125
f 287 508 509
f 207 507 506
f 410 460 32
f 126 306 477
f 460 464 644
f 644 32 460
f 32 644 63
f 475 31 576
f 470 406 32
f 64 63 644
f 306 309 477
f 125 464 458
f 528 795 511
f 516 523 524
f 655 206 63
f 206 655 484
f 206 474 470
f 162 679 497
f 316 322 822
f 313 160 34
f 37 498 325
f 523 316 534
f 497 684 501
f 501 146 505
f 146 512 503
f 505 503 513
f 263 515 510
f 512 120 115
f 503 512 91
f 517 513 503
f 115 713 91
f 458 203 125
f 315 547 548
f 91 512 115
f 547 330 336
f 91 713 88
f 517 88 522
f 552 548 547
f 532 88 713
f 88 532 519
f 552 336 553
f 522 519 541
f 527 231 561
f 127 128 458
f 538 660 692
f 514 36 498
f 224 498 37
f 538 692 695
f 114 626 631
f 553 342 105
f 219 37 39
f 555 660 561
f 127 450 499
f 891 199 824
f 660 555 661
f 218 39 46
f 199 97 886
f 366 98 284
f 22 21 98
f 41 366 581
f 43 232 22
f 907 232 43
f 96 536 907
f 45 463 255
f 45 581 463
f 255 94 96
f 255 96 45
f 94 453 545
f 448 546 545
f 582 593 594
f 595 584 438
f 216 46 47
f 216 47 49
f 551 640 558
f 558 640 569
f 49 288 209
f 793 565 50
f 569 53 558
f 566 50 565
f 209 210 49
f 841 351 350
f 574 52 566
f 578 53 57
f 612 609 423
f 53 578 563
f 575 53 569
f 597 432 211
f 253 55 574
f 57 575 597
f 578 57 592
f 592 583 578
f 627 609 612
f 584 621 628
f 603 589 606
f 602 589 597
f 634 819 627
f 610 606 602
f 835 318 229
f 626 606 58
f 610 624 58
f 58 624 630
f 632 58 630
f 634 884 869
f 58 632 626
f 60 642 632
f 642 60 649
f 60 630 181
f 650 649 643
f 662 652 645
f 656 628 621
f 621 636 656
f 658 659 204
f 64 644 469
f 466 495 138
f 694 377 700
f 468 471 431
f 663 650 65
f 628 656 668
f 679 162 484
f 65 686 663
f 672 673 659
f 686 65 66
f 683 65 651
f 468 431 478
f 683 693 67
f 685 146 684
f 146 685 512
f 696 340 689
f 66 67 701
f 473 495 478
f 66 698 686
f 702 67 693
f 668 675 687
f 701 698 66
f 405 690 54
f 701 67 70
f 54 690 564
f 14 696 348
f 711 70 710
f 699 70 711
f 702 709 710
f 229 318 236
f 657 282 471
f 710 709 742
f 753 756 740
f 756 753 72
f 742 754 72
f 72 754 768
f 72 765 756
f 766 765 770
f 490 193 496
f 130 772 496
f 770 776 766
f 15 719 168
f 87 201 148
f 183 770 768
f 201 194 136
f 422 705 172
f 633 777 338
f 777 633 150
f 408 74 633
f 638 185 408
f 106 730 258
f 688 379 694
f 275 631 118
f 185 692 145
f 197 750 749
f 736 737 738
f 263 258 730
f 738 741 743
f 185 145 143
f 743 741 744
f 744 741 74
f 744 467 879
f 132 140 145
f 123 132 661
f 741 738 150
f 123 540 567
f 773 772 567
f 738 134 150
f 78 27 226
f 238 623 1
f 264 279 779
f 776 150 134
f 134 705 420
f 695 541 538
f 104 599 261
f 365 681 680
f 761 762 763
f 365 678 76
f 76 78 365
f 411 156 420
f 156 411 220
f 541 519 538
f 220 764 156
f 76 233 78
f 80 78 233
f 168 789 387
f 70 699 701
f 398 395 228
f 434 437 445
f 779 780 887
f 428 432 434
f 926 317 706
f 197 749 745
f 213 6 4
f 279 785 780
f 419 427 428
f 148 201 745
f 454 462 419
f 526 782 783
f 381 734 235
f 410 414 419
f 493 769 913
f 511 4 215
f 4 511 213
f 406 414 410
f 208 731 729
f 21 511 215
f 210 728 727
f 794 800 823
f 511 21 529
f 470 474 179
f 724 218 46
f 227 110 115
f 118 280 275
f 219 218 722
f 806 800 794
f 803 804 256
f 716 778 225
f 224 219 720
f 407 86 690
f 356 734 381
f 389 497 380
f 809 795 528
f 810 806 811
f 717 716 514
f 497 501 380
f 317 697 429
f 810 818 821
f 913 771 202
f 341 698 699
f 373 376 159
f 369 177 373
f 341 260 698
f 260 334 266
f 365 226 681
f 517 522 354
f 828 821 818
f 354 362 364
f 569 640 446
f 519 522 88
f 767 828 818
f 266 324 676
f 602 597 211
f 804 834 256
f 121 240 122
f 345 868 918
f 610 602 211
f 169 839 166
f 427 195 211
f 643 179 174
f 683 651 165
f 693 683 171
f 627 884 634
f 324 654 676
f 846 397 841
f 841 397 374
f 362 709 369
f 580 397 846
f 192 188 190
f 192 499 489
f 128 192 190
f 270 205 203
f 205 288 286
f 291 306 126
f 208 148 733
f 288 304 291
f 304 311 306
f 311 481 308
f 286 125 203
f 283 118 297
f 589 599 592
f 283 280 118
f 227 115 120
f 747 805 732
f 707 226 82
f 107 378 80
f 275 114 631
f 118 646 297
f 89 114 275
f 231 233 103
f 87 209 205
f 816 872 870
f 271 108 89
f 248 560 455
f 248 241 560
f 108 271 265
f 566 565 241
f 86 876 690
f 622 244 619
f 517 91 88
f 574 566 248
f 715 662 889
f 244 249 618
f 249 250 614
f 882 465 718
f 253 251 257
f 774 465 882
f 250 259 608
f 883 494 774
f 921 391 560
f 259 267 604
f 54 564 847
f 251 577 583
f 600 267 5
f 89 276 271
f 503 91 517
f 690 405 407
f 275 276 89
f 892 573 582
f 272 278 596
f 248 577 574
f 280 276 275
f 425 588 591
f 425 424 781
f 781 313 572
f 424 313 781
f 572 585 781
f 314 654 324
f 136 197 201
f 313 557 572
f 237 551 558
f 554 331 335
f 334 341 348
f 760 136 138
f 335 344 549
f 341 699 704
f 348 696 334
f 921 319 7
f 358 348 704
f 344 352 544
f 912 582 594
f 903 586 551
f 352 368 543
f 381 370 356
f 368 375 539
f 788 8 3
f 535 375 178
f 221 795 809
f 828 767 562
f 559 833 920
f 921 920 899
f 546 448 898
f 903 922 836
f 38 903 299
f 235 228 395
f 405 669 407
f 546 92 94
f 400 518 520
f 92 546 904
f 639 35 926
f 386 396 525
f 927 926 33
f 928 605 930
f 200 490 298
f 94 545 546
f 96 92 536
f 927 56 852
f 143 472 408
f 220 412 26
f 400 520 521
f 412 220 411
f 109 113 152
f 920 832 559
f 418 412 411
f 152 113 746
f 387 789 786
f 420 418 411
f 746 161 867
f 418 420 422
f 490 773 298
f 496 772 773
f 394 442 445
f 562 767 832
f 739 636 820
f 204 725 658
f 773 490 496
f 725 223 635
f 447 454 428
f 472 186 637
f 215 284 98
f 189 130 496
f 458 464 30
f 410 462 460
f 125 469 464
f 635 247 487
f 487 269 629
f 641 487 629
f 268 269 487
f 269 393 629
f 390 269 268
f 469 126 64
f 349 761 763
f 655 64 477
f 303 674 670
f 290 393 277
f 611 290 928
f 163 474 483
f 928 307 605
f 635 641 648
f 531 605 533
f 677 674 100
f 477 309 485
f 506 202 207
f 679 485 240
f 240 121 684
f 312 912 594
f 684 679 240
f 121 685 684
f 186 187 345
f 503 505 146
f 912 332 892
f 772 130 132
f 685 120 512
f 501 505 159
f 725 648 658
f 505 513 373
f 513 517 364
f 892 847 564
f 110 527 713
f 714 847 339
f 522 541 154
f 51 714 346
f 231 103 540
f 714 51 404
f 541 695 343
f 567 772 123
f 502 500 506
f 578 577 563
f 867 659 673
f 577 578 583
f 597 575 432
f 592 104 583
f 913 492 493
f 845 167 839
f 599 104 592
f 386 178 23
f 599 603 615
f 110 227 378
f 615 261 599
f 706 402 639
f 603 626 114
f 132 123 772
f 624 610 195
f 409 706 317
f 746 673 682
f 114 615 603
f 120 327 227
f 624 414 403
f 691 429 697
f 642 631 632
f 642 118 631
f 429 433 853
f 646 118 642
f 642 649 646
f 152 682 691
f 682 433 691
f 181 643 60
f 654 297 646
f 122 325 121
f 140 130 187
f 421 416 617
f 123 661 555
f 309 308 240
f 698 260 686
f 702 693 177
f 698 701 699
f 672 441 436
f 291 126 125
f 109 691 697
f 143 140 186
f 874 872 816
f 665 441 672
f 188 192 489
f 665 658 653
f 712 704 699
f 653 451 665
f 927 697 317
f 712 740 734
f 648 461 653
f 178 375 19
f 923 880 116
f 641 461 648
f 740 756 748
f 748 758 228
f 926 706 639
f 479 641 482
f 754 742 362
f 354 754 362
f 407 669 38
f 203 458 128
f 482 629 620
f 756 765 758
f 182 754 154
f 128 127 192
f 254 246 252
f 611 382 620
f 764 398 228
f 499 192 127
f 764 766 156
f 766 776 156
f 930 611 928
f 420 156 776
f 140 132 130
f 788 7 8
f 387 166 168
f 420 776 134
f 136 760 197
f 300 387 415
f 750 197 760
f 745 201 197
f 148 208 209
f 733 148 745
f 258 35 106
f 593 533 605
f 731 208 733
f 236 318 910
f 729 210 208
f 728 210 729
f 727 216 210
f 188 489 579
f 929 573 556
f 724 216 727
f 573 929 582
f 723 218 724
f 722 218 723
f 720 219 722
f 717 224 720
f 514 224 717
f 188 579 138
f 876 556 573
f 707 681 226
f 898 904 546
f 472 143 186
f 212 795 221
f 899 391 921
f 854 925 931
f 213 795 212
f 140 143 145
f 404 54 714
f 833 922 924
f 415 387 786
f 143 408 185
f 238 3 793
f 1 3 238
f 31 799 752
f 622 238 244
f 918 799 515
f 380 376 171
f 915 752 357
f 617 476 421
f 619 244 618
f 618 249 616
f 616 249 614
f 636 739 613
f 388 613 10
f 614 250 608
f 357 791 915
f 383 688 388
f 608 259 607
f 571 438 576
f 295 667 666
f 92 96 94
f 607 259 604
f 372 726 700
f 667 295 303
f 367 726 372
f 604 267 601
f 298 295 207
f 923 875 880
f 363 732 367
f 408 467 74
f 148 209 87
f 298 301 295
f 359 747 363
f 601 267 600
f 359 355 755
f 600 272 598
f 598 272 596
f 353 755 355
f 301 298 773
f 596 278 591
f 747 755 751
f 591 278 425
f 588 425 781
f 388 688 813
f 769 771 913
f 763 353 349
f 202 771 200
f 506 500 913
f 74 467 744
f 773 570 301
f 82 708 707
f 320 647 326
f 500 492 913
f 331 554 557
f 242 910 320
f 344 335 340
f 910 908 647
f 554 335 550
f 239 222 703
f 549 550 335
f 549 344 544
f 166 167 168
f 544 352 543
f 543 368 542
f 17 15 167
f 17 845 157
f 907 536 919
f 157 850 155
f 155 850 153
f 542 368 539
f 150 633 74
f 153 854 151
f 151 854 149
f 149 858 147
f 147 862 144
f 539 375 535
f 759 903 38
f 530 535 178
f 144 862 141
f 141 866 139
f 139 866 137
f 530 386 525
f 137 870 135
f 525 396 521
f 135 870 872
f 133 872 131
f 131 874 129
f 129 923 117
f 923 874 875
f 170 119 902
f 521 396 400
f 20 932 101
f 99 101 932
f 99 886 97
f 95 97 199
f 95 891 93
f 93 896 90
f 518 400 786
f 90 896 85
f 85 901 83
f 83 905 81
f 169 166 300
f 81 905 79
f 77 79 796
f 77 909 75
f 439 394 545
f 75 914 73
f 73 914 71
f 71 916 69
f 442 394 439
f 468 466 366
f 442 447 434
f 7 562 920
f 794 534 811
f 924 899 833
f 434 447 428
f 428 454 419
f 419 462 410
f 38 898 759
f 902 111 897
f 466 468 495
f 526 524 534
f 25 59 56
f 96 43 45
f 895 401 61
f 182 343 338
f 483 389 163
f 483 162 389
f 897 59 25
f 883 894 775
f 776 777 150
f 59 897 111
f 380 384 389
f 774 882 893
f 111 902 119
f 778 708 225
f 501 159 380
f 167 166 839
f 159 505 373
f 176 191 867
f 373 513 369
f 364 369 513
f 850 890 925
f 354 364 517
f 354 522 154
f 177 369 709
f 154 541 343
f 446 445 437
f 376 380 159
f 204 223 725
f 217 198 214
f 214 703 222
f 437 569 446
f 610 211 195
f 414 624 195
f 403 630 624
f 889 718 715
f 160 313 424
f 181 630 403
f 888 246 239
f 179 643 181
f 174 650 643
f 651 650 174
f 163 384 165
f 487 247 268
f 165 651 163
f 171 683 165
f 174 474 163
f 557 313 331
f 475 515 799
f 376 693 171
f 285 273 757
f 177 693 376
f 627 885 884
f 174 179 474
f 509 508 516
f 294 302 310
f 709 702 177
f 709 362 742
f 154 754 354
f 182 338 183
f 780 785 803
f 183 768 182
f 423 413 881
f 183 338 777
f 638 338 343
f 633 638 408
f 590 401 895
f 692 185 329
f 190 188 194
f 515 475 25
f 270 190 194
f 190 270 128
f 195 427 414
f 7 788 562
f 915 878 571
f 877 595 438
f 203 205 286
f 44 48 61
f 474 206 483
f 210 209 208
f 61 62 895
f 413 895 62
f 211 432 427
f 172 42 169
f 398 764 220
f 515 263 918
f 437 575 569
f 228 758 764
f 124 885 426
f 175 871 350
f 84 498 327
f 225 514 716
f 327 371 227
f 918 263 730
f 898 448 759
f 371 327 36
f 839 374 890
f 227 371 378
f 451 441 665
f 228 235 748
f 444 180 457
f 233 231 107
f 187 868 345
f 759 448 586
f 189 292 868
f 734 748 235
f 653 461 826
f 924 922 237
f 292 193 196
f 446 671 394
f 461 641 479
f 922 551 237
f 391 237 455
f 482 641 629
f 918 868 799
f 196 200 293
f 771 293 200
f 558 455 237
f 281 287 894
f 894 893 281
f 248 566 241
f 257 251 104
f 255 430 453
f 257 261 265
f 509 775 287
f 260 266 676
f 509 516 524
f 265 261 108
f 523 516 531
f 322 316 523
f 273 252 888
f 265 271 262
f 811 534 316
f 316 315 811
f 676 686 260
f 366 466 581
f 478 495 468
f 330 547 315
f 547 336 552
f 366 471 468
f 760 495 473
f 657 471 284
f 336 342 553
f 553 900 552
f 832 900 553
f 865 878 791
f 792 284 4
f 31 571 576
f 286 288 291
f 438 571 877
f 906 864 863
f 4 790 792
f 8 7 319
f 303 295 301
f 291 304 306
f 570 773 567
f 739 617 392
f 617 416 392
f 306 311 309
f 309 311 308
f 170 628 668
f 613 739 10
f 739 392 10
f 656 675 668
f 656 815 675
f 680 678 365
f 813 613 388
f 324 333 314
f 687 198 668
f 379 688 383
f 295 666 207
f 815 656 636
f 377 694 379
f 325 498 84
f 689 333 266
f 334 696 689
f 700 377 372
f 861 834 860
f 703 721 239
f 732 726 367
f 834 861 256
f 348 341 704
f 747 732 363
f 356 358 704
f 735 888 721
f 370 358 356
f 735 264 757
f 735 273 888
f 755 747 359
f 369 364 362
f 353 763 755
f 647 761 326
f 761 349 326
f 376 373 177
f 779 757 264
f 780 779 279
f 384 380 171
f 235 395 19
f 736 871 737
f 562 788 917
f 910 647 320
f 785 804 803
f 414 406 403
f 256 323 803
f 813 675 815
f 415 786 400
f 427 419 414
f 422 420 705
f 432 428 427
f 430 489 499
f 587 580 590
f 437 434 432
f 445 442 434
f 446 394 445
f 671 586 448
f 819 609 627
f 456 449 450
f 455 563 248
f 865 791 769
f 581 579 463
f 645 652 817
f 644 464 469
f 652 662 715
f 874 923 129
f 715 664 652
f 694 812 688
f 477 64 126
f 750 760 473
f 485 655 477
f 465 715 718
f 507 207 666
f 465 774 494
f 865 486 480
f 812 675 813
f 485 484 655
f 207 202 298
f 883 504 825
f 493 865 769
f 783 782 504
f 679 484 485
f 202 200 298
f 196 490 200
f 196 193 490
f 877 859 476
f 302 803 323
f 189 496 193
f 814 806 810
f 168 719 789
f 821 814 810
f 391 899 924
f 713 527 532
f 467 408 472
f 302 294 887
f 786 787 518
f 538 519 532
f 561 532 527
f 926 35 33
f 538 532 660
f 540 555 561
f 551 586 640
f 319 241 565
f 660 532 561
f 113 161 746
f 161 176 867
f 8 319 565
f 223 247 635
f 781 585 784
f 620 629 393
f 887 780 302
f 269 390 393
f 671 640 586
f 781 784 588
f 599 589 603
f 393 290 611
f 626 603 606
f 928 290 305
f 623 238 622
f 625 1 623
f 774 893 894
f 312 332 912
f 626 632 631
f 332 339 847
f 847 892 332
f 757 887 285
f 847 714 54
f 793 3 8
f 732 807 726
f 858 931 857
f 675 812 687
f 168 167 15
f 273 735 757
f 920 921 7
f 402 385 639
f 167 845 17
f 638 633 338
f 646 649 663
f 650 663 649
f 845 850 157
f 888 239 721
f 663 654 646
f 706 409 48
f 850 854 153
f 676 654 663
f 429 409 317
f 661 692 660
f 854 858 149
f 676 663 686
f 858 862 147
f 433 429 691
f 678 680 677
f 699 711 712
f 712 734 356
f 711 710 753
f 862 866 141
f 712 711 740
f 682 436 827
f 734 740 748
f 866 870 137
f 214 687 808
f 748 756 758
f 664 816 652
f 872 133 135
f 198 687 214
f 754 182 768
f 872 874 131
f 665 659 658
f 758 765 766
f 658 648 653
f 766 764 758
f 776 770 777
f 668 198 170
f 117 923 116
f 787 786 789
f 929 330 822
f 533 822 322
f 556 336 330
f 531 322 523
f 899 920 833
f 662 444 889
f 346 323 256
f 491 482 620
f 116 880 911
f 911 20 116
f 382 491 620
f 911 932 20
f 932 886 99
f 645 443 662
f 930 382 611
f 382 930 516
f 886 824 199
f 605 531 930
f 491 508 848
f 628 170 902
f 256 347 346
f 482 848 479
f 891 896 93
f 347 256 861
f 820 617 739
f 866 819 817
f 605 594 593
f 896 901 85
f 929 593 582
f 612 881 885
f 901 905 83
f 826 451 653
f 451 457 180
f 672 659 665
f 441 180 851
f 79 905 796
f 436 673 672
f 436 851 827
f 909 914 75
f 682 673 436
f 914 916 71
f 584 902 897
f 876 86 342
f 69 916 1
f 829 433 827
f 700 808 694
f 788 3 916
f 853 829 417
f 409 61 48
f 402 48 855
f 870 817 816
f 855 29 360
f 874 816 664
f 385 361 102
f 830 880 875
f 576 897 25
f 819 634 817
f 68 69 1
f 106 856 730
f 743 736 738
f 910 242 236
f 862 857 819
f 744 879 102
f 880 830 831
f 840 528 843
f 401 846 44
f 803 302 780
f 769 791 357
f 878 915 791
f 831 911 880
f 918 873 345
f 576 25 475
f 799 31 475
f 841 29 846
f 879 856 102
f 106 639 385
f 573 564 876
f 911 831 802
f 342 556 876
f 337 339 332
f 25 510 515
f 350 29 841
f 564 573 892
f 892 582 912
f 510 25 56
f 864 906 837
f 312 328 337
f 929 822 593
f 33 35 258
f 871 360 29
f 840 860 835
f 864 158 863
f 29 855 44
f 916 914 917
f 808 687 812
f 594 307 312
f 307 305 328
f 916 917 788
f 33 56 927
f 840 835 809
f 307 594 605
f 736 743 361
f 531 516 930
f 290 277 305
f 852 109 927
f 318 835 860
f 21 844 529
f 852 59 112
f 620 393 611
f 102 743 744
f 112 113 852
f 751 763 762
f 647 785 762
f 805 747 751
f 252 268 254
f 230 835 229
f 487 641 635
f 637 879 467
f 124 851 164
f 809 230 221
f 161 142 176
f 807 732 805
f 247 234 254
f 230 809 835
f 808 700 807
f 345 637 186
f 176 184 191
f 812 694 808
f 204 849 223
f 849 204 191
f 813 688 812
f 635 648 725
f 849 184 198
f 815 613 813
f 815 636 613
f 217 223 849
f 659 191 204
f 217 234 223
f 191 184 849
f 859 480 421
f 795 213 511
f 245 461 243
f 878 865 859
f 802 886 932
f 191 659 867
f 452 718 889
f 223 234 247
f 176 142 184
f 246 254 234
f 865 493 486
f 293 771 357
f 268 247 254
f 771 769 357
f 805 264 735
f 268 252 390
f 161 113 112
f 486 493 488
f 390 252 274
f 867 673 746
f 264 751 279
f 274 277 390
f 746 682 152
f 281 848 287
f 827 433 682
f 808 703 214
f 152 691 109
f 109 852 113
f 476 859 421
f 296 305 277
f 476 595 877
f 305 307 928
f 196 293 292
f 595 476 820
f 726 807 700
f 752 293 357
f 307 328 312
f 310 328 305
f 56 59 852
f 292 752 799
f 328 310 323
f 886 825 824
f 312 337 332
f 807 703 808
f 891 824 782
f 193 292 189
f 844 21 22
f 429 853 409
f 109 697 927
f 56 33 510
f 105 559 553
f 339 337 346
f 346 714 339
f 51 346 347
f 317 926 927
f 564 690 876
f 863 844 232
f 799 868 292
f 510 33 258
f 843 528 529
f 844 863 842
f 861 840 843
f 861 158 347
f 861 860 840
f 752 915 31
f 158 843 842
f 843 158 861
f 842 529 844
f 919 837 906
f 906 232 907
f 809 528 840
f 730 873 918
f 730 856 873
f 873 856 879
f 856 106 385
f 817 634 645
f 837 919 838
f 817 652 816
f 919 906 907
f 919 536 537
f 743 102 361
f 904 669 838
f 898 669 904
f 669 898 38
f 703 807 721
f 405 404 838
f 669 405 838
f 922 833 836
f 294 285 887
f 361 385 402
f 869 645 634
f 830 875 664
f 916 3 1
f 864 51 347
f 402 855 361
f 909 801 914
f 397 890 374
f 48 44 855
f 796 909 77
f 879 637 873
f 901 798 905
f 580 925 397
f 48 402 706
f 896 800 901
f 891 823 896
f 409 62 61
f 853 62 409
f 881 413 417
f 417 62 853
f 86 407 299
f 459 893 882
f 199 891 95
f 830 465 831
f 829 426 417
f 426 829 124
f 426 881 417
f 124 829 827
f 433 829 853
f 886 802 825
f 774 894 883
f 851 124 827
f 164 884 124
f 441 851 436
f 180 164 851
f 443 869 164
f 911 802 932
f 715 830 664
f 874 664 875
f 736 361 360
f 451 180 441
f 457 452 889
f 889 444 457
f 866 817 870
f 106 35 639
f 459 718 452
f 826 452 457
f 452 826 245
f 451 826 457
f 862 819 866
f 858 857 862
f 461 245 826
f 459 882 718
f 479 243 461
f 854 931 858
f 850 925 854
f 846 401 580
f 845 890 850
f 491 848 482
f 848 281 479
f 825 494 883
f 382 508 491
f 900 832 767
f 508 287 848
f 896 823 800
f 839 890 845
f 504 782 824
f 42 374 839
f 516 508 382
f 908 910 318
f 534 524 523
f 552 818 548
f 42 172 173
f 901 800 798
f 818 552 900
f 533 322 531
f 871 175 737
f 868 187 189
f 22 232 844
f 593 822 533
f 822 315 316
f 929 556 330
f 330 315 822
f 838 919 537
f 904 838 537
f 318 860 834
f 908 318 834
f 465 830 715
f 556 342 336
f 105 836 559
f 833 559 836
f 29 44 846
f 908 834 804
f 562 917 828
f 299 836 105
f 818 900 767
f 832 553 559
f 562 832 920
f 811 315 548
f 828 801 821
f 801 828 917
f 821 797 814
f 836 299 903
f 401 590 580
f 797 821 801
f 905 798 796
f 796 814 797
f 810 548 818
f 814 798 806
f 798 814 796
f 909 796 797
f 811 548 810
f 413 587 590
f 404 51 837
f 51 864 837
f 837 838 404
f 909 797 801
f 529 842 843
f 158 842 863
f 232 906 863
f 800 806 798
f 529 528 511
f 794 811 806
f 785 908 804
f 785 647 908
f 859 877 878
f 526 534 794
f 877 571 878
f 571 31 915
f 173 351 42
f 524 783 509
f 350 173 175
f 29 350 871
f 823 526 794
f 783 524 526
f 526 823 782
f 42 351 374
f 841 374 351
f 504 775 783
f 509 783 775
f 782 823 891
f 885 124 884
f 887 757 779
f 914 801 917
f 426 885 881
f 890 397 925
f 825 504 824
f 775 504 883
f 925 587 931
f 587 925 580
f 802 494 825
f 785 279 762
f 494 831 465
f 831 494 802
f 894 287 775
f 590 895 413
f 438 897 576
f 884 164 869
f 762 279 751
f 423 931 587
f 587 413 423
f 931 423 857
f 762 761 647
f 617 820 476
f 595 820 621
f 751 755 763
f 893 459 243
f 751 264 805
f 609 857 423
f 423 881 612
f 662 443 444
f 721 805 735
f 621 584 595
f 857 609 819
f 443 645 869
f 612 885 627
f 636 621 820
f 628 902 584
f 805 721 807
