# avbd fit, rung f180-i32-s300-b1e-3 of Gate 6d (body space, fit phase only)
v -0.010635830 0.585548937 0.013515979
v -0.120371900 0.605724871 0.069278069
v -0.010196862 0.602421343 0.016325876
v -0.000414465 0.905620694 0.068720832
v -0.153437957 0.588703752 0.054512195
v 0.006647473 0.916361213 0.080358818
v -0.009462373 0.636046171 0.020713238
v -0.009605339 0.619336903 0.017933184
v -0.157338709 0.607210696 0.055135291
v 0.150053501 0.925781608 -0.103100345
v -0.177053824 0.600340426 0.047532156
v -0.186027542 0.602711260 0.026006829
v -0.192932948 0.604339659 0.007566838
v -0.154106319 0.605554402 -0.067659773
v 0.008597962 0.582195938 -0.042158015
v -0.134225041 0.599542558 -0.072972074
v 0.026569629 0.581932724 -0.042737789
v -0.135929957 0.600634694 -0.092060283
v -0.116711259 0.609362960 -0.093525559
v 0.185897931 0.560159385 -0.006829681
v -0.000893473 0.870989323 0.064652063
v -0.001179175 0.854440987 0.058726478
v -0.104850195 0.606393754 -0.078664161
v -0.091668151 0.610911191 -0.089914657
v 0.094690427 0.815836132 -0.119824268
v -0.088897645 0.625252128 -0.076468155
v -0.135763600 0.883732319 -0.126642406
v -0.146302789 0.790320039 0.070964500
v 0.039298907 0.684590638 -0.072068840
v -0.162033513 0.801494718 0.065124437
v 0.067280717 0.842755795 -0.141915664
v -0.194289371 0.776134431 0.041352030
v 0.087471507 0.774897695 -0.107633904
v -0.186405808 0.600700974 -0.035219368
v 0.072452962 0.763595402 -0.102147460
v -0.160424396 0.888130307 -0.100382246
v -0.180668205 0.884363651 -0.058890283
v 0.012918813 0.739817798 0.035061032
v -0.178908810 0.886781573 -0.037902210
v -0.080742911 0.886279285 -0.148232251
v -0.032307331 0.859102726 0.059237480
v 0.009814044 0.641804814 -0.056924187
v -0.021266416 0.838584423 0.052687027
v 0.061355323 0.688240886 -0.083092749
v -0.044659596 0.841164470 0.051049322
v -0.190614700 0.895100415 -0.023176389
v -0.191550300 0.881010234 -0.005289868
v 0.071009152 0.709090948 -0.091973625
v -0.175755948 0.882403731 0.009917391
v -0.053543966 0.606429458 0.028179545
v 0.062260903 0.809071720 0.057549305
v -0.070537567 0.604873359 0.047115494
v -0.083186910 0.694618344 0.062370885
v 0.060264666 0.767404497 0.058420371
v -0.093358107 0.603916585 0.056983255
v 0.103339531 0.789996922 -0.112443469
v -0.107910976 0.691105723 0.071998745
v -0.177420706 0.698626637 0.057882894
v 0.117145106 0.802805603 -0.125354230
v -0.201229617 0.695935249 0.026943306
v 0.082415983 0.690699279 -0.092286512
v 0.103250623 0.685966134 -0.098552465
v -0.204383850 0.787307620 0.022203822
v -0.200134039 0.809109867 0.020960150
v -0.203763753 0.696001530 -0.038009889
v -0.187931582 0.690847635 -0.057730377
v -0.177930206 0.703994155 -0.073796012
v 0.006277297 0.589574695 0.006583729
v 0.012751779 0.572944105 0.007248716
v -0.156588510 0.692968726 -0.082426906
v 0.030887639 0.572482824 0.010387341
v -0.121291757 0.706739604 -0.102170192
v 0.047319181 0.570371091 0.017424876
v -0.027304858 0.747428119 -0.080616429
v 0.062201720 0.567860842 0.026835134
v -0.100423537 0.887426078 -0.143442959
v 0.073800817 0.565099359 0.039537676
v -0.118495129 0.887589633 -0.136290446
v 0.088287786 0.563592017 0.048710354
v -0.125607833 0.870606601 -0.134172529
v 0.103699699 0.562801898 0.055668753
v -0.144539148 0.900170982 -0.116951168
v 0.111925498 0.561510444 0.070085645
v -0.176554129 0.851868272 -0.083159283
v 0.126558468 0.560459137 0.064384326
v 0.046400402 0.724655271 0.045831710
v -0.153050274 0.883047104 0.053798180
v -0.120206460 0.797517121 -0.116681680
v -0.159932405 0.639041305 0.057858139
v 0.141633943 0.560122371 0.063280687
v -0.140466616 0.805549979 -0.108438753
v -0.023033952 0.795226395 0.040295441
v 0.152688116 0.559136093 0.051561706
v -0.043616779 0.797800362 0.049911179
v 0.167198271 0.558425844 0.044359162
v -0.029648785 0.818109214 0.043639205
v 0.183055937 0.558737874 0.040797975
v -0.020587388 0.877177238 0.064745247
v 0.179385960 0.561316609 0.025345068
v -0.068709537 0.904372692 -0.148707449
v 0.185446665 0.559868455 0.009870166
v 0.023648309 0.748805761 -0.082129166
v -0.091377519 0.867474377 -0.146095470
v -0.117226258 0.650193274 0.073829047
v 0.039550759 0.703385890 0.039694838
v 0.054716568 0.764786780 -0.097416103
v -0.119804598 0.852808833 -0.131789833
v -0.150403574 0.633908868 0.073384076
v 0.126582041 0.756385207 -0.120118991
v -0.130524069 0.841220558 -0.118215881
v 0.128590688 0.814392567 -0.113171041
v 0.136616156 0.792935014 -0.109090611
v 0.136230126 0.769489884 -0.107100666
v -0.167328492 0.657966256 0.056980055
v -0.144315779 0.828655720 -0.106634937
v 0.199761257 0.559627712 -0.015553178
v 0.186527222 0.562665701 -0.020704206
v -0.193937391 0.646403730 0.025797600
v 0.146308810 0.812952876 -0.105618156
v -0.163457841 0.839623928 -0.097474270
v -0.189424425 0.837320328 -0.066747606
v -0.194524661 0.850508511 -0.051079400
v -0.058935564 0.835402787 -0.134587780
v 0.143231660 0.675933778 -0.084182709
v -0.177720517 0.832852662 0.043989498
v -0.193622589 0.829693973 0.022205250
v -0.128312618 0.825029552 0.070020109
v -0.140620604 0.841488183 0.062258035
v 0.179081261 0.563116550 -0.035229944
v -0.024245992 0.829794586 -0.117859803
v 0.171141446 0.563763380 -0.049271293
v -0.043685056 0.824059188 -0.120528862
v 0.160183281 0.565313160 -0.060883630
v -0.033877637 0.693773091 -0.070213079
v 0.177088588 0.565754712 -0.062509388
v -0.114932083 0.882800460 0.045166377
v 0.165313154 0.562971354 -0.073606320
v -0.094116576 0.881329060 0.054171421
v 0.148785055 0.563700557 -0.068654731
v -0.026982030 0.814027309 -0.104183339
v 0.132311374 0.563907981 -0.069937766
v 0.160566375 0.799685597 -0.098898187
v -0.029623946 0.794407845 -0.094197899
v 0.117408909 0.565795898 -0.074199811
v -0.048042797 0.807090759 -0.106924497
v -0.179561704 0.802544296 -0.089240655
v 0.105447531 0.567659914 -0.084566936
v -0.150438160 0.902230382 0.043198809
v 0.104002848 0.574817359 -0.070199728
v -0.036088243 0.720269620 -0.080596536
v 0.089084886 0.576199234 -0.063060716
v 0.135121882 0.748642802 -0.104062304
v 0.074135356 0.577790916 -0.055921935
v -0.108889282 0.756654978 -0.112248160
v 0.059734680 0.580153108 -0.047764592
v -0.074015900 0.671552837 -0.083535306
v 0.043573268 0.581213593 -0.044312082
v 0.054153375 0.847041488 0.052373171
v -0.182688788 0.766997457 -0.080088735
v -0.206128806 0.605985701 -0.024280550
v 0.154488742 0.777477145 -0.099797070
v -0.208159372 0.784338176 -0.035637107
v -0.209864050 0.745172024 -0.026536549
v 0.167061955 0.667827070 -0.083472401
v -0.203558490 0.731953263 -0.045401394
v -0.011130001 0.614898622 -0.049328528
v 0.013293447 0.601687193 -0.046670474
v -0.011084264 0.598345637 -0.045842309
v -0.010755780 0.631009161 -0.054575991
v 0.165800110 0.824968517 -0.097305536
v -0.192546085 0.738072753 -0.061575212
v -0.010535466 0.647557378 -0.058345061
v -0.010342913 0.664113164 -0.062531799
v -0.209684134 0.728401542 -0.006981839
v -0.009878855 0.680908740 -0.066203527
v 0.172254831 0.784078717 -0.092477538
v -0.165322334 0.736095786 -0.087590739
v -0.116514221 0.589749575 -0.076699056
v -0.207184821 0.737933993 0.020503800
v 0.177399382 0.685494304 -0.069848172
v -0.201492041 0.717220962 0.029641628
v -0.094348490 0.740225911 -0.106296882
v -0.079223529 0.725425422 -0.105192065
v 0.181200087 0.803780675 -0.086110629
v -0.050606042 0.785978973 -0.098267220
v -0.005574726 0.804174721 -0.093096957
v -0.004864529 0.819752038 -0.101982072
v -0.107075408 0.863580108 0.059578568
v -0.004253256 0.834295154 -0.111876070
v -0.128358737 0.856221318 0.059277035
v 0.185276568 0.777462423 -0.077428229
v -0.115308002 0.842746139 0.067367345
v -0.003482156 0.847379684 -0.123026572
v -0.132436827 0.873291612 0.051048201
v -0.162066191 0.727371216 0.066186413
v -0.003038294 0.862863719 -0.129556969
v -0.124379791 0.900241852 0.040439017
v 0.186884582 0.827552438 -0.073571607
v 0.175527170 0.578306139 0.039138328
v -0.002903741 0.879058540 -0.132910103
v -0.134865969 0.894019723 0.054307692
v -0.002781667 0.895693302 -0.132827252
v -0.162105337 0.846635938 0.056326635
v 0.196238965 0.768896759 -0.058869302
v -0.160388723 0.866124451 0.043701887
v -0.210779220 0.777468383 0.001683536
v -0.002705387 0.912469208 -0.132223338
v -0.146398231 0.899551034 0.023814742
v -0.159448296 0.884122014 0.029263472
v -0.162184775 0.899018288 0.007953828
v -0.142190188 0.720635772 0.072706982
v 0.033972871 0.923021019 0.068427309
v 0.017110076 0.922930419 0.069055334
v 0.196261287 0.843684554 -0.051600147
v -0.000624210 0.888343930 0.066764608
v -0.174845129 0.896045208 -0.010251359
v 0.201196045 0.815208733 -0.050083302
v -0.173044696 0.904024303 -0.030092483
v -0.173854560 0.903494716 -0.049376059
v -0.085820481 0.649099767 -0.081412308
v 0.050787382 0.923235536 0.066588417
v 0.201376155 0.829216838 -0.030879980
v 0.207636863 0.784790695 -0.041587867
v -0.173390999 0.903409958 -0.068613276
v -0.155339152 0.909192085 -0.102830075
v -0.128530890 0.904221177 -0.131161541
v -0.147263855 0.851960063 -0.107491717
v -0.102769829 0.648745954 -0.089291140
v 0.084127285 0.923171401 0.060268432
v 0.067466021 0.923401356 0.063616879
v -0.100772582 0.849835575 -0.139050245
v -0.001634576 0.838348091 0.051807292
v -0.109280683 0.868994832 -0.140025944
v 0.206370905 0.804934025 -0.026383098
v -0.118617572 0.635175109 -0.096060656
v 0.099315949 0.922354221 0.053015478
v -0.033640392 0.691357672 0.032612208
v -0.039604861 0.590478241 0.013173291
v 0.200484559 0.839147091 -0.012619490
v -0.200790733 0.829308391 -0.042212795
v -0.048445392 0.639139712 0.031662289
v 0.114158668 0.920852780 0.045879204
v 0.205550879 0.686012805 -0.007720590
v -0.063535944 0.587101758 0.029922169
v 0.207821533 0.686569571 -0.026152376
v 0.204743505 0.819278717 -0.008152877
v 0.209744543 0.781355679 -0.014649948
v -0.060792096 0.650361061 0.047622718
v -0.083971053 0.584397435 0.049895518
v -0.108221233 0.585566819 0.061014127
v -0.099768117 0.640044153 0.064517118
v 0.203737050 0.807336152 0.016940620
v -0.102418900 0.621007562 0.063525781
v 0.209088355 0.799471259 -0.004376013
v -0.055373289 0.820454895 0.053430866
v 0.099566191 0.841331482 0.071519285
v -0.117658421 0.629248679 0.073148571
v 0.067874387 0.781356573 -0.102699116
v -0.134021610 0.585708499 0.063688256
v -0.186681807 0.653303862 -0.052960306
v -0.134434476 0.641278386 0.069743618
v -0.148660511 0.602717042 0.076413512
v 0.060670711 0.798664987 -0.104569934
v 0.173855275 0.861274540 0.030300269
v -0.136274830 0.621739507 0.079444334
v -0.188963354 0.636289954 -0.042291090
v -0.156882614 0.582786381 0.072432891
v 0.210706711 0.783273757 0.009863003
v 0.206034899 0.765649557 0.022055939
v -0.147940099 0.862447262 0.060835384
v -0.148468643 0.621332049 0.061607480
v -0.170166731 0.578664243 0.049220789
v 0.191359863 0.825043380 0.027706379
v 0.190691814 0.802697480 0.039751668
v -0.180854797 0.641448140 0.048565514
v -0.169714898 0.622161746 0.051459499
v 0.187801927 0.780854106 0.052691340
v -0.179770648 0.582148850 0.031553425
v 0.163849980 0.869546413 0.051342744
v -0.186194494 0.622501016 0.037077613
v 0.204382628 0.679490268 0.012412039
v -0.052288402 0.923768878 0.066176549
v -0.194889605 0.622940660 0.016488556
v -0.024285881 0.900451958 0.067103937
v 0.179750711 0.819859684 0.047617059
v -0.172367662 0.852182388 0.039171644
v 0.195039541 0.672540545 0.031845562
v -0.173711926 0.866984725 0.025578907
v -0.195624620 0.617765546 -0.006258217
v 0.181935996 0.760546505 0.061876368
v -0.185584575 0.848910332 0.024520859
v 0.019441556 0.843589485 -0.126942933
v 0.020819627 0.865005791 -0.136497289
v 0.164896563 0.817004085 0.062200822
v -0.027993819 0.910851598 -0.141036466
v 0.176552236 0.799628079 0.061695538
v -0.198860690 0.639199615 0.000750371
v -0.022016307 0.889040172 -0.139615461
v 0.024674421 0.722260892 0.035996851
v -0.028892789 0.627958834 -0.054888617
v -0.043221034 0.893583655 -0.145475730
v 0.146305472 0.827335000 0.065550879
v -0.049748849 0.913438499 -0.144500747
v -0.188024908 0.864095509 0.008909060
v 0.163207486 0.777380824 0.067931816
v -0.199764177 0.844962120 0.006849052
v 0.144359186 0.759494185 0.073372275
v -0.195391417 0.852712810 -0.030871188
v -0.200895831 0.836874604 -0.015844965
v 0.150720343 0.803349376 0.068458989
v -0.197757691 0.859351933 -0.010134449
v 0.123298489 0.768886387 0.079859272
v -0.200492471 0.583358526 -0.032977842
v -0.209735602 0.627628088 -0.016473047
v 0.105806671 0.671954870 0.070063695
v 0.127458766 0.670051277 0.076000206
v 0.099671438 0.734655678 -0.106852174
v 0.096423216 0.897300720 0.055890966
v -0.028895155 0.638681293 0.023276057
v 0.128447577 0.920883358 0.051575940
v -0.187118635 0.868535817 -0.044697445
v 0.136429310 0.689687073 0.074064925
v 0.122433804 0.816381156 0.074018255
v -0.198915035 0.638668835 -0.025919100
v -0.182830989 0.862296104 -0.065078281
v 0.137558281 0.919957995 0.039553229
v -0.163599387 0.864581585 -0.098321162
v 0.136745840 0.786087275 0.074383810
v -0.069142945 0.779070795 -0.103280187
v 0.094224647 0.693293035 0.067200512
v -0.178525135 0.582008243 -0.042342238
v 0.101350799 0.770953774 0.075420126
v -0.193269759 0.620373487 -0.030389924
v -0.182284296 0.632686079 -0.062824748
v -0.166821778 0.579844534 -0.059518546
v 0.072824299 0.689371109 0.058124416
v 0.111679792 0.792431593 0.079737283
v -0.069378510 0.743619800 -0.100808918
v 0.091063216 0.787387252 0.071891740
v -0.174168184 0.597800374 -0.054650616
v -0.169898003 0.649614751 -0.069265321
v 0.058172099 0.705785573 0.053655826
v -0.084460385 0.762176812 -0.105657533
v -0.164387450 0.588440776 -0.077330016
v 0.016251231 0.807988048 -0.097475313
v 0.090200283 0.812190413 0.071392007
v 0.072643802 0.832340419 0.062166810
v -0.161842555 0.628147721 -0.068665624
v 0.130416363 0.906517327 0.040012948
v 0.016539123 0.674461007 -0.065189973
v 0.018370405 0.656895459 -0.061156958
v -0.145564854 0.583369434 -0.066951431
v 0.141734347 0.911407351 0.029076526
v -0.127776980 0.754541755 -0.123120330
v 0.150845528 0.914692998 0.015328834
v -0.129094422 0.637414336 -0.081728451
v 0.042791016 0.872839749 -0.145310327
v -0.142816141 0.622451782 -0.073974565
v 0.159794539 0.917164683 0.001151718
v 0.031382892 0.704984069 -0.074078947
v 0.034582648 0.726691604 -0.079901546
v -0.142617643 0.738535285 -0.115716182
v 0.168730512 0.918320775 -0.013142395
v -0.138664156 0.758108735 -0.106133297
v -0.110612988 0.906428516 -0.138365492
v -0.045430936 0.883543968 0.063584916
v 0.173770875 0.917114258 -0.029105967
v -0.138817996 0.579809070 -0.085021451
v -0.150981694 0.747995019 -0.096710220
v -0.127366215 0.616084039 -0.081173837
v -0.150828347 0.874852002 -0.114266559
v 0.185780227 0.918274224 -0.040126286
v -0.168419570 0.757727027 -0.090091713
v 0.032955669 0.641085744 -0.057457257
v -0.120199099 0.584288716 -0.093439862
v -0.182182044 0.746996582 -0.077533968
v 0.171661869 0.922859192 -0.041966535
v -0.136734694 0.861486793 -0.122722030
v 0.169353604 0.924007297 -0.058208913
v -0.193841770 0.763779461 -0.062562779
v -0.135892600 0.622768521 -0.095631212
v 0.187637553 0.712648988 0.055507641
v 0.165364891 0.924947619 -0.074025348
v -0.203434944 0.749549031 -0.049269937
v 0.044158097 0.745941579 -0.091421895
v -0.099582948 0.589344382 -0.085949235
v -0.031058218 0.607394636 -0.048231028
v 0.158630237 0.925561249 -0.089050673
v -0.208239108 0.766731381 -0.042732097
v 0.199617997 0.783580244 0.031370774
v -0.027945276 0.672594547 0.028217142
v 0.138443798 0.925437748 -0.114789903
v 0.196315080 0.757633567 0.042217799
v -0.071690455 0.760922074 0.062429957
v -0.104337290 0.626280189 -0.084021769
v -0.089742459 0.600480080 -0.069562122
v 0.053984106 0.643253267 -0.065807074
v -0.089308575 0.634072483 -0.095390670
v -0.071417987 0.618947625 -0.066362888
v -0.068886802 0.598013937 -0.058848888
v 0.073896870 0.671268821 -0.083057314
v 0.056912012 0.726976216 -0.091078207
v -0.194616690 0.730888367 0.045484841
v 0.048031848 0.786338210 0.054114085
v 0.039863817 0.764933944 0.046650268
v -0.196234524 0.753648698 0.043366294
v 0.033405337 0.743203819 0.041783940
v -0.033876270 0.770011067 -0.088286959
v 0.096151337 0.710012555 -0.100843921
v -0.182110026 0.766921937 0.061339177
v -0.068313405 0.654349506 -0.075531274
v -0.074668542 0.637290895 -0.073013268
v 0.105712190 0.658656836 -0.092791781
v -0.177608192 0.743827224 0.062275570
v -0.050624471 0.620298862 -0.055671800
v 0.129760772 0.925918400 -0.127269566
v 0.122302666 0.678185403 -0.093706250
v -0.057516981 0.640247524 -0.066470198
v -0.157912433 0.759748459 0.068711750
v -0.050634354 0.669115603 -0.073183164
v 0.114111200 0.925684631 -0.130553097
v -0.038220648 0.647153378 -0.059376597
v 0.112249747 0.633764863 -0.086166359
v -0.192371532 0.597105742 -0.011299166
v -0.189218298 0.583389759 0.010880077
v 0.135767549 0.667797208 -0.102730945
v -0.148288503 0.740657568 0.072146095
v -0.131782085 0.753971934 0.077139005
v 0.117902614 0.721189141 -0.107282534
v -0.078600660 0.823156714 0.064813800
v -0.069582708 0.923850238 0.062965110
v -0.120486952 0.730763435 0.079829723
v 0.137629449 0.710841894 -0.111823961
v -0.108114466 0.750496447 0.076369800
v -0.089671627 0.804633915 0.071511298
v 0.160353109 0.716481090 -0.085386932
v -0.094575830 0.732004821 0.069761448
v 0.111363932 0.853464007 -0.135979950
v -0.079259597 0.782997251 0.066348471
v -0.102886952 0.787430167 0.076158829
v 0.177145064 0.707264602 -0.074736089
v -0.094774731 0.767960012 0.072047874
v 0.179827526 0.650858164 -0.075381823
v 0.179443717 0.664636016 -0.063169137
v -0.088026270 0.749951005 0.068321057
v -0.071722277 0.737837851 0.061050933
v -0.117070600 0.770470500 0.080498539
v -0.032849602 0.754104435 0.039928678
v -0.126296043 0.789399207 0.076301865
v -0.114785895 0.807185769 0.077212214
v 0.189133316 0.702062309 -0.057780575
v 0.199476689 0.671606660 -0.036504738
v -0.066055506 0.800869167 0.060624637
v -0.140525162 0.773212492 0.074367449
v -0.050986249 0.674451232 0.039066229
v -0.139146596 0.807180226 0.070560381
v 0.189584151 0.679411948 -0.052695684
v -0.156639665 0.823919892 0.062768862
v 0.208978295 0.667305470 -0.019698674
v -0.182910770 0.789938807 0.059227984
v 0.208197162 0.710571408 -0.021378551
v -0.163304806 0.779987931 0.067431435
v -0.069268711 0.842664719 0.056928605
v -0.178402871 0.811668277 0.054306049
v 0.205123276 0.626683116 -0.018209955
v -0.071549527 0.882248700 0.060559850
v -0.007048006 0.768698573 -0.082767092
v -0.067580417 0.902491391 0.062667325
v -0.188016564 0.816156864 0.036209211
v -0.205970839 0.763691783 0.021986630
v -0.047319196 0.906500161 0.065979302
v -0.006128289 0.787172735 -0.086415879
v -0.102431849 0.921118379 0.051211767
v -0.211008430 0.753028393 -0.001151886
v 0.074217021 0.828450501 -0.127705604
v 0.119469687 0.894655228 -0.135245815
v -0.204969972 0.823364913 0.003138089
v -0.086774901 0.922940850 0.058859807
v 0.207704186 0.705424964 0.003743614
v 0.098677471 0.926236451 -0.136343583
v -0.186729372 0.872505963 -0.024018105
v 0.206241697 0.720598817 0.020472076
v -0.210163280 0.768910706 -0.019795563
v -0.209055424 0.792396367 -0.017817998
v -0.205028981 0.814782321 -0.019042086
v 0.082541294 0.926845193 -0.139962822
v 0.210825130 0.760331273 0.001805054
v 0.065986089 0.927458286 -0.140501529
v -0.091339566 0.844421089 0.070438124
v -0.018050477 0.866417885 -0.135962427
v 0.197283581 0.710390925 0.037716176
v 0.049391571 0.928116322 -0.139555439
v 0.058748722 0.912102401 -0.145647615
v 0.195462704 0.618373036 0.004712920
v -0.088384546 0.901303887 0.058227640
v -0.021845102 0.846442997 -0.130906910
v -0.200200722 0.786652923 -0.055116676
v -0.168309495 0.878923416 -0.078583591
v -0.102209553 0.825292110 0.075255468
v 0.032451615 0.928866267 -0.136905462
v -0.188556433 0.786366642 -0.074274406
v 0.015389323 0.929077148 -0.132526070
v -0.157438859 0.792717814 -0.100540660
v 0.184146330 0.623993278 0.037823960
v -0.173226446 0.779951274 -0.091859847
v 0.014597185 0.915962577 -0.135111585
v -0.002578051 0.929306626 -0.131078228
v 0.191362515 0.690055251 0.045903109
v 0.183762342 0.666136682 0.051278256
v 0.081695989 0.797317207 -0.108485378
v 0.019064775 0.894120514 0.066780165
v -0.162076965 0.815841317 -0.099265471
v -0.153969944 0.770220399 -0.099223211
v -0.165573418 0.904406726 -0.086510941
v 0.065402709 0.814832866 -0.114578679
v 0.171709254 0.688966632 0.059851665
v -0.134837463 0.780339777 -0.109379552
v -0.060620874 0.580641866 -0.045942880
v -0.105474532 0.790700138 -0.127980977
v -0.073594369 0.577532887 -0.055897485
v -0.088313594 0.575371981 -0.062918626
v -0.118113056 0.774905145 -0.126679733
v 0.149559110 0.676331043 0.067264676
v 0.162473112 0.659173369 0.059627779
v -0.102896556 0.573891759 -0.069955468
v 0.153902858 0.633570433 0.060482848
v -0.110224411 0.834852338 -0.125643745
v 0.041937225 0.887611985 0.064683400
v 0.026397478 0.873057187 0.064154096
v -0.108978726 0.568979919 -0.082849339
v 0.152976424 0.702161014 0.068113670
v -0.106429055 0.812399209 -0.132852286
v 0.134903640 0.708126187 0.075415224
v 0.140540093 0.651855111 0.069246367
v -0.122115955 0.569124579 -0.073626712
v -0.002827593 0.806455731 0.038680274
v -0.004252394 0.788945019 0.037470821
v -0.095418483 0.799759507 -0.113680504
v -0.120127797 0.562027812 -0.088038228
v -0.078728005 0.847541034 -0.143235385
v -0.102383420 0.778253734 -0.112205803
v -0.134600684 0.560440183 -0.085583694
v -0.134620652 0.562936485 -0.069581479
v -0.150116652 0.562132120 -0.069505312
v -0.053137951 0.774757266 0.055412434
v -0.030876312 0.776021421 0.041034788
v 0.087107576 0.675356984 0.062686495
v 0.090274349 0.655042648 0.062342413
v -0.164489418 0.563260913 -0.077478483
v -0.161761209 0.564987898 -0.061469246
v -0.035008173 0.711997986 0.036081847
v 0.071041122 0.667342246 0.055464935
v 0.053006213 0.682619750 0.044728454
v -0.171609595 0.563153148 -0.048974741
v -0.076356865 0.830767155 -0.130385876
v 0.079509392 0.710015953 0.062676206
v -0.179430112 0.562781930 -0.034966405
v -0.055937208 0.697505713 0.051368106
v 0.031433601 0.682837129 0.032654464
v -0.039892972 0.656135440 0.029963190
v -0.093444139 0.830188870 -0.137948841
v 0.027884167 0.636781693 0.025585866
v -0.069828562 0.674462199 0.055167340
v 0.072494581 0.748544753 0.062465064
v -0.041081063 0.623171747 0.025189523
v -0.060644470 0.624932885 0.040232632
v -0.056861211 0.855878234 -0.144044042
v -0.073167898 0.866945446 -0.148270279
v -0.075996563 0.715990424 0.061300833
v -0.058968306 0.879725814 -0.148457542
v 0.088680290 0.858351409 -0.144266456
v -0.195483655 0.560056448 -0.035587218
v 0.085910574 0.730765104 0.066735327
v -0.080391094 0.628397584 0.054756828
v -0.100964651 0.711699605 0.070818342
v 0.093678966 0.836898923 -0.135359406
v -0.082529828 0.653989315 0.058660932
v -0.092501178 0.675037622 0.064380974
v -0.081436001 0.863344848 0.064338051
v 0.072701454 0.648954749 -0.075232126
v -0.057110906 0.862755954 0.057008922
v 0.105730198 0.735054135 0.074957162
v -0.101454690 0.658267796 0.066658385
v 0.130641907 0.850929141 -0.120848954
v -0.187016219 0.561703324 -0.023159251
v -0.033601061 0.732842803 0.038171306
v 0.088982008 0.637030244 -0.087267786
v -0.188878998 0.561035514 0.008225488
v -0.134094507 0.684414685 0.074399710
v 0.085901961 0.657161593 -0.086728595
v -0.180858821 0.561358631 0.022038452
v -0.115099229 0.670986533 0.073342949
v 0.121000424 0.721402824 0.079859436
v 0.127117112 0.744098365 0.079225197
v 0.126868576 0.871337056 -0.133297652
v -0.177489489 0.561557472 0.037720077
v -0.123893321 0.706790626 0.078678139
v -0.163926318 0.563151956 0.046161957
v -0.135203436 0.662272811 0.071454734
v -0.149607807 0.565077782 0.053217065
v -0.162706763 0.570315957 0.061547689
v -0.143350258 0.702404141 0.071505122
v -0.155892342 0.671158552 0.072086990
v -0.148495138 0.566048324 0.067266032
v 0.145735294 0.729626060 0.072695918
v -0.158823237 0.690544605 0.068451479
v -0.133680508 0.565897048 0.061494362
v -0.117059156 0.564812779 0.061806358
v 0.130116060 0.624078572 -0.077974066
v -0.160911366 0.709587693 0.065271713
v 0.185779110 0.737775862 0.059274901
v 0.132870227 0.641327083 -0.081268586
v 0.157915145 0.904844105 -0.101199970
v -0.101651408 0.564624548 0.054995291
v -0.153629214 0.651597142 0.073391266
v -0.086356930 0.565066874 0.047745362
v 0.132316023 0.909054458 -0.127283290
v -0.072735541 0.566356182 0.037501972
v -0.062394131 0.568467021 0.024142262
v 0.197529763 0.731910348 0.039795544
v 0.144990712 0.867797375 -0.119044997
v -0.048636835 0.569813311 0.014249250
v -0.031675633 0.569531977 0.015403055
v -0.179810673 0.720102906 0.059068479
v -0.027586967 0.584726095 0.022429852
v -0.173278138 0.677984118 0.057207417
v 0.146319658 0.629773498 -0.087619737
v 0.152153641 0.847858310 -0.105507180
v 0.207501575 0.744014680 0.020988522
v -0.193128601 0.707859695 0.045849495
v -0.187377185 0.663004279 0.044994514
v -0.191099644 0.685507655 0.044744283
v -0.046650223 0.743288815 -0.091847837
v 0.159732908 0.625782490 -0.072703831
v 0.210176989 0.758408189 -0.020828094
v 0.151608780 0.886496067 -0.111408636
v 0.010047060 0.789259553 -0.087994523
v -0.057381231 0.763150930 -0.098176688
v 0.065326780 0.745970845 -0.097954467
v -0.052764494 0.723116755 0.052482598
v 0.209883481 0.733278155 -0.004002297
v -0.198015809 0.672480285 0.025467113
v -0.208310872 0.711376250 0.009790959
v -0.192359835 0.797580183 0.039712556
v 0.179447666 0.629855394 -0.078895353
v -0.202203199 0.662545919 0.003833720
v 0.133000597 0.895084202 0.052230675
v 0.209207028 0.736008108 -0.030667707
v -0.205689594 0.686814666 0.005206497
v -0.207660675 0.702488244 -0.013489882
v -0.208374590 0.718700171 -0.030372500
v 0.173917159 0.620278180 -0.060996644
v 0.201282308 0.718766391 -0.045039479
v -0.211297303 0.651287615 -0.014816481
v -0.209470227 0.801105976 0.002256936
v 0.159634143 0.866791725 -0.101997480
v -0.034883440 0.923440099 0.068279415
v 0.198774844 0.742542624 -0.053376365
v 0.184976324 0.750119567 -0.073391430
v -0.086124152 0.817957282 -0.119769707
v -0.063694395 0.818702102 -0.120164648
v 0.179060653 0.641579628 -0.059109688
v -0.209582210 0.676591098 -0.020038677
v 0.180862948 0.606943607 -0.046103261
v 0.188826337 0.724884510 -0.063116685
v -0.020146843 0.929585099 -0.134151012
v -0.037257668 0.929327846 -0.137792602
v 0.173053518 0.848286927 -0.090275593
v 0.017749840 0.760322928 0.038092799
v -0.054180074 0.928738475 -0.140057802
v -0.051756978 0.747424185 0.053714525
v 0.177241951 0.727726758 -0.079080112
v 0.164886564 0.740432084 -0.088177875
v -0.070908025 0.927940547 -0.140695482
v 0.168956861 0.870908737 -0.083433114
v -0.198804632 0.656266510 -0.033248927
v -0.087442651 0.927141488 -0.139482066
v -0.092176676 0.906561375 -0.146281436
v -0.205456108 0.804953456 -0.040837325
v -0.103070259 0.926065087 -0.134952039
v -0.118345521 0.925045848 -0.129163742
v 0.144190326 0.729051292 -0.096131891
v -0.193509787 0.713890791 -0.054987647
v -0.193837494 0.811031818 -0.065615080
v -0.180724889 0.826560795 -0.085791096
v -0.195397973 0.674334168 -0.044599466
v 0.182603896 0.857179523 -0.068740271
v 0.172001868 0.907013237 -0.070944205
v -0.181425393 0.616920531 -0.048566386
v 0.052037615 0.745939255 0.054067601
v 0.134056374 0.733027279 -0.115906790
v -0.070777036 0.800042927 -0.109941043
v -0.180521518 0.725282371 -0.075133741
v 0.173346773 0.899829984 -0.052740328
v -0.084899463 0.784084439 -0.108229734
v -0.175145075 0.611487150 -0.070127279
v 0.117393509 0.741997302 -0.111351848
v -0.180063277 0.669342995 -0.063784316
v -0.156351060 0.668392539 -0.077849060
v 0.174117297 0.894661605 -0.033595525
v -0.172665447 0.684670627 -0.073139936
v -0.160978958 0.714771569 -0.085234247
v 0.194697708 0.854343235 -0.028468838
v -0.149260968 0.644641995 -0.077029534
v -0.029535513 0.668296456 -0.063879952
v 0.079612121 0.729044735 -0.099236764
v -0.134152144 0.925099969 -0.128521308
v -0.139439672 0.924538612 -0.114456512
v -0.144858211 0.727284133 -0.095862761
v -0.140060663 0.705308914 -0.093255013
v -0.137311667 0.682482660 -0.088339254
v -0.134201586 0.659453213 -0.086011544
v -0.123771213 0.819983602 -0.115544930
v 0.070852324 0.788860440 0.063627012
v 0.188600689 0.629897237 -0.040253054
v -0.158846453 0.925567329 -0.088471264
v -0.165427223 0.925404072 -0.073585376
v 0.199232668 0.649004877 -0.029413294
v -0.010803554 0.581666827 -0.042491056
v -0.169129416 0.924312890 -0.057699986
v 0.195186660 0.857285798 -0.003616668
v -0.171751022 0.922382832 -0.041712150
v -0.170899481 0.920348763 -0.026589658
v -0.183128074 0.923125267 -0.018797169
v 0.208005160 0.758231819 -0.042631000
v 0.187222689 0.902658165 -0.023996213
v -0.168296069 0.918525577 -0.012718322
v -0.160259649 0.917951465 -0.000289144
v -0.151771411 0.916762650 0.013040207
v 0.048073288 0.785467446 -0.097411826
v -0.142906398 0.914774239 0.026084378
v 0.175766960 0.894115448 -0.012381642
v -0.132299230 0.912780941 0.037517678
v -0.138545603 0.644991279 -0.100081265
v 0.189517260 0.850284696 0.018744547
v 0.013136971 0.712125838 -0.073411547
v -0.009110047 0.697933793 -0.070013627
v -0.008420237 0.715345025 -0.072798200
v 0.145307750 0.906500816 -0.114499435
v -0.139860108 0.667994678 -0.105676152
v -0.007819302 0.732833564 -0.076657906
v -0.139109761 0.715302408 -0.115335844
v 0.011326539 0.731815457 -0.077253632
v -0.007674345 0.750586629 -0.079953440
v -0.135278255 0.922368348 0.049948938
v 0.151753947 0.754997849 -0.097017691
v 0.167769611 0.895559609 0.005741849
v -0.119453967 0.658542752 -0.099266440
v -0.126546085 0.910538197 0.053969074
v -0.117699370 0.918573380 0.043718513
v 0.163252085 0.881413758 0.027703473
v 0.042451568 0.850897908 -0.139547691
v -0.139202058 0.691426992 -0.110939696
v -0.119664863 0.732747018 -0.109276354
v 0.153536513 0.898847103 0.017932376
v -0.120466091 0.682293534 -0.099480778
v 0.180067167 0.840191364 0.037927490
v -0.100958645 0.671454430 -0.094505168
v -0.006293242 0.737340868 0.033378802
v -0.107246757 0.900713623 0.050312530
v 0.148818552 0.905582130 0.044389512
v 0.155249327 0.888539672 0.052295499
v 0.144825280 0.892951667 0.034007035
v -0.085507281 0.657851100 -0.099878788
v -0.099673733 0.694284737 -0.099420361
v -0.079990700 0.681274116 -0.102428518
v 0.049759038 0.645423651 0.036247667
v -0.099544734 0.717215419 -0.103912279
v 0.047918119 0.893736184 -0.145825744
v -0.076919377 0.704567194 -0.103371307
v 0.023196964 0.885848403 -0.139902160
v -0.040452641 0.842029393 -0.134963647
v -0.037771266 0.867756069 -0.143281996
v 0.198919401 0.640489161 0.002203113
v 0.189205512 0.648505688 0.035709433
v -0.058724899 0.695340514 -0.084421158
v -0.061270542 0.721758008 -0.091561675
v -0.150745422 0.925449848 -0.102629863
v 0.170453787 0.851971149 0.049407654
v 0.150873452 0.849445522 0.057306625
v -0.189124659 0.578035593 -0.013243316
v 0.167356282 0.615026236 0.052031033
v 0.175046325 0.640465021 0.051921599
v -0.186186239 0.561671853 -0.007451090
v 0.137621596 0.869478405 0.052367546
v -0.049771599 0.599072516 -0.046564601
v -0.044817794 0.581728816 -0.048469670
v 0.013228172 0.616871238 0.018233489
v -0.028731788 0.581592381 -0.044226751
v -0.000933678 0.922984123 0.069531731
v 0.064131565 0.882806957 -0.148773357
v -0.017713580 0.922791362 0.068963625
v -0.031783752 0.607891917 0.019710414
v 0.133611396 0.627614141 0.072308399
v 0.036249582 0.906564355 0.067273609
v 0.086447984 0.585972846 0.051625870
v 0.073687159 0.601216674 0.048325654
v 0.107906722 0.597582340 0.063049033
v 0.045788631 0.829449832 -0.125402525
v 0.127862439 0.603017867 0.073488884
v 0.059107780 0.606091440 0.033660781
v 0.191347852 0.596220016 0.008371012
v 0.128459826 0.842623711 0.064974546
v 0.116203941 0.860807121 0.060630374
v 0.182133794 0.875178158 0.007947139
v 0.111031830 0.620227218 0.067754433
v 0.192962840 0.878498435 -0.020087769
v 0.185198218 0.872453094 -0.045903929
v 0.055934805 0.903902829 0.064662360
v 0.091558799 0.632656038 0.060599454
v 0.113996707 0.646513343 0.071361259
v 0.173480019 0.882197857 -0.066367045
v 0.165629894 0.895294309 -0.083990403
v 0.091031283 0.610090017 0.057358623
v 0.162506923 0.884845376 -0.097340301
v 0.163848937 0.599633574 -0.063019902
v 0.171707809 0.605314612 -0.083922260
v 0.069198735 0.643407106 0.051972300
v 0.143122211 0.606787086 -0.076072574
v 0.137438744 0.888888657 -0.125113338
v 0.071677305 0.620820642 0.050428532
v 0.115554690 0.694921732 0.075907528
v 0.146567777 0.608103275 0.060642075
v 0.179287970 0.599942744 0.039029382
v 0.196315259 0.608224750 0.026082566
v 0.200560734 0.695541143 -0.041385580
v 0.142635792 0.702753365 -0.090961471
v 0.053583227 0.626365781 0.034971718
v 0.138677329 0.687985361 -0.106853411
v 0.200250715 0.609311044 -0.032902028
v 0.193573087 0.604749143 -0.012311463
v 0.038656238 0.661994576 0.032600947
v 0.010493175 0.683540940 0.027830455
v 0.097993575 0.869725704 0.062570386
v 0.075399980 0.902255058 0.061819196
v 0.017159749 0.702949941 0.031531602
v 0.037989959 0.805105329 0.046059605
v 0.023331923 0.782952070 0.041235942
v 0.019432815 0.622092187 -0.052170087
v 0.063053027 0.883596063 0.061723273
v 0.037986431 0.662195385 -0.063734546
v 0.035645291 0.856693923 0.057553869
v 0.050799716 0.867595971 0.060336553
v 0.016447004 0.855430007 0.059022795
v 0.036955770 0.603047967 -0.049494967
v 0.056051977 0.666287124 -0.074220970
v 0.080992088 0.769037604 0.066986971
v 0.202013105 0.695831060 0.025522504
v 0.194528729 0.796587288 -0.064927280
v 0.062262904 0.600929499 -0.056392282
v 0.162018940 0.692311585 -0.084543139
v 0.121774927 0.778923273 -0.122508682
v 0.120337442 0.700031638 -0.100478984
v 0.087800220 0.598302960 -0.067625053
v 0.049250685 0.706813335 -0.083721682
v 0.036118500 0.767288327 -0.089858212
v 0.116319254 0.608589590 -0.079782277
v 0.102957323 0.591163635 -0.088182859
v 0.100583240 0.901002228 -0.142967507
v 0.081913605 0.882144451 0.059633594
v 0.076243408 0.858459771 0.056592554
v 0.124188818 0.586656988 -0.073421143
v 0.029424364 0.840132415 0.051923644
v 0.048004806 0.825790107 0.049166560
v 0.078298241 0.902821362 -0.147835553
v 0.151174903 0.584460735 -0.073608130
v 0.170740545 0.762995601 -0.089366861
v 0.020453040 0.825074792 -0.111652948
v 0.166224241 0.644182563 -0.080517851
v 0.177200466 0.583792984 -0.073581368
v 0.014434862 0.692972541 -0.069527186
v 0.161021546 0.580219269 -0.061259277
v 0.028966278 0.789115667 -0.092927143
v 0.176284045 0.584205389 -0.046308186
v 0.186606020 0.594932675 -0.032247096
v 0.065378159 0.727407575 0.058284938
v 0.105822623 0.876464486 -0.141196251
v 0.085033879 0.880979717 -0.147720486
v 0.015574589 0.768907666 -0.084598869
v 0.201810792 0.587800920 -0.022362433
v 0.125776798 0.657369971 -0.087992229
v 0.208397195 0.648405790 -0.012749895
v 0.199041724 0.632125735 0.022596391
v 0.149839014 0.650658488 -0.077637523
v 0.143250391 0.651011705 -0.095301509
v 0.192438275 0.582779050 0.028666297
v 0.167663559 0.835126102 0.057413369
v 0.201928765 0.833875299 0.008636559
v 0.189677194 0.655445933 -0.046861164
v 0.049004696 0.622896731 -0.054255754
v 0.160353243 0.587254286 0.051383238
v 0.092024788 0.751210451 0.070531391
v 0.202286646 0.663382947 -0.001281130
v 0.200898364 0.655767798 0.018262660
v 0.090820849 0.673303723 -0.090552524
v 0.139359266 0.582611859 0.061036222
v 0.117863879 0.829894185 -0.128533542
v -0.005858744 0.754435897 0.034673858
v -0.007900369 0.669654846 0.025028279
v 0.056519866 0.660544753 0.044208504
v 0.120228827 0.581037819 0.072647125
v 0.137464553 0.832303822 -0.108548485
v -0.007132681 0.720424473 0.030892689
v -0.005240153 0.771658063 0.036167961
v 0.104702912 0.578150511 0.058892153
v 0.022222031 0.823136032 0.043799825
v -0.002201716 0.823415756 0.042709749
v 0.114487685 0.880269647 0.047727387
v 0.067061946 0.585883856 0.036837816
v 0.114357784 0.903084159 0.047205016
v 0.189527825 0.581829190 -0.008391855
v 0.109627828 0.753906310 0.077821836
v 0.033361282 0.907866180 -0.142978594
v 0.045393031 0.588736713 0.025337685
v 0.064895853 0.863375068 -0.147190481
v 0.018343117 0.592931509 0.020386532
v 0.037387647 0.611677825 0.023403596
v 0.040289208 0.809690356 -0.106016219
v 0.015786581 0.804114044 0.040127955
v 0.015561134 0.659784138 0.024840629
v -0.008654324 0.652912974 0.022455821
v -0.007325283 0.703389347 0.029259134
v 0.186485305 0.578166962 -0.026897699
v -0.007408448 0.686443925 0.027435755
v 0.074147046 0.623177230 -0.068610370
v 0.086200334 0.751288056 -0.104575351
v 0.106247209 0.762613654 -0.111552700
v 0.164434597 0.746854663 0.067301489
v 0.100644037 0.713929296 0.071407609
v 0.167845458 0.720518827 0.063924000
v 0.093492761 0.613875091 -0.087733306
v 0.187818766 0.575995147 0.009844843
f 555 540 123
f 389 162 497
f 567 540 568
f 583 104 251
f 463 489 430
f 453 94 255
f 483 484 162
f 446 640 671
f 574 577 251
f 50 244 238
f 52 244 50
f 575 57 53
f 55 249 52
f 55 2 250
f 577 248 563
f 575 437 432
f 57 597 589
f 2 265 262
f 589 592 57
f 262 259 2
f 5 267 262
f 602 606 589
f 5 9 11
f 58 606 610
f 11 272 5
f 12 278 11
f 565 793 8
f 630 60 632
f 13 425 12
f 424 289 160
f 289 424 13
f 643 649 60
f 181 403 179
f 483 206 484
f 163 651 174
f 53 563 558
f 651 65 650
f 163 389 384
f 683 66 65
f 455 558 563
f 165 384 171
f 340 331 34
f 67 66 683
f 206 470 63
f 385 102 856
f 67 702 70
f 344 340 696
f 179 403 406
f 710 70 702
f 16 352 14
f 111 112 59
f 63 64 655
f 18 368 16
f 710 742 753
f 119 112 111
f 394 671 545
f 551 922 903
f 19 375 18
f 753 740 711
f 406 470 179
f 261 615 108
f 545 453 439
f 178 386 530
f 24 386 23
f 72 753 742
f 26 396 24
f 768 765 72
f 119 142 112
f 32 63 470
f 112 142 161
f 399 400 396
f 154 343 182
f 545 671 448
f 399 415 400
f 768 770 765
f 32 406 410
f 418 415 399
f 770 183 777
f 387 300 166
f 415 418 422
f 105 86 299
f 169 42 839
f 170 142 119
f 173 172 705
f 329 638 343
f 134 738 737
f 185 638 329
f 692 661 145
f 150 74 741
f 637 345 873
f 132 145 661
f 170 184 142
f 138 495 760
f 138 136 188
f 136 194 188
f 201 87 194
f 270 87 205
f 216 49 210
f 46 216 724
f 198 184 170
f 43 96 907
f 219 39 218
f 45 43 41
f 224 37 219
f 498 224 514
f 86 105 342
f 225 36 514
f 378 107 110
f 80 233 107
f 22 41 43
f 198 217 849
f 41 581 45
f 103 233 76
f 76 40 103
f 222 217 214
f 678 100 40
f 98 41 22
f 366 41 98
f 40 76 678
f 215 4 284
f 215 98 21
f 537 536 92
f 222 234 217
f 904 537 92
f 460 462 30
f 284 471 366
f 222 239 246
f 586 903 759
f 462 28 30
f 246 234 222
f 454 449 28
f 237 391 924
f 560 319 921
f 246 888 252
f 431 471 282
f 455 560 391
f 319 560 241
f 50 238 793
f 50 566 52
f 52 574 55
f 258 263 510
f 244 52 249
f 55 253 2
f 284 792 657
f 303 670 667
f 303 100 674
f 250 249 55
f 273 274 252
f 251 253 574
f 100 303 301
f 301 570 100
f 104 261 257
f 677 100 678
f 273 285 274
f 257 2 253
f 2 257 265
f 250 2 259
f 570 568 40
f 752 292 293
f 294 296 285
f 285 296 274
f 684 497 679
f 277 274 296
f 440 447 442
f 579 489 463
f 692 329 695
f 259 262 267
f 871 736 360
f 262 271 9
f 40 100 570
f 570 567 568
f 203 128 270
f 310 296 294
f 305 296 310
f 87 270 194
f 9 5 262
f 5 272 600
f 276 9 271
f 9 276 11
f 272 11 278
f 302 323 310
f 568 103 40
f 108 615 89
f 280 11 276
f 11 280 12
f 103 568 540
f 278 12 425
f 323 337 328
f 283 12 280
f 12 283 13
f 283 297 289
f 289 13 283
f 540 561 231
f 425 13 424
f 209 288 205
f 291 125 286
f 346 337 323
f 49 304 288
f 173 350 351
f 297 654 314
f 347 158 864
f 304 47 311
f 47 304 49
f 47 46 481
f 360 361 855
f 501 684 146
f 481 311 47
f 46 39 481
f 343 695 329
f 314 289 297
f 289 314 160
f 481 321 308
f 481 39 321
f 325 122 321
f 325 321 37
f 37 321 39
f 333 160 314
f 324 266 333
f 527 107 231
f 84 121 325
f 36 327 498
f 160 333 34
f 327 120 84
f 36 82 371
f 277 393 390
f 689 34 333
f 34 689 340
f 313 34 331
f 266 334 689
f 334 260 341
f 340 335 331
f 107 527 110
f 54 404 405
f 696 14 344
f 61 401 44
f 38 299 407
f 358 14 348
f 14 358 16
f 344 14 352
f 356 704 712
f 352 16 368
f 413 62 417
f 370 16 358
f 16 370 18
f 175 705 134
f 713 115 110
f 371 27 378
f 27 371 82
f 381 18 370
f 18 381 19
f 368 18 375
f 80 378 27
f 19 381 235
f 19 395 23
f 19 23 178
f 202 506 913
f 23 395 24
f 386 24 396
f 398 24 395
f 24 398 26
f 26 398 220
f 26 412 399
f 396 26 399
f 418 399 412
f 164 180 444
f 444 443 164
f 175 173 705
f 685 84 120
f 422 300 415
f 685 121 84
f 172 169 300
f 172 300 422
f 78 80 27
f 226 365 78
f 89 615 114
f 240 485 309
f 134 737 175
f 226 27 82
f 245 459 452
f 187 186 140
f 243 459 245
f 189 187 130
f 581 466 579
f 467 472 637
f 308 122 240
f 138 579 466
f 430 255 463
f 499 435 430
f 453 430 435
f 435 440 439
f 435 499 450
f 243 479 281
f 308 321 122
f 897 438 584
f 439 453 435
f 243 281 893
f 450 440 435
f 480 859 865
f 440 449 447
f 442 439 440
f 450 449 440
f 447 449 454
f 492 488 493
f 127 458 456
f 449 456 28
f 82 225 708
f 454 28 462
f 28 456 30
f 456 450 127
f 30 456 458
f 225 82 36
f 30 464 460
f 506 507 502
f 126 469 125
f 287 508 509
f 207 507 506
f 410 460 32
f 126 306 477
f 460 464 644
f 644 32 460
f 32 644 63
f 475 31 576
f 470 406 32
f 64 63 644
f 306 309 477
f 125 464 458
f 528 795 511
f 516 523 524
f 655 206 63
f 206 655 484
f 206 474 470
f 162 679 497
f 316 322 822
f 313 160 34
f 37 498 325
f 523 316 534
f 497 684 501
f 501 146 505
f 146 512 503
f 505 503 513
f 263 515 510
f 512 120 115
f 503 512 91
f 517 513 503
f 115 713 91
f 458 203 125
f 315 547 548
f 91 512 115
f 547 330 336
f 91 713 88
f 517 88 522
f 552 548 547
f 532 88 713
f 88 532 519
f 552 336 553
f 522 519 541
f 527 231 561
f 127 128 458
f 538 660 692
f 514 36 498
f 224 498 37
f 538 692 695
f 114 626 631
f 553 342 105
f 219 37 39
f 555 660 561
f 127 450 499
f 891 199 824
f 660 555 661
f 218 39 46
f 199 97 886
f 366 98 284
f 22 21 98
f 41 366 581
f 43 232 22
f 907 232 43
f 96 536 907
f 45 463 255
f 45 581 463
f 255 94 96
f 255 96 45
f 94 453 545
f 448 546 545
f 582 593 594
f 595 584 438
f 216 46 47
f 216 47 49
f 551 640 558
f 558 640 569
f 49 288 209
f 793 565 50
f 569 53 558
f 566 50 565
f 209 210 49
f 841 351 350
f 574 52 566
f 578 53 57
f 612 609 423
f 53 578 563
f 575 53 569
f 597 432 211
f 253 55 574
f 57 575 597
f 578 57 592
f 592 583 578
f 627 609 612
f 584 621 628
f 603 589 606
f 602 589 597
f 634 819 627
f 610 606 602
f 835 318 229
f 626 606 58
f 610 624 58
f 58 624 630
f 632 58 630
f 634 884 869
f 58 632 626
f 60 642 632
f 642 60 649
f 60 630 181
f 650 649 643
f 662 652 645
f 656 628 621
f 621 636 656
f 658 659 204
f 64 644 469
f 466 495 138
f 694 377 700
f 468 471 431
f 663 650 65
f 628 656 668
f 679 162 484
f 65 686 663
f 672 673 659
f 686 65 66
f 683 65 651
f 468 431 478
f 683 693 67
f 685 146 684
f 146 685 512
f 696 340 689
f 66 67 701
f 473 495 478
f 66 698 686
f 702 67 693
f 668 675 687
f 701 698 66
f 405 690 54
f 701 67 70
f 54 690 564
f 14 696 348
f 711 70 710
f 699 70 711
f 702 709 710
f 229 318 236
f 657 282 471
f 710 709 742
f 753 756 740
f 756 753 72
f 742 754 72
f 72 754 768
f 72 765 756
f 766 765 770
f 490 193 496
f 130 772 496
f 770 776 766
f 15 719 168
f 87 201 148
f 183 770 768
f 201 194 136
f 422 705 172
f 633 777 338
f 777 633 150
f 408 74 633
f 638 185 408
f 106 730 258
f 688 379 694
f 275 631 118
f 185 692 145
f 197 750 749
f 736 737 738
f 263 258 730
f 738 741 743
f 185 145 143
f 743 741 744
f 744 741 74
f 744 467 879
f 132 140 145
f 123 132 661
f 741 738 150
f 123 540 567
f 773 772 567
f 738 134 150
f 78 27 226
f 238 623 1
f 264 279 779
f 776 150 134
f 134 705 420
f 695 541 538
f 104 599 261
f 365 681 680
f 761 762 763
f 365 678 76
f 76 78 365
f 411 156 420
f 156 411 220
f 541 519 538
f 220 764 156
f 76 233 78
f 80 78 233
f 168 789 387
f 70 699 701
f 398 395 228
f 434 437 445
f 779 780 887
f 428 432 434
f 926 317 706
f 197 749 745
f 213 6 4
f 279 785 780
f 419 427 428
f 148 201 745
f 454 462 419
f 526 782 783
f 381 734 235
f 410 414 419
f 493 769 913
f 511 4 215
f 4 511 213
f 406 414 410
f 208 731 729
f 21 511 215
f 210 728 727
f 794 800 823
f 511 21 529
f 470 474 179
f 724 218 46
f 227 110 115
f 118 280 275
f 219 218 722
f 806 800 794
f 803 804 256
f 716 778 225
f 224 219 720
f 407 86 690
f 356 734 381
f 389 497 380
f 809 795 528
f 810 806 811
f 717 716 514
f 497 501 380
f 317 697 429
f 810 818 821
f 913 771 202
f 341 698 699
f 373 376 159
f 369 177 373
f 341 260 698
f 260 334 266
f 365 226 681
f 517 522 354
f 828 821 818
f 354 362 364
f 569 640 446
f 519 522 88
f 767 828 818
f 266 324 676
f 602 597 211
f 804 834 256
f 121 240 122
f 345 868 918
f 610 602 211
f 169 839 166
f 427 195 211
f 643 179 174
f 683 651 165
f 693 683 171
f 627 884 634
f 324 654 676
f 846 397 841
f 841 397 374
f 362 709 369
f 580 397 846
f 192 188 190
f 192 499 489
f 128 192 190
f 270 205 203
f 205 288 286
f 291 306 126
f 208 148 733
f 288 304 291
f 304 311 306
f 311 481 308
f 286 125 203
f 283 118 297
f 589 599 592
f 283 280 118
f 227 115 120
f 747 805 732
f 707 226 82
f 107 378 80
f 275 114 631
f 118 646 297
f 89 114 275
f 231 233 103
f 87 209 205
f 816 872 870
f 271 108 89
f 248 560 455
f 248 241 560
f 108 271 265
f 566 565 241
f 86 876 690
f 622 244 619
f 517 91 88
f 574 566 248
f 715 662 889
f 244 249 618
f 249 250 614
f 882 465 718
f 253 251 257
f 774 465 882
f 250 259 608
f 883 494 774
f 921 391 560
f 259 267 604
f 54 564 847
f 251 577 583
f 600 267 5
f 89 276 271
f 503 91 517
f 690 405 407
f 275 276 89
f 892 573 582
f 272 278 596
f 248 577 574
f 280 276 275
f 425 588 591
f 425 424 781
f 781 313 572
f 424 313 781
f 572 585 781
f 314 654 324
f 136 197 201
f 313 557 572
f 237 551 558
f 554 331 335
f 334 341 348
f 760 136 138
f 335 344 549
f 341 699 704
f 348 696 334
f 921 319 7
f 358 348 704
f 344 352 544
f 912 582 594
f 903 586 551
f 352 368 543
f 381 370 356
f 368 375 539
f 788 8 3
f 535 375 178
f 221 795 809
f 828 767 562
f 559 833 920
f 921 920 899
f 546 448 898
f 903 922 836
f 38 903 299
f 235 228 395
f 405 669 407
f 546 92 94
f 400 518 520
f 92 546 904
f 639 35 926
f 386 396 525
f 927 926 33
f 928 605 930
f 200 490 298
f 94 545 546
f 96 92 536
f 927 56 852
f 143 472 408
f 220 412 26
f 400 520 521
f 412 220 411
f 109 113 152
f 920 832 559
f 418 412 411
f 152 113 746
f 387 789 786
f 420 418 411
f 746 161 867
f 418 420 422
f 490 773 298
f 496 772 773
f 394 442 445
f 562 767 832
f 739 636 820
f 204 725 658
f 773 490 496
f 725 223 635
f 447 454 428
f 472 186 637
f 215 284 98
f 189 130 496
f 458 464 30
f 410 462 460
f 125 469 464
f 635 247 487
f 487 269 629
f 641 487 629
f 268 269 487
f 269 393 629
f 390 269 268
f 469 126 64
f 349 761 763
f 655 64 477
f 303 674 670
f 290 393 277
f 611 290 928
f 163 474 483
f 928 307 605
f 635 641 648
f 531 605 533
f 677 674 100
f 477 309 485
f 506 202 207
f 679 485 240
f 240 121 684
f 312 912 594
f 684 679 240
f 121 685 684
f 186 187 345
f 503 505 146
f 912 332 892
f 772 130 132
f 685 120 512
f 501 505 159
f 725 648 658
f 505 513 373
f 513 517 364
f 892 847 564
f 110 527 713
f 714 847 339
f 522 541 154
f 51 714 346
f 231 103 540
f 714 51 404
f 541 695 343
f 567 772 123
f 502 500 506
f 578 577 563
f 867 659 673
f 577 578 583
f 597 575 432
f 592 104 583
f 913 492 493
f 845 167 839
f 599 104 592
f 386 178 23
f 599 603 615
f 110 227 378
f 615 261 599
f 706 402 639
f 603 626 114
f 132 123 772
f 624 610 195
f 409 706 317
f 746 673 682
f 114 615 603
f 120 327 227
f 624 414 403
f 691 429 697
f 642 631 632
f 642 118 631
f 429 433 853
f 646 118 642
f 642 649 646
f 152 682 691
f 682 433 691
f 181 643 60
f 654 297 646
f 122 325 121
f 140 130 187
f 421 416 617
f 123 661 555
f 309 308 240
f 698 260 686
f 702 693 177
f 698 701 699
f 672 441 436
f 291 126 125
f 109 691 697
f 143 140 186
f 874 872 816
f 665 441 672
f 188 192 489
f 665 658 653
f 712 704 699
f 653 451 665
f 927 697 317
f 712 740 734
f 648 461 653
f 178 375 19
f 923 880 116
f 641 461 648
f 740 756 748
f 748 758 228
f 926 706 639
f 479 641 482
f 754 742 362
f 354 754 362
f 407 669 38
f 203 458 128
f 482 629 620
f 756 765 758
f 182 754 154
f 128 127 192
f 254 246 252
f 611 382 620
f 764 398 228
f 499 192 127
f 764 766 156
f 766 776 156
f 930 611 928
f 420 156 776
f 140 132 130
f 788 7 8
f 387 166 168
f 420 776 134
f 136 760 197
f 300 387 415
f 750 197 760
f 745 201 197
f 148 208 209
f 733 148 745
f 258 35 106
f 593 533 605
f 731 208 733
f 236 318 910
f 729 210 208
f 728 210 729
f 727 216 210
f 188 489 579
f 929 573 556
f 724 216 727
f 573 929 582
f 723 218 724
f 722 218 723
f 720 219 722
f 717 224 720
f 514 224 717
f 188 579 138
f 876 556 573
f 707 681 226
f 898 904 546
f 472 143 186
f 212 795 221
f 899 391 921
f 854 925 931
f 213 795 212
f 140 143 145
f 404 54 714
f 833 922 924
f 415 387 786
f 143 408 185
f 238 3 793
f 1 3 238
f 31 799 752
f 622 238 244
f 918 799 515
f 380 376 171
f 915 752 357
f 617 476 421
f 619 244 618
f 618 249 616
f 616 249 614
f 636 739 613
f 388 613 10
f 614 250 608
f 357 791 915
f 383 688 388
f 608 259 607
f 571 438 576
f 295 667 666
f 92 96 94
f 607 259 604
f 372 726 700
f 667 295 303
f 367 726 372
f 604 267 601
f 298 295 207
f 923 875 880
f 363 732 367
f 408 467 74
f 148 209 87
f 298 301 295
f 359 747 363
f 601 267 600
f 359 355 755
f 600 272 598
f 598 272 596
f 353 755 355
f 301 298 773
f 596 278 591
f 747 755 751
f 591 278 425
f 588 425 781
f 388 688 813
f 769 771 913
f 763 353 349
f 202 771 200
f 506 500 913
f 74 467 744
f 773 570 301
f 82 708 707
f 320 647 326
f 500 492 913
f 331 554 557
f 242 910 320
f 344 335 340
f 910 908 647
f 554 335 550
f 239 222 703
f 549 550 335
f 549 344 544
f 166 167 168
f 544 352 543
f 543 368 542
f 17 15 167
f 17 845 157
f 907 536 919
f 157 850 155
f 155 850 153
f 542 368 539
f 150 633 74
f 153 854 151
f 151 854 149
f 149 858 147
f 147 862 144
f 539 375 535
f 759 903 38
f 530 535 178
f 144 862 141
f 141 866 139
f 139 866 137
f 530 386 525
f 137 870 135
f 525 396 521
f 135 870 872
f 133 872 131
f 131 874 129
f 129 923 117
f 923 874 875
f 170 119 902
f 521 396 400
f 20 932 101
f 99 101 932
f 99 886 97
f 95 97 199
f 95 891 93
f 93 896 90
f 518 400 786
f 90 896 85
f 85 901 83
f 83 905 81
f 169 166 300
f 81 905 79
f 77 79 796
f 77 909 75
f 439 394 545
f 75 914 73
f 73 914 71
f 71 916 69
f 442 394 439
f 468 466 366
f 442 447 434
f 7 562 920
f 794 534 811
f 924 899 833
f 434 447 428
f 428 454 419
f 419 462 410
f 38 898 759
f 902 111 897
f 466 468 495
f 526 524 534
f 25 59 56
f 96 43 45
f 895 401 61
f 182 343 338
f 483 389 163
f 483 162 389
f 897 59 25
f 883 894 775
f 776 777 150
f 59 897 111
f 380 384 389
f 774 882 893
f 111 902 119
f 778 708 225
f 501 159 380
f 167 166 839
f 159 505 373
f 176 191 867
f 373 513 369
f 364 369 513
f 850 890 925
f 354 364 517
f 354 522 154
f 177 369 709
f 154 541 343
f 446 445 437
f 376 380 159
f 204 223 725
f 217 198 214
f 214 703 222
f 437 569 446
f 610 211 195
f 414 624 195
f 403 630 624
f 889 718 715
f 160 313 424
f 181 630 403
f 888 246 239
f 179 643 181
f 174 650 643
f 651 650 174
f 163 384 165
f 487 247 268
f 165 651 163
f 171 683 165
f 174 474 163
f 557 313 331
f 475 515 799
f 376 693 171
f 285 273 757
f 177 693 376
f 627 885 884
f 174 179 474
f 509 508 516
f 294 302 310
f 709 702 177
f 709 362 742
f 154 754 354
f 182 338 183
f 780 785 803
f 183 768 182
f 423 413 881
f 183 338 777
f 638 338 343
f 633 638 408
f 590 401 895
f 692 185 329
f 190 188 194
f 515 475 25
f 270 190 194
f 190 270 128
f 195 427 414
f 7 788 562
f 915 878 571
f 877 595 438
f 203 205 286
f 44 48 61
f 474 206 483
f 210 209 208
f 61 62 895
f 413 895 62
f 211 432 427
f 172 42 169
f 398 764 220
f 515 263 918
f 437 575 569
f 228 758 764
f 124 885 426
f 175 871 350
f 84 498 327
f 225 514 716
f 327 371 227
f 918 263 730
f 898 448 759
f 371 327 36
f 839 374 890
f 227 371 378
f 451 441 665
f 228 235 748
f 444 180 457
f 233 231 107
f 187 868 345
f 759 448 586
f 189 292 868
f 734 748 235
f 653 461 826
f 924 922 237
f 292 193 196
f 446 671 394
f 461 641 479
f 922 551 237
f 391 237 455
f 482 641 629
f 918 868 799
f 196 200 293
f 771 293 200
f 558 455 237
f 281 287 894
f 894 893 281
f 248 566 241
f 257 251 104
f 255 430 453
f 257 261 265
f 509 775 287
f 260 266 676
f 509 516 524
f 265 261 108
f 523 516 531
f 322 316 523
f 273 252 888
f 265 271 262
f 811 534 316
f 316 315 811
f 676 686 260
f 366 466 581
f 478 495 468
f 330 547 315
f 547 336 552
f 366 471 468
f 760 495 473
f 657 471 284
f 336 342 553
f 553 900 552
f 832 900 553
f 865 878 791
f 792 284 4
f 31 571 576
f 286 288 291
f 438 571 877
f 906 864 863
f 4 790 792
f 8 7 319
f 303 295 301
f 291 304 306
f 570 773 567
f 739 617 392
f 617 416 392
f 306 311 309
f 309 311 308
f 170 628 668
f 613 739 10
f 739 392 10
f 656 675 668
f 656 815 675
f 680 678 365
f 813 613 388
f 324 333 314
f 687 198 668
f 379 688 383
f 295 666 207
f 815 656 636
f 377 694 379
f 325 498 84
f 689 333 266
f 334 696 689
f 700 377 372
f 861 834 860
f 703 721 239
f 732 726 367
f 834 861 256
f 348 341 704
f 747 732 363
f 356 358 704
f 735 888 721
f 370 358 356
f 735 264 757
f 735 273 888
f 755 747 359
f 369 364 362
f 353 763 755
f 647 761 326
f 761 349 326
f 376 373 177
f 779 757 264
f 780 779 279
f 384 380 171
f 235 395 19
f 736 871 737
f 562 788 917
f 910 647 320
f 785 804 803
f 414 406 403
f 256 323 803
f 813 675 815
f 415 786 400
f 427 419 414
f 422 420 705
f 432 428 427
f 430 489 499
f 587 580 590
f 437 434 432
f 445 442 434
f 446 394 445
f 671 586 448
f 819 609 627
f 456 449 450
f 455 563 248
f 865 791 769
f 581 579 463
f 645 652 817
f 644 464 469
f 652 662 715
f 874 923 129
f 715 664 652
f 694 812 688
f 477 64 126
f 750 760 473
f 485 655 477
f 465 715 718
f 507 207 666
f 465 774 494
f 865 486 480
f 812 675 813
f 485 484 655
f 207 202 298
f 883 504 825
f 493 865 769
f 783 782 504
f 679 484 485
f 202 200 298
f 196 490 200
f 196 193 490
f 877 859 476
f 302 803 323
f 189 496 193
f 814 806 810
f 168 719 789
f 821 814 810
f 391 899 924
f 713 527 532
f 467 408 472
f 302 294 887
f 786 787 518
f 538 519 532
f 561 532 527
f 926 35 33
f 538 532 660
f 540 555 561
f 551 586 640
f 319 241 565
f 660 532 561
f 113 161 746
f 161 176 867
f 8 319 565
f 223 247 635
f 781 585 784
f 620 629 393
f 887 780 302
f 269 390 393
f 671 640 586
f 781 784 588
f 599 589 603
f 393 290 611
f 626 603 606
f 928 290 305
f 623 238 622
f 625 1 623
f 774 893 894
f 312 332 912
f 626 632 631
f 332 339 847
f 847 892 332
f 757 887 285
f 847 714 54
f 793 3 8
f 732 807 726
f 858 931 857
f 675 812 687
f 168 167 15
f 273 735 757
f 920 921 7
f 402 385 639
f 167 845 17
f 638 633 338
f 646 649 663
f 650 663 649
f 845 850 157
f 888 239 721
f 663 654 646
f 706 409 48
f 850 854 153
f 676 654 663
f 429 409 317
f 661 692 660
f 854 858 149
f 676 663 686
f 858 862 147
f 433 429 691
f 678 680 677
f 699 711 712
f 712 734 356
f 711 710 753
f 862 866 141
f 712 711 740
f 682 436 827
f 734 740 748
f 866 870 137
f 214 687 808
f 748 756 758
f 664 816 652
f 872 133 135
f 198 687 214
f 754 182 768
f 872 874 131
f 665 659 658
f 758 765 766
f 658 648 653
f 766 764 758
f 776 770 777
f 668 198 170
f 117 923 116
f 787 786 789
f 929 330 822
f 533 822 322
f 556 336 330
f 531 322 523
f 899 920 833
f 662 444 889
f 346 323 256
f 491 482 620
f 116 880 911
f 911 20 116
f 382 491 620
f 911 932 20
f 932 886 99
f 645 443 662
f 930 382 611
f 382 930 516
f 886 824 199
f 605 531 930
f 491 508 848
f 628 170 902
f 256 347 346
f 482 848 479
f 891 896 93
f 347 256 861
f 820 617 739
f 866 819 817
f 605 594 593
f 896 901 85
f 929 593 582
f 612 881 885
f 901 905 83
f 826 451 653
f 451 457 180
f 672 659 665
f 441 180 851
f 79 905 796
f 436 673 672
f 436 851 827
f 909 914 75
f 682 673 436
f 914 916 71
f 584 902 897
f 876 86 342
f 69 916 1
f 829 433 827
f 700 808 694
f 788 3 916
f 853 829 417
f 409 61 48
f 402 48 855
f 870 817 816
f 855 29 360
f 874 816 664
f 385 361 102
f 830 880 875
f 576 897 25
f 819 634 817
f 68 69 1
f 106 856 730
f 743 736 738
f 910 242 236
f 862 857 819
f 744 879 102
f 880 830 831
f 840 528 843
f 401 846 44
f 803 302 780
f 769 791 357
f 878 915 791
f 831 911 880
f 918 873 345
f 576 25 475
f 799 31 475
f 841 29 846
f 879 856 102
f 106 639 385
f 573 564 876
f 911 831 802
f 342 556 876
f 337 339 332
f 25 510 515
f 350 29 841
f 564 573 892
f 892 582 912
f 510 25 56
f 864 906 837
f 312 328 337
f 929 822 593
f 33 35 258
f 871 360 29
f 840 860 835
f 864 158 863
f 29 855 44
f 916 914 917
f 808 687 812
f 594 307 312
f 307 305 328
f 916 917 788
f 33 56 927
f 840 835 809
f 307 594 605
f 736 743 361
f 531 516 930
f 290 277 305
f 852 109 927
f 318 835 860
f 21 844 529
f 852 59 112
f 620 393 611
f 102 743 744
f 112 113 852
f 751 763 762
f 647 785 762
f 805 747 751
f 252 268 254
f 230 835 229
f 487 641 635
f 637 879 467
f 124 851 164
f 809 230 221
f 161 142 176
f 807 732 805
f 247 234 254
f 230 809 835
f 808 700 807
f 345 637 186
f 176 184 191
f 812 694 808
f 204 849 223
f 849 204 191
f 813 688 812
f 635 648 725
f 849 184 198
f 815 613 813
f 815 636 613
f 217 223 849
f 659 191 204
f 217 234 223
f 191 184 849
f 859 480 421
f 795 213 511
f 245 461 243
f 878 865 859
f 802 886 932
f 191 659 867
f 452 718 889
f 223 234 247
f 176 142 184
f 246 254 234
f 865 493 486
f 293 771 357
f 268 247 254
f 771 769 357
f 805 264 735
f 268 252 390
f 161 113 112
f 486 493 488
f 390 252 274
f 867 673 746
f 264 751 279
f 274 277 390
f 746 682 152
f 281 848 287
f 827 433 682
f 808 703 214
f 152 691 109
f 109 852 113
f 476 859 421
f 296 305 277
f 476 595 877
f 305 307 928
f 196 293 292
f 595 476 820
f 726 807 700
f 752 293 357
f 307 328 312
f 310 328 305
f 56 59 852
f 292 752 799
f 328 310 323
f 886 825 824
f 312 337 332
f 807 703 808
f 891 824 782
f 193 292 189
f 844 21 22
f 429 853 409
f 109 697 927
f 56 33 510
f 105 559 553
f 339 337 346
f 346 714 339
f 51 346 347
f 317 926 927
f 564 690 876
f 863 844 232
f 799 868 292
f 510 33 258
f 843 528 529
f 844 863 842
f 861 840 843
f 861 158 347
f 861 860 840
f 752 915 31
f 158 843 842
f 843 158 861
f 842 529 844
f 919 837 906
f 906 232 907
f 809 528 840
f 730 873 918
f 730 856 873
f 873 856 879
f 856 106 385
f 817 634 645
f 837 919 838
f 817 652 816
f 919 906 907
f 919 536 537
f 743 102 361
f 904 669 838
f 898 669 904
f 669 898 38
f 703 807 721
f 405 404 838
f 669 405 838
f 922 833 836
f 294 285 887
f 361 385 402
f 869 645 634
f 830 875 664
f 916 3 1
f 864 51 347
f 402 855 361
f 909 801 914
f 397 890 374
f 48 44 855
f 796 909 77
f 879 637 873
f 901 798 905
f 580 925 397
f 48 402 706
f 896 800 901
f 891 823 896
f 409 62 61
f 853 62 409
f 881 413 417
f 417 62 853
f 86 407 299
f 459 893 882
f 199 891 95
f 830 465 831
f 829 426 417
f 426 829 124
f 426 881 417
f 124 829 827
f 433 829 853
f 886 802 825
f 774 894 883
f 851 124 827
f 164 884 124
f 441 851 436
f 180 164 851
f 443 869 164
f 911 802 932
f 715 830 664
f 874 664 875
f 736 361 360
f 451 180 441
f 457 452 889
f 889 444 457
f 866 817 870
f 106 35 639
f 459 718 452
f 826 452 457
f 452 826 245
f 451 826 457
f 862 819 866
f 858 857 862
f 461 245 826
f 459 882 718
f 479 243 461
f 854 931 858
f 850 925 854
f 846 401 580
f 845 890 850
f 491 848 482
f 848 281 479
f 825 494 883
f 382 508 491
f 900 832 767
f 508 287 848
f 896 823 800
f 839 890 845
f 504 782 824
f 42 374 839
f 516 508 382
f 908 910 318
f 534 524 523
f 552 818 548
f 42 172 173
f 901 800 798
f 818 552 900
f 533 322 531
f 871 175 737
f 868 187 189
f 22 232 844
f 593 822 533
f 822 315 316
f 929 556 330
f 330 315 822
f 838 919 537
f 904 838 537
f 318 860 834
f 908 318 834
f 465 830 715
f 556 342 336
f 105 836 559
f 833 559 836
f 29 44 846
f 908 834 804
f 562 917 828
f 299 836 105
f 818 900 767
f 832 553 559
f 562 832 920
f 811 315 548
f 828 801 821
f 801 828 917
f 821 797 814
f 836 299 903
f 401 590 580
f 797 821 801
f 905 798 796
f 796 814 797
f 810 548 818
f 814 798 806
f 798 814 796
f 909 796 797
f 811 548 810
f 413 587 590
f 404 51 837
f 51 864 837
f 837 838 404
f 909 797 801
f 529 842 843
f 158 842 863
f 232 906 863
f 800 806 798
f 529 528 511
f 794 811 806
f 785 908 804
f 785 647 908
f 859 877 878
f 526 534 794
f 877 571 878
f 571 31 915
f 173 351 42
f 524 783 509
f 350 173 175
f 29 350 871
f 823 526 794
f 783 524 526
f 526 823 782
f 42 351 374
f 841 374 351
f 504 775 783
f 509 783 775
f 782 823 891
f 885 124 884
f 887 757 779
f 914 801 917
f 426 885 881
f 890 397 925
f 825 504 824
f 775 504 883
f 925 587 931
f 587 925 580
f 802 494 825
f 785 279 762
f 494 831 465
f 831 494 802
f 894 287 775
f 590 895 413
f 438 897 576
f 884 164 869
f 762 279 751
f 423 931 587
f 587 413 423
f 931 423 857
f 762 761 647
f 617 820 476
f 595 820 621
f 751 755 763
f 893 459 243
f 751 264 805
f 609 857 423
f 423 881 612
f 662 443 444
f 721 805 735
f 621 584 595
f 857 609 819
f 443 645 869
f 612 885 627
f 636 621 820
f 628 902 584
f 805 721 807
