# avbd fit, rung f180-i16-s300 of Gate 6d (body space, fit phase only)
v -0.010813939 0.585741639 0.013738781
v -0.120466016 0.605782926 0.069319755
v -0.010361554 0.602580547 0.016471129
v -0.000473937 0.905693412 0.068723120
v -0.152946770 0.588779092 0.054761697
v 0.006676582 0.916352391 0.080340900
v -0.009598535 0.636174202 0.020734020
v -0.009754104 0.619486809 0.017890632
v -0.157077581 0.607230902 0.055259716
v 0.150060847 0.925797760 -0.103087090
v -0.176421061 0.600196719 0.046882693
v -0.186159030 0.602620363 0.025718663
v -0.193064228 0.604455411 0.007340746
v -0.153737083 0.605474293 -0.067767546
v 0.008588348 0.582203746 -0.042203099
v -0.133767933 0.599524856 -0.073110074
v 0.026565293 0.581929505 -0.042840969
v -0.135970578 0.600740910 -0.092155322
v -0.116720155 0.609351456 -0.093815692
v 0.185903654 0.560207188 -0.006774089
v -0.000929417 0.871055305 0.064658865
v -0.001206415 0.854498267 0.058752455
v -0.104997434 0.606490076 -0.078763783
v -0.091846980 0.610983074 -0.089996628
v 0.094739147 0.815918803 -0.119696237
v -0.088984422 0.625293076 -0.076521225
v -0.135750175 0.883670449 -0.126653388
v -0.146320015 0.790318131 0.070960239
v 0.039302379 0.684612632 -0.072080150
v -0.162044972 0.801491141 0.065121837
v 0.067290463 0.842753530 -0.141914248
v -0.194291830 0.776142955 0.041346736
v 0.087506771 0.774914503 -0.107643917
v -0.186655059 0.600735188 -0.034807049
v 0.072482914 0.763608277 -0.102157809
v -0.160404414 0.888111889 -0.100415006
v -0.180591404 0.884365201 -0.058874499
v 0.012885722 0.739900470 0.035069205
v -0.178890496 0.886812091 -0.037876967
v -0.080762371 0.886268497 -0.148231164
v -0.032364607 0.859164059 0.059251107
v 0.009788059 0.641818643 -0.056934725
v -0.021304648 0.838643849 0.052705936
v 0.061380476 0.688265562 -0.083110303
v -0.044708718 0.841228843 0.051019959
v -0.190682650 0.895138264 -0.023206949
v -0.191647828 0.881092370 -0.005242289
v 0.071046829 0.709112167 -0.091990836
v -0.175734520 0.882438540 0.009916806
v -0.053626936 0.606480360 0.028207410
v 0.062259723 0.809097171 0.057548106
v -0.070608944 0.604882479 0.047155075
v -0.083224550 0.694639742 0.062387973
v 0.060266279 0.767442226 0.058422435
v -0.093441069 0.603923440 0.057020567
v 0.103377774 0.790026069 -0.112454772
v -0.107938968 0.691122890 0.072011076
v -0.177414805 0.698612869 0.057884671
v 0.117130682 0.802821040 -0.125443220
v -0.201226473 0.695939302 0.026951456
v 0.082468480 0.690729499 -0.092310622
v 0.103333615 0.686011672 -0.098590128
v -0.204384893 0.787323236 0.022200219
v -0.200129464 0.809130311 0.020958656
v -0.203746200 0.696007848 -0.038034134
v -0.187900692 0.690817714 -0.057764936
v -0.177890643 0.703972220 -0.073834360
v 0.006106597 0.590237200 0.007133430
v 0.012634419 0.573628664 0.007065892
v -0.156508550 0.692970335 -0.082463667
v 0.030678768 0.573210835 0.010194121
v -0.121399716 0.706757486 -0.102125928
v 0.047020085 0.571013689 0.017095465
v -0.027335409 0.747426689 -0.080641456
v 0.061860908 0.568422139 0.026212970
v -0.100437403 0.887396514 -0.143437773
v 0.073262170 0.565563440 0.038754158
v -0.118498787 0.887535691 -0.136291698
v 0.087115213 0.563768506 0.048206676
v -0.125596732 0.870547473 -0.134180173
v 0.101555765 0.562343657 0.056118876
v -0.144517332 0.900113106 -0.116983876
v 0.116933957 0.560985088 0.061669052
v -0.176547304 0.851867974 -0.083171263
v 0.133088306 0.560824335 0.061585732
v 0.046393938 0.724749565 0.045796625
v -0.152966708 0.883115768 0.053877849
v -0.120152414 0.797492802 -0.116691135
v -0.159842730 0.639024854 0.057897560
v 0.147210911 0.560434997 0.067058094
v -0.140438527 0.805527568 -0.108450398
v -0.023075612 0.795287073 0.040258028
v 0.152526885 0.559847832 0.051736336
v -0.043641739 0.797851861 0.049913447
v 0.167170167 0.558545291 0.044391904
v -0.029681254 0.818172097 0.043627765
v 0.183144793 0.558641315 0.040748484
v -0.020650540 0.877246857 0.064751580
v 0.179402202 0.561460376 0.025361117
v -0.068745449 0.904368281 -0.148708612
v 0.185457706 0.559949160 0.009904181
v 0.023645993 0.748804152 -0.082167387
v -0.091378435 0.867456555 -0.146091655
v -0.117244720 0.650194585 0.074035466
v 0.039495692 0.703511953 0.039678298
v 0.054736532 0.764795601 -0.097423032
v -0.119773306 0.852755189 -0.131786823
v -0.150426060 0.633893192 0.073509492
v 0.126602978 0.756397605 -0.120241426
v -0.130516678 0.841166198 -0.118256688
v 0.128543809 0.814402759 -0.113190852
v 0.136564165 0.792943239 -0.109113827
v 0.136162356 0.769496143 -0.107134320
v -0.167287380 0.657932103 0.056992553
v -0.144296601 0.828625798 -0.106646404
v 0.199812815 0.559676290 -0.015499522
v 0.186571494 0.562758982 -0.020600755
v -0.193944916 0.646393597 0.025780227
v 0.146272793 0.812957406 -0.105634272
v -0.163441449 0.839607060 -0.097483024
v -0.189419389 0.837335229 -0.066752963
v -0.194516301 0.850533843 -0.051074196
v -0.058948763 0.835410118 -0.134597570
v 0.143081695 0.675911486 -0.084245175
v -0.177712321 0.832878292 0.043991160
v -0.193612278 0.829722583 0.022208827
v -0.128344402 0.825010419 0.070019133
v -0.140659586 0.841472745 0.062254351
v 0.179145634 0.563172042 -0.035131160
v -0.024270069 0.829791844 -0.117868423
v 0.171213776 0.563792884 -0.049202904
v -0.043712534 0.824058712 -0.120536312
v 0.160123691 0.565265417 -0.060658503
v -0.033920739 0.693787992 -0.070202641
v 0.176953048 0.565572619 -0.062561736
v -0.115044892 0.882615089 0.045318384
v 0.164947301 0.563046098 -0.073521316
v -0.094202332 0.881252885 0.054125436
v 0.148567364 0.563951671 -0.068249367
v -0.027018171 0.814039230 -0.104176439
v 0.132154509 0.564084232 -0.069992632
v 0.160527229 0.799690843 -0.098915718
v -0.029659733 0.794410110 -0.094212621
v 0.117228106 0.565978169 -0.074215278
v -0.048102561 0.807128072 -0.106887653
v -0.179552048 0.802541733 -0.089256294
v 0.105343021 0.567824900 -0.084690861
v -0.149849758 0.902211547 0.043181285
v 0.104169384 0.575031281 -0.070312306
v -0.036120884 0.720267236 -0.080641434
v 0.089217089 0.576322198 -0.063143328
v 0.135030642 0.748641431 -0.104106508
v 0.074235938 0.577859521 -0.055981249
v -0.108953811 0.756668150 -0.112268604
v 0.059750568 0.580150962 -0.047909416
v -0.074063897 0.671555161 -0.083555661
v 0.043579843 0.581211805 -0.044426836
v 0.054189008 0.847092152 0.052332986
v -0.182679027 0.766998649 -0.080105051
v -0.206489474 0.606155515 -0.024192574
v 0.154434353 0.777479768 -0.099823646
v -0.208157852 0.784353971 -0.035645697
v -0.209864229 0.745183587 -0.026548356
v 0.166920885 0.667755425 -0.083362803
v -0.203546137 0.731956840 -0.045418281
v -0.011158904 0.614899755 -0.049356405
v 0.013279736 0.601698101 -0.046699241
v -0.011107152 0.598343551 -0.045879569
v -0.010780832 0.630988598 -0.054676693
v 0.165777549 0.824977279 -0.097315036
v -0.192531005 0.738070071 -0.061595220
v -0.010562639 0.647553444 -0.058386497
v -0.010367521 0.664107025 -0.062590279
v -0.209684730 0.728418231 -0.006989275
v -0.009901998 0.680899978 -0.066280209
v 0.172210634 0.784082532 -0.092499420
v -0.165292770 0.736097515 -0.087605745
v -0.116790213 0.589959145 -0.076651163
v -0.207186371 0.737945259 0.020502111
v 0.177363470 0.685480714 -0.069881603
v -0.201490670 0.717226386 0.029645249
v -0.094411090 0.740231097 -0.106315956
v -0.079281464 0.725427091 -0.105229475
v 0.181181893 0.803785682 -0.086139806
v -0.050657533 0.786001444 -0.098281793
v -0.005588730 0.804141700 -0.093172960
v -0.004878379 0.819724560 -0.102030098
v -0.107119456 0.863508046 0.059620626
v -0.004266304 0.834277153 -0.111902870
v -0.128398448 0.856167793 0.059289120
v 0.185251907 0.777464449 -0.077469714
v -0.115347624 0.842702985 0.067372091
v -0.003496126 0.847378433 -0.123031177
v -0.132491693 0.873208046 0.051096600
v -0.162071615 0.727366567 0.066183992
v -0.003051746 0.862860560 -0.129560545
v -0.124776423 0.899757981 0.040183902
v 0.186879158 0.827557743 -0.073580340
v 0.175862595 0.578215957 0.038415141
v -0.002919042 0.879057109 -0.132915214
v -0.134628221 0.893905342 0.054782141
v -0.002800308 0.895693302 -0.132833526
v -0.162173867 0.846675396 0.056425713
v 0.196207806 0.768904388 -0.058911361
v -0.160326034 0.866176605 0.043742169
v -0.210778788 0.777485013 0.001677117
v -0.002724782 0.912470341 -0.132229730
v -0.146273300 0.899679840 0.023708001
v -0.159333020 0.884209752 0.029272879
v -0.162174389 0.899059653 0.007924217
v -0.142199010 0.720635831 0.072703503
v 0.033960499 0.923059106 0.068429656
v 0.017087108 0.922985852 0.069058932
v 0.196263805 0.843687356 -0.051594693
v -0.000670792 0.888411522 0.066771261
v -0.174855873 0.896022975 -0.010305061
v 0.201187849 0.815211177 -0.050098009
v -0.173046917 0.904056549 -0.030062944
v -0.173861042 0.903525531 -0.049374893
v -0.085876480 0.649116695 -0.081443161
v 0.050764836 0.923261523 0.066593423
v 0.201375693 0.829218268 -0.030883471
v 0.207632467 0.784798622 -0.041629530
v -0.173382431 0.903418183 -0.068638936
v -0.155297548 0.909171402 -0.102881968
v -0.128554985 0.904134274 -0.131165981
v -0.147240669 0.851925492 -0.107488215
v -0.102997482 0.648786068 -0.089408942
v 0.084027179 0.923265755 0.060301185
v 0.067412205 0.923437893 0.063627377
v -0.100754142 0.849807382 -0.139047414
v -0.001657105 0.838406086 0.051833350
v -0.109273240 0.868954539 -0.140022069
v 0.206368357 0.804938614 -0.026405375
v -0.118713357 0.635173678 -0.096439227
v 0.099189483 0.922383010 0.053079665
v -0.033726968 0.691434026 0.032590792
v -0.039853178 0.590677857 0.012821364
v 0.200486109 0.839140117 -0.012615031
v -0.200785950 0.829334080 -0.042212002
v -0.048556656 0.639210582 0.031656690
v 0.114021972 0.920807242 0.045948789
v 0.205559939 0.686065853 -0.007897153
v -0.063550711 0.587123752 0.029959742
v 0.208021969 0.686608255 -0.026299510
v 0.204743549 0.819274902 -0.008162858
v 0.209741086 0.781366348 -0.014690226
v -0.060838543 0.650392771 0.047684185
v -0.084056839 0.584391236 0.049932078
v -0.108349070 0.585591018 0.061075635
v -0.099840306 0.640066743 0.064548120
v 0.203744888 0.807335854 0.016929451
v -0.102489628 0.621030450 0.063559338
v 0.209086061 0.799473703 -0.004400663
v -0.055401962 0.820503831 0.053443808
v 0.099549711 0.841234982 0.071552560
v -0.117637172 0.629259169 0.073341794
v 0.067896515 0.781366110 -0.102705359
v -0.134220973 0.585869193 0.063608959
v -0.186283275 0.653286695 -0.052687239
v -0.134438351 0.641247988 0.069738865
v -0.148724586 0.602851212 0.076649480
v 0.060691215 0.798679471 -0.104545631
v 0.173846424 0.861291528 0.030298227
v -0.136260435 0.621816993 0.079672202
v -0.189050823 0.636249483 -0.042138994
v -0.157067746 0.582978070 0.072540030
v 0.210708946 0.783279657 0.009824916
v 0.206058770 0.765658259 0.022013037
v -0.147969216 0.862464607 0.060971446
v -0.148243070 0.621387362 0.061670154
v -0.169193551 0.578599155 0.048159879
v 0.191360161 0.825045586 0.027705112
v 0.190699607 0.802697301 0.039739333
v -0.180818647 0.641355395 0.048578709
v -0.169586271 0.622074366 0.051571518
v 0.187818542 0.780842423 0.052661516
v -0.179971114 0.581932902 0.031058917
v 0.163750857 0.869573295 0.051331580
v -0.185567349 0.622486770 0.036642153
v 0.204401538 0.679595828 0.012196829
v -0.052494276 0.923820972 0.066140905
v -0.194964200 0.622977972 0.016358465
v -0.024382558 0.900526643 0.067106791
v 0.179749966 0.819864631 0.047615442
v -0.172329500 0.852221847 0.039190024
v 0.195182234 0.672591984 0.031563167
v -0.173661441 0.867043316 0.025597101
v -0.195652574 0.617926478 -0.006430581
v 0.181990847 0.760525167 0.061859179
v -0.185555205 0.848950386 0.024527308
v 0.019438468 0.843589664 -0.126941577
v 0.020814659 0.865005970 -0.136495233
v 0.164898708 0.817000985 0.062200777
v -0.028020352 0.910852313 -0.141045257
v 0.176571131 0.799618542 0.061687641
v -0.198876426 0.639301717 0.000677267
v -0.022034902 0.889041603 -0.139622733
v 0.024630578 0.722361803 0.036002018
v -0.028937627 0.627947688 -0.054949593
v -0.043245472 0.893584549 -0.145479009
v 0.146294594 0.827328205 0.065555051
v -0.049783621 0.913438022 -0.144504905
v -0.188005626 0.864130199 0.008905679
v 0.163239807 0.777356029 0.067921452
v -0.199753672 0.844992638 0.006856012
v 0.144407004 0.759453118 0.073358074
v -0.195376173 0.852748215 -0.030854901
v -0.200890064 0.836906791 -0.015839543
v 0.150736034 0.803335667 0.068457022
v -0.197853938 0.859414697 -0.010121994
v 0.123334765 0.768852890 0.079853863
v -0.201067239 0.583609641 -0.032968782
v -0.209975168 0.627767444 -0.016399892
v 0.105808064 0.671907008 0.070060395
v 0.127596691 0.669856191 0.075930573
v 0.099733695 0.734684825 -0.106873251
v 0.096733510 0.897444725 0.057105504
v -0.029037818 0.638798296 0.023178004
v 0.128349915 0.920812905 0.051583476
v -0.187105969 0.868566215 -0.044679131
v 0.136554152 0.689548314 0.074010491
v 0.122442707 0.816342056 0.074022524
v -0.198960766 0.638749301 -0.025722641
v -0.182821780 0.862312973 -0.065083556
v 0.137276828 0.919933677 0.039386082
v -0.163613215 0.864564598 -0.098361298
v 0.136773735 0.786058664 0.074380018
v -0.069202796 0.779076874 -0.103296563
v 0.094237506 0.693303943 0.067206748
v -0.178897589 0.581973553 -0.041696381
v 0.101372264 0.770937920 0.075428292
v -0.193425894 0.620431304 -0.030144280
v -0.182006672 0.632608354 -0.062570810
v -0.167540997 0.579369485 -0.058946274
v 0.072784349 0.689466894 0.058116902
v 0.111700132 0.792404056 0.079738796
v -0.069422491 0.743622899 -0.100857988
v 0.091074720 0.787375748 0.071895979
v -0.174412668 0.597579598 -0.054200046
v -0.169753700 0.649550021 -0.069318429
v 0.058137804 0.705886126 0.053651046
v -0.084520355 0.762178898 -0.105674781
v -0.164305300 0.588129103 -0.076670654
v 0.016248304 0.807989240 -0.097477935
v 0.090199918 0.812160015 0.071392551
v 0.072648250 0.832349777 0.062168807
v -0.161607668 0.628075004 -0.068730786
v 0.130257979 0.906425774 0.039812881
v 0.016523315 0.674471736 -0.065220311
v 0.018351186 0.656898141 -0.061224379
v -0.144976631 0.583354235 -0.067130931
v 0.141780555 0.911439061 0.029000696
v -0.127814785 0.754532337 -0.123205259
v 0.150906950 0.914714992 0.015231187
v -0.128799826 0.637455821 -0.081837066
v 0.042791940 0.872840583 -0.145310730
v -0.142523915 0.622439027 -0.074067771
v 0.159875974 0.917145848 0.001026436
v 0.031395163 0.705005467 -0.074058339
v 0.034593891 0.726704478 -0.079905339
v -0.142691970 0.738563180 -0.115775980
v 0.168805540 0.918241978 -0.013301182
v -0.138585955 0.758089185 -0.106110670
v -0.110653937 0.906383693 -0.138361201
v -0.045528255 0.883609593 0.063578837
v 0.173733920 0.916863620 -0.029259145
v -0.139125869 0.579950094 -0.085379817
v -0.150960773 0.748004556 -0.096721873
v -0.127055556 0.616105855 -0.081355385
v -0.150814548 0.874807954 -0.114288464
v 0.185774356 0.918007672 -0.040476054
v -0.168398350 0.757728279 -0.090102009
v 0.032938771 0.641111135 -0.057458650
v -0.120264195 0.584262490 -0.093428850
v -0.182167172 0.746993959 -0.077553652
v 0.171650916 0.922921360 -0.041979052
v -0.136704966 0.861441612 -0.122717537
v 0.169353664 0.924017251 -0.058168005
v -0.193831921 0.763784230 -0.062576026
v -0.136011288 0.622821808 -0.095539592
v 0.187753215 0.712622225 0.055410415
v 0.165377721 0.924960256 -0.073986843
v -0.203425199 0.749555051 -0.049284332
v 0.044177026 0.745950818 -0.091430537
v -0.099864915 0.589450240 -0.086030886
v -0.031105254 0.607382536 -0.048282612
v 0.158639729 0.925577283 -0.089020327
v -0.208234787 0.766742349 -0.042743508
v 0.199633211 0.783580482 0.031343989
v -0.028044749 0.672686040 0.028186169
v 0.138434097 0.925446630 -0.114794791
v 0.196340680 0.757628560 0.042168245
v -0.071709514 0.760951936 0.062438779
v -0.104593739 0.626349032 -0.084165640
v -0.089908399 0.600534856 -0.069659218
v 0.053968083 0.643291473 -0.065813176
v -0.089500517 0.634129405 -0.095432639
v -0.071509339 0.618961692 -0.066409990
v -0.069020249 0.598027825 -0.058915693
v 0.073929355 0.671300054 -0.083080679
v 0.056938041 0.726990342 -0.091090448
v -0.194616556 0.730889797 0.045485280
v 0.048028991 0.786381960 0.054114800
v 0.039867826 0.764994979 0.046627156
v -0.196235836 0.753654659 0.043361984
v 0.033387955 0.743281484 0.041777991
v -0.033912081 0.770012259 -0.088312209
v 0.096212119 0.710043967 -0.100871131
v -0.182119817 0.766924262 0.061335862
v -0.068364561 0.654357374 -0.075554758
v -0.074734002 0.637306571 -0.073048256
v 0.105826102 0.658720851 -0.092851773
v -0.177612573 0.743827224 0.062273998
v -0.050683696 0.620279670 -0.055742554
v 0.129856557 0.925903022 -0.127387747
v 0.122409262 0.678259134 -0.093677051
v -0.057573199 0.640251219 -0.066494368
v -0.157922089 0.759745896 0.068708703
v -0.050674360 0.669119596 -0.073200822
v 0.114148840 0.925691783 -0.130534321
v -0.038272321 0.647159159 -0.059365027
v 0.112354837 0.633867979 -0.086158685
v -0.192398489 0.597256005 -0.011528255
v -0.190138116 0.583422780 0.010682846
v 0.135711208 0.667821705 -0.102889299
v -0.148299634 0.740656257 0.072142534
v -0.131796360 0.753976464 0.077134296
v 0.117990874 0.721239209 -0.107255422
v -0.078629151 0.823174655 0.064827405
v -0.069855437 0.923871160 0.062910438
v -0.120506346 0.730774224 0.079834819
v 0.137682229 0.710853696 -0.111923501
v -0.108129881 0.750508428 0.076376759
v -0.089691840 0.804642081 0.071519881
v 0.160276264 0.716463029 -0.085421585
v -0.094595924 0.732023895 0.069770582
v 0.111372076 0.853478730 -0.135979906
v -0.079277165 0.783020079 0.066356592
v -0.102904715 0.787434995 0.076166265
v 0.177085742 0.707249761 -0.074782096
v -0.094790973 0.767974973 0.072055012
v 0.180116251 0.650924683 -0.075482927
v 0.179441884 0.664640784 -0.063172504
v -0.088044301 0.749971926 0.068329662
v -0.071745172 0.737868130 0.061061859
v -0.117090181 0.770474792 0.080498941
v -0.032904614 0.754165530 0.039898306
v -0.126315460 0.789393604 0.076297447
v -0.114811420 0.807173848 0.077206947
v 0.189097196 0.702066898 -0.057829209
v 0.199477866 0.671639562 -0.036513731
v -0.066078253 0.800902724 0.060629386
v -0.140542954 0.773213267 0.074361950
v -0.051068138 0.674505174 0.039068989
v -0.139168084 0.807172596 0.070555672
v 0.189568907 0.679424405 -0.052718282
v -0.156657994 0.823916078 0.062764376
v 0.209151432 0.667330623 -0.019797746
v -0.182914004 0.789940834 0.059222855
v 0.208196282 0.710616171 -0.021481128
v -0.163313612 0.779983640 0.067428619
v -0.069320090 0.842707515 0.056949310
v -0.178403631 0.811674893 0.054301053
v 0.205179960 0.626715302 -0.018208163
v -0.071660444 0.882274985 0.060549986
v -0.007060721 0.768674374 -0.082867429
v -0.067770347 0.902521908 0.062644176
v -0.188011169 0.816175938 0.036207095
v -0.205972552 0.763704419 0.021982199
v -0.047473706 0.906563163 0.065964893
v -0.006140960 0.787142634 -0.086513452
v -0.102848545 0.920976460 0.051005237
v -0.211007997 0.753043294 -0.001158740
v 0.074235566 0.828447521 -0.127702028
v 0.119487226 0.894656479 -0.135238275
v -0.204965234 0.823388875 0.003140120
v -0.087106541 0.922903717 0.058701582
v 0.207709476 0.705479026 0.003601243
v 0.098702446 0.926244080 -0.136331141
v -0.186714679 0.872546196 -0.023963962
v 0.206296295 0.720631182 0.020362983
v -0.210162804 0.768926144 -0.019803192
v -0.209053829 0.792417765 -0.017823467
v -0.205023319 0.814809322 -0.019043902
v 0.082556345 0.926850915 -0.139958531
v 0.210823208 0.760349154 0.001748774
v 0.065994464 0.927459836 -0.140501067
v -0.091391414 0.844399929 0.070456833
v -0.018063979 0.866418242 -0.135968298
v 0.197348893 0.710409641 0.037582930
v 0.049392641 0.928117275 -0.139555246
v 0.058753408 0.912104309 -0.145647541
v 0.195477277 0.618462682 0.004746156
v -0.088608645 0.901264191 0.058132589
v -0.021859929 0.846442342 -0.130913913
v -0.200196102 0.786664367 -0.055126596
v -0.168308884 0.878923714 -0.078617766
v -0.102245070 0.825273633 0.075260565
v 0.032447118 0.928865135 -0.136905089
v -0.188549742 0.786371529 -0.074286416
v 0.015380429 0.929073691 -0.132524550
v -0.157412827 0.792705178 -0.100550964
v 0.184544712 0.624019504 0.037071850
v -0.173205957 0.779949427 -0.091869235
v 0.014587511 0.915960610 -0.135109514
v -0.002594131 0.929315686 -0.131180197
v 0.191463828 0.690065920 0.045693286
v 0.184068695 0.666119158 0.051003367
v 0.081718847 0.797325790 -0.108495630
v 0.019043587 0.894172788 0.066786483
v -0.162057355 0.815825582 -0.099273600
v -0.153938740 0.770212770 -0.099236622
v -0.165553898 0.904406190 -0.086553678
v 0.065413274 0.814829230 -0.114586189
v 0.171895996 0.688893259 0.059764851
v -0.134801090 0.780323088 -0.109394014
v -0.060694087 0.580598235 -0.046131335
v -0.105436839 0.790679574 -0.128053129
v -0.073765144 0.577552557 -0.055985343
v -0.088493533 0.575421095 -0.063015237
v -0.118124388 0.774899006 -0.126770079
v 0.149761468 0.676180899 0.067161039
v 0.162854791 0.659072995 0.059457026
v -0.103081390 0.573958993 -0.070056476
v 0.154561192 0.633489668 0.060177006
v -0.110111311 0.834840298 -0.125536427
v 0.041951559 0.887648404 0.064685658
v 0.026396718 0.873107612 0.064160243
v -0.109331846 0.569195628 -0.082921907
v 0.153100580 0.702056050 0.068060897
v -0.106432572 0.812385738 -0.132924423
v 0.134994626 0.708028853 0.075375706
v 0.140529871 0.651717544 0.068318002
v -0.122439682 0.569368422 -0.073523939
v -0.002848985 0.806499958 0.038758580
v -0.004277007 0.788995266 0.037572064
v -0.095476016 0.799784839 -0.113672733
v -0.120469287 0.561998188 -0.087789908
v -0.078723624 0.847541451 -0.143235624
v -0.102452911 0.778269351 -0.112225160
v -0.135099083 0.560559154 -0.086474523
v -0.134881914 0.562613547 -0.070272654
v -0.150235847 0.562138021 -0.067590915
v -0.053157311 0.774800360 0.055421866
v -0.030924076 0.776080787 0.041002043
v 0.087060235 0.675416589 0.062671937
v 0.090136856 0.655110657 0.062291633
v -0.163723633 0.562996745 -0.077050120
v -0.162782013 0.564325333 -0.060799487
v -0.035086416 0.712068200 0.036052242
v 0.070931502 0.667485833 0.055431671
v 0.052941509 0.682779491 0.044665482
v -0.172209427 0.562936664 -0.047890384
v -0.076313116 0.830787778 -0.130402669
v 0.079512738 0.710064530 0.062681243
v -0.180103272 0.563004136 -0.033771321
v -0.055973887 0.697542608 0.051398985
v 0.031346571 0.682998657 0.032603074
v -0.039970275 0.656203508 0.030005027
v -0.093430288 0.830152392 -0.138038665
v 0.027704764 0.636993587 0.025481472
v -0.069883861 0.674490154 0.055191934
v 0.072503485 0.748577178 0.062470876
v -0.041209795 0.623262465 0.025154874
v -0.060682308 0.624959350 0.040306125
v -0.056869775 0.855882168 -0.144046769
v -0.073175803 0.866942585 -0.148269042
v -0.076025240 0.716017187 0.061314166
v -0.058985740 0.879725814 -0.148460358
v 0.088690139 0.858356833 -0.144265309
v -0.195885867 0.560467482 -0.036226392
v 0.085932240 0.730783105 0.066745140
v -0.080457702 0.628413618 0.054787807
v -0.100987494 0.711717725 0.070828706
v 0.093693525 0.836902261 -0.135357767
v -0.082594901 0.654010236 0.058690209
v -0.092556484 0.675053060 0.064404570
v -0.081490815 0.863368630 0.064495534
v 0.072682448 0.649003208 -0.075240426
v -0.057184756 0.862801552 0.057023674
v 0.105770886 0.735029578 0.074971899
v -0.101530835 0.658285618 0.066690601
v 0.130645648 0.850933373 -0.120848618
v -0.188786745 0.561195552 -0.022842795
v -0.033665705 0.732907951 0.038144402
v 0.089070007 0.637159050 -0.087179668
v -0.190461695 0.561108947 0.008010992
v -0.134103268 0.684413552 0.074395940
v 0.086100951 0.657264888 -0.086444549
v -0.181279555 0.561290383 0.021139672
v -0.115100875 0.670996010 0.073544450
v 0.121076360 0.721342206 0.079868011
v 0.127171129 0.744053006 0.079209134
v 0.126885772 0.871340275 -0.133289665
v -0.175233021 0.561386585 0.036055304
v -0.123912536 0.706799865 0.078678370
v -0.163090467 0.562804341 0.046527971
v -0.135205716 0.662263691 0.071452789
v -0.148780540 0.565192580 0.053589396
v -0.162390128 0.571021736 0.060816217
v -0.143357858 0.702400506 0.071501963
v -0.155899301 0.671148419 0.072134987
v -0.148680419 0.566196144 0.067679159
v 0.145809114 0.729556918 0.072662681
v -0.158834204 0.690539002 0.068484679
v -0.133972317 0.566061199 0.061356783
v -0.117285468 0.564872622 0.061934661
v 0.130235657 0.624128759 -0.077942371
v -0.160902619 0.709582448 0.065242097
v 0.185864002 0.737747967 0.059232213
v 0.133032903 0.641395926 -0.081306532
v 0.157933652 0.904860497 -0.101174399
v -0.101936340 0.564669013 0.054789890
v -0.153631151 0.651586950 0.073479846
v -0.086450472 0.565062761 0.047787279
v 0.132337257 0.909042954 -0.127269283
v -0.072754920 0.566359282 0.037544414
v -0.062405974 0.568507195 0.024145927
v 0.197573036 0.731914282 0.039708316
v 0.145004392 0.867801547 -0.119034395
v -0.048701145 0.569919944 0.014162218
v -0.031861708 0.569864154 0.016371785
v -0.179811895 0.720098794 0.059067626
v -0.027881378 0.585513413 0.022474654
v -0.173256174 0.677959800 0.057213284
v 0.146345720 0.629834235 -0.087996870
v 0.152112216 0.847876430 -0.105445527
v 0.207537249 0.744033039 0.020918373
v -0.193125308 0.707852483 0.045855403
v -0.187356085 0.662958086 0.045005720
v -0.191090271 0.685486555 0.044756573
v -0.046697516 0.743294775 -0.091865472
v 0.159492835 0.625544727 -0.072698034
v 0.210175067 0.758426964 -0.020884315
v 0.151625186 0.886507034 -0.111389101
v 0.010041943 0.789258361 -0.088002414
v -0.057432156 0.763161540 -0.098192729
v 0.065357521 0.745984435 -0.097964786
v -0.052793015 0.723158538 0.052503653
v 0.209882587 0.733313143 -0.004089237
v -0.198011994 0.672481656 0.025474828
v -0.208312348 0.711394966 0.009792907
v -0.192358643 0.797592521 0.039707478
v 0.179292649 0.629872262 -0.078907803
v -0.202211663 0.662603498 0.003824497
v 0.132826120 0.895007432 0.052046962
v 0.209206015 0.736034751 -0.030745331
v -0.205694169 0.686847389 0.005209501
v -0.207662970 0.702516556 -0.013497991
v -0.208374575 0.718711734 -0.030390257
v 0.173849180 0.620300233 -0.061082847
v 0.201240137 0.718788087 -0.045099519
v -0.211445957 0.651398718 -0.014785403
v -0.209466055 0.801124871 0.002253137
v 0.159645721 0.866806030 -0.101982132
v -0.035031892 0.923511207 0.068276741
v 0.198737219 0.742554128 -0.053430796
v 0.184938356 0.750119328 -0.073442385
v -0.086170278 0.818001866 -0.119741417
v -0.063712507 0.818654239 -0.120262519
v 0.179030508 0.641612411 -0.059156019
v -0.209612682 0.676650047 -0.020049538
v 0.180872366 0.606978178 -0.046098031
v 0.188785136 0.724886060 -0.063173816
v -0.020176135 0.929586112 -0.134160668
v -0.037292626 0.929327190 -0.137798741
v 0.173055202 0.848296821 -0.090269916
v 0.017727140 0.760391593 0.038113274
v -0.054223277 0.928735375 -0.140059888
v -0.051780008 0.747467816 0.053726315
v 0.177180901 0.727719426 -0.079126269
v 0.164818585 0.740426540 -0.088210732
v -0.070961788 0.927935898 -0.140698373
v 0.168963224 0.870924294 -0.083409414
v -0.198840886 0.656288862 -0.033198766
v -0.087508813 0.927128911 -0.139478415
v -0.092215732 0.906540573 -0.146269098
v -0.205452234 0.804972529 -0.040842872
v -0.103155181 0.926031470 -0.134932652
v -0.118461117 0.924973607 -0.129136264
v 0.144111067 0.729048908 -0.096171051
v -0.193487525 0.713880897 -0.055014849
v -0.193831548 0.811044335 -0.065622784
v -0.180718035 0.826560974 -0.085803770
v -0.195383444 0.674312413 -0.044615313
v 0.182608068 0.857188225 -0.068725727
v 0.172020227 0.907024980 -0.070897005
v -0.181579083 0.616814077 -0.048292294
v 0.052029651 0.745999575 0.054068111
v 0.134111956 0.733046174 -0.116019942
v -0.070800260 0.800005317 -0.110066928
v -0.180498198 0.725272000 -0.075163290
v 0.173346668 0.899835289 -0.052672155
v -0.084912308 0.784051359 -0.108451203
v -0.174883038 0.611317337 -0.069703832
v 0.117489219 0.742042959 -0.111334398
v -0.180012867 0.669281304 -0.063838162
v -0.156213596 0.668373466 -0.077905834
v 0.173992544 0.894600987 -0.033481307
v -0.172586992 0.684640348 -0.073169537
v -0.160928965 0.714775324 -0.085259810
v 0.194699720 0.854341626 -0.028450822
v -0.149041548 0.644635022 -0.077101193
v -0.029576590 0.668305516 -0.063875839
v 0.079655185 0.729064643 -0.099256150
v -0.134309277 0.925021172 -0.128749833
v -0.139346421 0.924466610 -0.114569962
v -0.144807920 0.727313638 -0.095893905
v -0.139983669 0.705350637 -0.093301229
v -0.137199670 0.682529569 -0.088398337
v -0.133935332 0.659487605 -0.086108260
v -0.123737969 0.819952846 -0.115558192
v 0.070855029 0.788875937 0.063628793
v 0.188598812 0.629926085 -0.040264286
v -0.158814162 0.925565898 -0.088542014
v -0.165403128 0.925410926 -0.073635921
v 0.199245363 0.649035811 -0.029401785
v -0.010806527 0.581645429 -0.042616706
v -0.169120997 0.924332142 -0.057732642
v 0.195316970 0.857310653 -0.003594898
v -0.171742782 0.922412038 -0.041722342
v -0.170895025 0.920391381 -0.026600996
v -0.183167428 0.923142731 -0.018717749
v 0.207974464 0.758246720 -0.042683668
v 0.187286288 0.902648330 -0.024063468
v -0.168313056 0.918490767 -0.012736593
v -0.160286665 0.917978108 -0.000334080
v -0.151779130 0.916857719 0.013002152
v 0.048086278 0.785473168 -0.097411782
v -0.142873496 0.914879620 0.026099602
v 0.175806850 0.894045353 -0.012473645
v -0.131783754 0.912820935 0.037231006
v -0.138752148 0.645027757 -0.099957027
v 0.189520389 0.850283504 0.018741418
v 0.013129284 0.712125778 -0.073462643
v -0.009129133 0.697920680 -0.070110947
v -0.008434022 0.715332568 -0.072883621
v 0.145322025 0.906510472 -0.114480697
v -0.140116543 0.668025196 -0.105614819
v -0.007830552 0.732815802 -0.076764539
v -0.139177322 0.715325713 -0.115403965
v 0.011321011 0.731817782 -0.077279776
v -0.007687493 0.750564337 -0.080066830
v -0.134444997 0.922206402 0.050070114
v 0.151683420 0.754996777 -0.097051330
v 0.167832643 0.895554185 0.005678933
v -0.119525209 0.658530354 -0.099725075
v -0.126548916 0.909731030 0.054000944
v -0.118225753 0.918206096 0.043491784
v 0.163259566 0.881440818 0.027670985
v 0.042453878 0.850897193 -0.139547989
v -0.139393777 0.691460192 -0.110964298
v -0.119753756 0.732774317 -0.109238043
v 0.153581157 0.898873031 0.017858477
v -0.120521545 0.682276249 -0.099786416
v 0.180059195 0.840205193 0.037933480
v -0.101083711 0.671490610 -0.094570741
v -0.006333063 0.737409949 0.033472437
v -0.107519545 0.900548816 0.050185848
v 0.148666918 0.905656517 0.044372026
v 0.155121028 0.888574898 0.052285988
v 0.144832924 0.892998040 0.033930440
v -0.085639432 0.657879114 -0.099888027
v -0.099760324 0.694301903 -0.099454090
v -0.080081694 0.681284487 -0.102428876
v 0.049591247 0.645669580 0.036111083
v -0.099622846 0.717223287 -0.103941217
v 0.047920458 0.893737316 -0.145826027
v -0.076987065 0.704571068 -0.103385903
v 0.023191361 0.885848701 -0.139899954
v -0.040466964 0.842030883 -0.134969026
v -0.037785802 0.867758393 -0.143285498
v 0.198933795 0.640584588 0.002167296
v 0.189473644 0.648545802 0.035211042
v -0.058770739 0.695343494 -0.084440857
v -0.061325885 0.721763492 -0.091581956
v -0.150675029 0.925418675 -0.102716386
v 0.170432851 0.852002621 0.049427688
v 0.150818527 0.849457741 0.057314165
v -0.189152226 0.578133523 -0.013524001
v 0.168233603 0.615031540 0.051627588
v 0.175685003 0.640417159 0.051652133
v -0.186215252 0.561884880 -0.007298990
v 0.137478411 0.869476914 0.052400440
v -0.049829345 0.599028468 -0.046704240
v -0.044848986 0.581680894 -0.048484784
v 0.013065441 0.617055595 0.018038105
v -0.028764641 0.581592143 -0.044203997
v -0.000962880 0.923014462 0.069579810
v 0.064138114 0.882809460 -0.148774266
v -0.017814346 0.922864795 0.068963043
v -0.031921089 0.607991278 0.019734934
v 0.133495376 0.627471268 0.070607573
v 0.036240794 0.906600118 0.067277677
v 0.085708782 0.586137950 0.051324375
v 0.073145740 0.601479888 0.048126690
v 0.107275628 0.597332716 0.062724210
v 0.045794256 0.829448342 -0.125402808
v 0.127989933 0.602871358 0.071408309
v 0.058946490 0.606492758 0.033224333
v 0.191358313 0.596292436 0.008427365
v 0.128420576 0.842588723 0.064993694
v 0.116083995 0.860722721 0.060690861
v 0.182163328 0.875163257 0.007920563
v 0.110633515 0.620068252 0.067558333
v 0.193086118 0.878511429 -0.020095035
v 0.185199291 0.872455478 -0.045870192
v 0.055936106 0.903930545 0.064665392
v 0.091269307 0.632730007 0.060480129
v 0.113864101 0.646391213 0.071297124
v 0.173494548 0.882211387 -0.066331998
v 0.165637553 0.895309925 -0.083950631
v 0.090551138 0.610162258 0.057157405
v 0.162523001 0.884861827 -0.097313575
v 0.163880140 0.599590182 -0.063002840
v 0.171784043 0.605232656 -0.083888456
v 0.068968102 0.643610597 0.051894139
v 0.142983809 0.606663287 -0.077370405
v 0.137457773 0.888889611 -0.125097960
v 0.071303599 0.621056914 0.050290961
v 0.115624115 0.694834471 0.075928576
v 0.147564709 0.608147562 0.060188960
v 0.179734021 0.599940777 0.038109370
v 0.197342575 0.608133018 0.025980806
v 0.200529739 0.695565403 -0.041431375
v 0.142531782 0.702745914 -0.091007277
v 0.053374905 0.626667738 0.034744401
v 0.138711780 0.687997341 -0.106964290
v 0.200321645 0.609351635 -0.032926887
v 0.193582982 0.604811847 -0.012302424
v 0.038544387 0.662202001 0.032471415
v 0.010404741 0.683677673 0.027804825
v 0.097970553 0.869742095 0.063202724
v 0.075405858 0.902306259 0.061824314
v 0.017092101 0.703070939 0.031525727
v 0.037988506 0.805153668 0.046048217
v 0.023316856 0.783010066 0.041257385
v 0.019415196 0.622105598 -0.052193172
v 0.063109934 0.883631110 0.061719544
v 0.037982769 0.662229478 -0.063718811
v 0.035662338 0.856738567 0.057568967
v 0.050836880 0.867633939 0.060351688
v 0.016439570 0.855485260 0.059042860
v 0.036955021 0.603064656 -0.049532179
v 0.056053847 0.666321874 -0.074233159
v 0.081003807 0.769047797 0.066992156
v 0.202100158 0.695883691 0.025357882
v 0.194510907 0.796591699 -0.064955898
v 0.062288672 0.600973010 -0.056417365
v 0.161930948 0.692268252 -0.084572658
v 0.121772423 0.778938651 -0.122615315
v 0.120433345 0.700090349 -0.100450695
v 0.087841853 0.598417640 -0.067677595
v 0.049267113 0.706830978 -0.083733603
v 0.036133565 0.767295122 -0.089849427
v 0.116270483 0.608730614 -0.079822600
v 0.102921762 0.591331303 -0.088331416
v 0.100600563 0.901009381 -0.142959759
v 0.082028046 0.882202625 0.059602469
v 0.076319113 0.858489692 0.056635983
v 0.124077275 0.586810231 -0.073483318
v 0.029427728 0.840180278 0.051943172
v 0.048017174 0.825834453 0.049135707
v 0.078310438 0.902826965 -0.147834599
v 0.151039779 0.584729075 -0.073231027
v 0.170682907 0.762996197 -0.089394614
v 0.020452172 0.825075626 -0.111653343
v 0.166153282 0.644284487 -0.079517767
v 0.177129716 0.583676219 -0.073612519
v 0.014423204 0.692977846 -0.069571599
v 0.161132216 0.580147624 -0.061207175
v 0.028969545 0.789117694 -0.092930041
v 0.176331460 0.584235191 -0.046234611
v 0.186655134 0.595004201 -0.032187715
v 0.065375753 0.727468550 0.058287721
v 0.105835579 0.876472116 -0.141191512
v 0.085044809 0.880985081 -0.147719637
v 0.015570618 0.768903255 -0.084628522
v 0.201908782 0.587858796 -0.022320924
v 0.125905469 0.657454431 -0.087971479
v 0.208536714 0.648436248 -0.012775265
v 0.200047925 0.632146955 0.022513879
v 0.149557948 0.650567114 -0.077747449
v 0.143261269 0.651055694 -0.095527634
v 0.193206012 0.582556844 0.028564554
v 0.167645544 0.835139573 0.057423640
v 0.201932102 0.833865285 0.008634492
v 0.189676017 0.655464351 -0.046869107
v 0.049000837 0.622926831 -0.054271650
v 0.161301270 0.587465703 0.050973684
v 0.092048608 0.751210868 0.070541039
v 0.202298760 0.663449645 -0.001426304
v 0.201691985 0.655843496 0.018175356
v 0.090888701 0.673346102 -0.090593830
v 0.144735485 0.582950115 0.066657752
v 0.117903329 0.829901218 -0.128617883
v -0.005894092 0.754500210 0.034735873
v -0.007997756 0.669768095 0.025064927
v 0.056415271 0.660751164 0.044086121
v 0.122471705 0.580773234 0.067025855
v 0.137438312 0.832307041 -0.108558953
v -0.007190082 0.720510840 0.030925531
v -0.005269537 0.771715403 0.036246635
v 0.103725091 0.577828109 0.058397751
v 0.022214128 0.823195755 0.043795262
v -0.002221106 0.823459446 0.042768352
v 0.114195965 0.880224347 0.047927007
v 0.066728689 0.586323619 0.036379874
v 0.114134237 0.903046787 0.047342397
v 0.189538121 0.581890941 -0.008394354
v 0.109662257 0.753881752 0.077834055
v 0.033358756 0.907866001 -0.142977729
v 0.044979453 0.589061379 0.025656244
v 0.064902239 0.863375366 -0.147191823
v 0.018080348 0.593150377 0.021115102
v 0.037203912 0.611957431 0.023127597
v 0.040297516 0.809698403 -0.106006064
v 0.015775403 0.804170310 0.040128782
v 0.015442711 0.659959972 0.024732174
v -0.008768247 0.653039336 0.022442732
v -0.007395235 0.703484178 0.029296186
v 0.186544210 0.578244328 -0.026816582
v -0.007488483 0.686543822 0.027505582
v 0.074140333 0.623243868 -0.068627328
v 0.086243108 0.751306951 -0.104589716
v 0.106296681 0.762640536 -0.111569807
v 0.164499432 0.746810555 0.067281961
v 0.100684747 0.713911951 0.071422532
v 0.167942092 0.720457137 0.063883439
v 0.093491904 0.614032328 -0.087791309
v 0.187829703 0.576067269 0.009831156
f 555 540 123
f 389 162 497
f 567 540 568
f 583 104 251
f 463 489 430
f 453 94 255
f 483 484 162
f 446 640 671
f 574 577 251
f 50 244 238
f 52 244 50
f 575 57 53
f 55 249 52
f 55 2 250
f 577 248 563
f 575 437 432
f 57 597 589
f 2 265 262
f 589 592 57
f 262 259 2
f 5 267 262
f 602 606 589
f 5 9 11
f 58 606 610
f 11 272 5
f 12 278 11
f 565 793 8
f 630 60 632
f 13 425 12
f 424 289 160
f 289 424 13
f 643 649 60
f 181 403 179
f 483 206 484
f 163 651 174
f 53 563 558
f 651 65 650
f 163 389 384
f 683 66 65
f 455 558 563
f 165 384 171
f 340 331 34
f 67 66 683
f 206 470 63
f 385 102 856
f 67 702 70
f 344 340 696
f 179 403 406
f 710 70 702
f 16 352 14
f 111 112 59
f 63 64 655
f 18 368 16
f 710 742 753
f 119 112 111
f 394 671 545
f 551 922 903
f 19 375 18
f 753 740 711
f 406 470 179
f 261 615 108
f 545 453 439
f 178 386 530
f 24 386 23
f 72 753 742
f 26 396 24
f 768 765 72
f 119 142 112
f 32 63 470
f 112 142 161
f 399 400 396
f 154 343 182
f 545 671 448
f 399 415 400
f 768 770 765
f 32 406 410
f 418 415 399
f 770 183 777
f 387 300 166
f 415 418 422
f 105 86 299
f 169 42 839
f 170 142 119
f 173 172 705
f 329 638 343
f 134 738 737
f 185 638 329
f 692 661 145
f 150 74 741
f 637 345 873
f 132 145 661
f 170 184 142
f 138 495 760
f 138 136 188
f 136 194 188
f 201 87 194
f 270 87 205
f 216 49 210
f 46 216 724
f 198 184 170
f 43 96 907
f 219 39 218
f 45 43 41
f 224 37 219
f 498 224 514
f 86 105 342
f 225 36 514
f 378 107 110
f 80 233 107
f 22 41 43
f 198 217 849
f 41 581 45
f 103 233 76
f 76 40 103
f 222 217 214
f 678 100 40
f 98 41 22
f 366 41 98
f 40 76 678
f 215 4 284
f 215 98 21
f 537 536 92
f 222 234 217
f 904 537 92
f 460 462 30
f 284 471 366
f 222 239 246
f 586 903 759
f 462 28 30
f 246 234 222
f 454 449 28
f 237 391 924
f 560 319 921
f 246 888 252
f 431 471 282
f 455 560 391
f 319 560 241
f 50 238 793
f 50 566 52
f 52 574 55
f 258 263 510
f 244 52 249
f 55 253 2
f 284 792 657
f 303 670 667
f 303 100 674
f 250 249 55
f 273 274 252
f 251 253 574
f 100 303 301
f 301 570 100
f 104 261 257
f 677 100 678
f 273 285 274
f 257 2 253
f 2 257 265
f 250 2 259
f 570 568 40
f 752 292 293
f 294 296 285
f 285 296 274
f 684 497 679
f 277 274 296
f 440 447 442
f 579 489 463
f 692 329 695
f 259 262 267
f 871 736 360
f 262 271 9
f 40 100 570
f 570 567 568
f 203 128 270
f 310 296 294
f 305 296 310
f 87 270 194
f 9 5 262
f 5 272 600
f 276 9 271
f 9 276 11
f 272 11 278
f 302 323 310
f 568 103 40
f 108 615 89
f 280 11 276
f 11 280 12
f 103 568 540
f 278 12 425
f 323 337 328
f 283 12 280
f 12 283 13
f 283 297 289
f 289 13 283
f 540 561 231
f 425 13 424
f 209 288 205
f 291 125 286
f 346 337 323
f 49 304 288
f 173 350 351
f 297 654 314
f 347 158 864
f 304 47 311
f 47 304 49
f 47 46 481
f 360 361 855
f 501 684 146
f 481 311 47
f 46 39 481
f 343 695 329
f 314 289 297
f 289 314 160
f 481 321 308
f 481 39 321
f 325 122 321
f 325 321 37
f 37 321 39
f 333 160 314
f 324 266 333
f 527 107 231
f 84 121 325
f 36 327 498
f 160 333 34
f 327 120 84
f 36 82 371
f 277 393 390
f 689 34 333
f 34 689 340
f 313 34 331
f 266 334 689
f 334 260 341
f 340 335 331
f 107 527 110
f 54 404 405
f 696 14 344
f 61 401 44
f 38 299 407
f 358 14 348
f 14 358 16
f 344 14 352
f 356 704 712
f 352 16 368
f 413 62 417
f 370 16 358
f 16 370 18
f 175 705 134
f 713 115 110
f 371 27 378
f 27 371 82
f 381 18 370
f 18 381 19
f 368 18 375
f 80 378 27
f 19 381 235
f 19 395 23
f 19 23 178
f 202 506 913
f 23 395 24
f 386 24 396
f 398 24 395
f 24 398 26
f 26 398 220
f 26 412 399
f 396 26 399
f 418 399 412
f 164 180 444
f 444 443 164
f 175 173 705
f 685 84 120
f 422 300 415
f 685 121 84
f 172 169 300
f 172 300 422
f 78 80 27
f 226 365 78
f 89 615 114
f 240 485 309
f 134 737 175
f 226 27 82
f 245 459 452
f 187 186 140
f 243 459 245
f 189 187 130
f 581 466 579
f 467 472 637
f 308 122 240
f 138 579 466
f 430 255 463
f 499 435 430
f 453 430 435
f 435 440 439
f 435 499 450
f 243 479 281
f 308 321 122
f 897 438 584
f 439 453 435
f 243 281 893
f 450 440 435
f 480 859 865
f 440 449 447
f 442 439 440
f 450 449 440
f 447 449 454
f 492 488 493
f 127 458 456
f 449 456 28
f 82 225 708
f 454 28 462
f 28 456 30
f 456 450 127
f 30 456 458
f 225 82 36
f 30 464 460
f 506 507 502
f 126 469 125
f 287 508 509
f 207 507 506
f 410 460 32
f 126 306 477
f 460 464 644
f 644 32 460
f 32 644 63
f 475 31 576
f 470 406 32
f 64 63 644
f 306 309 477
f 125 464 458
f 528 795 511
f 516 523 524
f 655 206 63
f 206 655 484
f 206 474 470
f 162 679 497
f 316 322 822
f 313 160 34
f 37 498 325
f 523 316 534
f 497 684 501
f 501 146 505
f 146 512 503
f 505 503 513
f 263 515 510
f 512 120 115
f 503 512 91
f 517 513 503
f 115 713 91
f 458 203 125
f 315 547 548
f 91 512 115
f 547 330 336
f 91 713 88
f 517 88 522
f 552 548 547
f 532 88 713
f 88 532 519
f 552 336 553
f 522 519 541
f 527 231 561
f 127 128 458
f 538 660 692
f 514 36 498
f 224 498 37
f 538 692 695
f 114 626 631
f 553 342 105
f 219 37 39
f 555 660 561
f 127 450 499
f 891 199 824
f 660 555 661
f 218 39 46
f 199 97 886
f 366 98 284
f 22 21 98
f 41 366 581
f 43 232 22
f 907 232 43
f 96 536 907
f 45 463 255
f 45 581 463
f 255 94 96
f 255 96 45
f 94 453 545
f 448 546 545
f 582 593 594
f 595 584 438
f 216 46 47
f 216 47 49
f 551 640 558
f 558 640 569
f 49 288 209
f 793 565 50
f 569 53 558
f 566 50 565
f 209 210 49
f 841 351 350
f 574 52 566
f 578 53 57
f 612 609 423
f 53 578 563
f 575 53 569
f 597 432 211
f 253 55 574
f 57 575 597
f 578 57 592
f 592 583 578
f 627 609 612
f 584 621 628
f 603 589 606
f 602 589 597
f 634 819 627
f 610 606 602
f 835 318 229
f 626 606 58
f 610 624 58
f 58 624 630
f 632 58 630
f 634 884 869
f 58 632 626
f 60 642 632
f 642 60 649
f 60 630 181
f 650 649 643
f 662 652 645
f 656 628 621
f 621 636 656
f 658 659 204
f 64 644 469
f 466 495 138
f 694 377 700
f 468 471 431
f 663 650 65
f 628 656 668
f 679 162 484
f 65 686 663
f 672 673 659
f 686 65 66
f 683 65 651
f 468 431 478
f 683 693 67
f 685 146 684
f 146 685 512
f 696 340 689
f 66 67 701
f 473 495 478
f 66 698 686
f 702 67 693
f 668 675 687
f 701 698 66
f 405 690 54
f 701 67 70
f 54 690 564
f 14 696 348
f 711 70 710
f 699 70 711
f 702 709 710
f 229 318 236
f 657 282 471
f 710 709 742
f 753 756 740
f 756 753 72
f 742 754 72
f 72 754 768
f 72 765 756
f 766 765 770
f 490 193 496
f 130 772 496
f 770 776 766
f 15 719 168
f 87 201 148
f 183 770 768
f 201 194 136
f 422 705 172
f 633 777 338
f 777 633 150
f 408 74 633
f 638 185 408
f 106 730 258
f 688 379 694
f 275 631 118
f 185 692 145
f 197 750 749
f 736 737 738
f 263 258 730
f 738 741 743
f 185 145 143
f 743 741 744
f 744 741 74
f 744 467 879
f 132 140 145
f 123 132 661
f 741 738 150
f 123 540 567
f 773 772 567
f 738 134 150
f 78 27 226
f 238 623 1
f 264 279 779
f 776 150 134
f 134 705 420
f 695 541 538
f 104 599 261
f 365 681 680
f 761 762 763
f 365 678 76
f 76 78 365
f 411 156 420
f 156 411 220
f 541 519 538
f 220 764 156
f 76 233 78
f 80 78 233
f 168 789 387
f 70 699 701
f 398 395 228
f 434 437 445
f 779 780 887
f 428 432 434
f 926 317 706
f 197 749 745
f 213 6 4
f 279 785 780
f 419 427 428
f 148 201 745
f 454 462 419
f 526 782 783
f 381 734 235
f 410 414 419
f 493 769 913
f 511 4 215
f 4 511 213
f 406 414 410
f 208 731 729
f 21 511 215
f 210 728 727
f 794 800 823
f 511 21 529
f 470 474 179
f 724 218 46
f 227 110 115
f 118 280 275
f 219 218 722
f 806 800 794
f 803 804 256
f 716 778 225
f 224 219 720
f 407 86 690
f 356 734 381
f 389 497 380
f 809 795 528
f 810 806 811
f 717 716 514
f 497 501 380
f 317 697 429
f 810 818 821
f 913 771 202
f 341 698 699
f 373 376 159
f 369 177 373
f 341 260 698
f 260 334 266
f 365 226 681
f 517 522 354
f 828 821 818
f 354 362 364
f 569 640 446
f 519 522 88
f 767 828 818
f 266 324 676
f 602 597 211
f 804 834 256
f 121 240 122
f 345 868 918
f 610 602 211
f 169 839 166
f 427 195 211
f 643 179 174
f 683 651 165
f 693 683 171
f 627 884 634
f 324 654 676
f 846 397 841
f 841 397 374
f 362 709 369
f 580 397 846
f 192 188 190
f 192 499 489
f 128 192 190
f 270 205 203
f 205 288 286
f 291 306 126
f 208 148 733
f 288 304 291
f 304 311 306
f 311 481 308
f 286 125 203
f 283 118 297
f 589 599 592
f 283 280 118
f 227 115 120
f 747 805 732
f 707 226 82
f 107 378 80
f 275 114 631
f 118 646 297
f 89 114 275
f 231 233 103
f 87 209 205
f 816 872 870
f 271 108 89
f 248 560 455
f 248 241 560
f 108 271 265
f 566 565 241
f 86 876 690
f 622 244 619
f 517 91 88
f 574 566 248
f 715 662 889
f 244 249 618
f 249 250 614
f 882 465 718
f 253 251 257
f 774 465 882
f 250 259 608
f 883 494 774
f 921 391 560
f 259 267 604
f 54 564 847
f 251 577 583
f 600 267 5
f 89 276 271
f 503 91 517
f 690 405 407
f 275 276 89
f 892 573 582
f 272 278 596
f 248 577 574
f 280 276 275
f 425 588 591
f 425 424 781
f 781 313 572
f 424 313 781
f 572 585 781
f 314 654 324
f 136 197 201
f 313 557 572
f 237 551 558
f 554 331 335
f 334 341 348
f 760 136 138
f 335 344 549
f 341 699 704
f 348 696 334
f 921 319 7
f 358 348 704
f 344 352 544
f 912 582 594
f 903 586 551
f 352 368 543
f 381 370 356
f 368 375 539
f 788 8 3
f 535 375 178
f 221 795 809
f 828 767 562
f 559 833 920
f 921 920 899
f 546 448 898
f 903 922 836
f 38 903 299
f 235 228 395
f 405 669 407
f 546 92 94
f 400 518 520
f 92 546 904
f 639 35 926
f 386 396 525
f 927 926 33
f 928 605 930
f 200 490 298
f 94 545 546
f 96 92 536
f 927 56 852
f 143 472 408
f 220 412 26
f 400 520 521
f 412 220 411
f 109 113 152
f 920 832 559
f 418 412 411
f 152 113 746
f 387 789 786
f 420 418 411
f 746 161 867
f 418 420 422
f 490 773 298
f 496 772 773
f 394 442 445
f 562 767 832
f 739 636 820
f 204 725 658
f 773 490 496
f 725 223 635
f 447 454 428
f 472 186 637
f 215 284 98
f 189 130 496
f 458 464 30
f 410 462 460
f 125 469 464
f 635 247 487
f 487 269 629
f 641 487 629
f 268 269 487
f 269 393 629
f 390 269 268
f 469 126 64
f 349 761 763
f 655 64 477
f 303 674 670
f 290 393 277
f 611 290 928
f 163 474 483
f 928 307 605
f 635 641 648
f 531 605 533
f 677 674 100
f 477 309 485
f 506 202 207
f 679 485 240
f 240 121 684
f 312 912 594
f 684 679 240
f 121 685 684
f 186 187 345
f 503 505 146
f 912 332 892
f 772 130 132
f 685 120 512
f 501 505 159
f 725 648 658
f 505 513 373
f 513 517 364
f 892 847 564
f 110 527 713
f 714 847 339
f 522 541 154
f 51 714 346
f 231 103 540
f 714 51 404
f 541 695 343
f 567 772 123
f 502 500 506
f 578 577 563
f 867 659 673
f 577 578 583
f 597 575 432
f 592 104 583
f 913 492 493
f 845 167 839
f 599 104 592
f 386 178 23
f 599 603 615
f 110 227 378
f 615 261 599
f 706 402 639
f 603 626 114
f 132 123 772
f 624 610 195
f 409 706 317
f 746 673 682
f 114 615 603
f 120 327 227
f 624 414 403
f 691 429 697
f 642 631 632
f 642 118 631
f 429 433 853
f 646 118 642
f 642 649 646
f 152 682 691
f 682 433 691
f 181 643 60
f 654 297 646
f 122 325 121
f 140 130 187
f 421 416 617
f 123 661 555
f 309 308 240
f 698 260 686
f 702 693 177
f 698 701 699
f 672 441 436
f 291 126 125
f 109 691 697
f 143 140 186
f 874 872 816
f 665 441 672
f 188 192 489
f 665 658 653
f 712 704 699
f 653 451 665
f 927 697 317
f 712 740 734
f 648 461 653
f 178 375 19
f 923 880 116
f 641 461 648
f 740 756 748
f 748 758 228
f 926 706 639
f 479 641 482
f 754 742 362
f 354 754 362
f 407 669 38
f 203 458 128
f 482 629 620
f 756 765 758
f 182 754 154
f 128 127 192
f 254 246 252
f 611 382 620
f 764 398 228
f 499 192 127
f 764 766 156
f 766 776 156
f 930 611 928
f 420 156 776
f 140 132 130
f 788 7 8
f 387 166 168
f 420 776 134
f 136 760 197
f 300 387 415
f 750 197 760
f 745 201 197
f 148 208 209
f 733 148 745
f 258 35 106
f 593 533 605
f 731 208 733
f 236 318 910
f 729 210 208
f 728 210 729
f 727 216 210
f 188 489 579
f 929 573 556
f 724 216 727
f 573 929 582
f 723 218 724
f 722 218 723
f 720 219 722
f 717 224 720
f 514 224 717
f 188 579 138
f 876 556 573
f 707 681 226
f 898 904 546
f 472 143 186
f 212 795 221
f 899 391 921
f 854 925 931
f 213 795 212
f 140 143 145
f 404 54 714
f 833 922 924
f 415 387 786
f 143 408 185
f 238 3 793
f 1 3 238
f 31 799 752
f 622 238 244
f 918 799 515
f 380 376 171
f 915 752 357
f 617 476 421
f 619 244 618
f 618 249 616
f 616 249 614
f 636 739 613
f 388 613 10
f 614 250 608
f 357 791 915
f 383 688 388
f 608 259 607
f 571 438 576
f 295 667 666
f 92 96 94
f 607 259 604
f 372 726 700
f 667 295 303
f 367 726 372
f 604 267 601
f 298 295 207
f 923 875 880
f 363 732 367
f 408 467 74
f 148 209 87
f 298 301 295
f 359 747 363
f 601 267 600
f 359 355 755
f 600 272 598
f 598 272 596
f 353 755 355
f 301 298 773
f 596 278 591
f 747 755 751
f 591 278 425
f 588 425 781
f 388 688 813
f 769 771 913
f 763 353 349
f 202 771 200
f 506 500 913
f 74 467 744
f 773 570 301
f 82 708 707
f 320 647 326
f 500 492 913
f 331 554 557
f 242 910 320
f 344 335 340
f 910 908 647
f 554 335 550
f 239 222 703
f 549 550 335
f 549 344 544
f 166 167 168
f 544 352 543
f 543 368 542
f 17 15 167
f 17 845 157
f 907 536 919
f 157 850 155
f 155 850 153
f 542 368 539
f 150 633 74
f 153 854 151
f 151 854 149
f 149 858 147
f 147 862 144
f 539 375 535
f 759 903 38
f 530 535 178
f 144 862 141
f 141 866 139
f 139 866 137
f 530 386 525
f 137 870 135
f 525 396 521
f 135 870 872
f 133 872 131
f 131 874 129
f 129 923 117
f 923 874 875
f 170 119 902
f 521 396 400
f 20 932 101
f 99 101 932
f 99 886 97
f 95 97 199
f 95 891 93
f 93 896 90
f 518 400 786
f 90 896 85
f 85 901 83
f 83 905 81
f 169 166 300
f 81 905 79
f 77 79 796
f 77 909 75
f 439 394 545
f 75 914 73
f 73 914 71
f 71 916 69
f 442 394 439
f 468 466 366
f 442 447 434
f 7 562 920
f 794 534 811
f 924 899 833
f 434 447 428
f 428 454 419
f 419 462 410
f 38 898 759
f 902 111 897
f 466 468 495
f 526 524 534
f 25 59 56
f 96 43 45
f 895 401 61
f 182 343 338
f 483 389 163
f 483 162 389
f 897 59 25
f 883 894 775
f 776 777 150
f 59 897 111
f 380 384 389
f 774 882 893
f 111 902 119
f 778 708 225
f 501 159 380
f 167 166 839
f 159 505 373
f 176 191 867
f 373 513 369
f 364 369 513
f 850 890 925
f 354 364 517
f 354 522 154
f 177 369 709
f 154 541 343
f 446 445 437
f 376 380 159
f 204 223 725
f 217 198 214
f 214 703 222
f 437 569 446
f 610 211 195
f 414 624 195
f 403 630 624
f 889 718 715
f 160 313 424
f 181 630 403
f 888 246 239
f 179 643 181
f 174 650 643
f 651 650 174
f 163 384 165
f 487 247 268
f 165 651 163
f 171 683 165
f 174 474 163
f 557 313 331
f 475 515 799
f 376 693 171
f 285 273 757
f 177 693 376
f 627 885 884
f 174 179 474
f 509 508 516
f 294 302 310
f 709 702 177
f 709 362 742
f 154 754 354
f 182 338 183
f 780 785 803
f 183 768 182
f 423 413 881
f 183 338 777
f 638 338 343
f 633 638 408
f 590 401 895
f 692 185 329
f 190 188 194
f 515 475 25
f 270 190 194
f 190 270 128
f 195 427 414
f 7 788 562
f 915 878 571
f 877 595 438
f 203 205 286
f 44 48 61
f 474 206 483
f 210 209 208
f 61 62 895
f 413 895 62
f 211 432 427
f 172 42 169
f 398 764 220
f 515 263 918
f 437 575 569
f 228 758 764
f 124 885 426
f 175 871 350
f 84 498 327
f 225 514 716
f 327 371 227
f 918 263 730
f 898 448 759
f 371 327 36
f 839 374 890
f 227 371 378
f 451 441 665
f 228 235 748
f 444 180 457
f 233 231 107
f 187 868 345
f 759 448 586
f 189 292 868
f 734 748 235
f 653 461 826
f 924 922 237
f 292 193 196
f 446 671 394
f 461 641 479
f 922 551 237
f 391 237 455
f 482 641 629
f 918 868 799
f 196 200 293
f 771 293 200
f 558 455 237
f 281 287 894
f 894 893 281
f 248 566 241
f 257 251 104
f 255 430 453
f 257 261 265
f 509 775 287
f 260 266 676
f 509 516 524
f 265 261 108
f 523 516 531
f 322 316 523
f 273 252 888
f 265 271 262
f 811 534 316
f 316 315 811
f 676 686 260
f 366 466 581
f 478 495 468
f 330 547 315
f 547 336 552
f 366 471 468
f 760 495 473
f 657 471 284
f 336 342 553
f 553 900 552
f 832 900 553
f 865 878 791
f 792 284 4
f 31 571 576
f 286 288 291
f 438 571 877
f 906 864 863
f 4 790 792
f 8 7 319
f 303 295 301
f 291 304 306
f 570 773 567
f 739 617 392
f 617 416 392
f 306 311 309
f 309 311 308
f 170 628 668
f 613 739 10
f 739 392 10
f 656 675 668
f 656 815 675
f 680 678 365
f 813 613 388
f 324 333 314
f 687 198 668
f 379 688 383
f 295 666 207
f 815 656 636
f 377 694 379
f 325 498 84
f 689 333 266
f 334 696 689
f 700 377 372
f 861 834 860
f 703 721 239
f 732 726 367
f 834 861 256
f 348 341 704
f 747 732 363
f 356 358 704
f 735 888 721
f 370 358 356
f 735 264 757
f 735 273 888
f 755 747 359
f 369 364 362
f 353 763 755
f 647 761 326
f 761 349 326
f 376 373 177
f 779 757 264
f 780 779 279
f 384 380 171
f 235 395 19
f 736 871 737
f 562 788 917
f 910 647 320
f 785 804 803
f 414 406 403
f 256 323 803
f 813 675 815
f 415 786 400
f 427 419 414
f 422 420 705
f 432 428 427
f 430 489 499
f 587 580 590
f 437 434 432
f 445 442 434
f 446 394 445
f 671 586 448
f 819 609 627
f 456 449 450
f 455 563 248
f 865 791 769
f 581 579 463
f 645 652 817
f 644 464 469
f 652 662 715
f 874 923 129
f 715 664 652
f 694 812 688
f 477 64 126
f 750 760 473
f 485 655 477
f 465 715 718
f 507 207 666
f 465 774 494
f 865 486 480
f 812 675 813
f 485 484 655
f 207 202 298
f 883 504 825
f 493 865 769
f 783 782 504
f 679 484 485
f 202 200 298
f 196 490 200
f 196 193 490
f 877 859 476
f 302 803 323
f 189 496 193
f 814 806 810
f 168 719 789
f 821 814 810
f 391 899 924
f 713 527 532
f 467 408 472
f 302 294 887
f 786 787 518
f 538 519 532
f 561 532 527
f 926 35 33
f 538 532 660
f 540 555 561
f 551 586 640
f 319 241 565
f 660 532 561
f 113 161 746
f 161 176 867
f 8 319 565
f 223 247 635
f 781 585 784
f 620 629 393
f 887 780 302
f 269 390 393
f 671 640 586
f 781 784 588
f 599 589 603
f 393 290 611
f 626 603 606
f 928 290 305
f 623 238 622
f 625 1 623
f 774 893 894
f 312 332 912
f 626 632 631
f 332 339 847
f 847 892 332
f 757 887 285
f 847 714 54
f 793 3 8
f 732 807 726
f 858 931 857
f 675 812 687
f 168 167 15
f 273 735 757
f 920 921 7
f 402 385 639
f 167 845 17
f 638 633 338
f 646 649 663
f 650 663 649
f 845 850 157
f 888 239 721
f 663 654 646
f 706 409 48
f 850 854 153
f 676 654 663
f 429 409 317
f 661 692 660
f 854 858 149
f 676 663 686
f 858 862 147
f 433 429 691
f 678 680 677
f 699 711 712
f 712 734 356
f 711 710 753
f 862 866 141
f 712 711 740
f 682 436 827
f 734 740 748
f 866 870 137
f 214 687 808
f 748 756 758
f 664 816 652
f 872 133 135
f 198 687 214
f 754 182 768
f 872 874 131
f 665 659 658
f 758 765 766
f 658 648 653
f 766 764 758
f 776 770 777
f 668 198 170
f 117 923 116
f 787 786 789
f 929 330 822
f 533 822 322
f 556 336 330
f 531 322 523
f 899 920 833
f 662 444 889
f 346 323 256
f 491 482 620
f 116 880 911
f 911 20 116
f 382 491 620
f 911 932 20
f 932 886 99
f 645 443 662
f 930 382 611
f 382 930 516
f 886 824 199
f 605 531 930
f 491 508 848
f 628 170 902
f 256 347 346
f 482 848 479
f 891 896 93
f 347 256 861
f 820 617 739
f 866 819 817
f 605 594 593
f 896 901 85
f 929 593 582
f 612 881 885
f 901 905 83
f 826 451 653
f 451 457 180
f 672 659 665
f 441 180 851
f 79 905 796
f 436 673 672
f 436 851 827
f 909 914 75
f 682 673 436
f 914 916 71
f 584 902 897
f 876 86 342
f 69 916 1
f 829 433 827
f 700 808 694
f 788 3 916
f 853 829 417
f 409 61 48
f 402 48 855
f 870 817 816
f 855 29 360
f 874 816 664
f 385 361 102
f 830 880 875
f 576 897 25
f 819 634 817
f 68 69 1
f 106 856 730
f 743 736 738
f 910 242 236
f 862 857 819
f 744 879 102
f 880 830 831
f 840 528 843
f 401 846 44
f 803 302 780
f 769 791 357
f 878 915 791
f 831 911 880
f 918 873 345
f 576 25 475
f 799 31 475
f 841 29 846
f 879 856 102
f 106 639 385
f 573 564 876
f 911 831 802
f 342 556 876
f 337 339 332
f 25 510 515
f 350 29 841
f 564 573 892
f 892 582 912
f 510 25 56
f 864 906 837
f 312 328 337
f 929 822 593
f 33 35 258
f 871 360 29
f 840 860 835
f 864 158 863
f 29 855 44
f 916 914 917
f 808 687 812
f 594 307 312
f 307 305 328
f 916 917 788
f 33 56 927
f 840 835 809
f 307 594 605
f 736 743 361
f 531 516 930
f 290 277 305
f 852 109 927
f 318 835 860
f 21 844 529
f 852 59 112
f 620 393 611
f 102 743 744
f 112 113 852
f 751 763 762
f 647 785 762
f 805 747 751
f 252 268 254
f 230 835 229
f 487 641 635
f 637 879 467
f 124 851 164
f 809 230 221
f 161 142 176
f 807 732 805
f 247 234 254
f 230 809 835
f 808 700 807
f 345 637 186
f 176 184 191
f 812 694 808
f 204 849 223
f 849 204 191
f 813 688 812
f 635 648 725
f 849 184 198
f 815 613 813
f 815 636 613
f 217 223 849
f 659 191 204
f 217 234 223
f 191 184 849
f 859 480 421
f 795 213 511
f 245 461 243
f 878 865 859
f 802 886 932
f 191 659 867
f 452 718 889
f 223 234 247
f 176 142 184
f 246 254 234
f 865 493 486
f 293 771 357
f 268 247 254
f 771 769 357
f 805 264 735
f 268 252 390
f 161 113 112
f 486 493 488
f 390 252 274
f 867 673 746
f 264 751 279
f 274 277 390
f 746 682 152
f 281 848 287
f 827 433 682
f 808 703 214
f 152 691 109
f 109 852 113
f 476 859 421
f 296 305 277
f 476 595 877
f 305 307 928
f 196 293 292
f 595 476 820
f 726 807 700
f 752 293 357
f 307 328 312
f 310 328 305
f 56 59 852
f 292 752 799
f 328 310 323
f 886 825 824
f 312 337 332
f 807 703 808
f 891 824 782
f 193 292 189
f 844 21 22
f 429 853 409
f 109 697 927
f 56 33 510
f 105 559 553
f 339 337 346
f 346 714 339
f 51 346 347
f 317 926 927
f 564 690 876
f 863 844 232
f 799 868 292
f 510 33 258
f 843 528 529
f 844 863 842
f 861 840 843
f 861 158 347
f 861 860 840
f 752 915 31
f 158 843 842
f 843 158 861
f 842 529 844
f 919 837 906
f 906 232 907
f 809 528 840
f 730 873 918
f 730 856 873
f 873 856 879
f 856 106 385
f 817 634 645
f 837 919 838
f 817 652 816
f 919 906 907
f 919 536 537
f 743 102 361
f 904 669 838
f 898 669 904
f 669 898 38
f 703 807 721
f 405 404 838
f 669 405 838
f 922 833 836
f 294 285 887
f 361 385 402
f 869 645 634
f 830 875 664
f 916 3 1
f 864 51 347
f 402 855 361
f 909 801 914
f 397 890 374
f 48 44 855
f 796 909 77
f 879 637 873
f 901 798 905
f 580 925 397
f 48 402 706
f 896 800 901
f 891 823 896
f 409 62 61
f 853 62 409
f 881 413 417
f 417 62 853
f 86 407 299
f 459 893 882
f 199 891 95
f 830 465 831
f 829 426 417
f 426 829 124
f 426 881 417
f 124 829 827
f 433 829 853
f 886 802 825
f 774 894 883
f 851 124 827
f 164 884 124
f 441 851 436
f 180 164 851
f 443 869 164
f 911 802 932
f 715 830 664
f 874 664 875
f 736 361 360
f 451 180 441
f 457 452 889
f 889 444 457
f 866 817 870
f 106 35 639
f 459 718 452
f 826 452 457
f 452 826 245
f 451 826 457
f 862 819 866
f 858 857 862
f 461 245 826
f 459 882 718
f 479 243 461
f 854 931 858
f 850 925 854
f 846 401 580
f 845 890 850
f 491 848 482
f 848 281 479
f 825 494 883
f 382 508 491
f 900 832 767
f 508 287 848
f 896 823 800
f 839 890 845
f 504 782 824
f 42 374 839
f 516 508 382
f 908 910 318
f 534 524 523
f 552 818 548
f 42 172 173
f 901 800 798
f 818 552 900
f 533 322 531
f 871 175 737
f 868 187 189
f 22 232 844
f 593 822 533
f 822 315 316
f 929 556 330
f 330 315 822
f 838 919 537
f 904 838 537
f 318 860 834
f 908 318 834
f 465 830 715
f 556 342 336
f 105 836 559
f 833 559 836
f 29 44 846
f 908 834 804
f 562 917 828
f 299 836 105
f 818 900 767
f 832 553 559
f 562 832 920
f 811 315 548
f 828 801 821
f 801 828 917
f 821 797 814
f 836 299 903
f 401 590 580
f 797 821 801
f 905 798 796
f 796 814 797
f 810 548 818
f 814 798 806
f 798 814 796
f 909 796 797
f 811 548 810
f 413 587 590
f 404 51 837
f 51 864 837
f 837 838 404
f 909 797 801
f 529 842 843
f 158 842 863
f 232 906 863
f 800 806 798
f 529 528 511
f 794 811 806
f 785 908 804
f 785 647 908
f 859 877 878
f 526 534 794
f 877 571 878
f 571 31 915
f 173 351 42
f 524 783 509
f 350 173 175
f 29 350 871
f 823 526 794
f 783 524 526
f 526 823 782
f 42 351 374
f 841 374 351
f 504 775 783
f 509 783 775
f 782 823 891
f 885 124 884
f 887 757 779
f 914 801 917
f 426 885 881
f 890 397 925
f 825 504 824
f 775 504 883
f 925 587 931
f 587 925 580
f 802 494 825
f 785 279 762
f 494 831 465
f 831 494 802
f 894 287 775
f 590 895 413
f 438 897 576
f 884 164 869
f 762 279 751
f 423 931 587
f 587 413 423
f 931 423 857
f 762 761 647
f 617 820 476
f 595 820 621
f 751 755 763
f 893 459 243
f 751 264 805
f 609 857 423
f 423 881 612
f 662 443 444
f 721 805 735
f 621 584 595
f 857 609 819
f 443 645 869
f 612 885 627
f 636 621 820
f 628 902 584
f 805 721 807
