# avbd fit, rung f600-i16-s300 of Gate 6d (body space, fit phase only)
v -0.011064486 0.617895901 0.004142140
v -0.106960461 0.626723945 0.066174380
v -0.010865862 0.632174850 0.006636164
v -0.000328141 0.884761214 0.066339374
v -0.152748719 0.609136462 0.057541795
v 0.005405459 0.896174431 0.074326083
v -0.010563017 0.660097599 0.011334803
v -0.010427877 0.646193862 0.008958610
v -0.154772446 0.625206411 0.058843441
v 0.152646929 0.897551835 -0.108502723
v -0.172516614 0.620585620 0.049934637
v -0.185959846 0.622289181 0.033494309
v -0.194150925 0.623159230 0.017997688
v -0.159985840 0.625351191 -0.068834022
v 0.009242015 0.623926640 -0.019870833
v -0.142861381 0.623269558 -0.074087456
v 0.026346952 0.622751176 -0.022713009
v -0.126465216 0.625078857 -0.079710871
v -0.110476598 0.630295396 -0.086016476
v 0.189453363 0.585032940 0.006014266
v -0.000758712 0.856448352 0.059572499
v -0.001090623 0.843185425 0.053868044
v -0.094512939 0.627741456 -0.079798765
v -0.081967801 0.635091960 -0.075859874
v 0.092555478 0.805710614 -0.109963909
v -0.069095924 0.644591153 -0.072631545
v -0.136028200 0.862391472 -0.123795852
v -0.142707318 0.788228512 0.072150864
v 0.035753660 0.697945297 -0.070238218
v -0.158737212 0.798423409 0.066578314
v 0.066351965 0.829844296 -0.129096180
v -0.192426175 0.775472760 0.044903986
v 0.082694300 0.771246433 -0.106190719
v -0.192046598 0.619865417 -0.032294817
v 0.067851759 0.762710273 -0.100731313
v -0.160761178 0.867645621 -0.099113300
v -0.183392704 0.866945863 -0.060570963
v 0.012198542 0.747175694 0.030215491
v -0.186098188 0.871346831 -0.040821645
v -0.081621297 0.861204147 -0.146305889
v -0.031015152 0.847067356 0.054431565
v 0.009748376 0.667284012 -0.046273131
v -0.020656358 0.830994725 0.047135614
v 0.054524876 0.698481917 -0.083376363
v -0.043470930 0.831664264 0.049429171
v -0.184615076 0.877399266 -0.022157174
v -0.190955758 0.866327643 -0.005668151
v 0.064642109 0.715957403 -0.091128215
v -0.181123644 0.869935870 0.013215910
v -0.049144540 0.633206189 0.022676760
v 0.059704501 0.804513156 0.057114564
v -0.061179768 0.630087912 0.042673029
v -0.077379510 0.704883456 0.060964692
v 0.057238646 0.768788397 0.057229947
v -0.081181139 0.627351880 0.054980695
v 0.098574430 0.782942474 -0.110898294
v -0.101732835 0.700760961 0.070293739
v -0.172768354 0.705750465 0.060138442
v 0.114901617 0.794833183 -0.115701094
v -0.199313730 0.703230381 0.032311942
v 0.074445859 0.699412346 -0.091251493
v 0.093771875 0.694281280 -0.096917592
v -0.202583671 0.785169244 0.025634626
v -0.199396938 0.804893136 0.024183050
v -0.207496196 0.702514887 -0.031638291
v -0.193243116 0.698200524 -0.052228499
v -0.183517769 0.709923148 -0.067590058
v -0.004330465 0.604829967 -0.002159364
v 0.012455008 0.606840491 0.000673256
v -0.166138530 0.699569464 -0.079465643
v 0.029614463 0.606185436 0.003541589
v -0.113975868 0.711071312 -0.106354833
v 0.043954123 0.603842974 0.011537123
v -0.026886925 0.751770854 -0.078176633
v 0.056141935 0.600951552 0.022358406
v -0.101301290 0.862957001 -0.141684458
v 0.064227365 0.597097278 0.036123954
v -0.119570628 0.864291668 -0.135454327
v 0.075515598 0.594243407 0.048062600
v -0.124452807 0.851519227 -0.126461327
v 0.090059653 0.592354834 0.054203622
v -0.146498814 0.876965702 -0.118059710
v 0.104310855 0.590373635 0.060399354
v -0.180461422 0.838498890 -0.082080364
v 0.118088856 0.588409245 0.066467233
v 0.043889094 0.732859969 0.042791095
v -0.147815898 0.869160950 0.049668454
v -0.126483873 0.791099668 -0.113745257
v -0.156642184 0.652869046 0.060742926
v 0.132727206 0.587098181 0.064769506
v -0.146004006 0.797714829 -0.105773628
v -0.022632038 0.794503868 0.038692739
v 0.146199137 0.586809099 0.058199696
v -0.041877113 0.795719326 0.049450323
v 0.159506142 0.586167097 0.051669359
v -0.029167939 0.813234627 0.041875459
v 0.172689259 0.585432947 0.045158494
v -0.019602066 0.861157537 0.060822703
v 0.179968968 0.585305512 0.032456055
v -0.069642529 0.876563549 -0.149552613
v 0.186124489 0.585086107 0.019692218
v 0.022642065 0.753409505 -0.078541160
v -0.092246294 0.845947623 -0.140214965
v -0.108943462 0.665040433 0.070228770
v 0.037356701 0.715104640 0.035601743
v 0.050818544 0.764866650 -0.096347503
v -0.119383082 0.837687850 -0.121943936
v -0.139662832 0.650133252 0.068221666
v 0.123715892 0.754468203 -0.110575818
v -0.132929906 0.828242481 -0.111346111
v 0.132148936 0.803961277 -0.111636221
v 0.139635116 0.785627782 -0.107255742
v 0.139470518 0.765448749 -0.104811057
v -0.163708419 0.669642806 0.060066581
v -0.149334371 0.817530811 -0.104848586
v 0.190054566 0.585029066 -0.007775669
v 0.190466762 0.585071981 -0.020558229
v -0.192410946 0.659901679 0.032642387
v 0.149453595 0.802941918 -0.103926338
v -0.167963907 0.827399909 -0.096966453
v -0.192230195 0.826746106 -0.064378336
v -0.198137507 0.838910758 -0.049891584
v -0.059548579 0.824133754 -0.122758292
v 0.146066070 0.685493946 -0.084747694
v -0.177480012 0.826979935 0.047120016
v -0.193433911 0.823232830 0.025049251
v -0.125721663 0.819258571 0.072240934
v -0.138145223 0.834338486 0.065006241
v 0.184578493 0.586250126 -0.032693662
v -0.024967799 0.820845008 -0.110286817
v 0.177913785 0.587085128 -0.044437807
v -0.043873634 0.814960003 -0.111615635
v 0.171154365 0.587574720 -0.056130975
v -0.031661570 0.706970334 -0.066739418
v 0.159258261 0.588656187 -0.062785327
v -0.111200891 0.870619893 0.054493725
v 0.146377474 0.589754581 -0.067017242
v -0.090876237 0.866017520 0.056899182
v 0.133372024 0.590527236 -0.071230389
v -0.027562937 0.809389293 -0.096822031
v 0.120209597 0.591009319 -0.075441122
v 0.163668379 0.791784406 -0.097232655
v -0.029552395 0.791746974 -0.089416429
v 0.107057050 0.592924476 -0.075485259
v -0.047526453 0.801180482 -0.098840967
v -0.182629853 0.795752645 -0.084706441
v 0.094476201 0.596091628 -0.070252538
v -0.147481859 0.885626018 0.040807702
v 0.081462696 0.599345386 -0.064833574
v -0.033950638 0.728420138 -0.077413745
v 0.068051159 0.602658510 -0.059598308
v 0.139226139 0.747544587 -0.101883098
v 0.054736178 0.606332779 -0.053148955
v -0.103833295 0.754663646 -0.110550486
v 0.048982553 0.613396108 -0.040744636
v -0.061219133 0.682998180 -0.081755988
v 0.040447060 0.619409978 -0.029607156
v 0.052857898 0.836170077 0.051416237
v -0.185558453 0.764917791 -0.074937999
v -0.196987599 0.625679135 -0.013757741
v 0.157593116 0.772500157 -0.097402379
v -0.208684087 0.781315029 -0.030887257
v -0.210119814 0.746467412 -0.021083672
v 0.165996015 0.677348614 -0.074415296
v -0.207574889 0.734278262 -0.040491480
v -0.011153208 0.647524953 -0.033907872
v 0.013295409 0.637702346 -0.029029265
v -0.010996552 0.635511160 -0.026503081
v -0.010613440 0.659565151 -0.041227844
v 0.168445945 0.813996792 -0.095824681
v -0.196553200 0.739758015 -0.056478135
v -0.010364230 0.671779752 -0.047890760
v -0.010475759 0.684614480 -0.053616233
v -0.209967896 0.731680512 -0.001419456
v -0.010184640 0.698184729 -0.058122706
v 0.175103948 0.778373361 -0.090072706
v -0.171901256 0.737220407 -0.084570318
v -0.099125110 0.612548828 -0.077583052
v -0.205113560 0.740674734 0.025134867
v 0.181523740 0.691882074 -0.065817043
v -0.199498206 0.722186744 0.034477808
v -0.089472249 0.741097808 -0.104938462
v -0.075633481 0.729322910 -0.098328888
v 0.183421731 0.796037257 -0.082967922
v -0.047596291 0.782155991 -0.097425923
v -0.006449983 0.802151382 -0.087471642
v -0.005812449 0.814736485 -0.096079744
v -0.104319081 0.853267193 0.065980911
v -0.005169578 0.825412095 -0.106342696
v -0.125433683 0.847204864 0.063525334
v 0.187114477 0.773189664 -0.073511586
v -0.112656690 0.834715664 0.070426106
v -0.004662605 0.835917294 -0.116444215
v -0.128189921 0.862518013 0.056819193
v -0.157397360 0.731414258 0.068276167
v -0.004263965 0.846822619 -0.125554264
v -0.115612052 0.885195851 0.045240276
v 0.189374179 0.817326546 -0.071681134
v 0.168993145 0.602122188 0.049475770
v -0.004124940 0.859507084 -0.130884320
v -0.131134346 0.878605008 0.047770478
v -0.003988397 0.872837543 -0.134283662
v -0.160057545 0.839570224 0.058584116
v 0.198866501 0.766072869 -0.055254005
v -0.163248867 0.857584476 0.046773508
v -0.210941270 0.775985599 0.005870843
v -0.003807719 0.886478543 -0.135846645
v -0.157811344 0.887601674 0.026126256
v -0.165267497 0.872629523 0.032108456
v -0.171902150 0.885378957 0.012337250
v -0.137450293 0.725660086 0.074859910
v 0.032582998 0.898325324 0.066595711
v 0.017328203 0.898160815 0.067273572
v 0.198532134 0.832263947 -0.050444704
v -0.000540953 0.870222092 0.064570829
v -0.183016494 0.883561134 -0.004637296
v 0.203599378 0.807598114 -0.047643900
v -0.179337293 0.886217594 -0.037157744
v -0.179414660 0.883940876 -0.053982139
v -0.068281807 0.663599908 -0.078570060
v 0.048016198 0.898670018 0.065135464
v 0.203091592 0.820788860 -0.028540930
v 0.208188564 0.780816138 -0.036970075
v -0.172135770 0.881015658 -0.070099041
v -0.157848522 0.884940624 -0.104674242
v -0.129451960 0.879188180 -0.131717041
v -0.149706990 0.837164283 -0.103400685
v -0.096290544 0.662998378 -0.090048529
v 0.078938596 0.899020076 0.060965426
v 0.063490175 0.899026215 0.063068181
v -0.102060676 0.832372367 -0.129638076
v -0.001596083 0.830368221 0.047013305
v -0.110241696 0.848144650 -0.135606334
v 0.207750112 0.799460292 -0.022875898
v -0.111709595 0.651878417 -0.091584012
v 0.093666017 0.898654103 0.056113087
v -0.032987662 0.705283046 0.028069735
v -0.036254831 0.620572925 0.009986201
v 0.202255458 0.830520928 -0.010600178
v -0.202556133 0.820863128 -0.039191142
v -0.045169730 0.660684705 0.026435953
v 0.107359394 0.897964597 0.050408028
v 0.206458896 0.692947268 -0.000702001
v -0.055105370 0.615938067 0.027038163
v 0.206657693 0.693131685 -0.019628780
v 0.206248358 0.813009262 -0.005168345
v 0.210213989 0.778539956 -0.010189443
v -0.055068571 0.668595254 0.043370143
v -0.070739448 0.611794055 0.048297971
v -0.093401268 0.610929847 0.058074117
v -0.090620145 0.657319844 0.062201582
v 0.202596232 0.802983642 0.020516848
v -0.091544583 0.641049743 0.061100464
v 0.209977418 0.795160055 -0.000564074
v -0.053517021 0.814368725 0.052663885
v 0.095434114 0.832107365 0.073438160
v -0.108376428 0.646974504 0.068552807
v 0.063671425 0.778239250 -0.101460516
v -0.114798866 0.607441664 0.067009851
v -0.191370338 0.665149987 -0.047968268
v -0.125279874 0.656501055 0.074870303
v -0.134116516 0.620731175 0.067838036
v 0.057885092 0.794043422 -0.100012913
v 0.176889583 0.852522373 0.033310108
v -0.126549095 0.638073266 0.072912417
v -0.194253683 0.650253534 -0.038491499
v -0.136822894 0.603342354 0.064341068
v 0.209268883 0.780888855 0.014702206
v 0.203676537 0.765139341 0.026257128
v -0.144446060 0.851802349 0.057326831
v -0.145823061 0.637310624 0.064143315
v -0.167195708 0.602402091 0.049873345
v 0.190704927 0.819227576 0.030947018
v 0.189479724 0.799524903 0.043480393
v -0.176891103 0.655490994 0.052661687
v -0.166295677 0.638632894 0.054906737
v 0.186055362 0.779749572 0.056473803
v -0.180537194 0.605065465 0.038129140
v 0.159792587 0.858792484 0.050279222
v -0.183958203 0.639202654 0.043135155
v 0.203254968 0.687642992 0.020154212
v -0.048776101 0.898984075 0.064903721
v -0.193387598 0.639589190 0.024892857
v -0.023076100 0.879799008 0.064980030
v 0.179020107 0.815449357 0.051271349
v -0.174213544 0.844640911 0.042771954
v 0.193023339 0.681986809 0.039496988
v -0.177301079 0.857065678 0.028837547
v -0.198036999 0.633930206 0.005465568
v 0.176729351 0.761074424 0.063478306
v -0.186953709 0.840625286 0.027518928
v 0.018922815 0.833199978 -0.117946997
v 0.020031225 0.847825825 -0.130800277
v 0.161529630 0.812249482 0.063947178
v -0.029272255 0.883760095 -0.142712474
v 0.172331601 0.796507001 0.063676000
v -0.200690702 0.652700543 0.010574486
v -0.023307094 0.866318226 -0.138192967
v 0.023675648 0.731910825 0.031031782
v -0.027040804 0.656844437 -0.041739680
v -0.044255517 0.868528664 -0.144772232
v 0.143073529 0.821206212 0.067496352
v -0.050777309 0.884936631 -0.146865934
v -0.191810265 0.854272366 0.012099849
v 0.158832356 0.776405513 0.069250070
v -0.200449616 0.836476684 0.009614849
v 0.139693230 0.760527968 0.074829593
v -0.199102506 0.842123985 -0.029720310
v -0.202598482 0.828720212 -0.013442610
v 0.147022188 0.799853683 0.070080116
v -0.198943526 0.848595440 -0.008744768
v 0.119043432 0.769175231 0.080882818
v -0.193915278 0.606092989 -0.019482182
v -0.199686885 0.644074380 -0.008624127
v 0.098753452 0.684431195 0.068235472
v 0.118981764 0.681789219 0.076248981
v 0.093238473 0.736401737 -0.105148450
v 0.090893425 0.878155053 0.055576455
v -0.028755393 0.661773860 0.015144534
v 0.119501948 0.897856236 0.043805391
v -0.193024382 0.855525494 -0.045538343
v 0.130181730 0.698587954 0.076868840
v 0.119168222 0.811114609 0.075824693
v -0.200987980 0.652376056 -0.022438679
v -0.187682956 0.848479450 -0.065274730
v 0.130012393 0.896668315 0.036519047
v -0.165015668 0.848281264 -0.095791422
v 0.132814988 0.784335554 0.075599268
v -0.065089338 0.775193095 -0.102031305
v 0.088133357 0.703433692 0.065615274
v -0.185475454 0.603743017 -0.037862688
v 0.097534537 0.770923138 0.073846206
v -0.198049605 0.636565804 -0.027672440
v -0.183462292 0.647342801 -0.054656737
v -0.176188171 0.601315260 -0.052443940
v 0.067021310 0.700996041 0.056822926
v 0.107241258 0.789544046 0.078651652
v -0.065341517 0.745024264 -0.098177344
v 0.087616876 0.785344481 0.070383206
v -0.181437105 0.616759896 -0.048502199
v -0.177752525 0.662257552 -0.065409943
v 0.053029049 0.715704083 0.052214492
v -0.079827599 0.760001123 -0.104006454
v -0.166775435 0.609211385 -0.064103521
v 0.015299635 0.805555642 -0.090760849
v 0.087088682 0.806949973 0.070597395
v 0.070432477 0.823877037 0.061266959
v -0.169821605 0.643761516 -0.068451360
v 0.141972467 0.897317886 0.031424705
v 0.016168052 0.692349315 -0.058235534
v 0.017629493 0.678238511 -0.053420447
v -0.148467913 0.607993305 -0.069877103
v 0.151296407 0.896539211 0.022630896
v -0.125824705 0.754414737 -0.109886803
v 0.159690097 0.896983922 0.013096605
v -0.142279863 0.652952969 -0.081629023
v 0.042116046 0.852393746 -0.139859602
v -0.153032452 0.640430808 -0.074618503
v 0.167851269 0.898209095 0.003046393
v 0.029412201 0.715791821 -0.071568564
v 0.032509666 0.733831286 -0.077801198
v -0.137273401 0.739586234 -0.101924442
v 0.173042938 0.898556113 -0.009333167
v -0.143731743 0.757124305 -0.101709343
v -0.111206636 0.879655361 -0.139483303
v -0.043345582 0.866193891 0.060277857
v 0.172926456 0.897295177 -0.022881325
v -0.130872712 0.607605755 -0.075441107
v -0.156817928 0.747255385 -0.093777113
v -0.137964055 0.637162447 -0.078780070
v -0.149471402 0.856362700 -0.109143995
v 0.172373906 0.897200942 -0.035935827
v -0.173782900 0.756121755 -0.087254688
v 0.030333737 0.664536893 -0.051416151
v -0.114818394 0.610794604 -0.080965295
v -0.186090261 0.747486055 -0.072350301
v 0.172962010 0.898190975 -0.050517373
v -0.135192320 0.845760524 -0.114152297
v 0.173157930 0.898840070 -0.065667033
v -0.197181046 0.762415230 -0.058076303
v -0.125403732 0.643583953 -0.084739313
v 0.181338266 0.718193054 0.058900289
v 0.167716891 0.898552895 -0.080180235
v -0.206869245 0.749960005 -0.044672929
v 0.040168114 0.749170005 -0.090830222
v -0.084569231 0.616559327 -0.071810491
v -0.029160600 0.640898347 -0.033235274
v 0.162355557 0.898461521 -0.095162742
v -0.209084079 0.765550673 -0.037149016
v 0.197530389 0.781694293 0.035246771
v -0.027776305 0.689851880 0.021928061
v 0.141603336 0.896595001 -0.120607272
v 0.194127068 0.758387685 0.046361122
v -0.068576336 0.762942672 0.061241012
v -0.096308522 0.643987298 -0.084981062
v -0.067953132 0.623970628 -0.066255517
v 0.043860175 0.660882950 -0.067216530
v -0.082486674 0.654070258 -0.081226945
v -0.053462587 0.640296519 -0.064830713
v -0.049536292 0.623948514 -0.056232620
v 0.065181419 0.682995677 -0.083080344
v 0.051956616 0.732113421 -0.090665430
v -0.192690879 0.734504998 0.049848627
v 0.045723684 0.785433114 0.053123791
v 0.038502757 0.767655015 0.043913499
v -0.194117129 0.755161345 0.047199916
v 0.032008868 0.749311447 0.038349506
v -0.033255611 0.770460546 -0.085312977
v 0.088566765 0.715383470 -0.099282689
v -0.177164823 0.766880095 0.062876984
v -0.053647287 0.669484615 -0.074535273
v -0.057463098 0.655030966 -0.071325250
v 0.094617240 0.670707166 -0.091229171
v -0.172875136 0.746209562 0.064083949
v -0.041780889 0.646231294 -0.049622614
v 0.129815787 0.895944238 -0.130768627
v 0.110945106 0.685438871 -0.100226328
v -0.042862140 0.658841610 -0.065704964
v -0.153414339 0.760533690 0.070122540
v -0.040102758 0.683700442 -0.072801329
v 0.114914998 0.895521343 -0.137142435
v -0.034270212 0.669512689 -0.053080380
v 0.100064695 0.648872733 -0.087585494
v -0.195319623 0.616463900 0.001494646
v -0.189510763 0.605858684 0.020460602
v 0.126758426 0.681064665 -0.092431858
v -0.143682718 0.743488908 0.073561028
v -0.127583891 0.755564570 0.078453057
v 0.109306082 0.723526776 -0.108056448
v -0.076123796 0.816366374 0.063758053
v -0.064284399 0.899399161 0.062772281
v -0.114913329 0.735133708 0.078038663
v 0.129710183 0.716163278 -0.100505210
v -0.103764340 0.752845645 0.074794307
v -0.087053068 0.800474942 0.070267886
v 0.164953545 0.719180763 -0.083654791
v -0.089847311 0.736985385 0.068188846
v 0.109426603 0.835481524 -0.126728445
v -0.076436505 0.781908810 0.065152436
v -0.099673808 0.785481095 0.074767239
v 0.180986345 0.711155653 -0.070834637
v -0.091158740 0.768488526 0.070600897
v 0.175318345 0.660907507 -0.067495413
v 0.183833793 0.673250258 -0.059073962
v -0.084086597 0.752885699 0.066948988
v -0.067877397 0.742848992 0.059830707
v -0.112497069 0.770278156 0.079340138
v -0.032563355 0.758955300 0.037919618
v -0.122983776 0.787365854 0.077407345
v -0.111888304 0.803118408 0.078443527
v 0.192868099 0.706607640 -0.053746752
v 0.203598574 0.679468691 -0.032470055
v -0.063622378 0.797644496 0.060043089
v -0.136574656 0.772805035 0.075553164
v -0.047089610 0.689756751 0.036283467
v -0.136137694 0.803403735 0.072055288
v 0.193663940 0.686488867 -0.048706111
v -0.154051214 0.818691611 0.064396292
v 0.204284877 0.676661730 -0.012636818
v -0.179056749 0.787570000 0.062631145
v 0.208564237 0.714545846 -0.015667051
v -0.159057915 0.778781950 0.068725646
v -0.066014722 0.832885563 0.057615619
v -0.177300349 0.808092594 0.057916105
v 0.199358240 0.642158687 -0.009477140
v -0.068458796 0.865648925 0.057200797
v -0.008211695 0.771204948 -0.077888712
v -0.063452765 0.881871581 0.061358310
v -0.187487066 0.811668873 0.039609708
v -0.203768566 0.763886571 0.025874326
v -0.044575859 0.884769619 0.063847095
v -0.006910653 0.787647128 -0.081333749
v -0.094106220 0.899307728 0.055691551
v -0.211160064 0.753916621 0.003658255
v 0.072766766 0.818067074 -0.117213622
v 0.119460002 0.869118869 -0.136092156
v -0.206311494 0.817499459 0.006239963
v -0.079631411 0.899440587 0.060620219
v 0.208061412 0.710432947 0.009965907
v 0.099374689 0.895496190 -0.143656999
v -0.192395315 0.860062003 -0.025257464
v 0.203882962 0.724457443 0.025894364
v -0.210342973 0.767865837 -0.014917048
v -0.209557503 0.788992286 -0.013648489
v -0.206466436 0.809052169 -0.015634257
v 0.082760125 0.895899296 -0.147636503
v 0.210973784 0.759922802 0.006605762
v 0.065634146 0.896805644 -0.148305342
v -0.088166393 0.834668040 0.069248840
v -0.019243417 0.848598778 -0.131337762
v 0.194790602 0.715658307 0.043473158
v 0.048720494 0.897946179 -0.145854324
v 0.058138587 0.883710265 -0.147781342
v 0.197671503 0.634079576 0.014450702
v -0.082718775 0.881886005 0.059089344
v -0.023598988 0.834569335 -0.121779501
v -0.202889040 0.782843471 -0.051140636
v -0.174890473 0.861731052 -0.080788888
v -0.098721251 0.818474174 0.074844941
v 0.031502318 0.899170876 -0.142545909
v -0.190929741 0.782021880 -0.069490395
v 0.014355849 0.899969101 -0.138326421
v -0.162519097 0.786637783 -0.097918876
v 0.180828422 0.640037358 0.048696704
v -0.178000823 0.775698423 -0.088483319
v 0.013919370 0.889000118 -0.137300193
v -0.003763724 0.900258243 -0.136871561
v 0.188445076 0.697698295 0.053180940
v 0.177036971 0.677271485 0.056077003
v 0.077757046 0.790628731 -0.105598353
v 0.018170794 0.874813199 0.064606681
v -0.166573629 0.806819141 -0.097021356
v -0.159273386 0.767055392 -0.096130438
v -0.166539520 0.881651998 -0.087787844
v 0.063470542 0.808311164 -0.106460467
v 0.165455908 0.697465241 0.063048266
v -0.140585214 0.776116490 -0.106602453
v -0.048503604 0.613798559 -0.039497264
v -0.107645832 0.786415517 -0.113953270
v -0.053207703 0.607392311 -0.051406037
v -0.065045193 0.603839278 -0.058807295
v -0.118102454 0.771774113 -0.115481116
v 0.143170550 0.686536491 0.071273789
v 0.155645132 0.671462297 0.064100467
v -0.077647462 0.601038992 -0.063872859
v 0.146703273 0.649426699 0.065299243
v -0.113869503 0.822429061 -0.116024218
v 0.039979484 0.869315028 0.062364168
v 0.025251921 0.857984543 0.059451830
v -0.089896463 0.598242998 -0.069006935
v 0.146914333 0.709282756 0.070772357
v -0.106769107 0.804717422 -0.113944672
v 0.129320577 0.714923620 0.077873565
v 0.133264393 0.665350556 0.072945699
v -0.101894297 0.595342517 -0.074092649
v -0.002653713 0.804629982 0.036013775
v -0.003991871 0.790195823 0.034490421
v -0.090508893 0.790827811 -0.109512702
v -0.114241637 0.592840552 -0.077755868
v -0.079416163 0.831173599 -0.131727636
v -0.096962206 0.772831261 -0.110526025
v -0.125962362 0.591760278 -0.074139372
v -0.138289824 0.591153026 -0.070225030
v -0.150539279 0.590244651 -0.066281207
v -0.050996911 0.775565505 0.054573774
v -0.030582082 0.777874053 0.039339192
v 0.080503665 0.688258588 0.061151009
v 0.082847178 0.670633078 0.060561746
v -0.162773699 0.589071214 -0.062264003
v -0.172785878 0.588467002 -0.054139454
v -0.034439974 0.722751200 0.032479189
v 0.064548917 0.682221472 0.054099936
v 0.048802190 0.696540475 0.041619167
v -0.179219455 0.588102102 -0.043061875
v -0.075887308 0.818831325 -0.119035676
v 0.074214168 0.718503833 0.061210673
v -0.185613617 0.587457776 -0.031954076
v -0.051465351 0.708703816 0.048666354
v 0.030035913 0.698238254 0.026935061
v -0.038237464 0.675435901 0.024433041
v -0.093777254 0.821104169 -0.118508659
v 0.026858795 0.660101056 0.017255709
v -0.063519403 0.688224196 0.053874530
v 0.068600819 0.752114594 0.061137803
v -0.039301325 0.648135364 0.018125597
v -0.054247010 0.647628486 0.035767339
v -0.057803344 0.837602317 -0.136151820
v -0.074117050 0.845273197 -0.142801657
v -0.071200825 0.723686218 0.059982888
v -0.059943952 0.856316745 -0.144784331
v 0.087706983 0.838211238 -0.137611449
v -0.190808207 0.586687505 -0.020067830
v 0.081243761 0.736298919 0.065201685
v -0.070887692 0.648689628 0.052959669
v -0.095385231 0.718986154 0.069170170
v 0.091948733 0.823215365 -0.123420753
v -0.074811965 0.670180857 0.056839515
v -0.085659347 0.687626183 0.062731691
v -0.078720406 0.850070834 0.060912363
v 0.061900593 0.663972259 -0.075818002
v -0.054979138 0.849935889 0.053440660
v 0.100876868 0.739518285 0.073303804
v -0.093513355 0.672823131 0.064612910
v 0.129043296 0.835599244 -0.113340750
v -0.190383643 0.586668730 -0.007899919
v -0.033212431 0.740613341 0.035475485
v 0.080219544 0.653586328 -0.079788379
v -0.187243670 0.587519050 0.017948780
v -0.127969891 0.694077492 0.077245563
v 0.076555088 0.670401216 -0.083843872
v -0.181554586 0.587986290 0.029919710
v -0.108013988 0.683061182 0.071315356
v 0.114960849 0.727035165 0.078119680
v 0.122220121 0.746946573 0.080644228
v 0.124217972 0.850790501 -0.126214743
v -0.175718367 0.588170350 0.042042099
v -0.117389403 0.714085281 0.077473193
v -0.164114460 0.588725686 0.049398448
v -0.127572298 0.674544394 0.076067843
v -0.151706725 0.589276195 0.055426847
v -0.139086083 0.589439273 0.061633743
v -0.138114884 0.709555030 0.073866233
v -0.147428006 0.681709468 0.068480134
v -0.127012879 0.590244889 0.067498595
v 0.140493572 0.733780980 0.074978895
v -0.152327746 0.698637009 0.067802690
v -0.112792790 0.591450810 0.063902050
v -0.099325329 0.592897773 0.057972349
v 0.118394732 0.640027165 -0.085781716
v -0.155909553 0.715557694 0.067196533
v 0.179870009 0.740545928 0.061699182
v 0.120109834 0.654229999 -0.089064158
v 0.158641621 0.880275369 -0.103821062
v -0.085612416 0.594307303 0.052127887
v -0.143622667 0.665096581 0.067880288
v -0.071624823 0.595681310 0.046101782
v 0.132365733 0.881899655 -0.129239425
v -0.062800683 0.598298371 0.033228941
v -0.054958124 0.601458132 0.020000556
v 0.195252746 0.734964550 0.044759933
v 0.141370550 0.849904239 -0.111603297
v -0.045635335 0.604584396 0.007920185
v -0.031802461 0.605760515 0.000938456
v -0.175152004 0.724886179 0.061229952
v -0.027638907 0.619994223 0.000324845
v -0.169207573 0.687372983 0.060172379
v 0.134377092 0.648690343 -0.082706258
v 0.152944267 0.833178222 -0.102029726
v 0.205223471 0.745512247 0.025775900
v -0.191159427 0.713856578 0.050579239
v -0.185355365 0.673976839 0.051007599
v -0.189706013 0.693774819 0.050541181
v -0.043009035 0.746135056 -0.091301575
v 0.150236949 0.642865717 -0.075729400
v 0.210338473 0.757687271 -0.015740518
v 0.152370304 0.863851905 -0.112015173
v 0.009294116 0.789528668 -0.082557499
v -0.053902410 0.762286007 -0.097058721
v 0.060533114 0.748039842 -0.096761286
v -0.049240358 0.730858684 0.050515454
v 0.210099846 0.735243440 0.001361197
v -0.196695387 0.682507455 0.031726994
v -0.208027989 0.716712892 0.015789598
v -0.191054538 0.794931114 0.043325774
v 0.169088438 0.643835485 -0.068219893
v -0.203649074 0.673235357 0.011848226
v 0.127002001 0.878505111 0.048698902
v 0.209439844 0.737327993 -0.025248755
v -0.206752867 0.694658637 0.011817618
v -0.208119005 0.708416522 -0.007217064
v -0.208809525 0.722903788 -0.024051558
v 0.179818451 0.633954525 -0.055551816
v 0.204729050 0.721494973 -0.041025918
v -0.202513725 0.663757145 -0.007710475
v -0.210477546 0.797515213 0.005821853
v 0.158584133 0.849155545 -0.097753212
v -0.033202909 0.898461342 0.066456124
v 0.201684520 0.742706060 -0.049402252
v 0.187784851 0.749168813 -0.069592349
v -0.083712056 0.807196319 -0.109823987
v -0.062918738 0.811399460 -0.109218679
v 0.184306741 0.652717233 -0.054383069
v -0.205589220 0.685457349 -0.012827347
v 0.186892107 0.623329580 -0.041117661
v 0.192104086 0.726876140 -0.059046578
v -0.021440977 0.899977684 -0.139202625
v -0.038110796 0.899114907 -0.144687086
v 0.176622599 0.834765732 -0.089961492
v 0.017219957 0.764670134 0.034091145
v -0.055017095 0.897997200 -0.146985501
v -0.048956580 0.751950443 0.052818161
v 0.180794805 0.729220867 -0.075163491
v 0.168964207 0.740113735 -0.086069785
v -0.071831398 0.897075534 -0.148711547
v 0.174349234 0.854530931 -0.085438386
v -0.202970430 0.667518139 -0.029033354
v -0.088401303 0.896470547 -0.147553876
v -0.092590317 0.878460705 -0.146256357
v -0.206797957 0.799547076 -0.036730018
v -0.104049087 0.896304011 -0.141925812
v -0.119140543 0.896433055 -0.135560945
v 0.148305312 0.730370820 -0.094351128
v -0.198221967 0.718397975 -0.049707197
v -0.196467325 0.803937316 -0.062005401
v -0.183369637 0.816581130 -0.082309961
v -0.200273916 0.683428526 -0.039855279
v 0.186447889 0.843236744 -0.069085315
v 0.169588119 0.883700073 -0.073977977
v -0.187510744 0.633374393 -0.043636624
v 0.048451785 0.750552595 0.052798796
v 0.128015921 0.734435201 -0.105178930
v -0.068150170 0.793615520 -0.103232265
v -0.185254887 0.728511870 -0.069391087
v 0.179036304 0.880005181 -0.058702189
v -0.080166981 0.778471589 -0.106227078
v -0.176479548 0.628988147 -0.059840389
v 0.110624231 0.741662204 -0.110745765
v -0.185844347 0.679459214 -0.058212094
v -0.166330770 0.678696394 -0.075018562
v 0.182858169 0.878311515 -0.040547840
v -0.180291206 0.692837358 -0.068161793
v -0.169139832 0.718521714 -0.081985377
v 0.198839366 0.843528152 -0.027854040
v -0.159714803 0.658763409 -0.074998967
v -0.027691465 0.687219620 -0.056963079
v 0.073596567 0.732617199 -0.098083511
v -0.133385837 0.896928310 -0.128503129
v -0.144047707 0.897657573 -0.117881931
v -0.152910620 0.728630483 -0.092159495
v -0.150113583 0.709665477 -0.089535899
v -0.148422778 0.690354228 -0.085435770
v -0.146054775 0.671249449 -0.082721196
v -0.130019724 0.809938252 -0.113001391
v 0.067977779 0.786959529 0.062360246
v 0.193881840 0.643155038 -0.036067948
v -0.163086623 0.899034679 -0.092418030
v -0.168741852 0.899358869 -0.077995919
v 0.202045530 0.659927368 -0.024308465
v -0.010398736 0.623305857 -0.019776439
v -0.173246756 0.899656951 -0.063610435
v 0.199448198 0.847556412 -0.002305450
v -0.172872573 0.898780644 -0.049064554
v -0.172320336 0.897860885 -0.035084780
v -0.172600359 0.898057163 -0.022515099
v 0.209483102 0.757176280 -0.037262011
v 0.181678563 0.883023441 -0.025408501
v -0.172565356 0.899587274 -0.009415554
v -0.167027324 0.899293721 0.002385110
v -0.159355789 0.897885680 0.012167840
v 0.044675972 0.783338964 -0.096357778
v -0.150905699 0.897966266 0.021330262
v 0.183915526 0.880588353 -0.008251505
v -0.141409978 0.898397446 0.029808467
v -0.128250539 0.662290871 -0.088878751
v 0.191247672 0.841471016 0.021369809
v 0.012907389 0.723225892 -0.067446910
v -0.009424370 0.711789489 -0.063232109
v -0.009162279 0.726123273 -0.066682883
v 0.146678060 0.880726635 -0.117617071
v -0.130028278 0.681508541 -0.091419369
v -0.008659366 0.740626931 -0.071107730
v -0.133146942 0.720519066 -0.100232638
v 0.011026064 0.739710987 -0.071744442
v -0.008840315 0.755581558 -0.074713603
v -0.130137265 0.898863494 0.036416959
v 0.155579060 0.752955437 -0.094814099
v 0.177074701 0.881804466 0.009107498
v -0.112913594 0.671372294 -0.096493118
v -0.119636819 0.898852646 0.043380577
v -0.107697129 0.898886383 0.049982958
v 0.168657675 0.870387375 0.029754896
v 0.041876730 0.836164296 -0.130032003
v -0.131551400 0.700825572 -0.095917843
v -0.114149570 0.733749986 -0.111055985
v 0.164819106 0.886307716 0.020004291
v -0.113531865 0.690849662 -0.101377025
v 0.179873675 0.833368659 0.040903881
v -0.095161185 0.682210863 -0.095438473
v -0.007650453 0.745222926 0.028511304
v -0.099464700 0.883173764 0.052016824
v 0.141206071 0.886939526 0.042076208
v 0.148875281 0.873600006 0.048197910
v 0.154782981 0.885153174 0.033571135
v -0.080166124 0.673586607 -0.086717665
v -0.094159648 0.701805711 -0.098976567
v -0.075951822 0.692805946 -0.090735227
v 0.046069913 0.665677488 0.031571746
v -0.094318137 0.721454263 -0.102919795
v 0.047069378 0.868828893 -0.145095825
v -0.073704332 0.712180018 -0.093862489
v 0.022542167 0.864126682 -0.137001425
v -0.041723046 0.829660118 -0.124754287
v -0.038859475 0.847986817 -0.138367802
v 0.200600296 0.653200507 0.011424689
v 0.186968431 0.661024809 0.044720836
v -0.050891995 0.704650044 -0.083988301
v -0.055535935 0.726837337 -0.090847805
v -0.154894128 0.898567200 -0.106097326
v 0.168284863 0.844147086 0.051080931
v 0.148141980 0.841509938 0.061063360
v -0.192575261 0.600650430 -0.000080509
v 0.160109609 0.633609414 0.057677992
v 0.167935610 0.655260921 0.056849588
v -0.189963549 0.587167978 0.004995001
v 0.133899301 0.858193219 0.057673436
v -0.043265231 0.630872190 -0.038084723
v -0.040545207 0.619394600 -0.028704101
v 0.012708512 0.644150555 0.009452839
v -0.027458306 0.622521520 -0.021759406
v -0.003815328 0.899458706 0.067778304
v 0.063202485 0.858871579 -0.145711526
v -0.017803105 0.897985935 0.067173511
v -0.030934483 0.636176109 0.011045352
v 0.124448679 0.644517303 0.074274741
v 0.034558289 0.884850681 0.065123960
v 0.074993417 0.612750769 0.050675698
v 0.063537098 0.626262784 0.046164487
v 0.096685305 0.620872498 0.061488468
v 0.044570807 0.819687247 -0.116564833
v 0.117111579 0.623998761 0.070818305
v 0.053065948 0.632242620 0.029767206
v 0.192556903 0.615427971 0.018548815
v 0.125267297 0.834333718 0.068211898
v 0.112654425 0.849907219 0.065744847
v 0.187519625 0.863373101 0.010674166
v 0.101725496 0.639791548 0.065797113
v 0.190930322 0.863649726 -0.020510610
v 0.191548526 0.858312428 -0.048005395
v 0.052886017 0.883031726 0.062678233
v 0.082924351 0.651472390 0.058981676
v 0.106002413 0.662017584 0.069341563
v 0.179198161 0.864744008 -0.069741175
v 0.167257652 0.873702884 -0.086527631
v 0.081008643 0.632521033 0.055920351
v 0.161405593 0.864392161 -0.096825071
v 0.175205782 0.615862370 -0.057703834
v 0.156565621 0.624863625 -0.069356956
v 0.061418802 0.661934495 0.050616264
v 0.131321594 0.627532601 -0.078113824
v 0.137062013 0.865074158 -0.124415062
v 0.062716514 0.642766416 0.048590593
v 0.109285675 0.704058528 0.074102931
v 0.139727741 0.627633333 0.066313878
v 0.173767343 0.619980574 0.049768969
v 0.186995417 0.626886487 0.033453085
v 0.204409152 0.700776875 -0.037338585
v 0.147555321 0.707795441 -0.089957200
v 0.049294997 0.649595976 0.030187484
v 0.129296795 0.697648585 -0.095720813
v 0.197160274 0.626175284 -0.021780957
v 0.196158543 0.622043669 -0.001170097
v 0.036526732 0.680313528 0.026992511
v 0.009980598 0.699554741 0.020522013
v 0.093485318 0.856828690 0.064639151
v 0.071124263 0.881915390 0.060857695
v 0.016369205 0.715844035 0.025325712
v 0.036320157 0.802047849 0.045561805
v 0.023110157 0.783764482 0.038223889
v 0.018813137 0.652414739 -0.038971148
v 0.059878707 0.866769969 0.058945876
v 0.034347925 0.679746985 -0.061777424
v 0.034401845 0.845121086 0.052929956
v 0.048579402 0.854468644 0.054169077
v 0.015867490 0.843658626 0.054833628
v 0.034200929 0.636384070 -0.036207344
v 0.048204564 0.680149138 -0.075348377
v 0.077484041 0.769621789 0.065569051
v 0.199554190 0.702535272 0.031938680
v 0.196392059 0.790392756 -0.061500043
v 0.047522720 0.627010226 -0.053736188
v 0.164771527 0.698314190 -0.079337582
v 0.120388791 0.773970068 -0.114738084
v 0.109964035 0.704671800 -0.104459621
v 0.069401070 0.620334506 -0.065552108
v 0.044081260 0.715278268 -0.083888941
v 0.034209661 0.768525660 -0.087012619
v 0.104961291 0.627360582 -0.084135056
v 0.091231346 0.614996016 -0.074069083
v 0.100051343 0.873803735 -0.143313542
v 0.077751115 0.865786910 0.057861693
v 0.072762862 0.846089005 0.058733106
v 0.113868713 0.609504700 -0.080706060
v 0.028541872 0.832416832 0.046753332
v 0.046254780 0.818947196 0.048476346
v 0.077714212 0.875248611 -0.148552939
v 0.137048990 0.608000040 -0.073178373
v 0.174234167 0.759930313 -0.087133393
v 0.019390229 0.818320096 -0.104347333
v 0.161488399 0.657570839 -0.073533043
v 0.157677203 0.605555892 -0.065981776
v 0.014215374 0.707395971 -0.063221559
v 0.172962487 0.599961638 -0.056765210
v 0.027861889 0.788196206 -0.087985568
v 0.182937711 0.603896201 -0.041686021
v 0.191804245 0.612156510 -0.029340196
v 0.061083190 0.734101474 0.056971900
v 0.105099954 0.853374124 -0.138217717
v 0.084150963 0.856734872 -0.144758210
v 0.014958287 0.771185517 -0.079817638
v 0.194104910 0.608035982 -0.012645602
v 0.113780938 0.667598248 -0.094854027
v 0.201969311 0.660674393 -0.005660340
v 0.191859499 0.646862864 0.030194620
v 0.148134977 0.664180338 -0.080337122
v 0.132124469 0.666555226 -0.087693460
v 0.181905955 0.605871737 0.035727907
v 0.164806068 0.828822911 0.060192905
v 0.202101037 0.826419055 0.011741474
v 0.194249377 0.665342391 -0.042807370
v 0.041815337 0.647626042 -0.051342059
v 0.153164834 0.610136867 0.057886641
v 0.087864384 0.753909171 0.069036826
v 0.203563303 0.673194289 0.007064249
v 0.197020501 0.667089820 0.026148465
v 0.081173100 0.683799624 -0.089803949
v 0.132896483 0.605994463 0.066858225
v 0.115036584 0.817626357 -0.114810124
v -0.007169358 0.759995222 0.030412745
v -0.008749051 0.687909484 0.017257314
v 0.051561017 0.677622437 0.040947542
v 0.110483982 0.606256068 0.065432325
v 0.140885249 0.819225013 -0.107918397
v -0.008792771 0.730796516 0.025372693
v -0.006163250 0.775003672 0.032529835
v 0.092298649 0.604914963 0.057123799
v 0.021690365 0.818190098 0.040564273
v -0.002123541 0.818694949 0.038893696
v 0.111278430 0.867187798 0.057295062
v 0.058691870 0.614718556 0.033420034
v 0.107650623 0.883372962 0.048873343
v 0.192727476 0.602868557 0.003958275
v 0.105352663 0.755949736 0.076236062
v 0.032714255 0.881331444 -0.143809304
v 0.042929608 0.619731963 0.016387533
v 0.063679814 0.842840850 -0.141508013
v 0.018125493 0.624511898 0.007464994
v 0.035331123 0.638883352 0.016115772
v 0.039212022 0.806474090 -0.097726911
v 0.015919421 0.802093863 0.037496869
v 0.015038542 0.679511368 0.016757147
v -0.009603621 0.674019217 0.013833781
v -0.008667794 0.716376901 0.022768786
v 0.191377237 0.598102510 -0.025155205
v -0.008329978 0.701994836 0.020349551
v 0.060876179 0.642464757 -0.068327203
v 0.080866948 0.751366496 -0.103026606
v 0.101137258 0.759943068 -0.109795690
v 0.159048855 0.749023199 0.068959877
v 0.095049225 0.721135736 0.069724806
v 0.161916673 0.725392461 0.066523977
v 0.084268503 0.634184957 -0.076326981
v 0.188397914 0.598556578 0.020217853
f 555 540 123
f 389 162 497
f 567 540 568
f 583 104 251
f 463 489 430
f 453 94 255
f 483 484 162
f 446 640 671
f 574 577 251
f 50 244 238
f 52 244 50
f 575 57 53
f 55 249 52
f 55 2 250
f 577 248 563
f 575 437 432
f 57 597 589
f 2 265 262
f 589 592 57
f 262 259 2
f 5 267 262
f 602 606 589
f 5 9 11
f 58 606 610
f 11 272 5
f 12 278 11
f 565 793 8
f 630 60 632
f 13 425 12
f 424 289 160
f 289 424 13
f 643 649 60
f 181 403 179
f 483 206 484
f 163 651 174
f 53 563 558
f 651 65 650
f 163 389 384
f 683 66 65
f 455 558 563
f 165 384 171
f 340 331 34
f 67 66 683
f 206 470 63
f 385 102 856
f 67 702 70
f 344 340 696
f 179 403 406
f 710 70 702
f 16 352 14
f 111 112 59
f 63 64 655
f 18 368 16
f 710 742 753
f 119 112 111
f 394 671 545
f 551 922 903
f 19 375 18
f 753 740 711
f 406 470 179
f 261 615 108
f 545 453 439
f 178 386 530
f 24 386 23
f 72 753 742
f 26 396 24
f 768 765 72
f 119 142 112
f 32 63 470
f 112 142 161
f 399 400 396
f 154 343 182
f 545 671 448
f 399 415 400
f 768 770 765
f 32 406 410
f 418 415 399
f 770 183 777
f 387 300 166
f 415 418 422
f 105 86 299
f 169 42 839
f 170 142 119
f 173 172 705
f 329 638 343
f 134 738 737
f 185 638 329
f 692 661 145
f 150 74 741
f 637 345 873
f 132 145 661
f 170 184 142
f 138 495 760
f 138 136 188
f 136 194 188
f 201 87 194
f 270 87 205
f 216 49 210
f 46 216 724
f 198 184 170
f 43 96 907
f 219 39 218
f 45 43 41
f 224 37 219
f 498 224 514
f 86 105 342
f 225 36 514
f 378 107 110
f 80 233 107
f 22 41 43
f 198 217 849
f 41 581 45
f 103 233 76
f 76 40 103
f 222 217 214
f 678 100 40
f 98 41 22
f 366 41 98
f 40 76 678
f 215 4 284
f 215 98 21
f 537 536 92
f 222 234 217
f 904 537 92
f 460 462 30
f 284 471 366
f 222 239 246
f 586 903 759
f 462 28 30
f 246 234 222
f 454 449 28
f 237 391 924
f 560 319 921
f 246 888 252
f 431 471 282
f 455 560 391
f 319 560 241
f 50 238 793
f 50 566 52
f 52 574 55
f 258 263 510
f 244 52 249
f 55 253 2
f 284 792 657
f 303 670 667
f 303 100 674
f 250 249 55
f 273 274 252
f 251 253 574
f 100 303 301
f 301 570 100
f 104 261 257
f 677 100 678
f 273 285 274
f 257 2 253
f 2 257 265
f 250 2 259
f 570 568 40
f 752 292 293
f 294 296 285
f 285 296 274
f 684 497 679
f 277 274 296
f 440 447 442
f 579 489 463
f 692 329 695
f 259 262 267
f 871 736 360
f 262 271 9
f 40 100 570
f 570 567 568
f 203 128 270
f 310 296 294
f 305 296 310
f 87 270 194
f 9 5 262
f 5 272 600
f 276 9 271
f 9 276 11
f 272 11 278
f 302 323 310
f 568 103 40
f 108 615 89
f 280 11 276
f 11 280 12
f 103 568 540
f 278 12 425
f 323 337 328
f 283 12 280
f 12 283 13
f 283 297 289
f 289 13 283
f 540 561 231
f 425 13 424
f 209 288 205
f 291 125 286
f 346 337 323
f 49 304 288
f 173 350 351
f 297 654 314
f 347 158 864
f 304 47 311
f 47 304 49
f 47 46 481
f 360 361 855
f 501 684 146
f 481 311 47
f 46 39 481
f 343 695 329
f 314 289 297
f 289 314 160
f 481 321 308
f 481 39 321
f 325 122 321
f 325 321 37
f 37 321 39
f 333 160 314
f 324 266 333
f 527 107 231
f 84 121 325
f 36 327 498
f 160 333 34
f 327 120 84
f 36 82 371
f 277 393 390
f 689 34 333
f 34 689 340
f 313 34 331
f 266 334 689
f 334 260 341
f 340 335 331
f 107 527 110
f 54 404 405
f 696 14 344
f 61 401 44
f 38 299 407
f 358 14 348
f 14 358 16
f 344 14 352
f 356 704 712
f 352 16 368
f 413 62 417
f 370 16 358
f 16 370 18
f 175 705 134
f 713 115 110
f 371 27 378
f 27 371 82
f 381 18 370
f 18 381 19
f 368 18 375
f 80 378 27
f 19 381 235
f 19 395 23
f 19 23 178
f 202 506 913
f 23 395 24
f 386 24 396
f 398 24 395
f 24 398 26
f 26 398 220
f 26 412 399
f 396 26 399
f 418 399 412
f 164 180 444
f 444 443 164
f 175 173 705
f 685 84 120
f 422 300 415
f 685 121 84
f 172 169 300
f 172 300 422
f 78 80 27
f 226 365 78
f 89 615 114
f 240 485 309
f 134 737 175
f 226 27 82
f 245 459 452
f 187 186 140
f 243 459 245
f 189 187 130
f 581 466 579
f 467 472 637
f 308 122 240
f 138 579 466
f 430 255 463
f 499 435 430
f 453 430 435
f 435 440 439
f 435 499 450
f 243 479 281
f 308 321 122
f 897 438 584
f 439 453 435
f 243 281 893
f 450 440 435
f 480 859 865
f 440 449 447
f 442 439 440
f 450 449 440
f 447 449 454
f 492 488 493
f 127 458 456
f 449 456 28
f 82 225 708
f 454 28 462
f 28 456 30
f 456 450 127
f 30 456 458
f 225 82 36
f 30 464 460
f 506 507 502
f 126 469 125
f 287 508 509
f 207 507 506
f 410 460 32
f 126 306 477
f 460 464 644
f 644 32 460
f 32 644 63
f 475 31 576
f 470 406 32
f 64 63 644
f 306 309 477
f 125 464 458
f 528 795 511
f 516 523 524
f 655 206 63
f 206 655 484
f 206 474 470
f 162 679 497
f 316 322 822
f 313 160 34
f 37 498 325
f 523 316 534
f 497 684 501
f 501 146 505
f 146 512 503
f 505 503 513
f 263 515 510
f 512 120 115
f 503 512 91
f 517 513 503
f 115 713 91
f 458 203 125
f 315 547 548
f 91 512 115
f 547 330 336
f 91 713 88
f 517 88 522
f 552 548 547
f 532 88 713
f 88 532 519
f 552 336 553
f 522 519 541
f 527 231 561
f 127 128 458
f 538 660 692
f 514 36 498
f 224 498 37
f 538 692 695
f 114 626 631
f 553 342 105
f 219 37 39
f 555 660 561
f 127 450 499
f 891 199 824
f 660 555 661
f 218 39 46
f 199 97 886
f 366 98 284
f 22 21 98
f 41 366 581
f 43 232 22
f 907 232 43
f 96 536 907
f 45 463 255
f 45 581 463
f 255 94 96
f 255 96 45
f 94 453 545
f 448 546 545
f 582 593 594
f 595 584 438
f 216 46 47
f 216 47 49
f 551 640 558
f 558 640 569
f 49 288 209
f 793 565 50
f 569 53 558
f 566 50 565
f 209 210 49
f 841 351 350
f 574 52 566
f 578 53 57
f 612 609 423
f 53 578 563
f 575 53 569
f 597 432 211
f 253 55 574
f 57 575 597
f 578 57 592
f 592 583 578
f 627 609 612
f 584 621 628
f 603 589 606
f 602 589 597
f 634 819 627
f 610 606 602
f 835 318 229
f 626 606 58
f 610 624 58
f 58 624 630
f 632 58 630
f 634 884 869
f 58 632 626
f 60 642 632
f 642 60 649
f 60 630 181
f 650 649 643
f 662 652 645
f 656 628 621
f 621 636 656
f 658 659 204
f 64 644 469
f 466 495 138
f 694 377 700
f 468 471 431
f 663 650 65
f 628 656 668
f 679 162 484
f 65 686 663
f 672 673 659
f 686 65 66
f 683 65 651
f 468 431 478
f 683 693 67
f 685 146 684
f 146 685 512
f 696 340 689
f 66 67 701
f 473 495 478
f 66 698 686
f 702 67 693
f 668 675 687
f 701 698 66
f 405 690 54
f 701 67 70
f 54 690 564
f 14 696 348
f 711 70 710
f 699 70 711
f 702 709 710
f 229 318 236
f 657 282 471
f 710 709 742
f 753 756 740
f 756 753 72
f 742 754 72
f 72 754 768
f 72 765 756
f 766 765 770
f 490 193 496
f 130 772 496
f 770 776 766
f 15 719 168
f 87 201 148
f 183 770 768
f 201 194 136
f 422 705 172
f 633 777 338
f 777 633 150
f 408 74 633
f 638 185 408
f 106 730 258
f 688 379 694
f 275 631 118
f 185 692 145
f 197 750 749
f 736 737 738
f 263 258 730
f 738 741 743
f 185 145 143
f 743 741 744
f 744 741 74
f 744 467 879
f 132 140 145
f 123 132 661
f 741 738 150
f 123 540 567
f 773 772 567
f 738 134 150
f 78 27 226
f 238 623 1
f 264 279 779
f 776 150 134
f 134 705 420
f 695 541 538
f 104 599 261
f 365 681 680
f 761 762 763
f 365 678 76
f 76 78 365
f 411 156 420
f 156 411 220
f 541 519 538
f 220 764 156
f 76 233 78
f 80 78 233
f 168 789 387
f 70 699 701
f 398 395 228
f 434 437 445
f 779 780 887
f 428 432 434
f 926 317 706
f 197 749 745
f 213 6 4
f 279 785 780
f 419 427 428
f 148 201 745
f 454 462 419
f 526 782 783
f 381 734 235
f 410 414 419
f 493 769 913
f 511 4 215
f 4 511 213
f 406 414 410
f 208 731 729
f 21 511 215
f 210 728 727
f 794 800 823
f 511 21 529
f 470 474 179
f 724 218 46
f 227 110 115
f 118 280 275
f 219 218 722
f 806 800 794
f 803 804 256
f 716 778 225
f 224 219 720
f 407 86 690
f 356 734 381
f 389 497 380
f 809 795 528
f 810 806 811
f 717 716 514
f 497 501 380
f 317 697 429
f 810 818 821
f 913 771 202
f 341 698 699
f 373 376 159
f 369 177 373
f 341 260 698
f 260 334 266
f 365 226 681
f 517 522 354
f 828 821 818
f 354 362 364
f 569 640 446
f 519 522 88
f 767 828 818
f 266 324 676
f 602 597 211
f 804 834 256
f 121 240 122
f 345 868 918
f 610 602 211
f 169 839 166
f 427 195 211
f 643 179 174
f 683 651 165
f 693 683 171
f 627 884 634
f 324 654 676
f 846 397 841
f 841 397 374
f 362 709 369
f 580 397 846
f 192 188 190
f 192 499 489
f 128 192 190
f 270 205 203
f 205 288 286
f 291 306 126
f 208 148 733
f 288 304 291
f 304 311 306
f 311 481 308
f 286 125 203
f 283 118 297
f 589 599 592
f 283 280 118
f 227 115 120
f 747 805 732
f 707 226 82
f 107 378 80
f 275 114 631
f 118 646 297
f 89 114 275
f 231 233 103
f 87 209 205
f 816 872 870
f 271 108 89
f 248 560 455
f 248 241 560
f 108 271 265
f 566 565 241
f 86 876 690
f 622 244 619
f 517 91 88
f 574 566 248
f 715 662 889
f 244 249 618
f 249 250 614
f 882 465 718
f 253 251 257
f 774 465 882
f 250 259 608
f 883 494 774
f 921 391 560
f 259 267 604
f 54 564 847
f 251 577 583
f 600 267 5
f 89 276 271
f 503 91 517
f 690 405 407
f 275 276 89
f 892 573 582
f 272 278 596
f 248 577 574
f 280 276 275
f 425 588 591
f 425 424 781
f 781 313 572
f 424 313 781
f 572 585 781
f 314 654 324
f 136 197 201
f 313 557 572
f 237 551 558
f 554 331 335
f 334 341 348
f 760 136 138
f 335 344 549
f 341 699 704
f 348 696 334
f 921 319 7
f 358 348 704
f 344 352 544
f 912 582 594
f 903 586 551
f 352 368 543
f 381 370 356
f 368 375 539
f 788 8 3
f 535 375 178
f 221 795 809
f 828 767 562
f 559 833 920
f 921 920 899
f 546 448 898
f 903 922 836
f 38 903 299
f 235 228 395
f 405 669 407
f 546 92 94
f 400 518 520
f 92 546 904
f 639 35 926
f 386 396 525
f 927 926 33
f 928 605 930
f 200 490 298
f 94 545 546
f 96 92 536
f 927 56 852
f 143 472 408
f 220 412 26
f 400 520 521
f 412 220 411
f 109 113 152
f 920 832 559
f 418 412 411
f 152 113 746
f 387 789 786
f 420 418 411
f 746 161 867
f 418 420 422
f 490 773 298
f 496 772 773
f 394 442 445
f 562 767 832
f 739 636 820
f 204 725 658
f 773 490 496
f 725 223 635
f 447 454 428
f 472 186 637
f 215 284 98
f 189 130 496
f 458 464 30
f 410 462 460
f 125 469 464
f 635 247 487
f 487 269 629
f 641 487 629
f 268 269 487
f 269 393 629
f 390 269 268
f 469 126 64
f 349 761 763
f 655 64 477
f 303 674 670
f 290 393 277
f 611 290 928
f 163 474 483
f 928 307 605
f 635 641 648
f 531 605 533
f 677 674 100
f 477 309 485
f 506 202 207
f 679 485 240
f 240 121 684
f 312 912 594
f 684 679 240
f 121 685 684
f 186 187 345
f 503 505 146
f 912 332 892
f 772 130 132
f 685 120 512
f 501 505 159
f 725 648 658
f 505 513 373
f 513 517 364
f 892 847 564
f 110 527 713
f 714 847 339
f 522 541 154
f 51 714 346
f 231 103 540
f 714 51 404
f 541 695 343
f 567 772 123
f 502 500 506
f 578 577 563
f 867 659 673
f 577 578 583
f 597 575 432
f 592 104 583
f 913 492 493
f 845 167 839
f 599 104 592
f 386 178 23
f 599 603 615
f 110 227 378
f 615 261 599
f 706 402 639
f 603 626 114
f 132 123 772
f 624 610 195
f 409 706 317
f 746 673 682
f 114 615 603
f 120 327 227
f 624 414 403
f 691 429 697
f 642 631 632
f 642 118 631
f 429 433 853
f 646 118 642
f 642 649 646
f 152 682 691
f 682 433 691
f 181 643 60
f 654 297 646
f 122 325 121
f 140 130 187
f 421 416 617
f 123 661 555
f 309 308 240
f 698 260 686
f 702 693 177
f 698 701 699
f 672 441 436
f 291 126 125
f 109 691 697
f 143 140 186
f 874 872 816
f 665 441 672
f 188 192 489
f 665 658 653
f 712 704 699
f 653 451 665
f 927 697 317
f 712 740 734
f 648 461 653
f 178 375 19
f 923 880 116
f 641 461 648
f 740 756 748
f 748 758 228
f 926 706 639
f 479 641 482
f 754 742 362
f 354 754 362
f 407 669 38
f 203 458 128
f 482 629 620
f 756 765 758
f 182 754 154
f 128 127 192
f 254 246 252
f 611 382 620
f 764 398 228
f 499 192 127
f 764 766 156
f 766 776 156
f 930 611 928
f 420 156 776
f 140 132 130
f 788 7 8
f 387 166 168
f 420 776 134
f 136 760 197
f 300 387 415
f 750 197 760
f 745 201 197
f 148 208 209
f 733 148 745
f 258 35 106
f 593 533 605
f 731 208 733
f 236 318 910
f 729 210 208
f 728 210 729
f 727 216 210
f 188 489 579
f 929 573 556
f 724 216 727
f 573 929 582
f 723 218 724
f 722 218 723
f 720 219 722
f 717 224 720
f 514 224 717
f 188 579 138
f 876 556 573
f 707 681 226
f 898 904 546
f 472 143 186
f 212 795 221
f 899 391 921
f 854 925 931
f 213 795 212
f 140 143 145
f 404 54 714
f 833 922 924
f 415 387 786
f 143 408 185
f 238 3 793
f 1 3 238
f 31 799 752
f 622 238 244
f 918 799 515
f 380 376 171
f 915 752 357
f 617 476 421
f 619 244 618
f 618 249 616
f 616 249 614
f 636 739 613
f 388 613 10
f 614 250 608
f 357 791 915
f 383 688 388
f 608 259 607
f 571 438 576
f 295 667 666
f 92 96 94
f 607 259 604
f 372 726 700
f 667 295 303
f 367 726 372
f 604 267 601
f 298 295 207
f 923 875 880
f 363 732 367
f 408 467 74
f 148 209 87
f 298 301 295
f 359 747 363
f 601 267 600
f 359 355 755
f 600 272 598
f 598 272 596
f 353 755 355
f 301 298 773
f 596 278 591
f 747 755 751
f 591 278 425
f 588 425 781
f 388 688 813
f 769 771 913
f 763 353 349
f 202 771 200
f 506 500 913
f 74 467 744
f 773 570 301
f 82 708 707
f 320 647 326
f 500 492 913
f 331 554 557
f 242 910 320
f 344 335 340
f 910 908 647
f 554 335 550
f 239 222 703
f 549 550 335
f 549 344 544
f 166 167 168
f 544 352 543
f 543 368 542
f 17 15 167
f 17 845 157
f 907 536 919
f 157 850 155
f 155 850 153
f 542 368 539
f 150 633 74
f 153 854 151
f 151 854 149
f 149 858 147
f 147 862 144
f 539 375 535
f 759 903 38
f 530 535 178
f 144 862 141
f 141 866 139
f 139 866 137
f 530 386 525
f 137 870 135
f 525 396 521
f 135 870 872
f 133 872 131
f 131 874 129
f 129 923 117
f 923 874 875
f 170 119 902
f 521 396 400
f 20 932 101
f 99 101 932
f 99 886 97
f 95 97 199
f 95 891 93
f 93 896 90
f 518 400 786
f 90 896 85
f 85 901 83
f 83 905 81
f 169 166 300
f 81 905 79
f 77 79 796
f 77 909 75
f 439 394 545
f 75 914 73
f 73 914 71
f 71 916 69
f 442 394 439
f 468 466 366
f 442 447 434
f 7 562 920
f 794 534 811
f 924 899 833
f 434 447 428
f 428 454 419
f 419 462 410
f 38 898 759
f 902 111 897
f 466 468 495
f 526 524 534
f 25 59 56
f 96 43 45
f 895 401 61
f 182 343 338
f 483 389 163
f 483 162 389
f 897 59 25
f 883 894 775
f 776 777 150
f 59 897 111
f 380 384 389
f 774 882 893
f 111 902 119
f 778 708 225
f 501 159 380
f 167 166 839
f 159 505 373
f 176 191 867
f 373 513 369
f 364 369 513
f 850 890 925
f 354 364 517
f 354 522 154
f 177 369 709
f 154 541 343
f 446 445 437
f 376 380 159
f 204 223 725
f 217 198 214
f 214 703 222
f 437 569 446
f 610 211 195
f 414 624 195
f 403 630 624
f 889 718 715
f 160 313 424
f 181 630 403
f 888 246 239
f 179 643 181
f 174 650 643
f 651 650 174
f 163 384 165
f 487 247 268
f 165 651 163
f 171 683 165
f 174 474 163
f 557 313 331
f 475 515 799
f 376 693 171
f 285 273 757
f 177 693 376
f 627 885 884
f 174 179 474
f 509 508 516
f 294 302 310
f 709 702 177
f 709 362 742
f 154 754 354
f 182 338 183
f 780 785 803
f 183 768 182
f 423 413 881
f 183 338 777
f 638 338 343
f 633 638 408
f 590 401 895
f 692 185 329
f 190 188 194
f 515 475 25
f 270 190 194
f 190 270 128
f 195 427 414
f 7 788 562
f 915 878 571
f 877 595 438
f 203 205 286
f 44 48 61
f 474 206 483
f 210 209 208
f 61 62 895
f 413 895 62
f 211 432 427
f 172 42 169
f 398 764 220
f 515 263 918
f 437 575 569
f 228 758 764
f 124 885 426
f 175 871 350
f 84 498 327
f 225 514 716
f 327 371 227
f 918 263 730
f 898 448 759
f 371 327 36
f 839 374 890
f 227 371 378
f 451 441 665
f 228 235 748
f 444 180 457
f 233 231 107
f 187 868 345
f 759 448 586
f 189 292 868
f 734 748 235
f 653 461 826
f 924 922 237
f 292 193 196
f 446 671 394
f 461 641 479
f 922 551 237
f 391 237 455
f 482 641 629
f 918 868 799
f 196 200 293
f 771 293 200
f 558 455 237
f 281 287 894
f 894 893 281
f 248 566 241
f 257 251 104
f 255 430 453
f 257 261 265
f 509 775 287
f 260 266 676
f 509 516 524
f 265 261 108
f 523 516 531
f 322 316 523
f 273 252 888
f 265 271 262
f 811 534 316
f 316 315 811
f 676 686 260
f 366 466 581
f 478 495 468
f 330 547 315
f 547 336 552
f 366 471 468
f 760 495 473
f 657 471 284
f 336 342 553
f 553 900 552
f 832 900 553
f 865 878 791
f 792 284 4
f 31 571 576
f 286 288 291
f 438 571 877
f 906 864 863
f 4 790 792
f 8 7 319
f 303 295 301
f 291 304 306
f 570 773 567
f 739 617 392
f 617 416 392
f 306 311 309
f 309 311 308
f 170 628 668
f 613 739 10
f 739 392 10
f 656 675 668
f 656 815 675
f 680 678 365
f 813 613 388
f 324 333 314
f 687 198 668
f 379 688 383
f 295 666 207
f 815 656 636
f 377 694 379
f 325 498 84
f 689 333 266
f 334 696 689
f 700 377 372
f 861 834 860
f 703 721 239
f 732 726 367
f 834 861 256
f 348 341 704
f 747 732 363
f 356 358 704
f 735 888 721
f 370 358 356
f 735 264 757
f 735 273 888
f 755 747 359
f 369 364 362
f 353 763 755
f 647 761 326
f 761 349 326
f 376 373 177
f 779 757 264
f 780 779 279
f 384 380 171
f 235 395 19
f 736 871 737
f 562 788 917
f 910 647 320
f 785 804 803
f 414 406 403
f 256 323 803
f 813 675 815
f 415 786 400
f 427 419 414
f 422 420 705
f 432 428 427
f 430 489 499
f 587 580 590
f 437 434 432
f 445 442 434
f 446 394 445
f 671 586 448
f 819 609 627
f 456 449 450
f 455 563 248
f 865 791 769
f 581 579 463
f 645 652 817
f 644 464 469
f 652 662 715
f 874 923 129
f 715 664 652
f 694 812 688
f 477 64 126
f 750 760 473
f 485 655 477
f 465 715 718
f 507 207 666
f 465 774 494
f 865 486 480
f 812 675 813
f 485 484 655
f 207 202 298
f 883 504 825
f 493 865 769
f 783 782 504
f 679 484 485
f 202 200 298
f 196 490 200
f 196 193 490
f 877 859 476
f 302 803 323
f 189 496 193
f 814 806 810
f 168 719 789
f 821 814 810
f 391 899 924
f 713 527 532
f 467 408 472
f 302 294 887
f 786 787 518
f 538 519 532
f 561 532 527
f 926 35 33
f 538 532 660
f 540 555 561
f 551 586 640
f 319 241 565
f 660 532 561
f 113 161 746
f 161 176 867
f 8 319 565
f 223 247 635
f 781 585 784
f 620 629 393
f 887 780 302
f 269 390 393
f 671 640 586
f 781 784 588
f 599 589 603
f 393 290 611
f 626 603 606
f 928 290 305
f 623 238 622
f 625 1 623
f 774 893 894
f 312 332 912
f 626 632 631
f 332 339 847
f 847 892 332
f 757 887 285
f 847 714 54
f 793 3 8
f 732 807 726
f 858 931 857
f 675 812 687
f 168 167 15
f 273 735 757
f 920 921 7
f 402 385 639
f 167 845 17
f 638 633 338
f 646 649 663
f 650 663 649
f 845 850 157
f 888 239 721
f 663 654 646
f 706 409 48
f 850 854 153
f 676 654 663
f 429 409 317
f 661 692 660
f 854 858 149
f 676 663 686
f 858 862 147
f 433 429 691
f 678 680 677
f 699 711 712
f 712 734 356
f 711 710 753
f 862 866 141
f 712 711 740
f 682 436 827
f 734 740 748
f 866 870 137
f 214 687 808
f 748 756 758
f 664 816 652
f 872 133 135
f 198 687 214
f 754 182 768
f 872 874 131
f 665 659 658
f 758 765 766
f 658 648 653
f 766 764 758
f 776 770 777
f 668 198 170
f 117 923 116
f 787 786 789
f 929 330 822
f 533 822 322
f 556 336 330
f 531 322 523
f 899 920 833
f 662 444 889
f 346 323 256
f 491 482 620
f 116 880 911
f 911 20 116
f 382 491 620
f 911 932 20
f 932 886 99
f 645 443 662
f 930 382 611
f 382 930 516
f 886 824 199
f 605 531 930
f 491 508 848
f 628 170 902
f 256 347 346
f 482 848 479
f 891 896 93
f 347 256 861
f 820 617 739
f 866 819 817
f 605 594 593
f 896 901 85
f 929 593 582
f 612 881 885
f 901 905 83
f 826 451 653
f 451 457 180
f 672 659 665
f 441 180 851
f 79 905 796
f 436 673 672
f 436 851 827
f 909 914 75
f 682 673 436
f 914 916 71
f 584 902 897
f 876 86 342
f 69 916 1
f 829 433 827
f 700 808 694
f 788 3 916
f 853 829 417
f 409 61 48
f 402 48 855
f 870 817 816
f 855 29 360
f 874 816 664
f 385 361 102
f 830 880 875
f 576 897 25
f 819 634 817
f 68 69 1
f 106 856 730
f 743 736 738
f 910 242 236
f 862 857 819
f 744 879 102
f 880 830 831
f 840 528 843
f 401 846 44
f 803 302 780
f 769 791 357
f 878 915 791
f 831 911 880
f 918 873 345
f 576 25 475
f 799 31 475
f 841 29 846
f 879 856 102
f 106 639 385
f 573 564 876
f 911 831 802
f 342 556 876
f 337 339 332
f 25 510 515
f 350 29 841
f 564 573 892
f 892 582 912
f 510 25 56
f 864 906 837
f 312 328 337
f 929 822 593
f 33 35 258
f 871 360 29
f 840 860 835
f 864 158 863
f 29 855 44
f 916 914 917
f 808 687 812
f 594 307 312
f 307 305 328
f 916 917 788
f 33 56 927
f 840 835 809
f 307 594 605
f 736 743 361
f 531 516 930
f 290 277 305
f 852 109 927
f 318 835 860
f 21 844 529
f 852 59 112
f 620 393 611
f 102 743 744
f 112 113 852
f 751 763 762
f 647 785 762
f 805 747 751
f 252 268 254
f 230 835 229
f 487 641 635
f 637 879 467
f 124 851 164
f 809 230 221
f 161 142 176
f 807 732 805
f 247 234 254
f 230 809 835
f 808 700 807
f 345 637 186
f 176 184 191
f 812 694 808
f 204 849 223
f 849 204 191
f 813 688 812
f 635 648 725
f 849 184 198
f 815 613 813
f 815 636 613
f 217 223 849
f 659 191 204
f 217 234 223
f 191 184 849
f 859 480 421
f 795 213 511
f 245 461 243
f 878 865 859
f 802 886 932
f 191 659 867
f 452 718 889
f 223 234 247
f 176 142 184
f 246 254 234
f 865 493 486
f 293 771 357
f 268 247 254
f 771 769 357
f 805 264 735
f 268 252 390
f 161 113 112
f 486 493 488
f 390 252 274
f 867 673 746
f 264 751 279
f 274 277 390
f 746 682 152
f 281 848 287
f 827 433 682
f 808 703 214
f 152 691 109
f 109 852 113
f 476 859 421
f 296 305 277
f 476 595 877
f 305 307 928
f 196 293 292
f 595 476 820
f 726 807 700
f 752 293 357
f 307 328 312
f 310 328 305
f 56 59 852
f 292 752 799
f 328 310 323
f 886 825 824
f 312 337 332
f 807 703 808
f 891 824 782
f 193 292 189
f 844 21 22
f 429 853 409
f 109 697 927
f 56 33 510
f 105 559 553
f 339 337 346
f 346 714 339
f 51 346 347
f 317 926 927
f 564 690 876
f 863 844 232
f 799 868 292
f 510 33 258
f 843 528 529
f 844 863 842
f 861 840 843
f 861 158 347
f 861 860 840
f 752 915 31
f 158 843 842
f 843 158 861
f 842 529 844
f 919 837 906
f 906 232 907
f 809 528 840
f 730 873 918
f 730 856 873
f 873 856 879
f 856 106 385
f 817 634 645
f 837 919 838
f 817 652 816
f 919 906 907
f 919 536 537
f 743 102 361
f 904 669 838
f 898 669 904
f 669 898 38
f 703 807 721
f 405 404 838
f 669 405 838
f 922 833 836
f 294 285 887
f 361 385 402
f 869 645 634
f 830 875 664
f 916 3 1
f 864 51 347
f 402 855 361
f 909 801 914
f 397 890 374
f 48 44 855
f 796 909 77
f 879 637 873
f 901 798 905
f 580 925 397
f 48 402 706
f 896 800 901
f 891 823 896
f 409 62 61
f 853 62 409
f 881 413 417
f 417 62 853
f 86 407 299
f 459 893 882
f 199 891 95
f 830 465 831
f 829 426 417
f 426 829 124
f 426 881 417
f 124 829 827
f 433 829 853
f 886 802 825
f 774 894 883
f 851 124 827
f 164 884 124
f 441 851 436
f 180 164 851
f 443 869 164
f 911 802 932
f 715 830 664
f 874 664 875
f 736 361 360
f 451 180 441
f 457 452 889
f 889 444 457
f 866 817 870
f 106 35 639
f 459 718 452
f 826 452 457
f 452 826 245
f 451 826 457
f 862 819 866
f 858 857 862
f 461 245 826
f 459 882 718
f 479 243 461
f 854 931 858
f 850 925 854
f 846 401 580
f 845 890 850
f 491 848 482
f 848 281 479
f 825 494 883
f 382 508 491
f 900 832 767
f 508 287 848
f 896 823 800
f 839 890 845
f 504 782 824
f 42 374 839
f 516 508 382
f 908 910 318
f 534 524 523
f 552 818 548
f 42 172 173
f 901 800 798
f 818 552 900
f 533 322 531
f 871 175 737
f 868 187 189
f 22 232 844
f 593 822 533
f 822 315 316
f 929 556 330
f 330 315 822
f 838 919 537
f 904 838 537
f 318 860 834
f 908 318 834
f 465 830 715
f 556 342 336
f 105 836 559
f 833 559 836
f 29 44 846
f 908 834 804
f 562 917 828
f 299 836 105
f 818 900 767
f 832 553 559
f 562 832 920
f 811 315 548
f 828 801 821
f 801 828 917
f 821 797 814
f 836 299 903
f 401 590 580
f 797 821 801
f 905 798 796
f 796 814 797
f 810 548 818
f 814 798 806
f 798 814 796
f 909 796 797
f 811 548 810
f 413 587 590
f 404 51 837
f 51 864 837
f 837 838 404
f 909 797 801
f 529 842 843
f 158 842 863
f 232 906 863
f 800 806 798
f 529 528 511
f 794 811 806
f 785 908 804
f 785 647 908
f 859 877 878
f 526 534 794
f 877 571 878
f 571 31 915
f 173 351 42
f 524 783 509
f 350 173 175
f 29 350 871
f 823 526 794
f 783 524 526
f 526 823 782
f 42 351 374
f 841 374 351
f 504 775 783
f 509 783 775
f 782 823 891
f 885 124 884
f 887 757 779
f 914 801 917
f 426 885 881
f 890 397 925
f 825 504 824
f 775 504 883
f 925 587 931
f 587 925 580
f 802 494 825
f 785 279 762
f 494 831 465
f 831 494 802
f 894 287 775
f 590 895 413
f 438 897 576
f 884 164 869
f 762 279 751
f 423 931 587
f 587 413 423
f 931 423 857
f 762 761 647
f 617 820 476
f 595 820 621
f 751 755 763
f 893 459 243
f 751 264 805
f 609 857 423
f 423 881 612
f 662 443 444
f 721 805 735
f 621 584 595
f 857 609 819
f 443 645 869
f 612 885 627
f 636 621 820
f 628 902 584
f 805 721 807
