# avbd fit, rung f1800-i16-s300 of Gate 6d (body space, fit phase only)
v -0.016357984 0.628681839 0.000129308
v -0.095714517 0.633186460 0.062009849
v -0.015977491 0.642823339 0.000773972
v 0.000967390 0.888544858 0.066772275
v -0.144720435 0.610420048 0.061459847
v 0.006864196 0.903215706 0.068307981
v -0.015116103 0.669889987 0.002051201
v -0.014858146 0.656443000 0.001259580
v -0.147803292 0.626268744 0.062152345
v 0.152487576 0.899687111 -0.108330883
v -0.166867018 0.620416641 0.052542072
v -0.184007257 0.620932102 0.036756370
v -0.192745492 0.621489167 0.020085158
v -0.153823197 0.625073552 -0.070798174
v 0.011275168 0.641245186 -0.010314809
v -0.135455623 0.623738348 -0.076573037
v 0.030029899 0.638718665 -0.014298147
v -0.118114427 0.626656592 -0.082677349
v -0.101324126 0.634975731 -0.084933698
v 0.189349726 0.583493888 0.002093401
v 0.000521910 0.859959126 0.061091155
v 0.000393211 0.846859634 0.055433881
v -0.082908079 0.634540915 -0.075634405
v -0.077087745 0.643230557 -0.082939945
v 0.088295840 0.815738797 -0.110735893
v -0.067554139 0.651373446 -0.074239418
v -0.136122346 0.864308715 -0.124868907
v -0.139880821 0.790430367 0.072629876
v 0.035163265 0.704264164 -0.071196109
v -0.156338528 0.800081909 0.066964760
v 0.064544477 0.833596706 -0.132975549
v -0.191975802 0.776099682 0.045633834
v 0.079412006 0.778103352 -0.105626419
v -0.190628111 0.618189335 -0.034125268
v 0.064425275 0.769527018 -0.100858234
v -0.160984099 0.868578076 -0.099580809
v -0.183080375 0.867426276 -0.060818594
v 0.014151050 0.756007671 0.014178847
v -0.185934275 0.871690273 -0.040916093
v -0.081103750 0.865137458 -0.147272438
v -0.029269701 0.850619614 0.056332596
v 0.011954555 0.679533005 -0.041015200
v -0.018304698 0.833949089 0.050387066
v 0.057022434 0.703786612 -0.085970454
v -0.040427469 0.837991893 0.047409110
v -0.184490353 0.877653480 -0.022274949
v -0.190778762 0.866675973 -0.005867309
v 0.063768759 0.721801341 -0.092122726
v -0.180770144 0.870405376 0.013293674
v -0.047877431 0.642891884 0.023313109
v 0.058420133 0.808901310 0.055640228
v -0.059100617 0.641838253 0.042503458
v -0.071664281 0.711731076 0.059270930
v 0.053171325 0.773303151 0.055728424
v -0.072051577 0.643340886 0.052847259
v 0.094748244 0.790260077 -0.110177264
v -0.096522667 0.706283331 0.068657681
v -0.169862479 0.706416249 0.061250687
v 0.110519648 0.801942348 -0.114717819
v -0.198669389 0.702360272 0.033547074
v 0.082706638 0.707987010 -0.095797934
v 0.074927568 0.698336959 -0.091240697
v -0.202375561 0.785367489 0.025982212
v -0.199052379 0.805357337 0.024477320
v -0.206744313 0.700982213 -0.034461223
v -0.190682620 0.697007239 -0.055346597
v -0.180549234 0.709015369 -0.071442559
v -0.007105732 0.615567565 -0.004897055
v 0.013143095 0.618299544 -0.003112676
v -0.160118669 0.699488163 -0.082429722
v 0.031129688 0.617137551 -0.002740435
v -0.098095350 0.715094149 -0.102984883
v 0.043530919 0.612731218 0.005396922
v -0.029702147 0.762887239 -0.072972283
v 0.052100141 0.607658267 0.018307673
v -0.100937113 0.866411328 -0.142490461
v 0.060635515 0.603042960 0.031701729
v -0.119235680 0.867138207 -0.136130899
v 0.069516420 0.598707139 0.045586064
v -0.124416888 0.853852272 -0.127950162
v 0.084719732 0.595876992 0.052383609
v -0.146335751 0.878724098 -0.118184373
v 0.099627204 0.593029976 0.058611203
v -0.179871649 0.839327157 -0.082751200
v 0.114078060 0.590238571 0.064874470
v 0.039510280 0.738399386 0.036523428
v -0.146684244 0.870425701 0.049427398
v -0.123405576 0.794823766 -0.115336761
v -0.151448265 0.653858542 0.063195705
v 0.130015910 0.588047087 0.066194043
v -0.143116385 0.800063312 -0.107111238
v -0.021291262 0.804277301 0.028329071
v 0.144036248 0.587139785 0.059287123
v -0.036533378 0.803484142 0.045127712
v 0.158018947 0.585892797 0.052359432
v -0.025509799 0.823134542 0.035966881
v 0.172099635 0.584548771 0.045433939
v -0.018150778 0.864619851 0.062140875
v 0.180224881 0.583995581 0.031465963
v -0.069401532 0.880693436 -0.149448574
v 0.186874017 0.583490252 0.017583800
v 0.024729766 0.763802409 -0.070541754
v -0.091397136 0.849873543 -0.141493902
v -0.102772668 0.670910716 0.068203725
v 0.035927467 0.721726298 0.025697101
v 0.047681257 0.772069871 -0.096615739
v -0.119168200 0.839994252 -0.124387644
v -0.133650810 0.652452588 0.071200147
v 0.118524030 0.758466601 -0.113452949
v -0.131065562 0.831320763 -0.111730948
v 0.128653795 0.809328437 -0.113183796
v 0.135668129 0.789695203 -0.109272420
v 0.135002345 0.768703401 -0.107546411
v -0.159315184 0.670371890 0.061995368
v -0.147289157 0.819648743 -0.105690636
v 0.190022796 0.583567381 -0.013026638
v 0.187327608 0.584475279 -0.027348939
v -0.191241845 0.658612311 0.034665562
v 0.146093518 0.806327224 -0.105517671
v -0.166370943 0.828708947 -0.097594388
v -0.191673234 0.827081978 -0.065322287
v -0.197782502 0.839154601 -0.050680656
v -0.057638925 0.827642083 -0.126361787
v 0.136735722 0.685761333 -0.089107975
v -0.176792055 0.828058898 0.047621362
v -0.193057835 0.823768735 0.025380954
v -0.122971117 0.821912289 0.072144151
v -0.136033475 0.836340606 0.064845912
v 0.180376917 0.586822569 -0.040113535
v -0.022994088 0.825174332 -0.113202646
v 0.173594147 0.589073181 -0.052555781
v -0.041229878 0.818983376 -0.115486309
v 0.163467109 0.590940773 -0.061791848
v -0.032998417 0.715274751 -0.068236828
v 0.172287062 0.599089861 -0.057797201
v -0.109713398 0.872672081 0.052797090
v 0.154875979 0.597175360 -0.065601781
v -0.089129649 0.868832588 0.054589234
v 0.139776558 0.595011532 -0.070019513
v -0.024914604 0.815063834 -0.098641679
v 0.124008156 0.593018174 -0.074607372
v 0.160098463 0.794084728 -0.098940141
v -0.028920699 0.805987358 -0.084006980
v 0.107707359 0.593029857 -0.075831413
v -0.045584939 0.811573029 -0.098886505
v -0.181387082 0.796194017 -0.086677030
v 0.093390815 0.595503390 -0.069558784
v -0.146703497 0.886724591 0.040153436
v 0.078493580 0.599667311 -0.063540481
v -0.033499934 0.737068295 -0.078168876
v 0.063976429 0.605125070 -0.058451671
v 0.134004384 0.750050485 -0.104838490
v 0.051212668 0.611840189 -0.048786361
v -0.097655348 0.760764003 -0.109328374
v 0.045582071 0.621294141 -0.036839236
v -0.064784721 0.690007746 -0.085330106
v 0.040638763 0.630867124 -0.024493663
v 0.052680898 0.842013061 0.048016470
v -0.183878750 0.764655888 -0.077657469
v -0.196686924 0.623777270 -0.014124098
v 0.153405279 0.774741411 -0.099818863
v -0.208617643 0.780952573 -0.032036044
v -0.210030049 0.745550275 -0.022315586
v 0.157930627 0.677934408 -0.078032896
v -0.205808491 0.733260870 -0.042712741
v -0.015440857 0.662650943 -0.026648182
v 0.016042950 0.653703988 -0.020729329
v -0.015078323 0.651595235 -0.018145988
v -0.014335151 0.672552109 -0.036046635
v 0.165573746 0.815955341 -0.097157300
v -0.194498703 0.738921523 -0.059097666
v -0.013974875 0.683992684 -0.042790752
v -0.014806552 0.695400417 -0.049746767
v -0.209886402 0.730642021 -0.002065819
v -0.014561536 0.708723485 -0.053084932
v 0.171312660 0.779746950 -0.092141077
v -0.166927651 0.737189114 -0.087026820
v -0.082540698 0.620108604 -0.071928009
v -0.204875782 0.740176260 0.025563603
v 0.176544085 0.691177607 -0.071742520
v -0.198999569 0.721647620 0.035435848
v -0.081193663 0.752200246 -0.103589699
v -0.082408182 0.737280726 -0.102603436
v 0.181675240 0.797134995 -0.085734442
v -0.044632308 0.792867839 -0.096537113
v -0.005290832 0.814357400 -0.083861426
v -0.004306713 0.820831597 -0.097269274
v -0.102172077 0.856449604 0.064586118
v -0.004228079 0.830325305 -0.108443215
v -0.123502851 0.849531054 0.063047335
v 0.185151905 0.773516476 -0.076846197
v -0.110265829 0.837684155 0.070027635
v -0.004289818 0.841018498 -0.117617056
v -0.126749367 0.864494979 0.056366809
v -0.154735610 0.732962132 0.069390483
v -0.004115901 0.851374984 -0.126702800
v -0.115066454 0.887369752 0.045646638
v 0.188110873 0.818107009 -0.073838517
v 0.168247074 0.601291895 0.049703594
v -0.004299817 0.864378452 -0.130309433
v -0.130043343 0.880056739 0.046942174
v -0.004335156 0.877501667 -0.133157477
v -0.158333659 0.840885520 0.058459319
v 0.196515948 0.765752971 -0.058398388
v -0.162490070 0.858791471 0.046802361
v -0.210930780 0.775737643 0.005465007
v -0.004451618 0.891003609 -0.133411050
v -0.157266229 0.888309479 0.025741696
v -0.164798751 0.873442531 0.032051682
v -0.171530142 0.885821998 0.012264616
v -0.134215295 0.728249431 0.076286301
v 0.034340270 0.901345909 0.066825427
v 0.019251216 0.901326001 0.067510568
v 0.197595254 0.832383156 -0.052169539
v 0.000810231 0.874041855 0.065019161
v -0.182886332 0.883809090 -0.004834049
v 0.202409193 0.807539165 -0.049892277
v -0.179161802 0.886484444 -0.037144952
v -0.179247752 0.884314358 -0.053874690
v -0.068543673 0.670105636 -0.080823235
v 0.049780335 0.901377559 0.065208584
v 0.203028128 0.820627332 -0.030288834
v 0.208010003 0.780302167 -0.039885182
v -0.171818227 0.881596386 -0.070100337
v -0.157862395 0.886127651 -0.104551934
v -0.129321739 0.881649971 -0.131786257
v -0.148307294 0.839091957 -0.103741013
v -0.090885624 0.665780604 -0.088397309
v 0.080668762 0.900773525 0.060929704
v 0.065246463 0.901309371 0.063093230
v -0.100961983 0.835437000 -0.132981643
v 0.000153257 0.833745837 0.049749814
v -0.109425582 0.851559162 -0.136565149
v 0.207674116 0.799056947 -0.025068467
v -0.104040280 0.654866338 -0.091522902
v 0.095254302 0.900050640 0.055565555
v -0.033009261 0.713872552 0.018067326
v -0.041453969 0.630424500 0.008485870
v 0.202221915 0.830165982 -0.012070114
v -0.202486709 0.821003795 -0.039931230
v -0.042632584 0.669786096 0.023358701
v 0.108856305 0.898893535 0.049850252
v 0.206228733 0.691097200 -0.003896459
v -0.055522732 0.627005517 0.031941451
v 0.206436798 0.691298485 -0.023579080
v 0.206222937 0.812537372 -0.006857591
v 0.210088223 0.777726173 -0.012655286
v -0.051163606 0.678146243 0.039787348
v -0.081018135 0.632551551 0.055513196
v -0.071308658 0.622819781 0.050283082
v -0.084581390 0.666041911 0.060458284
v 0.203331620 0.802618682 0.019544108
v -0.084309056 0.651192605 0.059115976
v 0.209877014 0.794457555 -0.002526785
v -0.049401093 0.820509732 0.049755439
v 0.095041774 0.834437728 0.073099948
v -0.100930408 0.653320670 0.066050239
v 0.061259013 0.785262227 -0.100997612
v -0.101941384 0.614118695 0.062295455
v -0.188979059 0.663769841 -0.051002491
v -0.117572114 0.660651743 0.073366277
v -0.123809829 0.623854280 0.072031789
v 0.056390863 0.800974071 -0.099196598
v 0.177436739 0.852547288 0.032582417
v -0.116654016 0.642294884 0.071525075
v -0.192443624 0.648651242 -0.040836345
v -0.126374081 0.606185734 0.069590256
v 0.210171178 0.780083716 0.012919632
v 0.204390481 0.764305413 0.025093606
v -0.142858699 0.853405952 0.057056300
v -0.139158756 0.639034629 0.067361727
v -0.160532713 0.602693141 0.053016972
v 0.191284776 0.818993747 0.030207019
v 0.189952612 0.799305320 0.042846344
v -0.172592670 0.655343652 0.054432489
v -0.161033854 0.638881862 0.057338547
v 0.186323151 0.779469371 0.056019001
v -0.178176194 0.603901446 0.042626649
v 0.160450339 0.859105706 0.049355924
v -0.181751251 0.638151348 0.046891749
v 0.203982949 0.685768008 0.018235363
v -0.047918893 0.901763558 0.065346226
v -0.192027524 0.638068318 0.027067583
v -0.021864189 0.883154035 0.065427125
v 0.179367527 0.815453053 0.050712578
v -0.173450127 0.845676422 0.042943519
v 0.193319991 0.680431724 0.038311731
v -0.176771626 0.857797980 0.028945297
v -0.197754100 0.632053018 0.006323148
v 0.176261723 0.760780156 0.063615471
v -0.186579853 0.841250062 0.027812028
v 0.018159863 0.836973548 -0.120737337
v 0.019178730 0.852461636 -0.132585853
v 0.161411270 0.812572837 0.063924186
v -0.029092297 0.888187706 -0.142444462
v 0.172146529 0.796573281 0.063715637
v -0.200424701 0.650932252 0.011343126
v -0.022840530 0.870772719 -0.139028415
v 0.024529038 0.739658058 0.017498944
v -0.031801194 0.668888211 -0.038676091
v -0.043746203 0.872822583 -0.145791844
v 0.142947063 0.821973920 0.067399189
v -0.050623436 0.889152050 -0.146628454
v -0.191414356 0.854758143 0.012220423
v 0.158021837 0.776565969 0.069500983
v -0.200230271 0.836839676 0.009788303
v 0.137926340 0.761173546 0.075375266
v -0.199035078 0.842355072 -0.030132923
v -0.202526808 0.828912377 -0.013862694
v 0.146420240 0.800474644 0.070139326
v -0.198768601 0.848981500 -0.009009976
v 0.115979694 0.770425677 0.080919676
v -0.193633690 0.604288578 -0.020125022
v -0.199417770 0.642192006 -0.008902998
v 0.094654426 0.686875701 0.066789091
v 0.115808643 0.683216214 0.075072050
v 0.088179372 0.742440462 -0.104272723
v 0.092042647 0.879898846 0.055226207
v -0.032323461 0.671321750 0.006950155
v 0.120798931 0.898415267 0.043021597
v -0.192812964 0.855944335 -0.045818646
v 0.128042251 0.699455738 0.077739820
v 0.118543006 0.812651157 0.075732827
v -0.200732782 0.650512874 -0.023768239
v -0.187246889 0.848983288 -0.065817103
v 0.131162196 0.896926761 0.035764504
v -0.163974464 0.849458337 -0.096075609
v 0.131471783 0.785297334 0.075831220
v -0.061708789 0.784555197 -0.101435386
v 0.083638474 0.706284642 0.064039193
v -0.183832243 0.602235794 -0.040134463
v 0.094642006 0.773148239 0.072750524
v -0.196729854 0.634796500 -0.029476330
v -0.180892900 0.646039605 -0.058088373
v -0.173739344 0.600134850 -0.055993956
v 0.061415017 0.704986989 0.054903883
v 0.105287470 0.791345358 0.077924460
v -0.064422809 0.753008783 -0.098702446
v 0.085168764 0.788083911 0.069492906
v -0.179279655 0.615358710 -0.051527195
v -0.173508376 0.661334336 -0.069355510
v 0.047732614 0.720520139 0.046283297
v -0.075166821 0.769176543 -0.104146503
v -0.160727695 0.608675957 -0.065990016
v 0.016324723 0.813844860 -0.089704357
v 0.085813656 0.809841156 0.069367193
v 0.069328099 0.827877641 0.060621541
v -0.164404184 0.643193603 -0.070715122
v 0.142852634 0.897470653 0.030407656
v 0.018641585 0.702125371 -0.053851016
v 0.020410653 0.688317955 -0.049852677
v -0.140898198 0.608229041 -0.072379731
v 0.152138397 0.896443725 0.021812284
v -0.119760036 0.756820083 -0.113186285
v 0.160444930 0.896793008 0.012466440
v -0.135240123 0.653676927 -0.084190041
v 0.041102163 0.857432485 -0.140963763
v -0.146520659 0.640478909 -0.076814607
v 0.168496847 0.897956371 0.002595459
v 0.031649075 0.723841190 -0.067805141
v 0.032288209 0.742017329 -0.074093387
v -0.130269185 0.740822554 -0.105502106
v 0.173295468 0.898097157 -0.010062202
v -0.138478950 0.758485556 -0.104464039
v -0.111047648 0.882699966 -0.139554307
v -0.042006738 0.869153500 0.061919041
v 0.173084006 0.896999955 -0.023419145
v -0.121536866 0.609178305 -0.078603394
v -0.151440069 0.747816503 -0.096459970
v -0.130790904 0.637856841 -0.081373863
v -0.149551719 0.857594371 -0.110206582
v 0.172065988 0.896477878 -0.036200497
v -0.169574320 0.756298482 -0.089283600
v 0.034048807 0.673879683 -0.049339402
v -0.102507174 0.615769625 -0.080153421
v -0.183781654 0.747038901 -0.075407229
v 0.172921002 0.897986591 -0.050623327
v -0.134955198 0.847612083 -0.115687385
v 0.173186108 0.898976624 -0.065699555
v -0.195568368 0.761911333 -0.060205538
v -0.118247807 0.645039380 -0.087534562
v 0.180927187 0.717403948 0.058965702
v 0.167883098 0.899158597 -0.080204323
v -0.205314353 0.749121785 -0.046609379
v 0.036083035 0.757202744 -0.088644661
v -0.092843980 0.625894427 -0.078559473
v -0.033930585 0.653641105 -0.029240048
v 0.162249073 0.899557233 -0.095045850
v -0.208999246 0.764976740 -0.038697291
v 0.198099777 0.781094134 0.034311697
v -0.030057663 0.698908269 0.010650028
v 0.141388014 0.899448872 -0.120380141
v 0.194541186 0.757765532 0.045710403
v -0.062338226 0.768723607 0.058922689
v -0.090452604 0.648635745 -0.083467454
v -0.070198506 0.630913138 -0.069210365
v 0.045546003 0.666079879 -0.069915637
v -0.079068840 0.659478664 -0.081615448
v -0.052860320 0.647045016 -0.066811100
v -0.049084060 0.630614161 -0.059019376
v 0.069252633 0.687228084 -0.086004891
v 0.049016479 0.738631606 -0.091270052
v -0.192127407 0.734614968 0.051014971
v 0.042889010 0.791470051 0.051150519
v 0.035723720 0.774014175 0.038443167
v -0.193634152 0.755580902 0.048053462
v 0.033011880 0.756476402 0.027131643
v -0.033074874 0.782244921 -0.081174955
v 0.081078038 0.723012745 -0.098251641
v -0.175179139 0.767916858 0.063513175
v -0.054779124 0.676878572 -0.077283286
v -0.057066642 0.662088633 -0.073491678
v 0.075263068 0.674871385 -0.084760435
v -0.170720264 0.747258782 0.064752728
v -0.040007379 0.653961599 -0.050827909
v 0.129434437 0.899367154 -0.130753905
v 0.096588150 0.688284039 -0.096707463
v -0.042318609 0.666180134 -0.068425462
v -0.150841221 0.762340903 0.070955917
v -0.041924722 0.691493392 -0.076372415
v 0.114463747 0.899454296 -0.137130931
v -0.034956295 0.677851617 -0.054553729
v 0.079984985 0.648323357 -0.078098677
v -0.194963515 0.614551842 0.002397059
v -0.187791616 0.604271829 0.023185413
v 0.115494989 0.681050420 -0.097604923
v -0.140742987 0.745760083 0.074452713
v -0.124261342 0.758495152 0.079451904
v 0.102077797 0.727426112 -0.106413603
v -0.072416604 0.820582211 0.061828308
v -0.063445047 0.902022541 0.063194200
v -0.110590182 0.738920748 0.076571509
v 0.122226521 0.717310667 -0.104253136
v -0.099242397 0.756901383 0.073266096
v -0.082815662 0.804641068 0.068329975
v 0.158432752 0.719541311 -0.086994566
v -0.084512487 0.742194831 0.066393219
v 0.109183349 0.837941527 -0.131206691
v -0.071120836 0.786796451 0.063196450
v -0.095417313 0.789120495 0.073189288
v 0.175866991 0.710548043 -0.076342717
v -0.086218700 0.772872150 0.068757892
v 0.167551279 0.661665320 -0.071468659
v 0.179361939 0.672685921 -0.064871222
v -0.078546934 0.758003056 0.065086946
v -0.061442442 0.749069571 0.057658859
v -0.108444653 0.773601830 0.077831820
v -0.031319283 0.768290401 0.026326081
v -0.119642973 0.790289819 0.077935591
v -0.107552096 0.806026578 0.078460872
v 0.189077184 0.705644071 -0.058565296
v 0.200353503 0.678028405 -0.037221499
v -0.059067864 0.803129554 0.056643151
v -0.133524507 0.775348246 0.076069944
v -0.042834267 0.698103845 0.031586483
v -0.133322850 0.805748820 0.072439991
v 0.189691097 0.685476243 -0.053755231
v -0.151972815 0.820333302 0.064695850
v 0.204036042 0.674616575 -0.016782338
v -0.176711529 0.788889349 0.063180804
v 0.208390638 0.713006675 -0.019101804
v -0.156568825 0.780542612 0.069434628
v -0.063570313 0.837166309 0.054820072
v -0.175768703 0.809340179 0.058968503
v 0.199140593 0.640057147 -0.014564345
v -0.067078494 0.868310452 0.058696341
v -0.007983678 0.787274241 -0.068507984
v -0.062318373 0.884787560 0.061620153
v -0.186852545 0.812505424 0.040162027
v -0.203564554 0.763823330 0.026243428
v -0.043510772 0.887779593 0.064345524
v -0.006318395 0.802299380 -0.074426085
v -0.093568757 0.901669383 0.056070346
v -0.211151049 0.753329039 0.003162906
v 0.070242979 0.822283089 -0.121298134
v 0.118438885 0.873312950 -0.136528984
v -0.206267834 0.817762494 0.005994491
v -0.078873351 0.901847839 0.061003625
v 0.207952291 0.708845854 0.007394131
v 0.098916322 0.899886608 -0.143735901
v -0.192224592 0.860392451 -0.025483727
v 0.204482883 0.723109126 0.024465833
v -0.210318998 0.767330050 -0.015832879
v -0.209513873 0.788762093 -0.014396784
v -0.206409812 0.809098065 -0.016249429
v 0.081986502 0.900532067 -0.147615150
v 0.210919380 0.758868277 0.004295759
v 0.064653434 0.901563644 -0.147910729
v -0.085366473 0.837988079 0.067788057
v -0.018639643 0.853263497 -0.132879227
v 0.195138529 0.714492977 0.042634167
v 0.047612857 0.902721584 -0.145623460
v 0.057085562 0.888692737 -0.147363991
v 0.197572917 0.632177591 0.010799285
v -0.081801854 0.884400487 0.059539627
v -0.022221366 0.838553250 -0.124449573
v -0.201722652 0.782502532 -0.052681416
v -0.174467325 0.862565994 -0.080988795
v -0.095392421 0.821648419 0.073127016
v 0.030279320 0.903813958 -0.141939789
v -0.189659342 0.781862080 -0.071554810
v 0.013432110 0.904459774 -0.136131614
v -0.159326285 0.787842691 -0.099379137
v 0.181003153 0.638680041 0.048221286
v -0.174530402 0.775982499 -0.090518184
v 0.012946856 0.893606365 -0.136025161
v -0.004598024 0.904620290 -0.133395776
v 0.188675255 0.696567595 0.052812647
v 0.176587701 0.676236272 0.056122072
v 0.075309888 0.798106968 -0.104876958
v 0.019371094 0.878451169 0.065012604
v -0.164352313 0.808026493 -0.098032318
v -0.155095756 0.767886639 -0.098263927
v -0.166461423 0.882431865 -0.087637380
v 0.061281741 0.813760757 -0.108148634
v 0.164588794 0.697012961 0.063368365
v -0.136624321 0.778318822 -0.108465828
v -0.046481531 0.621165872 -0.041229401
v -0.104003504 0.791942954 -0.113194585
v -0.053095825 0.613960028 -0.055411905
v -0.068130434 0.610926569 -0.062396526
v -0.112638809 0.776126325 -0.114883900
v 0.141493767 0.686916232 0.071973875
v 0.154349178 0.671152234 0.064592212
v -0.082181461 0.608278394 -0.068171278
v 0.144948095 0.649453580 0.066096149
v -0.110345818 0.828673840 -0.115311943
v 0.041077584 0.872857213 0.063294001
v 0.026297381 0.861577034 0.060673721
v -0.096274815 0.606369734 -0.074437857
v 0.145372882 0.709546804 0.071385100
v -0.104267895 0.810100853 -0.112800553
v 0.127169922 0.715865314 0.078751937
v 0.131042570 0.665957332 0.074010774
v -0.089197122 0.599324226 -0.068955369
v -0.000703651 0.814540744 0.027902797
v -0.000484166 0.801047504 0.022798026
v -0.087354876 0.798416197 -0.108682074
v -0.101902045 0.596822917 -0.074514017
v -0.077985466 0.834765792 -0.134531006
v -0.092656538 0.779681087 -0.109641910
v -0.115392648 0.593955159 -0.077773020
v -0.129137963 0.592214644 -0.073239639
v -0.142790601 0.590482056 -0.068715990
v -0.044013623 0.782350361 0.051988918
v -0.027662331 0.787140012 0.029226255
v 0.075527623 0.691617072 0.059430905
v 0.077980965 0.674021125 0.058843963
v -0.156349674 0.588846684 -0.064238511
v -0.169865131 0.587561786 -0.058311682
v -0.033097092 0.731094480 0.022672143
v 0.058692850 0.686458886 0.052078884
v 0.044347901 0.702028334 0.035757236
v -0.177228555 0.586851120 -0.046014734
v -0.073645696 0.822982669 -0.122495674
v 0.069090262 0.721976995 0.059431054
v -0.184224367 0.586043775 -0.033826083
v -0.046786342 0.716655135 0.042955335
v 0.030745363 0.705886424 0.014648053
v -0.037254967 0.684283376 0.018633902
v -0.092471197 0.823133111 -0.122590974
v 0.027613303 0.669070959 0.006425434
v -0.057324387 0.696346343 0.052070927
v 0.063919961 0.755837083 0.059491009
v -0.039982937 0.657475770 0.014962005
v -0.051428221 0.657838523 0.033861436
v -0.056438006 0.841305554 -0.138926059
v -0.073191576 0.849635303 -0.143957287
v -0.065167822 0.730212271 0.057986874
v -0.059243131 0.860658824 -0.145742074
v 0.086466476 0.842901587 -0.140578598
v -0.190516919 0.585077286 -0.020830553
v 0.076710917 0.739333868 0.063568234
v -0.065139934 0.660218477 0.051786341
v -0.090182021 0.724353731 0.067525141
v 0.090151325 0.825848103 -0.129140586
v -0.069296159 0.679192185 0.055380262
v -0.080047123 0.694821119 0.061125506
v -0.076946184 0.853157699 0.058482051
v 0.065827884 0.666097760 -0.078103743
v -0.053090520 0.853992283 0.053040307
v 0.097209081 0.741559148 0.071963035
v -0.087832667 0.680166721 0.062929690
v 0.127744585 0.839205444 -0.115586415
v -0.190076277 0.585026443 -0.007553901
v -0.032323796 0.749402642 0.024158603
v 0.091215290 0.656044662 -0.085378490
v -0.185631081 0.586080134 0.020749941
v -0.121556655 0.697585523 0.077799901
v 0.086975291 0.674302399 -0.089330643
v -0.179393679 0.586754620 0.033980984
v -0.102455534 0.688579023 0.069578663
v 0.111806847 0.728480458 0.076971419
v 0.118539669 0.748013616 0.080732234
v 0.123820052 0.854097366 -0.128674611
v -0.170140475 0.587743640 0.046454959
v -0.112810314 0.718161464 0.075976506
v -0.156596705 0.589382589 0.053041410
v -0.120343067 0.678283334 0.075898603
v -0.142821699 0.590862811 0.059965678
v -0.128822178 0.592157364 0.066978693
v -0.134376571 0.712164521 0.075450383
v -0.142946944 0.683633745 0.070607074
v -0.112992391 0.595230937 0.064511746
v 0.138675213 0.734322667 0.075679183
v -0.148541659 0.700341821 0.069368854
v -0.098334871 0.598826885 0.058381241
v -0.083621703 0.602167726 0.052458763
v 0.106205359 0.640505314 -0.088113382
v -0.152820513 0.717104554 0.068464309
v 0.179394737 0.739991426 0.061811276
v 0.104329288 0.654367566 -0.091032244
v 0.158278063 0.882327437 -0.104218856
v -0.090719931 0.613851428 0.057348024
v -0.138553157 0.667199254 0.070406273
v -0.080238290 0.613243520 0.052679263
v 0.131883904 0.885407448 -0.129616901
v -0.064564049 0.612968922 0.043102823
v -0.056569584 0.612237334 0.027896130
v 0.195574135 0.733992040 0.043996915
v 0.140891343 0.852441013 -0.113849603
v -0.047943108 0.613357246 0.013160842
v -0.038125601 0.615482867 0.000498136
v -0.172869295 0.725617528 0.062124897
v -0.034099039 0.629774749 -0.001930189
v -0.165582329 0.688011289 0.061768942
v 0.123795606 0.649715841 -0.086582586
v 0.150521979 0.835948765 -0.102696739
v 0.205821708 0.744384408 0.024434153
v -0.190176800 0.713691592 0.052436985
v -0.181678116 0.673641205 0.053120930
v -0.187391490 0.693358779 0.053012591
v -0.041900519 0.755081058 -0.092532769
v 0.141910151 0.645737529 -0.079341725
v 0.210262179 0.756632388 -0.018785270
v 0.151956499 0.866615653 -0.113328829
v 0.011363243 0.802396119 -0.075947449
v -0.051180463 0.771408081 -0.097736999
v 0.056833021 0.755092740 -0.096471056
v -0.044054411 0.738327801 0.043813489
v 0.209999010 0.733938038 -0.001321276
v -0.195789829 0.681386590 0.033249732
v -0.207811981 0.715687454 0.016143654
v -0.190380290 0.795767844 0.043942254
v 0.161482900 0.646117866 -0.071881130
v -0.203413844 0.671648383 0.012265945
v 0.127755806 0.879440188 0.048036087
v 0.209268287 0.736055553 -0.028743003
v -0.206550956 0.693274438 0.011926231
v -0.208010525 0.707031608 -0.008154592
v -0.208687425 0.721628964 -0.025686204
v 0.173637643 0.632712424 -0.064166203
v 0.201654404 0.720341802 -0.044860270
v -0.202265337 0.661970019 -0.008264254
v -0.210427850 0.797627091 0.005444000
v 0.156616345 0.851471126 -0.098287188
v -0.032378688 0.901391864 0.066797733
v 0.198894382 0.741842628 -0.053054065
v 0.184842557 0.749039292 -0.073536858
v -0.080893852 0.815647721 -0.110376872
v -0.060368408 0.815231800 -0.112999722
v 0.179470286 0.651835859 -0.060599335
v -0.205362514 0.683805168 -0.013920839
v 0.181370839 0.622026563 -0.049587868
v 0.188699901 0.726085067 -0.063561104
v -0.021366177 0.904248059 -0.139152586
v -0.038115066 0.903249562 -0.144612908
v 0.174663946 0.836320043 -0.091902494
v 0.020920038 0.773391902 0.020367537
v -0.054994322 0.901973069 -0.146910518
v -0.042296931 0.759009123 0.046064224
v 0.176038131 0.728931546 -0.080150127
v 0.163540870 0.740920901 -0.088951655
v -0.071916141 0.900865197 -0.148586780
v 0.173386455 0.855928063 -0.086524874
v -0.201894119 0.665790677 -0.031371839
v -0.088474020 0.899943650 -0.147498578
v -0.092449136 0.882071853 -0.146323353
v -0.206729248 0.799499393 -0.037752550
v -0.104249001 0.899375439 -0.141682670
v -0.119349621 0.899026752 -0.135338634
v 0.142175719 0.731561065 -0.097670406
v -0.196007952 0.717294633 -0.052389175
v -0.195608467 0.803961754 -0.063383512
v -0.182543188 0.817181945 -0.083602577
v -0.198227689 0.682014346 -0.042495493
v 0.185420007 0.843968034 -0.070573062
v 0.169547647 0.884429753 -0.074358188
v -0.185495123 0.631844521 -0.046347644
v 0.043104965 0.755438328 0.047382385
v 0.122372285 0.736870646 -0.108328104
v -0.065765634 0.802224517 -0.102160729
v -0.182582587 0.727747321 -0.072870955
v 0.178588480 0.880356312 -0.059312642
v -0.076655008 0.786825657 -0.105617546
v -0.173317865 0.627653062 -0.063872412
v 0.105251275 0.746229053 -0.109632015
v -0.182946593 0.678301632 -0.061779134
v -0.160344243 0.678594708 -0.077596247
v 0.182772085 0.878404438 -0.041218556
v -0.176543221 0.691875517 -0.072446808
v -0.163497090 0.718418419 -0.084758051
v 0.198789805 0.843404114 -0.029211465
v -0.153648615 0.658737540 -0.077622131
v -0.032734711 0.696704507 -0.056004476
v 0.069147602 0.739631236 -0.098300919
v -0.133707553 0.899000049 -0.128238097
v -0.144226953 0.899279118 -0.117429316
v -0.146314383 0.729025006 -0.095509596
v -0.142723173 0.710104823 -0.093288779
v -0.140977785 0.690932691 -0.088975079
v -0.138963237 0.671960235 -0.085894980
v -0.127307922 0.813876033 -0.114109680
v 0.065312415 0.790817916 0.061428815
v 0.189591900 0.641573191 -0.042415850
v -0.163365513 0.899630249 -0.092033237
v -0.168913290 0.899559200 -0.077701569
v 0.200323060 0.657907784 -0.030623883
v -0.013686813 0.639761865 -0.011164377
v -0.173241585 0.899658501 -0.063216887
v 0.199472919 0.847088516 -0.003571877
v -0.172844589 0.898644149 -0.048821703
v -0.172134697 0.897465348 -0.034931812
v -0.172530279 0.898155868 -0.022578890
v 0.208518475 0.756222367 -0.041665845
v 0.181718796 0.882832885 -0.026135748
v -0.172483891 0.899687409 -0.009619895
v -0.166862786 0.899503052 0.002358069
v -0.159207702 0.898254275 0.011965328
v 0.042966831 0.790719926 -0.095718160
v -0.150696367 0.898670495 0.020844635
v 0.184018761 0.880228043 -0.009160437
v -0.140671477 0.898983598 0.029017160
v -0.120470762 0.663966477 -0.091943093
v 0.191821411 0.841248989 0.020633921
v 0.014626749 0.733270705 -0.060230970
v -0.012939532 0.722257614 -0.057861187
v -0.013033146 0.736962199 -0.059384655
v 0.146118298 0.883601964 -0.117816508
v -0.121427894 0.682872295 -0.095694825
v -0.011890857 0.752405524 -0.062846519
v -0.124098003 0.721460462 -0.104850426
v 0.012212128 0.750719488 -0.063219212
v -0.011788806 0.768682897 -0.065400049
v -0.130135983 0.900264442 0.036681063
v 0.150586024 0.754725099 -0.097536728
v 0.177635044 0.881628692 0.008513472
v -0.101584315 0.674828947 -0.095873922
v -0.119458795 0.900717735 0.043559961
v -0.107309662 0.901037335 0.050311286
v 0.169234902 0.870388687 0.028990839
v 0.040489458 0.840130806 -0.133027300
v -0.121973053 0.702000082 -0.100586951
v -0.101888493 0.737579882 -0.108267762
v 0.165439039 0.886300564 0.019280531
v -0.100115739 0.693995476 -0.099516377
v 0.180357695 0.833289504 0.040240284
v -0.078710690 0.686198592 -0.088805377
v -0.008505980 0.755033910 0.011405829
v -0.098868206 0.885598958 0.052508317
v 0.142011270 0.887604356 0.041566316
v 0.149568409 0.874148369 0.047824569
v 0.155400321 0.885286152 0.032646421
v -0.080127105 0.672861099 -0.095968172
v -0.072565757 0.707340896 -0.092502668
v -0.085531965 0.698603034 -0.095386967
v 0.042930767 0.672246575 0.025151968
v -0.072647713 0.727752268 -0.096921086
v 0.045868281 0.873847783 -0.146123677
v -0.083684251 0.718357742 -0.098570369
v 0.021530064 0.868822873 -0.137683809
v -0.040108498 0.833626270 -0.127681911
v -0.038218461 0.852718651 -0.139445737
v 0.200371936 0.651213050 0.007945913
v 0.187184915 0.659541309 0.043730415
v -0.055239428 0.712329090 -0.087422594
v -0.057664085 0.734676063 -0.093499385
v -0.155066475 0.899707019 -0.105729438
v 0.168710217 0.844376564 0.050348770
v 0.148359522 0.842210889 0.060736876
v -0.192213744 0.598842382 0.000885297
v 0.159057036 0.633102536 0.058104478
v 0.167164832 0.654420793 0.057053410
v -0.189611688 0.585535884 0.006513712
v 0.134414479 0.859121203 0.057189960
v -0.041859634 0.639164150 -0.038954988
v -0.041555732 0.629554272 -0.027640790
v 0.013207023 0.654215693 0.001224582
v -0.032424953 0.636750042 -0.015729522
v -0.004734201 0.902991414 0.068404421
v 0.061986327 0.864034832 -0.146776542
v -0.017182065 0.901066005 0.067520343
v -0.035742220 0.646334171 0.005653284
v 0.119871356 0.645732760 0.073701985
v 0.035989858 0.888060868 0.065387957
v 0.069842279 0.617026567 0.049054965
v 0.059960447 0.631648183 0.041686833
v 0.092313059 0.623677373 0.059883643
v 0.042930972 0.823737502 -0.119719408
v 0.113394678 0.625629246 0.069427051
v 0.049441434 0.638769031 0.025341203
v 0.193523273 0.613473833 0.015878355
v 0.125281319 0.835589051 0.067821532
v 0.113053583 0.851423860 0.065054581
v 0.188068688 0.863291740 0.010016279
v 0.097470038 0.642271280 0.064255938
v 0.190928236 0.863498211 -0.021534100
v 0.191316262 0.858654201 -0.049122274
v 0.054262795 0.885842919 0.062799051
v 0.078115687 0.655016482 0.057270326
v 0.102144912 0.664231718 0.067941785
v 0.178474173 0.865498245 -0.070589110
v 0.167434618 0.875051141 -0.087221876
v 0.076290421 0.636304975 0.054277003
v 0.160586372 0.866178989 -0.097502455
v 0.156811833 0.613178849 -0.067455277
v 0.151585266 0.630829096 -0.071995094
v 0.056287009 0.666777611 0.045645852
v 0.126231208 0.629392743 -0.080223367
v 0.136659101 0.868664086 -0.125796884
v 0.058410019 0.647885978 0.043775640
v 0.105927989 0.705868721 0.072901234
v 0.137726516 0.628075242 0.067262903
v 0.173354253 0.618887961 0.049806766
v 0.187456459 0.625163019 0.031929351
v 0.201092884 0.699487031 -0.041465141
v 0.139739603 0.708222985 -0.093762152
v 0.045892548 0.656175315 0.024727322
v 0.119741045 0.698062539 -0.100224055
v 0.194612131 0.624562562 -0.028855285
v 0.195930228 0.620136023 -0.005845057
v 0.035804961 0.687623918 0.017599873
v 0.010573708 0.708297372 0.005025913
v 0.094059959 0.858759105 0.063163295
v 0.072374061 0.884251952 0.060854774
v 0.017164972 0.724164367 0.010114822
v 0.034874145 0.808926404 0.043437961
v 0.026692685 0.793126285 0.027981285
v 0.022340279 0.665985286 -0.032959297
v 0.060891133 0.869360924 0.060142569
v 0.035498992 0.686732233 -0.062330671
v 0.035252396 0.848858953 0.054323632
v 0.049215447 0.857873619 0.055608343
v 0.017045114 0.847567916 0.056191307
v 0.037704609 0.648661435 -0.031463299
v 0.050774980 0.685136616 -0.077877432
v 0.074049868 0.772862136 0.064280048
v 0.200096458 0.701029897 0.030608844
v 0.194772303 0.790479064 -0.064215466
v 0.045431517 0.633462429 -0.051363546
v 0.157298356 0.698408127 -0.083054803
v 0.114644483 0.779568315 -0.115021870
v 0.098165788 0.707860529 -0.101115428
v 0.066919275 0.622147799 -0.064947471
v 0.043337479 0.721252322 -0.085101008
v 0.033548098 0.777520359 -0.083039239
v 0.099884063 0.627952218 -0.081931509
v 0.089187875 0.613962233 -0.072809629
v 0.099157609 0.878390193 -0.143663049
v 0.078579053 0.868015289 0.057474427
v 0.072906569 0.849292278 0.057631642
v 0.113453254 0.609984994 -0.080901138
v 0.029500902 0.835644603 0.049469840
v 0.046229035 0.824316680 0.047016107
v 0.076684773 0.880264103 -0.148501471
v 0.140201464 0.612183213 -0.072788529
v 0.169695079 0.760990500 -0.089503370
v 0.018582599 0.821605682 -0.107743405
v 0.153082818 0.659171939 -0.077446327
v 0.169559002 0.618026853 -0.064012192
v 0.016163694 0.717159033 -0.058028180
v 0.163849935 0.602690220 -0.063550949
v 0.030349929 0.797909915 -0.082922272
v 0.179041922 0.605401695 -0.048578858
v 0.187831655 0.611495018 -0.035934962
v 0.055494837 0.738225281 0.054981578
v 0.103962995 0.857809842 -0.139497161
v 0.083003238 0.861695111 -0.146017924
v 0.017519983 0.783201098 -0.070858464
v 0.193940043 0.606429219 -0.018246254
v 0.097735859 0.668807030 -0.091861606
v 0.201726705 0.658582807 -0.010041939
v 0.192479447 0.645014405 0.028488770
v 0.138419360 0.665190458 -0.084738895
v 0.120363951 0.666578114 -0.092338473
v 0.182226032 0.604396462 0.034547169
v 0.164983079 0.829112887 0.060094196
v 0.202841610 0.826154232 0.010757882
v 0.190466449 0.664065182 -0.048438165
v 0.040178351 0.654301047 -0.051737893
v 0.151679665 0.609968185 0.058547311
v 0.084042236 0.756568909 0.067676120
v 0.203333288 0.671220899 0.003802873
v 0.197690219 0.665181160 0.024330813
v 0.084406853 0.688962579 -0.092631750
v 0.130480528 0.606805384 0.068123609
v 0.111342452 0.825057387 -0.112799406
v -0.005991640 0.770505548 0.014039598
v -0.011411341 0.697077930 0.003673143
v 0.047368295 0.683280885 0.035566486
v 0.106616892 0.608311832 0.063977182
v 0.138167247 0.823064804 -0.109041311
v -0.011241406 0.740145862 0.008256346
v 0.000920490 0.785171866 0.018076101
v 0.087499298 0.608108222 0.055492271
v 0.022773862 0.825199127 0.038503475
v -0.000096184 0.823718727 0.039026055
v 0.111940801 0.868544459 0.056370914
v 0.054933202 0.620711923 0.029537946
v 0.108788550 0.884492397 0.048478588
v 0.192598790 0.601134658 -0.000186173
v 0.102115169 0.757793307 0.075055465
v 0.031638734 0.886274517 -0.143172115
v 0.042811733 0.628108561 0.010552940
v 0.062423903 0.848523498 -0.142934799
v 0.019373626 0.635356545 0.001293138
v 0.036821000 0.647848487 0.007293133
v 0.038179331 0.811661422 -0.099253736
v 0.017200923 0.812719524 0.028917616
v 0.015626822 0.688240409 0.003719781
v -0.013219113 0.683473885 0.002245808
v -0.011090521 0.725319803 0.006403980
v 0.187579066 0.597618401 -0.031514607
v -0.010423472 0.711021304 0.004832287
v 0.062558837 0.645995855 -0.070167847
v 0.076858059 0.758005321 -0.102517091
v 0.096876539 0.765708089 -0.109255888
v 0.157905683 0.749121308 0.069320701
v 0.090978250 0.723519325 0.068282232
v 0.160846576 0.725217283 0.066885747
v 0.083964311 0.632237256 -0.075666912
v 0.189215824 0.596765399 0.017986448
f 555 540 123
f 389 162 497
f 567 540 568
f 583 104 251
f 463 489 430
f 453 94 255
f 483 484 162
f 446 640 671
f 574 577 251
f 50 244 238
f 52 244 50
f 575 57 53
f 55 249 52
f 55 2 250
f 577 248 563
f 575 437 432
f 57 597 589
f 2 265 262
f 589 592 57
f 262 259 2
f 5 267 262
f 602 606 589
f 5 9 11
f 58 606 610
f 11 272 5
f 12 278 11
f 565 793 8
f 630 60 632
f 13 425 12
f 424 289 160
f 289 424 13
f 643 649 60
f 181 403 179
f 483 206 484
f 163 651 174
f 53 563 558
f 651 65 650
f 163 389 384
f 683 66 65
f 455 558 563
f 165 384 171
f 340 331 34
f 67 66 683
f 206 470 63
f 385 102 856
f 67 702 70
f 344 340 696
f 179 403 406
f 710 70 702
f 16 352 14
f 111 112 59
f 63 64 655
f 18 368 16
f 710 742 753
f 119 112 111
f 394 671 545
f 551 922 903
f 19 375 18
f 753 740 711
f 406 470 179
f 261 615 108
f 545 453 439
f 178 386 530
f 24 386 23
f 72 753 742
f 26 396 24
f 768 765 72
f 119 142 112
f 32 63 470
f 112 142 161
f 399 400 396
f 154 343 182
f 545 671 448
f 399 415 400
f 768 770 765
f 32 406 410
f 418 415 399
f 770 183 777
f 387 300 166
f 415 418 422
f 105 86 299
f 169 42 839
f 170 142 119
f 173 172 705
f 329 638 343
f 134 738 737
f 185 638 329
f 692 661 145
f 150 74 741
f 637 345 873
f 132 145 661
f 170 184 142
f 138 495 760
f 138 136 188
f 136 194 188
f 201 87 194
f 270 87 205
f 216 49 210
f 46 216 724
f 198 184 170
f 43 96 907
f 219 39 218
f 45 43 41
f 224 37 219
f 498 224 514
f 86 105 342
f 225 36 514
f 378 107 110
f 80 233 107
f 22 41 43
f 198 217 849
f 41 581 45
f 103 233 76
f 76 40 103
f 222 217 214
f 678 100 40
f 98 41 22
f 366 41 98
f 40 76 678
f 215 4 284
f 215 98 21
f 537 536 92
f 222 234 217
f 904 537 92
f 460 462 30
f 284 471 366
f 222 239 246
f 586 903 759
f 462 28 30
f 246 234 222
f 454 449 28
f 237 391 924
f 560 319 921
f 246 888 252
f 431 471 282
f 455 560 391
f 319 560 241
f 50 238 793
f 50 566 52
f 52 574 55
f 258 263 510
f 244 52 249
f 55 253 2
f 284 792 657
f 303 670 667
f 303 100 674
f 250 249 55
f 273 274 252
f 251 253 574
f 100 303 301
f 301 570 100
f 104 261 257
f 677 100 678
f 273 285 274
f 257 2 253
f 2 257 265
f 250 2 259
f 570 568 40
f 752 292 293
f 294 296 285
f 285 296 274
f 684 497 679
f 277 274 296
f 440 447 442
f 579 489 463
f 692 329 695
f 259 262 267
f 871 736 360
f 262 271 9
f 40 100 570
f 570 567 568
f 203 128 270
f 310 296 294
f 305 296 310
f 87 270 194
f 9 5 262
f 5 272 600
f 276 9 271
f 9 276 11
f 272 11 278
f 302 323 310
f 568 103 40
f 108 615 89
f 280 11 276
f 11 280 12
f 103 568 540
f 278 12 425
f 323 337 328
f 283 12 280
f 12 283 13
f 283 297 289
f 289 13 283
f 540 561 231
f 425 13 424
f 209 288 205
f 291 125 286
f 346 337 323
f 49 304 288
f 173 350 351
f 297 654 314
f 347 158 864
f 304 47 311
f 47 304 49
f 47 46 481
f 360 361 855
f 501 684 146
f 481 311 47
f 46 39 481
f 343 695 329
f 314 289 297
f 289 314 160
f 481 321 308
f 481 39 321
f 325 122 321
f 325 321 37
f 37 321 39
f 333 160 314
f 324 266 333
f 527 107 231
f 84 121 325
f 36 327 498
f 160 333 34
f 327 120 84
f 36 82 371
f 277 393 390
f 689 34 333
f 34 689 340
f 313 34 331
f 266 334 689
f 334 260 341
f 340 335 331
f 107 527 110
f 54 404 405
f 696 14 344
f 61 401 44
f 38 299 407
f 358 14 348
f 14 358 16
f 344 14 352
f 356 704 712
f 352 16 368
f 413 62 417
f 370 16 358
f 16 370 18
f 175 705 134
f 713 115 110
f 371 27 378
f 27 371 82
f 381 18 370
f 18 381 19
f 368 18 375
f 80 378 27
f 19 381 235
f 19 395 23
f 19 23 178
f 202 506 913
f 23 395 24
f 386 24 396
f 398 24 395
f 24 398 26
f 26 398 220
f 26 412 399
f 396 26 399
f 418 399 412
f 164 180 444
f 444 443 164
f 175 173 705
f 685 84 120
f 422 300 415
f 685 121 84
f 172 169 300
f 172 300 422
f 78 80 27
f 226 365 78
f 89 615 114
f 240 485 309
f 134 737 175
f 226 27 82
f 245 459 452
f 187 186 140
f 243 459 245
f 189 187 130
f 581 466 579
f 467 472 637
f 308 122 240
f 138 579 466
f 430 255 463
f 499 435 430
f 453 430 435
f 435 440 439
f 435 499 450
f 243 479 281
f 308 321 122
f 897 438 584
f 439 453 435
f 243 281 893
f 450 440 435
f 480 859 865
f 440 449 447
f 442 439 440
f 450 449 440
f 447 449 454
f 492 488 493
f 127 458 456
f 449 456 28
f 82 225 708
f 454 28 462
f 28 456 30
f 456 450 127
f 30 456 458
f 225 82 36
f 30 464 460
f 506 507 502
f 126 469 125
f 287 508 509
f 207 507 506
f 410 460 32
f 126 306 477
f 460 464 644
f 644 32 460
f 32 644 63
f 475 31 576
f 470 406 32
f 64 63 644
f 306 309 477
f 125 464 458
f 528 795 511
f 516 523 524
f 655 206 63
f 206 655 484
f 206 474 470
f 162 679 497
f 316 322 822
f 313 160 34
f 37 498 325
f 523 316 534
f 497 684 501
f 501 146 505
f 146 512 503
f 505 503 513
f 263 515 510
f 512 120 115
f 503 512 91
f 517 513 503
f 115 713 91
f 458 203 125
f 315 547 548
f 91 512 115
f 547 330 336
f 91 713 88
f 517 88 522
f 552 548 547
f 532 88 713
f 88 532 519
f 552 336 553
f 522 519 541
f 527 231 561
f 127 128 458
f 538 660 692
f 514 36 498
f 224 498 37
f 538 692 695
f 114 626 631
f 553 342 105
f 219 37 39
f 555 660 561
f 127 450 499
f 891 199 824
f 660 555 661
f 218 39 46
f 199 97 886
f 366 98 284
f 22 21 98
f 41 366 581
f 43 232 22
f 907 232 43
f 96 536 907
f 45 463 255
f 45 581 463
f 255 94 96
f 255 96 45
f 94 453 545
f 448 546 545
f 582 593 594
f 595 584 438
f 216 46 47
f 216 47 49
f 551 640 558
f 558 640 569
f 49 288 209
f 793 565 50
f 569 53 558
f 566 50 565
f 209 210 49
f 841 351 350
f 574 52 566
f 578 53 57
f 612 609 423
f 53 578 563
f 575 53 569
f 597 432 211
f 253 55 574
f 57 575 597
f 578 57 592
f 592 583 578
f 627 609 612
f 584 621 628
f 603 589 606
f 602 589 597
f 634 819 627
f 610 606 602
f 835 318 229
f 626 606 58
f 610 624 58
f 58 624 630
f 632 58 630
f 634 884 869
f 58 632 626
f 60 642 632
f 642 60 649
f 60 630 181
f 650 649 643
f 662 652 645
f 656 628 621
f 621 636 656
f 658 659 204
f 64 644 469
f 466 495 138
f 694 377 700
f 468 471 431
f 663 650 65
f 628 656 668
f 679 162 484
f 65 686 663
f 672 673 659
f 686 65 66
f 683 65 651
f 468 431 478
f 683 693 67
f 685 146 684
f 146 685 512
f 696 340 689
f 66 67 701
f 473 495 478
f 66 698 686
f 702 67 693
f 668 675 687
f 701 698 66
f 405 690 54
f 701 67 70
f 54 690 564
f 14 696 348
f 711 70 710
f 699 70 711
f 702 709 710
f 229 318 236
f 657 282 471
f 710 709 742
f 753 756 740
f 756 753 72
f 742 754 72
f 72 754 768
f 72 765 756
f 766 765 770
f 490 193 496
f 130 772 496
f 770 776 766
f 15 719 168
f 87 201 148
f 183 770 768
f 201 194 136
f 422 705 172
f 633 777 338
f 777 633 150
f 408 74 633
f 638 185 408
f 106 730 258
f 688 379 694
f 275 631 118
f 185 692 145
f 197 750 749
f 736 737 738
f 263 258 730
f 738 741 743
f 185 145 143
f 743 741 744
f 744 741 74
f 744 467 879
f 132 140 145
f 123 132 661
f 741 738 150
f 123 540 567
f 773 772 567
f 738 134 150
f 78 27 226
f 238 623 1
f 264 279 779
f 776 150 134
f 134 705 420
f 695 541 538
f 104 599 261
f 365 681 680
f 761 762 763
f 365 678 76
f 76 78 365
f 411 156 420
f 156 411 220
f 541 519 538
f 220 764 156
f 76 233 78
f 80 78 233
f 168 789 387
f 70 699 701
f 398 395 228
f 434 437 445
f 779 780 887
f 428 432 434
f 926 317 706
f 197 749 745
f 213 6 4
f 279 785 780
f 419 427 428
f 148 201 745
f 454 462 419
f 526 782 783
f 381 734 235
f 410 414 419
f 493 769 913
f 511 4 215
f 4 511 213
f 406 414 410
f 208 731 729
f 21 511 215
f 210 728 727
f 794 800 823
f 511 21 529
f 470 474 179
f 724 218 46
f 227 110 115
f 118 280 275
f 219 218 722
f 806 800 794
f 803 804 256
f 716 778 225
f 224 219 720
f 407 86 690
f 356 734 381
f 389 497 380
f 809 795 528
f 810 806 811
f 717 716 514
f 497 501 380
f 317 697 429
f 810 818 821
f 913 771 202
f 341 698 699
f 373 376 159
f 369 177 373
f 341 260 698
f 260 334 266
f 365 226 681
f 517 522 354
f 828 821 818
f 354 362 364
f 569 640 446
f 519 522 88
f 767 828 818
f 266 324 676
f 602 597 211
f 804 834 256
f 121 240 122
f 345 868 918
f 610 602 211
f 169 839 166
f 427 195 211
f 643 179 174
f 683 651 165
f 693 683 171
f 627 884 634
f 324 654 676
f 846 397 841
f 841 397 374
f 362 709 369
f 580 397 846
f 192 188 190
f 192 499 489
f 128 192 190
f 270 205 203
f 205 288 286
f 291 306 126
f 208 148 733
f 288 304 291
f 304 311 306
f 311 481 308
f 286 125 203
f 283 118 297
f 589 599 592
f 283 280 118
f 227 115 120
f 747 805 732
f 707 226 82
f 107 378 80
f 275 114 631
f 118 646 297
f 89 114 275
f 231 233 103
f 87 209 205
f 816 872 870
f 271 108 89
f 248 560 455
f 248 241 560
f 108 271 265
f 566 565 241
f 86 876 690
f 622 244 619
f 517 91 88
f 574 566 248
f 715 662 889
f 244 249 618
f 249 250 614
f 882 465 718
f 253 251 257
f 774 465 882
f 250 259 608
f 883 494 774
f 921 391 560
f 259 267 604
f 54 564 847
f 251 577 583
f 600 267 5
f 89 276 271
f 503 91 517
f 690 405 407
f 275 276 89
f 892 573 582
f 272 278 596
f 248 577 574
f 280 276 275
f 425 588 591
f 425 424 781
f 781 313 572
f 424 313 781
f 572 585 781
f 314 654 324
f 136 197 201
f 313 557 572
f 237 551 558
f 554 331 335
f 334 341 348
f 760 136 138
f 335 344 549
f 341 699 704
f 348 696 334
f 921 319 7
f 358 348 704
f 344 352 544
f 912 582 594
f 903 586 551
f 352 368 543
f 381 370 356
f 368 375 539
f 788 8 3
f 535 375 178
f 221 795 809
f 828 767 562
f 559 833 920
f 921 920 899
f 546 448 898
f 903 922 836
f 38 903 299
f 235 228 395
f 405 669 407
f 546 92 94
f 400 518 520
f 92 546 904
f 639 35 926
f 386 396 525
f 927 926 33
f 928 605 930
f 200 490 298
f 94 545 546
f 96 92 536
f 927 56 852
f 143 472 408
f 220 412 26
f 400 520 521
f 412 220 411
f 109 113 152
f 920 832 559
f 418 412 411
f 152 113 746
f 387 789 786
f 420 418 411
f 746 161 867
f 418 420 422
f 490 773 298
f 496 772 773
f 394 442 445
f 562 767 832
f 739 636 820
f 204 725 658
f 773 490 496
f 725 223 635
f 447 454 428
f 472 186 637
f 215 284 98
f 189 130 496
f 458 464 30
f 410 462 460
f 125 469 464
f 635 247 487
f 487 269 629
f 641 487 629
f 268 269 487
f 269 393 629
f 390 269 268
f 469 126 64
f 349 761 763
f 655 64 477
f 303 674 670
f 290 393 277
f 611 290 928
f 163 474 483
f 928 307 605
f 635 641 648
f 531 605 533
f 677 674 100
f 477 309 485
f 506 202 207
f 679 485 240
f 240 121 684
f 312 912 594
f 684 679 240
f 121 685 684
f 186 187 345
f 503 505 146
f 912 332 892
f 772 130 132
f 685 120 512
f 501 505 159
f 725 648 658
f 505 513 373
f 513 517 364
f 892 847 564
f 110 527 713
f 714 847 339
f 522 541 154
f 51 714 346
f 231 103 540
f 714 51 404
f 541 695 343
f 567 772 123
f 502 500 506
f 578 577 563
f 867 659 673
f 577 578 583
f 597 575 432
f 592 104 583
f 913 492 493
f 845 167 839
f 599 104 592
f 386 178 23
f 599 603 615
f 110 227 378
f 615 261 599
f 706 402 639
f 603 626 114
f 132 123 772
f 624 610 195
f 409 706 317
f 746 673 682
f 114 615 603
f 120 327 227
f 624 414 403
f 691 429 697
f 642 631 632
f 642 118 631
f 429 433 853
f 646 118 642
f 642 649 646
f 152 682 691
f 682 433 691
f 181 643 60
f 654 297 646
f 122 325 121
f 140 130 187
f 421 416 617
f 123 661 555
f 309 308 240
f 698 260 686
f 702 693 177
f 698 701 699
f 672 441 436
f 291 126 125
f 109 691 697
f 143 140 186
f 874 872 816
f 665 441 672
f 188 192 489
f 665 658 653
f 712 704 699
f 653 451 665
f 927 697 317
f 712 740 734
f 648 461 653
f 178 375 19
f 923 880 116
f 641 461 648
f 740 756 748
f 748 758 228
f 926 706 639
f 479 641 482
f 754 742 362
f 354 754 362
f 407 669 38
f 203 458 128
f 482 629 620
f 756 765 758
f 182 754 154
f 128 127 192
f 254 246 252
f 611 382 620
f 764 398 228
f 499 192 127
f 764 766 156
f 766 776 156
f 930 611 928
f 420 156 776
f 140 132 130
f 788 7 8
f 387 166 168
f 420 776 134
f 136 760 197
f 300 387 415
f 750 197 760
f 745 201 197
f 148 208 209
f 733 148 745
f 258 35 106
f 593 533 605
f 731 208 733
f 236 318 910
f 729 210 208
f 728 210 729
f 727 216 210
f 188 489 579
f 929 573 556
f 724 216 727
f 573 929 582
f 723 218 724
f 722 218 723
f 720 219 722
f 717 224 720
f 514 224 717
f 188 579 138
f 876 556 573
f 707 681 226
f 898 904 546
f 472 143 186
f 212 795 221
f 899 391 921
f 854 925 931
f 213 795 212
f 140 143 145
f 404 54 714
f 833 922 924
f 415 387 786
f 143 408 185
f 238 3 793
f 1 3 238
f 31 799 752
f 622 238 244
f 918 799 515
f 380 376 171
f 915 752 357
f 617 476 421
f 619 244 618
f 618 249 616
f 616 249 614
f 636 739 613
f 388 613 10
f 614 250 608
f 357 791 915
f 383 688 388
f 608 259 607
f 571 438 576
f 295 667 666
f 92 96 94
f 607 259 604
f 372 726 700
f 667 295 303
f 367 726 372
f 604 267 601
f 298 295 207
f 923 875 880
f 363 732 367
f 408 467 74
f 148 209 87
f 298 301 295
f 359 747 363
f 601 267 600
f 359 355 755
f 600 272 598
f 598 272 596
f 353 755 355
f 301 298 773
f 596 278 591
f 747 755 751
f 591 278 425
f 588 425 781
f 388 688 813
f 769 771 913
f 763 353 349
f 202 771 200
f 506 500 913
f 74 467 744
f 773 570 301
f 82 708 707
f 320 647 326
f 500 492 913
f 331 554 557
f 242 910 320
f 344 335 340
f 910 908 647
f 554 335 550
f 239 222 703
f 549 550 335
f 549 344 544
f 166 167 168
f 544 352 543
f 543 368 542
f 17 15 167
f 17 845 157
f 907 536 919
f 157 850 155
f 155 850 153
f 542 368 539
f 150 633 74
f 153 854 151
f 151 854 149
f 149 858 147
f 147 862 144
f 539 375 535
f 759 903 38
f 530 535 178
f 144 862 141
f 141 866 139
f 139 866 137
f 530 386 525
f 137 870 135
f 525 396 521
f 135 870 872
f 133 872 131
f 131 874 129
f 129 923 117
f 923 874 875
f 170 119 902
f 521 396 400
f 20 932 101
f 99 101 932
f 99 886 97
f 95 97 199
f 95 891 93
f 93 896 90
f 518 400 786
f 90 896 85
f 85 901 83
f 83 905 81
f 169 166 300
f 81 905 79
f 77 79 796
f 77 909 75
f 439 394 545
f 75 914 73
f 73 914 71
f 71 916 69
f 442 394 439
f 468 466 366
f 442 447 434
f 7 562 920
f 794 534 811
f 924 899 833
f 434 447 428
f 428 454 419
f 419 462 410
f 38 898 759
f 902 111 897
f 466 468 495
f 526 524 534
f 25 59 56
f 96 43 45
f 895 401 61
f 182 343 338
f 483 389 163
f 483 162 389
f 897 59 25
f 883 894 775
f 776 777 150
f 59 897 111
f 380 384 389
f 774 882 893
f 111 902 119
f 778 708 225
f 501 159 380
f 167 166 839
f 159 505 373
f 176 191 867
f 373 513 369
f 364 369 513
f 850 890 925
f 354 364 517
f 354 522 154
f 177 369 709
f 154 541 343
f 446 445 437
f 376 380 159
f 204 223 725
f 217 198 214
f 214 703 222
f 437 569 446
f 610 211 195
f 414 624 195
f 403 630 624
f 889 718 715
f 160 313 424
f 181 630 403
f 888 246 239
f 179 643 181
f 174 650 643
f 651 650 174
f 163 384 165
f 487 247 268
f 165 651 163
f 171 683 165
f 174 474 163
f 557 313 331
f 475 515 799
f 376 693 171
f 285 273 757
f 177 693 376
f 627 885 884
f 174 179 474
f 509 508 516
f 294 302 310
f 709 702 177
f 709 362 742
f 154 754 354
f 182 338 183
f 780 785 803
f 183 768 182
f 423 413 881
f 183 338 777
f 638 338 343
f 633 638 408
f 590 401 895
f 692 185 329
f 190 188 194
f 515 475 25
f 270 190 194
f 190 270 128
f 195 427 414
f 7 788 562
f 915 878 571
f 877 595 438
f 203 205 286
f 44 48 61
f 474 206 483
f 210 209 208
f 61 62 895
f 413 895 62
f 211 432 427
f 172 42 169
f 398 764 220
f 515 263 918
f 437 575 569
f 228 758 764
f 124 885 426
f 175 871 350
f 84 498 327
f 225 514 716
f 327 371 227
f 918 263 730
f 898 448 759
f 371 327 36
f 839 374 890
f 227 371 378
f 451 441 665
f 228 235 748
f 444 180 457
f 233 231 107
f 187 868 345
f 759 448 586
f 189 292 868
f 734 748 235
f 653 461 826
f 924 922 237
f 292 193 196
f 446 671 394
f 461 641 479
f 922 551 237
f 391 237 455
f 482 641 629
f 918 868 799
f 196 200 293
f 771 293 200
f 558 455 237
f 281 287 894
f 894 893 281
f 248 566 241
f 257 251 104
f 255 430 453
f 257 261 265
f 509 775 287
f 260 266 676
f 509 516 524
f 265 261 108
f 523 516 531
f 322 316 523
f 273 252 888
f 265 271 262
f 811 534 316
f 316 315 811
f 676 686 260
f 366 466 581
f 478 495 468
f 330 547 315
f 547 336 552
f 366 471 468
f 760 495 473
f 657 471 284
f 336 342 553
f 553 900 552
f 832 900 553
f 865 878 791
f 792 284 4
f 31 571 576
f 286 288 291
f 438 571 877
f 906 864 863
f 4 790 792
f 8 7 319
f 303 295 301
f 291 304 306
f 570 773 567
f 739 617 392
f 617 416 392
f 306 311 309
f 309 311 308
f 170 628 668
f 613 739 10
f 739 392 10
f 656 675 668
f 656 815 675
f 680 678 365
f 813 613 388
f 324 333 314
f 687 198 668
f 379 688 383
f 295 666 207
f 815 656 636
f 377 694 379
f 325 498 84
f 689 333 266
f 334 696 689
f 700 377 372
f 861 834 860
f 703 721 239
f 732 726 367
f 834 861 256
f 348 341 704
f 747 732 363
f 356 358 704
f 735 888 721
f 370 358 356
f 735 264 757
f 735 273 888
f 755 747 359
f 369 364 362
f 353 763 755
f 647 761 326
f 761 349 326
f 376 373 177
f 779 757 264
f 780 779 279
f 384 380 171
f 235 395 19
f 736 871 737
f 562 788 917
f 910 647 320
f 785 804 803
f 414 406 403
f 256 323 803
f 813 675 815
f 415 786 400
f 427 419 414
f 422 420 705
f 432 428 427
f 430 489 499
f 587 580 590
f 437 434 432
f 445 442 434
f 446 394 445
f 671 586 448
f 819 609 627
f 456 449 450
f 455 563 248
f 865 791 769
f 581 579 463
f 645 652 817
f 644 464 469
f 652 662 715
f 874 923 129
f 715 664 652
f 694 812 688
f 477 64 126
f 750 760 473
f 485 655 477
f 465 715 718
f 507 207 666
f 465 774 494
f 865 486 480
f 812 675 813
f 485 484 655
f 207 202 298
f 883 504 825
f 493 865 769
f 783 782 504
f 679 484 485
f 202 200 298
f 196 490 200
f 196 193 490
f 877 859 476
f 302 803 323
f 189 496 193
f 814 806 810
f 168 719 789
f 821 814 810
f 391 899 924
f 713 527 532
f 467 408 472
f 302 294 887
f 786 787 518
f 538 519 532
f 561 532 527
f 926 35 33
f 538 532 660
f 540 555 561
f 551 586 640
f 319 241 565
f 660 532 561
f 113 161 746
f 161 176 867
f 8 319 565
f 223 247 635
f 781 585 784
f 620 629 393
f 887 780 302
f 269 390 393
f 671 640 586
f 781 784 588
f 599 589 603
f 393 290 611
f 626 603 606
f 928 290 305
f 623 238 622
f 625 1 623
f 774 893 894
f 312 332 912
f 626 632 631
f 332 339 847
f 847 892 332
f 757 887 285
f 847 714 54
f 793 3 8
f 732 807 726
f 858 931 857
f 675 812 687
f 168 167 15
f 273 735 757
f 920 921 7
f 402 385 639
f 167 845 17
f 638 633 338
f 646 649 663
f 650 663 649
f 845 850 157
f 888 239 721
f 663 654 646
f 706 409 48
f 850 854 153
f 676 654 663
f 429 409 317
f 661 692 660
f 854 858 149
f 676 663 686
f 858 862 147
f 433 429 691
f 678 680 677
f 699 711 712
f 712 734 356
f 711 710 753
f 862 866 141
f 712 711 740
f 682 436 827
f 734 740 748
f 866 870 137
f 214 687 808
f 748 756 758
f 664 816 652
f 872 133 135
f 198 687 214
f 754 182 768
f 872 874 131
f 665 659 658
f 758 765 766
f 658 648 653
f 766 764 758
f 776 770 777
f 668 198 170
f 117 923 116
f 787 786 789
f 929 330 822
f 533 822 322
f 556 336 330
f 531 322 523
f 899 920 833
f 662 444 889
f 346 323 256
f 491 482 620
f 116 880 911
f 911 20 116
f 382 491 620
f 911 932 20
f 932 886 99
f 645 443 662
f 930 382 611
f 382 930 516
f 886 824 199
f 605 531 930
f 491 508 848
f 628 170 902
f 256 347 346
f 482 848 479
f 891 896 93
f 347 256 861
f 820 617 739
f 866 819 817
f 605 594 593
f 896 901 85
f 929 593 582
f 612 881 885
f 901 905 83
f 826 451 653
f 451 457 180
f 672 659 665
f 441 180 851
f 79 905 796
f 436 673 672
f 436 851 827
f 909 914 75
f 682 673 436
f 914 916 71
f 584 902 897
f 876 86 342
f 69 916 1
f 829 433 827
f 700 808 694
f 788 3 916
f 853 829 417
f 409 61 48
f 402 48 855
f 870 817 816
f 855 29 360
f 874 816 664
f 385 361 102
f 830 880 875
f 576 897 25
f 819 634 817
f 68 69 1
f 106 856 730
f 743 736 738
f 910 242 236
f 862 857 819
f 744 879 102
f 880 830 831
f 840 528 843
f 401 846 44
f 803 302 780
f 769 791 357
f 878 915 791
f 831 911 880
f 918 873 345
f 576 25 475
f 799 31 475
f 841 29 846
f 879 856 102
f 106 639 385
f 573 564 876
f 911 831 802
f 342 556 876
f 337 339 332
f 25 510 515
f 350 29 841
f 564 573 892
f 892 582 912
f 510 25 56
f 864 906 837
f 312 328 337
f 929 822 593
f 33 35 258
f 871 360 29
f 840 860 835
f 864 158 863
f 29 855 44
f 916 914 917
f 808 687 812
f 594 307 312
f 307 305 328
f 916 917 788
f 33 56 927
f 840 835 809
f 307 594 605
f 736 743 361
f 531 516 930
f 290 277 305
f 852 109 927
f 318 835 860
f 21 844 529
f 852 59 112
f 620 393 611
f 102 743 744
f 112 113 852
f 751 763 762
f 647 785 762
f 805 747 751
f 252 268 254
f 230 835 229
f 487 641 635
f 637 879 467
f 124 851 164
f 809 230 221
f 161 142 176
f 807 732 805
f 247 234 254
f 230 809 835
f 808 700 807
f 345 637 186
f 176 184 191
f 812 694 808
f 204 849 223
f 849 204 191
f 813 688 812
f 635 648 725
f 849 184 198
f 815 613 813
f 815 636 613
f 217 223 849
f 659 191 204
f 217 234 223
f 191 184 849
f 859 480 421
f 795 213 511
f 245 461 243
f 878 865 859
f 802 886 932
f 191 659 867
f 452 718 889
f 223 234 247
f 176 142 184
f 246 254 234
f 865 493 486
f 293 771 357
f 268 247 254
f 771 769 357
f 805 264 735
f 268 252 390
f 161 113 112
f 486 493 488
f 390 252 274
f 867 673 746
f 264 751 279
f 274 277 390
f 746 682 152
f 281 848 287
f 827 433 682
f 808 703 214
f 152 691 109
f 109 852 113
f 476 859 421
f 296 305 277
f 476 595 877
f 305 307 928
f 196 293 292
f 595 476 820
f 726 807 700
f 752 293 357
f 307 328 312
f 310 328 305
f 56 59 852
f 292 752 799
f 328 310 323
f 886 825 824
f 312 337 332
f 807 703 808
f 891 824 782
f 193 292 189
f 844 21 22
f 429 853 409
f 109 697 927
f 56 33 510
f 105 559 553
f 339 337 346
f 346 714 339
f 51 346 347
f 317 926 927
f 564 690 876
f 863 844 232
f 799 868 292
f 510 33 258
f 843 528 529
f 844 863 842
f 861 840 843
f 861 158 347
f 861 860 840
f 752 915 31
f 158 843 842
f 843 158 861
f 842 529 844
f 919 837 906
f 906 232 907
f 809 528 840
f 730 873 918
f 730 856 873
f 873 856 879
f 856 106 385
f 817 634 645
f 837 919 838
f 817 652 816
f 919 906 907
f 919 536 537
f 743 102 361
f 904 669 838
f 898 669 904
f 669 898 38
f 703 807 721
f 405 404 838
f 669 405 838
f 922 833 836
f 294 285 887
f 361 385 402
f 869 645 634
f 830 875 664
f 916 3 1
f 864 51 347
f 402 855 361
f 909 801 914
f 397 890 374
f 48 44 855
f 796 909 77
f 879 637 873
f 901 798 905
f 580 925 397
f 48 402 706
f 896 800 901
f 891 823 896
f 409 62 61
f 853 62 409
f 881 413 417
f 417 62 853
f 86 407 299
f 459 893 882
f 199 891 95
f 830 465 831
f 829 426 417
f 426 829 124
f 426 881 417
f 124 829 827
f 433 829 853
f 886 802 825
f 774 894 883
f 851 124 827
f 164 884 124
f 441 851 436
f 180 164 851
f 443 869 164
f 911 802 932
f 715 830 664
f 874 664 875
f 736 361 360
f 451 180 441
f 457 452 889
f 889 444 457
f 866 817 870
f 106 35 639
f 459 718 452
f 826 452 457
f 452 826 245
f 451 826 457
f 862 819 866
f 858 857 862
f 461 245 826
f 459 882 718
f 479 243 461
f 854 931 858
f 850 925 854
f 846 401 580
f 845 890 850
f 491 848 482
f 848 281 479
f 825 494 883
f 382 508 491
f 900 832 767
f 508 287 848
f 896 823 800
f 839 890 845
f 504 782 824
f 42 374 839
f 516 508 382
f 908 910 318
f 534 524 523
f 552 818 548
f 42 172 173
f 901 800 798
f 818 552 900
f 533 322 531
f 871 175 737
f 868 187 189
f 22 232 844
f 593 822 533
f 822 315 316
f 929 556 330
f 330 315 822
f 838 919 537
f 904 838 537
f 318 860 834
f 908 318 834
f 465 830 715
f 556 342 336
f 105 836 559
f 833 559 836
f 29 44 846
f 908 834 804
f 562 917 828
f 299 836 105
f 818 900 767
f 832 553 559
f 562 832 920
f 811 315 548
f 828 801 821
f 801 828 917
f 821 797 814
f 836 299 903
f 401 590 580
f 797 821 801
f 905 798 796
f 796 814 797
f 810 548 818
f 814 798 806
f 798 814 796
f 909 796 797
f 811 548 810
f 413 587 590
f 404 51 837
f 51 864 837
f 837 838 404
f 909 797 801
f 529 842 843
f 158 842 863
f 232 906 863
f 800 806 798
f 529 528 511
f 794 811 806
f 785 908 804
f 785 647 908
f 859 877 878
f 526 534 794
f 877 571 878
f 571 31 915
f 173 351 42
f 524 783 509
f 350 173 175
f 29 350 871
f 823 526 794
f 783 524 526
f 526 823 782
f 42 351 374
f 841 374 351
f 504 775 783
f 509 783 775
f 782 823 891
f 885 124 884
f 887 757 779
f 914 801 917
f 426 885 881
f 890 397 925
f 825 504 824
f 775 504 883
f 925 587 931
f 587 925 580
f 802 494 825
f 785 279 762
f 494 831 465
f 831 494 802
f 894 287 775
f 590 895 413
f 438 897 576
f 884 164 869
f 762 279 751
f 423 931 587
f 587 413 423
f 931 423 857
f 762 761 647
f 617 820 476
f 595 820 621
f 751 755 763
f 893 459 243
f 751 264 805
f 609 857 423
f 423 881 612
f 662 443 444
f 721 805 735
f 621 584 595
f 857 609 819
f 443 645 869
f 612 885 627
f 636 621 820
f 628 902 584
f 805 721 807
