# avbd fit, rung f1800-i32-s300 of Gate 6d (body space, fit phase only)
v -0.016364308 0.628726721 0.000125480
v -0.095715038 0.633224249 0.062014461
v -0.015984384 0.642866492 0.000769244
v 0.000954079 0.888554871 0.066773877
v -0.144725248 0.610448122 0.061461519
v 0.006855207 0.903221428 0.068308994
v -0.015123432 0.669925094 0.002042145
v -0.014865326 0.656482458 0.001254721
v -0.147808582 0.626295447 0.062152557
v 0.152517051 0.899630666 -0.108308092
v -0.166874990 0.620439351 0.052541535
v -0.184014723 0.620953858 0.036750101
v -0.192754269 0.621513307 0.020077279
v -0.153830096 0.625121951 -0.070803478
v 0.011281247 0.641224861 -0.010337757
v -0.135464996 0.623778224 -0.076576211
v 0.030035749 0.638733447 -0.014335893
v -0.118123986 0.626685500 -0.082678765
v -0.101327553 0.634992301 -0.084939733
v 0.189309210 0.583308339 0.002262955
v 0.000487727 0.859979749 0.061098296
v 0.000341557 0.846888721 0.055443823
v -0.082918786 0.634541631 -0.075639866
v -0.077084228 0.643231511 -0.082931131
v 0.088424534 0.815571189 -0.110625304
v -0.067538656 0.651363611 -0.074229844
v -0.136129484 0.864308357 -0.124863289
v -0.139886722 0.790444136 0.072626710
v 0.035089120 0.704425395 -0.070938922
v -0.156342790 0.800095260 0.066961259
v 0.064593881 0.833479226 -0.132853538
v -0.191975519 0.776113391 0.045630548
v 0.079337060 0.778029323 -0.105603591
v -0.190631717 0.618235946 -0.034135371
v 0.064252138 0.769524395 -0.100809798
v -0.160985857 0.868576884 -0.099575870
v -0.183081359 0.867425442 -0.060817312
v 0.014124073 0.756048381 0.014153680
v -0.185934737 0.871689200 -0.040916145
v -0.081119567 0.865128696 -0.147269219
v -0.029306695 0.850649238 0.056336809
v 0.011924833 0.679539025 -0.040951680
v -0.018363817 0.833984256 0.050414216
v 0.056826197 0.703927457 -0.085932881
v -0.040469930 0.838016987 0.047418647
v -0.184490636 0.877652645 -0.022276413
v -0.190777764 0.866677761 -0.005869277
v 0.063533381 0.721939921 -0.092077315
v -0.180770084 0.870409310 0.013290429
v -0.047874480 0.642935276 0.023320697
v 0.058339577 0.808911324 0.055599861
v -0.059097707 0.641881108 0.042510957
v -0.071668506 0.711759210 0.059274726
v 0.053095032 0.773331940 0.055698179
v -0.072051041 0.643383443 0.052851964
v 0.094774731 0.790072381 -0.110176764
v -0.096527219 0.706309915 0.068661481
v -0.169867784 0.706436813 0.061250873
v 0.110704184 0.801369488 -0.114786066
v -0.198671743 0.702379465 0.033544730
v 0.082524464 0.708151937 -0.095767356
v 0.074968338 0.698360026 -0.091260307
v -0.202376053 0.785378993 0.025980070
v -0.199051037 0.805366993 0.024474079
v -0.206745580 0.701005578 -0.034463979
v -0.190682381 0.697033226 -0.055352032
v -0.180547029 0.709036589 -0.071450330
v -0.007118650 0.615614295 -0.004906149
v 0.013124419 0.618341327 -0.003120924
v -0.160109743 0.699510694 -0.082438894
v 0.031099293 0.617186964 -0.002766910
v -0.098042026 0.715106964 -0.102968730
v 0.043491252 0.612778783 0.005348526
v -0.029699946 0.762946784 -0.072812982
v 0.052052576 0.607701838 0.018243281
v -0.100949742 0.866408050 -0.142485350
v 0.060583763 0.603080928 0.031617723
v -0.119246125 0.867137074 -0.136126965
v 0.069403663 0.598721266 0.045488350
v -0.124426052 0.853853822 -0.127942175
v 0.084601238 0.595876455 0.052331138
v -0.146341190 0.878722310 -0.118180014
v 0.099505000 0.593018174 0.058553349
v -0.179872826 0.839327931 -0.082748845
v 0.113951087 0.590215266 0.064812832
v 0.039483476 0.738435209 0.036485583
v -0.146686926 0.870432973 0.049423892
v -0.123406529 0.794820011 -0.115336083
v -0.151453763 0.653883457 0.063195638
v 0.129867256 0.588000655 0.066260844
v -0.143118173 0.800062358 -0.107110426
v -0.021350514 0.804304957 0.028340925
v 0.143870458 0.587079465 0.059360635
v -0.036580883 0.803509235 0.045153834
v 0.157837063 0.585815787 0.052438833
v -0.025559986 0.823157132 0.035998072
v 0.171885684 0.584447980 0.045560136
v -0.018177379 0.864641488 0.062147032
v 0.180120349 0.583857596 0.031632669
v -0.069410987 0.880680084 -0.149448067
v 0.186767444 0.583334208 0.017748345
v 0.024631431 0.763947666 -0.070113592
v -0.091419086 0.849868953 -0.141486973
v -0.102776207 0.670942187 0.068207666
v 0.035905145 0.721760154 0.025666663
v 0.047434144 0.772100091 -0.096551970
v -0.119180426 0.839997411 -0.124378264
v -0.133655161 0.652480900 0.071200937
v 0.118739508 0.758317649 -0.113381743
v -0.131074935 0.831319988 -0.111727454
v 0.129019022 0.808798432 -0.113033019
v 0.135921091 0.789425731 -0.109143101
v 0.135225356 0.768535972 -0.107408978
v -0.159321219 0.670395136 0.061995991
v -0.147294030 0.819648564 -0.105688594
v 0.189984336 0.583382726 -0.012867739
v 0.187359676 0.584276676 -0.027224343
v -0.191246778 0.658633590 0.034662824
v 0.146389902 0.806109309 -0.105379686
v -0.166374460 0.828709900 -0.097592853
v -0.191673487 0.827084541 -0.065321125
v -0.197782546 0.839156926 -0.050679781
v -0.057675291 0.827632070 -0.126353949
v 0.136955515 0.685709834 -0.088993095
v -0.176791981 0.828068137 0.047616214
v -0.193057567 0.823777020 0.025378045
v -0.122979462 0.821922898 0.072139069
v -0.136038929 0.836350262 0.064841762
v 0.180394545 0.586605668 -0.040007364
v -0.023040984 0.825134635 -0.113189243
v 0.173600078 0.588868737 -0.052474070
v -0.041269600 0.818959355 -0.115477122
v 0.163470954 0.590792120 -0.061767422
v -0.032956809 0.715306938 -0.068053804
v 0.172306448 0.598927259 -0.057724237
v -0.109718964 0.872677624 0.052793063
v 0.154836118 0.596993506 -0.065586202
v -0.089138336 0.868838310 0.054585285
v 0.139722750 0.594940066 -0.070023693
v -0.024967423 0.815042198 -0.098609962
v 0.123934761 0.593017280 -0.074630223
v 0.160372540 0.793948054 -0.098814420
v -0.028968524 0.805994630 -0.083955161
v 0.107629120 0.593104243 -0.075814262
v -0.045622583 0.811572373 -0.098864220
v -0.181387037 0.796197653 -0.086676903
v 0.093317308 0.595638812 -0.069561101
v -0.146705434 0.886729062 0.040147506
v 0.078440413 0.599841297 -0.063568264
v -0.033448212 0.737114787 -0.077978179
v 0.063949540 0.605307758 -0.058494270
v 0.134245127 0.749925435 -0.104700647
v 0.051181227 0.611995637 -0.048874892
v -0.097631313 0.760760605 -0.109320916
v 0.045564290 0.621404350 -0.036922980
v -0.064736240 0.690010130 -0.085311398
v 0.040639170 0.630929887 -0.024556994
v 0.052619059 0.842009723 0.048008386
v -0.183877766 0.764663815 -0.077660687
v -0.196692795 0.623813152 -0.014134174
v 0.153681159 0.774597526 -0.099660352
v -0.208617061 0.780961812 -0.032036889
v -0.210030749 0.745564759 -0.022317084
v 0.158184990 0.677819133 -0.077904820
v -0.205808967 0.733277142 -0.042715345
v -0.015451202 0.662631154 -0.026618162
v 0.016034331 0.653707922 -0.020724555
v -0.015081508 0.651568055 -0.018137679
v -0.014348814 0.672531009 -0.036002997
v 0.165808067 0.815877318 -0.097051002
v -0.194498256 0.738936067 -0.059101552
v -0.013988376 0.683980584 -0.042708952
v -0.014822163 0.695430875 -0.049572565
v -0.209887743 0.730658591 -0.002067189
v -0.014589007 0.708783269 -0.052781720
v 0.171596527 0.779640555 -0.091985554
v -0.166920513 0.737200379 -0.087032743
v -0.082555331 0.620122492 -0.071939223
v -0.204877451 0.740192056 0.025562007
v 0.176882192 0.691048026 -0.071444720
v -0.199001700 0.721665502 0.035433579
v -0.081154414 0.752199292 -0.103577957
v -0.082342342 0.737279892 -0.102584243
v 0.181831047 0.797071218 -0.085485615
v -0.044624072 0.792867303 -0.096534766
v -0.005365659 0.814357281 -0.083788045
v -0.004373972 0.820786655 -0.097229138
v -0.102181688 0.856456459 0.064580813
v -0.004283951 0.830268741 -0.108423546
v -0.123509206 0.849539161 0.063042648
v 0.185327515 0.773456037 -0.076541565
v -0.110275663 0.837693095 0.070022717
v -0.004333795 0.840971112 -0.117592357
v -0.126754045 0.864502251 0.056362875
v -0.154740170 0.732981384 0.069390804
v -0.004147159 0.851326466 -0.126683667
v -0.115070619 0.887374878 0.045645259
v 0.188224703 0.818079293 -0.073632568
v 0.168074310 0.601199985 0.049770359
v -0.004318665 0.864327729 -0.130303741
v -0.130046517 0.880062282 0.046938337
v -0.004343441 0.877451301 -0.133149698
v -0.158336163 0.840894878 0.058455069
v 0.196744531 0.765700221 -0.058089953
v -0.162490338 0.858798325 0.046796564
v -0.210930556 0.775749326 0.005463453
v -0.004449357 0.890951753 -0.133410528
v -0.157266542 0.888313174 0.025735965
v -0.164799020 0.873448074 0.032046702
v -0.171530470 0.885825157 0.012260187
v -0.134220019 0.728270173 0.076286718
v 0.034333210 0.901339054 0.066825047
v 0.019244319 0.901326001 0.067510888
v 0.197685003 0.832385421 -0.052000590
v 0.000788571 0.874056697 0.065021589
v -0.182885975 0.883809268 -0.004837267
v 0.202530414 0.807529926 -0.049667429
v -0.179163411 0.886481881 -0.037145749
v -0.179249078 0.884311676 -0.053874128
v -0.068494752 0.670097888 -0.080800697
v 0.049772941 0.901363194 0.065207921
v 0.203040481 0.820619226 -0.030087719
v 0.208034918 0.780276358 -0.039554752
v -0.171820566 0.881594002 -0.070098713
v -0.157865316 0.886124969 -0.104547605
v -0.129329607 0.881647468 -0.131780788
v -0.148313448 0.839091957 -0.103738502
v -0.090852559 0.665800154 -0.088392422
v 0.080656484 0.900739014 0.060927391
v 0.065237924 0.901285827 0.063091673
v -0.100989781 0.835432351 -0.132971376
v 0.000080830 0.833785892 0.049766220
v -0.109441422 0.851558387 -0.136559367
v 0.207695216 0.799044490 -0.024812575
v -0.104026303 0.654887557 -0.091521993
v 0.095234647 0.900010705 0.055570565
v -0.033009458 0.713904858 0.018074868
v -0.041449834 0.630469203 0.008492002
v 0.202234477 0.830165744 -0.011897214
v -0.202485889 0.821008205 -0.039931066
v -0.042629909 0.669825196 0.023367165
v 0.108828522 0.898857713 0.049858637
v 0.206207395 0.690961957 -0.003634833
v -0.055518895 0.627051115 0.031948138
v 0.206415102 0.691163182 -0.023281094
v 0.206238315 0.812534928 -0.006652443
v 0.210110590 0.777701914 -0.012359581
v -0.051162176 0.678183317 0.039795168
v -0.081015624 0.632594526 0.055517107
v -0.071308054 0.622863293 0.050287325
v -0.084583975 0.666077375 0.060462177
v 0.203236610 0.802593052 0.019710770
v -0.084310107 0.651230574 0.059120845
v 0.209895104 0.794443846 -0.002283141
v -0.049438953 0.820530057 0.049775470
v 0.094957165 0.834399045 0.073077023
v -0.100932911 0.653355002 0.066053994
v 0.061112184 0.785234571 -0.100956582
v -0.101938233 0.614156783 0.062299896
v -0.188980311 0.663806796 -0.051008154
v -0.117575765 0.660681665 0.073370151
v -0.123813294 0.623886526 0.072034560
v 0.056277622 0.800938785 -0.099165939
v 0.177380592 0.852533937 0.032665629
v -0.116656899 0.642326832 0.071528800
v -0.192447603 0.648690939 -0.040843073
v -0.126376614 0.606219053 0.069593564
v 0.210055381 0.780059278 0.013224997
v 0.204280421 0.764257550 0.025292277
v -0.142862231 0.853414237 0.057052206
v -0.139163345 0.639062643 0.067362383
v -0.160539672 0.602717698 0.053017162
v 0.191201299 0.818973660 0.030334845
v 0.189878330 0.799282134 0.042978417
v -0.172599539 0.655365467 0.054432563
v -0.161040276 0.638905466 0.057337932
v 0.186259463 0.779437780 0.056154512
v -0.178184494 0.603923738 0.042617861
v 0.160392597 0.859092057 0.049435385
v -0.181759089 0.638172746 0.046886999
v 0.203859374 0.685647249 0.018435916
v -0.047930572 0.901772201 0.065345593
v -0.192033708 0.638090849 0.027062181
v -0.021879222 0.883168519 0.065428384
v 0.179308668 0.815436542 0.050816216
v -0.173449636 0.845683753 0.042938273
v 0.193218425 0.680318475 0.038485128
v -0.176771179 0.857804000 0.028941089
v -0.197758213 0.632080734 0.006315221
v 0.176137328 0.760737419 0.063652657
v -0.186579958 0.841257274 0.027809009
v 0.018120196 0.836924851 -0.120676517
v 0.019156756 0.852388501 -0.132557809
v 0.161322683 0.812539935 0.063954271
v -0.029094335 0.888154805 -0.142446727
v 0.172040969 0.796535671 0.063751228
v -0.200428337 0.650957108 0.011338194
v -0.022854375 0.870736241 -0.139025852
v 0.024507308 0.739697218 0.017471397
v -0.031809814 0.668857932 -0.038637020
v -0.043759845 0.872800469 -0.145788774
v 0.142871559 0.821943760 0.067425184
v -0.050627649 0.889130950 -0.146630198
v -0.191413477 0.854762673 0.012217808
v 0.157918528 0.776529729 0.069531851
v -0.200229838 0.836845696 0.009786505
v 0.137820974 0.761141121 0.075409532
v -0.199034542 0.842357814 -0.030133065
v -0.202525705 0.828917384 -0.013863577
v 0.146333158 0.800442994 0.070168793
v -0.198766887 0.848985195 -0.009011213
v 0.115838945 0.770391464 0.080906674
v -0.193640605 0.604330420 -0.020141130
v -0.199422359 0.642223060 -0.008909615
v 0.094576135 0.686866641 0.066756375
v 0.115718469 0.683191657 0.075033069
v 0.088122755 0.742448032 -0.104256950
v 0.092025340 0.879855514 0.055230133
v -0.032321405 0.671359003 0.006959020
v 0.120769285 0.898383021 0.043038808
v -0.192812815 0.855944812 -0.045818079
v 0.127943501 0.699418664 0.077776864
v 0.118470594 0.812627196 0.075756907
v -0.200737566 0.650546789 -0.023774238
v -0.187247619 0.848983884 -0.065815583
v 0.131126359 0.896888614 0.035782382
v -0.163978785 0.849458516 -0.096073814
v 0.131381661 0.785267234 0.075857900
v -0.061691791 0.784547508 -0.101430580
v 0.083570585 0.706281245 0.064011842
v -0.183835939 0.602289498 -0.040146887
v 0.094554737 0.773139358 0.072714165
v -0.196733266 0.634836376 -0.029484009
v -0.180894732 0.646084011 -0.058094759
v -0.173745006 0.600193620 -0.056001693
v 0.061356761 0.704998195 0.054881174
v 0.105208442 0.791325390 0.077891037
v -0.064360261 0.753006935 -0.098683722
v 0.085087426 0.788079500 0.069459192
v -0.179284126 0.615412891 -0.051535517
v -0.173506305 0.661373138 -0.069362506
v 0.047705270 0.720545948 0.046241801
v -0.075136654 0.769169509 -0.104136899
v -0.160737589 0.608731270 -0.065995418
v 0.016227404 0.813820481 -0.089618042
v 0.085742369 0.809825420 0.069333963
v 0.069261983 0.827866197 0.060588878
v -0.164405286 0.643238366 -0.070721135
v 0.142825305 0.897454619 0.030455315
v 0.018602096 0.702214718 -0.053572863
v 0.020373002 0.688376606 -0.049715351
v -0.140913650 0.608275533 -0.072381951
v 0.152107507 0.896425247 0.021863991
v -0.119738854 0.756817818 -0.113194622
v 0.160411432 0.896771908 0.012523520
v -0.135236248 0.653708577 -0.084199965
v 0.041102067 0.857325852 -0.140935928
v -0.146523684 0.640518785 -0.076824442
v 0.168460533 0.897934079 0.002656785
v 0.031541713 0.723977506 -0.067504622
v 0.032180004 0.742161036 -0.073714957
v -0.130251303 0.740825772 -0.105511233
v 0.173299789 0.898099244 -0.009980734
v -0.138467833 0.758487105 -0.104469642
v -0.111055985 0.882696450 -0.139551252
v -0.042026088 0.869170308 0.061925374
v 0.173088133 0.897002578 -0.023335796
v -0.121554710 0.609210372 -0.078603595
v -0.151430100 0.747822702 -0.096465781
v -0.130794451 0.637890399 -0.081381813
v -0.149556726 0.857594371 -0.110201202
v 0.172054201 0.896476388 -0.036119144
v -0.169569403 0.756305873 -0.089287281
v 0.034012064 0.673954129 -0.049288992
v -0.102526389 0.615788698 -0.080168232
v -0.183778897 0.747050285 -0.075411260
v 0.172920451 0.897987962 -0.050553121
v -0.134962887 0.847612977 -0.115681328
v 0.173199534 0.898971081 -0.065620854
v -0.195567220 0.761921525 -0.060207408
v -0.118245281 0.645065129 -0.087542430
v 0.180767864 0.717340231 0.059015732
v 0.167899460 0.899137974 -0.080145583
v -0.205314711 0.749135017 -0.046611872
v 0.035798434 0.757341802 -0.088229954
v -0.092847511 0.625893533 -0.078560695
v -0.033935465 0.653605282 -0.029223984
v 0.162262529 0.899514496 -0.094997510
v -0.208998561 0.764987826 -0.038698494
v 0.198003143 0.781061113 0.034485146
v -0.030060241 0.698943555 0.010654913
v 0.141413823 0.899367332 -0.120365366
v 0.194467217 0.757717669 0.045870915
v -0.062355947 0.768741250 0.058930524
v -0.090445735 0.648647845 -0.083467439
v -0.070217058 0.630896032 -0.069214419
v 0.045470804 0.666215301 -0.069929861
v -0.079048455 0.659480155 -0.081607625
v -0.052852321 0.647024751 -0.066801153
v -0.049097884 0.630587101 -0.059020896
v 0.069140986 0.687331438 -0.085990973
v 0.048714105 0.738738477 -0.091194294
v -0.192129523 0.734632552 0.051012684
v 0.042808250 0.791501760 0.051102955
v 0.035686322 0.774063468 0.038381632
v -0.193633676 0.755596340 0.048050087
v 0.032985296 0.756521344 0.027086025
v -0.033056423 0.782267094 -0.081116013
v 0.080949269 0.723177135 -0.098247133
v -0.175182432 0.767933190 0.063512459
v -0.054722406 0.676874220 -0.077258691
v -0.057032466 0.662075698 -0.073473439
v 0.075016603 0.675021589 -0.084705099
v -0.170723349 0.747276425 0.064751305
v -0.040010504 0.653935313 -0.050805736
v 0.129460678 0.899261773 -0.130748183
v 0.096588209 0.688315153 -0.096713610
v -0.042279076 0.666162610 -0.068387076
v -0.150845632 0.762357593 0.070954874
v -0.041814126 0.691493273 -0.076323353
v 0.114487693 0.899332643 -0.137127027
v -0.034949936 0.677835584 -0.054495655
v 0.080019817 0.648457646 -0.078150623
v -0.194969341 0.614581764 0.002385053
v -0.187801689 0.604295373 0.023174746
v 0.115617797 0.681066096 -0.097552694
v -0.140747175 0.745778441 0.074450910
v -0.124266945 0.758512318 0.079449676
v 0.102118693 0.727401674 -0.106421411
v -0.072441287 0.820597827 0.061840098
v -0.063455462 0.902028739 0.063193455
v -0.110595301 0.738940597 0.076574899
v 0.122413054 0.717263043 -0.104154609
v -0.099249780 0.756918848 0.073270231
v -0.082836509 0.804655671 0.068337575
v 0.158789307 0.719430983 -0.086792789
v -0.084519178 0.742215455 0.066397294
v 0.109293818 0.837682605 -0.130795628
v -0.071142957 0.786812484 0.063206151
v -0.095430985 0.789135098 0.073195472
v 0.176298454 0.710433364 -0.076048613
v -0.086231664 0.772888064 0.068763725
v 0.167755634 0.661515236 -0.071357459
v 0.179533184 0.672529697 -0.064614013
v -0.078557409 0.758021057 0.065092340
v -0.061451457 0.749090552 0.057663877
v -0.108453095 0.773617268 0.077835910
v -0.031326566 0.768311918 0.026349077
v -0.119651891 0.790303349 0.077931680
v -0.107570685 0.806041062 0.078462817
v 0.189309925 0.705520570 -0.058233242
v 0.200484306 0.677852631 -0.036953960
v -0.059100699 0.803147316 0.056656189
v -0.133530065 0.775363266 0.076066718
v -0.042833302 0.698137641 0.031594180
v -0.133329988 0.805760980 0.072435901
v 0.189884275 0.685315788 -0.053468190
v -0.151977196 0.820344329 0.064692713
v 0.204011798 0.674460530 -0.016521201
v -0.176716059 0.788909793 0.063176498
v 0.208394691 0.712895751 -0.018784843
v -0.156572565 0.780559421 0.069431707
v -0.063596129 0.837183475 0.054832835
v -0.175771967 0.809352875 0.058961444
v 0.199109748 0.639867306 -0.014361824
v -0.067092627 0.868322074 0.058700632
v -0.008049240 0.787358165 -0.068310060
v -0.062329333 0.884796619 0.061619502
v -0.186851993 0.812515378 0.040157285
v -0.203564838 0.763836801 0.026241412
v -0.043523096 0.887791157 0.064345136
v -0.006388002 0.802348793 -0.074286424
v -0.093574524 0.901672721 0.056067932
v -0.211150840 0.753342927 0.003161450
v 0.070288301 0.822165489 -0.121175684
v 0.118488409 0.873168826 -0.136510089
v -0.206266314 0.817770004 0.005992133
v -0.078882225 0.901852608 0.061002772
v 0.207941219 0.708729744 0.007658186
v 0.098940670 0.899752259 -0.143732473
v -0.192224175 0.860393226 -0.025484364
v 0.204376072 0.723019302 0.024675759
v -0.210318804 0.767341614 -0.015834020
v -0.209513307 0.788771391 -0.014397820
v -0.206408352 0.809104741 -0.016250400
v 0.082010612 0.900398850 -0.147615641
v 0.210928485 0.758821189 0.004580108
v 0.064676225 0.901440322 -0.147920534
v -0.085382417 0.838001132 0.067795604
v -0.018664407 0.853221714 -0.132877812
v 0.195045739 0.714401066 0.042811520
v 0.047636092 0.902612209 -0.145628467
v 0.057102460 0.888572335 -0.147372738
v 0.197545215 0.632007360 0.010982087
v -0.081811413 0.884406209 0.059537668
v -0.022259664 0.838516891 -0.124438360
v -0.201722145 0.782510459 -0.052682322
v -0.174468964 0.862565219 -0.080986246
v -0.095407583 0.821661472 0.073134176
v 0.030299794 0.903723061 -0.141947344
v -0.189659253 0.781868458 -0.071556255
v 0.013449416 0.904387951 -0.136137992
v -0.159325287 0.787844479 -0.099379696
v 0.180833638 0.638570189 0.048377074
v -0.174528435 0.775987327 -0.090519994
v 0.012955187 0.893536210 -0.136028439
v -0.004585277 0.904566646 -0.133391738
v 0.188477844 0.696472049 0.053015210
v 0.176422819 0.676149309 0.056178212
v 0.075259715 0.798011422 -0.104864851
v 0.019352939 0.878455341 0.065013640
v -0.164354175 0.808027864 -0.098031536
v -0.155090481 0.767889738 -0.098266982
v -0.166462705 0.882429302 -0.087633833
v 0.061253048 0.813751817 -0.108024716
v 0.164440840 0.696946740 0.063423432
v -0.136619940 0.778317571 -0.108467624
v -0.046493538 0.621132970 -0.041235860
v -0.104002930 0.791936636 -0.113194183
v -0.053125013 0.613929868 -0.055429675
v -0.068177216 0.610894322 -0.062408727
v -0.112629518 0.776122153 -0.114881232
v 0.141379386 0.686862290 0.072016299
v 0.154212505 0.671085179 0.064639427
v -0.082328014 0.608169198 -0.068207979
v 0.144819722 0.649392426 0.066148229
v -0.110360935 0.828671932 -0.115306713
v 0.041054614 0.872850120 0.063295528
v 0.026263747 0.861581922 0.060677283
v -0.096295789 0.606383920 -0.074452154
v 0.145257175 0.709501386 0.071428418
v -0.104277112 0.810095429 -0.112803660
v 0.127073839 0.715833724 0.078788161
v 0.130927920 0.665909648 0.074057966
v -0.089114085 0.599459589 -0.068953484
v -0.000783392 0.814566433 0.027926004
v -0.000552404 0.801081836 0.022785818
v -0.087358713 0.798407376 -0.108683206
v -0.101909935 0.596835375 -0.074521407
v -0.078028940 0.834749877 -0.134530291
v -0.092645124 0.779673696 -0.109638527
v -0.115417734 0.593986154 -0.077772692
v -0.129163370 0.592255592 -0.073239073
v -0.142813116 0.590532899 -0.068718068
v -0.044054285 0.782373488 0.052006852
v -0.027700469 0.787164867 0.029240940
v 0.075457044 0.691619039 0.059402335
v 0.077906832 0.674024463 0.058813892
v -0.156366348 0.588903785 -0.064243525
v -0.169872567 0.587621689 -0.058317505
v -0.033098012 0.731123745 0.022681525
v 0.058611818 0.686468780 0.052040190
v 0.044321038 0.702055871 0.035720348
v -0.177232414 0.586909950 -0.046028666
v -0.073675469 0.822970688 -0.122494139
v 0.069030359 0.721984982 0.059407759
v -0.184224337 0.586097479 -0.033844866
v -0.046787053 0.716684222 0.042963073
v 0.030725848 0.705921292 0.014622400
v -0.037253290 0.684320331 0.018641278
v -0.092495017 0.823138118 -0.122577593
v 0.027591795 0.669110894 0.006392801
v -0.057329409 0.696379304 0.052077055
v 0.063851655 0.755854905 0.059463639
v -0.039980054 0.657516539 0.014970677
v -0.051425826 0.657879472 0.033869259
v -0.056471627 0.841288090 -0.138920829
v -0.073218502 0.849622548 -0.143953085
v -0.065173373 0.730236888 0.057990570
v -0.059263010 0.860641301 -0.145741686
v 0.086554863 0.842623413 -0.140431821
v -0.190522224 0.585121989 -0.020857418
v 0.076641396 0.739338040 0.063540578
v -0.065141112 0.660258174 0.051791459
v -0.090186961 0.724377334 0.067528881
v 0.090347633 0.825593948 -0.128838822
v -0.069298819 0.679227412 0.055384528
v -0.080050983 0.694851756 0.061129838
v -0.076961800 0.853169739 0.058488719
v 0.065762237 0.666282892 -0.078138493
v -0.053115796 0.854011178 0.053046990
v 0.097125813 0.741546631 0.071928561
v -0.087836012 0.680199087 0.062933974
v 0.127796695 0.838974297 -0.115288734
v -0.190083891 0.585063636 -0.007578153
v -0.032328546 0.749428809 0.024171736
v 0.091190740 0.656254828 -0.085423008
v -0.185642481 0.586105466 0.020735255
v -0.121563710 0.697610974 0.077803575
v 0.087112717 0.674517751 -0.089451537
v -0.179402441 0.586778104 0.033971094
v -0.102459788 0.688607931 0.069582999
v 0.111723103 0.728458703 0.076936349
v 0.118395224 0.747983515 0.080707356
v 0.123865165 0.853924751 -0.128522307
v -0.170149788 0.587767482 0.046453960
v -0.112814926 0.718184471 0.075980067
v -0.156601876 0.589409292 0.053041946
v -0.120347597 0.678310990 0.075902648
v -0.142824024 0.590892911 0.059967987
v -0.128822774 0.592191339 0.066982307
v -0.134381220 0.712187350 0.075449482
v -0.142952397 0.683658302 0.070608117
v -0.112990379 0.595268667 0.064516008
v 0.138569385 0.734288514 0.075713240
v -0.148546517 0.700364590 0.069367863
v -0.098331615 0.598867893 0.058386080
v -0.083619200 0.602213204 0.052464597
v 0.106277540 0.640562892 -0.088150688
v -0.152825519 0.717125535 0.068464652
v 0.179254517 0.739940345 0.061855812
v 0.104380168 0.654430509 -0.091072671
v 0.158314064 0.882279515 -0.104166225
v -0.090716682 0.613897026 0.057353567
v -0.138557896 0.667225718 0.070406698
v -0.080236405 0.613287330 0.052685499
v 0.131917447 0.885300159 -0.129590139
v -0.064557955 0.613015652 0.043111168
v -0.056562383 0.612283826 0.027905155
v 0.195488811 0.733921528 0.044161618
v 0.140944242 0.852335572 -0.113727547
v -0.047936112 0.613403440 0.013170088
v -0.038125630 0.615529597 0.000502117
v -0.172873795 0.725636601 0.062125217
v -0.034102432 0.629819572 -0.001927450
v -0.165588289 0.688033223 0.061769433
v 0.123888671 0.649723411 -0.086552992
v 0.150709122 0.835850358 -0.102631174
v 0.205715373 0.744320154 0.024642177
v -0.190180689 0.713711023 0.052432984
v -0.181684360 0.673662066 0.053121150
v -0.187397823 0.693378985 0.053011335
v -0.041805878 0.755083203 -0.092506416
v 0.142023280 0.645673454 -0.079285823
v 0.210273221 0.756585240 -0.018436508
v 0.152010784 0.866530716 -0.113270476
v 0.011284154 0.802458465 -0.075770810
v -0.051133044 0.771405697 -0.097723253
v 0.056582153 0.755150795 -0.096410647
v -0.044056702 0.738352418 0.043824054
v 0.210000634 0.733831942 -0.000995074
v -0.195794061 0.681406856 0.033248089
v -0.207814023 0.715705574 0.016141731
v -0.190379292 0.795779526 0.043937255
v 0.161626205 0.645976365 -0.071797922
v -0.203417152 0.671671033 0.012263088
v 0.127717286 0.879409969 0.048058741
v 0.209275812 0.735982895 -0.028375965
v -0.206553936 0.693294883 0.011924358
v -0.208012179 0.707051933 -0.008156267
v -0.208688304 0.721647561 -0.025688017
v 0.173756495 0.632522464 -0.064027481
v 0.201877564 0.720233977 -0.044543970
v -0.202269241 0.661997676 -0.008268454
v -0.210425332 0.797639489 0.005442063
v 0.156737611 0.851416767 -0.098243549
v -0.032390270 0.901402295 0.066798218
v 0.199133292 0.741776645 -0.052709900
v 0.185091138 0.748966813 -0.073200986
v -0.080912262 0.815640330 -0.110372961
v -0.060398649 0.815225124 -0.112990417
v 0.179589316 0.651660621 -0.060407352
v -0.205365971 0.683829784 -0.013923423
v 0.181414664 0.621819377 -0.049458649
v 0.188947394 0.725997031 -0.063200124
v -0.021357622 0.904208362 -0.139149815
v -0.038110103 0.903220534 -0.144612759
v 0.174845681 0.836293578 -0.091730788
v 0.020879772 0.773440301 0.020325115
v -0.054993220 0.901952386 -0.146910757
v -0.042302165 0.759030163 0.046082761
v 0.176492646 0.728831768 -0.079852633
v 0.163898155 0.740775526 -0.088745125
v -0.071918212 0.900851071 -0.148587018
v 0.173453808 0.855908275 -0.086415239
v -0.201897651 0.665822625 -0.031377155
v -0.088478804 0.899934471 -0.147498265
v -0.092457891 0.882065296 -0.146320134
v -0.206727862 0.799506068 -0.037752818
v -0.104254402 0.899369538 -0.141680688
v -0.119355857 0.899022281 -0.135336250
v 0.142464608 0.731457889 -0.097504027
v -0.196007833 0.717314661 -0.052393295
v -0.195608377 0.803966641 -0.063383371
v -0.182543993 0.817184329 -0.083601154
v -0.198228896 0.682044029 -0.042499781
v 0.185504824 0.843962073 -0.070426814
v 0.169561684 0.884414494 -0.074275240
v -0.185498789 0.631891727 -0.046355255
v 0.043072708 0.755476952 0.047327876
v 0.122555077 0.736786246 -0.108225182
v -0.065776132 0.802212119 -0.102164760
v -0.182580471 0.727763116 -0.072877422
v 0.178629458 0.880360723 -0.059229594
v -0.076646566 0.786815882 -0.105614878
v -0.173322260 0.627704024 -0.063879408
v 0.105316982 0.746152341 -0.109643564
v -0.182946309 0.678334236 -0.061785955
v -0.160337478 0.678625762 -0.077603675
v 0.182777956 0.878405273 -0.041121662
v -0.176539332 0.691902220 -0.072455630
v -0.163488418 0.718434691 -0.084765777
v 0.198798686 0.843401551 -0.029055312
v -0.153644755 0.658774495 -0.077629142
v -0.032727197 0.696702600 -0.055881679
v 0.068951376 0.739717424 -0.098255873
v -0.133712888 0.898996234 -0.128233835
v -0.144231424 0.899275184 -0.117425159
v -0.146300226 0.729034603 -0.095518634
v -0.142706752 0.710119843 -0.093300082
v -0.140963465 0.690954328 -0.088987395
v -0.138952240 0.671988368 -0.085903808
v -0.127314776 0.813873887 -0.114106819
v 0.065228000 0.790831029 0.061394595
v 0.189667180 0.641369343 -0.042227950
v -0.163366288 0.899625599 -0.092029124
v -0.168913230 0.899555027 -0.077698521
v 0.200448155 0.657710135 -0.030343954
v -0.013680549 0.639726698 -0.011177177
v -0.173240632 0.899654031 -0.063214935
v 0.199479714 0.847091854 -0.003433655
v -0.172843605 0.898639202 -0.048821200
v -0.172130629 0.897455812 -0.034932997
v -0.172532126 0.898152828 -0.022581924
v 0.208732292 0.756192267 -0.041187048
v 0.181723222 0.882836163 -0.026044678
v -0.172484785 0.899685562 -0.009624469
v -0.166865349 0.899504542 0.002353787
v -0.159209594 0.898257136 0.011960410
v 0.042757075 0.790742874 -0.095618621
v -0.150697738 0.898673415 0.020840053
v 0.184023380 0.880231857 -0.009070324
v -0.140674263 0.898985088 0.029015472
v -0.120458052 0.663989365 -0.091953591
v 0.191750243 0.841234863 0.020741707
v 0.014553103 0.733398318 -0.059811234
v -0.012973932 0.722345948 -0.057492293
v -0.013081546 0.737065673 -0.058992993
v 0.146159694 0.883525074 -0.117784105
v -0.121406987 0.682890415 -0.095709197
v -0.011947697 0.752519488 -0.062458135
v -0.124072060 0.721466601 -0.104863860
v 0.012127983 0.750858724 -0.062773533
v -0.011850597 0.768796980 -0.065081224
v -0.130138934 0.900269032 0.036679849
v 0.150884554 0.754597068 -0.097370274
v 0.177595466 0.881609321 0.008581899
v -0.101553582 0.674843550 -0.095866181
v -0.119461879 0.900721669 0.043558173
v -0.107313797 0.901040912 0.050309829
v 0.169193238 0.870373845 0.029058322
v 0.040484171 0.840047359 -0.132954553
v -0.121945761 0.702012241 -0.100602627
v -0.101852775 0.737582862 -0.108257473
v 0.165406197 0.886284828 0.019342359
v -0.100070558 0.694002986 -0.099502251
v 0.180295289 0.833275974 0.040335253
v -0.078670129 0.686203182 -0.088785864
v -0.008526714 0.755068958 0.011397973
v -0.098873980 0.885603428 0.052506220
v 0.141962618 0.887570083 0.041596152
v 0.149513692 0.874116719 0.047849439
v 0.155369699 0.885273159 0.032701563
v -0.080061324 0.672861159 -0.095941246
v -0.072656713 0.707241178 -0.092515901
v -0.085343257 0.698718190 -0.095335416
v 0.042900391 0.672279954 0.025110876
v -0.072550431 0.727792859 -0.096896991
v 0.045876756 0.873719692 -0.146103889
v -0.083688997 0.718320251 -0.098563462
v 0.021524746 0.868745208 -0.137663543
v -0.040146124 0.833603501 -0.127673224
v -0.038244069 0.852691174 -0.139443651
v 0.200344771 0.651048601 0.008147168
v 0.187091634 0.659421861 0.043884151
v -0.055144835 0.712332129 -0.087390043
v -0.057556577 0.734684348 -0.093464680
v -0.155070230 0.899703026 -0.105726041
v 0.168657690 0.844364047 0.050426632
v 0.148292810 0.842180371 0.060764004
v -0.192220092 0.598873973 0.000867984
v 0.158907145 0.633023679 0.058164556
v 0.167014137 0.654339194 0.057104446
v -0.189618006 0.585566521 0.006492282
v 0.134363204 0.859091103 0.057213444
v -0.041867070 0.639131725 -0.038949933
v -0.041563459 0.629518569 -0.027642438
v 0.013190093 0.654256821 0.001210962
v -0.032421816 0.636707902 -0.015733443
v -0.004741818 0.903000057 0.068404712
v 0.062008869 0.863896012 -0.146745875
v -0.017192906 0.901076019 0.067520835
v -0.035743732 0.646377027 0.005658588
v 0.119728744 0.645700097 0.073641196
v 0.035976589 0.888054848 0.065387949
v 0.069746315 0.617036462 0.049014062
v 0.059917845 0.631674409 0.041619852
v 0.092208080 0.623666644 0.059835989
v 0.042891067 0.823662639 -0.119644210
v 0.113259479 0.625580907 0.069364123
v 0.049405519 0.638804674 0.025288727
v 0.193415135 0.613314867 0.016063182
v 0.125217244 0.835561156 0.067843765
v 0.113001987 0.851396739 0.065076962
v 0.188015983 0.863272011 0.010102427
v 0.097364031 0.642257333 0.064211421
v 0.190934882 0.863501549 -0.021418819
v 0.191329539 0.858653426 -0.048964620
v 0.054247696 0.885827720 0.062799349
v 0.078037106 0.655020118 0.057236023
v 0.102053389 0.664218307 0.067903250
v 0.178527102 0.865495086 -0.070488431
v 0.167440802 0.875019550 -0.087127268
v 0.076205008 0.636309147 0.054239742
v 0.160597473 0.866148651 -0.097402945
v 0.156777516 0.612964809 -0.067433178
v 0.151650608 0.630721033 -0.071943484
v 0.056251150 0.666798472 0.045589115
v 0.126273721 0.629385114 -0.080206856
v 0.136708751 0.868530571 -0.125747651
v 0.058370970 0.647909462 0.043714087
v 0.105853364 0.705850959 0.072870098
v 0.137596399 0.628020346 0.067316398
v 0.173185796 0.618789494 0.049870644
v 0.187354520 0.625030041 0.032074764
v 0.201288030 0.699343204 -0.041178714
v 0.140012652 0.708148301 -0.093616582
v 0.045858473 0.656208754 0.024681982
v 0.119907334 0.698047340 -0.100143552
v 0.194659203 0.624348283 -0.028699461
v 0.195896998 0.619946063 -0.005674699
v 0.035780679 0.687659621 0.017567221
v 0.010559143 0.708333492 0.005014490
v 0.094015822 0.858734965 0.063179366
v 0.072357699 0.884225667 0.060855024
v 0.017147813 0.724200666 0.010096492
v 0.034802396 0.808950067 0.043382861
v 0.026624015 0.793179512 0.027932599
v 0.022318540 0.666010976 -0.032927174
v 0.060863875 0.869344592 0.060137242
v 0.035455879 0.686856687 -0.062199444
v 0.035202108 0.848857224 0.054334093
v 0.049176358 0.857864857 0.055608131
v 0.016993543 0.847583294 0.056199569
v 0.037693597 0.648728967 -0.031479232
v 0.050641973 0.685278535 -0.077865809
v 0.073969483 0.772871494 0.064247407
v 0.199992657 0.700922191 0.030810077
v 0.194926828 0.790444493 -0.063951135
v 0.045404948 0.633605063 -0.051422723
v 0.157618910 0.698301315 -0.082878783
v 0.114781834 0.779317677 -0.115048245
v 0.098207377 0.707882404 -0.101134136
v 0.066905417 0.622331798 -0.064996496
v 0.043048445 0.721366227 -0.085031450
v 0.033446785 0.777618647 -0.082741417
v 0.099900886 0.628046274 -0.081964381
v 0.089162484 0.614104331 -0.072840676
v 0.099194415 0.878239274 -0.143648818
v 0.078548484 0.867991447 0.057466321
v 0.072863974 0.849273682 0.057607897
v 0.113422535 0.610031307 -0.080917053
v 0.029430911 0.835643768 0.049494077
v 0.046159308 0.824326217 0.046966184
v 0.076711945 0.880122840 -0.148503095
v 0.140204757 0.612113833 -0.072776638
v 0.170018241 0.760877609 -0.089327827
v 0.018512059 0.821562469 -0.107673265
v 0.153258517 0.659067273 -0.077354245
v 0.169652537 0.617893815 -0.063962616
v 0.016109873 0.717273474 -0.057652730
v 0.163951308 0.602544129 -0.063497826
v 0.030256744 0.797970891 -0.082738131
v 0.179067820 0.605183542 -0.048475116
v 0.187861532 0.611278176 -0.035807766
v 0.055436600 0.738246322 0.054959487
v 0.104035139 0.857596517 -0.139429346
v 0.083049767 0.861514270 -0.145971626
v 0.017433738 0.783317447 -0.070553951
v 0.193905026 0.606226683 -0.018089324
v 0.097800210 0.668849289 -0.091901682
v 0.201700568 0.658411443 -0.009812362
v 0.192375585 0.644877076 0.028647074
v 0.138584942 0.665139556 -0.084659010
v 0.120479330 0.666591287 -0.092302822
v 0.182131052 0.604260564 0.034694903
v 0.164897069 0.829081237 0.060123373
v 0.202725530 0.826131821 0.010950227
v 0.190600544 0.663863480 -0.048162557
v 0.040150594 0.654416680 -0.051748414
v 0.151525691 0.609897435 0.058608375
v 0.083962336 0.756568968 0.067643873
v 0.203307390 0.671068013 0.004027696
v 0.197579861 0.665049851 0.024503212
v 0.084407851 0.689144313 -0.092668027
v 0.130343407 0.606758654 0.068184778
v 0.111918129 0.823820233 -0.113357268
v -0.006022914 0.770540476 0.014028991
v -0.011419550 0.697114170 0.003668356
v 0.047337290 0.683307171 0.035522383
v 0.106503829 0.608290792 0.063923955
v 0.138436601 0.822828889 -0.108928904
v -0.011254882 0.740180194 0.008251493
v 0.000872188 0.785204291 0.018066732
v 0.087389641 0.608103514 0.055443056
v 0.022675445 0.825201631 0.038538836
v -0.000187538 0.823743999 0.039055727
v 0.111905932 0.868515134 0.056392688
v 0.054889131 0.620747328 0.029475939
v 0.108761564 0.884457469 0.048487291
v 0.192558289 0.600947499 -0.000023315
v 0.102021694 0.757778525 0.075016722
v 0.031644877 0.886181235 -0.143178657
v 0.042779092 0.628152907 0.010508794
v 0.062453818 0.848367512 -0.142901272
v 0.019352544 0.635401845 0.001279899
v 0.036796506 0.647890627 0.007252992
v 0.038092781 0.811660469 -0.099140354
v 0.017103262 0.812751889 0.028923890
v 0.015609793 0.688278556 0.003705466
v -0.013226384 0.683510423 0.002241126
v -0.011100589 0.725354373 0.006399865
v 0.187605008 0.597402453 -0.031394500
v -0.010432068 0.711056471 0.004828425
v 0.062536776 0.646171689 -0.070216820
v 0.076736815 0.758000970 -0.102481268
v 0.096897729 0.765601099 -0.109244846
v 0.157789379 0.749081492 0.069358625
v 0.090906456 0.723510981 0.068252943
v 0.160717800 0.725168824 0.066926494
v 0.083982728 0.632370651 -0.075711012
v 0.189105570 0.596608758 0.018138966
f 555 540 123
f 389 162 497
f 567 540 568
f 583 104 251
f 463 489 430
f 453 94 255
f 483 484 162
f 446 640 671
f 574 577 251
f 50 244 238
f 52 244 50
f 575 57 53
f 55 249 52
f 55 2 250
f 577 248 563
f 575 437 432
f 57 597 589
f 2 265 262
f 589 592 57
f 262 259 2
f 5 267 262
f 602 606 589
f 5 9 11
f 58 606 610
f 11 272 5
f 12 278 11
f 565 793 8
f 630 60 632
f 13 425 12
f 424 289 160
f 289 424 13
f 643 649 60
f 181 403 179
f 483 206 484
f 163 651 174
f 53 563 558
f 651 65 650
f 163 389 384
f 683 66 65
f 455 558 563
f 165 384 171
f 340 331 34
f 67 66 683
f 206 470 63
f 385 102 856
f 67 702 70
f 344 340 696
f 179 403 406
f 710 70 702
f 16 352 14
f 111 112 59
f 63 64 655
f 18 368 16
f 710 742 753
f 119 112 111
f 394 671 545
f 551 922 903
f 19 375 18
f 753 740 711
f 406 470 179
f 261 615 108
f 545 453 439
f 178 386 530
f 24 386 23
f 72 753 742
f 26 396 24
f 768 765 72
f 119 142 112
f 32 63 470
f 112 142 161
f 399 400 396
f 154 343 182
f 545 671 448
f 399 415 400
f 768 770 765
f 32 406 410
f 418 415 399
f 770 183 777
f 387 300 166
f 415 418 422
f 105 86 299
f 169 42 839
f 170 142 119
f 173 172 705
f 329 638 343
f 134 738 737
f 185 638 329
f 692 661 145
f 150 74 741
f 637 345 873
f 132 145 661
f 170 184 142
f 138 495 760
f 138 136 188
f 136 194 188
f 201 87 194
f 270 87 205
f 216 49 210
f 46 216 724
f 198 184 170
f 43 96 907
f 219 39 218
f 45 43 41
f 224 37 219
f 498 224 514
f 86 105 342
f 225 36 514
f 378 107 110
f 80 233 107
f 22 41 43
f 198 217 849
f 41 581 45
f 103 233 76
f 76 40 103
f 222 217 214
f 678 100 40
f 98 41 22
f 366 41 98
f 40 76 678
f 215 4 284
f 215 98 21
f 537 536 92
f 222 234 217
f 904 537 92
f 460 462 30
f 284 471 366
f 222 239 246
f 586 903 759
f 462 28 30
f 246 234 222
f 454 449 28
f 237 391 924
f 560 319 921
f 246 888 252
f 431 471 282
f 455 560 391
f 319 560 241
f 50 238 793
f 50 566 52
f 52 574 55
f 258 263 510
f 244 52 249
f 55 253 2
f 284 792 657
f 303 670 667
f 303 100 674
f 250 249 55
f 273 274 252
f 251 253 574
f 100 303 301
f 301 570 100
f 104 261 257
f 677 100 678
f 273 285 274
f 257 2 253
f 2 257 265
f 250 2 259
f 570 568 40
f 752 292 293
f 294 296 285
f 285 296 274
f 684 497 679
f 277 274 296
f 440 447 442
f 579 489 463
f 692 329 695
f 259 262 267
f 871 736 360
f 262 271 9
f 40 100 570
f 570 567 568
f 203 128 270
f 310 296 294
f 305 296 310
f 87 270 194
f 9 5 262
f 5 272 600
f 276 9 271
f 9 276 11
f 272 11 278
f 302 323 310
f 568 103 40
f 108 615 89
f 280 11 276
f 11 280 12
f 103 568 540
f 278 12 425
f 323 337 328
f 283 12 280
f 12 283 13
f 283 297 289
f 289 13 283
f 540 561 231
f 425 13 424
f 209 288 205
f 291 125 286
f 346 337 323
f 49 304 288
f 173 350 351
f 297 654 314
f 347 158 864
f 304 47 311
f 47 304 49
f 47 46 481
f 360 361 855
f 501 684 146
f 481 311 47
f 46 39 481
f 343 695 329
f 314 289 297
f 289 314 160
f 481 321 308
f 481 39 321
f 325 122 321
f 325 321 37
f 37 321 39
f 333 160 314
f 324 266 333
f 527 107 231
f 84 121 325
f 36 327 498
f 160 333 34
f 327 120 84
f 36 82 371
f 277 393 390
f 689 34 333
f 34 689 340
f 313 34 331
f 266 334 689
f 334 260 341
f 340 335 331
f 107 527 110
f 54 404 405
f 696 14 344
f 61 401 44
f 38 299 407
f 358 14 348
f 14 358 16
f 344 14 352
f 356 704 712
f 352 16 368
f 413 62 417
f 370 16 358
f 16 370 18
f 175 705 134
f 713 115 110
f 371 27 378
f 27 371 82
f 381 18 370
f 18 381 19
f 368 18 375
f 80 378 27
f 19 381 235
f 19 395 23
f 19 23 178
f 202 506 913
f 23 395 24
f 386 24 396
f 398 24 395
f 24 398 26
f 26 398 220
f 26 412 399
f 396 26 399
f 418 399 412
f 164 180 444
f 444 443 164
f 175 173 705
f 685 84 120
f 422 300 415
f 685 121 84
f 172 169 300
f 172 300 422
f 78 80 27
f 226 365 78
f 89 615 114
f 240 485 309
f 134 737 175
f 226 27 82
f 245 459 452
f 187 186 140
f 243 459 245
f 189 187 130
f 581 466 579
f 467 472 637
f 308 122 240
f 138 579 466
f 430 255 463
f 499 435 430
f 453 430 435
f 435 440 439
f 435 499 450
f 243 479 281
f 308 321 122
f 897 438 584
f 439 453 435
f 243 281 893
f 450 440 435
f 480 859 865
f 440 449 447
f 442 439 440
f 450 449 440
f 447 449 454
f 492 488 493
f 127 458 456
f 449 456 28
f 82 225 708
f 454 28 462
f 28 456 30
f 456 450 127
f 30 456 458
f 225 82 36
f 30 464 460
f 506 507 502
f 126 469 125
f 287 508 509
f 207 507 506
f 410 460 32
f 126 306 477
f 460 464 644
f 644 32 460
f 32 644 63
f 475 31 576
f 470 406 32
f 64 63 644
f 306 309 477
f 125 464 458
f 528 795 511
f 516 523 524
f 655 206 63
f 206 655 484
f 206 474 470
f 162 679 497
f 316 322 822
f 313 160 34
f 37 498 325
f 523 316 534
f 497 684 501
f 501 146 505
f 146 512 503
f 505 503 513
f 263 515 510
f 512 120 115
f 503 512 91
f 517 513 503
f 115 713 91
f 458 203 125
f 315 547 548
f 91 512 115
f 547 330 336
f 91 713 88
f 517 88 522
f 552 548 547
f 532 88 713
f 88 532 519
f 552 336 553
f 522 519 541
f 527 231 561
f 127 128 458
f 538 660 692
f 514 36 498
f 224 498 37
f 538 692 695
f 114 626 631
f 553 342 105
f 219 37 39
f 555 660 561
f 127 450 499
f 891 199 824
f 660 555 661
f 218 39 46
f 199 97 886
f 366 98 284
f 22 21 98
f 41 366 581
f 43 232 22
f 907 232 43
f 96 536 907
f 45 463 255
f 45 581 463
f 255 94 96
f 255 96 45
f 94 453 545
f 448 546 545
f 582 593 594
f 595 584 438
f 216 46 47
f 216 47 49
f 551 640 558
f 558 640 569
f 49 288 209
f 793 565 50
f 569 53 558
f 566 50 565
f 209 210 49
f 841 351 350
f 574 52 566
f 578 53 57
f 612 609 423
f 53 578 563
f 575 53 569
f 597 432 211
f 253 55 574
f 57 575 597
f 578 57 592
f 592 583 578
f 627 609 612
f 584 621 628
f 603 589 606
f 602 589 597
f 634 819 627
f 610 606 602
f 835 318 229
f 626 606 58
f 610 624 58
f 58 624 630
f 632 58 630
f 634 884 869
f 58 632 626
f 60 642 632
f 642 60 649
f 60 630 181
f 650 649 643
f 662 652 645
f 656 628 621
f 621 636 656
f 658 659 204
f 64 644 469
f 466 495 138
f 694 377 700
f 468 471 431
f 663 650 65
f 628 656 668
f 679 162 484
f 65 686 663
f 672 673 659
f 686 65 66
f 683 65 651
f 468 431 478
f 683 693 67
f 685 146 684
f 146 685 512
f 696 340 689
f 66 67 701
f 473 495 478
f 66 698 686
f 702 67 693
f 668 675 687
f 701 698 66
f 405 690 54
f 701 67 70
f 54 690 564
f 14 696 348
f 711 70 710
f 699 70 711
f 702 709 710
f 229 318 236
f 657 282 471
f 710 709 742
f 753 756 740
f 756 753 72
f 742 754 72
f 72 754 768
f 72 765 756
f 766 765 770
f 490 193 496
f 130 772 496
f 770 776 766
f 15 719 168
f 87 201 148
f 183 770 768
f 201 194 136
f 422 705 172
f 633 777 338
f 777 633 150
f 408 74 633
f 638 185 408
f 106 730 258
f 688 379 694
f 275 631 118
f 185 692 145
f 197 750 749
f 736 737 738
f 263 258 730
f 738 741 743
f 185 145 143
f 743 741 744
f 744 741 74
f 744 467 879
f 132 140 145
f 123 132 661
f 741 738 150
f 123 540 567
f 773 772 567
f 738 134 150
f 78 27 226
f 238 623 1
f 264 279 779
f 776 150 134
f 134 705 420
f 695 541 538
f 104 599 261
f 365 681 680
f 761 762 763
f 365 678 76
f 76 78 365
f 411 156 420
f 156 411 220
f 541 519 538
f 220 764 156
f 76 233 78
f 80 78 233
f 168 789 387
f 70 699 701
f 398 395 228
f 434 437 445
f 779 780 887
f 428 432 434
f 926 317 706
f 197 749 745
f 213 6 4
f 279 785 780
f 419 427 428
f 148 201 745
f 454 462 419
f 526 782 783
f 381 734 235
f 410 414 419
f 493 769 913
f 511 4 215
f 4 511 213
f 406 414 410
f 208 731 729
f 21 511 215
f 210 728 727
f 794 800 823
f 511 21 529
f 470 474 179
f 724 218 46
f 227 110 115
f 118 280 275
f 219 218 722
f 806 800 794
f 803 804 256
f 716 778 225
f 224 219 720
f 407 86 690
f 356 734 381
f 389 497 380
f 809 795 528
f 810 806 811
f 717 716 514
f 497 501 380
f 317 697 429
f 810 818 821
f 913 771 202
f 341 698 699
f 373 376 159
f 369 177 373
f 341 260 698
f 260 334 266
f 365 226 681
f 517 522 354
f 828 821 818
f 354 362 364
f 569 640 446
f 519 522 88
f 767 828 818
f 266 324 676
f 602 597 211
f 804 834 256
f 121 240 122
f 345 868 918
f 610 602 211
f 169 839 166
f 427 195 211
f 643 179 174
f 683 651 165
f 693 683 171
f 627 884 634
f 324 654 676
f 846 397 841
f 841 397 374
f 362 709 369
f 580 397 846
f 192 188 190
f 192 499 489
f 128 192 190
f 270 205 203
f 205 288 286
f 291 306 126
f 208 148 733
f 288 304 291
f 304 311 306
f 311 481 308
f 286 125 203
f 283 118 297
f 589 599 592
f 283 280 118
f 227 115 120
f 747 805 732
f 707 226 82
f 107 378 80
f 275 114 631
f 118 646 297
f 89 114 275
f 231 233 103
f 87 209 205
f 816 872 870
f 271 108 89
f 248 560 455
f 248 241 560
f 108 271 265
f 566 565 241
f 86 876 690
f 622 244 619
f 517 91 88
f 574 566 248
f 715 662 889
f 244 249 618
f 249 250 614
f 882 465 718
f 253 251 257
f 774 465 882
f 250 259 608
f 883 494 774
f 921 391 560
f 259 267 604
f 54 564 847
f 251 577 583
f 600 267 5
f 89 276 271
f 503 91 517
f 690 405 407
f 275 276 89
f 892 573 582
f 272 278 596
f 248 577 574
f 280 276 275
f 425 588 591
f 425 424 781
f 781 313 572
f 424 313 781
f 572 585 781
f 314 654 324
f 136 197 201
f 313 557 572
f 237 551 558
f 554 331 335
f 334 341 348
f 760 136 138
f 335 344 549
f 341 699 704
f 348 696 334
f 921 319 7
f 358 348 704
f 344 352 544
f 912 582 594
f 903 586 551
f 352 368 543
f 381 370 356
f 368 375 539
f 788 8 3
f 535 375 178
f 221 795 809
f 828 767 562
f 559 833 920
f 921 920 899
f 546 448 898
f 903 922 836
f 38 903 299
f 235 228 395
f 405 669 407
f 546 92 94
f 400 518 520
f 92 546 904
f 639 35 926
f 386 396 525
f 927 926 33
f 928 605 930
f 200 490 298
f 94 545 546
f 96 92 536
f 927 56 852
f 143 472 408
f 220 412 26
f 400 520 521
f 412 220 411
f 109 113 152
f 920 832 559
f 418 412 411
f 152 113 746
f 387 789 786
f 420 418 411
f 746 161 867
f 418 420 422
f 490 773 298
f 496 772 773
f 394 442 445
f 562 767 832
f 739 636 820
f 204 725 658
f 773 490 496
f 725 223 635
f 447 454 428
f 472 186 637
f 215 284 98
f 189 130 496
f 458 464 30
f 410 462 460
f 125 469 464
f 635 247 487
f 487 269 629
f 641 487 629
f 268 269 487
f 269 393 629
f 390 269 268
f 469 126 64
f 349 761 763
f 655 64 477
f 303 674 670
f 290 393 277
f 611 290 928
f 163 474 483
f 928 307 605
f 635 641 648
f 531 605 533
f 677 674 100
f 477 309 485
f 506 202 207
f 679 485 240
f 240 121 684
f 312 912 594
f 684 679 240
f 121 685 684
f 186 187 345
f 503 505 146
f 912 332 892
f 772 130 132
f 685 120 512
f 501 505 159
f 725 648 658
f 505 513 373
f 513 517 364
f 892 847 564
f 110 527 713
f 714 847 339
f 522 541 154
f 51 714 346
f 231 103 540
f 714 51 404
f 541 695 343
f 567 772 123
f 502 500 506
f 578 577 563
f 867 659 673
f 577 578 583
f 597 575 432
f 592 104 583
f 913 492 493
f 845 167 839
f 599 104 592
f 386 178 23
f 599 603 615
f 110 227 378
f 615 261 599
f 706 402 639
f 603 626 114
f 132 123 772
f 624 610 195
f 409 706 317
f 746 673 682
f 114 615 603
f 120 327 227
f 624 414 403
f 691 429 697
f 642 631 632
f 642 118 631
f 429 433 853
f 646 118 642
f 642 649 646
f 152 682 691
f 682 433 691
f 181 643 60
f 654 297 646
f 122 325 121
f 140 130 187
f 421 416 617
f 123 661 555
f 309 308 240
f 698 260 686
f 702 693 177
f 698 701 699
f 672 441 436
f 291 126 125
f 109 691 697
f 143 140 186
f 874 872 816
f 665 441 672
f 188 192 489
f 665 658 653
f 712 704 699
f 653 451 665
f 927 697 317
f 712 740 734
f 648 461 653
f 178 375 19
f 923 880 116
f 641 461 648
f 740 756 748
f 748 758 228
f 926 706 639
f 479 641 482
f 754 742 362
f 354 754 362
f 407 669 38
f 203 458 128
f 482 629 620
f 756 765 758
f 182 754 154
f 128 127 192
f 254 246 252
f 611 382 620
f 764 398 228
f 499 192 127
f 764 766 156
f 766 776 156
f 930 611 928
f 420 156 776
f 140 132 130
f 788 7 8
f 387 166 168
f 420 776 134
f 136 760 197
f 300 387 415
f 750 197 760
f 745 201 197
f 148 208 209
f 733 148 745
f 258 35 106
f 593 533 605
f 731 208 733
f 236 318 910
f 729 210 208
f 728 210 729
f 727 216 210
f 188 489 579
f 929 573 556
f 724 216 727
f 573 929 582
f 723 218 724
f 722 218 723
f 720 219 722
f 717 224 720
f 514 224 717
f 188 579 138
f 876 556 573
f 707 681 226
f 898 904 546
f 472 143 186
f 212 795 221
f 899 391 921
f 854 925 931
f 213 795 212
f 140 143 145
f 404 54 714
f 833 922 924
f 415 387 786
f 143 408 185
f 238 3 793
f 1 3 238
f 31 799 752
f 622 238 244
f 918 799 515
f 380 376 171
f 915 752 357
f 617 476 421
f 619 244 618
f 618 249 616
f 616 249 614
f 636 739 613
f 388 613 10
f 614 250 608
f 357 791 915
f 383 688 388
f 608 259 607
f 571 438 576
f 295 667 666
f 92 96 94
f 607 259 604
f 372 726 700
f 667 295 303
f 367 726 372
f 604 267 601
f 298 295 207
f 923 875 880
f 363 732 367
f 408 467 74
f 148 209 87
f 298 301 295
f 359 747 363
f 601 267 600
f 359 355 755
f 600 272 598
f 598 272 596
f 353 755 355
f 301 298 773
f 596 278 591
f 747 755 751
f 591 278 425
f 588 425 781
f 388 688 813
f 769 771 913
f 763 353 349
f 202 771 200
f 506 500 913
f 74 467 744
f 773 570 301
f 82 708 707
f 320 647 326
f 500 492 913
f 331 554 557
f 242 910 320
f 344 335 340
f 910 908 647
f 554 335 550
f 239 222 703
f 549 550 335
f 549 344 544
f 166 167 168
f 544 352 543
f 543 368 542
f 17 15 167
f 17 845 157
f 907 536 919
f 157 850 155
f 155 850 153
f 542 368 539
f 150 633 74
f 153 854 151
f 151 854 149
f 149 858 147
f 147 862 144
f 539 375 535
f 759 903 38
f 530 535 178
f 144 862 141
f 141 866 139
f 139 866 137
f 530 386 525
f 137 870 135
f 525 396 521
f 135 870 872
f 133 872 131
f 131 874 129
f 129 923 117
f 923 874 875
f 170 119 902
f 521 396 400
f 20 932 101
f 99 101 932
f 99 886 97
f 95 97 199
f 95 891 93
f 93 896 90
f 518 400 786
f 90 896 85
f 85 901 83
f 83 905 81
f 169 166 300
f 81 905 79
f 77 79 796
f 77 909 75
f 439 394 545
f 75 914 73
f 73 914 71
f 71 916 69
f 442 394 439
f 468 466 366
f 442 447 434
f 7 562 920
f 794 534 811
f 924 899 833
f 434 447 428
f 428 454 419
f 419 462 410
f 38 898 759
f 902 111 897
f 466 468 495
f 526 524 534
f 25 59 56
f 96 43 45
f 895 401 61
f 182 343 338
f 483 389 163
f 483 162 389
f 897 59 25
f 883 894 775
f 776 777 150
f 59 897 111
f 380 384 389
f 774 882 893
f 111 902 119
f 778 708 225
f 501 159 380
f 167 166 839
f 159 505 373
f 176 191 867
f 373 513 369
f 364 369 513
f 850 890 925
f 354 364 517
f 354 522 154
f 177 369 709
f 154 541 343
f 446 445 437
f 376 380 159
f 204 223 725
f 217 198 214
f 214 703 222
f 437 569 446
f 610 211 195
f 414 624 195
f 403 630 624
f 889 718 715
f 160 313 424
f 181 630 403
f 888 246 239
f 179 643 181
f 174 650 643
f 651 650 174
f 163 384 165
f 487 247 268
f 165 651 163
f 171 683 165
f 174 474 163
f 557 313 331
f 475 515 799
f 376 693 171
f 285 273 757
f 177 693 376
f 627 885 884
f 174 179 474
f 509 508 516
f 294 302 310
f 709 702 177
f 709 362 742
f 154 754 354
f 182 338 183
f 780 785 803
f 183 768 182
f 423 413 881
f 183 338 777
f 638 338 343
f 633 638 408
f 590 401 895
f 692 185 329
f 190 188 194
f 515 475 25
f 270 190 194
f 190 270 128
f 195 427 414
f 7 788 562
f 915 878 571
f 877 595 438
f 203 205 286
f 44 48 61
f 474 206 483
f 210 209 208
f 61 62 895
f 413 895 62
f 211 432 427
f 172 42 169
f 398 764 220
f 515 263 918
f 437 575 569
f 228 758 764
f 124 885 426
f 175 871 350
f 84 498 327
f 225 514 716
f 327 371 227
f 918 263 730
f 898 448 759
f 371 327 36
f 839 374 890
f 227 371 378
f 451 441 665
f 228 235 748
f 444 180 457
f 233 231 107
f 187 868 345
f 759 448 586
f 189 292 868
f 734 748 235
f 653 461 826
f 924 922 237
f 292 193 196
f 446 671 394
f 461 641 479
f 922 551 237
f 391 237 455
f 482 641 629
f 918 868 799
f 196 200 293
f 771 293 200
f 558 455 237
f 281 287 894
f 894 893 281
f 248 566 241
f 257 251 104
f 255 430 453
f 257 261 265
f 509 775 287
f 260 266 676
f 509 516 524
f 265 261 108
f 523 516 531
f 322 316 523
f 273 252 888
f 265 271 262
f 811 534 316
f 316 315 811
f 676 686 260
f 366 466 581
f 478 495 468
f 330 547 315
f 547 336 552
f 366 471 468
f 760 495 473
f 657 471 284
f 336 342 553
f 553 900 552
f 832 900 553
f 865 878 791
f 792 284 4
f 31 571 576
f 286 288 291
f 438 571 877
f 906 864 863
f 4 790 792
f 8 7 319
f 303 295 301
f 291 304 306
f 570 773 567
f 739 617 392
f 617 416 392
f 306 311 309
f 309 311 308
f 170 628 668
f 613 739 10
f 739 392 10
f 656 675 668
f 656 815 675
f 680 678 365
f 813 613 388
f 324 333 314
f 687 198 668
f 379 688 383
f 295 666 207
f 815 656 636
f 377 694 379
f 325 498 84
f 689 333 266
f 334 696 689
f 700 377 372
f 861 834 860
f 703 721 239
f 732 726 367
f 834 861 256
f 348 341 704
f 747 732 363
f 356 358 704
f 735 888 721
f 370 358 356
f 735 264 757
f 735 273 888
f 755 747 359
f 369 364 362
f 353 763 755
f 647 761 326
f 761 349 326
f 376 373 177
f 779 757 264
f 780 779 279
f 384 380 171
f 235 395 19
f 736 871 737
f 562 788 917
f 910 647 320
f 785 804 803
f 414 406 403
f 256 323 803
f 813 675 815
f 415 786 400
f 427 419 414
f 422 420 705
f 432 428 427
f 430 489 499
f 587 580 590
f 437 434 432
f 445 442 434
f 446 394 445
f 671 586 448
f 819 609 627
f 456 449 450
f 455 563 248
f 865 791 769
f 581 579 463
f 645 652 817
f 644 464 469
f 652 662 715
f 874 923 129
f 715 664 652
f 694 812 688
f 477 64 126
f 750 760 473
f 485 655 477
f 465 715 718
f 507 207 666
f 465 774 494
f 865 486 480
f 812 675 813
f 485 484 655
f 207 202 298
f 883 504 825
f 493 865 769
f 783 782 504
f 679 484 485
f 202 200 298
f 196 490 200
f 196 193 490
f 877 859 476
f 302 803 323
f 189 496 193
f 814 806 810
f 168 719 789
f 821 814 810
f 391 899 924
f 713 527 532
f 467 408 472
f 302 294 887
f 786 787 518
f 538 519 532
f 561 532 527
f 926 35 33
f 538 532 660
f 540 555 561
f 551 586 640
f 319 241 565
f 660 532 561
f 113 161 746
f 161 176 867
f 8 319 565
f 223 247 635
f 781 585 784
f 620 629 393
f 887 780 302
f 269 390 393
f 671 640 586
f 781 784 588
f 599 589 603
f 393 290 611
f 626 603 606
f 928 290 305
f 623 238 622
f 625 1 623
f 774 893 894
f 312 332 912
f 626 632 631
f 332 339 847
f 847 892 332
f 757 887 285
f 847 714 54
f 793 3 8
f 732 807 726
f 858 931 857
f 675 812 687
f 168 167 15
f 273 735 757
f 920 921 7
f 402 385 639
f 167 845 17
f 638 633 338
f 646 649 663
f 650 663 649
f 845 850 157
f 888 239 721
f 663 654 646
f 706 409 48
f 850 854 153
f 676 654 663
f 429 409 317
f 661 692 660
f 854 858 149
f 676 663 686
f 858 862 147
f 433 429 691
f 678 680 677
f 699 711 712
f 712 734 356
f 711 710 753
f 862 866 141
f 712 711 740
f 682 436 827
f 734 740 748
f 866 870 137
f 214 687 808
f 748 756 758
f 664 816 652
f 872 133 135
f 198 687 214
f 754 182 768
f 872 874 131
f 665 659 658
f 758 765 766
f 658 648 653
f 766 764 758
f 776 770 777
f 668 198 170
f 117 923 116
f 787 786 789
f 929 330 822
f 533 822 322
f 556 336 330
f 531 322 523
f 899 920 833
f 662 444 889
f 346 323 256
f 491 482 620
f 116 880 911
f 911 20 116
f 382 491 620
f 911 932 20
f 932 886 99
f 645 443 662
f 930 382 611
f 382 930 516
f 886 824 199
f 605 531 930
f 491 508 848
f 628 170 902
f 256 347 346
f 482 848 479
f 891 896 93
f 347 256 861
f 820 617 739
f 866 819 817
f 605 594 593
f 896 901 85
f 929 593 582
f 612 881 885
f 901 905 83
f 826 451 653
f 451 457 180
f 672 659 665
f 441 180 851
f 79 905 796
f 436 673 672
f 436 851 827
f 909 914 75
f 682 673 436
f 914 916 71
f 584 902 897
f 876 86 342
f 69 916 1
f 829 433 827
f 700 808 694
f 788 3 916
f 853 829 417
f 409 61 48
f 402 48 855
f 870 817 816
f 855 29 360
f 874 816 664
f 385 361 102
f 830 880 875
f 576 897 25
f 819 634 817
f 68 69 1
f 106 856 730
f 743 736 738
f 910 242 236
f 862 857 819
f 744 879 102
f 880 830 831
f 840 528 843
f 401 846 44
f 803 302 780
f 769 791 357
f 878 915 791
f 831 911 880
f 918 873 345
f 576 25 475
f 799 31 475
f 841 29 846
f 879 856 102
f 106 639 385
f 573 564 876
f 911 831 802
f 342 556 876
f 337 339 332
f 25 510 515
f 350 29 841
f 564 573 892
f 892 582 912
f 510 25 56
f 864 906 837
f 312 328 337
f 929 822 593
f 33 35 258
f 871 360 29
f 840 860 835
f 864 158 863
f 29 855 44
f 916 914 917
f 808 687 812
f 594 307 312
f 307 305 328
f 916 917 788
f 33 56 927
f 840 835 809
f 307 594 605
f 736 743 361
f 531 516 930
f 290 277 305
f 852 109 927
f 318 835 860
f 21 844 529
f 852 59 112
f 620 393 611
f 102 743 744
f 112 113 852
f 751 763 762
f 647 785 762
f 805 747 751
f 252 268 254
f 230 835 229
f 487 641 635
f 637 879 467
f 124 851 164
f 809 230 221
f 161 142 176
f 807 732 805
f 247 234 254
f 230 809 835
f 808 700 807
f 345 637 186
f 176 184 191
f 812 694 808
f 204 849 223
f 849 204 191
f 813 688 812
f 635 648 725
f 849 184 198
f 815 613 813
f 815 636 613
f 217 223 849
f 659 191 204
f 217 234 223
f 191 184 849
f 859 480 421
f 795 213 511
f 245 461 243
f 878 865 859
f 802 886 932
f 191 659 867
f 452 718 889
f 223 234 247
f 176 142 184
f 246 254 234
f 865 493 486
f 293 771 357
f 268 247 254
f 771 769 357
f 805 264 735
f 268 252 390
f 161 113 112
f 486 493 488
f 390 252 274
f 867 673 746
f 264 751 279
f 274 277 390
f 746 682 152
f 281 848 287
f 827 433 682
f 808 703 214
f 152 691 109
f 109 852 113
f 476 859 421
f 296 305 277
f 476 595 877
f 305 307 928
f 196 293 292
f 595 476 820
f 726 807 700
f 752 293 357
f 307 328 312
f 310 328 305
f 56 59 852
f 292 752 799
f 328 310 323
f 886 825 824
f 312 337 332
f 807 703 808
f 891 824 782
f 193 292 189
f 844 21 22
f 429 853 409
f 109 697 927
f 56 33 510
f 105 559 553
f 339 337 346
f 346 714 339
f 51 346 347
f 317 926 927
f 564 690 876
f 863 844 232
f 799 868 292
f 510 33 258
f 843 528 529
f 844 863 842
f 861 840 843
f 861 158 347
f 861 860 840
f 752 915 31
f 158 843 842
f 843 158 861
f 842 529 844
f 919 837 906
f 906 232 907
f 809 528 840
f 730 873 918
f 730 856 873
f 873 856 879
f 856 106 385
f 817 634 645
f 837 919 838
f 817 652 816
f 919 906 907
f 919 536 537
f 743 102 361
f 904 669 838
f 898 669 904
f 669 898 38
f 703 807 721
f 405 404 838
f 669 405 838
f 922 833 836
f 294 285 887
f 361 385 402
f 869 645 634
f 830 875 664
f 916 3 1
f 864 51 347
f 402 855 361
f 909 801 914
f 397 890 374
f 48 44 855
f 796 909 77
f 879 637 873
f 901 798 905
f 580 925 397
f 48 402 706
f 896 800 901
f 891 823 896
f 409 62 61
f 853 62 409
f 881 413 417
f 417 62 853
f 86 407 299
f 459 893 882
f 199 891 95
f 830 465 831
f 829 426 417
f 426 829 124
f 426 881 417
f 124 829 827
f 433 829 853
f 886 802 825
f 774 894 883
f 851 124 827
f 164 884 124
f 441 851 436
f 180 164 851
f 443 869 164
f 911 802 932
f 715 830 664
f 874 664 875
f 736 361 360
f 451 180 441
f 457 452 889
f 889 444 457
f 866 817 870
f 106 35 639
f 459 718 452
f 826 452 457
f 452 826 245
f 451 826 457
f 862 819 866
f 858 857 862
f 461 245 826
f 459 882 718
f 479 243 461
f 854 931 858
f 850 925 854
f 846 401 580
f 845 890 850
f 491 848 482
f 848 281 479
f 825 494 883
f 382 508 491
f 900 832 767
f 508 287 848
f 896 823 800
f 839 890 845
f 504 782 824
f 42 374 839
f 516 508 382
f 908 910 318
f 534 524 523
f 552 818 548
f 42 172 173
f 901 800 798
f 818 552 900
f 533 322 531
f 871 175 737
f 868 187 189
f 22 232 844
f 593 822 533
f 822 315 316
f 929 556 330
f 330 315 822
f 838 919 537
f 904 838 537
f 318 860 834
f 908 318 834
f 465 830 715
f 556 342 336
f 105 836 559
f 833 559 836
f 29 44 846
f 908 834 804
f 562 917 828
f 299 836 105
f 818 900 767
f 832 553 559
f 562 832 920
f 811 315 548
f 828 801 821
f 801 828 917
f 821 797 814
f 836 299 903
f 401 590 580
f 797 821 801
f 905 798 796
f 796 814 797
f 810 548 818
f 814 798 806
f 798 814 796
f 909 796 797
f 811 548 810
f 413 587 590
f 404 51 837
f 51 864 837
f 837 838 404
f 909 797 801
f 529 842 843
f 158 842 863
f 232 906 863
f 800 806 798
f 529 528 511
f 794 811 806
f 785 908 804
f 785 647 908
f 859 877 878
f 526 534 794
f 877 571 878
f 571 31 915
f 173 351 42
f 524 783 509
f 350 173 175
f 29 350 871
f 823 526 794
f 783 524 526
f 526 823 782
f 42 351 374
f 841 374 351
f 504 775 783
f 509 783 775
f 782 823 891
f 885 124 884
f 887 757 779
f 914 801 917
f 426 885 881
f 890 397 925
f 825 504 824
f 775 504 883
f 925 587 931
f 587 925 580
f 802 494 825
f 785 279 762
f 494 831 465
f 831 494 802
f 894 287 775
f 590 895 413
f 438 897 576
f 884 164 869
f 762 279 751
f 423 931 587
f 587 413 423
f 931 423 857
f 762 761 647
f 617 820 476
f 595 820 621
f 751 755 763
f 893 459 243
f 751 264 805
f 609 857 423
f 423 881 612
f 662 443 444
f 721 805 735
f 621 584 595
f 857 609 819
f 443 645 869
f 612 885 627
f 636 621 820
f 628 902 584
f 805 721 807
