# avbd fit, rung f180-i32-s300-b1e-3 of Gate 6d (body space, fit phase only)
v -0.008078205 0.601887107 0.028404195
v -0.114933014 0.619546473 0.068805315
v -0.007879269 0.616580248 0.031474605
v -0.000110184 0.887259126 0.066644147
v -0.158671468 0.602979958 0.053923815
v 0.005760991 0.898299873 0.075798981
v -0.007472989 0.646215141 0.035930183
v -0.007546006 0.631368399 0.033904985
v -0.160639808 0.619506717 0.055315048
v 0.152622193 0.904199898 -0.107213780
v -0.177869290 0.614618659 0.045896921
v -0.187880963 0.616759300 0.027705112
v -0.195200637 0.617980599 0.011917350
v -0.157775909 0.621887565 -0.069013365
v 0.007136001 0.598951697 -0.054322552
v -0.140502930 0.618740380 -0.074148893
v 0.022740582 0.598652422 -0.054607622
v -0.130490810 0.618980348 -0.088480771
v -0.115323067 0.627301991 -0.083687365
v 0.188840419 0.579611659 -0.001203523
v -0.000584248 0.857685387 0.060097825
v -0.000895325 0.843581855 0.054582089
v -0.098457657 0.624146819 -0.080618821
v -0.085979328 0.629341960 -0.087812379
v 0.093915470 0.805872560 -0.116097763
v -0.079869971 0.639778256 -0.076124236
v -0.136540189 0.868348002 -0.126032323
v -0.145803198 0.787008047 0.071485713
v 0.037947822 0.688823581 -0.077041335
v -0.161532566 0.797671378 0.065924317
v 0.068235561 0.833096683 -0.132706627
v -0.193706959 0.774419963 0.042623729
v 0.085707903 0.769764781 -0.106799103
v -0.188871071 0.616107881 -0.036390748
v 0.071347758 0.759967029 -0.101377711
v -0.161172301 0.872710049 -0.100521863
v -0.181957141 0.870697796 -0.060572028
v 0.013231367 0.739108741 0.047458310
v -0.184581965 0.874665082 -0.040751889
v -0.081162468 0.867904842 -0.147922039
v -0.031154644 0.847072005 0.056205671
v 0.009460072 0.650643468 -0.066040203
v -0.020523248 0.828947842 0.052460540
v 0.059609175 0.692630112 -0.083693273
v -0.043580994 0.829771399 0.055132914
v -0.183283180 0.880331874 -0.021977203
v -0.189965829 0.868400276 -0.006010249
v 0.069111258 0.711297989 -0.091753259
v -0.180407479 0.871686459 0.012702830
v -0.048752975 0.620255888 0.039600365
v 0.062838890 0.802004695 0.060372025
v -0.069574706 0.620291233 0.049086407
v -0.083338775 0.699451685 0.062870517
v 0.062141817 0.764750183 0.059601557
v -0.090200529 0.618963659 0.057902656
v 0.100975826 0.782807231 -0.111529253
v -0.107236981 0.696046352 0.072106779
v -0.176560566 0.702593803 0.058454007
v 0.116986856 0.795757055 -0.116218530
v -0.200898454 0.700652063 0.028631469
v 0.079196259 0.694713295 -0.091965899
v 0.098252848 0.690484166 -0.097716860
v -0.203704387 0.784804046 0.023685522
v -0.200372934 0.805058360 0.022510465
v -0.206401825 0.700732589 -0.035176344
v -0.191446394 0.696758568 -0.054296695
v -0.182257220 0.709015310 -0.069108635
v 0.006845406 0.603706539 0.022181075
v 0.012400554 0.589647293 0.025379241
v -0.164786115 0.698592246 -0.079928845
v 0.028733989 0.589344621 0.027992766
v -0.115341410 0.710400701 -0.105817676
v 0.044162732 0.588398933 0.032629222
v -0.024061512 0.744282544 -0.088965952
v 0.059001707 0.587259352 0.038277112
v -0.100927293 0.869708061 -0.143116012
v 0.072756693 0.585836768 0.045348931
v -0.119247593 0.870936871 -0.136517972
v 0.086795263 0.584588766 0.051566742
v -0.124856509 0.856725216 -0.129312500
v 0.100590169 0.583262563 0.057705730
v -0.145916134 0.883175969 -0.118201479
v 0.114112929 0.581756353 0.063719422
v -0.179368287 0.841751397 -0.082590483
v 0.128429219 0.580492795 0.066096053
v 0.046795662 0.725939095 0.052631300
v -0.148663431 0.869592845 0.049302142
v -0.125931948 0.792978346 -0.114117384
v -0.162168011 0.648000717 0.057782780
v 0.140564531 0.579872906 0.060136765
v -0.145178318 0.800062537 -0.106206462
v -0.021884646 0.788653970 0.050577782
v 0.153481528 0.579762042 0.053856678
v -0.043622710 0.791397274 0.054246299
v 0.166298002 0.579230189 0.047576997
v -0.028490668 0.809163213 0.051222704
v 0.176299721 0.579015374 0.037796594
v -0.019617090 0.862540424 0.061314274
v 0.182429209 0.579194903 0.025235180
v -0.069038384 0.883810699 -0.149387389
v 0.188112661 0.579135060 0.012602543
v 0.023430105 0.745365262 -0.089568853
v -0.091654688 0.852050960 -0.142014176
v -0.115066946 0.659282148 0.072243661
v 0.039589770 0.706674695 0.048900053
v 0.054385625 0.761006355 -0.097609214
v -0.119452380 0.841908336 -0.125339970
v -0.145652041 0.645109773 0.064987898
v 0.125672877 0.754400373 -0.109611891
v -0.132670313 0.831698418 -0.114178337
v 0.132917911 0.805897355 -0.111352228
v 0.140746281 0.787065387 -0.106874481
v 0.140942842 0.766211152 -0.104243658
v -0.168564841 0.665291786 0.057455242
v -0.148267642 0.820580602 -0.105273642
v 0.191384152 0.579533637 -0.014778176
v 0.186979607 0.580423951 -0.026779214
v -0.194195613 0.655859709 0.028022414
v 0.150022298 0.805142760 -0.103739060
v -0.166911662 0.830618382 -0.097147420
v -0.191413507 0.829296470 -0.065209664
v -0.197379485 0.841545582 -0.050762117
v -0.058885656 0.827492416 -0.126301199
v 0.148633763 0.684583724 -0.083322980
v -0.178332105 0.827010751 0.045724027
v -0.194240957 0.823828220 0.023643021
v -0.127896935 0.818601310 0.071744449
v -0.139896944 0.834238052 0.064656794
v 0.180338994 0.582207203 -0.038762651
v -0.023905078 0.821484864 -0.115174100
v 0.173637316 0.584069073 -0.050835889
v -0.042976253 0.816744208 -0.115677752
v 0.165236786 0.586623728 -0.061780147
v -0.029356131 0.697038591 -0.077454463
v 0.172544047 0.586556077 -0.073659785
v -0.112142779 0.871529698 0.053836286
v 0.158742726 0.586767673 -0.071260296
v -0.091782831 0.867516339 0.058675081
v 0.145716399 0.587293863 -0.066787452
v -0.025059000 0.804643035 -0.107018888
v 0.132230639 0.586376488 -0.070851006
v 0.164224744 0.793817103 -0.097101003
v -0.026821857 0.786084294 -0.100205109
v 0.119416580 0.586606026 -0.074907720
v -0.045574516 0.798806608 -0.106764033
v -0.181926802 0.797716737 -0.085721776
v 0.105414331 0.588036478 -0.073459707
v -0.148703754 0.886510074 0.041869722
v 0.092517570 0.590630233 -0.067763142
v -0.033355232 0.721325636 -0.083933070
v 0.079519585 0.593256295 -0.062175192
v 0.140914470 0.747785807 -0.101100922
v 0.066028200 0.595395386 -0.057832927
v -0.104559407 0.754679680 -0.110767342
v 0.051893346 0.596894085 -0.055743594
v -0.066543967 0.678592086 -0.082624890
v 0.037572924 0.597989202 -0.054805558
v 0.053400338 0.835177064 0.057357676
v -0.184964076 0.765824914 -0.076099977
v -0.197901741 0.621448755 -0.019359516
v 0.158587188 0.773856521 -0.097172461
v -0.208521798 0.781869054 -0.032635983
v -0.210009664 0.745891392 -0.023405615
v 0.167653307 0.677050412 -0.073646247
v -0.206127688 0.733763278 -0.042394109
v -0.009463632 0.626966953 -0.060529601
v 0.011553066 0.615560949 -0.057895504
v -0.009642260 0.612789452 -0.057258934
v -0.008888365 0.641318679 -0.063809976
v 0.168649793 0.816726685 -0.095814988
v -0.195468366 0.739641190 -0.057934284
v -0.008378796 0.655804515 -0.067169435
v -0.007984451 0.670459390 -0.070627883
v -0.209871083 0.730385780 -0.004362727
v -0.007473434 0.685340524 -0.074207984
v 0.175716788 0.780094028 -0.090091921
v -0.171105832 0.737514138 -0.085026339
v -0.102970444 0.608441174 -0.078316666
v -0.206384450 0.739144742 0.022350188
v 0.181811452 0.691823781 -0.065425262
v -0.200934857 0.720048785 0.031197375
v -0.090759769 0.740107775 -0.105221257
v -0.077559657 0.727263927 -0.098482043
v 0.183314994 0.798205376 -0.083012387
v -0.047368832 0.779464126 -0.100698255
v -0.004059794 0.793983459 -0.101354502
v -0.003672369 0.809002042 -0.107247256
v -0.105639115 0.853412449 0.065619513
v -0.003318694 0.823195338 -0.114043891
v -0.126840055 0.847320557 0.063155785
v 0.187191114 0.774748445 -0.073695868
v -0.114461482 0.834323883 0.070155188
v -0.003010116 0.836490512 -0.121935584
v -0.129218653 0.863102734 0.056350607
v -0.161069855 0.728829861 0.066693030
v -0.002793531 0.849679470 -0.129405275
v -0.117268361 0.887646556 0.046111155
v 0.188929245 0.819968522 -0.071797647
v 0.175415009 0.595822275 0.044715039
v -0.002655507 0.863664031 -0.134502158
v -0.132228836 0.879442990 0.047134530
v -0.002537011 0.877939343 -0.137893632
v -0.161621839 0.839790463 0.058136810
v 0.198602661 0.767287552 -0.055646412
v -0.163692847 0.857908607 0.045935415
v -0.210873649 0.775708616 0.003772690
v -0.002426566 0.892426670 -0.139242887
v -0.156323045 0.888854384 0.026071668
v -0.165019825 0.873665452 0.031569861
v -0.170074016 0.887321770 0.011874877
v -0.141472518 0.722638011 0.073106512
v 0.033231050 0.901445210 0.066886127
v 0.017606884 0.901371360 0.067590103
v 0.197988614 0.835087180 -0.050696842
v -0.000339018 0.872165859 0.064812489
v -0.181828186 0.886071682 -0.004381038
v 0.203054219 0.809675038 -0.048101969
v -0.177073479 0.889732242 -0.036349792
v -0.177026555 0.887784183 -0.053343594
v -0.076114655 0.659481347 -0.080409959
v 0.048966080 0.901640534 0.065349981
v 0.202645630 0.822943211 -0.029277628
v 0.208040386 0.782115459 -0.038037814
v -0.171016932 0.885796666 -0.070050955
v -0.157275766 0.890910149 -0.104769543
v -0.128812715 0.886130631 -0.131974891
v -0.149927273 0.840853095 -0.106238507
v -0.100294605 0.660185456 -0.091181062
v 0.080331892 0.901568592 0.061055005
v 0.064682238 0.901797414 0.063226625
v -0.101589940 0.837025642 -0.133762822
v -0.001228528 0.828736603 0.051631443
v -0.109628692 0.854178071 -0.137005955
v 0.207371593 0.800921261 -0.023955205
v -0.115988098 0.649686992 -0.089557633
v 0.094934657 0.901204884 0.055783220
v -0.031141186 0.695645392 0.044736441
v -0.034053631 0.605786145 0.030222530
v 0.201786757 0.832586169 -0.011416618
v -0.202134728 0.822717071 -0.040437918
v -0.044771068 0.649144351 0.042356744
v 0.108853437 0.900631130 0.049998075
v 0.206274241 0.691447735 -0.003498567
v -0.058396153 0.603682041 0.039382134
v 0.206519768 0.692015409 -0.021661291
v 0.205867916 0.814452529 -0.006324734
v 0.210064769 0.779331207 -0.011728699
v -0.061167825 0.660109460 0.049767662
v -0.080979958 0.602319717 0.051327180
v -0.102904558 0.602559149 0.060949683
v -0.097744122 0.650571823 0.064541757
v 0.203376412 0.803623796 0.018926706
v -0.099408671 0.633707881 0.063684888
v 0.209817201 0.796141207 -0.002050459
v -0.054689638 0.811800301 0.057055004
v 0.098894492 0.832064152 0.074145362
v -0.115211345 0.640612960 0.070807055
v 0.066645488 0.775609255 -0.103347704
v -0.124200642 0.600145936 0.069170423
v -0.189012319 0.662789106 -0.050764948
v -0.131876782 0.651358545 0.071904287
v -0.140745729 0.615058601 0.064264566
v 0.059558757 0.790913224 -0.106312476
v 0.177027598 0.853714645 0.032186691
v -0.133364618 0.632681370 0.069388345
v -0.191588879 0.647389412 -0.041777380
v -0.144991696 0.597201824 0.063761838
v 0.210257813 0.781267047 0.012518281
v 0.204881191 0.764950991 0.024160357
v -0.145640999 0.852070332 0.056945570
v -0.151895612 0.631984055 0.060841642
v -0.172758788 0.595743537 0.046344541
v 0.191539347 0.820019603 0.029435778
v 0.190601632 0.799556375 0.041665070
v -0.181980297 0.650817335 0.049416382
v -0.171738774 0.633289874 0.051891427
v 0.187309071 0.779134631 0.054150589
v -0.182455391 0.598830938 0.031910904
v 0.160554498 0.859309375 0.049067400
v -0.186000690 0.634402573 0.037588827
v 0.204717726 0.685431778 0.016459767
v -0.049105495 0.901941597 0.065200083
v -0.195350289 0.634809732 0.019747818
v -0.023082962 0.882124782 0.065261714
v 0.180066973 0.815523028 0.049552493
v -0.174796537 0.844994843 0.041728631
v 0.194628268 0.679275036 0.035136599
v -0.177363530 0.858021438 0.027994299
v -0.197447151 0.629602790 -0.000032815
v 0.180147618 0.760016918 0.062412642
v -0.187486559 0.841468453 0.026411390
v 0.020667236 0.834440351 -0.122618280
v 0.021835227 0.851817489 -0.133446217
v 0.164109364 0.812291324 0.063228540
v -0.028814161 0.890378356 -0.142237261
v 0.175167784 0.796327353 0.062924750
v -0.200210735 0.648948371 0.005606581
v -0.022544064 0.872013927 -0.139381766
v 0.024688171 0.723412871 0.047513701
v -0.025121715 0.638867140 -0.063442573
v -0.043546844 0.875062943 -0.146134049
v 0.145687506 0.821161389 0.066783197
v -0.050203931 0.892129421 -0.146442994
v -0.191603139 0.855695367 0.011182433
v 0.162216738 0.775439143 0.068196557
v -0.200949937 0.837745011 0.008246070
v 0.143909425 0.758696795 0.073534578
v -0.198622271 0.844395816 -0.030625299
v -0.202225447 0.830174327 -0.014671454
v 0.150159732 0.799294829 0.069310978
v -0.198097497 0.850341141 -0.009587342
v 0.123647116 0.766878843 0.079818524
v -0.195641086 0.601517379 -0.026340937
v -0.199214324 0.640383124 -0.013479523
v 0.106356025 0.678919971 0.070850775
v 0.127701297 0.676978111 0.076580055
v 0.096868560 0.734029412 -0.105971858
v 0.092029490 0.879702449 0.055216283
v -0.025615934 0.648474872 0.037813060
v 0.121119596 0.900323689 0.042892132
v -0.191683173 0.858387470 -0.045961298
v 0.136133581 0.694836855 0.074391134
v 0.122361779 0.810337543 0.075077645
v -0.200379565 0.649026871 -0.026990380
v -0.186540633 0.851762950 -0.065692663
v 0.133985519 0.902147591 0.044952806
v -0.164104789 0.852180779 -0.096199587
v 0.136601359 0.783036053 0.074779555
v -0.065644532 0.773976922 -0.102855183
v 0.095170043 0.698199749 0.068023823
v -0.182138294 0.599385321 -0.042024646
v 0.102052256 0.768505752 0.075609758
v -0.194978684 0.633265078 -0.031751029
v -0.181591451 0.644570947 -0.057967257
v -0.172456771 0.597228229 -0.057203423
v 0.074638844 0.694779396 0.059357863
v 0.112006828 0.788159728 0.079953127
v -0.066888474 0.742768645 -0.098410651
v 0.092019036 0.783193946 0.072104216
v -0.178122669 0.613038182 -0.052703839
v -0.175456002 0.659897625 -0.067720503
v 0.060592722 0.709518731 0.055273086
v -0.080794699 0.759201467 -0.104174182
v -0.166937649 0.605705321 -0.071282044
v 0.016540157 0.798149884 -0.103833511
v 0.090662614 0.805472493 0.072501771
v 0.073233142 0.822792888 0.063406147
v -0.166822881 0.641061723 -0.069359228
v 0.139129832 0.897729993 0.033069082
v 0.016259698 0.679526150 -0.073116593
v 0.017511401 0.663955748 -0.069369659
v -0.147598326 0.603415430 -0.069445945
v 0.148660496 0.898652911 0.023294087
v -0.125932857 0.755050480 -0.109939657
v 0.157311440 0.899630070 0.013070864
v -0.139802605 0.650262654 -0.081730828
v 0.044033103 0.857583046 -0.141572684
v -0.150092840 0.637187898 -0.074720964
v 0.165643916 0.901132464 0.002562206
v 0.030350585 0.706646323 -0.080786631
v 0.033573620 0.726036251 -0.085770115
v -0.137325361 0.739992142 -0.101966441
v 0.173992619 0.903696895 -0.007995522
v -0.143507689 0.758070409 -0.101973496
v -0.110662736 0.886931300 -0.139624387
v -0.043552466 0.867748857 0.061038565
v 0.172070816 0.902047276 -0.021820914
v -0.135429442 0.600938916 -0.083100058
v -0.156395227 0.747927368 -0.094091639
v -0.135296881 0.633320510 -0.079628170
v -0.150492698 0.860985160 -0.111910164
v 0.173633486 0.902993083 -0.035102718
v -0.173073977 0.757008672 -0.087752596
v 0.030256907 0.649805486 -0.066402100
v -0.119410232 0.606681466 -0.078816012
v -0.185267538 0.747819602 -0.073455572
v 0.174151257 0.903910160 -0.049825817
v -0.135918245 0.850003362 -0.117565587
v 0.174302012 0.904432416 -0.065038443
v -0.196286008 0.762969136 -0.059284896
v -0.129178852 0.638787329 -0.092886955
v 0.185754508 0.715968847 0.057043683
v 0.168708831 0.904403508 -0.079587325
v -0.205755904 0.749953747 -0.046190336
v 0.044468306 0.744216800 -0.091874145
v -0.090737753 0.610121727 -0.087267883
v -0.027227368 0.620586872 -0.059317619
v 0.162063658 0.904704452 -0.094067387
v -0.208927795 0.765777707 -0.039058469
v 0.198710158 0.781640768 0.033178948
v -0.025309715 0.678748488 0.041797690
v 0.141718417 0.903608501 -0.119338036
v 0.195458516 0.757565260 0.043941021
v -0.072716527 0.759016216 0.062776394
v -0.100596942 0.640736699 -0.086130500
v -0.082422234 0.618278027 -0.071322747
v 0.050783359 0.652402341 -0.069578484
v -0.085846528 0.649238348 -0.090524226
v -0.065019548 0.633271992 -0.067925066
v -0.063591823 0.614895403 -0.062799081
v 0.070801668 0.677156687 -0.083618388
v 0.056273799 0.727376521 -0.090961076
v -0.194073066 0.732451737 0.046779823
v 0.049819991 0.781407714 0.056420255
v 0.040274810 0.762019753 0.053539149
v -0.195583612 0.753587008 0.044692483
v 0.033589292 0.742399752 0.050847013
v -0.030856177 0.764564812 -0.094435789
v 0.092731312 0.712049544 -0.100064002
v -0.180446759 0.765513301 0.061832238
v -0.061112888 0.663867354 -0.075730801
v -0.066975087 0.649276376 -0.073311113
v 0.100044332 0.666044414 -0.092147902
v -0.176256210 0.744093001 0.062788576
v -0.045005679 0.632634938 -0.063055612
v 0.130617395 0.903251469 -0.130048305
v 0.115590490 0.682880044 -0.098052606
v -0.051517278 0.651151001 -0.068990171
v -0.156912044 0.758728385 0.069002345
v -0.045591109 0.676759779 -0.074303463
v 0.115797088 0.903018594 -0.136377811
v -0.032988477 0.655683815 -0.067662261
v 0.107140325 0.643472970 -0.089147002
v -0.194620922 0.611624658 -0.004790953
v -0.191469088 0.599740267 0.014109695
v 0.130432352 0.679201484 -0.090261355
v -0.147484094 0.741035819 0.072396077
v -0.131381705 0.753219128 0.077286609
v 0.113370895 0.721543193 -0.108488239
v -0.078533798 0.814793706 0.065267056
v -0.064831935 0.902309418 0.063032515
v -0.119822502 0.731900215 0.079723284
v 0.132267743 0.715312719 -0.099101201
v -0.108053222 0.749881268 0.076303616
v -0.090005897 0.798599541 0.071390256
v 0.166182950 0.719375551 -0.083080634
v -0.094772413 0.733061731 0.069903746
v 0.111743711 0.839110732 -0.130539864
v -0.079996459 0.778945625 0.066475615
v -0.103031740 0.783409178 0.076046191
v 0.181316212 0.711396337 -0.070434101
v -0.095119625 0.765621483 0.072102278
v 0.176384121 0.660695672 -0.067320101
v 0.183837533 0.672858119 -0.058991361
v -0.088545278 0.749272108 0.068481967
v -0.072742097 0.738290727 0.061483033
v -0.116845414 0.768217444 0.080570363
v -0.031204689 0.752038836 0.050273400
v -0.126150578 0.785778642 0.076766908
v -0.114718199 0.801770806 0.077868566
v 0.192726225 0.706599236 -0.053932589
v 0.202525020 0.678418756 -0.033872731
v -0.066602729 0.794613123 0.061690241
v -0.139981657 0.771047235 0.074494071
v -0.048459880 0.680764794 0.047560245
v -0.138805404 0.802471757 0.071468137
v 0.193273216 0.686013103 -0.049128197
v -0.156162232 0.818403900 0.063854083
v 0.204053923 0.674833179 -0.015415025
v -0.182396621 0.786819100 0.060512651
v 0.208486721 0.713962793 -0.017550062
v -0.162313357 0.777579010 0.067692295
v -0.067103274 0.831800103 0.061235987
v -0.178876489 0.807543576 0.055877827
v 0.198976666 0.639001012 -0.013895506
v -0.069080450 0.866639495 0.059665561
v -0.005274669 0.762268841 -0.092823841
v -0.063890383 0.884075344 0.061425455
v -0.188564405 0.811620057 0.037894465
v -0.205080196 0.762950122 0.023649218
v -0.044807833 0.887212396 0.064097516
v -0.004679452 0.778034449 -0.096944109
v -0.094960906 0.902155578 0.055476386
v -0.211087659 0.753110468 0.001211396
v 0.074538864 0.819362044 -0.121684648
v 0.120371446 0.875686288 -0.135825589
v -0.206141904 0.818159103 0.004487993
v -0.080400459 0.902373135 0.060781837
v 0.207986757 0.709259152 0.007177433
v 0.100401618 0.903120399 -0.142935127
v -0.191219971 0.862523377 -0.025660401
v 0.205134839 0.723305881 0.023137297
v -0.210273936 0.767758191 -0.016991349
v -0.209399506 0.789408684 -0.015441242
v -0.206153363 0.810001493 -0.017175131
v 0.084046975 0.903471768 -0.147423357
v 0.210914165 0.759976268 0.004629740
v 0.067054138 0.904225707 -0.148155749
v -0.090254717 0.834214687 0.070289180
v -0.018472414 0.853270710 -0.133048683
v 0.196369559 0.713905573 0.040072702
v 0.050167859 0.905172467 -0.145912528
v 0.059705604 0.890598595 -0.147681773
v 0.197320670 0.630311668 0.008635623
v -0.083311960 0.884113491 0.059023030
v -0.022720419 0.837553322 -0.124878205
v -0.202038050 0.783825338 -0.052304398
v -0.173341870 0.865697861 -0.080849394
v -0.101265609 0.817635417 0.076085739
v 0.033087708 0.906073093 -0.142894745
v -0.190351963 0.783340931 -0.070707232
v 0.015599037 0.906655312 -0.140840560
v -0.161774993 0.788582206 -0.098378398
v 0.183802634 0.635801256 0.042360358
v -0.177206606 0.777148426 -0.089344338
v 0.015090367 0.895247579 -0.140519813
v -0.002319438 0.906852424 -0.139996558
v 0.191007540 0.695169926 0.048492439
v 0.182084173 0.673696637 0.053515464
v 0.079879344 0.789404273 -0.109112307
v 0.018567922 0.877045810 0.064865686
v -0.165677935 0.809383571 -0.097491413
v -0.158762246 0.768344760 -0.096607849
v -0.165736467 0.886819720 -0.087909691
v 0.064874105 0.806119144 -0.113181032
v 0.170483485 0.694362164 0.060958017
v -0.140160412 0.777665019 -0.106897332
v -0.054706670 0.598245800 -0.057034660
v -0.107732877 0.787661493 -0.114026986
v -0.068783209 0.597559750 -0.060763776
v -0.082292311 0.596549988 -0.066216432
v -0.118158020 0.772770524 -0.115532145
v 0.149033338 0.682749629 0.068348773
v 0.161461085 0.667403579 0.061156966
v -0.093565926 0.595112205 -0.075179338
v 0.153358638 0.644465804 0.061799966
v -0.113719299 0.825117469 -0.121096984
v 0.040600203 0.871309876 0.063060813
v 0.025674593 0.859380066 0.059925564
v -0.100540772 0.592264056 -0.087304905
v 0.152124241 0.706223130 0.068612680
v -0.106384598 0.806448936 -0.117244974
v 0.134640813 0.711575866 0.075659014
v 0.139910132 0.660642147 0.069475606
v -0.104824267 0.590747476 -0.074238367
v -0.002278469 0.798463345 0.049096975
v -0.003457521 0.782931030 0.049245067
v -0.090171568 0.791574359 -0.112303093
v -0.118195727 0.587861359 -0.075844109
v -0.078960039 0.835458279 -0.135464519
v -0.097422108 0.773237586 -0.110666357
v -0.129361108 0.584987402 -0.081414528
v -0.138863072 0.585379660 -0.071201906
v -0.151629031 0.585529387 -0.065171443
v -0.054454930 0.771140397 0.056536905
v -0.029449239 0.771605134 0.051127411
v 0.088333502 0.682165504 0.063783720
v 0.091233887 0.664047658 0.063462034
v -0.163396448 0.584731936 -0.072354332
v -0.168037504 0.584306955 -0.059342466
v -0.032828860 0.714224100 0.047037952
v 0.072976530 0.675131321 0.056885727
v 0.053681958 0.688376367 0.050975062
v -0.175637856 0.583229423 -0.047610961
v -0.075232133 0.821592152 -0.123474285
v 0.081073754 0.713312984 0.063551851
v -0.182611465 0.582612038 -0.035526611
v -0.057295352 0.702243865 0.052641254
v 0.031037565 0.688046038 0.044787891
v -0.036663525 0.664154649 0.042069744
v -0.093652442 0.822587132 -0.124564908
v 0.027288225 0.647070289 0.039146606
v -0.070202336 0.681563497 0.055960137
v 0.074237466 0.747984052 0.063130207
v -0.037079297 0.634847105 0.038342323
v -0.058693223 0.637297153 0.045792799
v -0.057050973 0.842069507 -0.139740139
v -0.073540635 0.851318061 -0.144379899
v -0.076723129 0.718668938 0.061789840
v -0.059397947 0.862564862 -0.146256879
v 0.089492485 0.843479753 -0.140017912
v -0.194384724 0.581421316 -0.028422514
v 0.087191351 0.732028425 0.067327224
v -0.079142712 0.640663683 0.055635512
v -0.100776926 0.714663446 0.070968524
v 0.093850248 0.825982213 -0.127849370
v -0.081911251 0.663248956 0.059154980
v -0.091867991 0.681864262 0.064707935
v -0.079947352 0.850304306 0.062965274
v 0.068830088 0.657199860 -0.076384053
v -0.055399608 0.849382758 0.058413066
v 0.106299803 0.735988975 0.075251132
v -0.099928245 0.666774511 0.066722378
v 0.131246239 0.838302016 -0.116697289
v -0.189838618 0.581557453 -0.016498158
v -0.031752322 0.732951164 0.048738040
v 0.087307498 0.647229493 -0.081213675
v -0.188625321 0.580849528 0.010829745
v -0.133039549 0.689810038 0.075067557
v 0.082731739 0.664739728 -0.084471889
v -0.183500528 0.581100345 0.023411369
v -0.113615774 0.677886426 0.073146679
v 0.121057525 0.723607540 0.080013305
v 0.127244055 0.744390249 0.079177760
v 0.125711367 0.855746865 -0.127850026
v -0.177634925 0.581258953 0.035684112
v -0.123113230 0.710108757 0.078860529
v -0.170061409 0.581570506 0.047139805
v -0.133174136 0.669862747 0.073128954
v -0.157126054 0.582461357 0.051986523
v -0.148703918 0.582947552 0.062948957
v -0.142508104 0.706002355 0.071984723
v -0.152307063 0.677581608 0.065889530
v -0.135672212 0.583434045 0.062617563
v 0.145147964 0.731258750 0.073070660
v -0.156768173 0.695022404 0.065900005
v -0.122427240 0.583359361 0.066871822
v -0.109297596 0.584177494 0.061313223
v 0.125018537 0.636654735 -0.082612082
v -0.159868985 0.712503076 0.065462373
v 0.183661416 0.739003122 0.060196918
v 0.125447899 0.651274920 -0.086445197
v 0.158730835 0.886105239 -0.103183046
v -0.096056834 0.584937274 0.055392366
v -0.149071962 0.660483003 0.064933822
v -0.082559958 0.585694790 0.049476858
v 0.133003220 0.888700485 -0.128700480
v -0.069829181 0.586709440 0.041811202
v -0.056341272 0.587587297 0.035232194
v 0.196612328 0.733706295 0.041860826
v 0.142841816 0.854167640 -0.113399982
v -0.042270776 0.588264823 0.029641684
v -0.027251374 0.588211000 0.026780877
v -0.178615317 0.722288549 0.059720658
v -0.023159664 0.599720061 0.035329051
v -0.173381165 0.683650792 0.057930507
v 0.139519975 0.646439373 -0.080345288
v 0.153491393 0.836577296 -0.102720037
v 0.206363484 0.744899452 0.023395929
v -0.192738742 0.711313009 0.047049783
v -0.187919423 0.670461774 0.046053909
v -0.191370994 0.690852582 0.046108622
v -0.044946574 0.742370188 -0.091101855
v 0.155222476 0.641511083 -0.074588761
v 0.210285351 0.758107603 -0.017330324
v 0.153217047 0.869864643 -0.112325393
v 0.010725147 0.780027866 -0.097861461
v -0.054968268 0.759872735 -0.097372323
v 0.064441390 0.744270682 -0.097526923
v -0.054381214 0.725052953 0.053687386
v 0.210064322 0.734893620 -0.000775024
v -0.198156744 0.679343760 0.027462324
v -0.208571956 0.714705825 0.011936079
v -0.192475483 0.794433296 0.041309178
v 0.173803970 0.643225670 -0.071751237
v -0.203257874 0.670138836 0.007367056
v 0.128438666 0.879921436 0.047669314
v 0.209402412 0.737457514 -0.026688781
v -0.206435010 0.692211032 0.007804801
v -0.207975194 0.706505895 -0.010703554
v -0.208644301 0.721625209 -0.026922096
v 0.178344518 0.632758141 -0.057517182
v 0.204264313 0.721569180 -0.041654777
v -0.202088386 0.660574794 -0.012083700
v -0.210299686 0.797719479 0.004009882
v 0.159935445 0.853306949 -0.099601552
v -0.033299636 0.901503384 0.066763349
v 0.201437503 0.743355632 -0.049888931
v 0.187825173 0.750117779 -0.069568194
v -0.082548916 0.807891726 -0.116724923
v -0.061758876 0.810998738 -0.115389802
v 0.183563918 0.651747823 -0.055172671
v -0.205261439 0.682988822 -0.016649693
v 0.184409931 0.620914280 -0.044404246
v 0.192081779 0.727309048 -0.059174735
v -0.020030973 0.906966686 -0.141200423
v -0.037226774 0.906505704 -0.144434318
v 0.175996155 0.837956071 -0.089694336
v 0.017939810 0.757542491 0.049478985
v -0.054250222 0.905719578 -0.146742508
v -0.053275764 0.746720254 0.055043571
v 0.181123137 0.729778111 -0.074836269
v 0.169937953 0.740801692 -0.085727781
v -0.071120903 0.905031860 -0.148558632
v 0.173580348 0.858351231 -0.085140042
v -0.200881839 0.664918482 -0.032799911
v -0.087805480 0.904517055 -0.147471800
v -0.092006281 0.885862648 -0.146500930
v -0.206447035 0.800692737 -0.038239244
v -0.103518128 0.904238105 -0.141738981
v -0.118735597 0.904174507 -0.135324746
v 0.149962679 0.730450034 -0.093538359
v -0.196722567 0.717539728 -0.051501531
v -0.195742801 0.805740654 -0.063064568
v -0.182695791 0.819176972 -0.083241753
v -0.198087096 0.681457818 -0.042569585
v 0.185686901 0.846550643 -0.068991423
v 0.169404581 0.888797104 -0.073438630
v -0.184535071 0.630068362 -0.047366444
v 0.054206263 0.745439887 0.056089520
v 0.130194739 0.733957231 -0.104039386
v -0.067269854 0.792946339 -0.108265236
v -0.184269875 0.728231430 -0.070674099
v 0.177660674 0.884263396 -0.057878323
v -0.080540553 0.778329551 -0.107122183
v -0.175905555 0.625768602 -0.064894140
v 0.113939129 0.740400672 -0.111398995
v -0.183864057 0.677525043 -0.060423680
v -0.164246365 0.676942587 -0.075667389
v 0.181178913 0.882055581 -0.039958961
v -0.178756118 0.691356301 -0.069926798
v -0.168149650 0.718206286 -0.082409084
v 0.198260248 0.846342683 -0.028276751
v -0.157186761 0.656266809 -0.075732425
v -0.025223706 0.674328208 -0.071770534
v 0.077666119 0.729124308 -0.098600246
v -0.133194700 0.904462636 -0.128396794
v -0.143385202 0.904604554 -0.117301486
v -0.152553111 0.728746295 -0.092361018
v -0.149668902 0.709199071 -0.089657530
v -0.147422507 0.689214587 -0.085584193
v -0.144397154 0.669309914 -0.083158329
v -0.128913611 0.812655330 -0.113445379
v 0.072425582 0.784146547 0.064071395
v 0.191977367 0.641089201 -0.038435642
v -0.162785918 0.905284524 -0.092020601
v -0.169355229 0.905206323 -0.077821158
v 0.201573998 0.657823920 -0.027368035
v -0.009552440 0.598599076 -0.054382931
v -0.174112961 0.904943943 -0.063223071
v 0.198525175 0.850005925 -0.002973367
v -0.173992395 0.904223621 -0.048276778
v -0.173307210 0.903315902 -0.033940457
v -0.178079471 0.904684365 -0.021863021
v 0.209356472 0.757897019 -0.038441889
v 0.179847866 0.886629224 -0.024805997
v -0.170860291 0.902032852 -0.010595065
v -0.165864110 0.902252018 0.002206650
v -0.157108039 0.900326908 0.012212397
v 0.047260132 0.778989792 -0.100747570
v -0.148294464 0.899367034 0.022398109
v 0.182479590 0.883744061 -0.007959615
v -0.138645023 0.898245037 0.032103140
v -0.131863892 0.659007728 -0.095493540
v 0.191544324 0.843056798 0.020316672
v 0.013384370 0.712882578 -0.081230521
v -0.006833248 0.700419962 -0.077898003
v -0.006441382 0.715671718 -0.081498913
v 0.146699697 0.887111545 -0.116621509
v -0.133181527 0.679360747 -0.096773356
v -0.005981413 0.731087446 -0.085255787
v -0.133457929 0.720428884 -0.100059569
v 0.011741475 0.730244815 -0.085387632
v -0.005746362 0.746618569 -0.089016452
v -0.133845538 0.903281808 0.043825861
v 0.156808019 0.753728628 -0.094362676
v 0.175526187 0.884473681 0.008928096
v -0.116048574 0.669782043 -0.095009118
v -0.120871745 0.901749313 0.042713329
v -0.108772278 0.901796639 0.049726330
v 0.168167979 0.872011006 0.029048001
v 0.043764733 0.839550197 -0.133455366
v -0.133092925 0.699873686 -0.097914070
v -0.115154728 0.733520210 -0.110963382
v 0.162798449 0.888300717 0.019494986
v -0.115534231 0.689791799 -0.100232944
v 0.180639595 0.834095001 0.039517008
v -0.098578058 0.679947257 -0.096174479
v -0.005140267 0.736811757 0.046439271
v -0.100522235 0.885276496 0.052220684
v 0.143572271 0.889221191 0.044881020
v 0.149899989 0.874371052 0.047657199
v 0.153616086 0.886312485 0.033264741
v -0.083582118 0.669828296 -0.091860518
v -0.096628077 0.699995160 -0.099483147
v -0.079502933 0.689827502 -0.091977768
v 0.048983250 0.655008137 0.045801360
v -0.096040100 0.720148385 -0.103264727
v 0.048719928 0.875012279 -0.146715358
v -0.076338597 0.709509254 -0.094256997
v 0.024237663 0.869241416 -0.139041573
v -0.041105706 0.833322346 -0.127707869
v -0.038355548 0.853489101 -0.139674097
v 0.200238898 0.650149226 0.006723328
v 0.188841730 0.657610476 0.039541695
v -0.054440994 0.699994862 -0.084053762
v -0.057829123 0.723298490 -0.090763226
v -0.154177353 0.905060649 -0.105414845
v 0.169090033 0.844566345 0.049706940
v 0.150032818 0.841955066 0.060460668
v -0.191903323 0.595316470 -0.007219551
v 0.166502774 0.628207207 0.054253988
v 0.173539698 0.650793374 0.053938068
v -0.189228922 0.581231117 -0.002811302
v 0.135367796 0.858928382 0.057051223
v -0.043881088 0.613255441 -0.058655970
v -0.040099151 0.598576903 -0.055763055
v 0.013203102 0.629225612 0.034461457
v -0.025294831 0.598691106 -0.055061899
v -0.002975713 0.902336240 0.068217278
v 0.064912297 0.864854515 -0.147568509
v -0.017613012 0.901071370 0.067499444
v -0.027870893 0.621314704 0.034523387
v 0.132815897 0.638981938 0.070557036
v 0.035178557 0.887480617 0.065365404
v 0.085735328 0.603734612 0.054040164
v 0.074396722 0.617127597 0.051084429
v 0.106367230 0.613036752 0.064592853
v 0.046852086 0.822204292 -0.119409218
v 0.127448916 0.617329478 0.070803478
v 0.056721170 0.620347798 0.043763705
v 0.193774492 0.610705972 0.012029297
v 0.127711013 0.834389389 0.067674905
v 0.114670947 0.850244999 0.065156311
v 0.186648101 0.865575969 0.009988802
v 0.110373303 0.632762074 0.068768397
v 0.189548418 0.866610169 -0.020565875
v 0.190077290 0.861541390 -0.047852036
v 0.053770602 0.885315895 0.062805094
v 0.092006058 0.644199133 0.062146001
v 0.113866493 0.656046987 0.072077617
v 0.177980155 0.868643463 -0.069210678
v 0.167477041 0.878788471 -0.086445987
v 0.090888366 0.624444544 0.059343558
v 0.162501544 0.869168162 -0.097433910
v 0.172971278 0.614564061 -0.060744751
v 0.164275929 0.623556674 -0.078878000
v 0.070950210 0.653956056 0.053979170
v 0.138892695 0.624590278 -0.075153828
v 0.137991026 0.871307492 -0.124727510
v 0.073041789 0.634166837 0.052591223
v 0.115690030 0.699550807 0.076314561
v 0.147053450 0.621774435 0.062326558
v 0.179240197 0.614597559 0.044286378
v 0.189260215 0.622253180 0.027395885
v 0.203741267 0.700324714 -0.038131509
v 0.149590656 0.707353354 -0.088845134
v 0.052238233 0.638190031 0.044651769
v 0.132358596 0.696312904 -0.093954697
v 0.195539027 0.622859836 -0.026641155
v 0.195606440 0.618009686 -0.006857305
v 0.037957061 0.669531286 0.044228811
v 0.010891512 0.688550115 0.041940022
v 0.095435083 0.857028008 0.064606979
v 0.072211482 0.883907318 0.060853101
v 0.017330699 0.705962777 0.044610653
v 0.037836812 0.797919810 0.053339910
v 0.023456292 0.777898252 0.051126361
v 0.017431024 0.633355498 -0.062053390
v 0.060852986 0.868112087 0.060019381
v 0.035515465 0.668380141 -0.071549609
v 0.034978397 0.844776154 0.056050647
v 0.049362145 0.854383349 0.058450468
v 0.016268598 0.844331741 0.055081569
v 0.032601256 0.616871715 -0.058680862
v 0.053946652 0.673021436 -0.076089129
v 0.082337447 0.766509891 0.067445233
v 0.201127172 0.700586915 0.028406898
v 0.196330681 0.792285323 -0.061981045
v 0.056092657 0.615347862 -0.060454976
v 0.166192994 0.698185921 -0.078599058
v 0.122344688 0.774347484 -0.113978520
v 0.114522576 0.702295959 -0.103667736
v 0.079514228 0.611876488 -0.067693837
v 0.048716847 0.709346950 -0.084477708
v 0.035649557 0.762381434 -0.094824657
v 0.114437506 0.622147858 -0.082779683
v 0.100861073 0.607614219 -0.076601073
v 0.101133250 0.880626321 -0.142943993
v 0.079110116 0.866794884 0.060318656
v 0.074061215 0.846226811 0.062061436
v 0.124266364 0.604720950 -0.076604642
v 0.029137170 0.829782665 0.053451918
v 0.047181904 0.816569924 0.055532612
v 0.079091772 0.882087231 -0.148204535
v 0.147588670 0.605606556 -0.069323108
v 0.174990773 0.761141896 -0.086990997
v 0.021133637 0.816016674 -0.111863121
v 0.164860815 0.656820536 -0.074291512
v 0.167753115 0.603467286 -0.078035228
v 0.014574376 0.695954204 -0.077130534
v 0.168322235 0.598880410 -0.061291933
v 0.028665658 0.781395793 -0.099273942
v 0.179527536 0.600926101 -0.046506800
v 0.188533783 0.608787119 -0.033781182
v 0.067439973 0.728936553 0.059206761
v 0.106383108 0.859247804 -0.138907865
v 0.085780457 0.862888038 -0.146088362
v 0.015865102 0.762730360 -0.093457758
v 0.193510458 0.603700936 -0.018687570
v 0.118694767 0.664741397 -0.092406020
v 0.201659679 0.658146560 -0.009400710
v 0.193986133 0.643039584 0.025060777
v 0.151389286 0.662979603 -0.078738153
v 0.136194274 0.664523482 -0.085617229
v 0.184243798 0.600448430 0.028994163
v 0.167154819 0.829349339 0.059317011
v 0.202588916 0.827968478 0.010372860
v 0.193320513 0.664184451 -0.043912519
v 0.043860018 0.633669138 -0.063298322
v 0.160156995 0.603886604 0.053792905
v 0.093067050 0.750540853 0.070906252
v 0.203292847 0.670890510 0.003370913
v 0.198809743 0.664041519 0.021877155
v 0.086450085 0.678927541 -0.090491049
v 0.140472397 0.599380910 0.062422596
v 0.116656102 0.819677711 -0.118371226
v -0.004772533 0.752134442 0.047615893
v -0.006335729 0.676086843 0.039843250
v 0.057205785 0.668774486 0.050106950
v 0.119970106 0.598405898 0.068695769
v 0.141340405 0.821873009 -0.107898913
v -0.005772992 0.721589625 0.044651289
v -0.004262470 0.767532945 0.048647918
v 0.102525853 0.596391261 0.060408909
v 0.022346724 0.813324332 0.050852638
v -0.001654186 0.813717842 0.049738415
v 0.112797573 0.868117452 0.056569111
v 0.065324210 0.603293478 0.044357799
v 0.109312497 0.885547161 0.049355134
v 0.192160055 0.598081052 -0.002624942
v 0.110083915 0.753132701 0.077952966
v 0.034599569 0.887619615 -0.144151390
v 0.043526784 0.605235934 0.036770072
v 0.065746881 0.848408997 -0.143529117
v 0.018104089 0.608629704 0.032039206
v 0.035516258 0.624818265 0.037733935
v 0.040129244 0.801350415 -0.107585311
v 0.015768902 0.796565592 0.050117761
v 0.015596457 0.667330325 0.039657176
v -0.006877625 0.661143899 0.037798099
v -0.005919300 0.706313133 0.043257475
v 0.187478572 0.594083190 -0.030450612
v -0.005975587 0.691127837 0.041716635
v 0.069191046 0.634535253 -0.069418728
v 0.084328324 0.748909831 -0.103792407
v 0.103877462 0.758917332 -0.110493362
v 0.163168818 0.747268796 0.067693576
v 0.101366602 0.716819465 0.071916334
v 0.166467592 0.723071396 0.064672954
v 0.092604771 0.627239883 -0.078355715
v 0.190441817 0.593068421 0.013434501
f 555 540 123
f 389 162 497
f 567 540 568
f 583 104 251
f 463 489 430
f 453 94 255
f 483 484 162
f 446 640 671
f 574 577 251
f 50 244 238
f 52 244 50
f 575 57 53
f 55 249 52
f 55 2 250
f 577 248 563
f 575 437 432
f 57 597 589
f 2 265 262
f 589 592 57
f 262 259 2
f 5 267 262
f 602 606 589
f 5 9 11
f 58 606 610
f 11 272 5
f 12 278 11
f 565 793 8
f 630 60 632
f 13 425 12
f 424 289 160
f 289 424 13
f 643 649 60
f 181 403 179
f 483 206 484
f 163 651 174
f 53 563 558
f 651 65 650
f 163 389 384
f 683 66 65
f 455 558 563
f 165 384 171
f 340 331 34
f 67 66 683
f 206 470 63
f 385 102 856
f 67 702 70
f 344 340 696
f 179 403 406
f 710 70 702
f 16 352 14
f 111 112 59
f 63 64 655
f 18 368 16
f 710 742 753
f 119 112 111
f 394 671 545
f 551 922 903
f 19 375 18
f 753 740 711
f 406 470 179
f 261 615 108
f 545 453 439
f 178 386 530
f 24 386 23
f 72 753 742
f 26 396 24
f 768 765 72
f 119 142 112
f 32 63 470
f 112 142 161
f 399 400 396
f 154 343 182
f 545 671 448
f 399 415 400
f 768 770 765
f 32 406 410
f 418 415 399
f 770 183 777
f 387 300 166
f 415 418 422
f 105 86 299
f 169 42 839
f 170 142 119
f 173 172 705
f 329 638 343
f 134 738 737
f 185 638 329
f 692 661 145
f 150 74 741
f 637 345 873
f 132 145 661
f 170 184 142
f 138 495 760
f 138 136 188
f 136 194 188
f 201 87 194
f 270 87 205
f 216 49 210
f 46 216 724
f 198 184 170
f 43 96 907
f 219 39 218
f 45 43 41
f 224 37 219
f 498 224 514
f 86 105 342
f 225 36 514
f 378 107 110
f 80 233 107
f 22 41 43
f 198 217 849
f 41 581 45
f 103 233 76
f 76 40 103
f 222 217 214
f 678 100 40
f 98 41 22
f 366 41 98
f 40 76 678
f 215 4 284
f 215 98 21
f 537 536 92
f 222 234 217
f 904 537 92
f 460 462 30
f 284 471 366
f 222 239 246
f 586 903 759
f 462 28 30
f 246 234 222
f 454 449 28
f 237 391 924
f 560 319 921
f 246 888 252
f 431 471 282
f 455 560 391
f 319 560 241
f 50 238 793
f 50 566 52
f 52 574 55
f 258 263 510
f 244 52 249
f 55 253 2
f 284 792 657
f 303 670 667
f 303 100 674
f 250 249 55
f 273 274 252
f 251 253 574
f 100 303 301
f 301 570 100
f 104 261 257
f 677 100 678
f 273 285 274
f 257 2 253
f 2 257 265
f 250 2 259
f 570 568 40
f 752 292 293
f 294 296 285
f 285 296 274
f 684 497 679
f 277 274 296
f 440 447 442
f 579 489 463
f 692 329 695
f 259 262 267
f 871 736 360
f 262 271 9
f 40 100 570
f 570 567 568
f 203 128 270
f 310 296 294
f 305 296 310
f 87 270 194
f 9 5 262
f 5 272 600
f 276 9 271
f 9 276 11
f 272 11 278
f 302 323 310
f 568 103 40
f 108 615 89
f 280 11 276
f 11 280 12
f 103 568 540
f 278 12 425
f 323 337 328
f 283 12 280
f 12 283 13
f 283 297 289
f 289 13 283
f 540 561 231
f 425 13 424
f 209 288 205
f 291 125 286
f 346 337 323
f 49 304 288
f 173 350 351
f 297 654 314
f 347 158 864
f 304 47 311
f 47 304 49
f 47 46 481
f 360 361 855
f 501 684 146
f 481 311 47
f 46 39 481
f 343 695 329
f 314 289 297
f 289 314 160
f 481 321 308
f 481 39 321
f 325 122 321
f 325 321 37
f 37 321 39
f 333 160 314
f 324 266 333
f 527 107 231
f 84 121 325
f 36 327 498
f 160 333 34
f 327 120 84
f 36 82 371
f 277 393 390
f 689 34 333
f 34 689 340
f 313 34 331
f 266 334 689
f 334 260 341
f 340 335 331
f 107 527 110
f 54 404 405
f 696 14 344
f 61 401 44
f 38 299 407
f 358 14 348
f 14 358 16
f 344 14 352
f 356 704 712
f 352 16 368
f 413 62 417
f 370 16 358
f 16 370 18
f 175 705 134
f 713 115 110
f 371 27 378
f 27 371 82
f 381 18 370
f 18 381 19
f 368 18 375
f 80 378 27
f 19 381 235
f 19 395 23
f 19 23 178
f 202 506 913
f 23 395 24
f 386 24 396
f 398 24 395
f 24 398 26
f 26 398 220
f 26 412 399
f 396 26 399
f 418 399 412
f 164 180 444
f 444 443 164
f 175 173 705
f 685 84 120
f 422 300 415
f 685 121 84
f 172 169 300
f 172 300 422
f 78 80 27
f 226 365 78
f 89 615 114
f 240 485 309
f 134 737 175
f 226 27 82
f 245 459 452
f 187 186 140
f 243 459 245
f 189 187 130
f 581 466 579
f 467 472 637
f 308 122 240
f 138 579 466
f 430 255 463
f 499 435 430
f 453 430 435
f 435 440 439
f 435 499 450
f 243 479 281
f 308 321 122
f 897 438 584
f 439 453 435
f 243 281 893
f 450 440 435
f 480 859 865
f 440 449 447
f 442 439 440
f 450 449 440
f 447 449 454
f 492 488 493
f 127 458 456
f 449 456 28
f 82 225 708
f 454 28 462
f 28 456 30
f 456 450 127
f 30 456 458
f 225 82 36
f 30 464 460
f 506 507 502
f 126 469 125
f 287 508 509
f 207 507 506
f 410 460 32
f 126 306 477
f 460 464 644
f 644 32 460
f 32 644 63
f 475 31 576
f 470 406 32
f 64 63 644
f 306 309 477
f 125 464 458
f 528 795 511
f 516 523 524
f 655 206 63
f 206 655 484
f 206 474 470
f 162 679 497
f 316 322 822
f 313 160 34
f 37 498 325
f 523 316 534
f 497 684 501
f 501 146 505
f 146 512 503
f 505 503 513
f 263 515 510
f 512 120 115
f 503 512 91
f 517 513 503
f 115 713 91
f 458 203 125
f 315 547 548
f 91 512 115
f 547 330 336
f 91 713 88
f 517 88 522
f 552 548 547
f 532 88 713
f 88 532 519
f 552 336 553
f 522 519 541
f 527 231 561
f 127 128 458
f 538 660 692
f 514 36 498
f 224 498 37
f 538 692 695
f 114 626 631
f 553 342 105
f 219 37 39
f 555 660 561
f 127 450 499
f 891 199 824
f 660 555 661
f 218 39 46
f 199 97 886
f 366 98 284
f 22 21 98
f 41 366 581
f 43 232 22
f 907 232 43
f 96 536 907
f 45 463 255
f 45 581 463
f 255 94 96
f 255 96 45
f 94 453 545
f 448 546 545
f 582 593 594
f 595 584 438
f 216 46 47
f 216 47 49
f 551 640 558
f 558 640 569
f 49 288 209
f 793 565 50
f 569 53 558
f 566 50 565
f 209 210 49
f 841 351 350
f 574 52 566
f 578 53 57
f 612 609 423
f 53 578 563
f 575 53 569
f 597 432 211
f 253 55 574
f 57 575 597
f 578 57 592
f 592 583 578
f 627 609 612
f 584 621 628
f 603 589 606
f 602 589 597
f 634 819 627
f 610 606 602
f 835 318 229
f 626 606 58
f 610 624 58
f 58 624 630
f 632 58 630
f 634 884 869
f 58 632 626
f 60 642 632
f 642 60 649
f 60 630 181
f 650 649 643
f 662 652 645
f 656 628 621
f 621 636 656
f 658 659 204
f 64 644 469
f 466 495 138
f 694 377 700
f 468 471 431
f 663 650 65
f 628 656 668
f 679 162 484
f 65 686 663
f 672 673 659
f 686 65 66
f 683 65 651
f 468 431 478
f 683 693 67
f 685 146 684
f 146 685 512
f 696 340 689
f 66 67 701
f 473 495 478
f 66 698 686
f 702 67 693
f 668 675 687
f 701 698 66
f 405 690 54
f 701 67 70
f 54 690 564
f 14 696 348
f 711 70 710
f 699 70 711
f 702 709 710
f 229 318 236
f 657 282 471
f 710 709 742
f 753 756 740
f 756 753 72
f 742 754 72
f 72 754 768
f 72 765 756
f 766 765 770
f 490 193 496
f 130 772 496
f 770 776 766
f 15 719 168
f 87 201 148
f 183 770 768
f 201 194 136
f 422 705 172
f 633 777 338
f 777 633 150
f 408 74 633
f 638 185 408
f 106 730 258
f 688 379 694
f 275 631 118
f 185 692 145
f 197 750 749
f 736 737 738
f 263 258 730
f 738 741 743
f 185 145 143
f 743 741 744
f 744 741 74
f 744 467 879
f 132 140 145
f 123 132 661
f 741 738 150
f 123 540 567
f 773 772 567
f 738 134 150
f 78 27 226
f 238 623 1
f 264 279 779
f 776 150 134
f 134 705 420
f 695 541 538
f 104 599 261
f 365 681 680
f 761 762 763
f 365 678 76
f 76 78 365
f 411 156 420
f 156 411 220
f 541 519 538
f 220 764 156
f 76 233 78
f 80 78 233
f 168 789 387
f 70 699 701
f 398 395 228
f 434 437 445
f 779 780 887
f 428 432 434
f 926 317 706
f 197 749 745
f 213 6 4
f 279 785 780
f 419 427 428
f 148 201 745
f 454 462 419
f 526 782 783
f 381 734 235
f 410 414 419
f 493 769 913
f 511 4 215
f 4 511 213
f 406 414 410
f 208 731 729
f 21 511 215
f 210 728 727
f 794 800 823
f 511 21 529
f 470 474 179
f 724 218 46
f 227 110 115
f 118 280 275
f 219 218 722
f 806 800 794
f 803 804 256
f 716 778 225
f 224 219 720
f 407 86 690
f 356 734 381
f 389 497 380
f 809 795 528
f 810 806 811
f 717 716 514
f 497 501 380
f 317 697 429
f 810 818 821
f 913 771 202
f 341 698 699
f 373 376 159
f 369 177 373
f 341 260 698
f 260 334 266
f 365 226 681
f 517 522 354
f 828 821 818
f 354 362 364
f 569 640 446
f 519 522 88
f 767 828 818
f 266 324 676
f 602 597 211
f 804 834 256
f 121 240 122
f 345 868 918
f 610 602 211
f 169 839 166
f 427 195 211
f 643 179 174
f 683 651 165
f 693 683 171
f 627 884 634
f 324 654 676
f 846 397 841
f 841 397 374
f 362 709 369
f 580 397 846
f 192 188 190
f 192 499 489
f 128 192 190
f 270 205 203
f 205 288 286
f 291 306 126
f 208 148 733
f 288 304 291
f 304 311 306
f 311 481 308
f 286 125 203
f 283 118 297
f 589 599 592
f 283 280 118
f 227 115 120
f 747 805 732
f 707 226 82
f 107 378 80
f 275 114 631
f 118 646 297
f 89 114 275
f 231 233 103
f 87 209 205
f 816 872 870
f 271 108 89
f 248 560 455
f 248 241 560
f 108 271 265
f 566 565 241
f 86 876 690
f 622 244 619
f 517 91 88
f 574 566 248
f 715 662 889
f 244 249 618
f 249 250 614
f 882 465 718
f 253 251 257
f 774 465 882
f 250 259 608
f 883 494 774
f 921 391 560
f 259 267 604
f 54 564 847
f 251 577 583
f 600 267 5
f 89 276 271
f 503 91 517
f 690 405 407
f 275 276 89
f 892 573 582
f 272 278 596
f 248 577 574
f 280 276 275
f 425 588 591
f 425 424 781
f 781 313 572
f 424 313 781
f 572 585 781
f 314 654 324
f 136 197 201
f 313 557 572
f 237 551 558
f 554 331 335
f 334 341 348
f 760 136 138
f 335 344 549
f 341 699 704
f 348 696 334
f 921 319 7
f 358 348 704
f 344 352 544
f 912 582 594
f 903 586 551
f 352 368 543
f 381 370 356
f 368 375 539
f 788 8 3
f 535 375 178
f 221 795 809
f 828 767 562
f 559 833 920
f 921 920 899
f 546 448 898
f 903 922 836
f 38 903 299
f 235 228 395
f 405 669 407
f 546 92 94
f 400 518 520
f 92 546 904
f 639 35 926
f 386 396 525
f 927 926 33
f 928 605 930
f 200 490 298
f 94 545 546
f 96 92 536
f 927 56 852
f 143 472 408
f 220 412 26
f 400 520 521
f 412 220 411
f 109 113 152
f 920 832 559
f 418 412 411
f 152 113 746
f 387 789 786
f 420 418 411
f 746 161 867
f 418 420 422
f 490 773 298
f 496 772 773
f 394 442 445
f 562 767 832
f 739 636 820
f 204 725 658
f 773 490 496
f 725 223 635
f 447 454 428
f 472 186 637
f 215 284 98
f 189 130 496
f 458 464 30
f 410 462 460
f 125 469 464
f 635 247 487
f 487 269 629
f 641 487 629
f 268 269 487
f 269 393 629
f 390 269 268
f 469 126 64
f 349 761 763
f 655 64 477
f 303 674 670
f 290 393 277
f 611 290 928
f 163 474 483
f 928 307 605
f 635 641 648
f 531 605 533
f 677 674 100
f 477 309 485
f 506 202 207
f 679 485 240
f 240 121 684
f 312 912 594
f 684 679 240
f 121 685 684
f 186 187 345
f 503 505 146
f 912 332 892
f 772 130 132
f 685 120 512
f 501 505 159
f 725 648 658
f 505 513 373
f 513 517 364
f 892 847 564
f 110 527 713
f 714 847 339
f 522 541 154
f 51 714 346
f 231 103 540
f 714 51 404
f 541 695 343
f 567 772 123
f 502 500 506
f 578 577 563
f 867 659 673
f 577 578 583
f 597 575 432
f 592 104 583
f 913 492 493
f 845 167 839
f 599 104 592
f 386 178 23
f 599 603 615
f 110 227 378
f 615 261 599
f 706 402 639
f 603 626 114
f 132 123 772
f 624 610 195
f 409 706 317
f 746 673 682
f 114 615 603
f 120 327 227
f 624 414 403
f 691 429 697
f 642 631 632
f 642 118 631
f 429 433 853
f 646 118 642
f 642 649 646
f 152 682 691
f 682 433 691
f 181 643 60
f 654 297 646
f 122 325 121
f 140 130 187
f 421 416 617
f 123 661 555
f 309 308 240
f 698 260 686
f 702 693 177
f 698 701 699
f 672 441 436
f 291 126 125
f 109 691 697
f 143 140 186
f 874 872 816
f 665 441 672
f 188 192 489
f 665 658 653
f 712 704 699
f 653 451 665
f 927 697 317
f 712 740 734
f 648 461 653
f 178 375 19
f 923 880 116
f 641 461 648
f 740 756 748
f 748 758 228
f 926 706 639
f 479 641 482
f 754 742 362
f 354 754 362
f 407 669 38
f 203 458 128
f 482 629 620
f 756 765 758
f 182 754 154
f 128 127 192
f 254 246 252
f 611 382 620
f 764 398 228
f 499 192 127
f 764 766 156
f 766 776 156
f 930 611 928
f 420 156 776
f 140 132 130
f 788 7 8
f 387 166 168
f 420 776 134
f 136 760 197
f 300 387 415
f 750 197 760
f 745 201 197
f 148 208 209
f 733 148 745
f 258 35 106
f 593 533 605
f 731 208 733
f 236 318 910
f 729 210 208
f 728 210 729
f 727 216 210
f 188 489 579
f 929 573 556
f 724 216 727
f 573 929 582
f 723 218 724
f 722 218 723
f 720 219 722
f 717 224 720
f 514 224 717
f 188 579 138
f 876 556 573
f 707 681 226
f 898 904 546
f 472 143 186
f 212 795 221
f 899 391 921
f 854 925 931
f 213 795 212
f 140 143 145
f 404 54 714
f 833 922 924
f 415 387 786
f 143 408 185
f 238 3 793
f 1 3 238
f 31 799 752
f 622 238 244
f 918 799 515
f 380 376 171
f 915 752 357
f 617 476 421
f 619 244 618
f 618 249 616
f 616 249 614
f 636 739 613
f 388 613 10
f 614 250 608
f 357 791 915
f 383 688 388
f 608 259 607
f 571 438 576
f 295 667 666
f 92 96 94
f 607 259 604
f 372 726 700
f 667 295 303
f 367 726 372
f 604 267 601
f 298 295 207
f 923 875 880
f 363 732 367
f 408 467 74
f 148 209 87
f 298 301 295
f 359 747 363
f 601 267 600
f 359 355 755
f 600 272 598
f 598 272 596
f 353 755 355
f 301 298 773
f 596 278 591
f 747 755 751
f 591 278 425
f 588 425 781
f 388 688 813
f 769 771 913
f 763 353 349
f 202 771 200
f 506 500 913
f 74 467 744
f 773 570 301
f 82 708 707
f 320 647 326
f 500 492 913
f 331 554 557
f 242 910 320
f 344 335 340
f 910 908 647
f 554 335 550
f 239 222 703
f 549 550 335
f 549 344 544
f 166 167 168
f 544 352 543
f 543 368 542
f 17 15 167
f 17 845 157
f 907 536 919
f 157 850 155
f 155 850 153
f 542 368 539
f 150 633 74
f 153 854 151
f 151 854 149
f 149 858 147
f 147 862 144
f 539 375 535
f 759 903 38
f 530 535 178
f 144 862 141
f 141 866 139
f 139 866 137
f 530 386 525
f 137 870 135
f 525 396 521
f 135 870 872
f 133 872 131
f 131 874 129
f 129 923 117
f 923 874 875
f 170 119 902
f 521 396 400
f 20 932 101
f 99 101 932
f 99 886 97
f 95 97 199
f 95 891 93
f 93 896 90
f 518 400 786
f 90 896 85
f 85 901 83
f 83 905 81
f 169 166 300
f 81 905 79
f 77 79 796
f 77 909 75
f 439 394 545
f 75 914 73
f 73 914 71
f 71 916 69
f 442 394 439
f 468 466 366
f 442 447 434
f 7 562 920
f 794 534 811
f 924 899 833
f 434 447 428
f 428 454 419
f 419 462 410
f 38 898 759
f 902 111 897
f 466 468 495
f 526 524 534
f 25 59 56
f 96 43 45
f 895 401 61
f 182 343 338
f 483 389 163
f 483 162 389
f 897 59 25
f 883 894 775
f 776 777 150
f 59 897 111
f 380 384 389
f 774 882 893
f 111 902 119
f 778 708 225
f 501 159 380
f 167 166 839
f 159 505 373
f 176 191 867
f 373 513 369
f 364 369 513
f 850 890 925
f 354 364 517
f 354 522 154
f 177 369 709
f 154 541 343
f 446 445 437
f 376 380 159
f 204 223 725
f 217 198 214
f 214 703 222
f 437 569 446
f 610 211 195
f 414 624 195
f 403 630 624
f 889 718 715
f 160 313 424
f 181 630 403
f 888 246 239
f 179 643 181
f 174 650 643
f 651 650 174
f 163 384 165
f 487 247 268
f 165 651 163
f 171 683 165
f 174 474 163
f 557 313 331
f 475 515 799
f 376 693 171
f 285 273 757
f 177 693 376
f 627 885 884
f 174 179 474
f 509 508 516
f 294 302 310
f 709 702 177
f 709 362 742
f 154 754 354
f 182 338 183
f 780 785 803
f 183 768 182
f 423 413 881
f 183 338 777
f 638 338 343
f 633 638 408
f 590 401 895
f 692 185 329
f 190 188 194
f 515 475 25
f 270 190 194
f 190 270 128
f 195 427 414
f 7 788 562
f 915 878 571
f 877 595 438
f 203 205 286
f 44 48 61
f 474 206 483
f 210 209 208
f 61 62 895
f 413 895 62
f 211 432 427
f 172 42 169
f 398 764 220
f 515 263 918
f 437 575 569
f 228 758 764
f 124 885 426
f 175 871 350
f 84 498 327
f 225 514 716
f 327 371 227
f 918 263 730
f 898 448 759
f 371 327 36
f 839 374 890
f 227 371 378
f 451 441 665
f 228 235 748
f 444 180 457
f 233 231 107
f 187 868 345
f 759 448 586
f 189 292 868
f 734 748 235
f 653 461 826
f 924 922 237
f 292 193 196
f 446 671 394
f 461 641 479
f 922 551 237
f 391 237 455
f 482 641 629
f 918 868 799
f 196 200 293
f 771 293 200
f 558 455 237
f 281 287 894
f 894 893 281
f 248 566 241
f 257 251 104
f 255 430 453
f 257 261 265
f 509 775 287
f 260 266 676
f 509 516 524
f 265 261 108
f 523 516 531
f 322 316 523
f 273 252 888
f 265 271 262
f 811 534 316
f 316 315 811
f 676 686 260
f 366 466 581
f 478 495 468
f 330 547 315
f 547 336 552
f 366 471 468
f 760 495 473
f 657 471 284
f 336 342 553
f 553 900 552
f 832 900 553
f 865 878 791
f 792 284 4
f 31 571 576
f 286 288 291
f 438 571 877
f 906 864 863
f 4 790 792
f 8 7 319
f 303 295 301
f 291 304 306
f 570 773 567
f 739 617 392
f 617 416 392
f 306 311 309
f 309 311 308
f 170 628 668
f 613 739 10
f 739 392 10
f 656 675 668
f 656 815 675
f 680 678 365
f 813 613 388
f 324 333 314
f 687 198 668
f 379 688 383
f 295 666 207
f 815 656 636
f 377 694 379
f 325 498 84
f 689 333 266
f 334 696 689
f 700 377 372
f 861 834 860
f 703 721 239
f 732 726 367
f 834 861 256
f 348 341 704
f 747 732 363
f 356 358 704
f 735 888 721
f 370 358 356
f 735 264 757
f 735 273 888
f 755 747 359
f 369 364 362
f 353 763 755
f 647 761 326
f 761 349 326
f 376 373 177
f 779 757 264
f 780 779 279
f 384 380 171
f 235 395 19
f 736 871 737
f 562 788 917
f 910 647 320
f 785 804 803
f 414 406 403
f 256 323 803
f 813 675 815
f 415 786 400
f 427 419 414
f 422 420 705
f 432 428 427
f 430 489 499
f 587 580 590
f 437 434 432
f 445 442 434
f 446 394 445
f 671 586 448
f 819 609 627
f 456 449 450
f 455 563 248
f 865 791 769
f 581 579 463
f 645 652 817
f 644 464 469
f 652 662 715
f 874 923 129
f 715 664 652
f 694 812 688
f 477 64 126
f 750 760 473
f 485 655 477
f 465 715 718
f 507 207 666
f 465 774 494
f 865 486 480
f 812 675 813
f 485 484 655
f 207 202 298
f 883 504 825
f 493 865 769
f 783 782 504
f 679 484 485
f 202 200 298
f 196 490 200
f 196 193 490
f 877 859 476
f 302 803 323
f 189 496 193
f 814 806 810
f 168 719 789
f 821 814 810
f 391 899 924
f 713 527 532
f 467 408 472
f 302 294 887
f 786 787 518
f 538 519 532
f 561 532 527
f 926 35 33
f 538 532 660
f 540 555 561
f 551 586 640
f 319 241 565
f 660 532 561
f 113 161 746
f 161 176 867
f 8 319 565
f 223 247 635
f 781 585 784
f 620 629 393
f 887 780 302
f 269 390 393
f 671 640 586
f 781 784 588
f 599 589 603
f 393 290 611
f 626 603 606
f 928 290 305
f 623 238 622
f 625 1 623
f 774 893 894
f 312 332 912
f 626 632 631
f 332 339 847
f 847 892 332
f 757 887 285
f 847 714 54
f 793 3 8
f 732 807 726
f 858 931 857
f 675 812 687
f 168 167 15
f 273 735 757
f 920 921 7
f 402 385 639
f 167 845 17
f 638 633 338
f 646 649 663
f 650 663 649
f 845 850 157
f 888 239 721
f 663 654 646
f 706 409 48
f 850 854 153
f 676 654 663
f 429 409 317
f 661 692 660
f 854 858 149
f 676 663 686
f 858 862 147
f 433 429 691
f 678 680 677
f 699 711 712
f 712 734 356
f 711 710 753
f 862 866 141
f 712 711 740
f 682 436 827
f 734 740 748
f 866 870 137
f 214 687 808
f 748 756 758
f 664 816 652
f 872 133 135
f 198 687 214
f 754 182 768
f 872 874 131
f 665 659 658
f 758 765 766
f 658 648 653
f 766 764 758
f 776 770 777
f 668 198 170
f 117 923 116
f 787 786 789
f 929 330 822
f 533 822 322
f 556 336 330
f 531 322 523
f 899 920 833
f 662 444 889
f 346 323 256
f 491 482 620
f 116 880 911
f 911 20 116
f 382 491 620
f 911 932 20
f 932 886 99
f 645 443 662
f 930 382 611
f 382 930 516
f 886 824 199
f 605 531 930
f 491 508 848
f 628 170 902
f 256 347 346
f 482 848 479
f 891 896 93
f 347 256 861
f 820 617 739
f 866 819 817
f 605 594 593
f 896 901 85
f 929 593 582
f 612 881 885
f 901 905 83
f 826 451 653
f 451 457 180
f 672 659 665
f 441 180 851
f 79 905 796
f 436 673 672
f 436 851 827
f 909 914 75
f 682 673 436
f 914 916 71
f 584 902 897
f 876 86 342
f 69 916 1
f 829 433 827
f 700 808 694
f 788 3 916
f 853 829 417
f 409 61 48
f 402 48 855
f 870 817 816
f 855 29 360
f 874 816 664
f 385 361 102
f 830 880 875
f 576 897 25
f 819 634 817
f 68 69 1
f 106 856 730
f 743 736 738
f 910 242 236
f 862 857 819
f 744 879 102
f 880 830 831
f 840 528 843
f 401 846 44
f 803 302 780
f 769 791 357
f 878 915 791
f 831 911 880
f 918 873 345
f 576 25 475
f 799 31 475
f 841 29 846
f 879 856 102
f 106 639 385
f 573 564 876
f 911 831 802
f 342 556 876
f 337 339 332
f 25 510 515
f 350 29 841
f 564 573 892
f 892 582 912
f 510 25 56
f 864 906 837
f 312 328 337
f 929 822 593
f 33 35 258
f 871 360 29
f 840 860 835
f 864 158 863
f 29 855 44
f 916 914 917
f 808 687 812
f 594 307 312
f 307 305 328
f 916 917 788
f 33 56 927
f 840 835 809
f 307 594 605
f 736 743 361
f 531 516 930
f 290 277 305
f 852 109 927
f 318 835 860
f 21 844 529
f 852 59 112
f 620 393 611
f 102 743 744
f 112 113 852
f 751 763 762
f 647 785 762
f 805 747 751
f 252 268 254
f 230 835 229
f 487 641 635
f 637 879 467
f 124 851 164
f 809 230 221
f 161 142 176
f 807 732 805
f 247 234 254
f 230 809 835
f 808 700 807
f 345 637 186
f 176 184 191
f 812 694 808
f 204 849 223
f 849 204 191
f 813 688 812
f 635 648 725
f 849 184 198
f 815 613 813
f 815 636 613
f 217 223 849
f 659 191 204
f 217 234 223
f 191 184 849
f 859 480 421
f 795 213 511
f 245 461 243
f 878 865 859
f 802 886 932
f 191 659 867
f 452 718 889
f 223 234 247
f 176 142 184
f 246 254 234
f 865 493 486
f 293 771 357
f 268 247 254
f 771 769 357
f 805 264 735
f 268 252 390
f 161 113 112
f 486 493 488
f 390 252 274
f 867 673 746
f 264 751 279
f 274 277 390
f 746 682 152
f 281 848 287
f 827 433 682
f 808 703 214
f 152 691 109
f 109 852 113
f 476 859 421
f 296 305 277
f 476 595 877
f 305 307 928
f 196 293 292
f 595 476 820
f 726 807 700
f 752 293 357
f 307 328 312
f 310 328 305
f 56 59 852
f 292 752 799
f 328 310 323
f 886 825 824
f 312 337 332
f 807 703 808
f 891 824 782
f 193 292 189
f 844 21 22
f 429 853 409
f 109 697 927
f 56 33 510
f 105 559 553
f 339 337 346
f 346 714 339
f 51 346 347
f 317 926 927
f 564 690 876
f 863 844 232
f 799 868 292
f 510 33 258
f 843 528 529
f 844 863 842
f 861 840 843
f 861 158 347
f 861 860 840
f 752 915 31
f 158 843 842
f 843 158 861
f 842 529 844
f 919 837 906
f 906 232 907
f 809 528 840
f 730 873 918
f 730 856 873
f 873 856 879
f 856 106 385
f 817 634 645
f 837 919 838
f 817 652 816
f 919 906 907
f 919 536 537
f 743 102 361
f 904 669 838
f 898 669 904
f 669 898 38
f 703 807 721
f 405 404 838
f 669 405 838
f 922 833 836
f 294 285 887
f 361 385 402
f 869 645 634
f 830 875 664
f 916 3 1
f 864 51 347
f 402 855 361
f 909 801 914
f 397 890 374
f 48 44 855
f 796 909 77
f 879 637 873
f 901 798 905
f 580 925 397
f 48 402 706
f 896 800 901
f 891 823 896
f 409 62 61
f 853 62 409
f 881 413 417
f 417 62 853
f 86 407 299
f 459 893 882
f 199 891 95
f 830 465 831
f 829 426 417
f 426 829 124
f 426 881 417
f 124 829 827
f 433 829 853
f 886 802 825
f 774 894 883
f 851 124 827
f 164 884 124
f 441 851 436
f 180 164 851
f 443 869 164
f 911 802 932
f 715 830 664
f 874 664 875
f 736 361 360
f 451 180 441
f 457 452 889
f 889 444 457
f 866 817 870
f 106 35 639
f 459 718 452
f 826 452 457
f 452 826 245
f 451 826 457
f 862 819 866
f 858 857 862
f 461 245 826
f 459 882 718
f 479 243 461
f 854 931 858
f 850 925 854
f 846 401 580
f 845 890 850
f 491 848 482
f 848 281 479
f 825 494 883
f 382 508 491
f 900 832 767
f 508 287 848
f 896 823 800
f 839 890 845
f 504 782 824
f 42 374 839
f 516 508 382
f 908 910 318
f 534 524 523
f 552 818 548
f 42 172 173
f 901 800 798
f 818 552 900
f 533 322 531
f 871 175 737
f 868 187 189
f 22 232 844
f 593 822 533
f 822 315 316
f 929 556 330
f 330 315 822
f 838 919 537
f 904 838 537
f 318 860 834
f 908 318 834
f 465 830 715
f 556 342 336
f 105 836 559
f 833 559 836
f 29 44 846
f 908 834 804
f 562 917 828
f 299 836 105
f 818 900 767
f 832 553 559
f 562 832 920
f 811 315 548
f 828 801 821
f 801 828 917
f 821 797 814
f 836 299 903
f 401 590 580
f 797 821 801
f 905 798 796
f 796 814 797
f 810 548 818
f 814 798 806
f 798 814 796
f 909 796 797
f 811 548 810
f 413 587 590
f 404 51 837
f 51 864 837
f 837 838 404
f 909 797 801
f 529 842 843
f 158 842 863
f 232 906 863
f 800 806 798
f 529 528 511
f 794 811 806
f 785 908 804
f 785 647 908
f 859 877 878
f 526 534 794
f 877 571 878
f 571 31 915
f 173 351 42
f 524 783 509
f 350 173 175
f 29 350 871
f 823 526 794
f 783 524 526
f 526 823 782
f 42 351 374
f 841 374 351
f 504 775 783
f 509 783 775
f 782 823 891
f 885 124 884
f 887 757 779
f 914 801 917
f 426 885 881
f 890 397 925
f 825 504 824
f 775 504 883
f 925 587 931
f 587 925 580
f 802 494 825
f 785 279 762
f 494 831 465
f 831 494 802
f 894 287 775
f 590 895 413
f 438 897 576
f 884 164 869
f 762 279 751
f 423 931 587
f 587 413 423
f 931 423 857
f 762 761 647
f 617 820 476
f 595 820 621
f 751 755 763
f 893 459 243
f 751 264 805
f 609 857 423
f 423 881 612
f 662 443 444
f 721 805 735
f 621 584 595
f 857 609 819
f 443 645 869
f 612 885 627
f 636 621 820
f 628 902 584
f 805 721 807
