# avbd fit, rung f180-i32-s300 of Gate 6d (body space, fit phase only)
v -0.008098996 0.601971209 0.028426785
v -0.114952192 0.619576693 0.068818316
v -0.007885380 0.616612077 0.031620450
v -0.000108649 0.887263298 0.066644646
v -0.158639386 0.603006959 0.053942531
v 0.005796263 0.898192704 0.075856254
v -0.007462572 0.646238387 0.036004804
v -0.007537331 0.631396830 0.034000464
v -0.160634235 0.619528830 0.055320729
v 0.152635008 0.904217362 -0.107194103
v -0.177854925 0.614605844 0.045908891
v -0.187873691 0.616744459 0.027713588
v -0.195198759 0.617971122 0.011921929
v -0.157662302 0.621863902 -0.069046676
v 0.007123258 0.598954678 -0.054314364
v -0.140361175 0.618739188 -0.074194878
v 0.022731464 0.598651171 -0.054600902
v -0.130466208 0.618962228 -0.088614307
v -0.115353622 0.627306640 -0.083678141
v 0.188843936 0.579632044 -0.001206937
v -0.000577561 0.857691288 0.060100071
v -0.000889651 0.843598187 0.054562591
v -0.098462962 0.624160647 -0.080625497
v -0.086029910 0.629356503 -0.087892205
v 0.093921497 0.805885673 -0.116073169
v -0.079923041 0.639778197 -0.076149181
v -0.136541009 0.868342280 -0.126031101
v -0.145801425 0.787018538 0.071484938
v 0.037953682 0.688820064 -0.077038720
v -0.161525711 0.797675014 0.065925613
v 0.068243355 0.833097935 -0.132708043
v -0.193706602 0.774422646 0.042623721
v 0.085711755 0.769766808 -0.106800497
v -0.188882783 0.616097391 -0.036367178
v 0.071355365 0.759969234 -0.101367295
v -0.161175504 0.872715771 -0.100516379
v -0.181956857 0.870717525 -0.060558021
v 0.013242404 0.739126563 0.047457229
v -0.184572980 0.874688268 -0.040728338
v -0.081160411 0.867902875 -0.147921711
v -0.031156778 0.847095966 0.056179859
v 0.009451629 0.650640488 -0.066045746
v -0.020522404 0.828968525 0.052437961
v 0.059617944 0.692623496 -0.083694875
v -0.043584742 0.829792857 0.055103291
v -0.183272243 0.880360782 -0.021943886
v -0.189959198 0.868418992 -0.005983090
v 0.069119118 0.711292624 -0.091754906
v -0.180383354 0.871694207 0.012728510
v -0.048770763 0.620291889 0.039649852
v 0.062853202 0.802026749 0.060368061
v -0.069598563 0.620319664 0.049100682
v -0.083339036 0.699471354 0.062872410
v 0.062155455 0.764771342 0.059605680
v -0.090223506 0.618983567 0.057915736
v 0.100978591 0.782811999 -0.111530185
v -0.107237518 0.696067572 0.072108597
v -0.176561862 0.702603698 0.058454551
v 0.116994336 0.795762062 -0.116219819
v -0.200899243 0.700652719 0.028629893
v 0.079206720 0.694705486 -0.091967963
v 0.098263994 0.690475106 -0.097718924
v -0.203703612 0.784804642 0.023686795
v -0.200370759 0.805059135 0.022513563
v -0.206394956 0.700721622 -0.035187777
v -0.191431671 0.696743011 -0.054312903
v -0.182244137 0.709002137 -0.069123581
v 0.007001636 0.604157627 0.022669679
v 0.012460558 0.589874864 0.025129732
v -0.164760649 0.698581636 -0.079939224
v 0.028800851 0.589516521 0.027866269
v -0.115341328 0.710409164 -0.105819918
v 0.044216901 0.588498116 0.032606393
v -0.024064250 0.744282365 -0.088960186
v 0.059051204 0.587308049 0.038297147
v -0.100927077 0.869705558 -0.143115789
v 0.072805241 0.585866868 0.045388538
v -0.119249120 0.870933056 -0.136517406
v 0.086848818 0.584619522 0.051595151
v -0.124858402 0.856722474 -0.129308939
v 0.100641906 0.583294213 0.057733893
v -0.145917654 0.883177161 -0.118199632
v 0.114159741 0.581790686 0.063745700
v -0.179370433 0.841759503 -0.082583308
v 0.128471464 0.580534399 0.066080339
v 0.046810050 0.725959420 0.052642137
v -0.148672894 0.869582832 0.049303919
v -0.125926808 0.792977870 -0.114119552
v -0.162170976 0.648019671 0.057784110
v 0.140599355 0.579898894 0.060122855
v -0.145178571 0.800064743 -0.106206417
v -0.021883564 0.788670778 0.050564259
v 0.153516307 0.579804003 0.053844631
v -0.043620877 0.791414857 0.054236908
v 0.166327253 0.579272509 0.047567673
v -0.028489485 0.809181392 0.051206090
v 0.176312909 0.579056621 0.037783988
v -0.019618940 0.862556577 0.061319906
v 0.182438761 0.579230428 0.025227755
v -0.069036856 0.883809924 -0.149387568
v 0.188117728 0.579163373 0.012598303
v 0.023433845 0.745361805 -0.089576103
v -0.091653287 0.852049232 -0.142014071
v -0.115074553 0.659309983 0.072248958
v 0.039606009 0.706695914 0.048914090
v 0.054391582 0.761008024 -0.097603306
v -0.119454242 0.841906190 -0.125336766
v -0.145655587 0.645133555 0.064988621
v 0.125678107 0.754401565 -0.109609544
v -0.132649660 0.831701875 -0.114141047
v 0.132923022 0.805904686 -0.111350179
v 0.140750855 0.787070274 -0.106872834
v 0.140947595 0.766212165 -0.104241565
v -0.168568581 0.665306091 0.057455618
v -0.148267597 0.820584476 -0.105273619
v 0.191398144 0.579546511 -0.014782366
v 0.186976522 0.580431640 -0.026787553
v -0.194193959 0.655856490 0.028024662
v 0.150025904 0.805150628 -0.103737690
v -0.166913182 0.830622554 -0.097146280
v -0.191415757 0.829305530 -0.065203056
v -0.197382480 0.841559410 -0.050750237
v -0.058881380 0.827490509 -0.126298875
v 0.148643970 0.684564948 -0.083313249
v -0.178331748 0.827007651 0.045726348
v -0.194237500 0.823828995 0.023647722
v -0.127896458 0.818615735 0.071742103
v -0.139895931 0.834251106 0.064652972
v 0.180335775 0.582216680 -0.038770832
v -0.023902157 0.821490645 -0.115164086
v 0.173632711 0.584077656 -0.050846212
v -0.042972617 0.816746831 -0.115670957
v 0.165224016 0.586630940 -0.061783396
v -0.029367816 0.697038114 -0.077449776
v 0.172584713 0.586551726 -0.073629878
v -0.112169579 0.871562660 0.053811986
v 0.158771098 0.586747766 -0.071292564
v -0.091800176 0.867538810 0.058627971
v 0.145762235 0.587279916 -0.066770621
v -0.025056083 0.804648578 -0.107007779
v 0.132266372 0.586363435 -0.070837490
v 0.164224848 0.793823719 -0.097101144
v -0.026819129 0.786086500 -0.100198947
v 0.119445942 0.586588442 -0.074895389
v -0.045571838 0.798811734 -0.106750861
v -0.181926325 0.797718763 -0.085722432
v 0.105433941 0.588014722 -0.073502369
v -0.148855150 0.886594296 0.042082842
v 0.092543386 0.590615094 -0.067771450
v -0.033360995 0.721325278 -0.083927564
v 0.079538137 0.593242288 -0.062180292
v 0.140918821 0.747782290 -0.101098239
v 0.066033937 0.595380247 -0.057848603
v -0.104554787 0.754684031 -0.110766396
v 0.051895659 0.596886754 -0.055740498
v -0.066568546 0.678590894 -0.082634628
v 0.037569690 0.597985685 -0.054798454
v 0.053417921 0.835199714 0.057335962
v -0.184962690 0.765823245 -0.076101944
v -0.197962672 0.621451795 -0.019359428
v 0.158586755 0.773859978 -0.097173296
v -0.208521798 0.781870902 -0.032634694
v -0.210009366 0.745886207 -0.023406941
v 0.167667598 0.677037835 -0.073638186
v -0.206125662 0.733755589 -0.042395234
v -0.009475222 0.626958430 -0.060539044
v 0.011543479 0.615560889 -0.057892937
v -0.009655231 0.612782538 -0.057259671
v -0.008893344 0.641306400 -0.063831016
v 0.168652043 0.816735446 -0.095814243
v -0.195463613 0.739633739 -0.057939120
v -0.008382453 0.655793846 -0.067189835
v -0.007985973 0.670448542 -0.070650503
v -0.209870696 0.730380774 -0.004365765
v -0.007474530 0.685329378 -0.074230351
v 0.175717801 0.780099988 -0.090092525
v -0.171098098 0.737511277 -0.085029557
v -0.102933325 0.608435035 -0.078296676
v -0.206385374 0.739144683 0.022348257
v 0.181811184 0.691828012 -0.065426461
v -0.200935632 0.720050097 0.031195953
v -0.090758473 0.740110874 -0.105221175
v -0.077562936 0.727265060 -0.098483443
v 0.183314532 0.798212111 -0.083012715
v -0.047366686 0.779466748 -0.100691453
v -0.004053245 0.793972552 -0.101381421
v -0.003666245 0.808992267 -0.107271448
v -0.105647966 0.853440106 0.065606505
v -0.003312547 0.823186040 -0.114068285
v -0.126844466 0.847340882 0.063146725
v 0.187189236 0.774752140 -0.073699743
v -0.114464477 0.834343731 0.070148401
v -0.003003628 0.836472332 -0.121977523
v -0.129232228 0.863127887 0.056337476
v -0.161071092 0.728837192 0.066693343
v -0.002788670 0.849661529 -0.129450098
v -0.117317542 0.887679279 0.046072625
v 0.188930079 0.819976509 -0.071793929
v 0.175437540 0.595864236 0.044699155
v -0.002650786 0.863660514 -0.134518653
v -0.132278755 0.879477143 0.047108125
v -0.002533419 0.877930522 -0.137942657
v -0.161624819 0.839784265 0.058138587
v 0.198596820 0.767290354 -0.055654328
v -0.163692310 0.857898414 0.045944236
v -0.210873649 0.775708556 0.003772274
v -0.002421104 0.892420471 -0.139264777
v -0.156278774 0.888838649 0.026147583
v -0.165006101 0.873656929 0.031595282
v -0.170027897 0.887329698 0.011918450
v -0.141474128 0.722649276 0.073107086
v 0.033232775 0.901467681 0.066888362
v 0.017597599 0.901390195 0.067592457
v 0.197990626 0.835092425 -0.050691657
v -0.000334629 0.872171283 0.064813241
v -0.181815818 0.886095703 -0.004330725
v 0.203053206 0.809677720 -0.048103120
v -0.177056938 0.889761269 -0.036314089
v -0.177015692 0.887802958 -0.053318728
v -0.076152034 0.659482300 -0.080425538
v 0.048977550 0.901667118 0.065351501
v 0.202645227 0.822944760 -0.029280132
v 0.208039448 0.782117307 -0.038049620
v -0.170987248 0.885806441 -0.070026800
v -0.157279313 0.890913785 -0.104765080
v -0.128814667 0.886126161 -0.131974012
v -0.149912670 0.840862393 -0.106208168
v -0.100341693 0.660188973 -0.091204152
v 0.080363914 0.901603401 0.061052382
v 0.064703085 0.901827693 0.063227303
v -0.101589143 0.837024868 -0.133762583
v -0.001222364 0.828744769 0.051660102
v -0.109629892 0.854175687 -0.137005061
v 0.207370520 0.800923705 -0.023963334
v -0.116056643 0.649699390 -0.089538023
v 0.094974585 0.901239872 0.055768430
v -0.031139443 0.695665419 0.044735473
v -0.034275305 0.606012583 0.029722398
v 0.201787621 0.832580209 -0.011421847
v -0.202133581 0.822725594 -0.040430132
v -0.044781499 0.649173141 0.042366643
v 0.108904578 0.900665581 0.049979627
v 0.206276178 0.691460490 -0.003515203
v -0.058491398 0.603770137 0.039212521
v 0.206521228 0.692025065 -0.021673189
v 0.205867961 0.814448833 -0.006334803
v 0.210063487 0.779334366 -0.011744238
v -0.061175548 0.660133898 0.049777165
v -0.081001088 0.602340579 0.051339608
v -0.102938071 0.602575898 0.060966898
v -0.097754434 0.650596976 0.064547941
v 0.203385308 0.803624809 0.018913534
v -0.099423766 0.633732438 0.063694336
v 0.209816068 0.796141088 -0.002066221
v -0.054692555 0.811819553 0.057033651
v 0.098918192 0.832097173 0.074139729
v -0.115221240 0.640643656 0.070813514
v 0.066650629 0.775612235 -0.103342816
v -0.124249458 0.600188315 0.069174185
v -0.188991398 0.662766099 -0.050787788
v -0.131883711 0.651390672 0.071904264
v -0.140746683 0.615116477 0.064260826
v 0.059564777 0.790919960 -0.106299773
v 0.177036911 0.853714645 0.032174610
v -0.133369580 0.632723093 0.069390178
v -0.191575840 0.647371590 -0.041792184
v -0.145107716 0.597298801 0.064019293
v 0.210264638 0.781271100 0.012496976
v 0.204890519 0.764960110 0.024142956
v -0.145644262 0.852072835 0.056943834
v -0.151900321 0.632013381 0.060842365
v -0.172707736 0.595717371 0.046366774
v 0.191549093 0.820019543 0.029421816
v 0.190610573 0.799562633 0.041647233
v -0.181980163 0.650822043 0.049417399
v -0.171737030 0.633298516 0.051893078
v 0.187318102 0.779146731 0.054129262
v -0.182444423 0.598809361 0.031926073
v 0.160566673 0.859319508 0.049043644
v -0.185996875 0.634395659 0.037594177
v 0.204727814 0.685451627 0.016438229
v -0.049112517 0.901966929 0.065202042
v -0.195346981 0.634801865 0.019751891
v -0.023084510 0.882143497 0.065263934
v 0.180075973 0.815529168 0.049534652
v -0.174795315 0.844989419 0.041734498
v 0.194641635 0.679300666 0.035117652
v -0.177354082 0.858019829 0.028007861
v -0.197446346 0.629597962 -0.000030817
v 0.180169225 0.760036528 0.062406421
v -0.187481493 0.841468453 0.026418751
v 0.020675996 0.834451199 -0.122606993
v 0.021843541 0.851820111 -0.133450136
v 0.164127007 0.812306702 0.063221030
v -0.028813237 0.890379131 -0.142236859
v 0.175189599 0.796340883 0.062916405
v -0.200210065 0.648943841 0.005608356
v -0.022544796 0.872017264 -0.139374211
v 0.024701389 0.723431706 0.047522821
v -0.025145222 0.638865829 -0.063443892
v -0.043545023 0.875063300 -0.146133751
v 0.145705506 0.821188152 0.066773616
v -0.050202437 0.892130017 -0.146442786
v -0.191589534 0.855700791 0.011195953
v 0.162235036 0.775460124 0.068191372
v -0.200944304 0.837750912 0.008254035
v 0.143932134 0.758720994 0.073526777
v -0.198619366 0.844415307 -0.030612126
v -0.202223629 0.830186188 -0.014664057
v 0.150178358 0.799318850 0.069301717
v -0.198091775 0.850355506 -0.009574191
v 0.123665534 0.766902804 0.079813369
v -0.195746303 0.601530671 -0.026349837
v -0.199213818 0.640379667 -0.013478657
v 0.106384292 0.678951502 0.070864893
v 0.127737373 0.677013338 0.076569960
v 0.096875474 0.734027267 -0.105973661
v 0.092061743 0.879737854 0.055205386
v -0.025625348 0.648507714 0.037800919
v 0.121178903 0.900377631 0.042857327
v -0.191677064 0.858403325 -0.045945011
v 0.136163071 0.694869697 0.074380964
v 0.122381449 0.810364366 0.075067602
v -0.200376898 0.649019539 -0.026998749
v -0.186541051 0.851776302 -0.065682009
v 0.134056151 0.902214348 0.044991277
v -0.164110571 0.852187455 -0.096194819
v 0.136621565 0.783059716 0.074771576
v -0.065641709 0.773979366 -0.102851033
v 0.095195457 0.698227942 0.068036117
v -0.182168454 0.599356830 -0.041963376
v 0.102066658 0.768530309 0.075616583
v -0.194977686 0.633258939 -0.031750597
v -0.181549311 0.644536734 -0.057985168
v -0.172484607 0.597155094 -0.057138484
v 0.074662790 0.694805980 0.059370048
v 0.112030700 0.788186550 0.079953566
v -0.066888720 0.742769659 -0.098410830
v 0.092033699 0.783219099 0.072111346
v -0.178132504 0.612987638 -0.052673928
v -0.175415009 0.659868121 -0.067753382
v 0.060612433 0.709542334 0.055282842
v -0.080791637 0.759203851 -0.104173519
v -0.166801021 0.605630040 -0.071159706
v 0.016545380 0.798154950 -0.103825964
v 0.090675257 0.805500627 0.072507322
v 0.073256269 0.822817206 0.063381374
v -0.166750997 0.641030133 -0.069385782
v 0.139112383 0.897734046 0.033074703
v 0.016259272 0.679521620 -0.073123842
v 0.017509867 0.663950205 -0.069379911
v -0.147442147 0.603426278 -0.069498509
v 0.148668438 0.898679554 0.023254428
v -0.125929192 0.755054533 -0.109942101
v 0.157372266 0.899642110 0.012993100
v -0.139699340 0.650264263 -0.081765883
v 0.044041403 0.857587457 -0.141575456
v -0.149987534 0.637176573 -0.074753180
v 0.165768415 0.901109338 0.002450072
v 0.030353894 0.706641734 -0.080791570
v 0.033577494 0.726033032 -0.085772298
v -0.137321442 0.739993453 -0.101968542
v 0.174428031 0.903806508 -0.007883774
v -0.143507138 0.758068979 -0.101973496
v -0.110663965 0.886928260 -0.139624029
v -0.043560565 0.867768288 0.061047472
v 0.172057003 0.902047932 -0.021681141
v -0.135418922 0.600934625 -0.083249614
v -0.156389669 0.747927010 -0.094094269
v -0.135146990 0.633322001 -0.079657391
v -0.150496617 0.860987663 -0.111908570
v 0.173585415 0.902998090 -0.035013530
v -0.173069566 0.757007182 -0.087754413
v 0.030256603 0.649801135 -0.066405617
v -0.119423404 0.606685042 -0.078812584
v -0.185264125 0.747815013 -0.073459983
v 0.174154282 0.903930545 -0.049757048
v -0.135901377 0.850005269 -0.117538311
v 0.174304962 0.904455483 -0.064984515
v -0.196284100 0.762966096 -0.059287328
v -0.129181236 0.638762712 -0.093023740
v 0.185782909 0.715992153 0.057032298
v 0.168721914 0.904419541 -0.079551890
v -0.205753595 0.749948144 -0.046192385
v 0.044475093 0.744217277 -0.091866031
v -0.090845510 0.610137582 -0.087401852
v -0.027254771 0.620585322 -0.059314799
v 0.162072033 0.904724240 -0.094037220
v -0.208927706 0.765774727 -0.039061926
v 0.198720023 0.781647861 0.033160821
v -0.025310675 0.678772509 0.041786660
v 0.141728669 0.903625309 -0.119323038
v 0.195466593 0.757579207 0.043921094
v -0.072713055 0.759032488 0.062775575
v -0.100639142 0.640745878 -0.086152814
v -0.082475014 0.618277907 -0.071385957
v 0.050788432 0.652392507 -0.069590375
v -0.085889414 0.649248838 -0.090557046
v -0.065054253 0.633264005 -0.067967847
v -0.063639671 0.614888787 -0.062833659
v 0.070813701 0.677147746 -0.083620593
v 0.056279950 0.727373362 -0.090962380
v -0.194073409 0.732456088 0.046779606
v 0.049831368 0.781427801 0.056425989
v 0.040286638 0.762038708 0.053543873
v -0.195583448 0.753590226 0.044691928
v 0.033602167 0.742418766 0.050849468
v -0.030855436 0.764565349 -0.094432034
v 0.092739396 0.712044299 -0.100065753
v -0.180445835 0.765517354 0.061832599
v -0.061142184 0.663865566 -0.075742170
v -0.067013636 0.649275184 -0.073326483
v 0.100061700 0.666030288 -0.092152230
v -0.176254496 0.744099736 0.062789872
v -0.045038991 0.632633746 -0.063055515
v 0.130630821 0.903266311 -0.130041808
v 0.115604833 0.682869971 -0.098043308
v -0.051546831 0.651148915 -0.068998925
v -0.156910211 0.758735120 0.069003038
v -0.045613959 0.676760435 -0.074298590
v 0.115808830 0.903031349 -0.136372149
v -0.033007480 0.655680001 -0.067673944
v 0.107169472 0.643456399 -0.089148477
v -0.194621071 0.611625075 -0.004797583
v -0.191466689 0.599725544 0.014108556
v 0.130447820 0.679180861 -0.090251610
v -0.147485614 0.741045296 0.072395347
v -0.131380826 0.753231645 0.077286586
v 0.113381125 0.721539140 -0.108487293
v -0.078548357 0.814812839 0.065224789
v -0.064850107 0.902337432 0.063033223
v -0.119825482 0.731916547 0.079725012
v 0.132274345 0.715303004 -0.099095546
v -0.108050510 0.749896288 0.076303564
v -0.090001777 0.798617423 0.071389347
v 0.166180760 0.719371915 -0.083080940
v -0.094770916 0.733078122 0.069904149
v 0.111755587 0.839119434 -0.130538970
v -0.079992510 0.778962255 0.066474713
v -0.103028074 0.783424258 0.076045334
v 0.181312740 0.711396456 -0.070438899
v -0.095116094 0.765636921 0.072101414
v 0.176672310 0.660715818 -0.067557245
v 0.183841527 0.672873676 -0.058989167
v -0.088542193 0.749287903 0.068481810
v -0.072739407 0.738307416 0.061482985
v -0.116844878 0.768230557 0.080569915
v -0.031201702 0.752055049 0.050273448
v -0.126147881 0.785790324 0.076766238
v -0.114714637 0.801784992 0.077867828
v 0.192722633 0.706604838 -0.053938448
v 0.202521712 0.678429246 -0.033881515
v -0.066598631 0.794631541 0.061689358
v -0.139983252 0.771058857 0.074493803
v -0.048462790 0.680786967 0.047559008
v -0.138803050 0.802483201 0.071466811
v 0.193271905 0.686023295 -0.049131952
v -0.156157300 0.818406224 0.063855067
v 0.204055473 0.674843192 -0.015429644
v -0.182391331 0.786821544 0.060517453
v 0.208486795 0.713971496 -0.017562509
v -0.162307858 0.777582526 0.067694068
v -0.067110226 0.831820846 0.061211210
v -0.178871781 0.807544589 0.055884868
v 0.198978871 0.639014125 -0.013913172
v -0.069093004 0.866666317 0.059629422
v -0.005267163 0.762257218 -0.092849761
v -0.063907310 0.884102046 0.061425090
v -0.188562334 0.811619282 0.037898269
v -0.205080241 0.762950718 0.023649041
v -0.044815432 0.887236476 0.064099237
v -0.004670507 0.778020322 -0.096978061
v -0.095003143 0.902188122 0.055456989
v -0.211087614 0.753108680 0.001209177
v 0.074546918 0.819374859 -0.121670663
v 0.120386623 0.875697970 -0.135819763
v -0.206141666 0.818162560 0.004493933
v -0.080430806 0.902403653 0.060777247
v 0.207988068 0.709273934 0.007158261
v 0.100412153 0.903132081 -0.142930046
v -0.191210076 0.862548232 -0.025638506
v 0.205144688 0.723321557 0.023118917
v -0.210273907 0.767757535 -0.016991846
v -0.209399432 0.789412618 -0.015439324
v -0.206151798 0.810011089 -0.017169863
v 0.084057607 0.903482437 -0.147422448
v 0.210913509 0.759983301 0.004611585
v 0.067064084 0.904233932 -0.148156911
v -0.090255864 0.834240437 0.070289120
v -0.018473499 0.853279293 -0.133033127
v 0.196380273 0.713926911 0.040053476
v 0.050175149 0.905180931 -0.145913333
v 0.059713908 0.890606403 -0.147682697
v 0.197324961 0.630336583 0.008617086
v -0.083339401 0.884142995 0.059013855
v -0.022717988 0.837554812 -0.124876156
v -0.202038497 0.783825994 -0.052303828
v -0.173342824 0.865709126 -0.080839291
v -0.101267539 0.817656159 0.076085314
v 0.033092666 0.906078994 -0.142896414
v -0.190351740 0.783341050 -0.070707634
v 0.015601668 0.906655908 -0.140867501
v -0.161770836 0.788582444 -0.098380208
v 0.183818996 0.635837018 0.042339463
v -0.177204251 0.777148902 -0.089345999
v 0.015101801 0.895249248 -0.140469626
v -0.002314877 0.906844258 -0.140044928
v 0.191021755 0.695196390 0.048472002
v 0.182114720 0.673725665 0.053506799
v 0.079884112 0.789409459 -0.109105602
v 0.018579151 0.877060711 0.064867169
v -0.165676221 0.809385896 -0.097492225
v -0.158758402 0.768344760 -0.096609667
v -0.165737599 0.886828423 -0.087900199
v 0.064880423 0.806128502 -0.113168821
v 0.170510724 0.694390893 0.060948551
v -0.140160173 0.777665734 -0.106897488
v -0.054755509 0.598236322 -0.057070531
v -0.107726261 0.787662625 -0.114025250
v -0.068842374 0.597550511 -0.060832005
v -0.082356997 0.596541584 -0.066329949
v -0.118153274 0.772772431 -0.115532771
v 0.149063319 0.682777524 0.068340190
v 0.161491960 0.667435765 0.061148614
v -0.093675166 0.595125556 -0.075291812
v 0.153389260 0.644500256 0.061789494
v -0.113715149 0.825117886 -0.121095657
v 0.040616639 0.871330857 0.063064650
v 0.025687492 0.859395802 0.059930462
v -0.100790761 0.592329621 -0.087435827
v 0.152152598 0.706247032 0.068602577
v -0.106381752 0.806444347 -0.117267333
v 0.134667069 0.711605906 0.075649992
v 0.139942139 0.660675526 0.069464393
v -0.104835093 0.590734184 -0.074239962
v -0.002269896 0.798474193 0.049135312
v -0.003449179 0.782943428 0.049295697
v -0.090168610 0.791580200 -0.112289466
v -0.118250154 0.587856412 -0.075826421
v -0.078956306 0.835456848 -0.135462046
v -0.097416498 0.773240864 -0.110664979
v -0.129312873 0.584995866 -0.081668511
v -0.138312459 0.585557878 -0.070951894
v -0.151293740 0.585499883 -0.065273032
v -0.054453604 0.771157324 0.056528240
v -0.029447407 0.771621406 0.051120944
v 0.088361457 0.682195067 0.063797817
v 0.091268763 0.664079428 0.063478872
v -0.163245097 0.584650755 -0.072185352
v -0.168127447 0.584206402 -0.059258647
v -0.032826051 0.714242399 0.047035463
v 0.073006541 0.675160706 0.056900382
v 0.053705044 0.688401878 0.050986905
v -0.175693050 0.583179474 -0.047502920
v -0.075228244 0.821601748 -0.123457238
v 0.081094757 0.713337898 0.063562132
v -0.182679176 0.582598031 -0.035407074
v -0.057294369 0.702263057 0.052642606
v 0.031056006 0.688068807 0.044801593
v -0.036663663 0.664177775 0.042091198
v -0.093646348 0.822597980 -0.124548212
v 0.027313760 0.647099137 0.039205257
v -0.070205234 0.681584954 0.055963255
v 0.074252352 0.748006225 0.063137725
v -0.037093244 0.634879529 0.038373701
v -0.058704875 0.637325287 0.045821123
v -0.057047121 0.842068553 -0.139738277
v -0.073538028 0.851316333 -0.144379541
v -0.076721683 0.718686879 0.061790623
v -0.059395093 0.862563908 -0.146256030
v 0.089502670 0.843487561 -0.140017897
v -0.194565147 0.581437469 -0.028459465
v 0.087209709 0.732052267 0.067336068
v -0.079158932 0.640688062 0.055645436
v -0.100776628 0.714681923 0.070969805
v 0.093857542 0.825987518 -0.127850592
v -0.081919119 0.663272500 0.059160046
v -0.091871135 0.681886137 0.064711191
v -0.079956941 0.850328922 0.062943302
v 0.068843417 0.657190204 -0.076386280
v -0.055406816 0.849405646 0.058387376
v 0.106318668 0.736013532 0.075260423
v -0.099934310 0.666798711 0.066726759
v 0.131240755 0.838315964 -0.116668060
v -0.189848304 0.581596315 -0.016578451
v -0.031749226 0.732968390 0.048735905
v 0.087326035 0.647216141 -0.081218749
v -0.188624009 0.580834270 0.010808046
v -0.133043170 0.689830482 0.075066954
v 0.082747206 0.664728343 -0.084474400
v -0.183497965 0.581079245 0.023409195
v -0.113620676 0.677910626 0.073150590
v 0.121090457 0.723635793 0.080020137
v 0.127265170 0.744415343 0.079170443
v 0.125724941 0.855755150 -0.127841860
v -0.177626729 0.581235588 0.035692845
v -0.123117425 0.710126281 0.078861788
v -0.169855252 0.581553400 0.047016069
v -0.133180350 0.669888318 0.073128626
v -0.156983644 0.582496762 0.052060414
v -0.148870140 0.583065212 0.063279390
v -0.142512590 0.706016660 0.071983539
v -0.152311996 0.677594125 0.065889180
v -0.135813743 0.583547473 0.062561199
v 0.145176128 0.731284976 0.073063344
v -0.156769618 0.695032477 0.065899841
v -0.122542277 0.583404720 0.066899240
v -0.109362170 0.584191918 0.061344583
v 0.125046700 0.636637807 -0.082597896
v -0.159869447 0.712511301 0.065463051
v 0.183686227 0.739024460 0.060190283
v 0.125471711 0.651256621 -0.086432114
v 0.158742607 0.886123061 -0.103162967
v -0.096095845 0.584950149 0.055411886
v -0.149076343 0.660500169 0.064933501
v -0.082579598 0.585716307 0.049488727
v 0.133016080 0.888713658 -0.128690034
v -0.069829114 0.586744487 0.041825272
v -0.056357164 0.587648273 0.035216969
v 0.196622983 0.733724475 0.041841369
v 0.142855242 0.854173481 -0.113392517
v -0.042292535 0.588352680 0.029648948
v -0.027264353 0.588282704 0.027051771
v -0.178616613 0.722296834 0.059721041
v -0.023344666 0.600251019 0.035097655
v -0.173383534 0.683662653 0.057931133
v 0.139551252 0.646415412 -0.080328137
v 0.153486848 0.836588502 -0.102693938
v 0.206373125 0.744911790 0.023377817
v -0.192739114 0.711318076 0.047049608
v -0.187920123 0.670466483 0.046054155
v -0.191371709 0.690857828 0.046109010
v -0.044951312 0.742372632 -0.091088556
v 0.155239642 0.641477525 -0.074491136
v 0.210284859 0.758111596 -0.017344972
v 0.153230578 0.869878650 -0.112310544
v 0.010727771 0.780031323 -0.097854540
v -0.054969661 0.759876132 -0.097360209
v 0.064446658 0.744269252 -0.097528324
v -0.054378934 0.725070238 0.053685803
v 0.210064322 0.734903693 -0.000792234
v -0.198156998 0.679342985 0.027461505
v -0.208571821 0.714703858 0.011933334
v -0.192473367 0.794434190 0.041312099
v 0.173852444 0.643225491 -0.071810260
v -0.203257293 0.670134664 0.007365529
v 0.128479674 0.879971981 0.047633491
v 0.209402248 0.737463117 -0.026702922
v -0.206434533 0.692207515 0.007801655
v -0.207974523 0.706497371 -0.010709504
v -0.208643749 0.721616387 -0.026925355
v 0.178333253 0.632773280 -0.057540208
v 0.204259351 0.721575558 -0.041662604
v -0.202087134 0.660565853 -0.012088044
v -0.210299775 0.797719955 0.004012424
v 0.159933120 0.853321075 -0.099576443
v -0.033294402 0.901526451 0.066765979
v 0.201431111 0.743359149 -0.049898535
v 0.187820926 0.750120103 -0.069573954
v -0.082545467 0.807895780 -0.116717853
v -0.061756037 0.811004043 -0.115377232
v 0.183545992 0.651769340 -0.055200618
v -0.205259874 0.682977319 -0.016656905
v 0.184401661 0.620926678 -0.044421036
v 0.192076802 0.727311492 -0.059182148
v -0.020030573 0.906967461 -0.141178340
v -0.037224695 0.906507015 -0.144434020
v 0.175999135 0.837967098 -0.089684539
v 0.017950118 0.757559896 0.049485575
v -0.054249913 0.905719876 -0.146742463
v -0.053273302 0.746736646 0.055040658
v 0.181118801 0.729778588 -0.074842364
v 0.169934064 0.740801930 -0.085729770
v -0.071121186 0.905031562 -0.148558617
v 0.173586696 0.858367562 -0.085121877
v -0.200871855 0.664907157 -0.032812018
v -0.087806419 0.904515386 -0.147471771
v -0.092005789 0.885860562 -0.146501109
v -0.206446484 0.800696552 -0.038236026
v -0.103519104 0.904234588 -0.141738743
v -0.118737422 0.904170871 -0.135324314
v 0.149964243 0.730444252 -0.093536362
v -0.196713522 0.717528939 -0.051511228
v -0.195744067 0.805744946 -0.063062266
v -0.182697222 0.819182038 -0.083239153
v -0.198072404 0.681442857 -0.042585883
v 0.185690463 0.846562982 -0.068979874
v 0.169381633 0.888814270 -0.073391549
v -0.184528917 0.630039811 -0.047368087
v 0.054220207 0.745460272 0.056094855
v 0.130200416 0.733953357 -0.104035988
v -0.067267723 0.792951584 -0.108251788
v -0.184261829 0.728222966 -0.070683181
v 0.177670419 0.884286880 -0.057841372
v -0.080538906 0.778334379 -0.107108615
v -0.175793856 0.625720084 -0.064849459
v 0.113949500 0.740399539 -0.111399829
v -0.183841497 0.677502692 -0.060448818
v -0.164201185 0.676925540 -0.075684495
v 0.181176305 0.882067561 -0.039914403
v -0.178735882 0.691337705 -0.069950253
v -0.168135673 0.718200445 -0.082414761
v 0.198260501 0.846342742 -0.028272081
v -0.157116979 0.656249404 -0.075760119
v -0.025240218 0.674327016 -0.071770325
v 0.077672876 0.729121089 -0.098601744
v -0.133195311 0.904458165 -0.128397241
v -0.143383205 0.904609501 -0.117302060
v -0.152546763 0.728746176 -0.092364132
v -0.149655417 0.709199011 -0.089664191
v -0.147386834 0.689213097 -0.085600004
v -0.144330859 0.669309139 -0.083186932
v -0.128910035 0.812654853 -0.113446876
v 0.072438523 0.784169078 0.064077705
v 0.191967383 0.641102970 -0.038456190
v -0.162786141 0.905292988 -0.092015088
v -0.169357434 0.905216694 -0.077811405
v 0.201572135 0.657835066 -0.027386602
v -0.009555697 0.598576665 -0.054449223
v -0.174113199 0.904960752 -0.063209109
v 0.198532060 0.849991441 -0.002972053
v -0.173997775 0.904250979 -0.048249718
v -0.173307627 0.903348148 -0.033892520
v -0.178148136 0.904738724 -0.021815937
v 0.209354714 0.757899761 -0.038458876
v 0.179847687 0.886635005 -0.024752976
v -0.170849621 0.902049184 -0.010593296
v -0.165928677 0.902314842 0.002293712
v -0.157050505 0.900330722 0.012271546
v 0.047265224 0.778993487 -0.100740530
v -0.148217037 0.899330437 0.022521514
v 0.182501495 0.883700073 -0.007932723
v -0.138576791 0.898163497 0.032299977
v -0.131903648 0.658990443 -0.095639035
v 0.191551611 0.843047738 0.020309815
v 0.013384993 0.712877810 -0.081238702
v -0.006830463 0.700406909 -0.077926755
v -0.006437863 0.715659320 -0.081525519
v 0.146711543 0.887127042 -0.116606198
v -0.133229464 0.679357409 -0.096904419
v -0.005974970 0.731074452 -0.085287198
v -0.133452982 0.720433891 -0.100063086
v 0.011741695 0.730242372 -0.085389033
v -0.005739105 0.746606290 -0.089046165
v -0.133942530 0.903355718 0.044024833
v 0.156806678 0.753729761 -0.094363526
v 0.175547555 0.884445786 0.008923137
v -0.116100892 0.669794977 -0.094995119
v -0.120955050 0.901774049 0.042662095
v -0.108832158 0.901832402 0.049701028
v 0.168178201 0.872017741 0.029028863
v 0.043771874 0.839551806 -0.133458763
v -0.133112639 0.699878156 -0.097974263
v -0.115152098 0.733527601 -0.110964678
v 0.162815258 0.888314605 0.019454716
v -0.115556099 0.689802289 -0.100225829
v 0.180649310 0.834095955 0.039502669
v -0.098609865 0.679949880 -0.096187606
v -0.005127934 0.736824691 0.046482403
v -0.100542128 0.885306656 0.052150328
v 0.143655747 0.889287353 0.044923391
v 0.149933696 0.874397278 0.047637761
v 0.153624222 0.886329830 0.033229861
v -0.083616234 0.669830739 -0.091876104
v -0.096641853 0.699998081 -0.099488571
v -0.079519689 0.689825237 -0.091997072
v 0.049016431 0.655039072 0.045832958
v -0.096042626 0.720152497 -0.103266433
v 0.048728142 0.875019729 -0.146716759
v -0.076349050 0.709509075 -0.094260618
v 0.024246328 0.869246602 -0.139037341
v -0.041101802 0.833321393 -0.127705947
v -0.038352378 0.853489399 -0.139673516
v 0.200242370 0.650171161 0.006704376
v 0.188856289 0.657641351 0.039522126
v -0.054454219 0.699992895 -0.084058620
v -0.057834715 0.723297894 -0.090764984
v -0.154177964 0.905065358 -0.105412699
v 0.169100255 0.844573021 0.049688362
v 0.150048912 0.841979325 0.060447443
v -0.191904694 0.595319390 -0.007240769
v 0.166533247 0.628246427 0.054244053
v 0.173570111 0.650827527 0.053930163
v -0.189230785 0.581231415 -0.002856436
v 0.135389775 0.858965755 0.057031482
v -0.043918658 0.613249898 -0.058670413
v -0.040137060 0.598571241 -0.055774301
v 0.013231145 0.629266381 0.034491308
v -0.025324952 0.598688602 -0.055054326
v -0.002887908 0.902308166 0.068255909
v 0.064921811 0.864860833 -0.147572011
v -0.017595213 0.901087105 0.067501947
v -0.027895769 0.621344149 0.034605823
v 0.132853121 0.639019549 0.070543885
v 0.035188161 0.887502849 0.065367252
v 0.085792013 0.603766024 0.054070063
v 0.074454889 0.617163062 0.051115591
v 0.106412396 0.613069117 0.064617805
v 0.046857484 0.822204947 -0.119410716
v 0.127492145 0.617369235 0.070787184
v 0.056769274 0.620383799 0.043833796
v 0.193780139 0.610734046 0.012014808
v 0.127730519 0.834421337 0.067660913
v 0.114692986 0.850279808 0.065137543
v 0.186660454 0.865552723 0.009991893
v 0.110414267 0.632796288 0.068787917
v 0.189553872 0.866600633 -0.020551896
v 0.190075353 0.861548245 -0.047833677
v 0.053788431 0.885342419 0.062805727
v 0.092047587 0.644232750 0.062168289
v 0.113902882 0.656080782 0.072095230
v 0.177984744 0.868663192 -0.069187045
v 0.167481348 0.878807902 -0.086417191
v 0.090937667 0.624478102 0.059369273
v 0.162507802 0.869185746 -0.097412214
v 0.172961727 0.614572942 -0.060758431
v 0.164300963 0.623546183 -0.078920014
v 0.070989400 0.653988779 0.054000318
v 0.138922468 0.624567807 -0.075140491
v 0.138004139 0.871317685 -0.124716863
v 0.073092051 0.634202123 0.052617561
v 0.115716852 0.699580073 0.076327495
v 0.147088930 0.621809721 0.062315136
v 0.179258242 0.614637971 0.044265792
v 0.189275280 0.622285724 0.027379200
v 0.203737661 0.700333476 -0.038137995
v 0.149593785 0.707342386 -0.088841252
v 0.052279808 0.638225079 0.044700280
v 0.132367253 0.696297050 -0.093946464
v 0.195533574 0.622874081 -0.026657199
v 0.195609346 0.618026197 -0.006872709
v 0.037982039 0.669558048 0.044248693
v 0.010906249 0.688571632 0.041948836
v 0.095459342 0.857058346 0.064584777
v 0.072237119 0.883938015 0.060852170
v 0.017344516 0.705982387 0.044622250
v 0.037848890 0.797938764 0.053332455
v 0.023466185 0.777915835 0.051137239
v 0.017425131 0.633353472 -0.062056772
v 0.060871787 0.868141055 0.059986621
v 0.035519101 0.668375134 -0.071552336
v 0.034992442 0.844797432 0.056031637
v 0.049378488 0.854408920 0.058422327
v 0.016278073 0.844346702 0.055086385
v 0.032598056 0.616867602 -0.058681745
v 0.053953778 0.673012614 -0.076096825
v 0.082351550 0.766533017 0.067451879
v 0.201137692 0.700607300 0.028387781
v 0.196328685 0.792289138 -0.061985124
v 0.056097616 0.615337253 -0.060464837
v 0.166193888 0.698177874 -0.078596905
v 0.122345373 0.774349928 -0.113978401
v 0.114532508 0.702289462 -0.103662990
v 0.079531476 0.611863256 -0.067697853
v 0.048724733 0.709344089 -0.084473185
v 0.035653956 0.762381792 -0.094822839
v 0.114467479 0.622132897 -0.082767643
v 0.100886725 0.607599854 -0.076609522
v 0.101145342 0.880636990 -0.142939582
v 0.079133160 0.866822720 0.060284268
v 0.074082173 0.846252918 0.062038105
v 0.124302134 0.604705930 -0.076590762
v 0.029148038 0.829801083 0.053448420
v 0.047195937 0.816590309 0.055523135
v 0.079101786 0.882096887 -0.148203224
v 0.147637188 0.605591655 -0.069304757
v 0.174988866 0.761144876 -0.086992465
v 0.021139815 0.816023350 -0.111855969
v 0.164769024 0.656822026 -0.073847637
v 0.167789668 0.603453040 -0.078049831
v 0.014574908 0.695949316 -0.077138223
v 0.168301642 0.598890424 -0.061304338
v 0.028669521 0.781397939 -0.099270269
v 0.179521784 0.600934684 -0.046519663
v 0.188528389 0.608798742 -0.033794507
v 0.067457005 0.728958964 0.059214987
v 0.106396355 0.859258175 -0.138905123
v 0.085792407 0.862896800 -0.146089524
v 0.015868125 0.762729526 -0.093459912
v 0.193512872 0.603714585 -0.018701401
v 0.118715011 0.664727092 -0.092395246
v 0.201661557 0.658158779 -0.009417742
v 0.194000214 0.643068314 0.025042195
v 0.151417241 0.662949443 -0.078721553
v 0.136216357 0.664499760 -0.085604139
v 0.184257016 0.600484788 0.028979788
v 0.167174429 0.829363823 0.059304714
v 0.202598333 0.827962756 0.010359237
v 0.193314984 0.664195001 -0.043924853
v 0.043861866 0.633661032 -0.063308038
v 0.160190135 0.603927732 0.053783379
v 0.093082801 0.750564337 0.070914224
v 0.203295782 0.670908391 0.003351745
v 0.198823139 0.664065957 0.021858623
v 0.086463466 0.678916812 -0.090493299
v 0.140509337 0.599416077 0.062408715
v 0.116659321 0.819688916 -0.118360519
v -0.004763245 0.752148330 0.047644872
v -0.006320783 0.676102400 0.039904725
v 0.057235576 0.668803513 0.050125461
v 0.120024100 0.598440945 0.068721622
v 0.141337544 0.821882725 -0.107876860
v -0.005763437 0.721605539 0.044671241
v -0.004254445 0.767546654 0.048682831
v 0.102577649 0.596423090 0.060437135
v 0.022357380 0.813342452 0.050840139
v -0.001647387 0.813728690 0.049763866
v 0.112827539 0.868159175 0.056539852
v 0.065354750 0.603316784 0.044475652
v 0.109332904 0.885576904 0.049266312
v 0.192164004 0.598100722 -0.002634927
v 0.110100724 0.753157020 0.077961408
v 0.034606591 0.887626350 -0.144152820
v 0.043533284 0.605247617 0.037048113
v 0.065756880 0.848412991 -0.143531188
v 0.018146211 0.608655393 0.032497752
v 0.035562970 0.624861121 0.037802555
v 0.040134698 0.801356792 -0.107575394
v 0.015779298 0.796582818 0.050104596
v 0.015615998 0.667354405 0.039674036
v -0.006864296 0.661163390 0.037859801
v -0.005908005 0.706328630 0.043288801
v 0.187476337 0.594093919 -0.030458193
v -0.005959981 0.691141367 0.041776501
v 0.069200978 0.634522557 -0.069429889
v 0.084333450 0.748909235 -0.103793837
v 0.103881203 0.758918107 -0.110494532
v 0.163190708 0.747290432 0.067686088
v 0.101389393 0.716846108 0.071927465
v 0.166492060 0.723095298 0.064666711
v 0.092624597 0.627226114 -0.078361280
v 0.190449119 0.593097091 0.013424541
f 555 540 123
f 389 162 497
f 567 540 568
f 583 104 251
f 463 489 430
f 453 94 255
f 483 484 162
f 446 640 671
f 574 577 251
f 50 244 238
f 52 244 50
f 575 57 53
f 55 249 52
f 55 2 250
f 577 248 563
f 575 437 432
f 57 597 589
f 2 265 262
f 589 592 57
f 262 259 2
f 5 267 262
f 602 606 589
f 5 9 11
f 58 606 610
f 11 272 5
f 12 278 11
f 565 793 8
f 630 60 632
f 13 425 12
f 424 289 160
f 289 424 13
f 643 649 60
f 181 403 179
f 483 206 484
f 163 651 174
f 53 563 558
f 651 65 650
f 163 389 384
f 683 66 65
f 455 558 563
f 165 384 171
f 340 331 34
f 67 66 683
f 206 470 63
f 385 102 856
f 67 702 70
f 344 340 696
f 179 403 406
f 710 70 702
f 16 352 14
f 111 112 59
f 63 64 655
f 18 368 16
f 710 742 753
f 119 112 111
f 394 671 545
f 551 922 903
f 19 375 18
f 753 740 711
f 406 470 179
f 261 615 108
f 545 453 439
f 178 386 530
f 24 386 23
f 72 753 742
f 26 396 24
f 768 765 72
f 119 142 112
f 32 63 470
f 112 142 161
f 399 400 396
f 154 343 182
f 545 671 448
f 399 415 400
f 768 770 765
f 32 406 410
f 418 415 399
f 770 183 777
f 387 300 166
f 415 418 422
f 105 86 299
f 169 42 839
f 170 142 119
f 173 172 705
f 329 638 343
f 134 738 737
f 185 638 329
f 692 661 145
f 150 74 741
f 637 345 873
f 132 145 661
f 170 184 142
f 138 495 760
f 138 136 188
f 136 194 188
f 201 87 194
f 270 87 205
f 216 49 210
f 46 216 724
f 198 184 170
f 43 96 907
f 219 39 218
f 45 43 41
f 224 37 219
f 498 224 514
f 86 105 342
f 225 36 514
f 378 107 110
f 80 233 107
f 22 41 43
f 198 217 849
f 41 581 45
f 103 233 76
f 76 40 103
f 222 217 214
f 678 100 40
f 98 41 22
f 366 41 98
f 40 76 678
f 215 4 284
f 215 98 21
f 537 536 92
f 222 234 217
f 904 537 92
f 460 462 30
f 284 471 366
f 222 239 246
f 586 903 759
f 462 28 30
f 246 234 222
f 454 449 28
f 237 391 924
f 560 319 921
f 246 888 252
f 431 471 282
f 455 560 391
f 319 560 241
f 50 238 793
f 50 566 52
f 52 574 55
f 258 263 510
f 244 52 249
f 55 253 2
f 284 792 657
f 303 670 667
f 303 100 674
f 250 249 55
f 273 274 252
f 251 253 574
f 100 303 301
f 301 570 100
f 104 261 257
f 677 100 678
f 273 285 274
f 257 2 253
f 2 257 265
f 250 2 259
f 570 568 40
f 752 292 293
f 294 296 285
f 285 296 274
f 684 497 679
f 277 274 296
f 440 447 442
f 579 489 463
f 692 329 695
f 259 262 267
f 871 736 360
f 262 271 9
f 40 100 570
f 570 567 568
f 203 128 270
f 310 296 294
f 305 296 310
f 87 270 194
f 9 5 262
f 5 272 600
f 276 9 271
f 9 276 11
f 272 11 278
f 302 323 310
f 568 103 40
f 108 615 89
f 280 11 276
f 11 280 12
f 103 568 540
f 278 12 425
f 323 337 328
f 283 12 280
f 12 283 13
f 283 297 289
f 289 13 283
f 540 561 231
f 425 13 424
f 209 288 205
f 291 125 286
f 346 337 323
f 49 304 288
f 173 350 351
f 297 654 314
f 347 158 864
f 304 47 311
f 47 304 49
f 47 46 481
f 360 361 855
f 501 684 146
f 481 311 47
f 46 39 481
f 343 695 329
f 314 289 297
f 289 314 160
f 481 321 308
f 481 39 321
f 325 122 321
f 325 321 37
f 37 321 39
f 333 160 314
f 324 266 333
f 527 107 231
f 84 121 325
f 36 327 498
f 160 333 34
f 327 120 84
f 36 82 371
f 277 393 390
f 689 34 333
f 34 689 340
f 313 34 331
f 266 334 689
f 334 260 341
f 340 335 331
f 107 527 110
f 54 404 405
f 696 14 344
f 61 401 44
f 38 299 407
f 358 14 348
f 14 358 16
f 344 14 352
f 356 704 712
f 352 16 368
f 413 62 417
f 370 16 358
f 16 370 18
f 175 705 134
f 713 115 110
f 371 27 378
f 27 371 82
f 381 18 370
f 18 381 19
f 368 18 375
f 80 378 27
f 19 381 235
f 19 395 23
f 19 23 178
f 202 506 913
f 23 395 24
f 386 24 396
f 398 24 395
f 24 398 26
f 26 398 220
f 26 412 399
f 396 26 399
f 418 399 412
f 164 180 444
f 444 443 164
f 175 173 705
f 685 84 120
f 422 300 415
f 685 121 84
f 172 169 300
f 172 300 422
f 78 80 27
f 226 365 78
f 89 615 114
f 240 485 309
f 134 737 175
f 226 27 82
f 245 459 452
f 187 186 140
f 243 459 245
f 189 187 130
f 581 466 579
f 467 472 637
f 308 122 240
f 138 579 466
f 430 255 463
f 499 435 430
f 453 430 435
f 435 440 439
f 435 499 450
f 243 479 281
f 308 321 122
f 897 438 584
f 439 453 435
f 243 281 893
f 450 440 435
f 480 859 865
f 440 449 447
f 442 439 440
f 450 449 440
f 447 449 454
f 492 488 493
f 127 458 456
f 449 456 28
f 82 225 708
f 454 28 462
f 28 456 30
f 456 450 127
f 30 456 458
f 225 82 36
f 30 464 460
f 506 507 502
f 126 469 125
f 287 508 509
f 207 507 506
f 410 460 32
f 126 306 477
f 460 464 644
f 644 32 460
f 32 644 63
f 475 31 576
f 470 406 32
f 64 63 644
f 306 309 477
f 125 464 458
f 528 795 511
f 516 523 524
f 655 206 63
f 206 655 484
f 206 474 470
f 162 679 497
f 316 322 822
f 313 160 34
f 37 498 325
f 523 316 534
f 497 684 501
f 501 146 505
f 146 512 503
f 505 503 513
f 263 515 510
f 512 120 115
f 503 512 91
f 517 513 503
f 115 713 91
f 458 203 125
f 315 547 548
f 91 512 115
f 547 330 336
f 91 713 88
f 517 88 522
f 552 548 547
f 532 88 713
f 88 532 519
f 552 336 553
f 522 519 541
f 527 231 561
f 127 128 458
f 538 660 692
f 514 36 498
f 224 498 37
f 538 692 695
f 114 626 631
f 553 342 105
f 219 37 39
f 555 660 561
f 127 450 499
f 891 199 824
f 660 555 661
f 218 39 46
f 199 97 886
f 366 98 284
f 22 21 98
f 41 366 581
f 43 232 22
f 907 232 43
f 96 536 907
f 45 463 255
f 45 581 463
f 255 94 96
f 255 96 45
f 94 453 545
f 448 546 545
f 582 593 594
f 595 584 438
f 216 46 47
f 216 47 49
f 551 640 558
f 558 640 569
f 49 288 209
f 793 565 50
f 569 53 558
f 566 50 565
f 209 210 49
f 841 351 350
f 574 52 566
f 578 53 57
f 612 609 423
f 53 578 563
f 575 53 569
f 597 432 211
f 253 55 574
f 57 575 597
f 578 57 592
f 592 583 578
f 627 609 612
f 584 621 628
f 603 589 606
f 602 589 597
f 634 819 627
f 610 606 602
f 835 318 229
f 626 606 58
f 610 624 58
f 58 624 630
f 632 58 630
f 634 884 869
f 58 632 626
f 60 642 632
f 642 60 649
f 60 630 181
f 650 649 643
f 662 652 645
f 656 628 621
f 621 636 656
f 658 659 204
f 64 644 469
f 466 495 138
f 694 377 700
f 468 471 431
f 663 650 65
f 628 656 668
f 679 162 484
f 65 686 663
f 672 673 659
f 686 65 66
f 683 65 651
f 468 431 478
f 683 693 67
f 685 146 684
f 146 685 512
f 696 340 689
f 66 67 701
f 473 495 478
f 66 698 686
f 702 67 693
f 668 675 687
f 701 698 66
f 405 690 54
f 701 67 70
f 54 690 564
f 14 696 348
f 711 70 710
f 699 70 711
f 702 709 710
f 229 318 236
f 657 282 471
f 710 709 742
f 753 756 740
f 756 753 72
f 742 754 72
f 72 754 768
f 72 765 756
f 766 765 770
f 490 193 496
f 130 772 496
f 770 776 766
f 15 719 168
f 87 201 148
f 183 770 768
f 201 194 136
f 422 705 172
f 633 777 338
f 777 633 150
f 408 74 633
f 638 185 408
f 106 730 258
f 688 379 694
f 275 631 118
f 185 692 145
f 197 750 749
f 736 737 738
f 263 258 730
f 738 741 743
f 185 145 143
f 743 741 744
f 744 741 74
f 744 467 879
f 132 140 145
f 123 132 661
f 741 738 150
f 123 540 567
f 773 772 567
f 738 134 150
f 78 27 226
f 238 623 1
f 264 279 779
f 776 150 134
f 134 705 420
f 695 541 538
f 104 599 261
f 365 681 680
f 761 762 763
f 365 678 76
f 76 78 365
f 411 156 420
f 156 411 220
f 541 519 538
f 220 764 156
f 76 233 78
f 80 78 233
f 168 789 387
f 70 699 701
f 398 395 228
f 434 437 445
f 779 780 887
f 428 432 434
f 926 317 706
f 197 749 745
f 213 6 4
f 279 785 780
f 419 427 428
f 148 201 745
f 454 462 419
f 526 782 783
f 381 734 235
f 410 414 419
f 493 769 913
f 511 4 215
f 4 511 213
f 406 414 410
f 208 731 729
f 21 511 215
f 210 728 727
f 794 800 823
f 511 21 529
f 470 474 179
f 724 218 46
f 227 110 115
f 118 280 275
f 219 218 722
f 806 800 794
f 803 804 256
f 716 778 225
f 224 219 720
f 407 86 690
f 356 734 381
f 389 497 380
f 809 795 528
f 810 806 811
f 717 716 514
f 497 501 380
f 317 697 429
f 810 818 821
f 913 771 202
f 341 698 699
f 373 376 159
f 369 177 373
f 341 260 698
f 260 334 266
f 365 226 681
f 517 522 354
f 828 821 818
f 354 362 364
f 569 640 446
f 519 522 88
f 767 828 818
f 266 324 676
f 602 597 211
f 804 834 256
f 121 240 122
f 345 868 918
f 610 602 211
f 169 839 166
f 427 195 211
f 643 179 174
f 683 651 165
f 693 683 171
f 627 884 634
f 324 654 676
f 846 397 841
f 841 397 374
f 362 709 369
f 580 397 846
f 192 188 190
f 192 499 489
f 128 192 190
f 270 205 203
f 205 288 286
f 291 306 126
f 208 148 733
f 288 304 291
f 304 311 306
f 311 481 308
f 286 125 203
f 283 118 297
f 589 599 592
f 283 280 118
f 227 115 120
f 747 805 732
f 707 226 82
f 107 378 80
f 275 114 631
f 118 646 297
f 89 114 275
f 231 233 103
f 87 209 205
f 816 872 870
f 271 108 89
f 248 560 455
f 248 241 560
f 108 271 265
f 566 565 241
f 86 876 690
f 622 244 619
f 517 91 88
f 574 566 248
f 715 662 889
f 244 249 618
f 249 250 614
f 882 465 718
f 253 251 257
f 774 465 882
f 250 259 608
f 883 494 774
f 921 391 560
f 259 267 604
f 54 564 847
f 251 577 583
f 600 267 5
f 89 276 271
f 503 91 517
f 690 405 407
f 275 276 89
f 892 573 582
f 272 278 596
f 248 577 574
f 280 276 275
f 425 588 591
f 425 424 781
f 781 313 572
f 424 313 781
f 572 585 781
f 314 654 324
f 136 197 201
f 313 557 572
f 237 551 558
f 554 331 335
f 334 341 348
f 760 136 138
f 335 344 549
f 341 699 704
f 348 696 334
f 921 319 7
f 358 348 704
f 344 352 544
f 912 582 594
f 903 586 551
f 352 368 543
f 381 370 356
f 368 375 539
f 788 8 3
f 535 375 178
f 221 795 809
f 828 767 562
f 559 833 920
f 921 920 899
f 546 448 898
f 903 922 836
f 38 903 299
f 235 228 395
f 405 669 407
f 546 92 94
f 400 518 520
f 92 546 904
f 639 35 926
f 386 396 525
f 927 926 33
f 928 605 930
f 200 490 298
f 94 545 546
f 96 92 536
f 927 56 852
f 143 472 408
f 220 412 26
f 400 520 521
f 412 220 411
f 109 113 152
f 920 832 559
f 418 412 411
f 152 113 746
f 387 789 786
f 420 418 411
f 746 161 867
f 418 420 422
f 490 773 298
f 496 772 773
f 394 442 445
f 562 767 832
f 739 636 820
f 204 725 658
f 773 490 496
f 725 223 635
f 447 454 428
f 472 186 637
f 215 284 98
f 189 130 496
f 458 464 30
f 410 462 460
f 125 469 464
f 635 247 487
f 487 269 629
f 641 487 629
f 268 269 487
f 269 393 629
f 390 269 268
f 469 126 64
f 349 761 763
f 655 64 477
f 303 674 670
f 290 393 277
f 611 290 928
f 163 474 483
f 928 307 605
f 635 641 648
f 531 605 533
f 677 674 100
f 477 309 485
f 506 202 207
f 679 485 240
f 240 121 684
f 312 912 594
f 684 679 240
f 121 685 684
f 186 187 345
f 503 505 146
f 912 332 892
f 772 130 132
f 685 120 512
f 501 505 159
f 725 648 658
f 505 513 373
f 513 517 364
f 892 847 564
f 110 527 713
f 714 847 339
f 522 541 154
f 51 714 346
f 231 103 540
f 714 51 404
f 541 695 343
f 567 772 123
f 502 500 506
f 578 577 563
f 867 659 673
f 577 578 583
f 597 575 432
f 592 104 583
f 913 492 493
f 845 167 839
f 599 104 592
f 386 178 23
f 599 603 615
f 110 227 378
f 615 261 599
f 706 402 639
f 603 626 114
f 132 123 772
f 624 610 195
f 409 706 317
f 746 673 682
f 114 615 603
f 120 327 227
f 624 414 403
f 691 429 697
f 642 631 632
f 642 118 631
f 429 433 853
f 646 118 642
f 642 649 646
f 152 682 691
f 682 433 691
f 181 643 60
f 654 297 646
f 122 325 121
f 140 130 187
f 421 416 617
f 123 661 555
f 309 308 240
f 698 260 686
f 702 693 177
f 698 701 699
f 672 441 436
f 291 126 125
f 109 691 697
f 143 140 186
f 874 872 816
f 665 441 672
f 188 192 489
f 665 658 653
f 712 704 699
f 653 451 665
f 927 697 317
f 712 740 734
f 648 461 653
f 178 375 19
f 923 880 116
f 641 461 648
f 740 756 748
f 748 758 228
f 926 706 639
f 479 641 482
f 754 742 362
f 354 754 362
f 407 669 38
f 203 458 128
f 482 629 620
f 756 765 758
f 182 754 154
f 128 127 192
f 254 246 252
f 611 382 620
f 764 398 228
f 499 192 127
f 764 766 156
f 766 776 156
f 930 611 928
f 420 156 776
f 140 132 130
f 788 7 8
f 387 166 168
f 420 776 134
f 136 760 197
f 300 387 415
f 750 197 760
f 745 201 197
f 148 208 209
f 733 148 745
f 258 35 106
f 593 533 605
f 731 208 733
f 236 318 910
f 729 210 208
f 728 210 729
f 727 216 210
f 188 489 579
f 929 573 556
f 724 216 727
f 573 929 582
f 723 218 724
f 722 218 723
f 720 219 722
f 717 224 720
f 514 224 717
f 188 579 138
f 876 556 573
f 707 681 226
f 898 904 546
f 472 143 186
f 212 795 221
f 899 391 921
f 854 925 931
f 213 795 212
f 140 143 145
f 404 54 714
f 833 922 924
f 415 387 786
f 143 408 185
f 238 3 793
f 1 3 238
f 31 799 752
f 622 238 244
f 918 799 515
f 380 376 171
f 915 752 357
f 617 476 421
f 619 244 618
f 618 249 616
f 616 249 614
f 636 739 613
f 388 613 10
f 614 250 608
f 357 791 915
f 383 688 388
f 608 259 607
f 571 438 576
f 295 667 666
f 92 96 94
f 607 259 604
f 372 726 700
f 667 295 303
f 367 726 372
f 604 267 601
f 298 295 207
f 923 875 880
f 363 732 367
f 408 467 74
f 148 209 87
f 298 301 295
f 359 747 363
f 601 267 600
f 359 355 755
f 600 272 598
f 598 272 596
f 353 755 355
f 301 298 773
f 596 278 591
f 747 755 751
f 591 278 425
f 588 425 781
f 388 688 813
f 769 771 913
f 763 353 349
f 202 771 200
f 506 500 913
f 74 467 744
f 773 570 301
f 82 708 707
f 320 647 326
f 500 492 913
f 331 554 557
f 242 910 320
f 344 335 340
f 910 908 647
f 554 335 550
f 239 222 703
f 549 550 335
f 549 344 544
f 166 167 168
f 544 352 543
f 543 368 542
f 17 15 167
f 17 845 157
f 907 536 919
f 157 850 155
f 155 850 153
f 542 368 539
f 150 633 74
f 153 854 151
f 151 854 149
f 149 858 147
f 147 862 144
f 539 375 535
f 759 903 38
f 530 535 178
f 144 862 141
f 141 866 139
f 139 866 137
f 530 386 525
f 137 870 135
f 525 396 521
f 135 870 872
f 133 872 131
f 131 874 129
f 129 923 117
f 923 874 875
f 170 119 902
f 521 396 400
f 20 932 101
f 99 101 932
f 99 886 97
f 95 97 199
f 95 891 93
f 93 896 90
f 518 400 786
f 90 896 85
f 85 901 83
f 83 905 81
f 169 166 300
f 81 905 79
f 77 79 796
f 77 909 75
f 439 394 545
f 75 914 73
f 73 914 71
f 71 916 69
f 442 394 439
f 468 466 366
f 442 447 434
f 7 562 920
f 794 534 811
f 924 899 833
f 434 447 428
f 428 454 419
f 419 462 410
f 38 898 759
f 902 111 897
f 466 468 495
f 526 524 534
f 25 59 56
f 96 43 45
f 895 401 61
f 182 343 338
f 483 389 163
f 483 162 389
f 897 59 25
f 883 894 775
f 776 777 150
f 59 897 111
f 380 384 389
f 774 882 893
f 111 902 119
f 778 708 225
f 501 159 380
f 167 166 839
f 159 505 373
f 176 191 867
f 373 513 369
f 364 369 513
f 850 890 925
f 354 364 517
f 354 522 154
f 177 369 709
f 154 541 343
f 446 445 437
f 376 380 159
f 204 223 725
f 217 198 214
f 214 703 222
f 437 569 446
f 610 211 195
f 414 624 195
f 403 630 624
f 889 718 715
f 160 313 424
f 181 630 403
f 888 246 239
f 179 643 181
f 174 650 643
f 651 650 174
f 163 384 165
f 487 247 268
f 165 651 163
f 171 683 165
f 174 474 163
f 557 313 331
f 475 515 799
f 376 693 171
f 285 273 757
f 177 693 376
f 627 885 884
f 174 179 474
f 509 508 516
f 294 302 310
f 709 702 177
f 709 362 742
f 154 754 354
f 182 338 183
f 780 785 803
f 183 768 182
f 423 413 881
f 183 338 777
f 638 338 343
f 633 638 408
f 590 401 895
f 692 185 329
f 190 188 194
f 515 475 25
f 270 190 194
f 190 270 128
f 195 427 414
f 7 788 562
f 915 878 571
f 877 595 438
f 203 205 286
f 44 48 61
f 474 206 483
f 210 209 208
f 61 62 895
f 413 895 62
f 211 432 427
f 172 42 169
f 398 764 220
f 515 263 918
f 437 575 569
f 228 758 764
f 124 885 426
f 175 871 350
f 84 498 327
f 225 514 716
f 327 371 227
f 918 263 730
f 898 448 759
f 371 327 36
f 839 374 890
f 227 371 378
f 451 441 665
f 228 235 748
f 444 180 457
f 233 231 107
f 187 868 345
f 759 448 586
f 189 292 868
f 734 748 235
f 653 461 826
f 924 922 237
f 292 193 196
f 446 671 394
f 461 641 479
f 922 551 237
f 391 237 455
f 482 641 629
f 918 868 799
f 196 200 293
f 771 293 200
f 558 455 237
f 281 287 894
f 894 893 281
f 248 566 241
f 257 251 104
f 255 430 453
f 257 261 265
f 509 775 287
f 260 266 676
f 509 516 524
f 265 261 108
f 523 516 531
f 322 316 523
f 273 252 888
f 265 271 262
f 811 534 316
f 316 315 811
f 676 686 260
f 366 466 581
f 478 495 468
f 330 547 315
f 547 336 552
f 366 471 468
f 760 495 473
f 657 471 284
f 336 342 553
f 553 900 552
f 832 900 553
f 865 878 791
f 792 284 4
f 31 571 576
f 286 288 291
f 438 571 877
f 906 864 863
f 4 790 792
f 8 7 319
f 303 295 301
f 291 304 306
f 570 773 567
f 739 617 392
f 617 416 392
f 306 311 309
f 309 311 308
f 170 628 668
f 613 739 10
f 739 392 10
f 656 675 668
f 656 815 675
f 680 678 365
f 813 613 388
f 324 333 314
f 687 198 668
f 379 688 383
f 295 666 207
f 815 656 636
f 377 694 379
f 325 498 84
f 689 333 266
f 334 696 689
f 700 377 372
f 861 834 860
f 703 721 239
f 732 726 367
f 834 861 256
f 348 341 704
f 747 732 363
f 356 358 704
f 735 888 721
f 370 358 356
f 735 264 757
f 735 273 888
f 755 747 359
f 369 364 362
f 353 763 755
f 647 761 326
f 761 349 326
f 376 373 177
f 779 757 264
f 780 779 279
f 384 380 171
f 235 395 19
f 736 871 737
f 562 788 917
f 910 647 320
f 785 804 803
f 414 406 403
f 256 323 803
f 813 675 815
f 415 786 400
f 427 419 414
f 422 420 705
f 432 428 427
f 430 489 499
f 587 580 590
f 437 434 432
f 445 442 434
f 446 394 445
f 671 586 448
f 819 609 627
f 456 449 450
f 455 563 248
f 865 791 769
f 581 579 463
f 645 652 817
f 644 464 469
f 652 662 715
f 874 923 129
f 715 664 652
f 694 812 688
f 477 64 126
f 750 760 473
f 485 655 477
f 465 715 718
f 507 207 666
f 465 774 494
f 865 486 480
f 812 675 813
f 485 484 655
f 207 202 298
f 883 504 825
f 493 865 769
f 783 782 504
f 679 484 485
f 202 200 298
f 196 490 200
f 196 193 490
f 877 859 476
f 302 803 323
f 189 496 193
f 814 806 810
f 168 719 789
f 821 814 810
f 391 899 924
f 713 527 532
f 467 408 472
f 302 294 887
f 786 787 518
f 538 519 532
f 561 532 527
f 926 35 33
f 538 532 660
f 540 555 561
f 551 586 640
f 319 241 565
f 660 532 561
f 113 161 746
f 161 176 867
f 8 319 565
f 223 247 635
f 781 585 784
f 620 629 393
f 887 780 302
f 269 390 393
f 671 640 586
f 781 784 588
f 599 589 603
f 393 290 611
f 626 603 606
f 928 290 305
f 623 238 622
f 625 1 623
f 774 893 894
f 312 332 912
f 626 632 631
f 332 339 847
f 847 892 332
f 757 887 285
f 847 714 54
f 793 3 8
f 732 807 726
f 858 931 857
f 675 812 687
f 168 167 15
f 273 735 757
f 920 921 7
f 402 385 639
f 167 845 17
f 638 633 338
f 646 649 663
f 650 663 649
f 845 850 157
f 888 239 721
f 663 654 646
f 706 409 48
f 850 854 153
f 676 654 663
f 429 409 317
f 661 692 660
f 854 858 149
f 676 663 686
f 858 862 147
f 433 429 691
f 678 680 677
f 699 711 712
f 712 734 356
f 711 710 753
f 862 866 141
f 712 711 740
f 682 436 827
f 734 740 748
f 866 870 137
f 214 687 808
f 748 756 758
f 664 816 652
f 872 133 135
f 198 687 214
f 754 182 768
f 872 874 131
f 665 659 658
f 758 765 766
f 658 648 653
f 766 764 758
f 776 770 777
f 668 198 170
f 117 923 116
f 787 786 789
f 929 330 822
f 533 822 322
f 556 336 330
f 531 322 523
f 899 920 833
f 662 444 889
f 346 323 256
f 491 482 620
f 116 880 911
f 911 20 116
f 382 491 620
f 911 932 20
f 932 886 99
f 645 443 662
f 930 382 611
f 382 930 516
f 886 824 199
f 605 531 930
f 491 508 848
f 628 170 902
f 256 347 346
f 482 848 479
f 891 896 93
f 347 256 861
f 820 617 739
f 866 819 817
f 605 594 593
f 896 901 85
f 929 593 582
f 612 881 885
f 901 905 83
f 826 451 653
f 451 457 180
f 672 659 665
f 441 180 851
f 79 905 796
f 436 673 672
f 436 851 827
f 909 914 75
f 682 673 436
f 914 916 71
f 584 902 897
f 876 86 342
f 69 916 1
f 829 433 827
f 700 808 694
f 788 3 916
f 853 829 417
f 409 61 48
f 402 48 855
f 870 817 816
f 855 29 360
f 874 816 664
f 385 361 102
f 830 880 875
f 576 897 25
f 819 634 817
f 68 69 1
f 106 856 730
f 743 736 738
f 910 242 236
f 862 857 819
f 744 879 102
f 880 830 831
f 840 528 843
f 401 846 44
f 803 302 780
f 769 791 357
f 878 915 791
f 831 911 880
f 918 873 345
f 576 25 475
f 799 31 475
f 841 29 846
f 879 856 102
f 106 639 385
f 573 564 876
f 911 831 802
f 342 556 876
f 337 339 332
f 25 510 515
f 350 29 841
f 564 573 892
f 892 582 912
f 510 25 56
f 864 906 837
f 312 328 337
f 929 822 593
f 33 35 258
f 871 360 29
f 840 860 835
f 864 158 863
f 29 855 44
f 916 914 917
f 808 687 812
f 594 307 312
f 307 305 328
f 916 917 788
f 33 56 927
f 840 835 809
f 307 594 605
f 736 743 361
f 531 516 930
f 290 277 305
f 852 109 927
f 318 835 860
f 21 844 529
f 852 59 112
f 620 393 611
f 102 743 744
f 112 113 852
f 751 763 762
f 647 785 762
f 805 747 751
f 252 268 254
f 230 835 229
f 487 641 635
f 637 879 467
f 124 851 164
f 809 230 221
f 161 142 176
f 807 732 805
f 247 234 254
f 230 809 835
f 808 700 807
f 345 637 186
f 176 184 191
f 812 694 808
f 204 849 223
f 849 204 191
f 813 688 812
f 635 648 725
f 849 184 198
f 815 613 813
f 815 636 613
f 217 223 849
f 659 191 204
f 217 234 223
f 191 184 849
f 859 480 421
f 795 213 511
f 245 461 243
f 878 865 859
f 802 886 932
f 191 659 867
f 452 718 889
f 223 234 247
f 176 142 184
f 246 254 234
f 865 493 486
f 293 771 357
f 268 247 254
f 771 769 357
f 805 264 735
f 268 252 390
f 161 113 112
f 486 493 488
f 390 252 274
f 867 673 746
f 264 751 279
f 274 277 390
f 746 682 152
f 281 848 287
f 827 433 682
f 808 703 214
f 152 691 109
f 109 852 113
f 476 859 421
f 296 305 277
f 476 595 877
f 305 307 928
f 196 293 292
f 595 476 820
f 726 807 700
f 752 293 357
f 307 328 312
f 310 328 305
f 56 59 852
f 292 752 799
f 328 310 323
f 886 825 824
f 312 337 332
f 807 703 808
f 891 824 782
f 193 292 189
f 844 21 22
f 429 853 409
f 109 697 927
f 56 33 510
f 105 559 553
f 339 337 346
f 346 714 339
f 51 346 347
f 317 926 927
f 564 690 876
f 863 844 232
f 799 868 292
f 510 33 258
f 843 528 529
f 844 863 842
f 861 840 843
f 861 158 347
f 861 860 840
f 752 915 31
f 158 843 842
f 843 158 861
f 842 529 844
f 919 837 906
f 906 232 907
f 809 528 840
f 730 873 918
f 730 856 873
f 873 856 879
f 856 106 385
f 817 634 645
f 837 919 838
f 817 652 816
f 919 906 907
f 919 536 537
f 743 102 361
f 904 669 838
f 898 669 904
f 669 898 38
f 703 807 721
f 405 404 838
f 669 405 838
f 922 833 836
f 294 285 887
f 361 385 402
f 869 645 634
f 830 875 664
f 916 3 1
f 864 51 347
f 402 855 361
f 909 801 914
f 397 890 374
f 48 44 855
f 796 909 77
f 879 637 873
f 901 798 905
f 580 925 397
f 48 402 706
f 896 800 901
f 891 823 896
f 409 62 61
f 853 62 409
f 881 413 417
f 417 62 853
f 86 407 299
f 459 893 882
f 199 891 95
f 830 465 831
f 829 426 417
f 426 829 124
f 426 881 417
f 124 829 827
f 433 829 853
f 886 802 825
f 774 894 883
f 851 124 827
f 164 884 124
f 441 851 436
f 180 164 851
f 443 869 164
f 911 802 932
f 715 830 664
f 874 664 875
f 736 361 360
f 451 180 441
f 457 452 889
f 889 444 457
f 866 817 870
f 106 35 639
f 459 718 452
f 826 452 457
f 452 826 245
f 451 826 457
f 862 819 866
f 858 857 862
f 461 245 826
f 459 882 718
f 479 243 461
f 854 931 858
f 850 925 854
f 846 401 580
f 845 890 850
f 491 848 482
f 848 281 479
f 825 494 883
f 382 508 491
f 900 832 767
f 508 287 848
f 896 823 800
f 839 890 845
f 504 782 824
f 42 374 839
f 516 508 382
f 908 910 318
f 534 524 523
f 552 818 548
f 42 172 173
f 901 800 798
f 818 552 900
f 533 322 531
f 871 175 737
f 868 187 189
f 22 232 844
f 593 822 533
f 822 315 316
f 929 556 330
f 330 315 822
f 838 919 537
f 904 838 537
f 318 860 834
f 908 318 834
f 465 830 715
f 556 342 336
f 105 836 559
f 833 559 836
f 29 44 846
f 908 834 804
f 562 917 828
f 299 836 105
f 818 900 767
f 832 553 559
f 562 832 920
f 811 315 548
f 828 801 821
f 801 828 917
f 821 797 814
f 836 299 903
f 401 590 580
f 797 821 801
f 905 798 796
f 796 814 797
f 810 548 818
f 814 798 806
f 798 814 796
f 909 796 797
f 811 548 810
f 413 587 590
f 404 51 837
f 51 864 837
f 837 838 404
f 909 797 801
f 529 842 843
f 158 842 863
f 232 906 863
f 800 806 798
f 529 528 511
f 794 811 806
f 785 908 804
f 785 647 908
f 859 877 878
f 526 534 794
f 877 571 878
f 571 31 915
f 173 351 42
f 524 783 509
f 350 173 175
f 29 350 871
f 823 526 794
f 783 524 526
f 526 823 782
f 42 351 374
f 841 374 351
f 504 775 783
f 509 783 775
f 782 823 891
f 885 124 884
f 887 757 779
f 914 801 917
f 426 885 881
f 890 397 925
f 825 504 824
f 775 504 883
f 925 587 931
f 587 925 580
f 802 494 825
f 785 279 762
f 494 831 465
f 831 494 802
f 894 287 775
f 590 895 413
f 438 897 576
f 884 164 869
f 762 279 751
f 423 931 587
f 587 413 423
f 931 423 857
f 762 761 647
f 617 820 476
f 595 820 621
f 751 755 763
f 893 459 243
f 751 264 805
f 609 857 423
f 423 881 612
f 662 443 444
f 721 805 735
f 621 584 595
f 857 609 819
f 443 645 869
f 612 885 627
f 636 621 820
f 628 902 584
f 805 721 807
