# avbd fit, rung f1800-i32-s300 of Gate 6d (body space, fit phase only)
v -0.011780349 0.692004204 -0.002127996
v -0.097386152 0.699883044 0.068513937
v -0.012119689 0.705957770 -0.002070772
v 0.002961294 0.945912540 0.070506677
v -0.149963319 0.682582319 0.067541920
v 0.004551869 0.968410671 0.070902959
v -0.012210569 0.733112454 -0.001098028
v -0.011710704 0.719499290 -0.001653709
v -0.151089847 0.698514104 0.068287030
v 0.149058983 0.954987884 -0.081452496
v -0.170969278 0.694144428 0.060250450
v -0.192816868 0.694628954 0.044399474
v -0.201174095 0.695546031 0.026920170
v -0.165090144 0.694293857 -0.078869700
v 0.009964390 0.700975418 -0.022231501
v -0.146240383 0.691855729 -0.086831182
v 0.025845226 0.698529601 -0.027625879
v -0.128393725 0.693448424 -0.095370710
v -0.106023386 0.699307680 -0.102638885
v 0.201047689 0.658207834 0.015241888
v 0.001636398 0.915614486 0.069240287
v 0.001094359 0.900476277 0.068214595
v -0.088503465 0.697650135 -0.096172616
v -0.074261755 0.705336452 -0.092703700
v 0.098665483 0.854166627 -0.140500486
v -0.060048006 0.715206504 -0.089676663
v -0.135746762 0.924719334 -0.117657207
v -0.123439893 0.849006295 0.063269891
v 0.030635780 0.770832121 -0.073038667
v -0.135832503 0.857590199 0.057014227
v 0.071301602 0.885176659 -0.148888677
v -0.175908327 0.839092731 0.044132605
v 0.087264866 0.820390105 -0.118579641
v -0.204768136 0.690333664 -0.034996312
v 0.071228877 0.814355969 -0.110165320
v -0.158499181 0.926585317 -0.088616684
v -0.171053514 0.921401501 -0.047782827
v 0.013071659 0.814097762 0.025852244
v -0.170504481 0.923847020 -0.027673980
v -0.079986461 0.924392223 -0.141474411
v -0.023888383 0.903593242 0.067445934
v 0.010618748 0.744573712 -0.042429149
v -0.015185866 0.886024475 0.065997794
v 0.048797563 0.767277122 -0.096167907
v -0.034024723 0.886979759 0.065237530
v -0.164320886 0.929538071 -0.008471182
v -0.160306245 0.915660024 -0.000154069
v 0.062111545 0.782521605 -0.101218566
v -0.149918646 0.919421494 0.014862846
v -0.037495870 0.705008864 0.023998344
v 0.053649854 0.862542152 0.057484411
v -0.049351264 0.702453196 0.043480270
v -0.064723551 0.773363709 0.060059510
v 0.050914276 0.833657265 0.047453772
v -0.071056701 0.700224936 0.057997089
v 0.104639396 0.831802070 -0.124347135
v -0.088335775 0.769337058 0.069487184
v -0.162912503 0.775111377 0.067458533
v 0.122720160 0.847231984 -0.125458509
v -0.195671007 0.773364425 0.039204497
v 0.070838496 0.766213417 -0.102113411
v 0.091376677 0.760734916 -0.107025862
v -0.184044644 0.848619759 0.026763294
v -0.176510692 0.864839435 0.023644935
v -0.209355637 0.771290362 -0.029327661
v -0.198782474 0.765418768 -0.056042559
v -0.188598424 0.775427222 -0.072020397
v -0.005707433 0.678023934 -0.003659821
v 0.011959763 0.680597603 -0.003031447
v -0.171182126 0.764327705 -0.089983530
v 0.026879329 0.679875731 -0.000440190
v -0.111530557 0.777096272 -0.114624336
v 0.034591340 0.676689982 0.012560615
v -0.023384670 0.813519120 -0.090937175
v 0.043005951 0.673842788 0.025719110
v -0.100408688 0.926299572 -0.135869026
v 0.051585514 0.671004653 0.039082997
v -0.118143380 0.927363575 -0.128523558
v 0.065150052 0.669099033 0.053184949
v -0.125996709 0.913722515 -0.129399747
v 0.080183886 0.667763829 0.059240270
v -0.143387258 0.938437283 -0.104882300
v 0.095091142 0.666231930 0.065216787
v -0.168657959 0.893610656 -0.073882595
v 0.109657034 0.664627135 0.071047738
v 0.031590354 0.799911320 0.038754795
v -0.120716885 0.918656051 0.042190831
v -0.127754524 0.847168744 -0.120963715
v -0.151165307 0.724660397 0.069828533
v 0.129240185 0.662914634 0.074527338
v -0.146091133 0.854412556 -0.110979199
v -0.016501041 0.848815143 0.056610085
v 0.143218249 0.662707090 0.068181559
v -0.035326291 0.852051854 0.055567157
v 0.157443732 0.661841094 0.062059354
v -0.021749448 0.866815925 0.062711351
v 0.171710372 0.660787582 0.056042254
v -0.014124361 0.920111477 0.069007039
v 0.187134296 0.659532487 0.043833993
v -0.066734456 0.938331962 -0.136472210
v 0.193685934 0.659185648 0.030235279
v 0.023123225 0.813641250 -0.090978995
v -0.093665011 0.909655094 -0.144698784
v -0.096899077 0.736234844 0.070940450
v 0.029131452 0.784643650 0.028235912
v 0.053615738 0.814538002 -0.111246072
v -0.123263881 0.896535873 -0.133818418
v -0.133403808 0.722305954 0.076248385
v 0.127410024 0.815585434 -0.113662526
v -0.138421625 0.885758102 -0.124504603
v 0.137573257 0.857657313 -0.119592965
v 0.140041947 0.842270851 -0.105028130
v 0.142054647 0.825897038 -0.107370183
v -0.157070667 0.741191506 0.069302045
v -0.152349606 0.876363575 -0.112391591
v 0.201450586 0.657608926 -0.001182187
v 0.201545835 0.656936824 -0.015500669
v -0.196142197 0.731596887 0.042444248
v 0.152575612 0.857794940 -0.104618110
v -0.164718136 0.886189759 -0.092268057
v -0.177085891 0.885257065 -0.058465339
v -0.173783705 0.894032776 -0.040976986
v -0.057889897 0.877508640 -0.148394361
v 0.151526943 0.749940991 -0.096289746
v -0.150881648 0.884195030 0.039398748
v -0.167405874 0.879992366 0.023079246
v -0.103652038 0.874078572 0.051336028
v -0.112977341 0.885494709 0.046395734
v 0.198242962 0.656702161 -0.033557914
v -0.020946935 0.867928386 -0.137555465
v 0.190011427 0.656972766 -0.046830155
v -0.040756110 0.862876534 -0.142601460
v 0.180688351 0.657385767 -0.060088813
v -0.028808782 0.780176044 -0.069156423
v 0.165960938 0.657908738 -0.071622677
v -0.093546182 0.926137924 0.055309184
v 0.151461303 0.658890605 -0.078115977
v -0.075362548 0.922239184 0.061809011
v 0.136980787 0.659761667 -0.084584892
v -0.021635804 0.851653397 -0.133627906
v 0.121729746 0.660024524 -0.090090528
v 0.161641538 0.851292312 -0.096227176
v -0.023298917 0.836190104 -0.123004392
v 0.102764748 0.662132084 -0.092371732
v -0.042402040 0.843178451 -0.136504531
v -0.176269144 0.857519984 -0.081196442
v 0.088895239 0.665909350 -0.087342575
v -0.122306630 0.934777141 0.040957488
v 0.074082308 0.669741869 -0.082629614
v -0.034707729 0.800195992 -0.078137286
v 0.059214704 0.673668027 -0.077880353
v 0.143243715 0.808976471 -0.106860779
v 0.044564728 0.677512646 -0.073086590
v -0.103269801 0.816848934 -0.111724809
v 0.034130596 0.684814036 -0.054663014
v -0.054386765 0.752957582 -0.095716834
v 0.030341828 0.691614091 -0.040662892
v 0.045710549 0.893687904 0.064872772
v -0.185898975 0.828485489 -0.075666890
v -0.207241580 0.697382450 -0.010170734
v 0.158736616 0.833432496 -0.099599332
v -0.198851913 0.844300151 -0.026977237
v -0.205481216 0.813080668 -0.017699499
v 0.172763556 0.742162228 -0.084601000
v -0.206280991 0.801916778 -0.037129447
v -0.012615388 0.724924803 -0.032896779
v 0.013915367 0.714975536 -0.029689010
v -0.012195501 0.712711573 -0.027045205
v -0.011836597 0.736509264 -0.039471284
v 0.164994434 0.868900597 -0.089225158
v -0.198703289 0.805560708 -0.058049984
v -0.011986240 0.749358177 -0.043350127
v -0.012490208 0.761744559 -0.049062975
v -0.209569529 0.800444126 0.001781264
v -0.012396252 0.774896264 -0.053232532
v 0.176638424 0.840668380 -0.087399490
v -0.175790310 0.801217854 -0.092779562
v -0.093334749 0.682111025 -0.094674252
v -0.195167556 0.808620274 0.028912585
v 0.187863335 0.757958353 -0.069764376
v -0.193954244 0.791124463 0.040294558
v -0.089052483 0.804938495 -0.108620346
v -0.074065559 0.795305789 -0.104910016
v 0.178368196 0.856871307 -0.077213630
v -0.044209130 0.829027832 -0.124926314
v -0.002494139 0.844978631 -0.120455205
v -0.002074079 0.857233644 -0.127949983
v -0.087351188 0.906350017 0.058535814
v -0.001817060 0.870344818 -0.130762711
v -0.103534296 0.898903251 0.051722787
v 0.186872110 0.835329831 -0.071481317
v -0.094032481 0.887450397 0.054804198
v -0.001682346 0.884109378 -0.132509947
v -0.105566442 0.914866149 0.050039958
v -0.144123048 0.798633039 0.070553713
v -0.001295214 0.897816062 -0.132316977
v -0.098569378 0.942121625 0.050654203
v 0.178377002 0.875156581 -0.063592628
v 0.167603016 0.677208304 0.059953164
v -0.000745415 0.911883533 -0.131652027
v -0.108736217 0.931706309 0.046569768
v -0.000200832 0.925621152 -0.129229039
v -0.128423646 0.890293479 0.040090837
v 0.197233990 0.829445004 -0.053645659
v -0.131703421 0.905286610 0.036063723
v -0.197836816 0.840679467 0.011728535
v 0.000325042 0.939793766 -0.126143128
v -0.132749006 0.937639236 0.032567434
v -0.137601838 0.921982646 0.031384744
v -0.142751366 0.935796380 0.018895043
v -0.124981686 0.793193221 0.076197892
v 0.039508782 0.960750222 0.069117069
v 0.019758616 0.963989913 0.070232496
v 0.177733734 0.888366818 -0.038550515
v 0.002305322 0.930775821 0.069997892
v -0.153661385 0.933531880 0.004531715
v 0.187974557 0.867410302 -0.038762696
v -0.166018501 0.938364685 -0.020347847
v -0.168200880 0.938267827 -0.036995288
v -0.060313784 0.733448625 -0.094103970
v 0.028796032 0.957017124 0.069748044
v 0.183696836 0.879240870 -0.021042289
v 0.198643431 0.843493640 -0.031620514
v -0.166146025 0.937587738 -0.053838331
v -0.153255895 0.944162726 -0.086290136
v -0.126825690 0.942193329 -0.117143787
v -0.152726278 0.895905137 -0.108850792
v -0.091306143 0.731290698 -0.104170069
v 0.064989135 0.958185196 0.062386148
v 0.050410520 0.959228814 0.066187285
v -0.104423940 0.892454445 -0.141967073
v 0.000601463 0.885923505 0.066465244
v -0.110758938 0.911205173 -0.136802524
v 0.192301944 0.861152530 -0.017561128
v -0.107329048 0.720095217 -0.107209407
v 0.077656947 0.958018780 0.059164315
v -0.026757825 0.776295424 0.019611388
v -0.030178478 0.693016112 0.008439890
v 0.179200500 0.889685929 -0.005213478
v -0.183279365 0.878619015 -0.033381782
v -0.034237541 0.731865346 0.024877343
v 0.090034306 0.961103916 0.053496350
v 0.210869744 0.763134599 0.004590166
v -0.043145604 0.688149691 0.029366722
v 0.210291505 0.762411714 -0.015146157
v 0.187374189 0.874162495 -0.001624584
v 0.200157046 0.842567623 -0.006708742
v -0.042445160 0.739591658 0.041326653
v -0.060828559 0.685141921 0.052511811
v -0.083832987 0.684482634 0.061711371
v -0.079167530 0.728898406 0.063460290
v 0.179709136 0.863948524 0.020517772
v -0.080937542 0.713432729 0.063055031
v 0.194305465 0.859453499 0.003335096
v -0.043829437 0.868918538 0.061597206
v 0.085849404 0.890081882 0.058676429
v -0.097395614 0.719217479 0.069980130
v 0.066218033 0.824781597 -0.123667680
v -0.106181882 0.681428611 0.070429817
v -0.199017450 0.733712316 -0.051753093
v -0.112923346 0.728391051 0.076794840
v -0.128973633 0.694361567 0.076860391
v 0.058298837 0.835429966 -0.134036779
v 0.135175467 0.893613040 0.030110553
v -0.115100719 0.711121798 0.076346867
v -0.204237342 0.719818294 -0.042107921
v -0.133098155 0.677095234 0.073874384
v 0.192569345 0.845105529 0.018034734
v 0.189055949 0.831027150 0.028647285
v -0.118035480 0.901747406 0.044488207
v -0.140759751 0.710101068 0.072842956
v -0.166117385 0.676116288 0.059938092
v 0.165527835 0.877355695 0.028080020
v 0.167240739 0.861274064 0.038859151
v -0.172560841 0.727524757 0.062429935
v -0.162557453 0.711204886 0.064363882
v 0.166443750 0.845953822 0.052031308
v -0.185470134 0.677903652 0.051671665
v 0.138385579 0.917823315 0.032086544
v -0.183475658 0.711628854 0.056888402
v 0.203097299 0.759783804 0.028125230
v -0.037538163 0.957270503 0.069290616
v -0.198902011 0.711940408 0.034363475
v -0.016360220 0.939859569 0.069774568
v 0.155242532 0.875377476 0.043206867
v -0.142548397 0.896033585 0.032196544
v 0.193278849 0.755321085 0.048902474
v -0.145935208 0.906090617 0.023207886
v -0.207869440 0.705922544 0.011430653
v 0.158470422 0.828136086 0.062058277
v -0.155036122 0.893004060 0.021719411
v 0.020055071 0.882278919 -0.138836697
v 0.021810418 0.901188731 -0.139036596
v 0.137717620 0.872963309 0.050966702
v -0.025908321 0.940725327 -0.132010624
v 0.148667067 0.859055161 0.054001205
v -0.206890419 0.724406242 0.019279400
v -0.019627582 0.921858609 -0.135722086
v 0.023688754 0.802447021 0.019949364
v -0.025382046 0.732035577 -0.044622097
v -0.041642193 0.927596688 -0.139095381
v 0.120523468 0.881523132 0.047011632
v -0.048065450 0.944444060 -0.132907078
v -0.155427128 0.902417958 0.008511739
v 0.139764786 0.841844857 0.062806606
v -0.168672547 0.890766501 0.009017424
v 0.124260046 0.827780545 0.070448443
v -0.173508972 0.896553636 -0.023662563
v -0.181030661 0.886642098 -0.010683076
v 0.127174273 0.862475872 0.057495467
v -0.169916689 0.902254462 -0.004089173
v 0.105209745 0.835783958 0.072030783
v -0.204575583 0.678113520 -0.016520495
v -0.208669037 0.715378225 -0.004262118
v 0.085991241 0.755685329 0.068402357
v 0.106266126 0.753757298 0.076454625
v 0.094258524 0.799218118 -0.110185742
v 0.078161798 0.939043343 0.060032826
v -0.025266478 0.733884335 0.008149160
v 0.102405168 0.967307687 0.046347491
v -0.173971742 0.907233596 -0.034856059
v 0.118627191 0.770512342 0.080824085
v 0.102530897 0.871933103 0.053380717
v -0.208972961 0.723240316 -0.019842844
v -0.173597306 0.901928425 -0.054525625
v 0.113397501 0.968814373 0.040523168
v -0.162901565 0.907211125 -0.090623870
v 0.116603754 0.849140465 0.065157473
v -0.063842990 0.824823380 -0.123839818
v 0.075197779 0.773176491 0.064762786
v -0.197613612 0.674571037 -0.041161902
v 0.083094522 0.835588098 0.067295089
v -0.207988501 0.707895935 -0.025552342
v -0.190872535 0.716448665 -0.059005607
v -0.185410589 0.672127604 -0.057330180
v 0.054714628 0.770847738 0.056270607
v 0.094519116 0.855838478 0.065480649
v -0.066256918 0.811237216 -0.100008205
v 0.075225845 0.849150836 0.059360117
v -0.191033989 0.687213063 -0.052947365
v -0.184291154 0.730085254 -0.071061336
v 0.038667865 0.783798099 0.048085775
v -0.080402829 0.816835105 -0.112327591
v -0.172516495 0.679364026 -0.072436504
v 0.015415570 0.845561683 -0.126582399
v 0.077404521 0.866848767 0.054194309
v 0.062621720 0.882379174 0.061703552
v -0.175801709 0.711925626 -0.077256165
v 0.099477246 0.957173645 0.049105383
v 0.017145345 0.768582582 -0.054312170
v 0.018371511 0.754699111 -0.050406635
v -0.152381167 0.677836061 -0.080934785
v 0.109559320 0.959254742 0.043805815
v -0.126954347 0.816906333 -0.114235878
v 0.128626496 0.951886833 0.033386279
v -0.145439222 0.720352829 -0.094109900
v 0.045280296 0.911265016 -0.144413576
v -0.157219931 0.708555996 -0.085782036
v 0.137501627 0.949435830 0.023059249
v 0.030094838 0.788839579 -0.070736699
v 0.035649650 0.803907692 -0.078222767
v -0.139554292 0.802646995 -0.108751871
v 0.145824894 0.948115706 0.011214430
v -0.144687817 0.819247365 -0.106784150
v -0.108519755 0.942808151 -0.126870856
v -0.033931490 0.923955917 0.068344593
v 0.153346017 0.948146164 -0.000119098
v -0.133017972 0.677360654 -0.089251027
v -0.158967122 0.810065150 -0.100456521
v -0.140929610 0.704988599 -0.092773996
v -0.150158435 0.916420162 -0.106155314
v 0.159518689 0.949807048 -0.009548043
v -0.177616984 0.819627404 -0.091258861
v 0.027283499 0.739238620 -0.053862087
v -0.115606450 0.679830849 -0.097523473
v -0.188275218 0.811612487 -0.074718654
v 0.162415594 0.950703800 -0.026812244
v -0.140423983 0.905501962 -0.120236076
v 0.162515834 0.950934768 -0.040733725
v -0.195692748 0.826545537 -0.058002971
v -0.127272889 0.711103439 -0.100624301
v 0.169509783 0.789614499 0.065554373
v 0.159845814 0.952035129 -0.053507965
v -0.203372717 0.816083252 -0.040628515
v 0.044362050 0.811051965 -0.093831807
v -0.076607719 0.686838984 -0.089220986
v -0.026675945 0.715956390 -0.038087882
v 0.156816646 0.953322589 -0.066764370
v -0.201182634 0.830000997 -0.033209719
v 0.179273725 0.846620560 0.034902364
v -0.024947636 0.761922181 0.011633219
v 0.141583771 0.956151783 -0.093000680
v 0.178715512 0.825854003 0.045900024
v -0.057444740 0.827021778 0.053421281
v -0.090899080 0.713343501 -0.100117072
v -0.058000475 0.694948137 -0.084006503
v 0.032861281 0.734294951 -0.074082844
v -0.075484775 0.723400056 -0.096824326
v -0.042267390 0.711464822 -0.082484826
v -0.035360437 0.697064102 -0.068666741
v 0.058639593 0.752129436 -0.096615516
v 0.052389883 0.798916996 -0.098230436
v -0.182163730 0.803924561 0.052611221
v 0.042714857 0.845817268 0.051339913
v 0.035245020 0.830556691 0.039866857
v -0.179381847 0.821575344 0.047106739
v 0.026944852 0.816537023 0.031816531
v -0.027155798 0.820785344 -0.111240827
v 0.087497361 0.780274034 -0.107855976
v -0.158281490 0.831216455 0.061050080
v -0.044741739 0.740161300 -0.090427749
v -0.048077740 0.725873768 -0.088061467
v 0.090884089 0.738646150 -0.104684614
v -0.157133013 0.812606812 0.064581767
v -0.030550551 0.718922198 -0.059354924
v 0.129744634 0.956690013 -0.104454793
v 0.108871043 0.752076924 -0.111270212
v -0.032675784 0.732730508 -0.073641047
v -0.137118787 0.824630857 0.068119071
v -0.032008000 0.757335484 -0.077810541
v 0.115811706 0.957825184 -0.112408206
v -0.028017502 0.743158996 -0.058295436
v 0.096467324 0.717219472 -0.102375187
v -0.205930799 0.688597560 0.007074801
v -0.196967945 0.678765595 0.029786021
v 0.130890325 0.746248186 -0.105727531
v -0.129596666 0.809384942 0.072857529
v -0.112990178 0.820904255 0.074623801
v 0.109907486 0.787401378 -0.114080116
v -0.064272940 0.871767402 0.060531296
v -0.051979542 0.956305146 0.065708950
v -0.099770702 0.800618291 0.075452700
v 0.134263307 0.779675603 -0.109169960
v -0.088576093 0.816682935 0.069888011
v -0.074121244 0.858888268 0.054306019
v 0.170992151 0.781782031 -0.092665173
v -0.075948730 0.803168595 0.065158322
v 0.116349831 0.894015789 -0.136608854
v -0.065149195 0.843126595 0.053805679
v -0.082943410 0.846902728 0.065126382
v 0.187080339 0.775606215 -0.074052081
v -0.076978266 0.830467224 0.063836411
v 0.182687491 0.727745414 -0.072222508
v 0.191339761 0.739966214 -0.063045546
v -0.071159646 0.816765428 0.061301552
v -0.056773264 0.808434784 0.054413129
v -0.096344098 0.833033264 0.073099419
v -0.025629794 0.823194504 0.034542494
v -0.106397510 0.848627746 0.067342147
v -0.094694830 0.861857414 0.060386010
v 0.198507354 0.772682071 -0.055944543
v 0.209906012 0.748508096 -0.028602755
v -0.054845534 0.855383694 0.053545792
v -0.119599521 0.835536182 0.068664327
v -0.035452407 0.759892225 0.031999841
v -0.115362450 0.862614036 0.059437554
v 0.201330930 0.753896892 -0.051562507
v -0.128028899 0.874792755 0.050491966
v 0.210444093 0.746534586 -0.007720622
v -0.155111521 0.849664688 0.055719875
v 0.209880114 0.783000588 -0.011454336
v -0.139151588 0.841003120 0.062727086
v -0.054218419 0.888429940 0.062916026
v -0.150020763 0.866255164 0.050313152
v 0.208395153 0.713376522 -0.004539556
v -0.056028686 0.921685338 0.065416530
v -0.003157357 0.824140906 -0.102595344
v -0.051631190 0.939358056 0.066609062
v -0.163947135 0.870409608 0.035640009
v -0.189664230 0.828912616 0.028251490
v -0.034497738 0.943485856 0.069070742
v -0.002838824 0.834901989 -0.111602366
v -0.076507308 0.955195546 0.059358943
v -0.204059988 0.821088314 0.010492290
v 0.077367678 0.866468132 -0.147575125
v 0.122300886 0.931291580 -0.125194281
v -0.180722326 0.875948787 0.008707186
v -0.064189240 0.955644786 0.062531337
v 0.207197741 0.780525327 0.018382475
v 0.100175679 0.957996726 -0.118908092
v -0.170299441 0.911967278 -0.016460853
v 0.198056549 0.795368850 0.032078747
v -0.201954320 0.832561195 -0.011598410
v -0.196922496 0.852683365 -0.010721320
v -0.189042181 0.869293213 -0.012759507
v 0.084289007 0.956270516 -0.123315312
v 0.200899556 0.826825798 0.013305518
v 0.068735667 0.956043243 -0.125215679
v -0.074234508 0.889311612 0.060645558
v -0.016219161 0.902263761 -0.137366101
v 0.189064547 0.786534190 0.049597021
v 0.051906079 0.955423057 -0.126486108
v 0.061214011 0.943973541 -0.132989377
v 0.203661770 0.707133830 0.024020683
v -0.067853406 0.938605785 0.062454797
v -0.020219062 0.885903955 -0.139046118
v -0.196663529 0.847412944 -0.046718113
v -0.168568343 0.918981850 -0.070803329
v -0.084794737 0.873272598 0.057418603
v 0.035108086 0.955798447 -0.126208156
v -0.186981410 0.844746590 -0.068087153
v 0.016217465 0.953950703 -0.124513149
v -0.158605978 0.847687066 -0.098487243
v 0.177203014 0.713983595 0.059938312
v -0.177119106 0.839289665 -0.087548539
v 0.015846597 0.944481373 -0.128564283
v 0.000264319 0.951870918 -0.122195937
v 0.178781763 0.769664884 0.063019574
v 0.169981450 0.750427246 0.065452173
v 0.079524390 0.834569633 -0.134332210
v 0.017808888 0.936399460 0.069638871
v -0.160515949 0.864429116 -0.093450055
v -0.159002230 0.829433441 -0.100528523
v -0.161616087 0.939489663 -0.071886927
v 0.064646736 0.851218402 -0.144061357
v 0.155618533 0.768931508 0.070085749
v -0.138834491 0.837330639 -0.107831262
v -0.033496182 0.686146915 -0.052952498
v -0.111025833 0.836800575 -0.127712756
v -0.036892474 0.680125713 -0.065828823
v -0.054457605 0.675510466 -0.076742366
v -0.116767466 0.831598759 -0.113068797
v 0.133646101 0.758789301 0.076793224
v 0.148056701 0.744550109 0.072561212
v -0.068522386 0.672064424 -0.081460729
v 0.140445992 0.723015130 0.073898613
v -0.118522130 0.878569603 -0.136745781
v 0.034910496 0.929282546 0.068652317
v 0.022792941 0.917441189 0.068643257
v -0.082572013 0.668708682 -0.086090997
v 0.135572180 0.780370772 0.075357147
v -0.110537574 0.857706428 -0.137374118
v 0.117437027 0.785712957 0.079386950
v 0.124868535 0.738839507 0.080067620
v -0.096288979 0.665504694 -0.090716965
v -0.000330063 0.856872261 0.059735250
v -0.000868031 0.843896389 0.054164253
v -0.092421457 0.839293361 -0.137326494
v -0.114530429 0.662436366 -0.093517885
v -0.080234237 0.889367938 -0.148215383
v -0.099203631 0.827121377 -0.120622195
v -0.127610743 0.661334157 -0.088832729
v -0.141747385 0.661312401 -0.083148450
v -0.155410171 0.660574555 -0.077125147
v -0.045193039 0.837198615 0.043907501
v -0.024273222 0.833062470 0.048955318
v 0.067825094 0.759094775 0.061214499
v 0.070506863 0.742618680 0.061279129
v -0.169078752 0.659701347 -0.071079738
v -0.182073668 0.659502149 -0.059204333
v -0.026521076 0.792778909 0.024804609
v 0.052139930 0.753455579 0.054568391
v 0.036168825 0.766381621 0.036619477
v -0.190922827 0.659154296 -0.046705436
v -0.076628082 0.869725823 -0.148678347
v 0.061750639 0.786858201 0.059789795
v -0.198781103 0.658902764 -0.034153733
v -0.038040258 0.777353287 0.043695912
v 0.026010266 0.769816458 0.016287662
v -0.030118803 0.746873736 0.019503867
v -0.097728074 0.874175906 -0.144367233
v 0.024564635 0.733091950 0.007071386
v -0.051417820 0.758368850 0.054116052
v 0.058741696 0.817827344 0.055587746
v -0.031149814 0.719860256 0.016271457
v -0.042235825 0.719313741 0.035571307
v -0.056514282 0.896293998 -0.147224113
v -0.073834173 0.908279896 -0.147952348
v -0.058653850 0.790683389 0.058285706
v -0.058014840 0.917629242 -0.144132808
v 0.094110928 0.898575008 -0.145611897
v -0.201914236 0.659164786 -0.016879875
v 0.068745494 0.804142833 0.061801534
v -0.059916656 0.720700085 0.055318605
v -0.081785515 0.785894811 0.067500688
v 0.099071272 0.878443599 -0.143695131
v -0.063076988 0.741110146 0.057820678
v -0.073033206 0.757196784 0.062833190
v -0.065051153 0.905254483 0.063342936
v 0.053572513 0.733701289 -0.091598861
v -0.044407930 0.905177712 0.066235229
v 0.086361438 0.807631135 0.070089802
v -0.081310280 0.743404150 0.065198168
v 0.138781056 0.891288280 -0.124019697
v -0.201833799 0.659382463 -0.003106071
v -0.026396418 0.809325039 0.027431112
v 0.073709287 0.722494543 -0.095643356
v -0.195367247 0.660924852 0.027229425
v -0.112568423 0.763156533 0.079005435
v 0.070308633 0.738676727 -0.098458633
v -0.189039350 0.661275685 0.040328044
v -0.095045820 0.752935886 0.071323231
v 0.100155413 0.795607150 0.075994015
v 0.108946480 0.816293120 0.077250756
v 0.131487459 0.912063420 -0.126736492
v -0.176518470 0.661927819 0.053687036
v -0.103107154 0.781661212 0.076002300
v -0.163022712 0.662761271 0.059422024
v -0.113498047 0.745183587 0.078156322
v -0.149358958 0.663316607 0.065189384
v -0.135935947 0.663531601 0.071243286
v -0.126734346 0.778489172 0.077474087
v -0.138482422 0.752352118 0.075019069
v -0.117786430 0.664550185 0.073765121
v 0.127080142 0.802906215 0.074889436
v -0.142289922 0.767860651 0.073716089
v -0.104045369 0.665795982 0.068308756
v -0.089959636 0.667015493 0.062710918
v 0.121056817 0.707076430 -0.102041103
v -0.144480586 0.784153342 0.072168067
v 0.164369583 0.810095191 0.063534513
v 0.123009466 0.720622182 -0.104782984
v 0.157097369 0.937837303 -0.084079012
v -0.075854190 0.668210864 0.057103176
v -0.136229813 0.736745596 0.076129504
v -0.061674982 0.669215679 0.051314533
v 0.134003282 0.942855239 -0.110627905
v -0.050498724 0.671039343 0.036676593
v -0.042389710 0.673333049 0.024060592
v 0.184703380 0.805436969 0.047803871
v 0.147769317 0.907911777 -0.111345693
v -0.034448564 0.675615907 0.011648017
v -0.027027320 0.678211033 -0.001354904
v -0.162792206 0.793641090 0.066260859
v -0.024526762 0.691854954 -0.003444067
v -0.160639480 0.757842362 0.067828700
v 0.138331816 0.715399444 -0.096179940
v 0.157506913 0.890223145 -0.104425333
v 0.193386480 0.813497424 0.029363628
v -0.185565248 0.784348667 0.056211330
v -0.179582149 0.745263994 0.061712362
v -0.181438059 0.764608741 0.061507128
v -0.044966854 0.810425162 -0.094035722
v 0.155229121 0.709809482 -0.086542010
v 0.203605458 0.823462605 -0.011990589
v 0.153309628 0.923119903 -0.100382924
v 0.009797509 0.834639251 -0.114594400
v -0.053243447 0.815022111 -0.112287641
v 0.063979201 0.812430978 -0.098289117
v -0.038907062 0.799788594 0.047134418
v 0.208760887 0.804357350 0.004964592
v -0.197575480 0.754339814 0.040475972
v -0.204474658 0.785855889 0.022202436
v -0.169469029 0.856259644 0.039707176
v 0.175943822 0.710863650 -0.076364122
v -0.207621813 0.744215369 0.020412138
v 0.106986120 0.946690917 0.046486937
v 0.206814378 0.804539502 -0.021381872
v -0.207092166 0.765219092 0.019828081
v -0.210606813 0.777150393 -0.003514057
v -0.208905101 0.790490270 -0.021214394
v 0.188016683 0.702524304 -0.059347838
v 0.207747534 0.788433731 -0.037211813
v -0.210115358 0.734421134 -0.003446180
v -0.189808756 0.859913826 0.010037315
v 0.162089899 0.906598687 -0.092872359
v -0.024298221 0.958260417 0.069853291
v 0.202912927 0.808182895 -0.048772506
v 0.190670431 0.812347770 -0.070247963
v -0.084847994 0.855435014 -0.144659981
v -0.060155101 0.857226968 -0.145058170
v 0.192127004 0.720599890 -0.057602793
v -0.210702136 0.755289018 -0.009278966
v 0.198071271 0.692747056 -0.044121597
v 0.196982175 0.791081369 -0.060654826
v -0.016809087 0.954421878 -0.124559417
v -0.035695992 0.956015587 -0.126240030
v 0.167726636 0.890264153 -0.078622438
v 0.015940914 0.824553192 0.039310485
v -0.051934589 0.955708146 -0.126545653
v -0.040852312 0.818594933 0.044514578
v 0.186538219 0.793392301 -0.078071997
v 0.173702672 0.802770913 -0.093159646
v -0.068445235 0.956156373 -0.125404850
v 0.170013815 0.909839272 -0.073595122
v -0.209470659 0.737608552 -0.026706573
v -0.083570771 0.956543267 -0.123511173
v -0.089297578 0.941758275 -0.132188052
v -0.191615492 0.860647500 -0.031996589
v -0.098688990 0.958535016 -0.119069837
v -0.113770165 0.958754838 -0.112768665
v 0.153224573 0.792708278 -0.101844728
v -0.201922849 0.784835160 -0.052490223
v -0.185642108 0.864753127 -0.057853647
v -0.171158522 0.876046777 -0.075940050
v -0.208882928 0.752481103 -0.041738112
v 0.172220141 0.894264340 -0.055032454
v 0.165903106 0.938417733 -0.053938985
v -0.197490960 0.703361392 -0.047685925
v 0.041851874 0.817837596 0.045783576
v 0.132371232 0.796706796 -0.111207224
v -0.065923437 0.837245345 -0.137305290
v -0.189716533 0.793701470 -0.073442534
v 0.169753179 0.932930112 -0.039157331
v -0.078503117 0.828031421 -0.128594965
v -0.183664456 0.698805630 -0.064897299
v 0.111560762 0.804319978 -0.114835724
v -0.192739293 0.746699452 -0.063248634
v -0.171962857 0.744667649 -0.086055428
v 0.168411151 0.930881143 -0.020600934
v -0.185954720 0.759199262 -0.073142052
v -0.173991635 0.782299399 -0.091924593
v 0.172469199 0.898383141 -0.018083196
v -0.164491996 0.725791097 -0.085823759
v -0.026015460 0.761837304 -0.058253340
v 0.074051023 0.796891272 -0.104531720
v -0.127566516 0.958109200 -0.105130911
v -0.138078630 0.959106565 -0.094038680
v -0.156306565 0.792151213 -0.100987300
v -0.154070735 0.773729801 -0.099814713
v -0.152560145 0.755464196 -0.097203858
v -0.150037214 0.737552404 -0.095441058
v -0.134190947 0.864158452 -0.126238808
v 0.061871111 0.848908782 0.048657648
v 0.205054194 0.712261796 -0.038764581
v -0.155105725 0.956094623 -0.066791594
v -0.158898696 0.953833401 -0.053401720
v 0.209207624 0.730105817 -0.020828808
v -0.010966433 0.700009823 -0.022575866
v -0.161805987 0.952827275 -0.037513547
v 0.163759142 0.900613904 0.005115177
v -0.162331179 0.950289428 -0.023560558
v -0.159169048 0.940666795 -0.005992014
v -0.156228065 0.950844288 -0.005587646
v 0.202628374 0.822082639 -0.032619245
v 0.160095543 0.935013473 -0.004252246
v -0.148957461 0.949879289 0.005638658
v -0.141981944 0.949549556 0.016228836
v -0.134040922 0.950497627 0.026650747
v 0.045527603 0.827673137 -0.123811960
v -0.122654080 0.948462307 0.038969744
v 0.151720002 0.930601299 0.008975106
v -0.109823324 0.943980575 0.045177117
v -0.130576819 0.729240716 -0.103349030
v 0.155738607 0.894311130 0.019982537
v 0.013095522 0.799809337 -0.065355703
v -0.010948049 0.788212419 -0.059116196
v -0.008671268 0.803032696 -0.065465532
v 0.147074789 0.940668762 -0.100201964
v -0.132995635 0.747412503 -0.105276905
v -0.006142516 0.811431885 -0.076768532
v -0.135862395 0.784640670 -0.109246686
v 0.011246790 0.809532762 -0.076928064
v -0.004193433 0.817533612 -0.089328408
v -0.114394248 0.954834640 0.041860200
v 0.159291267 0.814326286 -0.099897236
v 0.140430525 0.931295395 0.024282049
v -0.109188758 0.739306390 -0.110604271
v -0.102365591 0.954783797 0.047565319
v -0.090275787 0.955317795 0.053737424
v 0.126850486 0.915032864 0.039971452
v 0.044991367 0.890805840 -0.145496830
v -0.134607166 0.765593171 -0.107566752
v -0.112416230 0.797824502 -0.115699127
v 0.123540558 0.939537406 0.041130487
v -0.110274278 0.757824302 -0.112775505
v 0.151140958 0.888620555 0.032824531
v -0.091351084 0.750402570 -0.106424727
v -0.003542893 0.812166870 0.024366036
v -0.083237782 0.940303504 0.058586389
v 0.118815400 0.952318370 0.040573187
v 0.132924408 0.936232269 0.034401122
v 0.112900399 0.934804738 0.044969779
v -0.074202210 0.742805660 -0.100582421
v -0.091028020 0.768306494 -0.108480833
v -0.071269602 0.761093199 -0.101766527
v 0.034600355 0.737710476 0.027437696
v -0.092371807 0.786819041 -0.109853074
v 0.050089855 0.928154111 -0.139621183
v -0.070232496 0.779501796 -0.103591219
v 0.024096411 0.919552982 -0.137463734
v -0.039781656 0.883176327 -0.145200461
v -0.036968838 0.905168653 -0.144423753
v 0.206266493 0.725298285 0.021053556
v 0.184142649 0.733764946 0.059492361
v -0.045018632 0.774320900 -0.096461259
v -0.053505015 0.795053482 -0.099055097
v -0.147562161 0.956886470 -0.081531093
v 0.143787652 0.901906192 0.038304780
v 0.125084609 0.899498582 0.040447090
v -0.203725889 0.673204303 0.005496795
v 0.155805707 0.708151221 0.067253955
v 0.162535191 0.728652000 0.066636734
v -0.201749250 0.660081744 0.011407586
v 0.112376332 0.919667721 0.046771981
v -0.030638089 0.703254759 -0.049436707
v -0.030035064 0.692202508 -0.039781440
v 0.011908402 0.717648327 -0.000882306
v -0.026741788 0.698222995 -0.026769023
v 0.006004951 0.957062066 0.070616946
v 0.066956766 0.920788109 -0.143126756
v -0.010340295 0.959145188 0.070462942
v -0.027175516 0.708809197 0.006664283
v 0.112397432 0.718729377 0.076463416
v 0.032196969 0.946151614 0.069402553
v 0.064507037 0.687348008 0.054551393
v 0.050852466 0.699953735 0.045963883
v 0.086462207 0.695652127 0.064253993
v 0.046706650 0.867875874 -0.144776762
v 0.107438907 0.699222028 0.072997198
v 0.040344194 0.705115616 0.029619921
v 0.199466884 0.688652873 0.028308356
v 0.107787505 0.892798722 0.049647264
v 0.097823061 0.909551978 0.054003458
v 0.148976400 0.911578000 0.018524867
v 0.090661749 0.713905692 0.067422763
v 0.163916856 0.914760947 -0.005058924
v 0.172650054 0.909436822 -0.031528644
v 0.044348139 0.942904115 0.068298168
v 0.071172230 0.724726021 0.060446508
v 0.094210520 0.735046983 0.070331052
v 0.171294942 0.918734431 -0.053582620
v 0.165486708 0.929454207 -0.070604011
v 0.069940045 0.706518412 0.058516603
v 0.162011802 0.921018124 -0.084383100
v 0.183570236 0.684955835 -0.061740141
v 0.162153661 0.692310452 -0.079184927
v 0.046599217 0.733880401 0.047865689
v 0.134926587 0.694937170 -0.092404775
v 0.139580086 0.926123917 -0.113479257
v 0.048950952 0.715683579 0.047172703
v 0.095750824 0.774198115 0.073252849
v 0.134671479 0.702579498 0.075278915
v 0.171787500 0.694969118 0.060473628
v 0.193312734 0.700705171 0.044664748
v 0.209086537 0.769131720 -0.033481635
v 0.152896658 0.770986021 -0.099379346
v 0.037207276 0.721881092 0.028005596
v 0.133878976 0.761803985 -0.106837705
v 0.207205623 0.697320163 -0.017999630
v 0.206551865 0.693980753 0.004982010
v 0.029282534 0.752187967 0.019198682
v 0.009989674 0.772556365 0.005651066
v 0.081708983 0.915305316 0.060835321
v 0.059995066 0.942309380 0.064493760
v 0.016348703 0.787767529 0.012226952
v 0.032812800 0.858201027 0.058821402
v 0.020523425 0.840296090 0.053412784
v 0.019520165 0.728974283 -0.038928948
v 0.051935770 0.926006794 0.066468909
v 0.028831914 0.753303409 -0.065049559
v 0.030284155 0.902449965 0.067123368
v 0.042606525 0.911903024 0.067404844
v 0.015051496 0.901635945 0.067733616
v 0.028625330 0.710128188 -0.043533105
v 0.034238592 0.752117336 -0.084232137
v 0.066230513 0.834797561 0.057787050
v 0.195832416 0.773770034 0.039099343
v 0.190335914 0.852537990 -0.057144511
v 0.034546793 0.699606538 -0.065477252
v 0.171027452 0.762096465 -0.089065611
v 0.121070072 0.834053397 -0.111852929
v 0.109334849 0.770215392 -0.113240376
v 0.060722530 0.690871894 -0.083620533
v 0.036456548 0.786215246 -0.088340834
v 0.032805525 0.817615211 -0.110697746
v 0.101549290 0.696319640 -0.100007460
v 0.085232392 0.684431255 -0.091638125
v 0.103556886 0.935907245 -0.130860165
v 0.067407772 0.925331950 0.063625783
v 0.063205242 0.904654503 0.063758709
v 0.115723729 0.678108394 -0.096709363
v 0.025319528 0.887843728 0.065851644
v 0.040462684 0.876120389 0.063553721
v 0.081051551 0.938214421 -0.135425821
v 0.140716642 0.676794648 -0.085408740
v 0.179328531 0.822282135 -0.088047586
v 0.020163946 0.862079620 -0.135531813
v 0.167398721 0.723657429 -0.083376743
v 0.163523465 0.674347639 -0.075064912
v 0.015389992 0.783668220 -0.058963157
v 0.181974024 0.669498980 -0.060788602
v 0.026694441 0.831822038 -0.120441601
v 0.195097536 0.673520744 -0.044150196
v 0.205233738 0.682528019 -0.026477147
v 0.050649334 0.802287221 0.052940946
v 0.109927632 0.915640533 -0.135549515
v 0.088251695 0.920078576 -0.141859710
v 0.014169795 0.821755588 -0.105867483
v 0.204687044 0.679862678 -0.007537396
v 0.110906444 0.734818816 -0.110147320
v 0.209799618 0.731358588 -0.000074491
v 0.196376592 0.720038772 0.040764663
v 0.153205454 0.729832053 -0.091784827
v 0.136042640 0.732302785 -0.100896671
v 0.188886985 0.679632306 0.047372080
v 0.137405872 0.886808217 0.042556271
v 0.172939569 0.883446336 0.013203809
v 0.203069240 0.733432174 -0.045587458
v 0.030765321 0.719884992 -0.060571581
v 0.150063097 0.685117543 0.068244800
v 0.075167917 0.819699943 0.063725263
v 0.209591776 0.744134843 0.016679347
v 0.199850231 0.739291131 0.035944603
v 0.076840058 0.751676798 -0.101882242
v 0.128717333 0.681385338 0.076579317
v 0.123073719 0.872006118 -0.134813711
v -0.002503342 0.821028709 0.035566509
v -0.009517031 0.760965824 0.002703110
v 0.038580734 0.749089539 0.036966618
v 0.101507366 0.681864142 0.069122702
v 0.147870272 0.875321686 -0.116725489
v -0.004851073 0.804643929 0.013501118
v -0.001740063 0.829780877 0.046274297
v 0.082401492 0.680107236 0.061179150
v 0.019296262 0.872179866 0.064254746
v 0.000109824 0.871586978 0.064741902
v 0.096765675 0.929381073 0.053320874
v 0.046126124 0.688156962 0.034859262
v 0.093439050 0.947867513 0.053161941
v 0.203836113 0.675556898 0.011120272
v 0.090115972 0.822128415 0.071113244
v 0.035370748 0.938461661 -0.134223416
v 0.033968240 0.692750275 0.015493375
v 0.067226671 0.903125286 -0.148238450
v 0.017369796 0.698700607 -0.000804372
v 0.029190078 0.711864591 0.011297439
v 0.038697757 0.844441235 -0.136199981
v 0.014033496 0.856108010 0.059395842
v 0.014340411 0.752326369 0.002786779
v -0.010864080 0.747035146 -0.000055865
v -0.008178456 0.789582670 0.009045063
v 0.203332454 0.669321418 -0.021019403
v -0.008556119 0.775263429 0.005496414
v 0.051430285 0.713194907 -0.086017482
v 0.083309554 0.813891590 -0.105560564
v 0.102991328 0.820450127 -0.111018993
v 0.143529341 0.816915631 0.068108648
v 0.081534341 0.789512515 0.068057045
v 0.149037644 0.795384526 0.070134103
v 0.077813469 0.703878462 -0.093296491
v 0.195721120 0.672296643 0.030320490
f 555 540 123
f 389 162 497
f 567 540 568
f 583 104 251
f 463 489 430
f 453 94 255
f 483 484 162
f 446 640 671
f 574 577 251
f 50 244 238
f 52 244 50
f 575 57 53
f 55 249 52
f 55 2 250
f 577 248 563
f 575 437 432
f 57 597 589
f 2 265 262
f 589 592 57
f 262 259 2
f 5 267 262
f 602 606 589
f 5 9 11
f 58 606 610
f 11 272 5
f 12 278 11
f 565 793 8
f 630 60 632
f 13 425 12
f 424 289 160
f 289 424 13
f 643 649 60
f 181 403 179
f 483 206 484
f 163 651 174
f 53 563 558
f 651 65 650
f 163 389 384
f 683 66 65
f 455 558 563
f 165 384 171
f 340 331 34
f 67 66 683
f 206 470 63
f 385 102 856
f 67 702 70
f 344 340 696
f 179 403 406
f 710 70 702
f 16 352 14
f 111 112 59
f 63 64 655
f 18 368 16
f 710 742 753
f 119 112 111
f 394 671 545
f 551 922 903
f 19 375 18
f 753 740 711
f 406 470 179
f 261 615 108
f 545 453 439
f 178 386 530
f 24 386 23
f 72 753 742
f 26 396 24
f 768 765 72
f 119 142 112
f 32 63 470
f 112 142 161
f 399 400 396
f 154 343 182
f 545 671 448
f 399 415 400
f 768 770 765
f 32 406 410
f 418 415 399
f 770 183 777
f 387 300 166
f 415 418 422
f 105 86 299
f 169 42 839
f 170 142 119
f 173 172 705
f 329 638 343
f 134 738 737
f 185 638 329
f 692 661 145
f 150 74 741
f 637 345 873
f 132 145 661
f 170 184 142
f 138 495 760
f 138 136 188
f 136 194 188
f 201 87 194
f 270 87 205
f 216 49 210
f 46 216 724
f 198 184 170
f 43 96 907
f 219 39 218
f 45 43 41
f 224 37 219
f 498 224 514
f 86 105 342
f 225 36 514
f 378 107 110
f 80 233 107
f 22 41 43
f 198 217 849
f 41 581 45
f 103 233 76
f 76 40 103
f 222 217 214
f 678 100 40
f 98 41 22
f 366 41 98
f 40 76 678
f 215 4 284
f 215 98 21
f 537 536 92
f 222 234 217
f 904 537 92
f 460 462 30
f 284 471 366
f 222 239 246
f 586 903 759
f 462 28 30
f 246 234 222
f 454 449 28
f 237 391 924
f 560 319 921
f 246 888 252
f 431 471 282
f 455 560 391
f 319 560 241
f 50 238 793
f 50 566 52
f 52 574 55
f 258 263 510
f 244 52 249
f 55 253 2
f 284 792 657
f 303 670 667
f 303 100 674
f 250 249 55
f 273 274 252
f 251 253 574
f 100 303 301
f 301 570 100
f 104 261 257
f 677 100 678
f 273 285 274
f 257 2 253
f 2 257 265
f 250 2 259
f 570 568 40
f 752 292 293
f 294 296 285
f 285 296 274
f 684 497 679
f 277 274 296
f 440 447 442
f 579 489 463
f 692 329 695
f 259 262 267
f 871 736 360
f 262 271 9
f 40 100 570
f 570 567 568
f 203 128 270
f 310 296 294
f 305 296 310
f 87 270 194
f 9 5 262
f 5 272 600
f 276 9 271
f 9 276 11
f 272 11 278
f 302 323 310
f 568 103 40
f 108 615 89
f 280 11 276
f 11 280 12
f 103 568 540
f 278 12 425
f 323 337 328
f 283 12 280
f 12 283 13
f 283 297 289
f 289 13 283
f 540 561 231
f 425 13 424
f 209 288 205
f 291 125 286
f 346 337 323
f 49 304 288
f 173 350 351
f 297 654 314
f 347 158 864
f 304 47 311
f 47 304 49
f 47 46 481
f 360 361 855
f 501 684 146
f 481 311 47
f 46 39 481
f 343 695 329
f 314 289 297
f 289 314 160
f 481 321 308
f 481 39 321
f 325 122 321
f 325 321 37
f 37 321 39
f 333 160 314
f 324 266 333
f 527 107 231
f 84 121 325
f 36 327 498
f 160 333 34
f 327 120 84
f 36 82 371
f 277 393 390
f 689 34 333
f 34 689 340
f 313 34 331
f 266 334 689
f 334 260 341
f 340 335 331
f 107 527 110
f 54 404 405
f 696 14 344
f 61 401 44
f 38 299 407
f 358 14 348
f 14 358 16
f 344 14 352
f 356 704 712
f 352 16 368
f 413 62 417
f 370 16 358
f 16 370 18
f 175 705 134
f 713 115 110
f 371 27 378
f 27 371 82
f 381 18 370
f 18 381 19
f 368 18 375
f 80 378 27
f 19 381 235
f 19 395 23
f 19 23 178
f 202 506 913
f 23 395 24
f 386 24 396
f 398 24 395
f 24 398 26
f 26 398 220
f 26 412 399
f 396 26 399
f 418 399 412
f 164 180 444
f 444 443 164
f 175 173 705
f 685 84 120
f 422 300 415
f 685 121 84
f 172 169 300
f 172 300 422
f 78 80 27
f 226 365 78
f 89 615 114
f 240 485 309
f 134 737 175
f 226 27 82
f 245 459 452
f 187 186 140
f 243 459 245
f 189 187 130
f 581 466 579
f 467 472 637
f 308 122 240
f 138 579 466
f 430 255 463
f 499 435 430
f 453 430 435
f 435 440 439
f 435 499 450
f 243 479 281
f 308 321 122
f 897 438 584
f 439 453 435
f 243 281 893
f 450 440 435
f 480 859 865
f 440 449 447
f 442 439 440
f 450 449 440
f 447 449 454
f 492 488 493
f 127 458 456
f 449 456 28
f 82 225 708
f 454 28 462
f 28 456 30
f 456 450 127
f 30 456 458
f 225 82 36
f 30 464 460
f 506 507 502
f 126 469 125
f 287 508 509
f 207 507 506
f 410 460 32
f 126 306 477
f 460 464 644
f 644 32 460
f 32 644 63
f 475 31 576
f 470 406 32
f 64 63 644
f 306 309 477
f 125 464 458
f 528 795 511
f 516 523 524
f 655 206 63
f 206 655 484
f 206 474 470
f 162 679 497
f 316 322 822
f 313 160 34
f 37 498 325
f 523 316 534
f 497 684 501
f 501 146 505
f 146 512 503
f 505 503 513
f 263 515 510
f 512 120 115
f 503 512 91
f 517 513 503
f 115 713 91
f 458 203 125
f 315 547 548
f 91 512 115
f 547 330 336
f 91 713 88
f 517 88 522
f 552 548 547
f 532 88 713
f 88 532 519
f 552 336 553
f 522 519 541
f 527 231 561
f 127 128 458
f 538 660 692
f 514 36 498
f 224 498 37
f 538 692 695
f 114 626 631
f 553 342 105
f 219 37 39
f 555 660 561
f 127 450 499
f 891 199 824
f 660 555 661
f 218 39 46
f 199 97 886
f 366 98 284
f 22 21 98
f 41 366 581
f 43 232 22
f 907 232 43
f 96 536 907
f 45 463 255
f 45 581 463
f 255 94 96
f 255 96 45
f 94 453 545
f 448 546 545
f 582 593 594
f 595 584 438
f 216 46 47
f 216 47 49
f 551 640 558
f 558 640 569
f 49 288 209
f 793 565 50
f 569 53 558
f 566 50 565
f 209 210 49
f 841 351 350
f 574 52 566
f 578 53 57
f 612 609 423
f 53 578 563
f 575 53 569
f 597 432 211
f 253 55 574
f 57 575 597
f 578 57 592
f 592 583 578
f 627 609 612
f 584 621 628
f 603 589 606
f 602 589 597
f 634 819 627
f 610 606 602
f 835 318 229
f 626 606 58
f 610 624 58
f 58 624 630
f 632 58 630
f 634 884 869
f 58 632 626
f 60 642 632
f 642 60 649
f 60 630 181
f 650 649 643
f 662 652 645
f 656 628 621
f 621 636 656
f 658 659 204
f 64 644 469
f 466 495 138
f 694 377 700
f 468 471 431
f 663 650 65
f 628 656 668
f 679 162 484
f 65 686 663
f 672 673 659
f 686 65 66
f 683 65 651
f 468 431 478
f 683 693 67
f 685 146 684
f 146 685 512
f 696 340 689
f 66 67 701
f 473 495 478
f 66 698 686
f 702 67 693
f 668 675 687
f 701 698 66
f 405 690 54
f 701 67 70
f 54 690 564
f 14 696 348
f 711 70 710
f 699 70 711
f 702 709 710
f 229 318 236
f 657 282 471
f 710 709 742
f 753 756 740
f 756 753 72
f 742 754 72
f 72 754 768
f 72 765 756
f 766 765 770
f 490 193 496
f 130 772 496
f 770 776 766
f 15 719 168
f 87 201 148
f 183 770 768
f 201 194 136
f 422 705 172
f 633 777 338
f 777 633 150
f 408 74 633
f 638 185 408
f 106 730 258
f 688 379 694
f 275 631 118
f 185 692 145
f 197 750 749
f 736 737 738
f 263 258 730
f 738 741 743
f 185 145 143
f 743 741 744
f 744 741 74
f 744 467 879
f 132 140 145
f 123 132 661
f 741 738 150
f 123 540 567
f 773 772 567
f 738 134 150
f 78 27 226
f 238 623 1
f 264 279 779
f 776 150 134
f 134 705 420
f 695 541 538
f 104 599 261
f 365 681 680
f 761 762 763
f 365 678 76
f 76 78 365
f 411 156 420
f 156 411 220
f 541 519 538
f 220 764 156
f 76 233 78
f 80 78 233
f 168 789 387
f 70 699 701
f 398 395 228
f 434 437 445
f 779 780 887
f 428 432 434
f 926 317 706
f 197 749 745
f 213 6 4
f 279 785 780
f 419 427 428
f 148 201 745
f 454 462 419
f 526 782 783
f 381 734 235
f 410 414 419
f 493 769 913
f 511 4 215
f 4 511 213
f 406 414 410
f 208 731 729
f 21 511 215
f 210 728 727
f 794 800 823
f 511 21 529
f 470 474 179
f 724 218 46
f 227 110 115
f 118 280 275
f 219 218 722
f 806 800 794
f 803 804 256
f 716 778 225
f 224 219 720
f 407 86 690
f 356 734 381
f 389 497 380
f 809 795 528
f 810 806 811
f 717 716 514
f 497 501 380
f 317 697 429
f 810 818 821
f 913 771 202
f 341 698 699
f 373 376 159
f 369 177 373
f 341 260 698
f 260 334 266
f 365 226 681
f 517 522 354
f 828 821 818
f 354 362 364
f 569 640 446
f 519 522 88
f 767 828 818
f 266 324 676
f 602 597 211
f 804 834 256
f 121 240 122
f 345 868 918
f 610 602 211
f 169 839 166
f 427 195 211
f 643 179 174
f 683 651 165
f 693 683 171
f 627 884 634
f 324 654 676
f 846 397 841
f 841 397 374
f 362 709 369
f 580 397 846
f 192 188 190
f 192 499 489
f 128 192 190
f 270 205 203
f 205 288 286
f 291 306 126
f 208 148 733
f 288 304 291
f 304 311 306
f 311 481 308
f 286 125 203
f 283 118 297
f 589 599 592
f 283 280 118
f 227 115 120
f 747 805 732
f 707 226 82
f 107 378 80
f 275 114 631
f 118 646 297
f 89 114 275
f 231 233 103
f 87 209 205
f 816 872 870
f 271 108 89
f 248 560 455
f 248 241 560
f 108 271 265
f 566 565 241
f 86 876 690
f 622 244 619
f 517 91 88
f 574 566 248
f 715 662 889
f 244 249 618
f 249 250 614
f 882 465 718
f 253 251 257
f 774 465 882
f 250 259 608
f 883 494 774
f 921 391 560
f 259 267 604
f 54 564 847
f 251 577 583
f 600 267 5
f 89 276 271
f 503 91 517
f 690 405 407
f 275 276 89
f 892 573 582
f 272 278 596
f 248 577 574
f 280 276 275
f 425 588 591
f 425 424 781
f 781 313 572
f 424 313 781
f 572 585 781
f 314 654 324
f 136 197 201
f 313 557 572
f 237 551 558
f 554 331 335
f 334 341 348
f 760 136 138
f 335 344 549
f 341 699 704
f 348 696 334
f 921 319 7
f 358 348 704
f 344 352 544
f 912 582 594
f 903 586 551
f 352 368 543
f 381 370 356
f 368 375 539
f 788 8 3
f 535 375 178
f 221 795 809
f 828 767 562
f 559 833 920
f 921 920 899
f 546 448 898
f 903 922 836
f 38 903 299
f 235 228 395
f 405 669 407
f 546 92 94
f 400 518 520
f 92 546 904
f 639 35 926
f 386 396 525
f 927 926 33
f 928 605 930
f 200 490 298
f 94 545 546
f 96 92 536
f 927 56 852
f 143 472 408
f 220 412 26
f 400 520 521
f 412 220 411
f 109 113 152
f 920 832 559
f 418 412 411
f 152 113 746
f 387 789 786
f 420 418 411
f 746 161 867
f 418 420 422
f 490 773 298
f 496 772 773
f 394 442 445
f 562 767 832
f 739 636 820
f 204 725 658
f 773 490 496
f 725 223 635
f 447 454 428
f 472 186 637
f 215 284 98
f 189 130 496
f 458 464 30
f 410 462 460
f 125 469 464
f 635 247 487
f 487 269 629
f 641 487 629
f 268 269 487
f 269 393 629
f 390 269 268
f 469 126 64
f 349 761 763
f 655 64 477
f 303 674 670
f 290 393 277
f 611 290 928
f 163 474 483
f 928 307 605
f 635 641 648
f 531 605 533
f 677 674 100
f 477 309 485
f 506 202 207
f 679 485 240
f 240 121 684
f 312 912 594
f 684 679 240
f 121 685 684
f 186 187 345
f 503 505 146
f 912 332 892
f 772 130 132
f 685 120 512
f 501 505 159
f 725 648 658
f 505 513 373
f 513 517 364
f 892 847 564
f 110 527 713
f 714 847 339
f 522 541 154
f 51 714 346
f 231 103 540
f 714 51 404
f 541 695 343
f 567 772 123
f 502 500 506
f 578 577 563
f 867 659 673
f 577 578 583
f 597 575 432
f 592 104 583
f 913 492 493
f 845 167 839
f 599 104 592
f 386 178 23
f 599 603 615
f 110 227 378
f 615 261 599
f 706 402 639
f 603 626 114
f 132 123 772
f 624 610 195
f 409 706 317
f 746 673 682
f 114 615 603
f 120 327 227
f 624 414 403
f 691 429 697
f 642 631 632
f 642 118 631
f 429 433 853
f 646 118 642
f 642 649 646
f 152 682 691
f 682 433 691
f 181 643 60
f 654 297 646
f 122 325 121
f 140 130 187
f 421 416 617
f 123 661 555
f 309 308 240
f 698 260 686
f 702 693 177
f 698 701 699
f 672 441 436
f 291 126 125
f 109 691 697
f 143 140 186
f 874 872 816
f 665 441 672
f 188 192 489
f 665 658 653
f 712 704 699
f 653 451 665
f 927 697 317
f 712 740 734
f 648 461 653
f 178 375 19
f 923 880 116
f 641 461 648
f 740 756 748
f 748 758 228
f 926 706 639
f 479 641 482
f 754 742 362
f 354 754 362
f 407 669 38
f 203 458 128
f 482 629 620
f 756 765 758
f 182 754 154
f 128 127 192
f 254 246 252
f 611 382 620
f 764 398 228
f 499 192 127
f 764 766 156
f 766 776 156
f 930 611 928
f 420 156 776
f 140 132 130
f 788 7 8
f 387 166 168
f 420 776 134
f 136 760 197
f 300 387 415
f 750 197 760
f 745 201 197
f 148 208 209
f 733 148 745
f 258 35 106
f 593 533 605
f 731 208 733
f 236 318 910
f 729 210 208
f 728 210 729
f 727 216 210
f 188 489 579
f 929 573 556
f 724 216 727
f 573 929 582
f 723 218 724
f 722 218 723
f 720 219 722
f 717 224 720
f 514 224 717
f 188 579 138
f 876 556 573
f 707 681 226
f 898 904 546
f 472 143 186
f 212 795 221
f 899 391 921
f 854 925 931
f 213 795 212
f 140 143 145
f 404 54 714
f 833 922 924
f 415 387 786
f 143 408 185
f 238 3 793
f 1 3 238
f 31 799 752
f 622 238 244
f 918 799 515
f 380 376 171
f 915 752 357
f 617 476 421
f 619 244 618
f 618 249 616
f 616 249 614
f 636 739 613
f 388 613 10
f 614 250 608
f 357 791 915
f 383 688 388
f 608 259 607
f 571 438 576
f 295 667 666
f 92 96 94
f 607 259 604
f 372 726 700
f 667 295 303
f 367 726 372
f 604 267 601
f 298 295 207
f 923 875 880
f 363 732 367
f 408 467 74
f 148 209 87
f 298 301 295
f 359 747 363
f 601 267 600
f 359 355 755
f 600 272 598
f 598 272 596
f 353 755 355
f 301 298 773
f 596 278 591
f 747 755 751
f 591 278 425
f 588 425 781
f 388 688 813
f 769 771 913
f 763 353 349
f 202 771 200
f 506 500 913
f 74 467 744
f 773 570 301
f 82 708 707
f 320 647 326
f 500 492 913
f 331 554 557
f 242 910 320
f 344 335 340
f 910 908 647
f 554 335 550
f 239 222 703
f 549 550 335
f 549 344 544
f 166 167 168
f 544 352 543
f 543 368 542
f 17 15 167
f 17 845 157
f 907 536 919
f 157 850 155
f 155 850 153
f 542 368 539
f 150 633 74
f 153 854 151
f 151 854 149
f 149 858 147
f 147 862 144
f 539 375 535
f 759 903 38
f 530 535 178
f 144 862 141
f 141 866 139
f 139 866 137
f 530 386 525
f 137 870 135
f 525 396 521
f 135 870 872
f 133 872 131
f 131 874 129
f 129 923 117
f 923 874 875
f 170 119 902
f 521 396 400
f 20 932 101
f 99 101 932
f 99 886 97
f 95 97 199
f 95 891 93
f 93 896 90
f 518 400 786
f 90 896 85
f 85 901 83
f 83 905 81
f 169 166 300
f 81 905 79
f 77 79 796
f 77 909 75
f 439 394 545
f 75 914 73
f 73 914 71
f 71 916 69
f 442 394 439
f 468 466 366
f 442 447 434
f 7 562 920
f 794 534 811
f 924 899 833
f 434 447 428
f 428 454 419
f 419 462 410
f 38 898 759
f 902 111 897
f 466 468 495
f 526 524 534
f 25 59 56
f 96 43 45
f 895 401 61
f 182 343 338
f 483 389 163
f 483 162 389
f 897 59 25
f 883 894 775
f 776 777 150
f 59 897 111
f 380 384 389
f 774 882 893
f 111 902 119
f 778 708 225
f 501 159 380
f 167 166 839
f 159 505 373
f 176 191 867
f 373 513 369
f 364 369 513
f 850 890 925
f 354 364 517
f 354 522 154
f 177 369 709
f 154 541 343
f 446 445 437
f 376 380 159
f 204 223 725
f 217 198 214
f 214 703 222
f 437 569 446
f 610 211 195
f 414 624 195
f 403 630 624
f 889 718 715
f 160 313 424
f 181 630 403
f 888 246 239
f 179 643 181
f 174 650 643
f 651 650 174
f 163 384 165
f 487 247 268
f 165 651 163
f 171 683 165
f 174 474 163
f 557 313 331
f 475 515 799
f 376 693 171
f 285 273 757
f 177 693 376
f 627 885 884
f 174 179 474
f 509 508 516
f 294 302 310
f 709 702 177
f 709 362 742
f 154 754 354
f 182 338 183
f 780 785 803
f 183 768 182
f 423 413 881
f 183 338 777
f 638 338 343
f 633 638 408
f 590 401 895
f 692 185 329
f 190 188 194
f 515 475 25
f 270 190 194
f 190 270 128
f 195 427 414
f 7 788 562
f 915 878 571
f 877 595 438
f 203 205 286
f 44 48 61
f 474 206 483
f 210 209 208
f 61 62 895
f 413 895 62
f 211 432 427
f 172 42 169
f 398 764 220
f 515 263 918
f 437 575 569
f 228 758 764
f 124 885 426
f 175 871 350
f 84 498 327
f 225 514 716
f 327 371 227
f 918 263 730
f 898 448 759
f 371 327 36
f 839 374 890
f 227 371 378
f 451 441 665
f 228 235 748
f 444 180 457
f 233 231 107
f 187 868 345
f 759 448 586
f 189 292 868
f 734 748 235
f 653 461 826
f 924 922 237
f 292 193 196
f 446 671 394
f 461 641 479
f 922 551 237
f 391 237 455
f 482 641 629
f 918 868 799
f 196 200 293
f 771 293 200
f 558 455 237
f 281 287 894
f 894 893 281
f 248 566 241
f 257 251 104
f 255 430 453
f 257 261 265
f 509 775 287
f 260 266 676
f 509 516 524
f 265 261 108
f 523 516 531
f 322 316 523
f 273 252 888
f 265 271 262
f 811 534 316
f 316 315 811
f 676 686 260
f 366 466 581
f 478 495 468
f 330 547 315
f 547 336 552
f 366 471 468
f 760 495 473
f 657 471 284
f 336 342 553
f 553 900 552
f 832 900 553
f 865 878 791
f 792 284 4
f 31 571 576
f 286 288 291
f 438 571 877
f 906 864 863
f 4 790 792
f 8 7 319
f 303 295 301
f 291 304 306
f 570 773 567
f 739 617 392
f 617 416 392
f 306 311 309
f 309 311 308
f 170 628 668
f 613 739 10
f 739 392 10
f 656 675 668
f 656 815 675
f 680 678 365
f 813 613 388
f 324 333 314
f 687 198 668
f 379 688 383
f 295 666 207
f 815 656 636
f 377 694 379
f 325 498 84
f 689 333 266
f 334 696 689
f 700 377 372
f 861 834 860
f 703 721 239
f 732 726 367
f 834 861 256
f 348 341 704
f 747 732 363
f 356 358 704
f 735 888 721
f 370 358 356
f 735 264 757
f 735 273 888
f 755 747 359
f 369 364 362
f 353 763 755
f 647 761 326
f 761 349 326
f 376 373 177
f 779 757 264
f 780 779 279
f 384 380 171
f 235 395 19
f 736 871 737
f 562 788 917
f 910 647 320
f 785 804 803
f 414 406 403
f 256 323 803
f 813 675 815
f 415 786 400
f 427 419 414
f 422 420 705
f 432 428 427
f 430 489 499
f 587 580 590
f 437 434 432
f 445 442 434
f 446 394 445
f 671 586 448
f 819 609 627
f 456 449 450
f 455 563 248
f 865 791 769
f 581 579 463
f 645 652 817
f 644 464 469
f 652 662 715
f 874 923 129
f 715 664 652
f 694 812 688
f 477 64 126
f 750 760 473
f 485 655 477
f 465 715 718
f 507 207 666
f 465 774 494
f 865 486 480
f 812 675 813
f 485 484 655
f 207 202 298
f 883 504 825
f 493 865 769
f 783 782 504
f 679 484 485
f 202 200 298
f 196 490 200
f 196 193 490
f 877 859 476
f 302 803 323
f 189 496 193
f 814 806 810
f 168 719 789
f 821 814 810
f 391 899 924
f 713 527 532
f 467 408 472
f 302 294 887
f 786 787 518
f 538 519 532
f 561 532 527
f 926 35 33
f 538 532 660
f 540 555 561
f 551 586 640
f 319 241 565
f 660 532 561
f 113 161 746
f 161 176 867
f 8 319 565
f 223 247 635
f 781 585 784
f 620 629 393
f 887 780 302
f 269 390 393
f 671 640 586
f 781 784 588
f 599 589 603
f 393 290 611
f 626 603 606
f 928 290 305
f 623 238 622
f 625 1 623
f 774 893 894
f 312 332 912
f 626 632 631
f 332 339 847
f 847 892 332
f 757 887 285
f 847 714 54
f 793 3 8
f 732 807 726
f 858 931 857
f 675 812 687
f 168 167 15
f 273 735 757
f 920 921 7
f 402 385 639
f 167 845 17
f 638 633 338
f 646 649 663
f 650 663 649
f 845 850 157
f 888 239 721
f 663 654 646
f 706 409 48
f 850 854 153
f 676 654 663
f 429 409 317
f 661 692 660
f 854 858 149
f 676 663 686
f 858 862 147
f 433 429 691
f 678 680 677
f 699 711 712
f 712 734 356
f 711 710 753
f 862 866 141
f 712 711 740
f 682 436 827
f 734 740 748
f 866 870 137
f 214 687 808
f 748 756 758
f 664 816 652
f 872 133 135
f 198 687 214
f 754 182 768
f 872 874 131
f 665 659 658
f 758 765 766
f 658 648 653
f 766 764 758
f 776 770 777
f 668 198 170
f 117 923 116
f 787 786 789
f 929 330 822
f 533 822 322
f 556 336 330
f 531 322 523
f 899 920 833
f 662 444 889
f 346 323 256
f 491 482 620
f 116 880 911
f 911 20 116
f 382 491 620
f 911 932 20
f 932 886 99
f 645 443 662
f 930 382 611
f 382 930 516
f 886 824 199
f 605 531 930
f 491 508 848
f 628 170 902
f 256 347 346
f 482 848 479
f 891 896 93
f 347 256 861
f 820 617 739
f 866 819 817
f 605 594 593
f 896 901 85
f 929 593 582
f 612 881 885
f 901 905 83
f 826 451 653
f 451 457 180
f 672 659 665
f 441 180 851
f 79 905 796
f 436 673 672
f 436 851 827
f 909 914 75
f 682 673 436
f 914 916 71
f 584 902 897
f 876 86 342
f 69 916 1
f 829 433 827
f 700 808 694
f 788 3 916
f 853 829 417
f 409 61 48
f 402 48 855
f 870 817 816
f 855 29 360
f 874 816 664
f 385 361 102
f 830 880 875
f 576 897 25
f 819 634 817
f 68 69 1
f 106 856 730
f 743 736 738
f 910 242 236
f 862 857 819
f 744 879 102
f 880 830 831
f 840 528 843
f 401 846 44
f 803 302 780
f 769 791 357
f 878 915 791
f 831 911 880
f 918 873 345
f 576 25 475
f 799 31 475
f 841 29 846
f 879 856 102
f 106 639 385
f 573 564 876
f 911 831 802
f 342 556 876
f 337 339 332
f 25 510 515
f 350 29 841
f 564 573 892
f 892 582 912
f 510 25 56
f 864 906 837
f 312 328 337
f 929 822 593
f 33 35 258
f 871 360 29
f 840 860 835
f 864 158 863
f 29 855 44
f 916 914 917
f 808 687 812
f 594 307 312
f 307 305 328
f 916 917 788
f 33 56 927
f 840 835 809
f 307 594 605
f 736 743 361
f 531 516 930
f 290 277 305
f 852 109 927
f 318 835 860
f 21 844 529
f 852 59 112
f 620 393 611
f 102 743 744
f 112 113 852
f 751 763 762
f 647 785 762
f 805 747 751
f 252 268 254
f 230 835 229
f 487 641 635
f 637 879 467
f 124 851 164
f 809 230 221
f 161 142 176
f 807 732 805
f 247 234 254
f 230 809 835
f 808 700 807
f 345 637 186
f 176 184 191
f 812 694 808
f 204 849 223
f 849 204 191
f 813 688 812
f 635 648 725
f 849 184 198
f 815 613 813
f 815 636 613
f 217 223 849
f 659 191 204
f 217 234 223
f 191 184 849
f 859 480 421
f 795 213 511
f 245 461 243
f 878 865 859
f 802 886 932
f 191 659 867
f 452 718 889
f 223 234 247
f 176 142 184
f 246 254 234
f 865 493 486
f 293 771 357
f 268 247 254
f 771 769 357
f 805 264 735
f 268 252 390
f 161 113 112
f 486 493 488
f 390 252 274
f 867 673 746
f 264 751 279
f 274 277 390
f 746 682 152
f 281 848 287
f 827 433 682
f 808 703 214
f 152 691 109
f 109 852 113
f 476 859 421
f 296 305 277
f 476 595 877
f 305 307 928
f 196 293 292
f 595 476 820
f 726 807 700
f 752 293 357
f 307 328 312
f 310 328 305
f 56 59 852
f 292 752 799
f 328 310 323
f 886 825 824
f 312 337 332
f 807 703 808
f 891 824 782
f 193 292 189
f 844 21 22
f 429 853 409
f 109 697 927
f 56 33 510
f 105 559 553
f 339 337 346
f 346 714 339
f 51 346 347
f 317 926 927
f 564 690 876
f 863 844 232
f 799 868 292
f 510 33 258
f 843 528 529
f 844 863 842
f 861 840 843
f 861 158 347
f 861 860 840
f 752 915 31
f 158 843 842
f 843 158 861
f 842 529 844
f 919 837 906
f 906 232 907
f 809 528 840
f 730 873 918
f 730 856 873
f 873 856 879
f 856 106 385
f 817 634 645
f 837 919 838
f 817 652 816
f 919 906 907
f 919 536 537
f 743 102 361
f 904 669 838
f 898 669 904
f 669 898 38
f 703 807 721
f 405 404 838
f 669 405 838
f 922 833 836
f 294 285 887
f 361 385 402
f 869 645 634
f 830 875 664
f 916 3 1
f 864 51 347
f 402 855 361
f 909 801 914
f 397 890 374
f 48 44 855
f 796 909 77
f 879 637 873
f 901 798 905
f 580 925 397
f 48 402 706
f 896 800 901
f 891 823 896
f 409 62 61
f 853 62 409
f 881 413 417
f 417 62 853
f 86 407 299
f 459 893 882
f 199 891 95
f 830 465 831
f 829 426 417
f 426 829 124
f 426 881 417
f 124 829 827
f 433 829 853
f 886 802 825
f 774 894 883
f 851 124 827
f 164 884 124
f 441 851 436
f 180 164 851
f 443 869 164
f 911 802 932
f 715 830 664
f 874 664 875
f 736 361 360
f 451 180 441
f 457 452 889
f 889 444 457
f 866 817 870
f 106 35 639
f 459 718 452
f 826 452 457
f 452 826 245
f 451 826 457
f 862 819 866
f 858 857 862
f 461 245 826
f 459 882 718
f 479 243 461
f 854 931 858
f 850 925 854
f 846 401 580
f 845 890 850
f 491 848 482
f 848 281 479
f 825 494 883
f 382 508 491
f 900 832 767
f 508 287 848
f 896 823 800
f 839 890 845
f 504 782 824
f 42 374 839
f 516 508 382
f 908 910 318
f 534 524 523
f 552 818 548
f 42 172 173
f 901 800 798
f 818 552 900
f 533 322 531
f 871 175 737
f 868 187 189
f 22 232 844
f 593 822 533
f 822 315 316
f 929 556 330
f 330 315 822
f 838 919 537
f 904 838 537
f 318 860 834
f 908 318 834
f 465 830 715
f 556 342 336
f 105 836 559
f 833 559 836
f 29 44 846
f 908 834 804
f 562 917 828
f 299 836 105
f 818 900 767
f 832 553 559
f 562 832 920
f 811 315 548
f 828 801 821
f 801 828 917
f 821 797 814
f 836 299 903
f 401 590 580
f 797 821 801
f 905 798 796
f 796 814 797
f 810 548 818
f 814 798 806
f 798 814 796
f 909 796 797
f 811 548 810
f 413 587 590
f 404 51 837
f 51 864 837
f 837 838 404
f 909 797 801
f 529 842 843
f 158 842 863
f 232 906 863
f 800 806 798
f 529 528 511
f 794 811 806
f 785 908 804
f 785 647 908
f 859 877 878
f 526 534 794
f 877 571 878
f 571 31 915
f 173 351 42
f 524 783 509
f 350 173 175
f 29 350 871
f 823 526 794
f 783 524 526
f 526 823 782
f 42 351 374
f 841 374 351
f 504 775 783
f 509 783 775
f 782 823 891
f 885 124 884
f 887 757 779
f 914 801 917
f 426 885 881
f 890 397 925
f 825 504 824
f 775 504 883
f 925 587 931
f 587 925 580
f 802 494 825
f 785 279 762
f 494 831 465
f 831 494 802
f 894 287 775
f 590 895 413
f 438 897 576
f 884 164 869
f 762 279 751
f 423 931 587
f 587 413 423
f 931 423 857
f 762 761 647
f 617 820 476
f 595 820 621
f 751 755 763
f 893 459 243
f 751 264 805
f 609 857 423
f 423 881 612
f 662 443 444
f 721 805 735
f 621 584 595
f 857 609 819
f 443 645 869
f 612 885 627
f 636 621 820
f 628 902 584
f 805 721 807
