# avbd fit, rung f600-i32-s300-nosim of Gate 6d (body space, fit phase only)
v -0.007022317 0.634058714 -0.012562352
v -0.088974193 0.613653064 0.055563319
v -0.014053680 0.651393771 0.005316626
v -0.003571674 0.945866108 0.069582090
v -0.132035255 0.590666175 0.064861841
v -0.000123467 0.991590619 0.071611553
v -0.019209864 0.680886090 0.000679879
v -0.010535651 0.666063666 -0.007453301
v -0.134970456 0.610557795 0.066078499
v 0.158949792 0.937133133 -0.079410292
v -0.155482531 0.600029588 0.054996915
v -0.178336531 0.598404646 0.040337138
v -0.188346788 0.598961473 0.020117441
v -0.135665700 0.607032001 -0.074376710
v 0.006263419 0.633863211 0.003933840
v -0.117280006 0.603726804 -0.078944474
v 0.023057075 0.630704045 0.002638416
v -0.094717294 0.611073017 -0.075012453
v -0.081284985 0.626697183 -0.070454016
v 0.185700983 0.545323789 -0.013712284
v 0.007077594 0.914736152 0.069010034
v 0.003253327 0.894414306 0.067542054
v -0.060205381 0.629442573 -0.062140245
v -0.063941464 0.635465503 -0.081110880
v 0.102240995 0.832599640 -0.121246532
v -0.043831326 0.652429760 -0.077141695
v -0.144870162 0.910189152 -0.113901719
v -0.128054649 0.820033252 0.071346976
v 0.026634747 0.727304399 -0.046951007
v -0.142847940 0.833777726 0.064158104
v 0.077086434 0.859549701 -0.145961449
v -0.184958994 0.801921368 0.049224615
v 0.080259219 0.802684009 -0.115312681
v -0.180279344 0.602312803 -0.046484064
v 0.052565932 0.796344340 -0.106692575
v -0.165399760 0.914182544 -0.081071123
v -0.161225036 0.890598595 -0.030694479
v 0.011031026 0.783397198 -0.011331877
v -0.182740763 0.923046410 -0.022821462
v -0.083798677 0.910426438 -0.146341980
v -0.022977104 0.906998038 0.067823842
v 0.012736890 0.692256391 -0.035544172
v -0.019300416 0.878584206 0.064964756
v 0.033209648 0.726950288 -0.073309414
v -0.041386820 0.884974599 0.064334683
v -0.154446632 0.936333001 -0.003209099
v -0.164380580 0.918503106 0.012777299
v 0.038730990 0.746187270 -0.089351662
v -0.146861687 0.921523213 0.033566751
v -0.047196280 0.629598022 0.018043226
v 0.047697946 0.847239971 0.037386287
v -0.057600804 0.624686778 0.034701429
v -0.054901205 0.724250436 0.060673989
v 0.035985887 0.796103597 0.045623317
v -0.063999787 0.615474284 0.053870536
v 0.101254299 0.809293389 -0.109599188
v -0.079872958 0.717910230 0.062835693
v -0.158475414 0.714192390 0.066135272
v 0.121496603 0.816590428 -0.123954296
v -0.195037112 0.707138121 0.041828755
v 0.046671033 0.724628866 -0.095430426
v 0.070093572 0.715975165 -0.092605039
v -0.194788933 0.809717476 0.028310334
v -0.189553857 0.831920922 0.023054805
v -0.207666248 0.705610275 -0.031457797
v -0.190457702 0.700686038 -0.056370068
v -0.180180773 0.715023339 -0.073295318
v -0.006171793 0.617726743 -0.004273172
v 0.016281996 0.618461490 -0.009122211
v -0.155109853 0.702788770 -0.085607320
v 0.034112938 0.616446137 0.003454826
v -0.093981333 0.726079464 -0.103800140
v 0.043971244 0.600375354 -0.008345431
v -0.023874708 0.798799634 -0.048108313
v 0.051443946 0.598338664 -0.028974598
v -0.106248893 0.913026631 -0.138144344
v 0.050285287 0.587168694 -0.016045382
v -0.126613528 0.913706183 -0.128960863
v 0.051836956 0.575925708 0.002834805
v -0.134610951 0.894811988 -0.127532229
v 0.062641621 0.566426873 0.017621059
v -0.161840111 0.926128209 -0.104811929
v 0.073232368 0.557546794 0.032723706
v -0.178544253 0.872232318 -0.065627135
v 0.089407042 0.551266491 0.046501935
v 0.028030494 0.757166028 0.017464289
v -0.124124452 0.925333679 0.040362179
v -0.121859565 0.813751042 -0.118382633
v -0.138637751 0.647335529 0.068415746
v 0.106044136 0.547153473 0.053592581
v -0.144031554 0.825969815 -0.107769392
v -0.021272954 0.826877475 0.039129891
v 0.125149757 0.543886304 0.062271744
v -0.043794822 0.835877538 0.037600767
v 0.145017937 0.542212248 0.053542424
v -0.028088000 0.852400661 0.057205789
v 0.162636727 0.540902257 0.044243962
v -0.011617700 0.926754117 0.069485292
v 0.175453097 0.541284263 0.026262235
v -0.068815559 0.927101731 -0.147675961
v 0.184153497 0.541970313 0.007187498
v 0.023710046 0.800636292 -0.044160493
v -0.097685702 0.889979541 -0.144450814
v -0.084233597 0.669607818 0.056439437
v 0.024412550 0.735265195 0.006908621
v 0.042245455 0.801387191 -0.091171049
v -0.129591674 0.872899890 -0.131627470
v -0.115982711 0.646820605 0.071616046
v 0.118542232 0.772660315 -0.115252480
v -0.138422757 0.856991410 -0.120082751
v 0.124343477 0.832204700 -0.108378947
v 0.139993221 0.809457123 -0.108317554
v 0.138740093 0.785274625 -0.107622668
v -0.146530092 0.668339312 0.067046851
v -0.144677520 0.853853047 -0.098094121
v 0.177790105 0.548634231 -0.034297839
v 0.168739423 0.551681876 -0.050220102
v -0.187115014 0.649999261 0.040330976
v 0.147970378 0.831702888 -0.104269348
v -0.170857668 0.861891925 -0.088464595
v -0.192318827 0.859042943 -0.051160567
v -0.198455393 0.873930454 -0.031816911
v -0.066036567 0.847997069 -0.143755987
v 0.131994650 0.687505960 -0.091755785
v -0.159983337 0.869204879 0.040099338
v -0.180620313 0.857155144 0.016463472
v -0.101551674 0.859297574 0.060885388
v -0.111472979 0.876650929 0.049555287
v 0.152684957 0.557839513 -0.062122028
v -0.025567591 0.839141846 -0.126641095
v 0.138823926 0.567391694 -0.066959240
v -0.049032282 0.831729531 -0.128617913
v 0.117518604 0.573950529 -0.075705156
v -0.023098160 0.742106497 -0.039133612
v 0.126698002 0.561068714 -0.072312981
v -0.081134163 0.935480773 0.057870109
v 0.108860835 0.559042096 -0.071224034
v -0.051901799 0.930948138 0.064756349
v 0.092877366 0.566631913 -0.063565999
v -0.027927687 0.821411610 -0.112149201
v 0.074632481 0.573792994 -0.055624641
v 0.165251121 0.818467438 -0.097374797
v -0.027628377 0.813038170 -0.088630565
v 0.087499768 0.582415044 -0.059503227
v -0.052817374 0.814375877 -0.112494208
v -0.183566228 0.822427154 -0.081606247
v 0.100782253 0.600936532 -0.074746847
v -0.122672543 0.950743318 0.038532235
v 0.084643215 0.596187651 -0.073363394
v -0.023954282 0.768264353 -0.051642638
v 0.074465401 0.591492772 -0.059144340
v 0.135453910 0.764052987 -0.106488787
v 0.054002054 0.597792208 -0.045087092
v -0.097200111 0.775822997 -0.110984817
v 0.046411771 0.614892602 -0.034095977
v -0.040508106 0.705212116 -0.078985997
v 0.033706862 0.629883111 -0.009919645
v 0.040638022 0.885768056 0.064728990
v -0.187309131 0.783564687 -0.075773060
v -0.193632215 0.604429424 -0.022351321
v 0.159334615 0.794133782 -0.099280432
v -0.207053572 0.804001212 -0.021489650
v -0.210429698 0.760140359 -0.015393731
v 0.154801562 0.677766442 -0.079639018
v -0.209415942 0.745109379 -0.038094487
v -0.016022049 0.663068414 -0.025243849
v 0.009868370 0.647671402 -0.020041201
v -0.017556034 0.649380565 -0.013115155
v -0.013892138 0.680101633 -0.031244257
v 0.170653120 0.846471488 -0.092932194
v -0.197720394 0.752378583 -0.057035405
v -0.009485738 0.700519741 -0.034352623
v -0.008876530 0.708613992 -0.018555027
v -0.210730642 0.741421402 0.005278416
v -0.006745647 0.731548429 -0.013434613
v 0.179180622 0.802103996 -0.089379109
v -0.168479607 0.749087214 -0.088489264
v -0.051708747 0.608536065 -0.053446531
v -0.200807020 0.754665673 0.033886325
v 0.176880360 0.694935679 -0.072287433
v -0.195135176 0.731634557 0.044510260
v -0.076457769 0.768307805 -0.104356661
v -0.056465738 0.758685946 -0.097019449
v 0.185396597 0.823573411 -0.077443898
v -0.056152612 0.812802792 -0.083557159
v -0.004695701 0.819561660 -0.094638765
v -0.003790882 0.831472397 -0.109182931
v -0.065034203 0.903693080 0.062700294
v -0.003475242 0.845399499 -0.121230565
v -0.097700320 0.893128514 0.049720276
v 0.190960765 0.794980168 -0.070807435
v -0.086611845 0.865383446 0.039625529
v -0.000737650 0.862685502 -0.128761590
v -0.101806685 0.916771889 0.051627655
v -0.143363073 0.748755217 0.073534377
v 0.001392458 0.881530464 -0.131486252
v -0.091361910 0.952279866 0.055225510
v 0.189678758 0.848877072 -0.060985841
v 0.157801196 0.565021217 0.049854852
v -0.000727522 0.900112033 -0.131450459
v -0.105646551 0.940109849 0.047154907
v 0.003160942 0.917644680 -0.130312681
v -0.135857791 0.883450985 0.044467010
v 0.202779919 0.785648525 -0.050619863
v -0.134992272 0.903241277 0.032705594
v -0.211447403 0.797048271 0.015869765
v 0.004517123 0.938633442 -0.133160859
v -0.116218522 0.952481866 0.016507007
v -0.142663926 0.928945243 0.012470664
v -0.142586380 0.948004425 0.028771138
v -0.120272018 0.743528247 0.080276005
v 0.023539640 0.968778312 0.069360949
v 0.020489616 0.986603856 0.070748568
v 0.189859286 0.864483178 -0.030317236
v 0.008513317 0.933247268 0.074004039
v -0.163074344 0.943551660 0.017538030
v 0.200035095 0.835847974 -0.032560065
v -0.171900600 0.946031272 -0.012366397
v -0.169125170 0.924506009 -0.009376190
v -0.048005927 0.686881900 -0.078027345
v 0.008218376 0.958703041 0.071200177
v 0.197089970 0.851999938 -0.010115664
v 0.206713364 0.803753257 -0.025005961
v -0.170486599 0.919799685 -0.039903130
v -0.165646225 0.938212097 -0.078302130
v -0.140457392 0.929921329 -0.121526636
v -0.158314466 0.872456193 -0.105013624
v -0.055769444 0.670064569 -0.073573932
v 0.038804065 0.977013767 0.068937786
v 0.037759993 0.958365917 0.068622462
v -0.108692959 0.870217025 -0.140344307
v -0.000143880 0.875040889 0.065168165
v -0.117168583 0.892308593 -0.136605158
v 0.203311965 0.826599002 -0.007144503
v -0.080298051 0.646276832 -0.075203523
v 0.053303175 0.966157794 0.065089479
v -0.026276704 0.726983428 0.009193680
v -0.030453041 0.613369644 -0.002678109
v 0.187840596 0.865849137 0.008176470
v -0.195665985 0.851812661 -0.024839740
v -0.038444027 0.668033004 0.016200442
v 0.056228071 0.983736157 0.063996926
v 0.206158489 0.691047788 0.003032387
v -0.048522960 0.607827067 0.011598217
v 0.206611603 0.692890286 -0.018289138
v 0.195186913 0.845017910 0.014311431
v 0.209314540 0.801430881 0.004304020
v -0.047908224 0.678171098 0.034448132
v -0.062505081 0.597687006 0.032405082
v -0.078587316 0.590173841 0.052490294
v -0.080439940 0.656397462 0.071671650
v 0.184335932 0.831253171 0.035334285
v -0.079250790 0.630635619 0.068280622
v 0.199766591 0.822022140 0.016832089
v -0.051637299 0.863439262 0.057455242
v 0.089506045 0.868105292 0.043336362
v -0.083743006 0.644944489 0.052535288
v 0.070746034 0.800032258 -0.097995602
v -0.101501323 0.593666434 0.059078854
v -0.186793298 0.660783827 -0.053466011
v -0.099630430 0.657481313 0.065269962
v -0.108684584 0.611044526 0.072763033
v 0.062530354 0.813480854 -0.108411252
v 0.125534937 0.895795643 0.034488104
v -0.100523256 0.633876920 0.064191625
v -0.189218357 0.641746938 -0.043795999
v -0.117441610 0.587839842 0.078545675
v 0.196670786 0.804229259 0.029309342
v 0.193871304 0.783973217 0.041428708
v -0.118007779 0.900503278 0.044635180
v -0.125072464 0.629005790 0.072386220
v -0.146111310 0.575303435 0.056564741
v 0.167342097 0.853030801 0.045424141
v 0.169657618 0.828902066 0.057844620
v -0.161694795 0.647874832 0.057962902
v -0.149546102 0.626454949 0.061373282
v 0.162248403 0.802760780 0.065381050
v -0.167418644 0.574833035 0.046010699
v 0.137374833 0.913599670 0.040866740
v -0.172121570 0.623859465 0.050575785
v 0.199586302 0.683053374 0.026041243
v -0.030682063 0.990032673 0.070370972
v -0.187800646 0.621898532 0.029791448
v -0.009113267 0.963004708 0.080080666
v 0.153153136 0.850227237 0.063399568
v -0.147553653 0.888294816 0.025820393
v 0.187998891 0.674778104 0.047497787
v -0.152173460 0.898708999 0.007757961
v -0.194746882 0.613829136 0.004609345
v 0.155779615 0.778872252 0.070231661
v -0.167359978 0.880202770 0.015018967
v 0.022015821 0.859044433 -0.135442451
v 0.025460199 0.885242760 -0.140810817
v 0.132083535 0.846792042 0.062262326
v -0.027504602 0.936543822 -0.140039161
v 0.145745173 0.824743569 0.066151135
v -0.198588625 0.639353514 0.013832298
v -0.019303204 0.911765218 -0.137894318
v 0.016366865 0.760030746 -0.004062423
v -0.030867973 0.689617991 -0.013016723
v -0.042938665 0.917745113 -0.142355159
v 0.114004947 0.858725846 0.061526369
v -0.049027301 0.939207077 -0.136286944
v -0.167282224 0.895915627 0.032760270
v 0.134005457 0.799294591 0.073535293
v -0.181426108 0.874150276 0.032424647
v 0.117064990 0.779808939 0.082150534
v -0.182106063 0.880722404 -0.016176650
v -0.192932039 0.867089152 0.000209939
v 0.119360365 0.830781937 0.070564426
v -0.182868853 0.893863320 0.004530913
v 0.097179011 0.792540550 0.074634850
v -0.182240158 0.580635488 -0.035617683
v -0.197379768 0.628422618 -0.010916750
v 0.075851552 0.686352611 0.059081741
v 0.098312907 0.680501580 0.067696877
v 0.078973264 0.762029111 -0.103708491
v 0.055418707 0.941449165 0.041971862
v -0.030657912 0.672086895 -0.016732786
v 0.082365707 0.990662694 0.053892065
v -0.186105609 0.899116218 -0.028084153
v 0.108335868 0.701108575 0.073498972
v 0.093539618 0.848441005 0.074089617
v -0.200393289 0.641050458 -0.026516322
v -0.179192603 0.881297410 -0.041701671
v 0.102080002 0.982161820 0.044522822
v -0.166744262 0.887488842 -0.082452968
v 0.108767107 0.812262058 0.081978001
v -0.069230527 0.811411083 -0.099686444
v 0.064446256 0.712092936 0.056788109
v -0.170459002 0.589413285 -0.059718110
v 0.076438233 0.796842158 0.066274121
v -0.190506309 0.621804535 -0.035601236
v -0.181568936 0.639112949 -0.068972334
v -0.135655835 0.588733017 -0.070097826
v 0.044678565 0.711979568 0.038875937
v 0.087598413 0.819871724 0.069912978
v -0.048949793 0.778416157 -0.097821780
v 0.068117782 0.816264927 0.060295332
v -0.156049803 0.609619498 -0.065117702
v -0.165335312 0.656481624 -0.071943752
v 0.035612650 0.732989609 0.028165976
v -0.073192224 0.791322112 -0.104685917
v -0.153903171 0.582353711 -0.064312972
v 0.015971154 0.819171429 -0.103795908
v 0.070524514 0.842824757 0.057302196
v 0.060832761 0.868246734 0.058841884
v -0.156240150 0.631561339 -0.071024217
v 0.072289780 0.978000939 0.060028665
v 0.020931911 0.724540114 -0.023782400
v 0.024241244 0.703373373 -0.022209335
v -0.118481949 0.583386540 -0.075138956
v 0.088532284 0.975473106 0.052492030
v -0.119636215 0.771107018 -0.117763743
v 0.131655842 0.952311993 0.029472534
v -0.119099103 0.644421279 -0.087080881
v 0.052974053 0.894688725 -0.146468252
v -0.132634431 0.626622260 -0.077942111
v 0.141549841 0.943427086 0.017138062
v 0.023119617 0.752413630 -0.043102197
v 0.023858121 0.774603605 -0.051218830
v -0.130330741 0.753388882 -0.107506536
v 0.143996328 0.960069180 0.011183497
v -0.138965338 0.774652362 -0.107149400
v -0.119762883 0.932160079 -0.134864688
v -0.030751890 0.940590501 0.069734372
v 0.160749361 0.947312474 -0.010239177
v -0.097594500 0.585049033 -0.069082074
v -0.153235495 0.761912704 -0.098058186
v -0.111943439 0.623641372 -0.084135570
v -0.159145713 0.898936391 -0.101855956
v 0.150995493 0.946198106 0.003425600
v -0.173307702 0.772928178 -0.090541855
v 0.032823589 0.683834672 -0.032093141
v -0.083028100 0.598163009 -0.065130033
v -0.186017007 0.761892557 -0.073577166
v 0.167234018 0.938753784 -0.025407165
v -0.146445721 0.884312034 -0.117477581
v 0.165330321 0.943357348 -0.042364981
v -0.198815957 0.780345201 -0.056478910
v -0.095369652 0.636400342 -0.082627021
v 0.165960699 0.723689318 0.064915754
v 0.167079061 0.928977013 -0.065650880
v -0.208738849 0.765258014 -0.041068446
v 0.031819772 0.790410399 -0.071148068
v -0.067684434 0.613220453 -0.064119607
v -0.028245214 0.665384173 0.003184377
v 0.168769419 0.911816418 -0.069481291
v -0.208561212 0.784107864 -0.030468574
v 0.183053315 0.805855393 0.050212018
v -0.027756652 0.706595957 0.003692480
v 0.155953854 0.926827788 -0.092625938
v 0.180695325 0.775656283 0.062513538
v -0.054587226 0.798040926 0.055397660
v -0.061169725 0.649204969 -0.063770831
v -0.038723774 0.624275386 -0.059203774
v 0.035174824 0.678040326 -0.056076974
v -0.075187817 0.666315675 -0.084141560
v -0.039957918 0.655489087 -0.054047365
v -0.044592239 0.638401628 -0.040916279
v 0.050250672 0.711078942 -0.082338199
v 0.032311529 0.767846465 -0.078474730
v -0.184280723 0.749181211 0.060334217
v 0.028456578 0.817554176 0.039734833
v 0.024844417 0.800839782 0.022633847
v -0.187126905 0.775625229 0.055517472
v 0.020581581 0.781087339 0.008783175
v -0.043130834 0.810126960 -0.059558459
v 0.067566477 0.739598811 -0.097762011
v -0.165565580 0.792950869 0.065607652
v -0.034166805 0.691707850 -0.065206692
v -0.036783896 0.671688914 -0.066114083
v 0.055471040 0.691214204 -0.081472509
v -0.160755664 0.766050696 0.067951903
v -0.037805840 0.667846382 -0.033681881
v 0.145808145 0.929532528 -0.105831146
v 0.090585172 0.701805890 -0.097256370
v -0.033094428 0.682534337 -0.049473368
v -0.140523762 0.785845041 0.073002651
v -0.029539544 0.713339627 -0.050324589
v 0.141732901 0.914806008 -0.114234827
v -0.030121053 0.696565509 -0.032714732
v 0.063679874 0.658874273 -0.074794121
v -0.190804988 0.590022445 -0.003382640
v -0.182909936 0.574304760 0.022271324
v 0.104646757 0.686830580 -0.099210471
v -0.129651785 0.765046716 0.077582531
v -0.111995533 0.781189322 0.079525277
v 0.094673477 0.742989242 -0.106255867
v -0.076604471 0.863855958 0.058158260
v -0.045318734 0.980280101 0.066201001
v -0.098054729 0.757658601 0.072843812
v 0.118262768 0.728407264 -0.108933151
v -0.088653758 0.781003475 0.070088729
v -0.081567757 0.844141483 0.065108433
v 0.159714252 0.728602648 -0.088267490
v -0.071244948 0.763649881 0.062348992
v 0.126027897 0.868934631 -0.134037495
v -0.066756733 0.820816398 0.059130203
v -0.090271994 0.822168827 0.070588812
v 0.178906739 0.718460560 -0.075342357
v -0.077713594 0.802998066 0.066083610
v 0.175254703 0.650764287 -0.078385986
v 0.180817917 0.672701240 -0.071012512
v -0.067910694 0.783835590 0.061762910
v -0.048541125 0.774126649 0.053525370
v -0.099450067 0.801226139 0.075348072
v -0.022738863 0.797770083 0.015579547
v -0.110071041 0.821010232 0.081700966
v -0.099025533 0.842615902 0.079993553
v 0.192165583 0.712625623 -0.055868994
v 0.200713992 0.677202582 -0.036387868
v -0.062607206 0.842753232 0.050651252
v -0.123286441 0.801535130 0.075661652
v -0.037570965 0.705862641 0.024357978
v -0.117556132 0.838401675 0.068222232
v 0.190385610 0.688332736 -0.053409189
v -0.133704320 0.858777702 0.057033159
v 0.203478858 0.670802593 -0.014318489
v -0.165747017 0.819335580 0.061006211
v 0.208963230 0.720044136 -0.009826151
v -0.145769373 0.808758080 0.068431482
v -0.066145644 0.885384738 0.060560502
v -0.162494123 0.846162319 0.055180579
v 0.197019756 0.625272274 -0.022028346
v -0.068919614 0.942203343 0.075773373
v -0.003249511 0.805984020 -0.059894741
v -0.060940020 0.967945278 0.076561853
v -0.177352622 0.848672688 0.035546657
v -0.198712215 0.783066869 0.032738097
v -0.030141857 0.971036613 0.072174229
v -0.005080373 0.812479675 -0.077789575
v -0.068029210 0.978115678 0.060301919
v -0.210809201 0.769129276 0.012157621
v 0.082188904 0.837757945 -0.137943551
v 0.147689313 0.903716207 -0.130127713
v -0.201440662 0.852623105 0.025193894
v -0.058139138 0.992931724 0.063625805
v 0.206279352 0.713497579 0.019437324
v 0.129666284 0.924510181 -0.122834206
v -0.166359708 0.902160347 -0.011598259
v 0.198493615 0.731374323 0.037781246
v -0.210230753 0.786805332 -0.006311235
v -0.206502438 0.813964188 -0.001876241
v -0.201275080 0.839795291 -0.001072543
v 0.110441923 0.915034294 -0.132993370
v 0.205481291 0.777344823 0.021747869
v 0.107987151 0.932700038 -0.130080864
v -0.088944800 0.890944183 0.070468552
v -0.015849993 0.885646820 -0.137330264
v 0.187066093 0.719441712 0.056644518
v 0.063591614 0.936432540 -0.136951447
v 0.082107373 0.936610878 -0.136218220
v 0.194182158 0.611664593 0.006610386
v -0.045214746 0.959128201 0.064243563
v -0.021857692 0.861810029 -0.136426553
v -0.205073074 0.806012452 -0.044003569
v -0.172704056 0.899970174 -0.057678543
v -0.087921746 0.865954041 0.078659669
v 0.051320054 0.948141456 -0.130533606
v -0.193247572 0.804827690 -0.067125447
v 0.017843183 0.920886219 -0.135081142
v -0.161359623 0.811648846 -0.099453546
v 0.170705959 0.618378162 0.050955690
v -0.179239318 0.798015475 -0.089904092
v 0.021617504 0.940062642 -0.131414697
v -0.011106213 0.946488678 -0.126810923
v 0.174502522 0.696767688 0.059487004
v 0.163956195 0.669455588 0.060406905
v 0.082831971 0.817475796 -0.097306773
v 0.021045554 0.945790887 0.062289041
v -0.166510582 0.837409139 -0.096491866
v -0.157556146 0.786956668 -0.100077376
v -0.172037959 0.926477432 -0.060888898
v 0.070393302 0.824006259 -0.123166360
v 0.149360865 0.696921051 0.069311142
v -0.136800930 0.797545969 -0.109730542
v -0.047282793 0.624608099 -0.014298985
v -0.096039176 0.807175457 -0.126042768
v -0.047070686 0.619377732 -0.030694205
v -0.051254980 0.602046609 -0.034469791
v -0.114098951 0.791893721 -0.123997651
v 0.123920783 0.683188856 0.077748612
v 0.140182212 0.662350059 0.069520339
v -0.058018394 0.591365218 -0.051847629
v 0.130284399 0.632593274 0.071074679
v -0.120600224 0.849694848 -0.129571676
v 0.024639284 0.926702619 0.083958723
v 0.029529709 0.914421082 0.065692954
v -0.073735364 0.584452510 -0.056634855
v 0.128368810 0.713123322 0.078171566
v -0.093664341 0.826867223 -0.134200126
v 0.107101023 0.722326219 0.074624404
v 0.111505844 0.656298041 0.071131885
v -0.057929844 0.581403553 -0.037049938
v -0.003392518 0.834704220 0.050357483
v -0.001853467 0.818859458 0.033008877
v -0.101725504 0.820855975 -0.109855376
v -0.070118837 0.567911386 -0.052811004
v -0.085435294 0.866620839 -0.147311389
v -0.101253130 0.796736121 -0.108244717
v -0.086952642 0.565621495 -0.060849167
v -0.104200229 0.559637606 -0.068501353
v -0.122683384 0.554029346 -0.072964601
v -0.039442830 0.812882721 0.044862188
v -0.022970757 0.821119308 0.018137131
v 0.055396058 0.693856120 0.050859701
v 0.058707643 0.670612335 0.049985282
v -0.138767272 0.551228523 -0.065423027
v -0.131220385 0.569331169 -0.070862949
v -0.025720298 0.749772787 0.011401189
v 0.045526441 0.688807368 0.034181584
v 0.032185264 0.708475232 0.015862416
v -0.147075981 0.563012779 -0.066075213
v -0.086269759 0.845510662 -0.140546948
v 0.048407689 0.732619762 0.050436545
v -0.164521605 0.561005175 -0.058320593
v -0.040109765 0.731296897 0.035026286
v 0.022403773 0.713310421 -0.005803664
v -0.033367351 0.687220454 0.011459453
v -0.105669297 0.848874748 -0.146580726
v 0.016063044 0.685777783 0.010670053
v -0.051140439 0.703416467 0.046689507
v 0.044473261 0.775135934 0.052200265
v -0.038411871 0.649508178 0.011294555
v -0.048646234 0.650097013 0.026629860
v -0.060074754 0.873845577 -0.148927554
v -0.077428550 0.888099194 -0.148451775
v -0.049275439 0.749468684 0.055420332
v -0.060262848 0.900873005 -0.147640377
v 0.102701411 0.876342416 -0.142347008
v -0.174508035 0.554128349 -0.040946912
v 0.057554346 0.754317641 0.056822322
v -0.059748363 0.650279045 0.048973624
v -0.075058989 0.740714371 0.062549576
v 0.104605332 0.852484524 -0.138694555
v -0.063965775 0.679821074 0.053569861
v -0.065676272 0.701291382 0.067519590
v -0.086343229 0.915610611 0.061720680
v 0.047512658 0.674202204 -0.073402330
v -0.047389474 0.909796834 0.067083903
v 0.078583084 0.756480098 0.065466359
v -0.080995642 0.680903196 0.073642060
v 0.148003921 0.859303474 -0.116425790
v -0.182661340 0.550066531 -0.024711635
v -0.023812963 0.773464322 0.012409203
v 0.078019276 0.675366819 -0.086374298
v -0.180327564 0.547667623 0.018210825
v -0.104943015 0.704928994 0.071874417
v 0.072883412 0.694625080 -0.090135977
v -0.171608642 0.548789740 0.035713434
v -0.085874796 0.696303844 0.060252536
v 0.093670882 0.739429295 0.070388876
v 0.099826001 0.764105201 0.074532807
v 0.142678902 0.881990433 -0.121146217
v -0.155246288 0.552095532 0.048959635
v -0.098717868 0.731603026 0.071380056
v -0.138675079 0.556671917 0.057959784
v -0.102081701 0.680233419 0.068671033
v -0.118194684 0.559142232 0.061742358
v -0.113935098 0.579702556 0.062871769
v -0.118894480 0.722499788 0.078702949
v -0.128009006 0.686228275 0.076903507
v -0.128746375 0.572420716 0.065624043
v 0.119019985 0.745279074 0.080706254
v -0.135548383 0.707366168 0.074791543
v -0.104072370 0.568260252 0.056572866
v -0.088153042 0.566144168 0.048804056
v 0.077367201 0.638229012 -0.074150495
v -0.140765920 0.728326082 0.073939607
v 0.161926121 0.753060639 0.067947432
v 0.087467901 0.660153270 -0.083847664
v 0.173266724 0.925371826 -0.084914625
v -0.072105095 0.568646073 0.037891030
v -0.121387556 0.665180922 0.075237803
v -0.062705182 0.575853825 0.023593174
v 0.158187211 0.917056561 -0.107295357
v -0.053397637 0.582837582 0.008700709
v -0.046536315 0.593219638 -0.008338098
v 0.185581893 0.745000005 0.060104419
v 0.162780896 0.879289985 -0.108123466
v -0.046529241 0.607416809 -0.019376719
v -0.031858090 0.628247619 -0.027160952
v -0.162640512 0.738487184 0.067111738
v -0.025381148 0.631839812 -0.008752597
v -0.153437942 0.691072822 0.067055449
v 0.115788020 0.643769383 -0.090832576
v 0.150328577 0.867250800 -0.092266276
v 0.197496161 0.759162366 0.039442297
v -0.179929584 0.722553909 0.059275288
v -0.171302125 0.671674669 0.057177722
v -0.176729545 0.697124839 0.058094889
v -0.030930260 0.788179219 -0.073098630
v 0.125565335 0.630330086 -0.080156565
v 0.210451126 0.774613619 -0.004184012
v 0.170364335 0.902382255 -0.103363775
v 0.009852655 0.812300324 -0.082462765
v -0.043823279 0.800142765 -0.096907839
v 0.042316858 0.782342076 -0.095765129
v -0.036299676 0.760099888 0.033854462
v 0.210823774 0.745679975 0.012823704
v -0.192238286 0.680009246 0.040318880
v -0.204658225 0.723514199 0.023847368
v -0.180818856 0.826310337 0.042098098
v 0.166058809 0.631248116 -0.067928381
v -0.201348826 0.667065203 0.017507132
v 0.088238068 0.955764890 0.054258354
v 0.210284680 0.749205410 -0.017377922
v -0.204780176 0.695136189 0.019085184
v -0.208423883 0.712366521 -0.002828834
v -0.209334448 0.730831563 -0.020632712
v 0.145246297 0.634140611 -0.074959770
v 0.207636163 0.730068207 -0.038665183
v -0.201203987 0.654680550 -0.007115778
v -0.210747272 0.824721634 0.017345516
v 0.164529651 0.888531327 -0.088201664
v -0.015915718 0.999807715 0.071101218
v 0.205229566 0.756721854 -0.046419594
v 0.189568996 0.764912367 -0.067766368
v -0.109847590 0.833327472 -0.122940764
v -0.073208816 0.826322198 -0.125132769
v 0.161531508 0.659684181 -0.067239866
v -0.205278203 0.683324695 -0.010576127
v 0.161157534 0.611430407 -0.065704040
v 0.193461761 0.737250090 -0.059509307
v -0.010607129 0.928856373 -0.130962297
v -0.033202372 0.952137768 -0.128050208
v 0.173935890 0.870118022 -0.076644212
v 0.016764402 0.808155894 -0.001782342
v -0.054932751 0.953698814 -0.127695605
v -0.033493102 0.786537766 0.037371933
v 0.180729985 0.740689993 -0.077833481
v 0.167563409 0.754042387 -0.089261279
v -0.067031369 0.942257583 -0.134129912
v 0.169912174 0.892072678 -0.067463659
v -0.201188356 0.661790848 -0.031229833
v -0.084962904 0.942648709 -0.132162601
v -0.094880767 0.930039763 -0.144776002
v -0.202424139 0.825968623 -0.024895879
v -0.102589034 0.939776599 -0.129088610
v -0.124975935 0.941784263 -0.118626818
v 0.142399058 0.743155956 -0.099614702
v -0.197831467 0.725468159 -0.051619511
v -0.197294265 0.831263542 -0.053761940
v -0.183641925 0.846804738 -0.073014468
v -0.198099047 0.682258248 -0.042712238
v 0.181854740 0.879603088 -0.050360013
v 0.175366133 0.928261399 -0.048920389
v -0.177435696 0.624313056 -0.053446878
v 0.031453736 0.777329087 0.030575890
v 0.119823083 0.750319600 -0.111783072
v -0.086970106 0.818948448 -0.091230825
v -0.184186682 0.738191843 -0.073024727
v 0.171401769 0.919383228 -0.027520906
v -0.084745198 0.808401585 -0.109379992
v -0.176386744 0.609050691 -0.070403628
v 0.100334965 0.763478935 -0.109940194
v -0.180376276 0.678101659 -0.065179303
v -0.152499706 0.676577449 -0.080701314
v 0.159027994 0.912944019 -0.002383792
v -0.172703490 0.694293320 -0.075166509
v -0.162056357 0.726019800 -0.087078325
v 0.191105157 0.881139576 -0.007458665
v -0.142745316 0.649937272 -0.080655716
v -0.025451984 0.718976557 -0.026667541
v 0.054872572 0.762681544 -0.097126648
v -0.144413918 0.936712384 -0.104337968
v -0.153580233 0.936715007 -0.090455517
v -0.145616204 0.738845825 -0.097784415
v -0.137998506 0.715795934 -0.096831590
v -0.132211164 0.691639125 -0.093149468
v -0.126736566 0.667677045 -0.090569779
v -0.121541694 0.834284782 -0.104489818
v 0.049526267 0.820586026 0.049708139
v 0.181914002 0.635603428 -0.053819109
v -0.162473291 0.944202721 -0.059637599
v -0.165047914 0.944434166 -0.042142201
v 0.196592033 0.651231885 -0.034411523
v -0.016027782 0.634043634 0.006448377
v -0.167054012 0.935882866 -0.026292015
v 0.168050617 0.887296975 0.013039601
v -0.161023989 0.953220725 -0.026357314
v -0.157597542 0.954764247 -0.009994882
v -0.151832253 0.967509449 -0.001626745
v 0.209159181 0.774364591 -0.028361794
v 0.166454762 0.930075049 -0.008959302
v -0.145316035 0.950073242 0.008243150
v -0.141247183 0.967277229 0.011601032
v -0.130595967 0.965181947 0.025952285
v 0.059190564 0.811894059 -0.087183185
v -0.118880942 0.971038342 0.037032850
v 0.154665127 0.929322362 0.011303586
v -0.105197787 0.959657848 0.045499686
v -0.098711796 0.660353720 -0.090481408
v 0.158044025 0.881635308 0.034247275
v 0.016405908 0.765801489 -0.024929168
v -0.004774549 0.750247657 -0.015896583
v -0.006314742 0.771051943 -0.024361420
v 0.160624221 0.910029709 -0.086759336
v -0.105513275 0.683234870 -0.099292256
v -0.008415867 0.789991379 -0.027987128
v -0.120726541 0.731020451 -0.108479939
v 0.015064945 0.787907898 -0.028876558
v -0.005218117 0.801715851 -0.041605853
v -0.105026022 0.978184521 0.043313637
v 0.155001536 0.769880652 -0.098168634
v 0.141332909 0.932563782 0.032879710
v -0.082084551 0.681943536 -0.089680344
v -0.094052315 0.969984353 0.049948610
v -0.079841539 0.966820061 0.058892518
v 0.117396936 0.920394242 0.043586753
v 0.049535573 0.868632138 -0.145523831
v -0.113123834 0.706726909 -0.105438389
v -0.101016298 0.750613809 -0.109304354
v 0.109196469 0.948845983 0.045291007
v -0.086957425 0.705227971 -0.097248815
v 0.145349622 0.866855025 0.049528554
v -0.064325362 0.701436639 -0.084298708
v -0.011130313 0.784217358 -0.010899561
v -0.065214425 0.955491722 0.057989158
v 0.104872189 0.965067863 0.048713289
v 0.124764524 0.939009666 0.040545642
v 0.097107708 0.936125278 0.052581657
v -0.058675177 0.683563173 -0.096846297
v -0.069694228 0.722334027 -0.093940742
v -0.046980992 0.715276837 -0.098574385
v 0.033523858 0.669966578 0.006933633
v -0.075822785 0.744974971 -0.101539120
v 0.062202346 0.918445706 -0.143970221
v -0.047231894 0.739139378 -0.095618404
v 0.030402496 0.908976674 -0.141908601
v -0.043746725 0.856345534 -0.141491026
v -0.038263317 0.887404799 -0.144919395
v 0.198396891 0.637525678 0.007775215
v 0.179079875 0.646653831 0.051077329
v -0.031409122 0.735820293 -0.069542825
v -0.033269841 0.761700571 -0.082055159
v -0.154892102 0.952245116 -0.073800161
v 0.141858369 0.888759732 0.048476093
v 0.114261605 0.879541218 0.047805447
v -0.187259004 0.567969739 -0.008248370
v 0.146094441 0.609844804 0.061103232
v 0.154875129 0.639788270 0.060653996
v -0.184023321 0.549282849 -0.002556416
v 0.103561603 0.901714921 0.051661063
v -0.029128134 0.647996545 -0.029109323
v -0.033228341 0.647691369 -0.007134504
v 0.010018319 0.670017600 -0.009694928
v -0.036849089 0.630974770 0.001387275
v 0.006516381 0.975025535 0.070614778
v 0.079143539 0.904691696 -0.147746056
v -0.014872047 0.981814384 0.070030913
v -0.039751749 0.641831338 -0.014217511
v 0.101822995 0.629287302 0.064742707
v 0.025354749 0.956071019 0.082309119
v 0.052835584 0.599675238 0.015848640
v 0.047660299 0.621468127 0.015761036
v 0.067832738 0.600571215 0.044272102
v 0.049972419 0.840330958 -0.135872811
v 0.093280308 0.601834834 0.057084553
v 0.043887399 0.639495492 0.003742557
v 0.189422026 0.585423648 0.008330729
v 0.103300765 0.878810585 0.069325536
v 0.084950544 0.898062050 0.069894634
v 0.147706419 0.905189335 0.020852527
v 0.077668041 0.625847638 0.053663947
v 0.181748420 0.906938732 0.003665199
v 0.173644230 0.894815147 -0.022643173
v 0.035530157 0.938492894 0.070871308
v 0.059833508 0.645347834 0.045521326
v 0.083750650 0.655790865 0.059733260
v 0.174061313 0.904190242 -0.047756072
v 0.186225981 0.917439759 -0.066439547
v 0.058292471 0.621191621 0.035712816
v 0.178239584 0.902681172 -0.083015084
v 0.121441461 0.608408689 -0.078801133
v 0.141514063 0.603006721 -0.071038894
v 0.047510736 0.664974988 0.029246727
v 0.104225352 0.622999251 -0.078538522
v 0.150957793 0.898932159 -0.108523384
v 0.048756376 0.641096711 0.025133187
v 0.087507427 0.710509241 0.065905131
v 0.118158124 0.602680087 0.068469390
v 0.163214058 0.590436578 0.050507128
v 0.183016568 0.600024343 0.031373691
v 0.204761267 0.704192817 -0.037550937
v 0.137321830 0.715728343 -0.096754909
v 0.032274414 0.652151465 0.020882620
v 0.112971649 0.705707610 -0.104824945
v 0.183002114 0.608755231 -0.043193914
v 0.192442432 0.597236514 -0.016694197
v 0.028846702 0.687689662 -0.008872201
v 0.004707987 0.718494356 -0.007283516
v 0.085079134 0.917870879 0.057826173
v 0.055192243 0.946582794 0.066746034
v 0.010911715 0.739182115 -0.008914371
v 0.033325754 0.836313426 0.054015417
v 0.034555480 0.822553277 0.016861213
v 0.015247829 0.666432798 -0.032665264
v 0.047131486 0.922630191 0.067936137
v 0.029678071 0.703024566 -0.042123824
v 0.025032496 0.898395419 0.078358106
v 0.044277918 0.905124068 0.078132093
v 0.020278679 0.889630497 0.061838247
v 0.039252393 0.650468588 -0.018034864
v 0.033843558 0.703227222 -0.064286619
v 0.056004345 0.797475934 0.056642987
v 0.194945380 0.702512980 0.041514862
v 0.199116156 0.816008866 -0.053766966
v 0.046750322 0.625894904 -0.050931107
v 0.156155109 0.702768266 -0.084591016
v 0.119834982 0.794114649 -0.116147816
v 0.090788648 0.722573459 -0.101485111
v 0.084989555 0.617700279 -0.066508703
v 0.029140379 0.749450445 -0.064128026
v 0.035166029 0.814435005 -0.066900469
v 0.063289568 0.630301714 -0.065703876
v 0.080321327 0.618475139 -0.091707952
v 0.129321083 0.914478004 -0.141209036
v 0.067593083 0.922831416 0.061522990
v 0.062550418 0.898323417 0.061878305
v 0.062964156 0.606905818 -0.060657680
v 0.024204293 0.873077035 0.071265593
v 0.036727689 0.860282898 0.058138020
v 0.099586979 0.925711811 -0.147679865
v 0.101973698 0.584296823 -0.072532304
v 0.177406996 0.778186738 -0.088822916
v 0.021145467 0.835729480 -0.121188402
v 0.148926690 0.653923213 -0.081284530
v 0.134673327 0.581245542 -0.082038507
v 0.021415751 0.744985461 -0.023959337
v 0.120192006 0.591920137 -0.074252918
v 0.027590368 0.813423276 -0.086510688
v 0.150575683 0.583687544 -0.064042717
v 0.172067791 0.592629790 -0.056108724
v 0.039247263 0.754690528 0.039099079
v 0.123748444 0.893301129 -0.133330137
v 0.101741932 0.900039196 -0.142800450
v 0.015978958 0.804862678 -0.064301476
v 0.181693494 0.581612587 -0.036262251
v 0.087383024 0.682090521 -0.091918863
v 0.200396463 0.649167895 -0.010976601
v 0.188490778 0.627581000 0.030852010
v 0.131967396 0.659671068 -0.086513996
v 0.108637869 0.666316092 -0.095484085
v 0.177570388 0.570218921 0.032145943
v 0.131534249 0.871133804 0.064353324
v 0.176017687 0.861564815 0.027309392
v 0.187315613 0.663150370 -0.052095007
v 0.037290882 0.657766461 -0.042129871
v 0.137786865 0.577040434 0.061159093
v 0.065346934 0.775920033 0.060822107
v 0.202287957 0.664439440 0.007666633
v 0.193429813 0.655304551 0.029615670
v 0.056759071 0.701188445 -0.099746689
v 0.107139453 0.573872745 0.059422571
v 0.128426999 0.843394578 -0.128466994
v -0.006085214 0.802652061 -0.006551724
v -0.010941437 0.699803174 -0.001801392
v 0.038459849 0.683515370 0.016716111
v 0.082436562 0.578008711 0.048628099
v 0.134599894 0.850176513 -0.100093938
v -0.018353319 0.763336360 -0.012766290
v -0.003674275 0.808553874 0.013469132
v 0.063879289 0.581869245 0.028967699
v 0.016038653 0.850926518 0.063064083
v -0.002957356 0.853568375 0.058228917
v 0.078909256 0.938815415 0.068882674
v 0.046149407 0.619056821 -0.014462334
v 0.069313496 0.960425258 0.061177753
v 0.187806487 0.569983363 -0.013576770
v 0.083771802 0.777078986 0.068441190
v 0.044523589 0.933606029 -0.142139882
v 0.041202866 0.630561113 -0.028602773
v 0.077205591 0.883396506 -0.148352891
v 0.017592631 0.651361287 0.001365893
v 0.032837503 0.665953159 -0.015634704
v 0.041907996 0.818332195 -0.114819542
v 0.014532695 0.831336856 0.047223292
v 0.007783212 0.691803277 -0.013822491
v -0.012936522 0.690387130 -0.017538268
v -0.021199713 0.741946101 -0.016346633
v 0.170227334 0.571661711 -0.053295344
v -0.018729696 0.719585598 -0.008979467
v 0.047419090 0.649018168 -0.066832468
v 0.068286642 0.781899750 -0.103223905
v 0.094627805 0.785578191 -0.109962262
v 0.138130367 0.763896465 0.075332709
v 0.072008073 0.733815551 0.061340798
v 0.143999085 0.733237147 0.073679864
v 0.097111464 0.640282750 -0.085319623
v 0.185688034 0.561259985 0.008368795
f 555 540 123
f 389 162 497
f 567 540 568
f 583 104 251
f 463 489 430
f 453 94 255
f 483 484 162
f 446 640 671
f 574 577 251
f 50 244 238
f 52 244 50
f 575 57 53
f 55 249 52
f 55 2 250
f 577 248 563
f 575 437 432
f 57 597 589
f 2 265 262
f 589 592 57
f 262 259 2
f 5 267 262
f 602 606 589
f 5 9 11
f 58 606 610
f 11 272 5
f 12 278 11
f 565 793 8
f 630 60 632
f 13 425 12
f 424 289 160
f 289 424 13
f 643 649 60
f 181 403 179
f 483 206 484
f 163 651 174
f 53 563 558
f 651 65 650
f 163 389 384
f 683 66 65
f 455 558 563
f 165 384 171
f 340 331 34
f 67 66 683
f 206 470 63
f 385 102 856
f 67 702 70
f 344 340 696
f 179 403 406
f 710 70 702
f 16 352 14
f 111 112 59
f 63 64 655
f 18 368 16
f 710 742 753
f 119 112 111
f 394 671 545
f 551 922 903
f 19 375 18
f 753 740 711
f 406 470 179
f 261 615 108
f 545 453 439
f 178 386 530
f 24 386 23
f 72 753 742
f 26 396 24
f 768 765 72
f 119 142 112
f 32 63 470
f 112 142 161
f 399 400 396
f 154 343 182
f 545 671 448
f 399 415 400
f 768 770 765
f 32 406 410
f 418 415 399
f 770 183 777
f 387 300 166
f 415 418 422
f 105 86 299
f 169 42 839
f 170 142 119
f 173 172 705
f 329 638 343
f 134 738 737
f 185 638 329
f 692 661 145
f 150 74 741
f 637 345 873
f 132 145 661
f 170 184 142
f 138 495 760
f 138 136 188
f 136 194 188
f 201 87 194
f 270 87 205
f 216 49 210
f 46 216 724
f 198 184 170
f 43 96 907
f 219 39 218
f 45 43 41
f 224 37 219
f 498 224 514
f 86 105 342
f 225 36 514
f 378 107 110
f 80 233 107
f 22 41 43
f 198 217 849
f 41 581 45
f 103 233 76
f 76 40 103
f 222 217 214
f 678 100 40
f 98 41 22
f 366 41 98
f 40 76 678
f 215 4 284
f 215 98 21
f 537 536 92
f 222 234 217
f 904 537 92
f 460 462 30
f 284 471 366
f 222 239 246
f 586 903 759
f 462 28 30
f 246 234 222
f 454 449 28
f 237 391 924
f 560 319 921
f 246 888 252
f 431 471 282
f 455 560 391
f 319 560 241
f 50 238 793
f 50 566 52
f 52 574 55
f 258 263 510
f 244 52 249
f 55 253 2
f 284 792 657
f 303 670 667
f 303 100 674
f 250 249 55
f 273 274 252
f 251 253 574
f 100 303 301
f 301 570 100
f 104 261 257
f 677 100 678
f 273 285 274
f 257 2 253
f 2 257 265
f 250 2 259
f 570 568 40
f 752 292 293
f 294 296 285
f 285 296 274
f 684 497 679
f 277 274 296
f 440 447 442
f 579 489 463
f 692 329 695
f 259 262 267
f 871 736 360
f 262 271 9
f 40 100 570
f 570 567 568
f 203 128 270
f 310 296 294
f 305 296 310
f 87 270 194
f 9 5 262
f 5 272 600
f 276 9 271
f 9 276 11
f 272 11 278
f 302 323 310
f 568 103 40
f 108 615 89
f 280 11 276
f 11 280 12
f 103 568 540
f 278 12 425
f 323 337 328
f 283 12 280
f 12 283 13
f 283 297 289
f 289 13 283
f 540 561 231
f 425 13 424
f 209 288 205
f 291 125 286
f 346 337 323
f 49 304 288
f 173 350 351
f 297 654 314
f 347 158 864
f 304 47 311
f 47 304 49
f 47 46 481
f 360 361 855
f 501 684 146
f 481 311 47
f 46 39 481
f 343 695 329
f 314 289 297
f 289 314 160
f 481 321 308
f 481 39 321
f 325 122 321
f 325 321 37
f 37 321 39
f 333 160 314
f 324 266 333
f 527 107 231
f 84 121 325
f 36 327 498
f 160 333 34
f 327 120 84
f 36 82 371
f 277 393 390
f 689 34 333
f 34 689 340
f 313 34 331
f 266 334 689
f 334 260 341
f 340 335 331
f 107 527 110
f 54 404 405
f 696 14 344
f 61 401 44
f 38 299 407
f 358 14 348
f 14 358 16
f 344 14 352
f 356 704 712
f 352 16 368
f 413 62 417
f 370 16 358
f 16 370 18
f 175 705 134
f 713 115 110
f 371 27 378
f 27 371 82
f 381 18 370
f 18 381 19
f 368 18 375
f 80 378 27
f 19 381 235
f 19 395 23
f 19 23 178
f 202 506 913
f 23 395 24
f 386 24 396
f 398 24 395
f 24 398 26
f 26 398 220
f 26 412 399
f 396 26 399
f 418 399 412
f 164 180 444
f 444 443 164
f 175 173 705
f 685 84 120
f 422 300 415
f 685 121 84
f 172 169 300
f 172 300 422
f 78 80 27
f 226 365 78
f 89 615 114
f 240 485 309
f 134 737 175
f 226 27 82
f 245 459 452
f 187 186 140
f 243 459 245
f 189 187 130
f 581 466 579
f 467 472 637
f 308 122 240
f 138 579 466
f 430 255 463
f 499 435 430
f 453 430 435
f 435 440 439
f 435 499 450
f 243 479 281
f 308 321 122
f 897 438 584
f 439 453 435
f 243 281 893
f 450 440 435
f 480 859 865
f 440 449 447
f 442 439 440
f 450 449 440
f 447 449 454
f 492 488 493
f 127 458 456
f 449 456 28
f 82 225 708
f 454 28 462
f 28 456 30
f 456 450 127
f 30 456 458
f 225 82 36
f 30 464 460
f 506 507 502
f 126 469 125
f 287 508 509
f 207 507 506
f 410 460 32
f 126 306 477
f 460 464 644
f 644 32 460
f 32 644 63
f 475 31 576
f 470 406 32
f 64 63 644
f 306 309 477
f 125 464 458
f 528 795 511
f 516 523 524
f 655 206 63
f 206 655 484
f 206 474 470
f 162 679 497
f 316 322 822
f 313 160 34
f 37 498 325
f 523 316 534
f 497 684 501
f 501 146 505
f 146 512 503
f 505 503 513
f 263 515 510
f 512 120 115
f 503 512 91
f 517 513 503
f 115 713 91
f 458 203 125
f 315 547 548
f 91 512 115
f 547 330 336
f 91 713 88
f 517 88 522
f 552 548 547
f 532 88 713
f 88 532 519
f 552 336 553
f 522 519 541
f 527 231 561
f 127 128 458
f 538 660 692
f 514 36 498
f 224 498 37
f 538 692 695
f 114 626 631
f 553 342 105
f 219 37 39
f 555 660 561
f 127 450 499
f 891 199 824
f 660 555 661
f 218 39 46
f 199 97 886
f 366 98 284
f 22 21 98
f 41 366 581
f 43 232 22
f 907 232 43
f 96 536 907
f 45 463 255
f 45 581 463
f 255 94 96
f 255 96 45
f 94 453 545
f 448 546 545
f 582 593 594
f 595 584 438
f 216 46 47
f 216 47 49
f 551 640 558
f 558 640 569
f 49 288 209
f 793 565 50
f 569 53 558
f 566 50 565
f 209 210 49
f 841 351 350
f 574 52 566
f 578 53 57
f 612 609 423
f 53 578 563
f 575 53 569
f 597 432 211
f 253 55 574
f 57 575 597
f 578 57 592
f 592 583 578
f 627 609 612
f 584 621 628
f 603 589 606
f 602 589 597
f 634 819 627
f 610 606 602
f 835 318 229
f 626 606 58
f 610 624 58
f 58 624 630
f 632 58 630
f 634 884 869
f 58 632 626
f 60 642 632
f 642 60 649
f 60 630 181
f 650 649 643
f 662 652 645
f 656 628 621
f 621 636 656
f 658 659 204
f 64 644 469
f 466 495 138
f 694 377 700
f 468 471 431
f 663 650 65
f 628 656 668
f 679 162 484
f 65 686 663
f 672 673 659
f 686 65 66
f 683 65 651
f 468 431 478
f 683 693 67
f 685 146 684
f 146 685 512
f 696 340 689
f 66 67 701
f 473 495 478
f 66 698 686
f 702 67 693
f 668 675 687
f 701 698 66
f 405 690 54
f 701 67 70
f 54 690 564
f 14 696 348
f 711 70 710
f 699 70 711
f 702 709 710
f 229 318 236
f 657 282 471
f 710 709 742
f 753 756 740
f 756 753 72
f 742 754 72
f 72 754 768
f 72 765 756
f 766 765 770
f 490 193 496
f 130 772 496
f 770 776 766
f 15 719 168
f 87 201 148
f 183 770 768
f 201 194 136
f 422 705 172
f 633 777 338
f 777 633 150
f 408 74 633
f 638 185 408
f 106 730 258
f 688 379 694
f 275 631 118
f 185 692 145
f 197 750 749
f 736 737 738
f 263 258 730
f 738 741 743
f 185 145 143
f 743 741 744
f 744 741 74
f 744 467 879
f 132 140 145
f 123 132 661
f 741 738 150
f 123 540 567
f 773 772 567
f 738 134 150
f 78 27 226
f 238 623 1
f 264 279 779
f 776 150 134
f 134 705 420
f 695 541 538
f 104 599 261
f 365 681 680
f 761 762 763
f 365 678 76
f 76 78 365
f 411 156 420
f 156 411 220
f 541 519 538
f 220 764 156
f 76 233 78
f 80 78 233
f 168 789 387
f 70 699 701
f 398 395 228
f 434 437 445
f 779 780 887
f 428 432 434
f 926 317 706
f 197 749 745
f 213 6 4
f 279 785 780
f 419 427 428
f 148 201 745
f 454 462 419
f 526 782 783
f 381 734 235
f 410 414 419
f 493 769 913
f 511 4 215
f 4 511 213
f 406 414 410
f 208 731 729
f 21 511 215
f 210 728 727
f 794 800 823
f 511 21 529
f 470 474 179
f 724 218 46
f 227 110 115
f 118 280 275
f 219 218 722
f 806 800 794
f 803 804 256
f 716 778 225
f 224 219 720
f 407 86 690
f 356 734 381
f 389 497 380
f 809 795 528
f 810 806 811
f 717 716 514
f 497 501 380
f 317 697 429
f 810 818 821
f 913 771 202
f 341 698 699
f 373 376 159
f 369 177 373
f 341 260 698
f 260 334 266
f 365 226 681
f 517 522 354
f 828 821 818
f 354 362 364
f 569 640 446
f 519 522 88
f 767 828 818
f 266 324 676
f 602 597 211
f 804 834 256
f 121 240 122
f 345 868 918
f 610 602 211
f 169 839 166
f 427 195 211
f 643 179 174
f 683 651 165
f 693 683 171
f 627 884 634
f 324 654 676
f 846 397 841
f 841 397 374
f 362 709 369
f 580 397 846
f 192 188 190
f 192 499 489
f 128 192 190
f 270 205 203
f 205 288 286
f 291 306 126
f 208 148 733
f 288 304 291
f 304 311 306
f 311 481 308
f 286 125 203
f 283 118 297
f 589 599 592
f 283 280 118
f 227 115 120
f 747 805 732
f 707 226 82
f 107 378 80
f 275 114 631
f 118 646 297
f 89 114 275
f 231 233 103
f 87 209 205
f 816 872 870
f 271 108 89
f 248 560 455
f 248 241 560
f 108 271 265
f 566 565 241
f 86 876 690
f 622 244 619
f 517 91 88
f 574 566 248
f 715 662 889
f 244 249 618
f 249 250 614
f 882 465 718
f 253 251 257
f 774 465 882
f 250 259 608
f 883 494 774
f 921 391 560
f 259 267 604
f 54 564 847
f 251 577 583
f 600 267 5
f 89 276 271
f 503 91 517
f 690 405 407
f 275 276 89
f 892 573 582
f 272 278 596
f 248 577 574
f 280 276 275
f 425 588 591
f 425 424 781
f 781 313 572
f 424 313 781
f 572 585 781
f 314 654 324
f 136 197 201
f 313 557 572
f 237 551 558
f 554 331 335
f 334 341 348
f 760 136 138
f 335 344 549
f 341 699 704
f 348 696 334
f 921 319 7
f 358 348 704
f 344 352 544
f 912 582 594
f 903 586 551
f 352 368 543
f 381 370 356
f 368 375 539
f 788 8 3
f 535 375 178
f 221 795 809
f 828 767 562
f 559 833 920
f 921 920 899
f 546 448 898
f 903 922 836
f 38 903 299
f 235 228 395
f 405 669 407
f 546 92 94
f 400 518 520
f 92 546 904
f 639 35 926
f 386 396 525
f 927 926 33
f 928 605 930
f 200 490 298
f 94 545 546
f 96 92 536
f 927 56 852
f 143 472 408
f 220 412 26
f 400 520 521
f 412 220 411
f 109 113 152
f 920 832 559
f 418 412 411
f 152 113 746
f 387 789 786
f 420 418 411
f 746 161 867
f 418 420 422
f 490 773 298
f 496 772 773
f 394 442 445
f 562 767 832
f 739 636 820
f 204 725 658
f 773 490 496
f 725 223 635
f 447 454 428
f 472 186 637
f 215 284 98
f 189 130 496
f 458 464 30
f 410 462 460
f 125 469 464
f 635 247 487
f 487 269 629
f 641 487 629
f 268 269 487
f 269 393 629
f 390 269 268
f 469 126 64
f 349 761 763
f 655 64 477
f 303 674 670
f 290 393 277
f 611 290 928
f 163 474 483
f 928 307 605
f 635 641 648
f 531 605 533
f 677 674 100
f 477 309 485
f 506 202 207
f 679 485 240
f 240 121 684
f 312 912 594
f 684 679 240
f 121 685 684
f 186 187 345
f 503 505 146
f 912 332 892
f 772 130 132
f 685 120 512
f 501 505 159
f 725 648 658
f 505 513 373
f 513 517 364
f 892 847 564
f 110 527 713
f 714 847 339
f 522 541 154
f 51 714 346
f 231 103 540
f 714 51 404
f 541 695 343
f 567 772 123
f 502 500 506
f 578 577 563
f 867 659 673
f 577 578 583
f 597 575 432
f 592 104 583
f 913 492 493
f 845 167 839
f 599 104 592
f 386 178 23
f 599 603 615
f 110 227 378
f 615 261 599
f 706 402 639
f 603 626 114
f 132 123 772
f 624 610 195
f 409 706 317
f 746 673 682
f 114 615 603
f 120 327 227
f 624 414 403
f 691 429 697
f 642 631 632
f 642 118 631
f 429 433 853
f 646 118 642
f 642 649 646
f 152 682 691
f 682 433 691
f 181 643 60
f 654 297 646
f 122 325 121
f 140 130 187
f 421 416 617
f 123 661 555
f 309 308 240
f 698 260 686
f 702 693 177
f 698 701 699
f 672 441 436
f 291 126 125
f 109 691 697
f 143 140 186
f 874 872 816
f 665 441 672
f 188 192 489
f 665 658 653
f 712 704 699
f 653 451 665
f 927 697 317
f 712 740 734
f 648 461 653
f 178 375 19
f 923 880 116
f 641 461 648
f 740 756 748
f 748 758 228
f 926 706 639
f 479 641 482
f 754 742 362
f 354 754 362
f 407 669 38
f 203 458 128
f 482 629 620
f 756 765 758
f 182 754 154
f 128 127 192
f 254 246 252
f 611 382 620
f 764 398 228
f 499 192 127
f 764 766 156
f 766 776 156
f 930 611 928
f 420 156 776
f 140 132 130
f 788 7 8
f 387 166 168
f 420 776 134
f 136 760 197
f 300 387 415
f 750 197 760
f 745 201 197
f 148 208 209
f 733 148 745
f 258 35 106
f 593 533 605
f 731 208 733
f 236 318 910
f 729 210 208
f 728 210 729
f 727 216 210
f 188 489 579
f 929 573 556
f 724 216 727
f 573 929 582
f 723 218 724
f 722 218 723
f 720 219 722
f 717 224 720
f 514 224 717
f 188 579 138
f 876 556 573
f 707 681 226
f 898 904 546
f 472 143 186
f 212 795 221
f 899 391 921
f 854 925 931
f 213 795 212
f 140 143 145
f 404 54 714
f 833 922 924
f 415 387 786
f 143 408 185
f 238 3 793
f 1 3 238
f 31 799 752
f 622 238 244
f 918 799 515
f 380 376 171
f 915 752 357
f 617 476 421
f 619 244 618
f 618 249 616
f 616 249 614
f 636 739 613
f 388 613 10
f 614 250 608
f 357 791 915
f 383 688 388
f 608 259 607
f 571 438 576
f 295 667 666
f 92 96 94
f 607 259 604
f 372 726 700
f 667 295 303
f 367 726 372
f 604 267 601
f 298 295 207
f 923 875 880
f 363 732 367
f 408 467 74
f 148 209 87
f 298 301 295
f 359 747 363
f 601 267 600
f 359 355 755
f 600 272 598
f 598 272 596
f 353 755 355
f 301 298 773
f 596 278 591
f 747 755 751
f 591 278 425
f 588 425 781
f 388 688 813
f 769 771 913
f 763 353 349
f 202 771 200
f 506 500 913
f 74 467 744
f 773 570 301
f 82 708 707
f 320 647 326
f 500 492 913
f 331 554 557
f 242 910 320
f 344 335 340
f 910 908 647
f 554 335 550
f 239 222 703
f 549 550 335
f 549 344 544
f 166 167 168
f 544 352 543
f 543 368 542
f 17 15 167
f 17 845 157
f 907 536 919
f 157 850 155
f 155 850 153
f 542 368 539
f 150 633 74
f 153 854 151
f 151 854 149
f 149 858 147
f 147 862 144
f 539 375 535
f 759 903 38
f 530 535 178
f 144 862 141
f 141 866 139
f 139 866 137
f 530 386 525
f 137 870 135
f 525 396 521
f 135 870 872
f 133 872 131
f 131 874 129
f 129 923 117
f 923 874 875
f 170 119 902
f 521 396 400
f 20 932 101
f 99 101 932
f 99 886 97
f 95 97 199
f 95 891 93
f 93 896 90
f 518 400 786
f 90 896 85
f 85 901 83
f 83 905 81
f 169 166 300
f 81 905 79
f 77 79 796
f 77 909 75
f 439 394 545
f 75 914 73
f 73 914 71
f 71 916 69
f 442 394 439
f 468 466 366
f 442 447 434
f 7 562 920
f 794 534 811
f 924 899 833
f 434 447 428
f 428 454 419
f 419 462 410
f 38 898 759
f 902 111 897
f 466 468 495
f 526 524 534
f 25 59 56
f 96 43 45
f 895 401 61
f 182 343 338
f 483 389 163
f 483 162 389
f 897 59 25
f 883 894 775
f 776 777 150
f 59 897 111
f 380 384 389
f 774 882 893
f 111 902 119
f 778 708 225
f 501 159 380
f 167 166 839
f 159 505 373
f 176 191 867
f 373 513 369
f 364 369 513
f 850 890 925
f 354 364 517
f 354 522 154
f 177 369 709
f 154 541 343
f 446 445 437
f 376 380 159
f 204 223 725
f 217 198 214
f 214 703 222
f 437 569 446
f 610 211 195
f 414 624 195
f 403 630 624
f 889 718 715
f 160 313 424
f 181 630 403
f 888 246 239
f 179 643 181
f 174 650 643
f 651 650 174
f 163 384 165
f 487 247 268
f 165 651 163
f 171 683 165
f 174 474 163
f 557 313 331
f 475 515 799
f 376 693 171
f 285 273 757
f 177 693 376
f 627 885 884
f 174 179 474
f 509 508 516
f 294 302 310
f 709 702 177
f 709 362 742
f 154 754 354
f 182 338 183
f 780 785 803
f 183 768 182
f 423 413 881
f 183 338 777
f 638 338 343
f 633 638 408
f 590 401 895
f 692 185 329
f 190 188 194
f 515 475 25
f 270 190 194
f 190 270 128
f 195 427 414
f 7 788 562
f 915 878 571
f 877 595 438
f 203 205 286
f 44 48 61
f 474 206 483
f 210 209 208
f 61 62 895
f 413 895 62
f 211 432 427
f 172 42 169
f 398 764 220
f 515 263 918
f 437 575 569
f 228 758 764
f 124 885 426
f 175 871 350
f 84 498 327
f 225 514 716
f 327 371 227
f 918 263 730
f 898 448 759
f 371 327 36
f 839 374 890
f 227 371 378
f 451 441 665
f 228 235 748
f 444 180 457
f 233 231 107
f 187 868 345
f 759 448 586
f 189 292 868
f 734 748 235
f 653 461 826
f 924 922 237
f 292 193 196
f 446 671 394
f 461 641 479
f 922 551 237
f 391 237 455
f 482 641 629
f 918 868 799
f 196 200 293
f 771 293 200
f 558 455 237
f 281 287 894
f 894 893 281
f 248 566 241
f 257 251 104
f 255 430 453
f 257 261 265
f 509 775 287
f 260 266 676
f 509 516 524
f 265 261 108
f 523 516 531
f 322 316 523
f 273 252 888
f 265 271 262
f 811 534 316
f 316 315 811
f 676 686 260
f 366 466 581
f 478 495 468
f 330 547 315
f 547 336 552
f 366 471 468
f 760 495 473
f 657 471 284
f 336 342 553
f 553 900 552
f 832 900 553
f 865 878 791
f 792 284 4
f 31 571 576
f 286 288 291
f 438 571 877
f 906 864 863
f 4 790 792
f 8 7 319
f 303 295 301
f 291 304 306
f 570 773 567
f 739 617 392
f 617 416 392
f 306 311 309
f 309 311 308
f 170 628 668
f 613 739 10
f 739 392 10
f 656 675 668
f 656 815 675
f 680 678 365
f 813 613 388
f 324 333 314
f 687 198 668
f 379 688 383
f 295 666 207
f 815 656 636
f 377 694 379
f 325 498 84
f 689 333 266
f 334 696 689
f 700 377 372
f 861 834 860
f 703 721 239
f 732 726 367
f 834 861 256
f 348 341 704
f 747 732 363
f 356 358 704
f 735 888 721
f 370 358 356
f 735 264 757
f 735 273 888
f 755 747 359
f 369 364 362
f 353 763 755
f 647 761 326
f 761 349 326
f 376 373 177
f 779 757 264
f 780 779 279
f 384 380 171
f 235 395 19
f 736 871 737
f 562 788 917
f 910 647 320
f 785 804 803
f 414 406 403
f 256 323 803
f 813 675 815
f 415 786 400
f 427 419 414
f 422 420 705
f 432 428 427
f 430 489 499
f 587 580 590
f 437 434 432
f 445 442 434
f 446 394 445
f 671 586 448
f 819 609 627
f 456 449 450
f 455 563 248
f 865 791 769
f 581 579 463
f 645 652 817
f 644 464 469
f 652 662 715
f 874 923 129
f 715 664 652
f 694 812 688
f 477 64 126
f 750 760 473
f 485 655 477
f 465 715 718
f 507 207 666
f 465 774 494
f 865 486 480
f 812 675 813
f 485 484 655
f 207 202 298
f 883 504 825
f 493 865 769
f 783 782 504
f 679 484 485
f 202 200 298
f 196 490 200
f 196 193 490
f 877 859 476
f 302 803 323
f 189 496 193
f 814 806 810
f 168 719 789
f 821 814 810
f 391 899 924
f 713 527 532
f 467 408 472
f 302 294 887
f 786 787 518
f 538 519 532
f 561 532 527
f 926 35 33
f 538 532 660
f 540 555 561
f 551 586 640
f 319 241 565
f 660 532 561
f 113 161 746
f 161 176 867
f 8 319 565
f 223 247 635
f 781 585 784
f 620 629 393
f 887 780 302
f 269 390 393
f 671 640 586
f 781 784 588
f 599 589 603
f 393 290 611
f 626 603 606
f 928 290 305
f 623 238 622
f 625 1 623
f 774 893 894
f 312 332 912
f 626 632 631
f 332 339 847
f 847 892 332
f 757 887 285
f 847 714 54
f 793 3 8
f 732 807 726
f 858 931 857
f 675 812 687
f 168 167 15
f 273 735 757
f 920 921 7
f 402 385 639
f 167 845 17
f 638 633 338
f 646 649 663
f 650 663 649
f 845 850 157
f 888 239 721
f 663 654 646
f 706 409 48
f 850 854 153
f 676 654 663
f 429 409 317
f 661 692 660
f 854 858 149
f 676 663 686
f 858 862 147
f 433 429 691
f 678 680 677
f 699 711 712
f 712 734 356
f 711 710 753
f 862 866 141
f 712 711 740
f 682 436 827
f 734 740 748
f 866 870 137
f 214 687 808
f 748 756 758
f 664 816 652
f 872 133 135
f 198 687 214
f 754 182 768
f 872 874 131
f 665 659 658
f 758 765 766
f 658 648 653
f 766 764 758
f 776 770 777
f 668 198 170
f 117 923 116
f 787 786 789
f 929 330 822
f 533 822 322
f 556 336 330
f 531 322 523
f 899 920 833
f 662 444 889
f 346 323 256
f 491 482 620
f 116 880 911
f 911 20 116
f 382 491 620
f 911 932 20
f 932 886 99
f 645 443 662
f 930 382 611
f 382 930 516
f 886 824 199
f 605 531 930
f 491 508 848
f 628 170 902
f 256 347 346
f 482 848 479
f 891 896 93
f 347 256 861
f 820 617 739
f 866 819 817
f 605 594 593
f 896 901 85
f 929 593 582
f 612 881 885
f 901 905 83
f 826 451 653
f 451 457 180
f 672 659 665
f 441 180 851
f 79 905 796
f 436 673 672
f 436 851 827
f 909 914 75
f 682 673 436
f 914 916 71
f 584 902 897
f 876 86 342
f 69 916 1
f 829 433 827
f 700 808 694
f 788 3 916
f 853 829 417
f 409 61 48
f 402 48 855
f 870 817 816
f 855 29 360
f 874 816 664
f 385 361 102
f 830 880 875
f 576 897 25
f 819 634 817
f 68 69 1
f 106 856 730
f 743 736 738
f 910 242 236
f 862 857 819
f 744 879 102
f 880 830 831
f 840 528 843
f 401 846 44
f 803 302 780
f 769 791 357
f 878 915 791
f 831 911 880
f 918 873 345
f 576 25 475
f 799 31 475
f 841 29 846
f 879 856 102
f 106 639 385
f 573 564 876
f 911 831 802
f 342 556 876
f 337 339 332
f 25 510 515
f 350 29 841
f 564 573 892
f 892 582 912
f 510 25 56
f 864 906 837
f 312 328 337
f 929 822 593
f 33 35 258
f 871 360 29
f 840 860 835
f 864 158 863
f 29 855 44
f 916 914 917
f 808 687 812
f 594 307 312
f 307 305 328
f 916 917 788
f 33 56 927
f 840 835 809
f 307 594 605
f 736 743 361
f 531 516 930
f 290 277 305
f 852 109 927
f 318 835 860
f 21 844 529
f 852 59 112
f 620 393 611
f 102 743 744
f 112 113 852
f 751 763 762
f 647 785 762
f 805 747 751
f 252 268 254
f 230 835 229
f 487 641 635
f 637 879 467
f 124 851 164
f 809 230 221
f 161 142 176
f 807 732 805
f 247 234 254
f 230 809 835
f 808 700 807
f 345 637 186
f 176 184 191
f 812 694 808
f 204 849 223
f 849 204 191
f 813 688 812
f 635 648 725
f 849 184 198
f 815 613 813
f 815 636 613
f 217 223 849
f 659 191 204
f 217 234 223
f 191 184 849
f 859 480 421
f 795 213 511
f 245 461 243
f 878 865 859
f 802 886 932
f 191 659 867
f 452 718 889
f 223 234 247
f 176 142 184
f 246 254 234
f 865 493 486
f 293 771 357
f 268 247 254
f 771 769 357
f 805 264 735
f 268 252 390
f 161 113 112
f 486 493 488
f 390 252 274
f 867 673 746
f 264 751 279
f 274 277 390
f 746 682 152
f 281 848 287
f 827 433 682
f 808 703 214
f 152 691 109
f 109 852 113
f 476 859 421
f 296 305 277
f 476 595 877
f 305 307 928
f 196 293 292
f 595 476 820
f 726 807 700
f 752 293 357
f 307 328 312
f 310 328 305
f 56 59 852
f 292 752 799
f 328 310 323
f 886 825 824
f 312 337 332
f 807 703 808
f 891 824 782
f 193 292 189
f 844 21 22
f 429 853 409
f 109 697 927
f 56 33 510
f 105 559 553
f 339 337 346
f 346 714 339
f 51 346 347
f 317 926 927
f 564 690 876
f 863 844 232
f 799 868 292
f 510 33 258
f 843 528 529
f 844 863 842
f 861 840 843
f 861 158 347
f 861 860 840
f 752 915 31
f 158 843 842
f 843 158 861
f 842 529 844
f 919 837 906
f 906 232 907
f 809 528 840
f 730 873 918
f 730 856 873
f 873 856 879
f 856 106 385
f 817 634 645
f 837 919 838
f 817 652 816
f 919 906 907
f 919 536 537
f 743 102 361
f 904 669 838
f 898 669 904
f 669 898 38
f 703 807 721
f 405 404 838
f 669 405 838
f 922 833 836
f 294 285 887
f 361 385 402
f 869 645 634
f 830 875 664
f 916 3 1
f 864 51 347
f 402 855 361
f 909 801 914
f 397 890 374
f 48 44 855
f 796 909 77
f 879 637 873
f 901 798 905
f 580 925 397
f 48 402 706
f 896 800 901
f 891 823 896
f 409 62 61
f 853 62 409
f 881 413 417
f 417 62 853
f 86 407 299
f 459 893 882
f 199 891 95
f 830 465 831
f 829 426 417
f 426 829 124
f 426 881 417
f 124 829 827
f 433 829 853
f 886 802 825
f 774 894 883
f 851 124 827
f 164 884 124
f 441 851 436
f 180 164 851
f 443 869 164
f 911 802 932
f 715 830 664
f 874 664 875
f 736 361 360
f 451 180 441
f 457 452 889
f 889 444 457
f 866 817 870
f 106 35 639
f 459 718 452
f 826 452 457
f 452 826 245
f 451 826 457
f 862 819 866
f 858 857 862
f 461 245 826
f 459 882 718
f 479 243 461
f 854 931 858
f 850 925 854
f 846 401 580
f 845 890 850
f 491 848 482
f 848 281 479
f 825 494 883
f 382 508 491
f 900 832 767
f 508 287 848
f 896 823 800
f 839 890 845
f 504 782 824
f 42 374 839
f 516 508 382
f 908 910 318
f 534 524 523
f 552 818 548
f 42 172 173
f 901 800 798
f 818 552 900
f 533 322 531
f 871 175 737
f 868 187 189
f 22 232 844
f 593 822 533
f 822 315 316
f 929 556 330
f 330 315 822
f 838 919 537
f 904 838 537
f 318 860 834
f 908 318 834
f 465 830 715
f 556 342 336
f 105 836 559
f 833 559 836
f 29 44 846
f 908 834 804
f 562 917 828
f 299 836 105
f 818 900 767
f 832 553 559
f 562 832 920
f 811 315 548
f 828 801 821
f 801 828 917
f 821 797 814
f 836 299 903
f 401 590 580
f 797 821 801
f 905 798 796
f 796 814 797
f 810 548 818
f 814 798 806
f 798 814 796
f 909 796 797
f 811 548 810
f 413 587 590
f 404 51 837
f 51 864 837
f 837 838 404
f 909 797 801
f 529 842 843
f 158 842 863
f 232 906 863
f 800 806 798
f 529 528 511
f 794 811 806
f 785 908 804
f 785 647 908
f 859 877 878
f 526 534 794
f 877 571 878
f 571 31 915
f 173 351 42
f 524 783 509
f 350 173 175
f 29 350 871
f 823 526 794
f 783 524 526
f 526 823 782
f 42 351 374
f 841 374 351
f 504 775 783
f 509 783 775
f 782 823 891
f 885 124 884
f 887 757 779
f 914 801 917
f 426 885 881
f 890 397 925
f 825 504 824
f 775 504 883
f 925 587 931
f 587 925 580
f 802 494 825
f 785 279 762
f 494 831 465
f 831 494 802
f 894 287 775
f 590 895 413
f 438 897 576
f 884 164 869
f 762 279 751
f 423 931 587
f 587 413 423
f 931 423 857
f 762 761 647
f 617 820 476
f 595 820 621
f 751 755 763
f 893 459 243
f 751 264 805
f 609 857 423
f 423 881 612
f 662 443 444
f 721 805 735
f 621 584 595
f 857 609 819
f 443 645 869
f 612 885 627
f 636 621 820
f 628 902 584
f 805 721 807
