# avbd fit, rung f600-i32-s300 of Gate 6d (body space, fit phase only)
v -0.007994732 0.696283937 0.008519745
v -0.100758471 0.710053086 0.070612520
v -0.007986001 0.710156977 0.010521398
v 0.001989444 0.945450962 0.070534423
v -0.151413560 0.695536971 0.068037689
v 0.000530798 0.965588450 0.070999160
v -0.008118899 0.736837983 0.016046021
v -0.007809137 0.723538637 0.013438761
v -0.152101487 0.710903287 0.068392217
v 0.150377154 0.953066349 -0.081475385
v -0.171601623 0.707143903 0.060699664
v -0.192582756 0.708939195 0.047092665
v -0.200809747 0.709938288 0.030082902
v -0.177424476 0.705236316 -0.074583888
v 0.009458898 0.688671052 -0.053439237
v -0.158799574 0.702041447 -0.083622694
v 0.025224965 0.687587142 -0.056790214
v -0.141310126 0.702688217 -0.091982894
v -0.124336898 0.706858158 -0.100817978
v 0.202289850 0.672801018 0.017757056
v 0.001075739 0.917786598 0.069382437
v 0.000728161 0.903497338 0.068575740
v -0.104102090 0.702582717 -0.102613732
v -0.089837246 0.709052682 -0.098896064
v 0.101693228 0.858708680 -0.140490741
v -0.075215012 0.717494369 -0.095443286
v -0.135099202 0.926687837 -0.117392980
v -0.122171961 0.855459034 0.061003119
v 0.036176737 0.765668035 -0.089652643
v -0.134241909 0.863997102 0.054839902
v 0.073359922 0.887317479 -0.148616850
v -0.172133327 0.848013282 0.042800516
v 0.091483437 0.823248982 -0.123838797
v -0.207821637 0.704644799 -0.025561273
v 0.074443102 0.818594158 -0.118141212
v -0.157766625 0.929288507 -0.088493198
v -0.170237988 0.925418019 -0.047070481
v 0.013410692 0.818851471 0.032262437
v -0.169615835 0.928678632 -0.026863068
v -0.079805411 0.925102830 -0.141225666
v -0.023810301 0.906247437 0.067722067
v 0.010740435 0.734063625 -0.070232652
v -0.015034447 0.889429212 0.066415533
v 0.059801679 0.767540514 -0.099261805
v -0.033678390 0.890366197 0.065602109
v -0.162930787 0.933539033 -0.008214506
v -0.159384653 0.920245528 0.000879274
v 0.070986293 0.784128547 -0.103634752
v -0.148155183 0.923031151 0.016279526
v -0.040391095 0.711544275 0.030552626
v 0.052831821 0.867767692 0.060204975
v -0.052605845 0.709961593 0.050464224
v -0.068135224 0.780511260 0.061712466
v 0.054194909 0.837681293 0.048484806
v -0.074835844 0.709093750 0.060321629
v 0.109299913 0.835900009 -0.127236024
v -0.091102093 0.777796805 0.070948854
v -0.162345737 0.786661804 0.067203164
v 0.124895729 0.852559268 -0.126656175
v -0.194264576 0.785176992 0.040400580
v 0.081347018 0.768987834 -0.105466709
v 0.102126792 0.765021324 -0.110603631
v -0.180547029 0.855817139 0.025594141
v -0.173339099 0.871152520 0.022579931
v -0.209012657 0.782637298 -0.025551880
v -0.202356905 0.776451826 -0.051642649
v -0.192275524 0.785773933 -0.068018951
v -0.002212169 0.684530497 0.001227199
v 0.012679922 0.685414910 0.005872472
v -0.180547550 0.774316847 -0.085083850
v 0.027813509 0.684598565 0.012058650
v -0.123634420 0.782637775 -0.114365116
v 0.039736390 0.682762265 0.022772284
v -0.023658805 0.815066636 -0.097060695
v 0.048183374 0.680544734 0.036159009
v -0.099898577 0.927403569 -0.135644585
v 0.057761472 0.678746700 0.050495613
v -0.117726430 0.928918183 -0.128216296
v 0.073578417 0.678027987 0.057394944
v -0.125839740 0.915936351 -0.128772587
v 0.088319674 0.677299082 0.063339278
v -0.142783001 0.939909160 -0.104636155
v 0.102874830 0.676538944 0.069234021
v -0.170141518 0.899017215 -0.074102238
v 0.116959140 0.675711691 0.074930660
v 0.038714632 0.805534542 0.046200745
v -0.120344460 0.923269629 0.042322073
v -0.130028248 0.852192998 -0.122243844
v -0.152072951 0.736626625 0.070720613
v 0.134491459 0.675071836 0.073345885
v -0.148794264 0.859700799 -0.112450540
v -0.015781781 0.853702366 0.058392595
v 0.148424700 0.675269306 0.067588285
v -0.034290880 0.856677234 0.057762116
v 0.162535831 0.675078750 0.061751865
v -0.021228170 0.871698022 0.064059734
v 0.176395714 0.674506724 0.055967342
v -0.014313167 0.921851456 0.069059066
v 0.189422876 0.673838139 0.044156671
v -0.066268615 0.937866092 -0.136699647
v 0.195717320 0.673573315 0.030787989
v 0.025017262 0.815061212 -0.098154776
v -0.093252137 0.911331952 -0.144228876
v -0.099867299 0.745770335 0.072759822
v 0.033370603 0.788768589 0.038697265
v 0.056583136 0.819433093 -0.117214099
v -0.123605810 0.899713814 -0.133509904
v -0.134282023 0.733371735 0.076782100
v 0.131085187 0.821161270 -0.112060130
v -0.138716623 0.889750004 -0.124254368
v 0.140271232 0.862977028 -0.120721027
v 0.143958896 0.848847091 -0.108585931
v 0.144773901 0.832095802 -0.105545796
v -0.157292396 0.752835453 0.068943828
v -0.152348399 0.880715668 -0.111694321
v 0.203493476 0.672082067 0.001689888
v 0.203532726 0.671333253 -0.012070036
v -0.195682317 0.744651854 0.044906054
v 0.155873239 0.863667488 -0.106667303
v -0.164061829 0.890624523 -0.092243977
v -0.175020382 0.889979720 -0.056409955
v -0.172502965 0.897242546 -0.040379517
v -0.059096672 0.879704177 -0.148479447
v 0.159745678 0.759075999 -0.093926884
v -0.147341698 0.888487160 0.037347354
v -0.163989678 0.885568917 0.021715464
v -0.103070177 0.877963245 0.049680088
v -0.111923039 0.891660690 0.047336459
v 0.203591317 0.670797050 -0.026711185
v -0.022151817 0.870164990 -0.138591856
v 0.195951283 0.670406878 -0.041754454
v -0.042016368 0.865557790 -0.143551797
v 0.187059239 0.670208037 -0.054209501
v -0.030666724 0.774793267 -0.083497152
v 0.177917123 0.669702530 -0.066189602
v -0.092334062 0.928616345 0.055592231
v 0.163308114 0.669734299 -0.074492857
v -0.074754290 0.924575806 0.061927844
v 0.149451837 0.669801891 -0.080572285
v -0.023172233 0.854264736 -0.134929359
v 0.135597154 0.669679761 -0.086623594
v 0.163022026 0.857405961 -0.094901606
v -0.024835903 0.839167774 -0.126292229
v 0.122689888 0.670210361 -0.092354186
v -0.044249952 0.848221004 -0.139529109
v -0.175082564 0.863183618 -0.079348788
v 0.104945935 0.670894504 -0.095719315
v -0.122025728 0.939921677 0.044105206
v 0.091275379 0.673395216 -0.090765931
v -0.034892235 0.796133161 -0.089130558
v 0.077182129 0.675886929 -0.085826844
v 0.147284180 0.815865338 -0.105230413
v 0.063089252 0.678227782 -0.080810659
v -0.108259633 0.820724785 -0.113150120
v 0.049020741 0.680491984 -0.075781509
v -0.065633543 0.754193842 -0.099179707
v 0.036317632 0.684412181 -0.064847805
v 0.044124950 0.897775531 0.065562122
v -0.186105162 0.836405098 -0.073143095
v -0.208336949 0.711221099 -0.004656685
v 0.160966784 0.839912891 -0.097888537
v -0.195719853 0.852851987 -0.025649995
v -0.203670338 0.822708726 -0.015550740
v 0.181306541 0.753250539 -0.079195902
v -0.204611927 0.811480820 -0.034204520
v -0.009191392 0.713414431 -0.062690429
v 0.013644029 0.703274906 -0.059767716
v -0.009011593 0.700921953 -0.057654612
v -0.008849757 0.725828290 -0.067624435
v 0.166836232 0.877360225 -0.089851029
v -0.199215338 0.814952195 -0.054576438
v -0.008854888 0.738844514 -0.070804790
v -0.008942701 0.751916051 -0.074639164
v -0.207584098 0.810944200 0.003987722
v -0.008534569 0.765547633 -0.076677516
v 0.176065117 0.847453594 -0.085479841
v -0.180744529 0.810127258 -0.086900905
v -0.112515315 0.687960207 -0.100942433
v -0.192115396 0.818197727 0.028962931
v 0.191201255 0.768680930 -0.065801583
v -0.190341562 0.802689433 0.040081583
v -0.094535671 0.808293819 -0.110096991
v -0.080258004 0.797568917 -0.106664300
v 0.176859647 0.862905681 -0.075660296
v -0.046287335 0.832215488 -0.128246754
v -0.002633023 0.847220898 -0.124942459
v -0.002229276 0.859090209 -0.130630702
v -0.086264476 0.909933448 0.059064567
v -0.001843340 0.872059524 -0.133517444
v -0.102618061 0.904086590 0.052132905
v 0.186074480 0.843619466 -0.069575295
v -0.093071394 0.892365336 0.055586159
v -0.001432792 0.885254502 -0.135601074
v -0.104951993 0.918708920 0.050159335
v -0.143464088 0.808249831 0.069165446
v -0.000998523 0.898740649 -0.135094494
v -0.097442195 0.944083571 0.051087685
v 0.176156744 0.881279469 -0.062886819
v 0.172078252 0.690561116 0.059915237
v -0.000600187 0.912117362 -0.133094981
v -0.107921876 0.934362113 0.046616953
v -0.000093647 0.925442100 -0.130047143
v -0.126985639 0.894022465 0.037721954
v 0.196832210 0.838594317 -0.051912706
v -0.131579667 0.910665393 0.036425635
v -0.194736898 0.850239575 0.011510327
v 0.000423446 0.938829720 -0.126521483
v -0.130954668 0.940127671 0.034325946
v -0.137709260 0.926451325 0.034756541
v -0.141263992 0.938494802 0.020026317
v -0.124921300 0.802218139 0.075149223
v 0.036166981 0.960481286 0.069562703
v 0.015243618 0.965587139 0.070437349
v 0.174356863 0.893316567 -0.039158750
v 0.001515944 0.932088494 0.070092298
v -0.152320549 0.936372638 0.005200405
v 0.184960425 0.874013126 -0.038535729
v -0.164412901 0.943084717 -0.019046169
v -0.166901037 0.941412568 -0.035880718
v -0.073628142 0.735592544 -0.099182129
v 0.024935752 0.959876060 0.069948114
v 0.180587515 0.885863006 -0.021258797
v 0.195250884 0.852782905 -0.030908713
v -0.165214732 0.939871013 -0.053760163
v -0.152060896 0.945984662 -0.086742863
v -0.126024961 0.943023860 -0.117278457
v -0.152573973 0.899751484 -0.108396851
v -0.104447022 0.736764848 -0.108944796
v 0.061800610 0.958085179 0.063204840
v 0.047129467 0.960012913 0.067055002
v -0.104665652 0.895274460 -0.141719311
v 0.000430516 0.889424145 0.066894487
v -0.110523686 0.913136661 -0.136298031
v 0.188838795 0.868633389 -0.017293427
v -0.124728225 0.727338374 -0.105843365
v 0.074568696 0.957728744 0.059967786
v -0.027617544 0.780223966 0.029833555
v -0.030693743 0.698934555 0.016323518
v 0.175366551 0.895525098 -0.005120246
v -0.180698693 0.884342492 -0.032761313
v -0.037443738 0.737887263 0.032101203
v 0.086703338 0.961475849 0.055153705
v 0.210724875 0.775523782 0.005421037
v -0.045804184 0.695367157 0.035712093
v 0.210168093 0.774615645 -0.013680560
v 0.183611289 0.881632328 -0.000809211
v 0.196970373 0.852817833 -0.006440856
v -0.045313288 0.746080995 0.048081730
v -0.065163642 0.693636179 0.055027343
v -0.087839983 0.694172740 0.064203337
v -0.082644291 0.737678349 0.065373734
v 0.176008910 0.871648312 0.018986667
v -0.084463969 0.722564876 0.065135859
v 0.189936250 0.867324710 0.003756708
v -0.043128438 0.874491572 0.063037589
v 0.083280340 0.894750953 0.060072232
v -0.100520052 0.729116142 0.071943596
v 0.070116557 0.828660011 -0.128024802
v -0.109872758 0.692327142 0.072864443
v -0.204567581 0.745676339 -0.046856020
v -0.115552381 0.738868892 0.078547046
v -0.130560786 0.705925345 0.076704428
v 0.061729748 0.838829160 -0.137906641
v 0.139719084 0.910454929 0.031192878
v -0.117934071 0.721924722 0.078280874
v -0.208998367 0.732873559 -0.033318929
v -0.134808674 0.689381719 0.074350752
v 0.188607663 0.854816794 0.016329866
v 0.187152952 0.840802848 0.027512759
v -0.117157973 0.907339931 0.045161337
v -0.141713560 0.721876264 0.072945967
v -0.167654708 0.689502239 0.061107136
v 0.161316112 0.884699941 0.026494194
v 0.163999274 0.868811607 0.037079886
v -0.173161358 0.740184486 0.063503027
v -0.163486183 0.723862410 0.065318778
v 0.163602918 0.853642285 0.049614184
v -0.185274974 0.691972077 0.054090522
v 0.131101638 0.919930100 0.047848996
v -0.184027791 0.724918425 0.058043003
v 0.202659205 0.771752954 0.027320843
v -0.037143480 0.955841660 0.069273271
v -0.198365331 0.725534558 0.037186977
v -0.016426247 0.940696895 0.069802895
v 0.151265532 0.882780850 0.041191522
v -0.139548272 0.898192585 0.029659951
v 0.192654774 0.767301202 0.046809010
v -0.146490842 0.911170304 0.026339725
v -0.207362324 0.719817221 0.017662849
v 0.158031985 0.837850749 0.060157217
v -0.152696818 0.896732450 0.020591311
v 0.022432398 0.883600593 -0.139704168
v 0.023955453 0.902153611 -0.139770240
v 0.134905264 0.878895938 0.047761664
v -0.025305564 0.939490318 -0.132423699
v 0.146943465 0.866142273 0.051585160
v -0.206327006 0.737822771 0.022290763
v -0.019815724 0.921671510 -0.135827944
v 0.023058627 0.804375648 0.033033751
v -0.024739122 0.723037124 -0.069159411
v -0.041381348 0.927453995 -0.139104486
v 0.118324742 0.884604275 0.044457845
v -0.047261436 0.943568408 -0.133398548
v -0.154463038 0.907326221 0.009799775
v 0.139154986 0.849256516 0.060024716
v -0.165907130 0.894963264 0.007892243
v 0.124955192 0.835008502 0.068070039
v -0.171146572 0.899095416 -0.022879358
v -0.177702159 0.891722322 -0.010270997
v 0.125159785 0.868730903 0.055101745
v -0.165968031 0.906715751 -0.004488444
v 0.105872512 0.841862857 0.070013873
v -0.206522703 0.692176521 -0.010657030
v -0.209731296 0.728796601 0.000637908
v 0.092066355 0.764333129 0.071356915
v 0.111646697 0.763297379 0.079280064
v 0.100976512 0.803494573 -0.111855567
v 0.074765965 0.941380858 0.060788374
v -0.024533443 0.738648474 0.019638725
v 0.097456329 0.969248414 0.048659049
v -0.173228830 0.913322628 -0.034296751
v 0.122941516 0.779852271 0.078662053
v 0.100452624 0.875061691 0.050797384
v -0.209817454 0.736256540 -0.014728965
v -0.174026281 0.908831716 -0.054813452
v 0.112318024 0.969811320 0.040954243
v -0.162115961 0.910692334 -0.090251490
v 0.116123691 0.855061173 0.062922552
v -0.066413984 0.828094304 -0.127547115
v 0.080967501 0.780775607 0.067445509
v -0.204493478 0.687928319 -0.034640633
v 0.085014679 0.841860890 0.068102106
v -0.208867341 0.721198976 -0.019873183
v -0.197050065 0.728537619 -0.053279262
v -0.192811280 0.684851289 -0.050152015
v 0.061364673 0.777426481 0.059243817
v 0.094816022 0.859207332 0.062860198
v -0.070046112 0.811736107 -0.103818513
v 0.077414431 0.853950977 0.059134860
v -0.197911069 0.699933052 -0.046456326
v -0.190152809 0.741478324 -0.065610357
v 0.048488431 0.791043401 0.054092884
v -0.083669551 0.819296181 -0.117900029
v -0.183118105 0.691363931 -0.064138755
v 0.017631935 0.848646820 -0.130268902
v 0.076607093 0.871933818 0.059559979
v 0.060695320 0.887324333 0.062139571
v -0.184310749 0.723734200 -0.069608226
v 0.096332401 0.958596230 0.050558895
v 0.017432490 0.759429097 -0.078016356
v 0.018642234 0.745276928 -0.075701259
v -0.165027767 0.688017130 -0.077260584
v 0.105487302 0.962735534 0.045320503
v -0.130563095 0.821886897 -0.112686716
v 0.128291637 0.957754135 0.031701870
v -0.156307429 0.729834974 -0.090731867
v 0.047178615 0.911544442 -0.144536585
v -0.168327436 0.718757808 -0.082437612
v 0.138603479 0.952921391 0.020416012
v 0.032376014 0.782751203 -0.086437531
v 0.036362030 0.799854875 -0.090695955
v -0.144405082 0.809123874 -0.106817946
v 0.148219496 0.951823592 0.006941203
v -0.148163885 0.825413585 -0.105281986
v -0.107629061 0.943756104 -0.126648322
v -0.033834599 0.925663650 0.068432905
v 0.157653242 0.955172539 -0.007797749
v -0.146318704 0.686701894 -0.085410692
v -0.163216680 0.817441821 -0.098813459
v -0.152861729 0.714779258 -0.089255840
v -0.149683788 0.919268131 -0.105761155
v 0.154895037 0.946885705 -0.002003847
v -0.179503888 0.827934921 -0.087689154
v 0.031386159 0.731783092 -0.075857691
v -0.129228324 0.688788593 -0.093739226
v -0.189421430 0.820718288 -0.071212821
v 0.161934093 0.951232791 -0.021866854
v -0.139891773 0.908455372 -0.119870827
v 0.162578344 0.951402307 -0.036605168
v -0.195800811 0.835114181 -0.055500586
v -0.139361933 0.720154107 -0.097077593
v 0.171043813 0.800624192 0.063322976
v 0.160113379 0.951867223 -0.052485872
v -0.201802403 0.825144887 -0.038287405
v 0.047091864 0.812308788 -0.101442084
v -0.093569927 0.691199303 -0.096671328
v -0.026173567 0.706769586 -0.063944191
v 0.157371193 0.952385306 -0.066240534
v -0.199648768 0.838689029 -0.031452231
v 0.175964221 0.854696572 0.032784410
v -0.023523217 0.765667617 0.024402099
v 0.142691627 0.954767883 -0.092951804
v 0.176857442 0.835033715 0.044575647
v -0.059874792 0.831285596 0.053911887
v -0.105254866 0.718294978 -0.106126502
v -0.075065881 0.697556376 -0.091446057
v 0.048942428 0.731226325 -0.089432172
v -0.089382276 0.727063298 -0.102474764
v -0.058510978 0.712529063 -0.088608377
v -0.055377901 0.695742846 -0.083167471
v 0.071334139 0.753525078 -0.100459233
v 0.058601808 0.799246252 -0.099996977
v -0.179124296 0.813727081 0.051971953
v 0.042920396 0.850680947 0.053391248
v 0.035628773 0.834847271 0.045650765
v -0.176484153 0.830502868 0.046715777
v 0.030728757 0.820075393 0.037595443
v -0.029010421 0.823898137 -0.114843771
v 0.096280620 0.784234107 -0.110342123
v -0.156375870 0.840620697 0.059014898
v -0.057763655 0.740597606 -0.094986811
v -0.062456660 0.726915598 -0.093233094
v 0.103307784 0.743334830 -0.108776882
v -0.155913264 0.821975052 0.063307948
v -0.038080029 0.713448644 -0.080879167
v 0.131002635 0.955271363 -0.104684114
v 0.123887636 0.758075058 -0.111086980
v -0.046896882 0.729650617 -0.088584773
v -0.135764763 0.833126366 0.065898076
v -0.042835318 0.753584623 -0.092559174
v 0.117154934 0.956548989 -0.112963580
v -0.032881171 0.737114012 -0.076494560
v 0.109825395 0.722358227 -0.108005330
v -0.207621425 0.702854514 0.012234196
v -0.197753116 0.692983031 0.033280082
v 0.139838964 0.754341722 -0.102705598
v -0.129024565 0.817974448 0.071536422
v -0.112622857 0.828179479 0.072454289
v 0.120154083 0.792752504 -0.115981080
v -0.063369468 0.877112508 0.061126303
v -0.051248372 0.954497516 0.065963089
v -0.101225756 0.809039593 0.076404586
v 0.140742958 0.786949575 -0.106867686
v -0.089958265 0.824021220 0.070390873
v -0.074157901 0.863577008 0.055426102
v 0.177550063 0.792034447 -0.090974547
v -0.078686878 0.809719682 0.065226540
v 0.117704608 0.896838307 -0.135885060
v -0.066777274 0.847389996 0.053369135
v -0.084322959 0.852333188 0.064073324
v 0.189990848 0.786168396 -0.071317591
v -0.078100428 0.836785793 0.064235911
v 0.187659830 0.739276290 -0.067962945
v 0.195486918 0.752036452 -0.059346534
v -0.073024772 0.822984993 0.062069662
v -0.059319250 0.813881099 0.055535622
v -0.098969430 0.840722084 0.071542099
v -0.024477908 0.827241421 0.040779665
v -0.105479181 0.854647338 0.065164879
v -0.094126396 0.865628600 0.057396241
v 0.200812653 0.783856273 -0.053203404
v 0.209970281 0.761253893 -0.026457760
v -0.053916086 0.860097587 0.056025524
v -0.118800066 0.842619061 0.066648118
v -0.038186017 0.765474916 0.039744444
v -0.114102945 0.867521286 0.056415550
v 0.204013675 0.765647769 -0.048333008
v -0.126613662 0.879326642 0.047722917
v 0.210597634 0.759580791 -0.006174150
v -0.153171256 0.856836021 0.053322874
v 0.209314018 0.794616878 -0.010325171
v -0.137702614 0.848454356 0.060206275
v -0.053559393 0.892117143 0.063435860
v -0.148145467 0.872682571 0.048196234
v 0.209461778 0.726932466 -0.002324373
v -0.055476218 0.923678398 0.065594926
v -0.003733264 0.827053547 -0.106887318
v -0.050810199 0.940124631 0.066786215
v -0.160970449 0.876627803 0.034486614
v -0.187227681 0.838045418 0.028148368
v -0.034295544 0.944214463 0.069107413
v -0.003117562 0.837079346 -0.116167113
v -0.075428389 0.953849018 0.059712458
v -0.201195866 0.830530167 0.010899464
v 0.079967074 0.869709313 -0.148143202
v 0.123294577 0.932173729 -0.124480568
v -0.177766874 0.881758213 0.007776395
v -0.063238524 0.953939438 0.062871173
v 0.206806824 0.792387009 0.017770238
v 0.101549365 0.956637204 -0.119810067
v -0.169435248 0.917080760 -0.015635218
v 0.195678979 0.805903554 0.029955611
v -0.200339109 0.841590285 -0.010136480
v -0.193655416 0.859862030 -0.009759932
v -0.186102048 0.875720799 -0.012096507
v 0.086031966 0.954230428 -0.124459818
v 0.198813796 0.836871624 0.012326549
v 0.070106745 0.953881860 -0.126493365
v -0.073715940 0.893302560 0.060899518
v -0.016748365 0.903140247 -0.137546033
v 0.187364563 0.798820138 0.047266245
v 0.053283907 0.953020453 -0.127852336
v 0.062697850 0.942891896 -0.133604333
v 0.204417393 0.720842004 0.024296612
v -0.067027368 0.939691663 0.062618762
v -0.021171052 0.887124896 -0.139367297
v -0.193713054 0.854091346 -0.045086164
v -0.167823702 0.922341049 -0.070196085
v -0.083688326 0.878547370 0.058434851
v 0.036405586 0.953331470 -0.127613455
v -0.186280459 0.852205098 -0.065868095
v 0.017410252 0.951152623 -0.125923127
v -0.160344601 0.853313148 -0.097096309
v 0.181126595 0.726991653 0.059872061
v -0.176835775 0.845765948 -0.085275516
v 0.017254625 0.943053424 -0.129414558
v 0.000251813 0.949660957 -0.122925937
v 0.185063854 0.782470644 0.057688992
v 0.173357397 0.762139678 0.064529963
v 0.086100675 0.839155316 -0.138563752
v 0.016434576 0.938626468 0.069780186
v -0.163685650 0.870388031 -0.095150664
v -0.161512062 0.835847855 -0.098726690
v -0.160892442 0.941295803 -0.071693331
v 0.069182716 0.854674160 -0.145118743
v 0.158921212 0.779964805 0.069292791
v -0.140631452 0.842361927 -0.106045976
v -0.046205487 0.681363702 -0.075104371
v -0.114818573 0.843874156 -0.131075740
v -0.059636272 0.679551899 -0.080076173
v -0.073116601 0.677645922 -0.085040137
v -0.120865762 0.835462451 -0.117194273
v 0.137348548 0.768948674 0.075670883
v 0.151864737 0.755767286 0.071078293
v -0.086595923 0.675591946 -0.089959458
v 0.144871682 0.734617352 0.073510967
v -0.119199596 0.882185578 -0.136273250
v 0.033086050 0.932168365 0.068837270
v 0.021652019 0.920386136 0.068785734
v -0.100030601 0.673279107 -0.094728149
v 0.138496101 0.790000558 0.073474333
v -0.112120666 0.861988723 -0.137650400
v 0.120434836 0.794400096 0.077595964
v 0.129257739 0.749261737 0.078419402
v -0.116337933 0.671864867 -0.095479257
v -0.000046888 0.861575425 0.061750304
v -0.000390383 0.848968983 0.056329530
v -0.094873175 0.844883084 -0.139246106
v -0.129630834 0.671840072 -0.089918889
v -0.080933496 0.891807854 -0.148129761
v -0.102406695 0.830438435 -0.124637924
v -0.142005056 0.671437979 -0.084502168
v -0.155219987 0.671584070 -0.078800723
v -0.168507621 0.671490490 -0.073033109
v -0.044074643 0.841690540 0.049128819
v -0.022295691 0.839862823 0.053081732
v 0.074503340 0.766617775 0.064234331
v 0.077666305 0.750660121 0.064697623
v -0.180953816 0.671763778 -0.063096546
v -0.189789638 0.672257066 -0.051619310
v -0.027745554 0.796173871 0.033519637
v 0.059577823 0.760204136 0.057871222
v 0.040375464 0.771562457 0.047434539
v -0.198119730 0.672494292 -0.039675463
v -0.077919811 0.874278188 -0.148830160
v 0.067497566 0.793576896 0.062448613
v -0.203897521 0.672984660 -0.025053766
v -0.043346662 0.783504248 0.051740818
v 0.027847150 0.773213267 0.030825028
v -0.033078685 0.752057195 0.027818119
v -0.098464169 0.877455056 -0.144113347
v 0.024828970 0.737005711 0.023620654
v -0.055640884 0.765138924 0.056075908
v 0.062398024 0.823416114 0.057275862
v -0.033766873 0.725809216 0.023538467
v -0.044950642 0.726000905 0.042110037
v -0.057285853 0.897825539 -0.147294313
v -0.073983595 0.909774780 -0.147406653
v -0.061857335 0.797611892 0.059158474
v -0.058165174 0.918167114 -0.143980414
v 0.095537342 0.900702834 -0.145094961
v -0.203894705 0.673473775 -0.010776042
v 0.073580548 0.809915841 0.063167669
v -0.063864030 0.728693128 0.057377242
v -0.084267192 0.793701947 0.068844423
v 0.100795604 0.881478310 -0.143072218
v -0.066809036 0.748813212 0.059781801
v -0.076473936 0.765242577 0.064527556
v -0.064620033 0.908581614 0.063644819
v 0.067865521 0.734977841 -0.096729532
v -0.043959357 0.907972038 0.066622034
v 0.090180427 0.814087987 0.071336910
v -0.084586419 0.752059221 0.067092232
v 0.139902502 0.895432651 -0.122635148
v -0.203839943 0.673732042 0.002559236
v -0.026345473 0.812279880 0.035020694
v 0.087805741 0.725780129 -0.101199590
v -0.196071595 0.675324023 0.030445617
v -0.116725489 0.773596942 0.080331288
v 0.083678760 0.742047191 -0.102920100
v -0.190010265 0.675559163 0.043450247
v -0.097884953 0.762140870 0.073080331
v 0.103904344 0.803899765 0.077897593
v 0.110689424 0.823171437 0.074757397
v 0.131812602 0.913951039 -0.125639305
v -0.178237751 0.675871968 0.054855742
v -0.105034493 0.790629923 0.077169873
v -0.164988518 0.676218152 0.060422145
v -0.115984991 0.755396068 0.079840340
v -0.151549339 0.676274836 0.066028550
v -0.137999550 0.675861359 0.071617484
v -0.126993150 0.787958980 0.076289542
v -0.138919786 0.762942433 0.074666277
v -0.122889057 0.676209807 0.076524839
v 0.129038110 0.811679363 0.073005661
v -0.142338037 0.778826237 0.073356323
v -0.108498707 0.676715195 0.070983827
v -0.094572321 0.677178383 0.065389857
v 0.132262319 0.715678632 -0.099202000
v -0.144162267 0.794095993 0.071078584
v 0.164956897 0.820006669 0.061667740
v 0.133467391 0.729194045 -0.101528823
v 0.156803131 0.939118266 -0.083434239
v -0.080586255 0.677616000 0.059781570
v -0.136904031 0.747672319 0.075643092
v -0.066592835 0.678110957 0.054194074
v 0.134523422 0.942995250 -0.110092759
v -0.053187333 0.678937674 0.043327339
v -0.045162223 0.680643857 0.030618649
v 0.182648599 0.815407276 0.045481317
v 0.147832975 0.910802841 -0.110347308
v -0.037166301 0.682546377 0.018011767
v -0.026724432 0.684102833 0.007803231
v -0.161667913 0.803908467 0.064810634
v -0.022330280 0.695898116 0.001458859
v -0.160782233 0.769356251 0.068007797
v 0.148376465 0.724676251 -0.093112476
v 0.157717928 0.894514203 -0.103505149
v 0.191579163 0.823899567 0.027843993
v -0.182426289 0.796265244 0.056527965
v -0.179180101 0.758186460 0.062083066
v -0.182612598 0.776911914 0.060983617
v -0.046136271 0.811900795 -0.100080989
v 0.164932713 0.720073104 -0.083853714
v 0.201637775 0.833433151 -0.011216211
v 0.153573945 0.925529003 -0.099303819
v 0.012033654 0.837789714 -0.118351579
v -0.055440538 0.818835914 -0.116758093
v 0.067947276 0.813562512 -0.104247525
v -0.042841054 0.803965747 0.048282634
v 0.206575483 0.815126240 0.005350909
v -0.195332661 0.766476512 0.041582339
v -0.202303022 0.798151851 0.023302821
v -0.166277885 0.863130391 0.038398087
v 0.183552191 0.722902000 -0.069940761
v -0.205988124 0.757779300 0.022594547
v 0.101579271 0.947385907 0.048707221
v 0.204770848 0.814918399 -0.020143496
v -0.205439597 0.777319252 0.021429406
v -0.210537598 0.788960159 -0.000638750
v -0.207766250 0.801725388 -0.018289100
v 0.193334863 0.714905620 -0.054776091
v 0.206720382 0.800043285 -0.035433017
v -0.210930586 0.747376800 0.000914564
v -0.186334282 0.866543293 0.009110900
v 0.161435679 0.910133243 -0.092180490
v -0.024145238 0.957076728 0.069835722
v 0.202677086 0.818477750 -0.044364221
v 0.191004202 0.822011471 -0.067350596
v -0.086789265 0.859140515 -0.145188555
v -0.061964076 0.860288918 -0.146203578
v 0.197039083 0.732797027 -0.053576171
v -0.210670352 0.767536819 -0.005413017
v 0.203184336 0.705839157 -0.039961446
v 0.198461175 0.802282333 -0.058213711
v -0.015688282 0.951760471 -0.125527814
v -0.034516402 0.953949153 -0.127403453
v 0.166967005 0.894114792 -0.078771837
v 0.016842408 0.829078853 0.044937812
v -0.050832082 0.953787327 -0.127627030
v -0.043593828 0.822108626 0.045416333
v 0.188063279 0.803058624 -0.075026006
v 0.179487690 0.811953545 -0.088402160
v -0.067507952 0.954668880 -0.126491278
v 0.169078901 0.914233983 -0.072861180
v -0.210279435 0.750153422 -0.021924919
v -0.082748994 0.955218494 -0.124477327
v -0.088751435 0.941698432 -0.132308170
v -0.188723460 0.867105365 -0.030978585
v -0.097984031 0.957652092 -0.120009862
v -0.113246717 0.958043456 -0.113672853
v 0.158448413 0.800864339 -0.099873006
v -0.205119103 0.795672536 -0.048587982
v -0.184053630 0.870969296 -0.056333892
v -0.169518784 0.880495071 -0.074694380
v -0.209341690 0.764465511 -0.034523971
v 0.173835501 0.901876926 -0.055969018
v 0.165039882 0.940845609 -0.052914880
v -0.203837782 0.716025710 -0.041880008
v 0.046290476 0.821708381 0.047758684
v 0.137445658 0.803461373 -0.109270766
v -0.068501122 0.841397643 -0.141359597
v -0.191831172 0.803221524 -0.069493681
v 0.168641165 0.936975300 -0.037990544
v -0.081713133 0.831130326 -0.132410511
v -0.190407649 0.710919619 -0.058463089
v 0.119111240 0.809288681 -0.116272613
v -0.197102323 0.758459568 -0.058053594
v -0.181347251 0.755220234 -0.079950467
v 0.167478815 0.934607387 -0.021200648
v -0.190105706 0.769923806 -0.068434082
v -0.181592435 0.792671561 -0.086551502
v 0.169449866 0.897609055 -0.018518236
v -0.174697071 0.735953331 -0.082917884
v -0.026253989 0.754530847 -0.078082852
v 0.080867268 0.799717009 -0.106363691
v -0.127164960 0.957490623 -0.105931476
v -0.137849912 0.958810985 -0.094699718
v -0.162111342 0.800178528 -0.098779880
v -0.161628067 0.782191634 -0.097770736
v -0.161373526 0.764396966 -0.094649747
v -0.159824520 0.746814907 -0.092256293
v -0.135682449 0.871211052 -0.126750559
v 0.061955970 0.854358792 0.052469850
v 0.208666831 0.725787163 -0.031331595
v -0.155192330 0.955870926 -0.067090414
v -0.159070328 0.953388333 -0.053654693
v 0.209945485 0.743165016 -0.018422009
v -0.008529127 0.688162804 -0.053307317
v -0.161878362 0.952706695 -0.037911285
v 0.159073189 0.906581104 0.001866578
v -0.161461845 0.952347279 -0.024818692
v -0.157608554 0.944295526 -0.005354563
v -0.154322520 0.954013944 -0.003240900
v 0.200862497 0.831767917 -0.031484019
v 0.162705630 0.941671550 -0.008558498
v -0.147836924 0.949851334 0.007335180
v -0.141176969 0.951299667 0.017111178
v -0.133304596 0.950918972 0.027436513
v 0.048694704 0.831393123 -0.127881318
v -0.122015871 0.951548696 0.038747650
v 0.152884468 0.937247753 0.004654764
v -0.109657288 0.946381569 0.045074947
v -0.141201049 0.737900734 -0.099754453
v 0.151340306 0.900654137 0.018137237
v 0.015414588 0.790188134 -0.082606122
v -0.007452170 0.779519618 -0.079568222
v -0.006008223 0.794377506 -0.081743009
v 0.147874147 0.941702962 -0.098794699
v -0.142437249 0.755525172 -0.102068797
v -0.005175035 0.807300389 -0.087760046
v -0.142401904 0.791588426 -0.106930435
v 0.013341372 0.806054592 -0.087804630
v -0.004404457 0.818409622 -0.096217319
v -0.112847373 0.956358612 0.042346835
v 0.162915558 0.821870685 -0.098512009
v 0.141054258 0.939372540 0.020460701
v -0.124877036 0.745811224 -0.108922817
v -0.100864053 0.954910755 0.048330240
v -0.089179695 0.954476476 0.054391790
v 0.130146205 0.928500354 0.036446471
v 0.047121074 0.892340839 -0.145746976
v -0.142788664 0.773254633 -0.105080843
v -0.122263655 0.803124428 -0.116302229
v 0.128583133 0.947216630 0.035118334
v -0.124522045 0.763799965 -0.112063691
v 0.149835318 0.896847844 0.034615330
v -0.102616787 0.755002797 -0.110223748
v -0.002364493 0.817254424 0.031018641
v -0.082563385 0.941568971 0.058552720
v 0.113677062 0.954819798 0.042585324
v 0.124361098 0.938901246 0.047693323
v 0.112605967 0.941652417 0.043263365
v -0.086456805 0.746020555 -0.104536220
v -0.100507870 0.773039520 -0.111490011
v -0.081438899 0.763888538 -0.105076887
v 0.040030096 0.742878199 0.038647659
v -0.099911541 0.790822923 -0.112046599
v 0.051820286 0.927897573 -0.139894605
v -0.078264847 0.781798959 -0.105848655
v 0.026075279 0.919531047 -0.138127953
v -0.040512219 0.884874940 -0.145268187
v -0.037198417 0.906211674 -0.144435823
v 0.207066849 0.738683879 0.021193039
v 0.190997347 0.746946037 0.054760057
v -0.053793512 0.774318457 -0.098925695
v -0.059033912 0.795332491 -0.100628652
v -0.147579134 0.956465721 -0.082074754
v 0.137974218 0.905114949 0.044295598
v 0.121735610 0.904284477 0.042668976
v -0.205718398 0.687432051 0.010849303
v 0.159911081 0.720366597 0.066723280
v 0.166763097 0.740938008 0.066388927
v -0.202380106 0.674569011 0.017685417
v 0.110387504 0.923132539 0.047579102
v -0.036171172 0.696850598 -0.071986794
v -0.035769805 0.685157120 -0.063421227
v 0.012608957 0.721673548 0.014892113
v -0.024416542 0.687693238 -0.055423092
v 0.006471463 0.955955625 0.070576653
v 0.068718247 0.920937836 -0.143095002
v -0.010183901 0.958272099 0.070451841
v -0.026117733 0.714054286 0.016631564
v 0.118651807 0.729233801 0.079760008
v 0.029352507 0.949547887 0.069975115
v 0.072420739 0.695892453 0.058556020
v 0.060828764 0.707962573 0.054937005
v 0.093801357 0.705237746 0.068014458
v 0.049274318 0.870595336 -0.145985097
v 0.113984212 0.709752202 0.076411918
v 0.045392226 0.711352706 0.040004320
v 0.201027587 0.703112245 0.028954040
v 0.105057135 0.897438407 0.051318027
v 0.094756708 0.912955463 0.055304218
v 0.149584204 0.920624554 0.015492531
v 0.097699448 0.723406494 0.070955455
v 0.164857939 0.920885861 -0.007079673
v 0.172912821 0.915170550 -0.032637544
v 0.040618457 0.944227815 0.068942681
v 0.078828134 0.733067334 0.064033143
v 0.100568727 0.744336724 0.073509470
v 0.170035839 0.922980011 -0.053241890
v 0.165057406 0.932426274 -0.069531277
v 0.077762276 0.715143085 0.062370103
v 0.161511764 0.924080968 -0.083577380
v 0.189282522 0.697455287 -0.056669436
v 0.172496244 0.703521907 -0.076571614
v 0.057677604 0.741364241 0.056050919
v 0.146264404 0.704421878 -0.089741968
v 0.139889881 0.927589536 -0.112575009
v 0.059592556 0.723587096 0.055727124
v 0.100639366 0.782784820 0.075638756
v 0.139099628 0.714219451 0.074026011
v 0.175470054 0.707858860 0.059928916
v 0.194276497 0.714362919 0.044365458
v 0.208579376 0.780762315 -0.031512178
v 0.159900606 0.779725611 -0.097610638
v 0.042452805 0.727680266 0.038855195
v 0.141771734 0.769635558 -0.104469314
v 0.208275408 0.710982561 -0.015001416
v 0.207904458 0.708226979 0.007165460
v 0.033655874 0.756578922 0.031776287
v 0.010400316 0.774494529 0.023749001
v 0.078866899 0.918735623 0.061387997
v 0.056388598 0.944549203 0.065307185
v 0.016478911 0.789603055 0.027838539
v 0.032098528 0.863125145 0.060908310
v 0.020938316 0.845532238 0.055254173
v 0.018987413 0.718279958 -0.067594446
v 0.049318403 0.928871334 0.067010805
v 0.034363635 0.747560978 -0.083748952
v 0.029153341 0.905950069 0.067533791
v 0.040564947 0.915525258 0.067931615
v 0.014354405 0.904819310 0.068091802
v 0.034071259 0.702691078 -0.066937149
v 0.052815098 0.750120699 -0.094715811
v 0.069277354 0.839712322 0.058536232
v 0.195843548 0.785712123 0.037771594
v 0.188348919 0.859810829 -0.055600993
v 0.053105038 0.697013259 -0.082362853
v 0.179704458 0.772253633 -0.085543856
v 0.125937313 0.836739361 -0.114121534
v 0.122602925 0.775868058 -0.113974467
v 0.077456065 0.693374157 -0.091100223
v 0.049234334 0.783479571 -0.097634897
v 0.036042012 0.821184814 -0.115317479
v 0.120026544 0.702644765 -0.101323962
v 0.101102352 0.689462721 -0.098500013
v 0.104571126 0.936034858 -0.130429372
v 0.064570628 0.928410172 0.063963197
v 0.061166953 0.908826053 0.064454764
v 0.128493190 0.686767519 -0.093166731
v 0.024610920 0.891622901 0.066271462
v 0.039413888 0.880475819 0.064200953
v 0.082448579 0.937349498 -0.135742694
v 0.152469918 0.686525702 -0.082081571
v 0.180054992 0.830875576 -0.085478224
v 0.022586180 0.864525199 -0.137124687
v 0.176753879 0.734213293 -0.080830485
v 0.174163297 0.685586333 -0.072027549
v 0.015995365 0.774468124 -0.080414474
v 0.188041329 0.682198644 -0.055286162
v 0.029336989 0.835130513 -0.124560893
v 0.200355336 0.687092781 -0.039983828
v 0.207151130 0.696428835 -0.023045650
v 0.056280285 0.807389736 0.054790758
v 0.110917345 0.916898727 -0.134719223
v 0.089806035 0.920615315 -0.141440332
v 0.016712373 0.825139344 -0.110007599
v 0.206641361 0.693990827 -0.004658328
v 0.126709789 0.741706967 -0.107013926
v 0.210629851 0.744723320 0.001367724
v 0.197373375 0.733310580 0.040273555
v 0.162343398 0.739564300 -0.089267388
v 0.145483643 0.741188884 -0.097788624
v 0.191123679 0.693648875 0.047700100
v 0.134351566 0.891434789 0.039801590
v 0.167893961 0.889968872 0.011107940
v 0.207295388 0.745815396 -0.042459212
v 0.041316655 0.714586139 -0.082792990
v 0.154521406 0.698068261 0.067342885
v 0.078309231 0.826049447 0.065138720
v 0.209512427 0.757741570 0.016809763
v 0.200515836 0.752944291 0.035165347
v 0.088764548 0.754985571 -0.105691552
v 0.133458167 0.693459630 0.075379536
v 0.125068530 0.876273751 -0.133812010
v -0.001562610 0.825666785 0.041264955
v -0.006388286 0.763587534 0.020395836
v 0.043272357 0.754217565 0.047295049
v 0.108443603 0.692377865 0.072876118
v 0.149016589 0.880405128 -0.115195677
v -0.003244906 0.804421425 0.027579952
v -0.000800002 0.836435139 0.050943155
v 0.090046607 0.689628661 0.065163650
v 0.019075353 0.876319885 0.064762928
v 0.000193656 0.875564396 0.065221652
v 0.092929289 0.932029605 0.055062354
v 0.051022768 0.695079625 0.044894941
v 0.089477681 0.950297713 0.054934829
v 0.205860808 0.689837575 0.013423091
v 0.092650339 0.829110980 0.072209291
v 0.036993451 0.937613487 -0.134769440
v 0.038979061 0.698561907 0.025715780
v 0.070698790 0.904468358 -0.148354858
v 0.017456401 0.702723861 0.013276165
v 0.032356255 0.716924131 0.023773598
v 0.041705314 0.849872112 -0.139138848
v 0.014181730 0.860878766 0.061086126
v 0.014774303 0.755497515 0.020991130
v -0.007250323 0.750247836 0.017803038
v -0.005058966 0.790644884 0.024939027
v 0.205290765 0.683516860 -0.017547376
v -0.005619099 0.777049422 0.022926373
v 0.067169495 0.714378655 -0.091690108
v 0.088637814 0.815930545 -0.108016610
v 0.108312890 0.824123025 -0.111917637
v 0.144362137 0.825778842 0.066354461
v 0.086275324 0.797108531 0.070339292
v 0.150852844 0.805311978 0.068084866
v 0.092947647 0.707650840 -0.099270813
v 0.197783262 0.686629891 0.031130588
f 555 540 123
f 389 162 497
f 567 540 568
f 583 104 251
f 463 489 430
f 453 94 255
f 483 484 162
f 446 640 671
f 574 577 251
f 50 244 238
f 52 244 50
f 575 57 53
f 55 249 52
f 55 2 250
f 577 248 563
f 575 437 432
f 57 597 589
f 2 265 262
f 589 592 57
f 262 259 2
f 5 267 262
f 602 606 589
f 5 9 11
f 58 606 610
f 11 272 5
f 12 278 11
f 565 793 8
f 630 60 632
f 13 425 12
f 424 289 160
f 289 424 13
f 643 649 60
f 181 403 179
f 483 206 484
f 163 651 174
f 53 563 558
f 651 65 650
f 163 389 384
f 683 66 65
f 455 558 563
f 165 384 171
f 340 331 34
f 67 66 683
f 206 470 63
f 385 102 856
f 67 702 70
f 344 340 696
f 179 403 406
f 710 70 702
f 16 352 14
f 111 112 59
f 63 64 655
f 18 368 16
f 710 742 753
f 119 112 111
f 394 671 545
f 551 922 903
f 19 375 18
f 753 740 711
f 406 470 179
f 261 615 108
f 545 453 439
f 178 386 530
f 24 386 23
f 72 753 742
f 26 396 24
f 768 765 72
f 119 142 112
f 32 63 470
f 112 142 161
f 399 400 396
f 154 343 182
f 545 671 448
f 399 415 400
f 768 770 765
f 32 406 410
f 418 415 399
f 770 183 777
f 387 300 166
f 415 418 422
f 105 86 299
f 169 42 839
f 170 142 119
f 173 172 705
f 329 638 343
f 134 738 737
f 185 638 329
f 692 661 145
f 150 74 741
f 637 345 873
f 132 145 661
f 170 184 142
f 138 495 760
f 138 136 188
f 136 194 188
f 201 87 194
f 270 87 205
f 216 49 210
f 46 216 724
f 198 184 170
f 43 96 907
f 219 39 218
f 45 43 41
f 224 37 219
f 498 224 514
f 86 105 342
f 225 36 514
f 378 107 110
f 80 233 107
f 22 41 43
f 198 217 849
f 41 581 45
f 103 233 76
f 76 40 103
f 222 217 214
f 678 100 40
f 98 41 22
f 366 41 98
f 40 76 678
f 215 4 284
f 215 98 21
f 537 536 92
f 222 234 217
f 904 537 92
f 460 462 30
f 284 471 366
f 222 239 246
f 586 903 759
f 462 28 30
f 246 234 222
f 454 449 28
f 237 391 924
f 560 319 921
f 246 888 252
f 431 471 282
f 455 560 391
f 319 560 241
f 50 238 793
f 50 566 52
f 52 574 55
f 258 263 510
f 244 52 249
f 55 253 2
f 284 792 657
f 303 670 667
f 303 100 674
f 250 249 55
f 273 274 252
f 251 253 574
f 100 303 301
f 301 570 100
f 104 261 257
f 677 100 678
f 273 285 274
f 257 2 253
f 2 257 265
f 250 2 259
f 570 568 40
f 752 292 293
f 294 296 285
f 285 296 274
f 684 497 679
f 277 274 296
f 440 447 442
f 579 489 463
f 692 329 695
f 259 262 267
f 871 736 360
f 262 271 9
f 40 100 570
f 570 567 568
f 203 128 270
f 310 296 294
f 305 296 310
f 87 270 194
f 9 5 262
f 5 272 600
f 276 9 271
f 9 276 11
f 272 11 278
f 302 323 310
f 568 103 40
f 108 615 89
f 280 11 276
f 11 280 12
f 103 568 540
f 278 12 425
f 323 337 328
f 283 12 280
f 12 283 13
f 283 297 289
f 289 13 283
f 540 561 231
f 425 13 424
f 209 288 205
f 291 125 286
f 346 337 323
f 49 304 288
f 173 350 351
f 297 654 314
f 347 158 864
f 304 47 311
f 47 304 49
f 47 46 481
f 360 361 855
f 501 684 146
f 481 311 47
f 46 39 481
f 343 695 329
f 314 289 297
f 289 314 160
f 481 321 308
f 481 39 321
f 325 122 321
f 325 321 37
f 37 321 39
f 333 160 314
f 324 266 333
f 527 107 231
f 84 121 325
f 36 327 498
f 160 333 34
f 327 120 84
f 36 82 371
f 277 393 390
f 689 34 333
f 34 689 340
f 313 34 331
f 266 334 689
f 334 260 341
f 340 335 331
f 107 527 110
f 54 404 405
f 696 14 344
f 61 401 44
f 38 299 407
f 358 14 348
f 14 358 16
f 344 14 352
f 356 704 712
f 352 16 368
f 413 62 417
f 370 16 358
f 16 370 18
f 175 705 134
f 713 115 110
f 371 27 378
f 27 371 82
f 381 18 370
f 18 381 19
f 368 18 375
f 80 378 27
f 19 381 235
f 19 395 23
f 19 23 178
f 202 506 913
f 23 395 24
f 386 24 396
f 398 24 395
f 24 398 26
f 26 398 220
f 26 412 399
f 396 26 399
f 418 399 412
f 164 180 444
f 444 443 164
f 175 173 705
f 685 84 120
f 422 300 415
f 685 121 84
f 172 169 300
f 172 300 422
f 78 80 27
f 226 365 78
f 89 615 114
f 240 485 309
f 134 737 175
f 226 27 82
f 245 459 452
f 187 186 140
f 243 459 245
f 189 187 130
f 581 466 579
f 467 472 637
f 308 122 240
f 138 579 466
f 430 255 463
f 499 435 430
f 453 430 435
f 435 440 439
f 435 499 450
f 243 479 281
f 308 321 122
f 897 438 584
f 439 453 435
f 243 281 893
f 450 440 435
f 480 859 865
f 440 449 447
f 442 439 440
f 450 449 440
f 447 449 454
f 492 488 493
f 127 458 456
f 449 456 28
f 82 225 708
f 454 28 462
f 28 456 30
f 456 450 127
f 30 456 458
f 225 82 36
f 30 464 460
f 506 507 502
f 126 469 125
f 287 508 509
f 207 507 506
f 410 460 32
f 126 306 477
f 460 464 644
f 644 32 460
f 32 644 63
f 475 31 576
f 470 406 32
f 64 63 644
f 306 309 477
f 125 464 458
f 528 795 511
f 516 523 524
f 655 206 63
f 206 655 484
f 206 474 470
f 162 679 497
f 316 322 822
f 313 160 34
f 37 498 325
f 523 316 534
f 497 684 501
f 501 146 505
f 146 512 503
f 505 503 513
f 263 515 510
f 512 120 115
f 503 512 91
f 517 513 503
f 115 713 91
f 458 203 125
f 315 547 548
f 91 512 115
f 547 330 336
f 91 713 88
f 517 88 522
f 552 548 547
f 532 88 713
f 88 532 519
f 552 336 553
f 522 519 541
f 527 231 561
f 127 128 458
f 538 660 692
f 514 36 498
f 224 498 37
f 538 692 695
f 114 626 631
f 553 342 105
f 219 37 39
f 555 660 561
f 127 450 499
f 891 199 824
f 660 555 661
f 218 39 46
f 199 97 886
f 366 98 284
f 22 21 98
f 41 366 581
f 43 232 22
f 907 232 43
f 96 536 907
f 45 463 255
f 45 581 463
f 255 94 96
f 255 96 45
f 94 453 545
f 448 546 545
f 582 593 594
f 595 584 438
f 216 46 47
f 216 47 49
f 551 640 558
f 558 640 569
f 49 288 209
f 793 565 50
f 569 53 558
f 566 50 565
f 209 210 49
f 841 351 350
f 574 52 566
f 578 53 57
f 612 609 423
f 53 578 563
f 575 53 569
f 597 432 211
f 253 55 574
f 57 575 597
f 578 57 592
f 592 583 578
f 627 609 612
f 584 621 628
f 603 589 606
f 602 589 597
f 634 819 627
f 610 606 602
f 835 318 229
f 626 606 58
f 610 624 58
f 58 624 630
f 632 58 630
f 634 884 869
f 58 632 626
f 60 642 632
f 642 60 649
f 60 630 181
f 650 649 643
f 662 652 645
f 656 628 621
f 621 636 656
f 658 659 204
f 64 644 469
f 466 495 138
f 694 377 700
f 468 471 431
f 663 650 65
f 628 656 668
f 679 162 484
f 65 686 663
f 672 673 659
f 686 65 66
f 683 65 651
f 468 431 478
f 683 693 67
f 685 146 684
f 146 685 512
f 696 340 689
f 66 67 701
f 473 495 478
f 66 698 686
f 702 67 693
f 668 675 687
f 701 698 66
f 405 690 54
f 701 67 70
f 54 690 564
f 14 696 348
f 711 70 710
f 699 70 711
f 702 709 710
f 229 318 236
f 657 282 471
f 710 709 742
f 753 756 740
f 756 753 72
f 742 754 72
f 72 754 768
f 72 765 756
f 766 765 770
f 490 193 496
f 130 772 496
f 770 776 766
f 15 719 168
f 87 201 148
f 183 770 768
f 201 194 136
f 422 705 172
f 633 777 338
f 777 633 150
f 408 74 633
f 638 185 408
f 106 730 258
f 688 379 694
f 275 631 118
f 185 692 145
f 197 750 749
f 736 737 738
f 263 258 730
f 738 741 743
f 185 145 143
f 743 741 744
f 744 741 74
f 744 467 879
f 132 140 145
f 123 132 661
f 741 738 150
f 123 540 567
f 773 772 567
f 738 134 150
f 78 27 226
f 238 623 1
f 264 279 779
f 776 150 134
f 134 705 420
f 695 541 538
f 104 599 261
f 365 681 680
f 761 762 763
f 365 678 76
f 76 78 365
f 411 156 420
f 156 411 220
f 541 519 538
f 220 764 156
f 76 233 78
f 80 78 233
f 168 789 387
f 70 699 701
f 398 395 228
f 434 437 445
f 779 780 887
f 428 432 434
f 926 317 706
f 197 749 745
f 213 6 4
f 279 785 780
f 419 427 428
f 148 201 745
f 454 462 419
f 526 782 783
f 381 734 235
f 410 414 419
f 493 769 913
f 511 4 215
f 4 511 213
f 406 414 410
f 208 731 729
f 21 511 215
f 210 728 727
f 794 800 823
f 511 21 529
f 470 474 179
f 724 218 46
f 227 110 115
f 118 280 275
f 219 218 722
f 806 800 794
f 803 804 256
f 716 778 225
f 224 219 720
f 407 86 690
f 356 734 381
f 389 497 380
f 809 795 528
f 810 806 811
f 717 716 514
f 497 501 380
f 317 697 429
f 810 818 821
f 913 771 202
f 341 698 699
f 373 376 159
f 369 177 373
f 341 260 698
f 260 334 266
f 365 226 681
f 517 522 354
f 828 821 818
f 354 362 364
f 569 640 446
f 519 522 88
f 767 828 818
f 266 324 676
f 602 597 211
f 804 834 256
f 121 240 122
f 345 868 918
f 610 602 211
f 169 839 166
f 427 195 211
f 643 179 174
f 683 651 165
f 693 683 171
f 627 884 634
f 324 654 676
f 846 397 841
f 841 397 374
f 362 709 369
f 580 397 846
f 192 188 190
f 192 499 489
f 128 192 190
f 270 205 203
f 205 288 286
f 291 306 126
f 208 148 733
f 288 304 291
f 304 311 306
f 311 481 308
f 286 125 203
f 283 118 297
f 589 599 592
f 283 280 118
f 227 115 120
f 747 805 732
f 707 226 82
f 107 378 80
f 275 114 631
f 118 646 297
f 89 114 275
f 231 233 103
f 87 209 205
f 816 872 870
f 271 108 89
f 248 560 455
f 248 241 560
f 108 271 265
f 566 565 241
f 86 876 690
f 622 244 619
f 517 91 88
f 574 566 248
f 715 662 889
f 244 249 618
f 249 250 614
f 882 465 718
f 253 251 257
f 774 465 882
f 250 259 608
f 883 494 774
f 921 391 560
f 259 267 604
f 54 564 847
f 251 577 583
f 600 267 5
f 89 276 271
f 503 91 517
f 690 405 407
f 275 276 89
f 892 573 582
f 272 278 596
f 248 577 574
f 280 276 275
f 425 588 591
f 425 424 781
f 781 313 572
f 424 313 781
f 572 585 781
f 314 654 324
f 136 197 201
f 313 557 572
f 237 551 558
f 554 331 335
f 334 341 348
f 760 136 138
f 335 344 549
f 341 699 704
f 348 696 334
f 921 319 7
f 358 348 704
f 344 352 544
f 912 582 594
f 903 586 551
f 352 368 543
f 381 370 356
f 368 375 539
f 788 8 3
f 535 375 178
f 221 795 809
f 828 767 562
f 559 833 920
f 921 920 899
f 546 448 898
f 903 922 836
f 38 903 299
f 235 228 395
f 405 669 407
f 546 92 94
f 400 518 520
f 92 546 904
f 639 35 926
f 386 396 525
f 927 926 33
f 928 605 930
f 200 490 298
f 94 545 546
f 96 92 536
f 927 56 852
f 143 472 408
f 220 412 26
f 400 520 521
f 412 220 411
f 109 113 152
f 920 832 559
f 418 412 411
f 152 113 746
f 387 789 786
f 420 418 411
f 746 161 867
f 418 420 422
f 490 773 298
f 496 772 773
f 394 442 445
f 562 767 832
f 739 636 820
f 204 725 658
f 773 490 496
f 725 223 635
f 447 454 428
f 472 186 637
f 215 284 98
f 189 130 496
f 458 464 30
f 410 462 460
f 125 469 464
f 635 247 487
f 487 269 629
f 641 487 629
f 268 269 487
f 269 393 629
f 390 269 268
f 469 126 64
f 349 761 763
f 655 64 477
f 303 674 670
f 290 393 277
f 611 290 928
f 163 474 483
f 928 307 605
f 635 641 648
f 531 605 533
f 677 674 100
f 477 309 485
f 506 202 207
f 679 485 240
f 240 121 684
f 312 912 594
f 684 679 240
f 121 685 684
f 186 187 345
f 503 505 146
f 912 332 892
f 772 130 132
f 685 120 512
f 501 505 159
f 725 648 658
f 505 513 373
f 513 517 364
f 892 847 564
f 110 527 713
f 714 847 339
f 522 541 154
f 51 714 346
f 231 103 540
f 714 51 404
f 541 695 343
f 567 772 123
f 502 500 506
f 578 577 563
f 867 659 673
f 577 578 583
f 597 575 432
f 592 104 583
f 913 492 493
f 845 167 839
f 599 104 592
f 386 178 23
f 599 603 615
f 110 227 378
f 615 261 599
f 706 402 639
f 603 626 114
f 132 123 772
f 624 610 195
f 409 706 317
f 746 673 682
f 114 615 603
f 120 327 227
f 624 414 403
f 691 429 697
f 642 631 632
f 642 118 631
f 429 433 853
f 646 118 642
f 642 649 646
f 152 682 691
f 682 433 691
f 181 643 60
f 654 297 646
f 122 325 121
f 140 130 187
f 421 416 617
f 123 661 555
f 309 308 240
f 698 260 686
f 702 693 177
f 698 701 699
f 672 441 436
f 291 126 125
f 109 691 697
f 143 140 186
f 874 872 816
f 665 441 672
f 188 192 489
f 665 658 653
f 712 704 699
f 653 451 665
f 927 697 317
f 712 740 734
f 648 461 653
f 178 375 19
f 923 880 116
f 641 461 648
f 740 756 748
f 748 758 228
f 926 706 639
f 479 641 482
f 754 742 362
f 354 754 362
f 407 669 38
f 203 458 128
f 482 629 620
f 756 765 758
f 182 754 154
f 128 127 192
f 254 246 252
f 611 382 620
f 764 398 228
f 499 192 127
f 764 766 156
f 766 776 156
f 930 611 928
f 420 156 776
f 140 132 130
f 788 7 8
f 387 166 168
f 420 776 134
f 136 760 197
f 300 387 415
f 750 197 760
f 745 201 197
f 148 208 209
f 733 148 745
f 258 35 106
f 593 533 605
f 731 208 733
f 236 318 910
f 729 210 208
f 728 210 729
f 727 216 210
f 188 489 579
f 929 573 556
f 724 216 727
f 573 929 582
f 723 218 724
f 722 218 723
f 720 219 722
f 717 224 720
f 514 224 717
f 188 579 138
f 876 556 573
f 707 681 226
f 898 904 546
f 472 143 186
f 212 795 221
f 899 391 921
f 854 925 931
f 213 795 212
f 140 143 145
f 404 54 714
f 833 922 924
f 415 387 786
f 143 408 185
f 238 3 793
f 1 3 238
f 31 799 752
f 622 238 244
f 918 799 515
f 380 376 171
f 915 752 357
f 617 476 421
f 619 244 618
f 618 249 616
f 616 249 614
f 636 739 613
f 388 613 10
f 614 250 608
f 357 791 915
f 383 688 388
f 608 259 607
f 571 438 576
f 295 667 666
f 92 96 94
f 607 259 604
f 372 726 700
f 667 295 303
f 367 726 372
f 604 267 601
f 298 295 207
f 923 875 880
f 363 732 367
f 408 467 74
f 148 209 87
f 298 301 295
f 359 747 363
f 601 267 600
f 359 355 755
f 600 272 598
f 598 272 596
f 353 755 355
f 301 298 773
f 596 278 591
f 747 755 751
f 591 278 425
f 588 425 781
f 388 688 813
f 769 771 913
f 763 353 349
f 202 771 200
f 506 500 913
f 74 467 744
f 773 570 301
f 82 708 707
f 320 647 326
f 500 492 913
f 331 554 557
f 242 910 320
f 344 335 340
f 910 908 647
f 554 335 550
f 239 222 703
f 549 550 335
f 549 344 544
f 166 167 168
f 544 352 543
f 543 368 542
f 17 15 167
f 17 845 157
f 907 536 919
f 157 850 155
f 155 850 153
f 542 368 539
f 150 633 74
f 153 854 151
f 151 854 149
f 149 858 147
f 147 862 144
f 539 375 535
f 759 903 38
f 530 535 178
f 144 862 141
f 141 866 139
f 139 866 137
f 530 386 525
f 137 870 135
f 525 396 521
f 135 870 872
f 133 872 131
f 131 874 129
f 129 923 117
f 923 874 875
f 170 119 902
f 521 396 400
f 20 932 101
f 99 101 932
f 99 886 97
f 95 97 199
f 95 891 93
f 93 896 90
f 518 400 786
f 90 896 85
f 85 901 83
f 83 905 81
f 169 166 300
f 81 905 79
f 77 79 796
f 77 909 75
f 439 394 545
f 75 914 73
f 73 914 71
f 71 916 69
f 442 394 439
f 468 466 366
f 442 447 434
f 7 562 920
f 794 534 811
f 924 899 833
f 434 447 428
f 428 454 419
f 419 462 410
f 38 898 759
f 902 111 897
f 466 468 495
f 526 524 534
f 25 59 56
f 96 43 45
f 895 401 61
f 182 343 338
f 483 389 163
f 483 162 389
f 897 59 25
f 883 894 775
f 776 777 150
f 59 897 111
f 380 384 389
f 774 882 893
f 111 902 119
f 778 708 225
f 501 159 380
f 167 166 839
f 159 505 373
f 176 191 867
f 373 513 369
f 364 369 513
f 850 890 925
f 354 364 517
f 354 522 154
f 177 369 709
f 154 541 343
f 446 445 437
f 376 380 159
f 204 223 725
f 217 198 214
f 214 703 222
f 437 569 446
f 610 211 195
f 414 624 195
f 403 630 624
f 889 718 715
f 160 313 424
f 181 630 403
f 888 246 239
f 179 643 181
f 174 650 643
f 651 650 174
f 163 384 165
f 487 247 268
f 165 651 163
f 171 683 165
f 174 474 163
f 557 313 331
f 475 515 799
f 376 693 171
f 285 273 757
f 177 693 376
f 627 885 884
f 174 179 474
f 509 508 516
f 294 302 310
f 709 702 177
f 709 362 742
f 154 754 354
f 182 338 183
f 780 785 803
f 183 768 182
f 423 413 881
f 183 338 777
f 638 338 343
f 633 638 408
f 590 401 895
f 692 185 329
f 190 188 194
f 515 475 25
f 270 190 194
f 190 270 128
f 195 427 414
f 7 788 562
f 915 878 571
f 877 595 438
f 203 205 286
f 44 48 61
f 474 206 483
f 210 209 208
f 61 62 895
f 413 895 62
f 211 432 427
f 172 42 169
f 398 764 220
f 515 263 918
f 437 575 569
f 228 758 764
f 124 885 426
f 175 871 350
f 84 498 327
f 225 514 716
f 327 371 227
f 918 263 730
f 898 448 759
f 371 327 36
f 839 374 890
f 227 371 378
f 451 441 665
f 228 235 748
f 444 180 457
f 233 231 107
f 187 868 345
f 759 448 586
f 189 292 868
f 734 748 235
f 653 461 826
f 924 922 237
f 292 193 196
f 446 671 394
f 461 641 479
f 922 551 237
f 391 237 455
f 482 641 629
f 918 868 799
f 196 200 293
f 771 293 200
f 558 455 237
f 281 287 894
f 894 893 281
f 248 566 241
f 257 251 104
f 255 430 453
f 257 261 265
f 509 775 287
f 260 266 676
f 509 516 524
f 265 261 108
f 523 516 531
f 322 316 523
f 273 252 888
f 265 271 262
f 811 534 316
f 316 315 811
f 676 686 260
f 366 466 581
f 478 495 468
f 330 547 315
f 547 336 552
f 366 471 468
f 760 495 473
f 657 471 284
f 336 342 553
f 553 900 552
f 832 900 553
f 865 878 791
f 792 284 4
f 31 571 576
f 286 288 291
f 438 571 877
f 906 864 863
f 4 790 792
f 8 7 319
f 303 295 301
f 291 304 306
f 570 773 567
f 739 617 392
f 617 416 392
f 306 311 309
f 309 311 308
f 170 628 668
f 613 739 10
f 739 392 10
f 656 675 668
f 656 815 675
f 680 678 365
f 813 613 388
f 324 333 314
f 687 198 668
f 379 688 383
f 295 666 207
f 815 656 636
f 377 694 379
f 325 498 84
f 689 333 266
f 334 696 689
f 700 377 372
f 861 834 860
f 703 721 239
f 732 726 367
f 834 861 256
f 348 341 704
f 747 732 363
f 356 358 704
f 735 888 721
f 370 358 356
f 735 264 757
f 735 273 888
f 755 747 359
f 369 364 362
f 353 763 755
f 647 761 326
f 761 349 326
f 376 373 177
f 779 757 264
f 780 779 279
f 384 380 171
f 235 395 19
f 736 871 737
f 562 788 917
f 910 647 320
f 785 804 803
f 414 406 403
f 256 323 803
f 813 675 815
f 415 786 400
f 427 419 414
f 422 420 705
f 432 428 427
f 430 489 499
f 587 580 590
f 437 434 432
f 445 442 434
f 446 394 445
f 671 586 448
f 819 609 627
f 456 449 450
f 455 563 248
f 865 791 769
f 581 579 463
f 645 652 817
f 644 464 469
f 652 662 715
f 874 923 129
f 715 664 652
f 694 812 688
f 477 64 126
f 750 760 473
f 485 655 477
f 465 715 718
f 507 207 666
f 465 774 494
f 865 486 480
f 812 675 813
f 485 484 655
f 207 202 298
f 883 504 825
f 493 865 769
f 783 782 504
f 679 484 485
f 202 200 298
f 196 490 200
f 196 193 490
f 877 859 476
f 302 803 323
f 189 496 193
f 814 806 810
f 168 719 789
f 821 814 810
f 391 899 924
f 713 527 532
f 467 408 472
f 302 294 887
f 786 787 518
f 538 519 532
f 561 532 527
f 926 35 33
f 538 532 660
f 540 555 561
f 551 586 640
f 319 241 565
f 660 532 561
f 113 161 746
f 161 176 867
f 8 319 565
f 223 247 635
f 781 585 784
f 620 629 393
f 887 780 302
f 269 390 393
f 671 640 586
f 781 784 588
f 599 589 603
f 393 290 611
f 626 603 606
f 928 290 305
f 623 238 622
f 625 1 623
f 774 893 894
f 312 332 912
f 626 632 631
f 332 339 847
f 847 892 332
f 757 887 285
f 847 714 54
f 793 3 8
f 732 807 726
f 858 931 857
f 675 812 687
f 168 167 15
f 273 735 757
f 920 921 7
f 402 385 639
f 167 845 17
f 638 633 338
f 646 649 663
f 650 663 649
f 845 850 157
f 888 239 721
f 663 654 646
f 706 409 48
f 850 854 153
f 676 654 663
f 429 409 317
f 661 692 660
f 854 858 149
f 676 663 686
f 858 862 147
f 433 429 691
f 678 680 677
f 699 711 712
f 712 734 356
f 711 710 753
f 862 866 141
f 712 711 740
f 682 436 827
f 734 740 748
f 866 870 137
f 214 687 808
f 748 756 758
f 664 816 652
f 872 133 135
f 198 687 214
f 754 182 768
f 872 874 131
f 665 659 658
f 758 765 766
f 658 648 653
f 766 764 758
f 776 770 777
f 668 198 170
f 117 923 116
f 787 786 789
f 929 330 822
f 533 822 322
f 556 336 330
f 531 322 523
f 899 920 833
f 662 444 889
f 346 323 256
f 491 482 620
f 116 880 911
f 911 20 116
f 382 491 620
f 911 932 20
f 932 886 99
f 645 443 662
f 930 382 611
f 382 930 516
f 886 824 199
f 605 531 930
f 491 508 848
f 628 170 902
f 256 347 346
f 482 848 479
f 891 896 93
f 347 256 861
f 820 617 739
f 866 819 817
f 605 594 593
f 896 901 85
f 929 593 582
f 612 881 885
f 901 905 83
f 826 451 653
f 451 457 180
f 672 659 665
f 441 180 851
f 79 905 796
f 436 673 672
f 436 851 827
f 909 914 75
f 682 673 436
f 914 916 71
f 584 902 897
f 876 86 342
f 69 916 1
f 829 433 827
f 700 808 694
f 788 3 916
f 853 829 417
f 409 61 48
f 402 48 855
f 870 817 816
f 855 29 360
f 874 816 664
f 385 361 102
f 830 880 875
f 576 897 25
f 819 634 817
f 68 69 1
f 106 856 730
f 743 736 738
f 910 242 236
f 862 857 819
f 744 879 102
f 880 830 831
f 840 528 843
f 401 846 44
f 803 302 780
f 769 791 357
f 878 915 791
f 831 911 880
f 918 873 345
f 576 25 475
f 799 31 475
f 841 29 846
f 879 856 102
f 106 639 385
f 573 564 876
f 911 831 802
f 342 556 876
f 337 339 332
f 25 510 515
f 350 29 841
f 564 573 892
f 892 582 912
f 510 25 56
f 864 906 837
f 312 328 337
f 929 822 593
f 33 35 258
f 871 360 29
f 840 860 835
f 864 158 863
f 29 855 44
f 916 914 917
f 808 687 812
f 594 307 312
f 307 305 328
f 916 917 788
f 33 56 927
f 840 835 809
f 307 594 605
f 736 743 361
f 531 516 930
f 290 277 305
f 852 109 927
f 318 835 860
f 21 844 529
f 852 59 112
f 620 393 611
f 102 743 744
f 112 113 852
f 751 763 762
f 647 785 762
f 805 747 751
f 252 268 254
f 230 835 229
f 487 641 635
f 637 879 467
f 124 851 164
f 809 230 221
f 161 142 176
f 807 732 805
f 247 234 254
f 230 809 835
f 808 700 807
f 345 637 186
f 176 184 191
f 812 694 808
f 204 849 223
f 849 204 191
f 813 688 812
f 635 648 725
f 849 184 198
f 815 613 813
f 815 636 613
f 217 223 849
f 659 191 204
f 217 234 223
f 191 184 849
f 859 480 421
f 795 213 511
f 245 461 243
f 878 865 859
f 802 886 932
f 191 659 867
f 452 718 889
f 223 234 247
f 176 142 184
f 246 254 234
f 865 493 486
f 293 771 357
f 268 247 254
f 771 769 357
f 805 264 735
f 268 252 390
f 161 113 112
f 486 493 488
f 390 252 274
f 867 673 746
f 264 751 279
f 274 277 390
f 746 682 152
f 281 848 287
f 827 433 682
f 808 703 214
f 152 691 109
f 109 852 113
f 476 859 421
f 296 305 277
f 476 595 877
f 305 307 928
f 196 293 292
f 595 476 820
f 726 807 700
f 752 293 357
f 307 328 312
f 310 328 305
f 56 59 852
f 292 752 799
f 328 310 323
f 886 825 824
f 312 337 332
f 807 703 808
f 891 824 782
f 193 292 189
f 844 21 22
f 429 853 409
f 109 697 927
f 56 33 510
f 105 559 553
f 339 337 346
f 346 714 339
f 51 346 347
f 317 926 927
f 564 690 876
f 863 844 232
f 799 868 292
f 510 33 258
f 843 528 529
f 844 863 842
f 861 840 843
f 861 158 347
f 861 860 840
f 752 915 31
f 158 843 842
f 843 158 861
f 842 529 844
f 919 837 906
f 906 232 907
f 809 528 840
f 730 873 918
f 730 856 873
f 873 856 879
f 856 106 385
f 817 634 645
f 837 919 838
f 817 652 816
f 919 906 907
f 919 536 537
f 743 102 361
f 904 669 838
f 898 669 904
f 669 898 38
f 703 807 721
f 405 404 838
f 669 405 838
f 922 833 836
f 294 285 887
f 361 385 402
f 869 645 634
f 830 875 664
f 916 3 1
f 864 51 347
f 402 855 361
f 909 801 914
f 397 890 374
f 48 44 855
f 796 909 77
f 879 637 873
f 901 798 905
f 580 925 397
f 48 402 706
f 896 800 901
f 891 823 896
f 409 62 61
f 853 62 409
f 881 413 417
f 417 62 853
f 86 407 299
f 459 893 882
f 199 891 95
f 830 465 831
f 829 426 417
f 426 829 124
f 426 881 417
f 124 829 827
f 433 829 853
f 886 802 825
f 774 894 883
f 851 124 827
f 164 884 124
f 441 851 436
f 180 164 851
f 443 869 164
f 911 802 932
f 715 830 664
f 874 664 875
f 736 361 360
f 451 180 441
f 457 452 889
f 889 444 457
f 866 817 870
f 106 35 639
f 459 718 452
f 826 452 457
f 452 826 245
f 451 826 457
f 862 819 866
f 858 857 862
f 461 245 826
f 459 882 718
f 479 243 461
f 854 931 858
f 850 925 854
f 846 401 580
f 845 890 850
f 491 848 482
f 848 281 479
f 825 494 883
f 382 508 491
f 900 832 767
f 508 287 848
f 896 823 800
f 839 890 845
f 504 782 824
f 42 374 839
f 516 508 382
f 908 910 318
f 534 524 523
f 552 818 548
f 42 172 173
f 901 800 798
f 818 552 900
f 533 322 531
f 871 175 737
f 868 187 189
f 22 232 844
f 593 822 533
f 822 315 316
f 929 556 330
f 330 315 822
f 838 919 537
f 904 838 537
f 318 860 834
f 908 318 834
f 465 830 715
f 556 342 336
f 105 836 559
f 833 559 836
f 29 44 846
f 908 834 804
f 562 917 828
f 299 836 105
f 818 900 767
f 832 553 559
f 562 832 920
f 811 315 548
f 828 801 821
f 801 828 917
f 821 797 814
f 836 299 903
f 401 590 580
f 797 821 801
f 905 798 796
f 796 814 797
f 810 548 818
f 814 798 806
f 798 814 796
f 909 796 797
f 811 548 810
f 413 587 590
f 404 51 837
f 51 864 837
f 837 838 404
f 909 797 801
f 529 842 843
f 158 842 863
f 232 906 863
f 800 806 798
f 529 528 511
f 794 811 806
f 785 908 804
f 785 647 908
f 859 877 878
f 526 534 794
f 877 571 878
f 571 31 915
f 173 351 42
f 524 783 509
f 350 173 175
f 29 350 871
f 823 526 794
f 783 524 526
f 526 823 782
f 42 351 374
f 841 374 351
f 504 775 783
f 509 783 775
f 782 823 891
f 885 124 884
f 887 757 779
f 914 801 917
f 426 885 881
f 890 397 925
f 825 504 824
f 775 504 883
f 925 587 931
f 587 925 580
f 802 494 825
f 785 279 762
f 494 831 465
f 831 494 802
f 894 287 775
f 590 895 413
f 438 897 576
f 884 164 869
f 762 279 751
f 423 931 587
f 587 413 423
f 931 423 857
f 762 761 647
f 617 820 476
f 595 820 621
f 751 755 763
f 893 459 243
f 751 264 805
f 609 857 423
f 423 881 612
f 662 443 444
f 721 805 735
f 621 584 595
f 857 609 819
f 443 645 869
f 612 885 627
f 636 621 820
f 628 902 584
f 805 721 807
