# avbd fit, rung f600-i32-s300-g0.1 of Gate 6d (body space, fit phase only)
v -0.008018708 0.684413493 0.015075368
v -0.105593838 0.700419784 0.071789883
v -0.007929132 0.698552251 0.017313175
v 0.002399133 0.944640636 0.070526525
v -0.154620439 0.685987592 0.066062093
v 0.003798403 0.967782855 0.070943169
v -0.007782689 0.725774765 0.023076581
v -0.007639921 0.712295413 0.020014958
v -0.155385628 0.701689839 0.066718355
v 0.148349479 0.953025997 -0.085152440
v -0.174836308 0.698167920 0.058885820
v -0.193102881 0.700080991 0.044930845
v -0.201197416 0.701224923 0.028081501
v -0.176923364 0.697215080 -0.073289752
v 0.008823475 0.677299142 -0.055526752
v -0.158841163 0.693925977 -0.081660256
v 0.024160540 0.676127613 -0.058698911
v -0.141399115 0.694556713 -0.089757398
v -0.124389902 0.698579073 -0.098569199
v 0.201456860 0.660944819 0.015208115
v 0.001609082 0.914510548 0.069178380
v 0.000907747 0.899661362 0.068121277
v -0.105896160 0.693545222 -0.101454139
v -0.091612548 0.699961066 -0.097719170
v 0.100389518 0.854775548 -0.140180632
v -0.076953694 0.708379626 -0.094248973
v -0.136086106 0.922948003 -0.118110940
v -0.126213968 0.849088192 0.062598981
v 0.037931886 0.756540775 -0.090560302
v -0.138664573 0.858040452 0.056183916
v 0.072527505 0.883558631 -0.148815885
v -0.175682753 0.841088414 0.043551132
v 0.089868486 0.822516263 -0.122838631
v -0.207143500 0.696037054 -0.026263449
v 0.074297056 0.816621304 -0.115873612
v -0.158205330 0.926106155 -0.089537434
v -0.170810893 0.922251046 -0.048093334
v 0.013048267 0.809541225 0.037597850
v -0.171655089 0.925520122 -0.028505972
v -0.082058832 0.921004176 -0.142559052
v -0.024500068 0.903090596 0.067363940
v 0.010304634 0.723651350 -0.073332503
v -0.015623832 0.885475993 0.065916710
v 0.060506605 0.759111762 -0.098125212
v -0.034874249 0.886721253 0.065168746
v -0.165453196 0.931035817 -0.010660723
v -0.160649195 0.917405903 -0.000852580
v 0.071315058 0.775891900 -0.103392147
v -0.149867848 0.919868588 0.014802742
v -0.042491354 0.700664401 0.035930835
v 0.053955190 0.861250997 0.059222091
v -0.058569402 0.699947298 0.052945714
v -0.072465643 0.772091269 0.063152447
v 0.055040468 0.828726470 0.054505475
v -0.079704463 0.699163496 0.061381541
v 0.106733359 0.834071159 -0.127131596
v -0.095735684 0.769593418 0.072497241
v -0.166380316 0.778497934 0.066448331
v 0.122934863 0.848852515 -0.126261726
v -0.195538312 0.777436376 0.038991783
v 0.082086064 0.760785103 -0.104375303
v 0.102793075 0.756858826 -0.109972097
v -0.184105262 0.849640846 0.025870273
v -0.176723838 0.865454674 0.022844538
v -0.209373921 0.775448918 -0.026031217
v -0.202622294 0.769455194 -0.051064171
v -0.191872865 0.779239297 -0.067378357
v -0.002508077 0.673656940 0.005966634
v 0.012019673 0.673339128 0.011436328
v -0.180038050 0.767510474 -0.084564872
v 0.027006026 0.672246218 0.017807810
v -0.123894192 0.775528491 -0.113743916
v 0.039600059 0.670356929 0.027820081
v -0.024388524 0.808004856 -0.098724827
v 0.051352017 0.668524623 0.038798817
v -0.101582751 0.923402131 -0.136520356
v 0.062200148 0.666747212 0.051606230
v -0.119247399 0.925155342 -0.128738001
v 0.076906309 0.665892959 0.057748027
v -0.127462000 0.911898613 -0.129336730
v 0.091586150 0.665066719 0.063688442
v -0.143771440 0.936445534 -0.105537154
v 0.106090978 0.664225936 0.069556080
v -0.169375077 0.896188438 -0.073961906
v 0.120121039 0.663319111 0.075224102
v 0.040637210 0.795461059 0.049205463
v -0.125348225 0.920036316 0.045849472
v -0.129611224 0.848767400 -0.120550752
v -0.155327708 0.728092253 0.068681844
v 0.135778874 0.662751615 0.071552411
v -0.148290247 0.856703401 -0.110730268
v -0.016893914 0.849102199 0.056689221
v 0.149728164 0.663018882 0.065395653
v -0.035696939 0.852274120 0.056792032
v 0.163810402 0.662815869 0.059569459
v -0.022278572 0.867226958 0.062826641
v 0.177624598 0.662267268 0.053806912
v -0.014446598 0.919073880 0.068960287
v 0.188404039 0.661874831 0.041999456
v -0.068833575 0.933942795 -0.138305932
v 0.194872528 0.661642671 0.028679589
v 0.024419405 0.808680713 -0.099524491
v -0.094985195 0.906344533 -0.145122215
v -0.104869366 0.736943841 0.074155711
v 0.034654327 0.778832436 0.043880306
v 0.056399763 0.817131341 -0.114736721
v -0.124832951 0.895616651 -0.133204907
v -0.137584493 0.724650145 0.074708857
v 0.130547121 0.814435959 -0.112340853
v -0.139288068 0.885611057 -0.123810515
v 0.138367921 0.859504819 -0.120093212
v 0.143126950 0.844185472 -0.108995400
v 0.144849062 0.825455844 -0.106188454
v -0.161037743 0.744374156 0.067944892
v -0.153120920 0.876370609 -0.111562788
v 0.201837569 0.660461545 0.000310970
v 0.201932743 0.659833491 -0.013403255
v -0.196158022 0.736459911 0.042978171
v 0.153268158 0.860055745 -0.107241169
v -0.164507151 0.886574090 -0.092869766
v -0.177757472 0.885504901 -0.056997873
v -0.174248487 0.894170463 -0.040961776
v -0.060940146 0.875128150 -0.149009243
v 0.159072891 0.750704408 -0.092741951
v -0.152462155 0.882720947 0.039667264
v -0.167696372 0.880219460 0.022501301
v -0.107599579 0.874162674 0.054169774
v -0.117160082 0.888374329 0.050499789
v 0.201604038 0.659511924 -0.028400753
v -0.023875598 0.865970254 -0.139772952
v 0.193859473 0.659520149 -0.041508824
v -0.043762613 0.861608028 -0.142867833
v 0.185568660 0.659330010 -0.054025084
v -0.029909948 0.764719069 -0.088053003
v 0.176454768 0.659013033 -0.065993957
v -0.095222995 0.925552249 0.054480337
v 0.162619621 0.659235716 -0.073277995
v -0.077597521 0.921936393 0.061685663
v 0.148844033 0.659363866 -0.079330817
v -0.024760939 0.849875748 -0.135070890
v 0.135041133 0.659265399 -0.085331224
v 0.163712949 0.851469696 -0.095347546
v -0.026417926 0.835559011 -0.125594616
v 0.121782407 0.659872174 -0.090031147
v -0.045770057 0.843622386 -0.137834132
v -0.176768377 0.858171105 -0.079794407
v 0.106392898 0.660839915 -0.093608513
v -0.129530162 0.937246621 0.047649711
v 0.092565075 0.663596392 -0.088061504
v -0.034224190 0.786733508 -0.093640797
v 0.078490324 0.665974915 -0.083167776
v 0.147014752 0.808803558 -0.105182096
v 0.064383999 0.668247163 -0.078226350
v -0.109506905 0.814429462 -0.115142331
v 0.050265439 0.670397043 -0.073239699
v -0.067048728 0.745388627 -0.098719820
v 0.037429985 0.673399389 -0.065459646
v 0.045206003 0.890864372 0.066238262
v -0.186957806 0.830536664 -0.073149838
v -0.207667351 0.702833116 -0.005633901
v 0.161498189 0.833396733 -0.098459676
v -0.198358819 0.846936882 -0.025794242
v -0.205014303 0.816098571 -0.015713653
v 0.180175155 0.744252861 -0.079399981
v -0.205862522 0.804845154 -0.034752201
v -0.008769380 0.702547789 -0.065312490
v 0.012882710 0.692109585 -0.062146865
v -0.008706935 0.689839959 -0.060003895
v -0.008378264 0.715249896 -0.070588879
v 0.165805265 0.871787667 -0.091780812
v -0.200204656 0.808564484 -0.054455359
v -0.008330585 0.728436589 -0.074098840
v -0.008399886 0.741577268 -0.078365244
v -0.209052518 0.803788185 0.003986406
v -0.008162247 0.755302966 -0.080791757
v 0.176730245 0.840785027 -0.087188140
v -0.181007862 0.803799927 -0.086844943
v -0.113488756 0.679102302 -0.098290220
v -0.194647223 0.811145961 0.028322678
v 0.190644011 0.759881854 -0.066093348
v -0.193190813 0.795056880 0.039798509
v -0.095588796 0.801401794 -0.111337408
v -0.081362493 0.790008187 -0.107186876
v 0.178259060 0.856632054 -0.077590369
v -0.047777332 0.829370797 -0.126242056
v -0.003299696 0.841997743 -0.126874834
v -0.002924306 0.853995144 -0.133830294
v -0.089025617 0.906747460 0.059183538
v -0.002640000 0.867396474 -0.137497500
v -0.106834628 0.900928617 0.053509217
v 0.187041789 0.836233318 -0.070917502
v -0.095925555 0.888831019 0.054984868
v -0.002359848 0.881080627 -0.140089303
v -0.108099207 0.915473759 0.048874319
v -0.147360936 0.800704122 0.069374397
v -0.002121636 0.895100117 -0.139928430
v -0.100690223 0.941300213 0.049832884
v 0.177925885 0.875329375 -0.064342111
v 0.173375145 0.678675115 0.057774592
v -0.001954929 0.909072578 -0.138455719
v -0.112654902 0.931797147 0.045177087
v -0.001819740 0.922901750 -0.135719270
v -0.132934466 0.890639424 0.039911814
v 0.197577432 0.830650508 -0.052673854
v -0.137497514 0.907960057 0.042678751
v -0.197770149 0.843100727 0.010861824
v -0.001747516 0.936485767 -0.131702185
v -0.131963298 0.934288323 0.034920420
v -0.142684445 0.923566818 0.035259314
v -0.142579705 0.935521901 0.019242149
v -0.128537312 0.794468522 0.075118206
v 0.036069743 0.958845019 0.069588654
v 0.019369606 0.962256134 0.070243441
v 0.178067535 0.887569308 -0.041311972
v 0.002418204 0.929524064 0.069961198
v -0.154183611 0.934344590 0.003477739
v 0.188000917 0.867104709 -0.040517814
v -0.171984732 0.940552831 -0.020564839
v -0.168680340 0.938343346 -0.037284620
v -0.075455219 0.727005303 -0.097699091
v 0.028349420 0.950239539 0.069624878
v 0.183973879 0.878376603 -0.022883842
v 0.198445365 0.844304740 -0.032459266
v -0.166042253 0.937415719 -0.055098891
v -0.152942613 0.942841232 -0.088367887
v -0.127167910 0.939592481 -0.118443072
v -0.153225839 0.895819545 -0.108328484
v -0.105931148 0.727989256 -0.108359791
v 0.062679872 0.954481781 0.063201122
v 0.046526238 0.954146206 0.067410856
v -0.105787158 0.890971065 -0.141469479
v 0.000261807 0.885087013 0.066373758
v -0.112078607 0.908897281 -0.136954665
v 0.192495704 0.860579669 -0.018588718
v -0.124615394 0.719228387 -0.104015470
v 0.077430956 0.953724086 0.059482865
v -0.027465185 0.770218313 0.036692422
v -0.030390814 0.687144339 0.023495484
v 0.180490389 0.887563109 -0.006845128
v -0.182901219 0.879519343 -0.032881863
v -0.039084483 0.727472067 0.038063250
v 0.090608738 0.951546967 0.054251157
v 0.210845441 0.765418172 0.004824352
v -0.049901418 0.684616983 0.039490186
v 0.210277557 0.764789224 -0.014522269
v 0.187868997 0.872957885 -0.002588497
v 0.200022504 0.843171597 -0.007092636
v -0.050552480 0.736635864 0.052389562
v -0.069980912 0.683249772 0.056024004
v -0.092705242 0.684046865 0.065242954
v -0.087436602 0.728464842 0.066714056
v 0.181539297 0.862964272 0.018919677
v -0.089312352 0.713067949 0.066328675
v 0.194873393 0.858533502 0.001558656
v -0.044629149 0.870256543 0.062619001
v 0.084490329 0.886147320 0.060572885
v -0.105527721 0.719874382 0.073235378
v 0.069366224 0.826611519 -0.125864357
v -0.114669777 0.682294309 0.073925830
v -0.204031795 0.738376677 -0.046053886
v -0.121334948 0.730006158 0.079934373
v -0.133892924 0.696389794 0.074998453
v 0.061928242 0.836449504 -0.135805905
v 0.144534573 0.900963187 0.027899567
v -0.124370195 0.712693274 0.078983814
v -0.208571702 0.725007176 -0.034000013
v -0.138019115 0.679494739 0.072100490
v 0.193894595 0.845410526 0.016011516
v 0.190290600 0.831274688 0.026776811
v -0.120483220 0.903524995 0.043028351
v -0.145006388 0.712810159 0.071274683
v -0.170524508 0.680198073 0.058653854
v 0.167628735 0.876013279 0.027430857
v 0.168855041 0.859488368 0.038185485
v -0.176323488 0.731807113 0.061513525
v -0.166700587 0.715132535 0.063274607
v 0.168189585 0.843913555 0.051389296
v -0.187978178 0.682890713 0.050091796
v 0.135291800 0.908538520 0.046289466
v -0.187808409 0.716382384 0.055318743
v 0.204008177 0.761236548 0.026101742
v -0.039839979 0.956569970 0.069052592
v -0.198840067 0.717043877 0.035188846
v -0.017156497 0.938605785 0.069690704
v 0.156739503 0.872658432 0.043424733
v -0.148549095 0.897659659 0.037677791
v 0.194447890 0.756419837 0.046270657
v -0.145619109 0.907080293 0.025330892
v -0.207735270 0.711346269 0.015594481
v 0.162900791 0.827416301 0.060960274
v -0.157754257 0.894083679 0.023516698
v 0.022133376 0.879494846 -0.141516238
v 0.023511801 0.898638427 -0.141655162
v 0.140682891 0.869132519 0.051813930
v -0.028314143 0.935788035 -0.134203583
v 0.152511507 0.856710553 0.054061908
v -0.206667706 0.729644001 0.020460829
v -0.022262078 0.918150544 -0.138660520
v 0.022664882 0.794639409 0.039204013
v -0.023943629 0.712375760 -0.072237730
v -0.044029567 0.923466980 -0.140675381
v 0.123507440 0.876231372 0.052489579
v -0.049809672 0.939663112 -0.135621980
v -0.156213552 0.903578162 0.009113943
v 0.143960834 0.839336097 0.062691897
v -0.169457242 0.890667439 0.008257117
v 0.128932446 0.824812770 0.070370413
v -0.173415214 0.896751761 -0.023162795
v -0.180842295 0.887042880 -0.009654735
v 0.130089551 0.858272672 0.058501352
v -0.170223176 0.902239978 -0.004692792
v 0.109212026 0.831582725 0.072475925
v -0.205324560 0.683616996 -0.011625603
v -0.209085852 0.720711529 -0.000290949
v 0.095916957 0.753690243 0.072272398
v 0.115630999 0.752605259 0.080156013
v 0.101528421 0.795853257 -0.112197958
v 0.075998724 0.933174133 0.061140556
v -0.024093680 0.727739990 0.027095873
v 0.101883575 0.948382556 0.048709076
v -0.173961684 0.909787357 -0.035593662
v 0.126066938 0.768815398 0.079107463
v 0.104919851 0.866744637 0.059369236
v -0.209386557 0.728342533 -0.015461621
v -0.174181908 0.904723942 -0.055546056
v 0.110955477 0.943524837 0.045143675
v -0.162808925 0.907039642 -0.090926342
v 0.119938277 0.844887435 0.066080675
v -0.067472614 0.825793445 -0.125168398
v 0.084712774 0.770536244 0.068569466
v -0.203193814 0.679528177 -0.033938780
v 0.089235507 0.832179666 0.070435211
v -0.208422020 0.713021219 -0.020631399
v -0.196488589 0.720909536 -0.052475672
v -0.192111805 0.676259160 -0.049368892
v 0.064910747 0.767239273 0.060320865
v 0.098340906 0.849538982 0.069119245
v -0.070250854 0.804218173 -0.106758654
v 0.080440886 0.844532788 0.064824380
v -0.197256714 0.691661000 -0.045675453
v -0.189584762 0.734138489 -0.064738169
v 0.051877074 0.780445755 0.055462442
v -0.083957769 0.817027092 -0.116724789
v -0.182532132 0.682945132 -0.063240521
v 0.017479813 0.844611764 -0.130716771
v 0.079064116 0.863315701 0.061161209
v 0.062233787 0.879257679 0.063214935
v -0.183706433 0.716030836 -0.068703942
v 0.117702663 0.951483250 0.041275121
v 0.016771745 0.749593198 -0.081774630
v 0.018010151 0.735168993 -0.078958631
v -0.165347636 0.679779649 -0.075601056
v 0.127601832 0.948429942 0.035984378
v -0.131329462 0.815804780 -0.112409636
v 0.134698257 0.948682904 0.026895260
v -0.156392157 0.722228408 -0.089082047
v 0.046457525 0.907272458 -0.145390257
v -0.168423906 0.711030066 -0.080756359
v 0.142128214 0.949266434 0.016553398
v 0.031006586 0.773607850 -0.090543754
v 0.034757733 0.791271567 -0.094405137
v -0.145147681 0.802837074 -0.106303252
v 0.149435490 0.949589133 0.005557989
v -0.149283603 0.819527984 -0.104855344
v -0.109777227 0.939654469 -0.127502352
v -0.035144355 0.923123956 0.068252929
v 0.156732947 0.949654222 -0.005454928
v -0.146669731 0.678204834 -0.083461426
v -0.164306119 0.811439991 -0.098155126
v -0.152978256 0.706833482 -0.087518565
v -0.150405750 0.915641427 -0.106135212
v 0.162055477 0.949893475 -0.016081773
v -0.179708660 0.821628213 -0.087897599
v 0.030345965 0.721443713 -0.078746691
v -0.129472122 0.680205524 -0.091322020
v -0.190249369 0.814493358 -0.071329601
v 0.162753165 0.950236201 -0.029353872
v -0.140682414 0.904394507 -0.120308973
v 0.162095308 0.951169968 -0.043141283
v -0.196790680 0.829239726 -0.055240620
v -0.139447898 0.712154031 -0.095343977
v 0.175259501 0.790281951 0.063939288
v 0.159209922 0.951945424 -0.057267271
v -0.202961206 0.818840384 -0.038773354
v 0.046313047 0.806580842 -0.102432683
v -0.095370866 0.681723416 -0.095392272
v -0.025462130 0.695788145 -0.066573292
v 0.155623913 0.952873051 -0.071902283
v -0.200764686 0.832672298 -0.031744085
v 0.180989712 0.845494390 0.033574551
v -0.023234881 0.755164266 0.031692829
v 0.140374213 0.953878403 -0.098187566
v 0.179838330 0.825188458 0.044475816
v -0.062827550 0.824196458 0.057757936
v -0.107003175 0.709629595 -0.105024479
v -0.077005841 0.688085437 -0.089756958
v 0.049982689 0.722168744 -0.087565422
v -0.091153868 0.718502581 -0.101227127
v -0.060238224 0.703071833 -0.087333605
v -0.057493169 0.686236024 -0.081194259
v 0.072014883 0.744658589 -0.099775828
v 0.058260627 0.790930152 -0.100922763
v -0.181780189 0.806065083 0.052018404
v 0.043474782 0.843456924 0.054671008
v 0.036415551 0.827426076 0.047384638
v -0.179020435 0.823466301 0.046619587
v 0.030333018 0.810668468 0.043955795
v -0.030783057 0.820518613 -0.113038145
v 0.096846260 0.776232004 -0.110171676
v -0.160966709 0.833258152 0.059945107
v -0.059553050 0.731830895 -0.093446828
v -0.064223431 0.717966914 -0.091692813
v 0.104096070 0.734384298 -0.108116493
v -0.159908921 0.814803481 0.063424654
v -0.040733762 0.704014480 -0.079610690
v 0.129041344 0.953845620 -0.107307509
v 0.123129666 0.749732256 -0.110080257
v -0.048527393 0.720574200 -0.086914465
v -0.139931217 0.826078415 0.067080371
v -0.044314679 0.744433105 -0.091330223
v 0.115772687 0.954066932 -0.115923464
v -0.031666424 0.726638675 -0.080252498
v 0.111617647 0.713178992 -0.106531695
v -0.206688210 0.694144905 0.011054646
v -0.197411612 0.684212506 0.030820172
v 0.139156610 0.745899737 -0.101645708
v -0.132662922 0.810568929 0.071793661
v -0.116340294 0.820831656 0.073918551
v 0.120015897 0.785139740 -0.115545377
v -0.065651856 0.872921765 0.063262753
v -0.052908748 0.955723882 0.065494895
v -0.105874576 0.801749825 0.077986516
v 0.140271395 0.779160559 -0.106517926
v -0.094327033 0.816991627 0.072715111
v -0.077000722 0.858412266 0.063494183
v 0.176402599 0.783375382 -0.090358801
v -0.082406275 0.801851630 0.068432093
v 0.116522029 0.893221021 -0.136576653
v -0.068948627 0.841515839 0.060241856
v -0.088648200 0.845862031 0.069188446
v 0.188971013 0.777789533 -0.071339585
v -0.082424067 0.830156326 0.066528164
v 0.186499521 0.730020702 -0.067479774
v 0.194677413 0.742505848 -0.059016187
v -0.077032343 0.815834165 0.064218804
v -0.062723823 0.806207359 0.058069568
v -0.102492847 0.833485007 0.073014297
v -0.026217604 0.819769025 0.042672027
v -0.109042779 0.848010242 0.066978216
v -0.097873844 0.860661864 0.062644467
v 0.200657487 0.774882674 -0.053128470
v 0.210075706 0.751338899 -0.027417060
v -0.056173723 0.855515480 0.058332849
v -0.122649930 0.835800052 0.067920133
v -0.041716274 0.756013393 0.044100974
v -0.118636116 0.861667752 0.059355062
v 0.203880429 0.756237388 -0.048214890
v -0.131981283 0.874775112 0.050904602
v 0.210606292 0.749282241 -0.006987556
v -0.157946289 0.850636005 0.054682333
v 0.209798485 0.785022736 -0.011019777
v -0.142068237 0.841968715 0.061772514
v -0.055372804 0.888617158 0.063661948
v -0.153088823 0.866882682 0.049353741
v 0.208618790 0.716288447 -0.003258336
v -0.057523347 0.921171844 0.065358862
v -0.004343904 0.820627391 -0.108355537
v -0.052795857 0.938097656 0.066465497
v -0.164305940 0.870492339 0.035105444
v -0.189491689 0.831333756 0.027538259
v -0.036047451 0.942287922 0.069011763
v -0.003766556 0.831182182 -0.117892846
v -0.079327896 0.954771638 0.058673270
v -0.203780055 0.823876202 0.009711573
v 0.079189576 0.866281986 -0.147392392
v 0.121827923 0.929437339 -0.125985250
v -0.180996448 0.876710057 0.007702953
v -0.066073231 0.955097377 0.062096346
v 0.208207935 0.782395005 0.016402045
v 0.100645438 0.953603446 -0.122425556
v -0.170203745 0.913766503 -0.017144270
v 0.199212939 0.795889258 0.029932853
v -0.201511383 0.835377991 -0.010091549
v -0.196357340 0.854107022 -0.009431771
v -0.188576341 0.870471179 -0.011668591
v 0.084509708 0.952593446 -0.125726551
v 0.202156022 0.827573776 0.011205782
v 0.068060331 0.952068985 -0.127924591
v -0.076314077 0.889633000 0.060451817
v -0.018427406 0.899502397 -0.141120866
v 0.190288320 0.787658811 0.047322817
v 0.051222526 0.951390386 -0.128772497
v 0.061342515 0.939881206 -0.135307938
v 0.204468042 0.709683836 0.022688374
v -0.069768950 0.937681317 0.062377237
v -0.022782572 0.882908344 -0.142124265
v -0.196221158 0.848528683 -0.045700010
v -0.168473929 0.919175804 -0.070886306
v -0.086281531 0.874218643 0.059452511
v 0.033748802 0.950916111 -0.128650516
v -0.187768847 0.846463561 -0.065986231
v 0.016023647 0.949786305 -0.126289710
v -0.162102208 0.848309398 -0.096980773
v 0.183155000 0.715774715 0.058009334
v -0.177967295 0.840236187 -0.085671052
v 0.015779078 0.939760506 -0.131254196
v -0.001947586 0.948369682 -0.123934940
v 0.186705023 0.771659076 0.057431139
v 0.176271409 0.751484811 0.063427962
v 0.083860353 0.835967362 -0.136715531
v 0.019355919 0.934858441 0.071378008
v -0.162637502 0.867078006 -0.094283275
v -0.163267046 0.830168605 -0.098693781
v -0.161447838 0.938806534 -0.072975412
v 0.068456121 0.851045907 -0.144209534
v 0.161896273 0.769465089 0.068177238
v -0.143162549 0.836815834 -0.108255640
v -0.048344105 0.671413958 -0.073005937
v -0.114026763 0.840058684 -0.129334629
v -0.061883800 0.669736505 -0.077981815
v -0.075420313 0.667984545 -0.082931623
v -0.121910706 0.830836773 -0.117439568
v 0.140080869 0.758314312 0.074760310
v 0.154679656 0.744816244 0.070450470
v -0.088926010 0.666090846 -0.087822095
v 0.147089839 0.723596931 0.071600944
v -0.120360456 0.877709687 -0.136015773
v 0.036343902 0.925925374 0.076324873
v 0.023785375 0.915864289 0.069006935
v -0.102126464 0.663913071 -0.093038075
v 0.141873866 0.779392362 0.073853664
v -0.112870649 0.857735634 -0.136550844
v 0.123557985 0.783776641 0.078042470
v 0.131923705 0.738203704 0.077841505
v -0.116985336 0.662766814 -0.092784874
v -0.000747199 0.857200265 0.059896212
v -0.001171593 0.844216645 0.054567873
v -0.095331505 0.840201080 -0.137148812
v -0.130370453 0.662491918 -0.088203728
v -0.082676902 0.887414753 -0.148086831
v -0.101378836 0.828738093 -0.123386979
v -0.142716855 0.662255406 -0.082865104
v -0.155845329 0.662561774 -0.077224277
v -0.169024676 0.662593246 -0.071521655
v -0.046586983 0.835067093 0.051954217
v -0.023754235 0.834802449 0.051352520
v 0.078168474 0.756131768 0.065275133
v 0.081370100 0.739928126 0.065475479
v -0.180336237 0.662898421 -0.062152095
v -0.189073429 0.663378119 -0.050801378
v -0.027830318 0.786672711 0.040100895
v 0.063177347 0.749660909 0.058780443
v 0.044824593 0.761700988 0.051284105
v -0.196797699 0.663773358 -0.038903531
v -0.079232499 0.868905544 -0.148297265
v 0.071064793 0.783661604 0.063489661
v -0.202649087 0.664072752 -0.025869885
v -0.047537833 0.774687350 0.053139020
v 0.027654147 0.762673855 0.037551079
v -0.032443233 0.741373599 0.035680946
v -0.099494860 0.872949719 -0.143718645
v 0.024615830 0.725819826 0.030057967
v -0.059894949 0.756108284 0.057470940
v 0.065512352 0.813911736 0.059193701
v -0.033324998 0.714709401 0.030965144
v -0.048913620 0.715855479 0.046438657
v -0.059380166 0.893685460 -0.147820577
v -0.075921394 0.904182136 -0.148257345
v -0.065857597 0.789042771 0.061149098
v -0.060587686 0.913998425 -0.145575762
v 0.094171889 0.897370517 -0.145584196
v -0.202636987 0.664488852 -0.011787460
v 0.076486513 0.800149739 0.066408567
v -0.068514213 0.719014704 0.058580153
v -0.088713929 0.785866797 0.070320778
v 0.099680230 0.877643764 -0.143467039
v -0.071432725 0.739667118 0.061047394
v -0.081031024 0.756538808 0.065978289
v -0.066854291 0.905474186 0.063114986
v 0.068964295 0.726115108 -0.094930209
v -0.045368455 0.905052960 0.066085786
v 0.094120212 0.804039776 0.073871836
v -0.089384682 0.743214011 0.068405561
v 0.138298795 0.891259551 -0.124409750
v -0.202546045 0.664692760 0.001344591
v -0.026288886 0.803026378 0.042316269
v 0.088845886 0.716787100 -0.099656105
v -0.195739925 0.666135311 0.028012836
v -0.122022770 0.765204370 0.080008283
v 0.084487125 0.732963085 -0.101839378
v -0.189702585 0.666341424 0.040755641
v -0.102796242 0.753659189 0.074463412
v 0.108593181 0.793877244 0.079298891
v 0.114240482 0.812422872 0.076958634
v 0.130129576 0.910472989 -0.128273830
v -0.180988342 0.666351378 0.052422859
v -0.109775320 0.782841146 0.078767970
v -0.167898506 0.666601360 0.057909865
v -0.122998811 0.747185111 0.080102906
v -0.154599383 0.666576207 0.063446864
v -0.141227454 0.666010857 0.069065966
v -0.130809560 0.779926062 0.076239571
v -0.142725557 0.754720092 0.073592983
v -0.128846616 0.666018903 0.074731164
v 0.132477477 0.801165223 0.073707864
v -0.146237403 0.770580351 0.072544143
v -0.113320574 0.666284978 0.072098300
v -0.099439472 0.666671395 0.066516489
v 0.131465748 0.706704259 -0.097156934
v -0.148110166 0.786309004 0.070965238
v 0.169332817 0.809933066 0.062193662
v 0.132746100 0.720319211 -0.100014903
v 0.156007156 0.937079728 -0.087294504
v -0.085443214 0.667012453 0.060884483
v -0.140646249 0.738972068 0.074651048
v -0.071350336 0.667391837 0.055216480
v 0.132717982 0.941094220 -0.112700388
v -0.057372678 0.667959332 0.047154550
v -0.048635073 0.669393361 0.034938864
v 0.185962096 0.805197895 0.045921683
v 0.146825820 0.907307029 -0.112575032
v -0.038457405 0.670800447 0.023734760
v -0.026503935 0.671940148 0.014638254
v -0.165824920 0.796343803 0.064949900
v -0.021955620 0.683286071 0.007271675
v -0.164495021 0.761326194 0.066700086
v 0.147639841 0.715663671 -0.091577150
v 0.156944662 0.890355408 -0.105012417
v 0.194662035 0.814135551 0.027279934
v -0.185245842 0.787306368 0.056174874
v -0.182873413 0.749993443 0.060778242
v -0.186236978 0.769116104 0.058441859
v -0.046598490 0.804702759 -0.101342440
v 0.164164677 0.710873127 -0.082294531
v 0.203414485 0.824372470 -0.012045379
v 0.152150244 0.922668338 -0.101799905
v 0.011386335 0.832345665 -0.119712189
v -0.056394916 0.816465259 -0.114296213
v 0.067545816 0.805562377 -0.106194839
v -0.045624983 0.795046926 0.051477473
v 0.208554298 0.805410981 0.005101694
v -0.197040394 0.758238971 0.040458463
v -0.204243705 0.789930701 0.022163816
v -0.169648677 0.856730938 0.039096951
v 0.182372391 0.713368714 -0.069421992
v -0.207486719 0.749240816 0.021273943
v 0.109616622 0.930603385 0.057306956
v 0.206585675 0.805725574 -0.021173835
v -0.206716940 0.769583881 0.020013586
v -0.210636213 0.781600118 -0.000904858
v -0.208878011 0.794471741 -0.018650748
v 0.192231566 0.704970181 -0.054263104
v 0.207679540 0.790373921 -0.036649723
v -0.210504889 0.739541531 0.000215947
v -0.189924508 0.860964656 0.009001388
v 0.161076427 0.906544805 -0.095121406
v -0.025957618 0.957610011 0.069793820
v 0.203654557 0.809681892 -0.046855442
v 0.191544026 0.814013124 -0.068511844
v -0.087602958 0.855066180 -0.143878803
v -0.063657522 0.856141210 -0.145497680
v 0.195896953 0.723216891 -0.053039115
v -0.210752279 0.759971738 -0.005967799
v 0.201991886 0.695447087 -0.039475664
v 0.198496699 0.793515503 -0.058599632
v -0.019551173 0.950043380 -0.126922175
v -0.036791731 0.951077819 -0.129051611
v 0.167021260 0.890998662 -0.080998130
v 0.016836848 0.824653029 0.043621056
v -0.053327203 0.951449215 -0.128968403
v -0.045593090 0.814002335 0.049755204
v 0.187917784 0.794819236 -0.075750619
v 0.178869158 0.804164410 -0.089705981
v -0.069461994 0.952084184 -0.127991319
v 0.168851957 0.910454750 -0.075766683
v -0.209868044 0.742557704 -0.022565560
v -0.085303210 0.952995420 -0.125639305
v -0.091204628 0.938079536 -0.134234399
v -0.191149086 0.861792445 -0.031120356
v -0.100776874 0.954480827 -0.122157358
v -0.115394332 0.955040097 -0.115462497
v 0.158226833 0.793228626 -0.099704303
v -0.205232531 0.788826406 -0.048215654
v -0.186036468 0.865958393 -0.056206189
v -0.172133893 0.876119435 -0.075109571
v -0.209707379 0.756989360 -0.035156120
v 0.173124701 0.898237348 -0.058943518
v 0.165425554 0.938424468 -0.057472002
v -0.203240633 0.708059430 -0.041084100
v 0.048025638 0.812201500 0.051335871
v 0.136956707 0.796103477 -0.109168150
v -0.069526449 0.838349521 -0.138455048
v -0.192216843 0.796768308 -0.069248542
v 0.169178233 0.933339000 -0.042411521
v -0.083119795 0.828334928 -0.130321175
v -0.189846233 0.702909529 -0.057611655
v 0.119744360 0.801832557 -0.116563141
v -0.197276741 0.751149297 -0.057586022
v -0.180818290 0.748051524 -0.079391681
v 0.169354185 0.930937886 -0.025468528
v -0.189786047 0.763073325 -0.067935675
v -0.181304559 0.785605848 -0.086089179
v 0.173481554 0.896674037 -0.020826291
v -0.174818248 0.728601158 -0.081303790
v -0.025386265 0.744335532 -0.082023896
v 0.081176333 0.791728735 -0.106681824
v -0.128345355 0.955069840 -0.107041202
v -0.139419824 0.955375671 -0.097527325
v -0.163017288 0.793720663 -0.098188370
v -0.161930978 0.775661290 -0.096437350
v -0.161611721 0.757468820 -0.093274601
v -0.160066545 0.739436507 -0.090899758
v -0.135898381 0.866024196 -0.125947371
v 0.063367620 0.845272362 0.058763783
v 0.208109856 0.715451360 -0.032342292
v -0.155065656 0.954715729 -0.071047395
v -0.158416659 0.953845978 -0.055970907
v 0.209400699 0.732969880 -0.019279074
v -0.008327181 0.676802397 -0.055580325
v -0.161561146 0.953124702 -0.040669538
v 0.168697029 0.899242878 0.001112647
v -0.162266746 0.950559616 -0.024855789
v -0.161458656 0.943110108 -0.010148139
v -0.157734483 0.954043746 -0.008380772
v 0.202413961 0.823147178 -0.032872465
v 0.164585888 0.934844792 -0.010348503
v -0.149489999 0.952625573 0.004345682
v -0.141638353 0.951157749 0.016467992
v -0.133366257 0.949005246 0.028072480
v 0.048764862 0.828878105 -0.125753805
v -0.125164971 0.945425332 0.038294859
v 0.156959265 0.930231690 0.001987485
v -0.112465739 0.944335103 0.044115946
v -0.141302139 0.730176091 -0.098235160
v 0.159706667 0.892344475 0.017643562
v 0.014006346 0.780598760 -0.087171406
v -0.007553599 0.769087911 -0.084165037
v -0.007206024 0.783417761 -0.086430691
v 0.146078259 0.939177990 -0.101875246
v -0.142591342 0.748193443 -0.100784138
v -0.005922259 0.797933698 -0.090937369
v -0.142916605 0.784916282 -0.106230870
v 0.012185704 0.797125876 -0.090957522
v -0.005078987 0.810464203 -0.098312303
v -0.116978586 0.954065681 0.040782440
v 0.162892699 0.814898193 -0.098315857
v 0.148830429 0.931188405 0.017060431
v -0.124913380 0.738019228 -0.107618868
v -0.104521118 0.954289436 0.046587914
v -0.091938257 0.954515278 0.052991115
v 0.139222607 0.919268250 0.030322362
v 0.046687268 0.888611436 -0.145757794
v -0.142923281 0.766402185 -0.103768609
v -0.122618660 0.796250582 -0.115777612
v 0.138930246 0.936278820 0.029834816
v -0.124555096 0.756452560 -0.110834733
v 0.155566767 0.887914836 0.035468254
v -0.104138955 0.746906877 -0.109866403
v -0.002652067 0.808006942 0.036602832
v -0.086011492 0.938999474 0.057755321
v 0.122570932 0.939085841 0.050293792
v 0.128158331 0.924071908 0.050195508
v 0.126362160 0.933301747 0.039427415
v -0.087940678 0.737436473 -0.104118779
v -0.101973996 0.765174031 -0.111070693
v -0.082929209 0.755804241 -0.104467645
v 0.042620786 0.732116520 0.042753614
v -0.101286292 0.783594728 -0.112125553
v 0.050910972 0.924540162 -0.140852496
v -0.079521857 0.773817420 -0.105865493
v 0.025599753 0.916040778 -0.139590666
v -0.042271249 0.880553126 -0.145706907
v -0.039426573 0.902320862 -0.144806415
v 0.207162708 0.727886319 0.019539427
v 0.191130668 0.736037612 0.053233944
v -0.055220298 0.765711606 -0.097973242
v -0.059910752 0.786974549 -0.101265870
v -0.147593528 0.954736710 -0.084405430
v 0.143138736 0.895282149 0.044089209
v 0.124381162 0.893074512 0.042775892
v -0.204466909 0.678675592 0.009524098
v 0.161923856 0.709033668 0.064900920
v 0.168920651 0.729986548 0.064507440
v -0.202062175 0.665430427 0.015327620
v 0.112944603 0.910917759 0.047276057
v -0.038872045 0.686534524 -0.072563693
v -0.036298379 0.674022079 -0.065023422
v 0.012340184 0.710245490 0.021252465
v -0.023726245 0.676315784 -0.057896860
v 0.004493239 0.956166089 0.070679471
v 0.067811057 0.917455316 -0.144444063
v -0.011381894 0.958177865 0.070422746
v -0.025876412 0.702623606 0.023777504
v 0.124669492 0.718081057 0.079632923
v 0.035310559 0.944368482 0.077701300
v 0.075801753 0.684173882 0.058862329
v 0.064268373 0.696551263 0.055295277
v 0.097277775 0.693593442 0.068471685
v 0.049146049 0.867179871 -0.145069391
v 0.117576614 0.698092580 0.076956116
v 0.048948925 0.699950874 0.042807844
v 0.200522572 0.691496611 0.027105683
v 0.107194111 0.887868524 0.052520961
v 0.096426688 0.903156757 0.056309931
v 0.154222652 0.911948860 0.011521739
v 0.101448759 0.712109089 0.071589887
v 0.167722449 0.915322483 -0.011043596
v 0.174169987 0.911216855 -0.036482252
v 0.040493004 0.936978638 0.068574585
v 0.082440123 0.721975446 0.064757682
v 0.104402222 0.733358383 0.074319348
v 0.170799300 0.919477284 -0.057205427
v 0.164336041 0.929656863 -0.073135212
v 0.081282094 0.703762650 0.062885053
v 0.160836667 0.921097636 -0.086905584
v 0.188063338 0.687195420 -0.056246541
v 0.171644837 0.693922162 -0.074969694
v 0.061177276 0.730530381 0.056790181
v 0.145370290 0.695187509 -0.087671891
v 0.138557449 0.924794793 -0.114963196
v 0.063046105 0.712373137 0.056243353
v 0.104620695 0.772423863 0.076831177
v 0.141148344 0.702556431 0.072748743
v 0.177446455 0.696347833 0.058320213
v 0.194324255 0.702885687 0.042856053
v 0.209037304 0.771249115 -0.032516494
v 0.159149781 0.771866858 -0.096540526
v 0.045390882 0.716628432 0.042337365
v 0.140999228 0.761632323 -0.103383288
v 0.207422897 0.700212240 -0.016019832
v 0.206967667 0.697024703 0.006176550
v 0.033337262 0.745662808 0.038638726
v 0.010206093 0.764053702 0.030701976
v 0.080558315 0.910017610 0.062608294
v 0.057363234 0.937040687 0.065675311
v 0.016221104 0.779515624 0.034296755
v 0.032406099 0.857523084 0.058971830
v 0.020885231 0.839935303 0.053512983
v 0.018305710 0.707554400 -0.069933340
v 0.049957763 0.921184421 0.066654958
v 0.035334449 0.737928987 -0.085589424
v 0.030538818 0.900565922 0.066918567
v 0.042639859 0.908338666 0.071742631
v 0.015132530 0.900420189 0.067605257
v 0.032656625 0.691316664 -0.069399334
v 0.053646553 0.741020322 -0.093415633
v 0.072428092 0.829966545 0.062213957
v 0.197108790 0.775310159 0.036687139
v 0.190332994 0.852682769 -0.057042461
v 0.054320890 0.687368274 -0.079980455
v 0.177999973 0.763778090 -0.085700370
v 0.125390977 0.831743538 -0.115495861
v 0.122115947 0.767434061 -0.113495983
v 0.078589298 0.683614433 -0.088701122
v 0.049361788 0.774753094 -0.097498812
v 0.036624357 0.818364501 -0.113096081
v 0.119229354 0.693397522 -0.099205881
v 0.101984158 0.679597080 -0.096858077
v 0.102944300 0.933608711 -0.131920695
v 0.065784715 0.920349479 0.065559551
v 0.062252861 0.900986314 0.063463740
v 0.127672762 0.677217364 -0.091183588
v 0.025222842 0.886168480 0.065684251
v 0.040015571 0.873932719 0.063463777
v 0.081055455 0.933999717 -0.137347281
v 0.151754558 0.676759124 -0.080568515
v 0.179968119 0.823286831 -0.086951002
v 0.022418294 0.860388637 -0.138106197
v 0.175504193 0.725161910 -0.079637825
v 0.173565611 0.675372481 -0.070814028
v 0.015122294 0.764725447 -0.084584281
v 0.186674923 0.671599627 -0.054992903
v 0.029641341 0.832163930 -0.123116627
v 0.198676199 0.676302552 -0.039337695
v 0.205648258 0.685640454 -0.024090257
v 0.058607377 0.797468364 0.057967342
v 0.109676525 0.913641572 -0.136288658
v 0.088827990 0.917249858 -0.142895326
v 0.016529584 0.820303261 -0.109904803
v 0.205099702 0.682919979 -0.005792183
v 0.126025721 0.732977450 -0.105907455
v 0.210023284 0.734220982 0.000624276
v 0.197507143 0.722229898 0.038726706
v 0.161568984 0.730814815 -0.087806560
v 0.144811839 0.732419848 -0.096532471
v 0.190152496 0.682110250 0.045595285
v 0.139835685 0.882315814 0.045148492
v 0.175520867 0.882201970 0.010829823
v 0.206322864 0.736225247 -0.041841924
v 0.042567104 0.705122828 -0.080507800
v 0.156293288 0.686039090 0.065803900
v 0.082044289 0.816313624 0.067231156
v 0.210631207 0.746714115 0.014415203
v 0.201094463 0.741591871 0.033688985
v 0.089480445 0.746279180 -0.105034329
v 0.135200113 0.681225359 0.073838949
v 0.124058917 0.871819317 -0.134449363
v -0.002262509 0.820884526 0.040366326
v -0.006217140 0.752987981 0.027667204
v 0.047612645 0.743932903 0.051426470
v 0.111726061 0.680379748 0.073166087
v 0.147866890 0.875638604 -0.116727129
v -0.003511535 0.794990540 0.032909211
v -0.001672612 0.831594110 0.048862439
v 0.093403392 0.677707016 0.065452524
v 0.019217331 0.870764732 0.064085275
v -0.000277542 0.870723724 0.064638838
v 0.094464898 0.921092629 0.055465974
v 0.054598115 0.683369696 0.047575038
v 0.092402078 0.938188195 0.059826612
v 0.204241186 0.678483844 0.012176874
v 0.096849389 0.819234729 0.074536189
v 0.035941053 0.934356689 -0.135669634
v 0.038445733 0.686302841 0.031655859
v 0.069492668 0.901092410 -0.148545220
v 0.016760465 0.690691888 0.019972282
v 0.032032106 0.705179214 0.029755723
v 0.041552860 0.845776081 -0.137807459
v 0.013919962 0.855859160 0.059313439
v 0.014422466 0.744646668 0.028348655
v -0.006972968 0.739391208 0.025181687
v -0.005010901 0.780797720 0.031121776
v 0.203738526 0.672367811 -0.018722564
v -0.005513054 0.766777575 0.029799873
v 0.068111733 0.704872668 -0.090140015
v 0.088253096 0.808831811 -0.111051224
v 0.108339682 0.817492664 -0.114701137
v 0.148324341 0.815577805 0.067016408
v 0.090180084 0.787087798 0.071514867
v 0.154715046 0.794849873 0.068738803
v 0.093869969 0.698167562 -0.097718321
v 0.196797982 0.675000429 0.029022809
f 555 540 123
f 389 162 497
f 567 540 568
f 583 104 251
f 463 489 430
f 453 94 255
f 483 484 162
f 446 640 671
f 574 577 251
f 50 244 238
f 52 244 50
f 575 57 53
f 55 249 52
f 55 2 250
f 577 248 563
f 575 437 432
f 57 597 589
f 2 265 262
f 589 592 57
f 262 259 2
f 5 267 262
f 602 606 589
f 5 9 11
f 58 606 610
f 11 272 5
f 12 278 11
f 565 793 8
f 630 60 632
f 13 425 12
f 424 289 160
f 289 424 13
f 643 649 60
f 181 403 179
f 483 206 484
f 163 651 174
f 53 563 558
f 651 65 650
f 163 389 384
f 683 66 65
f 455 558 563
f 165 384 171
f 340 331 34
f 67 66 683
f 206 470 63
f 385 102 856
f 67 702 70
f 344 340 696
f 179 403 406
f 710 70 702
f 16 352 14
f 111 112 59
f 63 64 655
f 18 368 16
f 710 742 753
f 119 112 111
f 394 671 545
f 551 922 903
f 19 375 18
f 753 740 711
f 406 470 179
f 261 615 108
f 545 453 439
f 178 386 530
f 24 386 23
f 72 753 742
f 26 396 24
f 768 765 72
f 119 142 112
f 32 63 470
f 112 142 161
f 399 400 396
f 154 343 182
f 545 671 448
f 399 415 400
f 768 770 765
f 32 406 410
f 418 415 399
f 770 183 777
f 387 300 166
f 415 418 422
f 105 86 299
f 169 42 839
f 170 142 119
f 173 172 705
f 329 638 343
f 134 738 737
f 185 638 329
f 692 661 145
f 150 74 741
f 637 345 873
f 132 145 661
f 170 184 142
f 138 495 760
f 138 136 188
f 136 194 188
f 201 87 194
f 270 87 205
f 216 49 210
f 46 216 724
f 198 184 170
f 43 96 907
f 219 39 218
f 45 43 41
f 224 37 219
f 498 224 514
f 86 105 342
f 225 36 514
f 378 107 110
f 80 233 107
f 22 41 43
f 198 217 849
f 41 581 45
f 103 233 76
f 76 40 103
f 222 217 214
f 678 100 40
f 98 41 22
f 366 41 98
f 40 76 678
f 215 4 284
f 215 98 21
f 537 536 92
f 222 234 217
f 904 537 92
f 460 462 30
f 284 471 366
f 222 239 246
f 586 903 759
f 462 28 30
f 246 234 222
f 454 449 28
f 237 391 924
f 560 319 921
f 246 888 252
f 431 471 282
f 455 560 391
f 319 560 241
f 50 238 793
f 50 566 52
f 52 574 55
f 258 263 510
f 244 52 249
f 55 253 2
f 284 792 657
f 303 670 667
f 303 100 674
f 250 249 55
f 273 274 252
f 251 253 574
f 100 303 301
f 301 570 100
f 104 261 257
f 677 100 678
f 273 285 274
f 257 2 253
f 2 257 265
f 250 2 259
f 570 568 40
f 752 292 293
f 294 296 285
f 285 296 274
f 684 497 679
f 277 274 296
f 440 447 442
f 579 489 463
f 692 329 695
f 259 262 267
f 871 736 360
f 262 271 9
f 40 100 570
f 570 567 568
f 203 128 270
f 310 296 294
f 305 296 310
f 87 270 194
f 9 5 262
f 5 272 600
f 276 9 271
f 9 276 11
f 272 11 278
f 302 323 310
f 568 103 40
f 108 615 89
f 280 11 276
f 11 280 12
f 103 568 540
f 278 12 425
f 323 337 328
f 283 12 280
f 12 283 13
f 283 297 289
f 289 13 283
f 540 561 231
f 425 13 424
f 209 288 205
f 291 125 286
f 346 337 323
f 49 304 288
f 173 350 351
f 297 654 314
f 347 158 864
f 304 47 311
f 47 304 49
f 47 46 481
f 360 361 855
f 501 684 146
f 481 311 47
f 46 39 481
f 343 695 329
f 314 289 297
f 289 314 160
f 481 321 308
f 481 39 321
f 325 122 321
f 325 321 37
f 37 321 39
f 333 160 314
f 324 266 333
f 527 107 231
f 84 121 325
f 36 327 498
f 160 333 34
f 327 120 84
f 36 82 371
f 277 393 390
f 689 34 333
f 34 689 340
f 313 34 331
f 266 334 689
f 334 260 341
f 340 335 331
f 107 527 110
f 54 404 405
f 696 14 344
f 61 401 44
f 38 299 407
f 358 14 348
f 14 358 16
f 344 14 352
f 356 704 712
f 352 16 368
f 413 62 417
f 370 16 358
f 16 370 18
f 175 705 134
f 713 115 110
f 371 27 378
f 27 371 82
f 381 18 370
f 18 381 19
f 368 18 375
f 80 378 27
f 19 381 235
f 19 395 23
f 19 23 178
f 202 506 913
f 23 395 24
f 386 24 396
f 398 24 395
f 24 398 26
f 26 398 220
f 26 412 399
f 396 26 399
f 418 399 412
f 164 180 444
f 444 443 164
f 175 173 705
f 685 84 120
f 422 300 415
f 685 121 84
f 172 169 300
f 172 300 422
f 78 80 27
f 226 365 78
f 89 615 114
f 240 485 309
f 134 737 175
f 226 27 82
f 245 459 452
f 187 186 140
f 243 459 245
f 189 187 130
f 581 466 579
f 467 472 637
f 308 122 240
f 138 579 466
f 430 255 463
f 499 435 430
f 453 430 435
f 435 440 439
f 435 499 450
f 243 479 281
f 308 321 122
f 897 438 584
f 439 453 435
f 243 281 893
f 450 440 435
f 480 859 865
f 440 449 447
f 442 439 440
f 450 449 440
f 447 449 454
f 492 488 493
f 127 458 456
f 449 456 28
f 82 225 708
f 454 28 462
f 28 456 30
f 456 450 127
f 30 456 458
f 225 82 36
f 30 464 460
f 506 507 502
f 126 469 125
f 287 508 509
f 207 507 506
f 410 460 32
f 126 306 477
f 460 464 644
f 644 32 460
f 32 644 63
f 475 31 576
f 470 406 32
f 64 63 644
f 306 309 477
f 125 464 458
f 528 795 511
f 516 523 524
f 655 206 63
f 206 655 484
f 206 474 470
f 162 679 497
f 316 322 822
f 313 160 34
f 37 498 325
f 523 316 534
f 497 684 501
f 501 146 505
f 146 512 503
f 505 503 513
f 263 515 510
f 512 120 115
f 503 512 91
f 517 513 503
f 115 713 91
f 458 203 125
f 315 547 548
f 91 512 115
f 547 330 336
f 91 713 88
f 517 88 522
f 552 548 547
f 532 88 713
f 88 532 519
f 552 336 553
f 522 519 541
f 527 231 561
f 127 128 458
f 538 660 692
f 514 36 498
f 224 498 37
f 538 692 695
f 114 626 631
f 553 342 105
f 219 37 39
f 555 660 561
f 127 450 499
f 891 199 824
f 660 555 661
f 218 39 46
f 199 97 886
f 366 98 284
f 22 21 98
f 41 366 581
f 43 232 22
f 907 232 43
f 96 536 907
f 45 463 255
f 45 581 463
f 255 94 96
f 255 96 45
f 94 453 545
f 448 546 545
f 582 593 594
f 595 584 438
f 216 46 47
f 216 47 49
f 551 640 558
f 558 640 569
f 49 288 209
f 793 565 50
f 569 53 558
f 566 50 565
f 209 210 49
f 841 351 350
f 574 52 566
f 578 53 57
f 612 609 423
f 53 578 563
f 575 53 569
f 597 432 211
f 253 55 574
f 57 575 597
f 578 57 592
f 592 583 578
f 627 609 612
f 584 621 628
f 603 589 606
f 602 589 597
f 634 819 627
f 610 606 602
f 835 318 229
f 626 606 58
f 610 624 58
f 58 624 630
f 632 58 630
f 634 884 869
f 58 632 626
f 60 642 632
f 642 60 649
f 60 630 181
f 650 649 643
f 662 652 645
f 656 628 621
f 621 636 656
f 658 659 204
f 64 644 469
f 466 495 138
f 694 377 700
f 468 471 431
f 663 650 65
f 628 656 668
f 679 162 484
f 65 686 663
f 672 673 659
f 686 65 66
f 683 65 651
f 468 431 478
f 683 693 67
f 685 146 684
f 146 685 512
f 696 340 689
f 66 67 701
f 473 495 478
f 66 698 686
f 702 67 693
f 668 675 687
f 701 698 66
f 405 690 54
f 701 67 70
f 54 690 564
f 14 696 348
f 711 70 710
f 699 70 711
f 702 709 710
f 229 318 236
f 657 282 471
f 710 709 742
f 753 756 740
f 756 753 72
f 742 754 72
f 72 754 768
f 72 765 756
f 766 765 770
f 490 193 496
f 130 772 496
f 770 776 766
f 15 719 168
f 87 201 148
f 183 770 768
f 201 194 136
f 422 705 172
f 633 777 338
f 777 633 150
f 408 74 633
f 638 185 408
f 106 730 258
f 688 379 694
f 275 631 118
f 185 692 145
f 197 750 749
f 736 737 738
f 263 258 730
f 738 741 743
f 185 145 143
f 743 741 744
f 744 741 74
f 744 467 879
f 132 140 145
f 123 132 661
f 741 738 150
f 123 540 567
f 773 772 567
f 738 134 150
f 78 27 226
f 238 623 1
f 264 279 779
f 776 150 134
f 134 705 420
f 695 541 538
f 104 599 261
f 365 681 680
f 761 762 763
f 365 678 76
f 76 78 365
f 411 156 420
f 156 411 220
f 541 519 538
f 220 764 156
f 76 233 78
f 80 78 233
f 168 789 387
f 70 699 701
f 398 395 228
f 434 437 445
f 779 780 887
f 428 432 434
f 926 317 706
f 197 749 745
f 213 6 4
f 279 785 780
f 419 427 428
f 148 201 745
f 454 462 419
f 526 782 783
f 381 734 235
f 410 414 419
f 493 769 913
f 511 4 215
f 4 511 213
f 406 414 410
f 208 731 729
f 21 511 215
f 210 728 727
f 794 800 823
f 511 21 529
f 470 474 179
f 724 218 46
f 227 110 115
f 118 280 275
f 219 218 722
f 806 800 794
f 803 804 256
f 716 778 225
f 224 219 720
f 407 86 690
f 356 734 381
f 389 497 380
f 809 795 528
f 810 806 811
f 717 716 514
f 497 501 380
f 317 697 429
f 810 818 821
f 913 771 202
f 341 698 699
f 373 376 159
f 369 177 373
f 341 260 698
f 260 334 266
f 365 226 681
f 517 522 354
f 828 821 818
f 354 362 364
f 569 640 446
f 519 522 88
f 767 828 818
f 266 324 676
f 602 597 211
f 804 834 256
f 121 240 122
f 345 868 918
f 610 602 211
f 169 839 166
f 427 195 211
f 643 179 174
f 683 651 165
f 693 683 171
f 627 884 634
f 324 654 676
f 846 397 841
f 841 397 374
f 362 709 369
f 580 397 846
f 192 188 190
f 192 499 489
f 128 192 190
f 270 205 203
f 205 288 286
f 291 306 126
f 208 148 733
f 288 304 291
f 304 311 306
f 311 481 308
f 286 125 203
f 283 118 297
f 589 599 592
f 283 280 118
f 227 115 120
f 747 805 732
f 707 226 82
f 107 378 80
f 275 114 631
f 118 646 297
f 89 114 275
f 231 233 103
f 87 209 205
f 816 872 870
f 271 108 89
f 248 560 455
f 248 241 560
f 108 271 265
f 566 565 241
f 86 876 690
f 622 244 619
f 517 91 88
f 574 566 248
f 715 662 889
f 244 249 618
f 249 250 614
f 882 465 718
f 253 251 257
f 774 465 882
f 250 259 608
f 883 494 774
f 921 391 560
f 259 267 604
f 54 564 847
f 251 577 583
f 600 267 5
f 89 276 271
f 503 91 517
f 690 405 407
f 275 276 89
f 892 573 582
f 272 278 596
f 248 577 574
f 280 276 275
f 425 588 591
f 425 424 781
f 781 313 572
f 424 313 781
f 572 585 781
f 314 654 324
f 136 197 201
f 313 557 572
f 237 551 558
f 554 331 335
f 334 341 348
f 760 136 138
f 335 344 549
f 341 699 704
f 348 696 334
f 921 319 7
f 358 348 704
f 344 352 544
f 912 582 594
f 903 586 551
f 352 368 543
f 381 370 356
f 368 375 539
f 788 8 3
f 535 375 178
f 221 795 809
f 828 767 562
f 559 833 920
f 921 920 899
f 546 448 898
f 903 922 836
f 38 903 299
f 235 228 395
f 405 669 407
f 546 92 94
f 400 518 520
f 92 546 904
f 639 35 926
f 386 396 525
f 927 926 33
f 928 605 930
f 200 490 298
f 94 545 546
f 96 92 536
f 927 56 852
f 143 472 408
f 220 412 26
f 400 520 521
f 412 220 411
f 109 113 152
f 920 832 559
f 418 412 411
f 152 113 746
f 387 789 786
f 420 418 411
f 746 161 867
f 418 420 422
f 490 773 298
f 496 772 773
f 394 442 445
f 562 767 832
f 739 636 820
f 204 725 658
f 773 490 496
f 725 223 635
f 447 454 428
f 472 186 637
f 215 284 98
f 189 130 496
f 458 464 30
f 410 462 460
f 125 469 464
f 635 247 487
f 487 269 629
f 641 487 629
f 268 269 487
f 269 393 629
f 390 269 268
f 469 126 64
f 349 761 763
f 655 64 477
f 303 674 670
f 290 393 277
f 611 290 928
f 163 474 483
f 928 307 605
f 635 641 648
f 531 605 533
f 677 674 100
f 477 309 485
f 506 202 207
f 679 485 240
f 240 121 684
f 312 912 594
f 684 679 240
f 121 685 684
f 186 187 345
f 503 505 146
f 912 332 892
f 772 130 132
f 685 120 512
f 501 505 159
f 725 648 658
f 505 513 373
f 513 517 364
f 892 847 564
f 110 527 713
f 714 847 339
f 522 541 154
f 51 714 346
f 231 103 540
f 714 51 404
f 541 695 343
f 567 772 123
f 502 500 506
f 578 577 563
f 867 659 673
f 577 578 583
f 597 575 432
f 592 104 583
f 913 492 493
f 845 167 839
f 599 104 592
f 386 178 23
f 599 603 615
f 110 227 378
f 615 261 599
f 706 402 639
f 603 626 114
f 132 123 772
f 624 610 195
f 409 706 317
f 746 673 682
f 114 615 603
f 120 327 227
f 624 414 403
f 691 429 697
f 642 631 632
f 642 118 631
f 429 433 853
f 646 118 642
f 642 649 646
f 152 682 691
f 682 433 691
f 181 643 60
f 654 297 646
f 122 325 121
f 140 130 187
f 421 416 617
f 123 661 555
f 309 308 240
f 698 260 686
f 702 693 177
f 698 701 699
f 672 441 436
f 291 126 125
f 109 691 697
f 143 140 186
f 874 872 816
f 665 441 672
f 188 192 489
f 665 658 653
f 712 704 699
f 653 451 665
f 927 697 317
f 712 740 734
f 648 461 653
f 178 375 19
f 923 880 116
f 641 461 648
f 740 756 748
f 748 758 228
f 926 706 639
f 479 641 482
f 754 742 362
f 354 754 362
f 407 669 38
f 203 458 128
f 482 629 620
f 756 765 758
f 182 754 154
f 128 127 192
f 254 246 252
f 611 382 620
f 764 398 228
f 499 192 127
f 764 766 156
f 766 776 156
f 930 611 928
f 420 156 776
f 140 132 130
f 788 7 8
f 387 166 168
f 420 776 134
f 136 760 197
f 300 387 415
f 750 197 760
f 745 201 197
f 148 208 209
f 733 148 745
f 258 35 106
f 593 533 605
f 731 208 733
f 236 318 910
f 729 210 208
f 728 210 729
f 727 216 210
f 188 489 579
f 929 573 556
f 724 216 727
f 573 929 582
f 723 218 724
f 722 218 723
f 720 219 722
f 717 224 720
f 514 224 717
f 188 579 138
f 876 556 573
f 707 681 226
f 898 904 546
f 472 143 186
f 212 795 221
f 899 391 921
f 854 925 931
f 213 795 212
f 140 143 145
f 404 54 714
f 833 922 924
f 415 387 786
f 143 408 185
f 238 3 793
f 1 3 238
f 31 799 752
f 622 238 244
f 918 799 515
f 380 376 171
f 915 752 357
f 617 476 421
f 619 244 618
f 618 249 616
f 616 249 614
f 636 739 613
f 388 613 10
f 614 250 608
f 357 791 915
f 383 688 388
f 608 259 607
f 571 438 576
f 295 667 666
f 92 96 94
f 607 259 604
f 372 726 700
f 667 295 303
f 367 726 372
f 604 267 601
f 298 295 207
f 923 875 880
f 363 732 367
f 408 467 74
f 148 209 87
f 298 301 295
f 359 747 363
f 601 267 600
f 359 355 755
f 600 272 598
f 598 272 596
f 353 755 355
f 301 298 773
f 596 278 591
f 747 755 751
f 591 278 425
f 588 425 781
f 388 688 813
f 769 771 913
f 763 353 349
f 202 771 200
f 506 500 913
f 74 467 744
f 773 570 301
f 82 708 707
f 320 647 326
f 500 492 913
f 331 554 557
f 242 910 320
f 344 335 340
f 910 908 647
f 554 335 550
f 239 222 703
f 549 550 335
f 549 344 544
f 166 167 168
f 544 352 543
f 543 368 542
f 17 15 167
f 17 845 157
f 907 536 919
f 157 850 155
f 155 850 153
f 542 368 539
f 150 633 74
f 153 854 151
f 151 854 149
f 149 858 147
f 147 862 144
f 539 375 535
f 759 903 38
f 530 535 178
f 144 862 141
f 141 866 139
f 139 866 137
f 530 386 525
f 137 870 135
f 525 396 521
f 135 870 872
f 133 872 131
f 131 874 129
f 129 923 117
f 923 874 875
f 170 119 902
f 521 396 400
f 20 932 101
f 99 101 932
f 99 886 97
f 95 97 199
f 95 891 93
f 93 896 90
f 518 400 786
f 90 896 85
f 85 901 83
f 83 905 81
f 169 166 300
f 81 905 79
f 77 79 796
f 77 909 75
f 439 394 545
f 75 914 73
f 73 914 71
f 71 916 69
f 442 394 439
f 468 466 366
f 442 447 434
f 7 562 920
f 794 534 811
f 924 899 833
f 434 447 428
f 428 454 419
f 419 462 410
f 38 898 759
f 902 111 897
f 466 468 495
f 526 524 534
f 25 59 56
f 96 43 45
f 895 401 61
f 182 343 338
f 483 389 163
f 483 162 389
f 897 59 25
f 883 894 775
f 776 777 150
f 59 897 111
f 380 384 389
f 774 882 893
f 111 902 119
f 778 708 225
f 501 159 380
f 167 166 839
f 159 505 373
f 176 191 867
f 373 513 369
f 364 369 513
f 850 890 925
f 354 364 517
f 354 522 154
f 177 369 709
f 154 541 343
f 446 445 437
f 376 380 159
f 204 223 725
f 217 198 214
f 214 703 222
f 437 569 446
f 610 211 195
f 414 624 195
f 403 630 624
f 889 718 715
f 160 313 424
f 181 630 403
f 888 246 239
f 179 643 181
f 174 650 643
f 651 650 174
f 163 384 165
f 487 247 268
f 165 651 163
f 171 683 165
f 174 474 163
f 557 313 331
f 475 515 799
f 376 693 171
f 285 273 757
f 177 693 376
f 627 885 884
f 174 179 474
f 509 508 516
f 294 302 310
f 709 702 177
f 709 362 742
f 154 754 354
f 182 338 183
f 780 785 803
f 183 768 182
f 423 413 881
f 183 338 777
f 638 338 343
f 633 638 408
f 590 401 895
f 692 185 329
f 190 188 194
f 515 475 25
f 270 190 194
f 190 270 128
f 195 427 414
f 7 788 562
f 915 878 571
f 877 595 438
f 203 205 286
f 44 48 61
f 474 206 483
f 210 209 208
f 61 62 895
f 413 895 62
f 211 432 427
f 172 42 169
f 398 764 220
f 515 263 918
f 437 575 569
f 228 758 764
f 124 885 426
f 175 871 350
f 84 498 327
f 225 514 716
f 327 371 227
f 918 263 730
f 898 448 759
f 371 327 36
f 839 374 890
f 227 371 378
f 451 441 665
f 228 235 748
f 444 180 457
f 233 231 107
f 187 868 345
f 759 448 586
f 189 292 868
f 734 748 235
f 653 461 826
f 924 922 237
f 292 193 196
f 446 671 394
f 461 641 479
f 922 551 237
f 391 237 455
f 482 641 629
f 918 868 799
f 196 200 293
f 771 293 200
f 558 455 237
f 281 287 894
f 894 893 281
f 248 566 241
f 257 251 104
f 255 430 453
f 257 261 265
f 509 775 287
f 260 266 676
f 509 516 524
f 265 261 108
f 523 516 531
f 322 316 523
f 273 252 888
f 265 271 262
f 811 534 316
f 316 315 811
f 676 686 260
f 366 466 581
f 478 495 468
f 330 547 315
f 547 336 552
f 366 471 468
f 760 495 473
f 657 471 284
f 336 342 553
f 553 900 552
f 832 900 553
f 865 878 791
f 792 284 4
f 31 571 576
f 286 288 291
f 438 571 877
f 906 864 863
f 4 790 792
f 8 7 319
f 303 295 301
f 291 304 306
f 570 773 567
f 739 617 392
f 617 416 392
f 306 311 309
f 309 311 308
f 170 628 668
f 613 739 10
f 739 392 10
f 656 675 668
f 656 815 675
f 680 678 365
f 813 613 388
f 324 333 314
f 687 198 668
f 379 688 383
f 295 666 207
f 815 656 636
f 377 694 379
f 325 498 84
f 689 333 266
f 334 696 689
f 700 377 372
f 861 834 860
f 703 721 239
f 732 726 367
f 834 861 256
f 348 341 704
f 747 732 363
f 356 358 704
f 735 888 721
f 370 358 356
f 735 264 757
f 735 273 888
f 755 747 359
f 369 364 362
f 353 763 755
f 647 761 326
f 761 349 326
f 376 373 177
f 779 757 264
f 780 779 279
f 384 380 171
f 235 395 19
f 736 871 737
f 562 788 917
f 910 647 320
f 785 804 803
f 414 406 403
f 256 323 803
f 813 675 815
f 415 786 400
f 427 419 414
f 422 420 705
f 432 428 427
f 430 489 499
f 587 580 590
f 437 434 432
f 445 442 434
f 446 394 445
f 671 586 448
f 819 609 627
f 456 449 450
f 455 563 248
f 865 791 769
f 581 579 463
f 645 652 817
f 644 464 469
f 652 662 715
f 874 923 129
f 715 664 652
f 694 812 688
f 477 64 126
f 750 760 473
f 485 655 477
f 465 715 718
f 507 207 666
f 465 774 494
f 865 486 480
f 812 675 813
f 485 484 655
f 207 202 298
f 883 504 825
f 493 865 769
f 783 782 504
f 679 484 485
f 202 200 298
f 196 490 200
f 196 193 490
f 877 859 476
f 302 803 323
f 189 496 193
f 814 806 810
f 168 719 789
f 821 814 810
f 391 899 924
f 713 527 532
f 467 408 472
f 302 294 887
f 786 787 518
f 538 519 532
f 561 532 527
f 926 35 33
f 538 532 660
f 540 555 561
f 551 586 640
f 319 241 565
f 660 532 561
f 113 161 746
f 161 176 867
f 8 319 565
f 223 247 635
f 781 585 784
f 620 629 393
f 887 780 302
f 269 390 393
f 671 640 586
f 781 784 588
f 599 589 603
f 393 290 611
f 626 603 606
f 928 290 305
f 623 238 622
f 625 1 623
f 774 893 894
f 312 332 912
f 626 632 631
f 332 339 847
f 847 892 332
f 757 887 285
f 847 714 54
f 793 3 8
f 732 807 726
f 858 931 857
f 675 812 687
f 168 167 15
f 273 735 757
f 920 921 7
f 402 385 639
f 167 845 17
f 638 633 338
f 646 649 663
f 650 663 649
f 845 850 157
f 888 239 721
f 663 654 646
f 706 409 48
f 850 854 153
f 676 654 663
f 429 409 317
f 661 692 660
f 854 858 149
f 676 663 686
f 858 862 147
f 433 429 691
f 678 680 677
f 699 711 712
f 712 734 356
f 711 710 753
f 862 866 141
f 712 711 740
f 682 436 827
f 734 740 748
f 866 870 137
f 214 687 808
f 748 756 758
f 664 816 652
f 872 133 135
f 198 687 214
f 754 182 768
f 872 874 131
f 665 659 658
f 758 765 766
f 658 648 653
f 766 764 758
f 776 770 777
f 668 198 170
f 117 923 116
f 787 786 789
f 929 330 822
f 533 822 322
f 556 336 330
f 531 322 523
f 899 920 833
f 662 444 889
f 346 323 256
f 491 482 620
f 116 880 911
f 911 20 116
f 382 491 620
f 911 932 20
f 932 886 99
f 645 443 662
f 930 382 611
f 382 930 516
f 886 824 199
f 605 531 930
f 491 508 848
f 628 170 902
f 256 347 346
f 482 848 479
f 891 896 93
f 347 256 861
f 820 617 739
f 866 819 817
f 605 594 593
f 896 901 85
f 929 593 582
f 612 881 885
f 901 905 83
f 826 451 653
f 451 457 180
f 672 659 665
f 441 180 851
f 79 905 796
f 436 673 672
f 436 851 827
f 909 914 75
f 682 673 436
f 914 916 71
f 584 902 897
f 876 86 342
f 69 916 1
f 829 433 827
f 700 808 694
f 788 3 916
f 853 829 417
f 409 61 48
f 402 48 855
f 870 817 816
f 855 29 360
f 874 816 664
f 385 361 102
f 830 880 875
f 576 897 25
f 819 634 817
f 68 69 1
f 106 856 730
f 743 736 738
f 910 242 236
f 862 857 819
f 744 879 102
f 880 830 831
f 840 528 843
f 401 846 44
f 803 302 780
f 769 791 357
f 878 915 791
f 831 911 880
f 918 873 345
f 576 25 475
f 799 31 475
f 841 29 846
f 879 856 102
f 106 639 385
f 573 564 876
f 911 831 802
f 342 556 876
f 337 339 332
f 25 510 515
f 350 29 841
f 564 573 892
f 892 582 912
f 510 25 56
f 864 906 837
f 312 328 337
f 929 822 593
f 33 35 258
f 871 360 29
f 840 860 835
f 864 158 863
f 29 855 44
f 916 914 917
f 808 687 812
f 594 307 312
f 307 305 328
f 916 917 788
f 33 56 927
f 840 835 809
f 307 594 605
f 736 743 361
f 531 516 930
f 290 277 305
f 852 109 927
f 318 835 860
f 21 844 529
f 852 59 112
f 620 393 611
f 102 743 744
f 112 113 852
f 751 763 762
f 647 785 762
f 805 747 751
f 252 268 254
f 230 835 229
f 487 641 635
f 637 879 467
f 124 851 164
f 809 230 221
f 161 142 176
f 807 732 805
f 247 234 254
f 230 809 835
f 808 700 807
f 345 637 186
f 176 184 191
f 812 694 808
f 204 849 223
f 849 204 191
f 813 688 812
f 635 648 725
f 849 184 198
f 815 613 813
f 815 636 613
f 217 223 849
f 659 191 204
f 217 234 223
f 191 184 849
f 859 480 421
f 795 213 511
f 245 461 243
f 878 865 859
f 802 886 932
f 191 659 867
f 452 718 889
f 223 234 247
f 176 142 184
f 246 254 234
f 865 493 486
f 293 771 357
f 268 247 254
f 771 769 357
f 805 264 735
f 268 252 390
f 161 113 112
f 486 493 488
f 390 252 274
f 867 673 746
f 264 751 279
f 274 277 390
f 746 682 152
f 281 848 287
f 827 433 682
f 808 703 214
f 152 691 109
f 109 852 113
f 476 859 421
f 296 305 277
f 476 595 877
f 305 307 928
f 196 293 292
f 595 476 820
f 726 807 700
f 752 293 357
f 307 328 312
f 310 328 305
f 56 59 852
f 292 752 799
f 328 310 323
f 886 825 824
f 312 337 332
f 807 703 808
f 891 824 782
f 193 292 189
f 844 21 22
f 429 853 409
f 109 697 927
f 56 33 510
f 105 559 553
f 339 337 346
f 346 714 339
f 51 346 347
f 317 926 927
f 564 690 876
f 863 844 232
f 799 868 292
f 510 33 258
f 843 528 529
f 844 863 842
f 861 840 843
f 861 158 347
f 861 860 840
f 752 915 31
f 158 843 842
f 843 158 861
f 842 529 844
f 919 837 906
f 906 232 907
f 809 528 840
f 730 873 918
f 730 856 873
f 873 856 879
f 856 106 385
f 817 634 645
f 837 919 838
f 817 652 816
f 919 906 907
f 919 536 537
f 743 102 361
f 904 669 838
f 898 669 904
f 669 898 38
f 703 807 721
f 405 404 838
f 669 405 838
f 922 833 836
f 294 285 887
f 361 385 402
f 869 645 634
f 830 875 664
f 916 3 1
f 864 51 347
f 402 855 361
f 909 801 914
f 397 890 374
f 48 44 855
f 796 909 77
f 879 637 873
f 901 798 905
f 580 925 397
f 48 402 706
f 896 800 901
f 891 823 896
f 409 62 61
f 853 62 409
f 881 413 417
f 417 62 853
f 86 407 299
f 459 893 882
f 199 891 95
f 830 465 831
f 829 426 417
f 426 829 124
f 426 881 417
f 124 829 827
f 433 829 853
f 886 802 825
f 774 894 883
f 851 124 827
f 164 884 124
f 441 851 436
f 180 164 851
f 443 869 164
f 911 802 932
f 715 830 664
f 874 664 875
f 736 361 360
f 451 180 441
f 457 452 889
f 889 444 457
f 866 817 870
f 106 35 639
f 459 718 452
f 826 452 457
f 452 826 245
f 451 826 457
f 862 819 866
f 858 857 862
f 461 245 826
f 459 882 718
f 479 243 461
f 854 931 858
f 850 925 854
f 846 401 580
f 845 890 850
f 491 848 482
f 848 281 479
f 825 494 883
f 382 508 491
f 900 832 767
f 508 287 848
f 896 823 800
f 839 890 845
f 504 782 824
f 42 374 839
f 516 508 382
f 908 910 318
f 534 524 523
f 552 818 548
f 42 172 173
f 901 800 798
f 818 552 900
f 533 322 531
f 871 175 737
f 868 187 189
f 22 232 844
f 593 822 533
f 822 315 316
f 929 556 330
f 330 315 822
f 838 919 537
f 904 838 537
f 318 860 834
f 908 318 834
f 465 830 715
f 556 342 336
f 105 836 559
f 833 559 836
f 29 44 846
f 908 834 804
f 562 917 828
f 299 836 105
f 818 900 767
f 832 553 559
f 562 832 920
f 811 315 548
f 828 801 821
f 801 828 917
f 821 797 814
f 836 299 903
f 401 590 580
f 797 821 801
f 905 798 796
f 796 814 797
f 810 548 818
f 814 798 806
f 798 814 796
f 909 796 797
f 811 548 810
f 413 587 590
f 404 51 837
f 51 864 837
f 837 838 404
f 909 797 801
f 529 842 843
f 158 842 863
f 232 906 863
f 800 806 798
f 529 528 511
f 794 811 806
f 785 908 804
f 785 647 908
f 859 877 878
f 526 534 794
f 877 571 878
f 571 31 915
f 173 351 42
f 524 783 509
f 350 173 175
f 29 350 871
f 823 526 794
f 783 524 526
f 526 823 782
f 42 351 374
f 841 374 351
f 504 775 783
f 509 783 775
f 782 823 891
f 885 124 884
f 887 757 779
f 914 801 917
f 426 885 881
f 890 397 925
f 825 504 824
f 775 504 883
f 925 587 931
f 587 925 580
f 802 494 825
f 785 279 762
f 494 831 465
f 831 494 802
f 894 287 775
f 590 895 413
f 438 897 576
f 884 164 869
f 762 279 751
f 423 931 587
f 587 413 423
f 931 423 857
f 762 761 647
f 617 820 476
f 595 820 621
f 751 755 763
f 893 459 243
f 751 264 805
f 609 857 423
f 423 881 612
f 662 443 444
f 721 805 735
f 621 584 595
f 857 609 819
f 443 645 869
f 612 885 627
f 636 621 820
f 628 902 584
f 805 721 807
