# avbd fit, rung f1800-i32-s300-g0.1 of Gate 6d (body space, fit phase only)
v -0.010817548 0.679708123 0.002071923
v -0.101634182 0.690017879 0.069378600
v -0.011025992 0.694028497 0.002965780
v -0.000723727 0.944180965 0.070593536
v -0.151140422 0.673573852 0.065833792
v -0.000940608 0.966262043 0.071032092
v -0.011187301 0.721610069 0.007376832
v -0.010704340 0.707957387 0.004577332
v -0.152582973 0.689466119 0.067327917
v 0.148760349 0.952860951 -0.084609464
v -0.172274381 0.685279727 0.058611792
v -0.191327944 0.686744511 0.044707239
v -0.199677974 0.687917829 0.027336409
v -0.170838922 0.686547399 -0.074224383
v 0.009620246 0.683522761 -0.033658653
v -0.152267486 0.684074044 -0.082000747
v 0.024927393 0.681107759 -0.039355226
v -0.134557158 0.685439646 -0.090417281
v -0.117537335 0.690330505 -0.099467263
v 0.199733406 0.647872686 0.014107665
v -0.000855161 0.912291884 0.069084391
v -0.001189520 0.896890342 0.067781687
v -0.098226912 0.687285006 -0.097528473
v -0.083921753 0.694617987 -0.093967408
v 0.099228576 0.852007270 -0.139768988
v -0.069465928 0.704055488 -0.090769976
v -0.136663660 0.921556175 -0.118191518
v -0.127496824 0.842912078 0.064668462
v 0.033732522 0.756896913 -0.082712017
v -0.140397504 0.852102280 0.058139663
v 0.072008111 0.882051945 -0.148914248
v -0.177200392 0.833255649 0.044582799
v 0.087800898 0.821095586 -0.120206237
v -0.205349833 0.683191955 -0.028588375
v 0.072460875 0.814444423 -0.113075241
v -0.158714265 0.924260795 -0.089534774
v -0.171384752 0.919559956 -0.048390098
v 0.010426013 0.807267487 0.028599124
v -0.171150491 0.922441185 -0.029002195
v -0.082403600 0.920576930 -0.142688841
v -0.026384652 0.900400519 0.066994250
v 0.010133287 0.728191733 -0.054789893
v -0.017419916 0.882162869 0.065455213
v 0.054792278 0.756827831 -0.096179232
v -0.036599331 0.883360744 0.064738229
v -0.166346207 0.928319335 -0.010896998
v -0.161748022 0.914252460 -0.001584815
v 0.066714987 0.773037076 -0.102036402
v -0.151143894 0.917262077 0.013776002
v -0.041121520 0.693761945 0.028226301
v 0.052741487 0.857607365 0.056718379
v -0.053697150 0.691641569 0.047649767
v -0.069912493 0.764594913 0.061843205
v 0.052854788 0.824097455 0.052187376
v -0.075059652 0.689846635 0.058666717
v 0.104574665 0.832036614 -0.125532076
v -0.093601182 0.761135161 0.071303584
v -0.165674895 0.768169761 0.066466808
v 0.121716321 0.845751584 -0.125517651
v -0.196153834 0.766486287 0.039928328
v 0.076806895 0.757107437 -0.102412835
v 0.097638100 0.751880765 -0.107972398
v -0.186741948 0.842366397 0.027133022
v -0.179511324 0.859420598 0.024074577
v -0.209900141 0.764809847 -0.026853357
v -0.201619416 0.759187520 -0.052067608
v -0.190241233 0.769941986 -0.068214081
v -0.005526053 0.666126549 -0.002476885
v 0.011424739 0.668180406 -0.000298446
v -0.176748589 0.758527339 -0.086201377
v 0.026512157 0.667124033 0.005215377
v -0.121022560 0.769641697 -0.114557840
v 0.037505466 0.664494216 0.016809452
v -0.025553996 0.809724987 -0.092435226
v 0.047500052 0.661817431 0.029579788
v -0.101997115 0.922703862 -0.136627644
v 0.056211002 0.659023166 0.043216012
v -0.119795047 0.924211144 -0.128796875
v 0.069869474 0.657074451 0.053865872
v -0.128081441 0.910296261 -0.129571140
v 0.084992394 0.655609190 0.060226720
v -0.144360512 0.935456872 -0.105435669
v 0.100081578 0.654130101 0.066281959
v -0.169119418 0.892457485 -0.073710665
v 0.114752844 0.652609646 0.072162822
v 0.035740726 0.790770292 0.044440981
v -0.123935603 0.916334331 0.040812340
v -0.129021794 0.845319748 -0.119589940
v -0.152755991 0.716543496 0.068430379
v 0.131106153 0.651289582 0.072540388
v -0.147540271 0.853119075 -0.109377526
v -0.018526234 0.844898820 0.055096507
v 0.145396307 0.651165724 0.066061594
v -0.037277255 0.848334789 0.054227430
v 0.159787148 0.650580168 0.059572257
v -0.023950931 0.863474667 0.061392188
v 0.174149424 0.649644792 0.053531744
v -0.016668512 0.917052865 0.068764910
v 0.186132401 0.648881376 0.042113353
v -0.069144934 0.934233785 -0.138198107
v 0.193079919 0.648558855 0.028357575
v 0.023524510 0.810295224 -0.092214055
v -0.095161989 0.904858947 -0.145227402
v -0.101625100 0.727294505 0.072258279
v 0.032011203 0.774753809 0.034905575
v 0.054672170 0.814748764 -0.111665271
v -0.125170320 0.893538833 -0.133170277
v -0.134780437 0.713539720 0.075346805
v 0.128808647 0.809613824 -0.113115892
v -0.139506325 0.882838249 -0.123645090
v 0.137230679 0.856378734 -0.119088612
v 0.141969770 0.839948058 -0.107928619
v 0.143788651 0.820437133 -0.106677413
v -0.159056351 0.733003497 0.067841686
v -0.153658181 0.872787595 -0.111561432
v 0.199990228 0.647492588 -0.001271382
v 0.200149745 0.646978259 -0.015503074
v -0.195395514 0.724050820 0.043094102
v 0.151650444 0.856849849 -0.106348515
v -0.165004224 0.882841706 -0.093019500
v -0.179778993 0.880927563 -0.057229556
v -0.176937267 0.890138745 -0.040995043
v -0.060824852 0.873491645 -0.149054378
v 0.154498950 0.742763877 -0.093659341
v -0.154751718 0.878363431 0.041308112
v -0.170324266 0.875042140 0.023338819
v -0.109202065 0.869592547 0.056633860
v -0.117262259 0.882440865 0.047614466
v 0.197791845 0.647070408 -0.031099176
v -0.023978993 0.864898324 -0.138161093
v 0.189679891 0.647509992 -0.044235729
v -0.043533362 0.860029042 -0.142410129
v 0.181272477 0.647711873 -0.057401348
v -0.030542051 0.765885890 -0.079065807
v 0.169586927 0.648150086 -0.068624750
v -0.095990345 0.923343360 0.054780830
v 0.155384898 0.649044931 -0.074975118
v -0.078513555 0.919746697 0.061180841
v 0.140948012 0.649762571 -0.080764279
v -0.024566744 0.848269939 -0.133592680
v 0.126343787 0.650421619 -0.085908398
v 0.163928449 0.846920371 -0.095810719
v -0.026455242 0.834292412 -0.122888066
v 0.112910524 0.651562333 -0.090785533
v -0.045487482 0.841905713 -0.136300832
v -0.178088814 0.852599502 -0.080181196
v 0.096931942 0.654728651 -0.087687328
v -0.129127711 0.932631135 0.046005540
v 0.082727745 0.658351064 -0.082367927
v -0.034420334 0.787342787 -0.087649070
v 0.068164855 0.661653459 -0.077581361
v 0.145134419 0.803125858 -0.105848595
v 0.053568017 0.664848447 -0.072745726
v -0.108462334 0.810590565 -0.114613079
v 0.038716607 0.668726385 -0.064373873
v -0.061826117 0.742137790 -0.096753575
v 0.034002792 0.675400674 -0.050946862
v 0.043634210 0.888393521 0.064685218
v -0.187682107 0.823437512 -0.073711969
v -0.206175402 0.689825296 -0.007295175
v 0.161240771 0.828086078 -0.099198148
v -0.199870273 0.839297414 -0.025659615
v -0.206874579 0.807045817 -0.015680872
v 0.175739825 0.735072374 -0.081613071
v -0.207570359 0.795387506 -0.035348065
v -0.011862548 0.707967222 -0.044998150
v 0.013352101 0.697706580 -0.041697491
v -0.011426680 0.695469618 -0.038890298
v -0.011209871 0.720088363 -0.051625479
v 0.164714485 0.868253708 -0.091076180
v -0.200831726 0.799682498 -0.055241961
v -0.011325263 0.732850194 -0.055890422
v -0.011762687 0.745440006 -0.061440416
v -0.210663050 0.793366134 0.004497071
v -0.011609457 0.758939266 -0.064890966
v 0.177444264 0.835370719 -0.088269949
v -0.180609018 0.796094656 -0.087932542
v -0.103320561 0.671984553 -0.095754877
v -0.197028592 0.801912665 0.029703837
v 0.189043313 0.750585318 -0.067948163
v -0.194099471 0.784534276 0.040764399
v -0.094069928 0.797799766 -0.110886678
v -0.079430722 0.786739707 -0.106362149
v 0.179195926 0.851676941 -0.078167193
v -0.047367953 0.827381611 -0.124424301
v -0.003889109 0.841797948 -0.122652963
v -0.003413082 0.853302479 -0.130556807
v -0.089644819 0.903514385 0.057822526
v -0.003145997 0.866807103 -0.134202346
v -0.106336854 0.896322548 0.050342012
v 0.187583521 0.830004215 -0.071594320
v -0.096963391 0.884508908 0.055442639
v -0.002838613 0.880557179 -0.137122244
v -0.108918928 0.912378430 0.049733080
v -0.147480354 0.791697681 0.070494272
v -0.002541953 0.894772232 -0.136959985
v -0.101022348 0.939893901 0.049585629
v 0.179411069 0.871209025 -0.064516954
v 0.169981956 0.666421473 0.057515509
v -0.002300304 0.909018815 -0.135850221
v -0.112622872 0.929419398 0.045425598
v -0.002053394 0.923191249 -0.133340105
v -0.135476917 0.887195408 0.044820745
v 0.198376030 0.823633850 -0.053082913
v -0.134034842 0.902643323 0.034380876
v -0.199670240 0.835155964 0.011269576
v -0.001847811 0.937285542 -0.129804522
v -0.133129850 0.933939934 0.033345435
v -0.141691297 0.919363022 0.033079915
v -0.143586308 0.933895886 0.018395780
v -0.128032357 0.785762310 0.076277032
v 0.028417736 0.959444344 0.069835790
v 0.013773030 0.961777985 0.070442088
v 0.180275351 0.883830428 -0.041337229
v -0.000619818 0.928048730 0.069936231
v -0.155189782 0.932360172 0.002915009
v 0.190278858 0.862119496 -0.040654600
v -0.170950606 0.937677562 -0.021597367
v -0.168841228 0.936481357 -0.037693176
v -0.069269493 0.723062396 -0.094616532
v 0.041829009 0.957308114 0.068597719
v 0.186138004 0.873691261 -0.022654045
v 0.199704140 0.837624729 -0.032481756
v -0.166609630 0.935749412 -0.055268228
v -0.153426558 0.941890895 -0.088232704
v -0.127744928 0.938962460 -0.118346170
v -0.153697491 0.892929733 -0.108286224
v -0.100562356 0.722246289 -0.105264232
v 0.067481488 0.953933895 0.062010378
v 0.054692823 0.955485523 0.065186545
v -0.105857953 0.889086366 -0.141471416
v -0.001567154 0.881794095 0.065939248
v -0.112518325 0.907500923 -0.137202412
v 0.195120618 0.854989648 -0.018265313
v -0.118844844 0.711569548 -0.104580209
v 0.080002397 0.952341855 0.058906086
v -0.029373687 0.765421689 0.027910674
v -0.031572163 0.681123078 0.013054284
v 0.182900250 0.883048534 -0.006420520
v -0.185322195 0.874245465 -0.032832839
v -0.038267996 0.721161664 0.030156443
v 0.091039695 0.950504422 0.054146904
v 0.210998446 0.754777610 0.005069342
v -0.047203772 0.676873684 0.032936405
v 0.210406691 0.754397452 -0.014963470
v 0.190335348 0.867766261 -0.001886768
v 0.201389864 0.836159527 -0.006551945
v -0.047109004 0.729371667 0.046791486
v -0.064755723 0.674124360 0.053092945
v -0.088021576 0.673982263 0.062485158
v -0.083645836 0.719334960 0.064569049
v 0.183920294 0.857416332 0.020334749
v -0.085179463 0.703556657 0.063980103
v 0.197689682 0.852617145 0.002382323
v -0.046200331 0.866571128 0.060149454
v 0.083283402 0.881830990 0.060550742
v -0.101864599 0.709854543 0.071033522
v 0.067664698 0.824474335 -0.123448208
v -0.110496297 0.671317458 0.071359299
v -0.201483294 0.727198958 -0.047178186
v -0.117583774 0.719576657 0.077965185
v -0.130329773 0.684780419 0.075933687
v 0.060569175 0.834537327 -0.133680910
v 0.147852212 0.898555636 0.027204921
v -0.119593263 0.701833487 0.077415191
v -0.206948712 0.712898076 -0.036883205
v -0.134158343 0.667490125 0.072445542
v 0.195303082 0.838390648 0.016765947
v 0.191607669 0.823561370 0.027936812
v -0.121737584 0.899895370 0.046279881
v -0.142137319 0.701157808 0.071933791
v -0.167364210 0.667196512 0.058212899
v 0.169167116 0.871101260 0.028486142
v 0.170696348 0.853883743 0.040244654
v -0.174328640 0.719784141 0.061006434
v -0.164270505 0.702921987 0.063256353
v 0.169945732 0.836728394 0.053828288
v -0.185450017 0.669482172 0.049953751
v 0.130849481 0.903543293 0.037887786
v -0.185273424 0.703650355 0.055425942
v 0.204805046 0.750206888 0.027154366
v -0.040697806 0.956407189 0.068842426
v -0.198054940 0.704092145 0.035073869
v -0.019247133 0.937595367 0.069556035
v 0.158086717 0.867847085 0.045494527
v -0.146613166 0.891773045 0.033610079
v 0.194280162 0.744932711 0.047877960
v -0.148707882 0.903705001 0.023832144
v -0.207082152 0.698194683 0.014484773
v 0.163200319 0.819700062 0.062204905
v -0.159353733 0.888879597 0.022744229
v 0.021565771 0.878698468 -0.139951855
v 0.023142669 0.898263752 -0.140173048
v 0.141290277 0.863706291 0.053824395
v -0.028368985 0.936816990 -0.133824810
v 0.153500304 0.850751400 0.056197278
v -0.206095934 0.717019856 0.019942258
v -0.022443855 0.918438911 -0.137534410
v 0.020457815 0.791667938 0.029060310
v -0.026052743 0.715880871 -0.056292403
v -0.044167645 0.923835874 -0.140574917
v 0.123329401 0.870643973 0.054039158
v -0.050010376 0.940444291 -0.135184035
v -0.160445005 0.900760531 0.009668517
v 0.144154280 0.832614243 0.064725086
v -0.173256919 0.886646748 0.009049370
v 0.128106356 0.817700267 0.072226994
v -0.176285714 0.892626882 -0.023017740
v -0.183498442 0.881776631 -0.009293374
v 0.130242303 0.852503598 0.060750075
v -0.173141450 0.898436189 -0.004677380
v 0.107913397 0.825418115 0.074654557
v -0.203470185 0.670349061 -0.013695289
v -0.208074138 0.708046436 -0.001503962
v 0.091645382 0.745693982 0.070000365
v 0.112201296 0.743756771 0.078165457
v 0.098340407 0.791875601 -0.111193880
v 0.077813029 0.930593967 0.061574232
v -0.026269114 0.722618937 0.015392868
v 0.100785896 0.948461831 0.049266867
v -0.173934147 0.906087577 -0.035874046
v 0.123193249 0.760007560 0.080084689
v 0.104468167 0.861882508 0.061974395
v -0.208703846 0.716051757 -0.016987924
v -0.173433661 0.901083648 -0.055519901
v 0.110271178 0.945189953 0.045324102
v -0.163521126 0.904234767 -0.091054961
v 0.119347394 0.838782012 0.068098381
v -0.066921487 0.823949695 -0.123150393
v 0.080451876 0.763353705 0.066554293
v -0.199170277 0.666851699 -0.036151819
v 0.087698609 0.826317430 0.069809318
v -0.207518578 0.700415075 -0.022511164
v -0.193454951 0.709537208 -0.054196965
v -0.188042596 0.663987994 -0.052272398
v 0.059603520 0.760863125 0.057906229
v 0.097077824 0.844138622 0.071182296
v -0.069569178 0.801925838 -0.104568601
v 0.078670159 0.839459300 0.064908639
v -0.193653896 0.679480791 -0.047985978
v -0.186662272 0.723541260 -0.066351637
v 0.046283722 0.774859130 0.052959692
v -0.083172850 0.815269768 -0.114161953
v -0.178374037 0.671324790 -0.066389166
v 0.016721599 0.843729019 -0.127278790
v 0.078190997 0.858658910 0.060460318
v 0.060904227 0.875725091 0.062147014
v -0.180312723 0.705159187 -0.070899680
v 0.119180121 0.950416744 0.040767990
v 0.016397726 0.752860427 -0.066358857
v 0.017614242 0.738572180 -0.062876731
v -0.158922791 0.669160962 -0.076846614
v 0.128888860 0.948471546 0.034329459
v -0.130480677 0.810894132 -0.112801194
v 0.136100695 0.948612809 0.025153186
v -0.151215836 0.713091135 -0.089714125
v 0.046138383 0.906935692 -0.145354852
v -0.163020328 0.701108277 -0.081335165
v 0.142858788 0.948815703 0.015554543
v 0.029442912 0.774884164 -0.081104025
v 0.033369608 0.792015135 -0.087090522
v -0.143737003 0.796807408 -0.106729880
v 0.149846643 0.949028015 0.005047234
v -0.148670152 0.813903034 -0.105090037
v -0.110277094 0.939433932 -0.127385974
v -0.036871523 0.921307564 0.068111479
v 0.156941444 0.949028373 -0.005623653
v -0.139615551 0.668324292 -0.085086331
v -0.163497210 0.804836452 -0.098311700
v -0.146948010 0.697485626 -0.088022396
v -0.150981307 0.913605094 -0.106160104
v 0.162173718 0.949421704 -0.015972300
v -0.179607287 0.814699948 -0.088462338
v 0.028284973 0.723441660 -0.065640591
v -0.121989682 0.671213508 -0.093137130
v -0.190203279 0.806509137 -0.071917780
v 0.162954956 0.949770331 -0.029078469
v -0.141080499 0.902016282 -0.120366238
v 0.162339255 0.950716496 -0.042729445
v -0.197745860 0.821438313 -0.055562668
v -0.133401290 0.703573942 -0.095815584
v 0.174487054 0.779978037 0.064534858
v 0.159494311 0.951553822 -0.056757100
v -0.204549402 0.810263753 -0.039232630
v 0.045252033 0.805963874 -0.096726947
v -0.086901419 0.676191151 -0.090263970
v -0.027098689 0.699283421 -0.049725577
v 0.155977219 0.952617645 -0.071346208
v -0.202282935 0.824573696 -0.031857371
v 0.182524800 0.838461220 0.035083495
v -0.025508713 0.750548005 0.020659581
v 0.140775651 0.953832984 -0.097601682
v 0.181298614 0.817407608 0.046517868
v -0.062958576 0.818757534 0.057210870
v -0.100444593 0.703464508 -0.101506770
v -0.068405636 0.683713257 -0.084919766
v 0.041848738 0.720066905 -0.084308937
v -0.084717706 0.713418663 -0.097966239
v -0.052229516 0.699869335 -0.083108440
v -0.048192102 0.683115125 -0.076443359
v 0.065562494 0.741331398 -0.097502820
v 0.054892629 0.789153218 -0.099195793
v -0.183732420 0.796832383 0.054093491
v 0.041993760 0.839755237 0.051091213
v 0.034684096 0.823620796 0.042953633
v -0.180960387 0.815022171 0.048267581
v 0.027852345 0.807121456 0.037683256
v -0.030496597 0.818377197 -0.110651001
v 0.092467733 0.771961093 -0.108840369
v -0.162255630 0.825412571 0.060936928
v -0.053339601 0.729007065 -0.090629473
v -0.057126939 0.714598298 -0.088532880
v 0.097887702 0.728782177 -0.105333127
v -0.160866886 0.806150079 0.064648584
v -0.034778565 0.703765154 -0.069907382
v 0.129528925 0.953988731 -0.106828474
v 0.116946518 0.743332028 -0.111638211
v -0.041398522 0.718186796 -0.083891258
v -0.140646219 0.818348587 0.068213657
v -0.038452625 0.742990911 -0.088641837
v 0.116264299 0.954315841 -0.115460590
v -0.030783307 0.727746964 -0.069638811
v 0.103717901 0.707328677 -0.102929160
v -0.204778165 0.680841565 0.009719706
v -0.195472106 0.670683503 0.030036664
v 0.133980706 0.738616407 -0.102964520
v -0.132825181 0.802373886 0.073065192
v -0.116623558 0.813435256 0.075796068
v 0.114762746 0.780116856 -0.115075171
v -0.066971578 0.868913531 0.060774069
v -0.053675376 0.955560207 0.065292321
v -0.105432376 0.793904305 0.077471629
v 0.136567608 0.772730231 -0.107528530
v -0.094214574 0.810314953 0.072946906
v -0.078082621 0.853501797 0.062152844
v 0.173460603 0.775845885 -0.090400919
v -0.081595935 0.794871330 0.067806572
v 0.116488352 0.891290545 -0.136691064
v -0.069507614 0.836488128 0.059546493
v -0.089112915 0.840305209 0.069578327
v 0.187267751 0.769239068 -0.072465636
v -0.082572423 0.824274898 0.066744275
v 0.183384776 0.720108807 -0.069543041
v 0.191970497 0.732607543 -0.060520358
v -0.076642670 0.809601784 0.064218082
v -0.061467133 0.800227344 0.058436751
v -0.102462038 0.827109694 0.074844502
v -0.027948219 0.815713227 0.039253701
v -0.109870866 0.842113495 0.068743959
v -0.098945007 0.856176496 0.065033510
v 0.199751690 0.765630066 -0.054052096
v 0.209508985 0.740629375 -0.028479477
v -0.057801731 0.851569176 0.054416977
v -0.123426393 0.829068959 0.069832593
v -0.039825447 0.749819994 0.038769044
v -0.120022416 0.856100678 0.061243422
v 0.202335507 0.746025264 -0.049251776
v -0.133586630 0.869612217 0.052764244
v 0.210031584 0.738285244 -0.007488120
v -0.160036385 0.844101250 0.056792390
v 0.210240200 0.775239468 -0.010974783
v -0.143455595 0.835078597 0.063623920
v -0.056857955 0.885255456 0.062547311
v -0.155199498 0.861340821 0.051063787
v 0.207673073 0.704344273 -0.004346258
v -0.058825511 0.919175446 0.065005541
v -0.005177445 0.820684552 -0.103249669
v -0.053957492 0.937006176 0.066176049
v -0.166605607 0.865022779 0.036461927
v -0.191233605 0.822938323 0.028354496
v -0.037491858 0.941436470 0.069031939
v -0.004445850 0.830989957 -0.113388516
v -0.079927742 0.954450011 0.058538504
v -0.205889627 0.814951777 0.010100467
v 0.078369237 0.864283085 -0.146982431
v 0.122307837 0.928723216 -0.125999302
v -0.183987722 0.871097565 0.008420742
v -0.066762991 0.954879403 0.061931740
v 0.208545715 0.772243023 0.016920410
v 0.101128459 0.954080939 -0.122037627
v -0.170779809 0.910192370 -0.017510403
v 0.199734598 0.785866857 0.030915324
v -0.203201488 0.827150524 -0.009782974
v -0.199427873 0.846796334 -0.008947584
v -0.191415176 0.864439666 -0.011230541
v 0.084913187 0.953221202 -0.125265211
v 0.203829855 0.819616795 0.011949970
v 0.068400130 0.952881694 -0.127347946
v -0.077738091 0.885754883 0.060364652
v -0.018719217 0.899226189 -0.139318600
v 0.190200582 0.777893066 0.048743270
v 0.051559258 0.952445805 -0.128174677
v 0.061556272 0.940365791 -0.135033756
v 0.203671500 0.697200060 0.022518095
v -0.070652410 0.936463952 0.061991315
v -0.022973295 0.882209659 -0.140673488
v -0.198354796 0.841097057 -0.045942049
v -0.169184893 0.916605115 -0.071026966
v -0.087540284 0.869133651 0.057707239
v 0.034059349 0.952310681 -0.128084257
v -0.189165801 0.839905560 -0.066359758
v 0.016241981 0.951422393 -0.125614971
v -0.162737280 0.843243301 -0.097332351
v 0.180664271 0.703960061 0.057688892
v -0.179027498 0.834126472 -0.086438052
v 0.015826348 0.940793872 -0.130190149
v -0.001819931 0.950316310 -0.123262048
v 0.184034750 0.760688782 0.061103560
v 0.174335420 0.740301907 0.063637748
v 0.081960000 0.833877087 -0.134460315
v 0.015104395 0.933461308 0.069642588
v -0.163862154 0.862675786 -0.094520256
v -0.163305059 0.824193180 -0.098942980
v -0.162063658 0.937388718 -0.072981089
v 0.067238130 0.848695397 -0.143648148
v 0.159828678 0.759512722 0.068613872
v -0.142875090 0.832139313 -0.107907869
v -0.038149446 0.669836164 -0.064104736
v -0.112482369 0.837375045 -0.127491742
v -0.051593464 0.666258574 -0.072632298
v -0.065529279 0.663605809 -0.077447981
v -0.121282950 0.826968491 -0.116873704
v 0.137352243 0.748707414 0.075861081
v 0.151901752 0.734258056 0.070980363
v -0.079402402 0.660852790 -0.082230315
v 0.143579915 0.712921977 0.072223365
v -0.120463572 0.875094116 -0.136091575
v 0.033509098 0.926168263 0.068594590
v 0.020911742 0.913910747 0.068504728
v -0.093099549 0.657888830 -0.087183192
v 0.139793694 0.770268798 0.074949369
v -0.112598978 0.854950249 -0.136101782
v 0.121102199 0.775562763 0.079638630
v 0.128396302 0.728149772 0.078775704
v -0.106797673 0.654674888 -0.092514999
v -0.002367469 0.853248298 0.058267761
v -0.002871849 0.839915574 0.052541308
v -0.094640806 0.837825954 -0.135925844
v -0.121475354 0.653407454 -0.088731140
v -0.082752585 0.885936439 -0.148105919
v -0.100477040 0.826110482 -0.121946618
v -0.134586945 0.652424932 -0.084068105
v -0.148485422 0.652038813 -0.078888603
v -0.162116677 0.651534557 -0.072912760
v -0.048026323 0.830513000 0.049228858
v -0.025353098 0.831271768 0.047507375
v 0.073189810 0.748943388 0.062773012
v 0.076023370 0.732255936 0.062857129
v -0.175661594 0.650985539 -0.065890022
v -0.184632272 0.651018739 -0.054009862
v -0.030041069 0.782031596 0.032955591
v 0.057330061 0.743029773 0.056013752
v 0.040852576 0.756401658 0.042947553
v -0.192459196 0.651046157 -0.041599669
v -0.079067320 0.867131710 -0.147890046
v 0.066605285 0.777331293 0.061390888
v -0.200110942 0.650785387 -0.029028598
v -0.044258393 0.768138289 0.051100999
v 0.026555425 0.758851528 0.024890255
v -0.032842636 0.735816479 0.026589071
v -0.099434793 0.870708823 -0.143728927
v 0.023551989 0.721274674 0.016671386
v -0.056403499 0.748659492 0.055632867
v 0.062361918 0.808523774 0.057666253
v -0.033668965 0.708721578 0.021525826
v -0.046379827 0.708579600 0.040282138
v -0.059461147 0.892794967 -0.147878617
v -0.076104477 0.903382421 -0.148258343
v -0.064058378 0.782274544 0.060127605
v -0.060786635 0.913732648 -0.145682618
v 0.093948647 0.896026313 -0.145660728
v -0.200743243 0.650927722 -0.014223116
v 0.073039509 0.793900609 0.064746335
v -0.064072020 0.710481822 0.056116290
v -0.087213777 0.778143883 0.069380328
v 0.099230073 0.875512600 -0.143623859
v -0.067599081 0.731428683 0.059025329
v -0.078078710 0.748322606 0.064243160
v -0.068159327 0.902580857 0.062799811
v 0.061500169 0.722856939 -0.091616414
v -0.046949849 0.902393520 0.065555409
v 0.091611288 0.797239482 0.072543785
v -0.086076871 0.734339118 0.066532157
v 0.138295740 0.888880908 -0.124420427
v -0.200588107 0.651002467 -0.000625952
v -0.028253928 0.798884630 0.036370587
v 0.081274815 0.712130666 -0.096120954
v -0.194060475 0.652292669 0.027255636
v -0.118754998 0.755513310 0.080478087
v 0.077845752 0.728832364 -0.098589338
v -0.187552467 0.652583480 0.040337864
v -0.100149058 0.744517684 0.072787181
v 0.105815396 0.786179900 0.077918559
v 0.112335548 0.805162132 0.078411192
v 0.130587533 0.908894837 -0.128562421
v -0.177886501 0.652849555 0.051889937
v -0.108589485 0.774264395 0.077919066
v -0.164369777 0.653464675 0.057604142
v -0.118628122 0.736874640 0.079628900
v -0.150717333 0.653793931 0.063523769
v -0.137072518 0.653649449 0.069752268
v -0.129707202 0.770552635 0.077623501
v -0.140745476 0.744215488 0.074489944
v -0.123057626 0.654274940 0.074671492
v 0.130888566 0.793177605 0.075054780
v -0.144775122 0.760468423 0.072801635
v -0.108654283 0.655189812 0.069323018
v -0.094403997 0.656118214 0.063635342
v 0.124524072 0.698697925 -0.098196395
v -0.147692531 0.776703656 0.072183907
v 0.169427499 0.801335335 0.063646391
v 0.126483768 0.712562203 -0.101020634
v 0.156425864 0.936069787 -0.087039642
v -0.080117278 0.657044172 0.057932727
v -0.138068527 0.728030503 0.074879043
v -0.065989673 0.657966256 0.051896192
v 0.133222803 0.940647602 -0.112489641
v -0.054820228 0.659606993 0.040272806
v -0.046617094 0.661699653 0.027343918
v 0.187548026 0.796482742 0.048288569
v 0.147263557 0.905316353 -0.112734154
v -0.037908543 0.663826406 0.014895898
v -0.028016325 0.665866673 0.003675785
v -0.166300759 0.786654294 0.066170409
v -0.026163882 0.678864300 -0.002069215
v -0.163231105 0.750413299 0.067089155
v 0.141601652 0.707176268 -0.092625096
v 0.157339394 0.887480378 -0.105038561
v 0.196484417 0.805706024 0.028776309
v -0.185766011 0.777131796 0.057741065
v -0.181630239 0.738043964 0.060241114
v -0.184673399 0.757611394 0.060284249
v -0.046858676 0.804237723 -0.097257659
v 0.158505738 0.701653063 -0.083178952
v 0.205062315 0.816482663 -0.011684177
v 0.152650863 0.921191394 -0.101725042
v 0.010597205 0.831791043 -0.115428828
v -0.055980094 0.814693093 -0.111866876
v 0.065698802 0.803529620 -0.102796301
v -0.043354575 0.789638400 0.051416211
v 0.210392028 0.795914531 0.005861648
v -0.197532669 0.746294737 0.041309267
v -0.204738736 0.779346704 0.022450278
v -0.172158271 0.850442767 0.040831607
v 0.178865343 0.703080297 -0.071941309
v -0.206940606 0.737214208 0.020918820
v 0.106460944 0.927232862 0.048457529
v 0.208344370 0.797076643 -0.021299411
v -0.207294747 0.758245051 0.020236205
v -0.210776046 0.770807624 -0.001020783
v -0.209412247 0.784429729 -0.018927997
v 0.188891485 0.694027960 -0.056506284
v 0.208136246 0.781318009 -0.037313160
v -0.209618136 0.727343261 -0.000601296
v -0.193208233 0.854513943 0.010032258
v 0.161651745 0.904227257 -0.095254928
v -0.027115032 0.957504869 0.069744997
v 0.204396293 0.801566958 -0.047788300
v 0.191373810 0.806521058 -0.069453165
v -0.087216809 0.852812409 -0.143371359
v -0.063401729 0.854241550 -0.144963905
v 0.192910671 0.712658525 -0.054890901
v -0.210724264 0.748427987 -0.006575095
v 0.198779792 0.683805227 -0.041414715
v 0.197254896 0.785085857 -0.059000690
v -0.019571157 0.951687038 -0.126211300
v -0.036931954 0.952452004 -0.128272772
v 0.167479128 0.887854695 -0.081043050
v 0.014812060 0.821713448 0.037938070
v -0.053564858 0.952603936 -0.128315613
v -0.045545004 0.808922172 0.048866943
v 0.186753407 0.786748588 -0.076826587
v 0.176845178 0.796959877 -0.091498077
v -0.069774911 0.952946007 -0.127386719
v 0.169504389 0.908071399 -0.075771086
v -0.209218577 0.730778039 -0.023889156
v -0.085692368 0.953637242 -0.125172496
v -0.091649160 0.938062668 -0.134171918
v -0.194021061 0.855619609 -0.031111840
v -0.101207256 0.954946399 -0.121703826
v -0.115811661 0.955264211 -0.115060128
v 0.155643061 0.786581933 -0.100355402
v -0.204640821 0.779120266 -0.048690166
v -0.188095078 0.860283017 -0.056422025
v -0.174045816 0.871685207 -0.075538829
v -0.209543228 0.745629549 -0.036446452
v 0.172515422 0.895132661 -0.058809262
v 0.165906638 0.937325835 -0.057263426
v -0.200096920 0.696003079 -0.042814083
v 0.044522550 0.807607055 0.048748396
v 0.134134799 0.790436208 -0.109992698
v -0.069007881 0.836755753 -0.136798367
v -0.191393420 0.787985623 -0.069916248
v 0.169523671 0.931878388 -0.042346034
v -0.082568809 0.826388955 -0.128385648
v -0.186343640 0.691371500 -0.059914511
v 0.115916334 0.797117949 -0.116061427
v -0.195022032 0.740581870 -0.058755465
v -0.177744478 0.738234639 -0.081477672
v 0.169639274 0.929305196 -0.025649821
v -0.188289315 0.753265321 -0.069610924
v -0.179472178 0.777238667 -0.087279625
v 0.175817221 0.893233597 -0.020600345
v -0.170127407 0.718896091 -0.081575438
v -0.027192658 0.746318579 -0.069853477
v 0.077734925 0.788586915 -0.105598770
v -0.128756270 0.955167890 -0.106658936
v -0.139819652 0.955276370 -0.097111210
v -0.161295205 0.786526680 -0.098437585
v -0.159050196 0.768045783 -0.096416764
v -0.157979116 0.749191940 -0.093537554
v -0.155623272 0.730678499 -0.091248982
v -0.135210842 0.862932384 -0.124736384
v 0.062158234 0.840783715 0.056203227
v 0.205984741 0.703792334 -0.035803460
v -0.155407712 0.954286575 -0.070730887
v -0.158731744 0.953278184 -0.055774938
v 0.208783627 0.721617103 -0.020573668
v -0.010298594 0.682465971 -0.034141306
v -0.161848217 0.952458382 -0.040582009
v 0.171407610 0.896150112 0.001218112
v -0.162600845 0.949811637 -0.024754081
v -0.162053585 0.940753937 -0.009988960
v -0.158249259 0.952875137 -0.008971443
v 0.203843802 0.815495133 -0.033123899
v 0.165228158 0.933451176 -0.010732944
v -0.150060743 0.951818764 0.003638158
v -0.142273918 0.950415254 0.015651604
v -0.134173855 0.948476791 0.027242417
v 0.047206484 0.826563656 -0.123338223
v -0.125936478 0.944917500 0.037958827
v 0.157961279 0.928619683 0.001284776
v -0.112994969 0.942115664 0.044056155
v -0.136310548 0.721962333 -0.098970972
v 0.162789688 0.889234066 0.018146142
v 0.013670361 0.783771813 -0.074065536
v -0.010704974 0.772538066 -0.069459140
v -0.010479400 0.786946416 -0.073143631
v 0.146709472 0.938483715 -0.101683751
v -0.138480037 0.740459263 -0.101487420
v -0.007788985 0.801486671 -0.080572955
v -0.140580446 0.778421044 -0.106770754
v 0.011221534 0.800484955 -0.080519967
v -0.006353191 0.812550545 -0.090929918
v -0.117857479 0.952494919 0.040630419
v 0.161558136 0.808852792 -0.098729268
v 0.148040906 0.929264903 0.014538059
v -0.120246567 0.730818093 -0.108677708
v -0.105150662 0.953537285 0.046392564
v -0.092409790 0.954079151 0.052797746
v 0.143068880 0.917865932 0.030580327
v 0.046135910 0.887675107 -0.145702794
v -0.139550045 0.759328544 -0.104087330
v -0.120322488 0.791203439 -0.116260409
v 0.138075083 0.934833705 0.026355213
v -0.120721780 0.749903560 -0.111599788
v 0.155644268 0.883226275 0.035357140
v -0.099776827 0.741351843 -0.108018503
v -0.006084317 0.805792034 0.027060429
v -0.086704887 0.937710285 0.057687998
v 0.118964240 0.934728026 0.042662952
v 0.123439476 0.919450879 0.041189156
v 0.132462665 0.933970928 0.040173002
v -0.082663454 0.732732713 -0.101569235
v -0.098721080 0.760256171 -0.109593585
v -0.078766011 0.751705229 -0.102824129
v 0.039246131 0.726542592 0.033905640
v -0.099000320 0.779107928 -0.111328483
v 0.050871976 0.924723923 -0.140790194
v -0.076576740 0.770263433 -0.104716316
v 0.025347754 0.916172981 -0.138643578
v -0.042170905 0.879523873 -0.145742506
v -0.039465275 0.902008832 -0.144817278
v 0.206443593 0.716030002 0.019437056
v 0.189407602 0.724386394 0.054953407
v -0.051624816 0.763684511 -0.096638188
v -0.057893258 0.785022616 -0.100346722
v -0.147993833 0.954480350 -0.084056929
v 0.141105667 0.891005218 0.040526535
v 0.124294415 0.887514889 0.045584157
v -0.202519923 0.665100038 0.007995435
v 0.158862576 0.697565913 0.065627091
v 0.166114390 0.718832910 0.064366303
v -0.200376749 0.651598573 0.013858248
v 0.112251535 0.905284703 0.049292788
v -0.034818966 0.687261224 -0.060070682
v -0.033574902 0.675485015 -0.050893210
v 0.011609612 0.706131577 0.005567946
v -0.025822064 0.680526495 -0.038889714
v 0.003484340 0.955322921 0.070702836
v 0.067797072 0.917099118 -0.144583270
v -0.012774554 0.958223164 0.070366502
v -0.027779579 0.697130978 0.012304557
v 0.118157484 0.708036661 0.077946268
v 0.029156661 0.943998516 0.069446020
v 0.069239855 0.675655961 0.055410810
v 0.057071317 0.688640237 0.051393181
v 0.091644481 0.684291780 0.065326810
v 0.048283610 0.865569472 -0.144481748
v 0.112779245 0.688019633 0.074273713
v 0.045069188 0.693591952 0.034614056
v 0.198607549 0.678904593 0.026612023
v 0.105791748 0.881841362 0.051178001
v 0.095249780 0.898085892 0.055415548
v 0.155436561 0.909259617 0.010364200
v 0.096142352 0.702958822 0.068774737
v 0.168344140 0.912797332 -0.011784846
v 0.174286410 0.908360779 -0.036578409
v 0.045111131 0.939485431 0.068140134
v 0.076699987 0.713878691 0.061849810
v 0.099862717 0.724564075 0.071906902
v 0.171435639 0.917376637 -0.057195425
v 0.164840832 0.928201318 -0.072976559
v 0.075177126 0.695325315 0.059627034
v 0.161339656 0.919357479 -0.086850584
v 0.184341118 0.676012397 -0.058950536
v 0.165433243 0.684147000 -0.075643800
v 0.054724395 0.723565936 0.053771198
v 0.138324693 0.686440825 -0.088560186
v 0.139062792 0.923627734 -0.115010098
v 0.056436408 0.704899073 0.052866973
v 0.101407364 0.764473200 0.075195417
v 0.137259096 0.691657603 0.073821530
v 0.174502134 0.684124589 0.058047123
v 0.192718670 0.690312088 0.043135755
v 0.209519908 0.761388361 -0.033445835
v 0.155334413 0.764605403 -0.097048923
v 0.041705083 0.710667729 0.033924021
v 0.136382997 0.754782498 -0.104460791
v 0.205929607 0.688057721 -0.017795008
v 0.205240637 0.684638083 0.005144315
v 0.031393375 0.740981698 0.027244862
v 0.009228306 0.760918438 0.015043502
v 0.079820283 0.906297505 0.061455458
v 0.060586113 0.936264813 0.064617917
v 0.014698270 0.776800036 0.021004045
v 0.030956369 0.853630662 0.057298709
v 0.019194055 0.835323811 0.051375657
v 0.018662613 0.712156534 -0.051237024
v 0.050722145 0.920911312 0.066602275
v 0.031992823 0.738777995 -0.075522304
v 0.028484423 0.898165524 0.066765979
v 0.040687151 0.907591224 0.067161128
v 0.013002321 0.897749126 0.067428358
v 0.030513605 0.693815172 -0.054683108
v 0.046811402 0.738989711 -0.090614401
v 0.070258401 0.824728191 0.061159968
v 0.197357088 0.764953434 0.038106844
v 0.192066476 0.846875191 -0.057660989
v 0.044297621 0.684818864 -0.075156428
v 0.173856646 0.755507290 -0.086509496
v 0.124093667 0.827755094 -0.115211770
v 0.115449645 0.761942625 -0.114037588
v 0.069237843 0.679362774 -0.083642013
v 0.044397999 0.773405552 -0.095916137
v 0.034884669 0.815713048 -0.109674886
v 0.109976277 0.685827494 -0.100344941
v 0.093311772 0.673663199 -0.091675416
v 0.103301778 0.933305621 -0.131898656
v 0.066220492 0.918208241 0.063843533
v 0.061263599 0.898313701 0.063518539
v 0.119719043 0.668612480 -0.093111381
v 0.023523932 0.883081317 0.065445051
v 0.038631029 0.870335102 0.062954560
v 0.081313021 0.934027016 -0.137302071
v 0.144712403 0.667258501 -0.082280979
v 0.179615512 0.816921830 -0.087900229
v 0.021689981 0.859260559 -0.135972396
v 0.170536175 0.715946555 -0.080177441
v 0.167222843 0.665019035 -0.072096951
v 0.014792423 0.767861009 -0.070012532
v 0.182637155 0.660146952 -0.058060456
v 0.028421333 0.830443025 -0.120011710
v 0.194871530 0.664433777 -0.041510887
v 0.203946188 0.673356712 -0.026276002
v 0.053798802 0.792080283 0.056575634
v 0.109913327 0.912524045 -0.136536315
v 0.088979669 0.916553319 -0.143149033
v 0.015411869 0.819509506 -0.105196953
v 0.203354478 0.670366824 -0.007390753
v 0.120228492 0.725683272 -0.107410885
v 0.209108636 0.722709775 0.000047907
v 0.196532398 0.710218251 0.039254177
v 0.156356961 0.722227037 -0.088600874
v 0.139293507 0.724533916 -0.097628385
v 0.187921301 0.669434428 0.045738179
v 0.140925094 0.877850652 0.047905572
v 0.177897200 0.877655506 0.011480754
v 0.203895539 0.725612998 -0.042944353
v 0.035060648 0.704916716 -0.071096510
v 0.152388126 0.674397230 0.065838352
v 0.079570338 0.810300350 0.066142105
v 0.209842756 0.735427678 0.014270407
v 0.200167969 0.730083287 0.034240693
v 0.083476633 0.741876006 -0.102844074
v 0.130726755 0.670179725 0.074568674
v 0.123713195 0.868712246 -0.134499118
v -0.004586943 0.817786336 0.034572624
v -0.009168135 0.749308586 0.012449128
v 0.043418426 0.738186002 0.043388538
v 0.106516182 0.670260847 0.070217274
v 0.147823021 0.872487366 -0.116773486
v -0.009383238 0.791769803 0.021196548
v -0.003542060 0.828172684 0.044254683
v 0.087282844 0.668323636 0.062190425
v 0.017639620 0.867085099 0.063106887
v -0.001976388 0.866875947 0.063894197
v 0.094444335 0.916726887 0.056484748
v 0.050721735 0.676456809 0.039233230
v 0.092248440 0.935232043 0.055995326
v 0.202412158 0.665710390 0.011182273
v 0.095111758 0.812711358 0.073826067
v 0.035935108 0.935130954 -0.135413527
v 0.036485866 0.680742919 0.020515123
v 0.069210604 0.900235653 -0.148579538
v 0.016585501 0.686390698 0.005018313
v 0.030527424 0.700127721 0.017792609
v 0.040317457 0.843579292 -0.135923132
v 0.012357926 0.851737976 0.057931542
v 0.013778245 0.740756154 0.012721794
v -0.010135304 0.735500515 0.009369430
v -0.009441117 0.777665615 0.017530184
v 0.201990053 0.659754336 -0.020889178
v -0.008810379 0.763368130 0.014913624
v 0.059395719 0.701346099 -0.086205147
v 0.086143389 0.805860221 -0.108855173
v 0.106479526 0.813837707 -0.113606334
v 0.147793368 0.807714641 0.068515338
v 0.086756565 0.780020475 0.069798388
v 0.153621107 0.786006570 0.070059173
v 0.085583784 0.692873895 -0.093810305
v 0.194944412 0.662120163 0.028679084
f 555 540 123
f 389 162 497
f 567 540 568
f 583 104 251
f 463 489 430
f 453 94 255
f 483 484 162
f 446 640 671
f 574 577 251
f 50 244 238
f 52 244 50
f 575 57 53
f 55 249 52
f 55 2 250
f 577 248 563
f 575 437 432
f 57 597 589
f 2 265 262
f 589 592 57
f 262 259 2
f 5 267 262
f 602 606 589
f 5 9 11
f 58 606 610
f 11 272 5
f 12 278 11
f 565 793 8
f 630 60 632
f 13 425 12
f 424 289 160
f 289 424 13
f 643 649 60
f 181 403 179
f 483 206 484
f 163 651 174
f 53 563 558
f 651 65 650
f 163 389 384
f 683 66 65
f 455 558 563
f 165 384 171
f 340 331 34
f 67 66 683
f 206 470 63
f 385 102 856
f 67 702 70
f 344 340 696
f 179 403 406
f 710 70 702
f 16 352 14
f 111 112 59
f 63 64 655
f 18 368 16
f 710 742 753
f 119 112 111
f 394 671 545
f 551 922 903
f 19 375 18
f 753 740 711
f 406 470 179
f 261 615 108
f 545 453 439
f 178 386 530
f 24 386 23
f 72 753 742
f 26 396 24
f 768 765 72
f 119 142 112
f 32 63 470
f 112 142 161
f 399 400 396
f 154 343 182
f 545 671 448
f 399 415 400
f 768 770 765
f 32 406 410
f 418 415 399
f 770 183 777
f 387 300 166
f 415 418 422
f 105 86 299
f 169 42 839
f 170 142 119
f 173 172 705
f 329 638 343
f 134 738 737
f 185 638 329
f 692 661 145
f 150 74 741
f 637 345 873
f 132 145 661
f 170 184 142
f 138 495 760
f 138 136 188
f 136 194 188
f 201 87 194
f 270 87 205
f 216 49 210
f 46 216 724
f 198 184 170
f 43 96 907
f 219 39 218
f 45 43 41
f 224 37 219
f 498 224 514
f 86 105 342
f 225 36 514
f 378 107 110
f 80 233 107
f 22 41 43
f 198 217 849
f 41 581 45
f 103 233 76
f 76 40 103
f 222 217 214
f 678 100 40
f 98 41 22
f 366 41 98
f 40 76 678
f 215 4 284
f 215 98 21
f 537 536 92
f 222 234 217
f 904 537 92
f 460 462 30
f 284 471 366
f 222 239 246
f 586 903 759
f 462 28 30
f 246 234 222
f 454 449 28
f 237 391 924
f 560 319 921
f 246 888 252
f 431 471 282
f 455 560 391
f 319 560 241
f 50 238 793
f 50 566 52
f 52 574 55
f 258 263 510
f 244 52 249
f 55 253 2
f 284 792 657
f 303 670 667
f 303 100 674
f 250 249 55
f 273 274 252
f 251 253 574
f 100 303 301
f 301 570 100
f 104 261 257
f 677 100 678
f 273 285 274
f 257 2 253
f 2 257 265
f 250 2 259
f 570 568 40
f 752 292 293
f 294 296 285
f 285 296 274
f 684 497 679
f 277 274 296
f 440 447 442
f 579 489 463
f 692 329 695
f 259 262 267
f 871 736 360
f 262 271 9
f 40 100 570
f 570 567 568
f 203 128 270
f 310 296 294
f 305 296 310
f 87 270 194
f 9 5 262
f 5 272 600
f 276 9 271
f 9 276 11
f 272 11 278
f 302 323 310
f 568 103 40
f 108 615 89
f 280 11 276
f 11 280 12
f 103 568 540
f 278 12 425
f 323 337 328
f 283 12 280
f 12 283 13
f 283 297 289
f 289 13 283
f 540 561 231
f 425 13 424
f 209 288 205
f 291 125 286
f 346 337 323
f 49 304 288
f 173 350 351
f 297 654 314
f 347 158 864
f 304 47 311
f 47 304 49
f 47 46 481
f 360 361 855
f 501 684 146
f 481 311 47
f 46 39 481
f 343 695 329
f 314 289 297
f 289 314 160
f 481 321 308
f 481 39 321
f 325 122 321
f 325 321 37
f 37 321 39
f 333 160 314
f 324 266 333
f 527 107 231
f 84 121 325
f 36 327 498
f 160 333 34
f 327 120 84
f 36 82 371
f 277 393 390
f 689 34 333
f 34 689 340
f 313 34 331
f 266 334 689
f 334 260 341
f 340 335 331
f 107 527 110
f 54 404 405
f 696 14 344
f 61 401 44
f 38 299 407
f 358 14 348
f 14 358 16
f 344 14 352
f 356 704 712
f 352 16 368
f 413 62 417
f 370 16 358
f 16 370 18
f 175 705 134
f 713 115 110
f 371 27 378
f 27 371 82
f 381 18 370
f 18 381 19
f 368 18 375
f 80 378 27
f 19 381 235
f 19 395 23
f 19 23 178
f 202 506 913
f 23 395 24
f 386 24 396
f 398 24 395
f 24 398 26
f 26 398 220
f 26 412 399
f 396 26 399
f 418 399 412
f 164 180 444
f 444 443 164
f 175 173 705
f 685 84 120
f 422 300 415
f 685 121 84
f 172 169 300
f 172 300 422
f 78 80 27
f 226 365 78
f 89 615 114
f 240 485 309
f 134 737 175
f 226 27 82
f 245 459 452
f 187 186 140
f 243 459 245
f 189 187 130
f 581 466 579
f 467 472 637
f 308 122 240
f 138 579 466
f 430 255 463
f 499 435 430
f 453 430 435
f 435 440 439
f 435 499 450
f 243 479 281
f 308 321 122
f 897 438 584
f 439 453 435
f 243 281 893
f 450 440 435
f 480 859 865
f 440 449 447
f 442 439 440
f 450 449 440
f 447 449 454
f 492 488 493
f 127 458 456
f 449 456 28
f 82 225 708
f 454 28 462
f 28 456 30
f 456 450 127
f 30 456 458
f 225 82 36
f 30 464 460
f 506 507 502
f 126 469 125
f 287 508 509
f 207 507 506
f 410 460 32
f 126 306 477
f 460 464 644
f 644 32 460
f 32 644 63
f 475 31 576
f 470 406 32
f 64 63 644
f 306 309 477
f 125 464 458
f 528 795 511
f 516 523 524
f 655 206 63
f 206 655 484
f 206 474 470
f 162 679 497
f 316 322 822
f 313 160 34
f 37 498 325
f 523 316 534
f 497 684 501
f 501 146 505
f 146 512 503
f 505 503 513
f 263 515 510
f 512 120 115
f 503 512 91
f 517 513 503
f 115 713 91
f 458 203 125
f 315 547 548
f 91 512 115
f 547 330 336
f 91 713 88
f 517 88 522
f 552 548 547
f 532 88 713
f 88 532 519
f 552 336 553
f 522 519 541
f 527 231 561
f 127 128 458
f 538 660 692
f 514 36 498
f 224 498 37
f 538 692 695
f 114 626 631
f 553 342 105
f 219 37 39
f 555 660 561
f 127 450 499
f 891 199 824
f 660 555 661
f 218 39 46
f 199 97 886
f 366 98 284
f 22 21 98
f 41 366 581
f 43 232 22
f 907 232 43
f 96 536 907
f 45 463 255
f 45 581 463
f 255 94 96
f 255 96 45
f 94 453 545
f 448 546 545
f 582 593 594
f 595 584 438
f 216 46 47
f 216 47 49
f 551 640 558
f 558 640 569
f 49 288 209
f 793 565 50
f 569 53 558
f 566 50 565
f 209 210 49
f 841 351 350
f 574 52 566
f 578 53 57
f 612 609 423
f 53 578 563
f 575 53 569
f 597 432 211
f 253 55 574
f 57 575 597
f 578 57 592
f 592 583 578
f 627 609 612
f 584 621 628
f 603 589 606
f 602 589 597
f 634 819 627
f 610 606 602
f 835 318 229
f 626 606 58
f 610 624 58
f 58 624 630
f 632 58 630
f 634 884 869
f 58 632 626
f 60 642 632
f 642 60 649
f 60 630 181
f 650 649 643
f 662 652 645
f 656 628 621
f 621 636 656
f 658 659 204
f 64 644 469
f 466 495 138
f 694 377 700
f 468 471 431
f 663 650 65
f 628 656 668
f 679 162 484
f 65 686 663
f 672 673 659
f 686 65 66
f 683 65 651
f 468 431 478
f 683 693 67
f 685 146 684
f 146 685 512
f 696 340 689
f 66 67 701
f 473 495 478
f 66 698 686
f 702 67 693
f 668 675 687
f 701 698 66
f 405 690 54
f 701 67 70
f 54 690 564
f 14 696 348
f 711 70 710
f 699 70 711
f 702 709 710
f 229 318 236
f 657 282 471
f 710 709 742
f 753 756 740
f 756 753 72
f 742 754 72
f 72 754 768
f 72 765 756
f 766 765 770
f 490 193 496
f 130 772 496
f 770 776 766
f 15 719 168
f 87 201 148
f 183 770 768
f 201 194 136
f 422 705 172
f 633 777 338
f 777 633 150
f 408 74 633
f 638 185 408
f 106 730 258
f 688 379 694
f 275 631 118
f 185 692 145
f 197 750 749
f 736 737 738
f 263 258 730
f 738 741 743
f 185 145 143
f 743 741 744
f 744 741 74
f 744 467 879
f 132 140 145
f 123 132 661
f 741 738 150
f 123 540 567
f 773 772 567
f 738 134 150
f 78 27 226
f 238 623 1
f 264 279 779
f 776 150 134
f 134 705 420
f 695 541 538
f 104 599 261
f 365 681 680
f 761 762 763
f 365 678 76
f 76 78 365
f 411 156 420
f 156 411 220
f 541 519 538
f 220 764 156
f 76 233 78
f 80 78 233
f 168 789 387
f 70 699 701
f 398 395 228
f 434 437 445
f 779 780 887
f 428 432 434
f 926 317 706
f 197 749 745
f 213 6 4
f 279 785 780
f 419 427 428
f 148 201 745
f 454 462 419
f 526 782 783
f 381 734 235
f 410 414 419
f 493 769 913
f 511 4 215
f 4 511 213
f 406 414 410
f 208 731 729
f 21 511 215
f 210 728 727
f 794 800 823
f 511 21 529
f 470 474 179
f 724 218 46
f 227 110 115
f 118 280 275
f 219 218 722
f 806 800 794
f 803 804 256
f 716 778 225
f 224 219 720
f 407 86 690
f 356 734 381
f 389 497 380
f 809 795 528
f 810 806 811
f 717 716 514
f 497 501 380
f 317 697 429
f 810 818 821
f 913 771 202
f 341 698 699
f 373 376 159
f 369 177 373
f 341 260 698
f 260 334 266
f 365 226 681
f 517 522 354
f 828 821 818
f 354 362 364
f 569 640 446
f 519 522 88
f 767 828 818
f 266 324 676
f 602 597 211
f 804 834 256
f 121 240 122
f 345 868 918
f 610 602 211
f 169 839 166
f 427 195 211
f 643 179 174
f 683 651 165
f 693 683 171
f 627 884 634
f 324 654 676
f 846 397 841
f 841 397 374
f 362 709 369
f 580 397 846
f 192 188 190
f 192 499 489
f 128 192 190
f 270 205 203
f 205 288 286
f 291 306 126
f 208 148 733
f 288 304 291
f 304 311 306
f 311 481 308
f 286 125 203
f 283 118 297
f 589 599 592
f 283 280 118
f 227 115 120
f 747 805 732
f 707 226 82
f 107 378 80
f 275 114 631
f 118 646 297
f 89 114 275
f 231 233 103
f 87 209 205
f 816 872 870
f 271 108 89
f 248 560 455
f 248 241 560
f 108 271 265
f 566 565 241
f 86 876 690
f 622 244 619
f 517 91 88
f 574 566 248
f 715 662 889
f 244 249 618
f 249 250 614
f 882 465 718
f 253 251 257
f 774 465 882
f 250 259 608
f 883 494 774
f 921 391 560
f 259 267 604
f 54 564 847
f 251 577 583
f 600 267 5
f 89 276 271
f 503 91 517
f 690 405 407
f 275 276 89
f 892 573 582
f 272 278 596
f 248 577 574
f 280 276 275
f 425 588 591
f 425 424 781
f 781 313 572
f 424 313 781
f 572 585 781
f 314 654 324
f 136 197 201
f 313 557 572
f 237 551 558
f 554 331 335
f 334 341 348
f 760 136 138
f 335 344 549
f 341 699 704
f 348 696 334
f 921 319 7
f 358 348 704
f 344 352 544
f 912 582 594
f 903 586 551
f 352 368 543
f 381 370 356
f 368 375 539
f 788 8 3
f 535 375 178
f 221 795 809
f 828 767 562
f 559 833 920
f 921 920 899
f 546 448 898
f 903 922 836
f 38 903 299
f 235 228 395
f 405 669 407
f 546 92 94
f 400 518 520
f 92 546 904
f 639 35 926
f 386 396 525
f 927 926 33
f 928 605 930
f 200 490 298
f 94 545 546
f 96 92 536
f 927 56 852
f 143 472 408
f 220 412 26
f 400 520 521
f 412 220 411
f 109 113 152
f 920 832 559
f 418 412 411
f 152 113 746
f 387 789 786
f 420 418 411
f 746 161 867
f 418 420 422
f 490 773 298
f 496 772 773
f 394 442 445
f 562 767 832
f 739 636 820
f 204 725 658
f 773 490 496
f 725 223 635
f 447 454 428
f 472 186 637
f 215 284 98
f 189 130 496
f 458 464 30
f 410 462 460
f 125 469 464
f 635 247 487
f 487 269 629
f 641 487 629
f 268 269 487
f 269 393 629
f 390 269 268
f 469 126 64
f 349 761 763
f 655 64 477
f 303 674 670
f 290 393 277
f 611 290 928
f 163 474 483
f 928 307 605
f 635 641 648
f 531 605 533
f 677 674 100
f 477 309 485
f 506 202 207
f 679 485 240
f 240 121 684
f 312 912 594
f 684 679 240
f 121 685 684
f 186 187 345
f 503 505 146
f 912 332 892
f 772 130 132
f 685 120 512
f 501 505 159
f 725 648 658
f 505 513 373
f 513 517 364
f 892 847 564
f 110 527 713
f 714 847 339
f 522 541 154
f 51 714 346
f 231 103 540
f 714 51 404
f 541 695 343
f 567 772 123
f 502 500 506
f 578 577 563
f 867 659 673
f 577 578 583
f 597 575 432
f 592 104 583
f 913 492 493
f 845 167 839
f 599 104 592
f 386 178 23
f 599 603 615
f 110 227 378
f 615 261 599
f 706 402 639
f 603 626 114
f 132 123 772
f 624 610 195
f 409 706 317
f 746 673 682
f 114 615 603
f 120 327 227
f 624 414 403
f 691 429 697
f 642 631 632
f 642 118 631
f 429 433 853
f 646 118 642
f 642 649 646
f 152 682 691
f 682 433 691
f 181 643 60
f 654 297 646
f 122 325 121
f 140 130 187
f 421 416 617
f 123 661 555
f 309 308 240
f 698 260 686
f 702 693 177
f 698 701 699
f 672 441 436
f 291 126 125
f 109 691 697
f 143 140 186
f 874 872 816
f 665 441 672
f 188 192 489
f 665 658 653
f 712 704 699
f 653 451 665
f 927 697 317
f 712 740 734
f 648 461 653
f 178 375 19
f 923 880 116
f 641 461 648
f 740 756 748
f 748 758 228
f 926 706 639
f 479 641 482
f 754 742 362
f 354 754 362
f 407 669 38
f 203 458 128
f 482 629 620
f 756 765 758
f 182 754 154
f 128 127 192
f 254 246 252
f 611 382 620
f 764 398 228
f 499 192 127
f 764 766 156
f 766 776 156
f 930 611 928
f 420 156 776
f 140 132 130
f 788 7 8
f 387 166 168
f 420 776 134
f 136 760 197
f 300 387 415
f 750 197 760
f 745 201 197
f 148 208 209
f 733 148 745
f 258 35 106
f 593 533 605
f 731 208 733
f 236 318 910
f 729 210 208
f 728 210 729
f 727 216 210
f 188 489 579
f 929 573 556
f 724 216 727
f 573 929 582
f 723 218 724
f 722 218 723
f 720 219 722
f 717 224 720
f 514 224 717
f 188 579 138
f 876 556 573
f 707 681 226
f 898 904 546
f 472 143 186
f 212 795 221
f 899 391 921
f 854 925 931
f 213 795 212
f 140 143 145
f 404 54 714
f 833 922 924
f 415 387 786
f 143 408 185
f 238 3 793
f 1 3 238
f 31 799 752
f 622 238 244
f 918 799 515
f 380 376 171
f 915 752 357
f 617 476 421
f 619 244 618
f 618 249 616
f 616 249 614
f 636 739 613
f 388 613 10
f 614 250 608
f 357 791 915
f 383 688 388
f 608 259 607
f 571 438 576
f 295 667 666
f 92 96 94
f 607 259 604
f 372 726 700
f 667 295 303
f 367 726 372
f 604 267 601
f 298 295 207
f 923 875 880
f 363 732 367
f 408 467 74
f 148 209 87
f 298 301 295
f 359 747 363
f 601 267 600
f 359 355 755
f 600 272 598
f 598 272 596
f 353 755 355
f 301 298 773
f 596 278 591
f 747 755 751
f 591 278 425
f 588 425 781
f 388 688 813
f 769 771 913
f 763 353 349
f 202 771 200
f 506 500 913
f 74 467 744
f 773 570 301
f 82 708 707
f 320 647 326
f 500 492 913
f 331 554 557
f 242 910 320
f 344 335 340
f 910 908 647
f 554 335 550
f 239 222 703
f 549 550 335
f 549 344 544
f 166 167 168
f 544 352 543
f 543 368 542
f 17 15 167
f 17 845 157
f 907 536 919
f 157 850 155
f 155 850 153
f 542 368 539
f 150 633 74
f 153 854 151
f 151 854 149
f 149 858 147
f 147 862 144
f 539 375 535
f 759 903 38
f 530 535 178
f 144 862 141
f 141 866 139
f 139 866 137
f 530 386 525
f 137 870 135
f 525 396 521
f 135 870 872
f 133 872 131
f 131 874 129
f 129 923 117
f 923 874 875
f 170 119 902
f 521 396 400
f 20 932 101
f 99 101 932
f 99 886 97
f 95 97 199
f 95 891 93
f 93 896 90
f 518 400 786
f 90 896 85
f 85 901 83
f 83 905 81
f 169 166 300
f 81 905 79
f 77 79 796
f 77 909 75
f 439 394 545
f 75 914 73
f 73 914 71
f 71 916 69
f 442 394 439
f 468 466 366
f 442 447 434
f 7 562 920
f 794 534 811
f 924 899 833
f 434 447 428
f 428 454 419
f 419 462 410
f 38 898 759
f 902 111 897
f 466 468 495
f 526 524 534
f 25 59 56
f 96 43 45
f 895 401 61
f 182 343 338
f 483 389 163
f 483 162 389
f 897 59 25
f 883 894 775
f 776 777 150
f 59 897 111
f 380 384 389
f 774 882 893
f 111 902 119
f 778 708 225
f 501 159 380
f 167 166 839
f 159 505 373
f 176 191 867
f 373 513 369
f 364 369 513
f 850 890 925
f 354 364 517
f 354 522 154
f 177 369 709
f 154 541 343
f 446 445 437
f 376 380 159
f 204 223 725
f 217 198 214
f 214 703 222
f 437 569 446
f 610 211 195
f 414 624 195
f 403 630 624
f 889 718 715
f 160 313 424
f 181 630 403
f 888 246 239
f 179 643 181
f 174 650 643
f 651 650 174
f 163 384 165
f 487 247 268
f 165 651 163
f 171 683 165
f 174 474 163
f 557 313 331
f 475 515 799
f 376 693 171
f 285 273 757
f 177 693 376
f 627 885 884
f 174 179 474
f 509 508 516
f 294 302 310
f 709 702 177
f 709 362 742
f 154 754 354
f 182 338 183
f 780 785 803
f 183 768 182
f 423 413 881
f 183 338 777
f 638 338 343
f 633 638 408
f 590 401 895
f 692 185 329
f 190 188 194
f 515 475 25
f 270 190 194
f 190 270 128
f 195 427 414
f 7 788 562
f 915 878 571
f 877 595 438
f 203 205 286
f 44 48 61
f 474 206 483
f 210 209 208
f 61 62 895
f 413 895 62
f 211 432 427
f 172 42 169
f 398 764 220
f 515 263 918
f 437 575 569
f 228 758 764
f 124 885 426
f 175 871 350
f 84 498 327
f 225 514 716
f 327 371 227
f 918 263 730
f 898 448 759
f 371 327 36
f 839 374 890
f 227 371 378
f 451 441 665
f 228 235 748
f 444 180 457
f 233 231 107
f 187 868 345
f 759 448 586
f 189 292 868
f 734 748 235
f 653 461 826
f 924 922 237
f 292 193 196
f 446 671 394
f 461 641 479
f 922 551 237
f 391 237 455
f 482 641 629
f 918 868 799
f 196 200 293
f 771 293 200
f 558 455 237
f 281 287 894
f 894 893 281
f 248 566 241
f 257 251 104
f 255 430 453
f 257 261 265
f 509 775 287
f 260 266 676
f 509 516 524
f 265 261 108
f 523 516 531
f 322 316 523
f 273 252 888
f 265 271 262
f 811 534 316
f 316 315 811
f 676 686 260
f 366 466 581
f 478 495 468
f 330 547 315
f 547 336 552
f 366 471 468
f 760 495 473
f 657 471 284
f 336 342 553
f 553 900 552
f 832 900 553
f 865 878 791
f 792 284 4
f 31 571 576
f 286 288 291
f 438 571 877
f 906 864 863
f 4 790 792
f 8 7 319
f 303 295 301
f 291 304 306
f 570 773 567
f 739 617 392
f 617 416 392
f 306 311 309
f 309 311 308
f 170 628 668
f 613 739 10
f 739 392 10
f 656 675 668
f 656 815 675
f 680 678 365
f 813 613 388
f 324 333 314
f 687 198 668
f 379 688 383
f 295 666 207
f 815 656 636
f 377 694 379
f 325 498 84
f 689 333 266
f 334 696 689
f 700 377 372
f 861 834 860
f 703 721 239
f 732 726 367
f 834 861 256
f 348 341 704
f 747 732 363
f 356 358 704
f 735 888 721
f 370 358 356
f 735 264 757
f 735 273 888
f 755 747 359
f 369 364 362
f 353 763 755
f 647 761 326
f 761 349 326
f 376 373 177
f 779 757 264
f 780 779 279
f 384 380 171
f 235 395 19
f 736 871 737
f 562 788 917
f 910 647 320
f 785 804 803
f 414 406 403
f 256 323 803
f 813 675 815
f 415 786 400
f 427 419 414
f 422 420 705
f 432 428 427
f 430 489 499
f 587 580 590
f 437 434 432
f 445 442 434
f 446 394 445
f 671 586 448
f 819 609 627
f 456 449 450
f 455 563 248
f 865 791 769
f 581 579 463
f 645 652 817
f 644 464 469
f 652 662 715
f 874 923 129
f 715 664 652
f 694 812 688
f 477 64 126
f 750 760 473
f 485 655 477
f 465 715 718
f 507 207 666
f 465 774 494
f 865 486 480
f 812 675 813
f 485 484 655
f 207 202 298
f 883 504 825
f 493 865 769
f 783 782 504
f 679 484 485
f 202 200 298
f 196 490 200
f 196 193 490
f 877 859 476
f 302 803 323
f 189 496 193
f 814 806 810
f 168 719 789
f 821 814 810
f 391 899 924
f 713 527 532
f 467 408 472
f 302 294 887
f 786 787 518
f 538 519 532
f 561 532 527
f 926 35 33
f 538 532 660
f 540 555 561
f 551 586 640
f 319 241 565
f 660 532 561
f 113 161 746
f 161 176 867
f 8 319 565
f 223 247 635
f 781 585 784
f 620 629 393
f 887 780 302
f 269 390 393
f 671 640 586
f 781 784 588
f 599 589 603
f 393 290 611
f 626 603 606
f 928 290 305
f 623 238 622
f 625 1 623
f 774 893 894
f 312 332 912
f 626 632 631
f 332 339 847
f 847 892 332
f 757 887 285
f 847 714 54
f 793 3 8
f 732 807 726
f 858 931 857
f 675 812 687
f 168 167 15
f 273 735 757
f 920 921 7
f 402 385 639
f 167 845 17
f 638 633 338
f 646 649 663
f 650 663 649
f 845 850 157
f 888 239 721
f 663 654 646
f 706 409 48
f 850 854 153
f 676 654 663
f 429 409 317
f 661 692 660
f 854 858 149
f 676 663 686
f 858 862 147
f 433 429 691
f 678 680 677
f 699 711 712
f 712 734 356
f 711 710 753
f 862 866 141
f 712 711 740
f 682 436 827
f 734 740 748
f 866 870 137
f 214 687 808
f 748 756 758
f 664 816 652
f 872 133 135
f 198 687 214
f 754 182 768
f 872 874 131
f 665 659 658
f 758 765 766
f 658 648 653
f 766 764 758
f 776 770 777
f 668 198 170
f 117 923 116
f 787 786 789
f 929 330 822
f 533 822 322
f 556 336 330
f 531 322 523
f 899 920 833
f 662 444 889
f 346 323 256
f 491 482 620
f 116 880 911
f 911 20 116
f 382 491 620
f 911 932 20
f 932 886 99
f 645 443 662
f 930 382 611
f 382 930 516
f 886 824 199
f 605 531 930
f 491 508 848
f 628 170 902
f 256 347 346
f 482 848 479
f 891 896 93
f 347 256 861
f 820 617 739
f 866 819 817
f 605 594 593
f 896 901 85
f 929 593 582
f 612 881 885
f 901 905 83
f 826 451 653
f 451 457 180
f 672 659 665
f 441 180 851
f 79 905 796
f 436 673 672
f 436 851 827
f 909 914 75
f 682 673 436
f 914 916 71
f 584 902 897
f 876 86 342
f 69 916 1
f 829 433 827
f 700 808 694
f 788 3 916
f 853 829 417
f 409 61 48
f 402 48 855
f 870 817 816
f 855 29 360
f 874 816 664
f 385 361 102
f 830 880 875
f 576 897 25
f 819 634 817
f 68 69 1
f 106 856 730
f 743 736 738
f 910 242 236
f 862 857 819
f 744 879 102
f 880 830 831
f 840 528 843
f 401 846 44
f 803 302 780
f 769 791 357
f 878 915 791
f 831 911 880
f 918 873 345
f 576 25 475
f 799 31 475
f 841 29 846
f 879 856 102
f 106 639 385
f 573 564 876
f 911 831 802
f 342 556 876
f 337 339 332
f 25 510 515
f 350 29 841
f 564 573 892
f 892 582 912
f 510 25 56
f 864 906 837
f 312 328 337
f 929 822 593
f 33 35 258
f 871 360 29
f 840 860 835
f 864 158 863
f 29 855 44
f 916 914 917
f 808 687 812
f 594 307 312
f 307 305 328
f 916 917 788
f 33 56 927
f 840 835 809
f 307 594 605
f 736 743 361
f 531 516 930
f 290 277 305
f 852 109 927
f 318 835 860
f 21 844 529
f 852 59 112
f 620 393 611
f 102 743 744
f 112 113 852
f 751 763 762
f 647 785 762
f 805 747 751
f 252 268 254
f 230 835 229
f 487 641 635
f 637 879 467
f 124 851 164
f 809 230 221
f 161 142 176
f 807 732 805
f 247 234 254
f 230 809 835
f 808 700 807
f 345 637 186
f 176 184 191
f 812 694 808
f 204 849 223
f 849 204 191
f 813 688 812
f 635 648 725
f 849 184 198
f 815 613 813
f 815 636 613
f 217 223 849
f 659 191 204
f 217 234 223
f 191 184 849
f 859 480 421
f 795 213 511
f 245 461 243
f 878 865 859
f 802 886 932
f 191 659 867
f 452 718 889
f 223 234 247
f 176 142 184
f 246 254 234
f 865 493 486
f 293 771 357
f 268 247 254
f 771 769 357
f 805 264 735
f 268 252 390
f 161 113 112
f 486 493 488
f 390 252 274
f 867 673 746
f 264 751 279
f 274 277 390
f 746 682 152
f 281 848 287
f 827 433 682
f 808 703 214
f 152 691 109
f 109 852 113
f 476 859 421
f 296 305 277
f 476 595 877
f 305 307 928
f 196 293 292
f 595 476 820
f 726 807 700
f 752 293 357
f 307 328 312
f 310 328 305
f 56 59 852
f 292 752 799
f 328 310 323
f 886 825 824
f 312 337 332
f 807 703 808
f 891 824 782
f 193 292 189
f 844 21 22
f 429 853 409
f 109 697 927
f 56 33 510
f 105 559 553
f 339 337 346
f 346 714 339
f 51 346 347
f 317 926 927
f 564 690 876
f 863 844 232
f 799 868 292
f 510 33 258
f 843 528 529
f 844 863 842
f 861 840 843
f 861 158 347
f 861 860 840
f 752 915 31
f 158 843 842
f 843 158 861
f 842 529 844
f 919 837 906
f 906 232 907
f 809 528 840
f 730 873 918
f 730 856 873
f 873 856 879
f 856 106 385
f 817 634 645
f 837 919 838
f 817 652 816
f 919 906 907
f 919 536 537
f 743 102 361
f 904 669 838
f 898 669 904
f 669 898 38
f 703 807 721
f 405 404 838
f 669 405 838
f 922 833 836
f 294 285 887
f 361 385 402
f 869 645 634
f 830 875 664
f 916 3 1
f 864 51 347
f 402 855 361
f 909 801 914
f 397 890 374
f 48 44 855
f 796 909 77
f 879 637 873
f 901 798 905
f 580 925 397
f 48 402 706
f 896 800 901
f 891 823 896
f 409 62 61
f 853 62 409
f 881 413 417
f 417 62 853
f 86 407 299
f 459 893 882
f 199 891 95
f 830 465 831
f 829 426 417
f 426 829 124
f 426 881 417
f 124 829 827
f 433 829 853
f 886 802 825
f 774 894 883
f 851 124 827
f 164 884 124
f 441 851 436
f 180 164 851
f 443 869 164
f 911 802 932
f 715 830 664
f 874 664 875
f 736 361 360
f 451 180 441
f 457 452 889
f 889 444 457
f 866 817 870
f 106 35 639
f 459 718 452
f 826 452 457
f 452 826 245
f 451 826 457
f 862 819 866
f 858 857 862
f 461 245 826
f 459 882 718
f 479 243 461
f 854 931 858
f 850 925 854
f 846 401 580
f 845 890 850
f 491 848 482
f 848 281 479
f 825 494 883
f 382 508 491
f 900 832 767
f 508 287 848
f 896 823 800
f 839 890 845
f 504 782 824
f 42 374 839
f 516 508 382
f 908 910 318
f 534 524 523
f 552 818 548
f 42 172 173
f 901 800 798
f 818 552 900
f 533 322 531
f 871 175 737
f 868 187 189
f 22 232 844
f 593 822 533
f 822 315 316
f 929 556 330
f 330 315 822
f 838 919 537
f 904 838 537
f 318 860 834
f 908 318 834
f 465 830 715
f 556 342 336
f 105 836 559
f 833 559 836
f 29 44 846
f 908 834 804
f 562 917 828
f 299 836 105
f 818 900 767
f 832 553 559
f 562 832 920
f 811 315 548
f 828 801 821
f 801 828 917
f 821 797 814
f 836 299 903
f 401 590 580
f 797 821 801
f 905 798 796
f 796 814 797
f 810 548 818
f 814 798 806
f 798 814 796
f 909 796 797
f 811 548 810
f 413 587 590
f 404 51 837
f 51 864 837
f 837 838 404
f 909 797 801
f 529 842 843
f 158 842 863
f 232 906 863
f 800 806 798
f 529 528 511
f 794 811 806
f 785 908 804
f 785 647 908
f 859 877 878
f 526 534 794
f 877 571 878
f 571 31 915
f 173 351 42
f 524 783 509
f 350 173 175
f 29 350 871
f 823 526 794
f 783 524 526
f 526 823 782
f 42 351 374
f 841 374 351
f 504 775 783
f 509 783 775
f 782 823 891
f 885 124 884
f 887 757 779
f 914 801 917
f 426 885 881
f 890 397 925
f 825 504 824
f 775 504 883
f 925 587 931
f 587 925 580
f 802 494 825
f 785 279 762
f 494 831 465
f 831 494 802
f 894 287 775
f 590 895 413
f 438 897 576
f 884 164 869
f 762 279 751
f 423 931 587
f 587 413 423
f 931 423 857
f 762 761 647
f 617 820 476
f 595 820 621
f 751 755 763
f 893 459 243
f 751 264 805
f 609 857 423
f 423 881 612
f 662 443 444
f 721 805 735
f 621 584 595
f 857 609 819
f 443 645 869
f 612 885 627
f 636 621 820
f 628 902 584
f 805 721 807
