# avbd fit, rung f600-i16-s300 of Gate 6d (body space, fit phase only)
v -0.008064124 0.695940137 0.009024032
v -0.101337075 0.709765971 0.070818879
v -0.008062940 0.709824920 0.011092307
v 0.002016691 0.945395350 0.070532247
v -0.151843026 0.695247769 0.067856133
v 0.000633286 0.965465069 0.070992745
v -0.008202728 0.736524224 0.016645312
v -0.007889633 0.723219097 0.014020478
v -0.152509823 0.710628450 0.068219587
v 0.150351793 0.953241706 -0.081316158
v -0.172015369 0.706888795 0.060524981
v -0.192693785 0.708727002 0.046840664
v -0.200910240 0.709750831 0.029846281
v -0.177503556 0.705218256 -0.074504331
v 0.009480624 0.688513637 -0.054218162
v -0.158920705 0.702047288 -0.083563939
v 0.025256732 0.687408507 -0.057608612
v -0.141440570 0.702736914 -0.091936693
v -0.124471962 0.706943274 -0.100779474
v 0.202392727 0.672720015 0.017527904
v 0.001020864 0.917781532 0.069383964
v 0.000691256 0.903476119 0.068575397
v -0.104498170 0.702635884 -0.102763034
v -0.090215608 0.709127247 -0.099043377
v 0.101882339 0.859187484 -0.140516564
v -0.075581759 0.717591405 -0.095590964
v -0.135066062 0.926917553 -0.117324509
v -0.122477531 0.855173469 0.061046012
v 0.036552221 0.765725195 -0.090215802
v -0.134575188 0.863746345 0.054862630
v 0.073514596 0.887826741 -0.148585692
v -0.172336116 0.847735763 0.042756826
v 0.092049152 0.823581040 -0.124374487
v -0.207810998 0.704516828 -0.025678683
v 0.074781999 0.818996608 -0.118661143
v -0.157692462 0.929499805 -0.088517711
v -0.170190945 0.925590813 -0.047118489
v 0.013450799 0.818739593 0.032504331
v -0.169615135 0.928796649 -0.026971776
v -0.079962268 0.925383747 -0.141108185
v -0.023887644 0.906238258 0.067717269
v 0.010796889 0.734052479 -0.070822537
v -0.015082940 0.889393032 0.066409536
v 0.060199894 0.767677963 -0.099393986
v -0.033766873 0.890307248 0.065591663
v -0.163055390 0.933612525 -0.008416227
v -0.159519404 0.920265675 0.000665367
v 0.071415924 0.784256577 -0.103753731
v -0.148328245 0.923030198 0.016036598
v -0.040747836 0.711233914 0.031111974
v 0.052987136 0.867812753 0.060210992
v -0.053437740 0.709716201 0.051211275
v -0.068647847 0.780271649 0.061910987
v 0.054418247 0.837539971 0.048699304
v -0.075430438 0.708819985 0.060535301
v 0.109632470 0.836251736 -0.127598852
v -0.091672316 0.777553916 0.071170695
v -0.162818879 0.786395609 0.067110911
v 0.125084579 0.853002250 -0.126747981
v -0.194383293 0.784961641 0.040213544
v 0.081796147 0.769124389 -0.105612859
v 0.102595434 0.765147567 -0.110753573
v -0.180739835 0.855603099 0.025512895
v -0.173506603 0.870973706 0.022506513
v -0.209011704 0.782536924 -0.025638143
v -0.202372596 0.776414275 -0.051620580
v -0.192276895 0.785804391 -0.068022780
v -0.002187165 0.684258580 0.001609251
v 0.012718476 0.685097456 0.006346899
v -0.180543914 0.774365962 -0.085099660
v 0.027887866 0.684258401 0.012626181
v -0.123724401 0.782840192 -0.114340901
v 0.039854489 0.682425082 0.023404416
v -0.023618283 0.815236866 -0.097787365
v 0.048547573 0.680261493 0.036684170
v -0.099974222 0.927666843 -0.135516495
v 0.058590986 0.678556323 0.051096369
v -0.117795348 0.929191589 -0.128100500
v 0.074049123 0.677813649 0.057567108
v -0.125925303 0.916183770 -0.128657788
v 0.088800386 0.677098513 0.063519806
v -0.142755941 0.940104961 -0.104556583
v 0.103377506 0.676346719 0.069424205
v -0.170190662 0.899275959 -0.074169524
v 0.117490984 0.675551891 0.075135402
v 0.038983975 0.805304408 0.046384297
v -0.120327547 0.922698677 0.042335130
v -0.130129352 0.852521896 -0.122363701
v -0.152469650 0.736383080 0.070553228
v 0.134655952 0.674945176 0.073258996
v -0.148917794 0.859976649 -0.112542413
v -0.015819442 0.853669822 0.058378827
v 0.148667246 0.675121844 0.067468472
v -0.034367703 0.856626391 0.057723153
v 0.162811473 0.674929678 0.061618209
v -0.021285251 0.871637166 0.064050458
v 0.176702023 0.674372375 0.055823058
v -0.014385422 0.921874642 0.069057196
v 0.189455092 0.673751116 0.044057410
v -0.066431999 0.938259244 -0.136507958
v 0.195761651 0.673510492 0.030671930
v 0.025181528 0.815162063 -0.098820135
v -0.093313880 0.911584198 -0.144110218
v -0.100528255 0.745522618 0.073006615
v 0.033601291 0.788551092 0.039113767
v 0.056880318 0.819827080 -0.117658243
v -0.123701498 0.900049508 -0.133452237
v -0.134665221 0.733073831 0.076615781
v 0.131376296 0.821337223 -0.111935280
v -0.138734028 0.890051842 -0.124239370
v 0.140499145 0.863426208 -0.120816216
v 0.144196704 0.849225521 -0.108652234
v 0.145029068 0.832290292 -0.105416477
v -0.157732680 0.752570808 0.068808421
v -0.152328044 0.880943775 -0.111679539
v 0.203487083 0.672031283 0.001633789
v 0.203533024 0.671330094 -0.012152659
v -0.195782661 0.744436562 0.044675559
v 0.156105474 0.864357829 -0.106986210
v -0.164013594 0.890832424 -0.092311352
v -0.174973100 0.890044093 -0.056423128
v -0.172582299 0.897542119 -0.040450715
v -0.059328705 0.880128860 -0.148495689
v 0.160060048 0.759200215 -0.093798712
v -0.147489220 0.888450742 0.037224256
v -0.164195269 0.885433018 0.021668697
v -0.103163317 0.877684295 0.049518682
v -0.112045452 0.891296089 0.047255032
v 0.203591138 0.670794368 -0.026859397
v -0.022307457 0.870645165 -0.138770178
v 0.196019232 0.670441985 -0.041657228
v -0.042186745 0.866080761 -0.143722147
v 0.187146276 0.670248985 -0.054102607
v -0.030742090 0.774951637 -0.083929315
v 0.177993849 0.669748962 -0.066097423
v -0.092399918 0.928339362 0.055598728
v 0.163575009 0.669785619 -0.074383363
v -0.074864954 0.924455166 0.061905824
v 0.149692103 0.669872165 -0.080477193
v -0.023318928 0.854773045 -0.135122746
v 0.135810897 0.669770837 -0.086543128
v 0.163256571 0.857602000 -0.094780482
v -0.024910448 0.839664817 -0.126748830
v 0.122862116 0.670337021 -0.092297032
v -0.044418700 0.848805428 -0.139711693
v -0.175048381 0.863270879 -0.079350352
v 0.105695471 0.670993805 -0.096076682
v -0.122001231 0.939019561 0.044410814
v 0.091768637 0.673508346 -0.091002107
v -0.034967776 0.796398461 -0.089598611
v 0.077635989 0.675995231 -0.086043164
v 0.147600532 0.816030800 -0.105094932
v 0.063506506 0.678331733 -0.081010818
v -0.108524457 0.820992649 -0.113206878
v 0.049395949 0.680603087 -0.075966753
v -0.065923139 0.754389167 -0.099285066
v 0.036499154 0.684298456 -0.065645166
v 0.044276450 0.897813201 0.065545842
v -0.186087579 0.836467862 -0.073153406
v -0.208326310 0.711084008 -0.004788284
v 0.161207184 0.840096116 -0.097766712
v -0.195768774 0.852739155 -0.025697390
v -0.203689486 0.822587609 -0.015625091
v 0.181432143 0.753352940 -0.079007171
v -0.204621956 0.811396897 -0.034304306
v -0.009200699 0.713329554 -0.063363619
v 0.013692541 0.703171253 -0.060445148
v -0.009022404 0.700801194 -0.058376838
v -0.008857544 0.725791872 -0.068222269
v 0.166810155 0.877578139 -0.089825407
v -0.199224472 0.814932346 -0.054564834
v -0.008856111 0.738836408 -0.071392663
v -0.008944750 0.751946092 -0.075202085
v -0.207616284 0.810762882 0.003921857
v -0.008530086 0.765607595 -0.077240564
v 0.176088035 0.847553432 -0.085396573
v -0.180736333 0.810193062 -0.086910263
v -0.112839580 0.688037753 -0.100874186
v -0.192262933 0.817969501 0.028839951
v 0.191336975 0.768762171 -0.065591760
v -0.190508217 0.802415013 0.039967552
v -0.094696581 0.808723271 -0.110110983
v -0.080398172 0.798241198 -0.106701419
v 0.176864907 0.862993240 -0.075584948
v -0.046375878 0.832842231 -0.128807873
v -0.002578913 0.847534180 -0.125505030
v -0.002205969 0.859481156 -0.131033629
v -0.086332336 0.909692943 0.059031498
v -0.001840868 0.872465611 -0.133896276
v -0.102707162 0.903702855 0.052126516
v 0.186121807 0.843683839 -0.069464542
v -0.093163572 0.892081559 0.055525690
v -0.001447332 0.885686278 -0.135897025
v -0.104964599 0.918222427 0.050171752
v -0.143859386 0.807969868 0.069102921
v -0.001031623 0.899191201 -0.135382637
v -0.097600490 0.943775535 0.051029555
v 0.176156402 0.881365895 -0.062812164
v 0.172347695 0.690433443 0.059787035
v -0.000660853 0.912576795 -0.133307189
v -0.107943214 0.933775723 0.046649918
v -0.000264037 0.925923228 -0.130200297
v -0.127164260 0.893674552 0.037597131
v 0.196896255 0.838629723 -0.051782966
v -0.131574407 0.910447776 0.036417346
v -0.194933206 0.850059986 0.011397073
v 0.000186867 0.939169705 -0.126384810
v -0.130971417 0.940366387 0.034218397
v -0.137723446 0.926196933 0.034577008
v -0.141398668 0.938421547 0.019860987
v -0.125314504 0.801945329 0.075078651
v 0.036519401 0.960404396 0.069548078
v 0.015856219 0.965158284 0.070405237
v 0.174290493 0.893420815 -0.039085679
v 0.001455550 0.932116807 0.070095964
v -0.152445644 0.936392009 0.005020384
v 0.184960216 0.874021411 -0.038480822
v -0.164410591 0.943187714 -0.019189510
v -0.166838169 0.941559613 -0.035969697
v -0.073951609 0.735745311 -0.099330224
v 0.025324529 0.959114254 0.069918513
v 0.180521131 0.885975003 -0.021250591
v 0.195285812 0.852718711 -0.030837536
v -0.165132254 0.940051436 -0.053818099
v -0.151975408 0.946140587 -0.086713918
v -0.126018867 0.943225563 -0.117161490
v -0.152548060 0.899998188 -0.108385049
v -0.104759336 0.736870825 -0.109047972
v 0.062175196 0.958184421 0.063103884
v 0.047477033 0.960032284 0.066959962
v -0.104746722 0.895632625 -0.141666636
v 0.000410808 0.889392972 0.066891283
v -0.110588744 0.913400769 -0.136186853
v 0.188876331 0.868562222 -0.017231572
v -0.124843195 0.727442622 -0.105808459
v 0.074881926 0.957804382 0.059883773
v -0.027755443 0.779947996 0.030351484
v -0.030851621 0.698585212 0.016947474
v 0.175383657 0.895397842 -0.005409426
v -0.180733532 0.884258151 -0.032816254
v -0.037800673 0.737592757 0.032649007
v 0.086941049 0.961624920 0.055016659
v 0.210728556 0.775471270 0.005519778
v -0.046184868 0.695066571 0.036254700
v 0.210171103 0.774587452 -0.013592516
v 0.183690876 0.881500244 -0.000862664
v 0.197038859 0.852683902 -0.006353783
v -0.045668706 0.745799661 0.048630390
v -0.065744407 0.693363309 0.055236351
v -0.088422015 0.693866491 0.064409822
v -0.083249159 0.737423420 0.065598167
v 0.176163346 0.871453404 0.018945161
v -0.085063614 0.722301185 0.065352283
v 0.190058738 0.867160499 0.003686124
v -0.043230042 0.874386489 0.063022017
v 0.083592609 0.894800365 0.059965573
v -0.101146817 0.728844643 0.072175696
v 0.070427097 0.829083145 -0.128459826
v -0.110451996 0.692018747 0.073069438
v -0.204587668 0.745634675 -0.046819180
v -0.116220117 0.738603234 0.078795329
v -0.131002679 0.705640197 0.076518118
v 0.062039483 0.839247048 -0.138350770
v 0.139909357 0.910372555 0.031072011
v -0.118544303 0.721624792 0.078498736
v -0.208989114 0.732779324 -0.033446170
v -0.135225579 0.689101696 0.074174523
v 0.188744664 0.854638100 0.016294185
v 0.187220365 0.840660274 0.027472386
v -0.117282152 0.906800091 0.045139428
v -0.142097116 0.721604407 0.072783269
v -0.168095320 0.689252138 0.060889769
v 0.161550686 0.884505928 0.026498908
v 0.164139211 0.868600249 0.037066292
v -0.173551887 0.739948630 0.063338652
v -0.163890705 0.723614931 0.065148182
v 0.163723543 0.853438735 0.049619388
v -0.185999081 0.691717505 0.053675305
v 0.131709129 0.920199215 0.047942083
v -0.184417307 0.724687874 0.057879526
v 0.202695534 0.771656334 0.027267540
v -0.037174582 0.955973327 0.069275074
v -0.198465750 0.725335717 0.036958210
v -0.016493192 0.940772653 0.069802634
v 0.151491851 0.882567585 0.041234061
v -0.139733225 0.898580194 0.029602459
v 0.192689866 0.767163992 0.046777379
v -0.146561936 0.911180854 0.026129698
v -0.207461908 0.719650865 0.017430991
v 0.158291072 0.837702096 0.060147963
v -0.152837425 0.896700084 0.020469425
v 0.022568174 0.884039104 -0.139737576
v 0.024048883 0.902616501 -0.139799848
v 0.135254741 0.878770053 0.047811687
v -0.025536815 0.939938426 -0.132289380
v 0.147213608 0.865998566 0.051581122
v -0.206419319 0.737646639 0.022072824
v -0.019981105 0.922038555 -0.135800838
v 0.023091245 0.804134846 0.033539910
v -0.024799272 0.722986042 -0.069773778
v -0.041585483 0.927775562 -0.139030293
v 0.118694045 0.884578824 0.044542767
v -0.047397442 0.943815708 -0.133259237
v -0.154602021 0.907328784 0.009580830
v 0.139387995 0.849107146 0.060031284
v -0.166105703 0.894845188 0.007791803
v 0.125163838 0.834860444 0.068071365
v -0.170871675 0.898567021 -0.022851693
v -0.177850410 0.891501546 -0.010240881
v 0.125447750 0.868618011 0.055148821
v -0.166399881 0.906488419 -0.004628194
v 0.106055140 0.841729045 0.070016310
v -0.206504911 0.692045391 -0.010789326
v -0.209720850 0.728661656 0.000503671
v 0.092459872 0.764168441 0.071512289
v 0.112037264 0.763149559 0.079427600
v 0.101522818 0.803577721 -0.112006262
v 0.075180843 0.941485703 0.060678363
v -0.024663838 0.738323033 0.020279326
v 0.097902939 0.969447315 0.048400082
v -0.173228890 0.913391590 -0.034354668
v 0.123152293 0.779675663 0.078628682
v 0.100751519 0.875025570 0.050844692
v -0.209807038 0.736136794 -0.014852387
v -0.173957154 0.909076333 -0.054903816
v 0.112482272 0.970018685 0.040844295
v -0.162045628 0.910897255 -0.090281673
v 0.116343163 0.854934871 0.062923029
v -0.066537946 0.828743756 -0.128252387
v 0.081345424 0.780623615 0.067594662
v -0.204482719 0.687835574 -0.034627158
v 0.085336134 0.841833949 0.068262860
v -0.208856821 0.721076846 -0.019995291
v -0.197070181 0.728493333 -0.053241838
v -0.192825317 0.684769690 -0.050117481
v 0.061728738 0.777245760 0.059386510
v 0.095051490 0.859129250 0.062936343
v -0.069763839 0.812944591 -0.105338112
v 0.077673122 0.853872001 0.059351414
v -0.197928220 0.699854076 -0.046418209
v -0.190174043 0.741467416 -0.065578900
v 0.048808560 0.790820181 0.054300983
v -0.083834395 0.819693744 -0.118904188
v -0.183139667 0.691312015 -0.064100213
v 0.017802952 0.849116325 -0.130678296
v 0.076828964 0.871956229 0.059543736
v 0.060888477 0.887359917 0.062122680
v -0.184329316 0.723715365 -0.069578618
v 0.096570000 0.958871186 0.050409593
v 0.017518584 0.759470642 -0.078616790
v 0.018723430 0.745297551 -0.076288834
v -0.165147528 0.688006818 -0.077203386
v 0.105825737 0.962735295 0.045146134
v -0.130655617 0.822076321 -0.112646557
v 0.128468290 0.957647979 0.031516951
v -0.156430259 0.729880393 -0.090680636
v 0.047287874 0.911957383 -0.144418478
v -0.168459803 0.718770444 -0.082374737
v 0.138790309 0.952892125 0.020190593
v 0.032531492 0.782842517 -0.086985327
v 0.036563233 0.799991310 -0.091142118
v -0.144524604 0.809276760 -0.106770083
v 0.148413122 0.951710701 0.006672677
v -0.148285836 0.825566411 -0.105229758
v -0.107707120 0.943978488 -0.126500964
v -0.033943079 0.925719082 0.068430439
v 0.157753438 0.955005169 -0.007920903
v -0.146440640 0.686717153 -0.085359357
v -0.163347930 0.817567348 -0.098759629
v -0.152986139 0.714811683 -0.089201078
v -0.149640799 0.919502556 -0.105733000
v 0.154979497 0.946806550 -0.002110409
v -0.179480195 0.828003883 -0.087714620
v 0.031519838 0.731818080 -0.076373674
v -0.129360691 0.688841105 -0.093693174
v -0.189413488 0.820744336 -0.071220614
v 0.161979571 0.951133132 -0.021873189
v -0.139841095 0.908701420 -0.119847275
v 0.162584931 0.951378047 -0.036515623
v -0.195803538 0.835126579 -0.055492211
v -0.139481232 0.720217824 -0.097031973
v 0.171296507 0.800486863 0.063276902
v 0.160068050 0.952012897 -0.052346252
v -0.201806232 0.825091839 -0.038392991
v 0.047316249 0.812475860 -0.102080263
v -0.093943164 0.691252589 -0.096812643
v -0.026211644 0.706643701 -0.064691857
v 0.157330483 0.952523232 -0.066091537
v -0.199654132 0.838638306 -0.031524755
v 0.176095814 0.854497910 0.032771572
v -0.023643134 0.765363932 0.025000338
v 0.142645597 0.954950631 -0.092781916
v 0.176918462 0.834872901 0.044551648
v -0.060136445 0.831073642 0.054144967
v -0.105597615 0.718378663 -0.106263146
v -0.075452521 0.697625160 -0.091595128
v 0.049308799 0.731358528 -0.089588046
v -0.089722551 0.727185488 -0.102621078
v -0.058886468 0.712621987 -0.088758320
v -0.055767708 0.695818603 -0.083350137
v 0.071761973 0.753638148 -0.100595340
v 0.059003990 0.799383819 -0.100102045
v -0.179286391 0.813416362 0.051885836
v 0.043023214 0.850700736 0.053376794
v 0.035702571 0.834905624 0.045694124
v -0.176673263 0.830415070 0.046477981
v 0.030917892 0.819853902 0.037794638
v -0.029047284 0.824437261 -0.115336910
v 0.096756667 0.784353137 -0.110473037
v -0.156760097 0.840360641 0.059029598
v -0.058069877 0.740767956 -0.095133297
v -0.062790506 0.727048278 -0.093379796
v 0.103777848 0.743432760 -0.108923815
v -0.156267554 0.821704865 0.063255213
v -0.038595971 0.713494897 -0.081293635
v 0.130984217 0.955495715 -0.104513943
v 0.124158800 0.758227408 -0.110980093
v -0.047214136 0.729784727 -0.088726148
v -0.136127993 0.832842052 0.065907076
v -0.043120559 0.753765225 -0.092668220
v 0.117141664 0.956757247 -0.112776041
v -0.032937679 0.737120748 -0.077052422
v 0.110426106 0.722431362 -0.108223930
v -0.207609743 0.702704310 0.012095209
v -0.197844967 0.692803264 0.033018954
v 0.140121803 0.754478395 -0.102590442
v -0.129379064 0.817691207 0.071485892
v -0.112949029 0.827876747 0.072477028
v 0.121066824 0.792860568 -0.115767047
v -0.063508525 0.876953602 0.061104245
v -0.051295102 0.954577744 0.065947875
v -0.101703584 0.808811784 0.076589443
v 0.141109526 0.787080646 -0.106717445
v -0.090367153 0.823799253 0.070597813
v -0.074336596 0.863475025 0.055318326
v 0.178208917 0.792185187 -0.090496220
v -0.079094395 0.809471607 0.065482050
v 0.117816687 0.897313237 -0.135812670
v -0.067022040 0.847163856 0.053629350
v -0.084589504 0.852147281 0.064334020
v 0.190130234 0.786277652 -0.071107283
v -0.078442879 0.836581051 0.064409673
v 0.187788367 0.739361107 -0.067804821
v 0.195634484 0.752073348 -0.059149664
v -0.073395245 0.822776973 0.062257320
v -0.059670396 0.813671470 0.055713795
v -0.099238053 0.840431690 0.071573541
v -0.024538605 0.827282608 0.040810525
v -0.105764486 0.854302526 0.065237753
v -0.094388567 0.865362287 0.057620592
v 0.200969487 0.783899665 -0.052994300
v 0.209972858 0.761237264 -0.026378760
v -0.054054819 0.860027432 0.055974673
v -0.119114481 0.842326522 0.066670261
v -0.038473975 0.765197873 0.040250171
v -0.114398062 0.867246032 0.056564499
v 0.204169318 0.765670300 -0.048124827
v -0.126910537 0.879093349 0.047844891
v 0.210600734 0.759535432 -0.006090946
v -0.153540358 0.856621742 0.053322930
v 0.209323138 0.794567943 -0.010235155
v -0.138060093 0.848180950 0.060232423
v -0.053666253 0.892016113 0.063409135
v -0.148472279 0.872543335 0.048176229
v 0.209458545 0.726894498 -0.002293472
v -0.055581540 0.923656344 0.065574951
v -0.003655359 0.827299237 -0.107496187
v -0.050906979 0.940178752 0.066758774
v -0.161112383 0.876471817 0.034428179
v -0.187368274 0.837826908 0.028031584
v -0.034376897 0.944329619 0.069107965
v -0.003041375 0.837365925 -0.116752610
v -0.075556144 0.953807473 0.059681572
v -0.201340005 0.830361664 0.010757657
v 0.080234848 0.870762050 -0.148314327
v 0.123343691 0.932616353 -0.124319732
v -0.177928954 0.881606281 0.007687572
v -0.063314989 0.953970134 0.062849656
v 0.206825539 0.792305112 0.017746281
v 0.101542309 0.956846356 -0.119625531
v -0.169492722 0.917037368 -0.015849361
v 0.195732832 0.805750191 0.029955637
v -0.200357527 0.841477871 -0.010183332
v -0.193722829 0.859714150 -0.009778297
v -0.186167628 0.875576794 -0.012114964
v 0.085653961 0.954649270 -0.124235809
v 0.198876873 0.836744308 0.012286333
v 0.070113733 0.954101861 -0.126346812
v -0.073845692 0.893117905 0.060877096
v -0.016890675 0.903575122 -0.137593299
v 0.187422574 0.798635423 0.047277313
v 0.053290300 0.953265548 -0.127713516
v 0.062705994 0.943234444 -0.133410305
v 0.204449654 0.720764697 0.024219129
v -0.067148127 0.939667702 0.062588677
v -0.021335680 0.887554467 -0.139413103
v -0.193725944 0.854052663 -0.045156572
v -0.167750388 0.922538579 -0.070228204
v -0.083796233 0.878331304 0.058373045
v 0.036389787 0.953581512 -0.127471432
v -0.186269686 0.852230549 -0.065870039
v 0.017376574 0.951532364 -0.125752732
v -0.160435617 0.853470325 -0.097040072
v 0.181386441 0.726884484 0.059768952
v -0.176815152 0.845844150 -0.085277930
v 0.016971303 0.943541169 -0.129156440
v 0.000329546 0.950049579 -0.122776270
v 0.185090601 0.782323718 0.057676662
v 0.173591986 0.762027860 0.064456061
v 0.086366639 0.839635253 -0.138779223
v 0.016428377 0.938463569 0.069774345
v -0.163758650 0.870746315 -0.095290229
v -0.161628217 0.835968614 -0.098664567
v -0.160807952 0.941475391 -0.071702890
v 0.069425263 0.855174422 -0.145238832
v 0.159132570 0.779850841 0.069225945
v -0.140747756 0.842467904 -0.105982922
v -0.046610475 0.681415439 -0.075286090
v -0.114845492 0.844293714 -0.131310955
v -0.060029931 0.679620862 -0.080258355
v -0.073505402 0.677704215 -0.085217163
v -0.121063828 0.835773826 -0.117569223
v 0.137573510 0.768824041 0.075599663
v 0.152116925 0.755637765 0.071001321
v -0.086983107 0.675646245 -0.090134636
v 0.145157158 0.734496891 0.073397405
v -0.119279131 0.882507026 -0.136223108
v 0.033207215 0.932085156 0.068829045
v 0.021692354 0.920289874 0.068781145
v -0.100400470 0.673336446 -0.094898127
v 0.138714224 0.789855838 0.073435321
v -0.112230219 0.862374604 -0.137687057
v 0.120631061 0.794241786 0.077564165
v 0.129544854 0.749113441 0.078331783
v -0.116477452 0.671931028 -0.095450513
v -0.000215479 0.861594021 0.061758716
v -0.000407874 0.848969936 0.056330781
v -0.094986461 0.845369995 -0.139348000
v -0.129733473 0.671840489 -0.089874491
v -0.081112660 0.892208397 -0.148111492
v -0.102593683 0.830775261 -0.125260875
v -0.142112136 0.671418846 -0.084453024
v -0.155341387 0.671547294 -0.078742817
v -0.168643132 0.671444297 -0.072967738
v -0.044209324 0.841641426 0.049064826
v -0.022374498 0.839821637 0.053062446
v 0.074877903 0.766437531 0.064381354
v 0.078055695 0.750479281 0.064842418
v -0.180947736 0.671702027 -0.063092299
v -0.189790756 0.672184110 -0.051603448
v -0.027885249 0.795927644 0.033962961
v 0.059934877 0.759996712 0.058010049
v 0.040750723 0.771387458 0.048122071
v -0.198103964 0.672404826 -0.039671026
v -0.078080438 0.874683857 -0.148802295
v 0.067854948 0.793425918 0.062589355
v -0.203879952 0.672854185 -0.025207078
v -0.043993589 0.783316731 0.052017152
v 0.027893374 0.772943795 0.031425484
v -0.033233836 0.751740813 0.028439889
v -0.098551795 0.877837360 -0.144083098
v 0.024891082 0.736719549 0.024174938
v -0.056146782 0.764891684 0.056272019
v 0.062703282 0.823295772 0.057430785
v -0.033914924 0.725475609 0.024205834
v -0.045318861 0.725700021 0.042675942
v -0.057487421 0.898249805 -0.147313803
v -0.074137047 0.910044014 -0.147293791
v -0.062268931 0.797366261 0.059415571
v -0.058358371 0.918493390 -0.143899754
v 0.095815986 0.901424289 -0.144976884
v -0.203875303 0.673330784 -0.010913799
v 0.073931709 0.809784710 0.063345715
v -0.064437732 0.728435040 0.057589114
v -0.084771961 0.793469369 0.069040038
v 0.100931033 0.881974399 -0.143024415
v -0.067363560 0.748562574 0.059985947
v -0.077035040 0.764990270 0.064745866
v -0.064724937 0.908465862 0.063624181
v 0.068278812 0.735110223 -0.096901253
v -0.044055022 0.907937229 0.066604555
v 0.090544470 0.813993752 0.071520485
v -0.085192427 0.751811981 0.067317143
v 0.139920667 0.895845115 -0.122548983
v -0.203826278 0.673627079 0.002437910
v -0.026407782 0.812040210 0.035509579
v 0.088250920 0.725902438 -0.101379611
v -0.196176469 0.675133228 0.030152714
v -0.117734216 0.773443282 0.080288589
v 0.084129028 0.742151022 -0.103061840
v -0.190108776 0.675352156 0.043165017
v -0.098520540 0.761896729 0.073317252
v 0.104283676 0.803808868 0.078049988
v 0.110883117 0.823001564 0.074768595
v 0.131797642 0.914345384 -0.125484005
v -0.178702638 0.675627232 0.054628979
v -0.105594374 0.790397763 0.077387951
v -0.165439427 0.675967872 0.060200464
v -0.117253326 0.755231798 0.080225274
v -0.151964277 0.675999999 0.065818548
v -0.138373449 0.675640106 0.071431816
v -0.127432674 0.787687182 0.076206729
v -0.139387041 0.762691915 0.074516445
v -0.123945937 0.675939322 0.076629341
v 0.129245907 0.811533332 0.072973475
v -0.142818511 0.778553367 0.073262937
v -0.109151706 0.676415682 0.071223877
v -0.095172815 0.676846385 0.065606080
v 0.132544100 0.715828717 -0.099112816
v -0.144601583 0.793825567 0.070995666
v 0.165185988 0.819872022 0.061627727
v 0.133725211 0.729339898 -0.101430580
v 0.156732991 0.939408600 -0.083296016
v -0.081135914 0.677299619 0.059974097
v -0.137343690 0.747389615 0.075508334
v -0.067074016 0.677832842 0.054362513
v 0.134492815 0.943377376 -0.109917328
v -0.053616680 0.678650975 0.043953620
v -0.045578495 0.680332541 0.031216737
v 0.182707816 0.815234542 0.045483727
v 0.147835150 0.911180019 -0.110223785
v -0.037549090 0.682217360 0.018550025
v -0.026885137 0.683739007 0.008424645
v -0.162079766 0.803639412 0.064741567
v -0.022327121 0.695315957 0.001735811
v -0.161241755 0.769117236 0.067860588
v 0.148657411 0.724804223 -0.092998892
v 0.157750383 0.894841850 -0.103417218
v 0.191632047 0.823758602 0.027823787
v -0.182607576 0.795951426 0.056412570
v -0.179605067 0.757950902 0.061946649
v -0.183364034 0.776768625 0.060459472
v -0.046097316 0.812098145 -0.100988567
v 0.165224105 0.720180392 -0.083730556
v 0.201657563 0.833352447 -0.011131347
v 0.153631300 0.925923467 -0.099092372
v 0.012225990 0.838179886 -0.118776128
v -0.055348665 0.819628358 -0.117599092
v 0.068255454 0.813613117 -0.104949035
v -0.043169454 0.803720117 0.048497733
v 0.206603482 0.815022588 0.005443227
v -0.195463598 0.766229808 0.041388217
v -0.202464938 0.797930598 0.023166362
v -0.166454732 0.862902761 0.038348593
v 0.183672994 0.722981274 -0.069792077
v -0.206109405 0.757574916 0.022407966
v 0.101905145 0.947695851 0.048493136
v 0.204789236 0.814859509 -0.020056939
v -0.205550671 0.777129531 0.021253128
v -0.210540891 0.788787842 -0.000701719
v -0.207786471 0.801597416 -0.018367739
v 0.193453789 0.714949965 -0.054627746
v 0.206734300 0.800008118 -0.035340782
v -0.210919186 0.747236609 0.000792964
v -0.186512560 0.866381049 0.009009178
v 0.161389366 0.910422921 -0.092107825
v -0.024150109 0.957241356 0.069838867
v 0.202682585 0.818471134 -0.044284709
v 0.191070214 0.822074115 -0.067209780
v -0.086918153 0.859644115 -0.145290911
v -0.062181175 0.860839486 -0.146387473
v 0.197162569 0.732851386 -0.053418182
v -0.210668355 0.767396927 -0.005526652
v 0.203297690 0.705859542 -0.039815705
v 0.198570430 0.802336395 -0.058033347
v -0.015801758 0.951973081 -0.125454485
v -0.034607466 0.954094052 -0.127321929
v 0.167047128 0.894389510 -0.078770369
v 0.016901638 0.829134285 0.045005169
v -0.050892990 0.953923106 -0.127550438
v -0.043816142 0.821901023 0.045621786
v 0.188175008 0.803150356 -0.074839398
v 0.179583415 0.812070072 -0.088240050
v -0.067557201 0.954807401 -0.126394227
v 0.169039518 0.914445519 -0.072805323
v -0.210270330 0.750051796 -0.022037251
v -0.082798950 0.955362976 -0.124376237
v -0.088857993 0.941913307 -0.132155508
v -0.188753709 0.867032707 -0.031022793
v -0.098028585 0.957774937 -0.119890854
v -0.113279060 0.958144009 -0.113564469
v 0.158797368 0.800999522 -0.099722147
v -0.205124378 0.795629382 -0.048582040
v -0.184032291 0.871015668 -0.056340836
v -0.169464633 0.880600810 -0.074688807
v -0.209339574 0.764374316 -0.034619208
v 0.173879430 0.902083397 -0.055998851
v 0.164993331 0.940982342 -0.052849092
v -0.203858942 0.715948641 -0.041836992
v 0.046529315 0.821529865 0.047968898
v 0.137792975 0.803609073 -0.109120987
v -0.068683162 0.842675984 -0.142100602
v -0.191833362 0.803244472 -0.069488838
v 0.168606922 0.937063098 -0.037975781
v -0.081998065 0.831684887 -0.133002371
v -0.190429568 0.710869431 -0.058424436
v 0.120068133 0.809343219 -0.116244182
v -0.197122484 0.758422971 -0.058025591
v -0.181359842 0.755246282 -0.079934895
v 0.167477891 0.934655547 -0.021264719
v -0.190105766 0.769941688 -0.068437532
v -0.181587100 0.792712331 -0.086557716
v 0.171214387 0.900492013 -0.018672008
v -0.174824357 0.735978961 -0.082860269
v -0.026312128 0.754595578 -0.078569293
v 0.081349380 0.799818397 -0.106494524
v -0.127180502 0.957574725 -0.105851352
v -0.137836903 0.958866477 -0.094639264
v -0.162232414 0.800280929 -0.098729834
v -0.161741585 0.782294750 -0.097735666
v -0.161482140 0.764475226 -0.094612464
v -0.159937888 0.746867418 -0.092210352
v -0.135702565 0.871495128 -0.126733452
v 0.062123258 0.854382336 0.052463762
v 0.208668917 0.725792706 -0.031271778
v -0.155145809 0.955932498 -0.067130819
v -0.159024924 0.953455746 -0.053721368
v 0.209946841 0.743150890 -0.018354611
v -0.008540822 0.688013613 -0.054075338
v -0.161830023 0.952820659 -0.037984125
v 0.159717560 0.906295419 0.001910148
v -0.161404386 0.952480435 -0.024904471
v -0.157604471 0.944256961 -0.005332642
v -0.154387474 0.954034328 -0.003342669
v 0.200872660 0.831735015 -0.031410519
v 0.162934631 0.941715240 -0.008595837
v -0.147910833 0.949787796 0.007235537
v -0.141232163 0.951257348 0.017035970
v -0.133435503 0.950434983 0.027444500
v 0.048992172 0.831788838 -0.128303081
v -0.122213505 0.950543284 0.038813122
v 0.152941391 0.937095642 0.004639840
v -0.109971382 0.945728421 0.044996858
v -0.141315758 0.737977326 -0.099711850
v 0.151695043 0.900408626 0.018131446
v 0.015510869 0.790288568 -0.083180510
v -0.007436949 0.779615343 -0.080112047
v -0.005976538 0.794512570 -0.082303546
v 0.147901386 0.942106903 -0.098449141
v -0.142542511 0.755627573 -0.102035008
v -0.005124258 0.807457328 -0.088354334
v -0.142518729 0.791731477 -0.106890418
v 0.013447744 0.806188583 -0.088385649
v -0.004332160 0.818534493 -0.096902043
v -0.113294527 0.955667138 0.042249154
v 0.163200408 0.822044730 -0.098390743
v 0.141160414 0.939270616 0.020347022
v -0.124984421 0.745940268 -0.108892396
v -0.101187088 0.954447389 0.048213571
v -0.089380540 0.954275429 0.054309927
v 0.130156070 0.928359210 0.036291771
v 0.047260981 0.892815411 -0.145756647
v -0.142894551 0.773388803 -0.105055049
v -0.122405149 0.803339183 -0.116241768
v 0.128718823 0.947115302 0.034983367
v -0.124620639 0.763971329 -0.112044498
v 0.150207981 0.896787345 0.034681361
v -0.102878846 0.755168974 -0.110318027
v -0.002365343 0.817138970 0.031281598
v -0.082718745 0.941448092 0.058538716
v 0.114146292 0.954989612 0.042334817
v 0.124820352 0.939321876 0.047369607
v 0.112761632 0.941355050 0.043355118
v -0.086754784 0.746177614 -0.104640245
v -0.100725889 0.773282230 -0.111558557
v -0.081693046 0.764152050 -0.105190314
v 0.040328704 0.742641866 0.039113075
v -0.100069165 0.791173100 -0.112103201
v 0.051876225 0.928326964 -0.139765382
v -0.078479759 0.782224059 -0.105923727
v 0.026135009 0.919968009 -0.138049215
v -0.040687848 0.885315120 -0.145283893
v -0.037354436 0.906631649 -0.144449249
v 0.207099006 0.738618493 0.021117378
v 0.191026673 0.746848702 0.054689430
v -0.054071676 0.774757504 -0.099041402
v -0.059297405 0.795904160 -0.100701317
v -0.147551388 0.956500053 -0.082076363
v 0.138432622 0.905261338 0.044311408
v 0.122013330 0.904403031 0.042502128
v -0.205701977 0.687304914 0.010695325
v 0.160186306 0.720239043 0.066612646
v 0.167010754 0.740826964 0.066289760
v -0.202534527 0.674463868 0.017358545
v 0.110753417 0.923283219 0.047419526
v -0.036559276 0.696720243 -0.072875537
v -0.035946079 0.685016274 -0.064193889
v 0.012614638 0.721381366 0.015427211
v -0.024449650 0.687537968 -0.056216598
v 0.006635351 0.955849528 0.070568249
v 0.068814024 0.921342015 -0.142938286
v -0.010123858 0.958394527 0.070456870
v -0.026256973 0.713715792 0.017267248
v 0.119660579 0.729096174 0.080087401
v 0.029980320 0.948878765 0.069811851
v 0.072857127 0.695686758 0.058714986
v 0.061213948 0.707743883 0.055073928
v 0.094236925 0.705054402 0.068174265
v 0.049462769 0.871076465 -0.146147192
v 0.114415869 0.709589422 0.076571748
v 0.045697726 0.711081803 0.040486753
v 0.201068327 0.703022480 0.028857216
v 0.105339251 0.897509456 0.051207088
v 0.095046654 0.913058579 0.055167776
v 0.149705976 0.920462966 0.015370163
v 0.098142408 0.723235667 0.071119174
v 0.164870411 0.921154141 -0.007123379
v 0.172894657 0.915509701 -0.032845832
v 0.041824624 0.944965363 0.068833180
v 0.079232894 0.732872903 0.064183712
v 0.100968495 0.744162917 0.073658936
v 0.169980898 0.923151314 -0.053283714
v 0.165021569 0.932682514 -0.069436051
v 0.078174800 0.714945853 0.062519655
v 0.161458537 0.924374104 -0.083496839
v 0.189398333 0.697497725 -0.056524821
v 0.172752127 0.703597665 -0.076459557
v 0.058066331 0.741152704 0.056194000
v 0.146545142 0.704544187 -0.089645803
v 0.139888257 0.927982986 -0.112408124
v 0.059982769 0.723370373 0.055870481
v 0.101016983 0.782652318 0.075788639
v 0.139385849 0.714067221 0.073908016
v 0.175733581 0.707736850 0.059822999
v 0.194319546 0.714260817 0.044266511
v 0.208587363 0.780747414 -0.031411536
v 0.160263687 0.779866517 -0.097462147
v 0.042735331 0.727429271 0.039288182
v 0.142097890 0.769781470 -0.104339436
v 0.208273649 0.710961759 -0.014987822
v 0.207899883 0.708169639 0.007167720
v 0.033660669 0.756296039 0.032473039
v 0.010393377 0.774215698 0.024325304
v 0.079200484 0.918820202 0.061322492
v 0.056962870 0.944704831 0.065154433
v 0.016513500 0.789348781 0.028330520
v 0.032200303 0.863143325 0.060909230
v 0.020998942 0.845537305 0.055252679
v 0.019080985 0.718244851 -0.068167977
v 0.049655892 0.929021657 0.066955678
v 0.034551609 0.747586131 -0.084367156
v 0.029263178 0.905946732 0.067528442
v 0.040765606 0.915569782 0.067925662
v 0.014370476 0.904791176 0.068088189
v 0.034193464 0.702626050 -0.067504898
v 0.053192742 0.750232518 -0.094837151
v 0.069551975 0.839610457 0.058750145
v 0.195866555 0.785602629 0.037743177
v 0.188384131 0.859839737 -0.055510975
v 0.053502638 0.697129488 -0.082558706
v 0.180051953 0.772410750 -0.085091755
v 0.126262948 0.837102115 -0.114395902
v 0.122941434 0.775998473 -0.113836393
v 0.077886067 0.693492889 -0.091272324
v 0.049606685 0.783603132 -0.097738728
v 0.036333509 0.821538091 -0.115761533
v 0.120317459 0.702806115 -0.101233587
v 0.101529047 0.689577162 -0.098670051
v 0.104592875 0.936456978 -0.130281478
v 0.064922161 0.928496659 0.063870087
v 0.061411016 0.908894897 0.064415112
v 0.128762215 0.686910212 -0.093081415
v 0.024686702 0.891612351 0.066266917
v 0.039527487 0.880488992 0.064186983
v 0.082468010 0.937879205 -0.135420233
v 0.152731895 0.686616302 -0.081985496
v 0.180104017 0.830979168 -0.085358106
v 0.022728104 0.864989877 -0.137300327
v 0.177223012 0.734345078 -0.080521539
v 0.174475163 0.685639739 -0.071897849
v 0.016089676 0.774537981 -0.080990925
v 0.188142359 0.682235837 -0.055160027
v 0.029577017 0.835502267 -0.124997832
v 0.200458974 0.687107921 -0.039849870
v 0.207154870 0.696452975 -0.023087967
v 0.056582909 0.807201087 0.054982997
v 0.110965386 0.917335331 -0.134560809
v 0.089886293 0.921030700 -0.141266167
v 0.016930487 0.825511754 -0.110435173
v 0.206637859 0.693964481 -0.004679505
v 0.126972452 0.741849065 -0.106909476
v 0.210629821 0.744680107 0.001439115
v 0.197408199 0.733221173 0.040192701
v 0.162656546 0.739680350 -0.089135170
v 0.145772114 0.741313577 -0.097668760
v 0.191163749 0.693563282 0.047584794
v 0.134722620 0.891359806 0.039817214
v 0.168114111 0.889815450 0.011020383
v 0.207439587 0.745841980 -0.042273946
v 0.041725319 0.714768112 -0.082974143
v 0.154795304 0.697911799 0.067229524
v 0.078649119 0.825970650 0.065309905
v 0.209564179 0.757655621 0.016728181
v 0.200562030 0.752819836 0.035108108
v 0.089227453 0.755095184 -0.105837546
v 0.133735284 0.693307996 0.075265117
v 0.125200361 0.876704991 -0.133733466
v -0.001556241 0.825731456 0.041343763
v -0.006461814 0.763290524 0.020995330
v 0.043574650 0.753991961 0.047855295
v 0.108880065 0.692199707 0.073036686
v 0.149037659 0.880758405 -0.115115926
v -0.003279240 0.804200351 0.027958354
v -0.000817823 0.836426735 0.050940376
v 0.090501651 0.689434707 0.065331295
v 0.019133234 0.876297176 0.064758480
v 0.000184653 0.875517488 0.065216228
v 0.093228720 0.932154536 0.054882426
v 0.051359158 0.694818377 0.045380123
v 0.089759171 0.950443149 0.054775864
v 0.205853254 0.689783931 0.013412016
v 0.093018919 0.829061985 0.072394058
v 0.036950823 0.938058019 -0.134615973
v 0.039269790 0.698274493 0.026168238
v 0.070811309 0.904982865 -0.148327753
v 0.017502327 0.702402711 0.013817283
v 0.032434739 0.716612935 0.024333907
v 0.041955542 0.850327015 -0.139304027
v 0.014220496 0.860885739 0.061086498
v 0.014763890 0.755204082 0.021620357
v -0.007332625 0.749938965 0.018423896
v -0.005107305 0.790402472 0.025389344
v 0.205290586 0.683511853 -0.017602142
v -0.005679545 0.776771903 0.023479361
v 0.067577481 0.714503884 -0.091855802
v 0.089010827 0.816005349 -0.108662747
v 0.108842328 0.824145973 -0.112122990
v 0.144577086 0.825643361 0.066318497
v 0.086648047 0.796987236 0.070487633
v 0.151079834 0.805169284 0.068046808
v 0.093364187 0.707770407 -0.099438347
v 0.197824210 0.686556637 0.031017881
f 555 540 123
f 389 162 497
f 567 540 568
f 583 104 251
f 463 489 430
f 453 94 255
f 483 484 162
f 446 640 671
f 574 577 251
f 50 244 238
f 52 244 50
f 575 57 53
f 55 249 52
f 55 2 250
f 577 248 563
f 575 437 432
f 57 597 589
f 2 265 262
f 589 592 57
f 262 259 2
f 5 267 262
f 602 606 589
f 5 9 11
f 58 606 610
f 11 272 5
f 12 278 11
f 565 793 8
f 630 60 632
f 13 425 12
f 424 289 160
f 289 424 13
f 643 649 60
f 181 403 179
f 483 206 484
f 163 651 174
f 53 563 558
f 651 65 650
f 163 389 384
f 683 66 65
f 455 558 563
f 165 384 171
f 340 331 34
f 67 66 683
f 206 470 63
f 385 102 856
f 67 702 70
f 344 340 696
f 179 403 406
f 710 70 702
f 16 352 14
f 111 112 59
f 63 64 655
f 18 368 16
f 710 742 753
f 119 112 111
f 394 671 545
f 551 922 903
f 19 375 18
f 753 740 711
f 406 470 179
f 261 615 108
f 545 453 439
f 178 386 530
f 24 386 23
f 72 753 742
f 26 396 24
f 768 765 72
f 119 142 112
f 32 63 470
f 112 142 161
f 399 400 396
f 154 343 182
f 545 671 448
f 399 415 400
f 768 770 765
f 32 406 410
f 418 415 399
f 770 183 777
f 387 300 166
f 415 418 422
f 105 86 299
f 169 42 839
f 170 142 119
f 173 172 705
f 329 638 343
f 134 738 737
f 185 638 329
f 692 661 145
f 150 74 741
f 637 345 873
f 132 145 661
f 170 184 142
f 138 495 760
f 138 136 188
f 136 194 188
f 201 87 194
f 270 87 205
f 216 49 210
f 46 216 724
f 198 184 170
f 43 96 907
f 219 39 218
f 45 43 41
f 224 37 219
f 498 224 514
f 86 105 342
f 225 36 514
f 378 107 110
f 80 233 107
f 22 41 43
f 198 217 849
f 41 581 45
f 103 233 76
f 76 40 103
f 222 217 214
f 678 100 40
f 98 41 22
f 366 41 98
f 40 76 678
f 215 4 284
f 215 98 21
f 537 536 92
f 222 234 217
f 904 537 92
f 460 462 30
f 284 471 366
f 222 239 246
f 586 903 759
f 462 28 30
f 246 234 222
f 454 449 28
f 237 391 924
f 560 319 921
f 246 888 252
f 431 471 282
f 455 560 391
f 319 560 241
f 50 238 793
f 50 566 52
f 52 574 55
f 258 263 510
f 244 52 249
f 55 253 2
f 284 792 657
f 303 670 667
f 303 100 674
f 250 249 55
f 273 274 252
f 251 253 574
f 100 303 301
f 301 570 100
f 104 261 257
f 677 100 678
f 273 285 274
f 257 2 253
f 2 257 265
f 250 2 259
f 570 568 40
f 752 292 293
f 294 296 285
f 285 296 274
f 684 497 679
f 277 274 296
f 440 447 442
f 579 489 463
f 692 329 695
f 259 262 267
f 871 736 360
f 262 271 9
f 40 100 570
f 570 567 568
f 203 128 270
f 310 296 294
f 305 296 310
f 87 270 194
f 9 5 262
f 5 272 600
f 276 9 271
f 9 276 11
f 272 11 278
f 302 323 310
f 568 103 40
f 108 615 89
f 280 11 276
f 11 280 12
f 103 568 540
f 278 12 425
f 323 337 328
f 283 12 280
f 12 283 13
f 283 297 289
f 289 13 283
f 540 561 231
f 425 13 424
f 209 288 205
f 291 125 286
f 346 337 323
f 49 304 288
f 173 350 351
f 297 654 314
f 347 158 864
f 304 47 311
f 47 304 49
f 47 46 481
f 360 361 855
f 501 684 146
f 481 311 47
f 46 39 481
f 343 695 329
f 314 289 297
f 289 314 160
f 481 321 308
f 481 39 321
f 325 122 321
f 325 321 37
f 37 321 39
f 333 160 314
f 324 266 333
f 527 107 231
f 84 121 325
f 36 327 498
f 160 333 34
f 327 120 84
f 36 82 371
f 277 393 390
f 689 34 333
f 34 689 340
f 313 34 331
f 266 334 689
f 334 260 341
f 340 335 331
f 107 527 110
f 54 404 405
f 696 14 344
f 61 401 44
f 38 299 407
f 358 14 348
f 14 358 16
f 344 14 352
f 356 704 712
f 352 16 368
f 413 62 417
f 370 16 358
f 16 370 18
f 175 705 134
f 713 115 110
f 371 27 378
f 27 371 82
f 381 18 370
f 18 381 19
f 368 18 375
f 80 378 27
f 19 381 235
f 19 395 23
f 19 23 178
f 202 506 913
f 23 395 24
f 386 24 396
f 398 24 395
f 24 398 26
f 26 398 220
f 26 412 399
f 396 26 399
f 418 399 412
f 164 180 444
f 444 443 164
f 175 173 705
f 685 84 120
f 422 300 415
f 685 121 84
f 172 169 300
f 172 300 422
f 78 80 27
f 226 365 78
f 89 615 114
f 240 485 309
f 134 737 175
f 226 27 82
f 245 459 452
f 187 186 140
f 243 459 245
f 189 187 130
f 581 466 579
f 467 472 637
f 308 122 240
f 138 579 466
f 430 255 463
f 499 435 430
f 453 430 435
f 435 440 439
f 435 499 450
f 243 479 281
f 308 321 122
f 897 438 584
f 439 453 435
f 243 281 893
f 450 440 435
f 480 859 865
f 440 449 447
f 442 439 440
f 450 449 440
f 447 449 454
f 492 488 493
f 127 458 456
f 449 456 28
f 82 225 708
f 454 28 462
f 28 456 30
f 456 450 127
f 30 456 458
f 225 82 36
f 30 464 460
f 506 507 502
f 126 469 125
f 287 508 509
f 207 507 506
f 410 460 32
f 126 306 477
f 460 464 644
f 644 32 460
f 32 644 63
f 475 31 576
f 470 406 32
f 64 63 644
f 306 309 477
f 125 464 458
f 528 795 511
f 516 523 524
f 655 206 63
f 206 655 484
f 206 474 470
f 162 679 497
f 316 322 822
f 313 160 34
f 37 498 325
f 523 316 534
f 497 684 501
f 501 146 505
f 146 512 503
f 505 503 513
f 263 515 510
f 512 120 115
f 503 512 91
f 517 513 503
f 115 713 91
f 458 203 125
f 315 547 548
f 91 512 115
f 547 330 336
f 91 713 88
f 517 88 522
f 552 548 547
f 532 88 713
f 88 532 519
f 552 336 553
f 522 519 541
f 527 231 561
f 127 128 458
f 538 660 692
f 514 36 498
f 224 498 37
f 538 692 695
f 114 626 631
f 553 342 105
f 219 37 39
f 555 660 561
f 127 450 499
f 891 199 824
f 660 555 661
f 218 39 46
f 199 97 886
f 366 98 284
f 22 21 98
f 41 366 581
f 43 232 22
f 907 232 43
f 96 536 907
f 45 463 255
f 45 581 463
f 255 94 96
f 255 96 45
f 94 453 545
f 448 546 545
f 582 593 594
f 595 584 438
f 216 46 47
f 216 47 49
f 551 640 558
f 558 640 569
f 49 288 209
f 793 565 50
f 569 53 558
f 566 50 565
f 209 210 49
f 841 351 350
f 574 52 566
f 578 53 57
f 612 609 423
f 53 578 563
f 575 53 569
f 597 432 211
f 253 55 574
f 57 575 597
f 578 57 592
f 592 583 578
f 627 609 612
f 584 621 628
f 603 589 606
f 602 589 597
f 634 819 627
f 610 606 602
f 835 318 229
f 626 606 58
f 610 624 58
f 58 624 630
f 632 58 630
f 634 884 869
f 58 632 626
f 60 642 632
f 642 60 649
f 60 630 181
f 650 649 643
f 662 652 645
f 656 628 621
f 621 636 656
f 658 659 204
f 64 644 469
f 466 495 138
f 694 377 700
f 468 471 431
f 663 650 65
f 628 656 668
f 679 162 484
f 65 686 663
f 672 673 659
f 686 65 66
f 683 65 651
f 468 431 478
f 683 693 67
f 685 146 684
f 146 685 512
f 696 340 689
f 66 67 701
f 473 495 478
f 66 698 686
f 702 67 693
f 668 675 687
f 701 698 66
f 405 690 54
f 701 67 70
f 54 690 564
f 14 696 348
f 711 70 710
f 699 70 711
f 702 709 710
f 229 318 236
f 657 282 471
f 710 709 742
f 753 756 740
f 756 753 72
f 742 754 72
f 72 754 768
f 72 765 756
f 766 765 770
f 490 193 496
f 130 772 496
f 770 776 766
f 15 719 168
f 87 201 148
f 183 770 768
f 201 194 136
f 422 705 172
f 633 777 338
f 777 633 150
f 408 74 633
f 638 185 408
f 106 730 258
f 688 379 694
f 275 631 118
f 185 692 145
f 197 750 749
f 736 737 738
f 263 258 730
f 738 741 743
f 185 145 143
f 743 741 744
f 744 741 74
f 744 467 879
f 132 140 145
f 123 132 661
f 741 738 150
f 123 540 567
f 773 772 567
f 738 134 150
f 78 27 226
f 238 623 1
f 264 279 779
f 776 150 134
f 134 705 420
f 695 541 538
f 104 599 261
f 365 681 680
f 761 762 763
f 365 678 76
f 76 78 365
f 411 156 420
f 156 411 220
f 541 519 538
f 220 764 156
f 76 233 78
f 80 78 233
f 168 789 387
f 70 699 701
f 398 395 228
f 434 437 445
f 779 780 887
f 428 432 434
f 926 317 706
f 197 749 745
f 213 6 4
f 279 785 780
f 419 427 428
f 148 201 745
f 454 462 419
f 526 782 783
f 381 734 235
f 410 414 419
f 493 769 913
f 511 4 215
f 4 511 213
f 406 414 410
f 208 731 729
f 21 511 215
f 210 728 727
f 794 800 823
f 511 21 529
f 470 474 179
f 724 218 46
f 227 110 115
f 118 280 275
f 219 218 722
f 806 800 794
f 803 804 256
f 716 778 225
f 224 219 720
f 407 86 690
f 356 734 381
f 389 497 380
f 809 795 528
f 810 806 811
f 717 716 514
f 497 501 380
f 317 697 429
f 810 818 821
f 913 771 202
f 341 698 699
f 373 376 159
f 369 177 373
f 341 260 698
f 260 334 266
f 365 226 681
f 517 522 354
f 828 821 818
f 354 362 364
f 569 640 446
f 519 522 88
f 767 828 818
f 266 324 676
f 602 597 211
f 804 834 256
f 121 240 122
f 345 868 918
f 610 602 211
f 169 839 166
f 427 195 211
f 643 179 174
f 683 651 165
f 693 683 171
f 627 884 634
f 324 654 676
f 846 397 841
f 841 397 374
f 362 709 369
f 580 397 846
f 192 188 190
f 192 499 489
f 128 192 190
f 270 205 203
f 205 288 286
f 291 306 126
f 208 148 733
f 288 304 291
f 304 311 306
f 311 481 308
f 286 125 203
f 283 118 297
f 589 599 592
f 283 280 118
f 227 115 120
f 747 805 732
f 707 226 82
f 107 378 80
f 275 114 631
f 118 646 297
f 89 114 275
f 231 233 103
f 87 209 205
f 816 872 870
f 271 108 89
f 248 560 455
f 248 241 560
f 108 271 265
f 566 565 241
f 86 876 690
f 622 244 619
f 517 91 88
f 574 566 248
f 715 662 889
f 244 249 618
f 249 250 614
f 882 465 718
f 253 251 257
f 774 465 882
f 250 259 608
f 883 494 774
f 921 391 560
f 259 267 604
f 54 564 847
f 251 577 583
f 600 267 5
f 89 276 271
f 503 91 517
f 690 405 407
f 275 276 89
f 892 573 582
f 272 278 596
f 248 577 574
f 280 276 275
f 425 588 591
f 425 424 781
f 781 313 572
f 424 313 781
f 572 585 781
f 314 654 324
f 136 197 201
f 313 557 572
f 237 551 558
f 554 331 335
f 334 341 348
f 760 136 138
f 335 344 549
f 341 699 704
f 348 696 334
f 921 319 7
f 358 348 704
f 344 352 544
f 912 582 594
f 903 586 551
f 352 368 543
f 381 370 356
f 368 375 539
f 788 8 3
f 535 375 178
f 221 795 809
f 828 767 562
f 559 833 920
f 921 920 899
f 546 448 898
f 903 922 836
f 38 903 299
f 235 228 395
f 405 669 407
f 546 92 94
f 400 518 520
f 92 546 904
f 639 35 926
f 386 396 525
f 927 926 33
f 928 605 930
f 200 490 298
f 94 545 546
f 96 92 536
f 927 56 852
f 143 472 408
f 220 412 26
f 400 520 521
f 412 220 411
f 109 113 152
f 920 832 559
f 418 412 411
f 152 113 746
f 387 789 786
f 420 418 411
f 746 161 867
f 418 420 422
f 490 773 298
f 496 772 773
f 394 442 445
f 562 767 832
f 739 636 820
f 204 725 658
f 773 490 496
f 725 223 635
f 447 454 428
f 472 186 637
f 215 284 98
f 189 130 496
f 458 464 30
f 410 462 460
f 125 469 464
f 635 247 487
f 487 269 629
f 641 487 629
f 268 269 487
f 269 393 629
f 390 269 268
f 469 126 64
f 349 761 763
f 655 64 477
f 303 674 670
f 290 393 277
f 611 290 928
f 163 474 483
f 928 307 605
f 635 641 648
f 531 605 533
f 677 674 100
f 477 309 485
f 506 202 207
f 679 485 240
f 240 121 684
f 312 912 594
f 684 679 240
f 121 685 684
f 186 187 345
f 503 505 146
f 912 332 892
f 772 130 132
f 685 120 512
f 501 505 159
f 725 648 658
f 505 513 373
f 513 517 364
f 892 847 564
f 110 527 713
f 714 847 339
f 522 541 154
f 51 714 346
f 231 103 540
f 714 51 404
f 541 695 343
f 567 772 123
f 502 500 506
f 578 577 563
f 867 659 673
f 577 578 583
f 597 575 432
f 592 104 583
f 913 492 493
f 845 167 839
f 599 104 592
f 386 178 23
f 599 603 615
f 110 227 378
f 615 261 599
f 706 402 639
f 603 626 114
f 132 123 772
f 624 610 195
f 409 706 317
f 746 673 682
f 114 615 603
f 120 327 227
f 624 414 403
f 691 429 697
f 642 631 632
f 642 118 631
f 429 433 853
f 646 118 642
f 642 649 646
f 152 682 691
f 682 433 691
f 181 643 60
f 654 297 646
f 122 325 121
f 140 130 187
f 421 416 617
f 123 661 555
f 309 308 240
f 698 260 686
f 702 693 177
f 698 701 699
f 672 441 436
f 291 126 125
f 109 691 697
f 143 140 186
f 874 872 816
f 665 441 672
f 188 192 489
f 665 658 653
f 712 704 699
f 653 451 665
f 927 697 317
f 712 740 734
f 648 461 653
f 178 375 19
f 923 880 116
f 641 461 648
f 740 756 748
f 748 758 228
f 926 706 639
f 479 641 482
f 754 742 362
f 354 754 362
f 407 669 38
f 203 458 128
f 482 629 620
f 756 765 758
f 182 754 154
f 128 127 192
f 254 246 252
f 611 382 620
f 764 398 228
f 499 192 127
f 764 766 156
f 766 776 156
f 930 611 928
f 420 156 776
f 140 132 130
f 788 7 8
f 387 166 168
f 420 776 134
f 136 760 197
f 300 387 415
f 750 197 760
f 745 201 197
f 148 208 209
f 733 148 745
f 258 35 106
f 593 533 605
f 731 208 733
f 236 318 910
f 729 210 208
f 728 210 729
f 727 216 210
f 188 489 579
f 929 573 556
f 724 216 727
f 573 929 582
f 723 218 724
f 722 218 723
f 720 219 722
f 717 224 720
f 514 224 717
f 188 579 138
f 876 556 573
f 707 681 226
f 898 904 546
f 472 143 186
f 212 795 221
f 899 391 921
f 854 925 931
f 213 795 212
f 140 143 145
f 404 54 714
f 833 922 924
f 415 387 786
f 143 408 185
f 238 3 793
f 1 3 238
f 31 799 752
f 622 238 244
f 918 799 515
f 380 376 171
f 915 752 357
f 617 476 421
f 619 244 618
f 618 249 616
f 616 249 614
f 636 739 613
f 388 613 10
f 614 250 608
f 357 791 915
f 383 688 388
f 608 259 607
f 571 438 576
f 295 667 666
f 92 96 94
f 607 259 604
f 372 726 700
f 667 295 303
f 367 726 372
f 604 267 601
f 298 295 207
f 923 875 880
f 363 732 367
f 408 467 74
f 148 209 87
f 298 301 295
f 359 747 363
f 601 267 600
f 359 355 755
f 600 272 598
f 598 272 596
f 353 755 355
f 301 298 773
f 596 278 591
f 747 755 751
f 591 278 425
f 588 425 781
f 388 688 813
f 769 771 913
f 763 353 349
f 202 771 200
f 506 500 913
f 74 467 744
f 773 570 301
f 82 708 707
f 320 647 326
f 500 492 913
f 331 554 557
f 242 910 320
f 344 335 340
f 910 908 647
f 554 335 550
f 239 222 703
f 549 550 335
f 549 344 544
f 166 167 168
f 544 352 543
f 543 368 542
f 17 15 167
f 17 845 157
f 907 536 919
f 157 850 155
f 155 850 153
f 542 368 539
f 150 633 74
f 153 854 151
f 151 854 149
f 149 858 147
f 147 862 144
f 539 375 535
f 759 903 38
f 530 535 178
f 144 862 141
f 141 866 139
f 139 866 137
f 530 386 525
f 137 870 135
f 525 396 521
f 135 870 872
f 133 872 131
f 131 874 129
f 129 923 117
f 923 874 875
f 170 119 902
f 521 396 400
f 20 932 101
f 99 101 932
f 99 886 97
f 95 97 199
f 95 891 93
f 93 896 90
f 518 400 786
f 90 896 85
f 85 901 83
f 83 905 81
f 169 166 300
f 81 905 79
f 77 79 796
f 77 909 75
f 439 394 545
f 75 914 73
f 73 914 71
f 71 916 69
f 442 394 439
f 468 466 366
f 442 447 434
f 7 562 920
f 794 534 811
f 924 899 833
f 434 447 428
f 428 454 419
f 419 462 410
f 38 898 759
f 902 111 897
f 466 468 495
f 526 524 534
f 25 59 56
f 96 43 45
f 895 401 61
f 182 343 338
f 483 389 163
f 483 162 389
f 897 59 25
f 883 894 775
f 776 777 150
f 59 897 111
f 380 384 389
f 774 882 893
f 111 902 119
f 778 708 225
f 501 159 380
f 167 166 839
f 159 505 373
f 176 191 867
f 373 513 369
f 364 369 513
f 850 890 925
f 354 364 517
f 354 522 154
f 177 369 709
f 154 541 343
f 446 445 437
f 376 380 159
f 204 223 725
f 217 198 214
f 214 703 222
f 437 569 446
f 610 211 195
f 414 624 195
f 403 630 624
f 889 718 715
f 160 313 424
f 181 630 403
f 888 246 239
f 179 643 181
f 174 650 643
f 651 650 174
f 163 384 165
f 487 247 268
f 165 651 163
f 171 683 165
f 174 474 163
f 557 313 331
f 475 515 799
f 376 693 171
f 285 273 757
f 177 693 376
f 627 885 884
f 174 179 474
f 509 508 516
f 294 302 310
f 709 702 177
f 709 362 742
f 154 754 354
f 182 338 183
f 780 785 803
f 183 768 182
f 423 413 881
f 183 338 777
f 638 338 343
f 633 638 408
f 590 401 895
f 692 185 329
f 190 188 194
f 515 475 25
f 270 190 194
f 190 270 128
f 195 427 414
f 7 788 562
f 915 878 571
f 877 595 438
f 203 205 286
f 44 48 61
f 474 206 483
f 210 209 208
f 61 62 895
f 413 895 62
f 211 432 427
f 172 42 169
f 398 764 220
f 515 263 918
f 437 575 569
f 228 758 764
f 124 885 426
f 175 871 350
f 84 498 327
f 225 514 716
f 327 371 227
f 918 263 730
f 898 448 759
f 371 327 36
f 839 374 890
f 227 371 378
f 451 441 665
f 228 235 748
f 444 180 457
f 233 231 107
f 187 868 345
f 759 448 586
f 189 292 868
f 734 748 235
f 653 461 826
f 924 922 237
f 292 193 196
f 446 671 394
f 461 641 479
f 922 551 237
f 391 237 455
f 482 641 629
f 918 868 799
f 196 200 293
f 771 293 200
f 558 455 237
f 281 287 894
f 894 893 281
f 248 566 241
f 257 251 104
f 255 430 453
f 257 261 265
f 509 775 287
f 260 266 676
f 509 516 524
f 265 261 108
f 523 516 531
f 322 316 523
f 273 252 888
f 265 271 262
f 811 534 316
f 316 315 811
f 676 686 260
f 366 466 581
f 478 495 468
f 330 547 315
f 547 336 552
f 366 471 468
f 760 495 473
f 657 471 284
f 336 342 553
f 553 900 552
f 832 900 553
f 865 878 791
f 792 284 4
f 31 571 576
f 286 288 291
f 438 571 877
f 906 864 863
f 4 790 792
f 8 7 319
f 303 295 301
f 291 304 306
f 570 773 567
f 739 617 392
f 617 416 392
f 306 311 309
f 309 311 308
f 170 628 668
f 613 739 10
f 739 392 10
f 656 675 668
f 656 815 675
f 680 678 365
f 813 613 388
f 324 333 314
f 687 198 668
f 379 688 383
f 295 666 207
f 815 656 636
f 377 694 379
f 325 498 84
f 689 333 266
f 334 696 689
f 700 377 372
f 861 834 860
f 703 721 239
f 732 726 367
f 834 861 256
f 348 341 704
f 747 732 363
f 356 358 704
f 735 888 721
f 370 358 356
f 735 264 757
f 735 273 888
f 755 747 359
f 369 364 362
f 353 763 755
f 647 761 326
f 761 349 326
f 376 373 177
f 779 757 264
f 780 779 279
f 384 380 171
f 235 395 19
f 736 871 737
f 562 788 917
f 910 647 320
f 785 804 803
f 414 406 403
f 256 323 803
f 813 675 815
f 415 786 400
f 427 419 414
f 422 420 705
f 432 428 427
f 430 489 499
f 587 580 590
f 437 434 432
f 445 442 434
f 446 394 445
f 671 586 448
f 819 609 627
f 456 449 450
f 455 563 248
f 865 791 769
f 581 579 463
f 645 652 817
f 644 464 469
f 652 662 715
f 874 923 129
f 715 664 652
f 694 812 688
f 477 64 126
f 750 760 473
f 485 655 477
f 465 715 718
f 507 207 666
f 465 774 494
f 865 486 480
f 812 675 813
f 485 484 655
f 207 202 298
f 883 504 825
f 493 865 769
f 783 782 504
f 679 484 485
f 202 200 298
f 196 490 200
f 196 193 490
f 877 859 476
f 302 803 323
f 189 496 193
f 814 806 810
f 168 719 789
f 821 814 810
f 391 899 924
f 713 527 532
f 467 408 472
f 302 294 887
f 786 787 518
f 538 519 532
f 561 532 527
f 926 35 33
f 538 532 660
f 540 555 561
f 551 586 640
f 319 241 565
f 660 532 561
f 113 161 746
f 161 176 867
f 8 319 565
f 223 247 635
f 781 585 784
f 620 629 393
f 887 780 302
f 269 390 393
f 671 640 586
f 781 784 588
f 599 589 603
f 393 290 611
f 626 603 606
f 928 290 305
f 623 238 622
f 625 1 623
f 774 893 894
f 312 332 912
f 626 632 631
f 332 339 847
f 847 892 332
f 757 887 285
f 847 714 54
f 793 3 8
f 732 807 726
f 858 931 857
f 675 812 687
f 168 167 15
f 273 735 757
f 920 921 7
f 402 385 639
f 167 845 17
f 638 633 338
f 646 649 663
f 650 663 649
f 845 850 157
f 888 239 721
f 663 654 646
f 706 409 48
f 850 854 153
f 676 654 663
f 429 409 317
f 661 692 660
f 854 858 149
f 676 663 686
f 858 862 147
f 433 429 691
f 678 680 677
f 699 711 712
f 712 734 356
f 711 710 753
f 862 866 141
f 712 711 740
f 682 436 827
f 734 740 748
f 866 870 137
f 214 687 808
f 748 756 758
f 664 816 652
f 872 133 135
f 198 687 214
f 754 182 768
f 872 874 131
f 665 659 658
f 758 765 766
f 658 648 653
f 766 764 758
f 776 770 777
f 668 198 170
f 117 923 116
f 787 786 789
f 929 330 822
f 533 822 322
f 556 336 330
f 531 322 523
f 899 920 833
f 662 444 889
f 346 323 256
f 491 482 620
f 116 880 911
f 911 20 116
f 382 491 620
f 911 932 20
f 932 886 99
f 645 443 662
f 930 382 611
f 382 930 516
f 886 824 199
f 605 531 930
f 491 508 848
f 628 170 902
f 256 347 346
f 482 848 479
f 891 896 93
f 347 256 861
f 820 617 739
f 866 819 817
f 605 594 593
f 896 901 85
f 929 593 582
f 612 881 885
f 901 905 83
f 826 451 653
f 451 457 180
f 672 659 665
f 441 180 851
f 79 905 796
f 436 673 672
f 436 851 827
f 909 914 75
f 682 673 436
f 914 916 71
f 584 902 897
f 876 86 342
f 69 916 1
f 829 433 827
f 700 808 694
f 788 3 916
f 853 829 417
f 409 61 48
f 402 48 855
f 870 817 816
f 855 29 360
f 874 816 664
f 385 361 102
f 830 880 875
f 576 897 25
f 819 634 817
f 68 69 1
f 106 856 730
f 743 736 738
f 910 242 236
f 862 857 819
f 744 879 102
f 880 830 831
f 840 528 843
f 401 846 44
f 803 302 780
f 769 791 357
f 878 915 791
f 831 911 880
f 918 873 345
f 576 25 475
f 799 31 475
f 841 29 846
f 879 856 102
f 106 639 385
f 573 564 876
f 911 831 802
f 342 556 876
f 337 339 332
f 25 510 515
f 350 29 841
f 564 573 892
f 892 582 912
f 510 25 56
f 864 906 837
f 312 328 337
f 929 822 593
f 33 35 258
f 871 360 29
f 840 860 835
f 864 158 863
f 29 855 44
f 916 914 917
f 808 687 812
f 594 307 312
f 307 305 328
f 916 917 788
f 33 56 927
f 840 835 809
f 307 594 605
f 736 743 361
f 531 516 930
f 290 277 305
f 852 109 927
f 318 835 860
f 21 844 529
f 852 59 112
f 620 393 611
f 102 743 744
f 112 113 852
f 751 763 762
f 647 785 762
f 805 747 751
f 252 268 254
f 230 835 229
f 487 641 635
f 637 879 467
f 124 851 164
f 809 230 221
f 161 142 176
f 807 732 805
f 247 234 254
f 230 809 835
f 808 700 807
f 345 637 186
f 176 184 191
f 812 694 808
f 204 849 223
f 849 204 191
f 813 688 812
f 635 648 725
f 849 184 198
f 815 613 813
f 815 636 613
f 217 223 849
f 659 191 204
f 217 234 223
f 191 184 849
f 859 480 421
f 795 213 511
f 245 461 243
f 878 865 859
f 802 886 932
f 191 659 867
f 452 718 889
f 223 234 247
f 176 142 184
f 246 254 234
f 865 493 486
f 293 771 357
f 268 247 254
f 771 769 357
f 805 264 735
f 268 252 390
f 161 113 112
f 486 493 488
f 390 252 274
f 867 673 746
f 264 751 279
f 274 277 390
f 746 682 152
f 281 848 287
f 827 433 682
f 808 703 214
f 152 691 109
f 109 852 113
f 476 859 421
f 296 305 277
f 476 595 877
f 305 307 928
f 196 293 292
f 595 476 820
f 726 807 700
f 752 293 357
f 307 328 312
f 310 328 305
f 56 59 852
f 292 752 799
f 328 310 323
f 886 825 824
f 312 337 332
f 807 703 808
f 891 824 782
f 193 292 189
f 844 21 22
f 429 853 409
f 109 697 927
f 56 33 510
f 105 559 553
f 339 337 346
f 346 714 339
f 51 346 347
f 317 926 927
f 564 690 876
f 863 844 232
f 799 868 292
f 510 33 258
f 843 528 529
f 844 863 842
f 861 840 843
f 861 158 347
f 861 860 840
f 752 915 31
f 158 843 842
f 843 158 861
f 842 529 844
f 919 837 906
f 906 232 907
f 809 528 840
f 730 873 918
f 730 856 873
f 873 856 879
f 856 106 385
f 817 634 645
f 837 919 838
f 817 652 816
f 919 906 907
f 919 536 537
f 743 102 361
f 904 669 838
f 898 669 904
f 669 898 38
f 703 807 721
f 405 404 838
f 669 405 838
f 922 833 836
f 294 285 887
f 361 385 402
f 869 645 634
f 830 875 664
f 916 3 1
f 864 51 347
f 402 855 361
f 909 801 914
f 397 890 374
f 48 44 855
f 796 909 77
f 879 637 873
f 901 798 905
f 580 925 397
f 48 402 706
f 896 800 901
f 891 823 896
f 409 62 61
f 853 62 409
f 881 413 417
f 417 62 853
f 86 407 299
f 459 893 882
f 199 891 95
f 830 465 831
f 829 426 417
f 426 829 124
f 426 881 417
f 124 829 827
f 433 829 853
f 886 802 825
f 774 894 883
f 851 124 827
f 164 884 124
f 441 851 436
f 180 164 851
f 443 869 164
f 911 802 932
f 715 830 664
f 874 664 875
f 736 361 360
f 451 180 441
f 457 452 889
f 889 444 457
f 866 817 870
f 106 35 639
f 459 718 452
f 826 452 457
f 452 826 245
f 451 826 457
f 862 819 866
f 858 857 862
f 461 245 826
f 459 882 718
f 479 243 461
f 854 931 858
f 850 925 854
f 846 401 580
f 845 890 850
f 491 848 482
f 848 281 479
f 825 494 883
f 382 508 491
f 900 832 767
f 508 287 848
f 896 823 800
f 839 890 845
f 504 782 824
f 42 374 839
f 516 508 382
f 908 910 318
f 534 524 523
f 552 818 548
f 42 172 173
f 901 800 798
f 818 552 900
f 533 322 531
f 871 175 737
f 868 187 189
f 22 232 844
f 593 822 533
f 822 315 316
f 929 556 330
f 330 315 822
f 838 919 537
f 904 838 537
f 318 860 834
f 908 318 834
f 465 830 715
f 556 342 336
f 105 836 559
f 833 559 836
f 29 44 846
f 908 834 804
f 562 917 828
f 299 836 105
f 818 900 767
f 832 553 559
f 562 832 920
f 811 315 548
f 828 801 821
f 801 828 917
f 821 797 814
f 836 299 903
f 401 590 580
f 797 821 801
f 905 798 796
f 796 814 797
f 810 548 818
f 814 798 806
f 798 814 796
f 909 796 797
f 811 548 810
f 413 587 590
f 404 51 837
f 51 864 837
f 837 838 404
f 909 797 801
f 529 842 843
f 158 842 863
f 232 906 863
f 800 806 798
f 529 528 511
f 794 811 806
f 785 908 804
f 785 647 908
f 859 877 878
f 526 534 794
f 877 571 878
f 571 31 915
f 173 351 42
f 524 783 509
f 350 173 175
f 29 350 871
f 823 526 794
f 783 524 526
f 526 823 782
f 42 351 374
f 841 374 351
f 504 775 783
f 509 783 775
f 782 823 891
f 885 124 884
f 887 757 779
f 914 801 917
f 426 885 881
f 890 397 925
f 825 504 824
f 775 504 883
f 925 587 931
f 587 925 580
f 802 494 825
f 785 279 762
f 494 831 465
f 831 494 802
f 894 287 775
f 590 895 413
f 438 897 576
f 884 164 869
f 762 279 751
f 423 931 587
f 587 413 423
f 931 423 857
f 762 761 647
f 617 820 476
f 595 820 621
f 751 755 763
f 893 459 243
f 751 264 805
f 609 857 423
f 423 881 612
f 662 443 444
f 721 805 735
f 621 584 595
f 857 609 819
f 443 645 869
f 612 885 627
f 636 621 820
f 628 902 584
f 805 721 807
