# avbd fit, rung f180-i32-s300 of Gate 6d (body space, fit phase only)
v -0.005048766 0.690145135 0.029365221
v -0.107940294 0.709596634 0.073408961
v -0.004995012 0.703977168 0.031853225
v 0.003575915 0.943869412 0.070441708
v -0.157371655 0.696345210 0.065715380
v 0.002263095 0.963760376 0.070895888
v -0.004837078 0.730991542 0.036073439
v -0.004810912 0.717566967 0.034104697
v -0.157866657 0.711815417 0.066150405
v 0.150667310 0.953076839 -0.080943659
v -0.177227244 0.708460867 0.058811732
v -0.194579497 0.710696340 0.043209508
v -0.202599809 0.711813033 0.026577657
v -0.177304998 0.706429660 -0.074954912
v 0.011225222 0.680427432 -0.066984743
v -0.159160495 0.702827513 -0.083610110
v 0.026613325 0.679954767 -0.068812534
v -0.141763896 0.703066468 -0.091878287
v -0.124678530 0.706760943 -0.100636579
v 0.203316569 0.675455511 0.016234362
v 0.002255734 0.917382419 0.069320343
v 0.001533175 0.903164029 0.068505965
v -0.105416819 0.701731920 -0.102906033
v -0.090998091 0.707795978 -0.099054120
v 0.103128947 0.860792756 -0.140382603
v -0.076120980 0.715816259 -0.095428668
v -0.134609625 0.927476585 -0.117491379
v -0.123923227 0.855889618 0.060429353
v 0.041497409 0.762055159 -0.093309656
v -0.135836601 0.864963174 0.054089837
v 0.075019911 0.888817430 -0.148404598
v -0.172811419 0.848859429 0.041240659
v 0.094390191 0.825950146 -0.127348408
v -0.207840204 0.706447363 -0.027685385
v 0.076636478 0.820410073 -0.120588221
v -0.157331392 0.930378556 -0.088740617
v -0.169835836 0.927106261 -0.047161315
v 0.013719623 0.813812375 0.041224744
v -0.169370025 0.930307209 -0.026918417
v -0.079360247 0.925552964 -0.141095772
v -0.023240458 0.906267047 0.067752428
v 0.012979941 0.727679670 -0.081725195
v -0.014617324 0.889270186 0.066410169
v 0.064006425 0.765400290 -0.100089848
v -0.033463560 0.890421271 0.065618463
v -0.162781999 0.934657693 -0.008472502
v -0.159168452 0.921612144 0.001095939
v 0.074528471 0.782502174 -0.104508340
v -0.147708178 0.924522042 0.016440019
v -0.042916287 0.707680762 0.041840129
v 0.053284638 0.867599130 0.060071431
v -0.061570585 0.707988858 0.054883271
v -0.073212162 0.779141784 0.063721381
v 0.054866660 0.836024880 0.053549550
v -0.082422301 0.707732320 0.063209116
v 0.110458948 0.838178337 -0.130472973
v -0.096217111 0.777351439 0.073012710
v -0.166273624 0.787974894 0.066021748
v 0.125971913 0.854813099 -0.127010003
v -0.195758343 0.786944509 0.037554488
v 0.085259832 0.767774343 -0.106360242
v 0.105797768 0.764737487 -0.111632824
v -0.181036875 0.856983483 0.024024909
v -0.173593611 0.872294426 0.021282520
v -0.208754033 0.784510255 -0.027611811
v -0.201545984 0.778240561 -0.052779127
v -0.191608131 0.787439227 -0.069452837
v 0.007716424 0.691113591 0.021280074
v 0.014060440 0.679155350 0.026451889
v -0.179618090 0.775592208 -0.086771742
v 0.029151946 0.678948164 0.030791363
v -0.122593977 0.782779217 -0.114822969
v 0.042998850 0.678139746 0.038041558
v -0.021156194 0.811804771 -0.103863999
v 0.055245925 0.677225232 0.046945415
v -0.099381104 0.927956700 -0.135631055
v 0.069061540 0.676791310 0.055441935
v -0.117340446 0.929603934 -0.128168404
v 0.083336934 0.676649034 0.061247826
v -0.125367850 0.916723728 -0.128730088
v 0.097503468 0.676510572 0.067033723
v -0.142497167 0.940614700 -0.104514815
v 0.111504517 0.676308274 0.072746746
v -0.170395911 0.900904000 -0.074863039
v 0.127648130 0.676102638 0.076515146
v 0.042854335 0.802078426 0.049138103
v -0.122120939 0.924925685 0.049898885
v -0.129109845 0.853710651 -0.123843625
v -0.157619342 0.737735689 0.068839990
v 0.140335247 0.676139951 0.071037024
v -0.148228735 0.861517787 -0.114054047
v -0.015694201 0.853515029 0.058331072
v 0.153887957 0.676745594 0.065538183
v -0.034166463 0.856726468 0.057811178
v 0.167435333 0.676848352 0.059973545
v -0.021088554 0.871449590 0.064034283
v 0.180739149 0.676573694 0.054458201
v -0.013307427 0.921693325 0.069093212
v 0.190803140 0.676408172 0.042171039
v -0.065969959 0.938114822 -0.136576504
v 0.196912199 0.676187456 0.029209128
v 0.027109560 0.812257648 -0.104861721
v -0.092506334 0.911973000 -0.144268408
v -0.106358841 0.745458663 0.075327680
v 0.036289953 0.785183012 0.048768960
v 0.058970787 0.821133733 -0.119214907
v -0.123020567 0.900831401 -0.133698657
v -0.140143886 0.734085917 0.074749619
v 0.132395655 0.822310328 -0.111495316
v -0.138026267 0.891017437 -0.124803439
v 0.141780913 0.865777671 -0.121099375
v 0.145261273 0.851124763 -0.109101698
v 0.145919770 0.833624363 -0.104885496
v -0.162454978 0.753998876 0.067251042
v -0.151540995 0.881964028 -0.112360314
v 0.203888729 0.674798727 0.001532165
v 0.203902289 0.673987985 -0.011787780
v -0.197421700 0.746553063 0.041566536
v 0.156872600 0.867518246 -0.107395254
v -0.163599417 0.891972542 -0.093266733
v -0.174119994 0.891029835 -0.056990825
v -0.172996715 0.899569809 -0.041017637
v -0.058443941 0.880799174 -0.148318350
v 0.162413523 0.760687411 -0.092940591
v -0.148317456 0.888593793 0.036024563
v -0.164014041 0.886232018 0.020715591
v -0.104538120 0.879434109 0.051256198
v -0.113493457 0.893368721 0.046796978
v 0.203946665 0.673379958 -0.025971869
v -0.021363549 0.871341527 -0.139706060
v 0.197531626 0.672773719 -0.040005252
v -0.041206636 0.867070377 -0.143785700
v 0.189054430 0.672254980 -0.051978432
v -0.026683237 0.770005822 -0.091747142
v 0.180148929 0.671471715 -0.063590869
v -0.092213064 0.929143548 0.055577438
v 0.167587593 0.671000361 -0.072801143
v -0.074670441 0.925111890 0.061943948
v 0.154022217 0.670669556 -0.078695580
v -0.022397127 0.855448544 -0.135933727
v 0.140413150 0.670152664 -0.084582284
v 0.163694948 0.859918773 -0.094117053
v -0.024001209 0.840749443 -0.127992064
v 0.127713844 0.670201898 -0.090152249
v -0.043469947 0.849850774 -0.139783069
v -0.174150109 0.864347339 -0.080287516
v 0.113891624 0.670168161 -0.095515832
v -0.122018255 0.941956639 0.045864660
v 0.097711071 0.671678782 -0.092796668
v -0.031338863 0.791984797 -0.096337892
v 0.083658606 0.673630953 -0.087771609
v 0.148824945 0.817418396 -0.104564749
v 0.069580518 0.675489187 -0.082626149
v -0.107328102 0.820798218 -0.115717217
v 0.055474013 0.677211344 -0.077419989
v -0.065551274 0.752265036 -0.098962687
v 0.041414481 0.678950012 -0.072018661
v 0.044457458 0.896860480 0.065410867
v -0.185073227 0.837927520 -0.074313357
v -0.208502263 0.713198781 -0.007221129
v 0.161982358 0.842004657 -0.097213820
v -0.195009008 0.854173839 -0.026924003
v -0.203194052 0.824391365 -0.017257411
v 0.182479635 0.755462706 -0.077684514
v -0.204180807 0.813201070 -0.036053114
v -0.004896182 0.706103504 -0.075119317
v 0.015326533 0.695523143 -0.072541401
v -0.004922840 0.693191826 -0.070715614
v -0.004643367 0.719180524 -0.079059944
v 0.166590884 0.879973590 -0.089274503
v -0.198311239 0.816563249 -0.055822410
v -0.004502709 0.732511640 -0.082312427
v -0.004394901 0.745932698 -0.085672371
v -0.207108617 0.812547386 0.002078840
v -0.004082244 0.759705007 -0.087999769
v 0.175905257 0.849828362 -0.084736362
v -0.179844275 0.811486244 -0.088268094
v -0.114043571 0.687427640 -0.100274920
v -0.193136409 0.819824815 0.026836211
v 0.192209244 0.771238506 -0.064634360
v -0.191436276 0.804051995 0.037538256
v -0.093491606 0.807956874 -0.111202165
v -0.079393663 0.796719432 -0.106619284
v 0.176327989 0.865436077 -0.074812546
v -0.045308404 0.834126353 -0.129599616
v -0.000658613 0.846615672 -0.129687518
v -0.000292053 0.859064937 -0.135217980
v -0.086375259 0.910572052 0.059013642
v 0.000087105 0.872392774 -0.138179362
v -0.103495881 0.905163586 0.051680662
v 0.185862035 0.846311748 -0.068787202
v -0.093686424 0.893286705 0.055400651
v 0.000537814 0.885979533 -0.139801905
v -0.105207205 0.919720829 0.049905777
v -0.146583170 0.809101880 0.068144031
v 0.000867841 0.899742305 -0.139415830
v -0.097402498 0.944505811 0.051073261
v 0.175187454 0.884275556 -0.061748929
v 0.176353425 0.692614675 0.058432389
v 0.001048253 0.913363814 -0.137147382
v -0.108457267 0.934794724 0.046372674
v 0.001066742 0.926715374 -0.133121520
v -0.129682556 0.897182107 0.037067872
v 0.196729034 0.841633439 -0.051280309
v -0.135417625 0.913405299 0.044815280
v -0.195210591 0.851754189 0.009676253
v 0.000879500 0.939197659 -0.126872167
v -0.130132467 0.943382263 0.034198105
v -0.134469688 0.927352130 0.033851642
v -0.141057596 0.940542817 0.019705385
v -0.128337756 0.802600682 0.074211232
v 0.031869799 0.961515248 0.069721133
v 0.017337427 0.962534308 0.070295379
v 0.172088906 0.896687388 -0.038226493
v 0.002984390 0.931507587 0.070008539
v -0.153477028 0.938068271 0.005536994
v 0.183554187 0.877151370 -0.038021896
v -0.163964659 0.944545746 -0.018891055
v -0.166202426 0.942954838 -0.035872862
v -0.074092671 0.734054923 -0.098963544
v 0.021157432 0.951836944 0.069905296
v 0.178557068 0.889010727 -0.020747121
v 0.194010049 0.855494022 -0.030611366
v -0.165117085 0.941507339 -0.053822279
v -0.151713490 0.946560264 -0.086692937
v -0.125654653 0.943477809 -0.117298588
v -0.152012140 0.900990486 -0.108800843
v -0.104918644 0.736111760 -0.109019384
v 0.059828579 0.954841256 0.063884713
v 0.043973085 0.955298245 0.068047032
v -0.103893146 0.896352172 -0.141989022
v 0.000945906 0.889100909 0.066840291
v -0.109902427 0.913880169 -0.136334106
v 0.187469393 0.871621311 -0.016991500
v -0.124617219 0.727262378 -0.105882272
v 0.073303550 0.955114961 0.060433012
v -0.025843525 0.775095701 0.043846231
v -0.028464073 0.693390489 0.034126412
v 0.173250258 0.898337960 -0.004836739
v -0.179956883 0.885688007 -0.033444133
v -0.038933735 0.733834088 0.043904707
v 0.085457385 0.961155593 0.055822711
v 0.210676283 0.778457522 0.005137936
v -0.051456504 0.692267656 0.044142529
v 0.210013598 0.777659655 -0.013757588
v 0.181967422 0.884576917 -0.000515664
v 0.195728317 0.855500340 -0.006348122
v -0.053034384 0.743727982 0.053996306
v -0.073120482 0.691839457 0.058066994
v -0.095526561 0.693165481 0.067205831
v -0.089407280 0.736710906 0.067997590
v 0.174871847 0.874276817 0.018297402
v -0.091618732 0.721634746 0.067885809
v 0.188560769 0.870007396 0.003419333
v -0.043085683 0.874458313 0.063040219
v 0.083050087 0.894731164 0.060144879
v -0.107488677 0.728719354 0.074677393
v 0.072289817 0.830590129 -0.129990965
v -0.117279276 0.691964447 0.075756557
v -0.204024762 0.747606456 -0.048031211
v -0.125035599 0.739422202 0.079672009
v -0.136671066 0.706290603 0.074303888
v 0.064088747 0.840426147 -0.139935479
v 0.139565066 0.915519416 0.030941287
v -0.127942920 0.722233176 0.078404136
v -0.209018469 0.734728277 -0.035475761
v -0.141023606 0.689776778 0.071910061
v 0.187718466 0.857349575 0.015435055
v 0.186949521 0.843512177 0.026733216
v -0.118481323 0.909830570 0.044235677
v -0.147538304 0.722546160 0.070916928
v -0.173443094 0.690705955 0.058858417
v 0.161650687 0.888151824 0.026952159
v 0.163256675 0.871075511 0.036246575
v -0.178379327 0.741666913 0.061778456
v -0.169126019 0.725116372 0.063419312
v 0.163334459 0.855390072 0.048576381
v -0.190666690 0.693612635 0.048612993
v 0.130642176 0.923800349 0.048556294
v -0.190711871 0.726757169 0.052991159
v 0.203169972 0.774488091 0.026123434
v -0.036143169 0.956171513 0.069320336
v -0.200217605 0.727424204 0.033614971
v -0.015127970 0.940583110 0.069858745
v 0.150339752 0.884131730 0.040320676
v -0.146312028 0.902857661 0.038523231
v 0.193126410 0.769677401 0.045209154
v -0.142988652 0.911663532 0.026883638
v -0.208981350 0.721720994 0.013682894
v 0.159409717 0.840060711 0.059095256
v -0.156677097 0.901131928 0.024348596
v 0.024923550 0.884401500 -0.140877262
v 0.026238348 0.903178036 -0.140551060
v 0.135421693 0.880002499 0.047010049
v -0.024939334 0.939643204 -0.132306695
v 0.147520900 0.867949486 0.050739706
v -0.207945421 0.739798784 0.019159961
v -0.019327233 0.922083735 -0.136094123
v 0.023650324 0.799790740 0.043637820
v -0.020498382 0.716907501 -0.079187110
v -0.040896092 0.927742779 -0.138928622
v 0.119112417 0.886862755 0.047174819
v -0.046855260 0.943587482 -0.133384570
v -0.153834566 0.908279896 0.010702128
v 0.140324742 0.850568593 0.059241604
v -0.165373415 0.896219850 0.007233520
v 0.126830444 0.835834146 0.067416377
v -0.171968967 0.901384532 -0.023411755
v -0.176866964 0.892954051 -0.010548594
v 0.126091391 0.869370103 0.054612469
v -0.163962156 0.907994270 -0.005327966
v 0.107592776 0.841931820 0.069626674
v -0.206804633 0.694097877 -0.013031607
v -0.209903434 0.730857491 -0.001980475
v 0.098270528 0.764250636 0.073899880
v 0.119903125 0.764342666 0.080947265
v 0.103892721 0.803354084 -0.112705015
v 0.073426448 0.940613389 0.062564217
v -0.021535024 0.733180642 0.037728779
v 0.095883831 0.968257606 0.049607791
v -0.173025101 0.915109932 -0.034730837
v 0.127002805 0.780648291 0.077525422
v 0.101638958 0.875921249 0.053090483
v -0.209837511 0.738247752 -0.017088361
v -0.173509747 0.910449803 -0.055365384
v 0.115277395 0.965897262 0.039977234
v -0.161597490 0.911879361 -0.090666533
v 0.117285848 0.855499864 0.062486809
v -0.065250687 0.829838097 -0.129321128
v 0.086588606 0.780336738 0.069742851
v -0.204241544 0.689803660 -0.035657473
v 0.087450460 0.841732144 0.069318466
v -0.208886862 0.723118246 -0.022141576
v -0.196608514 0.730287254 -0.054275591
v -0.192647025 0.686362505 -0.050666086
v 0.067684188 0.776006341 0.061784457
v 0.096172825 0.858722985 0.063325986
v -0.067602687 0.810170650 -0.109349452
v 0.079243690 0.853096962 0.060777485
v -0.197592810 0.701630175 -0.047209501
v -0.189656213 0.743062258 -0.066644669
v 0.054300934 0.788233519 0.056779433
v -0.082028612 0.820192814 -0.121007666
v -0.182993531 0.692630708 -0.064552918
v 0.020191958 0.849522471 -0.132912397
v 0.077312693 0.871777534 0.059440982
v 0.061085206 0.886474311 0.062058937
v -0.183938920 0.725128114 -0.070429362
v 0.099550776 0.957996845 0.048984390
v 0.019571105 0.754032552 -0.088302530
v 0.020829543 0.739667654 -0.085715473
v -0.165679753 0.688959479 -0.077217475
v 0.105487242 0.966908574 0.044743974
v -0.129171863 0.822491467 -0.113265589
v 0.128194585 0.964303792 0.029472163
v -0.156212777 0.730659842 -0.090953097
v 0.048890173 0.912269115 -0.144498393
v -0.168391630 0.719843030 -0.082635209
v 0.138067678 0.957637489 0.019360410
v 0.034095310 0.778543830 -0.094334438
v 0.037662957 0.796038330 -0.098041937
v -0.143205985 0.809935093 -0.107368469
v 0.147535756 0.953467369 0.007579090
v -0.146984205 0.826416373 -0.105768181
v -0.107440591 0.944037795 -0.126540050
v -0.033142008 0.925910592 0.068474017
v 0.154726058 0.961403668 -0.004560245
v -0.147101536 0.687151372 -0.085175663
v -0.162193239 0.818642437 -0.099298589
v -0.153017223 0.715457737 -0.089322254
v -0.149228260 0.920324922 -0.105918862
v 0.153433174 0.951399624 -0.001643888
v -0.178565755 0.829265773 -0.089073569
v 0.033527069 0.726562023 -0.084228009
v -0.130029052 0.688763201 -0.093368456
v -0.188504115 0.822199523 -0.072518215
v 0.161558762 0.952076077 -0.022000138
v -0.139244452 0.909466922 -0.120251618
v 0.162356898 0.951851368 -0.036232844
v -0.194964141 0.836731434 -0.056619696
v -0.139418244 0.720481813 -0.097118981
v 0.173222512 0.802841783 0.062340699
v 0.158975109 0.954381943 -0.051990699
v -0.201380059 0.826854885 -0.040017340
v 0.048852194 0.810978115 -0.106756136
v -0.095177650 0.689921558 -0.096981809
v -0.022092631 0.700230241 -0.074287280
v 0.157316953 0.952700794 -0.065684773
v -0.199234694 0.840410411 -0.033003416
v 0.175345287 0.856929183 0.031815898
v -0.021047935 0.760152221 0.041093532
v 0.143004417 0.954793751 -0.092366219
v 0.176893458 0.837361038 0.043603379
v -0.061814170 0.829769135 0.056796115
v -0.106184721 0.717620850 -0.106318906
v -0.076513626 0.695720315 -0.091590002
v 0.054040514 0.728480697 -0.090478554
v -0.090099186 0.725999951 -0.102458850
v -0.059499871 0.710266173 -0.088507108
v -0.056940816 0.693399787 -0.083108723
v 0.075776070 0.751592636 -0.101563349
v 0.061343856 0.796883106 -0.102272533
v -0.180124015 0.814755917 0.049771503
v 0.043207925 0.850282490 0.053298809
v 0.036166169 0.833451927 0.048807673
v -0.177367538 0.831671715 0.044970796
v 0.031373076 0.816404819 0.044506125
v -0.028181145 0.825778484 -0.116123065
v 0.099612549 0.783732772 -0.111205027
v -0.158518910 0.841716945 0.058087058
v -0.058026977 0.738527060 -0.094568625
v -0.063039534 0.724947214 -0.092949241
v 0.107747033 0.742597818 -0.109999143
v -0.158522606 0.823192716 0.062366374
v -0.039726980 0.710659564 -0.081123702
v 0.131378740 0.955419362 -0.104283854
v 0.126690656 0.758551955 -0.109800994
v -0.047184978 0.727212310 -0.088084787
v -0.138177171 0.833803833 0.065164588
v -0.042534463 0.750781178 -0.092030026
v 0.117503680 0.956685364 -0.112672612
v -0.028954515 0.732090116 -0.084348790
v 0.118298195 0.721886635 -0.107288122
v -0.207788154 0.704838693 0.009340904
v -0.199753523 0.694871068 0.029702649
v 0.142706037 0.755334616 -0.101473525
v -0.131824747 0.818470657 0.070665792
v -0.115207002 0.828070343 0.071926713
v 0.123570286 0.793234050 -0.114790857
v -0.063579082 0.877420247 0.061120689
v -0.050359022 0.954092681 0.066220030
v -0.105595030 0.809308887 0.078066528
v 0.143070519 0.788066208 -0.105934046
v -0.093095981 0.823730648 0.071944498
v -0.074825391 0.863628864 0.061797410
v 0.180227965 0.794378281 -0.088238351
v -0.082235321 0.808769226 0.067208782
v 0.118784770 0.898614705 -0.135332540
v -0.067525901 0.846811593 0.058408499
v -0.087100968 0.851727486 0.066226915
v 0.190942332 0.788780808 -0.070255458
v -0.080827095 0.836154938 0.065595195
v 0.189151317 0.741659403 -0.066443183
v 0.196598202 0.754521191 -0.057933591
v -0.076033510 0.822047889 0.063575432
v -0.062448632 0.812222004 0.057118408
v -0.101211987 0.840164542 0.071227357
v -0.024672329 0.824588478 0.044694345
v -0.107141592 0.854471385 0.064853854
v -0.095278457 0.865168929 0.057824723
v 0.201591179 0.786641836 -0.052246492
v 0.209870771 0.764211297 -0.026297942
v -0.054286856 0.860053360 0.058252029
v -0.120928034 0.842890263 0.066102043
v -0.041979462 0.762043357 0.047812559
v -0.115769699 0.867699146 0.056149267
v 0.204871982 0.768386245 -0.047267530
v -0.128245398 0.880474746 0.046839509
v 0.210554883 0.762473464 -0.006279724
v -0.154941142 0.857955635 0.052471615
v 0.208967060 0.797968507 -0.010312596
v -0.139654502 0.849232197 0.059448671
v -0.053531915 0.892450213 0.063478313
v -0.149715394 0.873817801 0.047384776
v 0.209693357 0.729820251 -0.002492371
v -0.055060476 0.924141228 0.065687321
v -0.001484898 0.824903667 -0.112542674
v -0.049908653 0.940554619 0.066999465
v -0.161406159 0.877342701 0.033305656
v -0.188033968 0.839572251 0.026372682
v -0.033256609 0.944650531 0.069172397
v -0.001045496 0.835541904 -0.121515676
v -0.074937597 0.952710986 0.059901964
v -0.202356219 0.832323253 0.008201291
v 0.081908420 0.872736573 -0.148210734
v 0.124022581 0.933530331 -0.123727478
v -0.177661166 0.883212388 0.006697527
v -0.062566400 0.953201413 0.063085906
v 0.207129568 0.795279145 0.016886128
v 0.101910666 0.956650913 -0.119716845
v -0.169279441 0.918521702 -0.015672345
v 0.195599198 0.808279812 0.028745204
v -0.199935272 0.843289077 -0.011584128
v -0.192973658 0.861151218 -0.010849481
v -0.185408548 0.877096534 -0.012807049
v 0.086458907 0.953972697 -0.124557853
v 0.198518932 0.839764297 0.011605737
v 0.070628487 0.953428149 -0.126735240
v -0.074208058 0.893697560 0.060869791
v -0.015516533 0.904139161 -0.140048787
v 0.187565774 0.800875843 0.045786191
v 0.053882737 0.952496052 -0.128150314
v 0.063541263 0.943205178 -0.133428097
v 0.205197290 0.723625302 0.023050496
v -0.066661701 0.940263867 0.063395321
v -0.020098092 0.887970746 -0.141063154
v -0.192997128 0.855450511 -0.046428747
v -0.167383865 0.923695564 -0.070271738
v -0.084237397 0.878760934 0.058222067
v 0.037070017 0.952828526 -0.127901495
v -0.185299590 0.853477597 -0.066819906
v 0.018145060 0.951526284 -0.125881046
v -0.159351319 0.854532361 -0.097345002
v 0.184832767 0.729374528 0.058800109
v -0.175842732 0.847055435 -0.086449906
v 0.017834079 0.943469822 -0.129328504
v 0.000367729 0.949955165 -0.122794807
v 0.185564637 0.784652114 0.056085341
v 0.176522464 0.764459014 0.063607991
v 0.087882079 0.841465116 -0.139476016
v 0.018586127 0.937899232 0.069662370
v -0.163423479 0.872604549 -0.096794501
v -0.160472363 0.836935222 -0.099021077
v -0.160506576 0.942258656 -0.071590334
v 0.071242675 0.856563449 -0.145529941
v 0.161905438 0.782282233 0.068364277
v -0.140617818 0.843358159 -0.108996972
v -0.048148267 0.678592503 -0.075073585
v -0.113472901 0.845254540 -0.133163482
v -0.061666511 0.677175641 -0.080199316
v -0.075200334 0.675680995 -0.085308209
v -0.120157041 0.836555004 -0.119661704
v 0.141375273 0.770406604 0.074468613
v 0.155834407 0.757442713 0.069794215
v -0.088715725 0.674022913 -0.090352997
v 0.149727121 0.736260712 0.071955927
v -0.118369855 0.883333325 -0.136563450
v 0.034606669 0.929891288 0.077286281
v 0.023567982 0.919969082 0.068701640
v -0.102045223 0.672280014 -0.095233820
v 0.141818717 0.791372299 0.072459750
v -0.111141667 0.863356888 -0.138266236
v 0.123996273 0.795157850 0.076592200
v 0.134163409 0.750298202 0.076835528
v -0.117689334 0.671379209 -0.094893977
v 0.000024184 0.861441135 0.061705001
v -0.000262096 0.848773599 0.056239258
v -0.093704470 0.846337020 -0.139941484
v -0.130832687 0.671597838 -0.089363381
v -0.080244303 0.892891288 -0.148157373
v -0.101458132 0.830967247 -0.127942696
v -0.143151388 0.671552181 -0.084022284
v -0.156260386 0.672062278 -0.078419395
v -0.169414878 0.672304511 -0.072758026
v -0.044527855 0.840038300 0.053347666
v -0.022281602 0.839542270 0.052968435
v 0.081028163 0.765767217 0.066880375
v 0.084750727 0.749888241 0.067504510
v -0.181047469 0.672879815 -0.063194618
v -0.189773262 0.673625350 -0.051911395
v -0.026817519 0.791470885 0.044614308
v 0.066841200 0.758581877 0.060791694
v 0.048742089 0.769395471 0.053765725
v -0.198031262 0.674160302 -0.040364042
v -0.077033602 0.875471115 -0.148878321
v 0.072646931 0.792560577 0.064526595
v -0.204147458 0.674693525 -0.027002405
v -0.048642822 0.780908883 0.053814441
v 0.029129753 0.768605173 0.045437094
v -0.031253248 0.747090578 0.043194190
v -0.097516753 0.878650784 -0.144463465
v 0.026462128 0.732062876 0.040543642
v -0.061403703 0.763071120 0.058337182
v 0.065582082 0.822060883 0.058894176
v -0.031888459 0.720822453 0.039727516
v -0.050443023 0.723084152 0.050541021
v -0.056673210 0.898802876 -0.147194088
v -0.073334128 0.910310447 -0.147262126
v -0.065959938 0.795626879 0.061454602
v -0.057699509 0.918615639 -0.143785089
v 0.096837439 0.902502716 -0.144486457
v -0.204157323 0.675262392 -0.013018057
v 0.077497080 0.809298217 0.065232925
v -0.070966050 0.726949096 0.060088318
v -0.088721558 0.793120325 0.070633441
v 0.102089241 0.883277118 -0.142602831
v -0.073310420 0.747274995 0.062270332
v -0.082192868 0.764129877 0.066805944
v -0.064622350 0.908969402 0.063652806
v 0.072853647 0.732923627 -0.097908095
v -0.043595087 0.908292115 0.066710308
v 0.093844131 0.814131916 0.073160797
v -0.090855338 0.751230001 0.069536172
v 0.140317485 0.897393823 -0.121869899
v -0.204138905 0.675596118 0.000015678
v -0.025650149 0.807830453 0.043737449
v 0.092959121 0.724383712 -0.102594912
v -0.198006839 0.677069008 0.026955042
v -0.122862779 0.773973703 0.079018489
v 0.088338524 0.740510345 -0.104127154
v -0.192089215 0.677304387 0.039653473
v -0.103682920 0.761837840 0.075372152
v 0.110429272 0.805132210 0.078871414
v 0.113239087 0.823397040 0.074145414
v 0.132124215 0.915412247 -0.124735318
v -0.184228137 0.677193463 0.052421629
v -0.110232510 0.790871263 0.079131357
v -0.171013296 0.677303910 0.058058996
v -0.124940611 0.756096482 0.079292014
v -0.157800943 0.677124321 0.063538969
v -0.144500911 0.676399589 0.068981782
v -0.131077841 0.788376331 0.075172789
v -0.144013599 0.763807476 0.073102675
v -0.132161394 0.676224709 0.074217431
v 0.131737947 0.812744439 0.072077915
v -0.146802947 0.779657722 0.072091356
v -0.116110288 0.676125169 0.074014284
v -0.102511190 0.676238537 0.068524636
v 0.136283383 0.716439366 -0.097424850
v -0.147903517 0.795004249 0.069993682
v 0.166738421 0.822203457 0.060798574
v 0.137059748 0.729951859 -0.099890962
v 0.156337336 0.940845013 -0.082725056
v -0.088744000 0.676244557 0.062958434
v -0.142464563 0.748343527 0.073834144
v -0.074865848 0.676253438 0.057355464
v 0.134644851 0.944126427 -0.109385654
v -0.060877226 0.676369071 0.051731236
v -0.049855743 0.677137256 0.040529989
v 0.182689637 0.817512155 0.044230219
v 0.148070320 0.912765980 -0.109456383
v -0.037445597 0.677898049 0.031995751
v -0.023585107 0.678244948 0.026316021
v -0.164825127 0.805192769 0.063703962
v -0.018483790 0.690244019 0.020873684
v -0.165403232 0.770707786 0.066600338
v 0.151857674 0.725839853 -0.091615990
v 0.158190981 0.896945357 -0.102601290
v 0.191526324 0.826513886 0.026885768
v -0.183755934 0.797309160 0.053785186
v -0.184677422 0.760018289 0.060256850
v -0.186646670 0.778917730 0.055559766
v -0.043473851 0.809814751 -0.105554841
v 0.168262944 0.721658766 -0.082521953
v 0.201074645 0.836435199 -0.011157827
v 0.153835446 0.927603602 -0.098120980
v 0.014071675 0.836651444 -0.123323426
v -0.053837180 0.820691764 -0.118616834
v 0.069931097 0.811245263 -0.109417930
v -0.046162691 0.800712585 0.050612349
v 0.205993578 0.817911446 0.005220443
v -0.196686089 0.768044889 0.038420923
v -0.203312516 0.799793541 0.020739194
v -0.166775972 0.863950372 0.037094139
v 0.185175583 0.725115895 -0.068201140
v -0.207462519 0.759391189 0.019812224
v 0.103243664 0.945398629 0.048178915
v 0.204193503 0.817773163 -0.020013627
v -0.206853464 0.779222012 0.018710243
v -0.210267812 0.790905952 -0.002808140
v -0.207269430 0.803419113 -0.020233627
v 0.194853529 0.717322826 -0.053248711
v 0.206190377 0.802736461 -0.035107858
v -0.210949704 0.749421716 -0.001550795
v -0.186529949 0.867965400 0.007656923
v 0.161179677 0.912521958 -0.091305770
v -0.022706537 0.956883729 0.069892786
v 0.202167124 0.821273506 -0.044040211
v 0.191049218 0.824697316 -0.066536233
v -0.085304216 0.860709488 -0.145910725
v -0.061269127 0.861924648 -0.146476433
v 0.198422924 0.735394835 -0.052253157
v -0.210566550 0.769503593 -0.007696777
v 0.204562023 0.708451867 -0.038659148
v 0.198867366 0.805348516 -0.057130761
v -0.015218046 0.951036811 -0.125763372
v -0.032726638 0.952298820 -0.128109947
v 0.168205231 0.897852421 -0.078361772
v 0.017379679 0.829432130 0.045362808
v -0.050603766 0.953184605 -0.127967268
v -0.045065004 0.819453239 0.048853803
v 0.188620076 0.805609822 -0.073971912
v 0.179984272 0.814257979 -0.087460354
v -0.067398891 0.954170525 -0.126833081
v 0.168620080 0.917194843 -0.071864769
v -0.210235953 0.752279937 -0.024176184
v -0.082708091 0.954713523 -0.124816157
v -0.088500246 0.941831231 -0.132261485
v -0.188037068 0.868449390 -0.031994678
v -0.097966835 0.957332790 -0.120297574
v -0.113288954 0.957773566 -0.113903843
v 0.160365716 0.802600086 -0.099073477
v -0.204297379 0.797601044 -0.049765497
v -0.183200434 0.872315288 -0.056985654
v -0.168917388 0.881214499 -0.075053185
v -0.209083751 0.766291678 -0.036609527
v 0.174484923 0.906641185 -0.055565994
v 0.164089710 0.943331122 -0.052487113
v -0.203380421 0.717895150 -0.042849559
v 0.049051382 0.819151998 0.050537676
v 0.139375851 0.804608822 -0.108448103
v -0.067524500 0.844663918 -0.142860800
v -0.190964073 0.804786026 -0.070795700
v 0.167542607 0.940448105 -0.037265830
v -0.081004336 0.832935631 -0.133822665
v -0.190077826 0.712452888 -0.059198938
v 0.122954562 0.809658885 -0.115591370
v -0.196351096 0.760118723 -0.059106469
v -0.180758625 0.756534755 -0.081184313
v 0.167531401 0.940869451 -0.020339277
v -0.189463750 0.771520853 -0.069812365
v -0.180705070 0.793963075 -0.087901913
v 0.171290010 0.907712281 -0.017344913
v -0.174511969 0.737234950 -0.083280474
v -0.021814546 0.749296546 -0.087447211
v 0.083996959 0.798562646 -0.107312240
v -0.127251014 0.957225442 -0.106084883
v -0.137974650 0.958681107 -0.094733790
v -0.161140591 0.801270604 -0.099238649
v -0.160843238 0.783348680 -0.098353580
v -0.160804361 0.765456498 -0.095112808
v -0.159476981 0.747752011 -0.092578389
v -0.134708837 0.872475147 -0.127526730
v 0.062696055 0.853155255 0.055534739
v 0.208821565 0.728532076 -0.030836780
v -0.155364722 0.955658615 -0.066885456
v -0.159252062 0.953045487 -0.053582478
v 0.210097790 0.746045172 -0.018232867
v -0.004820792 0.680208087 -0.066576585
v -0.160321593 0.955694795 -0.038506988
v 0.159747094 0.909814835 0.001889738
v -0.160923854 0.953576922 -0.025161017
v -0.157037824 0.945168376 -0.004937998
v -0.154092506 0.955152512 -0.003108106
v 0.200311065 0.834746718 -0.031290077
v 0.163130790 0.948974967 -0.007425036
v -0.148453340 0.950427711 0.006274450
v -0.141541988 0.953753829 0.015920753
v -0.133563191 0.952118754 0.026673922
v 0.051291265 0.832902908 -0.129902691
v -0.121833906 0.952652931 0.038630228
v 0.155722126 0.943476200 0.007205489
v -0.109478951 0.946998417 0.045105413
v -0.140951082 0.738313079 -0.099942915
v 0.150061503 0.903572083 0.017559802
v 0.016916644 0.784790397 -0.093176328
v -0.003546698 0.773634553 -0.090615727
v -0.002865289 0.788041770 -0.092627123
v 0.147885188 0.943141460 -0.097504742
v -0.141906634 0.756061733 -0.102412954
v -0.002410496 0.801494718 -0.097251572
v -0.141349912 0.792280614 -0.107432723
v 0.015191737 0.800588250 -0.097215600
v -0.001919827 0.813850403 -0.104011752
v -0.112547241 0.957115531 0.042365432
v 0.164239570 0.824043095 -0.097974680
v 0.143120885 0.946279228 0.021680612
v -0.124443635 0.745791018 -0.109128222
v -0.100676313 0.954890132 0.048430018
v -0.088828787 0.953034222 0.054726899
v 0.133142680 0.934929729 0.033333447
v 0.049105629 0.893500328 -0.145984977
v -0.141999200 0.773920417 -0.105576694
v -0.120076373 0.803412437 -0.116911516
v 0.128286570 0.953745008 0.033148173
v -0.123779312 0.763882518 -0.112435065
v 0.150777027 0.901111126 0.036010887
v -0.102713861 0.754446149 -0.110196926
v -0.001716099 0.811827362 0.040727124
v -0.082556427 0.941885471 0.058513522
v 0.112136409 0.957564056 0.047760662
v 0.120994844 0.940076351 0.051192980
v 0.115949132 0.947176337 0.041618995
v -0.086673230 0.744833469 -0.104481816
v -0.100217164 0.772535324 -0.111391321
v -0.081261545 0.762782693 -0.104851618
v 0.045926772 0.739697337 0.048506502
v -0.099296421 0.790540993 -0.111869439
v 0.053169746 0.928666592 -0.139796942
v -0.077669941 0.780652404 -0.105642080
v 0.027978569 0.920312285 -0.138585687
v -0.039662208 0.885871053 -0.145135626
v -0.036373757 0.907096863 -0.144291773
v 0.207785293 0.741528630 0.020082952
v 0.191925704 0.750249982 0.053000093
v -0.053237714 0.772044301 -0.098417893
v -0.057766378 0.793372393 -0.101316437
v -0.147778720 0.956244290 -0.082031667
v 0.138785377 0.908994675 0.045621425
v 0.121213317 0.906383157 0.043106113
v -0.206044406 0.689439118 0.008007126
v 0.164417222 0.722264111 0.065318063
v 0.170644403 0.743087649 0.065231070
v -0.203992322 0.676390529 0.013924686
v 0.109480880 0.923567414 0.047856573
v -0.038218033 0.693145871 -0.075012580
v -0.034493543 0.679788291 -0.070309237
v 0.013991674 0.715794921 0.035061929
v -0.020120084 0.680385113 -0.067350581
v 0.008582057 0.954247952 0.070461378
v 0.070056312 0.921716988 -0.142810479
v -0.008349952 0.957589984 0.070515722
v -0.023559993 0.708481669 0.034997914
v 0.128514916 0.730108559 0.078854166
v 0.032248355 0.950456142 0.071744099
v 0.081521414 0.694611788 0.062146235
v 0.069854759 0.706264853 0.058458686
v 0.101937212 0.704919577 0.071236484
v 0.051517893 0.872105241 -0.146814927
v 0.122639999 0.710282922 0.079336368
v 0.052347980 0.708199859 0.050399102
v 0.201905489 0.705805957 0.027492166
v 0.104655445 0.898642659 0.051576875
v 0.093920819 0.913274646 0.055699389
v 0.148818552 0.926023662 0.014810856
v 0.105164871 0.723320127 0.073927656
v 0.164277047 0.927444160 -0.006967698
v 0.172037706 0.920360208 -0.032265443
v 0.036508624 0.939405620 0.067408912
v 0.086490236 0.732226074 0.067057870
v 0.107197665 0.744478703 0.076195091
v 0.169248506 0.926395714 -0.052735906
v 0.164600372 0.935166538 -0.068684325
v 0.086067997 0.714196801 0.065612003
v 0.161154255 0.926447093 -0.082759820
v 0.191021487 0.699710727 -0.054818839
v 0.176274389 0.705263555 -0.074959047
v 0.065638162 0.739585996 0.059137888
v 0.150258332 0.705527544 -0.088125244
v 0.140117988 0.929132640 -0.111710690
v 0.068086341 0.721804440 0.059017319
v 0.105660677 0.783194065 0.077725641
v 0.144260153 0.715463817 0.072061732
v 0.179554969 0.710031033 0.058701128
v 0.195299506 0.716958046 0.042591877
v 0.208441287 0.783614635 -0.031222109
v 0.162289053 0.781462014 -0.096781112
v 0.048625380 0.724507868 0.048936151
v 0.144367903 0.770782590 -0.103432894
v 0.208497912 0.713781893 -0.014874523
v 0.208132714 0.711054802 0.006782363
v 0.035622127 0.752320647 0.045983087
v 0.011358624 0.768866420 0.041636683
v 0.078130178 0.918255448 0.061533045
v 0.053684182 0.941563725 0.066128701
v 0.017066171 0.784323037 0.043144081
v 0.032536600 0.862712741 0.060724430
v 0.021263389 0.845161796 0.055104602
v 0.020822359 0.711618543 -0.078584008
v 0.047714010 0.925594926 0.067200124
v 0.038848881 0.743409932 -0.089400962
v 0.030218992 0.905350327 0.067423761
v 0.041659884 0.913381398 0.072746925
v 0.015362655 0.904455841 0.068008624
v 0.035945740 0.696346581 -0.076270193
v 0.057480890 0.747343719 -0.095801249
v 0.071705990 0.838442445 0.060527228
v 0.196379304 0.788348496 0.036541101
v 0.187659651 0.862718225 -0.054779530
v 0.059021585 0.694099367 -0.083893053
v 0.181132644 0.774552703 -0.083748773
v 0.127364680 0.838805199 -0.115547404
v 0.125172228 0.776271641 -0.112884782
v 0.083386704 0.691272974 -0.092735164
v 0.052917767 0.780614257 -0.098680116
v 0.039254047 0.822434425 -0.117569782
v 0.124254689 0.702906251 -0.099450886
v 0.106953323 0.688236594 -0.100280009
v 0.105177067 0.937017441 -0.129872337
v 0.063242711 0.926778674 0.064374074
v 0.061022066 0.907523155 0.064388350
v 0.132870853 0.687253118 -0.091285124
v 0.025229072 0.891020298 0.066181503
v 0.039756406 0.879705429 0.064065076
v 0.083286107 0.937945664 -0.135251403
v 0.156653911 0.687683940 -0.080469713
v 0.179923669 0.833522022 -0.084717818
v 0.025160134 0.865524948 -0.138782039
v 0.179766029 0.736459374 -0.078210331
v 0.178452283 0.687335849 -0.068974197
v 0.017945169 0.769158423 -0.090804964
v 0.189932466 0.684338272 -0.053210944
v 0.032163076 0.836324036 -0.126899153
v 0.201894447 0.689557552 -0.038438160
v 0.207399487 0.699351549 -0.022662597
v 0.060316361 0.805426240 0.057243664
v 0.111712083 0.918166280 -0.133971617
v 0.091165788 0.921531320 -0.140871227
v 0.019332087 0.824677646 -0.113963291
v 0.207037836 0.696815133 -0.004717843
v 0.129916549 0.742219806 -0.105537318
v 0.210771292 0.747633576 0.001152371
v 0.198279753 0.736014783 0.038748816
v 0.165352941 0.741169155 -0.088100173
v 0.148622751 0.742304683 -0.096444391
v 0.192505389 0.696467042 0.045758028
v 0.135347515 0.894286275 0.042384770
v 0.166107982 0.892571807 0.010482360
v 0.208891317 0.748742461 -0.040403925
v 0.046882875 0.711334109 -0.084076181
v 0.159379333 0.699666142 0.065511242
v 0.081424206 0.825525582 0.066702813
v 0.210071847 0.760515034 0.015483454
v 0.200940758 0.755464911 0.033618208
v 0.092999153 0.753803611 -0.106809817
v 0.139142632 0.694495440 0.073202118
v 0.126220912 0.878177285 -0.133222118
v -0.001276862 0.825191855 0.042568680
v -0.003913223 0.757751346 0.039349347
v 0.052277524 0.752127051 0.054549448
v 0.116260685 0.692499340 0.076004490
v 0.149402887 0.882573962 -0.114427984
v -0.002217858 0.798375845 0.040074777
v -0.000666900 0.836170852 0.050822951
v 0.098727427 0.689036965 0.068645790
v 0.019497670 0.875736892 0.064679958
v 0.000496328 0.875159442 0.065163761
v 0.091733888 0.931944072 0.055728465
v 0.060884882 0.692673743 0.053562600
v 0.088306084 0.949930489 0.055571020
v 0.206280112 0.692675948 0.012882030
v 0.095640734 0.829346180 0.073686048
v 0.038029369 0.938281357 -0.134719536
v 0.041750282 0.693933427 0.041398305
v 0.072060943 0.905790806 -0.148222476
v 0.018567698 0.696659088 0.034023579
v 0.034200080 0.711980283 0.040471405
v 0.044261090 0.851258874 -0.140000492
v 0.014446139 0.860578239 0.060964722
v 0.015743360 0.750058711 0.039948858
v -0.004362861 0.744361043 0.037902825
v -0.003060927 0.784712076 0.041039821
v 0.205670029 0.686244130 -0.017209012
v -0.003446125 0.771164000 0.040913470
v 0.072594263 0.712050498 -0.093105361
v 0.090514667 0.815419555 -0.112883545
v 0.110504404 0.824443936 -0.114987433
v 0.146293610 0.827422261 0.065539151
v 0.090956464 0.797022820 0.072264574
v 0.153353825 0.807042599 0.067097478
v 0.098344125 0.706296325 -0.100868419
v 0.198962942 0.689334154 0.029616263
f 555 540 123
f 389 162 497
f 567 540 568
f 583 104 251
f 463 489 430
f 453 94 255
f 483 484 162
f 446 640 671
f 574 577 251
f 50 244 238
f 52 244 50
f 575 57 53
f 55 249 52
f 55 2 250
f 577 248 563
f 575 437 432
f 57 597 589
f 2 265 262
f 589 592 57
f 262 259 2
f 5 267 262
f 602 606 589
f 5 9 11
f 58 606 610
f 11 272 5
f 12 278 11
f 565 793 8
f 630 60 632
f 13 425 12
f 424 289 160
f 289 424 13
f 643 649 60
f 181 403 179
f 483 206 484
f 163 651 174
f 53 563 558
f 651 65 650
f 163 389 384
f 683 66 65
f 455 558 563
f 165 384 171
f 340 331 34
f 67 66 683
f 206 470 63
f 385 102 856
f 67 702 70
f 344 340 696
f 179 403 406
f 710 70 702
f 16 352 14
f 111 112 59
f 63 64 655
f 18 368 16
f 710 742 753
f 119 112 111
f 394 671 545
f 551 922 903
f 19 375 18
f 753 740 711
f 406 470 179
f 261 615 108
f 545 453 439
f 178 386 530
f 24 386 23
f 72 753 742
f 26 396 24
f 768 765 72
f 119 142 112
f 32 63 470
f 112 142 161
f 399 400 396
f 154 343 182
f 545 671 448
f 399 415 400
f 768 770 765
f 32 406 410
f 418 415 399
f 770 183 777
f 387 300 166
f 415 418 422
f 105 86 299
f 169 42 839
f 170 142 119
f 173 172 705
f 329 638 343
f 134 738 737
f 185 638 329
f 692 661 145
f 150 74 741
f 637 345 873
f 132 145 661
f 170 184 142
f 138 495 760
f 138 136 188
f 136 194 188
f 201 87 194
f 270 87 205
f 216 49 210
f 46 216 724
f 198 184 170
f 43 96 907
f 219 39 218
f 45 43 41
f 224 37 219
f 498 224 514
f 86 105 342
f 225 36 514
f 378 107 110
f 80 233 107
f 22 41 43
f 198 217 849
f 41 581 45
f 103 233 76
f 76 40 103
f 222 217 214
f 678 100 40
f 98 41 22
f 366 41 98
f 40 76 678
f 215 4 284
f 215 98 21
f 537 536 92
f 222 234 217
f 904 537 92
f 460 462 30
f 284 471 366
f 222 239 246
f 586 903 759
f 462 28 30
f 246 234 222
f 454 449 28
f 237 391 924
f 560 319 921
f 246 888 252
f 431 471 282
f 455 560 391
f 319 560 241
f 50 238 793
f 50 566 52
f 52 574 55
f 258 263 510
f 244 52 249
f 55 253 2
f 284 792 657
f 303 670 667
f 303 100 674
f 250 249 55
f 273 274 252
f 251 253 574
f 100 303 301
f 301 570 100
f 104 261 257
f 677 100 678
f 273 285 274
f 257 2 253
f 2 257 265
f 250 2 259
f 570 568 40
f 752 292 293
f 294 296 285
f 285 296 274
f 684 497 679
f 277 274 296
f 440 447 442
f 579 489 463
f 692 329 695
f 259 262 267
f 871 736 360
f 262 271 9
f 40 100 570
f 570 567 568
f 203 128 270
f 310 296 294
f 305 296 310
f 87 270 194
f 9 5 262
f 5 272 600
f 276 9 271
f 9 276 11
f 272 11 278
f 302 323 310
f 568 103 40
f 108 615 89
f 280 11 276
f 11 280 12
f 103 568 540
f 278 12 425
f 323 337 328
f 283 12 280
f 12 283 13
f 283 297 289
f 289 13 283
f 540 561 231
f 425 13 424
f 209 288 205
f 291 125 286
f 346 337 323
f 49 304 288
f 173 350 351
f 297 654 314
f 347 158 864
f 304 47 311
f 47 304 49
f 47 46 481
f 360 361 855
f 501 684 146
f 481 311 47
f 46 39 481
f 343 695 329
f 314 289 297
f 289 314 160
f 481 321 308
f 481 39 321
f 325 122 321
f 325 321 37
f 37 321 39
f 333 160 314
f 324 266 333
f 527 107 231
f 84 121 325
f 36 327 498
f 160 333 34
f 327 120 84
f 36 82 371
f 277 393 390
f 689 34 333
f 34 689 340
f 313 34 331
f 266 334 689
f 334 260 341
f 340 335 331
f 107 527 110
f 54 404 405
f 696 14 344
f 61 401 44
f 38 299 407
f 358 14 348
f 14 358 16
f 344 14 352
f 356 704 712
f 352 16 368
f 413 62 417
f 370 16 358
f 16 370 18
f 175 705 134
f 713 115 110
f 371 27 378
f 27 371 82
f 381 18 370
f 18 381 19
f 368 18 375
f 80 378 27
f 19 381 235
f 19 395 23
f 19 23 178
f 202 506 913
f 23 395 24
f 386 24 396
f 398 24 395
f 24 398 26
f 26 398 220
f 26 412 399
f 396 26 399
f 418 399 412
f 164 180 444
f 444 443 164
f 175 173 705
f 685 84 120
f 422 300 415
f 685 121 84
f 172 169 300
f 172 300 422
f 78 80 27
f 226 365 78
f 89 615 114
f 240 485 309
f 134 737 175
f 226 27 82
f 245 459 452
f 187 186 140
f 243 459 245
f 189 187 130
f 581 466 579
f 467 472 637
f 308 122 240
f 138 579 466
f 430 255 463
f 499 435 430
f 453 430 435
f 435 440 439
f 435 499 450
f 243 479 281
f 308 321 122
f 897 438 584
f 439 453 435
f 243 281 893
f 450 440 435
f 480 859 865
f 440 449 447
f 442 439 440
f 450 449 440
f 447 449 454
f 492 488 493
f 127 458 456
f 449 456 28
f 82 225 708
f 454 28 462
f 28 456 30
f 456 450 127
f 30 456 458
f 225 82 36
f 30 464 460
f 506 507 502
f 126 469 125
f 287 508 509
f 207 507 506
f 410 460 32
f 126 306 477
f 460 464 644
f 644 32 460
f 32 644 63
f 475 31 576
f 470 406 32
f 64 63 644
f 306 309 477
f 125 464 458
f 528 795 511
f 516 523 524
f 655 206 63
f 206 655 484
f 206 474 470
f 162 679 497
f 316 322 822
f 313 160 34
f 37 498 325
f 523 316 534
f 497 684 501
f 501 146 505
f 146 512 503
f 505 503 513
f 263 515 510
f 512 120 115
f 503 512 91
f 517 513 503
f 115 713 91
f 458 203 125
f 315 547 548
f 91 512 115
f 547 330 336
f 91 713 88
f 517 88 522
f 552 548 547
f 532 88 713
f 88 532 519
f 552 336 553
f 522 519 541
f 527 231 561
f 127 128 458
f 538 660 692
f 514 36 498
f 224 498 37
f 538 692 695
f 114 626 631
f 553 342 105
f 219 37 39
f 555 660 561
f 127 450 499
f 891 199 824
f 660 555 661
f 218 39 46
f 199 97 886
f 366 98 284
f 22 21 98
f 41 366 581
f 43 232 22
f 907 232 43
f 96 536 907
f 45 463 255
f 45 581 463
f 255 94 96
f 255 96 45
f 94 453 545
f 448 546 545
f 582 593 594
f 595 584 438
f 216 46 47
f 216 47 49
f 551 640 558
f 558 640 569
f 49 288 209
f 793 565 50
f 569 53 558
f 566 50 565
f 209 210 49
f 841 351 350
f 574 52 566
f 578 53 57
f 612 609 423
f 53 578 563
f 575 53 569
f 597 432 211
f 253 55 574
f 57 575 597
f 578 57 592
f 592 583 578
f 627 609 612
f 584 621 628
f 603 589 606
f 602 589 597
f 634 819 627
f 610 606 602
f 835 318 229
f 626 606 58
f 610 624 58
f 58 624 630
f 632 58 630
f 634 884 869
f 58 632 626
f 60 642 632
f 642 60 649
f 60 630 181
f 650 649 643
f 662 652 645
f 656 628 621
f 621 636 656
f 658 659 204
f 64 644 469
f 466 495 138
f 694 377 700
f 468 471 431
f 663 650 65
f 628 656 668
f 679 162 484
f 65 686 663
f 672 673 659
f 686 65 66
f 683 65 651
f 468 431 478
f 683 693 67
f 685 146 684
f 146 685 512
f 696 340 689
f 66 67 701
f 473 495 478
f 66 698 686
f 702 67 693
f 668 675 687
f 701 698 66
f 405 690 54
f 701 67 70
f 54 690 564
f 14 696 348
f 711 70 710
f 699 70 711
f 702 709 710
f 229 318 236
f 657 282 471
f 710 709 742
f 753 756 740
f 756 753 72
f 742 754 72
f 72 754 768
f 72 765 756
f 766 765 770
f 490 193 496
f 130 772 496
f 770 776 766
f 15 719 168
f 87 201 148
f 183 770 768
f 201 194 136
f 422 705 172
f 633 777 338
f 777 633 150
f 408 74 633
f 638 185 408
f 106 730 258
f 688 379 694
f 275 631 118
f 185 692 145
f 197 750 749
f 736 737 738
f 263 258 730
f 738 741 743
f 185 145 143
f 743 741 744
f 744 741 74
f 744 467 879
f 132 140 145
f 123 132 661
f 741 738 150
f 123 540 567
f 773 772 567
f 738 134 150
f 78 27 226
f 238 623 1
f 264 279 779
f 776 150 134
f 134 705 420
f 695 541 538
f 104 599 261
f 365 681 680
f 761 762 763
f 365 678 76
f 76 78 365
f 411 156 420
f 156 411 220
f 541 519 538
f 220 764 156
f 76 233 78
f 80 78 233
f 168 789 387
f 70 699 701
f 398 395 228
f 434 437 445
f 779 780 887
f 428 432 434
f 926 317 706
f 197 749 745
f 213 6 4
f 279 785 780
f 419 427 428
f 148 201 745
f 454 462 419
f 526 782 783
f 381 734 235
f 410 414 419
f 493 769 913
f 511 4 215
f 4 511 213
f 406 414 410
f 208 731 729
f 21 511 215
f 210 728 727
f 794 800 823
f 511 21 529
f 470 474 179
f 724 218 46
f 227 110 115
f 118 280 275
f 219 218 722
f 806 800 794
f 803 804 256
f 716 778 225
f 224 219 720
f 407 86 690
f 356 734 381
f 389 497 380
f 809 795 528
f 810 806 811
f 717 716 514
f 497 501 380
f 317 697 429
f 810 818 821
f 913 771 202
f 341 698 699
f 373 376 159
f 369 177 373
f 341 260 698
f 260 334 266
f 365 226 681
f 517 522 354
f 828 821 818
f 354 362 364
f 569 640 446
f 519 522 88
f 767 828 818
f 266 324 676
f 602 597 211
f 804 834 256
f 121 240 122
f 345 868 918
f 610 602 211
f 169 839 166
f 427 195 211
f 643 179 174
f 683 651 165
f 693 683 171
f 627 884 634
f 324 654 676
f 846 397 841
f 841 397 374
f 362 709 369
f 580 397 846
f 192 188 190
f 192 499 489
f 128 192 190
f 270 205 203
f 205 288 286
f 291 306 126
f 208 148 733
f 288 304 291
f 304 311 306
f 311 481 308
f 286 125 203
f 283 118 297
f 589 599 592
f 283 280 118
f 227 115 120
f 747 805 732
f 707 226 82
f 107 378 80
f 275 114 631
f 118 646 297
f 89 114 275
f 231 233 103
f 87 209 205
f 816 872 870
f 271 108 89
f 248 560 455
f 248 241 560
f 108 271 265
f 566 565 241
f 86 876 690
f 622 244 619
f 517 91 88
f 574 566 248
f 715 662 889
f 244 249 618
f 249 250 614
f 882 465 718
f 253 251 257
f 774 465 882
f 250 259 608
f 883 494 774
f 921 391 560
f 259 267 604
f 54 564 847
f 251 577 583
f 600 267 5
f 89 276 271
f 503 91 517
f 690 405 407
f 275 276 89
f 892 573 582
f 272 278 596
f 248 577 574
f 280 276 275
f 425 588 591
f 425 424 781
f 781 313 572
f 424 313 781
f 572 585 781
f 314 654 324
f 136 197 201
f 313 557 572
f 237 551 558
f 554 331 335
f 334 341 348
f 760 136 138
f 335 344 549
f 341 699 704
f 348 696 334
f 921 319 7
f 358 348 704
f 344 352 544
f 912 582 594
f 903 586 551
f 352 368 543
f 381 370 356
f 368 375 539
f 788 8 3
f 535 375 178
f 221 795 809
f 828 767 562
f 559 833 920
f 921 920 899
f 546 448 898
f 903 922 836
f 38 903 299
f 235 228 395
f 405 669 407
f 546 92 94
f 400 518 520
f 92 546 904
f 639 35 926
f 386 396 525
f 927 926 33
f 928 605 930
f 200 490 298
f 94 545 546
f 96 92 536
f 927 56 852
f 143 472 408
f 220 412 26
f 400 520 521
f 412 220 411
f 109 113 152
f 920 832 559
f 418 412 411
f 152 113 746
f 387 789 786
f 420 418 411
f 746 161 867
f 418 420 422
f 490 773 298
f 496 772 773
f 394 442 445
f 562 767 832
f 739 636 820
f 204 725 658
f 773 490 496
f 725 223 635
f 447 454 428
f 472 186 637
f 215 284 98
f 189 130 496
f 458 464 30
f 410 462 460
f 125 469 464
f 635 247 487
f 487 269 629
f 641 487 629
f 268 269 487
f 269 393 629
f 390 269 268
f 469 126 64
f 349 761 763
f 655 64 477
f 303 674 670
f 290 393 277
f 611 290 928
f 163 474 483
f 928 307 605
f 635 641 648
f 531 605 533
f 677 674 100
f 477 309 485
f 506 202 207
f 679 485 240
f 240 121 684
f 312 912 594
f 684 679 240
f 121 685 684
f 186 187 345
f 503 505 146
f 912 332 892
f 772 130 132
f 685 120 512
f 501 505 159
f 725 648 658
f 505 513 373
f 513 517 364
f 892 847 564
f 110 527 713
f 714 847 339
f 522 541 154
f 51 714 346
f 231 103 540
f 714 51 404
f 541 695 343
f 567 772 123
f 502 500 506
f 578 577 563
f 867 659 673
f 577 578 583
f 597 575 432
f 592 104 583
f 913 492 493
f 845 167 839
f 599 104 592
f 386 178 23
f 599 603 615
f 110 227 378
f 615 261 599
f 706 402 639
f 603 626 114
f 132 123 772
f 624 610 195
f 409 706 317
f 746 673 682
f 114 615 603
f 120 327 227
f 624 414 403
f 691 429 697
f 642 631 632
f 642 118 631
f 429 433 853
f 646 118 642
f 642 649 646
f 152 682 691
f 682 433 691
f 181 643 60
f 654 297 646
f 122 325 121
f 140 130 187
f 421 416 617
f 123 661 555
f 309 308 240
f 698 260 686
f 702 693 177
f 698 701 699
f 672 441 436
f 291 126 125
f 109 691 697
f 143 140 186
f 874 872 816
f 665 441 672
f 188 192 489
f 665 658 653
f 712 704 699
f 653 451 665
f 927 697 317
f 712 740 734
f 648 461 653
f 178 375 19
f 923 880 116
f 641 461 648
f 740 756 748
f 748 758 228
f 926 706 639
f 479 641 482
f 754 742 362
f 354 754 362
f 407 669 38
f 203 458 128
f 482 629 620
f 756 765 758
f 182 754 154
f 128 127 192
f 254 246 252
f 611 382 620
f 764 398 228
f 499 192 127
f 764 766 156
f 766 776 156
f 930 611 928
f 420 156 776
f 140 132 130
f 788 7 8
f 387 166 168
f 420 776 134
f 136 760 197
f 300 387 415
f 750 197 760
f 745 201 197
f 148 208 209
f 733 148 745
f 258 35 106
f 593 533 605
f 731 208 733
f 236 318 910
f 729 210 208
f 728 210 729
f 727 216 210
f 188 489 579
f 929 573 556
f 724 216 727
f 573 929 582
f 723 218 724
f 722 218 723
f 720 219 722
f 717 224 720
f 514 224 717
f 188 579 138
f 876 556 573
f 707 681 226
f 898 904 546
f 472 143 186
f 212 795 221
f 899 391 921
f 854 925 931
f 213 795 212
f 140 143 145
f 404 54 714
f 833 922 924
f 415 387 786
f 143 408 185
f 238 3 793
f 1 3 238
f 31 799 752
f 622 238 244
f 918 799 515
f 380 376 171
f 915 752 357
f 617 476 421
f 619 244 618
f 618 249 616
f 616 249 614
f 636 739 613
f 388 613 10
f 614 250 608
f 357 791 915
f 383 688 388
f 608 259 607
f 571 438 576
f 295 667 666
f 92 96 94
f 607 259 604
f 372 726 700
f 667 295 303
f 367 726 372
f 604 267 601
f 298 295 207
f 923 875 880
f 363 732 367
f 408 467 74
f 148 209 87
f 298 301 295
f 359 747 363
f 601 267 600
f 359 355 755
f 600 272 598
f 598 272 596
f 353 755 355
f 301 298 773
f 596 278 591
f 747 755 751
f 591 278 425
f 588 425 781
f 388 688 813
f 769 771 913
f 763 353 349
f 202 771 200
f 506 500 913
f 74 467 744
f 773 570 301
f 82 708 707
f 320 647 326
f 500 492 913
f 331 554 557
f 242 910 320
f 344 335 340
f 910 908 647
f 554 335 550
f 239 222 703
f 549 550 335
f 549 344 544
f 166 167 168
f 544 352 543
f 543 368 542
f 17 15 167
f 17 845 157
f 907 536 919
f 157 850 155
f 155 850 153
f 542 368 539
f 150 633 74
f 153 854 151
f 151 854 149
f 149 858 147
f 147 862 144
f 539 375 535
f 759 903 38
f 530 535 178
f 144 862 141
f 141 866 139
f 139 866 137
f 530 386 525
f 137 870 135
f 525 396 521
f 135 870 872
f 133 872 131
f 131 874 129
f 129 923 117
f 923 874 875
f 170 119 902
f 521 396 400
f 20 932 101
f 99 101 932
f 99 886 97
f 95 97 199
f 95 891 93
f 93 896 90
f 518 400 786
f 90 896 85
f 85 901 83
f 83 905 81
f 169 166 300
f 81 905 79
f 77 79 796
f 77 909 75
f 439 394 545
f 75 914 73
f 73 914 71
f 71 916 69
f 442 394 439
f 468 466 366
f 442 447 434
f 7 562 920
f 794 534 811
f 924 899 833
f 434 447 428
f 428 454 419
f 419 462 410
f 38 898 759
f 902 111 897
f 466 468 495
f 526 524 534
f 25 59 56
f 96 43 45
f 895 401 61
f 182 343 338
f 483 389 163
f 483 162 389
f 897 59 25
f 883 894 775
f 776 777 150
f 59 897 111
f 380 384 389
f 774 882 893
f 111 902 119
f 778 708 225
f 501 159 380
f 167 166 839
f 159 505 373
f 176 191 867
f 373 513 369
f 364 369 513
f 850 890 925
f 354 364 517
f 354 522 154
f 177 369 709
f 154 541 343
f 446 445 437
f 376 380 159
f 204 223 725
f 217 198 214
f 214 703 222
f 437 569 446
f 610 211 195
f 414 624 195
f 403 630 624
f 889 718 715
f 160 313 424
f 181 630 403
f 888 246 239
f 179 643 181
f 174 650 643
f 651 650 174
f 163 384 165
f 487 247 268
f 165 651 163
f 171 683 165
f 174 474 163
f 557 313 331
f 475 515 799
f 376 693 171
f 285 273 757
f 177 693 376
f 627 885 884
f 174 179 474
f 509 508 516
f 294 302 310
f 709 702 177
f 709 362 742
f 154 754 354
f 182 338 183
f 780 785 803
f 183 768 182
f 423 413 881
f 183 338 777
f 638 338 343
f 633 638 408
f 590 401 895
f 692 185 329
f 190 188 194
f 515 475 25
f 270 190 194
f 190 270 128
f 195 427 414
f 7 788 562
f 915 878 571
f 877 595 438
f 203 205 286
f 44 48 61
f 474 206 483
f 210 209 208
f 61 62 895
f 413 895 62
f 211 432 427
f 172 42 169
f 398 764 220
f 515 263 918
f 437 575 569
f 228 758 764
f 124 885 426
f 175 871 350
f 84 498 327
f 225 514 716
f 327 371 227
f 918 263 730
f 898 448 759
f 371 327 36
f 839 374 890
f 227 371 378
f 451 441 665
f 228 235 748
f 444 180 457
f 233 231 107
f 187 868 345
f 759 448 586
f 189 292 868
f 734 748 235
f 653 461 826
f 924 922 237
f 292 193 196
f 446 671 394
f 461 641 479
f 922 551 237
f 391 237 455
f 482 641 629
f 918 868 799
f 196 200 293
f 771 293 200
f 558 455 237
f 281 287 894
f 894 893 281
f 248 566 241
f 257 251 104
f 255 430 453
f 257 261 265
f 509 775 287
f 260 266 676
f 509 516 524
f 265 261 108
f 523 516 531
f 322 316 523
f 273 252 888
f 265 271 262
f 811 534 316
f 316 315 811
f 676 686 260
f 366 466 581
f 478 495 468
f 330 547 315
f 547 336 552
f 366 471 468
f 760 495 473
f 657 471 284
f 336 342 553
f 553 900 552
f 832 900 553
f 865 878 791
f 792 284 4
f 31 571 576
f 286 288 291
f 438 571 877
f 906 864 863
f 4 790 792
f 8 7 319
f 303 295 301
f 291 304 306
f 570 773 567
f 739 617 392
f 617 416 392
f 306 311 309
f 309 311 308
f 170 628 668
f 613 739 10
f 739 392 10
f 656 675 668
f 656 815 675
f 680 678 365
f 813 613 388
f 324 333 314
f 687 198 668
f 379 688 383
f 295 666 207
f 815 656 636
f 377 694 379
f 325 498 84
f 689 333 266
f 334 696 689
f 700 377 372
f 861 834 860
f 703 721 239
f 732 726 367
f 834 861 256
f 348 341 704
f 747 732 363
f 356 358 704
f 735 888 721
f 370 358 356
f 735 264 757
f 735 273 888
f 755 747 359
f 369 364 362
f 353 763 755
f 647 761 326
f 761 349 326
f 376 373 177
f 779 757 264
f 780 779 279
f 384 380 171
f 235 395 19
f 736 871 737
f 562 788 917
f 910 647 320
f 785 804 803
f 414 406 403
f 256 323 803
f 813 675 815
f 415 786 400
f 427 419 414
f 422 420 705
f 432 428 427
f 430 489 499
f 587 580 590
f 437 434 432
f 445 442 434
f 446 394 445
f 671 586 448
f 819 609 627
f 456 449 450
f 455 563 248
f 865 791 769
f 581 579 463
f 645 652 817
f 644 464 469
f 652 662 715
f 874 923 129
f 715 664 652
f 694 812 688
f 477 64 126
f 750 760 473
f 485 655 477
f 465 715 718
f 507 207 666
f 465 774 494
f 865 486 480
f 812 675 813
f 485 484 655
f 207 202 298
f 883 504 825
f 493 865 769
f 783 782 504
f 679 484 485
f 202 200 298
f 196 490 200
f 196 193 490
f 877 859 476
f 302 803 323
f 189 496 193
f 814 806 810
f 168 719 789
f 821 814 810
f 391 899 924
f 713 527 532
f 467 408 472
f 302 294 887
f 786 787 518
f 538 519 532
f 561 532 527
f 926 35 33
f 538 532 660
f 540 555 561
f 551 586 640
f 319 241 565
f 660 532 561
f 113 161 746
f 161 176 867
f 8 319 565
f 223 247 635
f 781 585 784
f 620 629 393
f 887 780 302
f 269 390 393
f 671 640 586
f 781 784 588
f 599 589 603
f 393 290 611
f 626 603 606
f 928 290 305
f 623 238 622
f 625 1 623
f 774 893 894
f 312 332 912
f 626 632 631
f 332 339 847
f 847 892 332
f 757 887 285
f 847 714 54
f 793 3 8
f 732 807 726
f 858 931 857
f 675 812 687
f 168 167 15
f 273 735 757
f 920 921 7
f 402 385 639
f 167 845 17
f 638 633 338
f 646 649 663
f 650 663 649
f 845 850 157
f 888 239 721
f 663 654 646
f 706 409 48
f 850 854 153
f 676 654 663
f 429 409 317
f 661 692 660
f 854 858 149
f 676 663 686
f 858 862 147
f 433 429 691
f 678 680 677
f 699 711 712
f 712 734 356
f 711 710 753
f 862 866 141
f 712 711 740
f 682 436 827
f 734 740 748
f 866 870 137
f 214 687 808
f 748 756 758
f 664 816 652
f 872 133 135
f 198 687 214
f 754 182 768
f 872 874 131
f 665 659 658
f 758 765 766
f 658 648 653
f 766 764 758
f 776 770 777
f 668 198 170
f 117 923 116
f 787 786 789
f 929 330 822
f 533 822 322
f 556 336 330
f 531 322 523
f 899 920 833
f 662 444 889
f 346 323 256
f 491 482 620
f 116 880 911
f 911 20 116
f 382 491 620
f 911 932 20
f 932 886 99
f 645 443 662
f 930 382 611
f 382 930 516
f 886 824 199
f 605 531 930
f 491 508 848
f 628 170 902
f 256 347 346
f 482 848 479
f 891 896 93
f 347 256 861
f 820 617 739
f 866 819 817
f 605 594 593
f 896 901 85
f 929 593 582
f 612 881 885
f 901 905 83
f 826 451 653
f 451 457 180
f 672 659 665
f 441 180 851
f 79 905 796
f 436 673 672
f 436 851 827
f 909 914 75
f 682 673 436
f 914 916 71
f 584 902 897
f 876 86 342
f 69 916 1
f 829 433 827
f 700 808 694
f 788 3 916
f 853 829 417
f 409 61 48
f 402 48 855
f 870 817 816
f 855 29 360
f 874 816 664
f 385 361 102
f 830 880 875
f 576 897 25
f 819 634 817
f 68 69 1
f 106 856 730
f 743 736 738
f 910 242 236
f 862 857 819
f 744 879 102
f 880 830 831
f 840 528 843
f 401 846 44
f 803 302 780
f 769 791 357
f 878 915 791
f 831 911 880
f 918 873 345
f 576 25 475
f 799 31 475
f 841 29 846
f 879 856 102
f 106 639 385
f 573 564 876
f 911 831 802
f 342 556 876
f 337 339 332
f 25 510 515
f 350 29 841
f 564 573 892
f 892 582 912
f 510 25 56
f 864 906 837
f 312 328 337
f 929 822 593
f 33 35 258
f 871 360 29
f 840 860 835
f 864 158 863
f 29 855 44
f 916 914 917
f 808 687 812
f 594 307 312
f 307 305 328
f 916 917 788
f 33 56 927
f 840 835 809
f 307 594 605
f 736 743 361
f 531 516 930
f 290 277 305
f 852 109 927
f 318 835 860
f 21 844 529
f 852 59 112
f 620 393 611
f 102 743 744
f 112 113 852
f 751 763 762
f 647 785 762
f 805 747 751
f 252 268 254
f 230 835 229
f 487 641 635
f 637 879 467
f 124 851 164
f 809 230 221
f 161 142 176
f 807 732 805
f 247 234 254
f 230 809 835
f 808 700 807
f 345 637 186
f 176 184 191
f 812 694 808
f 204 849 223
f 849 204 191
f 813 688 812
f 635 648 725
f 849 184 198
f 815 613 813
f 815 636 613
f 217 223 849
f 659 191 204
f 217 234 223
f 191 184 849
f 859 480 421
f 795 213 511
f 245 461 243
f 878 865 859
f 802 886 932
f 191 659 867
f 452 718 889
f 223 234 247
f 176 142 184
f 246 254 234
f 865 493 486
f 293 771 357
f 268 247 254
f 771 769 357
f 805 264 735
f 268 252 390
f 161 113 112
f 486 493 488
f 390 252 274
f 867 673 746
f 264 751 279
f 274 277 390
f 746 682 152
f 281 848 287
f 827 433 682
f 808 703 214
f 152 691 109
f 109 852 113
f 476 859 421
f 296 305 277
f 476 595 877
f 305 307 928
f 196 293 292
f 595 476 820
f 726 807 700
f 752 293 357
f 307 328 312
f 310 328 305
f 56 59 852
f 292 752 799
f 328 310 323
f 886 825 824
f 312 337 332
f 807 703 808
f 891 824 782
f 193 292 189
f 844 21 22
f 429 853 409
f 109 697 927
f 56 33 510
f 105 559 553
f 339 337 346
f 346 714 339
f 51 346 347
f 317 926 927
f 564 690 876
f 863 844 232
f 799 868 292
f 510 33 258
f 843 528 529
f 844 863 842
f 861 840 843
f 861 158 347
f 861 860 840
f 752 915 31
f 158 843 842
f 843 158 861
f 842 529 844
f 919 837 906
f 906 232 907
f 809 528 840
f 730 873 918
f 730 856 873
f 873 856 879
f 856 106 385
f 817 634 645
f 837 919 838
f 817 652 816
f 919 906 907
f 919 536 537
f 743 102 361
f 904 669 838
f 898 669 904
f 669 898 38
f 703 807 721
f 405 404 838
f 669 405 838
f 922 833 836
f 294 285 887
f 361 385 402
f 869 645 634
f 830 875 664
f 916 3 1
f 864 51 347
f 402 855 361
f 909 801 914
f 397 890 374
f 48 44 855
f 796 909 77
f 879 637 873
f 901 798 905
f 580 925 397
f 48 402 706
f 896 800 901
f 891 823 896
f 409 62 61
f 853 62 409
f 881 413 417
f 417 62 853
f 86 407 299
f 459 893 882
f 199 891 95
f 830 465 831
f 829 426 417
f 426 829 124
f 426 881 417
f 124 829 827
f 433 829 853
f 886 802 825
f 774 894 883
f 851 124 827
f 164 884 124
f 441 851 436
f 180 164 851
f 443 869 164
f 911 802 932
f 715 830 664
f 874 664 875
f 736 361 360
f 451 180 441
f 457 452 889
f 889 444 457
f 866 817 870
f 106 35 639
f 459 718 452
f 826 452 457
f 452 826 245
f 451 826 457
f 862 819 866
f 858 857 862
f 461 245 826
f 459 882 718
f 479 243 461
f 854 931 858
f 850 925 854
f 846 401 580
f 845 890 850
f 491 848 482
f 848 281 479
f 825 494 883
f 382 508 491
f 900 832 767
f 508 287 848
f 896 823 800
f 839 890 845
f 504 782 824
f 42 374 839
f 516 508 382
f 908 910 318
f 534 524 523
f 552 818 548
f 42 172 173
f 901 800 798
f 818 552 900
f 533 322 531
f 871 175 737
f 868 187 189
f 22 232 844
f 593 822 533
f 822 315 316
f 929 556 330
f 330 315 822
f 838 919 537
f 904 838 537
f 318 860 834
f 908 318 834
f 465 830 715
f 556 342 336
f 105 836 559
f 833 559 836
f 29 44 846
f 908 834 804
f 562 917 828
f 299 836 105
f 818 900 767
f 832 553 559
f 562 832 920
f 811 315 548
f 828 801 821
f 801 828 917
f 821 797 814
f 836 299 903
f 401 590 580
f 797 821 801
f 905 798 796
f 796 814 797
f 810 548 818
f 814 798 806
f 798 814 796
f 909 796 797
f 811 548 810
f 413 587 590
f 404 51 837
f 51 864 837
f 837 838 404
f 909 797 801
f 529 842 843
f 158 842 863
f 232 906 863
f 800 806 798
f 529 528 511
f 794 811 806
f 785 908 804
f 785 647 908
f 859 877 878
f 526 534 794
f 877 571 878
f 571 31 915
f 173 351 42
f 524 783 509
f 350 173 175
f 29 350 871
f 823 526 794
f 783 524 526
f 526 823 782
f 42 351 374
f 841 374 351
f 504 775 783
f 509 783 775
f 782 823 891
f 885 124 884
f 887 757 779
f 914 801 917
f 426 885 881
f 890 397 925
f 825 504 824
f 775 504 883
f 925 587 931
f 587 925 580
f 802 494 825
f 785 279 762
f 494 831 465
f 831 494 802
f 894 287 775
f 590 895 413
f 438 897 576
f 884 164 869
f 762 279 751
f 423 931 587
f 587 413 423
f 931 423 857
f 762 761 647
f 617 820 476
f 595 820 621
f 751 755 763
f 893 459 243
f 751 264 805
f 609 857 423
f 423 881 612
f 662 443 444
f 721 805 735
f 621 584 595
f 857 609 819
f 443 645 869
f 612 885 627
f 636 621 820
f 628 902 584
f 805 721 807
