# avbd fit, rung f60-i32-s300-nosim of Gate 6d (body space, fit phase only)
v -0.006545247 0.586809814 0.006831774
v -0.107531764 0.594992697 0.061994214
v -0.007537594 0.606843948 0.007740507
v -0.002460326 0.937186837 0.089496203
v -0.143828034 0.573879957 0.057520706
v 0.014161482 0.948331714 0.094204031
v -0.007502736 0.646659613 0.000726896
v -0.007551108 0.627116084 0.006558487
v -0.146417648 0.596516490 0.058852177
v 0.146187276 0.951283157 -0.091056190
v -0.170651332 0.589508295 0.046463490
v -0.186338410 0.593753695 0.022040326
v -0.203663304 0.595661938 0.005248007
v -0.147243291 0.594835520 -0.068115331
v 0.010557191 0.581012905 -0.009309782
v -0.123600505 0.586768627 -0.074127510
v 0.029045466 0.580869496 0.002174024
v -0.116035737 0.584984183 -0.096690007
v -0.095045730 0.598637938 -0.092959583
v 0.186417341 0.539289594 -0.005411420
v -0.004028148 0.897199273 0.082703613
v -0.002871242 0.877056420 0.078274429
v -0.093296006 0.598109841 -0.070642203
v -0.076899812 0.604447544 -0.080297142
v 0.107812800 0.831267536 -0.120750166
v -0.070118502 0.621022642 -0.066380374
v -0.155566707 0.915541470 -0.127006084
v -0.150537401 0.800676227 0.068706214
v 0.033177808 0.692833841 -0.054908939
v -0.160562605 0.815300286 0.084559992
v 0.076765202 0.862470150 -0.146676123
v -0.194953784 0.789403021 0.049448647
v 0.092238888 0.786796689 -0.109373629
v -0.184167087 0.589000463 -0.034953635
v 0.072181061 0.776177168 -0.103633069
v -0.162623540 0.916840672 -0.085535288
v -0.174305439 0.907686889 -0.053248607
v 0.014186831 0.764466822 0.005020355
v -0.172493786 0.912689328 -0.029281596
v -0.096951202 0.911216080 -0.142790765
v -0.035333417 0.887907207 0.065267548
v 0.011326483 0.650352240 -0.015079876
v -0.022490609 0.863548934 0.061504476
v 0.048000704 0.691842675 -0.080428220
v -0.049717881 0.866761863 0.059853084
v -0.185387015 0.925275207 -0.009232153
v -0.169923693 0.902307987 -0.008502959
v 0.062047083 0.715426326 -0.090126671
v -0.153043136 0.903257370 0.011438874
v -0.044596918 0.605089545 0.003234189
v 0.065816134 0.835246444 0.057384945
v -0.059180446 0.600130916 0.027064178
v -0.069074467 0.700428665 0.057217717
v 0.051542390 0.788170338 0.055639960
v -0.073460586 0.593152285 0.051197667
v 0.113220297 0.802137494 -0.115477718
v -0.097711585 0.693792343 0.068142183
v -0.168945909 0.702043533 0.061372329
v 0.130026996 0.815059662 -0.132082745
v -0.199158579 0.698930442 0.032052126
v 0.073899947 0.693952501 -0.089881785
v 0.098293260 0.687499404 -0.097141877
v -0.200170800 0.801173985 0.025039246
v -0.193676651 0.825301349 0.023874553
v -0.203006312 0.699316502 -0.039658960
v -0.183830813 0.692932963 -0.063515902
v -0.169808343 0.707898080 -0.081724346
v 0.009643530 0.580842614 0.017188817
v 0.016120523 0.568580508 0.002894799
v -0.143368259 0.694631219 -0.088688090
v 0.030972654 0.567223907 0.015285335
v -0.115816429 0.704509854 -0.123882152
v 0.047947768 0.572824359 0.017269922
v -0.026735833 0.766971767 -0.064401552
v 0.060376216 0.561187506 0.008998724
v -0.119794607 0.914426625 -0.139048323
v 0.069885597 0.557964265 0.026019895
v -0.134424299 0.916679263 -0.122258805
v 0.058407433 0.551336646 0.038675383
v -0.144685969 0.898498654 -0.118008688
v 0.078091301 0.548036277 0.040157557
v -0.145300478 0.927465081 -0.107916847
v 0.096204787 0.543767810 0.047989443
v -0.184557512 0.873610616 -0.088579625
v 0.113696888 0.540016532 0.056433685
v 0.036852308 0.742093205 0.032516427
v -0.149264008 0.898557067 0.058130629
v -0.141485617 0.810485542 -0.130309314
v -0.148372918 0.632110298 0.063301161
v 0.132186636 0.537825882 0.059956782
v -0.165777162 0.819241047 -0.118998967
v -0.024204113 0.821394622 0.032451473
v 0.150026038 0.538018823 0.051224642
v -0.044349611 0.820677161 0.046024721
v 0.169312492 0.537375808 0.048902813
v -0.031179732 0.841286302 0.051861323
v 0.187838912 0.540457129 0.042348243
v -0.019234268 0.907374024 0.068065278
v 0.172385126 0.540721714 0.031501036
v -0.082661189 0.930731654 -0.138690576
v 0.181836635 0.539194465 0.014176330
v 0.025971383 0.769304514 -0.063542485
v -0.109608091 0.890256405 -0.139896661
v -0.106435277 0.646527588 0.067732133
v 0.033479013 0.718865395 0.020591438
v 0.050989904 0.779217184 -0.099727079
v -0.142395407 0.877018273 -0.121349059
v -0.141095027 0.626051903 0.085813604
v 0.135640889 0.763186276 -0.125390023
v -0.157140747 0.862741768 -0.129161403
v 0.148988500 0.828176618 -0.123260222
v 0.160566628 0.802936375 -0.125811726
v 0.157520443 0.775513768 -0.118414223
v -0.156333596 0.655087233 0.061171331
v -0.170119822 0.847778797 -0.114529572
v 0.199285462 0.539087951 -0.019557733
v 0.195699394 0.551478028 -0.032716293
v -0.199339136 0.643042564 0.031387389
v 0.169075489 0.826545060 -0.114014789
v -0.156756803 0.863717437 -0.095111169
v -0.183704212 0.856091142 -0.067967482
v -0.187116846 0.868312716 -0.046201464
v -0.070714608 0.850293040 -0.144208223
v 0.131249502 0.676131845 -0.089180231
v -0.165529609 0.848296821 0.051197670
v -0.184825122 0.848216176 0.026065797
v -0.127806216 0.839753449 0.065577827
v -0.131315142 0.858625293 0.078789964
v 0.178295001 0.543718338 -0.035312880
v -0.027279109 0.841878235 -0.129814073
v 0.171517983 0.541641116 -0.053616803
v -0.049403112 0.834320068 -0.133638024
v 0.173215538 0.539062142 -0.072778359
v -0.029681470 0.707390428 -0.047293060
v 0.155658588 0.541408360 -0.066617683
v -0.111731946 0.907106280 0.047936451
v 0.141992137 0.546515703 -0.078435376
v -0.086080104 0.904787421 0.059137195
v 0.143356413 0.550207496 -0.097517051
v -0.027645323 0.822697520 -0.115258791
v 0.127286762 0.554868102 -0.086949423
v 0.153576314 0.817463994 -0.102526329
v -0.031959560 0.811852276 -0.092899486
v 0.128610954 0.554271460 -0.070279874
v -0.052348725 0.817870796 -0.115477763
v -0.170754462 0.819850147 -0.094557628
v 0.109512649 0.551305830 -0.074700125
v -0.149792328 0.918409348 0.044866495
v 0.094468653 0.555589318 -0.062731430
v -0.030208286 0.735300422 -0.064646289
v 0.076676689 0.559057057 -0.054509182
v 0.150912851 0.750865102 -0.113718927
v 0.064831585 0.563612759 -0.038594097
v -0.114414155 0.761791468 -0.115020499
v 0.056568824 0.570656836 -0.021694334
v -0.056832261 0.673440635 -0.077098511
v 0.039509203 0.572988927 -0.011980121
v 0.046072714 0.869494617 0.077571183
v -0.176014736 0.779271603 -0.090413071
v -0.209870860 0.596373081 -0.026936883
v 0.144214883 0.792207778 -0.105372369
v -0.212686568 0.797819912 -0.039764825
v -0.215465471 0.754311681 -0.030009871
v 0.156566665 0.665556550 -0.076842465
v -0.201831311 0.739601254 -0.049230643
v -0.009506138 0.619373918 -0.010008935
v 0.011353399 0.604142904 -0.003440734
v -0.011818277 0.597948909 -0.007672609
v -0.010566609 0.637608647 -0.015222984
v 0.164765626 0.843869686 -0.095725633
v -0.188595131 0.746299624 -0.068821654
v -0.009083088 0.655481696 -0.025541967
v -0.010753499 0.676521599 -0.021372888
v -0.210000008 0.735228717 -0.007957890
v -0.009745375 0.696699262 -0.025400719
v 0.165436417 0.798482418 -0.096701294
v -0.151907548 0.745028555 -0.095216982
v -0.105010904 0.578504205 -0.071804076
v -0.205706671 0.745983899 0.024538863
v 0.178320363 0.682959616 -0.086627558
v -0.199011073 0.722799599 0.035546459
v -0.095724329 0.745638192 -0.107245281
v -0.075658113 0.731102288 -0.102649629
v 0.181130394 0.818802357 -0.095298812
v -0.055318296 0.801908314 -0.098923668
v -0.005155302 0.819548726 -0.095061742
v -0.004671910 0.832883716 -0.110820532
v -0.098198749 0.880769432 0.052365743
v -0.004637846 0.847715497 -0.123802938
v -0.120851137 0.874138176 0.064465962
v 0.185374081 0.789164364 -0.087470733
v -0.107506528 0.856299102 0.063985571
v -0.004903995 0.860459626 -0.138772815
v -0.122034095 0.897091091 0.067767113
v -0.163153276 0.733966947 0.081465051
v -0.006373062 0.879983425 -0.134108454
v -0.124236248 0.932236850 0.050385676
v 0.198424637 0.843553901 -0.084043860
v 0.180554703 0.560462594 0.056435574
v -0.005800597 0.900022626 -0.133822173
v -0.134506956 0.918567836 0.065083005
v -0.005710345 0.919995189 -0.132019594
v -0.156634912 0.866833806 0.069937982
v 0.192913994 0.778464437 -0.064906523
v -0.137329862 0.877548873 0.051871352
v -0.210641414 0.790489614 0.002732371
v -0.005924691 0.939645946 -0.127858654
v -0.124194108 0.918877244 0.038602978
v -0.130928114 0.896690249 0.035451427
v -0.145610124 0.924439728 0.018635206
v -0.139034510 0.726732790 0.074927352
v 0.030956870 0.957634270 0.079452634
v 0.010890061 0.960502803 0.078352764
v 0.190486059 0.855656326 -0.054532308
v -0.003196089 0.917311966 0.085968360
v -0.160773307 0.926688194 -0.002396021
v 0.207698420 0.829366207 -0.054115742
v -0.167260379 0.934661269 -0.020737765
v -0.169289082 0.931840539 -0.043595932
v -0.068322286 0.647666633 -0.073330224
v 0.050979543 0.957839131 0.074538492
v 0.198723778 0.843089402 -0.031544242
v 0.209545776 0.795008779 -0.046474896
v -0.167144179 0.928868771 -0.066549219
v -0.153993577 0.940044105 -0.088828042
v -0.140709683 0.937875867 -0.130179971
v -0.171223581 0.876427293 -0.108690657
v -0.096840315 0.645471573 -0.085955009
v 0.089479245 0.954379439 0.060808301
v 0.070764206 0.956460774 0.068709336
v -0.122576430 0.869662941 -0.135298803
v -0.004084731 0.857400537 0.071357504
v -0.129817531 0.893869996 -0.131637603
v 0.203906447 0.816610813 -0.028043130
v -0.102074146 0.626996398 -0.101989567
v 0.105162203 0.952248454 0.048382543
v -0.028344721 0.704873383 0.007848093
v -0.029975668 0.591449857 -0.013912978
v 0.195698708 0.856888950 -0.011641456
v -0.206925243 0.849988580 -0.046769403
v -0.037323914 0.642203212 0.009980416
v 0.112825476 0.937083542 0.058296673
v 0.205297619 0.683848739 -0.013203534
v -0.052073896 0.581008732 0.005394086
v 0.211684540 0.683913648 -0.034735043
v 0.201895908 0.833689988 -0.006573183
v 0.209103182 0.790695071 -0.016363170
v -0.050225247 0.653582752 0.030524489
v -0.067089394 0.573005855 0.033454962
v -0.092383429 0.571514845 0.051878400
v -0.084045187 0.636061788 0.057243753
v 0.208432913 0.821063221 0.020943204
v -0.086245172 0.613459945 0.055332035
v 0.206790283 0.810937405 -0.003566491
v -0.061156165 0.846206367 0.049789496
v 0.098206997 0.857672036 0.064278737
v -0.106046960 0.622545063 0.065289915
v 0.069578081 0.795672119 -0.108743146
v -0.120381966 0.568899333 0.064221613
v -0.182409123 0.650324643 -0.056949683
v -0.127276123 0.635008514 0.072378151
v -0.133788317 0.587361693 0.085010938
v 0.066320524 0.813929915 -0.104662791
v 0.164345324 0.880140603 0.027320299
v -0.122150183 0.611871362 0.081474997
v -0.187050492 0.630911529 -0.043614998
v -0.145961687 0.565347433 0.078977816
v 0.212978795 0.793036640 0.010734787
v 0.207928464 0.773258090 0.023904521
v -0.140460700 0.883950889 0.078426696
v -0.148169383 0.609620750 0.076326869
v -0.163711637 0.563740134 0.046347234
v 0.188212305 0.839342713 0.026569406
v 0.186316222 0.814659715 0.040025949
v -0.173930198 0.636541963 0.051333684
v -0.161700800 0.613901794 0.054038234
v 0.185545400 0.791418672 0.056619167
v -0.179572806 0.569104314 0.027404800
v 0.139779478 0.881314278 0.045793053
v -0.182988554 0.615841031 0.036866367
v 0.204000548 0.676725984 0.011386175
v -0.056199305 0.959989190 0.077017084
v -0.202693701 0.616694450 0.018032547
v -0.022081835 0.935274780 0.069337800
v 0.174150795 0.834588170 0.048637696
v -0.156255543 0.868566394 0.046847969
v 0.192915648 0.669328332 0.035168238
v -0.154781237 0.887128055 0.032200791
v -0.194693297 0.611648798 -0.008089142
v 0.176987931 0.769083202 0.064838424
v -0.171193704 0.867994010 0.028091464
v 0.021746745 0.859905720 -0.135567456
v 0.022299875 0.885811925 -0.139554277
v 0.157311514 0.831368744 0.065261655
v -0.035981871 0.938469529 -0.134563297
v 0.172519743 0.812810302 0.064936824
v -0.198409319 0.635996222 -0.000238693
v -0.028061086 0.913423657 -0.140477791
v 0.024833377 0.742878079 0.009085491
v -0.028855750 0.632454216 -0.023586128
v -0.053493261 0.919391811 -0.143054351
v 0.143455192 0.846015453 0.079860516
v -0.061331548 0.941526413 -0.134635359
v -0.173865855 0.887659073 0.011467112
v 0.155850410 0.788775444 0.069161169
v -0.189640984 0.866606414 0.007905675
v 0.134735495 0.768839240 0.076467499
v -0.202521652 0.877642334 -0.030891145
v -0.194434375 0.856799722 -0.018333241
v 0.149963066 0.817698598 0.083621569
v -0.183698371 0.880669713 -0.013737768
v 0.114639997 0.779271960 0.090109274
v -0.202552155 0.570243239 -0.038707472
v -0.214825436 0.620864213 -0.016168598
v 0.091452204 0.673438191 0.064309463
v 0.113829315 0.668543398 0.076196641
v 0.100290559 0.741496444 -0.107713424
v 0.099710688 0.921943307 0.052310806
v -0.026920969 0.646745563 -0.010500372
v 0.124176309 0.950915992 0.057526194
v -0.177989990 0.888382614 -0.036026832
v 0.126028389 0.689820886 0.080027364
v 0.121513918 0.828690827 0.070751674
v -0.198444739 0.634268284 -0.022780022
v -0.175619170 0.883123040 -0.063500896
v 0.141774341 0.946734726 0.060877759
v -0.165543690 0.890439332 -0.084763691
v 0.132216722 0.797996223 0.087296724
v -0.074400142 0.789106667 -0.106367841
v 0.079982676 0.699178576 0.061936777
v -0.174942538 0.566568077 -0.044218998
v 0.090813778 0.781997859 0.082989886
v -0.192450434 0.612380505 -0.029179120
v -0.179193318 0.626169145 -0.068846039
v -0.155640274 0.566135108 -0.062435169
v 0.054159194 0.697873592 0.056226987
v 0.105324432 0.803173423 0.078446932
v -0.065705888 0.752327800 -0.099014796
v 0.081559412 0.802505970 0.080618612
v -0.168958470 0.585705638 -0.058812570
v -0.165031642 0.645232439 -0.080484845
v 0.042483855 0.718541026 0.044806890
v -0.084232770 0.766967118 -0.115925536
v -0.153491676 0.576416075 -0.085308485
v 0.016574806 0.819101214 -0.103914022
v 0.088516206 0.830042064 0.084064409
v 0.069635384 0.854481339 0.080735728
v -0.155385062 0.619817674 -0.079521447
v 0.133251235 0.943540871 0.043259732
v 0.018909698 0.687234521 -0.028513301
v 0.018979426 0.665269971 -0.028013062
v -0.136972398 0.567444921 -0.069023445
v 0.150706097 0.935430706 0.037685908
v -0.137304366 0.760793090 -0.130989522
v 0.151027590 0.943732262 0.019840138
v -0.114899077 0.628892183 -0.084089145
v 0.048216827 0.896996319 -0.145805776
v -0.132094413 0.613280356 -0.076035872
v 0.160777837 0.948262870 0.003157143
v 0.029360265 0.718337059 -0.053911876
v 0.030305233 0.741564214 -0.066264823
v -0.149435252 0.740889311 -0.117830597
v 0.176771998 0.951964259 -0.007752182
v -0.152645737 0.764819562 -0.115362763
v -0.119970359 0.935134053 -0.124718726
v -0.048150145 0.916826427 0.066671066
v 0.178474784 0.951384544 -0.027371759
v -0.120313480 0.561892509 -0.086395219
v -0.134557679 0.758471429 -0.106356695
v -0.112589419 0.604599655 -0.082268760
v -0.163877457 0.903614640 -0.106321670
v 0.165836945 0.941385627 -0.016393702
v -0.156470925 0.770662367 -0.094929405
v 0.035358857 0.646244347 -0.027951380
v -0.095825419 0.569219708 -0.088816881
v -0.174532562 0.756595254 -0.086985275
v 0.165120497 0.944515109 -0.036351368
v -0.161263213 0.888758004 -0.127053529
v 0.161987111 0.946881413 -0.055647783
v -0.190024868 0.775127292 -0.069606654
v -0.120075151 0.610389411 -0.101651646
v 0.185093760 0.715154767 0.060988069
v 0.158767790 0.948490620 -0.075474009
v -0.200593829 0.759397030 -0.053438772
v 0.035330255 0.760363162 -0.087634310
v -0.082799390 0.578313708 -0.073796801
v -0.025933567 0.607303798 -0.028359782
v 0.165542394 0.952951610 -0.093702368
v -0.209708959 0.778059781 -0.048440650
v 0.198242843 0.793451428 0.032630995
v -0.025811825 0.684061229 -0.003531533
v 0.144885302 0.953501880 -0.110744320
v 0.194114998 0.764844179 0.044587746
v -0.064570352 0.777310610 0.060141612
v -0.096152656 0.619992852 -0.078473568
v -0.068626180 0.592648208 -0.057105012
v 0.042847209 0.641164482 -0.051899958
v -0.077830993 0.631067455 -0.087725088
v -0.046304226 0.613628745 -0.062813215
v -0.041806821 0.591781139 -0.049408190
v 0.062858470 0.671963453 -0.078834042
v 0.047329895 0.736736953 -0.090237685
v -0.194773927 0.738034427 0.055518072
v 0.044607554 0.811682224 0.048857279
v 0.032256868 0.789200127 0.036472622
v -0.196260214 0.763833344 0.051901661
v 0.029892311 0.765620589 0.023011321
v -0.033583786 0.788902164 -0.080150403
v 0.092576407 0.714577556 -0.100509301
v -0.173363313 0.778371513 0.064279377
v -0.047526531 0.654826403 -0.067200065
v -0.053960718 0.635262370 -0.063373365
v 0.097850084 0.657274842 -0.088792354
v -0.169090241 0.752561212 0.065147594
v -0.045734428 0.620997071 -0.037411869
v 0.128219053 0.949356675 -0.111533061
v 0.115905426 0.674072742 -0.107083164
v -0.035113029 0.640166640 -0.052862931
v -0.157655939 0.767512500 0.086555853
v -0.032026254 0.675235033 -0.058143318
v 0.130140051 0.958543658 -0.126657501
v -0.036933362 0.654189885 -0.032126397
v 0.107162379 0.628805041 -0.085217230
v -0.190821558 0.587825954 -0.013746364
v -0.201321796 0.570655286 0.010459775
v 0.137424469 0.664886117 -0.110068820
v -0.145072773 0.746020615 0.088756591
v -0.128987566 0.760353029 0.077882670
v 0.117216900 0.724016726 -0.115521990
v -0.085367963 0.846564651 0.066966809
v -0.075462133 0.961674988 0.070651986
v -0.112908520 0.736487389 0.082752801
v 0.142325312 0.712600529 -0.117421553
v -0.101275310 0.760360599 0.080571011
v -0.093751520 0.823149323 0.072281741
v 0.152865261 0.721113801 -0.090113267
v -0.086211532 0.741677463 0.067035735
v 0.126760691 0.874345183 -0.133190662
v -0.076843739 0.801201165 0.065984219
v -0.101903737 0.802151322 0.082533248
v 0.175647587 0.708995581 -0.091207191
v -0.091919526 0.781979740 0.071460232
v 0.169980958 0.644008756 -0.069226764
v 0.185330808 0.658635914 -0.078366503
v -0.081254885 0.762723267 0.066374183
v -0.060904481 0.751283467 0.057594568
v -0.116104543 0.781081080 0.083290562
v -0.028796490 0.777552962 0.024345551
v -0.127528936 0.801082730 0.074601643
v -0.120818354 0.821931720 0.083827615
v 0.182323620 0.702940762 -0.067142852
v 0.195598692 0.668028176 -0.041533470
v -0.064737029 0.823727608 0.064101323
v -0.141650170 0.781216741 0.073254146
v -0.039806448 0.682547569 0.022347067
v -0.143548504 0.820861459 0.066966586
v 0.182598829 0.676697195 -0.061388392
v -0.153365970 0.841401875 0.083208397
v 0.212787390 0.662116408 -0.025591414
v -0.178216934 0.802977920 0.067718469
v 0.214968324 0.711152136 -0.028030843
v -0.163459450 0.790750325 0.085019276
v -0.077390812 0.870171666 0.060554318
v -0.164408401 0.823268116 0.060703237
v 0.207882434 0.616109192 -0.022383304
v -0.073871158 0.913254082 0.082560122
v -0.006787033 0.793982148 -0.064122632
v -0.069774367 0.938066781 0.078824483
v -0.179385275 0.831474006 0.042125896
v -0.203249022 0.774814010 0.025593573
v -0.049077325 0.943354130 0.067086987
v -0.006363338 0.810546041 -0.076932110
v -0.099719435 0.948661804 0.069673181
v -0.210897878 0.762835026 -0.000560861
v 0.084853396 0.839983106 -0.139358371
v 0.133168668 0.923164189 -0.141084641
v -0.200862795 0.842896461 0.004560910
v -0.086798340 0.954546571 0.055610187
v 0.207738876 0.705615997 0.000891223
v 0.112702169 0.955452740 -0.116481699
v -0.194671869 0.901783168 -0.020283140
v 0.206259415 0.722710729 0.020719748
v -0.209402636 0.780382216 -0.022027593
v -0.206621170 0.806762993 -0.019739095
v -0.201507717 0.831904233 -0.021428950
v 0.093454704 0.957439303 -0.120911278
v 0.210699677 0.767138243 0.000722567
v 0.073834695 0.958392918 -0.123085357
v -0.098273739 0.867749572 0.083587728
v -0.022665547 0.887028873 -0.143118352
v 0.195905954 0.711795866 0.040768392
v 0.054250170 0.959257960 -0.124318399
v 0.065837093 0.942075551 -0.134071440
v 0.196014926 0.607585073 0.006848642
v -0.080420747 0.930016220 0.060375951
v -0.027638206 0.864125550 -0.139318377
v -0.198216990 0.800485909 -0.059395231
v -0.187383130 0.906701684 -0.079454117
v -0.108024940 0.843744874 0.085924156
v 0.034403149 0.959665895 -0.124010220
v -0.184134111 0.800732017 -0.082001403
v 0.014277118 0.959165454 -0.121931508
v -0.142908707 0.811571479 -0.106842294
v 0.191757083 0.614809096 0.052033354
v -0.161257192 0.795110047 -0.099002421
v 0.013842675 0.944384873 -0.128216013
v -0.006144038 0.958627403 -0.120942317
v 0.193016380 0.689162314 0.052828409
v 0.182956591 0.662574947 0.059918124
v 0.089729115 0.812155902 -0.107953802
v 0.010743468 0.927240551 0.069506891
v -0.150207952 0.838104904 -0.103082061
v -0.137866586 0.784903467 -0.108023942
v -0.177140504 0.936625600 -0.086217076
v 0.072624929 0.825007737 -0.124142930
v 0.166342288 0.688784659 0.062037062
v -0.159437373 0.789280832 -0.123121165
v -0.057771832 0.577436686 -0.032605376
v -0.122947931 0.803204834 -0.116015181
v -0.046111491 0.567148805 -0.042644136
v -0.065534875 0.564678729 -0.042624366
v -0.128627688 0.784861684 -0.127965137
v 0.140743241 0.674557149 0.070655078
v 0.156059042 0.655044615 0.061710864
v -0.074410193 0.557597220 -0.058420617
v 0.147314027 0.625470638 0.062668361
v -0.134712771 0.852758229 -0.119040921
v 0.037450045 0.919966400 0.075525507
v 0.021692753 0.903682053 0.067640975
v -0.093052179 0.556269467 -0.061832644
v 0.144409001 0.703815877 0.071526989
v -0.123579681 0.828527331 -0.114675447
v 0.124899484 0.711120784 0.081970192
v 0.130442396 0.646342456 0.074130207
v -0.110607758 0.554783344 -0.070089318
v -0.002556734 0.827644706 0.043576542
v -0.003204044 0.814737976 0.027894327
v -0.100406684 0.808293939 -0.112502493
v -0.095035926 0.545873225 -0.075590968
v -0.096418597 0.865632057 -0.143943384
v -0.107211769 0.784583688 -0.113731250
v -0.113054253 0.539881349 -0.078349993
v -0.133304298 0.541211963 -0.076268919
v -0.149997324 0.545357764 -0.066655196
v -0.044680022 0.795082450 0.055956144
v -0.023246650 0.800049424 0.034851320
v 0.070238575 0.679953635 0.056210410
v 0.072499201 0.656069398 0.054910798
v -0.147355169 0.547319949 -0.085685790
v -0.163633689 0.553097010 -0.074925467
v -0.028893620 0.728576541 0.014388682
v 0.050308324 0.672670245 0.052120019
v 0.043255590 0.693360209 0.031543639
v -0.168628439 0.545979500 -0.056811564
v -0.090896316 0.842245102 -0.139389619
v 0.065093979 0.720174491 0.057699032
v -0.180349290 0.542878509 -0.040842142
v -0.041689806 0.708046198 0.038640104
v 0.029358441 0.696391106 0.008112771
v -0.033148333 0.663136840 0.005611019
v -0.113791943 0.845615864 -0.133090049
v 0.031407353 0.645485520 -0.002982574
v -0.051069755 0.679010153 0.048540149
v 0.061848424 0.764608085 0.058966499
v -0.038518447 0.628174663 -0.006948899
v -0.049335685 0.624642730 0.020499852
v -0.070071347 0.875685692 -0.149538562
v -0.089378141 0.888985038 -0.147429705
v -0.063038632 0.725816667 0.056874782
v -0.072328016 0.903651118 -0.148501858
v 0.100675523 0.881244659 -0.143115491
v -0.199910194 0.541596532 -0.037962936
v 0.074391194 0.742535889 0.062833652
v -0.059392095 0.623649359 0.047837447
v -0.091153398 0.717863560 0.067417130
v 0.106029071 0.855741799 -0.138347596
v -0.063016854 0.653460503 0.056023378
v -0.078051113 0.676974237 0.058702946
v -0.086703308 0.890834928 0.082213402
v 0.061506819 0.645816922 -0.069684662
v -0.064639539 0.893913865 0.062086828
v 0.096993908 0.744534194 0.072079957
v -0.087358594 0.656968057 0.060854621
v 0.154407650 0.870681286 -0.137868255
v -0.188823715 0.543998957 -0.023354230
v -0.028987486 0.753058374 0.018209687
v 0.078744151 0.630507529 -0.086324379
v -0.182658315 0.552539825 0.015231212
v -0.128305614 0.684732318 0.076731287
v 0.073336028 0.654248357 -0.087937050
v -0.193222851 0.546025097 0.028470095
v -0.104978763 0.670373321 0.069052711
v 0.108928680 0.726829171 0.082083300
v 0.117230251 0.751457512 0.086654708
v 0.142089933 0.895370364 -0.144145682
v -0.173288196 0.544206262 0.031054115
v -0.117014274 0.710485935 0.077053070
v -0.159415200 0.543996453 0.045809470
v -0.129466847 0.659263015 0.073783562
v -0.142176390 0.545229912 0.054211132
v -0.155131549 0.550556540 0.067376859
v -0.141054705 0.705010533 0.072977193
v -0.152379662 0.668499351 0.085023507
v -0.136764452 0.545433879 0.070702672
v 0.136650264 0.735080659 0.076414272
v -0.157976091 0.691157937 0.082957998
v -0.119955182 0.545661628 0.060117759
v -0.102207460 0.546264350 0.050940603
v 0.128726915 0.616488934 -0.093058065
v -0.161856115 0.713315427 0.081649326
v 0.181721434 0.743539929 0.063236348
v 0.130943209 0.635517478 -0.096242651
v 0.157949537 0.927330613 -0.089503847
v -0.083985761 0.547261477 0.042693365
v -0.147812411 0.645950139 0.085080855
v -0.072831765 0.551221609 0.026551280
v 0.134355575 0.930568576 -0.117393591
v -0.063073277 0.555744767 0.009909921
v -0.052383982 0.561021447 -0.006231787
v 0.196307689 0.735946417 0.042735882
v 0.144264176 0.887946308 -0.119122408
v -0.036378574 0.563979685 -0.015989885
v -0.031483673 0.570080400 0.002835617
v -0.172124729 0.726003408 0.062431794
v -0.028673878 0.589883685 0.005844654
v -0.163847372 0.678321958 0.061181933
v 0.151158676 0.627055049 -0.089975908
v 0.151373893 0.861326516 -0.111149237
v 0.207520694 0.748901248 0.021512445
v -0.192614838 0.711619735 0.056290157
v -0.184901327 0.660207033 0.053923279
v -0.190126792 0.685969889 0.054911971
v -0.036283009 0.756670535 -0.089260869
v 0.137439907 0.616647482 -0.074385203
v 0.209913373 0.765156984 -0.024957839
v 0.152646318 0.907998562 -0.105967246
v 0.011653445 0.810976028 -0.080718994
v -0.054507297 0.775419116 -0.100423232
v 0.060738802 0.757292330 -0.097902067
v -0.041945610 0.737808287 0.039976567
v 0.209959269 0.736747801 -0.007295328
v -0.195949107 0.672689736 0.029749170
v -0.208715886 0.716526568 0.012282356
v -0.184815958 0.810750961 0.044451188
v 0.163184613 0.620209932 -0.066444941
v -0.202176452 0.662280619 0.002919921
v 0.122690223 0.920819581 0.065767907
v 0.212807849 0.740336239 -0.037786517
v -0.206070542 0.689519405 0.005044808
v -0.219139576 0.706856132 -0.014183084
v -0.214398146 0.724271894 -0.035436220
v 0.182280332 0.605234623 -0.074944414
v 0.197210580 0.721626043 -0.050987549
v -0.218442008 0.647926450 -0.014524641
v -0.206936926 0.817310333 0.003354923
v 0.161403447 0.883265138 -0.099213950
v -0.035769802 0.959668458 0.079857670
v 0.194936171 0.748697698 -0.059977151
v 0.185208648 0.757875919 -0.086025283
v -0.097781710 0.823922932 -0.129715592
v -0.072686329 0.829836011 -0.129485980
v 0.189378515 0.631091893 -0.071533471
v -0.219165966 0.676843166 -0.023181794
v 0.173968345 0.594292760 -0.053539116
v 0.182683259 0.729406297 -0.072602078
v -0.026391020 0.959491551 -0.123955108
v -0.046674136 0.958931327 -0.124673605
v 0.180552214 0.864538193 -0.103756562
v 0.019695139 0.787737489 0.012685047
v -0.066915266 0.957570553 -0.124634005
v -0.041196894 0.765064538 0.045923464
v 0.173689276 0.733437657 -0.093956478
v 0.156619728 0.748844504 -0.093254425
v -0.087000147 0.955484509 -0.123800680
v 0.183333114 0.889773011 -0.090661116
v -0.198682040 0.654467225 -0.032851387
v -0.100915350 0.961188912 -0.137131169
v -0.107927538 0.936202407 -0.142760903
v -0.210553482 0.821421027 -0.045590892
v -0.105645262 0.955472589 -0.119598351
v -0.125160888 0.958926797 -0.118310116
v 0.133551300 0.734921575 -0.102188304
v -0.190212041 0.719103336 -0.060504336
v -0.189797789 0.827383816 -0.068723515
v -0.178988710 0.845372796 -0.091424279
v -0.193423688 0.674519956 -0.047306359
v 0.175219804 0.869045556 -0.074284092
v 0.165949047 0.927399039 -0.070963860
v -0.178128392 0.608171701 -0.051312786
v 0.040636726 0.765182436 0.045674782
v 0.139618233 0.735962212 -0.126589075
v -0.073425800 0.806775928 -0.124562956
v -0.172155783 0.732117593 -0.083365642
v 0.171455175 0.918907523 -0.050739624
v -0.089392610 0.790134311 -0.121576749
v -0.171957240 0.600686073 -0.077633262
v 0.121406183 0.747975886 -0.116687223
v -0.177718639 0.667997718 -0.073046058
v -0.144942731 0.666778326 -0.082555726
v 0.171327487 0.911904693 -0.026906719
v -0.165328592 0.685423255 -0.082231835
v -0.147511125 0.719953537 -0.092999414
v 0.202300385 0.872302711 -0.032309726
v -0.137946531 0.639298499 -0.079367563
v -0.030601934 0.680767417 -0.030780619
v 0.074978098 0.736905158 -0.099598981
v -0.144414753 0.960406125 -0.116585776
v -0.133107439 0.954592109 -0.103816330
v -0.127764195 0.733641267 -0.104540087
v -0.122804068 0.707562864 -0.100390233
v -0.120571077 0.680915117 -0.094471999
v -0.119053043 0.654682100 -0.089161329
v -0.148760065 0.836781681 -0.129875585
v 0.069371238 0.809853196 0.061072446
v 0.183438510 0.620360076 -0.045801926
v -0.167577103 0.961797535 -0.085588478
v -0.154273659 0.952318013 -0.075364798
v 0.195997179 0.642297983 -0.032397117
v -0.009604419 0.577297211 -0.008370715
v -0.158469886 0.953763843 -0.055901371
v 0.201462299 0.880273342 -0.002904686
v -0.161169857 0.954106629 -0.036036439
v -0.160780713 0.953063190 -0.016319249
v -0.175085589 0.958454609 -0.005940893
v 0.208564043 0.765599549 -0.049600951
v 0.183621690 0.927417159 -0.032706231
v -0.156537011 0.954405665 0.000588116
v -0.144420475 0.949705303 0.015445402
v -0.131714121 0.946456432 0.029894998
v 0.051238142 0.803400517 -0.096411481
v -0.137495056 0.930935085 0.036055982
v 0.184480712 0.923035026 -0.010127952
v -0.137851417 0.944510460 0.047277324
v -0.129109204 0.635750413 -0.102283515
v 0.183380276 0.866455674 0.013574393
v 0.015310265 0.731463850 -0.040894032
v -0.008791386 0.716971755 -0.030407405
v -0.008276810 0.736972511 -0.036700774
v 0.154329374 0.931834221 -0.108770505
v -0.135319427 0.662117124 -0.105895698
v -0.007820958 0.756565452 -0.044414110
v -0.143755570 0.715084493 -0.117218696
v 0.013240916 0.753929079 -0.048150592
v -0.007698129 0.775595069 -0.053644795
v -0.150531664 0.946963489 0.059674006
v 0.139919430 0.766040981 -0.104222968
v 0.161524206 0.920242906 -0.001823400
v -0.108027063 0.651906848 -0.110556282
v -0.132234007 0.943044484 0.063657410
v -0.114996552 0.949843228 0.056732368
v 0.147256419 0.901398063 0.020241546
v 0.048060380 0.870623410 -0.145756453
v -0.139540702 0.688696623 -0.111530982
v -0.118643984 0.734876096 -0.128426343
v 0.147614881 0.925853372 0.016521132
v -0.112435877 0.677577794 -0.117566243
v 0.175299823 0.857892513 0.038152121
v -0.098262332 0.670921981 -0.093326733
v -0.005569255 0.762519777 -0.000137991
v -0.103680111 0.926486373 0.059360962
v 0.143253297 0.926191449 0.052428015
v 0.143674418 0.903768361 0.052968942
v 0.135654077 0.918217838 0.034906402
v -0.076021947 0.658393919 -0.092974722
v -0.098861530 0.696023166 -0.099479772
v -0.072234914 0.684892476 -0.095279820
v 0.043407273 0.651533604 0.019068956
v -0.100543715 0.720848441 -0.104981124
v 0.053540446 0.921358228 -0.142148659
v -0.072296277 0.710345507 -0.093006179
v 0.024474073 0.910369515 -0.139662459
v -0.049377982 0.859001935 -0.143308729
v -0.047337774 0.889638424 -0.146101817
v 0.197790369 0.632536948 0.001013196
v 0.197995141 0.643139958 0.046032514
v -0.040885706 0.701224685 -0.080182508
v -0.048500508 0.729496837 -0.092563182
v -0.147882447 0.958691716 -0.091078088
v 0.156634301 0.866220474 0.048316192
v 0.150274128 0.873120964 0.072074965
v -0.187141314 0.565472960 -0.015507223
v 0.164955810 0.604719460 0.051698316
v 0.172374830 0.634588182 0.052227288
v -0.184380248 0.548206508 -0.004285672
v 0.124821499 0.889028192 0.072504207
v -0.048561972 0.598691583 -0.022845935
v -0.040059209 0.580779672 -0.031937979
v 0.015601350 0.623904884 0.007849142
v -0.023439957 0.574779928 -0.022263512
v -0.011429442 0.953216553 0.097884275
v 0.072820351 0.909975171 -0.147175521
v -0.015596827 0.960283101 0.079363108
v -0.026982430 0.611376643 -0.007426247
v 0.120342657 0.618552506 0.071545824
v 0.031394325 0.941451073 0.069256365
v 0.059332602 0.576383650 0.049141504
v 0.049063891 0.594867587 0.037671261
v 0.088615440 0.587266564 0.052783109
v 0.050776023 0.841703296 -0.137271211
v 0.112731121 0.590450406 0.065949447
v 0.052240424 0.605787933 0.017674344
v 0.188763559 0.582506835 0.011485430
v 0.132398874 0.856993556 0.058486629
v 0.117850125 0.878447175 0.049251515
v 0.174999833 0.894120514 -0.000894042
v 0.094565362 0.613082588 0.059381228
v 0.201106578 0.902849078 -0.026241746
v 0.178533882 0.886618972 -0.043625690
v 0.054128878 0.936142147 0.066261724
v 0.072390951 0.630003810 0.051817071
v 0.099490978 0.643103957 0.065150134
v 0.171793520 0.898734272 -0.069646776
v 0.178853020 0.918415070 -0.087260060
v 0.069941208 0.603930831 0.046986587
v 0.164523587 0.903867841 -0.089283213
v 0.174158067 0.579842627 -0.077570826
v 0.150697872 0.592904687 -0.066170409
v 0.046605080 0.645228326 0.045740452
v 0.146704152 0.597152650 -0.097489312
v 0.149869353 0.913157284 -0.126473665
v 0.047388937 0.618194461 0.042851042
v 0.104330920 0.698387623 0.071693450
v 0.140035391 0.595527709 0.062191971
v 0.185105637 0.586520076 0.055934180
v 0.182796970 0.599150360 0.031517595
v 0.196132973 0.695234239 -0.047175981
v 0.132258400 0.705160499 -0.095955700
v 0.046871610 0.629382610 0.018052895
v 0.141678840 0.687677681 -0.111281171
v 0.199221417 0.597075224 -0.040636711
v 0.191651121 0.592534304 -0.014369512
v 0.034884907 0.671662092 0.011640639
v 0.013042894 0.698902071 -0.007683030
v 0.097690217 0.889249980 0.053725429
v 0.076231420 0.931006908 0.061374582
v 0.018727183 0.721162796 -0.000711968
v 0.042509846 0.833975196 0.039965212
v 0.024017304 0.812814236 0.023016421
v 0.019448875 0.625524461 -0.014362144
v 0.059029840 0.911169827 0.064865753
v 0.035161085 0.667752385 -0.042162396
v 0.033302303 0.884492278 0.065144405
v 0.046992831 0.895566642 0.077476457
v 0.010787789 0.882274270 0.065726101
v 0.031617999 0.598667860 -0.019956885
v 0.041200880 0.666629553 -0.067336589
v 0.074729815 0.785684407 0.065087445
v 0.201284617 0.695185542 0.026826387
v 0.191564649 0.810409665 -0.068913087
v 0.054926716 0.592664599 -0.037097886
v 0.153560385 0.693631232 -0.083489418
v 0.134073734 0.788459182 -0.126088068
v 0.115762375 0.699214637 -0.113076195
v 0.078541160 0.585495830 -0.059516281
v 0.035561986 0.715122998 -0.077942677
v 0.034676246 0.785592735 -0.083719507
v 0.117769636 0.601301551 -0.078033499
v 0.101036847 0.577861905 -0.080620453
v 0.113048926 0.928081512 -0.130146518
v 0.081292540 0.906197548 0.060928822
v 0.068958163 0.879340053 0.060937196
v 0.130837053 0.577906430 -0.070836470
v 0.026514187 0.863949895 0.061506581
v 0.050767951 0.856515706 0.054757513
v 0.088360965 0.932058811 -0.137132123
v 0.157742128 0.570533633 -0.089878924
v 0.163151652 0.774418354 -0.095085502
v 0.021644186 0.836539090 -0.122119270
v 0.151678666 0.638065577 -0.073932849
v 0.152877495 0.564954937 -0.062952399
v 0.016885344 0.709301114 -0.034041964
v 0.173846602 0.557091117 -0.074559979
v 0.032685019 0.810397625 -0.086594157
v 0.171662554 0.566877007 -0.050118960
v 0.182388037 0.582190156 -0.035223536
v 0.051192753 0.741922438 0.053481482
v 0.119478785 0.900885224 -0.134919003
v 0.096723571 0.907606244 -0.143873066
v 0.018553404 0.792892098 -0.067026541
v 0.202171728 0.572978497 -0.025557244
v 0.122046173 0.655716062 -0.092089817
v 0.211941361 0.641023397 -0.015275896
v 0.190254480 0.625789762 0.026811829
v 0.134530231 0.646107256 -0.080431797
v 0.148500860 0.652045429 -0.095974967
v 0.176121622 0.570026398 0.035138723
v 0.164327905 0.852532089 0.062912919
v 0.205656558 0.851904392 0.011245782
v 0.183903962 0.649273634 -0.054141767
v 0.044917565 0.620287061 -0.032218784
v 0.157872155 0.571664691 0.050742865
v 0.083692648 0.764206886 0.067915887
v 0.201603219 0.658273101 -0.004531242
v 0.201435015 0.650081396 0.019885158
v 0.080553114 0.673150182 -0.092613444
v 0.132069528 0.565015018 0.062527515
v 0.133792609 0.845784068 -0.138239220
v -0.005009802 0.782494068 0.005142039
v -0.004893778 0.681776047 -0.004175856
v 0.047586910 0.667597055 0.031328142
v 0.104717791 0.565930843 0.056832097
v 0.164101630 0.848316669 -0.125765413
v -0.006141156 0.742370307 -0.004746921
v -0.003874245 0.801999748 0.011863409
v 0.081840537 0.565448999 0.046137113
v 0.024582807 0.842395425 0.058936398
v -0.002408415 0.841564357 0.058362078
v 0.122024991 0.902426362 0.043483328
v 0.062606260 0.584165692 0.024079368
v 0.121124804 0.929401994 0.042144090
v 0.186910138 0.565299451 -0.007895027
v 0.103356913 0.765525937 0.076034531
v 0.036590856 0.936241984 -0.135155201
v 0.047426365 0.588450015 -0.001483422
v 0.074006215 0.887082577 -0.148559421
v 0.024258066 0.598615170 0.017416561
v 0.039260544 0.615574241 -0.003339704
v 0.043006487 0.818731606 -0.115384176
v 0.017510079 0.826954663 0.042263348
v 0.019351803 0.672022104 -0.007612098
v -0.004123777 0.663653851 -0.009808978
v -0.005969451 0.721967101 -0.007926401
v 0.183574632 0.563188970 -0.027484467
v -0.005320008 0.701601386 -0.009184680
v 0.063003018 0.615382731 -0.061091870
v 0.086599521 0.760990679 -0.105659708
v 0.112554111 0.771509409 -0.114145301
v 0.157039151 0.754202127 0.069472358
v 0.088885918 0.721572161 0.067298867
v 0.161358431 0.724317431 0.066612460
v 0.087077811 0.603583276 -0.083334982
v 0.184313148 0.558679700 0.014295327
f 555 540 123
f 389 162 497
f 567 540 568
f 583 104 251
f 463 489 430
f 453 94 255
f 483 484 162
f 446 640 671
f 574 577 251
f 50 244 238
f 52 244 50
f 575 57 53
f 55 249 52
f 55 2 250
f 577 248 563
f 575 437 432
f 57 597 589
f 2 265 262
f 589 592 57
f 262 259 2
f 5 267 262
f 602 606 589
f 5 9 11
f 58 606 610
f 11 272 5
f 12 278 11
f 565 793 8
f 630 60 632
f 13 425 12
f 424 289 160
f 289 424 13
f 643 649 60
f 181 403 179
f 483 206 484
f 163 651 174
f 53 563 558
f 651 65 650
f 163 389 384
f 683 66 65
f 455 558 563
f 165 384 171
f 340 331 34
f 67 66 683
f 206 470 63
f 385 102 856
f 67 702 70
f 344 340 696
f 179 403 406
f 710 70 702
f 16 352 14
f 111 112 59
f 63 64 655
f 18 368 16
f 710 742 753
f 119 112 111
f 394 671 545
f 551 922 903
f 19 375 18
f 753 740 711
f 406 470 179
f 261 615 108
f 545 453 439
f 178 386 530
f 24 386 23
f 72 753 742
f 26 396 24
f 768 765 72
f 119 142 112
f 32 63 470
f 112 142 161
f 399 400 396
f 154 343 182
f 545 671 448
f 399 415 400
f 768 770 765
f 32 406 410
f 418 415 399
f 770 183 777
f 387 300 166
f 415 418 422
f 105 86 299
f 169 42 839
f 170 142 119
f 173 172 705
f 329 638 343
f 134 738 737
f 185 638 329
f 692 661 145
f 150 74 741
f 637 345 873
f 132 145 661
f 170 184 142
f 138 495 760
f 138 136 188
f 136 194 188
f 201 87 194
f 270 87 205
f 216 49 210
f 46 216 724
f 198 184 170
f 43 96 907
f 219 39 218
f 45 43 41
f 224 37 219
f 498 224 514
f 86 105 342
f 225 36 514
f 378 107 110
f 80 233 107
f 22 41 43
f 198 217 849
f 41 581 45
f 103 233 76
f 76 40 103
f 222 217 214
f 678 100 40
f 98 41 22
f 366 41 98
f 40 76 678
f 215 4 284
f 215 98 21
f 537 536 92
f 222 234 217
f 904 537 92
f 460 462 30
f 284 471 366
f 222 239 246
f 586 903 759
f 462 28 30
f 246 234 222
f 454 449 28
f 237 391 924
f 560 319 921
f 246 888 252
f 431 471 282
f 455 560 391
f 319 560 241
f 50 238 793
f 50 566 52
f 52 574 55
f 258 263 510
f 244 52 249
f 55 253 2
f 284 792 657
f 303 670 667
f 303 100 674
f 250 249 55
f 273 274 252
f 251 253 574
f 100 303 301
f 301 570 100
f 104 261 257
f 677 100 678
f 273 285 274
f 257 2 253
f 2 257 265
f 250 2 259
f 570 568 40
f 752 292 293
f 294 296 285
f 285 296 274
f 684 497 679
f 277 274 296
f 440 447 442
f 579 489 463
f 692 329 695
f 259 262 267
f 871 736 360
f 262 271 9
f 40 100 570
f 570 567 568
f 203 128 270
f 310 296 294
f 305 296 310
f 87 270 194
f 9 5 262
f 5 272 600
f 276 9 271
f 9 276 11
f 272 11 278
f 302 323 310
f 568 103 40
f 108 615 89
f 280 11 276
f 11 280 12
f 103 568 540
f 278 12 425
f 323 337 328
f 283 12 280
f 12 283 13
f 283 297 289
f 289 13 283
f 540 561 231
f 425 13 424
f 209 288 205
f 291 125 286
f 346 337 323
f 49 304 288
f 173 350 351
f 297 654 314
f 347 158 864
f 304 47 311
f 47 304 49
f 47 46 481
f 360 361 855
f 501 684 146
f 481 311 47
f 46 39 481
f 343 695 329
f 314 289 297
f 289 314 160
f 481 321 308
f 481 39 321
f 325 122 321
f 325 321 37
f 37 321 39
f 333 160 314
f 324 266 333
f 527 107 231
f 84 121 325
f 36 327 498
f 160 333 34
f 327 120 84
f 36 82 371
f 277 393 390
f 689 34 333
f 34 689 340
f 313 34 331
f 266 334 689
f 334 260 341
f 340 335 331
f 107 527 110
f 54 404 405
f 696 14 344
f 61 401 44
f 38 299 407
f 358 14 348
f 14 358 16
f 344 14 352
f 356 704 712
f 352 16 368
f 413 62 417
f 370 16 358
f 16 370 18
f 175 705 134
f 713 115 110
f 371 27 378
f 27 371 82
f 381 18 370
f 18 381 19
f 368 18 375
f 80 378 27
f 19 381 235
f 19 395 23
f 19 23 178
f 202 506 913
f 23 395 24
f 386 24 396
f 398 24 395
f 24 398 26
f 26 398 220
f 26 412 399
f 396 26 399
f 418 399 412
f 164 180 444
f 444 443 164
f 175 173 705
f 685 84 120
f 422 300 415
f 685 121 84
f 172 169 300
f 172 300 422
f 78 80 27
f 226 365 78
f 89 615 114
f 240 485 309
f 134 737 175
f 226 27 82
f 245 459 452
f 187 186 140
f 243 459 245
f 189 187 130
f 581 466 579
f 467 472 637
f 308 122 240
f 138 579 466
f 430 255 463
f 499 435 430
f 453 430 435
f 435 440 439
f 435 499 450
f 243 479 281
f 308 321 122
f 897 438 584
f 439 453 435
f 243 281 893
f 450 440 435
f 480 859 865
f 440 449 447
f 442 439 440
f 450 449 440
f 447 449 454
f 492 488 493
f 127 458 456
f 449 456 28
f 82 225 708
f 454 28 462
f 28 456 30
f 456 450 127
f 30 456 458
f 225 82 36
f 30 464 460
f 506 507 502
f 126 469 125
f 287 508 509
f 207 507 506
f 410 460 32
f 126 306 477
f 460 464 644
f 644 32 460
f 32 644 63
f 475 31 576
f 470 406 32
f 64 63 644
f 306 309 477
f 125 464 458
f 528 795 511
f 516 523 524
f 655 206 63
f 206 655 484
f 206 474 470
f 162 679 497
f 316 322 822
f 313 160 34
f 37 498 325
f 523 316 534
f 497 684 501
f 501 146 505
f 146 512 503
f 505 503 513
f 263 515 510
f 512 120 115
f 503 512 91
f 517 513 503
f 115 713 91
f 458 203 125
f 315 547 548
f 91 512 115
f 547 330 336
f 91 713 88
f 517 88 522
f 552 548 547
f 532 88 713
f 88 532 519
f 552 336 553
f 522 519 541
f 527 231 561
f 127 128 458
f 538 660 692
f 514 36 498
f 224 498 37
f 538 692 695
f 114 626 631
f 553 342 105
f 219 37 39
f 555 660 561
f 127 450 499
f 891 199 824
f 660 555 661
f 218 39 46
f 199 97 886
f 366 98 284
f 22 21 98
f 41 366 581
f 43 232 22
f 907 232 43
f 96 536 907
f 45 463 255
f 45 581 463
f 255 94 96
f 255 96 45
f 94 453 545
f 448 546 545
f 582 593 594
f 595 584 438
f 216 46 47
f 216 47 49
f 551 640 558
f 558 640 569
f 49 288 209
f 793 565 50
f 569 53 558
f 566 50 565
f 209 210 49
f 841 351 350
f 574 52 566
f 578 53 57
f 612 609 423
f 53 578 563
f 575 53 569
f 597 432 211
f 253 55 574
f 57 575 597
f 578 57 592
f 592 583 578
f 627 609 612
f 584 621 628
f 603 589 606
f 602 589 597
f 634 819 627
f 610 606 602
f 835 318 229
f 626 606 58
f 610 624 58
f 58 624 630
f 632 58 630
f 634 884 869
f 58 632 626
f 60 642 632
f 642 60 649
f 60 630 181
f 650 649 643
f 662 652 645
f 656 628 621
f 621 636 656
f 658 659 204
f 64 644 469
f 466 495 138
f 694 377 700
f 468 471 431
f 663 650 65
f 628 656 668
f 679 162 484
f 65 686 663
f 672 673 659
f 686 65 66
f 683 65 651
f 468 431 478
f 683 693 67
f 685 146 684
f 146 685 512
f 696 340 689
f 66 67 701
f 473 495 478
f 66 698 686
f 702 67 693
f 668 675 687
f 701 698 66
f 405 690 54
f 701 67 70
f 54 690 564
f 14 696 348
f 711 70 710
f 699 70 711
f 702 709 710
f 229 318 236
f 657 282 471
f 710 709 742
f 753 756 740
f 756 753 72
f 742 754 72
f 72 754 768
f 72 765 756
f 766 765 770
f 490 193 496
f 130 772 496
f 770 776 766
f 15 719 168
f 87 201 148
f 183 770 768
f 201 194 136
f 422 705 172
f 633 777 338
f 777 633 150
f 408 74 633
f 638 185 408
f 106 730 258
f 688 379 694
f 275 631 118
f 185 692 145
f 197 750 749
f 736 737 738
f 263 258 730
f 738 741 743
f 185 145 143
f 743 741 744
f 744 741 74
f 744 467 879
f 132 140 145
f 123 132 661
f 741 738 150
f 123 540 567
f 773 772 567
f 738 134 150
f 78 27 226
f 238 623 1
f 264 279 779
f 776 150 134
f 134 705 420
f 695 541 538
f 104 599 261
f 365 681 680
f 761 762 763
f 365 678 76
f 76 78 365
f 411 156 420
f 156 411 220
f 541 519 538
f 220 764 156
f 76 233 78
f 80 78 233
f 168 789 387
f 70 699 701
f 398 395 228
f 434 437 445
f 779 780 887
f 428 432 434
f 926 317 706
f 197 749 745
f 213 6 4
f 279 785 780
f 419 427 428
f 148 201 745
f 454 462 419
f 526 782 783
f 381 734 235
f 410 414 419
f 493 769 913
f 511 4 215
f 4 511 213
f 406 414 410
f 208 731 729
f 21 511 215
f 210 728 727
f 794 800 823
f 511 21 529
f 470 474 179
f 724 218 46
f 227 110 115
f 118 280 275
f 219 218 722
f 806 800 794
f 803 804 256
f 716 778 225
f 224 219 720
f 407 86 690
f 356 734 381
f 389 497 380
f 809 795 528
f 810 806 811
f 717 716 514
f 497 501 380
f 317 697 429
f 810 818 821
f 913 771 202
f 341 698 699
f 373 376 159
f 369 177 373
f 341 260 698
f 260 334 266
f 365 226 681
f 517 522 354
f 828 821 818
f 354 362 364
f 569 640 446
f 519 522 88
f 767 828 818
f 266 324 676
f 602 597 211
f 804 834 256
f 121 240 122
f 345 868 918
f 610 602 211
f 169 839 166
f 427 195 211
f 643 179 174
f 683 651 165
f 693 683 171
f 627 884 634
f 324 654 676
f 846 397 841
f 841 397 374
f 362 709 369
f 580 397 846
f 192 188 190
f 192 499 489
f 128 192 190
f 270 205 203
f 205 288 286
f 291 306 126
f 208 148 733
f 288 304 291
f 304 311 306
f 311 481 308
f 286 125 203
f 283 118 297
f 589 599 592
f 283 280 118
f 227 115 120
f 747 805 732
f 707 226 82
f 107 378 80
f 275 114 631
f 118 646 297
f 89 114 275
f 231 233 103
f 87 209 205
f 816 872 870
f 271 108 89
f 248 560 455
f 248 241 560
f 108 271 265
f 566 565 241
f 86 876 690
f 622 244 619
f 517 91 88
f 574 566 248
f 715 662 889
f 244 249 618
f 249 250 614
f 882 465 718
f 253 251 257
f 774 465 882
f 250 259 608
f 883 494 774
f 921 391 560
f 259 267 604
f 54 564 847
f 251 577 583
f 600 267 5
f 89 276 271
f 503 91 517
f 690 405 407
f 275 276 89
f 892 573 582
f 272 278 596
f 248 577 574
f 280 276 275
f 425 588 591
f 425 424 781
f 781 313 572
f 424 313 781
f 572 585 781
f 314 654 324
f 136 197 201
f 313 557 572
f 237 551 558
f 554 331 335
f 334 341 348
f 760 136 138
f 335 344 549
f 341 699 704
f 348 696 334
f 921 319 7
f 358 348 704
f 344 352 544
f 912 582 594
f 903 586 551
f 352 368 543
f 381 370 356
f 368 375 539
f 788 8 3
f 535 375 178
f 221 795 809
f 828 767 562
f 559 833 920
f 921 920 899
f 546 448 898
f 903 922 836
f 38 903 299
f 235 228 395
f 405 669 407
f 546 92 94
f 400 518 520
f 92 546 904
f 639 35 926
f 386 396 525
f 927 926 33
f 928 605 930
f 200 490 298
f 94 545 546
f 96 92 536
f 927 56 852
f 143 472 408
f 220 412 26
f 400 520 521
f 412 220 411
f 109 113 152
f 920 832 559
f 418 412 411
f 152 113 746
f 387 789 786
f 420 418 411
f 746 161 867
f 418 420 422
f 490 773 298
f 496 772 773
f 394 442 445
f 562 767 832
f 739 636 820
f 204 725 658
f 773 490 496
f 725 223 635
f 447 454 428
f 472 186 637
f 215 284 98
f 189 130 496
f 458 464 30
f 410 462 460
f 125 469 464
f 635 247 487
f 487 269 629
f 641 487 629
f 268 269 487
f 269 393 629
f 390 269 268
f 469 126 64
f 349 761 763
f 655 64 477
f 303 674 670
f 290 393 277
f 611 290 928
f 163 474 483
f 928 307 605
f 635 641 648
f 531 605 533
f 677 674 100
f 477 309 485
f 506 202 207
f 679 485 240
f 240 121 684
f 312 912 594
f 684 679 240
f 121 685 684
f 186 187 345
f 503 505 146
f 912 332 892
f 772 130 132
f 685 120 512
f 501 505 159
f 725 648 658
f 505 513 373
f 513 517 364
f 892 847 564
f 110 527 713
f 714 847 339
f 522 541 154
f 51 714 346
f 231 103 540
f 714 51 404
f 541 695 343
f 567 772 123
f 502 500 506
f 578 577 563
f 867 659 673
f 577 578 583
f 597 575 432
f 592 104 583
f 913 492 493
f 845 167 839
f 599 104 592
f 386 178 23
f 599 603 615
f 110 227 378
f 615 261 599
f 706 402 639
f 603 626 114
f 132 123 772
f 624 610 195
f 409 706 317
f 746 673 682
f 114 615 603
f 120 327 227
f 624 414 403
f 691 429 697
f 642 631 632
f 642 118 631
f 429 433 853
f 646 118 642
f 642 649 646
f 152 682 691
f 682 433 691
f 181 643 60
f 654 297 646
f 122 325 121
f 140 130 187
f 421 416 617
f 123 661 555
f 309 308 240
f 698 260 686
f 702 693 177
f 698 701 699
f 672 441 436
f 291 126 125
f 109 691 697
f 143 140 186
f 874 872 816
f 665 441 672
f 188 192 489
f 665 658 653
f 712 704 699
f 653 451 665
f 927 697 317
f 712 740 734
f 648 461 653
f 178 375 19
f 923 880 116
f 641 461 648
f 740 756 748
f 748 758 228
f 926 706 639
f 479 641 482
f 754 742 362
f 354 754 362
f 407 669 38
f 203 458 128
f 482 629 620
f 756 765 758
f 182 754 154
f 128 127 192
f 254 246 252
f 611 382 620
f 764 398 228
f 499 192 127
f 764 766 156
f 766 776 156
f 930 611 928
f 420 156 776
f 140 132 130
f 788 7 8
f 387 166 168
f 420 776 134
f 136 760 197
f 300 387 415
f 750 197 760
f 745 201 197
f 148 208 209
f 733 148 745
f 258 35 106
f 593 533 605
f 731 208 733
f 236 318 910
f 729 210 208
f 728 210 729
f 727 216 210
f 188 489 579
f 929 573 556
f 724 216 727
f 573 929 582
f 723 218 724
f 722 218 723
f 720 219 722
f 717 224 720
f 514 224 717
f 188 579 138
f 876 556 573
f 707 681 226
f 898 904 546
f 472 143 186
f 212 795 221
f 899 391 921
f 854 925 931
f 213 795 212
f 140 143 145
f 404 54 714
f 833 922 924
f 415 387 786
f 143 408 185
f 238 3 793
f 1 3 238
f 31 799 752
f 622 238 244
f 918 799 515
f 380 376 171
f 915 752 357
f 617 476 421
f 619 244 618
f 618 249 616
f 616 249 614
f 636 739 613
f 388 613 10
f 614 250 608
f 357 791 915
f 383 688 388
f 608 259 607
f 571 438 576
f 295 667 666
f 92 96 94
f 607 259 604
f 372 726 700
f 667 295 303
f 367 726 372
f 604 267 601
f 298 295 207
f 923 875 880
f 363 732 367
f 408 467 74
f 148 209 87
f 298 301 295
f 359 747 363
f 601 267 600
f 359 355 755
f 600 272 598
f 598 272 596
f 353 755 355
f 301 298 773
f 596 278 591
f 747 755 751
f 591 278 425
f 588 425 781
f 388 688 813
f 769 771 913
f 763 353 349
f 202 771 200
f 506 500 913
f 74 467 744
f 773 570 301
f 82 708 707
f 320 647 326
f 500 492 913
f 331 554 557
f 242 910 320
f 344 335 340
f 910 908 647
f 554 335 550
f 239 222 703
f 549 550 335
f 549 344 544
f 166 167 168
f 544 352 543
f 543 368 542
f 17 15 167
f 17 845 157
f 907 536 919
f 157 850 155
f 155 850 153
f 542 368 539
f 150 633 74
f 153 854 151
f 151 854 149
f 149 858 147
f 147 862 144
f 539 375 535
f 759 903 38
f 530 535 178
f 144 862 141
f 141 866 139
f 139 866 137
f 530 386 525
f 137 870 135
f 525 396 521
f 135 870 872
f 133 872 131
f 131 874 129
f 129 923 117
f 923 874 875
f 170 119 902
f 521 396 400
f 20 932 101
f 99 101 932
f 99 886 97
f 95 97 199
f 95 891 93
f 93 896 90
f 518 400 786
f 90 896 85
f 85 901 83
f 83 905 81
f 169 166 300
f 81 905 79
f 77 79 796
f 77 909 75
f 439 394 545
f 75 914 73
f 73 914 71
f 71 916 69
f 442 394 439
f 468 466 366
f 442 447 434
f 7 562 920
f 794 534 811
f 924 899 833
f 434 447 428
f 428 454 419
f 419 462 410
f 38 898 759
f 902 111 897
f 466 468 495
f 526 524 534
f 25 59 56
f 96 43 45
f 895 401 61
f 182 343 338
f 483 389 163
f 483 162 389
f 897 59 25
f 883 894 775
f 776 777 150
f 59 897 111
f 380 384 389
f 774 882 893
f 111 902 119
f 778 708 225
f 501 159 380
f 167 166 839
f 159 505 373
f 176 191 867
f 373 513 369
f 364 369 513
f 850 890 925
f 354 364 517
f 354 522 154
f 177 369 709
f 154 541 343
f 446 445 437
f 376 380 159
f 204 223 725
f 217 198 214
f 214 703 222
f 437 569 446
f 610 211 195
f 414 624 195
f 403 630 624
f 889 718 715
f 160 313 424
f 181 630 403
f 888 246 239
f 179 643 181
f 174 650 643
f 651 650 174
f 163 384 165
f 487 247 268
f 165 651 163
f 171 683 165
f 174 474 163
f 557 313 331
f 475 515 799
f 376 693 171
f 285 273 757
f 177 693 376
f 627 885 884
f 174 179 474
f 509 508 516
f 294 302 310
f 709 702 177
f 709 362 742
f 154 754 354
f 182 338 183
f 780 785 803
f 183 768 182
f 423 413 881
f 183 338 777
f 638 338 343
f 633 638 408
f 590 401 895
f 692 185 329
f 190 188 194
f 515 475 25
f 270 190 194
f 190 270 128
f 195 427 414
f 7 788 562
f 915 878 571
f 877 595 438
f 203 205 286
f 44 48 61
f 474 206 483
f 210 209 208
f 61 62 895
f 413 895 62
f 211 432 427
f 172 42 169
f 398 764 220
f 515 263 918
f 437 575 569
f 228 758 764
f 124 885 426
f 175 871 350
f 84 498 327
f 225 514 716
f 327 371 227
f 918 263 730
f 898 448 759
f 371 327 36
f 839 374 890
f 227 371 378
f 451 441 665
f 228 235 748
f 444 180 457
f 233 231 107
f 187 868 345
f 759 448 586
f 189 292 868
f 734 748 235
f 653 461 826
f 924 922 237
f 292 193 196
f 446 671 394
f 461 641 479
f 922 551 237
f 391 237 455
f 482 641 629
f 918 868 799
f 196 200 293
f 771 293 200
f 558 455 237
f 281 287 894
f 894 893 281
f 248 566 241
f 257 251 104
f 255 430 453
f 257 261 265
f 509 775 287
f 260 266 676
f 509 516 524
f 265 261 108
f 523 516 531
f 322 316 523
f 273 252 888
f 265 271 262
f 811 534 316
f 316 315 811
f 676 686 260
f 366 466 581
f 478 495 468
f 330 547 315
f 547 336 552
f 366 471 468
f 760 495 473
f 657 471 284
f 336 342 553
f 553 900 552
f 832 900 553
f 865 878 791
f 792 284 4
f 31 571 576
f 286 288 291
f 438 571 877
f 906 864 863
f 4 790 792
f 8 7 319
f 303 295 301
f 291 304 306
f 570 773 567
f 739 617 392
f 617 416 392
f 306 311 309
f 309 311 308
f 170 628 668
f 613 739 10
f 739 392 10
f 656 675 668
f 656 815 675
f 680 678 365
f 813 613 388
f 324 333 314
f 687 198 668
f 379 688 383
f 295 666 207
f 815 656 636
f 377 694 379
f 325 498 84
f 689 333 266
f 334 696 689
f 700 377 372
f 861 834 860
f 703 721 239
f 732 726 367
f 834 861 256
f 348 341 704
f 747 732 363
f 356 358 704
f 735 888 721
f 370 358 356
f 735 264 757
f 735 273 888
f 755 747 359
f 369 364 362
f 353 763 755
f 647 761 326
f 761 349 326
f 376 373 177
f 779 757 264
f 780 779 279
f 384 380 171
f 235 395 19
f 736 871 737
f 562 788 917
f 910 647 320
f 785 804 803
f 414 406 403
f 256 323 803
f 813 675 815
f 415 786 400
f 427 419 414
f 422 420 705
f 432 428 427
f 430 489 499
f 587 580 590
f 437 434 432
f 445 442 434
f 446 394 445
f 671 586 448
f 819 609 627
f 456 449 450
f 455 563 248
f 865 791 769
f 581 579 463
f 645 652 817
f 644 464 469
f 652 662 715
f 874 923 129
f 715 664 652
f 694 812 688
f 477 64 126
f 750 760 473
f 485 655 477
f 465 715 718
f 507 207 666
f 465 774 494
f 865 486 480
f 812 675 813
f 485 484 655
f 207 202 298
f 883 504 825
f 493 865 769
f 783 782 504
f 679 484 485
f 202 200 298
f 196 490 200
f 196 193 490
f 877 859 476
f 302 803 323
f 189 496 193
f 814 806 810
f 168 719 789
f 821 814 810
f 391 899 924
f 713 527 532
f 467 408 472
f 302 294 887
f 786 787 518
f 538 519 532
f 561 532 527
f 926 35 33
f 538 532 660
f 540 555 561
f 551 586 640
f 319 241 565
f 660 532 561
f 113 161 746
f 161 176 867
f 8 319 565
f 223 247 635
f 781 585 784
f 620 629 393
f 887 780 302
f 269 390 393
f 671 640 586
f 781 784 588
f 599 589 603
f 393 290 611
f 626 603 606
f 928 290 305
f 623 238 622
f 625 1 623
f 774 893 894
f 312 332 912
f 626 632 631
f 332 339 847
f 847 892 332
f 757 887 285
f 847 714 54
f 793 3 8
f 732 807 726
f 858 931 857
f 675 812 687
f 168 167 15
f 273 735 757
f 920 921 7
f 402 385 639
f 167 845 17
f 638 633 338
f 646 649 663
f 650 663 649
f 845 850 157
f 888 239 721
f 663 654 646
f 706 409 48
f 850 854 153
f 676 654 663
f 429 409 317
f 661 692 660
f 854 858 149
f 676 663 686
f 858 862 147
f 433 429 691
f 678 680 677
f 699 711 712
f 712 734 356
f 711 710 753
f 862 866 141
f 712 711 740
f 682 436 827
f 734 740 748
f 866 870 137
f 214 687 808
f 748 756 758
f 664 816 652
f 872 133 135
f 198 687 214
f 754 182 768
f 872 874 131
f 665 659 658
f 758 765 766
f 658 648 653
f 766 764 758
f 776 770 777
f 668 198 170
f 117 923 116
f 787 786 789
f 929 330 822
f 533 822 322
f 556 336 330
f 531 322 523
f 899 920 833
f 662 444 889
f 346 323 256
f 491 482 620
f 116 880 911
f 911 20 116
f 382 491 620
f 911 932 20
f 932 886 99
f 645 443 662
f 930 382 611
f 382 930 516
f 886 824 199
f 605 531 930
f 491 508 848
f 628 170 902
f 256 347 346
f 482 848 479
f 891 896 93
f 347 256 861
f 820 617 739
f 866 819 817
f 605 594 593
f 896 901 85
f 929 593 582
f 612 881 885
f 901 905 83
f 826 451 653
f 451 457 180
f 672 659 665
f 441 180 851
f 79 905 796
f 436 673 672
f 436 851 827
f 909 914 75
f 682 673 436
f 914 916 71
f 584 902 897
f 876 86 342
f 69 916 1
f 829 433 827
f 700 808 694
f 788 3 916
f 853 829 417
f 409 61 48
f 402 48 855
f 870 817 816
f 855 29 360
f 874 816 664
f 385 361 102
f 830 880 875
f 576 897 25
f 819 634 817
f 68 69 1
f 106 856 730
f 743 736 738
f 910 242 236
f 862 857 819
f 744 879 102
f 880 830 831
f 840 528 843
f 401 846 44
f 803 302 780
f 769 791 357
f 878 915 791
f 831 911 880
f 918 873 345
f 576 25 475
f 799 31 475
f 841 29 846
f 879 856 102
f 106 639 385
f 573 564 876
f 911 831 802
f 342 556 876
f 337 339 332
f 25 510 515
f 350 29 841
f 564 573 892
f 892 582 912
f 510 25 56
f 864 906 837
f 312 328 337
f 929 822 593
f 33 35 258
f 871 360 29
f 840 860 835
f 864 158 863
f 29 855 44
f 916 914 917
f 808 687 812
f 594 307 312
f 307 305 328
f 916 917 788
f 33 56 927
f 840 835 809
f 307 594 605
f 736 743 361
f 531 516 930
f 290 277 305
f 852 109 927
f 318 835 860
f 21 844 529
f 852 59 112
f 620 393 611
f 102 743 744
f 112 113 852
f 751 763 762
f 647 785 762
f 805 747 751
f 252 268 254
f 230 835 229
f 487 641 635
f 637 879 467
f 124 851 164
f 809 230 221
f 161 142 176
f 807 732 805
f 247 234 254
f 230 809 835
f 808 700 807
f 345 637 186
f 176 184 191
f 812 694 808
f 204 849 223
f 849 204 191
f 813 688 812
f 635 648 725
f 849 184 198
f 815 613 813
f 815 636 613
f 217 223 849
f 659 191 204
f 217 234 223
f 191 184 849
f 859 480 421
f 795 213 511
f 245 461 243
f 878 865 859
f 802 886 932
f 191 659 867
f 452 718 889
f 223 234 247
f 176 142 184
f 246 254 234
f 865 493 486
f 293 771 357
f 268 247 254
f 771 769 357
f 805 264 735
f 268 252 390
f 161 113 112
f 486 493 488
f 390 252 274
f 867 673 746
f 264 751 279
f 274 277 390
f 746 682 152
f 281 848 287
f 827 433 682
f 808 703 214
f 152 691 109
f 109 852 113
f 476 859 421
f 296 305 277
f 476 595 877
f 305 307 928
f 196 293 292
f 595 476 820
f 726 807 700
f 752 293 357
f 307 328 312
f 310 328 305
f 56 59 852
f 292 752 799
f 328 310 323
f 886 825 824
f 312 337 332
f 807 703 808
f 891 824 782
f 193 292 189
f 844 21 22
f 429 853 409
f 109 697 927
f 56 33 510
f 105 559 553
f 339 337 346
f 346 714 339
f 51 346 347
f 317 926 927
f 564 690 876
f 863 844 232
f 799 868 292
f 510 33 258
f 843 528 529
f 844 863 842
f 861 840 843
f 861 158 347
f 861 860 840
f 752 915 31
f 158 843 842
f 843 158 861
f 842 529 844
f 919 837 906
f 906 232 907
f 809 528 840
f 730 873 918
f 730 856 873
f 873 856 879
f 856 106 385
f 817 634 645
f 837 919 838
f 817 652 816
f 919 906 907
f 919 536 537
f 743 102 361
f 904 669 838
f 898 669 904
f 669 898 38
f 703 807 721
f 405 404 838
f 669 405 838
f 922 833 836
f 294 285 887
f 361 385 402
f 869 645 634
f 830 875 664
f 916 3 1
f 864 51 347
f 402 855 361
f 909 801 914
f 397 890 374
f 48 44 855
f 796 909 77
f 879 637 873
f 901 798 905
f 580 925 397
f 48 402 706
f 896 800 901
f 891 823 896
f 409 62 61
f 853 62 409
f 881 413 417
f 417 62 853
f 86 407 299
f 459 893 882
f 199 891 95
f 830 465 831
f 829 426 417
f 426 829 124
f 426 881 417
f 124 829 827
f 433 829 853
f 886 802 825
f 774 894 883
f 851 124 827
f 164 884 124
f 441 851 436
f 180 164 851
f 443 869 164
f 911 802 932
f 715 830 664
f 874 664 875
f 736 361 360
f 451 180 441
f 457 452 889
f 889 444 457
f 866 817 870
f 106 35 639
f 459 718 452
f 826 452 457
f 452 826 245
f 451 826 457
f 862 819 866
f 858 857 862
f 461 245 826
f 459 882 718
f 479 243 461
f 854 931 858
f 850 925 854
f 846 401 580
f 845 890 850
f 491 848 482
f 848 281 479
f 825 494 883
f 382 508 491
f 900 832 767
f 508 287 848
f 896 823 800
f 839 890 845
f 504 782 824
f 42 374 839
f 516 508 382
f 908 910 318
f 534 524 523
f 552 818 548
f 42 172 173
f 901 800 798
f 818 552 900
f 533 322 531
f 871 175 737
f 868 187 189
f 22 232 844
f 593 822 533
f 822 315 316
f 929 556 330
f 330 315 822
f 838 919 537
f 904 838 537
f 318 860 834
f 908 318 834
f 465 830 715
f 556 342 336
f 105 836 559
f 833 559 836
f 29 44 846
f 908 834 804
f 562 917 828
f 299 836 105
f 818 900 767
f 832 553 559
f 562 832 920
f 811 315 548
f 828 801 821
f 801 828 917
f 821 797 814
f 836 299 903
f 401 590 580
f 797 821 801
f 905 798 796
f 796 814 797
f 810 548 818
f 814 798 806
f 798 814 796
f 909 796 797
f 811 548 810
f 413 587 590
f 404 51 837
f 51 864 837
f 837 838 404
f 909 797 801
f 529 842 843
f 158 842 863
f 232 906 863
f 800 806 798
f 529 528 511
f 794 811 806
f 785 908 804
f 785 647 908
f 859 877 878
f 526 534 794
f 877 571 878
f 571 31 915
f 173 351 42
f 524 783 509
f 350 173 175
f 29 350 871
f 823 526 794
f 783 524 526
f 526 823 782
f 42 351 374
f 841 374 351
f 504 775 783
f 509 783 775
f 782 823 891
f 885 124 884
f 887 757 779
f 914 801 917
f 426 885 881
f 890 397 925
f 825 504 824
f 775 504 883
f 925 587 931
f 587 925 580
f 802 494 825
f 785 279 762
f 494 831 465
f 831 494 802
f 894 287 775
f 590 895 413
f 438 897 576
f 884 164 869
f 762 279 751
f 423 931 587
f 587 413 423
f 931 423 857
f 762 761 647
f 617 820 476
f 595 820 621
f 751 755 763
f 893 459 243
f 751 264 805
f 609 857 423
f 423 881 612
f 662 443 444
f 721 805 735
f 621 584 595
f 857 609 819
f 443 645 869
f 612 885 627
f 636 621 820
f 628 902 584
f 805 721 807
