# avbd fit, rung f600-i32-s600 of Gate 6d (body space, fit phase only)
v -0.008336356 0.723326027 0.025063818
v -0.108050808 0.741193652 0.075713001
v -0.008270688 0.736135662 0.027379107
v 0.000061062 0.940169930 0.070508435
v -0.159811914 0.730264068 0.067291200
v 0.000323392 0.951637268 0.070723698
v -0.008185307 0.761085868 0.031464972
v -0.008032700 0.748656809 0.029505283
v -0.160014659 0.744801641 0.068264157
v 0.148324698 0.955965161 -0.081416883
v -0.180052787 0.741959453 0.061206751
v -0.197025001 0.744610906 0.042152483
v -0.205353111 0.745661020 0.025225107
v -0.179878742 0.738346994 -0.078946188
v 0.010048205 0.713162899 -0.072421543
v -0.161445752 0.734373450 -0.089146495
v 0.025834015 0.712443471 -0.074805871
v -0.144196689 0.734312534 -0.097676024
v -0.127134889 0.737669885 -0.106491230
v 0.207689196 0.711395502 0.015947690
v -0.000476646 0.917839170 0.069414124
v -0.000798416 0.905812263 0.068717815
v -0.106895685 0.733040452 -0.109298721
v -0.092215069 0.738287210 -0.105470836
v 0.100647829 0.874413967 -0.143096164
v -0.077126093 0.745503545 -0.101718605
v -0.131283283 0.935382068 -0.117074452
v -0.119600281 0.871230006 0.053541265
v 0.039432429 0.789307117 -0.093226604
v -0.130145609 0.879666626 0.047182281
v 0.072470054 0.898662925 -0.148356467
v -0.166188955 0.867853999 0.034749381
v 0.091868386 0.840030491 -0.137645215
v -0.209459975 0.739974380 -0.030503113
v 0.075293280 0.831978202 -0.131369770
v -0.153702348 0.940177560 -0.089359857
v -0.166041076 0.939588189 -0.048642468
v 0.012732746 0.828123748 0.043869492
v -0.165551990 0.943651795 -0.028382525
v -0.076983042 0.931208789 -0.139194354
v -0.024683625 0.908949196 0.067955747
v 0.011859709 0.757553458 -0.081621706
v -0.016079610 0.894198716 0.066870786
v 0.062416948 0.791132271 -0.101296149
v -0.034313809 0.895738482 0.066121563
v -0.159885973 0.946061969 -0.009206718
v -0.157101065 0.933968425 -0.000377574
v 0.073397540 0.806093216 -0.103724338
v -0.145719483 0.935857773 0.014614257
v -0.043317053 0.738761902 0.042635497
v 0.050834250 0.876480579 0.062545933
v -0.061819606 0.739083171 0.057198547
v -0.072097771 0.803370476 0.063173518
v 0.052428126 0.850171924 0.051383238
v -0.082616523 0.738993227 0.065442741
v 0.107767321 0.854909241 -0.137558430
v -0.094607517 0.802176833 0.073416732
v -0.163510963 0.814550579 0.062458396
v 0.123893283 0.868961692 -0.134460479
v -0.190953285 0.814421356 0.032442037
v 0.083686061 0.792768836 -0.107250810
v 0.104219772 0.789913118 -0.112673387
v -0.173724979 0.875375569 0.018522503
v -0.165516272 0.888514161 0.015578464
v -0.204754189 0.811787426 -0.030757401
v -0.199795783 0.805718601 -0.055979021
v -0.189509064 0.813288331 -0.072639585
v -0.000662853 0.715750813 0.015097095
v 0.012855393 0.714020312 0.021533165
v -0.178844631 0.802244663 -0.090265960
v 0.028329153 0.713280261 0.026931530
v -0.121018313 0.806886017 -0.116627716
v 0.041534729 0.711925685 0.036064155
v -0.021110300 0.826721847 -0.113702737
v 0.050560307 0.710245550 0.048332769
v -0.096619993 0.933978558 -0.134398684
v 0.066376723 0.710008264 0.057383984
v -0.113875367 0.936074734 -0.127133220
v 0.081179552 0.710006893 0.063341931
v -0.121692613 0.925333798 -0.127620906
v 0.095870525 0.710110188 0.069211669
v -0.138888925 0.947377503 -0.104114950
v 0.110354826 0.710228860 0.075000115
v -0.167061597 0.915582657 -0.076606654
v 0.128495932 0.710611701 0.078019150
v 0.041594781 0.822349906 0.044396497
v -0.117958680 0.930629134 0.043219212
v -0.130064607 0.868830681 -0.131220564
v -0.158186287 0.768656433 0.068799622
v 0.141546816 0.710930586 0.072935805
v -0.146541372 0.877976775 -0.118022107
v -0.016455926 0.862799525 0.061592329
v 0.155489028 0.711843133 0.067528680
v -0.034548931 0.865786672 0.061541904
v 0.169518352 0.712125659 0.062475175
v -0.021993758 0.878982186 0.064917125
v 0.183376476 0.712151766 0.057561539
v -0.015321816 0.921730816 0.069011040
v 0.194728523 0.712401152 0.043223869
v -0.064143553 0.941361070 -0.134744987
v 0.201204985 0.712105393 0.029796625
v 0.025116604 0.826265156 -0.114824615
v -0.088869736 0.919965625 -0.142118350
v -0.105431177 0.773919702 0.076618277
v 0.035652526 0.808230400 0.044133287
v 0.056770753 0.832113922 -0.130720034
v -0.119560562 0.912004113 -0.132732302
v -0.140648320 0.764779627 0.074165627
v 0.129121140 0.838881671 -0.113721132
v -0.135923028 0.903657913 -0.125636905
v 0.138884589 0.880060375 -0.123974763
v 0.145548999 0.863861084 -0.117226839
v 0.143334061 0.849291623 -0.109455064
v -0.162457108 0.784012973 0.067486480
v -0.148200631 0.895769596 -0.113728739
v 0.208132714 0.710499167 0.000276003
v 0.208146408 0.709503889 -0.013384792
v -0.195880190 0.777868271 0.038337398
v 0.153005719 0.882011533 -0.110620059
v -0.160897732 0.906154931 -0.095587000
v -0.174204826 0.905178905 -0.058983218
v -0.173219919 0.914964497 -0.043273680
v -0.057126958 0.891714692 -0.147554383
v 0.161984250 0.786795199 -0.097610243
v -0.139903575 0.897943377 0.029362787
v -0.155759782 0.899314582 0.014687995
v -0.102453850 0.889805019 0.051363133
v -0.111329474 0.902182102 0.048619561
v 0.207902983 0.708791614 -0.028039077
v -0.021217832 0.882357299 -0.139597908
v 0.200733036 0.707575440 -0.043545257
v -0.040504582 0.879400551 -0.145478398
v 0.191646188 0.706678391 -0.055375546
v -0.029335067 0.797080636 -0.089084879
v 0.182641923 0.705510557 -0.067282304
v -0.090682395 0.933770299 0.055832475
v 0.169980645 0.704481184 -0.078033306
v -0.073501453 0.929121315 0.061865337
v 0.156402349 0.703919649 -0.084710523
v -0.022264048 0.867690384 -0.138064936
v 0.142593101 0.703121781 -0.091080070
v 0.162707165 0.874603927 -0.097898677
v -0.023696536 0.853077114 -0.134818554
v 0.129723281 0.702921271 -0.096941426
v -0.043024339 0.862941146 -0.143069088
v -0.168208867 0.880093575 -0.081433281
v 0.116146229 0.702729344 -0.103130147
v -0.119636431 0.944432855 0.043658592
v 0.097785369 0.704379976 -0.100297198
v -0.031733517 0.813531995 -0.100291982
v 0.083169781 0.706027687 -0.095571578
v 0.144128054 0.837004006 -0.105217323
v 0.068572931 0.707621038 -0.090841696
v -0.107686006 0.834069073 -0.125758022
v 0.054019231 0.709146619 -0.086113356
v -0.066102318 0.779125154 -0.102462910
v 0.039407518 0.710638404 -0.080692932
v 0.041909460 0.901685357 0.066316724
v -0.178810939 0.858192146 -0.075844660
v -0.210509568 0.746597886 -0.010057092
v 0.155519664 0.858296752 -0.096463375
v -0.186181217 0.872745037 -0.030357894
v -0.198251277 0.848106027 -0.021223612
v 0.183250174 0.782395959 -0.081791088
v -0.199470028 0.837267876 -0.039145909
v -0.007906205 0.737319827 -0.077553757
v 0.014446979 0.727418303 -0.075754441
v -0.007815277 0.725164413 -0.074351385
v -0.007495839 0.749698102 -0.080354698
v 0.164127722 0.893086314 -0.091294356
v -0.193429098 0.839742541 -0.058661073
v -0.007297047 0.762429595 -0.081444845
v -0.007118236 0.775581062 -0.083110563
v -0.201719478 0.837130368 -0.002408029
v -0.005885216 0.789444745 -0.083903410
v 0.169404536 0.867104828 -0.086030647
v -0.176634863 0.835034668 -0.090206467
v -0.117155753 0.719277024 -0.107419036
v -0.189290479 0.843759537 0.022886138
v 0.192181334 0.797673702 -0.068668716
v -0.186628029 0.829102516 0.032575194
v -0.093808562 0.822991014 -0.120201170
v -0.079396829 0.816112161 -0.111098409
v 0.168711424 0.879958153 -0.075943030
v -0.044492640 0.847042561 -0.139272943
v -0.001422115 0.859463990 -0.132171899
v -0.001131583 0.871152580 -0.134859502
v -0.085242704 0.916617513 0.059569765
v -0.000796584 0.883105636 -0.136156693
v -0.101121999 0.912417531 0.052088954
v 0.179110557 0.864109993 -0.070383340
v -0.092310369 0.901576221 0.056595117
v -0.000419855 0.895251870 -0.136437356
v -0.103015088 0.925643623 0.050196059
v -0.143804401 0.832770228 0.064261831
v -0.000024311 0.907435298 -0.135661274
v -0.096140727 0.947977066 0.051452130
v 0.172662765 0.895718455 -0.062655360
v 0.178088009 0.726869702 0.060937595
v 0.000546277 0.919355273 -0.132776693
v -0.105883338 0.939441383 0.047071453
v 0.000726056 0.931470692 -0.129765585
v -0.126411840 0.906030059 0.039430868
v 0.189141899 0.860862851 -0.053274967
v -0.129797131 0.921256185 0.037499718
v -0.186804682 0.871133447 0.004632823
v 0.000866686 0.943279147 -0.125671208
v -0.128241569 0.950187087 0.034169853
v -0.133741885 0.936361909 0.031612523
v -0.140018433 0.949655831 0.020312108
v -0.126517385 0.826249957 0.070032746
v 0.034812383 0.953818142 0.069453754
v 0.014327245 0.954401195 0.070245117
v 0.174756780 0.907937229 -0.040208120
v -0.000089428 0.929675221 0.070029303
v -0.151495963 0.947373986 0.006209598
v 0.175989136 0.890798688 -0.040483922
v -0.159384593 0.956541061 -0.019184321
v -0.161896855 0.953830600 -0.037895717
v -0.075020425 0.762389898 -0.103029624
v 0.024584122 0.953948140 0.069844395
v 0.170676500 0.900437653 -0.024129039
v 0.186061248 0.872343659 -0.033370167
v -0.161119446 0.951159000 -0.056026451
v -0.147370890 0.953432918 -0.086455151
v -0.122300759 0.948291779 -0.117000744
v -0.148235828 0.913178325 -0.109283365
v -0.105497263 0.764474750 -0.112023629
v 0.059204452 0.953164101 0.064135619
v 0.045353513 0.952440858 0.067759089
v -0.101528838 0.907587886 -0.141943783
v -0.000985480 0.893763423 0.067409471
v -0.106603876 0.922378063 -0.135010257
v 0.180002004 0.886855304 -0.020477604
v -0.126167789 0.756506920 -0.110066965
v 0.070343487 0.954057395 0.061241813
v -0.025738910 0.800267041 0.043831136
v -0.031344987 0.726235330 0.032547697
v 0.165740028 0.907171905 -0.007372958
v -0.172762364 0.898893237 -0.035986327
v -0.040112887 0.762969375 0.042894881
v 0.082536258 0.960995197 0.057328165
v 0.208052918 0.806727529 0.001917226
v -0.048932910 0.724128485 0.048597462
v 0.207036704 0.805171847 -0.016520044
v 0.173793331 0.897690594 -0.005291395
v 0.187375382 0.872847676 -0.010270163
v -0.052881908 0.771571159 0.055192184
v -0.073334649 0.724328279 0.060868401
v -0.095933363 0.725862026 0.069906332
v -0.088926241 0.765508950 0.069586739
v 0.166704759 0.889233112 0.013510915
v -0.091500714 0.751818299 0.069833495
v 0.181366518 0.885896087 -0.000882808
v -0.043466527 0.882229984 0.063708752
v 0.079034820 0.901266098 0.061209388
v -0.107041217 0.758674979 0.076496862
v 0.070608102 0.842052162 -0.141435564
v -0.117835656 0.725249171 0.078493543
v -0.202637032 0.777708054 -0.051310461
v -0.125188231 0.769534409 0.078934334
v -0.138190597 0.739202261 0.075436957
v 0.062360156 0.855636477 -0.144723833
v 0.138883904 0.925712287 0.028538112
v -0.128672808 0.753734946 0.078147106
v -0.208936185 0.766384780 -0.038501102
v -0.142981887 0.723808050 0.072683126
v 0.179924577 0.874825597 0.011161225
v 0.179252103 0.863196850 0.021748718
v -0.115225002 0.916377664 0.045192908
v -0.148819104 0.754446626 0.071635492
v -0.176426500 0.725513637 0.060835738
v 0.151552305 0.898796558 0.020130560
v 0.155668586 0.886351228 0.030777652
v -0.178889349 0.773137927 0.062463362
v -0.170545548 0.757424295 0.064747177
v 0.157010645 0.872597218 0.043122414
v -0.193460748 0.729044855 0.047636643
v 0.123100497 0.927870393 0.041296180
v -0.191543862 0.760291457 0.050935723
v 0.200456709 0.803275704 0.023780372
v -0.037464958 0.952897549 0.069193162
v -0.201169759 0.760534585 0.031511001
v -0.016917901 0.937433541 0.069658116
v 0.141967624 0.895363033 0.033878867
v -0.139313251 0.911920667 0.031412430
v 0.190218642 0.798711240 0.042754669
v -0.142515451 0.923921406 0.023828585
v -0.211374447 0.755053878 0.010417542
v 0.153078169 0.858854413 0.053085648
v -0.148969784 0.910702348 0.018137924
v 0.023167055 0.893889248 -0.139544860
v 0.024228545 0.910856247 -0.139470786
v 0.127386734 0.890518546 0.040400542
v -0.024465425 0.942764640 -0.130890414
v 0.139933616 0.882500947 0.045021743
v -0.208237842 0.771815658 0.017068267
v -0.018676322 0.927577972 -0.134107918
v 0.023797315 0.821088195 0.034974284
v -0.023500036 0.747258604 -0.081725046
v -0.039785054 0.932668328 -0.137117267
v 0.114107788 0.895982087 0.047080524
v -0.045735426 0.946197033 -0.131894320
v -0.153460383 0.922306657 0.009036869
v 0.134693891 0.866906822 0.054045666
v -0.158726200 0.908118844 0.003018417
v 0.122374393 0.853684604 0.062057398
v -0.171131939 0.916598618 -0.024882611
v -0.168862492 0.904284120 -0.012596438
v 0.119351365 0.880846322 0.047467336
v -0.164137363 0.919484913 -0.006531257
v 0.103372872 0.858562827 0.063491441
v -0.209408313 0.728948712 -0.015729386
v -0.210741788 0.763169169 -0.005023429
v 0.095135815 0.789838135 0.073675990
v 0.117945090 0.791291714 0.078600757
v 0.101317264 0.823566616 -0.111843467
v 0.071622193 0.941959381 0.062251769
v -0.024707492 0.762913287 0.033976614
v 0.096459828 0.967512965 0.049402997
v -0.170939922 0.928995013 -0.036692724
v 0.124273278 0.805723011 0.075279266
v 0.097605951 0.886299610 0.053456612
v -0.210127160 0.769755304 -0.020198073
v -0.169396415 0.923692405 -0.056697696
v 0.113600112 0.962192237 0.041382637
v -0.157998160 0.923535824 -0.091515236
v 0.112172686 0.869398773 0.055805117
v -0.063578449 0.841486335 -0.141077563
v 0.083184764 0.804220557 0.069148690
v -0.206818253 0.724397719 -0.039604932
v 0.084490664 0.857723236 0.062468715
v -0.210159451 0.755641580 -0.025109261
v -0.197146371 0.761366606 -0.058088660
v -0.194917887 0.720613897 -0.054474849
v 0.064864717 0.799945235 0.060663212
v 0.092099972 0.870293021 0.054002244
v -0.066707350 0.822860241 -0.121966913
v 0.077093773 0.863689244 0.054664917
v -0.199632555 0.734787703 -0.051154096
v -0.189524427 0.772505820 -0.069908932
v 0.052845173 0.810157299 0.052833337
v -0.080288962 0.832806468 -0.133480817
v -0.185352057 0.725854576 -0.068661518
v 0.019080274 0.862215042 -0.135112718
v 0.074326456 0.880751789 0.060489200
v 0.058224428 0.893166661 0.063107237
v -0.185004815 0.755872428 -0.074045151
v 0.097101517 0.957734287 0.050256342
v 0.018771518 0.782796144 -0.085373148
v 0.019968364 0.768905938 -0.084655643
v -0.168420434 0.721809208 -0.083036557
v 0.105156422 0.965875506 0.045090459
v -0.127182618 0.839945436 -0.116866842
v 0.125460729 0.968261242 0.031503081
v -0.157430202 0.759910226 -0.095703252
v 0.046665415 0.918882072 -0.142164975
v -0.170014948 0.750226438 -0.087968372
v 0.134901330 0.962924302 0.021466721
v 0.033396464 0.805409789 -0.091380253
v 0.035322987 0.813505173 -0.104044572
v -0.139869392 0.831317306 -0.108133957
v 0.144765422 0.956448376 0.011089137
v -0.142905444 0.845062613 -0.106229499
v -0.104537353 0.947491765 -0.125374749
v -0.034245297 0.926435947 0.068443313
v 0.153089628 0.957927525 -0.001559702
v -0.150084913 0.719700515 -0.091671281
v -0.157385275 0.839889169 -0.099928319
v -0.154846966 0.745951116 -0.094511084
v -0.145493716 0.930439353 -0.106568314
v 0.155778617 0.945789933 -0.002956106
v -0.172990263 0.850119591 -0.090095647
v 0.032813534 0.756010532 -0.085890695
v -0.133135587 0.720876455 -0.100313805
v -0.183350354 0.844369531 -0.074555531
v 0.160094827 0.955306053 -0.021480028
v -0.135319397 0.920009434 -0.120043837
v 0.159531385 0.957009673 -0.036434721
v -0.187768817 0.857864022 -0.058832515
v -0.141084015 0.750384927 -0.101871945
v 0.171739966 0.827935517 0.055898212
v 0.155583203 0.959706664 -0.052304059
v -0.195674807 0.850132585 -0.043047328
v 0.046347089 0.822338581 -0.119448230
v -0.096834391 0.721663594 -0.103842817
v -0.025091570 0.731482387 -0.078577593
v 0.155869275 0.955261707 -0.066279247
v -0.191028684 0.861297905 -0.036137797
v 0.168319851 0.874273598 0.026960155
v -0.022806048 0.787894309 0.037066646
v 0.141510919 0.956548214 -0.092592292
v 0.170065627 0.857656181 0.038071088
v -0.061580695 0.845644116 0.051214028
v -0.107310876 0.747808337 -0.110896721
v -0.078035079 0.726770401 -0.098523453
v 0.052319430 0.756994843 -0.095519714
v -0.091039978 0.755195737 -0.106811203
v -0.060521353 0.739976525 -0.095777154
v -0.058331303 0.724406898 -0.091206960
v 0.074132182 0.778178573 -0.104230240
v 0.059529614 0.813662887 -0.107825875
v -0.175753385 0.838312507 0.044667460
v 0.041194595 0.860284686 0.057841182
v 0.034379534 0.845733464 0.053194214
v -0.171622261 0.853657901 0.038969003
v 0.029829577 0.832387447 0.045214705
v -0.027628666 0.837769687 -0.126460671
v 0.097690575 0.806873143 -0.110650316
v -0.153036267 0.861222446 0.051614683
v -0.058864187 0.766509831 -0.099127181
v -0.063988067 0.753956676 -0.098668247
v 0.106621824 0.770086527 -0.112516247
v -0.154303133 0.845943630 0.057381324
v -0.040840030 0.740224063 -0.089109227
v 0.129321605 0.956796765 -0.104685009
v 0.125946984 0.784396052 -0.113126479
v -0.048156973 0.755923033 -0.094430275
v -0.134359196 0.853326678 0.059043825
v -0.043219801 0.778388441 -0.096195117
v 0.115531638 0.956188023 -0.114063345
v -0.031682979 0.761452317 -0.085649304
v 0.116755210 0.751191080 -0.112733483
v -0.210536048 0.739046574 0.006887435
v -0.202863365 0.730173588 0.028518632
v 0.142337903 0.781490743 -0.105784401
v -0.129011184 0.839928150 0.065262094
v -0.112717770 0.847506642 0.066332161
v 0.118041672 0.815750241 -0.115776524
v -0.063235335 0.885731339 0.061575245
v -0.050108444 0.951972187 0.066386834
v -0.105881318 0.831847668 0.072784506
v 0.140626729 0.810937703 -0.108080223
v -0.090257443 0.842781365 0.070082262
v -0.074023075 0.874048233 0.059895556
v 0.176413447 0.817587972 -0.092000328
v -0.080357410 0.828900456 0.065540060
v 0.115515783 0.908939362 -0.135205016
v -0.066142514 0.859928310 0.054575872
v -0.085697003 0.865545869 0.056962531
v 0.188711077 0.813499570 -0.073356375
v -0.078916773 0.852448642 0.060159355
v 0.189185292 0.770349443 -0.069493644
v 0.195838660 0.782250881 -0.060792457
v -0.073973015 0.840397239 0.060955495
v -0.061335843 0.831151664 0.054931480
v -0.098239221 0.857592225 0.063939072
v -0.024622183 0.836792648 0.051525641
v -0.103629068 0.868300438 0.055863954
v -0.093271844 0.877032399 0.054181986
v 0.199042335 0.812359452 -0.054897241
v 0.208129168 0.792357445 -0.028768655
v -0.053995200 0.869506061 0.060758971
v -0.117736086 0.860227585 0.060133211
v -0.040331963 0.787961602 0.049811367
v -0.110925540 0.879299164 0.047673993
v 0.203610152 0.795751333 -0.050252933
v -0.122699514 0.890612900 0.040746048
v 0.209595606 0.791311383 -0.008950655
v -0.149119169 0.875532925 0.046841942
v 0.203621835 0.822883308 -0.013407926
v -0.135139942 0.866718113 0.053554319
v -0.053743631 0.898375809 0.064135112
v -0.142516404 0.888968289 0.039961763
v 0.210616827 0.761486411 -0.004654451
v -0.055087607 0.926424623 0.065747306
v -0.002284677 0.839355588 -0.119897343
v -0.049906313 0.940190673 0.067016989
v -0.152808890 0.891769052 0.026006054
v -0.181162044 0.860776126 0.020838620
v -0.034364421 0.942583263 0.069044203
v -0.001747885 0.848176956 -0.128334850
v -0.071801409 0.951046944 0.060802508
v -0.196398944 0.855764031 0.001598129
v 0.079258054 0.884425342 -0.148115888
v 0.120834395 0.938790321 -0.123279907
v -0.168759674 0.897762001 0.002004904
v -0.060120963 0.951941490 0.063781187
v 0.201828957 0.821665287 0.014012344
v 0.099629357 0.955653012 -0.121116564
v -0.167258471 0.932021618 -0.017387494
v 0.190926939 0.832478821 0.025386989
v -0.191256061 0.864019275 -0.015940687
v -0.184369296 0.878988385 -0.015179805
v -0.176534459 0.892729759 -0.016996715
v 0.083694696 0.952563107 -0.125838295
v 0.191171691 0.861059546 0.007776515
v 0.068792291 0.951553702 -0.128187597
v -0.073484503 0.900669932 0.061626542
v -0.015559664 0.911478519 -0.136694163
v 0.182013825 0.825328052 0.041011665
v 0.051726650 0.949994743 -0.129564196
v 0.061260801 0.945221424 -0.132284626
v 0.206523940 0.756588936 0.022196958
v -0.065517589 0.941508114 0.063764259
v -0.020082131 0.897177696 -0.138743728
v -0.184440047 0.873763919 -0.048774257
v -0.163457543 0.934883118 -0.071569994
v -0.083482370 0.888219535 0.059268326
v 0.033348400 0.951538444 -0.128317177
v -0.177517742 0.871531308 -0.068508759
v 0.016994745 0.953938127 -0.124645650
v -0.159715533 0.871015906 -0.102907084
v 0.188630834 0.762499392 0.056151845
v -0.169354647 0.865842164 -0.087613963
v 0.016776655 0.946672618 -0.127764910
v 0.000263694 0.952964008 -0.121825598
v 0.180132508 0.811782658 0.051553883
v 0.174256250 0.794147789 0.063551024
v 0.085461073 0.856430531 -0.144550294
v 0.014287502 0.934946835 0.069732651
v -0.160847649 0.888161004 -0.099718846
v -0.154262245 0.855604470 -0.098208383
v -0.156223029 0.950788856 -0.072701797
v 0.069293119 0.869150460 -0.148823962
v 0.158334389 0.808772683 0.065426372
v -0.141436920 0.858057320 -0.117121652
v -0.049360912 0.710461438 -0.084993444
v -0.110893562 0.861208141 -0.137933522
v -0.062970735 0.709349751 -0.089541838
v -0.076670684 0.708150804 -0.094104551
v -0.121702239 0.850718796 -0.128640085
v 0.138759434 0.797281384 0.072550938
v 0.154110104 0.786254168 0.069904484
v -0.090405621 0.706867456 -0.098662823
v 0.148864359 0.766453385 0.072101727
v -0.115661874 0.895603359 -0.137069479
v 0.030885896 0.930644155 0.068872750
v 0.019777846 0.920073211 0.068844721
v -0.104039051 0.705443799 -0.103157774
v 0.138586283 0.815919995 0.069643095
v -0.109111622 0.877791405 -0.140238062
v 0.120868407 0.819051921 0.073863484
v 0.132403582 0.778944731 0.076338559
v -0.121010959 0.704698443 -0.101749323
v -0.001308926 0.869982898 0.064516224
v -0.001319286 0.858242154 0.060372394
v -0.092443012 0.860963047 -0.144212529
v -0.133921653 0.705025554 -0.095969133
v -0.078223176 0.902900517 -0.148127109
v -0.100253657 0.847103000 -0.138448149
v -0.146198034 0.705187857 -0.090432957
v -0.159186840 0.706046462 -0.084277488
v -0.172118455 0.706533313 -0.077976160
v -0.044218119 0.852886677 0.053905994
v -0.022577589 0.850759864 0.056945432
v 0.078017488 0.790717721 0.066659957
v 0.081934229 0.776634336 0.067664728
v -0.183566257 0.707696259 -0.067023657
v -0.192272753 0.708821774 -0.055604003
v -0.028300565 0.812956512 0.037047692
v 0.063996449 0.784171224 0.060599007
v 0.046326675 0.794286966 0.052339602
v -0.201033950 0.709702134 -0.044300459
v -0.075344570 0.887429535 -0.148671985
v 0.070299186 0.814034939 0.061435044
v -0.207989454 0.710771382 -0.029765766
v -0.048697174 0.804482758 0.051135618
v 0.028744137 0.794026613 0.040588543
v -0.033673517 0.775644600 0.039364822
v -0.095562533 0.890760243 -0.145227224
v 0.025034398 0.761365771 0.037179790
v -0.060643125 0.788694203 0.059010863
v 0.063473187 0.839011848 0.054685920
v -0.034624740 0.751318216 0.037465852
v -0.050565343 0.752894282 0.053570319
v -0.055044211 0.907989025 -0.146714151
v -0.070922352 0.917906880 -0.144618019
v -0.065466218 0.816982090 0.058490030
v -0.056190450 0.924971402 -0.141566932
v 0.093685366 0.912317872 -0.143521696
v -0.208381802 0.711420059 -0.015492055
v 0.074309230 0.828509629 0.063087657
v -0.070858821 0.756342769 0.061908025
v -0.087135024 0.815868974 0.069197506
v 0.099411063 0.894164085 -0.143637806
v -0.072825298 0.774776042 0.063396394
v -0.081201479 0.789940774 0.067435533
v -0.064261161 0.913749695 0.063818648
v 0.071533710 0.761075497 -0.101494230
v -0.044277642 0.911688924 0.067007944
v 0.089944683 0.833709121 0.070752017
v -0.090050355 0.778649509 0.070556976
v 0.137392908 0.908098340 -0.122669742
v -0.208388358 0.711942315 -0.002258304
v -0.025987545 0.827027202 0.039711185
v 0.092039004 0.753362596 -0.106485739
v -0.202824071 0.713600516 0.026350090
v -0.122069001 0.800226510 0.076129578
v 0.087076627 0.767784476 -0.106865779
v -0.196643695 0.713846684 0.039350439
v -0.102364168 0.788609147 0.075996265
v 0.107521139 0.827383041 0.074131623
v 0.109615639 0.842507184 0.069018863
v 0.128827378 0.923348784 -0.124291204
v -0.189983726 0.713578939 0.052718848
v -0.110983610 0.816278756 0.076489769
v -0.174557984 0.713111043 0.060244597
v -0.124456689 0.784517288 0.077358373
v -0.160763532 0.712645710 0.065155372
v -0.147147074 0.711787403 0.070386767
v -0.129833847 0.813534439 0.072075330
v -0.143329442 0.792027473 0.071540214
v -0.134420097 0.711327016 0.075399034
v 0.127864107 0.834265351 0.067680649
v -0.145261317 0.806259751 0.069004819
v -0.116854511 0.710642219 0.077001914
v -0.103186667 0.710442901 0.071599163
v 0.137046248 0.745903671 -0.102673769
v -0.145753577 0.820040584 0.066489950
v 0.162506863 0.845346570 0.056042593
v 0.137373954 0.758238494 -0.104548253
v 0.153526902 0.946556449 -0.083315335
v -0.089256682 0.710183144 0.066088513
v -0.142553702 0.778015018 0.073395640
v -0.075244956 0.709988475 0.060550570
v 0.131679371 0.948309720 -0.109402120
v -0.061261963 0.709924817 0.054934692
v -0.048237957 0.710493982 0.043858297
v 0.178289637 0.840442836 0.040379968
v 0.144989967 0.921551049 -0.110014297
v -0.040563919 0.712266922 0.031603932
v -0.027977202 0.713011265 0.023828676
v -0.161671937 0.829844654 0.060336124
v -0.022152111 0.723726988 0.017982261
v -0.164004102 0.799423218 0.064929254
v 0.152567297 0.754604697 -0.096556045
v 0.154711992 0.908160686 -0.103648946
v 0.186426759 0.849370658 0.023467638
v -0.178625494 0.822769821 0.047653288
v -0.185145706 0.791384101 0.054895341
v -0.182365745 0.807300568 0.050370820
v -0.042384051 0.822277188 -0.118632674
v 0.169470772 0.751040995 -0.087800227
v 0.194277897 0.857344747 -0.014691745
v 0.150860474 0.934839606 -0.099305779
v 0.013052853 0.849172592 -0.129903018
v -0.052626669 0.832711995 -0.130487904
v 0.067763776 0.822762370 -0.121623442
v -0.045782480 0.821348310 0.047094036
v 0.200952649 0.841105342 0.001443379
v -0.195089921 0.797878504 0.035126835
v -0.198533848 0.825616717 0.016711349
v -0.160429254 0.881263733 0.031319622
v 0.186197698 0.755292475 -0.071915559
v -0.207040146 0.789499223 0.017247491
v 0.099981919 0.946123123 0.049862530
v 0.199682444 0.840423882 -0.023062116
v -0.204048946 0.808109105 0.015685927
v -0.205296353 0.818054080 -0.006809902
v -0.202002615 0.828567147 -0.023728404
v 0.196923614 0.748176694 -0.057195790
v 0.201496035 0.826673985 -0.037574213
v -0.210523650 0.780206323 -0.004762978
v -0.178870231 0.885375321 0.003270217
v 0.158219784 0.921975911 -0.092101716
v -0.024081774 0.947934926 0.069653079
v 0.197908491 0.843135357 -0.046551846
v 0.186016619 0.845525622 -0.068854980
v -0.083663166 0.875231743 -0.148250714
v -0.060135253 0.875638187 -0.148852929
v 0.198628396 0.765371859 -0.055551421
v -0.208876997 0.798928022 -0.011296208
v 0.206656426 0.740561247 -0.042261295
v 0.194242209 0.828473389 -0.059521139
v -0.014696320 0.948498607 -0.126778752
v -0.032298524 0.951331258 -0.128459305
v 0.166661724 0.910260677 -0.080673613
v 0.015834372 0.840351582 0.053415220
v -0.050022375 0.954172611 -0.127401814
v -0.044203203 0.836685300 0.047736146
v 0.185245842 0.828515530 -0.076383524
v 0.176487029 0.836427093 -0.089493610
v -0.065661773 0.952885985 -0.127871722
v 0.165353149 0.926537812 -0.072945222
v -0.208894297 0.782409847 -0.027290899
v -0.080530301 0.953606725 -0.125786081
v -0.085897073 0.944773674 -0.130781636
v -0.179874688 0.885614097 -0.035182767
v -0.096277967 0.956247926 -0.121633552
v -0.112043932 0.956837296 -0.115352869
v 0.156748980 0.824375927 -0.101149343
v -0.199256524 0.823003471 -0.052337222
v -0.174546152 0.888511002 -0.059209537
v -0.167669922 0.896217942 -0.078414097
v -0.207276732 0.794860959 -0.039635073
v 0.171307892 0.917787075 -0.057242949
v 0.160945863 0.950054049 -0.052852966
v -0.205160499 0.750105023 -0.047023971
v 0.047487717 0.835977733 0.047393244
v 0.136043072 0.825448692 -0.109922908
v -0.066613063 0.858859360 -0.146551579
v -0.187206954 0.828939140 -0.073116377
v 0.164538845 0.946897149 -0.038107172
v -0.081249982 0.848254979 -0.143273160
v -0.192174941 0.744338751 -0.063489616
v 0.117482401 0.830270648 -0.113621831
v -0.195826903 0.788199604 -0.062643059
v -0.181618333 0.784212410 -0.085293129
v 0.166329131 0.946418464 -0.021916343
v -0.189300120 0.798726499 -0.073819898
v -0.178383023 0.818479657 -0.090209529
v 0.169740826 0.918132126 -0.019386057
v -0.175352797 0.766324282 -0.088368513
v -0.024462949 0.778131962 -0.085858420
v 0.082247131 0.816692650 -0.110529341
v -0.126150683 0.956530690 -0.107461631
v -0.136475593 0.959375262 -0.095498621
v -0.158081263 0.824247479 -0.101132646
v -0.158824950 0.808337808 -0.100467026
v -0.160505444 0.791967034 -0.099167250
v -0.160190269 0.775505543 -0.097234845
v -0.132273510 0.886340439 -0.129431292
v 0.059875518 0.863656640 0.057377618
v 0.209610268 0.759948492 -0.033301640
v -0.151149482 0.960507512 -0.068880960
v -0.154244140 0.960389912 -0.056672383
v 0.209610373 0.776166320 -0.020601790
v -0.007447246 0.712859631 -0.072201364
v -0.156506643 0.959978878 -0.045873709
v 0.159486517 0.920662701 0.001315974
v -0.157645389 0.959499657 -0.028934976
v -0.154899538 0.965295196 -0.011759070
v -0.150200084 0.958432496 0.002121840
v 0.193793029 0.855432689 -0.034072969
v 0.159324378 0.953655541 -0.008823927
v -0.144529432 0.956023037 0.011104538
v -0.138205722 0.961250126 0.017449120
v -0.132235110 0.955974102 0.026965180
v 0.049236711 0.845149219 -0.139282420
v -0.121016122 0.954974830 0.038662784
v 0.153191403 0.950469792 0.006580156
v -0.109038711 0.949916184 0.045066915
v -0.142040759 0.766596437 -0.104222715
v 0.149978116 0.916164994 0.016247604
v 0.015587175 0.811278462 -0.091979533
v -0.005251325 0.802031875 -0.087202124
v -0.004449878 0.813483834 -0.092969254
v 0.144752786 0.947925210 -0.097545758
v -0.142298609 0.782943070 -0.106355406
v -0.003517087 0.821669936 -0.102632485
v -0.139454871 0.815531135 -0.109005079
v 0.013626906 0.819831491 -0.103288710
v -0.002858049 0.829896152 -0.111922346
v -0.112763047 0.958560944 0.042019960
v 0.158659488 0.843554378 -0.098402150
v 0.140665844 0.952997208 0.021218050
v -0.125335157 0.773557067 -0.112982586
v -0.101572856 0.955765724 0.047873687
v -0.087698326 0.952695012 0.055352669
v 0.132115781 0.942403138 0.032386146
v 0.046810750 0.902319074 -0.145526066
v -0.141157776 0.799250484 -0.107946239
v -0.116557039 0.824635506 -0.115272120
v 0.126803011 0.958392739 0.033352327
v -0.123783134 0.789918363 -0.114822790
v 0.141948104 0.909044862 0.029478902
v -0.102855109 0.781158149 -0.112450078
v -0.002373027 0.826601863 0.042315073
v -0.080913946 0.944351375 0.058817007
v 0.107576251 0.955813766 0.048221666
v 0.115359768 0.940975964 0.046494253
v 0.115960762 0.951655388 0.041561838
v -0.087172195 0.772318840 -0.107866868
v -0.099850267 0.797334909 -0.112245463
v -0.081522949 0.788554132 -0.106999204
v 0.041596718 0.767239213 0.048395060
v -0.098694742 0.813317120 -0.110924959
v 0.051023029 0.933335960 -0.137973055
v -0.078133747 0.804716885 -0.105575942
v 0.026142105 0.925911546 -0.136706650
v -0.038804054 0.895743072 -0.144841477
v -0.035495341 0.915124059 -0.142178908
v 0.207420200 0.772819877 0.018835533
v 0.189165324 0.780611396 0.050046276
v -0.054349847 0.797646463 -0.099178381
v -0.058047324 0.813510537 -0.105827272
v -0.144714147 0.961391091 -0.080355287
v 0.130280480 0.915591240 0.037942298
v 0.115844503 0.912796497 0.045636121
v -0.209404156 0.724883854 0.005732709
v 0.164971262 0.754270315 0.066950485
v 0.169729382 0.773454547 0.065861113
v -0.208424926 0.712863386 0.011705210
v 0.104667678 0.927209854 0.049366709
v -0.039071381 0.723809898 -0.084249541
v -0.036186885 0.711873353 -0.078196816
v 0.012464447 0.746957779 0.030413290
v -0.023122778 0.712853014 -0.073445812
v 0.008823662 0.945620537 0.070276722
v 0.067324936 0.927228272 -0.140611976
v -0.010084749 0.948275685 0.070252940
v -0.026752483 0.740137279 0.032068945
v 0.127526015 0.760501206 0.078696057
v 0.027510231 0.944087207 0.069520697
v 0.079276234 0.726523399 0.063810840
v 0.067271605 0.737099707 0.059640907
v 0.100157641 0.736308157 0.072796404
v 0.049596056 0.884077251 -0.146413714
v 0.123924159 0.742238820 0.080284923
v 0.048599198 0.738762498 0.051608969
v 0.204220325 0.739464104 0.027111676
v 0.100259200 0.905882061 0.053293508
v 0.090198621 0.918103337 0.057469189
v 0.147078142 0.935440421 0.013332196
v 0.103000201 0.753100991 0.075091317
v 0.162560225 0.935779452 -0.007923956
v 0.170857996 0.929350197 -0.033625167
v 0.038859624 0.943019032 0.069008306
v 0.083876953 0.760785878 0.067864522
v 0.104479864 0.772418380 0.076772906
v 0.167118013 0.934925377 -0.053884316
v 0.161498398 0.942371011 -0.069147743
v 0.083768487 0.744422078 0.066733591
v 0.158463478 0.934381664 -0.083483115
v 0.193294019 0.731867969 -0.058529519
v 0.179325059 0.736393809 -0.078803435
v 0.062799014 0.767217696 0.059453465
v 0.151801854 0.735892475 -0.093767658
v 0.137001663 0.935578465 -0.111742757
v 0.065369688 0.751158118 0.059767980
v 0.102030650 0.807032108 0.077260993
v 0.144504756 0.747304082 0.073622718
v 0.181304604 0.742971480 0.061437435
v 0.197241873 0.750112653 0.042384427
v 0.204834148 0.810075760 -0.033717018
v 0.159867719 0.805780530 -0.099388584
v 0.044420246 0.753508866 0.049317401
v 0.142959520 0.795533955 -0.106514513
v 0.210145712 0.746263027 -0.017027786
v 0.210711807 0.744141221 0.005016953
v 0.034699775 0.779322922 0.041810028
v 0.011308571 0.795381665 0.035761975
v 0.074899897 0.922147930 0.062161218
v 0.054030471 0.943047225 0.065974101
v 0.017200306 0.808618069 0.040035579
v 0.030449828 0.871377468 0.063809313
v 0.019616449 0.855605602 0.058912378
v 0.020111773 0.742294371 -0.080883548
v 0.046881810 0.929245591 0.067450203
v 0.036611490 0.771650553 -0.090926185
v 0.027249571 0.908181012 0.067849264
v 0.038311262 0.916978478 0.068061613
v 0.012696637 0.906940639 0.068379380
v 0.035224963 0.727739453 -0.080642976
v 0.055590861 0.774668634 -0.099174254
v 0.069618508 0.852522492 0.054041304
v 0.190965578 0.815040767 0.032361958
v 0.180538699 0.878175616 -0.057139199
v 0.057841592 0.724915981 -0.090887204
v 0.180562019 0.800402820 -0.087345488
v 0.127181873 0.852106452 -0.124191582
v 0.123766519 0.800035000 -0.115190066
v 0.082950033 0.722367704 -0.098727331
v 0.052434541 0.805454612 -0.096176937
v 0.037385087 0.834614456 -0.127441958
v 0.125718832 0.733384967 -0.106124066
v 0.106878676 0.719660163 -0.106454648
v 0.102016270 0.941218853 -0.129333511
v 0.061568327 0.929781079 0.064662740
v 0.058145016 0.912292123 0.065039203
v 0.135071546 0.718790591 -0.098528095
v 0.022865105 0.895776093 0.066776864
v 0.037319787 0.886547863 0.065168723
v 0.080495372 0.940720260 -0.133916602
v 0.159024015 0.719618440 -0.086714938
v 0.174433231 0.852533042 -0.086152397
v 0.023303881 0.876786113 -0.140224412
v 0.181093872 0.765083134 -0.081918217
v 0.180878505 0.719947994 -0.072961636
v 0.016700039 0.797847092 -0.086961038
v 0.192330435 0.717747569 -0.056680571
v 0.030042360 0.848089993 -0.135534152
v 0.204379037 0.723106027 -0.041808076
v 0.209224254 0.732817411 -0.024795892
v 0.057684653 0.825103104 0.054586492
v 0.108368717 0.925205052 -0.133025974
v 0.087823123 0.927375793 -0.139046460
v 0.018122030 0.838378787 -0.121899962
v 0.209684804 0.730872571 -0.006497878
v 0.130048171 0.769134641 -0.110001013
v 0.210495993 0.777916610 -0.001160180
v 0.197546154 0.767915606 0.036906056
v 0.165678054 0.768847585 -0.092859961
v 0.148818254 0.769484997 -0.101062261
v 0.194538504 0.730953753 0.045745023
v 0.127968401 0.902718842 0.038733047
v 0.158665925 0.904470563 0.005963209
v 0.207880542 0.778488994 -0.041927945
v 0.045175500 0.740880609 -0.090525866
v 0.160607845 0.732860208 0.067749336
v 0.077804476 0.843230367 0.063383467
v 0.209047914 0.789865136 0.014107324
v 0.199344307 0.785140038 0.031680968
v 0.091517329 0.780039132 -0.108911887
v 0.139665604 0.727500618 0.074632585
v 0.122721955 0.890096843 -0.134095758
v -0.001789364 0.836133957 0.050859660
v -0.005684461 0.785808444 0.033796631
v 0.049476881 0.778567255 0.054407734
v 0.114987768 0.725241482 0.077993624
v 0.146135792 0.894689381 -0.116009951
v -0.002741294 0.818757355 0.032797847
v -0.001499453 0.847196460 0.055617064
v 0.097033754 0.721660554 0.070556685
v 0.017510315 0.882540524 0.065562449
v -0.001141353 0.881863296 0.065961853
v 0.088556752 0.934756458 0.057114698
v 0.058101881 0.724702895 0.055197179
v 0.085809134 0.951035976 0.056725044
v 0.209394887 0.727283359 0.011601711
v 0.094032183 0.848422408 0.070422262
v 0.036170721 0.941632748 -0.133057743
v 0.040778965 0.726519823 0.038572397
v 0.068980165 0.914644241 -0.145562023
v 0.017461246 0.729495287 0.029403934
v 0.032980837 0.743020833 0.037361346
v 0.042581972 0.863838196 -0.142922059
v 0.012819069 0.869076848 0.064009100
v 0.014895243 0.778101504 0.034117874
v -0.007080149 0.773493171 0.032130472
v -0.002766308 0.810040653 0.039530091
v 0.208788663 0.720858991 -0.019147594
v -0.003676230 0.798366249 0.035793483
v 0.071312927 0.741675138 -0.099274151
v 0.089737043 0.823466778 -0.125409633
v 0.110459164 0.835486412 -0.125869244
v 0.141261324 0.847678661 0.060174048
v 0.087522559 0.818665683 0.069903925
v 0.149641737 0.830258369 0.064127982
v 0.097879454 0.736608982 -0.106523514
v 0.202066585 0.724322557 0.029651415
f 555 540 123
f 389 162 497
f 567 540 568
f 583 104 251
f 463 489 430
f 453 94 255
f 483 484 162
f 446 640 671
f 574 577 251
f 50 244 238
f 52 244 50
f 575 57 53
f 55 249 52
f 55 2 250
f 577 248 563
f 575 437 432
f 57 597 589
f 2 265 262
f 589 592 57
f 262 259 2
f 5 267 262
f 602 606 589
f 5 9 11
f 58 606 610
f 11 272 5
f 12 278 11
f 565 793 8
f 630 60 632
f 13 425 12
f 424 289 160
f 289 424 13
f 643 649 60
f 181 403 179
f 483 206 484
f 163 651 174
f 53 563 558
f 651 65 650
f 163 389 384
f 683 66 65
f 455 558 563
f 165 384 171
f 340 331 34
f 67 66 683
f 206 470 63
f 385 102 856
f 67 702 70
f 344 340 696
f 179 403 406
f 710 70 702
f 16 352 14
f 111 112 59
f 63 64 655
f 18 368 16
f 710 742 753
f 119 112 111
f 394 671 545
f 551 922 903
f 19 375 18
f 753 740 711
f 406 470 179
f 261 615 108
f 545 453 439
f 178 386 530
f 24 386 23
f 72 753 742
f 26 396 24
f 768 765 72
f 119 142 112
f 32 63 470
f 112 142 161
f 399 400 396
f 154 343 182
f 545 671 448
f 399 415 400
f 768 770 765
f 32 406 410
f 418 415 399
f 770 183 777
f 387 300 166
f 415 418 422
f 105 86 299
f 169 42 839
f 170 142 119
f 173 172 705
f 329 638 343
f 134 738 737
f 185 638 329
f 692 661 145
f 150 74 741
f 637 345 873
f 132 145 661
f 170 184 142
f 138 495 760
f 138 136 188
f 136 194 188
f 201 87 194
f 270 87 205
f 216 49 210
f 46 216 724
f 198 184 170
f 43 96 907
f 219 39 218
f 45 43 41
f 224 37 219
f 498 224 514
f 86 105 342
f 225 36 514
f 378 107 110
f 80 233 107
f 22 41 43
f 198 217 849
f 41 581 45
f 103 233 76
f 76 40 103
f 222 217 214
f 678 100 40
f 98 41 22
f 366 41 98
f 40 76 678
f 215 4 284
f 215 98 21
f 537 536 92
f 222 234 217
f 904 537 92
f 460 462 30
f 284 471 366
f 222 239 246
f 586 903 759
f 462 28 30
f 246 234 222
f 454 449 28
f 237 391 924
f 560 319 921
f 246 888 252
f 431 471 282
f 455 560 391
f 319 560 241
f 50 238 793
f 50 566 52
f 52 574 55
f 258 263 510
f 244 52 249
f 55 253 2
f 284 792 657
f 303 670 667
f 303 100 674
f 250 249 55
f 273 274 252
f 251 253 574
f 100 303 301
f 301 570 100
f 104 261 257
f 677 100 678
f 273 285 274
f 257 2 253
f 2 257 265
f 250 2 259
f 570 568 40
f 752 292 293
f 294 296 285
f 285 296 274
f 684 497 679
f 277 274 296
f 440 447 442
f 579 489 463
f 692 329 695
f 259 262 267
f 871 736 360
f 262 271 9
f 40 100 570
f 570 567 568
f 203 128 270
f 310 296 294
f 305 296 310
f 87 270 194
f 9 5 262
f 5 272 600
f 276 9 271
f 9 276 11
f 272 11 278
f 302 323 310
f 568 103 40
f 108 615 89
f 280 11 276
f 11 280 12
f 103 568 540
f 278 12 425
f 323 337 328
f 283 12 280
f 12 283 13
f 283 297 289
f 289 13 283
f 540 561 231
f 425 13 424
f 209 288 205
f 291 125 286
f 346 337 323
f 49 304 288
f 173 350 351
f 297 654 314
f 347 158 864
f 304 47 311
f 47 304 49
f 47 46 481
f 360 361 855
f 501 684 146
f 481 311 47
f 46 39 481
f 343 695 329
f 314 289 297
f 289 314 160
f 481 321 308
f 481 39 321
f 325 122 321
f 325 321 37
f 37 321 39
f 333 160 314
f 324 266 333
f 527 107 231
f 84 121 325
f 36 327 498
f 160 333 34
f 327 120 84
f 36 82 371
f 277 393 390
f 689 34 333
f 34 689 340
f 313 34 331
f 266 334 689
f 334 260 341
f 340 335 331
f 107 527 110
f 54 404 405
f 696 14 344
f 61 401 44
f 38 299 407
f 358 14 348
f 14 358 16
f 344 14 352
f 356 704 712
f 352 16 368
f 413 62 417
f 370 16 358
f 16 370 18
f 175 705 134
f 713 115 110
f 371 27 378
f 27 371 82
f 381 18 370
f 18 381 19
f 368 18 375
f 80 378 27
f 19 381 235
f 19 395 23
f 19 23 178
f 202 506 913
f 23 395 24
f 386 24 396
f 398 24 395
f 24 398 26
f 26 398 220
f 26 412 399
f 396 26 399
f 418 399 412
f 164 180 444
f 444 443 164
f 175 173 705
f 685 84 120
f 422 300 415
f 685 121 84
f 172 169 300
f 172 300 422
f 78 80 27
f 226 365 78
f 89 615 114
f 240 485 309
f 134 737 175
f 226 27 82
f 245 459 452
f 187 186 140
f 243 459 245
f 189 187 130
f 581 466 579
f 467 472 637
f 308 122 240
f 138 579 466
f 430 255 463
f 499 435 430
f 453 430 435
f 435 440 439
f 435 499 450
f 243 479 281
f 308 321 122
f 897 438 584
f 439 453 435
f 243 281 893
f 450 440 435
f 480 859 865
f 440 449 447
f 442 439 440
f 450 449 440
f 447 449 454
f 492 488 493
f 127 458 456
f 449 456 28
f 82 225 708
f 454 28 462
f 28 456 30
f 456 450 127
f 30 456 458
f 225 82 36
f 30 464 460
f 506 507 502
f 126 469 125
f 287 508 509
f 207 507 506
f 410 460 32
f 126 306 477
f 460 464 644
f 644 32 460
f 32 644 63
f 475 31 576
f 470 406 32
f 64 63 644
f 306 309 477
f 125 464 458
f 528 795 511
f 516 523 524
f 655 206 63
f 206 655 484
f 206 474 470
f 162 679 497
f 316 322 822
f 313 160 34
f 37 498 325
f 523 316 534
f 497 684 501
f 501 146 505
f 146 512 503
f 505 503 513
f 263 515 510
f 512 120 115
f 503 512 91
f 517 513 503
f 115 713 91
f 458 203 125
f 315 547 548
f 91 512 115
f 547 330 336
f 91 713 88
f 517 88 522
f 552 548 547
f 532 88 713
f 88 532 519
f 552 336 553
f 522 519 541
f 527 231 561
f 127 128 458
f 538 660 692
f 514 36 498
f 224 498 37
f 538 692 695
f 114 626 631
f 553 342 105
f 219 37 39
f 555 660 561
f 127 450 499
f 891 199 824
f 660 555 661
f 218 39 46
f 199 97 886
f 366 98 284
f 22 21 98
f 41 366 581
f 43 232 22
f 907 232 43
f 96 536 907
f 45 463 255
f 45 581 463
f 255 94 96
f 255 96 45
f 94 453 545
f 448 546 545
f 582 593 594
f 595 584 438
f 216 46 47
f 216 47 49
f 551 640 558
f 558 640 569
f 49 288 209
f 793 565 50
f 569 53 558
f 566 50 565
f 209 210 49
f 841 351 350
f 574 52 566
f 578 53 57
f 612 609 423
f 53 578 563
f 575 53 569
f 597 432 211
f 253 55 574
f 57 575 597
f 578 57 592
f 592 583 578
f 627 609 612
f 584 621 628
f 603 589 606
f 602 589 597
f 634 819 627
f 610 606 602
f 835 318 229
f 626 606 58
f 610 624 58
f 58 624 630
f 632 58 630
f 634 884 869
f 58 632 626
f 60 642 632
f 642 60 649
f 60 630 181
f 650 649 643
f 662 652 645
f 656 628 621
f 621 636 656
f 658 659 204
f 64 644 469
f 466 495 138
f 694 377 700
f 468 471 431
f 663 650 65
f 628 656 668
f 679 162 484
f 65 686 663
f 672 673 659
f 686 65 66
f 683 65 651
f 468 431 478
f 683 693 67
f 685 146 684
f 146 685 512
f 696 340 689
f 66 67 701
f 473 495 478
f 66 698 686
f 702 67 693
f 668 675 687
f 701 698 66
f 405 690 54
f 701 67 70
f 54 690 564
f 14 696 348
f 711 70 710
f 699 70 711
f 702 709 710
f 229 318 236
f 657 282 471
f 710 709 742
f 753 756 740
f 756 753 72
f 742 754 72
f 72 754 768
f 72 765 756
f 766 765 770
f 490 193 496
f 130 772 496
f 770 776 766
f 15 719 168
f 87 201 148
f 183 770 768
f 201 194 136
f 422 705 172
f 633 777 338
f 777 633 150
f 408 74 633
f 638 185 408
f 106 730 258
f 688 379 694
f 275 631 118
f 185 692 145
f 197 750 749
f 736 737 738
f 263 258 730
f 738 741 743
f 185 145 143
f 743 741 744
f 744 741 74
f 744 467 879
f 132 140 145
f 123 132 661
f 741 738 150
f 123 540 567
f 773 772 567
f 738 134 150
f 78 27 226
f 238 623 1
f 264 279 779
f 776 150 134
f 134 705 420
f 695 541 538
f 104 599 261
f 365 681 680
f 761 762 763
f 365 678 76
f 76 78 365
f 411 156 420
f 156 411 220
f 541 519 538
f 220 764 156
f 76 233 78
f 80 78 233
f 168 789 387
f 70 699 701
f 398 395 228
f 434 437 445
f 779 780 887
f 428 432 434
f 926 317 706
f 197 749 745
f 213 6 4
f 279 785 780
f 419 427 428
f 148 201 745
f 454 462 419
f 526 782 783
f 381 734 235
f 410 414 419
f 493 769 913
f 511 4 215
f 4 511 213
f 406 414 410
f 208 731 729
f 21 511 215
f 210 728 727
f 794 800 823
f 511 21 529
f 470 474 179
f 724 218 46
f 227 110 115
f 118 280 275
f 219 218 722
f 806 800 794
f 803 804 256
f 716 778 225
f 224 219 720
f 407 86 690
f 356 734 381
f 389 497 380
f 809 795 528
f 810 806 811
f 717 716 514
f 497 501 380
f 317 697 429
f 810 818 821
f 913 771 202
f 341 698 699
f 373 376 159
f 369 177 373
f 341 260 698
f 260 334 266
f 365 226 681
f 517 522 354
f 828 821 818
f 354 362 364
f 569 640 446
f 519 522 88
f 767 828 818
f 266 324 676
f 602 597 211
f 804 834 256
f 121 240 122
f 345 868 918
f 610 602 211
f 169 839 166
f 427 195 211
f 643 179 174
f 683 651 165
f 693 683 171
f 627 884 634
f 324 654 676
f 846 397 841
f 841 397 374
f 362 709 369
f 580 397 846
f 192 188 190
f 192 499 489
f 128 192 190
f 270 205 203
f 205 288 286
f 291 306 126
f 208 148 733
f 288 304 291
f 304 311 306
f 311 481 308
f 286 125 203
f 283 118 297
f 589 599 592
f 283 280 118
f 227 115 120
f 747 805 732
f 707 226 82
f 107 378 80
f 275 114 631
f 118 646 297
f 89 114 275
f 231 233 103
f 87 209 205
f 816 872 870
f 271 108 89
f 248 560 455
f 248 241 560
f 108 271 265
f 566 565 241
f 86 876 690
f 622 244 619
f 517 91 88
f 574 566 248
f 715 662 889
f 244 249 618
f 249 250 614
f 882 465 718
f 253 251 257
f 774 465 882
f 250 259 608
f 883 494 774
f 921 391 560
f 259 267 604
f 54 564 847
f 251 577 583
f 600 267 5
f 89 276 271
f 503 91 517
f 690 405 407
f 275 276 89
f 892 573 582
f 272 278 596
f 248 577 574
f 280 276 275
f 425 588 591
f 425 424 781
f 781 313 572
f 424 313 781
f 572 585 781
f 314 654 324
f 136 197 201
f 313 557 572
f 237 551 558
f 554 331 335
f 334 341 348
f 760 136 138
f 335 344 549
f 341 699 704
f 348 696 334
f 921 319 7
f 358 348 704
f 344 352 544
f 912 582 594
f 903 586 551
f 352 368 543
f 381 370 356
f 368 375 539
f 788 8 3
f 535 375 178
f 221 795 809
f 828 767 562
f 559 833 920
f 921 920 899
f 546 448 898
f 903 922 836
f 38 903 299
f 235 228 395
f 405 669 407
f 546 92 94
f 400 518 520
f 92 546 904
f 639 35 926
f 386 396 525
f 927 926 33
f 928 605 930
f 200 490 298
f 94 545 546
f 96 92 536
f 927 56 852
f 143 472 408
f 220 412 26
f 400 520 521
f 412 220 411
f 109 113 152
f 920 832 559
f 418 412 411
f 152 113 746
f 387 789 786
f 420 418 411
f 746 161 867
f 418 420 422
f 490 773 298
f 496 772 773
f 394 442 445
f 562 767 832
f 739 636 820
f 204 725 658
f 773 490 496
f 725 223 635
f 447 454 428
f 472 186 637
f 215 284 98
f 189 130 496
f 458 464 30
f 410 462 460
f 125 469 464
f 635 247 487
f 487 269 629
f 641 487 629
f 268 269 487
f 269 393 629
f 390 269 268
f 469 126 64
f 349 761 763
f 655 64 477
f 303 674 670
f 290 393 277
f 611 290 928
f 163 474 483
f 928 307 605
f 635 641 648
f 531 605 533
f 677 674 100
f 477 309 485
f 506 202 207
f 679 485 240
f 240 121 684
f 312 912 594
f 684 679 240
f 121 685 684
f 186 187 345
f 503 505 146
f 912 332 892
f 772 130 132
f 685 120 512
f 501 505 159
f 725 648 658
f 505 513 373
f 513 517 364
f 892 847 564
f 110 527 713
f 714 847 339
f 522 541 154
f 51 714 346
f 231 103 540
f 714 51 404
f 541 695 343
f 567 772 123
f 502 500 506
f 578 577 563
f 867 659 673
f 577 578 583
f 597 575 432
f 592 104 583
f 913 492 493
f 845 167 839
f 599 104 592
f 386 178 23
f 599 603 615
f 110 227 378
f 615 261 599
f 706 402 639
f 603 626 114
f 132 123 772
f 624 610 195
f 409 706 317
f 746 673 682
f 114 615 603
f 120 327 227
f 624 414 403
f 691 429 697
f 642 631 632
f 642 118 631
f 429 433 853
f 646 118 642
f 642 649 646
f 152 682 691
f 682 433 691
f 181 643 60
f 654 297 646
f 122 325 121
f 140 130 187
f 421 416 617
f 123 661 555
f 309 308 240
f 698 260 686
f 702 693 177
f 698 701 699
f 672 441 436
f 291 126 125
f 109 691 697
f 143 140 186
f 874 872 816
f 665 441 672
f 188 192 489
f 665 658 653
f 712 704 699
f 653 451 665
f 927 697 317
f 712 740 734
f 648 461 653
f 178 375 19
f 923 880 116
f 641 461 648
f 740 756 748
f 748 758 228
f 926 706 639
f 479 641 482
f 754 742 362
f 354 754 362
f 407 669 38
f 203 458 128
f 482 629 620
f 756 765 758
f 182 754 154
f 128 127 192
f 254 246 252
f 611 382 620
f 764 398 228
f 499 192 127
f 764 766 156
f 766 776 156
f 930 611 928
f 420 156 776
f 140 132 130
f 788 7 8
f 387 166 168
f 420 776 134
f 136 760 197
f 300 387 415
f 750 197 760
f 745 201 197
f 148 208 209
f 733 148 745
f 258 35 106
f 593 533 605
f 731 208 733
f 236 318 910
f 729 210 208
f 728 210 729
f 727 216 210
f 188 489 579
f 929 573 556
f 724 216 727
f 573 929 582
f 723 218 724
f 722 218 723
f 720 219 722
f 717 224 720
f 514 224 717
f 188 579 138
f 876 556 573
f 707 681 226
f 898 904 546
f 472 143 186
f 212 795 221
f 899 391 921
f 854 925 931
f 213 795 212
f 140 143 145
f 404 54 714
f 833 922 924
f 415 387 786
f 143 408 185
f 238 3 793
f 1 3 238
f 31 799 752
f 622 238 244
f 918 799 515
f 380 376 171
f 915 752 357
f 617 476 421
f 619 244 618
f 618 249 616
f 616 249 614
f 636 739 613
f 388 613 10
f 614 250 608
f 357 791 915
f 383 688 388
f 608 259 607
f 571 438 576
f 295 667 666
f 92 96 94
f 607 259 604
f 372 726 700
f 667 295 303
f 367 726 372
f 604 267 601
f 298 295 207
f 923 875 880
f 363 732 367
f 408 467 74
f 148 209 87
f 298 301 295
f 359 747 363
f 601 267 600
f 359 355 755
f 600 272 598
f 598 272 596
f 353 755 355
f 301 298 773
f 596 278 591
f 747 755 751
f 591 278 425
f 588 425 781
f 388 688 813
f 769 771 913
f 763 353 349
f 202 771 200
f 506 500 913
f 74 467 744
f 773 570 301
f 82 708 707
f 320 647 326
f 500 492 913
f 331 554 557
f 242 910 320
f 344 335 340
f 910 908 647
f 554 335 550
f 239 222 703
f 549 550 335
f 549 344 544
f 166 167 168
f 544 352 543
f 543 368 542
f 17 15 167
f 17 845 157
f 907 536 919
f 157 850 155
f 155 850 153
f 542 368 539
f 150 633 74
f 153 854 151
f 151 854 149
f 149 858 147
f 147 862 144
f 539 375 535
f 759 903 38
f 530 535 178
f 144 862 141
f 141 866 139
f 139 866 137
f 530 386 525
f 137 870 135
f 525 396 521
f 135 870 872
f 133 872 131
f 131 874 129
f 129 923 117
f 923 874 875
f 170 119 902
f 521 396 400
f 20 932 101
f 99 101 932
f 99 886 97
f 95 97 199
f 95 891 93
f 93 896 90
f 518 400 786
f 90 896 85
f 85 901 83
f 83 905 81
f 169 166 300
f 81 905 79
f 77 79 796
f 77 909 75
f 439 394 545
f 75 914 73
f 73 914 71
f 71 916 69
f 442 394 439
f 468 466 366
f 442 447 434
f 7 562 920
f 794 534 811
f 924 899 833
f 434 447 428
f 428 454 419
f 419 462 410
f 38 898 759
f 902 111 897
f 466 468 495
f 526 524 534
f 25 59 56
f 96 43 45
f 895 401 61
f 182 343 338
f 483 389 163
f 483 162 389
f 897 59 25
f 883 894 775
f 776 777 150
f 59 897 111
f 380 384 389
f 774 882 893
f 111 902 119
f 778 708 225
f 501 159 380
f 167 166 839
f 159 505 373
f 176 191 867
f 373 513 369
f 364 369 513
f 850 890 925
f 354 364 517
f 354 522 154
f 177 369 709
f 154 541 343
f 446 445 437
f 376 380 159
f 204 223 725
f 217 198 214
f 214 703 222
f 437 569 446
f 610 211 195
f 414 624 195
f 403 630 624
f 889 718 715
f 160 313 424
f 181 630 403
f 888 246 239
f 179 643 181
f 174 650 643
f 651 650 174
f 163 384 165
f 487 247 268
f 165 651 163
f 171 683 165
f 174 474 163
f 557 313 331
f 475 515 799
f 376 693 171
f 285 273 757
f 177 693 376
f 627 885 884
f 174 179 474
f 509 508 516
f 294 302 310
f 709 702 177
f 709 362 742
f 154 754 354
f 182 338 183
f 780 785 803
f 183 768 182
f 423 413 881
f 183 338 777
f 638 338 343
f 633 638 408
f 590 401 895
f 692 185 329
f 190 188 194
f 515 475 25
f 270 190 194
f 190 270 128
f 195 427 414
f 7 788 562
f 915 878 571
f 877 595 438
f 203 205 286
f 44 48 61
f 474 206 483
f 210 209 208
f 61 62 895
f 413 895 62
f 211 432 427
f 172 42 169
f 398 764 220
f 515 263 918
f 437 575 569
f 228 758 764
f 124 885 426
f 175 871 350
f 84 498 327
f 225 514 716
f 327 371 227
f 918 263 730
f 898 448 759
f 371 327 36
f 839 374 890
f 227 371 378
f 451 441 665
f 228 235 748
f 444 180 457
f 233 231 107
f 187 868 345
f 759 448 586
f 189 292 868
f 734 748 235
f 653 461 826
f 924 922 237
f 292 193 196
f 446 671 394
f 461 641 479
f 922 551 237
f 391 237 455
f 482 641 629
f 918 868 799
f 196 200 293
f 771 293 200
f 558 455 237
f 281 287 894
f 894 893 281
f 248 566 241
f 257 251 104
f 255 430 453
f 257 261 265
f 509 775 287
f 260 266 676
f 509 516 524
f 265 261 108
f 523 516 531
f 322 316 523
f 273 252 888
f 265 271 262
f 811 534 316
f 316 315 811
f 676 686 260
f 366 466 581
f 478 495 468
f 330 547 315
f 547 336 552
f 366 471 468
f 760 495 473
f 657 471 284
f 336 342 553
f 553 900 552
f 832 900 553
f 865 878 791
f 792 284 4
f 31 571 576
f 286 288 291
f 438 571 877
f 906 864 863
f 4 790 792
f 8 7 319
f 303 295 301
f 291 304 306
f 570 773 567
f 739 617 392
f 617 416 392
f 306 311 309
f 309 311 308
f 170 628 668
f 613 739 10
f 739 392 10
f 656 675 668
f 656 815 675
f 680 678 365
f 813 613 388
f 324 333 314
f 687 198 668
f 379 688 383
f 295 666 207
f 815 656 636
f 377 694 379
f 325 498 84
f 689 333 266
f 334 696 689
f 700 377 372
f 861 834 860
f 703 721 239
f 732 726 367
f 834 861 256
f 348 341 704
f 747 732 363
f 356 358 704
f 735 888 721
f 370 358 356
f 735 264 757
f 735 273 888
f 755 747 359
f 369 364 362
f 353 763 755
f 647 761 326
f 761 349 326
f 376 373 177
f 779 757 264
f 780 779 279
f 384 380 171
f 235 395 19
f 736 871 737
f 562 788 917
f 910 647 320
f 785 804 803
f 414 406 403
f 256 323 803
f 813 675 815
f 415 786 400
f 427 419 414
f 422 420 705
f 432 428 427
f 430 489 499
f 587 580 590
f 437 434 432
f 445 442 434
f 446 394 445
f 671 586 448
f 819 609 627
f 456 449 450
f 455 563 248
f 865 791 769
f 581 579 463
f 645 652 817
f 644 464 469
f 652 662 715
f 874 923 129
f 715 664 652
f 694 812 688
f 477 64 126
f 750 760 473
f 485 655 477
f 465 715 718
f 507 207 666
f 465 774 494
f 865 486 480
f 812 675 813
f 485 484 655
f 207 202 298
f 883 504 825
f 493 865 769
f 783 782 504
f 679 484 485
f 202 200 298
f 196 490 200
f 196 193 490
f 877 859 476
f 302 803 323
f 189 496 193
f 814 806 810
f 168 719 789
f 821 814 810
f 391 899 924
f 713 527 532
f 467 408 472
f 302 294 887
f 786 787 518
f 538 519 532
f 561 532 527
f 926 35 33
f 538 532 660
f 540 555 561
f 551 586 640
f 319 241 565
f 660 532 561
f 113 161 746
f 161 176 867
f 8 319 565
f 223 247 635
f 781 585 784
f 620 629 393
f 887 780 302
f 269 390 393
f 671 640 586
f 781 784 588
f 599 589 603
f 393 290 611
f 626 603 606
f 928 290 305
f 623 238 622
f 625 1 623
f 774 893 894
f 312 332 912
f 626 632 631
f 332 339 847
f 847 892 332
f 757 887 285
f 847 714 54
f 793 3 8
f 732 807 726
f 858 931 857
f 675 812 687
f 168 167 15
f 273 735 757
f 920 921 7
f 402 385 639
f 167 845 17
f 638 633 338
f 646 649 663
f 650 663 649
f 845 850 157
f 888 239 721
f 663 654 646
f 706 409 48
f 850 854 153
f 676 654 663
f 429 409 317
f 661 692 660
f 854 858 149
f 676 663 686
f 858 862 147
f 433 429 691
f 678 680 677
f 699 711 712
f 712 734 356
f 711 710 753
f 862 866 141
f 712 711 740
f 682 436 827
f 734 740 748
f 866 870 137
f 214 687 808
f 748 756 758
f 664 816 652
f 872 133 135
f 198 687 214
f 754 182 768
f 872 874 131
f 665 659 658
f 758 765 766
f 658 648 653
f 766 764 758
f 776 770 777
f 668 198 170
f 117 923 116
f 787 786 789
f 929 330 822
f 533 822 322
f 556 336 330
f 531 322 523
f 899 920 833
f 662 444 889
f 346 323 256
f 491 482 620
f 116 880 911
f 911 20 116
f 382 491 620
f 911 932 20
f 932 886 99
f 645 443 662
f 930 382 611
f 382 930 516
f 886 824 199
f 605 531 930
f 491 508 848
f 628 170 902
f 256 347 346
f 482 848 479
f 891 896 93
f 347 256 861
f 820 617 739
f 866 819 817
f 605 594 593
f 896 901 85
f 929 593 582
f 612 881 885
f 901 905 83
f 826 451 653
f 451 457 180
f 672 659 665
f 441 180 851
f 79 905 796
f 436 673 672
f 436 851 827
f 909 914 75
f 682 673 436
f 914 916 71
f 584 902 897
f 876 86 342
f 69 916 1
f 829 433 827
f 700 808 694
f 788 3 916
f 853 829 417
f 409 61 48
f 402 48 855
f 870 817 816
f 855 29 360
f 874 816 664
f 385 361 102
f 830 880 875
f 576 897 25
f 819 634 817
f 68 69 1
f 106 856 730
f 743 736 738
f 910 242 236
f 862 857 819
f 744 879 102
f 880 830 831
f 840 528 843
f 401 846 44
f 803 302 780
f 769 791 357
f 878 915 791
f 831 911 880
f 918 873 345
f 576 25 475
f 799 31 475
f 841 29 846
f 879 856 102
f 106 639 385
f 573 564 876
f 911 831 802
f 342 556 876
f 337 339 332
f 25 510 515
f 350 29 841
f 564 573 892
f 892 582 912
f 510 25 56
f 864 906 837
f 312 328 337
f 929 822 593
f 33 35 258
f 871 360 29
f 840 860 835
f 864 158 863
f 29 855 44
f 916 914 917
f 808 687 812
f 594 307 312
f 307 305 328
f 916 917 788
f 33 56 927
f 840 835 809
f 307 594 605
f 736 743 361
f 531 516 930
f 290 277 305
f 852 109 927
f 318 835 860
f 21 844 529
f 852 59 112
f 620 393 611
f 102 743 744
f 112 113 852
f 751 763 762
f 647 785 762
f 805 747 751
f 252 268 254
f 230 835 229
f 487 641 635
f 637 879 467
f 124 851 164
f 809 230 221
f 161 142 176
f 807 732 805
f 247 234 254
f 230 809 835
f 808 700 807
f 345 637 186
f 176 184 191
f 812 694 808
f 204 849 223
f 849 204 191
f 813 688 812
f 635 648 725
f 849 184 198
f 815 613 813
f 815 636 613
f 217 223 849
f 659 191 204
f 217 234 223
f 191 184 849
f 859 480 421
f 795 213 511
f 245 461 243
f 878 865 859
f 802 886 932
f 191 659 867
f 452 718 889
f 223 234 247
f 176 142 184
f 246 254 234
f 865 493 486
f 293 771 357
f 268 247 254
f 771 769 357
f 805 264 735
f 268 252 390
f 161 113 112
f 486 493 488
f 390 252 274
f 867 673 746
f 264 751 279
f 274 277 390
f 746 682 152
f 281 848 287
f 827 433 682
f 808 703 214
f 152 691 109
f 109 852 113
f 476 859 421
f 296 305 277
f 476 595 877
f 305 307 928
f 196 293 292
f 595 476 820
f 726 807 700
f 752 293 357
f 307 328 312
f 310 328 305
f 56 59 852
f 292 752 799
f 328 310 323
f 886 825 824
f 312 337 332
f 807 703 808
f 891 824 782
f 193 292 189
f 844 21 22
f 429 853 409
f 109 697 927
f 56 33 510
f 105 559 553
f 339 337 346
f 346 714 339
f 51 346 347
f 317 926 927
f 564 690 876
f 863 844 232
f 799 868 292
f 510 33 258
f 843 528 529
f 844 863 842
f 861 840 843
f 861 158 347
f 861 860 840
f 752 915 31
f 158 843 842
f 843 158 861
f 842 529 844
f 919 837 906
f 906 232 907
f 809 528 840
f 730 873 918
f 730 856 873
f 873 856 879
f 856 106 385
f 817 634 645
f 837 919 838
f 817 652 816
f 919 906 907
f 919 536 537
f 743 102 361
f 904 669 838
f 898 669 904
f 669 898 38
f 703 807 721
f 405 404 838
f 669 405 838
f 922 833 836
f 294 285 887
f 361 385 402
f 869 645 634
f 830 875 664
f 916 3 1
f 864 51 347
f 402 855 361
f 909 801 914
f 397 890 374
f 48 44 855
f 796 909 77
f 879 637 873
f 901 798 905
f 580 925 397
f 48 402 706
f 896 800 901
f 891 823 896
f 409 62 61
f 853 62 409
f 881 413 417
f 417 62 853
f 86 407 299
f 459 893 882
f 199 891 95
f 830 465 831
f 829 426 417
f 426 829 124
f 426 881 417
f 124 829 827
f 433 829 853
f 886 802 825
f 774 894 883
f 851 124 827
f 164 884 124
f 441 851 436
f 180 164 851
f 443 869 164
f 911 802 932
f 715 830 664
f 874 664 875
f 736 361 360
f 451 180 441
f 457 452 889
f 889 444 457
f 866 817 870
f 106 35 639
f 459 718 452
f 826 452 457
f 452 826 245
f 451 826 457
f 862 819 866
f 858 857 862
f 461 245 826
f 459 882 718
f 479 243 461
f 854 931 858
f 850 925 854
f 846 401 580
f 845 890 850
f 491 848 482
f 848 281 479
f 825 494 883
f 382 508 491
f 900 832 767
f 508 287 848
f 896 823 800
f 839 890 845
f 504 782 824
f 42 374 839
f 516 508 382
f 908 910 318
f 534 524 523
f 552 818 548
f 42 172 173
f 901 800 798
f 818 552 900
f 533 322 531
f 871 175 737
f 868 187 189
f 22 232 844
f 593 822 533
f 822 315 316
f 929 556 330
f 330 315 822
f 838 919 537
f 904 838 537
f 318 860 834
f 908 318 834
f 465 830 715
f 556 342 336
f 105 836 559
f 833 559 836
f 29 44 846
f 908 834 804
f 562 917 828
f 299 836 105
f 818 900 767
f 832 553 559
f 562 832 920
f 811 315 548
f 828 801 821
f 801 828 917
f 821 797 814
f 836 299 903
f 401 590 580
f 797 821 801
f 905 798 796
f 796 814 797
f 810 548 818
f 814 798 806
f 798 814 796
f 909 796 797
f 811 548 810
f 413 587 590
f 404 51 837
f 51 864 837
f 837 838 404
f 909 797 801
f 529 842 843
f 158 842 863
f 232 906 863
f 800 806 798
f 529 528 511
f 794 811 806
f 785 908 804
f 785 647 908
f 859 877 878
f 526 534 794
f 877 571 878
f 571 31 915
f 173 351 42
f 524 783 509
f 350 173 175
f 29 350 871
f 823 526 794
f 783 524 526
f 526 823 782
f 42 351 374
f 841 374 351
f 504 775 783
f 509 783 775
f 782 823 891
f 885 124 884
f 887 757 779
f 914 801 917
f 426 885 881
f 890 397 925
f 825 504 824
f 775 504 883
f 925 587 931
f 587 925 580
f 802 494 825
f 785 279 762
f 494 831 465
f 831 494 802
f 894 287 775
f 590 895 413
f 438 897 576
f 884 164 869
f 762 279 751
f 423 931 587
f 587 413 423
f 931 423 857
f 762 761 647
f 617 820 476
f 595 820 621
f 751 755 763
f 893 459 243
f 751 264 805
f 609 857 423
f 423 881 612
f 662 443 444
f 721 805 735
f 621 584 595
f 857 609 819
f 443 645 869
f 612 885 627
f 636 621 820
f 628 902 584
f 805 721 807
