# avbd fit, rung f600-i32-s300-settle10 of Gate 6d (body space, fit phase only)
v -0.003337941 0.694554448 0.024669947
v -0.102661349 0.711510241 0.071472824
v -0.003130720 0.708193600 0.026900593
v 0.001997121 0.945450425 0.070534118
v -0.152342051 0.697374701 0.067745574
v 0.000528294 0.965592504 0.070999339
v -0.002779908 0.734845340 0.031548414
v -0.002900998 0.721569598 0.029456940
v -0.152966246 0.712720037 0.068124436
v 0.150377065 0.953066051 -0.081475824
v -0.172741726 0.709124327 0.060491513
v -0.192709416 0.710941851 0.047066607
v -0.201032236 0.711959362 0.029890805
v -0.178035036 0.707027197 -0.074349150
v 0.009869713 0.684991658 -0.064039052
v -0.159568369 0.703680038 -0.083588324
v 0.024326105 0.684142590 -0.066732585
v -0.141889095 0.704237878 -0.092136160
v -0.124583818 0.708199620 -0.101066247
v 0.202833086 0.674823999 0.017256962
v 0.001378855 0.918973565 0.069439925
v 0.000931836 0.904861748 0.068651870
v -0.105137371 0.703575313 -0.103172861
v -0.090614557 0.709860921 -0.099328324
v 0.102095142 0.860679269 -0.140732571
v -0.075665444 0.718068004 -0.095714599
v -0.134818345 0.927663147 -0.117226623
v -0.123010054 0.855766952 0.060688160
v 0.039526232 0.764016628 -0.094324775
v -0.135233685 0.864465714 0.054425836
v 0.074239440 0.888699174 -0.148486316
v -0.172017992 0.848616719 0.042470183
v 0.092187539 0.826315701 -0.129149586
v -0.207915634 0.706578135 -0.025706450
v 0.075421527 0.821268857 -0.121031687
v -0.157404035 0.930497169 -0.088492028
v -0.169939190 0.926936448 -0.046738558
v 0.013467876 0.816110432 0.041788898
v -0.169347852 0.929971874 -0.026461631
v -0.079817697 0.925839126 -0.140951142
v -0.023759129 0.907580972 0.067861393
v 0.011786088 0.730943739 -0.081133544
v -0.014892355 0.890893757 0.066590846
v 0.062067639 0.767128944 -0.100100018
v -0.033694644 0.891795814 0.065831289
v -0.162782803 0.933850467 -0.008139855
v -0.159266695 0.921420753 0.002095622
v 0.072866008 0.783645213 -0.104306556
v -0.146966457 0.923951149 0.017675726
v -0.038163088 0.711085320 0.039460760
v 0.052814938 0.869757056 0.061594151
v -0.056116175 0.710970461 0.052958358
v -0.070019573 0.780980945 0.062499832
v 0.053691082 0.837699533 0.056216575
v -0.076944388 0.710233986 0.061239026
v 0.108991362 0.838652134 -0.132099837
v -0.092883900 0.778750539 0.071715124
v -0.163303211 0.788081944 0.066785440
v 0.125001714 0.854484439 -0.127756745
v -0.194356054 0.786874652 0.040051304
v 0.083379336 0.769122005 -0.106051639
v 0.104008198 0.765577316 -0.111213364
v -0.180457518 0.856550872 0.025126183
v -0.173231110 0.871781230 0.022196567
v -0.208899707 0.784393668 -0.025762457
v -0.202583477 0.778245449 -0.051399030
v -0.192388564 0.787551403 -0.068187401
v 0.002825136 0.688006580 0.013751728
v 0.013046861 0.683156490 0.021716092
v -0.180507258 0.775901973 -0.085466921
v 0.026823398 0.682627618 0.026958669
v -0.123388469 0.783382058 -0.114524283
v 0.039667308 0.681639075 0.034700368
v -0.021726362 0.811694622 -0.106139675
v 0.052106194 0.680691242 0.043289978
v -0.099698946 0.928229630 -0.135407835
v 0.063781723 0.679601789 0.053547997
v -0.117650352 0.929880738 -0.127947003
v 0.077922463 0.679095566 0.059262108
v -0.125813782 0.916939437 -0.128468841
v 0.092118442 0.678581953 0.064998053
v -0.142600402 0.940803528 -0.104324400
v 0.106228925 0.678017855 0.070725940
v -0.170656368 0.901137054 -0.074361555
v 0.119967557 0.677318335 0.076291442
v 0.041110806 0.804488659 0.050020896
v -0.120913759 0.925497890 0.042013548
v -0.129864454 0.854189992 -0.123559430
v -0.152991384 0.738476038 0.070578799
v 0.135814756 0.676822782 0.072990760
v -0.148997813 0.861887932 -0.113693736
v -0.015375054 0.855533421 0.059253406
v 0.149857149 0.677168310 0.067255117
v -0.033638794 0.858286560 0.059584446
v 0.163964704 0.677010000 0.061424535
v -0.021031132 0.873213291 0.064249985
v 0.177852213 0.676453888 0.055630784
v -0.014132062 0.922954381 0.069121078
v 0.189802796 0.675906599 0.044099949
v -0.066305898 0.938553810 -0.136347532
v 0.196163476 0.675635815 0.030589487
v 0.025695598 0.812393486 -0.106815316
v -0.092987984 0.912150979 -0.144019172
v -0.101770297 0.747103631 0.073609285
v 0.034749992 0.787747979 0.047635406
v 0.057693504 0.821852028 -0.119887039
v -0.123613372 0.901099801 -0.133435011
v -0.135010153 0.735277772 0.076558806
v 0.131092370 0.821943879 -0.112050988
v -0.138534427 0.891251564 -0.124395266
v 0.140884072 0.865006328 -0.121445313
v 0.144333005 0.850682914 -0.109590568
v 0.145111531 0.832886517 -0.105587088
v -0.158243686 0.754477203 0.068596758
v -0.152008474 0.882089972 -0.111838482
v 0.203787372 0.674129009 0.001803328
v 0.203814507 0.673341870 -0.012092251
v -0.195820063 0.746582508 0.044848911
v 0.156359300 0.866436005 -0.107987545
v -0.163699970 0.892035604 -0.092835940
v -0.174580216 0.890703499 -0.056255013
v -0.172999039 0.899594665 -0.040365618
v -0.059497278 0.880937696 -0.148482263
v 0.160711899 0.760540426 -0.093729988
v -0.147647485 0.888488472 0.036979791
v -0.164091766 0.885632992 0.021499610
v -0.104911804 0.880534530 0.053482465
v -0.115589343 0.894427001 0.054733891
v 0.203867868 0.672758877 -0.026876956
v -0.022155402 0.870981336 -0.142732859
v 0.196607575 0.672344565 -0.041343350
v -0.042420492 0.867340565 -0.144097462
v 0.187670127 0.671993792 -0.053755909
v -0.026242709 0.771612644 -0.093091145
v 0.178447723 0.671407163 -0.065826036
v -0.093030304 0.930175602 0.057706445
v 0.164703920 0.671325266 -0.074111246
v -0.075322434 0.926192284 0.063149102
v 0.150778562 0.671288610 -0.080205865
v -0.023249902 0.854876220 -0.138823465
v 0.136869565 0.671067774 -0.086266711
v 0.163561389 0.858694732 -0.094465546
v -0.024822971 0.839844525 -0.131059244
v 0.123946212 0.671453774 -0.091983460
v -0.044766903 0.850112736 -0.140114158
v -0.174590051 0.864143670 -0.079590172
v 0.108796418 0.671862841 -0.096986569
v -0.122231625 0.942044735 0.046874866
v 0.093977094 0.674215972 -0.092125654
v -0.031342153 0.792881429 -0.098125577
v 0.079942733 0.676448166 -0.087113462
v 0.147666276 0.816900611 -0.105060257
v 0.065938160 0.678538322 -0.082058348
v -0.108528174 0.820765138 -0.117441967
v 0.051997829 0.680474162 -0.076983288
v -0.065554313 0.753993034 -0.099355079
v 0.038370788 0.682560384 -0.071213156
v 0.044280648 0.899017811 0.067047015
v -0.185681343 0.837795079 -0.073313542
v -0.208499148 0.713246703 -0.004608474
v 0.161395103 0.841039538 -0.097574279
v -0.195248306 0.853853822 -0.025723260
v -0.203361511 0.824191868 -0.015608857
v 0.181525633 0.754864991 -0.079154037
v -0.204306409 0.813009739 -0.034508705
v -0.004483248 0.710055053 -0.073444672
v 0.013801376 0.699667335 -0.070354141
v -0.004638118 0.697543085 -0.068371631
v -0.004299642 0.722636878 -0.078311205
v 0.166561767 0.878811836 -0.090081796
v -0.199033558 0.816493332 -0.054499984
v -0.004168425 0.735641599 -0.081979744
v -0.003984321 0.748598278 -0.085904852
v -0.207286477 0.812431633 0.004086926
v -0.003779746 0.761903405 -0.088736095
v 0.175766334 0.848668933 -0.085479930
v -0.180489600 0.811504364 -0.087230489
v -0.113204792 0.689213395 -0.101063386
v -0.192088798 0.819538891 0.028467888
v 0.191491693 0.770388842 -0.065659612
v -0.190198421 0.803901315 0.039626211
v -0.094387889 0.808283508 -0.112766482
v -0.079994738 0.797214329 -0.108339176
v 0.176519260 0.864064097 -0.075460985
v -0.046542909 0.834707856 -0.130450457
v -0.001545320 0.845521808 -0.133318186
v -0.001141564 0.858259678 -0.138950869
v -0.086785510 0.911584854 0.060920727
v -0.000745251 0.871850312 -0.142133594
v -0.104932286 0.906268418 0.057385229
v 0.185866565 0.844976604 -0.069354877
v -0.093736246 0.894639313 0.055484574
v -0.000360120 0.885802090 -0.143468305
v -0.106288746 0.920549273 0.052562248
v -0.144209296 0.809309185 0.068773806
v 0.000024309 0.899871528 -0.142852142
v -0.097246736 0.945002854 0.051114328
v 0.175908878 0.882521808 -0.062201034
v 0.173479989 0.692500651 0.059600197
v 0.000363757 0.913745403 -0.140167445
v -0.107741132 0.934813380 0.046657156
v 0.000695301 0.927047849 -0.135089457
v -0.129647776 0.896930218 0.041420706
v 0.196776137 0.840189099 -0.051584475
v -0.132774308 0.913988888 0.035850849
v -0.194663703 0.851177871 0.010858022
v 0.001234554 0.939116657 -0.127163559
v -0.130248934 0.940372348 0.035136513
v -0.141040906 0.930236995 0.039286971
v -0.140604958 0.939040482 0.020725042
v -0.125648305 0.803187549 0.074844889
v 0.036166526 0.960547090 0.069547839
v 0.015203048 0.965616584 0.070439689
v 0.173551366 0.894555211 -0.038488068
v 0.001807035 0.933029473 0.070127830
v -0.153234720 0.937781930 0.006552084
v 0.184366256 0.875345230 -0.038275614
v -0.164139777 0.943770707 -0.018396731
v -0.167286903 0.942290306 -0.035479493
v -0.073897883 0.736057162 -0.099388391
v 0.024720116 0.960249782 0.069796339
v 0.179810122 0.887132287 -0.020600427
v 0.194720715 0.853939652 -0.030792868
v -0.165624589 0.941501498 -0.053737711
v -0.151680261 0.946710765 -0.086576991
v -0.125744134 0.943715692 -0.117083743
v -0.152393252 0.901149929 -0.108366296
v -0.105188109 0.737512410 -0.109239146
v 0.061796546 0.958080411 0.063206129
v 0.047125507 0.960009098 0.067056358
v -0.104488887 0.896625996 -0.141723856
v 0.000574780 0.890912056 0.067070618
v -0.110349283 0.914097428 -0.136071965
v 0.188276976 0.869907379 -0.016853923
v -0.124774776 0.728519380 -0.106069945
v 0.074568227 0.957719028 0.059968434
v -0.023300724 0.777882099 0.042153258
v -0.024831403 0.697365284 0.030083796
v 0.174499303 0.896456242 -0.004216993
v -0.180246249 0.885292411 -0.032609988
v -0.035062451 0.737154782 0.041085467
v 0.086588904 0.961950898 0.055161238
v 0.210704640 0.777322948 0.005568610
v -0.046880536 0.695866942 0.040866472
v 0.210078448 0.776469827 -0.013776618
v 0.182826400 0.882747293 -0.000091756
v 0.196445420 0.853995800 -0.006111316
v -0.048542257 0.746463418 0.052041583
v -0.067359366 0.694708467 0.056008417
v -0.089873277 0.695522368 0.065144196
v -0.084600270 0.738778949 0.066216610
v 0.176248774 0.873048604 0.019183166
v -0.086436614 0.723790526 0.066006154
v 0.189343855 0.868386269 0.003731638
v -0.042985193 0.875772953 0.064209044
v 0.082854643 0.896587014 0.060355909
v -0.102424756 0.730498791 0.072783291
v 0.071044713 0.831126511 -0.130582407
v -0.111835383 0.693884432 0.073755875
v -0.205043837 0.747616112 -0.046640866
v -0.117402412 0.740394056 0.079388417
v -0.131331131 0.707617700 0.076468892
v 0.063196048 0.841057420 -0.140221134
v 0.139371380 0.912806511 0.032783933
v -0.119998977 0.723508775 0.079188749
v -0.209084824 0.734770358 -0.033627369
v -0.135664225 0.691140175 0.074084237
v 0.188308358 0.855900645 0.015858147
v 0.186987042 0.842296422 0.027160203
v -0.117246732 0.909023643 0.045174323
v -0.142471269 0.723556995 0.072841093
v -0.168791920 0.691547990 0.060909908
v 0.165238559 0.888166070 0.029690493
v 0.163549483 0.870068371 0.036665943
v -0.174232110 0.742113471 0.063314557
v -0.164503008 0.725793183 0.065149873
v 0.163294658 0.854624927 0.049234293
v -0.186837032 0.694024265 0.053530414
v 0.133055449 0.924729824 0.051362522
v -0.185182601 0.726895332 0.057829201
v 0.202776358 0.773504019 0.026923094
v -0.037253279 0.956258118 0.069278322
v -0.198536128 0.727518976 0.037068419
v -0.016250318 0.941598594 0.069844842
v 0.150942549 0.883323073 0.040784329
v -0.142587215 0.902283490 0.030926239
v 0.192553163 0.768921554 0.046560090
v -0.151671931 0.915448844 0.031363782
v -0.207654834 0.721822381 0.017321492
v 0.158864349 0.839279294 0.059524525
v -0.159202203 0.900650501 0.025962774
v 0.023916064 0.884234071 -0.143906787
v 0.025412638 0.903247833 -0.143046513
v 0.136448517 0.880133986 0.048713442
v -0.025222749 0.939888597 -0.132258072
v 0.147746980 0.867360234 0.050921898
v -0.206597656 0.739794850 0.021990804
v -0.019751390 0.922665417 -0.138196081
v 0.022606419 0.802357197 0.044124454
v -0.019532811 0.720151842 -0.079104342
v -0.041477144 0.927962780 -0.138953403
v 0.120529160 0.887972176 0.050842397
v -0.047149625 0.943907857 -0.133205131
v -0.153896555 0.908474445 0.012123725
v 0.139922723 0.850192249 0.059481211
v -0.167000711 0.896402657 0.008692143
v 0.125845343 0.835839391 0.067624301
v -0.171859071 0.901288986 -0.022558661
v -0.177221224 0.892536044 -0.009504577
v 0.126265958 0.869044423 0.054856349
v -0.164464921 0.907248318 -0.003972854
v 0.106721774 0.842330098 0.069689058
v -0.206818536 0.694281816 -0.010649489
v -0.209892958 0.730816662 0.000718402
v 0.095021971 0.765477300 0.072612293
v 0.114187256 0.764743328 0.080404617
v 0.102648094 0.803584278 -0.112329349
v 0.074856535 0.942992032 0.062836096
v -0.018535847 0.736851692 0.033967964
v 0.097131997 0.969562352 0.048815805
v -0.172971085 0.914881587 -0.034181792
v 0.124217130 0.781047702 0.078193940
v 0.102198184 0.877760291 0.056852333
v -0.209914714 0.738208890 -0.014808397
v -0.173590183 0.910314381 -0.054865867
v 0.112307154 0.969795108 0.040961780
v -0.161763579 0.911940277 -0.090270989
v 0.116830505 0.855566859 0.062562972
v -0.066316724 0.830458462 -0.130070537
v 0.083934963 0.781750083 0.068710491
v -0.205282807 0.689991236 -0.033969432
v 0.087132320 0.842615604 0.069138952
v -0.208962649 0.723140955 -0.019993188
v -0.197485253 0.730436206 -0.053110994
v -0.193383008 0.686743557 -0.049777318
v 0.065040514 0.777960658 0.060772110
v 0.095869973 0.858920097 0.063152276
v -0.068361297 0.810340881 -0.110841773
v 0.078927219 0.854205012 0.061935067
v -0.198489308 0.701849103 -0.046078369
v -0.190437108 0.743293226 -0.065629490
v 0.052272432 0.790416956 0.056008391
v -0.082947038 0.820845723 -0.122071780
v -0.183497936 0.693152428 -0.063995473
v 0.019152548 0.848849952 -0.135787621
v 0.077177987 0.873421848 0.061705451
v 0.060899425 0.888510883 0.063125335
v -0.184568822 0.725509286 -0.069654241
v 0.096387632 0.958642185 0.050534118
v 0.018152932 0.756469548 -0.088772811
v 0.019296940 0.742467284 -0.085730247
v -0.166104436 0.689786136 -0.077246591
v 0.105064191 0.963147819 0.044963241
v -0.130075619 0.822584629 -0.112886012
v 0.128309906 0.958564162 0.031387880
v -0.156857818 0.731380999 -0.090786085
v 0.048366096 0.912017941 -0.144519344
v -0.169135332 0.720437169 -0.082392499
v 0.138449371 0.953246891 0.020344948
v 0.032311477 0.780135095 -0.095501706
v 0.035916578 0.797020912 -0.099583827
v -0.144255057 0.810106754 -0.106913291
v 0.148220301 0.951810002 0.006942532
v -0.148096502 0.826375008 -0.105303250
v -0.107607320 0.944335938 -0.126325607
v -0.033954054 0.926863968 0.068472847
v 0.157676816 0.955248535 -0.007837108
v -0.147114217 0.688338876 -0.085488990
v -0.163360298 0.818676949 -0.098787531
v -0.153448850 0.716332793 -0.089293465
v -0.149486333 0.920491576 -0.105584823
v 0.154597834 0.946972847 -0.002180672
v -0.179098427 0.829157233 -0.088113651
v 0.031298406 0.729438066 -0.084390387
v -0.129738122 0.690250218 -0.093900271
v -0.189130664 0.822122276 -0.071375586
v 0.161935002 0.951231122 -0.021869283
v -0.139532298 0.909625649 -0.119887747
v 0.162578538 0.951401889 -0.036606103
v -0.195607960 0.836632133 -0.055450927
v -0.139688939 0.721549869 -0.097210690
v 0.171931431 0.802157283 0.062814482
v 0.159868136 0.952410042 -0.052466281
v -0.201499581 0.826643169 -0.038643815
v 0.047344662 0.811384201 -0.108090475
v -0.094580270 0.692103267 -0.097204171
v -0.021052983 0.703918159 -0.073564723
v 0.157370657 0.952386498 -0.066240311
v -0.199353606 0.840180278 -0.031700380
v 0.175621241 0.855771720 0.032376148
v -0.018580148 0.763397038 0.037802022
v 0.142691031 0.954768538 -0.092951901
v 0.176664263 0.836458564 0.044289403
v -0.060040496 0.831045985 0.059232391
v -0.106177449 0.719246626 -0.106638037
v -0.075730100 0.698227167 -0.091811493
v 0.051467039 0.731023192 -0.090609565
v -0.089982584 0.727835059 -0.102869414
v -0.058728568 0.712903500 -0.088795088
v -0.055816103 0.696320951 -0.083520144
v 0.073624119 0.753399074 -0.101115026
v 0.059563152 0.797729135 -0.103521869
v -0.178920269 0.814777672 0.051706564
v 0.042572565 0.851697147 0.056954153
v 0.035361819 0.835129559 0.051510356
v -0.176340193 0.831569791 0.046499901
v 0.030519534 0.818781018 0.045394331
v -0.028907653 0.824905515 -0.119038761
v 0.098056413 0.784449458 -0.110821344
v -0.157210141 0.841366589 0.058527160
v -0.057682771 0.740704715 -0.095059216
v -0.062494855 0.727276087 -0.093456790
v 0.105397001 0.743903041 -0.109443143
v -0.156687349 0.823109746 0.062895223
v -0.038547721 0.713499904 -0.082069911
v 0.131002694 0.955271900 -0.104683660
v 0.124656424 0.759075940 -0.110877737
v -0.046366967 0.729696095 -0.088912316
v -0.136580050 0.833777726 0.065519586
v -0.042023145 0.752789140 -0.093089774
v 0.117155328 0.956550241 -0.112962224
v -0.028000960 0.734765172 -0.085096531
v 0.113455072 0.723110557 -0.108845487
v -0.207785100 0.704906106 0.012512404
v -0.198149040 0.695154309 0.033225387
v 0.140691996 0.755578578 -0.102494277
v -0.129707158 0.818811119 0.071200758
v -0.113401577 0.828475595 0.072193585
v 0.121692970 0.793417335 -0.115599453
v -0.063826099 0.878355980 0.064443134
v -0.051247161 0.954493701 0.065963529
v -0.102868557 0.809991658 0.077113152
v 0.141468301 0.787986398 -0.106625818
v -0.091730610 0.824540734 0.071251824
v -0.074689597 0.864498019 0.061977737
v 0.178579137 0.793519974 -0.090183094
v -0.080426216 0.809852123 0.066078141
v 0.118148886 0.898216426 -0.135624245
v -0.065934181 0.847882569 0.062163729
v -0.086675443 0.852176487 0.065768726
v 0.190255687 0.787865996 -0.071216173
v -0.080030598 0.837063015 0.065473519
v 0.188098580 0.741012633 -0.067748807
v 0.195830733 0.753658116 -0.058936298
v -0.074635684 0.823209763 0.063411102
v -0.060951699 0.813852966 0.056435831
v -0.099821366 0.840647578 0.071380094
v -0.023604216 0.826185822 0.047345478
v -0.106260739 0.854587674 0.065010458
v -0.095404968 0.866914272 0.061449211
v 0.201151729 0.785539508 -0.052801482
v 0.209905431 0.763095915 -0.026683468
v -0.053740554 0.861220360 0.060621656
v -0.119612038 0.843007088 0.066351786
v -0.038738370 0.764857590 0.045641620
v -0.115297236 0.867445827 0.056354482
v 0.204392940 0.767345548 -0.047877602
v -0.129095674 0.880946934 0.050992869
v 0.210574538 0.761368036 -0.006127663
v -0.154082328 0.857515335 0.052843858
v 0.209218934 0.796388149 -0.010238918
v -0.138543621 0.848966599 0.059809633
v -0.053777028 0.893539250 0.064555749
v -0.149319217 0.873352408 0.047660504
v 0.209615156 0.728859365 -0.002268757
v -0.055693913 0.925168157 0.066139534
v -0.002346520 0.823558986 -0.116248168
v -0.050833941 0.941538215 0.067659594
v -0.160887554 0.877084851 0.034213800
v -0.187173471 0.839283466 0.027734343
v -0.034196667 0.944889247 0.069142722
v -0.001949139 0.834054351 -0.125417337
v -0.075427964 0.953846335 0.059712715
v -0.201240346 0.831938267 0.010274822
v 0.081025332 0.872617841 -0.148302734
v 0.123521730 0.933133304 -0.124078952
v -0.177581489 0.882516265 0.007387733
v -0.063238993 0.953934491 0.062871322
v 0.206936210 0.794132352 0.017351616
v 0.101550065 0.956638515 -0.119808748
v -0.169084847 0.918172717 -0.014872203
v 0.195505649 0.807236016 0.029482905
v -0.200063750 0.843057513 -0.010120803
v -0.193206355 0.860850632 -0.009616069
v -0.185653463 0.876739204 -0.011761907
v 0.086033478 0.954230666 -0.124459371
v 0.198731735 0.838379860 0.011847821
v 0.070108846 0.953880310 -0.126494154
v -0.074228674 0.894821465 0.060924482
v -0.016214410 0.904391646 -0.142833844
v 0.187158659 0.800112903 0.046868142
v 0.053285986 0.953018963 -0.127853245
v 0.063002944 0.943327606 -0.133357912
v 0.204700083 0.722767889 0.023968447
v -0.067412339 0.941435695 0.064043976
v -0.020853259 0.887925982 -0.143996730
v -0.193225026 0.855107665 -0.045406178
v -0.167553216 0.923693359 -0.069884412
v -0.084519289 0.880424201 0.061658122
v 0.036408395 0.953328729 -0.127615020
v -0.185848638 0.853288472 -0.065901682
v 0.017415648 0.951147377 -0.125926316
v -0.160716921 0.854489982 -0.097396635
v 0.182474166 0.728911340 0.059589636
v -0.176341861 0.846879840 -0.085657902
v 0.017763019 0.943153083 -0.129454404
v 0.000252356 0.949666858 -0.122920752
v 0.184936166 0.784063101 0.057499737
v 0.174505204 0.763961077 0.064214855
v 0.086652264 0.841724515 -0.139933437
v 0.017061502 0.939828277 0.069798842
v -0.163786724 0.872735322 -0.096180096
v -0.161682576 0.836827934 -0.098538570
v -0.160538599 0.942364693 -0.071407788
v 0.070269696 0.856735826 -0.145610422
v 0.159848198 0.782009006 0.068929709
v -0.142636284 0.843040764 -0.110290542
v -0.046680734 0.681833327 -0.075439841
v -0.114227414 0.845769763 -0.132806793
v -0.060339928 0.680177808 -0.080552101
v -0.074030243 0.678437352 -0.085651740
v -0.121494673 0.836743951 -0.120398000
v 0.138556391 0.770567477 0.075333454
v 0.153095156 0.757429957 0.070646897
v -0.087724671 0.676531136 -0.090703532
v 0.146348685 0.736460388 0.073174804
v -0.119077601 0.883582473 -0.136252373
v 0.033760779 0.933235943 0.074910514
v 0.022482172 0.921867371 0.068802968
v -0.101345241 0.674372196 -0.095625609
v 0.139594525 0.791371107 0.073031135
v -0.112019978 0.863718629 -0.138025016
v 0.121623158 0.795550585 0.077155538
v 0.130711004 0.750763416 0.077921107
v -0.117051758 0.673373163 -0.095581591
v -0.000000345 0.863543332 0.062610544
v -0.000248803 0.850975215 0.057217143
v -0.094652720 0.846828163 -0.139827773
v -0.130253151 0.673172474 -0.089842215
v -0.081052169 0.893156171 -0.148100033
v -0.102186546 0.831815898 -0.128644034
v -0.142812118 0.672883630 -0.084361874
v -0.156212658 0.673145235 -0.078596771
v -0.169679672 0.673151195 -0.072765887
v -0.043214303 0.841028988 0.057464559
v -0.021534821 0.841261029 0.055064462
v 0.077924632 0.767455459 0.065669440
v 0.081159905 0.751624227 0.066173926
v -0.181391686 0.673551023 -0.062876441
v -0.190368757 0.674129725 -0.051231079
v -0.024528671 0.793870509 0.044643119
v 0.063673511 0.760704756 0.059570570
v 0.046212059 0.771865308 0.052819151
v -0.198798567 0.674527407 -0.039267339
v -0.077970549 0.875693977 -0.148781732
v 0.070515156 0.794238210 0.063720703
v -0.204187959 0.675045431 -0.025216635
v -0.045687083 0.783166051 0.052892424
v 0.027542815 0.771487594 0.043809012
v -0.027791813 0.750326693 0.040507931
v -0.098269448 0.878930449 -0.144190609
v 0.025074169 0.735507369 0.037218936
v -0.057630211 0.765371025 0.056891065
v 0.064765155 0.823669791 0.058584977
v -0.028393012 0.724516988 0.035836775
v -0.047242604 0.726455331 0.046250917
v -0.057557117 0.899027348 -0.147309139
v -0.073977120 0.910464883 -0.147150859
v -0.063708536 0.797371089 0.060141437
v -0.058353595 0.918832302 -0.143792242
v 0.096123420 0.902309060 -0.144800857
v -0.204190850 0.675581753 -0.010750866
v 0.076119915 0.810511947 0.064418361
v -0.065988123 0.729527295 0.058270585
v -0.085983276 0.794445455 0.069574952
v 0.101268925 0.883033276 -0.142904356
v -0.068850800 0.749560475 0.060646839
v -0.078361973 0.765996873 0.065320723
v -0.064912833 0.910045922 0.063705653
v 0.070299193 0.735157192 -0.097593807
v -0.044023342 0.909436405 0.066782705
v 0.092461951 0.815010250 0.072451398
v -0.086498067 0.753115714 0.067926362
v 0.139859989 0.896739006 -0.122470535
v -0.204144642 0.675851822 0.002744789
v -0.024242500 0.810075283 0.043718748
v 0.090151057 0.726353765 -0.102130614
v -0.196474060 0.677500963 0.030379033
v -0.118826389 0.774951518 0.079956755
v 0.085910007 0.742257118 -0.103592172
v -0.190335512 0.677725673 0.043544456
v -0.099746592 0.763370395 0.073896267
v 0.107046530 0.805424809 0.078905448
v 0.111755110 0.823767006 0.074346915
v 0.131735057 0.914889216 -0.125307381
v -0.179522574 0.677944362 0.054600619
v -0.106727138 0.791712821 0.077905342
v -0.166145191 0.678260207 0.060216326
v -0.119079217 0.757030308 0.080533348
v -0.152595252 0.678285182 0.065864578
v -0.138988107 0.677796245 0.071467206
v -0.127820998 0.789057136 0.075943664
v -0.139852017 0.764505506 0.074407369
v -0.125532135 0.677913189 0.076787338
v 0.129998356 0.812822461 0.072544232
v -0.143270299 0.780121982 0.072959855
v -0.110603437 0.678259432 0.071958527
v -0.096700445 0.678588688 0.066363290
v 0.133399218 0.717165589 -0.099021778
v -0.145009905 0.795332313 0.070711233
v 0.165792227 0.821502328 0.061180122
v 0.134433210 0.730516136 -0.101324722
v 0.156429172 0.940102100 -0.083282426
v -0.082771555 0.678891003 0.060776830
v -0.137761518 0.749188304 0.075329348
v -0.068854794 0.679212034 0.055204414
v 0.134367406 0.943732917 -0.109840050
v -0.055376865 0.679751337 0.047145642
v -0.045078393 0.680907130 0.036849495
v 0.182404041 0.816690624 0.045150436
v 0.147793308 0.912002206 -0.110005632
v -0.033372812 0.681968570 0.027879396
v -0.020345060 0.682660460 0.021412546
v -0.162477806 0.805167198 0.064366467
v -0.013716306 0.692021489 0.013808774
v -0.161797553 0.771048665 0.067725629
v 0.149411574 0.726154864 -0.092906788
v 0.157860056 0.895967185 -0.103117086
v 0.191473812 0.825373173 0.027412344
v -0.182254940 0.797426403 0.056146991
v -0.180282712 0.760005772 0.061776273
v -0.184007421 0.778793216 0.059726276
v -0.044076867 0.809960067 -0.107344553
v 0.166075692 0.721689403 -0.083623134
v 0.201350763 0.834997952 -0.011064690
v 0.153576642 0.926803470 -0.098834202
v 0.012948330 0.835439682 -0.126810506
v -0.054765522 0.821446717 -0.119499266
v 0.068443559 0.811566830 -0.110523880
v -0.043950651 0.802790642 0.050655555
v 0.206280231 0.816644073 0.005582039
v -0.195261583 0.768076479 0.041276563
v -0.202223614 0.799479365 0.022678863
v -0.166169897 0.863667786 0.038110800
v 0.183964983 0.724621236 -0.069758594
v -0.206068560 0.759285212 0.022298258
v 0.102080926 0.947205186 0.048451837
v 0.204468921 0.816401362 -0.020103829
v -0.205615357 0.779071510 0.020924497
v -0.210437775 0.790778756 -0.000644119
v -0.207448483 0.803233445 -0.018397179
v 0.193859518 0.716695845 -0.054437913
v 0.206419736 0.801466107 -0.035546187
v -0.211034179 0.749333501 0.001011204
v -0.186226875 0.867377400 0.008554513
v 0.161163643 0.911466956 -0.091974430
v -0.024145408 0.957077384 0.069835730
v 0.202390715 0.819938779 -0.044564623
v 0.190876454 0.823465347 -0.067195125
v -0.086691521 0.861071229 -0.145734504
v -0.062446095 0.862224281 -0.146792606
v 0.197572932 0.734614253 -0.053249180
v -0.210645273 0.769384742 -0.005426283
v 0.203827173 0.707712948 -0.039483663
v 0.198580295 0.803902805 -0.057924449
v -0.015685309 0.951753736 -0.125530273
v -0.034514982 0.953946114 -0.127405137
v 0.167699799 0.896658897 -0.078782223
v 0.016969102 0.831124127 0.048087850
v -0.050831147 0.953785062 -0.127628326
v -0.043391030 0.821335673 0.050511885
v 0.188105926 0.804573238 -0.074867003
v 0.179429606 0.813355267 -0.088413224
v -0.067507200 0.954667926 -0.126491994
v 0.168821469 0.915747941 -0.072404705
v -0.210306853 0.752200246 -0.022120690
v -0.082749605 0.955217540 -0.124477923
v -0.088717632 0.942162216 -0.132018238
v -0.188260108 0.868111134 -0.031012138
v -0.097984314 0.957652092 -0.120009817
v -0.113246694 0.958043456 -0.113672838
v 0.159113094 0.802092910 -0.099614367
v -0.205161646 0.797719598 -0.048164424
v -0.183725402 0.872129261 -0.056111537
v -0.169949532 0.881612003 -0.074960403
v -0.209223986 0.766203523 -0.034811504
v 0.174364343 0.904458642 -0.055996023
v 0.164838761 0.941407084 -0.052867673
v -0.204421788 0.717973530 -0.041500807
v 0.047931567 0.821255803 0.051283687
v 0.137937367 0.804391563 -0.109080061
v -0.068626061 0.845114112 -0.142940789
v -0.191726714 0.804795086 -0.069570199
v 0.168108076 0.938412488 -0.037547037
v -0.082159773 0.833346248 -0.134557813
v -0.190828145 0.712760508 -0.058276899
v 0.120732501 0.809675813 -0.116160788
v -0.197289810 0.760177195 -0.057859510
v -0.181359082 0.756859601 -0.080258325
v 0.168158427 0.937172532 -0.020759361
v -0.190213501 0.771680057 -0.068606943
v -0.181369215 0.794067502 -0.086829089
v 0.171639904 0.904849887 -0.017198831
v -0.175486118 0.737653434 -0.082886495
v -0.021029171 0.751619995 -0.088337377
v 0.082402855 0.799171388 -0.107867107
v -0.127164319 0.957491219 -0.105931543
v -0.137849286 0.958811939 -0.094699018
v -0.162295729 0.801416278 -0.098736160
v -0.161951110 0.783635080 -0.097880445
v -0.161806941 0.765875399 -0.094713457
v -0.160315305 0.748296797 -0.092264548
v -0.135287210 0.872712910 -0.127062231
v 0.061834961 0.854617476 0.059126176
v 0.208753973 0.727602303 -0.031501230
v -0.155191764 0.955871463 -0.067091420
v -0.159072518 0.953383744 -0.053655088
v 0.210038155 0.745014906 -0.018469080
v -0.004754742 0.684835255 -0.063735165
v -0.161656663 0.953133225 -0.038011916
v 0.159631774 0.906747162 0.002346697
v -0.161400288 0.952546597 -0.024977375
v -0.157513827 0.944444835 -0.005314153
v -0.154264286 0.954175174 -0.003198943
v 0.200569898 0.833305478 -0.031532858
v 0.164531261 0.944546819 -0.007337907
v -0.147833496 0.949851215 0.007335586
v -0.141194627 0.951623797 0.017012890
v -0.133301631 0.950911224 0.027443077
v 0.050398916 0.833652794 -0.130291313
v -0.122009076 0.951765239 0.038547006
v 0.155775070 0.940312743 0.007520471
v -0.109673344 0.946596503 0.045067705
v -0.141447157 0.739195764 -0.099849716
v 0.152143076 0.901563048 0.020193437
v 0.015483962 0.786103606 -0.094562836
v -0.003558681 0.775157034 -0.091959730
v -0.003366004 0.788661778 -0.094600059
v 0.147725418 0.942574799 -0.098290391
v -0.142608002 0.756774306 -0.102192782
v -0.003081802 0.801521003 -0.099616021
v -0.142364353 0.792621374 -0.107020602
v 0.013928165 0.800904632 -0.099358305
v -0.002725601 0.813410401 -0.106736504
v -0.112902328 0.956549346 0.042296693
v 0.163403705 0.823216617 -0.098333463
v 0.143532872 0.942061603 0.022834362
v -0.124826349 0.746852219 -0.109119095
v -0.100929737 0.955088615 0.048279896
v -0.089179829 0.954475045 0.054391872
v 0.132083178 0.930784583 0.036065623
v 0.048505921 0.893425167 -0.145908073
v -0.142876402 0.774473786 -0.105261303
v -0.121581830 0.803652108 -0.116544172
v 0.128101513 0.948223233 0.035364993
v -0.124375328 0.764743447 -0.112290122
v 0.153776377 0.901110828 0.039180864
v -0.103232145 0.755616665 -0.110467471
v -0.001362590 0.814013183 0.040996075
v -0.082868829 0.942896187 0.058480244
v 0.113765374 0.956005692 0.045857433
v 0.122932993 0.941655636 0.052308112
v 0.114154719 0.943487287 0.043090515
v -0.086863622 0.746400356 -0.104694746
v -0.100977346 0.773438811 -0.111632645
v -0.081658319 0.764133215 -0.105177537
v 0.043091737 0.742607236 0.046668567
v -0.100297689 0.791165233 -0.112164475
v 0.052647680 0.928565204 -0.139776036
v -0.078351624 0.781607389 -0.105899952
v 0.027613306 0.920243621 -0.139238179
v -0.040708777 0.885917664 -0.145275816
v -0.037349179 0.907319427 -0.144436106
v 0.207353860 0.740600705 0.020854708
v 0.191158801 0.749014258 0.054656871
v -0.053355448 0.773469687 -0.099150620
v -0.058072489 0.794028997 -0.103186533
v -0.147579387 0.956464589 -0.082075901
v 0.141637146 0.909603894 0.049127538
v 0.123398982 0.907260597 0.046873190
v -0.206024289 0.689570248 0.011150843
v 0.161325693 0.722236156 0.066411965
v 0.168062612 0.742839158 0.066121660
v -0.202849954 0.676671624 0.017387923
v 0.110600151 0.924403548 0.047313757
v -0.036793686 0.696346283 -0.075610511
v -0.033144131 0.683426082 -0.070044205
v 0.013702922 0.719625175 0.030687591
v -0.019243414 0.684682965 -0.065569244
v 0.006475057 0.955954373 0.070576489
v 0.069494940 0.921568036 -0.142860219
v -0.010183066 0.958275795 0.070451945
v -0.020288235 0.712354720 0.031110788
v 0.123734012 0.730930269 0.080444351
v 0.030608747 0.951134205 0.072781757
v 0.076484099 0.696946740 0.060307629
v 0.065226726 0.708775938 0.056802899
v 0.097181424 0.706594586 0.069466613
v 0.050895125 0.872318745 -0.146749586
v 0.116942167 0.711308539 0.077710874
v 0.049445909 0.711319268 0.046783231
v 0.201298445 0.705044866 0.028651372
v 0.105427980 0.900009036 0.053101372
v 0.094436102 0.914759755 0.055886220
v 0.148923263 0.922676742 0.015813239
v 0.100977384 0.724775910 0.072367832
v 0.164540365 0.923922241 -0.006858830
v 0.172503710 0.917745888 -0.032602914
v 0.039477181 0.943993270 0.068533920
v 0.082439773 0.734079838 0.065545499
v 0.103556119 0.745645642 0.074805051
v 0.169613212 0.924535573 -0.053161383
v 0.164786547 0.933858275 -0.069163039
v 0.081532888 0.716231525 0.063957632
v 0.161215752 0.925387204 -0.083355121
v 0.189813972 0.699239910 -0.056321181
v 0.173751056 0.705207825 -0.076299749
v 0.061943620 0.741923630 0.057798158
v 0.147458345 0.706006706 -0.089617096
v 0.139841467 0.928562939 -0.112201929
v 0.063892409 0.724247575 0.057494171
v 0.103123322 0.784064949 0.076717719
v 0.140512154 0.715894580 0.073542960
v 0.176895320 0.709765315 0.059617579
v 0.194472462 0.716277242 0.044188913
v 0.208478302 0.782425523 -0.031632051
v 0.160786659 0.781160831 -0.097446881
v 0.046043295 0.727575719 0.045990042
v 0.142583981 0.770872593 -0.104304872
v 0.208428428 0.712893307 -0.015083594
v 0.208058864 0.710174680 0.007318108
v 0.033477150 0.755313814 0.044115819
v 0.011220476 0.771993995 0.038897436
v 0.078618720 0.920238674 0.061434694
v 0.055546612 0.945240974 0.065489434
v 0.016603963 0.787171721 0.041245721
v 0.032032676 0.865058541 0.061600178
v 0.020844625 0.847503841 0.055961184
v 0.018981013 0.715141833 -0.077579312
v 0.048529942 0.929357529 0.067163356
v 0.036715347 0.745828331 -0.090030216
v 0.029676478 0.907473207 0.067764983
v 0.041245814 0.916341603 0.072068006
v 0.014736272 0.906324744 0.068228796
v 0.033313427 0.699861169 -0.075462505
v 0.055327393 0.749511957 -0.095639825
v 0.070857264 0.839737117 0.061956704
v 0.195900694 0.787445962 0.037481230
v 0.188069060 0.861146092 -0.055152297
v 0.055791777 0.697134376 -0.083488300
v 0.180176452 0.773882866 -0.085195005
v 0.126693279 0.838215172 -0.117145993
v 0.123339258 0.776639521 -0.113708898
v 0.079960831 0.693848550 -0.092059486
v 0.051092111 0.782021224 -0.099376239
v 0.038231108 0.823219478 -0.118324921
v 0.121132314 0.703991771 -0.101177618
v 0.103515103 0.690312088 -0.099501386
v 0.104695842 0.936853707 -0.130110875
v 0.064019486 0.929492652 0.064053938
v 0.060980249 0.910018802 0.064675622
v 0.129642397 0.688244522 -0.093035363
v 0.024829965 0.893127263 0.066415742
v 0.039323576 0.881955504 0.064384580
v 0.082741857 0.937962353 -0.135324940
v 0.153765827 0.688184619 -0.081931658
v 0.179697260 0.832458794 -0.085573353
v 0.024137499 0.865085959 -0.141667232
v 0.178019777 0.735960066 -0.080196634
v 0.175834477 0.687236667 -0.071400329
v 0.016562821 0.771076322 -0.091850780
v 0.188616425 0.683986306 -0.054880220
v 0.031182140 0.836163640 -0.128776759
v 0.201035932 0.688968539 -0.039455950
v 0.207339615 0.698554397 -0.023211764
v 0.058867164 0.807214379 0.056820888
v 0.111167058 0.917833924 -0.134315401
v 0.090368621 0.921362698 -0.141070962
v 0.018087696 0.823786914 -0.117006302
v 0.206924632 0.696013927 -0.004620728
v 0.127577633 0.742827058 -0.106776141
v 0.210729957 0.746612668 0.001498732
v 0.197576061 0.735222697 0.040083148
v 0.163390964 0.741177917 -0.089068815
v 0.146428183 0.742533803 -0.097550571
v 0.191502795 0.695707023 0.047641385
v 0.137460902 0.894998431 0.045857437
v 0.167208314 0.890433908 0.011393538
v 0.208096981 0.747696996 -0.041705601
v 0.044077560 0.714244485 -0.084133424
v 0.155888706 0.699829459 0.066881016
v 0.080583051 0.826653004 0.066256963
v 0.209685728 0.759499431 0.016312588
v 0.200470641 0.754584312 0.034798715
v 0.090866521 0.755233407 -0.106329665
v 0.134928063 0.695142865 0.074874416
v 0.125475392 0.877669990 -0.133566201
v -0.001012351 0.826651454 0.045445900
v -0.002380477 0.761175096 0.035688527
v 0.049175523 0.754686356 0.053397566
v 0.111503743 0.693901658 0.074213363
v 0.148957074 0.881727040 -0.115046956
v -0.001595023 0.800722957 0.040419646
v -0.000547238 0.838336289 0.052209891
v 0.093620017 0.690971673 0.066742055
v 0.019173285 0.877877235 0.064948812
v 0.000289664 0.877096355 0.065404519
v 0.092492208 0.933252335 0.055532295
v 0.055853717 0.695504785 0.051466297
v 0.089179389 0.950648606 0.055049233
v 0.206151962 0.691885471 0.013673557
v 0.094703376 0.830022514 0.073210225
v 0.037666652 0.938206553 -0.134684607
v 0.038322393 0.697234035 0.038421143
v 0.071391799 0.905682385 -0.148271456
v 0.017371383 0.700529337 0.029667523
v 0.032017615 0.715437293 0.036892205
v 0.043569528 0.851550400 -0.139936253
v 0.014188567 0.862802386 0.061770558
v 0.015305907 0.753524661 0.036632843
v -0.002512291 0.747988582 0.033943653
v -0.001846992 0.787467420 0.039228071
v 0.205572173 0.685517192 -0.017653780
v -0.002131297 0.774237871 0.038041346
v 0.069644146 0.714586496 -0.092586294
v 0.089166291 0.815419078 -0.114164278
v 0.109309472 0.824237943 -0.116851076
v 0.145195261 0.827109158 0.065895900
v 0.088850394 0.798154593 0.071445674
v 0.151774675 0.806697726 0.067592293
v 0.095280081 0.708341300 -0.100213088
v 0.198227912 0.688694298 0.030935917
f 555 540 123
f 389 162 497
f 567 540 568
f 583 104 251
f 463 489 430
f 453 94 255
f 483 484 162
f 446 640 671
f 574 577 251
f 50 244 238
f 52 244 50
f 575 57 53
f 55 249 52
f 55 2 250
f 577 248 563
f 575 437 432
f 57 597 589
f 2 265 262
f 589 592 57
f 262 259 2
f 5 267 262
f 602 606 589
f 5 9 11
f 58 606 610
f 11 272 5
f 12 278 11
f 565 793 8
f 630 60 632
f 13 425 12
f 424 289 160
f 289 424 13
f 643 649 60
f 181 403 179
f 483 206 484
f 163 651 174
f 53 563 558
f 651 65 650
f 163 389 384
f 683 66 65
f 455 558 563
f 165 384 171
f 340 331 34
f 67 66 683
f 206 470 63
f 385 102 856
f 67 702 70
f 344 340 696
f 179 403 406
f 710 70 702
f 16 352 14
f 111 112 59
f 63 64 655
f 18 368 16
f 710 742 753
f 119 112 111
f 394 671 545
f 551 922 903
f 19 375 18
f 753 740 711
f 406 470 179
f 261 615 108
f 545 453 439
f 178 386 530
f 24 386 23
f 72 753 742
f 26 396 24
f 768 765 72
f 119 142 112
f 32 63 470
f 112 142 161
f 399 400 396
f 154 343 182
f 545 671 448
f 399 415 400
f 768 770 765
f 32 406 410
f 418 415 399
f 770 183 777
f 387 300 166
f 415 418 422
f 105 86 299
f 169 42 839
f 170 142 119
f 173 172 705
f 329 638 343
f 134 738 737
f 185 638 329
f 692 661 145
f 150 74 741
f 637 345 873
f 132 145 661
f 170 184 142
f 138 495 760
f 138 136 188
f 136 194 188
f 201 87 194
f 270 87 205
f 216 49 210
f 46 216 724
f 198 184 170
f 43 96 907
f 219 39 218
f 45 43 41
f 224 37 219
f 498 224 514
f 86 105 342
f 225 36 514
f 378 107 110
f 80 233 107
f 22 41 43
f 198 217 849
f 41 581 45
f 103 233 76
f 76 40 103
f 222 217 214
f 678 100 40
f 98 41 22
f 366 41 98
f 40 76 678
f 215 4 284
f 215 98 21
f 537 536 92
f 222 234 217
f 904 537 92
f 460 462 30
f 284 471 366
f 222 239 246
f 586 903 759
f 462 28 30
f 246 234 222
f 454 449 28
f 237 391 924
f 560 319 921
f 246 888 252
f 431 471 282
f 455 560 391
f 319 560 241
f 50 238 793
f 50 566 52
f 52 574 55
f 258 263 510
f 244 52 249
f 55 253 2
f 284 792 657
f 303 670 667
f 303 100 674
f 250 249 55
f 273 274 252
f 251 253 574
f 100 303 301
f 301 570 100
f 104 261 257
f 677 100 678
f 273 285 274
f 257 2 253
f 2 257 265
f 250 2 259
f 570 568 40
f 752 292 293
f 294 296 285
f 285 296 274
f 684 497 679
f 277 274 296
f 440 447 442
f 579 489 463
f 692 329 695
f 259 262 267
f 871 736 360
f 262 271 9
f 40 100 570
f 570 567 568
f 203 128 270
f 310 296 294
f 305 296 310
f 87 270 194
f 9 5 262
f 5 272 600
f 276 9 271
f 9 276 11
f 272 11 278
f 302 323 310
f 568 103 40
f 108 615 89
f 280 11 276
f 11 280 12
f 103 568 540
f 278 12 425
f 323 337 328
f 283 12 280
f 12 283 13
f 283 297 289
f 289 13 283
f 540 561 231
f 425 13 424
f 209 288 205
f 291 125 286
f 346 337 323
f 49 304 288
f 173 350 351
f 297 654 314
f 347 158 864
f 304 47 311
f 47 304 49
f 47 46 481
f 360 361 855
f 501 684 146
f 481 311 47
f 46 39 481
f 343 695 329
f 314 289 297
f 289 314 160
f 481 321 308
f 481 39 321
f 325 122 321
f 325 321 37
f 37 321 39
f 333 160 314
f 324 266 333
f 527 107 231
f 84 121 325
f 36 327 498
f 160 333 34
f 327 120 84
f 36 82 371
f 277 393 390
f 689 34 333
f 34 689 340
f 313 34 331
f 266 334 689
f 334 260 341
f 340 335 331
f 107 527 110
f 54 404 405
f 696 14 344
f 61 401 44
f 38 299 407
f 358 14 348
f 14 358 16
f 344 14 352
f 356 704 712
f 352 16 368
f 413 62 417
f 370 16 358
f 16 370 18
f 175 705 134
f 713 115 110
f 371 27 378
f 27 371 82
f 381 18 370
f 18 381 19
f 368 18 375
f 80 378 27
f 19 381 235
f 19 395 23
f 19 23 178
f 202 506 913
f 23 395 24
f 386 24 396
f 398 24 395
f 24 398 26
f 26 398 220
f 26 412 399
f 396 26 399
f 418 399 412
f 164 180 444
f 444 443 164
f 175 173 705
f 685 84 120
f 422 300 415
f 685 121 84
f 172 169 300
f 172 300 422
f 78 80 27
f 226 365 78
f 89 615 114
f 240 485 309
f 134 737 175
f 226 27 82
f 245 459 452
f 187 186 140
f 243 459 245
f 189 187 130
f 581 466 579
f 467 472 637
f 308 122 240
f 138 579 466
f 430 255 463
f 499 435 430
f 453 430 435
f 435 440 439
f 435 499 450
f 243 479 281
f 308 321 122
f 897 438 584
f 439 453 435
f 243 281 893
f 450 440 435
f 480 859 865
f 440 449 447
f 442 439 440
f 450 449 440
f 447 449 454
f 492 488 493
f 127 458 456
f 449 456 28
f 82 225 708
f 454 28 462
f 28 456 30
f 456 450 127
f 30 456 458
f 225 82 36
f 30 464 460
f 506 507 502
f 126 469 125
f 287 508 509
f 207 507 506
f 410 460 32
f 126 306 477
f 460 464 644
f 644 32 460
f 32 644 63
f 475 31 576
f 470 406 32
f 64 63 644
f 306 309 477
f 125 464 458
f 528 795 511
f 516 523 524
f 655 206 63
f 206 655 484
f 206 474 470
f 162 679 497
f 316 322 822
f 313 160 34
f 37 498 325
f 523 316 534
f 497 684 501
f 501 146 505
f 146 512 503
f 505 503 513
f 263 515 510
f 512 120 115
f 503 512 91
f 517 513 503
f 115 713 91
f 458 203 125
f 315 547 548
f 91 512 115
f 547 330 336
f 91 713 88
f 517 88 522
f 552 548 547
f 532 88 713
f 88 532 519
f 552 336 553
f 522 519 541
f 527 231 561
f 127 128 458
f 538 660 692
f 514 36 498
f 224 498 37
f 538 692 695
f 114 626 631
f 553 342 105
f 219 37 39
f 555 660 561
f 127 450 499
f 891 199 824
f 660 555 661
f 218 39 46
f 199 97 886
f 366 98 284
f 22 21 98
f 41 366 581
f 43 232 22
f 907 232 43
f 96 536 907
f 45 463 255
f 45 581 463
f 255 94 96
f 255 96 45
f 94 453 545
f 448 546 545
f 582 593 594
f 595 584 438
f 216 46 47
f 216 47 49
f 551 640 558
f 558 640 569
f 49 288 209
f 793 565 50
f 569 53 558
f 566 50 565
f 209 210 49
f 841 351 350
f 574 52 566
f 578 53 57
f 612 609 423
f 53 578 563
f 575 53 569
f 597 432 211
f 253 55 574
f 57 575 597
f 578 57 592
f 592 583 578
f 627 609 612
f 584 621 628
f 603 589 606
f 602 589 597
f 634 819 627
f 610 606 602
f 835 318 229
f 626 606 58
f 610 624 58
f 58 624 630
f 632 58 630
f 634 884 869
f 58 632 626
f 60 642 632
f 642 60 649
f 60 630 181
f 650 649 643
f 662 652 645
f 656 628 621
f 621 636 656
f 658 659 204
f 64 644 469
f 466 495 138
f 694 377 700
f 468 471 431
f 663 650 65
f 628 656 668
f 679 162 484
f 65 686 663
f 672 673 659
f 686 65 66
f 683 65 651
f 468 431 478
f 683 693 67
f 685 146 684
f 146 685 512
f 696 340 689
f 66 67 701
f 473 495 478
f 66 698 686
f 702 67 693
f 668 675 687
f 701 698 66
f 405 690 54
f 701 67 70
f 54 690 564
f 14 696 348
f 711 70 710
f 699 70 711
f 702 709 710
f 229 318 236
f 657 282 471
f 710 709 742
f 753 756 740
f 756 753 72
f 742 754 72
f 72 754 768
f 72 765 756
f 766 765 770
f 490 193 496
f 130 772 496
f 770 776 766
f 15 719 168
f 87 201 148
f 183 770 768
f 201 194 136
f 422 705 172
f 633 777 338
f 777 633 150
f 408 74 633
f 638 185 408
f 106 730 258
f 688 379 694
f 275 631 118
f 185 692 145
f 197 750 749
f 736 737 738
f 263 258 730
f 738 741 743
f 185 145 143
f 743 741 744
f 744 741 74
f 744 467 879
f 132 140 145
f 123 132 661
f 741 738 150
f 123 540 567
f 773 772 567
f 738 134 150
f 78 27 226
f 238 623 1
f 264 279 779
f 776 150 134
f 134 705 420
f 695 541 538
f 104 599 261
f 365 681 680
f 761 762 763
f 365 678 76
f 76 78 365
f 411 156 420
f 156 411 220
f 541 519 538
f 220 764 156
f 76 233 78
f 80 78 233
f 168 789 387
f 70 699 701
f 398 395 228
f 434 437 445
f 779 780 887
f 428 432 434
f 926 317 706
f 197 749 745
f 213 6 4
f 279 785 780
f 419 427 428
f 148 201 745
f 454 462 419
f 526 782 783
f 381 734 235
f 410 414 419
f 493 769 913
f 511 4 215
f 4 511 213
f 406 414 410
f 208 731 729
f 21 511 215
f 210 728 727
f 794 800 823
f 511 21 529
f 470 474 179
f 724 218 46
f 227 110 115
f 118 280 275
f 219 218 722
f 806 800 794
f 803 804 256
f 716 778 225
f 224 219 720
f 407 86 690
f 356 734 381
f 389 497 380
f 809 795 528
f 810 806 811
f 717 716 514
f 497 501 380
f 317 697 429
f 810 818 821
f 913 771 202
f 341 698 699
f 373 376 159
f 369 177 373
f 341 260 698
f 260 334 266
f 365 226 681
f 517 522 354
f 828 821 818
f 354 362 364
f 569 640 446
f 519 522 88
f 767 828 818
f 266 324 676
f 602 597 211
f 804 834 256
f 121 240 122
f 345 868 918
f 610 602 211
f 169 839 166
f 427 195 211
f 643 179 174
f 683 651 165
f 693 683 171
f 627 884 634
f 324 654 676
f 846 397 841
f 841 397 374
f 362 709 369
f 580 397 846
f 192 188 190
f 192 499 489
f 128 192 190
f 270 205 203
f 205 288 286
f 291 306 126
f 208 148 733
f 288 304 291
f 304 311 306
f 311 481 308
f 286 125 203
f 283 118 297
f 589 599 592
f 283 280 118
f 227 115 120
f 747 805 732
f 707 226 82
f 107 378 80
f 275 114 631
f 118 646 297
f 89 114 275
f 231 233 103
f 87 209 205
f 816 872 870
f 271 108 89
f 248 560 455
f 248 241 560
f 108 271 265
f 566 565 241
f 86 876 690
f 622 244 619
f 517 91 88
f 574 566 248
f 715 662 889
f 244 249 618
f 249 250 614
f 882 465 718
f 253 251 257
f 774 465 882
f 250 259 608
f 883 494 774
f 921 391 560
f 259 267 604
f 54 564 847
f 251 577 583
f 600 267 5
f 89 276 271
f 503 91 517
f 690 405 407
f 275 276 89
f 892 573 582
f 272 278 596
f 248 577 574
f 280 276 275
f 425 588 591
f 425 424 781
f 781 313 572
f 424 313 781
f 572 585 781
f 314 654 324
f 136 197 201
f 313 557 572
f 237 551 558
f 554 331 335
f 334 341 348
f 760 136 138
f 335 344 549
f 341 699 704
f 348 696 334
f 921 319 7
f 358 348 704
f 344 352 544
f 912 582 594
f 903 586 551
f 352 368 543
f 381 370 356
f 368 375 539
f 788 8 3
f 535 375 178
f 221 795 809
f 828 767 562
f 559 833 920
f 921 920 899
f 546 448 898
f 903 922 836
f 38 903 299
f 235 228 395
f 405 669 407
f 546 92 94
f 400 518 520
f 92 546 904
f 639 35 926
f 386 396 525
f 927 926 33
f 928 605 930
f 200 490 298
f 94 545 546
f 96 92 536
f 927 56 852
f 143 472 408
f 220 412 26
f 400 520 521
f 412 220 411
f 109 113 152
f 920 832 559
f 418 412 411
f 152 113 746
f 387 789 786
f 420 418 411
f 746 161 867
f 418 420 422
f 490 773 298
f 496 772 773
f 394 442 445
f 562 767 832
f 739 636 820
f 204 725 658
f 773 490 496
f 725 223 635
f 447 454 428
f 472 186 637
f 215 284 98
f 189 130 496
f 458 464 30
f 410 462 460
f 125 469 464
f 635 247 487
f 487 269 629
f 641 487 629
f 268 269 487
f 269 393 629
f 390 269 268
f 469 126 64
f 349 761 763
f 655 64 477
f 303 674 670
f 290 393 277
f 611 290 928
f 163 474 483
f 928 307 605
f 635 641 648
f 531 605 533
f 677 674 100
f 477 309 485
f 506 202 207
f 679 485 240
f 240 121 684
f 312 912 594
f 684 679 240
f 121 685 684
f 186 187 345
f 503 505 146
f 912 332 892
f 772 130 132
f 685 120 512
f 501 505 159
f 725 648 658
f 505 513 373
f 513 517 364
f 892 847 564
f 110 527 713
f 714 847 339
f 522 541 154
f 51 714 346
f 231 103 540
f 714 51 404
f 541 695 343
f 567 772 123
f 502 500 506
f 578 577 563
f 867 659 673
f 577 578 583
f 597 575 432
f 592 104 583
f 913 492 493
f 845 167 839
f 599 104 592
f 386 178 23
f 599 603 615
f 110 227 378
f 615 261 599
f 706 402 639
f 603 626 114
f 132 123 772
f 624 610 195
f 409 706 317
f 746 673 682
f 114 615 603
f 120 327 227
f 624 414 403
f 691 429 697
f 642 631 632
f 642 118 631
f 429 433 853
f 646 118 642
f 642 649 646
f 152 682 691
f 682 433 691
f 181 643 60
f 654 297 646
f 122 325 121
f 140 130 187
f 421 416 617
f 123 661 555
f 309 308 240
f 698 260 686
f 702 693 177
f 698 701 699
f 672 441 436
f 291 126 125
f 109 691 697
f 143 140 186
f 874 872 816
f 665 441 672
f 188 192 489
f 665 658 653
f 712 704 699
f 653 451 665
f 927 697 317
f 712 740 734
f 648 461 653
f 178 375 19
f 923 880 116
f 641 461 648
f 740 756 748
f 748 758 228
f 926 706 639
f 479 641 482
f 754 742 362
f 354 754 362
f 407 669 38
f 203 458 128
f 482 629 620
f 756 765 758
f 182 754 154
f 128 127 192
f 254 246 252
f 611 382 620
f 764 398 228
f 499 192 127
f 764 766 156
f 766 776 156
f 930 611 928
f 420 156 776
f 140 132 130
f 788 7 8
f 387 166 168
f 420 776 134
f 136 760 197
f 300 387 415
f 750 197 760
f 745 201 197
f 148 208 209
f 733 148 745
f 258 35 106
f 593 533 605
f 731 208 733
f 236 318 910
f 729 210 208
f 728 210 729
f 727 216 210
f 188 489 579
f 929 573 556
f 724 216 727
f 573 929 582
f 723 218 724
f 722 218 723
f 720 219 722
f 717 224 720
f 514 224 717
f 188 579 138
f 876 556 573
f 707 681 226
f 898 904 546
f 472 143 186
f 212 795 221
f 899 391 921
f 854 925 931
f 213 795 212
f 140 143 145
f 404 54 714
f 833 922 924
f 415 387 786
f 143 408 185
f 238 3 793
f 1 3 238
f 31 799 752
f 622 238 244
f 918 799 515
f 380 376 171
f 915 752 357
f 617 476 421
f 619 244 618
f 618 249 616
f 616 249 614
f 636 739 613
f 388 613 10
f 614 250 608
f 357 791 915
f 383 688 388
f 608 259 607
f 571 438 576
f 295 667 666
f 92 96 94
f 607 259 604
f 372 726 700
f 667 295 303
f 367 726 372
f 604 267 601
f 298 295 207
f 923 875 880
f 363 732 367
f 408 467 74
f 148 209 87
f 298 301 295
f 359 747 363
f 601 267 600
f 359 355 755
f 600 272 598
f 598 272 596
f 353 755 355
f 301 298 773
f 596 278 591
f 747 755 751
f 591 278 425
f 588 425 781
f 388 688 813
f 769 771 913
f 763 353 349
f 202 771 200
f 506 500 913
f 74 467 744
f 773 570 301
f 82 708 707
f 320 647 326
f 500 492 913
f 331 554 557
f 242 910 320
f 344 335 340
f 910 908 647
f 554 335 550
f 239 222 703
f 549 550 335
f 549 344 544
f 166 167 168
f 544 352 543
f 543 368 542
f 17 15 167
f 17 845 157
f 907 536 919
f 157 850 155
f 155 850 153
f 542 368 539
f 150 633 74
f 153 854 151
f 151 854 149
f 149 858 147
f 147 862 144
f 539 375 535
f 759 903 38
f 530 535 178
f 144 862 141
f 141 866 139
f 139 866 137
f 530 386 525
f 137 870 135
f 525 396 521
f 135 870 872
f 133 872 131
f 131 874 129
f 129 923 117
f 923 874 875
f 170 119 902
f 521 396 400
f 20 932 101
f 99 101 932
f 99 886 97
f 95 97 199
f 95 891 93
f 93 896 90
f 518 400 786
f 90 896 85
f 85 901 83
f 83 905 81
f 169 166 300
f 81 905 79
f 77 79 796
f 77 909 75
f 439 394 545
f 75 914 73
f 73 914 71
f 71 916 69
f 442 394 439
f 468 466 366
f 442 447 434
f 7 562 920
f 794 534 811
f 924 899 833
f 434 447 428
f 428 454 419
f 419 462 410
f 38 898 759
f 902 111 897
f 466 468 495
f 526 524 534
f 25 59 56
f 96 43 45
f 895 401 61
f 182 343 338
f 483 389 163
f 483 162 389
f 897 59 25
f 883 894 775
f 776 777 150
f 59 897 111
f 380 384 389
f 774 882 893
f 111 902 119
f 778 708 225
f 501 159 380
f 167 166 839
f 159 505 373
f 176 191 867
f 373 513 369
f 364 369 513
f 850 890 925
f 354 364 517
f 354 522 154
f 177 369 709
f 154 541 343
f 446 445 437
f 376 380 159
f 204 223 725
f 217 198 214
f 214 703 222
f 437 569 446
f 610 211 195
f 414 624 195
f 403 630 624
f 889 718 715
f 160 313 424
f 181 630 403
f 888 246 239
f 179 643 181
f 174 650 643
f 651 650 174
f 163 384 165
f 487 247 268
f 165 651 163
f 171 683 165
f 174 474 163
f 557 313 331
f 475 515 799
f 376 693 171
f 285 273 757
f 177 693 376
f 627 885 884
f 174 179 474
f 509 508 516
f 294 302 310
f 709 702 177
f 709 362 742
f 154 754 354
f 182 338 183
f 780 785 803
f 183 768 182
f 423 413 881
f 183 338 777
f 638 338 343
f 633 638 408
f 590 401 895
f 692 185 329
f 190 188 194
f 515 475 25
f 270 190 194
f 190 270 128
f 195 427 414
f 7 788 562
f 915 878 571
f 877 595 438
f 203 205 286
f 44 48 61
f 474 206 483
f 210 209 208
f 61 62 895
f 413 895 62
f 211 432 427
f 172 42 169
f 398 764 220
f 515 263 918
f 437 575 569
f 228 758 764
f 124 885 426
f 175 871 350
f 84 498 327
f 225 514 716
f 327 371 227
f 918 263 730
f 898 448 759
f 371 327 36
f 839 374 890
f 227 371 378
f 451 441 665
f 228 235 748
f 444 180 457
f 233 231 107
f 187 868 345
f 759 448 586
f 189 292 868
f 734 748 235
f 653 461 826
f 924 922 237
f 292 193 196
f 446 671 394
f 461 641 479
f 922 551 237
f 391 237 455
f 482 641 629
f 918 868 799
f 196 200 293
f 771 293 200
f 558 455 237
f 281 287 894
f 894 893 281
f 248 566 241
f 257 251 104
f 255 430 453
f 257 261 265
f 509 775 287
f 260 266 676
f 509 516 524
f 265 261 108
f 523 516 531
f 322 316 523
f 273 252 888
f 265 271 262
f 811 534 316
f 316 315 811
f 676 686 260
f 366 466 581
f 478 495 468
f 330 547 315
f 547 336 552
f 366 471 468
f 760 495 473
f 657 471 284
f 336 342 553
f 553 900 552
f 832 900 553
f 865 878 791
f 792 284 4
f 31 571 576
f 286 288 291
f 438 571 877
f 906 864 863
f 4 790 792
f 8 7 319
f 303 295 301
f 291 304 306
f 570 773 567
f 739 617 392
f 617 416 392
f 306 311 309
f 309 311 308
f 170 628 668
f 613 739 10
f 739 392 10
f 656 675 668
f 656 815 675
f 680 678 365
f 813 613 388
f 324 333 314
f 687 198 668
f 379 688 383
f 295 666 207
f 815 656 636
f 377 694 379
f 325 498 84
f 689 333 266
f 334 696 689
f 700 377 372
f 861 834 860
f 703 721 239
f 732 726 367
f 834 861 256
f 348 341 704
f 747 732 363
f 356 358 704
f 735 888 721
f 370 358 356
f 735 264 757
f 735 273 888
f 755 747 359
f 369 364 362
f 353 763 755
f 647 761 326
f 761 349 326
f 376 373 177
f 779 757 264
f 780 779 279
f 384 380 171
f 235 395 19
f 736 871 737
f 562 788 917
f 910 647 320
f 785 804 803
f 414 406 403
f 256 323 803
f 813 675 815
f 415 786 400
f 427 419 414
f 422 420 705
f 432 428 427
f 430 489 499
f 587 580 590
f 437 434 432
f 445 442 434
f 446 394 445
f 671 586 448
f 819 609 627
f 456 449 450
f 455 563 248
f 865 791 769
f 581 579 463
f 645 652 817
f 644 464 469
f 652 662 715
f 874 923 129
f 715 664 652
f 694 812 688
f 477 64 126
f 750 760 473
f 485 655 477
f 465 715 718
f 507 207 666
f 465 774 494
f 865 486 480
f 812 675 813
f 485 484 655
f 207 202 298
f 883 504 825
f 493 865 769
f 783 782 504
f 679 484 485
f 202 200 298
f 196 490 200
f 196 193 490
f 877 859 476
f 302 803 323
f 189 496 193
f 814 806 810
f 168 719 789
f 821 814 810
f 391 899 924
f 713 527 532
f 467 408 472
f 302 294 887
f 786 787 518
f 538 519 532
f 561 532 527
f 926 35 33
f 538 532 660
f 540 555 561
f 551 586 640
f 319 241 565
f 660 532 561
f 113 161 746
f 161 176 867
f 8 319 565
f 223 247 635
f 781 585 784
f 620 629 393
f 887 780 302
f 269 390 393
f 671 640 586
f 781 784 588
f 599 589 603
f 393 290 611
f 626 603 606
f 928 290 305
f 623 238 622
f 625 1 623
f 774 893 894
f 312 332 912
f 626 632 631
f 332 339 847
f 847 892 332
f 757 887 285
f 847 714 54
f 793 3 8
f 732 807 726
f 858 931 857
f 675 812 687
f 168 167 15
f 273 735 757
f 920 921 7
f 402 385 639
f 167 845 17
f 638 633 338
f 646 649 663
f 650 663 649
f 845 850 157
f 888 239 721
f 663 654 646
f 706 409 48
f 850 854 153
f 676 654 663
f 429 409 317
f 661 692 660
f 854 858 149
f 676 663 686
f 858 862 147
f 433 429 691
f 678 680 677
f 699 711 712
f 712 734 356
f 711 710 753
f 862 866 141
f 712 711 740
f 682 436 827
f 734 740 748
f 866 870 137
f 214 687 808
f 748 756 758
f 664 816 652
f 872 133 135
f 198 687 214
f 754 182 768
f 872 874 131
f 665 659 658
f 758 765 766
f 658 648 653
f 766 764 758
f 776 770 777
f 668 198 170
f 117 923 116
f 787 786 789
f 929 330 822
f 533 822 322
f 556 336 330
f 531 322 523
f 899 920 833
f 662 444 889
f 346 323 256
f 491 482 620
f 116 880 911
f 911 20 116
f 382 491 620
f 911 932 20
f 932 886 99
f 645 443 662
f 930 382 611
f 382 930 516
f 886 824 199
f 605 531 930
f 491 508 848
f 628 170 902
f 256 347 346
f 482 848 479
f 891 896 93
f 347 256 861
f 820 617 739
f 866 819 817
f 605 594 593
f 896 901 85
f 929 593 582
f 612 881 885
f 901 905 83
f 826 451 653
f 451 457 180
f 672 659 665
f 441 180 851
f 79 905 796
f 436 673 672
f 436 851 827
f 909 914 75
f 682 673 436
f 914 916 71
f 584 902 897
f 876 86 342
f 69 916 1
f 829 433 827
f 700 808 694
f 788 3 916
f 853 829 417
f 409 61 48
f 402 48 855
f 870 817 816
f 855 29 360
f 874 816 664
f 385 361 102
f 830 880 875
f 576 897 25
f 819 634 817
f 68 69 1
f 106 856 730
f 743 736 738
f 910 242 236
f 862 857 819
f 744 879 102
f 880 830 831
f 840 528 843
f 401 846 44
f 803 302 780
f 769 791 357
f 878 915 791
f 831 911 880
f 918 873 345
f 576 25 475
f 799 31 475
f 841 29 846
f 879 856 102
f 106 639 385
f 573 564 876
f 911 831 802
f 342 556 876
f 337 339 332
f 25 510 515
f 350 29 841
f 564 573 892
f 892 582 912
f 510 25 56
f 864 906 837
f 312 328 337
f 929 822 593
f 33 35 258
f 871 360 29
f 840 860 835
f 864 158 863
f 29 855 44
f 916 914 917
f 808 687 812
f 594 307 312
f 307 305 328
f 916 917 788
f 33 56 927
f 840 835 809
f 307 594 605
f 736 743 361
f 531 516 930
f 290 277 305
f 852 109 927
f 318 835 860
f 21 844 529
f 852 59 112
f 620 393 611
f 102 743 744
f 112 113 852
f 751 763 762
f 647 785 762
f 805 747 751
f 252 268 254
f 230 835 229
f 487 641 635
f 637 879 467
f 124 851 164
f 809 230 221
f 161 142 176
f 807 732 805
f 247 234 254
f 230 809 835
f 808 700 807
f 345 637 186
f 176 184 191
f 812 694 808
f 204 849 223
f 849 204 191
f 813 688 812
f 635 648 725
f 849 184 198
f 815 613 813
f 815 636 613
f 217 223 849
f 659 191 204
f 217 234 223
f 191 184 849
f 859 480 421
f 795 213 511
f 245 461 243
f 878 865 859
f 802 886 932
f 191 659 867
f 452 718 889
f 223 234 247
f 176 142 184
f 246 254 234
f 865 493 486
f 293 771 357
f 268 247 254
f 771 769 357
f 805 264 735
f 268 252 390
f 161 113 112
f 486 493 488
f 390 252 274
f 867 673 746
f 264 751 279
f 274 277 390
f 746 682 152
f 281 848 287
f 827 433 682
f 808 703 214
f 152 691 109
f 109 852 113
f 476 859 421
f 296 305 277
f 476 595 877
f 305 307 928
f 196 293 292
f 595 476 820
f 726 807 700
f 752 293 357
f 307 328 312
f 310 328 305
f 56 59 852
f 292 752 799
f 328 310 323
f 886 825 824
f 312 337 332
f 807 703 808
f 891 824 782
f 193 292 189
f 844 21 22
f 429 853 409
f 109 697 927
f 56 33 510
f 105 559 553
f 339 337 346
f 346 714 339
f 51 346 347
f 317 926 927
f 564 690 876
f 863 844 232
f 799 868 292
f 510 33 258
f 843 528 529
f 844 863 842
f 861 840 843
f 861 158 347
f 861 860 840
f 752 915 31
f 158 843 842
f 843 158 861
f 842 529 844
f 919 837 906
f 906 232 907
f 809 528 840
f 730 873 918
f 730 856 873
f 873 856 879
f 856 106 385
f 817 634 645
f 837 919 838
f 817 652 816
f 919 906 907
f 919 536 537
f 743 102 361
f 904 669 838
f 898 669 904
f 669 898 38
f 703 807 721
f 405 404 838
f 669 405 838
f 922 833 836
f 294 285 887
f 361 385 402
f 869 645 634
f 830 875 664
f 916 3 1
f 864 51 347
f 402 855 361
f 909 801 914
f 397 890 374
f 48 44 855
f 796 909 77
f 879 637 873
f 901 798 905
f 580 925 397
f 48 402 706
f 896 800 901
f 891 823 896
f 409 62 61
f 853 62 409
f 881 413 417
f 417 62 853
f 86 407 299
f 459 893 882
f 199 891 95
f 830 465 831
f 829 426 417
f 426 829 124
f 426 881 417
f 124 829 827
f 433 829 853
f 886 802 825
f 774 894 883
f 851 124 827
f 164 884 124
f 441 851 436
f 180 164 851
f 443 869 164
f 911 802 932
f 715 830 664
f 874 664 875
f 736 361 360
f 451 180 441
f 457 452 889
f 889 444 457
f 866 817 870
f 106 35 639
f 459 718 452
f 826 452 457
f 452 826 245
f 451 826 457
f 862 819 866
f 858 857 862
f 461 245 826
f 459 882 718
f 479 243 461
f 854 931 858
f 850 925 854
f 846 401 580
f 845 890 850
f 491 848 482
f 848 281 479
f 825 494 883
f 382 508 491
f 900 832 767
f 508 287 848
f 896 823 800
f 839 890 845
f 504 782 824
f 42 374 839
f 516 508 382
f 908 910 318
f 534 524 523
f 552 818 548
f 42 172 173
f 901 800 798
f 818 552 900
f 533 322 531
f 871 175 737
f 868 187 189
f 22 232 844
f 593 822 533
f 822 315 316
f 929 556 330
f 330 315 822
f 838 919 537
f 904 838 537
f 318 860 834
f 908 318 834
f 465 830 715
f 556 342 336
f 105 836 559
f 833 559 836
f 29 44 846
f 908 834 804
f 562 917 828
f 299 836 105
f 818 900 767
f 832 553 559
f 562 832 920
f 811 315 548
f 828 801 821
f 801 828 917
f 821 797 814
f 836 299 903
f 401 590 580
f 797 821 801
f 905 798 796
f 796 814 797
f 810 548 818
f 814 798 806
f 798 814 796
f 909 796 797
f 811 548 810
f 413 587 590
f 404 51 837
f 51 864 837
f 837 838 404
f 909 797 801
f 529 842 843
f 158 842 863
f 232 906 863
f 800 806 798
f 529 528 511
f 794 811 806
f 785 908 804
f 785 647 908
f 859 877 878
f 526 534 794
f 877 571 878
f 571 31 915
f 173 351 42
f 524 783 509
f 350 173 175
f 29 350 871
f 823 526 794
f 783 524 526
f 526 823 782
f 42 351 374
f 841 374 351
f 504 775 783
f 509 783 775
f 782 823 891
f 885 124 884
f 887 757 779
f 914 801 917
f 426 885 881
f 890 397 925
f 825 504 824
f 775 504 883
f 925 587 931
f 587 925 580
f 802 494 825
f 785 279 762
f 494 831 465
f 831 494 802
f 894 287 775
f 590 895 413
f 438 897 576
f 884 164 869
f 762 279 751
f 423 931 587
f 587 413 423
f 931 423 857
f 762 761 647
f 617 820 476
f 595 820 621
f 751 755 763
f 893 459 243
f 751 264 805
f 609 857 423
f 423 881 612
f 662 443 444
f 721 805 735
f 621 584 595
f 857 609 819
f 443 645 869
f 612 885 627
f 636 621 820
f 628 902 584
f 805 721 807
