# avbd fit, rung f60-i16-s300-r1-h60-nosim of Gate 6d (body space, fit phase only)
v -0.002763827 0.580474079 0.004341642
v -0.110961005 0.591425300 0.063065007
v -0.002953981 0.600632071 0.004642089
v -0.002906613 0.944855988 0.070487753
v -0.151947856 0.576742649 0.053868353
v 0.006190686 0.958244979 0.083787300
v -0.005464910 0.639848530 -0.000307514
v -0.003997052 0.620504558 0.003969191
v -0.164310098 0.591816306 0.064795792
v 0.143893138 0.958448589 -0.101199791
v -0.180763572 0.588272691 0.043176197
v -0.189222604 0.593355238 0.016318932
v -0.208946079 0.593474865 0.003348661
v -0.148877412 0.588919520 -0.066558696
v 0.007433128 0.574338853 -0.009475936
v -0.126169339 0.580905795 -0.075588249
v 0.027467394 0.574910223 -0.009235522
v -0.111047544 0.579839826 -0.096593134
v -0.107577659 0.591480017 -0.075979598
v 0.185000062 0.540209889 -0.022826090
v -0.004330496 0.903566182 0.068416163
v -0.004629815 0.883240342 0.066012397
v -0.086969875 0.593389153 -0.067323998
v -0.071138278 0.600955069 -0.080515169
v 0.101843394 0.829830050 -0.124628246
v -0.071953908 0.616651952 -0.065920487
v -0.149043694 0.901457310 -0.140800089
v -0.154143617 0.798530281 0.068564817
v 0.032928713 0.692954421 -0.053793617
v -0.165777147 0.813560486 0.083214343
v 0.070459262 0.861988664 -0.146958649
v -0.197792485 0.786110580 0.047262020
v 0.088274993 0.788300097 -0.108383358
v -0.184049308 0.583570063 -0.033333343
v 0.068514600 0.777300000 -0.102706388
v -0.156402022 0.907040596 -0.102361619
v -0.173962563 0.903159916 -0.062403124
v 0.012656909 0.760744750 0.004243537
v -0.175067529 0.907356143 -0.037812885
v -0.098727800 0.901212573 -0.143942803
v -0.040545844 0.888670623 0.064865455
v 0.008307671 0.647151351 -0.018546283
v -0.026656697 0.864254475 0.061510831
v 0.046439543 0.693126380 -0.080125369
v -0.053531807 0.866227150 0.059157986
v -0.191684991 0.916724980 -0.015966397
v -0.176007211 0.892852962 -0.019102512
v 0.059805982 0.716949344 -0.089652710
v -0.165043101 0.902498364 0.004045656
v -0.047347721 0.599555314 0.005647814
v 0.064251170 0.831594288 0.057303179
v -0.061685540 0.595103383 0.029746672
v -0.072483502 0.696667075 0.058248598
v 0.049918093 0.784270525 0.054801922
v -0.077647097 0.589115977 0.052960016
v 0.108737335 0.803597569 -0.114079453
v -0.101189569 0.690277219 0.069223180
v -0.172815740 0.698637664 0.059703715
v 0.130202100 0.820108414 -0.117410287
v -0.199073941 0.695224881 0.031279709
v 0.072125949 0.695925653 -0.089742236
v 0.096402243 0.689808488 -0.096944019
v -0.202962130 0.797295332 0.022722056
v -0.196657732 0.821415067 0.021101372
v -0.202309445 0.693358064 -0.039392132
v -0.183013231 0.685540676 -0.063123651
v -0.177769080 0.698203981 -0.086690463
v 0.014130560 0.575744271 0.015389400
v 0.020295547 0.562392294 0.001501044
v -0.148904294 0.687541246 -0.084461048
v 0.040098913 0.563461185 0.005090238
v -0.126204327 0.705071688 -0.098194852
v 0.040877644 0.561630130 -0.013458857
v -0.029450202 0.762875080 -0.069549069
v 0.056693465 0.555459976 -0.007521953
v -0.120827690 0.900617898 -0.150225043
v 0.065062866 0.549873710 0.009918919
v -0.130298227 0.902264774 -0.130554035
v 0.072614178 0.544032812 0.026997307
v -0.135229900 0.884696126 -0.138945326
v 0.085089579 0.540233970 0.041857872
v -0.144728869 0.921050727 -0.124745145
v 0.102909945 0.537965178 0.050392441
v -0.184847966 0.867888093 -0.095897309
v 0.120229222 0.536035061 0.059416194
v 0.036202673 0.737756371 0.030491939
v -0.142316073 0.903564930 0.059113700
v -0.129454061 0.803464770 -0.116315439
v -0.153055400 0.628338933 0.061097406
v 0.134383366 0.534289420 0.071130253
v -0.155740961 0.810760200 -0.125644460
v -0.026553508 0.820985675 0.030974546
v 0.144740388 0.534382641 0.054705221
v -0.045705032 0.819348991 0.047530320
v 0.162054047 0.533088386 0.044992603
v -0.033788025 0.841170013 0.051281191
v 0.178572223 0.532853186 0.034593038
v -0.027013969 0.910484910 0.067997068
v 0.181197077 0.535102725 0.015144713
v -0.087835789 0.923543453 -0.140845746
v 0.186641037 0.537740707 -0.004060625
v 0.021744708 0.769597888 -0.061285257
v -0.105507456 0.878959835 -0.153433278
v -0.110421821 0.643002748 0.069061801
v 0.032761164 0.714436412 0.018229177
v 0.047541492 0.780569673 -0.097173288
v -0.132577449 0.866738796 -0.128798798
v -0.144050866 0.622432828 0.082670815
v 0.131545693 0.766116142 -0.126724616
v -0.143042818 0.849830925 -0.138763219
v 0.147877842 0.830040157 -0.132352009
v 0.158145323 0.804853797 -0.127268732
v 0.153973073 0.777645290 -0.120605744
v -0.160451517 0.651468873 0.058966689
v -0.157931656 0.838591576 -0.121362552
v 0.203777835 0.544029295 -0.018383596
v 0.196508914 0.543383777 -0.035702683
v -0.204862267 0.640586257 0.031648874
v 0.164055973 0.830042243 -0.116911158
v -0.161408648 0.852435470 -0.096766636
v -0.181440681 0.849035084 -0.075880714
v -0.186784163 0.863869846 -0.056304652
v -0.065741293 0.845295250 -0.155089945
v 0.128586099 0.677555025 -0.090639412
v -0.168874055 0.846920490 0.047927476
v -0.188969567 0.844565868 0.023030307
v -0.134499818 0.839557052 0.064184606
v -0.135274500 0.856149018 0.080101416
v 0.176617786 0.546610594 -0.037390292
v -0.032312647 0.838993430 -0.132772923
v 0.170482621 0.542865753 -0.055063508
v -0.054597236 0.835344315 -0.132405847
v 0.169941872 0.540190458 -0.074566297
v -0.030789455 0.703482032 -0.050311882
v 0.152432382 0.542596579 -0.067416638
v -0.121405542 0.898400664 0.049567260
v 0.138115585 0.548237920 -0.078760259
v -0.094240919 0.901010692 0.055398989
v 0.139877394 0.550921917 -0.098088719
v -0.035379648 0.821442246 -0.115605272
v 0.123630963 0.556520820 -0.088512361
v 0.150393799 0.820103943 -0.103878334
v -0.039991871 0.809895396 -0.093334183
v 0.123766519 0.555279136 -0.071773306
v -0.061277367 0.817522824 -0.115804732
v -0.178012758 0.809683979 -0.104737423
v 0.107969567 0.552694499 -0.082481191
v -0.136091217 0.926452935 0.048932679
v 0.100759938 0.559957862 -0.066439971
v -0.031491462 0.730902672 -0.068426229
v 0.082971148 0.562067866 -0.058038540
v 0.147650957 0.752892613 -0.115765311
v 0.066807315 0.564594567 -0.046206295
v -0.100370124 0.755008519 -0.109558307
v 0.054633342 0.569059193 -0.031008851
v -0.060182918 0.669251323 -0.077127203
v 0.035025530 0.571336985 -0.027219748
v 0.049991820 0.869569600 0.076333359
v -0.182743073 0.770779550 -0.095329151
v -0.208912283 0.590437531 -0.022028215
v 0.141929686 0.794379592 -0.106223121
v -0.211182281 0.791965127 -0.043250639
v -0.214794680 0.748620987 -0.032114059
v 0.154119521 0.667182028 -0.078149214
v -0.200178817 0.733074129 -0.050051145
v -0.014489661 0.614549875 -0.010749673
v 0.010726311 0.599019706 -0.010691078
v -0.013187446 0.594589531 -0.009219116
v -0.013599081 0.633511186 -0.018284421
v 0.160411686 0.847903371 -0.097148187
v -0.186654270 0.738823473 -0.069794729
v -0.014363903 0.653347254 -0.020356493
v -0.013424544 0.674325347 -0.021284914
v -0.209692568 0.730227470 -0.009432125
v -0.012630738 0.694595456 -0.025592044
v 0.162634209 0.800848961 -0.098014921
v -0.159438074 0.736780226 -0.090649515
v -0.087742187 0.570656240 -0.061622955
v -0.206324413 0.741951346 0.022804582
v 0.175853252 0.684678376 -0.087985881
v -0.199334651 0.719226718 0.034447182
v -0.093973711 0.735317230 -0.121847749
v -0.083573438 0.725759089 -0.100168705
v 0.176845253 0.821723580 -0.092510775
v -0.060405783 0.795660377 -0.102401994
v -0.012223376 0.817087471 -0.096176364
v -0.011532607 0.829978287 -0.111809768
v -0.102304794 0.875581563 0.050354064
v -0.010883202 0.845193982 -0.124300979
v -0.119830430 0.872165382 0.071402654
v 0.181463763 0.791453719 -0.086414136
v -0.112758577 0.852102399 0.063872978
v -0.010919509 0.863898277 -0.132313222
v -0.119249083 0.894447923 0.073716827
v -0.166935012 0.730575442 0.080216505
v -0.011594312 0.883668303 -0.135855049
v -0.107385769 0.915217578 0.064034939
v 0.193271190 0.846785069 -0.080901936
v 0.175782710 0.555759847 0.045443483
v -0.010709984 0.901533425 -0.144876093
v -0.126981035 0.919102848 0.072139911
v -0.011658142 0.918185830 -0.134079263
v -0.157345325 0.865043998 0.065242112
v 0.192798257 0.780109644 -0.065428548
v -0.143521607 0.882294476 0.046289779
v -0.210606307 0.785649180 -0.000197194
v -0.012086151 0.938029289 -0.129968166
v -0.139391780 0.930442929 0.025682723
v -0.143124282 0.904790580 0.027647480
v -0.155960828 0.925847888 0.004481322
v -0.142709911 0.723433256 0.074314304
v 0.040685575 0.962293506 0.068735167
v 0.019965736 0.964330673 0.070231512
v 0.190475419 0.859931648 -0.050774366
v -0.003626842 0.924051285 0.069613449
v -0.168602228 0.919460952 -0.018952409
v 0.204809710 0.831448853 -0.052439440
v -0.179269344 0.931173027 -0.032776706
v -0.169033751 0.927453339 -0.051910471
v -0.070888519 0.643289328 -0.072934106
v 0.061243869 0.959092021 0.067408167
v 0.198489890 0.845080376 -0.028908664
v 0.208263785 0.796535373 -0.045606051
v -0.180310979 0.927942276 -0.070859723
v -0.148632810 0.930732906 -0.103239104
v -0.130150169 0.919588745 -0.144983634
v -0.148104340 0.862634480 -0.114820540
v -0.098116875 0.638814509 -0.084312029
v 0.078541659 0.946346581 0.059455223
v 0.078791566 0.953341782 0.076185033
v -0.114368163 0.858273327 -0.141535729
v -0.004791300 0.862955391 0.062333416
v -0.116647616 0.882768333 -0.137314036
v 0.203741744 0.817963719 -0.026359558
v -0.117980018 0.621360719 -0.080917455
v 0.094937362 0.946029961 0.050122470
v -0.029992208 0.700443864 0.009764574
v -0.031058177 0.585086584 -0.007408778
v 0.195797667 0.857887387 -0.008181984
v -0.202953026 0.843042493 -0.052003253
v -0.041647635 0.637731671 0.011198293
v 0.100287363 0.930507362 0.057351846
v 0.205263495 0.683416724 -0.016096776
v -0.054982584 0.575339675 0.008393247
v 0.211510152 0.684453607 -0.037666418
v 0.201939583 0.834280312 -0.004295989
v 0.209129065 0.791210711 -0.015595044
v -0.052262057 0.649028420 0.032728858
v -0.070631698 0.568149209 0.036409266
v -0.097090244 0.567746282 0.053249132
v -0.088206753 0.632212996 0.058615614
v 0.207608506 0.820155799 0.022822060
v -0.090469912 0.609749794 0.056612086
v 0.206837222 0.811203659 -0.002163566
v -0.063351080 0.843952179 0.052208044
v 0.100002035 0.853639483 0.066919707
v -0.110772192 0.618724942 0.066860534
v 0.065606005 0.796072841 -0.106881618
v -0.125882700 0.566883862 0.064890422
v -0.182281286 0.644273698 -0.055520792
v -0.132710621 0.632627845 0.069682300
v -0.140144020 0.587993205 0.082384542
v 0.061369419 0.814415812 -0.104113147
v 0.163949087 0.879517734 0.028363517
v -0.135024056 0.608360648 0.065799735
v -0.187141716 0.625297844 -0.041876040
v -0.153484493 0.566923797 0.075719848
v 0.211840197 0.792382002 0.011695093
v 0.206932038 0.771908343 0.024001781
v -0.141406134 0.882027924 0.074009977
v -0.158470958 0.608903706 0.077689402
v -0.170824856 0.563714027 0.043845549
v 0.187000811 0.838195801 0.028762355
v 0.185736388 0.813051343 0.041860711
v -0.178683430 0.632921815 0.050164144
v -0.166240796 0.609854460 0.051358748
v 0.184368998 0.788475573 0.057594616
v -0.182135791 0.568763375 0.021955762
v 0.152233452 0.888680458 0.052907318
v -0.185744435 0.615400195 0.031321801
v 0.203811288 0.675036609 0.008142190
v -0.065666631 0.963317990 0.063876681
v -0.208371446 0.614083529 0.017575057
v -0.031363521 0.937891960 0.069006167
v 0.172869831 0.832839608 0.051332254
v -0.160790294 0.868408382 0.041357182
v 0.193894669 0.666332006 0.032025296
v -0.161438167 0.885761380 0.024484266
v -0.194010958 0.607775390 -0.005419402
v 0.175515085 0.765142679 0.063929357
v -0.176343337 0.865075290 0.023670364
v 0.015313931 0.861311913 -0.133306876
v 0.016444590 0.885153472 -0.144477591
v 0.153008759 0.826434255 0.064743385
v -0.042326786 0.936003089 -0.136446178
v 0.168001384 0.808493435 0.062808469
v -0.197833627 0.632166743 0.001397572
v -0.033558030 0.911733627 -0.142716810
v 0.024039600 0.738988698 0.007154054
v -0.034853768 0.630276084 -0.019453399
v -0.058105089 0.917090118 -0.148547083
v 0.143832147 0.841460824 0.082344159
v -0.067662418 0.936761558 -0.137179911
v -0.179988891 0.882001042 0.004608545
v 0.154211655 0.783839285 0.070162237
v -0.196699649 0.862293899 0.005532837
v 0.139156282 0.763320148 0.085474484
v -0.202084586 0.871247947 -0.039506610
v -0.196089342 0.852707207 -0.021637831
v 0.149742931 0.812940896 0.084964998
v -0.198195517 0.878918052 -0.014524165
v 0.116094373 0.774808288 0.080798969
v -0.201063201 0.563293338 -0.030722091
v -0.214283630 0.615773976 -0.013200039
v 0.090888105 0.668281376 0.063662320
v 0.114458084 0.664291561 0.072985277
v 0.097514138 0.743492961 -0.107101753
v 0.093521126 0.911212802 0.054880302
v -0.026321987 0.641013384 -0.005712087
v 0.106565058 0.945257962 0.063157126
v -0.179753318 0.884457409 -0.045645546
v 0.125481009 0.685337842 0.078774884
v 0.121835373 0.824754596 0.071897976
v -0.198165759 0.628983259 -0.020993222
v -0.172954842 0.877710164 -0.072482452
v 0.123041175 0.947586656 0.063593529
v -0.161687136 0.880580544 -0.099050835
v 0.131300673 0.793836176 0.088629022
v -0.062354006 0.778804958 -0.120265804
v 0.078878582 0.693943739 0.061008591
v -0.174729541 0.561039805 -0.042948935
v 0.091319218 0.778228998 0.080134250
v -0.192460954 0.606918931 -0.027079264
v -0.181497604 0.620061040 -0.067523524
v -0.156311929 0.560856700 -0.062176991
v 0.053572558 0.692125916 0.053142518
v 0.105263487 0.800104439 0.078293487
v -0.072738722 0.746926785 -0.100560173
v 0.081324413 0.798380911 0.079181388
v -0.169291034 0.580336928 -0.057422776
v -0.168273255 0.638466895 -0.081009746
v 0.042330641 0.713555753 0.042060100
v -0.079006538 0.758622169 -0.126350313
v -0.154529810 0.571856141 -0.084910907
v 0.011085331 0.820120633 -0.101818666
v 0.087481007 0.825908482 0.083387092
v 0.070278600 0.851375401 0.079447515
v -0.157489434 0.613751948 -0.077880226
v 0.120347463 0.943595886 0.043683112
v 0.016061354 0.685174823 -0.029561451
v 0.015328412 0.663088262 -0.031600866
v -0.137369290 0.561237216 -0.068456285
v 0.136175767 0.945101380 0.031358801
v -0.120200813 0.756052136 -0.125865087
v 0.144628897 0.946235359 0.013350082
v -0.132891446 0.619244814 -0.096807860
v 0.042383004 0.896173954 -0.145059422
v -0.134017557 0.607891321 -0.074522503
v 0.154521316 0.948353469 -0.002931123
v 0.028034404 0.718326211 -0.052024703
v 0.029498016 0.742252469 -0.063330591
v -0.135254934 0.735431194 -0.131333277
v 0.175187692 0.954980373 -0.000216856
v -0.145394176 0.758269012 -0.124144971
v -0.111065708 0.916089833 -0.133816883
v -0.056018330 0.916988492 0.065314025
v 0.178384617 0.953357041 -0.021144360
v -0.122720882 0.556371093 -0.089417346
v -0.142161101 0.748085320 -0.104268417
v -0.126039952 0.597329259 -0.091082804
v -0.144662470 0.890783966 -0.118325546
v 0.169664532 0.940755188 -0.008778172
v -0.160895079 0.761515617 -0.094351828
v 0.030566152 0.643748820 -0.033537295
v -0.101527058 0.563934982 -0.077719435
v -0.182800248 0.747815013 -0.092656806
v 0.162635610 0.947237670 -0.025691997
v -0.153369412 0.874351025 -0.135868073
v 0.161613271 0.951590061 -0.044942982
v -0.188086614 0.767621696 -0.071306139
v -0.107391991 0.607497573 -0.096982002
v 0.184183806 0.711509109 0.058423884
v 0.156741560 0.954433918 -0.064140119
v -0.199145600 0.752596259 -0.055146359
v 0.034063864 0.761604965 -0.083897404
v -0.075365379 0.574748278 -0.078647323
v -0.036699973 0.604529500 -0.014950153
v 0.148126513 0.955718637 -0.082089409
v -0.208028957 0.771719992 -0.050879531
v 0.197630256 0.791840613 0.033959765
v -0.026962807 0.679479063 -0.000835707
v 0.128575474 0.956162572 -0.110748336
v 0.194272906 0.762323081 0.044975430
v -0.067441598 0.773667216 0.061172776
v -0.093060911 0.614233196 -0.075091057
v -0.068447240 0.587700427 -0.055438250
v 0.043868113 0.641542017 -0.054365981
v -0.076739207 0.626140594 -0.087914437
v -0.048203893 0.609555721 -0.064081296
v -0.042006854 0.587121010 -0.051143330
v 0.061839748 0.673724473 -0.079917297
v 0.044345554 0.737767160 -0.089483872
v -0.198560581 0.734733820 0.054696061
v 0.043034270 0.808933079 0.047975551
v 0.032005627 0.785649240 0.034709595
v -0.199776471 0.760559440 0.050441723
v 0.029501881 0.761927903 0.021038529
v -0.035721384 0.783690512 -0.087943867
v 0.090241775 0.716660857 -0.100113586
v -0.177043095 0.775191486 0.063076012
v -0.050362766 0.650981665 -0.067089893
v -0.056142472 0.631238639 -0.062936887
v 0.095236823 0.659634709 -0.088205032
v -0.172846705 0.749367893 0.064015344
v -0.047062386 0.617313206 -0.038054418
v 0.125356048 0.960249424 -0.129184633
v 0.112594023 0.675959826 -0.107929662
v -0.036132842 0.636061966 -0.055060107
v -0.161632359 0.764713645 0.085633747
v -0.033441406 0.671213567 -0.060938857
v 0.112176456 0.955930412 -0.115594923
v -0.038279183 0.650408387 -0.034502506
v 0.103749990 0.630803943 -0.084489092
v -0.189879462 0.583852768 -0.007885376
v -0.207111791 0.569854259 0.013717297
v 0.133634180 0.666497886 -0.112237573
v -0.149120003 0.743017793 0.087783203
v -0.132842124 0.757330358 0.076714605
v 0.113829851 0.726143658 -0.116473593
v -0.087999627 0.842715442 0.068970993
v -0.085786194 0.960474610 0.060892344
v -0.116922773 0.733332992 0.082375966
v 0.138606980 0.714545369 -0.119934164
v -0.105224326 0.756972671 0.080470845
v -0.091807067 0.820375919 0.081330143
v 0.150225580 0.722925961 -0.091817245
v -0.089269809 0.738091469 0.068027072
v 0.119883120 0.876323700 -0.136006624
v -0.080239967 0.797468543 0.067365251
v -0.105324373 0.798743129 0.083387069
v 0.173268035 0.710863888 -0.092015043
v -0.094927475 0.778426170 0.072533436
v 0.167779505 0.645502925 -0.070709206
v 0.182850629 0.660032570 -0.080401614
v -0.084216930 0.759102225 0.067422904
v -0.063755617 0.747595847 0.058484562
v -0.119886950 0.777897060 0.082673587
v -0.030191118 0.773112833 0.025684256
v -0.130969778 0.798347294 0.074025013
v -0.119656384 0.819015324 0.073759817
v 0.181575924 0.704299569 -0.068479247
v 0.194638580 0.668870866 -0.043349449
v -0.070182428 0.819495022 0.060753524
v -0.145421237 0.778662920 0.072569795
v -0.041762006 0.678071201 0.024329877
v -0.147254974 0.818792701 0.066284247
v 0.181569368 0.677942753 -0.062995329
v -0.159471005 0.840535641 0.081460595
v 0.213128567 0.662264228 -0.029458504
v -0.181296796 0.800025761 0.065371253
v 0.214875072 0.711506069 -0.029878449
v -0.167740300 0.788267255 0.083972476
v -0.081561334 0.867349327 0.061043978
v -0.169545174 0.821871102 0.059407037
v 0.209305257 0.616356611 -0.029046480
v -0.083672263 0.912980855 0.078204036
v -0.013076311 0.791801572 -0.065983787
v -0.081254616 0.937480092 0.071724847
v -0.182297319 0.828613281 0.039044730
v -0.204700753 0.770797610 0.023458829
v -0.058343470 0.943633556 0.064681873
v -0.013158676 0.809189141 -0.077393472
v -0.114767589 0.942354023 0.041758396
v -0.210884809 0.758028150 -0.002829947
v 0.078235887 0.839837730 -0.139516637
v 0.125634402 0.921206951 -0.126903921
v -0.203345180 0.837879539 0.000890815
v -0.099208906 0.952404320 0.048891440
v 0.207675070 0.704644263 -0.001126935
v 0.105667755 0.960238814 -0.131831303
v -0.198732048 0.897213578 -0.033519484
v 0.206792518 0.720977843 0.019378284
v -0.209495977 0.775119483 -0.024651961
v -0.207418278 0.801689029 -0.022920182
v -0.202225357 0.827062309 -0.024773160
v 0.088763431 0.955624878 -0.123138286
v 0.210707858 0.766682029 0.000787409
v 0.068770014 0.957370877 -0.124332264
v -0.102284327 0.864273548 0.083309539
v -0.027364250 0.885673821 -0.147610411
v 0.196552247 0.709017217 0.039051156
v 0.048559915 0.958636642 -0.124649063
v 0.059810452 0.941151321 -0.134586096
v 0.193681806 0.606487632 -0.003102233
v -0.093476236 0.927285373 0.053303372
v -0.030568685 0.861611724 -0.143908903
v -0.196440563 0.793583155 -0.062629297
v -0.181623518 0.901268840 -0.089805573
v -0.113132201 0.840278625 0.084593847
v 0.028117111 0.958949924 -0.124267891
v -0.182692036 0.792412877 -0.084800288
v 0.007702493 0.957565188 -0.121551454
v -0.149266332 0.799357414 -0.104294196
v 0.187996536 0.610123038 0.044149116
v -0.167496249 0.783813417 -0.106966242
v 0.007694887 0.942500293 -0.127225071
v -0.013059990 0.957095802 -0.122768387
v 0.191941991 0.685728788 0.049857356
v 0.182292491 0.658494711 0.056053780
v 0.085330538 0.813735306 -0.106389925
v 0.019519031 0.930042863 0.069316052
v -0.157411307 0.825047374 -0.101169482
v -0.141986668 0.773642063 -0.105531916
v -0.161237627 0.924588978 -0.083765715
v 0.066894658 0.824995637 -0.123947881
v 0.166166380 0.684523523 0.061533529
v -0.142565772 0.783673584 -0.131103188
v -0.061288845 0.573570907 -0.038560834
v -0.106103525 0.797510743 -0.113985136
v -0.045791347 0.562279105 -0.043717839
v -0.065298699 0.557887435 -0.046394248
v -0.117364489 0.778341115 -0.115881607
v 0.142022803 0.669935107 0.073322847
v 0.155574441 0.650637269 0.061403822
v -0.073061280 0.553881109 -0.062568918
v 0.145684451 0.621342003 0.062896900
v -0.124170721 0.844457984 -0.122066535
v 0.045674630 0.920166194 0.073285289
v 0.027132869 0.905195057 0.067548379
v -0.087723598 0.549596488 -0.077053130
v 0.144283742 0.699251533 0.071389124
v -0.108002022 0.822781861 -0.112773143
v 0.124290623 0.706365168 0.080930501
v 0.130346060 0.642040968 0.075463057
v -0.088229842 0.544798791 -0.059879284
v -0.004711493 0.826845169 0.042502709
v -0.005149406 0.813801885 0.026570912
v -0.084138550 0.802484989 -0.112289488
v -0.102802157 0.539056003 -0.070099801
v -0.088253923 0.859318137 -0.144856304
v -0.091183543 0.778513730 -0.109197833
v -0.117925167 0.534709215 -0.080199473
v -0.137755841 0.536056459 -0.079302058
v -0.153216541 0.540939450 -0.068023406
v -0.049152739 0.792067051 0.053856425
v -0.028942043 0.797940016 0.031671159
v 0.069691457 0.674158692 0.055462927
v 0.072639257 0.650088906 0.054273855
v -0.152933389 0.542342722 -0.086618975
v -0.166869849 0.550101757 -0.074647859
v -0.030507097 0.724207520 0.016299268
v 0.050813854 0.666489244 0.047944982
v 0.042314000 0.688149571 0.028538357
v -0.170356631 0.541057885 -0.057377864
v -0.077611774 0.838331103 -0.138272628
v 0.063631691 0.715048552 0.056724638
v -0.179806277 0.536962390 -0.040156867
v -0.044672124 0.703911424 0.040073708
v 0.028334731 0.692036152 0.005311079
v -0.035243172 0.658548236 0.007538484
v -0.101127923 0.837384343 -0.134085566
v 0.032207500 0.641643703 -0.008508004
v -0.054561198 0.674974203 0.049973916
v 0.060049642 0.760190845 0.058064349
v -0.038607590 0.621301234 -0.002308700
v -0.051765092 0.619590223 0.022838855
v -0.068331257 0.871856868 -0.158954918
v -0.085312553 0.882594287 -0.147992283
v -0.066134676 0.722064257 0.057872850
v -0.075030029 0.900005341 -0.155539706
v 0.094110884 0.880859673 -0.146441251
v -0.195756942 0.535295784 -0.028387651
v 0.072528020 0.737697005 0.061788142
v -0.063343972 0.619486868 0.049626328
v -0.094515078 0.714288354 0.068471819
v 0.100776352 0.855317712 -0.140155703
v -0.066981867 0.649492860 0.057181858
v -0.081682190 0.673229039 0.059861548
v -0.093504116 0.888946056 0.080012128
v 0.062938653 0.648014128 -0.070985183
v -0.070307449 0.892329872 0.061194528
v 0.094931237 0.739705801 0.070916586
v -0.091227993 0.653239012 0.062120579
v 0.147499889 0.872798443 -0.141446561
v -0.186914772 0.539367795 -0.012784714
v -0.030313004 0.748684466 0.020151556
v 0.076599278 0.632471919 -0.090825252
v -0.201521352 0.543305039 0.015440755
v -0.132368833 0.681444764 0.074717984
v 0.070939563 0.656367481 -0.091187783
v -0.193404436 0.548554242 0.032680519
v -0.108626701 0.666886926 0.070248552
v 0.110406458 0.722825050 0.075981349
v 0.118034169 0.747321308 0.080609336
v 0.135639697 0.898750126 -0.140832990
v -0.175405145 0.544215024 0.026554760
v -0.120704077 0.706943929 0.078215756
v -0.164203316 0.544677496 0.043536302
v -0.133497387 0.656334281 0.071651757
v -0.147085577 0.548462987 0.051781215
v -0.161602199 0.553825021 0.061699755
v -0.144695967 0.701852798 0.071907043
v -0.156380117 0.664935172 0.083080202
v -0.145507142 0.545603335 0.068829156
v 0.138776183 0.729628503 0.081275359
v -0.161892146 0.687649071 0.081156470
v -0.126806051 0.543682098 0.061855607
v -0.107983470 0.542863727 0.053391457
v 0.124674618 0.617742538 -0.094302237
v -0.165724009 0.709846616 0.080131121
v 0.180579990 0.739756227 0.061463982
v 0.127085492 0.636947453 -0.097474888
v 0.154461175 0.934095025 -0.100114271
v -0.089728236 0.543178201 0.044467762
v -0.151625082 0.642291605 0.082918420
v -0.076201156 0.546127796 0.029783949
v 0.134615988 0.942014515 -0.131695896
v -0.066528521 0.550526738 0.012971386
v -0.053145181 0.554917634 -0.001565364
v 0.196616098 0.733282804 0.041804440
v 0.156087503 0.894002259 -0.125709087
v -0.036468893 0.559084058 -0.011450612
v -0.026712496 0.562652469 0.005831745
v -0.175730899 0.722753108 0.060804706
v -0.023653846 0.582060039 0.010785969
v -0.167786956 0.674807012 0.059065569
v 0.147426888 0.628049970 -0.092593804
v 0.152014166 0.870217800 -0.113391243
v 0.207652494 0.747428298 0.021075854
v -0.196561128 0.708246589 0.056038849
v -0.189553797 0.656406045 0.055005264
v -0.194363073 0.682397664 0.055210043
v -0.043073181 0.751131654 -0.092237473
v 0.134924144 0.618258417 -0.075478688
v 0.209886193 0.765701175 -0.024914354
v 0.147028640 0.911754310 -0.110924147
v 0.005349746 0.811319232 -0.079613551
v -0.061700821 0.769623578 -0.100420490
v 0.057464220 0.758473277 -0.097180419
v -0.043728560 0.733731806 0.042020705
v 0.209912300 0.736359417 -0.008185717
v -0.195482329 0.669005573 0.029405031
v -0.209119081 0.712257981 0.011402703
v -0.187497884 0.807573974 0.041913256
v 0.160707459 0.621637106 -0.067485765
v -0.201608494 0.658334792 0.002636517
v 0.113671899 0.916207016 0.068545841
v 0.212212831 0.741162419 -0.038602632
v -0.205498502 0.685422957 0.004308400
v -0.219515115 0.701901197 -0.014924849
v -0.213807911 0.718421102 -0.036634117
v 0.179264441 0.606533587 -0.077555552
v 0.196547404 0.722722948 -0.052081563
v -0.218299836 0.642940104 -0.012981391
v -0.208116367 0.812368572 -0.000056959
v 0.159851655 0.890507340 -0.101041257
v -0.044867024 0.964791894 0.067422748
v 0.194356605 0.750100672 -0.060802352
v 0.181915969 0.760077477 -0.085673138
v -0.080425300 0.822467029 -0.124129377
v -0.064825103 0.820289493 -0.145941466
v 0.186784253 0.632290900 -0.074216053
v -0.219518900 0.671537042 -0.022987457
v 0.172831029 0.595236897 -0.055629384
v 0.182161659 0.730829418 -0.073641263
v -0.033823036 0.957295775 -0.125498220
v -0.054574776 0.955501378 -0.126679912
v 0.178348392 0.870971978 -0.098797180
v 0.018224625 0.784438848 0.011793334
v -0.075097814 0.952046394 -0.127406195
v -0.042749785 0.761295676 0.047835283
v 0.171330705 0.735406756 -0.094120637
v 0.153709143 0.750859618 -0.095360801
v -0.094465271 0.950582385 -0.132125780
v 0.178470775 0.897085488 -0.086528584
v -0.198474899 0.648941338 -0.031361789
v -0.109807849 0.950364113 -0.145421669
v -0.110516727 0.924696565 -0.153756827
v -0.207612127 0.815209508 -0.049591050
v -0.108149052 0.939886749 -0.127011150
v -0.126802266 0.931966424 -0.121736228
v 0.130812421 0.736868739 -0.103939116
v -0.188861340 0.711978614 -0.060749926
v -0.187899411 0.820086360 -0.074208662
v -0.184124604 0.837581515 -0.100969411
v -0.193217546 0.668349624 -0.046090093
v 0.175205305 0.875589967 -0.069347627
v 0.166178614 0.933522522 -0.062422626
v -0.178206280 0.602732658 -0.049644589
v 0.040297415 0.761148155 0.043490380
v 0.135501951 0.738353133 -0.128666058
v -0.064655162 0.798552573 -0.135090992
v -0.181413993 0.722670197 -0.089575455
v 0.171393007 0.923209667 -0.042340610
v -0.081970342 0.783934593 -0.126620680
v -0.173874065 0.594741881 -0.076114036
v 0.117953479 0.750175536 -0.117566898
v -0.183237880 0.660200357 -0.073893204
v -0.150401801 0.660262048 -0.079248741
v 0.170355767 0.914546311 -0.019670973
v -0.170807913 0.676083922 -0.085604593
v -0.154842839 0.712248445 -0.087739766
v 0.201909661 0.874648929 -0.027816739
v -0.141294569 0.633644164 -0.076705530
v -0.031734932 0.677128911 -0.033661969
v 0.072157905 0.738506913 -0.099040426
v -0.122752108 0.943149567 -0.135849386
v -0.130963430 0.948466480 -0.120174743
v -0.146157831 0.722881198 -0.109662987
v -0.145910293 0.696658134 -0.110479191
v -0.143677622 0.670111299 -0.106681421
v -0.139956877 0.643855035 -0.102159783
v -0.133656189 0.824886978 -0.131203160
v 0.067557082 0.806083798 0.060806055
v 0.182093486 0.621216416 -0.048199791
v -0.151086211 0.949515522 -0.084382951
v -0.159544677 0.947811782 -0.065876186
v 0.194851682 0.642880797 -0.034424130
v -0.013563601 0.573644280 -0.008607605
v -0.175937697 0.952485740 -0.055785656
v 0.201105431 0.881199479 0.001632968
v -0.163010046 0.949387252 -0.041709241
v -0.179807767 0.951006234 -0.028514165
v -0.177980006 0.949257374 -0.009165300
v 0.207654044 0.766923785 -0.049480326
v 0.183415800 0.929327846 -0.026666051
v -0.163992956 0.945416927 -0.023670657
v -0.157616943 0.948169827 -0.006935347
v -0.146508604 0.949056625 0.009489222
v 0.046800405 0.804817379 -0.094011404
v -0.140430868 0.949034333 0.028230488
v 0.183879286 0.924015522 -0.004326041
v -0.130380675 0.951388836 0.044679832
v -0.111771181 0.633700728 -0.103198841
v 0.182642922 0.865576148 0.015282547
v 0.011811214 0.730280638 -0.040573753
v -0.012185676 0.714659035 -0.031601094
v -0.012342764 0.734552205 -0.038434137
v 0.136850104 0.934320569 -0.112416506
v -0.116023794 0.659304380 -0.110038340
v -0.012721838 0.754035056 -0.046601091
v -0.123493470 0.711491704 -0.125251532
v 0.008769806 0.752753139 -0.048069648
v -0.013222672 0.773031354 -0.055978466
v -0.112939402 0.948308587 0.058460116
v 0.137235448 0.768157661 -0.105773769
v 0.160671920 0.919851422 -0.000459090
v -0.123162106 0.649187982 -0.085531116
v -0.102312431 0.936059952 0.068515703
v -0.120431423 0.933183670 0.061116826
v 0.146555811 0.900534272 0.022910040
v 0.042170353 0.870235443 -0.144510478
v -0.119620427 0.685263276 -0.117501996
v -0.122825339 0.733181775 -0.107484058
v 0.146773964 0.926978469 0.017204504
v -0.126202896 0.677349150 -0.090880491
v 0.171062201 0.855543911 0.038455617
v -0.100138269 0.664159536 -0.091998093
v -0.007453342 0.758477092 0.000785625
v -0.115166128 0.918907642 0.044579528
v 0.131632060 0.929237008 0.055353962
v 0.138663396 0.908575833 0.055205353
v 0.133170992 0.922195554 0.036231872
v -0.077564634 0.652724028 -0.093323596
v -0.101560175 0.688095689 -0.100974187
v -0.074942708 0.678844333 -0.096754268
v 0.041789845 0.646044910 0.014566612
v -0.102463089 0.711459875 -0.112642087
v 0.047304980 0.920446217 -0.141742721
v -0.077493683 0.703973174 -0.093566313
v 0.019054599 0.908640862 -0.138044670
v -0.052525692 0.858322501 -0.143778890
v -0.051388003 0.887745082 -0.146823421
v 0.197738230 0.631510794 -0.005031942
v 0.187147021 0.638610482 0.036802180
v -0.045016512 0.697040200 -0.081819408
v -0.056268372 0.725055158 -0.090660796
v -0.140185595 0.948754966 -0.102248155
v 0.154180273 0.867574513 0.049142309
v 0.151360825 0.868099332 0.074433625
v -0.186138988 0.561596215 -0.006300936
v 0.162324697 0.600400746 0.052307665
v 0.172736913 0.628758073 0.058500856
v -0.184297204 0.544940412 0.006179416
v 0.127241805 0.886193097 0.073540300
v -0.052114725 0.593129039 -0.027518347
v -0.043560915 0.576714396 -0.033227012
v 0.019815650 0.618919969 0.003975413
v -0.029720282 0.572236538 -0.021691801
v -0.004024874 0.965572834 0.070700303
v 0.065912470 0.908841252 -0.147473186
v -0.024241839 0.964818835 0.069989279
v -0.026188750 0.604690015 0.003904318
v 0.120089233 0.614178658 0.074151248
v 0.041120697 0.942606807 0.068838507
v 0.068013057 0.569524288 0.035160024
v 0.056129057 0.589132011 0.029099245
v 0.091338322 0.581171393 0.053160351
v 0.044591002 0.842010617 -0.135789126
v 0.115492627 0.586670280 0.065032646
v 0.050778549 0.599708438 0.009475864
v 0.189043432 0.580812573 -0.001314593
v 0.132386774 0.853146434 0.060011905
v 0.118423365 0.874612927 0.051907621
v 0.173732832 0.893773735 0.001036359
v 0.095997378 0.607740462 0.059193529
v 0.201402396 0.904983819 -0.020817278
v 0.177069306 0.889504254 -0.037295189
v 0.062872484 0.934790730 0.064110056
v 0.073370285 0.623680472 0.051511031
v 0.099837944 0.638063371 0.064884759
v 0.175612077 0.905666709 -0.062201280
v 0.163425118 0.921276271 -0.081087098
v 0.071910113 0.597021043 0.046879243
v 0.164233342 0.911748111 -0.099417403
v 0.170932204 0.581089139 -0.079871453
v 0.147650093 0.594137430 -0.067365929
v 0.049297031 0.638702214 0.040157028
v 0.142422602 0.598036885 -0.098983832
v 0.148283571 0.920169234 -0.131382823
v 0.052269422 0.611842752 0.035373464
v 0.103305995 0.693611383 0.070920229
v 0.142327994 0.591796041 0.070264496
v 0.181485727 0.581443369 0.046151347
v 0.186691791 0.594066203 0.021808002
v 0.195210949 0.696217418 -0.048589483
v 0.129621252 0.706866384 -0.097712353
v 0.044436608 0.623406291 0.012009474
v 0.138080537 0.689359426 -0.113745175
v 0.200459033 0.598834753 -0.049075771
v 0.189988494 0.594647288 -0.026162585
v 0.033680830 0.666953444 0.008082063
v 0.011133580 0.694994807 -0.009428849
v 0.102919981 0.885871589 0.064982176
v 0.082424581 0.926108360 0.075183958
v 0.017105209 0.717149615 -0.002167952
v 0.039525833 0.833505034 0.039431747
v 0.023947628 0.810013890 0.022026895
v 0.017516371 0.622651875 -0.018143434
v 0.066847399 0.909638405 0.063514665
v 0.035316069 0.667213082 -0.042267650
v 0.037524387 0.885056794 0.064986438
v 0.053117644 0.895306230 0.075697266
v 0.015217938 0.884490669 0.065865606
v 0.030119756 0.596987665 -0.028228436
v 0.041148055 0.667493224 -0.067688130
v 0.073053271 0.781460524 0.064213857
v 0.201959565 0.692854106 0.024563989
v 0.191519052 0.811887860 -0.068899356
v 0.055959515 0.593006670 -0.042429142
v 0.151016802 0.695326805 -0.085114069
v 0.129995421 0.792292833 -0.126204461
v 0.112424456 0.701227307 -0.114236698
v 0.082920641 0.588747084 -0.062562354
v 0.034599155 0.716293275 -0.075618722
v 0.033073775 0.786717772 -0.078953095
v 0.114399239 0.602618873 -0.079295941
v 0.100043274 0.579677701 -0.087562121
v 0.107538305 0.930209279 -0.140107766
v 0.084810875 0.900644124 0.073117867
v 0.073708445 0.876857877 0.060352378
v 0.127630308 0.579306841 -0.071886435
v 0.028719043 0.865159869 0.061817061
v 0.050830610 0.854207337 0.053587794
v 0.081820011 0.930489719 -0.138625666
v 0.154057249 0.571618557 -0.091258973
v 0.160524726 0.776490331 -0.096722499
v 0.016031649 0.837316811 -0.119958773
v 0.149248004 0.639615715 -0.075181067
v 0.150336176 0.566393852 -0.063976221
v 0.013902391 0.707740724 -0.034067720
v 0.170637414 0.558208764 -0.076739728
v 0.027190750 0.810890377 -0.085181333
v 0.170287952 0.568014443 -0.052995760
v 0.185352802 0.581662297 -0.042339794
v 0.049490310 0.737180114 0.052138854
v 0.110988796 0.901911139 -0.138484836
v 0.089537129 0.907312870 -0.148626551
v 0.012284749 0.792347074 -0.067144319
v 0.205331638 0.576947629 -0.030088564
v 0.119152382 0.657240033 -0.093520008
v 0.213107780 0.640827119 -0.019917579
v 0.197278470 0.620225787 0.019628895
v 0.131915689 0.647662997 -0.082150444
v 0.144883513 0.652985930 -0.098887004
v 0.181292519 0.564362168 0.022469316
v 0.153708190 0.847339928 0.057500560
v 0.205201700 0.851693034 0.014586176
v 0.182531625 0.650341749 -0.056283992
v 0.045727819 0.620268583 -0.035801075
v 0.153588206 0.567809045 0.052289464
v 0.081625201 0.759549260 0.066894561
v 0.201548696 0.657406986 -0.008707218
v 0.201274827 0.647627890 0.015320187
v 0.078575835 0.675426543 -0.094683968
v 0.133226544 0.561514378 0.071710363
v 0.128654152 0.849303067 -0.129516408
v -0.006811331 0.778648496 0.006058992
v -0.006030266 0.677919805 -0.003603265
v 0.046318572 0.661962152 0.027355429
v 0.109409496 0.561211050 0.057959549
v 0.160598278 0.852070332 -0.129281208
v -0.008169484 0.738240123 -0.003757899
v -0.005804595 0.798479915 0.012670236
v 0.087104246 0.558308840 0.046993908
v 0.022417124 0.844228148 0.054709256
v -0.004386666 0.844022870 0.054383665
v 0.119740807 0.899273098 0.045287948
v 0.056103598 0.574514151 0.010047263
v 0.115646742 0.925231099 0.044731509
v 0.185388193 0.566887736 -0.023733590
v 0.100973353 0.760083079 0.074751399
v 0.030554470 0.935222626 -0.134499460
v 0.049535260 0.585144281 -0.015743937
v 0.067391850 0.886344731 -0.149080485
v 0.027315328 0.591632843 0.006419220
v 0.040907674 0.612686634 -0.011965269
v 0.037374787 0.818949342 -0.113953188
v 0.015578145 0.825846195 0.040937100
v 0.017667290 0.667757928 -0.010752537
v -0.004791413 0.659103692 -0.005723090
v -0.008164502 0.717832208 -0.007041621
v 0.192352027 0.561783195 -0.041755099
v -0.007589561 0.697420239 -0.009063821
v 0.066260740 0.617825866 -0.063339345
v 0.083360441 0.762578368 -0.105012201
v 0.109323338 0.773600042 -0.113372818
v 0.156290293 0.749492526 0.069824919
v 0.087428771 0.716623843 0.066340074
v 0.160937533 0.719922066 0.066313833
v 0.085218467 0.605227411 -0.088928245
v 0.185305044 0.556986392 -0.001666641
f 555 540 123
f 389 162 497
f 567 540 568
f 583 104 251
f 463 489 430
f 453 94 255
f 483 484 162
f 446 640 671
f 574 577 251
f 50 244 238
f 52 244 50
f 575 57 53
f 55 249 52
f 55 2 250
f 577 248 563
f 575 437 432
f 57 597 589
f 2 265 262
f 589 592 57
f 262 259 2
f 5 267 262
f 602 606 589
f 5 9 11
f 58 606 610
f 11 272 5
f 12 278 11
f 565 793 8
f 630 60 632
f 13 425 12
f 424 289 160
f 289 424 13
f 643 649 60
f 181 403 179
f 483 206 484
f 163 651 174
f 53 563 558
f 651 65 650
f 163 389 384
f 683 66 65
f 455 558 563
f 165 384 171
f 340 331 34
f 67 66 683
f 206 470 63
f 385 102 856
f 67 702 70
f 344 340 696
f 179 403 406
f 710 70 702
f 16 352 14
f 111 112 59
f 63 64 655
f 18 368 16
f 710 742 753
f 119 112 111
f 394 671 545
f 551 922 903
f 19 375 18
f 753 740 711
f 406 470 179
f 261 615 108
f 545 453 439
f 178 386 530
f 24 386 23
f 72 753 742
f 26 396 24
f 768 765 72
f 119 142 112
f 32 63 470
f 112 142 161
f 399 400 396
f 154 343 182
f 545 671 448
f 399 415 400
f 768 770 765
f 32 406 410
f 418 415 399
f 770 183 777
f 387 300 166
f 415 418 422
f 105 86 299
f 169 42 839
f 170 142 119
f 173 172 705
f 329 638 343
f 134 738 737
f 185 638 329
f 692 661 145
f 150 74 741
f 637 345 873
f 132 145 661
f 170 184 142
f 138 495 760
f 138 136 188
f 136 194 188
f 201 87 194
f 270 87 205
f 216 49 210
f 46 216 724
f 198 184 170
f 43 96 907
f 219 39 218
f 45 43 41
f 224 37 219
f 498 224 514
f 86 105 342
f 225 36 514
f 378 107 110
f 80 233 107
f 22 41 43
f 198 217 849
f 41 581 45
f 103 233 76
f 76 40 103
f 222 217 214
f 678 100 40
f 98 41 22
f 366 41 98
f 40 76 678
f 215 4 284
f 215 98 21
f 537 536 92
f 222 234 217
f 904 537 92
f 460 462 30
f 284 471 366
f 222 239 246
f 586 903 759
f 462 28 30
f 246 234 222
f 454 449 28
f 237 391 924
f 560 319 921
f 246 888 252
f 431 471 282
f 455 560 391
f 319 560 241
f 50 238 793
f 50 566 52
f 52 574 55
f 258 263 510
f 244 52 249
f 55 253 2
f 284 792 657
f 303 670 667
f 303 100 674
f 250 249 55
f 273 274 252
f 251 253 574
f 100 303 301
f 301 570 100
f 104 261 257
f 677 100 678
f 273 285 274
f 257 2 253
f 2 257 265
f 250 2 259
f 570 568 40
f 752 292 293
f 294 296 285
f 285 296 274
f 684 497 679
f 277 274 296
f 440 447 442
f 579 489 463
f 692 329 695
f 259 262 267
f 871 736 360
f 262 271 9
f 40 100 570
f 570 567 568
f 203 128 270
f 310 296 294
f 305 296 310
f 87 270 194
f 9 5 262
f 5 272 600
f 276 9 271
f 9 276 11
f 272 11 278
f 302 323 310
f 568 103 40
f 108 615 89
f 280 11 276
f 11 280 12
f 103 568 540
f 278 12 425
f 323 337 328
f 283 12 280
f 12 283 13
f 283 297 289
f 289 13 283
f 540 561 231
f 425 13 424
f 209 288 205
f 291 125 286
f 346 337 323
f 49 304 288
f 173 350 351
f 297 654 314
f 347 158 864
f 304 47 311
f 47 304 49
f 47 46 481
f 360 361 855
f 501 684 146
f 481 311 47
f 46 39 481
f 343 695 329
f 314 289 297
f 289 314 160
f 481 321 308
f 481 39 321
f 325 122 321
f 325 321 37
f 37 321 39
f 333 160 314
f 324 266 333
f 527 107 231
f 84 121 325
f 36 327 498
f 160 333 34
f 327 120 84
f 36 82 371
f 277 393 390
f 689 34 333
f 34 689 340
f 313 34 331
f 266 334 689
f 334 260 341
f 340 335 331
f 107 527 110
f 54 404 405
f 696 14 344
f 61 401 44
f 38 299 407
f 358 14 348
f 14 358 16
f 344 14 352
f 356 704 712
f 352 16 368
f 413 62 417
f 370 16 358
f 16 370 18
f 175 705 134
f 713 115 110
f 371 27 378
f 27 371 82
f 381 18 370
f 18 381 19
f 368 18 375
f 80 378 27
f 19 381 235
f 19 395 23
f 19 23 178
f 202 506 913
f 23 395 24
f 386 24 396
f 398 24 395
f 24 398 26
f 26 398 220
f 26 412 399
f 396 26 399
f 418 399 412
f 164 180 444
f 444 443 164
f 175 173 705
f 685 84 120
f 422 300 415
f 685 121 84
f 172 169 300
f 172 300 422
f 78 80 27
f 226 365 78
f 89 615 114
f 240 485 309
f 134 737 175
f 226 27 82
f 245 459 452
f 187 186 140
f 243 459 245
f 189 187 130
f 581 466 579
f 467 472 637
f 308 122 240
f 138 579 466
f 430 255 463
f 499 435 430
f 453 430 435
f 435 440 439
f 435 499 450
f 243 479 281
f 308 321 122
f 897 438 584
f 439 453 435
f 243 281 893
f 450 440 435
f 480 859 865
f 440 449 447
f 442 439 440
f 450 449 440
f 447 449 454
f 492 488 493
f 127 458 456
f 449 456 28
f 82 225 708
f 454 28 462
f 28 456 30
f 456 450 127
f 30 456 458
f 225 82 36
f 30 464 460
f 506 507 502
f 126 469 125
f 287 508 509
f 207 507 506
f 410 460 32
f 126 306 477
f 460 464 644
f 644 32 460
f 32 644 63
f 475 31 576
f 470 406 32
f 64 63 644
f 306 309 477
f 125 464 458
f 528 795 511
f 516 523 524
f 655 206 63
f 206 655 484
f 206 474 470
f 162 679 497
f 316 322 822
f 313 160 34
f 37 498 325
f 523 316 534
f 497 684 501
f 501 146 505
f 146 512 503
f 505 503 513
f 263 515 510
f 512 120 115
f 503 512 91
f 517 513 503
f 115 713 91
f 458 203 125
f 315 547 548
f 91 512 115
f 547 330 336
f 91 713 88
f 517 88 522
f 552 548 547
f 532 88 713
f 88 532 519
f 552 336 553
f 522 519 541
f 527 231 561
f 127 128 458
f 538 660 692
f 514 36 498
f 224 498 37
f 538 692 695
f 114 626 631
f 553 342 105
f 219 37 39
f 555 660 561
f 127 450 499
f 891 199 824
f 660 555 661
f 218 39 46
f 199 97 886
f 366 98 284
f 22 21 98
f 41 366 581
f 43 232 22
f 907 232 43
f 96 536 907
f 45 463 255
f 45 581 463
f 255 94 96
f 255 96 45
f 94 453 545
f 448 546 545
f 582 593 594
f 595 584 438
f 216 46 47
f 216 47 49
f 551 640 558
f 558 640 569
f 49 288 209
f 793 565 50
f 569 53 558
f 566 50 565
f 209 210 49
f 841 351 350
f 574 52 566
f 578 53 57
f 612 609 423
f 53 578 563
f 575 53 569
f 597 432 211
f 253 55 574
f 57 575 597
f 578 57 592
f 592 583 578
f 627 609 612
f 584 621 628
f 603 589 606
f 602 589 597
f 634 819 627
f 610 606 602
f 835 318 229
f 626 606 58
f 610 624 58
f 58 624 630
f 632 58 630
f 634 884 869
f 58 632 626
f 60 642 632
f 642 60 649
f 60 630 181
f 650 649 643
f 662 652 645
f 656 628 621
f 621 636 656
f 658 659 204
f 64 644 469
f 466 495 138
f 694 377 700
f 468 471 431
f 663 650 65
f 628 656 668
f 679 162 484
f 65 686 663
f 672 673 659
f 686 65 66
f 683 65 651
f 468 431 478
f 683 693 67
f 685 146 684
f 146 685 512
f 696 340 689
f 66 67 701
f 473 495 478
f 66 698 686
f 702 67 693
f 668 675 687
f 701 698 66
f 405 690 54
f 701 67 70
f 54 690 564
f 14 696 348
f 711 70 710
f 699 70 711
f 702 709 710
f 229 318 236
f 657 282 471
f 710 709 742
f 753 756 740
f 756 753 72
f 742 754 72
f 72 754 768
f 72 765 756
f 766 765 770
f 490 193 496
f 130 772 496
f 770 776 766
f 15 719 168
f 87 201 148
f 183 770 768
f 201 194 136
f 422 705 172
f 633 777 338
f 777 633 150
f 408 74 633
f 638 185 408
f 106 730 258
f 688 379 694
f 275 631 118
f 185 692 145
f 197 750 749
f 736 737 738
f 263 258 730
f 738 741 743
f 185 145 143
f 743 741 744
f 744 741 74
f 744 467 879
f 132 140 145
f 123 132 661
f 741 738 150
f 123 540 567
f 773 772 567
f 738 134 150
f 78 27 226
f 238 623 1
f 264 279 779
f 776 150 134
f 134 705 420
f 695 541 538
f 104 599 261
f 365 681 680
f 761 762 763
f 365 678 76
f 76 78 365
f 411 156 420
f 156 411 220
f 541 519 538
f 220 764 156
f 76 233 78
f 80 78 233
f 168 789 387
f 70 699 701
f 398 395 228
f 434 437 445
f 779 780 887
f 428 432 434
f 926 317 706
f 197 749 745
f 213 6 4
f 279 785 780
f 419 427 428
f 148 201 745
f 454 462 419
f 526 782 783
f 381 734 235
f 410 414 419
f 493 769 913
f 511 4 215
f 4 511 213
f 406 414 410
f 208 731 729
f 21 511 215
f 210 728 727
f 794 800 823
f 511 21 529
f 470 474 179
f 724 218 46
f 227 110 115
f 118 280 275
f 219 218 722
f 806 800 794
f 803 804 256
f 716 778 225
f 224 219 720
f 407 86 690
f 356 734 381
f 389 497 380
f 809 795 528
f 810 806 811
f 717 716 514
f 497 501 380
f 317 697 429
f 810 818 821
f 913 771 202
f 341 698 699
f 373 376 159
f 369 177 373
f 341 260 698
f 260 334 266
f 365 226 681
f 517 522 354
f 828 821 818
f 354 362 364
f 569 640 446
f 519 522 88
f 767 828 818
f 266 324 676
f 602 597 211
f 804 834 256
f 121 240 122
f 345 868 918
f 610 602 211
f 169 839 166
f 427 195 211
f 643 179 174
f 683 651 165
f 693 683 171
f 627 884 634
f 324 654 676
f 846 397 841
f 841 397 374
f 362 709 369
f 580 397 846
f 192 188 190
f 192 499 489
f 128 192 190
f 270 205 203
f 205 288 286
f 291 306 126
f 208 148 733
f 288 304 291
f 304 311 306
f 311 481 308
f 286 125 203
f 283 118 297
f 589 599 592
f 283 280 118
f 227 115 120
f 747 805 732
f 707 226 82
f 107 378 80
f 275 114 631
f 118 646 297
f 89 114 275
f 231 233 103
f 87 209 205
f 816 872 870
f 271 108 89
f 248 560 455
f 248 241 560
f 108 271 265
f 566 565 241
f 86 876 690
f 622 244 619
f 517 91 88
f 574 566 248
f 715 662 889
f 244 249 618
f 249 250 614
f 882 465 718
f 253 251 257
f 774 465 882
f 250 259 608
f 883 494 774
f 921 391 560
f 259 267 604
f 54 564 847
f 251 577 583
f 600 267 5
f 89 276 271
f 503 91 517
f 690 405 407
f 275 276 89
f 892 573 582
f 272 278 596
f 248 577 574
f 280 276 275
f 425 588 591
f 425 424 781
f 781 313 572
f 424 313 781
f 572 585 781
f 314 654 324
f 136 197 201
f 313 557 572
f 237 551 558
f 554 331 335
f 334 341 348
f 760 136 138
f 335 344 549
f 341 699 704
f 348 696 334
f 921 319 7
f 358 348 704
f 344 352 544
f 912 582 594
f 903 586 551
f 352 368 543
f 381 370 356
f 368 375 539
f 788 8 3
f 535 375 178
f 221 795 809
f 828 767 562
f 559 833 920
f 921 920 899
f 546 448 898
f 903 922 836
f 38 903 299
f 235 228 395
f 405 669 407
f 546 92 94
f 400 518 520
f 92 546 904
f 639 35 926
f 386 396 525
f 927 926 33
f 928 605 930
f 200 490 298
f 94 545 546
f 96 92 536
f 927 56 852
f 143 472 408
f 220 412 26
f 400 520 521
f 412 220 411
f 109 113 152
f 920 832 559
f 418 412 411
f 152 113 746
f 387 789 786
f 420 418 411
f 746 161 867
f 418 420 422
f 490 773 298
f 496 772 773
f 394 442 445
f 562 767 832
f 739 636 820
f 204 725 658
f 773 490 496
f 725 223 635
f 447 454 428
f 472 186 637
f 215 284 98
f 189 130 496
f 458 464 30
f 410 462 460
f 125 469 464
f 635 247 487
f 487 269 629
f 641 487 629
f 268 269 487
f 269 393 629
f 390 269 268
f 469 126 64
f 349 761 763
f 655 64 477
f 303 674 670
f 290 393 277
f 611 290 928
f 163 474 483
f 928 307 605
f 635 641 648
f 531 605 533
f 677 674 100
f 477 309 485
f 506 202 207
f 679 485 240
f 240 121 684
f 312 912 594
f 684 679 240
f 121 685 684
f 186 187 345
f 503 505 146
f 912 332 892
f 772 130 132
f 685 120 512
f 501 505 159
f 725 648 658
f 505 513 373
f 513 517 364
f 892 847 564
f 110 527 713
f 714 847 339
f 522 541 154
f 51 714 346
f 231 103 540
f 714 51 404
f 541 695 343
f 567 772 123
f 502 500 506
f 578 577 563
f 867 659 673
f 577 578 583
f 597 575 432
f 592 104 583
f 913 492 493
f 845 167 839
f 599 104 592
f 386 178 23
f 599 603 615
f 110 227 378
f 615 261 599
f 706 402 639
f 603 626 114
f 132 123 772
f 624 610 195
f 409 706 317
f 746 673 682
f 114 615 603
f 120 327 227
f 624 414 403
f 691 429 697
f 642 631 632
f 642 118 631
f 429 433 853
f 646 118 642
f 642 649 646
f 152 682 691
f 682 433 691
f 181 643 60
f 654 297 646
f 122 325 121
f 140 130 187
f 421 416 617
f 123 661 555
f 309 308 240
f 698 260 686
f 702 693 177
f 698 701 699
f 672 441 436
f 291 126 125
f 109 691 697
f 143 140 186
f 874 872 816
f 665 441 672
f 188 192 489
f 665 658 653
f 712 704 699
f 653 451 665
f 927 697 317
f 712 740 734
f 648 461 653
f 178 375 19
f 923 880 116
f 641 461 648
f 740 756 748
f 748 758 228
f 926 706 639
f 479 641 482
f 754 742 362
f 354 754 362
f 407 669 38
f 203 458 128
f 482 629 620
f 756 765 758
f 182 754 154
f 128 127 192
f 254 246 252
f 611 382 620
f 764 398 228
f 499 192 127
f 764 766 156
f 766 776 156
f 930 611 928
f 420 156 776
f 140 132 130
f 788 7 8
f 387 166 168
f 420 776 134
f 136 760 197
f 300 387 415
f 750 197 760
f 745 201 197
f 148 208 209
f 733 148 745
f 258 35 106
f 593 533 605
f 731 208 733
f 236 318 910
f 729 210 208
f 728 210 729
f 727 216 210
f 188 489 579
f 929 573 556
f 724 216 727
f 573 929 582
f 723 218 724
f 722 218 723
f 720 219 722
f 717 224 720
f 514 224 717
f 188 579 138
f 876 556 573
f 707 681 226
f 898 904 546
f 472 143 186
f 212 795 221
f 899 391 921
f 854 925 931
f 213 795 212
f 140 143 145
f 404 54 714
f 833 922 924
f 415 387 786
f 143 408 185
f 238 3 793
f 1 3 238
f 31 799 752
f 622 238 244
f 918 799 515
f 380 376 171
f 915 752 357
f 617 476 421
f 619 244 618
f 618 249 616
f 616 249 614
f 636 739 613
f 388 613 10
f 614 250 608
f 357 791 915
f 383 688 388
f 608 259 607
f 571 438 576
f 295 667 666
f 92 96 94
f 607 259 604
f 372 726 700
f 667 295 303
f 367 726 372
f 604 267 601
f 298 295 207
f 923 875 880
f 363 732 367
f 408 467 74
f 148 209 87
f 298 301 295
f 359 747 363
f 601 267 600
f 359 355 755
f 600 272 598
f 598 272 596
f 353 755 355
f 301 298 773
f 596 278 591
f 747 755 751
f 591 278 425
f 588 425 781
f 388 688 813
f 769 771 913
f 763 353 349
f 202 771 200
f 506 500 913
f 74 467 744
f 773 570 301
f 82 708 707
f 320 647 326
f 500 492 913
f 331 554 557
f 242 910 320
f 344 335 340
f 910 908 647
f 554 335 550
f 239 222 703
f 549 550 335
f 549 344 544
f 166 167 168
f 544 352 543
f 543 368 542
f 17 15 167
f 17 845 157
f 907 536 919
f 157 850 155
f 155 850 153
f 542 368 539
f 150 633 74
f 153 854 151
f 151 854 149
f 149 858 147
f 147 862 144
f 539 375 535
f 759 903 38
f 530 535 178
f 144 862 141
f 141 866 139
f 139 866 137
f 530 386 525
f 137 870 135
f 525 396 521
f 135 870 872
f 133 872 131
f 131 874 129
f 129 923 117
f 923 874 875
f 170 119 902
f 521 396 400
f 20 932 101
f 99 101 932
f 99 886 97
f 95 97 199
f 95 891 93
f 93 896 90
f 518 400 786
f 90 896 85
f 85 901 83
f 83 905 81
f 169 166 300
f 81 905 79
f 77 79 796
f 77 909 75
f 439 394 545
f 75 914 73
f 73 914 71
f 71 916 69
f 442 394 439
f 468 466 366
f 442 447 434
f 7 562 920
f 794 534 811
f 924 899 833
f 434 447 428
f 428 454 419
f 419 462 410
f 38 898 759
f 902 111 897
f 466 468 495
f 526 524 534
f 25 59 56
f 96 43 45
f 895 401 61
f 182 343 338
f 483 389 163
f 483 162 389
f 897 59 25
f 883 894 775
f 776 777 150
f 59 897 111
f 380 384 389
f 774 882 893
f 111 902 119
f 778 708 225
f 501 159 380
f 167 166 839
f 159 505 373
f 176 191 867
f 373 513 369
f 364 369 513
f 850 890 925
f 354 364 517
f 354 522 154
f 177 369 709
f 154 541 343
f 446 445 437
f 376 380 159
f 204 223 725
f 217 198 214
f 214 703 222
f 437 569 446
f 610 211 195
f 414 624 195
f 403 630 624
f 889 718 715
f 160 313 424
f 181 630 403
f 888 246 239
f 179 643 181
f 174 650 643
f 651 650 174
f 163 384 165
f 487 247 268
f 165 651 163
f 171 683 165
f 174 474 163
f 557 313 331
f 475 515 799
f 376 693 171
f 285 273 757
f 177 693 376
f 627 885 884
f 174 179 474
f 509 508 516
f 294 302 310
f 709 702 177
f 709 362 742
f 154 754 354
f 182 338 183
f 780 785 803
f 183 768 182
f 423 413 881
f 183 338 777
f 638 338 343
f 633 638 408
f 590 401 895
f 692 185 329
f 190 188 194
f 515 475 25
f 270 190 194
f 190 270 128
f 195 427 414
f 7 788 562
f 915 878 571
f 877 595 438
f 203 205 286
f 44 48 61
f 474 206 483
f 210 209 208
f 61 62 895
f 413 895 62
f 211 432 427
f 172 42 169
f 398 764 220
f 515 263 918
f 437 575 569
f 228 758 764
f 124 885 426
f 175 871 350
f 84 498 327
f 225 514 716
f 327 371 227
f 918 263 730
f 898 448 759
f 371 327 36
f 839 374 890
f 227 371 378
f 451 441 665
f 228 235 748
f 444 180 457
f 233 231 107
f 187 868 345
f 759 448 586
f 189 292 868
f 734 748 235
f 653 461 826
f 924 922 237
f 292 193 196
f 446 671 394
f 461 641 479
f 922 551 237
f 391 237 455
f 482 641 629
f 918 868 799
f 196 200 293
f 771 293 200
f 558 455 237
f 281 287 894
f 894 893 281
f 248 566 241
f 257 251 104
f 255 430 453
f 257 261 265
f 509 775 287
f 260 266 676
f 509 516 524
f 265 261 108
f 523 516 531
f 322 316 523
f 273 252 888
f 265 271 262
f 811 534 316
f 316 315 811
f 676 686 260
f 366 466 581
f 478 495 468
f 330 547 315
f 547 336 552
f 366 471 468
f 760 495 473
f 657 471 284
f 336 342 553
f 553 900 552
f 832 900 553
f 865 878 791
f 792 284 4
f 31 571 576
f 286 288 291
f 438 571 877
f 906 864 863
f 4 790 792
f 8 7 319
f 303 295 301
f 291 304 306
f 570 773 567
f 739 617 392
f 617 416 392
f 306 311 309
f 309 311 308
f 170 628 668
f 613 739 10
f 739 392 10
f 656 675 668
f 656 815 675
f 680 678 365
f 813 613 388
f 324 333 314
f 687 198 668
f 379 688 383
f 295 666 207
f 815 656 636
f 377 694 379
f 325 498 84
f 689 333 266
f 334 696 689
f 700 377 372
f 861 834 860
f 703 721 239
f 732 726 367
f 834 861 256
f 348 341 704
f 747 732 363
f 356 358 704
f 735 888 721
f 370 358 356
f 735 264 757
f 735 273 888
f 755 747 359
f 369 364 362
f 353 763 755
f 647 761 326
f 761 349 326
f 376 373 177
f 779 757 264
f 780 779 279
f 384 380 171
f 235 395 19
f 736 871 737
f 562 788 917
f 910 647 320
f 785 804 803
f 414 406 403
f 256 323 803
f 813 675 815
f 415 786 400
f 427 419 414
f 422 420 705
f 432 428 427
f 430 489 499
f 587 580 590
f 437 434 432
f 445 442 434
f 446 394 445
f 671 586 448
f 819 609 627
f 456 449 450
f 455 563 248
f 865 791 769
f 581 579 463
f 645 652 817
f 644 464 469
f 652 662 715
f 874 923 129
f 715 664 652
f 694 812 688
f 477 64 126
f 750 760 473
f 485 655 477
f 465 715 718
f 507 207 666
f 465 774 494
f 865 486 480
f 812 675 813
f 485 484 655
f 207 202 298
f 883 504 825
f 493 865 769
f 783 782 504
f 679 484 485
f 202 200 298
f 196 490 200
f 196 193 490
f 877 859 476
f 302 803 323
f 189 496 193
f 814 806 810
f 168 719 789
f 821 814 810
f 391 899 924
f 713 527 532
f 467 408 472
f 302 294 887
f 786 787 518
f 538 519 532
f 561 532 527
f 926 35 33
f 538 532 660
f 540 555 561
f 551 586 640
f 319 241 565
f 660 532 561
f 113 161 746
f 161 176 867
f 8 319 565
f 223 247 635
f 781 585 784
f 620 629 393
f 887 780 302
f 269 390 393
f 671 640 586
f 781 784 588
f 599 589 603
f 393 290 611
f 626 603 606
f 928 290 305
f 623 238 622
f 625 1 623
f 774 893 894
f 312 332 912
f 626 632 631
f 332 339 847
f 847 892 332
f 757 887 285
f 847 714 54
f 793 3 8
f 732 807 726
f 858 931 857
f 675 812 687
f 168 167 15
f 273 735 757
f 920 921 7
f 402 385 639
f 167 845 17
f 638 633 338
f 646 649 663
f 650 663 649
f 845 850 157
f 888 239 721
f 663 654 646
f 706 409 48
f 850 854 153
f 676 654 663
f 429 409 317
f 661 692 660
f 854 858 149
f 676 663 686
f 858 862 147
f 433 429 691
f 678 680 677
f 699 711 712
f 712 734 356
f 711 710 753
f 862 866 141
f 712 711 740
f 682 436 827
f 734 740 748
f 866 870 137
f 214 687 808
f 748 756 758
f 664 816 652
f 872 133 135
f 198 687 214
f 754 182 768
f 872 874 131
f 665 659 658
f 758 765 766
f 658 648 653
f 766 764 758
f 776 770 777
f 668 198 170
f 117 923 116
f 787 786 789
f 929 330 822
f 533 822 322
f 556 336 330
f 531 322 523
f 899 920 833
f 662 444 889
f 346 323 256
f 491 482 620
f 116 880 911
f 911 20 116
f 382 491 620
f 911 932 20
f 932 886 99
f 645 443 662
f 930 382 611
f 382 930 516
f 886 824 199
f 605 531 930
f 491 508 848
f 628 170 902
f 256 347 346
f 482 848 479
f 891 896 93
f 347 256 861
f 820 617 739
f 866 819 817
f 605 594 593
f 896 901 85
f 929 593 582
f 612 881 885
f 901 905 83
f 826 451 653
f 451 457 180
f 672 659 665
f 441 180 851
f 79 905 796
f 436 673 672
f 436 851 827
f 909 914 75
f 682 673 436
f 914 916 71
f 584 902 897
f 876 86 342
f 69 916 1
f 829 433 827
f 700 808 694
f 788 3 916
f 853 829 417
f 409 61 48
f 402 48 855
f 870 817 816
f 855 29 360
f 874 816 664
f 385 361 102
f 830 880 875
f 576 897 25
f 819 634 817
f 68 69 1
f 106 856 730
f 743 736 738
f 910 242 236
f 862 857 819
f 744 879 102
f 880 830 831
f 840 528 843
f 401 846 44
f 803 302 780
f 769 791 357
f 878 915 791
f 831 911 880
f 918 873 345
f 576 25 475
f 799 31 475
f 841 29 846
f 879 856 102
f 106 639 385
f 573 564 876
f 911 831 802
f 342 556 876
f 337 339 332
f 25 510 515
f 350 29 841
f 564 573 892
f 892 582 912
f 510 25 56
f 864 906 837
f 312 328 337
f 929 822 593
f 33 35 258
f 871 360 29
f 840 860 835
f 864 158 863
f 29 855 44
f 916 914 917
f 808 687 812
f 594 307 312
f 307 305 328
f 916 917 788
f 33 56 927
f 840 835 809
f 307 594 605
f 736 743 361
f 531 516 930
f 290 277 305
f 852 109 927
f 318 835 860
f 21 844 529
f 852 59 112
f 620 393 611
f 102 743 744
f 112 113 852
f 751 763 762
f 647 785 762
f 805 747 751
f 252 268 254
f 230 835 229
f 487 641 635
f 637 879 467
f 124 851 164
f 809 230 221
f 161 142 176
f 807 732 805
f 247 234 254
f 230 809 835
f 808 700 807
f 345 637 186
f 176 184 191
f 812 694 808
f 204 849 223
f 849 204 191
f 813 688 812
f 635 648 725
f 849 184 198
f 815 613 813
f 815 636 613
f 217 223 849
f 659 191 204
f 217 234 223
f 191 184 849
f 859 480 421
f 795 213 511
f 245 461 243
f 878 865 859
f 802 886 932
f 191 659 867
f 452 718 889
f 223 234 247
f 176 142 184
f 246 254 234
f 865 493 486
f 293 771 357
f 268 247 254
f 771 769 357
f 805 264 735
f 268 252 390
f 161 113 112
f 486 493 488
f 390 252 274
f 867 673 746
f 264 751 279
f 274 277 390
f 746 682 152
f 281 848 287
f 827 433 682
f 808 703 214
f 152 691 109
f 109 852 113
f 476 859 421
f 296 305 277
f 476 595 877
f 305 307 928
f 196 293 292
f 595 476 820
f 726 807 700
f 752 293 357
f 307 328 312
f 310 328 305
f 56 59 852
f 292 752 799
f 328 310 323
f 886 825 824
f 312 337 332
f 807 703 808
f 891 824 782
f 193 292 189
f 844 21 22
f 429 853 409
f 109 697 927
f 56 33 510
f 105 559 553
f 339 337 346
f 346 714 339
f 51 346 347
f 317 926 927
f 564 690 876
f 863 844 232
f 799 868 292
f 510 33 258
f 843 528 529
f 844 863 842
f 861 840 843
f 861 158 347
f 861 860 840
f 752 915 31
f 158 843 842
f 843 158 861
f 842 529 844
f 919 837 906
f 906 232 907
f 809 528 840
f 730 873 918
f 730 856 873
f 873 856 879
f 856 106 385
f 817 634 645
f 837 919 838
f 817 652 816
f 919 906 907
f 919 536 537
f 743 102 361
f 904 669 838
f 898 669 904
f 669 898 38
f 703 807 721
f 405 404 838
f 669 405 838
f 922 833 836
f 294 285 887
f 361 385 402
f 869 645 634
f 830 875 664
f 916 3 1
f 864 51 347
f 402 855 361
f 909 801 914
f 397 890 374
f 48 44 855
f 796 909 77
f 879 637 873
f 901 798 905
f 580 925 397
f 48 402 706
f 896 800 901
f 891 823 896
f 409 62 61
f 853 62 409
f 881 413 417
f 417 62 853
f 86 407 299
f 459 893 882
f 199 891 95
f 830 465 831
f 829 426 417
f 426 829 124
f 426 881 417
f 124 829 827
f 433 829 853
f 886 802 825
f 774 894 883
f 851 124 827
f 164 884 124
f 441 851 436
f 180 164 851
f 443 869 164
f 911 802 932
f 715 830 664
f 874 664 875
f 736 361 360
f 451 180 441
f 457 452 889
f 889 444 457
f 866 817 870
f 106 35 639
f 459 718 452
f 826 452 457
f 452 826 245
f 451 826 457
f 862 819 866
f 858 857 862
f 461 245 826
f 459 882 718
f 479 243 461
f 854 931 858
f 850 925 854
f 846 401 580
f 845 890 850
f 491 848 482
f 848 281 479
f 825 494 883
f 382 508 491
f 900 832 767
f 508 287 848
f 896 823 800
f 839 890 845
f 504 782 824
f 42 374 839
f 516 508 382
f 908 910 318
f 534 524 523
f 552 818 548
f 42 172 173
f 901 800 798
f 818 552 900
f 533 322 531
f 871 175 737
f 868 187 189
f 22 232 844
f 593 822 533
f 822 315 316
f 929 556 330
f 330 315 822
f 838 919 537
f 904 838 537
f 318 860 834
f 908 318 834
f 465 830 715
f 556 342 336
f 105 836 559
f 833 559 836
f 29 44 846
f 908 834 804
f 562 917 828
f 299 836 105
f 818 900 767
f 832 553 559
f 562 832 920
f 811 315 548
f 828 801 821
f 801 828 917
f 821 797 814
f 836 299 903
f 401 590 580
f 797 821 801
f 905 798 796
f 796 814 797
f 810 548 818
f 814 798 806
f 798 814 796
f 909 796 797
f 811 548 810
f 413 587 590
f 404 51 837
f 51 864 837
f 837 838 404
f 909 797 801
f 529 842 843
f 158 842 863
f 232 906 863
f 800 806 798
f 529 528 511
f 794 811 806
f 785 908 804
f 785 647 908
f 859 877 878
f 526 534 794
f 877 571 878
f 571 31 915
f 173 351 42
f 524 783 509
f 350 173 175
f 29 350 871
f 823 526 794
f 783 524 526
f 526 823 782
f 42 351 374
f 841 374 351
f 504 775 783
f 509 783 775
f 782 823 891
f 885 124 884
f 887 757 779
f 914 801 917
f 426 885 881
f 890 397 925
f 825 504 824
f 775 504 883
f 925 587 931
f 587 925 580
f 802 494 825
f 785 279 762
f 494 831 465
f 831 494 802
f 894 287 775
f 590 895 413
f 438 897 576
f 884 164 869
f 762 279 751
f 423 931 587
f 587 413 423
f 931 423 857
f 762 761 647
f 617 820 476
f 595 820 621
f 751 755 763
f 893 459 243
f 751 264 805
f 609 857 423
f 423 881 612
f 662 443 444
f 721 805 735
f 621 584 595
f 857 609 819
f 443 645 869
f 612 885 627
f 636 621 820
f 628 902 584
f 805 721 807
