# avbd fit, rung f60-i16-s300-r1-h60 of Gate 6d (body space, fit phase only)
v -0.004217415 0.642276168 0.030525748
v -0.106638148 0.658619106 0.068782419
v -0.004031005 0.655982018 0.034259003
v -0.000196677 0.901083827 0.068319537
v -0.151358679 0.642056227 0.062076993
v 0.002770009 0.915899575 0.068935886
v -0.003851070 0.683063507 0.041133925
v -0.003876277 0.669428945 0.038356006
v -0.153055027 0.657727540 0.062894091
v 0.150328323 0.897263050 -0.111058258
v -0.170717925 0.653152347 0.054917283
v -0.187127441 0.653864563 0.041709408
v -0.194914177 0.654037476 0.026117925
v -0.170818493 0.645376742 -0.068253405
v 0.011585789 0.619652629 -0.048268877
v -0.153260142 0.641356587 -0.074794270
v 0.026336584 0.619058311 -0.050050545
v -0.135805264 0.641472459 -0.080677360
v -0.118707523 0.645051122 -0.087383635
v 0.193112284 0.613623202 0.017417433
v -0.000520683 0.872284710 0.064821519
v -0.000609581 0.858658314 0.060518600
v -0.100936078 0.640210271 -0.086149491
v -0.087494001 0.646492124 -0.081503324
v 0.095668189 0.803126633 -0.110357381
v -0.073446549 0.654684305 -0.077737883
v -0.131491512 0.860597014 -0.126153454
v -0.139821559 0.810048580 0.069876418
v 0.040310141 0.698515236 -0.084587306
v -0.154932737 0.819546998 0.064001620
v 0.069362655 0.825217128 -0.124371722
v -0.189522326 0.798004508 0.044062432
v 0.088251039 0.770356953 -0.107597984
v -0.200142220 0.646293402 -0.024259739
v 0.074144155 0.761250615 -0.102444336
v -0.158562094 0.869746327 -0.104746923
v -0.178141475 0.874323368 -0.065250508
v 0.013371689 0.764786899 0.059899874
v -0.181214511 0.881165326 -0.046356697
v -0.076888628 0.854456544 -0.145052001
v -0.029162789 0.862227321 0.060641728
v 0.013248926 0.665603578 -0.068766847
v -0.018722540 0.845350266 0.058002822
v 0.062269650 0.702359796 -0.089665517
v -0.040313620 0.846547246 0.059865654
v -0.178520337 0.888431668 -0.028479839
v -0.184597954 0.879044831 -0.011535855
v 0.072539851 0.719294190 -0.094756663
v -0.175998881 0.884782016 0.007598214
v -0.041608777 0.659339488 0.041820094
v 0.059745897 0.821525693 0.062005710
v -0.061918426 0.659441948 0.050176449
v -0.077599168 0.731276214 0.063767485
v 0.059150368 0.788163543 0.063643016
v -0.081966706 0.658149600 0.058769055
v 0.102938868 0.782655835 -0.112043418
v -0.100867316 0.728353560 0.072034940
v -0.170467064 0.733732402 0.063814536
v 0.119587503 0.795000911 -0.116203085
v -0.198657393 0.730159044 0.037127577
v 0.082875624 0.704944193 -0.095256120
v 0.102200940 0.701505065 -0.101255834
v -0.198829576 0.805694282 0.024646778
v -0.195278868 0.823733926 0.022176672
v -0.208803609 0.724684238 -0.026847508
v -0.198105112 0.717872739 -0.049756236
v -0.187648267 0.726855099 -0.065748557
v 0.008130608 0.639096439 0.037418272
v 0.012524704 0.629983008 0.027442817
v -0.171835572 0.714803219 -0.079864338
v 0.027138457 0.629543900 0.030379515
v -0.118088402 0.719831824 -0.107144214
v 0.041096158 0.628492057 0.035468783
v -0.020192161 0.746098101 -0.095680736
v 0.054625768 0.627322316 0.041507974
v -0.096390136 0.857383847 -0.142222971
v 0.067263752 0.625955522 0.049076010
v -0.114374958 0.860600352 -0.136577457
v 0.080683470 0.624760807 0.054869808
v -0.120943226 0.848713696 -0.128129452
v 0.093981743 0.623540819 0.060605265
v -0.141395614 0.876325905 -0.122152939
v 0.107112706 0.622247100 0.066258147
v -0.177511483 0.844896913 -0.084472820
v 0.120027885 0.620936751 0.071732715
v 0.044771906 0.754467607 0.057564218
v -0.142285153 0.884860694 0.042750310
v -0.125678211 0.793752968 -0.114282072
v -0.155181527 0.684056044 0.065567240
v 0.133322030 0.619742811 0.068369105
v -0.144910961 0.801887810 -0.106378593
v -0.019149169 0.808933556 0.055121817
v 0.145954475 0.619303882 0.062488019
v -0.040111963 0.811872959 0.057229649
v 0.158496439 0.618410587 0.056585204
v -0.025609326 0.827534556 0.057693541
v 0.170825705 0.617238581 0.050741464
v -0.018579897 0.877006829 0.064791545
v 0.180906445 0.616018713 0.041371755
v -0.064029790 0.868220806 -0.148635998
v 0.186869502 0.615018606 0.029273028
v 0.025736829 0.746963859 -0.096825331
v -0.088199183 0.840125561 -0.138843387
v -0.107834280 0.695195377 0.072277859
v 0.037502583 0.737178266 0.056403346
v 0.056934774 0.761447251 -0.099087641
v -0.116087139 0.835931599 -0.121989027
v -0.138374656 0.681472838 0.072219767
v 0.130185202 0.759224951 -0.108210698
v -0.130375534 0.828877926 -0.112315163
v 0.135289997 0.805129886 -0.110276803
v 0.143931791 0.789021075 -0.105627179
v 0.145166308 0.770603478 -0.103017367
v -0.161651671 0.699989855 0.064172052
v -0.147123694 0.820570588 -0.105753303
v 0.194422632 0.612382472 0.004037406
v 0.194543272 0.611197114 -0.008536814
v -0.193967909 0.689434886 0.040058237
v 0.152356565 0.805898190 -0.102725469
v -0.164628655 0.832177758 -0.097893827
v -0.189690173 0.836059272 -0.066592902
v -0.193914965 0.849552274 -0.053117462
v -0.056156408 0.820389628 -0.118478753
v 0.155878976 0.698333442 -0.083687119
v -0.173327059 0.845861614 0.042956602
v -0.190235630 0.841283143 0.022501921
v -0.122672513 0.838198006 0.067173854
v -0.134170189 0.852283835 0.059500802
v 0.194582552 0.610369921 -0.022059169
v -0.020955043 0.814757347 -0.109326318
v 0.188372418 0.609693766 -0.034375619
v -0.040169816 0.811397433 -0.108571962
v 0.181202173 0.608895361 -0.046116211
v -0.024635497 0.705680549 -0.084722966
v 0.173762858 0.607915103 -0.057749879
v -0.107424423 0.886770844 0.051211614
v 0.161550969 0.607528687 -0.065009154
v -0.087787293 0.882446647 0.057024926
v 0.148218483 0.607216001 -0.069365732
v -0.022010216 0.799787879 -0.102359012
v 0.134742975 0.606717706 -0.073675826
v 0.166939408 0.797184348 -0.095995866
v -0.023521623 0.783105493 -0.098963603
v 0.122032478 0.606923997 -0.077695958
v -0.042644344 0.795120656 -0.102537528
v -0.182081252 0.804614067 -0.085073613
v 0.107301608 0.607507885 -0.079704963
v -0.140507817 0.898907840 0.031838994
v 0.094304636 0.609772027 -0.074016735
v -0.029618764 0.727451205 -0.087792680
v 0.081127979 0.611923218 -0.068456464
v 0.145874560 0.754441619 -0.099783704
v 0.067855008 0.614049435 -0.062940620
v -0.103903592 0.758621573 -0.110966623
v 0.054436676 0.616060138 -0.057652902
v -0.063279338 0.690245092 -0.085131623
v 0.040647276 0.617814898 -0.053208500
v 0.050239362 0.851624966 0.060501039
v -0.187144548 0.776974142 -0.074728444
v -0.201085061 0.654028416 -0.005204976
v 0.162627205 0.778757036 -0.096126638
v -0.207648829 0.797715783 -0.030540105
v -0.210241050 0.766237378 -0.018554432
v 0.175947756 0.692717493 -0.072492793
v -0.209765986 0.753597379 -0.036868133
v -0.003365533 0.644758284 -0.059471875
v 0.015488287 0.634349942 -0.055643946
v -0.003468619 0.632200360 -0.053576302
v -0.003166160 0.657354176 -0.065156184
v 0.170043677 0.818185151 -0.095239535
v -0.199151710 0.756202579 -0.055254418
v -0.003024409 0.670247793 -0.069999300
v -0.002915604 0.683324218 -0.074338749
v -0.211089522 0.754213572 0.001698458
v -0.002740690 0.696106255 -0.079479352
v 0.180295199 0.786121070 -0.087436326
v -0.175298214 0.749621749 -0.085351601
v -0.107322872 0.625762582 -0.084865391
v -0.202912018 0.764415979 0.027336439
v 0.187893480 0.708437324 -0.060701806
v -0.199047863 0.747806907 0.038383402
v -0.090129554 0.745125413 -0.105535567
v -0.076369517 0.733381629 -0.099576712
v 0.184876963 0.803635001 -0.080157846
v -0.044347066 0.777718186 -0.100159027
v -0.001065503 0.789640307 -0.099061333
v -0.000778042 0.803140640 -0.102948919
v -0.100629225 0.867628872 0.056627821
v -0.000550162 0.815638363 -0.109300889
v -0.121621668 0.864018321 0.057730269
v 0.190117866 0.783308387 -0.070533670
v -0.109858498 0.852217317 0.065122344
v -0.000360197 0.826394677 -0.118246898
v -0.123453364 0.877854645 0.049459990
v -0.155001819 0.757683158 0.069574714
v -0.000188724 0.836441398 -0.127911985
v -0.113362886 0.903074384 0.047459003
v 0.189207807 0.824723899 -0.069982804
v 0.167877957 0.633938789 0.054195009
v -0.000034020 0.848235011 -0.135217354
v -0.126449436 0.894149125 0.042775236
v 0.000150844 0.861230850 -0.140054554
v -0.154873013 0.857286632 0.052752592
v 0.201115206 0.778845847 -0.052639276
v -0.158181101 0.873985469 0.040319242
v -0.210636348 0.795872331 0.005733659
v 0.000386006 0.874959171 -0.142488912
v -0.152014703 0.902594090 0.019011339
v -0.158982575 0.887568653 0.024774276
v -0.165084615 0.898948073 0.004851595
v -0.135773808 0.752323329 0.075892881
v 0.031729154 0.914551556 0.068182781
v 0.016737960 0.914727032 0.068736486
v 0.197260007 0.841256022 -0.050372738
v -0.000341425 0.886532784 0.066553824
v -0.175292239 0.895199895 -0.011751737
v 0.202595621 0.818598926 -0.045075577
v -0.173993006 0.895983040 -0.043791570
v -0.172326416 0.891145408 -0.060065508
v -0.071538948 0.672634482 -0.082880631
v 0.046808675 0.914620697 0.067000762
v 0.200896814 0.832584083 -0.027981734
v 0.207636237 0.794465959 -0.034054898
v -0.168527246 0.887090385 -0.076817572
v -0.152768776 0.886282265 -0.110349737
v -0.123362161 0.876389861 -0.134819418
v -0.146789312 0.839078546 -0.105523333
v -0.100473724 0.673753500 -0.095065616
v 0.076676235 0.914900959 0.061822437
v 0.061770845 0.914800525 0.064482175
v -0.098868608 0.828849018 -0.127124429
v -0.000816464 0.845037580 0.057428472
v -0.106062151 0.843988419 -0.136100739
v 0.205070898 0.813044727 -0.021317523
v -0.118416093 0.665451229 -0.093036190
v 0.090987831 0.914889693 0.057087444
v -0.026169792 0.727357507 0.053188402
v -0.027383909 0.645688593 0.033260290
v 0.199738279 0.843406200 -0.011557368
v -0.200068951 0.833471656 -0.041142721
v -0.038463768 0.685987055 0.045710735
v 0.104635492 0.914694011 0.051244497
v 0.208555937 0.716247320 0.005481410
v -0.050477844 0.643728137 0.041089483
v 0.208576053 0.714934289 -0.012846808
v 0.203284174 0.827364326 -0.005357050
v 0.209446073 0.794857800 -0.008278030
v -0.054807059 0.695976794 0.052101415
v -0.072294049 0.642443657 0.052849054
v -0.093730345 0.642597318 0.062235426
v -0.090600453 0.687297046 0.064690642
v 0.198135123 0.819705606 0.020090610
v -0.091727495 0.671828687 0.063811168
v 0.206962779 0.811331272 -0.000068903
v -0.050720416 0.830351055 0.061194748
v 0.095472440 0.849411130 0.069807664
v -0.107563123 0.678088307 0.070715480
v 0.068879373 0.774522960 -0.103940032
v -0.114420451 0.640101373 0.070446298
v -0.197980016 0.687550664 -0.043914963
v -0.123305239 0.687557638 0.077475518
v -0.132973209 0.653378844 0.071601167
v 0.061682660 0.787828565 -0.103669070
v 0.171488881 0.867113113 0.028735135
v -0.124908529 0.670022309 0.076118134
v -0.202339441 0.674391806 -0.033604302
v -0.135843888 0.636321068 0.068611681
v 0.206344336 0.799750686 0.016332116
v 0.201467305 0.785241306 0.027938286
v -0.139829025 0.868712127 0.051684491
v -0.144335046 0.669325113 0.068094566
v -0.165738150 0.635441124 0.054848175
v 0.187139332 0.835890114 0.029475486
v 0.184546381 0.817831218 0.041075580
v -0.175026044 0.686484516 0.057628315
v -0.164698347 0.670505881 0.059770852
v 0.181993186 0.800925076 0.054687083
v -0.181511134 0.637415886 0.047012217
v 0.155149803 0.874030948 0.044393875
v -0.184042320 0.670385897 0.051401146
v 0.203232199 0.712999165 0.025703583
v -0.046974666 0.914860070 0.066831805
v -0.194180593 0.670015633 0.032546658
v -0.022054614 0.895837009 0.066741571
v 0.174867675 0.833149433 0.048177551
v -0.168661341 0.861399949 0.036664963
v 0.193747371 0.708973050 0.044816758
v -0.171911299 0.872882009 0.023033848
v -0.202036783 0.663250744 0.014124593
v 0.173857376 0.783354819 0.064793631
v -0.181789666 0.857341886 0.022756217
v 0.022751406 0.825032711 -0.117761627
v 0.023871886 0.838579535 -0.130823329
v 0.157911390 0.830997944 0.061720185
v -0.025059348 0.873482347 -0.143720359
v 0.167971894 0.816192627 0.061492302
v -0.202905819 0.681520581 0.018675866
v -0.019345880 0.856175065 -0.139352024
v 0.024116706 0.752289772 0.054032255
v -0.018479776 0.655299604 -0.064592429
v -0.040286973 0.859896541 -0.142426640
v 0.139833868 0.839299679 0.063580967
v -0.045743857 0.875854850 -0.146507159
v -0.186120689 0.869245708 0.007128882
v 0.155950636 0.798013985 0.067934304
v -0.196678251 0.853427529 0.006002618
v 0.138569817 0.783365846 0.074235216
v -0.194453612 0.854344845 -0.033242911
v -0.199643135 0.843294024 -0.016603597
v 0.144295558 0.819536209 0.067446589
v -0.192467690 0.861831844 -0.013363881
v 0.118925527 0.791106820 0.078370675
v -0.198347688 0.634721875 -0.009844363
v -0.203618333 0.671902657 -0.000830720
v 0.101036772 0.712394178 0.071447238
v 0.119952902 0.710395694 0.078827664
v 0.100683987 0.739816070 -0.107661068
v 0.088926628 0.893804848 0.057694208
v -0.020373596 0.685308397 0.042286463
v 0.117539130 0.914658427 0.045371339
v -0.188216656 0.865404427 -0.049574573
v 0.130864024 0.726176620 0.077731311
v 0.117510438 0.829736888 0.071280420
v -0.204646274 0.678655505 -0.015422803
v -0.183328927 0.856378675 -0.068478450
v 0.129232615 0.914544582 0.038894083
v -0.160361648 0.851607978 -0.097295165
v 0.131423295 0.805249691 0.073453806
v -0.063113376 0.773505986 -0.102646470
v 0.090888366 0.729730964 0.068670407
v -0.195410490 0.629581273 -0.029954016
v 0.097655475 0.792134523 0.074813627
v -0.202509195 0.663297772 -0.019687694
v -0.190765187 0.669842422 -0.049863778
v -0.185419947 0.625421703 -0.044642959
v 0.070933297 0.726640344 0.062358301
v 0.107859217 0.809981704 0.078750119
v -0.064839050 0.746266007 -0.100825109
v 0.088109747 0.805134118 0.071386680
v -0.190268919 0.641057491 -0.041788258
v -0.183874473 0.682586551 -0.061411142
v 0.057426445 0.739740789 0.060455143
v -0.079206035 0.761327267 -0.104041375
v -0.177467182 0.631269574 -0.058921300
v 0.019070916 0.793311238 -0.100239053
v 0.087048687 0.824906647 0.069519199
v 0.069504991 0.840426445 0.063962035
v -0.178362146 0.664290190 -0.065013394
v 0.141129285 0.914084315 0.030923298
v 0.019415149 0.691044450 -0.078246124
v 0.020739779 0.677380443 -0.073360041
v -0.160066038 0.627489746 -0.069141641
v 0.151386946 0.913367629 0.021426097
v -0.127274439 0.760290504 -0.110158607
v 0.160168782 0.912712097 0.010757320
v -0.149656206 0.669643283 -0.080929205
v 0.045611683 0.843834996 -0.137609020
v -0.162001148 0.658970714 -0.074038893
v 0.167407483 0.912268341 -0.001022343
v 0.033027142 0.714464724 -0.086382195
v 0.036206581 0.731472373 -0.090458460
v -0.139803648 0.748116672 -0.102114126
v 0.171548232 0.910813808 -0.014261181
v -0.145363733 0.764604330 -0.102283239
v -0.105360225 0.874845624 -0.141591236
v -0.041574840 0.881766796 0.063920945
v 0.173030287 0.908782959 -0.028102895
v -0.141511753 0.625329196 -0.074848525
v -0.159275591 0.757084668 -0.094312966
v -0.147023693 0.654091656 -0.079818659
v -0.146148160 0.856708229 -0.112579927
v 0.174688727 0.907337785 -0.041295536
v -0.175962329 0.766946673 -0.088190831
v 0.032914869 0.664654434 -0.070345417
v -0.124226868 0.626902163 -0.080724552
v -0.187574297 0.761241794 -0.070877396
v 0.174487934 0.905791640 -0.055824310
v -0.132340580 0.845030427 -0.116607226
v 0.172479808 0.903844953 -0.070864163
v -0.198035046 0.776919544 -0.057407450
v -0.133404374 0.658859313 -0.086216584
v 0.179656893 0.743561149 0.062082071
v 0.166629985 0.901737094 -0.084782265
v -0.208332747 0.767519951 -0.042388000
v 0.046681300 0.746326506 -0.098668404
v -0.091484599 0.628557622 -0.078592107
v -0.020079741 0.639125466 -0.057682544
v 0.160538912 0.899857819 -0.099160440
v -0.208272651 0.782368243 -0.035578854
v 0.194036901 0.801346421 0.035152923
v -0.020589719 0.712426603 0.048867665
v 0.139971048 0.894769847 -0.122667827
v 0.191080272 0.780108154 0.046757910
v -0.067796193 0.783861995 0.065560892
v -0.101666711 0.655910671 -0.090685174
v -0.073997229 0.634789824 -0.072029695
v 0.052978009 0.666818559 -0.075109795
v -0.086664833 0.664499760 -0.086373813
v -0.057616454 0.649545789 -0.069604762
v -0.055171639 0.632836342 -0.063067511
v 0.073713437 0.689039230 -0.088821784
v 0.059115089 0.732788563 -0.095138490
v -0.191005424 0.760562539 0.051942468
v 0.047303200 0.802868187 0.060899686
v 0.038336013 0.785393298 0.060183484
v -0.190775305 0.778884172 0.047286991
v 0.031828620 0.767894387 0.061828636
v -0.027426666 0.764172673 -0.095901228
v 0.096464634 0.720339954 -0.102989987
v -0.173834696 0.791130662 0.063603424
v -0.055987448 0.677060843 -0.078946687
v -0.060779683 0.663756430 -0.076109096
v 0.103659347 0.679557264 -0.097429112
v -0.169846714 0.771330476 0.065233812
v -0.037684366 0.649581134 -0.064373545
v 0.127885669 0.892675400 -0.131760985
v 0.121234044 0.695611119 -0.098879226
v -0.045033403 0.665777326 -0.072497703
v -0.150914893 0.784714401 0.070420288
v -0.040539525 0.688598275 -0.078977615
v 0.113741614 0.890976787 -0.137878194
v -0.026761934 0.670080423 -0.071089350
v 0.112325095 0.659544766 -0.093157075
v -0.199750707 0.646228790 0.010768008
v -0.190708324 0.637313008 0.029384088
v 0.136672840 0.692810655 -0.091030814
v -0.141607612 0.768733501 0.073944718
v -0.125853986 0.779857755 0.077542759
v 0.119770393 0.729749978 -0.108420588
v -0.074161090 0.833681285 0.065864526
v -0.061892726 0.915381551 0.064263485
v -0.113231406 0.760462344 0.079086997
v 0.138213128 0.725167394 -0.098302916
v -0.102429584 0.776421905 0.075502791
v -0.085946307 0.819444060 0.068524681
v 0.172708452 0.730897665 -0.082248822
v -0.089406833 0.761293113 0.069627568
v 0.110537432 0.833596587 -0.122514389
v -0.075449117 0.801712513 0.067055210
v -0.097827673 0.806250572 0.074901842
v 0.186728954 0.725872636 -0.066230163
v -0.090255611 0.790220380 0.071134359
v 0.183095917 0.679067671 -0.061200939
v 0.190881714 0.691722155 -0.053418774
v -0.083464667 0.775561094 0.068961151
v -0.067513883 0.765524983 0.064570397
v -0.111569524 0.793070078 0.079249524
v -0.026986426 0.776762664 0.059116103
v -0.121066317 0.809031785 0.075309992
v -0.110109650 0.823427856 0.074469253
v 0.198807672 0.723558843 -0.049260445
v 0.207550570 0.701080084 -0.024591032
v -0.062811233 0.815235257 0.061789017
v -0.134148195 0.795739233 0.073501945
v -0.042545971 0.714295685 0.052843638
v -0.133297965 0.824075043 0.069226056
v 0.200311899 0.705348909 -0.043660115
v -0.150140285 0.838495910 0.061115362
v 0.207333356 0.699992120 -0.005453226
v -0.175315514 0.810068607 0.059098531
v 0.209796160 0.735164165 -0.009995028
v -0.155622914 0.801593661 0.066904649
v -0.063226998 0.848841548 0.062557809
v -0.173229277 0.828266501 0.053267382
v 0.202908561 0.667672157 -0.001404649
v -0.066012993 0.880954444 0.061053477
v -0.001753181 0.761875153 -0.094781838
v -0.061198086 0.897582829 0.062995583
v -0.183487058 0.830911338 0.036406558
v -0.201857641 0.785854638 0.026847910
v -0.042902671 0.900501370 0.065904960
v -0.001420132 0.775655031 -0.097117007
v -0.091004372 0.916200757 0.056823313
v -0.210932210 0.775139093 0.005272278
v 0.075768843 0.814387441 -0.113441706
v 0.119478740 0.864825130 -0.135286704
v -0.202700138 0.834376216 0.003005502
v -0.076736845 0.915832996 0.061541993
v 0.209211111 0.733358026 0.015940856
v 0.098771222 0.889523387 -0.143853739
v -0.186776847 0.871468246 -0.030207926
v 0.203338817 0.747547686 0.029828165
v -0.209673047 0.786539733 -0.013914594
v -0.207162827 0.806241155 -0.014076794
v -0.203154653 0.824543118 -0.017365022
v 0.082651317 0.888592720 -0.147763029
v 0.210780352 0.779032230 0.008894867
v 0.066173941 0.888283908 -0.148819953
v -0.086358652 0.851599097 0.065802082
v -0.015619758 0.839645207 -0.131107897
v 0.194476813 0.740489841 0.046968013
v 0.050255764 0.888391793 -0.146300510
v 0.059791546 0.874687672 -0.148497015
v 0.198247746 0.662213504 0.022424545
v -0.079960316 0.898093879 0.060511082
v -0.019808415 0.827644825 -0.120173708
v -0.203172728 0.796860158 -0.051645435
v -0.170556173 0.866833031 -0.084854618
v -0.097585328 0.837317765 0.072590731
v 0.033949975 0.888757229 -0.143938020
v -0.191830173 0.793735087 -0.070045575
v 0.017385649 0.888894260 -0.142431393
v -0.162206739 0.793600619 -0.098540425
v 0.179432437 0.670153141 0.054128408
v -0.179489881 0.785289228 -0.088815339
v 0.016996454 0.877844453 -0.142965198
v 0.000518498 0.888945878 -0.141714364
v 0.186594069 0.724292457 0.057451546
v 0.175814241 0.705626845 0.059579335
v 0.082001425 0.787377954 -0.107016221
v 0.017617984 0.891075313 0.066533774
v -0.164885536 0.812645912 -0.097937100
v -0.160545155 0.775256336 -0.097021081
v -0.164020181 0.885385990 -0.094792172
v 0.066841356 0.801887870 -0.106560633
v 0.164341927 0.724745512 0.065597668
v -0.140782714 0.781557500 -0.106908455
v -0.046364535 0.617940605 -0.054759867
v -0.105944097 0.787928760 -0.113555685
v -0.059558313 0.616258383 -0.059986610
v -0.072582908 0.614468277 -0.065555617
v -0.117617056 0.775447488 -0.115721568
v 0.143105969 0.714995861 0.072493300
v 0.155474603 0.700673938 0.067077287
v -0.085577145 0.612639248 -0.071098611
v 0.147236109 0.679979324 0.068714365
v -0.110823572 0.821973979 -0.114708759
v 0.038659461 0.885509670 0.064886607
v 0.024371097 0.873873055 0.064312033
v -0.098440081 0.610747933 -0.076738030
v 0.146764815 0.735907972 0.072970882
v -0.104206264 0.804748058 -0.113193825
v 0.129665241 0.741372705 0.078481935
v 0.134216264 0.695217013 0.075155407
v -0.112100303 0.609133244 -0.081310198
v -0.001332261 0.817483783 0.055107247
v -0.001671746 0.803741157 0.055545509
v -0.088321172 0.790346742 -0.108903691
v -0.125489756 0.609182239 -0.077383563
v -0.075781859 0.827581048 -0.127331540
v -0.095893607 0.774527907 -0.110306464
v -0.137952730 0.609247744 -0.073498189
v -0.151090518 0.609941900 -0.069326892
v -0.164197952 0.610398650 -0.065128423
v -0.049792398 0.794201016 0.061954606
v -0.025685856 0.794120491 0.058677267
v 0.084089883 0.715380728 0.064984120
v 0.086601481 0.699010313 0.064617641
v -0.175246075 0.611176610 -0.056739151
v -0.182631165 0.612381279 -0.045364227
v -0.028295193 0.744095027 0.053197820
v 0.069254629 0.709067702 0.059410222
v 0.050668292 0.720844805 0.056583285
v -0.189730600 0.613394439 -0.033982474
v -0.072561473 0.816256166 -0.115196571
v 0.077367909 0.743165612 0.065702468
v -0.195264608 0.614326358 -0.021738242
v -0.051704235 0.733518958 0.057154138
v 0.029508088 0.720470428 0.052730102
v -0.030902678 0.699371099 0.047477063
v -0.090796329 0.819047630 -0.115414366
v 0.026198342 0.683672309 0.044240803
v -0.064194463 0.715233564 0.058126807
v 0.070537582 0.773567498 0.067936435
v -0.030726001 0.672765851 0.042090572
v -0.051541161 0.675120294 0.048184756
v -0.054427594 0.832715034 -0.131006598
v -0.070103191 0.838654339 -0.138762221
v -0.071363188 0.748291075 0.063495710
v -0.055820502 0.848950088 -0.142075270
v 0.090048775 0.833275676 -0.134135872
v -0.199808598 0.615470946 -0.009167210
v 0.083580926 0.759794414 0.068232417
v -0.071972236 0.678293645 0.056375880
v -0.094842620 0.744972944 0.070701726
v 0.093902588 0.822148025 -0.117984414
v -0.075488374 0.698859870 0.059657007
v -0.085636720 0.715594709 0.065070912
v -0.076041333 0.865616322 0.058789663
v 0.071197413 0.671197891 -0.082096554
v -0.052300554 0.864709735 0.059587669
v 0.101659760 0.763292551 0.075248316
v -0.093131974 0.702004433 0.066997454
v 0.130821809 0.833941281 -0.111981750
v -0.195360035 0.616790414 0.002426604
v -0.027255287 0.759811282 0.058721125
v 0.089972571 0.662428141 -0.086631499
v -0.188418582 0.619044542 0.027525270
v -0.126716703 0.722790301 0.078911565
v 0.085625954 0.678061604 -0.089898773
v -0.182466671 0.620157182 0.039492447
v -0.106821738 0.712063789 0.073154666
v 0.115049638 0.752186656 0.079892665
v 0.122458220 0.771060467 0.079819545
v 0.124783173 0.848178267 -0.124025382
v -0.176115140 0.621062815 0.051352322
v -0.115725935 0.741131902 0.078769870
v -0.162977234 0.621842265 0.054552652
v -0.125975475 0.704598665 0.078321978
v -0.150648803 0.622376800 0.060368687
v -0.138216481 0.622514725 0.066169575
v -0.136560947 0.737350106 0.076007880
v -0.145419627 0.711410880 0.071054287
v -0.126383305 0.623280406 0.071558602
v 0.139773145 0.758748114 0.074847527
v -0.150273010 0.727175951 0.070405364
v -0.112618901 0.624062955 0.068338364
v -0.099681474 0.624947786 0.062786929
v 0.130164772 0.653892756 -0.085554153
v -0.154042408 0.742967665 0.070234448
v 0.177248850 0.764547467 0.063387685
v 0.130985424 0.667515635 -0.088331141
v 0.157551631 0.880703926 -0.105502054
v -0.086632513 0.625748932 0.057177030
v -0.142151535 0.695700645 0.071705684
v -0.073444024 0.626468480 0.051496685
v 0.131670207 0.878850281 -0.129812330
v -0.061491817 0.627570271 0.043165695
v -0.048598394 0.628492653 0.036330648
v 0.193804324 0.758895278 0.046861961
v 0.141672760 0.849016368 -0.110700235
v -0.035250999 0.629339933 0.030349266
v -0.021157095 0.629531622 0.026587326
v -0.172585472 0.751707911 0.064041920
v -0.017608827 0.638180673 0.037139576
v -0.166611284 0.716671109 0.063463353
v 0.145485878 0.663440049 -0.081390612
v 0.153854385 0.834590614 -0.101481199
v 0.202543542 0.767136931 0.028029796
v -0.190568089 0.740864396 0.054863971
v -0.182671934 0.703885496 0.056388903
v -0.187543258 0.722281098 0.056132793
v -0.041484054 0.744786859 -0.097094163
v 0.161562592 0.659322202 -0.073753513
v 0.210201710 0.775035143 -0.012359356
v 0.151697427 0.863212109 -0.112151012
v 0.013223894 0.777392864 -0.097718671
v -0.052242864 0.760720313 -0.098513648
v 0.067230359 0.747310638 -0.101469256
v -0.049189772 0.753570616 0.059219323
v 0.210989684 0.755843163 0.005265432
v -0.197168872 0.710820019 0.037851855
v -0.207569569 0.741562843 0.020189855
v -0.186034516 0.815268636 0.039919123
v 0.179305807 0.662376046 -0.062903844
v -0.205432653 0.700985074 0.019151296
v 0.122945145 0.893966496 0.044762507
v 0.210225984 0.755470932 -0.020533247
v -0.207292870 0.720981240 0.017967341
v -0.210002214 0.732068300 -0.002628212
v -0.210024193 0.744093835 -0.020336429
v 0.188423857 0.654470444 -0.048546180
v 0.209245056 0.739224792 -0.034775130
v -0.206230357 0.690447867 -0.000802925
v -0.206605479 0.815750420 0.004087668
v 0.158369824 0.850621402 -0.097668052
v -0.031910863 0.914539695 0.068052843
v 0.205371737 0.757920384 -0.046266612
v 0.191074222 0.761464536 -0.065565951
v -0.080447763 0.804730415 -0.109401725
v -0.059242360 0.806939900 -0.107778609
v 0.192206532 0.672725379 -0.047906458
v -0.208275199 0.710367680 -0.007145825
v 0.195938200 0.645722210 -0.033622526
v 0.197324440 0.741761804 -0.055199951
v -0.016362239 0.889297485 -0.142106801
v -0.032910537 0.889285862 -0.143900633
v 0.176440328 0.838891983 -0.088512853
v 0.017668266 0.781220198 0.058721464
v -0.049126200 0.889154792 -0.146385401
v -0.048229396 0.772541523 0.061800618
v 0.185911983 0.742192149 -0.071028337
v 0.175535947 0.750405908 -0.084775671
v -0.065036431 0.889305234 -0.148959085
v 0.173408031 0.857860446 -0.085653916
v -0.206595451 0.692267537 -0.022621008
v -0.081427708 0.889771461 -0.148130462
v -0.086783424 0.872064710 -0.148054197
v -0.204017639 0.813721359 -0.037177067
v -0.097308412 0.890809417 -0.144591764
v -0.112031318 0.892489552 -0.138760179
v 0.155784935 0.739673257 -0.092523620
v -0.202346727 0.737017274 -0.047992174
v -0.194753453 0.815163434 -0.062804535
v -0.182112858 0.824447036 -0.083779186
v -0.206457347 0.705714166 -0.036201604
v 0.185046554 0.849283040 -0.068936624
v 0.168453723 0.887612224 -0.077300951
v -0.196081638 0.657653987 -0.038026161
v 0.051188767 0.770954609 0.064504206
v 0.135559022 0.741591573 -0.102686740
v -0.064755574 0.790481210 -0.104693040
v -0.188649833 0.743899345 -0.068207830
v 0.174860463 0.885443509 -0.061105866
v -0.078394122 0.778025270 -0.106295943
v -0.184524059 0.651553810 -0.054355688
v 0.119983748 0.746122897 -0.111016616
v -0.191387609 0.699667275 -0.054949988
v -0.173376128 0.695741475 -0.075072154
v 0.178920820 0.886042953 -0.043542214
v -0.185061008 0.710869908 -0.065693900
v -0.173791334 0.732331634 -0.082600892
v 0.194826990 0.854018390 -0.028777430
v -0.167386875 0.676809609 -0.074288175
v -0.019850412 0.686753154 -0.075864591
v 0.081127420 0.734859288 -0.101171039
v -0.126041383 0.894608378 -0.132747948
v -0.138451934 0.897003531 -0.123991370
v -0.156541765 0.739805579 -0.092680171
v -0.154769272 0.722313821 -0.089903809
v -0.154430479 0.704478323 -0.086301543
v -0.152641594 0.686877429 -0.082584009
v -0.128203735 0.811548531 -0.113751039
v 0.069058649 0.805647373 0.065726072
v 0.202505663 0.665479124 -0.028809508
v -0.159088999 0.902458072 -0.100885212
v -0.165484637 0.904692829 -0.086535104
v 0.205257982 0.683345139 -0.016592581
v -0.003506552 0.619549990 -0.047763161
v -0.171362132 0.906724811 -0.072612047
v 0.193728060 0.860025227 -0.004854299
v -0.173959285 0.908298314 -0.057696659
v -0.174490437 0.909941554 -0.043322407
v -0.172724858 0.911823571 -0.030127417
v 0.208920673 0.772665381 -0.033048980
v 0.176874787 0.892080188 -0.029347822
v -0.170894206 0.913662255 -0.016289938
v -0.165760770 0.914556026 -0.003371553
v -0.159412503 0.915378094 0.008946365
v 0.049406689 0.776800573 -0.100955166
v -0.150499165 0.915791214 0.019595150
v 0.177876368 0.890895009 -0.012683381
v -0.140285373 0.916398704 0.029290080
v -0.134539053 0.676982403 -0.088537589
v 0.186027020 0.856166363 0.018599413
v 0.016415421 0.720041156 -0.085669510
v -0.002510300 0.708720088 -0.085021749
v -0.002392078 0.722515702 -0.085468717
v 0.145446569 0.879338622 -0.118671373
v -0.135837689 0.694581151 -0.092291728
v -0.002177999 0.735567153 -0.089921132
v -0.136775523 0.730413973 -0.100527190
v 0.014649637 0.734978795 -0.089946836
v -0.002041389 0.748032928 -0.095896691
v -0.129038081 0.916775525 0.038197465
v 0.161782056 0.760837495 -0.093270779
v 0.171173021 0.893736660 0.003847048
v -0.118562922 0.683749557 -0.097232714
v -0.117250398 0.916715920 0.044539645
v -0.104569152 0.916477799 0.050875939
v 0.163306087 0.884512603 0.024402600
v 0.045723096 0.830197155 -0.126022130
v -0.136413977 0.712293029 -0.096789204
v -0.116711698 0.740514636 -0.111675814
v 0.159315825 0.899455845 0.013926935
v -0.118326858 0.701554954 -0.102124594
v 0.175368577 0.849783599 0.037448533
v -0.098604158 0.691966712 -0.098586984
v -0.002710902 0.762754977 0.058986414
v -0.097241148 0.900096118 0.054443367
v 0.136307210 0.900857329 0.035636518
v 0.143453524 0.887829423 0.041077528
v 0.148483887 0.898150563 0.026343206
v -0.083305247 0.682715535 -0.090737835
v -0.096558817 0.709816873 -0.101402245
v -0.078335032 0.700371921 -0.093148537
v 0.046186022 0.690858960 0.050029796
v -0.095800631 0.727580667 -0.104796067
v 0.050054520 0.859790981 -0.143318862
v -0.075099185 0.717808008 -0.095464751
v 0.025970438 0.853526711 -0.139072031
v -0.038465198 0.825331032 -0.120139077
v -0.035714440 0.841062427 -0.133961365
v 0.202465266 0.679858148 0.019436110
v 0.188297242 0.689327836 0.051605411
v -0.050986212 0.708717585 -0.088722818
v -0.055434912 0.729539275 -0.092825755
v -0.148835003 0.899529815 -0.112444475
v 0.162978351 0.859870434 0.045486592
v 0.143690914 0.857822418 0.055611499
v -0.197503358 0.630735636 0.010098995
v 0.159659922 0.664697111 0.061532825
v 0.167549223 0.685091615 0.061040889
v -0.195069984 0.617757261 0.015896847
v 0.129552394 0.873528779 0.051655285
v -0.036048338 0.632165074 -0.057241105
v -0.032518692 0.619087160 -0.051040988
v 0.013788017 0.667390466 0.038715389
v -0.018277438 0.619765699 -0.048453800
v -0.005280367 0.912041843 0.076565079
v 0.065756463 0.850867748 -0.144157380
v -0.016922135 0.914323986 0.068616755
v -0.022078209 0.660312653 0.037427742
v 0.126329914 0.675457239 0.076838635
v 0.033519831 0.900975227 0.066824779
v 0.079966195 0.643143833 0.056700904
v 0.069575801 0.655796528 0.053586729
v 0.099954739 0.652052402 0.066062316
v 0.048613746 0.815449595 -0.112325594
v 0.118884876 0.655808091 0.074111894
v 0.052994091 0.658843637 0.046732649
v 0.193325683 0.644658983 0.026778325
v 0.122504152 0.851160824 0.063026942
v 0.109583952 0.864988983 0.058846794
v 0.182156593 0.876172662 0.007087582
v 0.104490533 0.670468986 0.069405161
v 0.186125025 0.873643279 -0.023193650
v 0.188003033 0.865887821 -0.049092926
v 0.051443886 0.898722768 0.064674504
v 0.087110855 0.680969179 0.063176326
v 0.108096763 0.691646934 0.072681986
v 0.176778018 0.869468331 -0.070936739
v 0.167225584 0.876337707 -0.088737257
v 0.085492499 0.662706077 0.061004300
v 0.161442265 0.865591645 -0.097955532
v 0.184070900 0.636688888 -0.049644604
v 0.169476822 0.642639160 -0.067876972
v 0.067160182 0.689928114 0.056142967
v 0.144004166 0.642849088 -0.077843726
v 0.136509016 0.862756610 -0.123457231
v 0.068706356 0.671711743 0.054862272
v 0.110318601 0.730868757 0.076541826
v 0.140330121 0.659341812 0.069157735
v 0.172590300 0.651201844 0.054384220
v 0.188095436 0.656554103 0.040735237
v 0.208435506 0.720463634 -0.030040309
v 0.156068966 0.719030261 -0.088069662
v 0.049011789 0.675431669 0.048247337
v 0.138709873 0.708141804 -0.094213620
v 0.200731725 0.651314855 -0.012659123
v 0.200071335 0.649120688 0.007841438
v 0.035995517 0.704050303 0.049816191
v 0.011429632 0.720906377 0.050959818
v 0.091022775 0.870458007 0.057884019
v 0.069222003 0.897390664 0.062097777
v 0.017173436 0.736546159 0.053591110
v 0.035861708 0.817553163 0.057587050
v 0.022575339 0.799421668 0.057466466
v 0.020714382 0.650027037 -0.063389458
v 0.058098156 0.882233024 0.062133737
v 0.038097296 0.681127489 -0.076866738
v 0.033028193 0.860183418 0.060644101
v 0.046781663 0.869277298 0.061939567
v 0.015451754 0.859534383 0.060538225
v 0.035310615 0.635061681 -0.059141390
v 0.056276321 0.685022712 -0.082477197
v 0.078844801 0.790101886 0.068339035
v 0.198992938 0.727629960 0.036338605
v 0.197770864 0.800947011 -0.059412122
v 0.058055747 0.633102179 -0.064611055
v 0.173537344 0.711834550 -0.077806689
v 0.125992686 0.776545644 -0.112547174
v 0.120475553 0.712743759 -0.103830919
v 0.081028894 0.629740834 -0.073636785
v 0.051414005 0.717006505 -0.089600936
v 0.038029365 0.762129724 -0.096585922
v 0.118397892 0.640411496 -0.085885242
v 0.102740884 0.626030922 -0.082733795
v 0.100757405 0.867692769 -0.142589971
v 0.075744689 0.880906463 0.060359824
v 0.070216581 0.861891270 0.061781190
v 0.127147347 0.624441385 -0.079011515
v 0.027494123 0.846277118 0.058331538
v 0.044350032 0.834544361 0.059690207
v 0.079066396 0.867183506 -0.147614852
v 0.150653511 0.624723196 -0.071288541
v 0.180313751 0.769285262 -0.084058665
v 0.023391973 0.809479535 -0.106558457
v 0.171876058 0.674059749 -0.071364515
v 0.172066197 0.624031723 -0.063638560
v 0.017564092 0.704754829 -0.084449187
v 0.182403624 0.621172369 -0.047690623
v 0.030849066 0.778589129 -0.099062622
v 0.192599908 0.626728356 -0.032945909
v 0.198723331 0.636588514 -0.019528395
v 0.064434931 0.757056594 0.062447030
v 0.106635258 0.848634720 -0.136735260
v 0.086385533 0.850195110 -0.142670780
v 0.018407281 0.762295067 -0.095184550
v 0.198145822 0.634579480 -0.002550818
v 0.123956122 0.679608285 -0.093328565
v 0.205382943 0.685439408 0.001862026
v 0.192998827 0.675317645 0.037148394
v 0.158200726 0.679097176 -0.078082532
v 0.141999125 0.680047512 -0.085316822
v 0.183189362 0.636401296 0.043827750
v 0.160062939 0.846695125 0.056320686
v 0.198415577 0.841268241 0.011159272
v 0.202026397 0.685936868 -0.037154384
v 0.046040587 0.649959266 -0.067400374
v 0.152861610 0.642203689 0.061802555
v 0.089091472 0.776122451 0.071927257
v 0.207040548 0.698191047 0.014049387
v 0.198292121 0.693991244 0.032706928
v 0.089943506 0.690938175 -0.094934955
v 0.133738160 0.638445258 0.070086941
v 0.117079973 0.816425204 -0.115490280
v -0.002437363 0.776455700 0.058041196
v -0.003388877 0.709958315 0.047440048
v 0.054085691 0.703352213 0.054013271
v 0.112715736 0.638305187 0.070174433
v 0.143046409 0.820021510 -0.106995486
v -0.003068433 0.750707448 0.052202992
v -0.002109733 0.790184796 0.057899218
v 0.095853791 0.636173546 0.062908933
v 0.020922227 0.831260324 0.057315528
v -0.001035371 0.831169605 0.056747489
v 0.107959054 0.882253945 0.052989505
v 0.060965430 0.642799020 0.046673018
v 0.105567053 0.900081754 0.051311892
v 0.197219744 0.630895615 0.014271602
v 0.105307914 0.778558731 0.077379748
v 0.035995513 0.870949268 -0.143923551
v 0.040940788 0.644863248 0.038575258
v 0.066931792 0.836513042 -0.136277556
v 0.018617999 0.648834169 0.033275809
v 0.033572704 0.663175464 0.041300174
v 0.042366691 0.796632171 -0.102374539
v 0.015133348 0.816125572 0.055494934
v 0.015751937 0.702154815 0.046227802
v -0.003578836 0.696552396 0.044204004
v -0.003174482 0.736926019 0.052445520
v 0.196610883 0.623547435 -0.013988467
v -0.003219339 0.723231912 0.051069755
v 0.070997089 0.650707841 -0.075121656
v 0.087629721 0.752256513 -0.105088852
v 0.106874369 0.761785626 -0.111653365
v 0.157289386 0.772545695 0.069645956
v 0.096894160 0.746271729 0.072158709
v 0.160685688 0.750791490 0.068396784
v 0.094814017 0.644295752 -0.083924428
v 0.189492166 0.628341377 0.029220179
f 555 540 123
f 389 162 497
f 567 540 568
f 583 104 251
f 463 489 430
f 453 94 255
f 483 484 162
f 446 640 671
f 574 577 251
f 50 244 238
f 52 244 50
f 575 57 53
f 55 249 52
f 55 2 250
f 577 248 563
f 575 437 432
f 57 597 589
f 2 265 262
f 589 592 57
f 262 259 2
f 5 267 262
f 602 606 589
f 5 9 11
f 58 606 610
f 11 272 5
f 12 278 11
f 565 793 8
f 630 60 632
f 13 425 12
f 424 289 160
f 289 424 13
f 643 649 60
f 181 403 179
f 483 206 484
f 163 651 174
f 53 563 558
f 651 65 650
f 163 389 384
f 683 66 65
f 455 558 563
f 165 384 171
f 340 331 34
f 67 66 683
f 206 470 63
f 385 102 856
f 67 702 70
f 344 340 696
f 179 403 406
f 710 70 702
f 16 352 14
f 111 112 59
f 63 64 655
f 18 368 16
f 710 742 753
f 119 112 111
f 394 671 545
f 551 922 903
f 19 375 18
f 753 740 711
f 406 470 179
f 261 615 108
f 545 453 439
f 178 386 530
f 24 386 23
f 72 753 742
f 26 396 24
f 768 765 72
f 119 142 112
f 32 63 470
f 112 142 161
f 399 400 396
f 154 343 182
f 545 671 448
f 399 415 400
f 768 770 765
f 32 406 410
f 418 415 399
f 770 183 777
f 387 300 166
f 415 418 422
f 105 86 299
f 169 42 839
f 170 142 119
f 173 172 705
f 329 638 343
f 134 738 737
f 185 638 329
f 692 661 145
f 150 74 741
f 637 345 873
f 132 145 661
f 170 184 142
f 138 495 760
f 138 136 188
f 136 194 188
f 201 87 194
f 270 87 205
f 216 49 210
f 46 216 724
f 198 184 170
f 43 96 907
f 219 39 218
f 45 43 41
f 224 37 219
f 498 224 514
f 86 105 342
f 225 36 514
f 378 107 110
f 80 233 107
f 22 41 43
f 198 217 849
f 41 581 45
f 103 233 76
f 76 40 103
f 222 217 214
f 678 100 40
f 98 41 22
f 366 41 98
f 40 76 678
f 215 4 284
f 215 98 21
f 537 536 92
f 222 234 217
f 904 537 92
f 460 462 30
f 284 471 366
f 222 239 246
f 586 903 759
f 462 28 30
f 246 234 222
f 454 449 28
f 237 391 924
f 560 319 921
f 246 888 252
f 431 471 282
f 455 560 391
f 319 560 241
f 50 238 793
f 50 566 52
f 52 574 55
f 258 263 510
f 244 52 249
f 55 253 2
f 284 792 657
f 303 670 667
f 303 100 674
f 250 249 55
f 273 274 252
f 251 253 574
f 100 303 301
f 301 570 100
f 104 261 257
f 677 100 678
f 273 285 274
f 257 2 253
f 2 257 265
f 250 2 259
f 570 568 40
f 752 292 293
f 294 296 285
f 285 296 274
f 684 497 679
f 277 274 296
f 440 447 442
f 579 489 463
f 692 329 695
f 259 262 267
f 871 736 360
f 262 271 9
f 40 100 570
f 570 567 568
f 203 128 270
f 310 296 294
f 305 296 310
f 87 270 194
f 9 5 262
f 5 272 600
f 276 9 271
f 9 276 11
f 272 11 278
f 302 323 310
f 568 103 40
f 108 615 89
f 280 11 276
f 11 280 12
f 103 568 540
f 278 12 425
f 323 337 328
f 283 12 280
f 12 283 13
f 283 297 289
f 289 13 283
f 540 561 231
f 425 13 424
f 209 288 205
f 291 125 286
f 346 337 323
f 49 304 288
f 173 350 351
f 297 654 314
f 347 158 864
f 304 47 311
f 47 304 49
f 47 46 481
f 360 361 855
f 501 684 146
f 481 311 47
f 46 39 481
f 343 695 329
f 314 289 297
f 289 314 160
f 481 321 308
f 481 39 321
f 325 122 321
f 325 321 37
f 37 321 39
f 333 160 314
f 324 266 333
f 527 107 231
f 84 121 325
f 36 327 498
f 160 333 34
f 327 120 84
f 36 82 371
f 277 393 390
f 689 34 333
f 34 689 340
f 313 34 331
f 266 334 689
f 334 260 341
f 340 335 331
f 107 527 110
f 54 404 405
f 696 14 344
f 61 401 44
f 38 299 407
f 358 14 348
f 14 358 16
f 344 14 352
f 356 704 712
f 352 16 368
f 413 62 417
f 370 16 358
f 16 370 18
f 175 705 134
f 713 115 110
f 371 27 378
f 27 371 82
f 381 18 370
f 18 381 19
f 368 18 375
f 80 378 27
f 19 381 235
f 19 395 23
f 19 23 178
f 202 506 913
f 23 395 24
f 386 24 396
f 398 24 395
f 24 398 26
f 26 398 220
f 26 412 399
f 396 26 399
f 418 399 412
f 164 180 444
f 444 443 164
f 175 173 705
f 685 84 120
f 422 300 415
f 685 121 84
f 172 169 300
f 172 300 422
f 78 80 27
f 226 365 78
f 89 615 114
f 240 485 309
f 134 737 175
f 226 27 82
f 245 459 452
f 187 186 140
f 243 459 245
f 189 187 130
f 581 466 579
f 467 472 637
f 308 122 240
f 138 579 466
f 430 255 463
f 499 435 430
f 453 430 435
f 435 440 439
f 435 499 450
f 243 479 281
f 308 321 122
f 897 438 584
f 439 453 435
f 243 281 893
f 450 440 435
f 480 859 865
f 440 449 447
f 442 439 440
f 450 449 440
f 447 449 454
f 492 488 493
f 127 458 456
f 449 456 28
f 82 225 708
f 454 28 462
f 28 456 30
f 456 450 127
f 30 456 458
f 225 82 36
f 30 464 460
f 506 507 502
f 126 469 125
f 287 508 509
f 207 507 506
f 410 460 32
f 126 306 477
f 460 464 644
f 644 32 460
f 32 644 63
f 475 31 576
f 470 406 32
f 64 63 644
f 306 309 477
f 125 464 458
f 528 795 511
f 516 523 524
f 655 206 63
f 206 655 484
f 206 474 470
f 162 679 497
f 316 322 822
f 313 160 34
f 37 498 325
f 523 316 534
f 497 684 501
f 501 146 505
f 146 512 503
f 505 503 513
f 263 515 510
f 512 120 115
f 503 512 91
f 517 513 503
f 115 713 91
f 458 203 125
f 315 547 548
f 91 512 115
f 547 330 336
f 91 713 88
f 517 88 522
f 552 548 547
f 532 88 713
f 88 532 519
f 552 336 553
f 522 519 541
f 527 231 561
f 127 128 458
f 538 660 692
f 514 36 498
f 224 498 37
f 538 692 695
f 114 626 631
f 553 342 105
f 219 37 39
f 555 660 561
f 127 450 499
f 891 199 824
f 660 555 661
f 218 39 46
f 199 97 886
f 366 98 284
f 22 21 98
f 41 366 581
f 43 232 22
f 907 232 43
f 96 536 907
f 45 463 255
f 45 581 463
f 255 94 96
f 255 96 45
f 94 453 545
f 448 546 545
f 582 593 594
f 595 584 438
f 216 46 47
f 216 47 49
f 551 640 558
f 558 640 569
f 49 288 209
f 793 565 50
f 569 53 558
f 566 50 565
f 209 210 49
f 841 351 350
f 574 52 566
f 578 53 57
f 612 609 423
f 53 578 563
f 575 53 569
f 597 432 211
f 253 55 574
f 57 575 597
f 578 57 592
f 592 583 578
f 627 609 612
f 584 621 628
f 603 589 606
f 602 589 597
f 634 819 627
f 610 606 602
f 835 318 229
f 626 606 58
f 610 624 58
f 58 624 630
f 632 58 630
f 634 884 869
f 58 632 626
f 60 642 632
f 642 60 649
f 60 630 181
f 650 649 643
f 662 652 645
f 656 628 621
f 621 636 656
f 658 659 204
f 64 644 469
f 466 495 138
f 694 377 700
f 468 471 431
f 663 650 65
f 628 656 668
f 679 162 484
f 65 686 663
f 672 673 659
f 686 65 66
f 683 65 651
f 468 431 478
f 683 693 67
f 685 146 684
f 146 685 512
f 696 340 689
f 66 67 701
f 473 495 478
f 66 698 686
f 702 67 693
f 668 675 687
f 701 698 66
f 405 690 54
f 701 67 70
f 54 690 564
f 14 696 348
f 711 70 710
f 699 70 711
f 702 709 710
f 229 318 236
f 657 282 471
f 710 709 742
f 753 756 740
f 756 753 72
f 742 754 72
f 72 754 768
f 72 765 756
f 766 765 770
f 490 193 496
f 130 772 496
f 770 776 766
f 15 719 168
f 87 201 148
f 183 770 768
f 201 194 136
f 422 705 172
f 633 777 338
f 777 633 150
f 408 74 633
f 638 185 408
f 106 730 258
f 688 379 694
f 275 631 118
f 185 692 145
f 197 750 749
f 736 737 738
f 263 258 730
f 738 741 743
f 185 145 143
f 743 741 744
f 744 741 74
f 744 467 879
f 132 140 145
f 123 132 661
f 741 738 150
f 123 540 567
f 773 772 567
f 738 134 150
f 78 27 226
f 238 623 1
f 264 279 779
f 776 150 134
f 134 705 420
f 695 541 538
f 104 599 261
f 365 681 680
f 761 762 763
f 365 678 76
f 76 78 365
f 411 156 420
f 156 411 220
f 541 519 538
f 220 764 156
f 76 233 78
f 80 78 233
f 168 789 387
f 70 699 701
f 398 395 228
f 434 437 445
f 779 780 887
f 428 432 434
f 926 317 706
f 197 749 745
f 213 6 4
f 279 785 780
f 419 427 428
f 148 201 745
f 454 462 419
f 526 782 783
f 381 734 235
f 410 414 419
f 493 769 913
f 511 4 215
f 4 511 213
f 406 414 410
f 208 731 729
f 21 511 215
f 210 728 727
f 794 800 823
f 511 21 529
f 470 474 179
f 724 218 46
f 227 110 115
f 118 280 275
f 219 218 722
f 806 800 794
f 803 804 256
f 716 778 225
f 224 219 720
f 407 86 690
f 356 734 381
f 389 497 380
f 809 795 528
f 810 806 811
f 717 716 514
f 497 501 380
f 317 697 429
f 810 818 821
f 913 771 202
f 341 698 699
f 373 376 159
f 369 177 373
f 341 260 698
f 260 334 266
f 365 226 681
f 517 522 354
f 828 821 818
f 354 362 364
f 569 640 446
f 519 522 88
f 767 828 818
f 266 324 676
f 602 597 211
f 804 834 256
f 121 240 122
f 345 868 918
f 610 602 211
f 169 839 166
f 427 195 211
f 643 179 174
f 683 651 165
f 693 683 171
f 627 884 634
f 324 654 676
f 846 397 841
f 841 397 374
f 362 709 369
f 580 397 846
f 192 188 190
f 192 499 489
f 128 192 190
f 270 205 203
f 205 288 286
f 291 306 126
f 208 148 733
f 288 304 291
f 304 311 306
f 311 481 308
f 286 125 203
f 283 118 297
f 589 599 592
f 283 280 118
f 227 115 120
f 747 805 732
f 707 226 82
f 107 378 80
f 275 114 631
f 118 646 297
f 89 114 275
f 231 233 103
f 87 209 205
f 816 872 870
f 271 108 89
f 248 560 455
f 248 241 560
f 108 271 265
f 566 565 241
f 86 876 690
f 622 244 619
f 517 91 88
f 574 566 248
f 715 662 889
f 244 249 618
f 249 250 614
f 882 465 718
f 253 251 257
f 774 465 882
f 250 259 608
f 883 494 774
f 921 391 560
f 259 267 604
f 54 564 847
f 251 577 583
f 600 267 5
f 89 276 271
f 503 91 517
f 690 405 407
f 275 276 89
f 892 573 582
f 272 278 596
f 248 577 574
f 280 276 275
f 425 588 591
f 425 424 781
f 781 313 572
f 424 313 781
f 572 585 781
f 314 654 324
f 136 197 201
f 313 557 572
f 237 551 558
f 554 331 335
f 334 341 348
f 760 136 138
f 335 344 549
f 341 699 704
f 348 696 334
f 921 319 7
f 358 348 704
f 344 352 544
f 912 582 594
f 903 586 551
f 352 368 543
f 381 370 356
f 368 375 539
f 788 8 3
f 535 375 178
f 221 795 809
f 828 767 562
f 559 833 920
f 921 920 899
f 546 448 898
f 903 922 836
f 38 903 299
f 235 228 395
f 405 669 407
f 546 92 94
f 400 518 520
f 92 546 904
f 639 35 926
f 386 396 525
f 927 926 33
f 928 605 930
f 200 490 298
f 94 545 546
f 96 92 536
f 927 56 852
f 143 472 408
f 220 412 26
f 400 520 521
f 412 220 411
f 109 113 152
f 920 832 559
f 418 412 411
f 152 113 746
f 387 789 786
f 420 418 411
f 746 161 867
f 418 420 422
f 490 773 298
f 496 772 773
f 394 442 445
f 562 767 832
f 739 636 820
f 204 725 658
f 773 490 496
f 725 223 635
f 447 454 428
f 472 186 637
f 215 284 98
f 189 130 496
f 458 464 30
f 410 462 460
f 125 469 464
f 635 247 487
f 487 269 629
f 641 487 629
f 268 269 487
f 269 393 629
f 390 269 268
f 469 126 64
f 349 761 763
f 655 64 477
f 303 674 670
f 290 393 277
f 611 290 928
f 163 474 483
f 928 307 605
f 635 641 648
f 531 605 533
f 677 674 100
f 477 309 485
f 506 202 207
f 679 485 240
f 240 121 684
f 312 912 594
f 684 679 240
f 121 685 684
f 186 187 345
f 503 505 146
f 912 332 892
f 772 130 132
f 685 120 512
f 501 505 159
f 725 648 658
f 505 513 373
f 513 517 364
f 892 847 564
f 110 527 713
f 714 847 339
f 522 541 154
f 51 714 346
f 231 103 540
f 714 51 404
f 541 695 343
f 567 772 123
f 502 500 506
f 578 577 563
f 867 659 673
f 577 578 583
f 597 575 432
f 592 104 583
f 913 492 493
f 845 167 839
f 599 104 592
f 386 178 23
f 599 603 615
f 110 227 378
f 615 261 599
f 706 402 639
f 603 626 114
f 132 123 772
f 624 610 195
f 409 706 317
f 746 673 682
f 114 615 603
f 120 327 227
f 624 414 403
f 691 429 697
f 642 631 632
f 642 118 631
f 429 433 853
f 646 118 642
f 642 649 646
f 152 682 691
f 682 433 691
f 181 643 60
f 654 297 646
f 122 325 121
f 140 130 187
f 421 416 617
f 123 661 555
f 309 308 240
f 698 260 686
f 702 693 177
f 698 701 699
f 672 441 436
f 291 126 125
f 109 691 697
f 143 140 186
f 874 872 816
f 665 441 672
f 188 192 489
f 665 658 653
f 712 704 699
f 653 451 665
f 927 697 317
f 712 740 734
f 648 461 653
f 178 375 19
f 923 880 116
f 641 461 648
f 740 756 748
f 748 758 228
f 926 706 639
f 479 641 482
f 754 742 362
f 354 754 362
f 407 669 38
f 203 458 128
f 482 629 620
f 756 765 758
f 182 754 154
f 128 127 192
f 254 246 252
f 611 382 620
f 764 398 228
f 499 192 127
f 764 766 156
f 766 776 156
f 930 611 928
f 420 156 776
f 140 132 130
f 788 7 8
f 387 166 168
f 420 776 134
f 136 760 197
f 300 387 415
f 750 197 760
f 745 201 197
f 148 208 209
f 733 148 745
f 258 35 106
f 593 533 605
f 731 208 733
f 236 318 910
f 729 210 208
f 728 210 729
f 727 216 210
f 188 489 579
f 929 573 556
f 724 216 727
f 573 929 582
f 723 218 724
f 722 218 723
f 720 219 722
f 717 224 720
f 514 224 717
f 188 579 138
f 876 556 573
f 707 681 226
f 898 904 546
f 472 143 186
f 212 795 221
f 899 391 921
f 854 925 931
f 213 795 212
f 140 143 145
f 404 54 714
f 833 922 924
f 415 387 786
f 143 408 185
f 238 3 793
f 1 3 238
f 31 799 752
f 622 238 244
f 918 799 515
f 380 376 171
f 915 752 357
f 617 476 421
f 619 244 618
f 618 249 616
f 616 249 614
f 636 739 613
f 388 613 10
f 614 250 608
f 357 791 915
f 383 688 388
f 608 259 607
f 571 438 576
f 295 667 666
f 92 96 94
f 607 259 604
f 372 726 700
f 667 295 303
f 367 726 372
f 604 267 601
f 298 295 207
f 923 875 880
f 363 732 367
f 408 467 74
f 148 209 87
f 298 301 295
f 359 747 363
f 601 267 600
f 359 355 755
f 600 272 598
f 598 272 596
f 353 755 355
f 301 298 773
f 596 278 591
f 747 755 751
f 591 278 425
f 588 425 781
f 388 688 813
f 769 771 913
f 763 353 349
f 202 771 200
f 506 500 913
f 74 467 744
f 773 570 301
f 82 708 707
f 320 647 326
f 500 492 913
f 331 554 557
f 242 910 320
f 344 335 340
f 910 908 647
f 554 335 550
f 239 222 703
f 549 550 335
f 549 344 544
f 166 167 168
f 544 352 543
f 543 368 542
f 17 15 167
f 17 845 157
f 907 536 919
f 157 850 155
f 155 850 153
f 542 368 539
f 150 633 74
f 153 854 151
f 151 854 149
f 149 858 147
f 147 862 144
f 539 375 535
f 759 903 38
f 530 535 178
f 144 862 141
f 141 866 139
f 139 866 137
f 530 386 525
f 137 870 135
f 525 396 521
f 135 870 872
f 133 872 131
f 131 874 129
f 129 923 117
f 923 874 875
f 170 119 902
f 521 396 400
f 20 932 101
f 99 101 932
f 99 886 97
f 95 97 199
f 95 891 93
f 93 896 90
f 518 400 786
f 90 896 85
f 85 901 83
f 83 905 81
f 169 166 300
f 81 905 79
f 77 79 796
f 77 909 75
f 439 394 545
f 75 914 73
f 73 914 71
f 71 916 69
f 442 394 439
f 468 466 366
f 442 447 434
f 7 562 920
f 794 534 811
f 924 899 833
f 434 447 428
f 428 454 419
f 419 462 410
f 38 898 759
f 902 111 897
f 466 468 495
f 526 524 534
f 25 59 56
f 96 43 45
f 895 401 61
f 182 343 338
f 483 389 163
f 483 162 389
f 897 59 25
f 883 894 775
f 776 777 150
f 59 897 111
f 380 384 389
f 774 882 893
f 111 902 119
f 778 708 225
f 501 159 380
f 167 166 839
f 159 505 373
f 176 191 867
f 373 513 369
f 364 369 513
f 850 890 925
f 354 364 517
f 354 522 154
f 177 369 709
f 154 541 343
f 446 445 437
f 376 380 159
f 204 223 725
f 217 198 214
f 214 703 222
f 437 569 446
f 610 211 195
f 414 624 195
f 403 630 624
f 889 718 715
f 160 313 424
f 181 630 403
f 888 246 239
f 179 643 181
f 174 650 643
f 651 650 174
f 163 384 165
f 487 247 268
f 165 651 163
f 171 683 165
f 174 474 163
f 557 313 331
f 475 515 799
f 376 693 171
f 285 273 757
f 177 693 376
f 627 885 884
f 174 179 474
f 509 508 516
f 294 302 310
f 709 702 177
f 709 362 742
f 154 754 354
f 182 338 183
f 780 785 803
f 183 768 182
f 423 413 881
f 183 338 777
f 638 338 343
f 633 638 408
f 590 401 895
f 692 185 329
f 190 188 194
f 515 475 25
f 270 190 194
f 190 270 128
f 195 427 414
f 7 788 562
f 915 878 571
f 877 595 438
f 203 205 286
f 44 48 61
f 474 206 483
f 210 209 208
f 61 62 895
f 413 895 62
f 211 432 427
f 172 42 169
f 398 764 220
f 515 263 918
f 437 575 569
f 228 758 764
f 124 885 426
f 175 871 350
f 84 498 327
f 225 514 716
f 327 371 227
f 918 263 730
f 898 448 759
f 371 327 36
f 839 374 890
f 227 371 378
f 451 441 665
f 228 235 748
f 444 180 457
f 233 231 107
f 187 868 345
f 759 448 586
f 189 292 868
f 734 748 235
f 653 461 826
f 924 922 237
f 292 193 196
f 446 671 394
f 461 641 479
f 922 551 237
f 391 237 455
f 482 641 629
f 918 868 799
f 196 200 293
f 771 293 200
f 558 455 237
f 281 287 894
f 894 893 281
f 248 566 241
f 257 251 104
f 255 430 453
f 257 261 265
f 509 775 287
f 260 266 676
f 509 516 524
f 265 261 108
f 523 516 531
f 322 316 523
f 273 252 888
f 265 271 262
f 811 534 316
f 316 315 811
f 676 686 260
f 366 466 581
f 478 495 468
f 330 547 315
f 547 336 552
f 366 471 468
f 760 495 473
f 657 471 284
f 336 342 553
f 553 900 552
f 832 900 553
f 865 878 791
f 792 284 4
f 31 571 576
f 286 288 291
f 438 571 877
f 906 864 863
f 4 790 792
f 8 7 319
f 303 295 301
f 291 304 306
f 570 773 567
f 739 617 392
f 617 416 392
f 306 311 309
f 309 311 308
f 170 628 668
f 613 739 10
f 739 392 10
f 656 675 668
f 656 815 675
f 680 678 365
f 813 613 388
f 324 333 314
f 687 198 668
f 379 688 383
f 295 666 207
f 815 656 636
f 377 694 379
f 325 498 84
f 689 333 266
f 334 696 689
f 700 377 372
f 861 834 860
f 703 721 239
f 732 726 367
f 834 861 256
f 348 341 704
f 747 732 363
f 356 358 704
f 735 888 721
f 370 358 356
f 735 264 757
f 735 273 888
f 755 747 359
f 369 364 362
f 353 763 755
f 647 761 326
f 761 349 326
f 376 373 177
f 779 757 264
f 780 779 279
f 384 380 171
f 235 395 19
f 736 871 737
f 562 788 917
f 910 647 320
f 785 804 803
f 414 406 403
f 256 323 803
f 813 675 815
f 415 786 400
f 427 419 414
f 422 420 705
f 432 428 427
f 430 489 499
f 587 580 590
f 437 434 432
f 445 442 434
f 446 394 445
f 671 586 448
f 819 609 627
f 456 449 450
f 455 563 248
f 865 791 769
f 581 579 463
f 645 652 817
f 644 464 469
f 652 662 715
f 874 923 129
f 715 664 652
f 694 812 688
f 477 64 126
f 750 760 473
f 485 655 477
f 465 715 718
f 507 207 666
f 465 774 494
f 865 486 480
f 812 675 813
f 485 484 655
f 207 202 298
f 883 504 825
f 493 865 769
f 783 782 504
f 679 484 485
f 202 200 298
f 196 490 200
f 196 193 490
f 877 859 476
f 302 803 323
f 189 496 193
f 814 806 810
f 168 719 789
f 821 814 810
f 391 899 924
f 713 527 532
f 467 408 472
f 302 294 887
f 786 787 518
f 538 519 532
f 561 532 527
f 926 35 33
f 538 532 660
f 540 555 561
f 551 586 640
f 319 241 565
f 660 532 561
f 113 161 746
f 161 176 867
f 8 319 565
f 223 247 635
f 781 585 784
f 620 629 393
f 887 780 302
f 269 390 393
f 671 640 586
f 781 784 588
f 599 589 603
f 393 290 611
f 626 603 606
f 928 290 305
f 623 238 622
f 625 1 623
f 774 893 894
f 312 332 912
f 626 632 631
f 332 339 847
f 847 892 332
f 757 887 285
f 847 714 54
f 793 3 8
f 732 807 726
f 858 931 857
f 675 812 687
f 168 167 15
f 273 735 757
f 920 921 7
f 402 385 639
f 167 845 17
f 638 633 338
f 646 649 663
f 650 663 649
f 845 850 157
f 888 239 721
f 663 654 646
f 706 409 48
f 850 854 153
f 676 654 663
f 429 409 317
f 661 692 660
f 854 858 149
f 676 663 686
f 858 862 147
f 433 429 691
f 678 680 677
f 699 711 712
f 712 734 356
f 711 710 753
f 862 866 141
f 712 711 740
f 682 436 827
f 734 740 748
f 866 870 137
f 214 687 808
f 748 756 758
f 664 816 652
f 872 133 135
f 198 687 214
f 754 182 768
f 872 874 131
f 665 659 658
f 758 765 766
f 658 648 653
f 766 764 758
f 776 770 777
f 668 198 170
f 117 923 116
f 787 786 789
f 929 330 822
f 533 822 322
f 556 336 330
f 531 322 523
f 899 920 833
f 662 444 889
f 346 323 256
f 491 482 620
f 116 880 911
f 911 20 116
f 382 491 620
f 911 932 20
f 932 886 99
f 645 443 662
f 930 382 611
f 382 930 516
f 886 824 199
f 605 531 930
f 491 508 848
f 628 170 902
f 256 347 346
f 482 848 479
f 891 896 93
f 347 256 861
f 820 617 739
f 866 819 817
f 605 594 593
f 896 901 85
f 929 593 582
f 612 881 885
f 901 905 83
f 826 451 653
f 451 457 180
f 672 659 665
f 441 180 851
f 79 905 796
f 436 673 672
f 436 851 827
f 909 914 75
f 682 673 436
f 914 916 71
f 584 902 897
f 876 86 342
f 69 916 1
f 829 433 827
f 700 808 694
f 788 3 916
f 853 829 417
f 409 61 48
f 402 48 855
f 870 817 816
f 855 29 360
f 874 816 664
f 385 361 102
f 830 880 875
f 576 897 25
f 819 634 817
f 68 69 1
f 106 856 730
f 743 736 738
f 910 242 236
f 862 857 819
f 744 879 102
f 880 830 831
f 840 528 843
f 401 846 44
f 803 302 780
f 769 791 357
f 878 915 791
f 831 911 880
f 918 873 345
f 576 25 475
f 799 31 475
f 841 29 846
f 879 856 102
f 106 639 385
f 573 564 876
f 911 831 802
f 342 556 876
f 337 339 332
f 25 510 515
f 350 29 841
f 564 573 892
f 892 582 912
f 510 25 56
f 864 906 837
f 312 328 337
f 929 822 593
f 33 35 258
f 871 360 29
f 840 860 835
f 864 158 863
f 29 855 44
f 916 914 917
f 808 687 812
f 594 307 312
f 307 305 328
f 916 917 788
f 33 56 927
f 840 835 809
f 307 594 605
f 736 743 361
f 531 516 930
f 290 277 305
f 852 109 927
f 318 835 860
f 21 844 529
f 852 59 112
f 620 393 611
f 102 743 744
f 112 113 852
f 751 763 762
f 647 785 762
f 805 747 751
f 252 268 254
f 230 835 229
f 487 641 635
f 637 879 467
f 124 851 164
f 809 230 221
f 161 142 176
f 807 732 805
f 247 234 254
f 230 809 835
f 808 700 807
f 345 637 186
f 176 184 191
f 812 694 808
f 204 849 223
f 849 204 191
f 813 688 812
f 635 648 725
f 849 184 198
f 815 613 813
f 815 636 613
f 217 223 849
f 659 191 204
f 217 234 223
f 191 184 849
f 859 480 421
f 795 213 511
f 245 461 243
f 878 865 859
f 802 886 932
f 191 659 867
f 452 718 889
f 223 234 247
f 176 142 184
f 246 254 234
f 865 493 486
f 293 771 357
f 268 247 254
f 771 769 357
f 805 264 735
f 268 252 390
f 161 113 112
f 486 493 488
f 390 252 274
f 867 673 746
f 264 751 279
f 274 277 390
f 746 682 152
f 281 848 287
f 827 433 682
f 808 703 214
f 152 691 109
f 109 852 113
f 476 859 421
f 296 305 277
f 476 595 877
f 305 307 928
f 196 293 292
f 595 476 820
f 726 807 700
f 752 293 357
f 307 328 312
f 310 328 305
f 56 59 852
f 292 752 799
f 328 310 323
f 886 825 824
f 312 337 332
f 807 703 808
f 891 824 782
f 193 292 189
f 844 21 22
f 429 853 409
f 109 697 927
f 56 33 510
f 105 559 553
f 339 337 346
f 346 714 339
f 51 346 347
f 317 926 927
f 564 690 876
f 863 844 232
f 799 868 292
f 510 33 258
f 843 528 529
f 844 863 842
f 861 840 843
f 861 158 347
f 861 860 840
f 752 915 31
f 158 843 842
f 843 158 861
f 842 529 844
f 919 837 906
f 906 232 907
f 809 528 840
f 730 873 918
f 730 856 873
f 873 856 879
f 856 106 385
f 817 634 645
f 837 919 838
f 817 652 816
f 919 906 907
f 919 536 537
f 743 102 361
f 904 669 838
f 898 669 904
f 669 898 38
f 703 807 721
f 405 404 838
f 669 405 838
f 922 833 836
f 294 285 887
f 361 385 402
f 869 645 634
f 830 875 664
f 916 3 1
f 864 51 347
f 402 855 361
f 909 801 914
f 397 890 374
f 48 44 855
f 796 909 77
f 879 637 873
f 901 798 905
f 580 925 397
f 48 402 706
f 896 800 901
f 891 823 896
f 409 62 61
f 853 62 409
f 881 413 417
f 417 62 853
f 86 407 299
f 459 893 882
f 199 891 95
f 830 465 831
f 829 426 417
f 426 829 124
f 426 881 417
f 124 829 827
f 433 829 853
f 886 802 825
f 774 894 883
f 851 124 827
f 164 884 124
f 441 851 436
f 180 164 851
f 443 869 164
f 911 802 932
f 715 830 664
f 874 664 875
f 736 361 360
f 451 180 441
f 457 452 889
f 889 444 457
f 866 817 870
f 106 35 639
f 459 718 452
f 826 452 457
f 452 826 245
f 451 826 457
f 862 819 866
f 858 857 862
f 461 245 826
f 459 882 718
f 479 243 461
f 854 931 858
f 850 925 854
f 846 401 580
f 845 890 850
f 491 848 482
f 848 281 479
f 825 494 883
f 382 508 491
f 900 832 767
f 508 287 848
f 896 823 800
f 839 890 845
f 504 782 824
f 42 374 839
f 516 508 382
f 908 910 318
f 534 524 523
f 552 818 548
f 42 172 173
f 901 800 798
f 818 552 900
f 533 322 531
f 871 175 737
f 868 187 189
f 22 232 844
f 593 822 533
f 822 315 316
f 929 556 330
f 330 315 822
f 838 919 537
f 904 838 537
f 318 860 834
f 908 318 834
f 465 830 715
f 556 342 336
f 105 836 559
f 833 559 836
f 29 44 846
f 908 834 804
f 562 917 828
f 299 836 105
f 818 900 767
f 832 553 559
f 562 832 920
f 811 315 548
f 828 801 821
f 801 828 917
f 821 797 814
f 836 299 903
f 401 590 580
f 797 821 801
f 905 798 796
f 796 814 797
f 810 548 818
f 814 798 806
f 798 814 796
f 909 796 797
f 811 548 810
f 413 587 590
f 404 51 837
f 51 864 837
f 837 838 404
f 909 797 801
f 529 842 843
f 158 842 863
f 232 906 863
f 800 806 798
f 529 528 511
f 794 811 806
f 785 908 804
f 785 647 908
f 859 877 878
f 526 534 794
f 877 571 878
f 571 31 915
f 173 351 42
f 524 783 509
f 350 173 175
f 29 350 871
f 823 526 794
f 783 524 526
f 526 823 782
f 42 351 374
f 841 374 351
f 504 775 783
f 509 783 775
f 782 823 891
f 885 124 884
f 887 757 779
f 914 801 917
f 426 885 881
f 890 397 925
f 825 504 824
f 775 504 883
f 925 587 931
f 587 925 580
f 802 494 825
f 785 279 762
f 494 831 465
f 831 494 802
f 894 287 775
f 590 895 413
f 438 897 576
f 884 164 869
f 762 279 751
f 423 931 587
f 587 413 423
f 931 423 857
f 762 761 647
f 617 820 476
f 595 820 621
f 751 755 763
f 893 459 243
f 751 264 805
f 609 857 423
f 423 881 612
f 662 443 444
f 721 805 735
f 621 584 595
f 857 609 819
f 443 645 869
f 612 885 627
f 636 621 820
f 628 902 584
f 805 721 807
