# avbd fit, rung f60-i16-s600-r1-h60 of Gate 6d (body space, fit phase only)
v -0.005771403 0.665166259 0.034150414
v -0.109160483 0.681910694 0.071672447
v -0.005563341 0.678835332 0.037886687
v -0.001118307 0.921000361 0.069569193
v -0.154364139 0.665135920 0.063350178
v 0.001668268 0.935651898 0.070066407
v -0.005342735 0.705810428 0.044952922
v -0.005377174 0.692241967 0.041996717
v -0.156535149 0.680709004 0.064550869
v 0.145051867 0.909589112 -0.113788307
v -0.174279362 0.675822079 0.056498058
v -0.190497965 0.676025271 0.042580146
v -0.197932929 0.675608993 0.026581898
v -0.173854321 0.661533475 -0.069189429
v 0.013001911 0.626375139 -0.058249194
v -0.156252190 0.656499147 -0.076170750
v 0.028188627 0.626103401 -0.059436847
v -0.138887078 0.655327380 -0.083416425
v -0.121153452 0.658020854 -0.090095267
v 0.194197387 0.634071529 0.022102026
v -0.001586395 0.892295063 0.067211449
v -0.001780013 0.878268838 0.065504864
v -0.102998421 0.652023196 -0.090273693
v -0.089096449 0.657818079 -0.085281156
v 0.096294180 0.814273059 -0.112030089
v -0.074256256 0.665338635 -0.081786670
v -0.126638159 0.873019099 -0.133607313
v -0.139824450 0.832473278 0.065218151
v 0.042598017 0.708257616 -0.087245293
v -0.154228061 0.842222095 0.058874257
v 0.070923425 0.832502961 -0.132025227
v -0.186528519 0.819202602 0.036890063
v 0.089811906 0.781717658 -0.108527139
v -0.202825263 0.665388465 -0.024125582
v 0.075811379 0.772246957 -0.104425132
v -0.152080312 0.883153796 -0.111590639
v -0.169482931 0.888910592 -0.072268590
v 0.012191891 0.786305666 0.061861712
v -0.172456965 0.896509469 -0.054401726
v -0.072138280 0.865461230 -0.147993654
v -0.030033633 0.882237136 0.064949617
v 0.014900604 0.674133182 -0.073987544
v -0.019630756 0.865113258 0.062229585
v 0.064820223 0.712510943 -0.092424355
v -0.040843189 0.866891503 0.060908753
v -0.173981279 0.905470192 -0.037361942
v -0.174732104 0.895027936 -0.020789135
v 0.074691191 0.729622781 -0.098241940
v -0.168833673 0.902302861 -0.002570960
v -0.043217897 0.682221472 0.045663983
v 0.057247616 0.841891766 0.062744960
v -0.063894361 0.682515323 0.053507514
v -0.079333320 0.754089713 0.066702209
v 0.058025099 0.808741868 0.061167531
v -0.084284492 0.681367278 0.061610460
v 0.103971757 0.794268250 -0.112782001
v -0.103000820 0.751410127 0.074392356
v -0.173387319 0.756820440 0.063853800
v 0.119500354 0.807351947 -0.116362751
v -0.200672150 0.752592325 0.034738980
v 0.085542262 0.715661049 -0.098292276
v 0.105079547 0.712905109 -0.104500033
v -0.196917966 0.826651573 0.018640954
v -0.193804234 0.844730258 0.015959829
v -0.209678292 0.743832827 -0.029908825
v -0.198626131 0.735641897 -0.052721161
v -0.187785462 0.743502915 -0.069299929
v 0.006670982 0.661911011 0.040796325
v 0.010933106 0.652953982 0.030631324
v -0.171994299 0.730384409 -0.083079264
v 0.025597820 0.652508497 0.033328425
v -0.116762266 0.732984364 -0.110563815
v 0.039646875 0.651416600 0.038218644
v -0.017607413 0.757068753 -0.095541209
v 0.053301692 0.650212109 0.044050202
v -0.091403052 0.868721306 -0.146330625
v 0.066186711 0.648827851 0.051274382
v -0.108568147 0.872473896 -0.140413016
v 0.079645149 0.647613764 0.057081323
v -0.116443142 0.860031903 -0.135731220
v 0.093021467 0.646367431 0.062766217
v -0.134720802 0.888700366 -0.127461284
v 0.106325708 0.645052433 0.068104282
v -0.170725852 0.859265506 -0.090109333
v 0.119277380 0.643638492 0.073290065
v 0.043642499 0.776646197 0.057595421
v -0.137695864 0.902613163 0.031795677
v -0.121363714 0.806661248 -0.116548851
v -0.158425808 0.707171142 0.065740027
v 0.132838219 0.642294168 0.070872478
v -0.140135556 0.815360188 -0.108720943
v -0.019787043 0.829325020 0.057079844
v 0.145543143 0.641697764 0.065064594
v -0.040211894 0.832451642 0.059623599
v 0.158165306 0.640607834 0.059245665
v -0.026339043 0.848044276 0.057244271
v 0.170562506 0.639149964 0.053590178
v -0.019481646 0.897200704 0.067009456
v 0.182200849 0.637365639 0.046213403
v -0.059348244 0.879645824 -0.148523211
v 0.188166827 0.635923684 0.034096949
v 0.028290564 0.757715881 -0.096478269
v -0.083533421 0.851567268 -0.143884614
v -0.110247150 0.718360782 0.074981220
v 0.036012046 0.759707153 0.059690543
v 0.058842398 0.772308350 -0.101069964
v -0.114287712 0.844835401 -0.132191524
v -0.141468972 0.704837620 0.072348014
v 0.131576926 0.771813214 -0.109749913
v -0.125901327 0.840544999 -0.118399359
v 0.134460762 0.817692757 -0.110655405
v 0.143756658 0.802055717 -0.106428400
v 0.145965308 0.783846498 -0.104373254
v -0.165155739 0.722965121 0.064627334
v -0.140796781 0.833925068 -0.107469022
v 0.197584465 0.632043958 0.008974821
v 0.197520643 0.630295575 -0.003638761
v -0.196545273 0.711766183 0.039290816
v 0.151109576 0.819154859 -0.103582129
v -0.156958073 0.845941901 -0.099372551
v -0.182849437 0.851782799 -0.072260424
v -0.184872061 0.865025818 -0.059136014
v -0.052794687 0.827860355 -0.126202554
v 0.159610242 0.712371230 -0.084890477
v -0.168713376 0.865482509 0.033343129
v -0.185737103 0.861499429 0.014138782
v -0.121671356 0.859024167 0.059704751
v -0.132206768 0.872793794 0.051387511
v 0.197497189 0.628755510 -0.017160567
v -0.018043000 0.823070884 -0.115333214
v 0.194065705 0.627021968 -0.030654585
v -0.036991429 0.819795310 -0.114890955
v 0.186539337 0.625599980 -0.042329513
v -0.023204984 0.715687573 -0.086607903
v 0.178902641 0.623921454 -0.054080289
v -0.107395589 0.907775283 0.049845684
v 0.168901712 0.622350931 -0.064889438
v -0.088431969 0.903452396 0.058097500
v 0.155304074 0.621355712 -0.069227308
v -0.019186359 0.810058773 -0.105313137
v 0.141592711 0.620216370 -0.073580287
v 0.165787205 0.811264396 -0.096923783
v -0.020801501 0.794165075 -0.099454969
v 0.128718227 0.619720817 -0.077757053
v -0.039786588 0.806089282 -0.104610182
v -0.178314358 0.820032775 -0.090229742
v 0.115027927 0.619347453 -0.082097352
v -0.140723988 0.919609249 0.027729433
v 0.099757284 0.620231986 -0.079612657
v -0.027442530 0.737245560 -0.091557369
v 0.086202011 0.621905327 -0.073818728
v 0.147454694 0.767702520 -0.101391852
v 0.072181329 0.623379171 -0.068827614
v -0.101380453 0.771261811 -0.111653470
v 0.057755034 0.624523759 -0.064871445
v -0.062646464 0.700708091 -0.088565037
v 0.043125059 0.625500441 -0.061557818
v 0.048359174 0.871093631 0.062205583
v -0.185589015 0.793306947 -0.080095202
v -0.203952715 0.674085736 -0.005192015
v 0.162852347 0.792871594 -0.097665355
v -0.203628063 0.816120327 -0.036106382
v -0.209012270 0.785788953 -0.023242708
v 0.179837823 0.708138824 -0.071739018
v -0.208421558 0.772227168 -0.041001566
v -0.002149645 0.652781188 -0.066099629
v 0.017110379 0.641889930 -0.063542306
v -0.002324286 0.639563918 -0.061953086
v -0.001881695 0.665840030 -0.070569262
v 0.167330578 0.832418919 -0.096162304
v -0.196857944 0.773718953 -0.058870338
v -0.001654642 0.678864837 -0.075058706
v -0.001439616 0.692067742 -0.079000488
v -0.210677460 0.774798334 -0.002357294
v -0.001135069 0.705325782 -0.082710899
v 0.179578096 0.801484227 -0.088856742
v -0.173648387 0.765169263 -0.088966735
v -0.111197293 0.638018072 -0.087957434
v -0.203732699 0.786109567 0.023491524
v 0.190603390 0.724668205 -0.060618430
v -0.198593065 0.770095289 0.034377590
v -0.088010132 0.757276177 -0.106120825
v -0.074500367 0.744865417 -0.101322770
v 0.183202013 0.818797112 -0.081974111
v -0.041708313 0.789057791 -0.100289807
v 0.001723669 0.800457776 -0.100460090
v 0.001923239 0.813041687 -0.106527507
v -0.099848971 0.888599753 0.053433746
v 0.002124379 0.823977172 -0.115146972
v -0.119435027 0.883443058 0.048909415
v 0.189829916 0.799313188 -0.072383866
v -0.108219340 0.871033013 0.053993482
v 0.002304085 0.833639026 -0.125115946
v -0.121125773 0.898050666 0.043066889
v -0.157351121 0.781043470 0.069171153
v 0.002478308 0.844175041 -0.134023488
v -0.113728449 0.923897445 0.045700174
v 0.185424313 0.840162933 -0.072205961
v 0.167920619 0.655905843 0.056942947
v 0.002656435 0.857063413 -0.138750941
v -0.126331836 0.914774776 0.039768506
v 0.002835565 0.870606601 -0.141338482
v -0.153298348 0.877953410 0.043424007
v 0.201055139 0.795928538 -0.054384924
v -0.151346356 0.891440749 0.028235171
v -0.206121117 0.816479981 -0.000272611
v 0.003038339 0.884443939 -0.142193407
v -0.150634423 0.922877192 0.012840569
v -0.153044179 0.905705571 0.014476377
v -0.162054226 0.918392062 -0.003153482
v -0.137979537 0.775566518 0.074879877
v 0.030538226 0.934280574 0.069105074
v 0.015686620 0.934457004 0.070119515
v 0.190584496 0.857371151 -0.053064920
v -0.001352846 0.906512439 0.068736956
v -0.170913950 0.913016796 -0.020632861
v 0.199017227 0.835443497 -0.048195437
v -0.172831297 0.913221955 -0.053332448
v -0.172219053 0.907606602 -0.070233680
v -0.071693227 0.683331847 -0.086592510
v 0.045470718 0.934278011 0.067841366
v 0.196390063 0.850240231 -0.031534690
v 0.204280585 0.812384248 -0.035914671
v -0.166045904 0.902038455 -0.086086579
v -0.145440176 0.899128616 -0.116151653
v -0.116097689 0.888177514 -0.137270093
v -0.142286703 0.851675987 -0.112290643
v -0.101278722 0.686065674 -0.098356441
v 0.074815325 0.934572339 0.061181106
v 0.060207359 0.934434712 0.064796999
v -0.094655156 0.838628411 -0.136392385
v -0.002016454 0.864336848 0.062985405
v -0.101142883 0.855573356 -0.140294477
v 0.201386720 0.831072628 -0.024171222
v -0.119926944 0.678542316 -0.095213510
v 0.089220613 0.934627533 0.056767069
v -0.027526367 0.749820471 0.057488013
v -0.029014027 0.668592811 0.036979731
v 0.192514017 0.860939801 -0.015967276
v -0.194778293 0.851328552 -0.047994409
v -0.040010981 0.708832800 0.049331795
v 0.102874264 0.934432387 0.050637353
v 0.210141823 0.736223102 0.006673133
v -0.052161634 0.666674435 0.044921942
v 0.209684163 0.734104693 -0.011895735
v 0.199388474 0.845966935 -0.009079108
v 0.205666110 0.813944817 -0.010550030
v -0.056521446 0.718896985 0.055222314
v -0.074360959 0.665603042 0.056290567
v -0.096182302 0.665912628 0.065138705
v -0.092843518 0.710438371 0.067521706
v 0.195077613 0.839586437 0.016616676
v -0.094033062 0.695026040 0.066773489
v 0.202843145 0.830286324 -0.003155595
v -0.051036142 0.850986481 0.059139252
v 0.092069373 0.866601646 0.056892313
v -0.110057935 0.701322675 0.073617861
v 0.070729002 0.785663366 -0.104534589
v -0.117027268 0.663440287 0.073369280
v -0.199423462 0.705666125 -0.045610756
v -0.127630204 0.710983813 0.078069121
v -0.135864437 0.676688194 0.072618738
v 0.063453294 0.798884869 -0.105070993
v 0.164806873 0.885344207 0.021421839
v -0.128765732 0.693551183 0.076909535
v -0.205245852 0.693021894 -0.035122510
v -0.138546318 0.659640849 0.069666699
v 0.202829629 0.819263101 0.013525871
v 0.198458269 0.806041062 0.025425065
v -0.136256814 0.887724519 0.041471265
v -0.147749469 0.692497611 0.069362208
v -0.168828458 0.658240259 0.056392211
v 0.182143420 0.855524540 0.024133045
v 0.181198448 0.838180661 0.037098650
v -0.178646982 0.709245980 0.058381360
v -0.168438539 0.693359315 0.061218847
v 0.177553907 0.821552098 0.050183825
v -0.184771851 0.659776568 0.048428405
v 0.147019342 0.890790641 0.034555607
v -0.188210770 0.692788720 0.052172191
v 0.203881294 0.733871520 0.027154500
v -0.047426999 0.935355783 0.067382231
v -0.197763115 0.691795468 0.032827135
v -0.022854840 0.916052163 0.068477005
v 0.169674650 0.853258908 0.042061798
v -0.164029449 0.880747497 0.026949968
v 0.194150001 0.730527759 0.046482988
v -0.165399283 0.890892804 0.012472549
v -0.205127507 0.684265971 0.014032829
v 0.171429351 0.805843055 0.062318973
v -0.176705703 0.876598716 0.013520174
v 0.024883330 0.832218766 -0.124800757
v 0.025947031 0.846686065 -0.136498600
v 0.153976694 0.851780236 0.055682659
v -0.021579327 0.883346856 -0.143251553
v 0.166676149 0.837769389 0.057339858
v -0.206068829 0.702840567 0.018067542
v -0.016192580 0.865655601 -0.141159788
v 0.022866247 0.774448693 0.054519486
v -0.017564040 0.663913608 -0.070027426
v -0.036521044 0.869984925 -0.143615350
v 0.136025444 0.859088898 0.056839358
v -0.041547216 0.886265099 -0.145382509
v -0.180432707 0.888021290 -0.003031848
v 0.153521538 0.819600284 0.064891249
v -0.188886404 0.870953560 -0.004571600
v 0.136706859 0.805296779 0.071988627
v -0.186344415 0.870813012 -0.040800408
v -0.192011014 0.861028016 -0.024393599
v 0.141321510 0.840579867 0.062869474
v -0.184018806 0.878724396 -0.021995351
v 0.117055774 0.812979579 0.076086476
v -0.201191664 0.654423118 -0.009065738
v -0.206482366 0.692216933 -0.001477677
v 0.100317143 0.734984696 0.072779104
v 0.119664766 0.733030081 0.080324948
v 0.102661654 0.751461983 -0.109396838
v 0.087474123 0.913652420 0.058740932
v -0.021864563 0.708082378 0.046054311
v 0.115951084 0.934282780 0.044499129
v -0.179715991 0.880852699 -0.057407759
v 0.129987627 0.748794734 0.078198865
v 0.114452101 0.850020051 0.065294705
v -0.207333162 0.698299050 -0.016572064
v -0.174651682 0.870982528 -0.074433342
v 0.128325462 0.934023023 0.038585648
v -0.156714261 0.864584088 -0.105312839
v 0.129007846 0.826735198 0.069761112
v -0.060495980 0.785119474 -0.102655806
v 0.089971505 0.752214134 0.069771297
v -0.199379772 0.648200870 -0.029588068
v 0.095452778 0.813724339 0.073971801
v -0.205231816 0.682648659 -0.020277070
v -0.192670316 0.687491715 -0.050858937
v -0.189116940 0.643120646 -0.044295035
v 0.069796644 0.749184489 0.064069591
v 0.106044672 0.831507027 0.073173031
v -0.062774092 0.757832825 -0.100777462
v 0.086052164 0.826111674 0.068994105
v -0.193783164 0.658959508 -0.042102795
v -0.185167924 0.699447215 -0.063054733
v 0.056006491 0.762204766 0.062988237
v -0.076567605 0.773125887 -0.105041400
v -0.180576116 0.648117304 -0.058914296
v 0.021434126 0.804166675 -0.102149725
v 0.084421344 0.845786273 0.067191586
v 0.066986918 0.859925628 0.058843452
v -0.180176184 0.680868983 -0.065916136
v 0.137900203 0.933173954 0.027220225
v 0.021267708 0.700065017 -0.082047515
v 0.022536419 0.686049938 -0.078297116
v -0.164139882 0.642983317 -0.070799157
v 0.146946892 0.932123363 0.015925827
v -0.124725044 0.773540616 -0.113243952
v 0.155498609 0.930833340 0.004466203
v -0.151155025 0.684390187 -0.082591310
v 0.047261633 0.853422761 -0.141147852
v -0.164102390 0.674501598 -0.075376496
v 0.163761288 0.929656148 -0.007045054
v 0.035061665 0.723960042 -0.089921258
v 0.038299158 0.741074920 -0.093515567
v -0.137892216 0.761784673 -0.105314374
v 0.168854505 0.927987874 -0.020411156
v -0.142835766 0.778447986 -0.105802178
v -0.098995849 0.886318803 -0.143958002
v -0.042334579 0.902176201 0.066178851
v 0.171535701 0.925734222 -0.034289528
v -0.145425811 0.639650464 -0.076956071
v -0.157207340 0.771639228 -0.097945727
v -0.149090350 0.668815553 -0.081054464
v -0.142502785 0.869315028 -0.121289492
v 0.170703590 0.923357785 -0.047615409
v -0.173503861 0.782373309 -0.092169479
v 0.034985531 0.673330665 -0.075618565
v -0.127746761 0.640224457 -0.083039075
v -0.186632797 0.777559400 -0.075689808
v 0.169958621 0.921110451 -0.061839856
v -0.129064277 0.855998158 -0.125243247
v 0.166500956 0.918412864 -0.075937912
v -0.196428999 0.794230580 -0.062630013
v -0.135132238 0.672874331 -0.087686226
v 0.178987890 0.765869439 0.062882051
v 0.161226332 0.915600002 -0.089355119
v -0.205542803 0.785656333 -0.047700755
v 0.049023580 0.757115602 -0.098658189
v -0.093797423 0.639977217 -0.082729109
v -0.019327877 0.647173285 -0.064674422
v 0.154374331 0.912793279 -0.102531515
v -0.206170171 0.801172912 -0.040798724
v 0.189853281 0.821412861 0.031305354
v -0.022123503 0.735443711 0.051385321
v 0.135593742 0.906778514 -0.125067472
v 0.188132346 0.801747918 0.044387333
v -0.069027551 0.805590749 0.064762622
v -0.103054963 0.667891085 -0.094536975
v -0.075740434 0.645556390 -0.075779460
v 0.055479877 0.675936639 -0.080258243
v -0.087370574 0.675772488 -0.090331413
v -0.057899170 0.659277081 -0.074573755
v -0.055846959 0.642361879 -0.068416514
v 0.076532021 0.699307263 -0.092351928
v 0.061181635 0.742977858 -0.097721659
v -0.190285563 0.782803237 0.047724850
v 0.045861486 0.823352993 0.058760352
v 0.037300836 0.805861175 0.057688337
v -0.189586490 0.801379323 0.042045724
v 0.030493561 0.789407730 0.063400052
v -0.024631921 0.775133014 -0.097394951
v 0.098779678 0.731610537 -0.106278442
v -0.175805718 0.814210594 0.056980718
v -0.055568624 0.687048078 -0.083043389
v -0.060836911 0.673808575 -0.080517903
v 0.107227981 0.690934062 -0.100907192
v -0.171510264 0.795015812 0.063585006
v -0.037318658 0.658487916 -0.069943592
v 0.123852752 0.904194951 -0.132864624
v 0.124592602 0.707967281 -0.100655332
v -0.044606920 0.675205708 -0.077247366
v -0.151903436 0.807653785 0.066902205
v -0.039532866 0.698136926 -0.083001919
v 0.110618450 0.901938081 -0.138641313
v -0.025855947 0.679042459 -0.075942911
v 0.116815887 0.671597779 -0.094910815
v -0.202770323 0.667120278 0.011294306
v -0.193443447 0.659109712 0.030402269
v 0.140461951 0.705821037 -0.092784807
v -0.143195823 0.791907072 0.071589336
v -0.127075478 0.802675605 0.074532278
v 0.121893086 0.742102206 -0.109424070
v -0.074246630 0.854201913 0.061446022
v -0.062199064 0.936016858 0.064032257
v -0.117191114 0.784024894 0.079315297
v 0.140716285 0.738261402 -0.099626832
v -0.103501700 0.799122512 0.076908141
v -0.085658103 0.841021717 0.067858055
v 0.175338745 0.745652437 -0.084005162
v -0.091077164 0.783912778 0.071199715
v 0.113356888 0.841529846 -0.131082416
v -0.076449558 0.823197722 0.064765543
v -0.098401129 0.828786552 0.074136719
v 0.188915417 0.741814137 -0.066803187
v -0.090897679 0.812412739 0.071136117
v 0.186430812 0.695143163 -0.059979297
v 0.194016397 0.708369136 -0.052578740
v -0.084679894 0.797860563 0.069922283
v -0.068559177 0.787721574 0.067602605
v -0.113337144 0.816281617 0.075977668
v -0.027744036 0.798778296 0.060969453
v -0.120986924 0.831110954 0.069731139
v -0.109742738 0.844634533 0.067992344
v 0.201173693 0.740601420 -0.049632855
v 0.208602592 0.719712615 -0.023325792
v -0.062564574 0.836204708 0.063600644
v -0.134894311 0.818412960 0.069815151
v -0.044225357 0.737225235 0.055313073
v -0.132550701 0.845625997 0.062513426
v 0.203157619 0.722721219 -0.043345846
v -0.148284212 0.859696865 0.053313266
v 0.208875731 0.719460905 -0.003814870
v -0.173681095 0.831782043 0.050543778
v 0.210560605 0.754520059 -0.009741663
v -0.155968264 0.824251652 0.062899873
v -0.063362390 0.869231522 0.059575301
v -0.169564813 0.849463820 0.044998400
v 0.205626220 0.687147558 0.001446020
v -0.066629149 0.901615739 0.062699564
v 0.001419804 0.772782564 -0.096281521
v -0.061857514 0.918247879 0.064331569
v -0.180527225 0.851914704 0.028730238
v -0.200244978 0.807447076 0.021460975
v -0.043630544 0.920965075 0.067637935
v 0.001579674 0.786759138 -0.097585566
v -0.091117129 0.937018096 0.055180330
v -0.210213855 0.795922637 0.000158482
v 0.076993659 0.821273804 -0.121522725
v 0.117394924 0.876452327 -0.136927634
v -0.196735978 0.854055762 -0.004720304
v -0.076860540 0.936601996 0.060270458
v 0.209600836 0.754167914 0.017045831
v 0.096753284 0.900235832 -0.144635051
v -0.178284392 0.887650847 -0.038567953
v 0.201703027 0.768679082 0.029338244
v -0.206770182 0.806180358 -0.019355187
v -0.202821881 0.825285733 -0.020256530
v -0.199192509 0.843297362 -0.024360541
v 0.081422791 0.899045646 -0.147678718
v 0.209837720 0.799851179 0.007043428
v 0.065874487 0.898476958 -0.148259088
v -0.086264744 0.870981991 0.056829177
v -0.012645533 0.847879589 -0.136615515
v 0.193248242 0.762533188 0.046955593
v 0.050691228 0.898212731 -0.146106660
v 0.060158093 0.884824276 -0.148044169
v 0.199788556 0.682776332 0.025515029
v -0.080568179 0.919009328 0.060770087
v -0.016821457 0.834995449 -0.127017274
v -0.198370725 0.814448833 -0.056279909
v -0.165444985 0.880962729 -0.092424050
v -0.097308151 0.858013749 0.063553587
v 0.035052776 0.898295224 -0.143932849
v -0.188162476 0.810113728 -0.074986674
v 0.019387761 0.898284435 -0.141485363
v -0.157541528 0.808053792 -0.101021647
v 0.180039316 0.691944838 0.056824081
v -0.174432218 0.800983787 -0.093397781
v 0.019028910 0.887314320 -0.142678231
v 0.003242891 0.898271918 -0.140249282
v 0.187370479 0.746178627 0.059230149
v 0.176137969 0.727607965 0.061704624
v 0.083337188 0.798513949 -0.108254038
v 0.016509194 0.910900712 0.068479337
v -0.159115329 0.827008605 -0.100679040
v -0.157306239 0.789830387 -0.100390829
v -0.157974660 0.899185300 -0.102692582
v 0.068263695 0.812541127 -0.109950706
v 0.164305180 0.747037292 0.067338154
v -0.137220725 0.795050561 -0.109408081
v -0.046788074 0.626561880 -0.061986636
v -0.102670945 0.800434232 -0.113035932
v -0.060947340 0.625898480 -0.065610394
v -0.074843459 0.625002146 -0.070028007
v -0.113387004 0.788366914 -0.115579270
v 0.142868429 0.737447083 0.074382529
v 0.155319557 0.722929120 0.068613321
v -0.088196822 0.623705089 -0.075671837
v 0.147050202 0.702414811 0.070438258
v -0.107023701 0.831898093 -0.122802034
v 0.037339509 0.905175209 0.067081526
v 0.023089254 0.893667996 0.066550478
v -0.101351418 0.622324109 -0.081435665
v 0.145894974 0.758363605 0.072911836
v -0.100641884 0.816954792 -0.113396272
v 0.128690392 0.763780475 0.078246288
v 0.133763403 0.717757344 0.076254591
v -0.116271734 0.622076035 -0.082522802
v -0.002459995 0.837773800 0.057183117
v -0.002645422 0.824155629 0.055482615
v -0.085139491 0.802384555 -0.109404489
v -0.129651383 0.622899950 -0.078332931
v -0.072428413 0.835516572 -0.135433182
v -0.093003213 0.786831379 -0.110023752
v -0.142293662 0.623660207 -0.074333355
v -0.155649155 0.625084102 -0.070205010
v -0.168980941 0.626273394 -0.066047780
v -0.051338434 0.815106213 0.057566572
v -0.026909065 0.814638436 0.053755831
v 0.083137512 0.737960815 0.066551924
v 0.085819304 0.721702039 0.066085160
v -0.178863660 0.628085196 -0.055801384
v -0.186420828 0.630030036 -0.044363655
v -0.029744575 0.766341448 0.055031758
v 0.068216272 0.731739879 0.061130919
v 0.049432360 0.743527055 0.058608867
v -0.193839058 0.631739020 -0.033079386
v -0.069222279 0.823990703 -0.123378173
v 0.076094076 0.765528858 0.067377396
v -0.198306173 0.633496821 -0.020463379
v -0.053156309 0.756128967 0.060579777
v 0.028168043 0.743213892 0.055266969
v -0.032428615 0.722262263 0.050698020
v -0.087737456 0.823807597 -0.126692832
v 0.024736593 0.706405282 0.047686536
v -0.066092320 0.738172650 0.060525466
v 0.068926916 0.795226216 0.069128223
v -0.032272033 0.695601881 0.045854412
v -0.053252447 0.698062062 0.051669382
v -0.050873291 0.841342151 -0.137362570
v -0.065991238 0.849785984 -0.144214481
v -0.073162869 0.770975232 0.064893514
v -0.052044641 0.859541297 -0.143989697
v 0.091042511 0.843163669 -0.139503628
v -0.198393419 0.635281622 -0.007082802
v 0.082493000 0.781932056 0.068124160
v -0.074045636 0.701385915 0.059305478
v -0.096790597 0.767865777 0.072861873
v 0.096725322 0.827399909 -0.127291411
v -0.077527083 0.721891761 0.062350523
v -0.087739319 0.738615155 0.067451835
v -0.076369219 0.886400580 0.060282964
v 0.074072033 0.680996656 -0.086822741
v -0.052925657 0.885091424 0.062710904
v 0.100283429 0.785426855 0.075606383
v -0.095347568 0.725097060 0.069617555
v 0.131339923 0.844641566 -0.117800072
v -0.198464245 0.636875451 0.005420115
v -0.028394584 0.781903625 0.060647290
v 0.093397051 0.672836065 -0.091437623
v -0.191271007 0.640784025 0.029302070
v -0.129128441 0.746163726 0.078186676
v 0.088775650 0.688602924 -0.094070598
v -0.185369998 0.642340541 0.041266624
v -0.109038413 0.735177755 0.075698569
v 0.114945032 0.774875343 0.080674589
v 0.120810673 0.793102086 0.077651992
v 0.125309974 0.858391404 -0.129898787
v -0.178920656 0.643644691 0.053038843
v -0.119712673 0.764452577 0.080584191
v -0.165708691 0.644742727 0.055867326
v -0.129223853 0.727944970 0.078130633
v -0.153311044 0.645528913 0.061524987
v -0.140847474 0.645801663 0.067254052
v -0.138904035 0.760514557 0.074682154
v -0.148724437 0.734527707 0.071710482
v -0.129158899 0.646609664 0.072681114
v 0.138587877 0.781091750 0.074497871
v -0.153206199 0.750362992 0.070321880
v -0.115099087 0.647402704 0.071305372
v -0.102017209 0.648276210 0.066085726
v 0.135056779 0.666964173 -0.086468048
v -0.156475142 0.766089559 0.069280706
v 0.176379085 0.786796331 0.064078107
v 0.134999231 0.680613160 -0.088522904
v 0.153003722 0.893539548 -0.108763538
v -0.088789076 0.648990512 0.060794204
v -0.145183638 0.718961418 0.071455397
v -0.075532794 0.649615347 0.055097252
v 0.127979204 0.890598655 -0.131828755
v -0.062223058 0.650292695 0.048997302
v -0.049747657 0.651157260 0.041521467
v 0.191590816 0.780182719 0.045852344
v 0.142188668 0.859889984 -0.117411114
v -0.036588140 0.651959062 0.035136353
v -0.022625288 0.652178168 0.031046340
v -0.174998909 0.774692416 0.063700542
v -0.019060032 0.661439836 0.041038804
v -0.170341253 0.739572704 0.064454377
v 0.149907961 0.677264988 -0.081450477
v 0.151426584 0.847364545 -0.103596509
v 0.201727599 0.787956297 0.027183335
v -0.190882042 0.764259517 0.051153779
v -0.187238678 0.726566136 0.056785665
v -0.191539213 0.745254219 0.053458162
v -0.039257243 0.755995452 -0.097010836
v 0.166443974 0.673928618 -0.073725075
v 0.209088117 0.794147789 -0.013871570
v 0.149103135 0.876693428 -0.115656510
v 0.015938196 0.788457155 -0.098228529
v -0.049593065 0.771996140 -0.099937007
v 0.069371067 0.758235037 -0.102059998
v -0.050678678 0.776149094 0.060549427
v 0.210699037 0.775829434 0.004693785
v -0.199288726 0.732997537 0.036165662
v -0.208705857 0.763276875 0.017177504
v -0.184148505 0.836563408 0.033199482
v 0.183051690 0.678308904 -0.061109133
v -0.207566589 0.722329497 0.017575987
v 0.120641962 0.913680673 0.043154284
v 0.209673136 0.774263084 -0.021208383
v -0.209693953 0.742281854 0.015824864
v -0.210856155 0.752599120 -0.005800862
v -0.210087374 0.763671279 -0.024082879
v 0.192923188 0.671245933 -0.046666540
v 0.209620044 0.757604539 -0.034999415
v -0.208305001 0.710904002 -0.002204838
v -0.202032328 0.835502326 -0.002684950
v 0.156894475 0.863233387 -0.102744602
v -0.032436423 0.934839129 0.068870641
v 0.205229253 0.775389612 -0.047009073
v 0.191687390 0.777517021 -0.066760153
v -0.076996073 0.815998375 -0.112996161
v -0.055958830 0.815966010 -0.113716029
v 0.195915371 0.689669251 -0.046360873
v -0.209709018 0.730558753 -0.009446861
v 0.201054811 0.663302481 -0.031234497
v 0.198317736 0.758738220 -0.055759013
v -0.012988414 0.898774326 -0.140318498
v -0.028972704 0.899158359 -0.141909078
v 0.171649277 0.852629304 -0.090676047
v 0.016723979 0.801859498 0.056590237
v -0.044404827 0.899568677 -0.145527035
v -0.049033053 0.794714928 0.064845897
v 0.186654955 0.758132935 -0.071391568
v 0.177779675 0.765286803 -0.086158909
v -0.059825681 0.900061011 -0.147596151
v 0.166315123 0.871088862 -0.087500349
v -0.208226606 0.711742520 -0.024370983
v -0.075438268 0.900836289 -0.148343518
v -0.080841929 0.883342087 -0.148273572
v -0.200259253 0.831767559 -0.043392885
v -0.090907224 0.902056336 -0.146968111
v -0.104811668 0.903947532 -0.141209036
v 0.157821268 0.753517747 -0.093838319
v -0.201929376 0.755195081 -0.051526587
v -0.189523026 0.831579328 -0.068106703
v -0.176363319 0.839750111 -0.088664815
v -0.207476348 0.724430442 -0.038482409
v 0.178682521 0.863873184 -0.071392603
v 0.167276248 0.901884675 -0.083233699
v -0.199294776 0.675883412 -0.038926158
v 0.049701519 0.792524099 0.065892704
v 0.137452364 0.754509330 -0.103895143
v -0.061932296 0.802059174 -0.105325326
v -0.187141255 0.760584474 -0.071460739
v 0.173224330 0.900264621 -0.066922948
v -0.075648487 0.789928973 -0.106090859
v -0.186870217 0.668851435 -0.054770105
v 0.121718183 0.758387208 -0.112194635
v -0.192276150 0.717029512 -0.057225633
v -0.174440622 0.711543560 -0.077885196
v 0.173605651 0.901376545 -0.049098078
v -0.185640484 0.727480054 -0.068632454
v -0.173039317 0.747940242 -0.086116984
v 0.187189415 0.869938970 -0.032983795
v -0.169115633 0.692384839 -0.076472588
v -0.018572841 0.695742548 -0.080255002
v 0.083245382 0.745832801 -0.103170231
v -0.117916740 0.906510711 -0.135170832
v -0.130249426 0.909413934 -0.128824696
v -0.155085608 0.754394650 -0.095810816
v -0.154308796 0.736878574 -0.093210533
v -0.154742688 0.719168186 -0.089252047
v -0.154050589 0.701467395 -0.085851893
v -0.123147443 0.824011922 -0.115687929
v 0.067306638 0.826268196 0.063589841
v 0.205399513 0.683761299 -0.025696930
v -0.149997801 0.915375233 -0.106664136
v -0.158094615 0.918580711 -0.094255544
v 0.207578510 0.702287972 -0.014549178
v -0.002430802 0.626268268 -0.057871819
v -0.163526595 0.921344757 -0.080748260
v 0.185551718 0.876757026 -0.010326097
v -0.168336958 0.924234092 -0.067166358
v -0.169082627 0.926590741 -0.052893627
v -0.170466930 0.929345787 -0.039624482
v 0.207825020 0.790704191 -0.034343794
v 0.173864648 0.908673882 -0.035236139
v -0.168856829 0.931818128 -0.025321502
v -0.165016174 0.933781981 -0.011275569
v -0.156594679 0.934952736 0.000631577
v 0.051558070 0.787902713 -0.101438068
v -0.148196906 0.935853839 0.012504548
v 0.171540946 0.907306015 -0.019138938
v -0.139309436 0.936748505 0.024179177
v -0.135856122 0.690710723 -0.091243297
v 0.179434001 0.874297738 0.012249937
v 0.018443238 0.729409814 -0.089386389
v -0.000731138 0.718371153 -0.087064005
v -0.000283629 0.731977463 -0.089243650
v 0.141789451 0.891712368 -0.121193096
v -0.136532605 0.708240926 -0.095646441
v 0.000508361 0.745401978 -0.092467763
v -0.135518864 0.744131207 -0.103519879
v 0.017015871 0.744606912 -0.092566885
v 0.001027758 0.758882046 -0.095489964
v -0.130356178 0.937465012 0.036004242
v 0.163176373 0.774827719 -0.095148146
v 0.163346529 0.910428226 -0.003778168
v -0.119381092 0.696617186 -0.100318573
v -0.117829800 0.937426448 0.042445749
v -0.104837298 0.937258542 0.048957102
v 0.154969379 0.900914669 0.015654577
v 0.047416069 0.837710559 -0.132914543
v -0.136119381 0.726045549 -0.099928752
v -0.113116108 0.753651917 -0.113197446
v 0.154961303 0.917930305 0.008618863
v -0.118391231 0.714355767 -0.105535090
v 0.169279993 0.868457496 0.030527785
v -0.098710380 0.704201818 -0.101045057
v -0.003788354 0.784522891 0.060952365
v -0.097661570 0.921037018 0.053663708
v 0.135363221 0.920374751 0.034803290
v 0.137357637 0.904958844 0.032935426
v 0.145329624 0.917383552 0.022366505
v -0.083478853 0.694171548 -0.093723908
v -0.095886104 0.722000182 -0.103577174
v -0.077858865 0.711803317 -0.095243528
v 0.044849750 0.713601530 0.052840877
v -0.094376087 0.739949584 -0.106277466
v 0.051000267 0.869417191 -0.146013290
v -0.073752962 0.729069948 -0.097854629
v 0.027882969 0.862819850 -0.141697481
v -0.035226174 0.832787812 -0.127280548
v -0.032357723 0.849932492 -0.138928697
v 0.204180807 0.700445533 0.022041004
v 0.188887462 0.711296022 0.054164648
v -0.049835939 0.719303787 -0.090566814
v -0.053354092 0.740049899 -0.095912740
v -0.140624255 0.912184238 -0.117881790
v 0.157180354 0.878591359 0.038082726
v 0.138911933 0.877109230 0.048554227
v -0.200530127 0.651660144 0.011345117
v 0.159999162 0.686802328 0.064381078
v 0.167509764 0.707233667 0.062689185
v -0.199437857 0.639308095 0.018686455
v 0.124636970 0.891826153 0.044394471
v -0.035859879 0.640584171 -0.064087495
v -0.032260641 0.626764894 -0.059761394
v 0.012322238 0.690253258 0.041992947
v -0.017529380 0.626725793 -0.058283091
v -0.006066780 0.931841075 0.078024805
v 0.066656023 0.860978901 -0.146811128
v -0.017526921 0.934408665 0.069888249
v -0.023615995 0.683134854 0.041267104
v 0.125932127 0.698218226 0.078395233
v 0.032316521 0.920715809 0.068403266
v 0.079078093 0.666017115 0.058646761
v 0.068672769 0.678686380 0.055456750
v 0.099348225 0.674855232 0.067654982
v 0.050242446 0.822497487 -0.120013937
v 0.118423678 0.678511739 0.075756021
v 0.051821344 0.681739569 0.049073633
v 0.194537774 0.665458560 0.030404145
v 0.118594214 0.870006740 0.054858126
v 0.106129967 0.884022892 0.053166132
v 0.174626067 0.893558800 0.000271474
v 0.103867456 0.693200231 0.071112908
v 0.177825958 0.889282227 -0.028605897
v 0.180900991 0.880764782 -0.053159721
v 0.050160557 0.918376327 0.066516899
v 0.086322963 0.703719974 0.064914741
v 0.107482754 0.714312911 0.074165590
v 0.170054272 0.883488059 -0.074158505
v 0.164099544 0.890007198 -0.093238905
v 0.084770218 0.685529709 0.062639639
v 0.159488082 0.878748536 -0.102617525
v 0.189071074 0.653268754 -0.047112770
v 0.175521195 0.657814264 -0.066779748
v 0.066038907 0.712655425 0.058419656
v 0.149645180 0.656595170 -0.078579955
v 0.134823620 0.875078797 -0.127275586
v 0.067850485 0.694569588 0.056573380
v 0.109412052 0.753322959 0.077694789
v 0.140285447 0.681723475 0.071812257
v 0.172970682 0.673092723 0.057186566
v 0.189943880 0.677765012 0.044471327
v 0.209383130 0.738757014 -0.029481094
v 0.159051150 0.732927084 -0.089512952
v 0.047765229 0.698245943 0.050868243
v 0.141867399 0.721298099 -0.095656559
v 0.203356192 0.670245767 -0.009435804
v 0.202873871 0.668937564 0.011455958
v 0.034714609 0.726873338 0.052020289
v 0.010042259 0.743640065 0.053937007
v 0.088812999 0.890392005 0.057477325
v 0.067792520 0.917091727 0.063516535
v 0.015700523 0.759108186 0.057532132
v 0.033761870 0.837875187 0.059559830
v 0.021351943 0.820035756 0.055049457
v 0.022570545 0.658432841 -0.069047578
v 0.056683641 0.901776791 0.064314149
v 0.040182106 0.690093815 -0.081551835
v 0.031560671 0.879619956 0.064724080
v 0.045298036 0.888805687 0.064363658
v 0.014143273 0.879031539 0.065235309
v 0.037565138 0.643125951 -0.066189587
v 0.058734544 0.694603384 -0.086586520
v 0.077469349 0.811061203 0.066239066
v 0.199605376 0.748894095 0.037546359
v 0.195057616 0.817458749 -0.060985219
v 0.061252218 0.641972184 -0.070849657
v 0.177384138 0.726752877 -0.078755245
v 0.126621872 0.788936615 -0.113156244
v 0.123415932 0.725142360 -0.105703533
v 0.085627750 0.639829993 -0.078462243
v 0.053507525 0.726765990 -0.093217991
v 0.040260427 0.772959590 -0.098438762
v 0.123674132 0.652795196 -0.087461963
v 0.109133139 0.637019694 -0.087602541
v 0.099298671 0.878815770 -0.143612847
v 0.074115016 0.900571227 0.061799318
v 0.068246856 0.881342709 0.061107110
v 0.133183345 0.637296438 -0.080011062
v 0.025886482 0.865746319 0.062180381
v 0.042320233 0.854571819 0.058258109
v 0.078717493 0.878169060 -0.148362637
v 0.157261863 0.638700604 -0.072207674
v 0.181085333 0.784289300 -0.085776150
v 0.025606353 0.818425655 -0.111764334
v 0.176734164 0.689104676 -0.071145996
v 0.177611262 0.639719307 -0.060656518
v 0.019526761 0.714357018 -0.086676456
v 0.187565207 0.637810051 -0.044418730
v 0.033265345 0.789683878 -0.099591143
v 0.198004335 0.644199431 -0.029810647
v 0.201306865 0.655207515 -0.015880004
v 0.063390903 0.779251158 0.062253810
v 0.105933212 0.859424412 -0.139104486
v 0.086314492 0.860634446 -0.145469442
v 0.021056172 0.773149908 -0.096832335
v 0.200879171 0.653957248 0.001402687
v 0.127826810 0.692149162 -0.094918922
v 0.207684845 0.705215156 0.004124946
v 0.195052117 0.696420312 0.040408567
v 0.162718326 0.693223655 -0.079170756
v 0.146279007 0.693377912 -0.086768046
v 0.184668630 0.657772720 0.048260227
v 0.156163663 0.866287231 0.048644725
v 0.192866474 0.860788226 0.005506762
v 0.205667421 0.703724265 -0.036256209
v 0.048628964 0.658777654 -0.072893731
v 0.152771235 0.664460957 0.064337514
v 0.087445512 0.797906280 0.072543859
v 0.207937077 0.718658805 0.016651034
v 0.199009389 0.715198338 0.034776665
v 0.093049325 0.701854527 -0.098162226
v 0.133391097 0.660980105 0.072458819
v 0.116928473 0.828254402 -0.114715435
v -0.003141567 0.798151553 0.058876224
v -0.004832579 0.732932746 0.049948573
v 0.052929919 0.726108491 0.055973552
v 0.112165943 0.661061645 0.071786560
v 0.141075939 0.832671344 -0.107007816
v -0.004394346 0.772959352 0.053317219
v -0.002937158 0.810619831 0.053217612
v 0.095131300 0.659024179 0.064651355
v 0.019305019 0.851514459 0.057472955
v -0.002221325 0.851507187 0.057510037
v 0.105438769 0.902083278 0.051456265
v 0.059421815 0.665562034 0.049721647
v 0.103765070 0.919963002 0.050968129
v 0.198578134 0.651178241 0.018649839
v 0.103520118 0.800509155 0.077592596
v 0.037334405 0.880579174 -0.144682616
v 0.039417069 0.667685390 0.041694686
v 0.068307132 0.846076012 -0.142932758
v 0.017080363 0.671711624 0.036644191
v 0.032212127 0.686072707 0.044113226
v 0.044342224 0.807447731 -0.104924336
v 0.013588970 0.836382091 0.057708014
v 0.014368276 0.725050032 0.048671801
v -0.005034179 0.719435513 0.047236439
v -0.004586718 0.759514213 0.056464244
v 0.199398145 0.642402768 -0.009751868
v -0.004617189 0.745881259 0.054551262
v 0.074405327 0.660390139 -0.080041908
v 0.089377485 0.763488710 -0.106825054
v 0.108393550 0.773718357 -0.113131151
v 0.155685678 0.794782996 0.068497375
v 0.095842794 0.768612981 0.073065542
v 0.159913093 0.772957683 0.068852022
v 0.099079832 0.654903531 -0.088733047
v 0.190527707 0.649280190 0.033416189
f 555 540 123
f 389 162 497
f 567 540 568
f 583 104 251
f 463 489 430
f 453 94 255
f 483 484 162
f 446 640 671
f 574 577 251
f 50 244 238
f 52 244 50
f 575 57 53
f 55 249 52
f 55 2 250
f 577 248 563
f 575 437 432
f 57 597 589
f 2 265 262
f 589 592 57
f 262 259 2
f 5 267 262
f 602 606 589
f 5 9 11
f 58 606 610
f 11 272 5
f 12 278 11
f 565 793 8
f 630 60 632
f 13 425 12
f 424 289 160
f 289 424 13
f 643 649 60
f 181 403 179
f 483 206 484
f 163 651 174
f 53 563 558
f 651 65 650
f 163 389 384
f 683 66 65
f 455 558 563
f 165 384 171
f 340 331 34
f 67 66 683
f 206 470 63
f 385 102 856
f 67 702 70
f 344 340 696
f 179 403 406
f 710 70 702
f 16 352 14
f 111 112 59
f 63 64 655
f 18 368 16
f 710 742 753
f 119 112 111
f 394 671 545
f 551 922 903
f 19 375 18
f 753 740 711
f 406 470 179
f 261 615 108
f 545 453 439
f 178 386 530
f 24 386 23
f 72 753 742
f 26 396 24
f 768 765 72
f 119 142 112
f 32 63 470
f 112 142 161
f 399 400 396
f 154 343 182
f 545 671 448
f 399 415 400
f 768 770 765
f 32 406 410
f 418 415 399
f 770 183 777
f 387 300 166
f 415 418 422
f 105 86 299
f 169 42 839
f 170 142 119
f 173 172 705
f 329 638 343
f 134 738 737
f 185 638 329
f 692 661 145
f 150 74 741
f 637 345 873
f 132 145 661
f 170 184 142
f 138 495 760
f 138 136 188
f 136 194 188
f 201 87 194
f 270 87 205
f 216 49 210
f 46 216 724
f 198 184 170
f 43 96 907
f 219 39 218
f 45 43 41
f 224 37 219
f 498 224 514
f 86 105 342
f 225 36 514
f 378 107 110
f 80 233 107
f 22 41 43
f 198 217 849
f 41 581 45
f 103 233 76
f 76 40 103
f 222 217 214
f 678 100 40
f 98 41 22
f 366 41 98
f 40 76 678
f 215 4 284
f 215 98 21
f 537 536 92
f 222 234 217
f 904 537 92
f 460 462 30
f 284 471 366
f 222 239 246
f 586 903 759
f 462 28 30
f 246 234 222
f 454 449 28
f 237 391 924
f 560 319 921
f 246 888 252
f 431 471 282
f 455 560 391
f 319 560 241
f 50 238 793
f 50 566 52
f 52 574 55
f 258 263 510
f 244 52 249
f 55 253 2
f 284 792 657
f 303 670 667
f 303 100 674
f 250 249 55
f 273 274 252
f 251 253 574
f 100 303 301
f 301 570 100
f 104 261 257
f 677 100 678
f 273 285 274
f 257 2 253
f 2 257 265
f 250 2 259
f 570 568 40
f 752 292 293
f 294 296 285
f 285 296 274
f 684 497 679
f 277 274 296
f 440 447 442
f 579 489 463
f 692 329 695
f 259 262 267
f 871 736 360
f 262 271 9
f 40 100 570
f 570 567 568
f 203 128 270
f 310 296 294
f 305 296 310
f 87 270 194
f 9 5 262
f 5 272 600
f 276 9 271
f 9 276 11
f 272 11 278
f 302 323 310
f 568 103 40
f 108 615 89
f 280 11 276
f 11 280 12
f 103 568 540
f 278 12 425
f 323 337 328
f 283 12 280
f 12 283 13
f 283 297 289
f 289 13 283
f 540 561 231
f 425 13 424
f 209 288 205
f 291 125 286
f 346 337 323
f 49 304 288
f 173 350 351
f 297 654 314
f 347 158 864
f 304 47 311
f 47 304 49
f 47 46 481
f 360 361 855
f 501 684 146
f 481 311 47
f 46 39 481
f 343 695 329
f 314 289 297
f 289 314 160
f 481 321 308
f 481 39 321
f 325 122 321
f 325 321 37
f 37 321 39
f 333 160 314
f 324 266 333
f 527 107 231
f 84 121 325
f 36 327 498
f 160 333 34
f 327 120 84
f 36 82 371
f 277 393 390
f 689 34 333
f 34 689 340
f 313 34 331
f 266 334 689
f 334 260 341
f 340 335 331
f 107 527 110
f 54 404 405
f 696 14 344
f 61 401 44
f 38 299 407
f 358 14 348
f 14 358 16
f 344 14 352
f 356 704 712
f 352 16 368
f 413 62 417
f 370 16 358
f 16 370 18
f 175 705 134
f 713 115 110
f 371 27 378
f 27 371 82
f 381 18 370
f 18 381 19
f 368 18 375
f 80 378 27
f 19 381 235
f 19 395 23
f 19 23 178
f 202 506 913
f 23 395 24
f 386 24 396
f 398 24 395
f 24 398 26
f 26 398 220
f 26 412 399
f 396 26 399
f 418 399 412
f 164 180 444
f 444 443 164
f 175 173 705
f 685 84 120
f 422 300 415
f 685 121 84
f 172 169 300
f 172 300 422
f 78 80 27
f 226 365 78
f 89 615 114
f 240 485 309
f 134 737 175
f 226 27 82
f 245 459 452
f 187 186 140
f 243 459 245
f 189 187 130
f 581 466 579
f 467 472 637
f 308 122 240
f 138 579 466
f 430 255 463
f 499 435 430
f 453 430 435
f 435 440 439
f 435 499 450
f 243 479 281
f 308 321 122
f 897 438 584
f 439 453 435
f 243 281 893
f 450 440 435
f 480 859 865
f 440 449 447
f 442 439 440
f 450 449 440
f 447 449 454
f 492 488 493
f 127 458 456
f 449 456 28
f 82 225 708
f 454 28 462
f 28 456 30
f 456 450 127
f 30 456 458
f 225 82 36
f 30 464 460
f 506 507 502
f 126 469 125
f 287 508 509
f 207 507 506
f 410 460 32
f 126 306 477
f 460 464 644
f 644 32 460
f 32 644 63
f 475 31 576
f 470 406 32
f 64 63 644
f 306 309 477
f 125 464 458
f 528 795 511
f 516 523 524
f 655 206 63
f 206 655 484
f 206 474 470
f 162 679 497
f 316 322 822
f 313 160 34
f 37 498 325
f 523 316 534
f 497 684 501
f 501 146 505
f 146 512 503
f 505 503 513
f 263 515 510
f 512 120 115
f 503 512 91
f 517 513 503
f 115 713 91
f 458 203 125
f 315 547 548
f 91 512 115
f 547 330 336
f 91 713 88
f 517 88 522
f 552 548 547
f 532 88 713
f 88 532 519
f 552 336 553
f 522 519 541
f 527 231 561
f 127 128 458
f 538 660 692
f 514 36 498
f 224 498 37
f 538 692 695
f 114 626 631
f 553 342 105
f 219 37 39
f 555 660 561
f 127 450 499
f 891 199 824
f 660 555 661
f 218 39 46
f 199 97 886
f 366 98 284
f 22 21 98
f 41 366 581
f 43 232 22
f 907 232 43
f 96 536 907
f 45 463 255
f 45 581 463
f 255 94 96
f 255 96 45
f 94 453 545
f 448 546 545
f 582 593 594
f 595 584 438
f 216 46 47
f 216 47 49
f 551 640 558
f 558 640 569
f 49 288 209
f 793 565 50
f 569 53 558
f 566 50 565
f 209 210 49
f 841 351 350
f 574 52 566
f 578 53 57
f 612 609 423
f 53 578 563
f 575 53 569
f 597 432 211
f 253 55 574
f 57 575 597
f 578 57 592
f 592 583 578
f 627 609 612
f 584 621 628
f 603 589 606
f 602 589 597
f 634 819 627
f 610 606 602
f 835 318 229
f 626 606 58
f 610 624 58
f 58 624 630
f 632 58 630
f 634 884 869
f 58 632 626
f 60 642 632
f 642 60 649
f 60 630 181
f 650 649 643
f 662 652 645
f 656 628 621
f 621 636 656
f 658 659 204
f 64 644 469
f 466 495 138
f 694 377 700
f 468 471 431
f 663 650 65
f 628 656 668
f 679 162 484
f 65 686 663
f 672 673 659
f 686 65 66
f 683 65 651
f 468 431 478
f 683 693 67
f 685 146 684
f 146 685 512
f 696 340 689
f 66 67 701
f 473 495 478
f 66 698 686
f 702 67 693
f 668 675 687
f 701 698 66
f 405 690 54
f 701 67 70
f 54 690 564
f 14 696 348
f 711 70 710
f 699 70 711
f 702 709 710
f 229 318 236
f 657 282 471
f 710 709 742
f 753 756 740
f 756 753 72
f 742 754 72
f 72 754 768
f 72 765 756
f 766 765 770
f 490 193 496
f 130 772 496
f 770 776 766
f 15 719 168
f 87 201 148
f 183 770 768
f 201 194 136
f 422 705 172
f 633 777 338
f 777 633 150
f 408 74 633
f 638 185 408
f 106 730 258
f 688 379 694
f 275 631 118
f 185 692 145
f 197 750 749
f 736 737 738
f 263 258 730
f 738 741 743
f 185 145 143
f 743 741 744
f 744 741 74
f 744 467 879
f 132 140 145
f 123 132 661
f 741 738 150
f 123 540 567
f 773 772 567
f 738 134 150
f 78 27 226
f 238 623 1
f 264 279 779
f 776 150 134
f 134 705 420
f 695 541 538
f 104 599 261
f 365 681 680
f 761 762 763
f 365 678 76
f 76 78 365
f 411 156 420
f 156 411 220
f 541 519 538
f 220 764 156
f 76 233 78
f 80 78 233
f 168 789 387
f 70 699 701
f 398 395 228
f 434 437 445
f 779 780 887
f 428 432 434
f 926 317 706
f 197 749 745
f 213 6 4
f 279 785 780
f 419 427 428
f 148 201 745
f 454 462 419
f 526 782 783
f 381 734 235
f 410 414 419
f 493 769 913
f 511 4 215
f 4 511 213
f 406 414 410
f 208 731 729
f 21 511 215
f 210 728 727
f 794 800 823
f 511 21 529
f 470 474 179
f 724 218 46
f 227 110 115
f 118 280 275
f 219 218 722
f 806 800 794
f 803 804 256
f 716 778 225
f 224 219 720
f 407 86 690
f 356 734 381
f 389 497 380
f 809 795 528
f 810 806 811
f 717 716 514
f 497 501 380
f 317 697 429
f 810 818 821
f 913 771 202
f 341 698 699
f 373 376 159
f 369 177 373
f 341 260 698
f 260 334 266
f 365 226 681
f 517 522 354
f 828 821 818
f 354 362 364
f 569 640 446
f 519 522 88
f 767 828 818
f 266 324 676
f 602 597 211
f 804 834 256
f 121 240 122
f 345 868 918
f 610 602 211
f 169 839 166
f 427 195 211
f 643 179 174
f 683 651 165
f 693 683 171
f 627 884 634
f 324 654 676
f 846 397 841
f 841 397 374
f 362 709 369
f 580 397 846
f 192 188 190
f 192 499 489
f 128 192 190
f 270 205 203
f 205 288 286
f 291 306 126
f 208 148 733
f 288 304 291
f 304 311 306
f 311 481 308
f 286 125 203
f 283 118 297
f 589 599 592
f 283 280 118
f 227 115 120
f 747 805 732
f 707 226 82
f 107 378 80
f 275 114 631
f 118 646 297
f 89 114 275
f 231 233 103
f 87 209 205
f 816 872 870
f 271 108 89
f 248 560 455
f 248 241 560
f 108 271 265
f 566 565 241
f 86 876 690
f 622 244 619
f 517 91 88
f 574 566 248
f 715 662 889
f 244 249 618
f 249 250 614
f 882 465 718
f 253 251 257
f 774 465 882
f 250 259 608
f 883 494 774
f 921 391 560
f 259 267 604
f 54 564 847
f 251 577 583
f 600 267 5
f 89 276 271
f 503 91 517
f 690 405 407
f 275 276 89
f 892 573 582
f 272 278 596
f 248 577 574
f 280 276 275
f 425 588 591
f 425 424 781
f 781 313 572
f 424 313 781
f 572 585 781
f 314 654 324
f 136 197 201
f 313 557 572
f 237 551 558
f 554 331 335
f 334 341 348
f 760 136 138
f 335 344 549
f 341 699 704
f 348 696 334
f 921 319 7
f 358 348 704
f 344 352 544
f 912 582 594
f 903 586 551
f 352 368 543
f 381 370 356
f 368 375 539
f 788 8 3
f 535 375 178
f 221 795 809
f 828 767 562
f 559 833 920
f 921 920 899
f 546 448 898
f 903 922 836
f 38 903 299
f 235 228 395
f 405 669 407
f 546 92 94
f 400 518 520
f 92 546 904
f 639 35 926
f 386 396 525
f 927 926 33
f 928 605 930
f 200 490 298
f 94 545 546
f 96 92 536
f 927 56 852
f 143 472 408
f 220 412 26
f 400 520 521
f 412 220 411
f 109 113 152
f 920 832 559
f 418 412 411
f 152 113 746
f 387 789 786
f 420 418 411
f 746 161 867
f 418 420 422
f 490 773 298
f 496 772 773
f 394 442 445
f 562 767 832
f 739 636 820
f 204 725 658
f 773 490 496
f 725 223 635
f 447 454 428
f 472 186 637
f 215 284 98
f 189 130 496
f 458 464 30
f 410 462 460
f 125 469 464
f 635 247 487
f 487 269 629
f 641 487 629
f 268 269 487
f 269 393 629
f 390 269 268
f 469 126 64
f 349 761 763
f 655 64 477
f 303 674 670
f 290 393 277
f 611 290 928
f 163 474 483
f 928 307 605
f 635 641 648
f 531 605 533
f 677 674 100
f 477 309 485
f 506 202 207
f 679 485 240
f 240 121 684
f 312 912 594
f 684 679 240
f 121 685 684
f 186 187 345
f 503 505 146
f 912 332 892
f 772 130 132
f 685 120 512
f 501 505 159
f 725 648 658
f 505 513 373
f 513 517 364
f 892 847 564
f 110 527 713
f 714 847 339
f 522 541 154
f 51 714 346
f 231 103 540
f 714 51 404
f 541 695 343
f 567 772 123
f 502 500 506
f 578 577 563
f 867 659 673
f 577 578 583
f 597 575 432
f 592 104 583
f 913 492 493
f 845 167 839
f 599 104 592
f 386 178 23
f 599 603 615
f 110 227 378
f 615 261 599
f 706 402 639
f 603 626 114
f 132 123 772
f 624 610 195
f 409 706 317
f 746 673 682
f 114 615 603
f 120 327 227
f 624 414 403
f 691 429 697
f 642 631 632
f 642 118 631
f 429 433 853
f 646 118 642
f 642 649 646
f 152 682 691
f 682 433 691
f 181 643 60
f 654 297 646
f 122 325 121
f 140 130 187
f 421 416 617
f 123 661 555
f 309 308 240
f 698 260 686
f 702 693 177
f 698 701 699
f 672 441 436
f 291 126 125
f 109 691 697
f 143 140 186
f 874 872 816
f 665 441 672
f 188 192 489
f 665 658 653
f 712 704 699
f 653 451 665
f 927 697 317
f 712 740 734
f 648 461 653
f 178 375 19
f 923 880 116
f 641 461 648
f 740 756 748
f 748 758 228
f 926 706 639
f 479 641 482
f 754 742 362
f 354 754 362
f 407 669 38
f 203 458 128
f 482 629 620
f 756 765 758
f 182 754 154
f 128 127 192
f 254 246 252
f 611 382 620
f 764 398 228
f 499 192 127
f 764 766 156
f 766 776 156
f 930 611 928
f 420 156 776
f 140 132 130
f 788 7 8
f 387 166 168
f 420 776 134
f 136 760 197
f 300 387 415
f 750 197 760
f 745 201 197
f 148 208 209
f 733 148 745
f 258 35 106
f 593 533 605
f 731 208 733
f 236 318 910
f 729 210 208
f 728 210 729
f 727 216 210
f 188 489 579
f 929 573 556
f 724 216 727
f 573 929 582
f 723 218 724
f 722 218 723
f 720 219 722
f 717 224 720
f 514 224 717
f 188 579 138
f 876 556 573
f 707 681 226
f 898 904 546
f 472 143 186
f 212 795 221
f 899 391 921
f 854 925 931
f 213 795 212
f 140 143 145
f 404 54 714
f 833 922 924
f 415 387 786
f 143 408 185
f 238 3 793
f 1 3 238
f 31 799 752
f 622 238 244
f 918 799 515
f 380 376 171
f 915 752 357
f 617 476 421
f 619 244 618
f 618 249 616
f 616 249 614
f 636 739 613
f 388 613 10
f 614 250 608
f 357 791 915
f 383 688 388
f 608 259 607
f 571 438 576
f 295 667 666
f 92 96 94
f 607 259 604
f 372 726 700
f 667 295 303
f 367 726 372
f 604 267 601
f 298 295 207
f 923 875 880
f 363 732 367
f 408 467 74
f 148 209 87
f 298 301 295
f 359 747 363
f 601 267 600
f 359 355 755
f 600 272 598
f 598 272 596
f 353 755 355
f 301 298 773
f 596 278 591
f 747 755 751
f 591 278 425
f 588 425 781
f 388 688 813
f 769 771 913
f 763 353 349
f 202 771 200
f 506 500 913
f 74 467 744
f 773 570 301
f 82 708 707
f 320 647 326
f 500 492 913
f 331 554 557
f 242 910 320
f 344 335 340
f 910 908 647
f 554 335 550
f 239 222 703
f 549 550 335
f 549 344 544
f 166 167 168
f 544 352 543
f 543 368 542
f 17 15 167
f 17 845 157
f 907 536 919
f 157 850 155
f 155 850 153
f 542 368 539
f 150 633 74
f 153 854 151
f 151 854 149
f 149 858 147
f 147 862 144
f 539 375 535
f 759 903 38
f 530 535 178
f 144 862 141
f 141 866 139
f 139 866 137
f 530 386 525
f 137 870 135
f 525 396 521
f 135 870 872
f 133 872 131
f 131 874 129
f 129 923 117
f 923 874 875
f 170 119 902
f 521 396 400
f 20 932 101
f 99 101 932
f 99 886 97
f 95 97 199
f 95 891 93
f 93 896 90
f 518 400 786
f 90 896 85
f 85 901 83
f 83 905 81
f 169 166 300
f 81 905 79
f 77 79 796
f 77 909 75
f 439 394 545
f 75 914 73
f 73 914 71
f 71 916 69
f 442 394 439
f 468 466 366
f 442 447 434
f 7 562 920
f 794 534 811
f 924 899 833
f 434 447 428
f 428 454 419
f 419 462 410
f 38 898 759
f 902 111 897
f 466 468 495
f 526 524 534
f 25 59 56
f 96 43 45
f 895 401 61
f 182 343 338
f 483 389 163
f 483 162 389
f 897 59 25
f 883 894 775
f 776 777 150
f 59 897 111
f 380 384 389
f 774 882 893
f 111 902 119
f 778 708 225
f 501 159 380
f 167 166 839
f 159 505 373
f 176 191 867
f 373 513 369
f 364 369 513
f 850 890 925
f 354 364 517
f 354 522 154
f 177 369 709
f 154 541 343
f 446 445 437
f 376 380 159
f 204 223 725
f 217 198 214
f 214 703 222
f 437 569 446
f 610 211 195
f 414 624 195
f 403 630 624
f 889 718 715
f 160 313 424
f 181 630 403
f 888 246 239
f 179 643 181
f 174 650 643
f 651 650 174
f 163 384 165
f 487 247 268
f 165 651 163
f 171 683 165
f 174 474 163
f 557 313 331
f 475 515 799
f 376 693 171
f 285 273 757
f 177 693 376
f 627 885 884
f 174 179 474
f 509 508 516
f 294 302 310
f 709 702 177
f 709 362 742
f 154 754 354
f 182 338 183
f 780 785 803
f 183 768 182
f 423 413 881
f 183 338 777
f 638 338 343
f 633 638 408
f 590 401 895
f 692 185 329
f 190 188 194
f 515 475 25
f 270 190 194
f 190 270 128
f 195 427 414
f 7 788 562
f 915 878 571
f 877 595 438
f 203 205 286
f 44 48 61
f 474 206 483
f 210 209 208
f 61 62 895
f 413 895 62
f 211 432 427
f 172 42 169
f 398 764 220
f 515 263 918
f 437 575 569
f 228 758 764
f 124 885 426
f 175 871 350
f 84 498 327
f 225 514 716
f 327 371 227
f 918 263 730
f 898 448 759
f 371 327 36
f 839 374 890
f 227 371 378
f 451 441 665
f 228 235 748
f 444 180 457
f 233 231 107
f 187 868 345
f 759 448 586
f 189 292 868
f 734 748 235
f 653 461 826
f 924 922 237
f 292 193 196
f 446 671 394
f 461 641 479
f 922 551 237
f 391 237 455
f 482 641 629
f 918 868 799
f 196 200 293
f 771 293 200
f 558 455 237
f 281 287 894
f 894 893 281
f 248 566 241
f 257 251 104
f 255 430 453
f 257 261 265
f 509 775 287
f 260 266 676
f 509 516 524
f 265 261 108
f 523 516 531
f 322 316 523
f 273 252 888
f 265 271 262
f 811 534 316
f 316 315 811
f 676 686 260
f 366 466 581
f 478 495 468
f 330 547 315
f 547 336 552
f 366 471 468
f 760 495 473
f 657 471 284
f 336 342 553
f 553 900 552
f 832 900 553
f 865 878 791
f 792 284 4
f 31 571 576
f 286 288 291
f 438 571 877
f 906 864 863
f 4 790 792
f 8 7 319
f 303 295 301
f 291 304 306
f 570 773 567
f 739 617 392
f 617 416 392
f 306 311 309
f 309 311 308
f 170 628 668
f 613 739 10
f 739 392 10
f 656 675 668
f 656 815 675
f 680 678 365
f 813 613 388
f 324 333 314
f 687 198 668
f 379 688 383
f 295 666 207
f 815 656 636
f 377 694 379
f 325 498 84
f 689 333 266
f 334 696 689
f 700 377 372
f 861 834 860
f 703 721 239
f 732 726 367
f 834 861 256
f 348 341 704
f 747 732 363
f 356 358 704
f 735 888 721
f 370 358 356
f 735 264 757
f 735 273 888
f 755 747 359
f 369 364 362
f 353 763 755
f 647 761 326
f 761 349 326
f 376 373 177
f 779 757 264
f 780 779 279
f 384 380 171
f 235 395 19
f 736 871 737
f 562 788 917
f 910 647 320
f 785 804 803
f 414 406 403
f 256 323 803
f 813 675 815
f 415 786 400
f 427 419 414
f 422 420 705
f 432 428 427
f 430 489 499
f 587 580 590
f 437 434 432
f 445 442 434
f 446 394 445
f 671 586 448
f 819 609 627
f 456 449 450
f 455 563 248
f 865 791 769
f 581 579 463
f 645 652 817
f 644 464 469
f 652 662 715
f 874 923 129
f 715 664 652
f 694 812 688
f 477 64 126
f 750 760 473
f 485 655 477
f 465 715 718
f 507 207 666
f 465 774 494
f 865 486 480
f 812 675 813
f 485 484 655
f 207 202 298
f 883 504 825
f 493 865 769
f 783 782 504
f 679 484 485
f 202 200 298
f 196 490 200
f 196 193 490
f 877 859 476
f 302 803 323
f 189 496 193
f 814 806 810
f 168 719 789
f 821 814 810
f 391 899 924
f 713 527 532
f 467 408 472
f 302 294 887
f 786 787 518
f 538 519 532
f 561 532 527
f 926 35 33
f 538 532 660
f 540 555 561
f 551 586 640
f 319 241 565
f 660 532 561
f 113 161 746
f 161 176 867
f 8 319 565
f 223 247 635
f 781 585 784
f 620 629 393
f 887 780 302
f 269 390 393
f 671 640 586
f 781 784 588
f 599 589 603
f 393 290 611
f 626 603 606
f 928 290 305
f 623 238 622
f 625 1 623
f 774 893 894
f 312 332 912
f 626 632 631
f 332 339 847
f 847 892 332
f 757 887 285
f 847 714 54
f 793 3 8
f 732 807 726
f 858 931 857
f 675 812 687
f 168 167 15
f 273 735 757
f 920 921 7
f 402 385 639
f 167 845 17
f 638 633 338
f 646 649 663
f 650 663 649
f 845 850 157
f 888 239 721
f 663 654 646
f 706 409 48
f 850 854 153
f 676 654 663
f 429 409 317
f 661 692 660
f 854 858 149
f 676 663 686
f 858 862 147
f 433 429 691
f 678 680 677
f 699 711 712
f 712 734 356
f 711 710 753
f 862 866 141
f 712 711 740
f 682 436 827
f 734 740 748
f 866 870 137
f 214 687 808
f 748 756 758
f 664 816 652
f 872 133 135
f 198 687 214
f 754 182 768
f 872 874 131
f 665 659 658
f 758 765 766
f 658 648 653
f 766 764 758
f 776 770 777
f 668 198 170
f 117 923 116
f 787 786 789
f 929 330 822
f 533 822 322
f 556 336 330
f 531 322 523
f 899 920 833
f 662 444 889
f 346 323 256
f 491 482 620
f 116 880 911
f 911 20 116
f 382 491 620
f 911 932 20
f 932 886 99
f 645 443 662
f 930 382 611
f 382 930 516
f 886 824 199
f 605 531 930
f 491 508 848
f 628 170 902
f 256 347 346
f 482 848 479
f 891 896 93
f 347 256 861
f 820 617 739
f 866 819 817
f 605 594 593
f 896 901 85
f 929 593 582
f 612 881 885
f 901 905 83
f 826 451 653
f 451 457 180
f 672 659 665
f 441 180 851
f 79 905 796
f 436 673 672
f 436 851 827
f 909 914 75
f 682 673 436
f 914 916 71
f 584 902 897
f 876 86 342
f 69 916 1
f 829 433 827
f 700 808 694
f 788 3 916
f 853 829 417
f 409 61 48
f 402 48 855
f 870 817 816
f 855 29 360
f 874 816 664
f 385 361 102
f 830 880 875
f 576 897 25
f 819 634 817
f 68 69 1
f 106 856 730
f 743 736 738
f 910 242 236
f 862 857 819
f 744 879 102
f 880 830 831
f 840 528 843
f 401 846 44
f 803 302 780
f 769 791 357
f 878 915 791
f 831 911 880
f 918 873 345
f 576 25 475
f 799 31 475
f 841 29 846
f 879 856 102
f 106 639 385
f 573 564 876
f 911 831 802
f 342 556 876
f 337 339 332
f 25 510 515
f 350 29 841
f 564 573 892
f 892 582 912
f 510 25 56
f 864 906 837
f 312 328 337
f 929 822 593
f 33 35 258
f 871 360 29
f 840 860 835
f 864 158 863
f 29 855 44
f 916 914 917
f 808 687 812
f 594 307 312
f 307 305 328
f 916 917 788
f 33 56 927
f 840 835 809
f 307 594 605
f 736 743 361
f 531 516 930
f 290 277 305
f 852 109 927
f 318 835 860
f 21 844 529
f 852 59 112
f 620 393 611
f 102 743 744
f 112 113 852
f 751 763 762
f 647 785 762
f 805 747 751
f 252 268 254
f 230 835 229
f 487 641 635
f 637 879 467
f 124 851 164
f 809 230 221
f 161 142 176
f 807 732 805
f 247 234 254
f 230 809 835
f 808 700 807
f 345 637 186
f 176 184 191
f 812 694 808
f 204 849 223
f 849 204 191
f 813 688 812
f 635 648 725
f 849 184 198
f 815 613 813
f 815 636 613
f 217 223 849
f 659 191 204
f 217 234 223
f 191 184 849
f 859 480 421
f 795 213 511
f 245 461 243
f 878 865 859
f 802 886 932
f 191 659 867
f 452 718 889
f 223 234 247
f 176 142 184
f 246 254 234
f 865 493 486
f 293 771 357
f 268 247 254
f 771 769 357
f 805 264 735
f 268 252 390
f 161 113 112
f 486 493 488
f 390 252 274
f 867 673 746
f 264 751 279
f 274 277 390
f 746 682 152
f 281 848 287
f 827 433 682
f 808 703 214
f 152 691 109
f 109 852 113
f 476 859 421
f 296 305 277
f 476 595 877
f 305 307 928
f 196 293 292
f 595 476 820
f 726 807 700
f 752 293 357
f 307 328 312
f 310 328 305
f 56 59 852
f 292 752 799
f 328 310 323
f 886 825 824
f 312 337 332
f 807 703 808
f 891 824 782
f 193 292 189
f 844 21 22
f 429 853 409
f 109 697 927
f 56 33 510
f 105 559 553
f 339 337 346
f 346 714 339
f 51 346 347
f 317 926 927
f 564 690 876
f 863 844 232
f 799 868 292
f 510 33 258
f 843 528 529
f 844 863 842
f 861 840 843
f 861 158 347
f 861 860 840
f 752 915 31
f 158 843 842
f 843 158 861
f 842 529 844
f 919 837 906
f 906 232 907
f 809 528 840
f 730 873 918
f 730 856 873
f 873 856 879
f 856 106 385
f 817 634 645
f 837 919 838
f 817 652 816
f 919 906 907
f 919 536 537
f 743 102 361
f 904 669 838
f 898 669 904
f 669 898 38
f 703 807 721
f 405 404 838
f 669 405 838
f 922 833 836
f 294 285 887
f 361 385 402
f 869 645 634
f 830 875 664
f 916 3 1
f 864 51 347
f 402 855 361
f 909 801 914
f 397 890 374
f 48 44 855
f 796 909 77
f 879 637 873
f 901 798 905
f 580 925 397
f 48 402 706
f 896 800 901
f 891 823 896
f 409 62 61
f 853 62 409
f 881 413 417
f 417 62 853
f 86 407 299
f 459 893 882
f 199 891 95
f 830 465 831
f 829 426 417
f 426 829 124
f 426 881 417
f 124 829 827
f 433 829 853
f 886 802 825
f 774 894 883
f 851 124 827
f 164 884 124
f 441 851 436
f 180 164 851
f 443 869 164
f 911 802 932
f 715 830 664
f 874 664 875
f 736 361 360
f 451 180 441
f 457 452 889
f 889 444 457
f 866 817 870
f 106 35 639
f 459 718 452
f 826 452 457
f 452 826 245
f 451 826 457
f 862 819 866
f 858 857 862
f 461 245 826
f 459 882 718
f 479 243 461
f 854 931 858
f 850 925 854
f 846 401 580
f 845 890 850
f 491 848 482
f 848 281 479
f 825 494 883
f 382 508 491
f 900 832 767
f 508 287 848
f 896 823 800
f 839 890 845
f 504 782 824
f 42 374 839
f 516 508 382
f 908 910 318
f 534 524 523
f 552 818 548
f 42 172 173
f 901 800 798
f 818 552 900
f 533 322 531
f 871 175 737
f 868 187 189
f 22 232 844
f 593 822 533
f 822 315 316
f 929 556 330
f 330 315 822
f 838 919 537
f 904 838 537
f 318 860 834
f 908 318 834
f 465 830 715
f 556 342 336
f 105 836 559
f 833 559 836
f 29 44 846
f 908 834 804
f 562 917 828
f 299 836 105
f 818 900 767
f 832 553 559
f 562 832 920
f 811 315 548
f 828 801 821
f 801 828 917
f 821 797 814
f 836 299 903
f 401 590 580
f 797 821 801
f 905 798 796
f 796 814 797
f 810 548 818
f 814 798 806
f 798 814 796
f 909 796 797
f 811 548 810
f 413 587 590
f 404 51 837
f 51 864 837
f 837 838 404
f 909 797 801
f 529 842 843
f 158 842 863
f 232 906 863
f 800 806 798
f 529 528 511
f 794 811 806
f 785 908 804
f 785 647 908
f 859 877 878
f 526 534 794
f 877 571 878
f 571 31 915
f 173 351 42
f 524 783 509
f 350 173 175
f 29 350 871
f 823 526 794
f 783 524 526
f 526 823 782
f 42 351 374
f 841 374 351
f 504 775 783
f 509 783 775
f 782 823 891
f 885 124 884
f 887 757 779
f 914 801 917
f 426 885 881
f 890 397 925
f 825 504 824
f 775 504 883
f 925 587 931
f 587 925 580
f 802 494 825
f 785 279 762
f 494 831 465
f 831 494 802
f 894 287 775
f 590 895 413
f 438 897 576
f 884 164 869
f 762 279 751
f 423 931 587
f 587 413 423
f 931 423 857
f 762 761 647
f 617 820 476
f 595 820 621
f 751 755 763
f 893 459 243
f 751 264 805
f 609 857 423
f 423 881 612
f 662 443 444
f 721 805 735
f 621 584 595
f 857 609 819
f 443 645 869
f 612 885 627
f 636 621 820
f 628 902 584
f 805 721 807
