# avbd fit, rung f180-i16-s300-r1-h60 of Gate 6d (body space, fit phase only)
v -0.006102952 0.660664380 0.017070388
v -0.103414491 0.675203323 0.068806984
v -0.005740827 0.674429655 0.020832272
v 0.000630941 0.919243991 0.069480084
v -0.149302229 0.658533931 0.064636953
v 0.003594213 0.934216797 0.069513075
v -0.005314804 0.701506197 0.027710497
v -0.005357964 0.688049376 0.024369538
v -0.151201606 0.674164832 0.065888189
v 0.145443514 0.915103078 -0.111587681
v -0.169306427 0.669534743 0.057719857
v -0.188031033 0.669930756 0.045623038
v -0.195675194 0.670195460 0.029426400
v -0.174920991 0.660637319 -0.068308577
v 0.009532088 0.637080014 -0.045740243
v -0.157038793 0.656462133 -0.075824767
v 0.024963215 0.636169791 -0.048063941
v -0.139786959 0.656206489 -0.083257534
v -0.122254074 0.659645021 -0.090168558
v 0.195178121 0.628921509 0.018562336
v 0.000274186 0.889677405 0.066929743
v 0.000100520 0.875347018 0.065197825
v -0.103825293 0.654157519 -0.091232516
v -0.090199061 0.660539269 -0.086526401
v 0.092727765 0.819276452 -0.114707887
v -0.075769477 0.668606639 -0.083279438
v -0.132501036 0.878573716 -0.129275620
v -0.135040492 0.827316642 0.067851618
v 0.038777959 0.715098262 -0.081849881
v -0.149662554 0.836825192 0.061735690
v 0.066910192 0.836438656 -0.136196226
v -0.184292227 0.815120697 0.042821571
v 0.085994340 0.786870480 -0.107721731
v -0.202349812 0.662084222 -0.021917867
v 0.071608394 0.777808249 -0.103546597
v -0.156933293 0.887278557 -0.105706595
v -0.171149954 0.890392601 -0.064425752
v 0.013761607 0.783871531 0.044333529
v -0.172600493 0.897005916 -0.046207190
v -0.078094497 0.872643113 -0.148863763
v -0.027650556 0.879206955 0.064755544
v 0.011019284 0.682245910 -0.066739634
v -0.017479626 0.861913860 0.061216794
v 0.060367018 0.718118310 -0.090077259
v -0.038367502 0.863711059 0.059819371
v -0.173137054 0.905210376 -0.029175505
v -0.175572962 0.894613445 -0.013187690
v 0.070009507 0.734682679 -0.097379982
v -0.165672645 0.899473310 0.003689159
v -0.042288590 0.677383900 0.033446364
v 0.058388006 0.838699937 0.057512365
v -0.057587743 0.676154733 0.049384676
v -0.074237257 0.748351276 0.062713034
v 0.058280833 0.805719078 0.056146424
v -0.078369670 0.674790025 0.058647148
v 0.100571826 0.799093306 -0.111955978
v -0.097261332 0.745365977 0.071693048
v -0.167674780 0.751116991 0.065639421
v 0.115532085 0.811768353 -0.115403935
v -0.198301107 0.747308731 0.039854165
v 0.080846123 0.720273852 -0.097579606
v 0.100668445 0.716769934 -0.103738271
v -0.194136292 0.822848022 0.024184654
v -0.190856144 0.841101348 0.021675142
v -0.209713548 0.741277575 -0.025125289
v -0.200934842 0.733924031 -0.049229037
v -0.190381199 0.742815971 -0.065598682
v 0.007696676 0.662605882 0.010679808
v 0.012664867 0.649075449 0.013516435
v -0.175656453 0.730219722 -0.081225365
v 0.027625963 0.648123324 0.018285062
v -0.121274874 0.735597014 -0.108971432
v 0.040886059 0.646244526 0.026393343
v -0.023734208 0.764237106 -0.089793481
v 0.053096581 0.644287944 0.035860766
v -0.097310595 0.875732422 -0.144525945
v 0.062454719 0.641970515 0.048216410
v -0.114682510 0.878762245 -0.138213873
v 0.076733008 0.640645444 0.054979842
v -0.122715667 0.865367591 -0.134547561
v 0.090567939 0.639338672 0.060942370
v -0.140553012 0.894386292 -0.122156940
v 0.104265712 0.637999713 0.066691950
v -0.173454091 0.861537933 -0.083697751
v 0.117629625 0.636588454 0.072046645
v 0.043569695 0.771461248 0.051368970
v -0.134563416 0.899057567 0.036223020
v -0.127014548 0.809827685 -0.114262104
v -0.152841181 0.700800538 0.067687936
v 0.132337660 0.635327518 0.070414282
v -0.145402730 0.818132043 -0.106492542
v -0.018095236 0.828221917 0.046063282
v 0.145426765 0.634907603 0.064449891
v -0.038443126 0.830565751 0.049589165
v 0.158448592 0.634013236 0.058469318
v -0.024145152 0.845048726 0.054819651
v 0.171241850 0.632816672 0.052562494
v -0.017307427 0.894541740 0.066844888
v 0.182661802 0.631437063 0.043285247
v -0.064922795 0.886896312 -0.149062082
v 0.188999593 0.630367637 0.030916700
v 0.023820620 0.765069902 -0.090558477
v -0.089706376 0.857546449 -0.144001618
v -0.104375347 0.711991072 0.072184831
v 0.037164249 0.754525483 0.046696283
v 0.054568063 0.778577507 -0.099061608
v -0.119702302 0.850170970 -0.130245566
v -0.135757402 0.698227048 0.074336328
v 0.128437117 0.775197864 -0.111387052
v -0.131319448 0.844389737 -0.116504274
v 0.131853297 0.821561992 -0.111731209
v 0.141260475 0.805261910 -0.107631043
v 0.143208772 0.786623299 -0.105771050
v -0.159193963 0.716805100 0.066143014
v -0.145923227 0.836982131 -0.104971729
v 0.196950927 0.627573669 0.004472865
v 0.196963876 0.626319349 -0.008482429
v -0.194254994 0.706202090 0.043344334
v 0.148816854 0.822316945 -0.104529940
v -0.162292838 0.848602295 -0.096867390
v -0.185811758 0.853175938 -0.066055655
v -0.187679857 0.866115868 -0.051907647
v -0.058081485 0.831042945 -0.130038291
v 0.155836523 0.713314235 -0.086978421
v -0.166271403 0.861954570 0.039343677
v -0.183205754 0.858062923 0.020332368
v -0.117597483 0.854641557 0.062380034
v -0.128197223 0.868384719 0.054449391
v 0.197032779 0.625337243 -0.022400916
v -0.023312178 0.828187585 -0.116534911
v 0.190578535 0.624561429 -0.035565391
v -0.041939367 0.822566152 -0.118752226
v 0.182947740 0.623695254 -0.047538184
v -0.028476551 0.722471178 -0.081390969
v 0.175277725 0.622597277 -0.059507746
v -0.103772804 0.904125333 0.051648419
v 0.162143797 0.622150302 -0.067091122
v -0.085226282 0.899807274 0.059438772
v 0.148414537 0.621792316 -0.071571752
v -0.024713282 0.816546798 -0.104777850
v 0.134589657 0.621257424 -0.076056406
v 0.163722277 0.813540459 -0.097907528
v -0.026638616 0.802032113 -0.096093997
v 0.121609822 0.621410191 -0.080368981
v -0.045587026 0.812417984 -0.104266748
v -0.181580216 0.821447015 -0.084901944
v 0.106257223 0.621868134 -0.083177343
v -0.137354463 0.916241288 0.032881673
v 0.092696130 0.624150276 -0.077507675
v -0.032961152 0.743766785 -0.087210491
v 0.079135969 0.626424670 -0.071873330
v 0.144552469 0.770049393 -0.103210926
v 0.065536797 0.628698170 -0.066152647
v -0.106242418 0.774454057 -0.113092564
v 0.051701743 0.630882978 -0.060786713
v -0.065660819 0.704832017 -0.089590468
v 0.039235778 0.634070516 -0.052893274
v 0.049285550 0.868317723 0.060862727
v -0.188744575 0.793800294 -0.074997984
v -0.203345448 0.669871926 -0.002492454
v 0.160436705 0.795042694 -0.098818377
v -0.204261661 0.814735532 -0.029679101
v -0.209582835 0.783451974 -0.017380098
v 0.176556394 0.707728326 -0.075291738
v -0.208939672 0.770470977 -0.035454534
v -0.006840126 0.661785245 -0.057349574
v 0.013591031 0.651721120 -0.053104360
v -0.006897272 0.649588823 -0.050919019
v -0.006537929 0.673786759 -0.063966356
v 0.165480584 0.834911346 -0.096626028
v -0.200052023 0.772848427 -0.054592937
v -0.006426341 0.686833203 -0.068026029
v -0.006394236 0.699284911 -0.073728941
v -0.210911185 0.771410584 0.003192141
v -0.006217195 0.712805986 -0.076075271
v 0.177424416 0.802816689 -0.091152534
v -0.179132313 0.765747607 -0.085472897
v -0.111693062 0.639941514 -0.088341020
v -0.201077178 0.781862378 0.028672773
v 0.188574553 0.723789811 -0.063217431
v -0.196411699 0.765464544 0.039696313
v -0.092418745 0.760878444 -0.107787475
v -0.078611955 0.748988867 -0.102507159
v 0.182470351 0.820110023 -0.083082505
v -0.047558315 0.795624077 -0.097987898
v -0.003674454 0.808386683 -0.097299293
v -0.003290474 0.819894314 -0.105433121
v -0.096090123 0.884698689 0.053658806
v -0.002994597 0.830075264 -0.115057752
v -0.115308724 0.878819346 0.049596805
v 0.188928425 0.799786687 -0.073817387
v -0.104511008 0.867381573 0.056636393
v -0.002710433 0.839991391 -0.124820016
v -0.117442332 0.894136786 0.045273345
v -0.151727617 0.774999321 0.070926517
v -0.002477399 0.851550758 -0.132279009
v -0.109757647 0.920494199 0.047747489
v 0.184988707 0.841320693 -0.072470933
v 0.168052733 0.649528563 0.056026518
v -0.002310614 0.864845395 -0.135777533
v -0.122203842 0.911176860 0.042219773
v -0.002153782 0.878477752 -0.138075739
v -0.148032710 0.873173356 0.048027601
v 0.200360209 0.795376539 -0.055544406
v -0.149285659 0.888918400 0.034391809
v -0.207046792 0.813944995 0.006801104
v -0.001952282 0.892452240 -0.138355732
v -0.147145316 0.919805050 0.018647581
v -0.149344102 0.902239025 0.019605102
v -0.158219576 0.915752530 0.003121493
v -0.132314533 0.769490123 0.076842621
v 0.031841341 0.932460487 0.069382928
v 0.017173246 0.932939708 0.070463665
v 0.190646932 0.857867062 -0.052573763
v 0.000491576 0.904278100 0.068633251
v -0.168563470 0.911656976 -0.012785072
v 0.199033111 0.835237980 -0.048258722
v -0.173288390 0.914066315 -0.044311129
v -0.173426062 0.909314752 -0.060773212
v -0.073871121 0.686813951 -0.088090122
v 0.046453752 0.932439029 0.067786552
v 0.196692780 0.849695206 -0.030843267
v 0.204452008 0.811361611 -0.036314137
v -0.169345453 0.904889107 -0.077980138
v -0.150660604 0.904083252 -0.109553203
v -0.122498907 0.894631863 -0.134239227
v -0.147936761 0.854902446 -0.109646842
v -0.103384219 0.688475311 -0.099570908
v 0.075479493 0.932578862 0.061946832
v 0.061048307 0.932532310 0.065328985
v -0.100824773 0.844199002 -0.137516886
v -0.000106830 0.861256599 0.061615624
v -0.107143320 0.861467540 -0.139316887
v 0.201644376 0.829782128 -0.023906099
v -0.121782877 0.680437922 -0.094879337
v 0.089472592 0.932432353 0.057324242
v -0.026790252 0.745486796 0.041238651
v -0.030805547 0.665029228 0.020788599
v 0.193062812 0.859941840 -0.014778890
v -0.195486248 0.850889206 -0.040877320
v -0.039112654 0.704022586 0.036876697
v 0.102996245 0.931997001 0.051679473
v 0.209849715 0.732431114 0.005133967
v -0.050919913 0.661687970 0.034291435
v 0.209470913 0.731023669 -0.013744602
v 0.199758291 0.844245911 -0.008238311
v 0.206093386 0.811864734 -0.010553909
v -0.051513027 0.712908864 0.049786396
v -0.068381883 0.659076035 0.053070545
v -0.090302691 0.659184754 0.062222559
v -0.087056413 0.704008758 0.064754173
v 0.195091456 0.836792111 0.017702065
v -0.088231273 0.688451111 0.063841738
v 0.203319028 0.828141510 -0.002671917
v -0.048368145 0.848085046 0.056126047
v 0.092383578 0.863985419 0.058961980
v -0.104136728 0.694774806 0.070788525
v 0.067011915 0.791629195 -0.102581955
v -0.111335441 0.656671822 0.070525810
v -0.201168150 0.703370214 -0.042870201
v -0.119335748 0.704320192 0.077501781
v -0.130544901 0.669872344 0.074332811
v 0.059969984 0.805066288 -0.103310421
v 0.165169090 0.883127987 0.023696102
v -0.120658197 0.686797619 0.076697655
v -0.206196338 0.690189242 -0.031263825
v -0.133520499 0.652780414 0.071291968
v 0.203137085 0.816392899 0.014219716
v 0.199144393 0.802710652 0.026201272
v -0.132450223 0.883474708 0.044536669
v -0.142270461 0.685800970 0.071181849
v -0.164010987 0.651788950 0.057527084
v 0.182412952 0.852887511 0.025874084
v 0.181232423 0.834709942 0.038422666
v -0.173067525 0.703368962 0.059797067
v -0.163010567 0.687018573 0.062706143
v 0.178025693 0.817687988 0.051603932
v -0.180716723 0.653454661 0.050731104
v 0.147527024 0.888779998 0.036882523
v -0.182439789 0.686968684 0.054605205
v 0.204065636 0.729315341 0.026169036
v -0.044952158 0.932968795 0.067782536
v -0.195259109 0.686252654 0.036149558
v -0.020655777 0.913783908 0.068430044
v 0.170064718 0.850165963 0.044008195
v -0.161539420 0.877488315 0.033005714
v 0.194209188 0.725343108 0.045766104
v -0.162994638 0.888309956 0.018892247
v -0.203123659 0.679428637 0.017655477
v 0.171043754 0.801236928 0.063217595
v -0.174050227 0.873343349 0.019793462
v 0.020375153 0.838411033 -0.124921218
v 0.021495726 0.854094505 -0.135074273
v 0.153642431 0.848055363 0.057232190
v -0.026801297 0.891017318 -0.141414866
v 0.165077284 0.833399892 0.059305657
v -0.203968972 0.697953761 0.021797724
v -0.021411020 0.873126805 -0.139347181
v 0.023863409 0.769690394 0.044719994
v -0.022213070 0.671493649 -0.064016782
v -0.041453544 0.877052486 -0.145750731
v 0.135774076 0.855525613 0.058306284
v -0.046833526 0.893695951 -0.145960495
v -0.177895010 0.885170162 0.004743192
v 0.152947575 0.814992785 0.065842047
v -0.188108206 0.869299531 0.004432356
v 0.135916725 0.800299168 0.072926335
v -0.187034518 0.870432556 -0.033345900
v -0.192975461 0.860139489 -0.017075554
v 0.140870050 0.836496949 0.064225487
v -0.184881687 0.877973378 -0.014498962
v 0.116232455 0.808137119 0.077060670
v -0.200580046 0.650358558 -0.007283130
v -0.205864102 0.687938035 0.001893346
v 0.098244295 0.728608251 0.071554899
v 0.117408141 0.726616442 0.079064243
v 0.098558031 0.755788982 -0.108629681
v 0.087665834 0.911082745 0.058642894
v -0.022025373 0.703843176 0.029696245
v 0.115741350 0.931877434 0.045835190
v -0.180844218 0.881533504 -0.049269803
v 0.128849372 0.742746294 0.078707725
v 0.114309177 0.846374869 0.066769525
v -0.206888720 0.694696367 -0.013026007
v -0.177472204 0.872728527 -0.067714490
v 0.127270266 0.931686759 0.039273888
v -0.160618037 0.867854476 -0.099711336
v 0.128487542 0.822417378 0.071204267
v -0.065833807 0.790444255 -0.102585733
v 0.087936789 0.746063232 0.068528615
v -0.199318126 0.645092249 -0.028402815
v 0.094266936 0.809621990 0.073724002
v -0.204730943 0.679189622 -0.017336894
v -0.193993300 0.685481668 -0.048728280
v -0.189059690 0.640839696 -0.043635335
v 0.068296179 0.743102074 0.060421221
v 0.105591990 0.827553749 0.074489281
v -0.067449205 0.762661755 -0.100937925
v 0.085216284 0.822151363 0.068672098
v -0.194090411 0.656481802 -0.040799968
v -0.186833590 0.698184609 -0.060622413
v 0.055483907 0.756514728 0.056054235
v -0.081324592 0.777417839 -0.106496558
v -0.180865183 0.646659255 -0.058247261
v 0.016892893 0.811396241 -0.100232229
v 0.083895549 0.841974854 0.067541212
v 0.067732118 0.857249141 0.057517450
v -0.181389168 0.679784179 -0.064112581
v 0.137812465 0.931110263 0.029687021
v 0.017335374 0.707403362 -0.075846836
v 0.018589756 0.693226218 -0.073088989
v -0.164319739 0.642469525 -0.070646904
v 0.146364465 0.930210471 0.018575821
v -0.129754633 0.776224017 -0.111271895
v 0.154681668 0.929179788 0.007562557
v -0.153072298 0.684749722 -0.081816494
v 0.042895008 0.860309601 -0.142062604
v -0.165562898 0.674149930 -0.074693143
v 0.162069291 0.928529441 -0.003980328
v 0.031051343 0.730882823 -0.084653609
v 0.034144163 0.747937679 -0.088669524
v -0.142736644 0.763787568 -0.103380844
v 0.168210730 0.927863777 -0.016457845
v -0.147968784 0.780502141 -0.103740528
v -0.105320796 0.893351674 -0.141542792
v -0.039714888 0.899337173 0.066209666
v 0.170762196 0.926363766 -0.030266484
v -0.145562470 0.640011907 -0.077008680
v -0.162239552 0.772924602 -0.095792398
v -0.150391787 0.669218242 -0.080549158
v -0.147809595 0.873919189 -0.117019393
v 0.170935556 0.924880207 -0.043677818
v -0.179553211 0.783332050 -0.088358879
v 0.031268314 0.680788279 -0.069587983
v -0.128079802 0.641424060 -0.083254054
v -0.189523205 0.777666211 -0.070941500
v 0.169603661 0.923255920 -0.057905145
v -0.135146767 0.860245228 -0.123181120
v 0.167078525 0.921463370 -0.072472110
v -0.199566528 0.793660879 -0.057544731
v -0.136649609 0.674018323 -0.087194696
v 0.178391904 0.760662556 0.062962011
v 0.161673367 0.919370353 -0.086112931
v -0.207775325 0.784561992 -0.040573999
v 0.044789605 0.763735831 -0.094496503
v -0.094193801 0.642521441 -0.083594866
v -0.024105150 0.655962825 -0.056030471
v 0.155180931 0.917656302 -0.100084685
v -0.206901401 0.799813330 -0.034670226
v 0.190106049 0.817949772 0.032312222
v -0.021814410 0.730859101 0.035672516
v 0.135183334 0.913120270 -0.122977540
v 0.188862488 0.797839463 0.045418479
v -0.064898983 0.801592708 0.059895553
v -0.104446270 0.670045137 -0.095766596
v -0.076496057 0.648774803 -0.077033654
v 0.050952055 0.681989968 -0.077011153
v -0.089106932 0.678567827 -0.091879703
v -0.059793394 0.663467586 -0.075060084
v -0.057188593 0.646761417 -0.068485036
v 0.071669079 0.704217792 -0.091240108
v 0.056687467 0.748834014 -0.095717952
v -0.188089356 0.778126061 0.052880727
v 0.047400739 0.820745170 0.051215060
v 0.038631979 0.803696156 0.048467796
v -0.187517986 0.797112644 0.047810502
v 0.031904418 0.786391616 0.048666604
v -0.030693945 0.782363296 -0.093171343
v 0.094503656 0.735954702 -0.105473205
v -0.169018090 0.808400750 0.061975140
v -0.058531992 0.691509247 -0.083196834
v -0.063170061 0.677928686 -0.081041619
v 0.102380261 0.694606602 -0.099956602
v -0.166133434 0.789145648 0.065920301
v -0.040853184 0.664775372 -0.066271529
v 0.123163544 0.911226630 -0.131128505
v 0.120697305 0.710362434 -0.103089198
v -0.047945365 0.680568576 -0.075580940
v -0.146593556 0.802052855 0.069356889
v -0.043742161 0.703778148 -0.080792710
v 0.109610304 0.909949183 -0.137479410
v -0.030538177 0.686022162 -0.070792243
v 0.111222148 0.673954487 -0.097370386
v -0.201883942 0.662129045 0.014060413
v -0.191405028 0.653469503 0.032694701
v 0.136484772 0.707529545 -0.095071830
v -0.137672275 0.786171734 0.073709354
v -0.121729985 0.797160029 0.076579854
v 0.117342032 0.745315313 -0.111838721
v -0.070934430 0.850653529 0.060601301
v -0.059575789 0.933464646 0.065389380
v -0.109239876 0.777759433 0.078333065
v 0.137194365 0.740512073 -0.101712584
v -0.098147608 0.793685496 0.074495897
v -0.081567638 0.836557209 0.065950431
v 0.172316328 0.746349275 -0.085581593
v -0.085424796 0.778532147 0.068668418
v 0.110597149 0.847303510 -0.135047615
v -0.072281405 0.819035053 0.061799280
v -0.093323298 0.823511422 0.072061874
v 0.187160537 0.741359174 -0.069119833
v -0.085875414 0.807732224 0.069254681
v 0.183850497 0.694154143 -0.063192964
v 0.191684276 0.707026243 -0.055394221
v -0.079527237 0.792918742 0.066880859
v -0.064550035 0.783086896 0.060362481
v -0.107085526 0.810394645 0.078276590
v -0.026395852 0.795655370 0.046118550
v -0.116326332 0.826288819 0.072234377
v -0.105517291 0.840288341 0.070253931
v 0.199503809 0.739240050 -0.051628392
v 0.208392307 0.716967940 -0.025637081
v -0.060294710 0.832833648 0.055970538
v -0.129776865 0.813052356 0.072174452
v -0.042819422 0.732277334 0.043605693
v -0.128113732 0.840709984 0.065215290
v 0.201177999 0.720934093 -0.045607347
v -0.143985108 0.854720950 0.056275658
v 0.208606720 0.715912759 -0.005887789
v -0.170325175 0.827338517 0.057465516
v 0.210560486 0.751577735 -0.011096971
v -0.150871143 0.818799675 0.065269217
v -0.060398322 0.866051316 0.058303077
v -0.167206138 0.845764518 0.051026739
v 0.205094501 0.683170259 -0.001385325
v -0.063556522 0.898452759 0.062764928
v -0.004852735 0.780622542 -0.090177000
v -0.058960527 0.915412247 0.064771183
v -0.178070024 0.848280132 0.034835666
v -0.198079035 0.803673089 0.027006697
v -0.040995933 0.918440521 0.067849547
v -0.004157676 0.795035899 -0.092283472
v -0.088048980 0.934090018 0.057635050
v -0.210736185 0.792609334 0.006352446
v 0.073493600 0.825672805 -0.124817513
v 0.115928747 0.883065701 -0.137355953
v -0.197846189 0.852713585 0.002904043
v -0.074027672 0.933862388 0.062133096
v 0.210181311 0.749848485 0.016223630
v 0.095358215 0.908997893 -0.144034475
v -0.178923026 0.887559772 -0.030810768
v 0.202044964 0.764513671 0.029193480
v -0.207681134 0.804093719 -0.013065128
v -0.203653291 0.823512197 -0.013624467
v -0.199865609 0.841889560 -0.017327232
v 0.079035327 0.908028960 -0.147328287
v 0.210453063 0.796177626 0.006926742
v 0.062687278 0.906850338 -0.147492319
v -0.082998037 0.867136121 0.057292007
v -0.017755462 0.855157852 -0.135080427
v 0.193830714 0.757854223 0.047099281
v 0.046891682 0.906614959 -0.145458966
v 0.056640841 0.892899215 -0.147081822
v 0.200031608 0.677829385 0.023485102
v -0.077248707 0.915878773 0.061439358
v -0.021998812 0.840887547 -0.127515808
v -0.201386571 0.814184964 -0.050751023
v -0.167052835 0.883460164 -0.084718540
v -0.093340024 0.854599833 0.065994859
v 0.030679088 0.906626523 -0.142061785
v -0.191441789 0.810638607 -0.069688901
v 0.014917386 0.906474471 -0.137878805
v -0.162853137 0.810013771 -0.098749831
v 0.179814562 0.685988426 0.056111507
v -0.180248260 0.802446187 -0.088143565
v 0.014552345 0.895380855 -0.139148980
v -0.001790580 0.906483471 -0.136537179
v 0.186503053 0.740822554 0.059218429
v 0.175530046 0.721865058 0.061335027
v 0.080151014 0.804197907 -0.106571689
v 0.017922157 0.908779144 0.068311825
v -0.164329395 0.829501510 -0.098339394
v -0.162628308 0.791478217 -0.098218717
v -0.162184075 0.903012395 -0.094652303
v 0.064389355 0.815645874 -0.113566771
v 0.163615525 0.741129696 0.067525096
v -0.142512947 0.797585607 -0.107301593
v -0.048208073 0.632324219 -0.058876760
v -0.107920334 0.803941846 -0.114340499
v -0.061604746 0.630313098 -0.065004751
v -0.074810669 0.628413081 -0.070709780
v -0.120541230 0.791289985 -0.116208985
v 0.141797185 0.731149316 0.074248232
v 0.154401332 0.716771364 0.068311520
v -0.087951101 0.626515746 -0.076384686
v 0.146207452 0.695950568 0.070502840
v -0.113182999 0.835306644 -0.123324655
v 0.038370140 0.902846217 0.066795751
v 0.024419330 0.891142547 0.066230923
v -0.101006970 0.624565244 -0.081941195
v 0.144944727 0.752600312 0.073354021
v -0.106117107 0.820414066 -0.114479110
v 0.127538487 0.757978737 0.078753486
v 0.132624894 0.711266398 0.076433569
v -0.115924098 0.623758256 -0.082929298
v -0.000615860 0.835447669 0.050508700
v -0.000857890 0.823315322 0.043816745
v -0.090900496 0.806455433 -0.109203674
v -0.129185706 0.623992503 -0.078655131
v -0.078197107 0.839012742 -0.138973802
v -0.098145813 0.790457249 -0.111555971
v -0.141737819 0.624144375 -0.074589975
v -0.155040726 0.624919116 -0.070377454
v -0.168334499 0.625432193 -0.066127092
v -0.048697695 0.812236190 0.050859582
v -0.025194263 0.812997937 0.044423997
v 0.081026450 0.731615901 0.064826593
v 0.083489925 0.715125918 0.064654186
v -0.178564325 0.626534045 -0.055835791
v -0.186078876 0.627815604 -0.044277318
v -0.028379232 0.762103319 0.043440256
v 0.066149436 0.725363553 0.058468979
v 0.048533052 0.737637639 0.051391792
v -0.193461314 0.628881931 -0.032867353
v -0.074902549 0.827252388 -0.126738772
v 0.074700907 0.759715676 0.064059190
v -0.197757304 0.630003095 -0.019870019
v -0.049496453 0.750908554 0.053007774
v 0.029203299 0.738084257 0.042020965
v -0.031668909 0.717497528 0.037084430
v -0.094804779 0.827751935 -0.129297987
v 0.025965035 0.701521873 0.033054911
v -0.061199814 0.732297182 0.056539733
v 0.068534173 0.790728748 0.062752567
v -0.032310382 0.691244483 0.030691633
v -0.050424177 0.692609668 0.042541344
v -0.055842221 0.846485019 -0.141454771
v -0.071780063 0.855710626 -0.145570770
v -0.068195552 0.765599847 0.061183702
v -0.057164751 0.865601897 -0.146573633
v 0.087967359 0.849484146 -0.142061219
v -0.197769940 0.631122768 -0.006393668
v 0.080660388 0.776450872 0.067131869
v -0.068362072 0.694987416 0.056437314
v -0.090996295 0.762112916 0.070302054
v 0.093267478 0.832183063 -0.132696152
v -0.071900651 0.715642571 0.059659977
v -0.082092881 0.732504845 0.064840175
v -0.073142432 0.882929325 0.060433406
v 0.068984970 0.685904086 -0.085489586
v -0.050170682 0.881911397 0.062729642
v 0.098645039 0.780028403 0.074697703
v -0.089613438 0.718819916 0.066882439
v 0.129935384 0.848856807 -0.120146848
v -0.197754353 0.632041097 0.006167701
v -0.026996437 0.778634667 0.046014152
v 0.088109136 0.676926672 -0.090567224
v -0.189550325 0.635162115 0.030989442
v -0.122355267 0.739878714 0.080223992
v 0.083734967 0.692960858 -0.093188569
v -0.183534712 0.636186481 0.042941518
v -0.103293322 0.728985429 0.073035739
v 0.112262383 0.768918514 0.079828508
v 0.119788863 0.787909150 0.078524791
v 0.124191999 0.863715768 -0.133309975
v -0.173162401 0.637238860 0.051747750
v -0.111996911 0.758289993 0.078447200
v -0.160919517 0.638193905 0.057323266
v -0.121424690 0.721374452 0.079386532
v -0.148506850 0.638857543 0.063067436
v -0.135899797 0.638968945 0.068846293
v -0.133114442 0.754474282 0.076697156
v -0.142624721 0.728235066 0.073262230
v -0.122986160 0.639778793 0.073410109
v 0.137655228 0.775718689 0.075368933
v -0.147348374 0.744295239 0.072359554
v -0.109519422 0.640638709 0.068507619
v -0.096174963 0.641453028 0.063170627
v 0.129902303 0.668528855 -0.088951945
v -0.150665641 0.760140657 0.070967712
v 0.175788999 0.781619191 0.064169094
v 0.130367011 0.682192564 -0.091076314
v 0.153244108 0.898200989 -0.107751869
v -0.082858652 0.642281353 0.057447363
v -0.139377713 0.712504625 0.073487274
v -0.069422632 0.643104374 0.051670849
v 0.127351046 0.896952808 -0.131767139
v -0.057921905 0.644539118 0.041246887
v -0.049011372 0.646388412 0.029691368
v 0.191880971 0.775857091 0.045966707
v 0.142203242 0.863774419 -0.119725600
v -0.037933193 0.647984684 0.019857455
v -0.024395637 0.648508191 0.013737644
v -0.169439107 0.769018769 0.065315410
v -0.019926760 0.658372104 0.022945132
v -0.164283782 0.733616948 0.066025242
v 0.145117238 0.678255558 -0.083692111
v 0.149663627 0.851127744 -0.104072429
v 0.201898888 0.784115732 0.027302980
v -0.188233227 0.758954644 0.057441849
v -0.180764660 0.720819533 0.058798544
v -0.184777260 0.739386916 0.059246700
v -0.044572886 0.762104392 -0.094399385
v 0.161640286 0.674149215 -0.075861156
v 0.209179848 0.791830301 -0.014395220
v 0.148603782 0.881415248 -0.115479507
v 0.010979833 0.796725035 -0.092899069
v -0.054742388 0.777748346 -0.099345788
v 0.065064013 0.763922930 -0.100149713
v -0.047357146 0.771356463 0.052944034
v 0.210723966 0.772529244 0.004015130
v -0.196787506 0.727778733 0.040678486
v -0.206173867 0.759015679 0.022141006
v -0.181301609 0.832466304 0.038954459
v 0.180160761 0.677324474 -0.064734198
v -0.205270603 0.717708468 0.021769937
v 0.120150365 0.910812676 0.043697339
v 0.209720135 0.772033393 -0.022292882
v -0.207209975 0.737921596 0.020449275
v -0.210952073 0.748958349 -0.000799292
v -0.210301131 0.761054993 -0.018818453
v 0.189954847 0.669511259 -0.050245337
v 0.209601969 0.755795777 -0.036670007
v -0.207967088 0.706819117 0.001750972
v -0.202969387 0.833333313 0.004448812
v 0.158127740 0.866388321 -0.104295924
v -0.030292679 0.932766557 0.069453880
v 0.204176828 0.774206221 -0.048384093
v 0.190611303 0.777393341 -0.068527922
v -0.082712054 0.818478286 -0.116233625
v -0.061384518 0.818816483 -0.117212161
v 0.193310827 0.687930882 -0.049458258
v -0.209595084 0.726912260 -0.004908797
v 0.198201060 0.660719931 -0.034951996
v 0.196946368 0.757876575 -0.057572223
v -0.018287674 0.906915367 -0.138062477
v -0.033652250 0.907143891 -0.143427268
v 0.170848519 0.854981542 -0.090911031
v 0.018470054 0.800288498 0.044103287
v -0.049777497 0.907309413 -0.146105051
v -0.046603851 0.790699899 0.052843791
v 0.185321495 0.758005857 -0.073459551
v 0.174670547 0.766092658 -0.088045597
v -0.065447465 0.908382118 -0.147900596
v 0.167197555 0.873511493 -0.087248273
v -0.208166793 0.708574891 -0.020374153
v -0.081526719 0.909357846 -0.146929294
v -0.086936586 0.890607834 -0.147755235
v -0.200822204 0.830854774 -0.036651298
v -0.097138122 0.910141349 -0.143047154
v -0.110980630 0.911390305 -0.136648178
v 0.154730648 0.755158067 -0.095619164
v -0.204798579 0.753640950 -0.047659393
v -0.192532271 0.832158446 -0.062363576
v -0.179271728 0.841362357 -0.082924321
v -0.208455831 0.722147703 -0.033118349
v 0.178366393 0.865433693 -0.070846915
v 0.167860165 0.905251801 -0.081060693
v -0.200000405 0.673165977 -0.036912370
v 0.050303228 0.788711846 0.055152755
v 0.134146929 0.757133126 -0.105937019
v -0.067794867 0.807450294 -0.104896426
v -0.190065250 0.760308981 -0.067475170
v 0.174039885 0.902146935 -0.064103857
v -0.080937043 0.794415474 -0.106870830
v -0.187705204 0.667093635 -0.053328626
v 0.116239667 0.762005389 -0.114111803
v -0.194320172 0.715471506 -0.054239113
v -0.177735105 0.711126626 -0.075568825
v 0.173755795 0.902315497 -0.046499699
v -0.187903270 0.726666629 -0.065357782
v -0.177801028 0.748123348 -0.083475158
v 0.187378660 0.869713485 -0.031659827
v -0.171258464 0.691907763 -0.075310536
v -0.023559805 0.702581763 -0.075517260
v 0.078798756 0.750821292 -0.102368772
v -0.124180757 0.913430512 -0.130279452
v -0.135813206 0.915461183 -0.121543981
v -0.159664840 0.755485296 -0.093836933
v -0.158279806 0.737734675 -0.091424897
v -0.158033103 0.719749808 -0.087745443
v -0.156644776 0.701906264 -0.084661260
v -0.128300607 0.827542484 -0.113325834
v 0.067691982 0.822819114 0.059927076
v 0.204835087 0.680731595 -0.029608246
v -0.155536205 0.920074582 -0.098797575
v -0.161352441 0.922131419 -0.085095339
v 0.207334548 0.699005187 -0.017187413
v -0.006780779 0.636812568 -0.045445569
v -0.166650325 0.924277425 -0.071554430
v 0.186135069 0.875755787 -0.008672356
v -0.168696135 0.925871074 -0.057215016
v -0.170266941 0.927773297 -0.043317758
v -0.169946760 0.929773331 -0.029936099
v 0.207843453 0.789236069 -0.035233997
v 0.172917336 0.908971786 -0.032297891
v -0.167248458 0.931212783 -0.016158367
v -0.160471290 0.931801021 -0.004011823
v -0.153247312 0.932521701 0.007802629
v 0.047913309 0.794732511 -0.097514644
v -0.145385906 0.933053493 0.019150591
v 0.171162620 0.906724095 -0.016316008
v -0.136312306 0.933898747 0.029888134
v -0.138116375 0.691918314 -0.090540484
v 0.179415628 0.872158527 0.014058381
v 0.014087239 0.736668408 -0.083387092
v -0.005878484 0.725655377 -0.080816999
v -0.005736663 0.739248991 -0.083003268
v 0.141651481 0.897230506 -0.120452687
v -0.139513612 0.709595144 -0.094655439
v -0.005425024 0.752760053 -0.086071610
v -0.139861554 0.746003926 -0.101737425
v 0.012285089 0.751984179 -0.086340956
v -0.005296119 0.766486168 -0.088740960
v -0.125831082 0.934338748 0.039552145
v 0.160567433 0.776564002 -0.096715428
v 0.162085652 0.908799946 -0.001665007
v -0.121952996 0.698738277 -0.099719577
v -0.114118934 0.934248269 0.045775454
v -0.101485863 0.934167504 0.051843494
v 0.154317111 0.898498356 0.017429514
v 0.042743683 0.842560649 -0.135737747
v -0.139780357 0.727661192 -0.098457210
v -0.120349549 0.756167173 -0.112813190
v 0.153754845 0.915854812 0.010687581
v -0.121682085 0.716720939 -0.104674898
v 0.169465810 0.865743160 0.032438479
v -0.101378538 0.706829906 -0.102499880
v -0.002671033 0.782197893 0.043107487
v -0.094170116 0.917707264 0.055318452
v 0.134135216 0.917718112 0.035652027
v 0.136720300 0.902283192 0.033900835
v 0.144574374 0.915035546 0.024104977
v -0.085929386 0.697337270 -0.095208853
v -0.099093236 0.724878371 -0.105270304
v -0.080833785 0.715309680 -0.096979618
v 0.045078263 0.707967162 0.043130372
v -0.098308384 0.743205667 -0.107768342
v 0.046928607 0.877353191 -0.146331221
v -0.077209912 0.732836783 -0.099730298
v 0.023595996 0.870691478 -0.139186740
v -0.040143482 0.836807132 -0.130411029
v -0.037347186 0.856208444 -0.140183508
v 0.204454616 0.695561111 0.020276846
v 0.189027697 0.705694437 0.053392492
v -0.053978391 0.724390388 -0.089714721
v -0.057676993 0.745096684 -0.095912531
v -0.145948499 0.917409897 -0.110418878
v 0.157376766 0.875818729 0.040095709
v 0.138924360 0.873857796 0.050339885
v -0.199713692 0.646526694 0.013295047
v 0.159436628 0.680429459 0.063751295
v 0.167092234 0.701203227 0.062562227
v -0.195956394 0.633709252 0.019267391
v 0.124213554 0.888228118 0.044025496
v -0.039861970 0.648021877 -0.057778202
v -0.036095295 0.634975553 -0.051598452
v 0.013425241 0.685856700 0.025213357
v -0.022238452 0.636704564 -0.046735607
v -0.003855453 0.930705070 0.077900872
v 0.062596917 0.868156314 -0.147942483
v -0.015618430 0.932611585 0.070352539
v -0.023951216 0.678934276 0.025142904
v 0.123393275 0.691415787 0.078229263
v 0.033462606 0.918704331 0.068296075
v 0.076125659 0.659048021 0.056861810
v 0.065558307 0.671893299 0.053588726
v 0.097011521 0.667894959 0.066136882
v 0.045705456 0.826680362 -0.123014495
v 0.116513096 0.671625435 0.074418262
v 0.051653940 0.675852895 0.040665589
v 0.195001870 0.660181403 0.028017029
v 0.118538655 0.867125034 0.056703478
v 0.105744146 0.880651474 0.052249201
v 0.174143165 0.891946495 0.002389539
v 0.101693794 0.686366260 0.069610104
v 0.178008050 0.889220417 -0.026594106
v 0.180640459 0.881598294 -0.051496577
v 0.051020008 0.916252792 0.066326074
v 0.083871916 0.696970701 0.063319318
v 0.105474211 0.707697332 0.072859630
v 0.169807568 0.885553062 -0.072714232
v 0.163974315 0.893455386 -0.091686495
v 0.082137354 0.678660035 0.060939290
v 0.159496173 0.882540822 -0.102281176
v 0.186006650 0.651482999 -0.051430661
v 0.169936702 0.657427132 -0.069811553
v 0.063627921 0.706092238 0.055906337
v 0.144229919 0.657431901 -0.081072934
v 0.134088248 0.880605876 -0.127851099
v 0.064932749 0.687832355 0.054769076
v 0.107681498 0.747246265 0.076579973
v 0.139354721 0.675006032 0.071287505
v 0.172901049 0.666873693 0.056374617
v 0.189904124 0.672125459 0.042525452
v 0.209205538 0.736440718 -0.031435944
v 0.155645803 0.734207392 -0.091487780
v 0.047966406 0.692549586 0.041406784
v 0.138185099 0.723197460 -0.097900793
v 0.202876806 0.666600585 -0.012898425
v 0.202289537 0.664519906 0.008260996
v 0.035375409 0.721413314 0.040948872
v 0.011161761 0.738915324 0.037973203
v 0.088992603 0.887490392 0.057178922
v 0.068321168 0.914831638 0.063378528
v 0.017197667 0.754415691 0.040614508
v 0.035382122 0.835457444 0.052275360
v 0.023247894 0.818661392 0.044382151
v 0.018807778 0.666527867 -0.062240552
v 0.057368487 0.899334073 0.063937992
v 0.036253922 0.696869850 -0.076880835
v 0.032792371 0.876854539 0.064384401
v 0.046233006 0.886220157 0.063936897
v 0.015695568 0.876191974 0.064845927
v 0.033923816 0.651568294 -0.058255650
v 0.054255348 0.700397730 -0.083838232
v 0.076393984 0.807345867 0.065061584
v 0.199621752 0.744189680 0.036971498
v 0.194622979 0.817615628 -0.061757803
v 0.055619676 0.647786498 -0.067958482
v 0.173631236 0.727011859 -0.080966063
v 0.123796880 0.792679131 -0.114652671
v 0.119735658 0.727963924 -0.108139858
v 0.079270862 0.644352078 -0.076709151
v 0.049235173 0.732906461 -0.089942180
v 0.036075700 0.780022264 -0.094004020
v 0.118029870 0.654692352 -0.089897081
v 0.101474963 0.640514493 -0.086016193
v 0.097385347 0.886163712 -0.144350395
v 0.074466035 0.897976041 0.061450981
v 0.068764225 0.878654182 0.060921330
v 0.127018616 0.638699889 -0.082488753
v 0.027279237 0.862795711 0.061053984
v 0.043480527 0.852088094 0.055527903
v 0.075796671 0.885962963 -0.148414806
v 0.151130110 0.639089584 -0.074398026
v 0.179474473 0.785113037 -0.088310599
v 0.021117300 0.824391246 -0.111887775
v 0.172251567 0.688877165 -0.073600195
v 0.172937796 0.638789177 -0.065662608
v 0.015431551 0.721673250 -0.080347389
v 0.184180632 0.635952830 -0.049225725
v 0.029203126 0.797214985 -0.095049120
v 0.194784388 0.641628444 -0.034118280
v 0.200857490 0.651739419 -0.019909848
v 0.062143914 0.773795247 0.059428800
v 0.103817858 0.865754962 -0.141107917
v 0.083176985 0.867521882 -0.147381768
v 0.016237929 0.780820966 -0.091072626
v 0.200348139 0.649837971 -0.002395252
v 0.123639360 0.694188476 -0.097391464
v 0.207383960 0.701248169 0.001825729
v 0.194915399 0.691051543 0.038769554
v 0.158472508 0.693773985 -0.081270084
v 0.142022043 0.694643259 -0.089064583
v 0.184919983 0.651855230 0.045740299
v 0.155558243 0.862919033 0.050753228
v 0.192746595 0.858784795 0.007592196
v 0.203320533 0.701493859 -0.038919415
v 0.043994177 0.665306687 -0.068971358
v 0.152363047 0.657843292 0.063611090
v 0.086151898 0.793008327 0.070111059
v 0.208242655 0.714321375 0.014430839
v 0.199255973 0.710214734 0.033592921
v 0.088248812 0.706128180 -0.097346582
v 0.132645220 0.654057384 0.072115950
v 0.114320658 0.832658648 -0.117702946
v -0.001727986 0.796034813 0.042418383
v -0.004370593 0.728295207 0.033734418
v 0.050885212 0.719813645 0.051037233
v 0.110238194 0.654057145 0.070432238
v 0.138536006 0.836553276 -0.107588604
v -0.003587598 0.768651605 0.040630430
v -0.001259846 0.809705377 0.041920822
v 0.092675388 0.652008176 0.063079968
v 0.020874057 0.848371983 0.056268644
v -0.000332325 0.848280787 0.056030042
v 0.105298236 0.898981869 0.051337820
v 0.056920826 0.659076154 0.044477016
v 0.103562474 0.917250156 0.051163934
v 0.199317619 0.646275401 0.015148593
v 0.102095626 0.795431435 0.076785937
v 0.032925766 0.888674080 -0.143566921
v 0.040053003 0.662215531 0.030765086
v 0.063933849 0.852774739 -0.144313201
v 0.017553031 0.666405618 0.022363894
v 0.033466630 0.681040049 0.030646045
v 0.040257938 0.812615037 -0.105439983
v 0.015347165 0.833989918 0.050431661
v 0.015564268 0.720213413 0.033588789
v -0.004751176 0.714939773 0.030746674
v -0.003872921 0.755040765 0.038694568
v 0.198932961 0.638668299 -0.014154250
v -0.004006646 0.741372705 0.037622839
v 0.068741530 0.665167153 -0.078970209
v 0.085118346 0.768356204 -0.106412962
v 0.104668520 0.778085411 -0.112318829
v 0.155003875 0.789751291 0.069263890
v 0.093906313 0.762796700 0.072054952
v 0.159057558 0.767543852 0.069007255
v 0.093408145 0.658865452 -0.087149560
v 0.191184476 0.643804550 0.030606115
f 555 540 123
f 389 162 497
f 567 540 568
f 583 104 251
f 463 489 430
f 453 94 255
f 483 484 162
f 446 640 671
f 574 577 251
f 50 244 238
f 52 244 50
f 575 57 53
f 55 249 52
f 55 2 250
f 577 248 563
f 575 437 432
f 57 597 589
f 2 265 262
f 589 592 57
f 262 259 2
f 5 267 262
f 602 606 589
f 5 9 11
f 58 606 610
f 11 272 5
f 12 278 11
f 565 793 8
f 630 60 632
f 13 425 12
f 424 289 160
f 289 424 13
f 643 649 60
f 181 403 179
f 483 206 484
f 163 651 174
f 53 563 558
f 651 65 650
f 163 389 384
f 683 66 65
f 455 558 563
f 165 384 171
f 340 331 34
f 67 66 683
f 206 470 63
f 385 102 856
f 67 702 70
f 344 340 696
f 179 403 406
f 710 70 702
f 16 352 14
f 111 112 59
f 63 64 655
f 18 368 16
f 710 742 753
f 119 112 111
f 394 671 545
f 551 922 903
f 19 375 18
f 753 740 711
f 406 470 179
f 261 615 108
f 545 453 439
f 178 386 530
f 24 386 23
f 72 753 742
f 26 396 24
f 768 765 72
f 119 142 112
f 32 63 470
f 112 142 161
f 399 400 396
f 154 343 182
f 545 671 448
f 399 415 400
f 768 770 765
f 32 406 410
f 418 415 399
f 770 183 777
f 387 300 166
f 415 418 422
f 105 86 299
f 169 42 839
f 170 142 119
f 173 172 705
f 329 638 343
f 134 738 737
f 185 638 329
f 692 661 145
f 150 74 741
f 637 345 873
f 132 145 661
f 170 184 142
f 138 495 760
f 138 136 188
f 136 194 188
f 201 87 194
f 270 87 205
f 216 49 210
f 46 216 724
f 198 184 170
f 43 96 907
f 219 39 218
f 45 43 41
f 224 37 219
f 498 224 514
f 86 105 342
f 225 36 514
f 378 107 110
f 80 233 107
f 22 41 43
f 198 217 849
f 41 581 45
f 103 233 76
f 76 40 103
f 222 217 214
f 678 100 40
f 98 41 22
f 366 41 98
f 40 76 678
f 215 4 284
f 215 98 21
f 537 536 92
f 222 234 217
f 904 537 92
f 460 462 30
f 284 471 366
f 222 239 246
f 586 903 759
f 462 28 30
f 246 234 222
f 454 449 28
f 237 391 924
f 560 319 921
f 246 888 252
f 431 471 282
f 455 560 391
f 319 560 241
f 50 238 793
f 50 566 52
f 52 574 55
f 258 263 510
f 244 52 249
f 55 253 2
f 284 792 657
f 303 670 667
f 303 100 674
f 250 249 55
f 273 274 252
f 251 253 574
f 100 303 301
f 301 570 100
f 104 261 257
f 677 100 678
f 273 285 274
f 257 2 253
f 2 257 265
f 250 2 259
f 570 568 40
f 752 292 293
f 294 296 285
f 285 296 274
f 684 497 679
f 277 274 296
f 440 447 442
f 579 489 463
f 692 329 695
f 259 262 267
f 871 736 360
f 262 271 9
f 40 100 570
f 570 567 568
f 203 128 270
f 310 296 294
f 305 296 310
f 87 270 194
f 9 5 262
f 5 272 600
f 276 9 271
f 9 276 11
f 272 11 278
f 302 323 310
f 568 103 40
f 108 615 89
f 280 11 276
f 11 280 12
f 103 568 540
f 278 12 425
f 323 337 328
f 283 12 280
f 12 283 13
f 283 297 289
f 289 13 283
f 540 561 231
f 425 13 424
f 209 288 205
f 291 125 286
f 346 337 323
f 49 304 288
f 173 350 351
f 297 654 314
f 347 158 864
f 304 47 311
f 47 304 49
f 47 46 481
f 360 361 855
f 501 684 146
f 481 311 47
f 46 39 481
f 343 695 329
f 314 289 297
f 289 314 160
f 481 321 308
f 481 39 321
f 325 122 321
f 325 321 37
f 37 321 39
f 333 160 314
f 324 266 333
f 527 107 231
f 84 121 325
f 36 327 498
f 160 333 34
f 327 120 84
f 36 82 371
f 277 393 390
f 689 34 333
f 34 689 340
f 313 34 331
f 266 334 689
f 334 260 341
f 340 335 331
f 107 527 110
f 54 404 405
f 696 14 344
f 61 401 44
f 38 299 407
f 358 14 348
f 14 358 16
f 344 14 352
f 356 704 712
f 352 16 368
f 413 62 417
f 370 16 358
f 16 370 18
f 175 705 134
f 713 115 110
f 371 27 378
f 27 371 82
f 381 18 370
f 18 381 19
f 368 18 375
f 80 378 27
f 19 381 235
f 19 395 23
f 19 23 178
f 202 506 913
f 23 395 24
f 386 24 396
f 398 24 395
f 24 398 26
f 26 398 220
f 26 412 399
f 396 26 399
f 418 399 412
f 164 180 444
f 444 443 164
f 175 173 705
f 685 84 120
f 422 300 415
f 685 121 84
f 172 169 300
f 172 300 422
f 78 80 27
f 226 365 78
f 89 615 114
f 240 485 309
f 134 737 175
f 226 27 82
f 245 459 452
f 187 186 140
f 243 459 245
f 189 187 130
f 581 466 579
f 467 472 637
f 308 122 240
f 138 579 466
f 430 255 463
f 499 435 430
f 453 430 435
f 435 440 439
f 435 499 450
f 243 479 281
f 308 321 122
f 897 438 584
f 439 453 435
f 243 281 893
f 450 440 435
f 480 859 865
f 440 449 447
f 442 439 440
f 450 449 440
f 447 449 454
f 492 488 493
f 127 458 456
f 449 456 28
f 82 225 708
f 454 28 462
f 28 456 30
f 456 450 127
f 30 456 458
f 225 82 36
f 30 464 460
f 506 507 502
f 126 469 125
f 287 508 509
f 207 507 506
f 410 460 32
f 126 306 477
f 460 464 644
f 644 32 460
f 32 644 63
f 475 31 576
f 470 406 32
f 64 63 644
f 306 309 477
f 125 464 458
f 528 795 511
f 516 523 524
f 655 206 63
f 206 655 484
f 206 474 470
f 162 679 497
f 316 322 822
f 313 160 34
f 37 498 325
f 523 316 534
f 497 684 501
f 501 146 505
f 146 512 503
f 505 503 513
f 263 515 510
f 512 120 115
f 503 512 91
f 517 513 503
f 115 713 91
f 458 203 125
f 315 547 548
f 91 512 115
f 547 330 336
f 91 713 88
f 517 88 522
f 552 548 547
f 532 88 713
f 88 532 519
f 552 336 553
f 522 519 541
f 527 231 561
f 127 128 458
f 538 660 692
f 514 36 498
f 224 498 37
f 538 692 695
f 114 626 631
f 553 342 105
f 219 37 39
f 555 660 561
f 127 450 499
f 891 199 824
f 660 555 661
f 218 39 46
f 199 97 886
f 366 98 284
f 22 21 98
f 41 366 581
f 43 232 22
f 907 232 43
f 96 536 907
f 45 463 255
f 45 581 463
f 255 94 96
f 255 96 45
f 94 453 545
f 448 546 545
f 582 593 594
f 595 584 438
f 216 46 47
f 216 47 49
f 551 640 558
f 558 640 569
f 49 288 209
f 793 565 50
f 569 53 558
f 566 50 565
f 209 210 49
f 841 351 350
f 574 52 566
f 578 53 57
f 612 609 423
f 53 578 563
f 575 53 569
f 597 432 211
f 253 55 574
f 57 575 597
f 578 57 592
f 592 583 578
f 627 609 612
f 584 621 628
f 603 589 606
f 602 589 597
f 634 819 627
f 610 606 602
f 835 318 229
f 626 606 58
f 610 624 58
f 58 624 630
f 632 58 630
f 634 884 869
f 58 632 626
f 60 642 632
f 642 60 649
f 60 630 181
f 650 649 643
f 662 652 645
f 656 628 621
f 621 636 656
f 658 659 204
f 64 644 469
f 466 495 138
f 694 377 700
f 468 471 431
f 663 650 65
f 628 656 668
f 679 162 484
f 65 686 663
f 672 673 659
f 686 65 66
f 683 65 651
f 468 431 478
f 683 693 67
f 685 146 684
f 146 685 512
f 696 340 689
f 66 67 701
f 473 495 478
f 66 698 686
f 702 67 693
f 668 675 687
f 701 698 66
f 405 690 54
f 701 67 70
f 54 690 564
f 14 696 348
f 711 70 710
f 699 70 711
f 702 709 710
f 229 318 236
f 657 282 471
f 710 709 742
f 753 756 740
f 756 753 72
f 742 754 72
f 72 754 768
f 72 765 756
f 766 765 770
f 490 193 496
f 130 772 496
f 770 776 766
f 15 719 168
f 87 201 148
f 183 770 768
f 201 194 136
f 422 705 172
f 633 777 338
f 777 633 150
f 408 74 633
f 638 185 408
f 106 730 258
f 688 379 694
f 275 631 118
f 185 692 145
f 197 750 749
f 736 737 738
f 263 258 730
f 738 741 743
f 185 145 143
f 743 741 744
f 744 741 74
f 744 467 879
f 132 140 145
f 123 132 661
f 741 738 150
f 123 540 567
f 773 772 567
f 738 134 150
f 78 27 226
f 238 623 1
f 264 279 779
f 776 150 134
f 134 705 420
f 695 541 538
f 104 599 261
f 365 681 680
f 761 762 763
f 365 678 76
f 76 78 365
f 411 156 420
f 156 411 220
f 541 519 538
f 220 764 156
f 76 233 78
f 80 78 233
f 168 789 387
f 70 699 701
f 398 395 228
f 434 437 445
f 779 780 887
f 428 432 434
f 926 317 706
f 197 749 745
f 213 6 4
f 279 785 780
f 419 427 428
f 148 201 745
f 454 462 419
f 526 782 783
f 381 734 235
f 410 414 419
f 493 769 913
f 511 4 215
f 4 511 213
f 406 414 410
f 208 731 729
f 21 511 215
f 210 728 727
f 794 800 823
f 511 21 529
f 470 474 179
f 724 218 46
f 227 110 115
f 118 280 275
f 219 218 722
f 806 800 794
f 803 804 256
f 716 778 225
f 224 219 720
f 407 86 690
f 356 734 381
f 389 497 380
f 809 795 528
f 810 806 811
f 717 716 514
f 497 501 380
f 317 697 429
f 810 818 821
f 913 771 202
f 341 698 699
f 373 376 159
f 369 177 373
f 341 260 698
f 260 334 266
f 365 226 681
f 517 522 354
f 828 821 818
f 354 362 364
f 569 640 446
f 519 522 88
f 767 828 818
f 266 324 676
f 602 597 211
f 804 834 256
f 121 240 122
f 345 868 918
f 610 602 211
f 169 839 166
f 427 195 211
f 643 179 174
f 683 651 165
f 693 683 171
f 627 884 634
f 324 654 676
f 846 397 841
f 841 397 374
f 362 709 369
f 580 397 846
f 192 188 190
f 192 499 489
f 128 192 190
f 270 205 203
f 205 288 286
f 291 306 126
f 208 148 733
f 288 304 291
f 304 311 306
f 311 481 308
f 286 125 203
f 283 118 297
f 589 599 592
f 283 280 118
f 227 115 120
f 747 805 732
f 707 226 82
f 107 378 80
f 275 114 631
f 118 646 297
f 89 114 275
f 231 233 103
f 87 209 205
f 816 872 870
f 271 108 89
f 248 560 455
f 248 241 560
f 108 271 265
f 566 565 241
f 86 876 690
f 622 244 619
f 517 91 88
f 574 566 248
f 715 662 889
f 244 249 618
f 249 250 614
f 882 465 718
f 253 251 257
f 774 465 882
f 250 259 608
f 883 494 774
f 921 391 560
f 259 267 604
f 54 564 847
f 251 577 583
f 600 267 5
f 89 276 271
f 503 91 517
f 690 405 407
f 275 276 89
f 892 573 582
f 272 278 596
f 248 577 574
f 280 276 275
f 425 588 591
f 425 424 781
f 781 313 572
f 424 313 781
f 572 585 781
f 314 654 324
f 136 197 201
f 313 557 572
f 237 551 558
f 554 331 335
f 334 341 348
f 760 136 138
f 335 344 549
f 341 699 704
f 348 696 334
f 921 319 7
f 358 348 704
f 344 352 544
f 912 582 594
f 903 586 551
f 352 368 543
f 381 370 356
f 368 375 539
f 788 8 3
f 535 375 178
f 221 795 809
f 828 767 562
f 559 833 920
f 921 920 899
f 546 448 898
f 903 922 836
f 38 903 299
f 235 228 395
f 405 669 407
f 546 92 94
f 400 518 520
f 92 546 904
f 639 35 926
f 386 396 525
f 927 926 33
f 928 605 930
f 200 490 298
f 94 545 546
f 96 92 536
f 927 56 852
f 143 472 408
f 220 412 26
f 400 520 521
f 412 220 411
f 109 113 152
f 920 832 559
f 418 412 411
f 152 113 746
f 387 789 786
f 420 418 411
f 746 161 867
f 418 420 422
f 490 773 298
f 496 772 773
f 394 442 445
f 562 767 832
f 739 636 820
f 204 725 658
f 773 490 496
f 725 223 635
f 447 454 428
f 472 186 637
f 215 284 98
f 189 130 496
f 458 464 30
f 410 462 460
f 125 469 464
f 635 247 487
f 487 269 629
f 641 487 629
f 268 269 487
f 269 393 629
f 390 269 268
f 469 126 64
f 349 761 763
f 655 64 477
f 303 674 670
f 290 393 277
f 611 290 928
f 163 474 483
f 928 307 605
f 635 641 648
f 531 605 533
f 677 674 100
f 477 309 485
f 506 202 207
f 679 485 240
f 240 121 684
f 312 912 594
f 684 679 240
f 121 685 684
f 186 187 345
f 503 505 146
f 912 332 892
f 772 130 132
f 685 120 512
f 501 505 159
f 725 648 658
f 505 513 373
f 513 517 364
f 892 847 564
f 110 527 713
f 714 847 339
f 522 541 154
f 51 714 346
f 231 103 540
f 714 51 404
f 541 695 343
f 567 772 123
f 502 500 506
f 578 577 563
f 867 659 673
f 577 578 583
f 597 575 432
f 592 104 583
f 913 492 493
f 845 167 839
f 599 104 592
f 386 178 23
f 599 603 615
f 110 227 378
f 615 261 599
f 706 402 639
f 603 626 114
f 132 123 772
f 624 610 195
f 409 706 317
f 746 673 682
f 114 615 603
f 120 327 227
f 624 414 403
f 691 429 697
f 642 631 632
f 642 118 631
f 429 433 853
f 646 118 642
f 642 649 646
f 152 682 691
f 682 433 691
f 181 643 60
f 654 297 646
f 122 325 121
f 140 130 187
f 421 416 617
f 123 661 555
f 309 308 240
f 698 260 686
f 702 693 177
f 698 701 699
f 672 441 436
f 291 126 125
f 109 691 697
f 143 140 186
f 874 872 816
f 665 441 672
f 188 192 489
f 665 658 653
f 712 704 699
f 653 451 665
f 927 697 317
f 712 740 734
f 648 461 653
f 178 375 19
f 923 880 116
f 641 461 648
f 740 756 748
f 748 758 228
f 926 706 639
f 479 641 482
f 754 742 362
f 354 754 362
f 407 669 38
f 203 458 128
f 482 629 620
f 756 765 758
f 182 754 154
f 128 127 192
f 254 246 252
f 611 382 620
f 764 398 228
f 499 192 127
f 764 766 156
f 766 776 156
f 930 611 928
f 420 156 776
f 140 132 130
f 788 7 8
f 387 166 168
f 420 776 134
f 136 760 197
f 300 387 415
f 750 197 760
f 745 201 197
f 148 208 209
f 733 148 745
f 258 35 106
f 593 533 605
f 731 208 733
f 236 318 910
f 729 210 208
f 728 210 729
f 727 216 210
f 188 489 579
f 929 573 556
f 724 216 727
f 573 929 582
f 723 218 724
f 722 218 723
f 720 219 722
f 717 224 720
f 514 224 717
f 188 579 138
f 876 556 573
f 707 681 226
f 898 904 546
f 472 143 186
f 212 795 221
f 899 391 921
f 854 925 931
f 213 795 212
f 140 143 145
f 404 54 714
f 833 922 924
f 415 387 786
f 143 408 185
f 238 3 793
f 1 3 238
f 31 799 752
f 622 238 244
f 918 799 515
f 380 376 171
f 915 752 357
f 617 476 421
f 619 244 618
f 618 249 616
f 616 249 614
f 636 739 613
f 388 613 10
f 614 250 608
f 357 791 915
f 383 688 388
f 608 259 607
f 571 438 576
f 295 667 666
f 92 96 94
f 607 259 604
f 372 726 700
f 667 295 303
f 367 726 372
f 604 267 601
f 298 295 207
f 923 875 880
f 363 732 367
f 408 467 74
f 148 209 87
f 298 301 295
f 359 747 363
f 601 267 600
f 359 355 755
f 600 272 598
f 598 272 596
f 353 755 355
f 301 298 773
f 596 278 591
f 747 755 751
f 591 278 425
f 588 425 781
f 388 688 813
f 769 771 913
f 763 353 349
f 202 771 200
f 506 500 913
f 74 467 744
f 773 570 301
f 82 708 707
f 320 647 326
f 500 492 913
f 331 554 557
f 242 910 320
f 344 335 340
f 910 908 647
f 554 335 550
f 239 222 703
f 549 550 335
f 549 344 544
f 166 167 168
f 544 352 543
f 543 368 542
f 17 15 167
f 17 845 157
f 907 536 919
f 157 850 155
f 155 850 153
f 542 368 539
f 150 633 74
f 153 854 151
f 151 854 149
f 149 858 147
f 147 862 144
f 539 375 535
f 759 903 38
f 530 535 178
f 144 862 141
f 141 866 139
f 139 866 137
f 530 386 525
f 137 870 135
f 525 396 521
f 135 870 872
f 133 872 131
f 131 874 129
f 129 923 117
f 923 874 875
f 170 119 902
f 521 396 400
f 20 932 101
f 99 101 932
f 99 886 97
f 95 97 199
f 95 891 93
f 93 896 90
f 518 400 786
f 90 896 85
f 85 901 83
f 83 905 81
f 169 166 300
f 81 905 79
f 77 79 796
f 77 909 75
f 439 394 545
f 75 914 73
f 73 914 71
f 71 916 69
f 442 394 439
f 468 466 366
f 442 447 434
f 7 562 920
f 794 534 811
f 924 899 833
f 434 447 428
f 428 454 419
f 419 462 410
f 38 898 759
f 902 111 897
f 466 468 495
f 526 524 534
f 25 59 56
f 96 43 45
f 895 401 61
f 182 343 338
f 483 389 163
f 483 162 389
f 897 59 25
f 883 894 775
f 776 777 150
f 59 897 111
f 380 384 389
f 774 882 893
f 111 902 119
f 778 708 225
f 501 159 380
f 167 166 839
f 159 505 373
f 176 191 867
f 373 513 369
f 364 369 513
f 850 890 925
f 354 364 517
f 354 522 154
f 177 369 709
f 154 541 343
f 446 445 437
f 376 380 159
f 204 223 725
f 217 198 214
f 214 703 222
f 437 569 446
f 610 211 195
f 414 624 195
f 403 630 624
f 889 718 715
f 160 313 424
f 181 630 403
f 888 246 239
f 179 643 181
f 174 650 643
f 651 650 174
f 163 384 165
f 487 247 268
f 165 651 163
f 171 683 165
f 174 474 163
f 557 313 331
f 475 515 799
f 376 693 171
f 285 273 757
f 177 693 376
f 627 885 884
f 174 179 474
f 509 508 516
f 294 302 310
f 709 702 177
f 709 362 742
f 154 754 354
f 182 338 183
f 780 785 803
f 183 768 182
f 423 413 881
f 183 338 777
f 638 338 343
f 633 638 408
f 590 401 895
f 692 185 329
f 190 188 194
f 515 475 25
f 270 190 194
f 190 270 128
f 195 427 414
f 7 788 562
f 915 878 571
f 877 595 438
f 203 205 286
f 44 48 61
f 474 206 483
f 210 209 208
f 61 62 895
f 413 895 62
f 211 432 427
f 172 42 169
f 398 764 220
f 515 263 918
f 437 575 569
f 228 758 764
f 124 885 426
f 175 871 350
f 84 498 327
f 225 514 716
f 327 371 227
f 918 263 730
f 898 448 759
f 371 327 36
f 839 374 890
f 227 371 378
f 451 441 665
f 228 235 748
f 444 180 457
f 233 231 107
f 187 868 345
f 759 448 586
f 189 292 868
f 734 748 235
f 653 461 826
f 924 922 237
f 292 193 196
f 446 671 394
f 461 641 479
f 922 551 237
f 391 237 455
f 482 641 629
f 918 868 799
f 196 200 293
f 771 293 200
f 558 455 237
f 281 287 894
f 894 893 281
f 248 566 241
f 257 251 104
f 255 430 453
f 257 261 265
f 509 775 287
f 260 266 676
f 509 516 524
f 265 261 108
f 523 516 531
f 322 316 523
f 273 252 888
f 265 271 262
f 811 534 316
f 316 315 811
f 676 686 260
f 366 466 581
f 478 495 468
f 330 547 315
f 547 336 552
f 366 471 468
f 760 495 473
f 657 471 284
f 336 342 553
f 553 900 552
f 832 900 553
f 865 878 791
f 792 284 4
f 31 571 576
f 286 288 291
f 438 571 877
f 906 864 863
f 4 790 792
f 8 7 319
f 303 295 301
f 291 304 306
f 570 773 567
f 739 617 392
f 617 416 392
f 306 311 309
f 309 311 308
f 170 628 668
f 613 739 10
f 739 392 10
f 656 675 668
f 656 815 675
f 680 678 365
f 813 613 388
f 324 333 314
f 687 198 668
f 379 688 383
f 295 666 207
f 815 656 636
f 377 694 379
f 325 498 84
f 689 333 266
f 334 696 689
f 700 377 372
f 861 834 860
f 703 721 239
f 732 726 367
f 834 861 256
f 348 341 704
f 747 732 363
f 356 358 704
f 735 888 721
f 370 358 356
f 735 264 757
f 735 273 888
f 755 747 359
f 369 364 362
f 353 763 755
f 647 761 326
f 761 349 326
f 376 373 177
f 779 757 264
f 780 779 279
f 384 380 171
f 235 395 19
f 736 871 737
f 562 788 917
f 910 647 320
f 785 804 803
f 414 406 403
f 256 323 803
f 813 675 815
f 415 786 400
f 427 419 414
f 422 420 705
f 432 428 427
f 430 489 499
f 587 580 590
f 437 434 432
f 445 442 434
f 446 394 445
f 671 586 448
f 819 609 627
f 456 449 450
f 455 563 248
f 865 791 769
f 581 579 463
f 645 652 817
f 644 464 469
f 652 662 715
f 874 923 129
f 715 664 652
f 694 812 688
f 477 64 126
f 750 760 473
f 485 655 477
f 465 715 718
f 507 207 666
f 465 774 494
f 865 486 480
f 812 675 813
f 485 484 655
f 207 202 298
f 883 504 825
f 493 865 769
f 783 782 504
f 679 484 485
f 202 200 298
f 196 490 200
f 196 193 490
f 877 859 476
f 302 803 323
f 189 496 193
f 814 806 810
f 168 719 789
f 821 814 810
f 391 899 924
f 713 527 532
f 467 408 472
f 302 294 887
f 786 787 518
f 538 519 532
f 561 532 527
f 926 35 33
f 538 532 660
f 540 555 561
f 551 586 640
f 319 241 565
f 660 532 561
f 113 161 746
f 161 176 867
f 8 319 565
f 223 247 635
f 781 585 784
f 620 629 393
f 887 780 302
f 269 390 393
f 671 640 586
f 781 784 588
f 599 589 603
f 393 290 611
f 626 603 606
f 928 290 305
f 623 238 622
f 625 1 623
f 774 893 894
f 312 332 912
f 626 632 631
f 332 339 847
f 847 892 332
f 757 887 285
f 847 714 54
f 793 3 8
f 732 807 726
f 858 931 857
f 675 812 687
f 168 167 15
f 273 735 757
f 920 921 7
f 402 385 639
f 167 845 17
f 638 633 338
f 646 649 663
f 650 663 649
f 845 850 157
f 888 239 721
f 663 654 646
f 706 409 48
f 850 854 153
f 676 654 663
f 429 409 317
f 661 692 660
f 854 858 149
f 676 663 686
f 858 862 147
f 433 429 691
f 678 680 677
f 699 711 712
f 712 734 356
f 711 710 753
f 862 866 141
f 712 711 740
f 682 436 827
f 734 740 748
f 866 870 137
f 214 687 808
f 748 756 758
f 664 816 652
f 872 133 135
f 198 687 214
f 754 182 768
f 872 874 131
f 665 659 658
f 758 765 766
f 658 648 653
f 766 764 758
f 776 770 777
f 668 198 170
f 117 923 116
f 787 786 789
f 929 330 822
f 533 822 322
f 556 336 330
f 531 322 523
f 899 920 833
f 662 444 889
f 346 323 256
f 491 482 620
f 116 880 911
f 911 20 116
f 382 491 620
f 911 932 20
f 932 886 99
f 645 443 662
f 930 382 611
f 382 930 516
f 886 824 199
f 605 531 930
f 491 508 848
f 628 170 902
f 256 347 346
f 482 848 479
f 891 896 93
f 347 256 861
f 820 617 739
f 866 819 817
f 605 594 593
f 896 901 85
f 929 593 582
f 612 881 885
f 901 905 83
f 826 451 653
f 451 457 180
f 672 659 665
f 441 180 851
f 79 905 796
f 436 673 672
f 436 851 827
f 909 914 75
f 682 673 436
f 914 916 71
f 584 902 897
f 876 86 342
f 69 916 1
f 829 433 827
f 700 808 694
f 788 3 916
f 853 829 417
f 409 61 48
f 402 48 855
f 870 817 816
f 855 29 360
f 874 816 664
f 385 361 102
f 830 880 875
f 576 897 25
f 819 634 817
f 68 69 1
f 106 856 730
f 743 736 738
f 910 242 236
f 862 857 819
f 744 879 102
f 880 830 831
f 840 528 843
f 401 846 44
f 803 302 780
f 769 791 357
f 878 915 791
f 831 911 880
f 918 873 345
f 576 25 475
f 799 31 475
f 841 29 846
f 879 856 102
f 106 639 385
f 573 564 876
f 911 831 802
f 342 556 876
f 337 339 332
f 25 510 515
f 350 29 841
f 564 573 892
f 892 582 912
f 510 25 56
f 864 906 837
f 312 328 337
f 929 822 593
f 33 35 258
f 871 360 29
f 840 860 835
f 864 158 863
f 29 855 44
f 916 914 917
f 808 687 812
f 594 307 312
f 307 305 328
f 916 917 788
f 33 56 927
f 840 835 809
f 307 594 605
f 736 743 361
f 531 516 930
f 290 277 305
f 852 109 927
f 318 835 860
f 21 844 529
f 852 59 112
f 620 393 611
f 102 743 744
f 112 113 852
f 751 763 762
f 647 785 762
f 805 747 751
f 252 268 254
f 230 835 229
f 487 641 635
f 637 879 467
f 124 851 164
f 809 230 221
f 161 142 176
f 807 732 805
f 247 234 254
f 230 809 835
f 808 700 807
f 345 637 186
f 176 184 191
f 812 694 808
f 204 849 223
f 849 204 191
f 813 688 812
f 635 648 725
f 849 184 198
f 815 613 813
f 815 636 613
f 217 223 849
f 659 191 204
f 217 234 223
f 191 184 849
f 859 480 421
f 795 213 511
f 245 461 243
f 878 865 859
f 802 886 932
f 191 659 867
f 452 718 889
f 223 234 247
f 176 142 184
f 246 254 234
f 865 493 486
f 293 771 357
f 268 247 254
f 771 769 357
f 805 264 735
f 268 252 390
f 161 113 112
f 486 493 488
f 390 252 274
f 867 673 746
f 264 751 279
f 274 277 390
f 746 682 152
f 281 848 287
f 827 433 682
f 808 703 214
f 152 691 109
f 109 852 113
f 476 859 421
f 296 305 277
f 476 595 877
f 305 307 928
f 196 293 292
f 595 476 820
f 726 807 700
f 752 293 357
f 307 328 312
f 310 328 305
f 56 59 852
f 292 752 799
f 328 310 323
f 886 825 824
f 312 337 332
f 807 703 808
f 891 824 782
f 193 292 189
f 844 21 22
f 429 853 409
f 109 697 927
f 56 33 510
f 105 559 553
f 339 337 346
f 346 714 339
f 51 346 347
f 317 926 927
f 564 690 876
f 863 844 232
f 799 868 292
f 510 33 258
f 843 528 529
f 844 863 842
f 861 840 843
f 861 158 347
f 861 860 840
f 752 915 31
f 158 843 842
f 843 158 861
f 842 529 844
f 919 837 906
f 906 232 907
f 809 528 840
f 730 873 918
f 730 856 873
f 873 856 879
f 856 106 385
f 817 634 645
f 837 919 838
f 817 652 816
f 919 906 907
f 919 536 537
f 743 102 361
f 904 669 838
f 898 669 904
f 669 898 38
f 703 807 721
f 405 404 838
f 669 405 838
f 922 833 836
f 294 285 887
f 361 385 402
f 869 645 634
f 830 875 664
f 916 3 1
f 864 51 347
f 402 855 361
f 909 801 914
f 397 890 374
f 48 44 855
f 796 909 77
f 879 637 873
f 901 798 905
f 580 925 397
f 48 402 706
f 896 800 901
f 891 823 896
f 409 62 61
f 853 62 409
f 881 413 417
f 417 62 853
f 86 407 299
f 459 893 882
f 199 891 95
f 830 465 831
f 829 426 417
f 426 829 124
f 426 881 417
f 124 829 827
f 433 829 853
f 886 802 825
f 774 894 883
f 851 124 827
f 164 884 124
f 441 851 436
f 180 164 851
f 443 869 164
f 911 802 932
f 715 830 664
f 874 664 875
f 736 361 360
f 451 180 441
f 457 452 889
f 889 444 457
f 866 817 870
f 106 35 639
f 459 718 452
f 826 452 457
f 452 826 245
f 451 826 457
f 862 819 866
f 858 857 862
f 461 245 826
f 459 882 718
f 479 243 461
f 854 931 858
f 850 925 854
f 846 401 580
f 845 890 850
f 491 848 482
f 848 281 479
f 825 494 883
f 382 508 491
f 900 832 767
f 508 287 848
f 896 823 800
f 839 890 845
f 504 782 824
f 42 374 839
f 516 508 382
f 908 910 318
f 534 524 523
f 552 818 548
f 42 172 173
f 901 800 798
f 818 552 900
f 533 322 531
f 871 175 737
f 868 187 189
f 22 232 844
f 593 822 533
f 822 315 316
f 929 556 330
f 330 315 822
f 838 919 537
f 904 838 537
f 318 860 834
f 908 318 834
f 465 830 715
f 556 342 336
f 105 836 559
f 833 559 836
f 29 44 846
f 908 834 804
f 562 917 828
f 299 836 105
f 818 900 767
f 832 553 559
f 562 832 920
f 811 315 548
f 828 801 821
f 801 828 917
f 821 797 814
f 836 299 903
f 401 590 580
f 797 821 801
f 905 798 796
f 796 814 797
f 810 548 818
f 814 798 806
f 798 814 796
f 909 796 797
f 811 548 810
f 413 587 590
f 404 51 837
f 51 864 837
f 837 838 404
f 909 797 801
f 529 842 843
f 158 842 863
f 232 906 863
f 800 806 798
f 529 528 511
f 794 811 806
f 785 908 804
f 785 647 908
f 859 877 878
f 526 534 794
f 877 571 878
f 571 31 915
f 173 351 42
f 524 783 509
f 350 173 175
f 29 350 871
f 823 526 794
f 783 524 526
f 526 823 782
f 42 351 374
f 841 374 351
f 504 775 783
f 509 783 775
f 782 823 891
f 885 124 884
f 887 757 779
f 914 801 917
f 426 885 881
f 890 397 925
f 825 504 824
f 775 504 883
f 925 587 931
f 587 925 580
f 802 494 825
f 785 279 762
f 494 831 465
f 831 494 802
f 894 287 775
f 590 895 413
f 438 897 576
f 884 164 869
f 762 279 751
f 423 931 587
f 587 413 423
f 931 423 857
f 762 761 647
f 617 820 476
f 595 820 621
f 751 755 763
f 893 459 243
f 751 264 805
f 609 857 423
f 423 881 612
f 662 443 444
f 721 805 735
f 621 584 595
f 857 609 819
f 443 645 869
f 612 885 627
f 636 621 820
f 628 902 584
f 805 721 807
