# avbd fit, rung f60-i16-s300-r1-h180 of Gate 6d (body space, fit phase only)
v -0.006559433 0.576147854 0.069601342
v -0.124432400 0.603499293 0.069580585
v -0.006388245 0.593109906 0.070835605
v 0.000541799 0.908436477 0.085614882
v -0.153810903 0.585430741 0.056407671
v 0.004748641 0.922437668 0.095141560
v -0.006024443 0.627164006 0.073961630
v -0.006145641 0.610048771 0.072969325
v -0.157173946 0.604321957 0.058122933
v 0.150001600 0.927650928 -0.102556899
v -0.175790429 0.598137975 0.046756051
v -0.185836345 0.600743413 0.025636697
v -0.194419220 0.602438450 0.007837555
v -0.163781747 0.602407813 -0.083091572
v 0.009378135 0.568039060 -0.099876359
v -0.143835738 0.597600937 -0.087677710
v 0.026755199 0.567891717 -0.100126222
v -0.145797849 0.600067139 -0.108182214
v -0.125982508 0.606785357 -0.103754833
v 0.186150134 0.560321569 -0.009192592
v 0.000086551 0.873608470 0.082425222
v -0.000151161 0.856196582 0.080957249
v -0.107520700 0.601271510 -0.102129914
v -0.107258178 0.609113812 -0.118406758
v 0.098092005 0.814410329 -0.133905664
v -0.091459729 0.618412137 -0.111397885
v -0.138257772 0.887224317 -0.129349783
v -0.148564428 0.789505184 0.072408289
v 0.042644843 0.674259841 -0.112759031
v -0.163730249 0.800922990 0.066574551
v 0.071383961 0.847365201 -0.146682069
v -0.194582820 0.775504351 0.040900525
v 0.092204928 0.771244228 -0.128882572
v -0.189516932 0.598758698 -0.037873242
v 0.077375039 0.758335948 -0.128386050
v -0.160093829 0.890573621 -0.100691214
v -0.177332655 0.885631263 -0.057904005
v 0.014459272 0.734785736 0.076756120
v -0.180892706 0.889613152 -0.036688726
v -0.082838461 0.889032722 -0.148590863
v -0.031586792 0.860569179 0.080935620
v 0.011470952 0.629110336 -0.104776993
v -0.020100467 0.839166522 0.079255000
v 0.067223199 0.680178344 -0.116446599
v -0.043794300 0.840513706 0.080149785
v -0.189256221 0.897782028 -0.018307585
v -0.184622869 0.879964948 -0.005521197
v 0.077449284 0.702662766 -0.120668843
v -0.177512273 0.885436893 0.014908264
v -0.050746460 0.598268092 0.073788717
v 0.065230615 0.807762802 0.081894241
v -0.075432964 0.599865019 0.077848054
v -0.086917818 0.691077828 0.084480442
v 0.064559095 0.764944196 0.081073403
v -0.099316657 0.599802971 0.083613276
v 0.106353626 0.788504362 -0.126311153
v -0.112671591 0.688576460 0.080695555
v -0.177081779 0.697052181 0.057952691
v 0.122290626 0.803314686 -0.133709297
v -0.201027125 0.694241583 0.026759287
v 0.089947686 0.684862733 -0.118559286
v 0.111174025 0.682866573 -0.113303110
v -0.204524919 0.787193418 0.021965971
v -0.199987188 0.809380710 0.021065164
v -0.202991128 0.694955528 -0.038815092
v -0.186953023 0.690128744 -0.058870070
v -0.176811785 0.703965366 -0.074843511
v 0.008536031 0.575308561 0.078493804
v 0.013422248 0.561071038 0.070804648
v -0.161742628 0.691678464 -0.091302276
v 0.030714890 0.561163962 0.070757285
v -0.124319814 0.705644310 -0.107982203
v 0.047703110 0.560968757 0.071187355
v -0.025411595 0.737514853 -0.122228280
v 0.064599559 0.560702443 0.071892932
v -0.102022037 0.890498459 -0.143270478
v 0.081166655 0.560403705 0.074216858
v -0.119615473 0.890922666 -0.135645971
v 0.097296029 0.560067832 0.077679202
v -0.126675308 0.874177158 -0.133535385
v 0.110990860 0.560427904 0.068957224
v -0.144944131 0.903272152 -0.117832638
v 0.126572371 0.559510350 0.073183365
v -0.176865742 0.853835285 -0.084069692
v 0.142076269 0.559862733 0.069545165
v 0.048896965 0.720136225 0.078354962
v -0.155478433 0.883507907 0.057270505
v -0.129741758 0.797962546 -0.130061716
v -0.160459787 0.635676742 0.061237819
v 0.157249004 0.559545040 0.070215553
v -0.146722108 0.806790471 -0.116938315
v -0.020941950 0.792160809 0.077127211
v 0.148966238 0.561196685 0.056423455
v -0.043432780 0.795675039 0.079020657
v 0.163157165 0.559547961 0.048895337
v -0.027733881 0.816402137 0.078137860
v 0.173481792 0.558454335 0.036535729
v -0.019810501 0.879419208 0.082261458
v 0.181844249 0.557896972 0.022707460
v -0.070318408 0.906349838 -0.149343655
v 0.185362667 0.558795810 0.006856108
v 0.025575344 0.738858700 -0.122264408
v -0.093750060 0.870690942 -0.146319777
v -0.122232020 0.648140192 0.074026003
v 0.041552097 0.697753310 0.077215448
v 0.058913577 0.757993102 -0.127826497
v -0.123072922 0.856063366 -0.135230288
v -0.153961450 0.631171107 0.079278260
v 0.132543102 0.756297290 -0.126656994
v -0.137561142 0.842945099 -0.127895474
v 0.134055898 0.815169632 -0.121761695
v 0.139503956 0.793681979 -0.114307068
v 0.139070660 0.770031035 -0.112032637
v -0.166096419 0.655603528 0.057808172
v -0.149752140 0.830202103 -0.114628196
v 0.202302694 0.558752060 -0.010531032
v 0.192074031 0.559398770 -0.021460708
v -0.193683028 0.644394577 0.026252633
v 0.148774758 0.813913345 -0.109351471
v -0.162665516 0.841492295 -0.097672723
v -0.189000949 0.838993251 -0.067032412
v -0.193873182 0.852195263 -0.050962538
v -0.061855279 0.837363839 -0.147460893
v 0.143079147 0.675162673 -0.092513688
v -0.177129567 0.832685649 0.044912204
v -0.193080813 0.830169380 0.022801120
v -0.130800888 0.824703395 0.072851315
v -0.143655896 0.842584014 0.070193797
v 0.186561197 0.559339166 -0.036332309
v -0.024756823 0.826108456 -0.145362347
v 0.182750732 0.558847487 -0.051903881
v -0.045103479 0.821491063 -0.145306289
v 0.167062983 0.559823871 -0.055573266
v -0.031899892 0.683211923 -0.113092519
v 0.167897895 0.559234202 -0.071488194
v -0.117527984 0.888499141 0.063882664
v 0.171535313 0.561514258 -0.086658515
v -0.095310353 0.883878350 0.069847360
v 0.167721987 0.563024104 -0.102091394
v -0.026079882 0.805954099 -0.139622718
v 0.151700050 0.562333465 -0.104545452
v 0.161045998 0.800752044 -0.099534705
v -0.027997300 0.785057187 -0.133694619
v 0.136759117 0.563603044 -0.107327305
v -0.048083141 0.800227761 -0.139568537
v -0.179049298 0.803971112 -0.089936614
v 0.122816086 0.564034641 -0.099642090
v -0.153851345 0.902845383 0.047333121
v 0.109636411 0.565282106 -0.108912930
v -0.036243159 0.711311936 -0.118026271
v 0.093295872 0.565617502 -0.108804859
v 0.138883546 0.749005675 -0.109710850
v 0.077041067 0.566191494 -0.106107414
v -0.110419586 0.755977452 -0.116053857
v 0.060512833 0.566888928 -0.103395246
v -0.076758340 0.663798928 -0.115731873
v 0.043804504 0.567447662 -0.101074897
v 0.055729620 0.846383572 0.081227288
v -0.182013690 0.767813385 -0.081365697
v -0.206747368 0.604270399 -0.023331601
v 0.154757723 0.778471589 -0.100609720
v -0.208081603 0.784865975 -0.036282592
v -0.209817097 0.744826496 -0.027378675
v 0.164974540 0.664840937 -0.084919289
v -0.202835917 0.731672466 -0.046292417
v -0.008321569 0.601186275 -0.101666674
v 0.014170839 0.587641418 -0.100778401
v -0.008453317 0.584414124 -0.100516215
v -0.008000473 0.618098021 -0.103423558
v 0.166890994 0.826282978 -0.098289706
v -0.191743150 0.738182485 -0.062697031
v -0.007696022 0.635154128 -0.105444409
v -0.007404489 0.652352154 -0.107699670
v -0.209614277 0.727511406 -0.007679919
v -0.007009649 0.669668615 -0.110145591
v 0.172213942 0.784921765 -0.092650577
v -0.165705130 0.736582696 -0.091051951
v -0.114912733 0.583664775 -0.096879534
v -0.207355857 0.736902356 0.020003939
v 0.175581679 0.683102965 -0.071034588
v -0.201566055 0.715772092 0.029288778
v -0.099711165 0.737291396 -0.124827541
v -0.086367629 0.720853448 -0.129370958
v 0.181173071 0.804783225 -0.086094946
v -0.050498016 0.778194785 -0.133736938
v -0.003838383 0.793100715 -0.134630337
v -0.003480900 0.810410202 -0.139651820
v -0.108787134 0.864943802 0.069180094
v -0.003147552 0.827506065 -0.144501954
v -0.131024450 0.858066857 0.068802446
v 0.185150862 0.777987123 -0.077742644
v -0.117602326 0.842718601 0.071882777
v -0.002856323 0.844587505 -0.148201585
v -0.134905249 0.877178192 0.066271611
v -0.165839285 0.725946248 0.070710860
v -0.002673624 0.861761868 -0.150624305
v -0.125302732 0.908098698 0.060118847
v 0.186760709 0.828923345 -0.073431358
v 0.173062474 0.578122497 0.043321516
v -0.002555899 0.878921211 -0.151739389
v -0.140982956 0.897751510 0.063134380
v -0.002451783 0.895964146 -0.151382536
v -0.163531229 0.846950173 0.059324432
v 0.195891842 0.769056141 -0.059340172
v -0.159947127 0.866205513 0.046446688
v -0.210764319 0.777438939 0.001233668
v -0.002361479 0.912791073 -0.149596095
v -0.147021949 0.901557446 0.028018599
v -0.157522410 0.884141743 0.031537153
v -0.166059792 0.903783798 0.015713178
v -0.146952361 0.718887866 0.078013621
v 0.035958149 0.924607456 0.084801786
v 0.019056026 0.924964905 0.086950496
v 0.196104661 0.845426559 -0.051162265
v 0.000339156 0.891013265 0.083786003
v -0.172894195 0.899004638 -0.005353179
v 0.201069281 0.816417694 -0.049992539
v -0.177677363 0.908641219 -0.030594010
v -0.174357414 0.906029701 -0.049196836
v -0.087976448 0.641608834 -0.114064395
v 0.052730113 0.924439728 0.082005285
v 0.201118141 0.830696285 -0.030488718
v 0.207570344 0.785263598 -0.041974209
v -0.173412859 0.905333638 -0.068615980
v -0.154798314 0.911523521 -0.102673076
v -0.130082160 0.907743633 -0.133179635
v -0.151081339 0.853700936 -0.112981878
v -0.106910691 0.645669341 -0.103271827
v 0.085743755 0.923685253 0.074658670
v 0.069346830 0.924140334 0.078561202
v -0.104278728 0.852512956 -0.142559856
v -0.000477784 0.838688195 0.079155974
v -0.111291386 0.872304440 -0.140545994
v 0.206175834 0.805855572 -0.026461411
v -0.125358254 0.633354366 -0.104857899
v 0.100977637 0.922955334 0.067874067
v -0.030553371 0.684703708 0.076144531
v -0.033670615 0.580235839 0.068647169
v 0.200218007 0.840753436 -0.011941290
v -0.200526118 0.830681622 -0.042317547
v -0.045855798 0.631428599 0.075355068
v 0.113199726 0.921726406 0.056829326
v 0.205352470 0.684536099 -0.008661793
v -0.061740268 0.579534411 0.072752528
v 0.206720784 0.684921384 -0.027233070
v 0.204521343 0.820435822 -0.007936418
v 0.209687039 0.781672597 -0.015211274
v -0.064165212 0.644926012 0.077978589
v -0.088882186 0.579887629 0.080703758
v -0.114909545 0.582660675 0.078501202
v -0.106354192 0.636523426 0.083639786
v 0.203676656 0.808030486 0.016752681
v -0.109447733 0.617434978 0.082054317
v 0.208926320 0.800160110 -0.004658237
v -0.055126972 0.819459915 0.080686495
v 0.103469633 0.839918315 0.077636071
v -0.123623036 0.627161622 0.072329253
v 0.071539484 0.775565982 -0.131667823
v -0.136341989 0.582779765 0.065158255
v -0.184974909 0.651887536 -0.053752072
v -0.138069481 0.639157355 0.081360951
v -0.150470689 0.597118080 0.081161365
v 0.063378453 0.792368472 -0.135693818
v 0.172253340 0.862299919 0.031560436
v -0.139611289 0.617487669 0.082732335
v -0.188323662 0.634759426 -0.042802483
v -0.158210263 0.578145683 0.075176969
v 0.210722566 0.783523381 0.009066453
v 0.206612349 0.765495956 0.021057773
v -0.151367009 0.863536060 0.066552363
v -0.158051237 0.616734624 0.071456820
v -0.170555338 0.576546788 0.048632283
v 0.190957114 0.825843215 0.027968237
v 0.190965056 0.802954376 0.039169185
v -0.179859966 0.639101624 0.048919991
v -0.168730617 0.619511068 0.051547736
v 0.188542232 0.780594945 0.051290542
v -0.179870322 0.580324054 0.030695111
v 0.161897838 0.869844139 0.052736916
v -0.185897633 0.620203078 0.037484970
v 0.204182416 0.677997053 0.011493909
v -0.051446997 0.924860299 0.081708677
v -0.194400758 0.621077895 0.016732953
v -0.023572136 0.902494788 0.083214298
v 0.179736033 0.820107937 0.047500812
v -0.171299309 0.852133393 0.040605791
v 0.195203573 0.671172678 0.031007383
v -0.172263697 0.867405713 0.027157640
v -0.195331916 0.615972221 -0.005862468
v 0.184389621 0.760160148 0.060932435
v -0.184489533 0.849391162 0.025567541
v 0.021824764 0.842726529 -0.148316413
v 0.023084637 0.865891755 -0.151458547
v 0.166400194 0.816874146 0.062716678
v -0.029151037 0.911375523 -0.150635511
v 0.177970931 0.799414873 0.060829721
v -0.198586613 0.637341857 0.001138638
v -0.023112159 0.889750600 -0.152623385
v 0.026068684 0.716751993 0.076869488
v -0.026116962 0.615345120 -0.103514016
v -0.045225903 0.895137489 -0.152381033
v 0.148993179 0.827217698 0.069464318
v -0.050970845 0.914683819 -0.149509430
v -0.188751131 0.866161644 0.011665984
v 0.165766776 0.776850045 0.067139074
v -0.199047655 0.845998406 0.007781028
v 0.148457348 0.758659542 0.073834494
v -0.194979131 0.854123414 -0.030603576
v -0.200685859 0.838090777 -0.015516992
v 0.153552219 0.802893281 0.069700077
v -0.193901375 0.859765649 -0.009322682
v 0.127872169 0.767562330 0.079263523
v -0.202776596 0.581815839 -0.032215238
v -0.208859757 0.626031041 -0.016494486
v 0.113903061 0.669600129 0.080141060
v 0.135069475 0.668864191 0.078032374
v 0.106614389 0.732384622 -0.120701708
v 0.098204620 0.897930443 0.070238702
v -0.025079181 0.629980624 0.074366145
v 0.127806783 0.923021674 0.062853031
v -0.186325788 0.870349050 -0.044143695
v 0.143106535 0.688626289 0.076946624
v 0.125802025 0.815148532 0.075471319
v -0.202656627 0.636597753 -0.030101085
v -0.182155162 0.864067912 -0.065074667
v 0.141801983 0.923282444 0.057100572
v -0.161991268 0.866599381 -0.097774550
v 0.140635788 0.785161138 0.075047478
v -0.070686013 0.773098052 -0.134236231
v 0.101326704 0.690528750 0.082565360
v -0.180927262 0.579843938 -0.043376353
v 0.107008144 0.769404471 0.083078422
v -0.197216213 0.618359447 -0.034422003
v -0.178500205 0.630956292 -0.061861832
v -0.168829441 0.577719808 -0.060733818
v 0.079220600 0.685533404 0.080750987
v 0.116719760 0.790804803 0.080370724
v -0.073562816 0.737723231 -0.130218849
v 0.096288182 0.785862684 0.083371289
v -0.173923373 0.595925033 -0.054692227
v -0.175930470 0.647974789 -0.075870946
v 0.063705757 0.701728404 0.079411492
v -0.088339716 0.757806242 -0.131325364
v -0.175550520 0.584631920 -0.078677364
v 0.017733883 0.798084021 -0.136227533
v 0.095459551 0.811029255 0.083000921
v 0.076256245 0.831574559 0.082540698
v -0.172092780 0.625428021 -0.081909806
v 0.134781107 0.914612174 0.045312058
v 0.018592896 0.663012981 -0.109462343
v 0.020182986 0.644786954 -0.107040241
v -0.152406484 0.580692649 -0.079217330
v 0.146315247 0.916693091 0.034167085
v -0.131132677 0.754325271 -0.125108868
v 0.153153077 0.918381035 0.019521764
v -0.138587862 0.634425342 -0.093650237
v 0.046277184 0.875569701 -0.151694745
v -0.152200550 0.620084584 -0.084965527
v 0.164054349 0.921094298 0.007677195
v 0.033806633 0.694694400 -0.115205646
v 0.037005048 0.717051208 -0.118991837
v -0.146252587 0.737845302 -0.120053254
v 0.167670056 0.921070874 -0.008248458
v -0.148801297 0.759032547 -0.115723804
v -0.111174986 0.909328163 -0.137211472
v -0.045094945 0.885023713 0.080773436
v 0.182529956 0.924379230 -0.013819049
v -0.152454168 0.580010533 -0.101360276
v -0.149709940 0.748730302 -0.099127539
v -0.139043435 0.614264131 -0.095903233
v -0.150290996 0.877723396 -0.114382289
v 0.176010415 0.924444199 -0.027571997
v -0.167417377 0.758694828 -0.091721341
v 0.034544390 0.628367662 -0.105707966
v -0.132206529 0.582881629 -0.105420068
v -0.181228399 0.747563601 -0.078820936
v 0.171067402 0.924771190 -0.042955250
v -0.140469253 0.864588737 -0.127184063
v 0.171708986 0.926205337 -0.059138864
v -0.193118706 0.764286816 -0.063541062
v -0.141419485 0.622200966 -0.111932561
v 0.189202756 0.711855769 0.053847142
v 0.164988726 0.926519871 -0.073804036
v -0.202769876 0.749609113 -0.050182682
v 0.048621543 0.738284409 -0.123626985
v -0.113907978 0.587786436 -0.115482345
v -0.028130537 0.593848050 -0.101508953
v 0.158326223 0.927342296 -0.088645950
v -0.207868338 0.766983449 -0.043630209
v 0.200106457 0.783673823 0.030501958
v -0.024623144 0.665029049 0.075545229
v 0.138418719 0.927378356 -0.113982156
v 0.197091490 0.757238150 0.040783104
v -0.074277580 0.758561790 0.082859620
v -0.108148143 0.622033238 -0.101122007
v -0.093000874 0.593154430 -0.109167553
v 0.057748210 0.632239461 -0.109032944
v -0.105403796 0.632173955 -0.119287193
v -0.072502881 0.609792233 -0.107984588
v -0.069917008 0.587984562 -0.106480792
v 0.080692060 0.663367271 -0.115549266
v 0.062224120 0.719861984 -0.121803857
v -0.194792897 0.729560256 0.044969451
v 0.051668696 0.784039140 0.079895452
v 0.041876353 0.761565924 0.078478217
v -0.196633801 0.752670586 0.042837713
v 0.035072718 0.738822222 0.077634700
v -0.032625295 0.760713816 -0.127557606
v 0.103857182 0.706523299 -0.118874453
v -0.183138579 0.765989900 0.060930967
v -0.069433928 0.645854115 -0.111737430
v -0.075876310 0.628868699 -0.110328875
v 0.114201471 0.655100346 -0.107936278
v -0.178605780 0.742689431 0.061801165
v -0.048858739 0.608256757 -0.104696319
v 0.131552503 0.928530693 -0.127381548
v 0.129637733 0.676005483 -0.107122026
v -0.057209481 0.630251229 -0.108104803
v -0.160446614 0.758638024 0.070728458
v -0.050825275 0.659979939 -0.111405909
v 0.115603969 0.928718686 -0.129670143
v -0.035585802 0.635162592 -0.106417075
v 0.123138383 0.630163789 -0.102572009
v -0.192104787 0.595565021 -0.011193871
v -0.191874325 0.581549764 0.011015085
v 0.147084385 0.669747114 -0.113136962
v -0.152071729 0.739294171 0.076063849
v -0.135164350 0.752473414 0.079006724
v 0.123900115 0.720831394 -0.112812065
v -0.080626413 0.822521806 0.083124615
v -0.068100214 0.924960732 0.078200951
v -0.124888226 0.728956223 0.080577396
v 0.144804791 0.712048948 -0.116453908
v -0.112449370 0.748685956 0.083093472
v -0.093256906 0.803603292 0.083885364
v 0.161971629 0.715502501 -0.090791337
v -0.098413698 0.729560077 0.084944434
v 0.114554562 0.856351018 -0.139261916
v -0.082107827 0.781362712 0.083912119
v -0.107012831 0.786188066 0.083375439
v 0.175346404 0.705941796 -0.075654753
v -0.098411992 0.766231894 0.084576569
v 0.171288684 0.645881057 -0.073595077
v 0.178129107 0.661087334 -0.064203516
v -0.091441818 0.747715414 0.084636413
v -0.074492604 0.734916508 0.082522467
v -0.120872840 0.768987656 0.081397317
v -0.030263763 0.749873459 0.077072844
v -0.129043579 0.788248658 0.077414297
v -0.117578253 0.805968404 0.078224853
v 0.187932804 0.700328410 -0.059023064
v 0.200514674 0.669399559 -0.038761273
v -0.067832634 0.799408078 0.082263939
v -0.143167377 0.772076130 0.075386688
v -0.049375575 0.668068528 0.076886706
v -0.141563892 0.806645751 0.072724067
v 0.188360959 0.676972032 -0.053828843
v -0.159188747 0.824151874 0.066935480
v 0.208081558 0.665708303 -0.020701496
v -0.183506057 0.789106250 0.058765698
v 0.208093673 0.709279180 -0.022613104
v -0.164795831 0.779081404 0.067488596
v -0.068986490 0.842600048 0.081795983
v -0.178501070 0.811075687 0.054483086
v 0.207978040 0.625084221 -0.018099487
v -0.072075628 0.883158386 0.077447079
v -0.004839548 0.757716835 -0.125841409
v -0.066741519 0.903710544 0.077112757
v -0.187809139 0.816138148 0.036555313
v -0.206254274 0.763133883 0.021544944
v -0.046548016 0.907918334 0.080711879
v -0.004349269 0.775421500 -0.130000591
v -0.100101493 0.924539924 0.068196930
v -0.210994095 0.752539814 -0.001765367
v 0.078085095 0.828412175 -0.142100900
v 0.120866239 0.897776961 -0.134488687
v -0.204819128 0.824213207 0.003440638
v -0.084342137 0.924813449 0.073605642
v 0.207616538 0.704226553 0.002571871
v 0.099815190 0.929178238 -0.135122299
v -0.193372637 0.876150966 -0.024645751
v 0.206793219 0.719652534 0.019198338
v -0.210139990 0.768959761 -0.020451250
v -0.208998293 0.792896867 -0.018209543
v -0.204834551 0.815708995 -0.019097533
v 0.083577558 0.929529011 -0.139629155
v 0.210799262 0.760122776 0.000841058
v 0.066906616 0.929683030 -0.142727777
v -0.094313309 0.843878269 0.078601971
v -0.019133391 0.866993606 -0.151936188
v 0.197930902 0.709434152 0.036241874
v 0.049998667 0.929813027 -0.144670457
v 0.060704760 0.914265633 -0.148049146
v 0.195185766 0.616585255 0.003744967
v -0.086909972 0.903484046 0.071196310
v -0.023491390 0.846797466 -0.149628207
v -0.199841768 0.787436128 -0.055865448
v -0.172455132 0.881771922 -0.081090987
v -0.105390847 0.824190140 0.078767374
v 0.032740027 0.929656863 -0.145356461
v -0.188108817 0.787365556 -0.075212531
v 0.015314050 0.929336190 -0.145538285
v -0.156721935 0.794455230 -0.100971140
v 0.183408543 0.622902036 0.038828421
v -0.172191769 0.781221986 -0.092582226
v 0.015182631 0.916593432 -0.149085730
v -0.002280175 0.929069519 -0.145557463
v 0.191856250 0.689067483 0.044506446
v 0.184333488 0.665257990 0.050564736
v 0.084850676 0.792863727 -0.133635506
v 0.020168357 0.896543503 0.083422914
v -0.161602616 0.817591488 -0.099526182
v -0.152648717 0.771803677 -0.100138485
v -0.165018603 0.906547904 -0.086439170
v 0.068627596 0.810458064 -0.140257105
v 0.173446178 0.688305855 0.059047114
v -0.144182652 0.781136870 -0.120700672
v -0.059349518 0.568114698 -0.103124186
v -0.111024834 0.791264117 -0.132500008
v -0.075687058 0.567882299 -0.106077850
v -0.092013054 0.567594051 -0.108746432
v -0.121944681 0.774514735 -0.129686713
v 0.157495975 0.675376534 0.075067334
v 0.164963469 0.658494949 0.062331896
v -0.108301476 0.567694545 -0.107949898
v 0.160957441 0.632737041 0.068684340
v -0.117765926 0.835636318 -0.136586457
v 0.043236356 0.889442265 0.081280552
v 0.027497241 0.875296474 0.082031608
v -0.124111272 0.567970634 -0.110519446
v 0.159072489 0.701423526 0.072428823
v -0.110327646 0.812988460 -0.138132438
v 0.140956640 0.707076252 0.077280201
v 0.149344474 0.650522828 0.080050610
v -0.120243832 0.562904716 -0.095653288
v -0.001371315 0.803289890 0.076996177
v -0.002165816 0.785380065 0.076789938
v -0.093604229 0.797053695 -0.127191052
v -0.133882731 0.560933053 -0.103979446
v -0.082114205 0.850591838 -0.146561652
v -0.101670347 0.776617408 -0.121247485
v -0.148825496 0.561242342 -0.106504902
v -0.151494503 0.560082734 -0.090656802
v -0.159017056 0.559889436 -0.076480016
v -0.054675121 0.772277772 0.079985581
v -0.028524017 0.772486031 0.077190749
v 0.094481334 0.671966255 0.081902310
v 0.098714165 0.651564002 0.081668481
v -0.175261527 0.560320437 -0.077366076
v -0.166007653 0.562563837 -0.064430386
v -0.032113962 0.706207156 0.076623246
v 0.078129143 0.663009167 0.079821035
v 0.056770820 0.677199662 0.077827156
v -0.176595092 0.561342478 -0.052273780
v -0.078068517 0.831363559 -0.140333548
v 0.085633174 0.706896603 0.082007833
v -0.185276002 0.560140669 -0.038602438
v -0.058589824 0.693134427 0.078660682
v 0.032816008 0.676008284 0.076216012
v -0.036787406 0.648424089 0.075413637
v -0.097322047 0.832397103 -0.142554432
v 0.029446464 0.628601372 0.074483424
v -0.073546521 0.670030475 0.080435976
v 0.077531904 0.745986938 0.082121864
v -0.037533019 0.614601016 0.073977843
v -0.061838072 0.618535221 0.076453649
v -0.060218550 0.858803153 -0.150984153
v -0.076091200 0.870105922 -0.149704978
v -0.079184577 0.712693512 0.083159819
v -0.061751533 0.882178962 -0.151975796
v 0.091699958 0.862434566 -0.144932777
v -0.200548887 0.558673084 -0.033303116
v 0.091706842 0.728278816 0.082968771
v -0.085531726 0.623832345 0.081354991
v -0.105305173 0.709060907 0.084068015
v 0.097123221 0.839968860 -0.140112236
v -0.087569550 0.649815977 0.082204826
v -0.097310081 0.671595871 0.084935889
v -0.083194271 0.863738716 0.077963516
v 0.078540094 0.639574647 -0.112505332
v -0.057129271 0.863211036 0.080625735
v 0.112022124 0.733377278 0.082897820
v -0.107497834 0.655206561 0.083406404
v 0.133907929 0.852599740 -0.125117943
v -0.189967483 0.560241878 -0.022922039
v -0.030878177 0.727819324 0.076887615
v 0.100702561 0.630451322 -0.110883877
v -0.190951750 0.559748530 0.007769412
v -0.138742238 0.682330906 0.078872159
v 0.094991222 0.650240302 -0.114506803
v -0.181324869 0.560189724 0.020662945
v -0.119876191 0.668854177 0.076220736
v 0.127429247 0.720230222 0.080179974
v 0.132055551 0.742951870 0.078966841
v 0.127965316 0.874463737 -0.132615864
v -0.177689865 0.560059428 0.036404740
v -0.128466100 0.705047250 0.079337791
v -0.164605886 0.561326861 0.045580432
v -0.139455050 0.660009623 0.079999603
v -0.152140886 0.561798811 0.055644490
v -0.163740009 0.564471543 0.066685796
v -0.148624331 0.700357795 0.077944212
v -0.160531312 0.668336511 0.077032357
v -0.148879915 0.562455714 0.068937778
v 0.150705904 0.728869855 0.074202843
v -0.164060071 0.688171387 0.074681416
v -0.135297745 0.566693187 0.075909086
v -0.120660767 0.562648594 0.070613883
v 0.144175708 0.621738255 -0.102798499
v -0.166028619 0.707802057 0.072242722
v 0.188014701 0.737177253 0.057787813
v 0.143631682 0.639124870 -0.102797553
v 0.157689288 0.906837940 -0.100807391
v -0.107928216 0.561536431 0.080579475
v -0.157821730 0.648705423 0.077964455
v -0.092027083 0.561382055 0.076501429
v 0.133826464 0.911814213 -0.127533808
v -0.075829342 0.560942531 0.073344007
v -0.059300959 0.560600400 0.071201973
v 0.198271722 0.731207132 0.038211517
v 0.146160990 0.870361805 -0.119665638
v -0.042713113 0.560256600 0.069629356
v -0.025982955 0.559715509 0.069967330
v -0.180211991 0.718725860 0.058784030
v -0.022883695 0.573871255 0.078189142
v -0.172150701 0.676171184 0.057432037
v 0.160726622 0.633154511 -0.100263216
v 0.155524820 0.849485219 -0.109732255
v 0.208066389 0.743457317 0.019758532
v -0.193107381 0.706211925 0.045701057
v -0.186581478 0.660901725 0.045430839
v -0.190676123 0.683605731 0.044955652
v -0.048824225 0.735846639 -0.124436915
v 0.148653612 0.622926950 -0.087131031
v 0.210154682 0.758177221 -0.021683654
v 0.151657596 0.888671577 -0.111005031
v 0.011590230 0.777786613 -0.130519867
v -0.059342586 0.756233871 -0.130537614
v 0.070833042 0.739989638 -0.125398025
v -0.054944456 0.719255269 0.078948990
v 0.209808663 0.732503057 -0.005159704
v -0.197672874 0.670613945 0.025588777
v -0.208204105 0.710025966 0.009246306
v -0.192524165 0.797301590 0.039604627
v 0.166772276 0.624873221 -0.075347990
v -0.201947838 0.660777986 0.003777018
v 0.134946853 0.898598969 0.064873323
v 0.209134370 0.735241055 -0.031768166
v -0.205467612 0.685218513 0.004742771
v -0.208910301 0.701142073 -0.014264228
v -0.208300754 0.717901528 -0.031319626
v 0.174454525 0.614679039 -0.058569677
v 0.200347155 0.717611909 -0.046046261
v -0.210129619 0.649441600 -0.015369616
v -0.209367558 0.801546872 0.002098003
v 0.160015494 0.868549168 -0.102161311
v -0.034616947 0.924794793 0.084758081
v 0.198103100 0.741977036 -0.054175038
v 0.184447780 0.749937475 -0.074095018
v -0.085609242 0.815209389 -0.133667693
v -0.065399162 0.815857530 -0.143846557
v 0.178694144 0.637019992 -0.058364868
v -0.209729910 0.674872220 -0.020856107
v 0.188501030 0.602522671 -0.048089925
v 0.187923223 0.723877311 -0.064134948
v -0.019795548 0.929595590 -0.145754263
v -0.037107632 0.929865181 -0.145713180
v 0.172807097 0.849813640 -0.090087853
v 0.019151373 0.756124556 0.077044353
v -0.054167170 0.929890037 -0.144798920
v -0.053533971 0.744142473 0.079310380
v 0.176027238 0.727142930 -0.079776481
v 0.165419579 0.740386128 -0.090500459
v -0.071021654 0.929891706 -0.142858863
v 0.170744091 0.873111844 -0.084203973
v -0.199464768 0.654721379 -0.035185821
v -0.087558702 0.929605663 -0.139662609
v -0.093037546 0.909163117 -0.145123526
v -0.205251426 0.805921435 -0.041224085
v -0.103303537 0.928777099 -0.134314105
v -0.119034067 0.927901149 -0.129065737
v 0.144129187 0.729481995 -0.098081641
v -0.192677334 0.713483989 -0.055997640
v -0.193387896 0.812323272 -0.066102974
v -0.180244043 0.828233242 -0.086234681
v -0.194482371 0.673168302 -0.045635462
v 0.182231903 0.858761787 -0.068287157
v 0.171464592 0.908843219 -0.071020208
v -0.181163281 0.615012705 -0.048440427
v 0.056443401 0.742695093 0.079650559
v 0.140380219 0.733405709 -0.120885894
v -0.071852818 0.794962466 -0.139358431
v -0.179598153 0.725531399 -0.076451406
v 0.175683647 0.902340412 -0.053439606
v -0.086536787 0.779950321 -0.132759646
v -0.179746196 0.608932614 -0.070025153
v 0.123289481 0.741955757 -0.116853617
v -0.179312736 0.668332934 -0.065375201
v -0.163966551 0.666470706 -0.088651635
v 0.177962452 0.898764789 -0.034362696
v -0.173371390 0.684039712 -0.076012470
v -0.163706273 0.714396358 -0.091159627
v 0.193912491 0.856175303 -0.027516156
v -0.158145443 0.642290235 -0.088319950
v -0.026973601 0.656910896 -0.108811557
v 0.086223125 0.724110961 -0.123354256
v -0.134902775 0.928503513 -0.129116103
v -0.140985638 0.927657902 -0.115328893
v -0.145749316 0.726848722 -0.099249177
v -0.142676517 0.704138875 -0.097389549
v -0.141678482 0.680545330 -0.094199747
v -0.140465200 0.657057405 -0.092587695
v -0.132907912 0.820768237 -0.128919572
v 0.075377800 0.787171721 0.082664602
v 0.194572881 0.626306534 -0.043218568
v -0.158539429 0.927503467 -0.088175163
v -0.165011734 0.927106977 -0.073364839
v 0.203687400 0.646451473 -0.032529347
v -0.008462635 0.567760825 -0.099884368
v -0.170087442 0.926473796 -0.058118839
v 0.195147127 0.859241307 -0.002402671
v -0.171065539 0.925064743 -0.042163335
v -0.178305030 0.925058067 -0.027987620
v -0.182381600 0.925528526 -0.013394937
v 0.207510158 0.758045733 -0.043396525
v 0.187194213 0.905725181 -0.020923162
v -0.167256281 0.921449363 -0.009385733
v -0.163086444 0.922111690 0.006247270
v -0.152326375 0.919666588 0.018282626
v 0.050638832 0.777838230 -0.131677449
v -0.152619630 0.915105224 0.033809189
v 0.175642371 0.897047997 -0.008759624
v -0.140251473 0.918646216 0.043608136
v -0.143057391 0.644925833 -0.112174585
v 0.188244253 0.851343930 0.019552287
v 0.015047533 0.701581597 -0.115390159
v -0.006524316 0.687110126 -0.112902083
v -0.006093726 0.704662263 -0.115727387
v 0.145261884 0.908668220 -0.113853648
v -0.143817291 0.667900681 -0.113873959
v -0.005641761 0.722312927 -0.118835971
v -0.142498299 0.715113580 -0.119900361
v 0.013107911 0.721465826 -0.118750080
v -0.005292491 0.740012169 -0.122171357
v -0.145541519 0.924903870 0.057584386
v 0.152314633 0.755683720 -0.098529220
v 0.169701010 0.898624420 0.010264692
v -0.125464559 0.657253861 -0.105308793
v -0.130674630 0.924518704 0.059869695
v -0.115021229 0.924263000 0.061206847
v 0.160892934 0.882670045 0.029640431
v 0.046416424 0.853612244 -0.149894848
v -0.143132493 0.691359758 -0.116896495
v -0.122717276 0.732532561 -0.111269020
v 0.154791147 0.902379394 0.021812545
v -0.125040278 0.681086361 -0.106158391
v 0.179318994 0.841015339 0.038675696
v -0.105299935 0.669146657 -0.107064545
v -0.003661079 0.732082963 0.076516569
v -0.106180504 0.905014694 0.065092169
v 0.149067521 0.906822860 0.052623726
v 0.154687509 0.889086843 0.055535335
v 0.145118326 0.897600830 0.037834518
v -0.099559188 0.655425072 -0.122640178
v -0.104071580 0.692049086 -0.112341307
v -0.091232687 0.677419662 -0.126368433
v 0.052506857 0.638624072 0.075960539
v -0.104450427 0.714956164 -0.117823064
v 0.050602071 0.896066010 -0.151157886
v -0.085678108 0.699880242 -0.128611207
v 0.025176853 0.886969268 -0.152165294
v -0.043209277 0.843836010 -0.149729103
v -0.040434085 0.869843006 -0.152810946
v 0.198675677 0.638722360 0.001517445
v 0.189106971 0.647184670 0.035520129
v -0.061560571 0.687834620 -0.117144927
v -0.064244598 0.714783192 -0.123543963
v -0.150508195 0.927610755 -0.102197066
v 0.168032601 0.852110505 0.049915899
v 0.153834760 0.850760460 0.066038445
v -0.188939169 0.576852143 -0.013489815
v 0.165877372 0.615525842 0.052782111
v 0.175033674 0.640098631 0.051877279
v -0.186059922 0.560900807 -0.007452726
v 0.140129715 0.871879876 0.068013921
v -0.047065403 0.585467815 -0.102457784
v -0.042685263 0.568253636 -0.101123989
v 0.014994035 0.607646525 0.073069289
v -0.025818368 0.568156958 -0.100060783
v -0.001593910 0.925214410 0.082579896
v 0.067265347 0.886048436 -0.150044352
v -0.017693728 0.924528003 0.086840279
v -0.027639288 0.598669887 0.072294518
v 0.142375484 0.625730455 0.081605278
v 0.037703395 0.908471942 0.082519121
v 0.095487580 0.582083166 0.079024278
v 0.082217261 0.596669912 0.077266261
v 0.117239669 0.595196128 0.071637042
v 0.049373139 0.828801513 -0.145759553
v 0.137735337 0.600976229 0.080022059
v 0.061879952 0.599065363 0.074572161
v 0.191092312 0.594583929 0.007532960
v 0.131045669 0.842151999 0.068807371
v 0.118021369 0.860302329 0.066487685
v 0.180401266 0.876181722 0.009400143
v 0.121081352 0.618087649 0.073739231
v 0.192537263 0.880993366 -0.018616766
v 0.184441805 0.874215603 -0.045100976
v 0.057384290 0.905269027 0.079255730
v 0.100927487 0.629091620 0.080820210
v 0.123454928 0.644589067 0.076052874
v 0.174251407 0.884249210 -0.066526249
v 0.165835992 0.897247612 -0.084134229
v 0.100705430 0.606415868 0.079647496
v 0.162459716 0.886815906 -0.097246535
v 0.169942975 0.592974424 -0.058994841
v 0.154193372 0.601015329 -0.078143969
v 0.076875940 0.638678372 0.078624256
v 0.161811441 0.607094646 -0.105469897
v 0.138913736 0.891672790 -0.125497729
v 0.080034696 0.616149545 0.077912226
v 0.123190627 0.693372846 0.080337517
v 0.158614591 0.606891572 0.072699703
v 0.177810684 0.599226773 0.041821145
v 0.192443147 0.606619537 0.025497600
v 0.199614391 0.693895698 -0.042622454
v 0.143480480 0.702504456 -0.095119871
v 0.056458425 0.619396210 0.075284384
v 0.147501320 0.689864635 -0.113377653
v 0.204328150 0.606422484 -0.031390481
v 0.203238726 0.601573050 -0.009704232
v 0.040348608 0.654867351 0.075889125
v 0.012177127 0.676228821 0.075736962
v 0.100142345 0.869413018 0.073294111
v 0.076774269 0.903036237 0.075179949
v 0.018664416 0.696450949 0.076286599
v 0.039205100 0.803125560 0.078873210
v 0.024599135 0.779754817 0.077344850
v 0.020414079 0.608758807 -0.102609411
v 0.064643815 0.884743810 0.078782551
v 0.040229857 0.650331259 -0.109139062
v 0.036916815 0.857625484 0.081144400
v 0.052161634 0.868859470 0.080752686
v 0.017547030 0.857113719 0.081056014
v 0.037723847 0.589541316 -0.101836935
v 0.061021112 0.656712890 -0.112359129
v 0.086004212 0.767095864 0.083242476
v 0.202360034 0.694595516 0.024346236
v 0.194432110 0.797420859 -0.065034494
v 0.064812198 0.588832498 -0.105339348
v 0.162766725 0.690368354 -0.088700026
v 0.127550513 0.778984010 -0.130254224
v 0.126489207 0.698672116 -0.109421968
v 0.092512973 0.587721646 -0.111188710
v 0.054260831 0.698565304 -0.117674515
v 0.038524959 0.758491397 -0.126748830
v 0.131968468 0.605130494 -0.101054177
v 0.116656139 0.586561859 -0.100141682
v 0.102311671 0.904325366 -0.142058477
v 0.083661757 0.882585883 0.075032920
v 0.077827819 0.858930945 0.080173992
v 0.142642543 0.584634840 -0.105870403
v 0.030586433 0.840035439 0.079883389
v 0.048909210 0.824737251 0.080324724
v 0.080437630 0.905883908 -0.147617131
v 0.168965280 0.584015608 -0.097999044
v 0.170442626 0.763605237 -0.089620695
v 0.022409145 0.819281220 -0.142664999
v 0.160311133 0.640823543 -0.084315747
v 0.159973040 0.578013539 -0.075535983
v 0.016524469 0.682075262 -0.112286389
v 0.168575689 0.574369907 -0.056591403
v 0.030626917 0.779681325 -0.131275758
v 0.187469855 0.579180121 -0.048827440
v 0.192761004 0.590858817 -0.033505127
v 0.070580378 0.724131465 0.080828831
v 0.108011231 0.879917145 -0.141205728
v 0.087675646 0.884625793 -0.147476584
v 0.017234419 0.758416891 -0.126032546
v 0.206492156 0.584587276 -0.021515865
v 0.134534985 0.655066252 -0.104331210
v 0.207721919 0.647026658 -0.013678914
v 0.197019786 0.630248427 0.021981843
v 0.145546809 0.648997903 -0.090074152
v 0.155429646 0.654404223 -0.105362572
v 0.186258659 0.581777394 0.027715450
v 0.167480618 0.835102916 0.057740964
v 0.201340124 0.835075021 0.009252952
v 0.189587608 0.652471185 -0.047485881
v 0.050235368 0.609712601 -0.105277434
v 0.156908914 0.588599980 0.053209029
v 0.097632684 0.749254823 0.083470181
v 0.202065900 0.661781669 -0.001910060
v 0.200579599 0.653968632 0.017713191
v 0.098972507 0.667580545 -0.115512565
v 0.154874086 0.581102133 0.075549506
v 0.121720791 0.831219554 -0.135478497
v -0.003259053 0.749815583 0.076610647
v -0.005046939 0.661750436 0.075220324
v 0.061090864 0.654848754 0.077509157
v 0.132405847 0.579184294 0.076148219
v 0.142303899 0.833162904 -0.116060451
v -0.004218090 0.714392304 0.076309666
v -0.002785631 0.767587066 0.076676898
v 0.113120779 0.575696349 0.070047878
v 0.023173545 0.821000934 0.078291148
v -0.000854691 0.821049333 0.077701539
v 0.117271379 0.882545173 0.061783940
v 0.071976192 0.579927206 0.073968560
v 0.114745118 0.904371619 0.058643568
v 0.190979928 0.581377864 -0.009681890
v 0.115648508 0.752483964 0.082260408
v 0.035500731 0.909102440 -0.150585711
v 0.047523074 0.580892384 0.070511825
v 0.068646304 0.867454350 -0.149440438
v 0.020529866 0.584306717 0.068361796
v 0.038507573 0.603156209 0.073244557
v 0.042606238 0.802742124 -0.138431653
v 0.016677242 0.801329017 0.077195868
v 0.017075768 0.651727796 0.075103030
v -0.005551296 0.644406796 0.074667685
v -0.004471477 0.696751237 0.076025389
v 0.191869035 0.574589193 -0.027350863
v -0.004662939 0.679195523 0.075667500
v 0.078997776 0.612700641 -0.111447871
v 0.092276774 0.747372687 -0.126068145
v 0.111204967 0.761743069 -0.120605722
v 0.167484477 0.746275008 0.066346571
v 0.107276537 0.711745977 0.082968712
v 0.170819476 0.719901443 0.063374810
v 0.107006371 0.608257592 -0.105245449
v 0.187658116 0.574648023 0.008314152
f 555 540 123
f 389 162 497
f 567 540 568
f 583 104 251
f 463 489 430
f 453 94 255
f 483 484 162
f 446 640 671
f 574 577 251
f 50 244 238
f 52 244 50
f 575 57 53
f 55 249 52
f 55 2 250
f 577 248 563
f 575 437 432
f 57 597 589
f 2 265 262
f 589 592 57
f 262 259 2
f 5 267 262
f 602 606 589
f 5 9 11
f 58 606 610
f 11 272 5
f 12 278 11
f 565 793 8
f 630 60 632
f 13 425 12
f 424 289 160
f 289 424 13
f 643 649 60
f 181 403 179
f 483 206 484
f 163 651 174
f 53 563 558
f 651 65 650
f 163 389 384
f 683 66 65
f 455 558 563
f 165 384 171
f 340 331 34
f 67 66 683
f 206 470 63
f 385 102 856
f 67 702 70
f 344 340 696
f 179 403 406
f 710 70 702
f 16 352 14
f 111 112 59
f 63 64 655
f 18 368 16
f 710 742 753
f 119 112 111
f 394 671 545
f 551 922 903
f 19 375 18
f 753 740 711
f 406 470 179
f 261 615 108
f 545 453 439
f 178 386 530
f 24 386 23
f 72 753 742
f 26 396 24
f 768 765 72
f 119 142 112
f 32 63 470
f 112 142 161
f 399 400 396
f 154 343 182
f 545 671 448
f 399 415 400
f 768 770 765
f 32 406 410
f 418 415 399
f 770 183 777
f 387 300 166
f 415 418 422
f 105 86 299
f 169 42 839
f 170 142 119
f 173 172 705
f 329 638 343
f 134 738 737
f 185 638 329
f 692 661 145
f 150 74 741
f 637 345 873
f 132 145 661
f 170 184 142
f 138 495 760
f 138 136 188
f 136 194 188
f 201 87 194
f 270 87 205
f 216 49 210
f 46 216 724
f 198 184 170
f 43 96 907
f 219 39 218
f 45 43 41
f 224 37 219
f 498 224 514
f 86 105 342
f 225 36 514
f 378 107 110
f 80 233 107
f 22 41 43
f 198 217 849
f 41 581 45
f 103 233 76
f 76 40 103
f 222 217 214
f 678 100 40
f 98 41 22
f 366 41 98
f 40 76 678
f 215 4 284
f 215 98 21
f 537 536 92
f 222 234 217
f 904 537 92
f 460 462 30
f 284 471 366
f 222 239 246
f 586 903 759
f 462 28 30
f 246 234 222
f 454 449 28
f 237 391 924
f 560 319 921
f 246 888 252
f 431 471 282
f 455 560 391
f 319 560 241
f 50 238 793
f 50 566 52
f 52 574 55
f 258 263 510
f 244 52 249
f 55 253 2
f 284 792 657
f 303 670 667
f 303 100 674
f 250 249 55
f 273 274 252
f 251 253 574
f 100 303 301
f 301 570 100
f 104 261 257
f 677 100 678
f 273 285 274
f 257 2 253
f 2 257 265
f 250 2 259
f 570 568 40
f 752 292 293
f 294 296 285
f 285 296 274
f 684 497 679
f 277 274 296
f 440 447 442
f 579 489 463
f 692 329 695
f 259 262 267
f 871 736 360
f 262 271 9
f 40 100 570
f 570 567 568
f 203 128 270
f 310 296 294
f 305 296 310
f 87 270 194
f 9 5 262
f 5 272 600
f 276 9 271
f 9 276 11
f 272 11 278
f 302 323 310
f 568 103 40
f 108 615 89
f 280 11 276
f 11 280 12
f 103 568 540
f 278 12 425
f 323 337 328
f 283 12 280
f 12 283 13
f 283 297 289
f 289 13 283
f 540 561 231
f 425 13 424
f 209 288 205
f 291 125 286
f 346 337 323
f 49 304 288
f 173 350 351
f 297 654 314
f 347 158 864
f 304 47 311
f 47 304 49
f 47 46 481
f 360 361 855
f 501 684 146
f 481 311 47
f 46 39 481
f 343 695 329
f 314 289 297
f 289 314 160
f 481 321 308
f 481 39 321
f 325 122 321
f 325 321 37
f 37 321 39
f 333 160 314
f 324 266 333
f 527 107 231
f 84 121 325
f 36 327 498
f 160 333 34
f 327 120 84
f 36 82 371
f 277 393 390
f 689 34 333
f 34 689 340
f 313 34 331
f 266 334 689
f 334 260 341
f 340 335 331
f 107 527 110
f 54 404 405
f 696 14 344
f 61 401 44
f 38 299 407
f 358 14 348
f 14 358 16
f 344 14 352
f 356 704 712
f 352 16 368
f 413 62 417
f 370 16 358
f 16 370 18
f 175 705 134
f 713 115 110
f 371 27 378
f 27 371 82
f 381 18 370
f 18 381 19
f 368 18 375
f 80 378 27
f 19 381 235
f 19 395 23
f 19 23 178
f 202 506 913
f 23 395 24
f 386 24 396
f 398 24 395
f 24 398 26
f 26 398 220
f 26 412 399
f 396 26 399
f 418 399 412
f 164 180 444
f 444 443 164
f 175 173 705
f 685 84 120
f 422 300 415
f 685 121 84
f 172 169 300
f 172 300 422
f 78 80 27
f 226 365 78
f 89 615 114
f 240 485 309
f 134 737 175
f 226 27 82
f 245 459 452
f 187 186 140
f 243 459 245
f 189 187 130
f 581 466 579
f 467 472 637
f 308 122 240
f 138 579 466
f 430 255 463
f 499 435 430
f 453 430 435
f 435 440 439
f 435 499 450
f 243 479 281
f 308 321 122
f 897 438 584
f 439 453 435
f 243 281 893
f 450 440 435
f 480 859 865
f 440 449 447
f 442 439 440
f 450 449 440
f 447 449 454
f 492 488 493
f 127 458 456
f 449 456 28
f 82 225 708
f 454 28 462
f 28 456 30
f 456 450 127
f 30 456 458
f 225 82 36
f 30 464 460
f 506 507 502
f 126 469 125
f 287 508 509
f 207 507 506
f 410 460 32
f 126 306 477
f 460 464 644
f 644 32 460
f 32 644 63
f 475 31 576
f 470 406 32
f 64 63 644
f 306 309 477
f 125 464 458
f 528 795 511
f 516 523 524
f 655 206 63
f 206 655 484
f 206 474 470
f 162 679 497
f 316 322 822
f 313 160 34
f 37 498 325
f 523 316 534
f 497 684 501
f 501 146 505
f 146 512 503
f 505 503 513
f 263 515 510
f 512 120 115
f 503 512 91
f 517 513 503
f 115 713 91
f 458 203 125
f 315 547 548
f 91 512 115
f 547 330 336
f 91 713 88
f 517 88 522
f 552 548 547
f 532 88 713
f 88 532 519
f 552 336 553
f 522 519 541
f 527 231 561
f 127 128 458
f 538 660 692
f 514 36 498
f 224 498 37
f 538 692 695
f 114 626 631
f 553 342 105
f 219 37 39
f 555 660 561
f 127 450 499
f 891 199 824
f 660 555 661
f 218 39 46
f 199 97 886
f 366 98 284
f 22 21 98
f 41 366 581
f 43 232 22
f 907 232 43
f 96 536 907
f 45 463 255
f 45 581 463
f 255 94 96
f 255 96 45
f 94 453 545
f 448 546 545
f 582 593 594
f 595 584 438
f 216 46 47
f 216 47 49
f 551 640 558
f 558 640 569
f 49 288 209
f 793 565 50
f 569 53 558
f 566 50 565
f 209 210 49
f 841 351 350
f 574 52 566
f 578 53 57
f 612 609 423
f 53 578 563
f 575 53 569
f 597 432 211
f 253 55 574
f 57 575 597
f 578 57 592
f 592 583 578
f 627 609 612
f 584 621 628
f 603 589 606
f 602 589 597
f 634 819 627
f 610 606 602
f 835 318 229
f 626 606 58
f 610 624 58
f 58 624 630
f 632 58 630
f 634 884 869
f 58 632 626
f 60 642 632
f 642 60 649
f 60 630 181
f 650 649 643
f 662 652 645
f 656 628 621
f 621 636 656
f 658 659 204
f 64 644 469
f 466 495 138
f 694 377 700
f 468 471 431
f 663 650 65
f 628 656 668
f 679 162 484
f 65 686 663
f 672 673 659
f 686 65 66
f 683 65 651
f 468 431 478
f 683 693 67
f 685 146 684
f 146 685 512
f 696 340 689
f 66 67 701
f 473 495 478
f 66 698 686
f 702 67 693
f 668 675 687
f 701 698 66
f 405 690 54
f 701 67 70
f 54 690 564
f 14 696 348
f 711 70 710
f 699 70 711
f 702 709 710
f 229 318 236
f 657 282 471
f 710 709 742
f 753 756 740
f 756 753 72
f 742 754 72
f 72 754 768
f 72 765 756
f 766 765 770
f 490 193 496
f 130 772 496
f 770 776 766
f 15 719 168
f 87 201 148
f 183 770 768
f 201 194 136
f 422 705 172
f 633 777 338
f 777 633 150
f 408 74 633
f 638 185 408
f 106 730 258
f 688 379 694
f 275 631 118
f 185 692 145
f 197 750 749
f 736 737 738
f 263 258 730
f 738 741 743
f 185 145 143
f 743 741 744
f 744 741 74
f 744 467 879
f 132 140 145
f 123 132 661
f 741 738 150
f 123 540 567
f 773 772 567
f 738 134 150
f 78 27 226
f 238 623 1
f 264 279 779
f 776 150 134
f 134 705 420
f 695 541 538
f 104 599 261
f 365 681 680
f 761 762 763
f 365 678 76
f 76 78 365
f 411 156 420
f 156 411 220
f 541 519 538
f 220 764 156
f 76 233 78
f 80 78 233
f 168 789 387
f 70 699 701
f 398 395 228
f 434 437 445
f 779 780 887
f 428 432 434
f 926 317 706
f 197 749 745
f 213 6 4
f 279 785 780
f 419 427 428
f 148 201 745
f 454 462 419
f 526 782 783
f 381 734 235
f 410 414 419
f 493 769 913
f 511 4 215
f 4 511 213
f 406 414 410
f 208 731 729
f 21 511 215
f 210 728 727
f 794 800 823
f 511 21 529
f 470 474 179
f 724 218 46
f 227 110 115
f 118 280 275
f 219 218 722
f 806 800 794
f 803 804 256
f 716 778 225
f 224 219 720
f 407 86 690
f 356 734 381
f 389 497 380
f 809 795 528
f 810 806 811
f 717 716 514
f 497 501 380
f 317 697 429
f 810 818 821
f 913 771 202
f 341 698 699
f 373 376 159
f 369 177 373
f 341 260 698
f 260 334 266
f 365 226 681
f 517 522 354
f 828 821 818
f 354 362 364
f 569 640 446
f 519 522 88
f 767 828 818
f 266 324 676
f 602 597 211
f 804 834 256
f 121 240 122
f 345 868 918
f 610 602 211
f 169 839 166
f 427 195 211
f 643 179 174
f 683 651 165
f 693 683 171
f 627 884 634
f 324 654 676
f 846 397 841
f 841 397 374
f 362 709 369
f 580 397 846
f 192 188 190
f 192 499 489
f 128 192 190
f 270 205 203
f 205 288 286
f 291 306 126
f 208 148 733
f 288 304 291
f 304 311 306
f 311 481 308
f 286 125 203
f 283 118 297
f 589 599 592
f 283 280 118
f 227 115 120
f 747 805 732
f 707 226 82
f 107 378 80
f 275 114 631
f 118 646 297
f 89 114 275
f 231 233 103
f 87 209 205
f 816 872 870
f 271 108 89
f 248 560 455
f 248 241 560
f 108 271 265
f 566 565 241
f 86 876 690
f 622 244 619
f 517 91 88
f 574 566 248
f 715 662 889
f 244 249 618
f 249 250 614
f 882 465 718
f 253 251 257
f 774 465 882
f 250 259 608
f 883 494 774
f 921 391 560
f 259 267 604
f 54 564 847
f 251 577 583
f 600 267 5
f 89 276 271
f 503 91 517
f 690 405 407
f 275 276 89
f 892 573 582
f 272 278 596
f 248 577 574
f 280 276 275
f 425 588 591
f 425 424 781
f 781 313 572
f 424 313 781
f 572 585 781
f 314 654 324
f 136 197 201
f 313 557 572
f 237 551 558
f 554 331 335
f 334 341 348
f 760 136 138
f 335 344 549
f 341 699 704
f 348 696 334
f 921 319 7
f 358 348 704
f 344 352 544
f 912 582 594
f 903 586 551
f 352 368 543
f 381 370 356
f 368 375 539
f 788 8 3
f 535 375 178
f 221 795 809
f 828 767 562
f 559 833 920
f 921 920 899
f 546 448 898
f 903 922 836
f 38 903 299
f 235 228 395
f 405 669 407
f 546 92 94
f 400 518 520
f 92 546 904
f 639 35 926
f 386 396 525
f 927 926 33
f 928 605 930
f 200 490 298
f 94 545 546
f 96 92 536
f 927 56 852
f 143 472 408
f 220 412 26
f 400 520 521
f 412 220 411
f 109 113 152
f 920 832 559
f 418 412 411
f 152 113 746
f 387 789 786
f 420 418 411
f 746 161 867
f 418 420 422
f 490 773 298
f 496 772 773
f 394 442 445
f 562 767 832
f 739 636 820
f 204 725 658
f 773 490 496
f 725 223 635
f 447 454 428
f 472 186 637
f 215 284 98
f 189 130 496
f 458 464 30
f 410 462 460
f 125 469 464
f 635 247 487
f 487 269 629
f 641 487 629
f 268 269 487
f 269 393 629
f 390 269 268
f 469 126 64
f 349 761 763
f 655 64 477
f 303 674 670
f 290 393 277
f 611 290 928
f 163 474 483
f 928 307 605
f 635 641 648
f 531 605 533
f 677 674 100
f 477 309 485
f 506 202 207
f 679 485 240
f 240 121 684
f 312 912 594
f 684 679 240
f 121 685 684
f 186 187 345
f 503 505 146
f 912 332 892
f 772 130 132
f 685 120 512
f 501 505 159
f 725 648 658
f 505 513 373
f 513 517 364
f 892 847 564
f 110 527 713
f 714 847 339
f 522 541 154
f 51 714 346
f 231 103 540
f 714 51 404
f 541 695 343
f 567 772 123
f 502 500 506
f 578 577 563
f 867 659 673
f 577 578 583
f 597 575 432
f 592 104 583
f 913 492 493
f 845 167 839
f 599 104 592
f 386 178 23
f 599 603 615
f 110 227 378
f 615 261 599
f 706 402 639
f 603 626 114
f 132 123 772
f 624 610 195
f 409 706 317
f 746 673 682
f 114 615 603
f 120 327 227
f 624 414 403
f 691 429 697
f 642 631 632
f 642 118 631
f 429 433 853
f 646 118 642
f 642 649 646
f 152 682 691
f 682 433 691
f 181 643 60
f 654 297 646
f 122 325 121
f 140 130 187
f 421 416 617
f 123 661 555
f 309 308 240
f 698 260 686
f 702 693 177
f 698 701 699
f 672 441 436
f 291 126 125
f 109 691 697
f 143 140 186
f 874 872 816
f 665 441 672
f 188 192 489
f 665 658 653
f 712 704 699
f 653 451 665
f 927 697 317
f 712 740 734
f 648 461 653
f 178 375 19
f 923 880 116
f 641 461 648
f 740 756 748
f 748 758 228
f 926 706 639
f 479 641 482
f 754 742 362
f 354 754 362
f 407 669 38
f 203 458 128
f 482 629 620
f 756 765 758
f 182 754 154
f 128 127 192
f 254 246 252
f 611 382 620
f 764 398 228
f 499 192 127
f 764 766 156
f 766 776 156
f 930 611 928
f 420 156 776
f 140 132 130
f 788 7 8
f 387 166 168
f 420 776 134
f 136 760 197
f 300 387 415
f 750 197 760
f 745 201 197
f 148 208 209
f 733 148 745
f 258 35 106
f 593 533 605
f 731 208 733
f 236 318 910
f 729 210 208
f 728 210 729
f 727 216 210
f 188 489 579
f 929 573 556
f 724 216 727
f 573 929 582
f 723 218 724
f 722 218 723
f 720 219 722
f 717 224 720
f 514 224 717
f 188 579 138
f 876 556 573
f 707 681 226
f 898 904 546
f 472 143 186
f 212 795 221
f 899 391 921
f 854 925 931
f 213 795 212
f 140 143 145
f 404 54 714
f 833 922 924
f 415 387 786
f 143 408 185
f 238 3 793
f 1 3 238
f 31 799 752
f 622 238 244
f 918 799 515
f 380 376 171
f 915 752 357
f 617 476 421
f 619 244 618
f 618 249 616
f 616 249 614
f 636 739 613
f 388 613 10
f 614 250 608
f 357 791 915
f 383 688 388
f 608 259 607
f 571 438 576
f 295 667 666
f 92 96 94
f 607 259 604
f 372 726 700
f 667 295 303
f 367 726 372
f 604 267 601
f 298 295 207
f 923 875 880
f 363 732 367
f 408 467 74
f 148 209 87
f 298 301 295
f 359 747 363
f 601 267 600
f 359 355 755
f 600 272 598
f 598 272 596
f 353 755 355
f 301 298 773
f 596 278 591
f 747 755 751
f 591 278 425
f 588 425 781
f 388 688 813
f 769 771 913
f 763 353 349
f 202 771 200
f 506 500 913
f 74 467 744
f 773 570 301
f 82 708 707
f 320 647 326
f 500 492 913
f 331 554 557
f 242 910 320
f 344 335 340
f 910 908 647
f 554 335 550
f 239 222 703
f 549 550 335
f 549 344 544
f 166 167 168
f 544 352 543
f 543 368 542
f 17 15 167
f 17 845 157
f 907 536 919
f 157 850 155
f 155 850 153
f 542 368 539
f 150 633 74
f 153 854 151
f 151 854 149
f 149 858 147
f 147 862 144
f 539 375 535
f 759 903 38
f 530 535 178
f 144 862 141
f 141 866 139
f 139 866 137
f 530 386 525
f 137 870 135
f 525 396 521
f 135 870 872
f 133 872 131
f 131 874 129
f 129 923 117
f 923 874 875
f 170 119 902
f 521 396 400
f 20 932 101
f 99 101 932
f 99 886 97
f 95 97 199
f 95 891 93
f 93 896 90
f 518 400 786
f 90 896 85
f 85 901 83
f 83 905 81
f 169 166 300
f 81 905 79
f 77 79 796
f 77 909 75
f 439 394 545
f 75 914 73
f 73 914 71
f 71 916 69
f 442 394 439
f 468 466 366
f 442 447 434
f 7 562 920
f 794 534 811
f 924 899 833
f 434 447 428
f 428 454 419
f 419 462 410
f 38 898 759
f 902 111 897
f 466 468 495
f 526 524 534
f 25 59 56
f 96 43 45
f 895 401 61
f 182 343 338
f 483 389 163
f 483 162 389
f 897 59 25
f 883 894 775
f 776 777 150
f 59 897 111
f 380 384 389
f 774 882 893
f 111 902 119
f 778 708 225
f 501 159 380
f 167 166 839
f 159 505 373
f 176 191 867
f 373 513 369
f 364 369 513
f 850 890 925
f 354 364 517
f 354 522 154
f 177 369 709
f 154 541 343
f 446 445 437
f 376 380 159
f 204 223 725
f 217 198 214
f 214 703 222
f 437 569 446
f 610 211 195
f 414 624 195
f 403 630 624
f 889 718 715
f 160 313 424
f 181 630 403
f 888 246 239
f 179 643 181
f 174 650 643
f 651 650 174
f 163 384 165
f 487 247 268
f 165 651 163
f 171 683 165
f 174 474 163
f 557 313 331
f 475 515 799
f 376 693 171
f 285 273 757
f 177 693 376
f 627 885 884
f 174 179 474
f 509 508 516
f 294 302 310
f 709 702 177
f 709 362 742
f 154 754 354
f 182 338 183
f 780 785 803
f 183 768 182
f 423 413 881
f 183 338 777
f 638 338 343
f 633 638 408
f 590 401 895
f 692 185 329
f 190 188 194
f 515 475 25
f 270 190 194
f 190 270 128
f 195 427 414
f 7 788 562
f 915 878 571
f 877 595 438
f 203 205 286
f 44 48 61
f 474 206 483
f 210 209 208
f 61 62 895
f 413 895 62
f 211 432 427
f 172 42 169
f 398 764 220
f 515 263 918
f 437 575 569
f 228 758 764
f 124 885 426
f 175 871 350
f 84 498 327
f 225 514 716
f 327 371 227
f 918 263 730
f 898 448 759
f 371 327 36
f 839 374 890
f 227 371 378
f 451 441 665
f 228 235 748
f 444 180 457
f 233 231 107
f 187 868 345
f 759 448 586
f 189 292 868
f 734 748 235
f 653 461 826
f 924 922 237
f 292 193 196
f 446 671 394
f 461 641 479
f 922 551 237
f 391 237 455
f 482 641 629
f 918 868 799
f 196 200 293
f 771 293 200
f 558 455 237
f 281 287 894
f 894 893 281
f 248 566 241
f 257 251 104
f 255 430 453
f 257 261 265
f 509 775 287
f 260 266 676
f 509 516 524
f 265 261 108
f 523 516 531
f 322 316 523
f 273 252 888
f 265 271 262
f 811 534 316
f 316 315 811
f 676 686 260
f 366 466 581
f 478 495 468
f 330 547 315
f 547 336 552
f 366 471 468
f 760 495 473
f 657 471 284
f 336 342 553
f 553 900 552
f 832 900 553
f 865 878 791
f 792 284 4
f 31 571 576
f 286 288 291
f 438 571 877
f 906 864 863
f 4 790 792
f 8 7 319
f 303 295 301
f 291 304 306
f 570 773 567
f 739 617 392
f 617 416 392
f 306 311 309
f 309 311 308
f 170 628 668
f 613 739 10
f 739 392 10
f 656 675 668
f 656 815 675
f 680 678 365
f 813 613 388
f 324 333 314
f 687 198 668
f 379 688 383
f 295 666 207
f 815 656 636
f 377 694 379
f 325 498 84
f 689 333 266
f 334 696 689
f 700 377 372
f 861 834 860
f 703 721 239
f 732 726 367
f 834 861 256
f 348 341 704
f 747 732 363
f 356 358 704
f 735 888 721
f 370 358 356
f 735 264 757
f 735 273 888
f 755 747 359
f 369 364 362
f 353 763 755
f 647 761 326
f 761 349 326
f 376 373 177
f 779 757 264
f 780 779 279
f 384 380 171
f 235 395 19
f 736 871 737
f 562 788 917
f 910 647 320
f 785 804 803
f 414 406 403
f 256 323 803
f 813 675 815
f 415 786 400
f 427 419 414
f 422 420 705
f 432 428 427
f 430 489 499
f 587 580 590
f 437 434 432
f 445 442 434
f 446 394 445
f 671 586 448
f 819 609 627
f 456 449 450
f 455 563 248
f 865 791 769
f 581 579 463
f 645 652 817
f 644 464 469
f 652 662 715
f 874 923 129
f 715 664 652
f 694 812 688
f 477 64 126
f 750 760 473
f 485 655 477
f 465 715 718
f 507 207 666
f 465 774 494
f 865 486 480
f 812 675 813
f 485 484 655
f 207 202 298
f 883 504 825
f 493 865 769
f 783 782 504
f 679 484 485
f 202 200 298
f 196 490 200
f 196 193 490
f 877 859 476
f 302 803 323
f 189 496 193
f 814 806 810
f 168 719 789
f 821 814 810
f 391 899 924
f 713 527 532
f 467 408 472
f 302 294 887
f 786 787 518
f 538 519 532
f 561 532 527
f 926 35 33
f 538 532 660
f 540 555 561
f 551 586 640
f 319 241 565
f 660 532 561
f 113 161 746
f 161 176 867
f 8 319 565
f 223 247 635
f 781 585 784
f 620 629 393
f 887 780 302
f 269 390 393
f 671 640 586
f 781 784 588
f 599 589 603
f 393 290 611
f 626 603 606
f 928 290 305
f 623 238 622
f 625 1 623
f 774 893 894
f 312 332 912
f 626 632 631
f 332 339 847
f 847 892 332
f 757 887 285
f 847 714 54
f 793 3 8
f 732 807 726
f 858 931 857
f 675 812 687
f 168 167 15
f 273 735 757
f 920 921 7
f 402 385 639
f 167 845 17
f 638 633 338
f 646 649 663
f 650 663 649
f 845 850 157
f 888 239 721
f 663 654 646
f 706 409 48
f 850 854 153
f 676 654 663
f 429 409 317
f 661 692 660
f 854 858 149
f 676 663 686
f 858 862 147
f 433 429 691
f 678 680 677
f 699 711 712
f 712 734 356
f 711 710 753
f 862 866 141
f 712 711 740
f 682 436 827
f 734 740 748
f 866 870 137
f 214 687 808
f 748 756 758
f 664 816 652
f 872 133 135
f 198 687 214
f 754 182 768
f 872 874 131
f 665 659 658
f 758 765 766
f 658 648 653
f 766 764 758
f 776 770 777
f 668 198 170
f 117 923 116
f 787 786 789
f 929 330 822
f 533 822 322
f 556 336 330
f 531 322 523
f 899 920 833
f 662 444 889
f 346 323 256
f 491 482 620
f 116 880 911
f 911 20 116
f 382 491 620
f 911 932 20
f 932 886 99
f 645 443 662
f 930 382 611
f 382 930 516
f 886 824 199
f 605 531 930
f 491 508 848
f 628 170 902
f 256 347 346
f 482 848 479
f 891 896 93
f 347 256 861
f 820 617 739
f 866 819 817
f 605 594 593
f 896 901 85
f 929 593 582
f 612 881 885
f 901 905 83
f 826 451 653
f 451 457 180
f 672 659 665
f 441 180 851
f 79 905 796
f 436 673 672
f 436 851 827
f 909 914 75
f 682 673 436
f 914 916 71
f 584 902 897
f 876 86 342
f 69 916 1
f 829 433 827
f 700 808 694
f 788 3 916
f 853 829 417
f 409 61 48
f 402 48 855
f 870 817 816
f 855 29 360
f 874 816 664
f 385 361 102
f 830 880 875
f 576 897 25
f 819 634 817
f 68 69 1
f 106 856 730
f 743 736 738
f 910 242 236
f 862 857 819
f 744 879 102
f 880 830 831
f 840 528 843
f 401 846 44
f 803 302 780
f 769 791 357
f 878 915 791
f 831 911 880
f 918 873 345
f 576 25 475
f 799 31 475
f 841 29 846
f 879 856 102
f 106 639 385
f 573 564 876
f 911 831 802
f 342 556 876
f 337 339 332
f 25 510 515
f 350 29 841
f 564 573 892
f 892 582 912
f 510 25 56
f 864 906 837
f 312 328 337
f 929 822 593
f 33 35 258
f 871 360 29
f 840 860 835
f 864 158 863
f 29 855 44
f 916 914 917
f 808 687 812
f 594 307 312
f 307 305 328
f 916 917 788
f 33 56 927
f 840 835 809
f 307 594 605
f 736 743 361
f 531 516 930
f 290 277 305
f 852 109 927
f 318 835 860
f 21 844 529
f 852 59 112
f 620 393 611
f 102 743 744
f 112 113 852
f 751 763 762
f 647 785 762
f 805 747 751
f 252 268 254
f 230 835 229
f 487 641 635
f 637 879 467
f 124 851 164
f 809 230 221
f 161 142 176
f 807 732 805
f 247 234 254
f 230 809 835
f 808 700 807
f 345 637 186
f 176 184 191
f 812 694 808
f 204 849 223
f 849 204 191
f 813 688 812
f 635 648 725
f 849 184 198
f 815 613 813
f 815 636 613
f 217 223 849
f 659 191 204
f 217 234 223
f 191 184 849
f 859 480 421
f 795 213 511
f 245 461 243
f 878 865 859
f 802 886 932
f 191 659 867
f 452 718 889
f 223 234 247
f 176 142 184
f 246 254 234
f 865 493 486
f 293 771 357
f 268 247 254
f 771 769 357
f 805 264 735
f 268 252 390
f 161 113 112
f 486 493 488
f 390 252 274
f 867 673 746
f 264 751 279
f 274 277 390
f 746 682 152
f 281 848 287
f 827 433 682
f 808 703 214
f 152 691 109
f 109 852 113
f 476 859 421
f 296 305 277
f 476 595 877
f 305 307 928
f 196 293 292
f 595 476 820
f 726 807 700
f 752 293 357
f 307 328 312
f 310 328 305
f 56 59 852
f 292 752 799
f 328 310 323
f 886 825 824
f 312 337 332
f 807 703 808
f 891 824 782
f 193 292 189
f 844 21 22
f 429 853 409
f 109 697 927
f 56 33 510
f 105 559 553
f 339 337 346
f 346 714 339
f 51 346 347
f 317 926 927
f 564 690 876
f 863 844 232
f 799 868 292
f 510 33 258
f 843 528 529
f 844 863 842
f 861 840 843
f 861 158 347
f 861 860 840
f 752 915 31
f 158 843 842
f 843 158 861
f 842 529 844
f 919 837 906
f 906 232 907
f 809 528 840
f 730 873 918
f 730 856 873
f 873 856 879
f 856 106 385
f 817 634 645
f 837 919 838
f 817 652 816
f 919 906 907
f 919 536 537
f 743 102 361
f 904 669 838
f 898 669 904
f 669 898 38
f 703 807 721
f 405 404 838
f 669 405 838
f 922 833 836
f 294 285 887
f 361 385 402
f 869 645 634
f 830 875 664
f 916 3 1
f 864 51 347
f 402 855 361
f 909 801 914
f 397 890 374
f 48 44 855
f 796 909 77
f 879 637 873
f 901 798 905
f 580 925 397
f 48 402 706
f 896 800 901
f 891 823 896
f 409 62 61
f 853 62 409
f 881 413 417
f 417 62 853
f 86 407 299
f 459 893 882
f 199 891 95
f 830 465 831
f 829 426 417
f 426 829 124
f 426 881 417
f 124 829 827
f 433 829 853
f 886 802 825
f 774 894 883
f 851 124 827
f 164 884 124
f 441 851 436
f 180 164 851
f 443 869 164
f 911 802 932
f 715 830 664
f 874 664 875
f 736 361 360
f 451 180 441
f 457 452 889
f 889 444 457
f 866 817 870
f 106 35 639
f 459 718 452
f 826 452 457
f 452 826 245
f 451 826 457
f 862 819 866
f 858 857 862
f 461 245 826
f 459 882 718
f 479 243 461
f 854 931 858
f 850 925 854
f 846 401 580
f 845 890 850
f 491 848 482
f 848 281 479
f 825 494 883
f 382 508 491
f 900 832 767
f 508 287 848
f 896 823 800
f 839 890 845
f 504 782 824
f 42 374 839
f 516 508 382
f 908 910 318
f 534 524 523
f 552 818 548
f 42 172 173
f 901 800 798
f 818 552 900
f 533 322 531
f 871 175 737
f 868 187 189
f 22 232 844
f 593 822 533
f 822 315 316
f 929 556 330
f 330 315 822
f 838 919 537
f 904 838 537
f 318 860 834
f 908 318 834
f 465 830 715
f 556 342 336
f 105 836 559
f 833 559 836
f 29 44 846
f 908 834 804
f 562 917 828
f 299 836 105
f 818 900 767
f 832 553 559
f 562 832 920
f 811 315 548
f 828 801 821
f 801 828 917
f 821 797 814
f 836 299 903
f 401 590 580
f 797 821 801
f 905 798 796
f 796 814 797
f 810 548 818
f 814 798 806
f 798 814 796
f 909 796 797
f 811 548 810
f 413 587 590
f 404 51 837
f 51 864 837
f 837 838 404
f 909 797 801
f 529 842 843
f 158 842 863
f 232 906 863
f 800 806 798
f 529 528 511
f 794 811 806
f 785 908 804
f 785 647 908
f 859 877 878
f 526 534 794
f 877 571 878
f 571 31 915
f 173 351 42
f 524 783 509
f 350 173 175
f 29 350 871
f 823 526 794
f 783 524 526
f 526 823 782
f 42 351 374
f 841 374 351
f 504 775 783
f 509 783 775
f 782 823 891
f 885 124 884
f 887 757 779
f 914 801 917
f 426 885 881
f 890 397 925
f 825 504 824
f 775 504 883
f 925 587 931
f 587 925 580
f 802 494 825
f 785 279 762
f 494 831 465
f 831 494 802
f 894 287 775
f 590 895 413
f 438 897 576
f 884 164 869
f 762 279 751
f 423 931 587
f 587 413 423
f 931 423 857
f 762 761 647
f 617 820 476
f 595 820 621
f 751 755 763
f 893 459 243
f 751 264 805
f 609 857 423
f 423 881 612
f 662 443 444
f 721 805 735
f 621 584 595
f 857 609 819
f 443 645 869
f 612 885 627
f 636 621 820
f 628 902 584
f 805 721 807
