# avbd fit, rung f20-i16-s600-r1-h60 of Gate 6d (body space, fit phase only)
v -0.005025772 0.648004651 0.044380099
v -0.109530352 0.664729655 0.070441194
v -0.004901780 0.661602139 0.048285391
v -0.002403099 0.903302193 0.068484984
v -0.153451458 0.647273898 0.061632209
v 0.000236908 0.917970657 0.069327489
v -0.004738478 0.688410282 0.056300480
v -0.004798695 0.675106883 0.052116752
v -0.155586094 0.662904143 0.062539414
v 0.149749517 0.895886064 -0.111906603
v -0.172979653 0.657877505 0.054613788
v -0.188323677 0.658164978 0.040722791
v -0.195955813 0.657727599 0.025178989
v -0.170168549 0.645174623 -0.068505615
v 0.017505491 0.612262607 -0.060603373
v -0.152447268 0.640588880 -0.074857727
v 0.032039460 0.612124681 -0.061587177
v -0.134723276 0.640171111 -0.080685735
v -0.117261253 0.643254399 -0.087379262
v 0.191338658 0.619141996 0.022262093
v -0.002538022 0.874910653 0.065072522
v -0.002562805 0.861250281 0.061728023
v -0.099426873 0.638339996 -0.084940173
v -0.084996693 0.643897176 -0.082001746
v 0.098578393 0.800357521 -0.111390710
v -0.069686547 0.651160955 -0.080750532
v -0.126884758 0.856851935 -0.127417102
v -0.143123522 0.814629436 0.068160594
v 0.045689713 0.694079518 -0.091663904
v -0.158185691 0.824067712 0.062309921
v 0.072144486 0.823267817 -0.122334525
v -0.190764159 0.801463485 0.040092830
v 0.092493609 0.767452180 -0.108634233
v -0.200382978 0.647983789 -0.024894811
v 0.078498259 0.757418931 -0.105508469
v -0.155718252 0.866627395 -0.109102204
v -0.175852329 0.873329461 -0.070391826
v 0.011694136 0.770568609 0.070747264
v -0.180661008 0.881473839 -0.052313577
v -0.072498232 0.849521756 -0.143950731
v -0.031237105 0.864630103 0.061375391
v 0.019102860 0.660240173 -0.076803073
v -0.020665212 0.848426521 0.065981351
v 0.067654677 0.698641419 -0.095093690
v -0.042475369 0.850113988 0.066474326
v -0.177659482 0.889053822 -0.034507088
v -0.183645517 0.880261779 -0.017204113
v 0.077649318 0.716098249 -0.098575346
v -0.177253500 0.887791753 0.002573664
v -0.042131227 0.665160060 0.052832760
v 0.058188040 0.825026989 0.065627828
v -0.063538477 0.665729582 0.056895994
v -0.079875208 0.736820221 0.070532553
v 0.057725064 0.793553233 0.068678081
v -0.084556781 0.664579630 0.061923914
v 0.106582597 0.780330837 -0.112915955
v -0.104406521 0.734063983 0.073786370
v -0.173893526 0.738327086 0.063050754
v 0.123354971 0.793375134 -0.114894643
v -0.200249165 0.733973324 0.034313016
v 0.088422947 0.702086627 -0.098542400
v 0.107931815 0.699546456 -0.102849804
v -0.200258330 0.808737099 0.020928374
v -0.197110906 0.826888204 0.018267265
v -0.208790943 0.726257980 -0.029533407
v -0.196723968 0.718668163 -0.051723249
v -0.186091766 0.726875663 -0.067880064
v 0.006781710 0.643700957 0.051280040
v 0.010455574 0.635554552 0.040494949
v -0.169553846 0.714330316 -0.080894373
v 0.024814496 0.635354340 0.042068563
v -0.114190578 0.717586040 -0.107905827
v 0.039005220 0.634713769 0.044779811
v -0.014809621 0.740213156 -0.105315529
v 0.053074371 0.633958876 0.047981728
v -0.091859683 0.852455020 -0.142069906
v 0.066897146 0.633009374 0.051788669
v -0.109783851 0.855965137 -0.137300864
v 0.080465972 0.631894767 0.056185216
v -0.116939649 0.844357789 -0.129312351
v 0.093661726 0.630614102 0.061290361
v -0.137295336 0.872329056 -0.125453725
v 0.106518507 0.629220903 0.066810429
v -0.175395161 0.843536973 -0.088729709
v 0.119176053 0.627814472 0.071971148
v 0.042724364 0.759698749 0.067421705
v -0.145058274 0.888681114 0.039151274
v -0.121890262 0.790898979 -0.115707614
v -0.158251867 0.689186454 0.064981654
v 0.132051528 0.626494586 0.069675617
v -0.141204625 0.799549699 -0.107934669
v -0.020755896 0.812392831 0.066124730
v 0.144515216 0.625939310 0.063980944
v -0.041812964 0.815300345 0.065954447
v 0.156912237 0.624944568 0.058227055
v -0.027652299 0.830879807 0.063652441
v 0.170155779 0.623716295 0.055370770
v -0.020734027 0.879487395 0.065020382
v 0.179686546 0.622132897 0.045796368
v -0.060130943 0.863302708 -0.146593526
v 0.188345820 0.620859504 0.035383202
v 0.030709645 0.741666794 -0.105838023
v -0.083088718 0.835715294 -0.136846736
v -0.111179553 0.701044023 0.074038915
v 0.035506636 0.742465794 0.070175737
v 0.061346196 0.756692469 -0.103269495
v -0.111815229 0.832343221 -0.121847786
v -0.141516313 0.687051296 0.071604170
v 0.133600906 0.758347690 -0.106403127
v -0.126926988 0.825910687 -0.114085160
v 0.137591183 0.804135442 -0.109226122
v 0.146597564 0.788432956 -0.104424849
v 0.148232430 0.770211399 -0.101475440
v -0.164788902 0.704941332 0.063133754
v -0.143433496 0.818107903 -0.107318319
v 0.197458118 0.617066443 0.010349507
v 0.199376002 0.615832984 -0.002113478
v -0.195509762 0.693505228 0.038251400
v 0.154419005 0.805588901 -0.101801023
v -0.160890400 0.830130696 -0.099671349
v -0.187512442 0.835423112 -0.070807405
v -0.191654548 0.849217772 -0.057717640
v -0.051915936 0.817672431 -0.115230739
v 0.160946146 0.698989928 -0.081394926
v -0.174852341 0.849116027 0.038371075
v -0.192261815 0.844485164 0.018292170
v -0.125818789 0.842393577 0.065193251
v -0.137220442 0.856425464 0.057156630
v 0.195148334 0.614317060 -0.014927504
v -0.016601328 0.809452713 -0.110156730
v 0.192916706 0.612639427 -0.028253684
v -0.035657655 0.806159377 -0.109152690
v 0.185609311 0.611438334 -0.039733805
v -0.019006565 0.701131701 -0.091572016
v 0.178181008 0.610022962 -0.051275499
v -0.110105813 0.890111923 0.050037969
v 0.169536427 0.608657658 -0.062368751
v -0.090360411 0.885300338 0.056171287
v 0.156221807 0.607781529 -0.066809401
v -0.017364483 0.793357670 -0.106639445
v 0.142849743 0.606801271 -0.071075052
v 0.169074804 0.797494054 -0.095057353
v -0.018624399 0.776558638 -0.104706869
v 0.130266696 0.606516480 -0.075042963
v -0.037871022 0.789057612 -0.106823288
v -0.179917619 0.803460777 -0.088615812
v 0.116913833 0.606339693 -0.079196386
v -0.142470449 0.902188122 0.028188000
v 0.102383733 0.607265770 -0.077244185
v -0.024138439 0.723224163 -0.093982011
v 0.088772297 0.608658195 -0.072855882
v 0.149399832 0.754219174 -0.098030783
v 0.074863531 0.609892190 -0.069040142
v -0.100508712 0.755611181 -0.109659590
v 0.060728006 0.610853136 -0.065952681
v -0.058631439 0.686230540 -0.089883953
v 0.046460886 0.611661315 -0.063328803
v 0.048394687 0.854616940 0.063235998
v -0.185188144 0.776404083 -0.077842988
v -0.201452136 0.656483769 -0.006095248
v 0.165308192 0.778986871 -0.094882615
v -0.207093000 0.798888922 -0.034645494
v -0.210072115 0.768044293 -0.022194063
v 0.180205643 0.694487214 -0.068160281
v -0.209159181 0.754632175 -0.040873300
v 0.003077012 0.638505101 -0.069196060
v 0.021394182 0.627826214 -0.066043004
v 0.002995881 0.625329554 -0.064673573
v 0.003145617 0.651651323 -0.073738232
v 0.171557754 0.818505585 -0.094577082
v -0.197187752 0.756603062 -0.057880133
v 0.003213902 0.664824247 -0.078168996
v 0.003258233 0.677854776 -0.082980588
v -0.210942775 0.756752133 -0.001624687
v 0.003324578 0.690922439 -0.087688521
v 0.181689233 0.787137866 -0.085340276
v -0.172336325 0.748937488 -0.086632185
v -0.105831221 0.623884797 -0.084010147
v -0.204481676 0.767769516 0.024181077
v 0.190879598 0.710681856 -0.057182826
v -0.200495407 0.751830935 0.035307899
v -0.086266138 0.741441548 -0.109044671
v -0.072365239 0.730326593 -0.101707444
v 0.185749069 0.804756761 -0.078677341
v -0.039542437 0.771670282 -0.104917325
v 0.003573535 0.782916129 -0.104963735
v 0.003538701 0.796800971 -0.106955767
v -0.103212014 0.870768726 0.054322947
v 0.003534529 0.810299575 -0.110614076
v -0.124347948 0.867850184 0.055267453
v 0.191447467 0.785024285 -0.068662234
v -0.112771556 0.855957210 0.062969014
v 0.003507818 0.822299600 -0.117748797
v -0.126186222 0.881577134 0.047412165
v -0.158428267 0.762514710 0.068605386
v 0.003484874 0.831798553 -0.127959326
v -0.115929820 0.906334519 0.045884311
v 0.189508304 0.826053143 -0.069057927
v 0.166025788 0.640503645 0.055678386
v 0.003470950 0.842970073 -0.136250928
v -0.128673241 0.897446930 0.039934620
v 0.003470878 0.855583668 -0.142079890
v -0.158868358 0.861588836 0.049003832
v 0.202476352 0.781341314 -0.050891317
v -0.159769341 0.877118111 0.035677575
v -0.209901929 0.798776090 0.001652174
v 0.003482043 0.869241357 -0.144831106
v -0.153716967 0.905769050 0.014675297
v -0.160029560 0.890168488 0.019716267
v -0.166712433 0.902012229 0.000041432
v -0.139104202 0.757391870 0.074694529
v 0.029499222 0.917135715 0.068391524
v 0.014452673 0.917019963 0.068895623
v 0.197190255 0.843290806 -0.049820930
v -0.002456941 0.888981044 0.066780724
v -0.174162015 0.896228492 -0.017787859
v 0.202235743 0.820942879 -0.043923881
v -0.173293591 0.896200001 -0.050144315
v -0.170930579 0.890540242 -0.066146307
v -0.067571752 0.669116497 -0.085955314
v 0.044701532 0.917336583 0.067435071
v 0.200391144 0.835392177 -0.027534988
v 0.207399175 0.797760427 -0.032540482
v -0.167210802 0.885717750 -0.082778409
v -0.149050936 0.882878125 -0.114885524
v -0.118651152 0.871569157 -0.136737853
v -0.142930195 0.836497486 -0.107101902
v -0.098378696 0.671930373 -0.093608633
v 0.074755207 0.917972386 0.062195022
v 0.059746642 0.917677701 0.064885661
v -0.094464421 0.825098872 -0.125245750
v -0.002698937 0.847892940 0.065422967
v -0.101348594 0.839192390 -0.135090932
v 0.204484507 0.816231251 -0.020371225
v -0.116506971 0.663577318 -0.093165942
v 0.089385122 0.918199658 0.057853144
v -0.027386775 0.732620060 0.065252505
v -0.027150173 0.650897026 0.046715088
v 0.199119195 0.846692204 -0.011543765
v -0.199663922 0.834117532 -0.046028387
v -0.038939901 0.691454589 0.059237204
v 0.103010967 0.918263793 0.051427048
v 0.208908170 0.720934987 0.008684129
v -0.050911807 0.649629951 0.050686520
v 0.208884522 0.719090521 -0.009443589
v 0.202576324 0.830954731 -0.004941647
v 0.209008664 0.798943877 -0.006971664
v -0.055537086 0.701378942 0.064661838
v -0.074660376 0.649005055 0.056427795
v -0.096534938 0.648990393 0.063926198
v -0.093358539 0.693437755 0.068230294
v 0.196906060 0.823917031 0.020189373
v -0.094559833 0.678096771 0.066498347
v 0.206225917 0.815192342 0.000714343
v -0.053017020 0.834105670 0.065673418
v 0.093562484 0.853162646 0.067516260
v -0.110721268 0.684069991 0.072496571
v 0.072891861 0.770426929 -0.107206844
v -0.117031932 0.646087050 0.071981549
v -0.197073489 0.688591182 -0.045308303
v -0.127846986 0.693374753 0.077263638
v -0.135467425 0.659090281 0.071021244
v 0.065200523 0.783272505 -0.107863352
v 0.169929191 0.871056080 0.027516495
v -0.128827035 0.675871253 0.075708210
v -0.201863021 0.675867379 -0.034845773
v -0.137915939 0.641937017 0.068215519
v 0.204736158 0.803672671 0.016955186
v 0.200573638 0.790041089 0.028983319
v -0.142778337 0.872842014 0.049368210
v -0.147207573 0.674728036 0.067628235
v -0.167590857 0.640265882 0.054478049
v 0.186081201 0.840293765 0.029252788
v 0.183045298 0.822523236 0.040838432
v -0.178016245 0.691098094 0.057006251
v -0.167423785 0.675396204 0.059296507
v 0.180316046 0.806018054 0.054506175
v -0.183127105 0.641909838 0.046696953
v 0.153607666 0.878187954 0.043094922
v -0.186505675 0.674804091 0.049971603
v 0.202283949 0.718335509 0.028393209
v -0.049259253 0.917130649 0.066485867
v -0.195484787 0.673891544 0.031175682
v -0.024320196 0.898140430 0.066865124
v 0.173753142 0.837981045 0.047866631
v -0.170290411 0.864592254 0.031993337
v 0.192826226 0.714791358 0.047352735
v -0.173560128 0.875986278 0.018230107
v -0.202651143 0.666442096 0.012738658
v 0.172464818 0.789473951 0.064811938
v -0.183462232 0.860478222 0.018030094
v 0.026219245 0.821178317 -0.117323197
v 0.027133727 0.834326148 -0.130723119
v 0.156450003 0.836284459 0.060977049
v -0.021496480 0.867764473 -0.145051256
v 0.166660354 0.821319222 0.060972195
v -0.204252288 0.684764504 0.017020844
v -0.015691195 0.850518048 -0.140682518
v 0.022046302 0.757133245 0.066308238
v -0.012292794 0.649544120 -0.073221989
v -0.036435153 0.854427338 -0.142906114
v 0.138378456 0.843998551 0.062280782
v -0.041976560 0.870372295 -0.146009162
v -0.188008830 0.872124314 0.001551208
v 0.154675230 0.803434491 0.067353681
v -0.196549326 0.855055928 -0.001020531
v 0.137526229 0.789067328 0.073833123
v -0.193695426 0.855118632 -0.038534407
v -0.199083120 0.844670296 -0.021790512
v 0.143102080 0.824706197 0.066886470
v -0.191490948 0.863046527 -0.018830534
v 0.118011579 0.796678722 0.077950515
v -0.198677570 0.636982977 -0.010026944
v -0.204002067 0.674541235 -0.002262419
v 0.100517079 0.719103456 0.073383182
v 0.119482540 0.717114151 0.079160802
v 0.105534390 0.737632990 -0.108859465
v 0.087448291 0.897245765 0.058570284
v -0.020914678 0.690618455 0.057367474
v 0.115976095 0.918279052 0.045000575
v -0.186700895 0.865209579 -0.055478055
v 0.129917040 0.732696414 0.078596458
v 0.116227746 0.834402561 0.070113443
v -0.204944059 0.680717587 -0.017011996
v -0.181207865 0.855484128 -0.073222876
v 0.128186032 0.918248832 0.038921177
v -0.156704754 0.849404693 -0.099794693
v 0.130335793 0.810591042 0.072834991
v -0.058568746 0.768208385 -0.105947614
v 0.089919299 0.736253023 0.072502069
v -0.195688397 0.631023109 -0.029941997
v 0.097228222 0.797672629 0.074877135
v -0.202780291 0.665185332 -0.020849213
v -0.190088898 0.670564771 -0.050892562
v -0.185622245 0.626154840 -0.044530164
v 0.069533996 0.733158529 0.068820760
v 0.107162356 0.815591455 0.077781752
v -0.060364895 0.741467774 -0.107519649
v 0.087157764 0.810317338 0.075038210
v -0.190244928 0.642006338 -0.042138569
v -0.182911009 0.682803631 -0.062716216
v 0.055531763 0.745463669 0.071819238
v -0.075135261 0.756883740 -0.105110087
v -0.177399427 0.631390393 -0.059063137
v 0.023056310 0.787135124 -0.105544582
v 0.086189896 0.829002500 0.068993844
v 0.067782335 0.844153106 0.066917881
v -0.177637473 0.664294779 -0.065963604
v 0.139875084 0.917733192 0.029862246
v 0.024950169 0.685848415 -0.086617947
v 0.026380047 0.672116876 -0.081574976
v -0.159775585 0.626945317 -0.069151282
v 0.149321228 0.916792095 0.019216049
v -0.123889685 0.757737994 -0.111367442
v 0.157598183 0.915780723 0.007889268
v -0.148163140 0.668645978 -0.081431434
v 0.048592322 0.840287328 -0.136684507
v -0.160917312 0.658433735 -0.074430525
v 0.164929956 0.914801121 -0.003975518
v 0.038276661 0.710185409 -0.092767932
v 0.041203123 0.727277339 -0.097216010
v -0.136609763 0.746120870 -0.103322946
v 0.170409754 0.913104415 -0.016794933
v -0.141953468 0.762646079 -0.103544459
v -0.100863375 0.869523644 -0.143114150
v -0.043884374 0.884152710 0.063872799
v 0.172601566 0.910731673 -0.030528933
v -0.140984148 0.624184191 -0.074841693
v -0.156054869 0.755701184 -0.095588975
v -0.145863563 0.653046489 -0.080169789
v -0.141763240 0.853905380 -0.114343956
v 0.174721479 0.908825397 -0.043641679
v -0.172634214 0.766087830 -0.089615241
v 0.038571566 0.659596622 -0.077949062
v -0.123359904 0.625265539 -0.080751553
v -0.185818866 0.760901272 -0.073706158
v 0.174404055 0.906638324 -0.058039539
v -0.128179908 0.841785252 -0.117676735
v 0.171730176 0.904136837 -0.072653934
v -0.195897847 0.777076602 -0.060304631
v -0.131850332 0.657431304 -0.086348720
v 0.178282917 0.749903381 0.062827349
v 0.165955111 0.901513875 -0.086389884
v -0.206105471 0.768254399 -0.046391524
v 0.051502891 0.741601467 -0.106620170
v -0.089660645 0.626189530 -0.078463770
v -0.013786274 0.632781506 -0.067569472
v 0.159752905 0.899026692 -0.100440837
v -0.207924917 0.783421159 -0.039424732
v 0.192350939 0.805962384 0.035254747
v -0.021592587 0.718043685 0.060079198
v 0.139575690 0.892820477 -0.123333178
v 0.190207213 0.785439134 0.047708504
v -0.070234813 0.788676918 0.071564712
v -0.099897504 0.654078364 -0.089363679
v -0.070625916 0.631291509 -0.074819610
v 0.058679320 0.662442267 -0.081522211
v -0.083807670 0.661875188 -0.087012887
v -0.052701175 0.644882381 -0.075569548
v -0.050233968 0.627928972 -0.069535837
v 0.079508409 0.685778856 -0.093022473
v 0.064000919 0.729122519 -0.100516915
v -0.192109019 0.764504731 0.048617668
v 0.045328423 0.807681441 0.071971208
v 0.036714755 0.790673077 0.066788450
v -0.192392766 0.782729506 0.043992575
v 0.030150438 0.773654461 0.071383625
v -0.022341643 0.757801354 -0.100849077
v 0.101711646 0.718149602 -0.104371011
v -0.177996263 0.795862556 0.061365254
v -0.051070284 0.672664702 -0.084521957
v -0.056155276 0.659547508 -0.080992267
v 0.111518130 0.677706897 -0.098278433
v -0.173315555 0.775916219 0.064246558
v -0.031886067 0.644001722 -0.072554983
v 0.127824470 0.890340030 -0.131908104
v 0.126382813 0.695140600 -0.096386321
v -0.039674558 0.660901189 -0.079144098
v -0.154348940 0.789453685 0.068963841
v -0.035010695 0.683600128 -0.086448587
v 0.114028729 0.888033390 -0.137908369
v -0.020861074 0.664788663 -0.078863360
v 0.118932188 0.658901632 -0.090735942
v -0.200205177 0.649307966 0.010109182
v -0.191527754 0.641280174 0.028951693
v 0.141938701 0.692824900 -0.088614359
v -0.145075083 0.773678422 0.072964862
v -0.129218757 0.784718513 0.076090083
v 0.124086305 0.728688121 -0.106117085
v -0.076917946 0.837683558 0.068004228
v -0.064223625 0.917675674 0.063910052
v -0.118002452 0.765822053 0.080681838
v 0.142591506 0.724946201 -0.096064851
v -0.105983414 0.781453967 0.077164680
v -0.088917449 0.823555470 0.069889188
v 0.177065924 0.731974125 -0.080129407
v -0.092298910 0.766365230 0.074672505
v 0.111645915 0.832735181 -0.120083570
v -0.077929296 0.806464314 0.073764674
v -0.101272285 0.811342120 0.076299720
v 0.189346433 0.727899969 -0.063078262
v -0.093379647 0.795118093 0.074143067
v 0.186672285 0.681222320 -0.056901861
v 0.194196790 0.694223046 -0.049534045
v -0.086310163 0.780506551 0.073341951
v -0.069878250 0.770414412 0.070860073
v -0.115866020 0.798052251 0.078007169
v -0.028698793 0.781731069 0.065543935
v -0.124293804 0.813569427 0.073622495
v -0.113268577 0.827553093 0.072507687
v 0.201393887 0.726273775 -0.046381347
v 0.207832545 0.704942107 -0.020748025
v -0.064940698 0.818996310 0.067289181
v -0.137563199 0.800471187 0.072051316
v -0.043884996 0.720043778 0.061787922
v -0.136478379 0.828497231 0.067174301
v 0.203243732 0.708294451 -0.040370032
v -0.153240949 0.843057632 0.058770139
v 0.207664013 0.704455853 -0.001709810
v -0.177784607 0.814006150 0.053981096
v 0.210093409 0.739299953 -0.007154658
v -0.158946693 0.806184173 0.065181032
v -0.065745160 0.852872014 0.066231430
v -0.174633890 0.831823230 0.048979029
v 0.203509256 0.672357023 0.003105898
v -0.068512842 0.883386910 0.060923956
v 0.003562228 0.755381882 -0.100547567
v -0.063668571 0.899961948 0.062924035
v -0.185368553 0.834369540 0.032304563
v -0.203566983 0.789100647 0.023456419
v -0.045247514 0.902804971 0.065842323
v 0.003570300 0.769070148 -0.103123203
v -0.093301378 0.918920994 0.055736244
v -0.210772008 0.777716339 0.001568997
v 0.078645274 0.811293244 -0.113071404
v 0.120363452 0.862543464 -0.134520590
v -0.201920703 0.836345077 -0.001885970
v -0.079098299 0.918287635 0.061065577
v 0.208329231 0.738294840 0.018516878
v 0.099374130 0.886147201 -0.143616736
v -0.186025485 0.872252643 -0.035871152
v 0.202293158 0.753032088 0.031604759
v -0.209275648 0.788361907 -0.017855072
v -0.206493378 0.807890236 -0.018390059
v -0.202586323 0.825979233 -0.022066355
v 0.083825842 0.884774804 -0.147743106
v 0.210480660 0.783535898 0.011391943
v 0.067975357 0.884018719 -0.149202138
v -0.089659110 0.855327249 0.065137118
v -0.011852631 0.834804535 -0.131011754
v 0.193840802 0.746139169 0.048906930
v 0.052191388 0.883659244 -0.146844655
v 0.061891921 0.870111465 -0.148311242
v 0.197135836 0.667782784 0.026126761
v -0.082637638 0.900704205 0.060340006
v -0.015763696 0.823749363 -0.119033255
v -0.201016396 0.797181547 -0.055090360
v -0.168367594 0.865179718 -0.089731947
v -0.101197004 0.841349423 0.070864290
v 0.036116581 0.883614361 -0.145821586
v -0.189717203 0.793295085 -0.073465034
v 0.019888015 0.883452058 -0.145062059
v -0.158529863 0.791869044 -0.100010358
v 0.177674785 0.676545441 0.055716224
v -0.175097853 0.784089684 -0.091725901
v 0.019701902 0.872411430 -0.145343572
v 0.003482349 0.883211970 -0.144623846
v 0.184515327 0.730299354 0.059006967
v 0.174314171 0.711905837 0.060751416
v 0.085420981 0.783904016 -0.110001661
v 0.015580310 0.893629670 0.066888511
v -0.161210626 0.810832620 -0.099495158
v -0.157021597 0.773713470 -0.098411731
v -0.160867244 0.882849514 -0.100138545
v 0.069958970 0.797670662 -0.108925894
v 0.163141310 0.731018066 0.066662833
v -0.137180060 0.779285729 -0.108295962
v -0.040926345 0.612210512 -0.063263535
v -0.102226518 0.784724057 -0.112424493
v -0.055278637 0.611647248 -0.065575838
v -0.069531560 0.610905707 -0.068371736
v -0.112888955 0.772684872 -0.114812508
v 0.141983360 0.721483886 0.073197171
v 0.154099062 0.707171023 0.067880288
v -0.083606742 0.609918118 -0.071765378
v 0.146046415 0.686612248 0.070100829
v -0.106804930 0.818955302 -0.113307439
v 0.036709826 0.888329327 0.065382697
v 0.022442443 0.876638234 0.064703375
v -0.097469941 0.608741164 -0.075695977
v 0.145633817 0.742340505 0.073384792
v -0.100261733 0.801408648 -0.112298347
v 0.128720507 0.747723699 0.078627527
v 0.133141115 0.701907992 0.075849041
v -0.111166641 0.607240856 -0.080951661
v -0.003187330 0.820380986 0.063139722
v -0.003408320 0.807579339 0.068172902
v -0.083965912 0.786310077 -0.110448383
v -0.125053287 0.607591510 -0.077235445
v -0.071728811 0.824617386 -0.124046549
v -0.092039078 0.770917892 -0.110055402
v -0.137777925 0.608006120 -0.073361360
v -0.151155338 0.609104276 -0.069175050
v -0.164483592 0.609999061 -0.064973012
v -0.051645786 0.798566461 0.072890110
v -0.027163545 0.798141122 0.071616337
v 0.082821563 0.721920729 0.070263132
v 0.085589185 0.705683708 0.068914101
v -0.175548986 0.611289144 -0.056290518
v -0.183070153 0.613020420 -0.044849254
v -0.029345423 0.749014974 0.068587959
v 0.067615241 0.715490937 0.067026347
v 0.049057849 0.727365315 0.064754263
v -0.190936953 0.614459455 -0.033812691
v -0.068227291 0.813424706 -0.112102926
v 0.075793155 0.749239922 0.073777124
v -0.195535928 0.616064727 -0.021122321
v -0.053152598 0.738788247 0.068295777
v 0.027806330 0.726864040 0.062638983
v -0.031458717 0.704728246 0.062249362
v -0.086631104 0.815844715 -0.112855911
v 0.024337618 0.689343572 0.057599016
v -0.066120647 0.721016645 0.064752780
v 0.069247328 0.779350638 0.073943287
v -0.031318571 0.678564429 0.054319013
v -0.052584600 0.681220770 0.057484496
v -0.050518431 0.829709351 -0.127768427
v -0.065792538 0.835555255 -0.135485381
v -0.073231950 0.753335834 0.074091434
v -0.051981151 0.844365299 -0.139890656
v 0.092127003 0.831107318 -0.132348403
v -0.200920746 0.617788553 -0.008775210
v 0.082375459 0.765728354 0.072171673
v -0.073987767 0.684612870 0.062048983
v -0.097914197 0.750233829 0.076061502
v 0.096330605 0.819725037 -0.117003821
v -0.077105418 0.704570770 0.068289712
v -0.088357009 0.721379876 0.069014624
v -0.078432918 0.868163586 0.057316154
v 0.077170156 0.667791069 -0.086509392
v -0.054505993 0.867028832 0.059453320
v 0.101371251 0.769416869 0.075364113
v -0.095796324 0.707834542 0.071692839
v 0.132069349 0.832851291 -0.110655069
v -0.195813596 0.619631171 0.002649909
v -0.028677404 0.765535951 0.070998088
v 0.096484393 0.660060465 -0.088898718
v -0.188818052 0.623062491 0.028263396
v -0.130047113 0.728246808 0.077817500
v 0.092151456 0.675653577 -0.091890968
v -0.188172847 0.624381900 0.041754566
v -0.110187337 0.717798829 0.074915141
v 0.114758112 0.758519530 0.080208771
v 0.121539690 0.776960313 0.079362012
v 0.125465497 0.846803963 -0.122495569
v -0.176551193 0.625528574 0.048744608
v -0.120448604 0.746554792 0.080358997
v -0.165396959 0.626709580 0.056412406
v -0.129660904 0.710264802 0.077237062
v -0.152383506 0.627572834 0.060184974
v -0.140021592 0.628028333 0.065885477
v -0.139889628 0.742510378 0.074807808
v -0.148703843 0.716656685 0.069969885
v -0.128449321 0.629041135 0.071279474
v 0.138820961 0.764807522 0.075139493
v -0.153733760 0.732216060 0.069674619
v -0.114855960 0.630066156 0.069818787
v -0.102034196 0.631218553 0.064543299
v 0.136824682 0.653785646 -0.083260953
v -0.157363161 0.747863770 0.069043443
v 0.176085234 0.770356178 0.063857421
v 0.137055218 0.667449892 -0.085662805
v 0.157326415 0.879831612 -0.105931401
v -0.089173608 0.632249951 0.059042465
v -0.145325303 0.701103806 0.070671365
v -0.075972341 0.633122087 0.054020692
v 0.131882057 0.876789927 -0.129648164
v -0.062532194 0.633912206 0.049377598
v -0.048778351 0.634506106 0.045503475
v 0.192477420 0.764347732 0.047984090
v 0.142415792 0.848095417 -0.109865047
v -0.034879282 0.635001004 0.042040415
v -0.020814361 0.635063350 0.039671373
v -0.175848454 0.756167471 0.063077547
v -0.017921271 0.642826855 0.050888479
v -0.170025706 0.721423090 0.062719919
v 0.151590675 0.663855731 -0.078776494
v 0.155090064 0.834187031 -0.101018310
v 0.201491281 0.772090495 0.029336711
v -0.192385748 0.745198548 0.051718615
v -0.186241731 0.708304524 0.055466957
v -0.190932810 0.726808786 0.052551556
v -0.036492102 0.739124179 -0.105797648
v 0.167697996 0.660268664 -0.071202651
v 0.210171789 0.778943598 -0.010526102
v 0.151844844 0.862424016 -0.111531220
v 0.017755644 0.771066725 -0.103696451
v -0.047549699 0.754941344 -0.102387927
v 0.071933344 0.743397832 -0.107673332
v -0.050603114 0.758726835 0.072468750
v 0.210993439 0.760326147 0.007450579
v -0.198581100 0.714696646 0.035413135
v -0.209148213 0.744734943 0.017305531
v -0.187435836 0.818683624 0.035716455
v 0.183191016 0.664435625 -0.058177847
v -0.206679791 0.704204440 0.016969839
v 0.121425427 0.897814274 0.044339813
v 0.210247040 0.759168983 -0.018128501
v -0.208761781 0.724101663 0.015173201
v -0.210050613 0.734586477 -0.005554284
v -0.210006624 0.745877802 -0.023473332
v 0.192057177 0.657133460 -0.043606929
v 0.209504694 0.742561460 -0.031834200
v -0.206607312 0.693061709 -0.002716756
v -0.205824941 0.817887008 -0.000369269
v 0.159032091 0.850313663 -0.097427011
v -0.034191485 0.916701138 0.068072841
v 0.207091019 0.760776877 -0.044049460
v 0.192898065 0.763450503 -0.063180983
v -0.076001197 0.800483584 -0.109894872
v -0.054687254 0.801828086 -0.108491793
v 0.195824832 0.675404429 -0.043602146
v -0.208469599 0.712714314 -0.009526156
v 0.199730888 0.649033964 -0.028414970
v 0.199593976 0.744240701 -0.052629292
v -0.012920551 0.883487046 -0.144660145
v -0.029184539 0.883573174 -0.145303220
v 0.176755920 0.839235306 -0.087811254
v 0.016055111 0.786245763 0.065791667
v -0.045226421 0.883600235 -0.146498770
v -0.050386768 0.777420938 0.067427121
v 0.188271970 0.744012475 -0.068184778
v 0.179532334 0.751665950 -0.081756905
v -0.060970537 0.883756161 -0.148579195
v 0.173422411 0.858076096 -0.085535742
v -0.206854433 0.694040656 -0.024575189
v -0.076999687 0.884209991 -0.148612574
v -0.082145691 0.866352439 -0.147484571
v -0.203594044 0.814604461 -0.041612852
v -0.092656769 0.885329723 -0.146261796
v -0.107166193 0.887227416 -0.140987068
v 0.159743488 0.739972711 -0.090645805
v -0.200761646 0.737846017 -0.050298072
v -0.192721024 0.814861655 -0.066659369
v -0.179795295 0.823009491 -0.087678306
v -0.205146551 0.707074821 -0.038392089
v 0.184946492 0.850339532 -0.068656676
v 0.168127552 0.887794316 -0.078493334
v -0.195824027 0.658858001 -0.038831096
v 0.049662281 0.776722312 0.072495602
v 0.139523223 0.741086602 -0.100673541
v -0.060094934 0.785245776 -0.108153000
v -0.186860666 0.743777394 -0.070625260
v 0.173813850 0.886099041 -0.062094986
v -0.074063748 0.773461223 -0.108403563
v -0.184132814 0.652021945 -0.055027388
v 0.123814270 0.744949698 -0.108958319
v -0.190218180 0.700199187 -0.056587420
v -0.171512619 0.695471406 -0.075937957
v 0.177915528 0.887429416 -0.044797651
v -0.183705151 0.710902154 -0.067553870
v -0.171160847 0.731771052 -0.083785117
v 0.193729073 0.856351495 -0.028946141
v -0.165917993 0.676416516 -0.074867383
v -0.013858614 0.681315482 -0.084460452
v 0.086041078 0.731847048 -0.104603566
v -0.120953485 0.889725983 -0.135144159
v -0.133771151 0.892494202 -0.128209516
v -0.153612867 0.738495052 -0.093874499
v -0.152144045 0.721131623 -0.090954028
v -0.152177632 0.703440845 -0.087197945
v -0.150737911 0.685933709 -0.083195671
v -0.124490619 0.808685482 -0.115328565
v 0.067416064 0.810707927 0.073381454
v 0.203364179 0.669400454 -0.023279712
v -0.154795632 0.899252295 -0.106093034
v -0.163009197 0.902430654 -0.093047425
v 0.205810502 0.687564790 -0.012320062
v 0.002884786 0.612078547 -0.060274065
v -0.168748349 0.905231178 -0.079141565
v 0.192263499 0.863088727 -0.005398465
v -0.173572928 0.907774448 -0.064815328
v -0.174024895 0.910063148 -0.050311856
v -0.173795238 0.912458777 -0.036904532
v 0.208891302 0.775842607 -0.030974496
v 0.176044926 0.894097328 -0.031002516
v -0.171090037 0.914687991 -0.023046639
v -0.166331142 0.916578948 -0.009719508
v -0.158995956 0.917815566 0.002368242
v 0.053427875 0.771690369 -0.105759062
v -0.150815427 0.918656468 0.014016934
v 0.176180243 0.893287063 -0.014301173
v -0.142237559 0.919556737 0.025617773
v -0.132697940 0.675468206 -0.089115739
v 0.184439287 0.859880447 0.017658511
v 0.021803588 0.715619206 -0.092456259
v 0.003387698 0.704152286 -0.091850348
v 0.003453156 0.718039036 -0.092367224
v 0.145415619 0.877890229 -0.118701413
v -0.133543208 0.693032920 -0.092918567
v 0.003480293 0.730795801 -0.097798303
v -0.133785293 0.728519201 -0.101607561
v 0.019899104 0.730369031 -0.097645275
v 0.003501279 0.742356896 -0.105472073
v -0.131935939 0.919917464 0.036415379
v 0.165037960 0.761166930 -0.091769136
v 0.169754162 0.896993160 0.002180567
v -0.116319679 0.681740403 -0.097712435
v -0.119758949 0.919873118 0.042647902
v -0.106803238 0.919455886 0.049124435
v 0.161096156 0.887709498 0.022371888
v 0.048839536 0.827410102 -0.124521479
v -0.133701935 0.710617185 -0.097571552
v -0.112080917 0.738199294 -0.111336052
v 0.157741934 0.902895451 0.012190850
v -0.115659930 0.699414372 -0.102761544
v 0.173653483 0.853920579 0.036389228
v -0.096130818 0.689900279 -0.097311541
v -0.004141162 0.768616498 0.070689455
v -0.099762507 0.903121471 0.053400647
v 0.134720057 0.904562831 0.034613788
v 0.141478121 0.891190171 0.038965292
v 0.146749169 0.901805401 0.024732079
v -0.080173083 0.680022061 -0.091459319
v -0.093771532 0.707648277 -0.099996604
v -0.074502334 0.697212100 -0.095423713
v 0.044219952 0.696898699 0.061091453
v -0.092783153 0.725394845 -0.103227951
v 0.052621387 0.855610192 -0.143267751
v -0.070962057 0.714628696 -0.097791091
v 0.028954517 0.848605037 -0.140108377
v -0.034292251 0.821890473 -0.118011855
v -0.031822030 0.836356759 -0.133112788
v 0.201463506 0.685264826 0.022882501
v 0.185988516 0.695512116 0.054791193
v -0.046069276 0.704699218 -0.093914770
v -0.050631929 0.725901246 -0.097104184
v -0.144747198 0.895872951 -0.117417790
v 0.161334187 0.864113450 0.044251453
v 0.142118260 0.862136960 0.054258745
v -0.198173314 0.633707762 0.010119828
v 0.158195511 0.671271086 0.063024439
v 0.166057512 0.691535354 0.062526137
v -0.194687590 0.621021807 0.016156636
v 0.127741933 0.877054870 0.049560763
v -0.030131435 0.626138091 -0.066413164
v -0.026424404 0.612430990 -0.061716340
v 0.012226697 0.673112273 0.051941402
v -0.011827349 0.612458110 -0.060635429
v -0.007710169 0.913776517 0.076928400
v 0.068437316 0.847329259 -0.143251300
v -0.019153092 0.916458786 0.068658702
v -0.022560034 0.665916741 0.050597560
v 0.125044405 0.682303250 0.077654086
v 0.031470738 0.903649509 0.067192338
v 0.079554327 0.650177836 0.058976244
v 0.068713032 0.662639558 0.058020461
v 0.099767774 0.659101367 0.066554867
v 0.051805787 0.811783791 -0.112159707
v 0.118359886 0.662731230 0.074455962
v 0.051336128 0.665277779 0.054790717
v 0.192095816 0.650420547 0.030759638
v 0.120939232 0.855449200 0.061682750
v 0.107715212 0.868366122 0.056505024
v 0.180860668 0.879619956 0.005925356
v 0.104271874 0.677460313 0.069880083
v 0.184981614 0.876009643 -0.024086831
v 0.187269360 0.867423356 -0.049544573
v 0.049529038 0.901585877 0.065266952
v 0.086351871 0.687795758 0.066453978
v 0.107841894 0.698553681 0.073107019
v 0.176339626 0.870082378 -0.071333162
v 0.167095959 0.876235306 -0.089399189
v 0.085000783 0.669667661 0.063379705
v 0.161893278 0.865178227 -0.098216102
v 0.188074991 0.639260054 -0.044081204
v 0.175971672 0.644066632 -0.063683875
v 0.065494582 0.696331143 0.063981406
v 0.150910482 0.643187165 -0.075587898
v 0.136755079 0.861450672 -0.122487761
v 0.067472652 0.678364635 0.060764629
v 0.110094108 0.737450600 0.076882884
v 0.139127284 0.666087747 0.070365071
v 0.170827568 0.657718062 0.055990882
v 0.187390462 0.662564397 0.044385023
v 0.208720967 0.724037707 -0.026649784
v 0.160575226 0.719514370 -0.085916586
v 0.047166813 0.681627870 0.058018409
v 0.143587321 0.708085716 -0.091956779
v 0.201280087 0.655684412 -0.007543601
v 0.200708628 0.654105961 0.012755091
v 0.033966146 0.709944844 0.062409777
v 0.009864887 0.727133572 0.061818808
v 0.089170411 0.874104977 0.056784756
v 0.067452826 0.900489509 0.062697664
v 0.015315672 0.741465151 0.069101684
v 0.034027666 0.820608139 0.064034134
v 0.020582842 0.803903699 0.070993826
v 0.026522543 0.644334376 -0.072116941
v 0.056285482 0.885268211 0.062462319
v 0.043556653 0.676259398 -0.084518328
v 0.031191831 0.862949193 0.061793130
v 0.044976920 0.872172356 0.062811740
v 0.013552338 0.862211049 0.061614446
v 0.041090794 0.629264355 -0.068264447
v 0.061801247 0.680903614 -0.088649735
v 0.077764429 0.795555949 0.071277656
v 0.198180124 0.733132362 0.038618736
v 0.198542655 0.803014755 -0.058038153
v 0.064221345 0.628407538 -0.071737267
v 0.178441122 0.713183701 -0.074747220
v 0.129121691 0.775282800 -0.111095108
v 0.125215992 0.712059498 -0.101468265
v 0.088493422 0.626779318 -0.076953806
v 0.056533247 0.713135362 -0.095096610
v 0.042568121 0.756581128 -0.101657189
v 0.125376299 0.640042484 -0.083412468
v 0.111839391 0.624421000 -0.083986655
v 0.101880573 0.864777565 -0.141613722
v 0.074032888 0.884196401 0.060691513
v 0.068419144 0.865026176 0.061215609
v 0.134591728 0.624261796 -0.076523773
v 0.025609821 0.849179745 0.064623043
v 0.042507388 0.837678790 0.065950342
v 0.080806151 0.863702118 -0.146659568
v 0.157964990 0.625336289 -0.068968214
v 0.181921035 0.770508587 -0.081626102
v 0.027051885 0.804130435 -0.108772077
v 0.177634731 0.675529063 -0.067715980
v 0.177181870 0.625941753 -0.057411522
v 0.023079202 0.700202167 -0.091523662
v 0.186645061 0.623712420 -0.041622337
v 0.035015944 0.772763193 -0.104671702
v 0.196647346 0.629866064 -0.027192298
v 0.199232474 0.640775323 -0.013859998
v 0.062707938 0.762696922 0.069450200
v 0.108240664 0.846140265 -0.135667905
v 0.088286802 0.847243905 -0.141372174
v 0.023207856 0.756160855 -0.100760087
v 0.198738128 0.639315367 0.002891534
v 0.129591033 0.679326594 -0.090662964
v 0.206007719 0.690158427 0.005887741
v 0.192370564 0.681154013 0.040573798
v 0.163804367 0.679883718 -0.075741507
v 0.147646800 0.680287480 -0.082877561
v 0.182091087 0.642605066 0.047862019
v 0.158520550 0.851163268 0.054897349
v 0.197465450 0.845146060 0.010989515
v 0.205220222 0.689142883 -0.032977439
v 0.051791608 0.644916177 -0.075173110
v 0.151329428 0.648845613 0.063148692
v 0.088108383 0.781923771 0.075500056
v 0.206214547 0.703384757 0.018209880
v 0.197479814 0.699713469 0.035870060
v 0.096246198 0.688602567 -0.096652135
v 0.132541925 0.645221531 0.071294263
v 0.120037042 0.814633965 -0.116010346
v -0.003869040 0.781273127 0.065114878
v -0.004541986 0.715618968 0.060020983
v 0.052131880 0.709511876 0.064297304
v 0.112233244 0.645265579 0.070538901
v 0.144787207 0.819297135 -0.106262758
v -0.004478562 0.755419433 0.066518299
v -0.003529886 0.794009805 0.070435777
v 0.095621541 0.643249631 0.063578494
v 0.019031387 0.834143043 0.064649716
v -0.002939184 0.834129810 0.063978985
v 0.106452450 0.886071682 0.052868713
v 0.059389658 0.649372101 0.053257413
v 0.104170635 0.903816044 0.051847510
v 0.196015999 0.636316895 0.019284230
v 0.105010189 0.784426451 0.077510893
v 0.038490653 0.865982234 -0.145548165
v 0.038720444 0.650855303 0.049093116
v 0.069624037 0.834432960 -0.134075940
v 0.016412688 0.654150605 0.046698168
v 0.031648330 0.669164300 0.052578479
v 0.045878522 0.791224480 -0.106756493
v 0.013262284 0.818943322 0.063336305
v 0.014024359 0.707720280 0.060715862
v -0.004537031 0.701788902 0.060016833
v -0.004549006 0.741699994 0.068557672
v 0.197214335 0.627941370 -0.007921155
v -0.004529794 0.729207158 0.062575251
v 0.077128835 0.646867633 -0.080624536
v 0.092152730 0.749287784 -0.108370982
v 0.111084819 0.759727597 -0.112677418
v 0.156296983 0.778410017 0.070064440
v 0.096037850 0.752558827 0.075931549
v 0.159479648 0.756830335 0.068667904
v 0.101905249 0.641919494 -0.086590424
v 0.188174993 0.634231925 0.033599075
f 555 540 123
f 389 162 497
f 567 540 568
f 583 104 251
f 463 489 430
f 453 94 255
f 483 484 162
f 446 640 671
f 574 577 251
f 50 244 238
f 52 244 50
f 575 57 53
f 55 249 52
f 55 2 250
f 577 248 563
f 575 437 432
f 57 597 589
f 2 265 262
f 589 592 57
f 262 259 2
f 5 267 262
f 602 606 589
f 5 9 11
f 58 606 610
f 11 272 5
f 12 278 11
f 565 793 8
f 630 60 632
f 13 425 12
f 424 289 160
f 289 424 13
f 643 649 60
f 181 403 179
f 483 206 484
f 163 651 174
f 53 563 558
f 651 65 650
f 163 389 384
f 683 66 65
f 455 558 563
f 165 384 171
f 340 331 34
f 67 66 683
f 206 470 63
f 385 102 856
f 67 702 70
f 344 340 696
f 179 403 406
f 710 70 702
f 16 352 14
f 111 112 59
f 63 64 655
f 18 368 16
f 710 742 753
f 119 112 111
f 394 671 545
f 551 922 903
f 19 375 18
f 753 740 711
f 406 470 179
f 261 615 108
f 545 453 439
f 178 386 530
f 24 386 23
f 72 753 742
f 26 396 24
f 768 765 72
f 119 142 112
f 32 63 470
f 112 142 161
f 399 400 396
f 154 343 182
f 545 671 448
f 399 415 400
f 768 770 765
f 32 406 410
f 418 415 399
f 770 183 777
f 387 300 166
f 415 418 422
f 105 86 299
f 169 42 839
f 170 142 119
f 173 172 705
f 329 638 343
f 134 738 737
f 185 638 329
f 692 661 145
f 150 74 741
f 637 345 873
f 132 145 661
f 170 184 142
f 138 495 760
f 138 136 188
f 136 194 188
f 201 87 194
f 270 87 205
f 216 49 210
f 46 216 724
f 198 184 170
f 43 96 907
f 219 39 218
f 45 43 41
f 224 37 219
f 498 224 514
f 86 105 342
f 225 36 514
f 378 107 110
f 80 233 107
f 22 41 43
f 198 217 849
f 41 581 45
f 103 233 76
f 76 40 103
f 222 217 214
f 678 100 40
f 98 41 22
f 366 41 98
f 40 76 678
f 215 4 284
f 215 98 21
f 537 536 92
f 222 234 217
f 904 537 92
f 460 462 30
f 284 471 366
f 222 239 246
f 586 903 759
f 462 28 30
f 246 234 222
f 454 449 28
f 237 391 924
f 560 319 921
f 246 888 252
f 431 471 282
f 455 560 391
f 319 560 241
f 50 238 793
f 50 566 52
f 52 574 55
f 258 263 510
f 244 52 249
f 55 253 2
f 284 792 657
f 303 670 667
f 303 100 674
f 250 249 55
f 273 274 252
f 251 253 574
f 100 303 301
f 301 570 100
f 104 261 257
f 677 100 678
f 273 285 274
f 257 2 253
f 2 257 265
f 250 2 259
f 570 568 40
f 752 292 293
f 294 296 285
f 285 296 274
f 684 497 679
f 277 274 296
f 440 447 442
f 579 489 463
f 692 329 695
f 259 262 267
f 871 736 360
f 262 271 9
f 40 100 570
f 570 567 568
f 203 128 270
f 310 296 294
f 305 296 310
f 87 270 194
f 9 5 262
f 5 272 600
f 276 9 271
f 9 276 11
f 272 11 278
f 302 323 310
f 568 103 40
f 108 615 89
f 280 11 276
f 11 280 12
f 103 568 540
f 278 12 425
f 323 337 328
f 283 12 280
f 12 283 13
f 283 297 289
f 289 13 283
f 540 561 231
f 425 13 424
f 209 288 205
f 291 125 286
f 346 337 323
f 49 304 288
f 173 350 351
f 297 654 314
f 347 158 864
f 304 47 311
f 47 304 49
f 47 46 481
f 360 361 855
f 501 684 146
f 481 311 47
f 46 39 481
f 343 695 329
f 314 289 297
f 289 314 160
f 481 321 308
f 481 39 321
f 325 122 321
f 325 321 37
f 37 321 39
f 333 160 314
f 324 266 333
f 527 107 231
f 84 121 325
f 36 327 498
f 160 333 34
f 327 120 84
f 36 82 371
f 277 393 390
f 689 34 333
f 34 689 340
f 313 34 331
f 266 334 689
f 334 260 341
f 340 335 331
f 107 527 110
f 54 404 405
f 696 14 344
f 61 401 44
f 38 299 407
f 358 14 348
f 14 358 16
f 344 14 352
f 356 704 712
f 352 16 368
f 413 62 417
f 370 16 358
f 16 370 18
f 175 705 134
f 713 115 110
f 371 27 378
f 27 371 82
f 381 18 370
f 18 381 19
f 368 18 375
f 80 378 27
f 19 381 235
f 19 395 23
f 19 23 178
f 202 506 913
f 23 395 24
f 386 24 396
f 398 24 395
f 24 398 26
f 26 398 220
f 26 412 399
f 396 26 399
f 418 399 412
f 164 180 444
f 444 443 164
f 175 173 705
f 685 84 120
f 422 300 415
f 685 121 84
f 172 169 300
f 172 300 422
f 78 80 27
f 226 365 78
f 89 615 114
f 240 485 309
f 134 737 175
f 226 27 82
f 245 459 452
f 187 186 140
f 243 459 245
f 189 187 130
f 581 466 579
f 467 472 637
f 308 122 240
f 138 579 466
f 430 255 463
f 499 435 430
f 453 430 435
f 435 440 439
f 435 499 450
f 243 479 281
f 308 321 122
f 897 438 584
f 439 453 435
f 243 281 893
f 450 440 435
f 480 859 865
f 440 449 447
f 442 439 440
f 450 449 440
f 447 449 454
f 492 488 493
f 127 458 456
f 449 456 28
f 82 225 708
f 454 28 462
f 28 456 30
f 456 450 127
f 30 456 458
f 225 82 36
f 30 464 460
f 506 507 502
f 126 469 125
f 287 508 509
f 207 507 506
f 410 460 32
f 126 306 477
f 460 464 644
f 644 32 460
f 32 644 63
f 475 31 576
f 470 406 32
f 64 63 644
f 306 309 477
f 125 464 458
f 528 795 511
f 516 523 524
f 655 206 63
f 206 655 484
f 206 474 470
f 162 679 497
f 316 322 822
f 313 160 34
f 37 498 325
f 523 316 534
f 497 684 501
f 501 146 505
f 146 512 503
f 505 503 513
f 263 515 510
f 512 120 115
f 503 512 91
f 517 513 503
f 115 713 91
f 458 203 125
f 315 547 548
f 91 512 115
f 547 330 336
f 91 713 88
f 517 88 522
f 552 548 547
f 532 88 713
f 88 532 519
f 552 336 553
f 522 519 541
f 527 231 561
f 127 128 458
f 538 660 692
f 514 36 498
f 224 498 37
f 538 692 695
f 114 626 631
f 553 342 105
f 219 37 39
f 555 660 561
f 127 450 499
f 891 199 824
f 660 555 661
f 218 39 46
f 199 97 886
f 366 98 284
f 22 21 98
f 41 366 581
f 43 232 22
f 907 232 43
f 96 536 907
f 45 463 255
f 45 581 463
f 255 94 96
f 255 96 45
f 94 453 545
f 448 546 545
f 582 593 594
f 595 584 438
f 216 46 47
f 216 47 49
f 551 640 558
f 558 640 569
f 49 288 209
f 793 565 50
f 569 53 558
f 566 50 565
f 209 210 49
f 841 351 350
f 574 52 566
f 578 53 57
f 612 609 423
f 53 578 563
f 575 53 569
f 597 432 211
f 253 55 574
f 57 575 597
f 578 57 592
f 592 583 578
f 627 609 612
f 584 621 628
f 603 589 606
f 602 589 597
f 634 819 627
f 610 606 602
f 835 318 229
f 626 606 58
f 610 624 58
f 58 624 630
f 632 58 630
f 634 884 869
f 58 632 626
f 60 642 632
f 642 60 649
f 60 630 181
f 650 649 643
f 662 652 645
f 656 628 621
f 621 636 656
f 658 659 204
f 64 644 469
f 466 495 138
f 694 377 700
f 468 471 431
f 663 650 65
f 628 656 668
f 679 162 484
f 65 686 663
f 672 673 659
f 686 65 66
f 683 65 651
f 468 431 478
f 683 693 67
f 685 146 684
f 146 685 512
f 696 340 689
f 66 67 701
f 473 495 478
f 66 698 686
f 702 67 693
f 668 675 687
f 701 698 66
f 405 690 54
f 701 67 70
f 54 690 564
f 14 696 348
f 711 70 710
f 699 70 711
f 702 709 710
f 229 318 236
f 657 282 471
f 710 709 742
f 753 756 740
f 756 753 72
f 742 754 72
f 72 754 768
f 72 765 756
f 766 765 770
f 490 193 496
f 130 772 496
f 770 776 766
f 15 719 168
f 87 201 148
f 183 770 768
f 201 194 136
f 422 705 172
f 633 777 338
f 777 633 150
f 408 74 633
f 638 185 408
f 106 730 258
f 688 379 694
f 275 631 118
f 185 692 145
f 197 750 749
f 736 737 738
f 263 258 730
f 738 741 743
f 185 145 143
f 743 741 744
f 744 741 74
f 744 467 879
f 132 140 145
f 123 132 661
f 741 738 150
f 123 540 567
f 773 772 567
f 738 134 150
f 78 27 226
f 238 623 1
f 264 279 779
f 776 150 134
f 134 705 420
f 695 541 538
f 104 599 261
f 365 681 680
f 761 762 763
f 365 678 76
f 76 78 365
f 411 156 420
f 156 411 220
f 541 519 538
f 220 764 156
f 76 233 78
f 80 78 233
f 168 789 387
f 70 699 701
f 398 395 228
f 434 437 445
f 779 780 887
f 428 432 434
f 926 317 706
f 197 749 745
f 213 6 4
f 279 785 780
f 419 427 428
f 148 201 745
f 454 462 419
f 526 782 783
f 381 734 235
f 410 414 419
f 493 769 913
f 511 4 215
f 4 511 213
f 406 414 410
f 208 731 729
f 21 511 215
f 210 728 727
f 794 800 823
f 511 21 529
f 470 474 179
f 724 218 46
f 227 110 115
f 118 280 275
f 219 218 722
f 806 800 794
f 803 804 256
f 716 778 225
f 224 219 720
f 407 86 690
f 356 734 381
f 389 497 380
f 809 795 528
f 810 806 811
f 717 716 514
f 497 501 380
f 317 697 429
f 810 818 821
f 913 771 202
f 341 698 699
f 373 376 159
f 369 177 373
f 341 260 698
f 260 334 266
f 365 226 681
f 517 522 354
f 828 821 818
f 354 362 364
f 569 640 446
f 519 522 88
f 767 828 818
f 266 324 676
f 602 597 211
f 804 834 256
f 121 240 122
f 345 868 918
f 610 602 211
f 169 839 166
f 427 195 211
f 643 179 174
f 683 651 165
f 693 683 171
f 627 884 634
f 324 654 676
f 846 397 841
f 841 397 374
f 362 709 369
f 580 397 846
f 192 188 190
f 192 499 489
f 128 192 190
f 270 205 203
f 205 288 286
f 291 306 126
f 208 148 733
f 288 304 291
f 304 311 306
f 311 481 308
f 286 125 203
f 283 118 297
f 589 599 592
f 283 280 118
f 227 115 120
f 747 805 732
f 707 226 82
f 107 378 80
f 275 114 631
f 118 646 297
f 89 114 275
f 231 233 103
f 87 209 205
f 816 872 870
f 271 108 89
f 248 560 455
f 248 241 560
f 108 271 265
f 566 565 241
f 86 876 690
f 622 244 619
f 517 91 88
f 574 566 248
f 715 662 889
f 244 249 618
f 249 250 614
f 882 465 718
f 253 251 257
f 774 465 882
f 250 259 608
f 883 494 774
f 921 391 560
f 259 267 604
f 54 564 847
f 251 577 583
f 600 267 5
f 89 276 271
f 503 91 517
f 690 405 407
f 275 276 89
f 892 573 582
f 272 278 596
f 248 577 574
f 280 276 275
f 425 588 591
f 425 424 781
f 781 313 572
f 424 313 781
f 572 585 781
f 314 654 324
f 136 197 201
f 313 557 572
f 237 551 558
f 554 331 335
f 334 341 348
f 760 136 138
f 335 344 549
f 341 699 704
f 348 696 334
f 921 319 7
f 358 348 704
f 344 352 544
f 912 582 594
f 903 586 551
f 352 368 543
f 381 370 356
f 368 375 539
f 788 8 3
f 535 375 178
f 221 795 809
f 828 767 562
f 559 833 920
f 921 920 899
f 546 448 898
f 903 922 836
f 38 903 299
f 235 228 395
f 405 669 407
f 546 92 94
f 400 518 520
f 92 546 904
f 639 35 926
f 386 396 525
f 927 926 33
f 928 605 930
f 200 490 298
f 94 545 546
f 96 92 536
f 927 56 852
f 143 472 408
f 220 412 26
f 400 520 521
f 412 220 411
f 109 113 152
f 920 832 559
f 418 412 411
f 152 113 746
f 387 789 786
f 420 418 411
f 746 161 867
f 418 420 422
f 490 773 298
f 496 772 773
f 394 442 445
f 562 767 832
f 739 636 820
f 204 725 658
f 773 490 496
f 725 223 635
f 447 454 428
f 472 186 637
f 215 284 98
f 189 130 496
f 458 464 30
f 410 462 460
f 125 469 464
f 635 247 487
f 487 269 629
f 641 487 629
f 268 269 487
f 269 393 629
f 390 269 268
f 469 126 64
f 349 761 763
f 655 64 477
f 303 674 670
f 290 393 277
f 611 290 928
f 163 474 483
f 928 307 605
f 635 641 648
f 531 605 533
f 677 674 100
f 477 309 485
f 506 202 207
f 679 485 240
f 240 121 684
f 312 912 594
f 684 679 240
f 121 685 684
f 186 187 345
f 503 505 146
f 912 332 892
f 772 130 132
f 685 120 512
f 501 505 159
f 725 648 658
f 505 513 373
f 513 517 364
f 892 847 564
f 110 527 713
f 714 847 339
f 522 541 154
f 51 714 346
f 231 103 540
f 714 51 404
f 541 695 343
f 567 772 123
f 502 500 506
f 578 577 563
f 867 659 673
f 577 578 583
f 597 575 432
f 592 104 583
f 913 492 493
f 845 167 839
f 599 104 592
f 386 178 23
f 599 603 615
f 110 227 378
f 615 261 599
f 706 402 639
f 603 626 114
f 132 123 772
f 624 610 195
f 409 706 317
f 746 673 682
f 114 615 603
f 120 327 227
f 624 414 403
f 691 429 697
f 642 631 632
f 642 118 631
f 429 433 853
f 646 118 642
f 642 649 646
f 152 682 691
f 682 433 691
f 181 643 60
f 654 297 646
f 122 325 121
f 140 130 187
f 421 416 617
f 123 661 555
f 309 308 240
f 698 260 686
f 702 693 177
f 698 701 699
f 672 441 436
f 291 126 125
f 109 691 697
f 143 140 186
f 874 872 816
f 665 441 672
f 188 192 489
f 665 658 653
f 712 704 699
f 653 451 665
f 927 697 317
f 712 740 734
f 648 461 653
f 178 375 19
f 923 880 116
f 641 461 648
f 740 756 748
f 748 758 228
f 926 706 639
f 479 641 482
f 754 742 362
f 354 754 362
f 407 669 38
f 203 458 128
f 482 629 620
f 756 765 758
f 182 754 154
f 128 127 192
f 254 246 252
f 611 382 620
f 764 398 228
f 499 192 127
f 764 766 156
f 766 776 156
f 930 611 928
f 420 156 776
f 140 132 130
f 788 7 8
f 387 166 168
f 420 776 134
f 136 760 197
f 300 387 415
f 750 197 760
f 745 201 197
f 148 208 209
f 733 148 745
f 258 35 106
f 593 533 605
f 731 208 733
f 236 318 910
f 729 210 208
f 728 210 729
f 727 216 210
f 188 489 579
f 929 573 556
f 724 216 727
f 573 929 582
f 723 218 724
f 722 218 723
f 720 219 722
f 717 224 720
f 514 224 717
f 188 579 138
f 876 556 573
f 707 681 226
f 898 904 546
f 472 143 186
f 212 795 221
f 899 391 921
f 854 925 931
f 213 795 212
f 140 143 145
f 404 54 714
f 833 922 924
f 415 387 786
f 143 408 185
f 238 3 793
f 1 3 238
f 31 799 752
f 622 238 244
f 918 799 515
f 380 376 171
f 915 752 357
f 617 476 421
f 619 244 618
f 618 249 616
f 616 249 614
f 636 739 613
f 388 613 10
f 614 250 608
f 357 791 915
f 383 688 388
f 608 259 607
f 571 438 576
f 295 667 666
f 92 96 94
f 607 259 604
f 372 726 700
f 667 295 303
f 367 726 372
f 604 267 601
f 298 295 207
f 923 875 880
f 363 732 367
f 408 467 74
f 148 209 87
f 298 301 295
f 359 747 363
f 601 267 600
f 359 355 755
f 600 272 598
f 598 272 596
f 353 755 355
f 301 298 773
f 596 278 591
f 747 755 751
f 591 278 425
f 588 425 781
f 388 688 813
f 769 771 913
f 763 353 349
f 202 771 200
f 506 500 913
f 74 467 744
f 773 570 301
f 82 708 707
f 320 647 326
f 500 492 913
f 331 554 557
f 242 910 320
f 344 335 340
f 910 908 647
f 554 335 550
f 239 222 703
f 549 550 335
f 549 344 544
f 166 167 168
f 544 352 543
f 543 368 542
f 17 15 167
f 17 845 157
f 907 536 919
f 157 850 155
f 155 850 153
f 542 368 539
f 150 633 74
f 153 854 151
f 151 854 149
f 149 858 147
f 147 862 144
f 539 375 535
f 759 903 38
f 530 535 178
f 144 862 141
f 141 866 139
f 139 866 137
f 530 386 525
f 137 870 135
f 525 396 521
f 135 870 872
f 133 872 131
f 131 874 129
f 129 923 117
f 923 874 875
f 170 119 902
f 521 396 400
f 20 932 101
f 99 101 932
f 99 886 97
f 95 97 199
f 95 891 93
f 93 896 90
f 518 400 786
f 90 896 85
f 85 901 83
f 83 905 81
f 169 166 300
f 81 905 79
f 77 79 796
f 77 909 75
f 439 394 545
f 75 914 73
f 73 914 71
f 71 916 69
f 442 394 439
f 468 466 366
f 442 447 434
f 7 562 920
f 794 534 811
f 924 899 833
f 434 447 428
f 428 454 419
f 419 462 410
f 38 898 759
f 902 111 897
f 466 468 495
f 526 524 534
f 25 59 56
f 96 43 45
f 895 401 61
f 182 343 338
f 483 389 163
f 483 162 389
f 897 59 25
f 883 894 775
f 776 777 150
f 59 897 111
f 380 384 389
f 774 882 893
f 111 902 119
f 778 708 225
f 501 159 380
f 167 166 839
f 159 505 373
f 176 191 867
f 373 513 369
f 364 369 513
f 850 890 925
f 354 364 517
f 354 522 154
f 177 369 709
f 154 541 343
f 446 445 437
f 376 380 159
f 204 223 725
f 217 198 214
f 214 703 222
f 437 569 446
f 610 211 195
f 414 624 195
f 403 630 624
f 889 718 715
f 160 313 424
f 181 630 403
f 888 246 239
f 179 643 181
f 174 650 643
f 651 650 174
f 163 384 165
f 487 247 268
f 165 651 163
f 171 683 165
f 174 474 163
f 557 313 331
f 475 515 799
f 376 693 171
f 285 273 757
f 177 693 376
f 627 885 884
f 174 179 474
f 509 508 516
f 294 302 310
f 709 702 177
f 709 362 742
f 154 754 354
f 182 338 183
f 780 785 803
f 183 768 182
f 423 413 881
f 183 338 777
f 638 338 343
f 633 638 408
f 590 401 895
f 692 185 329
f 190 188 194
f 515 475 25
f 270 190 194
f 190 270 128
f 195 427 414
f 7 788 562
f 915 878 571
f 877 595 438
f 203 205 286
f 44 48 61
f 474 206 483
f 210 209 208
f 61 62 895
f 413 895 62
f 211 432 427
f 172 42 169
f 398 764 220
f 515 263 918
f 437 575 569
f 228 758 764
f 124 885 426
f 175 871 350
f 84 498 327
f 225 514 716
f 327 371 227
f 918 263 730
f 898 448 759
f 371 327 36
f 839 374 890
f 227 371 378
f 451 441 665
f 228 235 748
f 444 180 457
f 233 231 107
f 187 868 345
f 759 448 586
f 189 292 868
f 734 748 235
f 653 461 826
f 924 922 237
f 292 193 196
f 446 671 394
f 461 641 479
f 922 551 237
f 391 237 455
f 482 641 629
f 918 868 799
f 196 200 293
f 771 293 200
f 558 455 237
f 281 287 894
f 894 893 281
f 248 566 241
f 257 251 104
f 255 430 453
f 257 261 265
f 509 775 287
f 260 266 676
f 509 516 524
f 265 261 108
f 523 516 531
f 322 316 523
f 273 252 888
f 265 271 262
f 811 534 316
f 316 315 811
f 676 686 260
f 366 466 581
f 478 495 468
f 330 547 315
f 547 336 552
f 366 471 468
f 760 495 473
f 657 471 284
f 336 342 553
f 553 900 552
f 832 900 553
f 865 878 791
f 792 284 4
f 31 571 576
f 286 288 291
f 438 571 877
f 906 864 863
f 4 790 792
f 8 7 319
f 303 295 301
f 291 304 306
f 570 773 567
f 739 617 392
f 617 416 392
f 306 311 309
f 309 311 308
f 170 628 668
f 613 739 10
f 739 392 10
f 656 675 668
f 656 815 675
f 680 678 365
f 813 613 388
f 324 333 314
f 687 198 668
f 379 688 383
f 295 666 207
f 815 656 636
f 377 694 379
f 325 498 84
f 689 333 266
f 334 696 689
f 700 377 372
f 861 834 860
f 703 721 239
f 732 726 367
f 834 861 256
f 348 341 704
f 747 732 363
f 356 358 704
f 735 888 721
f 370 358 356
f 735 264 757
f 735 273 888
f 755 747 359
f 369 364 362
f 353 763 755
f 647 761 326
f 761 349 326
f 376 373 177
f 779 757 264
f 780 779 279
f 384 380 171
f 235 395 19
f 736 871 737
f 562 788 917
f 910 647 320
f 785 804 803
f 414 406 403
f 256 323 803
f 813 675 815
f 415 786 400
f 427 419 414
f 422 420 705
f 432 428 427
f 430 489 499
f 587 580 590
f 437 434 432
f 445 442 434
f 446 394 445
f 671 586 448
f 819 609 627
f 456 449 450
f 455 563 248
f 865 791 769
f 581 579 463
f 645 652 817
f 644 464 469
f 652 662 715
f 874 923 129
f 715 664 652
f 694 812 688
f 477 64 126
f 750 760 473
f 485 655 477
f 465 715 718
f 507 207 666
f 465 774 494
f 865 486 480
f 812 675 813
f 485 484 655
f 207 202 298
f 883 504 825
f 493 865 769
f 783 782 504
f 679 484 485
f 202 200 298
f 196 490 200
f 196 193 490
f 877 859 476
f 302 803 323
f 189 496 193
f 814 806 810
f 168 719 789
f 821 814 810
f 391 899 924
f 713 527 532
f 467 408 472
f 302 294 887
f 786 787 518
f 538 519 532
f 561 532 527
f 926 35 33
f 538 532 660
f 540 555 561
f 551 586 640
f 319 241 565
f 660 532 561
f 113 161 746
f 161 176 867
f 8 319 565
f 223 247 635
f 781 585 784
f 620 629 393
f 887 780 302
f 269 390 393
f 671 640 586
f 781 784 588
f 599 589 603
f 393 290 611
f 626 603 606
f 928 290 305
f 623 238 622
f 625 1 623
f 774 893 894
f 312 332 912
f 626 632 631
f 332 339 847
f 847 892 332
f 757 887 285
f 847 714 54
f 793 3 8
f 732 807 726
f 858 931 857
f 675 812 687
f 168 167 15
f 273 735 757
f 920 921 7
f 402 385 639
f 167 845 17
f 638 633 338
f 646 649 663
f 650 663 649
f 845 850 157
f 888 239 721
f 663 654 646
f 706 409 48
f 850 854 153
f 676 654 663
f 429 409 317
f 661 692 660
f 854 858 149
f 676 663 686
f 858 862 147
f 433 429 691
f 678 680 677
f 699 711 712
f 712 734 356
f 711 710 753
f 862 866 141
f 712 711 740
f 682 436 827
f 734 740 748
f 866 870 137
f 214 687 808
f 748 756 758
f 664 816 652
f 872 133 135
f 198 687 214
f 754 182 768
f 872 874 131
f 665 659 658
f 758 765 766
f 658 648 653
f 766 764 758
f 776 770 777
f 668 198 170
f 117 923 116
f 787 786 789
f 929 330 822
f 533 822 322
f 556 336 330
f 531 322 523
f 899 920 833
f 662 444 889
f 346 323 256
f 491 482 620
f 116 880 911
f 911 20 116
f 382 491 620
f 911 932 20
f 932 886 99
f 645 443 662
f 930 382 611
f 382 930 516
f 886 824 199
f 605 531 930
f 491 508 848
f 628 170 902
f 256 347 346
f 482 848 479
f 891 896 93
f 347 256 861
f 820 617 739
f 866 819 817
f 605 594 593
f 896 901 85
f 929 593 582
f 612 881 885
f 901 905 83
f 826 451 653
f 451 457 180
f 672 659 665
f 441 180 851
f 79 905 796
f 436 673 672
f 436 851 827
f 909 914 75
f 682 673 436
f 914 916 71
f 584 902 897
f 876 86 342
f 69 916 1
f 829 433 827
f 700 808 694
f 788 3 916
f 853 829 417
f 409 61 48
f 402 48 855
f 870 817 816
f 855 29 360
f 874 816 664
f 385 361 102
f 830 880 875
f 576 897 25
f 819 634 817
f 68 69 1
f 106 856 730
f 743 736 738
f 910 242 236
f 862 857 819
f 744 879 102
f 880 830 831
f 840 528 843
f 401 846 44
f 803 302 780
f 769 791 357
f 878 915 791
f 831 911 880
f 918 873 345
f 576 25 475
f 799 31 475
f 841 29 846
f 879 856 102
f 106 639 385
f 573 564 876
f 911 831 802
f 342 556 876
f 337 339 332
f 25 510 515
f 350 29 841
f 564 573 892
f 892 582 912
f 510 25 56
f 864 906 837
f 312 328 337
f 929 822 593
f 33 35 258
f 871 360 29
f 840 860 835
f 864 158 863
f 29 855 44
f 916 914 917
f 808 687 812
f 594 307 312
f 307 305 328
f 916 917 788
f 33 56 927
f 840 835 809
f 307 594 605
f 736 743 361
f 531 516 930
f 290 277 305
f 852 109 927
f 318 835 860
f 21 844 529
f 852 59 112
f 620 393 611
f 102 743 744
f 112 113 852
f 751 763 762
f 647 785 762
f 805 747 751
f 252 268 254
f 230 835 229
f 487 641 635
f 637 879 467
f 124 851 164
f 809 230 221
f 161 142 176
f 807 732 805
f 247 234 254
f 230 809 835
f 808 700 807
f 345 637 186
f 176 184 191
f 812 694 808
f 204 849 223
f 849 204 191
f 813 688 812
f 635 648 725
f 849 184 198
f 815 613 813
f 815 636 613
f 217 223 849
f 659 191 204
f 217 234 223
f 191 184 849
f 859 480 421
f 795 213 511
f 245 461 243
f 878 865 859
f 802 886 932
f 191 659 867
f 452 718 889
f 223 234 247
f 176 142 184
f 246 254 234
f 865 493 486
f 293 771 357
f 268 247 254
f 771 769 357
f 805 264 735
f 268 252 390
f 161 113 112
f 486 493 488
f 390 252 274
f 867 673 746
f 264 751 279
f 274 277 390
f 746 682 152
f 281 848 287
f 827 433 682
f 808 703 214
f 152 691 109
f 109 852 113
f 476 859 421
f 296 305 277
f 476 595 877
f 305 307 928
f 196 293 292
f 595 476 820
f 726 807 700
f 752 293 357
f 307 328 312
f 310 328 305
f 56 59 852
f 292 752 799
f 328 310 323
f 886 825 824
f 312 337 332
f 807 703 808
f 891 824 782
f 193 292 189
f 844 21 22
f 429 853 409
f 109 697 927
f 56 33 510
f 105 559 553
f 339 337 346
f 346 714 339
f 51 346 347
f 317 926 927
f 564 690 876
f 863 844 232
f 799 868 292
f 510 33 258
f 843 528 529
f 844 863 842
f 861 840 843
f 861 158 347
f 861 860 840
f 752 915 31
f 158 843 842
f 843 158 861
f 842 529 844
f 919 837 906
f 906 232 907
f 809 528 840
f 730 873 918
f 730 856 873
f 873 856 879
f 856 106 385
f 817 634 645
f 837 919 838
f 817 652 816
f 919 906 907
f 919 536 537
f 743 102 361
f 904 669 838
f 898 669 904
f 669 898 38
f 703 807 721
f 405 404 838
f 669 405 838
f 922 833 836
f 294 285 887
f 361 385 402
f 869 645 634
f 830 875 664
f 916 3 1
f 864 51 347
f 402 855 361
f 909 801 914
f 397 890 374
f 48 44 855
f 796 909 77
f 879 637 873
f 901 798 905
f 580 925 397
f 48 402 706
f 896 800 901
f 891 823 896
f 409 62 61
f 853 62 409
f 881 413 417
f 417 62 853
f 86 407 299
f 459 893 882
f 199 891 95
f 830 465 831
f 829 426 417
f 426 829 124
f 426 881 417
f 124 829 827
f 433 829 853
f 886 802 825
f 774 894 883
f 851 124 827
f 164 884 124
f 441 851 436
f 180 164 851
f 443 869 164
f 911 802 932
f 715 830 664
f 874 664 875
f 736 361 360
f 451 180 441
f 457 452 889
f 889 444 457
f 866 817 870
f 106 35 639
f 459 718 452
f 826 452 457
f 452 826 245
f 451 826 457
f 862 819 866
f 858 857 862
f 461 245 826
f 459 882 718
f 479 243 461
f 854 931 858
f 850 925 854
f 846 401 580
f 845 890 850
f 491 848 482
f 848 281 479
f 825 494 883
f 382 508 491
f 900 832 767
f 508 287 848
f 896 823 800
f 839 890 845
f 504 782 824
f 42 374 839
f 516 508 382
f 908 910 318
f 534 524 523
f 552 818 548
f 42 172 173
f 901 800 798
f 818 552 900
f 533 322 531
f 871 175 737
f 868 187 189
f 22 232 844
f 593 822 533
f 822 315 316
f 929 556 330
f 330 315 822
f 838 919 537
f 904 838 537
f 318 860 834
f 908 318 834
f 465 830 715
f 556 342 336
f 105 836 559
f 833 559 836
f 29 44 846
f 908 834 804
f 562 917 828
f 299 836 105
f 818 900 767
f 832 553 559
f 562 832 920
f 811 315 548
f 828 801 821
f 801 828 917
f 821 797 814
f 836 299 903
f 401 590 580
f 797 821 801
f 905 798 796
f 796 814 797
f 810 548 818
f 814 798 806
f 798 814 796
f 909 796 797
f 811 548 810
f 413 587 590
f 404 51 837
f 51 864 837
f 837 838 404
f 909 797 801
f 529 842 843
f 158 842 863
f 232 906 863
f 800 806 798
f 529 528 511
f 794 811 806
f 785 908 804
f 785 647 908
f 859 877 878
f 526 534 794
f 877 571 878
f 571 31 915
f 173 351 42
f 524 783 509
f 350 173 175
f 29 350 871
f 823 526 794
f 783 524 526
f 526 823 782
f 42 351 374
f 841 374 351
f 504 775 783
f 509 783 775
f 782 823 891
f 885 124 884
f 887 757 779
f 914 801 917
f 426 885 881
f 890 397 925
f 825 504 824
f 775 504 883
f 925 587 931
f 587 925 580
f 802 494 825
f 785 279 762
f 494 831 465
f 831 494 802
f 894 287 775
f 590 895 413
f 438 897 576
f 884 164 869
f 762 279 751
f 423 931 587
f 587 413 423
f 931 423 857
f 762 761 647
f 617 820 476
f 595 820 621
f 751 755 763
f 893 459 243
f 751 264 805
f 609 857 423
f 423 881 612
f 662 443 444
f 721 805 735
f 621 584 595
f 857 609 819
f 443 645 869
f 612 885 627
f 636 621 820
f 628 902 584
f 805 721 807
