# avbd fit, rung f60-i16-s300-r4-h60 of Gate 6d (body space, fit phase only)
v -0.004078184 0.640749931 0.030270841
v -0.106410250 0.657053232 0.068564877
v -0.003895321 0.654460073 0.033991024
v -0.000032655 0.899720490 0.068154022
v -0.151124448 0.640495658 0.062030811
v 0.002962747 0.914536119 0.068845615
v -0.003720567 0.681537688 0.040896762
v -0.003744711 0.667910457 0.038080208
v -0.152787283 0.656178355 0.062811039
v 0.150642544 0.896568179 -0.110830262
v -0.170442671 0.651617408 0.054824460
v -0.186888486 0.652355731 0.041670293
v -0.194704086 0.652564585 0.026097665
v -0.170587584 0.644276798 -0.068194225
v 0.011534181 0.619272351 -0.047564734
v -0.152986795 0.640351713 -0.074612282
v 0.026260052 0.618664563 -0.049368352
v -0.135560557 0.640534520 -0.080504000
v -0.118502773 0.644175291 -0.087213799
v 0.193068281 0.612333477 0.017064739
v -0.000352694 0.870903313 0.064659148
v -0.000436994 0.857395768 0.059965987
v -0.100752614 0.639424741 -0.085853450
v -0.087341018 0.645743549 -0.081231490
v 0.095616512 0.802463055 -0.110393628
v -0.073341615 0.653980076 -0.077462710
v -0.131717607 0.859821022 -0.125519484
v -0.139705241 0.808527648 0.070171356
v 0.040198006 0.697905779 -0.084356710
v -0.154839873 0.818023086 0.064290501
v 0.069296241 0.824804485 -0.123925105
v -0.189682364 0.796570301 0.044616461
v 0.088180616 0.769690394 -0.107473232
v -0.199958354 0.644984245 -0.024283161
v 0.074048057 0.760591984 -0.102372602
v -0.158801407 0.868638515 -0.104063258
v -0.178788379 0.873243630 -0.064799927
v 0.013512085 0.763416827 0.059489094
v -0.181782633 0.880009830 -0.045801353
v -0.077237889 0.853614450 -0.144827932
v -0.029041041 0.860942006 0.060191166
v 0.013172917 0.665071011 -0.068399787
v -0.018573688 0.844010353 0.057933904
v 0.062130719 0.701725006 -0.089456625
v -0.040196214 0.845216930 0.059848804
v -0.179264873 0.887373328 -0.027879518
v -0.185194403 0.877863407 -0.010913461
v 0.072408378 0.718640625 -0.094581142
v -0.176368803 0.883475125 0.008201078
v -0.041466616 0.657806575 0.041535549
v 0.060013860 0.820069790 0.062005855
v -0.061768550 0.657908499 0.049856458
v -0.077400744 0.729770780 0.063595682
v 0.059279077 0.786754906 0.063749999
v -0.081756093 0.656593442 0.058559280
v 0.102880262 0.781968176 -0.112000361
v -0.100654043 0.726819813 0.071839593
v -0.170123443 0.732189059 0.063780904
v 0.119571865 0.794299543 -0.116164766
v -0.198467404 0.728649974 0.037340786
v 0.082711667 0.704274714 -0.095067367
v 0.102013901 0.700798810 -0.101051830
v -0.198997647 0.804268539 0.025183067
v -0.195342630 0.822282493 0.022661759
v -0.208743170 0.723352313 -0.026623499
v -0.198069245 0.716632962 -0.049557619
v -0.187631994 0.725691497 -0.065509461
v 0.008258724 0.637585163 0.037186664
v 0.012664797 0.628449082 0.027239304
v -0.171805799 0.713720798 -0.079650275
v 0.027272562 0.628013194 0.030195126
v -0.118109442 0.718962789 -0.106901132
v 0.041223023 0.626967192 0.035299387
v -0.020270664 0.745403707 -0.095601067
v 0.054744221 0.625803530 0.041352991
v -0.096762694 0.856541634 -0.141899198
v 0.067362696 0.624440730 0.048939653
v -0.114774108 0.859748006 -0.136268660
v 0.080783904 0.623251319 0.054737814
v -0.121127680 0.847988427 -0.127497926
v 0.094079278 0.622037053 0.060472660
v -0.141868711 0.875432134 -0.121776760
v 0.107206568 0.620747983 0.066124469
v -0.177989230 0.843803704 -0.084109724
v 0.120129310 0.619388461 0.071593627
v 0.044874929 0.752935946 0.057558216
v -0.142594576 0.883635402 0.043505341
v -0.125919074 0.792857051 -0.114114225
v -0.154865533 0.682504773 0.065489188
v 0.133392558 0.618272424 0.068131372
v -0.145220965 0.800916970 -0.106213406
v -0.019007236 0.807600796 0.055194031
v 0.146021336 0.617856979 0.062255256
v -0.039973222 0.810524166 0.057306875
v 0.158560410 0.616985083 0.056356750
v -0.025469650 0.826206505 0.057731222
v 0.170888841 0.615835845 0.050516583
v -0.018449593 0.875640392 0.064630277
v 0.180845916 0.614660501 0.041016780
v -0.064410552 0.867379308 -0.148500383
v 0.186800390 0.613694072 0.028911794
v 0.025651604 0.746319354 -0.096692033
v -0.088486314 0.839365780 -0.138328284
v -0.107586727 0.693646073 0.072063088
v 0.037631262 0.735644758 0.056234200
v 0.056839354 0.760805309 -0.099022530
v -0.116376877 0.835180104 -0.121481575
v -0.138072148 0.679908156 0.072134279
v 0.130089074 0.758467734 -0.108132616
v -0.130848855 0.827973485 -0.112230577
v 0.135311380 0.804407001 -0.110245921
v 0.143916473 0.788254321 -0.105579212
v 0.145081177 0.769818604 -0.102915347
v -0.161361977 0.698433518 0.064223118
v -0.147536308 0.819598198 -0.105587386
v 0.194218114 0.611146688 0.003668273
v 0.194357350 0.609998107 -0.008903546
v -0.193695992 0.687932372 0.040091697
v 0.152404249 0.805120826 -0.102681316
v -0.165160701 0.831158638 -0.097799025
v -0.190086052 0.834882557 -0.066173933
v -0.194559649 0.848413348 -0.052714717
v -0.056392185 0.819766521 -0.117830440
v 0.155594483 0.697475731 -0.083587430
v -0.173610508 0.844524205 0.043652423
v -0.190288335 0.839838862 0.023000127
v -0.122640431 0.836774826 0.067620829
v -0.134229869 0.850896716 0.060037106
v 0.194347948 0.609222949 -0.022430498
v -0.021131033 0.814175129 -0.108862557
v 0.187991828 0.608613551 -0.034651738
v -0.040377632 0.810759664 -0.108036622
v 0.180842891 0.607859015 -0.046396248
v -0.024682811 0.705037236 -0.084552385
v 0.173414737 0.606931210 -0.058026977
v -0.107473508 0.885371089 0.051333942
v 0.161071181 0.606619716 -0.065026067
v -0.087725490 0.881095529 0.056946110
v 0.147761866 0.606346548 -0.069381163
v -0.022152465 0.799102247 -0.102125667
v 0.134305671 0.605888844 -0.073665693
v 0.166977376 0.796343446 -0.095954135
v -0.023633253 0.782385707 -0.098909721
v 0.121623710 0.606132746 -0.077683561
v -0.042792059 0.794352651 -0.102362514
v -0.182342216 0.803475857 -0.084720448
v 0.106910646 0.606814027 -0.079320535
v -0.140838072 0.897602439 0.032400593
v 0.093951687 0.609110892 -0.073658988
v -0.029692024 0.726802886 -0.087594643
v 0.080803290 0.611292958 -0.068115897
v 0.145762160 0.753636122 -0.099705592
v 0.067556269 0.613446116 -0.062620208
v -0.104039930 0.757754922 -0.110920474
v 0.054237019 0.615536809 -0.057181638
v -0.063279405 0.689560831 -0.084883802
v 0.040526606 0.617367685 -0.052602611
v 0.050500073 0.850186706 0.060480714
v -0.187240452 0.775820732 -0.074339874
v -0.200886041 0.652654052 -0.005210452
v 0.162557349 0.777922213 -0.096008204
v -0.207918718 0.796174288 -0.030110320
v -0.210271567 0.764863074 -0.018195014
v 0.175587475 0.691769660 -0.072514169
v -0.209821388 0.752151608 -0.036424980
v -0.003407602 0.644295931 -0.058927767
v 0.015417637 0.633901000 -0.055078834
v -0.003505731 0.631763875 -0.052977730
v -0.003214028 0.656856358 -0.064687535
v 0.170162588 0.817348659 -0.095162012
v -0.199313626 0.754959702 -0.054998957
v -0.003078570 0.669702411 -0.069650568
v -0.002975690 0.682762146 -0.074032038
v -0.211119339 0.752784252 0.002016290
v -0.002805001 0.695516407 -0.079235233
v 0.180232525 0.785220563 -0.087351635
v -0.175400227 0.748525500 -0.085103497
v -0.107008480 0.624942899 -0.084609427
v -0.202822968 0.762929082 0.027658200
v 0.187701106 0.707427621 -0.060739808
v -0.198840842 0.746291935 0.038630776
v -0.090226062 0.744298697 -0.105481602
v -0.076449826 0.732619107 -0.099417001
v 0.184961602 0.802715003 -0.080075189
v -0.044463627 0.776949763 -0.100139752
v -0.001176397 0.788975239 -0.098954163
v -0.000905851 0.802515030 -0.102694929
v -0.100674734 0.866359532 0.057210695
v -0.000695897 0.815087497 -0.108894184
v -0.121713124 0.862643123 0.058260135
v 0.190066129 0.782343030 -0.070426643
v -0.109858193 0.850869060 0.065657005
v -0.000523775 0.825866580 -0.117810644
v -0.123586223 0.876471877 0.049883742
v -0.154779941 0.756158233 0.069671884
v -0.000370778 0.835916042 -0.127479821
v -0.113362253 0.901635647 0.047408964
v 0.189409122 0.823782563 -0.069861040
v 0.167937964 0.632523298 0.054028731
v -0.000242486 0.847643673 -0.134908840
v -0.126694173 0.892740428 0.043193743
v -0.000102726 0.860581517 -0.139916509
v -0.154995352 0.855873406 0.053284783
v 0.201131612 0.777795434 -0.052584101
v -0.158476502 0.872671485 0.040980835
v -0.210714459 0.794266820 0.006362912
v 0.000053140 0.874283433 -0.142477721
v -0.152375564 0.901315689 0.019588385
v -0.159578010 0.886502445 0.025623348
v -0.165587634 0.897729218 0.005506720
v -0.135560662 0.750778556 0.075999632
v 0.031919669 0.913156211 0.068097085
v 0.016921198 0.913346767 0.068604849
v 0.197532937 0.840242684 -0.050119203
v -0.000178122 0.885158181 0.066389389
v -0.176046818 0.894133925 -0.011084487
v 0.202805951 0.817546010 -0.044922698
v -0.174624279 0.894864559 -0.043229826
v -0.173224106 0.890166461 -0.059634484
v -0.071481153 0.671927989 -0.082623973
v 0.047004197 0.913216472 0.066933252
v 0.201118231 0.831467450 -0.027780930
v 0.207704946 0.793349147 -0.033962477
v -0.168866009 0.885995686 -0.076215997
v -0.153295711 0.885342717 -0.109935150
v -0.123884141 0.875523746 -0.134644300
v -0.147230580 0.838128269 -0.105228148
v -0.100396909 0.672959805 -0.094772406
v 0.076889068 0.913511872 0.061782528
v 0.061973196 0.913407803 0.064417936
v -0.098976292 0.828517318 -0.126065329
v -0.000636489 0.843678772 0.057345938
v -0.106414676 0.843121529 -0.135775179
v 0.205315113 0.811906040 -0.021177316
v -0.118279077 0.664578855 -0.092844591
v 0.091187775 0.913500130 0.056989025
v -0.026028398 0.725850999 0.052899629
v -0.027240222 0.644159675 0.032984965
v 0.199974209 0.842226326 -0.011308640
v -0.200337335 0.832200885 -0.040640578
v -0.038314898 0.684460998 0.045462385
v 0.104891084 0.913297534 0.051285483
v 0.208456248 0.714986384 0.005344000
v -0.050328471 0.642193317 0.040796455
v 0.208480999 0.713732779 -0.012968491
v 0.203544885 0.826164603 -0.005162247
v 0.209520608 0.793648839 -0.008176010
v -0.054636877 0.694450796 0.051881064
v -0.072110176 0.640894949 0.052588869
v -0.093535021 0.641038418 0.061969042
v -0.090384081 0.685752749 0.064463437
v 0.198360264 0.818419814 0.020275954
v -0.091505922 0.670273185 0.063597023
v 0.207223609 0.810116589 0.000085194
v -0.050604500 0.829006076 0.061231695
v 0.095763460 0.847823441 0.070324741
v -0.107318863 0.676530361 0.070491962
v 0.068802781 0.773881316 -0.103834078
v -0.114195272 0.638532758 0.070229635
v -0.197869316 0.686299801 -0.043812588
v -0.122895852 0.685988307 0.077309929
v -0.132727355 0.651806116 0.071559109
v 0.061602324 0.787192643 -0.103603266
v 0.171917945 0.865843177 0.029186368
v -0.124549866 0.668457747 0.075988039
v -0.202132195 0.673111796 -0.033511952
v -0.135617644 0.634749889 0.068560809
v 0.206659168 0.798513710 0.016524296
v 0.201530620 0.783920288 0.027971709
v -0.139968127 0.867331028 0.052200139
v -0.144044846 0.667764366 0.068004489
v -0.165511668 0.633895516 0.054799933
v 0.187350616 0.834564388 0.029696494
v 0.184853896 0.816508472 0.041327782
v -0.174696609 0.684952855 0.057558499
v -0.164396614 0.668963373 0.059688043
v 0.182316363 0.799577653 0.054928046
v -0.181271493 0.635892451 0.046935782
v 0.155553371 0.872719288 0.044911105
v -0.183719546 0.668869615 0.051366888
v 0.203215033 0.711676717 0.025561145
v -0.046889089 0.913504958 0.066816166
v -0.193928108 0.668530643 0.032545082
v -0.021926351 0.894476771 0.066608429
v 0.175086319 0.831773877 0.048407763
v -0.168956041 0.860076129 0.037335169
v 0.193745896 0.707601845 0.044661857
v -0.172245234 0.871577919 0.023682263
v -0.201823622 0.661813259 0.014138555
v 0.173951194 0.781932175 0.064737022
v -0.182094902 0.856014073 0.023415968
v 0.022626603 0.824555397 -0.117327429
v 0.023731330 0.838087916 -0.130410820
v 0.158128515 0.829579651 0.061904263
v -0.025388222 0.872731805 -0.143704265
v 0.168189257 0.814787507 0.061674040
v -0.202664182 0.680073440 0.018723587
v -0.019608218 0.855476677 -0.139154419
v 0.024236279 0.750736237 0.053997587
v -0.018504240 0.654793382 -0.064123780
v -0.040590622 0.859125912 -0.142268583
v 0.140108913 0.837918937 0.063948557
v -0.046088658 0.875007629 -0.146572098
v -0.186478883 0.867933750 0.007751625
v 0.156149402 0.796592414 0.068124004
v -0.196950361 0.852127910 0.006934971
v 0.138724893 0.781912386 0.074366227
v -0.195042059 0.853165030 -0.032716297
v -0.199924111 0.841978729 -0.016029131
v 0.144502044 0.818102658 0.067636222
v -0.193068817 0.860637188 -0.012761042
v 0.119085744 0.789638877 0.078502074
v -0.198153123 0.633372962 -0.009909779
v -0.203416109 0.670510650 -0.000784665
v 0.101112306 0.710894525 0.071363017
v 0.120021582 0.708908379 0.078741513
v 0.100559093 0.739108622 -0.107554235
v 0.089100935 0.892419815 0.057515226
v -0.020236585 0.683783174 0.042037856
v 0.117855169 0.913271785 0.045578595
v -0.188782707 0.864245772 -0.049069546
v 0.130931392 0.724699557 0.077644564
v 0.117763340 0.828337312 0.071658529
v -0.204456806 0.677310228 -0.015344237
v -0.183950156 0.855282187 -0.068089679
v 0.129613787 0.913180053 0.039259814
v -0.160975486 0.850631118 -0.097161785
v 0.131590158 0.803737283 0.073633440
v -0.063243352 0.772702813 -0.102638707
v 0.090972222 0.728229940 0.068611816
v -0.195125222 0.628310323 -0.029996788
v 0.097828798 0.790664196 0.074821450
v -0.202322394 0.661969841 -0.019654201
v -0.190621868 0.668628514 -0.049811427
v -0.185165003 0.624210715 -0.044703528
v 0.071038097 0.725130260 0.062245678
v 0.107948527 0.808486164 0.078840569
v -0.064924382 0.745490313 -0.100784406
v 0.088308468 0.803641677 0.071459718
v -0.190015778 0.639832079 -0.041786693
v -0.183771342 0.681423545 -0.061316233
v 0.057545088 0.738223076 0.060328402
v -0.079343796 0.760519862 -0.103952251
v -0.177237898 0.630120575 -0.058958799
v 0.018968010 0.792673230 -0.100129999
v 0.087275498 0.823463082 0.069666564
v 0.069756471 0.839001536 0.064144239
v -0.178222105 0.663152099 -0.064971730
v 0.141521126 0.912765801 0.031359788
v 0.019329419 0.690469801 -0.077972338
v 0.020652145 0.676824212 -0.073043674
v -0.159774870 0.626432538 -0.069071509
v 0.151784107 0.912093163 0.021893974
v -0.127415508 0.759381235 -0.109940551
v 0.160639316 0.911485851 0.011289941
v -0.149533048 0.668633699 -0.080836430
v 0.045513768 0.843339324 -0.137183875
v -0.161830306 0.657910407 -0.073959433
v 0.168172777 0.911108375 -0.000311089
v 0.032928787 0.713849425 -0.086186506
v 0.036114711 0.730852425 -0.090274826
v -0.139916435 0.747161269 -0.101902083
v 0.171989471 0.909711719 -0.013668267
v -0.145512611 0.763633668 -0.102035776
v -0.105830491 0.873980045 -0.141416281
v -0.041472726 0.880420029 0.063779250
v 0.173265725 0.907712340 -0.027543005
v -0.141230911 0.624342561 -0.074786037
v -0.159405053 0.756056726 -0.094064280
v -0.146852940 0.653088212 -0.079747386
v -0.146305576 0.855914772 -0.111874081
v 0.174488202 0.906296432 -0.040763460
v -0.176189005 0.765854776 -0.087874591
v 0.032807168 0.664107919 -0.069988608
v -0.123973154 0.625982940 -0.080663756
v -0.187670738 0.760138869 -0.070655301
v 0.174412340 0.904820263 -0.055301566
v -0.132641435 0.844196677 -0.116105691
v 0.172593519 0.902885437 -0.070383295
v -0.198246568 0.775678515 -0.057086058
v -0.133222729 0.657932162 -0.086025029
v 0.179673105 0.742151678 0.061932676
v 0.166733965 0.900880218 -0.084309869
v -0.208494812 0.766225159 -0.041963391
v 0.046590302 0.745686352 -0.098523989
v -0.091279715 0.627804101 -0.078294523
v -0.020089576 0.638646007 -0.057151668
v 0.160809904 0.899104774 -0.098796710
v -0.208376005 0.781040311 -0.035181243
v 0.194355920 0.800050378 0.035371628
v -0.020455431 0.710919201 0.048561636
v 0.140235484 0.894109845 -0.122488119
v 0.191158563 0.778729677 0.046771288
v -0.067651704 0.782430172 0.065436170
v -0.101529285 0.655113816 -0.090407774
v -0.073830321 0.634083390 -0.071762554
v 0.052835397 0.666242123 -0.074771695
v -0.086573124 0.663753510 -0.086090177
v -0.057526320 0.648890138 -0.069325201
v -0.055037342 0.632187665 -0.062798679
v 0.073545657 0.688395858 -0.088580862
v 0.059013348 0.732154965 -0.094951309
v -0.191030413 0.759057283 0.052314360
v 0.047460403 0.801472068 0.061062366
v 0.038461722 0.784026027 0.060268722
v -0.190822750 0.777557731 0.047543548
v 0.031973403 0.766492009 0.061469249
v -0.027526861 0.763460517 -0.095806703
v 0.096320547 0.719648778 -0.102803811
v -0.173638642 0.789361835 0.063933328
v -0.055971682 0.676409781 -0.078661278
v -0.060732413 0.663102686 -0.075793870
v 0.103421427 0.678848803 -0.097207107
v -0.169609696 0.769769311 0.065277055
v -0.037664775 0.649024963 -0.063962363
v 0.128125265 0.892037034 -0.131691933
v 0.121005274 0.694843590 -0.098778151
v -0.045020621 0.665174961 -0.072154567
v -0.150744841 0.783164620 0.070647523
v -0.040563606 0.687979579 -0.078705586
v 0.113915622 0.890364349 -0.137835756
v -0.026782626 0.669515967 -0.070743799
v 0.111918889 0.658781886 -0.093078554
v -0.199543953 0.644798398 0.010732024
v -0.190516338 0.635827899 0.029325539
v 0.136409730 0.692002237 -0.090934560
v -0.141382113 0.767186880 0.073984675
v -0.125680938 0.778334796 0.077767603
v 0.119627222 0.728994071 -0.108365640
v -0.074064046 0.832298934 0.065949142
v -0.061834533 0.914039791 0.064244531
v -0.113039911 0.758935630 0.078906998
v 0.138034731 0.724367082 -0.098223135
v -0.102264784 0.774914026 0.075371340
v -0.085874602 0.818023503 0.068523869
v 0.172511354 0.729993224 -0.082156405
v -0.089223266 0.759801328 0.069467023
v 0.110395864 0.833225250 -0.121987045
v -0.075315379 0.800294757 0.067027822
v -0.097730570 0.804774880 0.074799329
v 0.186570272 0.724884748 -0.066226609
v -0.090112790 0.788750052 0.071013451
v 0.182859391 0.678067029 -0.061315317
v 0.190656960 0.690685213 -0.053510427
v -0.083300434 0.774089813 0.068825975
v -0.067357436 0.764072120 0.064364798
v -0.111133888 0.791489244 0.079273462
v -0.026855076 0.775391638 0.058960985
v -0.120907150 0.807431996 0.075583391
v -0.110025622 0.822012424 0.074925140
v 0.198637351 0.722498238 -0.049275108
v 0.207458466 0.699914157 -0.024729621
v -0.062682375 0.813861191 0.061855178
v -0.133986399 0.794207454 0.073724896
v -0.042409025 0.712803483 0.052512895
v -0.133266866 0.822482586 0.069569521
v 0.200103834 0.704265952 -0.043720242
v -0.150158286 0.837034583 0.061563242
v 0.207236484 0.698764026 -0.005619297
v -0.174951971 0.808474720 0.059836827
v 0.209732324 0.733955264 -0.010072199
v -0.155490905 0.800047100 0.067208394
v -0.063132398 0.847497106 0.062697098
v -0.173371375 0.826826096 0.053853948
v 0.202734783 0.666442215 -0.001638510
v -0.065943062 0.879618466 0.060993053
v -0.001843765 0.761209071 -0.094701193
v -0.061114680 0.896249473 0.062852815
v -0.183537021 0.829452693 0.036914535
v -0.201751441 0.784374714 0.027199317
v -0.042798020 0.899158597 0.065764092
v -0.001519402 0.774986386 -0.097046070
v -0.091008440 0.914828777 0.056817304
v -0.210964561 0.773694813 0.005658062
v 0.075719826 0.813847542 -0.113146141
v 0.119572520 0.864183605 -0.135127097
v -0.203024551 0.833026528 0.003657785
v -0.076713398 0.914485276 0.061548449
v 0.209184915 0.732064128 0.015773254
v 0.098868266 0.888919830 -0.143815324
v -0.187354445 0.870294571 -0.029635351
v 0.203308344 0.746216655 0.029736644
v -0.209781677 0.785152316 -0.013490306
v -0.207476735 0.804888606 -0.013603209
v -0.203466445 0.823218167 -0.016845306
v 0.082676217 0.887992501 -0.147771046
v 0.210798949 0.777761936 0.008935212
v 0.066119753 0.887678921 -0.148841888
v -0.086233474 0.850255489 0.066221945
v -0.015836988 0.839066207 -0.130676836
v 0.194457680 0.739112020 0.046848126
v 0.050134070 0.887790203 -0.146311596
v 0.059698857 0.874043941 -0.148511395
v 0.198179454 0.660903931 0.022181015
v -0.079910353 0.896743000 0.060447890
v -0.020005904 0.827068508 -0.119711183
v -0.203452870 0.795594752 -0.051268876
v -0.171290949 0.865851223 -0.084536225
v -0.097309053 0.835822403 0.072872847
v 0.033768065 0.888149083 -0.143902391
v -0.192069367 0.792430699 -0.069666341
v 0.017107869 0.888263524 -0.142483160
v -0.162487924 0.792498469 -0.098352224
v 0.179437071 0.668756425 0.053937722
v -0.179707006 0.784202456 -0.088331386
v 0.016738467 0.877212226 -0.142974108
v 0.000153610 0.888278782 -0.141804069
v 0.186607897 0.722894788 0.057298113
v 0.175830632 0.704214931 0.059429634
v 0.081934623 0.786725104 -0.106962487
v 0.017791320 0.889686882 0.066383503
v -0.165260762 0.811587453 -0.097740665
v -0.160727307 0.774222910 -0.096746385
v -0.164397836 0.884389043 -0.094161190
v 0.066770390 0.801257968 -0.106466725
v 0.164363772 0.723315299 0.065444157
v -0.141012698 0.780598581 -0.106740773
v -0.046273861 0.617383003 -0.054307722
v -0.106148385 0.787061810 -0.113575771
v -0.059367109 0.615604520 -0.059699316
v -0.072372258 0.613778770 -0.065248407
v -0.117949486 0.774546802 -0.115652062
v 0.143166155 0.713533044 0.072409943
v 0.155530572 0.699228108 0.066996261
v -0.085346811 0.611914456 -0.070771500
v 0.147257954 0.678531408 0.068509653
v -0.111120857 0.821211994 -0.114160642
v 0.038849078 0.884114861 0.064699270
v 0.024566194 0.872475326 0.064136952
v -0.098188803 0.609985113 -0.076399222
v 0.146800518 0.734456420 0.072810292
v -0.104420245 0.803913414 -0.113320448
v 0.129761741 0.739896655 0.078487203
v 0.134280071 0.693742394 0.075070150
v -0.111716196 0.608276904 -0.081163272
v -0.001171665 0.816148102 0.055062193
v -0.001527740 0.802411258 0.055649333
v -0.088506550 0.789508164 -0.108919822
v -0.125157133 0.608260095 -0.077322274
v -0.076002553 0.826870620 -0.126757592
v -0.096061662 0.773675084 -0.110317349
v -0.137615383 0.608273864 -0.073456094
v -0.150742039 0.608917236 -0.069280490
v -0.163836092 0.609320998 -0.065078124
v -0.049652997 0.792816103 0.061943084
v -0.025549646 0.792768598 0.058729630
v 0.084186353 0.713876963 0.064864688
v 0.086682789 0.697502792 0.064512990
v -0.174977228 0.610026717 -0.056839127
v -0.182353660 0.611179471 -0.045463234
v -0.028124308 0.742594123 0.053160977
v 0.069362924 0.707558692 0.059254814
v 0.050786845 0.719325900 0.056421388
v -0.189426735 0.612146139 -0.034064792
v -0.072812743 0.815775871 -0.114371516
v 0.077475920 0.741664231 0.065613978
v -0.195056289 0.613019407 -0.021855427
v -0.051524282 0.732024789 0.057009451
v 0.029635007 0.718942881 0.052523620
v -0.030760527 0.697854102 0.047211818
v -0.091047004 0.818359196 -0.114799120
v 0.026319539 0.682147503 0.044041730
v -0.064030945 0.713732719 0.057846189
v 0.070688739 0.772108734 0.067745052
v -0.030592021 0.671243727 0.041790344
v -0.051389206 0.673590720 0.047905803
v -0.054672748 0.832032859 -0.130493790
v -0.070383146 0.838051617 -0.138126120
v -0.071178511 0.746808290 0.063329108
v -0.056087978 0.848125100 -0.141920701
v 0.090002790 0.832741618 -0.133834124
v -0.199719518 0.614135146 -0.009323478
v 0.083685264 0.758303523 0.068208009
v -0.071776941 0.676751733 0.056157373
v -0.094643161 0.743463635 0.070519738
v 0.093859904 0.821580231 -0.117717460
v -0.075291336 0.697331071 0.059438996
v -0.085425951 0.714072526 0.064872697
v -0.076018587 0.864276588 0.059067648
v 0.071025357 0.670582116 -0.081782609
v -0.052233547 0.863362134 0.059499186
v 0.101784565 0.761812270 0.075197309
v -0.092906944 0.700467288 0.066792488
v 0.130827695 0.833295524 -0.111680865
v -0.195126384 0.615422904 0.002217743
v -0.027117696 0.758432329 0.058362205
v 0.089750223 0.661771417 -0.086325705
v -0.188195035 0.617570817 0.027403355
v -0.126291230 0.721225142 0.079000711
v 0.085430190 0.677405536 -0.089623809
v -0.182262167 0.618649125 0.039380591
v -0.106587648 0.710524261 0.072945938
v 0.115153670 0.750704288 0.079833120
v 0.122599587 0.769592047 0.079955831
v 0.124762669 0.847592533 -0.123678967
v -0.175870329 0.619525433 0.051218439
v -0.115511976 0.739603639 0.078580804
v -0.162739068 0.620300889 0.054448325
v -0.125540510 0.703023791 0.078326732
v -0.150408536 0.620822191 0.060263492
v -0.137977645 0.620944858 0.066069737
v -0.136318564 0.735796034 0.076124281
v -0.145123512 0.709849000 0.071107663
v -0.126132414 0.621711910 0.071482822
v 0.139874384 0.757285535 0.074850954
v -0.149947494 0.725623965 0.070364356
v -0.112420224 0.622500598 0.068070129
v -0.099483684 0.623387218 0.062519290
v 0.129812226 0.653095305 -0.085456975
v -0.153795108 0.741412997 0.070352450
v 0.177326724 0.763126731 0.063335992
v 0.130699486 0.666692495 -0.088337496
v 0.157772332 0.879971862 -0.105216764
v -0.086437665 0.624193013 0.056911219
v -0.141871318 0.694134772 0.071752623
v -0.073254198 0.624919891 0.051233910
v 0.131856531 0.878201008 -0.129663929
v -0.061336238 0.626034796 0.042860582
v -0.048453990 0.626966655 0.036013786
v 0.193980068 0.757529318 0.046892576
v 0.141641870 0.848406494 -0.110287234
v -0.035111200 0.627822161 0.030031001
v -0.021015340 0.628018260 0.026279902
v -0.172348455 0.750158608 0.064156480
v -0.017477136 0.636635780 0.036859728
v -0.166265443 0.715122104 0.063429944
v 0.145176739 0.662578940 -0.081401639
v 0.154057622 0.833841622 -0.101487957
v 0.202622563 0.765812635 0.028035972
v -0.190171584 0.739294767 0.055308275
v -0.182332382 0.702353716 0.056354992
v -0.187042415 0.720730305 0.056301624
v -0.041562699 0.744055033 -0.097034253
v 0.161225632 0.658415437 -0.073770136
v 0.210219145 0.773837328 -0.012325049
v 0.151734784 0.862503171 -0.111679032
v 0.013127306 0.776745021 -0.097641289
v -0.052357323 0.759962142 -0.098410591
v 0.067131825 0.746655107 -0.101332262
v -0.049024783 0.752118707 0.059030890
v 0.211006001 0.754584432 0.005234607
v -0.196997181 0.709311724 0.038007095
v -0.207363248 0.740094006 0.020423207
v -0.186181232 0.813829720 0.040497359
v 0.179044291 0.661382556 -0.063052662
v -0.205273747 0.699527025 0.019286495
v 0.123280942 0.892565072 0.044989552
v 0.210241482 0.754299521 -0.020551622
v -0.207109332 0.719524264 0.018154455
v -0.209888622 0.730659068 -0.002386803
v -0.209964588 0.742730975 -0.020041849
v 0.188109666 0.653428257 -0.048705168
v 0.209186628 0.738100588 -0.034815714
v -0.206033826 0.689053237 -0.000698939
v -0.206929237 0.814368367 0.004610621
v 0.158659682 0.849850833 -0.097637482
v -0.031795155 0.913186073 0.067980140
v 0.205349490 0.756836414 -0.046262268
v 0.191059023 0.760470331 -0.065554976
v -0.080681510 0.803922057 -0.109137714
v -0.059495676 0.806163490 -0.107138321
v 0.191940799 0.671669602 -0.048048526
v -0.208163530 0.708979905 -0.006974346
v 0.195592940 0.644625783 -0.033813335
v 0.197179347 0.740726829 -0.055167072
v -0.016729515 0.888585567 -0.142221510
v -0.033281740 0.888522744 -0.144061908
v 0.176704586 0.838054538 -0.088410333
v 0.017797450 0.779871047 0.058717836
v -0.049516596 0.888342023 -0.146489710
v -0.048094954 0.771128535 0.061560787
v 0.185781479 0.741222918 -0.070990153
v 0.175396487 0.749500990 -0.084677860
v -0.065452099 0.888463318 -0.149068967
v 0.173714042 0.857044518 -0.085468896
v -0.206408650 0.690942824 -0.022497486
v -0.081886508 0.888904870 -0.148114458
v -0.087369099 0.871085942 -0.147967786
v -0.204288274 0.812425017 -0.036719218
v -0.097768083 0.889947116 -0.144420668
v -0.112543210 0.891631782 -0.138588890
v 0.155636132 0.738826096 -0.092456363
v -0.202353552 0.735753953 -0.047732964
v -0.195126265 0.813960671 -0.062435389
v -0.182381898 0.823124766 -0.083516337
v -0.206382513 0.704416811 -0.036050405
v 0.185370058 0.848376930 -0.068759844
v 0.168677956 0.886769116 -0.076908514
v -0.195852056 0.656403780 -0.037979055
v 0.051338613 0.769520938 0.064219587
v 0.135426283 0.740804672 -0.102621600
v -0.064927131 0.789650083 -0.104608260
v -0.188672006 0.742737770 -0.067916662
v 0.175518528 0.884656787 -0.060854148
v -0.078552797 0.777197123 -0.106288232
v -0.184308842 0.650374293 -0.054311015
v 0.119868957 0.745379388 -0.110949911
v -0.191316396 0.698464334 -0.054804940
v -0.173282117 0.694650769 -0.074888155
v 0.179529205 0.885114670 -0.043183923
v -0.185011834 0.709715605 -0.065501846
v -0.173817962 0.731243730 -0.082357749
v 0.195319921 0.852999389 -0.028515721
v -0.167269066 0.675729871 -0.074182943
v -0.019894045 0.686174154 -0.075573027
v 0.081021935 0.734201074 -0.100974359
v -0.126602069 0.893746197 -0.132556349
v -0.138952225 0.896115124 -0.123597130
v -0.156625822 0.738763571 -0.092461206
v -0.154779702 0.721301615 -0.089684680
v -0.154385775 0.703464150 -0.086109318
v -0.152522057 0.685877144 -0.082369551
v -0.128536001 0.810655773 -0.113618232
v 0.069242612 0.804209113 0.065838926
v 0.202230245 0.664340615 -0.029087778
v -0.159748971 0.901288033 -0.100295424
v -0.165992633 0.903569400 -0.085964397
v 0.205093145 0.682157397 -0.016776238
v -0.003537659 0.619161069 -0.047066096
v -0.171888873 0.905549228 -0.072050974
v 0.194266170 0.858920217 -0.004519530
v -0.174196258 0.907154202 -0.057072651
v -0.174607158 0.908773720 -0.042696428
v -0.172795445 0.910601139 -0.029516846
v 0.208985120 0.771541953 -0.033021785
v 0.177352160 0.891068578 -0.028897509
v -0.171320215 0.912504017 -0.015648428
v -0.166172594 0.913348496 -0.002728247
v -0.159784675 0.914128661 0.009561328
v 0.049321514 0.776169598 -0.100865386
v -0.150807470 0.914509177 0.020148044
v 0.178575486 0.889889359 -0.012201445
v -0.140433863 0.915068030 0.029654780
v -0.134453535 0.676031232 -0.088436969
v 0.186468676 0.854949355 0.018992428
v 0.016331019 0.719427109 -0.085468397
v -0.002578512 0.708098352 -0.084846005
v -0.002467894 0.721894979 -0.085264377
v 0.145678088 0.878657341 -0.118486524
v -0.135763004 0.693647861 -0.092074879
v -0.002257642 0.734930575 -0.089760199
v -0.136826098 0.729471862 -0.100303009
v 0.014565649 0.734352827 -0.089778468
v -0.002122019 0.747367680 -0.095796838
v -0.129026711 0.915373147 0.038269319
v 0.161671460 0.759988666 -0.093169346
v 0.171744019 0.892559350 0.004386631
v -0.118479133 0.682876706 -0.097036257
v -0.117270887 0.915301323 0.044608966
v -0.104598664 0.915068269 0.050902240
v 0.163982779 0.883283973 0.025060037
v 0.045624577 0.829733968 -0.125598818
v -0.136392102 0.711359143 -0.096548215
v -0.116903387 0.739621818 -0.111503027
v 0.159835696 0.898221314 0.014459784
v -0.118290365 0.700684428 -0.101907238
v 0.175803259 0.848523915 0.037884455
v -0.098557279 0.691145897 -0.098408148
v -0.002574081 0.761399865 0.058574885
v -0.097205669 0.898712337 0.054351032
v 0.136819303 0.899517417 0.036171500
v 0.143972918 0.886665523 0.041847281
v 0.148999602 0.896870792 0.026895057
v -0.083259962 0.681964517 -0.090494767
v -0.096561097 0.708997369 -0.101240896
v -0.078321382 0.699611187 -0.092993230
v 0.046301477 0.689339995 0.049844932
v -0.095865220 0.726763606 -0.104617611
v 0.049941644 0.859220028 -0.143151551
v -0.075129457 0.717049837 -0.095325351
v 0.025806785 0.852953911 -0.138826758
v -0.038680743 0.824694335 -0.119637549
v -0.035966687 0.840407968 -0.133531392
v 0.202383846 0.678556621 0.019219818
v 0.188267499 0.687951207 0.051288806
v -0.051012427 0.708024383 -0.088578634
v -0.055510253 0.728839576 -0.092639178
v -0.149385199 0.898598373 -0.112003587
v 0.163398102 0.858577132 0.045968346
v 0.144030526 0.856485724 0.056063898
v -0.197275132 0.629306436 0.010006558
v 0.159678653 0.663268387 0.061331987
v 0.167554244 0.683672786 0.060847044
v -0.194686979 0.616302371 0.015684035
v 0.129964292 0.872339904 0.052378774
v -0.036008447 0.631631732 -0.056782801
v -0.032490451 0.618614197 -0.050458737
v 0.013918859 0.665877044 0.038460270
v -0.018287271 0.619350791 -0.047790553
v -0.005122908 0.910674453 0.076433763
v 0.065661602 0.850282550 -0.143997192
v -0.016788896 0.912962139 0.068527654
v -0.021942589 0.658789575 0.037139103
v 0.126423702 0.673975587 0.076678678
v 0.033703331 0.899582267 0.066673577
v 0.080062293 0.641633034 0.056566842
v 0.069670744 0.654280365 0.053451531
v 0.100026451 0.650546908 0.065970123
v 0.048544846 0.815060735 -0.111826576
v 0.118950807 0.654316366 0.074018449
v 0.053107779 0.657325804 0.046555988
v 0.193271011 0.643337548 0.026505480
v 0.122802772 0.849814534 0.063492410
v 0.109935939 0.863791168 0.059581209
v 0.182605654 0.874957919 0.007507171
v 0.104556002 0.668966711 0.069310680
v 0.186625332 0.872603118 -0.022836983
v 0.188454896 0.864941120 -0.048821371
v 0.051628701 0.897333264 0.064488433
v 0.087188050 0.679459512 0.063069806
v 0.108155474 0.690131545 0.072586447
v 0.177215666 0.868632793 -0.070706561
v 0.167322889 0.875429273 -0.088301972
v 0.085565202 0.661193013 0.060911901
v 0.161548108 0.864829540 -0.097621545
v 0.183738679 0.635656834 -0.049835764
v 0.169078112 0.641703904 -0.067916527
v 0.067260385 0.688413739 0.055994697
v 0.143607765 0.642017245 -0.077752084
v 0.136517361 0.862140775 -0.123082161
v 0.068782866 0.670190573 0.054770779
v 0.110403672 0.729351163 0.076477945
v 0.140378207 0.657877862 0.068992093
v 0.172609791 0.649796784 0.054186273
v 0.187998459 0.655202746 0.040453412
v 0.208374500 0.719318926 -0.030131478
v 0.155858889 0.718173385 -0.087993771
v 0.049118217 0.673909128 0.048087656
v 0.138477817 0.707338452 -0.094104432
v 0.200567037 0.650123298 -0.012916736
v 0.199894980 0.647867203 0.007559140
v 0.036122859 0.702533007 0.049592391
v 0.011560237 0.719379663 0.050718866
v 0.091336504 0.869104743 0.058293670
v 0.069406547 0.896004856 0.061912172
v 0.017307404 0.735007823 0.053381573
v 0.036079351 0.816140175 0.057553537
v 0.022713849 0.798076808 0.057658382
v 0.020632884 0.649543524 -0.062894151
v 0.058310218 0.880829692 0.062042367
v 0.037986487 0.680553555 -0.076565728
v 0.033260863 0.858795524 0.060388338
v 0.047009591 0.867864132 0.061855488
v 0.015656207 0.858220458 0.060059350
v 0.035193108 0.634568751 -0.058653247
v 0.056138255 0.684417605 -0.082200453
v 0.078985676 0.788653433 0.068422332
v 0.198979720 0.726279616 0.036209870
v 0.197865456 0.799933672 -0.059318863
v 0.057870399 0.632550001 -0.064192697
v 0.173289388 0.710916162 -0.077736750
v 0.125944301 0.775810719 -0.112515852
v 0.120281257 0.711988807 -0.103717372
v 0.080739409 0.629100442 -0.073331632
v 0.051299941 0.716378808 -0.089415058
v 0.037936516 0.761493564 -0.096519537
v 0.118048057 0.639637232 -0.085793443
v 0.102420330 0.625345945 -0.082378648
v 0.100807510 0.867077529 -0.142451242
v 0.075962260 0.879515290 0.060268540
v 0.070480816 0.860482335 0.061911039
v 0.126779675 0.623631597 -0.079006836
v 0.027739797 0.844853878 0.058288835
v 0.044688925 0.833037496 0.059717178
v 0.079044312 0.866585553 -0.147475213
v 0.150233120 0.623849273 -0.071291290
v 0.180231050 0.768366873 -0.084011674
v 0.023284344 0.808931649 -0.106231749
v 0.171558529 0.673122525 -0.071368232
v 0.171588153 0.623084188 -0.063781932
v 0.017478256 0.704141855 -0.084253848
v 0.182067052 0.620136142 -0.047934297
v 0.030757427 0.777956307 -0.098978125
v 0.192253560 0.625634074 -0.033188716
v 0.198559329 0.635419726 -0.019818105
v 0.064531572 0.755547345 0.062440358
v 0.106684841 0.848005652 -0.136593997
v 0.086374089 0.849596143 -0.142512113
v 0.018316457 0.761649907 -0.095112525
v 0.197974667 0.633358598 -0.002862776
v 0.123687886 0.678823590 -0.093241021
v 0.205210522 0.684196115 0.001657690
v 0.192891732 0.673974514 0.036890846
v 0.157908410 0.678202033 -0.078081295
v 0.141732022 0.679198682 -0.085311204
v 0.183107823 0.635040164 0.043509852
v 0.160347253 0.845350146 0.056790419
v 0.198618665 0.839994252 0.011371607
v 0.201736897 0.684839189 -0.037255466
v 0.045903850 0.649420381 -0.066991210
v 0.152918071 0.640760601 0.061635174
v 0.089236997 0.774649024 0.071839623
v 0.206862777 0.696825862 0.013797824
v 0.198174909 0.692661583 0.032475565
v 0.089744225 0.690255821 -0.094731450
v 0.133802861 0.636971414 0.069912814
v 0.117091402 0.815761745 -0.115544692
v -0.002305962 0.775113940 0.057913054
v -0.003256335 0.708442330 0.047160365
v 0.054203801 0.701838374 0.053826671
v 0.112788096 0.636805892 0.070083007
v 0.143130094 0.819296360 -0.106965661
v -0.002923457 0.749176204 0.052141566
v -0.001976934 0.788845301 0.057965230
v 0.095947847 0.634670019 0.062774807
v 0.021140981 0.829868913 0.057396334
v -0.000859547 0.829816222 0.056822050
v 0.108258627 0.880904555 0.053263508
v 0.061093956 0.641286492 0.046494417
v 0.105740443 0.898682237 0.051132161
v 0.197040692 0.629630566 0.013907449
v 0.105448529 0.777079940 0.077373728
v 0.035825700 0.870344996 -0.143880039
v 0.041069005 0.643342972 0.038378816
v 0.066859230 0.836096168 -0.135825917
v 0.018754158 0.647311330 0.033042200
v 0.033698812 0.661657751 0.041080948
v 0.042276748 0.796010077 -0.102283858
v 0.015317319 0.814766884 0.055432372
v 0.015882442 0.700635135 0.045977067
v -0.003446499 0.695030749 0.043948140
v -0.003032646 0.735401809 0.052212495
v 0.196426734 0.622363865 -0.014314756
v -0.003085200 0.721711338 0.050806236
v 0.070778504 0.650086224 -0.074828930
v 0.087526768 0.751577973 -0.104991302
v 0.106784679 0.761078656 -0.111556850
v 0.157377511 0.771101296 0.069590650
v 0.096994206 0.744780958 0.072096981
v 0.160776809 0.749351680 0.068402871
v 0.094542973 0.643621564 -0.083618864
v 0.189406246 0.627017498 0.028891359
f 555 540 123
f 389 162 497
f 567 540 568
f 583 104 251
f 463 489 430
f 453 94 255
f 483 484 162
f 446 640 671
f 574 577 251
f 50 244 238
f 52 244 50
f 575 57 53
f 55 249 52
f 55 2 250
f 577 248 563
f 575 437 432
f 57 597 589
f 2 265 262
f 589 592 57
f 262 259 2
f 5 267 262
f 602 606 589
f 5 9 11
f 58 606 610
f 11 272 5
f 12 278 11
f 565 793 8
f 630 60 632
f 13 425 12
f 424 289 160
f 289 424 13
f 643 649 60
f 181 403 179
f 483 206 484
f 163 651 174
f 53 563 558
f 651 65 650
f 163 389 384
f 683 66 65
f 455 558 563
f 165 384 171
f 340 331 34
f 67 66 683
f 206 470 63
f 385 102 856
f 67 702 70
f 344 340 696
f 179 403 406
f 710 70 702
f 16 352 14
f 111 112 59
f 63 64 655
f 18 368 16
f 710 742 753
f 119 112 111
f 394 671 545
f 551 922 903
f 19 375 18
f 753 740 711
f 406 470 179
f 261 615 108
f 545 453 439
f 178 386 530
f 24 386 23
f 72 753 742
f 26 396 24
f 768 765 72
f 119 142 112
f 32 63 470
f 112 142 161
f 399 400 396
f 154 343 182
f 545 671 448
f 399 415 400
f 768 770 765
f 32 406 410
f 418 415 399
f 770 183 777
f 387 300 166
f 415 418 422
f 105 86 299
f 169 42 839
f 170 142 119
f 173 172 705
f 329 638 343
f 134 738 737
f 185 638 329
f 692 661 145
f 150 74 741
f 637 345 873
f 132 145 661
f 170 184 142
f 138 495 760
f 138 136 188
f 136 194 188
f 201 87 194
f 270 87 205
f 216 49 210
f 46 216 724
f 198 184 170
f 43 96 907
f 219 39 218
f 45 43 41
f 224 37 219
f 498 224 514
f 86 105 342
f 225 36 514
f 378 107 110
f 80 233 107
f 22 41 43
f 198 217 849
f 41 581 45
f 103 233 76
f 76 40 103
f 222 217 214
f 678 100 40
f 98 41 22
f 366 41 98
f 40 76 678
f 215 4 284
f 215 98 21
f 537 536 92
f 222 234 217
f 904 537 92
f 460 462 30
f 284 471 366
f 222 239 246
f 586 903 759
f 462 28 30
f 246 234 222
f 454 449 28
f 237 391 924
f 560 319 921
f 246 888 252
f 431 471 282
f 455 560 391
f 319 560 241
f 50 238 793
f 50 566 52
f 52 574 55
f 258 263 510
f 244 52 249
f 55 253 2
f 284 792 657
f 303 670 667
f 303 100 674
f 250 249 55
f 273 274 252
f 251 253 574
f 100 303 301
f 301 570 100
f 104 261 257
f 677 100 678
f 273 285 274
f 257 2 253
f 2 257 265
f 250 2 259
f 570 568 40
f 752 292 293
f 294 296 285
f 285 296 274
f 684 497 679
f 277 274 296
f 440 447 442
f 579 489 463
f 692 329 695
f 259 262 267
f 871 736 360
f 262 271 9
f 40 100 570
f 570 567 568
f 203 128 270
f 310 296 294
f 305 296 310
f 87 270 194
f 9 5 262
f 5 272 600
f 276 9 271
f 9 276 11
f 272 11 278
f 302 323 310
f 568 103 40
f 108 615 89
f 280 11 276
f 11 280 12
f 103 568 540
f 278 12 425
f 323 337 328
f 283 12 280
f 12 283 13
f 283 297 289
f 289 13 283
f 540 561 231
f 425 13 424
f 209 288 205
f 291 125 286
f 346 337 323
f 49 304 288
f 173 350 351
f 297 654 314
f 347 158 864
f 304 47 311
f 47 304 49
f 47 46 481
f 360 361 855
f 501 684 146
f 481 311 47
f 46 39 481
f 343 695 329
f 314 289 297
f 289 314 160
f 481 321 308
f 481 39 321
f 325 122 321
f 325 321 37
f 37 321 39
f 333 160 314
f 324 266 333
f 527 107 231
f 84 121 325
f 36 327 498
f 160 333 34
f 327 120 84
f 36 82 371
f 277 393 390
f 689 34 333
f 34 689 340
f 313 34 331
f 266 334 689
f 334 260 341
f 340 335 331
f 107 527 110
f 54 404 405
f 696 14 344
f 61 401 44
f 38 299 407
f 358 14 348
f 14 358 16
f 344 14 352
f 356 704 712
f 352 16 368
f 413 62 417
f 370 16 358
f 16 370 18
f 175 705 134
f 713 115 110
f 371 27 378
f 27 371 82
f 381 18 370
f 18 381 19
f 368 18 375
f 80 378 27
f 19 381 235
f 19 395 23
f 19 23 178
f 202 506 913
f 23 395 24
f 386 24 396
f 398 24 395
f 24 398 26
f 26 398 220
f 26 412 399
f 396 26 399
f 418 399 412
f 164 180 444
f 444 443 164
f 175 173 705
f 685 84 120
f 422 300 415
f 685 121 84
f 172 169 300
f 172 300 422
f 78 80 27
f 226 365 78
f 89 615 114
f 240 485 309
f 134 737 175
f 226 27 82
f 245 459 452
f 187 186 140
f 243 459 245
f 189 187 130
f 581 466 579
f 467 472 637
f 308 122 240
f 138 579 466
f 430 255 463
f 499 435 430
f 453 430 435
f 435 440 439
f 435 499 450
f 243 479 281
f 308 321 122
f 897 438 584
f 439 453 435
f 243 281 893
f 450 440 435
f 480 859 865
f 440 449 447
f 442 439 440
f 450 449 440
f 447 449 454
f 492 488 493
f 127 458 456
f 449 456 28
f 82 225 708
f 454 28 462
f 28 456 30
f 456 450 127
f 30 456 458
f 225 82 36
f 30 464 460
f 506 507 502
f 126 469 125
f 287 508 509
f 207 507 506
f 410 460 32
f 126 306 477
f 460 464 644
f 644 32 460
f 32 644 63
f 475 31 576
f 470 406 32
f 64 63 644
f 306 309 477
f 125 464 458
f 528 795 511
f 516 523 524
f 655 206 63
f 206 655 484
f 206 474 470
f 162 679 497
f 316 322 822
f 313 160 34
f 37 498 325
f 523 316 534
f 497 684 501
f 501 146 505
f 146 512 503
f 505 503 513
f 263 515 510
f 512 120 115
f 503 512 91
f 517 513 503
f 115 713 91
f 458 203 125
f 315 547 548
f 91 512 115
f 547 330 336
f 91 713 88
f 517 88 522
f 552 548 547
f 532 88 713
f 88 532 519
f 552 336 553
f 522 519 541
f 527 231 561
f 127 128 458
f 538 660 692
f 514 36 498
f 224 498 37
f 538 692 695
f 114 626 631
f 553 342 105
f 219 37 39
f 555 660 561
f 127 450 499
f 891 199 824
f 660 555 661
f 218 39 46
f 199 97 886
f 366 98 284
f 22 21 98
f 41 366 581
f 43 232 22
f 907 232 43
f 96 536 907
f 45 463 255
f 45 581 463
f 255 94 96
f 255 96 45
f 94 453 545
f 448 546 545
f 582 593 594
f 595 584 438
f 216 46 47
f 216 47 49
f 551 640 558
f 558 640 569
f 49 288 209
f 793 565 50
f 569 53 558
f 566 50 565
f 209 210 49
f 841 351 350
f 574 52 566
f 578 53 57
f 612 609 423
f 53 578 563
f 575 53 569
f 597 432 211
f 253 55 574
f 57 575 597
f 578 57 592
f 592 583 578
f 627 609 612
f 584 621 628
f 603 589 606
f 602 589 597
f 634 819 627
f 610 606 602
f 835 318 229
f 626 606 58
f 610 624 58
f 58 624 630
f 632 58 630
f 634 884 869
f 58 632 626
f 60 642 632
f 642 60 649
f 60 630 181
f 650 649 643
f 662 652 645
f 656 628 621
f 621 636 656
f 658 659 204
f 64 644 469
f 466 495 138
f 694 377 700
f 468 471 431
f 663 650 65
f 628 656 668
f 679 162 484
f 65 686 663
f 672 673 659
f 686 65 66
f 683 65 651
f 468 431 478
f 683 693 67
f 685 146 684
f 146 685 512
f 696 340 689
f 66 67 701
f 473 495 478
f 66 698 686
f 702 67 693
f 668 675 687
f 701 698 66
f 405 690 54
f 701 67 70
f 54 690 564
f 14 696 348
f 711 70 710
f 699 70 711
f 702 709 710
f 229 318 236
f 657 282 471
f 710 709 742
f 753 756 740
f 756 753 72
f 742 754 72
f 72 754 768
f 72 765 756
f 766 765 770
f 490 193 496
f 130 772 496
f 770 776 766
f 15 719 168
f 87 201 148
f 183 770 768
f 201 194 136
f 422 705 172
f 633 777 338
f 777 633 150
f 408 74 633
f 638 185 408
f 106 730 258
f 688 379 694
f 275 631 118
f 185 692 145
f 197 750 749
f 736 737 738
f 263 258 730
f 738 741 743
f 185 145 143
f 743 741 744
f 744 741 74
f 744 467 879
f 132 140 145
f 123 132 661
f 741 738 150
f 123 540 567
f 773 772 567
f 738 134 150
f 78 27 226
f 238 623 1
f 264 279 779
f 776 150 134
f 134 705 420
f 695 541 538
f 104 599 261
f 365 681 680
f 761 762 763
f 365 678 76
f 76 78 365
f 411 156 420
f 156 411 220
f 541 519 538
f 220 764 156
f 76 233 78
f 80 78 233
f 168 789 387
f 70 699 701
f 398 395 228
f 434 437 445
f 779 780 887
f 428 432 434
f 926 317 706
f 197 749 745
f 213 6 4
f 279 785 780
f 419 427 428
f 148 201 745
f 454 462 419
f 526 782 783
f 381 734 235
f 410 414 419
f 493 769 913
f 511 4 215
f 4 511 213
f 406 414 410
f 208 731 729
f 21 511 215
f 210 728 727
f 794 800 823
f 511 21 529
f 470 474 179
f 724 218 46
f 227 110 115
f 118 280 275
f 219 218 722
f 806 800 794
f 803 804 256
f 716 778 225
f 224 219 720
f 407 86 690
f 356 734 381
f 389 497 380
f 809 795 528
f 810 806 811
f 717 716 514
f 497 501 380
f 317 697 429
f 810 818 821
f 913 771 202
f 341 698 699
f 373 376 159
f 369 177 373
f 341 260 698
f 260 334 266
f 365 226 681
f 517 522 354
f 828 821 818
f 354 362 364
f 569 640 446
f 519 522 88
f 767 828 818
f 266 324 676
f 602 597 211
f 804 834 256
f 121 240 122
f 345 868 918
f 610 602 211
f 169 839 166
f 427 195 211
f 643 179 174
f 683 651 165
f 693 683 171
f 627 884 634
f 324 654 676
f 846 397 841
f 841 397 374
f 362 709 369
f 580 397 846
f 192 188 190
f 192 499 489
f 128 192 190
f 270 205 203
f 205 288 286
f 291 306 126
f 208 148 733
f 288 304 291
f 304 311 306
f 311 481 308
f 286 125 203
f 283 118 297
f 589 599 592
f 283 280 118
f 227 115 120
f 747 805 732
f 707 226 82
f 107 378 80
f 275 114 631
f 118 646 297
f 89 114 275
f 231 233 103
f 87 209 205
f 816 872 870
f 271 108 89
f 248 560 455
f 248 241 560
f 108 271 265
f 566 565 241
f 86 876 690
f 622 244 619
f 517 91 88
f 574 566 248
f 715 662 889
f 244 249 618
f 249 250 614
f 882 465 718
f 253 251 257
f 774 465 882
f 250 259 608
f 883 494 774
f 921 391 560
f 259 267 604
f 54 564 847
f 251 577 583
f 600 267 5
f 89 276 271
f 503 91 517
f 690 405 407
f 275 276 89
f 892 573 582
f 272 278 596
f 248 577 574
f 280 276 275
f 425 588 591
f 425 424 781
f 781 313 572
f 424 313 781
f 572 585 781
f 314 654 324
f 136 197 201
f 313 557 572
f 237 551 558
f 554 331 335
f 334 341 348
f 760 136 138
f 335 344 549
f 341 699 704
f 348 696 334
f 921 319 7
f 358 348 704
f 344 352 544
f 912 582 594
f 903 586 551
f 352 368 543
f 381 370 356
f 368 375 539
f 788 8 3
f 535 375 178
f 221 795 809
f 828 767 562
f 559 833 920
f 921 920 899
f 546 448 898
f 903 922 836
f 38 903 299
f 235 228 395
f 405 669 407
f 546 92 94
f 400 518 520
f 92 546 904
f 639 35 926
f 386 396 525
f 927 926 33
f 928 605 930
f 200 490 298
f 94 545 546
f 96 92 536
f 927 56 852
f 143 472 408
f 220 412 26
f 400 520 521
f 412 220 411
f 109 113 152
f 920 832 559
f 418 412 411
f 152 113 746
f 387 789 786
f 420 418 411
f 746 161 867
f 418 420 422
f 490 773 298
f 496 772 773
f 394 442 445
f 562 767 832
f 739 636 820
f 204 725 658
f 773 490 496
f 725 223 635
f 447 454 428
f 472 186 637
f 215 284 98
f 189 130 496
f 458 464 30
f 410 462 460
f 125 469 464
f 635 247 487
f 487 269 629
f 641 487 629
f 268 269 487
f 269 393 629
f 390 269 268
f 469 126 64
f 349 761 763
f 655 64 477
f 303 674 670
f 290 393 277
f 611 290 928
f 163 474 483
f 928 307 605
f 635 641 648
f 531 605 533
f 677 674 100
f 477 309 485
f 506 202 207
f 679 485 240
f 240 121 684
f 312 912 594
f 684 679 240
f 121 685 684
f 186 187 345
f 503 505 146
f 912 332 892
f 772 130 132
f 685 120 512
f 501 505 159
f 725 648 658
f 505 513 373
f 513 517 364
f 892 847 564
f 110 527 713
f 714 847 339
f 522 541 154
f 51 714 346
f 231 103 540
f 714 51 404
f 541 695 343
f 567 772 123
f 502 500 506
f 578 577 563
f 867 659 673
f 577 578 583
f 597 575 432
f 592 104 583
f 913 492 493
f 845 167 839
f 599 104 592
f 386 178 23
f 599 603 615
f 110 227 378
f 615 261 599
f 706 402 639
f 603 626 114
f 132 123 772
f 624 610 195
f 409 706 317
f 746 673 682
f 114 615 603
f 120 327 227
f 624 414 403
f 691 429 697
f 642 631 632
f 642 118 631
f 429 433 853
f 646 118 642
f 642 649 646
f 152 682 691
f 682 433 691
f 181 643 60
f 654 297 646
f 122 325 121
f 140 130 187
f 421 416 617
f 123 661 555
f 309 308 240
f 698 260 686
f 702 693 177
f 698 701 699
f 672 441 436
f 291 126 125
f 109 691 697
f 143 140 186
f 874 872 816
f 665 441 672
f 188 192 489
f 665 658 653
f 712 704 699
f 653 451 665
f 927 697 317
f 712 740 734
f 648 461 653
f 178 375 19
f 923 880 116
f 641 461 648
f 740 756 748
f 748 758 228
f 926 706 639
f 479 641 482
f 754 742 362
f 354 754 362
f 407 669 38
f 203 458 128
f 482 629 620
f 756 765 758
f 182 754 154
f 128 127 192
f 254 246 252
f 611 382 620
f 764 398 228
f 499 192 127
f 764 766 156
f 766 776 156
f 930 611 928
f 420 156 776
f 140 132 130
f 788 7 8
f 387 166 168
f 420 776 134
f 136 760 197
f 300 387 415
f 750 197 760
f 745 201 197
f 148 208 209
f 733 148 745
f 258 35 106
f 593 533 605
f 731 208 733
f 236 318 910
f 729 210 208
f 728 210 729
f 727 216 210
f 188 489 579
f 929 573 556
f 724 216 727
f 573 929 582
f 723 218 724
f 722 218 723
f 720 219 722
f 717 224 720
f 514 224 717
f 188 579 138
f 876 556 573
f 707 681 226
f 898 904 546
f 472 143 186
f 212 795 221
f 899 391 921
f 854 925 931
f 213 795 212
f 140 143 145
f 404 54 714
f 833 922 924
f 415 387 786
f 143 408 185
f 238 3 793
f 1 3 238
f 31 799 752
f 622 238 244
f 918 799 515
f 380 376 171
f 915 752 357
f 617 476 421
f 619 244 618
f 618 249 616
f 616 249 614
f 636 739 613
f 388 613 10
f 614 250 608
f 357 791 915
f 383 688 388
f 608 259 607
f 571 438 576
f 295 667 666
f 92 96 94
f 607 259 604
f 372 726 700
f 667 295 303
f 367 726 372
f 604 267 601
f 298 295 207
f 923 875 880
f 363 732 367
f 408 467 74
f 148 209 87
f 298 301 295
f 359 747 363
f 601 267 600
f 359 355 755
f 600 272 598
f 598 272 596
f 353 755 355
f 301 298 773
f 596 278 591
f 747 755 751
f 591 278 425
f 588 425 781
f 388 688 813
f 769 771 913
f 763 353 349
f 202 771 200
f 506 500 913
f 74 467 744
f 773 570 301
f 82 708 707
f 320 647 326
f 500 492 913
f 331 554 557
f 242 910 320
f 344 335 340
f 910 908 647
f 554 335 550
f 239 222 703
f 549 550 335
f 549 344 544
f 166 167 168
f 544 352 543
f 543 368 542
f 17 15 167
f 17 845 157
f 907 536 919
f 157 850 155
f 155 850 153
f 542 368 539
f 150 633 74
f 153 854 151
f 151 854 149
f 149 858 147
f 147 862 144
f 539 375 535
f 759 903 38
f 530 535 178
f 144 862 141
f 141 866 139
f 139 866 137
f 530 386 525
f 137 870 135
f 525 396 521
f 135 870 872
f 133 872 131
f 131 874 129
f 129 923 117
f 923 874 875
f 170 119 902
f 521 396 400
f 20 932 101
f 99 101 932
f 99 886 97
f 95 97 199
f 95 891 93
f 93 896 90
f 518 400 786
f 90 896 85
f 85 901 83
f 83 905 81
f 169 166 300
f 81 905 79
f 77 79 796
f 77 909 75
f 439 394 545
f 75 914 73
f 73 914 71
f 71 916 69
f 442 394 439
f 468 466 366
f 442 447 434
f 7 562 920
f 794 534 811
f 924 899 833
f 434 447 428
f 428 454 419
f 419 462 410
f 38 898 759
f 902 111 897
f 466 468 495
f 526 524 534
f 25 59 56
f 96 43 45
f 895 401 61
f 182 343 338
f 483 389 163
f 483 162 389
f 897 59 25
f 883 894 775
f 776 777 150
f 59 897 111
f 380 384 389
f 774 882 893
f 111 902 119
f 778 708 225
f 501 159 380
f 167 166 839
f 159 505 373
f 176 191 867
f 373 513 369
f 364 369 513
f 850 890 925
f 354 364 517
f 354 522 154
f 177 369 709
f 154 541 343
f 446 445 437
f 376 380 159
f 204 223 725
f 217 198 214
f 214 703 222
f 437 569 446
f 610 211 195
f 414 624 195
f 403 630 624
f 889 718 715
f 160 313 424
f 181 630 403
f 888 246 239
f 179 643 181
f 174 650 643
f 651 650 174
f 163 384 165
f 487 247 268
f 165 651 163
f 171 683 165
f 174 474 163
f 557 313 331
f 475 515 799
f 376 693 171
f 285 273 757
f 177 693 376
f 627 885 884
f 174 179 474
f 509 508 516
f 294 302 310
f 709 702 177
f 709 362 742
f 154 754 354
f 182 338 183
f 780 785 803
f 183 768 182
f 423 413 881
f 183 338 777
f 638 338 343
f 633 638 408
f 590 401 895
f 692 185 329
f 190 188 194
f 515 475 25
f 270 190 194
f 190 270 128
f 195 427 414
f 7 788 562
f 915 878 571
f 877 595 438
f 203 205 286
f 44 48 61
f 474 206 483
f 210 209 208
f 61 62 895
f 413 895 62
f 211 432 427
f 172 42 169
f 398 764 220
f 515 263 918
f 437 575 569
f 228 758 764
f 124 885 426
f 175 871 350
f 84 498 327
f 225 514 716
f 327 371 227
f 918 263 730
f 898 448 759
f 371 327 36
f 839 374 890
f 227 371 378
f 451 441 665
f 228 235 748
f 444 180 457
f 233 231 107
f 187 868 345
f 759 448 586
f 189 292 868
f 734 748 235
f 653 461 826
f 924 922 237
f 292 193 196
f 446 671 394
f 461 641 479
f 922 551 237
f 391 237 455
f 482 641 629
f 918 868 799
f 196 200 293
f 771 293 200
f 558 455 237
f 281 287 894
f 894 893 281
f 248 566 241
f 257 251 104
f 255 430 453
f 257 261 265
f 509 775 287
f 260 266 676
f 509 516 524
f 265 261 108
f 523 516 531
f 322 316 523
f 273 252 888
f 265 271 262
f 811 534 316
f 316 315 811
f 676 686 260
f 366 466 581
f 478 495 468
f 330 547 315
f 547 336 552
f 366 471 468
f 760 495 473
f 657 471 284
f 336 342 553
f 553 900 552
f 832 900 553
f 865 878 791
f 792 284 4
f 31 571 576
f 286 288 291
f 438 571 877
f 906 864 863
f 4 790 792
f 8 7 319
f 303 295 301
f 291 304 306
f 570 773 567
f 739 617 392
f 617 416 392
f 306 311 309
f 309 311 308
f 170 628 668
f 613 739 10
f 739 392 10
f 656 675 668
f 656 815 675
f 680 678 365
f 813 613 388
f 324 333 314
f 687 198 668
f 379 688 383
f 295 666 207
f 815 656 636
f 377 694 379
f 325 498 84
f 689 333 266
f 334 696 689
f 700 377 372
f 861 834 860
f 703 721 239
f 732 726 367
f 834 861 256
f 348 341 704
f 747 732 363
f 356 358 704
f 735 888 721
f 370 358 356
f 735 264 757
f 735 273 888
f 755 747 359
f 369 364 362
f 353 763 755
f 647 761 326
f 761 349 326
f 376 373 177
f 779 757 264
f 780 779 279
f 384 380 171
f 235 395 19
f 736 871 737
f 562 788 917
f 910 647 320
f 785 804 803
f 414 406 403
f 256 323 803
f 813 675 815
f 415 786 400
f 427 419 414
f 422 420 705
f 432 428 427
f 430 489 499
f 587 580 590
f 437 434 432
f 445 442 434
f 446 394 445
f 671 586 448
f 819 609 627
f 456 449 450
f 455 563 248
f 865 791 769
f 581 579 463
f 645 652 817
f 644 464 469
f 652 662 715
f 874 923 129
f 715 664 652
f 694 812 688
f 477 64 126
f 750 760 473
f 485 655 477
f 465 715 718
f 507 207 666
f 465 774 494
f 865 486 480
f 812 675 813
f 485 484 655
f 207 202 298
f 883 504 825
f 493 865 769
f 783 782 504
f 679 484 485
f 202 200 298
f 196 490 200
f 196 193 490
f 877 859 476
f 302 803 323
f 189 496 193
f 814 806 810
f 168 719 789
f 821 814 810
f 391 899 924
f 713 527 532
f 467 408 472
f 302 294 887
f 786 787 518
f 538 519 532
f 561 532 527
f 926 35 33
f 538 532 660
f 540 555 561
f 551 586 640
f 319 241 565
f 660 532 561
f 113 161 746
f 161 176 867
f 8 319 565
f 223 247 635
f 781 585 784
f 620 629 393
f 887 780 302
f 269 390 393
f 671 640 586
f 781 784 588
f 599 589 603
f 393 290 611
f 626 603 606
f 928 290 305
f 623 238 622
f 625 1 623
f 774 893 894
f 312 332 912
f 626 632 631
f 332 339 847
f 847 892 332
f 757 887 285
f 847 714 54
f 793 3 8
f 732 807 726
f 858 931 857
f 675 812 687
f 168 167 15
f 273 735 757
f 920 921 7
f 402 385 639
f 167 845 17
f 638 633 338
f 646 649 663
f 650 663 649
f 845 850 157
f 888 239 721
f 663 654 646
f 706 409 48
f 850 854 153
f 676 654 663
f 429 409 317
f 661 692 660
f 854 858 149
f 676 663 686
f 858 862 147
f 433 429 691
f 678 680 677
f 699 711 712
f 712 734 356
f 711 710 753
f 862 866 141
f 712 711 740
f 682 436 827
f 734 740 748
f 866 870 137
f 214 687 808
f 748 756 758
f 664 816 652
f 872 133 135
f 198 687 214
f 754 182 768
f 872 874 131
f 665 659 658
f 758 765 766
f 658 648 653
f 766 764 758
f 776 770 777
f 668 198 170
f 117 923 116
f 787 786 789
f 929 330 822
f 533 822 322
f 556 336 330
f 531 322 523
f 899 920 833
f 662 444 889
f 346 323 256
f 491 482 620
f 116 880 911
f 911 20 116
f 382 491 620
f 911 932 20
f 932 886 99
f 645 443 662
f 930 382 611
f 382 930 516
f 886 824 199
f 605 531 930
f 491 508 848
f 628 170 902
f 256 347 346
f 482 848 479
f 891 896 93
f 347 256 861
f 820 617 739
f 866 819 817
f 605 594 593
f 896 901 85
f 929 593 582
f 612 881 885
f 901 905 83
f 826 451 653
f 451 457 180
f 672 659 665
f 441 180 851
f 79 905 796
f 436 673 672
f 436 851 827
f 909 914 75
f 682 673 436
f 914 916 71
f 584 902 897
f 876 86 342
f 69 916 1
f 829 433 827
f 700 808 694
f 788 3 916
f 853 829 417
f 409 61 48
f 402 48 855
f 870 817 816
f 855 29 360
f 874 816 664
f 385 361 102
f 830 880 875
f 576 897 25
f 819 634 817
f 68 69 1
f 106 856 730
f 743 736 738
f 910 242 236
f 862 857 819
f 744 879 102
f 880 830 831
f 840 528 843
f 401 846 44
f 803 302 780
f 769 791 357
f 878 915 791
f 831 911 880
f 918 873 345
f 576 25 475
f 799 31 475
f 841 29 846
f 879 856 102
f 106 639 385
f 573 564 876
f 911 831 802
f 342 556 876
f 337 339 332
f 25 510 515
f 350 29 841
f 564 573 892
f 892 582 912
f 510 25 56
f 864 906 837
f 312 328 337
f 929 822 593
f 33 35 258
f 871 360 29
f 840 860 835
f 864 158 863
f 29 855 44
f 916 914 917
f 808 687 812
f 594 307 312
f 307 305 328
f 916 917 788
f 33 56 927
f 840 835 809
f 307 594 605
f 736 743 361
f 531 516 930
f 290 277 305
f 852 109 927
f 318 835 860
f 21 844 529
f 852 59 112
f 620 393 611
f 102 743 744
f 112 113 852
f 751 763 762
f 647 785 762
f 805 747 751
f 252 268 254
f 230 835 229
f 487 641 635
f 637 879 467
f 124 851 164
f 809 230 221
f 161 142 176
f 807 732 805
f 247 234 254
f 230 809 835
f 808 700 807
f 345 637 186
f 176 184 191
f 812 694 808
f 204 849 223
f 849 204 191
f 813 688 812
f 635 648 725
f 849 184 198
f 815 613 813
f 815 636 613
f 217 223 849
f 659 191 204
f 217 234 223
f 191 184 849
f 859 480 421
f 795 213 511
f 245 461 243
f 878 865 859
f 802 886 932
f 191 659 867
f 452 718 889
f 223 234 247
f 176 142 184
f 246 254 234
f 865 493 486
f 293 771 357
f 268 247 254
f 771 769 357
f 805 264 735
f 268 252 390
f 161 113 112
f 486 493 488
f 390 252 274
f 867 673 746
f 264 751 279
f 274 277 390
f 746 682 152
f 281 848 287
f 827 433 682
f 808 703 214
f 152 691 109
f 109 852 113
f 476 859 421
f 296 305 277
f 476 595 877
f 305 307 928
f 196 293 292
f 595 476 820
f 726 807 700
f 752 293 357
f 307 328 312
f 310 328 305
f 56 59 852
f 292 752 799
f 328 310 323
f 886 825 824
f 312 337 332
f 807 703 808
f 891 824 782
f 193 292 189
f 844 21 22
f 429 853 409
f 109 697 927
f 56 33 510
f 105 559 553
f 339 337 346
f 346 714 339
f 51 346 347
f 317 926 927
f 564 690 876
f 863 844 232
f 799 868 292
f 510 33 258
f 843 528 529
f 844 863 842
f 861 840 843
f 861 158 347
f 861 860 840
f 752 915 31
f 158 843 842
f 843 158 861
f 842 529 844
f 919 837 906
f 906 232 907
f 809 528 840
f 730 873 918
f 730 856 873
f 873 856 879
f 856 106 385
f 817 634 645
f 837 919 838
f 817 652 816
f 919 906 907
f 919 536 537
f 743 102 361
f 904 669 838
f 898 669 904
f 669 898 38
f 703 807 721
f 405 404 838
f 669 405 838
f 922 833 836
f 294 285 887
f 361 385 402
f 869 645 634
f 830 875 664
f 916 3 1
f 864 51 347
f 402 855 361
f 909 801 914
f 397 890 374
f 48 44 855
f 796 909 77
f 879 637 873
f 901 798 905
f 580 925 397
f 48 402 706
f 896 800 901
f 891 823 896
f 409 62 61
f 853 62 409
f 881 413 417
f 417 62 853
f 86 407 299
f 459 893 882
f 199 891 95
f 830 465 831
f 829 426 417
f 426 829 124
f 426 881 417
f 124 829 827
f 433 829 853
f 886 802 825
f 774 894 883
f 851 124 827
f 164 884 124
f 441 851 436
f 180 164 851
f 443 869 164
f 911 802 932
f 715 830 664
f 874 664 875
f 736 361 360
f 451 180 441
f 457 452 889
f 889 444 457
f 866 817 870
f 106 35 639
f 459 718 452
f 826 452 457
f 452 826 245
f 451 826 457
f 862 819 866
f 858 857 862
f 461 245 826
f 459 882 718
f 479 243 461
f 854 931 858
f 850 925 854
f 846 401 580
f 845 890 850
f 491 848 482
f 848 281 479
f 825 494 883
f 382 508 491
f 900 832 767
f 508 287 848
f 896 823 800
f 839 890 845
f 504 782 824
f 42 374 839
f 516 508 382
f 908 910 318
f 534 524 523
f 552 818 548
f 42 172 173
f 901 800 798
f 818 552 900
f 533 322 531
f 871 175 737
f 868 187 189
f 22 232 844
f 593 822 533
f 822 315 316
f 929 556 330
f 330 315 822
f 838 919 537
f 904 838 537
f 318 860 834
f 908 318 834
f 465 830 715
f 556 342 336
f 105 836 559
f 833 559 836
f 29 44 846
f 908 834 804
f 562 917 828
f 299 836 105
f 818 900 767
f 832 553 559
f 562 832 920
f 811 315 548
f 828 801 821
f 801 828 917
f 821 797 814
f 836 299 903
f 401 590 580
f 797 821 801
f 905 798 796
f 796 814 797
f 810 548 818
f 814 798 806
f 798 814 796
f 909 796 797
f 811 548 810
f 413 587 590
f 404 51 837
f 51 864 837
f 837 838 404
f 909 797 801
f 529 842 843
f 158 842 863
f 232 906 863
f 800 806 798
f 529 528 511
f 794 811 806
f 785 908 804
f 785 647 908
f 859 877 878
f 526 534 794
f 877 571 878
f 571 31 915
f 173 351 42
f 524 783 509
f 350 173 175
f 29 350 871
f 823 526 794
f 783 524 526
f 526 823 782
f 42 351 374
f 841 374 351
f 504 775 783
f 509 783 775
f 782 823 891
f 885 124 884
f 887 757 779
f 914 801 917
f 426 885 881
f 890 397 925
f 825 504 824
f 775 504 883
f 925 587 931
f 587 925 580
f 802 494 825
f 785 279 762
f 494 831 465
f 831 494 802
f 894 287 775
f 590 895 413
f 438 897 576
f 884 164 869
f 762 279 751
f 423 931 587
f 587 413 423
f 931 423 857
f 762 761 647
f 617 820 476
f 595 820 621
f 751 755 763
f 893 459 243
f 751 264 805
f 609 857 423
f 423 881 612
f 662 443 444
f 721 805 735
f 621 584 595
f 857 609 819
f 443 645 869
f 612 885 627
f 636 621 820
f 628 902 584
f 805 721 807
