# avbd fit, rung f20-i16-s300-r1-h60 of Gate 6d (body space, fit phase only)
v -0.002999818 0.624705374 0.048215877
v -0.109309182 0.644722879 0.068749659
v -0.002879948 0.638788104 0.050702792
v -0.000043134 0.888413906 0.066783756
v -0.154031128 0.629059196 0.059577219
v 0.002481133 0.903121769 0.068342187
v -0.002691495 0.666702151 0.055534173
v -0.002760137 0.652744532 0.053364594
v -0.155326158 0.644943118 0.060545482
v 0.152850956 0.892405629 -0.109111667
v -0.172854021 0.640877545 0.052368097
v -0.187152654 0.642436147 0.037687752
v -0.195199996 0.643286884 0.022475654
v -0.169170275 0.637863040 -0.067879826
v 0.012040528 0.606296241 -0.064909242
v -0.151695326 0.634100854 -0.073343158
v 0.026136544 0.606295645 -0.064633623
v -0.134572446 0.634334981 -0.079147168
v -0.117778346 0.638042986 -0.085786864
v 0.192334980 0.603733897 0.013772598
v -0.000305462 0.859915912 0.062319178
v -0.000465860 0.845770538 0.062546954
v -0.100783408 0.633213162 -0.084209450
v -0.086904094 0.639055550 -0.081223920
v 0.096705981 0.797429681 -0.111825824
v -0.072190717 0.646588206 -0.079864219
v -0.131437093 0.856003940 -0.123453483
v -0.141167343 0.797877252 0.071415320
v 0.040931534 0.690625131 -0.088495836
v -0.156368107 0.807784200 0.065628007
v 0.070538215 0.822654068 -0.121714368
v -0.191338837 0.786545932 0.045443214
v 0.089291222 0.764222205 -0.108561620
v -0.198698714 0.637844503 -0.026321411
v 0.074820332 0.754658818 -0.105317757
v -0.157799989 0.864158809 -0.101287521
v -0.181563482 0.867747188 -0.063503839
v 0.014032228 0.751644671 0.068240367
v -0.184658304 0.874018073 -0.043935083
v -0.077106908 0.849903107 -0.143897876
v -0.029343080 0.849501908 0.062554330
v 0.014081945 0.655800164 -0.076000713
v -0.018721981 0.832313359 0.064377725
v 0.062791459 0.694904625 -0.092311874
v -0.040586676 0.833900630 0.065352179
v -0.182678863 0.881136596 -0.025380621
v -0.188576505 0.871013165 -0.008318642
v 0.072983004 0.712240279 -0.097066030
v -0.179060280 0.875706375 0.011127698
v -0.040655609 0.642926991 0.054016411
v 0.060662091 0.808749974 0.067140386
v -0.062413961 0.644067824 0.057232238
v -0.077777132 0.717435837 0.068737470
v 0.059979238 0.775752664 0.069662869
v -0.083820626 0.643599749 0.061457526
v 0.104158401 0.776787221 -0.112131670
v -0.102358818 0.715061009 0.072378829
v -0.171323836 0.721812367 0.062292956
v 0.121332213 0.789374828 -0.115453266
v -0.198725641 0.719362557 0.035730548
v 0.083421573 0.697969019 -0.096249104
v 0.102908552 0.694953680 -0.100207664
v -0.201209828 0.795582891 0.026513647
v -0.196856543 0.813542008 0.023945639
v -0.208335638 0.716065705 -0.027608594
v -0.196813554 0.710023463 -0.049893212
v -0.186549202 0.719434142 -0.065583751
v 0.008910852 0.621333241 0.055780899
v 0.012713919 0.611735463 0.046089545
v -0.170429498 0.707828581 -0.079086386
v 0.027260760 0.611778200 0.047436237
v -0.117055580 0.713452220 -0.105899379
v 0.041706912 0.611553550 0.049598105
v -0.018729758 0.738427877 -0.101976134
v 0.056090258 0.611286581 0.051995367
v -0.096850954 0.852668881 -0.140832037
v 0.070293441 0.610872090 0.054818433
v -0.115077339 0.855668187 -0.135361791
v 0.084292285 0.610296905 0.058202457
v -0.120679818 0.844273865 -0.125619143
v 0.098047890 0.609580755 0.062007416
v -0.142913848 0.870998025 -0.120954171
v 0.111482404 0.608708918 0.066230334
v -0.179590270 0.838396370 -0.083637379
v 0.124692619 0.607692480 0.070475496
v 0.045171179 0.740682244 0.066336170
v -0.145355225 0.874844074 0.047981333
v -0.125513881 0.787789464 -0.113925479
v -0.156791031 0.671595991 0.063212395
v 0.136589617 0.606998801 0.065181687
v -0.145149365 0.795734942 -0.106045261
v -0.018705960 0.795602560 0.066442356
v 0.149055257 0.606908321 0.059329294
v -0.039743766 0.798695266 0.067036763
v 0.161523044 0.606363177 0.053509243
v -0.025612917 0.814399242 0.065230593
v 0.174362630 0.605620742 0.048631251
v -0.018506456 0.864690304 0.062219750
v 0.181298375 0.605266929 0.036766510
v -0.064529881 0.863786519 -0.147613913
v 0.191313654 0.604376614 0.027453121
v 0.026643569 0.739513278 -0.102535382
v -0.088117883 0.836027145 -0.136462361
v -0.109976694 0.681702435 0.071982071
v 0.038101792 0.722929239 0.066073529
v 0.057562869 0.754580498 -0.103232265
v -0.116232991 0.831252217 -0.119995609
v -0.140219808 0.668596148 0.069781013
v 0.130563349 0.753188968 -0.107031263
v -0.131339163 0.823186874 -0.112351894
v 0.136501759 0.799564481 -0.109574363
v 0.144859716 0.783151448 -0.104804978
v 0.145561129 0.764582515 -0.101732239
v -0.163242504 0.687690377 0.062700324
v -0.147956923 0.814547181 -0.105422340
v 0.198423758 0.602494419 0.001570465
v 0.198684826 0.601724505 -0.011179991
v -0.193460107 0.678547561 0.037183400
v 0.153666362 0.800079644 -0.101972044
v -0.166249216 0.825754642 -0.097697295
v -0.191386491 0.828842342 -0.065381840
v -0.196873218 0.841681838 -0.051745154
v -0.055586636 0.816946328 -0.116190985
v 0.155149236 0.691675961 -0.082233831
v -0.175771266 0.834845841 0.046020836
v -0.191629559 0.831066132 0.024547121
v -0.124253191 0.826468289 0.070457064
v -0.136107296 0.841131508 0.063348666
v 0.192714676 0.601379991 -0.023522440
v -0.019956395 0.808654666 -0.111562371
v 0.185994089 0.601217985 -0.035497312
v -0.039179746 0.805206299 -0.110616483
v 0.182936400 0.600486755 -0.048862979
v -0.023067597 0.697808444 -0.088893078
v 0.172688976 0.599856019 -0.058037687
v -0.108919859 0.875563920 0.053780269
v 0.160405844 0.599715173 -0.064170286
v -0.088594161 0.870705307 0.058068842
v 0.148228914 0.599454045 -0.070609435
v -0.020895893 0.792526364 -0.107298955
v 0.134509966 0.599133551 -0.072402053
v 0.168084100 0.790920496 -0.095248915
v -0.022251036 0.775647104 -0.105039239
v 0.122126535 0.599386275 -0.076327927
v -0.041463524 0.788012087 -0.107522056
v -0.182705805 0.797691584 -0.084471971
v 0.108396448 0.600134969 -0.078160487
v -0.144510925 0.890213370 0.037875921
v 0.095090739 0.601806521 -0.074457675
v -0.027966041 0.719769597 -0.093309745
v 0.081449650 0.603148162 -0.071722105
v 0.146107882 0.748218894 -0.098643973
v 0.067891762 0.604457259 -0.068545341
v -0.103588894 0.752363682 -0.110248327
v 0.054070599 0.605316997 -0.066633224
v -0.061751354 0.682409883 -0.088142775
v 0.040165756 0.606024384 -0.064936370
v 0.050980806 0.838922858 0.065451041
v -0.186727449 0.769761205 -0.073976249
v -0.203165248 0.644881070 -0.008046883
v 0.163046196 0.772554815 -0.094796933
v -0.208352298 0.788899481 -0.029725367
v -0.210361928 0.757294297 -0.018503588
v 0.174800768 0.685720146 -0.071755171
v -0.209487915 0.744848132 -0.036886476
v -0.001902942 0.634006619 -0.068123825
v 0.016029598 0.622856498 -0.066058569
v -0.002044281 0.620162427 -0.065675206
v -0.001719369 0.647307813 -0.072596088
v 0.171747610 0.812143445 -0.094304584
v -0.198940307 0.748199344 -0.055112053
v -0.001587618 0.660524428 -0.077308610
v -0.001459876 0.674029291 -0.081055969
v -0.210802644 0.744542718 0.001411330
v -0.001297061 0.687486410 -0.084976427
v 0.180475652 0.779669166 -0.085867122
v -0.174457043 0.742666304 -0.084455729
v -0.106935143 0.618590832 -0.082993954
v -0.204105452 0.754135966 0.027402138
v 0.187032223 0.701076388 -0.060361575
v -0.198933706 0.736983001 0.037356596
v -0.089404605 0.738443494 -0.107079819
v -0.075386576 0.726700008 -0.101170242
v 0.185843483 0.797027469 -0.078982756
v -0.043127332 0.770485222 -0.105307057
v -0.000016251 0.782150924 -0.105247661
v 0.000187571 0.796042085 -0.107742451
v -0.102343306 0.857782662 0.063718185
v 0.000417195 0.809540391 -0.111865640
v -0.123424612 0.852948844 0.061710168
v 0.190102071 0.776401520 -0.069177702
v -0.111385360 0.840556502 0.068896390
v 0.000572247 0.821850598 -0.118742570
v -0.125786155 0.867920220 0.055069320
v -0.156218171 0.745456338 0.069471814
v 0.000697079 0.832113147 -0.128421515
v -0.114443980 0.891991436 0.049127236
v 0.190909892 0.818054855 -0.068602793
v 0.170310408 0.622374952 0.051695812
v 0.000816785 0.843617558 -0.136547104
v -0.128776342 0.883725286 0.046452560
v 0.000932795 0.856399417 -0.142399147
v -0.157207534 0.846559227 0.056468837
v 0.201574892 0.771302044 -0.051784318
v -0.161031708 0.863945663 0.044598754
v -0.210840613 0.785966277 0.006821427
v 0.001033583 0.870181859 -0.145282060
v -0.155131206 0.893334031 0.023577593
v -0.163080454 0.878685296 0.029945862
v -0.168828443 0.890409112 0.009200303
v -0.137027338 0.739676595 0.075800247
v 0.031762049 0.902214170 0.067031875
v 0.016736571 0.902184129 0.067713089
v 0.199313745 0.834152877 -0.047909074
v -0.000186504 0.873975635 0.065033972
v -0.180359021 0.887975037 -0.007869901
v 0.204115778 0.811093807 -0.043509565
v -0.177592427 0.888944924 -0.041011624
v -0.177262262 0.885162055 -0.058285169
v -0.070257559 0.664819777 -0.084942579
v 0.046850368 0.902365506 0.065722212
v 0.202494472 0.824642658 -0.026126061
v 0.208150670 0.786450565 -0.033091433
v -0.171536475 0.880929828 -0.074795336
v -0.154822186 0.880792916 -0.109027460
v -0.124865912 0.871232629 -0.134452328
v -0.148241848 0.833280683 -0.105213143
v -0.100070260 0.667256415 -0.092963465
v 0.076852381 0.902794242 0.061669521
v 0.061879165 0.902620137 0.063703842
v -0.097674742 0.826653600 -0.123180762
v -0.000638167 0.831811070 0.064098217
v -0.106203496 0.838756561 -0.133602217
v 0.206853434 0.804839611 -0.019991823
v -0.117406867 0.658648431 -0.091522157
v 0.091203615 0.903081059 0.057247978
v -0.025199186 0.712557971 0.063468620
v -0.025476852 0.627948821 0.049329534
v 0.201440483 0.835015178 -0.009334633
v -0.201672345 0.825413525 -0.039657276
v -0.037327748 0.670080245 0.057813447
v 0.105107501 0.903329492 0.052284092
v 0.207831979 0.707079053 0.004359924
v -0.049727812 0.627248168 0.052409727
v 0.207888097 0.706240773 -0.013692399
v 0.205191687 0.818703949 -0.003597900
v 0.209998816 0.786042452 -0.007401911
v -0.054180004 0.680836499 0.061272930
v -0.074012637 0.627393723 0.056962401
v -0.096540280 0.628278017 0.062980346
v -0.092082523 0.673271120 0.066888265
v 0.199765235 0.810148895 0.021530276
v -0.093624279 0.657688260 0.065526672
v 0.208889574 0.802424550 0.001257917
v -0.050968342 0.817711234 0.067382485
v 0.096404314 0.837075591 0.072992310
v -0.109937251 0.664422333 0.070581108
v 0.069661565 0.768024564 -0.107212506
v -0.117500700 0.626108587 0.070571259
v -0.196279645 0.679575980 -0.044565111
v -0.126219779 0.674236894 0.076363668
v -0.135435462 0.640020251 0.069162026
v 0.062346101 0.781302333 -0.107714072
v 0.174319714 0.857750595 0.032491975
v -0.128066406 0.656668663 0.074164167
v -0.200081915 0.666260123 -0.034510639
v -0.138636619 0.622841895 0.066009499
v 0.207460597 0.789389968 0.016949374
v 0.202005357 0.775319457 0.028079405
v -0.141996711 0.857954621 0.055451095
v -0.146418065 0.656437755 0.065750524
v -0.169276312 0.622733355 0.053976785
v 0.188600451 0.826026320 0.031279214
v 0.186865464 0.807775676 0.043022599
v -0.176398918 0.674547374 0.055442739
v -0.166477278 0.658181310 0.057363741
v 0.184559613 0.790519357 0.056434989
v -0.182104945 0.625429749 0.042286068
v 0.157413095 0.864077389 0.048999034
v -0.185142234 0.658767581 0.047593988
v 0.203300506 0.703243017 0.024247471
v -0.046763904 0.902735889 0.065621212
v -0.194033161 0.659203887 0.029296678
v -0.021973519 0.883391738 0.065452293
v 0.176971167 0.822946906 0.050331958
v -0.171687156 0.851470470 0.040627707
v 0.193978831 0.698622763 0.042999797
v -0.174964637 0.863382816 0.026853666
v -0.200780913 0.653343141 0.010798050
v 0.175110206 0.772408843 0.064195767
v -0.184894502 0.847834110 0.026279707
v 0.023653869 0.820520282 -0.118148528
v 0.024902737 0.834594369 -0.130851924
v 0.159622103 0.819966793 0.063145816
v -0.024769139 0.868720233 -0.145619765
v 0.169840544 0.805335343 0.062844470
v -0.202700570 0.671382010 0.016023612
v -0.018796746 0.851312459 -0.141112551
v 0.024513317 0.737998962 0.064554393
v -0.016689422 0.645215273 -0.072048336
v -0.040114187 0.855154037 -0.143452674
v 0.141830057 0.828292370 0.066549785
v -0.045942448 0.871239185 -0.146615952
v -0.189349756 0.860218823 0.010393765
v 0.157731041 0.786718965 0.068919875
v -0.198934838 0.843095481 0.009176334
v 0.140359432 0.771575570 0.074802078
v -0.198133260 0.846502602 -0.031274479
v -0.201419204 0.834506035 -0.014510018
v 0.146027401 0.808228016 0.068914048
v -0.196445584 0.853712082 -0.010699627
v 0.120705999 0.779124439 0.079321764
v -0.204140738 0.625499070 -0.013558747
v -0.202316761 0.662707150 -0.003212314
v 0.103506587 0.699606538 0.072461411
v 0.123296022 0.698083282 0.078629091
v 0.101598404 0.733463883 -0.107295990
v 0.089204587 0.881933212 0.056661911
v -0.019077422 0.669013858 0.056246288
v 0.118293643 0.903744400 0.047317944
v -0.191643730 0.858212352 -0.047691602
v 0.132644445 0.714165151 0.076544553
v 0.119373776 0.818299115 0.074413724
v -0.203425854 0.669907093 -0.017244842
v -0.186275095 0.849511147 -0.067279793
v 0.130373120 0.904146969 0.041756127
v -0.162542135 0.845776737 -0.097106412
v 0.133103266 0.793506026 0.074447379
v -0.062090017 0.766599059 -0.106317736
v 0.092540577 0.716782033 0.071823336
v -0.193206996 0.621172667 -0.030775134
v 0.099870950 0.779997766 0.075201556
v -0.201312900 0.654713571 -0.021717006
v -0.189028159 0.661984980 -0.050580777
v -0.183379501 0.617178082 -0.045539159
v 0.072070047 0.713096321 0.068272576
v 0.109255135 0.797786832 0.079378232
v -0.063734800 0.739107013 -0.104915857
v 0.089695930 0.792940378 0.075159185
v -0.188102126 0.632900119 -0.042542212
v -0.182418302 0.675023973 -0.061822921
v 0.058209401 0.726030469 0.068193197
v -0.078394100 0.754668713 -0.105756998
v -0.176614180 0.623382926 -0.060224354
v 0.019783035 0.786145687 -0.105899610
v 0.089055009 0.812615216 0.070811406
v 0.070449829 0.828106105 0.069175795
v -0.176860183 0.656721950 -0.065484010
v 0.142671674 0.904397190 0.034571134
v 0.020178534 0.682246745 -0.083988488
v 0.021406174 0.668030798 -0.079950400
v -0.158752233 0.619820893 -0.068372801
v 0.153677270 0.904319644 0.025814885
v -0.126640335 0.754038036 -0.109431759
v 0.163444161 0.904205203 0.015829688
v -0.148445532 0.662520051 -0.080422647
v 0.046993501 0.840346336 -0.136573002
v -0.160563320 0.651653409 -0.073602624
v 0.170019716 0.904092312 0.003477810
v 0.033653837 0.706666291 -0.091285162
v 0.036819562 0.723915577 -0.095637418
v -0.139040962 0.741675794 -0.101418100
v 0.173979655 0.902971864 -0.009980420
v -0.144737408 0.758243263 -0.101421557
v -0.106448472 0.869796157 -0.141140729
v -0.041626025 0.869435906 0.062103711
v 0.174994454 0.901252449 -0.023993183
v -0.140572861 0.617761970 -0.074328221
v -0.158554554 0.750486612 -0.093474142
v -0.145683959 0.646871388 -0.078835741
v -0.145770818 0.851931214 -0.109435722
v 0.174515516 0.899897456 -0.037263401
v -0.175320148 0.760092437 -0.087248705
v 0.033286370 0.655154645 -0.076740824
v -0.123472512 0.619455814 -0.079808198
v -0.187444478 0.753934264 -0.070756420
v 0.173526898 0.898888886 -0.051833086
v -0.133025795 0.839749932 -0.115225017
v 0.172489509 0.897646606 -0.066930279
v -0.198179781 0.769133449 -0.056964040
v -0.132173479 0.651917875 -0.084739119
v 0.180614576 0.732728124 0.060638316
v 0.166732147 0.896213889 -0.081018128
v -0.208409756 0.759168148 -0.042623658
v 0.047469422 0.739111960 -0.103445254
v -0.091142461 0.620993257 -0.078056708
v -0.018184839 0.628120124 -0.066834353
v 0.162546128 0.894643426 -0.096157275
v -0.208771110 0.773916364 -0.035163742
v 0.196231946 0.791003048 0.036509328
v -0.019481551 0.697077751 0.060538121
v 0.142228991 0.890147030 -0.120969854
v 0.192283645 0.769816756 0.046847116
v -0.067979410 0.770646095 0.071361251
v -0.101389721 0.649108648 -0.088738747
v -0.072981991 0.626469970 -0.073980384
v 0.053168833 0.657995105 -0.079849951
v -0.085911028 0.657278895 -0.086199261
v -0.055788338 0.640413940 -0.074478790
v -0.053348310 0.623224378 -0.068628773
v 0.074199036 0.681614757 -0.090572327
v 0.059649598 0.725632429 -0.098837532
v -0.192428797 0.748577297 0.052023958
v 0.047712632 0.790400147 0.071262628
v 0.038926587 0.772805095 0.067640871
v -0.192097351 0.767845869 0.047704138
v 0.032538392 0.754931331 0.069217116
v -0.026034391 0.756712675 -0.101270452
v 0.097323582 0.713972509 -0.102030396
v -0.175008968 0.778620601 0.063773640
v -0.054288417 0.668603659 -0.083148353
v -0.059116691 0.655135691 -0.080191597
v 0.104279950 0.672781050 -0.095911786
v -0.170792207 0.759391904 0.064708836
v -0.035672583 0.639626980 -0.071332678
v 0.130598038 0.888173282 -0.130610377
v 0.121122465 0.689183176 -0.097203486
v -0.043156210 0.656554043 -0.078349054
v -0.152103618 0.772346497 0.070758387
v -0.038737178 0.679954350 -0.084240139
v 0.115972832 0.886549830 -0.137156561
v -0.024920253 0.660536945 -0.077964589
v 0.112366475 0.652802110 -0.091307923
v -0.198383927 0.636422992 0.006573749
v -0.191535175 0.626178920 0.024970988
v 0.136275053 0.686260104 -0.089453697
v -0.142664850 0.756303966 0.073573552
v -0.127205640 0.766930521 0.078378007
v 0.119842373 0.723272979 -0.106950857
v -0.074911460 0.821274161 0.070181437
v -0.061801523 0.903354347 0.063579485
v -0.114812575 0.747593045 0.078844137
v 0.138147742 0.718802333 -0.096990965
v -0.103979193 0.763514638 0.075604126
v -0.086954683 0.806852698 0.072112314
v 0.172245592 0.724166036 -0.081058346
v -0.089958504 0.748028457 0.073062643
v 0.111231074 0.830197155 -0.119741693
v -0.075922668 0.788808584 0.072512448
v -0.099646650 0.793524861 0.075099453
v 0.186036885 0.718687415 -0.065567411
v -0.091055118 0.777258933 0.074549779
v 0.182026520 0.671609700 -0.061137192
v 0.189768195 0.684120834 -0.053384941
v -0.084030382 0.762408853 0.072512262
v -0.067549877 0.752084792 0.069920801
v -0.112340644 0.780142486 0.079608589
v -0.026444186 0.763439417 0.066264652
v -0.122264683 0.796420574 0.076527327
v -0.111561261 0.810709119 0.077639408
v 0.197936058 0.715889931 -0.048890911
v 0.206631377 0.692567289 -0.025408078
v -0.062820040 0.802399457 0.069026917
v -0.135421008 0.783332467 0.074632600
v -0.041729771 0.699404895 0.062370159
v -0.134659737 0.811902046 0.071003899
v 0.199173048 0.697501540 -0.043608308
v -0.151956692 0.826801598 0.063584737
v 0.206255510 0.691107273 -0.006672592
v -0.175820827 0.798324466 0.061782826
v 0.209333450 0.726391196 -0.010534271
v -0.156972572 0.789544404 0.068267450
v -0.063921757 0.836558819 0.066874251
v -0.175391644 0.817218423 0.056030422
v 0.201644346 0.658716321 -0.003176481
v -0.066345319 0.868831456 0.060000084
v -0.000453375 0.754361689 -0.100560293
v -0.061263092 0.885549068 0.061765172
v -0.185127929 0.820301712 0.038532916
v -0.202308461 0.775436342 0.027194601
v -0.042830668 0.888303578 0.064501807
v -0.000240921 0.768131077 -0.103427842
v -0.091106236 0.904604077 0.056890391
v -0.211071104 0.765422046 0.005550922
v 0.076754533 0.809158325 -0.113972262
v 0.121309951 0.860342681 -0.133730918
v -0.204734445 0.824934006 0.005564069
v -0.076767609 0.903982639 0.061444830
v 0.208957642 0.723875165 0.014429860
v 0.100709960 0.885226250 -0.143120021
v -0.190449521 0.863854766 -0.027666604
v 0.203256875 0.737650990 0.028854609
v -0.210219577 0.777446032 -0.013332020
v -0.209080666 0.797277093 -0.012995379
v -0.205077097 0.815760493 -0.015799817
v 0.084572695 0.884372592 -0.147697479
v 0.210919067 0.769640148 0.009234411
v 0.068125628 0.884070516 -0.149199754
v -0.087729707 0.839228272 0.068922736
v -0.014915422 0.835309982 -0.131465346
v 0.194550112 0.730087638 0.045621783
v 0.051672954 0.884112716 -0.147012413
v 0.061409347 0.870180309 -0.148235425
v 0.198076651 0.652486682 0.019976471
v -0.080197945 0.886298478 0.059891224
v -0.018978944 0.823410511 -0.120051160
v -0.203280568 0.788763344 -0.050810479
v -0.173691928 0.860843539 -0.083751254
v -0.098241195 0.824544430 0.074445218
v 0.034979381 0.884360015 -0.146242887
v -0.191702321 0.786221325 -0.069054179
v 0.018134084 0.884392858 -0.145660549
v -0.162349135 0.787058532 -0.098022163
v 0.181111187 0.659243584 0.051906817
v -0.179029807 0.778415978 -0.088021956
v 0.017829429 0.873239398 -0.145721018
v 0.001105971 0.884298027 -0.145348802
v 0.187887251 0.713671684 0.055408467
v 0.177348956 0.694697797 0.058285821
v 0.082833372 0.781248808 -0.109596908
v 0.017837921 0.878567576 0.065071397
v -0.165627450 0.806210637 -0.097418249
v -0.160059839 0.768750787 -0.096066177
v -0.165579841 0.879607677 -0.092546992
v 0.067539543 0.795669138 -0.109615818
v 0.165641576 0.713547111 0.063995354
v -0.140588984 0.775247633 -0.106487334
v -0.043961890 0.606616378 -0.065930374
v -0.105863854 0.781924367 -0.113291860
v -0.057488389 0.606083095 -0.068933353
v -0.071384475 0.605464637 -0.069129221
v -0.117331937 0.769286931 -0.115399167
v 0.144931078 0.703209400 0.071298294
v 0.157328650 0.689100146 0.065791331
v -0.084813140 0.604318380 -0.072560742
v 0.149171785 0.668204665 0.066325732
v -0.110909522 0.816580594 -0.114242457
v 0.038953766 0.873130679 0.063524373
v 0.024711391 0.861416221 0.062562324
v -0.097983494 0.602917016 -0.076696463
v 0.148132458 0.724338770 0.071306661
v -0.104051128 0.798939109 -0.113435254
v 0.131455123 0.729142070 0.077712610
v 0.136379540 0.682993472 0.073592290
v -0.111472711 0.601657271 -0.079719670
v -0.001045624 0.803963959 0.064283602
v -0.001324051 0.790489554 0.067769967
v -0.087668195 0.784124911 -0.111102678
v -0.124777839 0.601504087 -0.076495215
v -0.075462013 0.824340940 -0.124296710
v -0.095617220 0.768302798 -0.110305883
v -0.137663946 0.601400614 -0.075053021
v -0.149782166 0.602107644 -0.068530470
v -0.162886411 0.602463603 -0.064317316
v -0.049624257 0.780954957 0.070945449
v -0.025171226 0.780688524 0.069902159
v 0.085634060 0.702030897 0.069348924
v 0.088592604 0.685588479 0.068072818
v -0.175782591 0.602910399 -0.059483707
v -0.180391327 0.604111850 -0.046569519
v -0.027154243 0.729548931 0.064541884
v 0.070394121 0.695134699 0.066032708
v 0.051472556 0.706662059 0.064810760
v -0.187496260 0.604840159 -0.034805328
v -0.072021902 0.811933041 -0.113500454
v 0.078496352 0.730030835 0.070988491
v -0.193829089 0.605735481 -0.022590708
v -0.051059358 0.719188333 0.065670468
v 0.030131599 0.705794334 0.062836036
v -0.029775772 0.683758497 0.059394300
v -0.090581737 0.813830078 -0.114119247
v 0.026792178 0.667791486 0.057045363
v -0.063974135 0.700829327 0.064995609
v 0.071725108 0.760962307 0.072620332
v -0.029565331 0.656410396 0.055246510
v -0.051012851 0.659473002 0.057996370
v -0.054260958 0.829767346 -0.128332511
v -0.070010006 0.835715592 -0.135690123
v -0.071199179 0.734528184 0.069977097
v -0.055877816 0.844605327 -0.140898585
v 0.091160417 0.829819083 -0.131832957
v -0.204194307 0.605921865 -0.013701268
v 0.084805518 0.747074604 0.071977593
v -0.072597161 0.663537145 0.061844707
v -0.095701426 0.731633604 0.073238321
v 0.095106974 0.817396283 -0.117045537
v -0.075836569 0.684464216 0.065034956
v -0.086317733 0.701739132 0.068560824
v -0.077048853 0.853988528 0.063610837
v 0.071499929 0.663227499 -0.084625095
v -0.052846301 0.852225661 0.062973782
v 0.103868887 0.751047909 0.075301349
v -0.094474368 0.688199401 0.068940416
v 0.132516339 0.828924775 -0.111008644
v -0.195663869 0.607271373 -0.004229132
v -0.026470687 0.746230185 0.067615792
v 0.090808295 0.655427039 -0.085775331
v -0.188906461 0.607894957 0.022393189
v -0.128091574 0.709833443 0.077839836
v 0.086328320 0.670939982 -0.090056643
v -0.186897889 0.608064771 0.035932232
v -0.108665802 0.698719382 0.072872192
v 0.117209360 0.740037799 0.079932310
v 0.124311566 0.758769333 0.079759508
v 0.125620186 0.844079196 -0.121568263
v -0.177032068 0.608482897 0.045437779
v -0.117317557 0.728150249 0.078508750
v -0.167305648 0.608908653 0.055132717
v -0.128118515 0.691538393 0.077083327
v -0.153735206 0.609244883 0.057097524
v -0.141243026 0.609004378 0.062881589
v -0.137682974 0.724545896 0.074662842
v -0.146993965 0.698802114 0.069917895
v -0.129646078 0.609339833 0.068549201
v 0.141426355 0.747005880 0.074608050
v -0.151378885 0.714798391 0.068836667
v -0.115940906 0.609866083 0.067862310
v -0.103061900 0.610662997 0.062484413
v 0.129848853 0.647050917 -0.083799452
v -0.155051976 0.730604053 0.069036685
v 0.178534597 0.753614068 0.062780008
v 0.130778611 0.660584033 -0.087166600
v 0.159366876 0.875624359 -0.103075087
v -0.089495316 0.611072421 0.058558125
v -0.143924236 0.682900190 0.070100769
v -0.075617179 0.611266494 0.055270188
v 0.133647487 0.874338984 -0.128229126
v -0.061600618 0.611392558 0.052197613
v -0.047412090 0.611344218 0.049661752
v 0.195074841 0.747964680 0.046617217
v 0.143591270 0.843888938 -0.109399900
v -0.033160526 0.611264586 0.047245171
v -0.018869769 0.610910833 0.045658194
v -0.173635244 0.739605784 0.063273773
v -0.016246345 0.620833755 0.055309344
v -0.167822674 0.704640150 0.061922211
v 0.145089433 0.656394124 -0.080546528
v 0.156173974 0.829041958 -0.101194084
v 0.203531384 0.757358432 0.027936738
v -0.190702230 0.729448318 0.053319793
v -0.184016198 0.692167521 0.054651242
v -0.188510090 0.710846782 0.054139305
v -0.040129110 0.737239242 -0.102716468
v 0.160780609 0.652099192 -0.073052727
v 0.210332394 0.766310811 -0.011982510
v 0.152027279 0.858912587 -0.108153246
v 0.014096893 0.770015001 -0.103968047
v -0.051003955 0.753510058 -0.102646485
v 0.067975231 0.740417123 -0.104904853
v -0.048527967 0.739629865 0.068028793
v 0.210830256 0.746465206 0.005024340
v -0.197328404 0.699953616 0.036036413
v -0.207370371 0.731429577 0.019227864
v -0.188323632 0.804642320 0.042239171
v 0.178167567 0.654854119 -0.062918387
v -0.205075502 0.690790534 0.017175611
v 0.124987766 0.883351028 0.048416894
v 0.210069984 0.746874213 -0.020521251
v -0.207293898 0.710909784 0.016593177
v -0.209255695 0.722725272 -0.003466114
v -0.209558442 0.735259771 -0.020715093
v 0.186686248 0.646686077 -0.048757974
v 0.208800122 0.731077254 -0.035061885
v -0.204939991 0.681200266 -0.002667837
v -0.208681613 0.806229591 0.005681538
v 0.161125124 0.845113099 -0.097191468
v -0.031672314 0.902220726 0.066917881
v 0.205481485 0.749802887 -0.045764990
v 0.191373453 0.754272044 -0.064937428
v -0.079733536 0.798658252 -0.111162230
v -0.058318157 0.800538838 -0.109993853
v 0.190820754 0.664915383 -0.048147604
v -0.207545444 0.701219022 -0.008424377
v 0.193858773 0.637546957 -0.034252636
v 0.196628138 0.734295726 -0.054479856
v -0.015904253 0.884624183 -0.145458922
v -0.032768808 0.884669602 -0.146067947
v 0.178606302 0.832886815 -0.087302499
v 0.018231226 0.768291831 0.066447660
v -0.049407739 0.884585202 -0.147085130
v -0.048011117 0.759142756 0.067927904
v 0.185413048 0.735157311 -0.070133194
v 0.175465852 0.743683696 -0.083569944
v -0.065670855 0.884647012 -0.149296850
v 0.175799042 0.852109730 -0.083939135
v -0.205395907 0.683681130 -0.024065774
v -0.082313433 0.884969592 -0.148150489
v -0.087703705 0.866747677 -0.147002369
v -0.205625415 0.805499673 -0.036146499
v -0.098348379 0.885925293 -0.144192040
v -0.113464400 0.887472987 -0.138415977
v 0.155669689 0.733226657 -0.091268644
v -0.201260597 0.729047835 -0.047836229
v -0.196230322 0.807688117 -0.062068772
v -0.182970971 0.817408085 -0.082902342
v -0.204701111 0.697438776 -0.037066586
v 0.187586695 0.842926025 -0.067221656
v 0.170999765 0.881917000 -0.074576542
v -0.193845391 0.649581969 -0.038918342
v 0.052098174 0.758163989 0.070699647
v 0.135755822 0.735330224 -0.101558425
v -0.063723475 0.783728480 -0.108781323
v -0.187735900 0.736525416 -0.067800604
v 0.179146007 0.879631400 -0.058766793
v -0.077640824 0.771476924 -0.108722292
v -0.182608709 0.643782973 -0.054839753
v 0.120310545 0.739968359 -0.109842643
v -0.189971328 0.691977203 -0.055281918
v -0.171706334 0.688619316 -0.074384317
v 0.182369232 0.879377842 -0.040544994
v -0.183822483 0.703447580 -0.065719344
v -0.172587931 0.725405693 -0.081732877
v 0.198317677 0.846535087 -0.026419934
v -0.165905431 0.669584632 -0.073884152
v -0.018110681 0.677649140 -0.082218267
v 0.081808940 0.728155971 -0.102872230
v -0.127809718 0.889444351 -0.132270128
v -0.140147299 0.891655564 -0.123006031
v -0.155556321 0.733148634 -0.091804273
v -0.153598607 0.715605557 -0.089065574
v -0.153015643 0.697686315 -0.085318506
v -0.151236191 0.679973245 -0.081739888
v -0.128499314 0.805755615 -0.113669232
v 0.069930531 0.793412268 0.072973445
v 0.200544238 0.657235742 -0.029996451
v -0.161027655 0.896545112 -0.098722026
v -0.166262656 0.898396373 -0.083711706
v 0.204065651 0.674762249 -0.017787756
v -0.002145809 0.606056094 -0.065220624
v -0.172151193 0.899950206 -0.069584109
v 0.197592080 0.852170825 -0.001921746
v -0.173465624 0.901309371 -0.054410726
v -0.173882186 0.902417779 -0.039888766
v -0.173936248 0.903698564 -0.026543286
v 0.209404826 0.764530063 -0.032605566
v 0.180674762 0.885147452 -0.025762837
v -0.173257709 0.905604482 -0.012484772
v -0.168694824 0.906176269 0.000884340
v -0.162145481 0.906484962 0.013275318
v 0.050087709 0.769941211 -0.105830252
v -0.152926490 0.906540036 0.023819087
v 0.182467908 0.883661926 -0.008720673
v -0.141498372 0.906596065 0.032130621
v -0.133541048 0.670019031 -0.087962076
v 0.189040452 0.847237766 0.021776114
v 0.017288655 0.712163091 -0.091412656
v -0.001118788 0.700794220 -0.089285649
v -0.000988505 0.714628935 -0.091491863
v 0.147629470 0.874616742 -0.116922639
v -0.134553924 0.687925220 -0.091086656
v -0.000810582 0.727902949 -0.095894992
v -0.135788873 0.723930180 -0.099645294
v 0.015599187 0.727325261 -0.095778316
v -0.000649604 0.740419865 -0.102185167
v -0.129884362 0.906371772 0.040429853
v 0.161936224 0.754477859 -0.092039444
v 0.175054297 0.885770798 0.008342979
v -0.117474854 0.677079916 -0.095935039
v -0.117909238 0.905865848 0.046245832
v -0.105016135 0.905178547 0.051883787
v 0.166359097 0.875215530 0.028766245
v 0.046888076 0.827109337 -0.124484837
v -0.135193795 0.705766261 -0.095589973
v -0.115918778 0.734142721 -0.110933408
v 0.162622333 0.890783966 0.018685255
v -0.117222622 0.695034862 -0.100874446
v 0.178232312 0.839793205 0.040719230
v -0.098058358 0.685382366 -0.097092949
v -0.001867150 0.749465346 0.067873694
v -0.097714007 0.888596237 0.054628961
v 0.138831541 0.890982509 0.040132798
v 0.146381363 0.878325105 0.046885636
v 0.151743203 0.889096618 0.031428292
v -0.082579263 0.675761342 -0.090455517
v -0.096026070 0.703406334 -0.099947184
v -0.077255398 0.693317652 -0.094115652
v 0.046912957 0.675763249 0.060259245
v -0.095409274 0.721412659 -0.103293858
v 0.051477008 0.855743766 -0.143250436
v -0.073898397 0.710864961 -0.097116038
v 0.027038652 0.849087238 -0.140204579
v -0.037771009 0.821439922 -0.119033538
v -0.035290200 0.836865544 -0.133591399
v 0.202151299 0.670291662 0.017269861
v 0.188309103 0.678928673 0.048337441
v -0.049548395 0.701211333 -0.091880426
v -0.053952742 0.722309828 -0.096663341
v -0.150882155 0.894133747 -0.111113928
v 0.165880680 0.850034714 0.049525857
v 0.145929247 0.847260118 0.059286796
v -0.195991978 0.620891571 0.004576839
v 0.161608934 0.653146684 0.059168994
v 0.169022515 0.673885465 0.058919489
v -0.193406194 0.607388616 0.009390107
v 0.131825417 0.863115907 0.056193024
v -0.033901956 0.621252835 -0.066210300
v -0.030090651 0.606665611 -0.066376925
v 0.014487883 0.650754571 0.053410284
v -0.016202150 0.606530368 -0.064905159
v -0.005378197 0.898449123 0.075968139
v 0.067513093 0.846935391 -0.143183887
v -0.016627099 0.901843548 0.067627713
v -0.020778921 0.643374383 0.052336596
v 0.129329115 0.663098752 0.074505188
v 0.033684157 0.888609231 0.065549202
v 0.083139956 0.628876686 0.060127765
v 0.071871340 0.641181767 0.059245825
v 0.103681266 0.638630986 0.066561207
v 0.049462870 0.810333252 -0.113210380
v 0.123007178 0.642929316 0.074158356
v 0.054174028 0.643380582 0.056399100
v 0.193357006 0.634719014 0.023884585
v 0.124326147 0.840073466 0.066640809
v 0.111553028 0.854417801 0.064208180
v 0.185023978 0.867518902 0.010515063
v 0.107706711 0.657350361 0.069662198
v 0.189699024 0.866347909 -0.020163637
v 0.191214055 0.859218419 -0.046754874
v 0.051621776 0.886482060 0.063232921
v 0.089515500 0.667365551 0.066147193
v 0.110946320 0.678888202 0.072726600
v 0.180035323 0.863619685 -0.068948202
v 0.167649582 0.870703220 -0.085702457
v 0.088361330 0.648846447 0.063774571
v 0.162758097 0.860251307 -0.095321164
v 0.182390526 0.628820539 -0.049890961
v 0.168385178 0.635154486 -0.067274041
v 0.068420649 0.675595760 0.063231781
v 0.143309817 0.635815620 -0.076165512
v 0.137280077 0.858650565 -0.120411173
v 0.070489839 0.657227576 0.061123569
v 0.112657726 0.718464315 0.076547064
v 0.142769307 0.647153020 0.066855982
v 0.174542114 0.639960945 0.052061088
v 0.187842712 0.646261036 0.037660740
v 0.207999513 0.712186813 -0.030530116
v 0.155697018 0.712446213 -0.086864866
v 0.049914945 0.660128474 0.058285236
v 0.138388142 0.701714337 -0.092634618
v 0.199502766 0.642583728 -0.014390213
v 0.198772565 0.639857411 0.005486901
v 0.036517452 0.688918233 0.060970545
v 0.012143685 0.705978215 0.061963022
v 0.092447743 0.859414220 0.062547512
v 0.069479212 0.885291874 0.061187290
v 0.017800905 0.721898675 0.064748310
v 0.036316652 0.804321587 0.065212987
v 0.022818876 0.786572218 0.070063815
v 0.021304620 0.640051246 -0.070256852
v 0.058595400 0.869847000 0.061642468
v 0.038470756 0.672242284 -0.082445987
v 0.033559553 0.847308815 0.063386098
v 0.047413021 0.856658578 0.063111693
v 0.015785303 0.846595645 0.062741458
v 0.035400957 0.624464333 -0.067222983
v 0.056617327 0.676887810 -0.086245768
v 0.080097780 0.777798235 0.072217233
v 0.199097946 0.717546761 0.034908962
v 0.198732466 0.793567419 -0.058216274
v 0.058116533 0.623643041 -0.069689974
v 0.172803670 0.704965949 -0.076722816
v 0.126762152 0.770654798 -0.111792445
v 0.120460190 0.706456125 -0.102148667
v 0.081850938 0.621755600 -0.074392013
v 0.051870696 0.709489584 -0.093641773
v 0.038722664 0.755001485 -0.101699866
v 0.118392155 0.633491158 -0.084003709
v 0.103815958 0.618869960 -0.081205055
v 0.102425873 0.863475442 -0.141161948
v 0.076431617 0.868847549 0.060791701
v 0.071273312 0.849728703 0.065348655
v 0.127121687 0.617078364 -0.077872917
v 0.027928058 0.833172202 0.064635977
v 0.044975020 0.821594596 0.066804074
v 0.080714524 0.863135815 -0.146532685
v 0.149986178 0.617281854 -0.070349783
v 0.180235475 0.762657106 -0.082862586
v 0.024159359 0.803111434 -0.109808110
v 0.170958042 0.666846156 -0.070724688
v 0.170638815 0.616323411 -0.063119188
v 0.018482761 0.696838498 -0.088638075
v 0.182685241 0.612993836 -0.049429961
v 0.031545993 0.771450877 -0.104871310
v 0.190524027 0.618309140 -0.033692352
v 0.197435886 0.627947390 -0.021286976
v 0.065131262 0.743826747 0.068905942
v 0.108075857 0.844178200 -0.135312274
v 0.087853462 0.846204758 -0.141206101
v 0.019291913 0.754947662 -0.100821063
v 0.198237807 0.625362933 -0.004881265
v 0.123928823 0.672965169 -0.092209391
v 0.204134077 0.676427603 0.000275597
v 0.192550510 0.665237427 0.034465864
v 0.157592207 0.672080398 -0.077335559
v 0.141716331 0.673173249 -0.084447749
v 0.183322102 0.625774026 0.040063571
v 0.162543640 0.835518062 0.059665233
v 0.199747965 0.832014263 0.012906604
v 0.200257093 0.677972913 -0.037357584
v 0.046272799 0.640669465 -0.072538272
v 0.155450523 0.630202413 0.059451472
v 0.090615422 0.763730168 0.074839927
v 0.205732435 0.688817561 0.012297095
v 0.197691992 0.684126735 0.030422162
v 0.090759672 0.684144855 -0.094335541
v 0.136676997 0.625865757 0.067520685
v 0.118923090 0.811172009 -0.116165861
v -0.001692924 0.763226748 0.065642551
v -0.002390050 0.694472671 0.059838902
v 0.054861568 0.688769937 0.062999256
v 0.116556466 0.625024855 0.070673987
v 0.144630417 0.814533532 -0.106366441
v -0.002077037 0.736113667 0.063758537
v -0.001483630 0.776681304 0.069201931
v 0.099734932 0.622429013 0.064125322
v 0.021278528 0.818006992 0.065441236
v -0.000824850 0.817867458 0.064942442
v 0.109487072 0.871050656 0.055945329
v 0.062528580 0.627371550 0.055406578
v 0.106404424 0.888663948 0.052179713
v 0.195719212 0.621394217 0.011194006
v 0.107481226 0.766417086 0.077760123
v 0.037144352 0.866518617 -0.145678952
v 0.041440271 0.628272295 0.051987190
v 0.068336174 0.833998561 -0.133652970
v 0.018722186 0.631151021 0.049835946
v 0.034170933 0.646922290 0.054328244
v 0.042977646 0.789842010 -0.107133552
v 0.015490656 0.802559376 0.064357437
v 0.016346425 0.686520338 0.059100855
v -0.002503656 0.680594444 0.057784200
v -0.002182954 0.722131550 0.064142168
v 0.197126687 0.614433467 -0.016198266
v -0.002263542 0.708281398 0.062155880
v 0.071341708 0.642509282 -0.077339180
v 0.088402972 0.745780528 -0.106821559
v 0.107917070 0.755703747 -0.111352608
v 0.158644289 0.761214435 0.069009319
v 0.098689720 0.733691633 0.074276023
v 0.162198633 0.739363790 0.067847781
v 0.095826723 0.637207270 -0.082508244
v 0.191965818 0.617993236 0.026875174
f 555 540 123
f 389 162 497
f 567 540 568
f 583 104 251
f 463 489 430
f 453 94 255
f 483 484 162
f 446 640 671
f 574 577 251
f 50 244 238
f 52 244 50
f 575 57 53
f 55 249 52
f 55 2 250
f 577 248 563
f 575 437 432
f 57 597 589
f 2 265 262
f 589 592 57
f 262 259 2
f 5 267 262
f 602 606 589
f 5 9 11
f 58 606 610
f 11 272 5
f 12 278 11
f 565 793 8
f 630 60 632
f 13 425 12
f 424 289 160
f 289 424 13
f 643 649 60
f 181 403 179
f 483 206 484
f 163 651 174
f 53 563 558
f 651 65 650
f 163 389 384
f 683 66 65
f 455 558 563
f 165 384 171
f 340 331 34
f 67 66 683
f 206 470 63
f 385 102 856
f 67 702 70
f 344 340 696
f 179 403 406
f 710 70 702
f 16 352 14
f 111 112 59
f 63 64 655
f 18 368 16
f 710 742 753
f 119 112 111
f 394 671 545
f 551 922 903
f 19 375 18
f 753 740 711
f 406 470 179
f 261 615 108
f 545 453 439
f 178 386 530
f 24 386 23
f 72 753 742
f 26 396 24
f 768 765 72
f 119 142 112
f 32 63 470
f 112 142 161
f 399 400 396
f 154 343 182
f 545 671 448
f 399 415 400
f 768 770 765
f 32 406 410
f 418 415 399
f 770 183 777
f 387 300 166
f 415 418 422
f 105 86 299
f 169 42 839
f 170 142 119
f 173 172 705
f 329 638 343
f 134 738 737
f 185 638 329
f 692 661 145
f 150 74 741
f 637 345 873
f 132 145 661
f 170 184 142
f 138 495 760
f 138 136 188
f 136 194 188
f 201 87 194
f 270 87 205
f 216 49 210
f 46 216 724
f 198 184 170
f 43 96 907
f 219 39 218
f 45 43 41
f 224 37 219
f 498 224 514
f 86 105 342
f 225 36 514
f 378 107 110
f 80 233 107
f 22 41 43
f 198 217 849
f 41 581 45
f 103 233 76
f 76 40 103
f 222 217 214
f 678 100 40
f 98 41 22
f 366 41 98
f 40 76 678
f 215 4 284
f 215 98 21
f 537 536 92
f 222 234 217
f 904 537 92
f 460 462 30
f 284 471 366
f 222 239 246
f 586 903 759
f 462 28 30
f 246 234 222
f 454 449 28
f 237 391 924
f 560 319 921
f 246 888 252
f 431 471 282
f 455 560 391
f 319 560 241
f 50 238 793
f 50 566 52
f 52 574 55
f 258 263 510
f 244 52 249
f 55 253 2
f 284 792 657
f 303 670 667
f 303 100 674
f 250 249 55
f 273 274 252
f 251 253 574
f 100 303 301
f 301 570 100
f 104 261 257
f 677 100 678
f 273 285 274
f 257 2 253
f 2 257 265
f 250 2 259
f 570 568 40
f 752 292 293
f 294 296 285
f 285 296 274
f 684 497 679
f 277 274 296
f 440 447 442
f 579 489 463
f 692 329 695
f 259 262 267
f 871 736 360
f 262 271 9
f 40 100 570
f 570 567 568
f 203 128 270
f 310 296 294
f 305 296 310
f 87 270 194
f 9 5 262
f 5 272 600
f 276 9 271
f 9 276 11
f 272 11 278
f 302 323 310
f 568 103 40
f 108 615 89
f 280 11 276
f 11 280 12
f 103 568 540
f 278 12 425
f 323 337 328
f 283 12 280
f 12 283 13
f 283 297 289
f 289 13 283
f 540 561 231
f 425 13 424
f 209 288 205
f 291 125 286
f 346 337 323
f 49 304 288
f 173 350 351
f 297 654 314
f 347 158 864
f 304 47 311
f 47 304 49
f 47 46 481
f 360 361 855
f 501 684 146
f 481 311 47
f 46 39 481
f 343 695 329
f 314 289 297
f 289 314 160
f 481 321 308
f 481 39 321
f 325 122 321
f 325 321 37
f 37 321 39
f 333 160 314
f 324 266 333
f 527 107 231
f 84 121 325
f 36 327 498
f 160 333 34
f 327 120 84
f 36 82 371
f 277 393 390
f 689 34 333
f 34 689 340
f 313 34 331
f 266 334 689
f 334 260 341
f 340 335 331
f 107 527 110
f 54 404 405
f 696 14 344
f 61 401 44
f 38 299 407
f 358 14 348
f 14 358 16
f 344 14 352
f 356 704 712
f 352 16 368
f 413 62 417
f 370 16 358
f 16 370 18
f 175 705 134
f 713 115 110
f 371 27 378
f 27 371 82
f 381 18 370
f 18 381 19
f 368 18 375
f 80 378 27
f 19 381 235
f 19 395 23
f 19 23 178
f 202 506 913
f 23 395 24
f 386 24 396
f 398 24 395
f 24 398 26
f 26 398 220
f 26 412 399
f 396 26 399
f 418 399 412
f 164 180 444
f 444 443 164
f 175 173 705
f 685 84 120
f 422 300 415
f 685 121 84
f 172 169 300
f 172 300 422
f 78 80 27
f 226 365 78
f 89 615 114
f 240 485 309
f 134 737 175
f 226 27 82
f 245 459 452
f 187 186 140
f 243 459 245
f 189 187 130
f 581 466 579
f 467 472 637
f 308 122 240
f 138 579 466
f 430 255 463
f 499 435 430
f 453 430 435
f 435 440 439
f 435 499 450
f 243 479 281
f 308 321 122
f 897 438 584
f 439 453 435
f 243 281 893
f 450 440 435
f 480 859 865
f 440 449 447
f 442 439 440
f 450 449 440
f 447 449 454
f 492 488 493
f 127 458 456
f 449 456 28
f 82 225 708
f 454 28 462
f 28 456 30
f 456 450 127
f 30 456 458
f 225 82 36
f 30 464 460
f 506 507 502
f 126 469 125
f 287 508 509
f 207 507 506
f 410 460 32
f 126 306 477
f 460 464 644
f 644 32 460
f 32 644 63
f 475 31 576
f 470 406 32
f 64 63 644
f 306 309 477
f 125 464 458
f 528 795 511
f 516 523 524
f 655 206 63
f 206 655 484
f 206 474 470
f 162 679 497
f 316 322 822
f 313 160 34
f 37 498 325
f 523 316 534
f 497 684 501
f 501 146 505
f 146 512 503
f 505 503 513
f 263 515 510
f 512 120 115
f 503 512 91
f 517 513 503
f 115 713 91
f 458 203 125
f 315 547 548
f 91 512 115
f 547 330 336
f 91 713 88
f 517 88 522
f 552 548 547
f 532 88 713
f 88 532 519
f 552 336 553
f 522 519 541
f 527 231 561
f 127 128 458
f 538 660 692
f 514 36 498
f 224 498 37
f 538 692 695
f 114 626 631
f 553 342 105
f 219 37 39
f 555 660 561
f 127 450 499
f 891 199 824
f 660 555 661
f 218 39 46
f 199 97 886
f 366 98 284
f 22 21 98
f 41 366 581
f 43 232 22
f 907 232 43
f 96 536 907
f 45 463 255
f 45 581 463
f 255 94 96
f 255 96 45
f 94 453 545
f 448 546 545
f 582 593 594
f 595 584 438
f 216 46 47
f 216 47 49
f 551 640 558
f 558 640 569
f 49 288 209
f 793 565 50
f 569 53 558
f 566 50 565
f 209 210 49
f 841 351 350
f 574 52 566
f 578 53 57
f 612 609 423
f 53 578 563
f 575 53 569
f 597 432 211
f 253 55 574
f 57 575 597
f 578 57 592
f 592 583 578
f 627 609 612
f 584 621 628
f 603 589 606
f 602 589 597
f 634 819 627
f 610 606 602
f 835 318 229
f 626 606 58
f 610 624 58
f 58 624 630
f 632 58 630
f 634 884 869
f 58 632 626
f 60 642 632
f 642 60 649
f 60 630 181
f 650 649 643
f 662 652 645
f 656 628 621
f 621 636 656
f 658 659 204
f 64 644 469
f 466 495 138
f 694 377 700
f 468 471 431
f 663 650 65
f 628 656 668
f 679 162 484
f 65 686 663
f 672 673 659
f 686 65 66
f 683 65 651
f 468 431 478
f 683 693 67
f 685 146 684
f 146 685 512
f 696 340 689
f 66 67 701
f 473 495 478
f 66 698 686
f 702 67 693
f 668 675 687
f 701 698 66
f 405 690 54
f 701 67 70
f 54 690 564
f 14 696 348
f 711 70 710
f 699 70 711
f 702 709 710
f 229 318 236
f 657 282 471
f 710 709 742
f 753 756 740
f 756 753 72
f 742 754 72
f 72 754 768
f 72 765 756
f 766 765 770
f 490 193 496
f 130 772 496
f 770 776 766
f 15 719 168
f 87 201 148
f 183 770 768
f 201 194 136
f 422 705 172
f 633 777 338
f 777 633 150
f 408 74 633
f 638 185 408
f 106 730 258
f 688 379 694
f 275 631 118
f 185 692 145
f 197 750 749
f 736 737 738
f 263 258 730
f 738 741 743
f 185 145 143
f 743 741 744
f 744 741 74
f 744 467 879
f 132 140 145
f 123 132 661
f 741 738 150
f 123 540 567
f 773 772 567
f 738 134 150
f 78 27 226
f 238 623 1
f 264 279 779
f 776 150 134
f 134 705 420
f 695 541 538
f 104 599 261
f 365 681 680
f 761 762 763
f 365 678 76
f 76 78 365
f 411 156 420
f 156 411 220
f 541 519 538
f 220 764 156
f 76 233 78
f 80 78 233
f 168 789 387
f 70 699 701
f 398 395 228
f 434 437 445
f 779 780 887
f 428 432 434
f 926 317 706
f 197 749 745
f 213 6 4
f 279 785 780
f 419 427 428
f 148 201 745
f 454 462 419
f 526 782 783
f 381 734 235
f 410 414 419
f 493 769 913
f 511 4 215
f 4 511 213
f 406 414 410
f 208 731 729
f 21 511 215
f 210 728 727
f 794 800 823
f 511 21 529
f 470 474 179
f 724 218 46
f 227 110 115
f 118 280 275
f 219 218 722
f 806 800 794
f 803 804 256
f 716 778 225
f 224 219 720
f 407 86 690
f 356 734 381
f 389 497 380
f 809 795 528
f 810 806 811
f 717 716 514
f 497 501 380
f 317 697 429
f 810 818 821
f 913 771 202
f 341 698 699
f 373 376 159
f 369 177 373
f 341 260 698
f 260 334 266
f 365 226 681
f 517 522 354
f 828 821 818
f 354 362 364
f 569 640 446
f 519 522 88
f 767 828 818
f 266 324 676
f 602 597 211
f 804 834 256
f 121 240 122
f 345 868 918
f 610 602 211
f 169 839 166
f 427 195 211
f 643 179 174
f 683 651 165
f 693 683 171
f 627 884 634
f 324 654 676
f 846 397 841
f 841 397 374
f 362 709 369
f 580 397 846
f 192 188 190
f 192 499 489
f 128 192 190
f 270 205 203
f 205 288 286
f 291 306 126
f 208 148 733
f 288 304 291
f 304 311 306
f 311 481 308
f 286 125 203
f 283 118 297
f 589 599 592
f 283 280 118
f 227 115 120
f 747 805 732
f 707 226 82
f 107 378 80
f 275 114 631
f 118 646 297
f 89 114 275
f 231 233 103
f 87 209 205
f 816 872 870
f 271 108 89
f 248 560 455
f 248 241 560
f 108 271 265
f 566 565 241
f 86 876 690
f 622 244 619
f 517 91 88
f 574 566 248
f 715 662 889
f 244 249 618
f 249 250 614
f 882 465 718
f 253 251 257
f 774 465 882
f 250 259 608
f 883 494 774
f 921 391 560
f 259 267 604
f 54 564 847
f 251 577 583
f 600 267 5
f 89 276 271
f 503 91 517
f 690 405 407
f 275 276 89
f 892 573 582
f 272 278 596
f 248 577 574
f 280 276 275
f 425 588 591
f 425 424 781
f 781 313 572
f 424 313 781
f 572 585 781
f 314 654 324
f 136 197 201
f 313 557 572
f 237 551 558
f 554 331 335
f 334 341 348
f 760 136 138
f 335 344 549
f 341 699 704
f 348 696 334
f 921 319 7
f 358 348 704
f 344 352 544
f 912 582 594
f 903 586 551
f 352 368 543
f 381 370 356
f 368 375 539
f 788 8 3
f 535 375 178
f 221 795 809
f 828 767 562
f 559 833 920
f 921 920 899
f 546 448 898
f 903 922 836
f 38 903 299
f 235 228 395
f 405 669 407
f 546 92 94
f 400 518 520
f 92 546 904
f 639 35 926
f 386 396 525
f 927 926 33
f 928 605 930
f 200 490 298
f 94 545 546
f 96 92 536
f 927 56 852
f 143 472 408
f 220 412 26
f 400 520 521
f 412 220 411
f 109 113 152
f 920 832 559
f 418 412 411
f 152 113 746
f 387 789 786
f 420 418 411
f 746 161 867
f 418 420 422
f 490 773 298
f 496 772 773
f 394 442 445
f 562 767 832
f 739 636 820
f 204 725 658
f 773 490 496
f 725 223 635
f 447 454 428
f 472 186 637
f 215 284 98
f 189 130 496
f 458 464 30
f 410 462 460
f 125 469 464
f 635 247 487
f 487 269 629
f 641 487 629
f 268 269 487
f 269 393 629
f 390 269 268
f 469 126 64
f 349 761 763
f 655 64 477
f 303 674 670
f 290 393 277
f 611 290 928
f 163 474 483
f 928 307 605
f 635 641 648
f 531 605 533
f 677 674 100
f 477 309 485
f 506 202 207
f 679 485 240
f 240 121 684
f 312 912 594
f 684 679 240
f 121 685 684
f 186 187 345
f 503 505 146
f 912 332 892
f 772 130 132
f 685 120 512
f 501 505 159
f 725 648 658
f 505 513 373
f 513 517 364
f 892 847 564
f 110 527 713
f 714 847 339
f 522 541 154
f 51 714 346
f 231 103 540
f 714 51 404
f 541 695 343
f 567 772 123
f 502 500 506
f 578 577 563
f 867 659 673
f 577 578 583
f 597 575 432
f 592 104 583
f 913 492 493
f 845 167 839
f 599 104 592
f 386 178 23
f 599 603 615
f 110 227 378
f 615 261 599
f 706 402 639
f 603 626 114
f 132 123 772
f 624 610 195
f 409 706 317
f 746 673 682
f 114 615 603
f 120 327 227
f 624 414 403
f 691 429 697
f 642 631 632
f 642 118 631
f 429 433 853
f 646 118 642
f 642 649 646
f 152 682 691
f 682 433 691
f 181 643 60
f 654 297 646
f 122 325 121
f 140 130 187
f 421 416 617
f 123 661 555
f 309 308 240
f 698 260 686
f 702 693 177
f 698 701 699
f 672 441 436
f 291 126 125
f 109 691 697
f 143 140 186
f 874 872 816
f 665 441 672
f 188 192 489
f 665 658 653
f 712 704 699
f 653 451 665
f 927 697 317
f 712 740 734
f 648 461 653
f 178 375 19
f 923 880 116
f 641 461 648
f 740 756 748
f 748 758 228
f 926 706 639
f 479 641 482
f 754 742 362
f 354 754 362
f 407 669 38
f 203 458 128
f 482 629 620
f 756 765 758
f 182 754 154
f 128 127 192
f 254 246 252
f 611 382 620
f 764 398 228
f 499 192 127
f 764 766 156
f 766 776 156
f 930 611 928
f 420 156 776
f 140 132 130
f 788 7 8
f 387 166 168
f 420 776 134
f 136 760 197
f 300 387 415
f 750 197 760
f 745 201 197
f 148 208 209
f 733 148 745
f 258 35 106
f 593 533 605
f 731 208 733
f 236 318 910
f 729 210 208
f 728 210 729
f 727 216 210
f 188 489 579
f 929 573 556
f 724 216 727
f 573 929 582
f 723 218 724
f 722 218 723
f 720 219 722
f 717 224 720
f 514 224 717
f 188 579 138
f 876 556 573
f 707 681 226
f 898 904 546
f 472 143 186
f 212 795 221
f 899 391 921
f 854 925 931
f 213 795 212
f 140 143 145
f 404 54 714
f 833 922 924
f 415 387 786
f 143 408 185
f 238 3 793
f 1 3 238
f 31 799 752
f 622 238 244
f 918 799 515
f 380 376 171
f 915 752 357
f 617 476 421
f 619 244 618
f 618 249 616
f 616 249 614
f 636 739 613
f 388 613 10
f 614 250 608
f 357 791 915
f 383 688 388
f 608 259 607
f 571 438 576
f 295 667 666
f 92 96 94
f 607 259 604
f 372 726 700
f 667 295 303
f 367 726 372
f 604 267 601
f 298 295 207
f 923 875 880
f 363 732 367
f 408 467 74
f 148 209 87
f 298 301 295
f 359 747 363
f 601 267 600
f 359 355 755
f 600 272 598
f 598 272 596
f 353 755 355
f 301 298 773
f 596 278 591
f 747 755 751
f 591 278 425
f 588 425 781
f 388 688 813
f 769 771 913
f 763 353 349
f 202 771 200
f 506 500 913
f 74 467 744
f 773 570 301
f 82 708 707
f 320 647 326
f 500 492 913
f 331 554 557
f 242 910 320
f 344 335 340
f 910 908 647
f 554 335 550
f 239 222 703
f 549 550 335
f 549 344 544
f 166 167 168
f 544 352 543
f 543 368 542
f 17 15 167
f 17 845 157
f 907 536 919
f 157 850 155
f 155 850 153
f 542 368 539
f 150 633 74
f 153 854 151
f 151 854 149
f 149 858 147
f 147 862 144
f 539 375 535
f 759 903 38
f 530 535 178
f 144 862 141
f 141 866 139
f 139 866 137
f 530 386 525
f 137 870 135
f 525 396 521
f 135 870 872
f 133 872 131
f 131 874 129
f 129 923 117
f 923 874 875
f 170 119 902
f 521 396 400
f 20 932 101
f 99 101 932
f 99 886 97
f 95 97 199
f 95 891 93
f 93 896 90
f 518 400 786
f 90 896 85
f 85 901 83
f 83 905 81
f 169 166 300
f 81 905 79
f 77 79 796
f 77 909 75
f 439 394 545
f 75 914 73
f 73 914 71
f 71 916 69
f 442 394 439
f 468 466 366
f 442 447 434
f 7 562 920
f 794 534 811
f 924 899 833
f 434 447 428
f 428 454 419
f 419 462 410
f 38 898 759
f 902 111 897
f 466 468 495
f 526 524 534
f 25 59 56
f 96 43 45
f 895 401 61
f 182 343 338
f 483 389 163
f 483 162 389
f 897 59 25
f 883 894 775
f 776 777 150
f 59 897 111
f 380 384 389
f 774 882 893
f 111 902 119
f 778 708 225
f 501 159 380
f 167 166 839
f 159 505 373
f 176 191 867
f 373 513 369
f 364 369 513
f 850 890 925
f 354 364 517
f 354 522 154
f 177 369 709
f 154 541 343
f 446 445 437
f 376 380 159
f 204 223 725
f 217 198 214
f 214 703 222
f 437 569 446
f 610 211 195
f 414 624 195
f 403 630 624
f 889 718 715
f 160 313 424
f 181 630 403
f 888 246 239
f 179 643 181
f 174 650 643
f 651 650 174
f 163 384 165
f 487 247 268
f 165 651 163
f 171 683 165
f 174 474 163
f 557 313 331
f 475 515 799
f 376 693 171
f 285 273 757
f 177 693 376
f 627 885 884
f 174 179 474
f 509 508 516
f 294 302 310
f 709 702 177
f 709 362 742
f 154 754 354
f 182 338 183
f 780 785 803
f 183 768 182
f 423 413 881
f 183 338 777
f 638 338 343
f 633 638 408
f 590 401 895
f 692 185 329
f 190 188 194
f 515 475 25
f 270 190 194
f 190 270 128
f 195 427 414
f 7 788 562
f 915 878 571
f 877 595 438
f 203 205 286
f 44 48 61
f 474 206 483
f 210 209 208
f 61 62 895
f 413 895 62
f 211 432 427
f 172 42 169
f 398 764 220
f 515 263 918
f 437 575 569
f 228 758 764
f 124 885 426
f 175 871 350
f 84 498 327
f 225 514 716
f 327 371 227
f 918 263 730
f 898 448 759
f 371 327 36
f 839 374 890
f 227 371 378
f 451 441 665
f 228 235 748
f 444 180 457
f 233 231 107
f 187 868 345
f 759 448 586
f 189 292 868
f 734 748 235
f 653 461 826
f 924 922 237
f 292 193 196
f 446 671 394
f 461 641 479
f 922 551 237
f 391 237 455
f 482 641 629
f 918 868 799
f 196 200 293
f 771 293 200
f 558 455 237
f 281 287 894
f 894 893 281
f 248 566 241
f 257 251 104
f 255 430 453
f 257 261 265
f 509 775 287
f 260 266 676
f 509 516 524
f 265 261 108
f 523 516 531
f 322 316 523
f 273 252 888
f 265 271 262
f 811 534 316
f 316 315 811
f 676 686 260
f 366 466 581
f 478 495 468
f 330 547 315
f 547 336 552
f 366 471 468
f 760 495 473
f 657 471 284
f 336 342 553
f 553 900 552
f 832 900 553
f 865 878 791
f 792 284 4
f 31 571 576
f 286 288 291
f 438 571 877
f 906 864 863
f 4 790 792
f 8 7 319
f 303 295 301
f 291 304 306
f 570 773 567
f 739 617 392
f 617 416 392
f 306 311 309
f 309 311 308
f 170 628 668
f 613 739 10
f 739 392 10
f 656 675 668
f 656 815 675
f 680 678 365
f 813 613 388
f 324 333 314
f 687 198 668
f 379 688 383
f 295 666 207
f 815 656 636
f 377 694 379
f 325 498 84
f 689 333 266
f 334 696 689
f 700 377 372
f 861 834 860
f 703 721 239
f 732 726 367
f 834 861 256
f 348 341 704
f 747 732 363
f 356 358 704
f 735 888 721
f 370 358 356
f 735 264 757
f 735 273 888
f 755 747 359
f 369 364 362
f 353 763 755
f 647 761 326
f 761 349 326
f 376 373 177
f 779 757 264
f 780 779 279
f 384 380 171
f 235 395 19
f 736 871 737
f 562 788 917
f 910 647 320
f 785 804 803
f 414 406 403
f 256 323 803
f 813 675 815
f 415 786 400
f 427 419 414
f 422 420 705
f 432 428 427
f 430 489 499
f 587 580 590
f 437 434 432
f 445 442 434
f 446 394 445
f 671 586 448
f 819 609 627
f 456 449 450
f 455 563 248
f 865 791 769
f 581 579 463
f 645 652 817
f 644 464 469
f 652 662 715
f 874 923 129
f 715 664 652
f 694 812 688
f 477 64 126
f 750 760 473
f 485 655 477
f 465 715 718
f 507 207 666
f 465 774 494
f 865 486 480
f 812 675 813
f 485 484 655
f 207 202 298
f 883 504 825
f 493 865 769
f 783 782 504
f 679 484 485
f 202 200 298
f 196 490 200
f 196 193 490
f 877 859 476
f 302 803 323
f 189 496 193
f 814 806 810
f 168 719 789
f 821 814 810
f 391 899 924
f 713 527 532
f 467 408 472
f 302 294 887
f 786 787 518
f 538 519 532
f 561 532 527
f 926 35 33
f 538 532 660
f 540 555 561
f 551 586 640
f 319 241 565
f 660 532 561
f 113 161 746
f 161 176 867
f 8 319 565
f 223 247 635
f 781 585 784
f 620 629 393
f 887 780 302
f 269 390 393
f 671 640 586
f 781 784 588
f 599 589 603
f 393 290 611
f 626 603 606
f 928 290 305
f 623 238 622
f 625 1 623
f 774 893 894
f 312 332 912
f 626 632 631
f 332 339 847
f 847 892 332
f 757 887 285
f 847 714 54
f 793 3 8
f 732 807 726
f 858 931 857
f 675 812 687
f 168 167 15
f 273 735 757
f 920 921 7
f 402 385 639
f 167 845 17
f 638 633 338
f 646 649 663
f 650 663 649
f 845 850 157
f 888 239 721
f 663 654 646
f 706 409 48
f 850 854 153
f 676 654 663
f 429 409 317
f 661 692 660
f 854 858 149
f 676 663 686
f 858 862 147
f 433 429 691
f 678 680 677
f 699 711 712
f 712 734 356
f 711 710 753
f 862 866 141
f 712 711 740
f 682 436 827
f 734 740 748
f 866 870 137
f 214 687 808
f 748 756 758
f 664 816 652
f 872 133 135
f 198 687 214
f 754 182 768
f 872 874 131
f 665 659 658
f 758 765 766
f 658 648 653
f 766 764 758
f 776 770 777
f 668 198 170
f 117 923 116
f 787 786 789
f 929 330 822
f 533 822 322
f 556 336 330
f 531 322 523
f 899 920 833
f 662 444 889
f 346 323 256
f 491 482 620
f 116 880 911
f 911 20 116
f 382 491 620
f 911 932 20
f 932 886 99
f 645 443 662
f 930 382 611
f 382 930 516
f 886 824 199
f 605 531 930
f 491 508 848
f 628 170 902
f 256 347 346
f 482 848 479
f 891 896 93
f 347 256 861
f 820 617 739
f 866 819 817
f 605 594 593
f 896 901 85
f 929 593 582
f 612 881 885
f 901 905 83
f 826 451 653
f 451 457 180
f 672 659 665
f 441 180 851
f 79 905 796
f 436 673 672
f 436 851 827
f 909 914 75
f 682 673 436
f 914 916 71
f 584 902 897
f 876 86 342
f 69 916 1
f 829 433 827
f 700 808 694
f 788 3 916
f 853 829 417
f 409 61 48
f 402 48 855
f 870 817 816
f 855 29 360
f 874 816 664
f 385 361 102
f 830 880 875
f 576 897 25
f 819 634 817
f 68 69 1
f 106 856 730
f 743 736 738
f 910 242 236
f 862 857 819
f 744 879 102
f 880 830 831
f 840 528 843
f 401 846 44
f 803 302 780
f 769 791 357
f 878 915 791
f 831 911 880
f 918 873 345
f 576 25 475
f 799 31 475
f 841 29 846
f 879 856 102
f 106 639 385
f 573 564 876
f 911 831 802
f 342 556 876
f 337 339 332
f 25 510 515
f 350 29 841
f 564 573 892
f 892 582 912
f 510 25 56
f 864 906 837
f 312 328 337
f 929 822 593
f 33 35 258
f 871 360 29
f 840 860 835
f 864 158 863
f 29 855 44
f 916 914 917
f 808 687 812
f 594 307 312
f 307 305 328
f 916 917 788
f 33 56 927
f 840 835 809
f 307 594 605
f 736 743 361
f 531 516 930
f 290 277 305
f 852 109 927
f 318 835 860
f 21 844 529
f 852 59 112
f 620 393 611
f 102 743 744
f 112 113 852
f 751 763 762
f 647 785 762
f 805 747 751
f 252 268 254
f 230 835 229
f 487 641 635
f 637 879 467
f 124 851 164
f 809 230 221
f 161 142 176
f 807 732 805
f 247 234 254
f 230 809 835
f 808 700 807
f 345 637 186
f 176 184 191
f 812 694 808
f 204 849 223
f 849 204 191
f 813 688 812
f 635 648 725
f 849 184 198
f 815 613 813
f 815 636 613
f 217 223 849
f 659 191 204
f 217 234 223
f 191 184 849
f 859 480 421
f 795 213 511
f 245 461 243
f 878 865 859
f 802 886 932
f 191 659 867
f 452 718 889
f 223 234 247
f 176 142 184
f 246 254 234
f 865 493 486
f 293 771 357
f 268 247 254
f 771 769 357
f 805 264 735
f 268 252 390
f 161 113 112
f 486 493 488
f 390 252 274
f 867 673 746
f 264 751 279
f 274 277 390
f 746 682 152
f 281 848 287
f 827 433 682
f 808 703 214
f 152 691 109
f 109 852 113
f 476 859 421
f 296 305 277
f 476 595 877
f 305 307 928
f 196 293 292
f 595 476 820
f 726 807 700
f 752 293 357
f 307 328 312
f 310 328 305
f 56 59 852
f 292 752 799
f 328 310 323
f 886 825 824
f 312 337 332
f 807 703 808
f 891 824 782
f 193 292 189
f 844 21 22
f 429 853 409
f 109 697 927
f 56 33 510
f 105 559 553
f 339 337 346
f 346 714 339
f 51 346 347
f 317 926 927
f 564 690 876
f 863 844 232
f 799 868 292
f 510 33 258
f 843 528 529
f 844 863 842
f 861 840 843
f 861 158 347
f 861 860 840
f 752 915 31
f 158 843 842
f 843 158 861
f 842 529 844
f 919 837 906
f 906 232 907
f 809 528 840
f 730 873 918
f 730 856 873
f 873 856 879
f 856 106 385
f 817 634 645
f 837 919 838
f 817 652 816
f 919 906 907
f 919 536 537
f 743 102 361
f 904 669 838
f 898 669 904
f 669 898 38
f 703 807 721
f 405 404 838
f 669 405 838
f 922 833 836
f 294 285 887
f 361 385 402
f 869 645 634
f 830 875 664
f 916 3 1
f 864 51 347
f 402 855 361
f 909 801 914
f 397 890 374
f 48 44 855
f 796 909 77
f 879 637 873
f 901 798 905
f 580 925 397
f 48 402 706
f 896 800 901
f 891 823 896
f 409 62 61
f 853 62 409
f 881 413 417
f 417 62 853
f 86 407 299
f 459 893 882
f 199 891 95
f 830 465 831
f 829 426 417
f 426 829 124
f 426 881 417
f 124 829 827
f 433 829 853
f 886 802 825
f 774 894 883
f 851 124 827
f 164 884 124
f 441 851 436
f 180 164 851
f 443 869 164
f 911 802 932
f 715 830 664
f 874 664 875
f 736 361 360
f 451 180 441
f 457 452 889
f 889 444 457
f 866 817 870
f 106 35 639
f 459 718 452
f 826 452 457
f 452 826 245
f 451 826 457
f 862 819 866
f 858 857 862
f 461 245 826
f 459 882 718
f 479 243 461
f 854 931 858
f 850 925 854
f 846 401 580
f 845 890 850
f 491 848 482
f 848 281 479
f 825 494 883
f 382 508 491
f 900 832 767
f 508 287 848
f 896 823 800
f 839 890 845
f 504 782 824
f 42 374 839
f 516 508 382
f 908 910 318
f 534 524 523
f 552 818 548
f 42 172 173
f 901 800 798
f 818 552 900
f 533 322 531
f 871 175 737
f 868 187 189
f 22 232 844
f 593 822 533
f 822 315 316
f 929 556 330
f 330 315 822
f 838 919 537
f 904 838 537
f 318 860 834
f 908 318 834
f 465 830 715
f 556 342 336
f 105 836 559
f 833 559 836
f 29 44 846
f 908 834 804
f 562 917 828
f 299 836 105
f 818 900 767
f 832 553 559
f 562 832 920
f 811 315 548
f 828 801 821
f 801 828 917
f 821 797 814
f 836 299 903
f 401 590 580
f 797 821 801
f 905 798 796
f 796 814 797
f 810 548 818
f 814 798 806
f 798 814 796
f 909 796 797
f 811 548 810
f 413 587 590
f 404 51 837
f 51 864 837
f 837 838 404
f 909 797 801
f 529 842 843
f 158 842 863
f 232 906 863
f 800 806 798
f 529 528 511
f 794 811 806
f 785 908 804
f 785 647 908
f 859 877 878
f 526 534 794
f 877 571 878
f 571 31 915
f 173 351 42
f 524 783 509
f 350 173 175
f 29 350 871
f 823 526 794
f 783 524 526
f 526 823 782
f 42 351 374
f 841 374 351
f 504 775 783
f 509 783 775
f 782 823 891
f 885 124 884
f 887 757 779
f 914 801 917
f 426 885 881
f 890 397 925
f 825 504 824
f 775 504 883
f 925 587 931
f 587 925 580
f 802 494 825
f 785 279 762
f 494 831 465
f 831 494 802
f 894 287 775
f 590 895 413
f 438 897 576
f 884 164 869
f 762 279 751
f 423 931 587
f 587 413 423
f 931 423 857
f 762 761 647
f 617 820 476
f 595 820 621
f 751 755 763
f 893 459 243
f 751 264 805
f 609 857 423
f 423 881 612
f 662 443 444
f 721 805 735
f 621 584 595
f 857 609 819
f 443 645 869
f 612 885 627
f 636 621 820
f 628 902 584
f 805 721 807
