# avbd fit, rung f6-i16-s300-r1-h60 of Gate 6d (body space, fit phase only)
v -0.002418953 0.593143582 0.088000946
v -0.117337063 0.618702114 0.083451822
v -0.002325577 0.608931780 0.087928437
v -0.000302599 0.891342998 0.088270806
v -0.164124757 0.602796614 0.063850373
v 0.001881029 0.905952752 0.094970353
v -0.002133792 0.640441775 0.087917998
v -0.002222189 0.624696553 0.088012084
v -0.164607197 0.620488763 0.063944936
v 0.152659535 0.908375859 -0.105831586
v -0.177474305 0.616766334 0.046911903
v -0.190328464 0.619516313 0.028593984
v -0.195927784 0.621749520 0.010572903
v -0.167891547 0.621762455 -0.082962967
v 0.012253663 0.578479767 -0.126473233
v -0.154589683 0.617894053 -0.097876288
v 0.027703449 0.578682125 -0.125733390
v -0.146025792 0.618567288 -0.115698993
v -0.126335651 0.622977138 -0.115355179
v 0.192636877 0.580746531 -0.003511728
v -0.000487310 0.859722972 0.086362399
v -0.000586190 0.843998075 0.085833572
v -0.109288409 0.616127431 -0.120442949
v -0.095538944 0.620554090 -0.129054204
v 0.095076717 0.802703083 -0.126064613
v -0.078836374 0.627509773 -0.129849136
v -0.135241687 0.870460808 -0.127106488
v -0.143462747 0.788101017 0.071968473
v 0.041843321 0.676947594 -0.130298540
v -0.158745825 0.799136400 0.066452928
v 0.069876201 0.832118154 -0.137186527
v -0.192611128 0.777381718 0.044193722
v 0.088456020 0.764783680 -0.127703965
v -0.194701403 0.618859529 -0.035768017
v 0.074501202 0.753084064 -0.131446034
v -0.160493881 0.875876904 -0.101312578
v -0.180912465 0.874764800 -0.059588008
v 0.014838180 0.737104893 0.085784785
v -0.183356568 0.879341125 -0.038991429
v -0.079439513 0.869219303 -0.148356512
v -0.030393973 0.847991824 0.084809251
v 0.013985595 0.635264814 -0.127185509
v -0.019263577 0.828700066 0.084707752
v 0.064524919 0.683270395 -0.130083650
v -0.041733846 0.830135047 0.083723761
v -0.187914491 0.886839271 -0.020120474
v -0.188816339 0.872693241 -0.003739405
v 0.074128129 0.703893185 -0.130077988
v -0.177977547 0.876195252 0.014974791
v -0.042395066 0.613809824 0.087772600
v 0.061725266 0.802358449 0.082136616
v -0.065806329 0.615641356 0.087345615
v -0.079920068 0.698703885 0.083416581
v 0.061456192 0.764483094 0.083312929
v -0.089124709 0.615969300 0.086547069
v 0.102500819 0.779753387 -0.122654989
v -0.105430365 0.696649909 0.080674551
v -0.174947709 0.705874860 0.059367776
v 0.117524661 0.794617712 -0.117099918
v -0.200450376 0.704806030 0.030138735
v 0.085745625 0.688563645 -0.128228232
v 0.106089011 0.687424302 -0.123792693
v -0.202539831 0.787955642 0.025405684
v -0.198371440 0.807969272 0.024098430
v -0.206973910 0.705331564 -0.034987532
v -0.192322195 0.700597465 -0.055598885
v -0.181780145 0.712351143 -0.070509717
v 0.006784053 0.586806357 0.099237897
v 0.013727387 0.578239143 0.088371284
v -0.167729899 0.700816989 -0.086781070
v 0.029389665 0.578579068 0.088548973
v -0.119049057 0.709286571 -0.122274160
v 0.045048974 0.578874230 0.088790372
v -0.019942498 0.732645988 -0.135768265
v 0.060704172 0.579116762 0.088584475
v -0.099220023 0.871369243 -0.143811911
v 0.076324344 0.579333484 0.088385560
v -0.117491148 0.872810185 -0.137165576
v 0.091897078 0.579527259 0.087964825
v -0.123790562 0.857735515 -0.130979747
v 0.107397340 0.579686761 0.087069198
v -0.144630373 0.886349082 -0.119071826
v 0.122555494 0.579605639 0.084032968
v -0.178675234 0.844193637 -0.082751609
v 0.136820883 0.579283476 0.078863695
v 0.046676759 0.724573672 0.084722131
v -0.147863925 0.873498797 0.055296164
v -0.123600580 0.792140126 -0.117021441
v -0.164011061 0.650167942 0.064299308
v 0.149331868 0.579024911 0.071720190
v -0.143203795 0.800357223 -0.107715882
v -0.018793341 0.787287831 0.084599584
v 0.158375442 0.579333186 0.059324265
v -0.040268496 0.790528715 0.083835021
v 0.172400802 0.579226971 0.053140175
v -0.026013533 0.808468461 0.083806753
v 0.181265816 0.579369187 0.040667295
v -0.019370016 0.864989638 0.085905030
v 0.183070943 0.580013633 0.025479684
v -0.066906914 0.885378659 -0.149413720
v 0.189216733 0.580170393 0.011433536
v 0.026325384 0.734092176 -0.135372669
v -0.089979470 0.853044033 -0.142716736
v -0.115123190 0.659951627 0.081215188
v 0.039784905 0.704565883 0.085591033
v 0.057238281 0.752094626 -0.134295478
v -0.117983460 0.842292309 -0.127009138
v -0.147456214 0.646600842 0.073003493
v 0.127168283 0.754009008 -0.112467051
v -0.131527051 0.831828594 -0.116779007
v 0.133213103 0.805469394 -0.111208573
v 0.141122162 0.786907971 -0.106699646
v 0.141670287 0.766243100 -0.104965344
v -0.168673620 0.668195605 0.060948104
v -0.146939814 0.821164787 -0.107082382
v 0.204654068 0.580023348 -0.012992246
v 0.204534382 0.580179393 -0.027250594
v -0.194385260 0.659836054 0.028877210
v 0.150659740 0.805173755 -0.103457078
v -0.165685564 0.832100391 -0.097470477
v -0.191095829 0.832082093 -0.065051265
v -0.197086766 0.845007896 -0.049935363
v -0.057126336 0.823160529 -0.140582204
v 0.155445173 0.684087098 -0.096972749
v -0.176433712 0.829382420 0.047450878
v -0.192202836 0.826727211 0.025442738
v -0.125900760 0.819026291 0.072230808
v -0.137645811 0.835363984 0.066142634
v 0.193642855 0.580426335 -0.038006641
v -0.021216372 0.812232971 -0.143580213
v 0.182635292 0.580746174 -0.048659466
v -0.040595170 0.808496952 -0.141794950
v 0.181901589 0.580321908 -0.063964382
v -0.024758246 0.684446096 -0.131040007
v 0.169599086 0.580563247 -0.073109753
v -0.113019906 0.876910865 0.070649177
v 0.162927881 0.580764472 -0.086911112
v -0.091933243 0.871538460 0.076590553
v 0.161097467 0.580940127 -0.102135971
v -0.022077616 0.793739796 -0.141760707
v 0.147313029 0.579713166 -0.108775064
v 0.164963529 0.794299722 -0.096787408
v -0.023412604 0.774806857 -0.139589697
v 0.134342879 0.579584718 -0.115033016
v -0.042860858 0.789161801 -0.139795989
v -0.181452930 0.799668133 -0.086369731
v 0.119527616 0.579438269 -0.118129015
v -0.149557516 0.892753124 0.050767083
v 0.104527377 0.579380095 -0.121516928
v -0.029412189 0.709604383 -0.133268610
v 0.089395024 0.579362988 -0.124444500
v 0.142710090 0.747912467 -0.104105271
v 0.073993772 0.579228520 -0.125425488
v -0.105188712 0.751841664 -0.125642389
v 0.058578301 0.579160869 -0.126335323
v -0.065752953 0.668199420 -0.131090701
v 0.043149065 0.578908563 -0.125819355
v 0.052316416 0.836467624 0.083226278
v -0.184755385 0.768249035 -0.076928459
v -0.209646940 0.625087917 -0.020412505
v 0.159174517 0.774358809 -0.096982166
v -0.208399147 0.785181344 -0.031832926
v -0.210238606 0.749794245 -0.022571227
v 0.170682102 0.677024961 -0.080029994
v -0.206607968 0.737579226 -0.042520911
v -0.002983715 0.609396577 -0.124898039
v 0.016299950 0.596891880 -0.124188319
v -0.003144517 0.593720675 -0.124915004
v -0.002763152 0.625001848 -0.126549393
v 0.169664815 0.817307293 -0.095381700
v -0.195578769 0.742963970 -0.058529682
v -0.002555592 0.640658021 -0.127840579
v -0.002351888 0.656330287 -0.129092753
v -0.210132763 0.734594703 -0.003201100
v -0.002147166 0.672024906 -0.130240262
v 0.176591188 0.780926347 -0.089814529
v -0.169857174 0.739997447 -0.086169630
v -0.116101503 0.600482941 -0.115709320
v -0.205829382 0.742996275 0.023939725
v 0.181678265 0.693162501 -0.066879071
v -0.200402826 0.723987937 0.032835566
v -0.091668755 0.735353112 -0.129817903
v -0.077958450 0.720418274 -0.132457569
v 0.184016824 0.799319804 -0.081808381
v -0.044551510 0.769473076 -0.137936458
v -0.000971545 0.781860232 -0.140799552
v -0.000834477 0.797555089 -0.142375529
v -0.104869887 0.854954123 0.074054711
v -0.000691908 0.813234448 -0.143870518
v -0.125527784 0.849144340 0.068331830
v 0.187878147 0.776115298 -0.072824985
v -0.113100812 0.834901989 0.073293671
v -0.000548650 0.828899741 -0.145124674
v -0.128930703 0.866705239 0.065698422
v -0.159259021 0.731291890 0.067594573
v -0.000414075 0.844567776 -0.146392673
v -0.119819522 0.895400643 0.067861125
v 0.189573795 0.821489990 -0.070175245
v 0.179610327 0.597530186 0.047568448
v -0.000252202 0.860228896 -0.147754714
v -0.133811802 0.885896385 0.061930757
v -0.000083623 0.875892758 -0.148628846
v -0.158531934 0.841048121 0.058349211
v 0.199165776 0.769122481 -0.054948606
v -0.160597533 0.860391617 0.047998350
v -0.210874110 0.779192626 0.005151750
v 0.000069447 0.891561806 -0.148666039
v -0.156639218 0.896718502 0.032974139
v -0.164097548 0.879041851 0.036307637
v -0.169651970 0.894234836 0.015900323
v -0.139831066 0.724540889 0.073890239
v 0.032471072 0.907212436 0.089055285
v 0.016548870 0.907052398 0.089882083
v 0.198617935 0.837381482 -0.048455451
v -0.000394861 0.875501931 0.086965010
v -0.181679845 0.891833663 -0.001914138
v 0.203592151 0.811730206 -0.046081662
v -0.182441756 0.897444844 -0.035085201
v -0.176842660 0.893605411 -0.052146249
v -0.075744435 0.648547351 -0.130848110
v 0.048353329 0.907492459 0.087268621
v 0.202334806 0.825225830 -0.027050307
v 0.208035946 0.784241617 -0.036435343
v -0.171818614 0.891043484 -0.070074715
v -0.156028003 0.895070434 -0.105441906
v -0.126866564 0.889011085 -0.132689923
v -0.149807647 0.841920018 -0.108834609
v -0.106810249 0.655024111 -0.124133803
v 0.079725429 0.908213437 0.081441134
v 0.064129151 0.907835484 0.084719963
v -0.099449240 0.837708294 -0.134684652
v -0.000687390 0.828326404 0.084964409
v -0.107945681 0.855255008 -0.137814924
v 0.207042769 0.803196549 -0.022039549
v -0.124065459 0.646694243 -0.117261425
v 0.095054835 0.908630073 0.077357434
v -0.025431355 0.692537189 0.086576872
v -0.026038745 0.596450031 0.087635621
v 0.201420814 0.835162282 -0.009184600
v -0.201601982 0.825836360 -0.039497726
v -0.038528655 0.644462228 0.087757230
v 0.110072196 0.909086525 0.072473615
v 0.206804037 0.695260584 -0.002982247
v -0.052254450 0.596252978 0.087318048
v 0.206998110 0.695444405 -0.021401638
v 0.205490425 0.816968262 -0.004398622
v 0.210030392 0.781894803 -0.010205251
v -0.056136042 0.656937242 0.086814396
v -0.078818433 0.597308993 0.087191008
v -0.103890575 0.599516988 0.086119376
v -0.096639238 0.649647892 0.084636256
v 0.201556921 0.806119561 0.020551743
v -0.099170223 0.632258534 0.085312471
v 0.209492609 0.798907757 -0.000395137
v -0.052006878 0.811674297 0.082670912
v 0.098493472 0.832270443 0.076752797
v -0.116356596 0.640751719 0.082403146
v 0.069182016 0.768107712 -0.132723361
v -0.127922624 0.598596931 0.082428545
v -0.191480443 0.666465044 -0.052390419
v -0.132094964 0.652725160 0.077802546
v -0.144971415 0.614962220 0.076799467
v 0.061684757 0.782704711 -0.134654820
v 0.173841268 0.856491446 0.034192964
v -0.135058716 0.633408546 0.078089699
v -0.192960918 0.651364744 -0.041405760
v -0.150434807 0.595992446 0.076103374
v 0.209162638 0.784018874 0.014546076
v 0.203983754 0.767925739 0.025411915
v -0.143823132 0.854377747 0.060784191
v -0.155045331 0.633154988 0.070096351
v -0.174101815 0.596466660 0.048488829
v 0.189621270 0.822467327 0.031221336
v 0.189035818 0.802021861 0.042785425
v -0.181415856 0.654202342 0.050733842
v -0.173633546 0.635507226 0.056388129
v 0.186527625 0.781726360 0.054983873
v -0.186496869 0.600247025 0.033769764
v 0.157260522 0.861721337 0.051310331
v -0.185954899 0.637611747 0.038600184
v 0.205065280 0.689508259 0.017150996
v -0.048853662 0.907354832 0.087312445
v -0.196049064 0.638727307 0.019532841
v -0.022910949 0.886106849 0.086398356
v 0.178450063 0.817812443 0.050853901
v -0.172082767 0.847523212 0.043257140
v 0.195022836 0.683371961 0.035779070
v -0.174670905 0.861602128 0.030168887
v -0.199382335 0.634164751 -0.001970142
v 0.178719044 0.762673676 0.062901482
v -0.185200408 0.844580650 0.028355613
v 0.022737307 0.827362359 -0.143785879
v 0.024142850 0.848294258 -0.145896062
v 0.161790282 0.813901782 0.063591078
v -0.026204467 0.890196443 -0.148810670
v 0.172895521 0.798311651 0.063210085
v -0.200906962 0.653706133 0.005058921
v -0.020173538 0.870177269 -0.148488432
v 0.025542533 0.721257269 0.085520230
v -0.018776275 0.622648895 -0.126222461
v -0.041870497 0.875093639 -0.148600727
v 0.143469185 0.822392762 0.067183152
v -0.047800247 0.893265903 -0.148758918
v -0.188458666 0.858840942 0.012738369
v 0.160873890 0.777479589 0.068647102
v -0.198779687 0.840863824 0.010289042
v 0.143232495 0.760692656 0.073710188
v -0.197714284 0.847978473 -0.029271334
v -0.201678440 0.833512664 -0.013265567
v 0.148449466 0.800762355 0.069530211
v -0.196585864 0.853862107 -0.007910447
v 0.123334289 0.768328667 0.079901911
v -0.208202168 0.604479194 -0.029344443
v -0.209629893 0.644581318 -0.013387762
v 0.108043566 0.680374920 0.079923071
v 0.128622010 0.679849505 0.076471508
v 0.101633236 0.730978072 -0.123958156
v 0.092630550 0.885251641 0.075711899
v -0.019316671 0.643055201 0.088004336
v 0.124081075 0.909703434 0.066512585
v -0.190134794 0.861965835 -0.044632763
v 0.136635393 0.697716355 0.074313000
v 0.121094182 0.810980916 0.075316563
v -0.204680964 0.653676748 -0.027003860
v -0.185614064 0.854933262 -0.065141812
v 0.136509493 0.910418510 0.059172295
v -0.164327830 0.854458451 -0.097966537
v 0.135689914 0.784402072 0.074853078
v -0.063710019 0.765782297 -0.135707706
v 0.096135125 0.699044347 0.081176780
v -0.189222768 0.600583553 -0.042160682
v 0.102380656 0.769355237 0.080706991
v -0.200875804 0.637100101 -0.032042444
v -0.186553702 0.647212505 -0.061175816
v -0.180852160 0.597004533 -0.060246527
v 0.075042292 0.694232881 0.083554663
v 0.112004399 0.788805842 0.079925962
v -0.065954708 0.734756827 -0.134009108
v 0.091919705 0.783716440 0.081113487
v -0.183564544 0.614436030 -0.054406516
v -0.180441841 0.662592053 -0.072878547
v 0.060509544 0.708443522 0.084500745
v -0.080068350 0.752920449 -0.132313490
v -0.177293301 0.604995251 -0.077446528
v 0.018932393 0.786617458 -0.140465096
v 0.090735905 0.805966854 0.079451688
v 0.072038785 0.823765934 0.080883771
v -0.175277203 0.642518222 -0.078523800
v 0.145294517 0.910324097 0.046363749
v 0.020233138 0.666218162 -0.129615024
v 0.021662518 0.649684787 -0.128443509
v -0.159583777 0.601629436 -0.090344965
v 0.155774355 0.910742939 0.035046998
v -0.125625253 0.754406035 -0.116736554
v 0.165768594 0.911150753 0.023392837
v -0.153068483 0.650167346 -0.103300869
v 0.046718221 0.856766999 -0.146432310
v -0.160204679 0.637537539 -0.090607211
v 0.174451485 0.911659896 0.010700123
v 0.033865210 0.695006609 -0.132145837
v 0.036756027 0.715035379 -0.133395016
v -0.138152868 0.740102410 -0.109481953
v 0.173957199 0.910388589 -0.004669182
v -0.143164396 0.758446455 -0.106910035
v -0.108695343 0.889534652 -0.140318558
v -0.043295592 0.870422840 0.084116876
v 0.182238087 0.911512017 -0.017677223
v -0.153429478 0.600220680 -0.110671803
v -0.155972749 0.749216199 -0.097757652
v -0.152387708 0.632645786 -0.105731227
v -0.150017023 0.863004982 -0.113590121
v 0.180581495 0.911101997 -0.032118876
v -0.171895832 0.759132445 -0.088698462
v 0.034411136 0.635073721 -0.126651675
v -0.134348601 0.601732671 -0.116090417
v -0.184746444 0.750593483 -0.074238211
v 0.176740438 0.910548091 -0.047215428
v -0.135590032 0.850701809 -0.120220646
v 0.173216552 0.910174668 -0.062520638
v -0.196138516 0.765962958 -0.059577577
v -0.141329184 0.638774455 -0.116913617
v 0.185082436 0.719634354 0.057713278
v 0.168198138 0.909685433 -0.077658780
v -0.205872208 0.753571749 -0.046228830
v 0.047527570 0.734277606 -0.134203449
v -0.101630785 0.600588620 -0.126923949
v -0.020586111 0.602763176 -0.124855354
v 0.161616281 0.909226298 -0.092330158
v -0.208784610 0.769242585 -0.038416274
v 0.197733432 0.784350872 0.034598846
v -0.019588565 0.674865365 0.087433472
v 0.141924471 0.907463074 -0.117902182
v 0.194675922 0.760648131 0.044639844
v -0.069243625 0.758325875 0.083062306
v -0.109199919 0.634467185 -0.121862017
v -0.080770656 0.604449987 -0.126477584
v 0.055568643 0.639495015 -0.126774281
v -0.093118086 0.641520500 -0.129637450
v -0.061176050 0.618884385 -0.127348170
v -0.059060842 0.598665893 -0.125906080
v 0.077074148 0.668802381 -0.128553182
v 0.060048670 0.718487144 -0.132165477
v -0.193438888 0.735910535 0.048480928
v 0.049030084 0.781080008 0.083524689
v 0.039976303 0.761083424 0.084274493
v -0.194441020 0.756888390 0.046064265
v 0.033761583 0.740910709 0.085165903
v -0.027177896 0.753283918 -0.137256980
v 0.098716095 0.708255649 -0.125296921
v -0.177946702 0.768014371 0.062656417
v -0.058443606 0.651623070 -0.130603120
v -0.064221106 0.636358619 -0.130122691
v 0.109590963 0.662520111 -0.122734748
v -0.174149454 0.746960044 0.063654698
v -0.039327241 0.616677165 -0.125839725
v 0.131322891 0.907138169 -0.128752545
v 0.123614348 0.681943297 -0.117884517
v -0.047000822 0.637047768 -0.128624097
v -0.154724151 0.760586977 0.069717206
v -0.041553758 0.663922906 -0.130005404
v 0.116805397 0.906540751 -0.135393605
v -0.027383137 0.640987098 -0.127900049
v 0.118197218 0.640302300 -0.119183019
v -0.198142201 0.615472496 -0.007734685
v -0.192346960 0.602509618 0.012585737
v 0.139277086 0.678253472 -0.109979294
v -0.145562619 0.742886901 0.072969869
v -0.129490077 0.754332423 0.077868953
v 0.118106641 0.720994830 -0.117600285
v -0.076512873 0.814930797 0.080595247
v -0.064619094 0.907953084 0.084776983
v -0.118351914 0.733075202 0.079270348
v 0.136489257 0.715169847 -0.107702278
v -0.106439494 0.750395358 0.079881117
v -0.088546708 0.798478484 0.080532879
v 0.167058498 0.720396399 -0.085051276
v -0.092079364 0.733121157 0.081483483
v 0.112653099 0.839488626 -0.130109847
v -0.077347912 0.778548956 0.081719145
v -0.101716176 0.783445418 0.079418004
v 0.181106970 0.712922633 -0.071065947
v -0.092995122 0.765583038 0.081505813
v 0.178408638 0.660546422 -0.071053550
v 0.186063796 0.673886597 -0.062231414
v -0.085752808 0.749066591 0.081855156
v -0.068840280 0.737466633 0.083241113
v -0.115300819 0.768685639 0.080293946
v -0.026522452 0.750212371 0.085007325
v -0.124203242 0.786290228 0.077215508
v -0.113064922 0.801769257 0.078300826
v 0.192747086 0.708645523 -0.054310985
v 0.203048781 0.681497812 -0.034050871
v -0.063860469 0.794195354 0.082524881
v -0.137954324 0.772171199 0.075144865
v -0.042728312 0.677727520 0.086585708
v -0.136562228 0.803237796 0.071964897
v 0.194098458 0.688082814 -0.050356753
v -0.153491110 0.819627464 0.064391911
v 0.205447674 0.678551316 -0.015178239
v -0.179198608 0.789426863 0.062282842
v 0.208672553 0.717242599 -0.016928449
v -0.159798771 0.779268444 0.068505235
v -0.065619878 0.832610488 0.081707075
v -0.176883250 0.809775054 0.057670154
v 0.206817865 0.642255366 -0.014152942
v -0.068925597 0.869551957 0.080867097
v -0.001274011 0.750450969 -0.137567237
v -0.063798383 0.888268292 0.082212836
v -0.186626047 0.814229667 0.039551098
v -0.204019099 0.766424775 0.025150198
v -0.044548411 0.891529858 0.085079804
v -0.001117090 0.766144335 -0.139189243
v -0.095555790 0.909225643 0.077622108
v -0.211079672 0.756948531 0.002481121
v 0.075905234 0.815232754 -0.133261651
v 0.121795200 0.877412975 -0.135148272
v -0.205404833 0.821484745 0.006502277
v -0.080222741 0.908567727 0.081622921
v 0.208278537 0.712979257 0.007921075
v 0.101658523 0.906539440 -0.142030865
v -0.189558953 0.866384387 -0.023866775
v 0.204953358 0.726941943 0.024004247
v -0.210261941 0.771364331 -0.015930535
v -0.209301472 0.792776942 -0.014270547
v -0.205585167 0.813254356 -0.015880726
v 0.085522279 0.906744659 -0.147114128
v 0.210910484 0.762944639 0.005870403
v 0.068681911 0.906890213 -0.148232892
v -0.090030119 0.834643543 0.078285880
v -0.016218120 0.849439502 -0.146724328
v 0.196272865 0.717707396 0.040706355
v 0.051791646 0.907102585 -0.147553548
v 0.061798029 0.891947150 -0.147944286
v 0.197978035 0.634049058 0.008116060
v -0.083453864 0.889042735 0.078573950
v -0.020270647 0.831135154 -0.145114616
v -0.202090412 0.786775172 -0.052329801
v -0.172913834 0.869123757 -0.081102654
v -0.100783661 0.817389369 0.077212527
v 0.034704283 0.907310486 -0.147613734
v -0.190333053 0.785793185 -0.071228176
v 0.017515836 0.907312036 -0.147661388
v -0.160094500 0.789737761 -0.099184349
v 0.185370952 0.639428616 0.043624051
v -0.176043004 0.778989315 -0.090348005
v 0.017196584 0.894952476 -0.148439020
v 0.000219106 0.907197952 -0.147642359
v 0.191076249 0.699303746 0.049114488
v 0.182360828 0.677783370 0.053953938
v 0.081823193 0.783709109 -0.129657477
v 0.018282844 0.880830765 0.086620353
v -0.164250582 0.810612023 -0.098154619
v -0.157401875 0.769553840 -0.098343268
v -0.165009469 0.891288638 -0.088142648
v 0.066695407 0.799122870 -0.134384349
v 0.170313805 0.698071897 0.061176073
v -0.138383195 0.777778387 -0.109260485
v -0.049469709 0.579784632 -0.128613055
v -0.106438562 0.785123885 -0.124680892
v -0.064859211 0.580337405 -0.129460126
v -0.080217488 0.580485821 -0.128213719
v -0.116899170 0.771509290 -0.120207772
v 0.149501219 0.685985804 0.068640098
v 0.162736967 0.670875192 0.063185111
v -0.095501937 0.580768943 -0.126538426
v 0.156575143 0.647362173 0.066804036
v -0.111691497 0.824418724 -0.124415062
v 0.040177770 0.874939561 0.084850073
v 0.025429074 0.861673713 0.085702181
v -0.110409439 0.581341207 -0.122900978
v 0.152137041 0.709356427 0.068735890
v -0.104579732 0.804214478 -0.125349477
v 0.135054931 0.714220166 0.075605504
v 0.141556591 0.663444757 0.071779743
v -0.121927284 0.581756949 -0.112778187
v -0.000890128 0.797037065 0.084657848
v -0.001026408 0.781399131 0.084807366
v -0.088900961 0.786789954 -0.130803108
v -0.136918008 0.581584215 -0.114694454
v -0.077230975 0.835650265 -0.138076067
v -0.096761867 0.769295871 -0.128200442
v -0.151276663 0.582267225 -0.114450537
v -0.157203346 0.582100689 -0.100308344
v -0.163430482 0.582066894 -0.086301595
v -0.050450884 0.770085335 0.083530083
v -0.025410075 0.770055413 0.084447987
v 0.089450255 0.682312310 0.082578003
v 0.093146279 0.663991570 0.082677163
v -0.176524147 0.582206130 -0.078336880
v -0.181978077 0.582571149 -0.064030282
v -0.027297962 0.711679339 0.085777551
v 0.073785610 0.674000323 0.084510848
v 0.053800918 0.686407983 0.085354403
v -0.185255617 0.582532227 -0.049084373
v -0.073495790 0.817418933 -0.136459470
v 0.081399567 0.713414252 0.083097801
v -0.194546312 0.582669437 -0.036889315
v -0.052157450 0.700233579 0.085149318
v 0.031681038 0.685014844 0.086550295
v -0.030440992 0.659885764 0.087506406
v -0.091711320 0.820439458 -0.131041750
v 0.028604677 0.641967535 0.087218575
v -0.065936327 0.679718852 0.085384332
v 0.073895328 0.747974277 0.083015524
v -0.030477053 0.628934026 0.087969452
v -0.053254712 0.632753909 0.087484606
v -0.055932820 0.842489541 -0.143198490
v -0.072034799 0.852395654 -0.144707292
v -0.072884917 0.717849314 0.083333090
v -0.058005113 0.863276601 -0.147168860
v 0.091061048 0.844181180 -0.139813006
v -0.208601356 0.582767308 -0.030787086
v 0.087399259 0.732525885 0.082177952
v -0.076222844 0.637931049 0.086565986
v -0.098311208 0.715000629 0.081165783
v 0.094233856 0.825881004 -0.128949642
v -0.078914374 0.661618173 0.085478120
v -0.089256674 0.681322753 0.083446398
v -0.079406798 0.852251351 0.079590067
v 0.074990347 0.647134066 -0.126918033
v -0.054594465 0.850846887 0.082806312
v 0.107053496 0.737373233 0.080531292
v -0.098403573 0.666474521 0.083391950
v 0.133176953 0.837905884 -0.118068337
v -0.199755788 0.582648814 -0.019594481
v -0.026614051 0.730787754 0.085446507
v 0.095880315 0.639956594 -0.124222293
v -0.188989908 0.582485676 0.008444899
v -0.131088257 0.691703916 0.075916119
v 0.090446986 0.657689691 -0.126503244
v -0.187363684 0.581613958 0.023616478
v -0.112702012 0.678741217 0.080237716
v 0.122154608 0.725777864 0.080250107
v 0.127215698 0.746273875 0.079140924
v 0.126912758 0.856537938 -0.127165645
v -0.182817474 0.581131339 0.038201585
v -0.121410467 0.711771607 0.078742571
v -0.173748553 0.581000924 0.050503343
v -0.132088989 0.671615243 0.076146506
v -0.163477689 0.580724359 0.061843343
v -0.155054405 0.580746114 0.074653730
v -0.140776187 0.708097100 0.072754756
v -0.151529819 0.679971099 0.068855479
v -0.141609222 0.580510437 0.079792187
v 0.145050749 0.733851552 0.073369391
v -0.155112416 0.697624326 0.066885248
v -0.127103165 0.580450654 0.084200703
v -0.111874618 0.580187201 0.086613908
v 0.137732416 0.633661687 -0.113862693
v -0.158150598 0.715105295 0.066395387
v 0.182744190 0.742144704 0.060842466
v 0.137046546 0.649328589 -0.113989569
v 0.159431890 0.889091015 -0.101823568
v -0.096485034 0.579844177 0.088183500
v -0.149773806 0.662479043 0.070888370
v -0.080984645 0.579434931 0.089061841
v 0.134109944 0.891297162 -0.127796650
v -0.065427594 0.578928351 0.089091465
v -0.049850211 0.578405619 0.089230210
v 0.196448714 0.737163901 0.042590391
v 0.144523174 0.854748130 -0.113554224
v -0.034271806 0.577800155 0.088796996
v -0.018728364 0.577149689 0.088273607
v -0.176820710 0.725424588 0.060684986
v -0.011618020 0.584847987 0.099622078
v -0.172023237 0.686933637 0.058939986
v 0.151174843 0.644597530 -0.105184212
v 0.155306995 0.836995125 -0.103573754
v 0.206003457 0.748169303 0.024501771
v -0.192118451 0.714988351 0.048747681
v -0.187679142 0.674084067 0.047882669
v -0.191114426 0.694565177 0.048004895
v -0.041887604 0.731766641 -0.135222346
v 0.160595626 0.639492393 -0.089400098
v 0.210286885 0.760802984 -0.016040588
v 0.154071093 0.871822357 -0.111109994
v 0.013320607 0.768430054 -0.139088541
v -0.052524664 0.750397980 -0.135754392
v 0.068199560 0.736670911 -0.131977946
v -0.049379293 0.723381400 0.084615663
v 0.210258648 0.738136232 0.000186459
v -0.198213175 0.683521450 0.028860524
v -0.208803341 0.719033659 0.013542050
v -0.190613925 0.797185779 0.042760588
v 0.174037904 0.642132640 -0.073424071
v -0.203933269 0.674862921 0.008065491
v 0.129606813 0.886900783 0.063376643
v 0.209570915 0.740233064 -0.025795748
v -0.207073882 0.696800828 0.009040239
v -0.208345056 0.711152554 -0.009754894
v -0.208887905 0.725956500 -0.026297126
v 0.186184347 0.631821215 -0.061472725
v 0.204722732 0.724073708 -0.041545831
v -0.209190279 0.665375650 -0.011728851
v -0.209712818 0.801114261 0.005440150
v 0.161891118 0.854532540 -0.099812083
v -0.032974370 0.906849682 0.089089029
v 0.201990440 0.745407939 -0.049588501
v 0.188204423 0.751683593 -0.069108635
v -0.081067435 0.802716255 -0.133659139
v -0.059810258 0.803805172 -0.138622195
v 0.188593507 0.652247071 -0.058828581
v -0.207729220 0.687912524 -0.016225230
v 0.187735289 0.621505380 -0.044012945
v 0.192361787 0.729179263 -0.059209578
v -0.017039854 0.907686234 -0.147613898
v -0.034242425 0.907939255 -0.147652537
v 0.176586464 0.839127719 -0.088154852
v 0.018915089 0.755941510 0.084993735
v -0.051329754 0.908018231 -0.147753909
v -0.048659466 0.745336413 0.084313750
v 0.181261495 0.731269419 -0.074981108
v 0.170242280 0.741991878 -0.085826896
v -0.068216108 0.908160090 -0.148285627
v 0.173901945 0.860248268 -0.083393939
v -0.202162504 0.669644237 -0.032301094
v -0.085065052 0.908251584 -0.147043362
v -0.090040460 0.888146222 -0.147225603
v -0.205873445 0.803814292 -0.037366018
v -0.101086378 0.908068478 -0.141984865
v -0.116147146 0.908159554 -0.135420874
v 0.151817948 0.730899692 -0.097005278
v -0.196890324 0.721381545 -0.052042883
v -0.195593432 0.808452964 -0.063046053
v -0.182339713 0.821240246 -0.083694018
v -0.199288905 0.685809970 -0.042997986
v 0.186233610 0.848645568 -0.067129262
v 0.170619279 0.893012345 -0.071721055
v -0.187536612 0.632924676 -0.047854401
v 0.053793956 0.744674325 0.084232226
v 0.133087963 0.733832419 -0.109362796
v -0.065249428 0.785216868 -0.136287183
v -0.183902815 0.731300056 -0.071864821
v 0.177347437 0.888420939 -0.054945022
v -0.079206482 0.772037685 -0.133124739
v -0.182811171 0.627162576 -0.068817444
v 0.117524132 0.739454269 -0.117456511
v -0.186967671 0.680930316 -0.063802294
v -0.168590903 0.679024458 -0.083529986
v 0.182275191 0.886982560 -0.036762446
v -0.179082841 0.694697917 -0.072161891
v -0.168821007 0.720641613 -0.086277582
v 0.197389975 0.848983943 -0.025682077
v -0.164325982 0.657574356 -0.087001383
v -0.019849926 0.660638273 -0.129308492
v 0.082388245 0.723247647 -0.129138857
v -0.130600750 0.908856094 -0.128809959
v -0.141365737 0.909291148 -0.118000075
v -0.153917834 0.729896426 -0.099136338
v -0.153923333 0.710188448 -0.100796379
v -0.154955074 0.689889073 -0.100946710
v -0.154507726 0.669669211 -0.101245202
v -0.126808181 0.812193394 -0.116071142
v 0.071708895 0.784361303 0.082354777
v 0.192834169 0.643366456 -0.037905984
v -0.161029488 0.910980523 -0.092430085
v -0.167641833 0.911527514 -0.077801347
v 0.202176243 0.661334515 -0.027073774
v -0.003236344 0.578238904 -0.127345398
v -0.172506288 0.911873162 -0.062613979
v 0.197376803 0.852869868 -0.000369701
v -0.177042037 0.912205815 -0.047608625
v -0.182528451 0.912790418 -0.033096727
v -0.184893250 0.913393855 -0.018823402
v 0.209318191 0.760282874 -0.037150417
v 0.185562775 0.893197536 -0.021504452
v -0.177050203 0.912785351 -0.005534197
v -0.171091527 0.912471950 0.008670566
v -0.161325127 0.911569297 0.020548452
v 0.049606405 0.769393384 -0.136011153
v -0.156920344 0.911302209 0.035319071
v 0.180773050 0.888083279 -0.004894422
v -0.146424875 0.911747813 0.046668280
v -0.141210049 0.659312010 -0.116060004
v 0.189174369 0.845743060 0.022590090
v 0.016928058 0.700776696 -0.132848531
v -0.001947971 0.687687099 -0.131782278
v -0.001772386 0.703381896 -0.133116171
v 0.147428289 0.889847457 -0.115391992
v -0.140328884 0.679556429 -0.114750423
v -0.001598509 0.719056249 -0.134693980
v -0.136819109 0.720326304 -0.112412214
v 0.015079859 0.718455195 -0.134412333
v -0.001437930 0.734753370 -0.136114493
v -0.136487871 0.911490738 0.058598805
v 0.157712549 0.754350543 -0.095270030
v 0.177345529 0.890323162 0.013895611
v -0.122564480 0.667647839 -0.119295441
v -0.124329984 0.910808921 0.066366091
v -0.110508069 0.909941554 0.072640546
v 0.166200727 0.876673400 0.032743387
v 0.046218876 0.837409973 -0.142309710
v -0.138362020 0.699851871 -0.113493726
v -0.116698027 0.732341528 -0.121595800
v 0.164807409 0.896153271 0.025809396
v -0.120909259 0.688186526 -0.121561661
v 0.178607926 0.836609483 0.041439235
v -0.103655741 0.675451517 -0.126539916
v -0.001375763 0.734560966 0.085940257
v -0.102076828 0.891571403 0.073845066
v 0.144536331 0.895816207 0.054494791
v 0.149219856 0.878986001 0.054019272
v 0.154308796 0.893536747 0.040564455
v -0.088249356 0.662463725 -0.130584732
v -0.100292251 0.695608377 -0.128208175
v -0.081571750 0.682246566 -0.131314144
v 0.049624648 0.651436925 0.086508349
v -0.098445043 0.716023982 -0.128781244
v 0.051410247 0.875218749 -0.148251578
v -0.077096932 0.702017069 -0.131969005
v 0.026484331 0.867313206 -0.148165151
v -0.039218578 0.828758419 -0.143573344
v -0.036866583 0.852171421 -0.146245062
v 0.201138020 0.654150128 0.006610766
v 0.189278051 0.661657274 0.040078096
v -0.052274317 0.689350605 -0.131646261
v -0.056084104 0.713739634 -0.133494034
v -0.152161390 0.910218120 -0.105959140
v 0.166390195 0.846817613 0.051416188
v 0.147192687 0.843381882 0.061146796
v -0.196597174 0.598115504 -0.010683223
v 0.168845385 0.631180406 0.056730270
v 0.174824566 0.654515445 0.055220079
v -0.196902722 0.583041131 -0.004577878
v 0.134027228 0.862267494 0.063343421
v -0.037825000 0.595409214 -0.125714928
v -0.034031145 0.579351783 -0.128356844
v 0.015838029 0.622506678 0.087729231
v -0.018696798 0.578655183 -0.126648501
v -0.007981470 0.898509204 0.100296423
v 0.067630596 0.865545630 -0.147981107
v -0.017073814 0.906418145 0.090214834
v -0.021231703 0.614095628 0.088070288
v 0.135969847 0.641148150 0.075288102
v 0.034597732 0.892230988 0.086722627
v 0.089889653 0.600155711 0.086208165
v 0.077138573 0.613373399 0.086476758
v 0.111860834 0.612335920 0.083379112
v 0.048672233 0.815237522 -0.139217615
v 0.132309705 0.618643999 0.078108273
v 0.058011185 0.615089357 0.086928241
v 0.194357485 0.613796651 0.011314908
v 0.125949532 0.835632503 0.069609500
v 0.113689288 0.852265000 0.071783938
v 0.183339700 0.868288159 0.012099711
v 0.114972018 0.633503914 0.081204668
v 0.189981714 0.870463252 -0.017635720
v 0.189023867 0.864230275 -0.045076035
v 0.053357385 0.889916122 0.084154315
v 0.094931550 0.643612266 0.083389170
v 0.117123567 0.657717526 0.079028137
v 0.178021818 0.871533096 -0.066979751
v 0.167530119 0.881665587 -0.084522344
v 0.094640687 0.622820973 0.084774256
v 0.163621694 0.871268272 -0.096309014
v 0.183157802 0.611910582 -0.064770304
v 0.164930210 0.620456398 -0.079969361
v 0.072282627 0.651921868 0.085114323
v 0.152606547 0.621166587 -0.105877101
v 0.139119536 0.872959435 -0.123809315
v 0.075086266 0.631332874 0.085702211
v 0.117232621 0.701832414 0.077856012
v 0.152229562 0.623742819 0.069864385
v 0.182049572 0.617431521 0.046358377
v 0.189801559 0.625631094 0.027618881
v 0.204077393 0.703123987 -0.038242627
v 0.153521627 0.707545996 -0.096667223
v 0.053102642 0.633841395 0.086588904
v 0.139274150 0.695883512 -0.108682036
v 0.203525990 0.625651121 -0.027727177
v 0.204397276 0.620665193 -0.006498682
v 0.038523003 0.666047990 0.086792544
v 0.013087429 0.685021877 0.087152705
v 0.095027134 0.859143853 0.076297939
v 0.071958996 0.888721764 0.080804795
v 0.018869683 0.703133285 0.086306646
v 0.036994021 0.797675371 0.083710819
v 0.023610231 0.776816964 0.084363095
v 0.021736557 0.616717398 -0.124588564
v 0.060612999 0.871379733 0.082400694
v 0.039616995 0.655241370 -0.128632456
v 0.034515284 0.845965862 0.084968314
v 0.048872299 0.856528103 0.083815545
v 0.016177040 0.845066905 0.085749760
v 0.037212275 0.599301934 -0.123787738
v 0.058686782 0.661818624 -0.128865704
v 0.082046583 0.766836762 0.082116090
v 0.201059178 0.704566658 0.029084262
v 0.197145194 0.793986440 -0.060835849
v 0.061948251 0.599764347 -0.123581313
v 0.168427929 0.698814154 -0.083309509
v 0.122626171 0.773590028 -0.114322469
v 0.120604575 0.701750636 -0.117688738
v 0.088132411 0.600073397 -0.122613274
v 0.052578639 0.699183822 -0.131718814
v 0.038247962 0.751834393 -0.136170059
v 0.126296580 0.618044257 -0.115607262
v 0.112915277 0.600135148 -0.118449055
v 0.102806389 0.882435322 -0.142334655
v 0.079013348 0.870346248 0.079363622
v 0.073280133 0.848402977 0.080832966
v 0.137508750 0.599570870 -0.112193190
v 0.028628582 0.830058873 0.084358305
v 0.045977928 0.816993415 0.082957633
v 0.081104569 0.883667588 -0.147954509
v 0.160603687 0.600661159 -0.099613637
v 0.175657660 0.762191117 -0.086862102
v 0.023270248 0.805989444 -0.141804934
v 0.168665081 0.655911803 -0.082281217
v 0.166937947 0.599298239 -0.076531120
v 0.018339481 0.683348298 -0.131216154
v 0.182498068 0.594244421 -0.064327560
v 0.030918634 0.770452857 -0.138128251
v 0.185814649 0.599891007 -0.044987381
v 0.198420092 0.609938920 -0.035013471
v 0.067160137 0.728477716 0.083603725
v 0.108018972 0.860144734 -0.138494790
v 0.088054404 0.863805890 -0.145903975
v 0.018632526 0.751305819 -0.137228146
v 0.206628114 0.605655789 -0.019098386
v 0.128475577 0.663275540 -0.116739169
v 0.206846744 0.661858439 -0.009138020
v 0.194475487 0.646919429 0.025236536
v 0.158674181 0.661918223 -0.094112694
v 0.146155998 0.663407505 -0.107089557
v 0.184631318 0.602832854 0.029320892
v 0.164064974 0.830890298 0.060041677
v 0.200423598 0.830325603 0.012604535
v 0.195196494 0.666288495 -0.045355801
v 0.048525624 0.618522823 -0.124677896
v 0.163731545 0.605518341 0.057574976
v 0.093237959 0.751252532 0.081594780
v 0.204666063 0.674882412 0.003833464
v 0.199244693 0.668136895 0.022217821
v 0.094258837 0.673419833 -0.126634270
v 0.147191465 0.599921346 0.072007850
v 0.116900548 0.818991780 -0.119143963
v -0.001265816 0.750176549 0.085423090
v -0.001863082 0.671892703 0.087646469
v 0.057703532 0.666338742 0.085917346
v 0.127451748 0.598225057 0.080715492
v 0.142629832 0.821678519 -0.108775213
v -0.001513214 0.718924105 0.085946716
v -0.001152918 0.765782416 0.084898517
v 0.108679496 0.594081759 0.085317455
v 0.021781724 0.813010991 0.084026426
v -0.000786070 0.812673688 0.084348395
v 0.112880014 0.872829556 0.070355013
v 0.067381524 0.597399890 0.086998396
v 0.110859916 0.892917752 0.070677452
v 0.196259230 0.600618899 -0.004372974
v 0.110774957 0.754476905 0.080148332
v 0.036886550 0.887551606 -0.148416758
v 0.044551760 0.597573638 0.087137625
v 0.068293318 0.849170089 -0.143731564
v 0.020228682 0.600178659 0.087426499
v 0.036619097 0.618491530 0.087289035
v 0.042233869 0.791414201 -0.138439104
v 0.015873145 0.795672238 0.084468633
v 0.017538611 0.662995160 0.087438315
v -0.001983750 0.656174958 0.087814093
v -0.001624838 0.703267694 0.086530551
v 0.201696962 0.594520807 -0.031791098
v -0.001735456 0.687591970 0.087220974
v 0.075539164 0.622694969 -0.124554217
v 0.088205948 0.743917823 -0.127911806
v 0.106905207 0.756419301 -0.121394768
v 0.162298828 0.749928951 0.067905240
v 0.102230154 0.718050122 0.081395343
v 0.166030079 0.726259947 0.065153114
v 0.102666184 0.619750440 -0.121360227
v 0.190981090 0.595203876 0.012399031
f 555 540 123
f 389 162 497
f 567 540 568
f 583 104 251
f 463 489 430
f 453 94 255
f 483 484 162
f 446 640 671
f 574 577 251
f 50 244 238
f 52 244 50
f 575 57 53
f 55 249 52
f 55 2 250
f 577 248 563
f 575 437 432
f 57 597 589
f 2 265 262
f 589 592 57
f 262 259 2
f 5 267 262
f 602 606 589
f 5 9 11
f 58 606 610
f 11 272 5
f 12 278 11
f 565 793 8
f 630 60 632
f 13 425 12
f 424 289 160
f 289 424 13
f 643 649 60
f 181 403 179
f 483 206 484
f 163 651 174
f 53 563 558
f 651 65 650
f 163 389 384
f 683 66 65
f 455 558 563
f 165 384 171
f 340 331 34
f 67 66 683
f 206 470 63
f 385 102 856
f 67 702 70
f 344 340 696
f 179 403 406
f 710 70 702
f 16 352 14
f 111 112 59
f 63 64 655
f 18 368 16
f 710 742 753
f 119 112 111
f 394 671 545
f 551 922 903
f 19 375 18
f 753 740 711
f 406 470 179
f 261 615 108
f 545 453 439
f 178 386 530
f 24 386 23
f 72 753 742
f 26 396 24
f 768 765 72
f 119 142 112
f 32 63 470
f 112 142 161
f 399 400 396
f 154 343 182
f 545 671 448
f 399 415 400
f 768 770 765
f 32 406 410
f 418 415 399
f 770 183 777
f 387 300 166
f 415 418 422
f 105 86 299
f 169 42 839
f 170 142 119
f 173 172 705
f 329 638 343
f 134 738 737
f 185 638 329
f 692 661 145
f 150 74 741
f 637 345 873
f 132 145 661
f 170 184 142
f 138 495 760
f 138 136 188
f 136 194 188
f 201 87 194
f 270 87 205
f 216 49 210
f 46 216 724
f 198 184 170
f 43 96 907
f 219 39 218
f 45 43 41
f 224 37 219
f 498 224 514
f 86 105 342
f 225 36 514
f 378 107 110
f 80 233 107
f 22 41 43
f 198 217 849
f 41 581 45
f 103 233 76
f 76 40 103
f 222 217 214
f 678 100 40
f 98 41 22
f 366 41 98
f 40 76 678
f 215 4 284
f 215 98 21
f 537 536 92
f 222 234 217
f 904 537 92
f 460 462 30
f 284 471 366
f 222 239 246
f 586 903 759
f 462 28 30
f 246 234 222
f 454 449 28
f 237 391 924
f 560 319 921
f 246 888 252
f 431 471 282
f 455 560 391
f 319 560 241
f 50 238 793
f 50 566 52
f 52 574 55
f 258 263 510
f 244 52 249
f 55 253 2
f 284 792 657
f 303 670 667
f 303 100 674
f 250 249 55
f 273 274 252
f 251 253 574
f 100 303 301
f 301 570 100
f 104 261 257
f 677 100 678
f 273 285 274
f 257 2 253
f 2 257 265
f 250 2 259
f 570 568 40
f 752 292 293
f 294 296 285
f 285 296 274
f 684 497 679
f 277 274 296
f 440 447 442
f 579 489 463
f 692 329 695
f 259 262 267
f 871 736 360
f 262 271 9
f 40 100 570
f 570 567 568
f 203 128 270
f 310 296 294
f 305 296 310
f 87 270 194
f 9 5 262
f 5 272 600
f 276 9 271
f 9 276 11
f 272 11 278
f 302 323 310
f 568 103 40
f 108 615 89
f 280 11 276
f 11 280 12
f 103 568 540
f 278 12 425
f 323 337 328
f 283 12 280
f 12 283 13
f 283 297 289
f 289 13 283
f 540 561 231
f 425 13 424
f 209 288 205
f 291 125 286
f 346 337 323
f 49 304 288
f 173 350 351
f 297 654 314
f 347 158 864
f 304 47 311
f 47 304 49
f 47 46 481
f 360 361 855
f 501 684 146
f 481 311 47
f 46 39 481
f 343 695 329
f 314 289 297
f 289 314 160
f 481 321 308
f 481 39 321
f 325 122 321
f 325 321 37
f 37 321 39
f 333 160 314
f 324 266 333
f 527 107 231
f 84 121 325
f 36 327 498
f 160 333 34
f 327 120 84
f 36 82 371
f 277 393 390
f 689 34 333
f 34 689 340
f 313 34 331
f 266 334 689
f 334 260 341
f 340 335 331
f 107 527 110
f 54 404 405
f 696 14 344
f 61 401 44
f 38 299 407
f 358 14 348
f 14 358 16
f 344 14 352
f 356 704 712
f 352 16 368
f 413 62 417
f 370 16 358
f 16 370 18
f 175 705 134
f 713 115 110
f 371 27 378
f 27 371 82
f 381 18 370
f 18 381 19
f 368 18 375
f 80 378 27
f 19 381 235
f 19 395 23
f 19 23 178
f 202 506 913
f 23 395 24
f 386 24 396
f 398 24 395
f 24 398 26
f 26 398 220
f 26 412 399
f 396 26 399
f 418 399 412
f 164 180 444
f 444 443 164
f 175 173 705
f 685 84 120
f 422 300 415
f 685 121 84
f 172 169 300
f 172 300 422
f 78 80 27
f 226 365 78
f 89 615 114
f 240 485 309
f 134 737 175
f 226 27 82
f 245 459 452
f 187 186 140
f 243 459 245
f 189 187 130
f 581 466 579
f 467 472 637
f 308 122 240
f 138 579 466
f 430 255 463
f 499 435 430
f 453 430 435
f 435 440 439
f 435 499 450
f 243 479 281
f 308 321 122
f 897 438 584
f 439 453 435
f 243 281 893
f 450 440 435
f 480 859 865
f 440 449 447
f 442 439 440
f 450 449 440
f 447 449 454
f 492 488 493
f 127 458 456
f 449 456 28
f 82 225 708
f 454 28 462
f 28 456 30
f 456 450 127
f 30 456 458
f 225 82 36
f 30 464 460
f 506 507 502
f 126 469 125
f 287 508 509
f 207 507 506
f 410 460 32
f 126 306 477
f 460 464 644
f 644 32 460
f 32 644 63
f 475 31 576
f 470 406 32
f 64 63 644
f 306 309 477
f 125 464 458
f 528 795 511
f 516 523 524
f 655 206 63
f 206 655 484
f 206 474 470
f 162 679 497
f 316 322 822
f 313 160 34
f 37 498 325
f 523 316 534
f 497 684 501
f 501 146 505
f 146 512 503
f 505 503 513
f 263 515 510
f 512 120 115
f 503 512 91
f 517 513 503
f 115 713 91
f 458 203 125
f 315 547 548
f 91 512 115
f 547 330 336
f 91 713 88
f 517 88 522
f 552 548 547
f 532 88 713
f 88 532 519
f 552 336 553
f 522 519 541
f 527 231 561
f 127 128 458
f 538 660 692
f 514 36 498
f 224 498 37
f 538 692 695
f 114 626 631
f 553 342 105
f 219 37 39
f 555 660 561
f 127 450 499
f 891 199 824
f 660 555 661
f 218 39 46
f 199 97 886
f 366 98 284
f 22 21 98
f 41 366 581
f 43 232 22
f 907 232 43
f 96 536 907
f 45 463 255
f 45 581 463
f 255 94 96
f 255 96 45
f 94 453 545
f 448 546 545
f 582 593 594
f 595 584 438
f 216 46 47
f 216 47 49
f 551 640 558
f 558 640 569
f 49 288 209
f 793 565 50
f 569 53 558
f 566 50 565
f 209 210 49
f 841 351 350
f 574 52 566
f 578 53 57
f 612 609 423
f 53 578 563
f 575 53 569
f 597 432 211
f 253 55 574
f 57 575 597
f 578 57 592
f 592 583 578
f 627 609 612
f 584 621 628
f 603 589 606
f 602 589 597
f 634 819 627
f 610 606 602
f 835 318 229
f 626 606 58
f 610 624 58
f 58 624 630
f 632 58 630
f 634 884 869
f 58 632 626
f 60 642 632
f 642 60 649
f 60 630 181
f 650 649 643
f 662 652 645
f 656 628 621
f 621 636 656
f 658 659 204
f 64 644 469
f 466 495 138
f 694 377 700
f 468 471 431
f 663 650 65
f 628 656 668
f 679 162 484
f 65 686 663
f 672 673 659
f 686 65 66
f 683 65 651
f 468 431 478
f 683 693 67
f 685 146 684
f 146 685 512
f 696 340 689
f 66 67 701
f 473 495 478
f 66 698 686
f 702 67 693
f 668 675 687
f 701 698 66
f 405 690 54
f 701 67 70
f 54 690 564
f 14 696 348
f 711 70 710
f 699 70 711
f 702 709 710
f 229 318 236
f 657 282 471
f 710 709 742
f 753 756 740
f 756 753 72
f 742 754 72
f 72 754 768
f 72 765 756
f 766 765 770
f 490 193 496
f 130 772 496
f 770 776 766
f 15 719 168
f 87 201 148
f 183 770 768
f 201 194 136
f 422 705 172
f 633 777 338
f 777 633 150
f 408 74 633
f 638 185 408
f 106 730 258
f 688 379 694
f 275 631 118
f 185 692 145
f 197 750 749
f 736 737 738
f 263 258 730
f 738 741 743
f 185 145 143
f 743 741 744
f 744 741 74
f 744 467 879
f 132 140 145
f 123 132 661
f 741 738 150
f 123 540 567
f 773 772 567
f 738 134 150
f 78 27 226
f 238 623 1
f 264 279 779
f 776 150 134
f 134 705 420
f 695 541 538
f 104 599 261
f 365 681 680
f 761 762 763
f 365 678 76
f 76 78 365
f 411 156 420
f 156 411 220
f 541 519 538
f 220 764 156
f 76 233 78
f 80 78 233
f 168 789 387
f 70 699 701
f 398 395 228
f 434 437 445
f 779 780 887
f 428 432 434
f 926 317 706
f 197 749 745
f 213 6 4
f 279 785 780
f 419 427 428
f 148 201 745
f 454 462 419
f 526 782 783
f 381 734 235
f 410 414 419
f 493 769 913
f 511 4 215
f 4 511 213
f 406 414 410
f 208 731 729
f 21 511 215
f 210 728 727
f 794 800 823
f 511 21 529
f 470 474 179
f 724 218 46
f 227 110 115
f 118 280 275
f 219 218 722
f 806 800 794
f 803 804 256
f 716 778 225
f 224 219 720
f 407 86 690
f 356 734 381
f 389 497 380
f 809 795 528
f 810 806 811
f 717 716 514
f 497 501 380
f 317 697 429
f 810 818 821
f 913 771 202
f 341 698 699
f 373 376 159
f 369 177 373
f 341 260 698
f 260 334 266
f 365 226 681
f 517 522 354
f 828 821 818
f 354 362 364
f 569 640 446
f 519 522 88
f 767 828 818
f 266 324 676
f 602 597 211
f 804 834 256
f 121 240 122
f 345 868 918
f 610 602 211
f 169 839 166
f 427 195 211
f 643 179 174
f 683 651 165
f 693 683 171
f 627 884 634
f 324 654 676
f 846 397 841
f 841 397 374
f 362 709 369
f 580 397 846
f 192 188 190
f 192 499 489
f 128 192 190
f 270 205 203
f 205 288 286
f 291 306 126
f 208 148 733
f 288 304 291
f 304 311 306
f 311 481 308
f 286 125 203
f 283 118 297
f 589 599 592
f 283 280 118
f 227 115 120
f 747 805 732
f 707 226 82
f 107 378 80
f 275 114 631
f 118 646 297
f 89 114 275
f 231 233 103
f 87 209 205
f 816 872 870
f 271 108 89
f 248 560 455
f 248 241 560
f 108 271 265
f 566 565 241
f 86 876 690
f 622 244 619
f 517 91 88
f 574 566 248
f 715 662 889
f 244 249 618
f 249 250 614
f 882 465 718
f 253 251 257
f 774 465 882
f 250 259 608
f 883 494 774
f 921 391 560
f 259 267 604
f 54 564 847
f 251 577 583
f 600 267 5
f 89 276 271
f 503 91 517
f 690 405 407
f 275 276 89
f 892 573 582
f 272 278 596
f 248 577 574
f 280 276 275
f 425 588 591
f 425 424 781
f 781 313 572
f 424 313 781
f 572 585 781
f 314 654 324
f 136 197 201
f 313 557 572
f 237 551 558
f 554 331 335
f 334 341 348
f 760 136 138
f 335 344 549
f 341 699 704
f 348 696 334
f 921 319 7
f 358 348 704
f 344 352 544
f 912 582 594
f 903 586 551
f 352 368 543
f 381 370 356
f 368 375 539
f 788 8 3
f 535 375 178
f 221 795 809
f 828 767 562
f 559 833 920
f 921 920 899
f 546 448 898
f 903 922 836
f 38 903 299
f 235 228 395
f 405 669 407
f 546 92 94
f 400 518 520
f 92 546 904
f 639 35 926
f 386 396 525
f 927 926 33
f 928 605 930
f 200 490 298
f 94 545 546
f 96 92 536
f 927 56 852
f 143 472 408
f 220 412 26
f 400 520 521
f 412 220 411
f 109 113 152
f 920 832 559
f 418 412 411
f 152 113 746
f 387 789 786
f 420 418 411
f 746 161 867
f 418 420 422
f 490 773 298
f 496 772 773
f 394 442 445
f 562 767 832
f 739 636 820
f 204 725 658
f 773 490 496
f 725 223 635
f 447 454 428
f 472 186 637
f 215 284 98
f 189 130 496
f 458 464 30
f 410 462 460
f 125 469 464
f 635 247 487
f 487 269 629
f 641 487 629
f 268 269 487
f 269 393 629
f 390 269 268
f 469 126 64
f 349 761 763
f 655 64 477
f 303 674 670
f 290 393 277
f 611 290 928
f 163 474 483
f 928 307 605
f 635 641 648
f 531 605 533
f 677 674 100
f 477 309 485
f 506 202 207
f 679 485 240
f 240 121 684
f 312 912 594
f 684 679 240
f 121 685 684
f 186 187 345
f 503 505 146
f 912 332 892
f 772 130 132
f 685 120 512
f 501 505 159
f 725 648 658
f 505 513 373
f 513 517 364
f 892 847 564
f 110 527 713
f 714 847 339
f 522 541 154
f 51 714 346
f 231 103 540
f 714 51 404
f 541 695 343
f 567 772 123
f 502 500 506
f 578 577 563
f 867 659 673
f 577 578 583
f 597 575 432
f 592 104 583
f 913 492 493
f 845 167 839
f 599 104 592
f 386 178 23
f 599 603 615
f 110 227 378
f 615 261 599
f 706 402 639
f 603 626 114
f 132 123 772
f 624 610 195
f 409 706 317
f 746 673 682
f 114 615 603
f 120 327 227
f 624 414 403
f 691 429 697
f 642 631 632
f 642 118 631
f 429 433 853
f 646 118 642
f 642 649 646
f 152 682 691
f 682 433 691
f 181 643 60
f 654 297 646
f 122 325 121
f 140 130 187
f 421 416 617
f 123 661 555
f 309 308 240
f 698 260 686
f 702 693 177
f 698 701 699
f 672 441 436
f 291 126 125
f 109 691 697
f 143 140 186
f 874 872 816
f 665 441 672
f 188 192 489
f 665 658 653
f 712 704 699
f 653 451 665
f 927 697 317
f 712 740 734
f 648 461 653
f 178 375 19
f 923 880 116
f 641 461 648
f 740 756 748
f 748 758 228
f 926 706 639
f 479 641 482
f 754 742 362
f 354 754 362
f 407 669 38
f 203 458 128
f 482 629 620
f 756 765 758
f 182 754 154
f 128 127 192
f 254 246 252
f 611 382 620
f 764 398 228
f 499 192 127
f 764 766 156
f 766 776 156
f 930 611 928
f 420 156 776
f 140 132 130
f 788 7 8
f 387 166 168
f 420 776 134
f 136 760 197
f 300 387 415
f 750 197 760
f 745 201 197
f 148 208 209
f 733 148 745
f 258 35 106
f 593 533 605
f 731 208 733
f 236 318 910
f 729 210 208
f 728 210 729
f 727 216 210
f 188 489 579
f 929 573 556
f 724 216 727
f 573 929 582
f 723 218 724
f 722 218 723
f 720 219 722
f 717 224 720
f 514 224 717
f 188 579 138
f 876 556 573
f 707 681 226
f 898 904 546
f 472 143 186
f 212 795 221
f 899 391 921
f 854 925 931
f 213 795 212
f 140 143 145
f 404 54 714
f 833 922 924
f 415 387 786
f 143 408 185
f 238 3 793
f 1 3 238
f 31 799 752
f 622 238 244
f 918 799 515
f 380 376 171
f 915 752 357
f 617 476 421
f 619 244 618
f 618 249 616
f 616 249 614
f 636 739 613
f 388 613 10
f 614 250 608
f 357 791 915
f 383 688 388
f 608 259 607
f 571 438 576
f 295 667 666
f 92 96 94
f 607 259 604
f 372 726 700
f 667 295 303
f 367 726 372
f 604 267 601
f 298 295 207
f 923 875 880
f 363 732 367
f 408 467 74
f 148 209 87
f 298 301 295
f 359 747 363
f 601 267 600
f 359 355 755
f 600 272 598
f 598 272 596
f 353 755 355
f 301 298 773
f 596 278 591
f 747 755 751
f 591 278 425
f 588 425 781
f 388 688 813
f 769 771 913
f 763 353 349
f 202 771 200
f 506 500 913
f 74 467 744
f 773 570 301
f 82 708 707
f 320 647 326
f 500 492 913
f 331 554 557
f 242 910 320
f 344 335 340
f 910 908 647
f 554 335 550
f 239 222 703
f 549 550 335
f 549 344 544
f 166 167 168
f 544 352 543
f 543 368 542
f 17 15 167
f 17 845 157
f 907 536 919
f 157 850 155
f 155 850 153
f 542 368 539
f 150 633 74
f 153 854 151
f 151 854 149
f 149 858 147
f 147 862 144
f 539 375 535
f 759 903 38
f 530 535 178
f 144 862 141
f 141 866 139
f 139 866 137
f 530 386 525
f 137 870 135
f 525 396 521
f 135 870 872
f 133 872 131
f 131 874 129
f 129 923 117
f 923 874 875
f 170 119 902
f 521 396 400
f 20 932 101
f 99 101 932
f 99 886 97
f 95 97 199
f 95 891 93
f 93 896 90
f 518 400 786
f 90 896 85
f 85 901 83
f 83 905 81
f 169 166 300
f 81 905 79
f 77 79 796
f 77 909 75
f 439 394 545
f 75 914 73
f 73 914 71
f 71 916 69
f 442 394 439
f 468 466 366
f 442 447 434
f 7 562 920
f 794 534 811
f 924 899 833
f 434 447 428
f 428 454 419
f 419 462 410
f 38 898 759
f 902 111 897
f 466 468 495
f 526 524 534
f 25 59 56
f 96 43 45
f 895 401 61
f 182 343 338
f 483 389 163
f 483 162 389
f 897 59 25
f 883 894 775
f 776 777 150
f 59 897 111
f 380 384 389
f 774 882 893
f 111 902 119
f 778 708 225
f 501 159 380
f 167 166 839
f 159 505 373
f 176 191 867
f 373 513 369
f 364 369 513
f 850 890 925
f 354 364 517
f 354 522 154
f 177 369 709
f 154 541 343
f 446 445 437
f 376 380 159
f 204 223 725
f 217 198 214
f 214 703 222
f 437 569 446
f 610 211 195
f 414 624 195
f 403 630 624
f 889 718 715
f 160 313 424
f 181 630 403
f 888 246 239
f 179 643 181
f 174 650 643
f 651 650 174
f 163 384 165
f 487 247 268
f 165 651 163
f 171 683 165
f 174 474 163
f 557 313 331
f 475 515 799
f 376 693 171
f 285 273 757
f 177 693 376
f 627 885 884
f 174 179 474
f 509 508 516
f 294 302 310
f 709 702 177
f 709 362 742
f 154 754 354
f 182 338 183
f 780 785 803
f 183 768 182
f 423 413 881
f 183 338 777
f 638 338 343
f 633 638 408
f 590 401 895
f 692 185 329
f 190 188 194
f 515 475 25
f 270 190 194
f 190 270 128
f 195 427 414
f 7 788 562
f 915 878 571
f 877 595 438
f 203 205 286
f 44 48 61
f 474 206 483
f 210 209 208
f 61 62 895
f 413 895 62
f 211 432 427
f 172 42 169
f 398 764 220
f 515 263 918
f 437 575 569
f 228 758 764
f 124 885 426
f 175 871 350
f 84 498 327
f 225 514 716
f 327 371 227
f 918 263 730
f 898 448 759
f 371 327 36
f 839 374 890
f 227 371 378
f 451 441 665
f 228 235 748
f 444 180 457
f 233 231 107
f 187 868 345
f 759 448 586
f 189 292 868
f 734 748 235
f 653 461 826
f 924 922 237
f 292 193 196
f 446 671 394
f 461 641 479
f 922 551 237
f 391 237 455
f 482 641 629
f 918 868 799
f 196 200 293
f 771 293 200
f 558 455 237
f 281 287 894
f 894 893 281
f 248 566 241
f 257 251 104
f 255 430 453
f 257 261 265
f 509 775 287
f 260 266 676
f 509 516 524
f 265 261 108
f 523 516 531
f 322 316 523
f 273 252 888
f 265 271 262
f 811 534 316
f 316 315 811
f 676 686 260
f 366 466 581
f 478 495 468
f 330 547 315
f 547 336 552
f 366 471 468
f 760 495 473
f 657 471 284
f 336 342 553
f 553 900 552
f 832 900 553
f 865 878 791
f 792 284 4
f 31 571 576
f 286 288 291
f 438 571 877
f 906 864 863
f 4 790 792
f 8 7 319
f 303 295 301
f 291 304 306
f 570 773 567
f 739 617 392
f 617 416 392
f 306 311 309
f 309 311 308
f 170 628 668
f 613 739 10
f 739 392 10
f 656 675 668
f 656 815 675
f 680 678 365
f 813 613 388
f 324 333 314
f 687 198 668
f 379 688 383
f 295 666 207
f 815 656 636
f 377 694 379
f 325 498 84
f 689 333 266
f 334 696 689
f 700 377 372
f 861 834 860
f 703 721 239
f 732 726 367
f 834 861 256
f 348 341 704
f 747 732 363
f 356 358 704
f 735 888 721
f 370 358 356
f 735 264 757
f 735 273 888
f 755 747 359
f 369 364 362
f 353 763 755
f 647 761 326
f 761 349 326
f 376 373 177
f 779 757 264
f 780 779 279
f 384 380 171
f 235 395 19
f 736 871 737
f 562 788 917
f 910 647 320
f 785 804 803
f 414 406 403
f 256 323 803
f 813 675 815
f 415 786 400
f 427 419 414
f 422 420 705
f 432 428 427
f 430 489 499
f 587 580 590
f 437 434 432
f 445 442 434
f 446 394 445
f 671 586 448
f 819 609 627
f 456 449 450
f 455 563 248
f 865 791 769
f 581 579 463
f 645 652 817
f 644 464 469
f 652 662 715
f 874 923 129
f 715 664 652
f 694 812 688
f 477 64 126
f 750 760 473
f 485 655 477
f 465 715 718
f 507 207 666
f 465 774 494
f 865 486 480
f 812 675 813
f 485 484 655
f 207 202 298
f 883 504 825
f 493 865 769
f 783 782 504
f 679 484 485
f 202 200 298
f 196 490 200
f 196 193 490
f 877 859 476
f 302 803 323
f 189 496 193
f 814 806 810
f 168 719 789
f 821 814 810
f 391 899 924
f 713 527 532
f 467 408 472
f 302 294 887
f 786 787 518
f 538 519 532
f 561 532 527
f 926 35 33
f 538 532 660
f 540 555 561
f 551 586 640
f 319 241 565
f 660 532 561
f 113 161 746
f 161 176 867
f 8 319 565
f 223 247 635
f 781 585 784
f 620 629 393
f 887 780 302
f 269 390 393
f 671 640 586
f 781 784 588
f 599 589 603
f 393 290 611
f 626 603 606
f 928 290 305
f 623 238 622
f 625 1 623
f 774 893 894
f 312 332 912
f 626 632 631
f 332 339 847
f 847 892 332
f 757 887 285
f 847 714 54
f 793 3 8
f 732 807 726
f 858 931 857
f 675 812 687
f 168 167 15
f 273 735 757
f 920 921 7
f 402 385 639
f 167 845 17
f 638 633 338
f 646 649 663
f 650 663 649
f 845 850 157
f 888 239 721
f 663 654 646
f 706 409 48
f 850 854 153
f 676 654 663
f 429 409 317
f 661 692 660
f 854 858 149
f 676 663 686
f 858 862 147
f 433 429 691
f 678 680 677
f 699 711 712
f 712 734 356
f 711 710 753
f 862 866 141
f 712 711 740
f 682 436 827
f 734 740 748
f 866 870 137
f 214 687 808
f 748 756 758
f 664 816 652
f 872 133 135
f 198 687 214
f 754 182 768
f 872 874 131
f 665 659 658
f 758 765 766
f 658 648 653
f 766 764 758
f 776 770 777
f 668 198 170
f 117 923 116
f 787 786 789
f 929 330 822
f 533 822 322
f 556 336 330
f 531 322 523
f 899 920 833
f 662 444 889
f 346 323 256
f 491 482 620
f 116 880 911
f 911 20 116
f 382 491 620
f 911 932 20
f 932 886 99
f 645 443 662
f 930 382 611
f 382 930 516
f 886 824 199
f 605 531 930
f 491 508 848
f 628 170 902
f 256 347 346
f 482 848 479
f 891 896 93
f 347 256 861
f 820 617 739
f 866 819 817
f 605 594 593
f 896 901 85
f 929 593 582
f 612 881 885
f 901 905 83
f 826 451 653
f 451 457 180
f 672 659 665
f 441 180 851
f 79 905 796
f 436 673 672
f 436 851 827
f 909 914 75
f 682 673 436
f 914 916 71
f 584 902 897
f 876 86 342
f 69 916 1
f 829 433 827
f 700 808 694
f 788 3 916
f 853 829 417
f 409 61 48
f 402 48 855
f 870 817 816
f 855 29 360
f 874 816 664
f 385 361 102
f 830 880 875
f 576 897 25
f 819 634 817
f 68 69 1
f 106 856 730
f 743 736 738
f 910 242 236
f 862 857 819
f 744 879 102
f 880 830 831
f 840 528 843
f 401 846 44
f 803 302 780
f 769 791 357
f 878 915 791
f 831 911 880
f 918 873 345
f 576 25 475
f 799 31 475
f 841 29 846
f 879 856 102
f 106 639 385
f 573 564 876
f 911 831 802
f 342 556 876
f 337 339 332
f 25 510 515
f 350 29 841
f 564 573 892
f 892 582 912
f 510 25 56
f 864 906 837
f 312 328 337
f 929 822 593
f 33 35 258
f 871 360 29
f 840 860 835
f 864 158 863
f 29 855 44
f 916 914 917
f 808 687 812
f 594 307 312
f 307 305 328
f 916 917 788
f 33 56 927
f 840 835 809
f 307 594 605
f 736 743 361
f 531 516 930
f 290 277 305
f 852 109 927
f 318 835 860
f 21 844 529
f 852 59 112
f 620 393 611
f 102 743 744
f 112 113 852
f 751 763 762
f 647 785 762
f 805 747 751
f 252 268 254
f 230 835 229
f 487 641 635
f 637 879 467
f 124 851 164
f 809 230 221
f 161 142 176
f 807 732 805
f 247 234 254
f 230 809 835
f 808 700 807
f 345 637 186
f 176 184 191
f 812 694 808
f 204 849 223
f 849 204 191
f 813 688 812
f 635 648 725
f 849 184 198
f 815 613 813
f 815 636 613
f 217 223 849
f 659 191 204
f 217 234 223
f 191 184 849
f 859 480 421
f 795 213 511
f 245 461 243
f 878 865 859
f 802 886 932
f 191 659 867
f 452 718 889
f 223 234 247
f 176 142 184
f 246 254 234
f 865 493 486
f 293 771 357
f 268 247 254
f 771 769 357
f 805 264 735
f 268 252 390
f 161 113 112
f 486 493 488
f 390 252 274
f 867 673 746
f 264 751 279
f 274 277 390
f 746 682 152
f 281 848 287
f 827 433 682
f 808 703 214
f 152 691 109
f 109 852 113
f 476 859 421
f 296 305 277
f 476 595 877
f 305 307 928
f 196 293 292
f 595 476 820
f 726 807 700
f 752 293 357
f 307 328 312
f 310 328 305
f 56 59 852
f 292 752 799
f 328 310 323
f 886 825 824
f 312 337 332
f 807 703 808
f 891 824 782
f 193 292 189
f 844 21 22
f 429 853 409
f 109 697 927
f 56 33 510
f 105 559 553
f 339 337 346
f 346 714 339
f 51 346 347
f 317 926 927
f 564 690 876
f 863 844 232
f 799 868 292
f 510 33 258
f 843 528 529
f 844 863 842
f 861 840 843
f 861 158 347
f 861 860 840
f 752 915 31
f 158 843 842
f 843 158 861
f 842 529 844
f 919 837 906
f 906 232 907
f 809 528 840
f 730 873 918
f 730 856 873
f 873 856 879
f 856 106 385
f 817 634 645
f 837 919 838
f 817 652 816
f 919 906 907
f 919 536 537
f 743 102 361
f 904 669 838
f 898 669 904
f 669 898 38
f 703 807 721
f 405 404 838
f 669 405 838
f 922 833 836
f 294 285 887
f 361 385 402
f 869 645 634
f 830 875 664
f 916 3 1
f 864 51 347
f 402 855 361
f 909 801 914
f 397 890 374
f 48 44 855
f 796 909 77
f 879 637 873
f 901 798 905
f 580 925 397
f 48 402 706
f 896 800 901
f 891 823 896
f 409 62 61
f 853 62 409
f 881 413 417
f 417 62 853
f 86 407 299
f 459 893 882
f 199 891 95
f 830 465 831
f 829 426 417
f 426 829 124
f 426 881 417
f 124 829 827
f 433 829 853
f 886 802 825
f 774 894 883
f 851 124 827
f 164 884 124
f 441 851 436
f 180 164 851
f 443 869 164
f 911 802 932
f 715 830 664
f 874 664 875
f 736 361 360
f 451 180 441
f 457 452 889
f 889 444 457
f 866 817 870
f 106 35 639
f 459 718 452
f 826 452 457
f 452 826 245
f 451 826 457
f 862 819 866
f 858 857 862
f 461 245 826
f 459 882 718
f 479 243 461
f 854 931 858
f 850 925 854
f 846 401 580
f 845 890 850
f 491 848 482
f 848 281 479
f 825 494 883
f 382 508 491
f 900 832 767
f 508 287 848
f 896 823 800
f 839 890 845
f 504 782 824
f 42 374 839
f 516 508 382
f 908 910 318
f 534 524 523
f 552 818 548
f 42 172 173
f 901 800 798
f 818 552 900
f 533 322 531
f 871 175 737
f 868 187 189
f 22 232 844
f 593 822 533
f 822 315 316
f 929 556 330
f 330 315 822
f 838 919 537
f 904 838 537
f 318 860 834
f 908 318 834
f 465 830 715
f 556 342 336
f 105 836 559
f 833 559 836
f 29 44 846
f 908 834 804
f 562 917 828
f 299 836 105
f 818 900 767
f 832 553 559
f 562 832 920
f 811 315 548
f 828 801 821
f 801 828 917
f 821 797 814
f 836 299 903
f 401 590 580
f 797 821 801
f 905 798 796
f 796 814 797
f 810 548 818
f 814 798 806
f 798 814 796
f 909 796 797
f 811 548 810
f 413 587 590
f 404 51 837
f 51 864 837
f 837 838 404
f 909 797 801
f 529 842 843
f 158 842 863
f 232 906 863
f 800 806 798
f 529 528 511
f 794 811 806
f 785 908 804
f 785 647 908
f 859 877 878
f 526 534 794
f 877 571 878
f 571 31 915
f 173 351 42
f 524 783 509
f 350 173 175
f 29 350 871
f 823 526 794
f 783 524 526
f 526 823 782
f 42 351 374
f 841 374 351
f 504 775 783
f 509 783 775
f 782 823 891
f 885 124 884
f 887 757 779
f 914 801 917
f 426 885 881
f 890 397 925
f 825 504 824
f 775 504 883
f 925 587 931
f 587 925 580
f 802 494 825
f 785 279 762
f 494 831 465
f 831 494 802
f 894 287 775
f 590 895 413
f 438 897 576
f 884 164 869
f 762 279 751
f 423 931 587
f 587 413 423
f 931 423 857
f 762 761 647
f 617 820 476
f 595 820 621
f 751 755 763
f 893 459 243
f 751 264 805
f 609 857 423
f 423 881 612
f 662 443 444
f 721 805 735
f 621 584 595
f 857 609 819
f 443 645 869
f 612 885 627
f 636 621 820
f 628 902 584
f 805 721 807
