v 0.11155566931729402 -0.48433459521171468 0.11705759914521913
v -0.093727905696255331 -0.45110695821496788 0.096101901273712903
v 0.11141706558987194 -0.4578398401977351 0.11598936245664349
v 0.075036988121249773 -0.076820231560381397 0.095028887075921664
v -0.1755239990216475 -0.47818690681953013 0.10255464945091951
v 0.074335048528568037 -0.0469824059347351 0.093681791396066971
v 0.11001096646614048 -0.40903440472192565 0.11514176101550216
v 0.11090940678720407 -0.43309350451283474 0.1154991031528308
v -0.17787290952583398 -0.4501838253218694 0.10292059323413082
v 0.1475773956723514 -0.072398478426381863 -0.21333043395136758
v -0.20783563395798879 -0.45658311981526944 0.095088357579887831
v -0.23676460281035808 -0.45314641197196781 0.086796114521097395
v -0.25886163076913937 -0.45120124755535262 0.078835736976251
v -0.31449985171433692 -0.45490848299214054 -0.020529769556859395
v -0.11280462094092973 -0.51378974629322516 -0.15530828042733916
v -0.31415612671975557 -0.46112453214772559 -0.041801093082702911
v -0.084358974439518092 -0.51378547981792766 -0.14802757369121172
v -0.31041664848551481 -0.4610100158765072 -0.063615343333384228
v -0.29736188366509542 -0.45453703046653238 -0.082789884072582781
v 0.30510201009157567 -0.51424695976872226 -0.044363647654507531
v 0.079541360299585792 -0.12203348127700145 0.09676107097789971
v 0.082061599162436785 -0.14272971309251015 0.097881980291805948
v -0.28104622151295144 -0.46356749495236232 -0.095618488600505508
v -0.26522509179368531 -0.45622035091934138 -0.10855488907583896
v 0.056646243888243686 -0.20766532772298912 -0.2171328047265691
v -0.24700383321745784 -0.44535678561298264 -0.12161770433373231
v -0.25494991179257354 -0.13254803018114902 -0.13129659664478052
v -0.13670255911241364 -0.21734698437069389 0.094697742639460208
v -0.054818090339645784 -0.36900874234506187 -0.17192598804672107
v -0.15921775540316396 -0.20609251500978631 0.08708255203861677
v 0.0054676174935140986 -0.17418480334997294 -0.22323817583797884
v -0.21675594810261833 -0.23610426609121493 0.077225954321669843
v 0.043179969488801512 -0.25312295791294592 -0.20401308735064305
v -0.30308989124914099 -0.45855777525559077 0.038866230708250078
v 0.014116790676365426 -0.26750971939447776 -0.1990525361923981
v -0.26012608374936214 -0.12644229122000733 -0.090965015091077364
v -0.25747706123140618 -0.12540334148960894 -0.037141358826168931
v 0.124304824123543 -0.27629976086516783 0.10473685416651224
v -0.25030140814445218 -0.11678821176767118 -0.014797274368968133
v -0.20766758640028873 -0.13490920920766075 -0.1832126806899565
v 0.037210853056189909 -0.13770687918002913 0.091348746877997711
v -0.10985420767575996 -0.43058928076703756 -0.16672388087157838
v 0.056861617271032089 -0.16270314749039172 0.094619388040848407
v -0.0081242007302562425 -0.35907113169410221 -0.17123951497809395
v 0.022248274370550353 -0.16087877759010891 0.090221596339570415
v -0.23719606023385298 -0.10625522359201942 0.0046814037357442171
v -0.22919182740540295 -0.12296066300843866 0.021534208221528447
v 0.012340942467754468 -0.33072009986957274 -0.17873654330535108
v -0.2060216059143426 -0.11556890981342555 0.036780327976578896
v 0.044186883484994652 -0.4534643170285082 0.095451779311864604
v 0.17559683539818244 -0.19393521994545415 0.076945573700386044
v 0.0011310292019519885 -0.45248551679559001 0.089552066101725003
v -0.031042474678467824 -0.32840877602030272 0.090825129449228659
v 0.18526550392678134 -0.24165550865899121 0.087071210414332995
v -0.042345251765713826 -0.45385229555312734 0.089430428267958773
v 0.072226885427015691 -0.23524902025467584 -0.21055239510476087
v -0.076858902194984952 -0.33303712529838991 0.094125880712110588
v -0.19456138830596678 -0.32478900968730834 0.098893448028188446
v 0.1018582716543257 -0.21775098421172145 -0.21689763826185104
v -0.2474357461446908 -0.32858948335623667 0.085896297231921048
v 0.03624811901438077 -0.3520018587100644 -0.17326280050690107
v 0.078811218519161147 -0.35511384243064126 -0.17529911842457802
v -0.23790464452966498 -0.22458710856937364 0.064050249148351002
v -0.23018568250118532 -0.20091136620495195 0.057207218687543429
v -0.30586884992129659 -0.33266202208774909 0.037502244071196289
v -0.31225691160036467 -0.34183594928838124 0.0090831833421014391
v -0.31331998816844053 -0.32765938590935006 -0.015584614746865566
v 0.11177036361797983 -0.5150639488701606 0.11868671812738696
v 0.13518323674268679 -0.51457471604125116 0.11246509094341578
v -0.31502156580037621 -0.344700374764916 -0.039460943285784728
v 0.15781973113863967 -0.51458630288904827 0.10659320718665483
v -0.28989002443492867 -0.33583065963991698 -0.11141921005169608
v 0.17950983781755483 -0.51462506804223018 0.10211301722178259
v -0.16334961488965077 -0.30211573922378171 -0.1901491543804085
v 0.20025072944461425 -0.51457787466065397 0.097716212172703515
v -0.22520461812766362 -0.13212716427208826 -0.16735795698962486
v 0.21983429949993161 -0.51456684462710889 0.093094985804607872
v -0.24038822799055595 -0.13011661115051268 -0.15073698972480187
v 0.2380739122090515 -0.51454945984658618 0.087669102185264913
v -0.25140445655150667 -0.1478769278920278 -0.14142959244640793
v 0.25489090776688367 -0.51452193432547921 0.081139986846330725
v -0.25349114045850973 -0.11383865823649771 -0.11954127075106044
v 0.27082922072892035 -0.51447532882466462 0.073787438919095588
v -0.27385900353728626 -0.1649234370362504 -0.057205766329064989
v 0.28535647125657565 -0.51448376108091265 0.065221364808503351
v 0.17380625373890296 -0.29270576624298955 0.099078702727529055
v -0.14702620993957619 -0.1119398393442998 0.072760099969350137
v -0.27694678408794227 -0.2298161857712144 -0.12421125891078635
v -0.1784497375844091 -0.40439391965321858 0.10458562281126552
v 0.29657045071961552 -0.51452208969314805 0.054462341588435714
v -0.28704640026042388 -0.21865935286696997 -0.10215921377254716
v 0.06423648823964806 -0.21400809130716258 0.09840003082774107
v 0.30152236432883717 -0.51439601787524303 0.038631435148226589
v 0.029697457502994726 -0.21021837551842648 0.092514852601114361
v 0.30588096415781985 -0.51437934381173844 0.022600022537765913
v 0.049734875960933039 -0.18802757907265413 0.094431087487645671
v 0.30799774284485104 -0.51436095794492187 0.0061237858930106304
v 0.051244559267792464 -0.11487168273134936 0.09265179245430985
v 0.30860062107090364 -0.51433415636224655 -0.010623930264724898
v -0.18951385304449161 -0.1158963407301473 -0.19384966022468081
v 0.3075508955164914 -0.51429699157651498 -0.027483174330023216
v -0.08291829265583206 -0.29513616102409812 -0.19615377903946946
v -0.22383376362602111 -0.15456705373502524 -0.17240402675943189
v -0.092849099939573965 -0.38670838155160581 0.096817226645409288
v 0.16727994814961994 -0.31905811878863066 0.10305674136390516
v -0.020941459965598402 -0.26939102532358927 -0.19932411856428203
v -0.25437050290959806 -0.16800312557274572 -0.14232992665873867
v -0.14868228356194552 -0.40924353802396796 0.10803881171764637
v 0.12341961796151626 -0.26908855323774161 -0.20329429840889113
v -0.26969561135950743 -0.18050778096958867 -0.12400108705637114
v 0.13129333791851147 -0.20479781737903266 -0.21964469180137908
v 0.14824785555091483 -0.22770710664653515 -0.21175754733350088
v 0.15179815946530928 -0.25391045880408997 -0.20428658324353366
v -0.18694122592492415 -0.37774501893837487 0.10267572246424131
v -0.28027976562434403 -0.19309537092418103 -0.10139650897505127
v 0.30184974663933195 -0.5142635825834202 -0.061746354073475861
v 0.2923856755302362 -0.51428342058984644 -0.076359183946604542
v -0.24458517787202538 -0.39213794651379213 0.087810000814055197
v 0.16220042709823365 -0.20418597981443112 -0.21028365496813248
v -0.27870573523092929 -0.17967018811660795 -0.078110157660664301
v -0.27710022084902186 -0.17844897605443077 -0.030660121186298475
v -0.26851228531248206 -0.1621771584154357 -0.01542383937759495
v -0.19986058300063672 -0.19257789911678896 -0.1935384010064726
v 0.18473197738064573 -0.36302923661203651 -0.16692584300008864
v -0.18717273478258017 -0.17263409630336699 0.067074612160553521
v -0.21927849511535247 -0.17801396429480965 0.052998106715508031
v -0.1098135266248538 -0.17758810137998263 0.089296808438632441
v -0.12935413706385454 -0.15834742975535762 0.086477675929897108
v 0.27699704511658807 -0.514162334442124 -0.087653886940780246
v -0.15405367667149888 -0.20532120083907468 -0.21482574319251269
v 0.26038922898475803 -0.51413847202804697 -0.099078079746685532
v -0.18191460724623501 -0.20993480752005114 -0.20179810443421173
v 0.24191180821824149 -0.5141138116976034 -0.10968904884662649
v -0.17473444756888712 -0.36471782696549604 -0.17180823349973956
v 0.22225113210463956 -0.51407309441604976 -0.11994260517817931
v -0.092473269892427351 -0.10224099249743492 0.085556851446322052
v 0.20083714097468416 -0.51402990763001366 -0.12999743440521147
v -0.059354549003540757 -0.10744378182888907 0.086048339393467316
v 0.17809888255669537 -0.51397385903754522 -0.14034953688842181
v -0.15820290460767891 -0.22730695308706528 -0.20924150078118917
v 0.15413798045572163 -0.51408357210280264 -0.1513478565048883
v 0.18633668455282673 -0.21689613069390884 -0.19693756149681244
v -0.16283490036348369 -0.2501116044453191 -0.20227541324671724
v 0.12834393778804262 -0.51398729791247411 -0.15180548015346781
v -0.18807188915329237 -0.23309557912393675 -0.19423102895478475
v -0.29167062968936369 -0.21837185044473423 -0.050758861560774346
v 0.10023833579601152 -0.51389693936001513 -0.14747902071211835
v -0.14972319644167081 -0.087809869275684335 0.066872558478317801
v 0.07042319802134489 -0.51387526145533191 -0.14357302069099523
v -0.17996468811514657 -0.33172523759747652 -0.17669733118766456
v 0.039594957418003895 -0.51386545813302154 -0.14123492246439134
v 0.15560766097728393 -0.27759188576108795 -0.19727443052464985
v 0.0083037359648338027 -0.5138495408484739 -0.14039819410411472
v -0.26942532663341545 -0.28063446504399442 -0.13437192238043108
v -0.023072136131031484 -0.51382788127983781 -0.14119690250983444
v -0.23234715379731458 -0.38813617742099682 -0.14135342254473493
v -0.054170679825105733 -0.51381165855159161 -0.14364225298693453
v 0.15406520761304546 -0.15027742434016222 0.072729552081142623
v -0.30161692580554755 -0.25599258476473452 -0.032700397084597016
v -0.29325984701168434 -0.44819955924640709 0.059012064138691291
v 0.18071673016074913 -0.24239130937219977 -0.19465397075889643
v -0.2870203526098305 -0.23057765453559037 0.021422779747399895
v -0.29358221079020225 -0.27288894029945338 0.041669604702175761
v 0.21991887980046818 -0.37205428962256748 -0.14949433631903855
v -0.30308008153897348 -0.29033787703728736 0.022799532842485815
v -0.14019813053375293 -0.46895230725025738 -0.16705458011223712
v -0.10565039945370709 -0.48622846935963937 -0.15647975580189372
v -0.1400519578212274 -0.49140438937027137 -0.16461752671031754
v -0.14001332635617228 -0.44679585802832988 -0.17041496877748569
v 0.19056193252706161 -0.18783749221216869 -0.19812550044452967
v -0.30617114074622059 -0.28595038576867016 -0.0013470327084438155
v -0.14011877165571318 -0.42483987952810365 -0.17415821649937047
v -0.13977386841053974 -0.40315033375876153 -0.17843418309014272
v -0.2818661587096824 -0.29120733099005636 0.062232418334893708
v -0.13917657812130077 -0.38170572652296864 -0.18286417053780507
v 0.20571555676833705 -0.23285415556751066 -0.18299000994887255
v -0.30902531231572983 -0.29306534879543855 -0.046558188315452192
v -0.28719131842555884 -0.48636566434808126 -0.086135578455649703
v -0.25279433161081005 -0.27910074112362226 0.076440590661403379
v 0.24273955527911434 -0.34930978400145429 -0.14245204788812602
v -0.24292631123937219 -0.30304120371408672 0.084346873016879431
v -0.25820907872711535 -0.30130177626585419 -0.14250684385390833
v -0.2440035488688263 -0.31981461251652499 -0.14869267011861892
v 0.21611426033889669 -0.21002118631120847 -0.1791806980240343
v -0.19348826619852025 -0.25696810768989875 -0.18660217129395629
v -0.12802007273468888 -0.24167690552042354 -0.21905873961435107
v -0.12552852136176873 -0.22288322649610937 -0.22387143637755347
v -0.078839843076570382 -0.13027875855223428 0.086322954730207485
v -0.12285740939177589 -0.20428084757054418 -0.22793996769593991
v -0.11112775426005569 -0.13964657124928004 0.086416945542321016
v 0.23075069061719891 -0.23905788743294454 -0.16612515652820789
v -0.090676620801202673 -0.15661358621774116 0.087378769342333573
v -0.11986997219177285 -0.18557308933009273 -0.23110265840454003
v -0.11741346710014033 -0.11746918013482886 0.084450969863930386
v -0.16645699583954626 -0.28983944232477066 0.10156830031805114
v -0.11709027475666108 -0.16671215707109815 -0.23367487711984938
v -0.10310902811529984 -0.078578724430981517 0.084219596031263583
v 0.22703237341266869 -0.18189583103337009 -0.17128777354465385
v 0.30900071242535704 -0.48535992086769902 0.011921212597148539
v -0.11473441377747332 -0.14782362211009609 -0.23583677569663444
v -0.12551175260690764 -0.093346011589142977 0.080399760928855091
v -0.11222672334612306 -0.12863997493067286 -0.23785234995563911
v -0.1597372605914468 -0.1554877068441482 0.074725671181508635
v 0.25542905550716816 -0.24776063779778465 -0.14626956746437564
v -0.16675303216427645 -0.13119498686174069 0.065738022505690011
v -0.26223083797140723 -0.23565474474545323 0.054887213674474244
v -0.10898966239486919 -0.10917788428988161 -0.23985924875200706
v -0.17077321297117243 -0.083939564511809076 0.05196258890015476
v -0.17677243182351932 -0.10855039799658783 0.054409819292815145
v -0.19527782961079299 -0.091180473314172186 0.036138867536099947
v -0.13478574743939734 -0.29737150437612136 0.10324145114663402
v 0.11227286980116918 -0.047252721255076569 0.073140531321102653
v 0.093236012845143643 -0.047025033455542875 0.083413261945077644
v 0.24586572186888786 -0.16137818354584593 -0.14990438040135734
v 0.07707007922042787 -0.10029328329975851 0.095768802751191096
v -0.21817763355460124 -0.098251547180643078 0.019927055706877556
v 0.25600251556545928 -0.19383247343971949 -0.14387487585270176
v -0.24158668127224101 -0.094675165668915054 -0.01405970031608781
v -0.24761250857558192 -0.1008602549526993 -0.034042753225695277
v -0.24431254051595069 -0.41570737416723136 -0.12921397254761502
v 0.13090529434576503 -0.047887624806088797 0.063204560998126075
v 0.26658179418866895 -0.17507451733719656 -0.12620019980331523
v 0.27179731723370743 -0.22806695893422663 -0.13018219148982951
v -0.25176190843527613 -0.10572538019824738 -0.055045917431618172
v -0.25139632761437686 -0.10313170581764806 -0.10037216920729645
v -0.24213843989450132 -0.11070628088144895 -0.14314489973568539
v -0.27283248217660588 -0.16759065929891331 -0.10248366141496629
v -0.27988945301976764 -0.40865812131987062 -0.10776073798284402
v 0.16731356418208757 -0.0489183770753783 0.043919988991689057
v 0.14936837838075145 -0.048409798554485878 0.053604380183384148
v -0.23904570682300469 -0.17360688046611986 -0.16027547368595596
v 0.084693865255840398 -0.16280586479539905 0.099445419360295384
v -0.23916442413653338 -0.1514641731866255 -0.1566688433396124
v 0.27682400151264619 -0.2032505738779041 -0.11737750599517532
v -0.29651544267090485 -0.42120424995412731 -0.090267234026926685
v 0.18429165124971339 -0.049329597477278303 0.033417278047705695
v 0.066147939310920958 -0.33464860288877657 0.10243752395703054
v 0.073930290291397804 -0.48159660706284751 0.10300834048691704
v 0.27024071227521057 -0.16184936602374433 -0.1054202309876849
v -0.27408415498195426 -0.18338331547063036 0.00076933661005443299
v 0.048375522116839403 -0.40430680285564963 0.097292750713805665
v 0.20016634195286143 -0.04965383302100132 0.021879706278469302
v 0.3082782921522142 -0.3439351428367563 -0.073627642138052438
v 0.027875949548717624 -0.48450613164604805 0.092600787013662894
v 0.29924732333271964 -0.34463565314882194 -0.096203141394138741
v 0.27830940492054179 -0.18539484998920452 -0.097308274309030426
v 0.28893546946753851 -0.22986066889707785 -0.099925024349148475
v 0.01559294352743007 -0.38639743384059771 0.092073171496523137
v -0.021404403241648717 -0.48451208771192283 0.088979146959167366
v -0.06737120248596426 -0.48210048630863611 0.092354613595352825
v -0.058763243497445578 -0.40081775973195577 0.091715041868702579
v 0.28460171731469908 -0.1985493802468507 -0.064681653742103176
v -0.062071273554162143 -0.42821424367364952 0.091707781513776565
v 0.28547897264133182 -0.2086385117351986 -0.089970603020070539
v 0.008328179854578191 -0.18411434326260429 0.089553805564297984
v 0.21203209341836421 -0.15394193558255997 0.050245782634141312
v -0.09380990623259719 -0.41616461706885038 0.096617768824990041
v 0.0038477982431156799 -0.24939760187152282 -0.20507945250623863
v -0.10919703656026961 -0.48430388217524295 0.10049919636103369
v -0.31207624837227865 -0.38908378130146776 0.017478157846539569
v -0.12229278034939317 -0.39886185029362609 0.10306882307656232
v -0.14090240691047656 -0.45840849690296875 0.10649605593297562
v -0.01053556947471386 -0.23248958508029671 -0.21053889693217992
v 0.25954099859789603 -0.12911132596661304 -0.045233083542248198
v -0.12605774410607268 -0.42880084510321792 0.10348830981053686
v -0.30846552152396228 -0.41069167727061118 0.030764817571821326
v -0.14677274733404266 -0.48913458587734848 0.10796372251902286
v 0.29214493972600375 -0.22684790986705977 -0.070517442091260082
v 0.29786743562080531 -0.24630741784628207 -0.052137113543738539
v -0.13994967972641698 -0.13546687510746425 0.079701885469370015
v -0.16148183741616148 -0.43021287052843266 0.10639866175357443
v -0.20017703948609597 -0.48886396952938055 0.095582608282097761
v 0.27701760213619531 -0.17596980921301422 -0.049933814707242619
v 0.28494584080849833 -0.20175012048661667 -0.03247848267509669
v -0.21052304024129909 -0.39876472007234515 0.097147826111648003
v -0.19621459180007458 -0.42691861622780219 0.099648138581571483
v 0.29120244089659558 -0.226482278220066 -0.013101807410493743
v -0.22562212484664268 -0.48316121986389554 0.088530908445866849
v 0.25162618872158776 -0.119354142582 -0.017494904233328085
v -0.22589229422965798 -0.424714031998212 0.091894581798391523
v 0.31229380044571076 -0.35017670366398523 -0.046872303974243454
v 0.0042964475651876555 -0.051759993633813672 0.088601374567112118
v -0.25254162653980566 -0.42439914134598378 0.083148317176568481
v 0.043472279883134873 -0.084247465602215688 0.091377812233163713
v 0.27604242110739574 -0.18038337850904806 -0.021499482979854379
v -0.18325173011487167 -0.14973405122407824 0.061947876729663606
v 0.31334764724505543 -0.3573869563916372 -0.019060719698617001
v -0.19382162714209994 -0.13244070493276944 0.050804988713404525
v -0.27525049143757641 -0.43381596170249676 0.072706531249206008
v 0.29523943582775719 -0.24894390261180543 0.0028423509086629717
v -0.20702898845162515 -0.1557606218888776 0.051040065663521164
v -0.080734495745314896 -0.18443779038423205 -0.22666675164426892
v -0.076297796952775845 -0.15952060023410755 -0.22990805111840215
v 0.2718122515687188 -0.18207040236210589 0.0031362141923772791
v -0.14189509997013844 -0.11081125805329284 -0.22169931314790856
v 0.2816681236467411 -0.20398104876658418 -0.0024115667926647988
v -0.27197096833512002 -0.40363313828212349 0.076072615452514328
v -0.1404512715914438 -0.13563304371973692 -0.22408082559048068
v 0.14334877883172148 -0.29679862103637739 0.10396318531782225
v -0.1654481553151021 -0.44995346988237817 -0.15897463461389877
v -0.1656867422377426 -0.12920803527724817 -0.21028066905293069
v 0.25969263069565807 -0.16764325468354799 0.019790657432075531
v -0.16570422001702437 -0.1066559396906458 -0.20742250659726094
v -0.21900678575147103 -0.13949036231571957 0.036907416118384877
v 0.28501034371432254 -0.2274352667102929 0.02011402264050996
v -0.23219886402268808 -0.16311712317485846 0.038295672449332865
v 0.28037040083470749 -0.24655556085351771 0.045194048117669916
v -0.26019517202932962 -0.15544411367055214 0.0052044858882070791
v -0.25604015235968047 -0.17167483433843728 0.023959039254021104
v 0.27060051072460978 -0.19604485928672785 0.024438258703781995
v -0.24214235912876431 -0.1471806255825408 0.022687553915597059
v 0.25830028543716549 -0.23627772042038137 0.058656675425730553
v -0.29426693574873714 -0.48052688332312904 0.053348905127459156
v -0.29102743696820726 -0.41849683483946892 0.063526337792917387
v 0.25961298639414854 -0.35551989924400101 0.082830935738605699
v 0.28201025579952133 -0.35726135221645855 0.070681941413657801
v 0.070259855239785091 -0.2961883474731255 -0.19133430143065061
v 0.18963655311994296 -0.082101040418373822 0.03962668457063695
v 0.081634006256232572 -0.40539527271100217 0.10588978024547652
v 0.21457905935026442 -0.050059009325966602 0.0095459088997053299
v -0.25968507234967958 -0.13994022942456011 -0.015653814776023428
v 0.28802295951910883 -0.33185989818212147 0.063191955718808729
v 0.24317741630483142 -0.18152047620798439 0.043992594001925789
v -0.30205251402786931 -0.40602049496275272 0.050328698159648758
v -0.26727582680195283 -0.15077036090519561 -0.037556164451946358
v 0.22324408855183489 -0.051107222258070462 -0.0063526500751937831
v -0.26946109456364786 -0.15250756070504681 -0.082590890674914416
v 0.26614668483199416 -0.21574847000255093 0.043603028281307854
v -0.21895449759113317 -0.26209245325275687 -0.17193175901645649
v 0.24370195596609884 -0.32830248877018581 0.08748402393152438
v -0.30314271737110915 -0.48611336031269547 0.031388659365876106
v 0.23522200553575059 -0.23482120736723544 0.070130003281154013
v -0.30296148566659886 -0.43088685007754346 0.044828369516317121
v -0.31300092121649153 -0.41709564414433214 0.0081809096901640371
v -0.30799709665836633 -0.49143633163094752 0.01194636156713734
v 0.21763925476942531 -0.33435533559425357 0.095353782503975248
v 0.24011046287930402 -0.21017041263301761 0.057890357465376047
v -0.22741790219270447 -0.30092489944790546 -0.16126431430276755
v 0.21857191497603456 -0.21678528949708414 0.070011212973998899
v -0.30882484255065823 -0.46549338393752571 0.017091457605915003
v -0.31555640250727807 -0.39585971204607173 -0.0089176230178457938
v 0.19608011328371736 -0.31435543441046648 0.098060106897678745
v -0.24166390529031107 -0.27865511487339784 -0.156076914462355
v -0.31211610244232824 -0.47939144557567454 -0.0067058828190323383
v -0.092016044078550324 -0.23249207419269949 -0.21661905268890441
v 0.21086734731858131 -0.18841979233208042 0.06321259978812746
v 0.18281580367400024 -0.16600720907203687 0.066708399901636156
v -0.31536609616084366 -0.42463159932608818 -0.014411952645549508
v 0.22686074983361804 -0.052723969897615131 -0.025542793967192168
v -0.097528856685370563 -0.38634063777786987 -0.17399434977097741
v -0.094978345257783328 -0.40941802168853814 -0.16849034121809583
v -0.31296733432224821 -0.48444460645234538 -0.029357743038955997
v 0.23012299867076952 -0.054266655665906022 -0.044808983248727702
v -0.28882429451126612 -0.27715662568447003 -0.11412823927971152
v 0.2324372420789558 -0.055785010183490913 -0.064245011962073439
v -0.31513095991336243 -0.41573221403894756 -0.054697843242845601
v -0.037569043880662983 -0.14667369693069424 -0.22807161896483727
v -0.31563922369674985 -0.43274492417530208 -0.035342147218251213
v 0.2340885928943367 -0.057281639227682146 -0.083944213326948791
v -0.070144564963512887 -0.34522293107643648 -0.18020889657450018
v -0.063749372230310478 -0.31808700771285059 -0.1868093765576628
v -0.30204198610037192 -0.29503189786035783 -0.095357017180382031
v 0.23442306395637275 -0.058724550862670061 -0.10397621333927909
v -0.30029273415496244 -0.27117604165137699 -0.0929941260630954
v -0.22711037496684586 -0.11005819986662936 -0.16077408003276944
v 0.015119610159550836 -0.10724216000060008 0.088846612476721459
v 0.23420049221738731 -0.0601074468065802 -0.12407387644430184
v -0.31170851976134339 -0.48743669974347409 -0.051651931734019219
v -0.30556579138114198 -0.28238289527227467 -0.071321258706117802
v -0.31422472816396491 -0.44052707090586973 -0.0537039255491569
v -0.26408121364744896 -0.14158109912657077 -0.10810121912296043
v 0.227474663471463 -0.061824852827037563 -0.14180582713488052
v -0.30427282207754497 -0.26845360083812075 -0.051299865637141853
v -0.070466970514764748 -0.42923264430453989 -0.16007728003655633
v -0.30203297103380122 -0.48479706964661551 -0.071489156660742514
v -0.30639940288554635 -0.27799545213155041 -0.026022694341313879
v 0.21394879815261036 -0.063861654899376757 -0.15734859095903594
v -0.26394995158986478 -0.15683475321431437 -0.12445927203272054
v 0.19958747930847354 -0.065864500312697 -0.17263156477091768
v -0.30059307603929486 -0.25721240797303263 -0.0076030986440606546
v -0.30894296410647626 -0.43256861617963149 -0.072328214327371243
v 0.30729859313469055 -0.30527589864679855 0.0029015434323703682
v 0.18365829425897481 -0.067985685745770741 -0.1867589603290723
v -0.30044666781130019 -0.27080876379869001 0.01461639662319926
v -0.0412525619438983 -0.29229089237559969 -0.19300294367420273
v -0.27001010820698762 -0.48519542325801396 -0.099916110270132724
v -0.16716588167789564 -0.47849976959019569 -0.15339385534056865
v 0.16670603760536526 -0.070144642343549141 -0.2005454443268011
v -0.29445911193314128 -0.25074416716609105 0.018983893011300886
v 0.29252887381647208 -0.22482890889951257 -0.04209647256791306
v 0.078011527952747434 -0.35915651449267882 0.10538161330770185
v 0.12752661047254718 -0.074668497991464744 -0.22637377922511601
v 0.2998461665465072 -0.25404463107398229 -0.024055093496399796
v -0.015176606290564595 -0.25045420839680194 0.090265493638383432
v -0.28179238694498909 -0.43752447631027175 -0.10028718445527504
v -0.24772045056731379 -0.47873367930913674 -0.11488870402012905
v -0.027527194858898665 -0.42188379890974337 -0.15706721605806737
v -0.26397576417514057 -0.42654488070525753 -0.11538580979093921
v -0.22477674497692651 -0.45694137055330092 -0.13072832856481637
v -0.22042659788051464 -0.48606343571379307 -0.12713399639101411
v 0.017716543480050972 -0.37944105308500931 -0.16580111151810431
v -0.016460784047270333 -0.31164520964340187 -0.18522198081401448
v -0.22022973832392415 -0.28670681837431555 0.08850100580373324
v 0.16418471005543883 -0.22109562695610596 0.08688533779707136
v 0.15641650929042061 -0.24621461543774242 0.094019923081042567
v -0.22046446806451137 -0.26100951539458916 0.083268819041046882
v 0.15187139281647422 -0.27161687411498725 0.099317305254211119
v -0.17153679976495351 -0.27642595250946811 -0.19256086149522114
v 0.063954807570764549 -0.32585219658272568 -0.1818020416417388
v -0.18988022444126273 -0.24567312002187058 0.087942199156736858
v -0.22262764456708739 -0.41053300861180314 -0.14123605814102816
v -0.22955566802044575 -0.43212125429659337 -0.13336336785931852
v 0.085504362777088783 -0.39037038217921743 -0.16748515985292267
v -0.18748079006169496 -0.2711960248289505 0.093992392056472779
v -0.19540833936716617 -0.45904053306346593 -0.14389713620154054
v 0.10554670740776673 -0.076818442876790571 -0.23291678633687521
v 0.11543797891435637 -0.36493478910950078 -0.17688416270860718
v -0.20696785669576884 -0.43041053685573116 -0.14448612249553858
v -0.15650741368640203 -0.2523236877737518 0.097994887980823259
v -0.2000636205058644 -0.39280795888269571 -0.15542528917237433
v 0.080533963806723535 -0.078760615396058553 -0.23220096780284707
v -0.17914506695396723 -0.42431236753823015 -0.15818845936797729
v 0.10278489895466814 -0.42322085207884708 -0.16246096643068791
v -0.27666984338684736 -0.46268002229537786 0.069999400982212773
v -0.2518753027004787 -0.48094835082933435 0.079825083062566415
v 0.14900477265054768 -0.37188473167625963 -0.17637106050781581
v -0.14301400479836279 -0.27387760667673244 0.10200628005052953
v -0.11557524248685286 -0.2584494224019056 0.09756807061471573
v 0.1052835871509932 -0.31106989541575158 -0.18987519089938909
v -0.031155197592808881 -0.1803205269329565 0.087672754730043018
v -0.018937832223033135 -0.053047617793410468 0.087410808019622449
v -0.098934450926160211 -0.28496209980869974 0.096505711515615322
v 0.14544344966055747 -0.32069885039208818 -0.18801912845852697
v -0.078178253963918309 -0.2621553323495357 0.092935082348309994
v -0.049301542645639893 -0.20123049174232086 0.088181244098662848
v 0.20706901286561225 -0.31258263378325424 -0.16750968301201818
v -0.05368782887094839 -0.28341541673438253 0.091540509287746347
v 0.083094034703001501 -0.16138980112939233 -0.22653564293667594
v -0.029957707227686828 -0.22557304397295555 0.089052625097888416
v -0.070213176484806239 -0.22046862636804154 0.089871921974846336
v 0.23590468667535305 -0.3222039347841702 -0.15131064844530978
v -0.055511745030841886 -0.24235483384302037 0.090218502384258353
v 0.2366509851559398 -0.39511670161696982 -0.13597462008984579
v 0.25209896910824464 -0.37606681286316795 -0.13157202935059045
v -0.042990287015397977 -0.26276372701526213 0.09065073014660488
v -0.013252782495745657 -0.27668397536679362 0.091026167293802751
v -0.092369121390645625 -0.23965477582788403 0.093176796559629099
v 0.057280142411696669 -0.25978749725905914 0.099211663014020512
v -0.1060538690123691 -0.21828301563680469 0.09291673864846603
v -0.088423755256908099 -0.19844322846292989 0.089698013599909504
v 0.26226793625663358 -0.32779936615816063 -0.13448140751422819
v 0.28911357774461099 -0.36448606877747486 -0.10616104049903338
v -0.0089092984187535418 -0.20592807574058808 0.089084740494387776
v -0.12837094359466369 -0.2366435458304435 0.096999801509867867
v 0.037810012904224394 -0.35563101753381066 0.096141577235032916
v -0.12586701945930359 -0.19807202556496173 0.09190166401969066
v 0.26874949560909667 -0.35593584987107135 -0.12466174132201543
v -0.15207128709252771 -0.18027554923261982 0.083631869744427767
v 0.30476425670920654 -0.36826336472544879 -0.085088079299316777
v -0.18771529713934162 -0.22123745109223156 0.081888884190187916
v 0.30078388989163274 -0.31461505009517304 -0.096259838361713854
v -0.16183811755296831 -0.23004866436492241 0.092044336100382013
v -0.015385239461679287 -0.15775570631939145 0.087575957336422094
v -0.18318971955141414 -0.1969327680373858 0.076050649927613595
v 0.30562783185439302 -0.42041264365301045 -0.074579185538043324
v -0.023716118661016111 -0.10894179459064088 0.086793401248273172
v -0.13247286985619494 -0.28002484246375109 -0.20841719437328482
v -0.017101983363004059 -0.082298337727530479 0.087170841994326426
v -0.20631393848798707 -0.19200195696588718 0.065010903989603963
v -0.24558706738742481 -0.25009037584430494 0.071150839710540953
v 0.01141696352552532 -0.076169650365550415 0.088741655867491248
v -0.13029242545154351 -0.26080491093677105 -0.21384405615620264
v -0.065263393056552932 -0.055667655546736472 0.085450624274116344
v -0.27156788753466415 -0.26261591870573903 0.06013070468180521
v 0.017877404841513983 -0.19366748682459256 -0.21981318568210567
v 0.091256226935549606 -0.11449875137848428 -0.23066080943449602
v -0.24421932319416301 -0.18657687721437238 0.041641624186224871
v -0.042233041811931243 -0.054337193808795814 0.086411303095097758
v 0.30869842729192776 -0.31885062090367222 -0.063713773199066528
v 0.053142934168104644 -0.080573404416357824 -0.23044105622969599
v -0.24847844425883397 -0.13098045007621381 0.0051519938566385766
v 0.3080326907059423 -0.29915262654798963 -0.046045010228351085
v -0.28305796112490028 -0.24565178977362589 0.041645935426000286
v -0.27413373900650945 -0.22003872522859683 0.036113161092732278
v -0.26727015708782503 -0.19570867074348081 0.028186459469610986
v 0.025265063330817128 -0.082274987942238753 -0.22986476304721312
v 0.29776474667642577 -0.25356553523922004 -0.076408625090760018
v -0.0022192343968263917 -0.083869299989681539 -0.23050682950761706
v -0.054090175563545922 -0.15573173022026909 0.086884444885817008
v -0.13957429635982488 -0.16087026147685468 -0.22414119526219786
v 0.30949766854280131 -0.30996356402734343 -0.020550301306810459
v -0.028952057428069541 -0.085387207439623053 -0.23171411394515276
v -0.012876716866692769 -0.10264387392414868 -0.22973301051332132
v 0.31191505810077397 -0.43139757712394466 -0.043657695236652271
v -0.04698497117632168 -0.082779251286783553 0.086097797792523134
v -0.14907622050683361 -0.1828480820724136 -0.21908165692795473
v -0.29233318557004423 -0.23096737699952974 -0.0020583160749913926
v -0.26288955167473887 -0.13400423541627851 -0.062594350588768569
v -0.070122785721147746 -0.17803214409123963 0.087688205598737134
v -0.055460121472614032 -0.086793496300917067 -0.23378568303704506
v -0.29574769461643868 -0.23400435086477966 -0.027367262610688142
v -0.080829824891033769 -0.08801500481146643 -0.23781704360218589
v -0.2938922422477111 -0.23131279288396323 -0.077354239973408512
v 0.31271203936813546 -0.42081139076294105 0.0011071841219436052
v -0.29847144216844701 -0.24333091629174397 -0.053181613477656958
v -0.083028235897843472 -0.10357517683908943 -0.23663946428422133
v -0.10526391783026118 -0.089214714503934506 -0.24254364288215421
v 0.31120227196396311 -0.33382488917120168 -0.0047139699510262145
v 0.31152924373994717 -0.36342914700128159 0.0086530066759277768
v 0.029999824217712467 -0.23043732634610109 -0.21074694144419068
v 0.099945906699669004 -0.091323230110032419 0.083880909000422499
v -0.28686769835367038 -0.20567322331249024 -0.07654616219167186
v -0.30007817015362226 -0.25657077096586756 -0.075174710792282828
v -0.2531522764471148 -0.10685334388255811 -0.07746486762255371
v -9.8712884984003546e-05 -0.21294922516818449 -0.2155175355555331
v 0.3072843558133887 -0.33391435588835033 0.024125583136097223
v -0.29227346019057077 -0.24701447798861564 -0.10340477256285732
v -0.2054620034019819 -0.51367152346004286 -0.12887741554588517
v -0.26257265120502576 -0.23898778524523268 -0.14041569995570055
v -0.22556246965741794 -0.51363243968214412 -0.11935396617080207
v -0.24469416422594159 -0.5136004161496851 -0.10990537012103424
v -0.27648747277649682 -0.25578669091408207 -0.12693824501850615
v 0.30012886453885967 -0.34963083788581217 0.050767243810312807
v 0.30683390950838074 -0.37257804983970799 0.035107999507106746
v -0.26204828802134172 -0.51357029496676398 -0.10005210660077021
v 0.30475808544985994 -0.40743594010792411 0.043965177524935867
v -0.25628318783423543 -0.19061134801624868 -0.14395395720433732
v 0.12895733568191131 -0.097891365169679237 0.072016030735996606
v 0.11296320210062014 -0.11787205725632628 0.081869967827326362
v -0.27726012105097558 -0.51352863495741852 -0.089276519083544753
v 0.29876038668383786 -0.31653575166924414 0.045913516933918624
v -0.25601539471010287 -0.21554605730416918 -0.14656575667112923
v 0.28383761745232722 -0.30851199893141118 0.062733392668801735
v 0.29552862973366645 -0.38238857345248201 0.060263019742006929
v -0.29061114706621727 -0.51348509597849534 -0.077674332925962625
v 0.089918914098014752 -0.20158492906459335 0.10316535598804455
v 0.09251635753139828 -0.22090912568364945 0.10528295997529014
v -0.24403258658044732 -0.23691377471280956 -0.15731104249169042
v -0.30208493259720975 -0.5134760325481128 -0.065498289940826848
v -0.2187806360013389 -0.17743375320049437 -0.17947223239321569
v -0.25649665345717271 -0.25861254062586198 -0.14590430350998057
v -0.30976056363535531 -0.51349548508630494 -0.052303433819283457
v -0.31044704041345889 -0.51336701871367973 -0.036616063007145566
v -0.31075851074637895 -0.51331737049834136 -0.020867841007736643
v 0.01543929914428073 -0.23542675031617422 0.091713514021731196
v 0.056393465840209357 -0.23524347450774816 0.098028588261764554
v 0.23713054883408299 -0.35193927322515389 0.090853216722323993
v 0.24291254838644016 -0.37903552479662778 0.089606882641378588
v -0.30933521439112721 -0.51328048575036123 -0.0052888416689573781
v -0.30653211375104295 -0.51323848118099358 0.0098128815354301124
v 0.060818116275901245 -0.30897963007042117 0.10099953834799841
v 0.2179790978705429 -0.36319802510153198 0.096618148431254103
v 0.18994554810002978 -0.34439656742633135 0.10185430385568553
v -0.30286546688473925 -0.51319305099399271 0.024486322584153314
v -0.21997196572699329 -0.19958503037300346 -0.17864417051193296
v 0.22295347590049891 -0.30810610128176497 0.091345398374517522
v -0.2975857822339148 -0.51313345689670209 0.038942719283674189
v 0.018981688683047421 -0.32478009339231612 0.093520147669153925
v 0.1579262490299661 -0.34553110664919495 0.10612149852438235
v 0.061130883802378702 -0.38086834263418406 0.10056508384233898
v -0.23852414102561825 -0.19590373272899217 -0.16271812715525441
v 0.15695111350531224 -0.40804539452188154 0.10713194084926245
v -0.0042779371304054181 -0.35397348313105342 0.091176643960005826
v 0.20588892701793121 -0.2624867607472301 0.087278685130858874
v 0.063891216954603716 -0.42799283679628686 0.10035556626899161
v 0.022902030553614477 -0.42356686070231303 0.092246254444665804
v -0.19288293313740484 -0.16910589967411582 -0.19747093160182108
v -0.20671685053206865 -0.15614709297019178 -0.18668732812129721
v -0.019350931772396995 -0.30226402640163902 0.091036150917535252
v -0.18808363645619264 -0.14330159833553158 -0.19840478424666549
v 0.041577816462177786 -0.15658564751549162 -0.22574545495334314
v -0.29154404061955574 -0.51314599863732313 0.053631158420807415
v 0.22676340374979151 -0.2825934953298529 0.086079495044202842
v -0.020196314630641504 -0.41718998669723839 0.089253272971184044
v -0.064436040803002387 -0.30756494226566888 0.092653193244695897
v 0.053071004032252983 -0.18027805117604981 -0.22265242016899153
v -0.026926883238740595 -0.38124894484587912 0.090242286734309785
v -0.047170602491498903 -0.3533990966519725 0.09124977834412723
v -0.03863145218371325 -0.13249183278875656 0.086552345407155007
v 0.013031174735202877 -0.4106234758305885 -0.15834248523053021
v -4.4292886492422467e-05 -0.13390067788714818 0.088036477228503801
v 0.24922843704721936 -0.27629044734994601 0.076691984593478868
v -0.062987152297462046 -0.3757004271353262 0.092606973882186056
v 0.12439116439180969 -0.16370087302023037 -0.22588240051504785
v -0.28085996769670118 -0.51322785845344376 0.064533856979330118
v 0.059629234433129535 -0.28424950709565933 0.10037158443148797
v 0.056526860254686701 -0.4218696397174746 -0.15776812161867462
v -0.25048489736541613 -0.51336660769644304 0.078105438669078958
v -0.12163877912483856 -0.3417042066624012 0.10233397523066895
v 0.045397363878599273 -0.39585887315612012 -0.16292708869373176
v -0.23344296326234373 -0.51349235922289771 0.084297243081302681
v -0.089418063670730463 -0.3588842669249846 0.096207726303960128
v 0.26843569778425475 -0.29202224942131827 0.070510780814720786
v 0.26864323391901157 -0.26487530904097456 0.062641928211915332
v 0.10646029743649338 -0.14010423002083983 -0.22925403061495531
v -0.21486522800021929 -0.5136141157906815 0.090133809136883083
v -0.10452623220769247 -0.3133734921788624 0.098431940653590372
v -0.19498815571559305 -0.51373647437671965 0.095980635143233656
v -0.12332619016124191 -0.37063534497048284 0.10335883527726583
v -0.17413083617638653 -0.51383875724063277 0.10214513658417269
v -0.15150228629527113 -0.51402517927641744 0.10965046432191847
v -0.13763543465733363 -0.31965218371895621 0.10500288975358371
v -0.15755213793120532 -0.35972917870939786 0.1076885379577165
v -0.12848001699851069 -0.51424871164215025 0.10742470721303424
v 0.28890651170279569 -0.28213915657454774 0.050466803473507876
v -0.16335264346387052 -0.33501180208877113 0.10561368489357303
v -0.10423785475555544 -0.51459392754685318 0.1009942944630759
v -0.078404138823536695 -0.51494536678612468 0.095386728114439323
v 0.14116896131257151 -0.43501334681413983 -0.16381118853075366
v -0.16679920024939696 -0.31130381922315126 0.10333567346329908
v 0.30188330224924159 -0.27540285320836611 0.0027060374215652216
v 0.14093912996499344 -0.412585012312077 -0.16838301985481882
v 0.16181128757653618 -0.096792317036864958 -0.20789196181172351
v -0.051277622337044609 -0.5152980958282708 0.091900147408931071
v -0.15386281783240685 -0.38532081258906636 0.10854384664861923
v -0.02321856972865538 -0.5156624998293905 0.090616239071042159
v 0.11215674687818689 -0.096253381917350486 -0.23023570475130428
v 0.0051722667848907444 -0.51598959020277102 0.091724822954915602
v 0.033337201411280978 -0.51638104036588561 0.094918323837990703
v 0.30587046181724808 -0.28418502944203294 -0.022441087092853043
v 0.14219007447926055 -0.14188573066076909 -0.22178759909344406
v 0.060810259405815276 -0.51665452690698332 0.10041660642867212
v 0.086682142050228922 -0.51694419252270818 0.10854349420437071
v -0.19459009680597081 -0.29878707000088828 0.096378296464501453
v 0.11168490566021581 -0.51735845495038135 0.11670445797250933
v -0.19211798724396589 -0.3509750205784597 0.10088192550350206
v 0.17100979383365059 -0.41974859572141376 -0.16136279717200824
v 0.16518326683274098 -0.16368784617358881 -0.21171455299027811
v 0.30341868071734951 -0.27148379653976956 -0.050164100818486212
v -0.22086924671644825 -0.31366216842567224 0.091970208252869973
v -0.21940739212529325 -0.3697233896517273 0.095170263921774079
v -0.22182869967796093 -0.34095731624379422 0.093790806951185496
v -0.1955934031923805 -0.30368137054442185 -0.17606790634721425
v 0.19999572854549702 -0.42619144981197205 -0.14745936675865295
v 0.29230567816061381 -0.2570401279145631 -0.10359876292062663
v 0.15225004688990074 -0.11949615920361799 -0.2161277357863913
v -0.10426776931658127 -0.25503584968074888 -0.21154788904091659
v -0.20749715381852529 -0.28076188282544462 -0.17515601608567627
v 0.00079690545088800802 -0.28802624016294714 -0.1923242691896703
v 0.021739737409269669 -0.29413579831526854 0.094121505902183655
v 0.30325066805479722 -0.28578865780468582 -0.078924175052733123
v -0.24796326311685224 -0.35803322759316825 0.087022203687199942
v -0.26742658176068429 -0.31051677553359053 0.075970706266030613
v -0.2112893478548537 -0.21282945975173603 0.070788971234827691
v 0.23035212843833996 -0.42166985375691107 -0.13383872872009595
v -0.27234312875358618 -0.37216072999650618 0.077075876978728336
v 0.22748277562367442 -0.08127900818822166 0.0089451620348284799
v 0.29059086683580049 -0.28428202028003646 -0.1111482222268132
v -0.27286691564113208 -0.34090235906388378 0.076447721806517849
v -0.29058247632347123 -0.32286750166793066 0.061860009596751253
v -0.3004126920771813 -0.30424347057245094 0.043266878790942827
v 0.25266270843062849 -0.43627104051288917 -0.11880966368754346
v 0.27878414982864275 -0.30617889918727509 -0.12332898965036737
v -0.29179901418698695 -0.38789038456083347 0.064276171505999805
v -0.25365205622478226 -0.2105206063905144 0.047782209071472001
v 0.17285087980396596 -0.14090614471392301 -0.20628361868543826
v 0.027267029029687487 -0.050499448835256061 0.090119818529368095
v 0.26629540451828337 -0.27821255262879663 -0.13584944580409064
v 0.23837752709543863 -0.27055684812214159 -0.15771002725954736
v -0.23188717039760137 -0.21741928811748717 -0.16843898897608461
v -0.20721987757437937 -0.21582366882179013 -0.18645381747678563
v 0.25758981001376219 -0.40668494607027872 -0.12181057765037302
v -0.29703111622111866 -0.35574192093294771 0.059429053860276256
v 0.27224678439910527 -0.45233110078061428 -0.10311447067250905
v 0.25434761449322557 -0.30013199461203355 -0.14352201647301424
v -0.1252321426941852 -0.088909427396191121 -0.22956240313083826
v -0.14480123941897599 -0.088632600858446736 -0.2174221423518905
v 0.19849926015178163 -0.16034861955337948 -0.19180725204778223
v 0.12690167196909821 -0.2526869545649148 0.10111148413338183
v -0.16367461629752245 -0.088285913612454192 -0.20598658129865391
v 0.020923435075223873 -0.26615821627195813 0.093545604487391298
v 0.22956460804711717 -0.29743958653471259 -0.15884955868873041
v 0.207289880846107 -0.28356211583251723 -0.17313094964252712
v -0.18192177268794174 -0.087940905345322368 -0.19442873881556116
v 0.196779497731498 -0.13277479409711471 -0.18957102756077177
v -0.3057962878886536 -0.38304092446637128 0.042960553331789796
v -0.19860492578320871 -0.087678370574575365 -0.18214432113076179
v -0.21055452245013073 -0.11194048256935774 -0.17684685721329624
v -0.28218315044379955 -0.20933481257081085 0.0098034545879937401
v -0.21360153952701666 -0.087517879965433615 -0.16908257921133174
v -0.22711577697293167 -0.087406309073783384 -0.15532614654292382
v 0.17636505086579604 -0.29926187595432441 -0.18413103854465757
v -0.3092525394336294 -0.31338515264452604 0.011364031557144869
v -0.28655228716520542 -0.20638504630651794 -0.02133406916780968
v -0.28337947584635215 -0.19246658282028115 -0.051868342846153367
v -0.30956904386478845 -0.36081260332034065 0.028711968041764527
v 0.22179979559359819 -0.1471822815637886 -0.17139099091445187
v 0.1968334708892796 -0.088883687283732749 -0.1809622327572562
v -0.30898860303798614 -0.43805806742608233 0.023540803194844792
v 0.17960597683817703 -0.26681191116767228 0.093756712032371375
v 0.13721454974655325 -0.29589921397898233 -0.19595801012331282
v -0.21751431222408965 -0.23837609650911609 -0.17673399521126162
v -0.31049705720953258 -0.30262275112532805 -0.019767843112470374
v 0.21659265752351708 -0.093389182030979553 -0.16381054766697256
v -0.23638352259916262 -0.25486271957090439 -0.16173916544577183
v -0.31287745404221795 -0.44643476197252552 0.0010640828525140256
v 0.10365362290709565 -0.28688066939429607 -0.19690398234746712
v -0.31443289029649762 -0.36958276151678943 0.0010714261738078018
v -0.31653480129655392 -0.37409769763846978 -0.030869417003441257
v 0.23409512852128644 -0.093620034718628661 -0.14455664947840727
v -0.31496049638217777 -0.35163315220382996 -0.015405212860761075
v -0.31260382643455975 -0.31829505728107194 -0.042820975064138123
v 0.25887664785635101 -0.14421780064653678 -0.12730109697363057
v -0.3164599128664719 -0.40419527986231463 -0.033027986049440822
v -0.16780278526453107 -0.39694457507047115 -0.16821057828397068
v 0.029892368721532697 -0.30518743889800531 -0.18668560247050425
v -0.23870240718241192 -0.087054670593475547 -0.14112526421803817
v -0.24404382761059012 -0.086030261113748313 -0.12463009706746879
v -0.30955491714341288 -0.30741534358623629 -0.069685245018509201
v -0.31262513389436392 -0.33348957955582587 -0.066098952389466475
v -0.31472124775024918 -0.36073566907954646 -0.060278310100541105
v -0.31552235428865094 -0.38842894597286753 -0.056125295372225048
v -0.27342597092312082 -0.20493527433303604 -0.12484122468994785
v 0.19335967396028841 -0.2164105857024366 0.078154766225207423
v 0.28208957685674202 -0.42008250921636636 -0.10241841914447594
v -0.24415050239531794 -0.082783393389159271 -0.087553453771543388
v -0.24322835446659366 -0.081111947322752537 -0.069097904404121432
v 0.29611302058295441 -0.39339623322828154 -0.094966941885819278
v -0.13951033220150399 -0.51394890913598712 -0.16335521437125294
v -0.2413112864559788 -0.079438692615459633 -0.050768716907005365
v 0.26423754237326141 -0.13959784257720165 -0.095518867460984286
v -0.23835223304979919 -0.077730312745732028 -0.032607305874881878
v -0.23519633592585443 -0.075879836225042852 -0.014458817406000295
v -0.22677302930767204 -0.073968510340387872 0.00092199684333652346
v 0.27651318528762947 -0.25876615195489849 -0.12631230861540088
v 0.24141483710813533 -0.084678856272046174 -0.12638446847513146
v -0.21225077283748939 -0.071829624741752807 0.013633135114308376
v -0.19709656299510048 -0.069598756928888561 0.026442155096839538
v -0.18159225975241822 -0.067326549744863823 0.039366105646583036
v -0.035175765556145253 -0.2490541944491364 -0.20646996846658855
v -0.16466165553418563 -0.065035270453283861 0.051445912246141479
v 0.24611083543633033 -0.089306935861938982 -0.10281039243634549
v -0.14704146733567633 -0.062739289107599017 0.063488621264497558
v -0.30959493352776918 -0.40400271606924082 -0.076748845711037017
v 0.26721478849076691 -0.14669710588650445 -0.064538555890428298
v -0.10287228374359106 -0.33983871900181184 -0.18615224318949147
v -0.13824480850264784 -0.36074137633292225 -0.18761777615459604
v -0.13732300453432417 -0.33997667918275043 -0.19244035454932032
v 0.13868137114300666 -0.096907715418760115 -0.2214698857261119
v -0.30903747684381055 -0.37606201373598086 -0.08158820353073587
v -0.13585679607453557 -0.31972389282740626 -0.1975713068348435
v -0.30447896318425116 -0.32107222826034681 -0.093777204257912417
v -0.10537815614850601 -0.31702265164511234 -0.19285123575510671
v -0.13431588800052952 -0.29966396840721349 -0.20294625898627827
v -0.12912573438961011 -0.060516935536956834 0.076325933116025202
v 0.18251467896993842 -0.26819828781905231 -0.18822843333858216
v 0.2450602386618605 -0.085834328143299457 -0.077881427959334379
v -0.29542295910429422 -0.39208021024035744 -0.096954880491942286
v -0.10947997420516076 -0.058617013506941762 0.083770439022794019
v -0.087915517329614973 -0.057081158592381581 0.084951246699933675
v 0.24906146611484298 -0.101143046365589 -0.046574836975975614
v -0.038322591995087821 -0.16998244582401131 -0.22536660556670224
v -0.30721233285805077 -0.3484186759002299 -0.087734853261554474
v -0.28508567111031424 -0.30565208601699267 -0.11900810932138134
v 0.23981607213037023 -0.075283679984109036 -0.057459245249061763
v -0.29309965132329996 -0.36398106526934715 -0.10409536028948599
v 0.26877440548018255 -0.15623601306139981 -0.035920615009501028
v -0.27647757400257383 -0.38046600468640102 -0.11620952805566051
v 0.099516718914521518 -0.27922022227059923 0.11055972525665625
v -0.075627712341206688 -0.081253356590287609 0.085500085548573634
v 0.23236358694484419 -0.072054539118659264 -0.013552065413139747
v 0.24133627740563268 -0.095121927799844352 -0.013463790013614835
v 0.23763294534549348 -0.076636783093289029 -0.034146705456183757
v -0.25941129962960718 -0.3972965214490482 -0.12461766546446376
v -0.27193188592952261 -0.35325680024122824 -0.12467803500082791
v -0.25157424943801121 -0.37008744955600281 -0.134981404920235
v 0.18654301252456845 -0.39526014071437282 0.10303951760316807
v -0.2682480282352161 -0.32643907947391809 -0.132097235003858
v -0.029757819596306467 -0.12395036878882121 -0.2292601389106316
v -0.24496195639835694 -0.34363595740572878 -0.14388562367397575
v -0.071135902032977691 -0.13641141091060752 -0.23191205283123176
v -0.17588456585852993 -0.18572767817240876 -0.20704564096014938
v -0.16690361328355022 -0.15745467935759799 -0.21159742952626567
v 0.31217026511859247 -0.40175742297328076 -0.050733921659369317
v 0.31357454927984785 -0.38816385442483281 -0.0076088103953112218
v -0.21423719937474003 -0.35900287811808873 -0.15626892545396204
v -0.21713230014729004 -0.32732919923111331 -0.16138964534202865
v -0.24419357260495206 -0.084445503452801385 -0.10605449959187593
v 0.26064645820971521 -0.14129287844863581 -0.020266779131895923
v 0.25461763239047941 -0.14096033564206373 0.0053511672667999333
v -0.27519557433085956 -0.48938964419755809 0.069027647492247685
v 0.30873339826046431 -0.43269977657075043 0.026339405842769642
v 0.31066128629989487 -0.39736877147855887 0.018569527114104756
v -0.26608210876032623 -0.51327199223179676 0.071263580344221422
v 0.23965919936712987 -0.11430853473411096 0.012380457328012295
v -0.19135154654648867 -0.48986498030455133 -0.13996792300559247
v -0.18428936915144178 -0.51369476598230912 -0.13909239268557022
v 0.13859134168098231 -0.43742379885017907 0.10969764623761241
v -0.16261815410702946 -0.51373699449318877 -0.15037411123592498
v 0.072739091583359547 -0.047421054915888744 0.094779250490182987
v -0.002068342729843714 -0.13335439859357417 -0.22761094488918007
v 0.050078555738625095 -0.049360242982413149 0.092366123143190065
v 0.080609569753249094 -0.45125369673774013 0.10513725601472368
v 0.29014655899836889 -0.41614793038155223 0.0657015486392038
v 0.11814083087387273 -0.071511235615895938 0.07318490944160716
v 0.23768033627420507 -0.47993378815708276 0.088996564416053026
v 0.22289241846306024 -0.45749546044740419 0.093717225761223377
v 0.26315672103976001 -0.46080563935764246 0.079889945182011202
v -0.034467814572123029 -0.19559247157126042 -0.22063818025801105
v 0.28508085705407615 -0.45129345432473067 0.068359858600995499
v 0.19848998941350204 -0.45322352390816201 0.099280738641655875
v 0.31108576473244681 -0.46190219481250289 -0.034970569517427219
v 0.2407460534779115 -0.14901166121967696 0.030520175426918345
v 0.22270562275085357 -0.12698912247476954 0.033870744107466932
v 0.25644905849554434 -0.11559830776392047 -0.078530877630446028
v 0.26794427893714917 -0.42711125704285208 0.078820613385678556
v 0.25297697292076027 -0.11445703039432151 -0.11908142954223769
v 0.23769358348021288 -0.12533687264219986 -0.1506666304689267
v 0.14162419870513276 -0.074975632363209754 0.062479129655552718
v 0.2453906305498261 -0.41020492544548004 0.088405615181468389
v 0.27095351188943978 -0.38969136757518852 0.078103124304048116
v 0.21162744759199897 -0.11673767567437743 -0.17438723184120666
v 0.18638324888232372 -0.10477487336434606 -0.19237524736931821
v 0.24443788889904194 -0.44312152737050226 0.087781369505017054
v 0.1745463123174994 -0.11922047222939336 -0.20267759623920981
v 0.24592577003159466 -0.46589129739993673 -0.11677160374925324
v 0.21463354293146197 -0.4537295534410058 -0.13532183973625828
v 0.21725924523253515 -0.39596129312150535 0.096998926050373635
v 0.17053249799615561 -0.45344501541073157 -0.15422523358982901
v 0.12446111661054104 -0.11890920954453475 -0.22782102459127104
v 0.22087717841794885 -0.42826719077610409 0.095171539172459518
v 0.2680935996177537 -0.32500585791485742 0.077211166076397914
v 0.30205070585225174 -0.44372106703409281 0.050186941589487222
v 0.31102652174946943 -0.45428896456398293 0.0077887861785529977
v 0.31285433702411908 -0.44287719261755104 -0.01684889091126332
v 0.28411817889687552 -0.33448653903303543 -0.11537725825583635
v 0.1809868919369905 -0.33067520848135867 -0.17522484427771434
v 0.19196740204008989 -0.42259887333131396 0.10155899819205602
v 0.14996193495101837 -0.34741039600263252 -0.18194592700971141
v 0.29598104792234237 -0.44624939457262525 -0.085461829031949238
v 0.30775123869155291 -0.45213173211361157 -0.06054379456673098
v 0.16994488496367965 -0.37280540652400607 0.10553921185563431
v 0.12931795772933216 -0.34511815389184181 0.10969707268209677
v 0.19994372317994119 -0.11797547428806252 0.04447753276399527
v 0.16441066142989733 -0.076816287048141363 0.051862828223080304
v 0.13595060016964489 -0.32051488511073184 0.10729401196740568
v 0.1435682767467108 -0.20063194284788577 0.08742059689773593
v 0.12946945895363152 -0.22679600487482382 0.096184825081935599
v -0.095509134868260626 -0.45681354258020718 -0.15878552873430912
v 0.15536273120907307 -0.10191322676351128 0.061427921365275806
v -0.059675186158806973 -0.39979451334511151 -0.16517783810769507
v 0.12838496488547357 -0.13866868290408871 0.079472339004960146
v 0.14442441971271708 -0.1233439456283596 0.070342310363127186
v 0.10429318260022913 -0.140938753613189 0.088842032973515284
v -0.065603536086593514 -0.48239343539172702 -0.14956378672682269
v -0.020680293754229293 -0.38943855862397692 -0.16411084147110558
v 0.21139162384420673 -0.23833101360090994 0.079489610408060213
v 0.31161027468476421 -0.32871976124284885 -0.033798826198203069
v 0.24448467002757229 -0.2162807992603904 -0.1564418549678844
v -0.015430269271357211 -0.48168881358977472 -0.14501557653911423
v 0.21263577977527498 -0.34188327648111705 -0.15904621358649754
v 0.11336907625924619 -0.24395949150221646 -0.21019303761238639
v 0.11013312593790817 -0.33725210597092292 -0.18317476798657259
v 0.038978900868956223 -0.48160146736238191 -0.14543658670552395
v -0.032358317762371844 -0.33775435474361792 -0.17839804606047396
v -0.058585309870811467 -0.27141254427021644 -0.20110784313105828
v 0.11820786086271856 -0.45650041083391751 -0.15837604494051921
v 0.089907639195370148 -0.48230704474097802 -0.15032014004248703
v 0.057209466795455854 -0.1096790911372799 -0.22949439768107543
v 0.17791039961801045 -0.10283748893744635 0.051327877067745109
v 0.17720117786179768 -0.13324154288670229 0.05954777044682269
v 0.13858638438892512 -0.48415941512328659 -0.15537127940484846
v 0.12446703867289877 -0.15991591026684887 0.085021492956767308
v 0.15098083757205813 -0.17591948814586283 0.079838042790269265
v 0.019580632477175591 -0.1103885672719447 -0.22841029128840773
v 0.18352988453215016 -0.48402668024230772 -0.14343272524051615
v 0.20959244603094515 -0.25678203019542184 -0.17679412772443565
v -0.081982186615361205 -0.20926683179226424 -0.22162185319494071
v 0.21572154275154454 -0.4020952455622786 -0.14506828305644079
v 0.21845971309462725 -0.48543968820577549 -0.12731565795752547
v -0.10080737528216602 -0.36302019610535652 -0.17997633931622631
v 0.24399836415666804 -0.4927081609840257 -0.11272403033475149
v -0.071253560692607604 -0.24985771828625433 -0.2091286923141441
v 0.26812861965964535 -0.48472065088249 -0.099658219863565239
v 0.28612298791508456 -0.46956605168537019 -0.089466470568602907
v 0.20138373110599281 -0.28779820754443308 0.093290685983691168
v 0.069482399968173736 -0.13617379165337487 -0.22849616032215608
v 0.032971982454459953 -0.13301974613473916 -0.2274949913217984
v -0.096065196179861048 -0.27499381882880142 -0.20432734723213422
v 0.30097954259457627 -0.47569758733072409 -0.071820987753970486
v 0.12455582804823331 -0.3917907790152636 -0.17194542824984049
v 0.30808332432414032 -0.39174593959387749 -0.073555391247129162
v 0.31376040955424556 -0.41087965970920853 -0.024780685270207131
v 0.19226554120800204 -0.39417016699806434 -0.15744465875426253
v 0.1625211532521311 -0.39285854287194882 -0.16914809439697026
v 0.31111644246431236 -0.47830767719519157 -0.0098876719603821633
v 0.26609487410102017 -0.16130379988364951 -0.0075834086533817235
v 0.27444450446937751 -0.16835011630050206 -0.078427291662142046
v 0.27545842078107818 -0.38650341440652214 -0.11386205059711298
v -0.042498146457601887 -0.45325548708209684 -0.15179513746747678
v 0.30593605490767417 -0.47280580003921641 0.032340299054639199
v 0.22943545015380901 -0.25810544426436965 0.079563941411027655
v 0.31128062327072598 -0.37206504209610058 -0.060016432359218393
v 0.31370451091179585 -0.38010197372989507 -0.034194917289347787
v 0.0536107224934885 -0.37369676565529636 -0.16874029154159276
v 0.29649209669562238 -0.48108135032747001 0.055220104339996745
v 0.09861734284366111 -0.18814674158882 -0.22320137026287415
v 0.097392230694420476 -0.25957054414701419 0.10901099702062217
v 0.10711747371740371 -0.36339408522528888 0.11480997483159577
v 0.19688847251016001 -0.3735577473972776 0.10121786844087288
v 0.27818765587421712 -0.48390981797145288 0.071188233744366669
v 0.14628167377675 -0.18389526464079639 -0.21886333914960904
v 0.10178112219805206 -0.29928966420438563 0.11173028198486279
v 0.095056065044676119 -0.24021694313708541 0.10729036721822793
v 0.25798250418117408 -0.49058920107055187 0.080906540059841797
v 0.11903364376796538 -0.18180510673729139 0.090909616253333436
v 0.087443921970652108 -0.18234424104458927 0.10127148729478097
v 0.21576715316889974 -0.099320789365066137 0.028336295195405009
v 0.20999692776004084 -0.48350318103634388 0.096199542933694898
v 0.2070306931391753 -0.072056954154358671 0.024689088530980313
v 0.30720065149934928 -0.48359907388473 -0.050428324570149549
v 0.2490304749490776 -0.2538704159484021 0.07050077524036763
v -0.053144536293527514 -0.11076467105365433 -0.23205101083586788
v 0.17986638283593581 -0.481607890220207 0.10203694777525646
v 0.00048804103259994513 -0.15319421410954148 -0.22592222232420622
v 0.14538238423732266 -0.47470544186679109 0.10838695191292991
v 0.16908245461198099 -0.445620544715844 0.10435470769414432
v -0.048045534859402564 -0.22383509191335293 -0.21467175140695671
v 0.11442035783124649 -0.2034605745134091 0.095974861606833217
v 0.13876636270778239 -0.37623473191677526 0.10958303427353755
v 0.10892124419658288 -0.38583465758569579 0.11506385095757871
v 0.10365774820606297 -0.3198644625801681 0.11310660241372827
v 0.28912826883677767 -0.49251975941349307 -0.08269018551234647
v 0.10534716208251174 -0.34130897878986632 0.11424437661473663
v 0.013706713698982936 -0.44682313561915715 -0.15047137245618536
v 0.042295053387450016 -0.27893991205112767 -0.19552129564224735
v 0.081413098132747552 -0.26418659490306745 -0.20228641696557137
v 0.29406166577947906 -0.26294918484131752 0.026648429816532954
v 0.24779709511792919 -0.30217172033098832 0.082702457263029466
v 0.30119047025105322 -0.29473054222751927 0.026627307227709701
v 0.070137262255377281 -0.45224869520383626 -0.15294437631055199
v 0.30941940037448445 -0.49073538332073152 -0.029398707341809868
f 555 540 123
f 389 162 497
f 567 540 568
f 583 104 251
f 463 489 430
f 453 94 255
f 483 484 162
f 446 640 671
f 574 577 251
f 50 244 238
f 52 244 50
f 575 57 53
f 55 249 52
f 55 2 250
f 577 248 563
f 575 437 432
f 57 597 589
f 2 265 262
f 589 592 57
f 262 259 2
f 5 267 262
f 602 606 589
f 5 9 11
f 58 606 610
f 11 272 5
f 12 278 11
f 565 793 8
f 630 60 632
f 13 425 12
f 424 289 160
f 289 424 13
f 643 649 60
f 181 403 179
f 483 206 484
f 163 651 174
f 53 563 558
f 651 65 650
f 163 389 384
f 683 66 65
f 455 558 563
f 165 384 171
f 340 331 34
f 67 66 683
f 206 470 63
f 385 102 856
f 67 702 70
f 344 340 696
f 179 403 406
f 710 70 702
f 16 352 14
f 111 112 59
f 63 64 655
f 18 368 16
f 710 742 753
f 119 112 111
f 394 671 545
f 551 922 903
f 19 375 18
f 753 740 711
f 406 470 179
f 261 615 108
f 545 453 439
f 178 386 530
f 24 386 23
f 72 753 742
f 26 396 24
f 768 765 72
f 119 142 112
f 32 63 470
f 112 142 161
f 399 400 396
f 154 343 182
f 545 671 448
f 399 415 400
f 768 770 765
f 32 406 410
f 418 415 399
f 770 183 777
f 387 300 166
f 415 418 422
f 105 86 299
f 169 42 839
f 170 142 119
f 173 172 705
f 329 638 343
f 134 738 737
f 185 638 329
f 692 661 145
f 150 74 741
f 637 345 873
f 132 145 661
f 170 184 142
f 138 495 760
f 138 136 188
f 136 194 188
f 201 87 194
f 270 87 205
f 216 49 210
f 46 216 724
f 198 184 170
f 43 96 907
f 219 39 218
f 45 43 41
f 224 37 219
f 498 224 514
f 86 105 342
f 225 36 514
f 378 107 110
f 80 233 107
f 22 41 43
f 198 217 849
f 41 581 45
f 103 233 76
f 76 40 103
f 222 217 214
f 678 100 40
f 98 41 22
f 366 41 98
f 40 76 678
f 215 4 284
f 215 98 21
f 537 536 92
f 222 234 217
f 904 537 92
f 460 462 30
f 284 471 366
f 222 239 246
f 586 903 759
f 462 28 30
f 246 234 222
f 454 449 28
f 237 391 924
f 560 319 921
f 246 888 252
f 431 471 282
f 455 560 391
f 319 560 241
f 50 238 793
f 50 566 52
f 52 574 55
f 258 263 510
f 244 52 249
f 55 253 2
f 284 792 657
f 303 670 667
f 303 100 674
f 250 249 55
f 273 274 252
f 251 253 574
f 100 303 301
f 301 570 100
f 104 261 257
f 677 100 678
f 273 285 274
f 257 2 253
f 2 257 265
f 250 2 259
f 570 568 40
f 752 292 293
f 294 296 285
f 285 296 274
f 684 497 679
f 277 274 296
f 440 447 442
f 579 489 463
f 692 329 695
f 259 262 267
f 871 736 360
f 262 271 9
f 40 100 570
f 570 567 568
f 203 128 270
f 310 296 294
f 305 296 310
f 87 270 194
f 9 5 262
f 5 272 600
f 276 9 271
f 9 276 11
f 272 11 278
f 302 323 310
f 568 103 40
f 108 615 89
f 280 11 276
f 11 280 12
f 103 568 540
f 278 12 425
f 323 337 328
f 283 12 280
f 12 283 13
f 283 297 289
f 289 13 283
f 540 561 231
f 425 13 424
f 209 288 205
f 291 125 286
f 346 337 323
f 49 304 288
f 173 350 351
f 297 654 314
f 347 158 864
f 304 47 311
f 47 304 49
f 47 46 481
f 360 361 855
f 501 684 146
f 481 311 47
f 46 39 481
f 343 695 329
f 314 289 297
f 289 314 160
f 481 321 308
f 481 39 321
f 325 122 321
f 325 321 37
f 37 321 39
f 333 160 314
f 324 266 333
f 527 107 231
f 84 121 325
f 36 327 498
f 160 333 34
f 327 120 84
f 36 82 371
f 277 393 390
f 689 34 333
f 34 689 340
f 313 34 331
f 266 334 689
f 334 260 341
f 340 335 331
f 107 527 110
f 54 404 405
f 696 14 344
f 61 401 44
f 38 299 407
f 358 14 348
f 14 358 16
f 344 14 352
f 356 704 712
f 352 16 368
f 413 62 417
f 370 16 358
f 16 370 18
f 175 705 134
f 713 115 110
f 371 27 378
f 27 371 82
f 381 18 370
f 18 381 19
f 368 18 375
f 80 378 27
f 19 381 235
f 19 395 23
f 19 23 178
f 202 506 913
f 23 395 24
f 386 24 396
f 398 24 395
f 24 398 26
f 26 398 220
f 26 412 399
f 396 26 399
f 418 399 412
f 164 180 444
f 444 443 164
f 175 173 705
f 685 84 120
f 422 300 415
f 685 121 84
f 172 169 300
f 172 300 422
f 78 80 27
f 226 365 78
f 89 615 114
f 240 485 309
f 134 737 175
f 226 27 82
f 245 459 452
f 187 186 140
f 243 459 245
f 189 187 130
f 581 466 579
f 467 472 637
f 308 122 240
f 138 579 466
f 430 255 463
f 499 435 430
f 453 430 435
f 435 440 439
f 435 499 450
f 243 479 281
f 308 321 122
f 897 438 584
f 439 453 435
f 243 281 893
f 450 440 435
f 480 859 865
f 440 449 447
f 442 439 440
f 450 449 440
f 447 449 454
f 492 488 493
f 127 458 456
f 449 456 28
f 82 225 708
f 454 28 462
f 28 456 30
f 456 450 127
f 30 456 458
f 225 82 36
f 30 464 460
f 506 507 502
f 126 469 125
f 287 508 509
f 207 507 506
f 410 460 32
f 126 306 477
f 460 464 644
f 644 32 460
f 32 644 63
f 475 31 576
f 470 406 32
f 64 63 644
f 306 309 477
f 125 464 458
f 528 795 511
f 516 523 524
f 655 206 63
f 206 655 484
f 206 474 470
f 162 679 497
f 316 322 822
f 313 160 34
f 37 498 325
f 523 316 534
f 497 684 501
f 501 146 505
f 146 512 503
f 505 503 513
f 263 515 510
f 512 120 115
f 503 512 91
f 517 513 503
f 115 713 91
f 458 203 125
f 315 547 548
f 91 512 115
f 547 330 336
f 91 713 88
f 517 88 522
f 552 548 547
f 532 88 713
f 88 532 519
f 552 336 553
f 522 519 541
f 527 231 561
f 127 128 458
f 538 660 692
f 514 36 498
f 224 498 37
f 538 692 695
f 114 626 631
f 553 342 105
f 219 37 39
f 555 660 561
f 127 450 499
f 891 199 824
f 660 555 661
f 218 39 46
f 199 97 886
f 366 98 284
f 22 21 98
f 41 366 581
f 43 232 22
f 907 232 43
f 96 536 907
f 45 463 255
f 45 581 463
f 255 94 96
f 255 96 45
f 94 453 545
f 448 546 545
f 582 593 594
f 595 584 438
f 216 46 47
f 216 47 49
f 551 640 558
f 558 640 569
f 49 288 209
f 793 565 50
f 569 53 558
f 566 50 565
f 209 210 49
f 841 351 350
f 574 52 566
f 578 53 57
f 612 609 423
f 53 578 563
f 575 53 569
f 597 432 211
f 253 55 574
f 57 575 597
f 578 57 592
f 592 583 578
f 627 609 612
f 584 621 628
f 603 589 606
f 602 589 597
f 634 819 627
f 610 606 602
f 835 318 229
f 626 606 58
f 610 624 58
f 58 624 630
f 632 58 630
f 634 884 869
f 58 632 626
f 60 642 632
f 642 60 649
f 60 630 181
f 650 649 643
f 662 652 645
f 656 628 621
f 621 636 656
f 658 659 204
f 64 644 469
f 466 495 138
f 694 377 700
f 468 471 431
f 663 650 65
f 628 656 668
f 679 162 484
f 65 686 663
f 672 673 659
f 686 65 66
f 683 65 651
f 468 431 478
f 683 693 67
f 685 146 684
f 146 685 512
f 696 340 689
f 66 67 701
f 473 495 478
f 66 698 686
f 702 67 693
f 668 675 687
f 701 698 66
f 405 690 54
f 701 67 70
f 54 690 564
f 14 696 348
f 711 70 710
f 699 70 711
f 702 709 710
f 229 318 236
f 657 282 471
f 710 709 742
f 753 756 740
f 756 753 72
f 742 754 72
f 72 754 768
f 72 765 756
f 766 765 770
f 490 193 496
f 130 772 496
f 770 776 766
f 15 719 168
f 87 201 148
f 183 770 768
f 201 194 136
f 422 705 172
f 633 777 338
f 777 633 150
f 408 74 633
f 638 185 408
f 106 730 258
f 688 379 694
f 275 631 118
f 185 692 145
f 197 750 749
f 736 737 738
f 263 258 730
f 738 741 743
f 185 145 143
f 743 741 744
f 744 741 74
f 744 467 879
f 132 140 145
f 123 132 661
f 741 738 150
f 123 540 567
f 773 772 567
f 738 134 150
f 78 27 226
f 238 623 1
f 264 279 779
f 776 150 134
f 134 705 420
f 695 541 538
f 104 599 261
f 365 681 680
f 761 762 763
f 365 678 76
f 76 78 365
f 411 156 420
f 156 411 220
f 541 519 538
f 220 764 156
f 76 233 78
f 80 78 233
f 168 789 387
f 70 699 701
f 398 395 228
f 434 437 445
f 779 780 887
f 428 432 434
f 926 317 706
f 197 749 745
f 213 6 4
f 279 785 780
f 419 427 428
f 148 201 745
f 454 462 419
f 526 782 783
f 381 734 235
f 410 414 419
f 493 769 913
f 511 4 215
f 4 511 213
f 406 414 410
f 208 731 729
f 21 511 215
f 210 728 727
f 794 800 823
f 511 21 529
f 470 474 179
f 724 218 46
f 227 110 115
f 118 280 275
f 219 218 722
f 806 800 794
f 803 804 256
f 716 778 225
f 224 219 720
f 407 86 690
f 356 734 381
f 389 497 380
f 809 795 528
f 810 806 811
f 717 716 514
f 497 501 380
f 317 697 429
f 810 818 821
f 913 771 202
f 341 698 699
f 373 376 159
f 369 177 373
f 341 260 698
f 260 334 266
f 365 226 681
f 517 522 354
f 828 821 818
f 354 362 364
f 569 640 446
f 519 522 88
f 767 828 818
f 266 324 676
f 602 597 211
f 804 834 256
f 121 240 122
f 345 868 918
f 610 602 211
f 169 839 166
f 427 195 211
f 643 179 174
f 683 651 165
f 693 683 171
f 627 884 634
f 324 654 676
f 846 397 841
f 841 397 374
f 362 709 369
f 580 397 846
f 192 188 190
f 192 499 489
f 128 192 190
f 270 205 203
f 205 288 286
f 291 306 126
f 208 148 733
f 288 304 291
f 304 311 306
f 311 481 308
f 286 125 203
f 283 118 297
f 589 599 592
f 283 280 118
f 227 115 120
f 747 805 732
f 707 226 82
f 107 378 80
f 275 114 631
f 118 646 297
f 89 114 275
f 231 233 103
f 87 209 205
f 816 872 870
f 271 108 89
f 248 560 455
f 248 241 560
f 108 271 265
f 566 565 241
f 86 876 690
f 622 244 619
f 517 91 88
f 574 566 248
f 715 662 889
f 244 249 618
f 249 250 614
f 882 465 718
f 253 251 257
f 774 465 882
f 250 259 608
f 883 494 774
f 921 391 560
f 259 267 604
f 54 564 847
f 251 577 583
f 600 267 5
f 89 276 271
f 503 91 517
f 690 405 407
f 275 276 89
f 892 573 582
f 272 278 596
f 248 577 574
f 280 276 275
f 425 588 591
f 425 424 781
f 781 313 572
f 424 313 781
f 572 585 781
f 314 654 324
f 136 197 201
f 313 557 572
f 237 551 558
f 554 331 335
f 334 341 348
f 760 136 138
f 335 344 549
f 341 699 704
f 348 696 334
f 921 319 7
f 358 348 704
f 344 352 544
f 912 582 594
f 903 586 551
f 352 368 543
f 381 370 356
f 368 375 539
f 788 8 3
f 535 375 178
f 221 795 809
f 828 767 562
f 559 833 920
f 921 920 899
f 546 448 898
f 903 922 836
f 38 903 299
f 235 228 395
f 405 669 407
f 546 92 94
f 400 518 520
f 92 546 904
f 639 35 926
f 386 396 525
f 927 926 33
f 928 605 930
f 200 490 298
f 94 545 546
f 96 92 536
f 927 56 852
f 143 472 408
f 220 412 26
f 400 520 521
f 412 220 411
f 109 113 152
f 920 832 559
f 418 412 411
f 152 113 746
f 387 789 786
f 420 418 411
f 746 161 867
f 418 420 422
f 490 773 298
f 496 772 773
f 394 442 445
f 562 767 832
f 739 636 820
f 204 725 658
f 773 490 496
f 725 223 635
f 447 454 428
f 472 186 637
f 215 284 98
f 189 130 496
f 458 464 30
f 410 462 460
f 125 469 464
f 635 247 487
f 487 269 629
f 641 487 629
f 268 269 487
f 269 393 629
f 390 269 268
f 469 126 64
f 349 761 763
f 655 64 477
f 303 674 670
f 290 393 277
f 611 290 928
f 163 474 483
f 928 307 605
f 635 641 648
f 531 605 533
f 677 674 100
f 477 309 485
f 506 202 207
f 679 485 240
f 240 121 684
f 312 912 594
f 684 679 240
f 121 685 684
f 186 187 345
f 503 505 146
f 912 332 892
f 772 130 132
f 685 120 512
f 501 505 159
f 725 648 658
f 505 513 373
f 513 517 364
f 892 847 564
f 110 527 713
f 714 847 339
f 522 541 154
f 51 714 346
f 231 103 540
f 714 51 404
f 541 695 343
f 567 772 123
f 502 500 506
f 578 577 563
f 867 659 673
f 577 578 583
f 597 575 432
f 592 104 583
f 913 492 493
f 845 167 839
f 599 104 592
f 386 178 23
f 599 603 615
f 110 227 378
f 615 261 599
f 706 402 639
f 603 626 114
f 132 123 772
f 624 610 195
f 409 706 317
f 746 673 682
f 114 615 603
f 120 327 227
f 624 414 403
f 691 429 697
f 642 631 632
f 642 118 631
f 429 433 853
f 646 118 642
f 642 649 646
f 152 682 691
f 682 433 691
f 181 643 60
f 654 297 646
f 122 325 121
f 140 130 187
f 421 416 617
f 123 661 555
f 309 308 240
f 698 260 686
f 702 693 177
f 698 701 699
f 672 441 436
f 291 126 125
f 109 691 697
f 143 140 186
f 874 872 816
f 665 441 672
f 188 192 489
f 665 658 653
f 712 704 699
f 653 451 665
f 927 697 317
f 712 740 734
f 648 461 653
f 178 375 19
f 923 880 116
f 641 461 648
f 740 756 748
f 748 758 228
f 926 706 639
f 479 641 482
f 754 742 362
f 354 754 362
f 407 669 38
f 203 458 128
f 482 629 620
f 756 765 758
f 182 754 154
f 128 127 192
f 254 246 252
f 611 382 620
f 764 398 228
f 499 192 127
f 764 766 156
f 766 776 156
f 930 611 928
f 420 156 776
f 140 132 130
f 788 7 8
f 387 166 168
f 420 776 134
f 136 760 197
f 300 387 415
f 750 197 760
f 745 201 197
f 148 208 209
f 733 148 745
f 258 35 106
f 593 533 605
f 731 208 733
f 236 318 910
f 729 210 208
f 728 210 729
f 727 216 210
f 188 489 579
f 929 573 556
f 724 216 727
f 573 929 582
f 723 218 724
f 722 218 723
f 720 219 722
f 717 224 720
f 514 224 717
f 188 579 138
f 876 556 573
f 707 681 226
f 898 904 546
f 472 143 186
f 212 795 221
f 899 391 921
f 854 925 931
f 213 795 212
f 140 143 145
f 404 54 714
f 833 922 924
f 415 387 786
f 143 408 185
f 238 3 793
f 1 3 238
f 31 799 752
f 622 238 244
f 918 799 515
f 380 376 171
f 915 752 357
f 617 476 421
f 619 244 618
f 618 249 616
f 616 249 614
f 636 739 613
f 388 613 10
f 614 250 608
f 357 791 915
f 383 688 388
f 608 259 607
f 571 438 576
f 295 667 666
f 92 96 94
f 607 259 604
f 372 726 700
f 667 295 303
f 367 726 372
f 604 267 601
f 298 295 207
f 923 875 880
f 363 732 367
f 408 467 74
f 148 209 87
f 298 301 295
f 359 747 363
f 601 267 600
f 359 355 755
f 600 272 598
f 598 272 596
f 353 755 355
f 301 298 773
f 596 278 591
f 747 755 751
f 591 278 425
f 588 425 781
f 388 688 813
f 769 771 913
f 763 353 349
f 202 771 200
f 506 500 913
f 74 467 744
f 773 570 301
f 82 708 707
f 320 647 326
f 500 492 913
f 331 554 557
f 242 910 320
f 344 335 340
f 910 908 647
f 554 335 550
f 239 222 703
f 549 550 335
f 549 344 544
f 166 167 168
f 544 352 543
f 543 368 542
f 17 15 167
f 17 845 157
f 907 536 919
f 157 850 155
f 155 850 153
f 542 368 539
f 150 633 74
f 153 854 151
f 151 854 149
f 149 858 147
f 147 862 144
f 539 375 535
f 759 903 38
f 530 535 178
f 144 862 141
f 141 866 139
f 139 866 137
f 530 386 525
f 137 870 135
f 525 396 521
f 135 870 872
f 133 872 131
f 131 874 129
f 129 923 117
f 923 874 875
f 170 119 902
f 521 396 400
f 20 932 101
f 99 101 932
f 99 886 97
f 95 97 199
f 95 891 93
f 93 896 90
f 518 400 786
f 90 896 85
f 85 901 83
f 83 905 81
f 169 166 300
f 81 905 79
f 77 79 796
f 77 909 75
f 439 394 545
f 75 914 73
f 73 914 71
f 71 916 69
f 442 394 439
f 468 466 366
f 442 447 434
f 7 562 920
f 794 534 811
f 924 899 833
f 434 447 428
f 428 454 419
f 419 462 410
f 38 898 759
f 902 111 897
f 466 468 495
f 526 524 534
f 25 59 56
f 96 43 45
f 895 401 61
f 182 343 338
f 483 389 163
f 483 162 389
f 897 59 25
f 883 894 775
f 776 777 150
f 59 897 111
f 380 384 389
f 774 882 893
f 111 902 119
f 778 708 225
f 501 159 380
f 167 166 839
f 159 505 373
f 176 191 867
f 373 513 369
f 364 369 513
f 850 890 925
f 354 364 517
f 354 522 154
f 177 369 709
f 154 541 343
f 446 445 437
f 376 380 159
f 204 223 725
f 217 198 214
f 214 703 222
f 437 569 446
f 610 211 195
f 414 624 195
f 403 630 624
f 889 718 715
f 160 313 424
f 181 630 403
f 888 246 239
f 179 643 181
f 174 650 643
f 651 650 174
f 163 384 165
f 487 247 268
f 165 651 163
f 171 683 165
f 174 474 163
f 557 313 331
f 475 515 799
f 376 693 171
f 285 273 757
f 177 693 376
f 627 885 884
f 174 179 474
f 509 508 516
f 294 302 310
f 709 702 177
f 709 362 742
f 154 754 354
f 182 338 183
f 780 785 803
f 183 768 182
f 423 413 881
f 183 338 777
f 638 338 343
f 633 638 408
f 590 401 895
f 692 185 329
f 190 188 194
f 515 475 25
f 270 190 194
f 190 270 128
f 195 427 414
f 7 788 562
f 915 878 571
f 877 595 438
f 203 205 286
f 44 48 61
f 474 206 483
f 210 209 208
f 61 62 895
f 413 895 62
f 211 432 427
f 172 42 169
f 398 764 220
f 515 263 918
f 437 575 569
f 228 758 764
f 124 885 426
f 175 871 350
f 84 498 327
f 225 514 716
f 327 371 227
f 918 263 730
f 898 448 759
f 371 327 36
f 839 374 890
f 227 371 378
f 451 441 665
f 228 235 748
f 444 180 457
f 233 231 107
f 187 868 345
f 759 448 586
f 189 292 868
f 734 748 235
f 653 461 826
f 924 922 237
f 292 193 196
f 446 671 394
f 461 641 479
f 922 551 237
f 391 237 455
f 482 641 629
f 918 868 799
f 196 200 293
f 771 293 200
f 558 455 237
f 281 287 894
f 894 893 281
f 248 566 241
f 257 251 104
f 255 430 453
f 257 261 265
f 509 775 287
f 260 266 676
f 509 516 524
f 265 261 108
f 523 516 531
f 322 316 523
f 273 252 888
f 265 271 262
f 811 534 316
f 316 315 811
f 676 686 260
f 366 466 581
f 478 495 468
f 330 547 315
f 547 336 552
f 366 471 468
f 760 495 473
f 657 471 284
f 336 342 553
f 553 900 552
f 832 900 553
f 865 878 791
f 792 284 4
f 31 571 576
f 286 288 291
f 438 571 877
f 906 864 863
f 4 790 792
f 8 7 319
f 303 295 301
f 291 304 306
f 570 773 567
f 739 617 392
f 617 416 392
f 306 311 309
f 309 311 308
f 170 628 668
f 613 739 10
f 739 392 10
f 656 675 668
f 656 815 675
f 680 678 365
f 813 613 388
f 324 333 314
f 687 198 668
f 379 688 383
f 295 666 207
f 815 656 636
f 377 694 379
f 325 498 84
f 689 333 266
f 334 696 689
f 700 377 372
f 861 834 860
f 703 721 239
f 732 726 367
f 834 861 256
f 348 341 704
f 747 732 363
f 356 358 704
f 735 888 721
f 370 358 356
f 735 264 757
f 735 273 888
f 755 747 359
f 369 364 362
f 353 763 755
f 647 761 326
f 761 349 326
f 376 373 177
f 779 757 264
f 780 779 279
f 384 380 171
f 235 395 19
f 736 871 737
f 562 788 917
f 910 647 320
f 785 804 803
f 414 406 403
f 256 323 803
f 813 675 815
f 415 786 400
f 427 419 414
f 422 420 705
f 432 428 427
f 430 489 499
f 587 580 590
f 437 434 432
f 445 442 434
f 446 394 445
f 671 586 448
f 819 609 627
f 456 449 450
f 455 563 248
f 865 791 769
f 581 579 463
f 645 652 817
f 644 464 469
f 652 662 715
f 874 923 129
f 715 664 652
f 694 812 688
f 477 64 126
f 750 760 473
f 485 655 477
f 465 715 718
f 507 207 666
f 465 774 494
f 865 486 480
f 812 675 813
f 485 484 655
f 207 202 298
f 883 504 825
f 493 865 769
f 783 782 504
f 679 484 485
f 202 200 298
f 196 490 200
f 196 193 490
f 877 859 476
f 302 803 323
f 189 496 193
f 814 806 810
f 168 719 789
f 821 814 810
f 391 899 924
f 713 527 532
f 467 408 472
f 302 294 887
f 786 787 518
f 538 519 532
f 561 532 527
f 926 35 33
f 538 532 660
f 540 555 561
f 551 586 640
f 319 241 565
f 660 532 561
f 113 161 746
f 161 176 867
f 8 319 565
f 223 247 635
f 781 585 784
f 620 629 393
f 887 780 302
f 269 390 393
f 671 640 586
f 781 784 588
f 599 589 603
f 393 290 611
f 626 603 606
f 928 290 305
f 623 238 622
f 625 1 623
f 774 893 894
f 312 332 912
f 626 632 631
f 332 339 847
f 847 892 332
f 757 887 285
f 847 714 54
f 793 3 8
f 732 807 726
f 858 931 857
f 675 812 687
f 168 167 15
f 273 735 757
f 920 921 7
f 402 385 639
f 167 845 17
f 638 633 338
f 646 649 663
f 650 663 649
f 845 850 157
f 888 239 721
f 663 654 646
f 706 409 48
f 850 854 153
f 676 654 663
f 429 409 317
f 661 692 660
f 854 858 149
f 676 663 686
f 858 862 147
f 433 429 691
f 678 680 677
f 699 711 712
f 712 734 356
f 711 710 753
f 862 866 141
f 712 711 740
f 682 436 827
f 734 740 748
f 866 870 137
f 214 687 808
f 748 756 758
f 664 816 652
f 872 133 135
f 198 687 214
f 754 182 768
f 872 874 131
f 665 659 658
f 758 765 766
f 658 648 653
f 766 764 758
f 776 770 777
f 668 198 170
f 117 923 116
f 787 786 789
f 929 330 822
f 533 822 322
f 556 336 330
f 531 322 523
f 899 920 833
f 662 444 889
f 346 323 256
f 491 482 620
f 116 880 911
f 911 20 116
f 382 491 620
f 911 932 20
f 932 886 99
f 645 443 662
f 930 382 611
f 382 930 516
f 886 824 199
f 605 531 930
f 491 508 848
f 628 170 902
f 256 347 346
f 482 848 479
f 891 896 93
f 347 256 861
f 820 617 739
f 866 819 817
f 605 594 593
f 896 901 85
f 929 593 582
f 612 881 885
f 901 905 83
f 826 451 653
f 451 457 180
f 672 659 665
f 441 180 851
f 79 905 796
f 436 673 672
f 436 851 827
f 909 914 75
f 682 673 436
f 914 916 71
f 584 902 897
f 876 86 342
f 69 916 1
f 829 433 827
f 700 808 694
f 788 3 916
f 853 829 417
f 409 61 48
f 402 48 855
f 870 817 816
f 855 29 360
f 874 816 664
f 385 361 102
f 830 880 875
f 576 897 25
f 819 634 817
f 68 69 1
f 106 856 730
f 743 736 738
f 910 242 236
f 862 857 819
f 744 879 102
f 880 830 831
f 840 528 843
f 401 846 44
f 803 302 780
f 769 791 357
f 878 915 791
f 831 911 880
f 918 873 345
f 576 25 475
f 799 31 475
f 841 29 846
f 879 856 102
f 106 639 385
f 573 564 876
f 911 831 802
f 342 556 876
f 337 339 332
f 25 510 515
f 350 29 841
f 564 573 892
f 892 582 912
f 510 25 56
f 864 906 837
f 312 328 337
f 929 822 593
f 33 35 258
f 871 360 29
f 840 860 835
f 864 158 863
f 29 855 44
f 916 914 917
f 808 687 812
f 594 307 312
f 307 305 328
f 916 917 788
f 33 56 927
f 840 835 809
f 307 594 605
f 736 743 361
f 531 516 930
f 290 277 305
f 852 109 927
f 318 835 860
f 21 844 529
f 852 59 112
f 620 393 611
f 102 743 744
f 112 113 852
f 751 763 762
f 647 785 762
f 805 747 751
f 252 268 254
f 230 835 229
f 487 641 635
f 637 879 467
f 124 851 164
f 809 230 221
f 161 142 176
f 807 732 805
f 247 234 254
f 230 809 835
f 808 700 807
f 345 637 186
f 176 184 191
f 812 694 808
f 204 849 223
f 849 204 191
f 813 688 812
f 635 648 725
f 849 184 198
f 815 613 813
f 815 636 613
f 217 223 849
f 659 191 204
f 217 234 223
f 191 184 849
f 859 480 421
f 795 213 511
f 245 461 243
f 878 865 859
f 802 886 932
f 191 659 867
f 452 718 889
f 223 234 247
f 176 142 184
f 246 254 234
f 865 493 486
f 293 771 357
f 268 247 254
f 771 769 357
f 805 264 735
f 268 252 390
f 161 113 112
f 486 493 488
f 390 252 274
f 867 673 746
f 264 751 279
f 274 277 390
f 746 682 152
f 281 848 287
f 827 433 682
f 808 703 214
f 152 691 109
f 109 852 113
f 476 859 421
f 296 305 277
f 476 595 877
f 305 307 928
f 196 293 292
f 595 476 820
f 726 807 700
f 752 293 357
f 307 328 312
f 310 328 305
f 56 59 852
f 292 752 799
f 328 310 323
f 886 825 824
f 312 337 332
f 807 703 808
f 891 824 782
f 193 292 189
f 844 21 22
f 429 853 409
f 109 697 927
f 56 33 510
f 105 559 553
f 339 337 346
f 346 714 339
f 51 346 347
f 317 926 927
f 564 690 876
f 863 844 232
f 799 868 292
f 510 33 258
f 843 528 529
f 844 863 842
f 861 840 843
f 861 158 347
f 861 860 840
f 752 915 31
f 158 843 842
f 843 158 861
f 842 529 844
f 919 837 906
f 906 232 907
f 809 528 840
f 730 873 918
f 730 856 873
f 873 856 879
f 856 106 385
f 817 634 645
f 837 919 838
f 817 652 816
f 919 906 907
f 919 536 537
f 743 102 361
f 904 669 838
f 898 669 904
f 669 898 38
f 703 807 721
f 405 404 838
f 669 405 838
f 922 833 836
f 294 285 887
f 361 385 402
f 869 645 634
f 830 875 664
f 916 3 1
f 864 51 347
f 402 855 361
f 909 801 914
f 397 890 374
f 48 44 855
f 796 909 77
f 879 637 873
f 901 798 905
f 580 925 397
f 48 402 706
f 896 800 901
f 891 823 896
f 409 62 61
f 853 62 409
f 881 413 417
f 417 62 853
f 86 407 299
f 459 893 882
f 199 891 95
f 830 465 831
f 829 426 417
f 426 829 124
f 426 881 417
f 124 829 827
f 433 829 853
f 886 802 825
f 774 894 883
f 851 124 827
f 164 884 124
f 441 851 436
f 180 164 851
f 443 869 164
f 911 802 932
f 715 830 664
f 874 664 875
f 736 361 360
f 451 180 441
f 457 452 889
f 889 444 457
f 866 817 870
f 106 35 639
f 459 718 452
f 826 452 457
f 452 826 245
f 451 826 457
f 862 819 866
f 858 857 862
f 461 245 826
f 459 882 718
f 479 243 461
f 854 931 858
f 850 925 854
f 846 401 580
f 845 890 850
f 491 848 482
f 848 281 479
f 825 494 883
f 382 508 491
f 900 832 767
f 508 287 848
f 896 823 800
f 839 890 845
f 504 782 824
f 42 374 839
f 516 508 382
f 908 910 318
f 534 524 523
f 552 818 548
f 42 172 173
f 901 800 798
f 818 552 900
f 533 322 531
f 871 175 737
f 868 187 189
f 22 232 844
f 593 822 533
f 822 315 316
f 929 556 330
f 330 315 822
f 838 919 537
f 904 838 537
f 318 860 834
f 908 318 834
f 465 830 715
f 556 342 336
f 105 836 559
f 833 559 836
f 29 44 846
f 908 834 804
f 562 917 828
f 299 836 105
f 818 900 767
f 832 553 559
f 562 832 920
f 811 315 548
f 828 801 821
f 801 828 917
f 821 797 814
f 836 299 903
f 401 590 580
f 797 821 801
f 905 798 796
f 796 814 797
f 810 548 818
f 814 798 806
f 798 814 796
f 909 796 797
f 811 548 810
f 413 587 590
f 404 51 837
f 51 864 837
f 837 838 404
f 909 797 801
f 529 842 843
f 158 842 863
f 232 906 863
f 800 806 798
f 529 528 511
f 794 811 806
f 785 908 804
f 785 647 908
f 859 877 878
f 526 534 794
f 877 571 878
f 571 31 915
f 173 351 42
f 524 783 509
f 350 173 175
f 29 350 871
f 823 526 794
f 783 524 526
f 526 823 782
f 42 351 374
f 841 374 351
f 504 775 783
f 509 783 775
f 782 823 891
f 885 124 884
f 887 757 779
f 914 801 917
f 426 885 881
f 890 397 925
f 825 504 824
f 775 504 883
f 925 587 931
f 587 925 580
f 802 494 825
f 785 279 762
f 494 831 465
f 831 494 802
f 894 287 775
f 590 895 413
f 438 897 576
f 884 164 869
f 762 279 751
f 423 931 587
f 587 413 423
f 931 423 857
f 762 761 647
f 617 820 476
f 595 820 621
f 751 755 763
f 893 459 243
f 751 264 805
f 609 857 423
f 423 881 612
f 662 443 444
f 721 805 735
f 621 584 595
f 857 609 819
f 443 645 869
f 612 885 627
f 636 621 820
f 628 902 584
f 805 721 807
