v 0.10816001545069195 -0.48431806085974816 0.11953156631205883
v -0.094155238924546678 -0.45127194802413662 0.098556682206261348
v 0.10806987698027977 -0.45799667501254077 0.11839268378906942
v 0.074775788913027733 -0.08222732757425863 0.095758197727355637
v -0.17512871596282817 -0.47809611135051816 0.10300337565325314
v 0.074152195565279425 -0.052323146089018863 0.094480143359562119
v 0.10697690393315334 -0.40946424210079213 0.11742527667556629
v 0.1076758168910782 -0.43337041655361985 0.117851096399607
v -0.177482089348308 -0.45009851469542728 0.1032806619353497
v 0.15316124454459062 -0.070148551149023602 -0.21080439264510978
v -0.20733503942713843 -0.45650438298040963 0.094919210827864697
v -0.23644538486046651 -0.45301798868744703 0.08641380721188599
v -0.25875949682189403 -0.45097801601711807 0.078414208954165426
v -0.31520491464536482 -0.45423439938003651 -0.02129332158121014
v -0.10808712493661649 -0.51381282760819069 -0.15811247070610154
v -0.31462011476561169 -0.46041677401995984 -0.042694548984230196
v -0.0797006551108633 -0.51381097612147242 -0.15097446424775174
v -0.31056891908966044 -0.4601707495627248 -0.064627807510555635
v -0.29701536488885427 -0.45359984459548852 -0.083801391863401214
v 0.30546297160366709 -0.51429478322764544 -0.043324801201306051
v 0.079195817170968102 -0.12703639290577054 0.097721417809898903
v 0.081626364845499538 -0.14745785112865392 0.098993052560347239
v -0.27999558978071548 -0.46279300017148123 -0.096622004695081198
v -0.26358793716198914 -0.45537645834677409 -0.10963056257899392
v 0.062916912653114151 -0.20685328964717714 -0.2187898349686255
v -0.24469954930678581 -0.44440731246015247 -0.12285887547139193
v -0.25453510301040777 -0.12919090260246346 -0.13305548523992641
v -0.13722487723582166 -0.21961370219419885 0.096607283862678833
v -0.049612114375752872 -0.36872242330426269 -0.17487697479091255
v -0.15964683390156392 -0.20815410161584946 0.088761117135434761
v 0.011972592323703526 -0.17237413769227133 -0.22545933339713725
v -0.2166909685581952 -0.23699762281635833 0.078061591163715791
v 0.049064402884669497 -0.25290390504386751 -0.20616031143273167
v -0.30376099505171678 -0.45802191096470135 0.038412132676846115
v 0.019955360489526661 -0.26727892922530583 -0.201638659445107
v -0.26032918957102441 -0.12388002533306502 -0.092245769527035198
v -0.25793129842366391 -0.12410447396976018 -0.037868117011069916
v 0.12292536674347061 -0.27863544020041003 0.10595885857647927
v -0.25075994553019743 -0.11607061066942914 -0.015273896401317398
v -0.20502309916522055 -0.1312905585211771 -0.18504866453679863
v 0.036604549025645021 -0.14270760020721746 0.092531662037529855
v -0.10472253857255659 -0.4299812028272248 -0.16949310815599
v 0.056203373383058364 -0.16730474913113852 0.096057287975678279
v -0.0030788683186276228 -0.35907596142299236 -0.1739702466019023
v 0.021498136574326004 -0.16559723242200938 0.091793617609714689
v -0.23764919807198598 -0.10619439692197663 0.0044004282663795431
v -0.2295355555719969 -0.12338736595768404 0.021423282521621685
v 0.017487827765930331 -0.33080458820543346 -0.18134922996714298
v -0.20642586465282503 -0.11681247663746833 0.036879239648658156
v 0.041309982103510751 -0.45372326023388743 0.098854634865202434
v 0.17537514942035995 -0.19735744410616363 0.07780172964134105
v -0.0010367133444044718 -0.45277393363753221 0.093121602991803054
v -0.032504087153209238 -0.33018321547538965 0.094368361801944078
v 0.18480170666562645 -0.2442161188705822 0.087689557469161544
v -0.043655314770530571 -0.45409818998016815 0.092729595896728911
v 0.078191552299209502 -0.23489932670721544 -0.21208783338611617
v -0.07778999559064434 -0.33447869558701115 0.097231471363567495
v -0.19451076953737667 -0.32533764329230247 0.09965206771549609
v 0.10791564361094934 -0.21716055707411291 -0.21756427985526233
v -0.24728574752632063 -0.32856552211903034 0.086063065920134088
v 0.041002216233093219 -0.3521862657247215 -0.17548062314089222
v 0.083177369840096133 -0.35536397063173147 -0.17672111182106948
v -0.23771218840276551 -0.22507939486474873 0.064399711439105611
v -0.23009881356812828 -0.20163086444062756 0.057567726791310087
v -0.3061130523809476 -0.33155024529985577 0.037340607365803878
v -0.31266375972473404 -0.3405377886916609 0.0087819622603627495
v -0.31369088517932703 -0.32606144865434811 -0.016036458053650796
v 0.10839943125566781 -0.51504110482393595 0.121195125147017
v 0.13166253158035415 -0.51455927962568693 0.11451443519100332
v -0.31558278922498423 -0.34288418367020546 -0.040092209990543234
v 0.15428388056843459 -0.51459341603712216 0.10817495820179587
v -0.28939233334392228 -0.33340373094490877 -0.11272658907841698
v 0.17601316941422257 -0.51462243407038288 0.10321524484447445
v -0.15869724953688658 -0.30036672760796823 -0.19311360945524261
v 0.1969083515779006 -0.51457837303278753 0.098417629863985945
v -0.22350247535626977 -0.12855199409195384 -0.16921431428236255
v 0.21671997741507168 -0.51457353618958912 0.093539327816422685
v -0.23941850776940252 -0.12660804589551153 -0.15256483879168384
v 0.23520534625573045 -0.51456123151747912 0.087990149437635778
v -0.25067765880348075 -0.14455205304485935 -0.1433637739010829
v 0.25228819530603075 -0.51453542261358276 0.081500194211339055
v -0.25335253038188082 -0.11063438919474121 -0.12105271145661778
v 0.26857995156317366 -0.51449428417184584 0.074306777958175863
v -0.27398966564732785 -0.16290952825561095 -0.058282487127279389
v 0.28349032933348206 -0.51450276208329926 0.065924085538217658
v 0.17257215782613025 -0.29466927286194744 0.099363941503430947
v -0.14776356216112746 -0.11476483249025521 0.073428013657430208
v -0.27611258420077567 -0.22684012480534307 -0.12607972727919406
v -0.17819304222147686 -0.40446724849954041 0.10481115756285816
v 0.29503775368355861 -0.51453976501868204 0.055279213643327718
v -0.28665161103051306 -0.21571309017917084 -0.10381207558202386
v 0.063232058782045325 -0.21768806024317389 0.10036457803211762
v 0.30038420531881349 -0.5144280539144237 0.039477883690663934
v 0.02868314656235027 -0.21411829206008581 0.094815401899732393
v 0.30510593118090656 -0.51441333419967927 0.023491285073431942
v 0.048902394162788937 -0.19225308842779673 0.096257975537914153
v 0.30755333442048433 -0.51439622917504424 0.0070815549565431957
v 0.050809455379288285 -0.1201155666281017 0.093535041554694137
v 0.3084443547794275 -0.5143747913778699 -0.0096359753805728976
v -0.18625434010566003 -0.11188624832085269 -0.19554948586123538
v 0.30763045432331704 -0.51433978314997508 -0.026451679962082121
v -0.07733019189528674 -0.29423122487769027 -0.19948347924321036
v -0.22179862619047197 -0.15122922073511508 -0.1744518796771089
v -0.093492769298950507 -0.38737739269759514 0.099370565844464548
v 0.1655873222231512 -0.32068304062819952 0.10344622292685213
v -0.015048566622594017 -0.26892476898633166 -0.20228746816003951
v -0.25351834803421736 -0.16480697744269648 -0.14439626976154285
v -0.14874089076481983 -0.40939616337296564 0.10901051761618251
v 0.12868794800147509 -0.269071153268999 -0.20376908392729465
v -0.26920518853238018 -0.17739842811836068 -0.12595187163224275
v 0.13730974822555883 -0.20395223050165834 -0.21927497689674527
v 0.15386313229308507 -0.22726981524231099 -0.21112689915204719
v 0.15703705513609206 -0.25378968854583706 -0.20383021805884866
v -0.18677598171883247 -0.37796323419523242 0.10296359257489424
v -0.28000774579252335 -0.19018474634031149 -0.10306092120060413
v 0.30245336413305185 -0.51431090340275576 -0.060751392421740456
v 0.29315026499729119 -0.51432669469708869 -0.075485698567913873
v -0.24437333153511681 -0.39200560952715524 0.087582625780746465
v 0.16770112877214902 -0.20357591910537282 -0.20884516630355315
v -0.27868197218775542 -0.17717443476061928 -0.079447458904764193
v -0.27711472924959751 -0.17688993113278076 -0.031491301470632969
v -0.2686397347877657 -0.16103828033248421 -0.016062862666762864
v -0.19624310360041824 -0.18970031011662125 -0.1958220303216161
v 0.18790421267983326 -0.36329901190905867 -0.16595931290773122
v -0.18750863909443999 -0.17443888486307677 0.068060214527147944
v -0.21933536728492231 -0.17902804981669235 0.053393075789811437
v -0.11054352286051622 -0.18075651011177379 0.091162301956812339
v -0.13006196903609268 -0.16128113866968383 0.087928933294356984
v 0.2778890173338886 -0.51421583666042803 -0.086956502752054632
v -0.14895901504315637 -0.20271181352832091 -0.21757652168664998
v 0.26134454510498034 -0.51419124051456588 -0.098506660700970222
v -0.17756537851278326 -0.20731117549461814 -0.20429916811359
v 0.24293522078839766 -0.51416501648974011 -0.10914990213583749
v -0.17037474968554084 -0.36330286857258731 -0.17419328086499769
v 0.22342897497984071 -0.51412395523445453 -0.11945269129603023
v -0.093361673734802406 -0.1061761047713544 0.086188368632136775
v 0.20223543741206412 -0.51408276399464037 -0.12964331100778204
v -0.060190760807270427 -0.11189638078952437 0.086765225873859153
v 0.17977294428138493 -0.5140309933045295 -0.14023103075379525
v -0.15327326193838497 -0.22496933104229516 -0.21221095393258171
v 0.15622802636401836 -0.5141131933408486 -0.15149343141490906
v 0.19109203875289643 -0.21663709129042302 -0.19471675247111375
v -0.15805451009777227 -0.24796878674514933 -0.2053136735779782
v 0.1306773856577973 -0.51403416999373097 -0.15234662654072056
v -0.18392292960634127 -0.23066022120997121 -0.19683895237367532
v -0.2915314739264222 -0.21623676474219375 -0.051775971762249559
v 0.10288605172420244 -0.51394624764860819 -0.1485686026581152
v -0.15052301165466297 -0.0905517702237887 0.067226937428944186
v 0.073403904657113966 -0.51391644899158573 -0.14523337088769717
v -0.17571777212384054 -0.33006950431088367 -0.1792495391254478
v 0.042967855803342947 -0.51390294411037973 -0.14343446784727554
v 0.16045569006337537 -0.27765417794616554 -0.19688657691692676
v 0.012103113414839828 -0.51388347367629694 -0.14295245661261755
v -0.26795425827325792 -0.27784901165483167 -0.1358802785779839
v -0.018891218320789507 -0.51385977575036101 -0.1440537690513122
v -0.22962046613858822 -0.38658296696887001 -0.14293286972958658
v -0.049692487933392357 -0.51383834422705188 -0.14659200990550905
v 0.15400748293967059 -0.15454616907677812 0.073748504164176804
v -0.30150515396957578 -0.25406684822124548 -0.033423653989244587
v -0.29369111317006713 -0.4476666889176707 0.058668475108386867
v 0.1854944528158799 -0.24232327320461969 -0.19308409027304124
v -0.28670216496233902 -0.22955421033559403 0.021051263913868978
v -0.2933909996604217 -0.27188266096361158 0.041459932334912949
v 0.22260344758841472 -0.37242166923446701 -0.1481034428795458
v -0.30302477049710647 -0.28911765066881356 0.022507051750329674
v -0.13538483454464825 -0.4683814947880976 -0.1696955678797569
v -0.10074095937278967 -0.4860060956617247 -0.15933077304657925
v -0.13532847540704465 -0.49106423201633398 -0.16729105989340817
v -0.1351291378403684 -0.44606291778334467 -0.17303764926727513
v 0.19526394870155322 -0.18737215307601923 -0.19524050899378267
v -0.30613079204437227 -0.28445681623535646 -0.0017682067847610006
v -0.13519265255245599 -0.42393565351742102 -0.17678874994254051
v -0.13483606049038413 -0.40210069107219709 -0.18113395890086864
v -0.28169649991689949 -0.29054995491506275 0.062143583089328852
v -0.13425657107794886 -0.38057120530385768 -0.18567399793415487
v 0.20998012725720533 -0.23284905846229553 -0.1805233371839281
v -0.30915576601300399 -0.29094388583746 -0.047305006230629137
v -0.2862828381039364 -0.48591945398518233 -0.08715901179036023
v -0.25252177473231219 -0.27914411272331185 0.076601023502088264
v 0.24549434731086051 -0.34970457738480609 -0.14077381999829264
v -0.24272858556579036 -0.30316373188573037 0.084647132137181544
v -0.25626719160526396 -0.29870063946020564 -0.14393186957240217
v -0.24162148231346409 -0.31750404227794482 -0.15030959439752631
v 0.22014538424482907 -0.20995425569630455 -0.17603704458627942
v -0.18947679642470805 -0.25466058275304648 -0.18916454774531963
v -0.12261398613318615 -0.23961056005878312 -0.22261915912557487
v -0.12001300261147436 -0.2205765264348632 -0.22730395696014077
v -0.079667015029137755 -0.13442519272495534 0.08744017349302427
v -0.11723020835209833 -0.20167211125941362 -0.23122329950440038
v -0.11191633489399422 -0.14306639273665456 0.08763708012423764
v 0.23438711152956188 -0.23919328259456038 -0.16317777478491169
v -0.091457613318448538 -0.1603595273013188 0.088976645834563745
v -0.11415570293140084 -0.18261778837803452 -0.23427427886089619
v -0.11822516309488 -0.12085916045645455 0.085278200897442258
v -0.16671045447449365 -0.29093298275762647 0.10300697001368697
v -0.11134560027210687 -0.16335309080806193 -0.23671818741897788
v -0.10407943210313352 -0.082276273646694181 0.084515549652747435
v 0.23075767115591386 -0.18183166413730351 -0.16756461263940961
v 0.30866663098559416 -0.48546751125584103 0.012886124369500276
v -0.10902024196989403 -0.14400539530578163 -0.23872621486070877
v -0.12637396039183688 -0.096633047910987604 0.080869199526058116
v -0.10662037337413285 -0.12430692946343337 -0.24058252866857022
v -0.16033376070327993 -0.15788965142732533 0.075919088107461646
v 0.25843001919055902 -0.24798802160772004 -0.1431072661962946
v -0.16734237514519251 -0.13355422530588504 0.066517777326414923
v -0.26194904270847347 -0.23547406347660627 0.054902433503304496
v -0.10345602050108488 -0.1043035390154675 -0.24242565752855041
v -0.17141466953211237 -0.086079810243573654 0.052116273464443183
v -0.17734184285207316 -0.11066511321292105 0.054793698463998758
v -0.19580881648715964 -0.092615368054820998 0.036155263836622882
v -0.13531826255977961 -0.29873960780656944 0.10521819483798142
v 0.11214135446763207 -0.052307640408106121 0.074009530704390342
v 0.093061560280203542 -0.052265980190134093 0.084262669899059228
v 0.24901435139775036 -0.16152104600851036 -0.1459423011008516
v 0.076751062656907676 -0.10551536555742036 0.09658472853230779
v -0.21868951694835309 -0.098929555139097097 0.019817608691964174
v 0.25897929635323202 -0.19406004575988658 -0.14013148090869854
v -0.24217605258952876 -0.094191715194961487 -0.014470557198217092
v -0.24823381396708613 -0.099831291739695058 -0.034624244499128869
v -0.24199273587194603 -0.41441120912605151 -0.13060064273448341
v 0.13086252874439547 -0.052692694690403746 0.064014486031982676
v 0.26916506577363086 -0.17547377693460328 -0.12243077813790376
v 0.2743809978209939 -0.22835819085604542 -0.12673913558975358
v -0.25234588763699745 -0.10414458164627206 -0.055838161789457462
v -0.25157225983343595 -0.10041082658112659 -0.10162674916870752
v -0.24147354350419808 -0.10709378111254796 -0.1448094585488417
v -0.2726940208456653 -0.16469007940916192 -0.10410130686742766
v -0.27897994016370786 -0.40714047502114936 -0.10891232430950903
v 0.16742788448606152 -0.053299478040630732 0.044643821371063347
v 0.14942463757481064 -0.052994506419823645 0.054363845901157948
v -0.23749542573042803 -0.17045176648776161 -0.1624499246856082
v 0.084148781968189243 -0.16719584290427159 0.10068674422179741
v -0.23789834165073909 -0.14812716475434515 -0.15868586214939501
v 0.2791681188194754 -0.20369300688041936 -0.11383725754221935
v -0.29626454248680101 -0.4198020938146334 -0.091330552774756324
v 0.18448240697724883 -0.053509631600226343 0.034236611774679709
v 0.063861514066661851 -0.3362140204202293 0.10528821534226399
v 0.070716845182661817 -0.48162553470617059 0.10605439807055739
v 0.27244613082085817 -0.16256722623383277 -0.10188988831953066
v -0.27401991740635501 -0.18238982482085089 0.00025798650910520415
v 0.04562428290215309 -0.40507250046752469 0.10052847101043591
v 0.20045191412960739 -0.053651868210304376 0.022939681674008644
v 0.3095833256832235 -0.34420843688152408 -0.071561863770499098
v 0.025228172564533191 -0.48455699319322409 0.096095517657880852
v 0.30097996611303568 -0.34484340691265553 -0.094068375795119022
v 0.28034995159132686 -0.18614958066679066 -0.093944121326586597
v 0.2908019847437997 -0.23035436846337365 -0.096700919340031319
v 0.013281256668813884 -0.38742723911813182 0.095576607759727816
v -0.023108326431994924 -0.48458944707195001 0.092418619837336541
v -0.068216535302585465 -0.48216786413199764 0.095219368479604494
v -0.059875601634679962 -0.40152383444542328 0.094764628844394516
v 0.28597507991694904 -0.19966149634370595 -0.061902311398003271
v -0.063069698037565541 -0.42863454726723837 0.094711858143193717
v 0.28726946336592374 -0.20936791806423863 -0.086797435435049683
v 0.0074511416100819933 -0.18846312016472433 0.091591735333802077
v 0.21217124764702378 -0.15734106059740849 0.051141540365100324
v -0.09433757499813876 -0.41655437245083643 0.099079452997265033
v 0.0099036395982833453 -0.2489241739793111 -0.20776051124329126
v -0.10946647327934454 -0.48432339445721689 0.10250091445443016
v -0.31280207854712966 -0.38808250962447211 0.017136458562274318
v -0.12259548758998977 -0.39923570846120265 0.1048439133960143
v -0.14083121405957558 -0.45835397487381119 0.10770199158361603
v -0.0043470317664514313 -0.23168273964783143 -0.2133410003382411
v 0.26084293510812978 -0.13106681924847988 -0.042853850352200601
v -0.1262002137581856 -0.42893883303291291 0.1051091933228718
v -0.30920899813803027 -0.40984667392354118 0.030440836019770039
v -0.14669292154930352 -0.48904611201655218 0.10900931675359053
v 0.29348507364297638 -0.22768431420750809 -0.067692091353232217
v 0.29879859970395556 -0.24719947371478795 -0.049644039921487235
v -0.14067488011216916 -0.13832985643218057 0.080756858725756039
v -0.16126065704212389 -0.43020134236352464 0.10706456289238046
v -0.19964009858889178 -0.48879712858715513 0.09556134093746016
v 0.27822016843160607 -0.17744284975345714 -0.047424181108943683
v 0.28567865586543811 -0.20317945847032048 -0.030272097600770154
v -0.21015889229665441 -0.39878477465339879 0.096999165205882198
v -0.19575432069836457 -0.42687894660055603 0.099598858271762181
v 0.29144249224307095 -0.22783059670744521 -0.011225279597704113
v -0.22520881996700615 -0.48308039032486366 0.088208794819828296
v 0.25252309344613111 -0.12184061409601252 -0.015600686160328198
v -0.22549661610817856 -0.42462135628028513 0.091584300998786602
v 0.31311930770760604 -0.35054654102274102 -0.045040679824660632
v 0.0038291430220435685 -0.056438802510133418 0.088725487164950129
v -0.25235965647172376 -0.42418211017098378 0.082792466922399346
v 0.043115781435277702 -0.089620512986536505 0.091973130189606955
v 0.27676323713578638 -0.18212711865420428 -0.019474999442361002
v -0.18366598022786673 -0.15168336540464583 0.062714551653818715
v 0.31371682544035973 -0.35781336686142251 -0.017529255133204552
v -0.1941971083581735 -0.13413750962925369 0.051201529798215434
v -0.27534110999118622 -0.43343428722006538 0.072349099546904411
v 0.29519834767351194 -0.25014704144494615 0.0044634621095787363
v -0.20725642859607485 -0.15710642093278379 0.051461374082584894
v -0.074558671941743496 -0.18200669020125143 -0.22970394499826757
v -0.070076603421832556 -0.15651397592552146 -0.23278025858609658
v 0.27217260596097104 -0.18400326431218927 0.0047683780999899783
v -0.13711907274363477 -0.10628222447986729 -0.22381160883910484
v 0.28192756488904164 -0.20561120878805311 -0.00070849716906637439
v -0.27202668991036738 -0.40323759982560825 0.075836645817396603
v -0.13529798903209306 -0.13167426359905063 -0.22636079409486415
v 0.14179279473091166 -0.29879334350795639 0.10479558456832205
v -0.16090799744770584 -0.44921610095005438 -0.16118453380299375
v -0.16130880450920843 -0.12527687132855697 -0.21218543615065766
v 0.25988266515919362 -0.16992311439821214 0.021135043497591766
v -0.16169347029438502 -0.10226036127532528 -0.20923889798793502
v -0.21925125769549736 -0.14041094584105149 0.037005215052224441
v 0.28487268231647583 -0.22886988244824771 0.021467822394297731
v -0.23227568428117773 -0.16368455878964983 0.038357369602278001
v 0.28016584812392747 -0.24777367353758445 0.046204607686367277
v -0.26031755905376031 -0.15480868453734714 0.004807768793915472
v -0.2560124101396612 -0.17138052557823161 0.02371952662096672
v 0.27062024370108045 -0.19792903122885874 0.025722484197912898
v -0.24230146896796667 -0.14725973908710119 0.022523526658966491
v 0.25829123674382509 -0.23786118533140999 0.059510446972936282
v -0.29472959203561777 -0.48018604013396421 0.052863085327518308
v -0.29138367579759322 -0.41785377026798337 0.063313290464685854
v 0.25867808574373208 -0.3563076509495976 0.083024743728462858
v 0.28133025005259582 -0.35788134196518528 0.071176580165501213
v 0.075443813795126657 -0.2963614853430297 -0.19311250563514887
v 0.18986909230464208 -0.086245926602016215 0.040505099745704487
v 0.078663895633402564 -0.4060440006722511 0.10865520314944305
v 0.21498931112452394 -0.053849825650708172 0.010909221513101752
v -0.25999226344773696 -0.13899206649273183 -0.016219994470739973
v 0.28756539167079886 -0.33254608309147149 0.0639109881776799
v 0.24326018542881178 -0.18400839186442802 0.044952016464684441
v -0.30263373651703018 -0.40517704799979343 0.050153800196331935
v -0.26752703065679279 -0.14926241382398439 -0.038391981511459165
v 0.22389102717264231 -0.054567190019953249 -0.0046873673092356072
v -0.26958617200282708 -0.15002652802343253 -0.083898648970089612
v 0.26605872170622163 -0.21745268034745147 0.044607259419190415
v -0.21572744864043875 -0.25960849121553442 -0.17413527913979132
v 0.24287478285019498 -0.3293460204574471 0.087590152714692643
v -0.30374449479967097 -0.48581783660501227 0.030749741717794696
v 0.23523371095777526 -0.23677454359542593 0.070802872613959178
v -0.30361472855718358 -0.43016633789819431 0.044530631115812146
v -0.31383627609575243 -0.41621789900504519 0.0077006791888621917
v -0.3086027959785238 -0.49118821590881362 0.011167565640546995
v 0.21632753745521008 -0.3355363905861255 0.095345097755114933
v 0.24015896411607818 -0.21237114649811289 0.05873722801923234
v -0.2243886203441299 -0.29859994785937183 -0.16315421047370199
v 0.21851117464537806 -0.21925523028875976 0.070688244714495807
v -0.30957067573671293 -0.46500806170297532 0.016480304295697565
v -0.31637244031988182 -0.39471938968223952 -0.0094156657089699836
v 0.19477026868717251 -0.31589659585482877 0.09811483792013867
v -0.23911957695656783 -0.27605325130058173 -0.15783760572086741
v -0.31277296401116966 -0.47900652472283406 -0.0074972062651636195
v -0.086164797943139526 -0.23082061048706379 -0.22003247829463621
v 0.21088204303302799 -0.19142437519206132 0.063998559011255562
v 0.18278743051972868 -0.16974387655843995 0.067587055815963581
v -0.31619767484595562 -0.42369476174356474 -0.015042936849692046
v 0.22784920760221239 -0.055745182826601097 -0.023570185282143247
v -0.092382455404367722 -0.38568450061489695 -0.17687291857238407
v -0.089825518846754729 -0.408862961692738 -0.17132400313100929
v -0.31340892839129669 -0.48406995196968122 -0.030267325409847168
v 0.23147095533975237 -0.056843968995615585 -0.042498292213543176
v -0.28811528917374662 -0.27427999062185382 -0.11560232207368139
v 0.23409306796967089 -0.057915908440990593 -0.0616021443546627
v -0.31576544665222622 -0.41436950443303938 -0.05556372318153216
v -0.031156464408384821 -0.1437588288901647 -0.2306352674355896
v -0.31634836155421431 -0.43174536961048748 -0.03611703177950118
v 0.23608898363687866 -0.058975706466598915 -0.080922098649454322
v -0.064821085451826299 -0.3447108573531027 -0.18329837344034547
v -0.05826665302897642 -0.31752546336525767 -0.18998829485896279
v -0.30185726125344725 -0.29226026875181066 -0.096638997039052515
v 0.23677899622620177 -0.059977911250518073 -0.10057068755630902
v -0.3000126220590848 -0.26832654958762148 -0.094318801717330009
v -0.22579775883398776 -0.10627051152902815 -0.16247067281464125
v 0.014565660741568981 -0.11244133825548563 0.089591962612296294
v 0.23688751925047763 -0.060907382270695476 -0.12032519462465575
v -0.31182755884846058 -0.48703113443069529 -0.052685543338811702
v -0.30554444601950348 -0.27984435017483633 -0.072351734263318021
v -0.31471499510834811 -0.43946874748959619 -0.054620180397078333
v -0.26400283938120983 -0.13860533234987454 -0.1096599315415701
v 0.23058029095433463 -0.062162383616989614 -0.13787104118165783
v -0.3042331595125215 -0.26621646725696757 -0.052154718104829356
v -0.065375806689187507 -0.42893805652668793 -0.16293001651754643
v -0.30173190600483479 -0.48430215311611646 -0.072554670084015255
v -0.30639469488505222 -0.27616817590766196 -0.026628226872875249
v 0.21753813456232413 -0.063718376279287059 -0.15343933221530254
v -0.26357715582628666 -0.1536514049621612 -0.12630996185639065
v 0.20360939870458045 -0.065222625657768374 -0.16884104716146309
v -0.30040640662574974 -0.25567879562467122 -0.0081310951623823902
v -0.30917987528788271 -0.43131197703726309 -0.073347996338744115
v 0.30717738260724348 -0.30602049144953036 0.0044225748063737302
v 0.18813363774576869 -0.066819431050205352 -0.18323456302531391
v -0.30029577765159327 -0.26952708089659172 0.014252492689854221
v -0.035554042328767549 -0.29181919309098736 -0.19612152943901581
v -0.26841920377331485 -0.48475115829803334 -0.10094319389183037
v -0.16271859367688818 -0.47804769853461393 -0.15566706069014946
v 0.17176072959967678 -0.068454229338565764 -0.19738297506994296
v -0.29419359120923927 -0.24956565142876658 0.018609210978440621
v 0.29331909377859527 -0.22597065044824999 -0.039728667317357094
v 0.075438401346469314 -0.36031460933152926 0.10813450229648269
v 0.13352184156559832 -0.071841510556532678 -0.22457100130784136
v 0.30021048429319835 -0.25510208139818957 -0.022012637743528241
v -0.016327511911782958 -0.25357005793830256 0.093324941513306114
v -0.28089077427798181 -0.43638319990918134 -0.10134402892975122
v -0.24534499735649121 -0.47822665250823837 -0.11606804937177106
v -0.022698339974709325 -0.42181831135321557 -0.15980560568160251
v -0.26238139379073316 -0.42530983134413625 -0.11656308832920032
v -0.22169539168756699 -0.45617748034045436 -0.13218556589091104
v -0.21714977112109035 -0.48568051334027107 -0.12862821925439918
v 0.022380461313559571 -0.37954891743696445 -0.16817070549621949
v -0.010984566033579862 -0.31149006829094883 -0.18814324874228786
v -0.22006486170508979 -0.28724263320310628 0.089164900588622018
v 0.16370660129334436 -0.22418969792320123 0.087782278274761899
v 0.15564340399694138 -0.24896011218693487 0.094863868704493953
v -0.22032832657708196 -0.26170190531605064 0.084019716362688304
v 0.15074865258488074 -0.27399076350197105 0.10003864559509645
v -0.16697945645828535 -0.27442628685474713 -0.19546878937485657
v 0.068798168538067861 -0.32610420682988245 -0.18366161321778479
v -0.18996736486619406 -0.24693637342443064 0.08925780894978462
v -0.21955585792910409 -0.40926281865388747 -0.14283855474973642
v -0.22666991799808853 -0.43106314644696769 -0.13483290587864905
v 0.089367400936969654 -0.39056980518896189 -0.16856524775161469
v -0.18753759474509604 -0.27227447646727343 0.095256502757096531
v -0.1914989992895216 -0.45834641212232485 -0.14570596230627164
v 0.11171781958244299 -0.073531948539042408 -0.23186221032560977
v 0.11937875480039645 -0.36513476098608805 -0.17741187497485505
v -0.20336499101841365 -0.42939666769986973 -0.1461847904476633
v -0.15682620667175279 -0.2539402990083513 0.099726146987477962
v -0.1962967694478846 -0.39145232799464036 -0.15730692172286143
v 0.086764716698587568 -0.075130509459620881 -0.23195967105877219
v -0.17481411512470599 -0.42330905863527513 -0.16018198720722399
v 0.10608391227154468 -0.42335705623071662 -0.16308582871264601
v -0.27682279326643577 -0.46240850040362458 0.069568992166030061
v -0.25172201007673167 -0.48083486209056508 0.079377065555597315
v 0.15252287467550166 -0.37205329988150698 -0.17606103752924454
v -0.14345051474115761 -0.27540088361647419 0.1038944937016372
v -0.11616710961803063 -0.26055844439623255 0.099893677551104149
v 0.11007759509262922 -0.31128484546810764 -0.19086503175975267
v -0.032018535124826386 -0.18454424327493144 0.08976572061915894
v -0.019503146517198908 -0.05748499035341964 0.087304044413895776
v -0.099668283115084924 -0.28692624414402024 0.09914571010990858
v 0.14980425646076023 -0.32089942709266506 -0.18802531953780302
v -0.07900480473904109 -0.26466521722145719 0.095709442687389207
v -0.050159275455482974 -0.20498468205115772 0.090634289720940925
v 0.21067919488552805 -0.3129204302988543 -0.16611034659700952
v -0.054763657860259482 -0.28579376822719083 0.094711124548284981
v 0.089473502628680007 -0.15968031618046793 -0.22708222946932732
v -0.030918770875344254 -0.22906106600828038 0.091849974900301751
v -0.071004588109299882 -0.2237031577136929 0.092458470962298589
v 0.23905429686324295 -0.32257880802246414 -0.14952192377479678
v -0.056403400921351932 -0.24537924883076634 0.093061661320384043
v 0.23891412092291037 -0.39550029196513808 -0.13458344920303758
v 0.25446491301112012 -0.37646867421951302 -0.13002967201443982
v -0.0440464002493174 -0.26553539804739623 0.093723901717929409
v -0.014603988509296506 -0.27935290468138602 0.094324743347581341
v -0.093075323576164937 -0.24233182584135454 0.095689301356458867
v 0.055825769309341973 -0.26266689722032127 0.10168327174490147
v -0.10671509686083906 -0.22105476966880344 0.095173021568366767
v -0.089177935022843158 -0.20175790878710034 0.091957053545440509
v 0.26491660165987618 -0.32813831167461532 -0.13235002991499178
v 0.29103462260649371 -0.36473626199206849 -0.10425681772154606
v -0.0098744723659400097 -0.20986163562503407 0.091558650529281443
v -0.12889755486233512 -0.23883450698076081 0.099070452816766186
v 0.035448540980872134 -0.35703095017779835 0.099476288361043719
v -0.12650982634021554 -0.20072004942501631 0.093844550444847755
v 0.27106739409979003 -0.35628152119272372 -0.12277685660953058
v -0.15262801234344986 -0.18266216465430132 0.085202940893605097
v 0.30628686891697915 -0.36845574911691398 -0.083226731078612434
v -0.18790314311815687 -0.22272411891204655 0.083240721545394636
v 0.30249038495159897 -0.31482719181068641 -0.093739774123567793
v -0.16215639455325309 -0.2318281939360235 0.093736114131172207
v -0.01619065229802219 -0.16239678417142941 0.089212350535480156
v -0.18350333934067337 -0.19867081172237028 0.077354282197443835
v 0.30693392894751925 -0.42059082593806402 -0.073085042203363232
v -0.024437736845761893 -0.11380208089030799 0.087525222145215381
v -0.12724618253139588 -0.27831176588445961 -0.21195832892169272
v -0.017724482072704467 -0.087084659849272439 0.08748471386715051
v -0.20643857273206556 -0.19330961301076394 0.065799313331576015
v -0.24532506235627657 -0.25035088173326436 0.07143072956673846
v 0.010938965106950985 -0.081259424914719255 0.089131911037500372
v -0.12498928458517032 -0.25893093187577843 -0.21743452662382096
v -0.066152074104259898 -0.059643380321695721 0.085325261052894813
v -0.27129687237246858 -0.26219642531894705 0.060101038019165429
v 0.024302452259375065 -0.19237104257607562 -0.22201394482289688
v 0.097574178205673545 -0.11180102084009091 -0.23046335155096206
v -0.24413089088672657 -0.18684123548179155 0.041668574479126114
v -0.042957515797840087 -0.058536725975674525 0.086295977276847097
v 0.30979034360517743 -0.31924554811248207 -0.061482928869031409
v 0.059387151796792922 -0.076642070616547847 -0.23097110350581593
v -0.24877284769576413 -0.13063038331898597 0.0048243505068011443
v 0.3087859849643213 -0.29974678261678322 -0.043866761155835612
v -0.28275523040719319 -0.24485197861159824 0.041441504483744986
v -0.2738386956107649 -0.21942992271290496 0.035898841921678901
v -0.2670799285854456 -0.19518631277597992 0.027930307327665549
v 0.031572222105153688 -0.078055403412915142 -0.23102323341677122
v 0.29914577262311925 -0.25418444508923516 -0.073600753098300317
v 0.0041530015878490367 -0.079379002666891657 -0.23206927184904297
v -0.054911922977373087 -0.16004337992720499 0.088517136362054355
v -0.13422210389509764 -0.15746813528899445 -0.22667783252066326
v 0.30977585009835468 -0.3106066646601342 -0.018746241792647125
v -0.022663308544168426 -0.080637075636951439 -0.23357176585762845
v -0.0065028218283742223 -0.098638357229228243 -0.23166600737812132
v 0.31277242067584982 -0.43162774423180739 -0.042303076915489506
v -0.047775758487491979 -0.087234012930492558 0.08639748452456178
v -0.14384647267912559 -0.17987943283448476 -0.22162934503338944
v -0.29202786962894017 -0.22963297386835688 -0.0026114563488977283
v -0.26325288861559082 -0.13206291636202644 -0.063613963265264389
v -0.07093308558922122 -0.18188482590710542 0.089730286757166072
v -0.049345813327883223 -0.08179702760096097 -0.23590693849200586
v -0.29556057778313555 -0.23223272908456261 -0.028113152030932967
v -0.074968467964762961 -0.082774658330469653 -0.24008722923376649
v -0.29367269798651796 -0.22868982776318503 -0.078638046515377244
v 0.31287875549022481 -0.42110119424262865 0.0022148230687665943
v -0.29833146629698803 -0.24107967930936119 -0.054146594662996428
v -0.077131869621723248 -0.098797106254269795 -0.23904628076071155
v -0.09976922523141861 -0.083731993196627497 -0.24498405823385472
v 0.31126572680455822 -0.33437207184992507 -0.003210802927088488
v 0.31151214113616121 -0.36387620806076698 0.009879634670870302
v 0.036150199880905703 -0.22987267129677655 -0.21298989431527948
v 0.099803678767349691 -0.096669608389051961 0.084758476632385643
v -0.2867176399628838 -0.20312819214925129 -0.077875390862294183
v -0.29989955549276631 -0.25395633727764289 -0.076333374633965459
v -0.25358684608895538 -0.10470583855532074 -0.078498254713844834
v 0.0062030788503229101 -0.21190386434438854 -0.21809994821865147
v 0.30701137598216632 -0.33448544819132731 0.02530671986909247
v -0.29180697556613405 -0.24407099355131406 -0.1049587253584494
v -0.20176361614646907 -0.51367355708432638 -0.13063975853629417
v -0.26112766707270169 -0.23608632105876934 -0.14233033802935563
v -0.22235599742084419 -0.51363007985838871 -0.12082784484675443
v -0.24208192224651295 -0.51359098212187981 -0.11114898464773351
v -0.27540672359718732 -0.25287269191488754 -0.12862180965044451
v 0.29966827304536303 -0.35014202508262599 0.05160051248280359
v 0.30648964375262494 -0.37298366894853802 0.036041170620709939
v -0.26007627269177402 -0.51355726118069711 -0.10117961372391701
v 0.30422574696993621 -0.4077290397911551 0.044751704731358005
v -0.25521395673105296 -0.18753460934010668 -0.14610249331655928
v 0.12895987301147344 -0.10290386773012088 0.072986638372541351
v 0.11285205580136815 -0.12285698466240112 0.08290122829399002
v -0.2758803789499209 -0.51351100991344134 -0.090368282665787447
v 0.29840318102671215 -0.31718775409999117 0.046908958052254396
v -0.25462564151129352 -0.21259263110635804 -0.1486916934762936
v 0.28348770490926833 -0.30932218606617662 0.063490441827102978
v 0.29483986923769057 -0.3828004321194155 0.060895635790691238
v -0.28976838139305167 -0.51346370818122888 -0.078786371989512771
v 0.08913904673305692 -0.20524289752757663 0.10468289459761929
v 0.091612145994484029 -0.22421188273026976 0.10690750067833751
v -0.24189205180915418 -0.23411519264497205 -0.1593754738645799
v -0.30165066685257902 -0.51344988221273746 -0.066638621893337358
v -0.21621969365805471 -0.1743425067313974 -0.18167270888895842
v -0.25463688440266874 -0.25581544525553307 -0.1476897368054354
v -0.30960517698387691 -0.51346230754732447 -0.053485952605940273
v -0.31056530928788617 -0.51333477297459873 -0.037685299021164298
v -0.31109845235536077 -0.51328157267498653 -0.021855411088276933
v 0.014259277536456921 -0.2388795417216856 0.094485429354157519
v 0.055172518323410531 -0.23858364056489106 0.10028014834522139
v 0.23586928077541475 -0.3528712159315785 0.090877985996008159
v 0.24140151584009412 -0.37977109658292407 0.089666798960107763
v -0.3097548281820855 -0.51324119623067455 -0.0062220129880734276
v -0.30698033215956466 -0.5131976354199842 0.0089030770148032928
v 0.058824687242013514 -0.31098936935603805 0.10376480920906003
v 0.21623420680013525 -0.36414156676156895 0.096635530306100559
v 0.18809890687772562 -0.3456392341172142 0.10199813734373264
v -0.30334690421771893 -0.51314967827852853 0.023655120341452868
v -0.21721803701049286 -0.19669913122970217 -0.18094808850934646
v 0.22209737909882799 -0.30948990865935588 0.091390949451207959
v -0.29801629472626967 -0.51309029334544487 0.038223920229213199
v 0.017006659973355723 -0.32668928238242417 0.096954589432468485
v 0.15575104465443015 -0.34681187919613782 0.10679825412200925
v 0.058408601654797332 -0.38187221466571009 0.10366215056295128
v -0.23666993573978579 -0.19291724892434747 -0.16497169839521364
v 0.15392889563758713 -0.40865412490900965 0.10820970744059244
v -0.0061722871651071071 -0.35542810828696692 0.094742417160793596
v 0.20542272770038733 -0.26453611931757554 0.08763455588382088
v 0.060850772292707474 -0.4284609700698746 0.10350757329420393
v 0.020377383326728324 -0.42413422954829072 0.095771499804202659
v -0.18911436670010645 -0.16593614612342494 -0.19948523965417542
v -0.20378080833031936 -0.15280432128588825 -0.18869917877418818
v -0.020817799184296715 -0.30450388786209881 0.094485407020970386
v -0.18436282551145355 -0.13974156173528235 -0.20025275195008363
v 0.048039801564007403 -0.154580047324685 -0.22723642181677972
v -0.29185898224499868 -0.51309840605178192 0.053036033650922715
v 0.22628357807816443 -0.28418359378414476 0.086287558492060601
v -0.021969215563376901 -0.41781791237937083 0.092711356690871688
v -0.065483622867667693 -0.30949200553771777 0.095847454001930676
v 0.059509430365931523 -0.17890497452529963 -0.2241393723701417
v -0.028553213917158898 -0.38226955528587026 0.093713605512933007
v -0.048464995157660756 -0.35471780252270801 0.0946801719088948
v -0.039425607871751561 -0.1371598399428558 0.087729006352591482
v 0.017496410544790703 -0.4107014999540517 -0.16073143020265931
v -0.00074640331684132366 -0.13885694812096205 0.089213396479356832
v 0.24900287839697477 -0.27765990235326188 0.07709193637257114
v -0.064060819249382853 -0.37665298681877379 0.095723972375184346
v 0.13058408625642287 -0.16218823348381825 -0.22519223029208343
v -0.28102594752034493 -0.51317025020832174 0.063983946146819903
v 0.057908804428792926 -0.28667893275027939 0.10301293559496372
v 0.060372444529225855 -0.42202108209343575 -0.15942321776526405
v -0.25028769492662428 -0.51332364233821315 0.077639738409068779
v -0.12216096196019888 -0.34266614747220847 0.10448519933887476
v 0.049627029436997372 -0.39602348093327333 -0.16480306400646652
v -0.23309898784286659 -0.51344690337974841 0.083946928456661934
v -0.090177473168010044 -0.35988662438450303 0.098995734689830722
v 0.26816148876753537 -0.29305409315148334 0.071075568590161703
v 0.26850673349181814 -0.26607590859722263 0.063377836153447137
v 0.11278506515020648 -0.13803072579909947 -0.22887154204819915
v -0.21436023882837579 -0.51356881862259296 0.08994555750991852
v -0.10522818042321831 -0.31486614270507746 0.10102126081081056
v -0.19442698358856633 -0.51369402374380857 0.096077943261455273
v -0.12374215926534314 -0.37126431079448663 0.1052531961635675
v -0.17370042443154809 -0.51380301325224731 0.10263664113839525
v -0.15144042379569922 -0.51396774724641514 0.11056549799318095
v -0.13812091543710386 -0.32073173171980257 0.10685690139744015
v -0.15775951520646864 -0.36021071628259743 0.10872302118981274
v -0.12868029853805332 -0.5142069491485648 0.10887660185945376
v 0.28862690309813455 -0.28302649177244432 0.051417227986820413
v -0.16355949645508477 -0.33568304333582211 0.10679918446309636
v -0.10462744398197706 -0.51456006436179202 0.10303610637730509
v -0.079151386424569037 -0.51491519309852019 0.097905735122330029
v 0.14395538533103813 -0.4350699013917535 -0.16351918636487606
v -0.16703093181856937 -0.31219718020366005 0.10464803224036748
v 0.30181711073133538 -0.27637364085904759 0.0043089842750113072
v 0.1439783255758012 -0.41265215656303889 -0.16805224578314359
v 0.16724902944611864 -0.09511047711299174 -0.20508482650836246
v -0.052432040081250922 -0.51526718054291087 0.09484468940985602
v -0.15400294289139937 -0.38560583537789905 0.10945419939175018
v -0.02488998855230902 -0.51563664563041922 0.093913939386119694
v 0.11839556684364623 -0.093435396024642223 -0.22915673133711845
v 0.0029609073299722982 -0.51596558420067984 0.095104031435882364
v 0.030626544999132518 -0.51635917668467346 0.098302457107886293
v 0.30617621137258116 -0.28501100553173608 -0.020504320667221937
v 0.14814956693419029 -0.14023553174810258 -0.22016422800518218
v 0.057737215309482254 -0.51664146903404329 0.10355524835438945
v 0.083405420182337126 -0.5169281724836764 0.11136618946562526
v -0.19457185072336641 -0.29954159468516239 0.097355694898177622
v 0.10826133522436576 -0.51733638874869359 0.11922115905403818
v -0.1920226114946369 -0.35135277653266533 0.10136682170521809
v 0.17349306398197961 -0.41983859198703738 -0.16032224484174948
v 0.17060193050394051 -0.16265128422894928 -0.20947825677723778
v 0.30426856685258707 -0.27223399490629341 -0.047787118675081716
v -0.220707442734108 -0.3140267753796136 0.09249097765056799
v -0.21917087632755827 -0.36982414523054408 0.095194358554761493
v -0.22165126043655192 -0.34117102711152525 0.094070166388364101
v -0.19166836326650172 -0.3016735306026932 -0.17848522320768556
v 0.20210029075024902 -0.42641084737218338 -0.14623242253228394
v 0.29420503260944336 -0.25739414582202641 -0.10051830255638117
v 0.15802456016924807 -0.11777557196396975 -0.21388619398442085
v -0.098633484769763136 -0.25347084613209969 -0.21505279259617271
v -0.20383900549695627 -0.27848464443080717 -0.17743827120650402
v 0.0064557925933583921 -0.28787159096837089 -0.19509283337709973
v 0.02001576187947178 -0.2965234513828785 0.097385220726920102
v 0.30463390208232866 -0.28622015264355716 -0.076276612896020418
v -0.24782762443423487 -0.3579322197842828 0.087019795785020421
v -0.26728143454135128 -0.31020421445383023 0.075985779605957607
v -0.21132912104785631 -0.21394595224901586 0.07164730872343833
v 0.23229533319099471 -0.42201668255670322 -0.1325152537670761
v -0.27242336885113955 -0.37175512677869454 0.076985898861113344
v 0.2279608717119577 -0.08466210513327603 0.010358117498632413
v 0.29261570719344154 -0.28450504243701913 -0.10825498082658637
v -0.27287137664978928 -0.34047623300909058 0.076431354841943286
v -0.29062833921082271 -0.3220404479256499 0.061784988727841744
v -0.30040048261377367 -0.30316159160674849 0.043091178350850828
v 0.25431883992644871 -0.43661975402485892 -0.11750739426980709
v 0.28110739917913941 -0.3064329186518463 -0.12071049955751334
v -0.29215332360643026 -0.38717603721275506 0.06419523096798653
v -0.25343470421831804 -0.21055895883138356 0.047804152566328958
v 0.1781240811152765 -0.13979212073062219 -0.20355564704783807
v 0.026925640170407897 -0.055430486192573236 0.090486695685121715
v 0.26899106053845079 -0.27847207096214627 -0.13299609010375157
v 0.24176137860023761 -0.27080676233465345 -0.15513109790999802
v -0.22947815683231132 -0.21460233904202439 -0.17070739487063413
v -0.20378499432400768 -0.21313848022906653 -0.18885255600574435
v 0.25956609352047116 -0.40706544717412224 -0.12039256321216651
v -0.29733527428409279 -0.35486275824675995 0.059363810036997873
v 0.27364366190476958 -0.45263175809816691 -0.10189129406583461
v 0.25732385952784942 -0.3004476010388788 -0.14117375895880444
v -0.12030622294930357 -0.083662534954308032 -0.23176406943059097
v -0.14046278205922047 -0.083609890720790364 -0.21940270508279719
v 0.20299834352855184 -0.159815318013625 -0.18838961469465318
v 0.12582255804206921 -0.25543085619975525 0.10233233869419012
v -0.15989935797208582 -0.083495959380372325 -0.20775396697686332
v 0.01946747788753847 -0.26902874437091784 0.096602418120596917
v 0.23299352007825627 -0.29776235513632132 -0.15687397460119015
v 0.21117127400496072 -0.28381856180251569 -0.17140641572006574
v -0.17880252588875858 -0.08337293878283264 -0.19605721006382537
v 0.20126435528169873 -0.13208999610716257 -0.18594815404595033
v -0.30637440258617227 -0.38210244651081576 0.042775771032559723
v -0.19627969253334768 -0.083313701509352578 -0.18374853198926128
v -0.20839619402989401 -0.10803725347112703 -0.17854106620063459
v -0.28192723237859857 -0.20830367365174635 0.0093448394954913777
v -0.2120180416864387 -0.083357853346442606 -0.17067960328492865
v -0.22614613497303249 -0.083455158073801272 -0.15689769202199022
v 0.18057848573941637 -0.29949229968081537 -0.18332229848956016
v -0.30935100521001607 -0.31205094052327709 0.011053694358476848
v -0.28639879536157348 -0.20485214381111341 -0.022071151193961344
v -0.28334719843566242 -0.19042159817992255 -0.05291733984965967
v -0.31007553849224911 -0.35973955350391712 0.028491531637664498
v 0.22558597009974088 -0.14697973187992616 -0.16745430082014356
v 0.20109489172329836 -0.088090717071527075 -0.17719372848814788
v -0.30978169192577915 -0.43736275382941686 0.023082234771809165
v 0.17881085560697052 -0.2690788361229921 0.094190041425015997
v 0.14201021410860243 -0.29601468535039316 -0.19614885443428359
v -0.21435023797594843 -0.23577476267599978 -0.17904572668960814
v -0.31064297278791358 -0.30091197470807401 -0.020280528965917588
v 0.22029828639182489 -0.093114524321926337 -0.15983503196269355
v -0.23379166299028292 -0.25219548475964276 -0.16374594001747855
v -0.31368459972848273 -0.44576006733710943 0.00043599581150170763
v 0.10877998193299629 -0.28699513034186919 -0.19791939890602891
v -0.31509267221373072 -0.36834531312092977 0.00069365312293369341
v -0.3172831836674479 -0.37258293432093292 -0.03145286374582737
v 0.23723992197889687 -0.093817676740350672 -0.14055633600310549
v -0.31553983729022023 -0.35013786705135475 -0.015859623241313139
v -0.31294760753784168 -0.31631201272049109 -0.04349683470467787
v 0.26147952021827964 -0.14463667921976972 -0.12343691317891718
v -0.31725422464618808 -0.40292232869937905 -0.033702669095616644
v -0.16324065884096314 -0.39574727745254312 -0.17043239722906176
v 0.035207234561692904 -0.30528441680477281 -0.18911523827790333
v -0.23821144374841036 -0.083345216164346009 -0.14264537225255638
v -0.24388702920983918 -0.082694599436130889 -0.12601518879779361
v -0.30973692007362341 -0.30499969019426937 -0.070657924437998579
v -0.31302290579993525 -0.33126460466211816 -0.067024531982305513
v -0.31530279195590372 -0.35878246566563071 -0.061146357897875231
v -0.31619486965682264 -0.38676980774083408 -0.056960366378499966
v -0.27275124895153124 -0.20189411005804486 -0.12681004224067194
v 0.19314506332934006 -0.21924843361231838 0.078886332426660905
v 0.28373439014400847 -0.42037951848629657 -0.10096791324441597
v -0.24456835516668396 -0.08046286457574886 -0.088559088802627556
v -0.24385877300850012 -0.079297179959522429 -0.069897336976397259
v 0.29777432585028402 -0.39360460139329395 -0.093314532152445798
v -0.13487498050305527 -0.51396244420834503 -0.16602542414779944
v -0.24202793468324088 -0.07812564040324671 -0.051395200998212452
v 0.26630914301622455 -0.14060837328811479 -0.092168014665511666
v -0.23904116081347565 -0.076912497652560974 -0.033105233720334568
v -0.23583313382534782 -0.075545816759986173 -0.014855389473798782
v -0.22740821553819757 -0.074130201861736883 0.00061903706872082787
v 0.27896073004411376 -0.25902109635482862 -0.12318177400807087
v 0.24409638872379305 -0.085284116298602899 -0.12256962638998964
v -0.21286538352731948 -0.072500426418974362 0.013413747006823473
v -0.19771542686395172 -0.070768993196577895 0.026310518220908026
v -0.18221304315058143 -0.068990269331952569 0.039258900629810918
v -0.029130899215457362 -0.24824816845590708 -0.20956558115294927
v -0.16536994398760441 -0.067198083357518174 0.051438760098915112
v 0.24842235440737226 -0.090416802989859699 -0.099378688430150783
v -0.14791172402276376 -0.065397246597927644 0.063569528254442592
v -0.30993576028201703 -0.40236180565961577 -0.077802423127948772
v 0.26876450390742956 -0.14819641477818751 -0.06178852817853292
v -0.097635326167989422 -0.33894993970810577 -0.18929669396341095
v -0.13333832806993509 -0.35953475251444533 -0.19060590831364707
v -0.1323894519902013 -0.33866805783404902 -0.19558723031642486
v 0.14464491870601959 -0.094638103411809976 -0.21947684160090464
v -0.30936280841945718 -0.37408394515503285 -0.082696287873387037
v -0.13084648752208786 -0.31830215621190855 -0.20087807245582956
v -0.30447250571968931 -0.31849603031420426 -0.09502525610606613
v -0.10006814178098761 -0.31597478579982069 -0.19612511192279863
v -0.12919139078311259 -0.29809733970646768 -0.20639396590309492
v -0.1301046767035523 -0.063654208229424025 0.076400118013719737
v 0.18700627932246205 -0.26832308308054842 -0.18697385295626009
v 0.24696859817795475 -0.087494404265168121 -0.074927602775857666
v -0.29518306958071949 -0.39030504614263151 -0.098108613197589872
v -0.11053550005951225 -0.062129892177817836 0.083808123728820377
v -0.088927622620656468 -0.060834506153021661 0.084934330782978323
v 0.2504558707007527 -0.10331293644086041 -0.044196593387579017
v -0.031887670104640456 -0.16769058636453923 -0.2280797358103499
v -0.30741270862876308 -0.34612464761112699 -0.08891895433677191
v -0.28429349119215475 -0.30295731593309644 -0.12036788438747192
v 0.24138332099345153 -0.077430418232503684 -0.054912809611909419
v -0.29276596023127366 -0.36186804224593228 -0.10533341188697237
v 0.26983156226502764 -0.15807234610560153 -0.033677689931221666
v -0.27545976734582028 -0.37861319943255639 -0.11747693298848438
v 0.097991920866094401 -0.28143820439007444 0.11229272560012971
v -0.076545839793753456 -0.085354225101727507 0.085805013538803682
v 0.23316025709863059 -0.075121487676794038 -0.01176029577859361
v 0.24219304228305361 -0.097940483572307502 -0.011643877605109876
v 0.23882592199282901 -0.079260668106094223 -0.031995063106482369
v -0.25769065033253014 -0.39572023770099851 -0.12595219862652582
v -0.27072579468370761 -0.35109988491380972 -0.12600850749038747
v -0.24953862389604262 -0.36823533132040848 -0.13642223267085929
v 0.18395215736226997 -0.39599298424325247 0.10346341488353192
v -0.26687577597315726 -0.32400558830663984 -0.13349955187374773
v -0.023381791274560748 -0.12044508154356939 -0.23159411662163659
v -0.24269539268580675 -0.34155416273413419 -0.14546893407739575
v -0.064967813125182433 -0.13280815726595538 -0.23460003708573679
v -0.17128692267721557 -0.18279406073722476 -0.20917257634057645
v -0.16222689422051384 -0.15406630946627659 -0.21362692920469617
v 0.31313766769126922 -0.40200691385451326 -0.049206032135258114
v 0.31385690885705675 -0.38852632223356742 -0.0063276928836908525
v -0.21090853545205673 -0.35728765068548196 -0.15817218824744786
v -0.21385036210400521 -0.3253247451163519 -0.16338927622515084
v -0.24433077003884701 -0.081617068714589069 -0.10725374638762082
v 0.26151885018835802 -0.14349256857712456 -0.018301359818250373
v 0.25507492442067398 -0.14347177548865472 0.0068963583343151225
v -0.27531100955682519 -0.48928133450825645 0.068537313587403031
v 0.30843395432630538 -0.43295130455618747 0.027232446404310745
v 0.31055360461791792 -0.39771626019543638 0.019589648350094066
v -0.26604370165292934 -0.51322450314455192 0.070764859357792059
v 0.24011496283053074 -0.11732232621850483 0.013787999466994466
v -0.18735200342794528 -0.48955179231231138 -0.14190500794356586
v -0.18016083130593152 -0.51370354621931258 -0.14119892769088765
v 0.13528625372033096 -0.43773502340984366 0.11137485413473
v -0.15815483932312391 -0.51375064449243535 -0.15279486337618792
v 0.072565255865003855 -0.052763531794501162 0.09559085358096206
v 0.0043708150863843581 -0.13039900818031802 -0.22966790759939917
v 0.049860715653025453 -0.054574713757766097 0.092958434145939434
v 0.077387760365572378 -0.45147259667162487 0.10807029191508127
v 0.28914142030863232 -0.41648278392456589 0.066229670035198585
v 0.11808788648125765 -0.076567993480664856 0.074082224852032807
v 0.23504712620464729 -0.48004553146457818 0.089127517668804002
v 0.22021379265810212 -0.45771505880688701 0.09387626564715551
v 0.26118719663761991 -0.4610293158837272 0.080083786772825655
v -0.028079189755534015 -0.19393752798950639 -0.22348732761698464
v 0.28369469038940781 -0.45152663592884046 0.068830034986894467
v 0.19548896476900585 -0.45347408234830622 0.099695009484066482
v 0.31172391741895927 -0.46208636595996361 -0.033741825120118724
v 0.24094724534686707 -0.15185093154594098 0.03162758325491194
v 0.22298519293482796 -0.13035417405772473 0.034947023514637771
v 0.25831861233371139 -0.11706243147893614 -0.07553398981805462
v 0.26638759505262477 -0.42748301276620937 0.079031992717180116
v 0.25546722746935857 -0.11511348755058315 -0.11533000738483591
v 0.24091579052930343 -0.12542302344419776 -0.14661097067626072
v 0.14168471949108188 -0.079739742286327103 0.063357314636209056
v 0.24357081822277665 -0.41073036577146926 0.088486900279267311
v 0.2698341059733228 -0.39024349860520635 0.078382180440967314
v 0.21558582911869789 -0.1163161553101279 -0.17043992722293755
v 0.19107232430393548 -0.10375174706098407 -0.18886873794501424
v 0.24225186410113583 -0.44342800793831044 0.087853759886033805
v 0.17970888842550248 -0.11799557841934394 -0.1996561581348032
v 0.2473169298983636 -0.46616656130683676 -0.11570631181963509
v 0.21630920290205047 -0.45399861542555719 -0.13422320708440788
v 0.2150941041802118 -0.39665939087196217 0.097095952217198744
v 0.17266988548587286 -0.453533272606781 -0.15351213231296035
v 0.13067818380558627 -0.11664760812477977 -0.22657134397711071
v 0.21842748380270666 -0.42870566559691076 0.09530591396013055
v 0.26759840094289133 -0.32588600624251984 0.077619575143636599
v 0.30121748404883719 -0.44391730301892895 0.050923450075034377
v 0.31098922072671331 -0.45449142598330522 0.0087959942239680677
v 0.31327497462804288 -0.44311076669487715 -0.015661965335332304
v 0.28626291595631442 -0.33473945802197647 -0.11312477263049864
v 0.18470295507466017 -0.3309683862145954 -0.17440247994616909
v 0.18913531342621043 -0.42311528443496849 0.10198393058394575
v 0.15389096599854812 -0.34760077923546545 -0.1817614531718201
v 0.29731336771741945 -0.44639372568054142 -0.084152312976068164
v 0.30878643834919428 -0.45228349164000703 -0.059223873711359697
v 0.1674597096669895 -0.3737669314848967 0.10611547633547849
v 0.12701500352904466 -0.34634371784816764 0.11114481728050274
v 0.20013498616417671 -0.12187174695939038 0.045389810258983809
v 0.16455951869642554 -0.08129014780892016 0.052703076322278691
v 0.13401766003643739 -0.32212783871046829 0.10837375583015649
v 0.14310063490074529 -0.20423194956170435 0.088492696836324297
v 0.12868330227747932 -0.23000104800270899 0.09743294603160646
v -0.090429754160267786 -0.45646453290343103 -0.1616395777860466
v 0.15547172542836724 -0.10655927325527273 0.062372802612890299
v -0.054561823138447332 -0.39952727262935367 -0.16803656905558681
v 0.12827871150594872 -0.14329192249063158 0.080552555889524535
v 0.14444466708278286 -0.12801849058918138 0.071372956905143337
v 0.10404408816626753 -0.14564725126563968 0.089951282517969577
v -0.060800151166969643 -0.48227733806116446 -0.15251615939356844
v -0.015747835305735369 -0.38939534198700043 -0.16683679633790843
v 0.21118793212453532 -0.24060769821593286 0.080040471673527819
v 0.31215358685762729 -0.32920817082150661 -0.031942693107179038
v 0.24777616594158741 -0.2164326925501075 -0.15296372797183283
v -0.011076475052075596 -0.481681890491793 -0.14778948609214354
v 0.2158136883872499 -0.34225233645162068 -0.15769496768451008
v 0.1190656902739481 -0.24371880876937496 -0.21078551157600867
v 0.11452570932399848 -0.33749682662982844 -0.18398550458470472
v 0.042595332027338437 -0.48166638327113304 -0.14756487385640299
v -0.027046272424915252 -0.33756355332318316 -0.18136009265991215
v -0.052764761111859071 -0.2705957913086055 -0.20435469788554933
v 0.12102431085014591 -0.45658455946122339 -0.15874712647415221
v 0.092848936222339709 -0.48239402868133197 -0.15147486666183177
v 0.06354713472949515 -0.1065778182477317 -0.23021319991018457
v 0.17809392893631934 -0.10714168993389919 0.052241870381855571
v 0.17730978850547272 -0.13741987185516691 0.060498827401249899
v 0.14096537364707568 -0.48423243614118222 -0.15548032488008504
v 0.12418370196186207 -0.16425194596761944 0.086136564657351589
v 0.15072641618138261 -0.17985886894498049 0.080840937451534589
v 0.025952823495789729 -0.10695830484119266 -0.22997179611989968
v 0.18529468638141974 -0.48419197801800262 -0.14289164119792863
v 0.21366839154492695 -0.25693411574334163 -0.17464400094437293
v -0.075938074028668978 -0.20734133463151116 -0.22483661157958884
v 0.21801783440749845 -0.40241085798239451 -0.14372307087955138
v 0.21985497546281918 -0.48562011342454148 -0.12651949993666242
v -0.095615005191836744 -0.36225968035280576 -0.18298045806174998
v 0.2451739232732954 -0.49286813436507709 -0.11193644102026649
v -0.065354760393909084 -0.24866336793454635 -0.21246441770163241
v 0.26928341930532068 -0.48492042092974452 -0.098749985999366741
v 0.28733834794340135 -0.46976025230239071 -0.08837175374290103
v 0.20053680944822921 -0.28960284194904556 0.093438504609763356
v 0.075864562973358265 -0.13381721049836517 -0.22914241573363503
v 0.039389798230412484 -0.13034042305900823 -0.22896303455869094
v -0.090467531925435024 -0.27375079523748252 -0.20775958438409853
v 0.30201893127286 -0.47577515623960859 -0.070665754354592381
v 0.12801432799151938 -0.39192429822379315 -0.17210230830110615
v 0.30939590527387195 -0.39193521041344237 -0.071893575194291862
v 0.31434251314307787 -0.41117200050546493 -0.023450008546180429
v 0.19485614428955433 -0.39439888510762472 -0.15620473423671999
v 0.16551201778655608 -0.39299672993095647 -0.16838977362388427
v 0.31125862664050424 -0.47844806236128035 -0.0087960293430806163
v 0.2667097726222708 -0.16341121476279266 -0.0057919241263703347
v 0.27618403964535682 -0.16948269571421706 -0.075389261187497184
v 0.27745227666661848 -0.38683750008289491 -0.11222787649095864
v -0.037668522892317396 -0.4531438069526908 -0.15467632468668591
v 0.30530547421084192 -0.47293858451230014 0.033178456144299706
v 0.22924690202169778 -0.25989838116823455 0.079991550321553223
v 0.3123670254184952 -0.37233947051303629 -0.058264072721523577
v 0.31438227625466192 -0.38043700086927323 -0.032655545219251486
v 0.057987466228115819 -0.37389343716193069 -0.17053895187392901
v 0.29524141217567612 -0.48121891080771084 0.055928304969823844
v 0.10489856080518631 -0.187032456261225 -0.22360197576801089
v 0.096081858255494965 -0.26215846265922049 0.1106650557977544
v 0.10457798743875388 -0.36427833759177669 0.11694893890403832
v 0.19471265183411646 -0.37447294697118094 0.1014152805554551
v 0.27636630257590977 -0.48404610656884761 0.071647582952828026
v 0.15213924839904258 -0.18286721961037267 -0.21767841269440788
v 0.10002636212053286 -0.30116180973890044 0.11351436159769859
v 0.093952258910267469 -0.24316778279751425 0.10892113657564131
v 0.25563528922819712 -0.49068466897249752 0.081156897805499867
v 0.11854780818641883 -0.18582409313511913 0.092094656647197931
v 0.086780346158501456 -0.18637437021168568 0.10262454944196406
v 0.21612424167549985 -0.10294894576811869 0.029458707970054926
v 0.20692891608354685 -0.48357792965788843 0.096558456314890712
v 0.20735701947188967 -0.075916478602560095 0.025766523306975431
v 0.30793461349333123 -0.48371022298951072 -0.049251047020435992
v 0.24898433127227448 -0.25542006392035066 0.071083931735107325
v -0.046914574650410087 -0.10657803143449128 -0.23442133356627226
v 0.17649762479481179 -0.48165891648456133 0.10292524334559949
v 0.0069749509534260956 -0.15081162929835701 -0.22806947853452367
v 0.14190104753083926 -0.47476261268850123 0.11004819478667158
v 0.1658452276286006 -0.44591325836767287 0.10532220971504311
v -0.041866569250556165 -0.22256583396758411 -0.21781136657339684
v 0.11374587449733531 -0.20712069262171817 0.097290966166510562
v 0.13606639027848871 -0.37711308900588369 0.11095560880915672
v 0.10614295299849703 -0.38646551875300594 0.11726527861597313
v 0.10165538886668983 -0.3213651009202324 0.11499952163082899
v 0.29013815102025486 -0.4926510840675325 -0.081737919732183528
v 0.10307058186568291 -0.34246571341765414 0.11629050467313831
v 0.017924796584703598 -0.44688228958716031 -0.15289848750195251
v 0.047863482163280568 -0.27893947095653698 -0.1977608507009645
v 0.08697026043306208 -0.26416833296569969 -0.20378456421685143
v 0.29382370874381697 -0.2640013194709826 0.027926371392841848
v 0.24731298814813535 -0.30337104903555945 0.082924856901318705
v 0.30092011302370286 -0.29552970405677764 0.027886535566516019
v 0.073549514530115143 -0.45236647769332927 -0.1544037775294356
v 0.30976321936322465 -0.49084177115721089 -0.028268519311863673
f 555 540 123
f 389 162 497
f 567 540 568
f 583 104 251
f 463 489 430
f 453 94 255
f 483 484 162
f 446 640 671
f 574 577 251
f 50 244 238
f 52 244 50
f 575 57 53
f 55 249 52
f 55 2 250
f 577 248 563
f 575 437 432
f 57 597 589
f 2 265 262
f 589 592 57
f 262 259 2
f 5 267 262
f 602 606 589
f 5 9 11
f 58 606 610
f 11 272 5
f 12 278 11
f 565 793 8
f 630 60 632
f 13 425 12
f 424 289 160
f 289 424 13
f 643 649 60
f 181 403 179
f 483 206 484
f 163 651 174
f 53 563 558
f 651 65 650
f 163 389 384
f 683 66 65
f 455 558 563
f 165 384 171
f 340 331 34
f 67 66 683
f 206 470 63
f 385 102 856
f 67 702 70
f 344 340 696
f 179 403 406
f 710 70 702
f 16 352 14
f 111 112 59
f 63 64 655
f 18 368 16
f 710 742 753
f 119 112 111
f 394 671 545
f 551 922 903
f 19 375 18
f 753 740 711
f 406 470 179
f 261 615 108
f 545 453 439
f 178 386 530
f 24 386 23
f 72 753 742
f 26 396 24
f 768 765 72
f 119 142 112
f 32 63 470
f 112 142 161
f 399 400 396
f 154 343 182
f 545 671 448
f 399 415 400
f 768 770 765
f 32 406 410
f 418 415 399
f 770 183 777
f 387 300 166
f 415 418 422
f 105 86 299
f 169 42 839
f 170 142 119
f 173 172 705
f 329 638 343
f 134 738 737
f 185 638 329
f 692 661 145
f 150 74 741
f 637 345 873
f 132 145 661
f 170 184 142
f 138 495 760
f 138 136 188
f 136 194 188
f 201 87 194
f 270 87 205
f 216 49 210
f 46 216 724
f 198 184 170
f 43 96 907
f 219 39 218
f 45 43 41
f 224 37 219
f 498 224 514
f 86 105 342
f 225 36 514
f 378 107 110
f 80 233 107
f 22 41 43
f 198 217 849
f 41 581 45
f 103 233 76
f 76 40 103
f 222 217 214
f 678 100 40
f 98 41 22
f 366 41 98
f 40 76 678
f 215 4 284
f 215 98 21
f 537 536 92
f 222 234 217
f 904 537 92
f 460 462 30
f 284 471 366
f 222 239 246
f 586 903 759
f 462 28 30
f 246 234 222
f 454 449 28
f 237 391 924
f 560 319 921
f 246 888 252
f 431 471 282
f 455 560 391
f 319 560 241
f 50 238 793
f 50 566 52
f 52 574 55
f 258 263 510
f 244 52 249
f 55 253 2
f 284 792 657
f 303 670 667
f 303 100 674
f 250 249 55
f 273 274 252
f 251 253 574
f 100 303 301
f 301 570 100
f 104 261 257
f 677 100 678
f 273 285 274
f 257 2 253
f 2 257 265
f 250 2 259
f 570 568 40
f 752 292 293
f 294 296 285
f 285 296 274
f 684 497 679
f 277 274 296
f 440 447 442
f 579 489 463
f 692 329 695
f 259 262 267
f 871 736 360
f 262 271 9
f 40 100 570
f 570 567 568
f 203 128 270
f 310 296 294
f 305 296 310
f 87 270 194
f 9 5 262
f 5 272 600
f 276 9 271
f 9 276 11
f 272 11 278
f 302 323 310
f 568 103 40
f 108 615 89
f 280 11 276
f 11 280 12
f 103 568 540
f 278 12 425
f 323 337 328
f 283 12 280
f 12 283 13
f 283 297 289
f 289 13 283
f 540 561 231
f 425 13 424
f 209 288 205
f 291 125 286
f 346 337 323
f 49 304 288
f 173 350 351
f 297 654 314
f 347 158 864
f 304 47 311
f 47 304 49
f 47 46 481
f 360 361 855
f 501 684 146
f 481 311 47
f 46 39 481
f 343 695 329
f 314 289 297
f 289 314 160
f 481 321 308
f 481 39 321
f 325 122 321
f 325 321 37
f 37 321 39
f 333 160 314
f 324 266 333
f 527 107 231
f 84 121 325
f 36 327 498
f 160 333 34
f 327 120 84
f 36 82 371
f 277 393 390
f 689 34 333
f 34 689 340
f 313 34 331
f 266 334 689
f 334 260 341
f 340 335 331
f 107 527 110
f 54 404 405
f 696 14 344
f 61 401 44
f 38 299 407
f 358 14 348
f 14 358 16
f 344 14 352
f 356 704 712
f 352 16 368
f 413 62 417
f 370 16 358
f 16 370 18
f 175 705 134
f 713 115 110
f 371 27 378
f 27 371 82
f 381 18 370
f 18 381 19
f 368 18 375
f 80 378 27
f 19 381 235
f 19 395 23
f 19 23 178
f 202 506 913
f 23 395 24
f 386 24 396
f 398 24 395
f 24 398 26
f 26 398 220
f 26 412 399
f 396 26 399
f 418 399 412
f 164 180 444
f 444 443 164
f 175 173 705
f 685 84 120
f 422 300 415
f 685 121 84
f 172 169 300
f 172 300 422
f 78 80 27
f 226 365 78
f 89 615 114
f 240 485 309
f 134 737 175
f 226 27 82
f 245 459 452
f 187 186 140
f 243 459 245
f 189 187 130
f 581 466 579
f 467 472 637
f 308 122 240
f 138 579 466
f 430 255 463
f 499 435 430
f 453 430 435
f 435 440 439
f 435 499 450
f 243 479 281
f 308 321 122
f 897 438 584
f 439 453 435
f 243 281 893
f 450 440 435
f 480 859 865
f 440 449 447
f 442 439 440
f 450 449 440
f 447 449 454
f 492 488 493
f 127 458 456
f 449 456 28
f 82 225 708
f 454 28 462
f 28 456 30
f 456 450 127
f 30 456 458
f 225 82 36
f 30 464 460
f 506 507 502
f 126 469 125
f 287 508 509
f 207 507 506
f 410 460 32
f 126 306 477
f 460 464 644
f 644 32 460
f 32 644 63
f 475 31 576
f 470 406 32
f 64 63 644
f 306 309 477
f 125 464 458
f 528 795 511
f 516 523 524
f 655 206 63
f 206 655 484
f 206 474 470
f 162 679 497
f 316 322 822
f 313 160 34
f 37 498 325
f 523 316 534
f 497 684 501
f 501 146 505
f 146 512 503
f 505 503 513
f 263 515 510
f 512 120 115
f 503 512 91
f 517 513 503
f 115 713 91
f 458 203 125
f 315 547 548
f 91 512 115
f 547 330 336
f 91 713 88
f 517 88 522
f 552 548 547
f 532 88 713
f 88 532 519
f 552 336 553
f 522 519 541
f 527 231 561
f 127 128 458
f 538 660 692
f 514 36 498
f 224 498 37
f 538 692 695
f 114 626 631
f 553 342 105
f 219 37 39
f 555 660 561
f 127 450 499
f 891 199 824
f 660 555 661
f 218 39 46
f 199 97 886
f 366 98 284
f 22 21 98
f 41 366 581
f 43 232 22
f 907 232 43
f 96 536 907
f 45 463 255
f 45 581 463
f 255 94 96
f 255 96 45
f 94 453 545
f 448 546 545
f 582 593 594
f 595 584 438
f 216 46 47
f 216 47 49
f 551 640 558
f 558 640 569
f 49 288 209
f 793 565 50
f 569 53 558
f 566 50 565
f 209 210 49
f 841 351 350
f 574 52 566
f 578 53 57
f 612 609 423
f 53 578 563
f 575 53 569
f 597 432 211
f 253 55 574
f 57 575 597
f 578 57 592
f 592 583 578
f 627 609 612
f 584 621 628
f 603 589 606
f 602 589 597
f 634 819 627
f 610 606 602
f 835 318 229
f 626 606 58
f 610 624 58
f 58 624 630
f 632 58 630
f 634 884 869
f 58 632 626
f 60 642 632
f 642 60 649
f 60 630 181
f 650 649 643
f 662 652 645
f 656 628 621
f 621 636 656
f 658 659 204
f 64 644 469
f 466 495 138
f 694 377 700
f 468 471 431
f 663 650 65
f 628 656 668
f 679 162 484
f 65 686 663
f 672 673 659
f 686 65 66
f 683 65 651
f 468 431 478
f 683 693 67
f 685 146 684
f 146 685 512
f 696 340 689
f 66 67 701
f 473 495 478
f 66 698 686
f 702 67 693
f 668 675 687
f 701 698 66
f 405 690 54
f 701 67 70
f 54 690 564
f 14 696 348
f 711 70 710
f 699 70 711
f 702 709 710
f 229 318 236
f 657 282 471
f 710 709 742
f 753 756 740
f 756 753 72
f 742 754 72
f 72 754 768
f 72 765 756
f 766 765 770
f 490 193 496
f 130 772 496
f 770 776 766
f 15 719 168
f 87 201 148
f 183 770 768
f 201 194 136
f 422 705 172
f 633 777 338
f 777 633 150
f 408 74 633
f 638 185 408
f 106 730 258
f 688 379 694
f 275 631 118
f 185 692 145
f 197 750 749
f 736 737 738
f 263 258 730
f 738 741 743
f 185 145 143
f 743 741 744
f 744 741 74
f 744 467 879
f 132 140 145
f 123 132 661
f 741 738 150
f 123 540 567
f 773 772 567
f 738 134 150
f 78 27 226
f 238 623 1
f 264 279 779
f 776 150 134
f 134 705 420
f 695 541 538
f 104 599 261
f 365 681 680
f 761 762 763
f 365 678 76
f 76 78 365
f 411 156 420
f 156 411 220
f 541 519 538
f 220 764 156
f 76 233 78
f 80 78 233
f 168 789 387
f 70 699 701
f 398 395 228
f 434 437 445
f 779 780 887
f 428 432 434
f 926 317 706
f 197 749 745
f 213 6 4
f 279 785 780
f 419 427 428
f 148 201 745
f 454 462 419
f 526 782 783
f 381 734 235
f 410 414 419
f 493 769 913
f 511 4 215
f 4 511 213
f 406 414 410
f 208 731 729
f 21 511 215
f 210 728 727
f 794 800 823
f 511 21 529
f 470 474 179
f 724 218 46
f 227 110 115
f 118 280 275
f 219 218 722
f 806 800 794
f 803 804 256
f 716 778 225
f 224 219 720
f 407 86 690
f 356 734 381
f 389 497 380
f 809 795 528
f 810 806 811
f 717 716 514
f 497 501 380
f 317 697 429
f 810 818 821
f 913 771 202
f 341 698 699
f 373 376 159
f 369 177 373
f 341 260 698
f 260 334 266
f 365 226 681
f 517 522 354
f 828 821 818
f 354 362 364
f 569 640 446
f 519 522 88
f 767 828 818
f 266 324 676
f 602 597 211
f 804 834 256
f 121 240 122
f 345 868 918
f 610 602 211
f 169 839 166
f 427 195 211
f 643 179 174
f 683 651 165
f 693 683 171
f 627 884 634
f 324 654 676
f 846 397 841
f 841 397 374
f 362 709 369
f 580 397 846
f 192 188 190
f 192 499 489
f 128 192 190
f 270 205 203
f 205 288 286
f 291 306 126
f 208 148 733
f 288 304 291
f 304 311 306
f 311 481 308
f 286 125 203
f 283 118 297
f 589 599 592
f 283 280 118
f 227 115 120
f 747 805 732
f 707 226 82
f 107 378 80
f 275 114 631
f 118 646 297
f 89 114 275
f 231 233 103
f 87 209 205
f 816 872 870
f 271 108 89
f 248 560 455
f 248 241 560
f 108 271 265
f 566 565 241
f 86 876 690
f 622 244 619
f 517 91 88
f 574 566 248
f 715 662 889
f 244 249 618
f 249 250 614
f 882 465 718
f 253 251 257
f 774 465 882
f 250 259 608
f 883 494 774
f 921 391 560
f 259 267 604
f 54 564 847
f 251 577 583
f 600 267 5
f 89 276 271
f 503 91 517
f 690 405 407
f 275 276 89
f 892 573 582
f 272 278 596
f 248 577 574
f 280 276 275
f 425 588 591
f 425 424 781
f 781 313 572
f 424 313 781
f 572 585 781
f 314 654 324
f 136 197 201
f 313 557 572
f 237 551 558
f 554 331 335
f 334 341 348
f 760 136 138
f 335 344 549
f 341 699 704
f 348 696 334
f 921 319 7
f 358 348 704
f 344 352 544
f 912 582 594
f 903 586 551
f 352 368 543
f 381 370 356
f 368 375 539
f 788 8 3
f 535 375 178
f 221 795 809
f 828 767 562
f 559 833 920
f 921 920 899
f 546 448 898
f 903 922 836
f 38 903 299
f 235 228 395
f 405 669 407
f 546 92 94
f 400 518 520
f 92 546 904
f 639 35 926
f 386 396 525
f 927 926 33
f 928 605 930
f 200 490 298
f 94 545 546
f 96 92 536
f 927 56 852
f 143 472 408
f 220 412 26
f 400 520 521
f 412 220 411
f 109 113 152
f 920 832 559
f 418 412 411
f 152 113 746
f 387 789 786
f 420 418 411
f 746 161 867
f 418 420 422
f 490 773 298
f 496 772 773
f 394 442 445
f 562 767 832
f 739 636 820
f 204 725 658
f 773 490 496
f 725 223 635
f 447 454 428
f 472 186 637
f 215 284 98
f 189 130 496
f 458 464 30
f 410 462 460
f 125 469 464
f 635 247 487
f 487 269 629
f 641 487 629
f 268 269 487
f 269 393 629
f 390 269 268
f 469 126 64
f 349 761 763
f 655 64 477
f 303 674 670
f 290 393 277
f 611 290 928
f 163 474 483
f 928 307 605
f 635 641 648
f 531 605 533
f 677 674 100
f 477 309 485
f 506 202 207
f 679 485 240
f 240 121 684
f 312 912 594
f 684 679 240
f 121 685 684
f 186 187 345
f 503 505 146
f 912 332 892
f 772 130 132
f 685 120 512
f 501 505 159
f 725 648 658
f 505 513 373
f 513 517 364
f 892 847 564
f 110 527 713
f 714 847 339
f 522 541 154
f 51 714 346
f 231 103 540
f 714 51 404
f 541 695 343
f 567 772 123
f 502 500 506
f 578 577 563
f 867 659 673
f 577 578 583
f 597 575 432
f 592 104 583
f 913 492 493
f 845 167 839
f 599 104 592
f 386 178 23
f 599 603 615
f 110 227 378
f 615 261 599
f 706 402 639
f 603 626 114
f 132 123 772
f 624 610 195
f 409 706 317
f 746 673 682
f 114 615 603
f 120 327 227
f 624 414 403
f 691 429 697
f 642 631 632
f 642 118 631
f 429 433 853
f 646 118 642
f 642 649 646
f 152 682 691
f 682 433 691
f 181 643 60
f 654 297 646
f 122 325 121
f 140 130 187
f 421 416 617
f 123 661 555
f 309 308 240
f 698 260 686
f 702 693 177
f 698 701 699
f 672 441 436
f 291 126 125
f 109 691 697
f 143 140 186
f 874 872 816
f 665 441 672
f 188 192 489
f 665 658 653
f 712 704 699
f 653 451 665
f 927 697 317
f 712 740 734
f 648 461 653
f 178 375 19
f 923 880 116
f 641 461 648
f 740 756 748
f 748 758 228
f 926 706 639
f 479 641 482
f 754 742 362
f 354 754 362
f 407 669 38
f 203 458 128
f 482 629 620
f 756 765 758
f 182 754 154
f 128 127 192
f 254 246 252
f 611 382 620
f 764 398 228
f 499 192 127
f 764 766 156
f 766 776 156
f 930 611 928
f 420 156 776
f 140 132 130
f 788 7 8
f 387 166 168
f 420 776 134
f 136 760 197
f 300 387 415
f 750 197 760
f 745 201 197
f 148 208 209
f 733 148 745
f 258 35 106
f 593 533 605
f 731 208 733
f 236 318 910
f 729 210 208
f 728 210 729
f 727 216 210
f 188 489 579
f 929 573 556
f 724 216 727
f 573 929 582
f 723 218 724
f 722 218 723
f 720 219 722
f 717 224 720
f 514 224 717
f 188 579 138
f 876 556 573
f 707 681 226
f 898 904 546
f 472 143 186
f 212 795 221
f 899 391 921
f 854 925 931
f 213 795 212
f 140 143 145
f 404 54 714
f 833 922 924
f 415 387 786
f 143 408 185
f 238 3 793
f 1 3 238
f 31 799 752
f 622 238 244
f 918 799 515
f 380 376 171
f 915 752 357
f 617 476 421
f 619 244 618
f 618 249 616
f 616 249 614
f 636 739 613
f 388 613 10
f 614 250 608
f 357 791 915
f 383 688 388
f 608 259 607
f 571 438 576
f 295 667 666
f 92 96 94
f 607 259 604
f 372 726 700
f 667 295 303
f 367 726 372
f 604 267 601
f 298 295 207
f 923 875 880
f 363 732 367
f 408 467 74
f 148 209 87
f 298 301 295
f 359 747 363
f 601 267 600
f 359 355 755
f 600 272 598
f 598 272 596
f 353 755 355
f 301 298 773
f 596 278 591
f 747 755 751
f 591 278 425
f 588 425 781
f 388 688 813
f 769 771 913
f 763 353 349
f 202 771 200
f 506 500 913
f 74 467 744
f 773 570 301
f 82 708 707
f 320 647 326
f 500 492 913
f 331 554 557
f 242 910 320
f 344 335 340
f 910 908 647
f 554 335 550
f 239 222 703
f 549 550 335
f 549 344 544
f 166 167 168
f 544 352 543
f 543 368 542
f 17 15 167
f 17 845 157
f 907 536 919
f 157 850 155
f 155 850 153
f 542 368 539
f 150 633 74
f 153 854 151
f 151 854 149
f 149 858 147
f 147 862 144
f 539 375 535
f 759 903 38
f 530 535 178
f 144 862 141
f 141 866 139
f 139 866 137
f 530 386 525
f 137 870 135
f 525 396 521
f 135 870 872
f 133 872 131
f 131 874 129
f 129 923 117
f 923 874 875
f 170 119 902
f 521 396 400
f 20 932 101
f 99 101 932
f 99 886 97
f 95 97 199
f 95 891 93
f 93 896 90
f 518 400 786
f 90 896 85
f 85 901 83
f 83 905 81
f 169 166 300
f 81 905 79
f 77 79 796
f 77 909 75
f 439 394 545
f 75 914 73
f 73 914 71
f 71 916 69
f 442 394 439
f 468 466 366
f 442 447 434
f 7 562 920
f 794 534 811
f 924 899 833
f 434 447 428
f 428 454 419
f 419 462 410
f 38 898 759
f 902 111 897
f 466 468 495
f 526 524 534
f 25 59 56
f 96 43 45
f 895 401 61
f 182 343 338
f 483 389 163
f 483 162 389
f 897 59 25
f 883 894 775
f 776 777 150
f 59 897 111
f 380 384 389
f 774 882 893
f 111 902 119
f 778 708 225
f 501 159 380
f 167 166 839
f 159 505 373
f 176 191 867
f 373 513 369
f 364 369 513
f 850 890 925
f 354 364 517
f 354 522 154
f 177 369 709
f 154 541 343
f 446 445 437
f 376 380 159
f 204 223 725
f 217 198 214
f 214 703 222
f 437 569 446
f 610 211 195
f 414 624 195
f 403 630 624
f 889 718 715
f 160 313 424
f 181 630 403
f 888 246 239
f 179 643 181
f 174 650 643
f 651 650 174
f 163 384 165
f 487 247 268
f 165 651 163
f 171 683 165
f 174 474 163
f 557 313 331
f 475 515 799
f 376 693 171
f 285 273 757
f 177 693 376
f 627 885 884
f 174 179 474
f 509 508 516
f 294 302 310
f 709 702 177
f 709 362 742
f 154 754 354
f 182 338 183
f 780 785 803
f 183 768 182
f 423 413 881
f 183 338 777
f 638 338 343
f 633 638 408
f 590 401 895
f 692 185 329
f 190 188 194
f 515 475 25
f 270 190 194
f 190 270 128
f 195 427 414
f 7 788 562
f 915 878 571
f 877 595 438
f 203 205 286
f 44 48 61
f 474 206 483
f 210 209 208
f 61 62 895
f 413 895 62
f 211 432 427
f 172 42 169
f 398 764 220
f 515 263 918
f 437 575 569
f 228 758 764
f 124 885 426
f 175 871 350
f 84 498 327
f 225 514 716
f 327 371 227
f 918 263 730
f 898 448 759
f 371 327 36
f 839 374 890
f 227 371 378
f 451 441 665
f 228 235 748
f 444 180 457
f 233 231 107
f 187 868 345
f 759 448 586
f 189 292 868
f 734 748 235
f 653 461 826
f 924 922 237
f 292 193 196
f 446 671 394
f 461 641 479
f 922 551 237
f 391 237 455
f 482 641 629
f 918 868 799
f 196 200 293
f 771 293 200
f 558 455 237
f 281 287 894
f 894 893 281
f 248 566 241
f 257 251 104
f 255 430 453
f 257 261 265
f 509 775 287
f 260 266 676
f 509 516 524
f 265 261 108
f 523 516 531
f 322 316 523
f 273 252 888
f 265 271 262
f 811 534 316
f 316 315 811
f 676 686 260
f 366 466 581
f 478 495 468
f 330 547 315
f 547 336 552
f 366 471 468
f 760 495 473
f 657 471 284
f 336 342 553
f 553 900 552
f 832 900 553
f 865 878 791
f 792 284 4
f 31 571 576
f 286 288 291
f 438 571 877
f 906 864 863
f 4 790 792
f 8 7 319
f 303 295 301
f 291 304 306
f 570 773 567
f 739 617 392
f 617 416 392
f 306 311 309
f 309 311 308
f 170 628 668
f 613 739 10
f 739 392 10
f 656 675 668
f 656 815 675
f 680 678 365
f 813 613 388
f 324 333 314
f 687 198 668
f 379 688 383
f 295 666 207
f 815 656 636
f 377 694 379
f 325 498 84
f 689 333 266
f 334 696 689
f 700 377 372
f 861 834 860
f 703 721 239
f 732 726 367
f 834 861 256
f 348 341 704
f 747 732 363
f 356 358 704
f 735 888 721
f 370 358 356
f 735 264 757
f 735 273 888
f 755 747 359
f 369 364 362
f 353 763 755
f 647 761 326
f 761 349 326
f 376 373 177
f 779 757 264
f 780 779 279
f 384 380 171
f 235 395 19
f 736 871 737
f 562 788 917
f 910 647 320
f 785 804 803
f 414 406 403
f 256 323 803
f 813 675 815
f 415 786 400
f 427 419 414
f 422 420 705
f 432 428 427
f 430 489 499
f 587 580 590
f 437 434 432
f 445 442 434
f 446 394 445
f 671 586 448
f 819 609 627
f 456 449 450
f 455 563 248
f 865 791 769
f 581 579 463
f 645 652 817
f 644 464 469
f 652 662 715
f 874 923 129
f 715 664 652
f 694 812 688
f 477 64 126
f 750 760 473
f 485 655 477
f 465 715 718
f 507 207 666
f 465 774 494
f 865 486 480
f 812 675 813
f 485 484 655
f 207 202 298
f 883 504 825
f 493 865 769
f 783 782 504
f 679 484 485
f 202 200 298
f 196 490 200
f 196 193 490
f 877 859 476
f 302 803 323
f 189 496 193
f 814 806 810
f 168 719 789
f 821 814 810
f 391 899 924
f 713 527 532
f 467 408 472
f 302 294 887
f 786 787 518
f 538 519 532
f 561 532 527
f 926 35 33
f 538 532 660
f 540 555 561
f 551 586 640
f 319 241 565
f 660 532 561
f 113 161 746
f 161 176 867
f 8 319 565
f 223 247 635
f 781 585 784
f 620 629 393
f 887 780 302
f 269 390 393
f 671 640 586
f 781 784 588
f 599 589 603
f 393 290 611
f 626 603 606
f 928 290 305
f 623 238 622
f 625 1 623
f 774 893 894
f 312 332 912
f 626 632 631
f 332 339 847
f 847 892 332
f 757 887 285
f 847 714 54
f 793 3 8
f 732 807 726
f 858 931 857
f 675 812 687
f 168 167 15
f 273 735 757
f 920 921 7
f 402 385 639
f 167 845 17
f 638 633 338
f 646 649 663
f 650 663 649
f 845 850 157
f 888 239 721
f 663 654 646
f 706 409 48
f 850 854 153
f 676 654 663
f 429 409 317
f 661 692 660
f 854 858 149
f 676 663 686
f 858 862 147
f 433 429 691
f 678 680 677
f 699 711 712
f 712 734 356
f 711 710 753
f 862 866 141
f 712 711 740
f 682 436 827
f 734 740 748
f 866 870 137
f 214 687 808
f 748 756 758
f 664 816 652
f 872 133 135
f 198 687 214
f 754 182 768
f 872 874 131
f 665 659 658
f 758 765 766
f 658 648 653
f 766 764 758
f 776 770 777
f 668 198 170
f 117 923 116
f 787 786 789
f 929 330 822
f 533 822 322
f 556 336 330
f 531 322 523
f 899 920 833
f 662 444 889
f 346 323 256
f 491 482 620
f 116 880 911
f 911 20 116
f 382 491 620
f 911 932 20
f 932 886 99
f 645 443 662
f 930 382 611
f 382 930 516
f 886 824 199
f 605 531 930
f 491 508 848
f 628 170 902
f 256 347 346
f 482 848 479
f 891 896 93
f 347 256 861
f 820 617 739
f 866 819 817
f 605 594 593
f 896 901 85
f 929 593 582
f 612 881 885
f 901 905 83
f 826 451 653
f 451 457 180
f 672 659 665
f 441 180 851
f 79 905 796
f 436 673 672
f 436 851 827
f 909 914 75
f 682 673 436
f 914 916 71
f 584 902 897
f 876 86 342
f 69 916 1
f 829 433 827
f 700 808 694
f 788 3 916
f 853 829 417
f 409 61 48
f 402 48 855
f 870 817 816
f 855 29 360
f 874 816 664
f 385 361 102
f 830 880 875
f 576 897 25
f 819 634 817
f 68 69 1
f 106 856 730
f 743 736 738
f 910 242 236
f 862 857 819
f 744 879 102
f 880 830 831
f 840 528 843
f 401 846 44
f 803 302 780
f 769 791 357
f 878 915 791
f 831 911 880
f 918 873 345
f 576 25 475
f 799 31 475
f 841 29 846
f 879 856 102
f 106 639 385
f 573 564 876
f 911 831 802
f 342 556 876
f 337 339 332
f 25 510 515
f 350 29 841
f 564 573 892
f 892 582 912
f 510 25 56
f 864 906 837
f 312 328 337
f 929 822 593
f 33 35 258
f 871 360 29
f 840 860 835
f 864 158 863
f 29 855 44
f 916 914 917
f 808 687 812
f 594 307 312
f 307 305 328
f 916 917 788
f 33 56 927
f 840 835 809
f 307 594 605
f 736 743 361
f 531 516 930
f 290 277 305
f 852 109 927
f 318 835 860
f 21 844 529
f 852 59 112
f 620 393 611
f 102 743 744
f 112 113 852
f 751 763 762
f 647 785 762
f 805 747 751
f 252 268 254
f 230 835 229
f 487 641 635
f 637 879 467
f 124 851 164
f 809 230 221
f 161 142 176
f 807 732 805
f 247 234 254
f 230 809 835
f 808 700 807
f 345 637 186
f 176 184 191
f 812 694 808
f 204 849 223
f 849 204 191
f 813 688 812
f 635 648 725
f 849 184 198
f 815 613 813
f 815 636 613
f 217 223 849
f 659 191 204
f 217 234 223
f 191 184 849
f 859 480 421
f 795 213 511
f 245 461 243
f 878 865 859
f 802 886 932
f 191 659 867
f 452 718 889
f 223 234 247
f 176 142 184
f 246 254 234
f 865 493 486
f 293 771 357
f 268 247 254
f 771 769 357
f 805 264 735
f 268 252 390
f 161 113 112
f 486 493 488
f 390 252 274
f 867 673 746
f 264 751 279
f 274 277 390
f 746 682 152
f 281 848 287
f 827 433 682
f 808 703 214
f 152 691 109
f 109 852 113
f 476 859 421
f 296 305 277
f 476 595 877
f 305 307 928
f 196 293 292
f 595 476 820
f 726 807 700
f 752 293 357
f 307 328 312
f 310 328 305
f 56 59 852
f 292 752 799
f 328 310 323
f 886 825 824
f 312 337 332
f 807 703 808
f 891 824 782
f 193 292 189
f 844 21 22
f 429 853 409
f 109 697 927
f 56 33 510
f 105 559 553
f 339 337 346
f 346 714 339
f 51 346 347
f 317 926 927
f 564 690 876
f 863 844 232
f 799 868 292
f 510 33 258
f 843 528 529
f 844 863 842
f 861 840 843
f 861 158 347
f 861 860 840
f 752 915 31
f 158 843 842
f 843 158 861
f 842 529 844
f 919 837 906
f 906 232 907
f 809 528 840
f 730 873 918
f 730 856 873
f 873 856 879
f 856 106 385
f 817 634 645
f 837 919 838
f 817 652 816
f 919 906 907
f 919 536 537
f 743 102 361
f 904 669 838
f 898 669 904
f 669 898 38
f 703 807 721
f 405 404 838
f 669 405 838
f 922 833 836
f 294 285 887
f 361 385 402
f 869 645 634
f 830 875 664
f 916 3 1
f 864 51 347
f 402 855 361
f 909 801 914
f 397 890 374
f 48 44 855
f 796 909 77
f 879 637 873
f 901 798 905
f 580 925 397
f 48 402 706
f 896 800 901
f 891 823 896
f 409 62 61
f 853 62 409
f 881 413 417
f 417 62 853
f 86 407 299
f 459 893 882
f 199 891 95
f 830 465 831
f 829 426 417
f 426 829 124
f 426 881 417
f 124 829 827
f 433 829 853
f 886 802 825
f 774 894 883
f 851 124 827
f 164 884 124
f 441 851 436
f 180 164 851
f 443 869 164
f 911 802 932
f 715 830 664
f 874 664 875
f 736 361 360
f 451 180 441
f 457 452 889
f 889 444 457
f 866 817 870
f 106 35 639
f 459 718 452
f 826 452 457
f 452 826 245
f 451 826 457
f 862 819 866
f 858 857 862
f 461 245 826
f 459 882 718
f 479 243 461
f 854 931 858
f 850 925 854
f 846 401 580
f 845 890 850
f 491 848 482
f 848 281 479
f 825 494 883
f 382 508 491
f 900 832 767
f 508 287 848
f 896 823 800
f 839 890 845
f 504 782 824
f 42 374 839
f 516 508 382
f 908 910 318
f 534 524 523
f 552 818 548
f 42 172 173
f 901 800 798
f 818 552 900
f 533 322 531
f 871 175 737
f 868 187 189
f 22 232 844
f 593 822 533
f 822 315 316
f 929 556 330
f 330 315 822
f 838 919 537
f 904 838 537
f 318 860 834
f 908 318 834
f 465 830 715
f 556 342 336
f 105 836 559
f 833 559 836
f 29 44 846
f 908 834 804
f 562 917 828
f 299 836 105
f 818 900 767
f 832 553 559
f 562 832 920
f 811 315 548
f 828 801 821
f 801 828 917
f 821 797 814
f 836 299 903
f 401 590 580
f 797 821 801
f 905 798 796
f 796 814 797
f 810 548 818
f 814 798 806
f 798 814 796
f 909 796 797
f 811 548 810
f 413 587 590
f 404 51 837
f 51 864 837
f 837 838 404
f 909 797 801
f 529 842 843
f 158 842 863
f 232 906 863
f 800 806 798
f 529 528 511
f 794 811 806
f 785 908 804
f 785 647 908
f 859 877 878
f 526 534 794
f 877 571 878
f 571 31 915
f 173 351 42
f 524 783 509
f 350 173 175
f 29 350 871
f 823 526 794
f 783 524 526
f 526 823 782
f 42 351 374
f 841 374 351
f 504 775 783
f 509 783 775
f 782 823 891
f 885 124 884
f 887 757 779
f 914 801 917
f 426 885 881
f 890 397 925
f 825 504 824
f 775 504 883
f 925 587 931
f 587 925 580
f 802 494 825
f 785 279 762
f 494 831 465
f 831 494 802
f 894 287 775
f 590 895 413
f 438 897 576
f 884 164 869
f 762 279 751
f 423 931 587
f 587 413 423
f 931 423 857
f 762 761 647
f 617 820 476
f 595 820 621
f 751 755 763
f 893 459 243
f 751 264 805
f 609 857 423
f 423 881 612
f 662 443 444
f 721 805 735
f 621 584 595
f 857 609 819
f 443 645 869
f 612 885 627
f 636 621 820
f 628 902 584
f 805 721 807
