v -1.97427 -1.40548 -2.10475
v -1.80013 -1.47622 -2.11649
v -1.60991 -1.48537 -2.11062
v -1.41737 -1.48852 -2.10277
v -1.2232 -1.48966 -2.09217
v -1.0281 -1.49004 -2.07791
v -0.832907 -1.49007 -2.05896
v -0.638689 -1.48991 -2.034
v -0.446781 -1.48928 -2.00174
v -0.259374 -1.48952 -1.95972
v -0.0780369 -1.48441 -1.91158
v 0.0988636 -1.49129 -1.85774
v 0.227469 -1.51747 -1.77044
v 0.356797 -1.42987 -1.846
v 0.498373 -1.43328 -1.74056
v 0.623181 -1.38696 -1.85325
v 0.752273 -1.44643 -1.74841
v 0.925946 -1.46367 -1.7845
v 1.08334 -1.4991 -1.72923
v 1.23535 -1.4949 -1.79629
v 1.41828 -1.48432 -1.80789
v 1.60425 -1.48672 -1.80967
v 1.79478 -1.49186 -1.80071
v 1.98423 -1.49556 -1.77772
v 2.17052 -1.49894 -1.75035
v -1.99534 -1.48353 -1.93464
v -1.80736 -1.49002 -1.9289
v -1.61774 -1.49007 -1.9228
v -1.4269 -1.4901 -1.9151
v -1.23531 -1.4901 -1.90471
v -1.04373 -1.49016 -1.89071
v -0.85313 -1.48973 -1.87212
v -0.664799 -1.48888 -1.84767
v -0.48038 -1.48106 -1.81676
v -0.301321 -1.47204 -1.77573
v -0.128751 -1.45557 -1.73006
v 0.0244279 -1.37477 -1.72435
v 0.186091 -1.34103 -1.69166
v 0.320841 -1.25561 -1.76446
v 0.481385 -1.2496 -1.68898
v 0.635881 -1.21651 -1.77078
v 0.773387 -1.2738 -1.67436
v 0.934882 -1.2677 -1.76218
v 1.07743 -1.31714 -1.67145
v 1.24581 -1.37302 -1.65242
v 1.41427 -1.4382 -1.62358
v 1.59565 -1.46804 -1.62352
v 1.77773 -1.47536 -1.6148
v 1.95898 -1.49015 -1.59035
v 2.14226 -1.49856 -1.56305
v -2.00209 -1.48837 -1.74403
v -1.8142 -1.48996 -1.73904
v -1.62527 -1.49 -1.7336
v -1.43573 -1.49014 -1.72637
v -1.2461 -1.49001 -1.7163
v -1.05717 -1.48971 -1.70247
v -0.870116 -1.48534 -1.68395
v -0.686535 -1.47332 -1.65969
v -0.510949 -1.43187 -1.63556
v -0.340915 -1.38593 -1.60542
v -0.18225 -1.31181 -1.60261
v -0.028391 -1.23708 -1.59915
v 0.129013 -1.17476 -1.61006
v 0.28352 -1.10679 -1.64467
v 0.438808 -1.05089 -1.70213
v 0.592682 -1.09429 -1.62084
v 0.767313 -1.08627 -1.63183
v 0.943767 -1.09014 -1.66339
v 1.11515 -1.13449 -1.62892
v 1.2718 -1.19776 -1.5732
v 1.43553 -1.25815 -1.53572
v 1.58784 -1.34202 -1.4776
v 1.74667 -1.42545 -1.43233
v 1.92112 -1.50175 -1.40357
v 2.10801 -1.49124 -1.37984
v -2.00721 -1.48962 -1.55074
v -1.81942 -1.49006 -1.5474
v -1.63101 -1.49003 -1.54311
v -1.44241 -1.49018 -1.53668
v -1.25415 -1.48918 -1.52715
v -1.06705 -1.4843 -1.51358
v -0.883506 -1.45937 -1.49659
v -0.709016 -1.40286 -1.48233
v -0.552352 -1.31124 -1.49009
v -0.388858 -1.2392 -1.48336
v -0.239845 -1.14455 -1.51199
v -0.0757064 -1.07977 -1.49653
v 0.0856122 -1.01246 -1.51186
v 0.246573 -0.946488 -1.54545
v 0.41776 -0.914586 -1.55596
v 0.591472 -0.918899 -1.53149
v 0.769812 -0.923527 -1.52512
v 0.950802 -0.928921 -1.54441
v 1.12333 -0.977178 -1.51017
v 1.29791 -1.02547 -1.48358
v 1.45451 -1.10106 -1.42485
v 1.61696 -1.17597 -1.37968
v 1.7894 -1.24887 -1.3586
v 1.90457 -1.36688 -1.26605
v 2.07269 -1.4311 -1.20925
v -2.00966 -1.48992 -1.35515
v -1.82195 -1.49006 -1.35412
v -1.6339 -1.48999 -1.35145
v -1.44589 -1.48964 -1.34624
v -1.25847 -1.48371 -1.33769
v -1.07364 -1.45744 -1.32622
v -0.903132 -1.38196 -1.32366
v -0.751477 -1.2771 -1.34157
v -0.603432 -1.16956 -1.36748
v -0.43631 -1.0934 -1.36224
v -0.282093 -0.998401 -1.38448
v -0.114669 -0.927048 -1.38104
v 0.0528309 -0.859953 -1.39407
v 0.224688 -0.805601 -1.4087
v 0.402572 -0.774999 -1.41335
v 0.583767 -0.765037 -1.41013
v 0.767885 -0.76297 -1.41614
v 0.947859 -0.790923 -1.39901
v 1.12855 -0.826546 -1.38246
v 1.30309 -0.881994 -1.3496
v 1.47475 -0.946816 -1.30982
v 1.65821 -0.999101 -1.31259
v 1.7724 -1.11942 -1.22352
v 1.92 -1.21184 -1.15869
v 2.04537 -1.32034 -1.07187
v -2.00874 -1.49 -1.15796
v -1.82109 -1.49005 -1.15968
v -1.63321 -1.48939 -1.15904
v -1.44545 -1.48533 -1.15553
v -1.25943 -1.46133 -1.14958
v -1.08585 -1.38895 -1.14996
v -0.942244 -1.26931 -1.17489
v -0.797364 -1.1522 -1.20198
v -0.641407 -1.04792 -1.21934
v -0.474456 -0.962041 -1.2223
v -0.314979 -0.866327 -1.24039
v -0.146084 -0.786186 -1.24782
v 0.0275083 -0.719712 -1.25887
v 0.205982 -0.668303 -1.26897
v 0.389301 -0.637023 -1.27335
v 0.575284 -0.623526 -1.27398
v 0.762185 -0.626364 -1.27179
v 0.948258 -0.647135 -1.26359
v 1.1308 -0.687962 -1.24366
v 1.31099 -0.73941 -1.21771
v 1.49912 -0.777155 -1.22058
v 1.63153 -0.892866 -1.15244
v 1.79635 -0.974149 -1.10583
v 1.93083 -1.08206 -1.02936
v 2.07324 -1.18056 -0.95821
v -2.00409 -1.48983 -0.960216
v -1.81648 -1.49023 -0.964938
v -1.62849 -1.48879 -0.966661
v -1.44059 -1.47509 -0.96547
v -1.26018 -1.41687 -0.965962
v -1.10937 -1.30096 -0.98456
v -0.976624 -1.16739 -1.01751
v -0.825959 -1.0509 -1.04014
v -0.6705 -0.939819 -1.05941
v -0.506677 -0.840591 -1.07143
v -0.343316 -0.74064 -1.08786
v -0.170521 -0.659953 -1.09844
v 0.00769418 -0.593578 -1.10865
v 0.190878 -0.543458 -1.11681
v 0.378147 -0.511945 -1.12099
v 0.567564 -0.49749 -1.12221
v 0.757517 -0.500658 -1.11951
v 0.946089 -0.522079 -1.11109
v 1.13238 -0.558314 -1.09725
v 1.3228 -0.587783 -1.09569
v 1.48444 -0.677774 -1.0528
v 1.64949 -0.761167 -1.01334
v 1.80426 -0.855565 -0.958806
v 1.97062 -0.937927 -0.919282
v 2.09448 -1.05208 -0.833837
v -1.99562 -1.48994 -0.763349
v -1.80804 -1.48797 -0.771209
v -1.62019 -1.47945 -0.775795
v -1.43525 -1.44308 -0.779366
v -1.27059 -1.34865 -0.791289
v -1.13827 -1.21253 -0.82043
v -1.00184 -1.07803 -0.850792
v -0.850808 -0.956469 -0.874452
v -0.696153 -0.838092 -0.895635
v -0.533564 -0.728201 -0.91132
v -0.365323 -0.630836 -0.925472
v -0.189462 -0.54906 -0.936422
v -0.0077952 -0.482557 -0.945837
v 0.17881 -0.432921 -0.952879
v 0.369056 -0.401427 -0.956677
v 0.561096 -0.386974 -0.957731
v 0.753338 -0.390168 -0.955148
v 0.944076 -0.410649 -0.948194
v 1.13249 -0.444676 -0.937884
v 1.31562 -0.496076 -0.921357
v 1.49091 -0.56573 -0.895298
v 1.66019 -0.645514 -0.861772
v 1.83587 -0.715449 -0.834116
v 1.94347 -0.853167 -0.762208
v 2.12904 -0.879952 -0.773647
v -1.98316 -1.49248 -0.569052
v -1.79506 -1.49666 -0.58001
v -1.60445 -1.48665 -0.587127
v -1.42039 -1.4234 -0.593586
v -1.26831 -1.29991 -0.611204
v -1.13852 -1.15644 -0.641449
v -1.00242 -1.01806 -0.671044
v -0.859422 -0.884305 -0.697936
v -0.712871 -0.750375 -0.723226
v -0.552622 -0.635331 -0.740846
v -0.382555 -0.536187 -0.754254
v -0.20425 -0.453709 -0.764437
v -0.0198226 -0.387451 -0.772597
v 0.169355 -0.338176 -0.778577
v 0.361832 -0.306689 -0.781931
v 0.555862 -0.292534 -0.782706
v 0.749836 -0.295691 -0.780466
v 0.94218 -0.315616 -0.774753
v 1.13178 -0.349851 -0.765781
v 1.31632 -0.40112 -0.751146
v 1.49396 -0.468218 -0.729496
v 1.66948 -0.537449 -0.70625
v 1.8074 -0.654937 -0.657852
v 1.97225 -0.733252 -0.627664
v 2.11104 -0.851387 -0.588851
v -1.96881 -1.48539 -0.378149
v -1.78245 -1.47226 -0.39371
v -1.59886 -1.44215 -0.40732
v -1.43329 -1.35469 -0.422396
v -1.30626 -1.21312 -0.449397
v -1.18066 -1.06543 -0.483074
v -1.04153 -0.925188 -0.512331
v -0.891048 -0.794588 -0.534543
v -0.733126 -0.669154 -0.55102
v -0.568376 -0.556503 -0.564402
v -0.395875 -0.457516 -0.5755
v -0.21557 -0.374771 -0.584219
v -0.0290198 -0.30885 -0.590952
v 0.162101 -0.259957 -0.595823
v 0.356228 -0.228472 -0.598658
v 0.551716 -0.214434 -0.599289
v 0.74693 -0.217545 -0.597481
v 0.940378 -0.23678 -0.593061
v 1.13067 -0.271442 -0.585489
v 1.31635 -0.321161 -0.573822
v 1.49793 -0.380394 -0.558876
v 1.66257 -0.470589 -0.529973
v 1.83567 -0.543987 -0.5094
v 1.96873 -0.668875 -0.458548
v 2.15181 -0.706126 -0.477034
v -1.94301 -1.54437 -0.201025
v -1.75266 -1.53059 -0.21783
v -1.5603 -1.47822 -0.230663
v -1.39123 -1.36291 -0.244166
v -1.25598 -1.21341 -0.271097
v -1.1422 -1.04951 -0.304053
v -1.02076 -0.893785 -0.330361
v -0.889602 -0.745695 -0.353138
v -0.740963 -0.612704 -0.369156
v -0.578425 -0.496219 -0.381083
v -0.40533 -0.396124 -0.390315
v -0.223762 -0.313067 -0.39741
v -0.0357641 -0.247274 -0.402748
v 0.156723 -0.198571 -0.406565
v 0.352026 -0.167021 -0.408846
v 0.548538 -0.152811 -0.409426
v 0.744624 -0.155623 -0.408145
v 0.93876 -0.174555 -0.404836
v 1.12952 -0.209039 -0.399024
v 1.31555 -0.258287 -0.390027
v 1.49545 -0.321442 -0.376782
v 1.6718 -0.390456 -0.360878
v 1.83193 -0.485576 -0.334835
v 2.0046 -0.556791 -0.314636
v 2.10087 -0.717251 -0.297718
v -1.93492 -1.4935 -0.0231659
v -1.75656 -1.44924 -0.0531126
v -1.58795 -1.38393 -0.0776817
v -1.45228 -1.25987 -0.10082
v -1.32722 -1.11733 -0.128479
v -1.20081 -0.966878 -0.149459
v -1.06415 -0.821373 -0.1659
v -0.912273 -0.689744 -0.177217
v -0.753173 -0.564248 -0.186286
v -0.587005 -0.450501 -0.194195
v -0.41219 -0.351234 -0.200785
v -0.229435 -0.268423 -0.205976
v -0.0404407 -0.20266 -0.209893
v 0.152951 -0.153936 -0.212679
v 0.349057 -0.122304 -0.214358
v 0.546255 -0.107892 -0.214845
v 0.742908 -0.110377 -0.214043
v 0.93746 -0.129036 -0.211804
v 1.12847 -0.163197 -0.207801
v 1.31462 -0.212028 -0.201487
v 1.49518 -0.273479 -0.19222
v 1.66356 -0.357696 -0.176394
v 1.82981 -0.440762 -0.1574
v 1.97086 -0.559577 -0.130502
v 2.15001 -0.579289 -0.180179
v -1.87597 -1.61769 0.10824
v -1.69397 -1.55432 0.0892561
v -1.51336 -1.46397 0.0692049
v -1.36427 -1.32271 0.0490415
v -1.25827 -1.15113 0.0348486
v -1.15131 -0.983988 0.024418
v -1.0366 -0.822688 0.0157969
v -0.905393 -0.6728 0.00819153
v -0.755277 -0.539638 0.00165923
v -0.591209 -0.422958 -0.00385371
v -0.416232 -0.323165 -0.00826987
v -0.232849 -0.240462 -0.0116384
v -0.0432541 -0.174776 -0.0141116
v 0.150673 -0.126066 -0.0158282
v 0.347254 -0.0944309 -0.0168499
v 0.544846 -0.0799164 -0.017172
v 0.741804 -0.0821744 -0.0167602
v 0.936548 -0.100629 -0.0155283
v 1.12758 -0.13469 -0.0132834
v 1.31353 -0.183603 -0.00967369
v 1.49325 -0.246356 -0.00399435
v 1.67558 -0.297493 0.0010671
v 1.85181 -0.367432 0.010627
v 2.02042 -0.452034 0.0147838
v 2.1674 -0.568838 0.00619613
v -1.90988 -1.4913 0.240481
v -1.73209 -1.43701 0.227208
v -1.56567 -1.36508 0.214491
v -1.42985 -1.24428 0.204773
v -1.31555 -1.09409 0.199859
v -1.19135 -0.943049 0.197745
v -1.05909 -0.794815 0.196078
v -0.913364 -0.655423 0.193602
v -0.757943 -0.527323 0.190785
v -0.592712 -0.411796 0.187993
v -0.417434 -0.312209 0.185703
v -0.233878 -0.229557 0.184089
v -0.0441455 -0.163883 0.183056
v 0.149922 -0.115235 0.182436
v 0.346631 -0.0836785 0.182107
v 0.544327 -0.0691761 0.182005
v 0.74136 -0.0713486 0.182107
v 0.936133 -0.0897012 0.18241
v 1.1271 -0.123769 0.182935
v 1.31282 -0.17292 0.183744
v 1.49227 -0.236081 0.184979
v 1.66294 -0.315784 0.186121
v 1.82279 -0.414489 0.188485
v 1.9857 -0.508688 0.190428
v 2.15367 -0.593396 0.190853
v -1.85964 -1.60366 0.385248
v -1.67705 -1.54396 0.371809
v -1.49684 -1.45922 0.356157
v -1.34608 -1.32445 0.34599
v -1.25283 -1.14758 0.36086
v -1.15027 -0.979249 0.371638
v -1.03629 -0.817511 0.37746
v -0.903426 -0.668702 0.380119
v -0.752832 -0.536301 0.38039
v -0.58951 -0.419146 0.379923
v -0.415239 -0.318809 0.379547
v -0.232321 -0.235798 0.379624
v -0.0430165 -0.170044 0.380044
v 0.150736 -0.121498 0.38054
v 0.3472 -0.0901058 0.380918
v 0.544705 -0.0757694 0.381062
v 0.741595 -0.0780837 0.380903
v 0.936266 -0.096547 0.380345
v 1.12717 -0.130689 0.379217
v 1.31288 -0.179826 0.377233
v 1.49276 -0.241805 0.374079
v 1.6782 -0.282602 0.369471
v 1.85551 -0.350142 0.360965
v 2.02733 -0.42801 0.354193
v 2.19799 -0.506432 0.350455
v -1.89369 -1.47268 0.514962
v -1.70919 -1.44304 0.523624
v -1.52844 -1.40413 0.52718
v -1.36282 -1.32084 0.527174
v -1.27463 -1.1489 0.543625
v -1.16224 -0.9874 0.555178
v -1.03337 -0.834821 0.562106
v -0.896429 -0.689766 0.566933
v -0.746382 -0.557517 0.56937
v -0.583365 -0.441352 0.570508
v -0.410463 -0.340687 0.571802
v -0.228379 -0.258173 0.573429
v -0.0398736 -0.192938 0.575294
v 0.153122 -0.144762 0.576904
v 0.348936 -0.113634 0.577979
v 0.545933 -0.0995805 0.578355
v 0.742452 -0.102236 0.577934
v 0.936891 -0.121038 0.576551
v 1.12774 -0.155404 0.573864
v 1.3136 -0.204654 0.569229
v 1.49316 -0.26835 0.561389
v 1.66585 -0.343221 0.546957
v 1.82346 -0.441808 0.520907
v 1.97815 -0.54445 0.491592
v 2.13721 -0.641188 0.465643
v -1.88655 -1.53784 0.691345
v -1.6963 -1.52258 0.692671
v -1.50522 -1.47698 0.693487
v -1.33968 -1.36765 0.697684
v -1.22524 -1.20755 0.70957
v -1.12545 -1.03785 0.728784
v -1.00977 -0.878419 0.742767
v -0.881127 -0.72786 0.751884
v -0.729666 -0.599708 0.754606
v -0.573648 -0.477738 0.758791
v -0.401323 -0.37999 0.760485
v -0.221719 -0.29695 0.763938
v -0.0346292 -0.232611 0.767217
v 0.157005 -0.18474 0.769969
v 0.351728 -0.153857 0.771703
v 0.547881 -0.140143 0.772262
v 0.743766 -0.143257 0.771555
v 0.937777 -0.162615 0.769353
v 1.12845 -0.19753 0.7652
v 1.31439 -0.24757 0.758118
v 1.49421 -0.312471 0.746532
v 1.66662 -0.390848 0.728172
v 1.83066 -0.481276 0.70226
v 1.98224 -0.588618 0.672293
v 2.13187 -0.698133 0.64509
v -1.89564 -1.47434 0.866584
v -1.70833 -1.47028 0.871393
v -1.5216 -1.45292 0.876147
v -1.34392 -1.38653 0.879575
v -1.2057 -1.25198 0.889002
v -1.09847 -1.0895 0.907551
v -0.986447 -0.930493 0.924158
v -0.848237 -0.789841 0.928975
v -0.715824 -0.645519 0.940331
v -0.550869 -0.540713 0.938405
v -0.394115 -0.425187 0.947567
v -0.2123 -0.352742 0.949078
v -0.0278781 -0.287897 0.954535
v 0.162099 -0.240736 0.958247
v 0.355385 -0.210231 0.960505
v 0.550348 -0.196924 0.961157
v 0.74526 -0.200512 0.960165
v 0.938489 -0.220617 0.957153
v 1.12864 -0.256133 0.951715
v 1.31415 -0.307052 0.942461
v 1.49354 -0.37262 0.92787
v 1.66525 -0.451372 0.906228
v 1.8318 -0.534399 0.879213
v 2.00664 -0.598276 0.856731
v 2.174 -0.677777 0.827307
v -1.89933 -1.49586 1.05538
v -1.7108 -1.49703 1.05827
v -1.51986 -1.48609 1.05977
v -1.33445 -1.42804 1.06005
v -1.18123 -1.30594 1.06631
v -1.06919 -1.14718 1.08577
v -0.941571 -1.00027 1.0946
v -0.83476 -0.839658 1.11496
v -0.671151 -0.734332 1.10529
v -0.55145 -0.584005 1.12667
v -0.370201 -0.515602 1.11427
v -0.20479 -0.417747 1.13063
v -0.019627 -0.360377 1.13483
v 0.168288 -0.31296 1.13983
v 0.359769 -0.282391 1.14263
v 0.553122 -0.269267 1.14338
v 0.746612 -0.27323 1.14221
v 0.938518 -0.294521 1.13833
v 1.12756 -0.3311 1.13175
v 1.31197 -0.383477 1.12048
v 1.49031 -0.450331 1.10316
v 1.6605 -0.531061 1.07766
v 1.81991 -0.624865 1.0411
v 1.96852 -0.725871 0.988351
v 2.11957 -0.822507 0.933581
v -1.90293 -1.48924 1.24609
v -1.71495 -1.48627 1.24775
v -1.52608 -1.47729 1.24805
v -1.33865 -1.4434 1.24725
v -1.17297 -1.34562 1.25035
v -1.02408 -1.21962 1.25767
v -0.941113 -1.04433 1.28228
v -0.777431 -0.942007 1.26626
v -0.687994 -0.77195 1.29498
v -0.50567 -0.712595 1.26106
v -0.375062 -0.574236 1.29686
v -0.189469 -0.516829 1.2938
v -0.010142 -0.448567 1.30671
v 0.175795 -0.400804 1.31278
v 0.36496 -0.369571 1.31632
v 0.556054 -0.356566 1.31711
v 0.747405 -0.360747 1.31606
v 0.937162 -0.38364 1.3112
v 1.12438 -0.421714 1.30369
v 1.30701 -0.475977 1.29047
v 1.48416 -0.543943 1.27088
v 1.65421 -0.624867 1.24278
v 1.81456 -0.718472 1.2028
v 1.96351 -0.820968 1.14905
v 2.08626 -0.941558 1.07439
v -1.90525 -1.48945 1.43822
v -1.71734 -1.48975 1.43871
v -1.52844 -1.48628 1.43735
v -1.34027 -1.46014 1.43463
v -1.15459 -1.40538 1.42921
v -1.04588 -1.24524 1.44624
v -0.873965 -1.16095 1.42223
v -0.8083 -0.979224 1.45476
v -0.631679 -0.921807 1.40126
v -0.52608 -0.76546 1.44571
v -0.340896 -0.710894 1.42495
v -0.175272 -0.61868 1.45487
v 0.00400665 -0.554816 1.4662
v 0.185403 -0.500915 1.47689
v 0.371732 -0.471029 1.47977
v 0.559112 -0.457833 1.48071
v 0.747163 -0.460822 1.48105
v 0.933085 -0.487511 1.47377
v 1.11773 -0.526701 1.46613
v 1.29788 -0.58299 1.45104
v 1.47304 -0.652474 1.42911
v 1.64148 -0.734605 1.39816
v 1.80064 -0.828648 1.35535
v 1.94967 -0.930773 1.30012
v 2.08206 -1.04358 1.22883
v -1.90651 -1.49006 1.63062
v -1.71869 -1.48972 1.62973
v -1.52996 -1.48458 1.62678
v -1.34012 -1.50834 1.61848
v -1.1762 -1.41048 1.61527
v -0.991849 -1.36818 1.58637
v -0.917676 -1.18957 1.60708
v -0.744645 -1.14606 1.53512
v -0.653585 -0.980705 1.58372
v -0.475933 -0.922741 1.5414
v -0.321538 -0.817967 1.58159
v -0.150883 -0.737534 1.60253
v 0.0202735 -0.662063 1.62346
v 0.201795 -0.619803 1.62435
v 0.377188 -0.562129 1.64861
v 0.561713 -0.572839 1.63155
v 0.745325 -0.551477 1.65033
v 0.92275 -0.604869 1.62379
v 1.10526 -0.644594 1.61744
v 1.2828 -0.702505 1.60105
v 1.45516 -0.774167 1.5764
v 1.62131 -0.857729 1.54286
v 1.77973 -0.951212 1.49872
v 1.93021 -1.05086 1.44316
v 2.07074 -1.1572 1.3751
v -1.9062 -1.49077 1.82301
v -1.71862 -1.4896 1.82036
v -1.53115 -1.49433 1.81525
v -1.34542 -1.4796 1.80613
v -1.15966 -1.51202 1.77244
v -1.03294 -1.36751 1.775
v -0.864324 -1.35875 1.6864
v -0.755501 -1.20413 1.71898
v -0.594701 -1.15391 1.63968
v -0.443705 -1.0444 1.68475
v -0.280475 -0.951251 1.71129
v -0.118712 -0.862766 1.7423
v 0.0545731 -0.804042 1.74248
v 0.20277 -0.704839 1.79289
v 0.382647 -0.718022 1.75866
v 0.564625 -0.706175 1.76311
v 0.738321 -0.667287 1.8029
v 0.905805 -0.73279 1.76085
v 1.08418 -0.77573 1.75413
v 1.25937 -0.83325 1.73841
v 1.42834 -0.906868 1.71121
v 1.59237 -0.991123 1.67645
v 1.75004 -1.08336 1.63241
v 1.8981 -1.18576 1.57335
v 2.0352 -1.29497 1.50183
v -1.90244 -1.49351 2.01474
v -1.71435 -1.48914 2.01059
v -1.52558 -1.48769 2.00396
v -1.34255 -1.53628 1.98582
v -1.16211 -1.50493 1.96021
v -0.990992 -1.52435 1.8846
v -0.844084 -1.40706 1.87212
v -0.689619 -1.37916 1.77117
v -0.531634 -1.28978 1.75569
v -0.39053 -1.18033 1.80854
v -0.221934 -1.09651 1.81725
v -0.0790389 -0.9898 1.87881
v 0.101231 -0.946294 1.85235
v 0.22163 -0.826568 1.93523
v 0.390524 -0.873184 1.86671
v 0.531952 -0.771631 1.93515
v 0.696469 -0.837666 1.87634
v 0.879516 -0.854221 1.90077
v 1.0514 -0.918202 1.87238
v 1.2315 -0.957298 1.87803
v 1.38979 -1.04638 1.83312
v 1.55468 -1.12741 1.80423
v 1.70622 -1.2268 1.7493
v 1.85067 -1.33118 1.6873
v 1.98331 -1.45494 1.61569
v -1.89644 -1.50189 2.20411
v -1.70673 -1.49685 2.19928
v -1.51303 -1.49533 2.19163
v -1.31776 -1.51229 2.17253
v -1.12767 -1.56702 2.12896
v -0.940133 -1.57415 2.06708
v -0.771921 -1.55865 1.96595
v -0.628731 -1.43325 1.94603
v -0.482932 -1.43982 1.86109
v -0.324026 -1.32991 1.89988
v -0.164444 -1.2395 1.92359
v -0.0207334 -1.13845 1.98181
v 0.154644 -1.08288 1.96894
v 0.24044 -0.950525 2.07381
v 0.410134 -0.994753 2.00968
v 0.541863 -0.88475 2.08503
v 0.668188 -0.985258 1.98908
v 0.852689 -0.984956 2.03349
v 1.00982 -1.07422 1.9669
v 1.19486 -1.08556 2.0109
v 1.33311 -1.19534 1.93198
v 1.49981 -1.27361 1.90982
v 1.65461 -1.37105 1.8595
v 1.81431 -1.47389 1.82196
v 1.99723 -1.43499 1.80506
f 2 1 26
f 3 2 27
f 26 27 2
f 4 3 28
f 27 28 3
f 5 4 29
f 28 29 4
f 6 5 30
f 29 30 5
f 7 6 31
f 30 31 6
f 8 7 32
f 31 32 7
f 9 8 33
f 32 33 8
f 10 9 34
f 33 34 9
f 11 10 35
f 34 35 10
f 12 11 36
f 35 36 11
f 13 12 37
f 36 37 12
f 14 13 38
f 37 38 13
f 15 14 39
f 38 39 14
f 16 15 40
f 39 40 15
f 17 16 41
f 40 41 16
f 18 17 42
f 41 42 17
f 19 18 43
f 42 43 18
f 20 19 44
f 43 44 19
f 21 20 45
f 44 45 20
f 22 21 46
f 45 46 21
f 23 22 47
f 46 47 22
f 24 23 48
f 47 48 23
f 25 24 49
f 48 49 24
f 49 50 25
f 27 26 51
f 28 27 52
f 51 52 27
f 29 28 53
f 52 53 28
f 30 29 54
f 53 54 29
f 31 30 55
f 54 55 30
f 32 31 56
f 55 56 31
f 33 32 57
f 56 57 32
f 34 33 58
f 57 58 33
f 35 34 59
f 58 59 34
f 36 35 60
f 59 60 35
f 37 36 61
f 60 61 36
f 38 37 62
f 61 62 37
f 39 38 63
f 62 63 38
f 40 39 64
f 63 64 39
f 41 40 65
f 64 65 40
f 42 41 66
f 65 66 41
f 43 42 67
f 66 67 42
f 44 43 68
f 67 68 43
f 45 44 69
f 68 69 44
f 46 45 70
f 69 70 45
f 47 46 71
f 70 71 46
f 48 47 72
f 71 72 47
f 49 48 73
f 72 73 48
f 50 49 74
f 73 74 49
f 74 75 50
f 52 51 76
f 53 52 77
f 76 77 52
f 54 53 78
f 77 78 53
f 55 54 79
f 78 79 54
f 56 55 80
f 79 80 55
f 57 56 81
f 80 81 56
f 58 57 82
f 81 82 57
f 59 58 83
f 82 83 58
f 60 59 84
f 83 84 59
f 61 60 85
f 84 85 60
f 62 61 86
f 85 86 61
f 63 62 87
f 86 87 62
f 64 63 88
f 87 88 63
f 65 64 89
f 88 89 64
f 66 65 90
f 89 90 65
f 67 66 91
f 90 91 66
f 68 67 92
f 91 92 67
f 69 68 93
f 92 93 68
f 70 69 94
f 93 94 69
f 71 70 95
f 94 95 70
f 72 71 96
f 95 96 71
f 73 72 97
f 96 97 72
f 74 73 98
f 97 98 73
f 75 74 99
f 98 99 74
f 99 100 75
f 77 76 101
f 78 77 102
f 101 102 77
f 79 78 103
f 102 103 78
f 80 79 104
f 103 104 79
f 81 80 105
f 104 105 80
f 82 81 106
f 105 106 81
f 83 82 107
f 106 107 82
f 84 83 108
f 107 108 83
f 85 84 109
f 108 109 84
f 86 85 110
f 109 110 85
f 87 86 111
f 110 111 86
f 88 87 112
f 111 112 87
f 89 88 113
f 112 113 88
f 90 89 114
f 113 114 89
f 91 90 115
f 114 115 90
f 92 91 116
f 115 116 91
f 93 92 117
f 116 117 92
f 94 93 118
f 117 118 93
f 95 94 119
f 118 119 94
f 96 95 120
f 119 120 95
f 97 96 121
f 120 121 96
f 98 97 122
f 121 122 97
f 99 98 123
f 122 123 98
f 100 99 124
f 123 124 99
f 124 125 100
f 102 101 126
f 103 102 127
f 126 127 102
f 104 103 128
f 127 128 103
f 105 104 129
f 128 129 104
f 106 105 130
f 129 130 105
f 107 106 131
f 130 131 106
f 108 107 132
f 131 132 107
f 109 108 133
f 132 133 108
f 110 109 134
f 133 134 109
f 111 110 135
f 134 135 110
f 112 111 136
f 135 136 111
f 113 112 137
f 136 137 112
f 114 113 138
f 137 138 113
f 115 114 139
f 138 139 114
f 116 115 140
f 139 140 115
f 117 116 141
f 140 141 116
f 118 117 142
f 141 142 117
f 119 118 143
f 142 143 118
f 120 119 144
f 143 144 119
f 121 120 145
f 144 145 120
f 122 121 146
f 145 146 121
f 123 122 147
f 146 147 122
f 124 123 148
f 147 148 123
f 125 124 149
f 148 149 124
f 149 150 125
f 127 126 151
f 128 127 152
f 151 152 127
f 129 128 153
f 152 153 128
f 130 129 154
f 153 154 129
f 131 130 155
f 154 155 130
f 132 131 156
f 155 156 131
f 133 132 157
f 156 157 132
f 134 133 158
f 157 158 133
f 135 134 159
f 158 159 134
f 136 135 160
f 159 160 135
f 137 136 161
f 160 161 136
f 138 137 162
f 161 162 137
f 139 138 163
f 162 163 138
f 140 139 164
f 163 164 139
f 141 140 165
f 164 165 140
f 142 141 166
f 165 166 141
f 143 142 167
f 166 167 142
f 144 143 168
f 167 168 143
f 145 144 169
f 168 169 144
f 146 145 170
f 169 170 145
f 147 146 171
f 170 171 146
f 148 147 172
f 171 172 147
f 149 148 173
f 172 173 148
f 150 149 174
f 173 174 149
f 174 175 150
f 152 151 176
f 153 152 177
f 176 177 152
f 154 153 178
f 177 178 153
f 155 154 179
f 178 179 154
f 156 155 180
f 179 180 155
f 157 156 181
f 180 181 156
f 158 157 182
f 181 182 157
f 159 158 183
f 182 183 158
f 160 159 184
f 183 184 159
f 161 160 185
f 184 185 160
f 162 161 186
f 185 186 161
f 163 162 187
f 186 187 162
f 164 163 188
f 187 188 163
f 165 164 189
f 188 189 164
f 166 165 190
f 189 190 165
f 167 166 191
f 190 191 166
f 168 167 192
f 191 192 167
f 169 168 193
f 192 193 168
f 170 169 194
f 193 194 169
f 171 170 195
f 194 195 170
f 172 171 196
f 195 196 171
f 173 172 197
f 196 197 172
f 174 173 198
f 197 198 173
f 175 174 199
f 198 199 174
f 199 200 175
f 177 176 201
f 178 177 202
f 201 202 177
f 179 178 203
f 202 203 178
f 180 179 204
f 203 204 179
f 181 180 205
f 204 205 180
f 182 181 206
f 205 206 181
f 183 182 207
f 206 207 182
f 184 183 208
f 207 208 183
f 185 184 209
f 208 209 184
f 186 185 210
f 209 210 185
f 187 186 211
f 210 211 186
f 188 187 212
f 211 212 187
f 189 188 213
f 212 213 188
f 190 189 214
f 213 214 189
f 191 190 215
f 214 215 190
f 192 191 216
f 215 216 191
f 193 192 217
f 216 217 192
f 194 193 218
f 217 218 193
f 195 194 219
f 218 219 194
f 196 195 220
f 219 220 195
f 197 196 221
f 220 221 196
f 198 197 222
f 221 222 197
f 199 198 223
f 222 223 198
f 200 199 224
f 223 224 199
f 224 225 200
f 202 201 226
f 203 202 227
f 226 227 202
f 204 203 228
f 227 228 203
f 205 204 229
f 228 229 204
f 206 205 230
f 229 230 205
f 207 206 231
f 230 231 206
f 208 207 232
f 231 232 207
f 209 208 233
f 232 233 208
f 210 209 234
f 233 234 209
f 211 210 235
f 234 235 210
f 212 211 236
f 235 236 211
f 213 212 237
f 236 237 212
f 214 213 238
f 237 238 213
f 215 214 239
f 238 239 214
f 216 215 240
f 239 240 215
f 217 216 241
f 240 241 216
f 218 217 242
f 241 242 217
f 219 218 243
f 242 243 218
f 220 219 244
f 243 244 219
f 221 220 245
f 244 245 220
f 222 221 246
f 245 246 221
f 223 222 247
f 246 247 222
f 224 223 248
f 247 248 223
f 225 224 249
f 248 249 224
f 249 250 225
f 227 226 251
f 228 227 252
f 251 252 227
f 229 228 253
f 252 253 228
f 230 229 254
f 253 254 229
f 231 230 255
f 254 255 230
f 232 231 256
f 255 256 231
f 233 232 257
f 256 257 232
f 234 233 258
f 257 258 233
f 235 234 259
f 258 259 234
f 236 235 260
f 259 260 235
f 237 236 261
f 260 261 236
f 238 237 262
f 261 262 237
f 239 238 263
f 262 263 238
f 240 239 264
f 263 264 239
f 241 240 265
f 264 265 240
f 242 241 266
f 265 266 241
f 243 242 267
f 266 267 242
f 244 243 268
f 267 268 243
f 245 244 269
f 268 269 244
f 246 245 270
f 269 270 245
f 247 246 271
f 270 271 246
f 248 247 272
f 271 272 247
f 249 248 273
f 272 273 248
f 250 249 274
f 273 274 249
f 274 275 250
f 252 251 276
f 253 252 277
f 276 277 252
f 254 253 278
f 277 278 253
f 255 254 279
f 278 279 254
f 256 255 280
f 279 280 255
f 257 256 281
f 280 281 256
f 258 257 282
f 281 282 257
f 259 258 283
f 282 283 258
f 260 259 284
f 283 284 259
f 261 260 285
f 284 285 260
f 262 261 286
f 285 286 261
f 263 262 287
f 286 287 262
f 264 263 288
f 287 288 263
f 265 264 289
f 288 289 264
f 266 265 290
f 289 290 265
f 267 266 291
f 290 291 266
f 268 267 292
f 291 292 267
f 269 268 293
f 292 293 268
f 270 269 294
f 293 294 269
f 271 270 295
f 294 295 270
f 272 271 296
f 295 296 271
f 273 272 297
f 296 297 272
f 274 273 298
f 297 298 273
f 275 274 299
f 298 299 274
f 299 300 275
f 277 276 301
f 278 277 302
f 301 302 277
f 279 278 303
f 302 303 278
f 280 279 304
f 303 304 279
f 281 280 305
f 304 305 280
f 282 281 306
f 305 306 281
f 283 282 307
f 306 307 282
f 284 283 308
f 307 308 283
f 285 284 309
f 308 309 284
f 286 285 310
f 309 310 285
f 287 286 311
f 310 311 286
f 288 287 312
f 311 312 287
f 289 288 313
f 312 313 288
f 290 289 314
f 313 314 289
f 291 290 315
f 314 315 290
f 292 291 316
f 315 316 291
f 293 292 317
f 316 317 292
f 294 293 318
f 317 318 293
f 295 294 319
f 318 319 294
f 296 295 320
f 319 320 295
f 297 296 321
f 320 321 296
f 298 297 322
f 321 322 297
f 299 298 323
f 322 323 298
f 300 299 324
f 323 324 299
f 324 325 300
f 302 301 326
f 303 302 327
f 326 327 302
f 304 303 328
f 327 328 303
f 305 304 329
f 328 329 304
f 306 305 330
f 329 330 305
f 307 306 331
f 330 331 306
f 308 307 332
f 331 332 307
f 309 308 333
f 332 333 308
f 310 309 334
f 333 334 309
f 311 310 335
f 334 335 310
f 312 311 336
f 335 336 311
f 313 312 337
f 336 337 312
f 314 313 338
f 337 338 313
f 315 314 339
f 338 339 314
f 316 315 340
f 339 340 315
f 317 316 341
f 340 341 316
f 318 317 342
f 341 342 317
f 319 318 343
f 342 343 318
f 320 319 344
f 343 344 319
f 321 320 345
f 344 345 320
f 322 321 346
f 345 346 321
f 323 322 347
f 346 347 322
f 324 323 348
f 347 348 323
f 325 324 349
f 348 349 324
f 349 350 325
f 327 326 351
f 328 327 352
f 351 352 327
f 329 328 353
f 352 353 328
f 330 329 354
f 353 354 329
f 331 330 355
f 354 355 330
f 332 331 356
f 355 356 331
f 333 332 357
f 356 357 332
f 334 333 358
f 357 358 333
f 335 334 359
f 358 359 334
f 336 335 360
f 359 360 335
f 337 336 361
f 360 361 336
f 338 337 362
f 361 362 337
f 339 338 363
f 362 363 338
f 340 339 364
f 363 364 339
f 341 340 365
f 364 365 340
f 342 341 366
f 365 366 341
f 343 342 367
f 366 367 342
f 344 343 368
f 367 368 343
f 345 344 369
f 368 369 344
f 346 345 370
f 369 370 345
f 347 346 371
f 370 371 346
f 348 347 372
f 371 372 347
f 349 348 373
f 372 373 348
f 350 349 374
f 373 374 349
f 374 375 350
f 352 351 376
f 353 352 377
f 376 377 352
f 354 353 378
f 377 378 353
f 355 354 379
f 378 379 354
f 356 355 380
f 379 380 355
f 357 356 381
f 380 381 356
f 358 357 382
f 381 382 357
f 359 358 383
f 382 383 358
f 360 359 384
f 383 384 359
f 361 360 385
f 384 385 360
f 362 361 386
f 385 386 361
f 363 362 387
f 386 387 362
f 364 363 388
f 387 388 363
f 365 364 389
f 388 389 364
f 366 365 390
f 389 390 365
f 367 366 391
f 390 391 366
f 368 367 392
f 391 392 367
f 369 368 393
f 392 393 368
f 370 369 394
f 393 394 369
f 371 370 395
f 394 395 370
f 372 371 396
f 395 396 371
f 373 372 397
f 396 397 372
f 374 373 398
f 397 398 373
f 375 374 399
f 398 399 374
f 399 400 375
f 377 376 401
f 378 377 402
f 401 402 377
f 379 378 403
f 402 403 378
f 380 379 404
f 403 404 379
f 381 380 405
f 404 405 380
f 382 381 406
f 405 406 381
f 383 382 407
f 406 407 382
f 384 383 408
f 407 408 383
f 385 384 409
f 408 409 384
f 386 385 410
f 409 410 385
f 387 386 411
f 410 411 386
f 388 387 412
f 411 412 387
f 389 388 413
f 412 413 388
f 390 389 414
f 413 414 389
f 391 390 415
f 414 415 390
f 392 391 416
f 415 416 391
f 393 392 417
f 416 417 392
f 394 393 418
f 417 418 393
f 395 394 419
f 418 419 394
f 396 395 420
f 419 420 395
f 397 396 421
f 420 421 396
f 398 397 422
f 421 422 397
f 399 398 423
f 422 423 398
f 400 399 424
f 423 424 399
f 424 425 400
f 402 401 426
f 403 402 427
f 426 427 402
f 404 403 428
f 427 428 403
f 405 404 429
f 428 429 404
f 406 405 430
f 429 430 405
f 407 406 431
f 430 431 406
f 408 407 432
f 431 432 407
f 409 408 433
f 432 433 408
f 410 409 434
f 433 434 409
f 411 410 435
f 434 435 410
f 412 411 436
f 435 436 411
f 413 412 437
f 436 437 412
f 414 413 438
f 437 438 413
f 415 414 439
f 438 439 414
f 416 415 440
f 439 440 415
f 417 416 441
f 440 441 416
f 418 417 442
f 441 442 417
f 419 418 443
f 442 443 418
f 420 419 444
f 443 444 419
f 421 420 445
f 444 445 420
f 422 421 446
f 445 446 421
f 423 422 447
f 446 447 422
f 424 423 448
f 447 448 423
f 425 424 449
f 448 449 424
f 449 450 425
f 427 426 451
f 428 427 452
f 451 452 427
f 429 428 453
f 452 453 428
f 430 429 454
f 453 454 429
f 431 430 455
f 454 455 430
f 432 431 456
f 455 456 431
f 433 432 457
f 456 457 432
f 434 433 458
f 457 458 433
f 435 434 459
f 458 459 434
f 436 435 460
f 459 460 435
f 437 436 461
f 460 461 436
f 438 437 462
f 461 462 437
f 439 438 463
f 462 463 438
f 440 439 464
f 463 464 439
f 441 440 465
f 464 465 440
f 442 441 466
f 465 466 441
f 443 442 467
f 466 467 442
f 444 443 468
f 467 468 443
f 445 444 469
f 468 469 444
f 446 445 470
f 469 470 445
f 447 446 471
f 470 471 446
f 448 447 472
f 471 472 447
f 449 448 473
f 472 473 448
f 450 449 474
f 473 474 449
f 474 475 450
f 452 451 476
f 453 452 477
f 476 477 452
f 454 453 478
f 477 478 453
f 455 454 479
f 478 479 454
f 456 455 480
f 479 480 455
f 457 456 481
f 480 481 456
f 458 457 482
f 481 482 457
f 459 458 483
f 482 483 458
f 460 459 484
f 483 484 459
f 461 460 485
f 484 485 460
f 462 461 486
f 485 486 461
f 463 462 487
f 486 487 462
f 464 463 488
f 487 488 463
f 465 464 489
f 488 489 464
f 466 465 490
f 489 490 465
f 467 466 491
f 490 491 466
f 468 467 492
f 491 492 467
f 469 468 493
f 492 493 468
f 470 469 494
f 493 494 469
f 471 470 495
f 494 495 470
f 472 471 496
f 495 496 471
f 473 472 497
f 496 497 472
f 474 473 498
f 497 498 473
f 475 474 499
f 498 499 474
f 499 500 475
f 477 476 501
f 478 477 502
f 501 502 477
f 479 478 503
f 502 503 478
f 480 479 504
f 503 504 479
f 481 480 505
f 504 505 480
f 482 481 506
f 505 506 481
f 483 482 507
f 506 507 482
f 484 483 508
f 507 508 483
f 485 484 509
f 508 509 484
f 486 485 510
f 509 510 485
f 487 486 511
f 510 511 486
f 488 487 512
f 511 512 487
f 489 488 513
f 512 513 488
f 490 489 514
f 513 514 489
f 491 490 515
f 514 515 490
f 492 491 516
f 515 516 491
f 493 492 517
f 516 517 492
f 494 493 518
f 517 518 493
f 495 494 519
f 518 519 494
f 496 495 520
f 519 520 495
f 497 496 521
f 520 521 496
f 498 497 522
f 521 522 497
f 499 498 523
f 522 523 498
f 500 499 524
f 523 524 499
f 524 525 500
f 502 501 526
f 503 502 527
f 526 527 502
f 504 503 528
f 527 528 503
f 505 504 529
f 528 529 504
f 506 505 530
f 529 530 505
f 507 506 531
f 530 531 506
f 508 507 532
f 531 532 507
f 509 508 533
f 532 533 508
f 510 509 534
f 533 534 509
f 511 510 535
f 534 535 510
f 512 511 536
f 535 536 511
f 513 512 537
f 536 537 512
f 514 513 538
f 537 538 513
f 515 514 539
f 538 539 514
f 516 515 540
f 539 540 515
f 517 516 541
f 540 541 516
f 518 517 542
f 541 542 517
f 519 518 543
f 542 543 518
f 520 519 544
f 543 544 519
f 521 520 545
f 544 545 520
f 522 521 546
f 545 546 521
f 523 522 547
f 546 547 522
f 524 523 548
f 547 548 523
f 525 524 549
f 548 549 524
f 549 550 525
f 527 526 551
f 528 527 552
f 551 552 527
f 529 528 553
f 552 553 528
f 530 529 554
f 553 554 529
f 531 530 555
f 554 555 530
f 532 531 556
f 555 556 531
f 533 532 557
f 556 557 532
f 534 533 558
f 557 558 533
f 535 534 559
f 558 559 534
f 536 535 560
f 559 560 535
f 537 536 561
f 560 561 536
f 538 537 562
f 561 562 537
f 539 538 563
f 562 563 538
f 540 539 564
f 563 564 539
f 541 540 565
f 564 565 540
f 542 541 566
f 565 566 541
f 543 542 567
f 566 567 542
f 544 543 568
f 567 568 543
f 545 544 569
f 568 569 544
f 546 545 570
f 569 570 545
f 547 546 571
f 570 571 546
f 548 547 572
f 571 572 547
f 549 548 573
f 572 573 548
f 550 549 574
f 573 574 549
f 574 575 550
f 552 551 576
f 553 552 577
f 576 577 552
f 554 553 578
f 577 578 553
f 555 554 579
f 578 579 554
f 556 555 580
f 579 580 555
f 557 556 581
f 580 581 556
f 558 557 582
f 581 582 557
f 559 558 583
f 582 583 558
f 560 559 584
f 583 584 559
f 561 560 585
f 584 585 560
f 562 561 586
f 585 586 561
f 563 562 587
f 586 587 562
f 564 563 588
f 587 588 563
f 565 564 589
f 588 589 564
f 566 565 590
f 589 590 565
f 567 566 591
f 590 591 566
f 568 567 592
f 591 592 567
f 569 568 593
f 592 593 568
f 570 569 594
f 593 594 569
f 571 570 595
f 594 595 570
f 572 571 596
f 595 596 571
f 573 572 597
f 596 597 572
f 574 573 598
f 597 598 573
f 575 574 599
f 598 599 574
f 599 600 575
f 577 576 601
f 578 577 602
f 601 602 577
f 579 578 603
f 602 603 578
f 580 579 604
f 603 604 579
f 581 580 605
f 604 605 580
f 582 581 606
f 605 606 581
f 583 582 607
f 606 607 582
f 584 583 608
f 607 608 583
f 585 584 609
f 608 609 584
f 586 585 610
f 609 610 585
f 587 586 611
f 610 611 586
f 588 587 612
f 611 612 587
f 589 588 613
f 612 613 588
f 590 589 614
f 613 614 589
f 591 590 615
f 614 615 590
f 592 591 616
f 615 616 591
f 593 592 617
f 616 617 592
f 594 593 618
f 617 618 593
f 595 594 619
f 618 619 594
f 596 595 620
f 619 620 595
f 597 596 621
f 620 621 596
f 598 597 622
f 621 622 597
f 599 598 623
f 622 623 598
f 600 599 624
f 623 624 599
f 624 625 600
