v -0.965191 -2.89806 -1.20421
v -0.873903 -2.75275 -1.2798
v -0.78616 -2.6067 -1.35785
v -0.695058 -2.4611 -1.43211
v -0.607881 -2.31645 -1.51192
v -0.509992 -2.1729 -1.58015
v -0.429894 -2.03037 -1.67105
v -0.293812 -1.90366 -1.69384
v -0.211691 -1.76336 -1.78707
v -0.0442795 -1.69801 -1.73506
v 0.00224617 -1.5662 -1.85958
v 0.162124 -1.56462 -1.76264
v 0.322897 -1.47541 -1.80678
v 0.330272 -1.3502 -1.94885
v 0.435324 -1.43079 -1.81769
v 0.619852 -1.43737 -1.78481
v 0.795319 -1.45852 -1.72479
v 0.866003 -1.37273 -1.87505
v 0.993303 -1.46704 -1.77458
v 1.16356 -1.52954 -1.72605
v 1.33399 -1.59039 -1.6775
v 1.5154 -1.63547 -1.66636
v 1.64097 -1.73126 -1.56607
v 1.79778 -1.80994 -1.50009
v 1.92858 -1.89885 -1.39975
v -1.05853 -2.78053 -1.09182
v -0.983537 -2.63477 -1.18342
v -0.899972 -2.48841 -1.26679
v -0.810244 -2.34225 -1.3435
v -0.722197 -2.19666 -1.42298
v -0.623993 -2.0528 -1.49223
v -0.521706 -1.91113 -1.55899
v -0.395731 -1.77875 -1.59803
v -0.295168 -1.63994 -1.67253
v -0.128038 -1.56786 -1.62914
v -0.0675457 -1.43437 -1.74563
v 0.103469 -1.41034 -1.67399
v 0.274029 -1.33718 -1.69087
v 0.287974 -1.21103 -1.82917
v 0.425053 -1.27155 -1.71719
v 0.610539 -1.26974 -1.7003
v 0.78443 -1.29378 -1.63544
v 0.893748 -1.22054 -1.76848
v 1.01926 -1.31536 -1.66753
v 1.19623 -1.36773 -1.63676
v 1.37106 -1.42317 -1.60092
v 1.54246 -1.48454 -1.55757
v 1.67541 -1.57788 -1.46413
v 1.84158 -1.64846 -1.41479
v 1.98067 -1.73539 -1.32408
v -1.12973 -2.66326 -0.964117
v -1.06411 -2.51695 -1.06158
v -0.993374 -2.36967 -1.15474
v -0.91101 -2.22243 -1.23882
v -0.817532 -2.07673 -1.31343
v -0.717658 -1.93266 -1.3823
v -0.612005 -1.79095 -1.44631
v -0.495854 -1.6538 -1.50033
v -0.377681 -1.51854 -1.55419
v -0.211649 -1.437 -1.52429
v -0.133148 -1.30274 -1.62831
v 0.0434152 -1.24686 -1.60494
v 0.221567 -1.20008 -1.57354
v 0.250508 -1.0714 -1.70667
v 0.412868 -1.10977 -1.62292
v 0.599309 -1.10476 -1.61077
v 0.775163 -1.12644 -1.55028
v 0.918104 -1.07021 -1.65715
v 1.04521 -1.16496 -1.55934
v 1.22079 -1.21846 -1.52511
v 1.40192 -1.26302 -1.50687
v 1.55011 -1.34754 -1.42939
v 1.7189 -1.41431 -1.3826
v 1.88028 -1.48914 -1.32264
v 2.0255 -1.57443 -1.23955
v -1.199 -2.5457 -0.835827
v -1.14612 -2.39928 -0.940935
v -1.08151 -2.25106 -1.03796
v -0.995458 -2.10388 -1.11909
v -0.902057 -1.95787 -1.1941
v -0.801144 -1.8137 -1.26264
v -0.692485 -1.67238 -1.32437
v -0.575961 -1.5348 -1.37886
v -0.456086 -1.39962 -1.43026
v -0.294512 -1.30545 -1.42026
v -0.186475 -1.17562 -1.4999
v -0.0126667 -1.10764 -1.49222
v 0.165617 -1.06371 -1.4566
v 0.219443 -0.932566 -1.57913
v 0.401629 -0.940582 -1.54075
v 0.562726 -0.992784 -1.46494
v 0.736465 -0.946971 -1.51033
v 0.920879 -0.93289 -1.52617
v 1.0652 -1.01879 -1.44392
v 1.2485 -1.05679 -1.43259
v 1.41548 -1.12391 -1.38023
v 1.5798 -1.19469 -1.32491
v 1.7508 -1.25866 -1.28074
v 1.8805 -1.35838 -1.18784
v 2.06286 -1.39275 -1.21475
v -1.28995 -2.4297 -0.720911
v -1.22752 -2.28248 -0.819317
v -1.1571 -2.13401 -0.911394
v -1.07169 -1.98668 -0.992777
v -0.978002 -1.8406 -1.06758
v -0.87491 -1.69691 -1.13445
v -0.76277 -1.55676 -1.19319
v -0.64364 -1.42051 -1.24519
v -0.526601 -1.28419 -1.29839
v -0.382235 -1.16998 -1.3261
v -0.234936 -1.06156 -1.3576
v -0.068338 -0.97919 -1.36568
v 0.107961 -0.92685 -1.34302
v 0.198003 -0.799153 -1.4407
v 0.380075 -0.810565 -1.40443
v 0.554701 -0.842121 -1.354
v 0.731121 -0.800533 -1.39139
v 0.916681 -0.805185 -1.38561
v 1.08929 -0.861559 -1.34402
v 1.25697 -0.927341 -1.29565
v 1.42544 -0.991975 -1.24577
v 1.60658 -1.0383 -1.22327
v 1.73834 -1.14015 -1.13503
v 1.92103 -1.18245 -1.13645
v 2.03866 -1.30212 -1.05249
v -1.33704 -2.31545 -0.580986
v -1.29918 -2.16734 -0.690154
v -1.22814 -2.01852 -0.781252
v -1.1425 -1.87103 -0.862221
v -1.04635 -1.72544 -0.935123
v -0.939517 -1.58292 -0.999033
v -0.822797 -1.44465 -1.05394
v -0.698479 -1.311 -1.10154
v -0.571411 -1.18031 -1.14686
v -0.427773 -1.064 -1.1781
v -0.27746 -0.956961 -1.20578
v -0.118067 -0.863012 -1.22449
v 0.0558108 -0.799101 -1.218
v 0.179101 -0.68043 -1.28739
v 0.363077 -0.687618 -1.26033
v 0.545222 -0.702774 -1.22966
v 0.726726 -0.671352 -1.25125
v 0.90617 -0.710345 -1.22169
v 1.08567 -0.749547 -1.19269
v 1.26416 -0.79484 -1.16186
v 1.44709 -0.833835 -1.14388
v 1.59632 -0.924203 -1.07442
v 1.77598 -0.973676 -1.05594
v 1.89441 -1.09404 -0.973122
v 2.07472 -1.12173 -1.01596
v -1.419 -2.20372 -0.456374
v -1.3535 -2.05528 -0.550647
v -1.291 -1.90545 -0.645371
v -1.20481 -1.7581 -0.725525
v -1.1067 -1.61321 -0.796926
v -0.996973 -1.47181 -0.858591
v -0.877893 -1.33427 -0.911613
v -0.755567 -1.19808 -0.961224
v -0.622033 -1.06974 -1.0019
v -0.477038 -0.952157 -1.03359
v -0.32204 -0.847495 -1.05711
v -0.158879 -0.756819 -1.07246
v 0.0112783 -0.680879 -1.0801
v 0.162974 -0.582065 -1.12083
v 0.348219 -0.580603 -1.10323
v 0.53356 -0.572407 -1.09381
v 0.71893 -0.57394 -1.08689
v 0.904296 -0.589489 -1.0747
v 1.08804 -0.620905 -1.05427
v 1.27313 -0.653027 -1.03736
v 1.43894 -0.727484 -0.988084
v 1.62031 -0.7736 -0.965314
v 1.75307 -0.885317 -0.892812
v 1.93565 -0.923144 -0.906357
v 2.038 -1.0663 -0.840694
v -1.51108 -2.08955 -0.340278
v -1.42223 -1.94338 -0.417545
v -1.33812 -1.79739 -0.50016
v -1.24641 -1.65271 -0.576217
v -1.14864 -1.50924 -0.646846
v -1.04079 -1.3683 -0.708526
v -0.922837 -1.23056 -0.761519
v -0.801205 -1.09308 -0.811
v -0.666468 -0.96385 -0.850969
v -0.519806 -0.845244 -0.882064
v -0.362728 -0.739391 -0.905023
v -0.196876 -0.647935 -0.920544
v -0.02383 -0.572296 -0.929616
v 0.149307 -0.502386 -0.945794
v 0.335541 -0.479228 -0.94113
v 0.52302 -0.459109 -0.94042
v 0.711887 -0.457368 -0.93501
v 0.900078 -0.472991 -0.923303
v 1.08566 -0.505087 -0.904274
v 1.26641 -0.552701 -0.877417
v 1.44882 -0.596718 -0.853824
v 1.60389 -0.688551 -0.799577
v 1.78712 -0.730423 -0.793547
v 1.89251 -0.873787 -0.730673
v 2.07255 -0.892614 -0.778986
v -1.63794 -1.97303 -0.266298
v -1.54523 -1.82622 -0.338369
v -1.45041 -1.67869 -0.409662
v -1.34712 -1.53271 -0.474074
v -1.22729 -1.3934 -0.523163
v -1.09867 -1.26098 -0.567141
v -0.965371 -1.13214 -0.608307
v -0.835903 -0.998984 -0.651634
v -0.700388 -0.868968 -0.690397
v -0.552519 -0.749523 -0.720378
v -0.393711 -0.642755 -0.742386
v -0.225423 -0.550558 -0.757586
v -0.0490385 -0.474568 -0.767336
v 0.133552 -0.417007 -0.774137
v 0.32102 -0.378007 -0.777685
v 0.511679 -0.357409 -0.776996
v 0.70328 -0.355276 -0.771709
v 0.893708 -0.370987 -0.760835
v 1.08098 -0.40367 -0.74345
v 1.26315 -0.452251 -0.718784
v 1.43829 -0.515242 -0.685915
v 1.62248 -0.555615 -0.669944
v 1.75023 -0.682923 -0.61732
v 1.93282 -0.714935 -0.638869
v 2.02546 -0.873321 -0.598764
v -1.51494 -1.98219 -0.12462
v -1.43781 -1.82141 -0.185636
v -1.37592 -1.65276 -0.241325
v -1.32922 -1.4795 -0.296051
v -1.22764 -1.3295 -0.347256
v -1.11527 -1.18567 -0.396985
v -0.991709 -1.04899 -0.44347
v -0.860001 -0.917272 -0.484715
v -0.724334 -0.786898 -0.52188
v -0.575919 -0.666969 -0.55018
v -0.41609 -0.559617 -0.570617
v -0.246182 -0.466943 -0.58493
v -0.0675925 -0.390596 -0.594497
v 0.11781 -0.332176 -0.600764
v 0.308024 -0.292366 -0.603813
v 0.501003 -0.271329 -0.603155
v 0.694568 -0.268998 -0.598361
v 0.886596 -0.284876 -0.588728
v 1.07508 -0.318152 -0.573456
v 1.25811 -0.367713 -0.551684
v 1.44234 -0.41017 -0.533259
v 1.59676 -0.50979 -0.490462
v 1.78207 -0.54559 -0.496386
v 1.89842 -0.688835 -0.456436
v 2.06296 -0.778234 -0.441894
v -1.51655 -1.91573 0.0545537
v -1.45625 -1.75345 -0.014027
v -1.38433 -1.59185 -0.0661294
v -1.29811 -1.43636 -0.11715
v -1.20179 -1.28468 -0.167237
v -1.10084 -1.13461 -0.217818
v -0.994492 -0.987354 -0.267912
v -0.873653 -0.848681 -0.311654
v -0.738893 -0.719021 -0.347199
v -0.59101 -0.599304 -0.373147
v -0.431103 -0.49177 -0.391143
v -0.260511 -0.398905 -0.40396
v -0.0808057 -0.322373 -0.412757
v 0.106016 -0.263576 -0.418399
v 0.297747 -0.223361 -0.421076
v 0.492136 -0.202079 -0.420576
v 0.686923 -0.199704 -0.416579
v 0.879948 -0.215826 -0.408586
v 1.06923 -0.24971 -0.395926
v 1.25306 -0.300379 -0.377743
v 1.4397 -0.336371 -0.363225
v 1.61823 -0.399331 -0.342402
v 1.77669 -0.499657 -0.315652
v 1.92642 -0.610436 -0.288815
v 2.07209 -0.725642 -0.262258
v -1.68518 -1.83562 0.0788992
v -1.60699 -1.66535 0.0437217
v -1.52054 -1.49632 0.0129291
v -1.42195 -1.33364 -0.0240817
v -1.31412 -1.17746 -0.06313
v -1.19755 -1.02681 -0.10026
v -1.06765 -0.884909 -0.1314
v -0.922839 -0.757918 -0.157143
v -0.764821 -0.648376 -0.176731
v -0.600266 -0.54907 -0.191204
v -0.44036 -0.441062 -0.205674
v -0.269471 -0.347992 -0.216448
v -0.0892527 -0.271342 -0.224069
v 0.0982371 -0.212392 -0.228985
v 0.29071 -0.172022 -0.231364
v 0.485807 -0.15067 -0.231151
v 0.681185 -0.148365 -0.228192
v 0.874611 -0.164758 -0.222204
v 1.06403 -0.199157 -0.2127
v 1.24749 -0.250474 -0.198616
v 1.42313 -0.317667 -0.180343
v 1.58974 -0.399777 -0.158642
v 1.74735 -0.496133 -0.132008
v 1.90014 -0.600463 -0.10337
v 2.0575 -0.699247 -0.0771079
v -1.55955 -1.86549 0.208188
v -1.46242 -1.71739 0.148623
v -1.37425 -1.55717 0.110918
v -1.28615 -1.39357 0.0899824
v -1.19656 -1.23028 0.0727432
v -1.10684 -1.06783 0.0560611
v -1.0027 -0.91465 0.0400639
v -0.884079 -0.771162 0.0242236
v -0.751092 -0.638129 0.00868814
v -0.604197 -0.516701 -0.00522068
v -0.444505 -0.408449 -0.0159704
v -0.273591 -0.315236 -0.0244451
v -0.0932235 -0.238519 -0.0306613
v 0.0944725 -0.179539 -0.0347532
v 0.287176 -0.139168 -0.0368414
v 0.48249 -0.117872 -0.0369822
v 0.678031 -0.115713 -0.0351947
v 0.871537 -0.132386 -0.0314538
v 1.061 -0.167277 -0.0256045
v 1.251 -0.194463 -0.0211281
v 1.43924 -0.234439 -0.0155615
v 1.62089 -0.298306 -0.00667444
v 1.79377 -0.380314 0.00522192
v 1.95955 -0.471442 0.0183459
v 2.12345 -0.562349 0.0321479
v -1.71903 -1.78045 0.140326
v -1.62389 -1.62126 0.168641
v -1.51978 -1.46659 0.186946
v -1.41475 -1.3106 0.198022
v -1.30808 -1.15325 0.202201
v -1.19576 -0.996704 0.202328
v -1.06967 -0.84837 0.199648
v -0.927333 -0.715442 0.195437
v -0.770163 -0.601918 0.189641
v -0.604164 -0.503529 0.18259
v -0.4442 -0.394705 0.175798
v -0.273197 -0.301244 0.169722
v -0.0928752 -0.224482 0.165053
v 0.0946927 -0.165564 0.161895
v 0.287238 -0.125311 0.160146
v 0.482397 -0.104171 0.159661
v 0.67779 -0.102211 0.16025
v 0.871119 -0.119136 0.161632
v 1.06031 -0.15434 0.163352
v 1.24339 -0.206961 0.163915
v 1.41859 -0.275864 0.163409
v 1.58486 -0.359966 0.164097
v 1.7423 -0.458965 0.166005
v 1.89669 -0.564145 0.169034
v 2.05439 -0.665535 0.172822
v -1.64309 -1.85028 0.298264
v -1.52325 -1.70409 0.303303
v -1.4096 -1.55132 0.312556
v -1.30244 -1.39242 0.32315
v -1.20315 -1.22976 0.335969
v -1.10635 -1.06769 0.34859
v -1.0008 -0.912059 0.359779
v -0.880734 -0.766452 0.368136
v -0.746416 -0.631472 0.372345
v -0.59869 -0.508508 0.37127
v -0.438764 -0.399456 0.367607
v -0.268024 -0.305942 0.363719
v -0.088144 -0.2293 0.360647
v 0.0988638 -0.170605 0.358526
v 0.290828 -0.130606 0.357196
v 0.485485 -0.109721 0.356435
v 0.68052 -0.108017 0.355928
v 0.873681 -0.1252 0.355138
v 1.06292 -0.160659 0.353251
v 1.25038 -0.198269 0.34989
v 1.43775 -0.23535 0.3434
v 1.61997 -0.293553 0.333299
v 1.79439 -0.369965 0.320199
v 1.96287 -0.454611 0.30537
v 2.12939 -0.540013 0.289611
v -1.64018 -1.85967 0.484422
v -1.54956 -1.69513 0.489395
v -1.45477 -1.53202 0.493368
v -1.35556 -1.37128 0.501494
v -1.24707 -1.21606 0.517821
v -1.13052 -1.06636 0.533537
v -1.00386 -0.924423 0.545086
v -0.869088 -0.789667 0.552159
v -0.734254 -0.654004 0.557752
v -0.586655 -0.530886 0.558863
v -0.427418 -0.422 0.557368
v -0.257707 -0.328832 0.555288
v -0.0789775 -0.252652 0.553806
v 0.10683 -0.19444 0.552808
v 0.297645 -0.154871 0.551964
v 0.491321 -0.134346 0.551007
v 0.685632 -0.132951 0.549564
v 0.878347 -0.150382 0.546889
v 1.06741 -0.185962 0.541802
v 1.25082 -0.238537 0.53206
v 1.42664 -0.306482 0.514444
v 1.59376 -0.389058 0.489974
v 1.75163 -0.485927 0.459899
v 1.90905 -0.583938 0.430033
v 2.07119 -0.675308 0.405269
v -1.49201 -1.94393 0.563385
v -1.41655 -1.77481 0.593992
v -1.34938 -1.60351 0.630212
v -1.29728 -1.42804 0.668885
v -1.20155 -1.26851 0.691992
v -1.0869 -1.11956 0.707648
v -0.967613 -0.973072 0.72148
v -0.846769 -0.826753 0.73379
v -0.712672 -0.691533 0.740611
v -0.566457 -0.569209 0.74326
v -0.409234 -0.461259 0.743123
v -0.242039 -0.369172 0.742362
v -0.0655501 -0.293975 0.742425
v 0.11821 -0.23658 0.742603
v 0.307143 -0.197624 0.742265
v 0.499197 -0.177549 0.741164
v 0.692246 -0.176518 0.739021
v 0.884109 -0.194221 0.734917
v 1.07282 -0.22997 0.727536
v 1.2565 -0.282649 0.71492
v 1.4332 -0.350887 0.695301
v 1.60622 -0.424221 0.671663
v 1.77203 -0.509112 0.643619
v 1.91074 -0.631392 0.611312
v 2.06099 -0.739485 0.581067
v -1.43182 -2.00122 0.731946
v -1.38763 -1.82336 0.77236
v -1.3454 -1.6448 0.812866
v -1.2606 -1.47941 0.84411
v -1.15975 -1.32175 0.866661
v -1.05023 -1.16905 0.884538
v -0.937446 -1.01802 0.900488
v -0.812673 -0.876217 0.911315
v -0.689252 -0.73356 0.922948
v -0.53684 -0.621962 0.922569
v -0.398771 -0.493582 0.93069
v -0.222152 -0.426504 0.922817
v -0.0487197 -0.352657 0.9245
v 0.132277 -0.296356 0.925956
v 0.318571 -0.258134 0.926093
v 0.508156 -0.238541 0.92485
v 0.6991 -0.237924 0.922307
v 0.889218 -0.255889 0.917282
v 1.07667 -0.291732 0.908422
v 1.25948 -0.34423 0.893758
v 1.43568 -0.412085 0.871982
v 1.61384 -0.472525 0.851227
v 1.78964 -0.537388 0.827206
v 1.95627 -0.618319 0.792415
v 2.11951 -0.703161 0.754754
v -1.45974 -2.03469 0.914546
v -1.38682 -1.866 0.954364
v -1.30465 -1.69931 0.987251
v -1.21357 -1.53657 1.01579
v -1.11192 -1.37936 1.03856
v -1.00749 -1.22331 1.05885
v -0.884856 -1.08035 1.06885
v -0.7931 -0.917384 1.09422
v -0.639874 -0.807133 1.08906
v -0.536209 -0.650813 1.11061
v -0.35942 -0.587914 1.09005
v -0.212162 -0.47301 1.10711
v -0.030111 -0.428033 1.09804
v 0.148208 -0.372854 1.101
v 0.331287 -0.335408 1.10163
v 0.517221 -0.316274 1.10022
v 0.704945 -0.316166 1.09769
v 0.892038 -0.334393 1.09234
v 1.07742 -0.370346 1.08279
v 1.25888 -0.422571 1.06666
v 1.43429 -0.489845 1.04285
v 1.60212 -0.569537 1.01013
v 1.76625 -0.652489 0.972421
v 1.92228 -0.745279 0.92596
v 2.07917 -0.836934 0.879515
v -1.33127 -2.11594 1.02365
v -1.27116 -1.94665 1.07687
v -1.20834 -1.77755 1.12751
v -1.14306 -1.60759 1.17446
v -1.04707 -1.44742 1.20116
v -0.929716 -1.30071 1.21026
v -0.870981 -1.12603 1.25083
v -0.719777 -1.01365 1.23797
v -0.649801 -0.842048 1.27505
v -0.476758 -0.77461 1.24074
v -0.359456 -0.631782 1.27453
v -0.178048 -0.588498 1.25313
v -0.0160844 -0.498926 1.27349
v 0.166507 -0.464593 1.26609
v 0.340257 -0.402584 1.28055
v 0.524733 -0.40935 1.26537
v 0.708865 -0.386534 1.2755
v 0.889477 -0.428247 1.25851
v 1.07322 -0.464451 1.24883
v 1.25349 -0.516458 1.23169
v 1.42819 -0.583284 1.20636
v 1.59863 -0.658043 1.17525
v 1.76605 -0.736794 1.13944
v 1.92564 -0.825565 1.09504
v 2.04603 -0.950937 1.02449
v -1.2595 -2.18996 1.17998
v -1.22022 -2.01682 1.24268
v -1.14958 -1.84834 1.29078
v -1.05895 -1.68571 1.32315
v -0.947798 -1.53409 1.33456
v -0.920764 -1.3552 1.38959
v -0.775747 -1.23751 1.36744
v -0.73763 -1.06069 1.42011
v -0.57261 -0.983237 1.37352
v -0.487629 -0.82321 1.42303
v -0.309877 -0.773916 1.38862
v -0.167598 -0.660363 1.42798
v 0.0136257 -0.622152 1.41295
v 0.171549 -0.53031 1.4434
v 0.352036 -0.48851 1.45049
v 0.532179 -0.516146 1.41895
v 0.708981 -0.468751 1.44839
v 0.880122 -0.534848 1.41529
v 1.06313 -0.57244 1.40464
v 1.24199 -0.624281 1.3871
v 1.41546 -0.690593 1.36092
v 1.58655 -0.762529 1.33101
v 1.7541 -0.840248 1.29565
v 1.9173 -0.923674 1.25442
v 2.06704 -1.02097 1.19701
v -1.20786 -2.26242 1.34436
v -1.13192 -2.09619 1.3874
v -1.04745 -1.93238 1.42396
v -0.950832 -1.77332 1.44928
v -0.948777 -1.59522 1.5122
v -0.806553 -1.47625 1.47756
v -0.804256 -1.29787 1.54211
v -0.6453 -1.2114 1.48886
v -0.593757 -1.04018 1.55082
v -0.423418 -0.980733 1.50353
v -0.308687 -0.846427 1.56263
v -0.126945 -0.803635 1.54544
v 0.022412 -0.699202 1.58274
v 0.180047 -0.607857 1.61633
v 0.363893 -0.604957 1.5995
v 0.540398 -0.635768 1.56073
v 0.703322 -0.56894 1.61217
v 0.874767 -0.630146 1.57757
v 1.05556 -0.669739 1.56672
v 1.23118 -0.727683 1.545
v 1.40002 -0.801038 1.5128
v 1.56948 -0.874785 1.48117
v 1.7333 -0.957295 1.44132
v 1.89199 -1.04603 1.39441
v 2.04197 -1.14301 1.33697
v -1.08313 -2.34897 1.45484
v -1.02133 -2.18147 1.51185
v -0.947519 -2.01563 1.55936
v -0.966642 -1.83972 1.62418
v -0.827262 -1.718 1.58751
v -0.860311 -1.54157 1.64538
v -0.703343 -1.44481 1.6053
v -0.681394 -1.26825 1.66523
v -0.518127 -1.2068 1.59697
v -0.432237 -1.05945 1.67339
v -0.264052 -0.979619 1.68803
v -0.100964 -0.893668 1.70893
v 0.077731 -0.842615 1.69094
v 0.195464 -0.720003 1.76848
v 0.355374 -0.771687 1.68687
v 0.542678 -0.768967 1.6914
v 0.694235 -0.687156 1.76198
v 0.852785 -0.766299 1.7034
v 1.03725 -0.786089 1.71407
v 1.21685 -0.834429 1.69997
v 1.38025 -0.915925 1.6603
v 1.54684 -0.993977 1.62513
v 1.70712 -1.08077 1.58076
v 1.8621 -1.1733 1.52926
v 2.01153 -1.27058 1.47088
v -0.995383 -2.43005 1.60012
v -0.950428 -2.25992 1.6664
v -0.979526 -2.08513 1.73051
v -0.843135 -1.95848 1.70131
v -0.909013 -1.78703 1.74185
v -0.75658 -1.67893 1.72078
v -0.757336 -1.49963 1.77667
v -0.608335 -1.44122 1.67858
v -0.535037 -1.29027 1.76325
v -0.375372 -1.19594 1.79058
v -0.201989 -1.12516 1.78839
v -0.0539072 -1.0214 1.83775
v 0.125753 -0.971544 1.81949
v 0.227639 -0.842312 1.9084
v 0.354683 -0.922808 1.79791
v 0.471651 -0.792949 1.86414
v 0.646395 -0.852353 1.83955
v 0.830689 -0.878684 1.85154
v 1.00523 -0.937826 1.82042
v 1.19013 -0.958308 1.83942
v 1.34723 -1.04712 1.7901
v 1.51554 -1.1226 1.75874
v 1.67333 -1.21191 1.71114
v 1.82402 -1.30809 1.65436
v 1.97005 -1.40779 1.59181
v -0.967803 -2.50377 1.7704
v -0.989663 -2.32921 1.83618
v -0.857864 -2.19606 1.82035
v -0.951229 -2.03317 1.83498
v -0.806718 -1.91291 1.83652
v -0.824343 -1.73257 1.88702
v -0.699087 -1.67718 1.75866
v -0.623935 -1.52789 1.84405
v -0.456244 -1.4441 1.83687
v -0.316898 -1.33612 1.90064
v -0.144358 -1.26245 1.90234
v -0.00567739 -1.15189 1.96353
v 0.173383 -1.09868 1.94921
v 0.267217 -0.967099 2.04325
v 0.403306 -1.0394 1.93603
v 0.463131 -0.887175 2.02672
v 0.618495 -0.978703 1.97499
v 0.797685 -1.03055 1.95661
v 0.976864 -1.0815 1.93766
v 1.16028 -1.08766 1.97247
v 1.30663 -1.18594 1.90927
v 1.47866 -1.25601 1.88549
v 1.63279 -1.34856 1.83325
v 1.77753 -1.44891 1.76931
v 1.91848 -1.55163 1.70051
f 2 1 26
f 3 2 27
f 26 27 2
f 4 3 28
f 27 28 3
f 5 4 29
f 28 29 4
f 6 5 30
f 29 30 5
f 7 6 31
f 30 31 6
f 8 7 32
f 31 32 7
f 9 8 33
f 32 33 8
f 10 9 34
f 33 34 9
f 11 10 35
f 34 35 10
f 12 11 36
f 35 36 11
f 13 12 37
f 36 37 12
f 14 13 38
f 37 38 13
f 15 14 39
f 38 39 14
f 16 15 40
f 39 40 15
f 17 16 41
f 40 41 16
f 18 17 42
f 41 42 17
f 19 18 43
f 42 43 18
f 20 19 44
f 43 44 19
f 21 20 45
f 44 45 20
f 22 21 46
f 45 46 21
f 23 22 47
f 46 47 22
f 24 23 48
f 47 48 23
f 25 24 49
f 48 49 24
f 49 50 25
f 27 26 51
f 28 27 52
f 51 52 27
f 29 28 53
f 52 53 28
f 30 29 54
f 53 54 29
f 31 30 55
f 54 55 30
f 32 31 56
f 55 56 31
f 33 32 57
f 56 57 32
f 34 33 58
f 57 58 33
f 35 34 59
f 58 59 34
f 36 35 60
f 59 60 35
f 37 36 61
f 60 61 36
f 38 37 62
f 61 62 37
f 39 38 63
f 62 63 38
f 40 39 64
f 63 64 39
f 41 40 65
f 64 65 40
f 42 41 66
f 65 66 41
f 43 42 67
f 66 67 42
f 44 43 68
f 67 68 43
f 45 44 69
f 68 69 44
f 46 45 70
f 69 70 45
f 47 46 71
f 70 71 46
f 48 47 72
f 71 72 47
f 49 48 73
f 72 73 48
f 50 49 74
f 73 74 49
f 74 75 50
f 52 51 76
f 53 52 77
f 76 77 52
f 54 53 78
f 77 78 53
f 55 54 79
f 78 79 54
f 56 55 80
f 79 80 55
f 57 56 81
f 80 81 56
f 58 57 82
f 81 82 57
f 59 58 83
f 82 83 58
f 60 59 84
f 83 84 59
f 61 60 85
f 84 85 60
f 62 61 86
f 85 86 61
f 63 62 87
f 86 87 62
f 64 63 88
f 87 88 63
f 65 64 89
f 88 89 64
f 66 65 90
f 89 90 65
f 67 66 91
f 90 91 66
f 68 67 92
f 91 92 67
f 69 68 93
f 92 93 68
f 70 69 94
f 93 94 69
f 71 70 95
f 94 95 70
f 72 71 96
f 95 96 71
f 73 72 97
f 96 97 72
f 74 73 98
f 97 98 73
f 75 74 99
f 98 99 74
f 99 100 75
f 77 76 101
f 78 77 102
f 101 102 77
f 79 78 103
f 102 103 78
f 80 79 104
f 103 104 79
f 81 80 105
f 104 105 80
f 82 81 106
f 105 106 81
f 83 82 107
f 106 107 82
f 84 83 108
f 107 108 83
f 85 84 109
f 108 109 84
f 86 85 110
f 109 110 85
f 87 86 111
f 110 111 86
f 88 87 112
f 111 112 87
f 89 88 113
f 112 113 88
f 90 89 114
f 113 114 89
f 91 90 115
f 114 115 90
f 92 91 116
f 115 116 91
f 93 92 117
f 116 117 92
f 94 93 118
f 117 118 93
f 95 94 119
f 118 119 94
f 96 95 120
f 119 120 95
f 97 96 121
f 120 121 96
f 98 97 122
f 121 122 97
f 99 98 123
f 122 123 98
f 100 99 124
f 123 124 99
f 124 125 100
f 102 101 126
f 103 102 127
f 126 127 102
f 104 103 128
f 127 128 103
f 105 104 129
f 128 129 104
f 106 105 130
f 129 130 105
f 107 106 131
f 130 131 106
f 108 107 132
f 131 132 107
f 109 108 133
f 132 133 108
f 110 109 134
f 133 134 109
f 111 110 135
f 134 135 110
f 112 111 136
f 135 136 111
f 113 112 137
f 136 137 112
f 114 113 138
f 137 138 113
f 115 114 139
f 138 139 114
f 116 115 140
f 139 140 115
f 117 116 141
f 140 141 116
f 118 117 142
f 141 142 117
f 119 118 143
f 142 143 118
f 120 119 144
f 143 144 119
f 121 120 145
f 144 145 120
f 122 121 146
f 145 146 121
f 123 122 147
f 146 147 122
f 124 123 148
f 147 148 123
f 125 124 149
f 148 149 124
f 149 150 125
f 127 126 151
f 128 127 152
f 151 152 127
f 129 128 153
f 152 153 128
f 130 129 154
f 153 154 129
f 131 130 155
f 154 155 130
f 132 131 156
f 155 156 131
f 133 132 157
f 156 157 132
f 134 133 158
f 157 158 133
f 135 134 159
f 158 159 134
f 136 135 160
f 159 160 135
f 137 136 161
f 160 161 136
f 138 137 162
f 161 162 137
f 139 138 163
f 162 163 138
f 140 139 164
f 163 164 139
f 141 140 165
f 164 165 140
f 142 141 166
f 165 166 141
f 143 142 167
f 166 167 142
f 144 143 168
f 167 168 143
f 145 144 169
f 168 169 144
f 146 145 170
f 169 170 145
f 147 146 171
f 170 171 146
f 148 147 172
f 171 172 147
f 149 148 173
f 172 173 148
f 150 149 174
f 173 174 149
f 174 175 150
f 152 151 176
f 153 152 177
f 176 177 152
f 154 153 178
f 177 178 153
f 155 154 179
f 178 179 154
f 156 155 180
f 179 180 155
f 157 156 181
f 180 181 156
f 158 157 182
f 181 182 157
f 159 158 183
f 182 183 158
f 160 159 184
f 183 184 159
f 161 160 185
f 184 185 160
f 162 161 186
f 185 186 161
f 163 162 187
f 186 187 162
f 164 163 188
f 187 188 163
f 165 164 189
f 188 189 164
f 166 165 190
f 189 190 165
f 167 166 191
f 190 191 166
f 168 167 192
f 191 192 167
f 169 168 193
f 192 193 168
f 170 169 194
f 193 194 169
f 171 170 195
f 194 195 170
f 172 171 196
f 195 196 171
f 173 172 197
f 196 197 172
f 174 173 198
f 197 198 173
f 175 174 199
f 198 199 174
f 199 200 175
f 177 176 201
f 178 177 202
f 201 202 177
f 179 178 203
f 202 203 178
f 180 179 204
f 203 204 179
f 181 180 205
f 204 205 180
f 182 181 206
f 205 206 181
f 183 182 207
f 206 207 182
f 184 183 208
f 207 208 183
f 185 184 209
f 208 209 184
f 186 185 210
f 209 210 185
f 187 186 211
f 210 211 186
f 188 187 212
f 211 212 187
f 189 188 213
f 212 213 188
f 190 189 214
f 213 214 189
f 191 190 215
f 214 215 190
f 192 191 216
f 215 216 191
f 193 192 217
f 216 217 192
f 194 193 218
f 217 218 193
f 195 194 219
f 218 219 194
f 196 195 220
f 219 220 195
f 197 196 221
f 220 221 196
f 198 197 222
f 221 222 197
f 199 198 223
f 222 223 198
f 200 199 224
f 223 224 199
f 224 225 200
f 202 201 226
f 203 202 227
f 226 227 202
f 204 203 228
f 227 228 203
f 205 204 229
f 228 229 204
f 206 205 230
f 229 230 205
f 207 206 231
f 230 231 206
f 208 207 232
f 231 232 207
f 209 208 233
f 232 233 208
f 210 209 234
f 233 234 209
f 211 210 235
f 234 235 210
f 212 211 236
f 235 236 211
f 213 212 237
f 236 237 212
f 214 213 238
f 237 238 213
f 215 214 239
f 238 239 214
f 216 215 240
f 239 240 215
f 217 216 241
f 240 241 216
f 218 217 242
f 241 242 217
f 219 218 243
f 242 243 218
f 220 219 244
f 243 244 219
f 221 220 245
f 244 245 220
f 222 221 246
f 245 246 221
f 223 222 247
f 246 247 222
f 224 223 248
f 247 248 223
f 225 224 249
f 248 249 224
f 249 250 225
f 227 226 251
f 228 227 252
f 251 252 227
f 229 228 253
f 252 253 228
f 230 229 254
f 253 254 229
f 231 230 255
f 254 255 230
f 232 231 256
f 255 256 231
f 233 232 257
f 256 257 232
f 234 233 258
f 257 258 233
f 235 234 259
f 258 259 234
f 236 235 260
f 259 260 235
f 237 236 261
f 260 261 236
f 238 237 262
f 261 262 237
f 239 238 263
f 262 263 238
f 240 239 264
f 263 264 239
f 241 240 265
f 264 265 240
f 242 241 266
f 265 266 241
f 243 242 267
f 266 267 242
f 244 243 268
f 267 268 243
f 245 244 269
f 268 269 244
f 246 245 270
f 269 270 245
f 247 246 271
f 270 271 246
f 248 247 272
f 271 272 247
f 249 248 273
f 272 273 248
f 250 249 274
f 273 274 249
f 274 275 250
f 252 251 276
f 253 252 277
f 276 277 252
f 254 253 278
f 277 278 253
f 255 254 279
f 278 279 254
f 256 255 280
f 279 280 255
f 257 256 281
f 280 281 256
f 258 257 282
f 281 282 257
f 259 258 283
f 282 283 258
f 260 259 284
f 283 284 259
f 261 260 285
f 284 285 260
f 262 261 286
f 285 286 261
f 263 262 287
f 286 287 262
f 264 263 288
f 287 288 263
f 265 264 289
f 288 289 264
f 266 265 290
f 289 290 265
f 267 266 291
f 290 291 266
f 268 267 292
f 291 292 267
f 269 268 293
f 292 293 268
f 270 269 294
f 293 294 269
f 271 270 295
f 294 295 270
f 272 271 296
f 295 296 271
f 273 272 297
f 296 297 272
f 274 273 298
f 297 298 273
f 275 274 299
f 298 299 274
f 299 300 275
f 277 276 301
f 278 277 302
f 301 302 277
f 279 278 303
f 302 303 278
f 280 279 304
f 303 304 279
f 281 280 305
f 304 305 280
f 282 281 306
f 305 306 281
f 283 282 307
f 306 307 282
f 284 283 308
f 307 308 283
f 285 284 309
f 308 309 284
f 286 285 310
f 309 310 285
f 287 286 311
f 310 311 286
f 288 287 312
f 311 312 287
f 289 288 313
f 312 313 288
f 290 289 314
f 313 314 289
f 291 290 315
f 314 315 290
f 292 291 316
f 315 316 291
f 293 292 317
f 316 317 292
f 294 293 318
f 317 318 293
f 295 294 319
f 318 319 294
f 296 295 320
f 319 320 295
f 297 296 321
f 320 321 296
f 298 297 322
f 321 322 297
f 299 298 323
f 322 323 298
f 300 299 324
f 323 324 299
f 324 325 300
f 302 301 326
f 303 302 327
f 326 327 302
f 304 303 328
f 327 328 303
f 305 304 329
f 328 329 304
f 306 305 330
f 329 330 305
f 307 306 331
f 330 331 306
f 308 307 332
f 331 332 307
f 309 308 333
f 332 333 308
f 310 309 334
f 333 334 309
f 311 310 335
f 334 335 310
f 312 311 336
f 335 336 311
f 313 312 337
f 336 337 312
f 314 313 338
f 337 338 313
f 315 314 339
f 338 339 314
f 316 315 340
f 339 340 315
f 317 316 341
f 340 341 316
f 318 317 342
f 341 342 317
f 319 318 343
f 342 343 318
f 320 319 344
f 343 344 319
f 321 320 345
f 344 345 320
f 322 321 346
f 345 346 321
f 323 322 347
f 346 347 322
f 324 323 348
f 347 348 323
f 325 324 349
f 348 349 324
f 349 350 325
f 327 326 351
f 328 327 352
f 351 352 327
f 329 328 353
f 352 353 328
f 330 329 354
f 353 354 329
f 331 330 355
f 354 355 330
f 332 331 356
f 355 356 331
f 333 332 357
f 356 357 332
f 334 333 358
f 357 358 333
f 335 334 359
f 358 359 334
f 336 335 360
f 359 360 335
f 337 336 361
f 360 361 336
f 338 337 362
f 361 362 337
f 339 338 363
f 362 363 338
f 340 339 364
f 363 364 339
f 341 340 365
f 364 365 340
f 342 341 366
f 365 366 341
f 343 342 367
f 366 367 342
f 344 343 368
f 367 368 343
f 345 344 369
f 368 369 344
f 346 345 370
f 369 370 345
f 347 346 371
f 370 371 346
f 348 347 372
f 371 372 347
f 349 348 373
f 372 373 348
f 350 349 374
f 373 374 349
f 374 375 350
f 352 351 376
f 353 352 377
f 376 377 352
f 354 353 378
f 377 378 353
f 355 354 379
f 378 379 354
f 356 355 380
f 379 380 355
f 357 356 381
f 380 381 356
f 358 357 382
f 381 382 357
f 359 358 383
f 382 383 358
f 360 359 384
f 383 384 359
f 361 360 385
f 384 385 360
f 362 361 386
f 385 386 361
f 363 362 387
f 386 387 362
f 364 363 388
f 387 388 363
f 365 364 389
f 388 389 364
f 366 365 390
f 389 390 365
f 367 366 391
f 390 391 366
f 368 367 392
f 391 392 367
f 369 368 393
f 392 393 368
f 370 369 394
f 393 394 369
f 371 370 395
f 394 395 370
f 372 371 396
f 395 396 371
f 373 372 397
f 396 397 372
f 374 373 398
f 397 398 373
f 375 374 399
f 398 399 374
f 399 400 375
f 377 376 401
f 378 377 402
f 401 402 377
f 379 378 403
f 402 403 378
f 380 379 404
f 403 404 379
f 381 380 405
f 404 405 380
f 382 381 406
f 405 406 381
f 383 382 407
f 406 407 382
f 384 383 408
f 407 408 383
f 385 384 409
f 408 409 384
f 386 385 410
f 409 410 385
f 387 386 411
f 410 411 386
f 388 387 412
f 411 412 387
f 389 388 413
f 412 413 388
f 390 389 414
f 413 414 389
f 391 390 415
f 414 415 390
f 392 391 416
f 415 416 391
f 393 392 417
f 416 417 392
f 394 393 418
f 417 418 393
f 395 394 419
f 418 419 394
f 396 395 420
f 419 420 395
f 397 396 421
f 420 421 396
f 398 397 422
f 421 422 397
f 399 398 423
f 422 423 398
f 400 399 424
f 423 424 399
f 424 425 400
f 402 401 426
f 403 402 427
f 426 427 402
f 404 403 428
f 427 428 403
f 405 404 429
f 428 429 404
f 406 405 430
f 429 430 405
f 407 406 431
f 430 431 406
f 408 407 432
f 431 432 407
f 409 408 433
f 432 433 408
f 410 409 434
f 433 434 409
f 411 410 435
f 434 435 410
f 412 411 436
f 435 436 411
f 413 412 437
f 436 437 412
f 414 413 438
f 437 438 413
f 415 414 439
f 438 439 414
f 416 415 440
f 439 440 415
f 417 416 441
f 440 441 416
f 418 417 442
f 441 442 417
f 419 418 443
f 442 443 418
f 420 419 444
f 443 444 419
f 421 420 445
f 444 445 420
f 422 421 446
f 445 446 421
f 423 422 447
f 446 447 422
f 424 423 448
f 447 448 423
f 425 424 449
f 448 449 424
f 449 450 425
f 427 426 451
f 428 427 452
f 451 452 427
f 429 428 453
f 452 453 428
f 430 429 454
f 453 454 429
f 431 430 455
f 454 455 430
f 432 431 456
f 455 456 431
f 433 432 457
f 456 457 432
f 434 433 458
f 457 458 433
f 435 434 459
f 458 459 434
f 436 435 460
f 459 460 435
f 437 436 461
f 460 461 436
f 438 437 462
f 461 462 437
f 439 438 463
f 462 463 438
f 440 439 464
f 463 464 439
f 441 440 465
f 464 465 440
f 442 441 466
f 465 466 441
f 443 442 467
f 466 467 442
f 444 443 468
f 467 468 443
f 445 444 469
f 468 469 444
f 446 445 470
f 469 470 445
f 447 446 471
f 470 471 446
f 448 447 472
f 471 472 447
f 449 448 473
f 472 473 448
f 450 449 474
f 473 474 449
f 474 475 450
f 452 451 476
f 453 452 477
f 476 477 452
f 454 453 478
f 477 478 453
f 455 454 479
f 478 479 454
f 456 455 480
f 479 480 455
f 457 456 481
f 480 481 456
f 458 457 482
f 481 482 457
f 459 458 483
f 482 483 458
f 460 459 484
f 483 484 459
f 461 460 485
f 484 485 460
f 462 461 486
f 485 486 461
f 463 462 487
f 486 487 462
f 464 463 488
f 487 488 463
f 465 464 489
f 488 489 464
f 466 465 490
f 489 490 465
f 467 466 491
f 490 491 466
f 468 467 492
f 491 492 467
f 469 468 493
f 492 493 468
f 470 469 494
f 493 494 469
f 471 470 495
f 494 495 470
f 472 471 496
f 495 496 471
f 473 472 497
f 496 497 472
f 474 473 498
f 497 498 473
f 475 474 499
f 498 499 474
f 499 500 475
f 477 476 501
f 478 477 502
f 501 502 477
f 479 478 503
f 502 503 478
f 480 479 504
f 503 504 479
f 481 480 505
f 504 505 480
f 482 481 506
f 505 506 481
f 483 482 507
f 506 507 482
f 484 483 508
f 507 508 483
f 485 484 509
f 508 509 484
f 486 485 510
f 509 510 485
f 487 486 511
f 510 511 486
f 488 487 512
f 511 512 487
f 489 488 513
f 512 513 488
f 490 489 514
f 513 514 489
f 491 490 515
f 514 515 490
f 492 491 516
f 515 516 491
f 493 492 517
f 516 517 492
f 494 493 518
f 517 518 493
f 495 494 519
f 518 519 494
f 496 495 520
f 519 520 495
f 497 496 521
f 520 521 496
f 498 497 522
f 521 522 497
f 499 498 523
f 522 523 498
f 500 499 524
f 523 524 499
f 524 525 500
f 502 501 526
f 503 502 527
f 526 527 502
f 504 503 528
f 527 528 503
f 505 504 529
f 528 529 504
f 506 505 530
f 529 530 505
f 507 506 531
f 530 531 506
f 508 507 532
f 531 532 507
f 509 508 533
f 532 533 508
f 510 509 534
f 533 534 509
f 511 510 535
f 534 535 510
f 512 511 536
f 535 536 511
f 513 512 537
f 536 537 512
f 514 513 538
f 537 538 513
f 515 514 539
f 538 539 514
f 516 515 540
f 539 540 515
f 517 516 541
f 540 541 516
f 518 517 542
f 541 542 517
f 519 518 543
f 542 543 518
f 520 519 544
f 543 544 519
f 521 520 545
f 544 545 520
f 522 521 546
f 545 546 521
f 523 522 547
f 546 547 522
f 524 523 548
f 547 548 523
f 525 524 549
f 548 549 524
f 549 550 525
f 527 526 551
f 528 527 552
f 551 552 527
f 529 528 553
f 552 553 528
f 530 529 554
f 553 554 529
f 531 530 555
f 554 555 530
f 532 531 556
f 555 556 531
f 533 532 557
f 556 557 532
f 534 533 558
f 557 558 533
f 535 534 559
f 558 559 534
f 536 535 560
f 559 560 535
f 537 536 561
f 560 561 536
f 538 537 562
f 561 562 537
f 539 538 563
f 562 563 538
f 540 539 564
f 563 564 539
f 541 540 565
f 564 565 540
f 542 541 566
f 565 566 541
f 543 542 567
f 566 567 542
f 544 543 568
f 567 568 543
f 545 544 569
f 568 569 544
f 546 545 570
f 569 570 545
f 547 546 571
f 570 571 546
f 548 547 572
f 571 572 547
f 549 548 573
f 572 573 548
f 550 549 574
f 573 574 549
f 574 575 550
f 552 551 576
f 553 552 577
f 576 577 552
f 554 553 578
f 577 578 553
f 555 554 579
f 578 579 554
f 556 555 580
f 579 580 555
f 557 556 581
f 580 581 556
f 558 557 582
f 581 582 557
f 559 558 583
f 582 583 558
f 560 559 584
f 583 584 559
f 561 560 585
f 584 585 560
f 562 561 586
f 585 586 561
f 563 562 587
f 586 587 562
f 564 563 588
f 587 588 563
f 565 564 589
f 588 589 564
f 566 565 590
f 589 590 565
f 567 566 591
f 590 591 566
f 568 567 592
f 591 592 567
f 569 568 593
f 592 593 568
f 570 569 594
f 593 594 569
f 571 570 595
f 594 595 570
f 572 571 596
f 595 596 571
f 573 572 597
f 596 597 572
f 574 573 598
f 597 598 573
f 575 574 599
f 598 599 574
f 599 600 575
f 577 576 601
f 578 577 602
f 601 602 577
f 579 578 603
f 602 603 578
f 580 579 604
f 603 604 579
f 581 580 605
f 604 605 580
f 582 581 606
f 605 606 581
f 583 582 607
f 606 607 582
f 584 583 608
f 607 608 583
f 585 584 609
f 608 609 584
f 586 585 610
f 609 610 585
f 587 586 611
f 610 611 586
f 588 587 612
f 611 612 587
f 589 588 613
f 612 613 588
f 590 589 614
f 613 614 589
f 591 590 615
f 614 615 590
f 592 591 616
f 615 616 591
f 593 592 617
f 616 617 592
f 594 593 618
f 617 618 593
f 595 594 619
f 618 619 594
f 596 595 620
f 619 620 595
f 597 596 621
f 620 621 596
f 598 597 622
f 621 622 597
f 599 598 623
f 622 623 598
f 600 599 624
f 623 624 599
f 624 625 600
