# avbd fit, rung f60-i32-s300 of Gate 6d (body space, fit phase only)
v -0.004163247 0.672015667 0.036951683
v -0.111275032 0.693444490 0.073501714
v -0.003970769 0.686163902 0.039968476
v -0.000584146 0.938278973 0.080715001
v -0.159688160 0.679461181 0.063068651
v 0.002305625 0.952350259 0.087503716
v -0.003783261 0.714125514 0.045271728
v -0.003818549 0.700086713 0.043343343
v -0.160897583 0.695527792 0.064288236
v 0.140736535 0.952902794 -0.098833486
v -0.179965585 0.691850960 0.056295939
v -0.195099533 0.693981528 0.039298877
v -0.203060031 0.694977820 0.022693943
v -0.171826944 0.689363956 -0.074491300
v 0.012252269 0.661049247 -0.060950644
v -0.154058427 0.685490191 -0.081567273
v 0.027077083 0.660501420 -0.062931895
v -0.136895284 0.685480416 -0.089365527
v -0.120108999 0.688981295 -0.097935863
v 0.200833082 0.654953837 0.012641191
v -0.000760633 0.910473049 0.069345511
v -0.000897243 0.895872772 0.067668095
v -0.101869404 0.683840215 -0.098123066
v -0.087616377 0.689888597 -0.094326109
v 0.098315686 0.849276364 -0.139272869
v -0.072984599 0.698012352 -0.090807073
v -0.127901360 0.918874562 -0.126873940
v -0.132456869 0.847915530 0.061627187
v 0.041406378 0.744635224 -0.092233963
v -0.145300806 0.857764721 0.054765962
v 0.071010247 0.877495289 -0.149154395
v -0.180541068 0.839039981 0.037441056
v 0.088884488 0.819166958 -0.118924059
v -0.205967188 0.688978314 -0.031448238
v 0.074690320 0.810023308 -0.114180937
v -0.151768118 0.924059987 -0.101961598
v -0.169166610 0.923166275 -0.061622329
v 0.013578214 0.799769402 0.051750857
v -0.170444220 0.927763343 -0.042167071
v -0.074453264 0.915466964 -0.145253107
v -0.027558187 0.899838150 0.066878185
v 0.013970196 0.709315181 -0.079103917
v -0.017743723 0.881923974 0.065415449
v 0.063480787 0.748554170 -0.097725973
v -0.037955008 0.883543968 0.064635582
v -0.167980224 0.933687031 -0.023470271
v -0.166448876 0.919944584 -0.010210881
v 0.073491767 0.766264319 -0.102857411
v -0.158907577 0.923506916 0.007890048
v -0.043026410 0.690439820 0.047160152
v 0.055732340 0.858036160 0.060610645
v -0.064582199 0.691616416 0.054610066
v -0.077732272 0.766005278 0.065152444
v 0.057110138 0.823973536 0.059221208
v -0.085637294 0.691439748 0.063068792
v 0.103906557 0.831020653 -0.123860516
v -0.101220265 0.764381588 0.074530795
v -0.172516868 0.774556756 0.064467974
v 0.120349869 0.844019592 -0.125775337
v -0.199143797 0.773276448 0.033049811
v 0.084067039 0.751278996 -0.103951849
v 0.103957072 0.748168051 -0.109447204
v -0.189595670 0.848649859 0.019490682
v -0.182051897 0.865133643 0.016006147
v -0.209164694 0.770204902 -0.032661084
v -0.198564112 0.763586223 -0.056274027
v -0.187816009 0.773056388 -0.072838038
v 0.008707615 0.669976413 0.043766107
v 0.013456598 0.659437954 0.034887727
v -0.172922134 0.760733128 -0.088503145
v 0.028692156 0.659325242 0.037724841
v -0.116442993 0.767501414 -0.115257025
v 0.043462783 0.658837259 0.042544842
v -0.019188719 0.796083093 -0.102216020
v 0.057961762 0.658371627 0.048152946
v -0.093448296 0.918274522 -0.141531289
v 0.071915165 0.657861352 0.054862052
v -0.110264897 0.920010448 -0.134251595
v 0.086096048 0.657514095 0.060832132
v -0.119067743 0.906601906 -0.134642735
v 0.100195907 0.657177806 0.066574782
v -0.134334698 0.933158398 -0.115313843
v 0.114061251 0.656757236 0.072214648
v -0.165706292 0.894022822 -0.083812490
v 0.129574001 0.656422555 0.073738202
v 0.043883391 0.788316369 0.057962544
v -0.133654207 0.921248794 0.044774465
v -0.123062596 0.842976868 -0.122491442
v -0.161212951 0.722651362 0.066012546
v 0.141989186 0.656312585 0.068109252
v -0.141048297 0.851943314 -0.113549873
v -0.017921757 0.845175862 0.055542629
v 0.155235216 0.656773210 0.062283754
v -0.037623115 0.848040938 0.057340067
v 0.168591261 0.656653464 0.056767832
v -0.024109771 0.863695025 0.061461348
v 0.181829810 0.656272650 0.050972980
v -0.017587183 0.915503025 0.069161847
v 0.189172715 0.656147242 0.038317099
v -0.061400034 0.928764999 -0.140187889
v 0.195513740 0.655681610 0.025760695
v 0.027108040 0.796564698 -0.103170350
v -0.086440288 0.899932027 -0.147636041
v -0.110412262 0.730882883 0.075975135
v 0.037629113 0.770527244 0.055861883
v 0.057660818 0.810274243 -0.112657979
v -0.116853163 0.890046477 -0.136855096
v -0.143609732 0.719048560 0.072081126
v 0.129348144 0.808571637 -0.112895191
v -0.132455587 0.880379379 -0.129305854
v 0.134707555 0.855233967 -0.120326735
v 0.141071841 0.839205444 -0.110430360
v 0.143030196 0.820209146 -0.107000902
v -0.167270511 0.739282012 0.065528490
v -0.146782979 0.871289372 -0.117851436
v 0.200963974 0.654221177 -0.001355422
v 0.201033682 0.653354704 -0.014410628
v -0.198796779 0.731260419 0.036970492
v 0.149425626 0.856233418 -0.109013461
v -0.159779996 0.882792294 -0.101840876
v -0.173805743 0.882858276 -0.065861754
v -0.174958214 0.894041359 -0.051333886
v -0.055446871 0.868418515 -0.146967441
v 0.158338696 0.744144440 -0.092017643
v -0.157661349 0.882587254 0.033547994
v -0.172832921 0.880550683 0.015371241
v -0.113396183 0.873634517 0.053887755
v -0.123182610 0.888666987 0.048837461
v 0.200376511 0.652877152 -0.028563097
v -0.019957330 0.859684110 -0.138621017
v 0.192907616 0.652546227 -0.040729869
v -0.039123088 0.855677903 -0.140397936
v 0.185279757 0.651920557 -0.052739333
v -0.024057534 0.752546370 -0.091269508
v 0.176668122 0.651233077 -0.064182699
v -0.100403868 0.926651955 0.052345049
v 0.163907394 0.650921464 -0.071512952
v -0.082539588 0.921609998 0.060371645
v 0.150705785 0.650503516 -0.077235460
v -0.020934621 0.844138443 -0.131847262
v 0.137101501 0.649959683 -0.082125545
v 0.160842374 0.847407937 -0.097368531
v -0.022422077 0.829707503 -0.122030638
v 0.124330878 0.650112510 -0.086508557
v -0.041428924 0.839058101 -0.132703558
v -0.173418313 0.854014099 -0.087690130
v 0.110585704 0.650327325 -0.091081142
v -0.132513598 0.938729107 0.040216744
v 0.096227840 0.652245700 -0.086698733
v -0.028631190 0.775057971 -0.096862108
v 0.082870759 0.654294252 -0.081090599
v 0.145463258 0.803164780 -0.105703816
v 0.069140226 0.656073928 -0.076138631
v -0.103256598 0.807742238 -0.114594147
v 0.055363547 0.657776833 -0.071142785
v -0.062712364 0.735406637 -0.095404588
v 0.041510269 0.659430981 -0.066225618
v 0.046561193 0.888917327 0.064204469
v -0.183722332 0.825600743 -0.080483377
v -0.207113117 0.696362138 -0.011088080
v 0.159290880 0.828705132 -0.099943787
v -0.198525906 0.843717575 -0.034487590
v -0.205234408 0.812100112 -0.023537491
v 0.179149896 0.738221347 -0.079449281
v -0.206251293 0.800333679 -0.042124756
v -0.002719775 0.687421381 -0.070602320
v 0.016174015 0.676439285 -0.067584887
v -0.002833061 0.674194932 -0.065443993
v -0.002514246 0.700708151 -0.075636297
v 0.162679538 0.868537545 -0.095720515
v -0.196959019 0.803201020 -0.061258323
v -0.002355274 0.714267373 -0.079939693
v -0.002216383 0.727934241 -0.084049299
v -0.209344983 0.799639404 -0.003296206
v -0.001999005 0.741817236 -0.087626055
v 0.175144359 0.836865902 -0.091254368
v -0.174609467 0.797533274 -0.093216352
v -0.108729482 0.668897808 -0.096590176
v -0.199180588 0.808235347 0.022689547
v 0.189651042 0.754549503 -0.067257665
v -0.197432369 0.791112661 0.034124143
v -0.089472100 0.793786407 -0.110698223
v -0.075745128 0.781429052 -0.106119052
v 0.176616579 0.853404343 -0.081946924
v -0.043340333 0.824803054 -0.121065870
v -0.000026295 0.835349739 -0.124731824
v 0.000189271 0.847570896 -0.132262051
v -0.093713999 0.906507134 0.055650778
v 0.000428088 0.860786140 -0.137659386
v -0.111846589 0.901122272 0.049565945
v 0.185596198 0.832577348 -0.074622482
v -0.101247668 0.888105392 0.053888239
v 0.000585698 0.874633491 -0.141144231
v -0.114050150 0.916932762 0.045726515
v -0.153849944 0.797769070 0.068061359
v 0.000715953 0.888929665 -0.141455337
v -0.109404244 0.941298306 0.058404408
v 0.175916776 0.873204887 -0.069833033
v 0.177628994 0.672978520 0.055252939
v 0.000800134 0.903197289 -0.140019864
v -0.121380806 0.931727707 0.052820385
v 0.000856684 0.917346358 -0.137145728
v -0.139569715 0.892093956 0.038317647
v 0.196051717 0.827223003 -0.056467015
v -0.145080477 0.910430074 0.036440637
v -0.201260760 0.840602875 0.000899987
v 0.000913236 0.931234181 -0.132822007
v -0.145038337 0.943391144 0.028763508
v -0.142440006 0.926005721 0.024048610
v -0.156870782 0.940761447 0.013043647
v -0.134947553 0.790887535 0.073865257
v 0.030521140 0.950218320 0.085263297
v 0.015996579 0.950832665 0.086236745
v 0.177782357 0.887224972 -0.048622247
v -0.000640584 0.924658418 0.073792532
v -0.162553042 0.938085914 -0.006132863
v 0.188215643 0.865798593 -0.046445586
v -0.166731074 0.943958104 -0.036863331
v -0.164918289 0.940606773 -0.053708546
v -0.071324870 0.717039347 -0.093990304
v 0.045013238 0.950486064 0.082965419
v 0.183896378 0.877595782 -0.029601891
v 0.198616415 0.841978729 -0.037439428
v -0.162354976 0.938517749 -0.071188256
v -0.144634157 0.941517353 -0.102160290
v -0.116953358 0.935149968 -0.126273781
v -0.146737844 0.891583920 -0.115970217
v -0.101328328 0.719114423 -0.104912922
v 0.073873535 0.951134980 0.076835550
v 0.059493981 0.950832248 0.080172531
v -0.098358035 0.884897232 -0.144184083
v -0.001045400 0.881373107 0.065905631
v -0.104155861 0.902958512 -0.141536504
v 0.192769021 0.859112859 -0.024360454
v -0.119884551 0.710049272 -0.103699148
v 0.088086784 0.951192558 0.073279001
v -0.026134226 0.760286868 0.053310376
v -0.028691083 0.676059604 0.038919672
v 0.180432335 0.886887848 -0.014038488
v -0.182876006 0.878148079 -0.042332429
v -0.039244063 0.717711449 0.049664501
v 0.102240562 0.950884640 0.069622196
v 0.210790366 0.761321425 0.001093344
v -0.052658670 0.674763083 0.046858784
v 0.210241035 0.760490358 -0.017722735
v 0.187967435 0.871790767 -0.008859054
v 0.200144485 0.841039002 -0.012307216
v -0.055816263 0.728650987 0.055306308
v -0.076139793 0.674833834 0.057749014
v -0.098738715 0.676326156 0.067006275
v -0.093063906 0.721704364 0.068460748
v 0.184998378 0.862892747 0.014407243
v -0.095039174 0.705976665 0.068049714
v 0.195256874 0.856852412 -0.004122016
v -0.047518529 0.867107093 0.060927372
v 0.087714106 0.884761631 0.057495642
v -0.111128882 0.713392377 0.074952975
v 0.069688395 0.822380841 -0.121360764
v -0.120516717 0.675086081 0.075712785
v -0.199772775 0.732135832 -0.050397195
v -0.128967553 0.724346995 0.078085266
v -0.139517009 0.689964473 0.072513275
v 0.062414717 0.832175076 -0.131292790
v 0.150245264 0.904244781 0.022325590
v -0.131125197 0.706671953 0.076511748
v -0.205400541 0.718457818 -0.040314488
v -0.143217638 0.672744155 0.069022261
v 0.197225839 0.844211578 0.011703147
v 0.193701282 0.829546154 0.022563899
v -0.126647979 0.904858768 0.039776817
v -0.150798559 0.706899583 0.068744048
v -0.175233260 0.673514545 0.055788733
v 0.170782521 0.876137912 0.022150273
v 0.172472566 0.858838677 0.034019731
v -0.182177305 0.726436198 0.058862649
v -0.172207624 0.709341168 0.060705565
v 0.172070056 0.842405319 0.047563661
v -0.189866602 0.676682770 0.044164818
v 0.141744256 0.910406947 0.041398235
v -0.191845864 0.710869372 0.048826050
v 0.206287831 0.757284939 0.022527624
v -0.046139736 0.950624764 0.083145760
v -0.201197296 0.711320937 0.029457096
v -0.021032562 0.934349537 0.074960135
v 0.160314262 0.872160912 0.039193615
v -0.154094055 0.898636043 0.030009517
v 0.196987480 0.752377152 0.042343263
v -0.150584236 0.909187198 0.016938711
v -0.207829505 0.705347419 0.009123972
v 0.169298097 0.826161861 0.058954697
v -0.160848483 0.893675208 0.014698580
v 0.023600450 0.873129070 -0.141667038
v 0.024573030 0.892508507 -0.142497793
v 0.145635143 0.868996978 0.050750475
v -0.023514725 0.930615246 -0.135007799
v 0.158052728 0.856592059 0.052663825
v -0.209010914 0.723988295 0.014319356
v -0.018220978 0.912435830 -0.139459804
v 0.023702672 0.785565197 0.054841526
v -0.017904608 0.698542476 -0.075309224
v -0.038424619 0.918017983 -0.141718507
v 0.128037483 0.875419140 0.050579756
v -0.043183580 0.934711576 -0.137016445
v -0.164615214 0.906910717 0.002880653
v 0.149151415 0.838165402 0.061949104
v -0.175119326 0.892090440 0.000657287
v 0.134286910 0.822568059 0.069685265
v -0.174565703 0.896943390 -0.033451971
v -0.181016594 0.885648847 -0.019115763
v 0.134853333 0.857449234 0.057752658
v -0.170866624 0.901981175 -0.015017480
v 0.113957956 0.829120278 0.072226360
v -0.204371527 0.676667631 -0.016349677
v -0.208624631 0.714760423 -0.006168687
v 0.102654792 0.748409629 0.074630544
v 0.124785282 0.748243868 0.079865173
v 0.101731896 0.788359940 -0.111951910
v 0.083125390 0.933285415 0.061706543
v -0.020711968 0.716564655 0.046262018
v 0.115425982 0.951644897 0.064516246
v -0.174003169 0.910862744 -0.047536936
v 0.132224008 0.764742434 0.077154785
v 0.108792603 0.865525544 0.058572996
v -0.208873913 0.722277164 -0.021273850
v -0.173760056 0.904197216 -0.067598999
v 0.126955047 0.953219533 0.057791691
v -0.157671690 0.904276073 -0.101864196
v 0.124605194 0.843251705 0.065600678
v -0.062239103 0.821290970 -0.120291196
v 0.091126740 0.765376449 0.071010053
v -0.199630499 0.672295868 -0.037212975
v 0.093094513 0.829314113 0.072425708
v -0.207902044 0.706527770 -0.026023487
v -0.192543030 0.714065373 -0.056288760
v -0.188826710 0.668400705 -0.052118015
v 0.071411051 0.761051297 0.063820325
v 0.102402769 0.847343564 0.069057353
v -0.064341441 0.795373499 -0.107175373
v 0.083436035 0.841805160 0.067313395
v -0.193717584 0.684342623 -0.048864160
v -0.185573116 0.727210224 -0.068663925
v 0.057385124 0.773826361 0.060353629
v -0.078202404 0.810242474 -0.114587054
v -0.179316640 0.674796104 -0.065840974
v 0.019820329 0.838409901 -0.128116161
v 0.081889421 0.861231923 0.062092692
v 0.064375103 0.877342880 0.061364196
v -0.180037141 0.708504081 -0.072027467
v 0.134785727 0.954911411 0.045233276
v 0.020217154 0.736201227 -0.087309368
v 0.021489920 0.721608996 -0.083565138
v -0.161248356 0.671133399 -0.076124981
v 0.145812765 0.953489006 0.035910603
v -0.125264198 0.809237182 -0.115000233
v 0.153516263 0.954200268 0.023562646
v -0.151195019 0.714173913 -0.089953311
v 0.045782477 0.901218295 -0.145411789
v -0.163352042 0.703218699 -0.081616990
v 0.159545332 0.955157936 0.010323150
v 0.033960022 0.761269450 -0.094626747
v 0.037177939 0.779134870 -0.098795004
v -0.138726443 0.796109915 -0.108836040
v 0.163572922 0.955860734 -0.003666621
v -0.142868012 0.813367844 -0.107589856
v -0.100140378 0.934712112 -0.132791445
v -0.039049990 0.920601547 0.067999229
v 0.165285438 0.956128001 -0.018136490
v -0.142868489 0.668827713 -0.083750531
v -0.157585651 0.805297077 -0.100919470
v -0.148086578 0.698382199 -0.087745830
v -0.143058747 0.912015259 -0.115287319
v 0.164548382 0.956035018 -0.031784993
v -0.173159242 0.815776050 -0.094400704
v 0.033718459 0.708264172 -0.081210509
v -0.125771895 0.670269370 -0.091362655
v -0.186357275 0.808953643 -0.077953562
v 0.161528632 0.955273032 -0.045919545
v -0.133709416 0.899321079 -0.128235489
v 0.157991678 0.954541504 -0.059834927
v -0.193546057 0.824538589 -0.062528044
v -0.134575114 0.703352630 -0.095222600
v 0.183293432 0.787094235 0.059690814
v 0.154044703 0.954234898 -0.073546477
v -0.203006744 0.814573288 -0.047196280
v 0.048030086 0.795657039 -0.104883946
v -0.092081398 0.671608090 -0.090930760
v -0.019525327 0.681551337 -0.069224760
v 0.147570610 0.953192413 -0.086352699
v -0.200971812 0.829016864 -0.040037539
v 0.184771806 0.844265163 0.029480869
v -0.020715725 0.744684279 0.050332196
v 0.130049825 0.951632321 -0.108373091
v 0.183206648 0.823104680 0.040252440
v -0.065890066 0.819310665 0.061145596
v -0.102660999 0.700317085 -0.101660572
v -0.073791534 0.677495837 -0.085272327
v 0.053876292 0.710551322 -0.086509936
v -0.086860873 0.708821356 -0.097807474
v -0.056910776 0.692327857 -0.082775988
v -0.054526441 0.675012708 -0.076621845
v 0.074812807 0.734318316 -0.098909967
v 0.060113329 0.780665517 -0.102520369
v -0.186161846 0.802834630 0.046761084
v 0.044882990 0.838951290 0.057927322
v 0.037288073 0.821043849 0.054636240
v -0.183442801 0.820859611 0.040942803
v 0.031712167 0.802946210 0.053696752
v -0.026300067 0.813078582 -0.111039445
v 0.097778156 0.767759740 -0.109830223
v -0.169057131 0.832182288 0.056896966
v -0.055583276 0.721499860 -0.089560077
v -0.060242891 0.707411051 -0.088202521
v 0.105701759 0.724984884 -0.107098602
v -0.166555807 0.812681019 0.061927218
v -0.037174523 0.692497730 -0.076012492
v 0.119639076 0.951129794 -0.116507970
v 0.123558663 0.741773665 -0.108559027
v -0.044578411 0.709576130 -0.083495677
v -0.146433562 0.824114203 0.065596715
v -0.039936636 0.733538628 -0.088860370
v 0.106931791 0.950049698 -0.122960031
v -0.026220720 0.714103818 -0.081294611
v 0.114640608 0.703996003 -0.104065254
v -0.205842182 0.687909901 0.005473525
v -0.198798046 0.677749455 0.025516000
v 0.139191598 0.738506138 -0.100409470
v -0.139014512 0.807780862 0.070493802
v -0.122468472 0.817924678 0.073383048
v 0.119882837 0.777963996 -0.115131393
v -0.069494084 0.870254993 0.060725670
v -0.060574345 0.951406181 0.080218554
v -0.113703571 0.798436582 0.078526989
v 0.139538199 0.772456706 -0.106053986
v -0.099137813 0.813478649 0.075171717
v -0.081075773 0.855763316 0.063631557
v 0.174324304 0.778023779 -0.090383016
v -0.087533526 0.797202587 0.070323884
v 0.112610698 0.887928367 -0.138518274
v -0.072030529 0.837641358 0.063545018
v -0.093528584 0.843563855 0.071069375
v 0.187584251 0.772684872 -0.072627999
v -0.086610898 0.826586604 0.068678617
v 0.185512707 0.724031329 -0.067492396
v 0.193311244 0.737045586 -0.059670787
v -0.081375919 0.811422467 0.066466980
v -0.066247500 0.800636411 0.062060893
v -0.108020976 0.830756068 0.072657235
v -0.026253670 0.811792552 0.052256308
v -0.114658937 0.846138000 0.066428073
v -0.103061840 0.859207928 0.062741213
v 0.199204832 0.770190358 -0.054929875
v 0.209763840 0.746481359 -0.029880736
v -0.058968812 0.851453602 0.060454857
v -0.128790483 0.833917022 0.067168511
v -0.042963617 0.747191429 0.054217108
v -0.124616720 0.860715568 0.058356214
v 0.202591419 0.751274168 -0.049788136
v -0.138380438 0.875096202 0.049327765
v 0.210280031 0.744758070 -0.010130695
v -0.165509582 0.849967003 0.049892653
v 0.209744334 0.781206787 -0.014769731
v -0.148818761 0.841063619 0.060578503
v -0.059220172 0.886170864 0.062002849
v -0.159863040 0.866559505 0.044041537
v 0.208228663 0.711173892 -0.005900807
v -0.061984845 0.919860184 0.064344421
v -0.000462906 0.811176598 -0.108790711
v -0.057976086 0.936552346 0.069479018
v -0.169486463 0.870076060 0.028622368
v -0.194345534 0.829188168 0.021358998
v -0.040894795 0.939052939 0.074357875
v -0.000240205 0.823493600 -0.116470672
v -0.089131489 0.952587903 0.072831221
v -0.205362886 0.820360065 0.000222722
v 0.077801324 0.860523999 -0.146137267
v 0.115135893 0.924610615 -0.130441234
v -0.186138213 0.876824260 -0.000806798
v -0.074917279 0.952097118 0.076767281
v 0.210643172 0.778743565 0.011357351
v 0.092704944 0.948947787 -0.126741499
v -0.171930984 0.915277183 -0.028409053
v 0.202227324 0.792341411 0.025824592
v -0.201662377 0.831988156 -0.018490385
v -0.196938306 0.851436615 -0.018213091
v -0.188843697 0.868440986 -0.020659661
v 0.078040019 0.948184371 -0.129375398
v 0.204414770 0.825197339 0.004098878
v 0.063046187 0.947686195 -0.130888805
v -0.081104077 0.888028324 0.059881143
v -0.014727807 0.893422961 -0.141936228
v 0.193074852 0.784333766 0.042789128
v 0.047936808 0.947087109 -0.131202370
v 0.057879973 0.934643865 -0.137565821
v 0.205672100 0.704656959 0.019508678
v -0.075618461 0.937348545 0.065356508
v -0.018885953 0.876597106 -0.142291516
v -0.194518521 0.844507396 -0.055096913
v -0.163460344 0.917873204 -0.083069921
v -0.091138497 0.872387767 0.058466502
v 0.032337889 0.946424782 -0.130371168
v -0.184391871 0.842143357 -0.073696867
v 0.016719602 0.945447624 -0.128287464
v -0.156163841 0.843252361 -0.101575769
v 0.188702792 0.711038053 0.054342069
v -0.173427030 0.835240722 -0.093679771
v 0.016749680 0.934552014 -0.132378861
v 0.000938223 0.944156349 -0.125902325
v 0.189483896 0.767867923 0.052960049
v 0.181411996 0.746979475 0.061807800
v 0.082550168 0.831624508 -0.132605821
v 0.016083512 0.929598212 0.073485591
v -0.157944009 0.862722874 -0.101186454
v -0.156684861 0.824378848 -0.101717129
v -0.155245617 0.938402355 -0.087638721
v 0.068026304 0.845158100 -0.142706349
v 0.167370126 0.765875697 0.066433504
v -0.136903226 0.831073761 -0.111025706
v -0.045875911 0.659644485 -0.068114229
v -0.106624112 0.834451497 -0.127866223
v -0.059354972 0.658274889 -0.073167972
v -0.072804689 0.656876862 -0.078199096
v -0.115580760 0.824749172 -0.118338682
v 0.146135867 0.754206419 0.072936483
v 0.160373941 0.740324080 0.068592981
v -0.086162366 0.655370474 -0.083247393
v 0.152858332 0.718669891 0.069052398
v -0.112990476 0.871758640 -0.138799742
v 0.035730459 0.924288571 0.069231555
v 0.022399418 0.912220478 0.068359271
v -0.099134244 0.653527558 -0.088857569
v 0.147958696 0.775832891 0.072562709
v -0.106055833 0.851662993 -0.137782842
v 0.129687697 0.780119836 0.076897964
v 0.138260484 0.733151972 0.075707003
v -0.113443375 0.652275741 -0.091115624
v -0.001314371 0.853530288 0.058340032
v -0.001453389 0.839874864 0.054223280
v -0.088797688 0.834473312 -0.135386437
v -0.126673251 0.652380347 -0.086708926
v -0.076055720 0.881227374 -0.148794800
v -0.095074810 0.822945416 -0.121521488
v -0.139246419 0.652398229 -0.082498804
v -0.152361840 0.653168023 -0.077373371
v -0.165326640 0.653677464 -0.071832821
v -0.048011232 0.829634070 0.057081960
v -0.024525637 0.829655647 0.053930186
v 0.085185893 0.750276923 0.067706801
v 0.088657781 0.733725250 0.068020314
v -0.177461624 0.654228687 -0.064203002
v -0.186032042 0.655110717 -0.053118479
v -0.027640760 0.777348638 0.054444827
v 0.070486918 0.742956102 0.061936297
v 0.051242553 0.754194856 0.057879776
v -0.193548188 0.655919909 -0.041475467
v -0.072956398 0.862783134 -0.147302076
v 0.077026531 0.778289676 0.066093750
v -0.200857326 0.656428576 -0.029748151
v -0.051521380 0.767205238 0.058095355
v 0.029897710 0.753186047 0.053784698
v -0.031341985 0.731379867 0.050224036
v -0.092803568 0.866299629 -0.145358652
v 0.027016263 0.715119600 0.048401140
v -0.064885870 0.748938739 0.059958108
v 0.069118246 0.809219480 0.062956356
v -0.031513102 0.703917265 0.046756830
v -0.053044099 0.707099915 0.052496988
v -0.053682365 0.887474239 -0.147209316
v -0.068978556 0.898155987 -0.148938447
v -0.070592523 0.783115566 0.063777722
v -0.054260951 0.907921135 -0.146625578
v 0.090897523 0.891614556 -0.146766394
v -0.201610371 0.657036126 -0.015941262
v 0.081830844 0.795552015 0.068440482
v -0.074234486 0.711415529 0.060260199
v -0.094173305 0.780947566 0.072333932
v 0.097242907 0.871969402 -0.144341528
v -0.076962635 0.732657135 0.062814392
v -0.086502887 0.750359893 0.067741230
v -0.071427070 0.903996825 0.062301151
v 0.072233640 0.715345025 -0.093630806
v -0.049252257 0.902619362 0.065257996
v 0.099290453 0.800312042 0.075841114
v -0.094923384 0.736907601 0.070197679
v 0.134184718 0.886714101 -0.127752006
v -0.201571777 0.657577872 -0.003058818
v -0.026665101 0.794420600 0.053553928
v 0.091458984 0.706561744 -0.098541476
v -0.197253138 0.659128964 0.023090381
v -0.128177866 0.760390878 0.078142747
v 0.087139435 0.723034203 -0.100302733
v -0.191045731 0.659575701 0.035433758
v -0.108275831 0.748041630 0.076267540
v 0.116272986 0.790689290 0.079101019
v 0.119621381 0.809410393 0.075992867
v 0.124706373 0.905571342 -0.132225260
v -0.185024023 0.659545600 0.048005909
v -0.117760517 0.778934836 0.079763077
v -0.172674686 0.659578860 0.054970820
v -0.129360393 0.741906524 0.078216746
v -0.159612507 0.659548461 0.060408406
v -0.146489486 0.658903599 0.065960146
v -0.137225315 0.775807500 0.075048573
v -0.148998544 0.749916971 0.071689196
v -0.134284705 0.658762753 0.071530163
v 0.138347805 0.798287272 0.072538435
v -0.152460501 0.766292870 0.070530213
v -0.119215414 0.658566058 0.073863730
v -0.105658390 0.658703625 0.068393022
v 0.132489994 0.698341668 -0.094439372
v -0.154559836 0.782736123 0.069701023
v 0.176590711 0.808188260 0.058928616
v 0.133464694 0.712201893 -0.097715244
v 0.150401980 0.936124146 -0.099395871
v -0.091875114 0.658658147 0.062816188
v -0.146827802 0.733640969 0.072301909
v -0.077933505 0.658573747 0.057172220
v 0.125170499 0.937913239 -0.120910808
v -0.064027742 0.658577085 0.051109679
v -0.050473493 0.658752561 0.044182707
v 0.189510211 0.802483082 0.041765619
v 0.142392278 0.903636932 -0.118597589
v -0.036448848 0.658935189 0.038340967
v -0.021849331 0.658705294 0.034692355
v -0.172262549 0.793434322 0.063646860
v -0.018175669 0.669544995 0.043514591
v -0.170750916 0.756787419 0.064671114
v 0.148012474 0.708025694 -0.089777052
v 0.153088614 0.886911511 -0.109740317
v 0.198039204 0.811866641 0.023328839
v -0.188755319 0.783432603 0.050371833
v -0.190696239 0.745083690 0.055122010
v -0.190450221 0.764884591 0.051846784
v -0.040868457 0.794326901 -0.103494503
v 0.164021164 0.703758776 -0.080863371
v 0.203642771 0.821595550 -0.016771670
v 0.146044567 0.919897437 -0.109388396
v 0.014222180 0.825029075 -0.117910601
v -0.051255316 0.809647381 -0.111722037
v 0.068380177 0.796298802 -0.107833840
v -0.048354816 0.787878931 0.057990432
v 0.208896160 0.802170634 0.000628609
v -0.200612620 0.753569484 0.034584653
v -0.207832605 0.785988271 0.016227359
v -0.174966499 0.855716527 0.032961398
v 0.181694552 0.706900775 -0.068901017
v -0.210104078 0.744067371 0.015191449
v 0.116775796 0.933553100 0.051887732
v 0.206979677 0.802385807 -0.025209621
v -0.210351303 0.765023232 0.013973093
v -0.210468337 0.776928902 -0.007675416
v -0.208604291 0.789807796 -0.025711313
v 0.191329524 0.698741496 -0.054219492
v 0.207673401 0.786349177 -0.039887100
v -0.210006446 0.733988822 -0.005943707
v -0.194400176 0.859766781 -0.000458388
v 0.156738371 0.904041946 -0.102748632
v -0.031537868 0.950401306 0.085023828
v 0.202356145 0.805816770 -0.050459873
v 0.190018922 0.809662342 -0.071463570
v -0.080856189 0.848913550 -0.143457085
v -0.058188725 0.850301862 -0.142901257
v 0.194687903 0.717475891 -0.053497959
v -0.210602805 0.754747868 -0.012413925
v 0.200810194 0.689391434 -0.039837971
v 0.196684971 0.789037049 -0.060740799
v -0.014855683 0.945560634 -0.128082141
v -0.030487617 0.946731925 -0.130156487
v 0.165600479 0.889059663 -0.087817468
v 0.017386122 0.816777050 0.051883597
v -0.046017878 0.947644234 -0.131075114
v -0.047306113 0.807445407 0.056250881
v 0.186595768 0.789733469 -0.077686526
v 0.175913453 0.798986435 -0.092056304
v -0.061246194 0.948237538 -0.130832881
v 0.165217787 0.909358382 -0.084373675
v -0.209356382 0.736647904 -0.028579373
v -0.076262549 0.948899269 -0.129364058
v -0.082426473 0.932710826 -0.137942836
v -0.191520110 0.859625518 -0.040115390
v -0.090704992 0.949814141 -0.126820475
v -0.104703784 0.951149344 -0.123256467
v 0.156637996 0.787489712 -0.099986978
v -0.200905398 0.783391476 -0.053797297
v -0.182947353 0.862663627 -0.064583376
v -0.168334976 0.872854352 -0.083464935
v -0.208298236 0.750766873 -0.042810731
v 0.172290951 0.897707760 -0.067502454
v 0.161631718 0.939996898 -0.071301363
v -0.199401304 0.701284647 -0.044771738
v 0.050582767 0.806176007 0.057575475
v 0.135932416 0.789836586 -0.109167457
v -0.063864745 0.833997726 -0.133663863
v -0.188400164 0.790741026 -0.075405873
v 0.166689709 0.935719669 -0.055530898
v -0.077497281 0.824619591 -0.125188902
v -0.186289862 0.695465386 -0.060796022
v 0.118906043 0.795113981 -0.116269909
v -0.193147033 0.744675756 -0.062236972
v -0.175151974 0.740824521 -0.083722264
v 0.169531077 0.934381187 -0.038397022
v -0.185816020 0.756602168 -0.073008850
v -0.174303874 0.779016554 -0.091178387
v 0.174531803 0.897627831 -0.028916646
v -0.169150755 0.721335173 -0.082574673
v -0.019188382 0.731525600 -0.085626528
v 0.082223490 0.783036590 -0.107033655
v -0.117265955 0.952365220 -0.117075458
v -0.127975300 0.953154862 -0.108877882
v -0.156261817 0.787135124 -0.100647137
v -0.155226141 0.768812358 -0.098370701
v -0.155368641 0.750262380 -0.094971590
v -0.154316872 0.731851697 -0.092143945
v -0.128347114 0.860445142 -0.128439128
v 0.065375514 0.841802955 0.062615290
v 0.207196310 0.709779084 -0.034766473
v -0.145922974 0.954889297 -0.087106779
v -0.152515963 0.955734074 -0.074474216
v 0.209071085 0.727920890 -0.021659117
v -0.002891668 0.660950661 -0.060387403
v -0.157963321 0.956650853 -0.061282445
v 0.171591699 0.900968432 -0.007063330
v -0.161649913 0.957279503 -0.047440983
v -0.164460734 0.957839608 -0.033297759
v -0.166184649 0.958140552 -0.019814089
v 0.202750161 0.820143878 -0.037157401
v 0.166730434 0.939083278 -0.023331450
v -0.164100051 0.958007932 -0.005409393
v -0.160776511 0.957444847 0.008793475
v -0.156355038 0.956420541 0.022918843
v 0.050266065 0.823884368 -0.121500172
v -0.148265243 0.955255210 0.035086166
v 0.163448378 0.934625268 -0.007980881
v -0.138420761 0.954971135 0.045862161
v -0.136146903 0.721745133 -0.099006101
v 0.163718566 0.894292057 0.011379346
v 0.017324001 0.767182112 -0.094355799
v -0.001710764 0.755766094 -0.091184124
v -0.001448235 0.769961715 -0.094293967
v 0.138023391 0.936354756 -0.110493168
v -0.136973441 0.740166306 -0.102164686
v -0.001015994 0.784241796 -0.097721301
v -0.136518702 0.777726531 -0.108468845
v 0.015744152 0.783153653 -0.098099187
v -0.000706790 0.798076987 -0.102425657
v -0.127938449 0.954391956 0.056065418
v 0.160771281 0.809806049 -0.099106684
v 0.156459600 0.935482800 0.008327306
v -0.119940102 0.729121387 -0.108545206
v -0.116617978 0.953242600 0.063428394
v -0.103254043 0.952785611 0.068795182
v 0.143688768 0.923157811 0.022959614
v 0.046452299 0.882448494 -0.145999268
v -0.136726111 0.758824944 -0.105364323
v -0.114435852 0.789133370 -0.115892865
v 0.148895055 0.941141903 0.022510111
v -0.118804693 0.747999430 -0.112172112
v 0.157407209 0.887210488 0.028740197
v -0.099096894 0.738066137 -0.107488789
v -0.002216656 0.797771633 0.051396865
v -0.092487589 0.939489365 0.060933549
v 0.132426292 0.940771401 0.049146343
v 0.135158315 0.925721765 0.045884214
v 0.136859149 0.939508736 0.033987410
v -0.083445467 0.727994800 -0.100673690
v -0.096635416 0.756778479 -0.108627975
v -0.078035355 0.746483624 -0.102086030
v 0.047415365 0.723182797 0.053625457
v -0.095493644 0.775569022 -0.110240661
v 0.049157228 0.918955624 -0.142418951
v -0.074518964 0.764822006 -0.103273690
v 0.026173715 0.910198092 -0.140435308
v -0.037503600 0.874114335 -0.144883767
v -0.034648664 0.896233261 -0.144198641
v 0.208512098 0.723169029 0.015943704
v 0.193046182 0.731749892 0.048859827
v -0.050551027 0.755495191 -0.095925532
v -0.054550804 0.777206063 -0.101086594
v -0.138690561 0.954664409 -0.099364229
v 0.148226112 0.896494985 0.038745325
v 0.130077451 0.893613458 0.042478688
v -0.203581721 0.672107637 0.004348935
v 0.167237252 0.703908861 0.062616318
v 0.173883647 0.725305080 0.062269680
v -0.203185126 0.658740938 0.010557270
v 0.118538007 0.911549687 0.044683658
v -0.035580061 0.674368143 -0.069467843
v -0.032033049 0.660667777 -0.063963071
v 0.014423577 0.698121190 0.043818399
v -0.017735988 0.661245644 -0.061083704
v -0.005448091 0.945608258 0.093693420
v 0.064992592 0.911652267 -0.146484166
v -0.017089833 0.949965477 0.086963423
v -0.022678893 0.690858245 0.042953104
v 0.131818622 0.712756336 0.076809391
v 0.031375729 0.939181805 0.076130964
v 0.084596053 0.676258504 0.061731540
v 0.073105976 0.688534617 0.058162712
v 0.105137125 0.686663687 0.071039952
v 0.049403798 0.861132979 -0.143542394
v 0.126962274 0.692084193 0.077833459
v 0.055420101 0.690678298 0.051675849
v 0.201174691 0.686221480 0.023831993
v 0.111799978 0.887337685 0.050892007
v 0.100895390 0.902828813 0.053286057
v 0.158505991 0.915125370 0.003407727
v 0.108646415 0.705742836 0.073976308
v 0.169899017 0.918084025 -0.021392729
v 0.173628896 0.912716210 -0.046721924
v 0.048186041 0.937287807 0.072201729
v 0.090086028 0.715304971 0.067299761
v 0.111187600 0.727726817 0.076666862
v 0.169164672 0.920330167 -0.068416521
v 0.159595042 0.929419219 -0.084311143
v 0.089391932 0.696546435 0.065529183
v 0.156812832 0.919775486 -0.096500494
v 0.187492579 0.680461526 -0.055667289
v 0.171442553 0.686712921 -0.073411658
v 0.069059193 0.723222375 0.059804149
v 0.146067649 0.687113881 -0.085182205
v 0.132625639 0.921184242 -0.121817313
v 0.071494468 0.704720199 0.058985472
v 0.110683635 0.768021822 0.079139151
v 0.147184312 0.697071671 0.070167251
v 0.181882188 0.690883219 0.055921726
v 0.195837408 0.697887778 0.039037846
v 0.209080055 0.766854584 -0.035356116
v 0.157847226 0.765759408 -0.096053764
v 0.050758608 0.707476079 0.052616470
v 0.140559763 0.754672229 -0.102409184
v 0.206839755 0.694545388 -0.017862558
v 0.206248313 0.691720545 0.003525328
v 0.036761649 0.736377418 0.052267581
v 0.011668710 0.753392756 0.051765513
v 0.084992439 0.909307599 0.059898399
v 0.064861156 0.936276257 0.068172641
v 0.017349230 0.769481480 0.053014021
v 0.033345915 0.854007423 0.058656491
v 0.021515092 0.835457623 0.054390900
v 0.021451527 0.692983925 -0.074459329
v 0.054019064 0.920896709 0.065924384
v 0.038914591 0.725567222 -0.087175645
v 0.030563941 0.897627354 0.066616073
v 0.043502592 0.907252669 0.066744283
v 0.014133560 0.896835148 0.067283116
v 0.036078122 0.677276194 -0.071443483
v 0.057277400 0.729926050 -0.092470139
v 0.075760730 0.826286018 0.064792261
v 0.199682057 0.771684527 0.032561272
v 0.188985378 0.849803448 -0.061762847
v 0.058799993 0.675250590 -0.078183994
v 0.175921962 0.758031964 -0.085978240
v 0.123593606 0.826504409 -0.115219511
v 0.122150883 0.759936810 -0.112239502
v 0.082401656 0.672332644 -0.086837448
v 0.052355327 0.763829589 -0.097968481
v 0.038942240 0.811029077 -0.111185253
v 0.120886862 0.684325576 -0.096006669
v 0.104858860 0.669047236 -0.095186993
v 0.097040579 0.928584754 -0.136081070
v 0.070548475 0.919762611 0.063017353
v 0.065299883 0.899716198 0.062901482
v 0.129751250 0.667888165 -0.088925563
v 0.025369387 0.882972360 0.065349832
v 0.041141257 0.871096969 0.062946759
v 0.076410666 0.928599656 -0.139939636
v 0.153010219 0.668405592 -0.078811869
v 0.178446025 0.818795681 -0.089683354
v 0.024207126 0.854077697 -0.136652753
v 0.174688503 0.718735695 -0.078688480
v 0.174150079 0.667831242 -0.069417246
v 0.018513573 0.751462936 -0.091000572
v 0.186292648 0.664502501 -0.054092646
v 0.031768147 0.825933754 -0.120128155
v 0.197470278 0.669849515 -0.039137714
v 0.204812333 0.679603219 -0.025231253
v 0.063158520 0.791750491 0.062519677
v 0.105123326 0.908466995 -0.139915273
v 0.084861636 0.911616325 -0.145505637
v 0.019477727 0.811405778 -0.109682396
v 0.204304412 0.677125335 -0.007661186
v 0.126762867 0.724736512 -0.103942670
v 0.209667772 0.729500771 -0.002481518
v 0.199136570 0.717587233 0.034834132
v 0.161104530 0.724000812 -0.086599469
v 0.144882530 0.725017488 -0.094933257
v 0.191160887 0.676878929 0.041586056
v 0.145428672 0.882945418 0.044247262
v 0.179062083 0.883265853 0.005261842
v 0.204693392 0.731071830 -0.042972907
v 0.046848379 0.692831635 -0.079537198
v 0.161432564 0.680400670 0.062925518
v 0.086406529 0.812573731 0.069493152
v 0.210609511 0.742363870 0.009952432
v 0.202762172 0.737269521 0.029812854
v 0.091397509 0.736696362 -0.104640469
v 0.141222954 0.675274074 0.070554450
v 0.120713368 0.866226196 -0.135116979
v -0.001949063 0.811801255 0.050739486
v -0.003282673 0.741986096 0.049108930
v 0.055210285 0.736342311 0.056702446
v 0.119199947 0.673523188 0.075670950
v 0.144385487 0.871364594 -0.119556889
v -0.002727371 0.783767939 0.052795976
v -0.001679071 0.825828910 0.052265733
v 0.101661816 0.670223773 0.068227828
v 0.019314317 0.867316723 0.063098006
v -0.001216170 0.866858006 0.063931435
v 0.100043036 0.921780586 0.052763600
v 0.063927256 0.674503028 0.053141296
v 0.100488804 0.939043224 0.060215425
v 0.203475565 0.672883570 0.009595741
v 0.101497732 0.816325009 0.076866001
v 0.035074838 0.929105759 -0.137257472
v 0.042883512 0.675599992 0.044966213
v 0.067106165 0.895061016 -0.148625731
v 0.019869741 0.679222465 0.039158318
v 0.034997843 0.694285631 0.046438687
v 0.042867444 0.840347946 -0.133883461
v 0.014045363 0.852257133 0.058024295
v 0.016187228 0.733987212 0.048606616
v -0.003507459 0.728103399 0.047022991
v -0.002935238 0.769775808 0.052109927
v 0.202871963 0.666118622 -0.019762287
v -0.003075495 0.755785346 0.051568471
v 0.071656689 0.693544447 -0.088850588
v 0.088305518 0.801120877 -0.111813828
v 0.107521214 0.811251640 -0.114511684
v 0.154014230 0.813484490 0.065807320
v 0.095990732 0.782674253 0.073718384
v 0.160739094 0.792129874 0.067511328
v 0.096563980 0.687732100 -0.096590199
v 0.197474405 0.669383883 0.025939483
f 555 540 123
f 389 162 497
f 567 540 568
f 583 104 251
f 463 489 430
f 453 94 255
f 483 484 162
f 446 640 671
f 574 577 251
f 50 244 238
f 52 244 50
f 575 57 53
f 55 249 52
f 55 2 250
f 577 248 563
f 575 437 432
f 57 597 589
f 2 265 262
f 589 592 57
f 262 259 2
f 5 267 262
f 602 606 589
f 5 9 11
f 58 606 610
f 11 272 5
f 12 278 11
f 565 793 8
f 630 60 632
f 13 425 12
f 424 289 160
f 289 424 13
f 643 649 60
f 181 403 179
f 483 206 484
f 163 651 174
f 53 563 558
f 651 65 650
f 163 389 384
f 683 66 65
f 455 558 563
f 165 384 171
f 340 331 34
f 67 66 683
f 206 470 63
f 385 102 856
f 67 702 70
f 344 340 696
f 179 403 406
f 710 70 702
f 16 352 14
f 111 112 59
f 63 64 655
f 18 368 16
f 710 742 753
f 119 112 111
f 394 671 545
f 551 922 903
f 19 375 18
f 753 740 711
f 406 470 179
f 261 615 108
f 545 453 439
f 178 386 530
f 24 386 23
f 72 753 742
f 26 396 24
f 768 765 72
f 119 142 112
f 32 63 470
f 112 142 161
f 399 400 396
f 154 343 182
f 545 671 448
f 399 415 400
f 768 770 765
f 32 406 410
f 418 415 399
f 770 183 777
f 387 300 166
f 415 418 422
f 105 86 299
f 169 42 839
f 170 142 119
f 173 172 705
f 329 638 343
f 134 738 737
f 185 638 329
f 692 661 145
f 150 74 741
f 637 345 873
f 132 145 661
f 170 184 142
f 138 495 760
f 138 136 188
f 136 194 188
f 201 87 194
f 270 87 205
f 216 49 210
f 46 216 724
f 198 184 170
f 43 96 907
f 219 39 218
f 45 43 41
f 224 37 219
f 498 224 514
f 86 105 342
f 225 36 514
f 378 107 110
f 80 233 107
f 22 41 43
f 198 217 849
f 41 581 45
f 103 233 76
f 76 40 103
f 222 217 214
f 678 100 40
f 98 41 22
f 366 41 98
f 40 76 678
f 215 4 284
f 215 98 21
f 537 536 92
f 222 234 217
f 904 537 92
f 460 462 30
f 284 471 366
f 222 239 246
f 586 903 759
f 462 28 30
f 246 234 222
f 454 449 28
f 237 391 924
f 560 319 921
f 246 888 252
f 431 471 282
f 455 560 391
f 319 560 241
f 50 238 793
f 50 566 52
f 52 574 55
f 258 263 510
f 244 52 249
f 55 253 2
f 284 792 657
f 303 670 667
f 303 100 674
f 250 249 55
f 273 274 252
f 251 253 574
f 100 303 301
f 301 570 100
f 104 261 257
f 677 100 678
f 273 285 274
f 257 2 253
f 2 257 265
f 250 2 259
f 570 568 40
f 752 292 293
f 294 296 285
f 285 296 274
f 684 497 679
f 277 274 296
f 440 447 442
f 579 489 463
f 692 329 695
f 259 262 267
f 871 736 360
f 262 271 9
f 40 100 570
f 570 567 568
f 203 128 270
f 310 296 294
f 305 296 310
f 87 270 194
f 9 5 262
f 5 272 600
f 276 9 271
f 9 276 11
f 272 11 278
f 302 323 310
f 568 103 40
f 108 615 89
f 280 11 276
f 11 280 12
f 103 568 540
f 278 12 425
f 323 337 328
f 283 12 280
f 12 283 13
f 283 297 289
f 289 13 283
f 540 561 231
f 425 13 424
f 209 288 205
f 291 125 286
f 346 337 323
f 49 304 288
f 173 350 351
f 297 654 314
f 347 158 864
f 304 47 311
f 47 304 49
f 47 46 481
f 360 361 855
f 501 684 146
f 481 311 47
f 46 39 481
f 343 695 329
f 314 289 297
f 289 314 160
f 481 321 308
f 481 39 321
f 325 122 321
f 325 321 37
f 37 321 39
f 333 160 314
f 324 266 333
f 527 107 231
f 84 121 325
f 36 327 498
f 160 333 34
f 327 120 84
f 36 82 371
f 277 393 390
f 689 34 333
f 34 689 340
f 313 34 331
f 266 334 689
f 334 260 341
f 340 335 331
f 107 527 110
f 54 404 405
f 696 14 344
f 61 401 44
f 38 299 407
f 358 14 348
f 14 358 16
f 344 14 352
f 356 704 712
f 352 16 368
f 413 62 417
f 370 16 358
f 16 370 18
f 175 705 134
f 713 115 110
f 371 27 378
f 27 371 82
f 381 18 370
f 18 381 19
f 368 18 375
f 80 378 27
f 19 381 235
f 19 395 23
f 19 23 178
f 202 506 913
f 23 395 24
f 386 24 396
f 398 24 395
f 24 398 26
f 26 398 220
f 26 412 399
f 396 26 399
f 418 399 412
f 164 180 444
f 444 443 164
f 175 173 705
f 685 84 120
f 422 300 415
f 685 121 84
f 172 169 300
f 172 300 422
f 78 80 27
f 226 365 78
f 89 615 114
f 240 485 309
f 134 737 175
f 226 27 82
f 245 459 452
f 187 186 140
f 243 459 245
f 189 187 130
f 581 466 579
f 467 472 637
f 308 122 240
f 138 579 466
f 430 255 463
f 499 435 430
f 453 430 435
f 435 440 439
f 435 499 450
f 243 479 281
f 308 321 122
f 897 438 584
f 439 453 435
f 243 281 893
f 450 440 435
f 480 859 865
f 440 449 447
f 442 439 440
f 450 449 440
f 447 449 454
f 492 488 493
f 127 458 456
f 449 456 28
f 82 225 708
f 454 28 462
f 28 456 30
f 456 450 127
f 30 456 458
f 225 82 36
f 30 464 460
f 506 507 502
f 126 469 125
f 287 508 509
f 207 507 506
f 410 460 32
f 126 306 477
f 460 464 644
f 644 32 460
f 32 644 63
f 475 31 576
f 470 406 32
f 64 63 644
f 306 309 477
f 125 464 458
f 528 795 511
f 516 523 524
f 655 206 63
f 206 655 484
f 206 474 470
f 162 679 497
f 316 322 822
f 313 160 34
f 37 498 325
f 523 316 534
f 497 684 501
f 501 146 505
f 146 512 503
f 505 503 513
f 263 515 510
f 512 120 115
f 503 512 91
f 517 513 503
f 115 713 91
f 458 203 125
f 315 547 548
f 91 512 115
f 547 330 336
f 91 713 88
f 517 88 522
f 552 548 547
f 532 88 713
f 88 532 519
f 552 336 553
f 522 519 541
f 527 231 561
f 127 128 458
f 538 660 692
f 514 36 498
f 224 498 37
f 538 692 695
f 114 626 631
f 553 342 105
f 219 37 39
f 555 660 561
f 127 450 499
f 891 199 824
f 660 555 661
f 218 39 46
f 199 97 886
f 366 98 284
f 22 21 98
f 41 366 581
f 43 232 22
f 907 232 43
f 96 536 907
f 45 463 255
f 45 581 463
f 255 94 96
f 255 96 45
f 94 453 545
f 448 546 545
f 582 593 594
f 595 584 438
f 216 46 47
f 216 47 49
f 551 640 558
f 558 640 569
f 49 288 209
f 793 565 50
f 569 53 558
f 566 50 565
f 209 210 49
f 841 351 350
f 574 52 566
f 578 53 57
f 612 609 423
f 53 578 563
f 575 53 569
f 597 432 211
f 253 55 574
f 57 575 597
f 578 57 592
f 592 583 578
f 627 609 612
f 584 621 628
f 603 589 606
f 602 589 597
f 634 819 627
f 610 606 602
f 835 318 229
f 626 606 58
f 610 624 58
f 58 624 630
f 632 58 630
f 634 884 869
f 58 632 626
f 60 642 632
f 642 60 649
f 60 630 181
f 650 649 643
f 662 652 645
f 656 628 621
f 621 636 656
f 658 659 204
f 64 644 469
f 466 495 138
f 694 377 700
f 468 471 431
f 663 650 65
f 628 656 668
f 679 162 484
f 65 686 663
f 672 673 659
f 686 65 66
f 683 65 651
f 468 431 478
f 683 693 67
f 685 146 684
f 146 685 512
f 696 340 689
f 66 67 701
f 473 495 478
f 66 698 686
f 702 67 693
f 668 675 687
f 701 698 66
f 405 690 54
f 701 67 70
f 54 690 564
f 14 696 348
f 711 70 710
f 699 70 711
f 702 709 710
f 229 318 236
f 657 282 471
f 710 709 742
f 753 756 740
f 756 753 72
f 742 754 72
f 72 754 768
f 72 765 756
f 766 765 770
f 490 193 496
f 130 772 496
f 770 776 766
f 15 719 168
f 87 201 148
f 183 770 768
f 201 194 136
f 422 705 172
f 633 777 338
f 777 633 150
f 408 74 633
f 638 185 408
f 106 730 258
f 688 379 694
f 275 631 118
f 185 692 145
f 197 750 749
f 736 737 738
f 263 258 730
f 738 741 743
f 185 145 143
f 743 741 744
f 744 741 74
f 744 467 879
f 132 140 145
f 123 132 661
f 741 738 150
f 123 540 567
f 773 772 567
f 738 134 150
f 78 27 226
f 238 623 1
f 264 279 779
f 776 150 134
f 134 705 420
f 695 541 538
f 104 599 261
f 365 681 680
f 761 762 763
f 365 678 76
f 76 78 365
f 411 156 420
f 156 411 220
f 541 519 538
f 220 764 156
f 76 233 78
f 80 78 233
f 168 789 387
f 70 699 701
f 398 395 228
f 434 437 445
f 779 780 887
f 428 432 434
f 926 317 706
f 197 749 745
f 213 6 4
f 279 785 780
f 419 427 428
f 148 201 745
f 454 462 419
f 526 782 783
f 381 734 235
f 410 414 419
f 493 769 913
f 511 4 215
f 4 511 213
f 406 414 410
f 208 731 729
f 21 511 215
f 210 728 727
f 794 800 823
f 511 21 529
f 470 474 179
f 724 218 46
f 227 110 115
f 118 280 275
f 219 218 722
f 806 800 794
f 803 804 256
f 716 778 225
f 224 219 720
f 407 86 690
f 356 734 381
f 389 497 380
f 809 795 528
f 810 806 811
f 717 716 514
f 497 501 380
f 317 697 429
f 810 818 821
f 913 771 202
f 341 698 699
f 373 376 159
f 369 177 373
f 341 260 698
f 260 334 266
f 365 226 681
f 517 522 354
f 828 821 818
f 354 362 364
f 569 640 446
f 519 522 88
f 767 828 818
f 266 324 676
f 602 597 211
f 804 834 256
f 121 240 122
f 345 868 918
f 610 602 211
f 169 839 166
f 427 195 211
f 643 179 174
f 683 651 165
f 693 683 171
f 627 884 634
f 324 654 676
f 846 397 841
f 841 397 374
f 362 709 369
f 580 397 846
f 192 188 190
f 192 499 489
f 128 192 190
f 270 205 203
f 205 288 286
f 291 306 126
f 208 148 733
f 288 304 291
f 304 311 306
f 311 481 308
f 286 125 203
f 283 118 297
f 589 599 592
f 283 280 118
f 227 115 120
f 747 805 732
f 707 226 82
f 107 378 80
f 275 114 631
f 118 646 297
f 89 114 275
f 231 233 103
f 87 209 205
f 816 872 870
f 271 108 89
f 248 560 455
f 248 241 560
f 108 271 265
f 566 565 241
f 86 876 690
f 622 244 619
f 517 91 88
f 574 566 248
f 715 662 889
f 244 249 618
f 249 250 614
f 882 465 718
f 253 251 257
f 774 465 882
f 250 259 608
f 883 494 774
f 921 391 560
f 259 267 604
f 54 564 847
f 251 577 583
f 600 267 5
f 89 276 271
f 503 91 517
f 690 405 407
f 275 276 89
f 892 573 582
f 272 278 596
f 248 577 574
f 280 276 275
f 425 588 591
f 425 424 781
f 781 313 572
f 424 313 781
f 572 585 781
f 314 654 324
f 136 197 201
f 313 557 572
f 237 551 558
f 554 331 335
f 334 341 348
f 760 136 138
f 335 344 549
f 341 699 704
f 348 696 334
f 921 319 7
f 358 348 704
f 344 352 544
f 912 582 594
f 903 586 551
f 352 368 543
f 381 370 356
f 368 375 539
f 788 8 3
f 535 375 178
f 221 795 809
f 828 767 562
f 559 833 920
f 921 920 899
f 546 448 898
f 903 922 836
f 38 903 299
f 235 228 395
f 405 669 407
f 546 92 94
f 400 518 520
f 92 546 904
f 639 35 926
f 386 396 525
f 927 926 33
f 928 605 930
f 200 490 298
f 94 545 546
f 96 92 536
f 927 56 852
f 143 472 408
f 220 412 26
f 400 520 521
f 412 220 411
f 109 113 152
f 920 832 559
f 418 412 411
f 152 113 746
f 387 789 786
f 420 418 411
f 746 161 867
f 418 420 422
f 490 773 298
f 496 772 773
f 394 442 445
f 562 767 832
f 739 636 820
f 204 725 658
f 773 490 496
f 725 223 635
f 447 454 428
f 472 186 637
f 215 284 98
f 189 130 496
f 458 464 30
f 410 462 460
f 125 469 464
f 635 247 487
f 487 269 629
f 641 487 629
f 268 269 487
f 269 393 629
f 390 269 268
f 469 126 64
f 349 761 763
f 655 64 477
f 303 674 670
f 290 393 277
f 611 290 928
f 163 474 483
f 928 307 605
f 635 641 648
f 531 605 533
f 677 674 100
f 477 309 485
f 506 202 207
f 679 485 240
f 240 121 684
f 312 912 594
f 684 679 240
f 121 685 684
f 186 187 345
f 503 505 146
f 912 332 892
f 772 130 132
f 685 120 512
f 501 505 159
f 725 648 658
f 505 513 373
f 513 517 364
f 892 847 564
f 110 527 713
f 714 847 339
f 522 541 154
f 51 714 346
f 231 103 540
f 714 51 404
f 541 695 343
f 567 772 123
f 502 500 506
f 578 577 563
f 867 659 673
f 577 578 583
f 597 575 432
f 592 104 583
f 913 492 493
f 845 167 839
f 599 104 592
f 386 178 23
f 599 603 615
f 110 227 378
f 615 261 599
f 706 402 639
f 603 626 114
f 132 123 772
f 624 610 195
f 409 706 317
f 746 673 682
f 114 615 603
f 120 327 227
f 624 414 403
f 691 429 697
f 642 631 632
f 642 118 631
f 429 433 853
f 646 118 642
f 642 649 646
f 152 682 691
f 682 433 691
f 181 643 60
f 654 297 646
f 122 325 121
f 140 130 187
f 421 416 617
f 123 661 555
f 309 308 240
f 698 260 686
f 702 693 177
f 698 701 699
f 672 441 436
f 291 126 125
f 109 691 697
f 143 140 186
f 874 872 816
f 665 441 672
f 188 192 489
f 665 658 653
f 712 704 699
f 653 451 665
f 927 697 317
f 712 740 734
f 648 461 653
f 178 375 19
f 923 880 116
f 641 461 648
f 740 756 748
f 748 758 228
f 926 706 639
f 479 641 482
f 754 742 362
f 354 754 362
f 407 669 38
f 203 458 128
f 482 629 620
f 756 765 758
f 182 754 154
f 128 127 192
f 254 246 252
f 611 382 620
f 764 398 228
f 499 192 127
f 764 766 156
f 766 776 156
f 930 611 928
f 420 156 776
f 140 132 130
f 788 7 8
f 387 166 168
f 420 776 134
f 136 760 197
f 300 387 415
f 750 197 760
f 745 201 197
f 148 208 209
f 733 148 745
f 258 35 106
f 593 533 605
f 731 208 733
f 236 318 910
f 729 210 208
f 728 210 729
f 727 216 210
f 188 489 579
f 929 573 556
f 724 216 727
f 573 929 582
f 723 218 724
f 722 218 723
f 720 219 722
f 717 224 720
f 514 224 717
f 188 579 138
f 876 556 573
f 707 681 226
f 898 904 546
f 472 143 186
f 212 795 221
f 899 391 921
f 854 925 931
f 213 795 212
f 140 143 145
f 404 54 714
f 833 922 924
f 415 387 786
f 143 408 185
f 238 3 793
f 1 3 238
f 31 799 752
f 622 238 244
f 918 799 515
f 380 376 171
f 915 752 357
f 617 476 421
f 619 244 618
f 618 249 616
f 616 249 614
f 636 739 613
f 388 613 10
f 614 250 608
f 357 791 915
f 383 688 388
f 608 259 607
f 571 438 576
f 295 667 666
f 92 96 94
f 607 259 604
f 372 726 700
f 667 295 303
f 367 726 372
f 604 267 601
f 298 295 207
f 923 875 880
f 363 732 367
f 408 467 74
f 148 209 87
f 298 301 295
f 359 747 363
f 601 267 600
f 359 355 755
f 600 272 598
f 598 272 596
f 353 755 355
f 301 298 773
f 596 278 591
f 747 755 751
f 591 278 425
f 588 425 781
f 388 688 813
f 769 771 913
f 763 353 349
f 202 771 200
f 506 500 913
f 74 467 744
f 773 570 301
f 82 708 707
f 320 647 326
f 500 492 913
f 331 554 557
f 242 910 320
f 344 335 340
f 910 908 647
f 554 335 550
f 239 222 703
f 549 550 335
f 549 344 544
f 166 167 168
f 544 352 543
f 543 368 542
f 17 15 167
f 17 845 157
f 907 536 919
f 157 850 155
f 155 850 153
f 542 368 539
f 150 633 74
f 153 854 151
f 151 854 149
f 149 858 147
f 147 862 144
f 539 375 535
f 759 903 38
f 530 535 178
f 144 862 141
f 141 866 139
f 139 866 137
f 530 386 525
f 137 870 135
f 525 396 521
f 135 870 872
f 133 872 131
f 131 874 129
f 129 923 117
f 923 874 875
f 170 119 902
f 521 396 400
f 20 932 101
f 99 101 932
f 99 886 97
f 95 97 199
f 95 891 93
f 93 896 90
f 518 400 786
f 90 896 85
f 85 901 83
f 83 905 81
f 169 166 300
f 81 905 79
f 77 79 796
f 77 909 75
f 439 394 545
f 75 914 73
f 73 914 71
f 71 916 69
f 442 394 439
f 468 466 366
f 442 447 434
f 7 562 920
f 794 534 811
f 924 899 833
f 434 447 428
f 428 454 419
f 419 462 410
f 38 898 759
f 902 111 897
f 466 468 495
f 526 524 534
f 25 59 56
f 96 43 45
f 895 401 61
f 182 343 338
f 483 389 163
f 483 162 389
f 897 59 25
f 883 894 775
f 776 777 150
f 59 897 111
f 380 384 389
f 774 882 893
f 111 902 119
f 778 708 225
f 501 159 380
f 167 166 839
f 159 505 373
f 176 191 867
f 373 513 369
f 364 369 513
f 850 890 925
f 354 364 517
f 354 522 154
f 177 369 709
f 154 541 343
f 446 445 437
f 376 380 159
f 204 223 725
f 217 198 214
f 214 703 222
f 437 569 446
f 610 211 195
f 414 624 195
f 403 630 624
f 889 718 715
f 160 313 424
f 181 630 403
f 888 246 239
f 179 643 181
f 174 650 643
f 651 650 174
f 163 384 165
f 487 247 268
f 165 651 163
f 171 683 165
f 174 474 163
f 557 313 331
f 475 515 799
f 376 693 171
f 285 273 757
f 177 693 376
f 627 885 884
f 174 179 474
f 509 508 516
f 294 302 310
f 709 702 177
f 709 362 742
f 154 754 354
f 182 338 183
f 780 785 803
f 183 768 182
f 423 413 881
f 183 338 777
f 638 338 343
f 633 638 408
f 590 401 895
f 692 185 329
f 190 188 194
f 515 475 25
f 270 190 194
f 190 270 128
f 195 427 414
f 7 788 562
f 915 878 571
f 877 595 438
f 203 205 286
f 44 48 61
f 474 206 483
f 210 209 208
f 61 62 895
f 413 895 62
f 211 432 427
f 172 42 169
f 398 764 220
f 515 263 918
f 437 575 569
f 228 758 764
f 124 885 426
f 175 871 350
f 84 498 327
f 225 514 716
f 327 371 227
f 918 263 730
f 898 448 759
f 371 327 36
f 839 374 890
f 227 371 378
f 451 441 665
f 228 235 748
f 444 180 457
f 233 231 107
f 187 868 345
f 759 448 586
f 189 292 868
f 734 748 235
f 653 461 826
f 924 922 237
f 292 193 196
f 446 671 394
f 461 641 479
f 922 551 237
f 391 237 455
f 482 641 629
f 918 868 799
f 196 200 293
f 771 293 200
f 558 455 237
f 281 287 894
f 894 893 281
f 248 566 241
f 257 251 104
f 255 430 453
f 257 261 265
f 509 775 287
f 260 266 676
f 509 516 524
f 265 261 108
f 523 516 531
f 322 316 523
f 273 252 888
f 265 271 262
f 811 534 316
f 316 315 811
f 676 686 260
f 366 466 581
f 478 495 468
f 330 547 315
f 547 336 552
f 366 471 468
f 760 495 473
f 657 471 284
f 336 342 553
f 553 900 552
f 832 900 553
f 865 878 791
f 792 284 4
f 31 571 576
f 286 288 291
f 438 571 877
f 906 864 863
f 4 790 792
f 8 7 319
f 303 295 301
f 291 304 306
f 570 773 567
f 739 617 392
f 617 416 392
f 306 311 309
f 309 311 308
f 170 628 668
f 613 739 10
f 739 392 10
f 656 675 668
f 656 815 675
f 680 678 365
f 813 613 388
f 324 333 314
f 687 198 668
f 379 688 383
f 295 666 207
f 815 656 636
f 377 694 379
f 325 498 84
f 689 333 266
f 334 696 689
f 700 377 372
f 861 834 860
f 703 721 239
f 732 726 367
f 834 861 256
f 348 341 704
f 747 732 363
f 356 358 704
f 735 888 721
f 370 358 356
f 735 264 757
f 735 273 888
f 755 747 359
f 369 364 362
f 353 763 755
f 647 761 326
f 761 349 326
f 376 373 177
f 779 757 264
f 780 779 279
f 384 380 171
f 235 395 19
f 736 871 737
f 562 788 917
f 910 647 320
f 785 804 803
f 414 406 403
f 256 323 803
f 813 675 815
f 415 786 400
f 427 419 414
f 422 420 705
f 432 428 427
f 430 489 499
f 587 580 590
f 437 434 432
f 445 442 434
f 446 394 445
f 671 586 448
f 819 609 627
f 456 449 450
f 455 563 248
f 865 791 769
f 581 579 463
f 645 652 817
f 644 464 469
f 652 662 715
f 874 923 129
f 715 664 652
f 694 812 688
f 477 64 126
f 750 760 473
f 485 655 477
f 465 715 718
f 507 207 666
f 465 774 494
f 865 486 480
f 812 675 813
f 485 484 655
f 207 202 298
f 883 504 825
f 493 865 769
f 783 782 504
f 679 484 485
f 202 200 298
f 196 490 200
f 196 193 490
f 877 859 476
f 302 803 323
f 189 496 193
f 814 806 810
f 168 719 789
f 821 814 810
f 391 899 924
f 713 527 532
f 467 408 472
f 302 294 887
f 786 787 518
f 538 519 532
f 561 532 527
f 926 35 33
f 538 532 660
f 540 555 561
f 551 586 640
f 319 241 565
f 660 532 561
f 113 161 746
f 161 176 867
f 8 319 565
f 223 247 635
f 781 585 784
f 620 629 393
f 887 780 302
f 269 390 393
f 671 640 586
f 781 784 588
f 599 589 603
f 393 290 611
f 626 603 606
f 928 290 305
f 623 238 622
f 625 1 623
f 774 893 894
f 312 332 912
f 626 632 631
f 332 339 847
f 847 892 332
f 757 887 285
f 847 714 54
f 793 3 8
f 732 807 726
f 858 931 857
f 675 812 687
f 168 167 15
f 273 735 757
f 920 921 7
f 402 385 639
f 167 845 17
f 638 633 338
f 646 649 663
f 650 663 649
f 845 850 157
f 888 239 721
f 663 654 646
f 706 409 48
f 850 854 153
f 676 654 663
f 429 409 317
f 661 692 660
f 854 858 149
f 676 663 686
f 858 862 147
f 433 429 691
f 678 680 677
f 699 711 712
f 712 734 356
f 711 710 753
f 862 866 141
f 712 711 740
f 682 436 827
f 734 740 748
f 866 870 137
f 214 687 808
f 748 756 758
f 664 816 652
f 872 133 135
f 198 687 214
f 754 182 768
f 872 874 131
f 665 659 658
f 758 765 766
f 658 648 653
f 766 764 758
f 776 770 777
f 668 198 170
f 117 923 116
f 787 786 789
f 929 330 822
f 533 822 322
f 556 336 330
f 531 322 523
f 899 920 833
f 662 444 889
f 346 323 256
f 491 482 620
f 116 880 911
f 911 20 116
f 382 491 620
f 911 932 20
f 932 886 99
f 645 443 662
f 930 382 611
f 382 930 516
f 886 824 199
f 605 531 930
f 491 508 848
f 628 170 902
f 256 347 346
f 482 848 479
f 891 896 93
f 347 256 861
f 820 617 739
f 866 819 817
f 605 594 593
f 896 901 85
f 929 593 582
f 612 881 885
f 901 905 83
f 826 451 653
f 451 457 180
f 672 659 665
f 441 180 851
f 79 905 796
f 436 673 672
f 436 851 827
f 909 914 75
f 682 673 436
f 914 916 71
f 584 902 897
f 876 86 342
f 69 916 1
f 829 433 827
f 700 808 694
f 788 3 916
f 853 829 417
f 409 61 48
f 402 48 855
f 870 817 816
f 855 29 360
f 874 816 664
f 385 361 102
f 830 880 875
f 576 897 25
f 819 634 817
f 68 69 1
f 106 856 730
f 743 736 738
f 910 242 236
f 862 857 819
f 744 879 102
f 880 830 831
f 840 528 843
f 401 846 44
f 803 302 780
f 769 791 357
f 878 915 791
f 831 911 880
f 918 873 345
f 576 25 475
f 799 31 475
f 841 29 846
f 879 856 102
f 106 639 385
f 573 564 876
f 911 831 802
f 342 556 876
f 337 339 332
f 25 510 515
f 350 29 841
f 564 573 892
f 892 582 912
f 510 25 56
f 864 906 837
f 312 328 337
f 929 822 593
f 33 35 258
f 871 360 29
f 840 860 835
f 864 158 863
f 29 855 44
f 916 914 917
f 808 687 812
f 594 307 312
f 307 305 328
f 916 917 788
f 33 56 927
f 840 835 809
f 307 594 605
f 736 743 361
f 531 516 930
f 290 277 305
f 852 109 927
f 318 835 860
f 21 844 529
f 852 59 112
f 620 393 611
f 102 743 744
f 112 113 852
f 751 763 762
f 647 785 762
f 805 747 751
f 252 268 254
f 230 835 229
f 487 641 635
f 637 879 467
f 124 851 164
f 809 230 221
f 161 142 176
f 807 732 805
f 247 234 254
f 230 809 835
f 808 700 807
f 345 637 186
f 176 184 191
f 812 694 808
f 204 849 223
f 849 204 191
f 813 688 812
f 635 648 725
f 849 184 198
f 815 613 813
f 815 636 613
f 217 223 849
f 659 191 204
f 217 234 223
f 191 184 849
f 859 480 421
f 795 213 511
f 245 461 243
f 878 865 859
f 802 886 932
f 191 659 867
f 452 718 889
f 223 234 247
f 176 142 184
f 246 254 234
f 865 493 486
f 293 771 357
f 268 247 254
f 771 769 357
f 805 264 735
f 268 252 390
f 161 113 112
f 486 493 488
f 390 252 274
f 867 673 746
f 264 751 279
f 274 277 390
f 746 682 152
f 281 848 287
f 827 433 682
f 808 703 214
f 152 691 109
f 109 852 113
f 476 859 421
f 296 305 277
f 476 595 877
f 305 307 928
f 196 293 292
f 595 476 820
f 726 807 700
f 752 293 357
f 307 328 312
f 310 328 305
f 56 59 852
f 292 752 799
f 328 310 323
f 886 825 824
f 312 337 332
f 807 703 808
f 891 824 782
f 193 292 189
f 844 21 22
f 429 853 409
f 109 697 927
f 56 33 510
f 105 559 553
f 339 337 346
f 346 714 339
f 51 346 347
f 317 926 927
f 564 690 876
f 863 844 232
f 799 868 292
f 510 33 258
f 843 528 529
f 844 863 842
f 861 840 843
f 861 158 347
f 861 860 840
f 752 915 31
f 158 843 842
f 843 158 861
f 842 529 844
f 919 837 906
f 906 232 907
f 809 528 840
f 730 873 918
f 730 856 873
f 873 856 879
f 856 106 385
f 817 634 645
f 837 919 838
f 817 652 816
f 919 906 907
f 919 536 537
f 743 102 361
f 904 669 838
f 898 669 904
f 669 898 38
f 703 807 721
f 405 404 838
f 669 405 838
f 922 833 836
f 294 285 887
f 361 385 402
f 869 645 634
f 830 875 664
f 916 3 1
f 864 51 347
f 402 855 361
f 909 801 914
f 397 890 374
f 48 44 855
f 796 909 77
f 879 637 873
f 901 798 905
f 580 925 397
f 48 402 706
f 896 800 901
f 891 823 896
f 409 62 61
f 853 62 409
f 881 413 417
f 417 62 853
f 86 407 299
f 459 893 882
f 199 891 95
f 830 465 831
f 829 426 417
f 426 829 124
f 426 881 417
f 124 829 827
f 433 829 853
f 886 802 825
f 774 894 883
f 851 124 827
f 164 884 124
f 441 851 436
f 180 164 851
f 443 869 164
f 911 802 932
f 715 830 664
f 874 664 875
f 736 361 360
f 451 180 441
f 457 452 889
f 889 444 457
f 866 817 870
f 106 35 639
f 459 718 452
f 826 452 457
f 452 826 245
f 451 826 457
f 862 819 866
f 858 857 862
f 461 245 826
f 459 882 718
f 479 243 461
f 854 931 858
f 850 925 854
f 846 401 580
f 845 890 850
f 491 848 482
f 848 281 479
f 825 494 883
f 382 508 491
f 900 832 767
f 508 287 848
f 896 823 800
f 839 890 845
f 504 782 824
f 42 374 839
f 516 508 382
f 908 910 318
f 534 524 523
f 552 818 548
f 42 172 173
f 901 800 798
f 818 552 900
f 533 322 531
f 871 175 737
f 868 187 189
f 22 232 844
f 593 822 533
f 822 315 316
f 929 556 330
f 330 315 822
f 838 919 537
f 904 838 537
f 318 860 834
f 908 318 834
f 465 830 715
f 556 342 336
f 105 836 559
f 833 559 836
f 29 44 846
f 908 834 804
f 562 917 828
f 299 836 105
f 818 900 767
f 832 553 559
f 562 832 920
f 811 315 548
f 828 801 821
f 801 828 917
f 821 797 814
f 836 299 903
f 401 590 580
f 797 821 801
f 905 798 796
f 796 814 797
f 810 548 818
f 814 798 806
f 798 814 796
f 909 796 797
f 811 548 810
f 413 587 590
f 404 51 837
f 51 864 837
f 837 838 404
f 909 797 801
f 529 842 843
f 158 842 863
f 232 906 863
f 800 806 798
f 529 528 511
f 794 811 806
f 785 908 804
f 785 647 908
f 859 877 878
f 526 534 794
f 877 571 878
f 571 31 915
f 173 351 42
f 524 783 509
f 350 173 175
f 29 350 871
f 823 526 794
f 783 524 526
f 526 823 782
f 42 351 374
f 841 374 351
f 504 775 783
f 509 783 775
f 782 823 891
f 885 124 884
f 887 757 779
f 914 801 917
f 426 885 881
f 890 397 925
f 825 504 824
f 775 504 883
f 925 587 931
f 587 925 580
f 802 494 825
f 785 279 762
f 494 831 465
f 831 494 802
f 894 287 775
f 590 895 413
f 438 897 576
f 884 164 869
f 762 279 751
f 423 931 587
f 587 413 423
f 931 423 857
f 762 761 647
f 617 820 476
f 595 820 621
f 751 755 763
f 893 459 243
f 751 264 805
f 609 857 423
f 423 881 612
f 662 443 444
f 721 805 735
f 621 584 595
f 857 609 819
f 443 645 869
f 612 885 627
f 636 621 820
f 628 902 584
f 805 721 807
