# avbd fit, rung f0-i16-s100 of Gate 6d (body space, fit phase only)
v -0.000781370 0.544971704 0.199317396
v -0.132944986 0.574755847 0.134618148
v -0.000778679 0.565367639 0.198328152
v -0.000170533 0.931924641 0.178762496
v -0.181898952 0.554135144 0.091762528
v 0.002061846 0.952338099 0.181548625
v -0.000722753 0.606134057 0.196185932
v -0.000751672 0.585754573 0.197267681
v -0.180919260 0.577034891 0.090842202
v 0.164170325 0.952708125 -0.130939558
v -0.191283286 0.571869373 0.065072559
v -0.201770216 0.575100601 0.037765261
v -0.210647315 0.577296197 0.014728991
v -0.190936878 0.577023149 -0.124002777
v 0.017133920 0.524926007 -0.251643360
v -0.181681380 0.572144091 -0.148420870
v 0.035130169 0.524926960 -0.242948338
v -0.169914559 0.573207557 -0.171348646
v -0.148551270 0.579106927 -0.185485885
v 0.218418747 0.524925351 -0.001860504
v -0.000237392 0.891184032 0.180831537
v -0.000271849 0.870823205 0.181868672
v -0.127889082 0.570575535 -0.196313471
v -0.108932436 0.577019036 -0.205097869
v 0.109621167 0.815393746 -0.190592408
v -0.089463800 0.586664498 -0.213942736
v -0.149476439 0.903544307 -0.163865715
v -0.157049000 0.792214215 0.108932935
v 0.050152041 0.652704358 -0.228492528
v -0.166828424 0.804684043 0.090994947
v 0.078855053 0.854056656 -0.202686548
v -0.190355957 0.775106668 0.049251705
v 0.102456190 0.766066194 -0.196835667
v -0.217960283 0.572870672 -0.055662524
v 0.086320624 0.751038909 -0.205477878
v -0.169544473 0.907660127 -0.124776639
v -0.189924017 0.903768718 -0.070925504
v 0.017547049 0.731292844 0.181309253
v -0.198611602 0.910083890 -0.045960642
v -0.086344913 0.903020203 -0.196223691
v -0.034060545 0.875131488 0.166320562
v 0.018604323 0.599025846 -0.246645331
v -0.021261364 0.850413322 0.173491240
v 0.076103657 0.660595059 -0.215509683
v -0.046612106 0.851607978 0.161932081
v -0.201068312 0.918605149 -0.020502161
v -0.196690604 0.898960590 -0.001402625
v 0.086806744 0.687187135 -0.208840638
v -0.186625764 0.904494941 0.024536688
v -0.046555735 0.570241451 0.176444814
v 0.069679365 0.815353215 0.153190240
v -0.073363885 0.571888030 0.163452581
v -0.088676162 0.679144561 0.151098892
v 0.069170825 0.765912175 0.156005785
v -0.100184917 0.571696162 0.150538862
v 0.118948877 0.785486042 -0.187764674
v -0.117572948 0.675808012 0.137329444
v -0.179983258 0.686430871 0.076812491
v 0.136443183 0.804924667 -0.177889079
v -0.198178843 0.684340000 0.031023402
v 0.100513816 0.667130530 -0.203347653
v 0.124501325 0.665316701 -0.191857606
v -0.201574445 0.788543880 0.027054537
v -0.195786476 0.813476682 0.026089933
v -0.213089630 0.685282171 -0.048417769
v -0.202408761 0.678795695 -0.078192011
v -0.193063766 0.694090486 -0.099711120
v 0.006367682 0.529024720 0.209866673
v 0.018540455 0.525254607 0.194456413
v -0.183848590 0.679534078 -0.125598282
v 0.035108574 0.524992764 0.183252960
v -0.137357906 0.691748857 -0.184610918
v 0.053153999 0.524980128 0.174638852
v -0.021786945 0.725153863 -0.237425849
v 0.071151227 0.524971128 0.165942416
v -0.108029529 0.905577838 -0.186217695
v 0.089145325 0.524969459 0.157251865
v -0.128831834 0.907199502 -0.176052526
v 0.107136428 0.524967551 0.148562282
v -0.137268633 0.887694657 -0.172878355
v 0.125126675 0.524963975 0.139873058
v -0.158207744 0.922985256 -0.149965301
v 0.143117666 0.524958491 0.131186515
v -0.181516752 0.864204884 -0.100609697
v 0.160508648 0.524951160 0.121944845
v 0.053222515 0.714244008 0.165966243
v -0.163692057 0.902561188 0.085869119
v -0.142834380 0.799883485 -0.175168619
v -0.178444728 0.615303338 0.091412537
v 0.174804181 0.524947703 0.109836027
v -0.162511557 0.810272098 -0.156513736
v -0.020317979 0.796519935 0.176897585
v 0.182045951 0.524936140 0.091211818
v -0.044347800 0.800057769 0.165807918
v 0.189321429 0.524929225 0.072600111
v -0.028628439 0.823902428 0.171615764
v 0.196595669 0.524923682 0.053985648
v -0.021693746 0.897494137 0.170694366
v 0.203870133 0.524921119 0.035370640
v -0.072440453 0.923434556 -0.201158836
v 0.211144328 0.524921954 0.016754840
v 0.031354450 0.727172315 -0.232506678
v -0.098897308 0.881797194 -0.191954240
v -0.129657239 0.628183782 0.133717805
v 0.045875054 0.688371301 0.170736641
v 0.066521354 0.750023246 -0.214999631
v -0.133411810 0.866237462 -0.176211074
v -0.166927934 0.610728502 0.112459615
v 0.148883909 0.751841903 -0.173744693
v -0.150618702 0.851799130 -0.166563243
v 0.153596893 0.819162011 -0.165791079
v 0.161432534 0.794707716 -0.158876553
v 0.162990004 0.767584801 -0.159003899
v -0.179776877 0.638382554 0.084544875
v -0.163723782 0.837240994 -0.149824023
v 0.225698680 0.524931431 -0.020472344
v 0.225718647 0.524941862 -0.039082848
v -0.200225398 0.627045989 0.033926979
v 0.166129246 0.818195939 -0.146161005
v -0.173464984 0.850193977 -0.124591075
v -0.191126421 0.847184658 -0.077960685
v -0.197477609 0.862368762 -0.058266707
v -0.063950635 0.841615081 -0.210497022
v 0.176336199 0.659904778 -0.144805357
v -0.177397937 0.841565430 0.059981547
v -0.189771071 0.837633014 0.029449651
v -0.140834033 0.833593845 0.118009113
v -0.154718652 0.853928745 0.106773831
v 0.218435496 0.524947524 -0.057684708
v -0.023396708 0.828455567 -0.229767203
v 0.211148977 0.524954319 -0.076289698
v -0.045318745 0.822982967 -0.220194310
v 0.203863263 0.524958432 -0.094894327
v -0.027069468 0.662313581 -0.239245564
v 0.196577817 0.524960101 -0.113499880
v -0.130736247 0.909574628 0.119940557
v 0.189291716 0.524959922 -0.132106140
v -0.105470255 0.903649926 0.132360995
v 0.182005391 0.524957895 -0.150713235
v -0.024385590 0.804403901 -0.230931789
v 0.174720123 0.524954259 -0.169322565
v 0.173804387 0.803467929 -0.129581720
v -0.025912762 0.779757142 -0.231892586
v 0.160488337 0.524952173 -0.181503326
v -0.048053272 0.797761202 -0.220646307
v -0.182540670 0.807170033 -0.108092830
v 0.143110335 0.524946690 -0.190771669
v -0.164913699 0.927469134 0.078796834
v 0.125115797 0.524942040 -0.199470848
v -0.032624952 0.694819510 -0.234546140
v 0.107119046 0.524937510 -0.208166569
v 0.164861694 0.743605912 -0.158737853
v 0.089121521 0.524933636 -0.216862112
v -0.120589241 0.747504890 -0.189537019
v 0.071124256 0.524930775 -0.225557640
v -0.074471228 0.639858603 -0.218089581
v 0.053127013 0.524928391 -0.234253079
v 0.059525389 0.860019386 0.155394226
v -0.188121811 0.766532242 -0.100437760
v -0.223785594 0.581508577 -0.028593624
v 0.172365561 0.777698517 -0.137119740
v -0.207676739 0.786120832 -0.040739104
v -0.212706357 0.741600692 -0.031679928
v 0.187540144 0.650438368 -0.117666565
v -0.207505226 0.726714313 -0.055385172
v -0.000793758 0.565671265 -0.257632017
v 0.021736912 0.548947573 -0.248066023
v -0.000829645 0.545297921 -0.258981884
v -0.000757783 0.586044550 -0.256280869
v 0.175198808 0.832896054 -0.121581890
v -0.198866665 0.733434618 -0.077831052
v -0.000721737 0.606417775 -0.254929960
v -0.000685532 0.626790881 -0.253578067
v -0.210903570 0.721903920 -0.008942923
v -0.000649343 0.647163808 -0.252226293
v 0.180338293 0.786026061 -0.115577325
v -0.182097614 0.730357468 -0.121884145
v -0.137423247 0.549870729 -0.192891270
v -0.205191180 0.732184768 0.023908895
v 0.194396213 0.671233475 -0.097013198
v -0.198587567 0.708446383 0.034622975
v -0.104563728 0.726342797 -0.198514789
v -0.088567257 0.707323909 -0.207351059
v 0.183912665 0.808524966 -0.102588356
v -0.050092567 0.772125065 -0.221441314
v -0.000395353 0.789768875 -0.242765307
v -0.000359098 0.810140967 -0.241415888
v -0.119828366 0.881526828 0.126684889
v -0.000322819 0.830513179 -0.240066320
v -0.143262953 0.872779489 0.114495195
v 0.188951239 0.778481483 -0.094208173
v -0.127967477 0.855045497 0.123913787
v -0.000286446 0.850885570 -0.238715559
v -0.148360536 0.895390391 0.109681346
v -0.170174628 0.719235063 0.096259281
v -0.000250100 0.871258140 -0.237366349
v -0.139390901 0.933126450 0.113583885
v 0.188479334 0.836010814 -0.085736983
v 0.192411393 0.548831105 0.061353169
v -0.000213823 0.891631246 -0.236017793
v -0.153975099 0.919889271 0.101753198
v -0.000177590 0.912004471 -0.234667778
v -0.167939022 0.858285725 0.081625745
v 0.198162377 0.768663049 -0.071083151
v -0.170806199 0.884185970 0.070347078
v -0.210828424 0.777812362 0.003266003
v -0.000141283 0.932377517 -0.233315736
v -0.173172936 0.933947682 0.055554092
v -0.174888045 0.908766448 0.055235416
v -0.183178782 0.929483235 0.029527253
v -0.154733136 0.711170554 0.115852430
v 0.036514036 0.952657521 0.160958841
v 0.018383954 0.952654362 0.169754356
v 0.197774082 0.854623973 -0.057645787
v -0.000203903 0.911550999 0.179798514
v -0.193230093 0.924984276 0.003395621
v 0.200130552 0.821720004 -0.056208026
v -0.198741406 0.933396518 -0.040080585
v -0.191481814 0.929142594 -0.062154450
v -0.086000450 0.614066899 -0.214020580
v 0.054833967 0.952674031 0.152557448
v 0.205635279 0.838858306 -0.034045823
v 0.205282480 0.786912560 -0.047301255
v -0.183334231 0.926197886 -0.084495887
v -0.166221231 0.932963848 -0.129096240
v -0.139715999 0.927687764 -0.168738917
v -0.164413720 0.864438534 -0.145185247
v -0.123595513 0.621418834 -0.195427924
v 0.091549903 0.952692389 0.135921970
v 0.073191434 0.952686608 0.144236758
v -0.111400947 0.861061752 -0.187366590
v -0.000304856 0.850467861 0.182923824
v -0.119038858 0.884591699 -0.182305902
v 0.207528681 0.810363591 -0.029328113
v -0.145280465 0.610015929 -0.185417250
v 0.109901384 0.952692688 0.127600983
v -0.027406093 0.672902465 0.180509329
v -0.027770335 0.548236728 0.186541691
v 0.203434557 0.850773513 -0.012112344
v -0.202861264 0.837866485 -0.047849357
v -0.042191692 0.610117555 0.176697537
v 0.128233045 0.952686906 0.119247139
v 0.212821037 0.674182117 -0.010918299
v -0.057798725 0.547105968 0.172101364
v 0.215529993 0.674770176 -0.033756558
v 0.203982428 0.827033997 -0.007803600
v 0.209514335 0.783351243 -0.016327193
v -0.062148005 0.625715733 0.166359276
v -0.088406116 0.547724068 0.157326192
v -0.117461249 0.550030529 0.143220276
v -0.108426012 0.615162492 0.144551545
v 0.199974567 0.812967777 0.020415567
v -0.111580528 0.592594802 0.144078672
v 0.208176255 0.804094970 -0.003847998
v -0.057859667 0.827247798 0.158179849
v 0.111904934 0.853210807 0.131620079
v -0.131424159 0.603327453 0.134021044
v 0.080007695 0.770629048 -0.207419634
v -0.145762891 0.548625112 0.129570529
v -0.206344575 0.634727240 -0.075292937
v -0.149604395 0.618704438 0.123944484
v -0.165039197 0.569843054 0.116752148
v 0.071119010 0.789688230 -0.210397199
v 0.179499626 0.879984081 0.046892997
v -0.153388903 0.593743682 0.122782551
v -0.212557822 0.614920974 -0.062547073
v -0.171243906 0.545196831 0.113084592
v 0.210163400 0.785708427 0.012226312
v 0.204386383 0.765343606 0.024996260
v -0.160386831 0.878050923 0.095671438
v -0.173545912 0.593373656 0.103832886
v -0.190973043 0.545516849 0.069818243
v 0.187255993 0.833945930 0.035171233
v 0.185690627 0.807391822 0.046882849
v -0.188510686 0.620536387 0.064865038
v -0.185398534 0.596452057 0.076448329
v 0.183410615 0.782014906 0.060695179
v -0.199890047 0.550235271 0.046304226
v 0.168566555 0.887548268 0.074818365
v -0.195541218 0.598707795 0.050156962
v 0.204907462 0.667002499 0.012737013
v -0.055058174 0.952086806 0.152480468
v -0.205739617 0.599699199 0.023924258
v -0.025765276 0.924811006 0.167337030
v 0.177733690 0.827788174 0.060387500
v -0.176497489 0.865790486 0.058236718
v 0.195720345 0.659113884 0.037518214
v -0.180906102 0.885047078 0.043147594
v -0.216261223 0.592685223 -0.001993105
v 0.178536385 0.759029865 0.070577875
v -0.185297921 0.860996068 0.035587318
v 0.025744447 0.848372638 -0.227111369
v 0.026822548 0.875726104 -0.224832222
v 0.168709517 0.824412227 0.083242163
v -0.028414574 0.929789424 -0.220694631
v 0.173919454 0.803236663 0.073574908
v -0.212222978 0.618400216 0.004358709
v -0.021995494 0.903882146 -0.225342795
v 0.029667210 0.710416913 0.176938444
v -0.019420924 0.582258403 -0.247972816
v -0.045547903 0.909969449 -0.214255482
v 0.158518627 0.837628067 0.102135643
v -0.051618457 0.933610141 -0.209917575
v -0.190941662 0.879747570 0.017185830
v 0.168351784 0.778634787 0.089927793
v -0.195591584 0.854939342 0.010211079
v 0.157517284 0.758528590 0.109867156
v -0.204827279 0.866465688 -0.034588296
v -0.205583766 0.847292304 -0.016086908
v 0.161202461 0.809167981 0.100517713
v -0.201042131 0.873319447 -0.008233863
v 0.136467054 0.768889785 0.123229884
v -0.224497363 0.553775907 -0.037618678
v -0.221349835 0.606965780 -0.020780444
v 0.123369515 0.655738175 0.134891734
v 0.146705419 0.655025780 0.123130381
v 0.118585072 0.721932828 -0.191525951
v 0.107397690 0.922268093 0.130353138
v -0.020371832 0.608937144 0.187124580
v 0.145362586 0.952683151 0.109804735
v -0.198023587 0.885788143 -0.052598469
v 0.154330283 0.678001106 0.117026486
v 0.135611847 0.824284375 0.121121787
v -0.220511347 0.618662775 -0.039835371
v -0.189244658 0.877154648 -0.077569194
v 0.157083273 0.952686191 0.095308319
v -0.172320396 0.879410446 -0.122474231
v 0.149911180 0.789170027 0.114080861
v -0.072105691 0.766783357 -0.211743325
v 0.109077588 0.680024326 0.140714020
v -0.215392739 0.549008250 -0.066078648
v 0.114025965 0.771030545 0.134261683
v -0.219521433 0.596924424 -0.047387671
v -0.202981442 0.609885216 -0.087961957
v -0.206159085 0.544437945 -0.090384670
v 0.085523032 0.674174368 0.152352199
v 0.124753095 0.795823216 0.127937466
v -0.074779160 0.726336002 -0.212905571
v 0.102718674 0.790056109 0.138879806
v -0.207986146 0.566980362 -0.082091108
v -0.195590287 0.629837275 -0.103621028
v 0.068911061 0.692930579 0.159539357
v -0.091028996 0.749533534 -0.203704238
v -0.197256282 0.555075407 -0.111401893
v 0.022131125 0.795479178 -0.232211187
v 0.102025107 0.819194973 0.137912735
v 0.081664696 0.842991233 0.146280140
v -0.193455040 0.603967667 -0.113236740
v 0.164139733 0.952695668 0.076460801
v 0.025394272 0.639136672 -0.240969509
v 0.027297024 0.617635846 -0.241429999
v -0.187064141 0.550922155 -0.138092101
v 0.171187252 0.952713966 0.057610743
v -0.145637840 0.750559926 -0.176658750
v 0.178235427 0.952734292 0.038758706
v -0.176802486 0.614215910 -0.153945386
v 0.051295258 0.887052417 -0.213007733
v -0.184643075 0.597559810 -0.136765808
v 0.185284898 0.952755749 0.019903341
v 0.040696770 0.676333189 -0.231598184
v 0.043691508 0.702250004 -0.228550404
v -0.160688907 0.731684327 -0.166592270
v 0.192335606 0.952769458 0.001045573
v -0.164769456 0.755529284 -0.160085112
v -0.118820526 0.928898692 -0.179701462
v -0.049041022 0.903896034 0.157940492
v 0.199381456 0.952774048 -0.017815012
v -0.176911563 0.548725367 -0.163821235
v -0.173153058 0.742885470 -0.142555475
v -0.176865712 0.591489613 -0.157600403
v -0.162851453 0.892562032 -0.144887775
v 0.199427694 0.952762902 -0.036672838
v -0.180938706 0.755483389 -0.120791115
v 0.042236537 0.598329663 -0.235379890
v -0.158512071 0.551520944 -0.181882426
v -0.190035537 0.743662238 -0.099387430
v 0.192366660 0.952742755 -0.055522881
v -0.152557671 0.877070904 -0.162565768
v 0.185318172 0.952726364 -0.074375115
v -0.197175145 0.762740135 -0.077007875
v -0.164535344 0.599528193 -0.173943788
v 0.183754995 0.705532432 0.062780708
v 0.178269446 0.952716470 -0.093227170
v -0.204880521 0.746718884 -0.058876973
v 0.055739272 0.727050662 -0.221470162
v -0.115965270 0.550754011 -0.203229114
v -0.021260690 0.556309342 -0.248661712
v 0.171219110 0.952710330 -0.112082802
v -0.206611469 0.766158223 -0.049309809
v 0.196622387 0.785733342 0.036400333
v -0.020780560 0.650149524 0.184768945
v 0.157119244 0.952708423 -0.149798796
v 0.193696842 0.755993009 0.047883756
v -0.076305903 0.757021785 0.153432205
v -0.127149180 0.594525874 -0.195276797
v -0.091501288 0.556338668 -0.214723587
v 0.066628657 0.603764892 -0.223288864
v -0.106278256 0.604341090 -0.204789549
v -0.068706863 0.575795889 -0.224603921
v -0.066071875 0.549539149 -0.227405518
v 0.090842694 0.641655624 -0.209455371
v 0.070359334 0.706344485 -0.215707272
v -0.190198213 0.723682761 0.053687595
v 0.055356394 0.787891328 0.161150381
v 0.045342878 0.762007713 0.167073503
v -0.192751572 0.749448836 0.051414043
v 0.038595125 0.735826790 0.171533853
v -0.030192260 0.751644015 -0.231837898
v 0.115463652 0.692442596 -0.194697171
v -0.177648574 0.764213145 0.072802261
v -0.065898575 0.618594885 -0.223469138
v -0.072505072 0.598620653 -0.221439913
v 0.129155666 0.633003235 -0.191428736
v -0.176686168 0.738149047 0.078357741
v -0.043202437 0.573628366 -0.237052441
v 0.145437449 0.952715397 -0.164332688
v 0.145797849 0.657912374 -0.181551248
v -0.052419007 0.599976540 -0.231065556
v -0.165815279 0.756461501 0.099858046
v -0.046389081 0.635070980 -0.231935427
v 0.128321096 0.952723980 -0.173804566
v -0.029683808 0.605774343 -0.241683796
v 0.140113339 0.604033709 -0.187603071
v -0.219579652 0.568177402 -0.007125123
v -0.210274577 0.552235961 0.019442460
v 0.164218590 0.652807832 -0.168618590
v -0.159381658 0.734482765 0.110450938
v -0.142138824 0.749574780 0.121378005
v 0.138915613 0.708808541 -0.182226732
v -0.085522071 0.830627441 0.145445302
v -0.073405191 0.952244103 0.144174308
v -0.131007537 0.722575605 0.128614306
v 0.160873249 0.701068759 -0.167440474
v -0.117340483 0.745299339 0.134205550
v -0.098281272 0.808642030 0.140459910
v 0.181648225 0.706910253 -0.124198936
v -0.101710975 0.723400116 0.142764926
v 0.126150891 0.865650177 -0.179722458
v -0.085477181 0.783111572 0.147805721
v -0.112394609 0.788473845 0.134592831
v 0.191275105 0.696976542 -0.101092413
v -0.102481619 0.765550971 0.140437976
v 0.194318652 0.629065096 -0.103578188
v 0.198852986 0.646323442 -0.089391358
v -0.094537593 0.744342744 0.145249933
v -0.075876229 0.729859471 0.154912561
v -0.127023801 0.768644810 0.128422931
v -0.028696556 0.747921467 0.175783187
v -0.136946276 0.790988564 0.122346103
v -0.125297695 0.811610341 0.127261654
v 0.200860217 0.691256046 -0.077190481
v 0.213177890 0.656838834 -0.049854957
v -0.070765361 0.804033637 0.153602690
v -0.151065305 0.772093177 0.114687465
v -0.046945758 0.653108656 0.172412485
v -0.150953561 0.812330842 0.112638012
v 0.204339653 0.664809585 -0.072333485
v -0.164824054 0.831727386 0.092806265
v 0.217676997 0.652894855 -0.025924861
v -0.176979378 0.789725125 0.070080258
v 0.214602470 0.702435672 -0.027653372
v -0.167477682 0.779621422 0.092661135
v -0.073711351 0.854038715 0.149512336
v -0.175701588 0.815423846 0.068921670
v 0.219637245 0.606164634 -0.023384258
v -0.078545138 0.901941478 0.144673988
v -0.000467868 0.749025106 -0.245466560
v -0.072812907 0.926449478 0.145916611
v -0.184439406 0.821699619 0.046453990
v -0.203739613 0.761492789 0.026189217
v -0.050490152 0.931330800 0.155754134
v -0.000431629 0.769396961 -0.244115159
v -0.110092342 0.952539146 0.127557009
v -0.210990950 0.749885738 -0.001047808
v 0.086706474 0.831879437 -0.200581461
v 0.133367717 0.914977908 -0.173166484
v -0.203411072 0.830494761 0.006240657
v -0.091750473 0.952394366 0.135865852
v 0.207816690 0.696622729 0.001967328
v 0.109981969 0.952732384 -0.182130426
v -0.203358501 0.892359138 -0.026978731
v 0.205119729 0.713943601 0.021907654
v -0.210827678 0.768457711 -0.022460144
v -0.208789185 0.795218110 -0.019282628
v -0.208024934 0.821339488 -0.020354414
v 0.091634408 0.952738166 -0.190438956
v 0.210838884 0.759345591 0.001813848
v 0.073286861 0.952742577 -0.198747531
v -0.101578355 0.855768323 0.136676997
v -0.017759103 0.876992524 -0.229067400
v 0.194816500 0.702534974 0.042227373
v 0.054939408 0.952746212 -0.207056567
v 0.066338770 0.933290303 -0.203168184
v 0.211191326 0.595368862 0.006798624
v -0.095876858 0.926717281 0.135446087
v -0.022311963 0.853038311 -0.228609920
v -0.199982971 0.788834393 -0.064595059
v -0.180072635 0.897368729 -0.098458908
v -0.112829052 0.832826316 0.132319897
v 0.036592942 0.952748418 -0.215364724
v -0.190653637 0.788613737 -0.089834981
v 0.018247768 0.952749908 -0.223672748
v -0.172254235 0.795653045 -0.136415154
v 0.192940667 0.602956891 0.052435391
v -0.180931538 0.781378686 -0.116613485
v 0.018192763 0.936636567 -0.224752471
v -0.000104824 0.952750385 -0.231961727
v 0.188694626 0.679673314 0.052958388
v 0.186047256 0.652465761 0.063161030
v 0.094470769 0.790761471 -0.199301690
v 0.021000830 0.918218434 0.169730395
v -0.173313811 0.822516143 -0.129435271
v -0.172382280 0.769357324 -0.140307307
v -0.174807519 0.927106559 -0.107161030
v 0.076543316 0.810951829 -0.206554681
v 0.178152293 0.678063750 0.079820737
v -0.159371942 0.780888021 -0.163542837
v -0.054851752 0.525034487 -0.234253138
v -0.122069083 0.790941060 -0.186292663
v -0.072846085 0.525071561 -0.225557163
v -0.090840235 0.525108933 -0.216861099
v -0.134869099 0.772994280 -0.181020275
v 0.167749166 0.662842512 0.104995213
v 0.176617682 0.643380463 0.088647828
v -0.108834371 0.525146842 -0.208165050
v 0.174942836 0.613271117 0.097077087
v -0.127891541 0.842250049 -0.180480659
v 0.046005219 0.910266519 0.158820525
v 0.029177815 0.893273473 0.167350695
v -0.126828343 0.525185406 -0.199468926
v 0.167771369 0.692743897 0.102082849
v -0.119918227 0.815891623 -0.185878426
v 0.151366860 0.699246824 0.117842853
v 0.162286490 0.633949935 0.113683149
v -0.144821659 0.525224149 -0.190772504
v -0.000374337 0.809763312 0.185091272
v -0.000407990 0.789411664 0.186196983
v -0.101219475 0.793455780 -0.196222976
v -0.162198260 0.525263369 -0.181504175
v -0.086510599 0.857556224 -0.199194580
v -0.110519126 0.770454168 -0.193068892
v -0.176446915 0.525308311 -0.169343024
v -0.183724791 0.525359571 -0.150732607
v -0.191009358 0.525410831 -0.132125825
v -0.055510849 0.773045659 0.162236318
v -0.027566034 0.773842335 0.174864471
v 0.102123424 0.658463478 0.145034283
v 0.106965601 0.634687006 0.143755078
v -0.198293999 0.525461137 -0.113519594
v -0.205578282 0.525510192 -0.094913743
v -0.029506195 0.697718024 0.178187564
v 0.084640160 0.647952855 0.153947085
v 0.061881535 0.664465010 0.164203092
v -0.212863058 0.525557756 -0.076308541
v -0.082988329 0.833739877 -0.202391863
v 0.092008576 0.698925018 0.148116484
v -0.220148683 0.525604010 -0.057702877
v -0.057483304 0.682019413 0.165993363
v 0.037086759 0.663154662 0.176093370
v -0.033058483 0.630377412 0.180114985
v -0.104362249 0.837305248 -0.192150936
v 0.034164641 0.607412219 0.180123493
v -0.073108062 0.654944301 0.159722641
v 0.082984135 0.744049430 0.150463372
v -0.033013813 0.590264261 0.182038993
v -0.058958638 0.594468713 0.169345543
v -0.062000614 0.866968155 -0.209680200
v -0.079258099 0.880508721 -0.200947210
v -0.080537245 0.704210222 0.153857246
v -0.063393369 0.894552827 -0.207198262
v 0.100761607 0.872015476 -0.191551536
v -0.227435201 0.525650442 -0.039096341
v 0.098132826 0.723617911 0.144057900
v -0.085157014 0.600492358 0.156443447
v -0.109036252 0.699726105 0.140333518
v 0.107575953 0.845634162 -0.189875782
v -0.088001952 0.631106019 0.153652534
v -0.099514611 0.656356454 0.146934032
v -0.090117626 0.879089475 0.140687138
v 0.088950679 0.613506138 -0.211955354
v -0.061642718 0.878107190 0.153653607
v 0.119638517 0.729482770 0.133399993
v -0.110197768 0.636906743 0.142689064
v 0.150797918 0.862231433 -0.164797500
v -0.227435499 0.525645614 -0.020486403
v -0.028747935 0.722601354 0.177158102
v 0.113527343 0.603931189 -0.200620502
v -0.212896153 0.525544226 0.016741604
v -0.146988377 0.669022202 0.123038128
v 0.106622554 0.627062142 -0.202653244
v -0.205622151 0.525496006 0.035354313
v -0.126424581 0.652514458 0.134144336
v 0.136593312 0.714347005 0.125705034
v 0.141114980 0.740517080 0.122104540
v 0.141625270 0.887648225 -0.170275703
v -0.198347911 0.525449395 0.053966224
v -0.135152921 0.695055366 0.127841622
v -0.191074029 0.525404096 0.072577216
v -0.149202824 0.643135071 0.123137198
v -0.183802843 0.525358796 0.091188401
v -0.176568061 0.525317729 0.109813452
v -0.157073945 0.689987838 0.115769528
v -0.169191182 0.653835416 0.106409095
v -0.162286758 0.525156438 0.121930145
v 0.159903616 0.724229693 0.109255806
v -0.170265943 0.676347852 0.101235926
v -0.144898802 0.524948955 0.131169498
v -0.126903355 0.524730802 0.139844447
v 0.162658140 0.595008671 -0.174419671
v -0.170592442 0.698546469 0.097388133
v 0.181395903 0.733670354 0.066366121
v 0.161652893 0.615340531 -0.173942029
v 0.168177679 0.926993012 -0.124583855
v -0.108911075 0.524511456 0.148523539
v -0.168734893 0.631287932 0.109439135
v -0.090919316 0.524289966 0.157202348
v 0.147167623 0.932441235 -0.162376612
v -0.072928056 0.524067044 0.165881068
v -0.054937512 0.523840606 0.174560428
v 0.194939852 0.726901770 0.044465430
v 0.159754753 0.883568645 -0.150745809
v -0.036930591 0.523610651 0.183208078
v -0.019307025 0.523420155 0.192615971
v -0.179411873 0.711187005 0.075178280
v 0.000648937 0.524024546 0.193127111
v -0.180206522 0.662282765 0.079853237
v 0.174629182 0.608569741 -0.156886891
v 0.167398781 0.859459400 -0.137447715
v 0.206308454 0.740643263 0.023017311
v -0.188454360 0.697601140 0.054346848
v -0.189957410 0.646056056 0.057337619
v -0.189457476 0.672082782 0.054732163
v -0.047098663 0.723218799 -0.226078346
v 0.183704123 0.601654768 -0.134809941
v 0.210752442 0.757162750 -0.024544023
v 0.164228722 0.905326366 -0.138642788
v 0.015986135 0.772021711 -0.236529797
v -0.059351534 0.747071624 -0.218922764
v 0.079379089 0.729812503 -0.210027486
v -0.054292310 0.712208033 0.166082606
v 0.209886819 0.728391886 -0.006246739
v -0.199545160 0.657360017 0.031137418
v -0.207805872 0.702229977 0.010797001
v -0.187237650 0.799594283 0.047817826
v 0.193450943 0.605093241 -0.109406628
v -0.210078314 0.645941496 0.005618834
v 0.150604993 0.922726929 0.105673514
v 0.211105227 0.731649697 -0.037506618
v -0.208441138 0.674092293 0.005434804
v -0.214659363 0.692332625 -0.017203849
v -0.214471579 0.711438537 -0.037577510
v 0.202315241 0.591973484 -0.088745967
v 0.207128018 0.711402714 -0.056761194
v -0.219203711 0.633619547 -0.019145999
v -0.208882958 0.804907143 0.004768878
v 0.170485690 0.881828487 -0.126055077
v -0.036697414 0.951922536 0.160758808
v 0.202049941 0.738552570 -0.065682657
v 0.191542581 0.746943533 -0.092592470
v -0.092001192 0.814398170 -0.199456692
v -0.067325033 0.816340089 -0.210661605
v 0.202477172 0.618429124 -0.084340408
v -0.218303278 0.662613690 -0.025369342
v 0.211260155 0.578035772 -0.068000332
v 0.197467074 0.717775762 -0.081705056
v -0.018442323 0.952775121 -0.223674223
v -0.036769759 0.952797890 -0.215362877
v 0.178620636 0.859990418 -0.108045220
v 0.021948460 0.755777776 0.178002879
v -0.055097621 0.952820003 -0.207051352
v -0.053424247 0.740820110 0.164959207
v 0.188758284 0.720977426 -0.103897534
v 0.181205720 0.735195339 -0.121051490
v -0.073425367 0.952841640 -0.198739558
v 0.179175362 0.887697875 -0.101855621
v -0.216653869 0.639184952 -0.047411650
v -0.091753319 0.952862740 -0.190427929
v -0.097250909 0.927206159 -0.189656198
v -0.204644799 0.809549332 -0.046222217
v -0.110081300 0.952882767 -0.182116300
v -0.128407225 0.952901542 -0.173801929
v 0.171991929 0.721058726 -0.146470696
v -0.203187615 0.705582500 -0.071308546
v -0.193698347 0.816741824 -0.076529399
v -0.182837769 0.834553599 -0.102448381
v -0.210255980 0.659893453 -0.060794868
v 0.188172653 0.871007800 -0.080628447
v 0.181990832 0.930870056 -0.086988442
v -0.210215166 0.590914845 -0.072548322
v 0.060851879 0.740262270 0.161176801
v 0.156847119 0.725485623 -0.170253277
v -0.073808677 0.791994572 -0.209333271
v -0.191838861 0.718703270 -0.098866805
v 0.190275177 0.924161911 -0.065976337
v -0.089933261 0.774481535 -0.202780887
v -0.200347394 0.583983302 -0.098856658
v 0.137711018 0.732860863 -0.181378856
v -0.199447349 0.653462827 -0.089967981
v -0.186832860 0.651202202 -0.122539982
v 0.198707864 0.921577275 -0.043506913
v -0.192981318 0.671301723 -0.103605255
v -0.182985336 0.705218196 -0.123667434
v 0.204425842 0.869651675 -0.030920010
v -0.185779631 0.623495758 -0.129688412
v -0.021142792 0.631617129 -0.243991822
v 0.096017972 0.712152958 -0.202983856
v -0.145510346 0.952921510 -0.164348513
v -0.157149836 0.952948749 -0.149794847
v -0.173183888 0.717796981 -0.146524742
v -0.173952386 0.692122936 -0.148728505
v -0.175614417 0.665708184 -0.148787171
v -0.176735803 0.639490068 -0.150182024
v -0.146325588 0.826032162 -0.171330675
v 0.080529109 0.791570306 0.149420887
v 0.213150829 0.606575012 -0.058686148
v -0.171208650 0.953017712 -0.112095490
v -0.178244069 0.953057468 -0.093251660
v 0.217882916 0.630672693 -0.042036198
v -0.000865311 0.524924695 -0.260330439
v -0.185278714 0.953101516 -0.074408740
v 0.197808564 0.872463822 -0.000446042
v -0.192317039 0.953148484 -0.055566501
v -0.199356690 0.953195572 -0.036721729
v -0.199359670 0.953200042 -0.017874276
v 0.206027940 0.756856680 -0.049397524
v 0.200903967 0.928662777 -0.023019230
v -0.192345500 0.953148723 0.000976898
v -0.185309500 0.953089118 0.019821066
v -0.178274348 0.953030109 0.038663071
v 0.057458185 0.772581220 -0.217711329
v -0.171240300 0.952972770 0.057501744
v 0.194963187 0.922649860 -0.001184916
v -0.164205283 0.952922940 0.076342009
v -0.163824677 0.626153827 -0.172589764
v 0.188048333 0.863830566 0.026404541
v 0.021029141 0.684123158 -0.240001082
v -0.000613041 0.667536497 -0.250873595
v -0.000576884 0.687909007 -0.249522179
v 0.160073400 0.929331601 -0.144870609
v -0.162507147 0.652468085 -0.171252280
v -0.000540457 0.708281159 -0.248169512
v -0.159304976 0.705852151 -0.170524150
v 0.018647891 0.707115054 -0.239573985
v -0.000504069 0.728653252 -0.246817976
v -0.157169953 0.952878833 0.095186263
v 0.173295751 0.751535356 -0.138703883
v 0.186084405 0.924534678 0.022229176
v -0.142803997 0.637394130 -0.185075194
v -0.145470008 0.952814281 0.109686956
v -0.128406689 0.952679455 0.119202413
v 0.176845476 0.907474220 0.049636446
v 0.051772438 0.861242294 -0.214481905
v -0.160664201 0.679024339 -0.170915008
v -0.134734422 0.721861839 -0.184098125
v 0.177894995 0.933372974 0.042732242
v -0.139936000 0.664257646 -0.184909850
v 0.179539114 0.852615833 0.051226091
v -0.119172290 0.648135066 -0.196009666
v -0.000513300 0.728340864 0.189545095
v -0.118180670 0.929161072 0.125125945
v 0.161905974 0.933092594 0.085540183
v 0.164366379 0.910767198 0.082383528
v 0.169773802 0.930305302 0.064935461
v -0.100635111 0.631707549 -0.205922917
v -0.114791714 0.674432635 -0.196595252
v -0.092855260 0.657599568 -0.208174199
v 0.057798367 0.619211674 0.168192565
v -0.112458959 0.701007485 -0.196175054
v 0.055662774 0.911311030 -0.209441856
v -0.087630697 0.683416247 -0.209195450
v 0.028843950 0.900676429 -0.222283274
v -0.043556374 0.849376678 -0.219222993
v -0.040539153 0.879999757 -0.218536809
v 0.211191729 0.621399522 0.003072083
v 0.193969935 0.631403565 0.045826517
v -0.058975030 0.667717457 -0.223954171
v -0.063438587 0.699325144 -0.219957203
v -0.164172485 0.952981830 -0.130940914
v 0.172161818 0.866265178 0.068560496
v 0.162551850 0.864670932 0.093401037
v -0.221788049 0.545474887 -0.009023575
v 0.183490843 0.592318416 0.078103796
v 0.184570506 0.622480810 0.071126744
v -0.220170170 0.525594592 -0.001871126
v 0.153747216 0.890468419 0.104494251
v -0.041273162 0.546057105 -0.239589810
v -0.036857702 0.524997950 -0.242949247
v 0.019857671 0.582493186 0.188091546
v -0.018863672 0.524961829 -0.251644909
v 0.000722443 0.946312606 0.164324954
v 0.073570177 0.899435401 -0.202109843
v -0.018199496 0.951728642 0.168713197
v -0.022438377 0.571350455 0.188020483
v 0.157357275 0.605126679 0.119411111
v 0.039358649 0.932940662 0.160631523
v 0.104651585 0.551929176 0.148560956
v 0.089756504 0.569292545 0.154981390
v 0.129961774 0.567580402 0.135641873
v 0.055367012 0.832154453 -0.214758515
v 0.153857753 0.575939894 0.122939095
v 0.067836709 0.571881115 0.165453330
v 0.210280418 0.569052279 0.012800982
v 0.143230617 0.856335640 0.115260884
v 0.130592018 0.878594398 0.121305272
v 0.189411089 0.895391107 0.017938461
v 0.133134648 0.595069230 0.132883698
v 0.201624632 0.898660541 -0.019171482
v 0.196966484 0.890734076 -0.053821277
v 0.061085127 0.929484963 0.150962383
v 0.109622315 0.608282566 0.143648595
v 0.134860918 0.626423061 0.130585343
v 0.186049297 0.902023017 -0.081038214
v 0.176785931 0.916472435 -0.103354968
v 0.109750427 0.581313848 0.144788653
v 0.171816662 0.903370023 -0.118870117
v 0.201730326 0.566065431 -0.094145849
v 0.189824551 0.576727092 -0.122943901
v 0.083505735 0.619380176 0.155768394
v 0.175835863 0.578052819 -0.157572150
v 0.152971402 0.908465028 -0.159029156
v 0.087122664 0.592642307 0.155212954
v 0.132810861 0.683355391 0.129047573
v 0.173979849 0.582872272 0.103866316
v 0.192357481 0.574621201 0.057887405
v 0.201585263 0.584713161 0.032863177
v 0.209873468 0.684647679 -0.053931408
v 0.174211040 0.690548301 -0.145546526
v 0.062017776 0.596320689 0.167174608
v 0.164152920 0.675804913 -0.167213425
v 0.221193746 0.584066808 -0.040380880
v 0.219213843 0.578287244 -0.012473045
v 0.045056589 0.638393819 0.173483685
v 0.016101118 0.663576365 0.185594529
v 0.109211445 0.888285458 0.131267309
v 0.082834274 0.927424252 0.141223222
v 0.022408629 0.686977625 0.181483120
v 0.041992929 0.809823871 0.166027144
v 0.027067984 0.782917917 0.174228743
v 0.027838226 0.574580669 -0.243674129
v 0.069501817 0.905201316 0.148452312
v 0.047924034 0.624525189 -0.231156319
v 0.039437477 0.872723877 0.163808078
v 0.055851758 0.886160970 0.155654505
v 0.018687177 0.871910214 0.173250496
v 0.045989666 0.551675498 -0.236194655
v 0.069779754 0.632808626 -0.220130116
v 0.091805831 0.768398166 0.145116776
v 0.199834883 0.685890257 0.027681563
v 0.194468468 0.800397992 -0.075651780
v 0.074800685 0.551926315 -0.222260624
v 0.184150130 0.678792834 -0.122049309
v 0.143000096 0.777434111 -0.175654411
v 0.142142311 0.683715880 -0.182019547
v 0.105461434 0.552054405 -0.207439691
v 0.062115401 0.681432188 -0.221094221
v 0.044733778 0.749992847 -0.224953011
v 0.150473148 0.575026512 -0.183923483
v 0.134957224 0.551927447 -0.193159625
v 0.111624464 0.921719909 -0.183412462
v 0.090842225 0.903351486 0.138885528
v 0.083634056 0.875026405 0.143669039
v 0.163635090 0.550938427 -0.176637173
v 0.032747883 0.852135003 0.167941004
v 0.052203227 0.834794164 0.160063758
v 0.087441817 0.923034966 -0.194282264
v 0.181741953 0.550661862 -0.147517443
v 0.181708127 0.761700749 -0.115761861
v 0.026749665 0.820547104 -0.228478223
v 0.187606588 0.623078763 -0.121620476
v 0.193192765 0.549269438 -0.118480280
v 0.022918686 0.661445200 -0.240630075
v 0.202949286 0.543093562 -0.094495498
v 0.036037140 0.774277747 -0.227301404
v 0.211962849 0.549965203 -0.070443258
v 0.218783945 0.563408613 -0.050981414
v 0.075878993 0.718833864 0.155017734
v 0.118523121 0.893069744 -0.181904361
v 0.095614552 0.897984982 -0.192220062
v 0.022279991 0.749682486 -0.235142186
v 0.223625094 0.558416605 -0.027965605
v 0.151855201 0.633621931 -0.179741561
v 0.217744738 0.631412745 -0.017788129
v 0.202239543 0.612339139 0.027329067
v 0.179851666 0.630964220 -0.140233308
v 0.170443356 0.633261502 -0.161578402
v 0.201199964 0.554840446 0.038023669
v 0.170091197 0.845680714 0.077103138
v 0.198006853 0.843416691 0.011837210
v 0.208445624 0.636718869 -0.066071905
v 0.058857042 0.576497912 -0.228579447
v 0.182999492 0.559000850 0.084033228
v 0.104173645 0.747800469 0.140062571
v 0.211603761 0.648087502 -0.002134503
v 0.203172043 0.639634132 0.021136690
v 0.110703528 0.647383273 -0.199536696
v 0.170508787 0.551941574 0.109670043
v 0.134813905 0.836708069 -0.176909655
v -0.000478255 0.748700142 0.188429415
v -0.000653955 0.646878541 0.193984896
v 0.066648141 0.638349712 0.163065165
v 0.148705989 0.549374163 0.127061531
v 0.160502091 0.840154052 -0.154536560
v -0.000548510 0.707978785 0.190665036
v -0.000443090 0.769057095 0.187312573
v 0.126529828 0.543804824 0.138357311
v 0.025022056 0.830094695 0.172623634
v -0.000339778 0.830115139 0.183999613
v 0.131077632 0.905387402 0.119911611
v 0.078739412 0.548715949 0.161219567
v 0.129321679 0.931529164 0.119461514
v 0.218345597 0.551002622 -0.005310223
v 0.123324677 0.751498878 0.130637079
v 0.039589595 0.927042603 -0.215690643
v 0.052580945 0.549404323 0.173823357
v 0.075391322 0.877571702 -0.202716663
v 0.024908014 0.553416371 0.186979562
v 0.043445621 0.576780677 0.177014664
v 0.048590597 0.801257432 -0.219850272
v 0.018395228 0.807664096 0.176828399
v 0.021396203 0.634908855 0.184728593
v -0.000687655 0.626507401 0.195087701
v -0.000583713 0.687614024 0.191774026
v 0.221924022 0.543523967 -0.045256067
v -0.000618883 0.667247176 0.192879125
v 0.090211824 0.581630766 -0.213141486
v 0.102444805 0.738915980 -0.198370606
v 0.124542907 0.755022645 -0.186773464
v 0.170284465 0.743885875 0.089890935
v 0.114975013 0.704546750 0.136770532
v 0.173825711 0.713924825 0.085759573
v 0.122174598 0.577530444 -0.197928950
v 0.210211247 0.544667244 0.016384225
f 555 540 123
f 389 162 497
f 567 540 568
f 583 104 251
f 463 489 430
f 453 94 255
f 483 484 162
f 446 640 671
f 574 577 251
f 50 244 238
f 52 244 50
f 575 57 53
f 55 249 52
f 55 2 250
f 577 248 563
f 575 437 432
f 57 597 589
f 2 265 262
f 589 592 57
f 262 259 2
f 5 267 262
f 602 606 589
f 5 9 11
f 58 606 610
f 11 272 5
f 12 278 11
f 565 793 8
f 630 60 632
f 13 425 12
f 424 289 160
f 289 424 13
f 643 649 60
f 181 403 179
f 483 206 484
f 163 651 174
f 53 563 558
f 651 65 650
f 163 389 384
f 683 66 65
f 455 558 563
f 165 384 171
f 340 331 34
f 67 66 683
f 206 470 63
f 385 102 856
f 67 702 70
f 344 340 696
f 179 403 406
f 710 70 702
f 16 352 14
f 111 112 59
f 63 64 655
f 18 368 16
f 710 742 753
f 119 112 111
f 394 671 545
f 551 922 903
f 19 375 18
f 753 740 711
f 406 470 179
f 261 615 108
f 545 453 439
f 178 386 530
f 24 386 23
f 72 753 742
f 26 396 24
f 768 765 72
f 119 142 112
f 32 63 470
f 112 142 161
f 399 400 396
f 154 343 182
f 545 671 448
f 399 415 400
f 768 770 765
f 32 406 410
f 418 415 399
f 770 183 777
f 387 300 166
f 415 418 422
f 105 86 299
f 169 42 839
f 170 142 119
f 173 172 705
f 329 638 343
f 134 738 737
f 185 638 329
f 692 661 145
f 150 74 741
f 637 345 873
f 132 145 661
f 170 184 142
f 138 495 760
f 138 136 188
f 136 194 188
f 201 87 194
f 270 87 205
f 216 49 210
f 46 216 724
f 198 184 170
f 43 96 907
f 219 39 218
f 45 43 41
f 224 37 219
f 498 224 514
f 86 105 342
f 225 36 514
f 378 107 110
f 80 233 107
f 22 41 43
f 198 217 849
f 41 581 45
f 103 233 76
f 76 40 103
f 222 217 214
f 678 100 40
f 98 41 22
f 366 41 98
f 40 76 678
f 215 4 284
f 215 98 21
f 537 536 92
f 222 234 217
f 904 537 92
f 460 462 30
f 284 471 366
f 222 239 246
f 586 903 759
f 462 28 30
f 246 234 222
f 454 449 28
f 237 391 924
f 560 319 921
f 246 888 252
f 431 471 282
f 455 560 391
f 319 560 241
f 50 238 793
f 50 566 52
f 52 574 55
f 258 263 510
f 244 52 249
f 55 253 2
f 284 792 657
f 303 670 667
f 303 100 674
f 250 249 55
f 273 274 252
f 251 253 574
f 100 303 301
f 301 570 100
f 104 261 257
f 677 100 678
f 273 285 274
f 257 2 253
f 2 257 265
f 250 2 259
f 570 568 40
f 752 292 293
f 294 296 285
f 285 296 274
f 684 497 679
f 277 274 296
f 440 447 442
f 579 489 463
f 692 329 695
f 259 262 267
f 871 736 360
f 262 271 9
f 40 100 570
f 570 567 568
f 203 128 270
f 310 296 294
f 305 296 310
f 87 270 194
f 9 5 262
f 5 272 600
f 276 9 271
f 9 276 11
f 272 11 278
f 302 323 310
f 568 103 40
f 108 615 89
f 280 11 276
f 11 280 12
f 103 568 540
f 278 12 425
f 323 337 328
f 283 12 280
f 12 283 13
f 283 297 289
f 289 13 283
f 540 561 231
f 425 13 424
f 209 288 205
f 291 125 286
f 346 337 323
f 49 304 288
f 173 350 351
f 297 654 314
f 347 158 864
f 304 47 311
f 47 304 49
f 47 46 481
f 360 361 855
f 501 684 146
f 481 311 47
f 46 39 481
f 343 695 329
f 314 289 297
f 289 314 160
f 481 321 308
f 481 39 321
f 325 122 321
f 325 321 37
f 37 321 39
f 333 160 314
f 324 266 333
f 527 107 231
f 84 121 325
f 36 327 498
f 160 333 34
f 327 120 84
f 36 82 371
f 277 393 390
f 689 34 333
f 34 689 340
f 313 34 331
f 266 334 689
f 334 260 341
f 340 335 331
f 107 527 110
f 54 404 405
f 696 14 344
f 61 401 44
f 38 299 407
f 358 14 348
f 14 358 16
f 344 14 352
f 356 704 712
f 352 16 368
f 413 62 417
f 370 16 358
f 16 370 18
f 175 705 134
f 713 115 110
f 371 27 378
f 27 371 82
f 381 18 370
f 18 381 19
f 368 18 375
f 80 378 27
f 19 381 235
f 19 395 23
f 19 23 178
f 202 506 913
f 23 395 24
f 386 24 396
f 398 24 395
f 24 398 26
f 26 398 220
f 26 412 399
f 396 26 399
f 418 399 412
f 164 180 444
f 444 443 164
f 175 173 705
f 685 84 120
f 422 300 415
f 685 121 84
f 172 169 300
f 172 300 422
f 78 80 27
f 226 365 78
f 89 615 114
f 240 485 309
f 134 737 175
f 226 27 82
f 245 459 452
f 187 186 140
f 243 459 245
f 189 187 130
f 581 466 579
f 467 472 637
f 308 122 240
f 138 579 466
f 430 255 463
f 499 435 430
f 453 430 435
f 435 440 439
f 435 499 450
f 243 479 281
f 308 321 122
f 897 438 584
f 439 453 435
f 243 281 893
f 450 440 435
f 480 859 865
f 440 449 447
f 442 439 440
f 450 449 440
f 447 449 454
f 492 488 493
f 127 458 456
f 449 456 28
f 82 225 708
f 454 28 462
f 28 456 30
f 456 450 127
f 30 456 458
f 225 82 36
f 30 464 460
f 506 507 502
f 126 469 125
f 287 508 509
f 207 507 506
f 410 460 32
f 126 306 477
f 460 464 644
f 644 32 460
f 32 644 63
f 475 31 576
f 470 406 32
f 64 63 644
f 306 309 477
f 125 464 458
f 528 795 511
f 516 523 524
f 655 206 63
f 206 655 484
f 206 474 470
f 162 679 497
f 316 322 822
f 313 160 34
f 37 498 325
f 523 316 534
f 497 684 501
f 501 146 505
f 146 512 503
f 505 503 513
f 263 515 510
f 512 120 115
f 503 512 91
f 517 513 503
f 115 713 91
f 458 203 125
f 315 547 548
f 91 512 115
f 547 330 336
f 91 713 88
f 517 88 522
f 552 548 547
f 532 88 713
f 88 532 519
f 552 336 553
f 522 519 541
f 527 231 561
f 127 128 458
f 538 660 692
f 514 36 498
f 224 498 37
f 538 692 695
f 114 626 631
f 553 342 105
f 219 37 39
f 555 660 561
f 127 450 499
f 891 199 824
f 660 555 661
f 218 39 46
f 199 97 886
f 366 98 284
f 22 21 98
f 41 366 581
f 43 232 22
f 907 232 43
f 96 536 907
f 45 463 255
f 45 581 463
f 255 94 96
f 255 96 45
f 94 453 545
f 448 546 545
f 582 593 594
f 595 584 438
f 216 46 47
f 216 47 49
f 551 640 558
f 558 640 569
f 49 288 209
f 793 565 50
f 569 53 558
f 566 50 565
f 209 210 49
f 841 351 350
f 574 52 566
f 578 53 57
f 612 609 423
f 53 578 563
f 575 53 569
f 597 432 211
f 253 55 574
f 57 575 597
f 578 57 592
f 592 583 578
f 627 609 612
f 584 621 628
f 603 589 606
f 602 589 597
f 634 819 627
f 610 606 602
f 835 318 229
f 626 606 58
f 610 624 58
f 58 624 630
f 632 58 630
f 634 884 869
f 58 632 626
f 60 642 632
f 642 60 649
f 60 630 181
f 650 649 643
f 662 652 645
f 656 628 621
f 621 636 656
f 658 659 204
f 64 644 469
f 466 495 138
f 694 377 700
f 468 471 431
f 663 650 65
f 628 656 668
f 679 162 484
f 65 686 663
f 672 673 659
f 686 65 66
f 683 65 651
f 468 431 478
f 683 693 67
f 685 146 684
f 146 685 512
f 696 340 689
f 66 67 701
f 473 495 478
f 66 698 686
f 702 67 693
f 668 675 687
f 701 698 66
f 405 690 54
f 701 67 70
f 54 690 564
f 14 696 348
f 711 70 710
f 699 70 711
f 702 709 710
f 229 318 236
f 657 282 471
f 710 709 742
f 753 756 740
f 756 753 72
f 742 754 72
f 72 754 768
f 72 765 756
f 766 765 770
f 490 193 496
f 130 772 496
f 770 776 766
f 15 719 168
f 87 201 148
f 183 770 768
f 201 194 136
f 422 705 172
f 633 777 338
f 777 633 150
f 408 74 633
f 638 185 408
f 106 730 258
f 688 379 694
f 275 631 118
f 185 692 145
f 197 750 749
f 736 737 738
f 263 258 730
f 738 741 743
f 185 145 143
f 743 741 744
f 744 741 74
f 744 467 879
f 132 140 145
f 123 132 661
f 741 738 150
f 123 540 567
f 773 772 567
f 738 134 150
f 78 27 226
f 238 623 1
f 264 279 779
f 776 150 134
f 134 705 420
f 695 541 538
f 104 599 261
f 365 681 680
f 761 762 763
f 365 678 76
f 76 78 365
f 411 156 420
f 156 411 220
f 541 519 538
f 220 764 156
f 76 233 78
f 80 78 233
f 168 789 387
f 70 699 701
f 398 395 228
f 434 437 445
f 779 780 887
f 428 432 434
f 926 317 706
f 197 749 745
f 213 6 4
f 279 785 780
f 419 427 428
f 148 201 745
f 454 462 419
f 526 782 783
f 381 734 235
f 410 414 419
f 493 769 913
f 511 4 215
f 4 511 213
f 406 414 410
f 208 731 729
f 21 511 215
f 210 728 727
f 794 800 823
f 511 21 529
f 470 474 179
f 724 218 46
f 227 110 115
f 118 280 275
f 219 218 722
f 806 800 794
f 803 804 256
f 716 778 225
f 224 219 720
f 407 86 690
f 356 734 381
f 389 497 380
f 809 795 528
f 810 806 811
f 717 716 514
f 497 501 380
f 317 697 429
f 810 818 821
f 913 771 202
f 341 698 699
f 373 376 159
f 369 177 373
f 341 260 698
f 260 334 266
f 365 226 681
f 517 522 354
f 828 821 818
f 354 362 364
f 569 640 446
f 519 522 88
f 767 828 818
f 266 324 676
f 602 597 211
f 804 834 256
f 121 240 122
f 345 868 918
f 610 602 211
f 169 839 166
f 427 195 211
f 643 179 174
f 683 651 165
f 693 683 171
f 627 884 634
f 324 654 676
f 846 397 841
f 841 397 374
f 362 709 369
f 580 397 846
f 192 188 190
f 192 499 489
f 128 192 190
f 270 205 203
f 205 288 286
f 291 306 126
f 208 148 733
f 288 304 291
f 304 311 306
f 311 481 308
f 286 125 203
f 283 118 297
f 589 599 592
f 283 280 118
f 227 115 120
f 747 805 732
f 707 226 82
f 107 378 80
f 275 114 631
f 118 646 297
f 89 114 275
f 231 233 103
f 87 209 205
f 816 872 870
f 271 108 89
f 248 560 455
f 248 241 560
f 108 271 265
f 566 565 241
f 86 876 690
f 622 244 619
f 517 91 88
f 574 566 248
f 715 662 889
f 244 249 618
f 249 250 614
f 882 465 718
f 253 251 257
f 774 465 882
f 250 259 608
f 883 494 774
f 921 391 560
f 259 267 604
f 54 564 847
f 251 577 583
f 600 267 5
f 89 276 271
f 503 91 517
f 690 405 407
f 275 276 89
f 892 573 582
f 272 278 596
f 248 577 574
f 280 276 275
f 425 588 591
f 425 424 781
f 781 313 572
f 424 313 781
f 572 585 781
f 314 654 324
f 136 197 201
f 313 557 572
f 237 551 558
f 554 331 335
f 334 341 348
f 760 136 138
f 335 344 549
f 341 699 704
f 348 696 334
f 921 319 7
f 358 348 704
f 344 352 544
f 912 582 594
f 903 586 551
f 352 368 543
f 381 370 356
f 368 375 539
f 788 8 3
f 535 375 178
f 221 795 809
f 828 767 562
f 559 833 920
f 921 920 899
f 546 448 898
f 903 922 836
f 38 903 299
f 235 228 395
f 405 669 407
f 546 92 94
f 400 518 520
f 92 546 904
f 639 35 926
f 386 396 525
f 927 926 33
f 928 605 930
f 200 490 298
f 94 545 546
f 96 92 536
f 927 56 852
f 143 472 408
f 220 412 26
f 400 520 521
f 412 220 411
f 109 113 152
f 920 832 559
f 418 412 411
f 152 113 746
f 387 789 786
f 420 418 411
f 746 161 867
f 418 420 422
f 490 773 298
f 496 772 773
f 394 442 445
f 562 767 832
f 739 636 820
f 204 725 658
f 773 490 496
f 725 223 635
f 447 454 428
f 472 186 637
f 215 284 98
f 189 130 496
f 458 464 30
f 410 462 460
f 125 469 464
f 635 247 487
f 487 269 629
f 641 487 629
f 268 269 487
f 269 393 629
f 390 269 268
f 469 126 64
f 349 761 763
f 655 64 477
f 303 674 670
f 290 393 277
f 611 290 928
f 163 474 483
f 928 307 605
f 635 641 648
f 531 605 533
f 677 674 100
f 477 309 485
f 506 202 207
f 679 485 240
f 240 121 684
f 312 912 594
f 684 679 240
f 121 685 684
f 186 187 345
f 503 505 146
f 912 332 892
f 772 130 132
f 685 120 512
f 501 505 159
f 725 648 658
f 505 513 373
f 513 517 364
f 892 847 564
f 110 527 713
f 714 847 339
f 522 541 154
f 51 714 346
f 231 103 540
f 714 51 404
f 541 695 343
f 567 772 123
f 502 500 506
f 578 577 563
f 867 659 673
f 577 578 583
f 597 575 432
f 592 104 583
f 913 492 493
f 845 167 839
f 599 104 592
f 386 178 23
f 599 603 615
f 110 227 378
f 615 261 599
f 706 402 639
f 603 626 114
f 132 123 772
f 624 610 195
f 409 706 317
f 746 673 682
f 114 615 603
f 120 327 227
f 624 414 403
f 691 429 697
f 642 631 632
f 642 118 631
f 429 433 853
f 646 118 642
f 642 649 646
f 152 682 691
f 682 433 691
f 181 643 60
f 654 297 646
f 122 325 121
f 140 130 187
f 421 416 617
f 123 661 555
f 309 308 240
f 698 260 686
f 702 693 177
f 698 701 699
f 672 441 436
f 291 126 125
f 109 691 697
f 143 140 186
f 874 872 816
f 665 441 672
f 188 192 489
f 665 658 653
f 712 704 699
f 653 451 665
f 927 697 317
f 712 740 734
f 648 461 653
f 178 375 19
f 923 880 116
f 641 461 648
f 740 756 748
f 748 758 228
f 926 706 639
f 479 641 482
f 754 742 362
f 354 754 362
f 407 669 38
f 203 458 128
f 482 629 620
f 756 765 758
f 182 754 154
f 128 127 192
f 254 246 252
f 611 382 620
f 764 398 228
f 499 192 127
f 764 766 156
f 766 776 156
f 930 611 928
f 420 156 776
f 140 132 130
f 788 7 8
f 387 166 168
f 420 776 134
f 136 760 197
f 300 387 415
f 750 197 760
f 745 201 197
f 148 208 209
f 733 148 745
f 258 35 106
f 593 533 605
f 731 208 733
f 236 318 910
f 729 210 208
f 728 210 729
f 727 216 210
f 188 489 579
f 929 573 556
f 724 216 727
f 573 929 582
f 723 218 724
f 722 218 723
f 720 219 722
f 717 224 720
f 514 224 717
f 188 579 138
f 876 556 573
f 707 681 226
f 898 904 546
f 472 143 186
f 212 795 221
f 899 391 921
f 854 925 931
f 213 795 212
f 140 143 145
f 404 54 714
f 833 922 924
f 415 387 786
f 143 408 185
f 238 3 793
f 1 3 238
f 31 799 752
f 622 238 244
f 918 799 515
f 380 376 171
f 915 752 357
f 617 476 421
f 619 244 618
f 618 249 616
f 616 249 614
f 636 739 613
f 388 613 10
f 614 250 608
f 357 791 915
f 383 688 388
f 608 259 607
f 571 438 576
f 295 667 666
f 92 96 94
f 607 259 604
f 372 726 700
f 667 295 303
f 367 726 372
f 604 267 601
f 298 295 207
f 923 875 880
f 363 732 367
f 408 467 74
f 148 209 87
f 298 301 295
f 359 747 363
f 601 267 600
f 359 355 755
f 600 272 598
f 598 272 596
f 353 755 355
f 301 298 773
f 596 278 591
f 747 755 751
f 591 278 425
f 588 425 781
f 388 688 813
f 769 771 913
f 763 353 349
f 202 771 200
f 506 500 913
f 74 467 744
f 773 570 301
f 82 708 707
f 320 647 326
f 500 492 913
f 331 554 557
f 242 910 320
f 344 335 340
f 910 908 647
f 554 335 550
f 239 222 703
f 549 550 335
f 549 344 544
f 166 167 168
f 544 352 543
f 543 368 542
f 17 15 167
f 17 845 157
f 907 536 919
f 157 850 155
f 155 850 153
f 542 368 539
f 150 633 74
f 153 854 151
f 151 854 149
f 149 858 147
f 147 862 144
f 539 375 535
f 759 903 38
f 530 535 178
f 144 862 141
f 141 866 139
f 139 866 137
f 530 386 525
f 137 870 135
f 525 396 521
f 135 870 872
f 133 872 131
f 131 874 129
f 129 923 117
f 923 874 875
f 170 119 902
f 521 396 400
f 20 932 101
f 99 101 932
f 99 886 97
f 95 97 199
f 95 891 93
f 93 896 90
f 518 400 786
f 90 896 85
f 85 901 83
f 83 905 81
f 169 166 300
f 81 905 79
f 77 79 796
f 77 909 75
f 439 394 545
f 75 914 73
f 73 914 71
f 71 916 69
f 442 394 439
f 468 466 366
f 442 447 434
f 7 562 920
f 794 534 811
f 924 899 833
f 434 447 428
f 428 454 419
f 419 462 410
f 38 898 759
f 902 111 897
f 466 468 495
f 526 524 534
f 25 59 56
f 96 43 45
f 895 401 61
f 182 343 338
f 483 389 163
f 483 162 389
f 897 59 25
f 883 894 775
f 776 777 150
f 59 897 111
f 380 384 389
f 774 882 893
f 111 902 119
f 778 708 225
f 501 159 380
f 167 166 839
f 159 505 373
f 176 191 867
f 373 513 369
f 364 369 513
f 850 890 925
f 354 364 517
f 354 522 154
f 177 369 709
f 154 541 343
f 446 445 437
f 376 380 159
f 204 223 725
f 217 198 214
f 214 703 222
f 437 569 446
f 610 211 195
f 414 624 195
f 403 630 624
f 889 718 715
f 160 313 424
f 181 630 403
f 888 246 239
f 179 643 181
f 174 650 643
f 651 650 174
f 163 384 165
f 487 247 268
f 165 651 163
f 171 683 165
f 174 474 163
f 557 313 331
f 475 515 799
f 376 693 171
f 285 273 757
f 177 693 376
f 627 885 884
f 174 179 474
f 509 508 516
f 294 302 310
f 709 702 177
f 709 362 742
f 154 754 354
f 182 338 183
f 780 785 803
f 183 768 182
f 423 413 881
f 183 338 777
f 638 338 343
f 633 638 408
f 590 401 895
f 692 185 329
f 190 188 194
f 515 475 25
f 270 190 194
f 190 270 128
f 195 427 414
f 7 788 562
f 915 878 571
f 877 595 438
f 203 205 286
f 44 48 61
f 474 206 483
f 210 209 208
f 61 62 895
f 413 895 62
f 211 432 427
f 172 42 169
f 398 764 220
f 515 263 918
f 437 575 569
f 228 758 764
f 124 885 426
f 175 871 350
f 84 498 327
f 225 514 716
f 327 371 227
f 918 263 730
f 898 448 759
f 371 327 36
f 839 374 890
f 227 371 378
f 451 441 665
f 228 235 748
f 444 180 457
f 233 231 107
f 187 868 345
f 759 448 586
f 189 292 868
f 734 748 235
f 653 461 826
f 924 922 237
f 292 193 196
f 446 671 394
f 461 641 479
f 922 551 237
f 391 237 455
f 482 641 629
f 918 868 799
f 196 200 293
f 771 293 200
f 558 455 237
f 281 287 894
f 894 893 281
f 248 566 241
f 257 251 104
f 255 430 453
f 257 261 265
f 509 775 287
f 260 266 676
f 509 516 524
f 265 261 108
f 523 516 531
f 322 316 523
f 273 252 888
f 265 271 262
f 811 534 316
f 316 315 811
f 676 686 260
f 366 466 581
f 478 495 468
f 330 547 315
f 547 336 552
f 366 471 468
f 760 495 473
f 657 471 284
f 336 342 553
f 553 900 552
f 832 900 553
f 865 878 791
f 792 284 4
f 31 571 576
f 286 288 291
f 438 571 877
f 906 864 863
f 4 790 792
f 8 7 319
f 303 295 301
f 291 304 306
f 570 773 567
f 739 617 392
f 617 416 392
f 306 311 309
f 309 311 308
f 170 628 668
f 613 739 10
f 739 392 10
f 656 675 668
f 656 815 675
f 680 678 365
f 813 613 388
f 324 333 314
f 687 198 668
f 379 688 383
f 295 666 207
f 815 656 636
f 377 694 379
f 325 498 84
f 689 333 266
f 334 696 689
f 700 377 372
f 861 834 860
f 703 721 239
f 732 726 367
f 834 861 256
f 348 341 704
f 747 732 363
f 356 358 704
f 735 888 721
f 370 358 356
f 735 264 757
f 735 273 888
f 755 747 359
f 369 364 362
f 353 763 755
f 647 761 326
f 761 349 326
f 376 373 177
f 779 757 264
f 780 779 279
f 384 380 171
f 235 395 19
f 736 871 737
f 562 788 917
f 910 647 320
f 785 804 803
f 414 406 403
f 256 323 803
f 813 675 815
f 415 786 400
f 427 419 414
f 422 420 705
f 432 428 427
f 430 489 499
f 587 580 590
f 437 434 432
f 445 442 434
f 446 394 445
f 671 586 448
f 819 609 627
f 456 449 450
f 455 563 248
f 865 791 769
f 581 579 463
f 645 652 817
f 644 464 469
f 652 662 715
f 874 923 129
f 715 664 652
f 694 812 688
f 477 64 126
f 750 760 473
f 485 655 477
f 465 715 718
f 507 207 666
f 465 774 494
f 865 486 480
f 812 675 813
f 485 484 655
f 207 202 298
f 883 504 825
f 493 865 769
f 783 782 504
f 679 484 485
f 202 200 298
f 196 490 200
f 196 193 490
f 877 859 476
f 302 803 323
f 189 496 193
f 814 806 810
f 168 719 789
f 821 814 810
f 391 899 924
f 713 527 532
f 467 408 472
f 302 294 887
f 786 787 518
f 538 519 532
f 561 532 527
f 926 35 33
f 538 532 660
f 540 555 561
f 551 586 640
f 319 241 565
f 660 532 561
f 113 161 746
f 161 176 867
f 8 319 565
f 223 247 635
f 781 585 784
f 620 629 393
f 887 780 302
f 269 390 393
f 671 640 586
f 781 784 588
f 599 589 603
f 393 290 611
f 626 603 606
f 928 290 305
f 623 238 622
f 625 1 623
f 774 893 894
f 312 332 912
f 626 632 631
f 332 339 847
f 847 892 332
f 757 887 285
f 847 714 54
f 793 3 8
f 732 807 726
f 858 931 857
f 675 812 687
f 168 167 15
f 273 735 757
f 920 921 7
f 402 385 639
f 167 845 17
f 638 633 338
f 646 649 663
f 650 663 649
f 845 850 157
f 888 239 721
f 663 654 646
f 706 409 48
f 850 854 153
f 676 654 663
f 429 409 317
f 661 692 660
f 854 858 149
f 676 663 686
f 858 862 147
f 433 429 691
f 678 680 677
f 699 711 712
f 712 734 356
f 711 710 753
f 862 866 141
f 712 711 740
f 682 436 827
f 734 740 748
f 866 870 137
f 214 687 808
f 748 756 758
f 664 816 652
f 872 133 135
f 198 687 214
f 754 182 768
f 872 874 131
f 665 659 658
f 758 765 766
f 658 648 653
f 766 764 758
f 776 770 777
f 668 198 170
f 117 923 116
f 787 786 789
f 929 330 822
f 533 822 322
f 556 336 330
f 531 322 523
f 899 920 833
f 662 444 889
f 346 323 256
f 491 482 620
f 116 880 911
f 911 20 116
f 382 491 620
f 911 932 20
f 932 886 99
f 645 443 662
f 930 382 611
f 382 930 516
f 886 824 199
f 605 531 930
f 491 508 848
f 628 170 902
f 256 347 346
f 482 848 479
f 891 896 93
f 347 256 861
f 820 617 739
f 866 819 817
f 605 594 593
f 896 901 85
f 929 593 582
f 612 881 885
f 901 905 83
f 826 451 653
f 451 457 180
f 672 659 665
f 441 180 851
f 79 905 796
f 436 673 672
f 436 851 827
f 909 914 75
f 682 673 436
f 914 916 71
f 584 902 897
f 876 86 342
f 69 916 1
f 829 433 827
f 700 808 694
f 788 3 916
f 853 829 417
f 409 61 48
f 402 48 855
f 870 817 816
f 855 29 360
f 874 816 664
f 385 361 102
f 830 880 875
f 576 897 25
f 819 634 817
f 68 69 1
f 106 856 730
f 743 736 738
f 910 242 236
f 862 857 819
f 744 879 102
f 880 830 831
f 840 528 843
f 401 846 44
f 803 302 780
f 769 791 357
f 878 915 791
f 831 911 880
f 918 873 345
f 576 25 475
f 799 31 475
f 841 29 846
f 879 856 102
f 106 639 385
f 573 564 876
f 911 831 802
f 342 556 876
f 337 339 332
f 25 510 515
f 350 29 841
f 564 573 892
f 892 582 912
f 510 25 56
f 864 906 837
f 312 328 337
f 929 822 593
f 33 35 258
f 871 360 29
f 840 860 835
f 864 158 863
f 29 855 44
f 916 914 917
f 808 687 812
f 594 307 312
f 307 305 328
f 916 917 788
f 33 56 927
f 840 835 809
f 307 594 605
f 736 743 361
f 531 516 930
f 290 277 305
f 852 109 927
f 318 835 860
f 21 844 529
f 852 59 112
f 620 393 611
f 102 743 744
f 112 113 852
f 751 763 762
f 647 785 762
f 805 747 751
f 252 268 254
f 230 835 229
f 487 641 635
f 637 879 467
f 124 851 164
f 809 230 221
f 161 142 176
f 807 732 805
f 247 234 254
f 230 809 835
f 808 700 807
f 345 637 186
f 176 184 191
f 812 694 808
f 204 849 223
f 849 204 191
f 813 688 812
f 635 648 725
f 849 184 198
f 815 613 813
f 815 636 613
f 217 223 849
f 659 191 204
f 217 234 223
f 191 184 849
f 859 480 421
f 795 213 511
f 245 461 243
f 878 865 859
f 802 886 932
f 191 659 867
f 452 718 889
f 223 234 247
f 176 142 184
f 246 254 234
f 865 493 486
f 293 771 357
f 268 247 254
f 771 769 357
f 805 264 735
f 268 252 390
f 161 113 112
f 486 493 488
f 390 252 274
f 867 673 746
f 264 751 279
f 274 277 390
f 746 682 152
f 281 848 287
f 827 433 682
f 808 703 214
f 152 691 109
f 109 852 113
f 476 859 421
f 296 305 277
f 476 595 877
f 305 307 928
f 196 293 292
f 595 476 820
f 726 807 700
f 752 293 357
f 307 328 312
f 310 328 305
f 56 59 852
f 292 752 799
f 328 310 323
f 886 825 824
f 312 337 332
f 807 703 808
f 891 824 782
f 193 292 189
f 844 21 22
f 429 853 409
f 109 697 927
f 56 33 510
f 105 559 553
f 339 337 346
f 346 714 339
f 51 346 347
f 317 926 927
f 564 690 876
f 863 844 232
f 799 868 292
f 510 33 258
f 843 528 529
f 844 863 842
f 861 840 843
f 861 158 347
f 861 860 840
f 752 915 31
f 158 843 842
f 843 158 861
f 842 529 844
f 919 837 906
f 906 232 907
f 809 528 840
f 730 873 918
f 730 856 873
f 873 856 879
f 856 106 385
f 817 634 645
f 837 919 838
f 817 652 816
f 919 906 907
f 919 536 537
f 743 102 361
f 904 669 838
f 898 669 904
f 669 898 38
f 703 807 721
f 405 404 838
f 669 405 838
f 922 833 836
f 294 285 887
f 361 385 402
f 869 645 634
f 830 875 664
f 916 3 1
f 864 51 347
f 402 855 361
f 909 801 914
f 397 890 374
f 48 44 855
f 796 909 77
f 879 637 873
f 901 798 905
f 580 925 397
f 48 402 706
f 896 800 901
f 891 823 896
f 409 62 61
f 853 62 409
f 881 413 417
f 417 62 853
f 86 407 299
f 459 893 882
f 199 891 95
f 830 465 831
f 829 426 417
f 426 829 124
f 426 881 417
f 124 829 827
f 433 829 853
f 886 802 825
f 774 894 883
f 851 124 827
f 164 884 124
f 441 851 436
f 180 164 851
f 443 869 164
f 911 802 932
f 715 830 664
f 874 664 875
f 736 361 360
f 451 180 441
f 457 452 889
f 889 444 457
f 866 817 870
f 106 35 639
f 459 718 452
f 826 452 457
f 452 826 245
f 451 826 457
f 862 819 866
f 858 857 862
f 461 245 826
f 459 882 718
f 479 243 461
f 854 931 858
f 850 925 854
f 846 401 580
f 845 890 850
f 491 848 482
f 848 281 479
f 825 494 883
f 382 508 491
f 900 832 767
f 508 287 848
f 896 823 800
f 839 890 845
f 504 782 824
f 42 374 839
f 516 508 382
f 908 910 318
f 534 524 523
f 552 818 548
f 42 172 173
f 901 800 798
f 818 552 900
f 533 322 531
f 871 175 737
f 868 187 189
f 22 232 844
f 593 822 533
f 822 315 316
f 929 556 330
f 330 315 822
f 838 919 537
f 904 838 537
f 318 860 834
f 908 318 834
f 465 830 715
f 556 342 336
f 105 836 559
f 833 559 836
f 29 44 846
f 908 834 804
f 562 917 828
f 299 836 105
f 818 900 767
f 832 553 559
f 562 832 920
f 811 315 548
f 828 801 821
f 801 828 917
f 821 797 814
f 836 299 903
f 401 590 580
f 797 821 801
f 905 798 796
f 796 814 797
f 810 548 818
f 814 798 806
f 798 814 796
f 909 796 797
f 811 548 810
f 413 587 590
f 404 51 837
f 51 864 837
f 837 838 404
f 909 797 801
f 529 842 843
f 158 842 863
f 232 906 863
f 800 806 798
f 529 528 511
f 794 811 806
f 785 908 804
f 785 647 908
f 859 877 878
f 526 534 794
f 877 571 878
f 571 31 915
f 173 351 42
f 524 783 509
f 350 173 175
f 29 350 871
f 823 526 794
f 783 524 526
f 526 823 782
f 42 351 374
f 841 374 351
f 504 775 783
f 509 783 775
f 782 823 891
f 885 124 884
f 887 757 779
f 914 801 917
f 426 885 881
f 890 397 925
f 825 504 824
f 775 504 883
f 925 587 931
f 587 925 580
f 802 494 825
f 785 279 762
f 494 831 465
f 831 494 802
f 894 287 775
f 590 895 413
f 438 897 576
f 884 164 869
f 762 279 751
f 423 931 587
f 587 413 423
f 931 423 857
f 762 761 647
f 617 820 476
f 595 820 621
f 751 755 763
f 893 459 243
f 751 264 805
f 609 857 423
f 423 881 612
f 662 443 444
f 721 805 735
f 621 584 595
f 857 609 819
f 443 645 869
f 612 885 627
f 636 621 820
f 628 902 584
f 805 721 807
