# avbd fit, rung f60-i32-s600 of Gate 6d (body space, fit phase only)
v -0.002911846 0.708706975 0.052530818
v -0.112782791 0.730945408 0.076919265
v -0.002763992 0.721950054 0.054766707
v -0.000441378 0.936563671 0.087149486
v -0.162846074 0.719150484 0.065069117
v 0.004764575 0.934870899 0.100813806
v -0.002618886 0.748017907 0.058020979
v -0.002654744 0.734964311 0.057264309
v -0.163631380 0.733970523 0.066295728
v 0.130764797 0.959036469 -0.101775147
v -0.183190405 0.730804086 0.058943223
v -0.197703287 0.732922494 0.039402697
v -0.205948383 0.733423471 0.022486875
v -0.176250771 0.721930325 -0.079110228
v 0.013395712 0.686571062 -0.080510646
v -0.158453912 0.717260718 -0.087010913
v 0.028491274 0.686549783 -0.081444547
v -0.141167849 0.716221154 -0.095351890
v -0.123927616 0.718448639 -0.104118541
v 0.206898525 0.696954668 0.012669724
v -0.000367721 0.920575023 0.069572940
v -0.000400211 0.907584488 0.068832971
v -0.104797885 0.712921679 -0.104903221
v -0.090180904 0.717962086 -0.100779295
v 0.095916875 0.863337815 -0.143478602
v -0.074665740 0.724655688 -0.098140776
v -0.120242104 0.927652836 -0.127522022
v -0.126540810 0.869804204 0.053817473
v 0.042192526 0.766625583 -0.099696532
v -0.137941748 0.879356384 0.046666931
v 0.067797273 0.887872577 -0.149040952
v -0.172422335 0.863957524 0.029715374
v 0.088266239 0.830611229 -0.132827953
v -0.208665609 0.725716412 -0.032342378
v 0.073822647 0.824759007 -0.123853467
v -0.144523174 0.934692502 -0.105617084
v -0.164607719 0.936445415 -0.067374542
v 0.013856882 0.825700164 0.063819803
v -0.165515035 0.941104710 -0.047923230
v -0.069700852 0.921589732 -0.143157631
v -0.026182711 0.911325455 0.068083808
v 0.014965236 0.732683778 -0.091955684
v -0.016574286 0.895169139 0.066945717
v 0.064307235 0.771178126 -0.103133596
v -0.036138706 0.896888256 0.066148713
v -0.164043471 0.947077453 -0.029332548
v -0.165818945 0.935599208 -0.015307704
v 0.073687546 0.787959397 -0.106542483
v -0.154255539 0.938295960 0.001744970
v -0.042226806 0.726426303 0.058863055
v 0.054834664 0.875005603 0.062084507
v -0.064675070 0.728051960 0.062724642
v -0.077148564 0.795908809 0.066039853
v 0.057262648 0.844599068 0.055942275
v -0.086853936 0.728483200 0.067640111
v 0.103585705 0.844255447 -0.136526152
v -0.100215994 0.795064807 0.075397022
v -0.169936106 0.807617962 0.061852764
v 0.118366122 0.858879924 -0.134521112
v -0.195874646 0.806001544 0.029252971
v 0.085015729 0.774757147 -0.106977478
v 0.104863092 0.773019135 -0.112167574
v -0.180543125 0.871999443 0.012259265
v -0.173122197 0.886890531 0.008861905
v -0.206606835 0.800778508 -0.035927661
v -0.197934747 0.792598128 -0.060043208
v -0.187189892 0.800396442 -0.077112563
v 0.009857642 0.708702207 0.057690404
v 0.014990514 0.697363257 0.051549554
v -0.172911122 0.787443936 -0.093374431
v 0.030151159 0.697574854 0.053177960
v -0.114501581 0.791074157 -0.115988865
v 0.045323048 0.697626889 0.055789717
v -0.018338088 0.812536240 -0.110354088
v 0.060515296 0.697759748 0.058828175
v -0.087224677 0.925157249 -0.140290469
v 0.075584300 0.697905779 0.062506042
v -0.103502572 0.927752674 -0.134150982
v 0.090469480 0.698089600 0.066673890
v -0.112349235 0.916091800 -0.134577766
v 0.104847930 0.698223829 0.071887240
v -0.126732647 0.941487610 -0.117644109
v 0.118744470 0.698284149 0.077436715
v -0.162671968 0.909265876 -0.089897633
v 0.135033876 0.698562205 0.074973002
v 0.044150148 0.815660477 0.063449696
v -0.126989245 0.935660839 0.038825840
v -0.122682735 0.856612682 -0.131358474
v -0.162698194 0.759141028 0.067215167
v 0.147809476 0.698717952 0.069990493
v -0.140447438 0.866751194 -0.122665547
v -0.016362913 0.861301720 0.061064444
v 0.161369458 0.699384391 0.064722560
v -0.035457779 0.864624977 0.060866069
v 0.174920365 0.699493289 0.059435360
v -0.022581289 0.878636718 0.064855658
v 0.188945085 0.699289441 0.052796133
v -0.016546896 0.925225556 0.069132470
v 0.195699424 0.698986113 0.039472550
v -0.057165690 0.932805717 -0.138524011
v 0.201851323 0.698189318 0.026578808
v 0.027041644 0.813386321 -0.111273803
v -0.081850864 0.909436345 -0.146872967
v -0.110448457 0.765165746 0.078296311
v 0.038670354 0.799742639 0.058394331
v 0.056983978 0.824481130 -0.122647151
v -0.111568570 0.901276469 -0.138500482
v -0.144934803 0.755408049 0.072863899
v 0.125249177 0.829014003 -0.113690987
v -0.126805380 0.893435776 -0.132486746
v 0.133280337 0.870733619 -0.128538460
v 0.138650790 0.856029212 -0.117796756
v 0.138674647 0.840019345 -0.110372268
v -0.167605415 0.774665713 0.065993890
v -0.141826928 0.885860801 -0.121774353
v 0.206850246 0.695690215 -0.001445497
v 0.206768185 0.694247842 -0.014594482
v -0.198433518 0.767481148 0.035065137
v 0.147424355 0.872887135 -0.117094472
v -0.154478759 0.897650421 -0.106690191
v -0.170931503 0.899199605 -0.072187282
v -0.173196301 0.910976589 -0.057314545
v -0.053561300 0.879429519 -0.147595242
v 0.159517318 0.772027850 -0.096393541
v -0.146717414 0.899764657 0.023198163
v -0.163001388 0.898839474 0.007237460
v -0.107790664 0.890759766 0.049066544
v -0.117500581 0.904289901 0.044946082
v 0.206709817 0.692918777 -0.028601136
v -0.019164229 0.869667530 -0.142763153
v 0.199354127 0.691641867 -0.042207610
v -0.037979025 0.866731763 -0.143538848
v 0.190550163 0.690234244 -0.053562246
v -0.023255100 0.773332655 -0.099087790
v 0.181716040 0.688586473 -0.064909175
v -0.096077099 0.937502265 0.052372850
v 0.169804931 0.687036872 -0.074251384
v -0.078835912 0.932575405 0.060411137
v 0.156517595 0.685985565 -0.080076054
v -0.020105505 0.854723275 -0.139338881
v 0.143192753 0.684696138 -0.085853994
v 0.157665431 0.864827812 -0.103598490
v -0.021527361 0.840826690 -0.131922841
v 0.130752161 0.683911681 -0.091361172
v -0.040375508 0.850979686 -0.139440566
v -0.165839300 0.871148288 -0.090646461
v 0.117575489 0.683120847 -0.097204953
v -0.127767041 0.951484084 0.034285802
v 0.101420961 0.683459818 -0.097425632
v -0.027766734 0.794190824 -0.103230163
v 0.087433532 0.684483826 -0.092546239
v 0.141508445 0.824979901 -0.107609138
v 0.073000140 0.685295105 -0.088768512
v -0.100732371 0.826072872 -0.119235858
v 0.058284633 0.685849071 -0.085780360
v -0.062783442 0.758727372 -0.101214685
v 0.043456741 0.686311007 -0.083181314
v 0.045597866 0.902449906 0.065902665
v -0.177512378 0.847519219 -0.083351664
v -0.209755465 0.733371794 -0.012258717
v 0.153031528 0.848673046 -0.102229282
v -0.188718706 0.865876675 -0.039188344
v -0.199839771 0.838755727 -0.027943471
v 0.180752277 0.768224835 -0.083115973
v -0.200978547 0.827226758 -0.045731597
v -0.001725207 0.711713195 -0.086525291
v 0.017386647 0.701485336 -0.084525689
v -0.001801030 0.699037790 -0.083361670
v -0.001577848 0.724392891 -0.089716353
v 0.159316331 0.885632992 -0.102300741
v -0.191901252 0.828762174 -0.064447567
v -0.001466344 0.737176418 -0.092580512
v -0.001365026 0.750097394 -0.094979085
v -0.203122213 0.828294754 -0.007756023
v -0.001192277 0.763155818 -0.096962102
v 0.166112229 0.856657326 -0.093723685
v -0.170551628 0.821299851 -0.095710829
v -0.113774441 0.699400306 -0.103491507
v -0.194397584 0.837172389 0.018107045
v 0.189696237 0.784201980 -0.071414821
v -0.191345528 0.821738422 0.028669719
v -0.087610915 0.813251495 -0.114193544
v -0.074486218 0.801582038 -0.109600410
v 0.167200148 0.872115254 -0.085191227
v -0.042129960 0.836713493 -0.130900264
v 0.000377992 0.845943809 -0.134295642
v 0.000523190 0.857768893 -0.139591753
v -0.090467073 0.919374645 0.057088904
v 0.000627557 0.870420933 -0.142255992
v -0.107523404 0.915278435 0.049180008
v 0.178240567 0.854646862 -0.078562573
v -0.097552687 0.903345108 0.054303933
v 0.000714149 0.883247852 -0.143885925
v -0.109702840 0.929630101 0.046509072
v -0.150659889 0.827331662 0.063856885
v 0.000806947 0.896137536 -0.143030867
v -0.105540261 0.949911892 0.055795681
v 0.168545663 0.891036987 -0.074896544
v 0.183410421 0.714593053 0.057798296
v 0.000863537 0.908885002 -0.141042903
v -0.113176778 0.945424378 0.043737002
v 0.000913846 0.921467423 -0.137952626
v -0.133748919 0.908479035 0.034944057
v 0.188749462 0.851441741 -0.061047774
v -0.137720689 0.925213039 0.030002644
v -0.191555157 0.865105152 -0.005260508
v 0.000998845 0.933607280 -0.133236527
v -0.139306992 0.955838680 0.022333283
v -0.140523240 0.940335929 0.020422865
v -0.148858622 0.953331769 0.005139712
v -0.132739723 0.820308328 0.070092313
v 0.031840455 0.938182056 0.095177054
v 0.017518630 0.937502205 0.097746119
v 0.174401492 0.904757798 -0.054908108
v -0.000498554 0.932509065 0.074304745
v -0.159956187 0.951015115 -0.011345915
v 0.178787768 0.885343432 -0.052005012
v -0.160171956 0.955100060 -0.042767990
v -0.158817083 0.951753497 -0.059355795
v -0.072085693 0.742050827 -0.100845575
v 0.046314374 0.939303398 0.091847390
v 0.173692793 0.895761371 -0.036277495
v 0.188822776 0.864970684 -0.042940088
v -0.155434638 0.949057877 -0.076254755
v -0.136278257 0.949575067 -0.105171129
v -0.109449014 0.941626191 -0.126975790
v -0.141238600 0.904803157 -0.119573236
v -0.102748528 0.745777011 -0.109341383
v 0.074836403 0.942629993 0.082987145
v 0.060658436 0.940762401 0.087751880
v -0.094173744 0.895709395 -0.145754233
v -0.000379629 0.894601166 0.067530885
v -0.098593690 0.912637711 -0.141631559
v 0.182720706 0.879966378 -0.030962568
v -0.122539245 0.738183737 -0.108789518
v 0.088615976 0.944941819 0.077390805
v -0.024984632 0.790360093 0.058784734
v -0.027728487 0.712722123 0.053416271
v 0.172094673 0.904500961 -0.021349611
v -0.172367156 0.895201504 -0.047718279
v -0.038119745 0.751551330 0.060176332
v 0.102121636 0.947336555 0.070710979
v 0.209767014 0.794961393 -0.003680544
v -0.052212138 0.712226272 0.057552356
v 0.208554387 0.793233633 -0.022098640
v 0.177344114 0.891286552 -0.016576296
v 0.190342814 0.865122437 -0.019129220
v -0.054908197 0.761919498 0.063088365
v -0.077400662 0.713035762 0.063486971
v -0.100712121 0.714922667 0.070962586
v -0.093702711 0.756396770 0.071022466
v 0.176930696 0.885315299 0.006363313
v -0.096203893 0.742062688 0.071047112
v 0.184606254 0.878573239 -0.011742086
v -0.045371823 0.882164955 0.063433446
v 0.085964389 0.900761247 0.059454404
v -0.111826621 0.749233842 0.077764615
v 0.068883553 0.833711743 -0.133339524
v -0.124296829 0.714368939 0.079081327
v -0.200596213 0.764295459 -0.053593408
v -0.129576877 0.759989858 0.077701651
v -0.141793460 0.728466690 0.073584594
v 0.061005782 0.844515681 -0.141609281
v 0.148289159 0.922320545 0.016800668
v -0.132574171 0.743854225 0.077132836
v -0.207866386 0.752508759 -0.043534804
v -0.146232992 0.712742686 0.070787050
v 0.188951045 0.869701207 0.002897369
v 0.187807307 0.857294261 0.015363814
v -0.122700155 0.919838548 0.041142859
v -0.152944669 0.744379699 0.070553526
v -0.179093868 0.713762939 0.058680635
v 0.161575109 0.895606399 0.012409060
v 0.165109605 0.881826401 0.024904119
v -0.184717491 0.763516307 0.060151279
v -0.174863681 0.747207463 0.063418373
v 0.164776176 0.867134929 0.037403345
v -0.193929419 0.716932178 0.045266561
v 0.135197088 0.926295757 0.033567164
v -0.194044709 0.748608053 0.048719388
v 0.206365660 0.792044282 0.018583208
v -0.047434814 0.938880622 0.091551915
v -0.203665495 0.748653769 0.029028606
v -0.020264665 0.939169586 0.079455383
v 0.151101977 0.892004669 0.027952781
v -0.145370051 0.914267242 0.022771137
v 0.195812866 0.787803113 0.037596479
v -0.149306849 0.926300526 0.013508265
v -0.210805535 0.742447436 0.008030764
v 0.164348453 0.853972733 0.048387621
v -0.154898539 0.911695600 0.008717040
v 0.022851083 0.882096112 -0.144232556
v 0.023485310 0.899599254 -0.143458307
v 0.138427287 0.889783978 0.040501352
v -0.021738855 0.933244407 -0.134596378
v 0.152746126 0.880370319 0.042417824
v -0.210900262 0.760271668 0.013064747
v -0.017015662 0.917204082 -0.139712065
v 0.024345376 0.812969804 0.060692418
v -0.017141687 0.722391486 -0.089470632
v -0.036093775 0.922307849 -0.139911085
v 0.121660158 0.893864989 0.041845351
v -0.040001400 0.937329769 -0.135616720
v -0.161264628 0.923465252 -0.002376479
v 0.144545048 0.863601983 0.053131528
v -0.165195167 0.907952189 -0.007147167
v 0.131450057 0.849294960 0.061747503
v -0.173790962 0.914372265 -0.039225701
v -0.172346860 0.902372003 -0.025610974
v 0.129442558 0.879065633 0.048128571
v -0.169951946 0.919342399 -0.020335693
v 0.111920163 0.853866577 0.064343520
v -0.208634332 0.714789748 -0.017128259
v -0.210790247 0.750592530 -0.007868139
v 0.103911325 0.782082915 0.076956704
v 0.126122519 0.782917261 0.077484831
v 0.100450799 0.809437394 -0.112964630
v 0.079074636 0.944214463 0.060128350
v -0.019482139 0.750274956 0.058570027
v 0.114868656 0.950105786 0.063389905
v -0.169244081 0.925678372 -0.053211905
v 0.132877782 0.798117876 0.073963225
v 0.104263082 0.884227157 0.050379179
v -0.210200161 0.756929100 -0.023406882
v -0.167557091 0.919270515 -0.072925813
v 0.125823706 0.952902436 0.054767035
v -0.150848866 0.916885853 -0.105255306
v 0.120952666 0.866623759 0.056813538
v -0.060691915 0.832469106 -0.131773680
v 0.092122197 0.796957254 0.072742119
v -0.204690129 0.709456265 -0.039461855
v 0.092732832 0.854545414 0.066380151
v -0.209662393 0.742043555 -0.027727783
v -0.195263460 0.746742249 -0.059809089
v -0.193001315 0.704760432 -0.053844910
v 0.072241679 0.792417347 0.067999348
v 0.099421903 0.867092490 0.056975372
v -0.062856272 0.813268661 -0.113432430
v 0.082153469 0.862271965 0.058936607
v -0.197327837 0.719795048 -0.051155366
v -0.186647519 0.758235335 -0.071955241
v 0.058460165 0.803249240 0.061800908
v -0.076262675 0.824308991 -0.124519482
v -0.183097705 0.709509015 -0.068071030
v 0.019676916 0.849233270 -0.136764511
v 0.079805791 0.879419446 0.059891813
v 0.062971130 0.892899215 0.062429477
v -0.182701439 0.740342021 -0.075537138
v 0.136820897 0.954763114 0.043773279
v 0.021032605 0.758145571 -0.096773624
v 0.022450486 0.744450986 -0.094660349
v -0.165989295 0.704596221 -0.080602102
v 0.145658210 0.958062351 0.031464204
v -0.121087089 0.828801453 -0.114914216
v 0.151645809 0.962446094 0.017782619
v -0.153707147 0.743523479 -0.094659276
v 0.043471653 0.907998264 -0.144970328
v -0.166688010 0.734118819 -0.086496502
v 0.155733839 0.966287255 0.003813781
v 0.034445792 0.781891704 -0.101217449
v 0.037293363 0.798381209 -0.105008684
v -0.135712534 0.817784309 -0.110557660
v 0.157095462 0.967610061 -0.010781886
v -0.138254791 0.833493114 -0.108532324
v -0.093130141 0.940410614 -0.132428691
v -0.037105642 0.930208981 0.068452314
v 0.155601293 0.966604352 -0.025245216
v -0.147568315 0.701387167 -0.088788860
v -0.153408900 0.827170193 -0.103064097
v -0.151563928 0.728807330 -0.092863798
v -0.136175066 0.923008740 -0.118006073
v 0.153650165 0.965159774 -0.038408332
v -0.167307526 0.837888598 -0.096107721
v 0.034971252 0.732195914 -0.093229100
v -0.130238488 0.701726496 -0.096756674
v -0.182253867 0.832925916 -0.081242301
v 0.152544260 0.964457989 -0.052423805
v -0.126545399 0.911207080 -0.129951641
v 0.149723262 0.963464141 -0.065983698
v -0.187303871 0.847786129 -0.066229239
v -0.137710184 0.732598126 -0.100525998
v 0.177880943 0.819535553 0.050795417
v 0.144998461 0.962197304 -0.078698218
v -0.197154298 0.839744925 -0.051743537
v 0.047653791 0.813121617 -0.112322822
v -0.095161475 0.701066673 -0.099181339
v -0.018753149 0.706246495 -0.085560575
v 0.138756916 0.960727692 -0.090902492
v -0.194051147 0.853456974 -0.044402935
v 0.176672995 0.869028211 0.020294184
v -0.019340610 0.776258767 0.061995298
v 0.120844498 0.957123578 -0.110625707
v 0.178167075 0.851379395 0.032562993
v -0.062975079 0.840570331 0.061660547
v -0.104797140 0.728036463 -0.107983686
v -0.076043427 0.705615520 -0.094052181
v 0.055552714 0.735236585 -0.096534550
v -0.088408001 0.735315681 -0.104045488
v -0.057723951 0.718288124 -0.093126446
v -0.055480748 0.701945364 -0.088767752
v 0.076479390 0.758709729 -0.103634618
v 0.059925385 0.800550342 -0.107456818
v -0.180191964 0.831984162 0.040754117
v 0.044657778 0.857436180 0.058177777
v 0.037630841 0.841193795 0.053841747
v -0.177675664 0.848621726 0.035078317
v 0.031275593 0.828878880 0.064262524
v -0.025313064 0.826596737 -0.120844223
v 0.097794138 0.790614188 -0.110998616
v -0.162100166 0.858217120 0.047769301
v -0.055554211 0.745263577 -0.098251395
v -0.060893308 0.732515752 -0.096988156
v 0.107932962 0.751966655 -0.110985473
v -0.161941737 0.842066586 0.057160687
v -0.036835112 0.717168927 -0.089671329
v 0.110466145 0.955506325 -0.117081329
v 0.125046998 0.767789006 -0.112154782
v -0.044387978 0.733585894 -0.094594568
v -0.141411915 0.850123107 0.058690935
v -0.039398927 0.755909741 -0.097708985
v 0.098628663 0.953663647 -0.122727372
v -0.025570747 0.737227380 -0.093399987
v 0.119107462 0.732957006 -0.109272182
v -0.209506899 0.726137519 0.004877900
v -0.203144461 0.717459500 0.026202669
v 0.140743241 0.765742362 -0.104254067
v -0.135551721 0.835441411 0.065228596
v -0.118714236 0.843228042 0.066478483
v 0.117458738 0.800815940 -0.116512679
v -0.066600725 0.885838866 0.061240882
v -0.061792213 0.940389454 0.087736115
v -0.111545011 0.826171041 0.073309347
v 0.138305068 0.796877742 -0.108636379
v -0.097908869 0.838976026 0.072197132
v -0.077558078 0.872979283 0.059408121
v 0.171927154 0.804584682 -0.094001278
v -0.085852690 0.822960377 0.068393052
v 0.107522644 0.899258316 -0.140099853
v -0.069083378 0.856709838 0.058161300
v -0.090265267 0.862570107 0.059565395
v 0.186727926 0.800828934 -0.077323280
v -0.083495721 0.848686397 0.064851522
v 0.187073916 0.756102085 -0.070765212
v 0.193277448 0.768873990 -0.062842987
v -0.078867443 0.834859014 0.065396711
v -0.064704798 0.823894858 0.061419856
v -0.104349032 0.853605151 0.065840021
v -0.024450500 0.831897557 0.053565152
v -0.109587118 0.866583526 0.057427786
v -0.097647190 0.876298904 0.052481227
v 0.197791666 0.799852014 -0.059443355
v 0.208485574 0.779892802 -0.033513024
v -0.056181282 0.868539631 0.060027879
v -0.123994514 0.857394218 0.059816353
v -0.041488852 0.778740942 0.063758433
v -0.117903806 0.878941536 0.048367076
v 0.200836986 0.782816529 -0.053137928
v -0.129341990 0.891992688 0.038813241
v 0.209908366 0.779241979 -0.013999772
v -0.157785505 0.873217940 0.041447546
v 0.205342621 0.812238991 -0.019852895
v -0.142537385 0.864748359 0.052632861
v -0.056859057 0.899738193 0.063855127
v -0.150746092 0.887486577 0.034741990
v 0.210514829 0.748277903 -0.008307165
v -0.059309334 0.930216134 0.065041736
v -0.000015614 0.825056851 -0.118483879
v -0.055793203 0.943757415 0.072425976
v -0.159901097 0.890088856 0.019986494
v -0.187886864 0.856103420 0.015781526
v -0.039996374 0.942390144 0.080112256
v 0.000175782 0.835258484 -0.126809761
v -0.090079553 0.944423199 0.077627063
v -0.199564338 0.847298324 -0.004942929
v 0.075411543 0.873362064 -0.148841396
v 0.107810244 0.932052732 -0.130647853
v -0.175316855 0.895509362 -0.008677503
v -0.076022483 0.942193151 0.083108582
v 0.207230538 0.811717212 0.004721563
v 0.085512623 0.951839328 -0.126062304
v -0.170417458 0.930890203 -0.033885431
v 0.197437584 0.823917210 0.019426217
v -0.194077745 0.856711507 -0.023614231
v -0.186596796 0.872811317 -0.023911435
v -0.179042459 0.887822628 -0.026878143
v 0.071961202 0.950525939 -0.128508016
v 0.197119191 0.853041291 -0.002876388
v 0.058078639 0.949416339 -0.129901260
v -0.078106359 0.902196884 0.061149873
v -0.013912360 0.900258899 -0.142922997
v 0.188384950 0.816789985 0.035511624
v 0.044165775 0.948378086 -0.130455017
v 0.053810734 0.937761188 -0.136283726
v 0.208942771 0.743322670 0.017918842
v -0.072756879 0.945770264 0.066842727
v -0.018032350 0.885208428 -0.144293889
v -0.184971929 0.865554214 -0.058554381
v -0.157681137 0.930428386 -0.087903365
v -0.087679528 0.888624847 0.057548333
v 0.029764643 0.947164178 -0.129640728
v -0.176659197 0.862430215 -0.076867044
v 0.015344230 0.945844352 -0.127890319
v -0.153151885 0.860189259 -0.107232079
v 0.192363024 0.750978708 0.051933460
v -0.165514380 0.854562163 -0.094829045
v 0.015637029 0.936414719 -0.132059097
v 0.000937560 0.943767905 -0.125037521
v 0.186316013 0.802447677 0.046903424
v 0.185223699 0.784281850 0.056866746
v 0.082188271 0.845791221 -0.142321259
v 0.015441743 0.936961293 0.075709961
v -0.155859813 0.879058719 -0.108151831
v -0.151024535 0.844139099 -0.103188172
v -0.147714987 0.948128045 -0.091965578
v 0.066310957 0.858399749 -0.146131724
v 0.167478547 0.800741076 0.064286090
v -0.134033233 0.848262787 -0.116871610
v -0.046204526 0.686730444 -0.083900884
v -0.105170451 0.848984063 -0.137572721
v -0.060689103 0.686429381 -0.086661652
v -0.075072080 0.686009705 -0.089852490
v -0.115033969 0.838832378 -0.127214998
v 0.147391766 0.788975298 0.071310148
v 0.162605196 0.776741862 0.068103388
v -0.089143813 0.685317039 -0.093911774
v 0.156265035 0.756567836 0.069660738
v -0.108484410 0.884384334 -0.140494853
v 0.034190454 0.934021354 0.068981349
v 0.021807898 0.922589779 0.068862319
v -0.102887653 0.684465885 -0.098603614
v 0.147517890 0.808712304 0.068419710
v -0.103018738 0.865396321 -0.141552001
v 0.129708454 0.811793208 0.072801203
v 0.140430897 0.769461036 0.074738726
v -0.118745051 0.684496522 -0.097350672
v -0.000389263 0.868744493 0.064396523
v -0.000356619 0.856473565 0.059564531
v -0.087126896 0.848690510 -0.142283291
v -0.131738544 0.685538232 -0.091724880
v -0.072719000 0.891415238 -0.148800775
v -0.094559759 0.834589839 -0.134049922
v -0.144072086 0.686396599 -0.086349770
v -0.157171756 0.687810421 -0.080775701
v -0.170301825 0.688893437 -0.075098917
v -0.045358948 0.848796844 0.057530262
v -0.022664893 0.848084569 0.056031566
v 0.086519480 0.783067882 0.071003817
v 0.090683453 0.768108547 0.071479604
v -0.181881204 0.690618277 -0.065611474
v -0.190686911 0.692369819 -0.054422211
v -0.026428113 0.806042552 0.058914859
v 0.071545981 0.775881171 0.068004891
v 0.051872890 0.785787165 0.065357961
v -0.199421436 0.693894386 -0.043281436
v -0.070513934 0.875138402 -0.149513021
v 0.077937089 0.807927012 0.066636913
v -0.207042962 0.695193172 -0.030261990
v -0.050736792 0.796775401 0.060392041
v 0.030530021 0.784600973 0.062907800
v -0.030094901 0.764137864 0.060579836
v -0.089465380 0.878917992 -0.147395894
v 0.028091272 0.749317825 0.059779771
v -0.063617133 0.780580759 0.066972360
v 0.068223201 0.835205674 0.067033783
v -0.030435899 0.738695979 0.059004910
v -0.052411042 0.742027044 0.061792023
v -0.051269073 0.896000266 -0.146516532
v -0.064987265 0.906283379 -0.148174524
v -0.068756089 0.810318470 0.069993421
v -0.051251579 0.914214253 -0.144429475
v 0.085877843 0.901430607 -0.147328690
v -0.207166821 0.696561038 -0.016222682
v 0.081764683 0.823458850 0.070337847
v -0.074362621 0.746481121 0.066023886
v -0.093166955 0.809569657 0.072567485
v 0.093400285 0.884047151 -0.145811170
v -0.076609969 0.765977740 0.067524031
v -0.085866630 0.782216489 0.071155064
v -0.068573013 0.916269422 0.063127548
v 0.074396953 0.740807712 -0.100967303
v -0.047202103 0.914319813 0.066780791
v 0.099826276 0.829233825 0.074766025
v -0.095081136 0.770289898 0.072257265
v 0.128265589 0.899601579 -0.131240010
v -0.207236886 0.697576523 -0.003128371
v -0.024819592 0.820615411 0.064937122
v 0.094464839 0.733843923 -0.105251886
v -0.202796653 0.700166643 0.024577565
v -0.127208188 0.792685986 0.075675823
v 0.089378729 0.748925984 -0.105267964
v -0.196755201 0.700846076 0.037362166
v -0.107806221 0.780764699 0.077877529
v 0.115941703 0.820971787 0.074318990
v 0.118096903 0.837108970 0.068880662
v 0.117593095 0.915544331 -0.132215127
v -0.190665260 0.701032519 0.050097514
v -0.116529845 0.808847785 0.076560400
v -0.176997617 0.700946033 0.058144700
v -0.129211873 0.776052356 0.077114001
v -0.163606673 0.700737596 0.063429713
v -0.150169119 0.699962258 0.068710037
v -0.135532469 0.806837261 0.071632780
v -0.148689210 0.783913851 0.071096390
v -0.137586609 0.699649453 0.073671222
v 0.137016803 0.828522563 0.067505956
v -0.151111394 0.799023867 0.068612710
v -0.122233056 0.699039519 0.078053966
v -0.108003005 0.698876083 0.072622783
v 0.136888891 0.728467822 -0.099662960
v -0.151998430 0.813808262 0.065814078
v 0.172234818 0.837628722 0.050185770
v 0.136793658 0.741422057 -0.102057718
v 0.141425237 0.945387065 -0.102708302
v -0.094060659 0.698539734 0.067134894
v -0.147322118 0.768883348 0.072174683
v -0.079545394 0.698121667 0.062884286
v 0.116802171 0.944594204 -0.122911856
v -0.064906493 0.697770953 0.058925647
v -0.050138932 0.697390974 0.055665366
v 0.184681788 0.832657635 0.034282263
v 0.135630116 0.915680051 -0.121482611
v -0.035406478 0.697085977 0.052867245
v -0.020808987 0.696575284 0.051147811
v -0.169112712 0.824271321 0.059067838
v -0.016902938 0.708575606 0.056504376
v -0.169988036 0.791401744 0.064634912
v 0.151638612 0.738346219 -0.094323382
v 0.147274584 0.901120842 -0.113740720
v 0.194128618 0.841419578 0.017254028
v -0.183095053 0.815238774 0.044691391
v -0.188356429 0.780962408 0.051548205
v -0.186844692 0.798755825 0.047968306
v -0.039678328 0.811493576 -0.111026958
v 0.168022931 0.735355496 -0.085535660
v 0.197681442 0.848772407 -0.022961430
v 0.138486907 0.930521309 -0.112576626
v 0.014261981 0.836611867 -0.128284782
v -0.049864169 0.823658824 -0.121476039
v 0.067637116 0.814486980 -0.114250481
v -0.046357460 0.814328492 0.067112654
v 0.202406079 0.831550598 -0.005601204
v -0.198957473 0.787745416 0.031787697
v -0.203599498 0.817467332 0.012613902
v -0.166752517 0.878404498 0.025282849
v 0.184719235 0.739848971 -0.072145246
v -0.209907621 0.778932333 0.013301407
v 0.109466136 0.946357727 0.045529176
v 0.201131418 0.830628753 -0.030478751
v -0.209381789 0.798763096 0.011444326
v -0.206996918 0.808064282 -0.011363624
v -0.203547031 0.818621635 -0.029385233
v 0.194640681 0.733491719 -0.057038564
v 0.203166917 0.815876603 -0.044354513
v -0.210563272 0.768487334 -0.008190830
v -0.184030041 0.880948842 -0.007315041
v 0.149671286 0.916952729 -0.106355324
v -0.032973580 0.937179089 0.094688453
v 0.196165890 0.832435906 -0.054836154
v 0.184838578 0.834642708 -0.075482182
v -0.078553967 0.862041116 -0.146724224
v -0.056689244 0.862618089 -0.145717576
v 0.197199345 0.751100779 -0.057018906
v -0.209520310 0.787349820 -0.015348302
v 0.204482704 0.726055562 -0.042256199
v 0.193007976 0.816920757 -0.064975761
v -0.013364559 0.945933163 -0.127670079
v -0.027763337 0.947452545 -0.129398227
v 0.161963433 0.905028343 -0.094092108
v 0.018185418 0.836553454 0.053021796
v -0.042128485 0.948955059 -0.130299658
v -0.045482196 0.828744411 0.056507267
v 0.183463842 0.816271961 -0.081699386
v 0.171114683 0.823305488 -0.094915718
v -0.056246541 0.949972749 -0.129821450
v 0.159114510 0.923090756 -0.089475222
v -0.209295303 0.769972444 -0.031096825
v -0.070222631 0.951221466 -0.128480226
v -0.076674640 0.937523365 -0.136736393
v -0.182073027 0.879480004 -0.045114525
v -0.083601877 0.952653050 -0.126083821
v -0.096579283 0.954579175 -0.122810639
v 0.153618395 0.811559677 -0.102332972
v -0.198243588 0.811424553 -0.057328381
v -0.173416838 0.880601287 -0.068427689
v -0.164975375 0.889731526 -0.089187525
v -0.206995696 0.782361031 -0.045183495
v 0.168580323 0.914380252 -0.073917150
v 0.154324591 0.950791717 -0.076991886
v -0.202448890 0.735837102 -0.047624510
v 0.049765006 0.832114875 0.065435149
v 0.133474857 0.812420487 -0.111114740
v -0.062020294 0.846728802 -0.142777398
v -0.185481697 0.816575706 -0.078917824
v 0.160315216 0.948071778 -0.061662994
v -0.076311484 0.836084008 -0.135948345
v -0.189468831 0.729099452 -0.063764885
v 0.115952767 0.816467881 -0.115162835
v -0.192679048 0.774905384 -0.065182522
v -0.176351547 0.769436181 -0.088442743
v 0.163355082 0.947595596 -0.044735637
v -0.186521530 0.784806132 -0.077320658
v -0.172007486 0.804795384 -0.094576232
v 0.173231125 0.915820599 -0.035141658
v -0.171415195 0.751146257 -0.087471604
v -0.018431071 0.753557801 -0.095851049
v 0.081581086 0.803659141 -0.110299207
v -0.108496666 0.956439793 -0.117372990
v -0.119059764 0.958332181 -0.110699214
v -0.153447941 0.810655415 -0.102896020
v -0.154223204 0.793886423 -0.102008149
v -0.155901790 0.776786387 -0.099502817
v -0.155742332 0.759946525 -0.096510656
v -0.124864779 0.875440419 -0.134235471
v 0.064540967 0.861227512 0.058556102
v 0.209524035 0.745562553 -0.036195122
v -0.137387022 0.961809754 -0.091161326
v -0.143997401 0.963138282 -0.079221368
v 0.209998295 0.763075948 -0.024680192
v -0.001832807 0.686333954 -0.080276653
v -0.148801476 0.964367032 -0.066330642
v 0.168686613 0.918591678 -0.013101501
v -0.151923940 0.965199947 -0.052774169
v -0.153333157 0.965402424 -0.038664203
v -0.157805875 0.968033314 -0.026190381
v 0.197197720 0.846802413 -0.042607255
v 0.161774501 0.952437520 -0.029756587
v -0.159118786 0.968323231 -0.011539880
v -0.157356739 0.966062665 0.002939911
v -0.154134840 0.962916374 0.017760539
v 0.049533255 0.835881710 -0.131950185
v -0.147060186 0.959433377 0.031138644
v 0.161760941 0.949334621 -0.013873594
v -0.138313025 0.956669033 0.043699525
v -0.137998298 0.749713719 -0.103247330
v 0.158289939 0.912716091 0.003899699
v 0.017863778 0.787039638 -0.101245366
v -0.000937943 0.776264071 -0.099121556
v -0.000630019 0.789501786 -0.101285897
v 0.129712462 0.944541097 -0.113251828
v -0.137839437 0.766594172 -0.106215581
v -0.000409674 0.802179217 -0.105357766
v -0.134879455 0.800975025 -0.110752918
v 0.016029876 0.801572680 -0.105335727
v -0.000194313 0.814220309 -0.110901617
v -0.127715409 0.954107404 0.054913450
v 0.155525401 0.832017303 -0.101101458
v 0.152183086 0.949621856 0.001388294
v -0.121342935 0.755683243 -0.112254836
v -0.116651580 0.950572610 0.063364409
v -0.103845477 0.947186828 0.071162127
v 0.142866150 0.938900828 0.018056747
v 0.044714056 0.891201675 -0.145453483
v -0.136447713 0.783732355 -0.108929731
v -0.112291738 0.810524940 -0.115111411
v 0.142893463 0.954818368 0.014288416
v -0.118051983 0.773246408 -0.115569986
v 0.149103403 0.905287385 0.018797260
v -0.099640876 0.763070405 -0.110147312
v -0.001162216 0.823742509 0.063959405
v -0.089301415 0.947967350 0.061533988
v 0.123525359 0.953595936 0.039583195
v 0.128096864 0.940286815 0.037852310
v 0.133157268 0.952845216 0.027320746
v -0.084385067 0.753030360 -0.104622170
v -0.096244343 0.780085444 -0.110625148
v -0.078119740 0.769735217 -0.105392471
v 0.048577499 0.757186532 0.062724359
v -0.094399646 0.797229290 -0.110850893
v 0.046254255 0.923450470 -0.140678197
v -0.073780537 0.786352992 -0.106729306
v 0.024722364 0.915402710 -0.140866920
v -0.036142670 0.883623242 -0.145348847
v -0.032944791 0.903136909 -0.143689290
v 0.210929006 0.760634780 0.012860963
v 0.193171993 0.769590080 0.045142762
v -0.049875759 0.776736081 -0.101916887
v -0.053525962 0.796902001 -0.106093943
v -0.129316002 0.960401833 -0.101950839
v 0.140793324 0.913351655 0.029864136
v 0.125624746 0.910954654 0.040598635
v -0.208323926 0.711355865 0.004276582
v 0.171984375 0.743026435 0.064749472
v 0.177130505 0.763295352 0.063399278
v -0.207319096 0.699029744 0.010663174
v 0.114763714 0.926327527 0.045453466
v -0.035242036 0.699976325 -0.085312143
v -0.031557739 0.686788976 -0.081997506
v 0.015544565 0.733277202 0.057625663
v -0.016807832 0.686701596 -0.080659293
v -0.005896389 0.932734311 0.100186542
v 0.061313130 0.917623043 -0.144191489
v -0.018635688 0.935603261 0.097019978
v -0.021557616 0.726467490 0.056705333
v 0.134890288 0.750568867 0.076597996
v 0.031066999 0.940409660 0.082452863
v 0.088389434 0.715267956 0.067430303
v 0.075903542 0.726108074 0.065461300
v 0.108853236 0.725463510 0.075562812
v 0.048079602 0.872136235 -0.146154746
v 0.131348863 0.731201053 0.077960134
v 0.057303220 0.727421165 0.061864145
v 0.205370948 0.726481557 0.023074271
v 0.108462051 0.904438674 0.050029874
v 0.097853810 0.917537510 0.053857137
v 0.158527225 0.932370305 -0.001028392
v 0.111547291 0.743144691 0.077859521
v 0.168695763 0.934595406 -0.027214756
v 0.168828279 0.928098321 -0.052930944
v 0.046764620 0.942963600 0.076439276
v 0.092863925 0.751335084 0.070969246
v 0.113224700 0.763432682 0.079926327
v 0.162730888 0.933723092 -0.074031256
v 0.153221548 0.941161335 -0.089637615
v 0.092747584 0.734087646 0.070053771
v 0.149852961 0.931532502 -0.101473309
v 0.191419974 0.716437042 -0.057640739
v 0.176938102 0.720280349 -0.077709414
v 0.070684575 0.757803202 0.066490874
v 0.151212424 0.718923509 -0.090477772
v 0.125056088 0.930470586 -0.124219321
v 0.073718831 0.740912557 0.066053808
v 0.113866031 0.800778985 0.078533299
v 0.151631981 0.736375570 0.071291871
v 0.188295513 0.731389880 0.056926303
v 0.198940724 0.737734079 0.037607767
v 0.206734926 0.798517168 -0.039561071
v 0.157225281 0.791885436 -0.100044563
v 0.052257735 0.742794752 0.062207393
v 0.141040951 0.780647576 -0.106288888
v 0.209359214 0.732356846 -0.019615738
v 0.209735245 0.730728626 0.001996751
v 0.037510481 0.769085586 0.062240046
v 0.012488570 0.784639895 0.061533432
v 0.082151987 0.922592759 0.060738988
v 0.062477678 0.944623291 0.070169680
v 0.018360160 0.798597932 0.056524388
v 0.033310361 0.869893730 0.063251823
v 0.021959946 0.853150189 0.057910424
v 0.022680145 0.717430294 -0.088757679
v 0.052040495 0.931404591 0.066603705
v 0.039998740 0.748675942 -0.096847750
v 0.029959833 0.909749150 0.067886643
v 0.042247675 0.918871224 0.067923710
v 0.014120501 0.908650756 0.068430476
v 0.037761062 0.703035057 -0.086655036
v 0.058582503 0.753564894 -0.100020386
v 0.075329110 0.848110855 0.059825994
v 0.197489411 0.805636585 0.027205175
v 0.179095268 0.870192826 -0.065887615
v 0.061682940 0.702594697 -0.090321206
v 0.176052183 0.785897374 -0.090987220
v 0.122154690 0.842907310 -0.123307571
v 0.122143723 0.784655809 -0.114800572
v 0.086750597 0.701583922 -0.095932171
v 0.052706383 0.784836888 -0.103398681
v 0.038599350 0.825304210 -0.120776966
v 0.125990003 0.714829862 -0.101856843
v 0.110976741 0.699720025 -0.103504039
v 0.090387657 0.934601605 -0.135860294
v 0.067853317 0.931175411 0.063004956
v 0.063504845 0.912986636 0.064150609
v 0.135307685 0.700422466 -0.093703374
v 0.025157198 0.896437764 0.066740327
v 0.040599599 0.886211097 0.064703465
v 0.071166754 0.933207810 -0.138330474
v 0.158767119 0.702302098 -0.083185248
v 0.170690119 0.841460586 -0.093664154
v 0.023749528 0.864463329 -0.142140657
v 0.178371981 0.749999583 -0.082772121
v 0.179583699 0.703403831 -0.071023889
v 0.019189533 0.772437692 -0.098915890
v 0.190937310 0.701772809 -0.055339176
v 0.031399135 0.837558389 -0.130363300
v 0.202619404 0.707918465 -0.041120499
v 0.208426163 0.718160510 -0.026513925
v 0.063112594 0.819221318 0.066955402
v 0.099031098 0.917162240 -0.139642805
v 0.079769529 0.918488145 -0.143400759
v 0.019486902 0.825432122 -0.119344100
v 0.208683401 0.716634870 -0.008683749
v 0.129177272 0.752585292 -0.107606493
v 0.210528940 0.765524507 -0.005747861
v 0.201411754 0.756135464 0.032494463
v 0.163687348 0.753805280 -0.091077141
v 0.147301763 0.753785729 -0.098980717
v 0.195916623 0.718362451 0.041503441
v 0.136798307 0.899953842 0.032395624
v 0.170029387 0.902025878 -0.003567298
v 0.205397397 0.764850378 -0.046450861
v 0.048755012 0.718319356 -0.091719374
v 0.166666418 0.721339047 0.064425871
v 0.085814133 0.838563263 0.068578884
v 0.210704163 0.778079093 0.005899425
v 0.203103572 0.773967624 0.026297171
v 0.093161888 0.761819482 -0.107654773
v 0.146226957 0.716276169 0.071326941
v 0.116248451 0.880525231 -0.137350321
v -0.000688623 0.831596255 0.053660788
v -0.002171807 0.773809075 0.061105222
v 0.056150496 0.769438624 0.064795636
v 0.126528949 0.714060903 0.078927621
v 0.139346242 0.886175632 -0.123580359
v -0.001425762 0.811647773 0.059218992
v -0.000487386 0.844495475 0.054543316
v 0.105995357 0.710277498 0.073264346
v 0.019488763 0.882185161 0.065461710
v -0.000363840 0.881668925 0.065963782
v 0.096355177 0.934170425 0.052913804
v 0.066771045 0.712925553 0.061712183
v 0.096433997 0.949126840 0.058462013
v 0.208316877 0.713542521 0.008889931
v 0.102401756 0.842989445 0.070404485
v 0.032859098 0.931898117 -0.135973439
v 0.044600926 0.713153481 0.057204086
v 0.063861057 0.903283954 -0.147733450
v 0.021174364 0.715754867 0.053942472
v 0.036281776 0.730126023 0.059087746
v 0.042357743 0.852636456 -0.140036330
v 0.014587034 0.867740750 0.063506857
v 0.017020123 0.766536117 0.060433924
v -0.002408965 0.760983527 0.059167188
v -0.001681436 0.799086988 0.056166243
v 0.207901925 0.705832660 -0.020501757
v -0.001999320 0.786745667 0.060337596
v 0.074943066 0.720767617 -0.096884765
v 0.086963214 0.819641769 -0.117433324
v 0.105347812 0.829473019 -0.120423451
v 0.151132509 0.842949033 0.059819244
v 0.095971093 0.812762380 0.074252896
v 0.158825502 0.823800683 0.062706046
v 0.100636408 0.716679692 -0.103709385
v 0.202923089 0.710892797 0.026062334
f 555 540 123
f 389 162 497
f 567 540 568
f 583 104 251
f 463 489 430
f 453 94 255
f 483 484 162
f 446 640 671
f 574 577 251
f 50 244 238
f 52 244 50
f 575 57 53
f 55 249 52
f 55 2 250
f 577 248 563
f 575 437 432
f 57 597 589
f 2 265 262
f 589 592 57
f 262 259 2
f 5 267 262
f 602 606 589
f 5 9 11
f 58 606 610
f 11 272 5
f 12 278 11
f 565 793 8
f 630 60 632
f 13 425 12
f 424 289 160
f 289 424 13
f 643 649 60
f 181 403 179
f 483 206 484
f 163 651 174
f 53 563 558
f 651 65 650
f 163 389 384
f 683 66 65
f 455 558 563
f 165 384 171
f 340 331 34
f 67 66 683
f 206 470 63
f 385 102 856
f 67 702 70
f 344 340 696
f 179 403 406
f 710 70 702
f 16 352 14
f 111 112 59
f 63 64 655
f 18 368 16
f 710 742 753
f 119 112 111
f 394 671 545
f 551 922 903
f 19 375 18
f 753 740 711
f 406 470 179
f 261 615 108
f 545 453 439
f 178 386 530
f 24 386 23
f 72 753 742
f 26 396 24
f 768 765 72
f 119 142 112
f 32 63 470
f 112 142 161
f 399 400 396
f 154 343 182
f 545 671 448
f 399 415 400
f 768 770 765
f 32 406 410
f 418 415 399
f 770 183 777
f 387 300 166
f 415 418 422
f 105 86 299
f 169 42 839
f 170 142 119
f 173 172 705
f 329 638 343
f 134 738 737
f 185 638 329
f 692 661 145
f 150 74 741
f 637 345 873
f 132 145 661
f 170 184 142
f 138 495 760
f 138 136 188
f 136 194 188
f 201 87 194
f 270 87 205
f 216 49 210
f 46 216 724
f 198 184 170
f 43 96 907
f 219 39 218
f 45 43 41
f 224 37 219
f 498 224 514
f 86 105 342
f 225 36 514
f 378 107 110
f 80 233 107
f 22 41 43
f 198 217 849
f 41 581 45
f 103 233 76
f 76 40 103
f 222 217 214
f 678 100 40
f 98 41 22
f 366 41 98
f 40 76 678
f 215 4 284
f 215 98 21
f 537 536 92
f 222 234 217
f 904 537 92
f 460 462 30
f 284 471 366
f 222 239 246
f 586 903 759
f 462 28 30
f 246 234 222
f 454 449 28
f 237 391 924
f 560 319 921
f 246 888 252
f 431 471 282
f 455 560 391
f 319 560 241
f 50 238 793
f 50 566 52
f 52 574 55
f 258 263 510
f 244 52 249
f 55 253 2
f 284 792 657
f 303 670 667
f 303 100 674
f 250 249 55
f 273 274 252
f 251 253 574
f 100 303 301
f 301 570 100
f 104 261 257
f 677 100 678
f 273 285 274
f 257 2 253
f 2 257 265
f 250 2 259
f 570 568 40
f 752 292 293
f 294 296 285
f 285 296 274
f 684 497 679
f 277 274 296
f 440 447 442
f 579 489 463
f 692 329 695
f 259 262 267
f 871 736 360
f 262 271 9
f 40 100 570
f 570 567 568
f 203 128 270
f 310 296 294
f 305 296 310
f 87 270 194
f 9 5 262
f 5 272 600
f 276 9 271
f 9 276 11
f 272 11 278
f 302 323 310
f 568 103 40
f 108 615 89
f 280 11 276
f 11 280 12
f 103 568 540
f 278 12 425
f 323 337 328
f 283 12 280
f 12 283 13
f 283 297 289
f 289 13 283
f 540 561 231
f 425 13 424
f 209 288 205
f 291 125 286
f 346 337 323
f 49 304 288
f 173 350 351
f 297 654 314
f 347 158 864
f 304 47 311
f 47 304 49
f 47 46 481
f 360 361 855
f 501 684 146
f 481 311 47
f 46 39 481
f 343 695 329
f 314 289 297
f 289 314 160
f 481 321 308
f 481 39 321
f 325 122 321
f 325 321 37
f 37 321 39
f 333 160 314
f 324 266 333
f 527 107 231
f 84 121 325
f 36 327 498
f 160 333 34
f 327 120 84
f 36 82 371
f 277 393 390
f 689 34 333
f 34 689 340
f 313 34 331
f 266 334 689
f 334 260 341
f 340 335 331
f 107 527 110
f 54 404 405
f 696 14 344
f 61 401 44
f 38 299 407
f 358 14 348
f 14 358 16
f 344 14 352
f 356 704 712
f 352 16 368
f 413 62 417
f 370 16 358
f 16 370 18
f 175 705 134
f 713 115 110
f 371 27 378
f 27 371 82
f 381 18 370
f 18 381 19
f 368 18 375
f 80 378 27
f 19 381 235
f 19 395 23
f 19 23 178
f 202 506 913
f 23 395 24
f 386 24 396
f 398 24 395
f 24 398 26
f 26 398 220
f 26 412 399
f 396 26 399
f 418 399 412
f 164 180 444
f 444 443 164
f 175 173 705
f 685 84 120
f 422 300 415
f 685 121 84
f 172 169 300
f 172 300 422
f 78 80 27
f 226 365 78
f 89 615 114
f 240 485 309
f 134 737 175
f 226 27 82
f 245 459 452
f 187 186 140
f 243 459 245
f 189 187 130
f 581 466 579
f 467 472 637
f 308 122 240
f 138 579 466
f 430 255 463
f 499 435 430
f 453 430 435
f 435 440 439
f 435 499 450
f 243 479 281
f 308 321 122
f 897 438 584
f 439 453 435
f 243 281 893
f 450 440 435
f 480 859 865
f 440 449 447
f 442 439 440
f 450 449 440
f 447 449 454
f 492 488 493
f 127 458 456
f 449 456 28
f 82 225 708
f 454 28 462
f 28 456 30
f 456 450 127
f 30 456 458
f 225 82 36
f 30 464 460
f 506 507 502
f 126 469 125
f 287 508 509
f 207 507 506
f 410 460 32
f 126 306 477
f 460 464 644
f 644 32 460
f 32 644 63
f 475 31 576
f 470 406 32
f 64 63 644
f 306 309 477
f 125 464 458
f 528 795 511
f 516 523 524
f 655 206 63
f 206 655 484
f 206 474 470
f 162 679 497
f 316 322 822
f 313 160 34
f 37 498 325
f 523 316 534
f 497 684 501
f 501 146 505
f 146 512 503
f 505 503 513
f 263 515 510
f 512 120 115
f 503 512 91
f 517 513 503
f 115 713 91
f 458 203 125
f 315 547 548
f 91 512 115
f 547 330 336
f 91 713 88
f 517 88 522
f 552 548 547
f 532 88 713
f 88 532 519
f 552 336 553
f 522 519 541
f 527 231 561
f 127 128 458
f 538 660 692
f 514 36 498
f 224 498 37
f 538 692 695
f 114 626 631
f 553 342 105
f 219 37 39
f 555 660 561
f 127 450 499
f 891 199 824
f 660 555 661
f 218 39 46
f 199 97 886
f 366 98 284
f 22 21 98
f 41 366 581
f 43 232 22
f 907 232 43
f 96 536 907
f 45 463 255
f 45 581 463
f 255 94 96
f 255 96 45
f 94 453 545
f 448 546 545
f 582 593 594
f 595 584 438
f 216 46 47
f 216 47 49
f 551 640 558
f 558 640 569
f 49 288 209
f 793 565 50
f 569 53 558
f 566 50 565
f 209 210 49
f 841 351 350
f 574 52 566
f 578 53 57
f 612 609 423
f 53 578 563
f 575 53 569
f 597 432 211
f 253 55 574
f 57 575 597
f 578 57 592
f 592 583 578
f 627 609 612
f 584 621 628
f 603 589 606
f 602 589 597
f 634 819 627
f 610 606 602
f 835 318 229
f 626 606 58
f 610 624 58
f 58 624 630
f 632 58 630
f 634 884 869
f 58 632 626
f 60 642 632
f 642 60 649
f 60 630 181
f 650 649 643
f 662 652 645
f 656 628 621
f 621 636 656
f 658 659 204
f 64 644 469
f 466 495 138
f 694 377 700
f 468 471 431
f 663 650 65
f 628 656 668
f 679 162 484
f 65 686 663
f 672 673 659
f 686 65 66
f 683 65 651
f 468 431 478
f 683 693 67
f 685 146 684
f 146 685 512
f 696 340 689
f 66 67 701
f 473 495 478
f 66 698 686
f 702 67 693
f 668 675 687
f 701 698 66
f 405 690 54
f 701 67 70
f 54 690 564
f 14 696 348
f 711 70 710
f 699 70 711
f 702 709 710
f 229 318 236
f 657 282 471
f 710 709 742
f 753 756 740
f 756 753 72
f 742 754 72
f 72 754 768
f 72 765 756
f 766 765 770
f 490 193 496
f 130 772 496
f 770 776 766
f 15 719 168
f 87 201 148
f 183 770 768
f 201 194 136
f 422 705 172
f 633 777 338
f 777 633 150
f 408 74 633
f 638 185 408
f 106 730 258
f 688 379 694
f 275 631 118
f 185 692 145
f 197 750 749
f 736 737 738
f 263 258 730
f 738 741 743
f 185 145 143
f 743 741 744
f 744 741 74
f 744 467 879
f 132 140 145
f 123 132 661
f 741 738 150
f 123 540 567
f 773 772 567
f 738 134 150
f 78 27 226
f 238 623 1
f 264 279 779
f 776 150 134
f 134 705 420
f 695 541 538
f 104 599 261
f 365 681 680
f 761 762 763
f 365 678 76
f 76 78 365
f 411 156 420
f 156 411 220
f 541 519 538
f 220 764 156
f 76 233 78
f 80 78 233
f 168 789 387
f 70 699 701
f 398 395 228
f 434 437 445
f 779 780 887
f 428 432 434
f 926 317 706
f 197 749 745
f 213 6 4
f 279 785 780
f 419 427 428
f 148 201 745
f 454 462 419
f 526 782 783
f 381 734 235
f 410 414 419
f 493 769 913
f 511 4 215
f 4 511 213
f 406 414 410
f 208 731 729
f 21 511 215
f 210 728 727
f 794 800 823
f 511 21 529
f 470 474 179
f 724 218 46
f 227 110 115
f 118 280 275
f 219 218 722
f 806 800 794
f 803 804 256
f 716 778 225
f 224 219 720
f 407 86 690
f 356 734 381
f 389 497 380
f 809 795 528
f 810 806 811
f 717 716 514
f 497 501 380
f 317 697 429
f 810 818 821
f 913 771 202
f 341 698 699
f 373 376 159
f 369 177 373
f 341 260 698
f 260 334 266
f 365 226 681
f 517 522 354
f 828 821 818
f 354 362 364
f 569 640 446
f 519 522 88
f 767 828 818
f 266 324 676
f 602 597 211
f 804 834 256
f 121 240 122
f 345 868 918
f 610 602 211
f 169 839 166
f 427 195 211
f 643 179 174
f 683 651 165
f 693 683 171
f 627 884 634
f 324 654 676
f 846 397 841
f 841 397 374
f 362 709 369
f 580 397 846
f 192 188 190
f 192 499 489
f 128 192 190
f 270 205 203
f 205 288 286
f 291 306 126
f 208 148 733
f 288 304 291
f 304 311 306
f 311 481 308
f 286 125 203
f 283 118 297
f 589 599 592
f 283 280 118
f 227 115 120
f 747 805 732
f 707 226 82
f 107 378 80
f 275 114 631
f 118 646 297
f 89 114 275
f 231 233 103
f 87 209 205
f 816 872 870
f 271 108 89
f 248 560 455
f 248 241 560
f 108 271 265
f 566 565 241
f 86 876 690
f 622 244 619
f 517 91 88
f 574 566 248
f 715 662 889
f 244 249 618
f 249 250 614
f 882 465 718
f 253 251 257
f 774 465 882
f 250 259 608
f 883 494 774
f 921 391 560
f 259 267 604
f 54 564 847
f 251 577 583
f 600 267 5
f 89 276 271
f 503 91 517
f 690 405 407
f 275 276 89
f 892 573 582
f 272 278 596
f 248 577 574
f 280 276 275
f 425 588 591
f 425 424 781
f 781 313 572
f 424 313 781
f 572 585 781
f 314 654 324
f 136 197 201
f 313 557 572
f 237 551 558
f 554 331 335
f 334 341 348
f 760 136 138
f 335 344 549
f 341 699 704
f 348 696 334
f 921 319 7
f 358 348 704
f 344 352 544
f 912 582 594
f 903 586 551
f 352 368 543
f 381 370 356
f 368 375 539
f 788 8 3
f 535 375 178
f 221 795 809
f 828 767 562
f 559 833 920
f 921 920 899
f 546 448 898
f 903 922 836
f 38 903 299
f 235 228 395
f 405 669 407
f 546 92 94
f 400 518 520
f 92 546 904
f 639 35 926
f 386 396 525
f 927 926 33
f 928 605 930
f 200 490 298
f 94 545 546
f 96 92 536
f 927 56 852
f 143 472 408
f 220 412 26
f 400 520 521
f 412 220 411
f 109 113 152
f 920 832 559
f 418 412 411
f 152 113 746
f 387 789 786
f 420 418 411
f 746 161 867
f 418 420 422
f 490 773 298
f 496 772 773
f 394 442 445
f 562 767 832
f 739 636 820
f 204 725 658
f 773 490 496
f 725 223 635
f 447 454 428
f 472 186 637
f 215 284 98
f 189 130 496
f 458 464 30
f 410 462 460
f 125 469 464
f 635 247 487
f 487 269 629
f 641 487 629
f 268 269 487
f 269 393 629
f 390 269 268
f 469 126 64
f 349 761 763
f 655 64 477
f 303 674 670
f 290 393 277
f 611 290 928
f 163 474 483
f 928 307 605
f 635 641 648
f 531 605 533
f 677 674 100
f 477 309 485
f 506 202 207
f 679 485 240
f 240 121 684
f 312 912 594
f 684 679 240
f 121 685 684
f 186 187 345
f 503 505 146
f 912 332 892
f 772 130 132
f 685 120 512
f 501 505 159
f 725 648 658
f 505 513 373
f 513 517 364
f 892 847 564
f 110 527 713
f 714 847 339
f 522 541 154
f 51 714 346
f 231 103 540
f 714 51 404
f 541 695 343
f 567 772 123
f 502 500 506
f 578 577 563
f 867 659 673
f 577 578 583
f 597 575 432
f 592 104 583
f 913 492 493
f 845 167 839
f 599 104 592
f 386 178 23
f 599 603 615
f 110 227 378
f 615 261 599
f 706 402 639
f 603 626 114
f 132 123 772
f 624 610 195
f 409 706 317
f 746 673 682
f 114 615 603
f 120 327 227
f 624 414 403
f 691 429 697
f 642 631 632
f 642 118 631
f 429 433 853
f 646 118 642
f 642 649 646
f 152 682 691
f 682 433 691
f 181 643 60
f 654 297 646
f 122 325 121
f 140 130 187
f 421 416 617
f 123 661 555
f 309 308 240
f 698 260 686
f 702 693 177
f 698 701 699
f 672 441 436
f 291 126 125
f 109 691 697
f 143 140 186
f 874 872 816
f 665 441 672
f 188 192 489
f 665 658 653
f 712 704 699
f 653 451 665
f 927 697 317
f 712 740 734
f 648 461 653
f 178 375 19
f 923 880 116
f 641 461 648
f 740 756 748
f 748 758 228
f 926 706 639
f 479 641 482
f 754 742 362
f 354 754 362
f 407 669 38
f 203 458 128
f 482 629 620
f 756 765 758
f 182 754 154
f 128 127 192
f 254 246 252
f 611 382 620
f 764 398 228
f 499 192 127
f 764 766 156
f 766 776 156
f 930 611 928
f 420 156 776
f 140 132 130
f 788 7 8
f 387 166 168
f 420 776 134
f 136 760 197
f 300 387 415
f 750 197 760
f 745 201 197
f 148 208 209
f 733 148 745
f 258 35 106
f 593 533 605
f 731 208 733
f 236 318 910
f 729 210 208
f 728 210 729
f 727 216 210
f 188 489 579
f 929 573 556
f 724 216 727
f 573 929 582
f 723 218 724
f 722 218 723
f 720 219 722
f 717 224 720
f 514 224 717
f 188 579 138
f 876 556 573
f 707 681 226
f 898 904 546
f 472 143 186
f 212 795 221
f 899 391 921
f 854 925 931
f 213 795 212
f 140 143 145
f 404 54 714
f 833 922 924
f 415 387 786
f 143 408 185
f 238 3 793
f 1 3 238
f 31 799 752
f 622 238 244
f 918 799 515
f 380 376 171
f 915 752 357
f 617 476 421
f 619 244 618
f 618 249 616
f 616 249 614
f 636 739 613
f 388 613 10
f 614 250 608
f 357 791 915
f 383 688 388
f 608 259 607
f 571 438 576
f 295 667 666
f 92 96 94
f 607 259 604
f 372 726 700
f 667 295 303
f 367 726 372
f 604 267 601
f 298 295 207
f 923 875 880
f 363 732 367
f 408 467 74
f 148 209 87
f 298 301 295
f 359 747 363
f 601 267 600
f 359 355 755
f 600 272 598
f 598 272 596
f 353 755 355
f 301 298 773
f 596 278 591
f 747 755 751
f 591 278 425
f 588 425 781
f 388 688 813
f 769 771 913
f 763 353 349
f 202 771 200
f 506 500 913
f 74 467 744
f 773 570 301
f 82 708 707
f 320 647 326
f 500 492 913
f 331 554 557
f 242 910 320
f 344 335 340
f 910 908 647
f 554 335 550
f 239 222 703
f 549 550 335
f 549 344 544
f 166 167 168
f 544 352 543
f 543 368 542
f 17 15 167
f 17 845 157
f 907 536 919
f 157 850 155
f 155 850 153
f 542 368 539
f 150 633 74
f 153 854 151
f 151 854 149
f 149 858 147
f 147 862 144
f 539 375 535
f 759 903 38
f 530 535 178
f 144 862 141
f 141 866 139
f 139 866 137
f 530 386 525
f 137 870 135
f 525 396 521
f 135 870 872
f 133 872 131
f 131 874 129
f 129 923 117
f 923 874 875
f 170 119 902
f 521 396 400
f 20 932 101
f 99 101 932
f 99 886 97
f 95 97 199
f 95 891 93
f 93 896 90
f 518 400 786
f 90 896 85
f 85 901 83
f 83 905 81
f 169 166 300
f 81 905 79
f 77 79 796
f 77 909 75
f 439 394 545
f 75 914 73
f 73 914 71
f 71 916 69
f 442 394 439
f 468 466 366
f 442 447 434
f 7 562 920
f 794 534 811
f 924 899 833
f 434 447 428
f 428 454 419
f 419 462 410
f 38 898 759
f 902 111 897
f 466 468 495
f 526 524 534
f 25 59 56
f 96 43 45
f 895 401 61
f 182 343 338
f 483 389 163
f 483 162 389
f 897 59 25
f 883 894 775
f 776 777 150
f 59 897 111
f 380 384 389
f 774 882 893
f 111 902 119
f 778 708 225
f 501 159 380
f 167 166 839
f 159 505 373
f 176 191 867
f 373 513 369
f 364 369 513
f 850 890 925
f 354 364 517
f 354 522 154
f 177 369 709
f 154 541 343
f 446 445 437
f 376 380 159
f 204 223 725
f 217 198 214
f 214 703 222
f 437 569 446
f 610 211 195
f 414 624 195
f 403 630 624
f 889 718 715
f 160 313 424
f 181 630 403
f 888 246 239
f 179 643 181
f 174 650 643
f 651 650 174
f 163 384 165
f 487 247 268
f 165 651 163
f 171 683 165
f 174 474 163
f 557 313 331
f 475 515 799
f 376 693 171
f 285 273 757
f 177 693 376
f 627 885 884
f 174 179 474
f 509 508 516
f 294 302 310
f 709 702 177
f 709 362 742
f 154 754 354
f 182 338 183
f 780 785 803
f 183 768 182
f 423 413 881
f 183 338 777
f 638 338 343
f 633 638 408
f 590 401 895
f 692 185 329
f 190 188 194
f 515 475 25
f 270 190 194
f 190 270 128
f 195 427 414
f 7 788 562
f 915 878 571
f 877 595 438
f 203 205 286
f 44 48 61
f 474 206 483
f 210 209 208
f 61 62 895
f 413 895 62
f 211 432 427
f 172 42 169
f 398 764 220
f 515 263 918
f 437 575 569
f 228 758 764
f 124 885 426
f 175 871 350
f 84 498 327
f 225 514 716
f 327 371 227
f 918 263 730
f 898 448 759
f 371 327 36
f 839 374 890
f 227 371 378
f 451 441 665
f 228 235 748
f 444 180 457
f 233 231 107
f 187 868 345
f 759 448 586
f 189 292 868
f 734 748 235
f 653 461 826
f 924 922 237
f 292 193 196
f 446 671 394
f 461 641 479
f 922 551 237
f 391 237 455
f 482 641 629
f 918 868 799
f 196 200 293
f 771 293 200
f 558 455 237
f 281 287 894
f 894 893 281
f 248 566 241
f 257 251 104
f 255 430 453
f 257 261 265
f 509 775 287
f 260 266 676
f 509 516 524
f 265 261 108
f 523 516 531
f 322 316 523
f 273 252 888
f 265 271 262
f 811 534 316
f 316 315 811
f 676 686 260
f 366 466 581
f 478 495 468
f 330 547 315
f 547 336 552
f 366 471 468
f 760 495 473
f 657 471 284
f 336 342 553
f 553 900 552
f 832 900 553
f 865 878 791
f 792 284 4
f 31 571 576
f 286 288 291
f 438 571 877
f 906 864 863
f 4 790 792
f 8 7 319
f 303 295 301
f 291 304 306
f 570 773 567
f 739 617 392
f 617 416 392
f 306 311 309
f 309 311 308
f 170 628 668
f 613 739 10
f 739 392 10
f 656 675 668
f 656 815 675
f 680 678 365
f 813 613 388
f 324 333 314
f 687 198 668
f 379 688 383
f 295 666 207
f 815 656 636
f 377 694 379
f 325 498 84
f 689 333 266
f 334 696 689
f 700 377 372
f 861 834 860
f 703 721 239
f 732 726 367
f 834 861 256
f 348 341 704
f 747 732 363
f 356 358 704
f 735 888 721
f 370 358 356
f 735 264 757
f 735 273 888
f 755 747 359
f 369 364 362
f 353 763 755
f 647 761 326
f 761 349 326
f 376 373 177
f 779 757 264
f 780 779 279
f 384 380 171
f 235 395 19
f 736 871 737
f 562 788 917
f 910 647 320
f 785 804 803
f 414 406 403
f 256 323 803
f 813 675 815
f 415 786 400
f 427 419 414
f 422 420 705
f 432 428 427
f 430 489 499
f 587 580 590
f 437 434 432
f 445 442 434
f 446 394 445
f 671 586 448
f 819 609 627
f 456 449 450
f 455 563 248
f 865 791 769
f 581 579 463
f 645 652 817
f 644 464 469
f 652 662 715
f 874 923 129
f 715 664 652
f 694 812 688
f 477 64 126
f 750 760 473
f 485 655 477
f 465 715 718
f 507 207 666
f 465 774 494
f 865 486 480
f 812 675 813
f 485 484 655
f 207 202 298
f 883 504 825
f 493 865 769
f 783 782 504
f 679 484 485
f 202 200 298
f 196 490 200
f 196 193 490
f 877 859 476
f 302 803 323
f 189 496 193
f 814 806 810
f 168 719 789
f 821 814 810
f 391 899 924
f 713 527 532
f 467 408 472
f 302 294 887
f 786 787 518
f 538 519 532
f 561 532 527
f 926 35 33
f 538 532 660
f 540 555 561
f 551 586 640
f 319 241 565
f 660 532 561
f 113 161 746
f 161 176 867
f 8 319 565
f 223 247 635
f 781 585 784
f 620 629 393
f 887 780 302
f 269 390 393
f 671 640 586
f 781 784 588
f 599 589 603
f 393 290 611
f 626 603 606
f 928 290 305
f 623 238 622
f 625 1 623
f 774 893 894
f 312 332 912
f 626 632 631
f 332 339 847
f 847 892 332
f 757 887 285
f 847 714 54
f 793 3 8
f 732 807 726
f 858 931 857
f 675 812 687
f 168 167 15
f 273 735 757
f 920 921 7
f 402 385 639
f 167 845 17
f 638 633 338
f 646 649 663
f 650 663 649
f 845 850 157
f 888 239 721
f 663 654 646
f 706 409 48
f 850 854 153
f 676 654 663
f 429 409 317
f 661 692 660
f 854 858 149
f 676 663 686
f 858 862 147
f 433 429 691
f 678 680 677
f 699 711 712
f 712 734 356
f 711 710 753
f 862 866 141
f 712 711 740
f 682 436 827
f 734 740 748
f 866 870 137
f 214 687 808
f 748 756 758
f 664 816 652
f 872 133 135
f 198 687 214
f 754 182 768
f 872 874 131
f 665 659 658
f 758 765 766
f 658 648 653
f 766 764 758
f 776 770 777
f 668 198 170
f 117 923 116
f 787 786 789
f 929 330 822
f 533 822 322
f 556 336 330
f 531 322 523
f 899 920 833
f 662 444 889
f 346 323 256
f 491 482 620
f 116 880 911
f 911 20 116
f 382 491 620
f 911 932 20
f 932 886 99
f 645 443 662
f 930 382 611
f 382 930 516
f 886 824 199
f 605 531 930
f 491 508 848
f 628 170 902
f 256 347 346
f 482 848 479
f 891 896 93
f 347 256 861
f 820 617 739
f 866 819 817
f 605 594 593
f 896 901 85
f 929 593 582
f 612 881 885
f 901 905 83
f 826 451 653
f 451 457 180
f 672 659 665
f 441 180 851
f 79 905 796
f 436 673 672
f 436 851 827
f 909 914 75
f 682 673 436
f 914 916 71
f 584 902 897
f 876 86 342
f 69 916 1
f 829 433 827
f 700 808 694
f 788 3 916
f 853 829 417
f 409 61 48
f 402 48 855
f 870 817 816
f 855 29 360
f 874 816 664
f 385 361 102
f 830 880 875
f 576 897 25
f 819 634 817
f 68 69 1
f 106 856 730
f 743 736 738
f 910 242 236
f 862 857 819
f 744 879 102
f 880 830 831
f 840 528 843
f 401 846 44
f 803 302 780
f 769 791 357
f 878 915 791
f 831 911 880
f 918 873 345
f 576 25 475
f 799 31 475
f 841 29 846
f 879 856 102
f 106 639 385
f 573 564 876
f 911 831 802
f 342 556 876
f 337 339 332
f 25 510 515
f 350 29 841
f 564 573 892
f 892 582 912
f 510 25 56
f 864 906 837
f 312 328 337
f 929 822 593
f 33 35 258
f 871 360 29
f 840 860 835
f 864 158 863
f 29 855 44
f 916 914 917
f 808 687 812
f 594 307 312
f 307 305 328
f 916 917 788
f 33 56 927
f 840 835 809
f 307 594 605
f 736 743 361
f 531 516 930
f 290 277 305
f 852 109 927
f 318 835 860
f 21 844 529
f 852 59 112
f 620 393 611
f 102 743 744
f 112 113 852
f 751 763 762
f 647 785 762
f 805 747 751
f 252 268 254
f 230 835 229
f 487 641 635
f 637 879 467
f 124 851 164
f 809 230 221
f 161 142 176
f 807 732 805
f 247 234 254
f 230 809 835
f 808 700 807
f 345 637 186
f 176 184 191
f 812 694 808
f 204 849 223
f 849 204 191
f 813 688 812
f 635 648 725
f 849 184 198
f 815 613 813
f 815 636 613
f 217 223 849
f 659 191 204
f 217 234 223
f 191 184 849
f 859 480 421
f 795 213 511
f 245 461 243
f 878 865 859
f 802 886 932
f 191 659 867
f 452 718 889
f 223 234 247
f 176 142 184
f 246 254 234
f 865 493 486
f 293 771 357
f 268 247 254
f 771 769 357
f 805 264 735
f 268 252 390
f 161 113 112
f 486 493 488
f 390 252 274
f 867 673 746
f 264 751 279
f 274 277 390
f 746 682 152
f 281 848 287
f 827 433 682
f 808 703 214
f 152 691 109
f 109 852 113
f 476 859 421
f 296 305 277
f 476 595 877
f 305 307 928
f 196 293 292
f 595 476 820
f 726 807 700
f 752 293 357
f 307 328 312
f 310 328 305
f 56 59 852
f 292 752 799
f 328 310 323
f 886 825 824
f 312 337 332
f 807 703 808
f 891 824 782
f 193 292 189
f 844 21 22
f 429 853 409
f 109 697 927
f 56 33 510
f 105 559 553
f 339 337 346
f 346 714 339
f 51 346 347
f 317 926 927
f 564 690 876
f 863 844 232
f 799 868 292
f 510 33 258
f 843 528 529
f 844 863 842
f 861 840 843
f 861 158 347
f 861 860 840
f 752 915 31
f 158 843 842
f 843 158 861
f 842 529 844
f 919 837 906
f 906 232 907
f 809 528 840
f 730 873 918
f 730 856 873
f 873 856 879
f 856 106 385
f 817 634 645
f 837 919 838
f 817 652 816
f 919 906 907
f 919 536 537
f 743 102 361
f 904 669 838
f 898 669 904
f 669 898 38
f 703 807 721
f 405 404 838
f 669 405 838
f 922 833 836
f 294 285 887
f 361 385 402
f 869 645 634
f 830 875 664
f 916 3 1
f 864 51 347
f 402 855 361
f 909 801 914
f 397 890 374
f 48 44 855
f 796 909 77
f 879 637 873
f 901 798 905
f 580 925 397
f 48 402 706
f 896 800 901
f 891 823 896
f 409 62 61
f 853 62 409
f 881 413 417
f 417 62 853
f 86 407 299
f 459 893 882
f 199 891 95
f 830 465 831
f 829 426 417
f 426 829 124
f 426 881 417
f 124 829 827
f 433 829 853
f 886 802 825
f 774 894 883
f 851 124 827
f 164 884 124
f 441 851 436
f 180 164 851
f 443 869 164
f 911 802 932
f 715 830 664
f 874 664 875
f 736 361 360
f 451 180 441
f 457 452 889
f 889 444 457
f 866 817 870
f 106 35 639
f 459 718 452
f 826 452 457
f 452 826 245
f 451 826 457
f 862 819 866
f 858 857 862
f 461 245 826
f 459 882 718
f 479 243 461
f 854 931 858
f 850 925 854
f 846 401 580
f 845 890 850
f 491 848 482
f 848 281 479
f 825 494 883
f 382 508 491
f 900 832 767
f 508 287 848
f 896 823 800
f 839 890 845
f 504 782 824
f 42 374 839
f 516 508 382
f 908 910 318
f 534 524 523
f 552 818 548
f 42 172 173
f 901 800 798
f 818 552 900
f 533 322 531
f 871 175 737
f 868 187 189
f 22 232 844
f 593 822 533
f 822 315 316
f 929 556 330
f 330 315 822
f 838 919 537
f 904 838 537
f 318 860 834
f 908 318 834
f 465 830 715
f 556 342 336
f 105 836 559
f 833 559 836
f 29 44 846
f 908 834 804
f 562 917 828
f 299 836 105
f 818 900 767
f 832 553 559
f 562 832 920
f 811 315 548
f 828 801 821
f 801 828 917
f 821 797 814
f 836 299 903
f 401 590 580
f 797 821 801
f 905 798 796
f 796 814 797
f 810 548 818
f 814 798 806
f 798 814 796
f 909 796 797
f 811 548 810
f 413 587 590
f 404 51 837
f 51 864 837
f 837 838 404
f 909 797 801
f 529 842 843
f 158 842 863
f 232 906 863
f 800 806 798
f 529 528 511
f 794 811 806
f 785 908 804
f 785 647 908
f 859 877 878
f 526 534 794
f 877 571 878
f 571 31 915
f 173 351 42
f 524 783 509
f 350 173 175
f 29 350 871
f 823 526 794
f 783 524 526
f 526 823 782
f 42 351 374
f 841 374 351
f 504 775 783
f 509 783 775
f 782 823 891
f 885 124 884
f 887 757 779
f 914 801 917
f 426 885 881
f 890 397 925
f 825 504 824
f 775 504 883
f 925 587 931
f 587 925 580
f 802 494 825
f 785 279 762
f 494 831 465
f 831 494 802
f 894 287 775
f 590 895 413
f 438 897 576
f 884 164 869
f 762 279 751
f 423 931 587
f 587 413 423
f 931 423 857
f 762 761 647
f 617 820 476
f 595 820 621
f 751 755 763
f 893 459 243
f 751 264 805
f 609 857 423
f 423 881 612
f 662 443 444
f 721 805 735
f 621 584 595
f 857 609 819
f 443 645 869
f 612 885 627
f 636 621 820
f 628 902 584
f 805 721 807
