# avbd fit, rung f60-i32-s300 of Gate 6d (body space, fit phase only)
v -0.084551558 0.668569922 0.060648669
v -0.190406621 0.690156758 0.047911197
v -0.084502205 0.683014870 0.061847568
v -0.076716028 0.938302159 0.073958114
v -0.203992456 0.674646258 0.000989937
v -0.073266946 0.945367455 0.087849602
v -0.084674187 0.711671948 0.064394780
v -0.084530398 0.697375655 0.063161798
v -0.206252098 0.690644443 0.000369059
v 0.162030578 0.958337665 -0.030825417
v -0.205733180 0.686220348 -0.020151353
v -0.199648842 0.687362015 -0.041691516
v -0.188554674 0.688003421 -0.056351550
v -0.091555774 0.687326312 -0.095199332
v 0.095126092 0.652644873 -0.086292513
v -0.073293321 0.686065793 -0.087629326
v 0.109034732 0.651364386 -0.091470793
v -0.055540185 0.688849986 -0.081173860
v -0.037500989 0.694829762 -0.077313900
v 0.147702128 0.657743573 0.065664664
v -0.075747654 0.910548329 0.062804930
v -0.076254524 0.896180034 0.060788564
v -0.020306122 0.690385222 -0.072865829
v -0.004706950 0.695143938 -0.073440596
v 0.167862505 0.859247983 -0.092501000
v 0.011640342 0.701488495 -0.076051407
v -0.050571799 0.913042665 -0.144720733
v -0.195028394 0.849328399 0.011855846
v 0.127489179 0.739807963 -0.106321350
v -0.195315629 0.856748283 -0.006948723
v 0.147938102 0.884651959 -0.115677990
v -0.200118974 0.832758904 -0.042594064
v 0.168619424 0.823264003 -0.096021876
v -0.143823102 0.683229804 -0.085611977
v 0.156615704 0.811379611 -0.100997463
v -0.085765973 0.917915463 -0.143326923
v -0.129060850 0.917430222 -0.126643106
v -0.068907373 0.799202681 0.062808745
v -0.143480763 0.922490001 -0.111479357
v 0.005720212 0.911997020 -0.138756022
v -0.101441622 0.900297821 0.054746829
v 0.097955883 0.702823460 -0.100048997
v -0.093220718 0.882390678 0.057011761
v 0.148020431 0.746381640 -0.097409911
v -0.112362683 0.884156883 0.052812260
v -0.154720515 0.929609776 -0.094990455
v -0.164012700 0.916344821 -0.082784615
v 0.157566473 0.765542865 -0.096149005
v -0.169689372 0.921221435 -0.062456030
v -0.120644942 0.687065125 0.076712660
v -0.022823825 0.857127070 0.059198178
v -0.144243568 0.688941121 0.070603117
v -0.160829201 0.765978932 0.067927703
v -0.024729105 0.823363900 0.053041629
v -0.165227979 0.688897252 0.062036317
v 0.178156763 0.839025021 -0.085444629
v -0.187234089 0.764450431 0.057886492
v -0.210378096 0.769369900 -0.013294126
v 0.182126552 0.853956342 -0.072012089
v -0.201250598 0.765072227 -0.052747853
v 0.167503327 0.751718819 -0.088867217
v 0.183980361 0.751747966 -0.074779436
v -0.191112518 0.840182126 -0.062831506
v -0.185757697 0.858127594 -0.062511913
v -0.153683037 0.761455655 -0.097762607
v -0.130847216 0.756474853 -0.107807852
v -0.111754380 0.767314970 -0.114167690
v -0.082863398 0.653943241 0.058482558
v -0.069800161 0.655650198 0.053292595
v -0.091039270 0.758771420 -0.107168116
v -0.055956107 0.656342566 0.047307082
v -0.032247111 0.771724343 -0.096727267
v -0.041323893 0.656858385 0.042582277
v 0.067026794 0.793454766 -0.106592417
v -0.026209185 0.657353759 0.038692970
v -0.013353634 0.913669586 -0.138990372
v -0.010458170 0.657654047 0.036665689
v -0.031532764 0.915098369 -0.141272053
v 0.005705670 0.657709837 0.036581460
v -0.038747001 0.901125550 -0.144736469
v 0.021419723 0.657608449 0.038339328
v -0.062746480 0.927274227 -0.140797541
v 0.036701012 0.657407820 0.041277744
v -0.109609500 0.886226952 -0.140090764
v 0.051111449 0.657013893 0.045732901
v -0.039438121 0.787419677 0.055431891
v -0.168979675 0.920398533 -0.015596087
v -0.040924091 0.839388251 -0.132841080
v -0.208861738 0.717948794 0.000731257
v 0.064134642 0.656593204 0.051274758
v -0.062191557 0.843565106 -0.141896233
v -0.097142540 0.847049594 0.069982626
v 0.077886432 0.656910777 0.057390355
v -0.116326608 0.849859715 0.064568564
v 0.091795057 0.657063365 0.063127831
v -0.101101533 0.864120960 0.059038527
v 0.105563186 0.657169104 0.068770409
v -0.091638945 0.915662408 0.059415467
v 0.119187176 0.657136559 0.074342847
v 0.016969196 0.926359832 -0.135499194
v 0.134603083 0.657416642 0.071560137
v 0.111490384 0.792448878 -0.114701651
v -0.004593587 0.896992803 -0.141007185
v -0.192431748 0.728759408 0.049710017
v -0.046077084 0.769465923 0.056718715
v 0.140866041 0.809589744 -0.107934132
v -0.034865450 0.885637403 -0.144493476
v -0.206044465 0.715212584 0.019804183
v 0.195253655 0.816664577 -0.060833357
v -0.050448786 0.874827683 -0.147310257
v 0.185336143 0.865351200 -0.057342958
v 0.195321560 0.849798024 -0.048667483
v 0.200408533 0.829912305 -0.046087526
v -0.210051924 0.734475315 -0.005352254
v -0.068136819 0.863398850 -0.147673577
v 0.160779223 0.657643735 0.060118519
v 0.172928452 0.657431006 0.055086978
v -0.201013297 0.723912358 -0.047142778
v 0.188625917 0.865945220 -0.039081682
v -0.090797976 0.874471366 -0.146891758
v -0.129562423 0.874852300 -0.131644219
v -0.141843259 0.887230575 -0.121751592
v 0.027743245 0.868773162 -0.141580760
v 0.210198447 0.751899779 -0.023098437
v -0.183133274 0.878756046 -0.034585726
v -0.180909306 0.875037193 -0.059393518
v -0.175240919 0.875341415 0.016528908
v -0.175777629 0.889156222 0.002838633
v 0.184906602 0.657780647 0.047855798
v 0.063658774 0.858071625 -0.145600006
v 0.190923855 0.657995164 0.035289504
v 0.044564284 0.855155766 -0.141048163
v 0.197544307 0.657724023 0.023144728
v 0.062787704 0.749980509 -0.097612344
v 0.201227278 0.657350779 0.009814491
v -0.154034585 0.924658477 0.015047763
v 0.201382846 0.656815052 -0.003960133
v -0.141084775 0.920283973 0.029449085
v 0.202193573 0.655722320 -0.017686743
v 0.062996373 0.840087771 -0.139338478
v 0.199225932 0.654528677 -0.031265803
v 0.193755373 0.857083201 -0.023773875
v 0.062589034 0.827333927 -0.126124620
v 0.192299470 0.654169500 -0.042239968
v 0.042786304 0.838679135 -0.132435694
v -0.105581261 0.843332469 -0.136048689
v 0.184832424 0.653775573 -0.053898018
v -0.169777483 0.937877297 -0.019320052
v 0.176267684 0.653232336 -0.065106809
v 0.058152169 0.773056388 -0.100603834
v 0.163485929 0.652867734 -0.071978696
v 0.203853726 0.812548518 -0.043279987
v 0.150340766 0.652580619 -0.077695370
v -0.019548301 0.810123444 -0.108949065
v 0.136889324 0.652177036 -0.082801163
v 0.023536731 0.737000406 -0.087403551
v 0.123199604 0.651803553 -0.087353371
v -0.029839385 0.888131142 0.065563858
v -0.110426381 0.818722606 -0.116966546
v -0.163133830 0.689183116 -0.078434728
v 0.199795142 0.838522911 -0.027636966
v -0.154566824 0.833734155 -0.101825193
v -0.165304944 0.802064121 -0.097435199
v 0.210699990 0.746352673 0.000951179
v -0.148110986 0.790735364 -0.104412571
v 0.081997678 0.681191683 -0.089360796
v 0.098808594 0.668454647 -0.092214786
v 0.081846133 0.667548776 -0.085039124
v 0.082422026 0.695030570 -0.093143232
v 0.184814587 0.876921833 -0.020210190
v -0.130587131 0.795191109 -0.112272717
v 0.083014756 0.709056020 -0.096115552
v 0.083544590 0.723098636 -0.099106707
v -0.182516471 0.789010584 -0.084769309
v 0.083808824 0.737179816 -0.102473833
v 0.199315220 0.846110344 -0.009938439
v -0.093769819 0.794422746 -0.110942580
v -0.027470987 0.676355004 -0.068875842
v -0.196185678 0.799197137 -0.062732771
v 0.208253697 0.762610435 0.018488891
v -0.202001214 0.782776773 -0.052319635
v -0.004791411 0.796825230 -0.102077350
v 0.009982308 0.783692956 -0.098424956
v 0.192538217 0.863030314 -0.001908718
v 0.041879814 0.824657261 -0.120275244
v 0.084333874 0.830944896 -0.132543772
v 0.085732333 0.844720840 -0.141365618
v -0.150040105 0.904536605 0.021434903
v 0.084967256 0.859659791 -0.145387322
v -0.163322538 0.899436951 0.007655931
v 0.198235929 0.842126727 0.011077592
v -0.161887750 0.888007343 0.020658651
v 0.084424928 0.875552297 -0.147872284
v -0.162090093 0.915079594 0.002619232
v -0.210455924 0.794669509 0.002453781
v 0.083285108 0.890895069 -0.147681266
v -0.158401713 0.941420197 0.010157342
v 0.178495541 0.880632520 0.008207002
v 0.099450715 0.673793018 0.067611165
v 0.082101002 0.906563401 -0.147412702
v -0.162303761 0.932382464 -0.003319837
v 0.080267385 0.921323121 -0.142303616
v -0.177900016 0.890529037 -0.018199224
v 0.188356578 0.834302425 0.028355902
v -0.172895059 0.907537639 -0.027539948
v -0.183199108 0.830612183 -0.080108687
v 0.078473091 0.935480952 -0.137110516
v -0.166651577 0.941995025 -0.036455587
v -0.171692610 0.924760163 -0.038483184
v -0.165365905 0.938483059 -0.056800276
v -0.203242272 0.789406896 0.023999054
v -0.047062039 0.949839592 0.084425271
v -0.061421026 0.950727820 0.082611278
v 0.159194112 0.890014172 0.022350125
v -0.075941712 0.924503207 0.067624778
v -0.161078095 0.934759438 -0.077117845
v 0.169165611 0.869815707 0.029560279
v -0.142733201 0.939142585 -0.105084680
v -0.130623549 0.935337543 -0.117678978
v 0.014140774 0.719733119 -0.081854500
v -0.032478508 0.949907780 0.084930509
v 0.154527515 0.880541325 0.039944552
v 0.173514932 0.847067654 0.041999314
v -0.115358710 0.932357311 -0.127931550
v -0.079652525 0.935144544 -0.137345701
v -0.041784164 0.929715633 -0.138427839
v -0.071431376 0.884508431 -0.149136722
v -0.018063115 0.724304676 -0.083739698
v -0.003108892 0.950067520 0.085265867
v -0.017819175 0.949976444 0.085260369
v -0.015052329 0.882236958 -0.142001212
v -0.077141404 0.881838322 0.059974529
v -0.022517122 0.898866534 -0.142065674
v 0.159036085 0.862683952 0.048341461
v -0.035836212 0.715568423 -0.083568566
v 0.011594089 0.950022817 0.085138962
v -0.106334910 0.759174407 0.076249063
v -0.105751440 0.671630442 0.069465809
v 0.136930734 0.886212468 0.042912588
v -0.150475889 0.869926631 -0.114895687
v -0.117895581 0.715023398 0.077743679
v 0.026363680 0.949839771 0.084765710
v 0.158202961 0.764054477 0.069199987
v -0.131416112 0.671243310 0.074068941
v 0.176050991 0.764966071 0.063762069
v 0.139480397 0.871381462 0.051195104
v 0.154344410 0.843539119 0.058861218
v -0.137258679 0.726664305 0.075031027
v -0.154566884 0.672219157 0.064223208
v -0.176548094 0.673467577 0.055234622
v -0.174725562 0.719571590 0.060842138
v 0.121468559 0.860065460 0.059736431
v -0.175576627 0.703402758 0.058890034
v 0.141415715 0.855893254 0.056888212
v -0.123723172 0.868227124 0.055083722
v 0.011884084 0.883149326 0.065800205
v -0.191850185 0.710743725 0.048802577
v 0.150180012 0.825063109 -0.103930317
v -0.191986591 0.671875119 0.037898809
v -0.132146165 0.725561261 -0.101794064
v -0.199576765 0.721568584 0.034244981
v -0.201441720 0.686180115 0.022945510
v 0.142151013 0.838104427 -0.108999968
v 0.091791943 0.904606342 0.056883592
v -0.199561551 0.703486383 0.031826206
v -0.140889466 0.711986482 -0.094594643
v -0.201174662 0.668677628 0.018305598
v 0.133097768 0.842332006 0.064078048
v 0.124926686 0.827987552 0.070242740
v -0.170037359 0.903495193 -0.008559342
v -0.207592160 0.702463269 0.011455850
v -0.203157455 0.668044388 -0.015925286
v 0.105072781 0.872870147 0.056066625
v 0.099906206 0.855854511 0.065522790
v -0.208790377 0.720816255 -0.021524126
v -0.207781032 0.704057455 -0.011469814
v 0.090796545 0.837390125 0.071088649
v -0.200955123 0.670266509 -0.034443401
v 0.070785172 0.908971190 0.062836364
v -0.207334548 0.704396605 -0.033551898
v 0.138812318 0.758350432 0.075162485
v -0.120192073 0.951523125 0.063964263
v -0.194436759 0.704159379 -0.051845264
v -0.094697826 0.934921384 0.062566817
v 0.086542048 0.868051052 0.060831051
v -0.175587565 0.894432425 -0.036515430
v 0.116522864 0.751724660 0.080427483
v -0.174463883 0.907826126 -0.048531253
v -0.181235284 0.697856367 -0.067998961
v 0.084970251 0.820708632 0.068583913
v -0.175002754 0.890592873 -0.054113943
v 0.107530713 0.875613213 -0.140562519
v 0.106841549 0.896348000 -0.140541047
v 0.068996392 0.864833176 0.061571896
v 0.054433323 0.932571411 -0.138324291
v 0.078581832 0.850813270 0.064030305
v -0.185707882 0.716270983 -0.066022977
v 0.061652131 0.914825797 -0.145111531
v -0.059261002 0.784672737 0.060230244
v 0.067938007 0.694239199 -0.087549947
v 0.040759258 0.918176174 -0.141730636
v 0.052587003 0.873191655 0.062200677
v 0.034300797 0.934185326 -0.135456666
v -0.172937661 0.903152764 -0.069661662
v 0.067723647 0.833044708 0.062303700
v -0.170434475 0.885166347 -0.073644385
v 0.052137662 0.818484426 0.057709176
v -0.155010849 0.891491771 -0.107107744
v -0.164835736 0.878485680 -0.094309591
v 0.056292642 0.853695393 0.060079306
v -0.164153397 0.897196293 -0.088287272
v 0.032813918 0.825568199 0.054310393
v -0.155958682 0.669980884 -0.078248829
v -0.169948190 0.706852257 -0.079118371
v 0.021316733 0.747579813 0.050629258
v 0.041483589 0.747079134 0.053980749
v 0.183100849 0.792453885 -0.083700716
v 0.008939792 0.931978703 0.072693154
v -0.100354098 0.713954329 0.070748217
v 0.040654324 0.950369477 0.083131172
v -0.143009171 0.904885590 -0.117620669
v 0.048543803 0.762913167 0.057160299
v 0.031318139 0.863380075 0.061041661
v -0.157582715 0.714754343 -0.086912565
v -0.126958787 0.897202134 -0.132227227
v 0.054164998 0.950904965 0.081043333
v -0.090868704 0.896582603 -0.146961361
v 0.044447582 0.839575946 0.056898583
v 0.022830544 0.822152734 -0.116565809
v 0.008941107 0.764208078 0.051670991
v -0.135679573 0.666683078 -0.086553261
v 0.013671240 0.827104568 0.052527975
v -0.151152432 0.699688435 -0.086703353
v -0.121734358 0.708069742 -0.102326453
v -0.117662393 0.663321137 -0.092708856
v -0.012049737 0.760020554 0.051456504
v 0.022640880 0.844173253 0.055350911
v 0.021535555 0.796753168 -0.102776274
v 0.004121787 0.840321660 0.053602628
v -0.124430940 0.678923309 -0.093268745
v -0.107963301 0.722168744 -0.107841894
v -0.026320368 0.772813737 0.053631175
v 0.006597420 0.811993003 -0.109237090
v -0.100630328 0.671203136 -0.094288208
v 0.105304398 0.835798383 -0.131328374
v 0.003681809 0.859354973 0.060991906
v -0.012549792 0.875910282 0.064859763
v -0.100165986 0.704992950 -0.101711586
v 0.068775311 0.951451480 0.078239217
v 0.104672529 0.730358601 -0.107884243
v 0.105483115 0.715108097 -0.105074182
v -0.081103362 0.670933664 -0.086225264
v 0.083104223 0.952098370 0.074601054
v -0.041708283 0.810939312 -0.111265257
v 0.097284675 0.952510834 0.070526160
v -0.068982445 0.715297759 -0.092824996
v 0.125756755 0.907309234 -0.131222755
v -0.082109183 0.702509999 -0.094893888
v 0.110921979 0.953417957 0.065317556
v 0.120927408 0.756064534 -0.112196602
v 0.123650730 0.774760544 -0.113439426
v -0.055600595 0.797710538 -0.106557205
v 0.123917796 0.954773068 0.058914650
v -0.061391998 0.812885761 -0.114533171
v -0.023379590 0.929822445 -0.135180265
v -0.110351205 0.921235740 0.050297804
v 0.133456275 0.955894589 0.047785234
v -0.062162317 0.671574950 -0.078702062
v -0.076435708 0.804073691 -0.111356914
v -0.066229299 0.699904382 -0.088814564
v -0.069971628 0.905586123 -0.148627356
v 0.140893802 0.956720650 0.036178932
v -0.094029650 0.811621070 -0.115614437
v 0.118651465 0.701448977 -0.101634704
v -0.044530589 0.675805926 -0.072853208
v -0.111646101 0.802806854 -0.115515843
v 0.149322644 0.957180023 0.024440043
v -0.053680301 0.893501580 -0.146905109
v 0.156982735 0.957832992 0.012166725
v -0.129665881 0.816046238 -0.113105334
v -0.051993996 0.706989646 -0.085139960
v 0.094535761 0.783760309 0.073165804
v 0.160455361 0.958545327 -0.002036475
v -0.144517481 0.804966748 -0.106643751
v 0.133070394 0.792723715 -0.110619046
v -0.009906041 0.677839816 -0.067312077
v 0.066401467 0.676999450 -0.081787437
v 0.162904039 0.958869755 -0.016360600
v -0.150404721 0.819138408 -0.104388155
v 0.112621725 0.841377914 0.068727918
v -0.101102099 0.742965817 0.073061958
v 0.159989864 0.957567692 -0.045041405
v 0.106504045 0.821029961 0.076308519
v -0.147000372 0.821997643 0.065802857
v -0.020377817 0.706256330 -0.078198284
v 0.010645093 0.681626499 -0.068719313
v 0.137686759 0.706310987 -0.094191983
v -0.003097004 0.713293672 -0.079472914
v 0.029095089 0.693773627 -0.075203106
v 0.031661209 0.676337302 -0.069485083
v 0.158581704 0.733477116 -0.089864098
v 0.144990236 0.778547049 -0.104420066
v -0.207501143 0.795436442 -0.036231395
v -0.035667695 0.838471711 0.054979343
v -0.044975307 0.820386529 0.055884428
v -0.203752205 0.814175308 -0.040279184
v -0.051420886 0.802257240 0.057305377
v 0.059442651 0.811658204 -0.113162220
v 0.180810884 0.770479023 -0.083469480
v -0.202628046 0.826285541 -0.020352708
v 0.030935753 0.722314596 -0.084211208
v 0.025637561 0.709060073 -0.079774350
v 0.184950083 0.728822052 -0.069345877
v -0.206850246 0.807712734 -0.014214831
v 0.049625956 0.690776050 -0.079138473
v 0.156545699 0.956733227 -0.057763081
v 0.195207909 0.747469366 -0.059401762
v 0.042093750 0.709037185 -0.082746089
v -0.205183581 0.822605252 0.003889629
v 0.046966102 0.732525170 -0.089965284
v 0.153533325 0.956551731 -0.071407683
v 0.060307603 0.711267114 -0.088704862
v 0.188622281 0.708937466 -0.059819795
v -0.177393004 0.680458009 -0.069442824
v -0.189367071 0.670762539 -0.051877279
v 0.205473736 0.744751215 -0.044655412
v -0.203540519 0.806723118 0.016973978
v -0.192274317 0.817709923 0.028926710
v 0.192293525 0.784104884 -0.067068890
v -0.144421414 0.872600555 0.049085807
v -0.132563785 0.953029513 0.056427009
v -0.190551221 0.798806012 0.041943617
v 0.204034805 0.780148864 -0.048762243
v -0.180595353 0.815479875 0.048598684
v -0.158943579 0.859733403 0.050071377
v 0.209767744 0.787750304 -0.009316579
v -0.170957744 0.799441040 0.062976658
v 0.166930184 0.895501912 -0.079925537
v -0.152069405 0.841276288 0.059746079
v -0.171562016 0.846083343 0.045084722
v 0.209967449 0.781657040 0.013246533
v -0.169632167 0.830354333 0.057030283
v 0.209424108 0.731117487 0.014742607
v 0.205207378 0.744197845 0.025657158
v -0.163384885 0.814182162 0.062557295
v -0.148330718 0.802554965 0.068783261
v -0.182278514 0.831588089 0.037888411
v -0.106072947 0.813539147 0.077802517
v -0.184203729 0.847509027 0.027440865
v -0.173120543 0.860796094 0.031323336
v 0.199516922 0.777774572 0.032184407
v 0.190267473 0.752692103 0.055625819
v -0.137146488 0.853864789 0.058189012
v -0.194562152 0.834014058 0.019125167
v -0.125073433 0.745991647 0.079498038
v -0.186246306 0.862098217 0.012957187
v 0.198444679 0.758328736 0.037787203
v -0.186956495 0.874613464 -0.007590185
v 0.170063838 0.748818994 0.065465130
v -0.198964074 0.844610810 -0.024035469
v 0.171157330 0.785575747 0.065600932
v -0.201254010 0.838897824 -0.003747248
v -0.131279156 0.886163831 0.043981533
v -0.191374928 0.862098992 -0.026224369
v 0.166144118 0.714943647 0.063959397
v -0.132896930 0.919069111 0.048326053
v 0.084794953 0.808320820 -0.113687947
v -0.129347354 0.935671449 0.052319624
v -0.188481390 0.865489841 -0.045181807
v -0.194182217 0.820665061 -0.062387336
v -0.113202117 0.939611614 0.057189614
v 0.084657811 0.820762515 -0.121214151
v -0.151268750 0.953354478 0.034181360
v -0.184128717 0.810145080 -0.081464060
v 0.155333489 0.869079888 -0.109983288
v 0.164137602 0.931390405 -0.072388850
v -0.174222246 0.867711842 -0.077670053
v -0.141458124 0.953712285 0.044806860
v 0.147378787 0.780174375 0.072347902
v 0.146948665 0.955703080 -0.084182076
v -0.155853629 0.910707831 -0.101785779
v 0.131042451 0.791961789 0.075158164
v -0.169839740 0.821914971 -0.096041679
v -0.168570876 0.841580689 -0.095144823
v -0.163855553 0.859754443 -0.094734892
v 0.139818743 0.955436528 -0.096846513
v 0.144047156 0.825080514 0.066561446
v 0.129278705 0.954146743 -0.106884621
v -0.151810050 0.889439762 0.038348246
v 0.066906072 0.894850850 -0.148604721
v 0.112645604 0.782760084 0.080190577
v 0.118020140 0.953043818 -0.115817830
v 0.129549026 0.940986454 -0.115536250
v 0.142985985 0.707108438 0.072217405
v -0.137968659 0.936816037 0.036995839
v 0.063926540 0.876846790 -0.149041280
v -0.137314186 0.834767699 -0.111448631
v -0.108514622 0.911276996 -0.137753844
v -0.161853701 0.874459267 0.035127487
v 0.105062112 0.951575935 -0.122612700
v -0.118515745 0.833640277 -0.120672747
v 0.090956867 0.949907780 -0.126422778
v -0.080194734 0.834221244 -0.134732395
v 0.105559289 0.711755276 0.073203050
v -0.097649731 0.827184379 -0.124836162
v 0.093013123 0.939960659 -0.132434443
v 0.076500073 0.948410153 -0.129399091
v 0.103431545 0.765916824 0.076079674
v 0.096323296 0.746410191 0.071937755
v 0.159320638 0.840453744 -0.098504789
v -0.059425451 0.929525375 0.069762938
v -0.087128825 0.853206336 -0.143500417
v -0.077581368 0.820384681 -0.121199563
v -0.098008625 0.931962013 -0.134636074
v 0.145930454 0.853447795 -0.110196665
v 0.082346790 0.763892770 0.067351922
v -0.056733888 0.827340722 -0.125966877
v 0.040943049 0.659436107 -0.065964058
v -0.022236168 0.835636437 -0.126690120
v 0.026551371 0.660603285 -0.062827073
v 0.011818566 0.661419749 -0.060624830
v -0.033007842 0.824815392 -0.119787887
v 0.062419821 0.752627969 0.059938222
v 0.076618642 0.739466071 0.063539311
v -0.003403204 0.661618292 -0.060022078
v 0.070814475 0.718330026 0.059840899
v -0.029214645 0.868671775 -0.141689867
v -0.039625086 0.923928082 0.069088981
v -0.052988179 0.912092209 0.065732099
v -0.018277597 0.661155939 -0.060867250
v 0.063502476 0.773366094 0.061568756
v -0.021173116 0.851044834 -0.135467753
v 0.046088554 0.777537704 0.057119407
v 0.055363458 0.732549787 0.055789094
v -0.032693446 0.659960210 -0.063442446
v -0.079594620 0.853964329 0.064340815
v -0.080926448 0.839957416 0.065537557
v -0.003817686 0.837841213 -0.126659483
v -0.046235159 0.658127487 -0.067761004
v 0.007252260 0.880015671 -0.141332835
v -0.011379100 0.824285328 -0.117428266
v -0.058905542 0.656291962 -0.072330281
v -0.072348736 0.654972851 -0.077384762
v -0.085725352 0.653392375 -0.082513668
v -0.128083602 0.831987739 0.067918532
v -0.104707554 0.831692100 0.073087558
v 0.002673510 0.749383092 0.049729776
v 0.006780850 0.733161092 0.047349554
v -0.098868445 0.651485980 -0.088187426
v -0.113733791 0.650434196 -0.090516821
v -0.107649647 0.776961267 0.077651456
v -0.013083342 0.742048562 0.049210165
v -0.032748349 0.753116488 0.053082794
v -0.127308026 0.650611460 -0.086014479
v 0.011182552 0.863461196 -0.138951465
v -0.006155534 0.777165115 0.052054055
v -0.140863016 0.650536180 -0.081449814
v -0.134053737 0.767046273 0.076255605
v -0.053837072 0.751956522 0.057315372
v -0.110807739 0.729259968 0.076026611
v -0.008003027 0.865787148 -0.139313430
v -0.056611944 0.713322401 0.054117989
v -0.147196740 0.748061538 0.072315693
v -0.013394853 0.808395565 0.050577454
v -0.110146426 0.700996220 0.073628053
v -0.133629009 0.704496145 0.075433269
v 0.028572995 0.886796594 -0.142988414
v 0.012815696 0.896276116 -0.141262203
v -0.153532118 0.784174085 0.069800012
v 0.026152575 0.906466782 -0.141139552
v 0.158957794 0.899418533 -0.101372465
v -0.154178113 0.650375664 -0.076182760
v -0.000402168 0.794333339 0.050755568
v -0.154877290 0.709276438 0.067228600
v -0.178418249 0.781645477 0.062774584
v 0.164054662 0.880570054 -0.095266230
v -0.158941537 0.731069207 0.067686006
v -0.169748113 0.749625862 0.065007806
v -0.142015487 0.904510796 0.042792864
v 0.155347019 0.713783205 -0.087322488
v -0.120140240 0.902913392 0.044724502
v 0.018520273 0.798309445 0.051711518
v -0.177782625 0.735203445 0.061334860
v 0.172625363 0.894105434 -0.058611203
v -0.166363746 0.650314927 -0.070897117
v -0.106288418 0.794731319 0.077855512
v 0.173274904 0.707563996 -0.077035837
v -0.186425656 0.652136266 -0.051531993
v -0.200228781 0.758701265 0.033917341
v 0.169740409 0.723594487 -0.082191437
v -0.194030941 0.652909636 -0.039718919
v -0.192439184 0.746614575 0.051774122
v 0.033059198 0.787890911 0.054700989
v 0.037190951 0.805894196 0.054057736
v 0.171741992 0.912645698 -0.067726880
v -0.200996324 0.653422356 -0.027471468
v -0.194090217 0.778089643 0.041490298
v -0.201195523 0.654170990 -0.013513004
v -0.200826734 0.739372134 0.033759329
v -0.201110095 0.654696107 0.000395179
v -0.201003030 0.654625654 0.014316050
v -0.204326794 0.773698628 0.023803268
v -0.210557789 0.746249974 0.014402403
v -0.195185363 0.655151069 0.025917459
v 0.054811738 0.794909775 0.059154235
v -0.211206958 0.762904942 0.008561311
v -0.189027578 0.655466735 0.038241789
v -0.181553513 0.655659854 0.050586324
v 0.200169757 0.703374445 -0.043456249
v -0.210851282 0.779234767 0.004496492
v 0.089883715 0.803302169 0.072094157
v 0.201084808 0.717727542 -0.045094389
v 0.166777581 0.940772355 -0.026598562
v -0.168427855 0.655951619 0.056249727
v -0.208309084 0.729929566 0.017051499
v -0.155189902 0.655898869 0.061757512
v 0.163141832 0.943653762 -0.058017693
v -0.142033294 0.655571997 0.067671552
v -0.128868312 0.654903054 0.073628984
v 0.110752903 0.800198257 0.079261005
v 0.174356192 0.910124660 -0.047306415
v -0.113257363 0.654673338 0.071142897
v -0.099725589 0.654265344 0.065638721
v -0.209472269 0.787580669 -0.015817078
v -0.086391389 0.655879498 0.069702573
v -0.210727736 0.751786590 -0.009898478
v 0.208139449 0.713952422 -0.028890947
v 0.175665304 0.893015981 -0.035056766
v 0.129035577 0.810859859 0.073147327
v -0.208758757 0.776426971 -0.033484433
v -0.209463313 0.738817811 -0.028701022
v -0.209895059 0.757758379 -0.031999800
v 0.045557857 0.793621957 -0.103659831
v 0.208191246 0.710326195 -0.010337814
v 0.164263204 0.825462639 0.060920589
v 0.171610117 0.925707698 -0.037826408
v 0.098454401 0.823099792 -0.121008411
v 0.034492794 0.809834361 -0.109855257
v 0.151987404 0.795742929 -0.102588847
v -0.130415142 0.788827062 0.075292826
v 0.152749032 0.803510010 0.067871884
v -0.201342016 0.745384336 -0.051198054
v -0.190632924 0.776453197 -0.068868071
v -0.195328116 0.850720584 -0.044075854
v 0.208314925 0.713645518 0.010383838
v -0.187768638 0.735799670 -0.067592882
v 0.044560067 0.932701409 0.070319742
v 0.178018659 0.808175087 0.056972403
v -0.188192442 0.756021559 -0.069828592
v -0.176710546 0.766962528 -0.087780491
v -0.162170857 0.780071855 -0.097127058
v 0.201870888 0.704886079 0.027440164
v 0.189858943 0.793337405 0.046357274
v -0.172615543 0.725456476 -0.081729934
v -0.179184929 0.849779785 -0.079481132
v 0.171696872 0.908965886 -0.027645852
v -0.106735192 0.951294720 0.069554657
v 0.189711601 0.812591910 0.035750180
v 0.201525837 0.819031060 0.015489457
v 0.003815028 0.850632191 -0.134168908
v 0.025538996 0.851588070 -0.136133105
v 0.201786876 0.723954976 0.030183297
v -0.169600666 0.745731235 -0.087368749
v 0.193683475 0.694820523 0.042723842
v 0.200493723 0.797847807 0.026777789
v 0.061435502 0.947965801 -0.130727991
v 0.046152588 0.947606742 -0.130900532
v 0.175160199 0.895034313 -0.012364781
v -0.064607993 0.816126525 0.060859431
v 0.030534783 0.947002113 -0.129833668
v -0.128475815 0.809319675 0.073183008
v 0.209798411 0.800033212 0.007017047
v 0.206786662 0.808923066 -0.009330309
v 0.014895069 0.946121991 -0.127696335
v 0.167004794 0.913110375 -0.009724712
v -0.153068885 0.728991151 -0.092157334
v -0.000836584 0.945092320 -0.125647619
v -0.004690725 0.928496480 -0.134012908
v -0.149584323 0.850113750 -0.107233867
v -0.016497761 0.945918918 -0.128202021
v -0.032061897 0.946503341 -0.130513281
v 0.207740307 0.796793044 -0.030286243
v -0.136270478 0.775496483 -0.108415864
v -0.129131898 0.853113830 -0.123470798
v -0.109677449 0.863737285 -0.138861045
v -0.143729880 0.743434906 -0.099450134
v 0.162989110 0.901159286 0.005412987
v 0.160034165 0.942907512 0.001438582
v -0.132326841 0.695382476 -0.094102778
v -0.032597195 0.805456936 0.052935600
v 0.201370150 0.797850311 -0.053760212
v 0.020585937 0.836767673 -0.127008587
v -0.112335064 0.785026312 -0.115161024
v 0.150238425 0.937739968 0.013593229
v 0.006839556 0.826916575 -0.118972376
v -0.112136781 0.689963460 -0.101523742
v 0.191534638 0.801772475 -0.069474086
v -0.121579528 0.738458216 -0.109297074
v -0.093306892 0.738635480 -0.105829276
v 0.140239343 0.935249925 0.027013356
v -0.108558260 0.751531959 -0.111638382
v -0.092469439 0.776759088 -0.109473623
v 0.146968156 0.900241017 0.038081497
v -0.087705322 0.719878554 -0.100291155
v 0.067344740 0.728232980 -0.094902731
v 0.165778697 0.783608496 -0.095498040
v -0.047144897 0.946903229 -0.131504864
v -0.061318867 0.947217762 -0.131410986
v -0.073756613 0.786943555 -0.106413126
v -0.072357222 0.769048333 -0.103333995
v -0.072533116 0.750555396 -0.100861624
v -0.071588293 0.732362330 -0.097691908
v -0.045318618 0.856409371 -0.141823038
v -0.014535403 0.841256917 0.053864501
v 0.191770390 0.715339720 0.049554765
v -0.090718254 0.948686898 -0.127538353
v -0.104888573 0.949929535 -0.123897359
v 0.181164905 0.732456326 0.060415380
v 0.081880912 0.654000461 -0.080594704
v -0.118210874 0.951042354 -0.117747344
v 0.125170097 0.900429130 0.042203575
v -0.129672438 0.951558411 -0.108934104
v -0.140468642 0.952659130 -0.099482343
v -0.147066146 0.952699542 -0.087823145
v 0.179426193 0.825773060 0.044806916
v 0.132990345 0.939707875 0.040190060
v -0.153666601 0.953606009 -0.075072899
v -0.158289492 0.954233050 -0.061400432
v -0.163807839 0.955242813 -0.048085719
v 0.132185653 0.825230420 -0.111558512
v -0.166030407 0.955540955 -0.033713799
v 0.124387503 0.934164703 0.052661009
v -0.166453838 0.955630124 -0.019085029
v -0.052715898 0.724994957 -0.089936338
v 0.107937895 0.893984675 0.051951110
v 0.102519050 0.762283742 -0.110431828
v 0.084374763 0.751489162 -0.104062572
v 0.084706411 0.765761018 -0.105888531
v 0.165980607 0.941989779 -0.042400502
v -0.053050928 0.742956996 -0.094309755
v 0.085002311 0.780140817 -0.107189812
v -0.052542090 0.780092895 -0.101268634
v 0.100861594 0.778629541 -0.111331746
v 0.084977411 0.794383943 -0.109529413
v -0.168145224 0.955438495 -0.004498952
v 0.203458548 0.819476306 -0.026320064
v 0.107086465 0.936247647 0.055158876
v -0.034754604 0.734151840 -0.088475756
v -0.164093792 0.954851508 0.008417822
v -0.158577710 0.954037964 0.021545837
v 0.087871894 0.923853993 0.058583587
v 0.128332600 0.887575924 -0.131834790
v -0.052674837 0.761397004 -0.097723976
v -0.031168040 0.792672396 -0.101983808
v 0.092760801 0.941500843 0.062931985
v -0.033372574 0.752612472 -0.092716277
v 0.090782039 0.885289669 0.056778669
v -0.015060866 0.742492557 -0.088469945
v -0.083470821 0.797329843 0.068674959
v -0.149618268 0.938235760 0.024468455
v 0.061115272 0.939855695 0.071231358
v 0.063685365 0.925132573 0.064873815
v 0.076392509 0.938850880 0.066542357
v 0.001490454 0.731713057 -0.084966324
v -0.012170622 0.760650039 -0.092675798
v 0.007574330 0.749415755 -0.089613602
v -0.036683694 0.721957326 0.049985640
v -0.011007719 0.779079616 -0.097160824
v 0.125821739 0.924974799 -0.125636250
v 0.011461804 0.767169535 -0.094109066
v 0.106107295 0.915270627 -0.137342781
v 0.045264725 0.873880267 -0.146018609
v 0.046790190 0.896493614 -0.145628721
v 0.146520600 0.725679100 0.072015084
v 0.110316351 0.731876433 0.076602861
v 0.036239408 0.755649269 -0.093354516
v 0.031982988 0.777718127 -0.098032914
v -0.076275446 0.947873890 -0.130041689
v 0.076921925 0.894252419 0.060919773
v 0.058058612 0.892302811 0.063029811
v -0.175039381 0.664548993 -0.068865091
v 0.085924491 0.704005122 0.064777486
v 0.090745859 0.725194395 0.068317249
v -0.178006828 0.651147425 -0.062879369
v 0.047252033 0.910037518 0.066555835
v 0.051149767 0.672106087 -0.074144721
v 0.054668687 0.657670856 -0.070827670
v -0.068252906 0.695650518 0.056453537
v 0.068309940 0.655879915 -0.075739935
v -0.081211053 0.951454341 0.081166252
v 0.139650077 0.917715192 -0.117009379
v -0.093432233 0.950788319 0.074977480
v -0.101572990 0.687606514 0.069135204
v 0.049968172 0.712627411 0.052214544
v -0.044747747 0.938829541 0.075435773
v 0.003897627 0.676289439 0.039234016
v -0.009368805 0.688115537 0.041291151
v 0.026082706 0.686986089 0.043000333
v 0.132903755 0.865216255 -0.127676710
v 0.046448205 0.692469239 0.048701752
v -0.028514275 0.689569533 0.043891259
v 0.137993470 0.688424468 0.073402457
v 0.037473030 0.885757625 0.065070018
v 0.026991293 0.901300728 0.067155473
v 0.110415325 0.916348457 0.047971457
v 0.029074479 0.705883861 0.046272658
v 0.137095734 0.919247985 0.043119743
v 0.147428691 0.913482368 0.020595480
v -0.027559912 0.936624050 0.074862555
v 0.008839847 0.715061426 0.044908293
v 0.031011185 0.727471113 0.049255807
v 0.157687217 0.922474861 0.003664455
v 0.165253416 0.933311462 -0.010703852
v 0.008620918 0.696500599 0.042505242
v 0.169753522 0.924318790 -0.022344943
v 0.201270536 0.686374545 0.023684941
v 0.206480294 0.693180859 0.000542235
v -0.014438164 0.722496867 0.046409849
v 0.206586197 0.692123652 -0.027268786
v 0.168779045 0.927128673 -0.054772340
v -0.011522856 0.704159856 0.043686673
v 0.029585805 0.766530931 0.053949855
v 0.066493474 0.697105825 0.056252379
v 0.101626977 0.691836119 0.070082776
v 0.120807566 0.698978066 0.078270487
v 0.190069377 0.773158193 0.050322436
v 0.209292486 0.774311364 -0.026527777
v -0.033330418 0.706295967 0.047023483
v 0.205952018 0.761755407 -0.045608871
v 0.177114978 0.699087262 0.058561750
v 0.157178357 0.695088267 0.066183403
v -0.047401194 0.734973073 0.053817641
v -0.071227737 0.752054095 0.062328458
v 0.009954145 0.908037305 0.068533614
v -0.010382174 0.935242832 0.074603222
v -0.065730780 0.768378735 0.061609834
v -0.045522418 0.853372455 0.059214134
v -0.059340753 0.834837079 0.058883421
v 0.104276672 0.685401082 -0.098795541
v -0.021145884 0.920239329 0.068992481
v 0.124492489 0.719808161 -0.103882656
v -0.045399919 0.897338092 0.065187499
v -0.032219432 0.906734765 0.067353681
v -0.061546821 0.896905065 0.062868044
v 0.119188309 0.669742584 -0.093599387
v 0.141797021 0.726605117 -0.096812949
v -0.005361611 0.825271428 0.051960487
v 0.126496643 0.771679938 0.078709528
v 0.184172958 0.856745362 0.020539578
v 0.140785307 0.670968890 -0.084537171
v 0.210532755 0.767066061 -0.004911921
v 0.189720303 0.834786713 -0.066286787
v 0.193148762 0.766131163 -0.062929139
v 0.163538054 0.671662033 -0.074670598
v 0.137757808 0.760565639 -0.104745112
v 0.123725593 0.808649838 -0.115279473
v 0.192067474 0.688932300 -0.051299505
v 0.182757288 0.672294617 -0.060307194
v 0.155981824 0.935403824 -0.088534594
v -0.004347377 0.918812096 0.069325015
v -0.010482927 0.898604691 0.067601159
v 0.196818322 0.672328293 -0.041000482
v -0.051181924 0.882897556 0.062701777
v -0.036365815 0.870347619 0.063072257
v 0.144248605 0.935190380 -0.105421983
v 0.203926444 0.673809111 -0.017174538
v 0.202889949 0.828545451 -0.007447454
v 0.109224364 0.854782939 -0.137009040
v 0.209395260 0.726242661 -0.000642533
v 0.203724697 0.674094617 0.005214166
v 0.103433289 0.746236384 -0.109102167
v 0.198948652 0.670357704 0.023413945
v 0.115162835 0.825210869 -0.118363775
v 0.191573292 0.675290883 0.040144820
v 0.183592901 0.684287369 0.054325312
v -0.019973159 0.790812850 0.052272439
v 0.162895799 0.915382504 -0.085834309
v 0.152530879 0.917880356 -0.102920100
v 0.104018882 0.808420837 -0.114567436
v 0.167185813 0.680942118 0.060629643
v 0.196787402 0.730371654 -0.053377368
v 0.163218707 0.733000517 0.066837415
v 0.127459228 0.718763411 0.078757547
v 0.209379509 0.731097043 -0.016856220
v 0.208763123 0.731250048 -0.035474785
v 0.116680428 0.678023279 0.075003229
v 0.071910873 0.879695594 0.060669534
v 0.122146465 0.880357444 0.050898544
v 0.195892662 0.737360477 0.043739498
v 0.130059242 0.687358499 -0.092605717
v 0.082105592 0.680679679 0.061110932
v 0.005130530 0.811085999 0.050361853
v 0.151176363 0.745015025 0.071558699
v 0.132329911 0.738541603 0.077704214
v 0.174368307 0.737892926 -0.082895897
v 0.061969377 0.675567985 0.052441053
v 0.173314705 0.875476956 -0.072489217
v -0.083118133 0.811581731 0.067321837
v -0.084885821 0.740223050 0.066417761
v -0.028931195 0.735274911 0.050113730
v 0.041719534 0.674157679 0.045060955
v 0.181539953 0.880146146 -0.047898330
v -0.084153816 0.783050179 0.068343677
v -0.082100406 0.825790524 0.066474780
v 0.022892687 0.670624018 0.040134855
v -0.058191933 0.867525756 0.060997624
v -0.078321382 0.867608547 0.060381174
v 0.027436530 0.920373619 0.068613850
v -0.019251566 0.673793077 0.040349551
v 0.026588768 0.937965751 0.075167939
v 0.150936127 0.675883770 0.066637181
v 0.021764234 0.813536942 0.051703852
v 0.111260794 0.934503078 -0.128400177
v -0.041585796 0.673702419 0.044956081
v 0.143610090 0.901677012 -0.117616393
v -0.064120963 0.675566137 0.052968252
v -0.049024303 0.692349494 0.049490292
v 0.125242874 0.844271183 -0.121129349
v -0.064668521 0.851956546 0.062202722
v -0.067130081 0.732205451 0.059117384
v -0.084766902 0.725946724 0.065501809
v -0.084560513 0.768766284 0.067935452
v 0.178093255 0.670490563 0.054725468
v -0.084777378 0.754481018 0.067332767
v 0.154043227 0.691822588 -0.082781576
v 0.170255080 0.803564250 -0.094713144
v 0.184113160 0.817009330 -0.080602899
v 0.070546418 0.809157193 0.063513011
v 0.014228573 0.781134725 0.052518040
v 0.075771704 0.788642585 0.065737166
v 0.177782267 0.689453721 -0.070243008
v 0.134948701 0.671212852 0.072759703
f 555 540 123
f 389 162 497
f 567 540 568
f 583 104 251
f 463 489 430
f 453 94 255
f 483 484 162
f 446 640 671
f 574 577 251
f 50 244 238
f 52 244 50
f 575 57 53
f 55 249 52
f 55 2 250
f 577 248 563
f 575 437 432
f 57 597 589
f 2 265 262
f 589 592 57
f 262 259 2
f 5 267 262
f 602 606 589
f 5 9 11
f 58 606 610
f 11 272 5
f 12 278 11
f 565 793 8
f 630 60 632
f 13 425 12
f 424 289 160
f 289 424 13
f 643 649 60
f 181 403 179
f 483 206 484
f 163 651 174
f 53 563 558
f 651 65 650
f 163 389 384
f 683 66 65
f 455 558 563
f 165 384 171
f 340 331 34
f 67 66 683
f 206 470 63
f 385 102 856
f 67 702 70
f 344 340 696
f 179 403 406
f 710 70 702
f 16 352 14
f 111 112 59
f 63 64 655
f 18 368 16
f 710 742 753
f 119 112 111
f 394 671 545
f 551 922 903
f 19 375 18
f 753 740 711
f 406 470 179
f 261 615 108
f 545 453 439
f 178 386 530
f 24 386 23
f 72 753 742
f 26 396 24
f 768 765 72
f 119 142 112
f 32 63 470
f 112 142 161
f 399 400 396
f 154 343 182
f 545 671 448
f 399 415 400
f 768 770 765
f 32 406 410
f 418 415 399
f 770 183 777
f 387 300 166
f 415 418 422
f 105 86 299
f 169 42 839
f 170 142 119
f 173 172 705
f 329 638 343
f 134 738 737
f 185 638 329
f 692 661 145
f 150 74 741
f 637 345 873
f 132 145 661
f 170 184 142
f 138 495 760
f 138 136 188
f 136 194 188
f 201 87 194
f 270 87 205
f 216 49 210
f 46 216 724
f 198 184 170
f 43 96 907
f 219 39 218
f 45 43 41
f 224 37 219
f 498 224 514
f 86 105 342
f 225 36 514
f 378 107 110
f 80 233 107
f 22 41 43
f 198 217 849
f 41 581 45
f 103 233 76
f 76 40 103
f 222 217 214
f 678 100 40
f 98 41 22
f 366 41 98
f 40 76 678
f 215 4 284
f 215 98 21
f 537 536 92
f 222 234 217
f 904 537 92
f 460 462 30
f 284 471 366
f 222 239 246
f 586 903 759
f 462 28 30
f 246 234 222
f 454 449 28
f 237 391 924
f 560 319 921
f 246 888 252
f 431 471 282
f 455 560 391
f 319 560 241
f 50 238 793
f 50 566 52
f 52 574 55
f 258 263 510
f 244 52 249
f 55 253 2
f 284 792 657
f 303 670 667
f 303 100 674
f 250 249 55
f 273 274 252
f 251 253 574
f 100 303 301
f 301 570 100
f 104 261 257
f 677 100 678
f 273 285 274
f 257 2 253
f 2 257 265
f 250 2 259
f 570 568 40
f 752 292 293
f 294 296 285
f 285 296 274
f 684 497 679
f 277 274 296
f 440 447 442
f 579 489 463
f 692 329 695
f 259 262 267
f 871 736 360
f 262 271 9
f 40 100 570
f 570 567 568
f 203 128 270
f 310 296 294
f 305 296 310
f 87 270 194
f 9 5 262
f 5 272 600
f 276 9 271
f 9 276 11
f 272 11 278
f 302 323 310
f 568 103 40
f 108 615 89
f 280 11 276
f 11 280 12
f 103 568 540
f 278 12 425
f 323 337 328
f 283 12 280
f 12 283 13
f 283 297 289
f 289 13 283
f 540 561 231
f 425 13 424
f 209 288 205
f 291 125 286
f 346 337 323
f 49 304 288
f 173 350 351
f 297 654 314
f 347 158 864
f 304 47 311
f 47 304 49
f 47 46 481
f 360 361 855
f 501 684 146
f 481 311 47
f 46 39 481
f 343 695 329
f 314 289 297
f 289 314 160
f 481 321 308
f 481 39 321
f 325 122 321
f 325 321 37
f 37 321 39
f 333 160 314
f 324 266 333
f 527 107 231
f 84 121 325
f 36 327 498
f 160 333 34
f 327 120 84
f 36 82 371
f 277 393 390
f 689 34 333
f 34 689 340
f 313 34 331
f 266 334 689
f 334 260 341
f 340 335 331
f 107 527 110
f 54 404 405
f 696 14 344
f 61 401 44
f 38 299 407
f 358 14 348
f 14 358 16
f 344 14 352
f 356 704 712
f 352 16 368
f 413 62 417
f 370 16 358
f 16 370 18
f 175 705 134
f 713 115 110
f 371 27 378
f 27 371 82
f 381 18 370
f 18 381 19
f 368 18 375
f 80 378 27
f 19 381 235
f 19 395 23
f 19 23 178
f 202 506 913
f 23 395 24
f 386 24 396
f 398 24 395
f 24 398 26
f 26 398 220
f 26 412 399
f 396 26 399
f 418 399 412
f 164 180 444
f 444 443 164
f 175 173 705
f 685 84 120
f 422 300 415
f 685 121 84
f 172 169 300
f 172 300 422
f 78 80 27
f 226 365 78
f 89 615 114
f 240 485 309
f 134 737 175
f 226 27 82
f 245 459 452
f 187 186 140
f 243 459 245
f 189 187 130
f 581 466 579
f 467 472 637
f 308 122 240
f 138 579 466
f 430 255 463
f 499 435 430
f 453 430 435
f 435 440 439
f 435 499 450
f 243 479 281
f 308 321 122
f 897 438 584
f 439 453 435
f 243 281 893
f 450 440 435
f 480 859 865
f 440 449 447
f 442 439 440
f 450 449 440
f 447 449 454
f 492 488 493
f 127 458 456
f 449 456 28
f 82 225 708
f 454 28 462
f 28 456 30
f 456 450 127
f 30 456 458
f 225 82 36
f 30 464 460
f 506 507 502
f 126 469 125
f 287 508 509
f 207 507 506
f 410 460 32
f 126 306 477
f 460 464 644
f 644 32 460
f 32 644 63
f 475 31 576
f 470 406 32
f 64 63 644
f 306 309 477
f 125 464 458
f 528 795 511
f 516 523 524
f 655 206 63
f 206 655 484
f 206 474 470
f 162 679 497
f 316 322 822
f 313 160 34
f 37 498 325
f 523 316 534
f 497 684 501
f 501 146 505
f 146 512 503
f 505 503 513
f 263 515 510
f 512 120 115
f 503 512 91
f 517 513 503
f 115 713 91
f 458 203 125
f 315 547 548
f 91 512 115
f 547 330 336
f 91 713 88
f 517 88 522
f 552 548 547
f 532 88 713
f 88 532 519
f 552 336 553
f 522 519 541
f 527 231 561
f 127 128 458
f 538 660 692
f 514 36 498
f 224 498 37
f 538 692 695
f 114 626 631
f 553 342 105
f 219 37 39
f 555 660 561
f 127 450 499
f 891 199 824
f 660 555 661
f 218 39 46
f 199 97 886
f 366 98 284
f 22 21 98
f 41 366 581
f 43 232 22
f 907 232 43
f 96 536 907
f 45 463 255
f 45 581 463
f 255 94 96
f 255 96 45
f 94 453 545
f 448 546 545
f 582 593 594
f 595 584 438
f 216 46 47
f 216 47 49
f 551 640 558
f 558 640 569
f 49 288 209
f 793 565 50
f 569 53 558
f 566 50 565
f 209 210 49
f 841 351 350
f 574 52 566
f 578 53 57
f 612 609 423
f 53 578 563
f 575 53 569
f 597 432 211
f 253 55 574
f 57 575 597
f 578 57 592
f 592 583 578
f 627 609 612
f 584 621 628
f 603 589 606
f 602 589 597
f 634 819 627
f 610 606 602
f 835 318 229
f 626 606 58
f 610 624 58
f 58 624 630
f 632 58 630
f 634 884 869
f 58 632 626
f 60 642 632
f 642 60 649
f 60 630 181
f 650 649 643
f 662 652 645
f 656 628 621
f 621 636 656
f 658 659 204
f 64 644 469
f 466 495 138
f 694 377 700
f 468 471 431
f 663 650 65
f 628 656 668
f 679 162 484
f 65 686 663
f 672 673 659
f 686 65 66
f 683 65 651
f 468 431 478
f 683 693 67
f 685 146 684
f 146 685 512
f 696 340 689
f 66 67 701
f 473 495 478
f 66 698 686
f 702 67 693
f 668 675 687
f 701 698 66
f 405 690 54
f 701 67 70
f 54 690 564
f 14 696 348
f 711 70 710
f 699 70 711
f 702 709 710
f 229 318 236
f 657 282 471
f 710 709 742
f 753 756 740
f 756 753 72
f 742 754 72
f 72 754 768
f 72 765 756
f 766 765 770
f 490 193 496
f 130 772 496
f 770 776 766
f 15 719 168
f 87 201 148
f 183 770 768
f 201 194 136
f 422 705 172
f 633 777 338
f 777 633 150
f 408 74 633
f 638 185 408
f 106 730 258
f 688 379 694
f 275 631 118
f 185 692 145
f 197 750 749
f 736 737 738
f 263 258 730
f 738 741 743
f 185 145 143
f 743 741 744
f 744 741 74
f 744 467 879
f 132 140 145
f 123 132 661
f 741 738 150
f 123 540 567
f 773 772 567
f 738 134 150
f 78 27 226
f 238 623 1
f 264 279 779
f 776 150 134
f 134 705 420
f 695 541 538
f 104 599 261
f 365 681 680
f 761 762 763
f 365 678 76
f 76 78 365
f 411 156 420
f 156 411 220
f 541 519 538
f 220 764 156
f 76 233 78
f 80 78 233
f 168 789 387
f 70 699 701
f 398 395 228
f 434 437 445
f 779 780 887
f 428 432 434
f 926 317 706
f 197 749 745
f 213 6 4
f 279 785 780
f 419 427 428
f 148 201 745
f 454 462 419
f 526 782 783
f 381 734 235
f 410 414 419
f 493 769 913
f 511 4 215
f 4 511 213
f 406 414 410
f 208 731 729
f 21 511 215
f 210 728 727
f 794 800 823
f 511 21 529
f 470 474 179
f 724 218 46
f 227 110 115
f 118 280 275
f 219 218 722
f 806 800 794
f 803 804 256
f 716 778 225
f 224 219 720
f 407 86 690
f 356 734 381
f 389 497 380
f 809 795 528
f 810 806 811
f 717 716 514
f 497 501 380
f 317 697 429
f 810 818 821
f 913 771 202
f 341 698 699
f 373 376 159
f 369 177 373
f 341 260 698
f 260 334 266
f 365 226 681
f 517 522 354
f 828 821 818
f 354 362 364
f 569 640 446
f 519 522 88
f 767 828 818
f 266 324 676
f 602 597 211
f 804 834 256
f 121 240 122
f 345 868 918
f 610 602 211
f 169 839 166
f 427 195 211
f 643 179 174
f 683 651 165
f 693 683 171
f 627 884 634
f 324 654 676
f 846 397 841
f 841 397 374
f 362 709 369
f 580 397 846
f 192 188 190
f 192 499 489
f 128 192 190
f 270 205 203
f 205 288 286
f 291 306 126
f 208 148 733
f 288 304 291
f 304 311 306
f 311 481 308
f 286 125 203
f 283 118 297
f 589 599 592
f 283 280 118
f 227 115 120
f 747 805 732
f 707 226 82
f 107 378 80
f 275 114 631
f 118 646 297
f 89 114 275
f 231 233 103
f 87 209 205
f 816 872 870
f 271 108 89
f 248 560 455
f 248 241 560
f 108 271 265
f 566 565 241
f 86 876 690
f 622 244 619
f 517 91 88
f 574 566 248
f 715 662 889
f 244 249 618
f 249 250 614
f 882 465 718
f 253 251 257
f 774 465 882
f 250 259 608
f 883 494 774
f 921 391 560
f 259 267 604
f 54 564 847
f 251 577 583
f 600 267 5
f 89 276 271
f 503 91 517
f 690 405 407
f 275 276 89
f 892 573 582
f 272 278 596
f 248 577 574
f 280 276 275
f 425 588 591
f 425 424 781
f 781 313 572
f 424 313 781
f 572 585 781
f 314 654 324
f 136 197 201
f 313 557 572
f 237 551 558
f 554 331 335
f 334 341 348
f 760 136 138
f 335 344 549
f 341 699 704
f 348 696 334
f 921 319 7
f 358 348 704
f 344 352 544
f 912 582 594
f 903 586 551
f 352 368 543
f 381 370 356
f 368 375 539
f 788 8 3
f 535 375 178
f 221 795 809
f 828 767 562
f 559 833 920
f 921 920 899
f 546 448 898
f 903 922 836
f 38 903 299
f 235 228 395
f 405 669 407
f 546 92 94
f 400 518 520
f 92 546 904
f 639 35 926
f 386 396 525
f 927 926 33
f 928 605 930
f 200 490 298
f 94 545 546
f 96 92 536
f 927 56 852
f 143 472 408
f 220 412 26
f 400 520 521
f 412 220 411
f 109 113 152
f 920 832 559
f 418 412 411
f 152 113 746
f 387 789 786
f 420 418 411
f 746 161 867
f 418 420 422
f 490 773 298
f 496 772 773
f 394 442 445
f 562 767 832
f 739 636 820
f 204 725 658
f 773 490 496
f 725 223 635
f 447 454 428
f 472 186 637
f 215 284 98
f 189 130 496
f 458 464 30
f 410 462 460
f 125 469 464
f 635 247 487
f 487 269 629
f 641 487 629
f 268 269 487
f 269 393 629
f 390 269 268
f 469 126 64
f 349 761 763
f 655 64 477
f 303 674 670
f 290 393 277
f 611 290 928
f 163 474 483
f 928 307 605
f 635 641 648
f 531 605 533
f 677 674 100
f 477 309 485
f 506 202 207
f 679 485 240
f 240 121 684
f 312 912 594
f 684 679 240
f 121 685 684
f 186 187 345
f 503 505 146
f 912 332 892
f 772 130 132
f 685 120 512
f 501 505 159
f 725 648 658
f 505 513 373
f 513 517 364
f 892 847 564
f 110 527 713
f 714 847 339
f 522 541 154
f 51 714 346
f 231 103 540
f 714 51 404
f 541 695 343
f 567 772 123
f 502 500 506
f 578 577 563
f 867 659 673
f 577 578 583
f 597 575 432
f 592 104 583
f 913 492 493
f 845 167 839
f 599 104 592
f 386 178 23
f 599 603 615
f 110 227 378
f 615 261 599
f 706 402 639
f 603 626 114
f 132 123 772
f 624 610 195
f 409 706 317
f 746 673 682
f 114 615 603
f 120 327 227
f 624 414 403
f 691 429 697
f 642 631 632
f 642 118 631
f 429 433 853
f 646 118 642
f 642 649 646
f 152 682 691
f 682 433 691
f 181 643 60
f 654 297 646
f 122 325 121
f 140 130 187
f 421 416 617
f 123 661 555
f 309 308 240
f 698 260 686
f 702 693 177
f 698 701 699
f 672 441 436
f 291 126 125
f 109 691 697
f 143 140 186
f 874 872 816
f 665 441 672
f 188 192 489
f 665 658 653
f 712 704 699
f 653 451 665
f 927 697 317
f 712 740 734
f 648 461 653
f 178 375 19
f 923 880 116
f 641 461 648
f 740 756 748
f 748 758 228
f 926 706 639
f 479 641 482
f 754 742 362
f 354 754 362
f 407 669 38
f 203 458 128
f 482 629 620
f 756 765 758
f 182 754 154
f 128 127 192
f 254 246 252
f 611 382 620
f 764 398 228
f 499 192 127
f 764 766 156
f 766 776 156
f 930 611 928
f 420 156 776
f 140 132 130
f 788 7 8
f 387 166 168
f 420 776 134
f 136 760 197
f 300 387 415
f 750 197 760
f 745 201 197
f 148 208 209
f 733 148 745
f 258 35 106
f 593 533 605
f 731 208 733
f 236 318 910
f 729 210 208
f 728 210 729
f 727 216 210
f 188 489 579
f 929 573 556
f 724 216 727
f 573 929 582
f 723 218 724
f 722 218 723
f 720 219 722
f 717 224 720
f 514 224 717
f 188 579 138
f 876 556 573
f 707 681 226
f 898 904 546
f 472 143 186
f 212 795 221
f 899 391 921
f 854 925 931
f 213 795 212
f 140 143 145
f 404 54 714
f 833 922 924
f 415 387 786
f 143 408 185
f 238 3 793
f 1 3 238
f 31 799 752
f 622 238 244
f 918 799 515
f 380 376 171
f 915 752 357
f 617 476 421
f 619 244 618
f 618 249 616
f 616 249 614
f 636 739 613
f 388 613 10
f 614 250 608
f 357 791 915
f 383 688 388
f 608 259 607
f 571 438 576
f 295 667 666
f 92 96 94
f 607 259 604
f 372 726 700
f 667 295 303
f 367 726 372
f 604 267 601
f 298 295 207
f 923 875 880
f 363 732 367
f 408 467 74
f 148 209 87
f 298 301 295
f 359 747 363
f 601 267 600
f 359 355 755
f 600 272 598
f 598 272 596
f 353 755 355
f 301 298 773
f 596 278 591
f 747 755 751
f 591 278 425
f 588 425 781
f 388 688 813
f 769 771 913
f 763 353 349
f 202 771 200
f 506 500 913
f 74 467 744
f 773 570 301
f 82 708 707
f 320 647 326
f 500 492 913
f 331 554 557
f 242 910 320
f 344 335 340
f 910 908 647
f 554 335 550
f 239 222 703
f 549 550 335
f 549 344 544
f 166 167 168
f 544 352 543
f 543 368 542
f 17 15 167
f 17 845 157
f 907 536 919
f 157 850 155
f 155 850 153
f 542 368 539
f 150 633 74
f 153 854 151
f 151 854 149
f 149 858 147
f 147 862 144
f 539 375 535
f 759 903 38
f 530 535 178
f 144 862 141
f 141 866 139
f 139 866 137
f 530 386 525
f 137 870 135
f 525 396 521
f 135 870 872
f 133 872 131
f 131 874 129
f 129 923 117
f 923 874 875
f 170 119 902
f 521 396 400
f 20 932 101
f 99 101 932
f 99 886 97
f 95 97 199
f 95 891 93
f 93 896 90
f 518 400 786
f 90 896 85
f 85 901 83
f 83 905 81
f 169 166 300
f 81 905 79
f 77 79 796
f 77 909 75
f 439 394 545
f 75 914 73
f 73 914 71
f 71 916 69
f 442 394 439
f 468 466 366
f 442 447 434
f 7 562 920
f 794 534 811
f 924 899 833
f 434 447 428
f 428 454 419
f 419 462 410
f 38 898 759
f 902 111 897
f 466 468 495
f 526 524 534
f 25 59 56
f 96 43 45
f 895 401 61
f 182 343 338
f 483 389 163
f 483 162 389
f 897 59 25
f 883 894 775
f 776 777 150
f 59 897 111
f 380 384 389
f 774 882 893
f 111 902 119
f 778 708 225
f 501 159 380
f 167 166 839
f 159 505 373
f 176 191 867
f 373 513 369
f 364 369 513
f 850 890 925
f 354 364 517
f 354 522 154
f 177 369 709
f 154 541 343
f 446 445 437
f 376 380 159
f 204 223 725
f 217 198 214
f 214 703 222
f 437 569 446
f 610 211 195
f 414 624 195
f 403 630 624
f 889 718 715
f 160 313 424
f 181 630 403
f 888 246 239
f 179 643 181
f 174 650 643
f 651 650 174
f 163 384 165
f 487 247 268
f 165 651 163
f 171 683 165
f 174 474 163
f 557 313 331
f 475 515 799
f 376 693 171
f 285 273 757
f 177 693 376
f 627 885 884
f 174 179 474
f 509 508 516
f 294 302 310
f 709 702 177
f 709 362 742
f 154 754 354
f 182 338 183
f 780 785 803
f 183 768 182
f 423 413 881
f 183 338 777
f 638 338 343
f 633 638 408
f 590 401 895
f 692 185 329
f 190 188 194
f 515 475 25
f 270 190 194
f 190 270 128
f 195 427 414
f 7 788 562
f 915 878 571
f 877 595 438
f 203 205 286
f 44 48 61
f 474 206 483
f 210 209 208
f 61 62 895
f 413 895 62
f 211 432 427
f 172 42 169
f 398 764 220
f 515 263 918
f 437 575 569
f 228 758 764
f 124 885 426
f 175 871 350
f 84 498 327
f 225 514 716
f 327 371 227
f 918 263 730
f 898 448 759
f 371 327 36
f 839 374 890
f 227 371 378
f 451 441 665
f 228 235 748
f 444 180 457
f 233 231 107
f 187 868 345
f 759 448 586
f 189 292 868
f 734 748 235
f 653 461 826
f 924 922 237
f 292 193 196
f 446 671 394
f 461 641 479
f 922 551 237
f 391 237 455
f 482 641 629
f 918 868 799
f 196 200 293
f 771 293 200
f 558 455 237
f 281 287 894
f 894 893 281
f 248 566 241
f 257 251 104
f 255 430 453
f 257 261 265
f 509 775 287
f 260 266 676
f 509 516 524
f 265 261 108
f 523 516 531
f 322 316 523
f 273 252 888
f 265 271 262
f 811 534 316
f 316 315 811
f 676 686 260
f 366 466 581
f 478 495 468
f 330 547 315
f 547 336 552
f 366 471 468
f 760 495 473
f 657 471 284
f 336 342 553
f 553 900 552
f 832 900 553
f 865 878 791
f 792 284 4
f 31 571 576
f 286 288 291
f 438 571 877
f 906 864 863
f 4 790 792
f 8 7 319
f 303 295 301
f 291 304 306
f 570 773 567
f 739 617 392
f 617 416 392
f 306 311 309
f 309 311 308
f 170 628 668
f 613 739 10
f 739 392 10
f 656 675 668
f 656 815 675
f 680 678 365
f 813 613 388
f 324 333 314
f 687 198 668
f 379 688 383
f 295 666 207
f 815 656 636
f 377 694 379
f 325 498 84
f 689 333 266
f 334 696 689
f 700 377 372
f 861 834 860
f 703 721 239
f 732 726 367
f 834 861 256
f 348 341 704
f 747 732 363
f 356 358 704
f 735 888 721
f 370 358 356
f 735 264 757
f 735 273 888
f 755 747 359
f 369 364 362
f 353 763 755
f 647 761 326
f 761 349 326
f 376 373 177
f 779 757 264
f 780 779 279
f 384 380 171
f 235 395 19
f 736 871 737
f 562 788 917
f 910 647 320
f 785 804 803
f 414 406 403
f 256 323 803
f 813 675 815
f 415 786 400
f 427 419 414
f 422 420 705
f 432 428 427
f 430 489 499
f 587 580 590
f 437 434 432
f 445 442 434
f 446 394 445
f 671 586 448
f 819 609 627
f 456 449 450
f 455 563 248
f 865 791 769
f 581 579 463
f 645 652 817
f 644 464 469
f 652 662 715
f 874 923 129
f 715 664 652
f 694 812 688
f 477 64 126
f 750 760 473
f 485 655 477
f 465 715 718
f 507 207 666
f 465 774 494
f 865 486 480
f 812 675 813
f 485 484 655
f 207 202 298
f 883 504 825
f 493 865 769
f 783 782 504
f 679 484 485
f 202 200 298
f 196 490 200
f 196 193 490
f 877 859 476
f 302 803 323
f 189 496 193
f 814 806 810
f 168 719 789
f 821 814 810
f 391 899 924
f 713 527 532
f 467 408 472
f 302 294 887
f 786 787 518
f 538 519 532
f 561 532 527
f 926 35 33
f 538 532 660
f 540 555 561
f 551 586 640
f 319 241 565
f 660 532 561
f 113 161 746
f 161 176 867
f 8 319 565
f 223 247 635
f 781 585 784
f 620 629 393
f 887 780 302
f 269 390 393
f 671 640 586
f 781 784 588
f 599 589 603
f 393 290 611
f 626 603 606
f 928 290 305
f 623 238 622
f 625 1 623
f 774 893 894
f 312 332 912
f 626 632 631
f 332 339 847
f 847 892 332
f 757 887 285
f 847 714 54
f 793 3 8
f 732 807 726
f 858 931 857
f 675 812 687
f 168 167 15
f 273 735 757
f 920 921 7
f 402 385 639
f 167 845 17
f 638 633 338
f 646 649 663
f 650 663 649
f 845 850 157
f 888 239 721
f 663 654 646
f 706 409 48
f 850 854 153
f 676 654 663
f 429 409 317
f 661 692 660
f 854 858 149
f 676 663 686
f 858 862 147
f 433 429 691
f 678 680 677
f 699 711 712
f 712 734 356
f 711 710 753
f 862 866 141
f 712 711 740
f 682 436 827
f 734 740 748
f 866 870 137
f 214 687 808
f 748 756 758
f 664 816 652
f 872 133 135
f 198 687 214
f 754 182 768
f 872 874 131
f 665 659 658
f 758 765 766
f 658 648 653
f 766 764 758
f 776 770 777
f 668 198 170
f 117 923 116
f 787 786 789
f 929 330 822
f 533 822 322
f 556 336 330
f 531 322 523
f 899 920 833
f 662 444 889
f 346 323 256
f 491 482 620
f 116 880 911
f 911 20 116
f 382 491 620
f 911 932 20
f 932 886 99
f 645 443 662
f 930 382 611
f 382 930 516
f 886 824 199
f 605 531 930
f 491 508 848
f 628 170 902
f 256 347 346
f 482 848 479
f 891 896 93
f 347 256 861
f 820 617 739
f 866 819 817
f 605 594 593
f 896 901 85
f 929 593 582
f 612 881 885
f 901 905 83
f 826 451 653
f 451 457 180
f 672 659 665
f 441 180 851
f 79 905 796
f 436 673 672
f 436 851 827
f 909 914 75
f 682 673 436
f 914 916 71
f 584 902 897
f 876 86 342
f 69 916 1
f 829 433 827
f 700 808 694
f 788 3 916
f 853 829 417
f 409 61 48
f 402 48 855
f 870 817 816
f 855 29 360
f 874 816 664
f 385 361 102
f 830 880 875
f 576 897 25
f 819 634 817
f 68 69 1
f 106 856 730
f 743 736 738
f 910 242 236
f 862 857 819
f 744 879 102
f 880 830 831
f 840 528 843
f 401 846 44
f 803 302 780
f 769 791 357
f 878 915 791
f 831 911 880
f 918 873 345
f 576 25 475
f 799 31 475
f 841 29 846
f 879 856 102
f 106 639 385
f 573 564 876
f 911 831 802
f 342 556 876
f 337 339 332
f 25 510 515
f 350 29 841
f 564 573 892
f 892 582 912
f 510 25 56
f 864 906 837
f 312 328 337
f 929 822 593
f 33 35 258
f 871 360 29
f 840 860 835
f 864 158 863
f 29 855 44
f 916 914 917
f 808 687 812
f 594 307 312
f 307 305 328
f 916 917 788
f 33 56 927
f 840 835 809
f 307 594 605
f 736 743 361
f 531 516 930
f 290 277 305
f 852 109 927
f 318 835 860
f 21 844 529
f 852 59 112
f 620 393 611
f 102 743 744
f 112 113 852
f 751 763 762
f 647 785 762
f 805 747 751
f 252 268 254
f 230 835 229
f 487 641 635
f 637 879 467
f 124 851 164
f 809 230 221
f 161 142 176
f 807 732 805
f 247 234 254
f 230 809 835
f 808 700 807
f 345 637 186
f 176 184 191
f 812 694 808
f 204 849 223
f 849 204 191
f 813 688 812
f 635 648 725
f 849 184 198
f 815 613 813
f 815 636 613
f 217 223 849
f 659 191 204
f 217 234 223
f 191 184 849
f 859 480 421
f 795 213 511
f 245 461 243
f 878 865 859
f 802 886 932
f 191 659 867
f 452 718 889
f 223 234 247
f 176 142 184
f 246 254 234
f 865 493 486
f 293 771 357
f 268 247 254
f 771 769 357
f 805 264 735
f 268 252 390
f 161 113 112
f 486 493 488
f 390 252 274
f 867 673 746
f 264 751 279
f 274 277 390
f 746 682 152
f 281 848 287
f 827 433 682
f 808 703 214
f 152 691 109
f 109 852 113
f 476 859 421
f 296 305 277
f 476 595 877
f 305 307 928
f 196 293 292
f 595 476 820
f 726 807 700
f 752 293 357
f 307 328 312
f 310 328 305
f 56 59 852
f 292 752 799
f 328 310 323
f 886 825 824
f 312 337 332
f 807 703 808
f 891 824 782
f 193 292 189
f 844 21 22
f 429 853 409
f 109 697 927
f 56 33 510
f 105 559 553
f 339 337 346
f 346 714 339
f 51 346 347
f 317 926 927
f 564 690 876
f 863 844 232
f 799 868 292
f 510 33 258
f 843 528 529
f 844 863 842
f 861 840 843
f 861 158 347
f 861 860 840
f 752 915 31
f 158 843 842
f 843 158 861
f 842 529 844
f 919 837 906
f 906 232 907
f 809 528 840
f 730 873 918
f 730 856 873
f 873 856 879
f 856 106 385
f 817 634 645
f 837 919 838
f 817 652 816
f 919 906 907
f 919 536 537
f 743 102 361
f 904 669 838
f 898 669 904
f 669 898 38
f 703 807 721
f 405 404 838
f 669 405 838
f 922 833 836
f 294 285 887
f 361 385 402
f 869 645 634
f 830 875 664
f 916 3 1
f 864 51 347
f 402 855 361
f 909 801 914
f 397 890 374
f 48 44 855
f 796 909 77
f 879 637 873
f 901 798 905
f 580 925 397
f 48 402 706
f 896 800 901
f 891 823 896
f 409 62 61
f 853 62 409
f 881 413 417
f 417 62 853
f 86 407 299
f 459 893 882
f 199 891 95
f 830 465 831
f 829 426 417
f 426 829 124
f 426 881 417
f 124 829 827
f 433 829 853
f 886 802 825
f 774 894 883
f 851 124 827
f 164 884 124
f 441 851 436
f 180 164 851
f 443 869 164
f 911 802 932
f 715 830 664
f 874 664 875
f 736 361 360
f 451 180 441
f 457 452 889
f 889 444 457
f 866 817 870
f 106 35 639
f 459 718 452
f 826 452 457
f 452 826 245
f 451 826 457
f 862 819 866
f 858 857 862
f 461 245 826
f 459 882 718
f 479 243 461
f 854 931 858
f 850 925 854
f 846 401 580
f 845 890 850
f 491 848 482
f 848 281 479
f 825 494 883
f 382 508 491
f 900 832 767
f 508 287 848
f 896 823 800
f 839 890 845
f 504 782 824
f 42 374 839
f 516 508 382
f 908 910 318
f 534 524 523
f 552 818 548
f 42 172 173
f 901 800 798
f 818 552 900
f 533 322 531
f 871 175 737
f 868 187 189
f 22 232 844
f 593 822 533
f 822 315 316
f 929 556 330
f 330 315 822
f 838 919 537
f 904 838 537
f 318 860 834
f 908 318 834
f 465 830 715
f 556 342 336
f 105 836 559
f 833 559 836
f 29 44 846
f 908 834 804
f 562 917 828
f 299 836 105
f 818 900 767
f 832 553 559
f 562 832 920
f 811 315 548
f 828 801 821
f 801 828 917
f 821 797 814
f 836 299 903
f 401 590 580
f 797 821 801
f 905 798 796
f 796 814 797
f 810 548 818
f 814 798 806
f 798 814 796
f 909 796 797
f 811 548 810
f 413 587 590
f 404 51 837
f 51 864 837
f 837 838 404
f 909 797 801
f 529 842 843
f 158 842 863
f 232 906 863
f 800 806 798
f 529 528 511
f 794 811 806
f 785 908 804
f 785 647 908
f 859 877 878
f 526 534 794
f 877 571 878
f 571 31 915
f 173 351 42
f 524 783 509
f 350 173 175
f 29 350 871
f 823 526 794
f 783 524 526
f 526 823 782
f 42 351 374
f 841 374 351
f 504 775 783
f 509 783 775
f 782 823 891
f 885 124 884
f 887 757 779
f 914 801 917
f 426 885 881
f 890 397 925
f 825 504 824
f 775 504 883
f 925 587 931
f 587 925 580
f 802 494 825
f 785 279 762
f 494 831 465
f 831 494 802
f 894 287 775
f 590 895 413
f 438 897 576
f 884 164 869
f 762 279 751
f 423 931 587
f 587 413 423
f 931 423 857
f 762 761 647
f 617 820 476
f 595 820 621
f 751 755 763
f 893 459 243
f 751 264 805
f 609 857 423
f 423 881 612
f 662 443 444
f 721 805 735
f 621 584 595
f 857 609 819
f 443 645 869
f 612 885 627
f 636 621 820
f 628 902 584
f 805 721 807
