# avbd fit, rung f60-i32-s300 of Gate 6d (body space, fit phase only)
v -0.003794729 0.624001861 0.014220731
v -0.101460099 0.640321851 0.065223500
v -0.003587095 0.640416682 0.018481461
v 0.000214459 0.939041615 0.078399569
v -0.146748155 0.620679855 0.061948270
v 0.005622176 0.952739894 0.090636089
v -0.003416426 0.672471344 0.027809229
v -0.003426157 0.656452537 0.023423675
v -0.148612216 0.639554262 0.063087694
v 0.143315285 0.949472427 -0.098283805
v -0.166464791 0.634627461 0.054435778
v -0.183968470 0.636198401 0.042021342
v -0.192295238 0.637245059 0.026316494
v -0.167965740 0.633830428 -0.067786977
v 0.010372363 0.612312794 -0.029306715
v -0.149856448 0.629990101 -0.072857626
v 0.025155980 0.610998571 -0.032304861
v -0.132448733 0.630806088 -0.078898229
v -0.115533330 0.635759413 -0.085917674
v 0.191594034 0.590148687 0.016247975
v 0.000018910 0.903771043 0.068618447
v -0.000061475 0.886165500 0.066511385
v -0.097817369 0.630836129 -0.082179509
v -0.084547386 0.638471484 -0.077975675
v 0.097830944 0.827817440 -0.126729295
v -0.070934124 0.648510337 -0.074675135
v -0.133361012 0.909252644 -0.126366496
v -0.134464234 0.823201835 0.069109768
v 0.039213184 0.703581393 -0.080228403
v -0.148528948 0.834520817 0.062694371
v 0.070875928 0.859116912 -0.146202326
v -0.184648424 0.809666812 0.045336738
v 0.088679388 0.790931344 -0.110125624
v -0.197917372 0.631406605 -0.024914451
v 0.074003689 0.779797912 -0.105765924
v -0.156596959 0.914602399 -0.099566229
v -0.172578990 0.912899137 -0.057763081
v 0.014107136 0.771549404 0.049264673
v -0.173000261 0.918314576 -0.037885927
v -0.078077435 0.905386448 -0.148096174
v -0.027359566 0.890436351 0.065923676
v 0.012113623 0.665496469 -0.058085553
v -0.017302932 0.869113922 0.063763529
v 0.060723573 0.707251847 -0.088056318
v -0.037950493 0.870636106 0.063001633
v -0.168892235 0.925437152 -0.019331969
v -0.170051828 0.909333050 -0.005358061
v 0.071181796 0.727455139 -0.096005768
v -0.166019306 0.914551914 0.013968189
v -0.040691752 0.643557847 0.028595909
v 0.058132429 0.839819551 0.060553826
v -0.058490992 0.642503500 0.041639213
v -0.074143395 0.728497207 0.061442912
v 0.058363389 0.799050927 0.059705876
v -0.076554857 0.640016437 0.054429363
v 0.103824101 0.805921733 -0.113652013
v -0.097074702 0.724731386 0.070270702
v -0.166993275 0.731720090 0.064858243
v 0.119453266 0.821435094 -0.115783170
v -0.197408348 0.728792846 0.039525591
v 0.081048504 0.709751427 -0.095573269
v 0.100478135 0.705338120 -0.101416811
v -0.193421990 0.820036232 0.026338290
v -0.188970819 0.841786981 0.024134090
v -0.208928987 0.726323724 -0.025656098
v -0.198717907 0.719601810 -0.049295988
v -0.188524708 0.731890380 -0.065681785
v 0.011342132 0.618624330 0.020656541
v 0.013397609 0.609274745 0.010142479
v -0.172485083 0.718409121 -0.080304891
v 0.028048426 0.608730495 0.013775306
v -0.118793987 0.727830887 -0.108882740
v 0.041412100 0.607111096 0.020648342
v -0.021255584 0.762732267 -0.093793087
v 0.053916086 0.605235040 0.028921459
v -0.097895756 0.909083486 -0.143050641
v 0.064503878 0.602887332 0.039124034
v -0.115018502 0.911078095 -0.134994090
v 0.075867578 0.600750327 0.049218152
v -0.123538390 0.893909454 -0.133838654
v 0.089382596 0.599280000 0.054968428
v -0.138980165 0.926192462 -0.114159502
v 0.102699779 0.597748160 0.060676266
v -0.169560507 0.877965271 -0.079414941
v 0.115604237 0.596078038 0.066382870
v 0.044276066 0.757158160 0.053671222
v -0.136943087 0.913150609 0.048375264
v -0.125920683 0.819558918 -0.114649966
v -0.150946811 0.671426117 0.065624125
v 0.129199475 0.594762444 0.067361668
v -0.144893602 0.828926742 -0.107066810
v -0.017474052 0.825395107 0.052348234
v 0.141936272 0.594437063 0.061144363
v -0.037607007 0.828392684 0.055124480
v 0.154635042 0.593695641 0.054914415
v -0.023809241 0.847936451 0.056770414
v 0.167289555 0.592706263 0.048946332
v -0.017235808 0.909549594 0.068323314
v 0.178614348 0.591696203 0.040632073
v -0.064523861 0.922826469 -0.142572910
v 0.183405966 0.591289997 0.027486205
v 0.025430778 0.763747811 -0.094752535
v -0.090755850 0.886756599 -0.146960080
v -0.103366002 0.684534907 0.069578223
v 0.037623432 0.736530662 0.049148671
v 0.056696672 0.780490279 -0.102850974
v -0.121276997 0.874506354 -0.135788009
v -0.134050593 0.668025792 0.072547458
v 0.130368635 0.776235998 -0.110620223
v -0.135374218 0.862183869 -0.124166191
v 0.134933621 0.833523154 -0.113065921
v 0.143509641 0.812981904 -0.106853940
v 0.145379514 0.789745331 -0.105048582
v -0.158027425 0.690726876 0.065227099
v -0.147664800 0.852121532 -0.109056614
v 0.190410733 0.589495957 0.002336120
v 0.194404095 0.588816941 -0.009995079
v -0.191654548 0.679308474 0.041308325
v 0.151194960 0.833649039 -0.104095303
v -0.161828086 0.864875674 -0.095763206
v -0.182918876 0.865494251 -0.062552944
v -0.182311699 0.878691792 -0.046887375
v -0.057523824 0.850244999 -0.142751157
v 0.154178366 0.698929191 -0.084628820
v -0.163231641 0.864738464 0.041094206
v -0.179485410 0.861361980 0.022561111
v -0.116166160 0.856575489 0.061942615
v -0.125830501 0.872730374 0.052676670
v 0.190294445 0.588378310 -0.023457194
v -0.021841316 0.842013538 -0.129785612
v 0.183290705 0.588327944 -0.035633337
v -0.041149996 0.836893559 -0.130773306
v 0.176193565 0.588074148 -0.047739681
v -0.025506711 0.712802708 -0.080010064
v 0.168131649 0.587840974 -0.059392810
v -0.102897525 0.919751823 0.053992510
v 0.154745385 0.588313639 -0.064138837
v -0.083855495 0.914755702 0.060080729
v 0.141222537 0.588661015 -0.068438619
v -0.022914412 0.824768841 -0.118952751
v 0.127596408 0.588832021 -0.072739430
v 0.166061848 0.821833014 -0.097114578
v -0.024461729 0.806558490 -0.108656004
v 0.114560887 0.589736104 -0.076721698
v -0.043801755 0.819543719 -0.117954120
v -0.181226760 0.829735637 -0.084006414
v 0.100797810 0.591939807 -0.072161742
v -0.139778718 0.933920503 0.045292262
v 0.087720722 0.594803691 -0.066602163
v -0.030320505 0.738224268 -0.088406011
v 0.074531242 0.597591698 -0.061076950
v 0.146244854 0.769230723 -0.102250241
v 0.061187863 0.600314260 -0.055708200
v -0.105606422 0.775978386 -0.112982646
v 0.050588988 0.604680121 -0.046091639
v -0.062423516 0.691740155 -0.084863313
v 0.038784090 0.608404994 -0.037966155
v 0.048411228 0.877185464 0.062821761
v -0.188782364 0.794560969 -0.074893169
v -0.198963672 0.639374852 -0.005310132
v 0.162674055 0.799158692 -0.097947225
v -0.204232737 0.815388501 -0.028058326
v -0.210022658 0.776547849 -0.016606933
v 0.173913807 0.690898001 -0.073195197
v -0.209394738 0.762357116 -0.035367552
v -0.004647873 0.641942680 -0.044038970
v 0.014202747 0.629291177 -0.039215602
v -0.004872619 0.627234757 -0.036183558
v -0.004305730 0.656485736 -0.052126966
v 0.167010874 0.847837567 -0.094422415
v -0.199978724 0.766970456 -0.054501086
v -0.004001829 0.671115577 -0.059951805
v -0.003852693 0.685925126 -0.067459896
v -0.211082503 0.760293126 0.003875254
v -0.003635317 0.701291382 -0.073819064
v 0.179672837 0.807711303 -0.088353626
v -0.177763656 0.761515141 -0.086020954
v -0.103128210 0.613377929 -0.079786725
v -0.201209277 0.770838618 0.029651850
v 0.187243372 0.709101617 -0.061747450
v -0.197808415 0.750300169 0.041084804
v -0.091327123 0.759396911 -0.107315920
v -0.077002339 0.744895577 -0.101621211
v 0.183078274 0.828399062 -0.080480702
v -0.045643337 0.800129533 -0.107567683
v -0.001714600 0.813968003 -0.111342750
v -0.001427155 0.828786969 -0.120141506
v -0.095374078 0.895955563 0.056696039
v -0.001165630 0.843489468 -0.128993392
v -0.114110269 0.888298631 0.051760532
v 0.190076441 0.802373052 -0.071802676
v -0.103419289 0.873691082 0.058214635
v -0.000944856 0.858931363 -0.136237651
v -0.117034450 0.907403171 0.048395157
v -0.151511535 0.760415554 0.070710599
v -0.000763533 0.875667572 -0.139628977
v -0.111318447 0.939102054 0.057760738
v 0.184036016 0.853238940 -0.068881735
v 0.164419472 0.612539530 0.053036947
v -0.000639676 0.892763257 -0.139980495
v -0.123533115 0.927628696 0.051973742
v -0.000535625 0.909894288 -0.138042569
v -0.144950360 0.877553642 0.046985455
v 0.201534986 0.795223653 -0.053648759
v -0.149204150 0.899097919 0.041220024
v -0.206922859 0.810917735 0.010079638
v -0.000401031 0.926841438 -0.134018511
v -0.146949992 0.939947307 0.029996056
v -0.147068679 0.918002963 0.027776141
v -0.162943840 0.935332417 0.018466473
v -0.132229865 0.753722727 0.077000804
v 0.032290317 0.954048634 0.082176730
v 0.017491749 0.954869270 0.083164476
v 0.186110988 0.870353997 -0.046677101
v 0.000129360 0.921379387 0.072375357
v -0.165010333 0.931203067 -0.001497133
v 0.198026747 0.843158603 -0.044269979
v -0.168900102 0.937928975 -0.032867424
v -0.167821378 0.933996499 -0.049986057
v -0.069890551 0.670212746 -0.081408575
v 0.046998788 0.953860402 0.079890981
v 0.192997813 0.858245850 -0.026823942
v 0.204279706 0.812942207 -0.033972628
v -0.166022152 0.931455731 -0.067755356
v -0.149611384 0.935804963 -0.100546286
v -0.121688545 0.929157853 -0.126421720
v -0.151710361 0.875852108 -0.113159612
v -0.099070817 0.671461701 -0.093736663
v 0.076282248 0.953615308 0.074108616
v 0.061698746 0.953741372 0.077239305
v -0.102071539 0.868295491 -0.142456442
v -0.000184202 0.868767440 0.064402729
v -0.108116433 0.890221775 -0.140526906
v 0.200950101 0.834297061 -0.020978844
v -0.116362497 0.660653055 -0.092418119
v 0.090713814 0.953363240 0.070783451
v -0.025204381 0.725108027 0.043114502
v -0.027138188 0.628101826 0.017056253
v 0.189075917 0.869135559 -0.010655655
v -0.191880137 0.859246075 -0.037425462
v -0.037511777 0.675285935 0.034614455
v 0.105125919 0.952777386 0.067647144
v 0.208427519 0.714647293 0.005591440
v -0.048686929 0.624429762 0.028902987
v 0.208509415 0.714079261 -0.013080394
v 0.198042288 0.850733459 -0.005007133
v 0.206349254 0.811448872 -0.008202138
v -0.052720945 0.686557174 0.044651989
v -0.065985501 0.621425509 0.047228508
v -0.088044770 0.621277094 0.057275005
v -0.085937902 0.675020874 0.061725806
v 0.193193823 0.838668466 0.019684255
v -0.086611830 0.656324804 0.060501166
v 0.203058794 0.830358624 0.000025805
v -0.047892980 0.850733876 0.059241243
v 0.091107480 0.870657921 0.060195982
v -0.102707013 0.663873732 0.067613669
v 0.069155589 0.796364188 -0.108922683
v -0.109046772 0.618108928 0.066011988
v -0.197437331 0.682377696 -0.043602712
v -0.118154287 0.675403059 0.074782930
v -0.127925366 0.634026647 0.072009072
v 0.061872680 0.811903775 -0.114695288
v 0.157451555 0.891642570 0.026080478
v -0.119021818 0.654423356 0.073453709
v -0.200838923 0.665848851 -0.033174120
v -0.130796522 0.613524079 0.068465941
v 0.202380449 0.814718843 0.015968144
v 0.199650705 0.797614753 0.028259736
v -0.130914107 0.892680526 0.045514725
v -0.139918000 0.653384328 0.068424366
v -0.161394596 0.613214016 0.054084789
v 0.178901479 0.856427968 0.027611818
v 0.179903880 0.834729373 0.040322326
v -0.171173975 0.674948514 0.057673655
v -0.160380557 0.655310690 0.059515584
v 0.178073570 0.813850582 0.053688250
v -0.177663982 0.616196811 0.046657339
v 0.147134751 0.899330735 0.044697367
v -0.179814726 0.655961156 0.051507264
v 0.202796742 0.709619701 0.026153419
v -0.046594854 0.953874588 0.080321930
v -0.191547289 0.656189442 0.033204056
v -0.020844573 0.932752490 0.073477238
v 0.167650983 0.852172256 0.045541335
v -0.158579573 0.884072006 0.036019579
v 0.193082944 0.703786492 0.045557387
v -0.156703979 0.897626400 0.022117015
v -0.199867457 0.649190545 0.014613193
v 0.171422184 0.793722987 0.064405672
v -0.168681458 0.879213512 0.022031032
v 0.022565328 0.856778145 -0.136593491
v 0.023756485 0.879426360 -0.141324967
v 0.151565686 0.848964810 0.057340741
v -0.025423672 0.925834775 -0.136781126
v 0.163630590 0.831900299 0.059987742
v -0.200878143 0.671018362 0.019548649
v -0.020107243 0.903764725 -0.140515834
v 0.024245664 0.754579186 0.048862744
v -0.019628720 0.653923392 -0.051608063
v -0.040745907 0.910297215 -0.144452050
v 0.133496493 0.858381569 0.057689745
v -0.045759160 0.930260837 -0.138731033
v -0.172257110 0.894416451 0.009021293
v 0.152805477 0.810045600 0.066732161
v -0.182464942 0.875284076 0.006940141
v 0.136202589 0.792381287 0.073783562
v -0.181971937 0.882227898 -0.028367970
v -0.189583749 0.868044674 -0.013281254
v 0.139757067 0.835623920 0.064731643
v -0.179566652 0.889010608 -0.009313231
v 0.116415039 0.801613688 0.077780515
v -0.198525086 0.616389990 -0.010860482
v -0.201972455 0.660588861 -0.000286535
v 0.098727569 0.706107736 0.070046410
v 0.117636219 0.703945637 0.077426277
v 0.100371346 0.752750576 -0.108856618
v 0.086327538 0.929164588 0.061655689
v -0.019882493 0.674991250 0.029292960
v 0.118728258 0.952713192 0.063474879
v -0.175209641 0.897520363 -0.042853884
v 0.129032031 0.723049998 0.078318767
v 0.113105178 0.847701252 0.066516198
v -0.203391552 0.669747949 -0.014864373
v -0.173503801 0.889740944 -0.062196810
v 0.131567582 0.952640712 0.059402388
v -0.161822468 0.890127778 -0.098030172
v 0.128265470 0.818635762 0.072022215
v -0.064618900 0.794950843 -0.108125612
v 0.088842414 0.727046311 0.067683920
v -0.191524565 0.611841619 -0.030388027
v 0.095227994 0.803040028 0.074285075
v -0.200852722 0.651515067 -0.019595677
v -0.189436421 0.661496878 -0.049834810
v -0.181640685 0.608062863 -0.045709334
v 0.069369391 0.723361552 0.059638780
v 0.105391756 0.824884117 0.075355731
v -0.066263258 0.761639118 -0.100757875
v 0.085987523 0.818972468 0.069131985
v -0.187201709 0.626458526 -0.042110484
v -0.183139175 0.677782655 -0.061424218
v 0.056854270 0.739403188 0.055627238
v -0.080680750 0.779699147 -0.107003130
v -0.175417364 0.616239190 -0.060623091
v 0.018586550 0.818083465 -0.114171684
v 0.084322780 0.843141675 0.067687780
v 0.066807397 0.862773895 0.062757000
v -0.176875204 0.656046569 -0.065330759
v 0.137238115 0.953468621 0.045894060
v 0.018342696 0.694759369 -0.072726138
v 0.019495090 0.678539395 -0.066054851
v -0.156648502 0.612675726 -0.067943014
v 0.148458928 0.952527046 0.036852892
v -0.128808975 0.777628243 -0.111779451
v 0.157395422 0.952680707 0.025389245
v -0.148046955 0.664230466 -0.080842763
v 0.045646686 0.889133155 -0.145612583
v -0.159896463 0.650660157 -0.073747650
v 0.163914889 0.953222871 0.012346831
v 0.032086063 0.722651482 -0.084740810
v 0.035422925 0.743122220 -0.090805173
v -0.141385019 0.761686921 -0.103639424
v 0.165946454 0.953180611 -0.002143945
v -0.147237375 0.782073379 -0.104167841
v -0.104317501 0.929038525 -0.133357197
v -0.039316017 0.915035903 0.067804612
v 0.168104053 0.952874303 -0.016523888
v -0.137889192 0.610787272 -0.073759153
v -0.161376283 0.771742344 -0.095986590
v -0.144417688 0.645492315 -0.078884736
v -0.147842199 0.900237262 -0.113396242
v 0.167318359 0.952482522 -0.030148085
v -0.179130360 0.783226073 -0.088832766
v 0.031244766 0.663175762 -0.061885577
v -0.120537721 0.613345563 -0.079652995
v -0.189132005 0.774591029 -0.070972934
v 0.164703280 0.951795697 -0.044464886
v -0.137476057 0.885307014 -0.125264183
v 0.161980584 0.951318264 -0.058762401
v -0.199753731 0.792497218 -0.057021447
v -0.130960077 0.652021825 -0.085174210
v 0.178467751 0.745174646 0.062668361
v 0.156551510 0.950530052 -0.072177827
v -0.208068997 0.779853225 -0.040130969
v 0.046553072 0.762450635 -0.097142793
v -0.087696336 0.617003262 -0.073411629
v -0.021492977 0.635107338 -0.041970406
v 0.150293812 0.949770093 -0.085469469
v -0.207396790 0.797765017 -0.033692263
v 0.189700857 0.815408587 0.034181174
v -0.019737164 0.707140565 0.038317692
v 0.132683188 0.948450208 -0.108500540
v 0.190011695 0.790011287 0.047543984
v -0.065157413 0.792816877 0.061031573
v -0.099386297 0.649764121 -0.087971300
v -0.070214972 0.624571323 -0.067498118
v 0.049936429 0.663980603 -0.070995510
v -0.084725514 0.660269558 -0.084186330
v -0.054733891 0.642534196 -0.066088080
v -0.051173232 0.622798264 -0.057525508
v 0.071209930 0.690439403 -0.087743774
v 0.058356784 0.744539261 -0.095797263
v -0.189125016 0.764723659 0.054556780
v 0.046876501 0.817355454 0.056472093
v 0.038369693 0.796199441 0.054143995
v -0.188736930 0.787074864 0.050003506
v 0.032281794 0.774959683 0.052345861
v -0.028455630 0.784200668 -0.100162074
v 0.095381580 0.728478134 -0.104413889
v -0.169038028 0.800518990 0.063328944
v -0.054806471 0.675973296 -0.077023908
v -0.058836509 0.659723401 -0.073434129
v 0.100711606 0.678426921 -0.096124247
v -0.166385308 0.777055085 0.066418789
v -0.038209628 0.645748138 -0.053825986
v 0.122113660 0.948127091 -0.117111668
v 0.119292796 0.697346866 -0.100237809
v -0.043768708 0.663006127 -0.068199359
v -0.146557808 0.792798579 0.070605531
v -0.040711135 0.690881670 -0.075546041
v 0.109077096 0.947260022 -0.123947717
v -0.027376378 0.670188189 -0.062532395
v 0.106737390 0.653902054 -0.091848552
v -0.197197527 0.628862023 0.010511300
v -0.187325135 0.616916835 0.028838087
v 0.134609997 0.693134606 -0.092065975
v -0.137883827 0.773776829 0.075115003
v -0.121745028 0.786940992 0.077781200
v 0.119131148 0.739838958 -0.110395327
v -0.070448056 0.853516757 0.062428664
v -0.061244167 0.954165578 0.077570990
v -0.109659232 0.763604283 0.077875562
v 0.137652546 0.733149886 -0.100269496
v -0.098639607 0.782980144 0.074239381
v -0.081778616 0.835559666 0.066078670
v 0.172624901 0.738316178 -0.083857886
v -0.085797116 0.764798939 0.068291917
v 0.114378192 0.871491730 -0.138018936
v -0.072245330 0.814296126 0.063421264
v -0.093569718 0.819251835 0.072286889
v 0.186643124 0.730859876 -0.067470647
v -0.086180434 0.799893618 0.069887742
v 0.181351453 0.673372388 -0.062378258
v 0.189631417 0.688208938 -0.054375224
v -0.080066457 0.782275498 0.066646226
v -0.065016367 0.770490289 0.060107499
v -0.106315099 0.802788556 0.078184500
v -0.025648430 0.785494924 0.051063336
v -0.115878388 0.822215855 0.073590949
v -0.104794458 0.839213192 0.070743352
v 0.198677137 0.726797521 -0.050075442
v 0.207296461 0.697847307 -0.025158037
v -0.059443146 0.831483364 0.059943229
v -0.129496142 0.806129813 0.073447123
v -0.040943541 0.708906710 0.044785023
v -0.127042562 0.839578152 0.065797910
v 0.199616253 0.704161823 -0.044343896
v -0.141961321 0.855952919 0.056252938
v 0.206850097 0.695411325 -0.005709423
v -0.168113217 0.822830021 0.059738606
v 0.209970385 0.738620222 -0.010047505
v -0.150335357 0.812953115 0.066427834
v -0.059834104 0.873008072 0.062128514
v -0.165508717 0.845284641 0.053529989
v 0.201246053 0.656093001 -0.002040228
v -0.062798396 0.913410068 0.064064242
v -0.002483477 0.781825185 -0.098477527
v -0.058835346 0.933947384 0.068648189
v -0.175880164 0.849058330 0.037074894
v -0.199009806 0.797119737 0.029215481
v -0.041299049 0.937919617 0.072872117
v -0.002051336 0.798334777 -0.103969589
v -0.090219185 0.954507470 0.070854411
v -0.210880369 0.785507321 0.007811358
v 0.077339895 0.838842571 -0.138500750
v 0.117652260 0.916065693 -0.132025138
v -0.193999708 0.856413364 0.007383069
v -0.075806774 0.954389870 0.074418858
v 0.209054992 0.735004425 0.016564280
v 0.094436593 0.946385384 -0.128087282
v -0.173722059 0.903249085 -0.023877079
v 0.203022197 0.751850605 0.030483171
v -0.208421975 0.801065087 -0.011510881
v -0.203641459 0.824428439 -0.011328494
v -0.199093848 0.846866906 -0.014384560
v 0.079301268 0.945798993 -0.130813867
v 0.210524350 0.790987849 0.009847772
v 0.063845091 0.945427895 -0.132169366
v -0.082232639 0.874554932 0.061439723
v -0.016505003 0.880844712 -0.141138628
v 0.194109097 0.742032945 0.047890618
v 0.048256781 0.945031822 -0.132370204
v 0.058411848 0.929624856 -0.139538139
v 0.196377411 0.648281932 0.022008596
v -0.076963671 0.934139550 0.065029815
v -0.020721247 0.860963047 -0.138113827
v -0.201665953 0.816692710 -0.049558636
v -0.167947695 0.906812668 -0.079945646
v -0.092794634 0.855901361 0.064942434
v 0.032193556 0.944539368 -0.131164819
v -0.191535607 0.814696610 -0.068904802
v 0.016093416 0.943786919 -0.128906220
v -0.162717909 0.817484558 -0.099033587
v 0.176660329 0.656514287 0.053426348
v -0.180117339 0.806556582 -0.088115424
v 0.015975866 0.930628419 -0.133639872
v -0.000286438 0.943076968 -0.127265081
v 0.184604138 0.722042322 0.058133978
v 0.174108535 0.699178457 0.059739508
v 0.082475260 0.811561584 -0.115749322
v 0.017274657 0.927056968 0.072172031
v -0.163698688 0.841089547 -0.097198740
v -0.162312835 0.794671416 -0.098526038
v -0.158805460 0.931388497 -0.084660023
v 0.067268126 0.826481938 -0.125566855
v 0.162701160 0.721897423 0.065889485
v -0.141900420 0.803608894 -0.107751295
v -0.046261914 0.607950330 -0.041602556
v -0.107966855 0.812200844 -0.116824880
v -0.055047832 0.603284001 -0.052078396
v -0.067814648 0.600497365 -0.059096493
v -0.119540647 0.796663582 -0.116745248
v 0.141205028 0.709640324 0.073016480
v 0.153399438 0.692490518 0.067552783
v -0.080925472 0.598120809 -0.064558074
v 0.144169122 0.667387545 0.068275258
v -0.116582118 0.852465332 -0.134035543
v 0.037469231 0.919905543 0.068404391
v 0.023761284 0.905584633 0.067741886
v -0.093854927 0.595674694 -0.070230395
v 0.145107090 0.735098898 0.073476523
v -0.106588706 0.832346737 -0.124296501
v 0.127914459 0.741471529 0.079035796
v 0.131698087 0.685507059 0.075741425
v -0.106715761 0.593198776 -0.075860508
v -0.000408312 0.835943043 0.053588994
v -0.000585504 0.819224060 0.050976265
v -0.089938924 0.814656734 -0.118821777
v -0.120911956 0.592080176 -0.075755678
v -0.078991935 0.863995194 -0.147154406
v -0.097872518 0.795786381 -0.112843215
v -0.133545786 0.591739118 -0.071794078
v -0.146983638 0.591932058 -0.067679159
v -0.160413459 0.591995358 -0.063489191
v -0.047788363 0.806048572 0.055721708
v -0.024251878 0.806749940 0.051118545
v 0.081783131 0.709608853 0.063552409
v 0.083901443 0.689801812 0.062676169
v -0.174174994 0.592035770 -0.060667891
v -0.177771524 0.592813969 -0.047167901
v -0.026904281 0.744910836 0.046819784
v 0.067082092 0.702002108 0.056939632
v 0.050169606 0.716688991 0.050417244
v -0.184891626 0.592855036 -0.035063256
v -0.075190708 0.842613816 -0.141880617
v 0.075923413 0.743407786 0.063502446
v -0.191597670 0.592962205 -0.022710828
v -0.049761064 0.731856585 0.051225115
v 0.029796194 0.716666698 0.043621518
v -0.030008201 0.691421390 0.036663692
v -0.095269218 0.847084403 -0.139736861
v 0.026253169 0.672679722 0.032981895
v -0.060806174 0.709244967 0.054689556
v 0.069803193 0.780867517 0.062912613
v -0.030100167 0.659881055 0.028602857
v -0.049536765 0.661742926 0.038664181
v -0.055928182 0.872097611 -0.148013070
v -0.072266988 0.885010839 -0.149041206
v -0.068426721 0.749324024 0.060461652
v -0.057152450 0.897019386 -0.147290915
v 0.091988161 0.876207948 -0.146298125
v -0.199106514 0.593252778 -0.011065018
v 0.081806682 0.763620913 0.067120180
v -0.066946119 0.664363563 0.053057022
v -0.091221288 0.744928479 0.069254421
v 0.097513825 0.852389514 -0.140324876
v -0.071209148 0.689165831 0.057055108
v -0.081647351 0.709338844 0.063025162
v -0.072134212 0.894102216 0.061118960
v 0.067851402 0.668658018 -0.079759970
v -0.049518872 0.893195927 0.064128697
v 0.099703237 0.767960429 0.074625537
v -0.088847376 0.692816079 0.064485736
v 0.136385590 0.869892418 -0.126030520
v -0.191552848 0.594795406 -0.000705660
v -0.026002422 0.764908433 0.049704559
v 0.086238831 0.657939434 -0.083648518
v -0.184626132 0.595127702 0.026069343
v -0.120703340 0.717791021 0.078986906
v 0.082584307 0.676909566 -0.088322066
v -0.178685635 0.595738769 0.038659375
v -0.102701664 0.704958141 0.070993111
v 0.113266170 0.754551470 0.079334721
v 0.120371863 0.777335823 0.079617806
v 0.126910985 0.892010212 -0.132210940
v -0.172481388 0.596329689 0.051208615
v -0.112167105 0.740243554 0.077290215
v -0.158622712 0.596942365 0.053103399
v -0.119982265 0.695821643 0.077113792
v -0.145897508 0.597174764 0.059182864
v -0.133232385 0.597109139 0.065385304
v -0.132892147 0.735541701 0.077235036
v -0.141574472 0.704266369 0.072283022
v -0.119986914 0.597860932 0.068054385
v 0.138059005 0.762624025 0.075329542
v -0.146516949 0.723384798 0.071369424
v -0.107143618 0.599082291 0.062378932
v -0.093924291 0.600218892 0.056665611
v 0.125575364 0.645993352 -0.084964402
v -0.150531575 0.742569268 0.071375966
v 0.175852284 0.770486116 0.063931182
v 0.127375662 0.662282705 -0.088785760
v 0.153179541 0.928773224 -0.098607764
v -0.080548152 0.601292610 0.050981395
v -0.138192058 0.685144901 0.072792217
v -0.067309305 0.602466822 0.043542944
v 0.127877399 0.931593239 -0.121614732
v -0.058906384 0.604892969 0.031731654
v -0.047587439 0.606615663 0.022121759
v 0.192755863 0.764250755 0.047457103
v 0.145061821 0.889833629 -0.117954992
v -0.035284955 0.608202994 0.013793103
v -0.021242825 0.608633637 0.008951413
v -0.169277638 0.753471673 0.065064766
v -0.019278925 0.616269231 0.020918828
v -0.162954539 0.711002827 0.064200595
v 0.141965240 0.656625271 -0.081948452
v 0.156596839 0.869598985 -0.107954159
v 0.201753497 0.775302768 0.028523952
v -0.186384663 0.740736604 0.058737613
v -0.179432720 0.696291804 0.056992352
v -0.183575302 0.718463063 0.057548393
v -0.042792268 0.760637939 -0.095711842
v 0.157960191 0.650768876 -0.074096046
v 0.209555179 0.787585616 -0.012437000
v 0.149128333 0.909500122 -0.109344564
v 0.012681933 0.800411344 -0.104968622
v -0.053489406 0.779569745 -0.101954535
v 0.067142360 0.762937307 -0.101226188
v -0.047242068 0.756328821 0.053526081
v 0.210900277 0.762928128 0.005520211
v -0.195846498 0.705286503 0.039876111
v -0.206606627 0.743734241 0.022434486
v -0.180239484 0.830402672 0.041314431
v 0.176864788 0.653220057 -0.064316280
v -0.203967720 0.694387138 0.020544592
v 0.120972767 0.928878188 0.052252829
v 0.210101366 0.764119923 -0.020742264
v -0.206276983 0.718873441 0.019814404
v -0.210123777 0.733644843 -0.000837203
v -0.210358217 0.749540448 -0.018753188
v 0.185396641 0.642840028 -0.049553014
v 0.209527180 0.745106757 -0.035333738
v -0.205179617 0.683007836 0.000206490
v -0.201637417 0.834174037 0.008702325
v 0.159750193 0.889627635 -0.101276219
v -0.031819820 0.954030037 0.081852190
v 0.205211550 0.768745124 -0.046823181
v 0.191344395 0.774608791 -0.066749491
v -0.082054906 0.828751385 -0.130363584
v -0.060649015 0.830989838 -0.130186573
v 0.190216154 0.664783597 -0.048963860
v -0.208046764 0.707561135 -0.005830637
v 0.192465723 0.631492913 -0.034518458
v 0.197684631 0.749723554 -0.056324191
v -0.016597273 0.944134414 -0.128994167
v -0.032658447 0.945186794 -0.131181598
v 0.167556256 0.871494412 -0.085329473
v 0.018281063 0.791437507 0.050705552
v -0.048598513 0.945945263 -0.132059649
v -0.046406306 0.779642701 0.055055015
v 0.185863778 0.751500666 -0.072244041
v 0.176033348 0.762528777 -0.086742796
v -0.064229660 0.946479499 -0.131845742
v 0.166146114 0.895482063 -0.081973240
v -0.205808714 0.686696351 -0.021874510
v -0.079659417 0.947054863 -0.130217671
v -0.086219534 0.927087665 -0.139661819
v -0.200078294 0.835468888 -0.034499917
v -0.094514266 0.947917104 -0.127405971
v -0.108869039 0.949082673 -0.123291373
v 0.155717909 0.750266671 -0.094303109
v -0.203638881 0.742761195 -0.047470346
v -0.192276448 0.839976668 -0.060738426
v -0.177502349 0.853471279 -0.080827713
v -0.206681326 0.703810990 -0.035309438
v 0.174451917 0.882061005 -0.064932093
v 0.164599359 0.933022320 -0.070179954
v -0.193755776 0.646082342 -0.037909009
v 0.051170032 0.778167844 0.056926060
v 0.135428429 0.753794074 -0.104762517
v -0.066174664 0.814590275 -0.117233291
v -0.189555377 0.753116965 -0.067921780
v 0.168782324 0.927631736 -0.053967744
v -0.080083713 0.800201595 -0.112017058
v -0.182096869 0.640070796 -0.054430462
v 0.119386986 0.760188460 -0.113480829
v -0.191328391 0.697916329 -0.054680664
v -0.173077285 0.694879413 -0.075037919
v 0.171665579 0.925997376 -0.036548212
v -0.185385838 0.712413430 -0.065596685
v -0.175256670 0.739976585 -0.083491191
v 0.181743354 0.882772803 -0.026182076
v -0.166161954 0.672030807 -0.074127063
v -0.020573501 0.689619005 -0.070126705
v 0.080432162 0.746868670 -0.102452256
v -0.121566474 0.949951530 -0.116207622
v -0.132368654 0.950717449 -0.107571423
v -0.157998353 0.750404894 -0.093728557
v -0.155649588 0.728729784 -0.090824030
v -0.154469743 0.706724882 -0.086756967
v -0.151758403 0.685178459 -0.082528904
v -0.129107490 0.841417432 -0.118346155
v 0.067780741 0.820089221 0.062465828
v 0.200036407 0.654982865 -0.030106466
v -0.150147736 0.952186763 -0.084585622
v -0.156481534 0.952951550 -0.071397744
v 0.204214960 0.675864279 -0.017218776
v -0.004981518 0.612421155 -0.028626794
v -0.162279263 0.953949153 -0.057990663
v 0.180828735 0.887361050 -0.003356881
v -0.165640682 0.954472899 -0.043787837
v -0.168024778 0.954913974 -0.029408004
v -0.167111486 0.955060661 -0.015835451
v 0.208151653 0.786052287 -0.033389345
v 0.169544742 0.932151794 -0.021416476
v -0.165022105 0.955314934 -0.001485895
v -0.163597986 0.955352008 0.013006486
v -0.160657078 0.954845428 0.027342668
v 0.049462281 0.799383283 -0.107388534
v -0.148812756 0.955742538 0.035237342
v 0.166568682 0.927334130 -0.005744618
v -0.140797406 0.955400825 0.047172718
v -0.133228540 0.673925400 -0.088662706
v 0.172937065 0.879648507 0.016374538
v 0.015563877 0.729577601 -0.084743924
v -0.003361459 0.716692567 -0.080119774
v -0.003203760 0.732758880 -0.084840447
v 0.140932351 0.929640412 -0.110764548
v -0.135338813 0.695526779 -0.092772566
v -0.002959010 0.748916030 -0.089583606
v -0.137769595 0.739887774 -0.101735249
v 0.013943179 0.747888505 -0.089826785
v -0.002791557 0.765316844 -0.093888968
v -0.130701706 0.954550564 0.057722103
v 0.162430882 0.776342750 -0.095781416
v 0.163235918 0.929263413 0.011816723
v -0.117469765 0.683020294 -0.097533621
v -0.118322752 0.954346836 0.063211270
v -0.104527749 0.954479039 0.067157432
v 0.149289027 0.914318085 0.025320882
v 0.045878820 0.866254628 -0.144193038
v -0.136776179 0.717425823 -0.097781464
v -0.118020311 0.753312171 -0.113217995
v 0.153524980 0.936472237 0.024728689
v -0.118108131 0.704988360 -0.103146613
v 0.165051088 0.870898128 0.034065370
v -0.097972177 0.693587542 -0.098686263
v -0.001796164 0.769198596 0.048241347
v -0.094244219 0.936170101 0.060937323
v 0.137526348 0.936813354 0.051314186
v 0.140172288 0.918344200 0.048491746
v 0.140819773 0.934226632 0.035654124
v -0.082138613 0.682413280 -0.090168603
v -0.096653014 0.715522647 -0.102564201
v -0.077866092 0.704079807 -0.093717881
v 0.045280844 0.680669308 0.042490695
v -0.096526109 0.737644851 -0.106684640
v 0.049177472 0.910854995 -0.144976407
v -0.075184122 0.725474000 -0.097230569
v 0.025558436 0.900711834 -0.141070530
v -0.039543182 0.857496262 -0.140956044
v -0.036840770 0.883763790 -0.144793540
v 0.201050594 0.669809937 0.019261016
v 0.185977980 0.679891407 0.052034102
v -0.051550370 0.715392470 -0.086736217
v -0.055994324 0.740322948 -0.094314471
v -0.142566472 0.951712251 -0.096942969
v 0.153902203 0.882160306 0.042828001
v 0.135569245 0.879730225 0.047701415
v -0.193975538 0.610432148 0.008756295
v 0.156478956 0.649249017 0.060858071
v 0.164939970 0.674047172 0.060622454
v -0.190689027 0.594486356 0.013429788
v 0.123294994 0.901491523 0.047324464
v -0.036901705 0.625686288 -0.043360762
v -0.033812527 0.610780060 -0.034446914
v 0.014181386 0.653806746 0.024410645
v -0.019996490 0.612537980 -0.029643303
v -0.003579030 0.956997097 0.083681248
v 0.065416418 0.900486112 -0.148085520
v -0.017180711 0.954138637 0.083575413
v -0.021637017 0.645346761 0.022221372
v 0.121639132 0.661646962 0.075575858
v 0.033082105 0.938751698 0.074296676
v 0.075455435 0.622648776 0.052312143
v 0.065245628 0.637813747 0.049550403
v 0.095834121 0.633240700 0.062557518
v 0.048443750 0.841396153 -0.136351109
v 0.115084566 0.637950778 0.071115166
v 0.051401101 0.642342269 0.037885539
v 0.190850303 0.626876354 0.026077103
v 0.116467759 0.873026371 0.055723261
v 0.104729474 0.891834557 0.055226237
v 0.168088913 0.904979348 0.008310230
v 0.100917257 0.655432284 0.066729046
v 0.172786340 0.906717300 -0.018994488
v 0.174303219 0.899414539 -0.044471890
v 0.050318796 0.935666203 0.070787326
v 0.083782218 0.668018878 0.060733330
v 0.105372347 0.681068242 0.070624396
v 0.172976449 0.909322381 -0.066966996
v 0.162606567 0.920428395 -0.083436489
v 0.081523731 0.646022320 0.057725720
v 0.160072938 0.908969581 -0.095859908
v 0.180443600 0.621488273 -0.050919347
v 0.164551497 0.630168974 -0.067544773
v 0.064163916 0.678843081 0.053634338
v 0.138778657 0.632014811 -0.076671444
v 0.135930419 0.911588848 -0.122963920
v 0.064984128 0.656913340 0.051687658
v 0.108470246 0.728579760 0.075647652
v 0.136981145 0.642339885 0.069002196
v 0.169410795 0.633487821 0.053457052
v 0.185575709 0.640607893 0.040359460
v 0.208489016 0.721832395 -0.030567328
v 0.155360550 0.724509656 -0.089581802
v 0.047934785 0.662236929 0.039822727
v 0.137457937 0.711983621 -0.095821232
v 0.198686674 0.637018323 -0.013688986
v 0.197797358 0.633289099 0.007025504
v 0.035874579 0.696713746 0.041269429
v 0.012028622 0.717463017 0.040438265
v 0.087595217 0.900342464 0.058749001
v 0.067453466 0.933723748 0.067201033
v 0.017732931 0.735991180 0.044683028
v 0.035206962 0.835691571 0.055990178
v 0.023030169 0.813653111 0.051507913
v 0.019520756 0.647508740 -0.049662877
v 0.056252539 0.915263355 0.065422520
v 0.036469452 0.682186127 -0.071720973
v 0.032090094 0.887913406 0.065550439
v 0.045314774 0.899237752 0.065569304
v 0.015286568 0.887184978 0.066190138
v 0.033392657 0.628752589 -0.045757700
v 0.054128934 0.686134458 -0.079534784
v 0.077040009 0.800920844 0.066614673
v 0.198591158 0.726865590 0.037064485
v 0.195179015 0.823052406 -0.059237324
v 0.052520078 0.623266280 -0.058511049
v 0.172639549 0.714630306 -0.078846656
v 0.126031443 0.797978401 -0.114057578
v 0.119335569 0.718583167 -0.105923757
v 0.075408667 0.618731797 -0.067855693
v 0.050319165 0.725223899 -0.089259155
v 0.037686944 0.781761527 -0.100594781
v 0.112999633 0.630133033 -0.084922962
v 0.097222909 0.614117026 -0.076659217
v 0.098983690 0.921282589 -0.138101429
v 0.073169827 0.913401783 0.062511764
v 0.067577831 0.889549553 0.061586183
v 0.121234454 0.610351384 -0.078554697
v 0.026827067 0.870388150 0.063734874
v 0.043028034 0.856161773 0.060156692
v 0.077584967 0.921794891 -0.142364487
v 0.144765109 0.609482706 -0.070859917
v 0.181084797 0.785914660 -0.086102314
v 0.023071654 0.835712552 -0.126152307
v 0.169093639 0.668220162 -0.071739860
v 0.165993661 0.607645392 -0.063559391
v 0.016709421 0.711746812 -0.079364240
v 0.178178594 0.602748156 -0.049206380
v 0.030588459 0.801718235 -0.106656477
v 0.188356563 0.608583093 -0.034014329
v 0.196108922 0.619697154 -0.020931289
v 0.063362122 0.760300040 0.059713740
v 0.106859341 0.895865798 -0.140558451
v 0.086048871 0.899590194 -0.147346690
v 0.017911542 0.782230735 -0.099150099
v 0.195303380 0.616428673 -0.003833813
v 0.121134102 0.677629232 -0.094107300
v 0.204264134 0.677437425 0.001536410
v 0.191030174 0.663412452 0.037014987
v 0.155558527 0.675067544 -0.078657873
v 0.139309973 0.677092135 -0.086067893
v 0.180109710 0.616216063 0.043083485
v 0.151871458 0.866031647 0.050517369
v 0.187662214 0.864403248 0.009626493
v 0.200447410 0.680213571 -0.037792817
v 0.043624502 0.645230711 -0.058216225
v 0.149365708 0.621933818 0.061283536
v 0.087262288 0.783619940 0.070162490
v 0.206175134 0.692193389 0.014108744
v 0.196899682 0.686245441 0.032855462
v 0.087507546 0.692560017 -0.094413169
v 0.129845724 0.617068410 0.069610670
v 0.120732568 0.846578121 -0.127000555
v -0.001472465 0.785777152 0.049117256
v -0.002727736 0.704359710 0.036401216
v 0.052973438 0.695448577 0.048372634
v 0.108607233 0.616811097 0.066163369
v 0.143264592 0.852030277 -0.111998484
v -0.002217097 0.752862513 0.045652475
v -0.000972061 0.802518368 0.049281023
v 0.091482468 0.614302278 0.058205418
v 0.020693019 0.852543950 0.058026724
v -0.000283015 0.852511048 0.057852119
v 0.104138076 0.914597213 0.054118015
v 0.059054773 0.623148978 0.037580863
v 0.103868887 0.936468601 0.059439313
v 0.193820179 0.611245453 0.012956667
v 0.103080392 0.786480129 0.076804511
v 0.034795024 0.923530579 -0.139048427
v 0.040780526 0.626345098 0.025730738
v 0.067769930 0.880860031 -0.149323493
v 0.019187670 0.631991267 0.017708046
v 0.033510808 0.648278594 0.028918555
v 0.042293917 0.821533024 -0.118286595
v 0.015396859 0.834162533 0.053680975
v 0.016176388 0.694839835 0.035402298
v -0.003028526 0.688424468 0.032121371
v -0.002370722 0.736559570 0.043215387
v 0.194024071 0.603789806 -0.015608504
v -0.002488604 0.720371842 0.040242400
v 0.066597469 0.643890679 -0.071103886
v 0.087442771 0.768355548 -0.107057594
v 0.107276186 0.780036569 -0.113087974
v 0.155510232 0.779775083 0.070292078
v 0.094983689 0.747180343 0.071449749
v 0.159181565 0.753368556 0.068811953
v 0.090211779 0.635974586 -0.079568125
v 0.186072379 0.607230425 0.027896300
f 555 540 123
f 389 162 497
f 567 540 568
f 583 104 251
f 463 489 430
f 453 94 255
f 483 484 162
f 446 640 671
f 574 577 251
f 50 244 238
f 52 244 50
f 575 57 53
f 55 249 52
f 55 2 250
f 577 248 563
f 575 437 432
f 57 597 589
f 2 265 262
f 589 592 57
f 262 259 2
f 5 267 262
f 602 606 589
f 5 9 11
f 58 606 610
f 11 272 5
f 12 278 11
f 565 793 8
f 630 60 632
f 13 425 12
f 424 289 160
f 289 424 13
f 643 649 60
f 181 403 179
f 483 206 484
f 163 651 174
f 53 563 558
f 651 65 650
f 163 389 384
f 683 66 65
f 455 558 563
f 165 384 171
f 340 331 34
f 67 66 683
f 206 470 63
f 385 102 856
f 67 702 70
f 344 340 696
f 179 403 406
f 710 70 702
f 16 352 14
f 111 112 59
f 63 64 655
f 18 368 16
f 710 742 753
f 119 112 111
f 394 671 545
f 551 922 903
f 19 375 18
f 753 740 711
f 406 470 179
f 261 615 108
f 545 453 439
f 178 386 530
f 24 386 23
f 72 753 742
f 26 396 24
f 768 765 72
f 119 142 112
f 32 63 470
f 112 142 161
f 399 400 396
f 154 343 182
f 545 671 448
f 399 415 400
f 768 770 765
f 32 406 410
f 418 415 399
f 770 183 777
f 387 300 166
f 415 418 422
f 105 86 299
f 169 42 839
f 170 142 119
f 173 172 705
f 329 638 343
f 134 738 737
f 185 638 329
f 692 661 145
f 150 74 741
f 637 345 873
f 132 145 661
f 170 184 142
f 138 495 760
f 138 136 188
f 136 194 188
f 201 87 194
f 270 87 205
f 216 49 210
f 46 216 724
f 198 184 170
f 43 96 907
f 219 39 218
f 45 43 41
f 224 37 219
f 498 224 514
f 86 105 342
f 225 36 514
f 378 107 110
f 80 233 107
f 22 41 43
f 198 217 849
f 41 581 45
f 103 233 76
f 76 40 103
f 222 217 214
f 678 100 40
f 98 41 22
f 366 41 98
f 40 76 678
f 215 4 284
f 215 98 21
f 537 536 92
f 222 234 217
f 904 537 92
f 460 462 30
f 284 471 366
f 222 239 246
f 586 903 759
f 462 28 30
f 246 234 222
f 454 449 28
f 237 391 924
f 560 319 921
f 246 888 252
f 431 471 282
f 455 560 391
f 319 560 241
f 50 238 793
f 50 566 52
f 52 574 55
f 258 263 510
f 244 52 249
f 55 253 2
f 284 792 657
f 303 670 667
f 303 100 674
f 250 249 55
f 273 274 252
f 251 253 574
f 100 303 301
f 301 570 100
f 104 261 257
f 677 100 678
f 273 285 274
f 257 2 253
f 2 257 265
f 250 2 259
f 570 568 40
f 752 292 293
f 294 296 285
f 285 296 274
f 684 497 679
f 277 274 296
f 440 447 442
f 579 489 463
f 692 329 695
f 259 262 267
f 871 736 360
f 262 271 9
f 40 100 570
f 570 567 568
f 203 128 270
f 310 296 294
f 305 296 310
f 87 270 194
f 9 5 262
f 5 272 600
f 276 9 271
f 9 276 11
f 272 11 278
f 302 323 310
f 568 103 40
f 108 615 89
f 280 11 276
f 11 280 12
f 103 568 540
f 278 12 425
f 323 337 328
f 283 12 280
f 12 283 13
f 283 297 289
f 289 13 283
f 540 561 231
f 425 13 424
f 209 288 205
f 291 125 286
f 346 337 323
f 49 304 288
f 173 350 351
f 297 654 314
f 347 158 864
f 304 47 311
f 47 304 49
f 47 46 481
f 360 361 855
f 501 684 146
f 481 311 47
f 46 39 481
f 343 695 329
f 314 289 297
f 289 314 160
f 481 321 308
f 481 39 321
f 325 122 321
f 325 321 37
f 37 321 39
f 333 160 314
f 324 266 333
f 527 107 231
f 84 121 325
f 36 327 498
f 160 333 34
f 327 120 84
f 36 82 371
f 277 393 390
f 689 34 333
f 34 689 340
f 313 34 331
f 266 334 689
f 334 260 341
f 340 335 331
f 107 527 110
f 54 404 405
f 696 14 344
f 61 401 44
f 38 299 407
f 358 14 348
f 14 358 16
f 344 14 352
f 356 704 712
f 352 16 368
f 413 62 417
f 370 16 358
f 16 370 18
f 175 705 134
f 713 115 110
f 371 27 378
f 27 371 82
f 381 18 370
f 18 381 19
f 368 18 375
f 80 378 27
f 19 381 235
f 19 395 23
f 19 23 178
f 202 506 913
f 23 395 24
f 386 24 396
f 398 24 395
f 24 398 26
f 26 398 220
f 26 412 399
f 396 26 399
f 418 399 412
f 164 180 444
f 444 443 164
f 175 173 705
f 685 84 120
f 422 300 415
f 685 121 84
f 172 169 300
f 172 300 422
f 78 80 27
f 226 365 78
f 89 615 114
f 240 485 309
f 134 737 175
f 226 27 82
f 245 459 452
f 187 186 140
f 243 459 245
f 189 187 130
f 581 466 579
f 467 472 637
f 308 122 240
f 138 579 466
f 430 255 463
f 499 435 430
f 453 430 435
f 435 440 439
f 435 499 450
f 243 479 281
f 308 321 122
f 897 438 584
f 439 453 435
f 243 281 893
f 450 440 435
f 480 859 865
f 440 449 447
f 442 439 440
f 450 449 440
f 447 449 454
f 492 488 493
f 127 458 456
f 449 456 28
f 82 225 708
f 454 28 462
f 28 456 30
f 456 450 127
f 30 456 458
f 225 82 36
f 30 464 460
f 506 507 502
f 126 469 125
f 287 508 509
f 207 507 506
f 410 460 32
f 126 306 477
f 460 464 644
f 644 32 460
f 32 644 63
f 475 31 576
f 470 406 32
f 64 63 644
f 306 309 477
f 125 464 458
f 528 795 511
f 516 523 524
f 655 206 63
f 206 655 484
f 206 474 470
f 162 679 497
f 316 322 822
f 313 160 34
f 37 498 325
f 523 316 534
f 497 684 501
f 501 146 505
f 146 512 503
f 505 503 513
f 263 515 510
f 512 120 115
f 503 512 91
f 517 513 503
f 115 713 91
f 458 203 125
f 315 547 548
f 91 512 115
f 547 330 336
f 91 713 88
f 517 88 522
f 552 548 547
f 532 88 713
f 88 532 519
f 552 336 553
f 522 519 541
f 527 231 561
f 127 128 458
f 538 660 692
f 514 36 498
f 224 498 37
f 538 692 695
f 114 626 631
f 553 342 105
f 219 37 39
f 555 660 561
f 127 450 499
f 891 199 824
f 660 555 661
f 218 39 46
f 199 97 886
f 366 98 284
f 22 21 98
f 41 366 581
f 43 232 22
f 907 232 43
f 96 536 907
f 45 463 255
f 45 581 463
f 255 94 96
f 255 96 45
f 94 453 545
f 448 546 545
f 582 593 594
f 595 584 438
f 216 46 47
f 216 47 49
f 551 640 558
f 558 640 569
f 49 288 209
f 793 565 50
f 569 53 558
f 566 50 565
f 209 210 49
f 841 351 350
f 574 52 566
f 578 53 57
f 612 609 423
f 53 578 563
f 575 53 569
f 597 432 211
f 253 55 574
f 57 575 597
f 578 57 592
f 592 583 578
f 627 609 612
f 584 621 628
f 603 589 606
f 602 589 597
f 634 819 627
f 610 606 602
f 835 318 229
f 626 606 58
f 610 624 58
f 58 624 630
f 632 58 630
f 634 884 869
f 58 632 626
f 60 642 632
f 642 60 649
f 60 630 181
f 650 649 643
f 662 652 645
f 656 628 621
f 621 636 656
f 658 659 204
f 64 644 469
f 466 495 138
f 694 377 700
f 468 471 431
f 663 650 65
f 628 656 668
f 679 162 484
f 65 686 663
f 672 673 659
f 686 65 66
f 683 65 651
f 468 431 478
f 683 693 67
f 685 146 684
f 146 685 512
f 696 340 689
f 66 67 701
f 473 495 478
f 66 698 686
f 702 67 693
f 668 675 687
f 701 698 66
f 405 690 54
f 701 67 70
f 54 690 564
f 14 696 348
f 711 70 710
f 699 70 711
f 702 709 710
f 229 318 236
f 657 282 471
f 710 709 742
f 753 756 740
f 756 753 72
f 742 754 72
f 72 754 768
f 72 765 756
f 766 765 770
f 490 193 496
f 130 772 496
f 770 776 766
f 15 719 168
f 87 201 148
f 183 770 768
f 201 194 136
f 422 705 172
f 633 777 338
f 777 633 150
f 408 74 633
f 638 185 408
f 106 730 258
f 688 379 694
f 275 631 118
f 185 692 145
f 197 750 749
f 736 737 738
f 263 258 730
f 738 741 743
f 185 145 143
f 743 741 744
f 744 741 74
f 744 467 879
f 132 140 145
f 123 132 661
f 741 738 150
f 123 540 567
f 773 772 567
f 738 134 150
f 78 27 226
f 238 623 1
f 264 279 779
f 776 150 134
f 134 705 420
f 695 541 538
f 104 599 261
f 365 681 680
f 761 762 763
f 365 678 76
f 76 78 365
f 411 156 420
f 156 411 220
f 541 519 538
f 220 764 156
f 76 233 78
f 80 78 233
f 168 789 387
f 70 699 701
f 398 395 228
f 434 437 445
f 779 780 887
f 428 432 434
f 926 317 706
f 197 749 745
f 213 6 4
f 279 785 780
f 419 427 428
f 148 201 745
f 454 462 419
f 526 782 783
f 381 734 235
f 410 414 419
f 493 769 913
f 511 4 215
f 4 511 213
f 406 414 410
f 208 731 729
f 21 511 215
f 210 728 727
f 794 800 823
f 511 21 529
f 470 474 179
f 724 218 46
f 227 110 115
f 118 280 275
f 219 218 722
f 806 800 794
f 803 804 256
f 716 778 225
f 224 219 720
f 407 86 690
f 356 734 381
f 389 497 380
f 809 795 528
f 810 806 811
f 717 716 514
f 497 501 380
f 317 697 429
f 810 818 821
f 913 771 202
f 341 698 699
f 373 376 159
f 369 177 373
f 341 260 698
f 260 334 266
f 365 226 681
f 517 522 354
f 828 821 818
f 354 362 364
f 569 640 446
f 519 522 88
f 767 828 818
f 266 324 676
f 602 597 211
f 804 834 256
f 121 240 122
f 345 868 918
f 610 602 211
f 169 839 166
f 427 195 211
f 643 179 174
f 683 651 165
f 693 683 171
f 627 884 634
f 324 654 676
f 846 397 841
f 841 397 374
f 362 709 369
f 580 397 846
f 192 188 190
f 192 499 489
f 128 192 190
f 270 205 203
f 205 288 286
f 291 306 126
f 208 148 733
f 288 304 291
f 304 311 306
f 311 481 308
f 286 125 203
f 283 118 297
f 589 599 592
f 283 280 118
f 227 115 120
f 747 805 732
f 707 226 82
f 107 378 80
f 275 114 631
f 118 646 297
f 89 114 275
f 231 233 103
f 87 209 205
f 816 872 870
f 271 108 89
f 248 560 455
f 248 241 560
f 108 271 265
f 566 565 241
f 86 876 690
f 622 244 619
f 517 91 88
f 574 566 248
f 715 662 889
f 244 249 618
f 249 250 614
f 882 465 718
f 253 251 257
f 774 465 882
f 250 259 608
f 883 494 774
f 921 391 560
f 259 267 604
f 54 564 847
f 251 577 583
f 600 267 5
f 89 276 271
f 503 91 517
f 690 405 407
f 275 276 89
f 892 573 582
f 272 278 596
f 248 577 574
f 280 276 275
f 425 588 591
f 425 424 781
f 781 313 572
f 424 313 781
f 572 585 781
f 314 654 324
f 136 197 201
f 313 557 572
f 237 551 558
f 554 331 335
f 334 341 348
f 760 136 138
f 335 344 549
f 341 699 704
f 348 696 334
f 921 319 7
f 358 348 704
f 344 352 544
f 912 582 594
f 903 586 551
f 352 368 543
f 381 370 356
f 368 375 539
f 788 8 3
f 535 375 178
f 221 795 809
f 828 767 562
f 559 833 920
f 921 920 899
f 546 448 898
f 903 922 836
f 38 903 299
f 235 228 395
f 405 669 407
f 546 92 94
f 400 518 520
f 92 546 904
f 639 35 926
f 386 396 525
f 927 926 33
f 928 605 930
f 200 490 298
f 94 545 546
f 96 92 536
f 927 56 852
f 143 472 408
f 220 412 26
f 400 520 521
f 412 220 411
f 109 113 152
f 920 832 559
f 418 412 411
f 152 113 746
f 387 789 786
f 420 418 411
f 746 161 867
f 418 420 422
f 490 773 298
f 496 772 773
f 394 442 445
f 562 767 832
f 739 636 820
f 204 725 658
f 773 490 496
f 725 223 635
f 447 454 428
f 472 186 637
f 215 284 98
f 189 130 496
f 458 464 30
f 410 462 460
f 125 469 464
f 635 247 487
f 487 269 629
f 641 487 629
f 268 269 487
f 269 393 629
f 390 269 268
f 469 126 64
f 349 761 763
f 655 64 477
f 303 674 670
f 290 393 277
f 611 290 928
f 163 474 483
f 928 307 605
f 635 641 648
f 531 605 533
f 677 674 100
f 477 309 485
f 506 202 207
f 679 485 240
f 240 121 684
f 312 912 594
f 684 679 240
f 121 685 684
f 186 187 345
f 503 505 146
f 912 332 892
f 772 130 132
f 685 120 512
f 501 505 159
f 725 648 658
f 505 513 373
f 513 517 364
f 892 847 564
f 110 527 713
f 714 847 339
f 522 541 154
f 51 714 346
f 231 103 540
f 714 51 404
f 541 695 343
f 567 772 123
f 502 500 506
f 578 577 563
f 867 659 673
f 577 578 583
f 597 575 432
f 592 104 583
f 913 492 493
f 845 167 839
f 599 104 592
f 386 178 23
f 599 603 615
f 110 227 378
f 615 261 599
f 706 402 639
f 603 626 114
f 132 123 772
f 624 610 195
f 409 706 317
f 746 673 682
f 114 615 603
f 120 327 227
f 624 414 403
f 691 429 697
f 642 631 632
f 642 118 631
f 429 433 853
f 646 118 642
f 642 649 646
f 152 682 691
f 682 433 691
f 181 643 60
f 654 297 646
f 122 325 121
f 140 130 187
f 421 416 617
f 123 661 555
f 309 308 240
f 698 260 686
f 702 693 177
f 698 701 699
f 672 441 436
f 291 126 125
f 109 691 697
f 143 140 186
f 874 872 816
f 665 441 672
f 188 192 489
f 665 658 653
f 712 704 699
f 653 451 665
f 927 697 317
f 712 740 734
f 648 461 653
f 178 375 19
f 923 880 116
f 641 461 648
f 740 756 748
f 748 758 228
f 926 706 639
f 479 641 482
f 754 742 362
f 354 754 362
f 407 669 38
f 203 458 128
f 482 629 620
f 756 765 758
f 182 754 154
f 128 127 192
f 254 246 252
f 611 382 620
f 764 398 228
f 499 192 127
f 764 766 156
f 766 776 156
f 930 611 928
f 420 156 776
f 140 132 130
f 788 7 8
f 387 166 168
f 420 776 134
f 136 760 197
f 300 387 415
f 750 197 760
f 745 201 197
f 148 208 209
f 733 148 745
f 258 35 106
f 593 533 605
f 731 208 733
f 236 318 910
f 729 210 208
f 728 210 729
f 727 216 210
f 188 489 579
f 929 573 556
f 724 216 727
f 573 929 582
f 723 218 724
f 722 218 723
f 720 219 722
f 717 224 720
f 514 224 717
f 188 579 138
f 876 556 573
f 707 681 226
f 898 904 546
f 472 143 186
f 212 795 221
f 899 391 921
f 854 925 931
f 213 795 212
f 140 143 145
f 404 54 714
f 833 922 924
f 415 387 786
f 143 408 185
f 238 3 793
f 1 3 238
f 31 799 752
f 622 238 244
f 918 799 515
f 380 376 171
f 915 752 357
f 617 476 421
f 619 244 618
f 618 249 616
f 616 249 614
f 636 739 613
f 388 613 10
f 614 250 608
f 357 791 915
f 383 688 388
f 608 259 607
f 571 438 576
f 295 667 666
f 92 96 94
f 607 259 604
f 372 726 700
f 667 295 303
f 367 726 372
f 604 267 601
f 298 295 207
f 923 875 880
f 363 732 367
f 408 467 74
f 148 209 87
f 298 301 295
f 359 747 363
f 601 267 600
f 359 355 755
f 600 272 598
f 598 272 596
f 353 755 355
f 301 298 773
f 596 278 591
f 747 755 751
f 591 278 425
f 588 425 781
f 388 688 813
f 769 771 913
f 763 353 349
f 202 771 200
f 506 500 913
f 74 467 744
f 773 570 301
f 82 708 707
f 320 647 326
f 500 492 913
f 331 554 557
f 242 910 320
f 344 335 340
f 910 908 647
f 554 335 550
f 239 222 703
f 549 550 335
f 549 344 544
f 166 167 168
f 544 352 543
f 543 368 542
f 17 15 167
f 17 845 157
f 907 536 919
f 157 850 155
f 155 850 153
f 542 368 539
f 150 633 74
f 153 854 151
f 151 854 149
f 149 858 147
f 147 862 144
f 539 375 535
f 759 903 38
f 530 535 178
f 144 862 141
f 141 866 139
f 139 866 137
f 530 386 525
f 137 870 135
f 525 396 521
f 135 870 872
f 133 872 131
f 131 874 129
f 129 923 117
f 923 874 875
f 170 119 902
f 521 396 400
f 20 932 101
f 99 101 932
f 99 886 97
f 95 97 199
f 95 891 93
f 93 896 90
f 518 400 786
f 90 896 85
f 85 901 83
f 83 905 81
f 169 166 300
f 81 905 79
f 77 79 796
f 77 909 75
f 439 394 545
f 75 914 73
f 73 914 71
f 71 916 69
f 442 394 439
f 468 466 366
f 442 447 434
f 7 562 920
f 794 534 811
f 924 899 833
f 434 447 428
f 428 454 419
f 419 462 410
f 38 898 759
f 902 111 897
f 466 468 495
f 526 524 534
f 25 59 56
f 96 43 45
f 895 401 61
f 182 343 338
f 483 389 163
f 483 162 389
f 897 59 25
f 883 894 775
f 776 777 150
f 59 897 111
f 380 384 389
f 774 882 893
f 111 902 119
f 778 708 225
f 501 159 380
f 167 166 839
f 159 505 373
f 176 191 867
f 373 513 369
f 364 369 513
f 850 890 925
f 354 364 517
f 354 522 154
f 177 369 709
f 154 541 343
f 446 445 437
f 376 380 159
f 204 223 725
f 217 198 214
f 214 703 222
f 437 569 446
f 610 211 195
f 414 624 195
f 403 630 624
f 889 718 715
f 160 313 424
f 181 630 403
f 888 246 239
f 179 643 181
f 174 650 643
f 651 650 174
f 163 384 165
f 487 247 268
f 165 651 163
f 171 683 165
f 174 474 163
f 557 313 331
f 475 515 799
f 376 693 171
f 285 273 757
f 177 693 376
f 627 885 884
f 174 179 474
f 509 508 516
f 294 302 310
f 709 702 177
f 709 362 742
f 154 754 354
f 182 338 183
f 780 785 803
f 183 768 182
f 423 413 881
f 183 338 777
f 638 338 343
f 633 638 408
f 590 401 895
f 692 185 329
f 190 188 194
f 515 475 25
f 270 190 194
f 190 270 128
f 195 427 414
f 7 788 562
f 915 878 571
f 877 595 438
f 203 205 286
f 44 48 61
f 474 206 483
f 210 209 208
f 61 62 895
f 413 895 62
f 211 432 427
f 172 42 169
f 398 764 220
f 515 263 918
f 437 575 569
f 228 758 764
f 124 885 426
f 175 871 350
f 84 498 327
f 225 514 716
f 327 371 227
f 918 263 730
f 898 448 759
f 371 327 36
f 839 374 890
f 227 371 378
f 451 441 665
f 228 235 748
f 444 180 457
f 233 231 107
f 187 868 345
f 759 448 586
f 189 292 868
f 734 748 235
f 653 461 826
f 924 922 237
f 292 193 196
f 446 671 394
f 461 641 479
f 922 551 237
f 391 237 455
f 482 641 629
f 918 868 799
f 196 200 293
f 771 293 200
f 558 455 237
f 281 287 894
f 894 893 281
f 248 566 241
f 257 251 104
f 255 430 453
f 257 261 265
f 509 775 287
f 260 266 676
f 509 516 524
f 265 261 108
f 523 516 531
f 322 316 523
f 273 252 888
f 265 271 262
f 811 534 316
f 316 315 811
f 676 686 260
f 366 466 581
f 478 495 468
f 330 547 315
f 547 336 552
f 366 471 468
f 760 495 473
f 657 471 284
f 336 342 553
f 553 900 552
f 832 900 553
f 865 878 791
f 792 284 4
f 31 571 576
f 286 288 291
f 438 571 877
f 906 864 863
f 4 790 792
f 8 7 319
f 303 295 301
f 291 304 306
f 570 773 567
f 739 617 392
f 617 416 392
f 306 311 309
f 309 311 308
f 170 628 668
f 613 739 10
f 739 392 10
f 656 675 668
f 656 815 675
f 680 678 365
f 813 613 388
f 324 333 314
f 687 198 668
f 379 688 383
f 295 666 207
f 815 656 636
f 377 694 379
f 325 498 84
f 689 333 266
f 334 696 689
f 700 377 372
f 861 834 860
f 703 721 239
f 732 726 367
f 834 861 256
f 348 341 704
f 747 732 363
f 356 358 704
f 735 888 721
f 370 358 356
f 735 264 757
f 735 273 888
f 755 747 359
f 369 364 362
f 353 763 755
f 647 761 326
f 761 349 326
f 376 373 177
f 779 757 264
f 780 779 279
f 384 380 171
f 235 395 19
f 736 871 737
f 562 788 917
f 910 647 320
f 785 804 803
f 414 406 403
f 256 323 803
f 813 675 815
f 415 786 400
f 427 419 414
f 422 420 705
f 432 428 427
f 430 489 499
f 587 580 590
f 437 434 432
f 445 442 434
f 446 394 445
f 671 586 448
f 819 609 627
f 456 449 450
f 455 563 248
f 865 791 769
f 581 579 463
f 645 652 817
f 644 464 469
f 652 662 715
f 874 923 129
f 715 664 652
f 694 812 688
f 477 64 126
f 750 760 473
f 485 655 477
f 465 715 718
f 507 207 666
f 465 774 494
f 865 486 480
f 812 675 813
f 485 484 655
f 207 202 298
f 883 504 825
f 493 865 769
f 783 782 504
f 679 484 485
f 202 200 298
f 196 490 200
f 196 193 490
f 877 859 476
f 302 803 323
f 189 496 193
f 814 806 810
f 168 719 789
f 821 814 810
f 391 899 924
f 713 527 532
f 467 408 472
f 302 294 887
f 786 787 518
f 538 519 532
f 561 532 527
f 926 35 33
f 538 532 660
f 540 555 561
f 551 586 640
f 319 241 565
f 660 532 561
f 113 161 746
f 161 176 867
f 8 319 565
f 223 247 635
f 781 585 784
f 620 629 393
f 887 780 302
f 269 390 393
f 671 640 586
f 781 784 588
f 599 589 603
f 393 290 611
f 626 603 606
f 928 290 305
f 623 238 622
f 625 1 623
f 774 893 894
f 312 332 912
f 626 632 631
f 332 339 847
f 847 892 332
f 757 887 285
f 847 714 54
f 793 3 8
f 732 807 726
f 858 931 857
f 675 812 687
f 168 167 15
f 273 735 757
f 920 921 7
f 402 385 639
f 167 845 17
f 638 633 338
f 646 649 663
f 650 663 649
f 845 850 157
f 888 239 721
f 663 654 646
f 706 409 48
f 850 854 153
f 676 654 663
f 429 409 317
f 661 692 660
f 854 858 149
f 676 663 686
f 858 862 147
f 433 429 691
f 678 680 677
f 699 711 712
f 712 734 356
f 711 710 753
f 862 866 141
f 712 711 740
f 682 436 827
f 734 740 748
f 866 870 137
f 214 687 808
f 748 756 758
f 664 816 652
f 872 133 135
f 198 687 214
f 754 182 768
f 872 874 131
f 665 659 658
f 758 765 766
f 658 648 653
f 766 764 758
f 776 770 777
f 668 198 170
f 117 923 116
f 787 786 789
f 929 330 822
f 533 822 322
f 556 336 330
f 531 322 523
f 899 920 833
f 662 444 889
f 346 323 256
f 491 482 620
f 116 880 911
f 911 20 116
f 382 491 620
f 911 932 20
f 932 886 99
f 645 443 662
f 930 382 611
f 382 930 516
f 886 824 199
f 605 531 930
f 491 508 848
f 628 170 902
f 256 347 346
f 482 848 479
f 891 896 93
f 347 256 861
f 820 617 739
f 866 819 817
f 605 594 593
f 896 901 85
f 929 593 582
f 612 881 885
f 901 905 83
f 826 451 653
f 451 457 180
f 672 659 665
f 441 180 851
f 79 905 796
f 436 673 672
f 436 851 827
f 909 914 75
f 682 673 436
f 914 916 71
f 584 902 897
f 876 86 342
f 69 916 1
f 829 433 827
f 700 808 694
f 788 3 916
f 853 829 417
f 409 61 48
f 402 48 855
f 870 817 816
f 855 29 360
f 874 816 664
f 385 361 102
f 830 880 875
f 576 897 25
f 819 634 817
f 68 69 1
f 106 856 730
f 743 736 738
f 910 242 236
f 862 857 819
f 744 879 102
f 880 830 831
f 840 528 843
f 401 846 44
f 803 302 780
f 769 791 357
f 878 915 791
f 831 911 880
f 918 873 345
f 576 25 475
f 799 31 475
f 841 29 846
f 879 856 102
f 106 639 385
f 573 564 876
f 911 831 802
f 342 556 876
f 337 339 332
f 25 510 515
f 350 29 841
f 564 573 892
f 892 582 912
f 510 25 56
f 864 906 837
f 312 328 337
f 929 822 593
f 33 35 258
f 871 360 29
f 840 860 835
f 864 158 863
f 29 855 44
f 916 914 917
f 808 687 812
f 594 307 312
f 307 305 328
f 916 917 788
f 33 56 927
f 840 835 809
f 307 594 605
f 736 743 361
f 531 516 930
f 290 277 305
f 852 109 927
f 318 835 860
f 21 844 529
f 852 59 112
f 620 393 611
f 102 743 744
f 112 113 852
f 751 763 762
f 647 785 762
f 805 747 751
f 252 268 254
f 230 835 229
f 487 641 635
f 637 879 467
f 124 851 164
f 809 230 221
f 161 142 176
f 807 732 805
f 247 234 254
f 230 809 835
f 808 700 807
f 345 637 186
f 176 184 191
f 812 694 808
f 204 849 223
f 849 204 191
f 813 688 812
f 635 648 725
f 849 184 198
f 815 613 813
f 815 636 613
f 217 223 849
f 659 191 204
f 217 234 223
f 191 184 849
f 859 480 421
f 795 213 511
f 245 461 243
f 878 865 859
f 802 886 932
f 191 659 867
f 452 718 889
f 223 234 247
f 176 142 184
f 246 254 234
f 865 493 486
f 293 771 357
f 268 247 254
f 771 769 357
f 805 264 735
f 268 252 390
f 161 113 112
f 486 493 488
f 390 252 274
f 867 673 746
f 264 751 279
f 274 277 390
f 746 682 152
f 281 848 287
f 827 433 682
f 808 703 214
f 152 691 109
f 109 852 113
f 476 859 421
f 296 305 277
f 476 595 877
f 305 307 928
f 196 293 292
f 595 476 820
f 726 807 700
f 752 293 357
f 307 328 312
f 310 328 305
f 56 59 852
f 292 752 799
f 328 310 323
f 886 825 824
f 312 337 332
f 807 703 808
f 891 824 782
f 193 292 189
f 844 21 22
f 429 853 409
f 109 697 927
f 56 33 510
f 105 559 553
f 339 337 346
f 346 714 339
f 51 346 347
f 317 926 927
f 564 690 876
f 863 844 232
f 799 868 292
f 510 33 258
f 843 528 529
f 844 863 842
f 861 840 843
f 861 158 347
f 861 860 840
f 752 915 31
f 158 843 842
f 843 158 861
f 842 529 844
f 919 837 906
f 906 232 907
f 809 528 840
f 730 873 918
f 730 856 873
f 873 856 879
f 856 106 385
f 817 634 645
f 837 919 838
f 817 652 816
f 919 906 907
f 919 536 537
f 743 102 361
f 904 669 838
f 898 669 904
f 669 898 38
f 703 807 721
f 405 404 838
f 669 405 838
f 922 833 836
f 294 285 887
f 361 385 402
f 869 645 634
f 830 875 664
f 916 3 1
f 864 51 347
f 402 855 361
f 909 801 914
f 397 890 374
f 48 44 855
f 796 909 77
f 879 637 873
f 901 798 905
f 580 925 397
f 48 402 706
f 896 800 901
f 891 823 896
f 409 62 61
f 853 62 409
f 881 413 417
f 417 62 853
f 86 407 299
f 459 893 882
f 199 891 95
f 830 465 831
f 829 426 417
f 426 829 124
f 426 881 417
f 124 829 827
f 433 829 853
f 886 802 825
f 774 894 883
f 851 124 827
f 164 884 124
f 441 851 436
f 180 164 851
f 443 869 164
f 911 802 932
f 715 830 664
f 874 664 875
f 736 361 360
f 451 180 441
f 457 452 889
f 889 444 457
f 866 817 870
f 106 35 639
f 459 718 452
f 826 452 457
f 452 826 245
f 451 826 457
f 862 819 866
f 858 857 862
f 461 245 826
f 459 882 718
f 479 243 461
f 854 931 858
f 850 925 854
f 846 401 580
f 845 890 850
f 491 848 482
f 848 281 479
f 825 494 883
f 382 508 491
f 900 832 767
f 508 287 848
f 896 823 800
f 839 890 845
f 504 782 824
f 42 374 839
f 516 508 382
f 908 910 318
f 534 524 523
f 552 818 548
f 42 172 173
f 901 800 798
f 818 552 900
f 533 322 531
f 871 175 737
f 868 187 189
f 22 232 844
f 593 822 533
f 822 315 316
f 929 556 330
f 330 315 822
f 838 919 537
f 904 838 537
f 318 860 834
f 908 318 834
f 465 830 715
f 556 342 336
f 105 836 559
f 833 559 836
f 29 44 846
f 908 834 804
f 562 917 828
f 299 836 105
f 818 900 767
f 832 553 559
f 562 832 920
f 811 315 548
f 828 801 821
f 801 828 917
f 821 797 814
f 836 299 903
f 401 590 580
f 797 821 801
f 905 798 796
f 796 814 797
f 810 548 818
f 814 798 806
f 798 814 796
f 909 796 797
f 811 548 810
f 413 587 590
f 404 51 837
f 51 864 837
f 837 838 404
f 909 797 801
f 529 842 843
f 158 842 863
f 232 906 863
f 800 806 798
f 529 528 511
f 794 811 806
f 785 908 804
f 785 647 908
f 859 877 878
f 526 534 794
f 877 571 878
f 571 31 915
f 173 351 42
f 524 783 509
f 350 173 175
f 29 350 871
f 823 526 794
f 783 524 526
f 526 823 782
f 42 351 374
f 841 374 351
f 504 775 783
f 509 783 775
f 782 823 891
f 885 124 884
f 887 757 779
f 914 801 917
f 426 885 881
f 890 397 925
f 825 504 824
f 775 504 883
f 925 587 931
f 587 925 580
f 802 494 825
f 785 279 762
f 494 831 465
f 831 494 802
f 894 287 775
f 590 895 413
f 438 897 576
f 884 164 869
f 762 279 751
f 423 931 587
f 587 413 423
f 931 423 857
f 762 761 647
f 617 820 476
f 595 820 621
f 751 755 763
f 893 459 243
f 751 264 805
f 609 857 423
f 423 881 612
f 662 443 444
f 721 805 735
f 621 584 595
f 857 609 819
f 443 645 869
f 612 885 627
f 636 621 820
f 628 902 584
f 805 721 807
