# avbd fit, rung f60-i32-s300 of Gate 6d (body space, fit phase only)
v -0.004163166 0.672015667 0.036951639
v -0.111274943 0.693444431 0.073501676
v -0.003970696 0.686163902 0.039968424
v -0.000584056 0.938279033 0.080715001
v -0.159688056 0.679461122 0.063068695
v 0.002305788 0.952350318 0.087503672
v -0.003783188 0.714125514 0.045271680
v -0.003818475 0.700086653 0.043343287
v -0.160897478 0.695527673 0.064288273
v 0.140736461 0.952902913 -0.098833516
v -0.179965481 0.691850841 0.056295969
v -0.195099488 0.693981528 0.039298981
v -0.203059956 0.694977820 0.022694055
v -0.171827048 0.689363897 -0.074491240
v 0.012252201 0.661049128 -0.060950704
v -0.154058516 0.685490072 -0.081567205
v 0.027077023 0.660501361 -0.062931910
v -0.136895388 0.685480297 -0.089365453
v -0.120109096 0.688981235 -0.097935796
v 0.200833082 0.654953778 0.012641127
v -0.000760548 0.910473168 0.069345519
v -0.000897161 0.895872891 0.067668110
v -0.101869486 0.683840156 -0.098123081
v -0.087616459 0.689888537 -0.094326124
v 0.098315611 0.849276364 -0.139272884
v -0.072984681 0.698012233 -0.090807080
v -0.127901465 0.918874443 -0.126873925
v -0.132456765 0.847915649 0.061627202
v 0.041406322 0.744635224 -0.092233978
v -0.145300716 0.857764840 0.054765951
v 0.071010172 0.877495289 -0.149154395
v -0.180541009 0.839039981 0.037441131
v 0.088884406 0.819166958 -0.118924007
v -0.205967218 0.688978314 -0.031448074
v 0.074690238 0.810023189 -0.114180997
v -0.151768193 0.924059987 -0.101961531
v -0.169166610 0.923166275 -0.061622255
v 0.013578306 0.799769282 0.051750772
v -0.170444250 0.927763283 -0.042167012
v -0.074453361 0.915466964 -0.145253092
v -0.027558099 0.899838150 0.066878185
v 0.013970135 0.709315062 -0.079103924
v -0.017743636 0.881923854 0.065415442
v 0.063480742 0.748554111 -0.097725905
v -0.037954923 0.883544087 0.064635605
v -0.167980194 0.933687031 -0.023470182
v -0.166448861 0.919944465 -0.010210872
v 0.073491715 0.766264260 -0.102857389
v -0.158907667 0.923506737 0.007890087
v -0.043026332 0.690439761 0.047160096
v 0.055732429 0.858036041 0.060610671
v -0.064582109 0.691616356 0.054610025
v -0.077732183 0.766005278 0.065152384
v 0.057110202 0.823973536 0.059221268
v -0.085637204 0.691439688 0.063068755
v 0.103906512 0.831020534 -0.123860501
v -0.101220153 0.764381528 0.074530758
v -0.172516763 0.774556696 0.064468011
v 0.120349824 0.844019592 -0.125775382
v -0.199143738 0.773276448 0.033049934
v 0.084066972 0.751278937 -0.103951827
v 0.103957012 0.748167932 -0.109447181
v -0.189595610 0.848649859 0.019490752
v -0.182051882 0.865133584 0.016006231
v -0.209164694 0.770204842 -0.032660954
v -0.198564187 0.763586164 -0.056273930
v -0.187816054 0.773056269 -0.072837934
v 0.008707732 0.669976354 0.043766119
v 0.013456672 0.659437954 0.034887716
v -0.172922224 0.760733008 -0.088503078
v 0.028692234 0.659325182 0.037724838
v -0.116443135 0.767501354 -0.115257025
v 0.043462854 0.658837199 0.042544849
v -0.019188790 0.796083033 -0.102215968
v 0.057961822 0.658371627 0.048152965
v -0.093448393 0.918274403 -0.141531289
v 0.071915217 0.657861352 0.054862071
v -0.110264979 0.920010269 -0.134251609
v 0.086096086 0.657514095 0.060832150
v -0.119067810 0.906601906 -0.134642690
v 0.100195959 0.657177806 0.066574797
v -0.134334773 0.933158278 -0.115313813
v 0.114061296 0.656757176 0.072214663
v -0.165706322 0.894022763 -0.083812416
v 0.129574046 0.656422496 0.073738180
v 0.043883469 0.788316369 0.057962496
v -0.133654118 0.921249032 0.044774223
v -0.123062655 0.842976749 -0.122491322
v -0.161212847 0.722651303 0.066012576
v 0.141989216 0.656312525 0.068109229
v -0.141048372 0.851943314 -0.113549814
v -0.017921675 0.845175862 0.055542666
v 0.155235261 0.656773150 0.062283725
v -0.037623029 0.848040938 0.057340074
v 0.168591291 0.656653404 0.056767810
v -0.024109684 0.863695025 0.061461352
v 0.181829840 0.656272590 0.050972946
v -0.017587097 0.915503025 0.069161817
v 0.189172730 0.656147182 0.038317062
v -0.061400127 0.928764939 -0.140187919
v 0.195513755 0.655681551 0.025760662
v 0.027107975 0.796564698 -0.103170320
v -0.086440377 0.899931788 -0.147636041
v -0.110412166 0.730882883 0.075975090
v 0.037629183 0.770527244 0.055861872
v 0.057660747 0.810274124 -0.112657987
v -0.116853252 0.890046418 -0.136855066
v -0.143609613 0.719048500 0.072081164
v 0.129348084 0.808571517 -0.112895213
v -0.132455662 0.880379319 -0.129305795
v 0.134707496 0.855233848 -0.120326735
v 0.141071796 0.839205444 -0.110430419
v 0.143030137 0.820209205 -0.107000925
v -0.167270392 0.739281952 0.065528527
v -0.146783054 0.871289253 -0.117851391
v 0.200963944 0.654221117 -0.001355483
v 0.201033682 0.653354645 -0.014410677
v -0.198796719 0.731260359 0.036970623
v 0.149425536 0.856233299 -0.109013483
v -0.159780025 0.882792175 -0.101840816
v -0.173805848 0.882858098 -0.065861695
v -0.174957961 0.894041181 -0.051333796
v -0.055446953 0.868418515 -0.146967441
v 0.158338636 0.744144320 -0.092017666
v -0.157661259 0.882587314 0.033548024
v -0.172832891 0.880550683 0.015371287
v -0.113396131 0.873634517 0.053887837
v -0.123182490 0.888667107 0.048837416
v 0.200376481 0.652877092 -0.028563136
v -0.019957403 0.859683990 -0.138620973
v 0.192907602 0.652546167 -0.040729899
v -0.039123166 0.855677903 -0.140397951
v 0.185279712 0.651920497 -0.052739363
v -0.024057606 0.752546251 -0.091269508
v 0.176668093 0.651233077 -0.064182729
v -0.100403808 0.926652074 0.052345086
v 0.163907334 0.650921464 -0.071512975
v -0.082539514 0.921609998 0.060371656
v 0.150705725 0.650503457 -0.077235475
v -0.020934705 0.844138324 -0.131847203
v 0.137101427 0.649959564 -0.082125559
v 0.160842314 0.847407937 -0.097368583
v -0.022422154 0.829707503 -0.122030638
v 0.124330834 0.650112450 -0.086508557
v -0.041429002 0.839058101 -0.132703558
v -0.173418373 0.854014039 -0.087690063
v 0.110585630 0.650327325 -0.091081142
v -0.132512465 0.938729167 0.040215924
v 0.096227795 0.652245641 -0.086698703
v -0.028631261 0.775057852 -0.096862115
v 0.082870707 0.654294193 -0.081090562
v 0.145463198 0.803164661 -0.105703846
v 0.069140188 0.656073928 -0.076138601
v -0.103256688 0.807742000 -0.114594124
v 0.055363514 0.657776773 -0.071142748
v -0.062712446 0.735406578 -0.095404603
v 0.041510217 0.659430861 -0.066225603
v 0.046561290 0.888917446 0.064204469
v -0.183722407 0.825600505 -0.080483302
v -0.207113102 0.696362078 -0.011087942
v 0.159290820 0.828705132 -0.099943802
v -0.198525935 0.843717456 -0.034487490
v -0.205234408 0.812100112 -0.023537382
v 0.179149836 0.738221288 -0.079449341
v -0.206251308 0.800333619 -0.042124640
v -0.002719838 0.687421322 -0.070602328
v 0.016173963 0.676439226 -0.067584857
v -0.002833123 0.674194872 -0.065444022
v -0.002514311 0.700708032 -0.075636305
v 0.162679479 0.868537426 -0.095720544
v -0.196959078 0.803200901 -0.061258238
v -0.002355335 0.714267254 -0.079939760
v -0.002216448 0.727934182 -0.084049240
v -0.209345013 0.799639344 -0.003296094
v -0.001999078 0.741817117 -0.087626062
v 0.175144300 0.836865783 -0.091254465
v -0.174609557 0.797533154 -0.093216315
v -0.108729601 0.668897748 -0.096590154
v -0.199180543 0.808235288 0.022689652
v 0.189651012 0.754549444 -0.067257717
v -0.197432309 0.791112602 0.034124251
v -0.089472190 0.793786347 -0.110698201
v -0.075745210 0.781428933 -0.106119052
v 0.176616549 0.853404343 -0.081946991
v -0.043340415 0.824802995 -0.121065833
v -0.000026369 0.835349858 -0.124731697
v 0.000189187 0.847570777 -0.132262066
v -0.093713939 0.906507313 0.055650793
v 0.000428009 0.860786259 -0.137659252
v -0.111846469 0.901122391 0.049565893
v 0.185596168 0.832577348 -0.074622557
v -0.101247571 0.888105392 0.053888272
v 0.000585606 0.874633431 -0.141144454
v -0.114050105 0.916932762 0.045726538
v -0.153849840 0.797769070 0.068061389
v 0.000715864 0.888929546 -0.141455516
v -0.109404266 0.941298127 0.058404904
v 0.175916746 0.873204887 -0.069833100
v 0.177629024 0.672978520 0.055252921
v 0.000800048 0.903197169 -0.140019685
v -0.121380806 0.931727707 0.052820623
v 0.000856603 0.917346299 -0.137145579
v -0.139569640 0.892094016 0.038317628
v 0.196051687 0.827222943 -0.056467086
v -0.145080388 0.910430253 0.036440518
v -0.201260760 0.840602875 0.000900080
v 0.000913159 0.931234062 -0.132822171
v -0.145038232 0.943390846 0.028763521
v -0.142439708 0.926005661 0.024048245
v -0.156871229 0.940761209 0.013044009
v -0.134947449 0.790887475 0.073865287
v 0.030521259 0.950218379 0.085263327
v 0.015996687 0.950832725 0.086236723
v 0.177782372 0.887224972 -0.048622321
v -0.000640494 0.924658477 0.073792502
v -0.162553102 0.938085854 -0.006132717
v 0.188215628 0.865798593 -0.046445660
v -0.166730940 0.943958104 -0.036863241
v -0.164918303 0.940606892 -0.053708486
v -0.071324959 0.717039227 -0.093990311
v 0.045013361 0.950486183 0.082965419
v 0.183896378 0.877595782 -0.029601980
v 0.198616445 0.841978669 -0.037439503
v -0.162355006 0.938517749 -0.071188189
v -0.144634247 0.941517234 -0.102160253
v -0.116953455 0.935149848 -0.126273781
v -0.146737888 0.891583920 -0.115970157
v -0.101328410 0.719114363 -0.104912952
v 0.073873654 0.951134980 0.076835588
v 0.059494086 0.950832367 0.080172464
v -0.098358117 0.884897053 -0.144184068
v -0.001045308 0.881373107 0.065905638
v -0.104155958 0.902958393 -0.141536474
v 0.192769051 0.859112740 -0.024360526
v -0.119884625 0.710049212 -0.103699088
v 0.088086858 0.951192737 0.073278897
v -0.026134148 0.760286868 0.053310297
v -0.028691005 0.676059604 0.038919613
v 0.180432379 0.886887729 -0.014038561
v -0.182876036 0.878148079 -0.042332374
v -0.039243989 0.717711389 0.049664438
v 0.102240659 0.950884640 0.069622144
v 0.210790366 0.761321306 0.001093261
v -0.052658588 0.674763024 0.046858728
v 0.210241035 0.760490298 -0.017722812
v 0.187967420 0.871790767 -0.008859148
v 0.200144500 0.841038883 -0.012307283
v -0.055816185 0.728650928 0.055306274
v -0.076139703 0.674833715 0.057748973
v -0.098738641 0.676326156 0.067006238
v -0.093063816 0.721704364 0.068460703
v 0.184998408 0.862892807 0.014407158
v -0.095039085 0.705976605 0.068049669
v 0.195256859 0.856852412 -0.004122101
v -0.047518428 0.867107093 0.060927410
v 0.087714180 0.884761631 0.057495605
v -0.111128785 0.713392317 0.074952930
v 0.069688328 0.822380900 -0.121360816
v -0.120516613 0.675086081 0.075712748
v -0.199772850 0.732135773 -0.050397087
v -0.128967434 0.724346936 0.078085303
v -0.139516920 0.689964473 0.072513312
v 0.062414635 0.832174957 -0.131292775
v 0.150245324 0.904244781 0.022325572
v -0.131125107 0.706671953 0.076511785
v -0.205400616 0.718457818 -0.040314384
v -0.143217534 0.672744155 0.069022298
v 0.197225884 0.844211698 0.011703064
v 0.193701342 0.829546154 0.022563823
v -0.126647949 0.904858947 0.039776932
v -0.150798470 0.706899524 0.068744078
v -0.175233155 0.673514545 0.055788778
v 0.170782536 0.876137912 0.022150204
v 0.172472656 0.858838558 0.034019690
v -0.182177171 0.726436079 0.058862694
v -0.172207519 0.709341109 0.060705595
v 0.172070161 0.842405200 0.047563616
v -0.189866543 0.676682651 0.044164918
v 0.141744360 0.910406947 0.041398227
v -0.191845819 0.710869312 0.048826154
v 0.206287891 0.757284880 0.022527549
v -0.046139676 0.950624764 0.083145790
v -0.201197222 0.711320817 0.029457208
v -0.021032494 0.934349656 0.074960165
v 0.160314351 0.872160792 0.039193578
v -0.154093891 0.898636162 0.030009473
v 0.196987525 0.752377152 0.042343192
v -0.150584131 0.909187198 0.016938627
v -0.207829505 0.705347419 0.009124114
v 0.169298261 0.826161861 0.058954604
v -0.160848483 0.893675208 0.014698608
v 0.023600362 0.873129010 -0.141667083
v 0.024572929 0.892508328 -0.142497957
v 0.145635217 0.868996978 0.050750453
v -0.023514811 0.930615127 -0.135007843
v 0.158052847 0.856592000 0.052663811
v -0.209010869 0.723988235 0.014319534
v -0.018221071 0.912435710 -0.139459759
v 0.023702748 0.785565138 0.054841477
v -0.017904678 0.698542416 -0.075309232
v -0.038424708 0.918017864 -0.141718552
v 0.128037572 0.875419259 0.050579708
v -0.043183662 0.934711456 -0.137016490
v -0.164614826 0.906910539 0.002880437
v 0.149151519 0.838165402 0.061949082
v -0.175119370 0.892090321 0.000657345
v 0.134286985 0.822568059 0.069685236
v -0.174565747 0.896943271 -0.033451915
v -0.181016654 0.885648727 -0.019115712
v 0.134853393 0.857449353 0.057752609
v -0.170866758 0.901981056 -0.015017462
v 0.113958038 0.829120278 0.072226338
v -0.204371497 0.676667571 -0.016349547
v -0.208624601 0.714760303 -0.006168549
v 0.102654852 0.748409629 0.074630558
v 0.124785341 0.748243868 0.079865158
v 0.101731837 0.788359940 -0.111951888
v 0.083125487 0.933285534 0.061706495
v -0.020711895 0.716564655 0.046261959
v 0.115426078 0.951645017 0.064516239
v -0.174003229 0.910862565 -0.047536887
v 0.132224083 0.764742434 0.077154763
v 0.108792685 0.865525544 0.058572985
v -0.208873913 0.722277105 -0.021273710
v -0.173760071 0.904197037 -0.067598909
v 0.126955122 0.953219533 0.057791673
v -0.157671735 0.904276073 -0.101864137
v 0.124605313 0.843251586 0.065600678
v -0.062239181 0.821290791 -0.120291159
v 0.091126807 0.765376449 0.071010076
v -0.199630558 0.672295809 -0.037212867
v 0.093094587 0.829314113 0.072425738
v -0.207902044 0.706527710 -0.026023347
v -0.192543119 0.714065313 -0.056288648
v -0.188826770 0.668400645 -0.052117903
v 0.071411118 0.761051238 0.063820325
v 0.102402866 0.847343564 0.069057330
v -0.064341538 0.795373380 -0.107175335
v 0.083436109 0.841805160 0.067313433
v -0.193717659 0.684342563 -0.048864055
v -0.185573176 0.727210164 -0.068663821
v 0.057385188 0.773826361 0.060353626
v -0.078202493 0.810242355 -0.114587069
v -0.179316714 0.674795985 -0.065840855
v 0.019820247 0.838409901 -0.128116056
v 0.081889503 0.861231923 0.062092680
v 0.064375184 0.877342880 0.061364193
v -0.180037215 0.708504081 -0.072027355
v 0.134785682 0.954911351 0.045233235
v 0.020217096 0.736201167 -0.087309368
v 0.021489855 0.721608877 -0.083565131
v -0.161248475 0.671133280 -0.076124914
v 0.145812377 0.953489482 0.035910092
v -0.125264302 0.809237123 -0.115000203
v 0.153517023 0.954200089 0.023562847
v -0.151195124 0.714173913 -0.089953251
v 0.045782391 0.901218295 -0.145411789
v -0.163352132 0.703218639 -0.081616931
v 0.159545630 0.955158055 0.010323167
v 0.033959951 0.761269391 -0.094626740
v 0.037177868 0.779134810 -0.098794989
v -0.138726547 0.796109796 -0.108835995
v 0.163573012 0.955860734 -0.003666656
v -0.142868102 0.813367724 -0.107589819
v -0.100140475 0.934712112 -0.132791430
v -0.039049920 0.920601547 0.067999229
v 0.165284947 0.956128001 -0.018136581
v -0.142868608 0.668827593 -0.083750464
v -0.157585755 0.805297017 -0.100919425
v -0.148086667 0.698382080 -0.087745756
v -0.143058807 0.912015140 -0.115287282
v 0.164548308 0.956035137 -0.031785052
v -0.173159361 0.815776050 -0.094400659
v 0.033718400 0.708264112 -0.081210509
v -0.125771984 0.670269310 -0.091362603
v -0.186357319 0.808953643 -0.077953488
v 0.161528632 0.955273151 -0.045919605
v -0.133709490 0.899320960 -0.128235430
v 0.157991618 0.954541564 -0.059834976
v -0.193546131 0.824538410 -0.062527955
v -0.134575188 0.703352511 -0.095222518
v 0.183293551 0.787094235 0.059690647
v 0.154044688 0.954234898 -0.073546529
v -0.203006819 0.814573109 -0.047196157
v 0.048030023 0.795657039 -0.104883894
v -0.092081487 0.671608031 -0.090930767
v -0.019525396 0.681551337 -0.069224775
v 0.147570550 0.953192532 -0.086352736
v -0.200971872 0.829016685 -0.040037442
v 0.184771866 0.844265163 0.029480796
v -0.020715643 0.744684279 0.050332177
v 0.130049750 0.951632380 -0.108373091
v 0.183206707 0.823104680 0.040252350
v -0.065889977 0.819310665 0.061145555
v -0.102661088 0.700317025 -0.101660587
v -0.073791616 0.677495718 -0.085272327
v 0.053876232 0.710551262 -0.086509928
v -0.086860947 0.708821297 -0.097807489
v -0.056910861 0.692327678 -0.082775973
v -0.054526519 0.675012589 -0.076621845
v 0.074812755 0.734318137 -0.098909914
v 0.060113262 0.780665517 -0.102520369
v -0.186161757 0.802834690 0.046761170
v 0.044883069 0.838951290 0.057927370
v 0.037288137 0.821043849 0.054636322
v -0.183442742 0.820859611 0.040942889
v 0.031712253 0.802946210 0.053696692
v -0.026300142 0.813078523 -0.111039415
v 0.097778097 0.767759681 -0.109830201
v -0.169057012 0.832182288 0.056897074
v -0.055583350 0.721499801 -0.089560106
v -0.060242973 0.707410932 -0.088202529
v 0.105701700 0.724984765 -0.107098565
v -0.166555688 0.812681079 0.061927237
v -0.037174590 0.692497611 -0.076012537
v 0.119639024 0.951129794 -0.116508022
v 0.123558618 0.741773605 -0.108559050
v -0.044578489 0.709576011 -0.083495706
v -0.146433443 0.824114323 0.065596722
v -0.039936710 0.733538508 -0.088860385
v 0.106931724 0.950049698 -0.122960046
v -0.026220787 0.714103699 -0.081294626
v 0.114640519 0.703995943 -0.104065262
v -0.205842182 0.687909782 0.005473656
v -0.198797971 0.677749336 0.025516104
v 0.139191538 0.738506079 -0.100409485
v -0.139014423 0.807780862 0.070493832
v -0.122468367 0.817924678 0.073383078
v 0.119882718 0.777963996 -0.115131415
v -0.069494002 0.870254993 0.060725689
v -0.060574271 0.951406300 0.080218606
v -0.113703474 0.798436582 0.078527018
v 0.139538139 0.772456706 -0.106054023
v -0.099137738 0.813478589 0.075171679
v -0.081075676 0.855763316 0.063631572
v 0.174324244 0.778023720 -0.090383038
v -0.087533429 0.797202587 0.070323840
v 0.112610638 0.887928367 -0.138518304
v -0.072030447 0.837641239 0.063544989
v -0.093528472 0.843563735 0.071069375
v 0.187584221 0.772684813 -0.072628051
v -0.086610816 0.826586604 0.068678573
v 0.185512677 0.724031329 -0.067492440
v 0.193311200 0.737045527 -0.059670828
v -0.081375830 0.811422467 0.066466942
v -0.066247396 0.800636411 0.062060885
v -0.108020864 0.830756068 0.072657250
v -0.026253590 0.811792493 0.052256308
v -0.114658833 0.846138000 0.066428095
v -0.103061751 0.859207928 0.062741220
v 0.199204803 0.770190299 -0.054929931
v 0.209763840 0.746481359 -0.029880807
v -0.058968730 0.851453483 0.060454864
v -0.128790379 0.833917141 0.067168504
v -0.042963535 0.747191370 0.054217089
v -0.124616623 0.860715568 0.058356233
v 0.202591375 0.751274109 -0.049788192
v -0.138380378 0.875096202 0.049327783
v 0.210280031 0.744758010 -0.010130769
v -0.165509537 0.849967122 0.049892705
v 0.209744304 0.781206727 -0.014769812
v -0.148818672 0.841063678 0.060578484
v -0.059220087 0.886170864 0.062002856
v -0.159862965 0.866559684 0.044041559
v 0.208228663 0.711173892 -0.005900869
v -0.061984766 0.919860244 0.064344436
v -0.000462976 0.811176479 -0.108790755
v -0.057976019 0.936552405 0.069479093
v -0.169486418 0.870076060 0.028622422
v -0.194345504 0.829188049 0.021359082
v -0.040894724 0.939052939 0.074357912
v -0.000240278 0.823493481 -0.116470613
v -0.089131400 0.952587903 0.072831228
v -0.205362946 0.820359886 0.000222823
v 0.077801257 0.860524058 -0.146137297
v 0.115135811 0.924610734 -0.130441234
v -0.186138242 0.876824260 -0.000806727
v -0.074917197 0.952097118 0.076767281
v 0.210643202 0.778743505 0.011357207
v 0.092704870 0.948947728 -0.126741558
v -0.171930984 0.915277183 -0.028409014
v 0.202227384 0.792341352 0.025824511
v -0.201662391 0.831988037 -0.018490275
v -0.196938321 0.851436615 -0.018213011
v -0.188843712 0.868440986 -0.020659601
v 0.078039944 0.948184371 -0.129375413
v 0.204414770 0.825197339 0.004098800
v 0.063046098 0.947686076 -0.130888864
v -0.081103995 0.888028264 0.059881143
v -0.014727886 0.893422902 -0.141936392
v 0.193074912 0.784333706 0.042789042
v 0.047936715 0.947086990 -0.131202415
v 0.057879888 0.934643745 -0.137565851
v 0.205672115 0.704656839 0.019508623
v -0.075618394 0.937348545 0.065356530
v -0.018886045 0.876597047 -0.142291531
v -0.194518581 0.844507337 -0.055096842
v -0.163460404 0.917873085 -0.083069853
v -0.091138400 0.872387707 0.058466475
v 0.032337811 0.946424603 -0.130371198
v -0.184391946 0.842143238 -0.073696792
v 0.016719528 0.945447743 -0.128287420
v -0.156163946 0.843252301 -0.101575717
v 0.188702852 0.711037993 0.054341991
v -0.173427179 0.835240662 -0.093679696
v 0.016749609 0.934552014 -0.132378757
v 0.000938123 0.944156289 -0.125902370
v 0.189483941 0.767867923 0.052959979
v 0.181412071 0.746979415 0.061807763
v 0.082550079 0.831624508 -0.132605851
v 0.016083611 0.929598331 0.073485576
v -0.157944083 0.862722874 -0.101186410
v -0.156684965 0.824378788 -0.101717077
v -0.155245677 0.938402295 -0.087638661
v 0.068026222 0.845157981 -0.142706320
v 0.167370200 0.765875638 0.066433482
v -0.136903316 0.831073642 -0.111025654
v -0.045875974 0.659644425 -0.068114229
v -0.106624141 0.834451497 -0.127866000
v -0.059355050 0.658274770 -0.073167972
v -0.072804771 0.656876743 -0.078199096
v -0.115580857 0.824749112 -0.118338630
v 0.146135941 0.754206479 0.072936460
v 0.160374016 0.740324080 0.068592951
v -0.086162448 0.655370355 -0.083247408
v 0.152858391 0.718669832 0.069052368
v -0.112990543 0.871758461 -0.138799712
v 0.035730559 0.924288630 0.069231555
v 0.022399511 0.912220597 0.068359271
v -0.099134333 0.653527439 -0.088857576
v 0.147958770 0.775832891 0.072562687
v -0.106055900 0.851662934 -0.137782812
v 0.129687771 0.780119836 0.076897949
v 0.138260543 0.733151972 0.075706981
v -0.113443457 0.652275622 -0.091115549
v -0.001314281 0.853530407 0.058340065
v -0.001453305 0.839874864 0.054223347
v -0.088797763 0.834473252 -0.135386318
v -0.126673326 0.652380228 -0.086708874
v -0.076055802 0.881227314 -0.148794800
v -0.095074907 0.822945297 -0.121521473
v -0.139246494 0.652398169 -0.082498744
v -0.152361929 0.653167903 -0.077373311
v -0.165326744 0.653677344 -0.071832754
v -0.048011146 0.829634011 0.057081938
v -0.024525559 0.829655528 0.053930152
v 0.085185945 0.750276923 0.067706816
v 0.088657841 0.733725250 0.068020336
v -0.177461714 0.654228568 -0.064202890
v -0.186032116 0.655110657 -0.053118367
v -0.027640676 0.777348638 0.054444741
v 0.070486978 0.742956042 0.061936308
v 0.051242620 0.754194856 0.057879757
v -0.193548247 0.655919909 -0.041475359
v -0.072956488 0.862783074 -0.147302061
v 0.077026598 0.778289616 0.066093758
v -0.200857371 0.656428516 -0.029748032
v -0.051521294 0.767205298 0.058095284
v 0.029897783 0.753186047 0.053784661
v -0.031341914 0.731379867 0.050223984
v -0.092803635 0.866299510 -0.145358592
v 0.027016331 0.715119600 0.048401110
v -0.064885773 0.748938739 0.059958082
v 0.069118306 0.809219480 0.062956385
v -0.031513032 0.703917205 0.046756770
v -0.053044029 0.707099855 0.052496932
v -0.053682454 0.887474239 -0.147209316
v -0.068978682 0.898155868 -0.148938447
v -0.070592433 0.783115625 0.063777663
v -0.054261047 0.907921135 -0.146625593
v 0.090897426 0.891614437 -0.146766439
v -0.201610357 0.657036066 -0.015941143
v 0.081830904 0.795552015 0.068440512
v -0.074234404 0.711415470 0.060260165
v -0.094173208 0.780947566 0.072333895
v 0.097242847 0.871969402 -0.144341558
v -0.076962546 0.732657075 0.062814355
v -0.086502798 0.750359893 0.067741200
v -0.071426988 0.903996825 0.062301166
v 0.072233580 0.715344965 -0.093630776
v -0.049252186 0.902619362 0.065258011
v 0.099290513 0.800312042 0.075841144
v -0.094923288 0.736907601 0.070197634
v 0.134184673 0.886714101 -0.127752036
v -0.201571748 0.657577872 -0.003058708
v -0.026665008 0.794420540 0.053553879
v 0.091458939 0.706561685 -0.098541439
v -0.197253078 0.659128845 0.023090474
v -0.128177762 0.760390818 0.078142777
v 0.087139383 0.723034084 -0.100302696
v -0.191045672 0.659575582 0.035433847
v -0.108275734 0.748041630 0.076267503
v 0.116273060 0.790689230 0.079101004
v 0.119621471 0.809410393 0.075992838
v 0.124706328 0.905571282 -0.132225320
v -0.185023949 0.659545541 0.048005998
v -0.117760345 0.778934836 0.079763122
v -0.172674611 0.659578860 0.054970853
v -0.129360288 0.741906524 0.078216776
v -0.159612417 0.659548402 0.060408436
v -0.146489397 0.658903539 0.065960191
v -0.137225196 0.775807500 0.075048603
v -0.148998439 0.749916911 0.071689233
v -0.134284616 0.658762753 0.071530208
v 0.138347894 0.798287213 0.072538421
v -0.152460381 0.766292810 0.070530251
v -0.119215325 0.658565998 0.073863685
v -0.105658293 0.658703506 0.068392977
v 0.132489949 0.698341608 -0.094439380
v -0.154559717 0.782736123 0.069701053
v 0.176590830 0.808188260 0.058928482
v 0.133464634 0.712201834 -0.097715259
v 0.150401935 0.936124146 -0.099395916
v -0.091875032 0.658658087 0.062816150
v -0.146827698 0.733640969 0.072301939
v -0.077933423 0.658573687 0.057172179
v 0.125170439 0.937913239 -0.120910846
v -0.064027652 0.658577085 0.051109631
v -0.050473344 0.658752501 0.044182811
v 0.189510271 0.802483082 0.041765530
v 0.142392218 0.903637111 -0.118597627
v -0.036448769 0.658935070 0.038340896
v -0.021849234 0.658705294 0.034692302
v -0.172262445 0.793434322 0.063646890
v -0.018175635 0.669544935 0.043514568
v -0.170750797 0.756787360 0.064671144
v 0.148012415 0.708025634 -0.089777067
v 0.153088570 0.886911511 -0.109740362
v 0.198039263 0.811866641 0.023328763
v -0.188755259 0.783432603 0.050371945
v -0.190696120 0.745083690 0.055122234
v -0.190450162 0.764884591 0.051846910
v -0.040868532 0.794326842 -0.103494488
v 0.164021119 0.703758717 -0.080863379
v 0.203642771 0.821595550 -0.016771745
v 0.146044508 0.919897556 -0.109388426
v 0.014222100 0.825029016 -0.117910519
v -0.051255397 0.809647262 -0.111722067
v 0.068380125 0.796298862 -0.107833683
v -0.048354723 0.787878871 0.057990380
v 0.208896160 0.802170634 0.000628527
v -0.200612545 0.753569484 0.034584794
v -0.207832530 0.785988212 0.016227474
v -0.174966455 0.855716527 0.032961465
v 0.181694523 0.706900716 -0.068901055
v -0.210104018 0.744067311 0.015191639
v 0.116775893 0.933553100 0.051887639
v 0.206979707 0.802385688 -0.025209701
v -0.210351199 0.765023172 0.013973284
v -0.210468367 0.776928782 -0.007675281
v -0.208604291 0.789807677 -0.025711190
v 0.191329494 0.698741436 -0.054219533
v 0.207673401 0.786349177 -0.039887175
v -0.210006446 0.733988702 -0.005943564
v -0.194400176 0.859766781 -0.000458315
v 0.156738326 0.904041946 -0.102748692
v -0.031537794 0.950401485 0.085023828
v 0.202356100 0.805816770 -0.050459944
v 0.190018877 0.809662223 -0.071463637
v -0.080856256 0.848913491 -0.143457040
v -0.058188785 0.850301743 -0.142901242
v 0.194687858 0.717475832 -0.053498000
v -0.210602805 0.754747808 -0.012413783
v 0.200810149 0.689391375 -0.039838009
v 0.196684927 0.789036989 -0.060740858
v -0.014855765 0.945560634 -0.128082171
v -0.030487705 0.946732044 -0.130156472
v 0.165600464 0.889059663 -0.087817550
v 0.017386194 0.816777050 0.051883668
v -0.046017978 0.947644114 -0.131075174
v -0.047306012 0.807445407 0.056250863
v 0.186595723 0.789733410 -0.077686585
v 0.175913334 0.798986375 -0.092056356
v -0.061246283 0.948237419 -0.130832925
v 0.165217727 0.909358501 -0.084373750
v -0.209356382 0.736647844 -0.028579231
v -0.076262653 0.948899269 -0.129364073
v -0.082426563 0.932710946 -0.137942806
v -0.191520154 0.859625459 -0.040115312
v -0.090705082 0.949814141 -0.126820460
v -0.104703866 0.951149344 -0.123256460
v 0.156637922 0.787489712 -0.099987015
v -0.200905472 0.783391356 -0.053797208
v -0.182947412 0.862663567 -0.064583316
v -0.168334991 0.872854352 -0.083464868
v -0.208298355 0.750766814 -0.042810552
v 0.172290936 0.897707760 -0.067502514
v 0.161631659 0.939997017 -0.071301408
v -0.199401394 0.701284587 -0.044771634
v 0.050582834 0.806176007 0.057575483
v 0.135932341 0.789836526 -0.109167494
v -0.063864820 0.833997726 -0.133663803
v -0.188400209 0.790740907 -0.075405777
v 0.166689694 0.935719669 -0.055530954
v -0.077497371 0.824619412 -0.125188768
v -0.186289936 0.695465326 -0.060795914
v 0.118905947 0.795113981 -0.116269909
v -0.193147093 0.744675636 -0.062236864
v -0.175152063 0.740824342 -0.083722197
v 0.169531077 0.934381187 -0.038397070
v -0.185816094 0.756602108 -0.073008746
v -0.174303979 0.779016435 -0.091178320
v 0.174531788 0.897627711 -0.028916717
v -0.169150859 0.721335053 -0.082574606
v -0.019188449 0.731525481 -0.085626520
v 0.082223408 0.783036590 -0.107033744
v -0.117265984 0.952365279 -0.117075384
v -0.127975389 0.953154743 -0.108877853
v -0.156261921 0.787135005 -0.100647092
v -0.155226260 0.768812299 -0.098370634
v -0.155368745 0.750262260 -0.094971530
v -0.154316962 0.731851578 -0.092143878
v -0.128347158 0.860445023 -0.128439039
v 0.065375596 0.841802895 0.062615335
v 0.207196280 0.709779024 -0.034766551
v -0.145922989 0.954889417 -0.087106697
v -0.152516007 0.955734074 -0.074474156
v 0.209071085 0.727920830 -0.021659177
v -0.002891733 0.660950601 -0.060387455
v -0.157963529 0.956650853 -0.061282467
v 0.171591759 0.900968373 -0.007063384
v -0.161650166 0.957279563 -0.047440983
v -0.164460808 0.957839668 -0.033297691
v -0.166184440 0.958140552 -0.019813968
v 0.202750131 0.820143878 -0.037157472
v 0.166730270 0.939083278 -0.023331482
v -0.164099842 0.958007813 -0.005409245
v -0.160776407 0.957444847 0.008793680
v -0.156354979 0.956420422 0.022919064
v 0.050265979 0.823884368 -0.121500097
v -0.148265421 0.955254734 0.035086546
v 0.163449198 0.934625268 -0.007980646
v -0.138420835 0.954970539 0.045862403
v -0.136146978 0.721744955 -0.099006042
v 0.163718641 0.894292057 0.011379290
v 0.017323937 0.767181993 -0.094355792
v -0.001710831 0.755766034 -0.091184109
v -0.001448300 0.769961655 -0.094293959
v 0.138023347 0.936354756 -0.110493220
v -0.136973545 0.740166128 -0.102164611
v -0.001016062 0.784241676 -0.097721264
v -0.136518806 0.777726412 -0.108468786
v 0.015744081 0.783153534 -0.098099157
v -0.000706863 0.798076928 -0.102425575
v -0.127938077 0.954392076 0.056065075
v 0.160771191 0.809806049 -0.099106714
v 0.156459659 0.935482681 0.008327229
v -0.119940199 0.729121327 -0.108545147
v -0.116617918 0.953242481 0.063428454
v -0.103254005 0.952785611 0.068795413
v 0.143688738 0.923157871 0.022959609
v 0.046452228 0.882448375 -0.145999253
v -0.136726215 0.758824944 -0.105364263
v -0.114435948 0.789133191 -0.115892887
v 0.148894191 0.941142380 0.022509415
v -0.118804850 0.747999370 -0.112172045
v 0.157407239 0.887210369 0.028740114
v -0.099096991 0.738066077 -0.107488811
v -0.002216572 0.797771692 0.051396806
v -0.092487536 0.939489484 0.060933668
v 0.132426485 0.940771401 0.049146533
v 0.135158449 0.925721765 0.045884337
v 0.136859357 0.939508617 0.033987641
v -0.083445549 0.727994680 -0.100673690
v -0.096635506 0.756778359 -0.108627997
v -0.078035451 0.746483564 -0.102086052
v 0.047415443 0.723182797 0.053625442
v -0.095493741 0.775568902 -0.110240683
v 0.049157139 0.918955505 -0.142418966
v -0.074519053 0.764821887 -0.103273705
v 0.026173633 0.910197914 -0.140435189
v -0.037503682 0.874114335 -0.144883782
v -0.034648754 0.896233261 -0.144198671
v 0.208512112 0.723168969 0.015943628
v 0.193046212 0.731749892 0.048859768
v -0.050551105 0.755495131 -0.095925525
v -0.054550879 0.777205944 -0.101086602
v -0.138690650 0.954664350 -0.099364229
v 0.148226216 0.896494865 0.038745303
v 0.130077556 0.893613458 0.042478669
v -0.203581721 0.672107577 0.004349058
v 0.167237312 0.703908801 0.062616296
v 0.173883706 0.725305021 0.062269650
v -0.203185111 0.658740878 0.010557389
v 0.118538126 0.911549568 0.044683643
v -0.035580117 0.674368024 -0.069467887
v -0.032033227 0.660667837 -0.063962638
v 0.014423656 0.698121130 0.043818355
v -0.017736044 0.661245584 -0.061083794
v -0.005448044 0.945608497 0.093693420
v 0.064992525 0.911652207 -0.146484181
v -0.017089762 0.949965596 0.086963415
v -0.022678819 0.690858245 0.042953048
v 0.131818682 0.712756276 0.076809362
v 0.031375825 0.939181805 0.076130845
v 0.084596112 0.676258445 0.061731558
v 0.073106036 0.688534617 0.058162738
v 0.105137169 0.686663628 0.071039967
v 0.049403712 0.861132979 -0.143542409
v 0.126962364 0.692084193 0.077833436
v 0.055420168 0.690678239 0.051675834
v 0.201174691 0.686221421 0.023831937
v 0.111800097 0.887337565 0.050892044
v 0.100895502 0.902828693 0.053286023
v 0.158505708 0.915125370 0.003407509
v 0.108646467 0.705742836 0.073976330
v 0.169899046 0.918084145 -0.021392811
v 0.173628896 0.912716210 -0.046721984
v 0.048186149 0.937287927 0.072201721
v 0.090086088 0.715304911 0.067299776
v 0.111187659 0.727726758 0.076666877
v 0.169164643 0.920330167 -0.068416581
v 0.159594983 0.929419339 -0.084311187
v 0.089391984 0.696546376 0.065529197
v 0.156812787 0.919775605 -0.096500561
v 0.187492535 0.680461466 -0.055667322
v 0.171442494 0.686712861 -0.073411681
v 0.069059268 0.723222315 0.059804142
v 0.146067590 0.687113822 -0.085182220
v 0.132625565 0.921184361 -0.121817335
v 0.071494527 0.704720140 0.058985490
v 0.110683694 0.768021762 0.079139173
v 0.147184372 0.697071612 0.070167229
v 0.181882232 0.690883160 0.055921704
v 0.195837423 0.697887778 0.039037786
v 0.209080026 0.766854525 -0.035356186
v 0.157847151 0.765759349 -0.096053779
v 0.050758671 0.707476020 0.052616466
v 0.140559703 0.754672229 -0.102409221
v 0.206839725 0.694545388 -0.017862614
v 0.206248283 0.691720426 0.003525271
v 0.036761709 0.736377358 0.052267589
v 0.011668788 0.753392696 0.051765453
v 0.084992543 0.909307599 0.059898354
v 0.064861260 0.936276317 0.068172619
v 0.017349303 0.769481480 0.053014003
v 0.033345990 0.854007423 0.058656611
v 0.021515161 0.835457683 0.054390978
v 0.021451470 0.692983866 -0.074459314
v 0.054019161 0.920896828 0.065924369
v 0.038914531 0.725567222 -0.087175637
v 0.030564029 0.897627473 0.066616081
v 0.043502692 0.907252789 0.066744283
v 0.014133650 0.896835208 0.067283124
v 0.036078073 0.677276075 -0.071443431
v 0.057277344 0.729925990 -0.092470095
v 0.075760812 0.826285958 0.064792298
v 0.199682102 0.771684527 0.032561194
v 0.188985378 0.849803329 -0.061762936
v 0.058799941 0.675250530 -0.078183949
v 0.175921872 0.758031905 -0.085978277
v 0.123593524 0.826504529 -0.115219496
v 0.122150816 0.759936810 -0.112239540
v 0.082401603 0.672332644 -0.086837403
v 0.052355267 0.763829589 -0.097968459
v 0.038942158 0.811029077 -0.111185290
v 0.120886818 0.684325576 -0.096006677
v 0.104858816 0.669047236 -0.095186964
v 0.097040512 0.928584754 -0.136081100
v 0.070548579 0.919762492 0.063017331
v 0.065299973 0.899716198 0.062901475
v 0.129751205 0.667888105 -0.088925585
v 0.025369477 0.882972419 0.065349832
v 0.041141354 0.871096969 0.062946752
v 0.076410599 0.928599536 -0.139939681
v 0.153010160 0.668405473 -0.078811876
v 0.178445935 0.818795681 -0.089683473
v 0.024207050 0.854077697 -0.136652619
v 0.174688444 0.718735635 -0.078688495
v 0.174150020 0.667831182 -0.069417268
v 0.018513504 0.751462817 -0.091000564
v 0.186292619 0.664502442 -0.054092668
v 0.031768072 0.825933754 -0.120128036
v 0.197470233 0.669849515 -0.039137755
v 0.204812318 0.679603159 -0.025231296
v 0.063158587 0.791750431 0.062519670
v 0.105123259 0.908466995 -0.139915302
v 0.084861562 0.911616325 -0.145505637
v 0.019477662 0.811405659 -0.109682441
v 0.204304412 0.677125275 -0.007661241
v 0.126762807 0.724736452 -0.103942692
v 0.209667772 0.729500711 -0.002481586
v 0.199136585 0.717587233 0.034834065
v 0.161104470 0.724000692 -0.086599484
v 0.144882485 0.725017428 -0.094933271
v 0.191160887 0.676878810 0.041586004
v 0.145428807 0.882945418 0.044247247
v 0.179062113 0.883265972 0.005261750
v 0.204693362 0.731071830 -0.042972952
v 0.046848319 0.692831576 -0.079537183
v 0.161432594 0.680400550 0.062925503
v 0.086406603 0.812573731 0.069493189
v 0.210609481 0.742363811 0.009952353
v 0.202762216 0.737269521 0.029812783
v 0.091397449 0.736696243 -0.104640439
v 0.141222984 0.675274014 0.070554420
v 0.120713316 0.866226196 -0.135116994
v -0.001948979 0.811801255 0.050739508
v -0.003282598 0.741986036 0.049108922
v 0.055210352 0.736342251 0.056702457
v 0.119199991 0.673523128 0.075670965
v 0.144385427 0.871364594 -0.119556941
v -0.002727294 0.783767879 0.052795850
v -0.001678990 0.825828850 0.052265681
v 0.101661861 0.670223713 0.068227842
v 0.019314418 0.867316723 0.063097991
v -0.001216080 0.866858184 0.063931502
v 0.100043140 0.921780705 0.052763604
v 0.063927308 0.674503028 0.053141315
v 0.100488916 0.939043403 0.060215384
v 0.203475565 0.672883511 0.009595688
v 0.101497814 0.816324890 0.076866038
v 0.035074759 0.929105759 -0.137257457
v 0.042883582 0.675599992 0.044966199
v 0.067106098 0.895060897 -0.148625731
v 0.019869823 0.679222465 0.039158247
v 0.034997910 0.694285631 0.046438660
v 0.042867362 0.840348065 -0.133883461
v 0.014045440 0.852257252 0.058024328
v 0.016187299 0.733987212 0.048606612
v -0.003507386 0.728103340 0.047022954
v -0.002935159 0.769775748 0.052109890
v 0.202871948 0.666118562 -0.019762337
v -0.003075421 0.755785286 0.051568396
v 0.071656644 0.693544328 -0.088850543
v 0.088305466 0.801120937 -0.111813702
v 0.107521139 0.811251760 -0.114511691
v 0.154014334 0.813484371 0.065807305
v 0.095990792 0.782674253 0.073718406
v 0.160739183 0.792129815 0.067511305
v 0.096563935 0.687732041 -0.096590161
v 0.197474435 0.669383824 0.025939429
f 555 540 123
f 389 162 497
f 567 540 568
f 583 104 251
f 463 489 430
f 453 94 255
f 483 484 162
f 446 640 671
f 574 577 251
f 50 244 238
f 52 244 50
f 575 57 53
f 55 249 52
f 55 2 250
f 577 248 563
f 575 437 432
f 57 597 589
f 2 265 262
f 589 592 57
f 262 259 2
f 5 267 262
f 602 606 589
f 5 9 11
f 58 606 610
f 11 272 5
f 12 278 11
f 565 793 8
f 630 60 632
f 13 425 12
f 424 289 160
f 289 424 13
f 643 649 60
f 181 403 179
f 483 206 484
f 163 651 174
f 53 563 558
f 651 65 650
f 163 389 384
f 683 66 65
f 455 558 563
f 165 384 171
f 340 331 34
f 67 66 683
f 206 470 63
f 385 102 856
f 67 702 70
f 344 340 696
f 179 403 406
f 710 70 702
f 16 352 14
f 111 112 59
f 63 64 655
f 18 368 16
f 710 742 753
f 119 112 111
f 394 671 545
f 551 922 903
f 19 375 18
f 753 740 711
f 406 470 179
f 261 615 108
f 545 453 439
f 178 386 530
f 24 386 23
f 72 753 742
f 26 396 24
f 768 765 72
f 119 142 112
f 32 63 470
f 112 142 161
f 399 400 396
f 154 343 182
f 545 671 448
f 399 415 400
f 768 770 765
f 32 406 410
f 418 415 399
f 770 183 777
f 387 300 166
f 415 418 422
f 105 86 299
f 169 42 839
f 170 142 119
f 173 172 705
f 329 638 343
f 134 738 737
f 185 638 329
f 692 661 145
f 150 74 741
f 637 345 873
f 132 145 661
f 170 184 142
f 138 495 760
f 138 136 188
f 136 194 188
f 201 87 194
f 270 87 205
f 216 49 210
f 46 216 724
f 198 184 170
f 43 96 907
f 219 39 218
f 45 43 41
f 224 37 219
f 498 224 514
f 86 105 342
f 225 36 514
f 378 107 110
f 80 233 107
f 22 41 43
f 198 217 849
f 41 581 45
f 103 233 76
f 76 40 103
f 222 217 214
f 678 100 40
f 98 41 22
f 366 41 98
f 40 76 678
f 215 4 284
f 215 98 21
f 537 536 92
f 222 234 217
f 904 537 92
f 460 462 30
f 284 471 366
f 222 239 246
f 586 903 759
f 462 28 30
f 246 234 222
f 454 449 28
f 237 391 924
f 560 319 921
f 246 888 252
f 431 471 282
f 455 560 391
f 319 560 241
f 50 238 793
f 50 566 52
f 52 574 55
f 258 263 510
f 244 52 249
f 55 253 2
f 284 792 657
f 303 670 667
f 303 100 674
f 250 249 55
f 273 274 252
f 251 253 574
f 100 303 301
f 301 570 100
f 104 261 257
f 677 100 678
f 273 285 274
f 257 2 253
f 2 257 265
f 250 2 259
f 570 568 40
f 752 292 293
f 294 296 285
f 285 296 274
f 684 497 679
f 277 274 296
f 440 447 442
f 579 489 463
f 692 329 695
f 259 262 267
f 871 736 360
f 262 271 9
f 40 100 570
f 570 567 568
f 203 128 270
f 310 296 294
f 305 296 310
f 87 270 194
f 9 5 262
f 5 272 600
f 276 9 271
f 9 276 11
f 272 11 278
f 302 323 310
f 568 103 40
f 108 615 89
f 280 11 276
f 11 280 12
f 103 568 540
f 278 12 425
f 323 337 328
f 283 12 280
f 12 283 13
f 283 297 289
f 289 13 283
f 540 561 231
f 425 13 424
f 209 288 205
f 291 125 286
f 346 337 323
f 49 304 288
f 173 350 351
f 297 654 314
f 347 158 864
f 304 47 311
f 47 304 49
f 47 46 481
f 360 361 855
f 501 684 146
f 481 311 47
f 46 39 481
f 343 695 329
f 314 289 297
f 289 314 160
f 481 321 308
f 481 39 321
f 325 122 321
f 325 321 37
f 37 321 39
f 333 160 314
f 324 266 333
f 527 107 231
f 84 121 325
f 36 327 498
f 160 333 34
f 327 120 84
f 36 82 371
f 277 393 390
f 689 34 333
f 34 689 340
f 313 34 331
f 266 334 689
f 334 260 341
f 340 335 331
f 107 527 110
f 54 404 405
f 696 14 344
f 61 401 44
f 38 299 407
f 358 14 348
f 14 358 16
f 344 14 352
f 356 704 712
f 352 16 368
f 413 62 417
f 370 16 358
f 16 370 18
f 175 705 134
f 713 115 110
f 371 27 378
f 27 371 82
f 381 18 370
f 18 381 19
f 368 18 375
f 80 378 27
f 19 381 235
f 19 395 23
f 19 23 178
f 202 506 913
f 23 395 24
f 386 24 396
f 398 24 395
f 24 398 26
f 26 398 220
f 26 412 399
f 396 26 399
f 418 399 412
f 164 180 444
f 444 443 164
f 175 173 705
f 685 84 120
f 422 300 415
f 685 121 84
f 172 169 300
f 172 300 422
f 78 80 27
f 226 365 78
f 89 615 114
f 240 485 309
f 134 737 175
f 226 27 82
f 245 459 452
f 187 186 140
f 243 459 245
f 189 187 130
f 581 466 579
f 467 472 637
f 308 122 240
f 138 579 466
f 430 255 463
f 499 435 430
f 453 430 435
f 435 440 439
f 435 499 450
f 243 479 281
f 308 321 122
f 897 438 584
f 439 453 435
f 243 281 893
f 450 440 435
f 480 859 865
f 440 449 447
f 442 439 440
f 450 449 440
f 447 449 454
f 492 488 493
f 127 458 456
f 449 456 28
f 82 225 708
f 454 28 462
f 28 456 30
f 456 450 127
f 30 456 458
f 225 82 36
f 30 464 460
f 506 507 502
f 126 469 125
f 287 508 509
f 207 507 506
f 410 460 32
f 126 306 477
f 460 464 644
f 644 32 460
f 32 644 63
f 475 31 576
f 470 406 32
f 64 63 644
f 306 309 477
f 125 464 458
f 528 795 511
f 516 523 524
f 655 206 63
f 206 655 484
f 206 474 470
f 162 679 497
f 316 322 822
f 313 160 34
f 37 498 325
f 523 316 534
f 497 684 501
f 501 146 505
f 146 512 503
f 505 503 513
f 263 515 510
f 512 120 115
f 503 512 91
f 517 513 503
f 115 713 91
f 458 203 125
f 315 547 548
f 91 512 115
f 547 330 336
f 91 713 88
f 517 88 522
f 552 548 547
f 532 88 713
f 88 532 519
f 552 336 553
f 522 519 541
f 527 231 561
f 127 128 458
f 538 660 692
f 514 36 498
f 224 498 37
f 538 692 695
f 114 626 631
f 553 342 105
f 219 37 39
f 555 660 561
f 127 450 499
f 891 199 824
f 660 555 661
f 218 39 46
f 199 97 886
f 366 98 284
f 22 21 98
f 41 366 581
f 43 232 22
f 907 232 43
f 96 536 907
f 45 463 255
f 45 581 463
f 255 94 96
f 255 96 45
f 94 453 545
f 448 546 545
f 582 593 594
f 595 584 438
f 216 46 47
f 216 47 49
f 551 640 558
f 558 640 569
f 49 288 209
f 793 565 50
f 569 53 558
f 566 50 565
f 209 210 49
f 841 351 350
f 574 52 566
f 578 53 57
f 612 609 423
f 53 578 563
f 575 53 569
f 597 432 211
f 253 55 574
f 57 575 597
f 578 57 592
f 592 583 578
f 627 609 612
f 584 621 628
f 603 589 606
f 602 589 597
f 634 819 627
f 610 606 602
f 835 318 229
f 626 606 58
f 610 624 58
f 58 624 630
f 632 58 630
f 634 884 869
f 58 632 626
f 60 642 632
f 642 60 649
f 60 630 181
f 650 649 643
f 662 652 645
f 656 628 621
f 621 636 656
f 658 659 204
f 64 644 469
f 466 495 138
f 694 377 700
f 468 471 431
f 663 650 65
f 628 656 668
f 679 162 484
f 65 686 663
f 672 673 659
f 686 65 66
f 683 65 651
f 468 431 478
f 683 693 67
f 685 146 684
f 146 685 512
f 696 340 689
f 66 67 701
f 473 495 478
f 66 698 686
f 702 67 693
f 668 675 687
f 701 698 66
f 405 690 54
f 701 67 70
f 54 690 564
f 14 696 348
f 711 70 710
f 699 70 711
f 702 709 710
f 229 318 236
f 657 282 471
f 710 709 742
f 753 756 740
f 756 753 72
f 742 754 72
f 72 754 768
f 72 765 756
f 766 765 770
f 490 193 496
f 130 772 496
f 770 776 766
f 15 719 168
f 87 201 148
f 183 770 768
f 201 194 136
f 422 705 172
f 633 777 338
f 777 633 150
f 408 74 633
f 638 185 408
f 106 730 258
f 688 379 694
f 275 631 118
f 185 692 145
f 197 750 749
f 736 737 738
f 263 258 730
f 738 741 743
f 185 145 143
f 743 741 744
f 744 741 74
f 744 467 879
f 132 140 145
f 123 132 661
f 741 738 150
f 123 540 567
f 773 772 567
f 738 134 150
f 78 27 226
f 238 623 1
f 264 279 779
f 776 150 134
f 134 705 420
f 695 541 538
f 104 599 261
f 365 681 680
f 761 762 763
f 365 678 76
f 76 78 365
f 411 156 420
f 156 411 220
f 541 519 538
f 220 764 156
f 76 233 78
f 80 78 233
f 168 789 387
f 70 699 701
f 398 395 228
f 434 437 445
f 779 780 887
f 428 432 434
f 926 317 706
f 197 749 745
f 213 6 4
f 279 785 780
f 419 427 428
f 148 201 745
f 454 462 419
f 526 782 783
f 381 734 235
f 410 414 419
f 493 769 913
f 511 4 215
f 4 511 213
f 406 414 410
f 208 731 729
f 21 511 215
f 210 728 727
f 794 800 823
f 511 21 529
f 470 474 179
f 724 218 46
f 227 110 115
f 118 280 275
f 219 218 722
f 806 800 794
f 803 804 256
f 716 778 225
f 224 219 720
f 407 86 690
f 356 734 381
f 389 497 380
f 809 795 528
f 810 806 811
f 717 716 514
f 497 501 380
f 317 697 429
f 810 818 821
f 913 771 202
f 341 698 699
f 373 376 159
f 369 177 373
f 341 260 698
f 260 334 266
f 365 226 681
f 517 522 354
f 828 821 818
f 354 362 364
f 569 640 446
f 519 522 88
f 767 828 818
f 266 324 676
f 602 597 211
f 804 834 256
f 121 240 122
f 345 868 918
f 610 602 211
f 169 839 166
f 427 195 211
f 643 179 174
f 683 651 165
f 693 683 171
f 627 884 634
f 324 654 676
f 846 397 841
f 841 397 374
f 362 709 369
f 580 397 846
f 192 188 190
f 192 499 489
f 128 192 190
f 270 205 203
f 205 288 286
f 291 306 126
f 208 148 733
f 288 304 291
f 304 311 306
f 311 481 308
f 286 125 203
f 283 118 297
f 589 599 592
f 283 280 118
f 227 115 120
f 747 805 732
f 707 226 82
f 107 378 80
f 275 114 631
f 118 646 297
f 89 114 275
f 231 233 103
f 87 209 205
f 816 872 870
f 271 108 89
f 248 560 455
f 248 241 560
f 108 271 265
f 566 565 241
f 86 876 690
f 622 244 619
f 517 91 88
f 574 566 248
f 715 662 889
f 244 249 618
f 249 250 614
f 882 465 718
f 253 251 257
f 774 465 882
f 250 259 608
f 883 494 774
f 921 391 560
f 259 267 604
f 54 564 847
f 251 577 583
f 600 267 5
f 89 276 271
f 503 91 517
f 690 405 407
f 275 276 89
f 892 573 582
f 272 278 596
f 248 577 574
f 280 276 275
f 425 588 591
f 425 424 781
f 781 313 572
f 424 313 781
f 572 585 781
f 314 654 324
f 136 197 201
f 313 557 572
f 237 551 558
f 554 331 335
f 334 341 348
f 760 136 138
f 335 344 549
f 341 699 704
f 348 696 334
f 921 319 7
f 358 348 704
f 344 352 544
f 912 582 594
f 903 586 551
f 352 368 543
f 381 370 356
f 368 375 539
f 788 8 3
f 535 375 178
f 221 795 809
f 828 767 562
f 559 833 920
f 921 920 899
f 546 448 898
f 903 922 836
f 38 903 299
f 235 228 395
f 405 669 407
f 546 92 94
f 400 518 520
f 92 546 904
f 639 35 926
f 386 396 525
f 927 926 33
f 928 605 930
f 200 490 298
f 94 545 546
f 96 92 536
f 927 56 852
f 143 472 408
f 220 412 26
f 400 520 521
f 412 220 411
f 109 113 152
f 920 832 559
f 418 412 411
f 152 113 746
f 387 789 786
f 420 418 411
f 746 161 867
f 418 420 422
f 490 773 298
f 496 772 773
f 394 442 445
f 562 767 832
f 739 636 820
f 204 725 658
f 773 490 496
f 725 223 635
f 447 454 428
f 472 186 637
f 215 284 98
f 189 130 496
f 458 464 30
f 410 462 460
f 125 469 464
f 635 247 487
f 487 269 629
f 641 487 629
f 268 269 487
f 269 393 629
f 390 269 268
f 469 126 64
f 349 761 763
f 655 64 477
f 303 674 670
f 290 393 277
f 611 290 928
f 163 474 483
f 928 307 605
f 635 641 648
f 531 605 533
f 677 674 100
f 477 309 485
f 506 202 207
f 679 485 240
f 240 121 684
f 312 912 594
f 684 679 240
f 121 685 684
f 186 187 345
f 503 505 146
f 912 332 892
f 772 130 132
f 685 120 512
f 501 505 159
f 725 648 658
f 505 513 373
f 513 517 364
f 892 847 564
f 110 527 713
f 714 847 339
f 522 541 154
f 51 714 346
f 231 103 540
f 714 51 404
f 541 695 343
f 567 772 123
f 502 500 506
f 578 577 563
f 867 659 673
f 577 578 583
f 597 575 432
f 592 104 583
f 913 492 493
f 845 167 839
f 599 104 592
f 386 178 23
f 599 603 615
f 110 227 378
f 615 261 599
f 706 402 639
f 603 626 114
f 132 123 772
f 624 610 195
f 409 706 317
f 746 673 682
f 114 615 603
f 120 327 227
f 624 414 403
f 691 429 697
f 642 631 632
f 642 118 631
f 429 433 853
f 646 118 642
f 642 649 646
f 152 682 691
f 682 433 691
f 181 643 60
f 654 297 646
f 122 325 121
f 140 130 187
f 421 416 617
f 123 661 555
f 309 308 240
f 698 260 686
f 702 693 177
f 698 701 699
f 672 441 436
f 291 126 125
f 109 691 697
f 143 140 186
f 874 872 816
f 665 441 672
f 188 192 489
f 665 658 653
f 712 704 699
f 653 451 665
f 927 697 317
f 712 740 734
f 648 461 653
f 178 375 19
f 923 880 116
f 641 461 648
f 740 756 748
f 748 758 228
f 926 706 639
f 479 641 482
f 754 742 362
f 354 754 362
f 407 669 38
f 203 458 128
f 482 629 620
f 756 765 758
f 182 754 154
f 128 127 192
f 254 246 252
f 611 382 620
f 764 398 228
f 499 192 127
f 764 766 156
f 766 776 156
f 930 611 928
f 420 156 776
f 140 132 130
f 788 7 8
f 387 166 168
f 420 776 134
f 136 760 197
f 300 387 415
f 750 197 760
f 745 201 197
f 148 208 209
f 733 148 745
f 258 35 106
f 593 533 605
f 731 208 733
f 236 318 910
f 729 210 208
f 728 210 729
f 727 216 210
f 188 489 579
f 929 573 556
f 724 216 727
f 573 929 582
f 723 218 724
f 722 218 723
f 720 219 722
f 717 224 720
f 514 224 717
f 188 579 138
f 876 556 573
f 707 681 226
f 898 904 546
f 472 143 186
f 212 795 221
f 899 391 921
f 854 925 931
f 213 795 212
f 140 143 145
f 404 54 714
f 833 922 924
f 415 387 786
f 143 408 185
f 238 3 793
f 1 3 238
f 31 799 752
f 622 238 244
f 918 799 515
f 380 376 171
f 915 752 357
f 617 476 421
f 619 244 618
f 618 249 616
f 616 249 614
f 636 739 613
f 388 613 10
f 614 250 608
f 357 791 915
f 383 688 388
f 608 259 607
f 571 438 576
f 295 667 666
f 92 96 94
f 607 259 604
f 372 726 700
f 667 295 303
f 367 726 372
f 604 267 601
f 298 295 207
f 923 875 880
f 363 732 367
f 408 467 74
f 148 209 87
f 298 301 295
f 359 747 363
f 601 267 600
f 359 355 755
f 600 272 598
f 598 272 596
f 353 755 355
f 301 298 773
f 596 278 591
f 747 755 751
f 591 278 425
f 588 425 781
f 388 688 813
f 769 771 913
f 763 353 349
f 202 771 200
f 506 500 913
f 74 467 744
f 773 570 301
f 82 708 707
f 320 647 326
f 500 492 913
f 331 554 557
f 242 910 320
f 344 335 340
f 910 908 647
f 554 335 550
f 239 222 703
f 549 550 335
f 549 344 544
f 166 167 168
f 544 352 543
f 543 368 542
f 17 15 167
f 17 845 157
f 907 536 919
f 157 850 155
f 155 850 153
f 542 368 539
f 150 633 74
f 153 854 151
f 151 854 149
f 149 858 147
f 147 862 144
f 539 375 535
f 759 903 38
f 530 535 178
f 144 862 141
f 141 866 139
f 139 866 137
f 530 386 525
f 137 870 135
f 525 396 521
f 135 870 872
f 133 872 131
f 131 874 129
f 129 923 117
f 923 874 875
f 170 119 902
f 521 396 400
f 20 932 101
f 99 101 932
f 99 886 97
f 95 97 199
f 95 891 93
f 93 896 90
f 518 400 786
f 90 896 85
f 85 901 83
f 83 905 81
f 169 166 300
f 81 905 79
f 77 79 796
f 77 909 75
f 439 394 545
f 75 914 73
f 73 914 71
f 71 916 69
f 442 394 439
f 468 466 366
f 442 447 434
f 7 562 920
f 794 534 811
f 924 899 833
f 434 447 428
f 428 454 419
f 419 462 410
f 38 898 759
f 902 111 897
f 466 468 495
f 526 524 534
f 25 59 56
f 96 43 45
f 895 401 61
f 182 343 338
f 483 389 163
f 483 162 389
f 897 59 25
f 883 894 775
f 776 777 150
f 59 897 111
f 380 384 389
f 774 882 893
f 111 902 119
f 778 708 225
f 501 159 380
f 167 166 839
f 159 505 373
f 176 191 867
f 373 513 369
f 364 369 513
f 850 890 925
f 354 364 517
f 354 522 154
f 177 369 709
f 154 541 343
f 446 445 437
f 376 380 159
f 204 223 725
f 217 198 214
f 214 703 222
f 437 569 446
f 610 211 195
f 414 624 195
f 403 630 624
f 889 718 715
f 160 313 424
f 181 630 403
f 888 246 239
f 179 643 181
f 174 650 643
f 651 650 174
f 163 384 165
f 487 247 268
f 165 651 163
f 171 683 165
f 174 474 163
f 557 313 331
f 475 515 799
f 376 693 171
f 285 273 757
f 177 693 376
f 627 885 884
f 174 179 474
f 509 508 516
f 294 302 310
f 709 702 177
f 709 362 742
f 154 754 354
f 182 338 183
f 780 785 803
f 183 768 182
f 423 413 881
f 183 338 777
f 638 338 343
f 633 638 408
f 590 401 895
f 692 185 329
f 190 188 194
f 515 475 25
f 270 190 194
f 190 270 128
f 195 427 414
f 7 788 562
f 915 878 571
f 877 595 438
f 203 205 286
f 44 48 61
f 474 206 483
f 210 209 208
f 61 62 895
f 413 895 62
f 211 432 427
f 172 42 169
f 398 764 220
f 515 263 918
f 437 575 569
f 228 758 764
f 124 885 426
f 175 871 350
f 84 498 327
f 225 514 716
f 327 371 227
f 918 263 730
f 898 448 759
f 371 327 36
f 839 374 890
f 227 371 378
f 451 441 665
f 228 235 748
f 444 180 457
f 233 231 107
f 187 868 345
f 759 448 586
f 189 292 868
f 734 748 235
f 653 461 826
f 924 922 237
f 292 193 196
f 446 671 394
f 461 641 479
f 922 551 237
f 391 237 455
f 482 641 629
f 918 868 799
f 196 200 293
f 771 293 200
f 558 455 237
f 281 287 894
f 894 893 281
f 248 566 241
f 257 251 104
f 255 430 453
f 257 261 265
f 509 775 287
f 260 266 676
f 509 516 524
f 265 261 108
f 523 516 531
f 322 316 523
f 273 252 888
f 265 271 262
f 811 534 316
f 316 315 811
f 676 686 260
f 366 466 581
f 478 495 468
f 330 547 315
f 547 336 552
f 366 471 468
f 760 495 473
f 657 471 284
f 336 342 553
f 553 900 552
f 832 900 553
f 865 878 791
f 792 284 4
f 31 571 576
f 286 288 291
f 438 571 877
f 906 864 863
f 4 790 792
f 8 7 319
f 303 295 301
f 291 304 306
f 570 773 567
f 739 617 392
f 617 416 392
f 306 311 309
f 309 311 308
f 170 628 668
f 613 739 10
f 739 392 10
f 656 675 668
f 656 815 675
f 680 678 365
f 813 613 388
f 324 333 314
f 687 198 668
f 379 688 383
f 295 666 207
f 815 656 636
f 377 694 379
f 325 498 84
f 689 333 266
f 334 696 689
f 700 377 372
f 861 834 860
f 703 721 239
f 732 726 367
f 834 861 256
f 348 341 704
f 747 732 363
f 356 358 704
f 735 888 721
f 370 358 356
f 735 264 757
f 735 273 888
f 755 747 359
f 369 364 362
f 353 763 755
f 647 761 326
f 761 349 326
f 376 373 177
f 779 757 264
f 780 779 279
f 384 380 171
f 235 395 19
f 736 871 737
f 562 788 917
f 910 647 320
f 785 804 803
f 414 406 403
f 256 323 803
f 813 675 815
f 415 786 400
f 427 419 414
f 422 420 705
f 432 428 427
f 430 489 499
f 587 580 590
f 437 434 432
f 445 442 434
f 446 394 445
f 671 586 448
f 819 609 627
f 456 449 450
f 455 563 248
f 865 791 769
f 581 579 463
f 645 652 817
f 644 464 469
f 652 662 715
f 874 923 129
f 715 664 652
f 694 812 688
f 477 64 126
f 750 760 473
f 485 655 477
f 465 715 718
f 507 207 666
f 465 774 494
f 865 486 480
f 812 675 813
f 485 484 655
f 207 202 298
f 883 504 825
f 493 865 769
f 783 782 504
f 679 484 485
f 202 200 298
f 196 490 200
f 196 193 490
f 877 859 476
f 302 803 323
f 189 496 193
f 814 806 810
f 168 719 789
f 821 814 810
f 391 899 924
f 713 527 532
f 467 408 472
f 302 294 887
f 786 787 518
f 538 519 532
f 561 532 527
f 926 35 33
f 538 532 660
f 540 555 561
f 551 586 640
f 319 241 565
f 660 532 561
f 113 161 746
f 161 176 867
f 8 319 565
f 223 247 635
f 781 585 784
f 620 629 393
f 887 780 302
f 269 390 393
f 671 640 586
f 781 784 588
f 599 589 603
f 393 290 611
f 626 603 606
f 928 290 305
f 623 238 622
f 625 1 623
f 774 893 894
f 312 332 912
f 626 632 631
f 332 339 847
f 847 892 332
f 757 887 285
f 847 714 54
f 793 3 8
f 732 807 726
f 858 931 857
f 675 812 687
f 168 167 15
f 273 735 757
f 920 921 7
f 402 385 639
f 167 845 17
f 638 633 338
f 646 649 663
f 650 663 649
f 845 850 157
f 888 239 721
f 663 654 646
f 706 409 48
f 850 854 153
f 676 654 663
f 429 409 317
f 661 692 660
f 854 858 149
f 676 663 686
f 858 862 147
f 433 429 691
f 678 680 677
f 699 711 712
f 712 734 356
f 711 710 753
f 862 866 141
f 712 711 740
f 682 436 827
f 734 740 748
f 866 870 137
f 214 687 808
f 748 756 758
f 664 816 652
f 872 133 135
f 198 687 214
f 754 182 768
f 872 874 131
f 665 659 658
f 758 765 766
f 658 648 653
f 766 764 758
f 776 770 777
f 668 198 170
f 117 923 116
f 787 786 789
f 929 330 822
f 533 822 322
f 556 336 330
f 531 322 523
f 899 920 833
f 662 444 889
f 346 323 256
f 491 482 620
f 116 880 911
f 911 20 116
f 382 491 620
f 911 932 20
f 932 886 99
f 645 443 662
f 930 382 611
f 382 930 516
f 886 824 199
f 605 531 930
f 491 508 848
f 628 170 902
f 256 347 346
f 482 848 479
f 891 896 93
f 347 256 861
f 820 617 739
f 866 819 817
f 605 594 593
f 896 901 85
f 929 593 582
f 612 881 885
f 901 905 83
f 826 451 653
f 451 457 180
f 672 659 665
f 441 180 851
f 79 905 796
f 436 673 672
f 436 851 827
f 909 914 75
f 682 673 436
f 914 916 71
f 584 902 897
f 876 86 342
f 69 916 1
f 829 433 827
f 700 808 694
f 788 3 916
f 853 829 417
f 409 61 48
f 402 48 855
f 870 817 816
f 855 29 360
f 874 816 664
f 385 361 102
f 830 880 875
f 576 897 25
f 819 634 817
f 68 69 1
f 106 856 730
f 743 736 738
f 910 242 236
f 862 857 819
f 744 879 102
f 880 830 831
f 840 528 843
f 401 846 44
f 803 302 780
f 769 791 357
f 878 915 791
f 831 911 880
f 918 873 345
f 576 25 475
f 799 31 475
f 841 29 846
f 879 856 102
f 106 639 385
f 573 564 876
f 911 831 802
f 342 556 876
f 337 339 332
f 25 510 515
f 350 29 841
f 564 573 892
f 892 582 912
f 510 25 56
f 864 906 837
f 312 328 337
f 929 822 593
f 33 35 258
f 871 360 29
f 840 860 835
f 864 158 863
f 29 855 44
f 916 914 917
f 808 687 812
f 594 307 312
f 307 305 328
f 916 917 788
f 33 56 927
f 840 835 809
f 307 594 605
f 736 743 361
f 531 516 930
f 290 277 305
f 852 109 927
f 318 835 860
f 21 844 529
f 852 59 112
f 620 393 611
f 102 743 744
f 112 113 852
f 751 763 762
f 647 785 762
f 805 747 751
f 252 268 254
f 230 835 229
f 487 641 635
f 637 879 467
f 124 851 164
f 809 230 221
f 161 142 176
f 807 732 805
f 247 234 254
f 230 809 835
f 808 700 807
f 345 637 186
f 176 184 191
f 812 694 808
f 204 849 223
f 849 204 191
f 813 688 812
f 635 648 725
f 849 184 198
f 815 613 813
f 815 636 613
f 217 223 849
f 659 191 204
f 217 234 223
f 191 184 849
f 859 480 421
f 795 213 511
f 245 461 243
f 878 865 859
f 802 886 932
f 191 659 867
f 452 718 889
f 223 234 247
f 176 142 184
f 246 254 234
f 865 493 486
f 293 771 357
f 268 247 254
f 771 769 357
f 805 264 735
f 268 252 390
f 161 113 112
f 486 493 488
f 390 252 274
f 867 673 746
f 264 751 279
f 274 277 390
f 746 682 152
f 281 848 287
f 827 433 682
f 808 703 214
f 152 691 109
f 109 852 113
f 476 859 421
f 296 305 277
f 476 595 877
f 305 307 928
f 196 293 292
f 595 476 820
f 726 807 700
f 752 293 357
f 307 328 312
f 310 328 305
f 56 59 852
f 292 752 799
f 328 310 323
f 886 825 824
f 312 337 332
f 807 703 808
f 891 824 782
f 193 292 189
f 844 21 22
f 429 853 409
f 109 697 927
f 56 33 510
f 105 559 553
f 339 337 346
f 346 714 339
f 51 346 347
f 317 926 927
f 564 690 876
f 863 844 232
f 799 868 292
f 510 33 258
f 843 528 529
f 844 863 842
f 861 840 843
f 861 158 347
f 861 860 840
f 752 915 31
f 158 843 842
f 843 158 861
f 842 529 844
f 919 837 906
f 906 232 907
f 809 528 840
f 730 873 918
f 730 856 873
f 873 856 879
f 856 106 385
f 817 634 645
f 837 919 838
f 817 652 816
f 919 906 907
f 919 536 537
f 743 102 361
f 904 669 838
f 898 669 904
f 669 898 38
f 703 807 721
f 405 404 838
f 669 405 838
f 922 833 836
f 294 285 887
f 361 385 402
f 869 645 634
f 830 875 664
f 916 3 1
f 864 51 347
f 402 855 361
f 909 801 914
f 397 890 374
f 48 44 855
f 796 909 77
f 879 637 873
f 901 798 905
f 580 925 397
f 48 402 706
f 896 800 901
f 891 823 896
f 409 62 61
f 853 62 409
f 881 413 417
f 417 62 853
f 86 407 299
f 459 893 882
f 199 891 95
f 830 465 831
f 829 426 417
f 426 829 124
f 426 881 417
f 124 829 827
f 433 829 853
f 886 802 825
f 774 894 883
f 851 124 827
f 164 884 124
f 441 851 436
f 180 164 851
f 443 869 164
f 911 802 932
f 715 830 664
f 874 664 875
f 736 361 360
f 451 180 441
f 457 452 889
f 889 444 457
f 866 817 870
f 106 35 639
f 459 718 452
f 826 452 457
f 452 826 245
f 451 826 457
f 862 819 866
f 858 857 862
f 461 245 826
f 459 882 718
f 479 243 461
f 854 931 858
f 850 925 854
f 846 401 580
f 845 890 850
f 491 848 482
f 848 281 479
f 825 494 883
f 382 508 491
f 900 832 767
f 508 287 848
f 896 823 800
f 839 890 845
f 504 782 824
f 42 374 839
f 516 508 382
f 908 910 318
f 534 524 523
f 552 818 548
f 42 172 173
f 901 800 798
f 818 552 900
f 533 322 531
f 871 175 737
f 868 187 189
f 22 232 844
f 593 822 533
f 822 315 316
f 929 556 330
f 330 315 822
f 838 919 537
f 904 838 537
f 318 860 834
f 908 318 834
f 465 830 715
f 556 342 336
f 105 836 559
f 833 559 836
f 29 44 846
f 908 834 804
f 562 917 828
f 299 836 105
f 818 900 767
f 832 553 559
f 562 832 920
f 811 315 548
f 828 801 821
f 801 828 917
f 821 797 814
f 836 299 903
f 401 590 580
f 797 821 801
f 905 798 796
f 796 814 797
f 810 548 818
f 814 798 806
f 798 814 796
f 909 796 797
f 811 548 810
f 413 587 590
f 404 51 837
f 51 864 837
f 837 838 404
f 909 797 801
f 529 842 843
f 158 842 863
f 232 906 863
f 800 806 798
f 529 528 511
f 794 811 806
f 785 908 804
f 785 647 908
f 859 877 878
f 526 534 794
f 877 571 878
f 571 31 915
f 173 351 42
f 524 783 509
f 350 173 175
f 29 350 871
f 823 526 794
f 783 524 526
f 526 823 782
f 42 351 374
f 841 374 351
f 504 775 783
f 509 783 775
f 782 823 891
f 885 124 884
f 887 757 779
f 914 801 917
f 426 885 881
f 890 397 925
f 825 504 824
f 775 504 883
f 925 587 931
f 587 925 580
f 802 494 825
f 785 279 762
f 494 831 465
f 831 494 802
f 894 287 775
f 590 895 413
f 438 897 576
f 884 164 869
f 762 279 751
f 423 931 587
f 587 413 423
f 931 423 857
f 762 761 647
f 617 820 476
f 595 820 621
f 751 755 763
f 893 459 243
f 751 264 805
f 609 857 423
f 423 881 612
f 662 443 444
f 721 805 735
f 621 584 595
f 857 609 819
f 443 645 869
f 612 885 627
f 636 621 820
f 628 902 584
f 805 721 807
