# avbd fit, rung f60-i32-s300 of Gate 6d (body space, fit phase only)
v -0.001729822 0.719126344 0.051484786
v -0.112981960 0.742977023 0.077800736
v -0.001616515 0.731160402 0.052606367
v 0.000597730 0.937342048 0.083493225
v -0.164702266 0.735055149 0.066021249
v 0.003183755 0.946037769 0.092731193
v -0.001435076 0.754868627 0.054496698
v -0.001498435 0.743068635 0.053537894
v -0.164493769 0.748535454 0.066728383
v 0.135120913 0.955678284 -0.101295568
v -0.184984773 0.746650100 0.059911601
v -0.198719338 0.749263465 0.039225601
v -0.207188293 0.750104606 0.021985495
v -0.178105220 0.740744352 -0.081685483
v 0.011547106 0.711499572 -0.081080571
v -0.159906179 0.736585975 -0.090376630
v 0.026564553 0.711413741 -0.082246125
v -0.142386094 0.735878766 -0.098849863
v -0.125064850 0.738433540 -0.107614316
v 0.208641201 0.717480958 0.007415758
v 0.000543347 0.917102993 0.070212796
v 0.000488929 0.905262351 0.068689339
v -0.106197558 0.733747363 -0.109162368
v -0.091226794 0.738378048 -0.105186939
v 0.095201440 0.869280040 -0.144901812
v -0.075891331 0.744833469 -0.101285659
v -0.125361085 0.927466989 -0.125329360
v -0.125028819 0.869309783 0.054271985
v 0.040509965 0.783822596 -0.099743746
v -0.136879459 0.877917171 0.047684267
v 0.066723928 0.892149568 -0.148712069
v -0.170376807 0.864934266 0.031607971
v 0.087976679 0.838843167 -0.137915045
v -0.209532931 0.743824303 -0.034080748
v 0.072726056 0.832039237 -0.131496266
v -0.149249673 0.933026671 -0.101834692
v -0.166171655 0.933176398 -0.062073775
v 0.015235226 0.826597571 0.052827317
v -0.167807251 0.937263370 -0.042822804
v -0.073925391 0.923008263 -0.142496437
v -0.025494358 0.908839107 0.067904115
v 0.013163778 0.753308535 -0.091374107
v -0.015834171 0.893993378 0.066861935
v 0.062567890 0.787430942 -0.103686713
v -0.035471834 0.895605206 0.066050276
v -0.165687144 0.942222118 -0.024289569
v -0.165184379 0.931348920 -0.010407664
v 0.072005883 0.802134395 -0.108598039
v -0.153089747 0.933457255 0.005348408
v -0.041808080 0.735926151 0.056066852
v 0.055542029 0.875230312 0.062027432
v -0.064587153 0.738118291 0.060808759
v -0.074805245 0.800558925 0.065093882
v 0.056307800 0.847915947 0.061205883
v -0.086913653 0.739434719 0.067174181
v 0.102897540 0.851862788 -0.138712734
v -0.097929046 0.800890148 0.074714370
v -0.167529136 0.814451039 0.061349045
v 0.117894530 0.864842594 -0.135860518
v -0.193081051 0.814028621 0.029222395
v 0.083164901 0.790008485 -0.107792094
v 0.103030428 0.787839592 -0.112275198
v -0.178562626 0.872541428 0.014446616
v -0.171927601 0.885805130 0.011793324
v -0.204697892 0.810768723 -0.035033952
v -0.197934389 0.804403663 -0.059621900
v -0.187230855 0.811396122 -0.076408707
v 0.008145992 0.719686925 0.043505747
v 0.016158782 0.709082544 0.050128289
v -0.174076885 0.800349355 -0.093534648
v 0.031954072 0.709507108 0.052204181
v -0.117213771 0.803895175 -0.116933182
v 0.047674648 0.709934413 0.055403013
v -0.020421425 0.823025823 -0.116408825
v 0.063324645 0.710532248 0.059087276
v -0.092085682 0.925881743 -0.139168158
v 0.078768335 0.711254358 0.063485131
v -0.108323120 0.927789688 -0.132315740
v 0.093871005 0.712079287 0.068564005
v -0.116739295 0.917077363 -0.132363275
v 0.108533219 0.712940514 0.074480072
v -0.131821305 0.939473271 -0.114499353
v 0.124906741 0.713955045 0.079381928
v -0.164743334 0.909414947 -0.085328318
v 0.139385819 0.714931428 0.073943391
v 0.045477163 0.817814946 0.056171514
v -0.128916964 0.929985702 0.043275200
v -0.126042411 0.863164067 -0.132118747
v -0.162254095 0.770964265 0.067582346
v 0.152565062 0.715701461 0.068853915
v -0.143076152 0.872631550 -0.120818436
v -0.015579063 0.862944603 0.061695527
v 0.166730449 0.717135549 0.063974768
v -0.034590703 0.865941823 0.061596792
v 0.180867642 0.717956424 0.059043128
v -0.021837007 0.878869891 0.064908750
v 0.192538232 0.718576610 0.048372008
v -0.015807260 0.921455085 0.070046499
v 0.199043125 0.718704164 0.035178792
v -0.061328657 0.933462501 -0.138347939
v 0.205351636 0.718258440 0.022006799
v 0.025269439 0.823574066 -0.117414668
v -0.085741706 0.911773980 -0.145678610
v -0.109204948 0.774011254 0.078158878
v 0.039589994 0.802714646 0.055918813
v 0.055316932 0.831994712 -0.130262703
v -0.115553975 0.903826594 -0.136689439
v -0.144320130 0.766627491 0.073062286
v 0.124753334 0.836818397 -0.117749073
v -0.131035358 0.896420598 -0.130342990
v 0.132852301 0.875371456 -0.128868535
v 0.139309302 0.861377835 -0.120496914
v 0.138366789 0.847062886 -0.113257490
v -0.166434184 0.785373688 0.066286579
v -0.144685477 0.889507413 -0.118505776
v 0.208647221 0.716315866 -0.007112332
v 0.208448738 0.715111196 -0.020702358
v -0.197617561 0.780138373 0.035003539
v 0.147215322 0.877099037 -0.117248930
v -0.157481521 0.899572253 -0.103159629
v -0.172855541 0.900008082 -0.067756094
v -0.173881859 0.909965873 -0.052508812
v -0.056347292 0.884733498 -0.147779852
v 0.157458380 0.786035836 -0.099526271
v -0.148262545 0.897959590 0.028055459
v -0.162048131 0.896629691 0.010465081
v -0.107468322 0.889543414 0.050446570
v -0.116828442 0.902053177 0.045254722
v 0.207257062 0.714242339 -0.035744213
v -0.021526147 0.875813961 -0.142967552
v 0.198296338 0.713183403 -0.047877871
v -0.040377088 0.872915924 -0.145146683
v 0.189285666 0.711907566 -0.059563614
v -0.025235265 0.789987743 -0.099850908
v 0.180471063 0.710366607 -0.071367390
v -0.096841700 0.932951152 0.053886224
v 0.167877227 0.709219277 -0.080087028
v -0.079022907 0.928226173 0.060932398
v 0.154535502 0.708179832 -0.086544871
v -0.022454850 0.862105012 -0.140361696
v 0.141084805 0.706915498 -0.092792585
v 0.158280358 0.870408058 -0.105232276
v -0.023722632 0.848453045 -0.136072025
v 0.128430754 0.706467688 -0.098488331
v -0.042829566 0.858398736 -0.141844720
v -0.167152360 0.875501931 -0.087664030
v 0.114771344 0.706061125 -0.104551755
v -0.128249317 0.944529831 0.039149750
v 0.099068977 0.707134485 -0.101284288
v -0.029748607 0.807906330 -0.107496440
v 0.084806480 0.708250582 -0.096575782
v 0.139829442 0.833617687 -0.108886853
v 0.070531629 0.709344029 -0.091858543
v -0.104948059 0.832694530 -0.126094908
v 0.056043476 0.710244954 -0.087855145
v -0.064625502 0.776096284 -0.102349594
v 0.041403417 0.710995078 -0.084465370
v 0.046695519 0.900525928 0.065530315
v -0.177485377 0.853473842 -0.080856130
v -0.210589975 0.750420749 -0.013379730
v 0.152964666 0.854889572 -0.104395032
v -0.187723979 0.868542314 -0.035904601
v -0.198873684 0.844550788 -0.025788343
v 0.179179817 0.782187581 -0.088074349
v -0.199675977 0.834682822 -0.043985583
v -0.003544184 0.734180212 -0.086552218
v 0.015547214 0.724983335 -0.084806725
v -0.003613056 0.722720742 -0.083549410
v -0.003401978 0.745692730 -0.089460559
v 0.159456253 0.888313890 -0.101851478
v -0.191731542 0.836526036 -0.062677160
v -0.003298471 0.757374942 -0.091795698
v -0.003195695 0.769106269 -0.094195008
v -0.201885417 0.834937692 -0.006108998
v -0.003007361 0.780878901 -0.096742660
v 0.164968520 0.861756206 -0.093256213
v -0.171866566 0.830810845 -0.095095672
v -0.114411995 0.721115708 -0.108726144
v -0.192228645 0.842042744 0.019311991
v 0.188407168 0.796740770 -0.074843191
v -0.189111724 0.828062832 0.029390126
v -0.090423726 0.822067082 -0.121279933
v -0.076732956 0.813306212 -0.115082979
v 0.167650893 0.875542760 -0.085398123
v -0.044242512 0.843558788 -0.137356088
v -0.001752476 0.853579044 -0.136712819
v -0.001667034 0.864884853 -0.139886692
v -0.090222962 0.916129470 0.057195656
v -0.001570350 0.876442075 -0.141952455
v -0.107255474 0.912252307 0.049545322
v 0.176613957 0.859625340 -0.078578964
v -0.097078003 0.901233852 0.054595567
v -0.001477493 0.888191104 -0.142426938
v -0.109907344 0.925531745 0.047029920
v -0.147959158 0.831492603 0.063754380
v -0.001361451 0.899953008 -0.141733244
v -0.105836734 0.944535911 0.059052177
v 0.168588310 0.892358422 -0.073940262
v 0.190107703 0.732182980 0.054786634
v -0.001284085 0.911542296 -0.139490426
v -0.117065333 0.937758088 0.051427610
v -0.001190136 0.922975063 -0.136253789
v -0.132972181 0.905912519 0.035296176
v 0.186880454 0.856157482 -0.061177112
v -0.139475405 0.921183944 0.034810819
v -0.190629870 0.867581367 -0.002251282
v -0.001068689 0.934122860 -0.131976917
v -0.141121447 0.948639035 0.027919393
v -0.139484912 0.934819818 0.023940198
v -0.151225433 0.947439373 0.010830222
v -0.129991114 0.824662328 0.069769077
v 0.031049704 0.945655525 0.088864811
v 0.016747843 0.945866227 0.090372562
v 0.174275309 0.904197216 -0.053337347
v 0.000584845 0.927901268 0.075547256
v -0.159482747 0.945656419 -0.007350323
v 0.178248987 0.886255264 -0.051114552
v -0.165046901 0.950571358 -0.037811048
v -0.161957964 0.947280109 -0.054255269
v -0.073710158 0.760779262 -0.102404915
v 0.045362361 0.946420312 0.086427137
v 0.174266711 0.895454764 -0.034883555
v 0.187545866 0.867775142 -0.042792227
v -0.159171075 0.945378125 -0.071452603
v -0.141826496 0.946796238 -0.101840340
v -0.115012169 0.940343201 -0.125294358
v -0.144264311 0.906189263 -0.115838423
v -0.104343653 0.763341486 -0.111568466
v 0.073935665 0.948093295 0.079790443
v 0.059677590 0.947255909 0.083446786
v -0.097855091 0.899242699 -0.144383356
v 0.000444583 0.893383622 0.067373946
v -0.102563657 0.914159775 -0.139430836
v 0.182299331 0.880997837 -0.030163994
v -0.123709179 0.756151617 -0.111192487
v 0.087978259 0.948841572 0.075514741
v -0.023522101 0.793987155 0.055347215
v -0.025843674 0.722502828 0.054147214
v 0.171960339 0.902846217 -0.019663705
v -0.173930332 0.895518482 -0.043502450
v -0.037264381 0.758611977 0.056873810
v 0.101815820 0.949858069 0.070174895
v 0.207727268 0.805458188 -0.006177804
v -0.051771086 0.723091662 0.057887614
v 0.206663057 0.804064751 -0.024816835
v 0.177617162 0.891016841 -0.015228331
v 0.189300448 0.867391586 -0.018934246
v -0.053877585 0.768448949 0.060352534
v -0.077573672 0.724911273 0.063982293
v -0.101241969 0.727809191 0.072146192
v -0.092551105 0.765069842 0.071040586
v 0.176701695 0.884937286 0.006987675
v -0.095585592 0.752161264 0.071485937
v 0.184251085 0.879457295 -0.010965571
v -0.044641316 0.882060826 0.063524038
v 0.086889431 0.898640275 0.058908708
v -0.111191526 0.759538710 0.078210741
v 0.067697443 0.840240002 -0.140176684
v -0.126126856 0.728673458 0.079377666
v -0.200742155 0.778750300 -0.053864945
v -0.128450722 0.770138860 0.078002051
v -0.142463386 0.742360353 0.073981866
v 0.059863217 0.852634549 -0.143464774
v 0.148148566 0.918312371 0.018168325
v -0.132196128 0.755607009 0.076965280
v -0.208017901 0.768170774 -0.043244224
v -0.147890925 0.728258252 0.071371756
v 0.188018098 0.871177673 0.003144421
v 0.186683729 0.859715939 0.014829153
v -0.122474097 0.916398048 0.041541453
v -0.152858302 0.757167339 0.070266470
v -0.181557968 0.731081784 0.059558250
v 0.161985770 0.893873870 0.013668783
v 0.165018454 0.881219387 0.025530839
v -0.184940428 0.776209354 0.059020810
v -0.175003678 0.760843217 0.063430361
v 0.164286137 0.867812455 0.037500530
v -0.195133656 0.734686852 0.044868819
v 0.136992365 0.921960950 0.035836320
v -0.192654982 0.763430119 0.047821201
v 0.205449343 0.802920163 0.016228994
v -0.044169590 0.946165860 0.086627498
v -0.202514976 0.763699114 0.028120156
v -0.019279756 0.935951054 0.077070490
v 0.151938468 0.890317738 0.029418847
v -0.147463098 0.911691189 0.027640205
v 0.195060343 0.798423350 0.035159253
v -0.147969097 0.921975911 0.016851399
v -0.211222962 0.758595169 0.007342715
v 0.163482875 0.855906665 0.047974966
v -0.153964400 0.908724010 0.012198186
v 0.021080259 0.887213826 -0.143069655
v 0.021876259 0.903161347 -0.142163634
v 0.139926702 0.888188958 0.041540101
v -0.024690362 0.934101224 -0.134100124
v 0.152745932 0.879404068 0.043218888
v -0.210285664 0.774326742 0.013020058
v -0.019661350 0.919263482 -0.138409466
v 0.025729906 0.814815700 0.052717544
v -0.018939702 0.743902266 -0.089502290
v -0.039241809 0.924162865 -0.139830142
v 0.124384180 0.893161952 0.046472408
v -0.043684758 0.937970936 -0.136026263
v -0.159355491 0.919846535 0.000961446
v 0.144412875 0.864112258 0.052959383
v -0.165040404 0.906371415 -0.003028546
v 0.131087691 0.850785732 0.061239250
v -0.173366159 0.912417293 -0.034337275
v -0.171729803 0.901363671 -0.021207586
v 0.130165190 0.878127277 0.048665039
v -0.169510111 0.916655362 -0.015714161
v 0.111697152 0.854814053 0.064018846
v -0.209545404 0.733750165 -0.018864481
v -0.210588887 0.765925765 -0.008441875
v 0.104453981 0.789021611 0.077480480
v 0.126643568 0.790596187 0.076448448
v 0.098968707 0.819795609 -0.117713355
v 0.081838779 0.938400745 0.062127251
v -0.018473670 0.757110715 0.054860927
v 0.114556253 0.951890111 0.063297465
v -0.170568809 0.923238277 -0.048191965
v 0.133005053 0.804675579 0.073116347
v 0.105414197 0.883250535 0.051022988
v -0.209737018 0.771757483 -0.023918739
v -0.169959813 0.918151975 -0.068010859
v 0.125655279 0.953894317 0.055106007
v -0.154430121 0.916888058 -0.101358548
v 0.121119201 0.866526484 0.056861222
v -0.062954657 0.839317024 -0.139087707
v 0.092113324 0.802052975 0.072958894
v -0.206034631 0.729237497 -0.041619394
v 0.092678249 0.855011582 0.066011474
v -0.209996179 0.758539438 -0.028777828
v -0.195351884 0.763180733 -0.060534455
v -0.194157213 0.725099146 -0.056459982
v 0.072891518 0.797027409 0.066327482
v 0.099757440 0.866986752 0.057079554
v -0.065244555 0.822458923 -0.121420398
v 0.082440116 0.862582326 0.058873195
v -0.198662147 0.738642871 -0.053345919
v -0.187713176 0.773350179 -0.073066406
v 0.059049636 0.806456268 0.060082864
v -0.079170540 0.831810176 -0.132226914
v -0.184276730 0.729467034 -0.070942208
v 0.017787430 0.856928647 -0.138416469
v 0.080663353 0.878825784 0.059732545
v 0.063986219 0.891572595 0.062137544
v -0.183438569 0.757440925 -0.076942950
v 0.136950582 0.955114245 0.044747286
v 0.019310748 0.776377499 -0.096367911
v 0.020694990 0.763977945 -0.093987942
v -0.167394072 0.725085676 -0.084237427
v 0.146290660 0.956364453 0.033129558
v -0.124358095 0.836998463 -0.118673578
v 0.153326243 0.958286107 0.020006848
v -0.155151993 0.760405898 -0.096874431
v 0.042475831 0.910928130 -0.144207865
v -0.168191761 0.751790404 -0.089118280
v 0.158698887 0.959945977 0.006300608
v 0.032751821 0.797442853 -0.102871038
v 0.035568692 0.811311841 -0.109675802
v -0.137090236 0.827528656 -0.109729074
v 0.162003368 0.960920215 -0.007986136
v -0.141082138 0.841536403 -0.110292494
v -0.098597132 0.939585805 -0.131475821
v -0.036646154 0.926181018 0.068500340
v 0.161921352 0.960853457 -0.022649730
v -0.148768976 0.722328782 -0.092878550
v -0.154590040 0.835793138 -0.101567127
v -0.152900264 0.747153163 -0.095647141
v -0.140278175 0.922688782 -0.114500679
v 0.159858987 0.960168064 -0.036111034
v -0.168767631 0.845278263 -0.094617911
v 0.033133175 0.752722383 -0.092976376
v -0.131447107 0.722885072 -0.101574585
v -0.181678355 0.840520740 -0.079103231
v 0.156766608 0.959092021 -0.050064553
v -0.131218553 0.912465751 -0.126898676
v 0.154157817 0.958620846 -0.063974246
v -0.186993286 0.853518486 -0.063527547
v -0.138878539 0.750831485 -0.103007913
v 0.176693633 0.825454354 0.049364619
v 0.149326622 0.957803130 -0.077117994
v -0.196779490 0.846793652 -0.048546650
v 0.045968767 0.822608352 -0.119606718
v -0.096237451 0.722999573 -0.103898011
v -0.020520588 0.729258001 -0.085953400
v 0.143037364 0.956679046 -0.089720733
v -0.192387938 0.857517838 -0.041536681
v 0.176044926 0.869939685 0.020364108
v -0.018190708 0.780786753 0.056187011
v 0.124720708 0.954026043 -0.110364839
v 0.177102849 0.853934109 0.031915355
v -0.061278533 0.843494892 0.061328638
v -0.106403865 0.747650266 -0.110612057
v -0.077042550 0.727443218 -0.098349258
v 0.053597815 0.755129457 -0.096718810
v -0.089875557 0.754268765 -0.106373452
v -0.059188247 0.739528954 -0.095211536
v -0.056949675 0.724810064 -0.091051698
v 0.074501678 0.775814831 -0.104299963
v 0.058274269 0.812800884 -0.112658359
v -0.178128615 0.836747468 0.041848633
v 0.044723835 0.859726906 0.057953198
v 0.037416369 0.844580293 0.057486523
v -0.175170377 0.851257622 0.036248963
v 0.032733493 0.829668820 0.054399066
v -0.027483365 0.834925771 -0.127080947
v 0.096131884 0.803793252 -0.111818053
v -0.159586176 0.859516442 0.049694419
v -0.057347246 0.764140725 -0.098967031
v -0.062492855 0.752420366 -0.098420992
v 0.105854690 0.768858016 -0.112235822
v -0.159280211 0.844595075 0.056770641
v -0.038524538 0.738981068 -0.090497561
v 0.114140615 0.953057766 -0.117630519
v 0.122499049 0.782875180 -0.114519015
v -0.046142444 0.753807783 -0.095031671
v -0.139049441 0.851453483 0.058707159
v -0.041325491 0.774156928 -0.097850382
v 0.101792075 0.951593578 -0.123495519
v -0.027414307 0.757402062 -0.093058690
v 0.114383817 0.751563728 -0.112724528
v -0.210848019 0.743778110 0.003845293
v -0.204690218 0.735642731 0.025415530
v 0.138490066 0.780525982 -0.107390627
v -0.132946640 0.838160694 0.064953692
v -0.116346255 0.845215499 0.066378169
v 0.115675844 0.812480330 -0.115390420
v -0.065900862 0.885318100 0.061285239
v -0.058410048 0.947308838 0.083759740
v -0.108815625 0.829605222 0.072840467
v 0.136150792 0.808444798 -0.109992862
v -0.095197491 0.841294289 0.071665548
v -0.076661348 0.873389542 0.059564013
v 0.169780076 0.815143108 -0.095266521
v -0.083538994 0.826768041 0.067160085
v 0.107727841 0.901731193 -0.139884204
v -0.067793287 0.858329952 0.058325816
v -0.088940807 0.862930954 0.059204154
v 0.184897095 0.811550975 -0.079655655
v -0.082210802 0.850117862 0.063393623
v 0.185835093 0.771229863 -0.075250529
v 0.192223638 0.782660604 -0.066896260
v -0.076652914 0.837852478 0.065293595
v -0.062835827 0.828355312 0.059077442
v -0.102207601 0.854987144 0.065517172
v -0.023208700 0.836652100 0.052703984
v -0.108132735 0.866495967 0.057535321
v -0.097002454 0.876271427 0.054217983
v 0.195735186 0.810508370 -0.061603300
v 0.207550496 0.792293131 -0.036962938
v -0.055300068 0.869425774 0.060572870
v -0.122003958 0.858064294 0.060008783
v -0.040338606 0.783415437 0.058477111
v -0.117161930 0.878134429 0.049517576
v 0.199848473 0.795199871 -0.056384552
v -0.130123511 0.890794396 0.042090215
v 0.209000379 0.791435599 -0.017229989
v -0.156201616 0.873052597 0.043647625
v 0.203495458 0.820573449 -0.021782888
v -0.140601575 0.864729881 0.053085733
v -0.056272037 0.898181438 0.063757248
v -0.150174499 0.885875523 0.037783936
v 0.210345939 0.763850451 -0.012658899
v -0.059027661 0.926134765 0.065028682
v -0.002015322 0.833735585 -0.124076054
v -0.055332363 0.939021885 0.071356200
v -0.159243017 0.888471127 0.023141680
v -0.185349151 0.858398557 0.017257603
v -0.038721554 0.939856529 0.076818936
v -0.001865492 0.843100190 -0.131362572
v -0.086755380 0.949520588 0.076168105
v -0.197695747 0.852327824 -0.002649880
v 0.074330896 0.878797650 -0.148782104
v 0.109547853 0.931392550 -0.130232885
v -0.175434247 0.895107150 -0.003965928
v -0.072616488 0.948441327 0.080305204
v 0.205430627 0.819843769 0.002932714
v 0.088024989 0.950125694 -0.126764774
v -0.170180678 0.927337646 -0.029035116
v 0.196581766 0.830434799 0.018076977
v -0.192705318 0.860122323 -0.020768721
v -0.186012521 0.874614418 -0.020409813
v -0.179123148 0.888164163 -0.022767425
v 0.073841408 0.949199498 -0.129175246
v 0.195549130 0.856368244 -0.003178936
v 0.059280880 0.948498368 -0.130423129
v -0.077563867 0.900359988 0.061017316
v -0.016317979 0.903843701 -0.141941100
v 0.187384725 0.823473811 0.034034185
v 0.044620365 0.947812676 -0.130777746
v 0.054208111 0.937884927 -0.136241391
v 0.210862130 0.759375215 0.013388922
v -0.072665282 0.940355122 0.067177765
v -0.020476930 0.890078366 -0.143055275
v -0.185246259 0.869166851 -0.055364586
v -0.160369247 0.928480625 -0.083075412
v -0.086893380 0.887785137 0.057811625
v 0.029481318 0.946861923 -0.129726499
v -0.176703840 0.866584420 -0.073720776
v 0.014272653 0.945709825 -0.127773553
v -0.156695634 0.865985215 -0.106829107
v 0.192242995 0.764846861 0.048311573
v -0.167707175 0.860444367 -0.092923336
v 0.014322924 0.936890483 -0.131334797
v -0.001037853 0.944008470 -0.125142962
v 0.184923828 0.810407043 0.044651739
v 0.184032068 0.794882059 0.054823410
v 0.081086785 0.853466511 -0.144219100
v 0.016788712 0.932502568 0.075129524
v -0.157907933 0.882761359 -0.104766227
v -0.153893381 0.851136088 -0.103678524
v -0.152201965 0.944926262 -0.087707177
v 0.064776845 0.865130544 -0.147611365
v 0.167447418 0.808464885 0.062966146
v -0.137577608 0.854992509 -0.118209220
v -0.047730107 0.711279035 -0.085789718
v -0.107953392 0.856710911 -0.138097346
v -0.061996303 0.710646808 -0.089611150
v -0.076057777 0.709804893 -0.094217092
v -0.118361875 0.847255588 -0.129733682
v 0.147801548 0.796974599 0.070264682
v 0.163547993 0.787052631 0.067386672
v -0.090074770 0.708884239 -0.098945946
v 0.158413246 0.768280268 0.069218665
v -0.111950792 0.888748527 -0.138987690
v 0.035814438 0.929277718 0.070007294
v 0.022993971 0.919045150 0.069118574
v -0.103996776 0.707852662 -0.103619576
v 0.147363961 0.814702034 0.067431889
v -0.106115498 0.871920466 -0.141303629
v 0.129493281 0.816846669 0.071991347
v 0.141596004 0.779280543 0.073938176
v -0.119592324 0.707473159 -0.103139721
v 0.000329823 0.869758725 0.064514063
v 0.000266254 0.858470321 0.060435891
v -0.089958675 0.856515229 -0.143658072
v -0.132778600 0.708089292 -0.097311959
v -0.075943694 0.895550370 -0.148396388
v -0.097827956 0.843523860 -0.138112143
v -0.145323485 0.708604991 -0.091683969
v -0.158464164 0.709894657 -0.085448802
v -0.171650648 0.710889518 -0.079128645
v -0.044119436 0.851510048 0.057796292
v -0.021674378 0.850884438 0.057042845
v 0.087218717 0.789108872 0.070381984
v 0.091779172 0.775659025 0.071679421
v -0.182873011 0.712357402 -0.069017783
v -0.191672444 0.713911951 -0.057398908
v -0.025037032 0.807983875 0.052567117
v 0.072757423 0.781933427 0.065953955
v 0.052960403 0.790162861 0.062043596
v -0.200589329 0.715208054 -0.045973789
v -0.073431954 0.880723119 -0.149061620
v 0.078154162 0.811477959 0.065606236
v -0.208167285 0.716405690 -0.032955978
v -0.048872866 0.800244212 0.057807248
v 0.031768765 0.788463652 0.058526404
v -0.029028630 0.769837856 0.056589402
v -0.092503116 0.884039581 -0.146312177
v 0.029594967 0.756419420 0.057077922
v -0.062357884 0.785776615 0.062741324
v 0.068887837 0.836486638 0.062451519
v -0.029686028 0.746804774 0.055552971
v -0.051836144 0.750364780 0.059150301
v -0.054223925 0.899948299 -0.146843329
v -0.068755612 0.909902215 -0.147713587
v -0.067204326 0.814266562 0.062600859
v -0.054657467 0.916589856 -0.144073099
v 0.085741654 0.904177070 -0.147293493
v -0.208711267 0.717263281 -0.018560922
v 0.082041703 0.826125026 0.066996120
v -0.073742196 0.755198181 0.064586371
v -0.090345733 0.814000249 0.070825472
v 0.092882052 0.888231099 -0.146020427
v -0.075391367 0.772996247 0.065875404
v -0.084304705 0.788284779 0.068628512
v -0.068229139 0.913331330 0.063123472
v 0.072326973 0.759743512 -0.101503745
v -0.046670534 0.911558449 0.066656530
v 0.099822238 0.832238495 0.074110590
v -0.093457758 0.777793944 0.071907975
v 0.128854856 0.901614189 -0.130884498
v -0.208875626 0.717928946 -0.005075856
v -0.023627188 0.822195411 0.054012101
v 0.092164844 0.752949834 -0.106481396
v -0.204681367 0.720023990 0.023323273
v -0.124932304 0.799489915 0.075468138
v 0.087131023 0.766577363 -0.106690094
v -0.198453024 0.720362484 0.036405113
v -0.105897680 0.788029075 0.077410370
v 0.115547992 0.824690044 0.073255286
v 0.117715046 0.839536965 0.068212621
v 0.118582681 0.916174591 -0.131582469
v -0.192094475 0.720138490 0.049396530
v -0.113940977 0.814102769 0.076432154
v -0.179861397 0.719329059 0.058971465
v -0.127453104 0.784481287 0.076579511
v -0.166103795 0.718516946 0.063833691
v -0.152264923 0.716955006 0.068648778
v -0.133001059 0.812510788 0.071363941
v -0.146797657 0.792327940 0.070598356
v -0.139432162 0.716011703 0.073608726
v 0.136541963 0.832079053 0.066509470
v -0.148762003 0.805954754 0.068075977
v -0.125410706 0.714772403 0.078938827
v -0.109426498 0.713712215 0.074306116
v 0.134376973 0.746983409 -0.104151323
v -0.149453446 0.819265723 0.065586306
v 0.170891970 0.842148483 0.049291480
v 0.134357050 0.758583665 -0.106073916
v 0.144374609 0.942702949 -0.101516925
v -0.095060878 0.712611079 0.068560101
v -0.146125123 0.778981626 0.072348244
v -0.080381095 0.711580515 0.063244969
v 0.119625583 0.942759156 -0.122266732
v -0.065408185 0.710681498 0.058461376
v -0.050168306 0.709934533 0.054442652
v 0.183917269 0.837674022 0.033395693
v 0.136667877 0.915863395 -0.120475248
v -0.034904018 0.709400773 0.050942957
v -0.019627713 0.708824337 0.048526723
v -0.165963590 0.829137921 0.059254833
v -0.012155439 0.719993472 0.042854201
v -0.167855546 0.799992502 0.063751273
v 0.149263620 0.755682766 -0.098338440
v 0.147847429 0.902517676 -0.112895623
v 0.193388805 0.845999360 0.016504738
v -0.180580750 0.821787179 0.045047130
v -0.186688274 0.792148888 0.051966362
v -0.184089229 0.807138920 0.047674246
v -0.041876726 0.821698308 -0.117992461
v 0.165879682 0.752890289 -0.089859143
v 0.195770785 0.852805138 -0.023434050
v 0.140401497 0.929212868 -0.111422621
v 0.012312756 0.844476402 -0.132658049
v -0.052081190 0.831480205 -0.129278630
v 0.066236608 0.823318660 -0.122103296
v -0.045231584 0.817262352 0.056916825
v 0.201109976 0.837535977 -0.006637547
v -0.196962819 0.798474669 0.031759042
v -0.201249003 0.824797928 0.013103085
v -0.165245622 0.877875149 0.027737180
v 0.183158770 0.756771803 -0.076815210
v -0.209073469 0.790948987 0.013478609
v 0.113766775 0.939855278 0.049732722
v 0.199830085 0.837160885 -0.031766675
v -0.206581384 0.808274388 0.011950731
v -0.205255955 0.816903949 -0.010411515
v -0.202122688 0.826615810 -0.027991688
v 0.193446219 0.751029432 -0.062053412
v 0.201296523 0.824330330 -0.046685718
v -0.210346013 0.781925559 -0.008363360
v -0.183815539 0.881973267 -0.003411750
v 0.150895029 0.916670442 -0.105103388
v -0.029787337 0.945528805 0.088827759
v 0.194586247 0.839298069 -0.055934019
v 0.182736963 0.841716588 -0.076250039
v -0.081560776 0.868607819 -0.148059472
v -0.059293758 0.869030595 -0.147891656
v 0.194772393 0.766819537 -0.060771942
v -0.208600089 0.798901141 -0.014975840
v 0.203597277 0.744186759 -0.047098771
v 0.190910786 0.825638473 -0.066540122
v -0.016183296 0.946067512 -0.128084689
v -0.031304959 0.947385609 -0.130006954
v 0.162419349 0.905506909 -0.092807546
v 0.018609952 0.840689182 0.054090329
v -0.046336863 0.948406219 -0.130645156
v -0.043824624 0.833428562 0.054970890
v 0.181919590 0.825677395 -0.083393648
v 0.169069380 0.832222641 -0.095465831
v -0.061071556 0.949199796 -0.130286783
v 0.160269052 0.921745300 -0.087758116
v -0.208538502 0.783476472 -0.031233823
v -0.075581156 0.950046241 -0.128678292
v -0.081573039 0.937387645 -0.136112779
v -0.181703821 0.880861104 -0.041299872
v -0.089529566 0.951174378 -0.126144797
v -0.103068329 0.952801049 -0.122766651
v 0.151516855 0.821522593 -0.103390895
v -0.197586998 0.820869744 -0.056010377
v -0.174511522 0.882872581 -0.064731345
v -0.165738434 0.891764820 -0.085008040
v -0.206894085 0.794917226 -0.044227168
v 0.169567108 0.913468063 -0.072260767
v 0.157066613 0.946742415 -0.074910901
v -0.203656912 0.753270447 -0.049166303
v 0.051041313 0.833013535 0.057625663
v 0.131415874 0.822386563 -0.111910306
v -0.064922661 0.854516804 -0.145329833
v -0.185307339 0.826029599 -0.077425145
v 0.162771955 0.943877697 -0.059455603
v -0.079370692 0.844547749 -0.142442137
v -0.190824404 0.747134566 -0.065960974
v 0.115039647 0.825954139 -0.117015637
v -0.193843737 0.788362384 -0.065948106
v -0.178712994 0.783693671 -0.089352116
v 0.165595144 0.942931473 -0.042379308
v -0.187078267 0.797658741 -0.077450678
v -0.173286691 0.815586209 -0.094339080
v 0.173275083 0.913478494 -0.033278175
v -0.173145622 0.767102957 -0.089557543
v -0.020320859 0.772257149 -0.095418140
v 0.079978839 0.815101981 -0.115535870
v -0.115062580 0.954104424 -0.116485812
v -0.125639334 0.955321968 -0.108825088
v -0.154819638 0.820977032 -0.102523848
v -0.155491203 0.805882931 -0.101856098
v -0.157399520 0.790492892 -0.100398161
v -0.157480702 0.775168359 -0.098458961
v -0.128249139 0.880295873 -0.132492587
v 0.064731166 0.862453163 0.057898033
v 0.208266214 0.761844277 -0.042093147
v -0.143331468 0.957805514 -0.087646738
v -0.149634033 0.958884895 -0.075200267
v 0.208974764 0.777222693 -0.028719479
v -0.003647170 0.711216450 -0.080777138
v -0.153865784 0.959535599 -0.061697505
v 0.167998940 0.915494740 -0.011490282
v -0.156354561 0.959704876 -0.047638223
v -0.159280807 0.960140526 -0.033475492
v -0.164232433 0.962120533 -0.020820085
v 0.194955230 0.851571679 -0.043154359
v 0.164130658 0.946974933 -0.027353350
v -0.162333012 0.961633682 -0.006193872
v -0.158167079 0.960331440 0.007883401
v -0.152917385 0.958581090 0.021975188
v 0.047780558 0.843083739 -0.137604862
v -0.145221487 0.956617177 0.034765780
v 0.162684485 0.943608463 -0.011637595
v -0.135606438 0.955512881 0.046103917
v -0.139433742 0.766166091 -0.105381176
v 0.157677382 0.909422576 0.005152402
v 0.016048629 0.801987171 -0.103706345
v -0.002714749 0.792611063 -0.099839605
v -0.002520544 0.803935051 -0.104127720
v 0.132510573 0.942144096 -0.112327732
v -0.139323518 0.781468034 -0.107529961
v -0.002331375 0.814528167 -0.109855413
v -0.136259675 0.812411010 -0.110367335
v 0.014201430 0.814097583 -0.109859928
v -0.002160392 0.824439526 -0.116589487
v -0.124311432 0.955341935 0.055900026
v 0.153792128 0.839791656 -0.101692751
v 0.154930964 0.944217503 0.004222770
v -0.122536339 0.772114873 -0.114083633
v -0.113545276 0.952856719 0.064223379
v -0.100655898 0.950895667 0.071104363
v 0.143218070 0.933750987 0.019438094
v 0.043378718 0.895427108 -0.145202845
v -0.137895599 0.796849787 -0.109246589
v -0.114820883 0.821197987 -0.115046002
v 0.148029387 0.948332667 0.018638063
v -0.120190933 0.787698388 -0.116070427
v 0.152454197 0.903875828 0.022611253
v -0.101436421 0.778977275 -0.111979760
v 0.000081595 0.824675202 0.052757125
v -0.089446925 0.942329049 0.063120961
v 0.126947373 0.947226048 0.042617489
v 0.130665630 0.934696853 0.040233545
v 0.136703983 0.946581483 0.030530319
v -0.085828975 0.770223022 -0.107318677
v -0.098427244 0.794266701 -0.111785471
v -0.080107920 0.785575747 -0.106678665
v 0.050124578 0.764100909 0.060467459
v -0.096561603 0.809238315 -0.114647068
v 0.045786984 0.924884915 -0.140173763
v -0.075931124 0.800462723 -0.109332122
v 0.023403166 0.917516708 -0.139327899
v -0.038772073 0.888630092 -0.144965798
v -0.035535656 0.906603813 -0.144108012
v 0.210830644 0.774594426 0.008543173
v 0.193310559 0.781596959 0.042674635
v -0.051965903 0.792670548 -0.103361882
v -0.055667419 0.809828639 -0.111082092
v -0.135835275 0.957085907 -0.099330850
v 0.142403916 0.910168946 0.032330744
v 0.126193196 0.907919228 0.040082958
v -0.209853560 0.730396986 0.002890639
v 0.174875185 0.757127821 0.063967608
v 0.179276615 0.775491297 0.062982686
v -0.208941460 0.719222307 0.009104281
v 0.116006412 0.922038674 0.044934195
v -0.036914997 0.723446608 -0.086394981
v -0.033220828 0.711570501 -0.083136842
v 0.017058443 0.741758645 0.054118603
v -0.018565107 0.711614192 -0.081306472
v -0.003496230 0.939247966 0.095426038
v 0.061173696 0.919342875 -0.143598557
v -0.015564779 0.944605350 0.090877607
v -0.020742282 0.735564470 0.053541981
v 0.136817366 0.761795223 0.075712480
v 0.031718608 0.939681709 0.078690782
v 0.091209784 0.727560401 0.068666056
v 0.078336313 0.736877978 0.065413803
v 0.111463904 0.737843096 0.077462718
v 0.046617676 0.878178239 -0.146240547
v 0.133973002 0.744437575 0.077038661
v 0.059522260 0.737366199 0.060595609
v 0.208397835 0.743882954 0.019126933
v 0.109300628 0.902110100 0.049863584
v 0.098952062 0.914195895 0.053329267
v 0.158689246 0.927833438 0.000615979
v 0.113626793 0.754036188 0.079444990
v 0.169279441 0.930311978 -0.025113504
v 0.169793874 0.925262153 -0.050808735
v 0.048059851 0.939320862 0.074144162
v 0.094386533 0.760508180 0.072121628
v 0.115884617 0.772943318 0.080814257
v 0.164402932 0.931046963 -0.072011754
v 0.155323833 0.938221574 -0.087802514
v 0.094885848 0.744850278 0.071250647
v 0.151734859 0.929825008 -0.099957079
v 0.190472275 0.735543728 -0.063246235
v 0.174814761 0.739139855 -0.082935885
v 0.072233170 0.765432000 0.065497696
v 0.149016842 0.738108337 -0.095560551
v 0.127149627 0.929557025 -0.123135887
v 0.075706974 0.750221610 0.065653987
v 0.113801181 0.806359887 0.077893995
v 0.154573679 0.749975801 0.070358559
v 0.191903442 0.747528732 0.052991617
v 0.200950235 0.753912091 0.034031630
v 0.204626828 0.808778763 -0.042126093
v 0.154889062 0.803871810 -0.101541616
v 0.054084051 0.751141787 0.060528487
v 0.138666436 0.793852746 -0.108263515
v 0.210080191 0.749575257 -0.024680709
v 0.210672289 0.747999132 -0.002694305
v 0.038989775 0.774598002 0.058227234
v 0.013766822 0.788227975 0.056671072
v 0.083699241 0.918775737 0.060399681
v 0.064236969 0.939557254 0.069503635
v 0.019543182 0.801260769 0.053325851
v 0.033888929 0.870885968 0.063550130
v 0.022274597 0.855739951 0.058815200
v 0.020825479 0.739370167 -0.088947482
v 0.053553533 0.927176476 0.066217430
v 0.038238116 0.767635465 -0.096396491
v 0.031059900 0.907293200 0.067584708
v 0.043563467 0.915584683 0.067568727
v 0.015091337 0.906290829 0.068209156
v 0.035826303 0.726224244 -0.087309308
v 0.056743056 0.771688342 -0.100013316
v 0.074519448 0.851005852 0.064179920
v 0.196239755 0.813839912 0.025131797
v 0.178166792 0.873151660 -0.065493420
v 0.059520859 0.725369632 -0.091982052
v 0.173767537 0.798807323 -0.093013592
v 0.122375965 0.849452972 -0.127186105
v 0.118709013 0.797827125 -0.116422735
v 0.084134690 0.723711967 -0.099455774
v 0.051047456 0.799811780 -0.105362318
v 0.036898304 0.833644569 -0.127110034
v 0.123621151 0.734852791 -0.107387349
v 0.107605651 0.721792638 -0.107126653
v 0.091940239 0.934193015 -0.135785192
v 0.069596827 0.926847160 0.063135087
v 0.064823017 0.910100102 0.063865945
v 0.133216113 0.721426606 -0.100013599
v 0.026092460 0.895124733 0.066563085
v 0.041465722 0.885690033 0.064525105
v 0.071957514 0.933356941 -0.138284162
v 0.156632751 0.723027825 -0.088632025
v 0.168989196 0.848010540 -0.093579844
v 0.021923240 0.871084094 -0.142106384
v 0.175727695 0.765850604 -0.087494507
v 0.178117365 0.723745227 -0.077429868
v 0.017478133 0.789199471 -0.099380590
v 0.189823776 0.722324431 -0.061165713
v 0.029593298 0.845351577 -0.134810269
v 0.201646641 0.727882326 -0.046366449
v 0.209207296 0.736855865 -0.032069229
v 0.064172544 0.821659565 0.060931355
v 0.099678755 0.918059826 -0.139055267
v 0.080074243 0.919704556 -0.142921984
v 0.017633166 0.834076107 -0.125084221
v 0.209683508 0.735332251 -0.013959518
v 0.126916677 0.768691063 -0.111422218
v 0.210227683 0.779191375 -0.009468793
v 0.201805979 0.770067930 0.029005155
v 0.161627039 0.769504488 -0.094922453
v 0.145147458 0.769556820 -0.102835916
v 0.198782668 0.736169457 0.037747808
v 0.137716278 0.898067296 0.033327095
v 0.170358598 0.900344491 -0.001834217
v 0.203268141 0.779020190 -0.049755476
v 0.046685882 0.739811778 -0.092722677
v 0.171383590 0.737163723 0.064365126
v 0.085380487 0.840501130 0.068316713
v 0.210448548 0.790266395 0.002920929
v 0.203812361 0.786250949 0.023705771
v 0.091085061 0.778127313 -0.108720802
v 0.150424644 0.731436312 0.071216807
v 0.115923069 0.884596169 -0.137279034
v 0.000177938 0.836373150 0.052108318
v -0.000947339 0.778363943 0.055492632
v 0.057606667 0.775489748 0.061887991
v 0.129958317 0.728491127 0.078179702
v 0.139539957 0.889247119 -0.123413123
v -0.000112890 0.813054383 0.051100202
v 0.000247105 0.847586930 0.055740159
v 0.109153137 0.723891616 0.075562596
v 0.020251263 0.882118583 0.065431423
v 0.000396124 0.881559372 0.065942310
v 0.097949073 0.929668903 0.052634627
v 0.069230378 0.724453747 0.062416933
v 0.099091530 0.942689538 0.060460173
v 0.209856555 0.732419550 0.003995982
v 0.102061152 0.844821453 0.069911562
v 0.032157920 0.932809532 -0.135557950
v 0.046521142 0.723821461 0.057493635
v 0.063222416 0.906276226 -0.147594973
v 0.021865327 0.725183129 0.054100193
v 0.038160108 0.739237487 0.056554742
v 0.040750846 0.860024750 -0.141571566
v 0.015190925 0.868958294 0.063876517
v 0.018410737 0.771889567 0.055701781
v -0.001206471 0.766641974 0.054732282
v -0.000341178 0.801423252 0.052379489
v 0.208814830 0.725703180 -0.026350539
v -0.000696955 0.790107787 0.055642873
v 0.072419271 0.741337419 -0.099563435
v 0.085846141 0.825200379 -0.127786636
v 0.106561899 0.834497333 -0.128479913
v 0.150557324 0.845537364 0.058924623
v 0.095765665 0.816792965 0.074054554
v 0.158475280 0.828804314 0.061941989
v 0.098242529 0.737297177 -0.106697954
v 0.206197932 0.729759336 0.021796983
f 555 540 123
f 389 162 497
f 567 540 568
f 583 104 251
f 463 489 430
f 453 94 255
f 483 484 162
f 446 640 671
f 574 577 251
f 50 244 238
f 52 244 50
f 575 57 53
f 55 249 52
f 55 2 250
f 577 248 563
f 575 437 432
f 57 597 589
f 2 265 262
f 589 592 57
f 262 259 2
f 5 267 262
f 602 606 589
f 5 9 11
f 58 606 610
f 11 272 5
f 12 278 11
f 565 793 8
f 630 60 632
f 13 425 12
f 424 289 160
f 289 424 13
f 643 649 60
f 181 403 179
f 483 206 484
f 163 651 174
f 53 563 558
f 651 65 650
f 163 389 384
f 683 66 65
f 455 558 563
f 165 384 171
f 340 331 34
f 67 66 683
f 206 470 63
f 385 102 856
f 67 702 70
f 344 340 696
f 179 403 406
f 710 70 702
f 16 352 14
f 111 112 59
f 63 64 655
f 18 368 16
f 710 742 753
f 119 112 111
f 394 671 545
f 551 922 903
f 19 375 18
f 753 740 711
f 406 470 179
f 261 615 108
f 545 453 439
f 178 386 530
f 24 386 23
f 72 753 742
f 26 396 24
f 768 765 72
f 119 142 112
f 32 63 470
f 112 142 161
f 399 400 396
f 154 343 182
f 545 671 448
f 399 415 400
f 768 770 765
f 32 406 410
f 418 415 399
f 770 183 777
f 387 300 166
f 415 418 422
f 105 86 299
f 169 42 839
f 170 142 119
f 173 172 705
f 329 638 343
f 134 738 737
f 185 638 329
f 692 661 145
f 150 74 741
f 637 345 873
f 132 145 661
f 170 184 142
f 138 495 760
f 138 136 188
f 136 194 188
f 201 87 194
f 270 87 205
f 216 49 210
f 46 216 724
f 198 184 170
f 43 96 907
f 219 39 218
f 45 43 41
f 224 37 219
f 498 224 514
f 86 105 342
f 225 36 514
f 378 107 110
f 80 233 107
f 22 41 43
f 198 217 849
f 41 581 45
f 103 233 76
f 76 40 103
f 222 217 214
f 678 100 40
f 98 41 22
f 366 41 98
f 40 76 678
f 215 4 284
f 215 98 21
f 537 536 92
f 222 234 217
f 904 537 92
f 460 462 30
f 284 471 366
f 222 239 246
f 586 903 759
f 462 28 30
f 246 234 222
f 454 449 28
f 237 391 924
f 560 319 921
f 246 888 252
f 431 471 282
f 455 560 391
f 319 560 241
f 50 238 793
f 50 566 52
f 52 574 55
f 258 263 510
f 244 52 249
f 55 253 2
f 284 792 657
f 303 670 667
f 303 100 674
f 250 249 55
f 273 274 252
f 251 253 574
f 100 303 301
f 301 570 100
f 104 261 257
f 677 100 678
f 273 285 274
f 257 2 253
f 2 257 265
f 250 2 259
f 570 568 40
f 752 292 293
f 294 296 285
f 285 296 274
f 684 497 679
f 277 274 296
f 440 447 442
f 579 489 463
f 692 329 695
f 259 262 267
f 871 736 360
f 262 271 9
f 40 100 570
f 570 567 568
f 203 128 270
f 310 296 294
f 305 296 310
f 87 270 194
f 9 5 262
f 5 272 600
f 276 9 271
f 9 276 11
f 272 11 278
f 302 323 310
f 568 103 40
f 108 615 89
f 280 11 276
f 11 280 12
f 103 568 540
f 278 12 425
f 323 337 328
f 283 12 280
f 12 283 13
f 283 297 289
f 289 13 283
f 540 561 231
f 425 13 424
f 209 288 205
f 291 125 286
f 346 337 323
f 49 304 288
f 173 350 351
f 297 654 314
f 347 158 864
f 304 47 311
f 47 304 49
f 47 46 481
f 360 361 855
f 501 684 146
f 481 311 47
f 46 39 481
f 343 695 329
f 314 289 297
f 289 314 160
f 481 321 308
f 481 39 321
f 325 122 321
f 325 321 37
f 37 321 39
f 333 160 314
f 324 266 333
f 527 107 231
f 84 121 325
f 36 327 498
f 160 333 34
f 327 120 84
f 36 82 371
f 277 393 390
f 689 34 333
f 34 689 340
f 313 34 331
f 266 334 689
f 334 260 341
f 340 335 331
f 107 527 110
f 54 404 405
f 696 14 344
f 61 401 44
f 38 299 407
f 358 14 348
f 14 358 16
f 344 14 352
f 356 704 712
f 352 16 368
f 413 62 417
f 370 16 358
f 16 370 18
f 175 705 134
f 713 115 110
f 371 27 378
f 27 371 82
f 381 18 370
f 18 381 19
f 368 18 375
f 80 378 27
f 19 381 235
f 19 395 23
f 19 23 178
f 202 506 913
f 23 395 24
f 386 24 396
f 398 24 395
f 24 398 26
f 26 398 220
f 26 412 399
f 396 26 399
f 418 399 412
f 164 180 444
f 444 443 164
f 175 173 705
f 685 84 120
f 422 300 415
f 685 121 84
f 172 169 300
f 172 300 422
f 78 80 27
f 226 365 78
f 89 615 114
f 240 485 309
f 134 737 175
f 226 27 82
f 245 459 452
f 187 186 140
f 243 459 245
f 189 187 130
f 581 466 579
f 467 472 637
f 308 122 240
f 138 579 466
f 430 255 463
f 499 435 430
f 453 430 435
f 435 440 439
f 435 499 450
f 243 479 281
f 308 321 122
f 897 438 584
f 439 453 435
f 243 281 893
f 450 440 435
f 480 859 865
f 440 449 447
f 442 439 440
f 450 449 440
f 447 449 454
f 492 488 493
f 127 458 456
f 449 456 28
f 82 225 708
f 454 28 462
f 28 456 30
f 456 450 127
f 30 456 458
f 225 82 36
f 30 464 460
f 506 507 502
f 126 469 125
f 287 508 509
f 207 507 506
f 410 460 32
f 126 306 477
f 460 464 644
f 644 32 460
f 32 644 63
f 475 31 576
f 470 406 32
f 64 63 644
f 306 309 477
f 125 464 458
f 528 795 511
f 516 523 524
f 655 206 63
f 206 655 484
f 206 474 470
f 162 679 497
f 316 322 822
f 313 160 34
f 37 498 325
f 523 316 534
f 497 684 501
f 501 146 505
f 146 512 503
f 505 503 513
f 263 515 510
f 512 120 115
f 503 512 91
f 517 513 503
f 115 713 91
f 458 203 125
f 315 547 548
f 91 512 115
f 547 330 336
f 91 713 88
f 517 88 522
f 552 548 547
f 532 88 713
f 88 532 519
f 552 336 553
f 522 519 541
f 527 231 561
f 127 128 458
f 538 660 692
f 514 36 498
f 224 498 37
f 538 692 695
f 114 626 631
f 553 342 105
f 219 37 39
f 555 660 561
f 127 450 499
f 891 199 824
f 660 555 661
f 218 39 46
f 199 97 886
f 366 98 284
f 22 21 98
f 41 366 581
f 43 232 22
f 907 232 43
f 96 536 907
f 45 463 255
f 45 581 463
f 255 94 96
f 255 96 45
f 94 453 545
f 448 546 545
f 582 593 594
f 595 584 438
f 216 46 47
f 216 47 49
f 551 640 558
f 558 640 569
f 49 288 209
f 793 565 50
f 569 53 558
f 566 50 565
f 209 210 49
f 841 351 350
f 574 52 566
f 578 53 57
f 612 609 423
f 53 578 563
f 575 53 569
f 597 432 211
f 253 55 574
f 57 575 597
f 578 57 592
f 592 583 578
f 627 609 612
f 584 621 628
f 603 589 606
f 602 589 597
f 634 819 627
f 610 606 602
f 835 318 229
f 626 606 58
f 610 624 58
f 58 624 630
f 632 58 630
f 634 884 869
f 58 632 626
f 60 642 632
f 642 60 649
f 60 630 181
f 650 649 643
f 662 652 645
f 656 628 621
f 621 636 656
f 658 659 204
f 64 644 469
f 466 495 138
f 694 377 700
f 468 471 431
f 663 650 65
f 628 656 668
f 679 162 484
f 65 686 663
f 672 673 659
f 686 65 66
f 683 65 651
f 468 431 478
f 683 693 67
f 685 146 684
f 146 685 512
f 696 340 689
f 66 67 701
f 473 495 478
f 66 698 686
f 702 67 693
f 668 675 687
f 701 698 66
f 405 690 54
f 701 67 70
f 54 690 564
f 14 696 348
f 711 70 710
f 699 70 711
f 702 709 710
f 229 318 236
f 657 282 471
f 710 709 742
f 753 756 740
f 756 753 72
f 742 754 72
f 72 754 768
f 72 765 756
f 766 765 770
f 490 193 496
f 130 772 496
f 770 776 766
f 15 719 168
f 87 201 148
f 183 770 768
f 201 194 136
f 422 705 172
f 633 777 338
f 777 633 150
f 408 74 633
f 638 185 408
f 106 730 258
f 688 379 694
f 275 631 118
f 185 692 145
f 197 750 749
f 736 737 738
f 263 258 730
f 738 741 743
f 185 145 143
f 743 741 744
f 744 741 74
f 744 467 879
f 132 140 145
f 123 132 661
f 741 738 150
f 123 540 567
f 773 772 567
f 738 134 150
f 78 27 226
f 238 623 1
f 264 279 779
f 776 150 134
f 134 705 420
f 695 541 538
f 104 599 261
f 365 681 680
f 761 762 763
f 365 678 76
f 76 78 365
f 411 156 420
f 156 411 220
f 541 519 538
f 220 764 156
f 76 233 78
f 80 78 233
f 168 789 387
f 70 699 701
f 398 395 228
f 434 437 445
f 779 780 887
f 428 432 434
f 926 317 706
f 197 749 745
f 213 6 4
f 279 785 780
f 419 427 428
f 148 201 745
f 454 462 419
f 526 782 783
f 381 734 235
f 410 414 419
f 493 769 913
f 511 4 215
f 4 511 213
f 406 414 410
f 208 731 729
f 21 511 215
f 210 728 727
f 794 800 823
f 511 21 529
f 470 474 179
f 724 218 46
f 227 110 115
f 118 280 275
f 219 218 722
f 806 800 794
f 803 804 256
f 716 778 225
f 224 219 720
f 407 86 690
f 356 734 381
f 389 497 380
f 809 795 528
f 810 806 811
f 717 716 514
f 497 501 380
f 317 697 429
f 810 818 821
f 913 771 202
f 341 698 699
f 373 376 159
f 369 177 373
f 341 260 698
f 260 334 266
f 365 226 681
f 517 522 354
f 828 821 818
f 354 362 364
f 569 640 446
f 519 522 88
f 767 828 818
f 266 324 676
f 602 597 211
f 804 834 256
f 121 240 122
f 345 868 918
f 610 602 211
f 169 839 166
f 427 195 211
f 643 179 174
f 683 651 165
f 693 683 171
f 627 884 634
f 324 654 676
f 846 397 841
f 841 397 374
f 362 709 369
f 580 397 846
f 192 188 190
f 192 499 489
f 128 192 190
f 270 205 203
f 205 288 286
f 291 306 126
f 208 148 733
f 288 304 291
f 304 311 306
f 311 481 308
f 286 125 203
f 283 118 297
f 589 599 592
f 283 280 118
f 227 115 120
f 747 805 732
f 707 226 82
f 107 378 80
f 275 114 631
f 118 646 297
f 89 114 275
f 231 233 103
f 87 209 205
f 816 872 870
f 271 108 89
f 248 560 455
f 248 241 560
f 108 271 265
f 566 565 241
f 86 876 690
f 622 244 619
f 517 91 88
f 574 566 248
f 715 662 889
f 244 249 618
f 249 250 614
f 882 465 718
f 253 251 257
f 774 465 882
f 250 259 608
f 883 494 774
f 921 391 560
f 259 267 604
f 54 564 847
f 251 577 583
f 600 267 5
f 89 276 271
f 503 91 517
f 690 405 407
f 275 276 89
f 892 573 582
f 272 278 596
f 248 577 574
f 280 276 275
f 425 588 591
f 425 424 781
f 781 313 572
f 424 313 781
f 572 585 781
f 314 654 324
f 136 197 201
f 313 557 572
f 237 551 558
f 554 331 335
f 334 341 348
f 760 136 138
f 335 344 549
f 341 699 704
f 348 696 334
f 921 319 7
f 358 348 704
f 344 352 544
f 912 582 594
f 903 586 551
f 352 368 543
f 381 370 356
f 368 375 539
f 788 8 3
f 535 375 178
f 221 795 809
f 828 767 562
f 559 833 920
f 921 920 899
f 546 448 898
f 903 922 836
f 38 903 299
f 235 228 395
f 405 669 407
f 546 92 94
f 400 518 520
f 92 546 904
f 639 35 926
f 386 396 525
f 927 926 33
f 928 605 930
f 200 490 298
f 94 545 546
f 96 92 536
f 927 56 852
f 143 472 408
f 220 412 26
f 400 520 521
f 412 220 411
f 109 113 152
f 920 832 559
f 418 412 411
f 152 113 746
f 387 789 786
f 420 418 411
f 746 161 867
f 418 420 422
f 490 773 298
f 496 772 773
f 394 442 445
f 562 767 832
f 739 636 820
f 204 725 658
f 773 490 496
f 725 223 635
f 447 454 428
f 472 186 637
f 215 284 98
f 189 130 496
f 458 464 30
f 410 462 460
f 125 469 464
f 635 247 487
f 487 269 629
f 641 487 629
f 268 269 487
f 269 393 629
f 390 269 268
f 469 126 64
f 349 761 763
f 655 64 477
f 303 674 670
f 290 393 277
f 611 290 928
f 163 474 483
f 928 307 605
f 635 641 648
f 531 605 533
f 677 674 100
f 477 309 485
f 506 202 207
f 679 485 240
f 240 121 684
f 312 912 594
f 684 679 240
f 121 685 684
f 186 187 345
f 503 505 146
f 912 332 892
f 772 130 132
f 685 120 512
f 501 505 159
f 725 648 658
f 505 513 373
f 513 517 364
f 892 847 564
f 110 527 713
f 714 847 339
f 522 541 154
f 51 714 346
f 231 103 540
f 714 51 404
f 541 695 343
f 567 772 123
f 502 500 506
f 578 577 563
f 867 659 673
f 577 578 583
f 597 575 432
f 592 104 583
f 913 492 493
f 845 167 839
f 599 104 592
f 386 178 23
f 599 603 615
f 110 227 378
f 615 261 599
f 706 402 639
f 603 626 114
f 132 123 772
f 624 610 195
f 409 706 317
f 746 673 682
f 114 615 603
f 120 327 227
f 624 414 403
f 691 429 697
f 642 631 632
f 642 118 631
f 429 433 853
f 646 118 642
f 642 649 646
f 152 682 691
f 682 433 691
f 181 643 60
f 654 297 646
f 122 325 121
f 140 130 187
f 421 416 617
f 123 661 555
f 309 308 240
f 698 260 686
f 702 693 177
f 698 701 699
f 672 441 436
f 291 126 125
f 109 691 697
f 143 140 186
f 874 872 816
f 665 441 672
f 188 192 489
f 665 658 653
f 712 704 699
f 653 451 665
f 927 697 317
f 712 740 734
f 648 461 653
f 178 375 19
f 923 880 116
f 641 461 648
f 740 756 748
f 748 758 228
f 926 706 639
f 479 641 482
f 754 742 362
f 354 754 362
f 407 669 38
f 203 458 128
f 482 629 620
f 756 765 758
f 182 754 154
f 128 127 192
f 254 246 252
f 611 382 620
f 764 398 228
f 499 192 127
f 764 766 156
f 766 776 156
f 930 611 928
f 420 156 776
f 140 132 130
f 788 7 8
f 387 166 168
f 420 776 134
f 136 760 197
f 300 387 415
f 750 197 760
f 745 201 197
f 148 208 209
f 733 148 745
f 258 35 106
f 593 533 605
f 731 208 733
f 236 318 910
f 729 210 208
f 728 210 729
f 727 216 210
f 188 489 579
f 929 573 556
f 724 216 727
f 573 929 582
f 723 218 724
f 722 218 723
f 720 219 722
f 717 224 720
f 514 224 717
f 188 579 138
f 876 556 573
f 707 681 226
f 898 904 546
f 472 143 186
f 212 795 221
f 899 391 921
f 854 925 931
f 213 795 212
f 140 143 145
f 404 54 714
f 833 922 924
f 415 387 786
f 143 408 185
f 238 3 793
f 1 3 238
f 31 799 752
f 622 238 244
f 918 799 515
f 380 376 171
f 915 752 357
f 617 476 421
f 619 244 618
f 618 249 616
f 616 249 614
f 636 739 613
f 388 613 10
f 614 250 608
f 357 791 915
f 383 688 388
f 608 259 607
f 571 438 576
f 295 667 666
f 92 96 94
f 607 259 604
f 372 726 700
f 667 295 303
f 367 726 372
f 604 267 601
f 298 295 207
f 923 875 880
f 363 732 367
f 408 467 74
f 148 209 87
f 298 301 295
f 359 747 363
f 601 267 600
f 359 355 755
f 600 272 598
f 598 272 596
f 353 755 355
f 301 298 773
f 596 278 591
f 747 755 751
f 591 278 425
f 588 425 781
f 388 688 813
f 769 771 913
f 763 353 349
f 202 771 200
f 506 500 913
f 74 467 744
f 773 570 301
f 82 708 707
f 320 647 326
f 500 492 913
f 331 554 557
f 242 910 320
f 344 335 340
f 910 908 647
f 554 335 550
f 239 222 703
f 549 550 335
f 549 344 544
f 166 167 168
f 544 352 543
f 543 368 542
f 17 15 167
f 17 845 157
f 907 536 919
f 157 850 155
f 155 850 153
f 542 368 539
f 150 633 74
f 153 854 151
f 151 854 149
f 149 858 147
f 147 862 144
f 539 375 535
f 759 903 38
f 530 535 178
f 144 862 141
f 141 866 139
f 139 866 137
f 530 386 525
f 137 870 135
f 525 396 521
f 135 870 872
f 133 872 131
f 131 874 129
f 129 923 117
f 923 874 875
f 170 119 902
f 521 396 400
f 20 932 101
f 99 101 932
f 99 886 97
f 95 97 199
f 95 891 93
f 93 896 90
f 518 400 786
f 90 896 85
f 85 901 83
f 83 905 81
f 169 166 300
f 81 905 79
f 77 79 796
f 77 909 75
f 439 394 545
f 75 914 73
f 73 914 71
f 71 916 69
f 442 394 439
f 468 466 366
f 442 447 434
f 7 562 920
f 794 534 811
f 924 899 833
f 434 447 428
f 428 454 419
f 419 462 410
f 38 898 759
f 902 111 897
f 466 468 495
f 526 524 534
f 25 59 56
f 96 43 45
f 895 401 61
f 182 343 338
f 483 389 163
f 483 162 389
f 897 59 25
f 883 894 775
f 776 777 150
f 59 897 111
f 380 384 389
f 774 882 893
f 111 902 119
f 778 708 225
f 501 159 380
f 167 166 839
f 159 505 373
f 176 191 867
f 373 513 369
f 364 369 513
f 850 890 925
f 354 364 517
f 354 522 154
f 177 369 709
f 154 541 343
f 446 445 437
f 376 380 159
f 204 223 725
f 217 198 214
f 214 703 222
f 437 569 446
f 610 211 195
f 414 624 195
f 403 630 624
f 889 718 715
f 160 313 424
f 181 630 403
f 888 246 239
f 179 643 181
f 174 650 643
f 651 650 174
f 163 384 165
f 487 247 268
f 165 651 163
f 171 683 165
f 174 474 163
f 557 313 331
f 475 515 799
f 376 693 171
f 285 273 757
f 177 693 376
f 627 885 884
f 174 179 474
f 509 508 516
f 294 302 310
f 709 702 177
f 709 362 742
f 154 754 354
f 182 338 183
f 780 785 803
f 183 768 182
f 423 413 881
f 183 338 777
f 638 338 343
f 633 638 408
f 590 401 895
f 692 185 329
f 190 188 194
f 515 475 25
f 270 190 194
f 190 270 128
f 195 427 414
f 7 788 562
f 915 878 571
f 877 595 438
f 203 205 286
f 44 48 61
f 474 206 483
f 210 209 208
f 61 62 895
f 413 895 62
f 211 432 427
f 172 42 169
f 398 764 220
f 515 263 918
f 437 575 569
f 228 758 764
f 124 885 426
f 175 871 350
f 84 498 327
f 225 514 716
f 327 371 227
f 918 263 730
f 898 448 759
f 371 327 36
f 839 374 890
f 227 371 378
f 451 441 665
f 228 235 748
f 444 180 457
f 233 231 107
f 187 868 345
f 759 448 586
f 189 292 868
f 734 748 235
f 653 461 826
f 924 922 237
f 292 193 196
f 446 671 394
f 461 641 479
f 922 551 237
f 391 237 455
f 482 641 629
f 918 868 799
f 196 200 293
f 771 293 200
f 558 455 237
f 281 287 894
f 894 893 281
f 248 566 241
f 257 251 104
f 255 430 453
f 257 261 265
f 509 775 287
f 260 266 676
f 509 516 524
f 265 261 108
f 523 516 531
f 322 316 523
f 273 252 888
f 265 271 262
f 811 534 316
f 316 315 811
f 676 686 260
f 366 466 581
f 478 495 468
f 330 547 315
f 547 336 552
f 366 471 468
f 760 495 473
f 657 471 284
f 336 342 553
f 553 900 552
f 832 900 553
f 865 878 791
f 792 284 4
f 31 571 576
f 286 288 291
f 438 571 877
f 906 864 863
f 4 790 792
f 8 7 319
f 303 295 301
f 291 304 306
f 570 773 567
f 739 617 392
f 617 416 392
f 306 311 309
f 309 311 308
f 170 628 668
f 613 739 10
f 739 392 10
f 656 675 668
f 656 815 675
f 680 678 365
f 813 613 388
f 324 333 314
f 687 198 668
f 379 688 383
f 295 666 207
f 815 656 636
f 377 694 379
f 325 498 84
f 689 333 266
f 334 696 689
f 700 377 372
f 861 834 860
f 703 721 239
f 732 726 367
f 834 861 256
f 348 341 704
f 747 732 363
f 356 358 704
f 735 888 721
f 370 358 356
f 735 264 757
f 735 273 888
f 755 747 359
f 369 364 362
f 353 763 755
f 647 761 326
f 761 349 326
f 376 373 177
f 779 757 264
f 780 779 279
f 384 380 171
f 235 395 19
f 736 871 737
f 562 788 917
f 910 647 320
f 785 804 803
f 414 406 403
f 256 323 803
f 813 675 815
f 415 786 400
f 427 419 414
f 422 420 705
f 432 428 427
f 430 489 499
f 587 580 590
f 437 434 432
f 445 442 434
f 446 394 445
f 671 586 448
f 819 609 627
f 456 449 450
f 455 563 248
f 865 791 769
f 581 579 463
f 645 652 817
f 644 464 469
f 652 662 715
f 874 923 129
f 715 664 652
f 694 812 688
f 477 64 126
f 750 760 473
f 485 655 477
f 465 715 718
f 507 207 666
f 465 774 494
f 865 486 480
f 812 675 813
f 485 484 655
f 207 202 298
f 883 504 825
f 493 865 769
f 783 782 504
f 679 484 485
f 202 200 298
f 196 490 200
f 196 193 490
f 877 859 476
f 302 803 323
f 189 496 193
f 814 806 810
f 168 719 789
f 821 814 810
f 391 899 924
f 713 527 532
f 467 408 472
f 302 294 887
f 786 787 518
f 538 519 532
f 561 532 527
f 926 35 33
f 538 532 660
f 540 555 561
f 551 586 640
f 319 241 565
f 660 532 561
f 113 161 746
f 161 176 867
f 8 319 565
f 223 247 635
f 781 585 784
f 620 629 393
f 887 780 302
f 269 390 393
f 671 640 586
f 781 784 588
f 599 589 603
f 393 290 611
f 626 603 606
f 928 290 305
f 623 238 622
f 625 1 623
f 774 893 894
f 312 332 912
f 626 632 631
f 332 339 847
f 847 892 332
f 757 887 285
f 847 714 54
f 793 3 8
f 732 807 726
f 858 931 857
f 675 812 687
f 168 167 15
f 273 735 757
f 920 921 7
f 402 385 639
f 167 845 17
f 638 633 338
f 646 649 663
f 650 663 649
f 845 850 157
f 888 239 721
f 663 654 646
f 706 409 48
f 850 854 153
f 676 654 663
f 429 409 317
f 661 692 660
f 854 858 149
f 676 663 686
f 858 862 147
f 433 429 691
f 678 680 677
f 699 711 712
f 712 734 356
f 711 710 753
f 862 866 141
f 712 711 740
f 682 436 827
f 734 740 748
f 866 870 137
f 214 687 808
f 748 756 758
f 664 816 652
f 872 133 135
f 198 687 214
f 754 182 768
f 872 874 131
f 665 659 658
f 758 765 766
f 658 648 653
f 766 764 758
f 776 770 777
f 668 198 170
f 117 923 116
f 787 786 789
f 929 330 822
f 533 822 322
f 556 336 330
f 531 322 523
f 899 920 833
f 662 444 889
f 346 323 256
f 491 482 620
f 116 880 911
f 911 20 116
f 382 491 620
f 911 932 20
f 932 886 99
f 645 443 662
f 930 382 611
f 382 930 516
f 886 824 199
f 605 531 930
f 491 508 848
f 628 170 902
f 256 347 346
f 482 848 479
f 891 896 93
f 347 256 861
f 820 617 739
f 866 819 817
f 605 594 593
f 896 901 85
f 929 593 582
f 612 881 885
f 901 905 83
f 826 451 653
f 451 457 180
f 672 659 665
f 441 180 851
f 79 905 796
f 436 673 672
f 436 851 827
f 909 914 75
f 682 673 436
f 914 916 71
f 584 902 897
f 876 86 342
f 69 916 1
f 829 433 827
f 700 808 694
f 788 3 916
f 853 829 417
f 409 61 48
f 402 48 855
f 870 817 816
f 855 29 360
f 874 816 664
f 385 361 102
f 830 880 875
f 576 897 25
f 819 634 817
f 68 69 1
f 106 856 730
f 743 736 738
f 910 242 236
f 862 857 819
f 744 879 102
f 880 830 831
f 840 528 843
f 401 846 44
f 803 302 780
f 769 791 357
f 878 915 791
f 831 911 880
f 918 873 345
f 576 25 475
f 799 31 475
f 841 29 846
f 879 856 102
f 106 639 385
f 573 564 876
f 911 831 802
f 342 556 876
f 337 339 332
f 25 510 515
f 350 29 841
f 564 573 892
f 892 582 912
f 510 25 56
f 864 906 837
f 312 328 337
f 929 822 593
f 33 35 258
f 871 360 29
f 840 860 835
f 864 158 863
f 29 855 44
f 916 914 917
f 808 687 812
f 594 307 312
f 307 305 328
f 916 917 788
f 33 56 927
f 840 835 809
f 307 594 605
f 736 743 361
f 531 516 930
f 290 277 305
f 852 109 927
f 318 835 860
f 21 844 529
f 852 59 112
f 620 393 611
f 102 743 744
f 112 113 852
f 751 763 762
f 647 785 762
f 805 747 751
f 252 268 254
f 230 835 229
f 487 641 635
f 637 879 467
f 124 851 164
f 809 230 221
f 161 142 176
f 807 732 805
f 247 234 254
f 230 809 835
f 808 700 807
f 345 637 186
f 176 184 191
f 812 694 808
f 204 849 223
f 849 204 191
f 813 688 812
f 635 648 725
f 849 184 198
f 815 613 813
f 815 636 613
f 217 223 849
f 659 191 204
f 217 234 223
f 191 184 849
f 859 480 421
f 795 213 511
f 245 461 243
f 878 865 859
f 802 886 932
f 191 659 867
f 452 718 889
f 223 234 247
f 176 142 184
f 246 254 234
f 865 493 486
f 293 771 357
f 268 247 254
f 771 769 357
f 805 264 735
f 268 252 390
f 161 113 112
f 486 493 488
f 390 252 274
f 867 673 746
f 264 751 279
f 274 277 390
f 746 682 152
f 281 848 287
f 827 433 682
f 808 703 214
f 152 691 109
f 109 852 113
f 476 859 421
f 296 305 277
f 476 595 877
f 305 307 928
f 196 293 292
f 595 476 820
f 726 807 700
f 752 293 357
f 307 328 312
f 310 328 305
f 56 59 852
f 292 752 799
f 328 310 323
f 886 825 824
f 312 337 332
f 807 703 808
f 891 824 782
f 193 292 189
f 844 21 22
f 429 853 409
f 109 697 927
f 56 33 510
f 105 559 553
f 339 337 346
f 346 714 339
f 51 346 347
f 317 926 927
f 564 690 876
f 863 844 232
f 799 868 292
f 510 33 258
f 843 528 529
f 844 863 842
f 861 840 843
f 861 158 347
f 861 860 840
f 752 915 31
f 158 843 842
f 843 158 861
f 842 529 844
f 919 837 906
f 906 232 907
f 809 528 840
f 730 873 918
f 730 856 873
f 873 856 879
f 856 106 385
f 817 634 645
f 837 919 838
f 817 652 816
f 919 906 907
f 919 536 537
f 743 102 361
f 904 669 838
f 898 669 904
f 669 898 38
f 703 807 721
f 405 404 838
f 669 405 838
f 922 833 836
f 294 285 887
f 361 385 402
f 869 645 634
f 830 875 664
f 916 3 1
f 864 51 347
f 402 855 361
f 909 801 914
f 397 890 374
f 48 44 855
f 796 909 77
f 879 637 873
f 901 798 905
f 580 925 397
f 48 402 706
f 896 800 901
f 891 823 896
f 409 62 61
f 853 62 409
f 881 413 417
f 417 62 853
f 86 407 299
f 459 893 882
f 199 891 95
f 830 465 831
f 829 426 417
f 426 829 124
f 426 881 417
f 124 829 827
f 433 829 853
f 886 802 825
f 774 894 883
f 851 124 827
f 164 884 124
f 441 851 436
f 180 164 851
f 443 869 164
f 911 802 932
f 715 830 664
f 874 664 875
f 736 361 360
f 451 180 441
f 457 452 889
f 889 444 457
f 866 817 870
f 106 35 639
f 459 718 452
f 826 452 457
f 452 826 245
f 451 826 457
f 862 819 866
f 858 857 862
f 461 245 826
f 459 882 718
f 479 243 461
f 854 931 858
f 850 925 854
f 846 401 580
f 845 890 850
f 491 848 482
f 848 281 479
f 825 494 883
f 382 508 491
f 900 832 767
f 508 287 848
f 896 823 800
f 839 890 845
f 504 782 824
f 42 374 839
f 516 508 382
f 908 910 318
f 534 524 523
f 552 818 548
f 42 172 173
f 901 800 798
f 818 552 900
f 533 322 531
f 871 175 737
f 868 187 189
f 22 232 844
f 593 822 533
f 822 315 316
f 929 556 330
f 330 315 822
f 838 919 537
f 904 838 537
f 318 860 834
f 908 318 834
f 465 830 715
f 556 342 336
f 105 836 559
f 833 559 836
f 29 44 846
f 908 834 804
f 562 917 828
f 299 836 105
f 818 900 767
f 832 553 559
f 562 832 920
f 811 315 548
f 828 801 821
f 801 828 917
f 821 797 814
f 836 299 903
f 401 590 580
f 797 821 801
f 905 798 796
f 796 814 797
f 810 548 818
f 814 798 806
f 798 814 796
f 909 796 797
f 811 548 810
f 413 587 590
f 404 51 837
f 51 864 837
f 837 838 404
f 909 797 801
f 529 842 843
f 158 842 863
f 232 906 863
f 800 806 798
f 529 528 511
f 794 811 806
f 785 908 804
f 785 647 908
f 859 877 878
f 526 534 794
f 877 571 878
f 571 31 915
f 173 351 42
f 524 783 509
f 350 173 175
f 29 350 871
f 823 526 794
f 783 524 526
f 526 823 782
f 42 351 374
f 841 374 351
f 504 775 783
f 509 783 775
f 782 823 891
f 885 124 884
f 887 757 779
f 914 801 917
f 426 885 881
f 890 397 925
f 825 504 824
f 775 504 883
f 925 587 931
f 587 925 580
f 802 494 825
f 785 279 762
f 494 831 465
f 831 494 802
f 894 287 775
f 590 895 413
f 438 897 576
f 884 164 869
f 762 279 751
f 423 931 587
f 587 413 423
f 931 423 857
f 762 761 647
f 617 820 476
f 595 820 621
f 751 755 763
f 893 459 243
f 751 264 805
f 609 857 423
f 423 881 612
f 662 443 444
f 721 805 735
f 621 584 595
f 857 609 819
f 443 645 869
f 612 885 627
f 636 621 820
f 628 902 584
f 805 721 807
