# avbd fit, rung f60-i32-s300 of Gate 6d (body space, fit phase only)
v 0.006344808 0.695627570 0.040316425
v -0.106064342 0.716206133 0.073169433
v 0.006373256 0.708401084 0.042073794
v 0.004479152 0.938517869 0.079842031
v -0.157028437 0.705189645 0.066211626
v 0.006918696 0.952381432 0.083349004
v 0.006124713 0.733726323 0.045220096
v 0.006247759 0.721043706 0.044214379
v -0.157303259 0.719525337 0.067099534
v 0.139907092 0.952838421 -0.099903151
v -0.177515164 0.717118800 0.059589736
v -0.194688365 0.719684005 0.044033278
v -0.203004956 0.720911384 0.026966006
v -0.178626031 0.715925932 -0.075615950
v 0.008676238 0.692857087 -0.067036562
v -0.160649747 0.712376893 -0.084891111
v 0.023608154 0.692388415 -0.069115914
v -0.143185124 0.712478042 -0.093561642
v -0.125902981 0.715907693 -0.102537930
v 0.205541134 0.686777234 0.005077811
v 0.004464249 0.912493229 0.070652805
v 0.004524342 0.899319470 0.067974105
v -0.107462302 0.711148262 -0.105485842
v -0.092812270 0.716910720 -0.101493195
v 0.093940988 0.860071301 -0.143341705
v -0.077733129 0.724406600 -0.097840026
v -0.133415908 0.922572136 -0.120641090
v -0.124710001 0.853500247 0.061195672
v 0.037526838 0.768002570 -0.094730601
v -0.137657598 0.862071633 0.054817282
v 0.065724060 0.885980606 -0.148864970
v -0.173490360 0.847122550 0.041738391
v 0.084601827 0.829323649 -0.131160483
v -0.208321571 0.716151655 -0.028140401
v 0.070274912 0.823579431 -0.123313047
v -0.155909866 0.926838875 -0.094066709
v -0.169533238 0.924742818 -0.052725725
v 0.020748524 0.812083542 0.050529312
v -0.170636460 0.928564072 -0.032998122
v -0.080862187 0.920214534 -0.142952651
v -0.022388179 0.902640820 0.067422867
v 0.010173894 0.736287415 -0.082643434
v -0.012194529 0.886382103 0.066140912
v 0.059601646 0.771262944 -0.099900790
v -0.032464169 0.887642086 0.065383099
v -0.167424336 0.933491349 -0.014340067
v -0.168839186 0.921229184 -0.000766954
v 0.069383904 0.786910236 -0.105244718
v -0.156058565 0.924033046 0.014604974
v -0.034717128 0.712432444 0.047133911
v 0.061289072 0.865512192 0.061930060
v -0.057442565 0.713720322 0.053848691
v -0.069982141 0.780493140 0.062463772
v 0.062842928 0.834512353 0.060595058
v -0.079383418 0.713869452 0.062475454
v 0.101089105 0.840619862 -0.135701895
v -0.093726888 0.779218554 0.072078362
v -0.165237844 0.790214300 0.066028319
v 0.117364720 0.854337573 -0.133960217
v -0.195246741 0.790063798 0.038119219
v 0.080172107 0.773339331 -0.105637133
v 0.100127958 0.770259857 -0.110802270
v -0.182094991 0.855162263 0.024094734
v -0.175190389 0.869751453 0.021285629
v -0.208540201 0.788358569 -0.027626704
v -0.201770097 0.782743931 -0.052626051
v -0.191923037 0.791322112 -0.069708630
v 0.017816423 0.697893441 0.043790389
v 0.023497529 0.684475303 0.040184356
v -0.180031210 0.780213952 -0.087095752
v 0.038647257 0.684686780 0.043678176
v -0.123414740 0.786402881 -0.114729427
v 0.053228658 0.684718966 0.049166389
v -0.024238307 0.811962605 -0.109758660
v 0.067476794 0.684756815 0.055524338
v -0.099612251 0.922431648 -0.137631550
v 0.081908219 0.684901714 0.061416380
v -0.116614379 0.924105346 -0.130210310
v 0.096283570 0.685090125 0.067289546
v -0.125154465 0.912068844 -0.130284563
v 0.110605977 0.685299456 0.073143072
v -0.139975220 0.935430348 -0.109339215
v 0.126045689 0.685701549 0.077755436
v -0.169205979 0.899254441 -0.076711476
v 0.140214786 0.685938597 0.072408795
v 0.051001657 0.801915169 0.056607585
v -0.131747305 0.920619130 0.053220786
v -0.129765391 0.854030788 -0.123539254
v -0.156401858 0.743652046 0.069457039
v 0.153149784 0.686149657 0.067113280
v -0.148572877 0.861473382 -0.113767430
v -0.011530510 0.852510631 0.058218140
v 0.166892022 0.687046051 0.061575692
v -0.031157225 0.855271935 0.058490306
v 0.180597529 0.687425375 0.055983335
v -0.018208068 0.869410634 0.063798137
v 0.191103697 0.687669694 0.045590300
v -0.012605163 0.916914821 0.070395455
v 0.197347373 0.687740684 0.032449581
v -0.067787275 0.932281494 -0.138935804
v 0.203572005 0.687282443 0.019448569
v 0.022361025 0.812983036 -0.110189661
v -0.093731195 0.907070994 -0.145485669
v -0.104033932 0.749578118 0.074680045
v 0.045169517 0.785671115 0.054983020
v 0.053065121 0.823825002 -0.121648371
v -0.123179853 0.897308528 -0.133813828
v -0.138235435 0.739756882 0.075408839
v 0.123682417 0.823457897 -0.115126587
v -0.137866512 0.888390720 -0.124940552
v 0.132766247 0.864205956 -0.127178267
v 0.137575150 0.850508332 -0.116294287
v 0.138236180 0.833623290 -0.111434959
v -0.161252961 0.758701026 0.067655019
v -0.151545659 0.880041778 -0.112663850
v 0.205551907 0.685915351 -0.009325886
v 0.205541208 0.684963703 -0.022755872
v -0.196881890 0.753089607 0.042221300
v 0.148124978 0.865391076 -0.116009869
v -0.163414672 0.889891922 -0.095032066
v -0.175048172 0.888833642 -0.058307219
v -0.175325006 0.898482978 -0.043104317
v -0.061513584 0.878343105 -0.148940191
v 0.154416218 0.765807629 -0.097708113
v -0.154802471 0.886286378 0.041252159
v -0.166630477 0.883520484 0.021091234
v -0.107762992 0.877728581 0.055717386
v -0.117778979 0.890588164 0.048575915
v 0.202020600 0.684678257 -0.036747970
v -0.025590327 0.869552255 -0.140870333
v 0.193438560 0.684297383 -0.048569955
v -0.044855617 0.865777373 -0.144173324
v 0.184524566 0.683640897 -0.060218740
v -0.028637383 0.774620235 -0.095030881
v 0.174560860 0.682899892 -0.071456589
v -0.098013505 0.926002502 0.057241779
v 0.161045253 0.682768524 -0.077366814
v -0.078654818 0.921812356 0.062104631
v 0.147583753 0.682383835 -0.083214536
v -0.026435936 0.854766726 -0.136981428
v 0.134167761 0.681684017 -0.089192785
v 0.157466725 0.857905269 -0.102425560
v -0.027786687 0.840758204 -0.130001247
v 0.121677436 0.681733251 -0.094946817
v -0.046958763 0.849717796 -0.140461385
v -0.174313322 0.863260150 -0.080774084
v 0.107171677 0.682360828 -0.099179260
v -0.136414394 0.936341405 0.052094169
v 0.093133673 0.684118152 -0.094691679
v -0.033588342 0.794325292 -0.101808503
v 0.079244092 0.685864151 -0.089637302
v 0.139874473 0.818566203 -0.108352281
v 0.065352157 0.687574625 -0.084514655
v -0.109459653 0.821537673 -0.120129526
v 0.051443677 0.689234376 -0.079370201
v -0.067555718 0.758286893 -0.100274585
v 0.037966073 0.691169858 -0.073172957
v 0.052150268 0.893599808 0.063985072
v -0.184962660 0.838255703 -0.074365295
v -0.209232122 0.722305834 -0.007223722
v 0.154019356 0.841095448 -0.103286088
v -0.195464253 0.853160203 -0.027140269
v -0.203043848 0.825184047 -0.017094811
v 0.175212845 0.760425806 -0.086754173
v -0.203845665 0.814962506 -0.036113054
v -0.006488615 0.716375470 -0.075483628
v 0.012598807 0.706728101 -0.072739407
v -0.006561060 0.704447806 -0.071126133
v -0.006365234 0.728326201 -0.079864964
v 0.160957068 0.877209365 -0.100434065
v -0.198152840 0.818286419 -0.055653639
v -0.006322650 0.740544498 -0.083591953
v -0.006294718 0.752844095 -0.087262765
v -0.206848055 0.814026833 0.002639806
v -0.006198242 0.765300572 -0.090728492
v 0.168171600 0.847832859 -0.093942150
v -0.179695994 0.813567996 -0.088385507
v -0.115142070 0.698003769 -0.102617860
v -0.192903668 0.820435166 0.026930597
v 0.186907426 0.774961948 -0.074211173
v -0.190709770 0.805577099 0.037849095
v -0.095377870 0.809429049 -0.116215326
v -0.081363015 0.799054503 -0.110940203
v 0.171864629 0.862824321 -0.085442699
v -0.048682209 0.835129082 -0.131423637
v -0.005277100 0.846366882 -0.130935729
v -0.005165879 0.858091176 -0.136114463
v -0.089596815 0.907951832 0.057659138
v -0.005047721 0.870493531 -0.139321074
v -0.107566215 0.902596831 0.051072080
v 0.180580586 0.844351649 -0.078896508
v -0.096592307 0.891173005 0.056519438
v -0.004908896 0.883228123 -0.140937641
v -0.111667812 0.917259037 0.050692391
v -0.145496920 0.809507012 0.068378702
v -0.004755411 0.896122813 -0.140593678
v -0.106373921 0.940234005 0.061089285
v 0.172044367 0.880199254 -0.072700866
v 0.189493269 0.702338278 0.052412532
v -0.004630671 0.908953488 -0.138774604
v -0.118730031 0.932081223 0.054970093
v -0.004486327 0.921655357 -0.135726899
v -0.137070909 0.894688785 0.044680074
v 0.191675946 0.839437485 -0.061354779
v -0.143822134 0.911415219 0.045575861
v -0.196155190 0.850491047 0.009457853
v -0.004326995 0.934178829 -0.131714240
v -0.143263981 0.942135036 0.036723226
v -0.143033430 0.926089287 0.033911288
v -0.154442817 0.939919472 0.020015944
v -0.126602679 0.803270459 0.074585691
v 0.035534203 0.950219810 0.082051359
v 0.020867022 0.950557888 0.083186150
v 0.175512537 0.892482638 -0.051269811
v 0.004515145 0.925543785 0.074573889
v -0.166372001 0.937453449 0.003862033
v 0.184571818 0.873211503 -0.050198477
v -0.168076530 0.943266988 -0.027748302
v -0.166198969 0.940502644 -0.044782568
v -0.075827494 0.741401255 -0.100923941
v 0.050116181 0.950499713 0.079737470
v 0.181120157 0.883178532 -0.032922037
v 0.194614172 0.852415442 -0.042445447
v -0.164410323 0.938930035 -0.062361866
v -0.149615481 0.942763031 -0.094807699
v -0.123931646 0.937889874 -0.122043908
v -0.151374713 0.898049057 -0.109956942
v -0.106903054 0.743070722 -0.110302649
v 0.079119630 0.951041877 0.074061610
v 0.064678147 0.950788379 0.077086702
v -0.104657188 0.892950892 -0.141843110
v 0.004580400 0.886080384 0.066368289
v -0.110266939 0.909226716 -0.137637377
v 0.189030468 0.866520286 -0.028776223
v -0.125523537 0.735027969 -0.106831148
v 0.093448713 0.951107383 0.071070783
v -0.017886888 0.775583625 0.049783845
v -0.018312696 0.698633969 0.043132499
v 0.177967802 0.890572369 -0.016949836
v -0.180997223 0.883435905 -0.034453027
v -0.030808728 0.736913741 0.048726603
v 0.107761957 0.950892746 0.068301760
v 0.210294485 0.781196594 -0.006415599
v -0.044406276 0.698285222 0.048571076
v 0.209030151 0.780484855 -0.025385674
v 0.185116619 0.877300084 -0.012896789
v 0.196976379 0.851076305 -0.017783092
v -0.047916535 0.746823072 0.053781606
v -0.069781736 0.698873281 0.057361282
v -0.093336515 0.700625360 0.066973776
v -0.086442821 0.741045773 0.067085460
v 0.184438869 0.869666576 0.009497213
v -0.088841021 0.727037072 0.067184269
v 0.191582471 0.863995552 -0.009048030
v -0.041728336 0.872332454 0.063015386
v 0.093386963 0.889964402 0.057421613
v -0.105324112 0.734000683 0.074146509
v 0.065163910 0.832845569 -0.132218510
v -0.116153814 0.700050890 0.075924568
v -0.204538435 0.754601717 -0.048036449
v -0.121900842 0.744086325 0.080287673
v -0.135277614 0.713696599 0.075156659
v 0.057292767 0.843045592 -0.140084028
v 0.153338388 0.907350540 0.020190489
v -0.125530168 0.728190601 0.079546362
v -0.209391475 0.742376685 -0.036017634
v -0.140227139 0.698484242 0.072579898
v 0.196595520 0.854473710 0.004817490
v 0.194499254 0.840977848 0.016896654
v -0.124834023 0.906468689 0.046789140
v -0.146349236 0.729171693 0.072018884
v -0.173885673 0.700614214 0.059361346
v 0.170861721 0.880982578 0.018005034
v 0.172679156 0.865371406 0.028575322
v -0.177927852 0.748089612 0.062408924
v -0.168708861 0.732277334 0.064298339
v 0.172264144 0.850494385 0.040902097
v -0.191061124 0.703992903 0.049631812
v 0.143920705 0.912163615 0.039279617
v -0.190376729 0.734322548 0.054439824
v 0.208966941 0.777728140 0.015579167
v -0.041158102 0.949826062 0.080974028
v -0.200349957 0.735291481 0.034260217
v -0.016271254 0.934147477 0.075153388
v 0.161022380 0.876843631 0.034468882
v -0.152696922 0.901218891 0.038578812
v 0.198344350 0.772950649 0.034773879
v -0.149594948 0.911075473 0.025847619
v -0.209490180 0.730170250 0.014184624
v 0.171477228 0.836851239 0.051580977
v -0.157226205 0.896436870 0.022246737
v 0.018414898 0.881982028 -0.141499236
v 0.019468214 0.899429023 -0.141244024
v 0.149442300 0.874644160 0.047656786
v -0.029174987 0.934067070 -0.134867400
v 0.160305709 0.863033295 0.046438191
v -0.208246469 0.746871591 0.019442676
v -0.023875047 0.917436302 -0.138423398
v 0.031332836 0.799159527 0.051725931
v -0.021819223 0.726074934 -0.080648839
v -0.044401921 0.922645390 -0.140977651
v 0.132569581 0.880328000 0.047224503
v -0.049421780 0.937743008 -0.136441037
v -0.161312521 0.908483982 0.009673337
v 0.152517825 0.847583652 0.057672560
v -0.169675276 0.893881440 0.006869428
v 0.138265356 0.833607852 0.065671094
v -0.174198553 0.900627971 -0.025036907
v -0.178990230 0.889658749 -0.011295700
v 0.138630942 0.864361286 0.054165035
v -0.173071772 0.905440927 -0.006125637
v 0.118452966 0.839037299 0.068209842
v -0.207834989 0.704669833 -0.013295743
v -0.210389167 0.738668799 -0.001828898
v 0.109231196 0.767258763 0.078509510
v 0.131210238 0.767571449 0.077520207
v 0.097127013 0.805845141 -0.114612065
v 0.089579947 0.933556557 0.062607199
v -0.011541324 0.735854745 0.045770284
v 0.121620879 0.951026618 0.065261923
v -0.173917711 0.913389385 -0.038611408
v 0.138090923 0.782593608 0.074448988
v 0.113524638 0.871966660 0.056172185
v -0.210206151 0.745515466 -0.017194744
v -0.173873544 0.908361137 -0.058689822
v 0.132967204 0.951810062 0.057650752
v -0.160998657 0.908953011 -0.093703426
v 0.128622323 0.851613402 0.061467756
v -0.068133198 0.831479728 -0.131293431
v 0.097223356 0.782142043 0.074203290
v -0.205967665 0.700893044 -0.036002498
v 0.099548265 0.840239227 0.071860150
v -0.209309742 0.731559694 -0.022417650
v -0.197595209 0.738262773 -0.054718476
v -0.193951264 0.697480798 -0.051158190
v 0.078123465 0.777737021 0.066142097
v 0.107013479 0.855155945 0.064940020
v -0.069850571 0.811013997 -0.114832245
v 0.088715725 0.851350188 0.067841202
v -0.198813736 0.711680055 -0.047601007
v -0.190171391 0.750148058 -0.067006603
v 0.064265206 0.788999975 0.061011612
v -0.084262572 0.822299957 -0.124408521
v -0.184083313 0.703165352 -0.065299556
v 0.014711834 0.849612057 -0.133455724
v 0.087193087 0.868570328 0.062226582
v 0.070016965 0.883160770 0.061889846
v -0.184786811 0.733342052 -0.071115479
v 0.139516011 0.953284144 0.044450853
v 0.016273350 0.760472834 -0.090128146
v 0.017660016 0.747348130 -0.086743057
v -0.167545527 0.699585915 -0.078772321
v 0.150457859 0.952594757 0.035023611
v -0.130037159 0.823658466 -0.113570049
v 0.159686536 0.953092456 0.023758838
v -0.157487214 0.738188088 -0.091913246
v 0.040956073 0.907319844 -0.144671708
v -0.169888169 0.728233695 -0.083667696
v 0.165917158 0.954368293 0.010548121
v 0.029857779 0.782833695 -0.097732127
v 0.032826968 0.798418641 -0.103496671
v -0.143847615 0.811927199 -0.107146777
v 0.166212574 0.954761207 -0.004218175
v -0.147802249 0.827351868 -0.105762579
v -0.106736913 0.937281966 -0.129435644
v -0.034460504 0.921287537 0.069233492
v 0.167063609 0.954797089 -0.018888582
v -0.148784965 0.697654605 -0.087232880
v -0.162816271 0.820209503 -0.099072285
v -0.154349998 0.724052429 -0.090478949
v -0.147848725 0.916320205 -0.108699992
v 0.166891798 0.954838395 -0.032666281
v -0.178353041 0.830121398 -0.089238659
v 0.029980997 0.735220671 -0.085215591
v -0.131410152 0.699167013 -0.095536381
v -0.188307509 0.823561311 -0.072517470
v 0.163928539 0.954554737 -0.047046736
v -0.138750702 0.905607224 -0.122022763
v 0.160202816 0.954234242 -0.061196797
v -0.194927543 0.837217927 -0.056556977
v -0.140578896 0.728647411 -0.098270208
v 0.183135778 0.803307056 0.051514953
v 0.154075652 0.953541100 -0.074364141
v -0.201197743 0.827770710 -0.040187389
v 0.043433923 0.812133968 -0.112065986
v -0.097049884 0.700320005 -0.099695221
v -0.023315933 0.710689723 -0.075776234
v 0.147395521 0.952941716 -0.087425604
v -0.199224204 0.840413928 -0.033172809
v 0.184338152 0.853061974 0.023244824
v -0.012029087 0.761336029 0.048471358
v 0.128753871 0.951727867 -0.109256171
v 0.184247389 0.834567547 0.034150463
v -0.058552127 0.828756988 0.058856744
v -0.108192623 0.725898623 -0.108660258
v -0.078158811 0.705818117 -0.094164386
v 0.049971215 0.736932755 -0.091175988
v -0.091805696 0.733787656 -0.104894064
v -0.060956527 0.719397247 -0.090874895
v -0.058024801 0.703608155 -0.086604908
v 0.071161821 0.758346856 -0.100959815
v 0.055772465 0.799613833 -0.107097827
v -0.179505542 0.815350711 0.050434917
v 0.050727159 0.848019481 0.059056301
v 0.043437589 0.831639886 0.055871915
v -0.177202359 0.831167221 0.045410845
v 0.038444091 0.815164208 0.053698935
v -0.031570993 0.826038837 -0.119940422
v 0.093807295 0.787950695 -0.109999970
v -0.159155548 0.840167224 0.058555000
v -0.059713513 0.745640576 -0.096570544
v -0.064511202 0.732933462 -0.095412560
v 0.102355495 0.749723792 -0.109134570
v -0.158183485 0.822895408 0.062512726
v -0.040788516 0.719811261 -0.084079087
v 0.117910944 0.951461017 -0.117331125
v 0.118872806 0.763888836 -0.114148065
v -0.048550062 0.735163093 -0.090502962
v -0.137896508 0.832569301 0.065607242
v -0.044410970 0.757120252 -0.093631074
v 0.104790434 0.950464249 -0.123318791
v -0.030339062 0.739917040 -0.086362913
v 0.109712958 0.730665803 -0.109385848
v -0.208563715 0.714529097 0.009719175
v -0.200481847 0.705283225 0.030137628
v 0.135196775 0.760801852 -0.106030881
v -0.130673021 0.818166137 0.071041204
v -0.113994017 0.827157795 0.072472334
v 0.113975123 0.796554446 -0.115524471
v -0.063725665 0.875152767 0.061489303
v -0.055747461 0.950273991 0.078642689
v -0.103520311 0.809405327 0.077354550
v 0.134674996 0.791238368 -0.109814718
v -0.091849968 0.823092163 0.071345873
v -0.074686021 0.861605048 0.062538475
v 0.169584960 0.796423554 -0.094799280
v -0.080149859 0.808545232 0.066200800
v 0.108582184 0.894970417 -0.139870480
v -0.065289102 0.845243096 0.060994901
v -0.086629257 0.849863648 0.066652574
v 0.185415238 0.791185737 -0.079931147
v -0.079724208 0.834926248 0.065081462
v 0.183545023 0.747896969 -0.075242139
v 0.190302402 0.759629726 -0.066543847
v -0.073837265 0.821374059 0.063555911
v -0.058800042 0.811795413 0.058577824
v -0.100149050 0.838757634 0.071893260
v -0.018880062 0.822624326 0.051533569
v -0.107285440 0.852332234 0.065668948
v -0.096417934 0.863934875 0.061273508
v 0.196181536 0.788951516 -0.061562281
v 0.208831578 0.768286049 -0.037731953
v -0.052582216 0.858112931 0.060174294
v -0.120686308 0.841177285 0.066684172
v -0.034770582 0.763534844 0.052031219
v -0.117590211 0.865001202 0.057707526
v 0.198575780 0.772293746 -0.055840451
v -0.131876022 0.877383113 0.048655704
v 0.210151434 0.766614974 -0.017915655
v -0.156566292 0.855468750 0.053083677
v 0.207955211 0.798747957 -0.022065455
v -0.140348211 0.847140968 0.060118217
v -0.053958058 0.889776886 0.063108675
v -0.152659640 0.870408714 0.047981530
v 0.209759757 0.736808181 -0.013920931
v -0.057733189 0.920380592 0.065944500
v -0.005522674 0.824786782 -0.116685569
v -0.053873103 0.935526192 0.070880868
v -0.163225263 0.874036193 0.033749245
v -0.188231796 0.838863552 0.026367942
v -0.036395103 0.938170791 0.074636333
v -0.005397611 0.835450053 -0.124087036
v -0.084674321 0.951020598 0.072708562
v -0.202401355 0.832422733 0.008038709
v 0.073100582 0.870528996 -0.148858219
v 0.112026133 0.927708328 -0.130679101
v -0.179772988 0.880490661 0.006163553
v -0.070261955 0.950700760 0.075853840
v 0.210155994 0.796705544 0.003284843
v 0.090219460 0.949522316 -0.126793638
v -0.170196474 0.916824341 -0.019652231
v 0.202157140 0.808473706 0.018758863
v -0.200022742 0.842858970 -0.011472018
v -0.193734989 0.859513402 -0.010857184
v -0.186540425 0.874607205 -0.013154586
v 0.075188741 0.949002087 -0.129154459
v 0.201575607 0.836861253 -0.001997964
v 0.059802949 0.948721528 -0.130297452
v -0.075932279 0.891296208 0.060574390
v -0.020319959 0.900309861 -0.141342670
v 0.193816528 0.801155746 0.035613373
v 0.044263419 0.948389828 -0.130448774
v 0.054067850 0.937143207 -0.136529535
v 0.209703773 0.731121898 0.011219062
v -0.071930945 0.936006665 0.067573786
v -0.024557848 0.885127246 -0.142352715
v -0.193340063 0.854627728 -0.046923753
v -0.166238755 0.920849442 -0.074863501
v -0.085485391 0.876928210 0.059734803
v 0.028265154 0.947753787 -0.129146352
v -0.185404018 0.852888584 -0.067052677
v 0.012174631 0.946774304 -0.126957446
v -0.161291555 0.854139507 -0.098940864
v 0.194145828 0.736761451 0.047209200
v -0.175772086 0.846822739 -0.086672015
v 0.011983440 0.937130153 -0.131117612
v -0.004240537 0.946098447 -0.125916153
v 0.190991700 0.786364138 0.046228282
v 0.188345402 0.768945098 0.054925360
v 0.079048701 0.843276381 -0.141739756
v 0.021437993 0.930177093 0.073728696
v -0.163144544 0.871596634 -0.097008944
v -0.161226571 0.837251842 -0.098674081
v -0.158417284 0.939252019 -0.079479598
v 0.062909693 0.856860816 -0.145143718
v 0.173548326 0.784544468 0.064911447
v -0.142834559 0.843208909 -0.111192286
v -0.049089704 0.689928651 -0.078848340
v -0.114278756 0.846128762 -0.132956177
v -0.062824868 0.688512564 -0.084063366
v -0.076564662 0.687027991 -0.089259796
v -0.122048639 0.837170720 -0.121611953
v 0.152673244 0.773451924 0.071074814
v 0.167480364 0.761733055 0.066318482
v -0.090297252 0.685466647 -0.094389394
v 0.161503732 0.742139697 0.068339370
v -0.119172752 0.880963922 -0.136347786
v 0.041353509 0.925409675 0.069731534
v 0.027852621 0.914425015 0.068991855
v -0.104135379 0.683870912 -0.098923042
v 0.153155044 0.792781830 0.069382533
v -0.112381421 0.862664521 -0.137690112
v 0.134971291 0.796003699 0.073674038
v 0.145292982 0.754662275 0.073193185
v -0.118929982 0.683208466 -0.096920498
v 0.004770811 0.860110402 0.061323423
v 0.004893347 0.847985387 0.056415755
v -0.095482536 0.846956551 -0.139647022
v -0.132007539 0.683299243 -0.091000967
v -0.082310006 0.889661193 -0.148074344
v -0.102671601 0.833170891 -0.130201653
v -0.144441172 0.683259845 -0.085339122
v -0.157699928 0.683877587 -0.079505838
v -0.171075687 0.684122264 -0.073749013
v -0.040941890 0.838574588 0.055930216
v -0.017674848 0.838796258 0.054112613
v 0.091845460 0.768356919 0.071415633
v 0.096031681 0.753529191 0.072307676
v -0.182238922 0.684820533 -0.063995548
v -0.191150725 0.685631931 -0.052481722
v -0.019777447 0.791098118 0.050111871
v 0.077685997 0.761330545 0.065344140
v 0.058873463 0.771118164 0.058584042
v -0.199955940 0.686245322 -0.041068364
v -0.079342991 0.873426080 -0.148720086
v 0.082889557 0.793431640 0.068785027
v -0.205844164 0.686733902 -0.027894953
v -0.043708943 0.781648338 0.054482751
v 0.038079742 0.769820631 0.052838527
v -0.022774393 0.749245167 0.048754606
v -0.098854527 0.876536727 -0.143967271
v 0.036250837 0.735208750 0.049782980
v -0.057070814 0.765114963 0.057748210
v 0.074794769 0.821309745 0.064420581
v -0.022733059 0.724495828 0.046472266
v -0.045188956 0.727461398 0.051703475
v -0.059683543 0.895261765 -0.147790343
v -0.075381115 0.904930711 -0.148280621
v -0.062946476 0.795906901 0.060242899
v -0.060455929 0.913854718 -0.145605907
v 0.085884713 0.898566246 -0.147374824
v -0.205820948 0.687082052 -0.013503410
v 0.087414853 0.809272110 0.070298225
v -0.067241207 0.731559277 0.058891315
v -0.086267635 0.793966889 0.069670320
v 0.092668816 0.880780816 -0.146066844
v -0.069648631 0.750601232 0.061035670
v -0.079057835 0.766541123 0.065622792
v -0.066760823 0.905941844 0.063181356
v 0.068245389 0.741022468 -0.098298602
v -0.044358313 0.904886842 0.066208497
v 0.105187163 0.814475179 0.078012921
v -0.087926582 0.754644632 0.068599865
v 0.130719632 0.893704295 -0.130397543
v -0.205783159 0.687293351 -0.000034882
v -0.019146888 0.806693196 0.050149404
v 0.087857023 0.733013570 -0.102987722
v -0.199723750 0.688633084 0.027498791
v -0.120328411 0.776359439 0.079399467
v 0.083437823 0.747971237 -0.103439137
v -0.193579540 0.688732445 0.040630721
v -0.101296924 0.764856160 0.074579224
v 0.121296488 0.805181384 0.076107465
v 0.124147534 0.821843624 0.072304472
v 0.120920599 0.910476089 -0.132349163
v -0.185732558 0.688442767 0.053314280
v -0.107778870 0.792035699 0.078347392
v -0.172083825 0.688021839 0.059061848
v -0.122381285 0.759741783 0.080027238
v -0.158301622 0.687345147 0.064712025
v -0.144410342 0.686159790 0.070338890
v -0.129081488 0.789964736 0.075507186
v -0.142193243 0.767320514 0.073735610
v -0.131276280 0.685812116 0.075601593
v 0.142848417 0.812274933 0.069094643
v -0.145101935 0.782036304 0.072255366
v -0.115324475 0.685306609 0.074461564
v -0.101004735 0.685046732 0.068674237
v 0.129725873 0.724666059 -0.102444828
v -0.146501988 0.796379447 0.070197776
v 0.177198797 0.820991039 0.051068705
v 0.130195469 0.737241685 -0.104580626
v 0.148620576 0.937836170 -0.100333214
v -0.086520813 0.684724152 0.062815145
v -0.140548825 0.752885103 0.074339844
v -0.071907386 0.684417784 0.056905381
v 0.122942664 0.939599037 -0.121674135
v -0.057333134 0.684254110 0.050522476
v -0.042494632 0.684280515 0.044713814
v 0.189297915 0.816319585 0.034313776
v 0.139471680 0.908773780 -0.120172180
v -0.027338494 0.684416652 0.039730925
v -0.011785419 0.684317172 0.036600456
v -0.164066762 0.806169212 0.063748166
v -0.004397900 0.696067750 0.030700672
v -0.164305061 0.774305105 0.067010842
v 0.144955024 0.733415544 -0.096671164
v 0.149964571 0.893514335 -0.112056278
v 0.198655516 0.825418591 0.017083835
v -0.182702765 0.799124599 0.054459952
v -0.184129789 0.764917791 0.060452081
v -0.185644507 0.782325983 0.056619179
v -0.046071406 0.810355783 -0.111410186
v 0.161289841 0.729673266 -0.087705098
v 0.200915739 0.833951652 -0.022829739
v 0.143878609 0.923210979 -0.110700414
v 0.009157794 0.837016463 -0.125287890
v -0.056791168 0.822819054 -0.121237315
v 0.063844219 0.812576950 -0.114969335
v -0.040858518 0.800414205 0.053818844
v 0.205441073 0.816586494 -0.006162502
v -0.195888028 0.772491217 0.038915426
v -0.202647254 0.801839530 0.020655667
v -0.168087065 0.861297011 0.037496865
v 0.180072606 0.732372880 -0.076868221
v -0.207116514 0.764838815 0.019826731
v 0.124553762 0.932788491 0.058110289
v 0.203616112 0.817096889 -0.031738762
v -0.206567407 0.783177197 0.018782597
v -0.210121363 0.794118822 -0.002394234
v -0.206821412 0.805675209 -0.020038608
v 0.189855710 0.725396276 -0.061812889
v 0.204190329 0.803483188 -0.047653850
v -0.210965633 0.755877972 -0.001294604
v -0.188054562 0.865922749 0.007336669
v 0.153996482 0.908744454 -0.104246423
v -0.026435012 0.949872017 0.082217395
v 0.197398722 0.820399761 -0.055794895
v 0.185699552 0.824249744 -0.076691851
v -0.087650038 0.860170960 -0.145242974
v -0.064352691 0.861027122 -0.146878198
v 0.193044156 0.742122650 -0.061181318
v -0.210508555 0.774349451 -0.007503252
v 0.199572086 0.717339814 -0.047016535
v 0.192947507 0.805927634 -0.066936903
v -0.020432303 0.947459579 -0.128192782
v -0.036407210 0.948597908 -0.130314320
v 0.163952142 0.895205617 -0.090733536
v 0.023972411 0.827495754 0.052820235
v -0.052243184 0.949045837 -0.130323842
v -0.039862465 0.818328202 0.053939670
v 0.182682469 0.806722641 -0.083532691
v 0.170104206 0.814774692 -0.095111772
v -0.067768797 0.949599922 -0.129819632
v 0.163362294 0.913268566 -0.086083621
v -0.210147783 0.758501470 -0.024331797
v -0.082925476 0.950095773 -0.127841413
v -0.089080460 0.935808003 -0.135856614
v -0.188747719 0.866821110 -0.032511197
v -0.097533330 0.951066315 -0.124897763
v -0.111522093 0.952107787 -0.119987860
v 0.151293531 0.804571152 -0.103157982
v -0.204086572 0.800739884 -0.049349301
v -0.183561459 0.870839775 -0.057377297
v -0.170955524 0.880383670 -0.076978520
v -0.208776325 0.771531284 -0.036845718
v 0.172584027 0.902725041 -0.070346951
v 0.160951003 0.940576255 -0.072282098
v -0.204565734 0.726784647 -0.043057822
v 0.056794506 0.818298936 0.058439195
v 0.130863145 0.806748092 -0.112266801
v -0.070230290 0.845169365 -0.142902404
v -0.190883115 0.807383358 -0.070775077
v 0.166303426 0.936523616 -0.056583334
v -0.084067509 0.834297478 -0.135837048
v -0.191166744 0.721648157 -0.059771311
v 0.113714337 0.811758161 -0.115334891
v -0.196500272 0.765903771 -0.059094399
v -0.181108862 0.762465775 -0.081790820
v 0.169237122 0.934987187 -0.039283093
v -0.189843133 0.776496232 -0.070179932
v -0.180516079 0.797177911 -0.088018999
v 0.173849910 0.901671529 -0.030910041
v -0.176004276 0.744482517 -0.084059447
v -0.023463150 0.755818963 -0.089506470
v 0.077756658 0.801423907 -0.111065567
v -0.123641208 0.952679634 -0.112453207
v -0.134298697 0.953551888 -0.103903569
v -0.161748707 0.803932548 -0.099051774
v -0.161534637 0.787370086 -0.098394983
v -0.161783427 0.770594954 -0.095584407
v -0.160543770 0.754088700 -0.093165495
v -0.135057047 0.871025085 -0.127252564
v 0.070868485 0.850830078 0.063643619
v 0.205478460 0.735468626 -0.042807691
v -0.151252478 0.954738498 -0.080186613
v -0.157277048 0.955261230 -0.066892035
v 0.210004061 0.751635075 -0.029742796
v -0.006598978 0.692507625 -0.066902354
v -0.162219793 0.955758452 -0.053120084
v 0.174083024 0.904446244 -0.008624705
v -0.164819062 0.955830753 -0.038723666
v -0.167069346 0.955926120 -0.024234001
v -0.167280585 0.955737948 -0.010517889
v 0.199979737 0.833147645 -0.043066449
v 0.167782545 0.939301312 -0.023965742
v -0.167626172 0.955447674 0.004182537
v -0.161140114 0.954709649 0.017185414
v -0.153374076 0.954198658 0.029544702
v 0.045389179 0.835410237 -0.130378857
v -0.145378277 0.953480899 0.041667935
v 0.166428208 0.935407460 -0.007984243
v -0.137806833 0.952503562 0.054065108
v -0.141945601 0.745205343 -0.100601815
v 0.166554183 0.898262382 0.009626171
v 0.013045100 0.788031161 -0.098013647
v -0.006042379 0.777775884 -0.094433069
v -0.005852253 0.790423095 -0.098099619
v 0.136102736 0.938000202 -0.111340381
v -0.142853022 0.761684060 -0.102942422
v -0.005753215 0.802380562 -0.103417918
v -0.142105386 0.795379102 -0.107329652
v 0.011109093 0.801873088 -0.103333451
v -0.005628490 0.813831449 -0.109655641
v -0.125706494 0.951442420 0.062277447
v 0.155005097 0.824391961 -0.101888917
v 0.165270567 0.936355233 0.010004208
v -0.125323877 0.752121806 -0.109749451
v -0.112839356 0.951193511 0.066381216
v -0.098976806 0.951174915 0.069477059
v 0.149396330 0.925028145 0.022084240
v 0.041578263 0.890423596 -0.145058379
v -0.142814606 0.778382719 -0.105806604
v -0.121556267 0.805466354 -0.116519511
v 0.155620307 0.941110969 0.022990776
v -0.124627925 0.768896937 -0.112902805
v 0.157683656 0.890626073 0.025225859
v -0.104693808 0.760076106 -0.111346141
v 0.005226900 0.810010612 0.049292333
v -0.089280888 0.937785923 0.064069383
v 0.137009084 0.940280259 0.048637863
v 0.138911813 0.926437974 0.044695906
v 0.142567605 0.939521134 0.033588473
v -0.088633381 0.751261830 -0.105704919
v -0.102316901 0.776839018 -0.112130806
v -0.083306350 0.767924368 -0.106243074
v 0.055956513 0.742940545 0.055945646
v -0.101554155 0.793619752 -0.112602100
v 0.044811789 0.923017383 -0.140654355
v -0.079992577 0.784447789 -0.107096553
v 0.021275254 0.915281296 -0.138886884
v -0.043351226 0.883156002 -0.145750895
v -0.040359579 0.903076649 -0.144918486
v 0.210965514 0.747633100 0.007505015
v 0.196612448 0.755241156 0.042292159
v -0.055542130 0.776653171 -0.100123286
v -0.059844755 0.795785308 -0.106303647
v -0.143472135 0.954126060 -0.092414774
v 0.149118692 0.899159253 0.035803504
v 0.137600526 0.897359252 0.050545491
v -0.207425788 0.700281739 0.008282406
v 0.176790833 0.729360223 0.061651595
v 0.182523370 0.749029994 0.061501317
v -0.205671042 0.688187361 0.014223072
v 0.126415595 0.912636757 0.054811615
v -0.039036777 0.703539729 -0.078415319
v -0.035652004 0.691505909 -0.072863206
v 0.024244050 0.719557941 0.045791782
v -0.021529859 0.692537427 -0.068471968
v 0.000695525 0.947253048 0.090434738
v 0.060702078 0.916322887 -0.144533619
v -0.011838755 0.949764609 0.083846524
v -0.013330829 0.712717772 0.043619208
v 0.139898777 0.736221373 0.075355880
v 0.036758736 0.939177990 0.075283840
v 0.094072811 0.701779008 0.067858987
v 0.082093857 0.712395310 0.063888893
v 0.114334479 0.711774766 0.076705933
v 0.044448502 0.871183097 -0.145200416
v 0.136132836 0.717710853 0.075327419
v 0.064431593 0.713737369 0.056932420
v 0.207571790 0.714705110 0.016892102
v 0.117030263 0.891759038 0.048528098
v 0.106463969 0.906199634 0.051093597
v 0.167767271 0.918263555 0.005368949
v 0.117182232 0.729012370 0.079156823
v 0.170261696 0.920195937 -0.022270622
v 0.172653288 0.915562153 -0.048253041
v 0.053835738 0.937386811 0.071753979
v 0.098243132 0.737048805 0.072073236
v 0.119944833 0.749027073 0.080871381
v 0.167844936 0.922808528 -0.069755442
v 0.158452451 0.931381106 -0.085598335
v 0.098204456 0.720160306 0.070909396
v 0.155092329 0.922949672 -0.098202594
v 0.186244860 0.709054291 -0.063113190
v 0.169270828 0.714512944 -0.080507874
v 0.076980472 0.743489385 0.063931882
v 0.143746942 0.714597464 -0.093300268
v 0.129966080 0.924515247 -0.122772969
v 0.079941384 0.726896048 0.064100817
v 0.118734732 0.785432935 0.079086579
v 0.156417102 0.722707629 0.068201378
v 0.191493899 0.718677461 0.050499219
v 0.200971961 0.725104868 0.032031916
v 0.207279831 0.786079586 -0.043320253
v 0.153537780 0.785154581 -0.101170123
v 0.059636712 0.728824377 0.056066763
v 0.136402681 0.775225341 -0.107921563
v 0.208631471 0.721953392 -0.026109392
v 0.208888054 0.719568610 -0.004362882
v 0.045101698 0.754597008 0.053595401
v 0.020250402 0.769708157 0.049740653
v 0.090310887 0.912258446 0.057398904
v 0.070788898 0.936461151 0.067964211
v 0.025407240 0.784428716 0.050830632
v 0.039135911 0.861501336 0.060231775
v 0.027646247 0.844467163 0.056100793
v 0.017835407 0.721636891 -0.078686960
v 0.059790384 0.922533154 0.066071674
v 0.035116185 0.750811338 -0.090332493
v 0.036107711 0.901312172 0.066741474
v 0.049067993 0.910184026 0.066325337
v 0.019579735 0.900429904 0.067403719
v 0.032527901 0.707317770 -0.077081531
v 0.053459525 0.754531026 -0.095446557
v 0.081058159 0.836891353 0.066249706
v 0.202230528 0.790229142 0.026050383
v 0.183641076 0.859106183 -0.065288238
v 0.054878723 0.704905689 -0.085434899
v 0.171991736 0.778288782 -0.091550000
v 0.119978830 0.838686943 -0.122726403
v 0.115923181 0.780574203 -0.115368709
v 0.079054512 0.702342808 -0.093422353
v 0.048277169 0.785017669 -0.100868881
v 0.034218688 0.824857593 -0.119398832
v 0.118157610 0.712065339 -0.104714014
v 0.102285430 0.699467599 -0.100882992
v 0.093804598 0.931524456 -0.136206567
v 0.076314323 0.921676815 0.062274367
v 0.070995919 0.903494179 0.062562779
v 0.127091825 0.697505593 -0.096695863
v 0.030977359 0.887947679 0.065604635
v 0.046766412 0.877413154 0.062986501
v 0.072608978 0.931546986 -0.139002413
v 0.150544703 0.698062181 -0.086065970
v 0.171654373 0.832425475 -0.094370350
v 0.019061696 0.864500701 -0.139133185
v 0.171783075 0.743111849 -0.085292347
v 0.171638221 0.697701514 -0.075771414
v 0.014429286 0.774138749 -0.093842581
v 0.185285270 0.694842279 -0.061433434
v 0.026839700 0.837807298 -0.127712220
v 0.197262838 0.699887931 -0.046606079
v 0.207270458 0.708558440 -0.034232289
v 0.069597386 0.805333316 0.062815964
v 0.101256803 0.913386345 -0.140064687
v 0.080671802 0.916165948 -0.144184113
v 0.014579979 0.825270057 -0.117470860
v 0.207909629 0.706329703 -0.015809372
v 0.123052038 0.748611569 -0.109933242
v 0.210558861 0.753175139 -0.010417752
v 0.203935951 0.742583692 0.028046936
v 0.157739893 0.747794688 -0.092911102
v 0.141292006 0.748699963 -0.101067863
v 0.198127478 0.706358135 0.035418954
v 0.151049435 0.887767792 0.043928012
v 0.178840205 0.887673199 0.001467251
v 0.202499837 0.754568934 -0.050015010
v 0.043077484 0.721071243 -0.084969021
v 0.171941221 0.708356380 0.061231501
v 0.091380872 0.824728310 0.071681365
v 0.210777968 0.764732897 0.002244837
v 0.205945730 0.760116041 0.022818834
v 0.087847069 0.760253429 -0.105947867
v 0.151437774 0.703166604 0.068755671
v 0.116446160 0.875729859 -0.137274474
v 0.005118532 0.822747529 0.050769381
v 0.005866836 0.758988678 0.047917902
v 0.063094422 0.754984796 0.059242047
v 0.131426409 0.700980484 0.076480687
v 0.140718862 0.879602313 -0.122493193
v 0.005377269 0.797260821 0.048350312
v 0.005017799 0.835449338 0.052989922
v 0.111551359 0.696978450 0.074467003
v 0.025085801 0.873580754 0.064255789
v 0.004675956 0.872928798 0.064771608
v 0.107190371 0.923233986 0.054781329
v 0.073347852 0.699491739 0.059262626
v 0.107018709 0.939240098 0.060913097
v 0.207506627 0.702795923 0.001949908
v 0.108276151 0.828304946 0.073686525
v 0.030708248 0.932178795 -0.135527641
v 0.052616470 0.699819386 0.050055437
v 0.062567547 0.901662946 -0.147593960
v 0.030513162 0.702434599 0.042894326
v 0.044438355 0.716486454 0.050098281
v 0.037971180 0.851959229 -0.138927773
v 0.020028222 0.859472156 0.060266428
v 0.025103122 0.751998484 0.048973862
v 0.006023644 0.746335328 0.046690162
v 0.005645596 0.784422457 0.048854578
v 0.207184240 0.696325719 -0.028307527
v 0.005761431 0.771669567 0.048780296
v 0.068269119 0.721629798 -0.093597800
v 0.083759621 0.816466510 -0.119102418
v 0.103149667 0.825239658 -0.122035958
v 0.157925680 0.826162159 0.062548026
v 0.101434305 0.797859728 0.076618463
v 0.164856523 0.807541370 0.063839495
v 0.093641460 0.716221929 -0.101201810
v 0.205312520 0.699558675 0.019569345
f 555 540 123
f 389 162 497
f 567 540 568
f 583 104 251
f 463 489 430
f 453 94 255
f 483 484 162
f 446 640 671
f 574 577 251
f 50 244 238
f 52 244 50
f 575 57 53
f 55 249 52
f 55 2 250
f 577 248 563
f 575 437 432
f 57 597 589
f 2 265 262
f 589 592 57
f 262 259 2
f 5 267 262
f 602 606 589
f 5 9 11
f 58 606 610
f 11 272 5
f 12 278 11
f 565 793 8
f 630 60 632
f 13 425 12
f 424 289 160
f 289 424 13
f 643 649 60
f 181 403 179
f 483 206 484
f 163 651 174
f 53 563 558
f 651 65 650
f 163 389 384
f 683 66 65
f 455 558 563
f 165 384 171
f 340 331 34
f 67 66 683
f 206 470 63
f 385 102 856
f 67 702 70
f 344 340 696
f 179 403 406
f 710 70 702
f 16 352 14
f 111 112 59
f 63 64 655
f 18 368 16
f 710 742 753
f 119 112 111
f 394 671 545
f 551 922 903
f 19 375 18
f 753 740 711
f 406 470 179
f 261 615 108
f 545 453 439
f 178 386 530
f 24 386 23
f 72 753 742
f 26 396 24
f 768 765 72
f 119 142 112
f 32 63 470
f 112 142 161
f 399 400 396
f 154 343 182
f 545 671 448
f 399 415 400
f 768 770 765
f 32 406 410
f 418 415 399
f 770 183 777
f 387 300 166
f 415 418 422
f 105 86 299
f 169 42 839
f 170 142 119
f 173 172 705
f 329 638 343
f 134 738 737
f 185 638 329
f 692 661 145
f 150 74 741
f 637 345 873
f 132 145 661
f 170 184 142
f 138 495 760
f 138 136 188
f 136 194 188
f 201 87 194
f 270 87 205
f 216 49 210
f 46 216 724
f 198 184 170
f 43 96 907
f 219 39 218
f 45 43 41
f 224 37 219
f 498 224 514
f 86 105 342
f 225 36 514
f 378 107 110
f 80 233 107
f 22 41 43
f 198 217 849
f 41 581 45
f 103 233 76
f 76 40 103
f 222 217 214
f 678 100 40
f 98 41 22
f 366 41 98
f 40 76 678
f 215 4 284
f 215 98 21
f 537 536 92
f 222 234 217
f 904 537 92
f 460 462 30
f 284 471 366
f 222 239 246
f 586 903 759
f 462 28 30
f 246 234 222
f 454 449 28
f 237 391 924
f 560 319 921
f 246 888 252
f 431 471 282
f 455 560 391
f 319 560 241
f 50 238 793
f 50 566 52
f 52 574 55
f 258 263 510
f 244 52 249
f 55 253 2
f 284 792 657
f 303 670 667
f 303 100 674
f 250 249 55
f 273 274 252
f 251 253 574
f 100 303 301
f 301 570 100
f 104 261 257
f 677 100 678
f 273 285 274
f 257 2 253
f 2 257 265
f 250 2 259
f 570 568 40
f 752 292 293
f 294 296 285
f 285 296 274
f 684 497 679
f 277 274 296
f 440 447 442
f 579 489 463
f 692 329 695
f 259 262 267
f 871 736 360
f 262 271 9
f 40 100 570
f 570 567 568
f 203 128 270
f 310 296 294
f 305 296 310
f 87 270 194
f 9 5 262
f 5 272 600
f 276 9 271
f 9 276 11
f 272 11 278
f 302 323 310
f 568 103 40
f 108 615 89
f 280 11 276
f 11 280 12
f 103 568 540
f 278 12 425
f 323 337 328
f 283 12 280
f 12 283 13
f 283 297 289
f 289 13 283
f 540 561 231
f 425 13 424
f 209 288 205
f 291 125 286
f 346 337 323
f 49 304 288
f 173 350 351
f 297 654 314
f 347 158 864
f 304 47 311
f 47 304 49
f 47 46 481
f 360 361 855
f 501 684 146
f 481 311 47
f 46 39 481
f 343 695 329
f 314 289 297
f 289 314 160
f 481 321 308
f 481 39 321
f 325 122 321
f 325 321 37
f 37 321 39
f 333 160 314
f 324 266 333
f 527 107 231
f 84 121 325
f 36 327 498
f 160 333 34
f 327 120 84
f 36 82 371
f 277 393 390
f 689 34 333
f 34 689 340
f 313 34 331
f 266 334 689
f 334 260 341
f 340 335 331
f 107 527 110
f 54 404 405
f 696 14 344
f 61 401 44
f 38 299 407
f 358 14 348
f 14 358 16
f 344 14 352
f 356 704 712
f 352 16 368
f 413 62 417
f 370 16 358
f 16 370 18
f 175 705 134
f 713 115 110
f 371 27 378
f 27 371 82
f 381 18 370
f 18 381 19
f 368 18 375
f 80 378 27
f 19 381 235
f 19 395 23
f 19 23 178
f 202 506 913
f 23 395 24
f 386 24 396
f 398 24 395
f 24 398 26
f 26 398 220
f 26 412 399
f 396 26 399
f 418 399 412
f 164 180 444
f 444 443 164
f 175 173 705
f 685 84 120
f 422 300 415
f 685 121 84
f 172 169 300
f 172 300 422
f 78 80 27
f 226 365 78
f 89 615 114
f 240 485 309
f 134 737 175
f 226 27 82
f 245 459 452
f 187 186 140
f 243 459 245
f 189 187 130
f 581 466 579
f 467 472 637
f 308 122 240
f 138 579 466
f 430 255 463
f 499 435 430
f 453 430 435
f 435 440 439
f 435 499 450
f 243 479 281
f 308 321 122
f 897 438 584
f 439 453 435
f 243 281 893
f 450 440 435
f 480 859 865
f 440 449 447
f 442 439 440
f 450 449 440
f 447 449 454
f 492 488 493
f 127 458 456
f 449 456 28
f 82 225 708
f 454 28 462
f 28 456 30
f 456 450 127
f 30 456 458
f 225 82 36
f 30 464 460
f 506 507 502
f 126 469 125
f 287 508 509
f 207 507 506
f 410 460 32
f 126 306 477
f 460 464 644
f 644 32 460
f 32 644 63
f 475 31 576
f 470 406 32
f 64 63 644
f 306 309 477
f 125 464 458
f 528 795 511
f 516 523 524
f 655 206 63
f 206 655 484
f 206 474 470
f 162 679 497
f 316 322 822
f 313 160 34
f 37 498 325
f 523 316 534
f 497 684 501
f 501 146 505
f 146 512 503
f 505 503 513
f 263 515 510
f 512 120 115
f 503 512 91
f 517 513 503
f 115 713 91
f 458 203 125
f 315 547 548
f 91 512 115
f 547 330 336
f 91 713 88
f 517 88 522
f 552 548 547
f 532 88 713
f 88 532 519
f 552 336 553
f 522 519 541
f 527 231 561
f 127 128 458
f 538 660 692
f 514 36 498
f 224 498 37
f 538 692 695
f 114 626 631
f 553 342 105
f 219 37 39
f 555 660 561
f 127 450 499
f 891 199 824
f 660 555 661
f 218 39 46
f 199 97 886
f 366 98 284
f 22 21 98
f 41 366 581
f 43 232 22
f 907 232 43
f 96 536 907
f 45 463 255
f 45 581 463
f 255 94 96
f 255 96 45
f 94 453 545
f 448 546 545
f 582 593 594
f 595 584 438
f 216 46 47
f 216 47 49
f 551 640 558
f 558 640 569
f 49 288 209
f 793 565 50
f 569 53 558
f 566 50 565
f 209 210 49
f 841 351 350
f 574 52 566
f 578 53 57
f 612 609 423
f 53 578 563
f 575 53 569
f 597 432 211
f 253 55 574
f 57 575 597
f 578 57 592
f 592 583 578
f 627 609 612
f 584 621 628
f 603 589 606
f 602 589 597
f 634 819 627
f 610 606 602
f 835 318 229
f 626 606 58
f 610 624 58
f 58 624 630
f 632 58 630
f 634 884 869
f 58 632 626
f 60 642 632
f 642 60 649
f 60 630 181
f 650 649 643
f 662 652 645
f 656 628 621
f 621 636 656
f 658 659 204
f 64 644 469
f 466 495 138
f 694 377 700
f 468 471 431
f 663 650 65
f 628 656 668
f 679 162 484
f 65 686 663
f 672 673 659
f 686 65 66
f 683 65 651
f 468 431 478
f 683 693 67
f 685 146 684
f 146 685 512
f 696 340 689
f 66 67 701
f 473 495 478
f 66 698 686
f 702 67 693
f 668 675 687
f 701 698 66
f 405 690 54
f 701 67 70
f 54 690 564
f 14 696 348
f 711 70 710
f 699 70 711
f 702 709 710
f 229 318 236
f 657 282 471
f 710 709 742
f 753 756 740
f 756 753 72
f 742 754 72
f 72 754 768
f 72 765 756
f 766 765 770
f 490 193 496
f 130 772 496
f 770 776 766
f 15 719 168
f 87 201 148
f 183 770 768
f 201 194 136
f 422 705 172
f 633 777 338
f 777 633 150
f 408 74 633
f 638 185 408
f 106 730 258
f 688 379 694
f 275 631 118
f 185 692 145
f 197 750 749
f 736 737 738
f 263 258 730
f 738 741 743
f 185 145 143
f 743 741 744
f 744 741 74
f 744 467 879
f 132 140 145
f 123 132 661
f 741 738 150
f 123 540 567
f 773 772 567
f 738 134 150
f 78 27 226
f 238 623 1
f 264 279 779
f 776 150 134
f 134 705 420
f 695 541 538
f 104 599 261
f 365 681 680
f 761 762 763
f 365 678 76
f 76 78 365
f 411 156 420
f 156 411 220
f 541 519 538
f 220 764 156
f 76 233 78
f 80 78 233
f 168 789 387
f 70 699 701
f 398 395 228
f 434 437 445
f 779 780 887
f 428 432 434
f 926 317 706
f 197 749 745
f 213 6 4
f 279 785 780
f 419 427 428
f 148 201 745
f 454 462 419
f 526 782 783
f 381 734 235
f 410 414 419
f 493 769 913
f 511 4 215
f 4 511 213
f 406 414 410
f 208 731 729
f 21 511 215
f 210 728 727
f 794 800 823
f 511 21 529
f 470 474 179
f 724 218 46
f 227 110 115
f 118 280 275
f 219 218 722
f 806 800 794
f 803 804 256
f 716 778 225
f 224 219 720
f 407 86 690
f 356 734 381
f 389 497 380
f 809 795 528
f 810 806 811
f 717 716 514
f 497 501 380
f 317 697 429
f 810 818 821
f 913 771 202
f 341 698 699
f 373 376 159
f 369 177 373
f 341 260 698
f 260 334 266
f 365 226 681
f 517 522 354
f 828 821 818
f 354 362 364
f 569 640 446
f 519 522 88
f 767 828 818
f 266 324 676
f 602 597 211
f 804 834 256
f 121 240 122
f 345 868 918
f 610 602 211
f 169 839 166
f 427 195 211
f 643 179 174
f 683 651 165
f 693 683 171
f 627 884 634
f 324 654 676
f 846 397 841
f 841 397 374
f 362 709 369
f 580 397 846
f 192 188 190
f 192 499 489
f 128 192 190
f 270 205 203
f 205 288 286
f 291 306 126
f 208 148 733
f 288 304 291
f 304 311 306
f 311 481 308
f 286 125 203
f 283 118 297
f 589 599 592
f 283 280 118
f 227 115 120
f 747 805 732
f 707 226 82
f 107 378 80
f 275 114 631
f 118 646 297
f 89 114 275
f 231 233 103
f 87 209 205
f 816 872 870
f 271 108 89
f 248 560 455
f 248 241 560
f 108 271 265
f 566 565 241
f 86 876 690
f 622 244 619
f 517 91 88
f 574 566 248
f 715 662 889
f 244 249 618
f 249 250 614
f 882 465 718
f 253 251 257
f 774 465 882
f 250 259 608
f 883 494 774
f 921 391 560
f 259 267 604
f 54 564 847
f 251 577 583
f 600 267 5
f 89 276 271
f 503 91 517
f 690 405 407
f 275 276 89
f 892 573 582
f 272 278 596
f 248 577 574
f 280 276 275
f 425 588 591
f 425 424 781
f 781 313 572
f 424 313 781
f 572 585 781
f 314 654 324
f 136 197 201
f 313 557 572
f 237 551 558
f 554 331 335
f 334 341 348
f 760 136 138
f 335 344 549
f 341 699 704
f 348 696 334
f 921 319 7
f 358 348 704
f 344 352 544
f 912 582 594
f 903 586 551
f 352 368 543
f 381 370 356
f 368 375 539
f 788 8 3
f 535 375 178
f 221 795 809
f 828 767 562
f 559 833 920
f 921 920 899
f 546 448 898
f 903 922 836
f 38 903 299
f 235 228 395
f 405 669 407
f 546 92 94
f 400 518 520
f 92 546 904
f 639 35 926
f 386 396 525
f 927 926 33
f 928 605 930
f 200 490 298
f 94 545 546
f 96 92 536
f 927 56 852
f 143 472 408
f 220 412 26
f 400 520 521
f 412 220 411
f 109 113 152
f 920 832 559
f 418 412 411
f 152 113 746
f 387 789 786
f 420 418 411
f 746 161 867
f 418 420 422
f 490 773 298
f 496 772 773
f 394 442 445
f 562 767 832
f 739 636 820
f 204 725 658
f 773 490 496
f 725 223 635
f 447 454 428
f 472 186 637
f 215 284 98
f 189 130 496
f 458 464 30
f 410 462 460
f 125 469 464
f 635 247 487
f 487 269 629
f 641 487 629
f 268 269 487
f 269 393 629
f 390 269 268
f 469 126 64
f 349 761 763
f 655 64 477
f 303 674 670
f 290 393 277
f 611 290 928
f 163 474 483
f 928 307 605
f 635 641 648
f 531 605 533
f 677 674 100
f 477 309 485
f 506 202 207
f 679 485 240
f 240 121 684
f 312 912 594
f 684 679 240
f 121 685 684
f 186 187 345
f 503 505 146
f 912 332 892
f 772 130 132
f 685 120 512
f 501 505 159
f 725 648 658
f 505 513 373
f 513 517 364
f 892 847 564
f 110 527 713
f 714 847 339
f 522 541 154
f 51 714 346
f 231 103 540
f 714 51 404
f 541 695 343
f 567 772 123
f 502 500 506
f 578 577 563
f 867 659 673
f 577 578 583
f 597 575 432
f 592 104 583
f 913 492 493
f 845 167 839
f 599 104 592
f 386 178 23
f 599 603 615
f 110 227 378
f 615 261 599
f 706 402 639
f 603 626 114
f 132 123 772
f 624 610 195
f 409 706 317
f 746 673 682
f 114 615 603
f 120 327 227
f 624 414 403
f 691 429 697
f 642 631 632
f 642 118 631
f 429 433 853
f 646 118 642
f 642 649 646
f 152 682 691
f 682 433 691
f 181 643 60
f 654 297 646
f 122 325 121
f 140 130 187
f 421 416 617
f 123 661 555
f 309 308 240
f 698 260 686
f 702 693 177
f 698 701 699
f 672 441 436
f 291 126 125
f 109 691 697
f 143 140 186
f 874 872 816
f 665 441 672
f 188 192 489
f 665 658 653
f 712 704 699
f 653 451 665
f 927 697 317
f 712 740 734
f 648 461 653
f 178 375 19
f 923 880 116
f 641 461 648
f 740 756 748
f 748 758 228
f 926 706 639
f 479 641 482
f 754 742 362
f 354 754 362
f 407 669 38
f 203 458 128
f 482 629 620
f 756 765 758
f 182 754 154
f 128 127 192
f 254 246 252
f 611 382 620
f 764 398 228
f 499 192 127
f 764 766 156
f 766 776 156
f 930 611 928
f 420 156 776
f 140 132 130
f 788 7 8
f 387 166 168
f 420 776 134
f 136 760 197
f 300 387 415
f 750 197 760
f 745 201 197
f 148 208 209
f 733 148 745
f 258 35 106
f 593 533 605
f 731 208 733
f 236 318 910
f 729 210 208
f 728 210 729
f 727 216 210
f 188 489 579
f 929 573 556
f 724 216 727
f 573 929 582
f 723 218 724
f 722 218 723
f 720 219 722
f 717 224 720
f 514 224 717
f 188 579 138
f 876 556 573
f 707 681 226
f 898 904 546
f 472 143 186
f 212 795 221
f 899 391 921
f 854 925 931
f 213 795 212
f 140 143 145
f 404 54 714
f 833 922 924
f 415 387 786
f 143 408 185
f 238 3 793
f 1 3 238
f 31 799 752
f 622 238 244
f 918 799 515
f 380 376 171
f 915 752 357
f 617 476 421
f 619 244 618
f 618 249 616
f 616 249 614
f 636 739 613
f 388 613 10
f 614 250 608
f 357 791 915
f 383 688 388
f 608 259 607
f 571 438 576
f 295 667 666
f 92 96 94
f 607 259 604
f 372 726 700
f 667 295 303
f 367 726 372
f 604 267 601
f 298 295 207
f 923 875 880
f 363 732 367
f 408 467 74
f 148 209 87
f 298 301 295
f 359 747 363
f 601 267 600
f 359 355 755
f 600 272 598
f 598 272 596
f 353 755 355
f 301 298 773
f 596 278 591
f 747 755 751
f 591 278 425
f 588 425 781
f 388 688 813
f 769 771 913
f 763 353 349
f 202 771 200
f 506 500 913
f 74 467 744
f 773 570 301
f 82 708 707
f 320 647 326
f 500 492 913
f 331 554 557
f 242 910 320
f 344 335 340
f 910 908 647
f 554 335 550
f 239 222 703
f 549 550 335
f 549 344 544
f 166 167 168
f 544 352 543
f 543 368 542
f 17 15 167
f 17 845 157
f 907 536 919
f 157 850 155
f 155 850 153
f 542 368 539
f 150 633 74
f 153 854 151
f 151 854 149
f 149 858 147
f 147 862 144
f 539 375 535
f 759 903 38
f 530 535 178
f 144 862 141
f 141 866 139
f 139 866 137
f 530 386 525
f 137 870 135
f 525 396 521
f 135 870 872
f 133 872 131
f 131 874 129
f 129 923 117
f 923 874 875
f 170 119 902
f 521 396 400
f 20 932 101
f 99 101 932
f 99 886 97
f 95 97 199
f 95 891 93
f 93 896 90
f 518 400 786
f 90 896 85
f 85 901 83
f 83 905 81
f 169 166 300
f 81 905 79
f 77 79 796
f 77 909 75
f 439 394 545
f 75 914 73
f 73 914 71
f 71 916 69
f 442 394 439
f 468 466 366
f 442 447 434
f 7 562 920
f 794 534 811
f 924 899 833
f 434 447 428
f 428 454 419
f 419 462 410
f 38 898 759
f 902 111 897
f 466 468 495
f 526 524 534
f 25 59 56
f 96 43 45
f 895 401 61
f 182 343 338
f 483 389 163
f 483 162 389
f 897 59 25
f 883 894 775
f 776 777 150
f 59 897 111
f 380 384 389
f 774 882 893
f 111 902 119
f 778 708 225
f 501 159 380
f 167 166 839
f 159 505 373
f 176 191 867
f 373 513 369
f 364 369 513
f 850 890 925
f 354 364 517
f 354 522 154
f 177 369 709
f 154 541 343
f 446 445 437
f 376 380 159
f 204 223 725
f 217 198 214
f 214 703 222
f 437 569 446
f 610 211 195
f 414 624 195
f 403 630 624
f 889 718 715
f 160 313 424
f 181 630 403
f 888 246 239
f 179 643 181
f 174 650 643
f 651 650 174
f 163 384 165
f 487 247 268
f 165 651 163
f 171 683 165
f 174 474 163
f 557 313 331
f 475 515 799
f 376 693 171
f 285 273 757
f 177 693 376
f 627 885 884
f 174 179 474
f 509 508 516
f 294 302 310
f 709 702 177
f 709 362 742
f 154 754 354
f 182 338 183
f 780 785 803
f 183 768 182
f 423 413 881
f 183 338 777
f 638 338 343
f 633 638 408
f 590 401 895
f 692 185 329
f 190 188 194
f 515 475 25
f 270 190 194
f 190 270 128
f 195 427 414
f 7 788 562
f 915 878 571
f 877 595 438
f 203 205 286
f 44 48 61
f 474 206 483
f 210 209 208
f 61 62 895
f 413 895 62
f 211 432 427
f 172 42 169
f 398 764 220
f 515 263 918
f 437 575 569
f 228 758 764
f 124 885 426
f 175 871 350
f 84 498 327
f 225 514 716
f 327 371 227
f 918 263 730
f 898 448 759
f 371 327 36
f 839 374 890
f 227 371 378
f 451 441 665
f 228 235 748
f 444 180 457
f 233 231 107
f 187 868 345
f 759 448 586
f 189 292 868
f 734 748 235
f 653 461 826
f 924 922 237
f 292 193 196
f 446 671 394
f 461 641 479
f 922 551 237
f 391 237 455
f 482 641 629
f 918 868 799
f 196 200 293
f 771 293 200
f 558 455 237
f 281 287 894
f 894 893 281
f 248 566 241
f 257 251 104
f 255 430 453
f 257 261 265
f 509 775 287
f 260 266 676
f 509 516 524
f 265 261 108
f 523 516 531
f 322 316 523
f 273 252 888
f 265 271 262
f 811 534 316
f 316 315 811
f 676 686 260
f 366 466 581
f 478 495 468
f 330 547 315
f 547 336 552
f 366 471 468
f 760 495 473
f 657 471 284
f 336 342 553
f 553 900 552
f 832 900 553
f 865 878 791
f 792 284 4
f 31 571 576
f 286 288 291
f 438 571 877
f 906 864 863
f 4 790 792
f 8 7 319
f 303 295 301
f 291 304 306
f 570 773 567
f 739 617 392
f 617 416 392
f 306 311 309
f 309 311 308
f 170 628 668
f 613 739 10
f 739 392 10
f 656 675 668
f 656 815 675
f 680 678 365
f 813 613 388
f 324 333 314
f 687 198 668
f 379 688 383
f 295 666 207
f 815 656 636
f 377 694 379
f 325 498 84
f 689 333 266
f 334 696 689
f 700 377 372
f 861 834 860
f 703 721 239
f 732 726 367
f 834 861 256
f 348 341 704
f 747 732 363
f 356 358 704
f 735 888 721
f 370 358 356
f 735 264 757
f 735 273 888
f 755 747 359
f 369 364 362
f 353 763 755
f 647 761 326
f 761 349 326
f 376 373 177
f 779 757 264
f 780 779 279
f 384 380 171
f 235 395 19
f 736 871 737
f 562 788 917
f 910 647 320
f 785 804 803
f 414 406 403
f 256 323 803
f 813 675 815
f 415 786 400
f 427 419 414
f 422 420 705
f 432 428 427
f 430 489 499
f 587 580 590
f 437 434 432
f 445 442 434
f 446 394 445
f 671 586 448
f 819 609 627
f 456 449 450
f 455 563 248
f 865 791 769
f 581 579 463
f 645 652 817
f 644 464 469
f 652 662 715
f 874 923 129
f 715 664 652
f 694 812 688
f 477 64 126
f 750 760 473
f 485 655 477
f 465 715 718
f 507 207 666
f 465 774 494
f 865 486 480
f 812 675 813
f 485 484 655
f 207 202 298
f 883 504 825
f 493 865 769
f 783 782 504
f 679 484 485
f 202 200 298
f 196 490 200
f 196 193 490
f 877 859 476
f 302 803 323
f 189 496 193
f 814 806 810
f 168 719 789
f 821 814 810
f 391 899 924
f 713 527 532
f 467 408 472
f 302 294 887
f 786 787 518
f 538 519 532
f 561 532 527
f 926 35 33
f 538 532 660
f 540 555 561
f 551 586 640
f 319 241 565
f 660 532 561
f 113 161 746
f 161 176 867
f 8 319 565
f 223 247 635
f 781 585 784
f 620 629 393
f 887 780 302
f 269 390 393
f 671 640 586
f 781 784 588
f 599 589 603
f 393 290 611
f 626 603 606
f 928 290 305
f 623 238 622
f 625 1 623
f 774 893 894
f 312 332 912
f 626 632 631
f 332 339 847
f 847 892 332
f 757 887 285
f 847 714 54
f 793 3 8
f 732 807 726
f 858 931 857
f 675 812 687
f 168 167 15
f 273 735 757
f 920 921 7
f 402 385 639
f 167 845 17
f 638 633 338
f 646 649 663
f 650 663 649
f 845 850 157
f 888 239 721
f 663 654 646
f 706 409 48
f 850 854 153
f 676 654 663
f 429 409 317
f 661 692 660
f 854 858 149
f 676 663 686
f 858 862 147
f 433 429 691
f 678 680 677
f 699 711 712
f 712 734 356
f 711 710 753
f 862 866 141
f 712 711 740
f 682 436 827
f 734 740 748
f 866 870 137
f 214 687 808
f 748 756 758
f 664 816 652
f 872 133 135
f 198 687 214
f 754 182 768
f 872 874 131
f 665 659 658
f 758 765 766
f 658 648 653
f 766 764 758
f 776 770 777
f 668 198 170
f 117 923 116
f 787 786 789
f 929 330 822
f 533 822 322
f 556 336 330
f 531 322 523
f 899 920 833
f 662 444 889
f 346 323 256
f 491 482 620
f 116 880 911
f 911 20 116
f 382 491 620
f 911 932 20
f 932 886 99
f 645 443 662
f 930 382 611
f 382 930 516
f 886 824 199
f 605 531 930
f 491 508 848
f 628 170 902
f 256 347 346
f 482 848 479
f 891 896 93
f 347 256 861
f 820 617 739
f 866 819 817
f 605 594 593
f 896 901 85
f 929 593 582
f 612 881 885
f 901 905 83
f 826 451 653
f 451 457 180
f 672 659 665
f 441 180 851
f 79 905 796
f 436 673 672
f 436 851 827
f 909 914 75
f 682 673 436
f 914 916 71
f 584 902 897
f 876 86 342
f 69 916 1
f 829 433 827
f 700 808 694
f 788 3 916
f 853 829 417
f 409 61 48
f 402 48 855
f 870 817 816
f 855 29 360
f 874 816 664
f 385 361 102
f 830 880 875
f 576 897 25
f 819 634 817
f 68 69 1
f 106 856 730
f 743 736 738
f 910 242 236
f 862 857 819
f 744 879 102
f 880 830 831
f 840 528 843
f 401 846 44
f 803 302 780
f 769 791 357
f 878 915 791
f 831 911 880
f 918 873 345
f 576 25 475
f 799 31 475
f 841 29 846
f 879 856 102
f 106 639 385
f 573 564 876
f 911 831 802
f 342 556 876
f 337 339 332
f 25 510 515
f 350 29 841
f 564 573 892
f 892 582 912
f 510 25 56
f 864 906 837
f 312 328 337
f 929 822 593
f 33 35 258
f 871 360 29
f 840 860 835
f 864 158 863
f 29 855 44
f 916 914 917
f 808 687 812
f 594 307 312
f 307 305 328
f 916 917 788
f 33 56 927
f 840 835 809
f 307 594 605
f 736 743 361
f 531 516 930
f 290 277 305
f 852 109 927
f 318 835 860
f 21 844 529
f 852 59 112
f 620 393 611
f 102 743 744
f 112 113 852
f 751 763 762
f 647 785 762
f 805 747 751
f 252 268 254
f 230 835 229
f 487 641 635
f 637 879 467
f 124 851 164
f 809 230 221
f 161 142 176
f 807 732 805
f 247 234 254
f 230 809 835
f 808 700 807
f 345 637 186
f 176 184 191
f 812 694 808
f 204 849 223
f 849 204 191
f 813 688 812
f 635 648 725
f 849 184 198
f 815 613 813
f 815 636 613
f 217 223 849
f 659 191 204
f 217 234 223
f 191 184 849
f 859 480 421
f 795 213 511
f 245 461 243
f 878 865 859
f 802 886 932
f 191 659 867
f 452 718 889
f 223 234 247
f 176 142 184
f 246 254 234
f 865 493 486
f 293 771 357
f 268 247 254
f 771 769 357
f 805 264 735
f 268 252 390
f 161 113 112
f 486 493 488
f 390 252 274
f 867 673 746
f 264 751 279
f 274 277 390
f 746 682 152
f 281 848 287
f 827 433 682
f 808 703 214
f 152 691 109
f 109 852 113
f 476 859 421
f 296 305 277
f 476 595 877
f 305 307 928
f 196 293 292
f 595 476 820
f 726 807 700
f 752 293 357
f 307 328 312
f 310 328 305
f 56 59 852
f 292 752 799
f 328 310 323
f 886 825 824
f 312 337 332
f 807 703 808
f 891 824 782
f 193 292 189
f 844 21 22
f 429 853 409
f 109 697 927
f 56 33 510
f 105 559 553
f 339 337 346
f 346 714 339
f 51 346 347
f 317 926 927
f 564 690 876
f 863 844 232
f 799 868 292
f 510 33 258
f 843 528 529
f 844 863 842
f 861 840 843
f 861 158 347
f 861 860 840
f 752 915 31
f 158 843 842
f 843 158 861
f 842 529 844
f 919 837 906
f 906 232 907
f 809 528 840
f 730 873 918
f 730 856 873
f 873 856 879
f 856 106 385
f 817 634 645
f 837 919 838
f 817 652 816
f 919 906 907
f 919 536 537
f 743 102 361
f 904 669 838
f 898 669 904
f 669 898 38
f 703 807 721
f 405 404 838
f 669 405 838
f 922 833 836
f 294 285 887
f 361 385 402
f 869 645 634
f 830 875 664
f 916 3 1
f 864 51 347
f 402 855 361
f 909 801 914
f 397 890 374
f 48 44 855
f 796 909 77
f 879 637 873
f 901 798 905
f 580 925 397
f 48 402 706
f 896 800 901
f 891 823 896
f 409 62 61
f 853 62 409
f 881 413 417
f 417 62 853
f 86 407 299
f 459 893 882
f 199 891 95
f 830 465 831
f 829 426 417
f 426 829 124
f 426 881 417
f 124 829 827
f 433 829 853
f 886 802 825
f 774 894 883
f 851 124 827
f 164 884 124
f 441 851 436
f 180 164 851
f 443 869 164
f 911 802 932
f 715 830 664
f 874 664 875
f 736 361 360
f 451 180 441
f 457 452 889
f 889 444 457
f 866 817 870
f 106 35 639
f 459 718 452
f 826 452 457
f 452 826 245
f 451 826 457
f 862 819 866
f 858 857 862
f 461 245 826
f 459 882 718
f 479 243 461
f 854 931 858
f 850 925 854
f 846 401 580
f 845 890 850
f 491 848 482
f 848 281 479
f 825 494 883
f 382 508 491
f 900 832 767
f 508 287 848
f 896 823 800
f 839 890 845
f 504 782 824
f 42 374 839
f 516 508 382
f 908 910 318
f 534 524 523
f 552 818 548
f 42 172 173
f 901 800 798
f 818 552 900
f 533 322 531
f 871 175 737
f 868 187 189
f 22 232 844
f 593 822 533
f 822 315 316
f 929 556 330
f 330 315 822
f 838 919 537
f 904 838 537
f 318 860 834
f 908 318 834
f 465 830 715
f 556 342 336
f 105 836 559
f 833 559 836
f 29 44 846
f 908 834 804
f 562 917 828
f 299 836 105
f 818 900 767
f 832 553 559
f 562 832 920
f 811 315 548
f 828 801 821
f 801 828 917
f 821 797 814
f 836 299 903
f 401 590 580
f 797 821 801
f 905 798 796
f 796 814 797
f 810 548 818
f 814 798 806
f 798 814 796
f 909 796 797
f 811 548 810
f 413 587 590
f 404 51 837
f 51 864 837
f 837 838 404
f 909 797 801
f 529 842 843
f 158 842 863
f 232 906 863
f 800 806 798
f 529 528 511
f 794 811 806
f 785 908 804
f 785 647 908
f 859 877 878
f 526 534 794
f 877 571 878
f 571 31 915
f 173 351 42
f 524 783 509
f 350 173 175
f 29 350 871
f 823 526 794
f 783 524 526
f 526 823 782
f 42 351 374
f 841 374 351
f 504 775 783
f 509 783 775
f 782 823 891
f 885 124 884
f 887 757 779
f 914 801 917
f 426 885 881
f 890 397 925
f 825 504 824
f 775 504 883
f 925 587 931
f 587 925 580
f 802 494 825
f 785 279 762
f 494 831 465
f 831 494 802
f 894 287 775
f 590 895 413
f 438 897 576
f 884 164 869
f 762 279 751
f 423 931 587
f 587 413 423
f 931 423 857
f 762 761 647
f 617 820 476
f 595 820 621
f 751 755 763
f 893 459 243
f 751 264 805
f 609 857 423
f 423 881 612
f 662 443 444
f 721 805 735
f 621 584 595
f 857 609 819
f 443 645 869
f 612 885 627
f 636 621 820
f 628 902 584
f 805 721 807
