# Gate 6d generalise variant rad1.15 of the authored skirt (body space)
v -0.000539703 0.545012534 0.233941648
v -0.152416720 0.574712038 0.159219377
v -0.000498009 0.565383792 0.232671709
v 0.000247873 0.932061732 0.209709191
v -0.208748841 0.554107666 0.109927386
v 0.000290354 0.952752292 0.208432242
v -0.000414785 0.606126189 0.230128350
v -0.000456314 0.585755050 0.231401786
v -0.207615838 0.577004790 0.108876191
v 0.189181320 0.952752292 -0.146269131
v -0.219550884 0.571851671 0.079238428
v -0.231612173 0.575093746 0.047829920
v -0.241822653 0.577295601 0.021334274
v -0.219150681 0.576999307 -0.138236679
v 0.020114767 0.524922252 -0.285005330
v -0.208506293 0.572121143 -0.166315422
v 0.040808691 0.524922252 -0.275007119
v -0.194976076 0.573186278 -0.192682621
v -0.170402503 0.579089344 -0.208930780
v 0.251603216 0.524922252 0.002244370
v 0.000165237 0.891320109 0.212268708
v 0.000123855 0.870949209 0.213545982
v -0.146641723 0.570562541 -0.221378357
v -0.124842548 0.577008843 -0.231478959
v 0.126435669 0.815400243 -0.214818911
v -0.102454851 0.586656570 -0.241649545
v -0.171470097 0.903569758 -0.184104104
v -0.180351242 0.792288661 0.130311141
v 0.058078681 0.652696848 -0.258385662
v -0.191620817 0.804790020 0.109721981
v 0.091069580 0.854064226 -0.228716273
v -0.213506058 0.774880111 0.059636084
v 0.118199398 0.766061544 -0.221994495
v -0.250225678 0.572860599 -0.059633483
v 0.099652356 0.751033127 -0.231929010
v -0.194539391 0.907682657 -0.139149318
v -0.217975061 0.903769791 -0.077218233
v 0.020553422 0.731301785 0.212913942
v -0.227932916 0.910057604 -0.048470896
v -0.098861593 0.903027356 -0.221274545
v -0.038728560 0.875223815 0.195661902
v 0.021806378 0.599021018 -0.279257684
v -0.023986097 0.850504041 0.203916423
v 0.087916220 0.660583675 -0.243458817
v -0.053134695 0.851681948 0.190628103
v -0.230726928 0.918561816 -0.019166689
v -0.225722638 0.898928583 0.002843573
v 0.100217753 0.687174618 -0.235792740
v -0.214163031 0.904512346 0.032701646
v -0.053063251 0.570212841 0.207329159
v 0.080487439 0.815397024 0.180585285
v -0.083894692 0.571850240 0.192386822
v -0.101485962 0.679118752 0.178188032
v 0.079892388 0.765929997 0.183831850
v -0.114741329 0.571653843 0.177535001
v 0.137159065 0.785485804 -0.211575842
v -0.134704149 0.675767839 0.162361873
v -0.206479699 0.686371446 0.092919495
v 0.157296443 0.804936528 -0.200288018
v -0.227247874 0.684288502 0.040100601
v 0.115979540 0.667113304 -0.229477110
v 0.143557490 0.665290415 -0.216270976
v -0.222675043 0.787932396 0.032648095
v -0.220504881 0.813300252 0.033510792
v -0.244619508 0.685215175 -0.051479702
v -0.232307240 0.678736806 -0.085678126
v -0.221552682 0.694035590 -0.110439565
v -0.000581396 0.524641275 0.235211570
v 0.020116002 0.524922252 0.225232928
v -0.210964466 0.679491282 -0.140164209
v 0.040811154 0.524922252 0.215237218
v -0.157514026 0.691728771 -0.207944498
v 0.061506304 0.524922252 0.205241507
v -0.024627888 0.725150704 -0.268654234
v 0.082201457 0.524922252 0.195245780
v -0.123795569 0.905589104 -0.209771523
v 0.102896608 0.524922252 0.185250053
v -0.147715623 0.907216132 -0.198086890
v 0.123591757 0.524922252 0.175254343
v -0.157421900 0.887714207 -0.194455803
v 0.144286915 0.524922252 0.165258633
v -0.181503558 0.923009753 -0.168100908
v 0.164982056 0.524922252 0.155262923
v -0.208279871 0.864225149 -0.111427234
v 0.184984084 0.524922252 0.144625774
v 0.061567223 0.714238226 0.195280259
v -0.187788258 0.902656615 0.103278864
v -0.163823504 0.799889266 -0.197138137
v -0.204768447 0.615264475 0.109560316
v 0.201413356 0.524922252 0.130682341
v -0.186522654 0.810289621 -0.175789108
v -0.022881449 0.796572268 0.207845871
v 0.209778339 0.524922252 0.109276007
v -0.050508475 0.800105691 0.195096626
v 0.218143303 0.524922252 0.087869683
v -0.032441909 0.823971331 0.201770098
v 0.226508286 0.524922252 0.066463362
v -0.024538487 0.897608042 0.200670578
v 0.234873250 0.524922252 0.045057043
v -0.082874009 0.923439980 -0.226948935
v 0.243238233 0.524922252 0.023650714
v 0.036459147 0.727168620 -0.263001950
v -0.113293575 0.881805897 -0.216367882
v -0.148620935 0.628136754 0.158197863
v 0.053124370 0.688355565 0.200762773
v 0.076891199 0.750019133 -0.242875582
v -0.152978551 0.866253436 -0.198280993
v -0.191490237 0.610680819 0.133746103
v 0.171637038 0.751830161 -0.195599826
v -0.172798471 0.851821780 -0.187262844
v 0.177096622 0.819196224 -0.186520447
v 0.186164314 0.794731736 -0.178640354
v 0.187985358 0.767587304 -0.178813551
v -0.206290257 0.638339341 0.101688192
v -0.187892241 0.837265432 -0.168057588
v 0.259968180 0.524922252 -0.019161946
v 0.259976988 0.524922252 -0.040565291
v -0.229828367 0.627039731 0.043433156
v 0.191492566 0.818229198 -0.163972045
v -0.199020886 0.850214839 -0.139013632
v -0.219311284 0.847199738 -0.085443631
v -0.226604525 0.862374365 -0.062750342
v -0.073109469 0.841617525 -0.237687950
v 0.203175537 0.659851670 -0.162279284
v -0.203374320 0.841691375 0.073756955
v -0.216893570 0.837713122 0.038417447
v -0.161551157 0.833685338 0.140445622
v -0.177550138 0.854048252 0.127537686
v 0.251616238 0.524922252 -0.061965640
v -0.026479253 0.828456104 -0.259845986
v 0.243235954 0.524922252 -0.083365997
v -0.051685943 0.822983801 -0.248839044
v 0.234855686 0.524922252 -0.104766349
v -0.030704428 0.662309229 -0.270746546
v 0.226475418 0.524922252 -0.126166676
v -0.149900831 0.909654975 0.142382954
v 0.218095151 0.524922252 -0.147567020
v -0.120842301 0.903721392 0.156626136
v 0.209714866 0.524922252 -0.168967372
v -0.027615837 0.804403782 -0.261185996
v 0.201334597 0.524922252 -0.190367725
v 0.200221730 0.803484857 -0.144925814
v -0.029371414 0.779756010 -0.262291272
v 0.184957368 0.524922252 -0.204363090
v -0.054829394 0.797761083 -0.249359406
v -0.209429736 0.807171285 -0.120130873
v 0.164972374 0.524922252 -0.215017795
v -0.189179402 0.927550316 0.095086325
v 0.144278449 0.524922252 -0.225015990
v -0.037091295 0.694815516 -0.265343168
v 0.123584499 0.524922252 -0.235014220
v 0.190119141 0.743586421 -0.178483265
v 0.102890541 0.524922252 -0.245012466
v -0.138225837 0.747496545 -0.213598530
v 0.082196608 0.524922252 -0.255010677
v -0.085211182 0.639851332 -0.246419307
v 0.061502662 0.524922252 -0.265008890
v 0.068852368 0.860084116 0.183097730
v -0.215841929 0.766502142 -0.111373803
v -0.256915344 0.581507146 -0.028499724
v 0.198575443 0.777695537 -0.153600501
v -0.239413233 0.786122561 -0.043344878
v -0.244780334 0.741531134 -0.032707952
v 0.216042509 0.650378048 -0.131063513
v -0.238327647 0.726630151 -0.059684768
v -0.000496338 0.565667987 -0.291898045
v 0.025408922 0.548943520 -0.280891325
v -0.000537741 0.545295119 -0.293450803
v -0.000454933 0.586040854 -0.290345287
v 0.201824852 0.832932770 -0.135683082
v -0.228199404 0.733364582 -0.085397354
v -0.000413528 0.606413722 -0.288792530
v -0.000372124 0.626786590 -0.287239772
v -0.242070308 0.721928060 -0.006403765
v -0.000330718 0.647159457 -0.285687048
v 0.207695160 0.786026359 -0.128863052
v -0.208924950 0.730318666 -0.135962464
v -0.157605996 0.549857080 -0.217442895
v -0.228023071 0.732007086 0.029237056
v 0.223909715 0.671161771 -0.107368468
v -0.224470469 0.708352506 0.043035139
v -0.119803018 0.726334512 -0.223916265
v -0.101413142 0.707316518 -0.234074532
v 0.211800598 0.808548450 -0.113935599
v -0.057173931 0.772123635 -0.250274005
v -0.000040885 0.789769471 -0.274817710
v 0.000000520 0.810142338 -0.273264970
v -0.137320704 0.881601810 0.150119331
v 0.000041926 0.830515206 -0.271712212
v -0.164306611 0.872879207 0.136245540
v 0.217581643 0.778468132 -0.104369232
v -0.146664685 0.855122447 0.146988035
v 0.000083330 0.850888073 -0.270159455
v -0.170203996 0.895490468 0.130699752
v -0.195267702 0.719190836 0.115468814
v 0.000124735 0.871260941 -0.268606697
v -0.159906000 0.933206618 0.135128200
v 0.217063183 0.836055756 -0.094514836
v 0.221694912 0.548827529 0.074939839
v 0.000166139 0.891633809 -0.267053940
v -0.176678446 0.919983387 0.121538932
v 0.000207545 0.912006676 -0.265501199
v -0.192662397 0.858403862 0.098581674
v 0.228201322 0.768621624 -0.077908982
v -0.195920409 0.884278893 0.085473175
v -0.233518796 0.777354717 0.005683782
v 0.000248950 0.932379544 -0.263948442
v -0.198699408 0.934007585 0.068343857
v -0.200653824 0.908832490 0.068021008
v -0.210212027 0.929505765 0.038404397
v -0.177517064 0.711112320 0.137929289
v 0.042476806 0.952752292 0.189327696
v 0.021383580 0.952752292 0.198879951
v 0.227796030 0.854663670 -0.062175259
v 0.000206555 0.911690950 0.210988966
v -0.221771787 0.924966991 0.008342136
v 0.230711400 0.821780920 -0.060805976
v -0.228105274 0.933366239 -0.041691358
v -0.219778369 0.929132342 -0.067098233
v -0.098470457 0.614058614 -0.241740008
v 0.063570037 0.952752292 0.179775405
v 0.236971646 0.838890195 -0.035178022
v 0.236936398 0.786945224 -0.050967612
v -0.210405993 0.926204443 -0.092803062
v -0.190720062 0.932985902 -0.144095935
v -0.160234213 0.927708209 -0.189681552
v -0.188652101 0.864465117 -0.162674019
v -0.141698678 0.621403635 -0.220362704
v 0.105756490 0.952752233 0.160670859
v 0.084663263 0.952752292 0.170223132
v -0.127667567 0.861071348 -0.211095750
v 0.000082450 0.850578249 0.214822278
v -0.136452192 0.884604871 -0.205275908
v 0.239266922 0.810394585 -0.030147787
v -0.166638061 0.609996200 -0.208857299
v 0.126849725 0.952752233 0.151118586
v -0.031051138 0.672890484 0.211996736
v -0.031434309 0.548217595 0.218923758
v 0.234058572 0.850695610 -0.009823906
v -0.232892651 0.837886333 -0.050943450
v -0.048052736 0.610092819 0.207615575
v 0.147942952 0.952752233 0.141566304
v 0.245107979 0.674159348 -0.008367866
v -0.065986271 0.547072113 0.202337310
v 0.248196255 0.674697459 -0.034664690
v 0.234204951 0.826921761 -0.005207085
v 0.240269226 0.783230424 -0.015660378
v -0.070998918 0.625686288 0.195727860
v -0.101192880 0.547682583 0.185341750
v -0.134613506 0.549987614 0.169116296
v -0.124211991 0.615120053 0.170652860
v 0.223661118 0.812447071 0.025623326
v -0.127844646 0.592551589 0.170106691
v 0.234482046 0.803602874 -0.001715023
v -0.066049705 0.827305019 0.186322600
v 0.129049954 0.853271186 0.155790019
v -0.150661085 0.603281796 0.158539355
v 0.092394698 0.770626545 -0.234161943
v -0.167163479 0.548584223 0.153408035
v -0.236855035 0.634691119 -0.082263581
v -0.171565272 0.618654847 0.146960617
v -0.189324736 0.569802642 0.138657642
v 0.082175565 0.789688170 -0.237584327
v 0.206805407 0.880036414 0.058403438
v -0.175917764 0.593698144 0.145599417
v -0.244007468 0.614899397 -0.067578916
v -0.196464504 0.545159698 0.134432585
v 0.229648314 0.784803689 0.014641122
v 0.225357478 0.764824867 0.029750762
v -0.184070924 0.878166854 0.114675804
v -0.199111417 0.593333960 0.123815889
v -0.219197001 0.545498908 0.084688691
v 0.214953598 0.834047198 0.044979826
v 0.211814889 0.807481408 0.058186367
v -0.216352181 0.620510221 0.079027633
v -0.212774199 0.596425295 0.092333081
v 0.207674476 0.781867743 0.073373402
v -0.229451539 0.550225854 0.057645197
v 0.194234637 0.887628257 0.090527409
v -0.224444679 0.598694623 0.062091845
v 0.236047073 0.667025506 0.018956578
v -0.062949429 0.952175260 0.179715051
v -0.236175442 0.599697590 0.031914876
v -0.029248703 0.924926400 0.196776124
v 0.204419944 0.827926397 0.074184609
v -0.202437836 0.865890086 0.071618773
v 0.225474879 0.659135580 0.047542273
v -0.207553993 0.885111868 0.054175741
v -0.248273559 0.592687964 0.002099803
v 0.204274884 0.758943498 0.085756636
v -0.212523290 0.861078024 0.045560066
v 0.030006893 0.848374665 -0.256797535
v 0.031246533 0.875728786 -0.254176481
v 0.194369534 0.824531317 0.100566063
v -0.032250884 0.929791033 -0.249412254
v 0.200030711 0.803339899 0.089483969
v -0.243629165 0.618407190 0.009409777
v -0.024870399 0.903883576 -0.254757111
v 0.034489848 0.710414529 0.207890168
v -0.021911802 0.582254589 -0.280781258
v -0.051952160 0.909972131 -0.242008209
v 0.182801292 0.837750256 0.122246611
v -0.058931520 0.933613420 -0.237020028
v -0.219107738 0.879754484 0.024293017
v 0.193989347 0.778684616 0.108451185
v -0.223955778 0.854902565 0.016161257
v 0.181783753 0.758550882 0.131468461
v -0.234893799 0.866420567 -0.035434849
v -0.235233063 0.847172439 -0.014279693
v 0.185970760 0.809272468 0.120592269
v -0.230540827 0.873250008 -0.005056552
v 0.157266592 0.768904328 0.146281753
v -0.257744999 0.553772509 -0.038875011
v -0.254097170 0.606966138 -0.019520437
v 0.142214377 0.655684829 0.159558025
v 0.169059338 0.654960036 0.146068628
v 0.136744212 0.721915603 -0.215894490
v 0.123955776 0.922328711 0.154290042
v -0.022962728 0.608919501 0.219603641
v 0.167640896 0.952752233 0.130709759
v -0.227244996 0.885775089 -0.056153072
v 0.177858864 0.677923977 0.139147082
v 0.156316519 0.824357986 0.143871759
v -0.253131384 0.618652523 -0.041447688
v -0.217174845 0.877166927 -0.084911291
v 0.181071190 0.952752233 0.113994343
v -0.197716999 0.879433692 -0.136535470
v 0.172927557 0.789243639 0.136174998
v -0.082484586 0.766781390 -0.239125003
v 0.125774214 0.679983139 0.166253294
v -0.247278657 0.548996866 -0.071608003
v 0.131438896 0.771043241 0.158850397
v -0.252007308 0.596914291 -0.050122821
v -0.232995641 0.609856963 -0.096807473
v -0.236660880 0.544421017 -0.099562773
v 0.098701256 0.674140990 0.179628889
v 0.143781496 0.795861840 0.151616979
v -0.085559453 0.726331234 -0.240461141
v 0.118447369 0.790082574 0.164149500
v -0.238760081 0.566963136 -0.090030617
v -0.224488221 0.629800975 -0.114835514
v 0.079603136 0.692910135 0.187891311
v -0.104241126 0.749529123 -0.229882024
v -0.226420978 0.555054843 -0.123737395
v 0.025852040 0.795478940 -0.262661948
v 0.117664479 0.819238305 0.163032538
v 0.094283577 0.843043745 0.172632518
v -0.222041204 0.603938758 -0.125870277
v 0.189181320 0.952752233 0.092305706
v 0.029612032 0.639131188 -0.272731653
v 0.031801240 0.617630363 -0.273260892
v -0.214699398 0.550900877 -0.154432144
v 0.197291450 0.952752233 0.070617091
v -0.167042770 0.750548542 -0.198844368
v 0.205401564 0.952752233 0.048928483
v -0.202893029 0.614187777 -0.172690345
v 0.059384787 0.887057602 -0.240580752
v -0.211909072 0.597532868 -0.152923941
v 0.213511678 0.952752233 0.027239857
v 0.047205090 0.676327050 -0.261958022
v 0.050646284 0.702244520 -0.258453882
v -0.184414028 0.731666207 -0.187369912
v 0.221621808 0.952752233 0.005551224
v -0.189132655 0.755520642 -0.179918536
v -0.136203947 0.928912938 -0.202279501
v -0.055983860 0.903983951 0.186011215
v 0.229731922 0.952752233 -0.016137383
v -0.203022151 0.548704922 -0.184020358
v -0.198701841 0.742863774 -0.159740415
v -0.202966115 0.591464877 -0.176879064
v -0.186845897 0.892588019 -0.162291999
v 0.229731938 0.952752233 -0.037825992
v -0.207585951 0.755455554 -0.134727895
v 0.048980915 0.598323286 -0.266303660
v -0.181858503 0.551503599 -0.204786152
v -0.218048233 0.743615329 -0.110150859
v 0.221621826 0.952752233 -0.059514625
v -0.175025954 0.877097249 -0.182642202
v 0.213511694 0.952752233 -0.081203236
v -0.226247918 0.762689531 -0.084503841
v -0.188791642 0.599505067 -0.195679612
v 0.211141226 0.705448985 0.076780958
v 0.205401564 0.952752292 -0.102891882
v -0.235250971 0.746641397 -0.063747090
v 0.064496500 0.727045417 -0.250314242
v -0.132930384 0.550743759 -0.229329823
v -0.024027587 0.556305945 -0.281573368
v 0.197291468 0.952752292 -0.124580476
v -0.237741155 0.766113818 -0.053016977
v 0.218707449 0.785276353 0.043813942
v -0.023434496 0.650133908 0.216893650
v 0.181071206 0.952752292 -0.167957733
v 0.215748603 0.755669415 0.056868969
v -0.087247005 0.757036209 0.180876380
v -0.145788625 0.594511509 -0.220187107
v -0.104798854 0.556331456 -0.242547352
v 0.077028058 0.603755355 -0.252400865
v -0.121788313 0.604330182 -0.231125419
v -0.078586789 0.575790286 -0.253908828
v -0.075557042 0.549534261 -0.257130494
v 0.104864827 0.641640723 -0.236497317
v 0.081306735 0.706336260 -0.243688204
v -0.214860224 0.723514080 0.065078408
v 0.064014391 0.787925541 0.189739602
v 0.052502758 0.762029767 0.196549787
v -0.214671398 0.749168396 0.061136443
v 0.044748711 0.735835373 0.201676636
v -0.034292342 0.751641870 -0.262228742
v 0.133161372 0.692422092 -0.219536184
v -0.202965687 0.764220715 0.088480542
v -0.075355501 0.618588626 -0.252604616
v -0.082953479 0.598614216 -0.250270973
v 0.148916588 0.632975519 -0.215775169
v -0.202245635 0.738107264 0.094826058
v -0.049258868 0.573624313 -0.268223511
v 0.167640913 0.952752292 -0.184673184
v 0.168057754 0.657875955 -0.204453690
v -0.059856394 0.599971592 -0.261339366
v -0.190478748 0.756457567 0.119913088
v -0.052921165 0.635066092 -0.262340487
v 0.147942986 0.952752292 -0.195529738
v -0.033712834 0.605770230 -0.273549571
v 0.161523447 0.604003906 -0.211376239
v -0.252091156 0.568178356 -0.003804197
v -0.241394674 0.552233815 0.026751653
v 0.189295894 0.652762949 -0.189667586
v -0.182990341 0.734446704 0.131955776
v -0.163031428 0.749564767 0.144307887
v 0.160128531 0.708781183 -0.205234387
v -0.097850112 0.830678999 0.171688837
v -0.084027558 0.952320576 0.170169581
v -0.150146361 0.722545564 0.152407975
v 0.185473771 0.701033235 -0.188396190
v -0.134413731 0.745292187 0.158792460
v -0.112505928 0.808681846 0.165965901
v 0.209227954 0.706853151 -0.138676732
v -0.116453130 0.723387063 0.168614818
v 0.145449890 0.865673423 -0.202341705
v -0.097786931 0.783138335 0.174410327
v -0.128721940 0.788500488 0.159229557
v 0.220301813 0.696904123 -0.112119825
v -0.117329635 0.765562892 0.165942304
v 0.223849035 0.629008293 -0.114832309
v 0.229053220 0.646259010 -0.098551557
v -0.108203055 0.744344234 0.171471669
v -0.086758610 0.729859471 0.182576682
v -0.145551578 0.768654704 0.152179651
v -0.032520914 0.747940898 0.206565203
v -0.156977469 0.791025460 0.145262834
v -0.143569452 0.811659515 0.150840240
v 0.231331873 0.691171050 -0.084652858
v 0.245550919 0.656776071 -0.053124868
v -0.080878106 0.804075420 0.181068101
v -0.173416356 0.772118211 0.136842373
v -0.053518228 0.653088391 0.202688280
v -0.173264717 0.812425256 0.134444134
v 0.235354268 0.664735794 -0.078986832
v -0.189220152 0.831852496 0.111623960
v 0.250655712 0.652855277 -0.025567054
v -0.202426783 0.789783061 0.085450161
v 0.247354175 0.702353358 -0.027843913
v -0.192460137 0.779688716 0.111738747
v -0.084288597 0.854101360 0.176351155
v -0.201214440 0.815526247 0.084105918
v 0.252959111 0.606149733 -0.022554722
v -0.089892024 0.902013361 0.170765720
v -0.000123694 0.749023736 -0.277923225
v -0.083329527 0.926525652 0.172181284
v -0.210701098 0.821815729 0.058093402
v -0.225050362 0.761076570 0.031526282
v -0.057681767 0.931421340 0.183483349
v -0.000082289 0.769396603 -0.276370468
v -0.126183868 0.952611029 0.151078641
v -0.237092802 0.749754548 0.001498072
v 0.100095296 0.831885755 -0.226298868
v 0.153752838 0.915008962 -0.194801974
v -0.228121588 0.829850495 0.009894599
v -0.105105731 0.952465832 0.160624094
v 0.238825540 0.696590781 0.006147412
v 0.126849751 0.952752292 -0.205082010
v -0.233255873 0.892304182 -0.026624362
v 0.229762116 0.713957787 0.027225815
v -0.242660859 0.768414140 -0.022329936
v -0.240004779 0.795143723 -0.018791247
v -0.238811079 0.821288943 -0.019527184
v 0.105756551 0.952752292 -0.214634284
v 0.235359340 0.759034753 0.004056469
v 0.084663246 0.952752292 -0.224186574
v -0.116321617 0.855830312 0.161608234
v -0.019998342 0.876993716 -0.259040407
v 0.221089074 0.702470124 0.051802619
v 0.063570046 0.952752292 -0.233738865
v 0.076678426 0.933298230 -0.229267412
v 0.243291887 0.595372140 0.012186898
v -0.109834571 0.926788509 0.160150411
v -0.025232670 0.853039324 -0.258514887
v -0.229520941 0.788808227 -0.070291007
v -0.206640986 0.897386014 -0.108896420
v -0.129236845 0.832882047 0.156613575
v 0.042476803 0.952752292 -0.243291138
v -0.218739786 0.788596153 -0.099201068
v 0.021383592 0.952752292 -0.252843411
v -0.197641137 0.795655072 -0.152676201
v 0.222301932 0.602958262 0.064688634
v -0.207578549 0.781365395 -0.129935479
v 0.021322001 0.936638951 -0.254084579
v 0.000290355 0.952752411 -0.262395684
v 0.217221180 0.679649949 0.065367546
v 0.214351615 0.652451456 0.077081186
v 0.109019891 0.790761888 -0.224829409
v 0.024643870 0.918333054 0.199521571
v -0.198846490 0.822529137 -0.144624197
v -0.197792982 0.769345939 -0.157158638
v -0.200597634 0.927123845 -0.118872474
v 0.088411503 0.810954273 -0.233166048
v 0.205214435 0.678003907 0.096357789
v -0.182912199 0.780892551 -0.183886232
v -0.062654084 0.525030434 -0.265005068
v -0.139926199 0.790940642 -0.209868378
v -0.083345729 0.525066316 -0.255005588
v -0.104037401 0.525102198 -0.245006091
v -0.154655821 0.772990823 -0.203839044
v 0.193278241 0.662765265 0.125259402
v 0.203473726 0.643335402 0.106382949
v -0.124729037 0.525138080 -0.235006611
v 0.201550893 0.613235354 0.116035812
v -0.146626472 0.842261136 -0.203188377
v 0.053377063 0.910350978 0.187003306
v 0.034009188 0.893371761 0.196820438
v -0.145420674 0.525174022 -0.225007114
v 0.193431372 0.692656159 0.122133434
v -0.137455457 0.815896332 -0.209391302
v 0.174443609 0.699171007 0.140124924
v 0.186968436 0.633889556 0.135151085
v -0.166112335 0.525209904 -0.215007617
v -0.000000361 0.809836328 0.217374907
v -0.000041766 0.789465368 0.218651222
v -0.115956595 0.793455839 -0.221280800
v -0.186097672 0.525246620 -0.204354179
v -0.099049861 0.857561707 -0.224693587
v -0.126647638 0.770450532 -0.217655694
v -0.202481483 0.525287986 -0.190366406
v -0.210859677 0.525339305 -0.168966910
v -0.219237871 0.525390565 -0.147567448
v -0.063341800 0.773074687 0.190994410
v -0.031216620 0.773877919 0.205509486
v 0.117788151 0.658419669 0.171215686
v 0.123362876 0.634638131 0.169741909
v -0.227616066 0.525441885 -0.126167935
v -0.235994277 0.525493205 -0.104768422
v -0.033462575 0.697713554 0.209327598
v 0.097691677 0.647911370 0.181460798
v 0.071526476 0.664435089 0.193251676
v -0.244372471 0.525544524 -0.083368927
v -0.094998309 0.833743155 -0.228370667
v 0.106150104 0.698899090 0.174762239
v -0.252750666 0.525595784 -0.061969452
v -0.065628520 0.682004392 0.195310641
v 0.043022620 0.663131714 0.206920851
v -0.037552377 0.630357385 0.211544509
v -0.119572637 0.837311268 -0.216597560
v 0.039654349 0.607371569 0.211562313
v -0.083595740 0.654916942 0.188099004
v 0.095769323 0.744050443 0.177462120
v -0.037496710 0.590242624 0.213760665
v -0.067331272 0.594436884 0.199162221
v -0.070868776 0.866971493 -0.236748160
v -0.090712057 0.880514264 -0.226706284
v -0.092122952 0.704196632 0.181361270
v -0.072471345 0.894556940 -0.233893640
v 0.116255195 0.872029543 -0.215916990
v -0.261128877 0.525647104 -0.040569953
v 0.113182495 0.723601520 0.170099613
v -0.097457441 0.600453734 0.184326027
v -0.124881002 0.699697971 0.165818048
v 0.124086663 0.845646620 -0.213994379
v -0.100724321 0.631069899 0.181118551
v -0.113953109 0.656320691 0.173397536
v -0.103169574 0.879155993 0.166199281
v 0.102693353 0.613492131 -0.239369984
v -0.070438955 0.878181577 0.181099135
v 0.137898189 0.729459524 0.157861751
v -0.126242338 0.636864960 0.168514468
v 0.173843101 0.862272978 -0.185296089
v -0.261137891 0.525646687 -0.019167865
v -0.032585541 0.722607613 0.208144643
v 0.130952764 0.603910983 -0.226337202
v -0.244410599 0.525542200 0.023641338
v -0.168544856 0.668964863 0.145979347
v 0.123009816 0.627042949 -0.228676278
v -0.236045497 0.525489986 0.045045929
v -0.144892566 0.652467430 0.158696119
v 0.157434271 0.714303792 0.149109385
v 0.162618561 0.740494072 0.144995259
v 0.163266828 0.887685359 -0.191529226
v -0.227680379 0.525437713 0.066450557
v -0.154914203 0.695007741 0.151492140
v -0.219315276 0.525385499 0.087855160
v -0.171101922 0.643081129 0.146063461
v -0.210950174 0.525333285 0.109259762
v -0.202585072 0.525281012 0.130664373
v -0.180192765 0.689922035 0.137748894
v -0.194098937 0.653774858 0.126861777
v -0.186172798 0.525119245 0.144616888
v 0.184527331 0.724176407 0.130680225
v -0.195365757 0.676287174 0.120994776
v -0.166173993 0.524908781 0.155248100
v -0.145476401 0.524688721 0.165232192
v 0.187465288 0.594970882 -0.196246482
v -0.195725414 0.698487222 0.116648984
v 0.207756868 0.733552814 0.080925912
v 0.186311824 0.615300655 -0.195715256
v 0.193789178 0.927037179 -0.138972711
v -0.124778818 0.524468660 0.175216267
v -0.193568910 0.631234169 0.130300277
v -0.104081235 0.524248660 0.185200375
v 0.169634622 0.932480156 -0.182421624
v -0.083383653 0.524028659 0.195184466
v -0.062686078 0.523808599 0.205168576
v 0.218869027 0.726738811 0.053574007
v 0.184138731 0.883615017 -0.169115877
v -0.041988495 0.523588538 0.215152650
v -0.021290916 0.523368537 0.225136742
v -0.205541724 0.711120784 0.091050024
v -0.000593339 0.523148477 0.235120850
v -0.206769525 0.662232459 0.096341485
v 0.201243792 0.608525991 -0.176108563
v 0.192910958 0.859504580 -0.153866731
v 0.227881334 0.740405798 0.027443830
v -0.215870102 0.697497606 0.066982495
v -0.218006214 0.646025240 0.070396485
v -0.217402913 0.672032177 0.067454061
v -0.053732822 0.723215342 -0.255606953
v 0.211659309 0.601608753 -0.150709892
v 0.243246219 0.757103741 -0.024949728
v 0.189256308 0.905372381 -0.155162392
v 0.018786645 0.772020340 -0.267627922
v -0.067820522 0.747068942 -0.247379370
v 0.091674038 0.729804933 -0.237158917
v -0.061953311 0.712205529 0.195414745
v 0.240426914 0.728300691 -0.003904111
v -0.229031493 0.657348871 0.040243084
v -0.235275528 0.702230930 0.015629506
v -0.211974430 0.799548984 0.058972329
v 0.222863747 0.605044127 -0.121502140
v -0.241154902 0.645957947 0.010858533
v 0.173649272 0.922800601 0.125963808
v 0.244144077 0.731593072 -0.039622309
v -0.239199800 0.674126625 0.010604852
v -0.246312870 0.692314506 -0.015602293
v -0.246446945 0.711356699 -0.039185718
v 0.233063329 0.591929436 -0.097729030
v 0.238598775 0.711304903 -0.061306461
v -0.251587315 0.633617938 -0.017657910
v -0.230943907 0.804103673 0.007360601
v 0.196430076 0.881875038 -0.140720625
v -0.041871248 0.952030003 0.189260538
v 0.232743273 0.738472641 -0.071655444
v 0.220577880 0.746888816 -0.102491664
v -0.105359897 0.814400494 -0.224998272
v -0.076988431 0.816341341 -0.237878951
v 0.233238478 0.618377030 -0.092694667
v -0.250502224 0.662596285 -0.024858789
v 0.243354143 0.578001082 -0.073855861
v 0.227408903 0.717693806 -0.089927654
v -0.020783259 0.952776313 -0.252838784
v -0.041856896 0.952800035 -0.243281884
v 0.205756441 0.860036552 -0.120064855
v 0.025610398 0.755800426 0.209113120
v -0.062930523 0.952823699 -0.233724985
v -0.060948843 0.740831673 0.194124773
v 0.217388723 0.720913827 -0.115398622
v 0.208702570 0.735150218 -0.135113660
v -0.084004142 0.952847421 -0.224168084
v 0.206414579 0.887742043 -0.112889589
v -0.248690416 0.639161766 -0.050188860
v -0.105077764 0.952871084 -0.214611184
v -0.111401466 0.927215338 -0.213722974
v -0.235503150 0.809591830 -0.049413973
v -0.126151387 0.952894866 -0.205054284
v -0.147224976 0.952918530 -0.195497401
v 0.198225176 0.721020997 -0.164318354
v -0.233193874 0.705509126 -0.077836863
v -0.222262092 0.816747010 -0.083896838
v -0.209778837 0.834568977 -0.113601476
v -0.241313841 0.659843445 -0.065624063
v 0.216744773 0.871049762 -0.088526484
v 0.209676378 0.930904090 -0.095730325
v -0.241319667 0.590896189 -0.079065607
v 0.070332622 0.740267932 0.189775262
v 0.180840106 0.725461185 -0.191654681
v -0.084442704 0.791994393 -0.236353338
v -0.220130263 0.718647003 -0.109515265
v 0.219203169 0.924182296 -0.071566953
v -0.102980962 0.774479628 -0.228820410
v -0.229972192 0.583960176 -0.109320271
v 0.158737456 0.732839882 -0.204258370
v -0.228912875 0.653417110 -0.099167539
v -0.214409486 0.651162684 -0.136612755
v 0.228887974 0.921573043 -0.045714148
v -0.221467720 0.671252906 -0.114873831
v -0.209957723 0.705174625 -0.137980200
v 0.235351338 0.869639516 -0.031329728
v -0.213209532 0.623463273 -0.144803820
v -0.023890582 0.631612718 -0.276203903
v 0.110803458 0.712140381 -0.229060954
v -0.166893273 0.952943146 -0.184628150
v -0.180275996 0.952971816 -0.167889326
v -0.198743860 0.717767715 -0.164278682
v -0.199626055 0.692089200 -0.166779748
v -0.201529080 0.665673375 -0.166811108
v -0.202813842 0.639457822 -0.168383829
v -0.167850886 0.826046526 -0.192742599
v 0.092949427 0.791599989 0.176261651
v 0.245500092 0.606534839 -0.063164134
v -0.196463818 0.953036010 -0.124534072
v -0.204557721 0.953068137 -0.102856453
v 0.250946842 0.630633116 -0.044052291
v -0.000579157 0.524922252 -0.295003560
v -0.212651640 0.953100264 -0.081178817
v 0.227745426 0.872395039 0.003794453
v -0.220745543 0.953132391 -0.059501174
v -0.228839463 0.953164518 -0.037823543
v -0.228853549 0.953164220 -0.016146228
v 0.238222308 0.756840646 -0.053412903
v 0.231418532 0.928639412 -0.022138406
v -0.220771899 0.953131557 0.005530785
v -0.212676265 0.953098774 0.027207750
v -0.204580615 0.953065991 0.048884747
v 0.066470109 0.772579491 -0.245991928
v -0.196484982 0.953033268 0.070561714
v 0.224627607 0.922628105 0.002993414
v -0.188389331 0.953000486 0.092238720
v -0.187976157 0.626127422 -0.194140461
v 0.216704023 0.863852203 0.034876289
v 0.024589661 0.684118330 -0.271618717
v -0.000289314 0.667532325 -0.284134257
v -0.000247909 0.687905192 -0.282581498
v 0.184485485 0.929376364 -0.162304131
v -0.186465145 0.652439594 -0.192626432
v -0.000206504 0.708278000 -0.281028741
v -0.182797916 0.705826759 -0.191849864
v 0.021850101 0.707110882 -0.271128086
v -0.000165100 0.728650928 -0.279475983
v -0.180293698 0.952967703 0.113915679
v 0.199644133 0.751510859 -0.155410047
v 0.214423588 0.924530327 0.029935560
v -0.163786884 0.637372911 -0.208471509
v -0.166927700 0.952889323 0.130667817
v -0.147262041 0.952756286 0.141533171
v 0.203780124 0.907511353 0.061495346
v 0.059933081 0.861246586 -0.242275948
v -0.184352662 0.678995788 -0.192267922
v -0.154497277 0.721846521 -0.207361760
v 0.205002357 0.933395207 0.053517705
v -0.160483512 0.664236188 -0.208285340
v 0.206747246 0.852725089 0.063527716
v -0.136608304 0.648119926 -0.221033403
v -0.000166012 0.728352427 0.222479393
v -0.135484196 0.929236174 0.148322827
v 0.186580932 0.933156490 0.102758948
v 0.189418093 0.910837531 0.099169836
v 0.195655462 0.930352807 0.079067278
v -0.115296307 0.631696701 -0.232429768
v -0.131567489 0.674418688 -0.221708129
v -0.106348029 0.657589972 -0.235019514
v 0.066830799 0.619168162 0.197839639
v -0.128882242 0.700995326 -0.221226169
v 0.064405836 0.911317050 -0.236480284
v -0.100338351 0.683407903 -0.236194519
v 0.033570641 0.900679588 -0.251245276
v -0.049660488 0.849378288 -0.247721394
v -0.046192389 0.880001843 -0.246931632
v 0.243288665 0.621404648 0.007885907
v 0.223482745 0.631413043 0.057094714
v -0.067391299 0.667711973 -0.253163621
v -0.072521725 0.699320018 -0.248568683
v -0.188369899 0.953003883 -0.146211690
v 0.198325509 0.866362631 0.083411751
v 0.187367011 0.864781678 0.112018343
v -0.254636022 0.545475602 -0.005986880
v 0.211432835 0.592304349 0.094214993
v 0.212669153 0.622466087 0.086204768
v -0.252775702 0.525594473 0.002236747
v 0.177240979 0.890558541 0.124668695
v -0.047040359 0.546053529 -0.271141264
v -0.041962473 0.524994493 -0.275004548
v 0.023185244 0.582452595 0.220721720
v -0.021270807 0.524958670 -0.285004063
v 0.000289192 0.952432513 0.208429432
v 0.084994346 0.899444401 -0.228050544
v -0.020793114 0.951884806 0.198805991
v -0.025323490 0.571335614 0.220629731
v 0.181312761 0.605080068 0.141710746
v 0.045761559 0.933034420 0.189054234
v 0.120726142 0.551882744 0.175256690
v 0.103587047 0.569243193 0.182645108
v 0.149833930 0.567537189 0.160395392
v 0.064065500 0.832157373 -0.242594854
v 0.177306491 0.575901568 0.145764646
v 0.078370784 0.571828544 0.194692036
v 0.242246313 0.569054186 0.019097880
v 0.165120414 0.856429040 0.137133014
v 0.150558094 0.878669143 0.143927425
v 0.218245162 0.895374954 0.025019943
v 0.153471802 0.595022082 0.157228477
v 0.232191877 0.898625493 -0.017733555
v 0.226857336 0.890749991 -0.057632280
v 0.070732631 0.929558218 0.177960684
v 0.126426449 0.608232975 0.169615478
v 0.155441144 0.626368940 0.154595857
v 0.214329715 0.902057171 -0.088924372
v 0.203684110 0.916513503 -0.114567973
v 0.126582391 0.581266046 0.170922244
v 0.197963623 0.903415024 -0.132426296
v 0.232397307 0.566025913 -0.103919686
v 0.218702343 0.576684475 -0.137044513
v 0.096391037 0.619332790 0.183553659
v 0.202623336 0.578013659 -0.176867411
v 0.176328503 0.908508897 -0.178604162
v 0.100553360 0.592592359 0.182913719
v 0.153063803 0.683298349 0.152872712
v 0.200453516 0.582844257 0.123831602
v 0.221632193 0.574618876 0.070956137
v 0.232245976 0.584718108 0.042172247
v 0.241812199 0.684567988 -0.057938794
v 0.200739368 0.690497935 -0.163188503
v 0.071678813 0.596269727 0.196671627
v 0.189225258 0.675760686 -0.188086227
v 0.254770129 0.584046066 -0.042088082
v 0.252503798 0.578281045 -0.009981767
v 0.052184322 0.638359964 0.203922763
v 0.018894707 0.663559675 0.217841907
v 0.125999112 0.888348997 0.155362537
v 0.095725051 0.927486360 0.166770898
v 0.026147123 0.686966598 0.213114249
v 0.048658066 0.809875131 0.195340493
v 0.031494497 0.782957613 0.204773531
v 0.032425123 0.574575901 -0.275840956
v 0.080376498 0.905268669 0.175091188
v 0.055519177 0.624517977 -0.261447770
v 0.045774275 0.872806072 0.192762194
v 0.064661549 0.886233568 0.183381251
v 0.021914035 0.872012615 0.203614653
v 0.053297258 0.551669776 -0.267240537
v 0.080648640 0.632798195 -0.248770121
v 0.105905500 0.768411636 0.171317853
v 0.228454870 0.685877681 0.035529309
v 0.223937390 0.800420225 -0.083096570
v 0.086426327 0.551917136 -0.251218304
v 0.212125108 0.678730607 -0.136152876
v 0.164844399 0.777433574 -0.197744661
v 0.163849499 0.683683097 -0.205001590
v 0.121681809 0.552039146 -0.234176818
v 0.071830946 0.681423783 -0.249880298
v 0.051841407 0.749989808 -0.254317599
v 0.173443636 0.574996591 -0.207150418
v 0.155598508 0.551904082 -0.217758564
v 0.128744996 0.921740294 -0.206558837
v 0.104902364 0.903412998 0.164100131
v 0.096582536 0.875086248 0.169615461
v 0.188584873 0.550907195 -0.198776080
v 0.038059814 0.852214098 0.197525976
v 0.060410898 0.834853172 0.188477271
v 0.100941651 0.923047423 -0.219051432
v 0.209409754 0.550624371 -0.165291611
v 0.209267984 0.761675239 -0.129072211
v 0.031162552 0.820547938 -0.258369417
v 0.216135131 0.623026013 -0.135567893
v 0.222580827 0.549230337 -0.131898806
v 0.026763868 0.661439955 -0.272341699
v 0.233802846 0.543056667 -0.104311696
v 0.041841520 0.774276376 -0.257017428
v 0.244168428 0.549933791 -0.076649581
v 0.252003760 0.563384056 -0.054268730
v 0.087607860 0.718823552 0.182696345
v 0.136676746 0.893091917 -0.204829421
v 0.110338533 0.897999167 -0.216682008
v 0.026024239 0.749679983 -0.266032477
v 0.257572658 0.558403432 -0.027793842
v 0.175031540 0.633584082 -0.202375104
v 0.250757434 0.631396532 -0.016153654
v 0.232999341 0.612350285 0.035804376
v 0.207216097 0.630913198 -0.156976976
v 0.196441060 0.633215785 -0.181536292
v 0.231802111 0.554842234 0.048108638
v 0.195861321 0.845797241 0.093331470
v 0.224864706 0.843066156 0.016834066
v 0.240096405 0.636662126 -0.071717315
v 0.068093288 0.576490283 -0.258483956
v 0.210863446 0.558987737 0.101025462
v 0.120118787 0.747797012 0.165509355
v 0.243731639 0.648089588 0.001851037
v 0.234071716 0.639654160 0.028672894
v 0.127698008 0.647362292 -0.225094868
v 0.196471254 0.551915288 0.130499385
v 0.155420598 0.836730123 -0.199151263
v -0.000124577 0.748723388 0.221203833
v -0.000331861 0.646868229 0.227578721
v 0.077007126 0.638309956 0.191943472
v 0.171393513 0.549338162 0.150505688
v 0.185051275 0.840198159 -0.173570569
v -0.000207474 0.707981348 0.223754234
v -0.000083171 0.769094408 0.219927535
v 0.145894988 0.543762922 0.163516347
v 0.029157206 0.830166519 0.202917871
v 0.000041045 0.830207288 0.216098593
v 0.151176853 0.905458272 0.142344439
v 0.090918438 0.548666358 0.189818600
v 0.149186433 0.931595623 0.141814747
v 0.251518905 0.550998926 -0.001729961
v 0.142126152 0.751492679 0.154690449
v 0.045924923 0.927046716 -0.243665173
v 0.060821176 0.549349546 0.204320515
v 0.087087850 0.877580047 -0.228748780
v 0.028968696 0.553337991 0.219492479
v 0.050310065 0.576723397 0.207993706
v 0.056274310 0.801257789 -0.248449792
v 0.021527026 0.807723224 0.207758167
v 0.024980385 0.634883583 0.216848805
v -0.000373323 0.626497209 0.228853527
v -0.000248936 0.687610328 0.225029057
v 0.255618995 0.543502927 -0.047674077
v -0.000290398 0.667239308 0.226303880
v 0.104146600 0.581617773 -0.240732751
v 0.118188301 0.738905907 -0.223759057
v 0.143592379 0.755012274 -0.210441743
v 0.196340213 0.743858516 0.108485671
v 0.132545441 0.704511762 0.161725686
v 0.200191895 0.713846862 0.103451368
v 0.140899019 0.577509284 -0.223242054
v 0.242165807 0.544668257 0.023222281
f 555 540 123
f 389 162 497
f 567 540 568
f 583 104 251
f 463 489 430
f 453 94 255
f 483 484 162
f 446 640 671
f 574 577 251
f 50 244 238
f 52 244 50
f 575 57 53
f 55 249 52
f 55 2 250
f 577 248 563
f 575 437 432
f 57 597 589
f 2 265 262
f 589 592 57
f 262 259 2
f 5 267 262
f 602 606 589
f 5 9 11
f 58 606 610
f 11 272 5
f 12 278 11
f 565 793 8
f 630 60 632
f 13 425 12
f 424 289 160
f 289 424 13
f 643 649 60
f 181 403 179
f 483 206 484
f 163 651 174
f 53 563 558
f 651 65 650
f 163 389 384
f 683 66 65
f 455 558 563
f 165 384 171
f 340 331 34
f 67 66 683
f 206 470 63
f 385 102 856
f 67 702 70
f 344 340 696
f 179 403 406
f 710 70 702
f 16 352 14
f 111 112 59
f 63 64 655
f 18 368 16
f 710 742 753
f 119 112 111
f 394 671 545
f 551 922 903
f 19 375 18
f 753 740 711
f 406 470 179
f 261 615 108
f 545 453 439
f 178 386 530
f 24 386 23
f 72 753 742
f 26 396 24
f 768 765 72
f 119 142 112
f 32 63 470
f 112 142 161
f 399 400 396
f 154 343 182
f 545 671 448
f 399 415 400
f 768 770 765
f 32 406 410
f 418 415 399
f 770 183 777
f 387 300 166
f 415 418 422
f 105 86 299
f 169 42 839
f 170 142 119
f 173 172 705
f 329 638 343
f 134 738 737
f 185 638 329
f 692 661 145
f 150 74 741
f 637 345 873
f 132 145 661
f 170 184 142
f 138 495 760
f 138 136 188
f 136 194 188
f 201 87 194
f 270 87 205
f 216 49 210
f 46 216 724
f 198 184 170
f 43 96 907
f 219 39 218
f 45 43 41
f 224 37 219
f 498 224 514
f 86 105 342
f 225 36 514
f 378 107 110
f 80 233 107
f 22 41 43
f 198 217 849
f 41 581 45
f 103 233 76
f 76 40 103
f 222 217 214
f 678 100 40
f 98 41 22
f 366 41 98
f 40 76 678
f 215 4 284
f 215 98 21
f 537 536 92
f 222 234 217
f 904 537 92
f 460 462 30
f 284 471 366
f 222 239 246
f 586 903 759
f 462 28 30
f 246 234 222
f 454 449 28
f 237 391 924
f 560 319 921
f 246 888 252
f 431 471 282
f 455 560 391
f 319 560 241
f 50 238 793
f 50 566 52
f 52 574 55
f 258 263 510
f 244 52 249
f 55 253 2
f 284 792 657
f 303 670 667
f 303 100 674
f 250 249 55
f 273 274 252
f 251 253 574
f 100 303 301
f 301 570 100
f 104 261 257
f 677 100 678
f 273 285 274
f 257 2 253
f 2 257 265
f 250 2 259
f 570 568 40
f 752 292 293
f 294 296 285
f 285 296 274
f 684 497 679
f 277 274 296
f 440 447 442
f 579 489 463
f 692 329 695
f 259 262 267
f 871 736 360
f 262 271 9
f 40 100 570
f 570 567 568
f 203 128 270
f 310 296 294
f 305 296 310
f 87 270 194
f 9 5 262
f 5 272 600
f 276 9 271
f 9 276 11
f 272 11 278
f 302 323 310
f 568 103 40
f 108 615 89
f 280 11 276
f 11 280 12
f 103 568 540
f 278 12 425
f 323 337 328
f 283 12 280
f 12 283 13
f 283 297 289
f 289 13 283
f 540 561 231
f 425 13 424
f 209 288 205
f 291 125 286
f 346 337 323
f 49 304 288
f 173 350 351
f 297 654 314
f 347 158 864
f 304 47 311
f 47 304 49
f 47 46 481
f 360 361 855
f 501 684 146
f 481 311 47
f 46 39 481
f 343 695 329
f 314 289 297
f 289 314 160
f 481 321 308
f 481 39 321
f 325 122 321
f 325 321 37
f 37 321 39
f 333 160 314
f 324 266 333
f 527 107 231
f 84 121 325
f 36 327 498
f 160 333 34
f 327 120 84
f 36 82 371
f 277 393 390
f 689 34 333
f 34 689 340
f 313 34 331
f 266 334 689
f 334 260 341
f 340 335 331
f 107 527 110
f 54 404 405
f 696 14 344
f 61 401 44
f 38 299 407
f 358 14 348
f 14 358 16
f 344 14 352
f 356 704 712
f 352 16 368
f 413 62 417
f 370 16 358
f 16 370 18
f 175 705 134
f 713 115 110
f 371 27 378
f 27 371 82
f 381 18 370
f 18 381 19
f 368 18 375
f 80 378 27
f 19 381 235
f 19 395 23
f 19 23 178
f 202 506 913
f 23 395 24
f 386 24 396
f 398 24 395
f 24 398 26
f 26 398 220
f 26 412 399
f 396 26 399
f 418 399 412
f 164 180 444
f 444 443 164
f 175 173 705
f 685 84 120
f 422 300 415
f 685 121 84
f 172 169 300
f 172 300 422
f 78 80 27
f 226 365 78
f 89 615 114
f 240 485 309
f 134 737 175
f 226 27 82
f 245 459 452
f 187 186 140
f 243 459 245
f 189 187 130
f 581 466 579
f 467 472 637
f 308 122 240
f 138 579 466
f 430 255 463
f 499 435 430
f 453 430 435
f 435 440 439
f 435 499 450
f 243 479 281
f 308 321 122
f 897 438 584
f 439 453 435
f 243 281 893
f 450 440 435
f 480 859 865
f 440 449 447
f 442 439 440
f 450 449 440
f 447 449 454
f 492 488 493
f 127 458 456
f 449 456 28
f 82 225 708
f 454 28 462
f 28 456 30
f 456 450 127
f 30 456 458
f 225 82 36
f 30 464 460
f 506 507 502
f 126 469 125
f 287 508 509
f 207 507 506
f 410 460 32
f 126 306 477
f 460 464 644
f 644 32 460
f 32 644 63
f 475 31 576
f 470 406 32
f 64 63 644
f 306 309 477
f 125 464 458
f 528 795 511
f 516 523 524
f 655 206 63
f 206 655 484
f 206 474 470
f 162 679 497
f 316 322 822
f 313 160 34
f 37 498 325
f 523 316 534
f 497 684 501
f 501 146 505
f 146 512 503
f 505 503 513
f 263 515 510
f 512 120 115
f 503 512 91
f 517 513 503
f 115 713 91
f 458 203 125
f 315 547 548
f 91 512 115
f 547 330 336
f 91 713 88
f 517 88 522
f 552 548 547
f 532 88 713
f 88 532 519
f 552 336 553
f 522 519 541
f 527 231 561
f 127 128 458
f 538 660 692
f 514 36 498
f 224 498 37
f 538 692 695
f 114 626 631
f 553 342 105
f 219 37 39
f 555 660 561
f 127 450 499
f 891 199 824
f 660 555 661
f 218 39 46
f 199 97 886
f 366 98 284
f 22 21 98
f 41 366 581
f 43 232 22
f 907 232 43
f 96 536 907
f 45 463 255
f 45 581 463
f 255 94 96
f 255 96 45
f 94 453 545
f 448 546 545
f 582 593 594
f 595 584 438
f 216 46 47
f 216 47 49
f 551 640 558
f 558 640 569
f 49 288 209
f 793 565 50
f 569 53 558
f 566 50 565
f 209 210 49
f 841 351 350
f 574 52 566
f 578 53 57
f 612 609 423
f 53 578 563
f 575 53 569
f 597 432 211
f 253 55 574
f 57 575 597
f 578 57 592
f 592 583 578
f 627 609 612
f 584 621 628
f 603 589 606
f 602 589 597
f 634 819 627
f 610 606 602
f 835 318 229
f 626 606 58
f 610 624 58
f 58 624 630
f 632 58 630
f 634 884 869
f 58 632 626
f 60 642 632
f 642 60 649
f 60 630 181
f 650 649 643
f 662 652 645
f 656 628 621
f 621 636 656
f 658 659 204
f 64 644 469
f 466 495 138
f 694 377 700
f 468 471 431
f 663 650 65
f 628 656 668
f 679 162 484
f 65 686 663
f 672 673 659
f 686 65 66
f 683 65 651
f 468 431 478
f 683 693 67
f 685 146 684
f 146 685 512
f 696 340 689
f 66 67 701
f 473 495 478
f 66 698 686
f 702 67 693
f 668 675 687
f 701 698 66
f 405 690 54
f 701 67 70
f 54 690 564
f 14 696 348
f 711 70 710
f 699 70 711
f 702 709 710
f 229 318 236
f 657 282 471
f 710 709 742
f 753 756 740
f 756 753 72
f 742 754 72
f 72 754 768
f 72 765 756
f 766 765 770
f 490 193 496
f 130 772 496
f 770 776 766
f 15 719 168
f 87 201 148
f 183 770 768
f 201 194 136
f 422 705 172
f 633 777 338
f 777 633 150
f 408 74 633
f 638 185 408
f 106 730 258
f 688 379 694
f 275 631 118
f 185 692 145
f 197 750 749
f 736 737 738
f 263 258 730
f 738 741 743
f 185 145 143
f 743 741 744
f 744 741 74
f 744 467 879
f 132 140 145
f 123 132 661
f 741 738 150
f 123 540 567
f 773 772 567
f 738 134 150
f 78 27 226
f 238 623 1
f 264 279 779
f 776 150 134
f 134 705 420
f 695 541 538
f 104 599 261
f 365 681 680
f 761 762 763
f 365 678 76
f 76 78 365
f 411 156 420
f 156 411 220
f 541 519 538
f 220 764 156
f 76 233 78
f 80 78 233
f 168 789 387
f 70 699 701
f 398 395 228
f 434 437 445
f 779 780 887
f 428 432 434
f 926 317 706
f 197 749 745
f 213 6 4
f 279 785 780
f 419 427 428
f 148 201 745
f 454 462 419
f 526 782 783
f 381 734 235
f 410 414 419
f 493 769 913
f 511 4 215
f 4 511 213
f 406 414 410
f 208 731 729
f 21 511 215
f 210 728 727
f 794 800 823
f 511 21 529
f 470 474 179
f 724 218 46
f 227 110 115
f 118 280 275
f 219 218 722
f 806 800 794
f 803 804 256
f 716 778 225
f 224 219 720
f 407 86 690
f 356 734 381
f 389 497 380
f 809 795 528
f 810 806 811
f 717 716 514
f 497 501 380
f 317 697 429
f 810 818 821
f 913 771 202
f 341 698 699
f 373 376 159
f 369 177 373
f 341 260 698
f 260 334 266
f 365 226 681
f 517 522 354
f 828 821 818
f 354 362 364
f 569 640 446
f 519 522 88
f 767 828 818
f 266 324 676
f 602 597 211
f 804 834 256
f 121 240 122
f 345 868 918
f 610 602 211
f 169 839 166
f 427 195 211
f 643 179 174
f 683 651 165
f 693 683 171
f 627 884 634
f 324 654 676
f 846 397 841
f 841 397 374
f 362 709 369
f 580 397 846
f 192 188 190
f 192 499 489
f 128 192 190
f 270 205 203
f 205 288 286
f 291 306 126
f 208 148 733
f 288 304 291
f 304 311 306
f 311 481 308
f 286 125 203
f 283 118 297
f 589 599 592
f 283 280 118
f 227 115 120
f 747 805 732
f 707 226 82
f 107 378 80
f 275 114 631
f 118 646 297
f 89 114 275
f 231 233 103
f 87 209 205
f 816 872 870
f 271 108 89
f 248 560 455
f 248 241 560
f 108 271 265
f 566 565 241
f 86 876 690
f 622 244 619
f 517 91 88
f 574 566 248
f 715 662 889
f 244 249 618
f 249 250 614
f 882 465 718
f 253 251 257
f 774 465 882
f 250 259 608
f 883 494 774
f 921 391 560
f 259 267 604
f 54 564 847
f 251 577 583
f 600 267 5
f 89 276 271
f 503 91 517
f 690 405 407
f 275 276 89
f 892 573 582
f 272 278 596
f 248 577 574
f 280 276 275
f 425 588 591
f 425 424 781
f 781 313 572
f 424 313 781
f 572 585 781
f 314 654 324
f 136 197 201
f 313 557 572
f 237 551 558
f 554 331 335
f 334 341 348
f 760 136 138
f 335 344 549
f 341 699 704
f 348 696 334
f 921 319 7
f 358 348 704
f 344 352 544
f 912 582 594
f 903 586 551
f 352 368 543
f 381 370 356
f 368 375 539
f 788 8 3
f 535 375 178
f 221 795 809
f 828 767 562
f 559 833 920
f 921 920 899
f 546 448 898
f 903 922 836
f 38 903 299
f 235 228 395
f 405 669 407
f 546 92 94
f 400 518 520
f 92 546 904
f 639 35 926
f 386 396 525
f 927 926 33
f 928 605 930
f 200 490 298
f 94 545 546
f 96 92 536
f 927 56 852
f 143 472 408
f 220 412 26
f 400 520 521
f 412 220 411
f 109 113 152
f 920 832 559
f 418 412 411
f 152 113 746
f 387 789 786
f 420 418 411
f 746 161 867
f 418 420 422
f 490 773 298
f 496 772 773
f 394 442 445
f 562 767 832
f 739 636 820
f 204 725 658
f 773 490 496
f 725 223 635
f 447 454 428
f 472 186 637
f 215 284 98
f 189 130 496
f 458 464 30
f 410 462 460
f 125 469 464
f 635 247 487
f 487 269 629
f 641 487 629
f 268 269 487
f 269 393 629
f 390 269 268
f 469 126 64
f 349 761 763
f 655 64 477
f 303 674 670
f 290 393 277
f 611 290 928
f 163 474 483
f 928 307 605
f 635 641 648
f 531 605 533
f 677 674 100
f 477 309 485
f 506 202 207
f 679 485 240
f 240 121 684
f 312 912 594
f 684 679 240
f 121 685 684
f 186 187 345
f 503 505 146
f 912 332 892
f 772 130 132
f 685 120 512
f 501 505 159
f 725 648 658
f 505 513 373
f 513 517 364
f 892 847 564
f 110 527 713
f 714 847 339
f 522 541 154
f 51 714 346
f 231 103 540
f 714 51 404
f 541 695 343
f 567 772 123
f 502 500 506
f 578 577 563
f 867 659 673
f 577 578 583
f 597 575 432
f 592 104 583
f 913 492 493
f 845 167 839
f 599 104 592
f 386 178 23
f 599 603 615
f 110 227 378
f 615 261 599
f 706 402 639
f 603 626 114
f 132 123 772
f 624 610 195
f 409 706 317
f 746 673 682
f 114 615 603
f 120 327 227
f 624 414 403
f 691 429 697
f 642 631 632
f 642 118 631
f 429 433 853
f 646 118 642
f 642 649 646
f 152 682 691
f 682 433 691
f 181 643 60
f 654 297 646
f 122 325 121
f 140 130 187
f 421 416 617
f 123 661 555
f 309 308 240
f 698 260 686
f 702 693 177
f 698 701 699
f 672 441 436
f 291 126 125
f 109 691 697
f 143 140 186
f 874 872 816
f 665 441 672
f 188 192 489
f 665 658 653
f 712 704 699
f 653 451 665
f 927 697 317
f 712 740 734
f 648 461 653
f 178 375 19
f 923 880 116
f 641 461 648
f 740 756 748
f 748 758 228
f 926 706 639
f 479 641 482
f 754 742 362
f 354 754 362
f 407 669 38
f 203 458 128
f 482 629 620
f 756 765 758
f 182 754 154
f 128 127 192
f 254 246 252
f 611 382 620
f 764 398 228
f 499 192 127
f 764 766 156
f 766 776 156
f 930 611 928
f 420 156 776
f 140 132 130
f 788 7 8
f 387 166 168
f 420 776 134
f 136 760 197
f 300 387 415
f 750 197 760
f 745 201 197
f 148 208 209
f 733 148 745
f 258 35 106
f 593 533 605
f 731 208 733
f 236 318 910
f 729 210 208
f 728 210 729
f 727 216 210
f 188 489 579
f 929 573 556
f 724 216 727
f 573 929 582
f 723 218 724
f 722 218 723
f 720 219 722
f 717 224 720
f 514 224 717
f 188 579 138
f 876 556 573
f 707 681 226
f 898 904 546
f 472 143 186
f 212 795 221
f 899 391 921
f 854 925 931
f 213 795 212
f 140 143 145
f 404 54 714
f 833 922 924
f 415 387 786
f 143 408 185
f 238 3 793
f 1 3 238
f 31 799 752
f 622 238 244
f 918 799 515
f 380 376 171
f 915 752 357
f 617 476 421
f 619 244 618
f 618 249 616
f 616 249 614
f 636 739 613
f 388 613 10
f 614 250 608
f 357 791 915
f 383 688 388
f 608 259 607
f 571 438 576
f 295 667 666
f 92 96 94
f 607 259 604
f 372 726 700
f 667 295 303
f 367 726 372
f 604 267 601
f 298 295 207
f 923 875 880
f 363 732 367
f 408 467 74
f 148 209 87
f 298 301 295
f 359 747 363
f 601 267 600
f 359 355 755
f 600 272 598
f 598 272 596
f 353 755 355
f 301 298 773
f 596 278 591
f 747 755 751
f 591 278 425
f 588 425 781
f 388 688 813
f 769 771 913
f 763 353 349
f 202 771 200
f 506 500 913
f 74 467 744
f 773 570 301
f 82 708 707
f 320 647 326
f 500 492 913
f 331 554 557
f 242 910 320
f 344 335 340
f 910 908 647
f 554 335 550
f 239 222 703
f 549 550 335
f 549 344 544
f 166 167 168
f 544 352 543
f 543 368 542
f 17 15 167
f 17 845 157
f 907 536 919
f 157 850 155
f 155 850 153
f 542 368 539
f 150 633 74
f 153 854 151
f 151 854 149
f 149 858 147
f 147 862 144
f 539 375 535
f 759 903 38
f 530 535 178
f 144 862 141
f 141 866 139
f 139 866 137
f 530 386 525
f 137 870 135
f 525 396 521
f 135 870 872
f 133 872 131
f 131 874 129
f 129 923 117
f 923 874 875
f 170 119 902
f 521 396 400
f 20 932 101
f 99 101 932
f 99 886 97
f 95 97 199
f 95 891 93
f 93 896 90
f 518 400 786
f 90 896 85
f 85 901 83
f 83 905 81
f 169 166 300
f 81 905 79
f 77 79 796
f 77 909 75
f 439 394 545
f 75 914 73
f 73 914 71
f 71 916 69
f 442 394 439
f 468 466 366
f 442 447 434
f 7 562 920
f 794 534 811
f 924 899 833
f 434 447 428
f 428 454 419
f 419 462 410
f 38 898 759
f 902 111 897
f 466 468 495
f 526 524 534
f 25 59 56
f 96 43 45
f 895 401 61
f 182 343 338
f 483 389 163
f 483 162 389
f 897 59 25
f 883 894 775
f 776 777 150
f 59 897 111
f 380 384 389
f 774 882 893
f 111 902 119
f 778 708 225
f 501 159 380
f 167 166 839
f 159 505 373
f 176 191 867
f 373 513 369
f 364 369 513
f 850 890 925
f 354 364 517
f 354 522 154
f 177 369 709
f 154 541 343
f 446 445 437
f 376 380 159
f 204 223 725
f 217 198 214
f 214 703 222
f 437 569 446
f 610 211 195
f 414 624 195
f 403 630 624
f 889 718 715
f 160 313 424
f 181 630 403
f 888 246 239
f 179 643 181
f 174 650 643
f 651 650 174
f 163 384 165
f 487 247 268
f 165 651 163
f 171 683 165
f 174 474 163
f 557 313 331
f 475 515 799
f 376 693 171
f 285 273 757
f 177 693 376
f 627 885 884
f 174 179 474
f 509 508 516
f 294 302 310
f 709 702 177
f 709 362 742
f 154 754 354
f 182 338 183
f 780 785 803
f 183 768 182
f 423 413 881
f 183 338 777
f 638 338 343
f 633 638 408
f 590 401 895
f 692 185 329
f 190 188 194
f 515 475 25
f 270 190 194
f 190 270 128
f 195 427 414
f 7 788 562
f 915 878 571
f 877 595 438
f 203 205 286
f 44 48 61
f 474 206 483
f 210 209 208
f 61 62 895
f 413 895 62
f 211 432 427
f 172 42 169
f 398 764 220
f 515 263 918
f 437 575 569
f 228 758 764
f 124 885 426
f 175 871 350
f 84 498 327
f 225 514 716
f 327 371 227
f 918 263 730
f 898 448 759
f 371 327 36
f 839 374 890
f 227 371 378
f 451 441 665
f 228 235 748
f 444 180 457
f 233 231 107
f 187 868 345
f 759 448 586
f 189 292 868
f 734 748 235
f 653 461 826
f 924 922 237
f 292 193 196
f 446 671 394
f 461 641 479
f 922 551 237
f 391 237 455
f 482 641 629
f 918 868 799
f 196 200 293
f 771 293 200
f 558 455 237
f 281 287 894
f 894 893 281
f 248 566 241
f 257 251 104
f 255 430 453
f 257 261 265
f 509 775 287
f 260 266 676
f 509 516 524
f 265 261 108
f 523 516 531
f 322 316 523
f 273 252 888
f 265 271 262
f 811 534 316
f 316 315 811
f 676 686 260
f 366 466 581
f 478 495 468
f 330 547 315
f 547 336 552
f 366 471 468
f 760 495 473
f 657 471 284
f 336 342 553
f 553 900 552
f 832 900 553
f 865 878 791
f 792 284 4
f 31 571 576
f 286 288 291
f 438 571 877
f 906 864 863
f 4 790 792
f 8 7 319
f 303 295 301
f 291 304 306
f 570 773 567
f 739 617 392
f 617 416 392
f 306 311 309
f 309 311 308
f 170 628 668
f 613 739 10
f 739 392 10
f 656 675 668
f 656 815 675
f 680 678 365
f 813 613 388
f 324 333 314
f 687 198 668
f 379 688 383
f 295 666 207
f 815 656 636
f 377 694 379
f 325 498 84
f 689 333 266
f 334 696 689
f 700 377 372
f 861 834 860
f 703 721 239
f 732 726 367
f 834 861 256
f 348 341 704
f 747 732 363
f 356 358 704
f 735 888 721
f 370 358 356
f 735 264 757
f 735 273 888
f 755 747 359
f 369 364 362
f 353 763 755
f 647 761 326
f 761 349 326
f 376 373 177
f 779 757 264
f 780 779 279
f 384 380 171
f 235 395 19
f 736 871 737
f 562 788 917
f 910 647 320
f 785 804 803
f 414 406 403
f 256 323 803
f 813 675 815
f 415 786 400
f 427 419 414
f 422 420 705
f 432 428 427
f 430 489 499
f 587 580 590
f 437 434 432
f 445 442 434
f 446 394 445
f 671 586 448
f 819 609 627
f 456 449 450
f 455 563 248
f 865 791 769
f 581 579 463
f 645 652 817
f 644 464 469
f 652 662 715
f 874 923 129
f 715 664 652
f 694 812 688
f 477 64 126
f 750 760 473
f 485 655 477
f 465 715 718
f 507 207 666
f 465 774 494
f 865 486 480
f 812 675 813
f 485 484 655
f 207 202 298
f 883 504 825
f 493 865 769
f 783 782 504
f 679 484 485
f 202 200 298
f 196 490 200
f 196 193 490
f 877 859 476
f 302 803 323
f 189 496 193
f 814 806 810
f 168 719 789
f 821 814 810
f 391 899 924
f 713 527 532
f 467 408 472
f 302 294 887
f 786 787 518
f 538 519 532
f 561 532 527
f 926 35 33
f 538 532 660
f 540 555 561
f 551 586 640
f 319 241 565
f 660 532 561
f 113 161 746
f 161 176 867
f 8 319 565
f 223 247 635
f 781 585 784
f 620 629 393
f 887 780 302
f 269 390 393
f 671 640 586
f 781 784 588
f 599 589 603
f 393 290 611
f 626 603 606
f 928 290 305
f 623 238 622
f 625 1 623
f 774 893 894
f 312 332 912
f 626 632 631
f 332 339 847
f 847 892 332
f 757 887 285
f 847 714 54
f 793 3 8
f 732 807 726
f 858 931 857
f 675 812 687
f 168 167 15
f 273 735 757
f 920 921 7
f 402 385 639
f 167 845 17
f 638 633 338
f 646 649 663
f 650 663 649
f 845 850 157
f 888 239 721
f 663 654 646
f 706 409 48
f 850 854 153
f 676 654 663
f 429 409 317
f 661 692 660
f 854 858 149
f 676 663 686
f 858 862 147
f 433 429 691
f 678 680 677
f 699 711 712
f 712 734 356
f 711 710 753
f 862 866 141
f 712 711 740
f 682 436 827
f 734 740 748
f 866 870 137
f 214 687 808
f 748 756 758
f 664 816 652
f 872 133 135
f 198 687 214
f 754 182 768
f 872 874 131
f 665 659 658
f 758 765 766
f 658 648 653
f 766 764 758
f 776 770 777
f 668 198 170
f 117 923 116
f 787 786 789
f 929 330 822
f 533 822 322
f 556 336 330
f 531 322 523
f 899 920 833
f 662 444 889
f 346 323 256
f 491 482 620
f 116 880 911
f 911 20 116
f 382 491 620
f 911 932 20
f 932 886 99
f 645 443 662
f 930 382 611
f 382 930 516
f 886 824 199
f 605 531 930
f 491 508 848
f 628 170 902
f 256 347 346
f 482 848 479
f 891 896 93
f 347 256 861
f 820 617 739
f 866 819 817
f 605 594 593
f 896 901 85
f 929 593 582
f 612 881 885
f 901 905 83
f 826 451 653
f 451 457 180
f 672 659 665
f 441 180 851
f 79 905 796
f 436 673 672
f 436 851 827
f 909 914 75
f 682 673 436
f 914 916 71
f 584 902 897
f 876 86 342
f 69 916 1
f 829 433 827
f 700 808 694
f 788 3 916
f 853 829 417
f 409 61 48
f 402 48 855
f 870 817 816
f 855 29 360
f 874 816 664
f 385 361 102
f 830 880 875
f 576 897 25
f 819 634 817
f 68 69 1
f 106 856 730
f 743 736 738
f 910 242 236
f 862 857 819
f 744 879 102
f 880 830 831
f 840 528 843
f 401 846 44
f 803 302 780
f 769 791 357
f 878 915 791
f 831 911 880
f 918 873 345
f 576 25 475
f 799 31 475
f 841 29 846
f 879 856 102
f 106 639 385
f 573 564 876
f 911 831 802
f 342 556 876
f 337 339 332
f 25 510 515
f 350 29 841
f 564 573 892
f 892 582 912
f 510 25 56
f 864 906 837
f 312 328 337
f 929 822 593
f 33 35 258
f 871 360 29
f 840 860 835
f 864 158 863
f 29 855 44
f 916 914 917
f 808 687 812
f 594 307 312
f 307 305 328
f 916 917 788
f 33 56 927
f 840 835 809
f 307 594 605
f 736 743 361
f 531 516 930
f 290 277 305
f 852 109 927
f 318 835 860
f 21 844 529
f 852 59 112
f 620 393 611
f 102 743 744
f 112 113 852
f 751 763 762
f 647 785 762
f 805 747 751
f 252 268 254
f 230 835 229
f 487 641 635
f 637 879 467
f 124 851 164
f 809 230 221
f 161 142 176
f 807 732 805
f 247 234 254
f 230 809 835
f 808 700 807
f 345 637 186
f 176 184 191
f 812 694 808
f 204 849 223
f 849 204 191
f 813 688 812
f 635 648 725
f 849 184 198
f 815 613 813
f 815 636 613
f 217 223 849
f 659 191 204
f 217 234 223
f 191 184 849
f 859 480 421
f 795 213 511
f 245 461 243
f 878 865 859
f 802 886 932
f 191 659 867
f 452 718 889
f 223 234 247
f 176 142 184
f 246 254 234
f 865 493 486
f 293 771 357
f 268 247 254
f 771 769 357
f 805 264 735
f 268 252 390
f 161 113 112
f 486 493 488
f 390 252 274
f 867 673 746
f 264 751 279
f 274 277 390
f 746 682 152
f 281 848 287
f 827 433 682
f 808 703 214
f 152 691 109
f 109 852 113
f 476 859 421
f 296 305 277
f 476 595 877
f 305 307 928
f 196 293 292
f 595 476 820
f 726 807 700
f 752 293 357
f 307 328 312
f 310 328 305
f 56 59 852
f 292 752 799
f 328 310 323
f 886 825 824
f 312 337 332
f 807 703 808
f 891 824 782
f 193 292 189
f 844 21 22
f 429 853 409
f 109 697 927
f 56 33 510
f 105 559 553
f 339 337 346
f 346 714 339
f 51 346 347
f 317 926 927
f 564 690 876
f 863 844 232
f 799 868 292
f 510 33 258
f 843 528 529
f 844 863 842
f 861 840 843
f 861 158 347
f 861 860 840
f 752 915 31
f 158 843 842
f 843 158 861
f 842 529 844
f 919 837 906
f 906 232 907
f 809 528 840
f 730 873 918
f 730 856 873
f 873 856 879
f 856 106 385
f 817 634 645
f 837 919 838
f 817 652 816
f 919 906 907
f 919 536 537
f 743 102 361
f 904 669 838
f 898 669 904
f 669 898 38
f 703 807 721
f 405 404 838
f 669 405 838
f 922 833 836
f 294 285 887
f 361 385 402
f 869 645 634
f 830 875 664
f 916 3 1
f 864 51 347
f 402 855 361
f 909 801 914
f 397 890 374
f 48 44 855
f 796 909 77
f 879 637 873
f 901 798 905
f 580 925 397
f 48 402 706
f 896 800 901
f 891 823 896
f 409 62 61
f 853 62 409
f 881 413 417
f 417 62 853
f 86 407 299
f 459 893 882
f 199 891 95
f 830 465 831
f 829 426 417
f 426 829 124
f 426 881 417
f 124 829 827
f 433 829 853
f 886 802 825
f 774 894 883
f 851 124 827
f 164 884 124
f 441 851 436
f 180 164 851
f 443 869 164
f 911 802 932
f 715 830 664
f 874 664 875
f 736 361 360
f 451 180 441
f 457 452 889
f 889 444 457
f 866 817 870
f 106 35 639
f 459 718 452
f 826 452 457
f 452 826 245
f 451 826 457
f 862 819 866
f 858 857 862
f 461 245 826
f 459 882 718
f 479 243 461
f 854 931 858
f 850 925 854
f 846 401 580
f 845 890 850
f 491 848 482
f 848 281 479
f 825 494 883
f 382 508 491
f 900 832 767
f 508 287 848
f 896 823 800
f 839 890 845
f 504 782 824
f 42 374 839
f 516 508 382
f 908 910 318
f 534 524 523
f 552 818 548
f 42 172 173
f 901 800 798
f 818 552 900
f 533 322 531
f 871 175 737
f 868 187 189
f 22 232 844
f 593 822 533
f 822 315 316
f 929 556 330
f 330 315 822
f 838 919 537
f 904 838 537
f 318 860 834
f 908 318 834
f 465 830 715
f 556 342 336
f 105 836 559
f 833 559 836
f 29 44 846
f 908 834 804
f 562 917 828
f 299 836 105
f 818 900 767
f 832 553 559
f 562 832 920
f 811 315 548
f 828 801 821
f 801 828 917
f 821 797 814
f 836 299 903
f 401 590 580
f 797 821 801
f 905 798 796
f 796 814 797
f 810 548 818
f 814 798 806
f 798 814 796
f 909 796 797
f 811 548 810
f 413 587 590
f 404 51 837
f 51 864 837
f 837 838 404
f 909 797 801
f 529 842 843
f 158 842 863
f 232 906 863
f 800 806 798
f 529 528 511
f 794 811 806
f 785 908 804
f 785 647 908
f 859 877 878
f 526 534 794
f 877 571 878
f 571 31 915
f 173 351 42
f 524 783 509
f 350 173 175
f 29 350 871
f 823 526 794
f 783 524 526
f 526 823 782
f 42 351 374
f 841 374 351
f 504 775 783
f 509 783 775
f 782 823 891
f 885 124 884
f 887 757 779
f 914 801 917
f 426 885 881
f 890 397 925
f 825 504 824
f 775 504 883
f 925 587 931
f 587 925 580
f 802 494 825
f 785 279 762
f 494 831 465
f 831 494 802
f 894 287 775
f 590 895 413
f 438 897 576
f 884 164 869
f 762 279 751
f 423 931 587
f 587 413 423
f 931 423 857
f 762 761 647
f 617 820 476
f 595 820 621
f 751 755 763
f 893 459 243
f 751 264 805
f 609 857 423
f 423 881 612
f 662 443 444
f 721 805 735
f 621 584 595
f 857 609 819
f 443 645 869
f 612 885 627
f 636 621 820
f 628 902 584
f 805 721 807
