# Gate 6d generalise variant rad0.85 of the authored skirt (body space)
v -0.001129305 0.545012534 0.165281084
v -0.113386230 0.574712038 0.110051579
v -0.001098487 0.565383792 0.164342433
v -0.000547183 0.932061732 0.147370137
v -0.155023015 0.554107666 0.073618368
v -0.000515784 0.952752292 0.146426306
v -0.001036975 0.606126189 0.162462560
v -0.001067670 0.585755050 0.163403794
v -0.154185578 0.577004790 0.072841399
v 0.139099278 0.952752292 -0.115744275
v -0.163007134 0.571851671 0.050935226
v -0.171922001 0.575093746 0.027720242
v -0.179468877 0.577295601 0.008136504
v -0.162711333 0.576999307 -0.109807245
v 0.014137043 0.524922252 -0.218288422
v -0.154843741 0.572121143 -0.130561098
v 0.029432551 0.524922252 -0.210898439
v -0.144843146 0.573186278 -0.150049897
v -0.126680071 0.579089344 -0.162059406
v 0.185237200 0.524922252 -0.005973426
v -0.000608263 0.891320109 0.149261954
v -0.000638849 0.870949209 0.150206026
v -0.109117755 0.570562541 -0.171259789
v -0.093005320 0.577008843 -0.178725451
v 0.092722057 0.815400243 -0.166411503
v -0.076457893 0.586656570 -0.186242841
v -0.127469161 0.903569758 -0.143709254
v -0.134033486 0.792288661 0.088684623
v 0.042197327 0.652696848 -0.198613014
v -0.142363171 0.804790020 0.073466547
v 0.066581904 0.854064226 -0.176683467
v -0.158539220 0.774880111 0.036446536
v 0.086634378 0.766061544 -0.171715195
v -0.185679808 0.572860599 -0.051709231
v 0.072925696 0.751033127 -0.179058098
v -0.144520379 0.907682657 -0.110481804
v -0.161842395 0.903769791 -0.064706655
v 0.014461266 0.731301785 0.149738866
v -0.169202550 0.910057604 -0.043458622
v -0.073802007 0.903027356 -0.171183059
v -0.029355852 0.875223815 0.136987358
v 0.015387364 0.599021018 -0.214040162
v -0.018459249 0.850504041 0.143088527
v 0.064251160 0.660583675 -0.187580129
v -0.040003865 0.851681948 0.133266725
v -0.171267688 0.918561816 -0.021798991
v -0.167568866 0.898928583 -0.005530537
v 0.073343597 0.687174618 -0.181913898
v -0.159024809 0.904512346 0.016538474
v -0.039951057 0.570212841 0.145610983
v 0.058760321 0.815397024 0.125843773
v -0.062739514 0.571850240 0.134566648
v -0.075741758 0.679118752 0.124071890
v 0.058320502 0.765929997 0.128243408
v -0.085539203 0.571653843 0.123589215
v 0.100648045 0.785485804 -0.164014452
v -0.100294331 0.675767839 0.112374293
v -0.153345823 0.686371446 0.061047319
v 0.115532195 0.804936528 -0.155671278
v -0.168696214 0.684288502 0.022007267
v 0.084993614 0.667113304 -0.177245824
v 0.105377316 0.665290415 -0.167484768
v -0.165316295 0.787932396 0.016498893
v -0.163712263 0.813300252 0.017136538
v -0.181536118 0.685215175 -0.045682522
v -0.172435746 0.678736806 -0.070959618
v -0.164486724 0.694035590 -0.089261551
v -0.001160122 0.524641275 0.166219722
v 0.014137956 0.524922252 0.158844204
v -0.156660652 0.679491282 -0.111231941
v 0.029434372 0.524922252 0.151456070
v -0.117153804 0.691728771 -0.161330416
v 0.044730788 0.524922252 0.144067937
v -0.018933616 0.725150704 -0.206202828
v 0.060027205 0.524922252 0.136679790
v -0.092231467 0.905589104 -0.162680825
v 0.075323620 0.524922252 0.129291645
v -0.109911507 0.907216132 -0.154044358
v 0.090620035 0.524922252 0.121903511
v -0.117085712 0.887714207 -0.151360511
v 0.105916457 0.524922252 0.114515377
v -0.134885198 0.923009753 -0.131880806
v 0.121212864 0.524922252 0.107127243
v -0.154676385 0.864225149 -0.089991568
v 0.135996972 0.524922252 0.099265004
v 0.044775815 0.714238226 0.136705275
v -0.139530410 0.902656615 0.068704244
v -0.121817332 0.799889266 -0.153343105
v -0.152080985 0.615264475 0.073347056
v 0.148140348 0.524922252 0.088958987
v -0.138594964 0.810289621 -0.137563388
v -0.017642769 0.796572268 0.145992901
v 0.154323161 0.524922252 0.073136915
v -0.038062745 0.800105691 0.136569546
v 0.160505961 0.524922252 0.057314849
v -0.024709197 0.823971331 0.141502112
v 0.166688774 0.524922252 0.041492786
v -0.018867537 0.897608042 0.140689424
v 0.172871574 0.524922252 0.025670723
v -0.061985097 0.923439980 -0.175377173
v 0.179054387 0.524922252 0.009848654
v 0.026217671 0.727168620 -0.202025054
v -0.084469123 0.881805897 -0.167556394
v -0.110580651 0.628136754 0.109296547
v 0.038535444 0.688355565 0.140757567
v 0.056102231 0.750019133 -0.187149042
v -0.113801497 0.866253436 -0.154187825
v -0.142266657 0.610680819 0.091223507
v 0.126131764 0.751830161 -0.152206092
v -0.128451003 0.851821780 -0.146043976
v 0.130167110 0.819196224 -0.145495247
v 0.136869316 0.794731736 -0.139670830
v 0.138215306 0.767587304 -0.139798845
v -0.153205801 0.638339341 0.067528530
v -0.139607267 0.837265432 -0.131848786
v 0.191420000 0.524922252 -0.021795486
v 0.191426510 0.524922252 -0.037615349
v -0.170603535 0.627039731 0.024470460
v 0.140807590 0.818229198 -0.128829037
v -0.147832788 0.850214839 -0.110381514
v -0.162830038 0.847199738 -0.070786297
v -0.168220695 0.862374365 -0.054012996
v -0.054767827 0.841617525 -0.183314706
v 0.149442829 0.659851670 -0.127577866
v -0.151050544 0.841691375 0.046883703
v -0.161043032 0.837713122 0.020763197
v -0.120137771 0.833685338 0.096175326
v -0.131963104 0.854048252 0.086634678
v 0.185246826 0.524922252 -0.053432998
v -0.020302015 0.828456104 -0.199692384
v 0.179052702 0.524922252 -0.069250653
v -0.038933047 0.822983801 -0.191556818
v 0.172858592 0.524922252 -0.085068305
v -0.023424972 0.662309229 -0.207749320
v 0.166664480 0.524922252 -0.100885938
v -0.111526661 0.909654975 0.097607266
v 0.160470369 0.524922252 -0.116703584
v -0.090048617 0.903721392 0.108134836
v 0.154276246 0.524922252 -0.132521236
v -0.021142099 0.804403782 -0.200682826
v 0.148082135 0.524922252 -0.148338887
v 0.147259580 0.803484857 -0.114751388
v -0.022439700 0.779756010 -0.201499770
v 0.135977226 0.524922252 -0.158683288
v -0.041256468 0.797761083 -0.191941434
v -0.155526286 0.807171285 -0.096424693
v 0.121205708 0.524922252 -0.166558505
v -0.140558648 0.927550316 0.062648889
v 0.105910199 0.524922252 -0.173948474
v -0.028145699 0.694815516 -0.203755520
v 0.090614671 0.524922252 -0.181338470
v 0.139792449 0.743586421 -0.139554721
v 0.075319137 0.524922252 -0.188728478
v -0.102897317 0.747496545 -0.165509482
v 0.060023620 0.524922252 -0.196118461
v -0.063712572 0.639851332 -0.189768317
v 0.044728096 0.524922252 -0.203508444
v 0.050160486 0.860084116 0.127700796
v -0.160265733 0.766502142 -0.089952075
v -0.190624344 0.581507146 -0.028697322
v 0.146042759 0.777695537 -0.121163113
v -0.177688001 0.786122561 -0.039669826
v -0.181654988 0.741531134 -0.031807750
v 0.158953199 0.650378048 -0.104505339
v -0.176885611 0.726630151 -0.051747136
v -0.001097252 0.565667987 -0.223383037
v 0.018050114 0.548943520 -0.215247635
v -0.001127855 0.545295119 -0.224530727
v -0.001066649 0.586040854 -0.222235347
v 0.148444496 0.832932770 -0.107919804
v -0.169399518 0.733364582 -0.070752092
v -0.001036046 0.606413722 -0.221087656
v -0.001005442 0.626786590 -0.219939966
v -0.179651926 0.721928060 -0.012365525
v -0.000974838 0.647159457 -0.218792300
v 0.152783420 0.786026359 -0.102878912
v -0.155153184 0.730318666 -0.108126304
v -0.117221782 0.549857080 -0.168350969
v -0.169269185 0.732007086 0.013977690
v 0.164768091 0.671161771 -0.086991610
v -0.166643349 0.708352506 0.024176273
v -0.089280450 0.726334512 -0.173135635
v -0.075687934 0.707316518 -0.180643918
v 0.155817874 0.808548450 -0.091845577
v -0.042989387 0.772123635 -0.192617443
v -0.000760613 0.789769471 -0.210758442
v -0.000730010 0.810142338 -0.209610764
v -0.102228306 0.881601810 0.103325459
v -0.000699406 0.830515206 -0.208463074
v -0.122174411 0.872879207 0.093070918
v 0.160090821 0.778468132 -0.084774784
v -0.109134727 0.855122447 0.101011023
v -0.000668802 0.850888073 -0.207315383
v -0.126533348 0.895490468 0.088971856
v -0.145058696 0.719190836 0.077714206
v -0.000638199 0.871260941 -0.206167693
v -0.118921786 0.933206618 0.092245058
v 0.159707611 0.836055756 -0.077491100
v 0.163131062 0.548827529 0.047758007
v -0.000607595 0.891633809 -0.205020002
v -0.131318810 0.919983387 0.082200816
v -0.000576991 0.912006676 -0.203872325
v -0.143133035 0.858403862 0.065232408
v 0.167940148 0.768621624 -0.065217208
v -0.145541131 0.884278893 0.055543517
v -0.173331244 0.777354717 -0.003431252
v -0.000546388 0.932379544 -0.202724634
v -0.147595174 0.934007585 0.042882717
v -0.149039742 0.908832490 0.042644090
v -0.156104501 0.929505765 0.020753551
v -0.131938658 0.711112320 0.094315427
v 0.030665506 0.952752292 0.132305554
v 0.015074860 0.952752292 0.139365917
v 0.167640584 0.854663670 -0.053587935
v -0.000577723 0.911690950 0.148316058
v -0.164648671 0.924966991 -0.001466382
v 0.169795424 0.821780920 -0.052575856
v -0.169329944 0.933366239 -0.038447660
v -0.163175275 0.929132342 -0.057226655
v -0.073512905 0.614058614 -0.186309706
v 0.046256155 0.952752292 0.125245165
v 0.174422562 0.838890195 -0.033633454
v 0.174396508 0.786945224 -0.045304022
v -0.156247867 0.926204443 -0.076225876
v -0.141697396 0.932985902 -0.114137999
v -0.119164377 0.927708209 -0.147831716
v -0.140168903 0.864465117 -0.127869627
v -0.105464200 0.621403635 -0.170509090
v 0.077437446 0.952752233 0.111124413
v 0.061846801 0.952752292 0.118184790
v -0.095093379 0.861071348 -0.163659602
v -0.000669452 0.850578249 0.151149376
v -0.101586362 0.884604871 -0.159357980
v 0.176119070 0.810394585 -0.029915455
v -0.123897657 0.609996200 -0.162005095
v 0.093028099 0.952752233 0.104064038
v -0.023681236 0.672890484 0.149060932
v -0.023964449 0.548217595 0.154180904
v 0.172269420 0.850695610 -0.014893456
v -0.172868441 0.837886333 -0.045286162
v -0.036247634 0.610092819 0.145822683
v 0.108618744 0.952752233 0.097003656
v 0.180436373 0.674159348 -0.013817252
v -0.049502855 0.547072113 0.141921356
v 0.182719011 0.674697459 -0.033254036
v 0.172377613 0.826921761 -0.011481023
v 0.176859904 0.783230424 -0.019207370
v -0.053207856 0.625686288 0.137036110
v -0.075525132 0.547682583 0.129359420
v -0.100227334 0.549987614 0.117366694
v -0.092539257 0.615120053 0.118502414
v 0.164584346 0.812447071 0.011306672
v -0.095224262 0.592551589 0.118098725
v 0.172582422 0.803602874 -0.008899933
v -0.049549741 0.827305019 0.130084396
v 0.094654354 0.853271186 0.107516837
v -0.112088587 0.603281796 0.109548955
v 0.067561340 0.770626545 -0.180708527
v -0.124286009 0.548584223 0.105756239
v -0.175797159 0.634691119 -0.068435825
v -0.127539508 0.618654847 0.100990757
v -0.140666068 0.569802642 0.094853776
v 0.060008067 0.789688170 -0.183238115
v 0.152125777 0.880036414 0.035535450
v -0.130756568 0.593698144 0.099984653
v -0.181083740 0.614899397 -0.057581942
v -0.145943288 0.545159698 0.091730907
v 0.169009664 0.784803689 0.003189390
v 0.165838176 0.764824867 0.014357386
v -0.136782816 0.878166854 0.077128068
v -0.147899703 0.593333960 0.083883783
v -0.162745569 0.545498908 0.054963681
v 0.158148352 0.834047198 0.025613650
v 0.155828437 0.807481408 0.035375007
v -0.160642875 0.620510221 0.050779421
v -0.157998281 0.596425295 0.060613883
v 0.152768132 0.781867743 0.046600206
v -0.170325009 0.550225854 0.034975011
v 0.142834337 0.887628257 0.059279255
v -0.166624287 0.598694623 0.038261665
v 0.173739181 0.667025506 0.006379076
v -0.047258233 0.952175260 0.125200555
v -0.175294852 0.599697590 0.015956948
v -0.022349001 0.924926400 0.137810914
v 0.150362608 0.827926397 0.047199795
v -0.150358360 0.865890086 0.045303307
v 0.165924951 0.659135580 0.027507633
v -0.154139867 0.885111868 0.032410631
v -0.184236937 0.592687964 -0.006080279
v 0.150255390 0.758943498 0.055753032
v -0.157812826 0.861078024 0.026042524
v 0.021448613 0.848374665 -0.197439181
v 0.022364869 0.875728786 -0.195501881
v 0.142934044 0.824531317 0.066699129
v -0.024568004 0.929791033 -0.191980496
v 0.147118393 0.803339899 0.058508017
v -0.180804125 0.618407190 -0.000677255
v -0.019112863 0.903883576 -0.195931043
v 0.024762102 0.710414529 0.146025642
v -0.016926074 0.582254589 -0.215166282
v -0.039129816 0.909972131 -0.186507941
v 0.134383604 0.837750256 0.082723883
v -0.044288474 0.933613420 -0.182821024
v -0.162679592 0.879754484 0.010323401
v 0.142653037 0.778684616 0.072527263
v -0.166262926 0.854902565 0.004312969
v 0.133631511 0.758550882 0.089540033
v -0.174347549 0.866420567 -0.033823283
v -0.174598311 0.847172439 -0.018186863
v 0.136726254 0.809272468 0.081501109
v -0.171130135 0.873250008 -0.011369760
v 0.115510130 0.768904328 0.100488987
v -0.191237567 0.553772509 -0.036366011
v -0.188541346 0.606966138 -0.022060457
v 0.104384581 0.655684829 0.110301885
v 0.124226508 0.654960036 0.100331460
v 0.100341414 0.721915603 -0.167206496
v 0.090889092 0.922328711 0.106408158
v -0.017702846 0.608919501 0.154683427
v 0.123178094 0.952752233 0.088979253
v -0.168694086 0.885775089 -0.049136752
v 0.130730506 0.677923977 0.095215536
v 0.114807903 0.824357986 0.098707687
v -0.187827504 0.618652523 -0.038267556
v -0.161250931 0.877166927 -0.070392827
v 0.133104834 0.952752233 0.076624381
v -0.146869045 0.879433692 -0.108549830
v 0.127085627 0.789243639 0.093018778
v -0.061697262 0.766781390 -0.184376875
v 0.092233156 0.679983139 0.115250562
v -0.183501575 0.548996866 -0.060559963
v 0.096420094 0.771043241 0.109778855
v -0.186996666 0.596914291 -0.044679611
v -0.172944563 0.609856963 -0.079185657
v -0.175653654 0.544421017 -0.081222183
v 0.072222708 0.674140990 0.125136871
v 0.105542886 0.795861840 0.104432415
v -0.063969989 0.726331234 -0.185364455
v 0.086817661 0.790082574 0.113695584
v -0.177205237 0.566963136 -0.074176677
v -0.166656471 0.629800975 -0.092510732
v 0.058106706 0.692910135 0.131243879
v -0.077778182 0.749529123 -0.177545108
v -0.168085030 0.555054843 -0.099090383
v 0.018377636 0.795478940 -0.201773748
v 0.086239003 0.819238305 0.112870002
v 0.068957467 0.843043745 0.119965640
v -0.164847806 0.603938758 -0.100666861
v 0.139099278 0.952752233 0.060593648
v 0.021156760 0.639131188 -0.209216573
v 0.022774870 0.617630363 -0.209607750
v -0.159421254 0.550900877 -0.121777806
v 0.145093722 0.952752233 0.044562933
v -0.124196790 0.750548542 -0.154604232
v 0.151088154 0.952752233 0.028532223
v -0.150694807 0.614187777 -0.135272997
v 0.043162709 0.887057602 -0.185452864
v -0.157358838 0.597532868 -0.120663047
v 0.157082586 0.952752233 0.012501499
v 0.034160324 0.676327050 -0.201253454
v 0.036703816 0.702244520 -0.198663438
v -0.137036414 0.731666207 -0.146123112
v 0.163077030 0.952752233 -0.003529230
v -0.140524095 0.755520642 -0.140615574
v -0.101402877 0.928912938 -0.157143243
v -0.042109768 0.903983951 0.129854243
v 0.169071462 0.952752233 -0.019559939
v -0.150790245 0.548704922 -0.143647356
v -0.147596973 0.742863774 -0.125701311
v -0.150748827 0.591464877 -0.138369008
v -0.138833883 0.892588019 -0.127587263
v 0.169071474 0.952752233 -0.035590650
v -0.154163489 0.755455554 -0.107213795
v 0.035472891 0.598323286 -0.204465448
v -0.135147549 0.551503599 -0.158995986
v -0.161896479 0.743615329 -0.089048161
v 0.163077042 0.952752233 -0.051621379
v -0.130097404 0.877097249 -0.142628718
v 0.157082598 0.952752233 -0.067652092
v -0.167957116 0.762689531 -0.070091669
v -0.140272042 0.599505067 -0.152265064
v 0.155330512 0.705448985 0.049118834
v 0.151088154 0.952752292 -0.083682830
v -0.174611547 0.746641397 -0.054749722
v 0.046940932 0.727045417 -0.192647182
v -0.098983286 0.550743759 -0.177136959
v -0.018489915 0.556305945 -0.215751754
v 0.145093734 0.952752292 -0.099713530
v -0.176452117 0.766113818 -0.046818769
v 0.160922937 0.785276353 0.024751910
v -0.018051544 0.650133908 0.152680390
v 0.133104846 0.952752292 -0.131774981
v 0.158735965 0.755669415 0.034401277
v -0.065217311 0.757036209 0.126058930
v -0.108487203 0.594511509 -0.170379301
v -0.078190416 0.556331456 -0.186906438
v 0.056203388 0.603755355 -0.194189469
v -0.090747843 0.604330182 -0.178464139
v -0.058816281 0.575790286 -0.195304050
v -0.056576904 0.549534261 -0.197685282
v 0.076778391 0.641640723 -0.182434673
v 0.059365889 0.706336260 -0.187749676
v -0.159540124 0.723514080 0.040469124
v 0.046584591 0.787925541 0.132610006
v 0.038075992 0.762029767 0.137643621
v -0.159400558 0.749168396 0.037555497
v 0.032344741 0.735835373 0.141433032
v -0.026076908 0.751641870 -0.201453552
v 0.097693228 0.692422092 -0.169898184
v -0.150748511 0.764220715 0.057766354
v -0.056427939 0.618588626 -0.194340068
v -0.062043835 0.598614216 -0.192615201
v 0.109338388 0.632975519 -0.167118303
v -0.150216299 0.738107264 0.062456518
v -0.037139122 0.573624313 -0.205884469
v 0.123178107 0.952752292 -0.144129878
v 0.123486206 0.657875955 -0.158750252
v -0.044972076 0.599971592 -0.200796188
v -0.141519034 0.756457567 0.080999104
v -0.039846037 0.635066092 -0.201536147
v 0.108618770 0.952752292 -0.152154288
v -0.025648576 0.605770230 -0.209821121
v 0.118656501 0.604003906 -0.163866919
v -0.187058640 0.568178356 -0.010444105
v -0.179152544 0.552233815 0.012140653
v 0.139183962 0.652762949 -0.147821394
v -0.135984125 0.734446704 0.089900222
v -0.121231884 0.749564767 0.099030043
v 0.117625477 0.708781183 -0.159327289
v -0.073054390 0.830678999 0.119268137
v -0.062837720 0.952320576 0.118145209
v -0.111708139 0.722545564 0.105017065
v 0.136358915 0.701033235 -0.146881666
v -0.100079673 0.745292187 0.109736032
v -0.083886950 0.808681846 0.115038141
v 0.153916354 0.706853151 -0.110132502
v -0.086804446 0.723387063 0.116996036
v 0.106776046 0.865673423 -0.157189221
v -0.073007691 0.783138335 0.121279673
v -0.095872698 0.788500488 0.110059103
v 0.162101381 0.696904123 -0.090503483
v -0.087452299 0.765562892 0.115020700
v 0.164723241 0.629008293 -0.092508363
v 0.168569812 0.646259010 -0.080474763
v -0.080706565 0.744344234 0.119107621
v -0.064856324 0.729859471 0.127315674
v -0.108311996 0.768654704 0.104848303
v -0.024767592 0.747940898 0.145046321
v -0.116757219 0.791025460 0.099735874
v -0.106846946 0.811659515 0.103858304
v 0.170254033 0.691171050 -0.070201812
v 0.180763763 0.656776071 -0.046898514
v -0.060509864 0.804075420 0.126200637
v -0.128907700 0.772118211 0.093512055
v -0.040287346 0.653088391 0.142180768
v -0.128795619 0.812425256 0.091739444
v 0.173227108 0.664735794 -0.066013880
v -0.140588768 0.831852496 0.074872358
v 0.184536872 0.652855277 -0.026529696
v -0.150350191 0.789783061 0.055526507
v 0.182096605 0.702353358 -0.028212591
v -0.142983539 0.779688716 0.074957201
v -0.063030661 0.854101360 0.122714197
v -0.149454110 0.815526247 0.054532936
v 0.186239383 0.606149733 -0.024303190
v -0.067172324 0.902013361 0.118585832
v -0.000821820 0.749023736 -0.213053823
v -0.062321783 0.926525652 0.119632120
v -0.156465988 0.821815729 0.035306294
v -0.167071966 0.761076570 0.015669726
v -0.043364743 0.931421340 0.127985819
v -0.000791217 0.769396603 -0.211906132
v -0.093996732 0.952611029 0.104034513
v -0.175972900 0.749754548 -0.006525038
v 0.073253086 0.831885755 -0.174896688
v 0.112913008 0.915008962 -0.151616376
v -0.169342002 0.829850495 -0.000318909
v -0.078417239 0.952465832 0.111089848
v 0.175792832 0.696590781 -0.003088568
v 0.093028117 0.952752292 -0.159214664
v -0.173136909 0.892304182 -0.027311184
v 0.169093778 0.713957787 0.012491121
v -0.180088421 0.768414140 -0.024137044
v -0.178125231 0.795143723 -0.021521491
v -0.177242931 0.821288943 -0.022065444
v 0.077437491 0.952752292 -0.166275040
v 0.173230858 0.759034753 -0.004634049
v 0.061846788 0.952752292 -0.173335428
v -0.086707241 0.855830312 0.111817256
v -0.015511778 0.876993716 -0.199096957
v 0.162683270 0.702470124 0.030656585
v 0.046256162 0.952752292 -0.180395817
v 0.055944964 0.933298230 -0.177090830
v 0.179094045 0.595372140 0.001375400
v -0.081912469 0.926788509 0.110739735
v -0.019380628 0.853039324 -0.198708529
v -0.170376307 0.788808227 -0.059586531
v -0.153465036 0.897386014 -0.088120966
v -0.096253279 0.832882047 0.108125551
v 0.030665503 0.952752292 -0.187456192
v -0.162407628 0.788596153 -0.080954836
v 0.015074870 0.952752292 -0.194516569
v -0.146812973 0.795655072 -0.120479935
v 0.163579730 0.602958262 0.040181030
v -0.154158017 0.781365395 -0.103671575
v 0.015029345 0.936638951 -0.195433953
v -0.000515783 0.952752411 -0.201576944
v 0.159824392 0.679649949 0.040682834
v 0.157703409 0.652451456 0.049340742
v 0.079849525 0.790761888 -0.173810567
v 0.017484640 0.918333054 0.139840157
v -0.147703886 0.822529137 -0.114528453
v -0.146925206 0.769345939 -0.123793040
v -0.148998210 0.927123845 -0.095494572
v 0.064617239 0.810954273 -0.179972430
v 0.150949841 0.678003907 0.063588667
v -0.135926367 0.780892551 -0.143548218
v -0.047039934 0.525030434 -0.203505620
v -0.104154107 0.790940642 -0.162752414
v -0.062333759 0.525066316 -0.196114700
v -0.077627603 0.525102198 -0.188723767
v -0.115041219 0.772990823 -0.158295950
v 0.142127437 0.662765265 0.084950728
v 0.149663230 0.643335402 0.070998567
v -0.092921421 0.525138080 -0.181332847
v 0.148242005 0.613235354 0.078133292
v -0.109106482 0.842261136 -0.157815021
v 0.038722217 0.910350978 0.130587526
v 0.024406832 0.893371761 0.137843668
v -0.108215240 0.525174022 -0.173941914
v 0.142240620 0.692656159 0.082640230
v -0.102327905 0.815896332 -0.162399792
v 0.128206187 0.699171007 0.095938288
v 0.137463668 0.633889556 0.092261973
v -0.123509077 0.525209904 -0.166550981
v -0.000730661 0.809836328 0.153036101
v -0.000761264 0.789465368 0.153979464
v -0.086437443 0.793455839 -0.171187682
v -0.138280848 0.525246620 -0.158676701
v -0.073941161 0.857561707 -0.173710177
v -0.094339518 0.770450532 -0.168508256
v -0.150390621 0.525287986 -0.148337912
v -0.156583199 0.525339305 -0.132520894
v -0.162775777 0.525390565 -0.116703900
v -0.047548246 0.773074687 0.133537474
v -0.023803548 0.773877919 0.144266008
v 0.086330413 0.658419669 0.118918416
v 0.090450862 0.634638131 0.117829103
v -0.168968356 0.525441885 -0.100886869
v -0.175160947 0.525493205 -0.085069838
v -0.025463601 0.697713554 0.147088090
v 0.071476497 0.647911370 0.126490890
v 0.052137002 0.664435089 0.135205888
v -0.181353525 0.525544524 -0.069252819
v -0.070946535 0.833743155 -0.176428019
v 0.077728378 0.698899090 0.121539781
v -0.187546104 0.525595784 -0.053435816
v -0.049238430 0.682004392 0.136727731
v 0.031068934 0.663131714 0.145309191
v -0.028486499 0.630357385 0.148726677
v -0.089110169 0.837311268 -0.167726156
v 0.028579343 0.607371569 0.148739837
v -0.062518550 0.654916942 0.131397390
v 0.070055627 0.744050443 0.123535346
v -0.028445354 0.590242624 0.150364705
v -0.050496986 0.594436884 0.139574551
v -0.053111664 0.866971493 -0.182620078
v -0.067778437 0.880514264 -0.175197822
v -0.068821272 0.704196632 0.126417326
v -0.054296171 0.894556940 -0.180510216
v 0.085197359 0.872029543 -0.167223126
v -0.193738695 0.525647104 -0.037618795
v 0.082926233 0.723601520 0.118093493
v -0.072764155 0.600453734 0.128608669
v -0.093033744 0.699697971 0.114928858
v 0.090985835 0.845646620 -0.165802067
v -0.075178805 0.631069899 0.126237925
v -0.084956605 0.656320691 0.120531088
v -0.076986166 0.879155993 0.115210639
v 0.075173389 0.613492131 -0.184557948
v -0.052793969 0.878181577 0.126223575
v 0.101194355 0.729459524 0.109048117
v -0.094039948 0.636864960 0.116921864
v 0.127762333 0.862272978 -0.144590287
v -0.193745357 0.525646687 -0.021799861
v -0.024815359 0.722607613 0.146213733
v 0.096060780 0.603910983 -0.174925022
v -0.181381707 0.525542200 0.009841724
v -0.125307026 0.668964863 0.100265471
v 0.090189904 0.627042949 -0.176653904
v -0.175198805 0.525489986 0.025662509
v -0.107824900 0.652467430 0.109664823
v 0.115634067 0.714303792 0.102578977
v 0.119465933 0.740494072 0.099538101
v 0.119945088 0.887685359 -0.149197388
v -0.169015891 0.525437713 0.041483321
v -0.115232197 0.695007741 0.104340144
v -0.162832990 0.525385499 0.057304114
v -0.127197032 0.643081129 0.100327641
v -0.156650088 0.525333285 0.073124908
v -0.150467186 0.525281012 0.088945707
v -0.133916351 0.689922035 0.094182092
v -0.144194825 0.653774858 0.086135093
v -0.138336376 0.525119245 0.099258436
v 0.135659373 0.724176407 0.088957423
v -0.145131171 0.676287174 0.081798614
v -0.123554649 0.524908781 0.107116288
v -0.108256429 0.524688721 0.114495834
v 0.137830906 0.594970882 -0.152684056
v -0.145397004 0.698487222 0.078586506
v 0.152829030 0.733552814 0.052182496
v 0.136978346 0.615300655 -0.152291410
v 0.142505086 0.927037179 -0.110351269
v -0.092958216 0.524468660 0.121875367
v -0.143803066 0.631234169 0.088676593
v -0.077660003 0.524248660 0.129254925
v 0.124651718 0.932480156 -0.142465682
v -0.062361789 0.524028659 0.136634472
v -0.047063582 0.523808599 0.144014030
v 0.161042365 0.726738811 0.031965871
v 0.135372147 0.883615017 -0.132630999
v -0.031765369 0.523588538 0.151393564
v -0.016467158 0.523368537 0.158773110
v -0.152652538 0.711120784 0.059665536
v -0.001168949 0.523148477 0.166152668
v -0.153560043 0.662232459 0.063576615
v 0.148015018 0.608525991 -0.137799507
v 0.141855966 0.859504580 -0.121359891
v 0.167703636 0.740405798 0.012652262
v -0.160286556 0.697497606 0.041876493
v -0.161865422 0.646025240 0.044399877
v -0.161419503 0.672032177 0.042225041
v -0.040445958 0.723215342 -0.196559187
v 0.155713443 0.601608753 -0.119026576
v 0.179060289 0.757103741 -0.026073412
v 0.139154704 0.905372381 -0.122317554
v 0.013155387 0.772020340 -0.205444250
v -0.050858606 0.747068942 -0.190477930
v 0.067028678 0.729804933 -0.182923681
v -0.046521971 0.712205529 0.136804677
v 0.176976456 0.728300691 -0.010517955
v -0.170014541 0.657348871 0.022112580
v -0.174629698 0.702230930 0.003919936
v -0.157407146 0.799548984 0.035955935
v 0.163994985 0.605044127 -0.097438238
v -0.178975322 0.645957947 0.000393565
v 0.127619068 0.922800601 0.085471376
v 0.179723923 0.731593072 -0.036918363
v -0.177530246 0.674126625 0.000206060
v -0.182787732 0.692314506 -0.019164437
v -0.182886831 0.711356699 -0.036595664
v 0.171533805 0.591929436 -0.079866808
v 0.175625223 0.711304903 -0.052945779
v -0.186686235 0.633617938 -0.020683806
v -0.171428065 0.804103673 -0.002191863
v 0.144457054 0.881875038 -0.111643205
v -0.031678708 0.952030003 0.132255916
v 0.171297243 0.738472641 -0.060595028
v 0.162305430 0.746888816 -0.083387016
v -0.078605101 0.814400494 -0.173935378
v -0.057634887 0.816341341 -0.183455881
v 0.171663264 0.618377030 -0.076145757
v -0.185884212 0.662596285 -0.026006195
v 0.179140059 0.578001082 -0.062221423
v 0.167354447 0.717693806 -0.074100574
v -0.016091933 0.952776313 -0.194513148
v -0.031668100 0.952800035 -0.187449352
v 0.151350453 0.860036552 -0.096375897
v 0.018199030 0.755800426 0.146929564
v -0.047244259 0.952823699 -0.180385557
v -0.045779539 0.740831673 0.135851219
v 0.159948227 0.720913827 -0.092926942
v 0.153528028 0.735150218 -0.107498926
v -0.062820412 0.952847421 -0.173321762
v 0.151836903 0.887742043 -0.091072439
v -0.184545050 0.639161766 -0.044728422
v -0.078396568 0.952871084 -0.166257966
v -0.083070608 0.927215338 -0.165601462
v -0.174797940 0.809591830 -0.044155679
v -0.093972723 0.952894866 -0.159194170
v -0.109548854 0.952918530 -0.152130387
v 0.145783866 0.721020997 -0.129085004
v -0.173091084 0.705509126 -0.065163903
v -0.165011070 0.816747010 -0.069643014
v -0.155784317 0.834568977 -0.091598616
v -0.179092799 0.659843445 -0.056137051
v 0.159472265 0.871049762 -0.073064926
v 0.154247798 0.930904090 -0.078389505
v -0.179097105 0.590896189 -0.066072105
v 0.051254588 0.740267932 0.132636364
v 0.132934032 0.725461185 -0.149290115
v -0.063144566 0.791994393 -0.182328254
v -0.163435371 0.718647003 -0.088578373
v 0.161289339 0.924182296 -0.060529621
v -0.076846758 0.774479628 -0.176760438
v -0.170709840 0.583960176 -0.088434247
v 0.116597290 0.732839882 -0.158605886
v -0.169926867 0.653417110 -0.080930055
v -0.159206970 0.651162684 -0.108606953
v 0.168447674 0.921573043 -0.041421026
v -0.164423926 0.671252906 -0.092539053
v -0.155916537 0.705174625 -0.109617674
v 0.173224942 0.869639516 -0.030789064
v -0.158320048 0.623463273 -0.114661218
v -0.018388650 0.631612718 -0.211783019
v 0.081167814 0.712140381 -0.176938230
v -0.124086291 0.952943146 -0.144096592
v -0.133977870 0.952971816 -0.131724418
v -0.147628030 0.717767715 -0.129055682
v -0.148280087 0.692089200 -0.130904296
v -0.149686670 0.665673375 -0.130927474
v -0.150636278 0.639457822 -0.132089921
v -0.124794092 0.826046526 -0.150094229
v 0.067971357 0.791599989 0.122648043
v 0.180726196 0.606534839 -0.054318842
v -0.145942782 0.953036010 -0.099679230
v -0.151925231 0.953068137 -0.083656643
v 0.184752054 0.630633116 -0.040192697
v -0.001158467 0.524922252 -0.225678418
v -0.157907694 0.953100264 -0.067634043
v 0.167603182 0.872395039 -0.004827713
v -0.163890143 0.953132391 -0.051611436
v -0.169872605 0.953164518 -0.035588839
v -0.169883017 0.953164220 -0.019566476
v 0.175346964 0.756840646 -0.047111411
v 0.170318086 0.928639412 -0.023995478
v -0.163909623 0.953131557 -0.003544337
v -0.157925895 0.953098774 0.012477768
v -0.151942153 0.953065991 0.028499897
v 0.048399687 0.772579491 -0.189452428
v -0.145958424 0.953033268 0.044522002
v 0.165298707 0.922628105 -0.005419784
v -0.139974683 0.953000486 0.060544138
v -0.139669293 0.626127422 -0.151127431
v 0.159442145 0.863852203 0.018145819
v 0.017444573 0.684118330 -0.208393969
v -0.000944234 0.667532325 -0.217644585
v -0.000913631 0.687905192 -0.216496894
v 0.135628443 0.929376364 -0.127596231
v -0.138552457 0.652439594 -0.150008366
v -0.000883028 0.708278000 -0.215349203
v -0.135841898 0.705826759 -0.149434382
v 0.015419681 0.707110882 -0.208031328
v -0.000852424 0.728650928 -0.214201513
v -0.133990954 0.952967703 0.076566237
v 0.146832661 0.751510859 -0.122500603
v 0.157756606 0.924530327 0.014493976
v -0.121790264 0.637372911 -0.161719945
v -0.124111738 0.952889323 0.088948253
v -0.109576251 0.952756286 0.096979167
v 0.149889698 0.907511353 0.037820774
v 0.043567971 0.861246586 -0.186705834
v -0.136991058 0.678995788 -0.149743380
v -0.114924033 0.721846521 -0.160899696
v 0.150793087 0.933395207 0.031924257
v -0.119348642 0.664236188 -0.161582342
v 0.152082788 0.852725089 0.039322960
v -0.101701750 0.648119926 -0.171004823
v -0.000853098 0.728352427 0.156808983
v -0.100870886 0.929236174 0.101997607
v 0.137177252 0.933156490 0.068319958
v 0.139274283 0.910837531 0.065667136
v 0.143884512 0.930352807 0.050808724
v -0.085949403 0.631696701 -0.179428224
v -0.097975929 0.674418688 -0.171503533
v -0.079335459 0.657589972 -0.181342384
v 0.048666283 0.619168162 0.138596991
v -0.095991182 0.700995326 -0.171147303
v 0.046873920 0.911317050 -0.182422084
v -0.074893523 0.683407903 -0.182210865
v 0.024082689 0.900679588 -0.193335338
v -0.037435972 0.849378288 -0.190730730
v -0.034872595 0.880001843 -0.190146992
v 0.179091663 0.621404648 -0.001803595
v 0.164452505 0.631413043 0.034568132
v -0.050541355 0.667711973 -0.194753245
v -0.054333409 0.699320018 -0.191356987
v -0.139960319 0.953003883 -0.115701818
v 0.145858025 0.866362631 0.054019855
v 0.137758267 0.864781678 0.075163859
v -0.188939628 0.545475602 -0.012057394
v 0.155546049 0.592304349 0.062004861
v 0.156459849 0.622466087 0.056084260
v -0.187564608 0.525594473 -0.005979061
v 0.130273807 0.890558541 0.084514119
v -0.035499355 0.546053529 -0.208041068
v -0.031746135 0.524994493 -0.210896540
v 0.016406526 0.582452595 0.155509832
v -0.016452295 0.524958670 -0.218287485
v -0.000516644 0.952432513 0.146424228
v 0.062091514 0.899444401 -0.176191406
v -0.016099218 0.951884806 0.139311251
v -0.019447756 0.571335614 0.155441841
v 0.133283385 0.605080068 0.097110418
v 0.033093367 0.933034420 0.132103430
v 0.088501972 0.551882744 0.121905246
v 0.075833945 0.569243193 0.127366250
v 0.110016424 0.567537189 0.110920808
v 0.046622366 0.832157373 -0.186941548
v 0.130322229 0.575901568 0.100106778
v 0.057195838 0.571828544 0.136270502
v 0.178321229 0.569054186 0.006483516
v 0.121315130 0.856429040 0.093726876
v 0.110551676 0.878669143 0.098748833
v 0.160581248 0.895374954 0.010860693
v 0.112705286 0.595022082 0.108580045
v 0.170889689 0.898625493 -0.020739719
v 0.166946768 0.890749991 -0.050230080
v 0.051550247 0.929558218 0.123903850
v 0.092715243 0.608232975 0.117735654
v 0.114160886 0.626368940 0.106634195
v 0.157687221 0.902057171 -0.073359018
v 0.149818730 0.916513503 -0.092312983
v 0.092830503 0.581266046 0.118701524
v 0.145590545 0.903415024 -0.105512614
v 0.171041529 0.566025913 -0.084442510
v 0.160919163 0.576684475 -0.108926079
v 0.070515155 0.619332790 0.128037787
v 0.149034680 0.578013659 -0.138360395
v 0.129599369 0.908508897 -0.139644080
v 0.073591654 0.592592359 0.127564789
v 0.112403721 0.683298349 0.105360566
v 0.147430900 0.582844257 0.083895398
v 0.163084705 0.574618876 0.044813533
v 0.170929676 0.584718108 0.023538483
v 0.178000361 0.684567988 -0.050456634
v 0.147642182 0.690497935 -0.128249897
v 0.052249599 0.596269727 0.137733677
v 0.139131754 0.675760686 -0.146652563
v 0.187577963 0.584046066 -0.038740890
v 0.185902848 0.578281045 -0.015010135
v 0.037840626 0.638359964 0.143093213
v 0.013235259 0.663559675 0.153381275
v 0.092399384 0.888348997 0.107200871
v 0.070022905 0.927486360 0.115633138
v 0.018595741 0.686966598 0.149886919
v 0.035234264 0.809875131 0.136749795
v 0.022548147 0.782957613 0.143722041
v 0.023236001 0.574575901 -0.211514754
v 0.058678322 0.905268669 0.121782918
v 0.040305519 0.624517977 -0.200876312
v 0.033102765 0.872806072 0.134844096
v 0.047062925 0.886233568 0.127910355
v 0.015466937 0.872012615 0.142865479
v 0.038663232 0.551669776 -0.205157923
v 0.058879470 0.632798195 -0.191505875
v 0.077547584 0.768411636 0.118993931
v 0.168127554 0.685877681 0.018628485
v 0.164788546 0.800420225 -0.069051512
v 0.063149935 0.551917136 -0.193315402
v 0.156057730 0.678730607 -0.108267042
v 0.121111119 0.777433574 -0.153791405
v 0.120375757 0.683683097 -0.159155222
v 0.089208335 0.552039146 -0.180719522
v 0.052362044 0.681423783 -0.192326442
v 0.037587167 0.749989808 -0.195606185
v 0.127467076 0.574996591 -0.160743486
v 0.114277198 0.551904082 -0.168584290
v 0.094428950 0.921740294 -0.160306231
v 0.076806136 0.903412998 0.113659093
v 0.070656698 0.875086248 0.117735641
v 0.138658425 0.550907195 -0.154553758
v 0.027400772 0.852214098 0.138365152
v 0.043921140 0.834853172 0.131676979
v 0.073878653 0.923047423 -0.169539888
v 0.154050728 0.550624371 -0.129804369
v 0.153945942 0.761675239 -0.103033507
v 0.022302796 0.820547938 -0.198601007
v 0.159021659 0.623026013 -0.107834663
v 0.163785869 0.549230337 -0.105122730
v 0.019051596 0.661439955 -0.208928347
v 0.172080406 0.543056667 -0.084732258
v 0.030195946 0.774276376 -0.197601712
v 0.179741922 0.549933791 -0.064286347
v 0.185533254 0.563384056 -0.047743978
v 0.064023242 0.718823552 0.127404121
v 0.100291548 0.893091917 -0.159027967
v 0.080824173 0.897999167 -0.167788574
v 0.018504913 0.749679983 -0.204265009
v 0.189649396 0.558403432 -0.028175582
v 0.128640744 0.633584082 -0.157213906
v 0.184612058 0.631396532 -0.019571966
v 0.171486511 0.612350285 0.018831796
v 0.152429329 0.630913198 -0.123658768
v 0.144465172 0.633215785 -0.141811306
v 0.170601601 0.554842234 0.027926250
v 0.144036669 0.845797241 0.061351822
v 0.165473954 0.843066156 0.004810262
v 0.176732167 0.636662126 -0.060640759
v 0.049599428 0.576490283 -0.198685666
v 0.155125196 0.558987737 0.067038686
v 0.088053057 0.747797012 0.114700693
v 0.179419079 0.648089588 -0.006264151
v 0.172279136 0.639654160 0.013560700
v 0.093655090 0.647362292 -0.174006776
v 0.144487490 0.551915288 0.088823759
v 0.114145700 0.836730123 -0.154831067
v -0.000822473 0.748723388 0.155866177
v -0.000975683 0.646868229 0.160578051
v 0.056187916 0.638309956 0.134238954
v 0.125951767 0.549338162 0.103611026
v 0.136046635 0.840198159 -0.135923599
v -0.000883744 0.707981348 0.157751256
v -0.000791869 0.769094408 0.154922827
v 0.107105032 0.543762922 0.113227601
v 0.020820584 0.830166519 0.142350467
v -0.000700057 0.830207288 0.152092739
v 0.111009019 0.905458272 0.097578799
v 0.066470190 0.548666358 0.132668396
v 0.109537839 0.931595623 0.097187287
v 0.185174883 0.550998926 -0.008910975
v 0.104319370 0.751492679 0.106704111
v 0.033214115 0.927046716 -0.187732653
v 0.044224388 0.549349546 0.143387203
v 0.063638886 0.877580047 -0.176707494
v 0.020681250 0.553337991 0.154601263
v 0.036455307 0.576723397 0.146102170
v 0.040863662 0.801257789 -0.191269110
v 0.015180886 0.807723224 0.145928077
v 0.017733369 0.634883583 0.152647243
v -0.001006329 0.626497209 0.161520299
v -0.000914390 0.687610328 0.158693517
v 0.188205385 0.543502927 -0.042869669
v -0.000945036 0.667239308 0.159635778
v 0.076247528 0.581617773 -0.185565211
v 0.086626177 0.738905907 -0.173019437
v 0.105403103 0.755012274 -0.163176205
v 0.144390633 0.743858516 0.072552753
v 0.097237975 0.704511762 0.111904068
v 0.147237529 0.713846862 0.068831746
v 0.103412359 0.577509284 -0.172637304
v 0.178261725 0.544668257 0.009531987
f 555 540 123
f 389 162 497
f 567 540 568
f 583 104 251
f 463 489 430
f 453 94 255
f 483 484 162
f 446 640 671
f 574 577 251
f 50 244 238
f 52 244 50
f 575 57 53
f 55 249 52
f 55 2 250
f 577 248 563
f 575 437 432
f 57 597 589
f 2 265 262
f 589 592 57
f 262 259 2
f 5 267 262
f 602 606 589
f 5 9 11
f 58 606 610
f 11 272 5
f 12 278 11
f 565 793 8
f 630 60 632
f 13 425 12
f 424 289 160
f 289 424 13
f 643 649 60
f 181 403 179
f 483 206 484
f 163 651 174
f 53 563 558
f 651 65 650
f 163 389 384
f 683 66 65
f 455 558 563
f 165 384 171
f 340 331 34
f 67 66 683
f 206 470 63
f 385 102 856
f 67 702 70
f 344 340 696
f 179 403 406
f 710 70 702
f 16 352 14
f 111 112 59
f 63 64 655
f 18 368 16
f 710 742 753
f 119 112 111
f 394 671 545
f 551 922 903
f 19 375 18
f 753 740 711
f 406 470 179
f 261 615 108
f 545 453 439
f 178 386 530
f 24 386 23
f 72 753 742
f 26 396 24
f 768 765 72
f 119 142 112
f 32 63 470
f 112 142 161
f 399 400 396
f 154 343 182
f 545 671 448
f 399 415 400
f 768 770 765
f 32 406 410
f 418 415 399
f 770 183 777
f 387 300 166
f 415 418 422
f 105 86 299
f 169 42 839
f 170 142 119
f 173 172 705
f 329 638 343
f 134 738 737
f 185 638 329
f 692 661 145
f 150 74 741
f 637 345 873
f 132 145 661
f 170 184 142
f 138 495 760
f 138 136 188
f 136 194 188
f 201 87 194
f 270 87 205
f 216 49 210
f 46 216 724
f 198 184 170
f 43 96 907
f 219 39 218
f 45 43 41
f 224 37 219
f 498 224 514
f 86 105 342
f 225 36 514
f 378 107 110
f 80 233 107
f 22 41 43
f 198 217 849
f 41 581 45
f 103 233 76
f 76 40 103
f 222 217 214
f 678 100 40
f 98 41 22
f 366 41 98
f 40 76 678
f 215 4 284
f 215 98 21
f 537 536 92
f 222 234 217
f 904 537 92
f 460 462 30
f 284 471 366
f 222 239 246
f 586 903 759
f 462 28 30
f 246 234 222
f 454 449 28
f 237 391 924
f 560 319 921
f 246 888 252
f 431 471 282
f 455 560 391
f 319 560 241
f 50 238 793
f 50 566 52
f 52 574 55
f 258 263 510
f 244 52 249
f 55 253 2
f 284 792 657
f 303 670 667
f 303 100 674
f 250 249 55
f 273 274 252
f 251 253 574
f 100 303 301
f 301 570 100
f 104 261 257
f 677 100 678
f 273 285 274
f 257 2 253
f 2 257 265
f 250 2 259
f 570 568 40
f 752 292 293
f 294 296 285
f 285 296 274
f 684 497 679
f 277 274 296
f 440 447 442
f 579 489 463
f 692 329 695
f 259 262 267
f 871 736 360
f 262 271 9
f 40 100 570
f 570 567 568
f 203 128 270
f 310 296 294
f 305 296 310
f 87 270 194
f 9 5 262
f 5 272 600
f 276 9 271
f 9 276 11
f 272 11 278
f 302 323 310
f 568 103 40
f 108 615 89
f 280 11 276
f 11 280 12
f 103 568 540
f 278 12 425
f 323 337 328
f 283 12 280
f 12 283 13
f 283 297 289
f 289 13 283
f 540 561 231
f 425 13 424
f 209 288 205
f 291 125 286
f 346 337 323
f 49 304 288
f 173 350 351
f 297 654 314
f 347 158 864
f 304 47 311
f 47 304 49
f 47 46 481
f 360 361 855
f 501 684 146
f 481 311 47
f 46 39 481
f 343 695 329
f 314 289 297
f 289 314 160
f 481 321 308
f 481 39 321
f 325 122 321
f 325 321 37
f 37 321 39
f 333 160 314
f 324 266 333
f 527 107 231
f 84 121 325
f 36 327 498
f 160 333 34
f 327 120 84
f 36 82 371
f 277 393 390
f 689 34 333
f 34 689 340
f 313 34 331
f 266 334 689
f 334 260 341
f 340 335 331
f 107 527 110
f 54 404 405
f 696 14 344
f 61 401 44
f 38 299 407
f 358 14 348
f 14 358 16
f 344 14 352
f 356 704 712
f 352 16 368
f 413 62 417
f 370 16 358
f 16 370 18
f 175 705 134
f 713 115 110
f 371 27 378
f 27 371 82
f 381 18 370
f 18 381 19
f 368 18 375
f 80 378 27
f 19 381 235
f 19 395 23
f 19 23 178
f 202 506 913
f 23 395 24
f 386 24 396
f 398 24 395
f 24 398 26
f 26 398 220
f 26 412 399
f 396 26 399
f 418 399 412
f 164 180 444
f 444 443 164
f 175 173 705
f 685 84 120
f 422 300 415
f 685 121 84
f 172 169 300
f 172 300 422
f 78 80 27
f 226 365 78
f 89 615 114
f 240 485 309
f 134 737 175
f 226 27 82
f 245 459 452
f 187 186 140
f 243 459 245
f 189 187 130
f 581 466 579
f 467 472 637
f 308 122 240
f 138 579 466
f 430 255 463
f 499 435 430
f 453 430 435
f 435 440 439
f 435 499 450
f 243 479 281
f 308 321 122
f 897 438 584
f 439 453 435
f 243 281 893
f 450 440 435
f 480 859 865
f 440 449 447
f 442 439 440
f 450 449 440
f 447 449 454
f 492 488 493
f 127 458 456
f 449 456 28
f 82 225 708
f 454 28 462
f 28 456 30
f 456 450 127
f 30 456 458
f 225 82 36
f 30 464 460
f 506 507 502
f 126 469 125
f 287 508 509
f 207 507 506
f 410 460 32
f 126 306 477
f 460 464 644
f 644 32 460
f 32 644 63
f 475 31 576
f 470 406 32
f 64 63 644
f 306 309 477
f 125 464 458
f 528 795 511
f 516 523 524
f 655 206 63
f 206 655 484
f 206 474 470
f 162 679 497
f 316 322 822
f 313 160 34
f 37 498 325
f 523 316 534
f 497 684 501
f 501 146 505
f 146 512 503
f 505 503 513
f 263 515 510
f 512 120 115
f 503 512 91
f 517 513 503
f 115 713 91
f 458 203 125
f 315 547 548
f 91 512 115
f 547 330 336
f 91 713 88
f 517 88 522
f 552 548 547
f 532 88 713
f 88 532 519
f 552 336 553
f 522 519 541
f 527 231 561
f 127 128 458
f 538 660 692
f 514 36 498
f 224 498 37
f 538 692 695
f 114 626 631
f 553 342 105
f 219 37 39
f 555 660 561
f 127 450 499
f 891 199 824
f 660 555 661
f 218 39 46
f 199 97 886
f 366 98 284
f 22 21 98
f 41 366 581
f 43 232 22
f 907 232 43
f 96 536 907
f 45 463 255
f 45 581 463
f 255 94 96
f 255 96 45
f 94 453 545
f 448 546 545
f 582 593 594
f 595 584 438
f 216 46 47
f 216 47 49
f 551 640 558
f 558 640 569
f 49 288 209
f 793 565 50
f 569 53 558
f 566 50 565
f 209 210 49
f 841 351 350
f 574 52 566
f 578 53 57
f 612 609 423
f 53 578 563
f 575 53 569
f 597 432 211
f 253 55 574
f 57 575 597
f 578 57 592
f 592 583 578
f 627 609 612
f 584 621 628
f 603 589 606
f 602 589 597
f 634 819 627
f 610 606 602
f 835 318 229
f 626 606 58
f 610 624 58
f 58 624 630
f 632 58 630
f 634 884 869
f 58 632 626
f 60 642 632
f 642 60 649
f 60 630 181
f 650 649 643
f 662 652 645
f 656 628 621
f 621 636 656
f 658 659 204
f 64 644 469
f 466 495 138
f 694 377 700
f 468 471 431
f 663 650 65
f 628 656 668
f 679 162 484
f 65 686 663
f 672 673 659
f 686 65 66
f 683 65 651
f 468 431 478
f 683 693 67
f 685 146 684
f 146 685 512
f 696 340 689
f 66 67 701
f 473 495 478
f 66 698 686
f 702 67 693
f 668 675 687
f 701 698 66
f 405 690 54
f 701 67 70
f 54 690 564
f 14 696 348
f 711 70 710
f 699 70 711
f 702 709 710
f 229 318 236
f 657 282 471
f 710 709 742
f 753 756 740
f 756 753 72
f 742 754 72
f 72 754 768
f 72 765 756
f 766 765 770
f 490 193 496
f 130 772 496
f 770 776 766
f 15 719 168
f 87 201 148
f 183 770 768
f 201 194 136
f 422 705 172
f 633 777 338
f 777 633 150
f 408 74 633
f 638 185 408
f 106 730 258
f 688 379 694
f 275 631 118
f 185 692 145
f 197 750 749
f 736 737 738
f 263 258 730
f 738 741 743
f 185 145 143
f 743 741 744
f 744 741 74
f 744 467 879
f 132 140 145
f 123 132 661
f 741 738 150
f 123 540 567
f 773 772 567
f 738 134 150
f 78 27 226
f 238 623 1
f 264 279 779
f 776 150 134
f 134 705 420
f 695 541 538
f 104 599 261
f 365 681 680
f 761 762 763
f 365 678 76
f 76 78 365
f 411 156 420
f 156 411 220
f 541 519 538
f 220 764 156
f 76 233 78
f 80 78 233
f 168 789 387
f 70 699 701
f 398 395 228
f 434 437 445
f 779 780 887
f 428 432 434
f 926 317 706
f 197 749 745
f 213 6 4
f 279 785 780
f 419 427 428
f 148 201 745
f 454 462 419
f 526 782 783
f 381 734 235
f 410 414 419
f 493 769 913
f 511 4 215
f 4 511 213
f 406 414 410
f 208 731 729
f 21 511 215
f 210 728 727
f 794 800 823
f 511 21 529
f 470 474 179
f 724 218 46
f 227 110 115
f 118 280 275
f 219 218 722
f 806 800 794
f 803 804 256
f 716 778 225
f 224 219 720
f 407 86 690
f 356 734 381
f 389 497 380
f 809 795 528
f 810 806 811
f 717 716 514
f 497 501 380
f 317 697 429
f 810 818 821
f 913 771 202
f 341 698 699
f 373 376 159
f 369 177 373
f 341 260 698
f 260 334 266
f 365 226 681
f 517 522 354
f 828 821 818
f 354 362 364
f 569 640 446
f 519 522 88
f 767 828 818
f 266 324 676
f 602 597 211
f 804 834 256
f 121 240 122
f 345 868 918
f 610 602 211
f 169 839 166
f 427 195 211
f 643 179 174
f 683 651 165
f 693 683 171
f 627 884 634
f 324 654 676
f 846 397 841
f 841 397 374
f 362 709 369
f 580 397 846
f 192 188 190
f 192 499 489
f 128 192 190
f 270 205 203
f 205 288 286
f 291 306 126
f 208 148 733
f 288 304 291
f 304 311 306
f 311 481 308
f 286 125 203
f 283 118 297
f 589 599 592
f 283 280 118
f 227 115 120
f 747 805 732
f 707 226 82
f 107 378 80
f 275 114 631
f 118 646 297
f 89 114 275
f 231 233 103
f 87 209 205
f 816 872 870
f 271 108 89
f 248 560 455
f 248 241 560
f 108 271 265
f 566 565 241
f 86 876 690
f 622 244 619
f 517 91 88
f 574 566 248
f 715 662 889
f 244 249 618
f 249 250 614
f 882 465 718
f 253 251 257
f 774 465 882
f 250 259 608
f 883 494 774
f 921 391 560
f 259 267 604
f 54 564 847
f 251 577 583
f 600 267 5
f 89 276 271
f 503 91 517
f 690 405 407
f 275 276 89
f 892 573 582
f 272 278 596
f 248 577 574
f 280 276 275
f 425 588 591
f 425 424 781
f 781 313 572
f 424 313 781
f 572 585 781
f 314 654 324
f 136 197 201
f 313 557 572
f 237 551 558
f 554 331 335
f 334 341 348
f 760 136 138
f 335 344 549
f 341 699 704
f 348 696 334
f 921 319 7
f 358 348 704
f 344 352 544
f 912 582 594
f 903 586 551
f 352 368 543
f 381 370 356
f 368 375 539
f 788 8 3
f 535 375 178
f 221 795 809
f 828 767 562
f 559 833 920
f 921 920 899
f 546 448 898
f 903 922 836
f 38 903 299
f 235 228 395
f 405 669 407
f 546 92 94
f 400 518 520
f 92 546 904
f 639 35 926
f 386 396 525
f 927 926 33
f 928 605 930
f 200 490 298
f 94 545 546
f 96 92 536
f 927 56 852
f 143 472 408
f 220 412 26
f 400 520 521
f 412 220 411
f 109 113 152
f 920 832 559
f 418 412 411
f 152 113 746
f 387 789 786
f 420 418 411
f 746 161 867
f 418 420 422
f 490 773 298
f 496 772 773
f 394 442 445
f 562 767 832
f 739 636 820
f 204 725 658
f 773 490 496
f 725 223 635
f 447 454 428
f 472 186 637
f 215 284 98
f 189 130 496
f 458 464 30
f 410 462 460
f 125 469 464
f 635 247 487
f 487 269 629
f 641 487 629
f 268 269 487
f 269 393 629
f 390 269 268
f 469 126 64
f 349 761 763
f 655 64 477
f 303 674 670
f 290 393 277
f 611 290 928
f 163 474 483
f 928 307 605
f 635 641 648
f 531 605 533
f 677 674 100
f 477 309 485
f 506 202 207
f 679 485 240
f 240 121 684
f 312 912 594
f 684 679 240
f 121 685 684
f 186 187 345
f 503 505 146
f 912 332 892
f 772 130 132
f 685 120 512
f 501 505 159
f 725 648 658
f 505 513 373
f 513 517 364
f 892 847 564
f 110 527 713
f 714 847 339
f 522 541 154
f 51 714 346
f 231 103 540
f 714 51 404
f 541 695 343
f 567 772 123
f 502 500 506
f 578 577 563
f 867 659 673
f 577 578 583
f 597 575 432
f 592 104 583
f 913 492 493
f 845 167 839
f 599 104 592
f 386 178 23
f 599 603 615
f 110 227 378
f 615 261 599
f 706 402 639
f 603 626 114
f 132 123 772
f 624 610 195
f 409 706 317
f 746 673 682
f 114 615 603
f 120 327 227
f 624 414 403
f 691 429 697
f 642 631 632
f 642 118 631
f 429 433 853
f 646 118 642
f 642 649 646
f 152 682 691
f 682 433 691
f 181 643 60
f 654 297 646
f 122 325 121
f 140 130 187
f 421 416 617
f 123 661 555
f 309 308 240
f 698 260 686
f 702 693 177
f 698 701 699
f 672 441 436
f 291 126 125
f 109 691 697
f 143 140 186
f 874 872 816
f 665 441 672
f 188 192 489
f 665 658 653
f 712 704 699
f 653 451 665
f 927 697 317
f 712 740 734
f 648 461 653
f 178 375 19
f 923 880 116
f 641 461 648
f 740 756 748
f 748 758 228
f 926 706 639
f 479 641 482
f 754 742 362
f 354 754 362
f 407 669 38
f 203 458 128
f 482 629 620
f 756 765 758
f 182 754 154
f 128 127 192
f 254 246 252
f 611 382 620
f 764 398 228
f 499 192 127
f 764 766 156
f 766 776 156
f 930 611 928
f 420 156 776
f 140 132 130
f 788 7 8
f 387 166 168
f 420 776 134
f 136 760 197
f 300 387 415
f 750 197 760
f 745 201 197
f 148 208 209
f 733 148 745
f 258 35 106
f 593 533 605
f 731 208 733
f 236 318 910
f 729 210 208
f 728 210 729
f 727 216 210
f 188 489 579
f 929 573 556
f 724 216 727
f 573 929 582
f 723 218 724
f 722 218 723
f 720 219 722
f 717 224 720
f 514 224 717
f 188 579 138
f 876 556 573
f 707 681 226
f 898 904 546
f 472 143 186
f 212 795 221
f 899 391 921
f 854 925 931
f 213 795 212
f 140 143 145
f 404 54 714
f 833 922 924
f 415 387 786
f 143 408 185
f 238 3 793
f 1 3 238
f 31 799 752
f 622 238 244
f 918 799 515
f 380 376 171
f 915 752 357
f 617 476 421
f 619 244 618
f 618 249 616
f 616 249 614
f 636 739 613
f 388 613 10
f 614 250 608
f 357 791 915
f 383 688 388
f 608 259 607
f 571 438 576
f 295 667 666
f 92 96 94
f 607 259 604
f 372 726 700
f 667 295 303
f 367 726 372
f 604 267 601
f 298 295 207
f 923 875 880
f 363 732 367
f 408 467 74
f 148 209 87
f 298 301 295
f 359 747 363
f 601 267 600
f 359 355 755
f 600 272 598
f 598 272 596
f 353 755 355
f 301 298 773
f 596 278 591
f 747 755 751
f 591 278 425
f 588 425 781
f 388 688 813
f 769 771 913
f 763 353 349
f 202 771 200
f 506 500 913
f 74 467 744
f 773 570 301
f 82 708 707
f 320 647 326
f 500 492 913
f 331 554 557
f 242 910 320
f 344 335 340
f 910 908 647
f 554 335 550
f 239 222 703
f 549 550 335
f 549 344 544
f 166 167 168
f 544 352 543
f 543 368 542
f 17 15 167
f 17 845 157
f 907 536 919
f 157 850 155
f 155 850 153
f 542 368 539
f 150 633 74
f 153 854 151
f 151 854 149
f 149 858 147
f 147 862 144
f 539 375 535
f 759 903 38
f 530 535 178
f 144 862 141
f 141 866 139
f 139 866 137
f 530 386 525
f 137 870 135
f 525 396 521
f 135 870 872
f 133 872 131
f 131 874 129
f 129 923 117
f 923 874 875
f 170 119 902
f 521 396 400
f 20 932 101
f 99 101 932
f 99 886 97
f 95 97 199
f 95 891 93
f 93 896 90
f 518 400 786
f 90 896 85
f 85 901 83
f 83 905 81
f 169 166 300
f 81 905 79
f 77 79 796
f 77 909 75
f 439 394 545
f 75 914 73
f 73 914 71
f 71 916 69
f 442 394 439
f 468 466 366
f 442 447 434
f 7 562 920
f 794 534 811
f 924 899 833
f 434 447 428
f 428 454 419
f 419 462 410
f 38 898 759
f 902 111 897
f 466 468 495
f 526 524 534
f 25 59 56
f 96 43 45
f 895 401 61
f 182 343 338
f 483 389 163
f 483 162 389
f 897 59 25
f 883 894 775
f 776 777 150
f 59 897 111
f 380 384 389
f 774 882 893
f 111 902 119
f 778 708 225
f 501 159 380
f 167 166 839
f 159 505 373
f 176 191 867
f 373 513 369
f 364 369 513
f 850 890 925
f 354 364 517
f 354 522 154
f 177 369 709
f 154 541 343
f 446 445 437
f 376 380 159
f 204 223 725
f 217 198 214
f 214 703 222
f 437 569 446
f 610 211 195
f 414 624 195
f 403 630 624
f 889 718 715
f 160 313 424
f 181 630 403
f 888 246 239
f 179 643 181
f 174 650 643
f 651 650 174
f 163 384 165
f 487 247 268
f 165 651 163
f 171 683 165
f 174 474 163
f 557 313 331
f 475 515 799
f 376 693 171
f 285 273 757
f 177 693 376
f 627 885 884
f 174 179 474
f 509 508 516
f 294 302 310
f 709 702 177
f 709 362 742
f 154 754 354
f 182 338 183
f 780 785 803
f 183 768 182
f 423 413 881
f 183 338 777
f 638 338 343
f 633 638 408
f 590 401 895
f 692 185 329
f 190 188 194
f 515 475 25
f 270 190 194
f 190 270 128
f 195 427 414
f 7 788 562
f 915 878 571
f 877 595 438
f 203 205 286
f 44 48 61
f 474 206 483
f 210 209 208
f 61 62 895
f 413 895 62
f 211 432 427
f 172 42 169
f 398 764 220
f 515 263 918
f 437 575 569
f 228 758 764
f 124 885 426
f 175 871 350
f 84 498 327
f 225 514 716
f 327 371 227
f 918 263 730
f 898 448 759
f 371 327 36
f 839 374 890
f 227 371 378
f 451 441 665
f 228 235 748
f 444 180 457
f 233 231 107
f 187 868 345
f 759 448 586
f 189 292 868
f 734 748 235
f 653 461 826
f 924 922 237
f 292 193 196
f 446 671 394
f 461 641 479
f 922 551 237
f 391 237 455
f 482 641 629
f 918 868 799
f 196 200 293
f 771 293 200
f 558 455 237
f 281 287 894
f 894 893 281
f 248 566 241
f 257 251 104
f 255 430 453
f 257 261 265
f 509 775 287
f 260 266 676
f 509 516 524
f 265 261 108
f 523 516 531
f 322 316 523
f 273 252 888
f 265 271 262
f 811 534 316
f 316 315 811
f 676 686 260
f 366 466 581
f 478 495 468
f 330 547 315
f 547 336 552
f 366 471 468
f 760 495 473
f 657 471 284
f 336 342 553
f 553 900 552
f 832 900 553
f 865 878 791
f 792 284 4
f 31 571 576
f 286 288 291
f 438 571 877
f 906 864 863
f 4 790 792
f 8 7 319
f 303 295 301
f 291 304 306
f 570 773 567
f 739 617 392
f 617 416 392
f 306 311 309
f 309 311 308
f 170 628 668
f 613 739 10
f 739 392 10
f 656 675 668
f 656 815 675
f 680 678 365
f 813 613 388
f 324 333 314
f 687 198 668
f 379 688 383
f 295 666 207
f 815 656 636
f 377 694 379
f 325 498 84
f 689 333 266
f 334 696 689
f 700 377 372
f 861 834 860
f 703 721 239
f 732 726 367
f 834 861 256
f 348 341 704
f 747 732 363
f 356 358 704
f 735 888 721
f 370 358 356
f 735 264 757
f 735 273 888
f 755 747 359
f 369 364 362
f 353 763 755
f 647 761 326
f 761 349 326
f 376 373 177
f 779 757 264
f 780 779 279
f 384 380 171
f 235 395 19
f 736 871 737
f 562 788 917
f 910 647 320
f 785 804 803
f 414 406 403
f 256 323 803
f 813 675 815
f 415 786 400
f 427 419 414
f 422 420 705
f 432 428 427
f 430 489 499
f 587 580 590
f 437 434 432
f 445 442 434
f 446 394 445
f 671 586 448
f 819 609 627
f 456 449 450
f 455 563 248
f 865 791 769
f 581 579 463
f 645 652 817
f 644 464 469
f 652 662 715
f 874 923 129
f 715 664 652
f 694 812 688
f 477 64 126
f 750 760 473
f 485 655 477
f 465 715 718
f 507 207 666
f 465 774 494
f 865 486 480
f 812 675 813
f 485 484 655
f 207 202 298
f 883 504 825
f 493 865 769
f 783 782 504
f 679 484 485
f 202 200 298
f 196 490 200
f 196 193 490
f 877 859 476
f 302 803 323
f 189 496 193
f 814 806 810
f 168 719 789
f 821 814 810
f 391 899 924
f 713 527 532
f 467 408 472
f 302 294 887
f 786 787 518
f 538 519 532
f 561 532 527
f 926 35 33
f 538 532 660
f 540 555 561
f 551 586 640
f 319 241 565
f 660 532 561
f 113 161 746
f 161 176 867
f 8 319 565
f 223 247 635
f 781 585 784
f 620 629 393
f 887 780 302
f 269 390 393
f 671 640 586
f 781 784 588
f 599 589 603
f 393 290 611
f 626 603 606
f 928 290 305
f 623 238 622
f 625 1 623
f 774 893 894
f 312 332 912
f 626 632 631
f 332 339 847
f 847 892 332
f 757 887 285
f 847 714 54
f 793 3 8
f 732 807 726
f 858 931 857
f 675 812 687
f 168 167 15
f 273 735 757
f 920 921 7
f 402 385 639
f 167 845 17
f 638 633 338
f 646 649 663
f 650 663 649
f 845 850 157
f 888 239 721
f 663 654 646
f 706 409 48
f 850 854 153
f 676 654 663
f 429 409 317
f 661 692 660
f 854 858 149
f 676 663 686
f 858 862 147
f 433 429 691
f 678 680 677
f 699 711 712
f 712 734 356
f 711 710 753
f 862 866 141
f 712 711 740
f 682 436 827
f 734 740 748
f 866 870 137
f 214 687 808
f 748 756 758
f 664 816 652
f 872 133 135
f 198 687 214
f 754 182 768
f 872 874 131
f 665 659 658
f 758 765 766
f 658 648 653
f 766 764 758
f 776 770 777
f 668 198 170
f 117 923 116
f 787 786 789
f 929 330 822
f 533 822 322
f 556 336 330
f 531 322 523
f 899 920 833
f 662 444 889
f 346 323 256
f 491 482 620
f 116 880 911
f 911 20 116
f 382 491 620
f 911 932 20
f 932 886 99
f 645 443 662
f 930 382 611
f 382 930 516
f 886 824 199
f 605 531 930
f 491 508 848
f 628 170 902
f 256 347 346
f 482 848 479
f 891 896 93
f 347 256 861
f 820 617 739
f 866 819 817
f 605 594 593
f 896 901 85
f 929 593 582
f 612 881 885
f 901 905 83
f 826 451 653
f 451 457 180
f 672 659 665
f 441 180 851
f 79 905 796
f 436 673 672
f 436 851 827
f 909 914 75
f 682 673 436
f 914 916 71
f 584 902 897
f 876 86 342
f 69 916 1
f 829 433 827
f 700 808 694
f 788 3 916
f 853 829 417
f 409 61 48
f 402 48 855
f 870 817 816
f 855 29 360
f 874 816 664
f 385 361 102
f 830 880 875
f 576 897 25
f 819 634 817
f 68 69 1
f 106 856 730
f 743 736 738
f 910 242 236
f 862 857 819
f 744 879 102
f 880 830 831
f 840 528 843
f 401 846 44
f 803 302 780
f 769 791 357
f 878 915 791
f 831 911 880
f 918 873 345
f 576 25 475
f 799 31 475
f 841 29 846
f 879 856 102
f 106 639 385
f 573 564 876
f 911 831 802
f 342 556 876
f 337 339 332
f 25 510 515
f 350 29 841
f 564 573 892
f 892 582 912
f 510 25 56
f 864 906 837
f 312 328 337
f 929 822 593
f 33 35 258
f 871 360 29
f 840 860 835
f 864 158 863
f 29 855 44
f 916 914 917
f 808 687 812
f 594 307 312
f 307 305 328
f 916 917 788
f 33 56 927
f 840 835 809
f 307 594 605
f 736 743 361
f 531 516 930
f 290 277 305
f 852 109 927
f 318 835 860
f 21 844 529
f 852 59 112
f 620 393 611
f 102 743 744
f 112 113 852
f 751 763 762
f 647 785 762
f 805 747 751
f 252 268 254
f 230 835 229
f 487 641 635
f 637 879 467
f 124 851 164
f 809 230 221
f 161 142 176
f 807 732 805
f 247 234 254
f 230 809 835
f 808 700 807
f 345 637 186
f 176 184 191
f 812 694 808
f 204 849 223
f 849 204 191
f 813 688 812
f 635 648 725
f 849 184 198
f 815 613 813
f 815 636 613
f 217 223 849
f 659 191 204
f 217 234 223
f 191 184 849
f 859 480 421
f 795 213 511
f 245 461 243
f 878 865 859
f 802 886 932
f 191 659 867
f 452 718 889
f 223 234 247
f 176 142 184
f 246 254 234
f 865 493 486
f 293 771 357
f 268 247 254
f 771 769 357
f 805 264 735
f 268 252 390
f 161 113 112
f 486 493 488
f 390 252 274
f 867 673 746
f 264 751 279
f 274 277 390
f 746 682 152
f 281 848 287
f 827 433 682
f 808 703 214
f 152 691 109
f 109 852 113
f 476 859 421
f 296 305 277
f 476 595 877
f 305 307 928
f 196 293 292
f 595 476 820
f 726 807 700
f 752 293 357
f 307 328 312
f 310 328 305
f 56 59 852
f 292 752 799
f 328 310 323
f 886 825 824
f 312 337 332
f 807 703 808
f 891 824 782
f 193 292 189
f 844 21 22
f 429 853 409
f 109 697 927
f 56 33 510
f 105 559 553
f 339 337 346
f 346 714 339
f 51 346 347
f 317 926 927
f 564 690 876
f 863 844 232
f 799 868 292
f 510 33 258
f 843 528 529
f 844 863 842
f 861 840 843
f 861 158 347
f 861 860 840
f 752 915 31
f 158 843 842
f 843 158 861
f 842 529 844
f 919 837 906
f 906 232 907
f 809 528 840
f 730 873 918
f 730 856 873
f 873 856 879
f 856 106 385
f 817 634 645
f 837 919 838
f 817 652 816
f 919 906 907
f 919 536 537
f 743 102 361
f 904 669 838
f 898 669 904
f 669 898 38
f 703 807 721
f 405 404 838
f 669 405 838
f 922 833 836
f 294 285 887
f 361 385 402
f 869 645 634
f 830 875 664
f 916 3 1
f 864 51 347
f 402 855 361
f 909 801 914
f 397 890 374
f 48 44 855
f 796 909 77
f 879 637 873
f 901 798 905
f 580 925 397
f 48 402 706
f 896 800 901
f 891 823 896
f 409 62 61
f 853 62 409
f 881 413 417
f 417 62 853
f 86 407 299
f 459 893 882
f 199 891 95
f 830 465 831
f 829 426 417
f 426 829 124
f 426 881 417
f 124 829 827
f 433 829 853
f 886 802 825
f 774 894 883
f 851 124 827
f 164 884 124
f 441 851 436
f 180 164 851
f 443 869 164
f 911 802 932
f 715 830 664
f 874 664 875
f 736 361 360
f 451 180 441
f 457 452 889
f 889 444 457
f 866 817 870
f 106 35 639
f 459 718 452
f 826 452 457
f 452 826 245
f 451 826 457
f 862 819 866
f 858 857 862
f 461 245 826
f 459 882 718
f 479 243 461
f 854 931 858
f 850 925 854
f 846 401 580
f 845 890 850
f 491 848 482
f 848 281 479
f 825 494 883
f 382 508 491
f 900 832 767
f 508 287 848
f 896 823 800
f 839 890 845
f 504 782 824
f 42 374 839
f 516 508 382
f 908 910 318
f 534 524 523
f 552 818 548
f 42 172 173
f 901 800 798
f 818 552 900
f 533 322 531
f 871 175 737
f 868 187 189
f 22 232 844
f 593 822 533
f 822 315 316
f 929 556 330
f 330 315 822
f 838 919 537
f 904 838 537
f 318 860 834
f 908 318 834
f 465 830 715
f 556 342 336
f 105 836 559
f 833 559 836
f 29 44 846
f 908 834 804
f 562 917 828
f 299 836 105
f 818 900 767
f 832 553 559
f 562 832 920
f 811 315 548
f 828 801 821
f 801 828 917
f 821 797 814
f 836 299 903
f 401 590 580
f 797 821 801
f 905 798 796
f 796 814 797
f 810 548 818
f 814 798 806
f 798 814 796
f 909 796 797
f 811 548 810
f 413 587 590
f 404 51 837
f 51 864 837
f 837 838 404
f 909 797 801
f 529 842 843
f 158 842 863
f 232 906 863
f 800 806 798
f 529 528 511
f 794 811 806
f 785 908 804
f 785 647 908
f 859 877 878
f 526 534 794
f 877 571 878
f 571 31 915
f 173 351 42
f 524 783 509
f 350 173 175
f 29 350 871
f 823 526 794
f 783 524 526
f 526 823 782
f 42 351 374
f 841 374 351
f 504 775 783
f 509 783 775
f 782 823 891
f 885 124 884
f 887 757 779
f 914 801 917
f 426 885 881
f 890 397 925
f 825 504 824
f 775 504 883
f 925 587 931
f 587 925 580
f 802 494 825
f 785 279 762
f 494 831 465
f 831 494 802
f 894 287 775
f 590 895 413
f 438 897 576
f 884 164 869
f 762 279 751
f 423 931 587
f 587 413 423
f 931 423 857
f 762 761 647
f 617 820 476
f 595 820 621
f 751 755 763
f 893 459 243
f 751 264 805
f 609 857 423
f 423 881 612
f 662 443 444
f 721 805 735
f 621 584 595
f 857 609 819
f 443 645 869
f 612 885 627
f 636 621 820
f 628 902 584
f 805 721 807
