# Gate 6d generalise variant rot+30 of the authored skirt (body space)
v 0.113336464 0.545012534 0.167966125
v -0.033524832 0.574712038 0.177728841
v 0.112815715 0.565383792 0.166991649
v 0.103393709 0.932061732 0.149375071
v -0.097377913 0.554107666 0.165100966
v 0.102870505 0.952752292 0.148394975
v 0.111772579 0.606126189 0.165040150
v 0.112294973 0.585755050 0.166017186
v -0.096981729 0.577004790 0.163816738
v 0.090899800 0.952752292 -0.200844923
v -0.118855585 0.571851671 0.146686709
v -0.141594400 0.575093746 0.128278082
v -0.160803407 0.577295601 0.112764463
v -0.213108601 0.576999307 -0.017260307
v -0.096738487 0.524922252 -0.231815181
v -0.217300827 0.572121143 -0.043033436
v -0.076807557 0.524922252 -0.233283230
v -0.218575687 0.573186278 -0.068772369
v -0.207134592 0.579089344 -0.091692460
v 0.202478667 0.524922252 -0.116144474
v 0.104444312 0.891320109 0.151338484
v 0.104968486 0.870949209 0.152318347
v -0.194653157 0.570562541 -0.111397076
v -0.182628514 0.577008843 -0.128481394
v 0.013843958 0.815400243 -0.225186684
v -0.170191105 0.586656570 -0.145874293
v -0.197144353 0.903569758 -0.072532174
v -0.067130157 0.792288661 0.168104489
v -0.056575401 0.652696848 -0.228274874
v -0.084568695 0.804790020 0.157499316
v -0.018831357 0.854064226 -0.220275749
v -0.122826194 0.774880111 0.129296673
v 0.004521687 0.766061544 -0.227009382
v -0.202334808 0.572860599 0.055443921
v -0.013764806 0.751033127 -0.226426792
v -0.194971485 0.907682657 -0.028648145
v -0.185693522 0.903769791 0.028179444
v 0.120078489 0.731301785 0.142959959
v -0.180693598 0.910057604 0.054157577
v -0.158626450 0.903027356 -0.132092868
v 0.067934382 0.875223815 0.155742817
v -0.092965616 0.599021018 -0.228222310
v 0.082625346 0.850504041 0.155549247
v -0.027615846 0.660583675 -0.230006825
v 0.054897010 0.851681948 0.158215574
v -0.170056712 0.918561816 0.077440353
v -0.156718475 0.898928583 0.091839746
v -0.015018908 0.687174618 -0.229582258
v -0.135031562 0.904512346 0.109298916
v 0.062212141 0.570212841 0.170761501
v 0.151156796 0.815397024 0.092556093
v 0.032497376 0.571850240 0.172913916
v 0.013076609 0.679118752 0.169869675
v 0.152120234 0.765929997 0.095259687
v 0.002810522 0.571653843 0.175141102
v 0.023329408 0.785485804 -0.227406786
v -0.018819803 0.675767839 0.172394229
v -0.103063836 0.686371446 0.151306326
v 0.043401924 0.804936528 -0.227661697
v -0.141668370 0.684288502 0.120559877
v -0.000403323 0.667113304 -0.231679126
v 0.026106479 0.665290415 -0.233724454
v -0.141464948 0.787932396 0.112959464
v -0.139455589 0.813300252 0.112665582
v -0.194567873 0.685215175 0.059146788
v -0.200164807 0.678736806 0.028039973
v -0.202831763 0.694035590 0.004717091
v 0.113857206 0.524641275 0.168940587
v 0.125105164 0.524922252 0.152427146
v -0.207781901 0.679491282 -0.022271088
v 0.136344009 0.524922252 0.135901829
v -0.196999905 0.691728771 -0.096553412
v 0.147582854 0.524922252 0.119376512
v -0.123323468 0.725150704 -0.200048404
v 0.158821692 0.524922252 0.102851181
v -0.172402055 0.905589104 -0.112589479
v 0.170060529 0.524922252 0.086325853
v -0.185335149 0.907216132 -0.093390162
v 0.181299373 0.524922252 0.069800536
v -0.191065879 0.887714207 -0.086435594
v 0.192538223 0.524922252 0.053275216
v -0.197742296 0.923009753 -0.056118344
v 0.203777060 0.524922252 0.036749904
v -0.193265887 0.864225149 -0.001797477
v 0.214215051 0.524922252 0.020042900
v 0.143297752 0.714238226 0.111848553
v -0.084483881 0.902656615 0.150980896
v -0.197052938 0.799889266 -0.085672261
v -0.094540011 0.615264475 0.163093932
v 0.220525008 0.524922252 0.002399418
v -0.204864700 0.810289621 -0.059725847
v 0.085165674 0.796572268 0.158028096
v 0.217517287 0.524922252 -0.017357904
v 0.058817562 0.800105691 0.160438829
v 0.214509556 0.524922252 -0.037115210
v 0.075324380 0.823971331 0.157609363
v 0.211501841 0.524922252 -0.056872523
v 0.080798123 0.897608042 0.153345082
v 0.208494112 0.524922252 -0.076629826
v -0.149053877 0.923439980 -0.143317179
v 0.205486393 0.524922252 -0.096387144
v -0.074863410 0.727168620 -0.222351445
v -0.167361347 0.881805897 -0.122123054
v -0.031110494 0.628136754 0.175309233
v 0.139323431 0.688355565 0.119648051
v -0.035664829 0.750019133 -0.224774123
v -0.189382871 0.866253436 -0.091248104
v -0.074025089 0.610680819 0.175534281
v 0.056239676 0.751830161 -0.230366222
v -0.199518071 0.851821780 -0.074333359
v 0.064298658 0.819196224 -0.225902587
v 0.074553351 0.794731736 -0.223910834
v 0.075849414 0.767587304 -0.224833021
v -0.099108696 0.638339341 0.157827364
v -0.202534558 0.837265432 -0.053308033
v 0.199470940 0.524922252 -0.135901774
v 0.190171771 0.524922252 -0.152023726
v -0.142162713 0.627039731 0.124191463
v 0.084943400 0.818229198 -0.215181268
v -0.198287351 0.850214839 -0.026597488
v -0.190276046 0.847199738 0.022566146
v -0.185901687 0.862374365 0.042826656
v -0.146369675 0.841617525 -0.155649814
v 0.094477426 0.659851670 -0.218986060
v -0.109056821 0.841691375 0.135525512
v -0.134602706 0.837713122 0.114790480
v -0.048566164 0.833685338 0.167562467
v -0.066226592 0.854048252 0.164798024
v 0.174571079 0.524922252 -0.164504483
v -0.120887993 0.828456104 -0.192610275
v 0.158955672 0.524922252 -0.176976753
v -0.135084657 0.822983801 -0.173361896
v 0.143340280 0.524922252 -0.189449027
v -0.128809202 0.662309229 -0.198982079
v 0.127724898 0.524922252 -0.201921281
v -0.038950387 0.909654975 0.163956046
v 0.112109510 0.524922252 -0.214393549
v -0.010874721 0.903721392 0.162047952
v 0.096494105 0.524922252 -0.226865816
v -0.122326529 0.804403782 -0.193125223
v 0.080878713 0.524922252 -0.239338089
v 0.099798003 0.803484857 -0.204633495
v -0.124129148 0.779756010 -0.193194275
v 0.062460644 0.524922252 -0.242756982
v -0.137678126 0.797761083 -0.172387044
v -0.197916002 0.807171285 -0.007851946
v 0.042778152 0.524922252 -0.242091546
v -0.089093478 0.927550316 0.145416223
v 0.022847229 0.524922252 -0.240623483
v -0.131269637 0.694815516 -0.192136083
v 0.002916271 0.524922252 -0.239155437
v 0.077599895 0.743586421 -0.225512026
v -0.017014699 0.524922252 -0.237687398
v -0.184932909 0.747496545 -0.109197437
v -0.036945637 0.524922252 -0.236219345
v -0.159279301 0.639851332 -0.156963484
v -0.056876583 0.524922252 -0.234751287
v 0.143487191 0.860084116 0.099506855
v -0.198937382 0.766502142 0.001530612
v -0.193836149 0.581507146 0.081798234
v 0.094786638 0.777695537 -0.210450326
v -0.187110326 0.786122561 0.063009246
v -0.186527354 0.741531134 0.073353071
v 0.117739174 0.650378048 -0.201072873
v -0.193397108 0.726630151 0.050232244
v -0.115256833 0.565667987 -0.228044497
v -0.090962943 0.548943520 -0.231018871
v -0.115963124 0.545295119 -0.229195824
v -0.114550540 0.586040854 -0.226893171
v 0.105023838 0.832932770 -0.198370122
v -0.196949263 0.733364582 0.026465396
v -0.113844248 0.606413722 -0.225741844
v -0.113137956 0.626786590 -0.224590518
v -0.173049924 0.721928060 0.091983577
v -0.112431677 0.647159457 -0.223439217
v 0.112409795 0.786026359 -0.195786500
v -0.204419166 0.730318666 -0.019993644
v -0.201198902 0.549857080 -0.103666340
v -0.146975424 0.732007086 0.112715957
v 0.133965890 0.671161771 -0.186649475
v -0.138300916 0.708352506 0.121562209
v -0.175545290 0.726334512 -0.124977290
v -0.166113145 0.707316518 -0.140622728
v 0.121991656 0.808548450 -0.186330122
v -0.139841368 0.772123635 -0.172056434
v -0.107487614 0.789769471 -0.215379908
v -0.106781329 0.810142338 -0.214228595
v -0.026113084 0.881601810 0.164312425
v -0.106075036 0.830515206 -0.213077269
v -0.052467324 0.872879207 0.165597554
v 0.130504453 0.778468132 -0.181639518
v -0.034511148 0.855122447 0.166016954
v -0.105368744 0.850888073 -0.211925943
v -0.059319655 0.895490468 0.163985292
v -0.084816416 0.719190836 0.163412660
v -0.104662451 0.871260941 -0.210774616
v -0.049639176 0.933206618 0.162842814
v 0.134398538 0.836055756 -0.173993094
v 0.211562479 0.548827529 -0.048396409
v -0.103956159 0.891633809 -0.209623290
v -0.068178305 0.919983387 0.159901572
v -0.103249873 0.912006676 -0.208471977
v -0.090196684 0.858403862 0.149562795
v 0.150006223 0.768621624 -0.166330467
v -0.098349529 0.884278893 0.141107763
v -0.161354620 0.777354717 0.097368243
v -0.102543581 0.932379544 -0.207320651
v -0.107889827 0.934007585 0.129416524
v -0.109501999 0.908832490 0.130023144
v -0.129576740 0.929505765 0.111875634
v -0.061683597 0.711112320 0.172609202
v 0.126333345 0.952752292 0.115666064
v 0.114601917 0.952752292 0.132030506
v 0.156541761 0.854663670 -0.154305728
v 0.103919018 0.911690950 0.150356790
v -0.151352546 0.924966991 0.094262762
v 0.159332566 0.821780920 -0.154542120
v -0.177875770 0.933366239 0.059337951
v -0.182651532 0.929132342 0.036584514
v -0.167229926 0.614058614 -0.147674764
v 0.138064761 0.952752292 0.099301592
v 0.175189531 0.838890195 -0.137964436
v 0.168297947 0.786945224 -0.149839708
v -0.186769531 0.926204443 0.013152147
v -0.194245983 0.932985902 -0.034033850
v -0.191107973 0.927708209 -0.081617526
v -0.200766100 0.864465117 -0.048923479
v -0.190489132 0.621403635 -0.112781373
v 0.161527602 0.952752233 0.066572680
v 0.149796182 0.952752292 0.082937137
v -0.175893675 0.861071348 -0.111903232
v 0.105492217 0.850578249 0.153297484
v -0.179978707 0.884604871 -0.103701107
v 0.179105083 0.810394585 -0.135174286
v -0.204267772 0.609996200 -0.093273839
v 0.173259029 0.952752233 0.050208221
v 0.080818086 0.672890484 0.164706009
v 0.083541282 0.548217595 0.170089106
v 0.184019324 0.850695610 -0.117604571
v -0.185503627 0.837886333 0.054451988
v 0.066109916 0.610092819 0.168798707
v 0.184990446 0.952752233 0.033843758
v 0.192973313 0.674159348 -0.121312167
v 0.050309890 0.547072113 0.172621016
v 0.183865585 0.674697459 -0.142458128
v 0.186136870 0.826921761 -0.114191445
v 0.186158757 0.783230424 -0.124700101
v 0.043661364 0.625686288 0.169823078
v 0.016407631 0.547682583 0.175129466
v -0.015814837 0.549987614 0.177441343
v -0.007313743 0.615120053 0.174076078
v 0.191601199 0.812447071 -0.086389849
v -0.010286834 0.592551589 0.175244192
v 0.187863829 0.803602874 -0.111682169
v 0.043299203 0.827305019 0.160588469
v 0.176947003 0.853271186 0.052769495
v -0.032498385 0.603281796 0.176453421
v -0.020201139 0.770626545 -0.224952834
v -0.047156779 0.548584223 0.179764154
v -0.202105011 0.634691119 0.032588651
v -0.053274843 0.618654847 0.176822648
v -0.070258873 0.569802642 0.178291470
v -0.029384809 0.789688170 -0.223087012
v 0.193159966 0.880036414 -0.054375705
v -0.057144381 0.593698144 0.177689964
v -0.201106625 0.614899397 0.046756920
v -0.077472568 0.545159698 0.178213972
v 0.191335079 0.784803689 -0.097263297
v 0.194673207 0.764824867 -0.084019166
v -0.076729294 0.878166854 0.157947307
v -0.084081822 0.593333960 0.171369735
v -0.116219409 0.545498908 0.150637253
v 0.193459735 0.834047198 -0.068027257
v 0.196838056 0.807481408 -0.056717209
v -0.116538402 0.620510221 0.145137226
v -0.108058970 0.596425295 0.153601457
v 0.200323112 0.781867743 -0.043480197
v -0.135699789 0.550225854 0.134730223
v 0.197660296 0.887628257 -0.024718696
v -0.129995970 0.598694623 0.135901945
v 0.198030049 0.667025506 -0.096795544
v 0.042761066 0.952175260 0.154264605
v -0.151950425 0.599697590 0.118277040
v 0.075557781 0.924926400 0.152460222
v 0.198224935 0.827926397 -0.041454290
v -0.109281232 0.865890086 0.133508154
v 0.202497057 0.659135580 -0.070672036
v -0.120717960 0.885111868 0.122596823
v -0.174024175 0.592687964 0.101084386
v 0.203147011 0.758943498 -0.032676726
v -0.128206112 0.861078024 0.118269219
v -0.077024809 0.848374665 -0.214873785
v -0.074951690 0.875728786 -0.213438934
v 0.202126514 0.824531317 -0.017217583
v -0.120698005 0.929791033 -0.182243586
v 0.201571450 0.803339899 -0.028024507
v -0.167348393 0.618407190 0.104569975
v -0.117463867 0.903883576 -0.189477521
v 0.128389282 0.710414529 0.133117413
v -0.126550696 0.582254589 -0.210361756
v -0.132315208 0.909972131 -0.168102083
v 0.202841195 0.837750256 0.004138963
v -0.135402349 0.933613420 -0.161311151
v -0.142411176 0.879754484 0.105116540
v 0.205268523 0.778684616 -0.011114270
v -0.149597616 0.854902565 0.101100635
v 0.206084422 0.758550882 0.011526028
v -0.180267752 0.866420567 0.067001045
v -0.171325347 0.847172439 0.083079771
v 0.204508733 0.809272468 0.001515105
v -0.163781724 0.873250008 0.087985298
v 0.194061953 0.768904328 0.033341043
v -0.198971927 0.553772509 0.074345682
v -0.187809841 0.606966138 0.087334933
v 0.188498941 0.655684829 0.049883388
v 0.202850001 0.654960036 0.028053265
v 0.021139323 0.721915603 -0.230478640
v 0.172458589 0.922328711 0.053854774
v 0.090216539 0.608919501 0.166917807
v 0.195104052 0.952752233 0.017103744
v -0.183515625 0.885775089 0.048073298
v 0.206467254 0.677923977 0.019015007
v 0.192298662 0.824357986 0.031939235
v -0.196616128 0.618652523 0.070402368
v -0.188435715 0.877166927 0.022038147
v 0.197950372 0.952752233 -0.001323318
v -0.196227976 0.879433692 -0.025298178
v 0.201461446 0.789243639 0.018920879
v -0.154054559 0.766781390 -0.152655871
v 0.179029407 0.679983139 0.062073262
v -0.205321821 0.548996866 0.045145009
v 0.180076632 0.771043241 0.054035490
v -0.199541422 0.596914291 0.063380695
v -0.205522065 0.609856963 0.019958149
v -0.209480187 0.544421017 0.019476810
v 0.164457170 0.674140990 0.083916813
v 0.186226455 0.795861840 0.043221904
v -0.156951064 0.726331234 -0.152325172
v 0.172597119 0.790082574 0.063674552
v -0.206916607 0.566963136 0.027567845
v -0.206953699 0.629800975 0.002682974
v 0.153667391 0.692910135 0.098442489
v -0.166419973 0.749529123 -0.136235937
v -0.212279574 0.555054843 -0.003180397
v -0.082703430 0.795478940 -0.217483615
v 0.171521915 0.819238305 0.063173793
v 0.158088467 0.843043745 0.080568817
v -0.209908658 0.603938758 -0.006690847
v 0.194627990 0.952752233 -0.021182428
v -0.084250042 0.639131188 -0.226701542
v -0.082831529 0.617630363 -0.228051924
v -0.216797999 0.550900877 -0.031391895
v 0.191305617 0.952752233 -0.041041521
v -0.200219096 0.750548542 -0.085557484
v 0.187983235 0.952752233 -0.060900601
v -0.215845377 0.614187777 -0.050274721
v -0.047850553 0.887057602 -0.215434482
v -0.214040960 0.597532868 -0.031469304
v 0.184660845 0.952752233 -0.080759695
v -0.066317129 0.676327050 -0.226237447
v -0.062202145 0.702244520 -0.225094772
v -0.208311898 0.731666207 -0.069363746
v 0.181338464 0.952752233 -0.100618801
v -0.208625605 0.755520642 -0.061700794
v -0.178488976 0.928912938 -0.101552548
v 0.050744060 0.903983951 0.155977521
v 0.178016083 0.952752233 -0.120477881
v -0.220868708 0.548704922 -0.058750824
v -0.207058734 0.742863774 -0.042344830
v -0.217721598 0.591464877 -0.053397325
v -0.199239815 0.892588019 -0.049421098
v 0.168586265 0.952752233 -0.136810832
v -0.202874042 0.755455554 -0.019646106
v -0.066869224 0.598323286 -0.230282096
v -0.213959699 0.551503599 -0.083590414
v -0.200067159 0.743615329 0.003410831
v 0.153048978 0.952752233 -0.149617659
v -0.199186537 0.877097249 -0.069885241
v 0.137511686 0.952752233 -0.162424462
v -0.195091182 0.762689531 0.026289798
v -0.215221441 0.599505067 -0.073718184
v 0.204415348 0.705448985 -0.042421366
v 0.121974380 0.952752292 -0.175231291
v -0.192846397 0.746641397 0.045835364
v -0.048233050 0.727045417 -0.224986922
v -0.187784778 0.550743759 -0.123346503
v -0.128488416 0.556305945 -0.210038360
v 0.106437122 0.952752292 -0.188038095
v -0.190056402 0.766113818 0.054998531
v 0.195779725 0.785276353 -0.070537353
v 0.088683010 0.650133908 0.165082123
v 0.075362525 0.952752292 -0.213651726
v 0.199227619 0.755669415 -0.059419607
v 0.024968325 0.757036209 0.165703326
v -0.193492783 0.594511509 -0.110870899
v -0.172346643 0.556331456 -0.145531269
v -0.039703193 0.603755355 -0.232006790
v -0.180174762 0.604330182 -0.129543083
v -0.157547012 0.575790286 -0.165483755
v -0.156666139 0.549534261 -0.169227162
v -0.011825694 0.641640723 -0.232133318
v -0.032692955 0.706336260 -0.227305879
v -0.121479741 0.723514080 0.133983868
v 0.142731648 0.787925541 0.106612088
v 0.137023584 0.762029767 0.116745662
v -0.123051441 0.749168396 0.130933212
v 0.133413343 0.735835373 0.123977840
v -0.127807743 0.751641870 -0.191007651
v 0.016857865 0.692422092 -0.231663319
v -0.102347534 0.764220715 0.146435672
v -0.154546592 0.618588626 -0.165906506
v -0.159253740 0.598614216 -0.160845651
v 0.030357799 0.632975519 -0.235681122
v -0.099046368 0.738107264 0.150901196
v -0.141684940 0.573624313 -0.189014921
v 0.057981047 0.952752292 -0.220400298
v 0.049694735 0.657875955 -0.235477551
v -0.146672465 0.599971592 -0.179223088
v -0.079277726 0.756457567 0.164677336
v -0.141885053 0.635066092 -0.182992315
v 0.038426975 0.952752292 -0.220011679
v -0.132293435 0.605770230 -0.199784938
v 0.041764169 0.604003906 -0.237849682
v -0.179466033 0.568178356 0.098298112
v -0.158125728 0.552233815 0.116658026
v 0.072117187 0.652762949 -0.233576620
v -0.068402513 0.734446704 0.170490441
v -0.048001660 0.749564767 0.171114602
v 0.043384077 0.708781183 -0.232617979
v 0.012988906 0.830678999 0.163394550
v 0.022737649 0.952320576 0.156240645
v -0.034776582 0.722545564 0.171612296
v 0.069791659 0.701033235 -0.230957383
v -0.020153017 0.745292187 0.169579958
v -0.000536118 0.808681846 0.165456898
v 0.109297272 0.706853151 -0.203843277
v -0.002356916 0.723387063 0.169167881
v 0.033587785 0.865673423 -0.224057583
v 0.014219742 0.783138335 0.165416540
v -0.015676684 0.788500488 0.167434429
v 0.129183096 0.696904123 -0.188658905
v -0.004178945 0.765562892 0.167536392
v 0.130675046 0.629008293 -0.192243854
v 0.141672726 0.646259010 -0.182246069
v 0.005098040 0.744344234 0.167732288
v 0.026075379 0.729859471 0.166771419
v -0.031415681 0.768654704 0.169442621
v 0.077349713 0.747940898 0.161254742
v -0.043027437 0.791025460 0.169201584
v -0.030505363 0.811659515 0.167572163
v 0.149431613 0.691171050 -0.172770156
v 0.173847309 0.656776071 -0.155209706
v 0.029847880 0.804075420 0.163078618
v -0.059068067 0.772118211 0.170007766
v 0.059851739 0.653088391 0.167464431
v -0.059996585 0.812425256 0.168135805
v 0.154924230 0.664735794 -0.170252135
v -0.081933890 0.831852496 0.157887864
v 0.189673212 0.652855277 -0.136676341
v -0.103259261 0.789783061 0.143919291
v 0.186196999 0.702353358 -0.136955514
v -0.084323903 0.779688716 0.159382995
v 0.025228711 0.854101360 0.161009270
v -0.102930740 0.815526247 0.142379881
v 0.192717531 0.606149733 -0.135409335
v 0.018580513 0.902013361 0.159239343
v -0.108900199 0.749023736 -0.217682561
v 0.024137966 0.926525652 0.157452097
v -0.121384605 0.821815729 0.126915385
v -0.143741464 0.761076570 0.113147412
v 0.048366352 0.931421340 0.154812093
v -0.108193907 0.769396603 -0.216531234
v -0.017309226 0.952611029 0.160192745
v -0.165865955 0.749754548 0.095770044
v -0.010983355 0.831885755 -0.222379508
v 0.043118593 0.915008962 -0.221989648
v -0.155459378 0.829850495 0.098192652
v 0.002714191 0.952465832 0.158216690
v 0.194553215 0.696590781 -0.107649716
v 0.018389224 0.952752292 -0.218034195
v -0.175203641 0.892304182 0.072923778
v 0.196892385 0.713957787 -0.087835677
v -0.180419070 0.768414140 0.080246887
v -0.176880307 0.795143723 0.081756934
v -0.176301346 0.821288943 0.080683725
v -0.001648501 0.952752292 -0.216056727
v 0.191033833 0.759034753 -0.107717290
v -0.021686312 0.952752292 -0.214079226
v -0.005304219 0.855830312 0.163834284
v -0.115657192 0.876993716 -0.194821409
v 0.201046583 0.702470124 -0.065556844
v -0.041724045 0.952752292 -0.212101771
v -0.029908466 0.933298230 -0.214433769
v 0.200542531 0.595372140 -0.105043477
v -0.001052885 0.926788509 0.159915993
v -0.119370496 0.853039324 -0.192149863
v -0.191376490 0.788808227 0.038416047
v -0.190931346 0.897386014 -0.000604166
v -0.017201824 0.832882047 0.165688294
v -0.061761802 0.952752292 -0.210124283
v -0.195827165 0.788596153 0.011957418
v -0.081799535 0.952752292 -0.208146810
v -0.203188556 0.795655072 -0.037486190
v 0.207562560 0.602958262 -0.056380160
v -0.200784809 0.781365395 -0.016040321
v -0.082385556 0.936638951 -0.209054711
v -0.101837288 0.952752411 -0.206169325
v 0.204031599 0.679649949 -0.053659872
v 0.206963516 0.652451456 -0.043591096
v -0.003623655 0.790761888 -0.225153168
v 0.117336094 0.918333054 0.131096170
v -0.200595395 0.822529137 -0.030898436
v -0.205251791 0.769345939 -0.040795739
v -0.190717720 0.927123845 -0.010744334
v -0.022767748 0.810954273 -0.222471035
v 0.208463752 0.678003907 -0.025101863
v -0.205666279 0.780892551 -0.067393275
v -0.150373093 0.525030434 -0.180767215
v -0.184591588 0.790940642 -0.105649100
v -0.161607658 0.525066316 -0.164240584
v -0.172842236 0.525102198 -0.147713928
v -0.193062510 0.772990823 -0.094704433
v 0.212040934 0.662765265 0.001852596
v 0.211511649 0.643335402 -0.016795430
v -0.184076795 0.525138080 -0.131187300
v 0.214260526 0.613235354 -0.008690177
v -0.186732984 0.842261136 -0.097705459
v 0.133531349 0.910350978 0.109176403
v 0.123214388 0.893371761 0.124990163
v -0.195311347 0.525174022 -0.114660659
v 0.210797135 0.692656159 -0.000568041
v -0.182523532 0.815896332 -0.106364067
v 0.204320491 0.699171007 0.021236279
v 0.211589969 0.633889556 0.012045076
v -0.206545917 0.525209904 -0.098134007
v 0.106539693 0.809836328 0.155255786
v 0.107063432 0.789465368 0.156234937
v -0.171502827 0.793455839 -0.124664969
v -0.216964257 0.525246620 -0.081421993
v -0.160254768 0.857561707 -0.134585776
v -0.177977751 0.770450532 -0.117286747
v -0.223220700 0.525287986 -0.063764887
v -0.220225901 0.525339305 -0.044006971
v -0.217231116 0.525390565 -0.024249079
v 0.047369655 0.773074687 0.162929299
v 0.077872924 0.773877919 0.159892633
v 0.175172939 0.658419669 0.069282470
v 0.178730300 0.634638131 0.065748825
v -0.214236311 0.525441885 -0.004491150
v -0.211241517 0.525493205 0.015266787
v 0.077841622 0.697713554 0.163744423
v 0.164493373 0.647911370 0.085735308
v 0.149915730 0.664435089 0.105990787
v -0.208246718 0.525544524 0.035024703
v -0.158802414 0.833743155 -0.139116403
v 0.167950706 0.698899090 0.077013277
v -0.205251929 0.525595784 0.054782605
v 0.047524227 0.682004392 0.167173929
v 0.134393577 0.663131714 0.128677553
v 0.075725607 0.630357385 0.167192078
v -0.172189752 0.837311268 -0.119565990
v 0.133875075 0.607371569 0.133637344
v 0.030858237 0.654916942 0.169554928
v 0.161307159 0.744050443 0.083559848
v 0.076731074 0.590242624 0.168836785
v 0.047916543 0.594436884 0.170814748
v -0.144273682 0.866971493 -0.155916305
v -0.154850941 0.880514264 -0.139726600
v 0.021507238 0.704196632 0.168188457
v -0.144239426 0.894556940 -0.153069895
v 0.005699968 0.872029543 -0.221587316
v -0.202257141 0.525647104 0.074540531
v 0.171219329 0.723601520 0.070444453
v 0.018779043 0.600453734 0.172740456
v -0.009919644 0.699697971 0.170726022
v 0.012433494 0.845646620 -0.223544451
v 0.014924314 0.631069899 0.171745399
v 0.001605206 0.656320691 0.171682615
v 0.006596239 0.879155993 0.161573364
v -0.014709942 0.613492131 -0.233352506
v 0.037722739 0.878181577 0.158563227
v 0.184511058 0.729459524 0.050482586
v -0.009772462 0.636864960 0.173348488
v 0.062380872 0.862272978 -0.223565990
v -0.192958673 0.525646687 0.090661625
v 0.077987758 0.722607613 0.162472262
v 0.012237675 0.603910983 -0.235824667
v -0.161749229 0.525542200 0.115627027
v -0.051426910 0.668964863 0.174770464
v 0.005239124 0.627042949 -0.234132688
v -0.146143414 0.525489986 0.128109086
v -0.028086155 0.652467430 0.174063422
v 0.195417632 0.714303792 0.035397532
v 0.197532991 0.740494072 0.030045287
v 0.051706186 0.887685359 -0.223661572
v -0.130537572 0.525437713 0.140591167
v -0.038765269 0.695007741 0.172995588
v -0.114931752 0.525385499 0.153073235
v -0.053315978 0.643081129 0.175945574
v -0.099325933 0.525333285 0.165555303
v -0.083720110 0.525281012 0.178037378
v -0.063777008 0.689922035 0.173636701
v -0.078982796 0.653774858 0.171484150
v -0.065294281 0.525119245 0.181408766
v 0.207807804 0.724176407 0.009739574
v -0.082487665 0.676287174 0.167616705
v -0.045611603 0.524908781 0.180719632
v -0.025684049 0.524688721 0.179239355
v 0.067878232 0.594970882 -0.237735044
v -0.084647985 0.698487222 0.164500411
v 0.203668858 0.733552814 -0.037828484
v 0.067240566 0.615300655 -0.236833490
v 0.097542175 0.927037179 -0.197353657
v -0.005756510 0.524468660 0.177759069
v -0.077088651 0.631234169 0.173843119
v 0.014171043 0.524248660 0.176278808
v 0.060461379 0.932480156 -0.219571556
v 0.034098589 0.524028659 0.174798534
v 0.054026137 0.523808599 0.173318278
v 0.200144910 0.726738811 -0.063257635
v 0.077169032 0.883615017 -0.215857590
v 0.073953676 0.523588538 0.171837992
v 0.093881220 0.523368537 0.170357720
v -0.103170293 0.711120784 0.149490676
v 0.113808769 0.523148477 0.168877461
v -0.101794272 0.662232459 0.154009320
v 0.087009966 0.608525991 -0.228560525
v 0.090405157 0.859504580 -0.208187995
v 0.195570822 0.740405798 -0.086853766
v -0.121412381 0.697497606 0.135856848
v -0.121536671 0.646025240 0.139356551
v -0.122361660 0.672032177 0.136878407
v -0.139568661 0.723215342 -0.177568628
v 0.105896433 0.601608753 -0.213962146
v 0.184361780 0.757103741 -0.132989936
v 0.087089636 0.905372381 -0.207574735
v -0.090183255 0.772020340 -0.218151408
v -0.146600412 0.747068942 -0.165247631
v -0.022046875 0.729804933 -0.226896421
v 0.050337163 0.712205529 0.165654409
v 0.191388927 0.728300691 -0.115915421
v -0.142949603 0.657348871 0.121442662
v -0.158353326 0.702230930 0.105621822
v -0.121961366 0.799548984 0.128130897
v 0.127033133 0.605044127 -0.196838289
v -0.164855216 0.645957947 0.104585216
v 0.197565296 0.922800601 0.010917394
v 0.178658542 0.731593072 -0.144429724
v -0.163493193 0.674126625 0.103544133
v -0.180244211 0.692314506 0.086901074
v -0.190598841 0.711356699 0.069199502
v 0.145050221 0.591929436 -0.183370178
v 0.165054675 0.711304903 -0.158348312
v -0.185109961 0.633617938 0.087646297
v -0.158686508 0.804103673 0.097511481
v 0.098770982 0.881875038 -0.199818167
v 0.062784531 0.952030003 0.152288557
v 0.156145540 0.738472641 -0.163595904
v 0.133577149 0.746888816 -0.181528298
v -0.165139111 0.814400494 -0.132071729
v -0.149373832 0.816341341 -0.154107145
v 0.147370974 0.618377030 -0.179655125
v -0.187423633 0.662596285 0.081751784
v 0.163179517 0.578001082 -0.169866384
v 0.144183970 0.717693806 -0.175036785
v -0.113551927 0.952776313 -0.189809912
v -0.125266584 0.952800035 -0.173450488
v 0.114775115 0.860036552 -0.188317959
v 0.122234192 0.755800426 0.137899007
v -0.136981233 0.952823699 -0.157091070
v 0.050532735 0.740831673 0.164246250
v 0.125563784 0.720913827 -0.189861494
v 0.110450786 0.735150218 -0.200931622
v -0.148695876 0.952847421 -0.140731655
v 0.118390418 0.887742043 -0.183200660
v -0.197072298 0.639161766 0.061888837
v -0.160410521 0.952871084 -0.124372238
v -0.164786505 0.927215338 -0.120953921
v -0.186804514 0.809591830 0.056738784
v -0.172125167 0.952894866 -0.108012821
v -0.183839794 0.952918530 -0.091653431
v 0.089862928 0.721020997 -0.218369282
v -0.197423256 0.705509126 0.034330451
v -0.191825679 0.816747010 0.025013943
v -0.195340030 0.834568977 -0.002783099
v -0.198228211 0.659843445 0.047057910
v 0.136762386 0.871049762 -0.169345033
v 0.128307316 0.930904090 -0.171696783
v -0.204076748 0.590896189 0.036938079
v 0.147505195 0.740267932 0.103891886
v 0.064885471 0.725461185 -0.231396603
v -0.154324078 0.791994393 -0.149717271
v -0.201358719 0.718647003 0.004794706
v 0.145987428 0.924182296 -0.157642262
v -0.165009416 0.774479628 -0.135984370
v -0.208685556 0.583960176 0.009220649
v 0.042760861 0.732839882 -0.231278159
v -0.203473590 0.653417110 0.016405749
v -0.208832116 0.651162684 -0.018098775
v 0.164521071 0.921573043 -0.142384190
v -0.204695723 0.671252906 0.001340857
v -0.206074188 0.705174625 -0.021064100
v 0.175642503 0.869639516 -0.134361937
v -0.211489804 0.623463273 -0.024788903
v -0.126050693 0.631612718 -0.206054368
v -0.004120314 0.712140381 -0.229115263
v -0.193925550 0.952943146 -0.074916739
v -0.196725869 0.952971816 -0.056492731
v -0.209063536 0.717767715 -0.045744174
v -0.210815307 0.692089200 -0.047244078
v -0.212262044 0.665673375 -0.046440291
v -0.213913346 0.639457822 -0.047066061
v -0.198174717 0.826046526 -0.080611098
v 0.158661649 0.791599989 0.083881857
v 0.169444135 0.606534839 -0.162747834
v -0.190066250 0.953036010 -0.016805199
v -0.186736438 0.953068137 0.003038557
v 0.181855392 0.630633116 -0.150723515
v -0.116669425 0.524922252 -0.230347145
v -0.183406631 0.953100264 0.022882334
v 0.185186136 0.872395039 -0.104604208
v -0.180076808 0.953132391 0.042726109
v -0.176747003 0.953164518 0.062569882
v -0.167332691 0.953164220 0.078900446
v 0.168203152 0.756840646 -0.152240264
v 0.176677070 0.928639412 -0.125730353
v -0.151821891 0.953131557 0.091710897
v -0.136300581 0.953098774 0.104515232
v -0.120779244 0.953065991 0.117319585
v -0.044867526 0.772579491 -0.222590027
v -0.105257933 0.953033268 0.130123921
v 0.182489937 0.922628105 -0.103851868
v -0.089736592 0.953000486 0.142928281
v -0.213938132 0.626127422 -0.072913661
v 0.190385078 0.863852203 -0.076396937
v -0.087548332 0.684118330 -0.223679790
v -0.111725370 0.667532325 -0.222287866
v -0.111019077 0.687905192 -0.221136539
v 0.080391789 0.929376364 -0.210878662
v -0.212141967 0.652439594 -0.072430460
v -0.110312785 0.708278000 -0.219985213
v -0.209042666 0.705826759 -0.073440101
v -0.089398082 0.707110882 -0.222119199
v -0.109606492 0.728650928 -0.218833886
v -0.074215285 0.952967703 0.155732611
v 0.094804673 0.751510859 -0.212277681
v 0.186519618 0.924530327 -0.079126136
v -0.201952913 0.637372911 -0.094222956
v -0.056866273 0.952889323 0.162536766
v -0.037332676 0.952756286 0.162168804
v 0.192226038 0.907511353 -0.050731955
v -0.048174693 0.861246586 -0.216949464
v -0.210395255 0.678995788 -0.073078949
v -0.194474731 0.721846521 -0.097426201
v 0.189677919 0.933395207 -0.057271047
v -0.199384315 0.664236188 -0.095519007
v 0.195344114 0.852725089 -0.050491500
v -0.186947354 0.648119926 -0.115499659
v 0.108634289 0.728352427 0.159171821
v -0.025511162 0.929236174 0.162161057
v 0.197214615 0.933156490 -0.012179848
v 0.197790699 0.910837531 -0.016116232
v 0.193747605 0.930352807 -0.033966676
v -0.175852964 0.631696701 -0.133347955
v -0.183444649 0.674418688 -0.118199431
v -0.170240301 0.657589972 -0.139188759
v 0.148374344 0.619168162 0.111487423
v -0.181212934 0.700995326 -0.119003982
v -0.042286562 0.911317050 -0.214529626
v -0.166225491 0.683407903 -0.142686518
v -0.071927047 0.900679588 -0.212242026
v -0.133073422 0.849378288 -0.173400865
v -0.130118341 0.880001843 -0.174313991
v 0.198670108 0.621404648 -0.108281005
v 0.205150085 0.631413043 -0.062612277
v -0.148792071 0.667711973 -0.169790170
v -0.150657819 0.699320018 -0.164099260
v -0.193396049 0.953003883 -0.036648962
v 0.197647226 0.866362631 -0.031855893
v 0.201832408 0.864781678 -0.005548689
v -0.182331477 0.545475602 0.097760872
v 0.212214964 0.592304349 -0.029419181
v 0.209663286 0.622466087 -0.035988935
v -0.177355043 0.525594473 0.103144967
v 0.199706994 0.890558541 0.008380478
v -0.141282845 0.546053529 -0.192176749
v -0.139138553 0.524994493 -0.197293832
v 0.125455110 0.582452595 0.147695457
v -0.127903987 0.524958670 -0.213820498
v 0.102868408 0.952432513 0.148393364
v -0.023116959 0.899444401 -0.217133005
v 0.082807945 0.951884806 0.150312503
v 0.088884857 0.571335614 0.168716938
v 0.210182901 0.605080068 0.019443920
v 0.128688083 0.933034420 0.114031975
v 0.179142397 0.551882744 0.071048223
v 0.169447890 0.569243193 0.084063967
v 0.194601036 0.567537189 0.047201131
v -0.045201366 0.832157373 -0.218986325
v 0.208928482 0.575901568 0.024238629
v 0.155696186 0.571828544 0.104099686
v 0.202759919 0.569054186 -0.099384457
v 0.195998684 0.856429040 0.023036738
v 0.187986394 0.878669143 0.034484819
v 0.187260289 0.895374954 -0.084489472
v 0.195963673 0.595022082 0.043234553
v 0.179174602 0.898625493 -0.122749449
v 0.157810072 0.890749991 -0.150476439
v 0.142669655 0.929558218 0.094820817
v 0.180982402 0.608232975 0.064321626
v 0.196302099 0.626368940 0.040395782
v 0.134770694 0.902057171 -0.168594644
v 0.115604463 0.916513503 -0.183277433
v 0.181667995 0.581266046 0.065237906
v 0.103532073 0.903415024 -0.194238753
v 0.141857074 0.566025913 -0.187742573
v 0.117141768 0.576684475 -0.206733408
v 0.164423845 0.619332790 0.087876865
v 0.087718919 0.578013659 -0.229731789
v 0.067162076 0.908508897 -0.219607140
v 0.167280112 0.592592359 0.085585243
v 0.193762612 0.683298349 0.040131768
v 0.216823603 0.582844257 -0.002342315
v 0.209783203 0.574618876 -0.051369128
v 0.205261343 0.584718108 -0.077659973
v 0.168938796 0.684567988 -0.157209378
v 0.092247519 0.690497935 -0.218611557
v 0.151517385 0.596269727 0.108500000
v 0.072751542 0.675760686 -0.232355042
v 0.185588582 0.584046066 -0.150906635
v 0.197841153 0.578281045 -0.125743113
v 0.139989422 0.638359964 0.122436447
v 0.120971961 0.663559675 0.147392221
v 0.174463657 0.888348997 0.053774026
v 0.156625462 0.927486360 0.075527905
v 0.124378003 0.686966598 0.140678760
v 0.133602499 0.809875131 0.117506589
v 0.124778527 0.782957613 0.132072707
v -0.083483471 0.574575901 -0.230266135
v 0.148684512 0.905268669 0.088466913
v -0.059834228 0.624517977 -0.229468015
v 0.130309815 0.872806072 0.116818784
v 0.140454500 0.886233568 0.101542460
v 0.117059951 0.872012615 0.135365414
v -0.064026072 0.551669776 -0.232864297
v -0.035398073 0.632798195 -0.230846767
v 0.166268944 0.768411636 0.074525778
v 0.199518158 0.685877681 -0.081014234
v 0.144539730 0.800420225 -0.168383177
v -0.032111523 0.551917136 -0.235202448
v 0.112576348 0.678730607 -0.203202279
v 0.050191837 0.777433574 -0.229028102
v 0.046287426 0.683683097 -0.234060480
v 0.001847509 0.552039146 -0.237697562
v -0.042521060 0.681423783 -0.227849024
v -0.059503755 0.749989808 -0.222499498
v 0.052578167 0.574996591 -0.239850052
v 0.034527378 0.551904082 -0.240079930
v 0.019174369 0.921740294 -0.219970362
v 0.162375377 0.903412998 0.069526506
v 0.158507971 0.875086248 0.077297228
v 0.067621528 0.550907195 -0.240126773
v 0.126571530 0.852214098 0.123760337
v 0.139469143 0.834853172 0.107228206
v -0.007194935 0.923047423 -0.217289694
v 0.097862493 0.550624371 -0.223965069
v 0.113503296 0.761675239 -0.196627846
v -0.076837949 0.820547938 -0.216559976
v 0.115850499 0.623026013 -0.204505237
v 0.122299785 0.549230337 -0.204544651
v -0.086225351 0.661439955 -0.225169550
v 0.142745098 0.543056667 -0.188648887
v -0.068208165 0.774276376 -0.220184870
v 0.162578066 0.549933791 -0.172324275
v 0.178209390 0.563384056 -0.158876693
v 0.157436792 0.718823552 0.091050024
v 0.025899417 0.893091917 -0.222116585
v 0.000911717 0.897999167 -0.219590963
v -0.084039201 0.749679983 -0.220096714
v 0.193913956 0.558403432 -0.141360626
v 0.055850186 0.633584082 -0.236944321
v 0.193842598 0.631396532 -0.129631661
v 0.203060037 0.612350285 -0.082782947
v 0.099825584 0.630913198 -0.216749839
v 0.081033312 0.633215785 -0.230559816
v 0.207508123 0.554842234 -0.072996497
v 0.200104452 0.845797241 -0.023314308
v 0.188686162 0.843066156 -0.093532037
v 0.161656030 0.636662126 -0.166839511
v -0.049076482 0.576490283 -0.232703073
v 0.214747250 0.558987737 -0.024042891
v 0.174447047 0.747797012 0.063971908
v 0.196379840 0.648089588 -0.113018255
v 0.200766961 0.639654160 -0.088619671
v 0.010326775 0.647362292 -0.233473997
v 0.216723735 0.551915288 0.004410380
v 0.042483531 0.836730123 -0.225990061
v 0.108110900 0.748723388 0.158193225
v 0.110726492 0.646868229 0.163084058
v 0.153474234 0.638309956 0.102622732
v 0.206536944 0.549338162 0.030379804
v 0.075919414 0.840198159 -0.219609024
v 0.109157344 0.707981348 0.160149887
v 0.107587170 0.769094408 0.157214087
v 0.192991692 0.543762922 0.051263999
v 0.122211585 0.830166519 0.131691488
v 0.106015955 0.830207288 0.154276636
v 0.187764105 0.905458272 0.033023701
v 0.163026507 0.548666358 0.094974168
v 0.186034887 0.931595623 0.033490208
v 0.200687206 0.550998926 -0.119100748
v 0.186316164 0.751492679 0.046256143
v -0.059327765 0.927046716 -0.211905139
v 0.146666475 0.549349546 0.118980827
v -0.021843995 0.877580047 -0.218569042
v 0.129275975 0.553337991 0.144255215
v 0.140347960 0.576723397 0.126317028
v -0.053614267 0.801257789 -0.220008004
v 0.118570036 0.807723224 0.138654017
v 0.125123092 0.634883583 0.143998403
v 0.111249532 0.626497209 0.164062097
v 0.109680391 0.687610328 0.161127939
v 0.183799140 0.543502927 -0.155482328
v 0.110203438 0.667239308 0.162105992
v -0.014208059 0.581617773 -0.235010605
v 0.003746129 0.738905907 -0.228333388
v 0.028667202 0.755012274 -0.229349829
v 0.207053873 0.743858516 -0.012110415
v 0.182160059 0.704511762 0.055719664
v 0.207765615 0.713846862 -0.017576220
v 0.021073573 0.577509284 -0.237818276
v 0.204492511 0.544668257 -0.096243510
f 555 540 123
f 389 162 497
f 567 540 568
f 583 104 251
f 463 489 430
f 453 94 255
f 483 484 162
f 446 640 671
f 574 577 251
f 50 244 238
f 52 244 50
f 575 57 53
f 55 249 52
f 55 2 250
f 577 248 563
f 575 437 432
f 57 597 589
f 2 265 262
f 589 592 57
f 262 259 2
f 5 267 262
f 602 606 589
f 5 9 11
f 58 606 610
f 11 272 5
f 12 278 11
f 565 793 8
f 630 60 632
f 13 425 12
f 424 289 160
f 289 424 13
f 643 649 60
f 181 403 179
f 483 206 484
f 163 651 174
f 53 563 558
f 651 65 650
f 163 389 384
f 683 66 65
f 455 558 563
f 165 384 171
f 340 331 34
f 67 66 683
f 206 470 63
f 385 102 856
f 67 702 70
f 344 340 696
f 179 403 406
f 710 70 702
f 16 352 14
f 111 112 59
f 63 64 655
f 18 368 16
f 710 742 753
f 119 112 111
f 394 671 545
f 551 922 903
f 19 375 18
f 753 740 711
f 406 470 179
f 261 615 108
f 545 453 439
f 178 386 530
f 24 386 23
f 72 753 742
f 26 396 24
f 768 765 72
f 119 142 112
f 32 63 470
f 112 142 161
f 399 400 396
f 154 343 182
f 545 671 448
f 399 415 400
f 768 770 765
f 32 406 410
f 418 415 399
f 770 183 777
f 387 300 166
f 415 418 422
f 105 86 299
f 169 42 839
f 170 142 119
f 173 172 705
f 329 638 343
f 134 738 737
f 185 638 329
f 692 661 145
f 150 74 741
f 637 345 873
f 132 145 661
f 170 184 142
f 138 495 760
f 138 136 188
f 136 194 188
f 201 87 194
f 270 87 205
f 216 49 210
f 46 216 724
f 198 184 170
f 43 96 907
f 219 39 218
f 45 43 41
f 224 37 219
f 498 224 514
f 86 105 342
f 225 36 514
f 378 107 110
f 80 233 107
f 22 41 43
f 198 217 849
f 41 581 45
f 103 233 76
f 76 40 103
f 222 217 214
f 678 100 40
f 98 41 22
f 366 41 98
f 40 76 678
f 215 4 284
f 215 98 21
f 537 536 92
f 222 234 217
f 904 537 92
f 460 462 30
f 284 471 366
f 222 239 246
f 586 903 759
f 462 28 30
f 246 234 222
f 454 449 28
f 237 391 924
f 560 319 921
f 246 888 252
f 431 471 282
f 455 560 391
f 319 560 241
f 50 238 793
f 50 566 52
f 52 574 55
f 258 263 510
f 244 52 249
f 55 253 2
f 284 792 657
f 303 670 667
f 303 100 674
f 250 249 55
f 273 274 252
f 251 253 574
f 100 303 301
f 301 570 100
f 104 261 257
f 677 100 678
f 273 285 274
f 257 2 253
f 2 257 265
f 250 2 259
f 570 568 40
f 752 292 293
f 294 296 285
f 285 296 274
f 684 497 679
f 277 274 296
f 440 447 442
f 579 489 463
f 692 329 695
f 259 262 267
f 871 736 360
f 262 271 9
f 40 100 570
f 570 567 568
f 203 128 270
f 310 296 294
f 305 296 310
f 87 270 194
f 9 5 262
f 5 272 600
f 276 9 271
f 9 276 11
f 272 11 278
f 302 323 310
f 568 103 40
f 108 615 89
f 280 11 276
f 11 280 12
f 103 568 540
f 278 12 425
f 323 337 328
f 283 12 280
f 12 283 13
f 283 297 289
f 289 13 283
f 540 561 231
f 425 13 424
f 209 288 205
f 291 125 286
f 346 337 323
f 49 304 288
f 173 350 351
f 297 654 314
f 347 158 864
f 304 47 311
f 47 304 49
f 47 46 481
f 360 361 855
f 501 684 146
f 481 311 47
f 46 39 481
f 343 695 329
f 314 289 297
f 289 314 160
f 481 321 308
f 481 39 321
f 325 122 321
f 325 321 37
f 37 321 39
f 333 160 314
f 324 266 333
f 527 107 231
f 84 121 325
f 36 327 498
f 160 333 34
f 327 120 84
f 36 82 371
f 277 393 390
f 689 34 333
f 34 689 340
f 313 34 331
f 266 334 689
f 334 260 341
f 340 335 331
f 107 527 110
f 54 404 405
f 696 14 344
f 61 401 44
f 38 299 407
f 358 14 348
f 14 358 16
f 344 14 352
f 356 704 712
f 352 16 368
f 413 62 417
f 370 16 358
f 16 370 18
f 175 705 134
f 713 115 110
f 371 27 378
f 27 371 82
f 381 18 370
f 18 381 19
f 368 18 375
f 80 378 27
f 19 381 235
f 19 395 23
f 19 23 178
f 202 506 913
f 23 395 24
f 386 24 396
f 398 24 395
f 24 398 26
f 26 398 220
f 26 412 399
f 396 26 399
f 418 399 412
f 164 180 444
f 444 443 164
f 175 173 705
f 685 84 120
f 422 300 415
f 685 121 84
f 172 169 300
f 172 300 422
f 78 80 27
f 226 365 78
f 89 615 114
f 240 485 309
f 134 737 175
f 226 27 82
f 245 459 452
f 187 186 140
f 243 459 245
f 189 187 130
f 581 466 579
f 467 472 637
f 308 122 240
f 138 579 466
f 430 255 463
f 499 435 430
f 453 430 435
f 435 440 439
f 435 499 450
f 243 479 281
f 308 321 122
f 897 438 584
f 439 453 435
f 243 281 893
f 450 440 435
f 480 859 865
f 440 449 447
f 442 439 440
f 450 449 440
f 447 449 454
f 492 488 493
f 127 458 456
f 449 456 28
f 82 225 708
f 454 28 462
f 28 456 30
f 456 450 127
f 30 456 458
f 225 82 36
f 30 464 460
f 506 507 502
f 126 469 125
f 287 508 509
f 207 507 506
f 410 460 32
f 126 306 477
f 460 464 644
f 644 32 460
f 32 644 63
f 475 31 576
f 470 406 32
f 64 63 644
f 306 309 477
f 125 464 458
f 528 795 511
f 516 523 524
f 655 206 63
f 206 655 484
f 206 474 470
f 162 679 497
f 316 322 822
f 313 160 34
f 37 498 325
f 523 316 534
f 497 684 501
f 501 146 505
f 146 512 503
f 505 503 513
f 263 515 510
f 512 120 115
f 503 512 91
f 517 513 503
f 115 713 91
f 458 203 125
f 315 547 548
f 91 512 115
f 547 330 336
f 91 713 88
f 517 88 522
f 552 548 547
f 532 88 713
f 88 532 519
f 552 336 553
f 522 519 541
f 527 231 561
f 127 128 458
f 538 660 692
f 514 36 498
f 224 498 37
f 538 692 695
f 114 626 631
f 553 342 105
f 219 37 39
f 555 660 561
f 127 450 499
f 891 199 824
f 660 555 661
f 218 39 46
f 199 97 886
f 366 98 284
f 22 21 98
f 41 366 581
f 43 232 22
f 907 232 43
f 96 536 907
f 45 463 255
f 45 581 463
f 255 94 96
f 255 96 45
f 94 453 545
f 448 546 545
f 582 593 594
f 595 584 438
f 216 46 47
f 216 47 49
f 551 640 558
f 558 640 569
f 49 288 209
f 793 565 50
f 569 53 558
f 566 50 565
f 209 210 49
f 841 351 350
f 574 52 566
f 578 53 57
f 612 609 423
f 53 578 563
f 575 53 569
f 597 432 211
f 253 55 574
f 57 575 597
f 578 57 592
f 592 583 578
f 627 609 612
f 584 621 628
f 603 589 606
f 602 589 597
f 634 819 627
f 610 606 602
f 835 318 229
f 626 606 58
f 610 624 58
f 58 624 630
f 632 58 630
f 634 884 869
f 58 632 626
f 60 642 632
f 642 60 649
f 60 630 181
f 650 649 643
f 662 652 645
f 656 628 621
f 621 636 656
f 658 659 204
f 64 644 469
f 466 495 138
f 694 377 700
f 468 471 431
f 663 650 65
f 628 656 668
f 679 162 484
f 65 686 663
f 672 673 659
f 686 65 66
f 683 65 651
f 468 431 478
f 683 693 67
f 685 146 684
f 146 685 512
f 696 340 689
f 66 67 701
f 473 495 478
f 66 698 686
f 702 67 693
f 668 675 687
f 701 698 66
f 405 690 54
f 701 67 70
f 54 690 564
f 14 696 348
f 711 70 710
f 699 70 711
f 702 709 710
f 229 318 236
f 657 282 471
f 710 709 742
f 753 756 740
f 756 753 72
f 742 754 72
f 72 754 768
f 72 765 756
f 766 765 770
f 490 193 496
f 130 772 496
f 770 776 766
f 15 719 168
f 87 201 148
f 183 770 768
f 201 194 136
f 422 705 172
f 633 777 338
f 777 633 150
f 408 74 633
f 638 185 408
f 106 730 258
f 688 379 694
f 275 631 118
f 185 692 145
f 197 750 749
f 736 737 738
f 263 258 730
f 738 741 743
f 185 145 143
f 743 741 744
f 744 741 74
f 744 467 879
f 132 140 145
f 123 132 661
f 741 738 150
f 123 540 567
f 773 772 567
f 738 134 150
f 78 27 226
f 238 623 1
f 264 279 779
f 776 150 134
f 134 705 420
f 695 541 538
f 104 599 261
f 365 681 680
f 761 762 763
f 365 678 76
f 76 78 365
f 411 156 420
f 156 411 220
f 541 519 538
f 220 764 156
f 76 233 78
f 80 78 233
f 168 789 387
f 70 699 701
f 398 395 228
f 434 437 445
f 779 780 887
f 428 432 434
f 926 317 706
f 197 749 745
f 213 6 4
f 279 785 780
f 419 427 428
f 148 201 745
f 454 462 419
f 526 782 783
f 381 734 235
f 410 414 419
f 493 769 913
f 511 4 215
f 4 511 213
f 406 414 410
f 208 731 729
f 21 511 215
f 210 728 727
f 794 800 823
f 511 21 529
f 470 474 179
f 724 218 46
f 227 110 115
f 118 280 275
f 219 218 722
f 806 800 794
f 803 804 256
f 716 778 225
f 224 219 720
f 407 86 690
f 356 734 381
f 389 497 380
f 809 795 528
f 810 806 811
f 717 716 514
f 497 501 380
f 317 697 429
f 810 818 821
f 913 771 202
f 341 698 699
f 373 376 159
f 369 177 373
f 341 260 698
f 260 334 266
f 365 226 681
f 517 522 354
f 828 821 818
f 354 362 364
f 569 640 446
f 519 522 88
f 767 828 818
f 266 324 676
f 602 597 211
f 804 834 256
f 121 240 122
f 345 868 918
f 610 602 211
f 169 839 166
f 427 195 211
f 643 179 174
f 683 651 165
f 693 683 171
f 627 884 634
f 324 654 676
f 846 397 841
f 841 397 374
f 362 709 369
f 580 397 846
f 192 188 190
f 192 499 489
f 128 192 190
f 270 205 203
f 205 288 286
f 291 306 126
f 208 148 733
f 288 304 291
f 304 311 306
f 311 481 308
f 286 125 203
f 283 118 297
f 589 599 592
f 283 280 118
f 227 115 120
f 747 805 732
f 707 226 82
f 107 378 80
f 275 114 631
f 118 646 297
f 89 114 275
f 231 233 103
f 87 209 205
f 816 872 870
f 271 108 89
f 248 560 455
f 248 241 560
f 108 271 265
f 566 565 241
f 86 876 690
f 622 244 619
f 517 91 88
f 574 566 248
f 715 662 889
f 244 249 618
f 249 250 614
f 882 465 718
f 253 251 257
f 774 465 882
f 250 259 608
f 883 494 774
f 921 391 560
f 259 267 604
f 54 564 847
f 251 577 583
f 600 267 5
f 89 276 271
f 503 91 517
f 690 405 407
f 275 276 89
f 892 573 582
f 272 278 596
f 248 577 574
f 280 276 275
f 425 588 591
f 425 424 781
f 781 313 572
f 424 313 781
f 572 585 781
f 314 654 324
f 136 197 201
f 313 557 572
f 237 551 558
f 554 331 335
f 334 341 348
f 760 136 138
f 335 344 549
f 341 699 704
f 348 696 334
f 921 319 7
f 358 348 704
f 344 352 544
f 912 582 594
f 903 586 551
f 352 368 543
f 381 370 356
f 368 375 539
f 788 8 3
f 535 375 178
f 221 795 809
f 828 767 562
f 559 833 920
f 921 920 899
f 546 448 898
f 903 922 836
f 38 903 299
f 235 228 395
f 405 669 407
f 546 92 94
f 400 518 520
f 92 546 904
f 639 35 926
f 386 396 525
f 927 926 33
f 928 605 930
f 200 490 298
f 94 545 546
f 96 92 536
f 927 56 852
f 143 472 408
f 220 412 26
f 400 520 521
f 412 220 411
f 109 113 152
f 920 832 559
f 418 412 411
f 152 113 746
f 387 789 786
f 420 418 411
f 746 161 867
f 418 420 422
f 490 773 298
f 496 772 773
f 394 442 445
f 562 767 832
f 739 636 820
f 204 725 658
f 773 490 496
f 725 223 635
f 447 454 428
f 472 186 637
f 215 284 98
f 189 130 496
f 458 464 30
f 410 462 460
f 125 469 464
f 635 247 487
f 487 269 629
f 641 487 629
f 268 269 487
f 269 393 629
f 390 269 268
f 469 126 64
f 349 761 763
f 655 64 477
f 303 674 670
f 290 393 277
f 611 290 928
f 163 474 483
f 928 307 605
f 635 641 648
f 531 605 533
f 677 674 100
f 477 309 485
f 506 202 207
f 679 485 240
f 240 121 684
f 312 912 594
f 684 679 240
f 121 685 684
f 186 187 345
f 503 505 146
f 912 332 892
f 772 130 132
f 685 120 512
f 501 505 159
f 725 648 658
f 505 513 373
f 513 517 364
f 892 847 564
f 110 527 713
f 714 847 339
f 522 541 154
f 51 714 346
f 231 103 540
f 714 51 404
f 541 695 343
f 567 772 123
f 502 500 506
f 578 577 563
f 867 659 673
f 577 578 583
f 597 575 432
f 592 104 583
f 913 492 493
f 845 167 839
f 599 104 592
f 386 178 23
f 599 603 615
f 110 227 378
f 615 261 599
f 706 402 639
f 603 626 114
f 132 123 772
f 624 610 195
f 409 706 317
f 746 673 682
f 114 615 603
f 120 327 227
f 624 414 403
f 691 429 697
f 642 631 632
f 642 118 631
f 429 433 853
f 646 118 642
f 642 649 646
f 152 682 691
f 682 433 691
f 181 643 60
f 654 297 646
f 122 325 121
f 140 130 187
f 421 416 617
f 123 661 555
f 309 308 240
f 698 260 686
f 702 693 177
f 698 701 699
f 672 441 436
f 291 126 125
f 109 691 697
f 143 140 186
f 874 872 816
f 665 441 672
f 188 192 489
f 665 658 653
f 712 704 699
f 653 451 665
f 927 697 317
f 712 740 734
f 648 461 653
f 178 375 19
f 923 880 116
f 641 461 648
f 740 756 748
f 748 758 228
f 926 706 639
f 479 641 482
f 754 742 362
f 354 754 362
f 407 669 38
f 203 458 128
f 482 629 620
f 756 765 758
f 182 754 154
f 128 127 192
f 254 246 252
f 611 382 620
f 764 398 228
f 499 192 127
f 764 766 156
f 766 776 156
f 930 611 928
f 420 156 776
f 140 132 130
f 788 7 8
f 387 166 168
f 420 776 134
f 136 760 197
f 300 387 415
f 750 197 760
f 745 201 197
f 148 208 209
f 733 148 745
f 258 35 106
f 593 533 605
f 731 208 733
f 236 318 910
f 729 210 208
f 728 210 729
f 727 216 210
f 188 489 579
f 929 573 556
f 724 216 727
f 573 929 582
f 723 218 724
f 722 218 723
f 720 219 722
f 717 224 720
f 514 224 717
f 188 579 138
f 876 556 573
f 707 681 226
f 898 904 546
f 472 143 186
f 212 795 221
f 899 391 921
f 854 925 931
f 213 795 212
f 140 143 145
f 404 54 714
f 833 922 924
f 415 387 786
f 143 408 185
f 238 3 793
f 1 3 238
f 31 799 752
f 622 238 244
f 918 799 515
f 380 376 171
f 915 752 357
f 617 476 421
f 619 244 618
f 618 249 616
f 616 249 614
f 636 739 613
f 388 613 10
f 614 250 608
f 357 791 915
f 383 688 388
f 608 259 607
f 571 438 576
f 295 667 666
f 92 96 94
f 607 259 604
f 372 726 700
f 667 295 303
f 367 726 372
f 604 267 601
f 298 295 207
f 923 875 880
f 363 732 367
f 408 467 74
f 148 209 87
f 298 301 295
f 359 747 363
f 601 267 600
f 359 355 755
f 600 272 598
f 598 272 596
f 353 755 355
f 301 298 773
f 596 278 591
f 747 755 751
f 591 278 425
f 588 425 781
f 388 688 813
f 769 771 913
f 763 353 349
f 202 771 200
f 506 500 913
f 74 467 744
f 773 570 301
f 82 708 707
f 320 647 326
f 500 492 913
f 331 554 557
f 242 910 320
f 344 335 340
f 910 908 647
f 554 335 550
f 239 222 703
f 549 550 335
f 549 344 544
f 166 167 168
f 544 352 543
f 543 368 542
f 17 15 167
f 17 845 157
f 907 536 919
f 157 850 155
f 155 850 153
f 542 368 539
f 150 633 74
f 153 854 151
f 151 854 149
f 149 858 147
f 147 862 144
f 539 375 535
f 759 903 38
f 530 535 178
f 144 862 141
f 141 866 139
f 139 866 137
f 530 386 525
f 137 870 135
f 525 396 521
f 135 870 872
f 133 872 131
f 131 874 129
f 129 923 117
f 923 874 875
f 170 119 902
f 521 396 400
f 20 932 101
f 99 101 932
f 99 886 97
f 95 97 199
f 95 891 93
f 93 896 90
f 518 400 786
f 90 896 85
f 85 901 83
f 83 905 81
f 169 166 300
f 81 905 79
f 77 79 796
f 77 909 75
f 439 394 545
f 75 914 73
f 73 914 71
f 71 916 69
f 442 394 439
f 468 466 366
f 442 447 434
f 7 562 920
f 794 534 811
f 924 899 833
f 434 447 428
f 428 454 419
f 419 462 410
f 38 898 759
f 902 111 897
f 466 468 495
f 526 524 534
f 25 59 56
f 96 43 45
f 895 401 61
f 182 343 338
f 483 389 163
f 483 162 389
f 897 59 25
f 883 894 775
f 776 777 150
f 59 897 111
f 380 384 389
f 774 882 893
f 111 902 119
f 778 708 225
f 501 159 380
f 167 166 839
f 159 505 373
f 176 191 867
f 373 513 369
f 364 369 513
f 850 890 925
f 354 364 517
f 354 522 154
f 177 369 709
f 154 541 343
f 446 445 437
f 376 380 159
f 204 223 725
f 217 198 214
f 214 703 222
f 437 569 446
f 610 211 195
f 414 624 195
f 403 630 624
f 889 718 715
f 160 313 424
f 181 630 403
f 888 246 239
f 179 643 181
f 174 650 643
f 651 650 174
f 163 384 165
f 487 247 268
f 165 651 163
f 171 683 165
f 174 474 163
f 557 313 331
f 475 515 799
f 376 693 171
f 285 273 757
f 177 693 376
f 627 885 884
f 174 179 474
f 509 508 516
f 294 302 310
f 709 702 177
f 709 362 742
f 154 754 354
f 182 338 183
f 780 785 803
f 183 768 182
f 423 413 881
f 183 338 777
f 638 338 343
f 633 638 408
f 590 401 895
f 692 185 329
f 190 188 194
f 515 475 25
f 270 190 194
f 190 270 128
f 195 427 414
f 7 788 562
f 915 878 571
f 877 595 438
f 203 205 286
f 44 48 61
f 474 206 483
f 210 209 208
f 61 62 895
f 413 895 62
f 211 432 427
f 172 42 169
f 398 764 220
f 515 263 918
f 437 575 569
f 228 758 764
f 124 885 426
f 175 871 350
f 84 498 327
f 225 514 716
f 327 371 227
f 918 263 730
f 898 448 759
f 371 327 36
f 839 374 890
f 227 371 378
f 451 441 665
f 228 235 748
f 444 180 457
f 233 231 107
f 187 868 345
f 759 448 586
f 189 292 868
f 734 748 235
f 653 461 826
f 924 922 237
f 292 193 196
f 446 671 394
f 461 641 479
f 922 551 237
f 391 237 455
f 482 641 629
f 918 868 799
f 196 200 293
f 771 293 200
f 558 455 237
f 281 287 894
f 894 893 281
f 248 566 241
f 257 251 104
f 255 430 453
f 257 261 265
f 509 775 287
f 260 266 676
f 509 516 524
f 265 261 108
f 523 516 531
f 322 316 523
f 273 252 888
f 265 271 262
f 811 534 316
f 316 315 811
f 676 686 260
f 366 466 581
f 478 495 468
f 330 547 315
f 547 336 552
f 366 471 468
f 760 495 473
f 657 471 284
f 336 342 553
f 553 900 552
f 832 900 553
f 865 878 791
f 792 284 4
f 31 571 576
f 286 288 291
f 438 571 877
f 906 864 863
f 4 790 792
f 8 7 319
f 303 295 301
f 291 304 306
f 570 773 567
f 739 617 392
f 617 416 392
f 306 311 309
f 309 311 308
f 170 628 668
f 613 739 10
f 739 392 10
f 656 675 668
f 656 815 675
f 680 678 365
f 813 613 388
f 324 333 314
f 687 198 668
f 379 688 383
f 295 666 207
f 815 656 636
f 377 694 379
f 325 498 84
f 689 333 266
f 334 696 689
f 700 377 372
f 861 834 860
f 703 721 239
f 732 726 367
f 834 861 256
f 348 341 704
f 747 732 363
f 356 358 704
f 735 888 721
f 370 358 356
f 735 264 757
f 735 273 888
f 755 747 359
f 369 364 362
f 353 763 755
f 647 761 326
f 761 349 326
f 376 373 177
f 779 757 264
f 780 779 279
f 384 380 171
f 235 395 19
f 736 871 737
f 562 788 917
f 910 647 320
f 785 804 803
f 414 406 403
f 256 323 803
f 813 675 815
f 415 786 400
f 427 419 414
f 422 420 705
f 432 428 427
f 430 489 499
f 587 580 590
f 437 434 432
f 445 442 434
f 446 394 445
f 671 586 448
f 819 609 627
f 456 449 450
f 455 563 248
f 865 791 769
f 581 579 463
f 645 652 817
f 644 464 469
f 652 662 715
f 874 923 129
f 715 664 652
f 694 812 688
f 477 64 126
f 750 760 473
f 485 655 477
f 465 715 718
f 507 207 666
f 465 774 494
f 865 486 480
f 812 675 813
f 485 484 655
f 207 202 298
f 883 504 825
f 493 865 769
f 783 782 504
f 679 484 485
f 202 200 298
f 196 490 200
f 196 193 490
f 877 859 476
f 302 803 323
f 189 496 193
f 814 806 810
f 168 719 789
f 821 814 810
f 391 899 924
f 713 527 532
f 467 408 472
f 302 294 887
f 786 787 518
f 538 519 532
f 561 532 527
f 926 35 33
f 538 532 660
f 540 555 561
f 551 586 640
f 319 241 565
f 660 532 561
f 113 161 746
f 161 176 867
f 8 319 565
f 223 247 635
f 781 585 784
f 620 629 393
f 887 780 302
f 269 390 393
f 671 640 586
f 781 784 588
f 599 589 603
f 393 290 611
f 626 603 606
f 928 290 305
f 623 238 622
f 625 1 623
f 774 893 894
f 312 332 912
f 626 632 631
f 332 339 847
f 847 892 332
f 757 887 285
f 847 714 54
f 793 3 8
f 732 807 726
f 858 931 857
f 675 812 687
f 168 167 15
f 273 735 757
f 920 921 7
f 402 385 639
f 167 845 17
f 638 633 338
f 646 649 663
f 650 663 649
f 845 850 157
f 888 239 721
f 663 654 646
f 706 409 48
f 850 854 153
f 676 654 663
f 429 409 317
f 661 692 660
f 854 858 149
f 676 663 686
f 858 862 147
f 433 429 691
f 678 680 677
f 699 711 712
f 712 734 356
f 711 710 753
f 862 866 141
f 712 711 740
f 682 436 827
f 734 740 748
f 866 870 137
f 214 687 808
f 748 756 758
f 664 816 652
f 872 133 135
f 198 687 214
f 754 182 768
f 872 874 131
f 665 659 658
f 758 765 766
f 658 648 653
f 766 764 758
f 776 770 777
f 668 198 170
f 117 923 116
f 787 786 789
f 929 330 822
f 533 822 322
f 556 336 330
f 531 322 523
f 899 920 833
f 662 444 889
f 346 323 256
f 491 482 620
f 116 880 911
f 911 20 116
f 382 491 620
f 911 932 20
f 932 886 99
f 645 443 662
f 930 382 611
f 382 930 516
f 886 824 199
f 605 531 930
f 491 508 848
f 628 170 902
f 256 347 346
f 482 848 479
f 891 896 93
f 347 256 861
f 820 617 739
f 866 819 817
f 605 594 593
f 896 901 85
f 929 593 582
f 612 881 885
f 901 905 83
f 826 451 653
f 451 457 180
f 672 659 665
f 441 180 851
f 79 905 796
f 436 673 672
f 436 851 827
f 909 914 75
f 682 673 436
f 914 916 71
f 584 902 897
f 876 86 342
f 69 916 1
f 829 433 827
f 700 808 694
f 788 3 916
f 853 829 417
f 409 61 48
f 402 48 855
f 870 817 816
f 855 29 360
f 874 816 664
f 385 361 102
f 830 880 875
f 576 897 25
f 819 634 817
f 68 69 1
f 106 856 730
f 743 736 738
f 910 242 236
f 862 857 819
f 744 879 102
f 880 830 831
f 840 528 843
f 401 846 44
f 803 302 780
f 769 791 357
f 878 915 791
f 831 911 880
f 918 873 345
f 576 25 475
f 799 31 475
f 841 29 846
f 879 856 102
f 106 639 385
f 573 564 876
f 911 831 802
f 342 556 876
f 337 339 332
f 25 510 515
f 350 29 841
f 564 573 892
f 892 582 912
f 510 25 56
f 864 906 837
f 312 328 337
f 929 822 593
f 33 35 258
f 871 360 29
f 840 860 835
f 864 158 863
f 29 855 44
f 916 914 917
f 808 687 812
f 594 307 312
f 307 305 328
f 916 917 788
f 33 56 927
f 840 835 809
f 307 594 605
f 736 743 361
f 531 516 930
f 290 277 305
f 852 109 927
f 318 835 860
f 21 844 529
f 852 59 112
f 620 393 611
f 102 743 744
f 112 113 852
f 751 763 762
f 647 785 762
f 805 747 751
f 252 268 254
f 230 835 229
f 487 641 635
f 637 879 467
f 124 851 164
f 809 230 221
f 161 142 176
f 807 732 805
f 247 234 254
f 230 809 835
f 808 700 807
f 345 637 186
f 176 184 191
f 812 694 808
f 204 849 223
f 849 204 191
f 813 688 812
f 635 648 725
f 849 184 198
f 815 613 813
f 815 636 613
f 217 223 849
f 659 191 204
f 217 234 223
f 191 184 849
f 859 480 421
f 795 213 511
f 245 461 243
f 878 865 859
f 802 886 932
f 191 659 867
f 452 718 889
f 223 234 247
f 176 142 184
f 246 254 234
f 865 493 486
f 293 771 357
f 268 247 254
f 771 769 357
f 805 264 735
f 268 252 390
f 161 113 112
f 486 493 488
f 390 252 274
f 867 673 746
f 264 751 279
f 274 277 390
f 746 682 152
f 281 848 287
f 827 433 682
f 808 703 214
f 152 691 109
f 109 852 113
f 476 859 421
f 296 305 277
f 476 595 877
f 305 307 928
f 196 293 292
f 595 476 820
f 726 807 700
f 752 293 357
f 307 328 312
f 310 328 305
f 56 59 852
f 292 752 799
f 328 310 323
f 886 825 824
f 312 337 332
f 807 703 808
f 891 824 782
f 193 292 189
f 844 21 22
f 429 853 409
f 109 697 927
f 56 33 510
f 105 559 553
f 339 337 346
f 346 714 339
f 51 346 347
f 317 926 927
f 564 690 876
f 863 844 232
f 799 868 292
f 510 33 258
f 843 528 529
f 844 863 842
f 861 840 843
f 861 158 347
f 861 860 840
f 752 915 31
f 158 843 842
f 843 158 861
f 842 529 844
f 919 837 906
f 906 232 907
f 809 528 840
f 730 873 918
f 730 856 873
f 873 856 879
f 856 106 385
f 817 634 645
f 837 919 838
f 817 652 816
f 919 906 907
f 919 536 537
f 743 102 361
f 904 669 838
f 898 669 904
f 669 898 38
f 703 807 721
f 405 404 838
f 669 405 838
f 922 833 836
f 294 285 887
f 361 385 402
f 869 645 634
f 830 875 664
f 916 3 1
f 864 51 347
f 402 855 361
f 909 801 914
f 397 890 374
f 48 44 855
f 796 909 77
f 879 637 873
f 901 798 905
f 580 925 397
f 48 402 706
f 896 800 901
f 891 823 896
f 409 62 61
f 853 62 409
f 881 413 417
f 417 62 853
f 86 407 299
f 459 893 882
f 199 891 95
f 830 465 831
f 829 426 417
f 426 829 124
f 426 881 417
f 124 829 827
f 433 829 853
f 886 802 825
f 774 894 883
f 851 124 827
f 164 884 124
f 441 851 436
f 180 164 851
f 443 869 164
f 911 802 932
f 715 830 664
f 874 664 875
f 736 361 360
f 451 180 441
f 457 452 889
f 889 444 457
f 866 817 870
f 106 35 639
f 459 718 452
f 826 452 457
f 452 826 245
f 451 826 457
f 862 819 866
f 858 857 862
f 461 245 826
f 459 882 718
f 479 243 461
f 854 931 858
f 850 925 854
f 846 401 580
f 845 890 850
f 491 848 482
f 848 281 479
f 825 494 883
f 382 508 491
f 900 832 767
f 508 287 848
f 896 823 800
f 839 890 845
f 504 782 824
f 42 374 839
f 516 508 382
f 908 910 318
f 534 524 523
f 552 818 548
f 42 172 173
f 901 800 798
f 818 552 900
f 533 322 531
f 871 175 737
f 868 187 189
f 22 232 844
f 593 822 533
f 822 315 316
f 929 556 330
f 330 315 822
f 838 919 537
f 904 838 537
f 318 860 834
f 908 318 834
f 465 830 715
f 556 342 336
f 105 836 559
f 833 559 836
f 29 44 846
f 908 834 804
f 562 917 828
f 299 836 105
f 818 900 767
f 832 553 559
f 562 832 920
f 811 315 548
f 828 801 821
f 801 828 917
f 821 797 814
f 836 299 903
f 401 590 580
f 797 821 801
f 905 798 796
f 796 814 797
f 810 548 818
f 814 798 806
f 798 814 796
f 909 796 797
f 811 548 810
f 413 587 590
f 404 51 837
f 51 864 837
f 837 838 404
f 909 797 801
f 529 842 843
f 158 842 863
f 232 906 863
f 800 806 798
f 529 528 511
f 794 811 806
f 785 908 804
f 785 647 908
f 859 877 878
f 526 534 794
f 877 571 878
f 571 31 915
f 173 351 42
f 524 783 509
f 350 173 175
f 29 350 871
f 823 526 794
f 783 524 526
f 526 823 782
f 42 351 374
f 841 374 351
f 504 775 783
f 509 783 775
f 782 823 891
f 885 124 884
f 887 757 779
f 914 801 917
f 426 885 881
f 890 397 925
f 825 504 824
f 775 504 883
f 925 587 931
f 587 925 580
f 802 494 825
f 785 279 762
f 494 831 465
f 831 494 802
f 894 287 775
f 590 895 413
f 438 897 576
f 884 164 869
f 762 279 751
f 423 931 587
f 587 413 423
f 931 423 857
f 762 761 647
f 617 820 476
f 595 820 621
f 751 755 763
f 893 459 243
f 751 264 805
f 609 857 423
f 423 881 612
f 662 443 444
f 721 805 735
f 621 584 595
f 857 609 819
f 443 645 869
f 612 885 627
f 636 621 820
f 628 902 584
f 805 721 807
