# Gate 6d generalise variant rot-30 of the authored skirt (body space)
v -0.115532083 0.545012534 0.169931465
v -0.197417491 0.574712038 0.047627210
v -0.114948537 0.565383792 0.168993245
v -0.104403135 0.932061732 0.152025260
v -0.218407971 0.554107666 -0.013985118
v -0.103815949 0.952752292 0.151082104
v -0.113780056 0.606126189 0.167114114
v -0.114364998 0.585755050 0.168055038
v -0.217097705 0.577004790 -0.014284126
v 0.192649322 0.952752292 -0.033904780
v -0.213199593 0.571851671 -0.041792456
v -0.208626662 0.575093746 -0.070689161
v -0.204795977 0.577295601 -0.095081458
v -0.118343820 0.576999307 -0.205391470
v 0.125651208 0.524922252 -0.211889432
v -0.098119748 0.572121143 -0.221908610
v 0.136888041 0.524922252 -0.195362765
v -0.076466608 0.573186278 -0.235882136
v -0.050896680 0.579089344 -0.237433903
v 0.175086014 0.524922252 0.105075578
v -0.105578200 0.891320109 0.153916815
v -0.106164699 0.870949209 0.154860694
v -0.027591264 0.570562541 -0.236476971
v -0.006783490 0.577008843 -0.234605484
v 0.175201984 0.815400243 -0.112807977
v 0.014497907 0.586656570 -0.232530821
v -0.062494855 0.903569758 -0.219201959
v -0.205885220 0.792288661 0.013711968
v 0.142666756 0.652696848 -0.175337027
v -0.205420139 0.804790020 -0.006692835
v 0.154611332 0.854064226 -0.138650163
v -0.200124684 0.774880111 -0.053926122
v 0.172119351 0.766061544 -0.121792650
v -0.175920632 0.572860599 -0.159708978
v 0.162471567 0.751033127 -0.137337922
v -0.099413105 0.907682657 -0.195378186
v -0.143988259 0.903769791 -0.158929440
v -0.090505096 0.731301785 0.163267147
v -0.163986020 0.910057604 -0.141610313
v 0.008345171 0.903027356 -0.215624825
v -0.127647429 0.875223815 0.124500455
v 0.124426126 0.599021018 -0.206825595
v -0.120134310 0.850504041 0.137126417
v 0.158646446 0.660583675 -0.151123291
v -0.136307585 0.851681948 0.114446138
v -0.178831053 0.918561816 -0.120757111
v -0.184632174 0.898928583 -0.102006163
v 0.164577230 0.687174618 -0.140001739
v -0.188908803 0.904512346 -0.074495160
v -0.143515111 0.570212841 0.127054190
v -0.031314914 0.815397024 0.164979817
v -0.160236540 0.571850240 0.102396657
v -0.167310533 0.679118752 0.084055658
v -0.033174576 0.765929997 0.167165976
v -0.177008767 0.571653843 0.077800680
v 0.181867374 0.785485804 -0.105703388
v -0.185445067 0.675767839 0.057694832
v -0.209304423 0.686371446 -0.025806591
v 0.192124391 0.804936528 -0.088447534
v -0.201979485 0.684288502 -0.074612323
v 0.173700964 0.667113304 -0.128392705
v 0.188727171 0.665290415 -0.106457207
v -0.195295623 0.787932396 -0.078236362
v -0.194036434 0.813300252 -0.076643146
v -0.175243941 0.685215175 -0.151131181
v -0.151103116 0.678736806 -0.171531676
v -0.132238386 0.694035590 -0.185502768
v -0.116115621 0.524641275 0.170869672
v -0.096190582 0.524922252 0.172353969
v -0.111341006 0.679491282 -0.203283803
v -0.076259815 0.524922252 0.173824436
v -0.041619629 0.691728771 -0.231087483
v -0.056329049 0.524922252 0.175294902
v 0.084847883 0.725150704 -0.219029312
v -0.036398274 0.524922252 0.176765356
v -0.015433062 0.905589104 -0.217803154
v -0.016467500 0.524922252 0.178235810
v -0.038526706 0.907216132 -0.219403883
v 0.003463265 0.524922252 0.179706276
v -0.047414903 0.887714207 -0.220889557
v 0.023394037 0.524922252 0.181176746
v -0.077008620 0.923009753 -0.211512879
v 0.043324796 0.524922252 0.182647208
v -0.121813667 0.864225149 -0.180475761
v 0.063012481 0.524922252 0.183333272
v -0.051952196 0.714238226 0.167819915
v -0.199732616 0.902656615 -0.009878594
v -0.051069498 0.799889266 -0.225692836
v -0.215250878 0.615264475 -0.012530940
v 0.081447163 0.524922252 0.179976114
v -0.077445633 0.810289621 -0.219484813
v -0.121010892 0.796572268 0.140565831
v 0.097053645 0.524922252 0.167492690
v -0.136272705 0.800105691 0.118953063
v 0.112660110 0.524922252 0.155009265
v -0.125568906 0.823971331 0.131833654
v 0.128266586 0.524922252 0.142525851
v -0.119139059 0.897608042 0.134441914
v 0.143873048 0.524922252 0.130042430
v 0.022851996 0.923439980 -0.212946889
v 0.159479528 0.524922252 0.117559010
v 0.128392911 0.727168620 -0.188213192
v -0.004656390 0.881805897 -0.218204560
v -0.194114880 0.628136754 0.048508284
v -0.060693920 0.688355565 0.168277802
v 0.150090302 0.750019133 -0.155477564
v -0.042405643 0.866253436 -0.221838284
v -0.215767075 0.610680819 0.011455678
v 0.200885455 0.751830161 -0.078681977
v -0.062121842 0.851821780 -0.222158252
v 0.201049324 0.819196224 -0.069470877
v 0.204451763 0.794731736 -0.059594175
v 0.205898432 0.767587304 -0.058932846
v -0.212974238 0.638339341 -0.019120822
v -0.081838552 0.837265432 -0.214257943
v 0.190692475 0.524922252 0.092592160
v 0.200004910 0.524922252 0.076477867
v -0.205371702 0.627039731 -0.073224644
v 0.202086761 0.818229198 -0.046231346
v -0.102846958 0.850214839 -0.197224482
v -0.141418263 0.847199738 -0.165704671
v -0.156777199 0.862374365 -0.151786111
v 0.034874472 0.841617525 -0.216788619
v 0.210148821 0.659851670 -0.039877033
v -0.198634331 0.841691375 -0.038887076
v -0.193450209 0.837713122 -0.071377977
v -0.196133819 0.833685338 0.029517847
v -0.202569955 0.854048252 0.012841246
v 0.203013217 0.524922252 0.056726893
v 0.079624011 0.828456104 -0.213201065
v 0.206006816 0.524922252 0.036967419
v 0.055856093 0.822983801 -0.215871547
v 0.209000426 0.524922252 0.017207956
v 0.081181550 0.662309229 -0.223246935
v 0.211994025 0.524922252 -0.002551488
v -0.188202678 0.909654975 0.036042144
v 0.214987631 0.524922252 -0.022310945
v -0.172512388 0.903721392 0.059402337
v 0.217981229 0.524922252 -0.042070416
v 0.079350702 0.804403782 -0.214704348
v 0.220974838 0.524922252 -0.061829879
v 0.200379423 0.803484857 -0.028092996
v 0.078509192 0.779756010 -0.216299988
v 0.214726652 0.524922252 -0.079489842
v 0.053715113 0.797761083 -0.217630132
v -0.118895400 0.807171285 -0.187530113
v 0.204309121 0.524922252 -0.096202661
v -0.197218266 0.927550316 -0.016652958
v 0.193072280 0.524922252 -0.112729316
v 0.074022527 0.694815516 -0.221954736
v 0.181835435 0.524922252 -0.129256008
v 0.207361707 0.743586421 -0.057756387
v 0.170598592 0.524922252 -0.145782716
v -0.024636084 0.747496545 -0.226959170
v 0.159361751 0.524922252 -0.162309387
v 0.029557331 0.639851332 -0.228625517
v 0.148124903 0.524922252 -0.178836064
v -0.041169252 0.860084116 0.161813126
v -0.127531624 0.766502142 -0.183723375
v -0.194494806 0.581507146 -0.139171766
v 0.202911264 0.777695537 -0.035341381
v -0.174860155 0.786122561 -0.142741527
v -0.183526684 0.741531134 -0.137064746
v 0.206266419 0.650378048 -0.010775175
v -0.166938337 0.726630151 -0.154574541
v 0.113126527 0.565667987 -0.226041448
v 0.127849356 0.548943520 -0.206489510
v 0.113770460 0.545295119 -0.227228778
v 0.112482596 0.586040854 -0.224854118
v 0.197568100 0.832932770 -0.020435604
v -0.148131720 0.733364582 -0.169534221
v 0.111838664 0.606413722 -0.223666788
v 0.111194733 0.626786590 -0.222479457
v -0.192922460 0.721928060 -0.116077697
v 0.110550816 0.647159457 -0.221292152
v 0.199023597 0.786026359 -0.012747366
v -0.111631963 0.730318666 -0.199232868
v -0.037559151 0.549857080 -0.238280385
v -0.197839978 0.732007086 -0.083130327
v 0.201888748 0.671161771 0.010489272
v -0.201163802 0.708352506 -0.071194856
v -0.006276521 0.726334512 -0.226719180
v 0.011988899 0.707316518 -0.226373423
v 0.195625063 0.808548450 0.000278958
v 0.052347175 0.772123635 -0.219338249
v 0.106043281 0.789769471 -0.212980813
v 0.105399357 0.810142338 -0.211793496
v -0.182092660 0.881601810 0.047337764
v 0.104755426 0.830515206 -0.210606165
v -0.196382734 0.872879207 0.025156886
v 0.195819280 0.778468132 0.009996558
v -0.187767857 0.855122447 0.040917092
v 0.104111494 0.850888073 -0.209418835
v -0.198412639 0.895490468 0.018416463
v -0.210665106 0.719190836 -0.003950695
v 0.103467563 0.871260941 -0.208231504
v -0.192582986 0.933206618 0.026228765
v 0.191144325 0.836055756 0.017192146
v 0.120956375 0.548827529 0.146816422
v 0.102823631 0.891633809 -0.207044174
v -0.199305359 0.919983387 0.008702788
v 0.102179708 0.912006676 -0.205856856
v -0.201360906 0.858403862 -0.015535077
v 0.192312137 0.768621624 0.034540112
v -0.198115055 0.884278893 -0.026823163
v -0.191738066 0.777354717 -0.103256933
v 0.101535776 0.932379544 -0.204669526
v -0.192760294 0.934007585 -0.040930923
v -0.194091729 0.908832490 -0.042023795
v -0.188412895 0.929505765 -0.068482786
v -0.207063136 0.711112320 0.020681184
v -0.063740461 0.952752292 0.155037064
v -0.083778198 0.952752292 0.153059570
v 0.185166177 0.854663670 0.046212423
v -0.104990675 0.911690950 0.152971050
v -0.184047603 0.924966991 -0.096147623
v 0.186766302 0.821780920 0.048511136
v -0.167063441 0.933366239 -0.136579814
v -0.149746268 0.929132342 -0.152092464
v 0.017537750 0.614058614 -0.230866601
v -0.043702705 0.952752292 0.157014532
v 0.180338088 0.838890195 0.070532512
v 0.187176583 0.786945224 0.058626589
v -0.131512242 0.926204443 -0.167374939
v -0.094386197 0.932985902 -0.197442735
v -0.051608520 0.927708209 -0.218516977
v -0.084751458 0.864465117 -0.210534137
v -0.024310415 0.621403635 -0.233562968
v -0.003627215 0.952752233 0.160969492
v -0.023664960 0.952752292 0.158992012
v -0.017773179 0.861071348 -0.220483861
v -0.106750791 0.850578249 0.155803827
v -0.026918944 0.884604871 -0.219920541
v 0.179879523 0.810394585 0.075318554
v -0.048093756 0.609996200 -0.235741854
v 0.016410536 0.952752233 0.162946976
v -0.128967929 0.672890484 0.140139666
v -0.132268230 0.548217595 0.145189571
v 0.167120824 0.850695610 0.088359269
v -0.166646002 0.837886333 -0.145628714
v -0.139866394 0.610092819 0.129448365
v 0.036448285 0.952752233 0.164924450
v 0.174808691 0.674159348 0.094259853
v -0.151076623 0.547072113 0.117676297
v 0.188567767 0.674697459 0.075799348
v 0.165223743 0.826921761 0.091899681
v 0.174335450 0.783230424 0.086664308
v -0.151977802 0.625686288 0.110519535
v -0.170200135 0.547682583 0.089570304
v -0.188313513 0.549987614 0.062820766
v -0.181148560 0.615120053 0.068500297
v 0.143879020 0.812447071 0.110532727
v -0.183646723 0.592551589 0.066509582
v 0.163914126 0.803602874 0.094649909
v -0.144161476 0.827305019 0.105588590
v 0.016036394 0.853271186 0.167421493
v -0.195799721 0.603281796 0.047878428
v 0.157976915 0.770626545 -0.142174971
v -0.205996097 0.548584223 0.036839253
v -0.156012488 0.634691119 -0.170937603
v -0.206507711 0.618654847 0.030070102
v -0.216271762 0.569802642 0.016095912
v 0.151769231 0.789688170 -0.149195352
v 0.116933341 0.880036414 0.127889731
v -0.209193597 0.593698144 0.027152642
v -0.167783376 0.614899397 -0.162988840
v -0.219811495 0.545159698 0.009809920
v 0.153162642 0.784803689 0.104865536
v 0.143361952 0.764824867 0.114378505
v -0.201888411 0.878166854 0.000320281
v -0.217188839 0.593333960 0.000664019
v -0.215302776 0.545498908 -0.037534189
v 0.128905816 0.834047198 0.121323562
v 0.120800188 0.807481408 0.129904298
v -0.210699110 0.620510221 -0.040560458
v -0.213789633 0.596425295 -0.028984939
v 0.111079127 0.781867743 0.139540951
v -0.211267074 0.550225854 -0.062358208
v 0.093499783 0.887628257 0.146615635
v -0.209429905 0.598694623 -0.056832694
v 0.156105041 0.667025506 0.110897426
v -0.138953917 0.952175260 0.101960618
v -0.205143518 0.599697590 -0.084658263
v -0.120992919 0.924926400 0.129461214
v 0.108275552 0.827926397 0.138736830
v -0.196999452 0.865890086 -0.040090100
v 0.135714923 0.659135580 0.127827723
v -0.193268327 0.885111868 -0.055450263
v -0.201291118 0.592687964 -0.112371018
v 0.103134996 0.758943498 0.147388255
v -0.193264588 0.861078024 -0.064098995
v 0.120836368 0.848374665 -0.186346188
v 0.120630310 0.875728786 -0.183833389
v 0.089236737 0.824531317 0.154234050
v 0.070741189 0.929791033 -0.207853186
v 0.098318277 0.803339899 0.148349889
v -0.200971835 0.618407190 -0.104846827
v 0.078623029 0.903883576 -0.208669308
v -0.077825804 0.710414529 0.165543232
v 0.092165893 0.582254589 -0.226980850
v 0.052685687 0.909972131 -0.210843227
v 0.071098767 0.837750256 0.165531254
v 0.045260996 0.933613420 -0.210121304
v -0.188976566 0.879754484 -0.082977281
v 0.085522118 0.778684616 0.160006766
v -0.189091910 0.854902565 -0.091208873
v 0.066322994 0.758550882 0.172033504
v -0.174895867 0.866420567 -0.134819785
v -0.184349250 0.847172439 -0.119036072
v 0.074204863 0.809272468 0.165663456
v -0.184825749 0.873250008 -0.110050339
v 0.041419402 0.768904328 0.172529248
v -0.190608597 0.553772509 -0.147345757
v -0.196276575 0.606966138 -0.131184481
v 0.024311805 0.655684829 0.175982711
v 0.050392776 0.654960036 0.177496032
v 0.183432636 0.721915603 -0.109135984
v 0.012852308 0.922328711 0.164077052
v -0.126184175 0.608919501 0.149384864
v 0.056002365 0.952752233 0.165313083
v -0.160127894 0.885775089 -0.147096399
v 0.060028764 0.677923977 0.176109536
v 0.041751759 0.824357986 0.170301290
v -0.186015687 0.618652523 -0.147277232
v -0.140040837 0.877166927 -0.164374897
v 0.073383830 0.952752233 0.158564538
v -0.102942507 0.879433692 -0.194791356
v 0.057607377 0.789243639 0.171727315
v 0.028439200 0.766781390 -0.221946952
v 0.009020298 0.679983139 0.173876791
v -0.168495019 0.548996866 -0.167445263
v 0.016504826 0.771043241 0.170764829
v -0.181397387 0.596914291 -0.153321448
v -0.146782680 0.609856963 -0.180212109
v -0.148344890 0.544421017 -0.183880613
v -0.017182891 0.674140990 0.172178639
v 0.028944577 0.795861840 0.170683938
v 0.026704553 0.726331234 -0.224290049
v 0.004417396 0.790082574 0.169106911
v -0.154070141 0.566963136 -0.177614971
v -0.132537757 0.629800975 -0.190089528
v -0.035157385 0.692910135 0.170097254
v 0.008036412 0.749529123 -0.224445747
v -0.130122866 0.555054843 -0.197633557
v 0.120257237 0.795478940 -0.192568934
v 0.004313464 0.819238305 0.167925378
v -0.017467792 0.843043745 0.164989183
v -0.125897269 0.603938758 -0.197335508
v 0.088921132 0.952752233 0.145757715
v 0.127466890 0.639131188 -0.198517303
v 0.129345611 0.617630363 -0.197964025
v -0.107950205 0.550900877 -0.215652377
v 0.104458424 0.952752233 0.132950909
v -0.052751977 0.750548542 -0.228377420
v 0.119995701 0.952752233 0.120144102
v -0.091120887 0.614187777 -0.224268795
v 0.135909074 0.887057602 -0.161360890
v -0.106504647 0.597532868 -0.213303415
v 0.135532986 0.952752233 0.107337281
v 0.136031428 0.676327050 -0.182754896
v 0.137099334 0.702244520 -0.178619878
v -0.070822567 0.731666207 -0.227289123
v 0.151070286 0.952752233 0.094530462
v -0.077615731 0.755520642 -0.223729326
v -0.028034785 0.928912938 -0.217556117
v -0.136445850 0.903983951 0.109730551
v 0.166607563 0.952752233 0.081723655
v -0.086292031 0.548704922 -0.232857178
v -0.093595052 0.742863774 -0.212694394
v -0.089354743 0.591464877 -0.227454952
v -0.083557364 0.892588019 -0.209461145
v 0.176037405 0.952752233 0.065390717
v -0.111160378 0.755455554 -0.197720982
v 0.139258149 0.598323286 -0.185255349
v -0.061325811 0.551503599 -0.239293597
v -0.129724830 0.743615329 -0.183761681
v 0.179359799 0.952752233 0.045531619
v -0.065808258 0.877097249 -0.219647076
v 0.182682169 0.952752233 0.025672528
v -0.147050608 0.762689531 -0.168012875
v -0.070506284 0.599505067 -0.235450182
v 0.112208271 0.705448985 0.143614347
v 0.186004556 0.952752292 0.005813412
v -0.162855172 0.746641397 -0.156296051
v 0.143990481 0.727045417 -0.166468362
v -0.013808568 0.550743759 -0.236503494
v 0.090916964 0.556305945 -0.228497267
v 0.189326945 0.952752292 -0.014045650
v -0.169395710 0.766113818 -0.149298261
v 0.132239618 0.785276353 0.122077684
v -0.125361191 0.650133908 0.147138947
v 0.195971701 0.952752292 -0.053763856
v 0.124335315 0.755669415 0.130622521
v -0.157756511 0.757036209 0.092271012
v -0.027466760 0.594511509 -0.235208970
v 0.013123071 0.556331456 -0.234226061
v 0.154334794 0.603755355 -0.162591223
v -0.004637164 0.604330182 -0.233011317
v 0.037802247 0.575790286 -0.231385447
v 0.041484569 0.549534261 -0.232494292
v 0.168383120 0.641640723 -0.138511865
v 0.153768805 0.706336260 -0.154169723
v -0.203510688 0.723514080 -0.050416462
v -0.047700336 0.787925541 0.164711423
v -0.059330301 0.762029767 0.164834881
v -0.201654592 0.749168396 -0.053302922
v -0.067398671 0.735835373 0.165324410
v 0.074776223 0.751641870 -0.218392433
v 0.182317868 0.692422092 -0.113436175
v -0.204728163 0.764220715 -0.027621583
v 0.039668569 0.618588626 -0.228998382
v 0.032932166 0.598614216 -0.230544464
v 0.192547355 0.632975519 -0.103753790
v -0.206944837 0.738107264 -0.022529927
v 0.066111870 0.573624313 -0.229414072
v 0.193125397 0.952752292 -0.072190944
v 0.202039525 0.657875955 -0.086905727
v 0.055138131 0.599971592 -0.228837479
v -0.208991003 0.756457567 0.001478289
v 0.060796083 0.635066092 -0.226576072
v 0.183011807 0.952752292 -0.088930958
v 0.080134730 0.605770230 -0.226665799
v 0.200128567 0.604003906 -0.094959864
v -0.201599063 0.568178356 -0.118476942
v -0.206829062 0.552233815 -0.090815739
v 0.211604497 0.652762949 -0.066536848
v -0.208587693 0.734446704 0.013803052
v -0.198927806 0.749564767 0.031782789
v 0.196407734 0.708781183 -0.090941131
v -0.161746762 0.830678999 0.080742143
v -0.150676927 0.952320576 0.085607850
v -0.192746283 0.722545564 0.043484890
v 0.208173407 0.701033235 -0.067241196
v -0.183674444 0.745292187 0.055133100
v -0.170295320 0.808681846 0.070060303
v 0.204444708 0.706853151 -0.019471279
v -0.174419524 0.723387063 0.070338937
v 0.184096067 0.865673423 -0.095144771
v -0.162882439 0.783138335 0.082819073
v -0.179578194 0.788500488 0.057936954
v 0.201237569 0.696904123 0.005342535
v -0.173917628 0.765562892 0.067945269
v 0.205088201 0.629008293 0.004842127
v 0.201928705 0.646259010 0.019365290
v -0.169448786 0.744344234 0.076077321
v -0.158127980 0.729859471 0.093763796
v -0.189186839 0.768654704 0.045310678
v -0.127713230 0.747940898 0.135410332
v -0.194783972 0.791025460 0.035134083
v -0.187111815 0.811659515 0.045163808
v 0.197601767 0.691171050 0.030822640
v 0.194601819 0.656776071 0.060747479
v -0.153043670 0.804075420 0.095184477
v -0.203502462 0.772118211 0.021645582
v -0.141839965 0.653088391 0.123361488
v -0.202345555 0.812425256 0.019905481
v 0.198167405 0.664735794 0.036838397
v -0.204439229 0.831852496 -0.004216753
v 0.186464406 0.652855277 0.083719794
v -0.203004776 0.789783061 -0.029669353
v 0.184968070 0.702353358 0.080569720
v -0.206929058 0.779688716 -0.005538999
v -0.153561146 0.854101360 0.090149485
v -0.201507348 0.815526247 -0.030154550
v 0.186889306 0.606149733 0.086989755
v -0.155352444 0.902013361 0.083507013
v 0.107331144 0.749023736 -0.215355474
v -0.151025917 0.926525652 0.087426286
v -0.197341634 0.821815729 -0.053868314
v -0.196596649 0.761076570 -0.080113908
v -0.136625413 0.931421340 0.107088681
v 0.106687212 0.769396603 -0.214168143
v -0.174122983 0.952611029 0.052902289
v -0.192609653 0.749754548 -0.107962963
v 0.160357242 0.831885755 -0.132905473
v 0.187070588 0.915008962 -0.085856881
v -0.189504404 0.829850495 -0.097739299
v -0.162399961 0.952465832 0.069255049
v 0.163766612 0.696590781 0.102459314
v 0.171280380 0.952752292 -0.105295417
v -0.177493048 0.892304182 -0.127472769
v 0.147776736 0.713957787 0.114392114
v -0.186442761 0.768414140 -0.128327910
v -0.185981119 0.795143723 -0.124508227
v -0.184762212 0.821288943 -0.124543436
v 0.159548980 0.952752292 -0.121659862
v 0.162065442 0.759034753 0.099377653
v 0.147817508 0.952752292 -0.138024365
v -0.171274145 0.855830312 0.065119699
v 0.084154310 0.876993716 -0.209776625
v 0.130559800 0.702470124 0.129129172
v 0.136086115 0.952752292 -0.154388823
v 0.144013475 0.933298230 -0.145322230
v 0.164504201 0.595372140 0.108949333
v -0.165755139 0.926788509 0.066842317
v 0.079984031 0.853039324 -0.211656668
v -0.155694902 0.788808227 -0.158732733
v -0.121679833 0.897386014 -0.177857333
v -0.178828568 0.832882047 0.055743076
v 0.124354682 0.952752292 -0.170753286
v -0.135006394 0.788596153 -0.175816445
v 0.112623274 0.952752292 -0.187117735
v -0.095867669 0.795655072 -0.206913401
v 0.125870547 0.602958262 0.139360515
v -0.113238463 0.781365395 -0.194108760
v 0.113116529 0.936638951 -0.188079195
v 0.100891845 0.952752411 -0.203482195
v 0.121749229 0.679649949 0.137662758
v 0.114495371 0.652451456 0.145236260
v 0.166439152 0.790761888 -0.127918616
v -0.081601950 0.918333054 0.154960269
v -0.100276251 0.822529137 -0.201373780
v -0.094033133 0.769345939 -0.210354989
v -0.112791378 0.927123845 -0.182742412
v 0.154544310 0.810954273 -0.143156820
v 0.099233343 0.678003907 0.155780119
v -0.071206235 0.780892551 -0.224012714
v 0.054625071 0.525030434 -0.232814380
v -0.027538373 0.790940642 -0.224889409
v 0.034695305 0.525066316 -0.234280484
v 0.014765512 0.525102198 -0.235746586
v -0.041252194 0.772990823 -0.226753109
v 0.077678688 0.662765265 0.172355279
v 0.093563710 0.643335402 0.162572891
v -0.005164247 0.525138080 -0.237212685
v 0.087918794 0.613235354 0.169006116
v -0.035488466 0.842261136 -0.222772092
v -0.054521248 0.910350978 0.158025887
v -0.073374846 0.893371761 0.156998017
v -0.025094014 0.525174022 -0.238678772
v 0.079153122 0.692656159 0.170067798
v -0.025885166 0.815896332 -0.223455904
v 0.057031705 0.699171007 0.175361021
v 0.068626259 0.633889556 0.177060972
v -0.045023799 0.525209904 -0.240144870
v -0.107922992 0.809836328 0.157690119
v -0.108509092 0.789465368 0.158633266
v -0.004525767 0.793455839 -0.223062144
v -0.064705998 0.525246620 -0.240811409
v 0.009689933 0.857561707 -0.218281443
v -0.014152956 0.770450532 -0.224980481
v -0.083125722 0.525287986 -0.237401095
v -0.098739180 0.525339305 -0.224928565
v -0.114352623 0.525390565 -0.212456060
v -0.144153468 0.773074687 0.110284119
v -0.126272003 0.773877919 0.135182393
v 0.000848707 0.658419669 0.174141595
v 0.005687613 0.634638131 0.175455538
v -0.129966089 0.525441885 -0.199983517
v -0.145579568 0.525493205 -0.187510981
v -0.129623403 0.697713554 0.137081179
v -0.018739652 0.647911370 0.173119239
v -0.043570233 0.664435089 0.170622370
v -0.161193026 0.525544524 -0.175038451
v 0.014339748 0.833743155 -0.219288981
v -0.009457485 0.698899090 0.171752362
v -0.176806475 0.525595784 -0.162565936
v -0.147752140 0.682004392 0.112540298
v -0.070978625 0.663131714 0.168523174
v -0.133667167 0.630357385 0.136972484
v -0.009285075 0.837311268 -0.221107549
v -0.075533181 0.607371569 0.170554033
v -0.158147140 0.654916942 0.099297627
v -0.018448755 0.744050443 0.169272166
v -0.134588792 0.590242624 0.138665597
v -0.150709024 0.594436884 0.114700463
v 0.036153256 0.866971493 -0.215106681
v 0.016843931 0.880514264 -0.216172003
v -0.161639241 0.704196632 0.090516188
v 0.033705321 0.894556940 -0.213653809
v 0.168012845 0.872029543 -0.118061195
v -0.192419948 0.525647104 -0.150093411
v -0.002134405 0.723601520 0.171298660
v -0.166945486 0.600453734 0.090429502
v -0.179550278 0.699697971 0.064568493
v 0.173074537 0.845646620 -0.113208358
v -0.168011105 0.631069899 0.086593680
v -0.174616287 0.656320691 0.075027602
v -0.163365902 0.879155993 0.074295338
v 0.167996843 0.613492131 -0.141619291
v -0.145195797 0.878181577 0.099746609
v 0.021798943 0.729459524 0.172828702
v -0.181747809 0.636864960 0.066007189
v 0.198066880 0.862272978 -0.069963430
v -0.201731991 0.525646687 -0.133980155
v -0.128448611 0.722607613 0.136571656
v 0.183611606 0.603910983 -0.119518051
v -0.207747941 0.525542200 -0.094469282
v -0.203806500 0.668964863 0.030644366
v 0.178647034 0.627042949 -0.124732984
v -0.210754814 0.525489986 -0.074713221
v -0.191523807 0.652467430 0.050504533
v 0.040316270 0.714303792 0.174731545
v 0.046009131 0.740494072 0.173887377
v 0.192812312 0.887685359 -0.079255770
v -0.213761692 0.525437713 -0.054957124
v -0.195938592 0.695007741 0.040722231
v -0.216768570 0.525385499 -0.035201054
v -0.205768710 0.643081129 0.029595941
v -0.219775449 0.525333285 -0.015444984
v -0.222782331 0.525281012 0.004311093
v -0.208999682 0.689922035 0.019381987
v -0.214738412 0.653774858 0.005137113
v -0.216489124 0.525119245 0.021954022
v 0.068731799 0.724176407 0.172632770
v -0.213141541 0.676287174 0.000168085
v -0.206050977 0.524908781 0.038655155
v -0.194805243 0.524688721 0.055172784
v 0.213086320 0.594970882 -0.072287104
v -0.211522911 0.698487222 -0.003260955
v 0.107857474 0.733552814 0.145264309
v 0.211986718 0.615300655 -0.072388561
v 0.192946985 0.927037179 -0.026406681
v -0.183559508 0.524468660 0.071690396
v -0.215834267 0.631234169 0.007956975
v -0.172313788 0.524248660 0.088208033
v 0.193647851 0.932480156 -0.069628542
v -0.161068060 0.524028659 0.104725657
v -0.149822347 0.523808599 0.121243292
v 0.128117790 0.726738811 0.129497905
v 0.198785289 0.883615017 -0.053302308
v -0.138576612 0.523588538 0.137760903
v -0.127330887 0.523368537 0.154278527
v -0.207785254 0.711120784 -0.026806611
v -0.116085171 0.523148477 0.170796161
v -0.211010503 0.662232459 -0.023355621
v 0.214706820 0.608525991 -0.051131276
v 0.198761287 0.859504580 -0.038004689
v 0.146265595 0.740405798 0.113738563
v -0.205099056 0.697497606 -0.049421637
v -0.208192032 0.646025240 -0.047779423
v -0.206458392 0.672032177 -0.049732957
v 0.057257229 0.723215342 -0.221858174
v 0.211507487 0.601608753 -0.027475926
v 0.180616169 0.757103741 0.080963162
v 0.196572428 0.905372381 -0.040569385
v 0.117095650 0.772020340 -0.199380548
v 0.043071057 0.747068942 -0.221787352
v 0.158737243 0.729804933 -0.144745219
v -0.145029729 0.712205529 0.114216612
v 0.169342779 0.728300691 0.095586108
v -0.203384616 0.657348871 -0.075280511
v -0.197385228 0.702230930 -0.096530947
v -0.198682679 0.799548984 -0.053760047
v 0.207246141 0.605044127 -0.000609079
v -0.199738446 0.645957947 -0.102680052
v 0.062590524 0.922800601 0.164351408
v 0.187671698 0.731593072 0.070304120
v -0.198155830 0.674126625 -0.102021046
v -0.192118027 0.692314506 -0.124849383
v -0.181965331 0.711356699 -0.142667542
v 0.204590959 0.591929436 0.021728233
v 0.192923614 0.711304903 0.051563531
v -0.195196283 0.633617938 -0.128690635
v -0.190528058 0.804103673 -0.100874661
v 0.195695716 0.881875038 -0.026574758
v -0.127230877 0.952030003 0.118313422
v 0.193013595 0.738472641 0.041224198
v 0.197259308 0.746888816 0.012713201
v 0.005070533 0.814400494 -0.221254384
v 0.032036403 0.816341341 -0.218618961
v 0.202534005 0.618377030 0.025595590
v -0.191248322 0.662596285 -0.133641590
v 0.201960979 0.578001082 0.044180561
v 0.196940903 0.717693806 0.025144734
v 0.080866858 0.952776313 -0.205447664
v 0.060841853 0.952800035 -0.207413142
v 0.193738311 0.860036552 -0.006964668
v -0.085044331 0.755800426 0.162603565
v 0.040816857 0.952823699 -0.209378617
v -0.143712441 0.740831673 0.113681903
v 0.200469385 0.720913827 0.001606825
v 0.202499898 0.735150218 -0.017016479
v 0.020791866 0.952847421 -0.211344088
v 0.191114251 0.887742043 -0.001275075
v -0.178870838 0.639161766 -0.151929052
v 0.000766873 0.952871084 -0.213309560
v -0.004381468 0.927215338 -0.215390114
v -0.169276869 0.809591830 -0.145611917
v -0.019258120 0.952894866 -0.215275032
v -0.039283081 0.952918530 -0.217240502
v 0.207307426 0.721020997 -0.043564917
v -0.155180054 0.705509126 -0.166012185
v -0.144312934 0.816747010 -0.165822794
v -0.121997164 0.834568977 -0.182764832
v -0.166604835 0.659843445 -0.160345566
v 0.188300910 0.871049762 0.021563329
v 0.186110050 0.930904090 0.013065149
v -0.160765073 0.590896189 -0.170470463
v -0.042957799 0.740267932 0.167485335
v 0.206100688 0.725461185 -0.071709690
v 0.025759537 0.791994393 -0.220711062
v -0.131569080 0.718647003 -0.184188267
v 0.182778534 0.924182296 0.035403836
v 0.008523827 0.774479628 -0.223098386
v -0.139065478 0.583960176 -0.188320523
v 0.194935808 0.732839882 -0.090810942
v -0.142681974 0.653417110 -0.180214278
v -0.115479442 0.651162684 -0.202107159
v 0.178831478 0.921573043 0.059083478
v -0.130246462 0.671252906 -0.188805122
v -0.111532432 0.705174625 -0.201201386
v 0.177444719 0.869639516 0.072726047
v -0.111014466 0.623463273 -0.207753849
v 0.088685588 0.631612718 -0.224394141
v 0.169622097 0.712140381 -0.130329783
v -0.058820360 0.952943146 -0.217606677
v -0.076176178 0.952971816 -0.210819820
v -0.091653535 0.717767715 -0.216130275
v -0.091230466 0.692089200 -0.218397305
v -0.092649934 0.665673375 -0.219248322
v -0.092933652 0.639457822 -0.220991277
v -0.056013484 0.826046526 -0.224133743
v -0.020050378 0.791599989 0.167142093
v 0.198928442 0.606534839 0.053165154
v -0.107216780 0.953036010 -0.185208655
v -0.122737071 0.953068137 -0.172403075
v 0.194720705 0.630633116 0.069925777
v 0.114414383 0.524922252 -0.228416113
v -0.138257382 0.953100264 -0.159597489
v 0.156445586 0.872395039 0.095869940
v -0.153777683 0.953132391 -0.146791890
v -0.169297993 0.953164518 -0.133986308
v -0.178733520 0.953164220 -0.117667993
v 0.189208128 0.756840646 0.057344216
v 0.170486831 0.928639412 0.077937800
v -0.182072296 0.953131557 -0.097830020
v -0.185400520 0.953098774 -0.077986004
v -0.188728746 0.953065991 -0.058141955
v 0.143597471 0.772579491 -0.162355285
v -0.192056972 0.953033268 -0.038297938
v 0.154445941 0.922628105 0.093911132
v -0.195385202 0.953000486 -0.018453882
v -0.070561367 0.626127422 -0.233936542
v 0.134616843 0.863852203 0.114475991
v 0.123200830 0.684118330 -0.199862829
v 0.109906870 0.667532325 -0.220104796
v 0.109262938 0.687905192 -0.218917465
v 0.196084789 0.929376364 -0.048021854
v -0.070081749 0.652439594 -0.232139417
v 0.108619006 0.708278000 -0.217730135
v -0.067657724 0.705826759 -0.229960164
v 0.120924444 0.707110882 -0.200684464
v 0.107975075 0.728650928 -0.216542804
v -0.198713424 0.952967703 0.001390129
v 0.204502817 0.751510859 -0.036239440
v 0.135047669 0.924530327 0.109763805
v -0.046114367 0.637372911 -0.234211686
v -0.195931489 0.952889323 0.019816891
v -0.185846026 0.952756286 0.036549502
v 0.113310797 0.907511353 0.128902800
v 0.137059017 0.861246586 -0.162399095
v -0.068646785 0.678995788 -0.230950965
v -0.039601184 0.721846521 -0.229337013
v 0.117699758 0.933395207 0.123426519
v -0.043707655 0.664236188 -0.232635240
v 0.114661595 0.852725089 0.131723361
v -0.020185422 0.648119926 -0.231854842
v -0.110267080 0.728352427 0.161462110
v -0.179928560 0.929236174 0.046783360
v 0.082417981 0.933156490 0.152499088
v 0.086115032 0.910837531 0.151029800
v 0.099552423 0.930352807 0.138603155
v 0.000818851 0.631696701 -0.231170966
v -0.016095998 0.674418688 -0.230171296
v 0.008683467 0.657589972 -0.229230659
v -0.049101152 0.619168162 0.172035808
v -0.014283379 0.700995326 -0.228640850
v 0.137907441 0.911317050 -0.156089904
v 0.013720020 0.683407903 -0.227502611
v 0.121106079 0.900679588 -0.180615517
v 0.056895459 0.849378288 -0.214149251
v 0.059163790 0.880001843 -0.212046639
v 0.166371771 0.621404648 0.105709003
v 0.130061481 0.631413043 0.134155192
v 0.045909181 0.667711973 -0.225956653
v 0.040047835 0.699320018 -0.224726984
v -0.091696476 0.953003883 -0.198014227
v 0.099674242 0.866362631 0.143035717
v 0.078984126 0.864781678 0.159813793
v -0.202566521 0.545475602 -0.121227109
v 0.104847856 0.592304349 0.156870105
v 0.109261591 0.622466087 0.151375410
v -0.204741067 0.525594473 -0.114225344
v 0.065858406 0.890558541 0.164937715
v 0.069051140 0.546053529 -0.230646762
v 0.074554810 0.524994493 -0.231348292
v -0.091917847 0.582452595 0.170291186
v 0.094484606 0.524958670 -0.229882206
v -0.103815603 0.952432513 0.151079482
v 0.149746835 0.899444401 -0.140790231
v -0.115507857 0.951884806 0.134666180
v -0.128408110 0.571335614 0.149131159
v 0.061515138 0.605080068 0.179541837
v -0.061147930 0.933034420 0.156259282
v 0.001304249 0.551882744 0.178462124
v -0.014814969 0.569243193 0.176574307
v 0.029685756 0.567537189 0.179926152
v 0.140309654 0.832157373 -0.160842549
v 0.056735589 0.575901568 0.180852833
v -0.039042264 0.571828544 0.174682841
v 0.160712040 0.569054186 0.113699158
v 0.051311558 0.856429040 0.169054354
v 0.037391084 0.878669143 0.167839548
v 0.140062790 0.895374954 0.107723577
v 0.033802231 0.595022082 0.179122941
v 0.169154058 0.898625493 0.081591178
v 0.182484071 0.890749991 0.049225457
v -0.037519792 0.929558218 0.158762100
v 0.008049655 0.608232975 0.176692316
v 0.036429892 0.626368940 0.177996641
v 0.186655208 0.902057171 0.020213668
v 0.189787761 0.916513503 -0.003726169
v 0.007598930 0.581266046 0.177744197
v 0.193244348 0.903415024 -0.019661825
v 0.206780991 0.566025913 0.016776689
v 0.210869884 0.576684475 -0.014122811
v -0.020629059 0.619332790 0.174129805
v 0.216075641 0.578013659 -0.051102937
v 0.197029017 0.908508897 -0.063843360
v -0.017216322 0.592592359 0.175457594
v 0.035388792 0.683298349 0.175665373
v 0.083702923 0.582844257 0.174399736
v 0.122641188 0.574618876 0.143789165
v 0.143148798 0.584718108 0.126727697
v 0.193879330 0.684567988 0.055496746
v 0.208709538 0.690497935 -0.041620939
v -0.044942448 0.596269727 0.173264050
v 0.210863756 0.675760686 -0.065376692
v 0.196745887 0.584046066 0.073067254
v 0.181079923 0.578281045 0.096260053
v -0.062775746 0.638359964 0.170248765
v -0.093896810 0.663559675 0.166257047
v 0.013924772 0.888348997 0.165773118
v -0.013833737 0.927486360 0.161201727
v -0.086379762 0.686966598 0.165850035
v -0.061699826 0.809875131 0.162252598
v -0.078726440 0.782957613 0.161893873
v 0.130937203 0.574575901 -0.199635729
v -0.029009722 0.905268669 0.160794167
v 0.142070633 0.624517977 -0.178755823
v -0.062750511 0.872806072 0.159057148
v -0.044448484 0.886233568 0.160204541
v -0.085437296 0.872012615 0.156855744
v 0.142915977 0.551669776 -0.184084208
v 0.155482745 0.632798195 -0.158282868
v -0.008144129 0.768411636 0.169052164
v 0.143182080 0.685877681 0.120076822
v 0.191356590 0.800420225 0.028779635
v 0.160898149 0.551917136 -0.157614473
v 0.205529127 0.678730607 -0.016311017
v 0.196702690 0.777433574 -0.083250499
v 0.199108651 0.683683097 -0.089148008
v 0.180038498 0.552039146 -0.129452646
v 0.149325129 0.681423783 -0.162952685
v 0.136200956 0.749989808 -0.174985367
v 0.207267938 0.574996591 -0.086594852
v 0.198441624 0.551904082 -0.102342234
v 0.173349722 0.921740294 -0.105583545
v -0.005761416 0.903412998 0.163180600
v -0.014424761 0.875086248 0.163716688
v 0.215029266 0.550907195 -0.073705280
v -0.070631215 0.852214098 0.159290474
v -0.049865163 0.834853172 0.162194069
v 0.157843544 0.923047423 -0.127079698
v 0.216153302 0.550624371 -0.039434984
v 0.200298975 0.761675239 -0.012221040
v 0.122390082 0.820547938 -0.187027458
v 0.208294596 0.623026013 -0.014126998
v 0.211553373 0.549230337 -0.008561459
v 0.125152491 0.661439955 -0.199461974
v 0.208009894 0.543056667 0.017092583
v 0.129844224 0.774276376 -0.181366293
v 0.203788850 0.549933791 0.042430743
v 0.199958563 0.563384056 0.062691658
v -0.026870622 0.718823552 0.169665419
v 0.178570930 0.893091917 -0.100832594
v 0.163889827 0.897999167 -0.121209766
v 0.121852362 0.749679983 -0.195032294
v 0.192641488 0.558403432 0.085050245
v 0.206387510 0.633584082 -0.082308335
v 0.182448227 0.631396532 0.090852929
v 0.146484770 0.612350285 0.122259822
v 0.210886275 0.630913198 -0.034127282
v 0.213449930 0.633215785 -0.057306856
v 0.140233498 0.554842234 0.131005203
v 0.093505626 0.845797241 0.149434531
v 0.148606817 0.843066156 0.104437137
v 0.198577886 0.636662126 0.044374619
v 0.150251148 0.576490283 -0.171056871
v 0.101457995 0.558987737 0.161751274
v 0.005084842 0.747797012 0.170857674
v 0.169329216 0.648089588 0.101356948
v 0.150392983 0.639654160 0.117355599
v 0.180620416 0.647362292 -0.119997604
v 0.077804983 0.551915288 0.177689596
v 0.190217515 0.836730123 -0.088407068
v -0.109681286 0.748723388 0.160519544
v -0.112609075 0.646868229 0.165230130
v -0.038874160 0.638309956 0.172020097
v 0.050221406 0.549338162 0.181852288
v 0.201409317 0.840198159 -0.056260225
v -0.110852582 0.707981348 0.162404121
v -0.109095192 0.769094408 0.159576411
v 0.025362537 0.543762922 0.180563853
v -0.079679765 0.830166519 0.159480226
v -0.107336892 0.830207288 0.156746973
v 0.038545305 0.905458272 0.166916480
v -0.027474172 0.548666358 0.176468325
v 0.037276689 0.931595623 0.165652187
v 0.176750493 0.550998926 0.102045989
v 0.026361703 0.751492679 0.172278748
v 0.127113967 0.927046716 -0.169535776
v -0.056444564 0.549349546 0.174303452
v 0.151626961 0.877580047 -0.140405830
v -0.087028077 0.553337991 0.171880031
v -0.065957159 0.576723397 0.172499558
v 0.136988003 0.801257789 -0.168639174
v -0.087530267 0.807723224 0.159807817
v -0.088882112 0.634883583 0.168155124
v -0.113194562 0.626497209 0.166172115
v -0.111438077 0.687610328 0.163346120
v 0.199813832 0.543502927 0.069229706
v -0.112023571 0.667239308 0.164288119
v 0.169683741 0.581617773 -0.142013697
v 0.172878196 0.738905907 -0.123126305
v 0.186218995 0.755012274 -0.102052244
v 0.087277480 0.743858516 0.161054852
v 0.016088001 0.704511762 0.173411216
v 0.092366877 0.713846862 0.158938336
v 0.189756071 0.577509284 -0.112862743
v 0.158858196 0.544668257 0.116770100
f 555 540 123
f 389 162 497
f 567 540 568
f 583 104 251
f 463 489 430
f 453 94 255
f 483 484 162
f 446 640 671
f 574 577 251
f 50 244 238
f 52 244 50
f 575 57 53
f 55 249 52
f 55 2 250
f 577 248 563
f 575 437 432
f 57 597 589
f 2 265 262
f 589 592 57
f 262 259 2
f 5 267 262
f 602 606 589
f 5 9 11
f 58 606 610
f 11 272 5
f 12 278 11
f 565 793 8
f 630 60 632
f 13 425 12
f 424 289 160
f 289 424 13
f 643 649 60
f 181 403 179
f 483 206 484
f 163 651 174
f 53 563 558
f 651 65 650
f 163 389 384
f 683 66 65
f 455 558 563
f 165 384 171
f 340 331 34
f 67 66 683
f 206 470 63
f 385 102 856
f 67 702 70
f 344 340 696
f 179 403 406
f 710 70 702
f 16 352 14
f 111 112 59
f 63 64 655
f 18 368 16
f 710 742 753
f 119 112 111
f 394 671 545
f 551 922 903
f 19 375 18
f 753 740 711
f 406 470 179
f 261 615 108
f 545 453 439
f 178 386 530
f 24 386 23
f 72 753 742
f 26 396 24
f 768 765 72
f 119 142 112
f 32 63 470
f 112 142 161
f 399 400 396
f 154 343 182
f 545 671 448
f 399 415 400
f 768 770 765
f 32 406 410
f 418 415 399
f 770 183 777
f 387 300 166
f 415 418 422
f 105 86 299
f 169 42 839
f 170 142 119
f 173 172 705
f 329 638 343
f 134 738 737
f 185 638 329
f 692 661 145
f 150 74 741
f 637 345 873
f 132 145 661
f 170 184 142
f 138 495 760
f 138 136 188
f 136 194 188
f 201 87 194
f 270 87 205
f 216 49 210
f 46 216 724
f 198 184 170
f 43 96 907
f 219 39 218
f 45 43 41
f 224 37 219
f 498 224 514
f 86 105 342
f 225 36 514
f 378 107 110
f 80 233 107
f 22 41 43
f 198 217 849
f 41 581 45
f 103 233 76
f 76 40 103
f 222 217 214
f 678 100 40
f 98 41 22
f 366 41 98
f 40 76 678
f 215 4 284
f 215 98 21
f 537 536 92
f 222 234 217
f 904 537 92
f 460 462 30
f 284 471 366
f 222 239 246
f 586 903 759
f 462 28 30
f 246 234 222
f 454 449 28
f 237 391 924
f 560 319 921
f 246 888 252
f 431 471 282
f 455 560 391
f 319 560 241
f 50 238 793
f 50 566 52
f 52 574 55
f 258 263 510
f 244 52 249
f 55 253 2
f 284 792 657
f 303 670 667
f 303 100 674
f 250 249 55
f 273 274 252
f 251 253 574
f 100 303 301
f 301 570 100
f 104 261 257
f 677 100 678
f 273 285 274
f 257 2 253
f 2 257 265
f 250 2 259
f 570 568 40
f 752 292 293
f 294 296 285
f 285 296 274
f 684 497 679
f 277 274 296
f 440 447 442
f 579 489 463
f 692 329 695
f 259 262 267
f 871 736 360
f 262 271 9
f 40 100 570
f 570 567 568
f 203 128 270
f 310 296 294
f 305 296 310
f 87 270 194
f 9 5 262
f 5 272 600
f 276 9 271
f 9 276 11
f 272 11 278
f 302 323 310
f 568 103 40
f 108 615 89
f 280 11 276
f 11 280 12
f 103 568 540
f 278 12 425
f 323 337 328
f 283 12 280
f 12 283 13
f 283 297 289
f 289 13 283
f 540 561 231
f 425 13 424
f 209 288 205
f 291 125 286
f 346 337 323
f 49 304 288
f 173 350 351
f 297 654 314
f 347 158 864
f 304 47 311
f 47 304 49
f 47 46 481
f 360 361 855
f 501 684 146
f 481 311 47
f 46 39 481
f 343 695 329
f 314 289 297
f 289 314 160
f 481 321 308
f 481 39 321
f 325 122 321
f 325 321 37
f 37 321 39
f 333 160 314
f 324 266 333
f 527 107 231
f 84 121 325
f 36 327 498
f 160 333 34
f 327 120 84
f 36 82 371
f 277 393 390
f 689 34 333
f 34 689 340
f 313 34 331
f 266 334 689
f 334 260 341
f 340 335 331
f 107 527 110
f 54 404 405
f 696 14 344
f 61 401 44
f 38 299 407
f 358 14 348
f 14 358 16
f 344 14 352
f 356 704 712
f 352 16 368
f 413 62 417
f 370 16 358
f 16 370 18
f 175 705 134
f 713 115 110
f 371 27 378
f 27 371 82
f 381 18 370
f 18 381 19
f 368 18 375
f 80 378 27
f 19 381 235
f 19 395 23
f 19 23 178
f 202 506 913
f 23 395 24
f 386 24 396
f 398 24 395
f 24 398 26
f 26 398 220
f 26 412 399
f 396 26 399
f 418 399 412
f 164 180 444
f 444 443 164
f 175 173 705
f 685 84 120
f 422 300 415
f 685 121 84
f 172 169 300
f 172 300 422
f 78 80 27
f 226 365 78
f 89 615 114
f 240 485 309
f 134 737 175
f 226 27 82
f 245 459 452
f 187 186 140
f 243 459 245
f 189 187 130
f 581 466 579
f 467 472 637
f 308 122 240
f 138 579 466
f 430 255 463
f 499 435 430
f 453 430 435
f 435 440 439
f 435 499 450
f 243 479 281
f 308 321 122
f 897 438 584
f 439 453 435
f 243 281 893
f 450 440 435
f 480 859 865
f 440 449 447
f 442 439 440
f 450 449 440
f 447 449 454
f 492 488 493
f 127 458 456
f 449 456 28
f 82 225 708
f 454 28 462
f 28 456 30
f 456 450 127
f 30 456 458
f 225 82 36
f 30 464 460
f 506 507 502
f 126 469 125
f 287 508 509
f 207 507 506
f 410 460 32
f 126 306 477
f 460 464 644
f 644 32 460
f 32 644 63
f 475 31 576
f 470 406 32
f 64 63 644
f 306 309 477
f 125 464 458
f 528 795 511
f 516 523 524
f 655 206 63
f 206 655 484
f 206 474 470
f 162 679 497
f 316 322 822
f 313 160 34
f 37 498 325
f 523 316 534
f 497 684 501
f 501 146 505
f 146 512 503
f 505 503 513
f 263 515 510
f 512 120 115
f 503 512 91
f 517 513 503
f 115 713 91
f 458 203 125
f 315 547 548
f 91 512 115
f 547 330 336
f 91 713 88
f 517 88 522
f 552 548 547
f 532 88 713
f 88 532 519
f 552 336 553
f 522 519 541
f 527 231 561
f 127 128 458
f 538 660 692
f 514 36 498
f 224 498 37
f 538 692 695
f 114 626 631
f 553 342 105
f 219 37 39
f 555 660 561
f 127 450 499
f 891 199 824
f 660 555 661
f 218 39 46
f 199 97 886
f 366 98 284
f 22 21 98
f 41 366 581
f 43 232 22
f 907 232 43
f 96 536 907
f 45 463 255
f 45 581 463
f 255 94 96
f 255 96 45
f 94 453 545
f 448 546 545
f 582 593 594
f 595 584 438
f 216 46 47
f 216 47 49
f 551 640 558
f 558 640 569
f 49 288 209
f 793 565 50
f 569 53 558
f 566 50 565
f 209 210 49
f 841 351 350
f 574 52 566
f 578 53 57
f 612 609 423
f 53 578 563
f 575 53 569
f 597 432 211
f 253 55 574
f 57 575 597
f 578 57 592
f 592 583 578
f 627 609 612
f 584 621 628
f 603 589 606
f 602 589 597
f 634 819 627
f 610 606 602
f 835 318 229
f 626 606 58
f 610 624 58
f 58 624 630
f 632 58 630
f 634 884 869
f 58 632 626
f 60 642 632
f 642 60 649
f 60 630 181
f 650 649 643
f 662 652 645
f 656 628 621
f 621 636 656
f 658 659 204
f 64 644 469
f 466 495 138
f 694 377 700
f 468 471 431
f 663 650 65
f 628 656 668
f 679 162 484
f 65 686 663
f 672 673 659
f 686 65 66
f 683 65 651
f 468 431 478
f 683 693 67
f 685 146 684
f 146 685 512
f 696 340 689
f 66 67 701
f 473 495 478
f 66 698 686
f 702 67 693
f 668 675 687
f 701 698 66
f 405 690 54
f 701 67 70
f 54 690 564
f 14 696 348
f 711 70 710
f 699 70 711
f 702 709 710
f 229 318 236
f 657 282 471
f 710 709 742
f 753 756 740
f 756 753 72
f 742 754 72
f 72 754 768
f 72 765 756
f 766 765 770
f 490 193 496
f 130 772 496
f 770 776 766
f 15 719 168
f 87 201 148
f 183 770 768
f 201 194 136
f 422 705 172
f 633 777 338
f 777 633 150
f 408 74 633
f 638 185 408
f 106 730 258
f 688 379 694
f 275 631 118
f 185 692 145
f 197 750 749
f 736 737 738
f 263 258 730
f 738 741 743
f 185 145 143
f 743 741 744
f 744 741 74
f 744 467 879
f 132 140 145
f 123 132 661
f 741 738 150
f 123 540 567
f 773 772 567
f 738 134 150
f 78 27 226
f 238 623 1
f 264 279 779
f 776 150 134
f 134 705 420
f 695 541 538
f 104 599 261
f 365 681 680
f 761 762 763
f 365 678 76
f 76 78 365
f 411 156 420
f 156 411 220
f 541 519 538
f 220 764 156
f 76 233 78
f 80 78 233
f 168 789 387
f 70 699 701
f 398 395 228
f 434 437 445
f 779 780 887
f 428 432 434
f 926 317 706
f 197 749 745
f 213 6 4
f 279 785 780
f 419 427 428
f 148 201 745
f 454 462 419
f 526 782 783
f 381 734 235
f 410 414 419
f 493 769 913
f 511 4 215
f 4 511 213
f 406 414 410
f 208 731 729
f 21 511 215
f 210 728 727
f 794 800 823
f 511 21 529
f 470 474 179
f 724 218 46
f 227 110 115
f 118 280 275
f 219 218 722
f 806 800 794
f 803 804 256
f 716 778 225
f 224 219 720
f 407 86 690
f 356 734 381
f 389 497 380
f 809 795 528
f 810 806 811
f 717 716 514
f 497 501 380
f 317 697 429
f 810 818 821
f 913 771 202
f 341 698 699
f 373 376 159
f 369 177 373
f 341 260 698
f 260 334 266
f 365 226 681
f 517 522 354
f 828 821 818
f 354 362 364
f 569 640 446
f 519 522 88
f 767 828 818
f 266 324 676
f 602 597 211
f 804 834 256
f 121 240 122
f 345 868 918
f 610 602 211
f 169 839 166
f 427 195 211
f 643 179 174
f 683 651 165
f 693 683 171
f 627 884 634
f 324 654 676
f 846 397 841
f 841 397 374
f 362 709 369
f 580 397 846
f 192 188 190
f 192 499 489
f 128 192 190
f 270 205 203
f 205 288 286
f 291 306 126
f 208 148 733
f 288 304 291
f 304 311 306
f 311 481 308
f 286 125 203
f 283 118 297
f 589 599 592
f 283 280 118
f 227 115 120
f 747 805 732
f 707 226 82
f 107 378 80
f 275 114 631
f 118 646 297
f 89 114 275
f 231 233 103
f 87 209 205
f 816 872 870
f 271 108 89
f 248 560 455
f 248 241 560
f 108 271 265
f 566 565 241
f 86 876 690
f 622 244 619
f 517 91 88
f 574 566 248
f 715 662 889
f 244 249 618
f 249 250 614
f 882 465 718
f 253 251 257
f 774 465 882
f 250 259 608
f 883 494 774
f 921 391 560
f 259 267 604
f 54 564 847
f 251 577 583
f 600 267 5
f 89 276 271
f 503 91 517
f 690 405 407
f 275 276 89
f 892 573 582
f 272 278 596
f 248 577 574
f 280 276 275
f 425 588 591
f 425 424 781
f 781 313 572
f 424 313 781
f 572 585 781
f 314 654 324
f 136 197 201
f 313 557 572
f 237 551 558
f 554 331 335
f 334 341 348
f 760 136 138
f 335 344 549
f 341 699 704
f 348 696 334
f 921 319 7
f 358 348 704
f 344 352 544
f 912 582 594
f 903 586 551
f 352 368 543
f 381 370 356
f 368 375 539
f 788 8 3
f 535 375 178
f 221 795 809
f 828 767 562
f 559 833 920
f 921 920 899
f 546 448 898
f 903 922 836
f 38 903 299
f 235 228 395
f 405 669 407
f 546 92 94
f 400 518 520
f 92 546 904
f 639 35 926
f 386 396 525
f 927 926 33
f 928 605 930
f 200 490 298
f 94 545 546
f 96 92 536
f 927 56 852
f 143 472 408
f 220 412 26
f 400 520 521
f 412 220 411
f 109 113 152
f 920 832 559
f 418 412 411
f 152 113 746
f 387 789 786
f 420 418 411
f 746 161 867
f 418 420 422
f 490 773 298
f 496 772 773
f 394 442 445
f 562 767 832
f 739 636 820
f 204 725 658
f 773 490 496
f 725 223 635
f 447 454 428
f 472 186 637
f 215 284 98
f 189 130 496
f 458 464 30
f 410 462 460
f 125 469 464
f 635 247 487
f 487 269 629
f 641 487 629
f 268 269 487
f 269 393 629
f 390 269 268
f 469 126 64
f 349 761 763
f 655 64 477
f 303 674 670
f 290 393 277
f 611 290 928
f 163 474 483
f 928 307 605
f 635 641 648
f 531 605 533
f 677 674 100
f 477 309 485
f 506 202 207
f 679 485 240
f 240 121 684
f 312 912 594
f 684 679 240
f 121 685 684
f 186 187 345
f 503 505 146
f 912 332 892
f 772 130 132
f 685 120 512
f 501 505 159
f 725 648 658
f 505 513 373
f 513 517 364
f 892 847 564
f 110 527 713
f 714 847 339
f 522 541 154
f 51 714 346
f 231 103 540
f 714 51 404
f 541 695 343
f 567 772 123
f 502 500 506
f 578 577 563
f 867 659 673
f 577 578 583
f 597 575 432
f 592 104 583
f 913 492 493
f 845 167 839
f 599 104 592
f 386 178 23
f 599 603 615
f 110 227 378
f 615 261 599
f 706 402 639
f 603 626 114
f 132 123 772
f 624 610 195
f 409 706 317
f 746 673 682
f 114 615 603
f 120 327 227
f 624 414 403
f 691 429 697
f 642 631 632
f 642 118 631
f 429 433 853
f 646 118 642
f 642 649 646
f 152 682 691
f 682 433 691
f 181 643 60
f 654 297 646
f 122 325 121
f 140 130 187
f 421 416 617
f 123 661 555
f 309 308 240
f 698 260 686
f 702 693 177
f 698 701 699
f 672 441 436
f 291 126 125
f 109 691 697
f 143 140 186
f 874 872 816
f 665 441 672
f 188 192 489
f 665 658 653
f 712 704 699
f 653 451 665
f 927 697 317
f 712 740 734
f 648 461 653
f 178 375 19
f 923 880 116
f 641 461 648
f 740 756 748
f 748 758 228
f 926 706 639
f 479 641 482
f 754 742 362
f 354 754 362
f 407 669 38
f 203 458 128
f 482 629 620
f 756 765 758
f 182 754 154
f 128 127 192
f 254 246 252
f 611 382 620
f 764 398 228
f 499 192 127
f 764 766 156
f 766 776 156
f 930 611 928
f 420 156 776
f 140 132 130
f 788 7 8
f 387 166 168
f 420 776 134
f 136 760 197
f 300 387 415
f 750 197 760
f 745 201 197
f 148 208 209
f 733 148 745
f 258 35 106
f 593 533 605
f 731 208 733
f 236 318 910
f 729 210 208
f 728 210 729
f 727 216 210
f 188 489 579
f 929 573 556
f 724 216 727
f 573 929 582
f 723 218 724
f 722 218 723
f 720 219 722
f 717 224 720
f 514 224 717
f 188 579 138
f 876 556 573
f 707 681 226
f 898 904 546
f 472 143 186
f 212 795 221
f 899 391 921
f 854 925 931
f 213 795 212
f 140 143 145
f 404 54 714
f 833 922 924
f 415 387 786
f 143 408 185
f 238 3 793
f 1 3 238
f 31 799 752
f 622 238 244
f 918 799 515
f 380 376 171
f 915 752 357
f 617 476 421
f 619 244 618
f 618 249 616
f 616 249 614
f 636 739 613
f 388 613 10
f 614 250 608
f 357 791 915
f 383 688 388
f 608 259 607
f 571 438 576
f 295 667 666
f 92 96 94
f 607 259 604
f 372 726 700
f 667 295 303
f 367 726 372
f 604 267 601
f 298 295 207
f 923 875 880
f 363 732 367
f 408 467 74
f 148 209 87
f 298 301 295
f 359 747 363
f 601 267 600
f 359 355 755
f 600 272 598
f 598 272 596
f 353 755 355
f 301 298 773
f 596 278 591
f 747 755 751
f 591 278 425
f 588 425 781
f 388 688 813
f 769 771 913
f 763 353 349
f 202 771 200
f 506 500 913
f 74 467 744
f 773 570 301
f 82 708 707
f 320 647 326
f 500 492 913
f 331 554 557
f 242 910 320
f 344 335 340
f 910 908 647
f 554 335 550
f 239 222 703
f 549 550 335
f 549 344 544
f 166 167 168
f 544 352 543
f 543 368 542
f 17 15 167
f 17 845 157
f 907 536 919
f 157 850 155
f 155 850 153
f 542 368 539
f 150 633 74
f 153 854 151
f 151 854 149
f 149 858 147
f 147 862 144
f 539 375 535
f 759 903 38
f 530 535 178
f 144 862 141
f 141 866 139
f 139 866 137
f 530 386 525
f 137 870 135
f 525 396 521
f 135 870 872
f 133 872 131
f 131 874 129
f 129 923 117
f 923 874 875
f 170 119 902
f 521 396 400
f 20 932 101
f 99 101 932
f 99 886 97
f 95 97 199
f 95 891 93
f 93 896 90
f 518 400 786
f 90 896 85
f 85 901 83
f 83 905 81
f 169 166 300
f 81 905 79
f 77 79 796
f 77 909 75
f 439 394 545
f 75 914 73
f 73 914 71
f 71 916 69
f 442 394 439
f 468 466 366
f 442 447 434
f 7 562 920
f 794 534 811
f 924 899 833
f 434 447 428
f 428 454 419
f 419 462 410
f 38 898 759
f 902 111 897
f 466 468 495
f 526 524 534
f 25 59 56
f 96 43 45
f 895 401 61
f 182 343 338
f 483 389 163
f 483 162 389
f 897 59 25
f 883 894 775
f 776 777 150
f 59 897 111
f 380 384 389
f 774 882 893
f 111 902 119
f 778 708 225
f 501 159 380
f 167 166 839
f 159 505 373
f 176 191 867
f 373 513 369
f 364 369 513
f 850 890 925
f 354 364 517
f 354 522 154
f 177 369 709
f 154 541 343
f 446 445 437
f 376 380 159
f 204 223 725
f 217 198 214
f 214 703 222
f 437 569 446
f 610 211 195
f 414 624 195
f 403 630 624
f 889 718 715
f 160 313 424
f 181 630 403
f 888 246 239
f 179 643 181
f 174 650 643
f 651 650 174
f 163 384 165
f 487 247 268
f 165 651 163
f 171 683 165
f 174 474 163
f 557 313 331
f 475 515 799
f 376 693 171
f 285 273 757
f 177 693 376
f 627 885 884
f 174 179 474
f 509 508 516
f 294 302 310
f 709 702 177
f 709 362 742
f 154 754 354
f 182 338 183
f 780 785 803
f 183 768 182
f 423 413 881
f 183 338 777
f 638 338 343
f 633 638 408
f 590 401 895
f 692 185 329
f 190 188 194
f 515 475 25
f 270 190 194
f 190 270 128
f 195 427 414
f 7 788 562
f 915 878 571
f 877 595 438
f 203 205 286
f 44 48 61
f 474 206 483
f 210 209 208
f 61 62 895
f 413 895 62
f 211 432 427
f 172 42 169
f 398 764 220
f 515 263 918
f 437 575 569
f 228 758 764
f 124 885 426
f 175 871 350
f 84 498 327
f 225 514 716
f 327 371 227
f 918 263 730
f 898 448 759
f 371 327 36
f 839 374 890
f 227 371 378
f 451 441 665
f 228 235 748
f 444 180 457
f 233 231 107
f 187 868 345
f 759 448 586
f 189 292 868
f 734 748 235
f 653 461 826
f 924 922 237
f 292 193 196
f 446 671 394
f 461 641 479
f 922 551 237
f 391 237 455
f 482 641 629
f 918 868 799
f 196 200 293
f 771 293 200
f 558 455 237
f 281 287 894
f 894 893 281
f 248 566 241
f 257 251 104
f 255 430 453
f 257 261 265
f 509 775 287
f 260 266 676
f 509 516 524
f 265 261 108
f 523 516 531
f 322 316 523
f 273 252 888
f 265 271 262
f 811 534 316
f 316 315 811
f 676 686 260
f 366 466 581
f 478 495 468
f 330 547 315
f 547 336 552
f 366 471 468
f 760 495 473
f 657 471 284
f 336 342 553
f 553 900 552
f 832 900 553
f 865 878 791
f 792 284 4
f 31 571 576
f 286 288 291
f 438 571 877
f 906 864 863
f 4 790 792
f 8 7 319
f 303 295 301
f 291 304 306
f 570 773 567
f 739 617 392
f 617 416 392
f 306 311 309
f 309 311 308
f 170 628 668
f 613 739 10
f 739 392 10
f 656 675 668
f 656 815 675
f 680 678 365
f 813 613 388
f 324 333 314
f 687 198 668
f 379 688 383
f 295 666 207
f 815 656 636
f 377 694 379
f 325 498 84
f 689 333 266
f 334 696 689
f 700 377 372
f 861 834 860
f 703 721 239
f 732 726 367
f 834 861 256
f 348 341 704
f 747 732 363
f 356 358 704
f 735 888 721
f 370 358 356
f 735 264 757
f 735 273 888
f 755 747 359
f 369 364 362
f 353 763 755
f 647 761 326
f 761 349 326
f 376 373 177
f 779 757 264
f 780 779 279
f 384 380 171
f 235 395 19
f 736 871 737
f 562 788 917
f 910 647 320
f 785 804 803
f 414 406 403
f 256 323 803
f 813 675 815
f 415 786 400
f 427 419 414
f 422 420 705
f 432 428 427
f 430 489 499
f 587 580 590
f 437 434 432
f 445 442 434
f 446 394 445
f 671 586 448
f 819 609 627
f 456 449 450
f 455 563 248
f 865 791 769
f 581 579 463
f 645 652 817
f 644 464 469
f 652 662 715
f 874 923 129
f 715 664 652
f 694 812 688
f 477 64 126
f 750 760 473
f 485 655 477
f 465 715 718
f 507 207 666
f 465 774 494
f 865 486 480
f 812 675 813
f 485 484 655
f 207 202 298
f 883 504 825
f 493 865 769
f 783 782 504
f 679 484 485
f 202 200 298
f 196 490 200
f 196 193 490
f 877 859 476
f 302 803 323
f 189 496 193
f 814 806 810
f 168 719 789
f 821 814 810
f 391 899 924
f 713 527 532
f 467 408 472
f 302 294 887
f 786 787 518
f 538 519 532
f 561 532 527
f 926 35 33
f 538 532 660
f 540 555 561
f 551 586 640
f 319 241 565
f 660 532 561
f 113 161 746
f 161 176 867
f 8 319 565
f 223 247 635
f 781 585 784
f 620 629 393
f 887 780 302
f 269 390 393
f 671 640 586
f 781 784 588
f 599 589 603
f 393 290 611
f 626 603 606
f 928 290 305
f 623 238 622
f 625 1 623
f 774 893 894
f 312 332 912
f 626 632 631
f 332 339 847
f 847 892 332
f 757 887 285
f 847 714 54
f 793 3 8
f 732 807 726
f 858 931 857
f 675 812 687
f 168 167 15
f 273 735 757
f 920 921 7
f 402 385 639
f 167 845 17
f 638 633 338
f 646 649 663
f 650 663 649
f 845 850 157
f 888 239 721
f 663 654 646
f 706 409 48
f 850 854 153
f 676 654 663
f 429 409 317
f 661 692 660
f 854 858 149
f 676 663 686
f 858 862 147
f 433 429 691
f 678 680 677
f 699 711 712
f 712 734 356
f 711 710 753
f 862 866 141
f 712 711 740
f 682 436 827
f 734 740 748
f 866 870 137
f 214 687 808
f 748 756 758
f 664 816 652
f 872 133 135
f 198 687 214
f 754 182 768
f 872 874 131
f 665 659 658
f 758 765 766
f 658 648 653
f 766 764 758
f 776 770 777
f 668 198 170
f 117 923 116
f 787 786 789
f 929 330 822
f 533 822 322
f 556 336 330
f 531 322 523
f 899 920 833
f 662 444 889
f 346 323 256
f 491 482 620
f 116 880 911
f 911 20 116
f 382 491 620
f 911 932 20
f 932 886 99
f 645 443 662
f 930 382 611
f 382 930 516
f 886 824 199
f 605 531 930
f 491 508 848
f 628 170 902
f 256 347 346
f 482 848 479
f 891 896 93
f 347 256 861
f 820 617 739
f 866 819 817
f 605 594 593
f 896 901 85
f 929 593 582
f 612 881 885
f 901 905 83
f 826 451 653
f 451 457 180
f 672 659 665
f 441 180 851
f 79 905 796
f 436 673 672
f 436 851 827
f 909 914 75
f 682 673 436
f 914 916 71
f 584 902 897
f 876 86 342
f 69 916 1
f 829 433 827
f 700 808 694
f 788 3 916
f 853 829 417
f 409 61 48
f 402 48 855
f 870 817 816
f 855 29 360
f 874 816 664
f 385 361 102
f 830 880 875
f 576 897 25
f 819 634 817
f 68 69 1
f 106 856 730
f 743 736 738
f 910 242 236
f 862 857 819
f 744 879 102
f 880 830 831
f 840 528 843
f 401 846 44
f 803 302 780
f 769 791 357
f 878 915 791
f 831 911 880
f 918 873 345
f 576 25 475
f 799 31 475
f 841 29 846
f 879 856 102
f 106 639 385
f 573 564 876
f 911 831 802
f 342 556 876
f 337 339 332
f 25 510 515
f 350 29 841
f 564 573 892
f 892 582 912
f 510 25 56
f 864 906 837
f 312 328 337
f 929 822 593
f 33 35 258
f 871 360 29
f 840 860 835
f 864 158 863
f 29 855 44
f 916 914 917
f 808 687 812
f 594 307 312
f 307 305 328
f 916 917 788
f 33 56 927
f 840 835 809
f 307 594 605
f 736 743 361
f 531 516 930
f 290 277 305
f 852 109 927
f 318 835 860
f 21 844 529
f 852 59 112
f 620 393 611
f 102 743 744
f 112 113 852
f 751 763 762
f 647 785 762
f 805 747 751
f 252 268 254
f 230 835 229
f 487 641 635
f 637 879 467
f 124 851 164
f 809 230 221
f 161 142 176
f 807 732 805
f 247 234 254
f 230 809 835
f 808 700 807
f 345 637 186
f 176 184 191
f 812 694 808
f 204 849 223
f 849 204 191
f 813 688 812
f 635 648 725
f 849 184 198
f 815 613 813
f 815 636 613
f 217 223 849
f 659 191 204
f 217 234 223
f 191 184 849
f 859 480 421
f 795 213 511
f 245 461 243
f 878 865 859
f 802 886 932
f 191 659 867
f 452 718 889
f 223 234 247
f 176 142 184
f 246 254 234
f 865 493 486
f 293 771 357
f 268 247 254
f 771 769 357
f 805 264 735
f 268 252 390
f 161 113 112
f 486 493 488
f 390 252 274
f 867 673 746
f 264 751 279
f 274 277 390
f 746 682 152
f 281 848 287
f 827 433 682
f 808 703 214
f 152 691 109
f 109 852 113
f 476 859 421
f 296 305 277
f 476 595 877
f 305 307 928
f 196 293 292
f 595 476 820
f 726 807 700
f 752 293 357
f 307 328 312
f 310 328 305
f 56 59 852
f 292 752 799
f 328 310 323
f 886 825 824
f 312 337 332
f 807 703 808
f 891 824 782
f 193 292 189
f 844 21 22
f 429 853 409
f 109 697 927
f 56 33 510
f 105 559 553
f 339 337 346
f 346 714 339
f 51 346 347
f 317 926 927
f 564 690 876
f 863 844 232
f 799 868 292
f 510 33 258
f 843 528 529
f 844 863 842
f 861 840 843
f 861 158 347
f 861 860 840
f 752 915 31
f 158 843 842
f 843 158 861
f 842 529 844
f 919 837 906
f 906 232 907
f 809 528 840
f 730 873 918
f 730 856 873
f 873 856 879
f 856 106 385
f 817 634 645
f 837 919 838
f 817 652 816
f 919 906 907
f 919 536 537
f 743 102 361
f 904 669 838
f 898 669 904
f 669 898 38
f 703 807 721
f 405 404 838
f 669 405 838
f 922 833 836
f 294 285 887
f 361 385 402
f 869 645 634
f 830 875 664
f 916 3 1
f 864 51 347
f 402 855 361
f 909 801 914
f 397 890 374
f 48 44 855
f 796 909 77
f 879 637 873
f 901 798 905
f 580 925 397
f 48 402 706
f 896 800 901
f 891 823 896
f 409 62 61
f 853 62 409
f 881 413 417
f 417 62 853
f 86 407 299
f 459 893 882
f 199 891 95
f 830 465 831
f 829 426 417
f 426 829 124
f 426 881 417
f 124 829 827
f 433 829 853
f 886 802 825
f 774 894 883
f 851 124 827
f 164 884 124
f 441 851 436
f 180 164 851
f 443 869 164
f 911 802 932
f 715 830 664
f 874 664 875
f 736 361 360
f 451 180 441
f 457 452 889
f 889 444 457
f 866 817 870
f 106 35 639
f 459 718 452
f 826 452 457
f 452 826 245
f 451 826 457
f 862 819 866
f 858 857 862
f 461 245 826
f 459 882 718
f 479 243 461
f 854 931 858
f 850 925 854
f 846 401 580
f 845 890 850
f 491 848 482
f 848 281 479
f 825 494 883
f 382 508 491
f 900 832 767
f 508 287 848
f 896 823 800
f 839 890 845
f 504 782 824
f 42 374 839
f 516 508 382
f 908 910 318
f 534 524 523
f 552 818 548
f 42 172 173
f 901 800 798
f 818 552 900
f 533 322 531
f 871 175 737
f 868 187 189
f 22 232 844
f 593 822 533
f 822 315 316
f 929 556 330
f 330 315 822
f 838 919 537
f 904 838 537
f 318 860 834
f 908 318 834
f 465 830 715
f 556 342 336
f 105 836 559
f 833 559 836
f 29 44 846
f 908 834 804
f 562 917 828
f 299 836 105
f 818 900 767
f 832 553 559
f 562 832 920
f 811 315 548
f 828 801 821
f 801 828 917
f 821 797 814
f 836 299 903
f 401 590 580
f 797 821 801
f 905 798 796
f 796 814 797
f 810 548 818
f 814 798 806
f 798 814 796
f 909 796 797
f 811 548 810
f 413 587 590
f 404 51 837
f 51 864 837
f 837 838 404
f 909 797 801
f 529 842 843
f 158 842 863
f 232 906 863
f 800 806 798
f 529 528 511
f 794 811 806
f 785 908 804
f 785 647 908
f 859 877 878
f 526 534 794
f 877 571 878
f 571 31 915
f 173 351 42
f 524 783 509
f 350 173 175
f 29 350 871
f 823 526 794
f 783 524 526
f 526 823 782
f 42 351 374
f 841 374 351
f 504 775 783
f 509 783 775
f 782 823 891
f 885 124 884
f 887 757 779
f 914 801 917
f 426 885 881
f 890 397 925
f 825 504 824
f 775 504 883
f 925 587 931
f 587 925 580
f 802 494 825
f 785 279 762
f 494 831 465
f 831 494 802
f 894 287 775
f 590 895 413
f 438 897 576
f 884 164 869
f 762 279 751
f 423 931 587
f 587 413 423
f 931 423 857
f 762 761 647
f 617 820 476
f 595 820 621
f 751 755 763
f 893 459 243
f 751 264 805
f 609 857 423
f 423 881 612
f 662 443 444
f 721 805 735
f 621 584 595
f 857 609 819
f 443 645 869
f 612 885 627
f 636 621 820
f 628 902 584
f 805 721 807
