v -0.15713362352697063 -0.69101836444920228 0.095705033097627235
v -0.27116679391348131 -0.64388686936540107 0.043768626496222755
v -0.15783413933803184 -0.65755354478563133 0.09707754679224137
v -0.14198142123611951 -0.12668037764952286 0.097006238032121023
v -0.29278611328358789 -0.67820835854205985 0.0035521630725673364
v -0.14167498400890444 -0.095592175142995117 0.094555283282671904
v -0.15851296829325412 -0.59154420484325398 0.10154509632024256
v -0.15814340794105261 -0.62442147158830175 0.099102226445790753
v -0.29635554927511415 -0.64180996521594502 0.0062185564878948019
v 0.27586587107799526 -0.046024039343157047 -0.074610072801543123
v -0.29543974036851367 -0.64934025276605434 -0.014311844628267879
v -0.29352474381780869 -0.64419999531493732 -0.035749291271836389
v -0.29006880000055318 -0.64109750491324879 -0.05466077225212649
v -0.18252379101116775 -0.64009265455314313 -0.12833046312006088
v 0.18832849296990728 -0.72531536757052706 -0.14013216024874109
v -0.15165670010757581 -0.6482115017352964 -0.13782114214451213
v 0.20747888262377592 -0.72489469347318902 -0.1292350117355871
v -0.11780678401153653 -0.64661801708906219 -0.14607367157874696
v -0.080983865158497537 -0.63558782436986505 -0.13883485513699331
v 0.22866965028230549 -0.72373989014534368 0.067864605682198348
v -0.14442594817740112 -0.18286922258567007 0.10301942721265642
v -0.14622698188220246 -0.21053810198002135 0.10610997242466755
v -0.044780229103321578 -0.64841403114220042 -0.12993721011216264
v -0.011416862607907093 -0.63676054360965106 -0.12558684330857103
v 0.27923124466717136 -0.26304833486411472 -0.12244174217362942
v 0.023241420668838109 -0.62023861364564248 -0.12512144912780554
v -0.086240244278918285 -0.16608328503821707 -0.24307272195257129
v -0.31058689388208621 -0.32001312240007573 0.037099588606726838
v 0.22314001280935991 -0.51351981717680384 -0.1240685681944597
v -0.31259724186782711 -0.303456708054618 0.014583994672010133
v 0.24341870326827661 -0.209087181277438 -0.15354018790100452
v -0.31416579951797508 -0.34519548172281078 -0.027998023557024403
v 0.27869226237890105 -0.33724342755326919 -0.11872266988450467
v -0.25474111483244677 -0.64821410164227122 -0.10447110909255411
v 0.26423380916674044 -0.36073491102229549 -0.12689663656202965
v -0.14555362044652681 -0.1599264861966431 -0.22450517591705638
v -0.21569567009953949 -0.16609576854474589 -0.18698147106589491
v -0.1334465906262304 -0.39903197598742557 0.10757141229707445
v -0.24220735490087503 -0.15869593343514818 -0.16954964385235916
v 0.02067394254495165 -0.15723115139471211 -0.23000776659319272
v -0.18408722395184082 -0.20721422214542931 0.086950322820926518
v 0.18862455568588318 -0.60221046471469897 -0.13772728661082442
v -0.17289763010762371 -0.2397715226503932 0.09815137992552575
v 0.24919427546618886 -0.49983901737715375 -0.1100604402362137
v -0.20148954792424417 -0.23936402924200037 0.086662458980925866
v -0.26064252563332901 -0.14769678772650019 -0.14813874946355338
v -0.27445966298388463 -0.17514447188925222 -0.1193515955342153
v 0.26117048889544181 -0.45770266039615193 -0.10900992398759782
v -0.27976907133039863 -0.16810538648781131 -0.090102691154495942
v -0.20266408747012168 -0.64911045130152378 0.077055018012202436
v -0.047894251689003443 -0.27545448073194878 0.095094400198964868
v -0.22638083297876502 -0.64670632262908923 0.067140445597529061
v -0.24994254905237148 -0.47959650923572894 0.076508479830610279
v -0.053217329712750151 -0.34393711330009635 0.095635941879897102
v -0.24764796869747938 -0.64764629934799467 0.057003448029117984
v 0.29091385236276857 -0.3070488373643161 -0.10921043444472139
v -0.27438947045683254 -0.48598959630225746 0.063954638490375582
v -0.31281738819812649 -0.47242711174836144 0.0064319571684274572
v 0.30154282103778701 -0.27651876714173562 -0.096982758517474538
v -0.30841427817908951 -0.47559823726970901 -0.036142601294449031
v 0.271235253400122 -0.48880100441644003 -0.096410668821407863
v 0.28980159768245817 -0.49138494997027538 -0.080793686526962255
v -0.30860303681615608 -0.32740960182399309 -0.056715298429068146
v -0.30438707480470673 -0.2925888201557113 -0.061987880298075483
v -0.2717360664990911 -0.47513346424695257 -0.1054156426541174
v -0.2392313117972365 -0.48318626881442839 -0.11961598454984987
v -0.21388263834397056 -0.45984786160778601 -0.13483516770560541
v -0.15629732454274625 -0.7251061031382211 0.09508573770959694
v -0.1348466054822462 -0.72371781433046878 0.08751011423406585
v -0.18066748413410758 -0.48097789648547545 -0.14399850264743067
v -0.11230752285781931 -0.72278180602220621 0.079812005778955558
v -0.069961403459822658 -0.45926066516420883 -0.162679164986648
v -0.087639301382368126 -0.72255343819067019 0.074470753263331996
v 0.13171928788575005 -0.40594313452035968 -0.17214610444834796
v -0.061599072871260922 -0.7224469839428127 0.071006376125145598
v -0.015281718886525247 -0.15648736417213016 -0.23422431312939673
v -0.033977094237347169 -0.72236253075945767 0.070455685934362994
v -0.049862847274522164 -0.15760808814673608 -0.23974252344639027
v -0.0055417100238092714 -0.7223430943824134 0.073177440336506638
v -0.066170550341309489 -0.18573875867865244 -0.23595802118248074
v 0.022403729549908061 -0.72241905727553624 0.079100505878165889
v -0.10525115790288381 -0.13951679339838541 -0.24422302641663987
v 0.049407710750071054 -0.72251816644673261 0.086748619490580964
v -0.19104732705065422 -0.22007425947218473 -0.19469512606669925
v 0.074889834371338226 -0.72294335664090159 0.095540635882002539
v -0.082177162672061765 -0.41924685740168449 0.094518617082622991
v -0.29045718157215783 -0.17205466953008494 -0.019888100241378208
v -0.082107458152022625 -0.30649232987794445 -0.20554521664387293
v -0.3024137399441113 -0.58155127994578704 0.011963890858872138
v 0.09927423776993928 -0.72330688212562422 0.099370298455027956
v -0.12300035245099034 -0.29485610107208293 -0.20804603976911354
v -0.17726992339456121 -0.31200902661771523 0.10627771242084216
v 0.12357594717497117 -0.72288528200831526 0.091122651409139055
v -0.20533319789173343 -0.3079870881700108 0.09723885400063309
v 0.14684719544530309 -0.72273647108330419 0.084387312536877285
v -0.18461247305494791 -0.27564003448012808 0.099466148131765075
v 0.16899674764642927 -0.72288870346505085 0.079720062906781936
v -0.16756938240940372 -0.17602277717683645 0.088809805198364483
v 0.18997104026795736 -0.72309319117580317 0.07578933825534262
v 0.044196837313017198 -0.12775797071285827 -0.23447351637931943
v 0.20967531715516358 -0.72331249387450502 0.07198406485475034
v 0.20450890277750172 -0.40060208669107733 -0.15555721853981655
v -0.0014411276476396723 -0.18763457763296307 -0.22542646065522706
v -0.27672106062503804 -0.55959493243240521 0.051792874641311791
v -0.094755215239567245 -0.4581009459695175 0.093593287055324048
v 0.24446286323234398 -0.36355431416699885 -0.14018472485092409
v -0.061702898004721847 -0.21411450686559419 -0.22772139210559034
v -0.29802540030623526 -0.58899995468006827 0.028557490718530643
v 0.31355999718706395 -0.35628444758285871 -0.075624778427606093
v -0.093893635154440061 -0.23682412708164241 -0.22607937040941528
v 0.30997376550763828 -0.2534385327192209 -0.081185424188982697
v 0.31704393419522031 -0.28972706845175611 -0.066023191969896269
v 0.31986899209437031 -0.33094935826137029 -0.059726730161502505
v -0.30611054360230078 -0.54551377287978531 0.0092389575950336533
v -0.12783054438510352 -0.25739346676685609 -0.21437834034452258
v 0.24671457277519332 -0.72444245784453887 0.063470321307801489
v 0.25968707299210791 -0.72463390880984191 0.053916303241374766
v -0.30102518187958532 -0.56257351449423543 -0.03384990998229373
v 0.31172694206145957 -0.25310623454242021 -0.057454139515676919
v -0.16196917362793919 -0.23919717439920146 -0.20428230148098431
v -0.22362210922112957 -0.24415132626141167 -0.17247679819239886
v -0.2429217712799242 -0.22408305672467718 -0.16354633319223319
v 0.057703671997814183 -0.23958522906014529 -0.20983283859608609
v 0.31313797641987612 -0.49847798590931658 -0.026772693787427037
v -0.30405238057151834 -0.25408891666902284 -0.02940148625873943
v -0.29982555840547653 -0.25933894712189198 -0.063707193732299189
v -0.29385107797144422 -0.26377763917453451 0.04121674577046551
v -0.29947190383790573 -0.23638534260102773 0.019895252366905557
v 0.26834481974203667 -0.72412591162166862 0.039490480155947985
v 0.12613407892204867 -0.25806303479113324 -0.20903418605538221
v 0.27626515245014327 -0.72379634094751077 0.025197105051313909
v 0.089868236372034074 -0.26508730760095112 -0.20430060727603114
v 0.28300105268752018 -0.72380792402580807 0.010722691156399483
v 0.12539089549678084 -0.50014975661570582 -0.15101325003926663
v 0.28913371568286211 -0.72388371470666935 -0.003779142354450496
v -0.27102705102605673 -0.16284556898645436 0.021313699509060244
v 0.29431230191805041 -0.72409861972550515 -0.018342962232282801
v -0.25054203290834243 -0.17055066255012924 0.041305359077323148
v 0.2980915705500829 -0.72460899611911433 -0.033095027955449476
v 0.1253727494364926 -0.29179001855827658 -0.20058255960728541
v 0.30137557119257147 -0.7252231183059038 -0.047815260133779874
v 0.31195184603275272 -0.274264540492478 -0.036059799268828692
v 0.12347012732606594 -0.32664879607298958 -0.19131153723983282
v 0.29725886518254324 -0.72490529279308658 -0.060910097002648531
v 0.085665569167673039 -0.30026189981060236 -0.19468469735494448
v -0.19317588458705845 -0.29868523883987308 -0.17729159555764523
v 0.28976112176096996 -0.72425450864846797 -0.073083561419613502
v -0.28335550742315496 -0.13845552561935193 -0.036127075697194616
v 0.28046793795759534 -0.72361361885436659 -0.084479632148006994
v 0.1149601974284305 -0.45007683864047421 -0.15909275761099195
v 0.26957654912069517 -0.7229054686672004 -0.095029386535662119
v 0.32066847137007509 -0.36768937039823268 -0.05385060839956804
v 0.25716692842316491 -0.72240091216888291 -0.10475519571827983
v -0.042875298435788835 -0.37592433941061854 -0.17861214004481976
v 0.24209310227838554 -0.72332791921702866 -0.11275039616887081
v 0.046169885196727968 -0.53352155178956417 -0.13632237888157273
v 0.22549710241332924 -0.72425648912137197 -0.12056810243622991
v -0.059195547900458202 -0.21600925201596252 0.093354667522664886
v -0.20902660779304866 -0.35587173644786207 -0.15838380445127215
v -0.27690079327672618 -0.63530551503432364 -0.089901051582976982
v 0.31693075937940168 -0.31387912364164705 -0.038117533676833522
v -0.277225429236931 -0.33076150936299464 -0.12610710268872241
v -0.28908412376986375 -0.39386602835742368 -0.10666457678403764
v 0.3062170143428275 -0.51254645772372842 -0.0022731445720352399
v -0.26540762449224004 -0.41425479531608594 -0.11872554042225764
v 0.1672505615731871 -0.65811434597719265 -0.15004948658424808
v 0.1932155218311768 -0.68502311326473331 -0.13550972464772315
v 0.16761611503309995 -0.69189102542355529 -0.15098768123558007
v 0.16664064392080857 -0.6246969785542873 -0.15029032892227373
v 0.30414330556498936 -0.22916636187288303 -0.034862653405344418
v -0.23976269959205562 -0.40354659629451473 -0.13418985119703442
v 0.16633883939792526 -0.59145590611204524 -0.15158545770906209
v 0.1656276910538845 -0.55867354645797973 -0.1538721500590973
v -0.30148902764604413 -0.42155564329025841 -0.080763021203312982
v 0.16551011667684862 -0.52654978409148001 -0.1571387372396858
v 0.3116896057410562 -0.29983430944473388 -0.017223896582369037
v -0.18424539225039388 -0.40723425508182942 -0.15968622918231282
v -0.059635635640622561 -0.68341577878182302 -0.13186127132765804
v -0.31110383429130478 -0.40597116730765304 -0.049815031246918343
v 0.30314654134152497 -0.47819692941077652 0.015842927759642834
v -0.31138753153845805 -0.4400968851895386 -0.035184193387936456
v -0.013365030448611166 -0.40427920250302823 -0.16699878478775634
v 0.016535971167924716 -0.4310085627271113 -0.15835552558852672
v 0.30441991922825418 -0.26499351207218214 -0.0090546204271701042
v 0.08269439040347755 -0.33649233801199718 -0.18461676312537922
v 0.16426939515964106 -0.31454414003208608 -0.20079632176900386
v 0.16336813155058827 -0.28550319352778952 -0.20745984427150321
v -0.26773558863667796 -0.2004472183599896 0.039809237983442311
v 0.16206733146469268 -0.25658127778605477 -0.21366821453513379
v -0.2876934987421404 -0.2114161587361868 0.024443949404641625
v 0.30715681083233687 -0.31013233945220664 0.006767042539795258
v -0.27967537968921002 -0.23543791285975355 0.043599543942380851
v 0.1607901382605901 -0.22755138402269706 -0.2194607589426722
v -0.28669151941433407 -0.18135409304299294 0.010687514207615538
v -0.31560635922530661 -0.42433811481761352 0.025964059785397356
v 0.15964395913501261 -0.19820899423735894 -0.22454253617197115
v -0.27327995664420796 -0.13146527027335225 0.0045586784592483859
v 0.29268351457183184 -0.22252562271747683 0.00083844857396966205
v 0.16214674898783332 -0.68129889005056188 0.084334548961768008
v 0.1587007694868158 -0.16851548669143443 -0.22890917142262543
v -0.28454779629978239 -0.14887220810933571 -0.0073676663840942583
v 0.15793243172920443 -0.13855695757942044 -0.23306763956943827
v -0.30153237506366276 -0.23132876361153931 -0.010132065418181379
v 0.29870620287616262 -0.32432114647798377 0.032242756991435736
v -0.29398063641396327 -0.19666704286678277 -0.031037659500670899
v -0.30366747725891174 -0.34248448732086062 -0.080877604506500583
v 0.15771747210454012 -0.1084738466644133 -0.23766931833993429
v -0.27726775744261728 -0.12837873311330805 -0.064374975362129425
v -0.28502235995577169 -0.16312036808070948 -0.056094184470935553
v -0.27286098192620245 -0.13361079934974651 -0.092562521062636405
v -0.30684267444965518 -0.43566714392746186 0.045845381191690682
v -0.083857861271190673 -0.09138428520693051 0.088899285485053714
v -0.11255245536504775 -0.093889181985504777 0.091644868546796293
v 0.27640384180104349 -0.19292068491457495 0.023346813197340791
v -0.14283428509228452 -0.15503297162704641 0.10015819372242549
v -0.26760107530334315 -0.13937039887185876 -0.12181745010935151
v 0.28341980338186856 -0.24283190589738035 0.034401583165618199
v -0.24052953524328907 -0.12664318409443814 -0.17180092169201966
v -0.21709991233009013 -0.13107183793770777 -0.18809334021535801
v 0.027375162866859155 -0.57509450808547102 -0.13004660907546439
v -0.055701559835579097 -0.087762660984293389 0.087114920721720085
v 0.26696344844105901 -0.21604002645765311 0.050311766429707083
v 0.28542447090842082 -0.29554389824948557 0.052415982572475886
v -0.19116332301842329 -0.1340798613091464 -0.20370964142138492
v -0.13108960241979953 -0.12488401816890234 -0.23481834642262994
v -0.065755213978253679 -0.13143751017379462 -0.24872221521558521
v -0.12898682915952325 -0.2200862145870186 -0.2221991475372242
v -0.040978627798185369 -0.56505892538213831 -0.13698451709952755
v -0.00045149469896120509 -0.079341735619467474 0.087658374856083215
v -0.027988613164569721 -0.083663712047734956 0.086581641142487453
v -0.024140158292254132 -0.21741921538266151 -0.22078278723864775
v -0.14825513056446971 -0.23785993226725854 0.109185223651623
v -0.035498799856273043 -0.18674114876756148 -0.2302643830581623
v 0.26911134918724744 -0.25937460020983272 0.062064131557769714
v -0.07766782405969036 -0.58542535589810174 -0.14232134219994716
v 0.02693662020827441 -0.074809433489609917 0.090333886800207736
v -0.18774187163322753 -0.4873620539764113 0.098802651931719637
v -0.18386409042522922 -0.68500753380840607 0.082419981815312682
v 0.24462648741439053 -0.19864351511113779 0.060605572173436623
v -0.26105347144382796 -0.25842880809040542 -0.14751773905519008
v -0.20086595020887155 -0.5850099837403937 0.083950306259423235
v 0.053994642400648947 -0.069935974285478097 0.094774280219729251
v 0.25499502398105933 -0.47300189806247439 0.084508977006779742
v -0.21108863944947634 -0.68685261102252904 0.070467893558026851
v 0.27525671634381466 -0.47267194178028976 0.072282512972444882
v 0.24480864835610733 -0.23490519401520574 0.069409244671084155
v 0.26182739206093136 -0.30096889925423381 0.077241732272928201
v -0.22094685065146563 -0.56059303888893786 0.078322694339706733
v -0.23610024817597383 -0.6862328410029932 0.059241994296376291
v -0.25721129850423646 -0.68307410207437957 0.04774387470872879
v -0.25903575085644304 -0.57882522916033941 0.058978119184702762
v 0.21523900568207041 -0.25850641578685046 0.082695227381356262
v -0.25849108677211496 -0.61463090068790216 0.054794158256868147
v 0.24514728030765892 -0.27040808325695392 0.076968145947369809
v -0.21736288730728756 -0.27199650455246022 0.087872513756990039
v 0.022304072837273078 -0.21583167715417836 0.096579312183598248
v -0.27426524118033008 -0.59861736313694647 0.047787517687909439
v 0.25819409702894203 -0.33211005265679494 -0.13735624692959086
v -0.2751695858738949 -0.68629414061977023 0.034850352545158177
v -0.24005431942987265 -0.55017666282030886 -0.11104802144518944
v -0.28896721466196973 -0.57561978962344251 0.040818826444438586
v -0.28997559549617891 -0.65344519756153141 0.02612748548370282
v 0.24716611846321174 -0.30470573269003987 -0.14789196399271268
v 0.16911694956873136 -0.16062635980773932 0.075993836233424317
v -0.28710570953771181 -0.61501633818910661 0.035631488018006321
v -0.25177590407199318 -0.5815714411887426 -0.10476652793771189
v -0.28862908555959788 -0.69294221192368832 0.018774427931900952
v 0.23072448167598267 -0.29952877253376781 0.08615532052415889
v 0.21635804127738975 -0.33036125906601943 0.093809359463287931
v -0.29614887282295743 -0.20455856340619633 -0.00070879972898743593
v -0.29760486727855934 -0.61620859989723176 0.01884499872382818
v -0.2915807139859537 -0.69144441762045949 -0.014509728124872771
v 0.19074929470538649 -0.22764081490424046 0.082718331621980973
v 0.17978035590713543 -0.26798480720132589 0.093189700165106776
v -0.30290357612466379 -0.57278151252564669 -0.0086701684428520005
v -0.29951865036738407 -0.61070462872608255 -0.0022186675609709283
v 0.16497656960230267 -0.30685211747057861 0.10219905272494229
v -0.29087652890997245 -0.68380936877572873 -0.032248776840780098
v 0.13324527251197313 -0.15344592435750351 0.087820776363232822
v -0.29844886565119633 -0.60683021936390302 -0.022899615736371073
v 0.22815473650987136 -0.48379569181783466 0.091093513565597237
v -0.19283929645946599 -0.10005951918566636 0.056624076947809021
v -0.29515403781798866 -0.60550202113506812 -0.044508219113411913
v -0.16871056093290462 -0.13815170720149877 0.080869100216432566
v 0.15874857639753823 -0.23915402513188622 0.093407605298965718
v -0.29745138132816351 -0.22140621089536155 -0.038820435263726076
v 0.19783034051816914 -0.49617906867859818 0.096023799828020728
v -0.28972541995935019 -0.19517758527390719 -0.062161906328797055
v -0.28856426416795461 -0.61720469462804539 -0.067389076793366712
v 0.15192508226364465 -0.34173083083549693 0.10775113533351222
v -0.2950435408801857 -0.22769948942730864 -0.063354623948870162
v 0.18993897491982245 -0.22578433940549927 -0.1956911851358612
v 0.18782092640320727 -0.18607283500051749 -0.20089515560954219
v 0.12806035095319473 -0.24651724611739165 0.10302764658741526
v 0.11468418323131184 -0.11455123297165964 -0.23599080204266326
v 0.14352941516883047 -0.27643649830471179 0.10295357131284266
v -0.29379681708309091 -0.57671468484095079 -0.060111525192124815
v 0.12549649450446046 -0.15122472564150582 -0.23004882573953692
v -0.11748460216525407 -0.42753909691637976 0.10099445001711224
v 0.14068095370076197 -0.62970956474235462 -0.14175073239501354
v 0.087910162531931291 -0.14408480751919495 -0.23069620496186749
v 0.099319058484793291 -0.22974808211538089 0.1079939262955035
v 0.077796815229934577 -0.11156890958063942 -0.23674511194952313
v -0.28552050948698782 -0.20189066570584224 -0.090873681661672395
v 0.12253480948553659 -0.31390182373279618 0.11181505071598544
v -0.29075546623097787 -0.23571385294566077 -0.091604049491587833
v 0.091803516591443882 -0.34546849091126652 0.11717474077843471
v -0.26689102283785671 -0.21946580837907431 -0.14589099178786785
v -0.28411821572069729 -0.24608756951295105 -0.12080232141630597
v 0.10409787937786842 -0.27050492072413412 0.11152785356412817
v -0.2801131123913273 -0.2102919262152077 -0.11960223619993285
v 0.056905230626265395 -0.33218117589361285 0.10828928618950209
v -0.26747713797518707 -0.67913542557181028 -0.098480033809067544
v -0.28412600766842971 -0.59534204286449177 -0.082404584453919988
v 0.029744149198396169 -0.50317799568629795 0.092572380729318587
v 0.066760440911962954 -0.50448874298624502 0.10338855960778048
v 0.29076065440098486 -0.40309175670254604 -0.095270922817578457
v 0.020693327105495467 -0.11904649631577613 0.091633788085935614
v -0.17898901895032385 -0.58681371566372109 0.092885765749829458
v 0.080256271587849357 -0.065181250213390302 0.097947450317440038
v -0.24271889526082374 -0.19201403183839535 -0.16713331294260161
v 0.080818452538542876 -0.46844983217916569 0.11039307183725963
v 0.058027532978140783 -0.25278008894290971 0.10525300340658691
v -0.27352317304039692 -0.5769624171303952 -0.095044136514257874
v -0.21620862686392883 -0.20279542848048035 -0.18315468485986564
v 0.10393731593128536 -0.061215747234189766 0.092318937554507763
v -0.15743268009727937 -0.19899308225605628 -0.21383833639112101
v 0.07984921319463513 -0.30128656413690225 0.11328436121931368
v 0.04415895757620724 -0.34436474602540079 -0.18141347504583416
v 0.0076197747824431538 -0.46576093688536768 0.091150888502047583
v -0.24275791237813166 -0.68592255200420393 -0.11168382062537896
v 0.02088217912538088 -0.3313776723537869 0.10000930087224122
v -0.26465643064695105 -0.61050852163948233 -0.099122126974367869
v -0.22480876830744809 -0.58840187421825618 -0.1146272198441517
v -0.21860192305349635 -0.69270661996371263 -0.12104980824740255
v -0.032142255535650262 -0.47600296330201397 0.086792715304123996
v 0.039469693857763194 -0.29479801582918735 0.10328188541429811
v 0.040642572825529785 -0.40249372496889063 -0.1650906392147212
v 0.0034998419761376907 -0.30579794920305581 0.097626071035511824
v -0.2286988000800384 -0.65673357508152352 -0.11489354477399794
v -0.20780293161814331 -0.55672778737771544 -0.12242657302370089
v -0.058471567319834869 -0.44897901013880959 0.089630181361095851
v 0.010462215431652967 -0.3696717653474727 -0.17448468413880136
v -0.19682429342179866 -0.67540894659420758 -0.12597077638721477
v 0.19139656482484163 -0.30210072295105089 -0.18410498550673293
v 0.0043652875581979425 -0.26506382848818277 0.096436869025821575
v -0.026234655572939605 -0.23545010022107796 0.093594928560975593
v -0.19577460751970097 -0.5971293948848464 -0.12423406672852369
v 0.12545386759664323 -0.057841466520932999 0.079780222256207678
v 0.19580503911448294 -0.53683913855841403 -0.13759348265359447
v 0.19786961144095813 -0.57137559646219738 -0.13390317934012938
v -0.16480760735140265 -0.68250283574492232 -0.13487379182302611
v 0.14677386970649853 -0.054467722881506198 0.068413460606257609
v -0.087216091777637367 -0.37621775786375616 -0.18726284009632446
v 0.16803681586138924 -0.051015485233992935 0.058030294039418506
v -0.14346627118400357 -0.58105553581162228 -0.1434454542547399
v 0.21083713724119452 -0.16493542132542685 -0.18206201555819634
v -0.16661772708075551 -0.60722374498300824 -0.13360425756009661
v 0.18944547393096953 -0.047653179441292493 0.048347417608166604
v 0.21384215129788997 -0.47715667252831206 -0.13517237332241672
v 0.21837429068937267 -0.43687975606082341 -0.1398689871089735
v -0.11579183185396651 -0.40555055303935417 -0.18254884195280127
v 0.21088341801008165 -0.04437633369520852 0.039182332825478117
v -0.12608461186324463 -0.37215496061998554 -0.19004248207624369
v -0.030957268921846845 -0.12622381131248744 -0.24358824288354206
v -0.19565061740196785 -0.16855388639121838 0.072350376310643144
v 0.23185682519194312 -0.041249619964695144 0.029711273092957291
v -0.13096054075399091 -0.68658646177516491 -0.14480943703241583
v -0.15401929764175398 -0.38952908255930729 -0.17549055081965265
v -0.13896239966292603 -0.61722342315719569 -0.1429904414002986
v -0.12208393358553779 -0.18146615533479868 -0.23195695251962298
v 0.24565302766010838 -0.040647366070987595 0.015448751953779039
v -0.18327441832777921 -0.37130254109033434 -0.16702416987571611
v 0.21416611434801761 -0.6019479193238233 -0.12304464759722675
v -0.094594022007636155 -0.68162501292385591 -0.14222173665108895
v -0.21275690613486301 -0.38835047743192985 -0.15048348644811671
v 0.25277173266069369 -0.042363634360150226 -0.0027588568270382197
v -0.095963713455369554 -0.20256596829850082 -0.23416335788665554
v 0.25908754863679884 -0.044098002833776323 -0.020577247331290419
v -0.23887436723355263 -0.36184790348921203 -0.14257692709842701
v -0.11052331415795551 -0.60399840648534853 -0.14717772773377663
v 0.1651076293534324 -0.42290285302478814 0.10601865664507656
v 0.26488651423844156 -0.045224750675523728 -0.038293826358917642
v -0.26094332173396001 -0.38546117787995726 -0.12638428395382253
v 0.23247056319913645 -0.39858777950930385 -0.13993698278692973
v -0.022066385904571027 -0.68117144357585957 -0.12450216782806817
v 0.138799239074126 -0.67276706837952349 -0.14053724348452135
v 0.27068352402313595 -0.046023399610829574 -0.056091374295701275
v -0.27036969540655259 -0.35840363185239998 -0.12602648053687954
v 0.19877321669050224 -0.30013515290619064 0.094011960040477599
v -0.180059086450374 -0.52212852880956739 0.098405040709992009
v 0.28018311303781568 -0.046131457455968361 -0.093992788131648186
v 0.18672408782519298 -0.34514878504471369 0.10206971099467441
v -0.24242315272684795 -0.3669322995739378 0.089683321652060569
v -0.045354070656360088 -0.60877554366791853 -0.13277730648685698
v 0.022039136141241981 -0.67124206989400204 -0.12149508619993174
v 0.23812040704343701 -0.59196102880944834 -0.10957507954747969
v -0.0086908255677562024 -0.59149246372655417 -0.12955034206884658
v 0.061226607276742805 -0.63851211798370278 -0.12513886553635165
v 0.067603563299693817 -0.6830145393300795 -0.12378890618252059
v 0.26104975788865159 -0.5296894939239053 -0.098705448537576901
v 0.24693780478168306 -0.42895099872372211 -0.12446973412973603
v -0.31512877341799966 -0.41780668345613159 -0.016952211157851504
v -0.073140610206722925 -0.31531024965843879 0.097401097420721505
v -0.090988657470525841 -0.35242266049941207 0.099347114149650778
v -0.31561054393707244 -0.38116357508828769 -0.022828785578100527
v -0.1031496703509918 -0.38997197414239315 0.10004925987342794
v 0.11719896164353254 -0.36659693375462121 -0.17973651350833686
v 0.28595133468005246 -0.44865684732464173 -0.091234381694114686
v -0.31675794914364097 -0.35976591221644139 0.0007283495444157205
v 0.062792341697066281 -0.56785637604876515 -0.13252427204998396
v 0.052652836752300904 -0.60049266944324753 -0.12803729334288361
v 0.28972092198329685 -0.54339088967030258 -0.075048076466231017
v -0.31729938286085324 -0.39668639799156552 0.0084965460486900752
v 0.10456211901898918 -0.64278776805625115 -0.13128906900032072
v 0.27717404059872036 -0.048074188857382932 -0.11233714832208286
v 0.30354207630377655 -0.50331521533910806 -0.065422317986051914
v 0.087342629106781922 -0.59869248489673998 -0.13180287136605265
v -0.3163256003847974 -0.37043959384807235 0.030093866305723388
v 0.095240059487580381 -0.5417288517616009 -0.1393330196435088
v 0.26534551351469765 -0.051983534538076054 -0.12919338924847426
v 0.12391439494000513 -0.59032110409645322 -0.1397600947227608
v 0.29427558461836528 -0.59104447509997349 -0.068058458859082904
v -0.2836874361335483 -0.65607515587455079 -0.074307668640351252
v -0.28751965594637297 -0.68082971763503308 -0.053872894960235611
v 0.31274199178129419 -0.51146865758616156 -0.048800266549348131
v -0.31227684921015197 -0.40184862365855578 0.041632435352782368
v -0.30100302177529875 -0.37926741131151576 0.055904678763789267
v 0.30469642042664469 -0.42288394956184072 -0.077057918408167086
v -0.24584398344546932 -0.26774887027071259 0.076271396644272849
v -0.21005501962422676 -0.10080508654951931 0.045624015751427299
v -0.29057542527092867 -0.41755201516397178 0.062514190372742903
v 0.31699274540465766 -0.43440741682550094 -0.05512148813951339
v -0.28083155712458296 -0.38438379397959876 0.071363113143883841
v -0.2614935430010506 -0.29700898262069975 0.076068295222098709
v 0.31423232013223323 -0.42230234587431587 -0.012307568072857131
v -0.26563526698088313 -0.41511633889584043 0.077087245545162095
v 0.28176131894997952 -0.18568308167374448 -0.11594194649464686
v -0.25130859963718344 -0.33122551481076018 0.085812527520562648
v -0.27662951296268778 -0.32420829395627193 0.073018983534561377
v 0.30734578972377141 -0.43705834871422278 0.010877302373183212
v -0.26815350739218674 -0.3555763671748684 0.079267199281420148
v 0.29929233752130358 -0.54741443533424916 0.0098033746929004802
v 0.29735210973523296 -0.51868727365363554 0.022631403199212419
v -0.2600571367966702 -0.38507889049277277 0.081881279328527387
v -0.24129277518451969 -0.40506923064742023 0.088060096504604404
v -0.28945231897640328 -0.35188391811091435 0.065587329858856319
v -0.18997260446884617 -0.37870805561681786 0.10520536856013046
v -0.29637932314995907 -0.32128369098920107 0.055892689353194761
v -0.28492658867315773 -0.29323885915000836 0.059551155950879134
v 0.29865751772110727 -0.4457038006765649 0.033915036845033629
v 0.28294087123710576 -0.50178565738206171 0.058322430382404186
v -0.2341962437350632 -0.3029954682033783 0.088044315888266708
v -0.30773960665230549 -0.34778305274018279 0.046856707534902585
v -0.20774152845016602 -0.51782188378778149 0.088359452151734352
v -0.30446387368077721 -0.29242074600682794 0.038615191730020482
v 0.29366147789580527 -0.48840363236783335 0.038388825462596081
v -0.30796758180496281 -0.26677519868608202 0.010186870360550871
v 0.26735711230834669 -0.50850554317225904 0.07622018807323537
v -0.31436124822054368 -0.32438886555922647 -0.0058574905679339056
v 0.2738447604507786 -0.42786882924338476 0.07833216656381492
v -0.31553933647921412 -0.3379605517003309 0.020567252891660996
v -0.22996725840131504 -0.23666263636807214 0.074625647187547883
v -0.31027790496326024 -0.2893044413649295 -0.012475041262317101
v 0.25948621753892215 -0.58608611327160498 0.071737415299949175
v -0.22549153549437329 -0.17214432285433007 0.05743396282791037
v 0.16511366185346976 -0.37335661697692368 -0.18650710353831926
v -0.21483579931385749 -0.13765952102100129 0.053274435598467521
v -0.30646770498196474 -0.28096909194088049 -0.039678920881404525
v -0.31120311698212733 -0.36476392550569925 -0.052381322200031187
v -0.19222512493496546 -0.12979214028946517 0.064629014831516174
v 0.16472895970206053 -0.34389576082984474 -0.19384665589560168
v -0.24434361601069648 -0.10271617808899755 0.022219409207098612
v -0.30449661069309469 -0.38139821814581781 -0.078826620625180061
v 0.2552948237741145 -0.24090632496237949 -0.14371520335966381
v 0.2763985384159931 -0.10910430637347296 -0.11759521655519864
v -0.29555943698157749 -0.26994873804456493 -0.09061393924911279
v -0.22728220954454861 -0.10160793517493813 0.034487816261047688
v 0.24265966426578339 -0.43641140957513336 0.090341360809811894
v 0.25060281972529025 -0.056211485960530078 -0.1450537995179616
v -0.26492140526768054 -0.18383686501053995 -0.14672494027925051
v 0.22117441989980985 -0.40874884064878259 0.096179783564935756
v -0.29420790779830397 -0.35573129009723947 -0.10544304432243008
v -0.29279760033781282 -0.31820318908573819 -0.10944652829680165
v -0.28830318464192278 -0.28193179858070494 -0.11815044982748193
v 0.23524133463154465 -0.05994488805329129 -0.16022891846341719
v 0.24443360957004712 -0.33851774140698176 0.087838137125105714
v 0.21980867445280178 -0.063494061878367147 -0.17550708268711457
v -0.2567370582787098 -0.23459508697573572 0.060328616335054833
v 0.1329913635628667 -0.18970573742481217 -0.22402427367818933
v 0.19396000425862203 -0.42707222631402214 0.10099931249845626
v 0.20458926000940517 -0.067103532239913721 -0.19108950039498462
v 0.21730465771706264 -0.093750301414215351 -0.17764914769169252
v 0.22862958714196455 -0.60294164570401998 0.079791117235892967
v -0.2367711648636032 -0.13829912436634306 0.039697736585865395
v 0.12685217401359469 -0.22362315422209933 -0.21704033429273822
v -0.25059584712889243 -0.3257349409279362 -0.1429412672049557
v -0.18417194136344942 -0.17417586721564918 -0.20494298793249774
v -0.27099606488043138 -0.26499675798605793 0.061146038779483172
v 0.1891344788341118 -0.070521786168361994 -0.20722283253132179
v -0.2198598606876308 -0.32501954419395201 -0.15914239634304342
v 0.17369218456285221 -0.074194089738305241 -0.22441862884136868
v -0.15574198485177937 -0.31472317196037114 -0.1903931347895676
v 0.17663986895495737 -0.58882370528759609 0.090627389892160765
v -0.18568003364811461 -0.33467638114734843 -0.17321979713797048
v 0.17431622293290824 -0.098029767636617443 -0.22088921190670749
v 0.15797734664333182 -0.078051126456780529 -0.24207917870004386
v 0.17850499501319572 -0.46325710352237082 0.10168581100086366
v 0.16468271832811873 -0.5070481605212982 0.10020619793364791
v 0.26996906820606176 -0.30112012139915334 -0.13087068551984876
v -0.11176146612272538 -0.14317602909860394 0.094315697394981718
v -0.16092554706927364 -0.27731135084528458 -0.19636669920333349
v -0.15405827028578428 -0.35182812579900002 -0.18325556192253051
v -0.16207877341073337 -0.13251619953885557 -0.21927194986900789
v 0.24963315638151143 -0.27287418301545741 -0.14812669488844737
v 0.14211947305129388 -0.46652488488068689 0.10734692242564595
v -0.11506525969279438 -0.33558015903339028 -0.19939228181819063
v 0.086944354848234373 -0.72507633648900738 -0.12747002149676506
v -0.045592524703291976 -0.31505988397089668 -0.19651073552212073
v 0.056777042074841771 -0.72491596436751138 -0.12305616129380564
v 0.025369084762635125 -0.72471746625732991 -0.12067367945182281
v -0.068389156907459545 -0.34243861562507438 -0.19274630846940211
v 0.10573837316546203 -0.49211005793586415 0.11177635683911227
v 0.13011511722820129 -0.52253830640012144 0.10506829943383303
v -0.0070746824049444518 -0.72465246145436091 -0.12168253131265011
v 0.11848159028139985 -0.57223350878488444 0.10323970961432793
v -0.053933276795040307 -0.24557019962834167 -0.21775759270903183
v -0.074597823863068 -0.14962430571804247 0.09092185249478954
v -0.10180697008966183 -0.17598159885327519 0.095446038758234042
v -0.039187228847128011 -0.72472806932302536 -0.12646052761981699
v 0.10939162911309984 -0.44493020499607067 0.11504320990427772
v -0.041356417469674354 -0.28001873253037679 -0.20565533660220187
v 0.07742021445105747 -0.43546547365132882 0.11146948373564905
v 0.09094146289015291 -0.53862593080280663 0.10720140091183553
v -0.069533634309606365 -0.72491211434682601 -0.13470786344738178
v -0.15173668160764034 -0.2927611675931433 0.11421559210258697
v -0.15345057133425619 -0.32056325111019601 0.11598414812223515
v -0.0083716904636246502 -0.30863486519874306 -0.19355295843748727
v -0.097178489461629075 -0.72512000741629468 -0.14467516566458308
v 0.018839941018436626 -0.21916280231585383 -0.21596661984752927
v -0.025101796912602059 -0.34203616583984892 -0.18574373074767442
v -0.12281818651145462 -0.72503894978631078 -0.14948666211255274
v -0.14795428278961889 -0.72440678935287783 -0.142171259635678
v -0.17134807070444186 -0.7237738153336668 -0.13620302592832545
v -0.21999270095627363 -0.34457747798299637 0.096379594629586562
v -0.18766699497208811 -0.34299926692423088 0.1052858441243705
v -0.0052476249545075956 -0.49948302338275058 0.086834076935191323
v 0.0014573573762592671 -0.53690851224322067 0.084329308162105543
v -0.19291233124269699 -0.72310971761098553 -0.13146014391369654
v -0.21237899976300167 -0.7230999124325268 -0.12581768995091491
v -0.19085141975947334 -0.45036275395363201 0.10098869811849642
v -0.034907703328519675 -0.51676977090364651 0.083267565099685664
v -0.071134186952665296 -0.49265856379355982 0.08682685891146058
v -0.23074055807936611 -0.72326225359237695 -0.11942492229000565
v 0.024545487710754786 -0.25148743677253527 -0.20751111590157115
v -0.019934295195745327 -0.43813488727904704 0.090275592169020813
v -0.24772073348943774 -0.72344243381247941 -0.11208827780086433
v -0.22019655162572047 -0.47419641073766688 0.088656515514335316
v -0.10852425373079796 -0.49722496757638412 0.09325888623289269
v -0.19261982056278273 -0.55297260926643577 0.09060796214404146
v -0.013034465235749568 -0.24868154333688791 -0.21109329496224649
v -0.11404878650650732 -0.58563285531251141 0.086847702210116201
v -0.23336884912553063 -0.51564941818085985 0.078615681813047816
v -0.032248115096232891 -0.37315513154738256 0.094028725790169215
v -0.19093266834239056 -0.61674280816543547 0.084979506226722457
v -0.21561291518172168 -0.61013411840996556 0.075217380787381022
v 0.061035026132289776 -0.20470105633485022 -0.21838460880628491
v 0.031874835534769171 -0.18731883421409831 -0.22290382156878008
v -0.24443343820887697 -0.44219101700115782 0.083300962194231817
v 0.058781383110377533 -0.16683252878952404 -0.22652364621674928
v 0.25955145318130735 -0.17938826856234977 -0.13870682635814668
v -0.26343908561182888 -0.72383675663452607 -0.10439099829725755
v -0.0082247838929560592 -0.4012060658420919 0.093644127317474291
v -0.23890741585200367 -0.60105415492630909 0.066090308488054611
v -0.27004922579352025 -0.449918309716549 0.071068464711688581
v 0.27117141501593894 -0.2180278556283152 -0.12879039403987477
v -0.24432353056957956 -0.55300590007107531 0.06929249985179578
v -0.25695511107978791 -0.51455737756475561 0.06866254819985286
v -0.24135075138438802 -0.20345855757859485 0.058621775667870774
v 0.25805975042457241 -0.57541659687862357 -0.097787121717295228
v -0.21316152665582699 -0.20419815085660448 0.073078152635567814
v 0.027853421581314625 -0.39104014099937934 0.099710940864813413
v -0.26316198859741458 -0.54501472556655473 0.061316937829960991
v 0.29920864716787027 -0.18787968042129224 -0.090700495608547649
v -0.27361085108407424 -0.72414358308086824 -0.092335708574800598
v -0.19028760876188 -0.41435410961267327 0.10379229018178227
v 0.27663361359050137 -0.59096580664490805 -0.084047880598380906
v -0.28314019858578265 -0.72372477276029445 -0.060308502714647098
v -0.2957324392950641 -0.49801007105689465 0.048285593889695083
v 0.27283885116226009 -0.553130454462752 -0.088434420509369407
v -0.28613123363080784 -0.72359688761388563 -0.044828288484771994
v -0.27802452204614941 -0.52183652676947134 0.05658563813191371
v 0.054355348357677566 -0.41274246635378525 0.10584998479783608
v 0.062961183235710858 -0.37345541464193532 0.10977321422575689
v 0.28810347015434179 -0.15006253592715529 -0.10527618429682584
v -0.2879176419411219 -0.72356559635953288 -0.029942483786999718
v -0.29066066332606916 -0.45825756951628532 0.057573070910520094
v -0.28865521977105768 -0.72366318167515131 -0.015520036117219242
v -0.29291765157382982 -0.53772411579974488 0.044089149747500757
v -0.28824784024986377 -0.72415212597632017 -0.00133126839907775
v -0.28744746406853217 -0.72482055578728966 0.012477919840996797
v -0.30560636661786728 -0.4671959480152395 0.043168660621499877
v -0.30676602570299 -0.52238319975786351 0.029354425348379731
v -0.28043882662953418 -0.72473349109393315 0.023255492026312392
v 0.094930667576752781 -0.39671721661430681 0.11671803693000293
v -0.31049294819529311 -0.48805708777491019 0.027475381914661347
v -0.27070492794090434 -0.72442068997473497 0.032562317015713944
v -0.25979413103577431 -0.72428121986771599 0.041054600732118224
v 0.30529982355143614 -0.60641324046540623 -0.05187975288537916
v -0.31340547167624316 -0.45474363761651226 0.025952060248761018
v 0.1593338626213528 -0.37975340710119643 0.10786726314969369
v 0.3071560409487506 -0.57278911883751571 -0.051836868955404944
v 0.28049111670485111 -0.085606295557312348 -0.061852717924256014
v -0.24789217911777578 -0.72437748642146493 0.04886182270476605
v -0.3027480145586039 -0.55712101197449393 0.02888783957778767
v -0.2350867021323062 -0.72459074994559347 0.056247352068563392
v 0.2813800146138774 -0.079497333703730008 -0.10534985393157462
v -0.22128446663060944 -0.72480724308404043 0.06313667206893625
v -0.20646523568253833 -0.72500642377579749 0.069691848854699173
v 0.19175482784960249 -0.38928400852378447 0.10230610543827354
v 0.29598790196284119 -0.1536917134842094 -0.078530866793926152
v -0.19069024386554498 -0.72524789569391701 0.076524488057682971
v -0.17402095389394803 -0.72595151540937275 0.084572438829570773
v -0.31543727313400838 -0.43583576870775398 0.0056051039868056348
v -0.15659163622131791 -0.72676576134133464 0.093024941849639303
v -0.30965174769474285 -0.50880802062310948 0.0075744072941928689
v 0.30877628889033415 -0.58348639623915588 -0.035183903910385922
v 0.3007485918565177 -0.18971881110372238 -0.058144142895619561
v 0.22048706427172893 -0.36762011988061594 0.095779527019893784
v -0.31294844512325293 -0.45580860338130447 -0.014342762329904599
v -0.30636112413685423 -0.53326444381906324 -0.012824918088831939
v -0.30984852287514275 -0.49374555873846937 -0.014007910571106365
v 0.089491861814546533 -0.40716838003547462 -0.16627465062568733
v 0.30377888880081372 -0.59396533706905252 -0.016986251351552534
v 0.27205385841683494 -0.34126635517848969 0.077227606281550273
v 0.28914541197916754 -0.11940237468022948 -0.0707014335738511
v 0.18522650310257407 -0.33680773310545231 -0.181127954767833
v 0.067347095730679749 -0.37228925585646072 -0.17395944614139586
v 0.25706085548130253 -0.39292058051226714 -0.12544170207401034
v -0.21825850509814124 -0.42983338587267661 0.093874420878826512
v 0.25379636949544865 -0.38620315911726211 0.088248770065694371
v -0.30493840529497729 -0.51611241753257397 -0.035437262975371892
v -0.30581292355624945 -0.44954174511180112 -0.058131324921618016
v -0.31082838559930642 -0.31125788655595027 -0.033460825640413402
v 0.29780230364921334 -0.58738848332753346 0.004091200845909311
v -0.29802654272052298 -0.53410957937130243 -0.058460605753559353
v 0.08826738086362014 -0.10780946039336135 0.098311339943873394
v 0.28258795804102776 -0.38138516003849388 0.069922006237441076
v -0.30159754199214001 -0.49138642878138417 -0.059793880584746509
v -0.29552984563424012 -0.46506957290622508 -0.083390671915865244
v -0.28372258373571879 -0.43730398772442486 -0.10427230067666739
v 0.28973876769198037 -0.60914743738265786 0.020316469076075913
v 0.29179661050913763 -0.41349093471225096 0.052883163570326748
v -0.28821471291749229 -0.55392370239441713 -0.080510269149593139
v -0.30026500708397241 -0.30537139734585966 -0.08595713056707846
v 0.29236894445634148 -0.15491864089201862 -0.052049629441018805
v -0.17573973240878013 -0.099286032874388447 0.068023845533592281
v 0.29698190504319877 -0.37080637870040367 0.042070844044639101
v 0.30796951597370359 -0.35846566452022366 0.014067284802773028
v 0.0083938672358609533 -0.27874101508291249 -0.20090761262616322
v 0.051970135451635965 -0.27452555308945725 -0.20053805330672717
v 0.29178588730218086 -0.56482209934741912 0.02572731038602534
v -0.28869747158429193 -0.50969888349603631 -0.086962201496040031
v 0.28023034353757076 -0.63295589262961571 0.036179152776902881
v 0.30268727346094221 -0.40367269696558605 0.02817759648109968
v 0.12988329973549434 -0.08036616411375147 -0.24180897150236388
v 0.10109303808457423 -0.082770665004375271 -0.2415913998615544
v 0.29350162949522884 -0.18729754941276763 -0.028194727750731237
v -0.12587962237986922 -0.3641165450487901 0.10677396260812902
v 0.072205694125944173 -0.085174232677286521 -0.24200635002054319
v -0.21799423793161227 -0.38910319968002072 0.096663518946524904
v 0.31010057655411982 -0.39936147252991788 0.0059481780210162497
v 0.31522792793076815 -0.37799420833896391 -0.01313211067839593
v 0.043197286427796543 -0.087321176474759288 -0.24269775414028383
v 0.28419167986932287 -0.14483340434224853 -0.029530046373643384
v -0.26887017191147966 -0.54484430649910298 -0.099187432973679796
v 0.014059909495116731 -0.08937998631081287 -0.24449623077505431
v 0.003900909357302273 -0.1253578901847974 -0.23822014339435116
v -0.26807666127831214 -0.29773554622425957 -0.13710121695993388
v -0.014827242816902664 -0.091772864731389431 -0.24802940819910968
v -0.043227889710216495 -0.094851480776347308 -0.25376682567054898
v 0.3193892754139328 -0.40154837777697355 -0.036335401074449353
v -0.24788612538314583 -0.44397097656127327 -0.12241398706538416
v -0.23199170537050845 -0.28625756525045798 -0.16036519113359357
v -0.19545733046893712 -0.26085911003581841 -0.1841799094114937
v -0.25718983577985632 -0.51243607628084953 -0.10754355278283106
v 0.28164224777565922 -0.16915469527191601 -0.0041081504707550093
v 0.26840584674240375 -0.078325158294936276 -0.026675343706723899
v -0.23992870259425109 -0.61891930816098595 -0.10923340151558802
v -0.068545445441382524 -0.3810436339373533 0.09536737862605929
v 0.31744554946310871 -0.39658338928804854 -0.06356442071368959
v 0.040776058046956692 -0.30861822172973752 -0.19110755039271887
v -0.21474651893732744 -0.424115415189947 -0.14214304267814701
v 0.26291208040315445 -0.087187222728665595 -0.0049826854150969713
v 0.012045836036873208 -0.33431761311902697 -0.18485514540099418
v -0.21174256390514076 -0.62917715174007827 -0.11906931570523133
v 0.30544620020401547 -0.38581888385126478 -0.082384015871910535
v -0.2246446164697315 -0.52084349536922581 -0.12009895645829088
v -0.18495435087962353 -0.52345821773162526 -0.13460570988354195
v 0.25447314603212035 -0.089541319232997199 0.017288065822970045
v -0.20869853326046697 -0.49355212833789286 -0.13048934638990439
v -0.18285236667290869 -0.44336669740867762 -0.15159111555674432
v 0.25798557426186647 -0.1691652036017878 0.043514892150804202
v -0.17563949913869192 -0.56624437188641918 -0.13299075079782952
v 0.13568005341896378 -0.54903728121770401 -0.14662163840265147
v 0.27145007883387445 -0.41888247737318152 -0.10919854317484598
v -0.070929110443095369 -0.097729931662265845 -0.25857515318517826
v -0.096997657640622723 -0.098263925011883191 -0.25411991772762632
v -0.15044182547668791 -0.42560742622739722 -0.16903475956372588
v -0.14850430265221626 -0.46285420371579766 -0.16084749553569774
v -0.1492918830231158 -0.50189494971592419 -0.15217354715864292
v -0.1480709151570069 -0.54168275793496456 -0.1460892041244739
v -0.087500667840949356 -0.27117577680448612 -0.21614584553234634
v -0.032650683425681469 -0.30668785555510314 0.095586538000328236
v 0.28049287516598431 -0.58493713897021038 0.046507787392358724
v -0.14590110299190254 -0.096213492181439458 -0.2298989060072695
v -0.16984241095428207 -0.09595734555147209 -0.21755853642597719
v 0.2760729884599698 -0.54532144741899558 0.063288571706127575
v 0.16737639374876312 -0.72575827782117885 -0.15253989047134664
v -0.1931841739899966 -0.096483425257062744 -0.20439475966563145
v 0.22716750543532807 -0.16659470574646473 0.058850263032764819
v -0.21591129200044085 -0.097809568003606073 -0.19026003985178294
v -0.23807657588498826 -0.099328797937537683 -0.17573535200458093
v -0.25195628998144615 -0.10006629077836704 -0.15656037353180971
v 0.28899325431972023 -0.34202291047503974 0.055790477450177539
v 0.23997659994526682 -0.078343234645076518 0.032109432192857931
v -0.25744975727970248 -0.10019843671527009 -0.13392231605893257
v -0.26233723311775653 -0.1004697669652318 -0.11190294837597672
v -0.26707000783760049 -0.10101571265130616 -0.090213350629998565
v 0.23402645993993373 -0.33095988874906757 -0.15267308597664353
v -0.27166272630284533 -0.10201816569827429 -0.068817926461084922
v 0.21867208337874183 -0.089856592057389342 0.045015726956467328
v -0.27591529616640748 -0.10350582519604568 -0.047579054236627047
v -0.11178387579822378 -0.5621142673613222 -0.15144062603449165
v 0.19676692091348164 -0.18225140158975642 0.071562428994313088
v 0.1915675824172085 -0.46682215588580489 -0.14980727594700222
v 0.1652720099086577 -0.49507125920993589 -0.1616839781713949
v 0.16540926351532254 -0.46390306168184064 -0.1669398445032341
v 0.2843932806264845 -0.08248915906855836 -0.083151903386728815
v -0.11233713152285615 -0.52160105408407698 -0.1568934471750956
v 0.16521818634175151 -0.43342054075287362 -0.17323967127952131
v -0.11043872217718734 -0.44253256269541597 -0.17415636854551109
v 0.18899294941603756 -0.43214056401731216 -0.15799233725104403
v 0.16514441638564131 -0.40319275350270911 -0.17961964258621227
v -0.27900370843110806 -0.10493922696377361 -0.026565463365307712
v 0.31870101321970989 -0.35392411303871596 -0.034215292909905146
v 0.19162990011036157 -0.090453765488307955 0.055214541717641952
v -0.0754244269836713 -0.5421111483887513 -0.1475794618473491
v -0.27437097885171718 -0.10502127118557472 -0.0084050422613528991
v -0.26083143277503068 -0.10405664959456168 0.0077972144821166489
v 0.16196519913187937 -0.12020391800315429 0.071474346283786516
v 0.21548968680136721 -0.20263144243072953 -0.17680076858881374
v -0.11121304992517889 -0.48175252655186807 -0.16466569988659405
v -0.067252037756844935 -0.41489619659223215 -0.17263584908340243
v 0.16638571609791794 -0.08055239886087362 0.063375516977578733
v -0.072496147097189642 -0.50063352122802018 -0.15427539476757124
v 0.16746230540598478 -0.2016473919286452 0.08414825022066838
v -0.034955094707797445 -0.5226519503043292 -0.14276735961755493
v -0.15688781686090217 -0.40568959395357096 0.11591286647509805
v -0.25661000461710326 -0.13598422883735428 0.023910349134272479
v 0.11634534465609107 -0.088355557270732729 0.087718920410855439
v 0.1217403680074105 -0.1206157943370865 0.088427752088054479
v 0.14094495949883321 -0.088911032241306504 0.075866948663833894
v -0.00042588607619188141 -0.54709300075022582 -0.13482837894852742
v -0.028927979569152582 -0.48200415400747898 -0.1500542263124082
v 0.011858345536265316 -0.50609048641064014 -0.14128278789221957
v -0.078879357725742935 -0.56458120795354749 0.081943042590034015
v -0.026420209007130779 -0.44215487028116729 -0.15900361941145164
v 0.2114374436110435 -0.12826841817471185 -0.18262653098633691
v 0.019589552567338128 -0.46648519011592604 -0.1495129907672556
v 0.18708019238584092 -0.14915157041473859 -0.20402631813590197
v 0.092292303949708887 -0.22850727330003048 -0.21365317425968494
v 0.096662065120701052 -0.18585306336228705 -0.22336790119514657
v 0.23525340896151908 -0.55940357068142721 0.082816779928797643
v 0.18626058301198387 -0.54146708342608341 0.093700564245669499
v 0.07177977565320133 -0.48999332001928658 -0.14534658269631884
v 0.062057781783770166 -0.4422556591732808 -0.15577520377830462
v -0.12157438892217458 -0.097098710441286235 -0.24189013230206932
v 0.14345416973916297 -0.18373694686501524 0.088722708245212445
v 0.11100279176717052 -0.1894486536833537 0.10121009098884259
v -0.27997018860643347 -0.69216031212131612 -0.07912206175473506
v 0.14351527530204033 -0.6067479530617288 0.094536167608284399
v 0.15351802019926208 -0.55623933734559505 0.097461902831552649
v -0.27870939072696393 -0.72394753322085537 -0.076222631217978912
v 0.09206519029700988 -0.15420235852644706 0.10137209257553756
v 0.10853483076674962 -0.68942949910798546 -0.131767406778592
v 0.11551071526539645 -0.72522391294052224 -0.1344863661609583
v -0.13328373921093614 -0.62766222591655352 0.089698055270754556
v 0.14270582783993982 -0.72548378945684888 -0.14344136583651931
v -0.1413921750075601 -0.096720801695635128 0.092690264617675155
v 0.22971820519001976 -0.14273427639559161 -0.16566431047449165
v -0.15861460524077178 -0.098400695352303835 0.080281169342753644
v -0.17965616437718399 -0.64743055681468575 0.087306446153359502
v 0.079483390317897432 -0.58571260545153181 0.10133402952737081
v -0.082064704008901632 -0.1189979170048656 0.089963171741553605
v -0.0077866971122716264 -0.67524186057342317 0.07389731038593092
v -0.0308517777856776 -0.64571732188146957 0.073710768963731466
v 0.033804027468342289 -0.64827329435739556 0.08354007193170912
v 0.22426120992682785 -0.24436147886448165 -0.16809047489018514
v 0.071253706461487043 -0.63457903282464823 0.095825568662123939
v -0.06557551590541455 -0.64202041935537646 0.074382943365692539
v 0.21939686638092198 -0.64742513906224819 0.077039645181638222
v 0.071497849964149526 -0.20578716626187987 0.10499301369217626
v 0.052778287199214131 -0.17631819357713688 0.099733017709596666
v 0.20167884555694288 -0.13376898857015906 0.05995762720729142
v 0.04106482136946344 -0.60170982034006171 0.087991184719852206
v 0.24189470528417331 -0.12493564017798539 0.042444383884154502
v 0.26601464784245493 -0.13762977405165414 0.016214134403420552
v -0.049133562414731276 -0.1193898480841262 0.088266441641677795
v 0.0041756039931394717 -0.57974996726560479 0.081277937888678042
v 0.046358081636250062 -0.54997696164529442 0.092849586835520664
v 0.27366730972426329 -0.12197242180233994 -0.013264333072032786
v 0.27709915736745649 -0.10103504479220989 -0.038556394978536093
v 0.0025051203701224566 -0.62484175400993258 0.078115533120360708
v 0.28486422912441772 -0.12164123449588057 -0.050358903017271806
v 0.28815113005043047 -0.65312423043900203 0.014178671231692849
v 0.29807679763288414 -0.63541684333236337 -0.0082648900178320297
v -0.038264720255588421 -0.56246818215902561 0.079029535058048189
v 0.30541236860288756 -0.63455828951038429 -0.036216740127746241
v 0.28926378841476202 -0.11608089149394137 -0.094380947205374988
v -0.033828569886456425 -0.60636658288907197 0.075969560332151853
v 0.046602112317573247 -0.460003839733579 0.10040142741048136
v 0.10907188569783031 -0.62339234344863026 0.10166179908046682
v 0.16825013616253545 -0.63685954491823327 0.087120154204120392
v 0.19867721236147312 -0.62006370158110868 0.083608576103487847
v 0.28809185354460826 -0.45641853109192831 0.055790211334093731
v 0.31672238201740249 -0.44944898724909177 -0.030696647694793685
v -0.073498086282879307 -0.60157904299488441 0.077990270628513464
v 0.31590198613336706 -0.47451882800293305 -0.050062114859129488
v 0.26899201803827011 -0.62384997543068599 0.059434674870578269
v 0.24630674380160758 -0.632970996421926 0.07244322193045255
v -0.09758216742777362 -0.53497404597965148 0.087460208677839907
v -0.1370913538694678 -0.4991689084518226 0.10145237431491438
v 0.020629959114887665 -0.16697347868783152 0.094274145783579483
v -0.016136239708067164 -0.11740460819624693 0.088490319243005655
v -0.12832042118101497 -0.46288461140819837 0.10153861925597799
v -0.091576148251000397 -0.28722164462169164 0.099350543093048999
v -0.11648501657679135 -0.32602739384701823 0.10467701548669281
v 0.19947807935192227 -0.64199351208698796 -0.13090512090616399
v -0.038990200851352803 -0.1517189820929874 0.089629397759420054
v 0.21999396590933212 -0.55888785131322039 -0.1215786476302709
v -0.088552483777807015 -0.20222911409497249 0.095443203109825653
v -0.062110286455774849 -0.18089908028323137 0.091815436814543794
v -0.11931019445527993 -0.20662075933049026 0.10040074621934481
v 0.21851700567041876 -0.67947508649682486 -0.12169593454561137
v 0.24173639242859452 -0.54451138960455747 -0.10970582377197544
v -0.015948824724302819 -0.337644305572397 0.095773550637339028
v 0.21171575904311435 -0.45322313710181628 0.096498272189225034
v 0.29646962873785776 -0.27603618608889885 0.020562391982646783
v 0.24568836725502866 -0.67777753556518883 -0.10787629654014451
v 0.31087227734229789 -0.46684122306530029 -0.0075324627829738682
v 0.30895561607322092 -0.31762857019602853 -0.085830842790936349
v 0.30430440617430199 -0.46215207099860278 -0.070772879643327319
v 0.26948695342826634 -0.6772107574266687 -0.092462617713422721
v 0.23693127337186679 -0.46776120534885951 -0.12293747349058209
v 0.22025223724246101 -0.36535082115959927 -0.15405872694362999
v 0.2976877826086215 -0.63972401149487967 -0.063115070995263797
v 0.28759855845364835 -0.67818737600372114 -0.075324498777267282
v 0.25829803999328727 -0.10264846293365258 -0.13804514098455167
v -0.0062976056889367752 -0.14961390963276067 0.090670607881229437
v -0.020169150516123707 -0.19076591532760886 0.091746394506912382
v 0.3011039499067632 -0.68073937703180154 -0.055031462161757895
v -0.10082484605145546 -0.23122636432478866 0.098600613674714788
v -0.073240554528341481 -0.25166847834549061 0.095881335376870325
v 0.23763054357219454 -0.10515705640389199 -0.1583113375733434
v 0.30064712383895487 -0.68047053659053747 -0.029173878480277481
v 0.31400719615337547 -0.33689567272890864 -0.012314650273908169
v 0.19440164656357581 -0.26551071064409859 -0.18782501763322224
v 0.30335708075715312 -0.55781916990089742 -0.005646506055747005
v 0.29358051581899003 -0.68211582236058377 -0.0062121250907532892
v 0.19332347237731556 -0.50179804270209338 -0.14311883053500454
v 0.2853071268339249 -0.69250391523371913 0.01230096327445318
v 0.20929821444605992 -0.33069622379526087 -0.16739498248142509
v 0.27735378246036746 -0.68078124767143755 0.03173457354022359
v 0.27099586363988026 -0.65845635822742654 0.048615767237938159
v -0.045592223479905949 -0.41019647592907649 0.091994710049458001
v 0.26974934554245017 -0.14502958930184542 -0.12713423768141374
v 0.24968529940670153 -0.1412336627424437 -0.14724259926366406
v 0.19343454257006204 -0.36849372180268081 -0.16925381205117934
v 0.25693748090928809 -0.66749499436044091 0.063789624719389398
v 0.30430201045815175 -0.54270019002196579 -0.059931406960751658
v 0.25771942785160123 -0.54384572215041671 0.077854621587328754
v 0.20729806949023052 -0.57357841192841785 0.087024553194055138
v 0.30852803725628092 -0.54552393595055404 -0.0214485304444588
v 0.31157790000087587 -0.54292782573132214 -0.040175781288407007
v 0.19016940101120486 -0.67115295049510215 0.080080496931251244
v 0.1344595439013824 -0.2148904280863731 0.096486099279737197
v 0.21930175636805152 -0.21197956441715321 0.071519575944303942
v 0.28748968691386101 -0.53456932943900748 0.042648358564447868
v 0.23095409171273742 -0.63734217429011775 -0.11392564568397769
v 0.1346080001027983 -0.66366006791081023 0.091551730309696017
v 0.0032913384505700361 -0.36563713932766501 0.096650587556228074
v 0.24340996188584882 -0.51536107021292854 0.0849038212848746
v 0.21648782150564674 -0.52837141637356633 0.089700945809887231
v 0.27753682356169396 -0.52022925441212009 -0.087588604181856267
v 0.098267607873481974 -0.67604398030822743 0.097644345755569073
v 0.29470723530954684 -0.22863540425583395 -0.1035956861792772
v -0.1563034884415746 -0.37687338513943253 0.1167510632287625
v -0.15782494625339671 -0.52737329778728825 0.10721602442014677
v -0.064380067665684299 -0.5332383203581379 0.08296967954115303
v 0.060582979752507538 -0.68002398011998899 0.090845449237444753
v 0.30732901930051298 -0.22039140578633012 -0.072216270250874098
v -0.15774372297093966 -0.43492396139897416 0.11416573112073924
v -0.15512952386319212 -0.34860389657188562 0.1167627886082048
v 0.026327008896559433 -0.68939760480447543 0.080388849971907289
v -0.11461200219355135 -0.26215700868424952 0.1026619945120254
v -0.15010790483463851 -0.26529973271763824 0.11175852910902628
v 0.055236923555613403 -0.13778981868848947 0.097934319512535589
v -0.049440018380663774 -0.68124348674937318 0.071596558857361908
v 0.054412373441530701 -0.10038929532219867 0.095788212713375426
v 0.23579069637790639 -0.67912210405028151 0.070550896693713991
v 0.034924201420600529 -0.35863345186034257 0.10255098559712642
v 0.19470760114056079 -0.10796141535229113 -0.19934826844874109
v -0.088970198696117192 -0.68070782568253041 0.075275770748935072
v 0.23552356564024718 -0.17486228069784371 -0.16040426972332886
v -0.12678285618798912 -0.67537325506636092 0.084940791047636327
v -0.10168354110624812 -0.63516512553658233 0.080209783504075483
v 0.22154647643837191 -0.29005836523895451 -0.16626865924966394
v -0.12653846260279461 -0.29345793584012125 0.10657759874124056
v -0.13067260106348325 -0.54298047788526738 0.095386476784663249
v -0.15808334539031907 -0.55912522948601062 0.10420059766903655
v -0.1576777294613497 -0.46498548546353491 0.11220423799226714
v 0.26534971935345097 -0.69247584709245924 0.050800239864795607
v -0.15744889614276464 -0.49590801824896602 0.10991466079147402
v 0.25853803356417221 -0.62793042200895655 -0.097548963223510018
v 0.27848400735080731 -0.37796919789160743 -0.11162814825125332
v 0.29668961220660706 -0.35253400270291496 -0.098102117027920696
v 0.12495912354623352 -0.36563251084736526 0.11408137096792079
v 0.018817996854883948 -0.42831985079234008 0.095726954053512531
v 0.13257249969311191 -0.41097591492734853 0.11221692292702756
v 0.28133636789148192 -0.63482350523340147 -0.080484528928733728
v 0.21266240711280757 -0.68921076775548307 0.074380386833545503
f 555 540 123
f 389 162 497
f 567 540 568
f 583 104 251
f 463 489 430
f 453 94 255
f 483 484 162
f 446 640 671
f 574 577 251
f 50 244 238
f 52 244 50
f 575 57 53
f 55 249 52
f 55 2 250
f 577 248 563
f 575 437 432
f 57 597 589
f 2 265 262
f 589 592 57
f 262 259 2
f 5 267 262
f 602 606 589
f 5 9 11
f 58 606 610
f 11 272 5
f 12 278 11
f 565 793 8
f 630 60 632
f 13 425 12
f 424 289 160
f 289 424 13
f 643 649 60
f 181 403 179
f 483 206 484
f 163 651 174
f 53 563 558
f 651 65 650
f 163 389 384
f 683 66 65
f 455 558 563
f 165 384 171
f 340 331 34
f 67 66 683
f 206 470 63
f 385 102 856
f 67 702 70
f 344 340 696
f 179 403 406
f 710 70 702
f 16 352 14
f 111 112 59
f 63 64 655
f 18 368 16
f 710 742 753
f 119 112 111
f 394 671 545
f 551 922 903
f 19 375 18
f 753 740 711
f 406 470 179
f 261 615 108
f 545 453 439
f 178 386 530
f 24 386 23
f 72 753 742
f 26 396 24
f 768 765 72
f 119 142 112
f 32 63 470
f 112 142 161
f 399 400 396
f 154 343 182
f 545 671 448
f 399 415 400
f 768 770 765
f 32 406 410
f 418 415 399
f 770 183 777
f 387 300 166
f 415 418 422
f 105 86 299
f 169 42 839
f 170 142 119
f 173 172 705
f 329 638 343
f 134 738 737
f 185 638 329
f 692 661 145
f 150 74 741
f 637 345 873
f 132 145 661
f 170 184 142
f 138 495 760
f 138 136 188
f 136 194 188
f 201 87 194
f 270 87 205
f 216 49 210
f 46 216 724
f 198 184 170
f 43 96 907
f 219 39 218
f 45 43 41
f 224 37 219
f 498 224 514
f 86 105 342
f 225 36 514
f 378 107 110
f 80 233 107
f 22 41 43
f 198 217 849
f 41 581 45
f 103 233 76
f 76 40 103
f 222 217 214
f 678 100 40
f 98 41 22
f 366 41 98
f 40 76 678
f 215 4 284
f 215 98 21
f 537 536 92
f 222 234 217
f 904 537 92
f 460 462 30
f 284 471 366
f 222 239 246
f 586 903 759
f 462 28 30
f 246 234 222
f 454 449 28
f 237 391 924
f 560 319 921
f 246 888 252
f 431 471 282
f 455 560 391
f 319 560 241
f 50 238 793
f 50 566 52
f 52 574 55
f 258 263 510
f 244 52 249
f 55 253 2
f 284 792 657
f 303 670 667
f 303 100 674
f 250 249 55
f 273 274 252
f 251 253 574
f 100 303 301
f 301 570 100
f 104 261 257
f 677 100 678
f 273 285 274
f 257 2 253
f 2 257 265
f 250 2 259
f 570 568 40
f 752 292 293
f 294 296 285
f 285 296 274
f 684 497 679
f 277 274 296
f 440 447 442
f 579 489 463
f 692 329 695
f 259 262 267
f 871 736 360
f 262 271 9
f 40 100 570
f 570 567 568
f 203 128 270
f 310 296 294
f 305 296 310
f 87 270 194
f 9 5 262
f 5 272 600
f 276 9 271
f 9 276 11
f 272 11 278
f 302 323 310
f 568 103 40
f 108 615 89
f 280 11 276
f 11 280 12
f 103 568 540
f 278 12 425
f 323 337 328
f 283 12 280
f 12 283 13
f 283 297 289
f 289 13 283
f 540 561 231
f 425 13 424
f 209 288 205
f 291 125 286
f 346 337 323
f 49 304 288
f 173 350 351
f 297 654 314
f 347 158 864
f 304 47 311
f 47 304 49
f 47 46 481
f 360 361 855
f 501 684 146
f 481 311 47
f 46 39 481
f 343 695 329
f 314 289 297
f 289 314 160
f 481 321 308
f 481 39 321
f 325 122 321
f 325 321 37
f 37 321 39
f 333 160 314
f 324 266 333
f 527 107 231
f 84 121 325
f 36 327 498
f 160 333 34
f 327 120 84
f 36 82 371
f 277 393 390
f 689 34 333
f 34 689 340
f 313 34 331
f 266 334 689
f 334 260 341
f 340 335 331
f 107 527 110
f 54 404 405
f 696 14 344
f 61 401 44
f 38 299 407
f 358 14 348
f 14 358 16
f 344 14 352
f 356 704 712
f 352 16 368
f 413 62 417
f 370 16 358
f 16 370 18
f 175 705 134
f 713 115 110
f 371 27 378
f 27 371 82
f 381 18 370
f 18 381 19
f 368 18 375
f 80 378 27
f 19 381 235
f 19 395 23
f 19 23 178
f 202 506 913
f 23 395 24
f 386 24 396
f 398 24 395
f 24 398 26
f 26 398 220
f 26 412 399
f 396 26 399
f 418 399 412
f 164 180 444
f 444 443 164
f 175 173 705
f 685 84 120
f 422 300 415
f 685 121 84
f 172 169 300
f 172 300 422
f 78 80 27
f 226 365 78
f 89 615 114
f 240 485 309
f 134 737 175
f 226 27 82
f 245 459 452
f 187 186 140
f 243 459 245
f 189 187 130
f 581 466 579
f 467 472 637
f 308 122 240
f 138 579 466
f 430 255 463
f 499 435 430
f 453 430 435
f 435 440 439
f 435 499 450
f 243 479 281
f 308 321 122
f 897 438 584
f 439 453 435
f 243 281 893
f 450 440 435
f 480 859 865
f 440 449 447
f 442 439 440
f 450 449 440
f 447 449 454
f 492 488 493
f 127 458 456
f 449 456 28
f 82 225 708
f 454 28 462
f 28 456 30
f 456 450 127
f 30 456 458
f 225 82 36
f 30 464 460
f 506 507 502
f 126 469 125
f 287 508 509
f 207 507 506
f 410 460 32
f 126 306 477
f 460 464 644
f 644 32 460
f 32 644 63
f 475 31 576
f 470 406 32
f 64 63 644
f 306 309 477
f 125 464 458
f 528 795 511
f 516 523 524
f 655 206 63
f 206 655 484
f 206 474 470
f 162 679 497
f 316 322 822
f 313 160 34
f 37 498 325
f 523 316 534
f 497 684 501
f 501 146 505
f 146 512 503
f 505 503 513
f 263 515 510
f 512 120 115
f 503 512 91
f 517 513 503
f 115 713 91
f 458 203 125
f 315 547 548
f 91 512 115
f 547 330 336
f 91 713 88
f 517 88 522
f 552 548 547
f 532 88 713
f 88 532 519
f 552 336 553
f 522 519 541
f 527 231 561
f 127 128 458
f 538 660 692
f 514 36 498
f 224 498 37
f 538 692 695
f 114 626 631
f 553 342 105
f 219 37 39
f 555 660 561
f 127 450 499
f 891 199 824
f 660 555 661
f 218 39 46
f 199 97 886
f 366 98 284
f 22 21 98
f 41 366 581
f 43 232 22
f 907 232 43
f 96 536 907
f 45 463 255
f 45 581 463
f 255 94 96
f 255 96 45
f 94 453 545
f 448 546 545
f 582 593 594
f 595 584 438
f 216 46 47
f 216 47 49
f 551 640 558
f 558 640 569
f 49 288 209
f 793 565 50
f 569 53 558
f 566 50 565
f 209 210 49
f 841 351 350
f 574 52 566
f 578 53 57
f 612 609 423
f 53 578 563
f 575 53 569
f 597 432 211
f 253 55 574
f 57 575 597
f 578 57 592
f 592 583 578
f 627 609 612
f 584 621 628
f 603 589 606
f 602 589 597
f 634 819 627
f 610 606 602
f 835 318 229
f 626 606 58
f 610 624 58
f 58 624 630
f 632 58 630
f 634 884 869
f 58 632 626
f 60 642 632
f 642 60 649
f 60 630 181
f 650 649 643
f 662 652 645
f 656 628 621
f 621 636 656
f 658 659 204
f 64 644 469
f 466 495 138
f 694 377 700
f 468 471 431
f 663 650 65
f 628 656 668
f 679 162 484
f 65 686 663
f 672 673 659
f 686 65 66
f 683 65 651
f 468 431 478
f 683 693 67
f 685 146 684
f 146 685 512
f 696 340 689
f 66 67 701
f 473 495 478
f 66 698 686
f 702 67 693
f 668 675 687
f 701 698 66
f 405 690 54
f 701 67 70
f 54 690 564
f 14 696 348
f 711 70 710
f 699 70 711
f 702 709 710
f 229 318 236
f 657 282 471
f 710 709 742
f 753 756 740
f 756 753 72
f 742 754 72
f 72 754 768
f 72 765 756
f 766 765 770
f 490 193 496
f 130 772 496
f 770 776 766
f 15 719 168
f 87 201 148
f 183 770 768
f 201 194 136
f 422 705 172
f 633 777 338
f 777 633 150
f 408 74 633
f 638 185 408
f 106 730 258
f 688 379 694
f 275 631 118
f 185 692 145
f 197 750 749
f 736 737 738
f 263 258 730
f 738 741 743
f 185 145 143
f 743 741 744
f 744 741 74
f 744 467 879
f 132 140 145
f 123 132 661
f 741 738 150
f 123 540 567
f 773 772 567
f 738 134 150
f 78 27 226
f 238 623 1
f 264 279 779
f 776 150 134
f 134 705 420
f 695 541 538
f 104 599 261
f 365 681 680
f 761 762 763
f 365 678 76
f 76 78 365
f 411 156 420
f 156 411 220
f 541 519 538
f 220 764 156
f 76 233 78
f 80 78 233
f 168 789 387
f 70 699 701
f 398 395 228
f 434 437 445
f 779 780 887
f 428 432 434
f 926 317 706
f 197 749 745
f 213 6 4
f 279 785 780
f 419 427 428
f 148 201 745
f 454 462 419
f 526 782 783
f 381 734 235
f 410 414 419
f 493 769 913
f 511 4 215
f 4 511 213
f 406 414 410
f 208 731 729
f 21 511 215
f 210 728 727
f 794 800 823
f 511 21 529
f 470 474 179
f 724 218 46
f 227 110 115
f 118 280 275
f 219 218 722
f 806 800 794
f 803 804 256
f 716 778 225
f 224 219 720
f 407 86 690
f 356 734 381
f 389 497 380
f 809 795 528
f 810 806 811
f 717 716 514
f 497 501 380
f 317 697 429
f 810 818 821
f 913 771 202
f 341 698 699
f 373 376 159
f 369 177 373
f 341 260 698
f 260 334 266
f 365 226 681
f 517 522 354
f 828 821 818
f 354 362 364
f 569 640 446
f 519 522 88
f 767 828 818
f 266 324 676
f 602 597 211
f 804 834 256
f 121 240 122
f 345 868 918
f 610 602 211
f 169 839 166
f 427 195 211
f 643 179 174
f 683 651 165
f 693 683 171
f 627 884 634
f 324 654 676
f 846 397 841
f 841 397 374
f 362 709 369
f 580 397 846
f 192 188 190
f 192 499 489
f 128 192 190
f 270 205 203
f 205 288 286
f 291 306 126
f 208 148 733
f 288 304 291
f 304 311 306
f 311 481 308
f 286 125 203
f 283 118 297
f 589 599 592
f 283 280 118
f 227 115 120
f 747 805 732
f 707 226 82
f 107 378 80
f 275 114 631
f 118 646 297
f 89 114 275
f 231 233 103
f 87 209 205
f 816 872 870
f 271 108 89
f 248 560 455
f 248 241 560
f 108 271 265
f 566 565 241
f 86 876 690
f 622 244 619
f 517 91 88
f 574 566 248
f 715 662 889
f 244 249 618
f 249 250 614
f 882 465 718
f 253 251 257
f 774 465 882
f 250 259 608
f 883 494 774
f 921 391 560
f 259 267 604
f 54 564 847
f 251 577 583
f 600 267 5
f 89 276 271
f 503 91 517
f 690 405 407
f 275 276 89
f 892 573 582
f 272 278 596
f 248 577 574
f 280 276 275
f 425 588 591
f 425 424 781
f 781 313 572
f 424 313 781
f 572 585 781
f 314 654 324
f 136 197 201
f 313 557 572
f 237 551 558
f 554 331 335
f 334 341 348
f 760 136 138
f 335 344 549
f 341 699 704
f 348 696 334
f 921 319 7
f 358 348 704
f 344 352 544
f 912 582 594
f 903 586 551
f 352 368 543
f 381 370 356
f 368 375 539
f 788 8 3
f 535 375 178
f 221 795 809
f 828 767 562
f 559 833 920
f 921 920 899
f 546 448 898
f 903 922 836
f 38 903 299
f 235 228 395
f 405 669 407
f 546 92 94
f 400 518 520
f 92 546 904
f 639 35 926
f 386 396 525
f 927 926 33
f 928 605 930
f 200 490 298
f 94 545 546
f 96 92 536
f 927 56 852
f 143 472 408
f 220 412 26
f 400 520 521
f 412 220 411
f 109 113 152
f 920 832 559
f 418 412 411
f 152 113 746
f 387 789 786
f 420 418 411
f 746 161 867
f 418 420 422
f 490 773 298
f 496 772 773
f 394 442 445
f 562 767 832
f 739 636 820
f 204 725 658
f 773 490 496
f 725 223 635
f 447 454 428
f 472 186 637
f 215 284 98
f 189 130 496
f 458 464 30
f 410 462 460
f 125 469 464
f 635 247 487
f 487 269 629
f 641 487 629
f 268 269 487
f 269 393 629
f 390 269 268
f 469 126 64
f 349 761 763
f 655 64 477
f 303 674 670
f 290 393 277
f 611 290 928
f 163 474 483
f 928 307 605
f 635 641 648
f 531 605 533
f 677 674 100
f 477 309 485
f 506 202 207
f 679 485 240
f 240 121 684
f 312 912 594
f 684 679 240
f 121 685 684
f 186 187 345
f 503 505 146
f 912 332 892
f 772 130 132
f 685 120 512
f 501 505 159
f 725 648 658
f 505 513 373
f 513 517 364
f 892 847 564
f 110 527 713
f 714 847 339
f 522 541 154
f 51 714 346
f 231 103 540
f 714 51 404
f 541 695 343
f 567 772 123
f 502 500 506
f 578 577 563
f 867 659 673
f 577 578 583
f 597 575 432
f 592 104 583
f 913 492 493
f 845 167 839
f 599 104 592
f 386 178 23
f 599 603 615
f 110 227 378
f 615 261 599
f 706 402 639
f 603 626 114
f 132 123 772
f 624 610 195
f 409 706 317
f 746 673 682
f 114 615 603
f 120 327 227
f 624 414 403
f 691 429 697
f 642 631 632
f 642 118 631
f 429 433 853
f 646 118 642
f 642 649 646
f 152 682 691
f 682 433 691
f 181 643 60
f 654 297 646
f 122 325 121
f 140 130 187
f 421 416 617
f 123 661 555
f 309 308 240
f 698 260 686
f 702 693 177
f 698 701 699
f 672 441 436
f 291 126 125
f 109 691 697
f 143 140 186
f 874 872 816
f 665 441 672
f 188 192 489
f 665 658 653
f 712 704 699
f 653 451 665
f 927 697 317
f 712 740 734
f 648 461 653
f 178 375 19
f 923 880 116
f 641 461 648
f 740 756 748
f 748 758 228
f 926 706 639
f 479 641 482
f 754 742 362
f 354 754 362
f 407 669 38
f 203 458 128
f 482 629 620
f 756 765 758
f 182 754 154
f 128 127 192
f 254 246 252
f 611 382 620
f 764 398 228
f 499 192 127
f 764 766 156
f 766 776 156
f 930 611 928
f 420 156 776
f 140 132 130
f 788 7 8
f 387 166 168
f 420 776 134
f 136 760 197
f 300 387 415
f 750 197 760
f 745 201 197
f 148 208 209
f 733 148 745
f 258 35 106
f 593 533 605
f 731 208 733
f 236 318 910
f 729 210 208
f 728 210 729
f 727 216 210
f 188 489 579
f 929 573 556
f 724 216 727
f 573 929 582
f 723 218 724
f 722 218 723
f 720 219 722
f 717 224 720
f 514 224 717
f 188 579 138
f 876 556 573
f 707 681 226
f 898 904 546
f 472 143 186
f 212 795 221
f 899 391 921
f 854 925 931
f 213 795 212
f 140 143 145
f 404 54 714
f 833 922 924
f 415 387 786
f 143 408 185
f 238 3 793
f 1 3 238
f 31 799 752
f 622 238 244
f 918 799 515
f 380 376 171
f 915 752 357
f 617 476 421
f 619 244 618
f 618 249 616
f 616 249 614
f 636 739 613
f 388 613 10
f 614 250 608
f 357 791 915
f 383 688 388
f 608 259 607
f 571 438 576
f 295 667 666
f 92 96 94
f 607 259 604
f 372 726 700
f 667 295 303
f 367 726 372
f 604 267 601
f 298 295 207
f 923 875 880
f 363 732 367
f 408 467 74
f 148 209 87
f 298 301 295
f 359 747 363
f 601 267 600
f 359 355 755
f 600 272 598
f 598 272 596
f 353 755 355
f 301 298 773
f 596 278 591
f 747 755 751
f 591 278 425
f 588 425 781
f 388 688 813
f 769 771 913
f 763 353 349
f 202 771 200
f 506 500 913
f 74 467 744
f 773 570 301
f 82 708 707
f 320 647 326
f 500 492 913
f 331 554 557
f 242 910 320
f 344 335 340
f 910 908 647
f 554 335 550
f 239 222 703
f 549 550 335
f 549 344 544
f 166 167 168
f 544 352 543
f 543 368 542
f 17 15 167
f 17 845 157
f 907 536 919
f 157 850 155
f 155 850 153
f 542 368 539
f 150 633 74
f 153 854 151
f 151 854 149
f 149 858 147
f 147 862 144
f 539 375 535
f 759 903 38
f 530 535 178
f 144 862 141
f 141 866 139
f 139 866 137
f 530 386 525
f 137 870 135
f 525 396 521
f 135 870 872
f 133 872 131
f 131 874 129
f 129 923 117
f 923 874 875
f 170 119 902
f 521 396 400
f 20 932 101
f 99 101 932
f 99 886 97
f 95 97 199
f 95 891 93
f 93 896 90
f 518 400 786
f 90 896 85
f 85 901 83
f 83 905 81
f 169 166 300
f 81 905 79
f 77 79 796
f 77 909 75
f 439 394 545
f 75 914 73
f 73 914 71
f 71 916 69
f 442 394 439
f 468 466 366
f 442 447 434
f 7 562 920
f 794 534 811
f 924 899 833
f 434 447 428
f 428 454 419
f 419 462 410
f 38 898 759
f 902 111 897
f 466 468 495
f 526 524 534
f 25 59 56
f 96 43 45
f 895 401 61
f 182 343 338
f 483 389 163
f 483 162 389
f 897 59 25
f 883 894 775
f 776 777 150
f 59 897 111
f 380 384 389
f 774 882 893
f 111 902 119
f 778 708 225
f 501 159 380
f 167 166 839
f 159 505 373
f 176 191 867
f 373 513 369
f 364 369 513
f 850 890 925
f 354 364 517
f 354 522 154
f 177 369 709
f 154 541 343
f 446 445 437
f 376 380 159
f 204 223 725
f 217 198 214
f 214 703 222
f 437 569 446
f 610 211 195
f 414 624 195
f 403 630 624
f 889 718 715
f 160 313 424
f 181 630 403
f 888 246 239
f 179 643 181
f 174 650 643
f 651 650 174
f 163 384 165
f 487 247 268
f 165 651 163
f 171 683 165
f 174 474 163
f 557 313 331
f 475 515 799
f 376 693 171
f 285 273 757
f 177 693 376
f 627 885 884
f 174 179 474
f 509 508 516
f 294 302 310
f 709 702 177
f 709 362 742
f 154 754 354
f 182 338 183
f 780 785 803
f 183 768 182
f 423 413 881
f 183 338 777
f 638 338 343
f 633 638 408
f 590 401 895
f 692 185 329
f 190 188 194
f 515 475 25
f 270 190 194
f 190 270 128
f 195 427 414
f 7 788 562
f 915 878 571
f 877 595 438
f 203 205 286
f 44 48 61
f 474 206 483
f 210 209 208
f 61 62 895
f 413 895 62
f 211 432 427
f 172 42 169
f 398 764 220
f 515 263 918
f 437 575 569
f 228 758 764
f 124 885 426
f 175 871 350
f 84 498 327
f 225 514 716
f 327 371 227
f 918 263 730
f 898 448 759
f 371 327 36
f 839 374 890
f 227 371 378
f 451 441 665
f 228 235 748
f 444 180 457
f 233 231 107
f 187 868 345
f 759 448 586
f 189 292 868
f 734 748 235
f 653 461 826
f 924 922 237
f 292 193 196
f 446 671 394
f 461 641 479
f 922 551 237
f 391 237 455
f 482 641 629
f 918 868 799
f 196 200 293
f 771 293 200
f 558 455 237
f 281 287 894
f 894 893 281
f 248 566 241
f 257 251 104
f 255 430 453
f 257 261 265
f 509 775 287
f 260 266 676
f 509 516 524
f 265 261 108
f 523 516 531
f 322 316 523
f 273 252 888
f 265 271 262
f 811 534 316
f 316 315 811
f 676 686 260
f 366 466 581
f 478 495 468
f 330 547 315
f 547 336 552
f 366 471 468
f 760 495 473
f 657 471 284
f 336 342 553
f 553 900 552
f 832 900 553
f 865 878 791
f 792 284 4
f 31 571 576
f 286 288 291
f 438 571 877
f 906 864 863
f 4 790 792
f 8 7 319
f 303 295 301
f 291 304 306
f 570 773 567
f 739 617 392
f 617 416 392
f 306 311 309
f 309 311 308
f 170 628 668
f 613 739 10
f 739 392 10
f 656 675 668
f 656 815 675
f 680 678 365
f 813 613 388
f 324 333 314
f 687 198 668
f 379 688 383
f 295 666 207
f 815 656 636
f 377 694 379
f 325 498 84
f 689 333 266
f 334 696 689
f 700 377 372
f 861 834 860
f 703 721 239
f 732 726 367
f 834 861 256
f 348 341 704
f 747 732 363
f 356 358 704
f 735 888 721
f 370 358 356
f 735 264 757
f 735 273 888
f 755 747 359
f 369 364 362
f 353 763 755
f 647 761 326
f 761 349 326
f 376 373 177
f 779 757 264
f 780 779 279
f 384 380 171
f 235 395 19
f 736 871 737
f 562 788 917
f 910 647 320
f 785 804 803
f 414 406 403
f 256 323 803
f 813 675 815
f 415 786 400
f 427 419 414
f 422 420 705
f 432 428 427
f 430 489 499
f 587 580 590
f 437 434 432
f 445 442 434
f 446 394 445
f 671 586 448
f 819 609 627
f 456 449 450
f 455 563 248
f 865 791 769
f 581 579 463
f 645 652 817
f 644 464 469
f 652 662 715
f 874 923 129
f 715 664 652
f 694 812 688
f 477 64 126
f 750 760 473
f 485 655 477
f 465 715 718
f 507 207 666
f 465 774 494
f 865 486 480
f 812 675 813
f 485 484 655
f 207 202 298
f 883 504 825
f 493 865 769
f 783 782 504
f 679 484 485
f 202 200 298
f 196 490 200
f 196 193 490
f 877 859 476
f 302 803 323
f 189 496 193
f 814 806 810
f 168 719 789
f 821 814 810
f 391 899 924
f 713 527 532
f 467 408 472
f 302 294 887
f 786 787 518
f 538 519 532
f 561 532 527
f 926 35 33
f 538 532 660
f 540 555 561
f 551 586 640
f 319 241 565
f 660 532 561
f 113 161 746
f 161 176 867
f 8 319 565
f 223 247 635
f 781 585 784
f 620 629 393
f 887 780 302
f 269 390 393
f 671 640 586
f 781 784 588
f 599 589 603
f 393 290 611
f 626 603 606
f 928 290 305
f 623 238 622
f 625 1 623
f 774 893 894
f 312 332 912
f 626 632 631
f 332 339 847
f 847 892 332
f 757 887 285
f 847 714 54
f 793 3 8
f 732 807 726
f 858 931 857
f 675 812 687
f 168 167 15
f 273 735 757
f 920 921 7
f 402 385 639
f 167 845 17
f 638 633 338
f 646 649 663
f 650 663 649
f 845 850 157
f 888 239 721
f 663 654 646
f 706 409 48
f 850 854 153
f 676 654 663
f 429 409 317
f 661 692 660
f 854 858 149
f 676 663 686
f 858 862 147
f 433 429 691
f 678 680 677
f 699 711 712
f 712 734 356
f 711 710 753
f 862 866 141
f 712 711 740
f 682 436 827
f 734 740 748
f 866 870 137
f 214 687 808
f 748 756 758
f 664 816 652
f 872 133 135
f 198 687 214
f 754 182 768
f 872 874 131
f 665 659 658
f 758 765 766
f 658 648 653
f 766 764 758
f 776 770 777
f 668 198 170
f 117 923 116
f 787 786 789
f 929 330 822
f 533 822 322
f 556 336 330
f 531 322 523
f 899 920 833
f 662 444 889
f 346 323 256
f 491 482 620
f 116 880 911
f 911 20 116
f 382 491 620
f 911 932 20
f 932 886 99
f 645 443 662
f 930 382 611
f 382 930 516
f 886 824 199
f 605 531 930
f 491 508 848
f 628 170 902
f 256 347 346
f 482 848 479
f 891 896 93
f 347 256 861
f 820 617 739
f 866 819 817
f 605 594 593
f 896 901 85
f 929 593 582
f 612 881 885
f 901 905 83
f 826 451 653
f 451 457 180
f 672 659 665
f 441 180 851
f 79 905 796
f 436 673 672
f 436 851 827
f 909 914 75
f 682 673 436
f 914 916 71
f 584 902 897
f 876 86 342
f 69 916 1
f 829 433 827
f 700 808 694
f 788 3 916
f 853 829 417
f 409 61 48
f 402 48 855
f 870 817 816
f 855 29 360
f 874 816 664
f 385 361 102
f 830 880 875
f 576 897 25
f 819 634 817
f 68 69 1
f 106 856 730
f 743 736 738
f 910 242 236
f 862 857 819
f 744 879 102
f 880 830 831
f 840 528 843
f 401 846 44
f 803 302 780
f 769 791 357
f 878 915 791
f 831 911 880
f 918 873 345
f 576 25 475
f 799 31 475
f 841 29 846
f 879 856 102
f 106 639 385
f 573 564 876
f 911 831 802
f 342 556 876
f 337 339 332
f 25 510 515
f 350 29 841
f 564 573 892
f 892 582 912
f 510 25 56
f 864 906 837
f 312 328 337
f 929 822 593
f 33 35 258
f 871 360 29
f 840 860 835
f 864 158 863
f 29 855 44
f 916 914 917
f 808 687 812
f 594 307 312
f 307 305 328
f 916 917 788
f 33 56 927
f 840 835 809
f 307 594 605
f 736 743 361
f 531 516 930
f 290 277 305
f 852 109 927
f 318 835 860
f 21 844 529
f 852 59 112
f 620 393 611
f 102 743 744
f 112 113 852
f 751 763 762
f 647 785 762
f 805 747 751
f 252 268 254
f 230 835 229
f 487 641 635
f 637 879 467
f 124 851 164
f 809 230 221
f 161 142 176
f 807 732 805
f 247 234 254
f 230 809 835
f 808 700 807
f 345 637 186
f 176 184 191
f 812 694 808
f 204 849 223
f 849 204 191
f 813 688 812
f 635 648 725
f 849 184 198
f 815 613 813
f 815 636 613
f 217 223 849
f 659 191 204
f 217 234 223
f 191 184 849
f 859 480 421
f 795 213 511
f 245 461 243
f 878 865 859
f 802 886 932
f 191 659 867
f 452 718 889
f 223 234 247
f 176 142 184
f 246 254 234
f 865 493 486
f 293 771 357
f 268 247 254
f 771 769 357
f 805 264 735
f 268 252 390
f 161 113 112
f 486 493 488
f 390 252 274
f 867 673 746
f 264 751 279
f 274 277 390
f 746 682 152
f 281 848 287
f 827 433 682
f 808 703 214
f 152 691 109
f 109 852 113
f 476 859 421
f 296 305 277
f 476 595 877
f 305 307 928
f 196 293 292
f 595 476 820
f 726 807 700
f 752 293 357
f 307 328 312
f 310 328 305
f 56 59 852
f 292 752 799
f 328 310 323
f 886 825 824
f 312 337 332
f 807 703 808
f 891 824 782
f 193 292 189
f 844 21 22
f 429 853 409
f 109 697 927
f 56 33 510
f 105 559 553
f 339 337 346
f 346 714 339
f 51 346 347
f 317 926 927
f 564 690 876
f 863 844 232
f 799 868 292
f 510 33 258
f 843 528 529
f 844 863 842
f 861 840 843
f 861 158 347
f 861 860 840
f 752 915 31
f 158 843 842
f 843 158 861
f 842 529 844
f 919 837 906
f 906 232 907
f 809 528 840
f 730 873 918
f 730 856 873
f 873 856 879
f 856 106 385
f 817 634 645
f 837 919 838
f 817 652 816
f 919 906 907
f 919 536 537
f 743 102 361
f 904 669 838
f 898 669 904
f 669 898 38
f 703 807 721
f 405 404 838
f 669 405 838
f 922 833 836
f 294 285 887
f 361 385 402
f 869 645 634
f 830 875 664
f 916 3 1
f 864 51 347
f 402 855 361
f 909 801 914
f 397 890 374
f 48 44 855
f 796 909 77
f 879 637 873
f 901 798 905
f 580 925 397
f 48 402 706
f 896 800 901
f 891 823 896
f 409 62 61
f 853 62 409
f 881 413 417
f 417 62 853
f 86 407 299
f 459 893 882
f 199 891 95
f 830 465 831
f 829 426 417
f 426 829 124
f 426 881 417
f 124 829 827
f 433 829 853
f 886 802 825
f 774 894 883
f 851 124 827
f 164 884 124
f 441 851 436
f 180 164 851
f 443 869 164
f 911 802 932
f 715 830 664
f 874 664 875
f 736 361 360
f 451 180 441
f 457 452 889
f 889 444 457
f 866 817 870
f 106 35 639
f 459 718 452
f 826 452 457
f 452 826 245
f 451 826 457
f 862 819 866
f 858 857 862
f 461 245 826
f 459 882 718
f 479 243 461
f 854 931 858
f 850 925 854
f 846 401 580
f 845 890 850
f 491 848 482
f 848 281 479
f 825 494 883
f 382 508 491
f 900 832 767
f 508 287 848
f 896 823 800
f 839 890 845
f 504 782 824
f 42 374 839
f 516 508 382
f 908 910 318
f 534 524 523
f 552 818 548
f 42 172 173
f 901 800 798
f 818 552 900
f 533 322 531
f 871 175 737
f 868 187 189
f 22 232 844
f 593 822 533
f 822 315 316
f 929 556 330
f 330 315 822
f 838 919 537
f 904 838 537
f 318 860 834
f 908 318 834
f 465 830 715
f 556 342 336
f 105 836 559
f 833 559 836
f 29 44 846
f 908 834 804
f 562 917 828
f 299 836 105
f 818 900 767
f 832 553 559
f 562 832 920
f 811 315 548
f 828 801 821
f 801 828 917
f 821 797 814
f 836 299 903
f 401 590 580
f 797 821 801
f 905 798 796
f 796 814 797
f 810 548 818
f 814 798 806
f 798 814 796
f 909 796 797
f 811 548 810
f 413 587 590
f 404 51 837
f 51 864 837
f 837 838 404
f 909 797 801
f 529 842 843
f 158 842 863
f 232 906 863
f 800 806 798
f 529 528 511
f 794 811 806
f 785 908 804
f 785 647 908
f 859 877 878
f 526 534 794
f 877 571 878
f 571 31 915
f 173 351 42
f 524 783 509
f 350 173 175
f 29 350 871
f 823 526 794
f 783 524 526
f 526 823 782
f 42 351 374
f 841 374 351
f 504 775 783
f 509 783 775
f 782 823 891
f 885 124 884
f 887 757 779
f 914 801 917
f 426 885 881
f 890 397 925
f 825 504 824
f 775 504 883
f 925 587 931
f 587 925 580
f 802 494 825
f 785 279 762
f 494 831 465
f 831 494 802
f 894 287 775
f 590 895 413
f 438 897 576
f 884 164 869
f 762 279 751
f 423 931 587
f 587 413 423
f 931 423 857
f 762 761 647
f 617 820 476
f 595 820 621
f 751 755 763
f 893 459 243
f 751 264 805
f 609 857 423
f 423 881 612
f 662 443 444
f 721 805 735
f 621 584 595
f 857 609 819
f 443 645 869
f 612 885 627
f 636 621 820
f 628 902 584
f 805 721 807
