# avbd fit, rung k30-i64-s300-b1e-1 of Gate 6d (body space)
v -0.020154605 0.590973377 -0.000981023
v -0.113447264 0.583096683 0.077109508
v -0.016799513 0.599821150 0.014740753
v 0.001292314 0.933785319 0.073056377
v -0.169646695 0.564842582 0.060097862
v -0.002510828 0.952208221 0.083470091
v -0.016238879 0.632933915 -0.001157954
v -0.016449090 0.616289675 0.006609051
v -0.167904466 0.586599171 0.055313129
v 0.151531473 0.951669812 -0.094082043
v -0.193010509 0.584139645 0.054645814
v -0.187185228 0.583137512 0.029833779
v -0.197532848 0.585326970 0.010499292
v -0.168773249 0.586476684 -0.081826836
v 0.011628201 0.573722899 -0.006497963
v -0.149975434 0.578674674 -0.069563493
v 0.032410249 0.573116839 -0.007549698
v -0.129844546 0.578885078 -0.080594800
v -0.112104759 0.585961699 -0.094540603
v 0.187478691 0.529270947 0.011315904
v 0.000371910 0.893879592 0.068637170
v -0.000457416 0.874110222 0.065555021
v -0.102135263 0.586002469 -0.074839763
v -0.087031245 0.598732829 -0.067561880
v 0.096401498 0.819072604 -0.138738006
v -0.084881075 0.608128905 -0.089208946
v -0.142974749 0.906453788 -0.129650369
v -0.150198609 0.793840766 0.074272163
v 0.032930624 0.681186557 -0.063619800
v -0.168212101 0.806756496 0.073552847
v 0.069345720 0.854791045 -0.152068585
v -0.201827958 0.778384268 0.045484565
v 0.087564543 0.777065158 -0.115077972
v -0.186014742 0.583045602 -0.039031789
v 0.069980115 0.765900016 -0.106818125
v -0.165299520 0.908902824 -0.094908968
v -0.172885209 0.898083389 -0.061394833
v 0.010955549 0.748646617 0.014479728
v -0.176968023 0.904986084 -0.038222440
v -0.081060991 0.905574441 -0.155552804
v -0.033094086 0.879224598 0.068312570
v 0.009360561 0.638874054 -0.024970997
v -0.021905866 0.854712188 0.063623197
v 0.050106823 0.681563735 -0.086999245
v -0.046770580 0.857812285 0.060482342
v -0.189846590 0.917904496 -0.022242650
v -0.192109555 0.898119807 -0.003906012
v 0.063037172 0.705847502 -0.093416825
v -0.172639400 0.896000683 0.010954831
v -0.058146276 0.594666243 0.022781134
v 0.061518889 0.820605576 0.062406771
v -0.058518957 0.589747131 0.050455876
v -0.079334602 0.690277219 0.063820727
v 0.053972669 0.773771226 0.060280722
v -0.085984223 0.585860312 0.055953331
v 0.101442590 0.791078448 -0.130175576
v -0.105207503 0.683951616 0.079096273
v -0.183404505 0.691254914 0.064373523
v 0.117579982 0.809742272 -0.123272121
v -0.206003666 0.689471066 0.029281605
v 0.076149747 0.685987413 -0.090002038
v 0.094733529 0.678208828 -0.104203388
v -0.210448235 0.791034341 0.023758067
v -0.205178663 0.815198421 0.022239979
v -0.212724835 0.689595938 -0.041211531
v -0.190645546 0.685062468 -0.059961475
v -0.178699583 0.699612916 -0.077779278
v -0.015924061 0.607514024 -0.009121794
v 0.010975221 0.602367878 -0.008704169
v -0.163347825 0.684592128 -0.097295329
v 0.031621404 0.591056585 -0.006707101
v -0.113273762 0.697884560 -0.124456629
v 0.049195550 0.577132106 -0.002144016
v -0.025828909 0.751892686 -0.076881513
v 0.058237057 0.557044446 0.004203394
v -0.102094926 0.907579303 -0.147180408
v 0.066654690 0.545815825 0.021654259
v -0.122075215 0.909391701 -0.138521269
v 0.077181645 0.538864017 0.038077813
v -0.131013483 0.890506566 -0.137504190
v 0.092703037 0.534989119 0.050522946
v -0.148630232 0.924747646 -0.113648072
v 0.109847471 0.532103181 0.060082950
v -0.192152336 0.866561055 -0.090042099
v 0.128090158 0.530433357 0.065200485
v 0.038215302 0.727388740 0.040452775
v -0.163563818 0.897487462 0.050776310
v -0.131388307 0.805047333 -0.130630344
v -0.166545480 0.622594178 0.058105208
v 0.145185202 0.531072736 0.059574284
v -0.144383088 0.814576447 -0.111501828
v -0.022779237 0.808465481 0.039469507
v 0.164007604 0.531762481 0.061621659
v -0.043686327 0.808675587 0.052919518
v 0.156510815 0.539494634 0.047217831
v -0.030039366 0.832120240 0.051797800
v 0.174383372 0.534299612 0.043818075
v -0.020367669 0.900497556 0.073102243
v 0.191279024 0.531263292 0.033311386
v -0.066779934 0.925782323 -0.152707949
v 0.175232857 0.533807397 0.025849586
v 0.020799484 0.756010175 -0.071482271
v -0.093345955 0.884314656 -0.153242290
v -0.114863381 0.636583447 0.079509258
v 0.033570111 0.704514861 0.028722376
v 0.050524153 0.768648267 -0.100340322
v -0.126913056 0.869476974 -0.139926493
v -0.145582631 0.618331373 0.063165799
v 0.122464165 0.758481920 -0.113164350
v -0.141723767 0.855302989 -0.128708825
v 0.133719936 0.823830605 -0.114148840
v 0.142261893 0.798946142 -0.112365067
v 0.141912788 0.772064269 -0.112938240
v -0.173629761 0.644658267 0.059500210
v -0.148606956 0.841534317 -0.108890928
v 0.194941163 0.526204467 -0.006774990
v 0.194681779 0.526530564 -0.025074963
v -0.192771688 0.634930491 0.028811816
v 0.154607683 0.821390271 -0.110834934
v -0.170997232 0.853140712 -0.098453462
v -0.190127760 0.846533120 -0.071049981
v -0.192236185 0.861759782 -0.053876705
v -0.056141175 0.846180260 -0.144496232
v 0.148169398 0.665433288 -0.100866020
v -0.183051601 0.841736674 0.048702739
v -0.197268963 0.837772071 0.023305954
v -0.132602692 0.832808316 0.068977721
v -0.145715341 0.853720963 0.071256608
v 0.186997265 0.528735101 -0.043230619
v -0.025331657 0.839543700 -0.126783028
v 0.177083567 0.532058597 -0.058695126
v -0.038330559 0.826414883 -0.139303476
v 0.159720808 0.534357011 -0.070819974
v -0.029945862 0.691029727 -0.064398617
v 0.178930148 0.536421835 -0.076044761
v -0.120982409 0.903112710 0.044729307
v 0.163450584 0.537786126 -0.087124266
v -0.098945558 0.901178956 0.057378776
v 0.145065233 0.535527110 -0.080540232
v -0.027250538 0.821383476 -0.111812793
v 0.135975823 0.537184596 -0.097349510
v 0.169658318 0.805549800 -0.104990467
v -0.020456567 0.799023449 -0.105613843
v 0.123079017 0.541787505 -0.087846883
v -0.042142738 0.807289600 -0.122543715
v -0.187421262 0.809682071 -0.097588427
v 0.117477134 0.550507307 -0.074132323
v -0.163319021 0.918406308 0.034854662
v 0.101021193 0.549892008 -0.067271903
v -0.028669219 0.719355822 -0.080089189
v 0.082411885 0.550050914 -0.061837602
v 0.140788436 0.748392045 -0.110479131
v 0.066420011 0.552694976 -0.049882919
v -0.102239288 0.756806731 -0.127278224
v 0.058651067 0.560572326 -0.033122644
v -0.065683648 0.660477519 -0.095310159
v 0.049692996 0.567808986 -0.017515751
v 0.056376286 0.864349723 0.060610682
v -0.188595504 0.769500852 -0.087177083
v -0.208031699 0.587260008 -0.025959840
v 0.161573678 0.780638099 -0.104917072
v -0.215851471 0.788953424 -0.038503017
v -0.221082762 0.744910359 -0.029340615
v 0.155739993 0.657032967 -0.075973406
v -0.209669203 0.730378330 -0.047918323
v -0.015475236 0.606277943 -0.027274128
v 0.015978059 0.589904904 -0.023685021
v -0.015736489 0.588576198 -0.018645136
v -0.016591854 0.625966668 -0.023187103
v 0.177818134 0.834284902 -0.104318678
v -0.197039127 0.737154782 -0.065669850
v -0.015681647 0.645408511 -0.026624274
v -0.015409482 0.664310336 -0.032267466
v -0.219025970 0.725884855 -0.007936236
v -0.014775706 0.683410168 -0.037514798
v 0.180606097 0.787381113 -0.096598163
v -0.170784876 0.734922528 -0.098604046
v -0.108757772 0.563783467 -0.074431404
v -0.213036656 0.736123681 0.021876121
v 0.178223953 0.674085319 -0.072906926
v -0.207772285 0.712975383 0.032568410
v -0.097712383 0.741186261 -0.107389987
v -0.081534229 0.723884284 -0.101162694
v 0.190432712 0.808924973 -0.090011209
v -0.043842979 0.788486004 -0.105837703
v -0.006400419 0.817037582 -0.090330221
v -0.004811523 0.828432441 -0.107163355
v -0.110245623 0.877199769 0.053704262
v -0.004075925 0.840309143 -0.122375071
v -0.134266689 0.869472325 0.059466142
v 0.193946809 0.778890550 -0.081003472
v -0.119209565 0.852629483 0.062806837
v -0.001830998 0.858125091 -0.128078014
v -0.139278844 0.890327096 0.052488260
v -0.165473953 0.724049091 0.069875367
v -0.001220847 0.876670241 -0.131897986
v -0.129989192 0.925368488 0.038649611
v 0.194393083 0.834688187 -0.074649341
v 0.171121553 0.559259534 0.040727869
v -0.000105763 0.895491481 -0.131927028
v -0.145749331 0.914186120 0.047832552
v 0.000113390 0.914741039 -0.131211430
v -0.167662591 0.858103871 0.062662952
v 0.204166532 0.768631399 -0.060704000
v -0.159068063 0.875929534 0.045355018
v -0.216703683 0.780521989 0.001620735
v 0.000218959 0.934265018 -0.128392309
v -0.141666591 0.917970479 0.026886726
v -0.148226246 0.893777668 0.028544346
v -0.156291336 0.912498951 0.006433608
v -0.144772023 0.716291249 0.080785483
v 0.038252316 0.954759598 0.074953362
v 0.019393364 0.954697609 0.078841820
v 0.206785798 0.852401853 -0.052438922
v 0.000963237 0.913943291 0.070450559
v -0.177733049 0.920003891 -0.002440304
v 0.210699365 0.820569873 -0.050722033
v -0.173040822 0.928354383 -0.032945413
v -0.171260476 0.923890233 -0.053715844
v -0.079924785 0.634938478 -0.094587080
v 0.057230264 0.954276443 0.070366278
v 0.207437843 0.836406112 -0.030391997
v 0.216398686 0.786387384 -0.042251192
v -0.166496933 0.919475734 -0.074527301
v -0.158761248 0.933422208 -0.095071524
v -0.130862996 0.929856479 -0.129930109
v -0.155152708 0.867646694 -0.110807993
v -0.108733736 0.634984970 -0.087879911
v 0.093635023 0.950687885 0.058444850
v 0.076061137 0.952965736 0.065686427
v -0.105049476 0.864111423 -0.148023888
v -0.001538560 0.854902387 0.060251534
v -0.113182507 0.887261391 -0.145577252
v 0.215825245 0.809483826 -0.025700083
v -0.112904146 0.615838170 -0.102354087
v 0.108409002 0.947813332 0.047957953
v -0.031622171 0.691540003 0.023877420
v -0.039140895 0.575561106 0.014888423
v 0.201395720 0.847795188 -0.011470764
v -0.205500320 0.839570522 -0.045397487
v -0.047927860 0.632171988 0.026475510
v 0.123361073 0.945482731 0.038497452
v 0.211084157 0.675094426 -0.006193687
v -0.066579446 0.571556807 0.028939163
v 0.214889571 0.674290538 -0.026840026
v 0.207550526 0.825166047 -0.006609431
v 0.217361167 0.782520413 -0.013807808
v -0.055168040 0.642690957 0.048510768
v -0.069220908 0.564595282 0.059398085
v -0.100091442 0.562398791 0.062096376
v -0.095997497 0.626445651 0.066656031
v 0.213801712 0.812959373 0.019675139
v -0.097297400 0.603959501 0.066532947
v 0.212895960 0.802639484 -0.002820734
v -0.058122676 0.833766103 0.059020072
v 0.104645409 0.853715599 0.072883889
v -0.114681982 0.611869931 0.078783154
v 0.067827269 0.786043286 -0.107159041
v -0.125100002 0.555982232 0.073322169
v -0.186088473 0.644187093 -0.053032599
v -0.134208024 0.625488818 0.078754023
v -0.142566413 0.577553630 0.062928051
v 0.061130594 0.805146575 -0.111056410
v 0.176371798 0.870914161 0.020327317
v -0.135311931 0.600767970 0.073588364
v -0.187697709 0.625056982 -0.040891290
v -0.149583012 0.553702235 0.060084753
v 0.216131806 0.784817219 0.011910354
v 0.212506607 0.765338659 0.025108501
v -0.155008167 0.878214478 0.066835731
v -0.154012337 0.601590037 0.056965280
v -0.174124777 0.570151567 0.038938645
v 0.200847343 0.833628356 0.030972552
v 0.197943687 0.807713866 0.043014221
v -0.192686260 0.625960708 0.057852905
v -0.180196017 0.604458690 0.065046392
v 0.192754179 0.783144176 0.056974590
v -0.193248034 0.559012234 0.041200005
v 0.158999175 0.880439460 0.040818907
v -0.181687817 0.607720792 0.040686730
v 0.206003547 0.669115305 0.015955610
v -0.054852091 0.954179108 0.070901722
v -0.195263684 0.607473016 0.019653451
v -0.024326911 0.927734375 0.076315887
v 0.184027061 0.826595128 0.048212100
v -0.173393682 0.861515343 0.041405689
v 0.200629950 0.662008762 0.039441805
v -0.168916807 0.876096606 0.024331776
v -0.198948532 0.600232363 -0.004808048
v 0.185130090 0.760672390 0.065607533
v -0.185342506 0.857535839 0.023907989
v 0.017753443 0.851874828 -0.141704977
v 0.019882277 0.878915310 -0.148586407
v 0.169714019 0.824423671 0.065432250
v -0.023851145 0.933403671 -0.144502252
v 0.179865569 0.804034412 0.063400149
v -0.200820118 0.625397086 0.001763870
v -0.016010765 0.907950521 -0.147273049
v 0.021472771 0.727523208 0.019511472
v -0.033613767 0.619855165 -0.034922261
v -0.039880250 0.912125289 -0.148228943
v 0.152966395 0.837505996 0.073717102
v -0.047706973 0.933819950 -0.141913757
v -0.190418124 0.878008187 0.011543185
v 0.166581169 0.779944718 0.073938139
v -0.203103259 0.855990112 0.007318481
v 0.146082968 0.760445356 0.083322577
v -0.199983686 0.866445065 -0.033142384
v -0.210051537 0.849191070 -0.016969645
v 0.156091645 0.809976459 0.077672392
v -0.201967090 0.874162316 -0.009842658
v 0.122556128 0.771495581 0.084452078
v -0.200247645 0.561465323 -0.035890408
v -0.213628486 0.611503899 -0.016435917
v 0.098997585 0.662982643 0.073509976
v 0.122773841 0.660063088 0.080854528
v 0.094677001 0.731575787 -0.115826286
v 0.105227590 0.918272018 0.053878527
v -0.035432704 0.634566545 0.007187406
v 0.126878530 0.945587516 0.055573415
v -0.182805777 0.881675422 -0.045863338
v 0.133671373 0.682113528 0.081173629
v 0.125869080 0.824670672 0.079387069
v -0.205511183 0.624962091 -0.029241610
v -0.177512601 0.873801231 -0.070518188
v 0.139233872 0.943758965 0.044569857
v -0.169906467 0.881504714 -0.094328471
v 0.139266700 0.790547907 0.082857139
v -0.065262511 0.783436000 -0.104307234
v 0.086752251 0.688018441 0.069759212
v -0.176694289 0.562879980 -0.049341824
v 0.098745383 0.774833202 0.080896288
v -0.195976466 0.605012119 -0.032510154
v -0.179034308 0.621823847 -0.062938355
v -0.159460425 0.563228905 -0.064590856
v 0.062642924 0.685038447 0.059109062
v 0.112150751 0.798152030 0.083353624
v -0.067386791 0.743078589 -0.103804648
v 0.088749483 0.793953896 0.078493349
v -0.167832717 0.584656537 -0.059382726
v -0.185033992 0.638994813 -0.080191694
v 0.049117278 0.704967856 0.050016016
v -0.084011585 0.764982879 -0.105975725
v -0.183382362 0.565760374 -0.071353391
v 0.016241733 0.816658974 -0.099796847
v 0.090809204 0.822177410 0.079255126
v 0.074374326 0.846162915 0.069593363
v -0.176494583 0.613527417 -0.085078374
v 0.143367544 0.940819860 0.026669290
v 0.015866842 0.675030828 -0.039865900
v 0.018827014 0.655332863 -0.033506047
v -0.159535617 0.560782671 -0.084467053
v 0.150816232 0.937926888 0.010227500
v -0.126554057 0.756308436 -0.125641912
v 0.160153002 0.936086357 -0.005407750
v -0.140222341 0.621792912 -0.074716665
v 0.045360662 0.888842106 -0.147805601
v -0.159032330 0.605986238 -0.069554262
v 0.166339904 0.947044015 0.007685324
v 0.026023218 0.705741167 -0.063215174
v 0.026368901 0.728849351 -0.074937806
v -0.136404708 0.737017930 -0.112881325
v 0.173145309 0.947309673 -0.010649788
v -0.144793049 0.760207415 -0.112432614
v -0.109933913 0.929240108 -0.135371596
v -0.047167726 0.906828284 0.075983770
v 0.169406921 0.943368137 -0.028642023
v -0.137011722 0.553849101 -0.075159505
v -0.152350828 0.748930573 -0.096175343
v -0.139737308 0.598191559 -0.073419273
v -0.154437423 0.894841790 -0.111379132
v 0.174257964 0.941883445 -0.045206420
v -0.173128903 0.759438574 -0.098405026
v 0.033376340 0.634693384 -0.036945406
v -0.120597437 0.558450103 -0.091282472
v -0.187031791 0.747025430 -0.084259048
v 0.179065317 0.939001381 -0.063742861
v -0.145978212 0.879960239 -0.128589749
v 0.169304013 0.934469879 -0.078461617
v -0.199875250 0.765674353 -0.067711279
v -0.128824323 0.604812264 -0.089530550
v 0.191089228 0.707612038 0.061931867
v 0.163202748 0.946163833 -0.058619209
v -0.208511740 0.750003695 -0.051825840
v 0.036545835 0.749024034 -0.091404945
v -0.089699686 0.572328627 -0.062727705
v -0.034737647 0.594576955 -0.034224633
v 0.160103843 0.950032711 -0.077111259
v -0.213755220 0.769142389 -0.045243446
v 0.207255408 0.785971999 0.035252117
v -0.029072091 0.671393037 0.014950755
v 0.140765965 0.952753067 -0.109679028
v 0.202948242 0.756966829 0.047276728
v -0.068328537 0.765095115 0.068199001
v -0.104874238 0.608272135 -0.082712457
v -0.082855836 0.579108357 -0.085976198
v 0.045817100 0.631663620 -0.061258107
v -0.090701967 0.625116944 -0.076834515
v -0.067315169 0.602819681 -0.071952149
v -0.068326816 0.579269767 -0.061063398
v 0.064991727 0.661790490 -0.087697648
v 0.047615018 0.726156056 -0.094252802
v -0.201873899 0.727925062 0.050560452
v 0.044943061 0.796119750 0.053205490
v 0.033904243 0.773192823 0.042602185
v -0.203362152 0.753177583 0.047664460
v 0.028203433 0.749890029 0.031791411
v -0.023424905 0.771786869 -0.096147783
v 0.089394704 0.704882145 -0.107669413
v -0.187757418 0.767831802 0.065809213
v -0.066707656 0.644496799 -0.078710601
v -0.070213929 0.623518705 -0.079505384
v 0.092342004 0.647187769 -0.099985912
v -0.183963507 0.742074788 0.069123589
v -0.051904291 0.606971800 -0.050421707
v 0.125261217 0.951277614 -0.117771909
v 0.113738917 0.666755319 -0.105051838
v -0.055145741 0.628916383 -0.065923780
v -0.162400514 0.759810746 0.075452745
v -0.047845073 0.662253737 -0.070957124
v 0.110640742 0.951151669 -0.129252702
v -0.038288742 0.639086127 -0.049450658
v 0.100074172 0.617797673 -0.098942921
v -0.195538908 0.576116502 -0.009848567
v -0.201951548 0.560915530 0.014939548
v 0.127346888 0.662476957 -0.089162186
v -0.151074409 0.738734841 0.078174338
v -0.133898422 0.753952205 0.085888669
v 0.113636993 0.716092944 -0.117632709
v -0.079974554 0.834349453 0.076344296
v -0.073205188 0.953014851 0.066367865
v -0.120612644 0.728316307 0.086655088
v 0.129282191 0.709555209 -0.098962694
v -0.107714750 0.751057982 0.084550783
v -0.091195270 0.812922776 0.081274949
v 0.162852421 0.711442888 -0.090894178
v -0.091901176 0.731167853 0.076092668
v 0.116764560 0.866957963 -0.142369315
v -0.078514673 0.789246202 0.073712438
v -0.104410604 0.792934895 0.085114047
v 0.179090649 0.699591100 -0.077319637
v -0.093998447 0.771395862 0.079800032
v 0.166415557 0.633385003 -0.071886159
v 0.181202516 0.648743033 -0.067869276
v -0.085720465 0.751709640 0.074615076
v -0.066967495 0.739405930 0.065562755
v -0.118727878 0.773108482 0.085882530
v -0.029687682 0.761804461 0.035021186
v -0.129753143 0.794213653 0.083501652
v -0.118555047 0.814828753 0.082818978
v 0.194567427 0.692376196 -0.061049115
v 0.207373068 0.656885087 -0.039761245
v -0.067194097 0.810250282 0.066060990
v -0.143588826 0.775112748 0.079777896
v -0.045742646 0.670776844 0.038341790
v -0.143476754 0.812911153 0.072861508
v 0.194967359 0.665883124 -0.057005651
v -0.163780540 0.833127022 0.073279180
v 0.212865025 0.652916908 -0.018887144
v -0.187581733 0.792916179 0.063240238
v 0.219956428 0.701696694 -0.021873586
v -0.168698609 0.782379568 0.074739322
v -0.069877580 0.857031226 0.073364243
v -0.183465555 0.817505360 0.059260398
v 0.207659483 0.606598794 -0.014181532
v -0.075587332 0.903226376 0.070054941
v -0.011516771 0.781395316 -0.068005420
v -0.071235232 0.927665889 0.069742218
v -0.193600267 0.823021412 0.039675362
v -0.212465614 0.764718413 0.023648579
v -0.049434654 0.933931649 0.074322268
v -0.008672286 0.800276160 -0.078372702
v -0.106804296 0.948709130 0.051673412
v -0.218200058 0.753308415 -0.001443566
v 0.075923070 0.835426807 -0.142005280
v 0.124157548 0.916234314 -0.138348594
v -0.210779116 0.832121015 0.003520972
v -0.090804741 0.951112449 0.060285397
v 0.211816669 0.697573662 0.005504807
v 0.093984202 0.950443566 -0.138739333
v -0.194755211 0.891477108 -0.027394796
v 0.211065501 0.715018988 0.023605220
v -0.220562100 0.771581352 -0.021490568
v -0.217967153 0.797969222 -0.019213665
v -0.214685246 0.823695064 -0.020567385
v 0.096628949 0.932932019 -0.134904116
v 0.216010734 0.758960783 0.003288368
v 0.078709260 0.941536129 -0.134484857
v -0.096220784 0.857577682 0.072814949
v -0.018030040 0.882473588 -0.138335332
v 0.202539772 0.704253197 0.043520711
v 0.059481710 0.950704753 -0.135686189
v 0.065654643 0.932831943 -0.147665516
v 0.191985160 0.600170672 0.009929591
v -0.092638239 0.925207913 0.061185587
v -0.019394351 0.858641803 -0.140347689
v -0.206028551 0.791293919 -0.059050847
v -0.189525038 0.899801552 -0.082410805
v -0.106662177 0.835573375 0.078586280
v 0.039549608 0.953392029 -0.133962885
v -0.195911020 0.790995419 -0.081212536
v 0.019733008 0.954603493 -0.131365821
v -0.160886854 0.800103366 -0.100308500
v 0.193566576 0.606432319 0.051471524
v -0.178982243 0.784562707 -0.099462308
v 0.018023813 0.939217925 -0.135433823
v 0.000850803 0.954098880 -0.125084504
v 0.197769225 0.681891322 0.055046547
v 0.187426463 0.655337691 0.060652662
v 0.083414353 0.802436233 -0.118177697
v 0.021831481 0.920206904 0.076419249
v -0.166945875 0.826139808 -0.100015223
v -0.156172752 0.774617791 -0.099058561
v -0.179730982 0.929212570 -0.089292064
v 0.066445865 0.821469009 -0.125057191
v 0.172098100 0.681520343 0.063288391
v -0.142954871 0.785343111 -0.118049815
v -0.062986150 0.558719039 -0.043533772
v -0.110663317 0.798964143 -0.126976982
v -0.078646258 0.557295382 -0.055290300
v -0.091283858 0.555224299 -0.072547466
v -0.119600259 0.779640198 -0.129618585
v 0.148736328 0.666771293 0.074928015
v 0.161350980 0.647918701 0.063223101
v -0.073699281 0.546904385 -0.069109336
v 0.151240617 0.618900836 0.062826939
v -0.119721927 0.846613526 -0.138887033
v 0.046009198 0.912453532 0.072679341
v 0.028877547 0.895128369 0.074637011
v -0.092197455 0.538807034 -0.065263860
v 0.153153881 0.695844591 0.076414227
v -0.109969780 0.822876751 -0.132884994
v 0.132602394 0.703010261 0.082490958
v 0.138663068 0.638372302 0.078654371
v -0.106332198 0.536674380 -0.078389913
v -0.003995210 0.822332203 0.036994614
v -0.006154659 0.805673003 0.024893088
v -0.092215016 0.805468678 -0.119766489
v -0.119221948 0.532530487 -0.090829633
v -0.079536021 0.860271931 -0.151910663
v -0.097199477 0.781410813 -0.122679710
v -0.134886175 0.532491028 -0.084302470
v -0.152171001 0.533203661 -0.085442841
v -0.170105696 0.535662591 -0.087312467
v -0.049917974 0.782090604 0.059042156
v -0.028788770 0.786322713 0.038516238
v 0.078349680 0.668048084 0.064266868
v 0.081551053 0.644475818 0.063755833
v -0.178628057 0.535733342 -0.071025796
v -0.158143416 0.544523776 -0.073299967
v -0.031155011 0.714374363 0.029297346
v 0.060071539 0.660195827 0.055490028
v 0.045124229 0.679669857 0.038047131
v -0.167957336 0.543511271 -0.058625054
v -0.074797332 0.838155448 -0.142949611
v 0.070815265 0.707864761 0.064878486
v -0.182744518 0.537804067 -0.050129242
v -0.048219800 0.695911050 0.052679092
v 0.027801607 0.682553470 0.016125860
v -0.040109195 0.652073681 0.021941135
v -0.096405968 0.841333270 -0.143950611
v 0.026020616 0.632003784 0.004830081
v -0.061084520 0.668642044 0.062343709
v 0.065202028 0.751639426 0.065387748
v -0.047932468 0.615882754 0.014058622
v -0.056679178 0.614359915 0.039167553
v -0.054797351 0.870103836 -0.151806340
v -0.073090561 0.883069634 -0.154526457
v -0.070754103 0.714603066 0.065467753
v -0.057360880 0.897135377 -0.152952760
v 0.092846148 0.872191787 -0.153445467
v -0.195695311 0.533344269 -0.039220296
v 0.078739785 0.730762899 0.070375971
v -0.071411654 0.614734888 0.062154692
v -0.098035634 0.707837760 0.077363454
v 0.098003760 0.846922576 -0.147488743
v -0.075594388 0.644111693 0.066969037
v -0.089390755 0.667331457 0.065323189
v -0.085308500 0.880131721 0.068302356
v 0.062800661 0.635166526 -0.080061063
v -0.058760930 0.880991936 0.074263699
v 0.101267412 0.734542370 0.079037152
v -0.099022791 0.647414088 0.068657905
v 0.139654562 0.864435554 -0.128663242
v -0.194489449 0.533244193 -0.022262579
v -0.029774377 0.737871051 0.031841785
v 0.088326864 0.626278102 -0.076188624
v -0.192277789 0.534505963 0.012130952
v -0.134956449 0.675296903 0.084544271
v 0.081095777 0.648916066 -0.078773193
v -0.184621051 0.536074996 0.028327370
v -0.113144659 0.660720348 0.079851404
v 0.117661715 0.718656301 0.082962349
v 0.125175714 0.743729591 0.084441483
v 0.132568493 0.889227033 -0.136400342
v -0.182108968 0.555654287 0.017492715
v -0.123542726 0.701372802 0.085276805
v -0.175757006 0.550785303 0.033543423
v -0.135546863 0.649683177 0.081532426
v -0.172468096 0.540326595 0.047798604
v -0.155215487 0.535938144 0.052500982
v -0.145561278 0.695614159 0.079309568
v -0.152844325 0.660680413 0.065520458
v -0.140698776 0.533074975 0.063269705
v 0.146113738 0.726859748 0.082247153
v -0.159096390 0.682320237 0.067394003
v -0.122694001 0.533512533 0.065441862
v -0.105611905 0.536336303 0.058578752
v 0.117559947 0.606381595 -0.084911399
v -0.163629174 0.703924060 0.068365104
v 0.188806206 0.735532165 0.063974611
v 0.119418606 0.626487970 -0.086346254
v 0.161568150 0.926970959 -0.094173297
v -0.087843627 0.540089428 0.051234454
v -0.149158925 0.638641238 0.063878775
v -0.086161718 0.558452845 0.046067405
v 0.132069871 0.932399154 -0.121977746
v -0.073086396 0.546355605 0.036694594
v -0.063298672 0.551821828 0.018733045
v 0.203515217 0.728237271 0.045132145
v 0.153015286 0.885832608 -0.121821880
v -0.054668762 0.560043871 0.001682528
v -0.047520850 0.577652872 -0.007617377
v -0.185941085 0.715543389 0.065524206
v -0.038022827 0.592797637 -0.014469512
v -0.179505795 0.667583346 0.063043699
v 0.136299238 0.617213368 -0.082459010
v 0.164514467 0.861680329 -0.113740422
v 0.213173583 0.741093278 0.023881687
v -0.201092154 0.702248335 0.051717788
v -0.198846459 0.651328683 0.053030908
v -0.200512335 0.677168012 0.051477164
v -0.039138924 0.742456496 -0.098220661
v 0.155428723 0.609523475 -0.091142654
v 0.220817089 0.756600380 -0.020578872
v 0.158452004 0.906939685 -0.109829880
v 0.009857053 0.802122712 -0.079485476
v -0.052546967 0.764526963 -0.101153672
v 0.059296541 0.746789753 -0.102406658
v -0.046272926 0.724829376 0.052741565
v 0.216659158 0.728379071 -0.003052879
v -0.201437831 0.663459659 0.028155243
v -0.212329790 0.706976295 0.009718695
v -0.198175296 0.802078605 0.043002017
v 0.157589138 0.610183299 -0.069292352
v -0.203663081 0.652435660 0.003278207
v 0.134780586 0.916813195 0.059708275
v 0.219754100 0.730977416 -0.031894177
v -0.208450988 0.679773211 0.004185332
v -0.220496371 0.696576715 -0.014629911
v -0.219750315 0.714980721 -0.033969883
v 0.172219947 0.597560048 -0.057232112
v 0.208988145 0.711342871 -0.046632390
v -0.217188522 0.638196945 -0.014203219
v -0.215377733 0.806938767 0.002499909
v 0.168334395 0.882995307 -0.102227673
v -0.035831612 0.954782009 0.073739067
v 0.205857202 0.738664746 -0.054746903
v 0.192404494 0.747657895 -0.076982364
v -0.083062425 0.822332025 -0.131811857
v -0.059348851 0.826232433 -0.129163638
v 0.180276215 0.621539414 -0.060608614
v -0.221098781 0.666842163 -0.021214692
v 0.183294624 0.580960035 -0.046090595
v 0.195025906 0.718676925 -0.065711021
v -0.017189391 0.954919934 -0.132375464
v -0.035448216 0.953422546 -0.135396227
v 0.179366395 0.859629989 -0.089757971
v 0.015522644 0.771275997 0.022727484
v -0.052936476 0.949731827 -0.132099167
v -0.046524383 0.751964271 0.054611005
v 0.181090027 0.722998500 -0.081872702
v 0.171214342 0.737906337 -0.094033010
v -0.070531845 0.949277580 -0.135152176
v 0.175854862 0.885406852 -0.079171672
v -0.204720587 0.645550370 -0.034842167
v -0.086316183 0.953279316 -0.143060356
v -0.091004923 0.928256989 -0.145974338
v -0.211114839 0.811974704 -0.043657564
v -0.098985545 0.951220214 -0.130268723
v -0.115762234 0.952161610 -0.124689184
v 0.150910050 0.725750685 -0.108339846
v -0.198047906 0.710286558 -0.057886373
v -0.199552506 0.818309665 -0.070622593
v -0.191293582 0.836658180 -0.094442740
v -0.199688554 0.666518211 -0.045652013
v 0.183366463 0.864773154 -0.062427945
v 0.170924217 0.923538506 -0.055606287
v -0.179190308 0.603506684 -0.048241746
v 0.044346526 0.750578523 0.051526122
v 0.127300963 0.732918262 -0.105496868
v -0.066641107 0.807511151 -0.113270476
v -0.183652818 0.722936392 -0.080783203
v 0.186585128 0.911019504 -0.068508171
v -0.082638212 0.789501011 -0.110388495
v -0.186273411 0.596676230 -0.069393188
v 0.114266574 0.739780545 -0.120613769
v -0.182430506 0.661332607 -0.066882677
v -0.165830553 0.656149030 -0.091961607
v 0.186039865 0.912948132 -0.046445381
v -0.173586816 0.677706122 -0.077759847
v -0.167445436 0.710108638 -0.098783806
v 0.195445776 0.864169896 -0.029530976
v -0.161610112 0.632502615 -0.075677000
v -0.030708972 0.664666057 -0.049372263
v 0.074022926 0.727410674 -0.102498911
v -0.131772056 0.953518212 -0.118871033
v -0.143202409 0.953528702 -0.106865980
v -0.147454053 0.724692404 -0.094029352
v -0.144235209 0.699791431 -0.089874998
v -0.143704578 0.673839271 -0.084113702
v -0.141974434 0.647349775 -0.080209583
v -0.135866791 0.830740273 -0.129433468
v 0.067528717 0.797046661 0.068532623
v 0.197454035 0.607330263 -0.044192024
v -0.169492081 0.950593352 -0.079448760
v -0.177073330 0.942557633 -0.063235566
v 0.209025115 0.630442023 -0.032448001
v -0.017943138 0.573541522 -0.005693137
v -0.159466013 0.946549892 -0.064792357
v 0.194311902 0.869468987 -0.001781658
v -0.166151762 0.947542489 -0.047754463
v -0.167642400 0.947468758 -0.029687386
v -0.177560285 0.950676084 -0.016448557
v 0.215891927 0.756419778 -0.043181799
v 0.174652949 0.919219196 -0.030428991
v -0.165981188 0.945288837 -0.003530037
v -0.152132481 0.937152565 0.004855393
v -0.163255453 0.929256082 0.017087806
v 0.047462940 0.791839480 -0.099195264
v -0.142235398 0.935881257 0.019521767
v 0.178054586 0.916783631 -0.008934326
v -0.156870916 0.943874717 0.025429159
v -0.131022960 0.631229877 -0.095716290
v 0.201750994 0.864477038 0.023847966
v 0.012170458 0.718077540 -0.049888067
v -0.013847102 0.702678502 -0.042882767
v -0.013092147 0.721980989 -0.048632864
v 0.150174737 0.930660248 -0.111355327
v -0.132008642 0.657979369 -0.101674452
v -0.012537670 0.741496921 -0.054313648
v -0.132173017 0.711483777 -0.111809112
v 0.010092860 0.740622997 -0.055200052
v -0.012927672 0.761503577 -0.060256075
v -0.149839282 0.946215749 0.041153971
v 0.159310982 0.755375326 -0.103444532
v 0.177426904 0.921627700 0.014373614
v -0.113543771 0.642762482 -0.110590674
v -0.135624141 0.944043636 0.032789804
v -0.121556640 0.946255684 0.041965909
v 0.162969261 0.894083023 0.012397137
v 0.043695178 0.863296151 -0.146873713
v -0.131386712 0.684775472 -0.106637597
v -0.113553450 0.728734553 -0.129983559
v 0.160818249 0.917590976 0.000350356
v -0.113161281 0.669724405 -0.118051544
v 0.183302775 0.848646283 0.034575995
v -0.108795963 0.661991894 -0.094727710
v -0.009637241 0.746861935 0.009151206
v -0.111396626 0.924366295 0.049249228
v 0.143270835 0.923317432 0.038621061
v 0.147258773 0.901490808 0.040314749
v 0.150982052 0.917417884 0.020441547
v -0.089208886 0.651410639 -0.083623275
v -0.106362835 0.688439608 -0.100607432
v -0.084530562 0.676678658 -0.089436449
v 0.043962855 0.638846278 0.025723467
v -0.104926743 0.714908004 -0.105852604
v 0.052086063 0.912496567 -0.148094580
v -0.079828046 0.700621247 -0.098617487
v 0.024168957 0.904222667 -0.147493690
v -0.036273248 0.851487339 -0.151586622
v -0.033096414 0.883162379 -0.156544402
v 0.196534976 0.625113130 0.005566177
v 0.200131133 0.634758890 0.047547407
v -0.050039668 0.688635170 -0.091664210
v -0.054998331 0.717898011 -0.099449657
v -0.153380007 0.951901793 -0.090905398
v 0.169339210 0.861585736 0.042969935
v 0.158810079 0.863590837 0.064545818
v -0.192410842 0.553745687 -0.011733718
v 0.170271203 0.599035680 0.060928732
v 0.176478297 0.627222657 0.055661857
v -0.189757243 0.534229636 -0.005409128
v 0.142389163 0.886257350 0.064967006
v -0.053689368 0.582033575 -0.039552599
v -0.053002208 0.564945102 -0.026617691
v 0.009219994 0.611772418 0.008149186
v -0.035531033 0.567625582 -0.016511697
v 0.005533274 0.953925908 0.067153089
v 0.066325188 0.899481475 -0.157956809
v -0.017045598 0.954705894 0.072928175
v -0.037405495 0.598485351 0.011868807
v 0.129789829 0.609809577 0.078294113
v 0.040605295 0.935114205 0.074759796
v 0.073703036 0.563601375 0.048861358
v 0.062181257 0.583888173 0.043125100
v 0.099343047 0.575477540 0.063653737
v 0.045292579 0.834777534 -0.139785409
v 0.123463094 0.580777526 0.074803606
v 0.056025095 0.594180167 0.022480171
v 0.185179919 0.575931847 0.018450644
v 0.134472936 0.851925254 0.064014509
v 0.122248039 0.871760070 0.053446066
v 0.194652185 0.895910382 0.012803298
v 0.104121268 0.602189183 0.070143655
v 0.181575865 0.890829086 -0.022207294
v 0.200270414 0.886160553 -0.048916321
v 0.062367916 0.930986762 0.070686027
v 0.082590774 0.618423581 0.061223663
v 0.107949413 0.632944584 0.075537048
v 0.172910959 0.893307567 -0.055900879
v 0.167706758 0.913369358 -0.075418413
v 0.081140682 0.591980100 0.056459881
v 0.167679787 0.903171539 -0.092485830
v 0.159262463 0.574421704 -0.061416704
v 0.168055385 0.585911751 -0.085814513
v 0.058152385 0.633150160 0.050026752
v 0.135265827 0.588196158 -0.077874929
v 0.142320588 0.910056889 -0.124721609
v 0.060648583 0.606947303 0.047131397
v 0.110760033 0.688934267 0.079439431
v 0.146305338 0.588387370 0.064010486
v 0.177468151 0.584213912 0.040098779
v 0.201304510 0.589528084 0.032406610
v 0.208226636 0.684670091 -0.043972820
v 0.148732886 0.695907950 -0.105100371
v 0.049811728 0.617670000 0.023775795
v 0.129753679 0.684795499 -0.093268082
v 0.202435702 0.583947539 -0.027924394
v 0.198513165 0.580368996 -0.003059061
v 0.033913277 0.658501744 0.018535782
v 0.007754565 0.685075045 0.003807300
v 0.103820041 0.885119140 0.058399938
v 0.083957121 0.927111149 0.065695666
v 0.014707291 0.706518054 0.010188540
v 0.037804116 0.818320751 0.045884777
v 0.021582458 0.795628428 0.032448802
v 0.020431152 0.615565240 -0.022244738
v 0.068736777 0.906765103 0.069363825
v 0.034435026 0.656537712 -0.051278137
v 0.037960313 0.875032544 0.069476217
v 0.053844523 0.889121652 0.066805340
v 0.017588789 0.873869240 0.071138851
v 0.043978848 0.594647408 -0.024006851
v 0.046808839 0.657468319 -0.073034912
v 0.076192655 0.773982406 0.071727768
v 0.206320882 0.687724233 0.030299887
v 0.202819347 0.799950600 -0.066648558
v 0.053125344 0.581108451 -0.050063331
v 0.158143133 0.684694052 -0.083764166
v 0.120634817 0.782884240 -0.117018126
v 0.114244774 0.691631436 -0.112153687
v 0.081124060 0.576281607 -0.065953717
v 0.038953919 0.704381287 -0.082944565
v 0.030866137 0.773586512 -0.089238599
v 0.108367980 0.588698685 -0.096576609
v 0.110673130 0.575721622 -0.073895276
v 0.104345128 0.920916677 -0.149674803
v 0.089232795 0.902626991 0.064606145
v 0.079432651 0.876712143 0.069640450
v 0.123030260 0.564671695 -0.098548092
v 0.030612651 0.855041683 0.064652942
v 0.048760213 0.840814114 0.054248672
v 0.082245722 0.920862794 -0.159012631
v 0.145264760 0.561107755 -0.075570330
v 0.178879812 0.763347268 -0.094450787
v 0.021229694 0.833964705 -0.119746782
v 0.149115443 0.630242467 -0.076220639
v 0.176669031 0.560965776 -0.076459296
v 0.013342611 0.696110845 -0.045010068
v 0.158007219 0.550756395 -0.064092249
v 0.029005712 0.798576951 -0.090007044
v 0.177638277 0.554666281 -0.049605869
v 0.191432327 0.564968288 -0.034287371
v 0.056583870 0.728529692 0.058528684
v 0.110605679 0.893638968 -0.146539375
v 0.088714272 0.897394061 -0.154866368
v 0.015196830 0.780164182 -0.070866860
v 0.198841676 0.559156537 -0.015067318
v 0.114380404 0.644168496 -0.096134298
v 0.208285525 0.632364988 -0.010932868
v 0.197779939 0.616753817 0.028263858
v 0.153519720 0.637473106 -0.094187401
v 0.135005981 0.642762601 -0.085316524
v 0.195112124 0.560820222 0.039737068
v 0.171263233 0.844448566 0.056803025
v 0.210052446 0.843702912 0.009918124
v 0.195655793 0.637868047 -0.050905816
v 0.043455746 0.609451890 -0.045669399
v 0.168871656 0.566752911 0.063468590
v 0.086578943 0.753258586 0.075769879
v 0.203730851 0.650427580 0.001400561
v 0.199376270 0.643034220 0.023368398
v 0.085532732 0.666240454 -0.088310100
v 0.142928347 0.557506442 0.065194882
v 0.121492088 0.839418888 -0.132300243
v -0.008961691 0.766670585 0.012452928
v -0.013227184 0.669999957 -0.000594239
v 0.048349828 0.654532015 0.037822358
v 0.116595052 0.555089474 0.068483338
v 0.147028714 0.843860269 -0.115192369
v -0.010699676 0.727300048 0.006062204
v -0.007954423 0.786454260 0.017478261
v 0.094982281 0.552825928 0.056343574
v 0.021876676 0.835263073 0.055017464
v -0.002594807 0.837028861 0.051283341
v 0.124482736 0.897316456 0.044444855
v 0.064081676 0.570841432 0.023929937
v 0.123956203 0.923902690 0.040856026
v 0.192647174 0.554487288 0.006023902
v 0.106992826 0.755459607 0.081491463
v 0.038487323 0.929038823 -0.142110974
v 0.038965132 0.575128675 0.016502304
v 0.067089900 0.877723873 -0.156986251
v 0.011671565 0.585738897 0.012849234
v 0.034226395 0.602470577 0.011069574
v 0.038259506 0.812445641 -0.116917394
v 0.014528570 0.818568349 0.039543856
v 0.012421777 0.658081949 0.001899626
v -0.015034823 0.651264250 -0.002678659
v -0.011297618 0.707921684 0.003840032
v 0.192182630 0.545036614 -0.030009931
v -0.011966629 0.688893616 0.001477512
v 0.064662531 0.605056882 -0.070459098
v 0.083485208 0.751234055 -0.110162176
v 0.103101037 0.761659741 -0.126101822
v 0.166099533 0.745885968 0.073186405
v 0.094364479 0.710984051 0.075301297
v 0.169410825 0.716461599 0.070624232
v 0.097428754 0.600606024 -0.073525630
v 0.179037720 0.552675188 0.022923267
f 555 540 123
f 389 162 497
f 567 540 568
f 583 104 251
f 463 489 430
f 453 94 255
f 483 484 162
f 446 640 671
f 574 577 251
f 50 244 238
f 52 244 50
f 575 57 53
f 55 249 52
f 55 2 250
f 577 248 563
f 575 437 432
f 57 597 589
f 2 265 262
f 589 592 57
f 262 259 2
f 5 267 262
f 602 606 589
f 5 9 11
f 58 606 610
f 11 272 5
f 12 278 11
f 565 793 8
f 630 60 632
f 13 425 12
f 424 289 160
f 289 424 13
f 643 649 60
f 181 403 179
f 483 206 484
f 163 651 174
f 53 563 558
f 651 65 650
f 163 389 384
f 683 66 65
f 455 558 563
f 165 384 171
f 340 331 34
f 67 66 683
f 206 470 63
f 385 102 856
f 67 702 70
f 344 340 696
f 179 403 406
f 710 70 702
f 16 352 14
f 111 112 59
f 63 64 655
f 18 368 16
f 710 742 753
f 119 112 111
f 394 671 545
f 551 922 903
f 19 375 18
f 753 740 711
f 406 470 179
f 261 615 108
f 545 453 439
f 178 386 530
f 24 386 23
f 72 753 742
f 26 396 24
f 768 765 72
f 119 142 112
f 32 63 470
f 112 142 161
f 399 400 396
f 154 343 182
f 545 671 448
f 399 415 400
f 768 770 765
f 32 406 410
f 418 415 399
f 770 183 777
f 387 300 166
f 415 418 422
f 105 86 299
f 169 42 839
f 170 142 119
f 173 172 705
f 329 638 343
f 134 738 737
f 185 638 329
f 692 661 145
f 150 74 741
f 637 345 873
f 132 145 661
f 170 184 142
f 138 495 760
f 138 136 188
f 136 194 188
f 201 87 194
f 270 87 205
f 216 49 210
f 46 216 724
f 198 184 170
f 43 96 907
f 219 39 218
f 45 43 41
f 224 37 219
f 498 224 514
f 86 105 342
f 225 36 514
f 378 107 110
f 80 233 107
f 22 41 43
f 198 217 849
f 41 581 45
f 103 233 76
f 76 40 103
f 222 217 214
f 678 100 40
f 98 41 22
f 366 41 98
f 40 76 678
f 215 4 284
f 215 98 21
f 537 536 92
f 222 234 217
f 904 537 92
f 460 462 30
f 284 471 366
f 222 239 246
f 586 903 759
f 462 28 30
f 246 234 222
f 454 449 28
f 237 391 924
f 560 319 921
f 246 888 252
f 431 471 282
f 455 560 391
f 319 560 241
f 50 238 793
f 50 566 52
f 52 574 55
f 258 263 510
f 244 52 249
f 55 253 2
f 284 792 657
f 303 670 667
f 303 100 674
f 250 249 55
f 273 274 252
f 251 253 574
f 100 303 301
f 301 570 100
f 104 261 257
f 677 100 678
f 273 285 274
f 257 2 253
f 2 257 265
f 250 2 259
f 570 568 40
f 752 292 293
f 294 296 285
f 285 296 274
f 684 497 679
f 277 274 296
f 440 447 442
f 579 489 463
f 692 329 695
f 259 262 267
f 871 736 360
f 262 271 9
f 40 100 570
f 570 567 568
f 203 128 270
f 310 296 294
f 305 296 310
f 87 270 194
f 9 5 262
f 5 272 600
f 276 9 271
f 9 276 11
f 272 11 278
f 302 323 310
f 568 103 40
f 108 615 89
f 280 11 276
f 11 280 12
f 103 568 540
f 278 12 425
f 323 337 328
f 283 12 280
f 12 283 13
f 283 297 289
f 289 13 283
f 540 561 231
f 425 13 424
f 209 288 205
f 291 125 286
f 346 337 323
f 49 304 288
f 173 350 351
f 297 654 314
f 347 158 864
f 304 47 311
f 47 304 49
f 47 46 481
f 360 361 855
f 501 684 146
f 481 311 47
f 46 39 481
f 343 695 329
f 314 289 297
f 289 314 160
f 481 321 308
f 481 39 321
f 325 122 321
f 325 321 37
f 37 321 39
f 333 160 314
f 324 266 333
f 527 107 231
f 84 121 325
f 36 327 498
f 160 333 34
f 327 120 84
f 36 82 371
f 277 393 390
f 689 34 333
f 34 689 340
f 313 34 331
f 266 334 689
f 334 260 341
f 340 335 331
f 107 527 110
f 54 404 405
f 696 14 344
f 61 401 44
f 38 299 407
f 358 14 348
f 14 358 16
f 344 14 352
f 356 704 712
f 352 16 368
f 413 62 417
f 370 16 358
f 16 370 18
f 175 705 134
f 713 115 110
f 371 27 378
f 27 371 82
f 381 18 370
f 18 381 19
f 368 18 375
f 80 378 27
f 19 381 235
f 19 395 23
f 19 23 178
f 202 506 913
f 23 395 24
f 386 24 396
f 398 24 395
f 24 398 26
f 26 398 220
f 26 412 399
f 396 26 399
f 418 399 412
f 164 180 444
f 444 443 164
f 175 173 705
f 685 84 120
f 422 300 415
f 685 121 84
f 172 169 300
f 172 300 422
f 78 80 27
f 226 365 78
f 89 615 114
f 240 485 309
f 134 737 175
f 226 27 82
f 245 459 452
f 187 186 140
f 243 459 245
f 189 187 130
f 581 466 579
f 467 472 637
f 308 122 240
f 138 579 466
f 430 255 463
f 499 435 430
f 453 430 435
f 435 440 439
f 435 499 450
f 243 479 281
f 308 321 122
f 897 438 584
f 439 453 435
f 243 281 893
f 450 440 435
f 480 859 865
f 440 449 447
f 442 439 440
f 450 449 440
f 447 449 454
f 492 488 493
f 127 458 456
f 449 456 28
f 82 225 708
f 454 28 462
f 28 456 30
f 456 450 127
f 30 456 458
f 225 82 36
f 30 464 460
f 506 507 502
f 126 469 125
f 287 508 509
f 207 507 506
f 410 460 32
f 126 306 477
f 460 464 644
f 644 32 460
f 32 644 63
f 475 31 576
f 470 406 32
f 64 63 644
f 306 309 477
f 125 464 458
f 528 795 511
f 516 523 524
f 655 206 63
f 206 655 484
f 206 474 470
f 162 679 497
f 316 322 822
f 313 160 34
f 37 498 325
f 523 316 534
f 497 684 501
f 501 146 505
f 146 512 503
f 505 503 513
f 263 515 510
f 512 120 115
f 503 512 91
f 517 513 503
f 115 713 91
f 458 203 125
f 315 547 548
f 91 512 115
f 547 330 336
f 91 713 88
f 517 88 522
f 552 548 547
f 532 88 713
f 88 532 519
f 552 336 553
f 522 519 541
f 527 231 561
f 127 128 458
f 538 660 692
f 514 36 498
f 224 498 37
f 538 692 695
f 114 626 631
f 553 342 105
f 219 37 39
f 555 660 561
f 127 450 499
f 891 199 824
f 660 555 661
f 218 39 46
f 199 97 886
f 366 98 284
f 22 21 98
f 41 366 581
f 43 232 22
f 907 232 43
f 96 536 907
f 45 463 255
f 45 581 463
f 255 94 96
f 255 96 45
f 94 453 545
f 448 546 545
f 582 593 594
f 595 584 438
f 216 46 47
f 216 47 49
f 551 640 558
f 558 640 569
f 49 288 209
f 793 565 50
f 569 53 558
f 566 50 565
f 209 210 49
f 841 351 350
f 574 52 566
f 578 53 57
f 612 609 423
f 53 578 563
f 575 53 569
f 597 432 211
f 253 55 574
f 57 575 597
f 578 57 592
f 592 583 578
f 627 609 612
f 584 621 628
f 603 589 606
f 602 589 597
f 634 819 627
f 610 606 602
f 835 318 229
f 626 606 58
f 610 624 58
f 58 624 630
f 632 58 630
f 634 884 869
f 58 632 626
f 60 642 632
f 642 60 649
f 60 630 181
f 650 649 643
f 662 652 645
f 656 628 621
f 621 636 656
f 658 659 204
f 64 644 469
f 466 495 138
f 694 377 700
f 468 471 431
f 663 650 65
f 628 656 668
f 679 162 484
f 65 686 663
f 672 673 659
f 686 65 66
f 683 65 651
f 468 431 478
f 683 693 67
f 685 146 684
f 146 685 512
f 696 340 689
f 66 67 701
f 473 495 478
f 66 698 686
f 702 67 693
f 668 675 687
f 701 698 66
f 405 690 54
f 701 67 70
f 54 690 564
f 14 696 348
f 711 70 710
f 699 70 711
f 702 709 710
f 229 318 236
f 657 282 471
f 710 709 742
f 753 756 740
f 756 753 72
f 742 754 72
f 72 754 768
f 72 765 756
f 766 765 770
f 490 193 496
f 130 772 496
f 770 776 766
f 15 719 168
f 87 201 148
f 183 770 768
f 201 194 136
f 422 705 172
f 633 777 338
f 777 633 150
f 408 74 633
f 638 185 408
f 106 730 258
f 688 379 694
f 275 631 118
f 185 692 145
f 197 750 749
f 736 737 738
f 263 258 730
f 738 741 743
f 185 145 143
f 743 741 744
f 744 741 74
f 744 467 879
f 132 140 145
f 123 132 661
f 741 738 150
f 123 540 567
f 773 772 567
f 738 134 150
f 78 27 226
f 238 623 1
f 264 279 779
f 776 150 134
f 134 705 420
f 695 541 538
f 104 599 261
f 365 681 680
f 761 762 763
f 365 678 76
f 76 78 365
f 411 156 420
f 156 411 220
f 541 519 538
f 220 764 156
f 76 233 78
f 80 78 233
f 168 789 387
f 70 699 701
f 398 395 228
f 434 437 445
f 779 780 887
f 428 432 434
f 926 317 706
f 197 749 745
f 213 6 4
f 279 785 780
f 419 427 428
f 148 201 745
f 454 462 419
f 526 782 783
f 381 734 235
f 410 414 419
f 493 769 913
f 511 4 215
f 4 511 213
f 406 414 410
f 208 731 729
f 21 511 215
f 210 728 727
f 794 800 823
f 511 21 529
f 470 474 179
f 724 218 46
f 227 110 115
f 118 280 275
f 219 218 722
f 806 800 794
f 803 804 256
f 716 778 225
f 224 219 720
f 407 86 690
f 356 734 381
f 389 497 380
f 809 795 528
f 810 806 811
f 717 716 514
f 497 501 380
f 317 697 429
f 810 818 821
f 913 771 202
f 341 698 699
f 373 376 159
f 369 177 373
f 341 260 698
f 260 334 266
f 365 226 681
f 517 522 354
f 828 821 818
f 354 362 364
f 569 640 446
f 519 522 88
f 767 828 818
f 266 324 676
f 602 597 211
f 804 834 256
f 121 240 122
f 345 868 918
f 610 602 211
f 169 839 166
f 427 195 211
f 643 179 174
f 683 651 165
f 693 683 171
f 627 884 634
f 324 654 676
f 846 397 841
f 841 397 374
f 362 709 369
f 580 397 846
f 192 188 190
f 192 499 489
f 128 192 190
f 270 205 203
f 205 288 286
f 291 306 126
f 208 148 733
f 288 304 291
f 304 311 306
f 311 481 308
f 286 125 203
f 283 118 297
f 589 599 592
f 283 280 118
f 227 115 120
f 747 805 732
f 707 226 82
f 107 378 80
f 275 114 631
f 118 646 297
f 89 114 275
f 231 233 103
f 87 209 205
f 816 872 870
f 271 108 89
f 248 560 455
f 248 241 560
f 108 271 265
f 566 565 241
f 86 876 690
f 622 244 619
f 517 91 88
f 574 566 248
f 715 662 889
f 244 249 618
f 249 250 614
f 882 465 718
f 253 251 257
f 774 465 882
f 250 259 608
f 883 494 774
f 921 391 560
f 259 267 604
f 54 564 847
f 251 577 583
f 600 267 5
f 89 276 271
f 503 91 517
f 690 405 407
f 275 276 89
f 892 573 582
f 272 278 596
f 248 577 574
f 280 276 275
f 425 588 591
f 425 424 781
f 781 313 572
f 424 313 781
f 572 585 781
f 314 654 324
f 136 197 201
f 313 557 572
f 237 551 558
f 554 331 335
f 334 341 348
f 760 136 138
f 335 344 549
f 341 699 704
f 348 696 334
f 921 319 7
f 358 348 704
f 344 352 544
f 912 582 594
f 903 586 551
f 352 368 543
f 381 370 356
f 368 375 539
f 788 8 3
f 535 375 178
f 221 795 809
f 828 767 562
f 559 833 920
f 921 920 899
f 546 448 898
f 903 922 836
f 38 903 299
f 235 228 395
f 405 669 407
f 546 92 94
f 400 518 520
f 92 546 904
f 639 35 926
f 386 396 525
f 927 926 33
f 928 605 930
f 200 490 298
f 94 545 546
f 96 92 536
f 927 56 852
f 143 472 408
f 220 412 26
f 400 520 521
f 412 220 411
f 109 113 152
f 920 832 559
f 418 412 411
f 152 113 746
f 387 789 786
f 420 418 411
f 746 161 867
f 418 420 422
f 490 773 298
f 496 772 773
f 394 442 445
f 562 767 832
f 739 636 820
f 204 725 658
f 773 490 496
f 725 223 635
f 447 454 428
f 472 186 637
f 215 284 98
f 189 130 496
f 458 464 30
f 410 462 460
f 125 469 464
f 635 247 487
f 487 269 629
f 641 487 629
f 268 269 487
f 269 393 629
f 390 269 268
f 469 126 64
f 349 761 763
f 655 64 477
f 303 674 670
f 290 393 277
f 611 290 928
f 163 474 483
f 928 307 605
f 635 641 648
f 531 605 533
f 677 674 100
f 477 309 485
f 506 202 207
f 679 485 240
f 240 121 684
f 312 912 594
f 684 679 240
f 121 685 684
f 186 187 345
f 503 505 146
f 912 332 892
f 772 130 132
f 685 120 512
f 501 505 159
f 725 648 658
f 505 513 373
f 513 517 364
f 892 847 564
f 110 527 713
f 714 847 339
f 522 541 154
f 51 714 346
f 231 103 540
f 714 51 404
f 541 695 343
f 567 772 123
f 502 500 506
f 578 577 563
f 867 659 673
f 577 578 583
f 597 575 432
f 592 104 583
f 913 492 493
f 845 167 839
f 599 104 592
f 386 178 23
f 599 603 615
f 110 227 378
f 615 261 599
f 706 402 639
f 603 626 114
f 132 123 772
f 624 610 195
f 409 706 317
f 746 673 682
f 114 615 603
f 120 327 227
f 624 414 403
f 691 429 697
f 642 631 632
f 642 118 631
f 429 433 853
f 646 118 642
f 642 649 646
f 152 682 691
f 682 433 691
f 181 643 60
f 654 297 646
f 122 325 121
f 140 130 187
f 421 416 617
f 123 661 555
f 309 308 240
f 698 260 686
f 702 693 177
f 698 701 699
f 672 441 436
f 291 126 125
f 109 691 697
f 143 140 186
f 874 872 816
f 665 441 672
f 188 192 489
f 665 658 653
f 712 704 699
f 653 451 665
f 927 697 317
f 712 740 734
f 648 461 653
f 178 375 19
f 923 880 116
f 641 461 648
f 740 756 748
f 748 758 228
f 926 706 639
f 479 641 482
f 754 742 362
f 354 754 362
f 407 669 38
f 203 458 128
f 482 629 620
f 756 765 758
f 182 754 154
f 128 127 192
f 254 246 252
f 611 382 620
f 764 398 228
f 499 192 127
f 764 766 156
f 766 776 156
f 930 611 928
f 420 156 776
f 140 132 130
f 788 7 8
f 387 166 168
f 420 776 134
f 136 760 197
f 300 387 415
f 750 197 760
f 745 201 197
f 148 208 209
f 733 148 745
f 258 35 106
f 593 533 605
f 731 208 733
f 236 318 910
f 729 210 208
f 728 210 729
f 727 216 210
f 188 489 579
f 929 573 556
f 724 216 727
f 573 929 582
f 723 218 724
f 722 218 723
f 720 219 722
f 717 224 720
f 514 224 717
f 188 579 138
f 876 556 573
f 707 681 226
f 898 904 546
f 472 143 186
f 212 795 221
f 899 391 921
f 854 925 931
f 213 795 212
f 140 143 145
f 404 54 714
f 833 922 924
f 415 387 786
f 143 408 185
f 238 3 793
f 1 3 238
f 31 799 752
f 622 238 244
f 918 799 515
f 380 376 171
f 915 752 357
f 617 476 421
f 619 244 618
f 618 249 616
f 616 249 614
f 636 739 613
f 388 613 10
f 614 250 608
f 357 791 915
f 383 688 388
f 608 259 607
f 571 438 576
f 295 667 666
f 92 96 94
f 607 259 604
f 372 726 700
f 667 295 303
f 367 726 372
f 604 267 601
f 298 295 207
f 923 875 880
f 363 732 367
f 408 467 74
f 148 209 87
f 298 301 295
f 359 747 363
f 601 267 600
f 359 355 755
f 600 272 598
f 598 272 596
f 353 755 355
f 301 298 773
f 596 278 591
f 747 755 751
f 591 278 425
f 588 425 781
f 388 688 813
f 769 771 913
f 763 353 349
f 202 771 200
f 506 500 913
f 74 467 744
f 773 570 301
f 82 708 707
f 320 647 326
f 500 492 913
f 331 554 557
f 242 910 320
f 344 335 340
f 910 908 647
f 554 335 550
f 239 222 703
f 549 550 335
f 549 344 544
f 166 167 168
f 544 352 543
f 543 368 542
f 17 15 167
f 17 845 157
f 907 536 919
f 157 850 155
f 155 850 153
f 542 368 539
f 150 633 74
f 153 854 151
f 151 854 149
f 149 858 147
f 147 862 144
f 539 375 535
f 759 903 38
f 530 535 178
f 144 862 141
f 141 866 139
f 139 866 137
f 530 386 525
f 137 870 135
f 525 396 521
f 135 870 872
f 133 872 131
f 131 874 129
f 129 923 117
f 923 874 875
f 170 119 902
f 521 396 400
f 20 932 101
f 99 101 932
f 99 886 97
f 95 97 199
f 95 891 93
f 93 896 90
f 518 400 786
f 90 896 85
f 85 901 83
f 83 905 81
f 169 166 300
f 81 905 79
f 77 79 796
f 77 909 75
f 439 394 545
f 75 914 73
f 73 914 71
f 71 916 69
f 442 394 439
f 468 466 366
f 442 447 434
f 7 562 920
f 794 534 811
f 924 899 833
f 434 447 428
f 428 454 419
f 419 462 410
f 38 898 759
f 902 111 897
f 466 468 495
f 526 524 534
f 25 59 56
f 96 43 45
f 895 401 61
f 182 343 338
f 483 389 163
f 483 162 389
f 897 59 25
f 883 894 775
f 776 777 150
f 59 897 111
f 380 384 389
f 774 882 893
f 111 902 119
f 778 708 225
f 501 159 380
f 167 166 839
f 159 505 373
f 176 191 867
f 373 513 369
f 364 369 513
f 850 890 925
f 354 364 517
f 354 522 154
f 177 369 709
f 154 541 343
f 446 445 437
f 376 380 159
f 204 223 725
f 217 198 214
f 214 703 222
f 437 569 446
f 610 211 195
f 414 624 195
f 403 630 624
f 889 718 715
f 160 313 424
f 181 630 403
f 888 246 239
f 179 643 181
f 174 650 643
f 651 650 174
f 163 384 165
f 487 247 268
f 165 651 163
f 171 683 165
f 174 474 163
f 557 313 331
f 475 515 799
f 376 693 171
f 285 273 757
f 177 693 376
f 627 885 884
f 174 179 474
f 509 508 516
f 294 302 310
f 709 702 177
f 709 362 742
f 154 754 354
f 182 338 183
f 780 785 803
f 183 768 182
f 423 413 881
f 183 338 777
f 638 338 343
f 633 638 408
f 590 401 895
f 692 185 329
f 190 188 194
f 515 475 25
f 270 190 194
f 190 270 128
f 195 427 414
f 7 788 562
f 915 878 571
f 877 595 438
f 203 205 286
f 44 48 61
f 474 206 483
f 210 209 208
f 61 62 895
f 413 895 62
f 211 432 427
f 172 42 169
f 398 764 220
f 515 263 918
f 437 575 569
f 228 758 764
f 124 885 426
f 175 871 350
f 84 498 327
f 225 514 716
f 327 371 227
f 918 263 730
f 898 448 759
f 371 327 36
f 839 374 890
f 227 371 378
f 451 441 665
f 228 235 748
f 444 180 457
f 233 231 107
f 187 868 345
f 759 448 586
f 189 292 868
f 734 748 235
f 653 461 826
f 924 922 237
f 292 193 196
f 446 671 394
f 461 641 479
f 922 551 237
f 391 237 455
f 482 641 629
f 918 868 799
f 196 200 293
f 771 293 200
f 558 455 237
f 281 287 894
f 894 893 281
f 248 566 241
f 257 251 104
f 255 430 453
f 257 261 265
f 509 775 287
f 260 266 676
f 509 516 524
f 265 261 108
f 523 516 531
f 322 316 523
f 273 252 888
f 265 271 262
f 811 534 316
f 316 315 811
f 676 686 260
f 366 466 581
f 478 495 468
f 330 547 315
f 547 336 552
f 366 471 468
f 760 495 473
f 657 471 284
f 336 342 553
f 553 900 552
f 832 900 553
f 865 878 791
f 792 284 4
f 31 571 576
f 286 288 291
f 438 571 877
f 906 864 863
f 4 790 792
f 8 7 319
f 303 295 301
f 291 304 306
f 570 773 567
f 739 617 392
f 617 416 392
f 306 311 309
f 309 311 308
f 170 628 668
f 613 739 10
f 739 392 10
f 656 675 668
f 656 815 675
f 680 678 365
f 813 613 388
f 324 333 314
f 687 198 668
f 379 688 383
f 295 666 207
f 815 656 636
f 377 694 379
f 325 498 84
f 689 333 266
f 334 696 689
f 700 377 372
f 861 834 860
f 703 721 239
f 732 726 367
f 834 861 256
f 348 341 704
f 747 732 363
f 356 358 704
f 735 888 721
f 370 358 356
f 735 264 757
f 735 273 888
f 755 747 359
f 369 364 362
f 353 763 755
f 647 761 326
f 761 349 326
f 376 373 177
f 779 757 264
f 780 779 279
f 384 380 171
f 235 395 19
f 736 871 737
f 562 788 917
f 910 647 320
f 785 804 803
f 414 406 403
f 256 323 803
f 813 675 815
f 415 786 400
f 427 419 414
f 422 420 705
f 432 428 427
f 430 489 499
f 587 580 590
f 437 434 432
f 445 442 434
f 446 394 445
f 671 586 448
f 819 609 627
f 456 449 450
f 455 563 248
f 865 791 769
f 581 579 463
f 645 652 817
f 644 464 469
f 652 662 715
f 874 923 129
f 715 664 652
f 694 812 688
f 477 64 126
f 750 760 473
f 485 655 477
f 465 715 718
f 507 207 666
f 465 774 494
f 865 486 480
f 812 675 813
f 485 484 655
f 207 202 298
f 883 504 825
f 493 865 769
f 783 782 504
f 679 484 485
f 202 200 298
f 196 490 200
f 196 193 490
f 877 859 476
f 302 803 323
f 189 496 193
f 814 806 810
f 168 719 789
f 821 814 810
f 391 899 924
f 713 527 532
f 467 408 472
f 302 294 887
f 786 787 518
f 538 519 532
f 561 532 527
f 926 35 33
f 538 532 660
f 540 555 561
f 551 586 640
f 319 241 565
f 660 532 561
f 113 161 746
f 161 176 867
f 8 319 565
f 223 247 635
f 781 585 784
f 620 629 393
f 887 780 302
f 269 390 393
f 671 640 586
f 781 784 588
f 599 589 603
f 393 290 611
f 626 603 606
f 928 290 305
f 623 238 622
f 625 1 623
f 774 893 894
f 312 332 912
f 626 632 631
f 332 339 847
f 847 892 332
f 757 887 285
f 847 714 54
f 793 3 8
f 732 807 726
f 858 931 857
f 675 812 687
f 168 167 15
f 273 735 757
f 920 921 7
f 402 385 639
f 167 845 17
f 638 633 338
f 646 649 663
f 650 663 649
f 845 850 157
f 888 239 721
f 663 654 646
f 706 409 48
f 850 854 153
f 676 654 663
f 429 409 317
f 661 692 660
f 854 858 149
f 676 663 686
f 858 862 147
f 433 429 691
f 678 680 677
f 699 711 712
f 712 734 356
f 711 710 753
f 862 866 141
f 712 711 740
f 682 436 827
f 734 740 748
f 866 870 137
f 214 687 808
f 748 756 758
f 664 816 652
f 872 133 135
f 198 687 214
f 754 182 768
f 872 874 131
f 665 659 658
f 758 765 766
f 658 648 653
f 766 764 758
f 776 770 777
f 668 198 170
f 117 923 116
f 787 786 789
f 929 330 822
f 533 822 322
f 556 336 330
f 531 322 523
f 899 920 833
f 662 444 889
f 346 323 256
f 491 482 620
f 116 880 911
f 911 20 116
f 382 491 620
f 911 932 20
f 932 886 99
f 645 443 662
f 930 382 611
f 382 930 516
f 886 824 199
f 605 531 930
f 491 508 848
f 628 170 902
f 256 347 346
f 482 848 479
f 891 896 93
f 347 256 861
f 820 617 739
f 866 819 817
f 605 594 593
f 896 901 85
f 929 593 582
f 612 881 885
f 901 905 83
f 826 451 653
f 451 457 180
f 672 659 665
f 441 180 851
f 79 905 796
f 436 673 672
f 436 851 827
f 909 914 75
f 682 673 436
f 914 916 71
f 584 902 897
f 876 86 342
f 69 916 1
f 829 433 827
f 700 808 694
f 788 3 916
f 853 829 417
f 409 61 48
f 402 48 855
f 870 817 816
f 855 29 360
f 874 816 664
f 385 361 102
f 830 880 875
f 576 897 25
f 819 634 817
f 68 69 1
f 106 856 730
f 743 736 738
f 910 242 236
f 862 857 819
f 744 879 102
f 880 830 831
f 840 528 843
f 401 846 44
f 803 302 780
f 769 791 357
f 878 915 791
f 831 911 880
f 918 873 345
f 576 25 475
f 799 31 475
f 841 29 846
f 879 856 102
f 106 639 385
f 573 564 876
f 911 831 802
f 342 556 876
f 337 339 332
f 25 510 515
f 350 29 841
f 564 573 892
f 892 582 912
f 510 25 56
f 864 906 837
f 312 328 337
f 929 822 593
f 33 35 258
f 871 360 29
f 840 860 835
f 864 158 863
f 29 855 44
f 916 914 917
f 808 687 812
f 594 307 312
f 307 305 328
f 916 917 788
f 33 56 927
f 840 835 809
f 307 594 605
f 736 743 361
f 531 516 930
f 290 277 305
f 852 109 927
f 318 835 860
f 21 844 529
f 852 59 112
f 620 393 611
f 102 743 744
f 112 113 852
f 751 763 762
f 647 785 762
f 805 747 751
f 252 268 254
f 230 835 229
f 487 641 635
f 637 879 467
f 124 851 164
f 809 230 221
f 161 142 176
f 807 732 805
f 247 234 254
f 230 809 835
f 808 700 807
f 345 637 186
f 176 184 191
f 812 694 808
f 204 849 223
f 849 204 191
f 813 688 812
f 635 648 725
f 849 184 198
f 815 613 813
f 815 636 613
f 217 223 849
f 659 191 204
f 217 234 223
f 191 184 849
f 859 480 421
f 795 213 511
f 245 461 243
f 878 865 859
f 802 886 932
f 191 659 867
f 452 718 889
f 223 234 247
f 176 142 184
f 246 254 234
f 865 493 486
f 293 771 357
f 268 247 254
f 771 769 357
f 805 264 735
f 268 252 390
f 161 113 112
f 486 493 488
f 390 252 274
f 867 673 746
f 264 751 279
f 274 277 390
f 746 682 152
f 281 848 287
f 827 433 682
f 808 703 214
f 152 691 109
f 109 852 113
f 476 859 421
f 296 305 277
f 476 595 877
f 305 307 928
f 196 293 292
f 595 476 820
f 726 807 700
f 752 293 357
f 307 328 312
f 310 328 305
f 56 59 852
f 292 752 799
f 328 310 323
f 886 825 824
f 312 337 332
f 807 703 808
f 891 824 782
f 193 292 189
f 844 21 22
f 429 853 409
f 109 697 927
f 56 33 510
f 105 559 553
f 339 337 346
f 346 714 339
f 51 346 347
f 317 926 927
f 564 690 876
f 863 844 232
f 799 868 292
f 510 33 258
f 843 528 529
f 844 863 842
f 861 840 843
f 861 158 347
f 861 860 840
f 752 915 31
f 158 843 842
f 843 158 861
f 842 529 844
f 919 837 906
f 906 232 907
f 809 528 840
f 730 873 918
f 730 856 873
f 873 856 879
f 856 106 385
f 817 634 645
f 837 919 838
f 817 652 816
f 919 906 907
f 919 536 537
f 743 102 361
f 904 669 838
f 898 669 904
f 669 898 38
f 703 807 721
f 405 404 838
f 669 405 838
f 922 833 836
f 294 285 887
f 361 385 402
f 869 645 634
f 830 875 664
f 916 3 1
f 864 51 347
f 402 855 361
f 909 801 914
f 397 890 374
f 48 44 855
f 796 909 77
f 879 637 873
f 901 798 905
f 580 925 397
f 48 402 706
f 896 800 901
f 891 823 896
f 409 62 61
f 853 62 409
f 881 413 417
f 417 62 853
f 86 407 299
f 459 893 882
f 199 891 95
f 830 465 831
f 829 426 417
f 426 829 124
f 426 881 417
f 124 829 827
f 433 829 853
f 886 802 825
f 774 894 883
f 851 124 827
f 164 884 124
f 441 851 436
f 180 164 851
f 443 869 164
f 911 802 932
f 715 830 664
f 874 664 875
f 736 361 360
f 451 180 441
f 457 452 889
f 889 444 457
f 866 817 870
f 106 35 639
f 459 718 452
f 826 452 457
f 452 826 245
f 451 826 457
f 862 819 866
f 858 857 862
f 461 245 826
f 459 882 718
f 479 243 461
f 854 931 858
f 850 925 854
f 846 401 580
f 845 890 850
f 491 848 482
f 848 281 479
f 825 494 883
f 382 508 491
f 900 832 767
f 508 287 848
f 896 823 800
f 839 890 845
f 504 782 824
f 42 374 839
f 516 508 382
f 908 910 318
f 534 524 523
f 552 818 548
f 42 172 173
f 901 800 798
f 818 552 900
f 533 322 531
f 871 175 737
f 868 187 189
f 22 232 844
f 593 822 533
f 822 315 316
f 929 556 330
f 330 315 822
f 838 919 537
f 904 838 537
f 318 860 834
f 908 318 834
f 465 830 715
f 556 342 336
f 105 836 559
f 833 559 836
f 29 44 846
f 908 834 804
f 562 917 828
f 299 836 105
f 818 900 767
f 832 553 559
f 562 832 920
f 811 315 548
f 828 801 821
f 801 828 917
f 821 797 814
f 836 299 903
f 401 590 580
f 797 821 801
f 905 798 796
f 796 814 797
f 810 548 818
f 814 798 806
f 798 814 796
f 909 796 797
f 811 548 810
f 413 587 590
f 404 51 837
f 51 864 837
f 837 838 404
f 909 797 801
f 529 842 843
f 158 842 863
f 232 906 863
f 800 806 798
f 529 528 511
f 794 811 806
f 785 908 804
f 785 647 908
f 859 877 878
f 526 534 794
f 877 571 878
f 571 31 915
f 173 351 42
f 524 783 509
f 350 173 175
f 29 350 871
f 823 526 794
f 783 524 526
f 526 823 782
f 42 351 374
f 841 374 351
f 504 775 783
f 509 783 775
f 782 823 891
f 885 124 884
f 887 757 779
f 914 801 917
f 426 885 881
f 890 397 925
f 825 504 824
f 775 504 883
f 925 587 931
f 587 925 580
f 802 494 825
f 785 279 762
f 494 831 465
f 831 494 802
f 894 287 775
f 590 895 413
f 438 897 576
f 884 164 869
f 762 279 751
f 423 931 587
f 587 413 423
f 931 423 857
f 762 761 647
f 617 820 476
f 595 820 621
f 751 755 763
f 893 459 243
f 751 264 805
f 609 857 423
f 423 881 612
f 662 443 444
f 721 805 735
f 621 584 595
f 857 609 819
f 443 645 869
f 612 885 627
f 636 621 820
f 628 902 584
f 805 721 807
