# avbd fit, rung k10-i16-s300 of Gate 6d (body space)
v -0.018165050 0.578762352 0.014636273
v -0.117555633 0.588503540 0.091521397
v -0.016932208 0.592121899 0.029502664
v 0.000547692 0.932096601 0.077687345
v -0.177381709 0.566539884 0.064648420
v 0.000374209 0.952666879 0.075727992
v -0.016996935 0.623229861 0.036728721
v -0.017115511 0.609737515 0.021770250
v -0.168630779 0.584723592 0.053848099
v 0.143915355 0.943077564 -0.107789755
v -0.196058288 0.584765673 0.047487609
v -0.186262339 0.585475087 0.021226088
v -0.199847341 0.587733448 0.001009007
v -0.159800023 0.583257794 -0.063905805
v 0.013438256 0.578366637 -0.018164370
v -0.159504563 0.574184537 -0.086248517
v 0.035491768 0.574137866 -0.025272727
v -0.136881828 0.572171390 -0.086313508
v -0.121947035 0.585272670 -0.100305617
v 0.195626572 0.531309724 -0.003036932
v -0.000712948 0.892279625 0.075853996
v -0.001497478 0.872359157 0.071672454
v -0.108867094 0.581456661 -0.080387041
v -0.101517335 0.591461182 -0.099962249
v 0.098978922 0.823630035 -0.122846924
v -0.091483608 0.606333375 -0.086743042
v -0.142165929 0.898253083 -0.143036440
v -0.156328663 0.790818512 0.072614118
v 0.044028524 0.677594244 -0.080918357
v -0.173398763 0.805159450 0.081698343
v 0.070819840 0.856454253 -0.145517409
v -0.204585791 0.779945493 0.050520428
v 0.095242739 0.775009036 -0.133380249
v -0.200688690 0.581982434 -0.040353686
v 0.085784346 0.767061412 -0.113869771
v -0.155643061 0.905859292 -0.103564993
v -0.183132350 0.904062152 -0.062864423
v 0.014411032 0.739434004 0.037611898
v -0.176447272 0.907129109 -0.037199657
v -0.087041602 0.896249175 -0.149553642
v -0.037738901 0.879829526 0.067879774
v 0.011237050 0.629422545 -0.055688210
v -0.024828073 0.855012894 0.063491233
v 0.068410151 0.681682825 -0.096898757
v -0.052536614 0.856940448 0.065667108
v -0.195012048 0.918734729 -0.022351574
v -0.193980977 0.900391936 -0.002303115
v 0.082307614 0.706714749 -0.096954443
v -0.170051083 0.891656101 0.006629984
v -0.064214416 0.589764714 0.043283932
v 0.066847436 0.818752944 0.072213784
v -0.076527543 0.590477049 0.070415273
v -0.091231421 0.691739500 0.067433730
v 0.066501416 0.770687878 0.068728253
v -0.102783546 0.594524741 0.059769325
v 0.104614004 0.792582393 -0.115742564
v -0.120049201 0.684997678 0.076321445
v -0.183164150 0.690007091 0.054927737
v 0.123240009 0.805822551 -0.131032854
v -0.199097469 0.690198243 0.031593494
v 0.095487311 0.686076522 -0.098126136
v 0.112482846 0.676708043 -0.115772262
v -0.209325194 0.792201459 0.025991958
v -0.201845080 0.816075981 0.023489617
v -0.219031379 0.689683557 -0.040700648
v -0.195694953 0.683623552 -0.061048470
v -0.176705658 0.698726654 -0.074578017
v -0.012289011 0.593837261 0.000894802
v 0.011434783 0.588068426 0.003013019
v -0.166539863 0.681509137 -0.096662372
v 0.033570521 0.582640290 0.009812592
v -0.123894617 0.693418145 -0.124993324
v 0.052751653 0.574908614 0.019923113
v -0.031429864 0.748615444 -0.095075399
v 0.069476292 0.566310465 0.031474158
v -0.109748803 0.900571823 -0.153107524
v 0.082723387 0.555399776 0.044322796
v -0.121383071 0.900986791 -0.134380519
v 0.097330771 0.565979242 0.053423829
v -0.132080406 0.882891655 -0.130293414
v 0.109269485 0.552120149 0.059994739
v -0.154271513 0.917540371 -0.131692976
v 0.125657946 0.541450679 0.065319225
v -0.188109338 0.867545724 -0.094843782
v 0.143772677 0.539808154 0.057072572
v 0.048176713 0.722387373 0.059867643
v -0.155295745 0.896391571 0.063632682
v -0.135217801 0.795758069 -0.137455434
v -0.167692780 0.620492339 0.054018609
v 0.160111085 0.549499869 0.055832416
v -0.139549568 0.808279991 -0.112148799
v -0.025447067 0.804019928 0.048404813
v 0.166248605 0.531460524 0.063677505
v -0.050106335 0.806575656 0.057857633
v 0.159075543 0.534454823 0.047230426
v -0.033154078 0.829679608 0.058837783
v 0.177608579 0.534481406 0.049910922
v -0.023262562 0.900825977 0.072762109
v 0.184585974 0.530005276 0.032226685
v -0.072277136 0.910479724 -0.163640738
v 0.184179842 0.530974388 0.012853560
v 0.026016260 0.750786901 -0.092565738
v -0.100489341 0.876776218 -0.156226307
v -0.118907556 0.641804814 0.092030101
v 0.041846775 0.699245751 0.047139637
v 0.065174460 0.769486070 -0.106705345
v -0.126678795 0.860813022 -0.130085975
v -0.145879596 0.619500279 0.062615551
v 0.136450142 0.761686146 -0.105574928
v -0.144694522 0.846273422 -0.135798290
v 0.136841789 0.822133720 -0.118095040
v 0.154019371 0.801686585 -0.122002140
v 0.152546182 0.773602486 -0.120564997
v -0.175099924 0.642999291 0.052159496
v -0.142696947 0.836354256 -0.111624599
v 0.201061875 0.532739162 -0.022473950
v 0.188856736 0.543266714 -0.013545406
v -0.205458552 0.634085000 0.027662536
v 0.154767752 0.822744548 -0.104639925
v -0.165737540 0.850838482 -0.100301981
v -0.185235173 0.848956883 -0.071510330
v -0.193792447 0.866001904 -0.054890178
v -0.067823350 0.849262118 -0.144037634
v 0.167546198 0.664711654 -0.099526502
v -0.173206955 0.839101136 0.048042595
v -0.194906175 0.839511395 0.025693500
v -0.135731012 0.829162300 0.083044752
v -0.147344306 0.844608188 0.065030977
v 0.186223626 0.535718322 -0.031298798
v -0.029255817 0.839506745 -0.128743738
v 0.179424703 0.532076418 -0.049457587
v -0.050436430 0.831498265 -0.134998679
v 0.167776734 0.535983860 -0.066726543
v -0.036515512 0.686025977 -0.083990574
v 0.187351644 0.535828471 -0.065159298
v -0.110579446 0.889917195 0.049315579
v 0.176317647 0.534541726 -0.081439570
v -0.097074091 0.896697164 0.073664300
v 0.156413004 0.533033848 -0.081801690
v -0.029160339 0.816238284 -0.123797573
v 0.142451644 0.533385873 -0.096312635
v 0.169858128 0.808304608 -0.095029555
v -0.033026509 0.800824940 -0.105446219
v 0.143501163 0.544815540 -0.082399443
v -0.055058323 0.811657906 -0.121259354
v -0.188499942 0.809376597 -0.101605833
v 0.136787429 0.553485632 -0.068129741
v -0.154023305 0.917387009 0.048924275
v 0.120396815 0.549583673 -0.080507465
v -0.041899640 0.717240453 -0.094371289
v 0.101977527 0.551266789 -0.072018184
v 0.151942760 0.748717189 -0.116178058
v 0.084163710 0.553289235 -0.062190253
v -0.123724222 0.750665009 -0.116401717
v 0.067450881 0.558364749 -0.049928494
v -0.085588165 0.661313593 -0.091855593
v 0.053124815 0.565956712 -0.035967316
v 0.062530518 0.862688184 0.062269736
v -0.186780378 0.768625438 -0.088948935
v -0.214247942 0.586241364 -0.015617631
v 0.170634151 0.783632874 -0.105884291
v -0.217550486 0.790384471 -0.038824651
v -0.221232533 0.746068180 -0.029000714
v 0.153098047 0.654136777 -0.076600365
v -0.212710068 0.730216384 -0.049675193
v -0.012716586 0.597329080 -0.051307045
v 0.015138315 0.585846841 -0.041709073
v -0.012283039 0.585286081 -0.034858126
v -0.012621175 0.617027700 -0.053209491
v 0.181968004 0.831220806 -0.112091437
v -0.192392409 0.737072945 -0.061983079
v -0.011962947 0.636263132 -0.057360701
v -0.011818298 0.654750705 -0.064504348
v -0.212880135 0.726345181 -0.007567604
v -0.011594065 0.674558043 -0.067065880
v 0.181749597 0.790462792 -0.085927203
v -0.172873184 0.731302083 -0.103093192
v -0.120347165 0.560223162 -0.079680540
v -0.208628803 0.737013578 0.024345478
v 0.177243382 0.672434688 -0.077883154
v -0.201436639 0.714099705 0.035928737
v -0.104312733 0.733432233 -0.115420461
v -0.092326060 0.718273520 -0.101592503
v 0.197981730 0.809157491 -0.094308324
v -0.058048673 0.790229261 -0.106775269
v -0.005601563 0.811846912 -0.105558798
v -0.004571832 0.824729741 -0.121022783
v -0.112565100 0.875367641 0.076075122
v -0.005774613 0.844739616 -0.123068020
v -0.129155278 0.860201001 0.059876312
v 0.202452347 0.778262675 -0.085561387
v -0.121269800 0.850147426 0.081271864
v -0.006064166 0.863028049 -0.132346690
v -0.134246632 0.881833196 0.050104368
v -0.167894170 0.720045805 0.072631940
v -0.009786766 0.878161252 -0.145758033
v -0.125721171 0.909119606 0.040030066
v 0.184989944 0.831918597 -0.075938642
v 0.172727972 0.554934442 0.036002539
v -0.008111112 0.898591638 -0.143080384
v -0.132859558 0.906580150 0.060629141
v -0.005815174 0.915504456 -0.155451953
v -0.171799913 0.858333409 0.068128161
v 0.196548119 0.768043399 -0.061834257
v -0.169531047 0.881247401 0.051312588
v -0.218089148 0.781367242 0.003230175
v -0.003690021 0.920276761 -0.136109203
v -0.143033609 0.915425777 0.026344284
v -0.149798200 0.891715348 0.032124765
v -0.169201821 0.914598942 0.017088696
v -0.143986657 0.713855207 0.079900935
v 0.040398527 0.952662647 0.074060991
v 0.020416219 0.953377724 0.077057488
v 0.203776151 0.853836894 -0.058569789
v 0.000800998 0.912402153 0.073513821
v -0.173192486 0.914981544 -0.010686748
v 0.210260391 0.821159244 -0.056786321
v -0.187980309 0.927423477 -0.043422863
v -0.169251442 0.924716771 -0.054608196
v -0.093955278 0.633445323 -0.090691663
v 0.060292471 0.951374352 0.069855377
v 0.203300908 0.837460697 -0.034587026
v 0.216271311 0.786496520 -0.047245033
v -0.180455759 0.928882420 -0.074244782
v -0.156771898 0.929960847 -0.111092806
v -0.129934296 0.922453284 -0.139541820
v -0.147710651 0.862928510 -0.115287445
v -0.115227103 0.633301854 -0.085354246
v 0.086687945 0.937223315 0.076675549
v 0.076904252 0.944626451 0.060858674
v -0.106556192 0.856684983 -0.143150583
v -0.002305227 0.852960408 0.065560549
v -0.118727587 0.878851533 -0.144881099
v 0.209415033 0.809583306 -0.029730508
v -0.128732815 0.614394665 -0.094913952
v 0.089549556 0.931911469 0.058155376
v -0.038725212 0.688920557 0.046587817
v -0.042282309 0.570898116 0.034097116
v 0.202605531 0.850063026 -0.013291553
v -0.206094742 0.842518687 -0.046125248
v -0.060356796 0.628848553 0.044841275
v 0.105412863 0.934494138 0.047987375
v 0.204730317 0.677475154 -0.011604342
v -0.068829358 0.566591620 0.054210234
v 0.219073728 0.675221324 -0.028978959
v 0.208834410 0.827148438 -0.008684790
v 0.213997930 0.783214808 -0.016822591
v -0.073004216 0.642516851 0.063993849
v -0.098358504 0.571086705 0.071178928
v -0.129033387 0.582800150 0.065799877
v -0.111999251 0.631309450 0.068772443
v 0.211067587 0.813844502 0.019505825
v -0.118469223 0.609181821 0.070119947
v 0.213758990 0.804226041 -0.005024162
v -0.064341418 0.832327187 0.067113578
v 0.109923996 0.854588866 0.088730857
v -0.117267691 0.617256880 0.092265397
v 0.080540091 0.787557900 -0.117281899
v -0.130672663 0.562128007 0.087573096
v -0.197125122 0.642808676 -0.052611519
v -0.131019875 0.629969895 0.075071499
v -0.153032556 0.583503485 0.080701120
v 0.070431568 0.806011081 -0.123558201
v 0.182809517 0.878704369 0.037148587
v -0.137972727 0.606412649 0.079927407
v -0.192252725 0.625053585 -0.036550947
v -0.160678372 0.555466294 0.078391440
v 0.216342479 0.786045432 0.010609199
v 0.212434560 0.766246200 0.024243841
v -0.150078297 0.871149421 0.066996470
v -0.153135926 0.600277781 0.058194764
v -0.173763841 0.571282506 0.041105025
v 0.191868871 0.831282437 0.030569654
v 0.201293439 0.809179187 0.047290556
v -0.194921657 0.624508739 0.056748498
v -0.182075873 0.602444530 0.062540427
v 0.194071695 0.783332288 0.059758086
v -0.193231881 0.561167300 0.030519048
v 0.153574005 0.877214313 0.043884970
v -0.184800953 0.609803975 0.035621677
v 0.214769289 0.669781148 0.010918546
v -0.050304823 0.947058320 0.068597868
v -0.202474430 0.608118951 0.014272027
v -0.023788264 0.922410131 0.091414139
v 0.187169030 0.828478515 0.057065271
v -0.165608615 0.860599697 0.043847777
v 0.201303691 0.660990953 0.033038110
v -0.169033721 0.874338627 0.025650540
v -0.194010288 0.605918527 -0.012564411
v 0.184906974 0.760516822 0.067537203
v -0.187958434 0.861438096 0.033227067
v 0.015735405 0.853244126 -0.147024736
v 0.019562047 0.879951477 -0.143174022
v 0.164260417 0.821518421 0.063209757
v -0.031297091 0.925495505 -0.149092898
v 0.177619502 0.803166509 0.059841979
v -0.197391897 0.629350781 -0.002544435
v -0.025573004 0.903495908 -0.161820516
v 0.024462054 0.720326066 0.049733102
v -0.033496715 0.613672793 -0.052643336
v -0.046086203 0.903142154 -0.146480575
v 0.158866778 0.837126255 0.081347831
v -0.055771548 0.924910724 -0.152883887
v -0.192269102 0.881073475 0.015963713
v 0.162694752 0.779545546 0.068131052
v -0.205717176 0.858823776 0.012072878
v 0.160705477 0.760092974 0.090035476
v -0.191536576 0.865664959 -0.030354455
v -0.204406708 0.849423409 -0.014486948
v 0.162205070 0.808698833 0.083157316
v -0.202948168 0.875654221 -0.008186719
v 0.138312846 0.771248639 0.079361439
v -0.212067038 0.559494138 -0.027976310
v -0.217066333 0.611538172 -0.005880120
v 0.110709488 0.662484288 0.085296236
v 0.135174766 0.658973873 0.077885099
v 0.110935785 0.731882393 -0.127389848
v 0.100026488 0.905647576 0.070301600
v -0.037777558 0.627892435 0.038511809
v 0.123039864 0.937874675 0.052540738
v -0.179985255 0.883905113 -0.045971550
v 0.146353111 0.681744754 0.075778373
v 0.132968143 0.824309528 0.094352014
v -0.209349513 0.625847936 -0.021285240
v -0.178841025 0.878422081 -0.072019249
v 0.140280187 0.934544742 0.049524877
v -0.163472742 0.879356205 -0.100077428
v 0.148372024 0.789234936 0.094432548
v -0.076768719 0.778781831 -0.116644636
v 0.104860082 0.686399519 0.072030045
v -0.188488051 0.559337735 -0.046483241
v 0.113715991 0.774855018 0.084511258
v -0.205869764 0.604993701 -0.030138558
v -0.189441174 0.618827462 -0.061850838
v -0.165350109 0.559042335 -0.057410270
v 0.078660406 0.681445718 0.068436250
v 0.126270264 0.798748851 0.078124397
v -0.078215964 0.739919662 -0.101484001
v 0.101769231 0.793759286 0.081195377
v -0.175092876 0.579500496 -0.047782913
v -0.172146618 0.637884915 -0.066545203
v 0.064544618 0.701065660 0.060195863
v -0.092999116 0.757880569 -0.119829893
v -0.176786110 0.565822959 -0.076421879
v 0.019311352 0.816191852 -0.110506631
v 0.101829156 0.821995258 0.076288179
v 0.080626599 0.844870448 0.075060531
v -0.164369717 0.612237632 -0.065342344
v 0.133415088 0.934803367 0.032992266
v 0.018356262 0.666748405 -0.068688750
v 0.020999588 0.646769285 -0.062230576
v -0.149502993 0.557098866 -0.072019659
v 0.152300090 0.939261079 0.034614190
v -0.142158478 0.750112414 -0.135648936
v 0.143669814 0.935206294 0.018264029
v -0.146216899 0.615476787 -0.077867970
v 0.046349823 0.889328837 -0.147802159
v -0.165877342 0.599264562 -0.083890326
v 0.156445429 0.940440059 0.005166863
v 0.034631517 0.701211095 -0.082544863
v 0.037132226 0.725161672 -0.092480108
v -0.152083367 0.732804656 -0.117557205
v 0.173205629 0.945414722 -0.003724476
v -0.144695342 0.755751252 -0.110995911
v -0.107161857 0.920157790 -0.135551810
v -0.049715813 0.904346168 0.086361691
v 0.165678039 0.940695882 -0.020961516
v -0.149915084 0.551189363 -0.097925477
v -0.155759007 0.746179700 -0.094109543
v -0.146038234 0.591647804 -0.077741027
v -0.150029093 0.889431119 -0.121077813
v 0.174769759 0.945162416 -0.036022309
v -0.175615668 0.756586909 -0.105972335
v 0.037679639 0.627642334 -0.060908101
v -0.125184730 0.555281401 -0.103071667
v -0.186529458 0.745710254 -0.085098825
v 0.167478681 0.943417370 -0.054487504
v -0.147820681 0.871638775 -0.138346925
v 0.167221382 0.945508838 -0.074103430
v -0.193638474 0.766236901 -0.065188006
v -0.146282762 0.597478330 -0.097652085
v 0.193381146 0.706011057 0.061696045
v 0.155342311 0.941812634 -0.089530893
v -0.210156247 0.750362039 -0.054385774
v 0.051584035 0.748115063 -0.100505397
v -0.106834508 0.565844417 -0.097812422
v -0.033801295 0.589366913 -0.047024831
v 0.163771346 0.944501698 -0.106919125
v -0.216173649 0.770257890 -0.047672860
v 0.203263670 0.786652565 0.034101225
v -0.035468280 0.667381346 0.037489243
v 0.127965271 0.943436265 -0.119843021
v 0.200349882 0.756929815 0.045821123
v -0.081880167 0.765856624 0.068899140
v -0.111628987 0.605609775 -0.080777168
v -0.086934708 0.575985432 -0.082786433
v 0.061621685 0.629488707 -0.075052612
v -0.107893966 0.617527604 -0.102881536
v -0.080741614 0.601372898 -0.065425292
v -0.077007458 0.576222777 -0.057410073
v 0.082051657 0.661996722 -0.099963851
v 0.065768689 0.726549506 -0.099473521
v -0.207151696 0.727945328 0.056611769
v 0.053484935 0.792362154 0.062600777
v 0.041512333 0.767464995 0.058816522
v -0.207761168 0.754088342 0.053238399
v 0.037174277 0.743416667 0.047005050
v -0.034231953 0.772314489 -0.110403694
v 0.101773776 0.703309894 -0.122455493
v -0.182562321 0.766265690 0.061169039
v -0.077496506 0.642888248 -0.079116203
v -0.085214183 0.623077929 -0.074083105
v 0.108586252 0.645505190 -0.109063938
v -0.179480791 0.740434289 0.061257064
v -0.053257652 0.599221647 -0.065825984
v 0.118923008 0.928928733 -0.127747551
v 0.121590614 0.670066059 -0.092872381
v -0.063596785 0.623419881 -0.076923147
v -0.167602688 0.755774140 0.083705388
v -0.055628926 0.657244146 -0.085900411
v 0.114243567 0.947541058 -0.129188389
v -0.041913800 0.632742226 -0.067157961
v 0.115592852 0.616044104 -0.104650140
v -0.189986318 0.582603276 -0.020929655
v -0.195512518 0.562663257 0.002831534
v 0.140739381 0.660892606 -0.095109746
v -0.156481296 0.733787417 0.086104356
v -0.136584640 0.747845292 0.081590869
v 0.119717315 0.720286012 -0.106205836
v -0.084501810 0.831652761 0.090315886
v -0.070257574 0.946543097 0.067430966
v -0.126626745 0.725871623 0.100153089
v 0.143296883 0.708553612 -0.105754614
v -0.113726780 0.749259114 0.097384170
v -0.097776756 0.809189975 0.092257217
v 0.156004980 0.714450717 -0.087157480
v -0.108480737 0.733205438 0.075350270
v 0.113067403 0.863305390 -0.137561888
v -0.079683602 0.786599815 0.087636903
v -0.107875086 0.788113475 0.082734004
v 0.177410007 0.698902726 -0.082620516
v -0.097430572 0.768890142 0.093902990
v 0.166533753 0.631236672 -0.067056134
v 0.182336122 0.647232652 -0.070126079
v -0.101071462 0.754362047 0.076454937
v -0.080462143 0.740018249 0.075584464
v -0.121792272 0.767909050 0.082124643
v -0.032546725 0.755481899 0.054566078
v -0.134394437 0.789546847 0.081291839
v -0.121267810 0.808334231 0.075373158
v 0.188953280 0.692392945 -0.061104469
v 0.208897039 0.658228517 -0.042341214
v -0.074428841 0.808163285 0.073382191
v -0.148090452 0.770014763 0.075014539
v -0.058003057 0.669761002 0.056895137
v -0.148654044 0.811106682 0.072902337
v 0.188410446 0.666099966 -0.054005999
v -0.168599516 0.832575917 0.080867387
v 0.214843586 0.654740512 -0.019256141
v -0.181168661 0.790823817 0.060681649
v 0.222272232 0.702765882 -0.023531791
v -0.173497036 0.779495120 0.082280956
v -0.073372051 0.855136991 0.087156728
v -0.174792856 0.814550698 0.057988185
v 0.210612819 0.610979140 -0.015748385
v -0.070149466 0.896527767 0.062817201
v -0.008490634 0.773797214 -0.090173915
v -0.066432998 0.921586156 0.063599236
v -0.191733792 0.824555576 0.043571569
v -0.210574478 0.765666604 0.026115831
v -0.044059072 0.926716208 0.072136037
v -0.006287789 0.793906450 -0.095900796
v -0.105069861 0.938445389 0.051672630
v -0.216575235 0.753762722 0.000057178
v 0.075666115 0.836186111 -0.135762617
v 0.121245585 0.909903824 -0.132587701
v -0.213128403 0.834123909 0.006598157
v -0.089691080 0.945017338 0.062606961
v 0.207200438 0.699013293 0.002587323
v 0.097406216 0.946278751 -0.139100522
v -0.195456102 0.892110169 -0.027339276
v 0.214555055 0.715152383 0.021836560
v -0.213545531 0.771936536 -0.021252807
v -0.211526304 0.798477590 -0.018429030
v -0.206921369 0.824072838 -0.019101534
v 0.095023833 0.927381217 -0.137158275
v 0.217058659 0.759852290 0.001316393
v 0.078087062 0.938488960 -0.137882322
v -0.095433392 0.850382507 0.069043562
v -0.028205320 0.884817302 -0.143212825
v 0.201817080 0.703220069 0.040099047
v 0.057845421 0.944392681 -0.135821760
v 0.066237524 0.932798564 -0.153832659
v 0.192276299 0.601381123 0.008210802
v -0.089973338 0.920080185 0.069945835
v -0.028719213 0.861189187 -0.138959691
v -0.201403782 0.792366505 -0.056997120
v -0.182405964 0.901374340 -0.091844194
v -0.107594922 0.828383923 0.073483199
v 0.036927447 0.944446564 -0.132290781
v -0.193440378 0.790983140 -0.081828959
v 0.016173974 0.942652345 -0.134408474
v -0.160227090 0.797352731 -0.099521801
v 0.191690236 0.605292439 0.040844485
v -0.180529281 0.783184886 -0.105985597
v 0.016844681 0.926664531 -0.136862814
v -0.004065627 0.940625370 -0.132465720
v 0.201257497 0.680016398 0.052316528
v 0.189586312 0.653346062 0.057101600
v 0.090975210 0.799998641 -0.138080284
v 0.023472311 0.918845475 0.078781724
v -0.164620012 0.823577523 -0.102963090
v -0.158080757 0.771426797 -0.097492643
v -0.161780879 0.925255656 -0.088199727
v 0.069739267 0.815970540 -0.143856853
v 0.174070492 0.680294752 0.057707183
v -0.144512057 0.779748082 -0.119334176
v -0.065399006 0.555990577 -0.042202227
v -0.112036288 0.788541675 -0.136035323
v -0.076245442 0.551036954 -0.058265399
v -0.089205615 0.546372235 -0.072131440
v -0.124948122 0.769361913 -0.139220551
v 0.162506729 0.665476620 0.080655351
v 0.161967292 0.647418976 0.060828954
v -0.106551647 0.546418011 -0.079816774
v 0.162928477 0.618152082 0.071051165
v -0.118987218 0.836118340 -0.132349804
v 0.047553744 0.911267936 0.066657186
v 0.031183183 0.894053161 0.074568130
v -0.114128724 0.539523721 -0.097343728
v 0.167077586 0.694636583 0.080136746
v -0.113078400 0.811310589 -0.146638900
v 0.145610482 0.703490794 0.079523087
v 0.151418433 0.638523221 0.086965740
v -0.118607923 0.533313572 -0.080892496
v -0.003606005 0.817157269 0.046383798
v -0.004663326 0.797516823 0.040438805
v -0.106958486 0.803070545 -0.118574753
v -0.127408713 0.528349280 -0.097627349
v -0.088575862 0.853341401 -0.162332401
v -0.116196536 0.776834905 -0.115745261
v -0.129755855 0.544378042 -0.087830693
v -0.141855925 0.531211972 -0.082545102
v -0.160648748 0.533830404 -0.081498682
v -0.060070395 0.779866099 0.061330687
v -0.031190123 0.781356454 0.054003410
v 0.096439488 0.666082263 0.067120120
v 0.100679085 0.642821193 0.068162523
v -0.178546697 0.536617041 -0.073153101
v -0.161220998 0.542291939 -0.065932535
v -0.035130620 0.710953355 0.056679644
v 0.076779433 0.656448662 0.064146668
v 0.053584386 0.674119115 0.056799687
v -0.177237794 0.538092613 -0.055277944
v -0.088547058 0.842665553 -0.140171036
v 0.086534858 0.704776525 0.074441314
v -0.194329828 0.534437239 -0.045956284
v -0.058513146 0.695277095 0.074073710
v 0.030971218 0.675792813 0.039694421
v -0.050105721 0.648944259 0.041476358
v -0.103929482 0.833926022 -0.153015092
v 0.023240147 0.622850358 0.043614529
v -0.076099865 0.669428945 0.079866908
v 0.081518203 0.749438405 0.070664383
v -0.050225269 0.609505773 0.040433995
v -0.075495690 0.612779021 0.054935712
v -0.063808315 0.864535689 -0.164168417
v -0.080553077 0.873080254 -0.150998026
v -0.084833190 0.714917541 0.078387432
v -0.063280419 0.886204243 -0.148830518
v 0.094969325 0.868079364 -0.158190727
v -0.203988507 0.531574130 -0.028624421
v 0.093732998 0.728472054 0.080044903
v -0.090895057 0.616314530 0.080201283
v -0.114482082 0.709077358 0.075948365
v 0.098212890 0.841743767 -0.148364648
v -0.094399832 0.646705866 0.082913198
v -0.100880705 0.668187082 0.067220613
v -0.082538456 0.872899652 0.063495658
v 0.077969149 0.634905040 -0.094979867
v -0.061871476 0.878953934 0.085414521
v 0.117249347 0.733791232 0.080087751
v -0.115985885 0.652366161 0.072067469
v 0.138683960 0.863908410 -0.127235264
v -0.187056467 0.538327217 -0.030752491
v -0.038320743 0.732789755 0.045358226
v 0.100961946 0.626111388 -0.081932887
v -0.187152460 0.537476897 -0.001065974
v -0.144300818 0.673120975 0.092707522
v 0.095411576 0.648975968 -0.087459624
v -0.183698848 0.538270354 0.018721778
v -0.117394447 0.665890336 0.091166206
v 0.132124484 0.718254447 0.089891426
v 0.139913917 0.743607640 0.087153636
v 0.130538419 0.884957016 -0.141965121
v -0.172558159 0.546039104 0.033557072
v -0.129784867 0.698111594 0.097444259
v -0.160603270 0.556868672 0.046956774
v -0.136575401 0.653774440 0.076780006
v -0.172662511 0.542221427 0.051130541
v -0.158646971 0.539221704 0.064352214
v -0.144206718 0.692178190 0.077471517
v -0.163485482 0.657303274 0.073788270
v -0.142508358 0.545363784 0.066152588
v 0.160684690 0.725659430 0.088127181
v -0.160144389 0.678669691 0.065543935
v -0.147332534 0.565878153 0.071523778
v -0.139640257 0.559862971 0.056864940
v 0.127518341 0.603660822 -0.084331527
v -0.165390551 0.700096786 0.069569990
v 0.189962983 0.734703362 0.065231986
v 0.130895898 0.624523997 -0.083479866
v 0.153508157 0.918236852 -0.110201143
v -0.125985786 0.555475533 0.069452122
v -0.155631438 0.636402726 0.070153713
v -0.109868348 0.555621505 0.058051746
v 0.135027155 0.929181874 -0.139912844
v -0.092054613 0.552007556 0.049195312
v -0.075762786 0.553955853 0.036154550
v 0.201379389 0.727787137 0.042485457
v 0.156305090 0.882319093 -0.134809226
v -0.063036516 0.561790586 0.021352284
v -0.047654085 0.569584250 0.008551222
v -0.184231192 0.714294255 0.056888212
v -0.038033418 0.587357879 0.005749884
v -0.180521399 0.666412890 0.052625697
v 0.147713333 0.614297032 -0.094133899
v 0.168797150 0.858219624 -0.124509215
v 0.214658216 0.741671205 0.022712450
v -0.206593201 0.701428831 0.056311220
v -0.203445554 0.649616241 0.054863524
v -0.206514433 0.675760508 0.054155014
v -0.051208448 0.741844177 -0.113799617
v 0.170694917 0.607260466 -0.092163034
v 0.216383889 0.757150054 -0.024336461
v 0.143017963 0.896501064 -0.119091645
v 0.012402739 0.796622276 -0.096718587
v -0.064134315 0.763501644 -0.102143250
v 0.077835388 0.748379588 -0.103590034
v -0.062707931 0.722059131 0.060047187
v 0.212621212 0.729563951 -0.005991240
v -0.197631329 0.663324833 0.029120978
v -0.212559506 0.707692742 0.013588252
v -0.198497057 0.803826690 0.047232874
v 0.161485508 0.605468512 -0.068084441
v -0.201188594 0.655298173 0.001075312
v 0.127151623 0.911189735 0.066997230
v 0.220391005 0.731429577 -0.035770044
v -0.206870675 0.681709886 0.005069562
v -0.224044770 0.698246419 -0.011727060
v -0.224507049 0.716120899 -0.033253424
v 0.177461728 0.598820090 -0.049235038
v 0.202807516 0.712038100 -0.045185581
v -0.223356843 0.639206827 -0.005595325
v -0.216958731 0.808349431 0.004236844
v 0.154491633 0.873286366 -0.110418878
v -0.039295163 0.947756588 0.084803000
v 0.198701560 0.738661051 -0.054928493
v 0.197350457 0.745979607 -0.083704844
v -0.097476475 0.825284839 -0.127133220
v -0.073034361 0.824210167 -0.138961002
v 0.185670614 0.619563639 -0.064221092
v -0.228193805 0.667694867 -0.016954569
v 0.196437672 0.582725763 -0.055632491
v 0.194169030 0.717584968 -0.069774464
v -0.024564516 0.941528916 -0.131985903
v -0.045485523 0.941313565 -0.136950135
v 0.166599885 0.851719975 -0.095067099
v 0.018856293 0.763092160 0.044356439
v -0.065744385 0.935173690 -0.140078247
v -0.056917109 0.749077201 0.066765651
v 0.179841399 0.723276436 -0.087404273
v 0.165848792 0.742242932 -0.088047877
v -0.083633080 0.925066471 -0.140696958
v 0.173492044 0.879652202 -0.094011411
v -0.204817504 0.647664189 -0.025161812
v -0.081107214 0.942312419 -0.148669660
v -0.095967941 0.921146512 -0.155901164
v -0.212878138 0.814252496 -0.044796165
v -0.095835671 0.943070590 -0.135573775
v -0.114953399 0.944748044 -0.130373269
v 0.166848361 0.725877762 -0.111517228
v -0.196996048 0.709663451 -0.053425182
v -0.191704720 0.819074035 -0.069185555
v -0.190665111 0.837328076 -0.096759781
v -0.203236535 0.667449832 -0.041099288
v 0.178854391 0.865022480 -0.070569441
v 0.163005620 0.921769142 -0.081718042
v -0.183469608 0.602238059 -0.042841803
v 0.059304435 0.746821582 0.059123170
v 0.141911119 0.733927667 -0.101876512
v -0.079319313 0.801076889 -0.129825413
v -0.185043186 0.720988631 -0.081006221
v 0.181011647 0.919397533 -0.067859150
v -0.095801853 0.783101499 -0.123855591
v -0.182448342 0.594061792 -0.068520486
v 0.122714378 0.743795097 -0.110504545
v -0.181847423 0.660699010 -0.059737433
v -0.172533423 0.654049397 -0.091038562
v 0.186023608 0.917323768 -0.044984240
v -0.172365397 0.676060736 -0.073706582
v -0.168767840 0.706710219 -0.099978246
v 0.194718987 0.867371738 -0.032106210
v -0.169358745 0.625449538 -0.087779745
v -0.033908803 0.658799648 -0.068839394
v 0.092908099 0.727976203 -0.108503953
v -0.133819476 0.945722401 -0.126959488
v -0.128896683 0.929342568 -0.121725716
v -0.147702619 0.722325683 -0.093405999
v -0.144071549 0.696446896 -0.089050665
v -0.145601615 0.669454217 -0.082657635
v -0.147182137 0.641939998 -0.078766637
v -0.139990896 0.820977092 -0.135285944
v 0.077546522 0.795387864 0.076885447
v 0.208518744 0.609612167 -0.049913622
v -0.150607571 0.948752105 -0.093560852
v -0.163758844 0.952551663 -0.078715280
v 0.216086745 0.633275688 -0.034909613
v -0.012949832 0.578319967 -0.016295087
v -0.168666065 0.951261222 -0.059716605
v 0.200667948 0.872387409 -0.001902960
v -0.169321075 0.944985986 -0.041041389
v -0.174005941 0.929230392 -0.029204670
v -0.175910816 0.947497666 -0.025041059
v 0.214960143 0.756149232 -0.048890062
v 0.176891670 0.919214249 -0.025919676
v -0.170671016 0.943187058 -0.006883335
v -0.159647286 0.928223610 -0.001529233
v -0.155196637 0.935808778 0.015730543
v 0.057147078 0.792666376 -0.109471872
v -0.138688430 0.934364498 0.025172090
v 0.184082732 0.917285562 -0.004197715
v -0.147546262 0.940684795 0.039953362
v -0.149967924 0.625659525 -0.102202319
v 0.184550643 0.858794987 0.018416652
v 0.014111522 0.710108578 -0.078066088
v -0.011167620 0.694159389 -0.072168760
v -0.010609992 0.713642657 -0.077948943
v 0.134892598 0.920549691 -0.120087877
v -0.149781063 0.653256595 -0.105146945
v -0.010223981 0.733448565 -0.082612589
v -0.148601696 0.706453919 -0.116314232
v 0.011908767 0.732416987 -0.083321258
v -0.009675481 0.753367960 -0.086963147
v -0.131959170 0.939292550 0.051673256
v 0.170887560 0.757065892 -0.107817814
v 0.161464140 0.912549496 0.004160284
v -0.127368212 0.638709486 -0.107340373
v -0.138286099 0.925846875 0.039771006
v -0.120405272 0.931402564 0.041864604
v 0.169594809 0.903502941 0.035348501
v 0.043741483 0.864470780 -0.153633580
v -0.147285029 0.679935157 -0.110749267
v -0.126911730 0.723454118 -0.133108839
v 0.149406374 0.916989803 0.023442207
v -0.124569558 0.665313065 -0.116829239
v 0.188742816 0.852368712 0.045106683
v -0.119462028 0.660070479 -0.091220394
v -0.007574364 0.736734986 0.035180748
v -0.104950190 0.913422465 0.051801782
v 0.128168076 0.916636467 0.042631000
v 0.137238622 0.895762801 0.043836765
v 0.149353534 0.918810248 0.046330236
v -0.104757711 0.645487547 -0.107725963
v -0.120271191 0.687048078 -0.097342655
v -0.100088075 0.671908617 -0.111978158
v 0.050858896 0.631240964 0.044294119
v -0.120104037 0.713678479 -0.104574598
v 0.052697442 0.912481129 -0.151438951
v -0.095212691 0.698226750 -0.114407137
v 0.023606978 0.903728783 -0.148994803
v -0.045596726 0.851171017 -0.150802284
v -0.041243598 0.878229141 -0.163745299
v 0.196847677 0.627074897 0.005889745
v 0.201538369 0.633004546 0.041042402
v -0.066555984 0.686857581 -0.100965001
v -0.068419032 0.715801895 -0.115549169
v -0.140583143 0.941468537 -0.110066995
v 0.166645974 0.859247386 0.043039959
v 0.160419509 0.862548828 0.068428703
v -0.184021801 0.560744762 -0.025819704
v 0.165828973 0.597509325 0.050812710
v 0.176597804 0.626571596 0.049376175
v -0.196491495 0.546771705 -0.016032415
v 0.138615578 0.881595433 0.072115809
v -0.051379967 0.575148821 -0.050782688
v -0.052374326 0.566774964 -0.030664787
v 0.009294501 0.605902731 0.023033168
v -0.034711666 0.573024035 -0.020892721
v -0.017281560 0.925974667 0.070708171
v 0.071222074 0.899904251 -0.151953802
v -0.024059130 0.944581330 0.073139422
v -0.041722339 0.593806684 0.027455354
v 0.141937673 0.610470176 0.088580705
v 0.041237488 0.933583438 0.069204345
v 0.086679533 0.564533353 0.074176446
v 0.080441795 0.581709623 0.057909094
v 0.112109199 0.581989586 0.062829733
v 0.045967884 0.835034072 -0.150411040
v 0.133275300 0.583802819 0.080681451
v 0.060903780 0.587301195 0.042282231
v 0.187598720 0.575185120 0.012254500
v 0.136097282 0.844772696 0.067886487
v 0.118992031 0.863213062 0.059017830
v 0.175603479 0.887094319 0.006068114
v 0.118778028 0.607952178 0.071577355
v 0.197363034 0.896872818 -0.022136200
v 0.196206540 0.888912201 -0.055852991
v 0.062968217 0.928537548 0.076826632
v 0.093446173 0.619653165 0.077870578
v 0.120362960 0.633531690 0.089978658
v 0.171032190 0.894727528 -0.072913133
v 0.172401294 0.908836722 -0.097118340
v 0.094002090 0.593242466 0.076490521
v 0.160738841 0.895021260 -0.107735649
v 0.168248594 0.574968457 -0.057076633
v 0.182646379 0.584662497 -0.082556680
v 0.076891862 0.630421221 0.055120785
v 0.147461295 0.586656332 -0.080063321
v 0.144804299 0.906500995 -0.139639586
v 0.079458959 0.604625165 0.057276957
v 0.125747830 0.687726200 0.088391475
v 0.160690755 0.588601649 0.077085897
v 0.179197252 0.580388308 0.033394389
v 0.206477210 0.585906625 0.027631467
v 0.204148248 0.685468554 -0.042556249
v 0.167296559 0.695595741 -0.104142763
v 0.052421730 0.609064281 0.051106911
v 0.143279448 0.682761669 -0.103591964
v 0.192914218 0.594486415 -0.029192533
v 0.205498666 0.583863556 -0.006553484
v 0.038996309 0.651265800 0.038611107
v 0.008174894 0.678077996 0.031304374
v 0.095417216 0.872634709 0.062041782
v 0.076846391 0.916874886 0.061797071
v 0.016983513 0.700382471 0.037037052
v 0.042180464 0.814190507 0.054526370
v 0.023797588 0.789212763 0.051533960
v 0.020452453 0.605178356 -0.058716763
v 0.067184895 0.903861165 0.081267506
v 0.042110760 0.651000381 -0.072872460
v 0.041336007 0.874265075 0.068536274
v 0.058340646 0.887963474 0.065485492
v 0.018901028 0.873789012 0.068861999
v 0.040031556 0.582530558 -0.053730659
v 0.064825505 0.657177687 -0.082937010
v 0.089252345 0.772581100 0.079780072
v 0.211780876 0.687158883 0.027749702
v 0.194189370 0.798846364 -0.066862844
v 0.069287971 0.579627037 -0.066307150
v 0.152483344 0.684614003 -0.081980988
v 0.131544590 0.787494242 -0.110910580
v 0.119749904 0.695495963 -0.099530414
v 0.095126078 0.573187590 -0.087040320
v 0.054900527 0.703050792 -0.095521905
v 0.041651614 0.771787465 -0.101411916
v 0.118469968 0.585582793 -0.100733101
v 0.124292351 0.577362776 -0.073574021
v 0.107293323 0.918224156 -0.150858343
v 0.079042479 0.891845822 0.064491183
v 0.077424400 0.873458982 0.086665355
v 0.132177100 0.560609460 -0.100181147
v 0.033698861 0.854042649 0.066276580
v 0.054138802 0.838055789 0.058231920
v 0.085174009 0.920223892 -0.164493054
v 0.157185853 0.558873057 -0.077117570
v 0.178137973 0.766435206 -0.086082861
v 0.023429623 0.836685359 -0.126052335
v 0.155519038 0.625114799 -0.080170527
v 0.187570602 0.559130371 -0.073376521
v 0.015828962 0.688236058 -0.073009729
v 0.165889919 0.552387953 -0.060285956
v 0.034449317 0.796633482 -0.102938078
v 0.190178886 0.555492997 -0.050988205
v 0.183488831 0.574684918 -0.037643902
v 0.072228312 0.725376904 0.067692377
v 0.104976021 0.890044332 -0.141678721
v 0.092321351 0.894865990 -0.162516415
v 0.017693589 0.773708463 -0.093795493
v 0.202773973 0.567516565 -0.025772676
v 0.122183755 0.644327521 -0.088144146
v 0.203145057 0.635496140 -0.015217416
v 0.211604625 0.613931477 0.023380339
v 0.169128835 0.635603249 -0.092495345
v 0.146609470 0.640098691 -0.092380516
v 0.197415441 0.557484508 0.034393199
v 0.166146472 0.841680408 0.055618741
v 0.206078976 0.844108701 0.011242516
v 0.193665996 0.637758374 -0.047502726
v 0.054253705 0.604892612 -0.063918278
v 0.172843724 0.565372109 0.059640396
v 0.101385631 0.752038300 0.083659492
v 0.200756431 0.652956367 0.000108212
v 0.213990360 0.642105401 0.018950505
v 0.102611855 0.665350080 -0.097142532
v 0.152603835 0.558718681 0.079561763
v 0.127133310 0.836602509 -0.139593586
v -0.006599230 0.756658673 0.037443921
v -0.013768019 0.662598431 0.029997926
v 0.059419043 0.649210513 0.051989950
v 0.133772582 0.565046668 0.061642725
v 0.148256123 0.844028354 -0.114214934
v -0.008091632 0.719763637 0.044219937
v -0.005751840 0.776981950 0.038776550
v 0.112669393 0.561737001 0.075634673
v 0.024576489 0.834365070 0.057074588
v -0.002705626 0.835241914 0.055591445
v 0.117135569 0.888735950 0.050894111
v 0.063037477 0.565546930 0.056122821
v 0.109844208 0.913776517 0.048500352
v 0.197269350 0.557971954 -0.004267203
v 0.122276187 0.755232930 0.081032246
v 0.036779385 0.928941607 -0.151951522
v 0.039901532 0.569085658 0.038666703
v 0.070607558 0.878620505 -0.150697798
v 0.011266076 0.576715648 0.029300475
v 0.036209270 0.596841335 0.030087043
v 0.045730941 0.816862285 -0.123524450
v 0.017144999 0.814447522 0.046649318
v 0.012114159 0.649211049 0.031467766
v -0.015250799 0.642513037 0.030775979
v -0.010291135 0.702012718 0.036132455
v 0.183096081 0.557358265 -0.025845593
v -0.012007440 0.682625890 0.031683162
v 0.077040471 0.602969706 -0.090627216
v 0.094128504 0.749890566 -0.124383725
v 0.118144296 0.765251040 -0.125370443
v 0.164412528 0.745199323 0.067348778
v 0.111706711 0.709716678 0.077093191
v 0.169048101 0.715538621 0.062989816
v 0.106890224 0.599715710 -0.077337250
v 0.184180826 0.550804257 0.013924107
f 555 540 123
f 389 162 497
f 567 540 568
f 583 104 251
f 463 489 430
f 453 94 255
f 483 484 162
f 446 640 671
f 574 577 251
f 50 244 238
f 52 244 50
f 575 57 53
f 55 249 52
f 55 2 250
f 577 248 563
f 575 437 432
f 57 597 589
f 2 265 262
f 589 592 57
f 262 259 2
f 5 267 262
f 602 606 589
f 5 9 11
f 58 606 610
f 11 272 5
f 12 278 11
f 565 793 8
f 630 60 632
f 13 425 12
f 424 289 160
f 289 424 13
f 643 649 60
f 181 403 179
f 483 206 484
f 163 651 174
f 53 563 558
f 651 65 650
f 163 389 384
f 683 66 65
f 455 558 563
f 165 384 171
f 340 331 34
f 67 66 683
f 206 470 63
f 385 102 856
f 67 702 70
f 344 340 696
f 179 403 406
f 710 70 702
f 16 352 14
f 111 112 59
f 63 64 655
f 18 368 16
f 710 742 753
f 119 112 111
f 394 671 545
f 551 922 903
f 19 375 18
f 753 740 711
f 406 470 179
f 261 615 108
f 545 453 439
f 178 386 530
f 24 386 23
f 72 753 742
f 26 396 24
f 768 765 72
f 119 142 112
f 32 63 470
f 112 142 161
f 399 400 396
f 154 343 182
f 545 671 448
f 399 415 400
f 768 770 765
f 32 406 410
f 418 415 399
f 770 183 777
f 387 300 166
f 415 418 422
f 105 86 299
f 169 42 839
f 170 142 119
f 173 172 705
f 329 638 343
f 134 738 737
f 185 638 329
f 692 661 145
f 150 74 741
f 637 345 873
f 132 145 661
f 170 184 142
f 138 495 760
f 138 136 188
f 136 194 188
f 201 87 194
f 270 87 205
f 216 49 210
f 46 216 724
f 198 184 170
f 43 96 907
f 219 39 218
f 45 43 41
f 224 37 219
f 498 224 514
f 86 105 342
f 225 36 514
f 378 107 110
f 80 233 107
f 22 41 43
f 198 217 849
f 41 581 45
f 103 233 76
f 76 40 103
f 222 217 214
f 678 100 40
f 98 41 22
f 366 41 98
f 40 76 678
f 215 4 284
f 215 98 21
f 537 536 92
f 222 234 217
f 904 537 92
f 460 462 30
f 284 471 366
f 222 239 246
f 586 903 759
f 462 28 30
f 246 234 222
f 454 449 28
f 237 391 924
f 560 319 921
f 246 888 252
f 431 471 282
f 455 560 391
f 319 560 241
f 50 238 793
f 50 566 52
f 52 574 55
f 258 263 510
f 244 52 249
f 55 253 2
f 284 792 657
f 303 670 667
f 303 100 674
f 250 249 55
f 273 274 252
f 251 253 574
f 100 303 301
f 301 570 100
f 104 261 257
f 677 100 678
f 273 285 274
f 257 2 253
f 2 257 265
f 250 2 259
f 570 568 40
f 752 292 293
f 294 296 285
f 285 296 274
f 684 497 679
f 277 274 296
f 440 447 442
f 579 489 463
f 692 329 695
f 259 262 267
f 871 736 360
f 262 271 9
f 40 100 570
f 570 567 568
f 203 128 270
f 310 296 294
f 305 296 310
f 87 270 194
f 9 5 262
f 5 272 600
f 276 9 271
f 9 276 11
f 272 11 278
f 302 323 310
f 568 103 40
f 108 615 89
f 280 11 276
f 11 280 12
f 103 568 540
f 278 12 425
f 323 337 328
f 283 12 280
f 12 283 13
f 283 297 289
f 289 13 283
f 540 561 231
f 425 13 424
f 209 288 205
f 291 125 286
f 346 337 323
f 49 304 288
f 173 350 351
f 297 654 314
f 347 158 864
f 304 47 311
f 47 304 49
f 47 46 481
f 360 361 855
f 501 684 146
f 481 311 47
f 46 39 481
f 343 695 329
f 314 289 297
f 289 314 160
f 481 321 308
f 481 39 321
f 325 122 321
f 325 321 37
f 37 321 39
f 333 160 314
f 324 266 333
f 527 107 231
f 84 121 325
f 36 327 498
f 160 333 34
f 327 120 84
f 36 82 371
f 277 393 390
f 689 34 333
f 34 689 340
f 313 34 331
f 266 334 689
f 334 260 341
f 340 335 331
f 107 527 110
f 54 404 405
f 696 14 344
f 61 401 44
f 38 299 407
f 358 14 348
f 14 358 16
f 344 14 352
f 356 704 712
f 352 16 368
f 413 62 417
f 370 16 358
f 16 370 18
f 175 705 134
f 713 115 110
f 371 27 378
f 27 371 82
f 381 18 370
f 18 381 19
f 368 18 375
f 80 378 27
f 19 381 235
f 19 395 23
f 19 23 178
f 202 506 913
f 23 395 24
f 386 24 396
f 398 24 395
f 24 398 26
f 26 398 220
f 26 412 399
f 396 26 399
f 418 399 412
f 164 180 444
f 444 443 164
f 175 173 705
f 685 84 120
f 422 300 415
f 685 121 84
f 172 169 300
f 172 300 422
f 78 80 27
f 226 365 78
f 89 615 114
f 240 485 309
f 134 737 175
f 226 27 82
f 245 459 452
f 187 186 140
f 243 459 245
f 189 187 130
f 581 466 579
f 467 472 637
f 308 122 240
f 138 579 466
f 430 255 463
f 499 435 430
f 453 430 435
f 435 440 439
f 435 499 450
f 243 479 281
f 308 321 122
f 897 438 584
f 439 453 435
f 243 281 893
f 450 440 435
f 480 859 865
f 440 449 447
f 442 439 440
f 450 449 440
f 447 449 454
f 492 488 493
f 127 458 456
f 449 456 28
f 82 225 708
f 454 28 462
f 28 456 30
f 456 450 127
f 30 456 458
f 225 82 36
f 30 464 460
f 506 507 502
f 126 469 125
f 287 508 509
f 207 507 506
f 410 460 32
f 126 306 477
f 460 464 644
f 644 32 460
f 32 644 63
f 475 31 576
f 470 406 32
f 64 63 644
f 306 309 477
f 125 464 458
f 528 795 511
f 516 523 524
f 655 206 63
f 206 655 484
f 206 474 470
f 162 679 497
f 316 322 822
f 313 160 34
f 37 498 325
f 523 316 534
f 497 684 501
f 501 146 505
f 146 512 503
f 505 503 513
f 263 515 510
f 512 120 115
f 503 512 91
f 517 513 503
f 115 713 91
f 458 203 125
f 315 547 548
f 91 512 115
f 547 330 336
f 91 713 88
f 517 88 522
f 552 548 547
f 532 88 713
f 88 532 519
f 552 336 553
f 522 519 541
f 527 231 561
f 127 128 458
f 538 660 692
f 514 36 498
f 224 498 37
f 538 692 695
f 114 626 631
f 553 342 105
f 219 37 39
f 555 660 561
f 127 450 499
f 891 199 824
f 660 555 661
f 218 39 46
f 199 97 886
f 366 98 284
f 22 21 98
f 41 366 581
f 43 232 22
f 907 232 43
f 96 536 907
f 45 463 255
f 45 581 463
f 255 94 96
f 255 96 45
f 94 453 545
f 448 546 545
f 582 593 594
f 595 584 438
f 216 46 47
f 216 47 49
f 551 640 558
f 558 640 569
f 49 288 209
f 793 565 50
f 569 53 558
f 566 50 565
f 209 210 49
f 841 351 350
f 574 52 566
f 578 53 57
f 612 609 423
f 53 578 563
f 575 53 569
f 597 432 211
f 253 55 574
f 57 575 597
f 578 57 592
f 592 583 578
f 627 609 612
f 584 621 628
f 603 589 606
f 602 589 597
f 634 819 627
f 610 606 602
f 835 318 229
f 626 606 58
f 610 624 58
f 58 624 630
f 632 58 630
f 634 884 869
f 58 632 626
f 60 642 632
f 642 60 649
f 60 630 181
f 650 649 643
f 662 652 645
f 656 628 621
f 621 636 656
f 658 659 204
f 64 644 469
f 466 495 138
f 694 377 700
f 468 471 431
f 663 650 65
f 628 656 668
f 679 162 484
f 65 686 663
f 672 673 659
f 686 65 66
f 683 65 651
f 468 431 478
f 683 693 67
f 685 146 684
f 146 685 512
f 696 340 689
f 66 67 701
f 473 495 478
f 66 698 686
f 702 67 693
f 668 675 687
f 701 698 66
f 405 690 54
f 701 67 70
f 54 690 564
f 14 696 348
f 711 70 710
f 699 70 711
f 702 709 710
f 229 318 236
f 657 282 471
f 710 709 742
f 753 756 740
f 756 753 72
f 742 754 72
f 72 754 768
f 72 765 756
f 766 765 770
f 490 193 496
f 130 772 496
f 770 776 766
f 15 719 168
f 87 201 148
f 183 770 768
f 201 194 136
f 422 705 172
f 633 777 338
f 777 633 150
f 408 74 633
f 638 185 408
f 106 730 258
f 688 379 694
f 275 631 118
f 185 692 145
f 197 750 749
f 736 737 738
f 263 258 730
f 738 741 743
f 185 145 143
f 743 741 744
f 744 741 74
f 744 467 879
f 132 140 145
f 123 132 661
f 741 738 150
f 123 540 567
f 773 772 567
f 738 134 150
f 78 27 226
f 238 623 1
f 264 279 779
f 776 150 134
f 134 705 420
f 695 541 538
f 104 599 261
f 365 681 680
f 761 762 763
f 365 678 76
f 76 78 365
f 411 156 420
f 156 411 220
f 541 519 538
f 220 764 156
f 76 233 78
f 80 78 233
f 168 789 387
f 70 699 701
f 398 395 228
f 434 437 445
f 779 780 887
f 428 432 434
f 926 317 706
f 197 749 745
f 213 6 4
f 279 785 780
f 419 427 428
f 148 201 745
f 454 462 419
f 526 782 783
f 381 734 235
f 410 414 419
f 493 769 913
f 511 4 215
f 4 511 213
f 406 414 410
f 208 731 729
f 21 511 215
f 210 728 727
f 794 800 823
f 511 21 529
f 470 474 179
f 724 218 46
f 227 110 115
f 118 280 275
f 219 218 722
f 806 800 794
f 803 804 256
f 716 778 225
f 224 219 720
f 407 86 690
f 356 734 381
f 389 497 380
f 809 795 528
f 810 806 811
f 717 716 514
f 497 501 380
f 317 697 429
f 810 818 821
f 913 771 202
f 341 698 699
f 373 376 159
f 369 177 373
f 341 260 698
f 260 334 266
f 365 226 681
f 517 522 354
f 828 821 818
f 354 362 364
f 569 640 446
f 519 522 88
f 767 828 818
f 266 324 676
f 602 597 211
f 804 834 256
f 121 240 122
f 345 868 918
f 610 602 211
f 169 839 166
f 427 195 211
f 643 179 174
f 683 651 165
f 693 683 171
f 627 884 634
f 324 654 676
f 846 397 841
f 841 397 374
f 362 709 369
f 580 397 846
f 192 188 190
f 192 499 489
f 128 192 190
f 270 205 203
f 205 288 286
f 291 306 126
f 208 148 733
f 288 304 291
f 304 311 306
f 311 481 308
f 286 125 203
f 283 118 297
f 589 599 592
f 283 280 118
f 227 115 120
f 747 805 732
f 707 226 82
f 107 378 80
f 275 114 631
f 118 646 297
f 89 114 275
f 231 233 103
f 87 209 205
f 816 872 870
f 271 108 89
f 248 560 455
f 248 241 560
f 108 271 265
f 566 565 241
f 86 876 690
f 622 244 619
f 517 91 88
f 574 566 248
f 715 662 889
f 244 249 618
f 249 250 614
f 882 465 718
f 253 251 257
f 774 465 882
f 250 259 608
f 883 494 774
f 921 391 560
f 259 267 604
f 54 564 847
f 251 577 583
f 600 267 5
f 89 276 271
f 503 91 517
f 690 405 407
f 275 276 89
f 892 573 582
f 272 278 596
f 248 577 574
f 280 276 275
f 425 588 591
f 425 424 781
f 781 313 572
f 424 313 781
f 572 585 781
f 314 654 324
f 136 197 201
f 313 557 572
f 237 551 558
f 554 331 335
f 334 341 348
f 760 136 138
f 335 344 549
f 341 699 704
f 348 696 334
f 921 319 7
f 358 348 704
f 344 352 544
f 912 582 594
f 903 586 551
f 352 368 543
f 381 370 356
f 368 375 539
f 788 8 3
f 535 375 178
f 221 795 809
f 828 767 562
f 559 833 920
f 921 920 899
f 546 448 898
f 903 922 836
f 38 903 299
f 235 228 395
f 405 669 407
f 546 92 94
f 400 518 520
f 92 546 904
f 639 35 926
f 386 396 525
f 927 926 33
f 928 605 930
f 200 490 298
f 94 545 546
f 96 92 536
f 927 56 852
f 143 472 408
f 220 412 26
f 400 520 521
f 412 220 411
f 109 113 152
f 920 832 559
f 418 412 411
f 152 113 746
f 387 789 786
f 420 418 411
f 746 161 867
f 418 420 422
f 490 773 298
f 496 772 773
f 394 442 445
f 562 767 832
f 739 636 820
f 204 725 658
f 773 490 496
f 725 223 635
f 447 454 428
f 472 186 637
f 215 284 98
f 189 130 496
f 458 464 30
f 410 462 460
f 125 469 464
f 635 247 487
f 487 269 629
f 641 487 629
f 268 269 487
f 269 393 629
f 390 269 268
f 469 126 64
f 349 761 763
f 655 64 477
f 303 674 670
f 290 393 277
f 611 290 928
f 163 474 483
f 928 307 605
f 635 641 648
f 531 605 533
f 677 674 100
f 477 309 485
f 506 202 207
f 679 485 240
f 240 121 684
f 312 912 594
f 684 679 240
f 121 685 684
f 186 187 345
f 503 505 146
f 912 332 892
f 772 130 132
f 685 120 512
f 501 505 159
f 725 648 658
f 505 513 373
f 513 517 364
f 892 847 564
f 110 527 713
f 714 847 339
f 522 541 154
f 51 714 346
f 231 103 540
f 714 51 404
f 541 695 343
f 567 772 123
f 502 500 506
f 578 577 563
f 867 659 673
f 577 578 583
f 597 575 432
f 592 104 583
f 913 492 493
f 845 167 839
f 599 104 592
f 386 178 23
f 599 603 615
f 110 227 378
f 615 261 599
f 706 402 639
f 603 626 114
f 132 123 772
f 624 610 195
f 409 706 317
f 746 673 682
f 114 615 603
f 120 327 227
f 624 414 403
f 691 429 697
f 642 631 632
f 642 118 631
f 429 433 853
f 646 118 642
f 642 649 646
f 152 682 691
f 682 433 691
f 181 643 60
f 654 297 646
f 122 325 121
f 140 130 187
f 421 416 617
f 123 661 555
f 309 308 240
f 698 260 686
f 702 693 177
f 698 701 699
f 672 441 436
f 291 126 125
f 109 691 697
f 143 140 186
f 874 872 816
f 665 441 672
f 188 192 489
f 665 658 653
f 712 704 699
f 653 451 665
f 927 697 317
f 712 740 734
f 648 461 653
f 178 375 19
f 923 880 116
f 641 461 648
f 740 756 748
f 748 758 228
f 926 706 639
f 479 641 482
f 754 742 362
f 354 754 362
f 407 669 38
f 203 458 128
f 482 629 620
f 756 765 758
f 182 754 154
f 128 127 192
f 254 246 252
f 611 382 620
f 764 398 228
f 499 192 127
f 764 766 156
f 766 776 156
f 930 611 928
f 420 156 776
f 140 132 130
f 788 7 8
f 387 166 168
f 420 776 134
f 136 760 197
f 300 387 415
f 750 197 760
f 745 201 197
f 148 208 209
f 733 148 745
f 258 35 106
f 593 533 605
f 731 208 733
f 236 318 910
f 729 210 208
f 728 210 729
f 727 216 210
f 188 489 579
f 929 573 556
f 724 216 727
f 573 929 582
f 723 218 724
f 722 218 723
f 720 219 722
f 717 224 720
f 514 224 717
f 188 579 138
f 876 556 573
f 707 681 226
f 898 904 546
f 472 143 186
f 212 795 221
f 899 391 921
f 854 925 931
f 213 795 212
f 140 143 145
f 404 54 714
f 833 922 924
f 415 387 786
f 143 408 185
f 238 3 793
f 1 3 238
f 31 799 752
f 622 238 244
f 918 799 515
f 380 376 171
f 915 752 357
f 617 476 421
f 619 244 618
f 618 249 616
f 616 249 614
f 636 739 613
f 388 613 10
f 614 250 608
f 357 791 915
f 383 688 388
f 608 259 607
f 571 438 576
f 295 667 666
f 92 96 94
f 607 259 604
f 372 726 700
f 667 295 303
f 367 726 372
f 604 267 601
f 298 295 207
f 923 875 880
f 363 732 367
f 408 467 74
f 148 209 87
f 298 301 295
f 359 747 363
f 601 267 600
f 359 355 755
f 600 272 598
f 598 272 596
f 353 755 355
f 301 298 773
f 596 278 591
f 747 755 751
f 591 278 425
f 588 425 781
f 388 688 813
f 769 771 913
f 763 353 349
f 202 771 200
f 506 500 913
f 74 467 744
f 773 570 301
f 82 708 707
f 320 647 326
f 500 492 913
f 331 554 557
f 242 910 320
f 344 335 340
f 910 908 647
f 554 335 550
f 239 222 703
f 549 550 335
f 549 344 544
f 166 167 168
f 544 352 543
f 543 368 542
f 17 15 167
f 17 845 157
f 907 536 919
f 157 850 155
f 155 850 153
f 542 368 539
f 150 633 74
f 153 854 151
f 151 854 149
f 149 858 147
f 147 862 144
f 539 375 535
f 759 903 38
f 530 535 178
f 144 862 141
f 141 866 139
f 139 866 137
f 530 386 525
f 137 870 135
f 525 396 521
f 135 870 872
f 133 872 131
f 131 874 129
f 129 923 117
f 923 874 875
f 170 119 902
f 521 396 400
f 20 932 101
f 99 101 932
f 99 886 97
f 95 97 199
f 95 891 93
f 93 896 90
f 518 400 786
f 90 896 85
f 85 901 83
f 83 905 81
f 169 166 300
f 81 905 79
f 77 79 796
f 77 909 75
f 439 394 545
f 75 914 73
f 73 914 71
f 71 916 69
f 442 394 439
f 468 466 366
f 442 447 434
f 7 562 920
f 794 534 811
f 924 899 833
f 434 447 428
f 428 454 419
f 419 462 410
f 38 898 759
f 902 111 897
f 466 468 495
f 526 524 534
f 25 59 56
f 96 43 45
f 895 401 61
f 182 343 338
f 483 389 163
f 483 162 389
f 897 59 25
f 883 894 775
f 776 777 150
f 59 897 111
f 380 384 389
f 774 882 893
f 111 902 119
f 778 708 225
f 501 159 380
f 167 166 839
f 159 505 373
f 176 191 867
f 373 513 369
f 364 369 513
f 850 890 925
f 354 364 517
f 354 522 154
f 177 369 709
f 154 541 343
f 446 445 437
f 376 380 159
f 204 223 725
f 217 198 214
f 214 703 222
f 437 569 446
f 610 211 195
f 414 624 195
f 403 630 624
f 889 718 715
f 160 313 424
f 181 630 403
f 888 246 239
f 179 643 181
f 174 650 643
f 651 650 174
f 163 384 165
f 487 247 268
f 165 651 163
f 171 683 165
f 174 474 163
f 557 313 331
f 475 515 799
f 376 693 171
f 285 273 757
f 177 693 376
f 627 885 884
f 174 179 474
f 509 508 516
f 294 302 310
f 709 702 177
f 709 362 742
f 154 754 354
f 182 338 183
f 780 785 803
f 183 768 182
f 423 413 881
f 183 338 777
f 638 338 343
f 633 638 408
f 590 401 895
f 692 185 329
f 190 188 194
f 515 475 25
f 270 190 194
f 190 270 128
f 195 427 414
f 7 788 562
f 915 878 571
f 877 595 438
f 203 205 286
f 44 48 61
f 474 206 483
f 210 209 208
f 61 62 895
f 413 895 62
f 211 432 427
f 172 42 169
f 398 764 220
f 515 263 918
f 437 575 569
f 228 758 764
f 124 885 426
f 175 871 350
f 84 498 327
f 225 514 716
f 327 371 227
f 918 263 730
f 898 448 759
f 371 327 36
f 839 374 890
f 227 371 378
f 451 441 665
f 228 235 748
f 444 180 457
f 233 231 107
f 187 868 345
f 759 448 586
f 189 292 868
f 734 748 235
f 653 461 826
f 924 922 237
f 292 193 196
f 446 671 394
f 461 641 479
f 922 551 237
f 391 237 455
f 482 641 629
f 918 868 799
f 196 200 293
f 771 293 200
f 558 455 237
f 281 287 894
f 894 893 281
f 248 566 241
f 257 251 104
f 255 430 453
f 257 261 265
f 509 775 287
f 260 266 676
f 509 516 524
f 265 261 108
f 523 516 531
f 322 316 523
f 273 252 888
f 265 271 262
f 811 534 316
f 316 315 811
f 676 686 260
f 366 466 581
f 478 495 468
f 330 547 315
f 547 336 552
f 366 471 468
f 760 495 473
f 657 471 284
f 336 342 553
f 553 900 552
f 832 900 553
f 865 878 791
f 792 284 4
f 31 571 576
f 286 288 291
f 438 571 877
f 906 864 863
f 4 790 792
f 8 7 319
f 303 295 301
f 291 304 306
f 570 773 567
f 739 617 392
f 617 416 392
f 306 311 309
f 309 311 308
f 170 628 668
f 613 739 10
f 739 392 10
f 656 675 668
f 656 815 675
f 680 678 365
f 813 613 388
f 324 333 314
f 687 198 668
f 379 688 383
f 295 666 207
f 815 656 636
f 377 694 379
f 325 498 84
f 689 333 266
f 334 696 689
f 700 377 372
f 861 834 860
f 703 721 239
f 732 726 367
f 834 861 256
f 348 341 704
f 747 732 363
f 356 358 704
f 735 888 721
f 370 358 356
f 735 264 757
f 735 273 888
f 755 747 359
f 369 364 362
f 353 763 755
f 647 761 326
f 761 349 326
f 376 373 177
f 779 757 264
f 780 779 279
f 384 380 171
f 235 395 19
f 736 871 737
f 562 788 917
f 910 647 320
f 785 804 803
f 414 406 403
f 256 323 803
f 813 675 815
f 415 786 400
f 427 419 414
f 422 420 705
f 432 428 427
f 430 489 499
f 587 580 590
f 437 434 432
f 445 442 434
f 446 394 445
f 671 586 448
f 819 609 627
f 456 449 450
f 455 563 248
f 865 791 769
f 581 579 463
f 645 652 817
f 644 464 469
f 652 662 715
f 874 923 129
f 715 664 652
f 694 812 688
f 477 64 126
f 750 760 473
f 485 655 477
f 465 715 718
f 507 207 666
f 465 774 494
f 865 486 480
f 812 675 813
f 485 484 655
f 207 202 298
f 883 504 825
f 493 865 769
f 783 782 504
f 679 484 485
f 202 200 298
f 196 490 200
f 196 193 490
f 877 859 476
f 302 803 323
f 189 496 193
f 814 806 810
f 168 719 789
f 821 814 810
f 391 899 924
f 713 527 532
f 467 408 472
f 302 294 887
f 786 787 518
f 538 519 532
f 561 532 527
f 926 35 33
f 538 532 660
f 540 555 561
f 551 586 640
f 319 241 565
f 660 532 561
f 113 161 746
f 161 176 867
f 8 319 565
f 223 247 635
f 781 585 784
f 620 629 393
f 887 780 302
f 269 390 393
f 671 640 586
f 781 784 588
f 599 589 603
f 393 290 611
f 626 603 606
f 928 290 305
f 623 238 622
f 625 1 623
f 774 893 894
f 312 332 912
f 626 632 631
f 332 339 847
f 847 892 332
f 757 887 285
f 847 714 54
f 793 3 8
f 732 807 726
f 858 931 857
f 675 812 687
f 168 167 15
f 273 735 757
f 920 921 7
f 402 385 639
f 167 845 17
f 638 633 338
f 646 649 663
f 650 663 649
f 845 850 157
f 888 239 721
f 663 654 646
f 706 409 48
f 850 854 153
f 676 654 663
f 429 409 317
f 661 692 660
f 854 858 149
f 676 663 686
f 858 862 147
f 433 429 691
f 678 680 677
f 699 711 712
f 712 734 356
f 711 710 753
f 862 866 141
f 712 711 740
f 682 436 827
f 734 740 748
f 866 870 137
f 214 687 808
f 748 756 758
f 664 816 652
f 872 133 135
f 198 687 214
f 754 182 768
f 872 874 131
f 665 659 658
f 758 765 766
f 658 648 653
f 766 764 758
f 776 770 777
f 668 198 170
f 117 923 116
f 787 786 789
f 929 330 822
f 533 822 322
f 556 336 330
f 531 322 523
f 899 920 833
f 662 444 889
f 346 323 256
f 491 482 620
f 116 880 911
f 911 20 116
f 382 491 620
f 911 932 20
f 932 886 99
f 645 443 662
f 930 382 611
f 382 930 516
f 886 824 199
f 605 531 930
f 491 508 848
f 628 170 902
f 256 347 346
f 482 848 479
f 891 896 93
f 347 256 861
f 820 617 739
f 866 819 817
f 605 594 593
f 896 901 85
f 929 593 582
f 612 881 885
f 901 905 83
f 826 451 653
f 451 457 180
f 672 659 665
f 441 180 851
f 79 905 796
f 436 673 672
f 436 851 827
f 909 914 75
f 682 673 436
f 914 916 71
f 584 902 897
f 876 86 342
f 69 916 1
f 829 433 827
f 700 808 694
f 788 3 916
f 853 829 417
f 409 61 48
f 402 48 855
f 870 817 816
f 855 29 360
f 874 816 664
f 385 361 102
f 830 880 875
f 576 897 25
f 819 634 817
f 68 69 1
f 106 856 730
f 743 736 738
f 910 242 236
f 862 857 819
f 744 879 102
f 880 830 831
f 840 528 843
f 401 846 44
f 803 302 780
f 769 791 357
f 878 915 791
f 831 911 880
f 918 873 345
f 576 25 475
f 799 31 475
f 841 29 846
f 879 856 102
f 106 639 385
f 573 564 876
f 911 831 802
f 342 556 876
f 337 339 332
f 25 510 515
f 350 29 841
f 564 573 892
f 892 582 912
f 510 25 56
f 864 906 837
f 312 328 337
f 929 822 593
f 33 35 258
f 871 360 29
f 840 860 835
f 864 158 863
f 29 855 44
f 916 914 917
f 808 687 812
f 594 307 312
f 307 305 328
f 916 917 788
f 33 56 927
f 840 835 809
f 307 594 605
f 736 743 361
f 531 516 930
f 290 277 305
f 852 109 927
f 318 835 860
f 21 844 529
f 852 59 112
f 620 393 611
f 102 743 744
f 112 113 852
f 751 763 762
f 647 785 762
f 805 747 751
f 252 268 254
f 230 835 229
f 487 641 635
f 637 879 467
f 124 851 164
f 809 230 221
f 161 142 176
f 807 732 805
f 247 234 254
f 230 809 835
f 808 700 807
f 345 637 186
f 176 184 191
f 812 694 808
f 204 849 223
f 849 204 191
f 813 688 812
f 635 648 725
f 849 184 198
f 815 613 813
f 815 636 613
f 217 223 849
f 659 191 204
f 217 234 223
f 191 184 849
f 859 480 421
f 795 213 511
f 245 461 243
f 878 865 859
f 802 886 932
f 191 659 867
f 452 718 889
f 223 234 247
f 176 142 184
f 246 254 234
f 865 493 486
f 293 771 357
f 268 247 254
f 771 769 357
f 805 264 735
f 268 252 390
f 161 113 112
f 486 493 488
f 390 252 274
f 867 673 746
f 264 751 279
f 274 277 390
f 746 682 152
f 281 848 287
f 827 433 682
f 808 703 214
f 152 691 109
f 109 852 113
f 476 859 421
f 296 305 277
f 476 595 877
f 305 307 928
f 196 293 292
f 595 476 820
f 726 807 700
f 752 293 357
f 307 328 312
f 310 328 305
f 56 59 852
f 292 752 799
f 328 310 323
f 886 825 824
f 312 337 332
f 807 703 808
f 891 824 782
f 193 292 189
f 844 21 22
f 429 853 409
f 109 697 927
f 56 33 510
f 105 559 553
f 339 337 346
f 346 714 339
f 51 346 347
f 317 926 927
f 564 690 876
f 863 844 232
f 799 868 292
f 510 33 258
f 843 528 529
f 844 863 842
f 861 840 843
f 861 158 347
f 861 860 840
f 752 915 31
f 158 843 842
f 843 158 861
f 842 529 844
f 919 837 906
f 906 232 907
f 809 528 840
f 730 873 918
f 730 856 873
f 873 856 879
f 856 106 385
f 817 634 645
f 837 919 838
f 817 652 816
f 919 906 907
f 919 536 537
f 743 102 361
f 904 669 838
f 898 669 904
f 669 898 38
f 703 807 721
f 405 404 838
f 669 405 838
f 922 833 836
f 294 285 887
f 361 385 402
f 869 645 634
f 830 875 664
f 916 3 1
f 864 51 347
f 402 855 361
f 909 801 914
f 397 890 374
f 48 44 855
f 796 909 77
f 879 637 873
f 901 798 905
f 580 925 397
f 48 402 706
f 896 800 901
f 891 823 896
f 409 62 61
f 853 62 409
f 881 413 417
f 417 62 853
f 86 407 299
f 459 893 882
f 199 891 95
f 830 465 831
f 829 426 417
f 426 829 124
f 426 881 417
f 124 829 827
f 433 829 853
f 886 802 825
f 774 894 883
f 851 124 827
f 164 884 124
f 441 851 436
f 180 164 851
f 443 869 164
f 911 802 932
f 715 830 664
f 874 664 875
f 736 361 360
f 451 180 441
f 457 452 889
f 889 444 457
f 866 817 870
f 106 35 639
f 459 718 452
f 826 452 457
f 452 826 245
f 451 826 457
f 862 819 866
f 858 857 862
f 461 245 826
f 459 882 718
f 479 243 461
f 854 931 858
f 850 925 854
f 846 401 580
f 845 890 850
f 491 848 482
f 848 281 479
f 825 494 883
f 382 508 491
f 900 832 767
f 508 287 848
f 896 823 800
f 839 890 845
f 504 782 824
f 42 374 839
f 516 508 382
f 908 910 318
f 534 524 523
f 552 818 548
f 42 172 173
f 901 800 798
f 818 552 900
f 533 322 531
f 871 175 737
f 868 187 189
f 22 232 844
f 593 822 533
f 822 315 316
f 929 556 330
f 330 315 822
f 838 919 537
f 904 838 537
f 318 860 834
f 908 318 834
f 465 830 715
f 556 342 336
f 105 836 559
f 833 559 836
f 29 44 846
f 908 834 804
f 562 917 828
f 299 836 105
f 818 900 767
f 832 553 559
f 562 832 920
f 811 315 548
f 828 801 821
f 801 828 917
f 821 797 814
f 836 299 903
f 401 590 580
f 797 821 801
f 905 798 796
f 796 814 797
f 810 548 818
f 814 798 806
f 798 814 796
f 909 796 797
f 811 548 810
f 413 587 590
f 404 51 837
f 51 864 837
f 837 838 404
f 909 797 801
f 529 842 843
f 158 842 863
f 232 906 863
f 800 806 798
f 529 528 511
f 794 811 806
f 785 908 804
f 785 647 908
f 859 877 878
f 526 534 794
f 877 571 878
f 571 31 915
f 173 351 42
f 524 783 509
f 350 173 175
f 29 350 871
f 823 526 794
f 783 524 526
f 526 823 782
f 42 351 374
f 841 374 351
f 504 775 783
f 509 783 775
f 782 823 891
f 885 124 884
f 887 757 779
f 914 801 917
f 426 885 881
f 890 397 925
f 825 504 824
f 775 504 883
f 925 587 931
f 587 925 580
f 802 494 825
f 785 279 762
f 494 831 465
f 831 494 802
f 894 287 775
f 590 895 413
f 438 897 576
f 884 164 869
f 762 279 751
f 423 931 587
f 587 413 423
f 931 423 857
f 762 761 647
f 617 820 476
f 595 820 621
f 751 755 763
f 893 459 243
f 751 264 805
f 609 857 423
f 423 881 612
f 662 443 444
f 721 805 735
f 621 584 595
f 857 609 819
f 443 645 869
f 612 885 627
f 636 621 820
f 628 902 584
f 805 721 807
