# avbd fit, rung k10-i32-s300-b1e-2 of Gate 6d (body space)
v -0.017937867 0.573502004 0.010969399
v -0.117843151 0.585528553 0.091061883
v -0.017250234 0.590652823 0.019590242
v 0.000932547 0.933029473 0.073036537
v -0.175825641 0.566545308 0.063991144
v 0.000593995 0.953566730 0.075244613
v -0.016779400 0.623196006 0.037238978
v -0.017082436 0.609291255 0.023505190
v -0.169734150 0.585873663 0.053488173
v 0.145581827 0.943996072 -0.104208134
v -0.197313890 0.586068034 0.050633211
v -0.185849756 0.584913015 0.025054315
v -0.196380347 0.587491572 0.003277753
v -0.160273895 0.583763480 -0.063859239
v 0.012874116 0.577718377 -0.018314075
v -0.160665691 0.574402511 -0.086469248
v 0.035114095 0.573991179 -0.024684958
v -0.138156816 0.572585106 -0.087137803
v -0.122313485 0.585846424 -0.099605262
v 0.194668517 0.530305445 -0.002116966
v 0.000413965 0.892770290 0.070147887
v -0.000123785 0.872652650 0.069920592
v -0.108309843 0.580775201 -0.081019811
v -0.101303734 0.589381695 -0.100976609
v 0.098998845 0.823967457 -0.124160811
v -0.089614026 0.604928017 -0.089456923
v -0.142586082 0.900106907 -0.141415149
v -0.154894158 0.790752769 0.073416367
v 0.043817438 0.677332282 -0.080457769
v -0.172501802 0.805217445 0.080184080
v 0.070662864 0.857669711 -0.145836815
v -0.204920858 0.779931664 0.048609018
v 0.094251171 0.775032699 -0.132608622
v -0.199899554 0.581533313 -0.038740605
v 0.083912179 0.766617954 -0.113967754
v -0.158249289 0.907940745 -0.101865195
v -0.178356141 0.900736630 -0.059524406
v 0.013253532 0.740586042 0.037673198
v -0.174437240 0.901064873 -0.033142492
v -0.086953923 0.896461010 -0.151961312
v -0.035836086 0.879944921 0.070603386
v 0.011045051 0.628913820 -0.056469508
v -0.023826357 0.855493724 0.063773714
v 0.067651398 0.681351721 -0.097270533
v -0.051328331 0.858114839 0.066931561
v -0.192818925 0.919084191 -0.026962439
v -0.194839984 0.900511146 -0.006008095
v 0.081331804 0.706681967 -0.095703132
v -0.172089517 0.897124171 0.008261064
v -0.063373603 0.588519573 0.042441454
v 0.066402361 0.818651021 0.071047507
v -0.073571488 0.590326428 0.069968298
v -0.091443554 0.690245450 0.067203127
v 0.065262131 0.770917237 0.068446383
v -0.100954339 0.590350866 0.059722524
v 0.104481682 0.793209374 -0.116251074
v -0.120119132 0.683800220 0.076254770
v -0.184206575 0.690378010 0.054624498
v 0.123443261 0.806462288 -0.130484387
v -0.203017563 0.690317273 0.030684864
v 0.094591036 0.685976684 -0.096774757
v 0.110236742 0.676370263 -0.115037546
v -0.212468773 0.792840302 0.025223583
v -0.206512645 0.817376733 0.023718901
v -0.219928190 0.689316452 -0.040510364
v -0.192695290 0.685315788 -0.055567272
v -0.177682310 0.699866533 -0.073608257
v -0.012479997 0.588564754 -0.002407953
v 0.011133823 0.582392693 -0.001036023
v -0.164205998 0.683840215 -0.093451343
v 0.032954939 0.577748060 0.005731496
v -0.127221659 0.692936599 -0.123928234
v 0.051829088 0.570239127 0.015485530
v -0.031437583 0.747861505 -0.094639838
v 0.068234399 0.561078131 0.026492605
v -0.109315351 0.901025653 -0.152382389
v 0.079476997 0.548343718 0.038952664
v -0.121491268 0.902111411 -0.134276748
v 0.096775219 0.544404805 0.049085632
v -0.132360756 0.884239316 -0.130115762
v 0.110195257 0.539197087 0.062931433
v -0.152061269 0.919624507 -0.129518852
v 0.129861191 0.537775218 0.064706832
v -0.187903076 0.867237210 -0.094816655
v 0.148067817 0.538223445 0.057737298
v 0.047118820 0.722413421 0.057963431
v -0.156697556 0.896398902 0.063038088
v -0.138172895 0.797701418 -0.130339548
v -0.168339729 0.620540559 0.052383639
v 0.163132429 0.548759818 0.054990452
v -0.160915881 0.811460793 -0.124120675
v -0.025389504 0.804872215 0.049422327
v 0.169282854 0.531275094 0.062245369
v -0.050183289 0.807713509 0.058912110
v 0.160573572 0.534004450 0.046206899
v -0.033199858 0.830893517 0.057843916
v 0.178865746 0.531768501 0.043886419
v -0.021016899 0.899608135 0.077748075
v 0.190979838 0.528451145 0.029067228
v -0.071582094 0.912151158 -0.162806407
v 0.181599513 0.530698717 0.012519096
v 0.025165703 0.750443399 -0.091835961
v -0.100985907 0.876695991 -0.155304581
v -0.118642069 0.639513850 0.091879256
v 0.040467959 0.698510408 0.047623523
v 0.064070232 0.769424081 -0.105395779
v -0.127578840 0.861974061 -0.129933283
v -0.146906570 0.618385196 0.062477548
v 0.136088580 0.761250079 -0.105670631
v -0.145389825 0.848646998 -0.138190597
v 0.137870878 0.822274864 -0.118929505
v 0.153701752 0.800979793 -0.121882275
v 0.151468337 0.772936761 -0.121462688
v -0.176191315 0.643079400 0.051275440
v -0.150389194 0.836692691 -0.116473079
v 0.201984644 0.530780554 -0.020976651
v 0.187074438 0.539220273 -0.014848225
v -0.201698691 0.634224296 0.027486989
v 0.154736400 0.822305381 -0.104834422
v -0.164883345 0.851527095 -0.096574560
v -0.185514867 0.846952796 -0.073169053
v -0.194612175 0.863483131 -0.056956720
v -0.066638544 0.846995831 -0.144513011
v 0.168130368 0.664505243 -0.098334655
v -0.174482793 0.839215457 0.046149250
v -0.199196249 0.840823650 0.026459685
v -0.134120435 0.829554856 0.081973821
v -0.146447599 0.845301747 0.064934887
v 0.185026810 0.533462405 -0.033309616
v -0.030776888 0.838545978 -0.128595024
v 0.180672616 0.529633164 -0.052100938
v -0.049254991 0.828188241 -0.138293937
v 0.167711869 0.533606172 -0.069161884
v -0.036792200 0.685621679 -0.083479270
v 0.187102035 0.532943726 -0.068567894
v -0.112151504 0.891274750 0.048581984
v 0.175253212 0.532902300 -0.084463283
v -0.097802475 0.897622585 0.072018787
v 0.155354574 0.531737268 -0.082521483
v -0.029663652 0.815808594 -0.122505583
v 0.142353877 0.532785833 -0.097566940
v 0.169683382 0.807857811 -0.095277078
v -0.033148907 0.799612164 -0.105528712
v 0.134326532 0.540803611 -0.083225831
v -0.055562895 0.812286973 -0.119408086
v -0.183622509 0.808415592 -0.102563441
v 0.137016088 0.552206635 -0.068753347
v -0.157184735 0.917682946 0.048988067
v 0.119003497 0.548533559 -0.077995762
v -0.041313022 0.716411650 -0.094846055
v 0.099266969 0.548418462 -0.073658809
v 0.150877386 0.747960687 -0.116955124
v 0.083120473 0.552366674 -0.061728854
v -0.121634364 0.749195337 -0.115793526
v 0.066832446 0.557932079 -0.049188454
v -0.086215027 0.660541415 -0.093773238
v 0.052793760 0.565774918 -0.035173152
v 0.063556641 0.862981439 0.062750548
v -0.186149210 0.768452525 -0.090874888
v -0.214319065 0.585379839 -0.015104912
v 0.165083289 0.782521486 -0.102648936
v -0.217482686 0.790034354 -0.040425975
v -0.224480703 0.746561170 -0.029487509
v 0.152437121 0.653344512 -0.076752856
v -0.211564377 0.730908096 -0.047504492
v -0.012502449 0.597298980 -0.050494563
v 0.014941138 0.585294604 -0.041523602
v -0.012596637 0.584791899 -0.035008423
v -0.012606214 0.616741776 -0.052486151
v 0.181656912 0.831325829 -0.111395240
v -0.195960194 0.736971736 -0.065485209
v -0.012130037 0.635646820 -0.057563655
v -0.012023909 0.654748321 -0.062445451
v -0.214276269 0.727304161 -0.008880853
v -0.011767536 0.674094558 -0.066971526
v 0.181674063 0.789569497 -0.087352686
v -0.163580209 0.734425128 -0.093899347
v -0.121611819 0.561111569 -0.079700857
v -0.211902052 0.737184644 0.023267988
v 0.176437110 0.671841025 -0.075760737
v -0.205893666 0.713962495 0.034850832
v -0.102723978 0.730601907 -0.118140899
v -0.091491379 0.716968656 -0.101041876
v 0.197556987 0.808719993 -0.094671518
v -0.057706870 0.789187789 -0.106570803
v -0.006479125 0.811515331 -0.104059830
v -0.005851336 0.824892879 -0.118954763
v -0.111954667 0.875652671 0.074463524
v -0.007203980 0.839004397 -0.132747009
v -0.129463151 0.861096740 0.059607614
v 0.202171803 0.777592421 -0.086847700
v -0.119904362 0.850411117 0.079670697
v -0.006941993 0.859132588 -0.133204326
v -0.135146767 0.882194400 0.050102722
v -0.166933686 0.720783770 0.069763236
v -0.007412349 0.879252255 -0.136975378
v -0.126710594 0.910362363 0.039474748
v 0.185410827 0.831228435 -0.075336777
v 0.173426583 0.554811060 0.034601655
v -0.007160289 0.899171948 -0.142329782
v -0.135064945 0.906915784 0.059092849
v -0.004835514 0.915850818 -0.154528305
v -0.171234399 0.857832551 0.066354267
v 0.198266730 0.767311513 -0.062994838
v -0.168962076 0.880700290 0.050171189
v -0.217755839 0.781849027 0.001802686
v -0.003761368 0.923953354 -0.136056945
v -0.140495300 0.915699661 0.028849402
v -0.150178343 0.893037021 0.031704962
v -0.163847923 0.919569969 0.016351651
v -0.144905537 0.713244081 0.080041632
v 0.040348932 0.953817666 0.072721921
v 0.020556007 0.954084694 0.076936655
v 0.206153229 0.852660656 -0.059914518
v 0.000785928 0.912998378 0.071282625
v -0.180104047 0.921988487 -0.005139846
v 0.210802585 0.819973350 -0.057153512
v -0.169915572 0.922894359 -0.023509542
v -0.174913764 0.923612237 -0.046056811
v -0.091400906 0.631923020 -0.094922021
v 0.060546316 0.952286422 0.069895737
v 0.205950305 0.837007701 -0.035529967
v 0.216040641 0.785923123 -0.046921186
v -0.175148204 0.925203443 -0.069397517
v -0.156530604 0.932164550 -0.110259295
v -0.129127190 0.923735023 -0.140008733
v -0.153819323 0.863502383 -0.116947308
v -0.111587659 0.632665992 -0.086381391
v 0.087020792 0.938281894 0.077148706
v 0.077850603 0.946154296 0.061504759
v -0.111621842 0.855989814 -0.147187203
v -0.001274143 0.853061318 0.065636292
v -0.118992709 0.879860044 -0.144220442
v 0.213323310 0.809782147 -0.029810179
v -0.128779501 0.614754677 -0.091999963
v 0.091160782 0.934072018 0.059109010
v -0.037938792 0.687261045 0.046784841
v -0.041071858 0.569777787 0.032650802
v 0.203150317 0.849902630 -0.014909765
v -0.207108885 0.840784729 -0.048692547
v -0.060407139 0.627964556 0.044222943
v 0.106076732 0.935952663 0.047600385
v 0.206133038 0.677109659 -0.012310917
v -0.066161700 0.565737486 0.054604702
v 0.220855400 0.675400913 -0.028994393
v 0.207365558 0.826760471 -0.009208011
v 0.215539455 0.783192754 -0.016758693
v -0.073309802 0.641337276 0.063076019
v -0.092493713 0.569516897 0.075759239
v -0.122085974 0.572343767 0.065359935
v -0.113148309 0.628823876 0.069028832
v 0.212402269 0.814465642 0.019234542
v -0.116876945 0.605943561 0.069510818
v 0.212306589 0.803928733 -0.005034595
v -0.063656121 0.833846092 0.068190619
v 0.109042540 0.854795754 0.088290796
v -0.118484184 0.614411891 0.091761984
v 0.078715652 0.787029386 -0.117209032
v -0.131748885 0.558852315 0.089173198
v -0.195749089 0.642893553 -0.050914902
v -0.132063001 0.627896249 0.075747147
v -0.145747751 0.578376710 0.069968425
v 0.068633214 0.805375099 -0.123386994
v 0.181747600 0.877880096 0.040001433
v -0.136790648 0.603052258 0.076845802
v -0.193279296 0.624544740 -0.035480104
v -0.155437648 0.554933131 0.070616998
v 0.216614008 0.786092162 0.010467236
v 0.213304430 0.766162038 0.024237758
v -0.150490925 0.871520042 0.067041293
v -0.153707668 0.600391328 0.055873983
v -0.175769642 0.573120952 0.040436741
v 0.193425387 0.832760692 0.029417535
v 0.199026734 0.809065938 0.045332775
v -0.195349723 0.624719739 0.057628293
v -0.181415081 0.603461146 0.064553879
v 0.192805499 0.783427358 0.058064424
v -0.195796400 0.561496675 0.034038205
v 0.152538151 0.877206624 0.044902302
v -0.183467224 0.609602034 0.037821226
v 0.211006016 0.669247270 0.011310865
v -0.054014433 0.951122582 0.070655279
v -0.198824435 0.608381927 0.015010895
v -0.023397217 0.925755858 0.086456828
v 0.185244009 0.827986240 0.054685019
v -0.166910186 0.860788703 0.041610960
v 0.202776045 0.660507858 0.035274338
v -0.169249997 0.876262963 0.023747796
v -0.194133982 0.604707122 -0.012131598
v 0.184293896 0.760646820 0.065860435
v -0.187836081 0.861758709 0.029733691
v 0.017243547 0.855428994 -0.145645663
v 0.020651024 0.881750464 -0.145814285
v 0.163814709 0.821705163 0.064001493
v -0.032008540 0.926190674 -0.146900266
v 0.176799625 0.803219020 0.060522877
v -0.197347879 0.628926456 -0.003424653
v -0.025446028 0.904892564 -0.160537869
v 0.023790490 0.720273554 0.046258610
v -0.033100743 0.612332284 -0.054649614
v -0.046134420 0.903448403 -0.145689934
v 0.157701507 0.837151825 0.081762269
v -0.055775970 0.925616384 -0.150790602
v -0.193238646 0.882475019 0.013999833
v 0.162348926 0.779569387 0.068566799
v -0.204579204 0.859266639 0.008447702
v 0.159295082 0.759982705 0.090036601
v -0.204652399 0.868097126 -0.035605703
v -0.203005344 0.849079430 -0.017827377
v 0.161079630 0.808814883 0.083468787
v -0.196199417 0.874582946 -0.011563821
v 0.136838973 0.771295667 0.080300547
v -0.212571099 0.559023559 -0.028843066
v -0.216988057 0.610917926 -0.005259766
v 0.112621918 0.661949158 0.083978243
v 0.137497738 0.658639729 0.079166815
v 0.109490894 0.731637478 -0.126330048
v 0.100548245 0.906961441 0.069954224
v -0.037469793 0.626996875 0.039923064
v 0.122968301 0.939292789 0.053615861
v -0.182099372 0.879534543 -0.044372190
v 0.148387060 0.681135058 0.076833852
v 0.131960154 0.824550629 0.094432838
v -0.210821301 0.625232995 -0.021068275
v -0.177551076 0.876008809 -0.071251832
v 0.139511079 0.935394168 0.048530936
v -0.163165361 0.880364060 -0.097437926
v 0.147552118 0.789384604 0.094494596
v -0.075025335 0.776785433 -0.117497638
v 0.103696980 0.686365724 0.073568620
v -0.186762244 0.559366286 -0.043617096
v 0.112307385 0.774724364 0.083774641
v -0.206394583 0.604312837 -0.029448509
v -0.188996494 0.619446635 -0.060645778
v -0.165244386 0.560059965 -0.057663549
v 0.077958971 0.681581795 0.067986272
v 0.124800548 0.798746467 0.079242997
v -0.077857509 0.738721490 -0.101258077
v 0.100463606 0.793783307 0.081529163
v -0.175283879 0.580109477 -0.047621273
v -0.172229782 0.638536751 -0.066598222
v 0.062897071 0.700945973 0.060843945
v -0.090946309 0.755489707 -0.121206440
v -0.177928820 0.566875339 -0.075959332
v 0.018235467 0.816023052 -0.109746397
v 0.100519434 0.822156787 0.077157639
v 0.078223668 0.844493389 0.079272732
v -0.164468244 0.612906039 -0.065392509
v 0.134242684 0.935438931 0.031582903
v 0.018089995 0.666291952 -0.068594918
v 0.020836756 0.646424651 -0.062073760
v -0.150660872 0.557782471 -0.072540812
v 0.153343156 0.938833714 0.032005392
v -0.144353002 0.749566376 -0.130045384
v 0.145004347 0.931360066 0.017806407
v -0.146398813 0.615372777 -0.078211211
v 0.046250749 0.891597629 -0.154265776
v -0.166668236 0.599892557 -0.083758771
v 0.157769412 0.941933930 0.008163442
v 0.033884272 0.700713456 -0.082679003
v 0.036250468 0.724788010 -0.092270955
v -0.157373354 0.731020093 -0.115910754
v 0.166723341 0.945881009 -0.008977639
v -0.160027966 0.756505311 -0.113363482
v -0.106983617 0.920766830 -0.135437906
v -0.048995908 0.906611443 0.084241793
v 0.169538707 0.945220828 -0.028324494
v -0.150414050 0.550872028 -0.097862624
v -0.142597899 0.747788250 -0.100714073
v -0.146848470 0.591818869 -0.078548253
v -0.151053071 0.890864372 -0.119496390
v 0.170723677 0.943755746 -0.046730794
v -0.164418250 0.759617567 -0.092348173
v 0.037435330 0.627230942 -0.061127275
v -0.125973776 0.555820405 -0.102409855
v -0.185897201 0.746046603 -0.086729646
v 0.167946547 0.940204501 -0.066063508
v -0.148357362 0.873989284 -0.137998909
v 0.175896883 0.943435669 -0.083714381
v -0.196795255 0.765914559 -0.068469360
v -0.145948097 0.597935319 -0.097758986
v 0.193392470 0.706290662 0.062043387
v 0.156485185 0.942464232 -0.082748607
v -0.209042832 0.750643313 -0.052454811
v 0.050657284 0.747959554 -0.099425398
v -0.106186055 0.563037634 -0.096638091
v -0.033287268 0.587421536 -0.049632981
v 0.164588243 0.946030974 -0.100297846
v -0.217112154 0.769970953 -0.048546664
v 0.206938788 0.786864996 0.035067771
v -0.035547879 0.666229486 0.036834680
v 0.129707664 0.944162369 -0.116017379
v 0.202490687 0.757117271 0.046548035
v -0.082654499 0.765468180 0.068044521
v -0.109149203 0.605096936 -0.081691615
v -0.086489424 0.574903727 -0.083492801
v 0.061544985 0.629125953 -0.074834540
v -0.107628033 0.616039872 -0.104199782
v -0.082847118 0.600751460 -0.066245645
v -0.078264020 0.575598478 -0.057946675
v 0.081723757 0.661649346 -0.099995807
v 0.064619303 0.726242900 -0.099613763
v -0.207997113 0.728373110 0.055334426
v 0.052317977 0.792699695 0.062781423
v 0.040670250 0.768139303 0.057985086
v -0.208450168 0.754359603 0.051736034
v 0.035635263 0.744025648 0.047323152
v -0.033907004 0.771317244 -0.110070482
v 0.100418113 0.703219533 -0.121129379
v -0.183879808 0.766525328 0.060903471
v -0.079752736 0.642651677 -0.079469651
v -0.087110318 0.622225225 -0.076093063
v 0.106687926 0.645235538 -0.108235382
v -0.180724382 0.740805507 0.060847867
v -0.055265129 0.599643588 -0.064447254
v 0.120778814 0.932295978 -0.126589075
v 0.121640489 0.669162810 -0.093991414
v -0.065412410 0.624201417 -0.074298494
v -0.167578816 0.755969882 0.082440101
v -0.057819884 0.658152461 -0.082427204
v 0.116203681 0.950049281 -0.130179837
v -0.042008772 0.632154107 -0.067800805
v 0.114302121 0.615738988 -0.104563512
v -0.189730838 0.580569625 -0.019045737
v -0.193744868 0.562618494 0.006394509
v 0.141235024 0.660577834 -0.094480626
v -0.156375676 0.733997703 0.084329851
v -0.136627510 0.748451352 0.082896575
v 0.119712569 0.719636023 -0.106033362
v -0.083699718 0.833748043 0.091293395
v -0.072629109 0.949211478 0.063659996
v -0.127183124 0.725175798 0.099659920
v 0.143296808 0.708035111 -0.105035856
v -0.113160715 0.748221219 0.097217113
v -0.097252041 0.811585546 0.094639219
v 0.156412601 0.713917315 -0.086719155
v -0.108568370 0.732166171 0.075321794
v 0.119123302 0.865143597 -0.146800876
v -0.085252002 0.788168550 0.083233744
v -0.112176038 0.790522099 0.094456986
v 0.177162871 0.698232532 -0.081427671
v -0.098755017 0.769062877 0.092454366
v 0.165777043 0.630583405 -0.067128256
v 0.180393368 0.646974921 -0.066136032
v -0.101383984 0.753422916 0.075965852
v -0.080863297 0.739537179 0.074125051
v -0.124645874 0.769239485 0.088825956
v -0.033086017 0.756739199 0.054596405
v -0.131668061 0.788474739 0.075766847
v -0.118748389 0.808127522 0.076065548
v 0.191679731 0.691704571 -0.061944246
v 0.212441832 0.658311903 -0.043032084
v -0.075248361 0.810112298 0.073485896
v -0.147619620 0.769876301 0.074694209
v -0.057813656 0.668455541 0.056621999
v -0.146718547 0.810404599 0.075148873
v 0.191921398 0.666099310 -0.054617405
v -0.167299792 0.832285106 0.079101875
v 0.216829941 0.654468894 -0.020120192
v -0.182554334 0.791065276 0.060254090
v 0.223181099 0.702920854 -0.023555435
v -0.172980174 0.779697299 0.080971271
v -0.072882935 0.857320189 0.087454654
v -0.176095098 0.814752877 0.056895971
v 0.211600989 0.608860135 -0.017324755
v -0.070818797 0.898588777 0.062607385
v -0.009148058 0.773396671 -0.088789418
v -0.068109110 0.923872292 0.063260376
v -0.191801861 0.823794186 0.040963046
v -0.213932276 0.766021609 0.025231753
v -0.047314756 0.931105316 0.073313996
v -0.007057016 0.793542981 -0.094406746
v -0.106760085 0.939609230 0.050819285
v -0.215196520 0.754534662 -0.001472353
v 0.076240584 0.837253094 -0.136864781
v 0.123188749 0.912804306 -0.133667499
v -0.212286353 0.834598660 0.003772054
v -0.092195593 0.946414113 0.062290214
v 0.207640484 0.698776662 0.001963986
v 0.098610461 0.949333012 -0.139117807
v -0.198844016 0.893078327 -0.030587247
v 0.213105842 0.715015054 0.021596251
v -0.215894535 0.772303104 -0.022566315
v -0.211938351 0.798394144 -0.020128714
v -0.207155138 0.823745131 -0.021409376
v 0.094842069 0.930827498 -0.135948196
v 0.216654629 0.759848952 0.001395329
v 0.077336982 0.941012979 -0.136213556
v -0.093654655 0.851154208 0.068692908
v -0.025161183 0.883336246 -0.144794628
v 0.203970164 0.703426600 0.041822765
v 0.057352465 0.948174775 -0.135350719
v 0.065851778 0.935221493 -0.152327955
v 0.192165703 0.600260496 0.006160598
v -0.091585398 0.921272755 0.068761773
v -0.029537376 0.860445619 -0.139082998
v -0.205461666 0.791825235 -0.061505269
v -0.183688536 0.900593758 -0.088430703
v -0.105555132 0.828747153 0.073813975
v 0.036363527 0.948581994 -0.132405758
v -0.194116160 0.790400326 -0.085012063
v 0.015605536 0.946111977 -0.131309912
v -0.152825207 0.799912572 -0.102846563
v 0.192525953 0.604339898 0.042358525
v -0.172090545 0.783280969 -0.101529934
v 0.016245224 0.930909753 -0.136632457
v -0.004621009 0.943607330 -0.129872352
v 0.201899365 0.679995358 0.053654574
v 0.189568475 0.653003931 0.057998568
v 0.089145511 0.799882948 -0.137292191
v 0.023036236 0.919385612 0.077240296
v -0.162951693 0.824574769 -0.099088348
v -0.146318167 0.773994267 -0.103541031
v -0.170337334 0.929138184 -0.091900386
v 0.068748780 0.816684425 -0.142796785
v 0.174686357 0.680323482 0.057457458
v -0.159945190 0.780540586 -0.126122430
v -0.066246822 0.555728853 -0.042369835
v -0.116244160 0.788137794 -0.133137047
v -0.076964580 0.550403416 -0.058502626
v -0.089268818 0.545254588 -0.072948024
v -0.131362826 0.771067441 -0.132507131
v 0.164681956 0.664756000 0.080340758
v 0.161861151 0.647604227 0.059959043
v -0.108533904 0.547475457 -0.074807897
v 0.154370621 0.617611945 0.065135539
v -0.121296108 0.836839795 -0.132463187
v 0.047877129 0.912063122 0.067252286
v 0.031672381 0.894557834 0.074306622
v -0.113713481 0.536891341 -0.089967921
v 0.168866321 0.694457650 0.080068931
v -0.115755238 0.810458660 -0.142646745
v 0.147402376 0.702651381 0.080067530
v 0.153578162 0.637164176 0.086135313
v -0.130398363 0.537822485 -0.081108458
v -0.003688465 0.818086982 0.045654841
v -0.005188857 0.798427343 0.040107358
v -0.103908956 0.800343156 -0.117783986
v -0.127033770 0.529726863 -0.098485418
v -0.088799275 0.852926373 -0.159923851
v -0.112530291 0.774456561 -0.114787303
v -0.144839898 0.527727604 -0.099951163
v -0.146475896 0.530278981 -0.081376538
v -0.163899928 0.534714878 -0.081746161
v -0.060937308 0.780992210 0.061775517
v -0.032083578 0.782352328 0.053429496
v 0.095715493 0.665972412 0.068370931
v 0.099416137 0.642567515 0.069445655
v -0.180339962 0.537910640 -0.071567580
v -0.162315935 0.543040872 -0.066180490
v -0.034429263 0.709776282 0.055537097
v 0.076323256 0.656648576 0.063891657
v 0.053538762 0.673894286 0.055518873
v -0.176087826 0.538656294 -0.053888746
v -0.086958431 0.840185940 -0.139181241
v 0.085630581 0.705080688 0.073423393
v -0.195075005 0.535914481 -0.049726088
v -0.058507431 0.694086432 0.073488489
v 0.031003615 0.675123394 0.038388003
v -0.050172042 0.647890985 0.040943243
v -0.103945114 0.832385898 -0.150735110
v 0.023128036 0.622646868 0.043316182
v -0.076218277 0.667940021 0.079421140
v 0.079976648 0.749543786 0.070409283
v -0.050785284 0.609069943 0.038743600
v -0.075588830 0.611589074 0.053518254
v -0.063803427 0.864261448 -0.163145155
v -0.080699742 0.873785377 -0.151410058
v -0.084844515 0.714132667 0.076346427
v -0.063501731 0.886883914 -0.148832172
v 0.094174698 0.870494962 -0.157567263
v -0.205508918 0.531134009 -0.033654884
v 0.092672855 0.728728116 0.078917801
v -0.090351298 0.614675879 0.078959338
v -0.114432797 0.707950413 0.075843699
v 0.099119402 0.845330834 -0.146567330
v -0.094497040 0.644807398 0.082226023
v -0.101345703 0.666646063 0.067285232
v -0.081813470 0.874290168 0.063283667
v 0.077610970 0.634319723 -0.095043980
v -0.061598204 0.881293476 0.084868081
v 0.116067290 0.733600438 0.082580775
v -0.116300419 0.650290847 0.072022401
v 0.138169020 0.864557385 -0.126219153
v -0.188668102 0.538021326 -0.033798069
v -0.037198078 0.733093023 0.048052631
v 0.100371398 0.625610411 -0.081507951
v -0.188484579 0.536705315 0.003783834
v -0.144637510 0.672213972 0.091889538
v 0.094312713 0.648645520 -0.086401887
v -0.187044367 0.537460506 0.023490051
v -0.118073151 0.664074302 0.090867817
v 0.132889062 0.717877686 0.087099746
v 0.140185505 0.742944658 0.083242945
v 0.132992178 0.887430310 -0.139352962
v -0.173527449 0.548949838 0.031636424
v -0.130549818 0.697358072 0.096717224
v -0.162519976 0.558595777 0.046242774
v -0.137075782 0.651451707 0.078270882
v -0.173855871 0.542809248 0.048536062
v -0.155018508 0.541018605 0.055801503
v -0.145891696 0.691877961 0.077754140
v -0.162647471 0.656958222 0.071573347
v -0.139652267 0.538630605 0.067626558
v 0.161170423 0.725587964 0.088133045
v -0.162070513 0.679006159 0.066148058
v -0.137992263 0.557975888 0.066304639
v -0.124730244 0.545522332 0.062046319
v 0.127851158 0.603137314 -0.085273020
v -0.165747672 0.700715542 0.067988388
v 0.189605877 0.735016108 0.064554848
v 0.131149232 0.623966098 -0.084737234
v 0.156703860 0.919846237 -0.107854128
v -0.107788719 0.551020026 0.055558164
v -0.155079886 0.636526227 0.066920362
v -0.102634802 0.570112586 0.056309938
v 0.138486281 0.931242943 -0.136058718
v -0.091084570 0.554797232 0.050070353
v -0.075658053 0.555250645 0.036377024
v 0.203686684 0.727922857 0.043803670
v 0.157136306 0.882838607 -0.132189766
v -0.063506894 0.562897265 0.021311406
v -0.048508734 0.568503678 0.007617796
v -0.185364872 0.714681983 0.056806903
v -0.036181170 0.582015455 -0.000734938
v -0.181426585 0.666646421 0.052280176
v 0.148162037 0.613484979 -0.094880417
v 0.168048576 0.858086705 -0.123300098
v 0.214536235 0.741514862 0.022558842
v -0.207431391 0.701785743 0.055794738
v -0.204183772 0.649810433 0.054318566
v -0.207217932 0.676049352 0.053993918
v -0.050917260 0.741170466 -0.113586009
v 0.171170056 0.606290340 -0.092407599
v 0.219561502 0.757154584 -0.023878178
v 0.145775169 0.897958457 -0.115901329
v 0.011539174 0.796241462 -0.095898055
v -0.063694961 0.762405217 -0.101491511
v 0.076586656 0.748162150 -0.103228234
v -0.060419679 0.722273290 0.062840536
v 0.213528469 0.729514956 -0.006044806
v -0.200529695 0.663931072 0.028417647
v -0.208093852 0.708682477 0.010214362
v -0.198549956 0.803381145 0.044959147
v 0.163189262 0.604863763 -0.068280011
v -0.201151803 0.654998958 0.000564602
v 0.127304524 0.912103057 0.066523723
v 0.220932990 0.731365323 -0.035637025
v -0.205213338 0.682020307 0.003042373
v -0.224347040 0.698541999 -0.011699639
v -0.225283310 0.716014683 -0.033621833
v 0.176968262 0.595140219 -0.048880387
v 0.204149932 0.711761177 -0.045636006
v -0.223492309 0.638860106 -0.004643972
v -0.216740370 0.808743000 0.002279951
v 0.157499284 0.874858856 -0.107746795
v -0.034824606 0.952256858 0.076395668
v 0.200382203 0.738087893 -0.055917878
v 0.197587416 0.745258689 -0.084418908
v -0.095214240 0.822508335 -0.126554310
v -0.072042406 0.822052300 -0.139892906
v 0.179759800 0.621430218 -0.051997788
v -0.228740901 0.667691350 -0.016016057
v 0.195495173 0.581067204 -0.056825209
v 0.195344031 0.716955543 -0.070217796
v -0.024833929 0.944773376 -0.132714435
v -0.045819052 0.943543553 -0.136613101
v 0.169879049 0.853219032 -0.093884997
v 0.018048052 0.764046609 0.043796100
v -0.065902099 0.936795354 -0.139098197
v -0.057476409 0.750006795 0.066370055
v 0.180062473 0.722429633 -0.086656213
v 0.166499004 0.741186619 -0.087530263
v -0.083645605 0.926997840 -0.140037417
v 0.175509512 0.880905271 -0.090377085
v -0.206489474 0.646985710 -0.025079126
v -0.082060248 0.943897367 -0.149078637
v -0.095550001 0.921686471 -0.155162141
v -0.213203937 0.813245475 -0.046530031
v -0.094570957 0.942906678 -0.134256914
v -0.113575801 0.945280075 -0.130056784
v 0.166209146 0.725588262 -0.111303791
v -0.202779606 0.709739864 -0.058871828
v -0.194967851 0.818200290 -0.072671890
v -0.189225763 0.836722851 -0.099162064
v -0.204164475 0.666929364 -0.040499590
v 0.180203676 0.864544868 -0.067932226
v 0.165344268 0.922631145 -0.075686440
v -0.184053212 0.602280498 -0.042169340
v 0.057543814 0.746999145 0.059633978
v 0.141632274 0.733481765 -0.101882674
v -0.077360950 0.798988283 -0.130646631
v -0.184848800 0.721591592 -0.082494959
v 0.186845571 0.917144895 -0.073593661
v -0.093658350 0.780780196 -0.124930181
v -0.182656243 0.595000386 -0.068028994
v 0.122822508 0.743060231 -0.110548750
v -0.182215780 0.661142886 -0.059342682
v -0.171170086 0.655652881 -0.090416938
v 0.183398589 0.914944530 -0.050396282
v -0.173423588 0.677225351 -0.072766140
v -0.163032621 0.709375262 -0.094993331
v 0.195343390 0.865806460 -0.034623243
v -0.169004351 0.626485348 -0.087860361
v -0.033221625 0.657785058 -0.070253715
v 0.091781721 0.727954805 -0.107595488
v -0.132020682 0.948262095 -0.130798444
v -0.128996700 0.935364842 -0.119111314
v -0.138755783 0.722034156 -0.097777545
v -0.138224661 0.695413232 -0.091609046
v -0.142561585 0.668835938 -0.083884612
v -0.146216244 0.641708732 -0.079136714
v -0.142052352 0.822572887 -0.138340130
v 0.076697543 0.795429111 0.076107040
v 0.206255645 0.609447122 -0.051476307
v -0.153469533 0.949938178 -0.091473423
v -0.161148906 0.949933708 -0.073275402
v 0.217892841 0.632056355 -0.035824295
v -0.013607685 0.577769876 -0.016746204
v -0.168759853 0.949016273 -0.055119503
v 0.199975163 0.872820020 -0.005166806
v -0.167819545 0.945140183 -0.036145486
v -0.164417654 0.941097915 -0.017663166
v -0.178928524 0.951226056 -0.024091531
v 0.214823157 0.755963147 -0.047822196
v 0.178742424 0.922483623 -0.031012867
v -0.173123136 0.949341595 -0.004938072
v -0.157809347 0.941401839 0.004754291
v -0.149861738 0.939356804 0.022294594
v 0.055825263 0.792487025 -0.108781770
v -0.134464607 0.935371876 0.029995108
v 0.172193363 0.915775001 -0.009993386
v -0.149048239 0.941389382 0.040285319
v -0.149601936 0.625190318 -0.102210581
v 0.188279718 0.861779988 0.019144809
v 0.013655772 0.709679425 -0.077470869
v -0.011481717 0.693715453 -0.071422547
v -0.011016656 0.713251591 -0.076759443
v 0.137543589 0.921655178 -0.117213801
v -0.150846943 0.652235508 -0.105125383
v -0.010703029 0.733061135 -0.081205182
v -0.152602687 0.704809904 -0.115773953
v 0.011334302 0.731986165 -0.082539923
v -0.010255391 0.752998948 -0.085399583
v -0.133551016 0.939388156 0.051986068
v 0.168048844 0.756776214 -0.106659792
v 0.174828425 0.920488000 0.013746592
v -0.127388388 0.638978601 -0.105253711
v -0.140019432 0.925926983 0.042632088
v -0.121863388 0.932433009 0.041643001
v 0.170013607 0.902621150 0.040684864
v 0.044336405 0.865544438 -0.155236170
v -0.149508327 0.678366661 -0.111498095
v -0.130374417 0.722940981 -0.130251110
v 0.154399455 0.915335357 0.023077931
v -0.126332730 0.664961338 -0.115826353
v 0.186736122 0.851758122 0.044756107
v -0.115078554 0.659393489 -0.092505567
v -0.008384884 0.738191247 0.035053734
v -0.106074713 0.914585412 0.050621927
v 0.128413334 0.917307079 0.042046860
v 0.137250543 0.896452427 0.044190824
v 0.148951679 0.919945240 0.045022238
v -0.104911610 0.644122243 -0.110319614
v -0.117064178 0.685821474 -0.098470628
v -0.098816022 0.671014249 -0.115090154
v 0.050302684 0.631157517 0.045370221
v -0.118148685 0.712034106 -0.105023041
v 0.053083867 0.914656043 -0.147780627
v -0.093985528 0.697769821 -0.116158962
v 0.024430692 0.905649006 -0.146917403
v -0.044876341 0.850062072 -0.152115673
v -0.041177038 0.878634155 -0.163480058
v 0.196684733 0.625766158 0.003064992
v 0.201924950 0.632350981 0.042467944
v -0.066560298 0.686375558 -0.100921407
v -0.067734167 0.715246201 -0.115740739
v -0.141779333 0.944957376 -0.107217833
v 0.165091857 0.859129250 0.044136275
v 0.159264654 0.862737656 0.069303110
v -0.185266659 0.557903230 -0.022533171
v 0.166418523 0.596601188 0.049891274
v 0.176240370 0.625896335 0.049565252
v -0.188773438 0.537968159 -0.015581976
v 0.137621358 0.882159889 0.072427556
v -0.052825201 0.575294614 -0.050654251
v -0.052798778 0.566355348 -0.030908793
v 0.008781107 0.605462611 0.023784539
v -0.035446294 0.573691487 -0.021491636
v -0.017925549 0.938588619 0.069452070
v 0.071083307 0.901872277 -0.150213793
v -0.016186345 0.953093350 0.082087554
v -0.040566489 0.593012393 0.028150290
v 0.143715069 0.609335423 0.090114400
v 0.041765220 0.934327602 0.070905343
v 0.088495500 0.562988162 0.066397652
v 0.080011353 0.581621528 0.054518551
v 0.115497135 0.579674006 0.064068787
v 0.045774672 0.836145759 -0.149346977
v 0.137171656 0.582581580 0.080219075
v 0.060083419 0.587474406 0.040657919
v 0.187623486 0.574392557 0.011202293
v 0.135257691 0.845318496 0.068291515
v 0.118469216 0.863880754 0.058754623
v 0.185073331 0.893100739 0.011130449
v 0.120602384 0.605265915 0.073425904
v 0.186091587 0.893791080 -0.025671626
v 0.200378031 0.888190925 -0.056770306
v 0.063756466 0.929440022 0.076002702
v 0.095479943 0.617679000 0.076137029
v 0.122090302 0.632721901 0.088018626
v 0.172558993 0.894652486 -0.068631992
v 0.173252583 0.910089314 -0.092004910
v 0.094941668 0.591314495 0.072802119
v 0.162358567 0.896478772 -0.103287682
v 0.167022496 0.572144747 -0.057764895
v 0.182820708 0.583027363 -0.082632229
v 0.075233921 0.629996896 0.057902921
v 0.147649258 0.585582972 -0.081545815
v 0.147337154 0.908016503 -0.136430487
v 0.078711160 0.604361117 0.056329884
v 0.126562983 0.687585473 0.086609431
v 0.163622484 0.589601099 0.076082923
v 0.179451808 0.580434203 0.032208849
v 0.206274077 0.586051583 0.026478529
v 0.206594661 0.685409009 -0.043104559
v 0.167481571 0.695376575 -0.103211641
v 0.051918965 0.608737826 0.050298780
v 0.143653035 0.682328939 -0.103163935
v 0.193893135 0.592193246 -0.030244589
v 0.205538958 0.581867754 -0.007353829
v 0.038775213 0.650722086 0.038365405
v 0.007981057 0.676919818 0.030459415
v 0.095461428 0.874061465 0.062240083
v 0.078325965 0.918693423 0.061494093
v 0.016388513 0.698993921 0.036517851
v 0.042353176 0.814526737 0.052981429
v 0.023272958 0.789910316 0.050781392
v 0.020402150 0.604798615 -0.058182545
v 0.067943014 0.905072510 0.080627248
v 0.042034231 0.650728106 -0.072537333
v 0.042465914 0.874427915 0.069853500
v 0.058973413 0.888640702 0.065602407
v 0.020180270 0.873562336 0.070282198
v 0.039916061 0.582299232 -0.053094041
v 0.064575285 0.656838357 -0.082962357
v 0.088144019 0.772651553 0.078905493
v 0.209336370 0.687098145 0.027635977
v 0.195217162 0.797883153 -0.067795277
v 0.069015637 0.579213977 -0.065526307
v 0.152481109 0.684147358 -0.081393860
v 0.131007239 0.787045836 -0.111112535
v 0.119690873 0.694826245 -0.099377602
v 0.094905384 0.572609544 -0.085786976
v 0.054121625 0.702751756 -0.095314771
v 0.040564150 0.771521449 -0.100737736
v 0.118175790 0.585182309 -0.100910679
v 0.124662653 0.576582432 -0.074070036
v 0.106268302 0.920287251 -0.149380505
v 0.079517126 0.893280625 0.064575687
v 0.077676959 0.874747276 0.086683542
v 0.131285682 0.559812546 -0.100653388
v 0.034567364 0.854814827 0.064134941
v 0.054855924 0.838449478 0.057420708
v 0.084403843 0.922501087 -0.162882581
v 0.156692952 0.557436109 -0.078003123
v 0.178252280 0.765533805 -0.085814796
v 0.021981092 0.836248398 -0.126082048
v 0.155409515 0.624058008 -0.080436915
v 0.187275052 0.556372046 -0.075007781
v 0.015499623 0.687791228 -0.072659552
v 0.165672153 0.549470782 -0.061965890
v 0.033303391 0.796347260 -0.102420710
v 0.189552128 0.553695142 -0.052448548
v 0.184231251 0.572423339 -0.038087793
v 0.070516877 0.725459933 0.067765556
v 0.108575419 0.891510308 -0.144032210
v 0.091553599 0.897105694 -0.161201984
v 0.016869152 0.773365736 -0.092843495
v 0.202827901 0.565186262 -0.026059255
v 0.122624591 0.643803477 -0.089148864
v 0.208981469 0.634104848 -0.014329268
v 0.209276289 0.614053547 0.022820728
v 0.169453636 0.635001481 -0.091969684
v 0.147065669 0.639531910 -0.093140140
v 0.198142126 0.557628036 0.033400781
v 0.164851829 0.841777623 0.056578219
v 0.207311898 0.845043361 0.009637268
v 0.196695104 0.639108777 -0.047335945
v 0.054072849 0.604555070 -0.063565180
v 0.175252229 0.565343022 0.058232360
v 0.100249171 0.752128959 0.082671985
v 0.200657338 0.651963115 -0.002518931
v 0.210248545 0.641756356 0.018625822
v 0.102091275 0.665195823 -0.095652364
v 0.157205194 0.558769703 0.078928120
v 0.127593771 0.837162614 -0.139461160
v -0.007356468 0.757890463 0.037187405
v -0.013970112 0.661490738 0.028869739
v 0.059554033 0.649219871 0.051189285
v 0.135918826 0.562108040 0.062700383
v 0.147800595 0.844133735 -0.113310635
v -0.009028401 0.719152689 0.037987337
v -0.006464762 0.778030038 0.038452435
v 0.112692237 0.556614697 0.069817051
v 0.025145030 0.834744751 0.056116797
v -0.002285375 0.834969342 0.056755714
v 0.116913877 0.889656067 0.050789703
v 0.063781232 0.564451039 0.051421594
v 0.110105075 0.915092945 0.048235454
v 0.194441497 0.556231618 -0.005647209
v 0.121437654 0.754975259 0.083646409
v 0.036981769 0.930866361 -0.150102988
v 0.039944258 0.568633139 0.035730362
v 0.070107743 0.880445182 -0.149186075
v 0.011071915 0.576000094 0.026327798
v 0.035223722 0.596524894 0.030096361
v 0.044373035 0.816717267 -0.123120621
v 0.016999049 0.814937949 0.046162184
v 0.011973902 0.648547769 0.031147663
v -0.015366015 0.641682148 0.030327048
v -0.010452165 0.700197995 0.034586404
v 0.183043629 0.554864764 -0.026368141
v -0.012198778 0.681225896 0.030304452
v 0.076961488 0.602312446 -0.089991122
v 0.092431799 0.749463677 -0.124412239
v 0.116296209 0.764796793 -0.123642430
v 0.164175048 0.745197892 0.067424275
v 0.110151410 0.709541798 0.079637296
v 0.169145986 0.715520859 0.062953278
v 0.107484557 0.599301159 -0.077495568
v 0.183335319 0.550397694 0.014241079
f 555 540 123
f 389 162 497
f 567 540 568
f 583 104 251
f 463 489 430
f 453 94 255
f 483 484 162
f 446 640 671
f 574 577 251
f 50 244 238
f 52 244 50
f 575 57 53
f 55 249 52
f 55 2 250
f 577 248 563
f 575 437 432
f 57 597 589
f 2 265 262
f 589 592 57
f 262 259 2
f 5 267 262
f 602 606 589
f 5 9 11
f 58 606 610
f 11 272 5
f 12 278 11
f 565 793 8
f 630 60 632
f 13 425 12
f 424 289 160
f 289 424 13
f 643 649 60
f 181 403 179
f 483 206 484
f 163 651 174
f 53 563 558
f 651 65 650
f 163 389 384
f 683 66 65
f 455 558 563
f 165 384 171
f 340 331 34
f 67 66 683
f 206 470 63
f 385 102 856
f 67 702 70
f 344 340 696
f 179 403 406
f 710 70 702
f 16 352 14
f 111 112 59
f 63 64 655
f 18 368 16
f 710 742 753
f 119 112 111
f 394 671 545
f 551 922 903
f 19 375 18
f 753 740 711
f 406 470 179
f 261 615 108
f 545 453 439
f 178 386 530
f 24 386 23
f 72 753 742
f 26 396 24
f 768 765 72
f 119 142 112
f 32 63 470
f 112 142 161
f 399 400 396
f 154 343 182
f 545 671 448
f 399 415 400
f 768 770 765
f 32 406 410
f 418 415 399
f 770 183 777
f 387 300 166
f 415 418 422
f 105 86 299
f 169 42 839
f 170 142 119
f 173 172 705
f 329 638 343
f 134 738 737
f 185 638 329
f 692 661 145
f 150 74 741
f 637 345 873
f 132 145 661
f 170 184 142
f 138 495 760
f 138 136 188
f 136 194 188
f 201 87 194
f 270 87 205
f 216 49 210
f 46 216 724
f 198 184 170
f 43 96 907
f 219 39 218
f 45 43 41
f 224 37 219
f 498 224 514
f 86 105 342
f 225 36 514
f 378 107 110
f 80 233 107
f 22 41 43
f 198 217 849
f 41 581 45
f 103 233 76
f 76 40 103
f 222 217 214
f 678 100 40
f 98 41 22
f 366 41 98
f 40 76 678
f 215 4 284
f 215 98 21
f 537 536 92
f 222 234 217
f 904 537 92
f 460 462 30
f 284 471 366
f 222 239 246
f 586 903 759
f 462 28 30
f 246 234 222
f 454 449 28
f 237 391 924
f 560 319 921
f 246 888 252
f 431 471 282
f 455 560 391
f 319 560 241
f 50 238 793
f 50 566 52
f 52 574 55
f 258 263 510
f 244 52 249
f 55 253 2
f 284 792 657
f 303 670 667
f 303 100 674
f 250 249 55
f 273 274 252
f 251 253 574
f 100 303 301
f 301 570 100
f 104 261 257
f 677 100 678
f 273 285 274
f 257 2 253
f 2 257 265
f 250 2 259
f 570 568 40
f 752 292 293
f 294 296 285
f 285 296 274
f 684 497 679
f 277 274 296
f 440 447 442
f 579 489 463
f 692 329 695
f 259 262 267
f 871 736 360
f 262 271 9
f 40 100 570
f 570 567 568
f 203 128 270
f 310 296 294
f 305 296 310
f 87 270 194
f 9 5 262
f 5 272 600
f 276 9 271
f 9 276 11
f 272 11 278
f 302 323 310
f 568 103 40
f 108 615 89
f 280 11 276
f 11 280 12
f 103 568 540
f 278 12 425
f 323 337 328
f 283 12 280
f 12 283 13
f 283 297 289
f 289 13 283
f 540 561 231
f 425 13 424
f 209 288 205
f 291 125 286
f 346 337 323
f 49 304 288
f 173 350 351
f 297 654 314
f 347 158 864
f 304 47 311
f 47 304 49
f 47 46 481
f 360 361 855
f 501 684 146
f 481 311 47
f 46 39 481
f 343 695 329
f 314 289 297
f 289 314 160
f 481 321 308
f 481 39 321
f 325 122 321
f 325 321 37
f 37 321 39
f 333 160 314
f 324 266 333
f 527 107 231
f 84 121 325
f 36 327 498
f 160 333 34
f 327 120 84
f 36 82 371
f 277 393 390
f 689 34 333
f 34 689 340
f 313 34 331
f 266 334 689
f 334 260 341
f 340 335 331
f 107 527 110
f 54 404 405
f 696 14 344
f 61 401 44
f 38 299 407
f 358 14 348
f 14 358 16
f 344 14 352
f 356 704 712
f 352 16 368
f 413 62 417
f 370 16 358
f 16 370 18
f 175 705 134
f 713 115 110
f 371 27 378
f 27 371 82
f 381 18 370
f 18 381 19
f 368 18 375
f 80 378 27
f 19 381 235
f 19 395 23
f 19 23 178
f 202 506 913
f 23 395 24
f 386 24 396
f 398 24 395
f 24 398 26
f 26 398 220
f 26 412 399
f 396 26 399
f 418 399 412
f 164 180 444
f 444 443 164
f 175 173 705
f 685 84 120
f 422 300 415
f 685 121 84
f 172 169 300
f 172 300 422
f 78 80 27
f 226 365 78
f 89 615 114
f 240 485 309
f 134 737 175
f 226 27 82
f 245 459 452
f 187 186 140
f 243 459 245
f 189 187 130
f 581 466 579
f 467 472 637
f 308 122 240
f 138 579 466
f 430 255 463
f 499 435 430
f 453 430 435
f 435 440 439
f 435 499 450
f 243 479 281
f 308 321 122
f 897 438 584
f 439 453 435
f 243 281 893
f 450 440 435
f 480 859 865
f 440 449 447
f 442 439 440
f 450 449 440
f 447 449 454
f 492 488 493
f 127 458 456
f 449 456 28
f 82 225 708
f 454 28 462
f 28 456 30
f 456 450 127
f 30 456 458
f 225 82 36
f 30 464 460
f 506 507 502
f 126 469 125
f 287 508 509
f 207 507 506
f 410 460 32
f 126 306 477
f 460 464 644
f 644 32 460
f 32 644 63
f 475 31 576
f 470 406 32
f 64 63 644
f 306 309 477
f 125 464 458
f 528 795 511
f 516 523 524
f 655 206 63
f 206 655 484
f 206 474 470
f 162 679 497
f 316 322 822
f 313 160 34
f 37 498 325
f 523 316 534
f 497 684 501
f 501 146 505
f 146 512 503
f 505 503 513
f 263 515 510
f 512 120 115
f 503 512 91
f 517 513 503
f 115 713 91
f 458 203 125
f 315 547 548
f 91 512 115
f 547 330 336
f 91 713 88
f 517 88 522
f 552 548 547
f 532 88 713
f 88 532 519
f 552 336 553
f 522 519 541
f 527 231 561
f 127 128 458
f 538 660 692
f 514 36 498
f 224 498 37
f 538 692 695
f 114 626 631
f 553 342 105
f 219 37 39
f 555 660 561
f 127 450 499
f 891 199 824
f 660 555 661
f 218 39 46
f 199 97 886
f 366 98 284
f 22 21 98
f 41 366 581
f 43 232 22
f 907 232 43
f 96 536 907
f 45 463 255
f 45 581 463
f 255 94 96
f 255 96 45
f 94 453 545
f 448 546 545
f 582 593 594
f 595 584 438
f 216 46 47
f 216 47 49
f 551 640 558
f 558 640 569
f 49 288 209
f 793 565 50
f 569 53 558
f 566 50 565
f 209 210 49
f 841 351 350
f 574 52 566
f 578 53 57
f 612 609 423
f 53 578 563
f 575 53 569
f 597 432 211
f 253 55 574
f 57 575 597
f 578 57 592
f 592 583 578
f 627 609 612
f 584 621 628
f 603 589 606
f 602 589 597
f 634 819 627
f 610 606 602
f 835 318 229
f 626 606 58
f 610 624 58
f 58 624 630
f 632 58 630
f 634 884 869
f 58 632 626
f 60 642 632
f 642 60 649
f 60 630 181
f 650 649 643
f 662 652 645
f 656 628 621
f 621 636 656
f 658 659 204
f 64 644 469
f 466 495 138
f 694 377 700
f 468 471 431
f 663 650 65
f 628 656 668
f 679 162 484
f 65 686 663
f 672 673 659
f 686 65 66
f 683 65 651
f 468 431 478
f 683 693 67
f 685 146 684
f 146 685 512
f 696 340 689
f 66 67 701
f 473 495 478
f 66 698 686
f 702 67 693
f 668 675 687
f 701 698 66
f 405 690 54
f 701 67 70
f 54 690 564
f 14 696 348
f 711 70 710
f 699 70 711
f 702 709 710
f 229 318 236
f 657 282 471
f 710 709 742
f 753 756 740
f 756 753 72
f 742 754 72
f 72 754 768
f 72 765 756
f 766 765 770
f 490 193 496
f 130 772 496
f 770 776 766
f 15 719 168
f 87 201 148
f 183 770 768
f 201 194 136
f 422 705 172
f 633 777 338
f 777 633 150
f 408 74 633
f 638 185 408
f 106 730 258
f 688 379 694
f 275 631 118
f 185 692 145
f 197 750 749
f 736 737 738
f 263 258 730
f 738 741 743
f 185 145 143
f 743 741 744
f 744 741 74
f 744 467 879
f 132 140 145
f 123 132 661
f 741 738 150
f 123 540 567
f 773 772 567
f 738 134 150
f 78 27 226
f 238 623 1
f 264 279 779
f 776 150 134
f 134 705 420
f 695 541 538
f 104 599 261
f 365 681 680
f 761 762 763
f 365 678 76
f 76 78 365
f 411 156 420
f 156 411 220
f 541 519 538
f 220 764 156
f 76 233 78
f 80 78 233
f 168 789 387
f 70 699 701
f 398 395 228
f 434 437 445
f 779 780 887
f 428 432 434
f 926 317 706
f 197 749 745
f 213 6 4
f 279 785 780
f 419 427 428
f 148 201 745
f 454 462 419
f 526 782 783
f 381 734 235
f 410 414 419
f 493 769 913
f 511 4 215
f 4 511 213
f 406 414 410
f 208 731 729
f 21 511 215
f 210 728 727
f 794 800 823
f 511 21 529
f 470 474 179
f 724 218 46
f 227 110 115
f 118 280 275
f 219 218 722
f 806 800 794
f 803 804 256
f 716 778 225
f 224 219 720
f 407 86 690
f 356 734 381
f 389 497 380
f 809 795 528
f 810 806 811
f 717 716 514
f 497 501 380
f 317 697 429
f 810 818 821
f 913 771 202
f 341 698 699
f 373 376 159
f 369 177 373
f 341 260 698
f 260 334 266
f 365 226 681
f 517 522 354
f 828 821 818
f 354 362 364
f 569 640 446
f 519 522 88
f 767 828 818
f 266 324 676
f 602 597 211
f 804 834 256
f 121 240 122
f 345 868 918
f 610 602 211
f 169 839 166
f 427 195 211
f 643 179 174
f 683 651 165
f 693 683 171
f 627 884 634
f 324 654 676
f 846 397 841
f 841 397 374
f 362 709 369
f 580 397 846
f 192 188 190
f 192 499 489
f 128 192 190
f 270 205 203
f 205 288 286
f 291 306 126
f 208 148 733
f 288 304 291
f 304 311 306
f 311 481 308
f 286 125 203
f 283 118 297
f 589 599 592
f 283 280 118
f 227 115 120
f 747 805 732
f 707 226 82
f 107 378 80
f 275 114 631
f 118 646 297
f 89 114 275
f 231 233 103
f 87 209 205
f 816 872 870
f 271 108 89
f 248 560 455
f 248 241 560
f 108 271 265
f 566 565 241
f 86 876 690
f 622 244 619
f 517 91 88
f 574 566 248
f 715 662 889
f 244 249 618
f 249 250 614
f 882 465 718
f 253 251 257
f 774 465 882
f 250 259 608
f 883 494 774
f 921 391 560
f 259 267 604
f 54 564 847
f 251 577 583
f 600 267 5
f 89 276 271
f 503 91 517
f 690 405 407
f 275 276 89
f 892 573 582
f 272 278 596
f 248 577 574
f 280 276 275
f 425 588 591
f 425 424 781
f 781 313 572
f 424 313 781
f 572 585 781
f 314 654 324
f 136 197 201
f 313 557 572
f 237 551 558
f 554 331 335
f 334 341 348
f 760 136 138
f 335 344 549
f 341 699 704
f 348 696 334
f 921 319 7
f 358 348 704
f 344 352 544
f 912 582 594
f 903 586 551
f 352 368 543
f 381 370 356
f 368 375 539
f 788 8 3
f 535 375 178
f 221 795 809
f 828 767 562
f 559 833 920
f 921 920 899
f 546 448 898
f 903 922 836
f 38 903 299
f 235 228 395
f 405 669 407
f 546 92 94
f 400 518 520
f 92 546 904
f 639 35 926
f 386 396 525
f 927 926 33
f 928 605 930
f 200 490 298
f 94 545 546
f 96 92 536
f 927 56 852
f 143 472 408
f 220 412 26
f 400 520 521
f 412 220 411
f 109 113 152
f 920 832 559
f 418 412 411
f 152 113 746
f 387 789 786
f 420 418 411
f 746 161 867
f 418 420 422
f 490 773 298
f 496 772 773
f 394 442 445
f 562 767 832
f 739 636 820
f 204 725 658
f 773 490 496
f 725 223 635
f 447 454 428
f 472 186 637
f 215 284 98
f 189 130 496
f 458 464 30
f 410 462 460
f 125 469 464
f 635 247 487
f 487 269 629
f 641 487 629
f 268 269 487
f 269 393 629
f 390 269 268
f 469 126 64
f 349 761 763
f 655 64 477
f 303 674 670
f 290 393 277
f 611 290 928
f 163 474 483
f 928 307 605
f 635 641 648
f 531 605 533
f 677 674 100
f 477 309 485
f 506 202 207
f 679 485 240
f 240 121 684
f 312 912 594
f 684 679 240
f 121 685 684
f 186 187 345
f 503 505 146
f 912 332 892
f 772 130 132
f 685 120 512
f 501 505 159
f 725 648 658
f 505 513 373
f 513 517 364
f 892 847 564
f 110 527 713
f 714 847 339
f 522 541 154
f 51 714 346
f 231 103 540
f 714 51 404
f 541 695 343
f 567 772 123
f 502 500 506
f 578 577 563
f 867 659 673
f 577 578 583
f 597 575 432
f 592 104 583
f 913 492 493
f 845 167 839
f 599 104 592
f 386 178 23
f 599 603 615
f 110 227 378
f 615 261 599
f 706 402 639
f 603 626 114
f 132 123 772
f 624 610 195
f 409 706 317
f 746 673 682
f 114 615 603
f 120 327 227
f 624 414 403
f 691 429 697
f 642 631 632
f 642 118 631
f 429 433 853
f 646 118 642
f 642 649 646
f 152 682 691
f 682 433 691
f 181 643 60
f 654 297 646
f 122 325 121
f 140 130 187
f 421 416 617
f 123 661 555
f 309 308 240
f 698 260 686
f 702 693 177
f 698 701 699
f 672 441 436
f 291 126 125
f 109 691 697
f 143 140 186
f 874 872 816
f 665 441 672
f 188 192 489
f 665 658 653
f 712 704 699
f 653 451 665
f 927 697 317
f 712 740 734
f 648 461 653
f 178 375 19
f 923 880 116
f 641 461 648
f 740 756 748
f 748 758 228
f 926 706 639
f 479 641 482
f 754 742 362
f 354 754 362
f 407 669 38
f 203 458 128
f 482 629 620
f 756 765 758
f 182 754 154
f 128 127 192
f 254 246 252
f 611 382 620
f 764 398 228
f 499 192 127
f 764 766 156
f 766 776 156
f 930 611 928
f 420 156 776
f 140 132 130
f 788 7 8
f 387 166 168
f 420 776 134
f 136 760 197
f 300 387 415
f 750 197 760
f 745 201 197
f 148 208 209
f 733 148 745
f 258 35 106
f 593 533 605
f 731 208 733
f 236 318 910
f 729 210 208
f 728 210 729
f 727 216 210
f 188 489 579
f 929 573 556
f 724 216 727
f 573 929 582
f 723 218 724
f 722 218 723
f 720 219 722
f 717 224 720
f 514 224 717
f 188 579 138
f 876 556 573
f 707 681 226
f 898 904 546
f 472 143 186
f 212 795 221
f 899 391 921
f 854 925 931
f 213 795 212
f 140 143 145
f 404 54 714
f 833 922 924
f 415 387 786
f 143 408 185
f 238 3 793
f 1 3 238
f 31 799 752
f 622 238 244
f 918 799 515
f 380 376 171
f 915 752 357
f 617 476 421
f 619 244 618
f 618 249 616
f 616 249 614
f 636 739 613
f 388 613 10
f 614 250 608
f 357 791 915
f 383 688 388
f 608 259 607
f 571 438 576
f 295 667 666
f 92 96 94
f 607 259 604
f 372 726 700
f 667 295 303
f 367 726 372
f 604 267 601
f 298 295 207
f 923 875 880
f 363 732 367
f 408 467 74
f 148 209 87
f 298 301 295
f 359 747 363
f 601 267 600
f 359 355 755
f 600 272 598
f 598 272 596
f 353 755 355
f 301 298 773
f 596 278 591
f 747 755 751
f 591 278 425
f 588 425 781
f 388 688 813
f 769 771 913
f 763 353 349
f 202 771 200
f 506 500 913
f 74 467 744
f 773 570 301
f 82 708 707
f 320 647 326
f 500 492 913
f 331 554 557
f 242 910 320
f 344 335 340
f 910 908 647
f 554 335 550
f 239 222 703
f 549 550 335
f 549 344 544
f 166 167 168
f 544 352 543
f 543 368 542
f 17 15 167
f 17 845 157
f 907 536 919
f 157 850 155
f 155 850 153
f 542 368 539
f 150 633 74
f 153 854 151
f 151 854 149
f 149 858 147
f 147 862 144
f 539 375 535
f 759 903 38
f 530 535 178
f 144 862 141
f 141 866 139
f 139 866 137
f 530 386 525
f 137 870 135
f 525 396 521
f 135 870 872
f 133 872 131
f 131 874 129
f 129 923 117
f 923 874 875
f 170 119 902
f 521 396 400
f 20 932 101
f 99 101 932
f 99 886 97
f 95 97 199
f 95 891 93
f 93 896 90
f 518 400 786
f 90 896 85
f 85 901 83
f 83 905 81
f 169 166 300
f 81 905 79
f 77 79 796
f 77 909 75
f 439 394 545
f 75 914 73
f 73 914 71
f 71 916 69
f 442 394 439
f 468 466 366
f 442 447 434
f 7 562 920
f 794 534 811
f 924 899 833
f 434 447 428
f 428 454 419
f 419 462 410
f 38 898 759
f 902 111 897
f 466 468 495
f 526 524 534
f 25 59 56
f 96 43 45
f 895 401 61
f 182 343 338
f 483 389 163
f 483 162 389
f 897 59 25
f 883 894 775
f 776 777 150
f 59 897 111
f 380 384 389
f 774 882 893
f 111 902 119
f 778 708 225
f 501 159 380
f 167 166 839
f 159 505 373
f 176 191 867
f 373 513 369
f 364 369 513
f 850 890 925
f 354 364 517
f 354 522 154
f 177 369 709
f 154 541 343
f 446 445 437
f 376 380 159
f 204 223 725
f 217 198 214
f 214 703 222
f 437 569 446
f 610 211 195
f 414 624 195
f 403 630 624
f 889 718 715
f 160 313 424
f 181 630 403
f 888 246 239
f 179 643 181
f 174 650 643
f 651 650 174
f 163 384 165
f 487 247 268
f 165 651 163
f 171 683 165
f 174 474 163
f 557 313 331
f 475 515 799
f 376 693 171
f 285 273 757
f 177 693 376
f 627 885 884
f 174 179 474
f 509 508 516
f 294 302 310
f 709 702 177
f 709 362 742
f 154 754 354
f 182 338 183
f 780 785 803
f 183 768 182
f 423 413 881
f 183 338 777
f 638 338 343
f 633 638 408
f 590 401 895
f 692 185 329
f 190 188 194
f 515 475 25
f 270 190 194
f 190 270 128
f 195 427 414
f 7 788 562
f 915 878 571
f 877 595 438
f 203 205 286
f 44 48 61
f 474 206 483
f 210 209 208
f 61 62 895
f 413 895 62
f 211 432 427
f 172 42 169
f 398 764 220
f 515 263 918
f 437 575 569
f 228 758 764
f 124 885 426
f 175 871 350
f 84 498 327
f 225 514 716
f 327 371 227
f 918 263 730
f 898 448 759
f 371 327 36
f 839 374 890
f 227 371 378
f 451 441 665
f 228 235 748
f 444 180 457
f 233 231 107
f 187 868 345
f 759 448 586
f 189 292 868
f 734 748 235
f 653 461 826
f 924 922 237
f 292 193 196
f 446 671 394
f 461 641 479
f 922 551 237
f 391 237 455
f 482 641 629
f 918 868 799
f 196 200 293
f 771 293 200
f 558 455 237
f 281 287 894
f 894 893 281
f 248 566 241
f 257 251 104
f 255 430 453
f 257 261 265
f 509 775 287
f 260 266 676
f 509 516 524
f 265 261 108
f 523 516 531
f 322 316 523
f 273 252 888
f 265 271 262
f 811 534 316
f 316 315 811
f 676 686 260
f 366 466 581
f 478 495 468
f 330 547 315
f 547 336 552
f 366 471 468
f 760 495 473
f 657 471 284
f 336 342 553
f 553 900 552
f 832 900 553
f 865 878 791
f 792 284 4
f 31 571 576
f 286 288 291
f 438 571 877
f 906 864 863
f 4 790 792
f 8 7 319
f 303 295 301
f 291 304 306
f 570 773 567
f 739 617 392
f 617 416 392
f 306 311 309
f 309 311 308
f 170 628 668
f 613 739 10
f 739 392 10
f 656 675 668
f 656 815 675
f 680 678 365
f 813 613 388
f 324 333 314
f 687 198 668
f 379 688 383
f 295 666 207
f 815 656 636
f 377 694 379
f 325 498 84
f 689 333 266
f 334 696 689
f 700 377 372
f 861 834 860
f 703 721 239
f 732 726 367
f 834 861 256
f 348 341 704
f 747 732 363
f 356 358 704
f 735 888 721
f 370 358 356
f 735 264 757
f 735 273 888
f 755 747 359
f 369 364 362
f 353 763 755
f 647 761 326
f 761 349 326
f 376 373 177
f 779 757 264
f 780 779 279
f 384 380 171
f 235 395 19
f 736 871 737
f 562 788 917
f 910 647 320
f 785 804 803
f 414 406 403
f 256 323 803
f 813 675 815
f 415 786 400
f 427 419 414
f 422 420 705
f 432 428 427
f 430 489 499
f 587 580 590
f 437 434 432
f 445 442 434
f 446 394 445
f 671 586 448
f 819 609 627
f 456 449 450
f 455 563 248
f 865 791 769
f 581 579 463
f 645 652 817
f 644 464 469
f 652 662 715
f 874 923 129
f 715 664 652
f 694 812 688
f 477 64 126
f 750 760 473
f 485 655 477
f 465 715 718
f 507 207 666
f 465 774 494
f 865 486 480
f 812 675 813
f 485 484 655
f 207 202 298
f 883 504 825
f 493 865 769
f 783 782 504
f 679 484 485
f 202 200 298
f 196 490 200
f 196 193 490
f 877 859 476
f 302 803 323
f 189 496 193
f 814 806 810
f 168 719 789
f 821 814 810
f 391 899 924
f 713 527 532
f 467 408 472
f 302 294 887
f 786 787 518
f 538 519 532
f 561 532 527
f 926 35 33
f 538 532 660
f 540 555 561
f 551 586 640
f 319 241 565
f 660 532 561
f 113 161 746
f 161 176 867
f 8 319 565
f 223 247 635
f 781 585 784
f 620 629 393
f 887 780 302
f 269 390 393
f 671 640 586
f 781 784 588
f 599 589 603
f 393 290 611
f 626 603 606
f 928 290 305
f 623 238 622
f 625 1 623
f 774 893 894
f 312 332 912
f 626 632 631
f 332 339 847
f 847 892 332
f 757 887 285
f 847 714 54
f 793 3 8
f 732 807 726
f 858 931 857
f 675 812 687
f 168 167 15
f 273 735 757
f 920 921 7
f 402 385 639
f 167 845 17
f 638 633 338
f 646 649 663
f 650 663 649
f 845 850 157
f 888 239 721
f 663 654 646
f 706 409 48
f 850 854 153
f 676 654 663
f 429 409 317
f 661 692 660
f 854 858 149
f 676 663 686
f 858 862 147
f 433 429 691
f 678 680 677
f 699 711 712
f 712 734 356
f 711 710 753
f 862 866 141
f 712 711 740
f 682 436 827
f 734 740 748
f 866 870 137
f 214 687 808
f 748 756 758
f 664 816 652
f 872 133 135
f 198 687 214
f 754 182 768
f 872 874 131
f 665 659 658
f 758 765 766
f 658 648 653
f 766 764 758
f 776 770 777
f 668 198 170
f 117 923 116
f 787 786 789
f 929 330 822
f 533 822 322
f 556 336 330
f 531 322 523
f 899 920 833
f 662 444 889
f 346 323 256
f 491 482 620
f 116 880 911
f 911 20 116
f 382 491 620
f 911 932 20
f 932 886 99
f 645 443 662
f 930 382 611
f 382 930 516
f 886 824 199
f 605 531 930
f 491 508 848
f 628 170 902
f 256 347 346
f 482 848 479
f 891 896 93
f 347 256 861
f 820 617 739
f 866 819 817
f 605 594 593
f 896 901 85
f 929 593 582
f 612 881 885
f 901 905 83
f 826 451 653
f 451 457 180
f 672 659 665
f 441 180 851
f 79 905 796
f 436 673 672
f 436 851 827
f 909 914 75
f 682 673 436
f 914 916 71
f 584 902 897
f 876 86 342
f 69 916 1
f 829 433 827
f 700 808 694
f 788 3 916
f 853 829 417
f 409 61 48
f 402 48 855
f 870 817 816
f 855 29 360
f 874 816 664
f 385 361 102
f 830 880 875
f 576 897 25
f 819 634 817
f 68 69 1
f 106 856 730
f 743 736 738
f 910 242 236
f 862 857 819
f 744 879 102
f 880 830 831
f 840 528 843
f 401 846 44
f 803 302 780
f 769 791 357
f 878 915 791
f 831 911 880
f 918 873 345
f 576 25 475
f 799 31 475
f 841 29 846
f 879 856 102
f 106 639 385
f 573 564 876
f 911 831 802
f 342 556 876
f 337 339 332
f 25 510 515
f 350 29 841
f 564 573 892
f 892 582 912
f 510 25 56
f 864 906 837
f 312 328 337
f 929 822 593
f 33 35 258
f 871 360 29
f 840 860 835
f 864 158 863
f 29 855 44
f 916 914 917
f 808 687 812
f 594 307 312
f 307 305 328
f 916 917 788
f 33 56 927
f 840 835 809
f 307 594 605
f 736 743 361
f 531 516 930
f 290 277 305
f 852 109 927
f 318 835 860
f 21 844 529
f 852 59 112
f 620 393 611
f 102 743 744
f 112 113 852
f 751 763 762
f 647 785 762
f 805 747 751
f 252 268 254
f 230 835 229
f 487 641 635
f 637 879 467
f 124 851 164
f 809 230 221
f 161 142 176
f 807 732 805
f 247 234 254
f 230 809 835
f 808 700 807
f 345 637 186
f 176 184 191
f 812 694 808
f 204 849 223
f 849 204 191
f 813 688 812
f 635 648 725
f 849 184 198
f 815 613 813
f 815 636 613
f 217 223 849
f 659 191 204
f 217 234 223
f 191 184 849
f 859 480 421
f 795 213 511
f 245 461 243
f 878 865 859
f 802 886 932
f 191 659 867
f 452 718 889
f 223 234 247
f 176 142 184
f 246 254 234
f 865 493 486
f 293 771 357
f 268 247 254
f 771 769 357
f 805 264 735
f 268 252 390
f 161 113 112
f 486 493 488
f 390 252 274
f 867 673 746
f 264 751 279
f 274 277 390
f 746 682 152
f 281 848 287
f 827 433 682
f 808 703 214
f 152 691 109
f 109 852 113
f 476 859 421
f 296 305 277
f 476 595 877
f 305 307 928
f 196 293 292
f 595 476 820
f 726 807 700
f 752 293 357
f 307 328 312
f 310 328 305
f 56 59 852
f 292 752 799
f 328 310 323
f 886 825 824
f 312 337 332
f 807 703 808
f 891 824 782
f 193 292 189
f 844 21 22
f 429 853 409
f 109 697 927
f 56 33 510
f 105 559 553
f 339 337 346
f 346 714 339
f 51 346 347
f 317 926 927
f 564 690 876
f 863 844 232
f 799 868 292
f 510 33 258
f 843 528 529
f 844 863 842
f 861 840 843
f 861 158 347
f 861 860 840
f 752 915 31
f 158 843 842
f 843 158 861
f 842 529 844
f 919 837 906
f 906 232 907
f 809 528 840
f 730 873 918
f 730 856 873
f 873 856 879
f 856 106 385
f 817 634 645
f 837 919 838
f 817 652 816
f 919 906 907
f 919 536 537
f 743 102 361
f 904 669 838
f 898 669 904
f 669 898 38
f 703 807 721
f 405 404 838
f 669 405 838
f 922 833 836
f 294 285 887
f 361 385 402
f 869 645 634
f 830 875 664
f 916 3 1
f 864 51 347
f 402 855 361
f 909 801 914
f 397 890 374
f 48 44 855
f 796 909 77
f 879 637 873
f 901 798 905
f 580 925 397
f 48 402 706
f 896 800 901
f 891 823 896
f 409 62 61
f 853 62 409
f 881 413 417
f 417 62 853
f 86 407 299
f 459 893 882
f 199 891 95
f 830 465 831
f 829 426 417
f 426 829 124
f 426 881 417
f 124 829 827
f 433 829 853
f 886 802 825
f 774 894 883
f 851 124 827
f 164 884 124
f 441 851 436
f 180 164 851
f 443 869 164
f 911 802 932
f 715 830 664
f 874 664 875
f 736 361 360
f 451 180 441
f 457 452 889
f 889 444 457
f 866 817 870
f 106 35 639
f 459 718 452
f 826 452 457
f 452 826 245
f 451 826 457
f 862 819 866
f 858 857 862
f 461 245 826
f 459 882 718
f 479 243 461
f 854 931 858
f 850 925 854
f 846 401 580
f 845 890 850
f 491 848 482
f 848 281 479
f 825 494 883
f 382 508 491
f 900 832 767
f 508 287 848
f 896 823 800
f 839 890 845
f 504 782 824
f 42 374 839
f 516 508 382
f 908 910 318
f 534 524 523
f 552 818 548
f 42 172 173
f 901 800 798
f 818 552 900
f 533 322 531
f 871 175 737
f 868 187 189
f 22 232 844
f 593 822 533
f 822 315 316
f 929 556 330
f 330 315 822
f 838 919 537
f 904 838 537
f 318 860 834
f 908 318 834
f 465 830 715
f 556 342 336
f 105 836 559
f 833 559 836
f 29 44 846
f 908 834 804
f 562 917 828
f 299 836 105
f 818 900 767
f 832 553 559
f 562 832 920
f 811 315 548
f 828 801 821
f 801 828 917
f 821 797 814
f 836 299 903
f 401 590 580
f 797 821 801
f 905 798 796
f 796 814 797
f 810 548 818
f 814 798 806
f 798 814 796
f 909 796 797
f 811 548 810
f 413 587 590
f 404 51 837
f 51 864 837
f 837 838 404
f 909 797 801
f 529 842 843
f 158 842 863
f 232 906 863
f 800 806 798
f 529 528 511
f 794 811 806
f 785 908 804
f 785 647 908
f 859 877 878
f 526 534 794
f 877 571 878
f 571 31 915
f 173 351 42
f 524 783 509
f 350 173 175
f 29 350 871
f 823 526 794
f 783 524 526
f 526 823 782
f 42 351 374
f 841 374 351
f 504 775 783
f 509 783 775
f 782 823 891
f 885 124 884
f 887 757 779
f 914 801 917
f 426 885 881
f 890 397 925
f 825 504 824
f 775 504 883
f 925 587 931
f 587 925 580
f 802 494 825
f 785 279 762
f 494 831 465
f 831 494 802
f 894 287 775
f 590 895 413
f 438 897 576
f 884 164 869
f 762 279 751
f 423 931 587
f 587 413 423
f 931 423 857
f 762 761 647
f 617 820 476
f 595 820 621
f 751 755 763
f 893 459 243
f 751 264 805
f 609 857 423
f 423 881 612
f 662 443 444
f 721 805 735
f 621 584 595
f 857 609 819
f 443 645 869
f 612 885 627
f 636 621 820
f 628 902 584
f 805 721 807
