# avbd fit, rung k30-i32-s300-b1e-1 of Gate 6d (body space)
v -0.020202674 0.591083467 -0.000926426
v -0.113448165 0.583105445 0.077108711
v -0.016824026 0.599867463 0.014825781
v 0.001288335 0.933788955 0.073057398
v -0.169652075 0.564855933 0.060090762
v -0.002514002 0.952213585 0.083470598
v -0.016245937 0.632938862 -0.001156068
v -0.016453099 0.616306663 0.006638278
v -0.167907536 0.586612284 0.055315785
v 0.151527405 0.951668620 -0.094087102
v -0.193015173 0.584159255 0.054643236
v -0.187152639 0.583136082 0.029848030
v -0.197534591 0.585391819 0.010468343
v -0.168547422 0.586573005 -0.081838772
v 0.011758962 0.573745131 -0.006394104
v -0.149875432 0.578652978 -0.069467559
v 0.032452650 0.573076308 -0.007519708
v -0.129880935 0.578660727 -0.080692925
v -0.112153128 0.585719883 -0.094588920
v 0.187478527 0.529268861 0.011315016
v 0.000368814 0.893883228 0.068638578
v -0.000459312 0.874113917 0.065555923
v -0.102294192 0.585754812 -0.074827537
v -0.087261446 0.598646700 -0.067676999
v 0.096393496 0.819062829 -0.138729215
v -0.084287420 0.608012736 -0.089035608
v -0.142976195 0.906478286 -0.129735380
v -0.150188580 0.793852925 0.074272752
v 0.032919280 0.681158185 -0.063565016
v -0.168200150 0.806771159 0.073560528
v 0.069337189 0.854776084 -0.152059302
v -0.201820850 0.778410256 0.045509204
v 0.087552592 0.777048349 -0.115075193
v -0.186021820 0.583124280 -0.039055612
v 0.069968298 0.765878677 -0.106813647
v -0.165181190 0.908953071 -0.094836496
v -0.172895014 0.898132026 -0.061364759
v 0.010955493 0.748649955 0.014479896
v -0.176948994 0.904992878 -0.038167249
v -0.081047781 0.905500710 -0.155591100
v -0.033095017 0.879226506 0.068319038
v 0.009470353 0.638859630 -0.024772961
v -0.021905230 0.854714870 0.063625671
v 0.050089419 0.681536853 -0.086959146
v -0.046768032 0.857815564 0.060483627
v -0.189874858 0.917920291 -0.022233564
v -0.192112833 0.898133159 -0.003894446
v 0.063016668 0.705817461 -0.093420252
v -0.172634304 0.896010041 0.010953456
v -0.058147572 0.594673038 0.022786500
v 0.061518945 0.820607781 0.062407095
v -0.058516432 0.589754760 0.050464489
v -0.079334557 0.690284371 0.063819155
v 0.053972572 0.773773372 0.060280837
v -0.085983977 0.585869491 0.055953108
v 0.101426341 0.791071177 -0.130175099
v -0.105205700 0.683959186 0.079097159
v -0.183400095 0.691271484 0.064382292
v 0.117577836 0.809733510 -0.123273984
v -0.205984905 0.689505935 0.029297432
v 0.076131031 0.685961843 -0.090005882
v 0.094731554 0.678193927 -0.104192838
v -0.210442424 0.791063428 0.023784097
v -0.205170125 0.815221965 0.022258608
v -0.212820321 0.689652801 -0.041111387
v -0.190836474 0.685125232 -0.059912037
v -0.178972989 0.699634433 -0.077786826
v -0.015961830 0.607572138 -0.009109396
v 0.010953180 0.602387071 -0.008720473
v -0.163079888 0.684704125 -0.096928678
v 0.031593304 0.591014564 -0.006720836
v -0.113301240 0.697855473 -0.124626383
v 0.049225189 0.577143073 -0.002127993
v -0.025902774 0.751809657 -0.076844007
v 0.058228232 0.557041764 0.004210404
v -0.102060273 0.907522798 -0.147188067
v 0.066653989 0.545816660 0.021657433
v -0.122003719 0.909348190 -0.138456807
v 0.077180378 0.538866282 0.038081318
v -0.130952418 0.890495181 -0.137433723
v 0.092703566 0.534992397 0.050523806
v -0.148697600 0.924799919 -0.113769151
v 0.109848261 0.532106936 0.060083490
v -0.192133576 0.866637230 -0.090091169
v 0.128091305 0.530437529 0.065201178
v 0.038214620 0.727391124 0.040452473
v -0.163565710 0.897490144 0.050763149
v -0.131160513 0.805229962 -0.129935533
v -0.166548684 0.622607470 0.058103770
v 0.145186633 0.531077981 0.059574194
v -0.146588057 0.814570427 -0.113416597
v -0.022778857 0.808469296 0.039469004
v 0.164010569 0.531768441 0.061616987
v -0.043685608 0.808680415 0.052917771
v 0.156502992 0.539502501 0.047219828
v -0.030038068 0.832123578 0.051798664
v 0.174376279 0.534301400 0.043817375
v -0.020370616 0.900500476 0.073106706
v 0.191275537 0.531260431 0.033319764
v -0.066763997 0.925710320 -0.152769595
v 0.175233215 0.533803523 0.025849309
v 0.020794395 0.755978107 -0.071466170
v -0.093331881 0.884240806 -0.153272420
v -0.114863977 0.636591911 0.079509005
v 0.033569083 0.704517543 0.028721321
v 0.050513525 0.768622637 -0.100331381
v -0.126853868 0.869488358 -0.139867350
v -0.145585418 0.618341684 0.063167557
v 0.122461960 0.758473098 -0.113167509
v -0.141775727 0.855356216 -0.128865927
v 0.133716434 0.823824525 -0.114150845
v 0.142258793 0.798940420 -0.112366214
v 0.141910180 0.772058964 -0.112939313
v -0.173631817 0.644672573 0.059501894
v -0.149201840 0.841414630 -0.109456480
v 0.194942504 0.526202977 -0.006774922
v 0.194684044 0.526528776 -0.025074476
v -0.192755148 0.634963632 0.028806394
v 0.154603958 0.821385860 -0.110835709
v -0.170922890 0.853192031 -0.098134622
v -0.190297917 0.846610546 -0.071080580
v -0.192170814 0.861746967 -0.053816091
v -0.056110777 0.846137404 -0.144445002
v 0.148171514 0.665427625 -0.100865856
v -0.183037311 0.841752052 0.048709501
v -0.197261810 0.837791622 0.023319382
v -0.132598609 0.832819283 0.068976834
v -0.145709082 0.853734493 0.071262136
v 0.186999649 0.528733015 -0.043229606
v -0.025343239 0.839487433 -0.126741529
v 0.177085593 0.532056212 -0.058692269
v -0.038325988 0.826347709 -0.139267340
v 0.159724817 0.534354150 -0.070821986
v -0.029935058 0.690974355 -0.064147606
v 0.178937525 0.536418676 -0.076041535
v -0.120984510 0.903123558 0.044726420
v 0.163464069 0.537779450 -0.087124906
v -0.098949306 0.901187241 0.057377517
v 0.145072639 0.535516381 -0.080561653
v -0.027259957 0.821328521 -0.111768603
v 0.135990530 0.537168264 -0.097388998
v 0.169654757 0.805545926 -0.104991138
v -0.020499023 0.798959076 -0.105544724
v 0.123158634 0.541810036 -0.087823197
v -0.042129125 0.807214141 -0.122506127
v -0.187164396 0.809681892 -0.097394586
v 0.117692068 0.550698280 -0.074133366
v -0.163322777 0.918411076 0.034840889
v 0.101183414 0.549898684 -0.067312703
v -0.028909620 0.719279289 -0.079869628
v 0.082492381 0.550022721 -0.061849475
v 0.140785694 0.748384833 -0.110479131
v 0.066464156 0.552650571 -0.049886670
v -0.102489270 0.756807089 -0.127152473
v 0.058671374 0.560507894 -0.033108409
v -0.065923579 0.660481751 -0.094679967
v 0.049752105 0.567756236 -0.017459909
v 0.056374766 0.864352107 0.060613442
v -0.188504085 0.769521594 -0.087139994
v -0.208034709 0.587314606 -0.025966814
v 0.161570221 0.780632854 -0.104917452
v -0.215844482 0.788985133 -0.038481779
v -0.221072644 0.744965196 -0.029287990
v 0.155738741 0.657028079 -0.075973243
v -0.209762245 0.730429769 -0.047897816
v -0.015245738 0.606257319 -0.027247623
v 0.016129056 0.589889944 -0.023613203
v -0.015530599 0.588600636 -0.018518232
v -0.016443709 0.625939012 -0.022943627
v 0.177814558 0.834281802 -0.104320452
v -0.197211474 0.737180769 -0.065725103
v -0.015560727 0.645396829 -0.026352292
v -0.015315826 0.664306402 -0.032006107
v -0.219031453 0.725938916 -0.007883234
v -0.014709136 0.683414400 -0.037283532
v 0.180602238 0.787377417 -0.096598864
v -0.170425981 0.734986186 -0.098160684
v -0.108578622 0.563375354 -0.074617758
v -0.213020399 0.736161590 0.021910431
v 0.178223386 0.674082160 -0.072906271
v -0.207758859 0.713008761 0.032595612
v -0.097837448 0.741092324 -0.107417680
v -0.081758671 0.723703504 -0.101192772
v 0.190430149 0.808922291 -0.090012930
v -0.043841057 0.788327992 -0.105857275
v -0.006422608 0.817008317 -0.090282746
v -0.004819049 0.828402221 -0.107119381
v -0.110247314 0.877208352 0.053698473
v -0.004085957 0.840330482 -0.122292973
v -0.134266958 0.869483352 0.059465189
v 0.193944633 0.778887868 -0.081004754
v -0.119209349 0.852639019 0.062803105
v -0.001840467 0.858119786 -0.128079802
v -0.139280319 0.890337586 0.052485120
v -0.165465102 0.724064112 0.069878720
v -0.001238212 0.876654983 -0.131900772
v -0.129989550 0.925382912 0.038651496
v 0.194393158 0.834686935 -0.074652858
v 0.171121851 0.559260905 0.040727794
v -0.000127902 0.895468891 -0.131934583
v -0.145754308 0.914195657 0.047825824
v 0.000084739 0.914712906 -0.131232217
v -0.167651683 0.858116329 0.062666133
v 0.204165787 0.768629432 -0.060705472
v -0.159041062 0.875933528 0.045351684
v -0.216694623 0.780556917 0.001651506
v 0.000179034 0.934233665 -0.128412753
v -0.141666159 0.917986989 0.026882466
v -0.148214206 0.893791318 0.028538773
v -0.156292200 0.912513554 0.006429799
v -0.144765154 0.716302276 0.080786988
v 0.038249932 0.954762936 0.074953131
v 0.019390319 0.954701543 0.078840628
v 0.206783369 0.852400899 -0.052440744
v 0.000959442 0.913946807 0.070452362
v -0.177734226 0.920010209 -0.002446810
v 0.210697502 0.820568860 -0.050723426
v -0.173003197 0.928350747 -0.032853186
v -0.171249166 0.923921287 -0.053642370
v -0.079449944 0.634798348 -0.094119273
v 0.057228304 0.954279244 0.070366472
v 0.207440332 0.836406350 -0.030392904
v 0.216397673 0.786386073 -0.042252474
v -0.166504264 0.919537365 -0.074461490
v -0.158626139 0.933456779 -0.095082708
v -0.130783990 0.929817557 -0.129902586
v -0.155383617 0.867639840 -0.110989511
v -0.109678887 0.634950697 -0.087526947
v 0.093633495 0.950689793 0.058445044
v 0.076059408 0.952968001 0.065686591
v -0.105020009 0.864036679 -0.148009628
v -0.001539182 0.854906082 0.060251851
v -0.113159455 0.887223125 -0.145613313
v 0.215825438 0.809482932 -0.025701484
v -0.112969004 0.615741551 -0.102235951
v 0.108407810 0.947815061 0.047958262
v -0.031621903 0.691545010 0.023879368
v -0.039146051 0.575571060 0.014876442
v 0.201395318 0.847794652 -0.011471758
v -0.205472440 0.839578509 -0.045355339
v -0.047928307 0.632177472 0.026477039
v 0.123360015 0.945484340 0.038497992
v 0.211083919 0.675093293 -0.006192845
v -0.066579923 0.571567178 0.028947953
v 0.214888662 0.674289048 -0.026839312
v 0.207550719 0.825165391 -0.006610656
v 0.217361137 0.782519519 -0.013808752
v -0.055169307 0.642697930 0.048512127
v -0.069222212 0.564604104 0.059407271
v -0.100093447 0.562408984 0.062090792
v -0.095998257 0.626453936 0.066656150
v 0.213801533 0.812959015 0.019674156
v -0.097297952 0.603968024 0.066533320
v 0.212896064 0.802638829 -0.002821803
v -0.058120854 0.833771348 0.059017170
v 0.104644991 0.853717446 0.072884366
v -0.114682958 0.611878574 0.078783110
v 0.067816153 0.786022782 -0.107153021
v -0.125100732 0.555990875 0.073321894
v -0.186346024 0.644226313 -0.053134304
v -0.134209082 0.625498176 0.078754701
v -0.142569751 0.577562511 0.062931210
v 0.061122380 0.805129230 -0.111040257
v 0.176372349 0.870914340 0.020326830
v -0.135313570 0.600777268 0.073589526
v -0.187714621 0.625135064 -0.040889286
v -0.149587005 0.553711653 0.060087543
v 0.216131762 0.784816742 0.011909618
v 0.212506562 0.765338361 0.025108155
v -0.155007988 0.878228545 0.066837162
v -0.154015273 0.601600945 0.056968261
v -0.174160093 0.570199013 0.038912676
v 0.200847700 0.833628356 0.030971874
v 0.197943836 0.807714105 0.043013684
v -0.192691654 0.625978947 0.057847727
v -0.180200934 0.604475141 0.065044448
v 0.192754120 0.783144593 0.056974243
v -0.193252355 0.559031487 0.041193761
v 0.158999234 0.880439758 0.040818047
v -0.181687683 0.607742608 0.040685121
v 0.206003547 0.669114470 0.015956730
v -0.054854054 0.954184055 0.070899673
v -0.195260987 0.607504964 0.019652303
v -0.024331102 0.927738070 0.076316454
v 0.184027582 0.826595604 0.048211884
v -0.173365355 0.861526847 0.041418400
v 0.200629830 0.662008405 0.039443042
v -0.168906242 0.876110077 0.024334541
v -0.198947504 0.600242555 -0.004777528
v 0.185129821 0.760672927 0.065607443
v -0.185341537 0.857549489 0.023903077
v 0.017743865 0.851849437 -0.141678423
v 0.019871857 0.878888726 -0.148578644
v 0.169714257 0.824424446 0.065431967
v -0.023880564 0.933351815 -0.144542381
v 0.179865733 0.804035008 0.063399926
v -0.200827926 0.625435233 0.001763820
v -0.016015278 0.907905400 -0.147317410
v 0.021472342 0.727526367 0.019511271
v -0.033465914 0.619829834 -0.034608513
v -0.039888494 0.912042499 -0.148201317
v 0.152966022 0.837506771 0.073715873
v -0.047730349 0.933730900 -0.141899094
v -0.190411776 0.878023028 0.011552699
v 0.166581094 0.779945552 0.073938109
v -0.203100532 0.856008828 0.007334801
v 0.146082565 0.760446489 0.083322629
v -0.199992403 0.866465747 -0.033117190
v -0.210056022 0.849211097 -0.016947802
v 0.156091601 0.809977531 0.077672169
v -0.201971799 0.874179542 -0.009824516
v 0.122555807 0.771496952 0.084451981
v -0.200255424 0.561517835 -0.035884999
v -0.213655263 0.611532092 -0.016406622
v 0.098994754 0.662984490 0.073508590
v 0.122771010 0.660065293 0.080854267
v 0.094669931 0.731561065 -0.115818933
v 0.105226085 0.918273807 0.053878885
v -0.035439603 0.634573042 0.007185204
v 0.126880318 0.945588887 0.055573292
v -0.182786554 0.881689250 -0.045827057
v 0.133669391 0.682115257 0.081174061
v 0.125868917 0.824672043 0.079386964
v -0.205421954 0.625066876 -0.029091746
v -0.177556798 0.873842537 -0.070503913
v 0.139233723 0.943759322 0.044567719
v -0.169830129 0.881552517 -0.094241381
v 0.139266565 0.790549099 0.082856841
v -0.065217584 0.783292234 -0.104235627
v 0.086749971 0.688019931 0.069758087
v -0.176766664 0.562942386 -0.049424943
v 0.098745093 0.774834752 0.080896281
v -0.195962802 0.605086565 -0.032479189
v -0.179046303 0.621906996 -0.062958613
v -0.159479201 0.563255668 -0.064575501
v 0.062640347 0.685039639 0.059107769
v 0.112150632 0.798153460 0.083353564
v -0.067497335 0.742903531 -0.103762761
v 0.088749394 0.793955624 0.078493372
v -0.167832285 0.584711432 -0.059389748
v -0.184846014 0.639025509 -0.080303565
v 0.049115937 0.704969645 0.050014973
v -0.084047876 0.764847815 -0.105964556
v -0.183327466 0.565896571 -0.071465015
v 0.016240878 0.816648304 -0.099746928
v 0.090809144 0.822179139 0.079255298
v 0.074374065 0.846164882 0.069593847
v -0.176088974 0.613658786 -0.085074291
v 0.143367559 0.940820038 0.026667759
v 0.015918244 0.675019324 -0.039740026
v 0.018897982 0.655315161 -0.033373497
v -0.159447268 0.560824335 -0.084453784
v 0.150817186 0.937926948 0.010226474
v -0.126879245 0.756352901 -0.125604302
v 0.160153747 0.936086297 -0.005408772
v -0.140032813 0.621725678 -0.074767917
v 0.045348532 0.888822258 -0.147805095
v -0.158851773 0.606016874 -0.069403730
v 0.166340798 0.947044373 0.007684019
v 0.026022131 0.705715775 -0.063165396
v 0.026360262 0.728818417 -0.074911751
v -0.137275308 0.736829519 -0.113800064
v 0.173145577 0.947309852 -0.010651535
v -0.145592496 0.760112226 -0.113215283
v -0.109860837 0.929188907 -0.135341242
v -0.047172002 0.906832993 0.075976580
v 0.169407278 0.943368256 -0.028644145
v -0.137024209 0.553710282 -0.075085282
v -0.151965544 0.748976111 -0.096364237
v -0.139621541 0.598097980 -0.073438540
v -0.154535010 0.894876122 -0.111475669
v 0.174256191 0.941883206 -0.045210149
v -0.172759637 0.759507656 -0.098019540
v 0.033421464 0.634662330 -0.036876254
v -0.120628193 0.557863116 -0.091276400
v -0.187079400 0.747050107 -0.084260650
v 0.179063812 0.939000487 -0.063746989
v -0.145995632 0.879991233 -0.128652364
v 0.169302329 0.934468865 -0.078466162
v -0.199986622 0.765697300 -0.067762405
v -0.128990009 0.604594350 -0.089721680
v 0.191088378 0.707612455 0.061932314
v 0.163201362 0.946163297 -0.058623381
v -0.208583236 0.750045836 -0.051824499
v 0.036535423 0.748993874 -0.091390729
v -0.089651011 0.572188318 -0.062667146
v -0.034452591 0.594511092 -0.034116097
v 0.160102099 0.950031757 -0.077116221
v -0.213780761 0.769181848 -0.045229509
v 0.207255334 0.785971880 0.035251550
v -0.029072514 0.671398044 0.014952655
v 0.140759215 0.952751160 -0.109684147
v 0.202948019 0.756966949 0.047276594
v -0.068326257 0.765102208 0.068198800
v -0.105491497 0.608077347 -0.082458816
v -0.081791051 0.578994691 -0.085727461
v 0.045799471 0.631621718 -0.061226200
v -0.091351397 0.624933183 -0.077163056
v -0.067404538 0.602880001 -0.071210101
v -0.068440989 0.579374015 -0.060370523
v 0.064971998 0.661768973 -0.087649211
v 0.047600932 0.726127267 -0.094237365
v -0.201872855 0.727950513 0.050590266
v 0.044943366 0.796122015 0.053205647
v 0.033904210 0.773195326 0.042602509
v -0.203357771 0.753204703 0.047693919
v 0.028203193 0.749892831 0.031791575
v -0.023435520 0.771665573 -0.096139126
v 0.089389361 0.704866290 -0.107657470
v -0.187746078 0.767851949 0.065826163
v -0.066476956 0.644401133 -0.078265868
v -0.070703611 0.623628259 -0.078351974
v 0.092343949 0.647172332 -0.099977784
v -0.183952227 0.742093325 0.069137812
v -0.051782094 0.606975853 -0.049960203
v 0.125253573 0.951275468 -0.117778145
v 0.113739073 0.666744649 -0.105046555
v -0.054831266 0.628799438 -0.065673694
v -0.162389085 0.759824991 0.075457692
v -0.047560669 0.662096858 -0.070750229
v 0.110627949 0.951148689 -0.129257202
v -0.038070735 0.639017701 -0.049200859
v 0.100076534 0.617786467 -0.098937780
v -0.195539713 0.576162815 -0.009852042
v -0.201956272 0.560953438 0.014931956
v 0.127350166 0.662468314 -0.089160040
v -0.151064143 0.738747180 0.078175023
v -0.133889943 0.753962994 0.085890949
v 0.113630697 0.716082096 -0.117626525
v -0.079975203 0.834359169 0.076336153
v -0.073206231 0.953020871 0.066369534
v -0.120606914 0.728325248 0.086659655
v 0.129281804 0.709547579 -0.098961510
v -0.107708916 0.751066923 0.084553733
v -0.091192417 0.812932789 0.081272148
v 0.162850872 0.711438775 -0.090893164
v -0.091898486 0.731175542 0.076093107
v 0.116760209 0.866950333 -0.142374605
v -0.078511029 0.789254308 0.073713124
v -0.104405358 0.792945147 0.085114434
v 0.179089606 0.699587941 -0.077319287
v -0.093993701 0.771404684 0.079801485
v 0.166413546 0.633380055 -0.071885601
v 0.181201875 0.648739934 -0.067868762
v -0.085717559 0.751717508 0.074614987
v -0.066965923 0.739412725 0.065562546
v -0.118720792 0.773118854 0.085884675
v -0.029687177 0.761809170 0.035021015
v -0.129745811 0.794224739 0.083502702
v -0.118550457 0.814839661 0.082819596
v 0.194567293 0.692373633 -0.061049424
v 0.207372576 0.656883240 -0.039760627
v -0.067191534 0.810257316 0.066060357
v -0.143578917 0.775124431 0.079779327
v -0.045742519 0.670782685 0.038343955
v -0.143468976 0.812922657 0.072861046
v 0.194967419 0.665880561 -0.057005722
v -0.163771123 0.833141148 0.073287182
v 0.212864116 0.652915418 -0.018886250
v -0.187569782 0.792935729 0.063255146
v 0.219955593 0.701695323 -0.021873331
v -0.168686360 0.782394826 0.074747458
v -0.069882229 0.857040524 0.073348626
v -0.183453426 0.817522824 0.059271455
v 0.207657695 0.606597483 -0.014180653
v -0.075593077 0.903233826 0.070055977
v -0.011534286 0.781333148 -0.067993805
v -0.071238741 0.927672029 0.069743700
v -0.193587944 0.823040664 0.039687991
v -0.212455913 0.764752030 0.023680065
v -0.049438026 0.933936238 0.074319065
v -0.008686414 0.800219715 -0.078343101
v -0.106795356 0.948716640 0.051677752
v -0.218191624 0.753353000 -0.001401947
v 0.075915821 0.835416913 -0.141988069
v 0.124148130 0.916230679 -0.138352960
v -0.210778713 0.832143903 0.003542794
v -0.090803042 0.951118648 0.060288489
v 0.211816862 0.697572768 0.005505539
v 0.093965143 0.950438380 -0.138741583
v -0.194763482 0.891491055 -0.027382817
v 0.211065382 0.715018570 0.023605699
v -0.220537469 0.771621346 -0.021458264
v -0.217946172 0.797996759 -0.019188570
v -0.214672759 0.823713779 -0.020541741
v 0.096611038 0.932927251 -0.134905770
v 0.216010764 0.758960068 0.003287967
v 0.078688838 0.941531360 -0.134490862
v -0.096224301 0.857587636 0.072813913
v -0.018047143 0.882444382 -0.138343379
v 0.202539250 0.704253197 0.043521285
v 0.059452891 0.950693309 -0.135690540
v 0.065632701 0.932820201 -0.147667855
v 0.191984862 0.600169480 0.009931661
v -0.092638820 0.925214469 0.061187595
v -0.019443762 0.858610928 -0.140278921
v -0.206102684 0.791324377 -0.059079565
v -0.189470842 0.899875045 -0.082463026
v -0.106661081 0.835583687 0.078585304
v 0.039516125 0.953375518 -0.133968458
v -0.195915073 0.791010261 -0.081219189
v 0.019694798 0.954577923 -0.131364673
v -0.160401195 0.800155461 -0.099529587
v 0.193563759 0.606432259 0.051470704
v -0.178555280 0.784610868 -0.099132419
v 0.017994087 0.939192116 -0.135431707
v 0.000800142 0.954065502 -0.125101045
v 0.197768167 0.681891561 0.055047233
v 0.187425092 0.655338168 0.060653191
v 0.083404690 0.802420497 -0.118169561
v 0.021828391 0.920210660 0.076418646
v -0.166862190 0.826209664 -0.099257037
v -0.155752629 0.774644971 -0.099183477
v -0.179607481 0.929275513 -0.089363866
v 0.066438556 0.821455359 -0.125039205
v 0.172097027 0.681521058 0.063289694
v -0.144835293 0.785276890 -0.119803056
v -0.062932417 0.558718562 -0.043083038
v -0.110514268 0.798924804 -0.126092687
v -0.078496017 0.557283044 -0.055126876
v -0.090970002 0.555116236 -0.072601303
v -0.119825684 0.779744864 -0.128591076
v 0.148734584 0.666773081 0.074929908
v 0.161349908 0.647920191 0.063226938
v -0.073539123 0.546649039 -0.068708465
v 0.151236326 0.618904710 0.062828183
v -0.119618177 0.846640289 -0.138688207
v 0.046006873 0.912456632 0.072679780
v 0.028874945 0.895132065 0.074636444
v -0.092112288 0.538716912 -0.065309584
v 0.153152481 0.695845962 0.076414809
v -0.109773137 0.823029399 -0.131950036
v 0.132600874 0.703011811 0.082491040
v 0.138660029 0.638374984 0.078656428
v -0.106182858 0.536373854 -0.078451447
v -0.003994684 0.822334111 0.036996912
v -0.006153890 0.805676103 0.024893757
v -0.091648683 0.805196762 -0.120073356
v -0.119279444 0.532161355 -0.090727165
v -0.079521403 0.860177517 -0.151916072
v -0.097073749 0.781282246 -0.122758113
v -0.135000259 0.532403469 -0.084325925
v -0.152285025 0.533199728 -0.085425787
v -0.170129985 0.535730302 -0.087298036
v -0.049916308 0.782096446 0.059041828
v -0.028788287 0.786327064 0.038515501
v 0.078346491 0.668049335 0.064265490
v 0.081547618 0.644477367 0.063753799
v -0.178671211 0.535859466 -0.071020611
v -0.158179775 0.544558465 -0.073287651
v -0.031154573 0.714379311 0.029298648
v 0.060068388 0.660196543 0.055486411
v 0.045122109 0.679671645 0.038044766
v -0.167998642 0.543527544 -0.058564521
v -0.074718945 0.838054657 -0.142997354
v 0.070813544 0.707866251 0.064877942
v -0.182757005 0.537865520 -0.050214291
v -0.048218749 0.695917130 0.052681059
v 0.027799319 0.682556748 0.016124066
v -0.040110882 0.652078986 0.021942200
v -0.096364424 0.841228366 -0.143815979
v 0.026017755 0.632011235 0.004813146
v -0.061084278 0.668648839 0.062346023
v 0.065201491 0.751641273 0.065387763
v -0.047940142 0.615898907 0.014061578
v -0.056670558 0.614365280 0.039174125
v -0.054789405 0.870039463 -0.151770130
v -0.073082820 0.882988095 -0.154538617
v -0.070753381 0.714609981 0.065467000
v -0.057360925 0.897059560 -0.152955562
v 0.092837699 0.872181118 -0.153444782
v -0.195691884 0.533390939 -0.039218411
v 0.078738749 0.730764508 0.070375726
v -0.071412869 0.614743531 0.062155783
v -0.098033205 0.707845271 0.077364601
v 0.097995624 0.846913159 -0.147482485
v -0.075594731 0.644119382 0.066972092
v -0.089390948 0.667338908 0.065321863
v -0.085315920 0.880141854 0.068304986
v 0.062787905 0.635142446 -0.080027238
v -0.058766067 0.880998969 0.074250422
v 0.101266481 0.734543920 0.079036891
v -0.099023476 0.647422016 0.068656959
v 0.139647663 0.864431858 -0.128662810
v -0.194477260 0.533290803 -0.022261852
v -0.029773924 0.737875819 0.031842291
v 0.088318788 0.626255393 -0.076185085
v -0.192281485 0.534541667 0.012118456
v -0.134954676 0.675306261 0.084545903
v 0.081091680 0.648892343 -0.078764975
v -0.184635356 0.536099255 0.028320994
v -0.113144159 0.660728455 0.079851434
v 0.117660448 0.718657792 0.082962021
v 0.125174984 0.743730962 0.084441476
v 0.132561117 0.889222920 -0.136402771
v -0.182115614 0.555669665 0.017484048
v -0.123538911 0.701381385 0.085280202
v -0.175762892 0.550800920 0.033538099
v -0.135546863 0.649692535 0.081533253
v -0.172469527 0.540342510 0.047792446
v -0.155216128 0.535948396 0.052499376
v -0.145556852 0.695624888 0.079310745
v -0.152843967 0.660691500 0.065521821
v -0.140700251 0.533084035 0.063268438
v 0.146112800 0.726861000 0.082247324
v -0.159093112 0.682332635 0.067395024
v -0.122694097 0.533521533 0.065441199
v -0.105611309 0.536346018 0.058577769
v 0.117567956 0.606372654 -0.084913865
v -0.163622648 0.703938127 0.068366542
v 0.188805655 0.735532641 0.063974746
v 0.119426109 0.626478255 -0.086344585
v 0.161565512 0.926970363 -0.094177596
v -0.087843232 0.540101111 0.051232360
v -0.149160817 0.638651788 0.063880183
v -0.086156085 0.558465242 0.046067927
v 0.132062852 0.932397485 -0.121984288
v -0.073077694 0.546365619 0.036695920
v -0.063295074 0.551845968 0.018723443
v 0.203514859 0.728237331 0.045132421
v 0.153009847 0.885829449 -0.121825196
v -0.054690897 0.560094655 0.001653423
v -0.047577016 0.577755630 -0.007656921
v -0.185933262 0.715561628 0.065538011
v -0.038071543 0.592948735 -0.014400987
v -0.179504961 0.667598665 0.063047193
v 0.136305988 0.617202878 -0.082458317
v 0.164509833 0.861677170 -0.113742568
v 0.213173464 0.741092980 0.023881722
v -0.201092154 0.702271461 0.051740944
v -0.198847339 0.651349485 0.053029560
v -0.200512454 0.677189946 0.051488139
v -0.039199531 0.742273688 -0.098220244
v 0.155441612 0.609519362 -0.091141745
v 0.220816582 0.756599188 -0.020579537
v 0.158447132 0.906937897 -0.109834298
v 0.009846514 0.802086174 -0.079451367
v -0.052583586 0.764359891 -0.101102993
v 0.059283711 0.746764421 -0.102400199
v -0.046271823 0.724835277 0.052742444
v 0.216659114 0.728378117 -0.003052772
v -0.201421231 0.663494408 0.028158223
v -0.212310269 0.707023442 0.009750335
v -0.198164120 0.802101135 0.043019533
v 0.157588288 0.610177457 -0.069290347
v -0.203674242 0.652475476 0.003281727
v 0.134781837 0.916814148 0.059707522
v 0.219753191 0.730975986 -0.031894431
v -0.208444834 0.679821312 0.004201017
v -0.220570773 0.696634293 -0.014551979
v -0.219795704 0.715043008 -0.033892982
v 0.172220796 0.597557962 -0.057230026
v 0.208987594 0.711340904 -0.046632633
v -0.217279986 0.638226092 -0.014123601
v -0.215374157 0.806965828 0.002525078
v 0.168331400 0.882993519 -0.102231979
v -0.035834841 0.954786122 0.073739089
v 0.205856636 0.738662720 -0.054747790
v 0.192403093 0.747655094 -0.076983288
v -0.082852721 0.822181106 -0.131938219
v -0.059283089 0.826241195 -0.129037544
v 0.180275679 0.621536911 -0.060607277
v -0.221221611 0.666889429 -0.021120142
v 0.183296353 0.580957174 -0.046090454
v 0.195025429 0.718674302 -0.065711692
v -0.017238749 0.954875112 -0.132410198
v -0.035497464 0.953364193 -0.135437280
v 0.179365590 0.859628558 -0.089762248
v 0.015522785 0.771279037 0.022727815
v -0.052980345 0.949647248 -0.132105857
v -0.046522968 0.751970172 0.054611258
v 0.181088477 0.722995400 -0.081872590
v 0.171210542 0.737902641 -0.094032407
v -0.070567854 0.949194074 -0.135205865
v 0.175854459 0.885406137 -0.079176687
v -0.204580873 0.645675302 -0.034568083
v -0.086314149 0.953225136 -0.143179446
v -0.090978876 0.928196549 -0.146026641
v -0.211107925 0.811995864 -0.043638468
v -0.098886512 0.951179206 -0.130324140
v -0.115704395 0.952131867 -0.124682762
v 0.150909603 0.725744247 -0.108339764
v -0.198260158 0.710328162 -0.057910360
v -0.199703425 0.818358898 -0.070667408
v -0.191275299 0.836691856 -0.094438247
v -0.199666232 0.666623831 -0.045443721
v 0.183365196 0.864772439 -0.062432397
v 0.170922503 0.923537731 -0.055610426
v -0.179188266 0.603581846 -0.048270829
v 0.044346076 0.750580728 0.051526256
v 0.127301082 0.732911110 -0.105498515
v -0.066543631 0.807445347 -0.113176085
v -0.183875054 0.722937703 -0.080837347
v 0.186583385 0.911019146 -0.068511464
v -0.082560822 0.789360881 -0.110405251
v -0.186145604 0.596804142 -0.069551215
v 0.114258304 0.739768624 -0.120607719
v -0.182772890 0.661389470 -0.066966556
v -0.165542245 0.656290889 -0.091642275
v 0.186039135 0.912947834 -0.046448100
v -0.173901126 0.677766800 -0.077757649
v -0.167111889 0.710196793 -0.098372407
v 0.195448041 0.864170253 -0.029531499
v -0.161390513 0.632656813 -0.075312719
v -0.030546799 0.664607465 -0.049136676
v 0.074010372 0.727388203 -0.102492511
v -0.131767452 0.953569591 -0.119033232
v -0.143101290 0.953530908 -0.106921516
v -0.146996245 0.724722326 -0.094262406
v -0.143697485 0.699788809 -0.090118706
v -0.143153414 0.673809111 -0.084348015
v -0.141569287 0.647293329 -0.080330029
v -0.135903046 0.830812454 -0.129731938
v 0.067528829 0.797048688 0.068532601
v 0.197455391 0.607328057 -0.044192284
v -0.169327617 0.950645626 -0.079483911
v -0.177113175 0.942699790 -0.063344292
v 0.209024623 0.630440354 -0.032446977
v -0.017761361 0.573638022 -0.005471773
v -0.159470528 0.946606278 -0.064706825
v 0.194311082 0.869468391 -0.001782385
v -0.166135207 0.947564006 -0.047646761
v -0.167618006 0.947470009 -0.029590726
v -0.177609965 0.950695693 -0.016412232
v 0.215891048 0.756418169 -0.043182619
v 0.174653411 0.919219315 -0.030430799
v -0.165991709 0.945297420 -0.003535895
v -0.152137324 0.937165260 0.004844180
v -0.163258463 0.929264843 0.017076444
v 0.047453478 0.791814387 -0.099181429
v -0.142235756 0.935897350 0.019515742
v 0.178055122 0.916783690 -0.008935775
v -0.156877950 0.943886280 0.025413916
v -0.131596372 0.630939782 -0.096206926
v 0.201751679 0.864476979 0.023846809
v 0.012192616 0.718063354 -0.049826588
v -0.013800974 0.702677846 -0.042711295
v -0.013063061 0.721961915 -0.048540685
v 0.150168672 0.930658460 -0.111359976
v -0.132622778 0.657726467 -0.102327302
v -0.012539595 0.741460264 -0.054273151
v -0.132691339 0.711326480 -0.112534963
v 0.010095476 0.740598559 -0.055173248
v -0.012940377 0.761446357 -0.060249697
v -0.149842709 0.946223736 0.041136798
v 0.159307152 0.755370080 -0.103443608
v 0.177427784 0.921627879 0.014372254
v -0.113600120 0.642641544 -0.110437199
v -0.135619611 0.944054782 0.032785363
v -0.121544346 0.946268380 0.041963860
v 0.162969798 0.894083142 0.012396392
v 0.043684434 0.863274872 -0.146870613
v -0.131798834 0.684600949 -0.107304014
v -0.113734826 0.728773654 -0.130065992
v 0.160819039 0.917591095 0.000349361
v -0.113202371 0.669592083 -0.118142828
v 0.183303505 0.848646820 0.034575820
v -0.109715566 0.662011266 -0.094693631
v -0.009637224 0.746865869 0.009151381
v -0.111395955 0.924374878 0.049249131
v 0.143269867 0.923317552 0.038619526
v 0.147258595 0.901490986 0.040313609
v 0.150982231 0.917418122 0.020440388
v -0.090011820 0.651245654 -0.083956935
v -0.106971741 0.688420892 -0.100816548
v -0.085185848 0.676560879 -0.089670233
v 0.043957077 0.638847530 0.025715161
v -0.105260551 0.714898825 -0.105889067
v 0.052068561 0.912480354 -0.148094803
v -0.080173135 0.700342774 -0.099220507
v 0.024154805 0.904196382 -0.147490472
v -0.036264725 0.851413548 -0.151577085
v -0.033097856 0.883092284 -0.156562999
v 0.196534649 0.625112176 0.005567700
v 0.200130075 0.634758472 0.047549136
v -0.050554782 0.688638806 -0.091028653
v -0.055197496 0.717706680 -0.099427871
v -0.153234050 0.951933980 -0.090938762
v 0.169339553 0.861586094 0.042969391
v 0.158809751 0.863591313 0.064544894
v -0.192401201 0.553793490 -0.011735819
v 0.170279950 0.599045873 0.060916252
v 0.176474825 0.627223849 0.055659942
v -0.189750046 0.534273624 -0.005420940
v 0.142389104 0.886257946 0.064965978
v -0.053453691 0.581991315 -0.039205872
v -0.052826464 0.564988136 -0.026187237
v 0.009213485 0.611791492 0.008147286
v -0.035310790 0.567697823 -0.016129907
v 0.005529406 0.953928292 0.067152977
v 0.066313073 0.899466813 -0.157952756
v -0.017049251 0.954709351 0.072928898
v -0.037406266 0.598479033 0.011852176
v 0.129787043 0.609812856 0.078297183
v 0.040602706 0.935117424 0.074759670
v 0.073701791 0.563605428 0.048860516
v 0.062180437 0.583892524 0.043117959
v 0.099341556 0.575480878 0.063654169
v 0.045284934 0.834760368 -0.139763936
v 0.123461843 0.580781400 0.074805394
v 0.056018494 0.594180405 0.022465620
v 0.185178906 0.575930178 0.018452160
v 0.134472221 0.851926208 0.064013489
v 0.122246765 0.871761501 0.053445935
v 0.194652677 0.895910263 0.012802030
v 0.104118645 0.602192163 0.070143908
v 0.181576505 0.890829086 -0.022208668
v 0.200268358 0.886159718 -0.048919346
v 0.062365808 0.930989444 0.070686415
v 0.082587540 0.618425667 0.061221529
v 0.107946262 0.632947087 0.075536460
v 0.172909111 0.893306553 -0.055905879
v 0.167705297 0.913368404 -0.075422660
v 0.081138298 0.591983140 0.056457914
v 0.167677239 0.903170407 -0.092490561
v 0.159263402 0.574418962 -0.061416071
v 0.168064892 0.585907519 -0.085810162
v 0.058151238 0.633151174 0.050016947
v 0.135271251 0.588185668 -0.077886045
v 0.142314419 0.910054386 -0.124726579
v 0.060648650 0.606950223 0.047119651
v 0.110758044 0.688935995 0.079438493
v 0.146285981 0.588383675 0.064017072
v 0.177468866 0.584213555 0.040094331
v 0.201306269 0.589526296 0.032407843
v 0.208226115 0.684668183 -0.043972559
v 0.148728967 0.695906937 -0.105108798
v 0.049801521 0.617668390 0.023761678
v 0.129755080 0.684787393 -0.093266204
v 0.202436298 0.583945870 -0.027923873
v 0.198510453 0.580367923 -0.003058849
v 0.033909284 0.658504725 0.018531147
v 0.007752436 0.685079694 0.003806361
v 0.103818759 0.885121047 0.058400534
v 0.083955228 0.927113354 0.065695822
v 0.014706289 0.706521809 0.010187959
v 0.037803754 0.818323255 0.045886360
v 0.021582710 0.795631230 0.032449529
v 0.020561185 0.615537941 -0.022083538
v 0.068735130 0.906767488 0.069364794
v 0.034441791 0.656506181 -0.051218767
v 0.037958231 0.875035882 0.069477096
v 0.053842820 0.889124215 0.066807345
v 0.017586807 0.873873055 0.071138993
v 0.044106986 0.594620585 -0.023904745
v 0.046758439 0.657426953 -0.073019460
v 0.076192439 0.773984253 0.071727768
v 0.206320688 0.687723875 0.030300763
v 0.202818349 0.799948931 -0.066650510
v 0.053156428 0.581068933 -0.050022095
v 0.158145458 0.684685588 -0.083754033
v 0.120642006 0.782871008 -0.117015503
v 0.114241198 0.691620708 -0.112147525
v 0.081142917 0.576245070 -0.065968543
v 0.038940381 0.704351842 -0.082911894
v 0.030859832 0.773556352 -0.089221090
v 0.108363852 0.588691354 -0.096581414
v 0.110714532 0.575747132 -0.073901020
v 0.104330160 0.920910478 -0.149673849
v 0.089230947 0.902629077 0.064606503
v 0.079431571 0.876714230 0.069641396
v 0.123011425 0.564656615 -0.098564669
v 0.030611102 0.855044961 0.064654306
v 0.048759058 0.840816617 0.054251082
v 0.082228810 0.920852780 -0.159011751
v 0.145267814 0.561095357 -0.075583659
v 0.178874850 0.763343096 -0.094450995
v 0.021219393 0.833936870 -0.119718179
v 0.149113953 0.630240798 -0.076221503
v 0.176674515 0.560961843 -0.076453634
v 0.013380393 0.696102321 -0.044903036
v 0.158008054 0.550754368 -0.064093813
v 0.028993253 0.798544049 -0.089987323
v 0.177639633 0.554663777 -0.049605440
v 0.191433653 0.564966321 -0.034287151
v 0.056582879 0.728531539 0.058528472
v 0.110598050 0.893632591 -0.146544352
v 0.088703521 0.897384048 -0.154867336
v 0.015186185 0.780125022 -0.070848271
v 0.198841676 0.559155166 -0.015066775
v 0.114383936 0.644157588 -0.096130848
v 0.208284304 0.632363677 -0.010932123
v 0.197783038 0.616752505 0.028265407
v 0.153528363 0.637468874 -0.094186254
v 0.135011405 0.642755866 -0.085316345
v 0.195111558 0.560818255 0.039738301
v 0.171263546 0.844449162 0.056802612
v 0.210051894 0.843702316 0.009916941
v 0.195656046 0.637865782 -0.050905585
v 0.043476079 0.609407425 -0.045616273
v 0.168871135 0.566758156 0.063466750
v 0.086578362 0.753260255 0.075769819
v 0.203730509 0.650426388 0.001401894
v 0.199376121 0.643033564 0.023369886
v 0.085513458 0.666218162 -0.088310882
v 0.142928854 0.557511091 0.065197967
v 0.121489190 0.839410901 -0.132303759
v -0.008961341 0.766674340 0.012452896
v -0.013230165 0.670005262 -0.000594898
v 0.048346482 0.654533327 0.037816949
v 0.116594717 0.555093169 0.068484679
v 0.147023916 0.843856037 -0.115192808
v -0.010700101 0.727304280 0.006062664
v -0.007953807 0.786457777 0.017478317
v 0.094981544 0.552829385 0.056344636
v 0.021875989 0.835265815 0.055019367
v -0.002594765 0.837031960 0.051284652
v 0.124481365 0.897318006 0.044445317
v 0.064079486 0.570843816 0.023927284
v 0.123955503 0.923904240 0.040856455
v 0.192645118 0.554485738 0.006023584
v 0.106992282 0.755461097 0.081491388
v 0.038463414 0.929019451 -0.142110765
v 0.038948022 0.575132251 0.016513651
v 0.067080110 0.877708316 -0.156982213
v 0.011637689 0.585807860 0.012923663
v 0.034228604 0.602476418 0.011027006
v 0.038249426 0.812424183 -0.116894998
v 0.014528461 0.818570495 0.039546233
v 0.012417850 0.658087611 0.001894451
v -0.015040070 0.651269794 -0.002681225
v -0.011298562 0.707926154 0.003840654
v 0.192184404 0.545034766 -0.030009579
v -0.011968308 0.688898444 0.001478033
v 0.064657494 0.605022430 -0.070444182
v 0.083473638 0.751215458 -0.110157885
v 0.103092335 0.761647165 -0.126095399
v 0.166099042 0.745886803 0.073186532
v 0.094362959 0.710985541 0.075300634
v 0.169409931 0.716462493 0.070624605
v 0.097427882 0.600591540 -0.073524401
v 0.179036662 0.552672267 0.022924166
f 555 540 123
f 389 162 497
f 567 540 568
f 583 104 251
f 463 489 430
f 453 94 255
f 483 484 162
f 446 640 671
f 574 577 251
f 50 244 238
f 52 244 50
f 575 57 53
f 55 249 52
f 55 2 250
f 577 248 563
f 575 437 432
f 57 597 589
f 2 265 262
f 589 592 57
f 262 259 2
f 5 267 262
f 602 606 589
f 5 9 11
f 58 606 610
f 11 272 5
f 12 278 11
f 565 793 8
f 630 60 632
f 13 425 12
f 424 289 160
f 289 424 13
f 643 649 60
f 181 403 179
f 483 206 484
f 163 651 174
f 53 563 558
f 651 65 650
f 163 389 384
f 683 66 65
f 455 558 563
f 165 384 171
f 340 331 34
f 67 66 683
f 206 470 63
f 385 102 856
f 67 702 70
f 344 340 696
f 179 403 406
f 710 70 702
f 16 352 14
f 111 112 59
f 63 64 655
f 18 368 16
f 710 742 753
f 119 112 111
f 394 671 545
f 551 922 903
f 19 375 18
f 753 740 711
f 406 470 179
f 261 615 108
f 545 453 439
f 178 386 530
f 24 386 23
f 72 753 742
f 26 396 24
f 768 765 72
f 119 142 112
f 32 63 470
f 112 142 161
f 399 400 396
f 154 343 182
f 545 671 448
f 399 415 400
f 768 770 765
f 32 406 410
f 418 415 399
f 770 183 777
f 387 300 166
f 415 418 422
f 105 86 299
f 169 42 839
f 170 142 119
f 173 172 705
f 329 638 343
f 134 738 737
f 185 638 329
f 692 661 145
f 150 74 741
f 637 345 873
f 132 145 661
f 170 184 142
f 138 495 760
f 138 136 188
f 136 194 188
f 201 87 194
f 270 87 205
f 216 49 210
f 46 216 724
f 198 184 170
f 43 96 907
f 219 39 218
f 45 43 41
f 224 37 219
f 498 224 514
f 86 105 342
f 225 36 514
f 378 107 110
f 80 233 107
f 22 41 43
f 198 217 849
f 41 581 45
f 103 233 76
f 76 40 103
f 222 217 214
f 678 100 40
f 98 41 22
f 366 41 98
f 40 76 678
f 215 4 284
f 215 98 21
f 537 536 92
f 222 234 217
f 904 537 92
f 460 462 30
f 284 471 366
f 222 239 246
f 586 903 759
f 462 28 30
f 246 234 222
f 454 449 28
f 237 391 924
f 560 319 921
f 246 888 252
f 431 471 282
f 455 560 391
f 319 560 241
f 50 238 793
f 50 566 52
f 52 574 55
f 258 263 510
f 244 52 249
f 55 253 2
f 284 792 657
f 303 670 667
f 303 100 674
f 250 249 55
f 273 274 252
f 251 253 574
f 100 303 301
f 301 570 100
f 104 261 257
f 677 100 678
f 273 285 274
f 257 2 253
f 2 257 265
f 250 2 259
f 570 568 40
f 752 292 293
f 294 296 285
f 285 296 274
f 684 497 679
f 277 274 296
f 440 447 442
f 579 489 463
f 692 329 695
f 259 262 267
f 871 736 360
f 262 271 9
f 40 100 570
f 570 567 568
f 203 128 270
f 310 296 294
f 305 296 310
f 87 270 194
f 9 5 262
f 5 272 600
f 276 9 271
f 9 276 11
f 272 11 278
f 302 323 310
f 568 103 40
f 108 615 89
f 280 11 276
f 11 280 12
f 103 568 540
f 278 12 425
f 323 337 328
f 283 12 280
f 12 283 13
f 283 297 289
f 289 13 283
f 540 561 231
f 425 13 424
f 209 288 205
f 291 125 286
f 346 337 323
f 49 304 288
f 173 350 351
f 297 654 314
f 347 158 864
f 304 47 311
f 47 304 49
f 47 46 481
f 360 361 855
f 501 684 146
f 481 311 47
f 46 39 481
f 343 695 329
f 314 289 297
f 289 314 160
f 481 321 308
f 481 39 321
f 325 122 321
f 325 321 37
f 37 321 39
f 333 160 314
f 324 266 333
f 527 107 231
f 84 121 325
f 36 327 498
f 160 333 34
f 327 120 84
f 36 82 371
f 277 393 390
f 689 34 333
f 34 689 340
f 313 34 331
f 266 334 689
f 334 260 341
f 340 335 331
f 107 527 110
f 54 404 405
f 696 14 344
f 61 401 44
f 38 299 407
f 358 14 348
f 14 358 16
f 344 14 352
f 356 704 712
f 352 16 368
f 413 62 417
f 370 16 358
f 16 370 18
f 175 705 134
f 713 115 110
f 371 27 378
f 27 371 82
f 381 18 370
f 18 381 19
f 368 18 375
f 80 378 27
f 19 381 235
f 19 395 23
f 19 23 178
f 202 506 913
f 23 395 24
f 386 24 396
f 398 24 395
f 24 398 26
f 26 398 220
f 26 412 399
f 396 26 399
f 418 399 412
f 164 180 444
f 444 443 164
f 175 173 705
f 685 84 120
f 422 300 415
f 685 121 84
f 172 169 300
f 172 300 422
f 78 80 27
f 226 365 78
f 89 615 114
f 240 485 309
f 134 737 175
f 226 27 82
f 245 459 452
f 187 186 140
f 243 459 245
f 189 187 130
f 581 466 579
f 467 472 637
f 308 122 240
f 138 579 466
f 430 255 463
f 499 435 430
f 453 430 435
f 435 440 439
f 435 499 450
f 243 479 281
f 308 321 122
f 897 438 584
f 439 453 435
f 243 281 893
f 450 440 435
f 480 859 865
f 440 449 447
f 442 439 440
f 450 449 440
f 447 449 454
f 492 488 493
f 127 458 456
f 449 456 28
f 82 225 708
f 454 28 462
f 28 456 30
f 456 450 127
f 30 456 458
f 225 82 36
f 30 464 460
f 506 507 502
f 126 469 125
f 287 508 509
f 207 507 506
f 410 460 32
f 126 306 477
f 460 464 644
f 644 32 460
f 32 644 63
f 475 31 576
f 470 406 32
f 64 63 644
f 306 309 477
f 125 464 458
f 528 795 511
f 516 523 524
f 655 206 63
f 206 655 484
f 206 474 470
f 162 679 497
f 316 322 822
f 313 160 34
f 37 498 325
f 523 316 534
f 497 684 501
f 501 146 505
f 146 512 503
f 505 503 513
f 263 515 510
f 512 120 115
f 503 512 91
f 517 513 503
f 115 713 91
f 458 203 125
f 315 547 548
f 91 512 115
f 547 330 336
f 91 713 88
f 517 88 522
f 552 548 547
f 532 88 713
f 88 532 519
f 552 336 553
f 522 519 541
f 527 231 561
f 127 128 458
f 538 660 692
f 514 36 498
f 224 498 37
f 538 692 695
f 114 626 631
f 553 342 105
f 219 37 39
f 555 660 561
f 127 450 499
f 891 199 824
f 660 555 661
f 218 39 46
f 199 97 886
f 366 98 284
f 22 21 98
f 41 366 581
f 43 232 22
f 907 232 43
f 96 536 907
f 45 463 255
f 45 581 463
f 255 94 96
f 255 96 45
f 94 453 545
f 448 546 545
f 582 593 594
f 595 584 438
f 216 46 47
f 216 47 49
f 551 640 558
f 558 640 569
f 49 288 209
f 793 565 50
f 569 53 558
f 566 50 565
f 209 210 49
f 841 351 350
f 574 52 566
f 578 53 57
f 612 609 423
f 53 578 563
f 575 53 569
f 597 432 211
f 253 55 574
f 57 575 597
f 578 57 592
f 592 583 578
f 627 609 612
f 584 621 628
f 603 589 606
f 602 589 597
f 634 819 627
f 610 606 602
f 835 318 229
f 626 606 58
f 610 624 58
f 58 624 630
f 632 58 630
f 634 884 869
f 58 632 626
f 60 642 632
f 642 60 649
f 60 630 181
f 650 649 643
f 662 652 645
f 656 628 621
f 621 636 656
f 658 659 204
f 64 644 469
f 466 495 138
f 694 377 700
f 468 471 431
f 663 650 65
f 628 656 668
f 679 162 484
f 65 686 663
f 672 673 659
f 686 65 66
f 683 65 651
f 468 431 478
f 683 693 67
f 685 146 684
f 146 685 512
f 696 340 689
f 66 67 701
f 473 495 478
f 66 698 686
f 702 67 693
f 668 675 687
f 701 698 66
f 405 690 54
f 701 67 70
f 54 690 564
f 14 696 348
f 711 70 710
f 699 70 711
f 702 709 710
f 229 318 236
f 657 282 471
f 710 709 742
f 753 756 740
f 756 753 72
f 742 754 72
f 72 754 768
f 72 765 756
f 766 765 770
f 490 193 496
f 130 772 496
f 770 776 766
f 15 719 168
f 87 201 148
f 183 770 768
f 201 194 136
f 422 705 172
f 633 777 338
f 777 633 150
f 408 74 633
f 638 185 408
f 106 730 258
f 688 379 694
f 275 631 118
f 185 692 145
f 197 750 749
f 736 737 738
f 263 258 730
f 738 741 743
f 185 145 143
f 743 741 744
f 744 741 74
f 744 467 879
f 132 140 145
f 123 132 661
f 741 738 150
f 123 540 567
f 773 772 567
f 738 134 150
f 78 27 226
f 238 623 1
f 264 279 779
f 776 150 134
f 134 705 420
f 695 541 538
f 104 599 261
f 365 681 680
f 761 762 763
f 365 678 76
f 76 78 365
f 411 156 420
f 156 411 220
f 541 519 538
f 220 764 156
f 76 233 78
f 80 78 233
f 168 789 387
f 70 699 701
f 398 395 228
f 434 437 445
f 779 780 887
f 428 432 434
f 926 317 706
f 197 749 745
f 213 6 4
f 279 785 780
f 419 427 428
f 148 201 745
f 454 462 419
f 526 782 783
f 381 734 235
f 410 414 419
f 493 769 913
f 511 4 215
f 4 511 213
f 406 414 410
f 208 731 729
f 21 511 215
f 210 728 727
f 794 800 823
f 511 21 529
f 470 474 179
f 724 218 46
f 227 110 115
f 118 280 275
f 219 218 722
f 806 800 794
f 803 804 256
f 716 778 225
f 224 219 720
f 407 86 690
f 356 734 381
f 389 497 380
f 809 795 528
f 810 806 811
f 717 716 514
f 497 501 380
f 317 697 429
f 810 818 821
f 913 771 202
f 341 698 699
f 373 376 159
f 369 177 373
f 341 260 698
f 260 334 266
f 365 226 681
f 517 522 354
f 828 821 818
f 354 362 364
f 569 640 446
f 519 522 88
f 767 828 818
f 266 324 676
f 602 597 211
f 804 834 256
f 121 240 122
f 345 868 918
f 610 602 211
f 169 839 166
f 427 195 211
f 643 179 174
f 683 651 165
f 693 683 171
f 627 884 634
f 324 654 676
f 846 397 841
f 841 397 374
f 362 709 369
f 580 397 846
f 192 188 190
f 192 499 489
f 128 192 190
f 270 205 203
f 205 288 286
f 291 306 126
f 208 148 733
f 288 304 291
f 304 311 306
f 311 481 308
f 286 125 203
f 283 118 297
f 589 599 592
f 283 280 118
f 227 115 120
f 747 805 732
f 707 226 82
f 107 378 80
f 275 114 631
f 118 646 297
f 89 114 275
f 231 233 103
f 87 209 205
f 816 872 870
f 271 108 89
f 248 560 455
f 248 241 560
f 108 271 265
f 566 565 241
f 86 876 690
f 622 244 619
f 517 91 88
f 574 566 248
f 715 662 889
f 244 249 618
f 249 250 614
f 882 465 718
f 253 251 257
f 774 465 882
f 250 259 608
f 883 494 774
f 921 391 560
f 259 267 604
f 54 564 847
f 251 577 583
f 600 267 5
f 89 276 271
f 503 91 517
f 690 405 407
f 275 276 89
f 892 573 582
f 272 278 596
f 248 577 574
f 280 276 275
f 425 588 591
f 425 424 781
f 781 313 572
f 424 313 781
f 572 585 781
f 314 654 324
f 136 197 201
f 313 557 572
f 237 551 558
f 554 331 335
f 334 341 348
f 760 136 138
f 335 344 549
f 341 699 704
f 348 696 334
f 921 319 7
f 358 348 704
f 344 352 544
f 912 582 594
f 903 586 551
f 352 368 543
f 381 370 356
f 368 375 539
f 788 8 3
f 535 375 178
f 221 795 809
f 828 767 562
f 559 833 920
f 921 920 899
f 546 448 898
f 903 922 836
f 38 903 299
f 235 228 395
f 405 669 407
f 546 92 94
f 400 518 520
f 92 546 904
f 639 35 926
f 386 396 525
f 927 926 33
f 928 605 930
f 200 490 298
f 94 545 546
f 96 92 536
f 927 56 852
f 143 472 408
f 220 412 26
f 400 520 521
f 412 220 411
f 109 113 152
f 920 832 559
f 418 412 411
f 152 113 746
f 387 789 786
f 420 418 411
f 746 161 867
f 418 420 422
f 490 773 298
f 496 772 773
f 394 442 445
f 562 767 832
f 739 636 820
f 204 725 658
f 773 490 496
f 725 223 635
f 447 454 428
f 472 186 637
f 215 284 98
f 189 130 496
f 458 464 30
f 410 462 460
f 125 469 464
f 635 247 487
f 487 269 629
f 641 487 629
f 268 269 487
f 269 393 629
f 390 269 268
f 469 126 64
f 349 761 763
f 655 64 477
f 303 674 670
f 290 393 277
f 611 290 928
f 163 474 483
f 928 307 605
f 635 641 648
f 531 605 533
f 677 674 100
f 477 309 485
f 506 202 207
f 679 485 240
f 240 121 684
f 312 912 594
f 684 679 240
f 121 685 684
f 186 187 345
f 503 505 146
f 912 332 892
f 772 130 132
f 685 120 512
f 501 505 159
f 725 648 658
f 505 513 373
f 513 517 364
f 892 847 564
f 110 527 713
f 714 847 339
f 522 541 154
f 51 714 346
f 231 103 540
f 714 51 404
f 541 695 343
f 567 772 123
f 502 500 506
f 578 577 563
f 867 659 673
f 577 578 583
f 597 575 432
f 592 104 583
f 913 492 493
f 845 167 839
f 599 104 592
f 386 178 23
f 599 603 615
f 110 227 378
f 615 261 599
f 706 402 639
f 603 626 114
f 132 123 772
f 624 610 195
f 409 706 317
f 746 673 682
f 114 615 603
f 120 327 227
f 624 414 403
f 691 429 697
f 642 631 632
f 642 118 631
f 429 433 853
f 646 118 642
f 642 649 646
f 152 682 691
f 682 433 691
f 181 643 60
f 654 297 646
f 122 325 121
f 140 130 187
f 421 416 617
f 123 661 555
f 309 308 240
f 698 260 686
f 702 693 177
f 698 701 699
f 672 441 436
f 291 126 125
f 109 691 697
f 143 140 186
f 874 872 816
f 665 441 672
f 188 192 489
f 665 658 653
f 712 704 699
f 653 451 665
f 927 697 317
f 712 740 734
f 648 461 653
f 178 375 19
f 923 880 116
f 641 461 648
f 740 756 748
f 748 758 228
f 926 706 639
f 479 641 482
f 754 742 362
f 354 754 362
f 407 669 38
f 203 458 128
f 482 629 620
f 756 765 758
f 182 754 154
f 128 127 192
f 254 246 252
f 611 382 620
f 764 398 228
f 499 192 127
f 764 766 156
f 766 776 156
f 930 611 928
f 420 156 776
f 140 132 130
f 788 7 8
f 387 166 168
f 420 776 134
f 136 760 197
f 300 387 415
f 750 197 760
f 745 201 197
f 148 208 209
f 733 148 745
f 258 35 106
f 593 533 605
f 731 208 733
f 236 318 910
f 729 210 208
f 728 210 729
f 727 216 210
f 188 489 579
f 929 573 556
f 724 216 727
f 573 929 582
f 723 218 724
f 722 218 723
f 720 219 722
f 717 224 720
f 514 224 717
f 188 579 138
f 876 556 573
f 707 681 226
f 898 904 546
f 472 143 186
f 212 795 221
f 899 391 921
f 854 925 931
f 213 795 212
f 140 143 145
f 404 54 714
f 833 922 924
f 415 387 786
f 143 408 185
f 238 3 793
f 1 3 238
f 31 799 752
f 622 238 244
f 918 799 515
f 380 376 171
f 915 752 357
f 617 476 421
f 619 244 618
f 618 249 616
f 616 249 614
f 636 739 613
f 388 613 10
f 614 250 608
f 357 791 915
f 383 688 388
f 608 259 607
f 571 438 576
f 295 667 666
f 92 96 94
f 607 259 604
f 372 726 700
f 667 295 303
f 367 726 372
f 604 267 601
f 298 295 207
f 923 875 880
f 363 732 367
f 408 467 74
f 148 209 87
f 298 301 295
f 359 747 363
f 601 267 600
f 359 355 755
f 600 272 598
f 598 272 596
f 353 755 355
f 301 298 773
f 596 278 591
f 747 755 751
f 591 278 425
f 588 425 781
f 388 688 813
f 769 771 913
f 763 353 349
f 202 771 200
f 506 500 913
f 74 467 744
f 773 570 301
f 82 708 707
f 320 647 326
f 500 492 913
f 331 554 557
f 242 910 320
f 344 335 340
f 910 908 647
f 554 335 550
f 239 222 703
f 549 550 335
f 549 344 544
f 166 167 168
f 544 352 543
f 543 368 542
f 17 15 167
f 17 845 157
f 907 536 919
f 157 850 155
f 155 850 153
f 542 368 539
f 150 633 74
f 153 854 151
f 151 854 149
f 149 858 147
f 147 862 144
f 539 375 535
f 759 903 38
f 530 535 178
f 144 862 141
f 141 866 139
f 139 866 137
f 530 386 525
f 137 870 135
f 525 396 521
f 135 870 872
f 133 872 131
f 131 874 129
f 129 923 117
f 923 874 875
f 170 119 902
f 521 396 400
f 20 932 101
f 99 101 932
f 99 886 97
f 95 97 199
f 95 891 93
f 93 896 90
f 518 400 786
f 90 896 85
f 85 901 83
f 83 905 81
f 169 166 300
f 81 905 79
f 77 79 796
f 77 909 75
f 439 394 545
f 75 914 73
f 73 914 71
f 71 916 69
f 442 394 439
f 468 466 366
f 442 447 434
f 7 562 920
f 794 534 811
f 924 899 833
f 434 447 428
f 428 454 419
f 419 462 410
f 38 898 759
f 902 111 897
f 466 468 495
f 526 524 534
f 25 59 56
f 96 43 45
f 895 401 61
f 182 343 338
f 483 389 163
f 483 162 389
f 897 59 25
f 883 894 775
f 776 777 150
f 59 897 111
f 380 384 389
f 774 882 893
f 111 902 119
f 778 708 225
f 501 159 380
f 167 166 839
f 159 505 373
f 176 191 867
f 373 513 369
f 364 369 513
f 850 890 925
f 354 364 517
f 354 522 154
f 177 369 709
f 154 541 343
f 446 445 437
f 376 380 159
f 204 223 725
f 217 198 214
f 214 703 222
f 437 569 446
f 610 211 195
f 414 624 195
f 403 630 624
f 889 718 715
f 160 313 424
f 181 630 403
f 888 246 239
f 179 643 181
f 174 650 643
f 651 650 174
f 163 384 165
f 487 247 268
f 165 651 163
f 171 683 165
f 174 474 163
f 557 313 331
f 475 515 799
f 376 693 171
f 285 273 757
f 177 693 376
f 627 885 884
f 174 179 474
f 509 508 516
f 294 302 310
f 709 702 177
f 709 362 742
f 154 754 354
f 182 338 183
f 780 785 803
f 183 768 182
f 423 413 881
f 183 338 777
f 638 338 343
f 633 638 408
f 590 401 895
f 692 185 329
f 190 188 194
f 515 475 25
f 270 190 194
f 190 270 128
f 195 427 414
f 7 788 562
f 915 878 571
f 877 595 438
f 203 205 286
f 44 48 61
f 474 206 483
f 210 209 208
f 61 62 895
f 413 895 62
f 211 432 427
f 172 42 169
f 398 764 220
f 515 263 918
f 437 575 569
f 228 758 764
f 124 885 426
f 175 871 350
f 84 498 327
f 225 514 716
f 327 371 227
f 918 263 730
f 898 448 759
f 371 327 36
f 839 374 890
f 227 371 378
f 451 441 665
f 228 235 748
f 444 180 457
f 233 231 107
f 187 868 345
f 759 448 586
f 189 292 868
f 734 748 235
f 653 461 826
f 924 922 237
f 292 193 196
f 446 671 394
f 461 641 479
f 922 551 237
f 391 237 455
f 482 641 629
f 918 868 799
f 196 200 293
f 771 293 200
f 558 455 237
f 281 287 894
f 894 893 281
f 248 566 241
f 257 251 104
f 255 430 453
f 257 261 265
f 509 775 287
f 260 266 676
f 509 516 524
f 265 261 108
f 523 516 531
f 322 316 523
f 273 252 888
f 265 271 262
f 811 534 316
f 316 315 811
f 676 686 260
f 366 466 581
f 478 495 468
f 330 547 315
f 547 336 552
f 366 471 468
f 760 495 473
f 657 471 284
f 336 342 553
f 553 900 552
f 832 900 553
f 865 878 791
f 792 284 4
f 31 571 576
f 286 288 291
f 438 571 877
f 906 864 863
f 4 790 792
f 8 7 319
f 303 295 301
f 291 304 306
f 570 773 567
f 739 617 392
f 617 416 392
f 306 311 309
f 309 311 308
f 170 628 668
f 613 739 10
f 739 392 10
f 656 675 668
f 656 815 675
f 680 678 365
f 813 613 388
f 324 333 314
f 687 198 668
f 379 688 383
f 295 666 207
f 815 656 636
f 377 694 379
f 325 498 84
f 689 333 266
f 334 696 689
f 700 377 372
f 861 834 860
f 703 721 239
f 732 726 367
f 834 861 256
f 348 341 704
f 747 732 363
f 356 358 704
f 735 888 721
f 370 358 356
f 735 264 757
f 735 273 888
f 755 747 359
f 369 364 362
f 353 763 755
f 647 761 326
f 761 349 326
f 376 373 177
f 779 757 264
f 780 779 279
f 384 380 171
f 235 395 19
f 736 871 737
f 562 788 917
f 910 647 320
f 785 804 803
f 414 406 403
f 256 323 803
f 813 675 815
f 415 786 400
f 427 419 414
f 422 420 705
f 432 428 427
f 430 489 499
f 587 580 590
f 437 434 432
f 445 442 434
f 446 394 445
f 671 586 448
f 819 609 627
f 456 449 450
f 455 563 248
f 865 791 769
f 581 579 463
f 645 652 817
f 644 464 469
f 652 662 715
f 874 923 129
f 715 664 652
f 694 812 688
f 477 64 126
f 750 760 473
f 485 655 477
f 465 715 718
f 507 207 666
f 465 774 494
f 865 486 480
f 812 675 813
f 485 484 655
f 207 202 298
f 883 504 825
f 493 865 769
f 783 782 504
f 679 484 485
f 202 200 298
f 196 490 200
f 196 193 490
f 877 859 476
f 302 803 323
f 189 496 193
f 814 806 810
f 168 719 789
f 821 814 810
f 391 899 924
f 713 527 532
f 467 408 472
f 302 294 887
f 786 787 518
f 538 519 532
f 561 532 527
f 926 35 33
f 538 532 660
f 540 555 561
f 551 586 640
f 319 241 565
f 660 532 561
f 113 161 746
f 161 176 867
f 8 319 565
f 223 247 635
f 781 585 784
f 620 629 393
f 887 780 302
f 269 390 393
f 671 640 586
f 781 784 588
f 599 589 603
f 393 290 611
f 626 603 606
f 928 290 305
f 623 238 622
f 625 1 623
f 774 893 894
f 312 332 912
f 626 632 631
f 332 339 847
f 847 892 332
f 757 887 285
f 847 714 54
f 793 3 8
f 732 807 726
f 858 931 857
f 675 812 687
f 168 167 15
f 273 735 757
f 920 921 7
f 402 385 639
f 167 845 17
f 638 633 338
f 646 649 663
f 650 663 649
f 845 850 157
f 888 239 721
f 663 654 646
f 706 409 48
f 850 854 153
f 676 654 663
f 429 409 317
f 661 692 660
f 854 858 149
f 676 663 686
f 858 862 147
f 433 429 691
f 678 680 677
f 699 711 712
f 712 734 356
f 711 710 753
f 862 866 141
f 712 711 740
f 682 436 827
f 734 740 748
f 866 870 137
f 214 687 808
f 748 756 758
f 664 816 652
f 872 133 135
f 198 687 214
f 754 182 768
f 872 874 131
f 665 659 658
f 758 765 766
f 658 648 653
f 766 764 758
f 776 770 777
f 668 198 170
f 117 923 116
f 787 786 789
f 929 330 822
f 533 822 322
f 556 336 330
f 531 322 523
f 899 920 833
f 662 444 889
f 346 323 256
f 491 482 620
f 116 880 911
f 911 20 116
f 382 491 620
f 911 932 20
f 932 886 99
f 645 443 662
f 930 382 611
f 382 930 516
f 886 824 199
f 605 531 930
f 491 508 848
f 628 170 902
f 256 347 346
f 482 848 479
f 891 896 93
f 347 256 861
f 820 617 739
f 866 819 817
f 605 594 593
f 896 901 85
f 929 593 582
f 612 881 885
f 901 905 83
f 826 451 653
f 451 457 180
f 672 659 665
f 441 180 851
f 79 905 796
f 436 673 672
f 436 851 827
f 909 914 75
f 682 673 436
f 914 916 71
f 584 902 897
f 876 86 342
f 69 916 1
f 829 433 827
f 700 808 694
f 788 3 916
f 853 829 417
f 409 61 48
f 402 48 855
f 870 817 816
f 855 29 360
f 874 816 664
f 385 361 102
f 830 880 875
f 576 897 25
f 819 634 817
f 68 69 1
f 106 856 730
f 743 736 738
f 910 242 236
f 862 857 819
f 744 879 102
f 880 830 831
f 840 528 843
f 401 846 44
f 803 302 780
f 769 791 357
f 878 915 791
f 831 911 880
f 918 873 345
f 576 25 475
f 799 31 475
f 841 29 846
f 879 856 102
f 106 639 385
f 573 564 876
f 911 831 802
f 342 556 876
f 337 339 332
f 25 510 515
f 350 29 841
f 564 573 892
f 892 582 912
f 510 25 56
f 864 906 837
f 312 328 337
f 929 822 593
f 33 35 258
f 871 360 29
f 840 860 835
f 864 158 863
f 29 855 44
f 916 914 917
f 808 687 812
f 594 307 312
f 307 305 328
f 916 917 788
f 33 56 927
f 840 835 809
f 307 594 605
f 736 743 361
f 531 516 930
f 290 277 305
f 852 109 927
f 318 835 860
f 21 844 529
f 852 59 112
f 620 393 611
f 102 743 744
f 112 113 852
f 751 763 762
f 647 785 762
f 805 747 751
f 252 268 254
f 230 835 229
f 487 641 635
f 637 879 467
f 124 851 164
f 809 230 221
f 161 142 176
f 807 732 805
f 247 234 254
f 230 809 835
f 808 700 807
f 345 637 186
f 176 184 191
f 812 694 808
f 204 849 223
f 849 204 191
f 813 688 812
f 635 648 725
f 849 184 198
f 815 613 813
f 815 636 613
f 217 223 849
f 659 191 204
f 217 234 223
f 191 184 849
f 859 480 421
f 795 213 511
f 245 461 243
f 878 865 859
f 802 886 932
f 191 659 867
f 452 718 889
f 223 234 247
f 176 142 184
f 246 254 234
f 865 493 486
f 293 771 357
f 268 247 254
f 771 769 357
f 805 264 735
f 268 252 390
f 161 113 112
f 486 493 488
f 390 252 274
f 867 673 746
f 264 751 279
f 274 277 390
f 746 682 152
f 281 848 287
f 827 433 682
f 808 703 214
f 152 691 109
f 109 852 113
f 476 859 421
f 296 305 277
f 476 595 877
f 305 307 928
f 196 293 292
f 595 476 820
f 726 807 700
f 752 293 357
f 307 328 312
f 310 328 305
f 56 59 852
f 292 752 799
f 328 310 323
f 886 825 824
f 312 337 332
f 807 703 808
f 891 824 782
f 193 292 189
f 844 21 22
f 429 853 409
f 109 697 927
f 56 33 510
f 105 559 553
f 339 337 346
f 346 714 339
f 51 346 347
f 317 926 927
f 564 690 876
f 863 844 232
f 799 868 292
f 510 33 258
f 843 528 529
f 844 863 842
f 861 840 843
f 861 158 347
f 861 860 840
f 752 915 31
f 158 843 842
f 843 158 861
f 842 529 844
f 919 837 906
f 906 232 907
f 809 528 840
f 730 873 918
f 730 856 873
f 873 856 879
f 856 106 385
f 817 634 645
f 837 919 838
f 817 652 816
f 919 906 907
f 919 536 537
f 743 102 361
f 904 669 838
f 898 669 904
f 669 898 38
f 703 807 721
f 405 404 838
f 669 405 838
f 922 833 836
f 294 285 887
f 361 385 402
f 869 645 634
f 830 875 664
f 916 3 1
f 864 51 347
f 402 855 361
f 909 801 914
f 397 890 374
f 48 44 855
f 796 909 77
f 879 637 873
f 901 798 905
f 580 925 397
f 48 402 706
f 896 800 901
f 891 823 896
f 409 62 61
f 853 62 409
f 881 413 417
f 417 62 853
f 86 407 299
f 459 893 882
f 199 891 95
f 830 465 831
f 829 426 417
f 426 829 124
f 426 881 417
f 124 829 827
f 433 829 853
f 886 802 825
f 774 894 883
f 851 124 827
f 164 884 124
f 441 851 436
f 180 164 851
f 443 869 164
f 911 802 932
f 715 830 664
f 874 664 875
f 736 361 360
f 451 180 441
f 457 452 889
f 889 444 457
f 866 817 870
f 106 35 639
f 459 718 452
f 826 452 457
f 452 826 245
f 451 826 457
f 862 819 866
f 858 857 862
f 461 245 826
f 459 882 718
f 479 243 461
f 854 931 858
f 850 925 854
f 846 401 580
f 845 890 850
f 491 848 482
f 848 281 479
f 825 494 883
f 382 508 491
f 900 832 767
f 508 287 848
f 896 823 800
f 839 890 845
f 504 782 824
f 42 374 839
f 516 508 382
f 908 910 318
f 534 524 523
f 552 818 548
f 42 172 173
f 901 800 798
f 818 552 900
f 533 322 531
f 871 175 737
f 868 187 189
f 22 232 844
f 593 822 533
f 822 315 316
f 929 556 330
f 330 315 822
f 838 919 537
f 904 838 537
f 318 860 834
f 908 318 834
f 465 830 715
f 556 342 336
f 105 836 559
f 833 559 836
f 29 44 846
f 908 834 804
f 562 917 828
f 299 836 105
f 818 900 767
f 832 553 559
f 562 832 920
f 811 315 548
f 828 801 821
f 801 828 917
f 821 797 814
f 836 299 903
f 401 590 580
f 797 821 801
f 905 798 796
f 796 814 797
f 810 548 818
f 814 798 806
f 798 814 796
f 909 796 797
f 811 548 810
f 413 587 590
f 404 51 837
f 51 864 837
f 837 838 404
f 909 797 801
f 529 842 843
f 158 842 863
f 232 906 863
f 800 806 798
f 529 528 511
f 794 811 806
f 785 908 804
f 785 647 908
f 859 877 878
f 526 534 794
f 877 571 878
f 571 31 915
f 173 351 42
f 524 783 509
f 350 173 175
f 29 350 871
f 823 526 794
f 783 524 526
f 526 823 782
f 42 351 374
f 841 374 351
f 504 775 783
f 509 783 775
f 782 823 891
f 885 124 884
f 887 757 779
f 914 801 917
f 426 885 881
f 890 397 925
f 825 504 824
f 775 504 883
f 925 587 931
f 587 925 580
f 802 494 825
f 785 279 762
f 494 831 465
f 831 494 802
f 894 287 775
f 590 895 413
f 438 897 576
f 884 164 869
f 762 279 751
f 423 931 587
f 587 413 423
f 931 423 857
f 762 761 647
f 617 820 476
f 595 820 621
f 751 755 763
f 893 459 243
f 751 264 805
f 609 857 423
f 423 881 612
f 662 443 444
f 721 805 735
f 621 584 595
f 857 609 819
f 443 645 869
f 612 885 627
f 636 621 820
f 628 902 584
f 805 721 807
