# avbd fit, rung k100-i32-s300-b1e-1 of Gate 6d (body space)
v -0.018887598 0.607383728 0.002137047
v -0.108088695 0.588949978 0.070568487
v -0.020694241 0.616215706 0.017950339
v 0.001943565 0.929578900 0.076398291
v -0.159148008 0.567595005 0.055616535
v 0.000938264 0.950444818 0.075697891
v -0.017874643 0.645639360 -0.002261859
v -0.017064264 0.631444097 0.009051218
v -0.159815609 0.588355720 0.055866409
v 0.151226282 0.949261367 -0.095927581
v -0.183353603 0.581920266 0.052866869
v -0.181625724 0.584042192 0.029305711
v -0.196991891 0.582485080 0.013497417
v -0.158624128 0.587542653 -0.081558794
v 0.014925075 0.590517640 -0.001433522
v -0.146144912 0.577658117 -0.066558987
v 0.032804780 0.588364422 -0.001016721
v -0.128235847 0.579958439 -0.079067305
v -0.107967235 0.588769555 -0.085713819
v 0.188806355 0.528376937 0.005608965
v 0.001348747 0.890476048 0.070712611
v 0.000820619 0.870872974 0.067941457
v -0.092556939 0.588297367 -0.070454858
v -0.076529726 0.600612938 -0.063119806
v 0.094886325 0.820135117 -0.130645961
v -0.073882058 0.610424995 -0.083052680
v -0.137617797 0.904050231 -0.133527100
v -0.144746542 0.793829620 0.074933060
v 0.028828114 0.688863397 -0.054075032
v -0.162691936 0.805881619 0.071436770
v 0.069383070 0.854742348 -0.151021257
v -0.198395878 0.777938068 0.046914659
v 0.081083365 0.778553069 -0.110738441
v -0.184722051 0.582413495 -0.042143267
v 0.062148236 0.767612398 -0.105537891
v -0.163656265 0.909247100 -0.104526915
v -0.183562189 0.904536426 -0.059907801
v 0.012557002 0.754228354 0.007869877
v -0.176318675 0.905619144 -0.037717447
v -0.078324564 0.899893641 -0.155321613
v -0.030726805 0.875775993 0.070068426
v 0.012030551 0.649521470 -0.015158067
v -0.019083537 0.852221370 0.064478226
v 0.041093744 0.686072767 -0.080489054
v -0.042745031 0.855100155 0.060746692
v -0.184044704 0.915020943 -0.019114729
v -0.187814683 0.896234214 -0.000286216
v 0.053345285 0.708058000 -0.091561735
v -0.170831874 0.894364655 0.016587164
v -0.054358404 0.603957951 0.020109694
v 0.061051816 0.819880962 0.062080622
v -0.057296712 0.595862865 0.044605505
v -0.073346481 0.694765627 0.063486293
v 0.052156053 0.774201691 0.060286213
v -0.080771968 0.591165602 0.054473735
v 0.100314125 0.793204904 -0.117552474
v -0.100524746 0.688172162 0.075042501
v -0.177753881 0.692573130 0.064123437
v 0.118694104 0.808008671 -0.125484958
v -0.204426676 0.689398170 0.032120086
v 0.066086650 0.686621070 -0.090207577
v 0.089026928 0.679328084 -0.098273054
v -0.208819345 0.790485620 0.026004473
v -0.203737184 0.814328194 0.024135761
v -0.211149499 0.689521492 -0.037747443
v -0.194147199 0.685309529 -0.058491774
v -0.183784410 0.700595915 -0.074869439
v -0.019975383 0.622826159 -0.006652798
v 0.013911222 0.617857635 -0.005335963
v -0.164260775 0.687351465 -0.088576905
v 0.032792147 0.605701685 -0.005036461
v -0.110649861 0.700697541 -0.116577886
v 0.050623298 0.588691354 0.002531810
v -0.022461513 0.760343492 -0.065439746
v 0.051417314 0.566106141 0.005114052
v -0.098803319 0.903617501 -0.149510607
v 0.062322181 0.553344965 0.019285887
v -0.117200471 0.906319141 -0.140951246
v 0.072734043 0.544583023 0.034544516
v -0.126304910 0.887619197 -0.138934642
v 0.086584978 0.538657844 0.047922373
v -0.142485932 0.922686696 -0.119188465
v 0.103737369 0.534327149 0.056745179
v -0.176524356 0.864962697 -0.083348244
v 0.120660052 0.530965030 0.064502582
v 0.036348127 0.730977356 0.038784076
v -0.158493370 0.895535588 0.051412761
v -0.127319843 0.805824637 -0.123311438
v -0.160548642 0.624634683 0.061640203
v 0.138048500 0.529505849 0.061596233
v -0.144900396 0.814349771 -0.109504238
v -0.021360561 0.811767697 0.033988170
v 0.156035364 0.528618932 0.062945783
v -0.038908459 0.809267819 0.050079245
v 0.153583393 0.538999140 0.048063096
v -0.026253467 0.831125438 0.051638223
v 0.169986323 0.537122011 0.055230428
v -0.018790562 0.896836758 0.074352607
v 0.175693318 0.533408046 0.038584284
v -0.064744249 0.918399811 -0.155292660
v 0.183497399 0.530790627 0.022803441
v 0.021042403 0.763690591 -0.062172085
v -0.090737566 0.879968643 -0.153206274
v -0.109511018 0.641275525 0.075358316
v 0.032277506 0.709839404 0.026607802
v 0.042820759 0.771474719 -0.099392772
v -0.123063348 0.866401851 -0.139979035
v -0.141702071 0.620983720 0.069384620
v 0.122627512 0.756746888 -0.119817398
v -0.137082428 0.853650093 -0.126978457
v 0.133076698 0.822356105 -0.116237044
v 0.140763834 0.797693312 -0.111792400
v 0.139379591 0.771263599 -0.110428691
v -0.167609066 0.646566749 0.061207484
v -0.148639351 0.840897202 -0.109219924
v 0.195807070 0.526725888 -0.011998294
v 0.194394618 0.527887464 -0.029460549
v -0.196543723 0.633553982 0.031272925
v 0.152609617 0.820237339 -0.108188227
v -0.170313299 0.851872563 -0.103814244
v -0.193828300 0.849112868 -0.068373084
v -0.196300536 0.864035964 -0.051330078
v -0.054656338 0.842673302 -0.145815462
v 0.148645490 0.668164968 -0.096294813
v -0.180698842 0.839880168 0.049678799
v -0.196519703 0.836693764 0.025265938
v -0.126774579 0.832947254 0.073689401
v -0.140230015 0.850223362 0.064643949
v 0.187055111 0.530303419 -0.047454756
v -0.015520887 0.836210549 -0.128835842
v 0.179565817 0.535508037 -0.063015595
v -0.036638163 0.829764724 -0.131704897
v 0.159095809 0.539830565 -0.076706603
v -0.025855293 0.698967814 -0.052679308
v 0.172727153 0.526778579 -0.077196307
v -0.117039762 0.903246045 0.049622558
v 0.159812286 0.529089749 -0.089497618
v -0.095816098 0.901344478 0.061041635
v 0.140992746 0.533315420 -0.087711915
v -0.017931711 0.817895234 -0.112958036
v 0.123254620 0.535403788 -0.088683665
v 0.167361334 0.804473698 -0.103417970
v -0.025640752 0.807856202 -0.091194935
v 0.108645618 0.538274705 -0.080095738
v -0.039924864 0.812510490 -0.115299329
v -0.185333505 0.810156524 -0.092099428
v 0.094676755 0.542401135 -0.069930926
v -0.159949020 0.915084004 0.033245858
v 0.079748683 0.546966136 -0.061337911
v -0.025459215 0.727511287 -0.067052290
v 0.065319121 0.552508235 -0.052203536
v 0.137593061 0.748500347 -0.107426479
v 0.059559740 0.560342014 -0.037314396
v -0.101203308 0.758037686 -0.117813371
v 0.052771397 0.569583237 -0.023671493
v -0.053887434 0.664467812 -0.085454546
v 0.044206165 0.578109562 -0.010352453
v 0.056342084 0.862876117 0.060375005
v -0.188901529 0.770408928 -0.082233891
v -0.199831814 0.586960793 -0.023292203
v 0.159922034 0.779754758 -0.104622461
v -0.214909315 0.789027452 -0.034987658
v -0.217461556 0.744801521 -0.025336137
v 0.157134280 0.657427669 -0.075303681
v -0.210616320 0.730530143 -0.044919703
v -0.019518744 0.617976129 -0.023799080
v 0.018410953 0.603557706 -0.018821348
v -0.021107281 0.601598501 -0.015271828
v -0.019370619 0.636627138 -0.018206410
v 0.174399108 0.832808375 -0.102304235
v -0.199001461 0.737872481 -0.062114697
v -0.017129440 0.654825032 -0.018991973
v -0.017106093 0.673347890 -0.020807279
v -0.215106562 0.725558400 -0.004457910
v -0.016125845 0.692877650 -0.023909090
v 0.178676516 0.786585331 -0.095761418
v -0.172415927 0.735535324 -0.092203952
v -0.096546285 0.565362573 -0.071647190
v -0.211619020 0.735926986 0.024865530
v 0.179727301 0.673316061 -0.076304130
v -0.205568671 0.712961495 0.035086527
v -0.085755579 0.740423620 -0.108309373
v -0.069350906 0.725055099 -0.100632742
v 0.187541336 0.807746768 -0.088661142
v -0.039901644 0.791738391 -0.102656566
v -0.000862147 0.817602634 -0.090168551
v 0.000352544 0.829753876 -0.105806410
v -0.105952524 0.877168953 0.056998461
v 0.000434507 0.844127476 -0.118646041
v -0.127569363 0.866931796 0.057230514
v 0.191530302 0.778290689 -0.079814687
v -0.113986611 0.853438199 0.068563595
v 0.000194517 0.860634148 -0.127956957
v -0.133862495 0.887367129 0.049043395
v -0.160700545 0.725050390 0.071138002
v 0.000574842 0.878481746 -0.132350519
v -0.125951752 0.925672174 0.043593075
v 0.192929938 0.833133042 -0.074988261
v 0.170246482 0.554042935 0.039057337
v 0.000386693 0.897376657 -0.133610338
v -0.141346574 0.910970330 0.046171516
v 0.000314986 0.916850090 -0.133748591
v -0.162503764 0.855066001 0.061656423
v 0.202567294 0.767946124 -0.060140055
v -0.159643263 0.874419987 0.045947816
v -0.216839910 0.780182242 0.004822294
v -0.000541984 0.936438262 -0.131466866
v -0.139867991 0.917745948 0.028385332
v -0.146924108 0.892543495 0.031523295
v -0.152261510 0.908187211 0.011829282
v -0.139397308 0.718261600 0.080584869
v 0.037145037 0.952488422 0.074282035
v 0.019016862 0.951834857 0.075361475
v 0.203888535 0.849772334 -0.053223919
v 0.001507493 0.910290718 0.072702602
v -0.171631902 0.916094482 0.000055887
v 0.209315747 0.819101155 -0.050892718
v -0.172658324 0.928894043 -0.029857218
v -0.175014362 0.927034974 -0.049327295
v -0.067112662 0.638148606 -0.085803591
v 0.055285972 0.952553749 0.070443377
v 0.203631356 0.833930373 -0.031744286
v 0.214567214 0.785249352 -0.041982222
v -0.176294208 0.926544309 -0.071041398
v -0.154639021 0.933807969 -0.105643176
v -0.125114948 0.926941276 -0.133589029
v -0.154817909 0.866008878 -0.116457961
v -0.094434515 0.636416137 -0.088857852
v 0.090157971 0.950295925 0.060559087
v 0.073317401 0.951737285 0.066345528
v -0.102280021 0.860447526 -0.147351503
v 0.000467260 0.851949036 0.062162064
v -0.109493889 0.883658409 -0.146240801
v 0.210215598 0.807408035 -0.026050936
v -0.108975992 0.618175149 -0.095199190
v 0.104402460 0.949427962 0.049815755
v -0.029941231 0.699401021 0.019648507
v -0.037034206 0.587910056 0.014504664
v 0.204822987 0.848063648 -0.014130180
v -0.205471471 0.840040326 -0.041989103
v -0.043345887 0.642077863 0.026339125
v 0.119784519 0.945072651 0.042366039
v 0.209917217 0.674904466 -0.005788324
v -0.061015535 0.579359472 0.021832177
v 0.210634708 0.673976183 -0.026765425
v 0.210448787 0.825313389 -0.008072394
v 0.215556458 0.781756341 -0.013492562
v -0.050923735 0.649871349 0.046046648
v -0.067249678 0.568966448 0.048450381
v -0.094520643 0.567774177 0.056884922
v -0.090329140 0.631839633 0.064524792
v 0.209763452 0.812566102 0.018525392
v -0.091855615 0.609633803 0.062779494
v 0.214790732 0.802605271 -0.003187131
v -0.053405650 0.832813621 0.054798186
v 0.102289811 0.852916420 0.074719362
v -0.109412611 0.616976440 0.073341459
v 0.061217748 0.787384629 -0.106393494
v -0.117448747 0.561703324 0.070167370
v -0.188289806 0.643091738 -0.054960974
v -0.127366647 0.629527211 0.079830825
v -0.138196021 0.580749869 0.070005901
v 0.056986310 0.806356132 -0.111034788
v 0.174312979 0.874521554 0.024991740
v -0.129255742 0.604684412 0.076692961
v -0.188090995 0.623530030 -0.044499017
v -0.141802073 0.556462824 0.063992485
v 0.215687349 0.784701943 0.012144988
v 0.210922197 0.765174508 0.025204610
v -0.147429094 0.874166489 0.064167641
v -0.147945344 0.604044497 0.061861169
v -0.179417461 0.556090236 0.054431874
v 0.195807293 0.833131492 0.028273176
v 0.194834664 0.807522476 0.042128455
v -0.184511095 0.627833247 0.056221586
v -0.172962397 0.605385482 0.061202370
v 0.191321343 0.782968760 0.057166420
v -0.174223498 0.560232162 0.034567513
v 0.157625601 0.881153584 0.043770067
v -0.182805687 0.608170807 0.039663099
v 0.208060712 0.668664932 0.016130671
v -0.051225819 0.951864541 0.070946060
v -0.198276982 0.605463266 0.021545300
v -0.023482462 0.922995746 0.078461759
v 0.183206588 0.827240109 0.049280711
v -0.173644811 0.859491229 0.043241266
v 0.197065711 0.661891639 0.037351370
v -0.168678313 0.873369396 0.026560802
v -0.197340697 0.598247051 -0.000624219
v 0.183953792 0.760288596 0.066075817
v -0.186013013 0.856252551 0.025946107
v 0.018925110 0.853286088 -0.140579343
v 0.021434266 0.880303085 -0.146855980
v 0.168460235 0.824092090 0.065727845
v -0.027692530 0.932630420 -0.141225651
v 0.179174528 0.804027200 0.064356521
v -0.201900691 0.623779774 0.005966202
v -0.018207479 0.908116698 -0.144769520
v 0.021566510 0.733001769 0.015543620
v -0.036692910 0.631041706 -0.027579779
v -0.040605575 0.910558820 -0.148598194
v 0.149460733 0.834913075 0.070090733
v -0.051151276 0.931523204 -0.144562364
v -0.188625813 0.876569390 0.014563200
v 0.165573567 0.779514015 0.074427880
v -0.202461571 0.855232835 0.009641204
v 0.143523291 0.759778440 0.078705624
v -0.193271816 0.864387691 -0.029142380
v -0.204590127 0.847661197 -0.013921256
v 0.153188616 0.808495164 0.074214675
v -0.198207021 0.872843266 -0.007343861
v 0.121068157 0.770947099 0.085353747
v -0.192704618 0.561136365 -0.031850882
v -0.204272315 0.611493886 -0.015222570
v 0.097313553 0.664896786 0.072144374
v 0.120549634 0.660685182 0.080365270
v 0.088100985 0.733840346 -0.109269358
v 0.101527199 0.917379081 0.054137964
v -0.035143785 0.645752549 0.005810688
v 0.111186028 0.935139179 0.056995619
v -0.184072345 0.883345902 -0.045898400
v 0.131847531 0.682221770 0.081441641
v 0.123601004 0.823186517 0.079096980
v -0.203759119 0.624679208 -0.030270264
v -0.188644618 0.879171371 -0.067721903
v 0.127293840 0.933830619 0.053087581
v -0.168343753 0.880989909 -0.102710404
v 0.136972263 0.789231896 0.079493836
v -0.058934737 0.783541203 -0.106111571
v 0.085150659 0.690042973 0.068767652
v -0.174907818 0.562412977 -0.049508039
v 0.097646281 0.774456978 0.080163032
v -0.194934532 0.604182541 -0.036024362
v -0.178357556 0.621428072 -0.065163270
v -0.156562641 0.561582267 -0.062027819
v 0.060626261 0.688524842 0.058514901
v 0.110492148 0.797343493 0.084161974
v -0.056727309 0.744888425 -0.101908997
v 0.087866433 0.793335736 0.077287517
v -0.165316969 0.583536327 -0.060262959
v -0.181082949 0.640192926 -0.079891644
v 0.046630621 0.708530784 0.049311239
v -0.075043187 0.764484465 -0.107876875
v -0.176921368 0.567177474 -0.072108515
v 0.015622484 0.811102033 -0.104692303
v 0.089676976 0.821084857 0.078295588
v 0.074113406 0.844941914 0.067931451
v -0.165603578 0.616154134 -0.084293045
v 0.135712057 0.938121498 0.038783498
v 0.017207853 0.685109556 -0.026597913
v 0.021012712 0.665861964 -0.021979189
v -0.153149679 0.559874713 -0.081703521
v 0.144631818 0.941261590 0.023651082
v -0.124526367 0.757665873 -0.121541634
v 0.152192742 0.943006396 0.007710728
v -0.142795861 0.621158421 -0.078981377
v 0.045505531 0.889862537 -0.150138438
v -0.157957569 0.605544746 -0.066167310
v 0.166213840 0.947666049 -0.002202532
v 0.024121350 0.713732421 -0.052317984
v 0.024141084 0.736103117 -0.064816743
v -0.133580044 0.739164472 -0.108172141
v 0.170795947 0.944997668 -0.019247439
v -0.140990168 0.761859834 -0.107213832
v -0.104296163 0.926074982 -0.139370650
v -0.044305231 0.904200375 0.071424589
v 0.170533106 0.941514134 -0.035983618
v -0.132978156 0.554102182 -0.074489340
v -0.155995324 0.748413086 -0.100725748
v -0.140888244 0.598009467 -0.075494073
v -0.151776642 0.893390000 -0.117664374
v 0.175402790 0.937734127 -0.051675826
v -0.175033167 0.759576261 -0.094757989
v 0.035533525 0.646461964 -0.029952770
v -0.113898471 0.560746431 -0.083080068
v -0.188189223 0.748053432 -0.079346038
v 0.177933395 0.935401618 -0.069161601
v -0.141382426 0.877784371 -0.130880475
v 0.166041926 0.930701554 -0.081818007
v -0.200549275 0.766481221 -0.063663147
v -0.124544814 0.606876969 -0.083436020
v 0.189040065 0.707040906 0.061317395
v 0.163963228 0.945318997 -0.063026093
v -0.210548759 0.750294268 -0.049274363
v 0.030217335 0.754065931 -0.085392602
v -0.078554913 0.574108303 -0.057296086
v -0.039655831 0.608987153 -0.027049461
v 0.160840198 0.947916687 -0.080700338
v -0.214118883 0.769393563 -0.042009048
v 0.204521894 0.785759568 0.034665156
v -0.027671725 0.680085540 0.011372870
v 0.139941156 0.950574577 -0.109095439
v 0.200768620 0.756708443 0.047019906
v -0.062078904 0.767197311 0.065033309
v -0.094777323 0.610223234 -0.079674013
v -0.073787481 0.579197109 -0.079869613
v 0.036782093 0.638846993 -0.055736441
v -0.080986246 0.627650857 -0.072595485
v -0.057190865 0.605660558 -0.068142764
v -0.058441497 0.583296895 -0.056170456
v 0.055909850 0.665559471 -0.079691187
v 0.038783554 0.729862392 -0.089954786
v -0.197956979 0.728130937 0.052015275
v 0.043299865 0.796079516 0.054495174
v 0.032426830 0.774892688 0.041562431
v -0.199963242 0.753117919 0.049371686
v 0.027730633 0.753567100 0.028568367
v -0.025979962 0.780953526 -0.082009420
v 0.082247116 0.706838548 -0.101419225
v -0.183297828 0.767835021 0.066525862
v -0.053225227 0.647672176 -0.072153315
v -0.060394607 0.627172470 -0.070314415
v 0.091964923 0.648107529 -0.091090426
v -0.178751856 0.742572784 0.068842009
v -0.047856197 0.614507854 -0.048427664
v 0.127129734 0.951040089 -0.119712755
v 0.109037593 0.667576075 -0.102597073
v -0.042155333 0.632566094 -0.063240573
v -0.157245070 0.760433733 0.075015888
v -0.034672312 0.667022347 -0.064579830
v 0.111870766 0.951362312 -0.127443761
v -0.034524806 0.646610141 -0.042940594
v 0.100445390 0.618405223 -0.087098032
v -0.193982631 0.573818564 -0.005858735
v -0.191535130 0.558438122 0.017496433
v 0.127060488 0.662348986 -0.092588939
v -0.146159232 0.739977181 0.078616068
v -0.128300250 0.755117059 0.084978960
v 0.105603419 0.717565298 -0.113044903
v -0.076030858 0.834599972 0.068260983
v -0.068568125 0.951768994 0.067067698
v -0.114986256 0.730650663 0.083719887
v 0.126264304 0.708819807 -0.105894029
v -0.102277696 0.752865374 0.080593094
v -0.086137749 0.813152909 0.075452760
v 0.162809312 0.712449372 -0.087684408
v -0.086420096 0.734108627 0.072504520
v 0.116463207 0.865548253 -0.142622262
v -0.072681829 0.790098310 0.069974236
v -0.098581731 0.793349862 0.081025705
v 0.180299357 0.699643075 -0.079240069
v -0.088415109 0.772678733 0.075855747
v 0.164532870 0.631808639 -0.073095962
v 0.180192500 0.647502363 -0.070586562
v -0.079870135 0.753964543 0.071254522
v -0.060912609 0.742736518 0.062589131
v -0.112730682 0.773885250 0.084556893
v -0.026598278 0.767092466 0.028455397
v -0.123726919 0.794221759 0.083287075
v -0.112067617 0.814489186 0.083555922
v 0.192606986 0.692164302 -0.061363339
v 0.202432081 0.656555474 -0.039609052
v -0.061712105 0.810433745 0.062624991
v -0.138277367 0.775629580 0.080268115
v -0.042500876 0.678117454 0.034957536
v -0.137750283 0.812704206 0.075243868
v 0.191679850 0.665594757 -0.057580162
v -0.157697707 0.830770850 0.069380745
v 0.208774045 0.652924061 -0.019578647
v -0.183911547 0.792497873 0.064369775
v 0.215242118 0.701512516 -0.021644404
v -0.163581252 0.782410741 0.074121937
v -0.068246767 0.857430100 0.059015892
v -0.180129915 0.816372395 0.059735376
v 0.201829866 0.607172608 -0.016292747
v -0.071629487 0.902493775 0.068184748
v -0.007638868 0.792466998 -0.058164783
v -0.066621356 0.926360965 0.069258563
v -0.191031024 0.821669877 0.040702071
v -0.210648492 0.764407694 0.026187712
v -0.046085566 0.931225002 0.072565757
v -0.003518129 0.806811213 -0.073126405
v -0.101731502 0.948674560 0.054474622
v -0.216591835 0.752957761 0.001865680
v 0.075091280 0.834452927 -0.141278908
v 0.122955978 0.914573669 -0.136642620
v -0.210246205 0.831583619 0.006153913
v -0.086001813 0.950655162 0.062700927
v 0.212497398 0.697160661 0.006151216
v 0.094016999 0.951508641 -0.128548965
v -0.186438322 0.888508141 -0.023347307
v 0.210024908 0.714750409 0.023894737
v -0.215763360 0.771163166 -0.017995380
v -0.213354468 0.797285497 -0.015893025
v -0.208665282 0.822480083 -0.017253758
v 0.102305666 0.938840389 -0.138481230
v 0.215819553 0.758603871 0.003974105
v 0.079649448 0.944734216 -0.137116581
v -0.090300769 0.857400537 0.073389538
v -0.013430757 0.881879330 -0.143474057
v 0.200560167 0.703918636 0.042988848
v 0.060001217 0.952033162 -0.134354353
v 0.066240296 0.933036447 -0.144322515
v 0.196334571 0.598953784 0.010711322
v -0.088737503 0.924950302 0.064024925
v -0.015141094 0.857768178 -0.140460327
v -0.207069248 0.792034268 -0.055824123
v -0.169645488 0.897034526 -0.081072994
v -0.099965222 0.835452735 0.080242470
v 0.039802976 0.954788983 -0.132602602
v -0.195102781 0.791904688 -0.076371498
v 0.019490857 0.956057847 -0.130155489
v -0.163786829 0.799237430 -0.105420791
v 0.180887744 0.608370125 0.042736560
v -0.180144519 0.784768343 -0.095850378
v 0.018107409 0.941244125 -0.135934591
v -0.001015596 0.955705464 -0.126286820
v 0.194085151 0.681546271 0.052941363
v 0.184760183 0.655044377 0.058957327
v 0.079047665 0.803977847 -0.112359978
v 0.021964552 0.917565167 0.075250290
v -0.168331534 0.825425506 -0.104328409
v -0.159866124 0.773806214 -0.104266547
v -0.162271515 0.926949978 -0.088123687
v 0.064123496 0.820532322 -0.125856668
v 0.170724243 0.680770874 0.065479040
v -0.139237255 0.786170542 -0.112575904
v -0.057245594 0.566027284 -0.035255887
v -0.106538773 0.799057782 -0.122045778
v -0.065343328 0.560270309 -0.050846655
v -0.085141055 0.555407047 -0.059094537
v -0.116648220 0.780539155 -0.124113932
v 0.145899549 0.666648149 0.073288575
v 0.159450457 0.647183001 0.063816510
v -0.068274990 0.544935644 -0.059744161
v 0.149980277 0.617245555 0.065526702
v -0.116568804 0.843868136 -0.136538774
v 0.045332447 0.910594106 0.071971528
v 0.029239196 0.893129349 0.072691463
v -0.083902106 0.539653122 -0.066350393
v 0.150241673 0.695809305 0.073827185
v -0.105798386 0.823364556 -0.125659272
v 0.130891174 0.703157008 0.082730561
v 0.135802701 0.638476014 0.077098742
v -0.099184409 0.537963748 -0.075395413
v -0.001465770 0.821965039 0.037852202
v -0.003020718 0.809457898 0.021915551
v -0.088271461 0.805496514 -0.114332937
v -0.112759270 0.534391522 -0.085911348
v -0.077692449 0.856479049 -0.151739612
v -0.095106274 0.781590641 -0.115460590
v -0.129312694 0.534986615 -0.087970994
v -0.146365657 0.532891214 -0.085498407
v -0.164392740 0.533433676 -0.084106006
v -0.043103687 0.783962131 0.056524716
v -0.025332157 0.790461659 0.032449629
v 0.076540209 0.671115160 0.063472964
v 0.079598561 0.647928834 0.062783979
v -0.178865641 0.534319282 -0.073466927
v -0.155777961 0.542889535 -0.071840301
v -0.029130559 0.721494079 0.023850460
v 0.058134459 0.664897323 0.055119704
v 0.043121364 0.685072303 0.037262298
v -0.170447931 0.545669198 -0.062284701
v -0.073234424 0.835106373 -0.142625630
v 0.068979137 0.710062623 0.063998781
v -0.180667609 0.537762165 -0.049870376
v -0.044895481 0.701901793 0.047964875
v 0.027787555 0.689832389 0.013565317
v -0.036962241 0.660953224 0.020512942
v -0.094240025 0.838218868 -0.142438963
v 0.028442968 0.643481374 0.000535746
v -0.056898028 0.674473822 0.058037449
v 0.063455209 0.752515733 0.064623103
v -0.045688000 0.626788914 0.013249067
v -0.050645549 0.621545613 0.037185621
v -0.053627051 0.866678119 -0.152205735
v -0.071179308 0.878779590 -0.154465422
v -0.065062717 0.718751788 0.063132644
v -0.056078739 0.892958283 -0.152889818
v 0.092625067 0.871399224 -0.152093157
v -0.191456690 0.533163488 -0.037062690
v 0.077287838 0.731905162 0.069172457
v -0.067685075 0.621003926 0.056533772
v -0.092974976 0.711489081 0.073674873
v 0.096923575 0.846165955 -0.144709885
v -0.071642913 0.649924994 0.060791850
v -0.083322965 0.672191799 0.065385088
v -0.081320085 0.880143523 0.067909673
v 0.053478837 0.639969945 -0.072377309
v -0.055947818 0.879796982 0.065729044
v 0.099858083 0.734895170 0.078556150
v -0.092828415 0.652376831 0.067803204
v 0.138569266 0.862668514 -0.128672168
v -0.194315270 0.532010376 -0.020781042
v -0.027301271 0.744165719 0.025335025
v 0.076989174 0.625395656 -0.075685456
v -0.188071951 0.531676173 0.013747898
v -0.128634274 0.678660154 0.083619818
v 0.071624264 0.648773551 -0.079480276
v -0.181488022 0.533407807 0.029421041
v -0.108030640 0.665119171 0.076107055
v 0.115877785 0.718818128 0.083168767
v 0.123629197 0.743429184 0.085165791
v 0.131968111 0.887625992 -0.136935323
v -0.169675976 0.535499454 0.042819265
v -0.117916979 0.704473138 0.082983211
v -0.160452813 0.549202979 0.049393382
v -0.128850758 0.653408408 0.081875794
v -0.161431640 0.533668876 0.057833932
v -0.144520789 0.536320567 0.058686160
v -0.140122429 0.697943091 0.079957381
v -0.148692906 0.662642062 0.069665059
v -0.131414324 0.536930442 0.068747625
v 0.143457472 0.726674736 0.078165606
v -0.154821977 0.683964014 0.070879467
v -0.115327954 0.538933873 0.064178497
v -0.101445593 0.542138517 0.054014333
v 0.122616351 0.606256843 -0.082924291
v -0.158857346 0.705275118 0.070171610
v 0.187277943 0.735031247 0.063966885
v 0.123376869 0.625968993 -0.086998336
v 0.161325917 0.924178004 -0.098817624
v -0.084036231 0.543550789 0.051127750
v -0.145228952 0.640934706 0.069273748
v -0.072601497 0.548233926 0.038301133
v 0.133361220 0.932197928 -0.125030488
v -0.064362571 0.553464830 0.023464484
v -0.055322938 0.560613453 0.009658878
v 0.201497942 0.727908671 0.044902146
v 0.150973350 0.883860707 -0.121753834
v -0.046248809 0.569198668 -0.003064771
v -0.034890343 0.583752573 -0.013881180
v -0.180536777 0.716420412 0.065183438
v -0.038477845 0.601197720 -0.009122556
v -0.173538700 0.669326425 0.063072622
v 0.141717747 0.616173506 -0.085218705
v 0.160881430 0.860040784 -0.111963645
v 0.211828709 0.740866840 0.024233438
v -0.196359023 0.702669740 0.052929781
v -0.191158921 0.652470767 0.052717306
v -0.194326937 0.677840352 0.052049290
v -0.030841807 0.748514235 -0.089107409
v 0.167329848 0.611616671 -0.080467694
v 0.217358142 0.755935431 -0.020041879
v 0.156781450 0.904843807 -0.111338221
v 0.011873278 0.802534938 -0.079978362
v -0.044665314 0.767059147 -0.100664414
v 0.050766397 0.749272704 -0.099968061
v -0.041941889 0.729806125 0.047856294
v 0.215552762 0.728014767 -0.002324774
v -0.200881675 0.663103998 0.030862305
v -0.213495702 0.706354380 0.013825513
v -0.195372075 0.801211238 0.044352662
v 0.149651796 0.605923057 -0.069226414
v -0.206199855 0.651041865 0.008330255
v 0.122463569 0.908437133 0.060985833
v 0.215803117 0.730516493 -0.030988608
v -0.210385680 0.678706229 0.009147642
v -0.213531107 0.696382999 -0.011302761
v -0.216925189 0.714866936 -0.029624742
v 0.168252841 0.597030878 -0.060790051
v 0.206308573 0.710981250 -0.046324957
v -0.207675189 0.638192952 -0.013272814
v -0.215158910 0.806546211 0.005348188
v 0.166349486 0.881247222 -0.103041843
v -0.033714943 0.951532006 0.074975148
v 0.204291746 0.738255441 -0.054406531
v 0.191023931 0.747619033 -0.076184213
v -0.080924265 0.820248961 -0.129924998
v -0.058434833 0.823753953 -0.129903451
v 0.176965624 0.620669782 -0.062679335
v -0.211980075 0.666836977 -0.018088754
v 0.179387584 0.580805838 -0.049229361
v 0.194000229 0.718537927 -0.065272830
v -0.021821870 0.955110192 -0.131018907
v -0.042104702 0.951798558 -0.134301633
v 0.178227082 0.858192563 -0.091094807
v 0.017168073 0.775685966 0.017917700
v -0.061291732 0.944449544 -0.136156470
v -0.040649466 0.755644619 0.050314434
v 0.181899711 0.723407030 -0.082595639
v 0.170027077 0.738299191 -0.092634194
v -0.079085447 0.933930039 -0.136430919
v 0.174847156 0.884014428 -0.081544988
v -0.202933431 0.644873738 -0.035386480
v -0.076318339 0.949533820 -0.145280689
v -0.086506546 0.923042893 -0.151417419
v -0.211272627 0.812343478 -0.040450655
v -0.090735413 0.947567761 -0.134732097
v -0.107433185 0.948882282 -0.129364625
v 0.146958798 0.726926029 -0.100315586
v -0.200403720 0.710705161 -0.055221360
v -0.199191004 0.819456220 -0.066655055
v -0.185201734 0.836895764 -0.088199809
v -0.200589091 0.665912330 -0.045532309
v 0.182778120 0.863345921 -0.065588735
v 0.170815021 0.920913100 -0.058626138
v -0.177626848 0.603232980 -0.050319154
v 0.041825533 0.752412081 0.050858539
v 0.126389429 0.731197655 -0.112943158
v -0.063344017 0.807128906 -0.113183402
v -0.186480805 0.724041283 -0.076397039
v 0.185135052 0.906116962 -0.072323754
v -0.077045754 0.788909197 -0.109970532
v -0.177751884 0.597626388 -0.072916396
v 0.107866958 0.740662932 -0.116525710
v -0.186796412 0.661594033 -0.066524774
v -0.165040553 0.660428822 -0.081848644
v 0.185102299 0.908619046 -0.051592506
v -0.180145800 0.679315448 -0.075607583
v -0.168566063 0.711647868 -0.090082034
v 0.194689125 0.862302303 -0.031777959
v -0.158954158 0.634980023 -0.070639357
v -0.028497616 0.672736466 -0.039340653
v 0.064899549 0.729195237 -0.100580379
v -0.123833932 0.951120257 -0.125875503
v -0.132489577 0.950013280 -0.112091258
v -0.150174245 0.724848092 -0.097858094
v -0.145380169 0.700593114 -0.093043253
v -0.144098669 0.674510717 -0.087505601
v -0.143634990 0.647285044 -0.084740430
v -0.130635485 0.829991341 -0.121990904
v 0.066588782 0.796575963 0.068060644
v 0.190948233 0.607842624 -0.044850189
v -0.152297363 0.951499641 -0.087677591
v -0.165453687 0.952393353 -0.075719461
v 0.202707529 0.630562842 -0.033702422
v -0.023628382 0.589971662 -0.000385766
v -0.164799139 0.949611306 -0.058247842
v 0.195454806 0.869080842 -0.006809367
v -0.169635594 0.949785531 -0.041210331
v -0.167104244 0.947573006 -0.024257010
v -0.172403559 0.947433174 -0.008361562
v 0.213910550 0.755682588 -0.042713620
v 0.175673395 0.917231202 -0.036551259
v -0.159975559 0.941445231 0.002378983
v -0.146240160 0.932484925 0.009975834
v -0.163245291 0.926273942 0.016241675
v 0.041851521 0.794557869 -0.099997319
v -0.139284298 0.934924304 0.026013985
v 0.175341874 0.914760590 -0.016131721
v -0.156151295 0.941420078 0.022734629
v -0.123865701 0.634070337 -0.086964503
v 0.195356011 0.863105297 0.018297471
v 0.013583976 0.727822185 -0.036566682
v -0.014382781 0.712350011 -0.029012147
v -0.013188151 0.731975555 -0.034762070
v 0.148199752 0.928652644 -0.113180675
v -0.124089755 0.661599219 -0.092169799
v -0.012232114 0.751864493 -0.040996674
v -0.127776608 0.714400828 -0.104808532
v 0.011746280 0.750583231 -0.042656243
v -0.012238445 0.772243500 -0.048338495
v -0.147451013 0.945709348 0.037038729
v 0.156656861 0.755039155 -0.101554930
v 0.174021095 0.921148598 0.004468740
v -0.110662565 0.645295739 -0.104868174
v -0.131068856 0.944492042 0.037087455
v -0.117773697 0.946690857 0.047592536
v 0.159776628 0.897669435 0.017889336
v 0.043879561 0.864148259 -0.148605794
v -0.124977469 0.688288152 -0.098253474
v -0.111021519 0.730841517 -0.121170901
v 0.155342162 0.923774421 0.011014569
v -0.110597119 0.672771454 -0.111231528
v 0.182731554 0.850439191 0.036784373
v -0.094227515 0.662964702 -0.095446326
v -0.008804077 0.753798306 0.000948079
v -0.108137213 0.924575925 0.053458929
v 0.138025850 0.918746173 0.045882992
v 0.142548680 0.899018943 0.042922221
v 0.146892250 0.918552756 0.027980343
v -0.078927979 0.654463291 -0.079785600
v -0.092348292 0.689184785 -0.101177834
v -0.072541982 0.678974032 -0.087984845
v 0.042170770 0.646551490 0.025479252
v -0.091591068 0.715013862 -0.106314436
v 0.051997222 0.913792908 -0.148940668
v -0.067197338 0.702802181 -0.095955297
v 0.025300097 0.905487835 -0.146575361
v -0.035427794 0.851887405 -0.144492984
v -0.033503868 0.881756127 -0.150564358
v 0.200491503 0.624079823 0.006232055
v 0.189580157 0.635402620 0.042209424
v -0.039468687 0.693704545 -0.082844377
v -0.043961991 0.722087502 -0.092706338
v -0.147860751 0.952675343 -0.104432903
v 0.168910518 0.863017559 0.045909688
v 0.153831452 0.860355735 0.062026381
v -0.191205874 0.551262379 -0.008774233
v 0.167626396 0.595909595 0.061205208
v 0.174732581 0.625950277 0.061119117
v -0.190674707 0.531500936 -0.004045079
v 0.138687521 0.882001758 0.063135527
v -0.049645700 0.590230823 -0.034483634
v -0.050705187 0.575648606 -0.019385533
v 0.012185901 0.629021108 0.010413338
v -0.047937833 0.587618351 -0.002110365
v -0.011809887 0.938960195 0.068841085
v 0.067160323 0.899832845 -0.155227929
v -0.016423216 0.952200294 0.080351532
v -0.037245259 0.609236836 0.008303138
v 0.126219451 0.610250652 0.077084959
v 0.039722119 0.932949245 0.073881045
v 0.070001580 0.568663001 0.047081128
v 0.060416676 0.590534568 0.042340927
v 0.095870920 0.578363061 0.060916144
v 0.045304928 0.836812198 -0.138971701
v 0.119044974 0.581632733 0.073030785
v 0.055894874 0.603637755 0.023574453
v 0.189347595 0.573833823 0.017587874
v 0.130465344 0.850079179 0.064967155
v 0.118170761 0.869449973 0.054900516
v 0.188521832 0.893694520 0.005728980
v 0.101454839 0.604526818 0.067663357
v 0.180948183 0.889051139 -0.027194124
v 0.197476298 0.882572651 -0.051734019
v 0.060560726 0.929433644 0.070481293
v 0.080345750 0.622284830 0.060191281
v 0.105756164 0.634720087 0.073413000
v 0.172028631 0.891864002 -0.059188653
v 0.167217851 0.912385762 -0.079348177
v 0.078313559 0.596204162 0.055587806
v 0.167251095 0.901484668 -0.095154181
v 0.155447468 0.571887910 -0.062957212
v 0.171390429 0.580481708 -0.079293117
v 0.055758812 0.638987839 0.050651789
v 0.139550179 0.586473703 -0.075900905
v 0.142218024 0.908624828 -0.126778811
v 0.058576174 0.613160312 0.047538143
v 0.109137550 0.689795136 0.078891754
v 0.142992109 0.587083340 0.064981230
v 0.174932435 0.580270350 0.040826753
v 0.196422443 0.589821339 0.034095950
v 0.204588503 0.684430480 -0.043957595
v 0.147017777 0.697817147 -0.099619314
v 0.051823884 0.628518939 0.025911987
v 0.127454028 0.684617400 -0.098334588
v 0.195515856 0.585018039 -0.029387787
v 0.195675284 0.580453575 -0.005432452
v 0.032876261 0.666360974 0.017496545
v 0.009598156 0.694108009 -0.001578852
v 0.101078093 0.884567261 0.059034757
v 0.081800237 0.925981045 0.066403165
v 0.015759101 0.713735819 0.005098998
v 0.038300544 0.818191350 0.046339285
v 0.022995777 0.797522366 0.030731028
v 0.024416490 0.628062248 -0.019916657
v 0.066913947 0.905478776 0.069324322
v 0.030629773 0.665075839 -0.043281179
v 0.038525965 0.873376727 0.068711981
v 0.053464103 0.887446404 0.067009971
v 0.019224357 0.871732056 0.070677102
v 0.047849689 0.604551673 -0.020172616
v 0.035927456 0.662993312 -0.067592867
v 0.075130731 0.773927569 0.070637688
v 0.204988047 0.687475562 0.029805284
v 0.200902149 0.798646569 -0.066235647
v 0.047857370 0.589301109 -0.041538432
v 0.158296496 0.686023593 -0.079896286
v 0.121385738 0.781510353 -0.122926913
v 0.106488131 0.692865193 -0.108860590
v 0.065723285 0.577599406 -0.061555974
v 0.031555355 0.709877133 -0.075278841
v 0.028193373 0.779653847 -0.083443001
v 0.107692443 0.588923395 -0.082927540
v 0.092486784 0.570752978 -0.069824144
v 0.100710213 0.918422997 -0.140114471
v 0.087561406 0.901637912 0.064991154
v 0.078075424 0.875550568 0.067613848
v 0.116954148 0.563112855 -0.082984909
v 0.031857889 0.853869617 0.063423872
v 0.049547892 0.840046525 0.052706528
v 0.082143441 0.920456052 -0.153409839
v 0.144148991 0.557334185 -0.076184340
v 0.176851898 0.763118625 -0.093188994
v 0.018641818 0.828567147 -0.126032740
v 0.146462619 0.631621301 -0.074751295
v 0.173893750 0.552423120 -0.073350057
v 0.014711561 0.705876231 -0.031177338
v 0.155704901 0.547579646 -0.062934987
v 0.031543694 0.805905044 -0.085285865
v 0.174698994 0.554721475 -0.050648976
v 0.186193019 0.565683007 -0.036083646
v 0.054166287 0.730603456 0.058222491
v 0.109891735 0.892304897 -0.144991085
v 0.088855892 0.896749139 -0.153035209
v 0.018667370 0.788316190 -0.061991774
v 0.194247767 0.560098588 -0.018352903
v 0.114354096 0.644003272 -0.094962098
v 0.205359742 0.632890999 -0.012595761
v 0.200768635 0.616624951 0.028766368
v 0.157991812 0.639981210 -0.088897899
v 0.136843219 0.642826617 -0.086732134
v 0.192394406 0.561107278 0.042201918
v 0.170276925 0.844467044 0.058123637
v 0.206961393 0.842987061 0.008169759
v 0.190257877 0.637899637 -0.051922888
v 0.042866103 0.619604588 -0.040046703
v 0.163188890 0.563988090 0.060313381
v 0.085635439 0.753568292 0.074099667
v 0.205380827 0.650086761 0.001188919
v 0.203225344 0.642628431 0.022771757
v 0.075492874 0.666144550 -0.087918177
v 0.137590960 0.556503952 0.065542921
v 0.121106409 0.838343501 -0.132793933
v -0.007310600 0.773819029 0.004357581
v -0.013692470 0.681484520 -0.004476137
v 0.046390258 0.661162615 0.038005237
v 0.111547031 0.556742489 0.065373257
v 0.143797666 0.842864215 -0.112496421
v -0.010572932 0.734485030 -0.001250494
v -0.004500027 0.793691754 0.010729221
v 0.090242743 0.556133986 0.053765316
v 0.023627548 0.834016621 0.055747829
v -0.000189224 0.833813787 0.054177620
v 0.120803058 0.893515408 0.042528979
v 0.060094871 0.578286529 0.024016950
v 0.119172134 0.921378255 0.042196456
v 0.190764710 0.553989053 0.001915072
v 0.105612613 0.755294085 0.081775136
v 0.038704686 0.930953622 -0.142639369
v 0.038232408 0.589385867 0.018490570
v 0.067673959 0.877974987 -0.155345768
v 0.014586119 0.605540156 0.015671277
v 0.037494916 0.617290139 0.011869592
v 0.038661294 0.818404675 -0.114020064
v 0.016671166 0.818766773 0.039668262
v 0.013928902 0.668457925 -0.001854338
v -0.016081311 0.663768053 -0.003049073
v -0.011468858 0.715921879 -0.002115464
v 0.187878132 0.545659184 -0.032351431
v -0.011988952 0.698871970 -0.003445865
v 0.052552722 0.609071732 -0.066052385
v 0.075579211 0.752989829 -0.106825039
v 0.099358067 0.763752460 -0.116103470
v 0.165202990 0.745334744 0.074151963
v 0.092943572 0.712090015 0.074165955
v 0.167754740 0.715992332 0.070303790
v 0.083502196 0.598481059 -0.071290717
v 0.184165761 0.550499022 0.021560695
f 555 540 123
f 389 162 497
f 567 540 568
f 583 104 251
f 463 489 430
f 453 94 255
f 483 484 162
f 446 640 671
f 574 577 251
f 50 244 238
f 52 244 50
f 575 57 53
f 55 249 52
f 55 2 250
f 577 248 563
f 575 437 432
f 57 597 589
f 2 265 262
f 589 592 57
f 262 259 2
f 5 267 262
f 602 606 589
f 5 9 11
f 58 606 610
f 11 272 5
f 12 278 11
f 565 793 8
f 630 60 632
f 13 425 12
f 424 289 160
f 289 424 13
f 643 649 60
f 181 403 179
f 483 206 484
f 163 651 174
f 53 563 558
f 651 65 650
f 163 389 384
f 683 66 65
f 455 558 563
f 165 384 171
f 340 331 34
f 67 66 683
f 206 470 63
f 385 102 856
f 67 702 70
f 344 340 696
f 179 403 406
f 710 70 702
f 16 352 14
f 111 112 59
f 63 64 655
f 18 368 16
f 710 742 753
f 119 112 111
f 394 671 545
f 551 922 903
f 19 375 18
f 753 740 711
f 406 470 179
f 261 615 108
f 545 453 439
f 178 386 530
f 24 386 23
f 72 753 742
f 26 396 24
f 768 765 72
f 119 142 112
f 32 63 470
f 112 142 161
f 399 400 396
f 154 343 182
f 545 671 448
f 399 415 400
f 768 770 765
f 32 406 410
f 418 415 399
f 770 183 777
f 387 300 166
f 415 418 422
f 105 86 299
f 169 42 839
f 170 142 119
f 173 172 705
f 329 638 343
f 134 738 737
f 185 638 329
f 692 661 145
f 150 74 741
f 637 345 873
f 132 145 661
f 170 184 142
f 138 495 760
f 138 136 188
f 136 194 188
f 201 87 194
f 270 87 205
f 216 49 210
f 46 216 724
f 198 184 170
f 43 96 907
f 219 39 218
f 45 43 41
f 224 37 219
f 498 224 514
f 86 105 342
f 225 36 514
f 378 107 110
f 80 233 107
f 22 41 43
f 198 217 849
f 41 581 45
f 103 233 76
f 76 40 103
f 222 217 214
f 678 100 40
f 98 41 22
f 366 41 98
f 40 76 678
f 215 4 284
f 215 98 21
f 537 536 92
f 222 234 217
f 904 537 92
f 460 462 30
f 284 471 366
f 222 239 246
f 586 903 759
f 462 28 30
f 246 234 222
f 454 449 28
f 237 391 924
f 560 319 921
f 246 888 252
f 431 471 282
f 455 560 391
f 319 560 241
f 50 238 793
f 50 566 52
f 52 574 55
f 258 263 510
f 244 52 249
f 55 253 2
f 284 792 657
f 303 670 667
f 303 100 674
f 250 249 55
f 273 274 252
f 251 253 574
f 100 303 301
f 301 570 100
f 104 261 257
f 677 100 678
f 273 285 274
f 257 2 253
f 2 257 265
f 250 2 259
f 570 568 40
f 752 292 293
f 294 296 285
f 285 296 274
f 684 497 679
f 277 274 296
f 440 447 442
f 579 489 463
f 692 329 695
f 259 262 267
f 871 736 360
f 262 271 9
f 40 100 570
f 570 567 568
f 203 128 270
f 310 296 294
f 305 296 310
f 87 270 194
f 9 5 262
f 5 272 600
f 276 9 271
f 9 276 11
f 272 11 278
f 302 323 310
f 568 103 40
f 108 615 89
f 280 11 276
f 11 280 12
f 103 568 540
f 278 12 425
f 323 337 328
f 283 12 280
f 12 283 13
f 283 297 289
f 289 13 283
f 540 561 231
f 425 13 424
f 209 288 205
f 291 125 286
f 346 337 323
f 49 304 288
f 173 350 351
f 297 654 314
f 347 158 864
f 304 47 311
f 47 304 49
f 47 46 481
f 360 361 855
f 501 684 146
f 481 311 47
f 46 39 481
f 343 695 329
f 314 289 297
f 289 314 160
f 481 321 308
f 481 39 321
f 325 122 321
f 325 321 37
f 37 321 39
f 333 160 314
f 324 266 333
f 527 107 231
f 84 121 325
f 36 327 498
f 160 333 34
f 327 120 84
f 36 82 371
f 277 393 390
f 689 34 333
f 34 689 340
f 313 34 331
f 266 334 689
f 334 260 341
f 340 335 331
f 107 527 110
f 54 404 405
f 696 14 344
f 61 401 44
f 38 299 407
f 358 14 348
f 14 358 16
f 344 14 352
f 356 704 712
f 352 16 368
f 413 62 417
f 370 16 358
f 16 370 18
f 175 705 134
f 713 115 110
f 371 27 378
f 27 371 82
f 381 18 370
f 18 381 19
f 368 18 375
f 80 378 27
f 19 381 235
f 19 395 23
f 19 23 178
f 202 506 913
f 23 395 24
f 386 24 396
f 398 24 395
f 24 398 26
f 26 398 220
f 26 412 399
f 396 26 399
f 418 399 412
f 164 180 444
f 444 443 164
f 175 173 705
f 685 84 120
f 422 300 415
f 685 121 84
f 172 169 300
f 172 300 422
f 78 80 27
f 226 365 78
f 89 615 114
f 240 485 309
f 134 737 175
f 226 27 82
f 245 459 452
f 187 186 140
f 243 459 245
f 189 187 130
f 581 466 579
f 467 472 637
f 308 122 240
f 138 579 466
f 430 255 463
f 499 435 430
f 453 430 435
f 435 440 439
f 435 499 450
f 243 479 281
f 308 321 122
f 897 438 584
f 439 453 435
f 243 281 893
f 450 440 435
f 480 859 865
f 440 449 447
f 442 439 440
f 450 449 440
f 447 449 454
f 492 488 493
f 127 458 456
f 449 456 28
f 82 225 708
f 454 28 462
f 28 456 30
f 456 450 127
f 30 456 458
f 225 82 36
f 30 464 460
f 506 507 502
f 126 469 125
f 287 508 509
f 207 507 506
f 410 460 32
f 126 306 477
f 460 464 644
f 644 32 460
f 32 644 63
f 475 31 576
f 470 406 32
f 64 63 644
f 306 309 477
f 125 464 458
f 528 795 511
f 516 523 524
f 655 206 63
f 206 655 484
f 206 474 470
f 162 679 497
f 316 322 822
f 313 160 34
f 37 498 325
f 523 316 534
f 497 684 501
f 501 146 505
f 146 512 503
f 505 503 513
f 263 515 510
f 512 120 115
f 503 512 91
f 517 513 503
f 115 713 91
f 458 203 125
f 315 547 548
f 91 512 115
f 547 330 336
f 91 713 88
f 517 88 522
f 552 548 547
f 532 88 713
f 88 532 519
f 552 336 553
f 522 519 541
f 527 231 561
f 127 128 458
f 538 660 692
f 514 36 498
f 224 498 37
f 538 692 695
f 114 626 631
f 553 342 105
f 219 37 39
f 555 660 561
f 127 450 499
f 891 199 824
f 660 555 661
f 218 39 46
f 199 97 886
f 366 98 284
f 22 21 98
f 41 366 581
f 43 232 22
f 907 232 43
f 96 536 907
f 45 463 255
f 45 581 463
f 255 94 96
f 255 96 45
f 94 453 545
f 448 546 545
f 582 593 594
f 595 584 438
f 216 46 47
f 216 47 49
f 551 640 558
f 558 640 569
f 49 288 209
f 793 565 50
f 569 53 558
f 566 50 565
f 209 210 49
f 841 351 350
f 574 52 566
f 578 53 57
f 612 609 423
f 53 578 563
f 575 53 569
f 597 432 211
f 253 55 574
f 57 575 597
f 578 57 592
f 592 583 578
f 627 609 612
f 584 621 628
f 603 589 606
f 602 589 597
f 634 819 627
f 610 606 602
f 835 318 229
f 626 606 58
f 610 624 58
f 58 624 630
f 632 58 630
f 634 884 869
f 58 632 626
f 60 642 632
f 642 60 649
f 60 630 181
f 650 649 643
f 662 652 645
f 656 628 621
f 621 636 656
f 658 659 204
f 64 644 469
f 466 495 138
f 694 377 700
f 468 471 431
f 663 650 65
f 628 656 668
f 679 162 484
f 65 686 663
f 672 673 659
f 686 65 66
f 683 65 651
f 468 431 478
f 683 693 67
f 685 146 684
f 146 685 512
f 696 340 689
f 66 67 701
f 473 495 478
f 66 698 686
f 702 67 693
f 668 675 687
f 701 698 66
f 405 690 54
f 701 67 70
f 54 690 564
f 14 696 348
f 711 70 710
f 699 70 711
f 702 709 710
f 229 318 236
f 657 282 471
f 710 709 742
f 753 756 740
f 756 753 72
f 742 754 72
f 72 754 768
f 72 765 756
f 766 765 770
f 490 193 496
f 130 772 496
f 770 776 766
f 15 719 168
f 87 201 148
f 183 770 768
f 201 194 136
f 422 705 172
f 633 777 338
f 777 633 150
f 408 74 633
f 638 185 408
f 106 730 258
f 688 379 694
f 275 631 118
f 185 692 145
f 197 750 749
f 736 737 738
f 263 258 730
f 738 741 743
f 185 145 143
f 743 741 744
f 744 741 74
f 744 467 879
f 132 140 145
f 123 132 661
f 741 738 150
f 123 540 567
f 773 772 567
f 738 134 150
f 78 27 226
f 238 623 1
f 264 279 779
f 776 150 134
f 134 705 420
f 695 541 538
f 104 599 261
f 365 681 680
f 761 762 763
f 365 678 76
f 76 78 365
f 411 156 420
f 156 411 220
f 541 519 538
f 220 764 156
f 76 233 78
f 80 78 233
f 168 789 387
f 70 699 701
f 398 395 228
f 434 437 445
f 779 780 887
f 428 432 434
f 926 317 706
f 197 749 745
f 213 6 4
f 279 785 780
f 419 427 428
f 148 201 745
f 454 462 419
f 526 782 783
f 381 734 235
f 410 414 419
f 493 769 913
f 511 4 215
f 4 511 213
f 406 414 410
f 208 731 729
f 21 511 215
f 210 728 727
f 794 800 823
f 511 21 529
f 470 474 179
f 724 218 46
f 227 110 115
f 118 280 275
f 219 218 722
f 806 800 794
f 803 804 256
f 716 778 225
f 224 219 720
f 407 86 690
f 356 734 381
f 389 497 380
f 809 795 528
f 810 806 811
f 717 716 514
f 497 501 380
f 317 697 429
f 810 818 821
f 913 771 202
f 341 698 699
f 373 376 159
f 369 177 373
f 341 260 698
f 260 334 266
f 365 226 681
f 517 522 354
f 828 821 818
f 354 362 364
f 569 640 446
f 519 522 88
f 767 828 818
f 266 324 676
f 602 597 211
f 804 834 256
f 121 240 122
f 345 868 918
f 610 602 211
f 169 839 166
f 427 195 211
f 643 179 174
f 683 651 165
f 693 683 171
f 627 884 634
f 324 654 676
f 846 397 841
f 841 397 374
f 362 709 369
f 580 397 846
f 192 188 190
f 192 499 489
f 128 192 190
f 270 205 203
f 205 288 286
f 291 306 126
f 208 148 733
f 288 304 291
f 304 311 306
f 311 481 308
f 286 125 203
f 283 118 297
f 589 599 592
f 283 280 118
f 227 115 120
f 747 805 732
f 707 226 82
f 107 378 80
f 275 114 631
f 118 646 297
f 89 114 275
f 231 233 103
f 87 209 205
f 816 872 870
f 271 108 89
f 248 560 455
f 248 241 560
f 108 271 265
f 566 565 241
f 86 876 690
f 622 244 619
f 517 91 88
f 574 566 248
f 715 662 889
f 244 249 618
f 249 250 614
f 882 465 718
f 253 251 257
f 774 465 882
f 250 259 608
f 883 494 774
f 921 391 560
f 259 267 604
f 54 564 847
f 251 577 583
f 600 267 5
f 89 276 271
f 503 91 517
f 690 405 407
f 275 276 89
f 892 573 582
f 272 278 596
f 248 577 574
f 280 276 275
f 425 588 591
f 425 424 781
f 781 313 572
f 424 313 781
f 572 585 781
f 314 654 324
f 136 197 201
f 313 557 572
f 237 551 558
f 554 331 335
f 334 341 348
f 760 136 138
f 335 344 549
f 341 699 704
f 348 696 334
f 921 319 7
f 358 348 704
f 344 352 544
f 912 582 594
f 903 586 551
f 352 368 543
f 381 370 356
f 368 375 539
f 788 8 3
f 535 375 178
f 221 795 809
f 828 767 562
f 559 833 920
f 921 920 899
f 546 448 898
f 903 922 836
f 38 903 299
f 235 228 395
f 405 669 407
f 546 92 94
f 400 518 520
f 92 546 904
f 639 35 926
f 386 396 525
f 927 926 33
f 928 605 930
f 200 490 298
f 94 545 546
f 96 92 536
f 927 56 852
f 143 472 408
f 220 412 26
f 400 520 521
f 412 220 411
f 109 113 152
f 920 832 559
f 418 412 411
f 152 113 746
f 387 789 786
f 420 418 411
f 746 161 867
f 418 420 422
f 490 773 298
f 496 772 773
f 394 442 445
f 562 767 832
f 739 636 820
f 204 725 658
f 773 490 496
f 725 223 635
f 447 454 428
f 472 186 637
f 215 284 98
f 189 130 496
f 458 464 30
f 410 462 460
f 125 469 464
f 635 247 487
f 487 269 629
f 641 487 629
f 268 269 487
f 269 393 629
f 390 269 268
f 469 126 64
f 349 761 763
f 655 64 477
f 303 674 670
f 290 393 277
f 611 290 928
f 163 474 483
f 928 307 605
f 635 641 648
f 531 605 533
f 677 674 100
f 477 309 485
f 506 202 207
f 679 485 240
f 240 121 684
f 312 912 594
f 684 679 240
f 121 685 684
f 186 187 345
f 503 505 146
f 912 332 892
f 772 130 132
f 685 120 512
f 501 505 159
f 725 648 658
f 505 513 373
f 513 517 364
f 892 847 564
f 110 527 713
f 714 847 339
f 522 541 154
f 51 714 346
f 231 103 540
f 714 51 404
f 541 695 343
f 567 772 123
f 502 500 506
f 578 577 563
f 867 659 673
f 577 578 583
f 597 575 432
f 592 104 583
f 913 492 493
f 845 167 839
f 599 104 592
f 386 178 23
f 599 603 615
f 110 227 378
f 615 261 599
f 706 402 639
f 603 626 114
f 132 123 772
f 624 610 195
f 409 706 317
f 746 673 682
f 114 615 603
f 120 327 227
f 624 414 403
f 691 429 697
f 642 631 632
f 642 118 631
f 429 433 853
f 646 118 642
f 642 649 646
f 152 682 691
f 682 433 691
f 181 643 60
f 654 297 646
f 122 325 121
f 140 130 187
f 421 416 617
f 123 661 555
f 309 308 240
f 698 260 686
f 702 693 177
f 698 701 699
f 672 441 436
f 291 126 125
f 109 691 697
f 143 140 186
f 874 872 816
f 665 441 672
f 188 192 489
f 665 658 653
f 712 704 699
f 653 451 665
f 927 697 317
f 712 740 734
f 648 461 653
f 178 375 19
f 923 880 116
f 641 461 648
f 740 756 748
f 748 758 228
f 926 706 639
f 479 641 482
f 754 742 362
f 354 754 362
f 407 669 38
f 203 458 128
f 482 629 620
f 756 765 758
f 182 754 154
f 128 127 192
f 254 246 252
f 611 382 620
f 764 398 228
f 499 192 127
f 764 766 156
f 766 776 156
f 930 611 928
f 420 156 776
f 140 132 130
f 788 7 8
f 387 166 168
f 420 776 134
f 136 760 197
f 300 387 415
f 750 197 760
f 745 201 197
f 148 208 209
f 733 148 745
f 258 35 106
f 593 533 605
f 731 208 733
f 236 318 910
f 729 210 208
f 728 210 729
f 727 216 210
f 188 489 579
f 929 573 556
f 724 216 727
f 573 929 582
f 723 218 724
f 722 218 723
f 720 219 722
f 717 224 720
f 514 224 717
f 188 579 138
f 876 556 573
f 707 681 226
f 898 904 546
f 472 143 186
f 212 795 221
f 899 391 921
f 854 925 931
f 213 795 212
f 140 143 145
f 404 54 714
f 833 922 924
f 415 387 786
f 143 408 185
f 238 3 793
f 1 3 238
f 31 799 752
f 622 238 244
f 918 799 515
f 380 376 171
f 915 752 357
f 617 476 421
f 619 244 618
f 618 249 616
f 616 249 614
f 636 739 613
f 388 613 10
f 614 250 608
f 357 791 915
f 383 688 388
f 608 259 607
f 571 438 576
f 295 667 666
f 92 96 94
f 607 259 604
f 372 726 700
f 667 295 303
f 367 726 372
f 604 267 601
f 298 295 207
f 923 875 880
f 363 732 367
f 408 467 74
f 148 209 87
f 298 301 295
f 359 747 363
f 601 267 600
f 359 355 755
f 600 272 598
f 598 272 596
f 353 755 355
f 301 298 773
f 596 278 591
f 747 755 751
f 591 278 425
f 588 425 781
f 388 688 813
f 769 771 913
f 763 353 349
f 202 771 200
f 506 500 913
f 74 467 744
f 773 570 301
f 82 708 707
f 320 647 326
f 500 492 913
f 331 554 557
f 242 910 320
f 344 335 340
f 910 908 647
f 554 335 550
f 239 222 703
f 549 550 335
f 549 344 544
f 166 167 168
f 544 352 543
f 543 368 542
f 17 15 167
f 17 845 157
f 907 536 919
f 157 850 155
f 155 850 153
f 542 368 539
f 150 633 74
f 153 854 151
f 151 854 149
f 149 858 147
f 147 862 144
f 539 375 535
f 759 903 38
f 530 535 178
f 144 862 141
f 141 866 139
f 139 866 137
f 530 386 525
f 137 870 135
f 525 396 521
f 135 870 872
f 133 872 131
f 131 874 129
f 129 923 117
f 923 874 875
f 170 119 902
f 521 396 400
f 20 932 101
f 99 101 932
f 99 886 97
f 95 97 199
f 95 891 93
f 93 896 90
f 518 400 786
f 90 896 85
f 85 901 83
f 83 905 81
f 169 166 300
f 81 905 79
f 77 79 796
f 77 909 75
f 439 394 545
f 75 914 73
f 73 914 71
f 71 916 69
f 442 394 439
f 468 466 366
f 442 447 434
f 7 562 920
f 794 534 811
f 924 899 833
f 434 447 428
f 428 454 419
f 419 462 410
f 38 898 759
f 902 111 897
f 466 468 495
f 526 524 534
f 25 59 56
f 96 43 45
f 895 401 61
f 182 343 338
f 483 389 163
f 483 162 389
f 897 59 25
f 883 894 775
f 776 777 150
f 59 897 111
f 380 384 389
f 774 882 893
f 111 902 119
f 778 708 225
f 501 159 380
f 167 166 839
f 159 505 373
f 176 191 867
f 373 513 369
f 364 369 513
f 850 890 925
f 354 364 517
f 354 522 154
f 177 369 709
f 154 541 343
f 446 445 437
f 376 380 159
f 204 223 725
f 217 198 214
f 214 703 222
f 437 569 446
f 610 211 195
f 414 624 195
f 403 630 624
f 889 718 715
f 160 313 424
f 181 630 403
f 888 246 239
f 179 643 181
f 174 650 643
f 651 650 174
f 163 384 165
f 487 247 268
f 165 651 163
f 171 683 165
f 174 474 163
f 557 313 331
f 475 515 799
f 376 693 171
f 285 273 757
f 177 693 376
f 627 885 884
f 174 179 474
f 509 508 516
f 294 302 310
f 709 702 177
f 709 362 742
f 154 754 354
f 182 338 183
f 780 785 803
f 183 768 182
f 423 413 881
f 183 338 777
f 638 338 343
f 633 638 408
f 590 401 895
f 692 185 329
f 190 188 194
f 515 475 25
f 270 190 194
f 190 270 128
f 195 427 414
f 7 788 562
f 915 878 571
f 877 595 438
f 203 205 286
f 44 48 61
f 474 206 483
f 210 209 208
f 61 62 895
f 413 895 62
f 211 432 427
f 172 42 169
f 398 764 220
f 515 263 918
f 437 575 569
f 228 758 764
f 124 885 426
f 175 871 350
f 84 498 327
f 225 514 716
f 327 371 227
f 918 263 730
f 898 448 759
f 371 327 36
f 839 374 890
f 227 371 378
f 451 441 665
f 228 235 748
f 444 180 457
f 233 231 107
f 187 868 345
f 759 448 586
f 189 292 868
f 734 748 235
f 653 461 826
f 924 922 237
f 292 193 196
f 446 671 394
f 461 641 479
f 922 551 237
f 391 237 455
f 482 641 629
f 918 868 799
f 196 200 293
f 771 293 200
f 558 455 237
f 281 287 894
f 894 893 281
f 248 566 241
f 257 251 104
f 255 430 453
f 257 261 265
f 509 775 287
f 260 266 676
f 509 516 524
f 265 261 108
f 523 516 531
f 322 316 523
f 273 252 888
f 265 271 262
f 811 534 316
f 316 315 811
f 676 686 260
f 366 466 581
f 478 495 468
f 330 547 315
f 547 336 552
f 366 471 468
f 760 495 473
f 657 471 284
f 336 342 553
f 553 900 552
f 832 900 553
f 865 878 791
f 792 284 4
f 31 571 576
f 286 288 291
f 438 571 877
f 906 864 863
f 4 790 792
f 8 7 319
f 303 295 301
f 291 304 306
f 570 773 567
f 739 617 392
f 617 416 392
f 306 311 309
f 309 311 308
f 170 628 668
f 613 739 10
f 739 392 10
f 656 675 668
f 656 815 675
f 680 678 365
f 813 613 388
f 324 333 314
f 687 198 668
f 379 688 383
f 295 666 207
f 815 656 636
f 377 694 379
f 325 498 84
f 689 333 266
f 334 696 689
f 700 377 372
f 861 834 860
f 703 721 239
f 732 726 367
f 834 861 256
f 348 341 704
f 747 732 363
f 356 358 704
f 735 888 721
f 370 358 356
f 735 264 757
f 735 273 888
f 755 747 359
f 369 364 362
f 353 763 755
f 647 761 326
f 761 349 326
f 376 373 177
f 779 757 264
f 780 779 279
f 384 380 171
f 235 395 19
f 736 871 737
f 562 788 917
f 910 647 320
f 785 804 803
f 414 406 403
f 256 323 803
f 813 675 815
f 415 786 400
f 427 419 414
f 422 420 705
f 432 428 427
f 430 489 499
f 587 580 590
f 437 434 432
f 445 442 434
f 446 394 445
f 671 586 448
f 819 609 627
f 456 449 450
f 455 563 248
f 865 791 769
f 581 579 463
f 645 652 817
f 644 464 469
f 652 662 715
f 874 923 129
f 715 664 652
f 694 812 688
f 477 64 126
f 750 760 473
f 485 655 477
f 465 715 718
f 507 207 666
f 465 774 494
f 865 486 480
f 812 675 813
f 485 484 655
f 207 202 298
f 883 504 825
f 493 865 769
f 783 782 504
f 679 484 485
f 202 200 298
f 196 490 200
f 196 193 490
f 877 859 476
f 302 803 323
f 189 496 193
f 814 806 810
f 168 719 789
f 821 814 810
f 391 899 924
f 713 527 532
f 467 408 472
f 302 294 887
f 786 787 518
f 538 519 532
f 561 532 527
f 926 35 33
f 538 532 660
f 540 555 561
f 551 586 640
f 319 241 565
f 660 532 561
f 113 161 746
f 161 176 867
f 8 319 565
f 223 247 635
f 781 585 784
f 620 629 393
f 887 780 302
f 269 390 393
f 671 640 586
f 781 784 588
f 599 589 603
f 393 290 611
f 626 603 606
f 928 290 305
f 623 238 622
f 625 1 623
f 774 893 894
f 312 332 912
f 626 632 631
f 332 339 847
f 847 892 332
f 757 887 285
f 847 714 54
f 793 3 8
f 732 807 726
f 858 931 857
f 675 812 687
f 168 167 15
f 273 735 757
f 920 921 7
f 402 385 639
f 167 845 17
f 638 633 338
f 646 649 663
f 650 663 649
f 845 850 157
f 888 239 721
f 663 654 646
f 706 409 48
f 850 854 153
f 676 654 663
f 429 409 317
f 661 692 660
f 854 858 149
f 676 663 686
f 858 862 147
f 433 429 691
f 678 680 677
f 699 711 712
f 712 734 356
f 711 710 753
f 862 866 141
f 712 711 740
f 682 436 827
f 734 740 748
f 866 870 137
f 214 687 808
f 748 756 758
f 664 816 652
f 872 133 135
f 198 687 214
f 754 182 768
f 872 874 131
f 665 659 658
f 758 765 766
f 658 648 653
f 766 764 758
f 776 770 777
f 668 198 170
f 117 923 116
f 787 786 789
f 929 330 822
f 533 822 322
f 556 336 330
f 531 322 523
f 899 920 833
f 662 444 889
f 346 323 256
f 491 482 620
f 116 880 911
f 911 20 116
f 382 491 620
f 911 932 20
f 932 886 99
f 645 443 662
f 930 382 611
f 382 930 516
f 886 824 199
f 605 531 930
f 491 508 848
f 628 170 902
f 256 347 346
f 482 848 479
f 891 896 93
f 347 256 861
f 820 617 739
f 866 819 817
f 605 594 593
f 896 901 85
f 929 593 582
f 612 881 885
f 901 905 83
f 826 451 653
f 451 457 180
f 672 659 665
f 441 180 851
f 79 905 796
f 436 673 672
f 436 851 827
f 909 914 75
f 682 673 436
f 914 916 71
f 584 902 897
f 876 86 342
f 69 916 1
f 829 433 827
f 700 808 694
f 788 3 916
f 853 829 417
f 409 61 48
f 402 48 855
f 870 817 816
f 855 29 360
f 874 816 664
f 385 361 102
f 830 880 875
f 576 897 25
f 819 634 817
f 68 69 1
f 106 856 730
f 743 736 738
f 910 242 236
f 862 857 819
f 744 879 102
f 880 830 831
f 840 528 843
f 401 846 44
f 803 302 780
f 769 791 357
f 878 915 791
f 831 911 880
f 918 873 345
f 576 25 475
f 799 31 475
f 841 29 846
f 879 856 102
f 106 639 385
f 573 564 876
f 911 831 802
f 342 556 876
f 337 339 332
f 25 510 515
f 350 29 841
f 564 573 892
f 892 582 912
f 510 25 56
f 864 906 837
f 312 328 337
f 929 822 593
f 33 35 258
f 871 360 29
f 840 860 835
f 864 158 863
f 29 855 44
f 916 914 917
f 808 687 812
f 594 307 312
f 307 305 328
f 916 917 788
f 33 56 927
f 840 835 809
f 307 594 605
f 736 743 361
f 531 516 930
f 290 277 305
f 852 109 927
f 318 835 860
f 21 844 529
f 852 59 112
f 620 393 611
f 102 743 744
f 112 113 852
f 751 763 762
f 647 785 762
f 805 747 751
f 252 268 254
f 230 835 229
f 487 641 635
f 637 879 467
f 124 851 164
f 809 230 221
f 161 142 176
f 807 732 805
f 247 234 254
f 230 809 835
f 808 700 807
f 345 637 186
f 176 184 191
f 812 694 808
f 204 849 223
f 849 204 191
f 813 688 812
f 635 648 725
f 849 184 198
f 815 613 813
f 815 636 613
f 217 223 849
f 659 191 204
f 217 234 223
f 191 184 849
f 859 480 421
f 795 213 511
f 245 461 243
f 878 865 859
f 802 886 932
f 191 659 867
f 452 718 889
f 223 234 247
f 176 142 184
f 246 254 234
f 865 493 486
f 293 771 357
f 268 247 254
f 771 769 357
f 805 264 735
f 268 252 390
f 161 113 112
f 486 493 488
f 390 252 274
f 867 673 746
f 264 751 279
f 274 277 390
f 746 682 152
f 281 848 287
f 827 433 682
f 808 703 214
f 152 691 109
f 109 852 113
f 476 859 421
f 296 305 277
f 476 595 877
f 305 307 928
f 196 293 292
f 595 476 820
f 726 807 700
f 752 293 357
f 307 328 312
f 310 328 305
f 56 59 852
f 292 752 799
f 328 310 323
f 886 825 824
f 312 337 332
f 807 703 808
f 891 824 782
f 193 292 189
f 844 21 22
f 429 853 409
f 109 697 927
f 56 33 510
f 105 559 553
f 339 337 346
f 346 714 339
f 51 346 347
f 317 926 927
f 564 690 876
f 863 844 232
f 799 868 292
f 510 33 258
f 843 528 529
f 844 863 842
f 861 840 843
f 861 158 347
f 861 860 840
f 752 915 31
f 158 843 842
f 843 158 861
f 842 529 844
f 919 837 906
f 906 232 907
f 809 528 840
f 730 873 918
f 730 856 873
f 873 856 879
f 856 106 385
f 817 634 645
f 837 919 838
f 817 652 816
f 919 906 907
f 919 536 537
f 743 102 361
f 904 669 838
f 898 669 904
f 669 898 38
f 703 807 721
f 405 404 838
f 669 405 838
f 922 833 836
f 294 285 887
f 361 385 402
f 869 645 634
f 830 875 664
f 916 3 1
f 864 51 347
f 402 855 361
f 909 801 914
f 397 890 374
f 48 44 855
f 796 909 77
f 879 637 873
f 901 798 905
f 580 925 397
f 48 402 706
f 896 800 901
f 891 823 896
f 409 62 61
f 853 62 409
f 881 413 417
f 417 62 853
f 86 407 299
f 459 893 882
f 199 891 95
f 830 465 831
f 829 426 417
f 426 829 124
f 426 881 417
f 124 829 827
f 433 829 853
f 886 802 825
f 774 894 883
f 851 124 827
f 164 884 124
f 441 851 436
f 180 164 851
f 443 869 164
f 911 802 932
f 715 830 664
f 874 664 875
f 736 361 360
f 451 180 441
f 457 452 889
f 889 444 457
f 866 817 870
f 106 35 639
f 459 718 452
f 826 452 457
f 452 826 245
f 451 826 457
f 862 819 866
f 858 857 862
f 461 245 826
f 459 882 718
f 479 243 461
f 854 931 858
f 850 925 854
f 846 401 580
f 845 890 850
f 491 848 482
f 848 281 479
f 825 494 883
f 382 508 491
f 900 832 767
f 508 287 848
f 896 823 800
f 839 890 845
f 504 782 824
f 42 374 839
f 516 508 382
f 908 910 318
f 534 524 523
f 552 818 548
f 42 172 173
f 901 800 798
f 818 552 900
f 533 322 531
f 871 175 737
f 868 187 189
f 22 232 844
f 593 822 533
f 822 315 316
f 929 556 330
f 330 315 822
f 838 919 537
f 904 838 537
f 318 860 834
f 908 318 834
f 465 830 715
f 556 342 336
f 105 836 559
f 833 559 836
f 29 44 846
f 908 834 804
f 562 917 828
f 299 836 105
f 818 900 767
f 832 553 559
f 562 832 920
f 811 315 548
f 828 801 821
f 801 828 917
f 821 797 814
f 836 299 903
f 401 590 580
f 797 821 801
f 905 798 796
f 796 814 797
f 810 548 818
f 814 798 806
f 798 814 796
f 909 796 797
f 811 548 810
f 413 587 590
f 404 51 837
f 51 864 837
f 837 838 404
f 909 797 801
f 529 842 843
f 158 842 863
f 232 906 863
f 800 806 798
f 529 528 511
f 794 811 806
f 785 908 804
f 785 647 908
f 859 877 878
f 526 534 794
f 877 571 878
f 571 31 915
f 173 351 42
f 524 783 509
f 350 173 175
f 29 350 871
f 823 526 794
f 783 524 526
f 526 823 782
f 42 351 374
f 841 374 351
f 504 775 783
f 509 783 775
f 782 823 891
f 885 124 884
f 887 757 779
f 914 801 917
f 426 885 881
f 890 397 925
f 825 504 824
f 775 504 883
f 925 587 931
f 587 925 580
f 802 494 825
f 785 279 762
f 494 831 465
f 831 494 802
f 894 287 775
f 590 895 413
f 438 897 576
f 884 164 869
f 762 279 751
f 423 931 587
f 587 413 423
f 931 423 857
f 762 761 647
f 617 820 476
f 595 820 621
f 751 755 763
f 893 459 243
f 751 264 805
f 609 857 423
f 423 881 612
f 662 443 444
f 721 805 735
f 621 584 595
f 857 609 819
f 443 645 869
f 612 885 627
f 636 621 820
f 628 902 584
f 805 721 807
