# avbd fit, rung k10-i32-s300-g0.10 of Gate 6d (body space)
v -0.018905316 0.581250787 0.009538266
v -0.118131600 0.592378974 0.090392530
v -0.017542243 0.594708502 0.024163179
v -0.000835248 0.933163941 0.073860116
v -0.175277710 0.571085811 0.062050860
v -0.000522450 0.953655422 0.070767522
v -0.017320827 0.624952197 0.032450072
v -0.017588029 0.612376392 0.016726607
v -0.169719607 0.589090466 0.048923820
v 0.140312508 0.941930950 -0.105526164
v -0.197864085 0.586067438 0.046108983
v -0.184639901 0.585021973 0.022436922
v -0.196171716 0.587896228 0.001169471
v -0.159808129 0.583014369 -0.062700629
v 0.013355355 0.581646323 -0.013980831
v -0.157450318 0.574323833 -0.083831199
v 0.035824444 0.578197420 -0.020105932
v -0.135330528 0.572610497 -0.082734078
v -0.120837823 0.584865451 -0.097752482
v 0.193111449 0.532860339 -0.003426511
v -0.002011312 0.893445313 0.071591824
v -0.002809565 0.873561084 0.067266278
v -0.107193671 0.582870364 -0.078149192
v -0.100877620 0.592401147 -0.098523051
v 0.097978249 0.824069977 -0.120148279
v -0.090554565 0.607169807 -0.085575037
v -0.142427966 0.897487998 -0.142314419
v -0.154298171 0.790677845 0.069009475
v 0.044666626 0.679294109 -0.074778929
v -0.169712260 0.804741859 0.080748960
v 0.070438817 0.855476081 -0.145279139
v -0.202845052 0.779967844 0.047874644
v 0.092869304 0.775329888 -0.129598469
v -0.200821802 0.581189096 -0.040984035
v 0.084941611 0.767527461 -0.109642185
v -0.155766636 0.905708671 -0.103478692
v -0.178783253 0.903689861 -0.062622540
v 0.014368504 0.741382658 0.031472959
v -0.175226420 0.907312989 -0.036603790
v -0.085648663 0.895458400 -0.147760838
v -0.038665112 0.880967021 0.064237222
v 0.011211322 0.630890846 -0.051660441
v -0.025863370 0.856283545 0.058719188
v 0.067041062 0.682302356 -0.093420900
v -0.053510368 0.858146667 0.060632110
v -0.192883402 0.919389427 -0.020442290
v -0.193047971 0.900050640 -0.001263371
v 0.080524668 0.707017124 -0.094852731
v -0.170687661 0.890256226 0.007317979
v -0.065259717 0.592201471 0.037637632
v 0.066991322 0.819827437 0.067417406
v -0.072476827 0.594017148 0.066428825
v -0.089901157 0.693286121 0.064952530
v 0.066644952 0.772141099 0.062002562
v -0.100301124 0.595843613 0.058820736
v 0.104209408 0.792862952 -0.112973988
v -0.118210874 0.686886728 0.075739697
v -0.181502074 0.690150142 0.055425912
v 0.122562960 0.806535363 -0.128145531
v -0.198492259 0.689831614 0.030559242
v 0.093897238 0.686652124 -0.095455542
v 0.109197959 0.676815987 -0.113617204
v -0.204506308 0.791401446 0.022603700
v -0.199506566 0.815683961 0.020581421
v -0.215183333 0.689193726 -0.041752163
v -0.188069999 0.684812546 -0.056355357
v -0.172985464 0.697917759 -0.075725630
v -0.013086448 0.598444343 -0.001508901
v 0.011156124 0.592834532 -0.000074115
v -0.167413056 0.679804504 -0.099016085
v 0.033531763 0.585497856 0.005501400
v -0.121073604 0.693821073 -0.125022799
v 0.052349459 0.575869679 0.015306076
v -0.032404877 0.750053167 -0.089837179
v 0.067763083 0.565351009 0.027246663
v -0.108272135 0.899463356 -0.150666267
v 0.078837387 0.553471267 0.040895537
v -0.122413255 0.901390433 -0.133925602
v 0.094718114 0.559343219 0.050746698
v -0.131309360 0.882332504 -0.130315810
v 0.110060275 0.550975323 0.056356061
v -0.153820038 0.916705430 -0.130802006
v 0.124924615 0.541018784 0.063881584
v -0.186660171 0.867627501 -0.094604284
v 0.142372906 0.540525198 0.055003464
v 0.047793631 0.723471940 0.053609926
v -0.154603347 0.896226227 0.062640801
v -0.136435702 0.794629335 -0.133295923
v -0.170255423 0.622299075 0.067765370
v 0.159064263 0.548174381 0.054644339
v -0.137622803 0.808908463 -0.109787479
v -0.026035210 0.805577755 0.043020748
v 0.163255438 0.530433297 0.063128397
v -0.050793123 0.807648182 0.052354269
v 0.161886305 0.532080531 0.044962138
v -0.033883981 0.830812752 0.054327380
v 0.178586364 0.535550177 0.050988965
v -0.024262333 0.902249992 0.068480723
v 0.180501550 0.532425344 0.031836789
v -0.070992164 0.911085129 -0.160666496
v 0.181821182 0.533041418 0.012450542
v 0.025569582 0.751957297 -0.087600306
v -0.099304132 0.875706792 -0.153612852
v -0.121084534 0.644343495 0.090177216
v 0.041860022 0.700440049 0.040636245
v 0.064567983 0.770409942 -0.101840056
v -0.126406610 0.860324740 -0.130046636
v -0.148315355 0.624824703 0.061776172
v 0.135506406 0.760661840 -0.105857059
v -0.144393116 0.845778465 -0.133511558
v 0.136318341 0.822220206 -0.114558205
v 0.153359577 0.801559150 -0.119278148
v 0.153917551 0.773696780 -0.115465797
v -0.173068076 0.642559230 0.054687511
v -0.141128331 0.836802959 -0.108935967
v 0.199332133 0.533384085 -0.022593925
v 0.185977697 0.543393254 -0.015148127
v -0.201712877 0.634043932 0.026983360
v 0.154787615 0.822564244 -0.101995431
v -0.163765997 0.850793660 -0.095999755
v -0.183504492 0.848460019 -0.072541282
v -0.190915659 0.864702702 -0.055457227
v -0.067162290 0.847584903 -0.143626183
v 0.167866677 0.664458752 -0.097386070
v -0.173168570 0.838939369 0.048163302
v -0.190958247 0.838635564 0.022508230
v -0.134525195 0.829609871 0.078708000
v -0.146710783 0.844711125 0.061694443
v 0.181924701 0.535899460 -0.032405503
v -0.028366011 0.838642478 -0.127570912
v 0.180174202 0.530478656 -0.050809491
v -0.050402083 0.832755566 -0.129887581
v 0.166031763 0.535944104 -0.067252658
v -0.037226897 0.687487364 -0.079031914
v 0.184977546 0.532800019 -0.067984968
v -0.110850811 0.890110195 0.047674395
v 0.172082245 0.533171952 -0.082975477
v -0.096599370 0.896851897 0.071171463
v 0.152954251 0.532401562 -0.077636257
v -0.029999882 0.817017913 -0.117641054
v 0.139327496 0.533747315 -0.093093798
v 0.170730859 0.807999909 -0.094633222
v -0.033774547 0.801371694 -0.099221066
v 0.142017782 0.545498848 -0.080827296
v -0.056099754 0.813922048 -0.114191428
v -0.186503798 0.809655070 -0.102342248
v 0.136552572 0.554597080 -0.067232355
v -0.153129160 0.916958451 0.047359589
v 0.118499026 0.549933553 -0.076164871
v -0.043151341 0.718805194 -0.088603392
v 0.101446889 0.553856254 -0.065880582
v 0.154539555 0.749760151 -0.109030679
v 0.083132967 0.554697156 -0.057069819
v -0.122008108 0.750829339 -0.114704132
v 0.067434318 0.560996830 -0.043898445
v -0.086148009 0.662497103 -0.087133527
v 0.053677518 0.569633901 -0.030013766
v 0.060548835 0.863242626 0.057096791
v -0.178395480 0.770083070 -0.087911531
v -0.213268012 0.585838437 -0.015459381
v 0.174440712 0.784522772 -0.106781207
v -0.214796335 0.789737046 -0.039986998
v -0.220812604 0.746082783 -0.029692411
v 0.151702464 0.653822541 -0.077034809
v -0.204301149 0.730775356 -0.045386441
v -0.012728711 0.598834813 -0.048205167
v 0.015279224 0.588569701 -0.037303485
v -0.012581021 0.588369071 -0.030744702
v -0.012813760 0.618465126 -0.049274139
v 0.181289285 0.830592155 -0.111657836
v -0.191034645 0.737211108 -0.065136716
v -0.012360428 0.637653351 -0.053706206
v -0.012447008 0.655620813 -0.062284987
v -0.209487557 0.726257563 -0.009479131
v -0.012000537 0.675667465 -0.062814280
v 0.182108045 0.790549397 -0.085323617
v -0.174609393 0.731182635 -0.105074123
v -0.118289508 0.561343372 -0.076276839
v -0.206094474 0.736599326 0.022612622
v 0.174859852 0.673089504 -0.074863359
v -0.198960498 0.713850319 0.034500800
v -0.103198901 0.733560681 -0.114598788
v -0.091598168 0.718330026 -0.101348661
v 0.198204070 0.809074998 -0.093596801
v -0.058280338 0.790538609 -0.101931296
v -0.006275670 0.813222766 -0.099314556
v -0.005229526 0.825057685 -0.115412310
v -0.112139463 0.875584900 0.073564112
v -0.005989926 0.844143391 -0.121133305
v -0.128648207 0.860717893 0.057427488
v 0.202157661 0.778178811 -0.084020667
v -0.121042095 0.850628853 0.078331046
v -0.006113810 0.862533450 -0.130463213
v -0.134210855 0.882254243 0.048119940
v -0.162167296 0.721723735 0.065575078
v -0.009095466 0.878927410 -0.142158747
v -0.126815528 0.909074962 0.039338998
v 0.185043782 0.831898034 -0.075843267
v 0.173072889 0.553866744 0.034935396
v -0.008452702 0.899547577 -0.138732627
v -0.132207841 0.906742096 0.059918128
v -0.006312393 0.917497158 -0.150942206
v -0.170391589 0.858104348 0.067794658
v 0.194878891 0.768411040 -0.060679235
v -0.168534562 0.880582988 0.050822992
v -0.215707347 0.780603528 0.001255306
v -0.002150298 0.918771148 -0.131596863
v -0.143967062 0.914753914 0.024599735
v -0.149324089 0.890965641 0.031348623
v -0.170446858 0.912716031 0.017181888
v -0.139652207 0.714909852 0.076251313
v 0.039912708 0.953193307 0.069344565
v 0.019604161 0.953990638 0.071511723
v 0.203206271 0.854031920 -0.058267307
v -0.000192230 0.913493276 0.069172576
v -0.171405837 0.912007332 -0.011444523
v 0.210124463 0.821451545 -0.056572378
v -0.186516613 0.928377986 -0.041399732
v -0.169247553 0.925516486 -0.053434007
v -0.095231175 0.634686351 -0.086435489
v 0.060208760 0.950823605 0.067610964
v 0.199669763 0.836984992 -0.035366621
v 0.215756103 0.786568403 -0.047281284
v -0.178007141 0.928962708 -0.073750287
v -0.154619664 0.929499626 -0.110306263
v -0.130511954 0.922391295 -0.140786812
v -0.148826018 0.862293422 -0.114065565
v -0.117073558 0.633561134 -0.084809713
v 0.087470695 0.936536014 0.075373545
v 0.077032618 0.943815410 0.060101531
v -0.104178235 0.855745673 -0.139249697
v -0.003513513 0.854222000 0.060997318
v -0.113662973 0.879057705 -0.138586372
v 0.205227494 0.808973908 -0.030703494
v -0.126589924 0.613810301 -0.096955903
v 0.089118801 0.930563927 0.057417970
v -0.038987182 0.690579891 0.039859198
v -0.042835329 0.573751092 0.028991248
v 0.198055506 0.849315047 -0.014127620
v -0.204015777 0.841647446 -0.047222961
v -0.060052842 0.630761504 0.040912475
v 0.105236813 0.933233082 0.048186403
v 0.204508573 0.678273261 -0.012392456
v -0.067453340 0.569546998 0.050337125
v 0.219058961 0.676173508 -0.029214883
v 0.203228071 0.826153934 -0.009564831
v 0.209437326 0.782743275 -0.017887054
v -0.074806266 0.645521998 0.057564706
v -0.092256241 0.574044585 0.071863689
v -0.121690653 0.579947710 0.066286996
v -0.110233881 0.633859158 0.068287887
v 0.209632114 0.813393593 0.018120106
v -0.115369454 0.611882150 0.068079732
v 0.208164886 0.803369164 -0.006064107
v -0.065299734 0.833180070 0.061664116
v 0.106312022 0.854278088 0.088494524
v -0.120023027 0.620410144 0.090062007
v 0.079967007 0.788334250 -0.112529993
v -0.132665172 0.565908134 0.088723272
v -0.195397526 0.642887473 -0.050486349
v -0.130124196 0.633574665 0.071035877
v -0.145871848 0.584658980 0.067860581
v 0.069929779 0.807042241 -0.118399657
v 0.181219891 0.877954960 0.036605790
v -0.136014462 0.609003484 0.073000498
v -0.191049397 0.624343753 -0.035405260
v -0.154677495 0.560885072 0.068641596
v 0.214311957 0.785662889 0.008891010
v 0.210146070 0.766010046 0.022362726
v -0.148769841 0.871048152 0.065864220
v -0.156474859 0.606409192 0.055425663
v -0.175208330 0.574117541 0.038196173
v 0.189596564 0.830660939 0.028125394
v 0.197516844 0.807858348 0.044421054
v -0.194049388 0.624570012 0.055672091
v -0.183681861 0.602038085 0.063013241
v 0.191707671 0.782240033 0.057075303
v -0.194271356 0.561344445 0.030102994
v 0.152863264 0.876963019 0.044776373
v -0.182254761 0.609496653 0.036132216
v 0.215055436 0.670553386 0.009711180
v -0.048710514 0.947061539 0.067013338
v -0.199090511 0.608112156 0.014255062
v -0.022768820 0.921656489 0.089768425
v 0.185123861 0.827227116 0.054679580
v -0.164980263 0.859823823 0.043286435
v 0.196599513 0.663512647 0.028537665
v -0.169235751 0.873777509 0.025851812
v -0.193741709 0.605884433 -0.013142200
v 0.183584765 0.759609818 0.065649852
v -0.187418178 0.860291183 0.032705672
v 0.015661318 0.853804290 -0.143114716
v 0.019588275 0.880629838 -0.138728112
v 0.162656337 0.820825696 0.062161304
v -0.029881325 0.923414588 -0.144979671
v 0.176310807 0.802282155 0.061138373
v -0.197318494 0.629129767 -0.003155837
v -0.023196410 0.902228177 -0.159326330
v 0.024454605 0.721694827 0.042558938
v -0.033693060 0.614914536 -0.047678780
v -0.044671051 0.901505291 -0.145527884
v 0.155544937 0.835583985 0.080395959
v -0.054326467 0.923762202 -0.148418620
v -0.192730039 0.881330848 0.017623609
v 0.161430225 0.778208792 0.068491355
v -0.202527523 0.858429909 0.009834338
v 0.156503186 0.758746028 0.089822657
v -0.197993666 0.868245304 -0.032843407
v -0.198432133 0.848569751 -0.016033046
v 0.156911492 0.807529747 0.080742262
v -0.189773396 0.873695195 -0.008127432
v 0.137610286 0.771612644 0.075643167
v -0.210711747 0.558424294 -0.026968110
v -0.216507033 0.611444950 -0.006424737
v 0.110148586 0.663110554 0.082229853
v 0.133994490 0.658712566 0.073579244
v 0.108326472 0.731951773 -0.125125393
v 0.098654434 0.904050827 0.069770232
v -0.037933581 0.629842818 0.034639675
v 0.123499811 0.935751915 0.048488133
v -0.180070952 0.883805156 -0.045394756
v 0.145961970 0.681264341 0.071595915
v 0.129961550 0.823948860 0.094904229
v -0.209006429 0.625840187 -0.022104274
v -0.175747797 0.877792537 -0.071773022
v 0.140859887 0.933260441 0.048750423
v -0.162269548 0.879491687 -0.098233871
v 0.144693434 0.788138986 0.093536220
v -0.076791540 0.779254019 -0.112346217
v 0.103019834 0.687211871 0.070227548
v -0.188543394 0.558297515 -0.047387358
v 0.113089338 0.775327682 0.080343738
v -0.205608636 0.604608417 -0.030689303
v -0.189578190 0.618341625 -0.060430117
v -0.165217414 0.558364868 -0.057408720
v 0.077273428 0.682642579 0.064240091
v 0.125530422 0.799855232 0.075646065
v -0.077242158 0.739623904 -0.101165794
v 0.101046383 0.794153094 0.077017359
v -0.175338969 0.578266680 -0.047074120
v -0.172073156 0.637061238 -0.066460587
v 0.063482106 0.702053070 0.055477798
v -0.091298424 0.757709622 -0.118975937
v -0.175495550 0.565245986 -0.076275095
v 0.018846605 0.817500591 -0.104776718
v 0.100185290 0.822303772 0.075894311
v 0.082271986 0.846241593 0.065544225
v -0.165261388 0.611471117 -0.064925626
v 0.132862717 0.934990883 0.033405930
v 0.018168135 0.667727649 -0.065676093
v 0.020862181 0.647922933 -0.058991004
v -0.148523062 0.556544125 -0.069575816
v 0.152012587 0.937345624 0.034349445
v -0.142279983 0.751286387 -0.131465495
v 0.143292010 0.934946418 0.018843379
v -0.145740092 0.616295695 -0.074558705
v 0.045993801 0.889455199 -0.145724759
v -0.163071036 0.598909020 -0.083230890
v 0.153192282 0.938945949 0.003538194
v 0.034830038 0.702816129 -0.076758787
v 0.036537528 0.726319075 -0.087717079
v -0.148870438 0.732420504 -0.113874577
v 0.169201523 0.944450080 -0.005626646
v -0.142106637 0.754604161 -0.105947413
v -0.108237542 0.920046151 -0.135120109
v -0.048772018 0.903907776 0.085055351
v 0.166081756 0.941653907 -0.024329200
v -0.148279339 0.552028835 -0.095581830
v -0.158446699 0.745749652 -0.092745312
v -0.144432575 0.592129648 -0.074164167
v -0.148019373 0.889075458 -0.119128525
v 0.179063186 0.946642280 -0.034315296
v -0.175881997 0.756852269 -0.107399687
v 0.037897438 0.629242063 -0.056220181
v -0.124271765 0.555699944 -0.099417046
v -0.177416474 0.747069001 -0.083633944
v 0.165030792 0.942635357 -0.047487579
v -0.147892147 0.871071458 -0.136584744
v 0.161807641 0.942959785 -0.067269452
v -0.192556113 0.766009212 -0.067769393
v -0.144504860 0.598005950 -0.094082475
v 0.192595825 0.705819726 0.058938272
v 0.155066416 0.941103816 -0.086145684
v -0.202679083 0.750913501 -0.050391257
v 0.050904941 0.749170065 -0.095424175
v -0.106086507 0.567031324 -0.095183715
v -0.033177637 0.589545071 -0.044959318
v 0.159998223 0.943527043 -0.105026007
v -0.213625401 0.769662559 -0.048775218
v 0.199613705 0.785980105 0.031115439
v -0.035918422 0.668918252 0.031043300
v 0.125566900 0.941461265 -0.118666306
v 0.196365774 0.756365478 0.042469930
v -0.080530658 0.766968131 0.066235624
v -0.111015163 0.606538415 -0.080787875
v -0.085605986 0.576844931 -0.081942216
v 0.061766136 0.630717695 -0.070403531
v -0.105208144 0.619013190 -0.101783477
v -0.079809710 0.601768553 -0.065107681
v -0.075982764 0.577123761 -0.057028420
v 0.080919258 0.662687480 -0.096766993
v 0.065092698 0.727506399 -0.093965694
v -0.206020072 0.727868915 0.054609455
v 0.053445052 0.793962896 0.056806095
v 0.041312806 0.769279361 0.052974336
v -0.206606001 0.754114211 0.050991375
v 0.037013181 0.745074928 0.041542660
v -0.033887096 0.773305058 -0.106113791
v 0.099520221 0.703741789 -0.119561657
v -0.182388037 0.766407669 0.061235070
v -0.077476971 0.643449068 -0.075978629
v -0.083752304 0.623092055 -0.073401578
v 0.106831655 0.646053791 -0.105982006
v -0.179430068 0.740667522 0.061299037
v -0.053212412 0.601392984 -0.061190747
v 0.117167994 0.927900434 -0.128514230
v 0.121490121 0.670282722 -0.093017131
v -0.062724471 0.624814391 -0.073290810
v -0.164514586 0.755738795 0.081482835
v -0.055943239 0.658680916 -0.081249975
v 0.112502053 0.946396947 -0.128536463
v -0.043227553 0.634929061 -0.060573023
v 0.115933038 0.617457092 -0.101936743
v -0.189730555 0.582580984 -0.021819845
v -0.191277221 0.563354850 0.002635025
v 0.140440911 0.661027253 -0.094787732
v -0.153387979 0.733812213 0.081808522
v -0.133592010 0.748238385 0.078332245
v 0.119923376 0.719704509 -0.105954885
v -0.081479952 0.830821872 0.087514848
v -0.068439722 0.946774364 0.062571920
v -0.125149339 0.727560699 0.098643407
v 0.143507645 0.708064258 -0.107323527
v -0.111922398 0.750821769 0.095621385
v -0.095496461 0.808968723 0.090063982
v 0.154369265 0.714937985 -0.087909564
v -0.106536463 0.734324992 0.074647151
v 0.113250278 0.863220572 -0.137214571
v -0.077589482 0.787687123 0.083927035
v -0.105637357 0.788728237 0.078323752
v 0.174500436 0.699854434 -0.079141334
v -0.095408604 0.770296454 0.091096841
v 0.165186331 0.631248355 -0.067412816
v 0.179703996 0.647898257 -0.065825716
v -0.099735111 0.755542278 0.074033462
v -0.079266757 0.741266072 0.071327180
v -0.119922794 0.768884659 0.080372974
v -0.032219194 0.757044435 0.049367942
v -0.132451266 0.789928615 0.077601671
v -0.119851097 0.809211254 0.075619735
v 0.187939316 0.692988396 -0.058961600
v 0.209519655 0.659786105 -0.043427911
v -0.075610042 0.808610618 0.067439027
v -0.145754248 0.770148218 0.072685659
v -0.057738997 0.671639025 0.051207256
v -0.146745533 0.811346352 0.068400599
v 0.188005179 0.667211890 -0.052366275
v -0.166176707 0.832238495 0.079705395
v 0.213296816 0.655717492 -0.020284340
v -0.181000546 0.791034102 0.060749900
v 0.222427055 0.703588963 -0.023722108
v -0.170269385 0.779408574 0.080728911
v -0.070830457 0.854305565 0.084434442
v -0.174618080 0.814617991 0.058131773
v 0.207476780 0.611946344 -0.017449336
v -0.069356091 0.896616280 0.061737072
v -0.009086967 0.775050700 -0.084618136
v -0.065781176 0.921528459 0.063724041
v -0.185149372 0.821584105 0.037771333
v -0.206846312 0.765214741 0.023807222
v -0.043131441 0.926547408 0.070842676
v -0.006672753 0.795119882 -0.090235196
v -0.104132868 0.938278079 0.048020944
v -0.210972860 0.753483891 -0.002019946
v 0.075646155 0.835688233 -0.135242254
v 0.121147357 0.909044623 -0.132709116
v -0.210417241 0.833960235 0.004254790
v -0.088183329 0.944816470 0.058229923
v 0.207222074 0.699210405 0.001720881
v 0.096019350 0.944698155 -0.138128132
v -0.193907350 0.893015981 -0.026012123
v 0.213693649 0.715492368 0.020514555
v -0.209831625 0.771362185 -0.022952270
v -0.208447143 0.797812879 -0.019878577
v -0.203187943 0.823247552 -0.020561354
v 0.096161000 0.926306546 -0.136970103
v 0.214199990 0.759569585 -0.000469712
v 0.079127118 0.937421322 -0.136191517
v -0.094346836 0.850943685 0.068817474
v -0.027597606 0.883931279 -0.142044306
v 0.198817044 0.702912450 0.036664002
v 0.058671825 0.943577945 -0.133209735
v 0.066574931 0.932354629 -0.151413426
v 0.192504197 0.602531314 0.008135045
v -0.089660019 0.920261979 0.066919848
v -0.027660016 0.860108554 -0.138254598
v -0.198933125 0.791900933 -0.058256485
v -0.181380242 0.901343644 -0.090896741
v -0.106163405 0.829068184 0.073582582
v 0.037561368 0.945607781 -0.131557569
v -0.189132914 0.791180551 -0.082313932
v 0.017085813 0.942195415 -0.129747838
v -0.158932954 0.796734333 -0.100071073
v 0.184148073 0.606964707 0.031503841
v -0.179403469 0.783435404 -0.107249692
v 0.018056920 0.926526904 -0.133877546
v -0.002528736 0.939221203 -0.127092242
v 0.200138330 0.680035710 0.049487516
v 0.189504817 0.652841628 0.053264808
v 0.089197524 0.800166249 -0.134293750
v 0.021924969 0.919600368 0.075373843
v -0.162477806 0.823439240 -0.099467151
v -0.158276767 0.770959258 -0.097314477
v -0.159598663 0.924572289 -0.087436393
v 0.067600437 0.815232098 -0.139111012
v 0.174173579 0.679581285 0.057568293
v -0.135534585 0.779074192 -0.111180224
v -0.066398099 0.558773398 -0.038243148
v -0.112515785 0.788597047 -0.133895740
v -0.077520058 0.552455366 -0.054272793
v -0.086877704 0.547202229 -0.070563570
v -0.124471389 0.769193470 -0.137477100
v 0.160845548 0.664287090 0.078231461
v 0.162437454 0.646538496 0.057934605
v -0.104121938 0.547929049 -0.076778628
v 0.151258558 0.617257178 0.061652131
v -0.118994996 0.835803807 -0.129153207
v 0.046898898 0.911562145 0.066780485
v 0.029611027 0.894698143 0.071282670
v -0.112539306 0.540285110 -0.094800137
v 0.165986627 0.693337321 0.079731092
v -0.114784978 0.810809255 -0.142882228
v 0.145673230 0.703302503 0.075256601
v 0.149855927 0.637345731 0.082225278
v -0.116104007 0.534640491 -0.078234099
v -0.004225673 0.818853557 0.041283518
v -0.005035629 0.799306631 0.035311855
v -0.104892835 0.802186131 -0.116424248
v -0.125845537 0.529259980 -0.093165025
v -0.088264331 0.852380633 -0.160450652
v -0.113432802 0.776224017 -0.115172707
v -0.128500268 0.545218527 -0.083789289
v -0.140494525 0.531655133 -0.082706347
v -0.158904776 0.532595694 -0.079791971
v -0.059037637 0.780873179 0.058028270
v -0.031112265 0.782914698 0.049001306
v 0.094918765 0.667175889 0.065222457
v 0.099269859 0.644042075 0.065135390
v -0.177315071 0.535671771 -0.072517224
v -0.160591289 0.541599154 -0.064615078
v -0.034855969 0.712460399 0.049796842
v 0.076474331 0.658253789 0.057872791
v 0.052967347 0.675294638 0.050977647
v -0.174784198 0.536996007 -0.052040868
v -0.087260619 0.840520382 -0.139303476
v 0.085253716 0.706024587 0.069699898
v -0.192633495 0.533090234 -0.044723663
v -0.056719415 0.696771204 0.068795532
v 0.031080768 0.676984847 0.032993976
v -0.050888628 0.650776267 0.035357907
v -0.104639903 0.833423615 -0.150317937
v 0.023217332 0.624581575 0.038857590
v -0.073462404 0.671005547 0.075726211
v 0.080527492 0.750484049 0.065840535
v -0.050387800 0.611445546 0.036139283
v -0.075372711 0.615132928 0.050834078
v -0.063049749 0.863437176 -0.162837356
v -0.079322897 0.871995747 -0.148963705
v -0.082785137 0.716336787 0.074992105
v -0.062189825 0.885439277 -0.148692146
v 0.094363227 0.867481411 -0.156784564
v -0.201221615 0.530583262 -0.026924750
v 0.092678197 0.729627907 0.074839219
v -0.087875418 0.618895471 0.077144600
v -0.112457752 0.710516214 0.075259238
v 0.098400354 0.841522038 -0.146240950
v -0.091727361 0.648861408 0.080807418
v -0.099431984 0.670198679 0.066795915
v -0.081628099 0.872956932 0.061911453
v 0.075563014 0.635612786 -0.092079379
v -0.060474735 0.878371716 0.083378665
v 0.115978800 0.734187365 0.079221599
v -0.114096917 0.654504120 0.071468815
v 0.137600273 0.864435077 -0.123630211
v -0.184717864 0.537942469 -0.030129563
v -0.038413066 0.734730124 0.039652444
v 0.098550059 0.625904620 -0.080751792
v -0.186093032 0.537776113 -0.001149414
v -0.142629549 0.675396919 0.091437735
v 0.093684636 0.649093568 -0.084676474
v -0.182828277 0.538531959 0.018882884
v -0.116234019 0.667725623 0.090030640
v 0.131825045 0.718243241 0.084529594
v 0.140691146 0.742176414 0.076097123
v 0.130155995 0.884297848 -0.140526190
v -0.172858328 0.548364520 0.032526433
v -0.128541142 0.700027525 0.096198775
v -0.162131935 0.560612917 0.046706162
v -0.134984031 0.658026338 0.073115639
v -0.173302099 0.545092523 0.050204355
v -0.153590500 0.546637654 0.054379631
v -0.140819624 0.693105876 0.075009368
v -0.162369117 0.659874678 0.074452974
v -0.138256058 0.545277774 0.066320330
v 0.159551010 0.724606574 0.087700389
v -0.157490849 0.679460466 0.063983962
v -0.137329966 0.565351486 0.065064341
v -0.123032913 0.552460730 0.062423956
v 0.126317561 0.604533017 -0.080859728
v -0.161228314 0.701424122 0.065534219
v 0.188764840 0.734141707 0.062733509
v 0.130706206 0.625447154 -0.080636047
v 0.150071770 0.917076945 -0.105876006
v -0.117714383 0.557082057 0.079071000
v -0.154034600 0.639825940 0.074145034
v -0.107137099 0.560786307 0.061232738
v 0.134185031 0.928744137 -0.139366031
v -0.091776162 0.556391001 0.048315406
v -0.074998625 0.555662334 0.034315281
v 0.197677612 0.727472365 0.038985003
v 0.155509681 0.881083190 -0.134634018
v -0.063871115 0.563311458 0.017701235
v -0.048677690 0.570983231 0.003892453
v -0.183047622 0.714503229 0.057334900
v -0.039998662 0.589483976 0.002320714
v -0.178828433 0.666330099 0.053319804
v 0.145598501 0.613554835 -0.093155392
v 0.167060554 0.856641471 -0.124435365
v 0.212894678 0.741707683 0.021061391
v -0.205001444 0.701426685 0.054848690
v -0.201518297 0.649700999 0.053684853
v -0.204609439 0.675715804 0.053108167
v -0.049541019 0.741955519 -0.110645913
v 0.168557510 0.606257975 -0.091948815
v 0.210052580 0.756847799 -0.025720054
v 0.143157959 0.895964622 -0.119026646
v 0.012075291 0.797922254 -0.090944864
v -0.063570864 0.763217807 -0.099932522
v 0.076106936 0.748672187 -0.101369366
v -0.061518550 0.723632514 0.056138884
v 0.209592789 0.729465842 -0.007166412
v -0.195252240 0.663341165 0.028145572
v -0.208010748 0.707679749 0.011247193
v -0.195974156 0.803538024 0.044225179
v 0.161723539 0.605163932 -0.067335978
v -0.201109722 0.654722095 0.000717680
v 0.126762763 0.910419464 0.065649584
v 0.219714090 0.732145429 -0.035867125
v -0.204906300 0.681205928 0.003834754
v -0.221224383 0.698242366 -0.013101946
v -0.220743582 0.715840459 -0.034749918
v 0.177146584 0.596210897 -0.048925631
v 0.201511696 0.712727189 -0.043538302
v -0.222953126 0.639122546 -0.006511469
v -0.214881226 0.807867050 0.002196657
v 0.154465199 0.872696102 -0.110542670
v -0.036652409 0.947729886 0.082857229
v 0.197638378 0.738941610 -0.054132648
v 0.195650816 0.746182799 -0.082400121
v -0.095788166 0.824128032 -0.125462264
v -0.071080625 0.823227406 -0.136454746
v 0.179176480 0.622067094 -0.053113360
v -0.226328969 0.667663753 -0.018482788
v 0.196220577 0.582574129 -0.056624055
v 0.193973690 0.717556179 -0.068588927
v -0.022217300 0.941680908 -0.130992204
v -0.043372095 0.941262603 -0.134609342
v 0.165606067 0.850913703 -0.094651088
v 0.018966798 0.765021205 0.038049910
v -0.064203866 0.935827732 -0.137478158
v -0.055979043 0.750366986 0.062303446
v 0.177145690 0.724314034 -0.083253622
v 0.164317891 0.743499458 -0.089000382
v -0.083208337 0.927543521 -0.139784008
v 0.173059329 0.878766835 -0.094058380
v -0.201483220 0.647637427 -0.022704504
v -0.082686342 0.943331063 -0.148665056
v -0.095301762 0.920174301 -0.153859749
v -0.210445598 0.813535690 -0.045827731
v -0.095222838 0.941724658 -0.133076623
v -0.114945635 0.944175422 -0.129134655
v 0.167919859 0.725743711 -0.110263027
v -0.196670339 0.709827363 -0.058812551
v -0.190128699 0.818937659 -0.070377901
v -0.188881934 0.837478280 -0.097669959
v -0.198117137 0.667911291 -0.038171530
v 0.178682715 0.864466071 -0.070951164
v 0.163922757 0.921135604 -0.080029316
v -0.182651669 0.601324916 -0.041826554
v 0.057520509 0.747962594 0.056393415
v 0.141698599 0.733111441 -0.101313844
v -0.077001698 0.800588727 -0.127021283
v -0.175489515 0.722233295 -0.079621546
v 0.171716005 0.915899754 -0.059422143
v -0.093994677 0.782738864 -0.123070970
v -0.182835966 0.593134999 -0.067423180
v 0.121979222 0.743038356 -0.109536514
v -0.181062058 0.660032392 -0.060634423
v -0.173337072 0.652410090 -0.091736883
v 0.189574644 0.919284165 -0.045604352
v -0.170762479 0.674785972 -0.074911609
v -0.171294212 0.705580354 -0.102445088
v 0.190652400 0.866969943 -0.033003092
v -0.168486238 0.624325395 -0.087396242
v -0.034830905 0.660652339 -0.063412935
v 0.091724083 0.728477061 -0.104920790
v -0.133564323 0.944662213 -0.125271365
v -0.127888456 0.928406894 -0.122817948
v -0.153659508 0.721388459 -0.090257809
v -0.149993271 0.696118116 -0.086270824
v -0.149514183 0.669636011 -0.080983162
v -0.149065122 0.642522931 -0.076518178
v -0.140702426 0.820595264 -0.132055908
v 0.077023610 0.796118379 0.071931526
v 0.205467850 0.611671567 -0.051426213
v -0.147465438 0.947723985 -0.092875794
v -0.160292640 0.951985240 -0.078242153
v 0.215955213 0.634169579 -0.035266526
v -0.013583633 0.582503915 -0.011916892
v -0.165163890 0.951165199 -0.059452750
v 0.199721843 0.871867776 -0.003621030
v -0.167240247 0.945749581 -0.040687066
v -0.170197278 0.928410888 -0.030164357
v -0.170770183 0.945827663 -0.023561720
v 0.214307308 0.756316304 -0.049749069
v 0.175927162 0.919390976 -0.029078687
v -0.166553751 0.940277874 -0.006285381
v -0.159197301 0.924455464 0.000280533
v -0.157453477 0.934571266 0.015214029
v 0.056744415 0.793741643 -0.104257897
v -0.140609354 0.933873355 0.022595957
v 0.180878803 0.916887283 -0.006795560
v -0.147643715 0.940557778 0.037844416
v -0.147420049 0.626427770 -0.099051908
v 0.184860930 0.859210134 0.017660271
v 0.013845460 0.711282313 -0.073394328
v -0.011616663 0.695310354 -0.067864709
v -0.011116478 0.714757085 -0.073754989
v 0.134931922 0.919725597 -0.120391414
v -0.145920172 0.653848767 -0.102734469
v -0.010875157 0.734598398 -0.078078084
v -0.143266410 0.707123816 -0.112112485
v 0.011489620 0.733622551 -0.078420922
v -0.010347201 0.754501104 -0.082266122
v -0.132720798 0.939833760 0.050394941
v 0.175114542 0.757085204 -0.108113036
v 0.159142569 0.911114037 0.003002991
v -0.125229329 0.638492882 -0.108362094
v -0.138167486 0.925992966 0.037483502
v -0.120988473 0.931193233 0.041470341
v 0.167706832 0.902485728 0.034067497
v 0.043104116 0.864325821 -0.149210066
v -0.142937094 0.680656612 -0.107370637
v -0.125630036 0.724474072 -0.132834673
v 0.147324085 0.915823579 0.022395167
v -0.121508777 0.665526986 -0.116741560
v 0.187014848 0.851241708 0.043592252
v -0.121395923 0.660396039 -0.090660736
v -0.007774050 0.738831043 0.028875995
v -0.105561115 0.913452744 0.050155453
v 0.126964256 0.915812314 0.041407593
v 0.135531142 0.894270778 0.042563483
v 0.147944376 0.916590691 0.045280989
v -0.103394471 0.646667302 -0.104654849
v -0.121043041 0.687568009 -0.097131550
v -0.099220276 0.672406018 -0.108536541
v 0.051113915 0.632374823 0.038284875
v -0.119724192 0.713963091 -0.104823723
v 0.053334691 0.912672400 -0.144865543
v -0.094288811 0.698126972 -0.112984464
v 0.023425175 0.904543579 -0.144364864
v -0.045193203 0.850424290 -0.148600549
v -0.040002074 0.877112210 -0.162691563
v 0.197036356 0.628213763 0.005505943
v 0.189741343 0.635363877 0.030943479
v -0.067489699 0.688430607 -0.095176063
v -0.066669703 0.715365529 -0.112993777
v -0.137734622 0.939736545 -0.109135807
v 0.165172487 0.858758092 0.043529138
v 0.157540411 0.861198306 0.068528324
v -0.183329284 0.560740590 -0.026997328
v 0.166285768 0.595916629 0.049856883
v 0.178404734 0.623623073 0.053546410
v -0.195167094 0.546561599 -0.016638739
v 0.136517227 0.880744278 0.071557581
v -0.052962810 0.578573465 -0.045188811
v -0.053340655 0.569888115 -0.025699440
v 0.009025145 0.608267128 0.017865589
v -0.035878394 0.577989817 -0.016138261
v -0.016795360 0.922082067 0.068604372
v 0.071322694 0.899189949 -0.148454994
v -0.027949249 0.938837707 0.069199696
v -0.042443000 0.596475661 0.022060476
v 0.139974311 0.610419869 0.087603047
v 0.041104604 0.933707356 0.068549640
v 0.084067523 0.566322446 0.070136100
v 0.079728872 0.583251059 0.052997965
v 0.110941708 0.581742406 0.062258463
v 0.044794656 0.834882438 -0.145737737
v 0.130863830 0.583514988 0.081072457
v 0.061030585 0.589061379 0.036342781
v 0.187879935 0.576564133 0.012027504
v 0.132815614 0.843936741 0.067916468
v 0.116686419 0.862976670 0.059494972
v 0.175742656 0.887205124 0.005749297
v 0.118087068 0.607771695 0.069191165
v 0.195158690 0.896319747 -0.023223519
v 0.194313020 0.888900101 -0.056295503
v 0.062673971 0.928178906 0.076251745
v 0.092870533 0.620425105 0.073584192
v 0.119037725 0.634013474 0.086590067
v 0.168837860 0.893034756 -0.073027052
v 0.171048954 0.908078313 -0.096482866
v 0.092102535 0.594537377 0.072279215
v 0.157458216 0.894094348 -0.103853866
v 0.168038681 0.573059499 -0.056930713
v 0.181362480 0.583345771 -0.082531467
v 0.074974783 0.631756961 0.053164028
v 0.146844268 0.587415636 -0.075988278
v 0.144360974 0.905739486 -0.139628142
v 0.079535879 0.606271803 0.051887114
v 0.125537768 0.688019574 0.083966814
v 0.157245964 0.588954568 0.074070789
v 0.178493127 0.578936934 0.033259802
v 0.204443052 0.587897062 0.029739564
v 0.201155871 0.686269999 -0.038658537
v 0.167779937 0.695620179 -0.101798154
v 0.052319400 0.610329032 0.045816056
v 0.143518493 0.682312429 -0.104471780
v 0.190560251 0.594940364 -0.030668383
v 0.203333661 0.584790826 -0.008262058
v 0.039193463 0.652445495 0.032017522
v 0.008108666 0.679160595 0.024927821
v 0.093163028 0.871501267 0.060420353
v 0.076138213 0.916015029 0.061952364
v 0.016996510 0.701507807 0.030330667
v 0.041857056 0.816043079 0.049681880
v 0.023823470 0.791042924 0.045569081
v 0.020570956 0.606676519 -0.055856328
v 0.066038199 0.902550578 0.080135025
v 0.042341229 0.652313352 -0.068573341
v 0.039554004 0.875359893 0.063612424
v 0.056732822 0.888489842 0.062740423
v 0.017342355 0.874991059 0.064652376
v 0.040126018 0.584213614 -0.049235292
v 0.065173268 0.658460259 -0.078171358
v 0.088818893 0.773368955 0.074274048
v 0.211785033 0.687712073 0.026339805
v 0.193794340 0.799314976 -0.065956675
v 0.069527768 0.581524670 -0.060937636
v 0.150736436 0.684520245 -0.082151279
v 0.131110489 0.786230803 -0.111009523
v 0.120317519 0.695376217 -0.099237353
v 0.092799142 0.573117971 -0.083515748
v 0.053686410 0.703950107 -0.091671810
v 0.041158266 0.772920191 -0.096325904
v 0.119188532 0.587402701 -0.099232666
v 0.122935906 0.578129888 -0.073259547
v 0.107411072 0.917216480 -0.151560903
v 0.077669330 0.890990913 0.062925637
v 0.072697684 0.870422065 0.083248921
v 0.131741375 0.562057614 -0.098089777
v 0.031915426 0.855348289 0.062985241
v 0.052103043 0.839032471 0.058012106
v 0.083898902 0.918741703 -0.163112640
v 0.155732006 0.558884680 -0.074037224
v 0.177673876 0.767093360 -0.086576179
v 0.022260943 0.836427987 -0.122335114
v 0.153276891 0.624399781 -0.079142585
v 0.185893804 0.556253016 -0.074480601
v 0.015698330 0.689374328 -0.068799809
v 0.165535122 0.550640643 -0.058637004
v 0.034155212 0.797860265 -0.097403720
v 0.190292850 0.554713607 -0.052130014
v 0.182007909 0.574629366 -0.039629295
v 0.072083876 0.726508915 0.060922127
v 0.104991890 0.889538646 -0.141559258
v 0.091166720 0.893941700 -0.161194831
v 0.017328290 0.774929166 -0.088343829
v 0.201333165 0.568228304 -0.027318120
v 0.122072674 0.645374060 -0.085986614
v 0.201279953 0.636703849 -0.016327694
v 0.209283382 0.616152167 0.025582388
v 0.168006361 0.634760976 -0.090212241
v 0.145548463 0.639704108 -0.092877224
v 0.197610110 0.557815909 0.033480216
v 0.165491268 0.841447353 0.056317639
v 0.205011249 0.843644798 0.009721232
v 0.192812502 0.640350461 -0.043577116
v 0.054683723 0.606663764 -0.058339126
v 0.171253040 0.564308703 0.058874827
v 0.100950003 0.752926052 0.077928580
v 0.200893611 0.653858781 -0.000293191
v 0.212599441 0.643921256 0.019989569
v 0.101924695 0.666065574 -0.093296871
v 0.151092693 0.558594227 0.078776561
v 0.126810759 0.836995959 -0.135778457
v -0.006750288 0.758609712 0.031586699
v -0.014066732 0.663804889 0.023820061
v 0.059207659 0.650592983 0.045976710
v 0.132454753 0.565015435 0.062326711
v 0.147526175 0.844403088 -0.110306799
v -0.008281879 0.721235216 0.036403485
v -0.005983128 0.778853476 0.033209968
v 0.109578073 0.560523212 0.072498307
v 0.023628723 0.836139381 0.052209366
v -0.003576846 0.836532712 0.051115382
v 0.115455687 0.887720764 0.050138988
v 0.061514132 0.568331301 0.051652808
v 0.109289959 0.912687421 0.048907358
v 0.191810548 0.559865832 -0.006920758
v 0.122339904 0.755264580 0.080471255
v 0.037440982 0.928584099 -0.149708942
v 0.039176974 0.571683884 0.034079440
v 0.069909409 0.877880573 -0.149252653
v 0.010778090 0.578987241 0.024348112
v 0.036111884 0.598985910 0.024411341
v 0.045530684 0.818642139 -0.117439970
v 0.016657749 0.816270649 0.041614033
v 0.012013645 0.650353014 0.025434360
v -0.015618552 0.643812120 0.025306091
v -0.010375069 0.703158021 0.029203076
v 0.182205081 0.557786942 -0.027631331
v -0.012183260 0.683753014 0.025278786
v 0.074305572 0.603209138 -0.087306902
v 0.092098005 0.750210047 -0.121130466
v 0.115834020 0.764866710 -0.123402193
v 0.163512051 0.744148970 0.067660451
v 0.110075489 0.710302472 0.074894264
v 0.168395549 0.714504898 0.063115969
v 0.105093971 0.599955380 -0.076546125
v 0.183584899 0.552589297 0.013671028
f 555 540 123
f 389 162 497
f 567 540 568
f 583 104 251
f 463 489 430
f 453 94 255
f 483 484 162
f 446 640 671
f 574 577 251
f 50 244 238
f 52 244 50
f 575 57 53
f 55 249 52
f 55 2 250
f 577 248 563
f 575 437 432
f 57 597 589
f 2 265 262
f 589 592 57
f 262 259 2
f 5 267 262
f 602 606 589
f 5 9 11
f 58 606 610
f 11 272 5
f 12 278 11
f 565 793 8
f 630 60 632
f 13 425 12
f 424 289 160
f 289 424 13
f 643 649 60
f 181 403 179
f 483 206 484
f 163 651 174
f 53 563 558
f 651 65 650
f 163 389 384
f 683 66 65
f 455 558 563
f 165 384 171
f 340 331 34
f 67 66 683
f 206 470 63
f 385 102 856
f 67 702 70
f 344 340 696
f 179 403 406
f 710 70 702
f 16 352 14
f 111 112 59
f 63 64 655
f 18 368 16
f 710 742 753
f 119 112 111
f 394 671 545
f 551 922 903
f 19 375 18
f 753 740 711
f 406 470 179
f 261 615 108
f 545 453 439
f 178 386 530
f 24 386 23
f 72 753 742
f 26 396 24
f 768 765 72
f 119 142 112
f 32 63 470
f 112 142 161
f 399 400 396
f 154 343 182
f 545 671 448
f 399 415 400
f 768 770 765
f 32 406 410
f 418 415 399
f 770 183 777
f 387 300 166
f 415 418 422
f 105 86 299
f 169 42 839
f 170 142 119
f 173 172 705
f 329 638 343
f 134 738 737
f 185 638 329
f 692 661 145
f 150 74 741
f 637 345 873
f 132 145 661
f 170 184 142
f 138 495 760
f 138 136 188
f 136 194 188
f 201 87 194
f 270 87 205
f 216 49 210
f 46 216 724
f 198 184 170
f 43 96 907
f 219 39 218
f 45 43 41
f 224 37 219
f 498 224 514
f 86 105 342
f 225 36 514
f 378 107 110
f 80 233 107
f 22 41 43
f 198 217 849
f 41 581 45
f 103 233 76
f 76 40 103
f 222 217 214
f 678 100 40
f 98 41 22
f 366 41 98
f 40 76 678
f 215 4 284
f 215 98 21
f 537 536 92
f 222 234 217
f 904 537 92
f 460 462 30
f 284 471 366
f 222 239 246
f 586 903 759
f 462 28 30
f 246 234 222
f 454 449 28
f 237 391 924
f 560 319 921
f 246 888 252
f 431 471 282
f 455 560 391
f 319 560 241
f 50 238 793
f 50 566 52
f 52 574 55
f 258 263 510
f 244 52 249
f 55 253 2
f 284 792 657
f 303 670 667
f 303 100 674
f 250 249 55
f 273 274 252
f 251 253 574
f 100 303 301
f 301 570 100
f 104 261 257
f 677 100 678
f 273 285 274
f 257 2 253
f 2 257 265
f 250 2 259
f 570 568 40
f 752 292 293
f 294 296 285
f 285 296 274
f 684 497 679
f 277 274 296
f 440 447 442
f 579 489 463
f 692 329 695
f 259 262 267
f 871 736 360
f 262 271 9
f 40 100 570
f 570 567 568
f 203 128 270
f 310 296 294
f 305 296 310
f 87 270 194
f 9 5 262
f 5 272 600
f 276 9 271
f 9 276 11
f 272 11 278
f 302 323 310
f 568 103 40
f 108 615 89
f 280 11 276
f 11 280 12
f 103 568 540
f 278 12 425
f 323 337 328
f 283 12 280
f 12 283 13
f 283 297 289
f 289 13 283
f 540 561 231
f 425 13 424
f 209 288 205
f 291 125 286
f 346 337 323
f 49 304 288
f 173 350 351
f 297 654 314
f 347 158 864
f 304 47 311
f 47 304 49
f 47 46 481
f 360 361 855
f 501 684 146
f 481 311 47
f 46 39 481
f 343 695 329
f 314 289 297
f 289 314 160
f 481 321 308
f 481 39 321
f 325 122 321
f 325 321 37
f 37 321 39
f 333 160 314
f 324 266 333
f 527 107 231
f 84 121 325
f 36 327 498
f 160 333 34
f 327 120 84
f 36 82 371
f 277 393 390
f 689 34 333
f 34 689 340
f 313 34 331
f 266 334 689
f 334 260 341
f 340 335 331
f 107 527 110
f 54 404 405
f 696 14 344
f 61 401 44
f 38 299 407
f 358 14 348
f 14 358 16
f 344 14 352
f 356 704 712
f 352 16 368
f 413 62 417
f 370 16 358
f 16 370 18
f 175 705 134
f 713 115 110
f 371 27 378
f 27 371 82
f 381 18 370
f 18 381 19
f 368 18 375
f 80 378 27
f 19 381 235
f 19 395 23
f 19 23 178
f 202 506 913
f 23 395 24
f 386 24 396
f 398 24 395
f 24 398 26
f 26 398 220
f 26 412 399
f 396 26 399
f 418 399 412
f 164 180 444
f 444 443 164
f 175 173 705
f 685 84 120
f 422 300 415
f 685 121 84
f 172 169 300
f 172 300 422
f 78 80 27
f 226 365 78
f 89 615 114
f 240 485 309
f 134 737 175
f 226 27 82
f 245 459 452
f 187 186 140
f 243 459 245
f 189 187 130
f 581 466 579
f 467 472 637
f 308 122 240
f 138 579 466
f 430 255 463
f 499 435 430
f 453 430 435
f 435 440 439
f 435 499 450
f 243 479 281
f 308 321 122
f 897 438 584
f 439 453 435
f 243 281 893
f 450 440 435
f 480 859 865
f 440 449 447
f 442 439 440
f 450 449 440
f 447 449 454
f 492 488 493
f 127 458 456
f 449 456 28
f 82 225 708
f 454 28 462
f 28 456 30
f 456 450 127
f 30 456 458
f 225 82 36
f 30 464 460
f 506 507 502
f 126 469 125
f 287 508 509
f 207 507 506
f 410 460 32
f 126 306 477
f 460 464 644
f 644 32 460
f 32 644 63
f 475 31 576
f 470 406 32
f 64 63 644
f 306 309 477
f 125 464 458
f 528 795 511
f 516 523 524
f 655 206 63
f 206 655 484
f 206 474 470
f 162 679 497
f 316 322 822
f 313 160 34
f 37 498 325
f 523 316 534
f 497 684 501
f 501 146 505
f 146 512 503
f 505 503 513
f 263 515 510
f 512 120 115
f 503 512 91
f 517 513 503
f 115 713 91
f 458 203 125
f 315 547 548
f 91 512 115
f 547 330 336
f 91 713 88
f 517 88 522
f 552 548 547
f 532 88 713
f 88 532 519
f 552 336 553
f 522 519 541
f 527 231 561
f 127 128 458
f 538 660 692
f 514 36 498
f 224 498 37
f 538 692 695
f 114 626 631
f 553 342 105
f 219 37 39
f 555 660 561
f 127 450 499
f 891 199 824
f 660 555 661
f 218 39 46
f 199 97 886
f 366 98 284
f 22 21 98
f 41 366 581
f 43 232 22
f 907 232 43
f 96 536 907
f 45 463 255
f 45 581 463
f 255 94 96
f 255 96 45
f 94 453 545
f 448 546 545
f 582 593 594
f 595 584 438
f 216 46 47
f 216 47 49
f 551 640 558
f 558 640 569
f 49 288 209
f 793 565 50
f 569 53 558
f 566 50 565
f 209 210 49
f 841 351 350
f 574 52 566
f 578 53 57
f 612 609 423
f 53 578 563
f 575 53 569
f 597 432 211
f 253 55 574
f 57 575 597
f 578 57 592
f 592 583 578
f 627 609 612
f 584 621 628
f 603 589 606
f 602 589 597
f 634 819 627
f 610 606 602
f 835 318 229
f 626 606 58
f 610 624 58
f 58 624 630
f 632 58 630
f 634 884 869
f 58 632 626
f 60 642 632
f 642 60 649
f 60 630 181
f 650 649 643
f 662 652 645
f 656 628 621
f 621 636 656
f 658 659 204
f 64 644 469
f 466 495 138
f 694 377 700
f 468 471 431
f 663 650 65
f 628 656 668
f 679 162 484
f 65 686 663
f 672 673 659
f 686 65 66
f 683 65 651
f 468 431 478
f 683 693 67
f 685 146 684
f 146 685 512
f 696 340 689
f 66 67 701
f 473 495 478
f 66 698 686
f 702 67 693
f 668 675 687
f 701 698 66
f 405 690 54
f 701 67 70
f 54 690 564
f 14 696 348
f 711 70 710
f 699 70 711
f 702 709 710
f 229 318 236
f 657 282 471
f 710 709 742
f 753 756 740
f 756 753 72
f 742 754 72
f 72 754 768
f 72 765 756
f 766 765 770
f 490 193 496
f 130 772 496
f 770 776 766
f 15 719 168
f 87 201 148
f 183 770 768
f 201 194 136
f 422 705 172
f 633 777 338
f 777 633 150
f 408 74 633
f 638 185 408
f 106 730 258
f 688 379 694
f 275 631 118
f 185 692 145
f 197 750 749
f 736 737 738
f 263 258 730
f 738 741 743
f 185 145 143
f 743 741 744
f 744 741 74
f 744 467 879
f 132 140 145
f 123 132 661
f 741 738 150
f 123 540 567
f 773 772 567
f 738 134 150
f 78 27 226
f 238 623 1
f 264 279 779
f 776 150 134
f 134 705 420
f 695 541 538
f 104 599 261
f 365 681 680
f 761 762 763
f 365 678 76
f 76 78 365
f 411 156 420
f 156 411 220
f 541 519 538
f 220 764 156
f 76 233 78
f 80 78 233
f 168 789 387
f 70 699 701
f 398 395 228
f 434 437 445
f 779 780 887
f 428 432 434
f 926 317 706
f 197 749 745
f 213 6 4
f 279 785 780
f 419 427 428
f 148 201 745
f 454 462 419
f 526 782 783
f 381 734 235
f 410 414 419
f 493 769 913
f 511 4 215
f 4 511 213
f 406 414 410
f 208 731 729
f 21 511 215
f 210 728 727
f 794 800 823
f 511 21 529
f 470 474 179
f 724 218 46
f 227 110 115
f 118 280 275
f 219 218 722
f 806 800 794
f 803 804 256
f 716 778 225
f 224 219 720
f 407 86 690
f 356 734 381
f 389 497 380
f 809 795 528
f 810 806 811
f 717 716 514
f 497 501 380
f 317 697 429
f 810 818 821
f 913 771 202
f 341 698 699
f 373 376 159
f 369 177 373
f 341 260 698
f 260 334 266
f 365 226 681
f 517 522 354
f 828 821 818
f 354 362 364
f 569 640 446
f 519 522 88
f 767 828 818
f 266 324 676
f 602 597 211
f 804 834 256
f 121 240 122
f 345 868 918
f 610 602 211
f 169 839 166
f 427 195 211
f 643 179 174
f 683 651 165
f 693 683 171
f 627 884 634
f 324 654 676
f 846 397 841
f 841 397 374
f 362 709 369
f 580 397 846
f 192 188 190
f 192 499 489
f 128 192 190
f 270 205 203
f 205 288 286
f 291 306 126
f 208 148 733
f 288 304 291
f 304 311 306
f 311 481 308
f 286 125 203
f 283 118 297
f 589 599 592
f 283 280 118
f 227 115 120
f 747 805 732
f 707 226 82
f 107 378 80
f 275 114 631
f 118 646 297
f 89 114 275
f 231 233 103
f 87 209 205
f 816 872 870
f 271 108 89
f 248 560 455
f 248 241 560
f 108 271 265
f 566 565 241
f 86 876 690
f 622 244 619
f 517 91 88
f 574 566 248
f 715 662 889
f 244 249 618
f 249 250 614
f 882 465 718
f 253 251 257
f 774 465 882
f 250 259 608
f 883 494 774
f 921 391 560
f 259 267 604
f 54 564 847
f 251 577 583
f 600 267 5
f 89 276 271
f 503 91 517
f 690 405 407
f 275 276 89
f 892 573 582
f 272 278 596
f 248 577 574
f 280 276 275
f 425 588 591
f 425 424 781
f 781 313 572
f 424 313 781
f 572 585 781
f 314 654 324
f 136 197 201
f 313 557 572
f 237 551 558
f 554 331 335
f 334 341 348
f 760 136 138
f 335 344 549
f 341 699 704
f 348 696 334
f 921 319 7
f 358 348 704
f 344 352 544
f 912 582 594
f 903 586 551
f 352 368 543
f 381 370 356
f 368 375 539
f 788 8 3
f 535 375 178
f 221 795 809
f 828 767 562
f 559 833 920
f 921 920 899
f 546 448 898
f 903 922 836
f 38 903 299
f 235 228 395
f 405 669 407
f 546 92 94
f 400 518 520
f 92 546 904
f 639 35 926
f 386 396 525
f 927 926 33
f 928 605 930
f 200 490 298
f 94 545 546
f 96 92 536
f 927 56 852
f 143 472 408
f 220 412 26
f 400 520 521
f 412 220 411
f 109 113 152
f 920 832 559
f 418 412 411
f 152 113 746
f 387 789 786
f 420 418 411
f 746 161 867
f 418 420 422
f 490 773 298
f 496 772 773
f 394 442 445
f 562 767 832
f 739 636 820
f 204 725 658
f 773 490 496
f 725 223 635
f 447 454 428
f 472 186 637
f 215 284 98
f 189 130 496
f 458 464 30
f 410 462 460
f 125 469 464
f 635 247 487
f 487 269 629
f 641 487 629
f 268 269 487
f 269 393 629
f 390 269 268
f 469 126 64
f 349 761 763
f 655 64 477
f 303 674 670
f 290 393 277
f 611 290 928
f 163 474 483
f 928 307 605
f 635 641 648
f 531 605 533
f 677 674 100
f 477 309 485
f 506 202 207
f 679 485 240
f 240 121 684
f 312 912 594
f 684 679 240
f 121 685 684
f 186 187 345
f 503 505 146
f 912 332 892
f 772 130 132
f 685 120 512
f 501 505 159
f 725 648 658
f 505 513 373
f 513 517 364
f 892 847 564
f 110 527 713
f 714 847 339
f 522 541 154
f 51 714 346
f 231 103 540
f 714 51 404
f 541 695 343
f 567 772 123
f 502 500 506
f 578 577 563
f 867 659 673
f 577 578 583
f 597 575 432
f 592 104 583
f 913 492 493
f 845 167 839
f 599 104 592
f 386 178 23
f 599 603 615
f 110 227 378
f 615 261 599
f 706 402 639
f 603 626 114
f 132 123 772
f 624 610 195
f 409 706 317
f 746 673 682
f 114 615 603
f 120 327 227
f 624 414 403
f 691 429 697
f 642 631 632
f 642 118 631
f 429 433 853
f 646 118 642
f 642 649 646
f 152 682 691
f 682 433 691
f 181 643 60
f 654 297 646
f 122 325 121
f 140 130 187
f 421 416 617
f 123 661 555
f 309 308 240
f 698 260 686
f 702 693 177
f 698 701 699
f 672 441 436
f 291 126 125
f 109 691 697
f 143 140 186
f 874 872 816
f 665 441 672
f 188 192 489
f 665 658 653
f 712 704 699
f 653 451 665
f 927 697 317
f 712 740 734
f 648 461 653
f 178 375 19
f 923 880 116
f 641 461 648
f 740 756 748
f 748 758 228
f 926 706 639
f 479 641 482
f 754 742 362
f 354 754 362
f 407 669 38
f 203 458 128
f 482 629 620
f 756 765 758
f 182 754 154
f 128 127 192
f 254 246 252
f 611 382 620
f 764 398 228
f 499 192 127
f 764 766 156
f 766 776 156
f 930 611 928
f 420 156 776
f 140 132 130
f 788 7 8
f 387 166 168
f 420 776 134
f 136 760 197
f 300 387 415
f 750 197 760
f 745 201 197
f 148 208 209
f 733 148 745
f 258 35 106
f 593 533 605
f 731 208 733
f 236 318 910
f 729 210 208
f 728 210 729
f 727 216 210
f 188 489 579
f 929 573 556
f 724 216 727
f 573 929 582
f 723 218 724
f 722 218 723
f 720 219 722
f 717 224 720
f 514 224 717
f 188 579 138
f 876 556 573
f 707 681 226
f 898 904 546
f 472 143 186
f 212 795 221
f 899 391 921
f 854 925 931
f 213 795 212
f 140 143 145
f 404 54 714
f 833 922 924
f 415 387 786
f 143 408 185
f 238 3 793
f 1 3 238
f 31 799 752
f 622 238 244
f 918 799 515
f 380 376 171
f 915 752 357
f 617 476 421
f 619 244 618
f 618 249 616
f 616 249 614
f 636 739 613
f 388 613 10
f 614 250 608
f 357 791 915
f 383 688 388
f 608 259 607
f 571 438 576
f 295 667 666
f 92 96 94
f 607 259 604
f 372 726 700
f 667 295 303
f 367 726 372
f 604 267 601
f 298 295 207
f 923 875 880
f 363 732 367
f 408 467 74
f 148 209 87
f 298 301 295
f 359 747 363
f 601 267 600
f 359 355 755
f 600 272 598
f 598 272 596
f 353 755 355
f 301 298 773
f 596 278 591
f 747 755 751
f 591 278 425
f 588 425 781
f 388 688 813
f 769 771 913
f 763 353 349
f 202 771 200
f 506 500 913
f 74 467 744
f 773 570 301
f 82 708 707
f 320 647 326
f 500 492 913
f 331 554 557
f 242 910 320
f 344 335 340
f 910 908 647
f 554 335 550
f 239 222 703
f 549 550 335
f 549 344 544
f 166 167 168
f 544 352 543
f 543 368 542
f 17 15 167
f 17 845 157
f 907 536 919
f 157 850 155
f 155 850 153
f 542 368 539
f 150 633 74
f 153 854 151
f 151 854 149
f 149 858 147
f 147 862 144
f 539 375 535
f 759 903 38
f 530 535 178
f 144 862 141
f 141 866 139
f 139 866 137
f 530 386 525
f 137 870 135
f 525 396 521
f 135 870 872
f 133 872 131
f 131 874 129
f 129 923 117
f 923 874 875
f 170 119 902
f 521 396 400
f 20 932 101
f 99 101 932
f 99 886 97
f 95 97 199
f 95 891 93
f 93 896 90
f 518 400 786
f 90 896 85
f 85 901 83
f 83 905 81
f 169 166 300
f 81 905 79
f 77 79 796
f 77 909 75
f 439 394 545
f 75 914 73
f 73 914 71
f 71 916 69
f 442 394 439
f 468 466 366
f 442 447 434
f 7 562 920
f 794 534 811
f 924 899 833
f 434 447 428
f 428 454 419
f 419 462 410
f 38 898 759
f 902 111 897
f 466 468 495
f 526 524 534
f 25 59 56
f 96 43 45
f 895 401 61
f 182 343 338
f 483 389 163
f 483 162 389
f 897 59 25
f 883 894 775
f 776 777 150
f 59 897 111
f 380 384 389
f 774 882 893
f 111 902 119
f 778 708 225
f 501 159 380
f 167 166 839
f 159 505 373
f 176 191 867
f 373 513 369
f 364 369 513
f 850 890 925
f 354 364 517
f 354 522 154
f 177 369 709
f 154 541 343
f 446 445 437
f 376 380 159
f 204 223 725
f 217 198 214
f 214 703 222
f 437 569 446
f 610 211 195
f 414 624 195
f 403 630 624
f 889 718 715
f 160 313 424
f 181 630 403
f 888 246 239
f 179 643 181
f 174 650 643
f 651 650 174
f 163 384 165
f 487 247 268
f 165 651 163
f 171 683 165
f 174 474 163
f 557 313 331
f 475 515 799
f 376 693 171
f 285 273 757
f 177 693 376
f 627 885 884
f 174 179 474
f 509 508 516
f 294 302 310
f 709 702 177
f 709 362 742
f 154 754 354
f 182 338 183
f 780 785 803
f 183 768 182
f 423 413 881
f 183 338 777
f 638 338 343
f 633 638 408
f 590 401 895
f 692 185 329
f 190 188 194
f 515 475 25
f 270 190 194
f 190 270 128
f 195 427 414
f 7 788 562
f 915 878 571
f 877 595 438
f 203 205 286
f 44 48 61
f 474 206 483
f 210 209 208
f 61 62 895
f 413 895 62
f 211 432 427
f 172 42 169
f 398 764 220
f 515 263 918
f 437 575 569
f 228 758 764
f 124 885 426
f 175 871 350
f 84 498 327
f 225 514 716
f 327 371 227
f 918 263 730
f 898 448 759
f 371 327 36
f 839 374 890
f 227 371 378
f 451 441 665
f 228 235 748
f 444 180 457
f 233 231 107
f 187 868 345
f 759 448 586
f 189 292 868
f 734 748 235
f 653 461 826
f 924 922 237
f 292 193 196
f 446 671 394
f 461 641 479
f 922 551 237
f 391 237 455
f 482 641 629
f 918 868 799
f 196 200 293
f 771 293 200
f 558 455 237
f 281 287 894
f 894 893 281
f 248 566 241
f 257 251 104
f 255 430 453
f 257 261 265
f 509 775 287
f 260 266 676
f 509 516 524
f 265 261 108
f 523 516 531
f 322 316 523
f 273 252 888
f 265 271 262
f 811 534 316
f 316 315 811
f 676 686 260
f 366 466 581
f 478 495 468
f 330 547 315
f 547 336 552
f 366 471 468
f 760 495 473
f 657 471 284
f 336 342 553
f 553 900 552
f 832 900 553
f 865 878 791
f 792 284 4
f 31 571 576
f 286 288 291
f 438 571 877
f 906 864 863
f 4 790 792
f 8 7 319
f 303 295 301
f 291 304 306
f 570 773 567
f 739 617 392
f 617 416 392
f 306 311 309
f 309 311 308
f 170 628 668
f 613 739 10
f 739 392 10
f 656 675 668
f 656 815 675
f 680 678 365
f 813 613 388
f 324 333 314
f 687 198 668
f 379 688 383
f 295 666 207
f 815 656 636
f 377 694 379
f 325 498 84
f 689 333 266
f 334 696 689
f 700 377 372
f 861 834 860
f 703 721 239
f 732 726 367
f 834 861 256
f 348 341 704
f 747 732 363
f 356 358 704
f 735 888 721
f 370 358 356
f 735 264 757
f 735 273 888
f 755 747 359
f 369 364 362
f 353 763 755
f 647 761 326
f 761 349 326
f 376 373 177
f 779 757 264
f 780 779 279
f 384 380 171
f 235 395 19
f 736 871 737
f 562 788 917
f 910 647 320
f 785 804 803
f 414 406 403
f 256 323 803
f 813 675 815
f 415 786 400
f 427 419 414
f 422 420 705
f 432 428 427
f 430 489 499
f 587 580 590
f 437 434 432
f 445 442 434
f 446 394 445
f 671 586 448
f 819 609 627
f 456 449 450
f 455 563 248
f 865 791 769
f 581 579 463
f 645 652 817
f 644 464 469
f 652 662 715
f 874 923 129
f 715 664 652
f 694 812 688
f 477 64 126
f 750 760 473
f 485 655 477
f 465 715 718
f 507 207 666
f 465 774 494
f 865 486 480
f 812 675 813
f 485 484 655
f 207 202 298
f 883 504 825
f 493 865 769
f 783 782 504
f 679 484 485
f 202 200 298
f 196 490 200
f 196 193 490
f 877 859 476
f 302 803 323
f 189 496 193
f 814 806 810
f 168 719 789
f 821 814 810
f 391 899 924
f 713 527 532
f 467 408 472
f 302 294 887
f 786 787 518
f 538 519 532
f 561 532 527
f 926 35 33
f 538 532 660
f 540 555 561
f 551 586 640
f 319 241 565
f 660 532 561
f 113 161 746
f 161 176 867
f 8 319 565
f 223 247 635
f 781 585 784
f 620 629 393
f 887 780 302
f 269 390 393
f 671 640 586
f 781 784 588
f 599 589 603
f 393 290 611
f 626 603 606
f 928 290 305
f 623 238 622
f 625 1 623
f 774 893 894
f 312 332 912
f 626 632 631
f 332 339 847
f 847 892 332
f 757 887 285
f 847 714 54
f 793 3 8
f 732 807 726
f 858 931 857
f 675 812 687
f 168 167 15
f 273 735 757
f 920 921 7
f 402 385 639
f 167 845 17
f 638 633 338
f 646 649 663
f 650 663 649
f 845 850 157
f 888 239 721
f 663 654 646
f 706 409 48
f 850 854 153
f 676 654 663
f 429 409 317
f 661 692 660
f 854 858 149
f 676 663 686
f 858 862 147
f 433 429 691
f 678 680 677
f 699 711 712
f 712 734 356
f 711 710 753
f 862 866 141
f 712 711 740
f 682 436 827
f 734 740 748
f 866 870 137
f 214 687 808
f 748 756 758
f 664 816 652
f 872 133 135
f 198 687 214
f 754 182 768
f 872 874 131
f 665 659 658
f 758 765 766
f 658 648 653
f 766 764 758
f 776 770 777
f 668 198 170
f 117 923 116
f 787 786 789
f 929 330 822
f 533 822 322
f 556 336 330
f 531 322 523
f 899 920 833
f 662 444 889
f 346 323 256
f 491 482 620
f 116 880 911
f 911 20 116
f 382 491 620
f 911 932 20
f 932 886 99
f 645 443 662
f 930 382 611
f 382 930 516
f 886 824 199
f 605 531 930
f 491 508 848
f 628 170 902
f 256 347 346
f 482 848 479
f 891 896 93
f 347 256 861
f 820 617 739
f 866 819 817
f 605 594 593
f 896 901 85
f 929 593 582
f 612 881 885
f 901 905 83
f 826 451 653
f 451 457 180
f 672 659 665
f 441 180 851
f 79 905 796
f 436 673 672
f 436 851 827
f 909 914 75
f 682 673 436
f 914 916 71
f 584 902 897
f 876 86 342
f 69 916 1
f 829 433 827
f 700 808 694
f 788 3 916
f 853 829 417
f 409 61 48
f 402 48 855
f 870 817 816
f 855 29 360
f 874 816 664
f 385 361 102
f 830 880 875
f 576 897 25
f 819 634 817
f 68 69 1
f 106 856 730
f 743 736 738
f 910 242 236
f 862 857 819
f 744 879 102
f 880 830 831
f 840 528 843
f 401 846 44
f 803 302 780
f 769 791 357
f 878 915 791
f 831 911 880
f 918 873 345
f 576 25 475
f 799 31 475
f 841 29 846
f 879 856 102
f 106 639 385
f 573 564 876
f 911 831 802
f 342 556 876
f 337 339 332
f 25 510 515
f 350 29 841
f 564 573 892
f 892 582 912
f 510 25 56
f 864 906 837
f 312 328 337
f 929 822 593
f 33 35 258
f 871 360 29
f 840 860 835
f 864 158 863
f 29 855 44
f 916 914 917
f 808 687 812
f 594 307 312
f 307 305 328
f 916 917 788
f 33 56 927
f 840 835 809
f 307 594 605
f 736 743 361
f 531 516 930
f 290 277 305
f 852 109 927
f 318 835 860
f 21 844 529
f 852 59 112
f 620 393 611
f 102 743 744
f 112 113 852
f 751 763 762
f 647 785 762
f 805 747 751
f 252 268 254
f 230 835 229
f 487 641 635
f 637 879 467
f 124 851 164
f 809 230 221
f 161 142 176
f 807 732 805
f 247 234 254
f 230 809 835
f 808 700 807
f 345 637 186
f 176 184 191
f 812 694 808
f 204 849 223
f 849 204 191
f 813 688 812
f 635 648 725
f 849 184 198
f 815 613 813
f 815 636 613
f 217 223 849
f 659 191 204
f 217 234 223
f 191 184 849
f 859 480 421
f 795 213 511
f 245 461 243
f 878 865 859
f 802 886 932
f 191 659 867
f 452 718 889
f 223 234 247
f 176 142 184
f 246 254 234
f 865 493 486
f 293 771 357
f 268 247 254
f 771 769 357
f 805 264 735
f 268 252 390
f 161 113 112
f 486 493 488
f 390 252 274
f 867 673 746
f 264 751 279
f 274 277 390
f 746 682 152
f 281 848 287
f 827 433 682
f 808 703 214
f 152 691 109
f 109 852 113
f 476 859 421
f 296 305 277
f 476 595 877
f 305 307 928
f 196 293 292
f 595 476 820
f 726 807 700
f 752 293 357
f 307 328 312
f 310 328 305
f 56 59 852
f 292 752 799
f 328 310 323
f 886 825 824
f 312 337 332
f 807 703 808
f 891 824 782
f 193 292 189
f 844 21 22
f 429 853 409
f 109 697 927
f 56 33 510
f 105 559 553
f 339 337 346
f 346 714 339
f 51 346 347
f 317 926 927
f 564 690 876
f 863 844 232
f 799 868 292
f 510 33 258
f 843 528 529
f 844 863 842
f 861 840 843
f 861 158 347
f 861 860 840
f 752 915 31
f 158 843 842
f 843 158 861
f 842 529 844
f 919 837 906
f 906 232 907
f 809 528 840
f 730 873 918
f 730 856 873
f 873 856 879
f 856 106 385
f 817 634 645
f 837 919 838
f 817 652 816
f 919 906 907
f 919 536 537
f 743 102 361
f 904 669 838
f 898 669 904
f 669 898 38
f 703 807 721
f 405 404 838
f 669 405 838
f 922 833 836
f 294 285 887
f 361 385 402
f 869 645 634
f 830 875 664
f 916 3 1
f 864 51 347
f 402 855 361
f 909 801 914
f 397 890 374
f 48 44 855
f 796 909 77
f 879 637 873
f 901 798 905
f 580 925 397
f 48 402 706
f 896 800 901
f 891 823 896
f 409 62 61
f 853 62 409
f 881 413 417
f 417 62 853
f 86 407 299
f 459 893 882
f 199 891 95
f 830 465 831
f 829 426 417
f 426 829 124
f 426 881 417
f 124 829 827
f 433 829 853
f 886 802 825
f 774 894 883
f 851 124 827
f 164 884 124
f 441 851 436
f 180 164 851
f 443 869 164
f 911 802 932
f 715 830 664
f 874 664 875
f 736 361 360
f 451 180 441
f 457 452 889
f 889 444 457
f 866 817 870
f 106 35 639
f 459 718 452
f 826 452 457
f 452 826 245
f 451 826 457
f 862 819 866
f 858 857 862
f 461 245 826
f 459 882 718
f 479 243 461
f 854 931 858
f 850 925 854
f 846 401 580
f 845 890 850
f 491 848 482
f 848 281 479
f 825 494 883
f 382 508 491
f 900 832 767
f 508 287 848
f 896 823 800
f 839 890 845
f 504 782 824
f 42 374 839
f 516 508 382
f 908 910 318
f 534 524 523
f 552 818 548
f 42 172 173
f 901 800 798
f 818 552 900
f 533 322 531
f 871 175 737
f 868 187 189
f 22 232 844
f 593 822 533
f 822 315 316
f 929 556 330
f 330 315 822
f 838 919 537
f 904 838 537
f 318 860 834
f 908 318 834
f 465 830 715
f 556 342 336
f 105 836 559
f 833 559 836
f 29 44 846
f 908 834 804
f 562 917 828
f 299 836 105
f 818 900 767
f 832 553 559
f 562 832 920
f 811 315 548
f 828 801 821
f 801 828 917
f 821 797 814
f 836 299 903
f 401 590 580
f 797 821 801
f 905 798 796
f 796 814 797
f 810 548 818
f 814 798 806
f 798 814 796
f 909 796 797
f 811 548 810
f 413 587 590
f 404 51 837
f 51 864 837
f 837 838 404
f 909 797 801
f 529 842 843
f 158 842 863
f 232 906 863
f 800 806 798
f 529 528 511
f 794 811 806
f 785 908 804
f 785 647 908
f 859 877 878
f 526 534 794
f 877 571 878
f 571 31 915
f 173 351 42
f 524 783 509
f 350 173 175
f 29 350 871
f 823 526 794
f 783 524 526
f 526 823 782
f 42 351 374
f 841 374 351
f 504 775 783
f 509 783 775
f 782 823 891
f 885 124 884
f 887 757 779
f 914 801 917
f 426 885 881
f 890 397 925
f 825 504 824
f 775 504 883
f 925 587 931
f 587 925 580
f 802 494 825
f 785 279 762
f 494 831 465
f 831 494 802
f 894 287 775
f 590 895 413
f 438 897 576
f 884 164 869
f 762 279 751
f 423 931 587
f 587 413 423
f 931 423 857
f 762 761 647
f 617 820 476
f 595 820 621
f 751 755 763
f 893 459 243
f 751 264 805
f 609 857 423
f 423 881 612
f 662 443 444
f 721 805 735
f 621 584 595
f 857 609 819
f 443 645 869
f 612 885 627
f 636 621 820
f 628 902 584
f 805 721 807
