# avbd fit result (body space) of Gate 8 run results.txt
v -0.004163147 0.672016799 0.036952510
v -0.111275114 0.693445683 0.073501840
v -0.003970681 0.686164975 0.039969251
v -0.000584135 0.938279033 0.080715224
v -0.159688309 0.679462433 0.063068762
v 0.002305724 0.952350140 0.087504067
v -0.003783181 0.714126468 0.045272388
v -0.003818462 0.700087726 0.043344103
v -0.160897687 0.695528984 0.064288244
v 0.140736341 0.952902913 -0.098833665
v -0.179965734 0.691852212 0.056296039
v -0.195099711 0.693982720 0.039298929
v -0.203060195 0.694979012 0.022693999
v -0.171827182 0.689364970 -0.074491397
v 0.012252281 0.661049783 -0.060951792
v -0.154058665 0.685491025 -0.081567392
v 0.027077109 0.660502017 -0.062932849
v -0.136895537 0.685481310 -0.089365646
v -0.120109245 0.688982189 -0.097935989
v 0.200833291 0.654955268 0.012641135
v -0.000760625 0.910473347 0.069345549
v -0.000897235 0.895873189 0.067668140
v -0.101869605 0.683841050 -0.098123297
v -0.087616570 0.689889371 -0.094326325
v 0.098315582 0.849276543 -0.139272943
v -0.072984770 0.698013067 -0.090807274
v -0.127901167 0.918874562 -0.126874059
v -0.132456750 0.847916245 0.061626952
v 0.041406382 0.744635701 -0.092234328
v -0.145300642 0.857765377 0.054765739
v 0.071010128 0.877495468 -0.149154395
v -0.180540994 0.839040756 0.037440874
v 0.088884398 0.819167316 -0.118924201
v -0.205967382 0.688979447 -0.031448208
v 0.074690245 0.810023606 -0.114181206
v -0.151767939 0.924060166 -0.101961732
v -0.169166476 0.923166633 -0.061622538
v 0.013578275 0.799769998 0.051751085
v -0.170444116 0.927763641 -0.042167284
v -0.074453190 0.915466964 -0.145253107
v -0.027558137 0.899838328 0.066878207
v 0.013970206 0.709315658 -0.079104573
v -0.017743673 0.881924272 0.065415487
v 0.063480832 0.748554766 -0.097726122
v -0.037954945 0.883544326 0.064635634
v -0.167980164 0.933687329 -0.023470467
v -0.166449010 0.919944882 -0.010211122
v 0.073491774 0.766264796 -0.102857493
v -0.158907205 0.923506916 0.007889618
v -0.043026391 0.690440893 0.047160655
v 0.055732310 0.858036518 0.060610764
v -0.064582303 0.691617608 0.054610215
v -0.077732272 0.766006112 0.065152600
v 0.057110131 0.823974133 0.059221458
v -0.085637391 0.691440940 0.063068941
v 0.103906572 0.831020713 -0.123860799
v -0.101220287 0.764382482 0.074530840
v -0.172516912 0.774557710 0.064467981
v 0.120349810 0.844019890 -0.125775576
v -0.199143797 0.773277402 0.033049710
v 0.084067069 0.751279533 -0.103951909
v 0.103957094 0.748168707 -0.109447278
v -0.189595431 0.848650634 0.019490449
v -0.182051688 0.865134239 0.016005931
v -0.209164619 0.770205736 -0.032661155
v -0.198564082 0.763587117 -0.056274105
v -0.187816024 0.773057044 -0.072838143
v 0.008707726 0.669977665 0.043766916
v 0.013456702 0.659439087 0.034888666
v -0.172922164 0.760733783 -0.088503249
v 0.028692270 0.659326434 0.037725691
v -0.116443016 0.767501950 -0.115257084
v 0.043462925 0.658838451 0.042545531
v -0.019188713 0.796083331 -0.102216326
v 0.057961963 0.658372939 0.048153464
v -0.093448207 0.918274522 -0.141531318
v 0.071915470 0.657862723 0.054862343
v -0.110264778 0.920010269 -0.134251699
v 0.086096376 0.657515407 0.060832374
v -0.119067587 0.906602025 -0.134642765
v 0.100196242 0.657179236 0.066575028
v -0.134334549 0.933158278 -0.115314007
v 0.114061557 0.656758666 0.072214887
v -0.165706202 0.894023120 -0.083812654
v 0.129574358 0.656424105 0.073738202
v 0.043883417 0.788317084 0.057963092
v -0.133653834 0.921249568 0.044773743
v -0.123062596 0.842977166 -0.122491598
v -0.161213070 0.722652435 0.066012613
v 0.141989514 0.656314015 0.068109244
v -0.141048282 0.851943612 -0.113550067
v -0.017921710 0.845176339 0.055542815
v 0.155235559 0.656774640 0.062283807
v -0.037623040 0.848041356 0.057340223
v 0.168591589 0.656654954 0.056767892
v -0.024109734 0.863695443 0.061461486
v 0.181830138 0.656274140 0.050973006
v -0.017587155 0.915503204 0.069161922
v 0.189172983 0.656148732 0.038317088
v -0.061399978 0.928764820 -0.140187949
v 0.195513979 0.655683041 0.025760662
v 0.027108008 0.796564937 -0.103170618
v -0.086440206 0.899931908 -0.147636056
v -0.110412322 0.730883956 0.075975217
v 0.037629209 0.770528018 0.055862129
v 0.057660766 0.810274482 -0.112658247
v -0.116853058 0.890046477 -0.136855140
v -0.143609822 0.719049633 0.072081134
v 0.129348025 0.808572114 -0.112895228
v -0.132455483 0.880379498 -0.129305929
v 0.134707466 0.855234027 -0.120326914
v 0.141071662 0.839205861 -0.110430479
v 0.143030033 0.820209801 -0.107000969
v -0.167270631 0.739283025 0.065528557
v -0.146782860 0.871289551 -0.117851540
v 0.200964168 0.654222548 -0.001355463
v 0.201033875 0.653356016 -0.014410650
v -0.198796839 0.731261492 0.036970474
v 0.149425596 0.856233716 -0.109013781
v -0.159779876 0.882792592 -0.101841018
v -0.173805475 0.882858574 -0.065861888
v -0.174957812 0.894041717 -0.051334064
v -0.055446845 0.868418574 -0.146967456
v 0.158338696 0.744145215 -0.092017770
v -0.157661021 0.882587790 0.033547677
v -0.172832727 0.880551219 0.015371005
v -0.113396049 0.873634994 0.053887703
v -0.123182297 0.888667464 0.048837103
v 0.200376719 0.652878404 -0.028563136
v -0.019957328 0.859684169 -0.138621077
v 0.192907840 0.652547479 -0.040729925
v -0.039123088 0.855677962 -0.140397966
v 0.185279980 0.651921868 -0.052739389
v -0.024057543 0.752546668 -0.091269895
v 0.176668301 0.651234329 -0.064182706
v -0.100403726 0.926652133 0.052345295
v 0.163907588 0.650922656 -0.071513042
v -0.082539424 0.921610177 0.060371675
v 0.150705978 0.650504649 -0.077235535
v -0.020934634 0.844138503 -0.131847352
v 0.137101755 0.649960697 -0.082125753
v 0.160842165 0.847408414 -0.097368695
v -0.022422075 0.829707623 -0.122030854
v 0.124331161 0.650113583 -0.086508751
v -0.041428909 0.839058280 -0.132703692
v -0.173418164 0.854014575 -0.087690234
v 0.110586002 0.650328279 -0.091081366
v -0.132511660 0.938729644 0.040215094
v 0.096228063 0.652246654 -0.086699098
v -0.028631177 0.775058270 -0.096862450
v 0.082870975 0.654295087 -0.081090972
v 0.145463139 0.803165317 -0.105703890
v 0.069140449 0.656074882 -0.076139018
v -0.103256561 0.807742476 -0.114594236
v 0.055363763 0.657777727 -0.071143165
v -0.062712453 0.735407233 -0.095404759
v 0.041510366 0.659431696 -0.066226311
v 0.046561144 0.888917625 0.064204507
v -0.183722213 0.825601220 -0.080483466
v -0.207113296 0.696363270 -0.011088066
v 0.159290656 0.828705609 -0.099943817
v -0.198525771 0.843718231 -0.034487743
v -0.205234215 0.812101007 -0.023537626
v 0.179149941 0.738222241 -0.079449430
v -0.206251115 0.800334454 -0.042124845
v -0.002719764 0.687421858 -0.070603319
v 0.016174039 0.676439881 -0.067585856
v -0.002833046 0.674195409 -0.065445073
v -0.002514240 0.700708628 -0.075637087
v 0.162679598 0.868537903 -0.095720880
v -0.196958929 0.803201675 -0.061258443
v -0.002355277 0.714267850 -0.079940371
v -0.002216391 0.727934659 -0.084049843
v -0.209344789 0.799640298 -0.003296351
v -0.001999013 0.741817594 -0.087626621
v 0.175144061 0.836866379 -0.091254547
v -0.174609378 0.797533870 -0.093216412
v -0.108729795 0.668898702 -0.096590415
v -0.199180469 0.808236241 0.022689383
v 0.189650983 0.754550397 -0.067257792
v -0.197432369 0.791113496 0.034124039
v -0.089472070 0.793786883 -0.110698365
v -0.075745158 0.781429470 -0.106119022
v 0.176616356 0.853404820 -0.081947111
v -0.043340325 0.824803233 -0.121066056
v -0.000026311 0.835349917 -0.124732032
v 0.000189247 0.847571075 -0.132262200
v -0.093713835 0.906507611 0.055650812
v 0.000428060 0.860786438 -0.137659341
v -0.111846305 0.901122749 0.049565736
v 0.185596019 0.832577884 -0.074622683
v -0.101247504 0.888105869 0.053888250
v 0.000585665 0.874633491 -0.141144499
v -0.114049949 0.916933060 0.045726586
v -0.153849915 0.797769964 0.068061218
v 0.000715907 0.888929665 -0.141455606
v -0.109404132 0.941298306 0.058404960
v 0.175916478 0.873205364 -0.069833264
v 0.177629322 0.672979951 0.055252999
v 0.000800088 0.903197169 -0.140019804
v -0.121380590 0.931728065 0.052820284
v 0.000856637 0.917346299 -0.137145668
v -0.139569461 0.892094433 0.038317341
v 0.196051508 0.827223659 -0.056467228
v -0.145080075 0.910430729 0.036440127
v -0.201260611 0.840603530 0.000899787
v 0.000913161 0.931233883 -0.132822067
v -0.145038918 0.943390548 0.028763974
v -0.142439276 0.926005960 0.024047768
v -0.156870738 0.940761447 0.013043553
v -0.134947568 0.790888429 0.073865153
v 0.030521149 0.950218201 0.085263707
v 0.015996607 0.950832546 0.086237073
v 0.177782089 0.887225330 -0.048622545
v -0.000640577 0.924658597 0.073792636
v -0.162553132 0.938086152 -0.006132972
v 0.188215345 0.865799129 -0.046445858
v -0.166730881 0.943958282 -0.036863513
v -0.164918184 0.940606952 -0.053708762
v -0.071325004 0.717039943 -0.093990467
v 0.045013227 0.950485885 0.082965873
v 0.183896139 0.877596259 -0.029602205
v 0.198616296 0.841979384 -0.037439693
v -0.162354797 0.938517928 -0.071188450
v -0.144633994 0.941517353 -0.102160431
v -0.116953194 0.935149848 -0.126273870
v -0.146737710 0.891584039 -0.115970336
v -0.101328433 0.719115138 -0.104913101
v 0.073873468 0.951134980 0.076835886
v 0.059493918 0.950832248 0.080172829
v -0.098357953 0.884897351 -0.144184127
v -0.001045390 0.881373405 0.065905668
v -0.104155779 0.902958512 -0.141536549
v 0.192768723 0.859113395 -0.024360739
v -0.119884714 0.710050046 -0.103699282
v 0.088086694 0.951192498 0.073279351
v -0.026134169 0.760287702 0.053310823
v -0.028690983 0.676060736 0.038920455
v 0.180432051 0.886888206 -0.014038833
v -0.182875767 0.878148675 -0.042332619
v -0.039244011 0.717712402 0.049665034
v 0.102240466 0.950884521 0.069622457
v 0.210790351 0.761322379 0.001093093
v -0.052658636 0.674764276 0.046859335
v 0.210241005 0.760491371 -0.017722957
v 0.187967166 0.871791244 -0.008859390
v 0.200144336 0.841039658 -0.012307504
v -0.055816252 0.728651941 0.055306666
v -0.076139912 0.674835086 0.057749163
v -0.098738834 0.676327407 0.067006424
v -0.093063965 0.721705437 0.068460844
v 0.184998184 0.862893462 0.014406900
v -0.095039256 0.705977798 0.068049833
v 0.195256576 0.856853008 -0.004122340
v -0.047518454 0.867107511 0.060927380
v 0.087714002 0.884761989 0.057495713
v -0.111128949 0.713393450 0.074953087
v 0.069688320 0.822381139 -0.121361092
v -0.120516814 0.675087333 0.075712927
v -0.199772865 0.732136786 -0.050397258
v -0.128967643 0.724348068 0.078085274
v -0.139517114 0.689965725 0.072513282
v 0.062414639 0.832175255 -0.131293029
v 0.150245309 0.904245496 0.022325266
v -0.131125301 0.706673086 0.076511756
v -0.205400661 0.718458831 -0.040314540
v -0.143217772 0.672745466 0.069022372
v 0.197225779 0.844212413 0.011702886
v 0.193701252 0.829547048 0.022563603
v -0.126647770 0.904859424 0.039776895
v -0.150798649 0.706900716 0.068744048
v -0.175233409 0.673515916 0.055788845
v 0.170782343 0.876138568 0.022149969
v 0.172472388 0.858839393 0.034019377
v -0.182177395 0.726437271 0.058862727
v -0.172207743 0.709342360 0.060705643
v 0.172069922 0.842406094 0.047563247
v -0.189866796 0.676684022 0.044164896
v 0.141743749 0.910407245 0.041397668
v -0.191845953 0.710870564 0.048826028
v 0.206287906 0.757285953 0.022527387
v -0.046139672 0.950624645 0.083146073
v -0.201197356 0.711322069 0.029457087
v -0.021032531 0.934349656 0.074960314
v 0.160314098 0.872161567 0.039193295
v -0.154093698 0.898636520 0.030009169
v 0.196987480 0.752378285 0.042342976
v -0.150583774 0.909187436 0.016938254
v -0.207829595 0.705348611 0.009123964
v 0.169298351 0.826162696 0.058954287
v -0.160848275 0.893675685 0.014698341
v 0.023600399 0.873129249 -0.141667098
v 0.024572952 0.892508507 -0.142497987
v 0.145634949 0.868997872 0.050750207
v -0.023514751 0.930615067 -0.135007858
v 0.158052683 0.856592834 0.052663505
v -0.209011003 0.723989367 0.014319340
v -0.018221006 0.912435710 -0.139459804
v 0.023702694 0.785565913 0.054842241
v -0.017904598 0.698542953 -0.075310066
v -0.038424611 0.918017745 -0.141718566
v 0.128037304 0.875419617 0.050579488
v -0.043183554 0.934711337 -0.137016505
v -0.164614394 0.906910777 0.002879989
v 0.149151415 0.838166118 0.061948858
v -0.175119132 0.892090917 0.000657041
v 0.134287000 0.822568893 0.069685087
v -0.174565554 0.896943748 -0.033452217
v -0.181016311 0.885649323 -0.019116003
v 0.134853214 0.857450008 0.057752378
v -0.170866534 0.901981533 -0.015017800
v 0.113958016 0.829120934 0.072226144
v -0.204371691 0.676668763 -0.016349634
v -0.208624691 0.714761496 -0.006168706
v 0.102654956 0.748410702 0.074630678
v 0.124785498 0.748244941 0.079865083
v 0.101731837 0.788360476 -0.111951910
v 0.083125249 0.933285713 0.061706744
v -0.020711895 0.716565669 0.046262685
v 0.115425825 0.951645017 0.064516276
v -0.174003050 0.910863101 -0.047537174
v 0.132224202 0.764743447 0.077154741
v 0.108792484 0.865526021 0.058572702
v -0.208873957 0.722278237 -0.021273877
v -0.173759997 0.904197514 -0.067599274
v 0.126954779 0.953219593 0.057791483
v -0.157671511 0.904276252 -0.101864323
v 0.124605201 0.843252361 0.065600470
v -0.062239069 0.821291149 -0.120291427
v 0.091126904 0.765377402 0.071010157
v -0.199630737 0.672297001 -0.037212979
v 0.093094565 0.829314828 0.072425708
v -0.207902104 0.706528783 -0.026023481
v -0.192543149 0.714066386 -0.056288801
v -0.188826904 0.668401897 -0.052117981
v 0.071411170 0.761052191 0.063820593
v 0.102402769 0.847344279 0.069057092
v -0.064341433 0.795373797 -0.107175589
v 0.083436035 0.841805756 0.067313366
v -0.193717763 0.684343696 -0.048864149
v -0.185573205 0.727211118 -0.068663992
v 0.057385225 0.773827255 0.060353853
v -0.078202374 0.810242772 -0.114587143
v -0.179316834 0.674797177 -0.065840930
v 0.019820310 0.838410258 -0.128116086
v 0.081889369 0.861232400 0.062092531
v 0.064375028 0.877343297 0.061364144
v -0.180037275 0.708505034 -0.072027497
v 0.134786397 0.954911530 0.045233607
v 0.020217156 0.736201704 -0.087309852
v 0.021489926 0.721609473 -0.083565682
v -0.161248595 0.671134412 -0.076125026
v 0.145812780 0.953489780 0.035910062
v -0.125264138 0.809237659 -0.115000248
v 0.153516546 0.954200625 0.023562245
v -0.151195168 0.714174747 -0.089953408
v 0.045782376 0.901218414 -0.145411775
v -0.163352221 0.703219593 -0.081617095
v 0.159545302 0.955158234 0.010322621
v 0.033960007 0.761269867 -0.094627060
v 0.037177917 0.779135227 -0.098795280
v -0.138726428 0.796110392 -0.108836077
v 0.163573772 0.955860913 -0.003666825
v -0.142867938 0.813368320 -0.107589878
v -0.100140259 0.934712052 -0.132791504
v -0.039049920 0.920601726 0.067999229
v 0.165284842 0.956128240 -0.018136881
v -0.142868727 0.668828666 -0.083750561
v -0.157585576 0.805297673 -0.100919522
v -0.148086786 0.698383033 -0.087745957
v -0.143058598 0.912015438 -0.115287445
v 0.164548084 0.956035256 -0.031785335
v -0.173159137 0.815776706 -0.094400778
v 0.033718489 0.708264709 -0.081211045
v -0.125772133 0.670270324 -0.091362700
v -0.186357170 0.808954358 -0.077953674
v 0.161528438 0.955273271 -0.045919869
v -0.133709297 0.899321198 -0.128235593
v 0.157991379 0.954541564 -0.059835166
v -0.193545908 0.824539185 -0.062528141
v -0.134575307 0.703353405 -0.095222712
v 0.183293864 0.787095308 0.059690017
v 0.154044554 0.954234898 -0.073546737
v -0.203006595 0.814573944 -0.047196411
v 0.048030049 0.795657396 -0.104884163
v -0.092081591 0.671608925 -0.090931103
v -0.019525321 0.681551874 -0.069225743
v 0.147570387 0.953192592 -0.086352900
v -0.200971693 0.829017460 -0.040037673
v 0.184771642 0.844266117 0.029480536
v -0.020715652 0.744685173 0.050332822
v 0.130049586 0.951632380 -0.108373180
v 0.183206588 0.823105514 0.040252052
v -0.065890007 0.819311321 0.061145671
v -0.102661170 0.700317800 -0.101660766
v -0.073791727 0.677496552 -0.085272640
v 0.053876352 0.710551977 -0.086510316
v -0.086861022 0.708822072 -0.097807668
v -0.056910954 0.692328453 -0.082776248
v -0.054526646 0.675013423 -0.076622143
v 0.074812867 0.734318912 -0.098910138
v 0.060113292 0.780665994 -0.102520600
v -0.186161667 0.802835584 0.046760838
v 0.044882987 0.838951886 0.057927549
v 0.037288070 0.821044445 0.054636598
v -0.183442667 0.820860386 0.040942583
v 0.031712238 0.802946746 0.053696908
v -0.026300063 0.813078701 -0.111039639
v 0.097778134 0.767760336 -0.109830305
v -0.169057116 0.832183063 0.056896698
v -0.055583369 0.721500456 -0.089560337
v -0.060243048 0.707411647 -0.088202693
v 0.105701827 0.724985600 -0.107098773
v -0.166555747 0.812681854 0.061927088
v -0.037174545 0.692498267 -0.076013237
v 0.119638883 0.951129913 -0.116508089
v 0.123558722 0.741774380 -0.108559117
v -0.044578470 0.709576666 -0.083496168
v -0.146433488 0.824115098 0.065596581
v -0.039936665 0.733539104 -0.088860758
v 0.106931545 0.950049698 -0.122960091
v -0.026220733 0.714104295 -0.081295215
v 0.114640787 0.703996837 -0.104065403
v -0.205842346 0.687911093 0.005473557
v -0.198798224 0.677750707 0.025516063
v 0.139191628 0.738506913 -0.100409582
v -0.139014497 0.807781696 0.070493668
v -0.122468390 0.817925572 0.073382922
v 0.119882740 0.777964532 -0.115131453
v -0.069493987 0.870255351 0.060725473
v -0.060574256 0.951406181 0.080218874
v -0.113703609 0.798437417 0.078526884
v 0.139538169 0.772457361 -0.106054112
v -0.099137783 0.813479304 0.075171687
v -0.081075713 0.855763793 0.063631229
v 0.174324244 0.778024495 -0.090383179
v -0.087533511 0.797203362 0.070323907
v 0.112610519 0.887928605 -0.138518333
v -0.072030440 0.837641895 0.063545130
v -0.093528554 0.843564391 0.071069278
v 0.187584251 0.772685647 -0.072628193
v -0.086610854 0.826587319 0.068678573
v 0.185512766 0.724032342 -0.067492530
v 0.193311274 0.737046480 -0.059670947
v -0.081375912 0.811423123 0.066466957
v -0.066247463 0.800637126 0.062061012
v -0.108020924 0.830756783 0.072657034
v -0.026253607 0.811793149 0.052256595
v -0.114658847 0.846138656 0.066427834
v -0.103061721 0.859208405 0.062740907
v 0.199204728 0.770191193 -0.054930042
v 0.209763885 0.746482432 -0.029880922
v -0.058968715 0.851453960 0.060454916
v -0.128790408 0.833917916 0.067168266
v -0.042963557 0.747192264 0.054217577
v -0.124616578 0.860716164 0.058356009
v 0.202591330 0.751275122 -0.049788281
v -0.138380200 0.875096679 0.049327511
v 0.210280091 0.744759202 -0.010130903
v -0.165509388 0.849967778 0.049892347
v 0.209744260 0.781207740 -0.014769996
v -0.148818642 0.841064453 0.060578179
v -0.059220094 0.886171222 0.062002875
v -0.159862831 0.866560280 0.044041269
v 0.208228752 0.711175084 -0.005900952
v -0.061984710 0.919860363 0.064344451
v -0.000462915 0.811176777 -0.108790994
v -0.057976015 0.936552525 0.069479272
v -0.169486240 0.870076776 0.028622117
v -0.194345444 0.829188943 0.021358835
v -0.040894739 0.939052939 0.074358121
v -0.000240221 0.823493659 -0.116470911
v -0.089131400 0.952587903 0.072831601
v -0.205362722 0.820360780 0.000222548
v 0.077801228 0.860524297 -0.146137342
v 0.115135685 0.924610734 -0.130441293
v -0.186138004 0.876824856 -0.000807075
v -0.074917182 0.952097058 0.076767631
v 0.210643217 0.778744578 0.011356951
v 0.092704676 0.948947787 -0.126741543
v -0.171930969 0.915277600 -0.028409293
v 0.202227429 0.792342424 0.025824314
v -0.201662228 0.831988931 -0.018490545
v -0.196937993 0.851437271 -0.018213270
v -0.188843429 0.868441582 -0.020659875
v 0.078039810 0.948184311 -0.129375473
v 0.204414561 0.825198174 0.004098556
v 0.063045993 0.947686017 -0.130888909
v -0.081103951 0.888028622 0.059881173
v -0.014727829 0.893422902 -0.141936332
v 0.193074971 0.784334779 0.042788807
v 0.047936637 0.947086990 -0.131202444
v 0.057879806 0.934643745 -0.137565851
v 0.205672234 0.704658151 0.019508542
v -0.075618364 0.937348664 0.065356776
v -0.018885963 0.876597106 -0.142291665
v -0.194518313 0.844507873 -0.055097044
v -0.163460210 0.917873383 -0.083070092
v -0.091138393 0.872388184 0.058466423
v 0.032337748 0.946424484 -0.130371258
v -0.184391692 0.842143834 -0.073696963
v 0.016719505 0.945447564 -0.128287494
v -0.156163678 0.843252778 -0.101575807
v 0.188703150 0.711039364 0.054341830
v -0.173426837 0.835241199 -0.093679816
v 0.016749561 0.934552014 -0.132379070
v 0.000938147 0.944156170 -0.125902519
v 0.189483911 0.767868996 0.052959718
v 0.181412250 0.746980667 0.061807830
v 0.082550079 0.831624687 -0.132606000
v 0.016083503 0.929598451 0.073485702
v -0.157943815 0.862723172 -0.101186529
v -0.156684726 0.824379325 -0.101717174
v -0.155245483 0.938402474 -0.087638900
v 0.068026230 0.845158279 -0.142706394
v 0.167370349 0.765876770 0.066433460
v -0.136903137 0.831074119 -0.111025751
v -0.045876108 0.659645259 -0.068114579
v -0.106624112 0.834451556 -0.127866328
v -0.059355188 0.658275723 -0.073168330
v -0.072804913 0.656877637 -0.078199454
v -0.115580693 0.824749470 -0.118338667
v 0.146136075 0.754207551 0.072936386
v 0.160374194 0.740325272 0.068593010
v -0.086162612 0.655371308 -0.083247729
v 0.152858615 0.718671143 0.069052421
v -0.112990364 0.871758759 -0.138799787
v 0.035730403 0.924288750 0.069231652
v 0.022399383 0.912220657 0.068359278
v -0.099134490 0.653528452 -0.088857919
v 0.147958905 0.775833964 0.072562665
v -0.106055759 0.851663232 -0.137782916
v 0.129687846 0.780120850 0.076897815
v 0.138260737 0.733153164 0.075707033
v -0.113443688 0.652276635 -0.091115765
v -0.001314341 0.853530765 0.058340233
v -0.001453346 0.839875400 0.054223485
v -0.088797666 0.834473491 -0.135386556
v -0.126673564 0.652381301 -0.086709097
v -0.076055661 0.881227493 -0.148794800
v -0.095074758 0.822945714 -0.121521518
v -0.139246732 0.652399242 -0.082498968
v -0.152362093 0.653169036 -0.077373408
v -0.165326923 0.653678536 -0.071832851
v -0.048011158 0.829634547 0.057082154
v -0.024525570 0.829656124 0.053930439
v 0.085186064 0.750277877 0.067706935
v 0.088657990 0.733726382 0.068020463
v -0.177461848 0.654229820 -0.064202927
v -0.186032295 0.655111909 -0.053118445
v -0.027640700 0.777349412 0.054445278
v 0.070487052 0.742957056 0.061936606
v 0.051242638 0.754195809 0.057880215
v -0.193548441 0.655921161 -0.041475464
v -0.072956361 0.862783253 -0.147302106
v 0.077026650 0.778290510 0.066093914
v -0.200857595 0.656429887 -0.029748127
v -0.051521342 0.767206073 0.058095656
v 0.029897770 0.753186941 0.053785287
v -0.031341925 0.731380820 0.050224580
v -0.092803515 0.866299808 -0.145358697
v 0.027016360 0.715120614 0.048401725
v -0.064885840 0.748939633 0.059958417
v 0.069118336 0.809220135 0.062956423
v -0.031513043 0.703918278 0.046757467
v -0.053044092 0.707100987 0.052497398
v -0.053682346 0.887474239 -0.147209316
v -0.068978488 0.898155987 -0.148938447
v -0.070592478 0.783116400 0.063777938
v -0.054260910 0.907921016 -0.146625593
v 0.090897322 0.891614795 -0.146766469
v -0.201610535 0.657037377 -0.015941216
v 0.081830956 0.795552850 0.068440571
v -0.074234568 0.711416602 0.060260318
v -0.094173312 0.780948341 0.072333977
v 0.097242773 0.871969700 -0.144341573
v -0.076962695 0.732658148 0.062814482
v -0.086502932 0.750360847 0.067741320
v -0.071426965 0.903997123 0.062301200
v 0.072233744 0.715345740 -0.093630984
v -0.049252167 0.902619660 0.065258041
v 0.099290550 0.800312817 0.075841196
v -0.094923429 0.736908615 0.070197754
v 0.134184524 0.886714280 -0.127752155
v -0.201571971 0.657579184 -0.003058794
v -0.026665037 0.794421256 0.053554267
v 0.091459110 0.706562519 -0.098541662
v -0.197253287 0.659130216 0.023090456
v -0.128177911 0.760391831 0.078142710
v 0.087139517 0.723034918 -0.100302935
v -0.191045910 0.659577012 0.035433833
v -0.108275875 0.748042583 0.076267630
v 0.116273142 0.790690064 0.079100884
v 0.119621515 0.809411168 0.075992696
v 0.124706149 0.905571461 -0.132225320
v -0.185024232 0.659546971 0.048005991
v -0.117760658 0.778935790 0.079762943
v -0.172674865 0.659580231 0.054970931
v -0.129360452 0.741907597 0.078216702
v -0.159612671 0.659549832 0.060408521
v -0.146489605 0.658904910 0.065960221
v -0.137225345 0.775808454 0.075048454
v -0.148998588 0.749917984 0.071689151
v -0.134284854 0.658764184 0.071530238
v 0.138347954 0.798288167 0.072538286
v -0.152460560 0.766293824 0.070530213
v -0.119215526 0.658567369 0.073863879
v -0.105658516 0.658704877 0.068393186
v 0.132490158 0.698342502 -0.094439536
v -0.154559821 0.782737017 0.069700912
v 0.176590934 0.808189213 0.058927972
v 0.133464843 0.712202728 -0.097715415
v 0.150401711 0.936124444 -0.099396087
v -0.091875255 0.658659399 0.062816344
v -0.146827906 0.733641982 0.072301969
v -0.077933654 0.658574998 0.057172380
v 0.125170261 0.937913418 -0.120910920
v -0.064027883 0.658578277 0.051109880
v -0.050473500 0.658753753 0.044183213
v 0.189510167 0.802484035 0.041765179
v 0.142392069 0.903637290 -0.118597746
v -0.036448766 0.658936262 0.038341694
v -0.021849228 0.658706486 0.034693211
v -0.172262505 0.793435276 0.063646711
v -0.018175617 0.669546127 0.043515377
v -0.170750961 0.756788373 0.064671114
v 0.148012608 0.708026588 -0.089777179
v 0.153088406 0.886911869 -0.109740481
v 0.198039159 0.811867714 0.023328517
v -0.188755319 0.783433557 0.050371725
v -0.190696388 0.745084763 0.055121880
v -0.190450162 0.764885545 0.051846642
v -0.040868443 0.794327140 -0.103494778
v 0.164021298 0.703759789 -0.080863513
v 0.203642577 0.821596444 -0.016771957
v 0.146044344 0.919897735 -0.109388545
v 0.014222148 0.825029194 -0.117910802
v -0.051255293 0.809647560 -0.111722291
v 0.068380132 0.796299279 -0.107833847
v -0.048354756 0.787879646 0.057990752
v 0.208895952 0.802171588 0.000628300
v -0.200612545 0.753570557 0.034584522
v -0.207832605 0.785989165 0.016227266
v -0.174966291 0.855717182 0.032961149
v 0.181694657 0.706901848 -0.068901129
v -0.210104182 0.744068384 0.015191411
v 0.116775535 0.933553219 0.051887847
v 0.206979513 0.802386582 -0.025209874
v -0.210351273 0.765024245 0.013973007
v -0.210468337 0.776929736 -0.007675515
v -0.208604246 0.789808631 -0.025711427
v 0.191329613 0.698742568 -0.054219596
v 0.207673356 0.786350131 -0.039887335
v -0.210006505 0.733989835 -0.005943758
v -0.194399863 0.859767437 -0.000458616
v 0.156738132 0.904042363 -0.102748796
v -0.031537823 0.950401306 0.085024133
v 0.202355936 0.805817425 -0.050460082
v 0.190018773 0.809662938 -0.071463771
v -0.080856152 0.848913789 -0.143457130
v -0.058188695 0.850301921 -0.142901272
v 0.194687948 0.717476904 -0.053498089
v -0.210602790 0.754748881 -0.012413993
v 0.200810283 0.689392626 -0.039838068
v 0.196684927 0.789037824 -0.060741030
v -0.014855730 0.945560455 -0.128082246
v -0.030487627 0.946731746 -0.130156577
v 0.165600374 0.889059901 -0.087817743
v 0.017386150 0.816777527 0.051884033
v -0.046017852 0.947643936 -0.131075263
v -0.047306053 0.807446122 0.056251071
v 0.186595723 0.789734185 -0.077686742
v 0.175913200 0.798987031 -0.092056438
v -0.061246134 0.948237300 -0.130833015
v 0.165217578 0.909358799 -0.084373921
v -0.209356427 0.736648917 -0.028579425
v -0.076262467 0.948899090 -0.129364192
v -0.082426399 0.932710767 -0.137942880
v -0.191519871 0.859625995 -0.040115550
v -0.090704866 0.949814022 -0.126820534
v -0.104703642 0.951149285 -0.123256549
v 0.156637877 0.787490368 -0.099987075
v -0.200905323 0.783392251 -0.053797405
v -0.182947099 0.862664104 -0.064583495
v -0.168334752 0.872854710 -0.083465047
v -0.208298281 0.750768244 -0.042810842
v 0.172290936 0.897708118 -0.067502782
v 0.161631495 0.939997196 -0.071301594
v -0.199401468 0.701285720 -0.044771764
v 0.050582845 0.806176543 0.057575591
v 0.135932326 0.789837182 -0.109167539
v -0.063864723 0.833997905 -0.133664042
v -0.188400164 0.790741682 -0.075406000
v 0.166689590 0.935719967 -0.055531196
v -0.077497236 0.824619770 -0.125189036
v -0.186290011 0.695466399 -0.060796034
v 0.118905924 0.795114458 -0.116269946
v -0.193147108 0.744676650 -0.062237062
v -0.175152063 0.740825236 -0.083722375
v 0.169530958 0.934381485 -0.038397357
v -0.185816005 0.756603003 -0.073008887
v -0.174303874 0.779017150 -0.091178492
v 0.174531505 0.897628129 -0.028916989
v -0.169150904 0.721336007 -0.082574785
v -0.019188391 0.731526017 -0.085627034
v 0.082223423 0.783037066 -0.107033871
v -0.117265761 0.952365220 -0.117075540
v -0.127975136 0.953154862 -0.108878002
v -0.156261802 0.787135720 -0.100647189
v -0.155226186 0.768813014 -0.098370790
v -0.155368716 0.750263035 -0.094971672
v -0.154316992 0.731852412 -0.092144057
v -0.128347039 0.860445201 -0.128439233
v 0.065375514 0.841803432 0.062615424
v 0.207196385 0.709780157 -0.034766588
v -0.145922825 0.954889297 -0.087106988
v -0.152515799 0.955734074 -0.074474439
v 0.209071130 0.727921903 -0.021659279
v -0.002891647 0.660951257 -0.060388595
v -0.157962993 0.956650853 -0.061282586
v 0.171591476 0.900968730 -0.007063737
v -0.161649823 0.957279563 -0.047441199
v -0.164460525 0.957839668 -0.033297926
v -0.166184351 0.958140671 -0.019814203
v 0.202749968 0.820144773 -0.037157651
v 0.166730255 0.939083576 -0.023331786
v -0.164099947 0.958007932 -0.005409421
v -0.160776377 0.957444847 0.008793496
v -0.156354934 0.956420422 0.022918927
v 0.050265998 0.823884666 -0.121500388
v -0.148265496 0.955254734 0.035086524
v 0.163449183 0.934625506 -0.007981030
v -0.138421223 0.954970181 0.045862645
v -0.136147037 0.721745849 -0.099006191
v 0.163718417 0.894292653 0.011378979
v 0.017323988 0.767182469 -0.094356172
v -0.001710769 0.755766511 -0.091184415
v -0.001448241 0.769962013 -0.094294362
v 0.138023168 0.936354816 -0.110493325
v -0.136973545 0.740166962 -0.102164760
v -0.001016005 0.784242034 -0.097721651
v -0.136518717 0.777727008 -0.108468868
v 0.015744124 0.783153892 -0.098099507
v -0.000706802 0.798077226 -0.102426007
v -0.127937764 0.954392314 0.056064628
v 0.160771102 0.809806645 -0.099106774
v 0.156458750 0.935483277 0.008326394
v -0.119940236 0.729122043 -0.108545259
v -0.116617776 0.953242660 0.063428298
v -0.103253961 0.952785611 0.068795577
v 0.143688828 0.923158348 0.022959350
v 0.046452221 0.882448554 -0.145999238
v -0.136726171 0.758825600 -0.105364397
v -0.114435837 0.789133728 -0.115892872
v 0.148894876 0.941142559 0.022509562
v -0.118804798 0.748000026 -0.112172171
v 0.157406613 0.887210846 0.028739551
v -0.099096991 0.738066792 -0.107488886
v -0.002216603 0.797772288 0.051397197
v -0.092487492 0.939489484 0.060933948
v 0.132425815 0.940771580 0.049146045
v 0.135157853 0.925721943 0.045883767
v 0.136859626 0.939509094 0.033987451
v -0.083445556 0.727995396 -0.100673869
v -0.096635468 0.756779075 -0.108628057
v -0.078035444 0.746484220 -0.102086127
v 0.047415484 0.723183811 0.053625949
v -0.095493659 0.775569499 -0.110240683
v 0.049157098 0.918955624 -0.142418951
v -0.074519008 0.764822483 -0.103273787
v 0.026173633 0.910197914 -0.140435249
v -0.037503600 0.874114394 -0.144883797
v -0.034648664 0.896233261 -0.144198641
v 0.208512262 0.723170221 0.015943497
v 0.193046331 0.731751084 0.048859656
v -0.050551046 0.755495667 -0.095925808
v -0.054550808 0.777206361 -0.101086780
v -0.138690487 0.954664350 -0.099364460
v 0.148225576 0.896495342 0.038744677
v 0.130077109 0.893613815 0.042478472
v -0.203581899 0.672108829 0.004348981
v 0.167237520 0.703910172 0.062616266
v 0.173883930 0.725306332 0.062269706
v -0.203185111 0.658742309 0.010557287
v 0.118537650 0.911549926 0.044683572
v -0.035580091 0.674368739 -0.069468632
v -0.032033198 0.660668552 -0.063963458
v 0.014423667 0.698122144 0.043819152
v -0.017735962 0.661246181 -0.061084904
v -0.005448063 0.945608258 0.093693666
v 0.064992458 0.911652267 -0.146484151
v -0.017089847 0.949965298 0.086963825
v -0.022678824 0.690859318 0.042953782
v 0.131818876 0.712757528 0.076809332
v 0.031375706 0.939181924 0.076131165
v 0.084596351 0.676259816 0.061731763
v 0.073106244 0.688535810 0.058162935
v 0.105137385 0.686664939 0.071040176
v 0.049403727 0.861133277 -0.143542454
v 0.126962751 0.692085505 0.077833369
v 0.055420272 0.690679431 0.051676311
v 0.201174930 0.686222732 0.023831919
v 0.111799799 0.887338042 0.050891988
v 0.100895211 0.902828991 0.053286113
v 0.158505663 0.915125847 0.003407215
v 0.108646654 0.705744147 0.073976502
v 0.169899151 0.918084502 -0.021393050
v 0.173628762 0.912716568 -0.046722233
v 0.048185997 0.937287927 0.072201975
v 0.090086251 0.715306103 0.067299940
v 0.111187831 0.727728009 0.076667033
v 0.169164464 0.920330405 -0.068416782
v 0.159594864 0.929419398 -0.084311381
v 0.089392193 0.696547627 0.065529391
v 0.156812638 0.919775844 -0.096500710
v 0.187492698 0.680462718 -0.055667363
v 0.171442747 0.686713994 -0.073411860
v 0.069059357 0.723223388 0.059804499
v 0.146067843 0.687114835 -0.085182384
v 0.132625431 0.921184421 -0.121817425
v 0.071494713 0.704721332 0.058985673
v 0.110683762 0.768022835 0.079139248
v 0.147184610 0.697072983 0.070167191
v 0.181882516 0.690884590 0.055921782
v 0.195837557 0.697889149 0.039037701
v 0.209079981 0.766855538 -0.035356320
v 0.157847196 0.765760064 -0.096053898
v 0.050758757 0.707477152 0.052616913
v 0.140559763 0.754672945 -0.102409303
v 0.206839919 0.694546580 -0.017862668
v 0.206248477 0.691721737 0.003525215
v 0.036761723 0.736378372 0.052268159
v 0.011668770 0.753393590 0.051766150
v 0.084992275 0.909307837 0.059898477
v 0.064861082 0.936276317 0.068172887
v 0.017349303 0.769482315 0.053014297
v 0.033345908 0.854007840 0.058656752
v 0.021515107 0.835458100 0.054391164
v 0.021451537 0.692984462 -0.074460119
v 0.054018967 0.920896888 0.065924406
v 0.038914613 0.725567818 -0.087176062
v 0.030563900 0.897627532 0.066616103
v 0.043502532 0.907252967 0.066744320
v 0.014133537 0.896835446 0.067283146
v 0.036078170 0.677276790 -0.071444228
v 0.057277448 0.729926586 -0.092470400
v 0.075760752 0.826286614 0.064792387
v 0.199682146 0.771685541 0.032561000
v 0.188985124 0.849804044 -0.061763030
v 0.058800172 0.675251365 -0.078184307
v 0.175921902 0.758032739 -0.085978411
v 0.123593472 0.826504827 -0.115219615
v 0.122150883 0.759937465 -0.112239614
v 0.082401827 0.672333539 -0.086837798
v 0.052355319 0.763830066 -0.097968690
v 0.038942188 0.811029315 -0.111185528
v 0.120887078 0.684326530 -0.096006826
v 0.104859032 0.669048250 -0.095187329
v 0.097040385 0.928584874 -0.136081100
v 0.070548348 0.919762731 0.063017383
v 0.065299779 0.899716496 0.062901534
v 0.129751444 0.667889237 -0.088925637
v 0.025369355 0.882972598 0.065349862
v 0.041141242 0.871097386 0.062946871
v 0.076410487 0.928599656 -0.139939651
v 0.153010398 0.668406665 -0.078811951
v 0.178445831 0.818796337 -0.089683607
v 0.024207067 0.854077935 -0.136652917
v 0.174688578 0.718736649 -0.078688636
v 0.174150273 0.667832375 -0.069417313
v 0.018513564 0.751463354 -0.091000929
v 0.186292797 0.664503694 -0.054092683
v 0.031768091 0.825933933 -0.120128438
v 0.197470456 0.669850707 -0.039137799
v 0.204812497 0.679604411 -0.025231320
v 0.063158564 0.791751266 0.062520027
v 0.105123140 0.908467174 -0.139915302
v 0.084861465 0.911616445 -0.145505607
v 0.019477699 0.811405957 -0.109682694
v 0.204304606 0.677126527 -0.007661268
v 0.126762956 0.724737287 -0.103942797
v 0.209667876 0.729501843 -0.002481702
v 0.199136719 0.717588425 0.034833960
v 0.161104620 0.724001706 -0.086599626
v 0.144882619 0.725018322 -0.094933383
v 0.191161141 0.676880300 0.041586004
v 0.145428389 0.882946134 0.044246897
v 0.179061919 0.883266568 0.005261508
v 0.204693407 0.731072843 -0.042973075
v 0.046848420 0.692832232 -0.079537794
v 0.161432892 0.680401981 0.062925570
v 0.086406611 0.812574387 0.069493175
v 0.210609585 0.742365003 0.009952212
v 0.202762336 0.737270713 0.029812669
v 0.091397591 0.736697018 -0.104640558
v 0.141223297 0.675275445 0.070554495
v 0.120713219 0.866226494 -0.135117084
v -0.001949011 0.811801791 0.050739866
v -0.003282605 0.741986930 0.049109574
v 0.055210400 0.736343265 0.056702893
v 0.119200230 0.673524559 0.075671181
v 0.144385308 0.871364951 -0.119557038
v -0.002727318 0.783768654 0.052796680
v -0.001679019 0.825829387 0.052266050
v 0.101662122 0.670225084 0.068228059
v 0.019314319 0.867317080 0.063098148
v -0.001216139 0.866858602 0.063931607
v 0.100042798 0.921780884 0.052763693
v 0.063927554 0.674504280 0.053141527
v 0.100488625 0.939043403 0.060215563
v 0.203475758 0.672884941 0.009595668
v 0.101497963 0.816325665 0.076866038
v 0.035074711 0.929105639 -0.137257472
v 0.042883676 0.675601184 0.044966765
v 0.067106038 0.895061135 -0.148625702
v 0.019869843 0.679223537 0.039159048
v 0.034997948 0.694286704 0.046439346
v 0.042867374 0.840348125 -0.133883595
v 0.014045386 0.852257609 0.058024459
v 0.016187303 0.733988166 0.048607279
v -0.003507390 0.728104293 0.047023669
v -0.002935180 0.769776583 0.052110236
v 0.202872127 0.666119933 -0.019762341
v -0.003075431 0.755786180 0.051569086
v 0.071656823 0.693545163 -0.088850856
v 0.088305458 0.801121354 -0.111813799
v 0.107521102 0.811252117 -0.114511766
v 0.154014349 0.813485324 0.065807134
v 0.095990852 0.782675147 0.073718473
v 0.160739273 0.792130888 0.067511164
v 0.096564144 0.687732995 -0.096590422
v 0.197474629 0.669385254 0.025939431
f 555 540 123
f 389 162 497
f 567 540 568
f 583 104 251
f 463 489 430
f 453 94 255
f 483 484 162
f 446 640 671
f 574 577 251
f 50 244 238
f 52 244 50
f 575 57 53
f 55 249 52
f 55 2 250
f 577 248 563
f 575 437 432
f 57 597 589
f 2 265 262
f 589 592 57
f 262 259 2
f 5 267 262
f 602 606 589
f 5 9 11
f 58 606 610
f 11 272 5
f 12 278 11
f 565 793 8
f 630 60 632
f 13 425 12
f 424 289 160
f 289 424 13
f 643 649 60
f 181 403 179
f 483 206 484
f 163 651 174
f 53 563 558
f 651 65 650
f 163 389 384
f 683 66 65
f 455 558 563
f 165 384 171
f 340 331 34
f 67 66 683
f 206 470 63
f 385 102 856
f 67 702 70
f 344 340 696
f 179 403 406
f 710 70 702
f 16 352 14
f 111 112 59
f 63 64 655
f 18 368 16
f 710 742 753
f 119 112 111
f 394 671 545
f 551 922 903
f 19 375 18
f 753 740 711
f 406 470 179
f 261 615 108
f 545 453 439
f 178 386 530
f 24 386 23
f 72 753 742
f 26 396 24
f 768 765 72
f 119 142 112
f 32 63 470
f 112 142 161
f 399 400 396
f 154 343 182
f 545 671 448
f 399 415 400
f 768 770 765
f 32 406 410
f 418 415 399
f 770 183 777
f 387 300 166
f 415 418 422
f 105 86 299
f 169 42 839
f 170 142 119
f 173 172 705
f 329 638 343
f 134 738 737
f 185 638 329
f 692 661 145
f 150 74 741
f 637 345 873
f 132 145 661
f 170 184 142
f 138 495 760
f 138 136 188
f 136 194 188
f 201 87 194
f 270 87 205
f 216 49 210
f 46 216 724
f 198 184 170
f 43 96 907
f 219 39 218
f 45 43 41
f 224 37 219
f 498 224 514
f 86 105 342
f 225 36 514
f 378 107 110
f 80 233 107
f 22 41 43
f 198 217 849
f 41 581 45
f 103 233 76
f 76 40 103
f 222 217 214
f 678 100 40
f 98 41 22
f 366 41 98
f 40 76 678
f 215 4 284
f 215 98 21
f 537 536 92
f 222 234 217
f 904 537 92
f 460 462 30
f 284 471 366
f 222 239 246
f 586 903 759
f 462 28 30
f 246 234 222
f 454 449 28
f 237 391 924
f 560 319 921
f 246 888 252
f 431 471 282
f 455 560 391
f 319 560 241
f 50 238 793
f 50 566 52
f 52 574 55
f 258 263 510
f 244 52 249
f 55 253 2
f 284 792 657
f 303 670 667
f 303 100 674
f 250 249 55
f 273 274 252
f 251 253 574
f 100 303 301
f 301 570 100
f 104 261 257
f 677 100 678
f 273 285 274
f 257 2 253
f 2 257 265
f 250 2 259
f 570 568 40
f 752 292 293
f 294 296 285
f 285 296 274
f 684 497 679
f 277 274 296
f 440 447 442
f 579 489 463
f 692 329 695
f 259 262 267
f 871 736 360
f 262 271 9
f 40 100 570
f 570 567 568
f 203 128 270
f 310 296 294
f 305 296 310
f 87 270 194
f 9 5 262
f 5 272 600
f 276 9 271
f 9 276 11
f 272 11 278
f 302 323 310
f 568 103 40
f 108 615 89
f 280 11 276
f 11 280 12
f 103 568 540
f 278 12 425
f 323 337 328
f 283 12 280
f 12 283 13
f 283 297 289
f 289 13 283
f 540 561 231
f 425 13 424
f 209 288 205
f 291 125 286
f 346 337 323
f 49 304 288
f 173 350 351
f 297 654 314
f 347 158 864
f 304 47 311
f 47 304 49
f 47 46 481
f 360 361 855
f 501 684 146
f 481 311 47
f 46 39 481
f 343 695 329
f 314 289 297
f 289 314 160
f 481 321 308
f 481 39 321
f 325 122 321
f 325 321 37
f 37 321 39
f 333 160 314
f 324 266 333
f 527 107 231
f 84 121 325
f 36 327 498
f 160 333 34
f 327 120 84
f 36 82 371
f 277 393 390
f 689 34 333
f 34 689 340
f 313 34 331
f 266 334 689
f 334 260 341
f 340 335 331
f 107 527 110
f 54 404 405
f 696 14 344
f 61 401 44
f 38 299 407
f 358 14 348
f 14 358 16
f 344 14 352
f 356 704 712
f 352 16 368
f 413 62 417
f 370 16 358
f 16 370 18
f 175 705 134
f 713 115 110
f 371 27 378
f 27 371 82
f 381 18 370
f 18 381 19
f 368 18 375
f 80 378 27
f 19 381 235
f 19 395 23
f 19 23 178
f 202 506 913
f 23 395 24
f 386 24 396
f 398 24 395
f 24 398 26
f 26 398 220
f 26 412 399
f 396 26 399
f 418 399 412
f 164 180 444
f 444 443 164
f 175 173 705
f 685 84 120
f 422 300 415
f 685 121 84
f 172 169 300
f 172 300 422
f 78 80 27
f 226 365 78
f 89 615 114
f 240 485 309
f 134 737 175
f 226 27 82
f 245 459 452
f 187 186 140
f 243 459 245
f 189 187 130
f 581 466 579
f 467 472 637
f 308 122 240
f 138 579 466
f 430 255 463
f 499 435 430
f 453 430 435
f 435 440 439
f 435 499 450
f 243 479 281
f 308 321 122
f 897 438 584
f 439 453 435
f 243 281 893
f 450 440 435
f 480 859 865
f 440 449 447
f 442 439 440
f 450 449 440
f 447 449 454
f 492 488 493
f 127 458 456
f 449 456 28
f 82 225 708
f 454 28 462
f 28 456 30
f 456 450 127
f 30 456 458
f 225 82 36
f 30 464 460
f 506 507 502
f 126 469 125
f 287 508 509
f 207 507 506
f 410 460 32
f 126 306 477
f 460 464 644
f 644 32 460
f 32 644 63
f 475 31 576
f 470 406 32
f 64 63 644
f 306 309 477
f 125 464 458
f 528 795 511
f 516 523 524
f 655 206 63
f 206 655 484
f 206 474 470
f 162 679 497
f 316 322 822
f 313 160 34
f 37 498 325
f 523 316 534
f 497 684 501
f 501 146 505
f 146 512 503
f 505 503 513
f 263 515 510
f 512 120 115
f 503 512 91
f 517 513 503
f 115 713 91
f 458 203 125
f 315 547 548
f 91 512 115
f 547 330 336
f 91 713 88
f 517 88 522
f 552 548 547
f 532 88 713
f 88 532 519
f 552 336 553
f 522 519 541
f 527 231 561
f 127 128 458
f 538 660 692
f 514 36 498
f 224 498 37
f 538 692 695
f 114 626 631
f 553 342 105
f 219 37 39
f 555 660 561
f 127 450 499
f 891 199 824
f 660 555 661
f 218 39 46
f 199 97 886
f 366 98 284
f 22 21 98
f 41 366 581
f 43 232 22
f 907 232 43
f 96 536 907
f 45 463 255
f 45 581 463
f 255 94 96
f 255 96 45
f 94 453 545
f 448 546 545
f 582 593 594
f 595 584 438
f 216 46 47
f 216 47 49
f 551 640 558
f 558 640 569
f 49 288 209
f 793 565 50
f 569 53 558
f 566 50 565
f 209 210 49
f 841 351 350
f 574 52 566
f 578 53 57
f 612 609 423
f 53 578 563
f 575 53 569
f 597 432 211
f 253 55 574
f 57 575 597
f 578 57 592
f 592 583 578
f 627 609 612
f 584 621 628
f 603 589 606
f 602 589 597
f 634 819 627
f 610 606 602
f 835 318 229
f 626 606 58
f 610 624 58
f 58 624 630
f 632 58 630
f 634 884 869
f 58 632 626
f 60 642 632
f 642 60 649
f 60 630 181
f 650 649 643
f 662 652 645
f 656 628 621
f 621 636 656
f 658 659 204
f 64 644 469
f 466 495 138
f 694 377 700
f 468 471 431
f 663 650 65
f 628 656 668
f 679 162 484
f 65 686 663
f 672 673 659
f 686 65 66
f 683 65 651
f 468 431 478
f 683 693 67
f 685 146 684
f 146 685 512
f 696 340 689
f 66 67 701
f 473 495 478
f 66 698 686
f 702 67 693
f 668 675 687
f 701 698 66
f 405 690 54
f 701 67 70
f 54 690 564
f 14 696 348
f 711 70 710
f 699 70 711
f 702 709 710
f 229 318 236
f 657 282 471
f 710 709 742
f 753 756 740
f 756 753 72
f 742 754 72
f 72 754 768
f 72 765 756
f 766 765 770
f 490 193 496
f 130 772 496
f 770 776 766
f 15 719 168
f 87 201 148
f 183 770 768
f 201 194 136
f 422 705 172
f 633 777 338
f 777 633 150
f 408 74 633
f 638 185 408
f 106 730 258
f 688 379 694
f 275 631 118
f 185 692 145
f 197 750 749
f 736 737 738
f 263 258 730
f 738 741 743
f 185 145 143
f 743 741 744
f 744 741 74
f 744 467 879
f 132 140 145
f 123 132 661
f 741 738 150
f 123 540 567
f 773 772 567
f 738 134 150
f 78 27 226
f 238 623 1
f 264 279 779
f 776 150 134
f 134 705 420
f 695 541 538
f 104 599 261
f 365 681 680
f 761 762 763
f 365 678 76
f 76 78 365
f 411 156 420
f 156 411 220
f 541 519 538
f 220 764 156
f 76 233 78
f 80 78 233
f 168 789 387
f 70 699 701
f 398 395 228
f 434 437 445
f 779 780 887
f 428 432 434
f 926 317 706
f 197 749 745
f 213 6 4
f 279 785 780
f 419 427 428
f 148 201 745
f 454 462 419
f 526 782 783
f 381 734 235
f 410 414 419
f 493 769 913
f 511 4 215
f 4 511 213
f 406 414 410
f 208 731 729
f 21 511 215
f 210 728 727
f 794 800 823
f 511 21 529
f 470 474 179
f 724 218 46
f 227 110 115
f 118 280 275
f 219 218 722
f 806 800 794
f 803 804 256
f 716 778 225
f 224 219 720
f 407 86 690
f 356 734 381
f 389 497 380
f 809 795 528
f 810 806 811
f 717 716 514
f 497 501 380
f 317 697 429
f 810 818 821
f 913 771 202
f 341 698 699
f 373 376 159
f 369 177 373
f 341 260 698
f 260 334 266
f 365 226 681
f 517 522 354
f 828 821 818
f 354 362 364
f 569 640 446
f 519 522 88
f 767 828 818
f 266 324 676
f 602 597 211
f 804 834 256
f 121 240 122
f 345 868 918
f 610 602 211
f 169 839 166
f 427 195 211
f 643 179 174
f 683 651 165
f 693 683 171
f 627 884 634
f 324 654 676
f 846 397 841
f 841 397 374
f 362 709 369
f 580 397 846
f 192 188 190
f 192 499 489
f 128 192 190
f 270 205 203
f 205 288 286
f 291 306 126
f 208 148 733
f 288 304 291
f 304 311 306
f 311 481 308
f 286 125 203
f 283 118 297
f 589 599 592
f 283 280 118
f 227 115 120
f 747 805 732
f 707 226 82
f 107 378 80
f 275 114 631
f 118 646 297
f 89 114 275
f 231 233 103
f 87 209 205
f 816 872 870
f 271 108 89
f 248 560 455
f 248 241 560
f 108 271 265
f 566 565 241
f 86 876 690
f 622 244 619
f 517 91 88
f 574 566 248
f 715 662 889
f 244 249 618
f 249 250 614
f 882 465 718
f 253 251 257
f 774 465 882
f 250 259 608
f 883 494 774
f 921 391 560
f 259 267 604
f 54 564 847
f 251 577 583
f 600 267 5
f 89 276 271
f 503 91 517
f 690 405 407
f 275 276 89
f 892 573 582
f 272 278 596
f 248 577 574
f 280 276 275
f 425 588 591
f 425 424 781
f 781 313 572
f 424 313 781
f 572 585 781
f 314 654 324
f 136 197 201
f 313 557 572
f 237 551 558
f 554 331 335
f 334 341 348
f 760 136 138
f 335 344 549
f 341 699 704
f 348 696 334
f 921 319 7
f 358 348 704
f 344 352 544
f 912 582 594
f 903 586 551
f 352 368 543
f 381 370 356
f 368 375 539
f 788 8 3
f 535 375 178
f 221 795 809
f 828 767 562
f 559 833 920
f 921 920 899
f 546 448 898
f 903 922 836
f 38 903 299
f 235 228 395
f 405 669 407
f 546 92 94
f 400 518 520
f 92 546 904
f 639 35 926
f 386 396 525
f 927 926 33
f 928 605 930
f 200 490 298
f 94 545 546
f 96 92 536
f 927 56 852
f 143 472 408
f 220 412 26
f 400 520 521
f 412 220 411
f 109 113 152
f 920 832 559
f 418 412 411
f 152 113 746
f 387 789 786
f 420 418 411
f 746 161 867
f 418 420 422
f 490 773 298
f 496 772 773
f 394 442 445
f 562 767 832
f 739 636 820
f 204 725 658
f 773 490 496
f 725 223 635
f 447 454 428
f 472 186 637
f 215 284 98
f 189 130 496
f 458 464 30
f 410 462 460
f 125 469 464
f 635 247 487
f 487 269 629
f 641 487 629
f 268 269 487
f 269 393 629
f 390 269 268
f 469 126 64
f 349 761 763
f 655 64 477
f 303 674 670
f 290 393 277
f 611 290 928
f 163 474 483
f 928 307 605
f 635 641 648
f 531 605 533
f 677 674 100
f 477 309 485
f 506 202 207
f 679 485 240
f 240 121 684
f 312 912 594
f 684 679 240
f 121 685 684
f 186 187 345
f 503 505 146
f 912 332 892
f 772 130 132
f 685 120 512
f 501 505 159
f 725 648 658
f 505 513 373
f 513 517 364
f 892 847 564
f 110 527 713
f 714 847 339
f 522 541 154
f 51 714 346
f 231 103 540
f 714 51 404
f 541 695 343
f 567 772 123
f 502 500 506
f 578 577 563
f 867 659 673
f 577 578 583
f 597 575 432
f 592 104 583
f 913 492 493
f 845 167 839
f 599 104 592
f 386 178 23
f 599 603 615
f 110 227 378
f 615 261 599
f 706 402 639
f 603 626 114
f 132 123 772
f 624 610 195
f 409 706 317
f 746 673 682
f 114 615 603
f 120 327 227
f 624 414 403
f 691 429 697
f 642 631 632
f 642 118 631
f 429 433 853
f 646 118 642
f 642 649 646
f 152 682 691
f 682 433 691
f 181 643 60
f 654 297 646
f 122 325 121
f 140 130 187
f 421 416 617
f 123 661 555
f 309 308 240
f 698 260 686
f 702 693 177
f 698 701 699
f 672 441 436
f 291 126 125
f 109 691 697
f 143 140 186
f 874 872 816
f 665 441 672
f 188 192 489
f 665 658 653
f 712 704 699
f 653 451 665
f 927 697 317
f 712 740 734
f 648 461 653
f 178 375 19
f 923 880 116
f 641 461 648
f 740 756 748
f 748 758 228
f 926 706 639
f 479 641 482
f 754 742 362
f 354 754 362
f 407 669 38
f 203 458 128
f 482 629 620
f 756 765 758
f 182 754 154
f 128 127 192
f 254 246 252
f 611 382 620
f 764 398 228
f 499 192 127
f 764 766 156
f 766 776 156
f 930 611 928
f 420 156 776
f 140 132 130
f 788 7 8
f 387 166 168
f 420 776 134
f 136 760 197
f 300 387 415
f 750 197 760
f 745 201 197
f 148 208 209
f 733 148 745
f 258 35 106
f 593 533 605
f 731 208 733
f 236 318 910
f 729 210 208
f 728 210 729
f 727 216 210
f 188 489 579
f 929 573 556
f 724 216 727
f 573 929 582
f 723 218 724
f 722 218 723
f 720 219 722
f 717 224 720
f 514 224 717
f 188 579 138
f 876 556 573
f 707 681 226
f 898 904 546
f 472 143 186
f 212 795 221
f 899 391 921
f 854 925 931
f 213 795 212
f 140 143 145
f 404 54 714
f 833 922 924
f 415 387 786
f 143 408 185
f 238 3 793
f 1 3 238
f 31 799 752
f 622 238 244
f 918 799 515
f 380 376 171
f 915 752 357
f 617 476 421
f 619 244 618
f 618 249 616
f 616 249 614
f 636 739 613
f 388 613 10
f 614 250 608
f 357 791 915
f 383 688 388
f 608 259 607
f 571 438 576
f 295 667 666
f 92 96 94
f 607 259 604
f 372 726 700
f 667 295 303
f 367 726 372
f 604 267 601
f 298 295 207
f 923 875 880
f 363 732 367
f 408 467 74
f 148 209 87
f 298 301 295
f 359 747 363
f 601 267 600
f 359 355 755
f 600 272 598
f 598 272 596
f 353 755 355
f 301 298 773
f 596 278 591
f 747 755 751
f 591 278 425
f 588 425 781
f 388 688 813
f 769 771 913
f 763 353 349
f 202 771 200
f 506 500 913
f 74 467 744
f 773 570 301
f 82 708 707
f 320 647 326
f 500 492 913
f 331 554 557
f 242 910 320
f 344 335 340
f 910 908 647
f 554 335 550
f 239 222 703
f 549 550 335
f 549 344 544
f 166 167 168
f 544 352 543
f 543 368 542
f 17 15 167
f 17 845 157
f 907 536 919
f 157 850 155
f 155 850 153
f 542 368 539
f 150 633 74
f 153 854 151
f 151 854 149
f 149 858 147
f 147 862 144
f 539 375 535
f 759 903 38
f 530 535 178
f 144 862 141
f 141 866 139
f 139 866 137
f 530 386 525
f 137 870 135
f 525 396 521
f 135 870 872
f 133 872 131
f 131 874 129
f 129 923 117
f 923 874 875
f 170 119 902
f 521 396 400
f 20 932 101
f 99 101 932
f 99 886 97
f 95 97 199
f 95 891 93
f 93 896 90
f 518 400 786
f 90 896 85
f 85 901 83
f 83 905 81
f 169 166 300
f 81 905 79
f 77 79 796
f 77 909 75
f 439 394 545
f 75 914 73
f 73 914 71
f 71 916 69
f 442 394 439
f 468 466 366
f 442 447 434
f 7 562 920
f 794 534 811
f 924 899 833
f 434 447 428
f 428 454 419
f 419 462 410
f 38 898 759
f 902 111 897
f 466 468 495
f 526 524 534
f 25 59 56
f 96 43 45
f 895 401 61
f 182 343 338
f 483 389 163
f 483 162 389
f 897 59 25
f 883 894 775
f 776 777 150
f 59 897 111
f 380 384 389
f 774 882 893
f 111 902 119
f 778 708 225
f 501 159 380
f 167 166 839
f 159 505 373
f 176 191 867
f 373 513 369
f 364 369 513
f 850 890 925
f 354 364 517
f 354 522 154
f 177 369 709
f 154 541 343
f 446 445 437
f 376 380 159
f 204 223 725
f 217 198 214
f 214 703 222
f 437 569 446
f 610 211 195
f 414 624 195
f 403 630 624
f 889 718 715
f 160 313 424
f 181 630 403
f 888 246 239
f 179 643 181
f 174 650 643
f 651 650 174
f 163 384 165
f 487 247 268
f 165 651 163
f 171 683 165
f 174 474 163
f 557 313 331
f 475 515 799
f 376 693 171
f 285 273 757
f 177 693 376
f 627 885 884
f 174 179 474
f 509 508 516
f 294 302 310
f 709 702 177
f 709 362 742
f 154 754 354
f 182 338 183
f 780 785 803
f 183 768 182
f 423 413 881
f 183 338 777
f 638 338 343
f 633 638 408
f 590 401 895
f 692 185 329
f 190 188 194
f 515 475 25
f 270 190 194
f 190 270 128
f 195 427 414
f 7 788 562
f 915 878 571
f 877 595 438
f 203 205 286
f 44 48 61
f 474 206 483
f 210 209 208
f 61 62 895
f 413 895 62
f 211 432 427
f 172 42 169
f 398 764 220
f 515 263 918
f 437 575 569
f 228 758 764
f 124 885 426
f 175 871 350
f 84 498 327
f 225 514 716
f 327 371 227
f 918 263 730
f 898 448 759
f 371 327 36
f 839 374 890
f 227 371 378
f 451 441 665
f 228 235 748
f 444 180 457
f 233 231 107
f 187 868 345
f 759 448 586
f 189 292 868
f 734 748 235
f 653 461 826
f 924 922 237
f 292 193 196
f 446 671 394
f 461 641 479
f 922 551 237
f 391 237 455
f 482 641 629
f 918 868 799
f 196 200 293
f 771 293 200
f 558 455 237
f 281 287 894
f 894 893 281
f 248 566 241
f 257 251 104
f 255 430 453
f 257 261 265
f 509 775 287
f 260 266 676
f 509 516 524
f 265 261 108
f 523 516 531
f 322 316 523
f 273 252 888
f 265 271 262
f 811 534 316
f 316 315 811
f 676 686 260
f 366 466 581
f 478 495 468
f 330 547 315
f 547 336 552
f 366 471 468
f 760 495 473
f 657 471 284
f 336 342 553
f 553 900 552
f 832 900 553
f 865 878 791
f 792 284 4
f 31 571 576
f 286 288 291
f 438 571 877
f 906 864 863
f 4 790 792
f 8 7 319
f 303 295 301
f 291 304 306
f 570 773 567
f 739 617 392
f 617 416 392
f 306 311 309
f 309 311 308
f 170 628 668
f 613 739 10
f 739 392 10
f 656 675 668
f 656 815 675
f 680 678 365
f 813 613 388
f 324 333 314
f 687 198 668
f 379 688 383
f 295 666 207
f 815 656 636
f 377 694 379
f 325 498 84
f 689 333 266
f 334 696 689
f 700 377 372
f 861 834 860
f 703 721 239
f 732 726 367
f 834 861 256
f 348 341 704
f 747 732 363
f 356 358 704
f 735 888 721
f 370 358 356
f 735 264 757
f 735 273 888
f 755 747 359
f 369 364 362
f 353 763 755
f 647 761 326
f 761 349 326
f 376 373 177
f 779 757 264
f 780 779 279
f 384 380 171
f 235 395 19
f 736 871 737
f 562 788 917
f 910 647 320
f 785 804 803
f 414 406 403
f 256 323 803
f 813 675 815
f 415 786 400
f 427 419 414
f 422 420 705
f 432 428 427
f 430 489 499
f 587 580 590
f 437 434 432
f 445 442 434
f 446 394 445
f 671 586 448
f 819 609 627
f 456 449 450
f 455 563 248
f 865 791 769
f 581 579 463
f 645 652 817
f 644 464 469
f 652 662 715
f 874 923 129
f 715 664 652
f 694 812 688
f 477 64 126
f 750 760 473
f 485 655 477
f 465 715 718
f 507 207 666
f 465 774 494
f 865 486 480
f 812 675 813
f 485 484 655
f 207 202 298
f 883 504 825
f 493 865 769
f 783 782 504
f 679 484 485
f 202 200 298
f 196 490 200
f 196 193 490
f 877 859 476
f 302 803 323
f 189 496 193
f 814 806 810
f 168 719 789
f 821 814 810
f 391 899 924
f 713 527 532
f 467 408 472
f 302 294 887
f 786 787 518
f 538 519 532
f 561 532 527
f 926 35 33
f 538 532 660
f 540 555 561
f 551 586 640
f 319 241 565
f 660 532 561
f 113 161 746
f 161 176 867
f 8 319 565
f 223 247 635
f 781 585 784
f 620 629 393
f 887 780 302
f 269 390 393
f 671 640 586
f 781 784 588
f 599 589 603
f 393 290 611
f 626 603 606
f 928 290 305
f 623 238 622
f 625 1 623
f 774 893 894
f 312 332 912
f 626 632 631
f 332 339 847
f 847 892 332
f 757 887 285
f 847 714 54
f 793 3 8
f 732 807 726
f 858 931 857
f 675 812 687
f 168 167 15
f 273 735 757
f 920 921 7
f 402 385 639
f 167 845 17
f 638 633 338
f 646 649 663
f 650 663 649
f 845 850 157
f 888 239 721
f 663 654 646
f 706 409 48
f 850 854 153
f 676 654 663
f 429 409 317
f 661 692 660
f 854 858 149
f 676 663 686
f 858 862 147
f 433 429 691
f 678 680 677
f 699 711 712
f 712 734 356
f 711 710 753
f 862 866 141
f 712 711 740
f 682 436 827
f 734 740 748
f 866 870 137
f 214 687 808
f 748 756 758
f 664 816 652
f 872 133 135
f 198 687 214
f 754 182 768
f 872 874 131
f 665 659 658
f 758 765 766
f 658 648 653
f 766 764 758
f 776 770 777
f 668 198 170
f 117 923 116
f 787 786 789
f 929 330 822
f 533 822 322
f 556 336 330
f 531 322 523
f 899 920 833
f 662 444 889
f 346 323 256
f 491 482 620
f 116 880 911
f 911 20 116
f 382 491 620
f 911 932 20
f 932 886 99
f 645 443 662
f 930 382 611
f 382 930 516
f 886 824 199
f 605 531 930
f 491 508 848
f 628 170 902
f 256 347 346
f 482 848 479
f 891 896 93
f 347 256 861
f 820 617 739
f 866 819 817
f 605 594 593
f 896 901 85
f 929 593 582
f 612 881 885
f 901 905 83
f 826 451 653
f 451 457 180
f 672 659 665
f 441 180 851
f 79 905 796
f 436 673 672
f 436 851 827
f 909 914 75
f 682 673 436
f 914 916 71
f 584 902 897
f 876 86 342
f 69 916 1
f 829 433 827
f 700 808 694
f 788 3 916
f 853 829 417
f 409 61 48
f 402 48 855
f 870 817 816
f 855 29 360
f 874 816 664
f 385 361 102
f 830 880 875
f 576 897 25
f 819 634 817
f 68 69 1
f 106 856 730
f 743 736 738
f 910 242 236
f 862 857 819
f 744 879 102
f 880 830 831
f 840 528 843
f 401 846 44
f 803 302 780
f 769 791 357
f 878 915 791
f 831 911 880
f 918 873 345
f 576 25 475
f 799 31 475
f 841 29 846
f 879 856 102
f 106 639 385
f 573 564 876
f 911 831 802
f 342 556 876
f 337 339 332
f 25 510 515
f 350 29 841
f 564 573 892
f 892 582 912
f 510 25 56
f 864 906 837
f 312 328 337
f 929 822 593
f 33 35 258
f 871 360 29
f 840 860 835
f 864 158 863
f 29 855 44
f 916 914 917
f 808 687 812
f 594 307 312
f 307 305 328
f 916 917 788
f 33 56 927
f 840 835 809
f 307 594 605
f 736 743 361
f 531 516 930
f 290 277 305
f 852 109 927
f 318 835 860
f 21 844 529
f 852 59 112
f 620 393 611
f 102 743 744
f 112 113 852
f 751 763 762
f 647 785 762
f 805 747 751
f 252 268 254
f 230 835 229
f 487 641 635
f 637 879 467
f 124 851 164
f 809 230 221
f 161 142 176
f 807 732 805
f 247 234 254
f 230 809 835
f 808 700 807
f 345 637 186
f 176 184 191
f 812 694 808
f 204 849 223
f 849 204 191
f 813 688 812
f 635 648 725
f 849 184 198
f 815 613 813
f 815 636 613
f 217 223 849
f 659 191 204
f 217 234 223
f 191 184 849
f 859 480 421
f 795 213 511
f 245 461 243
f 878 865 859
f 802 886 932
f 191 659 867
f 452 718 889
f 223 234 247
f 176 142 184
f 246 254 234
f 865 493 486
f 293 771 357
f 268 247 254
f 771 769 357
f 805 264 735
f 268 252 390
f 161 113 112
f 486 493 488
f 390 252 274
f 867 673 746
f 264 751 279
f 274 277 390
f 746 682 152
f 281 848 287
f 827 433 682
f 808 703 214
f 152 691 109
f 109 852 113
f 476 859 421
f 296 305 277
f 476 595 877
f 305 307 928
f 196 293 292
f 595 476 820
f 726 807 700
f 752 293 357
f 307 328 312
f 310 328 305
f 56 59 852
f 292 752 799
f 328 310 323
f 886 825 824
f 312 337 332
f 807 703 808
f 891 824 782
f 193 292 189
f 844 21 22
f 429 853 409
f 109 697 927
f 56 33 510
f 105 559 553
f 339 337 346
f 346 714 339
f 51 346 347
f 317 926 927
f 564 690 876
f 863 844 232
f 799 868 292
f 510 33 258
f 843 528 529
f 844 863 842
f 861 840 843
f 861 158 347
f 861 860 840
f 752 915 31
f 158 843 842
f 843 158 861
f 842 529 844
f 919 837 906
f 906 232 907
f 809 528 840
f 730 873 918
f 730 856 873
f 873 856 879
f 856 106 385
f 817 634 645
f 837 919 838
f 817 652 816
f 919 906 907
f 919 536 537
f 743 102 361
f 904 669 838
f 898 669 904
f 669 898 38
f 703 807 721
f 405 404 838
f 669 405 838
f 922 833 836
f 294 285 887
f 361 385 402
f 869 645 634
f 830 875 664
f 916 3 1
f 864 51 347
f 402 855 361
f 909 801 914
f 397 890 374
f 48 44 855
f 796 909 77
f 879 637 873
f 901 798 905
f 580 925 397
f 48 402 706
f 896 800 901
f 891 823 896
f 409 62 61
f 853 62 409
f 881 413 417
f 417 62 853
f 86 407 299
f 459 893 882
f 199 891 95
f 830 465 831
f 829 426 417
f 426 829 124
f 426 881 417
f 124 829 827
f 433 829 853
f 886 802 825
f 774 894 883
f 851 124 827
f 164 884 124
f 441 851 436
f 180 164 851
f 443 869 164
f 911 802 932
f 715 830 664
f 874 664 875
f 736 361 360
f 451 180 441
f 457 452 889
f 889 444 457
f 866 817 870
f 106 35 639
f 459 718 452
f 826 452 457
f 452 826 245
f 451 826 457
f 862 819 866
f 858 857 862
f 461 245 826
f 459 882 718
f 479 243 461
f 854 931 858
f 850 925 854
f 846 401 580
f 845 890 850
f 491 848 482
f 848 281 479
f 825 494 883
f 382 508 491
f 900 832 767
f 508 287 848
f 896 823 800
f 839 890 845
f 504 782 824
f 42 374 839
f 516 508 382
f 908 910 318
f 534 524 523
f 552 818 548
f 42 172 173
f 901 800 798
f 818 552 900
f 533 322 531
f 871 175 737
f 868 187 189
f 22 232 844
f 593 822 533
f 822 315 316
f 929 556 330
f 330 315 822
f 838 919 537
f 904 838 537
f 318 860 834
f 908 318 834
f 465 830 715
f 556 342 336
f 105 836 559
f 833 559 836
f 29 44 846
f 908 834 804
f 562 917 828
f 299 836 105
f 818 900 767
f 832 553 559
f 562 832 920
f 811 315 548
f 828 801 821
f 801 828 917
f 821 797 814
f 836 299 903
f 401 590 580
f 797 821 801
f 905 798 796
f 796 814 797
f 810 548 818
f 814 798 806
f 798 814 796
f 909 796 797
f 811 548 810
f 413 587 590
f 404 51 837
f 51 864 837
f 837 838 404
f 909 797 801
f 529 842 843
f 158 842 863
f 232 906 863
f 800 806 798
f 529 528 511
f 794 811 806
f 785 908 804
f 785 647 908
f 859 877 878
f 526 534 794
f 877 571 878
f 571 31 915
f 173 351 42
f 524 783 509
f 350 173 175
f 29 350 871
f 823 526 794
f 783 524 526
f 526 823 782
f 42 351 374
f 841 374 351
f 504 775 783
f 509 783 775
f 782 823 891
f 885 124 884
f 887 757 779
f 914 801 917
f 426 885 881
f 890 397 925
f 825 504 824
f 775 504 883
f 925 587 931
f 587 925 580
f 802 494 825
f 785 279 762
f 494 831 465
f 831 494 802
f 894 287 775
f 590 895 413
f 438 897 576
f 884 164 869
f 762 279 751
f 423 931 587
f 587 413 423
f 931 423 857
f 762 761 647
f 617 820 476
f 595 820 621
f 751 755 763
f 893 459 243
f 751 264 805
f 609 857 423
f 423 881 612
f 662 443 444
f 721 805 735
f 621 584 595
f 857 609 819
f 443 645 869
f 612 885 627
f 636 621 820
f 628 902 584
f 805 721 807
