# avbd fit, rung k30-i32-s300-g0.20 of Gate 6d (body space)
v -0.017358121 0.594258606 0.000617951
v -0.120750189 0.585917592 0.089785710
v -0.016472023 0.606606007 0.015729476
v -0.001302834 0.931391835 0.084385946
v -0.164886743 0.564716220 0.068194225
v -0.002052276 0.951804519 0.080664128
v -0.019206192 0.630822182 0.020100098
v -0.016815109 0.622070849 0.004090702
v -0.167478308 0.587200880 0.065434054
v 0.146702558 0.944340825 -0.113996767
v -0.186990172 0.579199314 0.048920564
v -0.193931043 0.584232926 0.022134807
v -0.205292344 0.587115824 0.001592183
v -0.156909063 0.582805872 -0.066109680
v 0.011845679 0.579309762 -0.004894775
v -0.145605996 0.574872971 -0.085939802
v 0.032576147 0.574384570 -0.012409454
v -0.124479376 0.579640329 -0.095752731
v -0.104034103 0.589705050 -0.093393616
v 0.197809160 0.530313551 -0.005635410
v -0.001286264 0.891891301 0.076951981
v -0.001606594 0.871575654 0.076050825
v -0.119941577 0.587445140 -0.075046830
v -0.099435091 0.597201109 -0.073939912
v 0.101571739 0.824179351 -0.129034802
v -0.086632811 0.607029200 -0.091100112
v -0.140214041 0.897347748 -0.144612819
v -0.153540105 0.793826282 0.075656228
v 0.032332517 0.679707646 -0.078174926
v -0.172137171 0.806901455 0.077167720
v 0.072333872 0.854659259 -0.155870348
v -0.202255920 0.777671456 0.045784064
v 0.090103738 0.776424706 -0.126780584
v -0.193142563 0.580865026 -0.037091352
v 0.076169118 0.767022073 -0.111655995
v -0.165629208 0.905276120 -0.110822871
v -0.191052094 0.904158235 -0.064376511
v 0.011581662 0.746571898 0.023028320
v -0.177345663 0.899306774 -0.043406714
v -0.088162579 0.900014520 -0.157200247
v -0.036454413 0.879014313 0.071268722
v 0.010098768 0.640630901 -0.034849375
v -0.024944026 0.853602111 0.069960721
v 0.058105804 0.682809651 -0.092583917
v -0.051184546 0.858588517 0.063786872
v -0.189495206 0.910085380 -0.023915255
v -0.193499833 0.896114945 -0.002500946
v 0.070772842 0.706817150 -0.100334212
v -0.179876879 0.899012864 0.020160001
v -0.056684285 0.595510006 0.031489972
v 0.061678343 0.820065320 0.069737598
v -0.068363033 0.588676453 0.057931703
v -0.084353104 0.691491604 0.068436891
v 0.056037784 0.772452414 0.067272820
v -0.096582472 0.586870134 0.064019844
v 0.106582507 0.794715822 -0.119967803
v -0.107419111 0.686590195 0.088286743
v -0.186861247 0.690677226 0.066275351
v 0.126487270 0.807412267 -0.132683665
v -0.205630392 0.689748645 0.029779101
v 0.084449604 0.686378658 -0.099417552
v 0.101805590 0.677722573 -0.116484687
v -0.215560824 0.790843606 0.025656169
v -0.210627005 0.815337002 0.024184294
v -0.217848808 0.688790083 -0.043968849
v -0.195548251 0.683435380 -0.064559639
v -0.180879205 0.697993994 -0.082245924
v -0.012928924 0.610617757 -0.009166594
v 0.013113451 0.604980409 -0.008685125
v -0.164551497 0.681503475 -0.101848364
v 0.032053106 0.591294408 -0.006244191
v -0.120012559 0.698391438 -0.126251310
v 0.043563306 0.571613133 0.001556903
v -0.025365466 0.750981212 -0.091068864
v 0.054981690 0.555395544 0.013403153
v -0.110580288 0.903561294 -0.154994562
v 0.066329546 0.544825435 0.030219942
v -0.119829975 0.901778102 -0.135157898
v 0.078324847 0.538150907 0.046601038
v -0.130357623 0.883166492 -0.132466644
v 0.095722310 0.534521818 0.057361763
v -0.152270198 0.916003227 -0.134428978
v 0.113196813 0.531369686 0.067069367
v -0.188251972 0.867017269 -0.089939222
v 0.132260114 0.529625356 0.070572034
v 0.038313113 0.724999428 0.050483145
v -0.158198595 0.895820737 0.059764903
v -0.131959170 0.800250888 -0.129864156
v -0.171019197 0.622789979 0.067763217
v 0.149145573 0.529540062 0.063306466
v -0.144401520 0.811886191 -0.109066166
v -0.025642592 0.808168769 0.044342011
v 0.168523759 0.530285597 0.062207751
v -0.045770582 0.809237599 0.060441189
v 0.156515107 0.537784696 0.049917545
v -0.032802604 0.833121598 0.054468889
v 0.175833106 0.531755090 0.045840967
v -0.023706174 0.899380684 0.078649402
v 0.187093824 0.527512908 0.031053621
v -0.073512383 0.917239308 -0.165395409
v 0.191710085 0.528955579 0.012549272
v 0.021727901 0.754808426 -0.083890028
v -0.100810722 0.879448116 -0.156657055
v -0.117855966 0.639690399 0.092733636
v 0.033810135 0.701724708 0.038227972
v 0.054775465 0.769146323 -0.109340236
v -0.121536352 0.863043189 -0.134656712
v -0.148411080 0.621834040 0.067916177
v 0.133619383 0.760284245 -0.110719107
v -0.138009757 0.846351266 -0.133415654
v 0.140043586 0.822615981 -0.119518265
v 0.154892504 0.800173938 -0.120023534
v 0.154196724 0.773096502 -0.115779065
v -0.175144553 0.644710660 0.059998780
v -0.148922473 0.838059306 -0.112738408
v 0.205133721 0.532362282 -0.023846241
v 0.193928108 0.543775916 -0.015781021
v -0.208199382 0.634235620 0.027509358
v 0.157422781 0.822461307 -0.105975196
v -0.171400309 0.851177216 -0.103855804
v -0.191637620 0.847921193 -0.068378024
v -0.204394192 0.864565551 -0.055165857
v -0.065490030 0.846209526 -0.149387211
v 0.163855031 0.664681494 -0.100008629
v -0.186774671 0.842402935 0.050582904
v -0.202306315 0.837792218 0.024701858
v -0.135668859 0.831590295 0.084195748
v -0.145924494 0.846592128 0.065360077
v 0.192501336 0.536053121 -0.035067823
v -0.029484740 0.837970555 -0.132502258
v 0.183752865 0.533489645 -0.052373290
v -0.047557026 0.827164948 -0.142632887
v 0.168988332 0.538849473 -0.068095937
v -0.029571751 0.689657569 -0.079161063
v 0.188011363 0.538137674 -0.069217250
v -0.112391815 0.894327462 0.052719008
v 0.174949005 0.536836505 -0.083967879
v -0.099287972 0.899834275 0.076677963
v 0.155472368 0.535278201 -0.086510614
v -0.027714064 0.815893352 -0.123318791
v 0.137120098 0.534545064 -0.093435116
v 0.172818318 0.808191001 -0.096620813
v -0.033526994 0.803222835 -0.102831863
v 0.121983185 0.541023254 -0.083733037
v -0.053141069 0.812752545 -0.122918211
v -0.192524135 0.810264289 -0.100336969
v 0.109362707 0.549322248 -0.070265926
v -0.161316246 0.915374637 0.043075580
v 0.104633428 0.552122474 -0.087237492
v -0.033985719 0.719501138 -0.091557108
v 0.088992052 0.551813543 -0.072106838
v 0.153291732 0.749605536 -0.111158408
v 0.070921466 0.553381145 -0.059709840
v -0.119967893 0.753078938 -0.116713323
v 0.057715833 0.559434295 -0.043349657
v -0.073553398 0.660712421 -0.098391667
v 0.047151387 0.567112446 -0.026349854
v 0.059935994 0.863767326 0.061526280
v -0.188101232 0.769574523 -0.090023443
v -0.213532418 0.585897326 -0.018820208
v 0.174229831 0.783143103 -0.105629839
v -0.219951317 0.788223863 -0.039322454
v -0.221975356 0.743942678 -0.029630849
v 0.156728789 0.655206561 -0.075276449
v -0.213697359 0.729298651 -0.050975990
v -0.016038481 0.609832227 -0.027081678
v 0.013762427 0.592650950 -0.024773568
v -0.016357569 0.592623234 -0.017829139
v -0.015664715 0.628822923 -0.031330213
v 0.183697015 0.831388295 -0.112591803
v -0.198876381 0.736503541 -0.068803415
v -0.014412736 0.646764994 -0.038202148
v -0.014373680 0.664701104 -0.045125186
v -0.218563035 0.724876940 -0.007118272
v -0.013913525 0.682929695 -0.051633932
v 0.184598729 0.791036308 -0.086294487
v -0.174040839 0.733306348 -0.107294872
v -0.126561612 0.565298438 -0.079870328
v -0.219708249 0.735515237 0.024281692
v 0.181075603 0.671782136 -0.083069235
v -0.208419368 0.713274181 0.033019546
v -0.100460984 0.735805273 -0.121811844
v -0.090032585 0.723886073 -0.103491947
v 0.199887827 0.809189200 -0.096184596
v -0.056034345 0.791497588 -0.109184578
v -0.007332911 0.813121319 -0.101510130
v -0.006737812 0.828489423 -0.114580810
v -0.114566043 0.877887249 0.077821128
v -0.006599630 0.833476186 -0.133847117
v -0.128888011 0.862532020 0.061519910
v 0.203769848 0.778307796 -0.088742197
v -0.121519431 0.852293134 0.082610704
v -0.006175903 0.853753686 -0.133856595
v -0.134239271 0.883287311 0.050639920
v -0.168741688 0.723740220 0.073105261
v -0.006112960 0.873979449 -0.136337265
v -0.124511324 0.914004445 0.040771291
v 0.190122873 0.832750320 -0.077081099
v 0.173230618 0.555360913 0.038785741
v -0.006113621 0.894011140 -0.138203070
v -0.137898535 0.907712579 0.056683995
v -0.006090982 0.914087474 -0.138954327
v -0.170849547 0.858656228 0.065982208
v 0.201659203 0.768049002 -0.064779915
v -0.170183405 0.879784226 0.048243485
v -0.222693324 0.779930294 0.002673775
v -0.005090677 0.934094787 -0.140186340
v -0.140161037 0.913793683 0.031643018
v -0.150762171 0.890831947 0.029872358
v -0.164356500 0.919520259 0.020126084
v -0.145111695 0.717115998 0.080112204
v 0.038585804 0.953161538 0.078973800
v 0.018085957 0.953095794 0.080216072
v 0.208855435 0.853795409 -0.058803834
v -0.001350454 0.911852062 0.080663897
v -0.174919754 0.915040493 -0.004553953
v 0.214311987 0.820861816 -0.057409275
v -0.189659148 0.920380414 -0.044588499
v -0.171422094 0.920903981 -0.056655265
v -0.084464274 0.634208977 -0.096760020
v 0.058828928 0.951890349 0.074445769
v 0.207982272 0.836705208 -0.035720840
v 0.219421506 0.786196470 -0.047914796
v -0.181042224 0.926183045 -0.076723829
v -0.156017199 0.928242385 -0.114784718
v -0.129679948 0.922440052 -0.142425492
v -0.157779276 0.861225903 -0.123020910
v -0.121632382 0.638634920 -0.084856316
v 0.081638157 0.935994506 0.081413679
v 0.076545477 0.947092414 0.066019848
v -0.111732922 0.857490182 -0.154963255
v -0.002561499 0.852676749 0.068806216
v -0.120788559 0.881340981 -0.150039926
v 0.214920208 0.809448123 -0.030518454
v -0.109059691 0.620475292 -0.101193964
v 0.089613706 0.934665382 0.064103268
v -0.032867156 0.688918293 0.032982156
v -0.037196461 0.580405831 0.018609561
v 0.208373860 0.850239456 -0.015817707
v -0.213673502 0.840313137 -0.045797218
v -0.050066106 0.630118012 0.037554998
v 0.106791638 0.937332511 0.058381658
v 0.209453553 0.678354084 -0.009839503
v -0.060020529 0.569887996 0.037351720
v 0.218077227 0.675572336 -0.030218601
v 0.213510245 0.827124894 -0.010040458
v 0.219348356 0.783175051 -0.017614562
v -0.058528356 0.641523898 0.059045803
v -0.083259173 0.563579023 0.059761614
v -0.112894021 0.564765811 0.070087932
v -0.105744466 0.628725469 0.072602704
v 0.216013476 0.814276814 0.018503707
v -0.108579263 0.606071353 0.072396107
v 0.218427896 0.804224491 -0.005893276
v -0.062305082 0.834580719 0.064246580
v 0.106121026 0.853844047 0.086430788
v -0.118876122 0.614791274 0.091957264
v 0.072715595 0.787080884 -0.113384053
v -0.139833048 0.564020514 0.083515860
v -0.196595684 0.641632617 -0.059063971
v -0.130395636 0.629984140 0.076098286
v -0.139296517 0.583484769 0.060846321
v 0.064395510 0.806352735 -0.116489887
v 0.179160833 0.875824809 0.035346441
v -0.134006783 0.605680346 0.074211739
v -0.196916968 0.622407973 -0.045040302
v -0.146342829 0.560200512 0.054418094
v 0.221290186 0.786063731 0.009699118
v 0.217695758 0.766096115 0.023433428
v -0.150774121 0.872221947 0.065038301
v -0.156158328 0.604686379 0.060799606
v -0.177311346 0.554207325 0.050017279
v 0.199055478 0.833737493 0.029263396
v 0.198952287 0.807981312 0.042645544
v -0.193838328 0.626116395 0.054553051
v -0.184309736 0.603193045 0.061521359
v 0.197252169 0.783134580 0.057719626
v -0.186822057 0.559298575 0.027789678
v 0.153023407 0.876317799 0.048668791
v -0.191821128 0.607109129 0.036060184
v 0.219052002 0.668965340 0.011360569
v -0.056170117 0.951353073 0.074629232
v -0.207177848 0.608255446 0.013785777
v -0.029792095 0.923117280 0.093841009
v 0.186636329 0.827460647 0.052425079
v -0.173453853 0.859668911 0.041389398
v 0.203858495 0.661054969 0.031477388
v -0.171418801 0.874569237 0.022275377
v -0.194401488 0.604207516 -0.010510471
v 0.191756710 0.760258317 0.068117119
v -0.188116193 0.856394649 0.023614286
v 0.017359246 0.851528645 -0.146172717
v 0.018632380 0.878023803 -0.150702804
v 0.174618989 0.824526191 0.072617605
v -0.033276819 0.930011630 -0.147983283
v 0.185900196 0.804219842 0.068183467
v -0.197361082 0.628935993 -0.001723113
v -0.022521811 0.905838847 -0.155005723
v 0.021615423 0.725000620 0.029180795
v -0.033919808 0.622549653 -0.041123588
v -0.047458168 0.908361256 -0.151714772
v 0.153305635 0.834892094 0.073841326
v -0.057336461 0.930174351 -0.153404325
v -0.197349072 0.879202545 0.017129306
v 0.171727687 0.779252946 0.077201873
v -0.211444303 0.857302189 0.010751479
v 0.149885401 0.759247363 0.082016736
v -0.197235465 0.862886727 -0.032509144
v -0.207936317 0.846982777 -0.015106631
v 0.157600403 0.808151245 0.075270735
v -0.201918393 0.872126698 -0.008424414
v 0.126718223 0.770152569 0.089994356
v -0.208780691 0.559613407 -0.031166146
v -0.216582417 0.611497104 -0.009461812
v 0.104333661 0.661589742 0.080313787
v 0.129246384 0.658531487 0.086405121
v 0.104352787 0.733573556 -0.121751055
v 0.097869948 0.906904817 0.072194740
v -0.039866827 0.633821249 0.016243622
v 0.123569988 0.940526128 0.052749731
v -0.198460609 0.886163533 -0.045606695
v 0.139579833 0.680720866 0.083303392
v 0.128262192 0.823376298 0.086609133
v -0.205935001 0.624792755 -0.023687225
v -0.185035229 0.877012134 -0.065821834
v 0.138063401 0.935265839 0.046351425
v -0.172174603 0.878834724 -0.108805820
v 0.142010584 0.789042115 0.082993917
v -0.077045567 0.782427490 -0.115424156
v 0.091666304 0.686519742 0.076143071
v -0.183073565 0.559170246 -0.046303563
v 0.102204762 0.773616850 0.087024391
v -0.201554209 0.603534460 -0.030701354
v -0.186503574 0.619356632 -0.069223985
v -0.164307386 0.560424447 -0.063508853
v 0.066999830 0.683240056 0.065119281
v 0.115131155 0.796866417 0.091119066
v -0.076447755 0.744338036 -0.104920626
v 0.092036337 0.792964399 0.083095111
v -0.178067282 0.578917742 -0.059390433
v -0.169361502 0.638889849 -0.069815710
v 0.050834376 0.702645659 0.059184752
v -0.090777874 0.761400163 -0.123374894
v -0.166295603 0.568664789 -0.085728154
v 0.014929801 0.812897801 -0.111084186
v 0.092171453 0.821197808 0.087391056
v 0.077516019 0.844681859 0.072399914
v -0.161123827 0.612704396 -0.067274950
v 0.139898077 0.929100692 0.027378868
v 0.016639901 0.674905837 -0.052473873
v 0.019470707 0.655802608 -0.045267161
v -0.145246163 0.554439366 -0.074260592
v 0.151978612 0.939880252 0.036997396
v -0.143096551 0.754193723 -0.128395513
v 0.152152702 0.939042568 0.018821670
v -0.141254053 0.617737293 -0.080152705
v 0.044437200 0.888525009 -0.155785531
v -0.157443404 0.599020064 -0.086109862
v 0.162538931 0.941100955 0.003311015
v 0.025761899 0.704400599 -0.077497609
v 0.027774740 0.727827072 -0.088186048
v -0.146621436 0.735442579 -0.110122763
v 0.178163454 0.946047664 -0.005995127
v -0.146414906 0.758671820 -0.104773782
v -0.107797027 0.922795177 -0.137021571
v -0.051898010 0.905279458 0.081436515
v 0.169209242 0.943996131 -0.022428850
v -0.131574005 0.555252492 -0.098363504
v -0.162727430 0.748551071 -0.091699287
v -0.136870489 0.594848514 -0.082454182
v -0.151733413 0.888102055 -0.123820521
v 0.181096703 0.946380794 -0.034895547
v -0.178456664 0.758722067 -0.108561650
v 0.032589905 0.634411275 -0.048909865
v -0.107051693 0.558792710 -0.091701411
v -0.186719477 0.746782660 -0.087728716
v 0.172417492 0.943922043 -0.051829558
v -0.144364104 0.870521545 -0.140551001
v 0.173744261 0.946607947 -0.070719756
v -0.200430155 0.765506566 -0.069184735
v -0.127413794 0.604473770 -0.099517964
v 0.198012188 0.706081510 0.061146058
v 0.162413344 0.944780350 -0.085844047
v -0.213024467 0.749164939 -0.055333488
v 0.040797234 0.748901069 -0.101640761
v -0.104141936 0.569227338 -0.072738074
v -0.037476797 0.599402010 -0.031231049
v 0.162906393 0.945663631 -0.104643203
v -0.219067380 0.768366218 -0.047786824
v 0.210197404 0.786566854 0.033893343
v -0.030407926 0.667648733 0.023751736
v 0.128974155 0.943077266 -0.120698832
v 0.206103176 0.756920993 0.045497954
v -0.072945409 0.765839934 0.072457418
v -0.120761439 0.611005068 -0.080712438
v -0.083449706 0.577863276 -0.085622922
v 0.048273921 0.631558955 -0.071289912
v -0.099714547 0.624794662 -0.081154831
v -0.071417883 0.602858424 -0.071551934
v -0.066591285 0.578836858 -0.063355744
v 0.072730467 0.663157523 -0.092883714
v 0.054530777 0.726997972 -0.101016060
v -0.205504775 0.727669716 0.052886903
v 0.043826241 0.794980824 0.063678205
v 0.032837689 0.771221459 0.053418070
v -0.205463335 0.752793074 0.048922990
v 0.029063314 0.747943461 0.040771615
v -0.031781215 0.774816096 -0.104345821
v 0.096546419 0.705750823 -0.117986843
v -0.193116531 0.767750800 0.070371740
v -0.069616437 0.643858194 -0.082945675
v -0.075828232 0.623515666 -0.080592021
v 0.100606680 0.645802200 -0.109903112
v -0.188091666 0.741672397 0.073298678
v -0.046130307 0.605209291 -0.059223752
v 0.124209680 0.932886302 -0.135011882
v 0.119807981 0.668493390 -0.103407964
v -0.055391658 0.627715707 -0.072910391
v -0.165397674 0.759834170 0.076160133
v -0.049574621 0.661568224 -0.079783671
v 0.122375563 0.952070117 -0.133662537
v -0.033904605 0.637237370 -0.062156487
v 0.108815014 0.616064131 -0.105197892
v -0.189849705 0.580074370 -0.015165312
v -0.203748867 0.561374068 0.005883735
v 0.138062894 0.661791921 -0.092396133
v -0.154040396 0.738815188 0.080856733
v -0.135560080 0.754220307 0.084708475
v 0.124038301 0.717696309 -0.118069395
v -0.083410457 0.835403621 0.085290246
v -0.075413398 0.950586796 0.070489377
v -0.124753997 0.729549050 0.095734254
v 0.142012224 0.709508777 -0.099524930
v -0.110342756 0.751719296 0.093948439
v -0.094313309 0.813584924 0.090811476
v 0.159980506 0.713921487 -0.085390128
v -0.097653821 0.732446730 0.079815224
v 0.122421600 0.866554379 -0.148349628
v -0.083796814 0.790178716 0.078071967
v -0.108021319 0.793216348 0.094536737
v 0.181597918 0.698568642 -0.087855443
v -0.097618952 0.772102714 0.086973019
v 0.169653162 0.631426454 -0.071688600
v 0.185753435 0.646447182 -0.075322248
v -0.091076702 0.752822280 0.078520581
v -0.070787430 0.739814639 0.073024049
v -0.122885153 0.773378611 0.093561575
v -0.029680360 0.760655284 0.045742519
v -0.133776724 0.794483423 0.087815233
v -0.119739711 0.810548604 0.079183377
v 0.192673475 0.692176938 -0.066242769
v 0.205709860 0.658592343 -0.040648658
v -0.071893848 0.811175466 0.071097761
v -0.146856457 0.775357723 0.082495794
v -0.047904540 0.668728471 0.047303122
v -0.146535859 0.813173294 0.074294522
v 0.193719149 0.665758193 -0.060690898
v -0.167402208 0.833154678 0.076597221
v 0.216217592 0.655510664 -0.019323543
v -0.192900479 0.793286920 0.066847906
v 0.221826643 0.702794731 -0.026774481
v -0.172501579 0.782373607 0.077488780
v -0.074637987 0.858027577 0.080478355
v -0.188284636 0.818125546 0.062200028
v 0.210977837 0.610495746 -0.014922279
v -0.075731784 0.901251793 0.062372696
v -0.011286386 0.779438019 -0.079280443
v -0.071015023 0.925951004 0.065484338
v -0.193810269 0.822281480 0.039365299
v -0.217891976 0.764351487 0.025590574
v -0.049721904 0.930948377 0.075613543
v -0.008822682 0.798858345 -0.087110773
v -0.110280611 0.942129612 0.055726487
v -0.222026631 0.752427459 -0.000596178
v 0.079932533 0.833632469 -0.147368029
v 0.127984315 0.913869262 -0.138613850
v -0.218552276 0.832472205 0.005177603
v -0.094257601 0.948919654 0.064919867
v 0.220369861 0.698306501 0.002082593
v 0.103088163 0.950439453 -0.134788707
v -0.184853524 0.884390533 -0.023810733
v 0.218474418 0.715162158 0.021312799
v -0.219396040 0.770429075 -0.021555241
v -0.217753977 0.796783090 -0.018839281
v -0.212167546 0.821952522 -0.019592229
v 0.084851943 0.951392770 -0.141624048
v 0.221383601 0.759739161 0.000474826
v 0.071979411 0.937054515 -0.140434697
v -0.098793507 0.853888810 0.066532560
v -0.017886724 0.878739178 -0.151042610
v 0.206452489 0.703694701 0.039798714
v 0.055986028 0.949549854 -0.141335696
v 0.061211009 0.934085190 -0.157297313
v 0.192547426 0.600782752 0.008540561
v -0.093516275 0.924145341 0.073258542
v -0.023466527 0.855338693 -0.148598701
v -0.210233882 0.791215122 -0.061124306
v -0.173053578 0.896117330 -0.084750824
v -0.108494543 0.831118226 0.073391721
v 0.035948332 0.952461839 -0.139254630
v -0.194723397 0.791226149 -0.081611589
v 0.015304523 0.953443229 -0.135943428
v -0.165882856 0.798451066 -0.107432783
v 0.191777259 0.606002688 0.037408788
v -0.186231762 0.784377635 -0.107137442
v 0.014311237 0.938085556 -0.139874190
v -0.006093317 0.953422546 -0.135022268
v 0.201975510 0.680470109 0.049714923
v 0.194491372 0.653315783 0.055822331
v 0.083877601 0.801490128 -0.131094515
v 0.021105696 0.918747425 0.079947121
v -0.171450526 0.824688733 -0.109844163
v -0.163193896 0.774497628 -0.098222353
v -0.165268153 0.924782276 -0.093842492
v 0.067552656 0.821604848 -0.131746203
v 0.180834800 0.679076850 0.067830190
v -0.138960719 0.782755733 -0.110649683
v -0.058194149 0.558651567 -0.047224335
v -0.111611009 0.790590942 -0.136684865
v -0.071925387 0.554750204 -0.061938990
v -0.090965919 0.554398537 -0.066654310
v -0.127217501 0.773253679 -0.136031598
v 0.154278904 0.665279388 0.074406900
v 0.169730544 0.645570517 0.065761983
v -0.094231933 0.544346631 -0.081622303
v 0.159491077 0.616646171 0.065234959
v -0.112586245 0.839773774 -0.136821419
v 0.046303220 0.911854088 0.072777659
v 0.029955825 0.894012749 0.077937350
v -0.112252936 0.543386161 -0.078955650
v 0.158781990 0.694453835 0.076285437
v -0.113536879 0.813962460 -0.148162112
v 0.138142064 0.701685309 0.084661447
v 0.143684044 0.637347817 0.076880276
v -0.130021602 0.539730608 -0.086021699
v -0.004021871 0.818407536 0.048204254
v -0.006561426 0.804174125 0.033245750
v -0.106399819 0.805702090 -0.120639540
v -0.111165807 0.531825542 -0.091858312
v -0.087001838 0.857137680 -0.162118539
v -0.113113403 0.779296815 -0.115703739
v -0.126368880 0.531823814 -0.100896500
v -0.144082412 0.531640768 -0.093442127
v -0.160255030 0.532712758 -0.085429884
v -0.052272964 0.782615244 0.067724690
v -0.027409326 0.785574377 0.050152928
v 0.082878418 0.666494966 0.071366794
v 0.086737610 0.643213332 0.070236906
v -0.177797794 0.540871501 -0.082182087
v -0.161862284 0.543891013 -0.071765810
v -0.031556431 0.712229073 0.039455924
v 0.064532012 0.658388317 0.061894782
v 0.044925399 0.676722884 0.048054893
v -0.180073276 0.541780829 -0.064366162
v -0.086022258 0.843189716 -0.142530873
v 0.074894108 0.706182122 0.071249448
v -0.191361278 0.535090446 -0.049623940
v -0.050928056 0.694735587 0.061941028
v 0.027423028 0.679065645 0.025539365
v -0.036766075 0.647921979 0.035872333
v -0.100056961 0.834573090 -0.156953067
v 0.020857545 0.629229248 0.027810385
v -0.067660138 0.668567240 0.068369552
v 0.068522617 0.750200093 0.071624368
v -0.040227190 0.613864362 0.028817067
v -0.055575646 0.612114310 0.052763492
v -0.062219191 0.867121577 -0.162895411
v -0.080333821 0.878356159 -0.156003624
v -0.074768506 0.714816213 0.073520072
v -0.064372607 0.892020524 -0.154065341
v 0.096154049 0.872653782 -0.156598538
v -0.202192262 0.531497419 -0.033194143
v 0.082888313 0.729284406 0.076268986
v -0.081085071 0.615441680 0.066273309
v -0.104790829 0.709547520 0.079832509
v 0.102125883 0.847298741 -0.148369119
v -0.083704121 0.644919217 0.071900725
v -0.096173696 0.669264197 0.071080998
v -0.087784722 0.877565086 0.061619151
v 0.069672778 0.636943996 -0.085169688
v -0.064016007 0.881054223 0.079331197
v 0.105601348 0.733084559 0.085698925
v -0.107497774 0.650137961 0.075412527
v 0.140667647 0.864848614 -0.126896501
v -0.189744309 0.544200182 -0.035009328
v -0.031723030 0.736519873 0.040824868
v 0.095513865 0.626971662 -0.082985379
v -0.199970692 0.534861922 0.000028691
v -0.137446910 0.676692784 0.088677116
v 0.089129165 0.649219394 -0.088185176
v -0.191386908 0.534587920 0.017018564
v -0.114276186 0.663495719 0.092770703
v 0.122971907 0.717228055 0.089657731
v 0.130132109 0.742424369 0.089058287
v 0.135604978 0.888177991 -0.138301119
v -0.182327732 0.534352362 0.033986319
v -0.127782702 0.702502251 0.094716668
v -0.172116876 0.534531772 0.050474882
v -0.133342773 0.653843284 0.078189388
v -0.161042213 0.535455406 0.067052498
v -0.157035902 0.543106616 0.051056184
v -0.145225003 0.696342349 0.078550413
v -0.158913076 0.660651863 0.075445719
v -0.144391313 0.540266156 0.066101111
v 0.150796026 0.725706339 0.081228420
v -0.161798805 0.682344496 0.070644572
v -0.131893218 0.554824054 0.064215317
v -0.122746564 0.539694667 0.072448224
v 0.123192370 0.604800105 -0.085721597
v -0.166945517 0.703515112 0.073432915
v 0.195852637 0.734587252 0.065152183
v 0.125809595 0.625750303 -0.086648382
v 0.157422900 0.919568717 -0.114202760
v -0.104841635 0.539835274 0.062847227
v -0.154302150 0.639264941 0.076024167
v -0.086865731 0.541281939 0.053569179
v 0.144591540 0.931509137 -0.135675639
v -0.071130864 0.544440150 0.040912744
v -0.060132343 0.550973773 0.024437891
v 0.206977844 0.727936447 0.042433556
v 0.159694597 0.882458210 -0.133400589
v -0.048829518 0.558690369 0.009275875
v -0.034488864 0.567116141 -0.001411484
v -0.190041676 0.714853883 0.069304481
v -0.038991086 0.587316394 0.000030619
v -0.181446210 0.667948604 0.060733844
v 0.143865258 0.615522265 -0.090440676
v 0.169660002 0.857725739 -0.124820970
v 0.219152421 0.741563380 0.021845723
v -0.205929011 0.702017844 0.053999119
v -0.202428073 0.650581598 0.053799171
v -0.205864146 0.676611543 0.053399265
v -0.046707854 0.744113564 -0.107335687
v 0.165733859 0.607852101 -0.090206698
v 0.220406622 0.756979465 -0.025060024
v 0.146349400 0.896663368 -0.118348613
v 0.009799200 0.800253749 -0.089851119
v -0.062030476 0.766121507 -0.106716193
v 0.065724380 0.747675836 -0.109598301
v -0.049362097 0.724091232 0.061258953
v 0.219411761 0.729125857 -0.006642884
v -0.201371118 0.663521171 0.028755192
v -0.221262097 0.705622017 0.012657481
v -0.199575543 0.801569462 0.043572504
v 0.160722047 0.607995391 -0.066450611
v -0.203045934 0.655535042 0.001497708
v 0.128634110 0.913467050 0.065987520
v 0.221481994 0.731350482 -0.037037343
v -0.218444303 0.677820444 0.008199009
v -0.216254354 0.695510626 -0.014436467
v -0.221796304 0.714102268 -0.034125470
v 0.177939832 0.600598037 -0.048976041
v 0.208860040 0.711514115 -0.052061994
v -0.221438318 0.638874412 -0.010512899
v -0.221719220 0.806650460 0.003560958
v 0.159130022 0.874379158 -0.109650195
v -0.039561816 0.951341271 0.084484711
v 0.203822136 0.738596380 -0.058953822
v 0.199161738 0.746257007 -0.086615115
v -0.096685514 0.826655388 -0.130652964
v -0.071702547 0.823944926 -0.140392885
v 0.187200159 0.618566811 -0.066747911
v -0.225261047 0.666917801 -0.021478070
v 0.196530104 0.585170746 -0.056610893
v 0.193320453 0.718723059 -0.071991280
v -0.027133215 0.952477336 -0.138085365
v -0.047930591 0.949223399 -0.141023010
v 0.173518479 0.853978753 -0.096126348
v 0.016034929 0.769579530 0.031548075
v -0.068210565 0.942211151 -0.143698543
v -0.048338059 0.751586497 0.064366683
v 0.182418555 0.723459005 -0.091732450
v 0.168763191 0.741734803 -0.086512864
v -0.085532933 0.930435359 -0.142177969
v 0.178373903 0.881902218 -0.095283546
v -0.206116483 0.645347536 -0.032521896
v -0.084394738 0.947252274 -0.149531022
v -0.097571760 0.924855530 -0.157098264
v -0.217807859 0.811917901 -0.044700626
v -0.099163808 0.947001755 -0.137352303
v -0.118023917 0.946771741 -0.133482173
v 0.165323108 0.725797534 -0.109671339
v -0.200724006 0.709313273 -0.060960822
v -0.198716030 0.818469226 -0.068899326
v -0.193128169 0.837624669 -0.094004475
v -0.203850716 0.665614009 -0.047255460
v 0.186859533 0.866620839 -0.073487021
v 0.169359297 0.923700213 -0.080135755
v -0.186812922 0.600713193 -0.052089900
v 0.045655005 0.748683929 0.060631584
v 0.139334768 0.733906567 -0.104415379
v -0.078398496 0.804228663 -0.127504215
v -0.184522480 0.722056091 -0.085065171
v 0.185197338 0.919653416 -0.064626083
v -0.094508484 0.786333203 -0.125557691
v -0.177354127 0.595691085 -0.077213749
v 0.126018897 0.741904855 -0.121552184
v -0.184391722 0.659973025 -0.067855723
v -0.169443369 0.653049171 -0.095760651
v 0.189963490 0.917125702 -0.041971914
v -0.175045729 0.675804257 -0.080647141
v -0.169230610 0.707619071 -0.105295762
v 0.195488676 0.864560962 -0.033945821
v -0.163459361 0.624980211 -0.090866983
v -0.027085701 0.663014293 -0.064133413
v 0.081271425 0.728389800 -0.110666454
v -0.136336058 0.946030140 -0.130442172
v -0.128819019 0.931683898 -0.125699475
v -0.157344133 0.723294675 -0.088835962
v -0.152088478 0.697619915 -0.085722074
v -0.148757339 0.670836329 -0.082236692
v -0.145949095 0.643578172 -0.080316454
v -0.126562834 0.824759364 -0.122897170
v 0.069455311 0.796099424 0.074719027
v 0.208073810 0.611244798 -0.048724189
v -0.155315638 0.948948383 -0.098434940
v -0.165369838 0.950478256 -0.080332704
v 0.209361747 0.634010017 -0.032140590
v -0.017924298 0.577303052 -0.005950988
v -0.171188369 0.948190331 -0.061095856
v 0.202764988 0.872674465 -0.006255317
v -0.175011307 0.940943539 -0.042941358
v -0.177561775 0.924853623 -0.029365743
v -0.180007711 0.942989528 -0.026310241
v 0.217822000 0.756182969 -0.049449470
v 0.174293146 0.920366585 -0.028604409
v -0.172457710 0.943072021 -0.008081929
v -0.161656886 0.941901803 0.008444989
v -0.145547554 0.936222374 0.018256428
v 0.050846141 0.792136312 -0.105472051
v -0.136390015 0.932922244 0.035035338
v 0.187164575 0.917836666 -0.010767688
v -0.155019566 0.938713372 0.033502873
v -0.135149777 0.629813492 -0.102428019
v 0.195830867 0.862893939 0.019573782
v 0.012787288 0.717090964 -0.063206747
v -0.013312683 0.701608062 -0.057385433
v -0.012608158 0.720564008 -0.063023940
v 0.136718541 0.920163631 -0.120177031
v -0.139588967 0.656426311 -0.105219819
v -0.012459228 0.739932597 -0.067977533
v -0.139367491 0.710773945 -0.108369626
v 0.010355283 0.739142597 -0.068770714
v -0.012720773 0.759636104 -0.073123626
v -0.142527342 0.941707253 0.048727002
v 0.173686013 0.756430149 -0.105847023
v 0.169595942 0.913597584 0.005461428
v -0.113882385 0.645853996 -0.109372914
v -0.142845184 0.922527134 0.046222765
v -0.127159044 0.934333444 0.049908262
v 0.167149872 0.899752736 0.034260273
v 0.044125266 0.862856269 -0.154150069
v -0.140319139 0.683715701 -0.107464090
v -0.127527460 0.727840781 -0.132939488
v 0.155187666 0.919845223 0.023062054
v -0.115883209 0.671629071 -0.117396176
v 0.186760709 0.851129353 0.042240180
v -0.121472284 0.666110992 -0.091827027
v -0.009835551 0.744533181 0.019161748
v -0.110140882 0.917569280 0.058005322
v 0.129338041 0.916029572 0.041644074
v 0.136552468 0.894803345 0.045466356
v 0.149935097 0.917579293 0.045996197
v -0.099357724 0.651440203 -0.091620319
v -0.118842348 0.692605376 -0.099273525
v -0.095106572 0.675445259 -0.104055598
v 0.046790566 0.635405123 0.034310371
v -0.116161808 0.718292236 -0.107567944
v 0.049536761 0.912504673 -0.156524986
v -0.089812644 0.700938821 -0.109650388
v 0.021770202 0.902796924 -0.150718689
v -0.044187870 0.850563049 -0.154701099
v -0.040024437 0.880614400 -0.160450622
v 0.197294533 0.627242386 0.006208200
v 0.198037654 0.633550286 0.035552915
v -0.060005922 0.689971566 -0.096472003
v -0.063317679 0.718712270 -0.108556308
v -0.143037051 0.942747772 -0.114747182
v 0.167881742 0.859564960 0.050904859
v 0.156530991 0.861995816 0.073048718
v -0.185924143 0.557729423 -0.017034259
v 0.177802458 0.595825434 0.058533631
v 0.186025128 0.624151826 0.058150005
v -0.197539702 0.540818036 -0.017781105
v 0.135715514 0.882671714 0.073653042
v -0.047617935 0.582015157 -0.044978529
v -0.049519103 0.566630423 -0.030521479
v 0.010199404 0.618288398 0.005113275
v -0.036827434 0.573258996 -0.018150905
v -0.018281603 0.928512931 0.075891756
v 0.068084456 0.900561452 -0.159112141
v -0.022265561 0.947572827 0.078614794
v -0.039447844 0.603288293 0.010730698
v 0.136493579 0.609083235 0.081168823
v 0.040543515 0.933724105 0.078190856
v 0.077628784 0.563677847 0.055145133
v 0.065157950 0.583576083 0.051106840
v 0.104525469 0.575016081 0.068901464
v 0.046473037 0.834493756 -0.146971911
v 0.129688635 0.579959095 0.079667084
v 0.056560449 0.594502807 0.030293385
v 0.189230457 0.573534906 0.012392310
v 0.132235706 0.847801208 0.065642856
v 0.116310515 0.866645634 0.058770232
v 0.191611499 0.893957257 0.011263168
v 0.109483466 0.601256907 0.076236531
v 0.182434887 0.891104996 -0.024105269
v 0.199478894 0.888604343 -0.053591549
v 0.063091464 0.928848863 0.079028562
v 0.087301604 0.617330968 0.068510190
v 0.112931609 0.631503403 0.083955921
v 0.177488789 0.895812213 -0.073824242
v 0.173183620 0.910420775 -0.097253539
v 0.085293286 0.591208816 0.063876353
v 0.165559173 0.896258652 -0.110162258
v 0.170660034 0.575677991 -0.053656839
v 0.177508071 0.586067736 -0.081130639
v 0.062444262 0.631535649 0.057884485
v 0.142171219 0.586952865 -0.078181922
v 0.151388675 0.907864273 -0.136965409
v 0.063530460 0.605387330 0.057109773
v 0.115898170 0.687346339 0.087450430
v 0.153263271 0.586886227 0.067152329
v 0.181787953 0.579634547 0.036643844
v 0.207193106 0.585190952 0.027044687
v 0.207858354 0.685098052 -0.047896419
v 0.164408922 0.695362568 -0.104307964
v 0.044883795 0.613319039 0.038869105
v 0.141425177 0.684177995 -0.095682576
v 0.194950849 0.593724072 -0.029358199
v 0.205873400 0.583601654 -0.006302916
v 0.036581114 0.655358434 0.025719538
v 0.008479785 0.681375504 0.010642720
v 0.093511268 0.875076652 0.061850827
v 0.076302588 0.919197559 0.062219240
v 0.015366480 0.703728199 0.018422930
v 0.039617591 0.816313088 0.050248045
v 0.020421814 0.793758929 0.042773794
v 0.020273676 0.617055714 -0.030639773
v 0.068162844 0.904432654 0.082042769
v 0.031358503 0.654486775 -0.066278324
v 0.040952496 0.873989224 0.073639117
v 0.056523658 0.889063179 0.067321494
v 0.018627588 0.872911274 0.074431993
v 0.040031973 0.593167305 -0.033322345
v 0.051785976 0.658160269 -0.081020810
v 0.079374142 0.772839189 0.077325121
v 0.212456584 0.687365651 0.025836568
v 0.199631065 0.799033046 -0.069015443
v 0.056647372 0.581643760 -0.058700781
v 0.158168897 0.685124755 -0.079131790
v 0.131162390 0.785612166 -0.115710810
v 0.122438416 0.693171263 -0.111486278
v 0.084868416 0.577222824 -0.076580860
v 0.044319384 0.704443514 -0.092936665
v 0.032607533 0.773325145 -0.100645527
v 0.113987014 0.586006284 -0.099949673
v 0.116930962 0.576349139 -0.074961424
v 0.107103273 0.922091007 -0.147326499
v 0.077092148 0.893378735 0.064754255
v 0.074834935 0.872847676 0.084965512
v 0.127862960 0.561139524 -0.097589627
v 0.032909084 0.853777289 0.069010645
v 0.051134445 0.839971364 0.055083316
v 0.082692727 0.923671246 -0.153439656
v 0.153752446 0.559074044 -0.075283833
v 0.180225208 0.766773820 -0.083703145
v 0.021249119 0.833144546 -0.125982255
v 0.153256387 0.627107799 -0.078172356
v 0.184686780 0.561517477 -0.074396476
v 0.014369515 0.695673287 -0.057696700
v 0.167404577 0.553825378 -0.059118800
v 0.030680154 0.798946738 -0.097662069
v 0.192602769 0.557288587 -0.053403057
v 0.186042219 0.574493229 -0.038626879
v 0.059479289 0.726707339 0.065954313
v 0.113609195 0.893601894 -0.148824185
v 0.091449775 0.899071038 -0.158061177
v 0.015298292 0.778305650 -0.082831845
v 0.203530043 0.567261338 -0.025102880
v 0.120421506 0.644599557 -0.095590174
v 0.212592721 0.635325670 -0.009380247
v 0.212635234 0.613503873 0.022101190
v 0.165605888 0.635777354 -0.092683747
v 0.144050866 0.641451001 -0.087667875
v 0.197726533 0.556051970 0.034692984
v 0.175957412 0.845828056 0.066238567
v 0.212245896 0.845171809 0.008568900
v 0.193776697 0.638476729 -0.051554460
v 0.041966312 0.608311296 -0.056893308
v 0.174908817 0.564148784 0.062405158
v 0.090807065 0.752004266 0.080876514
v 0.203001350 0.653736830 0.000727051
v 0.216137141 0.641457260 0.018182449
v 0.094284385 0.666320562 -0.097956032
v 0.146833152 0.556673110 0.065338016
v 0.130043119 0.838473141 -0.139978945
v -0.009283471 0.764560163 0.022473628
v -0.012919297 0.665143847 0.009087701
v 0.048634220 0.651438355 0.047460042
v 0.121010624 0.554301620 0.075003929
v 0.150006160 0.844361484 -0.113694027
v -0.010967812 0.724645495 0.016299952
v -0.008273612 0.784548163 0.026673820
v 0.099223122 0.552506328 0.061929204
v 0.023299750 0.833305180 0.061621457
v -0.003437011 0.833758235 0.061515730
v 0.115419127 0.892000794 0.052455146
v 0.059349239 0.569118142 0.034026451
v 0.108462766 0.917260826 0.051309876
v 0.201246768 0.556944907 -0.003694099
v 0.110826835 0.754043460 0.089307331
v 0.035177566 0.927939057 -0.147246733
v 0.037452601 0.578936100 0.021394059
v 0.069432482 0.878373921 -0.159756705
v 0.011450217 0.590327144 0.015034142
v 0.036405854 0.606733203 0.012584807
v 0.039861046 0.810979486 -0.125093296
v 0.015352570 0.818890929 0.044137102
v 0.013105375 0.652604878 0.010174013
v -0.014805088 0.645306468 0.006934953
v -0.011301855 0.704780519 0.013574986
v 0.184873194 0.555929303 -0.028585156
v -0.011758598 0.684995770 0.010933651
v 0.069476128 0.606526554 -0.078010634
v 0.091473229 0.752846062 -0.114974856
v 0.113878034 0.765097558 -0.128271788
v 0.172384396 0.744804919 0.075564511
v 0.099323213 0.709529638 0.081171855
v 0.175803065 0.715065658 0.071311757
v 0.103312515 0.601551175 -0.076543458
v 0.188391805 0.548517108 0.013241166
f 555 540 123
f 389 162 497
f 567 540 568
f 583 104 251
f 463 489 430
f 453 94 255
f 483 484 162
f 446 640 671
f 574 577 251
f 50 244 238
f 52 244 50
f 575 57 53
f 55 249 52
f 55 2 250
f 577 248 563
f 575 437 432
f 57 597 589
f 2 265 262
f 589 592 57
f 262 259 2
f 5 267 262
f 602 606 589
f 5 9 11
f 58 606 610
f 11 272 5
f 12 278 11
f 565 793 8
f 630 60 632
f 13 425 12
f 424 289 160
f 289 424 13
f 643 649 60
f 181 403 179
f 483 206 484
f 163 651 174
f 53 563 558
f 651 65 650
f 163 389 384
f 683 66 65
f 455 558 563
f 165 384 171
f 340 331 34
f 67 66 683
f 206 470 63
f 385 102 856
f 67 702 70
f 344 340 696
f 179 403 406
f 710 70 702
f 16 352 14
f 111 112 59
f 63 64 655
f 18 368 16
f 710 742 753
f 119 112 111
f 394 671 545
f 551 922 903
f 19 375 18
f 753 740 711
f 406 470 179
f 261 615 108
f 545 453 439
f 178 386 530
f 24 386 23
f 72 753 742
f 26 396 24
f 768 765 72
f 119 142 112
f 32 63 470
f 112 142 161
f 399 400 396
f 154 343 182
f 545 671 448
f 399 415 400
f 768 770 765
f 32 406 410
f 418 415 399
f 770 183 777
f 387 300 166
f 415 418 422
f 105 86 299
f 169 42 839
f 170 142 119
f 173 172 705
f 329 638 343
f 134 738 737
f 185 638 329
f 692 661 145
f 150 74 741
f 637 345 873
f 132 145 661
f 170 184 142
f 138 495 760
f 138 136 188
f 136 194 188
f 201 87 194
f 270 87 205
f 216 49 210
f 46 216 724
f 198 184 170
f 43 96 907
f 219 39 218
f 45 43 41
f 224 37 219
f 498 224 514
f 86 105 342
f 225 36 514
f 378 107 110
f 80 233 107
f 22 41 43
f 198 217 849
f 41 581 45
f 103 233 76
f 76 40 103
f 222 217 214
f 678 100 40
f 98 41 22
f 366 41 98
f 40 76 678
f 215 4 284
f 215 98 21
f 537 536 92
f 222 234 217
f 904 537 92
f 460 462 30
f 284 471 366
f 222 239 246
f 586 903 759
f 462 28 30
f 246 234 222
f 454 449 28
f 237 391 924
f 560 319 921
f 246 888 252
f 431 471 282
f 455 560 391
f 319 560 241
f 50 238 793
f 50 566 52
f 52 574 55
f 258 263 510
f 244 52 249
f 55 253 2
f 284 792 657
f 303 670 667
f 303 100 674
f 250 249 55
f 273 274 252
f 251 253 574
f 100 303 301
f 301 570 100
f 104 261 257
f 677 100 678
f 273 285 274
f 257 2 253
f 2 257 265
f 250 2 259
f 570 568 40
f 752 292 293
f 294 296 285
f 285 296 274
f 684 497 679
f 277 274 296
f 440 447 442
f 579 489 463
f 692 329 695
f 259 262 267
f 871 736 360
f 262 271 9
f 40 100 570
f 570 567 568
f 203 128 270
f 310 296 294
f 305 296 310
f 87 270 194
f 9 5 262
f 5 272 600
f 276 9 271
f 9 276 11
f 272 11 278
f 302 323 310
f 568 103 40
f 108 615 89
f 280 11 276
f 11 280 12
f 103 568 540
f 278 12 425
f 323 337 328
f 283 12 280
f 12 283 13
f 283 297 289
f 289 13 283
f 540 561 231
f 425 13 424
f 209 288 205
f 291 125 286
f 346 337 323
f 49 304 288
f 173 350 351
f 297 654 314
f 347 158 864
f 304 47 311
f 47 304 49
f 47 46 481
f 360 361 855
f 501 684 146
f 481 311 47
f 46 39 481
f 343 695 329
f 314 289 297
f 289 314 160
f 481 321 308
f 481 39 321
f 325 122 321
f 325 321 37
f 37 321 39
f 333 160 314
f 324 266 333
f 527 107 231
f 84 121 325
f 36 327 498
f 160 333 34
f 327 120 84
f 36 82 371
f 277 393 390
f 689 34 333
f 34 689 340
f 313 34 331
f 266 334 689
f 334 260 341
f 340 335 331
f 107 527 110
f 54 404 405
f 696 14 344
f 61 401 44
f 38 299 407
f 358 14 348
f 14 358 16
f 344 14 352
f 356 704 712
f 352 16 368
f 413 62 417
f 370 16 358
f 16 370 18
f 175 705 134
f 713 115 110
f 371 27 378
f 27 371 82
f 381 18 370
f 18 381 19
f 368 18 375
f 80 378 27
f 19 381 235
f 19 395 23
f 19 23 178
f 202 506 913
f 23 395 24
f 386 24 396
f 398 24 395
f 24 398 26
f 26 398 220
f 26 412 399
f 396 26 399
f 418 399 412
f 164 180 444
f 444 443 164
f 175 173 705
f 685 84 120
f 422 300 415
f 685 121 84
f 172 169 300
f 172 300 422
f 78 80 27
f 226 365 78
f 89 615 114
f 240 485 309
f 134 737 175
f 226 27 82
f 245 459 452
f 187 186 140
f 243 459 245
f 189 187 130
f 581 466 579
f 467 472 637
f 308 122 240
f 138 579 466
f 430 255 463
f 499 435 430
f 453 430 435
f 435 440 439
f 435 499 450
f 243 479 281
f 308 321 122
f 897 438 584
f 439 453 435
f 243 281 893
f 450 440 435
f 480 859 865
f 440 449 447
f 442 439 440
f 450 449 440
f 447 449 454
f 492 488 493
f 127 458 456
f 449 456 28
f 82 225 708
f 454 28 462
f 28 456 30
f 456 450 127
f 30 456 458
f 225 82 36
f 30 464 460
f 506 507 502
f 126 469 125
f 287 508 509
f 207 507 506
f 410 460 32
f 126 306 477
f 460 464 644
f 644 32 460
f 32 644 63
f 475 31 576
f 470 406 32
f 64 63 644
f 306 309 477
f 125 464 458
f 528 795 511
f 516 523 524
f 655 206 63
f 206 655 484
f 206 474 470
f 162 679 497
f 316 322 822
f 313 160 34
f 37 498 325
f 523 316 534
f 497 684 501
f 501 146 505
f 146 512 503
f 505 503 513
f 263 515 510
f 512 120 115
f 503 512 91
f 517 513 503
f 115 713 91
f 458 203 125
f 315 547 548
f 91 512 115
f 547 330 336
f 91 713 88
f 517 88 522
f 552 548 547
f 532 88 713
f 88 532 519
f 552 336 553
f 522 519 541
f 527 231 561
f 127 128 458
f 538 660 692
f 514 36 498
f 224 498 37
f 538 692 695
f 114 626 631
f 553 342 105
f 219 37 39
f 555 660 561
f 127 450 499
f 891 199 824
f 660 555 661
f 218 39 46
f 199 97 886
f 366 98 284
f 22 21 98
f 41 366 581
f 43 232 22
f 907 232 43
f 96 536 907
f 45 463 255
f 45 581 463
f 255 94 96
f 255 96 45
f 94 453 545
f 448 546 545
f 582 593 594
f 595 584 438
f 216 46 47
f 216 47 49
f 551 640 558
f 558 640 569
f 49 288 209
f 793 565 50
f 569 53 558
f 566 50 565
f 209 210 49
f 841 351 350
f 574 52 566
f 578 53 57
f 612 609 423
f 53 578 563
f 575 53 569
f 597 432 211
f 253 55 574
f 57 575 597
f 578 57 592
f 592 583 578
f 627 609 612
f 584 621 628
f 603 589 606
f 602 589 597
f 634 819 627
f 610 606 602
f 835 318 229
f 626 606 58
f 610 624 58
f 58 624 630
f 632 58 630
f 634 884 869
f 58 632 626
f 60 642 632
f 642 60 649
f 60 630 181
f 650 649 643
f 662 652 645
f 656 628 621
f 621 636 656
f 658 659 204
f 64 644 469
f 466 495 138
f 694 377 700
f 468 471 431
f 663 650 65
f 628 656 668
f 679 162 484
f 65 686 663
f 672 673 659
f 686 65 66
f 683 65 651
f 468 431 478
f 683 693 67
f 685 146 684
f 146 685 512
f 696 340 689
f 66 67 701
f 473 495 478
f 66 698 686
f 702 67 693
f 668 675 687
f 701 698 66
f 405 690 54
f 701 67 70
f 54 690 564
f 14 696 348
f 711 70 710
f 699 70 711
f 702 709 710
f 229 318 236
f 657 282 471
f 710 709 742
f 753 756 740
f 756 753 72
f 742 754 72
f 72 754 768
f 72 765 756
f 766 765 770
f 490 193 496
f 130 772 496
f 770 776 766
f 15 719 168
f 87 201 148
f 183 770 768
f 201 194 136
f 422 705 172
f 633 777 338
f 777 633 150
f 408 74 633
f 638 185 408
f 106 730 258
f 688 379 694
f 275 631 118
f 185 692 145
f 197 750 749
f 736 737 738
f 263 258 730
f 738 741 743
f 185 145 143
f 743 741 744
f 744 741 74
f 744 467 879
f 132 140 145
f 123 132 661
f 741 738 150
f 123 540 567
f 773 772 567
f 738 134 150
f 78 27 226
f 238 623 1
f 264 279 779
f 776 150 134
f 134 705 420
f 695 541 538
f 104 599 261
f 365 681 680
f 761 762 763
f 365 678 76
f 76 78 365
f 411 156 420
f 156 411 220
f 541 519 538
f 220 764 156
f 76 233 78
f 80 78 233
f 168 789 387
f 70 699 701
f 398 395 228
f 434 437 445
f 779 780 887
f 428 432 434
f 926 317 706
f 197 749 745
f 213 6 4
f 279 785 780
f 419 427 428
f 148 201 745
f 454 462 419
f 526 782 783
f 381 734 235
f 410 414 419
f 493 769 913
f 511 4 215
f 4 511 213
f 406 414 410
f 208 731 729
f 21 511 215
f 210 728 727
f 794 800 823
f 511 21 529
f 470 474 179
f 724 218 46
f 227 110 115
f 118 280 275
f 219 218 722
f 806 800 794
f 803 804 256
f 716 778 225
f 224 219 720
f 407 86 690
f 356 734 381
f 389 497 380
f 809 795 528
f 810 806 811
f 717 716 514
f 497 501 380
f 317 697 429
f 810 818 821
f 913 771 202
f 341 698 699
f 373 376 159
f 369 177 373
f 341 260 698
f 260 334 266
f 365 226 681
f 517 522 354
f 828 821 818
f 354 362 364
f 569 640 446
f 519 522 88
f 767 828 818
f 266 324 676
f 602 597 211
f 804 834 256
f 121 240 122
f 345 868 918
f 610 602 211
f 169 839 166
f 427 195 211
f 643 179 174
f 683 651 165
f 693 683 171
f 627 884 634
f 324 654 676
f 846 397 841
f 841 397 374
f 362 709 369
f 580 397 846
f 192 188 190
f 192 499 489
f 128 192 190
f 270 205 203
f 205 288 286
f 291 306 126
f 208 148 733
f 288 304 291
f 304 311 306
f 311 481 308
f 286 125 203
f 283 118 297
f 589 599 592
f 283 280 118
f 227 115 120
f 747 805 732
f 707 226 82
f 107 378 80
f 275 114 631
f 118 646 297
f 89 114 275
f 231 233 103
f 87 209 205
f 816 872 870
f 271 108 89
f 248 560 455
f 248 241 560
f 108 271 265
f 566 565 241
f 86 876 690
f 622 244 619
f 517 91 88
f 574 566 248
f 715 662 889
f 244 249 618
f 249 250 614
f 882 465 718
f 253 251 257
f 774 465 882
f 250 259 608
f 883 494 774
f 921 391 560
f 259 267 604
f 54 564 847
f 251 577 583
f 600 267 5
f 89 276 271
f 503 91 517
f 690 405 407
f 275 276 89
f 892 573 582
f 272 278 596
f 248 577 574
f 280 276 275
f 425 588 591
f 425 424 781
f 781 313 572
f 424 313 781
f 572 585 781
f 314 654 324
f 136 197 201
f 313 557 572
f 237 551 558
f 554 331 335
f 334 341 348
f 760 136 138
f 335 344 549
f 341 699 704
f 348 696 334
f 921 319 7
f 358 348 704
f 344 352 544
f 912 582 594
f 903 586 551
f 352 368 543
f 381 370 356
f 368 375 539
f 788 8 3
f 535 375 178
f 221 795 809
f 828 767 562
f 559 833 920
f 921 920 899
f 546 448 898
f 903 922 836
f 38 903 299
f 235 228 395
f 405 669 407
f 546 92 94
f 400 518 520
f 92 546 904
f 639 35 926
f 386 396 525
f 927 926 33
f 928 605 930
f 200 490 298
f 94 545 546
f 96 92 536
f 927 56 852
f 143 472 408
f 220 412 26
f 400 520 521
f 412 220 411
f 109 113 152
f 920 832 559
f 418 412 411
f 152 113 746
f 387 789 786
f 420 418 411
f 746 161 867
f 418 420 422
f 490 773 298
f 496 772 773
f 394 442 445
f 562 767 832
f 739 636 820
f 204 725 658
f 773 490 496
f 725 223 635
f 447 454 428
f 472 186 637
f 215 284 98
f 189 130 496
f 458 464 30
f 410 462 460
f 125 469 464
f 635 247 487
f 487 269 629
f 641 487 629
f 268 269 487
f 269 393 629
f 390 269 268
f 469 126 64
f 349 761 763
f 655 64 477
f 303 674 670
f 290 393 277
f 611 290 928
f 163 474 483
f 928 307 605
f 635 641 648
f 531 605 533
f 677 674 100
f 477 309 485
f 506 202 207
f 679 485 240
f 240 121 684
f 312 912 594
f 684 679 240
f 121 685 684
f 186 187 345
f 503 505 146
f 912 332 892
f 772 130 132
f 685 120 512
f 501 505 159
f 725 648 658
f 505 513 373
f 513 517 364
f 892 847 564
f 110 527 713
f 714 847 339
f 522 541 154
f 51 714 346
f 231 103 540
f 714 51 404
f 541 695 343
f 567 772 123
f 502 500 506
f 578 577 563
f 867 659 673
f 577 578 583
f 597 575 432
f 592 104 583
f 913 492 493
f 845 167 839
f 599 104 592
f 386 178 23
f 599 603 615
f 110 227 378
f 615 261 599
f 706 402 639
f 603 626 114
f 132 123 772
f 624 610 195
f 409 706 317
f 746 673 682
f 114 615 603
f 120 327 227
f 624 414 403
f 691 429 697
f 642 631 632
f 642 118 631
f 429 433 853
f 646 118 642
f 642 649 646
f 152 682 691
f 682 433 691
f 181 643 60
f 654 297 646
f 122 325 121
f 140 130 187
f 421 416 617
f 123 661 555
f 309 308 240
f 698 260 686
f 702 693 177
f 698 701 699
f 672 441 436
f 291 126 125
f 109 691 697
f 143 140 186
f 874 872 816
f 665 441 672
f 188 192 489
f 665 658 653
f 712 704 699
f 653 451 665
f 927 697 317
f 712 740 734
f 648 461 653
f 178 375 19
f 923 880 116
f 641 461 648
f 740 756 748
f 748 758 228
f 926 706 639
f 479 641 482
f 754 742 362
f 354 754 362
f 407 669 38
f 203 458 128
f 482 629 620
f 756 765 758
f 182 754 154
f 128 127 192
f 254 246 252
f 611 382 620
f 764 398 228
f 499 192 127
f 764 766 156
f 766 776 156
f 930 611 928
f 420 156 776
f 140 132 130
f 788 7 8
f 387 166 168
f 420 776 134
f 136 760 197
f 300 387 415
f 750 197 760
f 745 201 197
f 148 208 209
f 733 148 745
f 258 35 106
f 593 533 605
f 731 208 733
f 236 318 910
f 729 210 208
f 728 210 729
f 727 216 210
f 188 489 579
f 929 573 556
f 724 216 727
f 573 929 582
f 723 218 724
f 722 218 723
f 720 219 722
f 717 224 720
f 514 224 717
f 188 579 138
f 876 556 573
f 707 681 226
f 898 904 546
f 472 143 186
f 212 795 221
f 899 391 921
f 854 925 931
f 213 795 212
f 140 143 145
f 404 54 714
f 833 922 924
f 415 387 786
f 143 408 185
f 238 3 793
f 1 3 238
f 31 799 752
f 622 238 244
f 918 799 515
f 380 376 171
f 915 752 357
f 617 476 421
f 619 244 618
f 618 249 616
f 616 249 614
f 636 739 613
f 388 613 10
f 614 250 608
f 357 791 915
f 383 688 388
f 608 259 607
f 571 438 576
f 295 667 666
f 92 96 94
f 607 259 604
f 372 726 700
f 667 295 303
f 367 726 372
f 604 267 601
f 298 295 207
f 923 875 880
f 363 732 367
f 408 467 74
f 148 209 87
f 298 301 295
f 359 747 363
f 601 267 600
f 359 355 755
f 600 272 598
f 598 272 596
f 353 755 355
f 301 298 773
f 596 278 591
f 747 755 751
f 591 278 425
f 588 425 781
f 388 688 813
f 769 771 913
f 763 353 349
f 202 771 200
f 506 500 913
f 74 467 744
f 773 570 301
f 82 708 707
f 320 647 326
f 500 492 913
f 331 554 557
f 242 910 320
f 344 335 340
f 910 908 647
f 554 335 550
f 239 222 703
f 549 550 335
f 549 344 544
f 166 167 168
f 544 352 543
f 543 368 542
f 17 15 167
f 17 845 157
f 907 536 919
f 157 850 155
f 155 850 153
f 542 368 539
f 150 633 74
f 153 854 151
f 151 854 149
f 149 858 147
f 147 862 144
f 539 375 535
f 759 903 38
f 530 535 178
f 144 862 141
f 141 866 139
f 139 866 137
f 530 386 525
f 137 870 135
f 525 396 521
f 135 870 872
f 133 872 131
f 131 874 129
f 129 923 117
f 923 874 875
f 170 119 902
f 521 396 400
f 20 932 101
f 99 101 932
f 99 886 97
f 95 97 199
f 95 891 93
f 93 896 90
f 518 400 786
f 90 896 85
f 85 901 83
f 83 905 81
f 169 166 300
f 81 905 79
f 77 79 796
f 77 909 75
f 439 394 545
f 75 914 73
f 73 914 71
f 71 916 69
f 442 394 439
f 468 466 366
f 442 447 434
f 7 562 920
f 794 534 811
f 924 899 833
f 434 447 428
f 428 454 419
f 419 462 410
f 38 898 759
f 902 111 897
f 466 468 495
f 526 524 534
f 25 59 56
f 96 43 45
f 895 401 61
f 182 343 338
f 483 389 163
f 483 162 389
f 897 59 25
f 883 894 775
f 776 777 150
f 59 897 111
f 380 384 389
f 774 882 893
f 111 902 119
f 778 708 225
f 501 159 380
f 167 166 839
f 159 505 373
f 176 191 867
f 373 513 369
f 364 369 513
f 850 890 925
f 354 364 517
f 354 522 154
f 177 369 709
f 154 541 343
f 446 445 437
f 376 380 159
f 204 223 725
f 217 198 214
f 214 703 222
f 437 569 446
f 610 211 195
f 414 624 195
f 403 630 624
f 889 718 715
f 160 313 424
f 181 630 403
f 888 246 239
f 179 643 181
f 174 650 643
f 651 650 174
f 163 384 165
f 487 247 268
f 165 651 163
f 171 683 165
f 174 474 163
f 557 313 331
f 475 515 799
f 376 693 171
f 285 273 757
f 177 693 376
f 627 885 884
f 174 179 474
f 509 508 516
f 294 302 310
f 709 702 177
f 709 362 742
f 154 754 354
f 182 338 183
f 780 785 803
f 183 768 182
f 423 413 881
f 183 338 777
f 638 338 343
f 633 638 408
f 590 401 895
f 692 185 329
f 190 188 194
f 515 475 25
f 270 190 194
f 190 270 128
f 195 427 414
f 7 788 562
f 915 878 571
f 877 595 438
f 203 205 286
f 44 48 61
f 474 206 483
f 210 209 208
f 61 62 895
f 413 895 62
f 211 432 427
f 172 42 169
f 398 764 220
f 515 263 918
f 437 575 569
f 228 758 764
f 124 885 426
f 175 871 350
f 84 498 327
f 225 514 716
f 327 371 227
f 918 263 730
f 898 448 759
f 371 327 36
f 839 374 890
f 227 371 378
f 451 441 665
f 228 235 748
f 444 180 457
f 233 231 107
f 187 868 345
f 759 448 586
f 189 292 868
f 734 748 235
f 653 461 826
f 924 922 237
f 292 193 196
f 446 671 394
f 461 641 479
f 922 551 237
f 391 237 455
f 482 641 629
f 918 868 799
f 196 200 293
f 771 293 200
f 558 455 237
f 281 287 894
f 894 893 281
f 248 566 241
f 257 251 104
f 255 430 453
f 257 261 265
f 509 775 287
f 260 266 676
f 509 516 524
f 265 261 108
f 523 516 531
f 322 316 523
f 273 252 888
f 265 271 262
f 811 534 316
f 316 315 811
f 676 686 260
f 366 466 581
f 478 495 468
f 330 547 315
f 547 336 552
f 366 471 468
f 760 495 473
f 657 471 284
f 336 342 553
f 553 900 552
f 832 900 553
f 865 878 791
f 792 284 4
f 31 571 576
f 286 288 291
f 438 571 877
f 906 864 863
f 4 790 792
f 8 7 319
f 303 295 301
f 291 304 306
f 570 773 567
f 739 617 392
f 617 416 392
f 306 311 309
f 309 311 308
f 170 628 668
f 613 739 10
f 739 392 10
f 656 675 668
f 656 815 675
f 680 678 365
f 813 613 388
f 324 333 314
f 687 198 668
f 379 688 383
f 295 666 207
f 815 656 636
f 377 694 379
f 325 498 84
f 689 333 266
f 334 696 689
f 700 377 372
f 861 834 860
f 703 721 239
f 732 726 367
f 834 861 256
f 348 341 704
f 747 732 363
f 356 358 704
f 735 888 721
f 370 358 356
f 735 264 757
f 735 273 888
f 755 747 359
f 369 364 362
f 353 763 755
f 647 761 326
f 761 349 326
f 376 373 177
f 779 757 264
f 780 779 279
f 384 380 171
f 235 395 19
f 736 871 737
f 562 788 917
f 910 647 320
f 785 804 803
f 414 406 403
f 256 323 803
f 813 675 815
f 415 786 400
f 427 419 414
f 422 420 705
f 432 428 427
f 430 489 499
f 587 580 590
f 437 434 432
f 445 442 434
f 446 394 445
f 671 586 448
f 819 609 627
f 456 449 450
f 455 563 248
f 865 791 769
f 581 579 463
f 645 652 817
f 644 464 469
f 652 662 715
f 874 923 129
f 715 664 652
f 694 812 688
f 477 64 126
f 750 760 473
f 485 655 477
f 465 715 718
f 507 207 666
f 465 774 494
f 865 486 480
f 812 675 813
f 485 484 655
f 207 202 298
f 883 504 825
f 493 865 769
f 783 782 504
f 679 484 485
f 202 200 298
f 196 490 200
f 196 193 490
f 877 859 476
f 302 803 323
f 189 496 193
f 814 806 810
f 168 719 789
f 821 814 810
f 391 899 924
f 713 527 532
f 467 408 472
f 302 294 887
f 786 787 518
f 538 519 532
f 561 532 527
f 926 35 33
f 538 532 660
f 540 555 561
f 551 586 640
f 319 241 565
f 660 532 561
f 113 161 746
f 161 176 867
f 8 319 565
f 223 247 635
f 781 585 784
f 620 629 393
f 887 780 302
f 269 390 393
f 671 640 586
f 781 784 588
f 599 589 603
f 393 290 611
f 626 603 606
f 928 290 305
f 623 238 622
f 625 1 623
f 774 893 894
f 312 332 912
f 626 632 631
f 332 339 847
f 847 892 332
f 757 887 285
f 847 714 54
f 793 3 8
f 732 807 726
f 858 931 857
f 675 812 687
f 168 167 15
f 273 735 757
f 920 921 7
f 402 385 639
f 167 845 17
f 638 633 338
f 646 649 663
f 650 663 649
f 845 850 157
f 888 239 721
f 663 654 646
f 706 409 48
f 850 854 153
f 676 654 663
f 429 409 317
f 661 692 660
f 854 858 149
f 676 663 686
f 858 862 147
f 433 429 691
f 678 680 677
f 699 711 712
f 712 734 356
f 711 710 753
f 862 866 141
f 712 711 740
f 682 436 827
f 734 740 748
f 866 870 137
f 214 687 808
f 748 756 758
f 664 816 652
f 872 133 135
f 198 687 214
f 754 182 768
f 872 874 131
f 665 659 658
f 758 765 766
f 658 648 653
f 766 764 758
f 776 770 777
f 668 198 170
f 117 923 116
f 787 786 789
f 929 330 822
f 533 822 322
f 556 336 330
f 531 322 523
f 899 920 833
f 662 444 889
f 346 323 256
f 491 482 620
f 116 880 911
f 911 20 116
f 382 491 620
f 911 932 20
f 932 886 99
f 645 443 662
f 930 382 611
f 382 930 516
f 886 824 199
f 605 531 930
f 491 508 848
f 628 170 902
f 256 347 346
f 482 848 479
f 891 896 93
f 347 256 861
f 820 617 739
f 866 819 817
f 605 594 593
f 896 901 85
f 929 593 582
f 612 881 885
f 901 905 83
f 826 451 653
f 451 457 180
f 672 659 665
f 441 180 851
f 79 905 796
f 436 673 672
f 436 851 827
f 909 914 75
f 682 673 436
f 914 916 71
f 584 902 897
f 876 86 342
f 69 916 1
f 829 433 827
f 700 808 694
f 788 3 916
f 853 829 417
f 409 61 48
f 402 48 855
f 870 817 816
f 855 29 360
f 874 816 664
f 385 361 102
f 830 880 875
f 576 897 25
f 819 634 817
f 68 69 1
f 106 856 730
f 743 736 738
f 910 242 236
f 862 857 819
f 744 879 102
f 880 830 831
f 840 528 843
f 401 846 44
f 803 302 780
f 769 791 357
f 878 915 791
f 831 911 880
f 918 873 345
f 576 25 475
f 799 31 475
f 841 29 846
f 879 856 102
f 106 639 385
f 573 564 876
f 911 831 802
f 342 556 876
f 337 339 332
f 25 510 515
f 350 29 841
f 564 573 892
f 892 582 912
f 510 25 56
f 864 906 837
f 312 328 337
f 929 822 593
f 33 35 258
f 871 360 29
f 840 860 835
f 864 158 863
f 29 855 44
f 916 914 917
f 808 687 812
f 594 307 312
f 307 305 328
f 916 917 788
f 33 56 927
f 840 835 809
f 307 594 605
f 736 743 361
f 531 516 930
f 290 277 305
f 852 109 927
f 318 835 860
f 21 844 529
f 852 59 112
f 620 393 611
f 102 743 744
f 112 113 852
f 751 763 762
f 647 785 762
f 805 747 751
f 252 268 254
f 230 835 229
f 487 641 635
f 637 879 467
f 124 851 164
f 809 230 221
f 161 142 176
f 807 732 805
f 247 234 254
f 230 809 835
f 808 700 807
f 345 637 186
f 176 184 191
f 812 694 808
f 204 849 223
f 849 204 191
f 813 688 812
f 635 648 725
f 849 184 198
f 815 613 813
f 815 636 613
f 217 223 849
f 659 191 204
f 217 234 223
f 191 184 849
f 859 480 421
f 795 213 511
f 245 461 243
f 878 865 859
f 802 886 932
f 191 659 867
f 452 718 889
f 223 234 247
f 176 142 184
f 246 254 234
f 865 493 486
f 293 771 357
f 268 247 254
f 771 769 357
f 805 264 735
f 268 252 390
f 161 113 112
f 486 493 488
f 390 252 274
f 867 673 746
f 264 751 279
f 274 277 390
f 746 682 152
f 281 848 287
f 827 433 682
f 808 703 214
f 152 691 109
f 109 852 113
f 476 859 421
f 296 305 277
f 476 595 877
f 305 307 928
f 196 293 292
f 595 476 820
f 726 807 700
f 752 293 357
f 307 328 312
f 310 328 305
f 56 59 852
f 292 752 799
f 328 310 323
f 886 825 824
f 312 337 332
f 807 703 808
f 891 824 782
f 193 292 189
f 844 21 22
f 429 853 409
f 109 697 927
f 56 33 510
f 105 559 553
f 339 337 346
f 346 714 339
f 51 346 347
f 317 926 927
f 564 690 876
f 863 844 232
f 799 868 292
f 510 33 258
f 843 528 529
f 844 863 842
f 861 840 843
f 861 158 347
f 861 860 840
f 752 915 31
f 158 843 842
f 843 158 861
f 842 529 844
f 919 837 906
f 906 232 907
f 809 528 840
f 730 873 918
f 730 856 873
f 873 856 879
f 856 106 385
f 817 634 645
f 837 919 838
f 817 652 816
f 919 906 907
f 919 536 537
f 743 102 361
f 904 669 838
f 898 669 904
f 669 898 38
f 703 807 721
f 405 404 838
f 669 405 838
f 922 833 836
f 294 285 887
f 361 385 402
f 869 645 634
f 830 875 664
f 916 3 1
f 864 51 347
f 402 855 361
f 909 801 914
f 397 890 374
f 48 44 855
f 796 909 77
f 879 637 873
f 901 798 905
f 580 925 397
f 48 402 706
f 896 800 901
f 891 823 896
f 409 62 61
f 853 62 409
f 881 413 417
f 417 62 853
f 86 407 299
f 459 893 882
f 199 891 95
f 830 465 831
f 829 426 417
f 426 829 124
f 426 881 417
f 124 829 827
f 433 829 853
f 886 802 825
f 774 894 883
f 851 124 827
f 164 884 124
f 441 851 436
f 180 164 851
f 443 869 164
f 911 802 932
f 715 830 664
f 874 664 875
f 736 361 360
f 451 180 441
f 457 452 889
f 889 444 457
f 866 817 870
f 106 35 639
f 459 718 452
f 826 452 457
f 452 826 245
f 451 826 457
f 862 819 866
f 858 857 862
f 461 245 826
f 459 882 718
f 479 243 461
f 854 931 858
f 850 925 854
f 846 401 580
f 845 890 850
f 491 848 482
f 848 281 479
f 825 494 883
f 382 508 491
f 900 832 767
f 508 287 848
f 896 823 800
f 839 890 845
f 504 782 824
f 42 374 839
f 516 508 382
f 908 910 318
f 534 524 523
f 552 818 548
f 42 172 173
f 901 800 798
f 818 552 900
f 533 322 531
f 871 175 737
f 868 187 189
f 22 232 844
f 593 822 533
f 822 315 316
f 929 556 330
f 330 315 822
f 838 919 537
f 904 838 537
f 318 860 834
f 908 318 834
f 465 830 715
f 556 342 336
f 105 836 559
f 833 559 836
f 29 44 846
f 908 834 804
f 562 917 828
f 299 836 105
f 818 900 767
f 832 553 559
f 562 832 920
f 811 315 548
f 828 801 821
f 801 828 917
f 821 797 814
f 836 299 903
f 401 590 580
f 797 821 801
f 905 798 796
f 796 814 797
f 810 548 818
f 814 798 806
f 798 814 796
f 909 796 797
f 811 548 810
f 413 587 590
f 404 51 837
f 51 864 837
f 837 838 404
f 909 797 801
f 529 842 843
f 158 842 863
f 232 906 863
f 800 806 798
f 529 528 511
f 794 811 806
f 785 908 804
f 785 647 908
f 859 877 878
f 526 534 794
f 877 571 878
f 571 31 915
f 173 351 42
f 524 783 509
f 350 173 175
f 29 350 871
f 823 526 794
f 783 524 526
f 526 823 782
f 42 351 374
f 841 374 351
f 504 775 783
f 509 783 775
f 782 823 891
f 885 124 884
f 887 757 779
f 914 801 917
f 426 885 881
f 890 397 925
f 825 504 824
f 775 504 883
f 925 587 931
f 587 925 580
f 802 494 825
f 785 279 762
f 494 831 465
f 831 494 802
f 894 287 775
f 590 895 413
f 438 897 576
f 884 164 869
f 762 279 751
f 423 931 587
f 587 413 423
f 931 423 857
f 762 761 647
f 617 820 476
f 595 820 621
f 751 755 763
f 893 459 243
f 751 264 805
f 609 857 423
f 423 881 612
f 662 443 444
f 721 805 735
f 621 584 595
f 857 609 819
f 443 645 869
f 612 885 627
f 636 621 820
f 628 902 584
f 805 721 807
