# avbd fit, rung k100-i16-s100 of Gate 6d (body space)
v -0.024128325 0.583712101 0.003585753
v -0.120441176 0.587380052 0.084840946
v -0.022151018 0.599350035 0.012516429
v 0.000944659 0.928691566 0.074138485
v -0.169040933 0.566384733 0.059021235
v 0.000620373 0.950123310 0.075177595
v -0.021324968 0.631080925 0.014125928
v -0.022126710 0.615824342 0.004274703
v -0.165667802 0.584942937 0.049618460
v 0.140323475 0.948434711 -0.110699855
v -0.188741162 0.578740835 0.046020828
v -0.183677182 0.581954002 0.023006130
v -0.200454623 0.580349565 0.008747222
v -0.161054388 0.571894944 -0.060297765
v 0.021690872 0.572314143 -0.006220437
v -0.158263654 0.561298251 -0.078559972
v 0.046242453 0.564477205 -0.017169613
v -0.138718709 0.565868676 -0.084451519
v -0.119372800 0.580410540 -0.090332314
v 0.188265413 0.527401328 -0.009030749
v 0.002995651 0.888813615 0.072339892
v 0.003118522 0.869002938 0.069915116
v -0.126965612 0.576585889 -0.070811585
v -0.106886350 0.586648047 -0.073888533
v 0.100614384 0.824973702 -0.141993240
v -0.093535908 0.599091887 -0.088524282
v -0.136973530 0.899456978 -0.139311522
v -0.151462466 0.792270780 0.074605256
v 0.043056644 0.677245796 -0.077255093
v -0.167748064 0.804785848 0.069603011
v 0.069999672 0.860464931 -0.152592584
v -0.198201209 0.776205003 0.043437745
v 0.099474296 0.784700632 -0.116213225
v -0.184917524 0.575117648 -0.029223120
v 0.081383631 0.772158027 -0.111089811
v -0.161410064 0.904739082 -0.109863997
v -0.183402970 0.903977573 -0.066297047
v 0.015917579 0.743619978 0.021075778
v -0.176287800 0.904682338 -0.043945491
v -0.081560552 0.903182983 -0.154176384
v -0.030980786 0.873317897 0.069040194
v 0.015558618 0.631174862 -0.040719073
v -0.018755812 0.850541949 0.063085347
v 0.068223163 0.681609988 -0.090501569
v -0.044394173 0.853658676 0.058326066
v -0.181805581 0.913157761 -0.023486981
v -0.186050415 0.896042645 -0.005238180
v 0.079177894 0.707363069 -0.097471997
v -0.173445806 0.898280919 0.015272500
v -0.062978104 0.591803491 0.040882625
v 0.068674333 0.816989779 0.064917877
v -0.080487959 0.590544462 0.062233157
v -0.091141395 0.691113532 0.067539133
v 0.064689443 0.769863188 0.065609828
v -0.104936317 0.589916646 0.060115255
v 0.113145947 0.798946381 -0.133156806
v -0.112920597 0.685228944 0.084388264
v -0.183341533 0.688919127 0.062665388
v 0.113429561 0.816069424 -0.115526557
v -0.202970788 0.687142134 0.028078776
v 0.093452200 0.684842467 -0.095667489
v 0.105371676 0.672531247 -0.111807361
v -0.210099250 0.789726675 0.024030000
v -0.204794884 0.814396501 0.022477079
v -0.211749077 0.686630189 -0.040572364
v -0.190627635 0.680956423 -0.057996012
v -0.181210846 0.695949972 -0.075899757
v -0.021936696 0.601054788 -0.006344212
v 0.019311504 0.596347094 -0.007340963
v -0.166847393 0.680560708 -0.093943447
v 0.041985955 0.578616560 -0.004270508
v -0.118415952 0.696447015 -0.122292578
v 0.056141526 0.560442150 0.010290587
v -0.027469229 0.757186234 -0.086068615
v 0.069761023 0.548318744 0.028738175
v -0.102407917 0.907118618 -0.150064021
v 0.085085489 0.542582631 0.046420716
v -0.117037140 0.905168653 -0.135909006
v 0.103909634 0.541680634 0.057537179
v -0.125175416 0.884985089 -0.134117797
v 0.127005577 0.549816430 0.063446298
v -0.145188317 0.916765213 -0.127957523
v 0.117149472 0.536525607 0.068323322
v -0.181275338 0.865749836 -0.089614838
v 0.136186630 0.536175013 0.063458145
v 0.045637939 0.722803295 0.052472930
v -0.147541851 0.894238114 0.053578664
v -0.125606313 0.805334866 -0.124796905
v -0.166502118 0.620892882 0.055626124
v 0.154253766 0.543107450 0.051700789
v -0.140850514 0.814351201 -0.108798623
v -0.022096487 0.806560159 0.035997212
v 0.151981086 0.530595660 0.063927904
v -0.042765211 0.805999279 0.053473461
v 0.161766738 0.527624726 0.049371079
v -0.027039941 0.828693569 0.051266987
v 0.177965507 0.527736068 0.041859984
v -0.018310705 0.894478917 0.070351660
v 0.180509895 0.529145956 0.024288269
v -0.065958716 0.920703590 -0.152580082
v 0.189091489 0.527784228 0.008663529
v 0.025772775 0.759815037 -0.081856050
v -0.094751611 0.884845614 -0.155397281
v -0.122677550 0.638372719 0.087142862
v 0.040680908 0.700390697 0.039611712
v 0.060640223 0.775043845 -0.105512187
v -0.121770680 0.865074337 -0.141967982
v -0.150195867 0.617131114 0.067456901
v 0.126503780 0.761510730 -0.110358320
v -0.132919520 0.851140022 -0.127345502
v 0.133786634 0.826441884 -0.118250467
v 0.142330781 0.802062988 -0.116082683
v 0.143568337 0.774128854 -0.114880785
v -0.173098430 0.642800868 0.056002222
v -0.144727752 0.839273751 -0.110711992
v 0.205208108 0.528687298 -0.013121595
v 0.195289373 0.526879191 -0.026323676
v -0.199520901 0.630798101 0.027957629
v 0.151469082 0.824145913 -0.106630839
v -0.164379448 0.850942314 -0.100739934
v -0.188255176 0.847574353 -0.069414005
v -0.197014377 0.863623798 -0.055643242
v -0.065368965 0.852139652 -0.148793072
v 0.160357773 0.664383352 -0.096715502
v -0.181773931 0.841168761 0.047805611
v -0.196884677 0.837397099 0.023340775
v -0.132924855 0.831308961 0.075334497
v -0.141685948 0.847119927 0.060277510
v 0.192368984 0.527142644 -0.042984970
v -0.025727281 0.842884719 -0.139287576
v 0.185529813 0.530235708 -0.059325296
v -0.047822237 0.836341023 -0.140902132
v 0.170533508 0.533666909 -0.076863296
v -0.035482708 0.687988877 -0.077178530
v 0.187381297 0.520701647 -0.074280120
v -0.110337593 0.898744464 0.053347874
v 0.175907239 0.522297442 -0.088389941
v -0.093452245 0.898946106 0.070720866
v 0.155897141 0.523514867 -0.091985144
v -0.028266102 0.825963140 -0.123858407
v 0.137666062 0.526175022 -0.099614508
v 0.166142300 0.807997227 -0.101022467
v -0.030938204 0.808660984 -0.107655302
v 0.137634173 0.532358885 -0.083667792
v -0.052362002 0.819063187 -0.123560466
v -0.184322163 0.809459507 -0.095578447
v 0.118066028 0.525469780 -0.083717503
v -0.154100895 0.915407479 0.043405704
v 0.099713385 0.529593885 -0.083464213
v -0.036622338 0.721918046 -0.087948874
v 0.113477528 0.542445362 -0.080975659
v 0.144060239 0.751178980 -0.104891583
v 0.092079297 0.540198147 -0.069594949
v -0.114274576 0.758201480 -0.113744959
v 0.073634654 0.545753121 -0.055173613
v -0.081747696 0.658348918 -0.088702813
v 0.060746074 0.553004086 -0.035719637
v 0.062880263 0.861765265 0.057248451
v -0.188667670 0.769185245 -0.085024938
v -0.205350012 0.583309770 -0.020672513
v 0.159196809 0.783868372 -0.102422073
v -0.213944286 0.787898839 -0.037585460
v -0.216270596 0.743044615 -0.027957115
v 0.155996919 0.652959228 -0.074771553
v -0.209873050 0.728167355 -0.047795717
v -0.023242144 0.600139022 -0.030393790
v 0.022626046 0.585761487 -0.024785200
v -0.023637740 0.583240867 -0.019480480
v -0.021651860 0.619231761 -0.036978628
v 0.175792590 0.834392846 -0.106270060
v -0.194871709 0.735928714 -0.062150430
v -0.019472728 0.638272405 -0.043000974
v -0.018898003 0.657627881 -0.049408000
v -0.213884443 0.723556280 -0.006980066
v -0.017493550 0.677933395 -0.054335546
v 0.179454327 0.789662242 -0.096910842
v -0.172074571 0.733941317 -0.093878791
v -0.129975870 0.549089551 -0.074525975
v -0.213710934 0.733958602 0.022254961
v 0.179607198 0.670411229 -0.079631336
v -0.204817563 0.710884929 0.030949082
v -0.098380603 0.740962625 -0.117636003
v -0.088268586 0.725601375 -0.103551209
v 0.189585924 0.810759723 -0.091274060
v -0.055706702 0.800837159 -0.104499221
v -0.005692788 0.819782734 -0.105859995
v -0.005596002 0.834970176 -0.118377328
v -0.110541783 0.876661003 0.070305981
v -0.005275786 0.848997593 -0.130839631
v -0.124523595 0.862816453 0.057345562
v 0.194240838 0.780833185 -0.082697466
v -0.119908318 0.852084339 0.076333039
v -0.004826177 0.867453456 -0.133770198
v -0.126509398 0.883093178 0.045780808
v -0.166691869 0.721584737 0.069145702
v -0.008984426 0.883911729 -0.143759966
v -0.114192009 0.918435216 0.044131167
v 0.187919602 0.836056590 -0.075321987
v 0.170302451 0.551429033 0.039064765
v -0.008877290 0.903623283 -0.137329668
v -0.132113799 0.906865418 0.039325342
v -0.009249814 0.924386501 -0.144896463
v -0.164544150 0.856865287 0.061364405
v 0.198221937 0.769994557 -0.060658783
v -0.163486600 0.879804432 0.046582032
v -0.217084244 0.779134512 0.002305324
v 0.001408369 0.918052375 -0.131280228
v -0.142484412 0.915658176 0.025917809
v -0.150104180 0.893536091 0.026652772
v -0.161603734 0.920919597 0.017333837
v -0.144666255 0.715255320 0.074324504
v 0.036974110 0.952716827 0.074462689
v 0.018437456 0.951668262 0.075364992
v 0.201446697 0.855057359 -0.054983012
v 0.002493718 0.908914924 0.072389327
v -0.167270020 0.915801644 -0.005459073
v 0.208226964 0.822814167 -0.053482611
v -0.177199632 0.928399444 -0.038441088
v -0.171142980 0.925476909 -0.056971420
v -0.088608734 0.628080130 -0.090799324
v 0.055487234 0.952840209 0.070819430
v 0.203942060 0.838186920 -0.032875098
v 0.214853883 0.787803829 -0.045225203
v -0.173386008 0.925722420 -0.078655608
v -0.145192251 0.924163699 -0.109015211
v -0.127649337 0.924159527 -0.139705315
v -0.153475374 0.862209797 -0.119795322
v -0.123846255 0.631549478 -0.080702819
v 0.085478589 0.942282975 0.072084613
v 0.071431793 0.948992729 0.062775522
v -0.100296363 0.864901245 -0.143655896
v 0.002590291 0.850403428 0.062616527
v -0.112105571 0.885576844 -0.147229493
v 0.209750980 0.810400307 -0.028322568
v -0.123606920 0.609454989 -0.096226767
v 0.093985513 0.939665616 0.056283873
v -0.038397931 0.688352704 0.033688031
v -0.051071644 0.574261069 0.025136400
v 0.203205466 0.850516617 -0.013821985
v -0.206218526 0.839689374 -0.045404859
v -0.054832488 0.629167020 0.043201342
v 0.110815659 0.939082444 0.050627489
v 0.207343668 0.675555944 -0.009969124
v -0.075022779 0.568183899 0.047422785
v 0.211376578 0.674102485 -0.030557815
v 0.208340973 0.827356637 -0.008757519
v 0.214161903 0.783625662 -0.016406553
v -0.072067365 0.642508745 0.056288142
v -0.098932803 0.569576144 0.070763305
v -0.129046828 0.574809134 0.063983783
v -0.112642705 0.629493952 0.068882003
v 0.210597724 0.813827038 0.017754275
v -0.114766635 0.607770264 0.067643173
v 0.213556856 0.804419398 -0.005142083
v -0.056703560 0.830306053 0.057476025
v 0.104830183 0.852188110 0.079776898
v -0.123891018 0.614634156 0.086284086
v 0.076856039 0.793398738 -0.110702679
v -0.131578416 0.561334908 0.083550803
v -0.194241956 0.636166215 -0.057536490
v -0.132566109 0.627375007 0.070233002
v -0.150886327 0.583308816 0.070769116
v 0.066780806 0.811567307 -0.117371023
v 0.171256706 0.873169243 0.028754205
v -0.135583133 0.602766573 0.068236873
v -0.185424164 0.618257225 -0.043581851
v -0.149348140 0.562711000 0.057812147
v 0.216824129 0.786042929 0.009597546
v 0.212656096 0.765967727 0.022202797
v -0.145195782 0.871209025 0.057699628
v -0.154887646 0.601670861 0.055874430
v -0.183964938 0.552520812 0.049343411
v 0.194676131 0.833282948 0.028013995
v 0.194372952 0.807375789 0.040325858
v -0.189527407 0.623907208 0.052997846
v -0.179841712 0.600900233 0.057706542
v 0.193554103 0.782882452 0.054801367
v -0.175405741 0.558800042 0.031286903
v 0.155799568 0.881203532 0.049603112
v -0.183920532 0.605665863 0.034630828
v 0.212095052 0.668683231 0.011771696
v -0.048365079 0.947809815 0.073262751
v -0.201679155 0.603297949 0.018150551
v -0.023170514 0.915135026 0.083920881
v 0.182610750 0.826613247 0.049237557
v -0.171420917 0.860962212 0.040510334
v 0.196953416 0.662588596 0.029585283
v -0.169382676 0.875980079 0.023808071
v -0.192026168 0.596744895 -0.003862088
v 0.189675167 0.760359406 0.065269381
v -0.185602233 0.857879937 0.024528315
v 0.017759206 0.860366464 -0.146285877
v 0.018416397 0.885034204 -0.139454976
v 0.171053886 0.823729515 0.067680255
v -0.028753325 0.924200892 -0.137860149
v 0.182703063 0.803741574 0.064775810
v -0.196322620 0.622722507 0.001608746
v -0.023169525 0.907701313 -0.155417278
v 0.026271245 0.722943366 0.030545969
v -0.042480402 0.611048043 -0.044897716
v -0.043568697 0.906146884 -0.145252481
v 0.150247112 0.833478928 0.067725517
v -0.043692060 0.926575840 -0.154459491
v -0.190244153 0.878571510 0.012349014
v 0.169946730 0.778913915 0.073112614
v -0.203841805 0.856459796 0.007987680
v 0.149860114 0.759036362 0.073919520
v -0.193907291 0.864378333 -0.033287577
v -0.203590110 0.847277343 -0.016553519
v 0.156221166 0.807514548 0.071801856
v -0.194860935 0.871849239 -0.010609261
v 0.131413981 0.770232558 0.086845301
v -0.202144831 0.556274056 -0.028290009
v -0.207764536 0.608682513 -0.014381394
v 0.113115571 0.661773086 0.083286181
v 0.134941936 0.659823716 0.076820329
v 0.106185578 0.731139064 -0.126164913
v 0.096134633 0.910011768 0.066627458
v -0.042717014 0.631586194 0.021172635
v 0.129615843 0.941694915 0.046719104
v -0.190156430 0.885146141 -0.049272418
v 0.142595217 0.681621671 0.074810848
v 0.127070397 0.821992218 0.078150965
v -0.201145768 0.620576262 -0.029435286
v -0.179322630 0.876501858 -0.067581408
v 0.139786452 0.925483584 0.042198397
v -0.165993586 0.878347576 -0.106586874
v 0.141479760 0.788413167 0.075478233
v -0.074117154 0.789832115 -0.112092219
v 0.102658153 0.686120033 0.075042233
v -0.178850427 0.549630165 -0.035936508
v 0.108596221 0.772866130 0.084411643
v -0.193076417 0.599492133 -0.030163135
v -0.187807605 0.610743165 -0.065131620
v -0.168107361 0.549069524 -0.056309868
v 0.078286111 0.682556331 0.064887762
v 0.118408918 0.796445489 0.087794915
v -0.075914547 0.748809218 -0.103452206
v 0.097799048 0.791720271 0.080070622
v -0.180763587 0.568091273 -0.050495826
v -0.172540158 0.631119192 -0.064888068
v 0.061466187 0.701490283 0.058855515
v -0.089165792 0.768538177 -0.117786899
v -0.178006053 0.555846572 -0.073061518
v 0.016869286 0.821250141 -0.113219127
v 0.095114678 0.819767118 0.084413007
v 0.077424943 0.842881858 0.072155662
v -0.165862173 0.602604389 -0.062806092
v 0.123027898 0.925880313 0.046038888
v 0.021497052 0.668982327 -0.056621391
v 0.025776062 0.647830307 -0.050833505
v -0.154595524 0.540307581 -0.068595029
v 0.137163311 0.938390851 0.031048944
v -0.134219080 0.756152868 -0.125673890
v 0.149283260 0.940196693 0.018265205
v -0.146824509 0.610635400 -0.070832565
v 0.041454159 0.891377628 -0.151203662
v -0.161452562 0.589824080 -0.080524348
v 0.156902671 0.942723572 0.002340280
v 0.032397993 0.703653514 -0.077843927
v 0.034138665 0.730290532 -0.086888343
v -0.132256955 0.737223744 -0.104683898
v 0.170805216 0.947837353 -0.008049056
v -0.138772368 0.760888219 -0.104448602
v -0.106318474 0.926420510 -0.134629160
v -0.045079131 0.900205433 0.073211402
v 0.165989295 0.945991337 -0.024751008
v -0.144347101 0.540722072 -0.089253828
v -0.154603109 0.746938825 -0.101926044
v -0.145505637 0.583502293 -0.069308393
v -0.147026435 0.888781369 -0.120043635
v 0.177995190 0.944952369 -0.036540307
v -0.172547713 0.758772373 -0.094937101
v 0.041850958 0.624537766 -0.055604719
v -0.118981816 0.553395391 -0.095312215
v -0.188342080 0.746066928 -0.081806906
v 0.165871307 0.943047404 -0.048939597
v -0.140741736 0.873385608 -0.134828851
v 0.169014901 0.948014140 -0.065973826
v -0.196509749 0.765491605 -0.064070277
v -0.142176360 0.593886971 -0.086719438
v 0.195952564 0.706743002 0.058129720
v 0.158879608 0.948272049 -0.080852561
v -0.209556103 0.748575866 -0.052272320
v 0.047466855 0.753548920 -0.098370932
v -0.110074833 0.558701158 -0.070328929
v -0.046067581 0.585605264 -0.036999676
v 0.153103471 0.949118137 -0.098022319
v -0.214906260 0.768001199 -0.045327485
v 0.205067724 0.786183834 0.031948689
v -0.036339708 0.668323398 0.024699783
v 0.124962613 0.945885301 -0.119497314
v 0.201615572 0.756894469 0.042989530
v -0.074403025 0.764419913 0.068657160
v -0.127097398 0.602326393 -0.074804723
v -0.098850891 0.567512214 -0.089138970
v 0.065680265 0.624670684 -0.071698382
v -0.106637456 0.615484953 -0.083114304
v -0.087357923 0.592016935 -0.068991527
v -0.085278176 0.565516293 -0.064642474
v 0.082434699 0.660125315 -0.092516139
v 0.062119853 0.729557633 -0.098592013
v -0.200075269 0.725656033 0.048736814
v 0.052009858 0.791659713 0.061503880
v 0.040088240 0.768052876 0.053517003
v -0.201485187 0.751076043 0.046125453
v 0.035308283 0.744940698 0.041112579
v -0.033836760 0.781995118 -0.098152295
v 0.100004837 0.702762306 -0.117376886
v -0.189411476 0.765790462 0.066349946
v -0.078970820 0.638276875 -0.076524660
v -0.087618791 0.616062105 -0.074904248
v 0.105120525 0.638215303 -0.101455234
v -0.184413418 0.739719152 0.067992240
v -0.061082888 0.593646705 -0.060539812
v 0.114474133 0.934475780 -0.131669283
v 0.121411264 0.664224863 -0.097078949
v -0.067495994 0.618899226 -0.071745120
v -0.163383096 0.757881761 0.071830899
v -0.057176121 0.656572461 -0.077759333
v 0.111533895 0.953215301 -0.127139971
v -0.044817366 0.628847003 -0.062896930
v 0.112196043 0.607063830 -0.091957524
v -0.188258916 0.571861744 -0.007727967
v -0.194498956 0.555431902 0.015752669
v 0.137790889 0.659023821 -0.086014360
v -0.152618319 0.736922681 0.074626967
v -0.136014268 0.752588391 0.080629893
v 0.116669402 0.718292475 -0.107898071
v -0.079668522 0.832235992 0.074338213
v -0.064959653 0.948741078 0.067499816
v -0.126931980 0.728042781 0.090414718
v 0.137174949 0.709960341 -0.096342862
v -0.112659574 0.750609994 0.088395104
v -0.092072658 0.810988247 0.081249312
v 0.160183802 0.713846803 -0.084787033
v -0.101564944 0.731601059 0.076225020
v 0.115228154 0.870376945 -0.142359003
v -0.082567155 0.788035989 0.072593860
v -0.106839076 0.791558862 0.086740777
v 0.179920688 0.698764920 -0.083993793
v -0.098914422 0.770757854 0.080504552
v 0.166066125 0.627063334 -0.068114176
v 0.181281537 0.643660188 -0.072015539
v -0.093526468 0.751605272 0.074703857
v -0.075421907 0.739130616 0.068517499
v -0.122458696 0.771949410 0.087267615
v -0.031830527 0.759694695 0.039554588
v -0.130537480 0.791820765 0.079652317
v -0.118870996 0.812027276 0.081178471
v 0.187988371 0.691987157 -0.063078783
v 0.201046541 0.656199038 -0.041804567
v -0.068591274 0.808203578 0.064905234
v -0.145513192 0.773419738 0.077828839
v -0.053650893 0.668256640 0.050270461
v -0.143693537 0.811061740 0.073099218
v 0.187166169 0.664455295 -0.057884954
v -0.161717132 0.830567479 0.068334185
v 0.208814234 0.652928412 -0.021951361
v -0.189154074 0.791579247 0.063564301
v 0.214995697 0.702024102 -0.025896031
v -0.169153988 0.780438602 0.071155258
v -0.070525780 0.853522301 0.064410210
v -0.184156030 0.816684544 0.058829885
v 0.201908201 0.607240438 -0.018019598
v -0.070745453 0.898988426 0.061816670
v -0.009322839 0.790731013 -0.075641118
v -0.062753722 0.923093975 0.064335354
v -0.190066025 0.821443439 0.037725955
v -0.212232441 0.762991428 0.023739491
v -0.044393662 0.926795483 0.073930338
v -0.007228301 0.807851791 -0.089130268
v -0.100013793 0.946204484 0.060959972
v -0.216787308 0.751383841 -0.000827421
v 0.077952191 0.839845836 -0.147673637
v 0.119690299 0.915528417 -0.132900327
v -0.211161345 0.831806004 0.004106283
v -0.082293823 0.948394179 0.063435063
v 0.212978199 0.697804570 0.001495962
v 0.092949264 0.951192498 -0.131440133
v -0.182003081 0.886874020 -0.027562145
v 0.213418886 0.715190828 0.019843591
v -0.214748591 0.769855499 -0.020640386
v -0.213359311 0.796513975 -0.018374393
v -0.207822040 0.821934223 -0.019704368
v 0.075554147 0.950769126 -0.137655437
v 0.216424465 0.759796262 0.000488036
v 0.078671686 0.933279693 -0.141299471
v -0.095591880 0.854355454 0.069169141
v -0.026552519 0.888079286 -0.141430408
v 0.201793551 0.704405546 0.037352346
v 0.058793962 0.943675041 -0.138641968
v 0.061224330 0.921844304 -0.142625958
v 0.193434387 0.598222375 0.006378825
v -0.084664598 0.923022270 0.070085570
v -0.024251604 0.865384698 -0.144873902
v -0.206075385 0.791091561 -0.058529675
v -0.167670995 0.895854950 -0.085901350
v -0.106066443 0.832427204 0.076971486
v 0.038494833 0.947411537 -0.134805903
v -0.192446321 0.791051269 -0.078221954
v 0.018453393 0.942951024 -0.135634929
v -0.160354763 0.798805118 -0.106043562
v 0.181676656 0.607147872 0.036238179
v -0.178297490 0.783906937 -0.098285243
v 0.019928783 0.927207947 -0.134347424
v 0.001041741 0.939737499 -0.130474210
v 0.198875040 0.681774020 0.046503577
v 0.194430053 0.654783964 0.053617366
v 0.090724364 0.811730087 -0.120344460
v 0.022822391 0.917135060 0.075348586
v -0.165294379 0.824855030 -0.105801560
v -0.157307968 0.773083329 -0.105891764
v -0.162075624 0.924905896 -0.097475648
v 0.069844462 0.825814903 -0.132711515
v 0.179737911 0.680123270 0.062953606
v -0.134598732 0.785967708 -0.110251307
v -0.072403759 0.543093801 -0.055402856
v -0.105913877 0.797903001 -0.130942285
v -0.089957006 0.540437043 -0.068520173
v -0.108973160 0.539708972 -0.075119749
v -0.120171644 0.778309464 -0.131403506
v 0.157094985 0.666015983 0.068278953
v 0.171223670 0.646119475 0.060049046
v -0.125012025 0.535777450 -0.088253245
v 0.163301557 0.617891967 0.053852923
v -0.111596920 0.845347703 -0.134313494
v 0.046513010 0.911319137 0.068126902
v 0.032238211 0.892727077 0.072261199
v -0.107366130 0.526153803 -0.086763732
v 0.159987226 0.695144236 0.071322724
v -0.110273398 0.821250558 -0.142951310
v 0.140314177 0.702345490 0.076747984
v 0.147000194 0.638910234 0.065367460
v -0.123279095 0.518790424 -0.090025231
v 0.001710338 0.817730069 0.040047161
v 0.000823433 0.802763104 0.026811212
v -0.104792714 0.813834846 -0.116450951
v -0.127437919 0.524259746 -0.105807617
v -0.085175246 0.862745643 -0.160364509
v -0.110313080 0.785556912 -0.114492856
v -0.143507481 0.520395577 -0.100231253
v -0.160578176 0.520685077 -0.092348918
v -0.175552934 0.521978319 -0.082664855
v -0.052217603 0.780573130 0.060954820
v -0.026555534 0.784176648 0.040944070
v 0.095070258 0.666614711 0.070430174
v 0.100206755 0.644301116 0.069804773
v -0.188615710 0.526430190 -0.070483282
v -0.173492938 0.536317229 -0.072447345
v -0.037666224 0.711484373 0.038274802
v 0.076775797 0.658388555 0.062290438
v 0.053309273 0.675922632 0.050814949
v -0.183267176 0.534653127 -0.055447869
v -0.084449664 0.848634899 -0.142711252
v 0.085672058 0.705147326 0.070264429
v -0.190540820 0.527134180 -0.040820103
v -0.059826702 0.694820285 0.059463024
v 0.033861510 0.678807139 0.026244957
v -0.046775475 0.648922145 0.035880383
v -0.100835636 0.842533469 -0.153884858
v 0.029950013 0.628583491 0.022214236
v -0.076670587 0.668897212 0.066819623
v 0.078095645 0.748405099 0.069927543
v -0.051047217 0.612108827 0.031894304
v -0.070328057 0.613214314 0.052813966
v -0.061332352 0.871712685 -0.160640031
v -0.076485179 0.880961537 -0.150146350
v -0.081373490 0.714789569 0.069105908
v -0.061116926 0.893532455 -0.149570793
v 0.092065908 0.876662254 -0.153508052
v -0.204504460 0.526265562 -0.030756166
v 0.092584342 0.728118658 0.074898615
v -0.090924367 0.616726220 0.069524460
v -0.108512044 0.708590746 0.078397498
v 0.098323420 0.851895690 -0.148648620
v -0.092891768 0.645913005 0.072730407
v -0.103291586 0.669140458 0.068583794
v -0.084617265 0.876524150 0.059426617
v 0.080483034 0.630466521 -0.091384396
v -0.058315020 0.876033664 0.069729954
v 0.113559410 0.732617617 0.083912604
v -0.114489220 0.650068879 0.071466342
v 0.137949079 0.865203083 -0.130580634
v -0.194413975 0.527182460 -0.017954379
v -0.035065986 0.735509813 0.038539510
v 0.094428629 0.616760612 -0.075934358
v -0.185757339 0.529065788 0.015576993
v -0.138890341 0.674654841 0.080052823
v 0.094242409 0.643286288 -0.083117411
v -0.181708038 0.532187581 0.032150988
v -0.119681954 0.662057102 0.087924257
v 0.129571989 0.717229426 0.087815218
v 0.135623008 0.742413402 0.085871413
v 0.129573688 0.890153527 -0.135485917
v -0.167029530 0.534922481 0.041907851
v -0.131072566 0.700630009 0.088692106
v -0.163400918 0.551097333 0.048942104
v -0.135576904 0.650798202 0.073168449
v -0.162401795 0.534822822 0.059152506
v -0.148715839 0.542147398 0.051297646
v -0.145510465 0.694419205 0.072662286
v -0.156378075 0.658400178 0.066182494
v -0.139746398 0.538574994 0.064949207
v 0.151598677 0.725918055 0.073759988
v -0.160938874 0.680290520 0.065752849
v -0.133479878 0.554041743 0.060405500
v -0.115260243 0.543712974 0.057596803
v 0.129824668 0.597406447 -0.075827718
v -0.165014625 0.701553226 0.068528160
v 0.193912402 0.734943271 0.062231194
v 0.130861834 0.619019508 -0.079460129
v 0.153873891 0.924668431 -0.110235274
v -0.123819634 0.546211839 0.073270410
v -0.154015750 0.636623442 0.068258710
v -0.112783335 0.561444640 0.059289865
v 0.133817628 0.932654738 -0.135233328
v -0.095116943 0.548252463 0.052450873
v -0.076190323 0.547035217 0.040026754
v 0.202394173 0.728264749 0.039878651
v 0.151988938 0.885212123 -0.128443375
v -0.064078830 0.551228166 0.021487353
v -0.050725978 0.559662938 0.004010693
v -0.186067224 0.713064611 0.064299069
v -0.047824033 0.581210554 0.006800883
v -0.179263398 0.665439665 0.060415484
v 0.148307383 0.607424259 -0.084596246
v 0.162974551 0.861419022 -0.119015537
v 0.214330956 0.741551280 0.020599101
v -0.199671656 0.699913859 0.049885936
v -0.196018144 0.648987055 0.050226312
v -0.198432386 0.674833119 0.049151130
v -0.048601653 0.749531329 -0.100865737
v 0.171624035 0.603705168 -0.077487960
v 0.215186313 0.757380128 -0.023737296
v 0.145882383 0.902379811 -0.115044221
v 0.011885936 0.807868481 -0.092275761
v -0.062043071 0.772974014 -0.103687309
v 0.072643079 0.751791418 -0.105789080
v -0.055158727 0.723602533 0.058750827
v 0.214597732 0.728963017 -0.006540213
v -0.199024200 0.660645306 0.027188037
v -0.215659067 0.703894973 0.011456730
v -0.195509836 0.800344348 0.041534968
v 0.153566197 0.598144472 -0.066872232
v -0.205014423 0.648814321 0.005048755
v 0.125421628 0.911155879 0.062068693
v 0.216133028 0.731385112 -0.035299234
v -0.212089702 0.675924480 0.006921259
v -0.210949615 0.694205880 -0.013668416
v -0.216598108 0.712652802 -0.032097269
v 0.172307312 0.591139197 -0.054972518
v 0.203993276 0.711479306 -0.049853887
v -0.210646272 0.635493159 -0.015414347
v -0.215542436 0.806032777 0.003064615
v 0.157828793 0.880057156 -0.106206276
v -0.030695369 0.945313752 0.071664266
v 0.200884014 0.739479482 -0.056379758
v 0.192155644 0.748846829 -0.080169037
v -0.094818249 0.831728637 -0.132310838
v -0.070754766 0.830339432 -0.139941365
v 0.180740759 0.616131186 -0.061625190
v -0.210607082 0.664598823 -0.020322178
v 0.187884659 0.574796438 -0.051422216
v 0.189530358 0.719486535 -0.068030193
v -0.016225332 0.943381786 -0.134933457
v -0.036187656 0.945691228 -0.139346123
v 0.171410084 0.858638167 -0.093454070
v 0.022614291 0.765915751 0.030373123
v -0.048753217 0.931868672 -0.138310701
v -0.052062847 0.750659108 0.059274256
v 0.180497125 0.724379599 -0.087227687
v 0.166112661 0.742093563 -0.087894782
v -0.060454510 0.945570350 -0.139796808
v 0.174390733 0.885995865 -0.092155337
v -0.197004229 0.642047048 -0.034175798
v -0.078295298 0.947863936 -0.136127338
v -0.088651113 0.926717937 -0.147234738
v -0.211109132 0.811575413 -0.043285832
v -0.095729515 0.949483573 -0.131703153
v -0.113084771 0.950096607 -0.129802018
v 0.156229660 0.727564812 -0.106170729
v -0.197091192 0.707679749 -0.055716895
v -0.196692184 0.818569362 -0.068859853
v -0.185559362 0.836607754 -0.092241615
v -0.202350065 0.661476731 -0.048355695
v 0.182453513 0.868959904 -0.071789920
v 0.165441796 0.926647961 -0.077092476
v -0.180662543 0.592899263 -0.047298044
v 0.055078398 0.746351600 0.059513140
v 0.132307768 0.733997703 -0.106855229
v -0.077483192 0.812232316 -0.124108158
v -0.185575813 0.720861256 -0.078323409
v 0.179716453 0.920252025 -0.063086599
v -0.092308201 0.794529796 -0.116772093
v -0.179531306 0.584219098 -0.069192842
v 0.113037787 0.745015144 -0.111008331
v -0.181176513 0.655441582 -0.061996926
v -0.169894367 0.648884177 -0.088552035
v 0.181840420 0.915740788 -0.042273242
v -0.175551280 0.672524095 -0.075165391
v -0.170004711 0.708178401 -0.094510861
v 0.192155331 0.866116405 -0.031004205
v -0.166158706 0.617394090 -0.084126540
v -0.035136160 0.657194257 -0.064718388
v 0.088694423 0.729818583 -0.107883200
v -0.129031092 0.949821115 -0.124107480
v -0.120765373 0.935192704 -0.125668943
v -0.150591582 0.722985923 -0.093559816
v -0.150774658 0.696518302 -0.086023211
v -0.153134972 0.668089986 -0.079115696
v -0.151784599 0.638367057 -0.074477896
v -0.120854452 0.829959512 -0.117566250
v 0.076613933 0.793723583 0.071932010
v 0.195935667 0.605066478 -0.045824308
v -0.150028631 0.947817624 -0.101089261
v -0.157912150 0.949631572 -0.084452420
v 0.203821138 0.630186021 -0.034894511
v -0.026850972 0.569233060 -0.007086952
v -0.164041877 0.949969292 -0.067437671
v 0.196528420 0.872134864 -0.004817833
v -0.168228149 0.948699951 -0.050078928
v -0.169032156 0.945616722 -0.033004314
v -0.176699564 0.946229935 -0.018036148
v 0.213919252 0.757198513 -0.046843447
v 0.170768470 0.921472371 -0.026898999
v -0.162334904 0.943993449 -0.008660694
v -0.155913144 0.943334103 0.008070057
v -0.144704223 0.940064728 0.021559488
v 0.054102264 0.799619913 -0.104208946
v -0.142135099 0.929803550 0.035714194
v 0.181763619 0.919404805 -0.009591268
v -0.131376430 0.924155831 0.048131797
v -0.143586412 0.622978628 -0.090711601
v 0.191753536 0.862654686 0.019411918
v 0.016394608 0.716647327 -0.063705713
v -0.016171698 0.699238360 -0.057695638
v -0.014871078 0.721179724 -0.061403520
v 0.135291502 0.924590766 -0.117868960
v -0.143546760 0.651873827 -0.095417254
v -0.014110145 0.743550658 -0.064842731
v -0.132188767 0.709059417 -0.102637254
v 0.013725494 0.741675973 -0.067395508
v -0.013886383 0.766616881 -0.069309399
v -0.134282917 0.944227338 0.036486953
v 0.163476497 0.758491695 -0.105692886
v 0.164087862 0.914816201 0.002372737
v -0.122983716 0.637621462 -0.104687572
v -0.123229861 0.939512134 0.047991090
v -0.106455788 0.939225495 0.045870867
v 0.156912044 0.894990325 0.023346931
v 0.043788347 0.868679643 -0.145982951
v -0.139798373 0.680227458 -0.100194313
v -0.122450665 0.728444695 -0.126465827
v 0.153396934 0.921003997 0.020215081
v -0.117654301 0.666633070 -0.113234445
v 0.180187806 0.849648118 0.038232312
v -0.121320032 0.660336673 -0.089440152
v -0.010863752 0.742386520 0.015952818
v -0.105387844 0.921141326 0.062207084
v 0.124789789 0.907732308 0.040701915
v 0.134480059 0.890230536 0.043618582
v 0.143666759 0.909512162 0.034405272
v -0.102726124 0.644200027 -0.094505310
v -0.116900049 0.689136207 -0.098279931
v -0.096387118 0.672458589 -0.102129459
v 0.052813541 0.635541797 0.040049098
v -0.109344646 0.716379583 -0.107229851
v 0.046896733 0.911880016 -0.156239420
v -0.089085601 0.700391173 -0.104546607
v 0.020807885 0.908147335 -0.144210055
v -0.045608412 0.860827625 -0.146214560
v -0.040261947 0.884546638 -0.159237057
v 0.196964651 0.624313593 0.004342162
v 0.188827112 0.635639608 0.033770900
v -0.064491287 0.689273596 -0.090929709
v -0.064151697 0.721334815 -0.101136014
v -0.139621884 0.940568924 -0.113897599
v 0.167813629 0.862547040 0.049493462
v 0.152270779 0.859161496 0.065023080
v -0.186408848 0.548486769 -0.010048770
v 0.179273054 0.594230056 0.058889102
v 0.189003661 0.624391794 0.057167411
v -0.191457540 0.529883742 -0.001459250
v 0.133713424 0.879832149 0.067914687
v -0.060987663 0.567415476 -0.050120085
v -0.061774265 0.551546633 -0.035913479
v 0.015283056 0.611701667 0.004356310
v -0.048642851 0.561057448 -0.017867997
v -0.017804515 0.932551205 0.071786441
v 0.064698443 0.901963532 -0.151006386
v -0.016018597 0.947603703 0.081917480
v -0.047882367 0.598112583 0.017056203
v 0.150006190 0.614232898 0.077452525
v 0.039601825 0.933350444 0.072291121
v 0.095395468 0.567266822 0.062754445
v 0.083267741 0.585187554 0.054812081
v 0.120436355 0.581700206 0.068175077
v 0.046769857 0.840885997 -0.146092907
v 0.140875429 0.586271882 0.079417393
v 0.063119799 0.590971828 0.040910073
v 0.188744664 0.571997464 0.009321723
v 0.129681870 0.848123670 0.062609896
v 0.114378236 0.867837787 0.056574993
v 0.184891224 0.893357933 0.010081202
v 0.125427246 0.606752932 0.070450045
v 0.179070145 0.892485499 -0.022395823
v 0.189821571 0.888049901 -0.051505506
v 0.059996247 0.929830372 0.075229943
v 0.101726487 0.619725108 0.069561757
v 0.125246495 0.633199215 0.084018037
v 0.171967924 0.897561669 -0.072157525
v 0.167775899 0.914413571 -0.093346618
v 0.101515092 0.594923198 0.067353323
v 0.163220316 0.901460528 -0.106686875
v 0.161624745 0.564385593 -0.059933364
v 0.177930459 0.575138211 -0.075853810
v 0.075953908 0.632219195 0.058801986
v 0.146709427 0.576985240 -0.072361887
v 0.142204911 0.909429073 -0.134609178
v 0.079871856 0.607098520 0.057538621
v 0.124349117 0.687170327 0.087452404
v 0.153108656 0.590937912 0.056993097
v 0.176103860 0.578027070 0.037851807
v 0.196930945 0.586620688 0.028275857
v 0.202228457 0.684191704 -0.046697542
v 0.157400638 0.695986867 -0.101632059
v 0.055953927 0.613668561 0.041914597
v 0.138180882 0.683233380 -0.089929953
v 0.187448874 0.586238146 -0.028749358
v 0.200081423 0.579828858 -0.009890458
v 0.041685339 0.655050635 0.029810756
v 0.011458718 0.681875348 0.009767097
v 0.093162656 0.877125740 0.058354665
v 0.075181484 0.921212554 0.062008310
v 0.019147271 0.703041255 0.018618468
v 0.043184157 0.813626587 0.053204607
v 0.027050266 0.790818810 0.042105667
v 0.028109338 0.605969727 -0.039735518
v 0.066254243 0.904778779 0.076976523
v 0.043618374 0.648679435 -0.068212830
v 0.043796919 0.872783184 0.068570696
v 0.057524346 0.888243318 0.062632293
v 0.022402713 0.871176720 0.069091432
v 0.050247293 0.579121709 -0.042783204
v 0.064782642 0.654065132 -0.079947017
v 0.087255009 0.771147370 0.075386912
v 0.207249016 0.687903583 0.024476120
v 0.196240470 0.801627338 -0.065952502
v 0.077982858 0.570864558 -0.064474329
v 0.158687398 0.684289813 -0.078373827
v 0.123082265 0.786489189 -0.114295520
v 0.119607806 0.691483080 -0.103047684
v 0.100772582 0.565219343 -0.091156319
v 0.053235471 0.705172181 -0.090480193
v 0.037688930 0.779290378 -0.098489679
v 0.120058633 0.578351974 -0.084450886
v 0.105782367 0.557410598 -0.067155167
v 0.099945262 0.923288822 -0.143079549
v 0.077252820 0.895518482 0.061055444
v 0.075524010 0.873356819 0.077515945
v 0.129255727 0.553594530 -0.089953251
v 0.036385980 0.853361428 0.062177498
v 0.055180836 0.837150216 0.053501677
v 0.078779958 0.922234535 -0.158348680
v 0.154271647 0.546412945 -0.079236425
v 0.175064892 0.767277598 -0.089521185
v 0.021081703 0.839462459 -0.129778251
v 0.149343282 0.623551846 -0.074024647
v 0.184241384 0.546655774 -0.071607165
v 0.018453535 0.692336142 -0.059807979
v 0.164121121 0.540179372 -0.062945433
v 0.032273009 0.805847466 -0.100190386
v 0.180116236 0.548929214 -0.049266972
v 0.180728942 0.564132392 -0.033744335
v 0.069577977 0.725063682 0.065119594
v 0.108891353 0.896529853 -0.146431968
v 0.086971119 0.900653005 -0.153258428
v 0.019704755 0.785783410 -0.080794908
v 0.199594900 0.561396003 -0.025784764
v 0.122539878 0.638836026 -0.087195054
v 0.205522299 0.632567465 -0.013556784
v 0.203616947 0.614395380 0.024856100
v 0.166139618 0.634301364 -0.085551083
v 0.144120649 0.637598395 -0.085315846
v 0.191468760 0.556719780 0.030443937
v 0.171531469 0.844439030 0.061292153
v 0.207260802 0.844920814 0.008961550
v 0.187025458 0.635988593 -0.049895979
v 0.060369752 0.598646045 -0.060780726
v 0.167282104 0.562728822 0.059983961
v 0.099082872 0.750929952 0.079285018
v 0.202422693 0.650591135 -0.000863149
v 0.208379462 0.641723335 0.019588534
v 0.102109708 0.661623955 -0.092458002
v 0.141322553 0.564771295 0.058830749
v 0.119068459 0.844166934 -0.129469857
v -0.007223283 0.762641788 0.017125994
v -0.016643163 0.666605234 0.008774640
v 0.058084786 0.651298761 0.051337760
v 0.128859729 0.561028659 0.080211580
v 0.144293487 0.846927285 -0.112698987
v -0.013588454 0.722925901 0.016574599
v 0.002587756 0.782212079 0.020380875
v 0.116101459 0.562657237 0.061543606
v 0.027789082 0.833478272 0.054176997
v 0.002274511 0.831763864 0.054557465
v 0.112875476 0.891673565 0.049490083
v 0.072096452 0.566401064 0.046308748
v 0.106903896 0.917071819 0.049299028
v 0.187116355 0.554399967 -0.009797564
v 0.117836796 0.753734171 0.086142197
v 0.036016919 0.929688931 -0.150516883
v 0.051413257 0.574300110 0.025549594
v 0.066166334 0.882240772 -0.156172663
v 0.020485658 0.583298564 0.013694137
v 0.044469126 0.601757884 0.017835481
v 0.042710856 0.820446372 -0.123542383
v 0.022782829 0.816440225 0.038645543
v 0.016560232 0.654148996 0.010061535
v -0.019208644 0.647965610 0.007757081
v -0.014389241 0.703960061 0.013781397
v 0.185790688 0.544067264 -0.028044039
v -0.014901526 0.685345352 0.010191428
v 0.083918557 0.597179949 -0.089701496
v 0.096057773 0.755695820 -0.114405096
v 0.114354491 0.766500413 -0.129365832
v 0.171587363 0.744870126 0.071177498
v 0.108890079 0.708931625 0.079413779
v 0.175000817 0.715632975 0.066121913
v 0.098600790 0.585495472 -0.069031365
v 0.190261260 0.547531784 0.009476048
f 555 540 123
f 389 162 497
f 567 540 568
f 583 104 251
f 463 489 430
f 453 94 255
f 483 484 162
f 446 640 671
f 574 577 251
f 50 244 238
f 52 244 50
f 575 57 53
f 55 249 52
f 55 2 250
f 577 248 563
f 575 437 432
f 57 597 589
f 2 265 262
f 589 592 57
f 262 259 2
f 5 267 262
f 602 606 589
f 5 9 11
f 58 606 610
f 11 272 5
f 12 278 11
f 565 793 8
f 630 60 632
f 13 425 12
f 424 289 160
f 289 424 13
f 643 649 60
f 181 403 179
f 483 206 484
f 163 651 174
f 53 563 558
f 651 65 650
f 163 389 384
f 683 66 65
f 455 558 563
f 165 384 171
f 340 331 34
f 67 66 683
f 206 470 63
f 385 102 856
f 67 702 70
f 344 340 696
f 179 403 406
f 710 70 702
f 16 352 14
f 111 112 59
f 63 64 655
f 18 368 16
f 710 742 753
f 119 112 111
f 394 671 545
f 551 922 903
f 19 375 18
f 753 740 711
f 406 470 179
f 261 615 108
f 545 453 439
f 178 386 530
f 24 386 23
f 72 753 742
f 26 396 24
f 768 765 72
f 119 142 112
f 32 63 470
f 112 142 161
f 399 400 396
f 154 343 182
f 545 671 448
f 399 415 400
f 768 770 765
f 32 406 410
f 418 415 399
f 770 183 777
f 387 300 166
f 415 418 422
f 105 86 299
f 169 42 839
f 170 142 119
f 173 172 705
f 329 638 343
f 134 738 737
f 185 638 329
f 692 661 145
f 150 74 741
f 637 345 873
f 132 145 661
f 170 184 142
f 138 495 760
f 138 136 188
f 136 194 188
f 201 87 194
f 270 87 205
f 216 49 210
f 46 216 724
f 198 184 170
f 43 96 907
f 219 39 218
f 45 43 41
f 224 37 219
f 498 224 514
f 86 105 342
f 225 36 514
f 378 107 110
f 80 233 107
f 22 41 43
f 198 217 849
f 41 581 45
f 103 233 76
f 76 40 103
f 222 217 214
f 678 100 40
f 98 41 22
f 366 41 98
f 40 76 678
f 215 4 284
f 215 98 21
f 537 536 92
f 222 234 217
f 904 537 92
f 460 462 30
f 284 471 366
f 222 239 246
f 586 903 759
f 462 28 30
f 246 234 222
f 454 449 28
f 237 391 924
f 560 319 921
f 246 888 252
f 431 471 282
f 455 560 391
f 319 560 241
f 50 238 793
f 50 566 52
f 52 574 55
f 258 263 510
f 244 52 249
f 55 253 2
f 284 792 657
f 303 670 667
f 303 100 674
f 250 249 55
f 273 274 252
f 251 253 574
f 100 303 301
f 301 570 100
f 104 261 257
f 677 100 678
f 273 285 274
f 257 2 253
f 2 257 265
f 250 2 259
f 570 568 40
f 752 292 293
f 294 296 285
f 285 296 274
f 684 497 679
f 277 274 296
f 440 447 442
f 579 489 463
f 692 329 695
f 259 262 267
f 871 736 360
f 262 271 9
f 40 100 570
f 570 567 568
f 203 128 270
f 310 296 294
f 305 296 310
f 87 270 194
f 9 5 262
f 5 272 600
f 276 9 271
f 9 276 11
f 272 11 278
f 302 323 310
f 568 103 40
f 108 615 89
f 280 11 276
f 11 280 12
f 103 568 540
f 278 12 425
f 323 337 328
f 283 12 280
f 12 283 13
f 283 297 289
f 289 13 283
f 540 561 231
f 425 13 424
f 209 288 205
f 291 125 286
f 346 337 323
f 49 304 288
f 173 350 351
f 297 654 314
f 347 158 864
f 304 47 311
f 47 304 49
f 47 46 481
f 360 361 855
f 501 684 146
f 481 311 47
f 46 39 481
f 343 695 329
f 314 289 297
f 289 314 160
f 481 321 308
f 481 39 321
f 325 122 321
f 325 321 37
f 37 321 39
f 333 160 314
f 324 266 333
f 527 107 231
f 84 121 325
f 36 327 498
f 160 333 34
f 327 120 84
f 36 82 371
f 277 393 390
f 689 34 333
f 34 689 340
f 313 34 331
f 266 334 689
f 334 260 341
f 340 335 331
f 107 527 110
f 54 404 405
f 696 14 344
f 61 401 44
f 38 299 407
f 358 14 348
f 14 358 16
f 344 14 352
f 356 704 712
f 352 16 368
f 413 62 417
f 370 16 358
f 16 370 18
f 175 705 134
f 713 115 110
f 371 27 378
f 27 371 82
f 381 18 370
f 18 381 19
f 368 18 375
f 80 378 27
f 19 381 235
f 19 395 23
f 19 23 178
f 202 506 913
f 23 395 24
f 386 24 396
f 398 24 395
f 24 398 26
f 26 398 220
f 26 412 399
f 396 26 399
f 418 399 412
f 164 180 444
f 444 443 164
f 175 173 705
f 685 84 120
f 422 300 415
f 685 121 84
f 172 169 300
f 172 300 422
f 78 80 27
f 226 365 78
f 89 615 114
f 240 485 309
f 134 737 175
f 226 27 82
f 245 459 452
f 187 186 140
f 243 459 245
f 189 187 130
f 581 466 579
f 467 472 637
f 308 122 240
f 138 579 466
f 430 255 463
f 499 435 430
f 453 430 435
f 435 440 439
f 435 499 450
f 243 479 281
f 308 321 122
f 897 438 584
f 439 453 435
f 243 281 893
f 450 440 435
f 480 859 865
f 440 449 447
f 442 439 440
f 450 449 440
f 447 449 454
f 492 488 493
f 127 458 456
f 449 456 28
f 82 225 708
f 454 28 462
f 28 456 30
f 456 450 127
f 30 456 458
f 225 82 36
f 30 464 460
f 506 507 502
f 126 469 125
f 287 508 509
f 207 507 506
f 410 460 32
f 126 306 477
f 460 464 644
f 644 32 460
f 32 644 63
f 475 31 576
f 470 406 32
f 64 63 644
f 306 309 477
f 125 464 458
f 528 795 511
f 516 523 524
f 655 206 63
f 206 655 484
f 206 474 470
f 162 679 497
f 316 322 822
f 313 160 34
f 37 498 325
f 523 316 534
f 497 684 501
f 501 146 505
f 146 512 503
f 505 503 513
f 263 515 510
f 512 120 115
f 503 512 91
f 517 513 503
f 115 713 91
f 458 203 125
f 315 547 548
f 91 512 115
f 547 330 336
f 91 713 88
f 517 88 522
f 552 548 547
f 532 88 713
f 88 532 519
f 552 336 553
f 522 519 541
f 527 231 561
f 127 128 458
f 538 660 692
f 514 36 498
f 224 498 37
f 538 692 695
f 114 626 631
f 553 342 105
f 219 37 39
f 555 660 561
f 127 450 499
f 891 199 824
f 660 555 661
f 218 39 46
f 199 97 886
f 366 98 284
f 22 21 98
f 41 366 581
f 43 232 22
f 907 232 43
f 96 536 907
f 45 463 255
f 45 581 463
f 255 94 96
f 255 96 45
f 94 453 545
f 448 546 545
f 582 593 594
f 595 584 438
f 216 46 47
f 216 47 49
f 551 640 558
f 558 640 569
f 49 288 209
f 793 565 50
f 569 53 558
f 566 50 565
f 209 210 49
f 841 351 350
f 574 52 566
f 578 53 57
f 612 609 423
f 53 578 563
f 575 53 569
f 597 432 211
f 253 55 574
f 57 575 597
f 578 57 592
f 592 583 578
f 627 609 612
f 584 621 628
f 603 589 606
f 602 589 597
f 634 819 627
f 610 606 602
f 835 318 229
f 626 606 58
f 610 624 58
f 58 624 630
f 632 58 630
f 634 884 869
f 58 632 626
f 60 642 632
f 642 60 649
f 60 630 181
f 650 649 643
f 662 652 645
f 656 628 621
f 621 636 656
f 658 659 204
f 64 644 469
f 466 495 138
f 694 377 700
f 468 471 431
f 663 650 65
f 628 656 668
f 679 162 484
f 65 686 663
f 672 673 659
f 686 65 66
f 683 65 651
f 468 431 478
f 683 693 67
f 685 146 684
f 146 685 512
f 696 340 689
f 66 67 701
f 473 495 478
f 66 698 686
f 702 67 693
f 668 675 687
f 701 698 66
f 405 690 54
f 701 67 70
f 54 690 564
f 14 696 348
f 711 70 710
f 699 70 711
f 702 709 710
f 229 318 236
f 657 282 471
f 710 709 742
f 753 756 740
f 756 753 72
f 742 754 72
f 72 754 768
f 72 765 756
f 766 765 770
f 490 193 496
f 130 772 496
f 770 776 766
f 15 719 168
f 87 201 148
f 183 770 768
f 201 194 136
f 422 705 172
f 633 777 338
f 777 633 150
f 408 74 633
f 638 185 408
f 106 730 258
f 688 379 694
f 275 631 118
f 185 692 145
f 197 750 749
f 736 737 738
f 263 258 730
f 738 741 743
f 185 145 143
f 743 741 744
f 744 741 74
f 744 467 879
f 132 140 145
f 123 132 661
f 741 738 150
f 123 540 567
f 773 772 567
f 738 134 150
f 78 27 226
f 238 623 1
f 264 279 779
f 776 150 134
f 134 705 420
f 695 541 538
f 104 599 261
f 365 681 680
f 761 762 763
f 365 678 76
f 76 78 365
f 411 156 420
f 156 411 220
f 541 519 538
f 220 764 156
f 76 233 78
f 80 78 233
f 168 789 387
f 70 699 701
f 398 395 228
f 434 437 445
f 779 780 887
f 428 432 434
f 926 317 706
f 197 749 745
f 213 6 4
f 279 785 780
f 419 427 428
f 148 201 745
f 454 462 419
f 526 782 783
f 381 734 235
f 410 414 419
f 493 769 913
f 511 4 215
f 4 511 213
f 406 414 410
f 208 731 729
f 21 511 215
f 210 728 727
f 794 800 823
f 511 21 529
f 470 474 179
f 724 218 46
f 227 110 115
f 118 280 275
f 219 218 722
f 806 800 794
f 803 804 256
f 716 778 225
f 224 219 720
f 407 86 690
f 356 734 381
f 389 497 380
f 809 795 528
f 810 806 811
f 717 716 514
f 497 501 380
f 317 697 429
f 810 818 821
f 913 771 202
f 341 698 699
f 373 376 159
f 369 177 373
f 341 260 698
f 260 334 266
f 365 226 681
f 517 522 354
f 828 821 818
f 354 362 364
f 569 640 446
f 519 522 88
f 767 828 818
f 266 324 676
f 602 597 211
f 804 834 256
f 121 240 122
f 345 868 918
f 610 602 211
f 169 839 166
f 427 195 211
f 643 179 174
f 683 651 165
f 693 683 171
f 627 884 634
f 324 654 676
f 846 397 841
f 841 397 374
f 362 709 369
f 580 397 846
f 192 188 190
f 192 499 489
f 128 192 190
f 270 205 203
f 205 288 286
f 291 306 126
f 208 148 733
f 288 304 291
f 304 311 306
f 311 481 308
f 286 125 203
f 283 118 297
f 589 599 592
f 283 280 118
f 227 115 120
f 747 805 732
f 707 226 82
f 107 378 80
f 275 114 631
f 118 646 297
f 89 114 275
f 231 233 103
f 87 209 205
f 816 872 870
f 271 108 89
f 248 560 455
f 248 241 560
f 108 271 265
f 566 565 241
f 86 876 690
f 622 244 619
f 517 91 88
f 574 566 248
f 715 662 889
f 244 249 618
f 249 250 614
f 882 465 718
f 253 251 257
f 774 465 882
f 250 259 608
f 883 494 774
f 921 391 560
f 259 267 604
f 54 564 847
f 251 577 583
f 600 267 5
f 89 276 271
f 503 91 517
f 690 405 407
f 275 276 89
f 892 573 582
f 272 278 596
f 248 577 574
f 280 276 275
f 425 588 591
f 425 424 781
f 781 313 572
f 424 313 781
f 572 585 781
f 314 654 324
f 136 197 201
f 313 557 572
f 237 551 558
f 554 331 335
f 334 341 348
f 760 136 138
f 335 344 549
f 341 699 704
f 348 696 334
f 921 319 7
f 358 348 704
f 344 352 544
f 912 582 594
f 903 586 551
f 352 368 543
f 381 370 356
f 368 375 539
f 788 8 3
f 535 375 178
f 221 795 809
f 828 767 562
f 559 833 920
f 921 920 899
f 546 448 898
f 903 922 836
f 38 903 299
f 235 228 395
f 405 669 407
f 546 92 94
f 400 518 520
f 92 546 904
f 639 35 926
f 386 396 525
f 927 926 33
f 928 605 930
f 200 490 298
f 94 545 546
f 96 92 536
f 927 56 852
f 143 472 408
f 220 412 26
f 400 520 521
f 412 220 411
f 109 113 152
f 920 832 559
f 418 412 411
f 152 113 746
f 387 789 786
f 420 418 411
f 746 161 867
f 418 420 422
f 490 773 298
f 496 772 773
f 394 442 445
f 562 767 832
f 739 636 820
f 204 725 658
f 773 490 496
f 725 223 635
f 447 454 428
f 472 186 637
f 215 284 98
f 189 130 496
f 458 464 30
f 410 462 460
f 125 469 464
f 635 247 487
f 487 269 629
f 641 487 629
f 268 269 487
f 269 393 629
f 390 269 268
f 469 126 64
f 349 761 763
f 655 64 477
f 303 674 670
f 290 393 277
f 611 290 928
f 163 474 483
f 928 307 605
f 635 641 648
f 531 605 533
f 677 674 100
f 477 309 485
f 506 202 207
f 679 485 240
f 240 121 684
f 312 912 594
f 684 679 240
f 121 685 684
f 186 187 345
f 503 505 146
f 912 332 892
f 772 130 132
f 685 120 512
f 501 505 159
f 725 648 658
f 505 513 373
f 513 517 364
f 892 847 564
f 110 527 713
f 714 847 339
f 522 541 154
f 51 714 346
f 231 103 540
f 714 51 404
f 541 695 343
f 567 772 123
f 502 500 506
f 578 577 563
f 867 659 673
f 577 578 583
f 597 575 432
f 592 104 583
f 913 492 493
f 845 167 839
f 599 104 592
f 386 178 23
f 599 603 615
f 110 227 378
f 615 261 599
f 706 402 639
f 603 626 114
f 132 123 772
f 624 610 195
f 409 706 317
f 746 673 682
f 114 615 603
f 120 327 227
f 624 414 403
f 691 429 697
f 642 631 632
f 642 118 631
f 429 433 853
f 646 118 642
f 642 649 646
f 152 682 691
f 682 433 691
f 181 643 60
f 654 297 646
f 122 325 121
f 140 130 187
f 421 416 617
f 123 661 555
f 309 308 240
f 698 260 686
f 702 693 177
f 698 701 699
f 672 441 436
f 291 126 125
f 109 691 697
f 143 140 186
f 874 872 816
f 665 441 672
f 188 192 489
f 665 658 653
f 712 704 699
f 653 451 665
f 927 697 317
f 712 740 734
f 648 461 653
f 178 375 19
f 923 880 116
f 641 461 648
f 740 756 748
f 748 758 228
f 926 706 639
f 479 641 482
f 754 742 362
f 354 754 362
f 407 669 38
f 203 458 128
f 482 629 620
f 756 765 758
f 182 754 154
f 128 127 192
f 254 246 252
f 611 382 620
f 764 398 228
f 499 192 127
f 764 766 156
f 766 776 156
f 930 611 928
f 420 156 776
f 140 132 130
f 788 7 8
f 387 166 168
f 420 776 134
f 136 760 197
f 300 387 415
f 750 197 760
f 745 201 197
f 148 208 209
f 733 148 745
f 258 35 106
f 593 533 605
f 731 208 733
f 236 318 910
f 729 210 208
f 728 210 729
f 727 216 210
f 188 489 579
f 929 573 556
f 724 216 727
f 573 929 582
f 723 218 724
f 722 218 723
f 720 219 722
f 717 224 720
f 514 224 717
f 188 579 138
f 876 556 573
f 707 681 226
f 898 904 546
f 472 143 186
f 212 795 221
f 899 391 921
f 854 925 931
f 213 795 212
f 140 143 145
f 404 54 714
f 833 922 924
f 415 387 786
f 143 408 185
f 238 3 793
f 1 3 238
f 31 799 752
f 622 238 244
f 918 799 515
f 380 376 171
f 915 752 357
f 617 476 421
f 619 244 618
f 618 249 616
f 616 249 614
f 636 739 613
f 388 613 10
f 614 250 608
f 357 791 915
f 383 688 388
f 608 259 607
f 571 438 576
f 295 667 666
f 92 96 94
f 607 259 604
f 372 726 700
f 667 295 303
f 367 726 372
f 604 267 601
f 298 295 207
f 923 875 880
f 363 732 367
f 408 467 74
f 148 209 87
f 298 301 295
f 359 747 363
f 601 267 600
f 359 355 755
f 600 272 598
f 598 272 596
f 353 755 355
f 301 298 773
f 596 278 591
f 747 755 751
f 591 278 425
f 588 425 781
f 388 688 813
f 769 771 913
f 763 353 349
f 202 771 200
f 506 500 913
f 74 467 744
f 773 570 301
f 82 708 707
f 320 647 326
f 500 492 913
f 331 554 557
f 242 910 320
f 344 335 340
f 910 908 647
f 554 335 550
f 239 222 703
f 549 550 335
f 549 344 544
f 166 167 168
f 544 352 543
f 543 368 542
f 17 15 167
f 17 845 157
f 907 536 919
f 157 850 155
f 155 850 153
f 542 368 539
f 150 633 74
f 153 854 151
f 151 854 149
f 149 858 147
f 147 862 144
f 539 375 535
f 759 903 38
f 530 535 178
f 144 862 141
f 141 866 139
f 139 866 137
f 530 386 525
f 137 870 135
f 525 396 521
f 135 870 872
f 133 872 131
f 131 874 129
f 129 923 117
f 923 874 875
f 170 119 902
f 521 396 400
f 20 932 101
f 99 101 932
f 99 886 97
f 95 97 199
f 95 891 93
f 93 896 90
f 518 400 786
f 90 896 85
f 85 901 83
f 83 905 81
f 169 166 300
f 81 905 79
f 77 79 796
f 77 909 75
f 439 394 545
f 75 914 73
f 73 914 71
f 71 916 69
f 442 394 439
f 468 466 366
f 442 447 434
f 7 562 920
f 794 534 811
f 924 899 833
f 434 447 428
f 428 454 419
f 419 462 410
f 38 898 759
f 902 111 897
f 466 468 495
f 526 524 534
f 25 59 56
f 96 43 45
f 895 401 61
f 182 343 338
f 483 389 163
f 483 162 389
f 897 59 25
f 883 894 775
f 776 777 150
f 59 897 111
f 380 384 389
f 774 882 893
f 111 902 119
f 778 708 225
f 501 159 380
f 167 166 839
f 159 505 373
f 176 191 867
f 373 513 369
f 364 369 513
f 850 890 925
f 354 364 517
f 354 522 154
f 177 369 709
f 154 541 343
f 446 445 437
f 376 380 159
f 204 223 725
f 217 198 214
f 214 703 222
f 437 569 446
f 610 211 195
f 414 624 195
f 403 630 624
f 889 718 715
f 160 313 424
f 181 630 403
f 888 246 239
f 179 643 181
f 174 650 643
f 651 650 174
f 163 384 165
f 487 247 268
f 165 651 163
f 171 683 165
f 174 474 163
f 557 313 331
f 475 515 799
f 376 693 171
f 285 273 757
f 177 693 376
f 627 885 884
f 174 179 474
f 509 508 516
f 294 302 310
f 709 702 177
f 709 362 742
f 154 754 354
f 182 338 183
f 780 785 803
f 183 768 182
f 423 413 881
f 183 338 777
f 638 338 343
f 633 638 408
f 590 401 895
f 692 185 329
f 190 188 194
f 515 475 25
f 270 190 194
f 190 270 128
f 195 427 414
f 7 788 562
f 915 878 571
f 877 595 438
f 203 205 286
f 44 48 61
f 474 206 483
f 210 209 208
f 61 62 895
f 413 895 62
f 211 432 427
f 172 42 169
f 398 764 220
f 515 263 918
f 437 575 569
f 228 758 764
f 124 885 426
f 175 871 350
f 84 498 327
f 225 514 716
f 327 371 227
f 918 263 730
f 898 448 759
f 371 327 36
f 839 374 890
f 227 371 378
f 451 441 665
f 228 235 748
f 444 180 457
f 233 231 107
f 187 868 345
f 759 448 586
f 189 292 868
f 734 748 235
f 653 461 826
f 924 922 237
f 292 193 196
f 446 671 394
f 461 641 479
f 922 551 237
f 391 237 455
f 482 641 629
f 918 868 799
f 196 200 293
f 771 293 200
f 558 455 237
f 281 287 894
f 894 893 281
f 248 566 241
f 257 251 104
f 255 430 453
f 257 261 265
f 509 775 287
f 260 266 676
f 509 516 524
f 265 261 108
f 523 516 531
f 322 316 523
f 273 252 888
f 265 271 262
f 811 534 316
f 316 315 811
f 676 686 260
f 366 466 581
f 478 495 468
f 330 547 315
f 547 336 552
f 366 471 468
f 760 495 473
f 657 471 284
f 336 342 553
f 553 900 552
f 832 900 553
f 865 878 791
f 792 284 4
f 31 571 576
f 286 288 291
f 438 571 877
f 906 864 863
f 4 790 792
f 8 7 319
f 303 295 301
f 291 304 306
f 570 773 567
f 739 617 392
f 617 416 392
f 306 311 309
f 309 311 308
f 170 628 668
f 613 739 10
f 739 392 10
f 656 675 668
f 656 815 675
f 680 678 365
f 813 613 388
f 324 333 314
f 687 198 668
f 379 688 383
f 295 666 207
f 815 656 636
f 377 694 379
f 325 498 84
f 689 333 266
f 334 696 689
f 700 377 372
f 861 834 860
f 703 721 239
f 732 726 367
f 834 861 256
f 348 341 704
f 747 732 363
f 356 358 704
f 735 888 721
f 370 358 356
f 735 264 757
f 735 273 888
f 755 747 359
f 369 364 362
f 353 763 755
f 647 761 326
f 761 349 326
f 376 373 177
f 779 757 264
f 780 779 279
f 384 380 171
f 235 395 19
f 736 871 737
f 562 788 917
f 910 647 320
f 785 804 803
f 414 406 403
f 256 323 803
f 813 675 815
f 415 786 400
f 427 419 414
f 422 420 705
f 432 428 427
f 430 489 499
f 587 580 590
f 437 434 432
f 445 442 434
f 446 394 445
f 671 586 448
f 819 609 627
f 456 449 450
f 455 563 248
f 865 791 769
f 581 579 463
f 645 652 817
f 644 464 469
f 652 662 715
f 874 923 129
f 715 664 652
f 694 812 688
f 477 64 126
f 750 760 473
f 485 655 477
f 465 715 718
f 507 207 666
f 465 774 494
f 865 486 480
f 812 675 813
f 485 484 655
f 207 202 298
f 883 504 825
f 493 865 769
f 783 782 504
f 679 484 485
f 202 200 298
f 196 490 200
f 196 193 490
f 877 859 476
f 302 803 323
f 189 496 193
f 814 806 810
f 168 719 789
f 821 814 810
f 391 899 924
f 713 527 532
f 467 408 472
f 302 294 887
f 786 787 518
f 538 519 532
f 561 532 527
f 926 35 33
f 538 532 660
f 540 555 561
f 551 586 640
f 319 241 565
f 660 532 561
f 113 161 746
f 161 176 867
f 8 319 565
f 223 247 635
f 781 585 784
f 620 629 393
f 887 780 302
f 269 390 393
f 671 640 586
f 781 784 588
f 599 589 603
f 393 290 611
f 626 603 606
f 928 290 305
f 623 238 622
f 625 1 623
f 774 893 894
f 312 332 912
f 626 632 631
f 332 339 847
f 847 892 332
f 757 887 285
f 847 714 54
f 793 3 8
f 732 807 726
f 858 931 857
f 675 812 687
f 168 167 15
f 273 735 757
f 920 921 7
f 402 385 639
f 167 845 17
f 638 633 338
f 646 649 663
f 650 663 649
f 845 850 157
f 888 239 721
f 663 654 646
f 706 409 48
f 850 854 153
f 676 654 663
f 429 409 317
f 661 692 660
f 854 858 149
f 676 663 686
f 858 862 147
f 433 429 691
f 678 680 677
f 699 711 712
f 712 734 356
f 711 710 753
f 862 866 141
f 712 711 740
f 682 436 827
f 734 740 748
f 866 870 137
f 214 687 808
f 748 756 758
f 664 816 652
f 872 133 135
f 198 687 214
f 754 182 768
f 872 874 131
f 665 659 658
f 758 765 766
f 658 648 653
f 766 764 758
f 776 770 777
f 668 198 170
f 117 923 116
f 787 786 789
f 929 330 822
f 533 822 322
f 556 336 330
f 531 322 523
f 899 920 833
f 662 444 889
f 346 323 256
f 491 482 620
f 116 880 911
f 911 20 116
f 382 491 620
f 911 932 20
f 932 886 99
f 645 443 662
f 930 382 611
f 382 930 516
f 886 824 199
f 605 531 930
f 491 508 848
f 628 170 902
f 256 347 346
f 482 848 479
f 891 896 93
f 347 256 861
f 820 617 739
f 866 819 817
f 605 594 593
f 896 901 85
f 929 593 582
f 612 881 885
f 901 905 83
f 826 451 653
f 451 457 180
f 672 659 665
f 441 180 851
f 79 905 796
f 436 673 672
f 436 851 827
f 909 914 75
f 682 673 436
f 914 916 71
f 584 902 897
f 876 86 342
f 69 916 1
f 829 433 827
f 700 808 694
f 788 3 916
f 853 829 417
f 409 61 48
f 402 48 855
f 870 817 816
f 855 29 360
f 874 816 664
f 385 361 102
f 830 880 875
f 576 897 25
f 819 634 817
f 68 69 1
f 106 856 730
f 743 736 738
f 910 242 236
f 862 857 819
f 744 879 102
f 880 830 831
f 840 528 843
f 401 846 44
f 803 302 780
f 769 791 357
f 878 915 791
f 831 911 880
f 918 873 345
f 576 25 475
f 799 31 475
f 841 29 846
f 879 856 102
f 106 639 385
f 573 564 876
f 911 831 802
f 342 556 876
f 337 339 332
f 25 510 515
f 350 29 841
f 564 573 892
f 892 582 912
f 510 25 56
f 864 906 837
f 312 328 337
f 929 822 593
f 33 35 258
f 871 360 29
f 840 860 835
f 864 158 863
f 29 855 44
f 916 914 917
f 808 687 812
f 594 307 312
f 307 305 328
f 916 917 788
f 33 56 927
f 840 835 809
f 307 594 605
f 736 743 361
f 531 516 930
f 290 277 305
f 852 109 927
f 318 835 860
f 21 844 529
f 852 59 112
f 620 393 611
f 102 743 744
f 112 113 852
f 751 763 762
f 647 785 762
f 805 747 751
f 252 268 254
f 230 835 229
f 487 641 635
f 637 879 467
f 124 851 164
f 809 230 221
f 161 142 176
f 807 732 805
f 247 234 254
f 230 809 835
f 808 700 807
f 345 637 186
f 176 184 191
f 812 694 808
f 204 849 223
f 849 204 191
f 813 688 812
f 635 648 725
f 849 184 198
f 815 613 813
f 815 636 613
f 217 223 849
f 659 191 204
f 217 234 223
f 191 184 849
f 859 480 421
f 795 213 511
f 245 461 243
f 878 865 859
f 802 886 932
f 191 659 867
f 452 718 889
f 223 234 247
f 176 142 184
f 246 254 234
f 865 493 486
f 293 771 357
f 268 247 254
f 771 769 357
f 805 264 735
f 268 252 390
f 161 113 112
f 486 493 488
f 390 252 274
f 867 673 746
f 264 751 279
f 274 277 390
f 746 682 152
f 281 848 287
f 827 433 682
f 808 703 214
f 152 691 109
f 109 852 113
f 476 859 421
f 296 305 277
f 476 595 877
f 305 307 928
f 196 293 292
f 595 476 820
f 726 807 700
f 752 293 357
f 307 328 312
f 310 328 305
f 56 59 852
f 292 752 799
f 328 310 323
f 886 825 824
f 312 337 332
f 807 703 808
f 891 824 782
f 193 292 189
f 844 21 22
f 429 853 409
f 109 697 927
f 56 33 510
f 105 559 553
f 339 337 346
f 346 714 339
f 51 346 347
f 317 926 927
f 564 690 876
f 863 844 232
f 799 868 292
f 510 33 258
f 843 528 529
f 844 863 842
f 861 840 843
f 861 158 347
f 861 860 840
f 752 915 31
f 158 843 842
f 843 158 861
f 842 529 844
f 919 837 906
f 906 232 907
f 809 528 840
f 730 873 918
f 730 856 873
f 873 856 879
f 856 106 385
f 817 634 645
f 837 919 838
f 817 652 816
f 919 906 907
f 919 536 537
f 743 102 361
f 904 669 838
f 898 669 904
f 669 898 38
f 703 807 721
f 405 404 838
f 669 405 838
f 922 833 836
f 294 285 887
f 361 385 402
f 869 645 634
f 830 875 664
f 916 3 1
f 864 51 347
f 402 855 361
f 909 801 914
f 397 890 374
f 48 44 855
f 796 909 77
f 879 637 873
f 901 798 905
f 580 925 397
f 48 402 706
f 896 800 901
f 891 823 896
f 409 62 61
f 853 62 409
f 881 413 417
f 417 62 853
f 86 407 299
f 459 893 882
f 199 891 95
f 830 465 831
f 829 426 417
f 426 829 124
f 426 881 417
f 124 829 827
f 433 829 853
f 886 802 825
f 774 894 883
f 851 124 827
f 164 884 124
f 441 851 436
f 180 164 851
f 443 869 164
f 911 802 932
f 715 830 664
f 874 664 875
f 736 361 360
f 451 180 441
f 457 452 889
f 889 444 457
f 866 817 870
f 106 35 639
f 459 718 452
f 826 452 457
f 452 826 245
f 451 826 457
f 862 819 866
f 858 857 862
f 461 245 826
f 459 882 718
f 479 243 461
f 854 931 858
f 850 925 854
f 846 401 580
f 845 890 850
f 491 848 482
f 848 281 479
f 825 494 883
f 382 508 491
f 900 832 767
f 508 287 848
f 896 823 800
f 839 890 845
f 504 782 824
f 42 374 839
f 516 508 382
f 908 910 318
f 534 524 523
f 552 818 548
f 42 172 173
f 901 800 798
f 818 552 900
f 533 322 531
f 871 175 737
f 868 187 189
f 22 232 844
f 593 822 533
f 822 315 316
f 929 556 330
f 330 315 822
f 838 919 537
f 904 838 537
f 318 860 834
f 908 318 834
f 465 830 715
f 556 342 336
f 105 836 559
f 833 559 836
f 29 44 846
f 908 834 804
f 562 917 828
f 299 836 105
f 818 900 767
f 832 553 559
f 562 832 920
f 811 315 548
f 828 801 821
f 801 828 917
f 821 797 814
f 836 299 903
f 401 590 580
f 797 821 801
f 905 798 796
f 796 814 797
f 810 548 818
f 814 798 806
f 798 814 796
f 909 796 797
f 811 548 810
f 413 587 590
f 404 51 837
f 51 864 837
f 837 838 404
f 909 797 801
f 529 842 843
f 158 842 863
f 232 906 863
f 800 806 798
f 529 528 511
f 794 811 806
f 785 908 804
f 785 647 908
f 859 877 878
f 526 534 794
f 877 571 878
f 571 31 915
f 173 351 42
f 524 783 509
f 350 173 175
f 29 350 871
f 823 526 794
f 783 524 526
f 526 823 782
f 42 351 374
f 841 374 351
f 504 775 783
f 509 783 775
f 782 823 891
f 885 124 884
f 887 757 779
f 914 801 917
f 426 885 881
f 890 397 925
f 825 504 824
f 775 504 883
f 925 587 931
f 587 925 580
f 802 494 825
f 785 279 762
f 494 831 465
f 831 494 802
f 894 287 775
f 590 895 413
f 438 897 576
f 884 164 869
f 762 279 751
f 423 931 587
f 587 413 423
f 931 423 857
f 762 761 647
f 617 820 476
f 595 820 621
f 751 755 763
f 893 459 243
f 751 264 805
f 609 857 423
f 423 881 612
f 662 443 444
f 721 805 735
f 621 584 595
f 857 609 819
f 443 645 869
f 612 885 627
f 636 621 820
f 628 902 584
f 805 721 807
