# avbd fit, rung k30-i32-s300-b1e-3 of Gate 6d (body space)
v -0.017444199 0.599433124 0.000485007
v -0.115504362 0.588649333 0.085010961
v -0.017604653 0.612938344 0.013997133
v -0.002033915 0.930826008 0.076787449
v -0.171083719 0.570988178 0.062823951
v -0.002980194 0.951482773 0.075632975
v -0.021120246 0.634762347 0.018355455
v -0.017284244 0.628378570 0.001509913
v -0.167519942 0.589509010 0.050536640
v 0.143726557 0.944249809 -0.107087806
v -0.194603771 0.586948395 0.049300827
v -0.185722649 0.585353017 0.023784500
v -0.200912431 0.586603761 0.005495093
v -0.153129905 0.582615733 -0.064636655
v 0.010852017 0.583739460 -0.002138917
v -0.145612165 0.572809875 -0.084457420
v 0.030503010 0.578987956 -0.007298978
v -0.123957619 0.577847242 -0.093086794
v -0.103578106 0.588847816 -0.091376558
v 0.192585677 0.532341361 -0.002674311
v -0.001504136 0.891353488 0.072203360
v -0.002120963 0.871053040 0.071162447
v -0.119067788 0.588051677 -0.075060517
v -0.098605305 0.598466873 -0.072977260
v 0.100151911 0.825560689 -0.121562757
v -0.083016157 0.608852625 -0.086670421
v -0.139999419 0.896599114 -0.142401844
v -0.150745943 0.793404758 0.069993161
v 0.032102667 0.682445586 -0.070275016
v -0.168851763 0.805634856 0.075993463
v 0.071288563 0.853538632 -0.151442319
v -0.197468489 0.776908934 0.043068878
v 0.088050082 0.777406991 -0.121858850
v -0.190779537 0.580217957 -0.035840474
v 0.074894451 0.768328488 -0.105889544
v -0.159832343 0.905529499 -0.106915966
v -0.188429564 0.904604614 -0.064150013
v 0.011545719 0.747232854 0.014645237
v -0.173773602 0.899728477 -0.044165798
v -0.085587911 0.899147868 -0.149915978
v -0.036255248 0.879227042 0.064435564
v 0.010077557 0.643446684 -0.027159486
v -0.025576884 0.853373349 0.064293727
v 0.056611955 0.684342086 -0.087094679
v -0.051236443 0.859001160 0.056797750
v -0.185436234 0.910099328 -0.024581205
v -0.190901369 0.895460308 -0.004646617
v 0.069433175 0.708256602 -0.094373621
v -0.179713428 0.897790313 0.018194567
v -0.058875252 0.601046443 0.026864979
v 0.060157858 0.820550323 0.063928947
v -0.067165338 0.592750788 0.054322213
v -0.083019547 0.693073630 0.063080579
v 0.054193277 0.772745132 0.061080385
v -0.095879719 0.591446519 0.056205243
v 0.104712404 0.795236945 -0.114362732
v -0.111722745 0.688076437 0.074083470
v -0.182669595 0.690966725 0.061982561
v 0.124235891 0.808028579 -0.127466589
v -0.199577451 0.690340996 0.028431386
v 0.083071947 0.687580585 -0.093569115
v 0.100211218 0.678963661 -0.110874452
v -0.211497858 0.790285051 0.023540452
v -0.205629304 0.814352512 0.021346260
v -0.214070886 0.688372672 -0.043738499
v -0.190759331 0.682901502 -0.062826164
v -0.172959834 0.697961867 -0.076947868
v -0.013685929 0.614672124 -0.009244947
v 0.013132757 0.609298825 -0.008795720
v -0.165392786 0.680267215 -0.099595830
v 0.032659885 0.596811533 -0.006502240
v -0.118651830 0.697780967 -0.125509083
v 0.047308676 0.578356624 -0.000842969
v -0.027375165 0.753657222 -0.082166620
v 0.056297339 0.559511721 0.008181758
v -0.107722983 0.902276397 -0.152824208
v 0.067978106 0.547776163 0.024329495
v -0.119720124 0.901105404 -0.135075003
v 0.079685763 0.540396750 0.040823676
v -0.129104674 0.882182956 -0.131922632
v 0.096684419 0.536591709 0.052316688
v -0.150149494 0.915738940 -0.131294817
v 0.114192888 0.533897817 0.061508603
v -0.184571803 0.867423713 -0.087974973
v 0.130817294 0.531258047 0.069635183
v 0.038926743 0.725627005 0.041809149
v -0.155886009 0.893191218 0.059276439
v -0.130049735 0.799880624 -0.127192259
v -0.167240605 0.624420226 0.062358510
v 0.144833326 0.529570639 0.059591591
v -0.142901152 0.810832977 -0.107529201
v -0.026521707 0.809287906 0.036178954
v 0.164142877 0.529985726 0.061128616
v -0.044227459 0.810171008 0.055363756
v 0.153848171 0.539765775 0.048811536
v -0.032865800 0.834107220 0.046802443
v 0.172173649 0.532410264 0.045219935
v -0.023606516 0.899179816 0.072800167
v 0.184351534 0.528938055 0.031954736
v -0.071251281 0.915439963 -0.160623819
v 0.184263676 0.531313300 0.013889636
v 0.022595802 0.757265449 -0.075393781
v -0.097243398 0.879209876 -0.156833604
v -0.116152667 0.642862380 0.087847121
v 0.034166507 0.702162683 0.030372525
v 0.053481840 0.770637751 -0.103904627
v -0.122701272 0.861583352 -0.133678779
v -0.145728648 0.622741818 0.063955985
v 0.132002145 0.760579586 -0.107903518
v -0.138151616 0.844690442 -0.129281878
v 0.138225973 0.823089421 -0.114210889
v 0.152629152 0.800572097 -0.115410171
v 0.152119428 0.774187982 -0.108329512
v -0.171918735 0.645733297 0.054425687
v -0.145576105 0.837181568 -0.106583044
v 0.200330615 0.533415377 -0.020846946
v 0.188490123 0.544678330 -0.014087202
v -0.204047680 0.635045648 0.028214002
v 0.156545058 0.822978973 -0.101919159
v -0.169168681 0.851177394 -0.102793708
v -0.186943308 0.848286450 -0.066641971
v -0.200840563 0.864934444 -0.055313509
v -0.064095870 0.847407520 -0.144008204
v 0.155946478 0.665136814 -0.100100622
v -0.175929219 0.837395191 0.044777684
v -0.197882771 0.837247968 0.023089621
v -0.134284779 0.830636024 0.080678634
v -0.145169348 0.843997836 0.061161924
v 0.187783107 0.535679162 -0.032532804
v -0.028496146 0.838405728 -0.127421647
v 0.179375738 0.532623947 -0.049832109
v -0.046628438 0.827948570 -0.136911407
v 0.164692178 0.538434267 -0.065075234
v -0.029386669 0.692019641 -0.071323708
v 0.183792785 0.536642194 -0.066796824
v -0.112057731 0.891041756 0.047229633
v 0.170277447 0.535313249 -0.080904447
v -0.101734802 0.899493098 0.071270511
v 0.150866836 0.533947885 -0.079796255
v -0.027248859 0.816841006 -0.116899215
v 0.136261106 0.535730839 -0.092498101
v 0.172115296 0.808276355 -0.094026998
v -0.033591963 0.805387020 -0.095692925
v 0.128082633 0.542963862 -0.078360409
v -0.052402575 0.814191341 -0.116799295
v -0.190270931 0.810180008 -0.097893514
v 0.110270068 0.544201016 -0.072293676
v -0.159760982 0.913259625 0.045071006
v 0.093054652 0.547784805 -0.075719714
v -0.032996248 0.721558928 -0.084665403
v 0.082471296 0.553454697 -0.060888976
v 0.151540518 0.751071692 -0.101657391
v 0.066053934 0.556414783 -0.050332196
v -0.118324853 0.753386915 -0.114083350
v 0.057389807 0.564277709 -0.033707887
v -0.072301701 0.662638843 -0.092404746
v 0.047831226 0.572364986 -0.017792471
v 0.058783941 0.863402724 0.057366915
v -0.182637095 0.769634604 -0.087256521
v -0.211717457 0.586189389 -0.019188734
v 0.173877388 0.783759654 -0.103907153
v -0.217272192 0.787904620 -0.039399035
v -0.219190270 0.743570209 -0.029776728
v 0.159575194 0.655862272 -0.074124314
v -0.208788842 0.728974998 -0.049635038
v -0.016956411 0.611426473 -0.026851941
v 0.013892988 0.594953835 -0.023075730
v -0.017474506 0.594219506 -0.017398417
v -0.016913135 0.631148636 -0.024428634
v 0.182695478 0.831990838 -0.109301351
v -0.193721026 0.736279547 -0.066663943
v -0.015008813 0.649550200 -0.030350139
v -0.014858794 0.667574644 -0.037093613
v -0.212428361 0.724633932 -0.007772509
v -0.014447534 0.685946941 -0.043234996
v 0.183069229 0.790652633 -0.083932959
v -0.174709469 0.732050240 -0.104984440
v -0.125477299 0.565362334 -0.075679541
v -0.216177583 0.735344231 0.022991287
v 0.183086976 0.672021508 -0.081135757
v -0.202981234 0.714031816 0.031446479
v -0.098441646 0.737318635 -0.119596303
v -0.088439032 0.724913061 -0.101624511
v 0.198627934 0.809866250 -0.091413990
v -0.055186141 0.792816281 -0.103522003
v -0.007235460 0.815218925 -0.094549760
v -0.006399947 0.829502881 -0.108838342
v -0.115796171 0.877319932 0.073335305
v -0.005966830 0.834704280 -0.127930000
v -0.128397241 0.860887051 0.057418168
v 0.203404471 0.779126942 -0.082403183
v -0.122213803 0.852084339 0.078914180
v -0.005471663 0.854959369 -0.128510565
v -0.134335965 0.881574810 0.046187300
v -0.164874956 0.722866654 0.072227858
v -0.004689036 0.874791503 -0.132705301
v -0.129037708 0.908481419 0.037884042
v 0.185881823 0.832637489 -0.074070424
v 0.171261087 0.555722296 0.039102372
v -0.004649966 0.894865990 -0.133459672
v -0.135534793 0.906274498 0.056633282
v -0.004709379 0.914891243 -0.133813769
v -0.169970557 0.856362998 0.063366033
v 0.195226863 0.768520057 -0.060277034
v -0.169584766 0.878601074 0.047229845
v -0.218655422 0.779354215 0.000993146
v -0.003646987 0.934844196 -0.135112643
v -0.142731398 0.912463546 0.026487350
v -0.151874766 0.890664876 0.028739447
v -0.166782349 0.918844402 0.020930015
v -0.140713125 0.716538548 0.075300708
v 0.037380274 0.953023732 0.074091300
v 0.017063607 0.952873349 0.075549997
v 0.205918387 0.853890300 -0.058706798
v -0.001459739 0.911247909 0.075443476
v -0.171082050 0.913425922 -0.005351042
v 0.212244540 0.820971847 -0.057694606
v -0.186052814 0.921054482 -0.044173438
v -0.169945329 0.921798706 -0.057004523
v -0.081841275 0.636117578 -0.091806777
v 0.057561021 0.951807141 0.070265546
v 0.200759009 0.835459352 -0.037328370
v 0.217277125 0.785922348 -0.048443336
v -0.178038597 0.927170634 -0.076592818
v -0.152446732 0.928708911 -0.112024546
v -0.128430650 0.921822190 -0.140730545
v -0.149355084 0.862342536 -0.113695025
v -0.121104397 0.638934255 -0.084191591
v 0.088533565 0.938872695 0.074629530
v 0.075337447 0.946320713 0.062585309
v -0.102855608 0.859022796 -0.144967139
v -0.003226955 0.852364182 0.063296847
v -0.115502164 0.880207837 -0.146165475
v 0.208690077 0.808605790 -0.031804796
v -0.109384403 0.619291961 -0.099907026
v 0.088312522 0.933395684 0.057342727
v -0.033831622 0.690248966 0.025912708
v -0.039104711 0.585864246 0.017000714
v 0.203286931 0.849656940 -0.018131074
v -0.210261106 0.840566814 -0.045827158
v -0.052491408 0.633238792 0.032005664
v 0.106696822 0.935996652 0.052552521
v 0.205703214 0.679284990 -0.008209066
v -0.064299256 0.575657547 0.031537630
v 0.213077113 0.676015675 -0.029094044
v 0.208460331 0.826820493 -0.011914337
v 0.213642508 0.782870054 -0.018720994
v -0.060436659 0.644775093 0.052882928
v -0.082149640 0.568246484 0.057555921
v -0.113042817 0.569983959 0.061394133
v -0.105187871 0.631896794 0.067156866
v 0.212376386 0.814616382 0.016599052
v -0.108171560 0.609498143 0.066522487
v 0.213410899 0.804068744 -0.007515577
v -0.062172212 0.834746838 0.056603998
v 0.103006460 0.853105426 0.084616117
v -0.116632804 0.617564976 0.087343112
v 0.071748473 0.788393021 -0.107704639
v -0.130673394 0.563610077 0.083827309
v -0.193259835 0.641670048 -0.056409009
v -0.128331110 0.632037699 0.071627997
v -0.140736431 0.582577109 0.062160917
v 0.063648336 0.807892501 -0.109784305
v 0.176630050 0.876713932 0.032322474
v -0.130981073 0.606767833 0.069478333
v -0.190928116 0.622929752 -0.041650552
v -0.150541916 0.559474945 0.062634423
v 0.217298120 0.786284328 0.007984024
v 0.213725403 0.766572893 0.021727715
v -0.149626583 0.869389653 0.061437070
v -0.153728336 0.605465651 0.056572974
v -0.174410015 0.574165940 0.039773606
v 0.193364188 0.833183765 0.025065105
v 0.193438128 0.807636142 0.038883675
v -0.191616923 0.627300858 0.055166252
v -0.180906862 0.605171323 0.061794125
v 0.193515673 0.783724606 0.055275422
v -0.192726731 0.561756372 0.035370950
v 0.151241332 0.877259552 0.045880817
v -0.183468848 0.610821187 0.035424009
v 0.216085821 0.670773983 0.013236200
v -0.057045419 0.950419128 0.069618776
v -0.202730849 0.607883990 0.017109590
v -0.029100876 0.922320008 0.088371009
v 0.185104162 0.827960849 0.049987666
v -0.168367177 0.858820796 0.039104600
v 0.196341351 0.664027154 0.029299414
v -0.171916455 0.874469578 0.021695120
v -0.193337560 0.603456616 -0.008154402
v 0.188367411 0.761171460 0.065961920
v -0.188824087 0.858430266 0.027705546
v 0.017548280 0.852213204 -0.140606716
v 0.019379240 0.878702998 -0.145962864
v 0.170457035 0.824201286 0.068011127
v -0.032118432 0.929925799 -0.142125234
v 0.182061687 0.804483116 0.065155208
v -0.197152764 0.627938867 -0.000215114
v -0.021057991 0.906457603 -0.150197476
v 0.022034900 0.725600362 0.020624131
v -0.036386140 0.626552820 -0.033812031
v -0.045752499 0.907703757 -0.145695210
v 0.150228113 0.834675431 0.072780937
v -0.056013007 0.929292500 -0.148253217
v -0.196159199 0.878596902 0.014133635
v 0.167789355 0.779704630 0.073940493
v -0.207193166 0.856048286 0.008276197
v 0.146243572 0.759437561 0.077264667
v -0.190916762 0.862032592 -0.034087826
v -0.200178266 0.845413089 -0.016180838
v 0.153226152 0.808017910 0.070020407
v -0.198250875 0.871265233 -0.010954964
v 0.123896636 0.770072103 0.086945102
v -0.207127526 0.559191644 -0.030611476
v -0.214951828 0.611532807 -0.010224590
v 0.103618860 0.662135780 0.075192399
v 0.128517121 0.659108818 0.081250742
v 0.102707349 0.734590709 -0.115957543
v 0.097080722 0.906007886 0.068741851
v -0.041718520 0.636797607 0.011499261
v 0.125437051 0.936944604 0.050845642
v -0.195127085 0.886301517 -0.045312088
v 0.138036102 0.681303680 0.078124888
v 0.125689104 0.822780490 0.085646674
v -0.202061146 0.624906898 -0.021967974
v -0.180433214 0.877434731 -0.064043425
v 0.142459303 0.929209530 0.045595996
v -0.168583542 0.879466534 -0.106937267
v 0.137890965 0.788852572 0.077807114
v -0.075984061 0.783856273 -0.109896019
v 0.090633944 0.686909795 0.070270523
v -0.179944500 0.557448208 -0.042134982
v 0.100333117 0.773577750 0.080177411
v -0.197649479 0.603505969 -0.028933188
v -0.184586540 0.617966712 -0.066373393
v -0.160921782 0.558211505 -0.059581298
v 0.066007569 0.683568120 0.059417717
v 0.111860618 0.796432972 0.087705478
v -0.075264491 0.745433211 -0.101159737
v 0.090204634 0.792853713 0.076506287
v -0.172471017 0.578035712 -0.054012101
v -0.167466313 0.637027204 -0.068496749
v 0.050006770 0.702972054 0.052182645
v -0.089201733 0.763035893 -0.118999243
v -0.165873602 0.566332459 -0.080900855
v 0.015350208 0.815136909 -0.103397131
v 0.090459540 0.820737660 0.080471374
v 0.077442706 0.844874501 0.065474860
v -0.159655675 0.611438155 -0.066757642
v 0.131460249 0.936955750 0.034551926
v 0.016974771 0.678119779 -0.043901067
v 0.019931424 0.659118295 -0.036572646
v -0.143043309 0.553622603 -0.070793688
v 0.147298813 0.938181579 0.025804440
v -0.141497374 0.753493309 -0.125038534
v 0.156327918 0.938203037 0.009537355
v -0.140562356 0.616703093 -0.076986708
v 0.044808075 0.888393879 -0.151368618
v -0.157100856 0.597868800 -0.084432289
v 0.161664233 0.937122226 -0.007559842
v 0.028219014 0.707566798 -0.067715421
v 0.028052215 0.730171144 -0.079992324
v -0.139802068 0.735477090 -0.105445102
v 0.178461373 0.943735898 -0.004801082
v -0.143678769 0.758353114 -0.101943828
v -0.106851362 0.921254158 -0.135333881
v -0.051381201 0.904501796 0.077138573
v 0.168669850 0.944672585 -0.021704480
v -0.129437536 0.553044558 -0.094368696
v -0.160786256 0.746920466 -0.091808006
v -0.137824461 0.593163967 -0.079286888
v -0.146491110 0.888700187 -0.119575895
v 0.174854741 0.946078598 -0.037487578
v -0.177458704 0.757939219 -0.106473088
v 0.034151819 0.638243735 -0.040308002
v -0.105883576 0.558048308 -0.086648524
v -0.180412963 0.746912420 -0.084100768
v 0.166106671 0.941950440 -0.053753853
v -0.145196065 0.869654059 -0.135760903
v 0.169945866 0.945786953 -0.071825668
v -0.194820434 0.765430510 -0.066682801
v -0.127554029 0.602771163 -0.096312612
v 0.196093500 0.707333863 0.059830230
v 0.156325683 0.942932308 -0.084791996
v -0.208352804 0.748875260 -0.054270834
v 0.039476164 0.750645995 -0.095476910
v -0.103076220 0.571074605 -0.069345638
v -0.039971691 0.603279412 -0.025111526
v 0.162137777 0.945403278 -0.102393687
v -0.215753600 0.768053174 -0.048026528
v 0.206388161 0.786981702 0.031804893
v -0.032048605 0.668978810 0.017250147
v 0.127553716 0.943714499 -0.118287005
v 0.201555684 0.757700861 0.043149453
v -0.071632199 0.766322196 0.066179082
v -0.119713306 0.611625314 -0.078972295
v -0.080937274 0.579396784 -0.080325142
v 0.046101306 0.634019196 -0.065207161
v -0.098948188 0.625295639 -0.080865040
v -0.071229175 0.605563641 -0.065694109
v -0.067933895 0.582196057 -0.056410752
v 0.071442954 0.664561749 -0.086776704
v 0.053085707 0.728482127 -0.095617130
v -0.203242183 0.727851808 0.051820345
v 0.042375617 0.795475602 0.056719970
v 0.033078313 0.772053599 0.044425357
v -0.201179191 0.752417564 0.046536520
v 0.029266518 0.748622239 0.032256652
v -0.031124821 0.776752830 -0.097603321
v 0.095111392 0.706911445 -0.111951351
v -0.189187795 0.766936421 0.067897484
v -0.068719178 0.646256089 -0.076892093
v -0.075197324 0.626008570 -0.074723236
v 0.099157706 0.646917164 -0.104989730
v -0.183711171 0.741027236 0.070279360
v -0.046422619 0.608297110 -0.053085350
v 0.117961779 0.931519330 -0.129495025
v 0.119099818 0.669229865 -0.099759832
v -0.054508209 0.630043805 -0.067739710
v -0.161689639 0.759182572 0.073549673
v -0.048047580 0.663395703 -0.074659623
v 0.115385614 0.950314164 -0.128329635
v -0.034545783 0.640546679 -0.054808665
v 0.108093359 0.617154002 -0.100692868
v -0.189388737 0.579536855 -0.013708571
v -0.197353974 0.561597407 0.009301415
v 0.135086209 0.663367033 -0.085935578
v -0.149212092 0.738421857 0.073534243
v -0.132017449 0.754053593 0.079996079
v 0.122459516 0.718353570 -0.114503764
v -0.080310032 0.833973765 0.079980277
v -0.076442197 0.949534416 0.064885184
v -0.122219466 0.729867101 0.092187867
v 0.139566422 0.711183429 -0.094637141
v -0.107389584 0.751844585 0.089518800
v -0.091386050 0.812394321 0.085536823
v 0.161684915 0.713821709 -0.084158547
v -0.096719496 0.733168125 0.073336072
v 0.119917914 0.865462303 -0.142800450
v -0.083194517 0.790095627 0.070766732
v -0.105822667 0.792858839 0.089661427
v 0.182784408 0.698737502 -0.086525388
v -0.095906198 0.772215486 0.081241883
v 0.169895619 0.632633448 -0.066589408
v 0.186668620 0.646573603 -0.072348729
v -0.089924127 0.753404975 0.072104178
v -0.069338232 0.740749419 0.067421451
v -0.120647706 0.773216069 0.089759186
v -0.030915380 0.761865258 0.037031628
v -0.131784141 0.794254601 0.083420545
v -0.117822550 0.810720146 0.075928204
v 0.185299367 0.693046927 -0.062089749
v 0.202606648 0.658501387 -0.040163059
v -0.071528211 0.811043143 0.063153468
v -0.142586797 0.774923205 0.075116619
v -0.050708830 0.671256900 0.039896749
v -0.144440502 0.813083529 0.069200732
v 0.185832649 0.665975928 -0.055877693
v -0.165697217 0.832055092 0.075790852
v 0.211014226 0.656319678 -0.018213708
v -0.189041004 0.792214692 0.064551204
v 0.217685133 0.702859282 -0.026708668
v -0.168631434 0.781421423 0.074830338
v -0.072258741 0.856624603 0.075436532
v -0.183076471 0.816185117 0.059169192
v 0.202948645 0.612416387 -0.014646423
v -0.076503262 0.900149345 0.061141968
v -0.011587453 0.781810403 -0.071733773
v -0.072086252 0.924628377 0.062462419
v -0.191315502 0.821160495 0.037920590
v -0.214801475 0.764116883 0.024273723
v -0.050355665 0.930102050 0.071076982
v -0.008799577 0.801177859 -0.079860941
v -0.111238025 0.939780056 0.048986878
v -0.215990230 0.752103567 -0.001584840
v 0.078475699 0.834156394 -0.140166655
v 0.121922716 0.912251472 -0.131371930
v -0.213818237 0.831674457 0.003043727
v -0.095309630 0.947313607 0.058281399
v 0.218350530 0.699218392 0.001871236
v 0.098378204 0.949736953 -0.137953430
v -0.181098357 0.884670258 -0.024812553
v 0.214522600 0.716116548 0.020387631
v -0.213094682 0.769715905 -0.022429474
v -0.210886031 0.795876682 -0.019863252
v -0.205983356 0.820989490 -0.020839352
v 0.098102853 0.932019353 -0.134125561
v 0.216838077 0.759886861 -0.000841020
v 0.080252253 0.942819774 -0.136468798
v -0.098038167 0.854094028 0.066470519
v -0.019835055 0.880096436 -0.142510325
v 0.201031655 0.705205083 0.037775423
v 0.059236586 0.949808955 -0.134683579
v 0.066033848 0.931164443 -0.145504385
v 0.192321002 0.602569580 0.012204005
v -0.095463127 0.923045814 0.067173190
v -0.022504786 0.856160045 -0.143181771
v -0.204586461 0.791084230 -0.059192736
v -0.169661671 0.896697819 -0.082810864
v -0.107007504 0.831649661 0.072601110
v 0.038356990 0.953001022 -0.133218020
v -0.188691273 0.791293204 -0.078881189
v 0.017041516 0.954117417 -0.130365580
v -0.163541734 0.797922373 -0.102022745
v 0.182771787 0.608332694 0.034813285
v -0.183897868 0.784126461 -0.104763605
v 0.016003700 0.938989282 -0.134989589
v -0.004855177 0.953921318 -0.129324645
v 0.201764375 0.681980252 0.048233300
v 0.194234043 0.654712021 0.054254282
v 0.082347080 0.802960098 -0.125685111
v 0.020713594 0.918409228 0.076131761
v -0.168452576 0.824224591 -0.105449580
v -0.161331967 0.773047209 -0.096245334
v -0.159379050 0.924895942 -0.090258971
v 0.066080339 0.822911084 -0.124785818
v 0.178128332 0.680575788 0.061726272
v -0.137290567 0.782273531 -0.108462498
v -0.059560686 0.561952651 -0.041166499
v -0.110379204 0.790744305 -0.134397075
v -0.071774229 0.557809830 -0.056808453
v -0.090761080 0.556547046 -0.061504733
v -0.126121223 0.772865891 -0.133712411
v 0.153535426 0.665985167 0.070427172
v 0.168811947 0.646753430 0.060156740
v -0.092809357 0.545848489 -0.076346070
v 0.159442291 0.617607236 0.058262534
v -0.112550482 0.839630127 -0.133252561
v 0.045190074 0.911772251 0.067037657
v 0.029336333 0.893711686 0.073363557
v -0.110641599 0.544432282 -0.072632946
v 0.157054827 0.695231378 0.072587088
v -0.112082049 0.814355373 -0.145419821
v 0.136218712 0.702101827 0.080380313
v 0.142881498 0.638348579 0.069946676
v -0.128602356 0.539600611 -0.079749987
v -0.004574596 0.818622410 0.041750811
v -0.006795178 0.804989994 0.026160687
v -0.106609263 0.806241512 -0.117832363
v -0.109436832 0.531304300 -0.083925076
v -0.083997615 0.856040955 -0.160891935
v -0.112320185 0.779684126 -0.114941537
v -0.123086497 0.530055046 -0.094792545
v -0.140649334 0.529522717 -0.088175550
v -0.157481894 0.531080663 -0.082054019
v -0.051042039 0.783323407 0.061811619
v -0.028445203 0.786636472 0.041473992
v 0.082161382 0.666970015 0.066038080
v 0.086861357 0.643985033 0.064800397
v -0.175278768 0.538071036 -0.077512182
v -0.158654481 0.541723728 -0.067926243
v -0.032572605 0.713536859 0.031505458
v 0.064416587 0.658854544 0.055872213
v 0.045848843 0.677130401 0.040267043
v -0.176165476 0.539495468 -0.059606962
v -0.085030124 0.842557311 -0.140988007
v 0.073533118 0.706465304 0.065228969
v -0.188563198 0.533311546 -0.046477463
v -0.049594812 0.696286023 0.056016069
v 0.028753906 0.679441035 0.017593512
v -0.037859544 0.650196075 0.031045143
v -0.099996783 0.835742176 -0.153642282
v 0.020679990 0.631890714 0.026946301
v -0.065906942 0.670761347 0.064741805
v 0.066624671 0.750407875 0.065423071
v -0.040916417 0.617599010 0.024812069
v -0.055749409 0.616167843 0.048590373
v -0.060067546 0.867151558 -0.159172609
v -0.078120396 0.876745701 -0.150601476
v -0.073162794 0.716069877 0.068103522
v -0.062099643 0.890753150 -0.148409620
v 0.095200099 0.870236754 -0.153980672
v -0.200725049 0.530461252 -0.030916402
v 0.081216231 0.729503751 0.070090063
v -0.080534451 0.618648171 0.062942497
v -0.102274619 0.710279226 0.076782405
v 0.100997470 0.845259190 -0.144787669
v -0.082752995 0.647507429 0.069557786
v -0.094191611 0.670823693 0.064727053
v -0.087664656 0.876797318 0.059203465
v 0.068078123 0.638725519 -0.078480147
v -0.062567830 0.879816055 0.075269669
v 0.103763543 0.733281612 0.079548821
v -0.106706366 0.652960420 0.069650859
v 0.139149159 0.864719689 -0.122618541
v -0.186072916 0.540425897 -0.030909102
v -0.032461412 0.737686992 0.032774616
v 0.093448222 0.626901507 -0.078657970
v -0.190800741 0.535448432 0.006595749
v -0.137520224 0.676907241 0.087994114
v 0.087842584 0.649878263 -0.083043650
v -0.183937967 0.538134575 0.024492074
v -0.112478398 0.667038143 0.086533256
v 0.120670795 0.717396796 0.085055359
v 0.127564937 0.742459655 0.085648954
v 0.131865084 0.887363911 -0.133290559
v -0.171762690 0.548677504 0.034348659
v -0.125014648 0.702476859 0.091778934
v -0.162610739 0.560374141 0.048794601
v -0.132252857 0.656282246 0.073510811
v -0.174644858 0.544741750 0.051658046
v -0.154883534 0.541595042 0.054990180
v -0.140854925 0.695624828 0.074179314
v -0.158461750 0.661297798 0.072821841
v -0.137975693 0.540645957 0.065381870
v 0.148119718 0.726160526 0.077105589
v -0.157534212 0.682226777 0.065069638
v -0.132315055 0.559483409 0.061424516
v -0.121150658 0.543923736 0.062647648
v 0.120288469 0.605506957 -0.079900183
v -0.162741214 0.702870250 0.070182294
v 0.193115622 0.735720336 0.063523382
v 0.122870088 0.626856387 -0.081131972
v 0.154204890 0.919421792 -0.108489551
v -0.102894686 0.544755697 0.059804507
v -0.152024612 0.640508354 0.071481057
v -0.087098390 0.546849966 0.049273521
v 0.136382714 0.930587411 -0.137396470
v -0.072139323 0.549777389 0.036916409
v -0.061819337 0.556149125 0.020286966
v 0.201962069 0.729089737 0.040248267
v 0.156550080 0.882570565 -0.132059038
v -0.050088793 0.564090312 0.006052267
v -0.032281160 0.569318831 0.000121742
v -0.184765533 0.714963496 0.064026482
v -0.039179899 0.590902209 -0.002228952
v -0.177649811 0.669056296 0.054179341
v 0.140444070 0.616443276 -0.080589131
v 0.168043360 0.858252645 -0.122167870
v 0.215281874 0.742224336 0.020484608
v -0.203185990 0.702426195 0.052348573
v -0.199502081 0.651851058 0.053739775
v -0.203162238 0.677361190 0.051767033
v -0.045350939 0.745676637 -0.101616308
v 0.159869045 0.607304454 -0.089186206
v 0.215379924 0.756794035 -0.025932947
v 0.144583285 0.897659004 -0.117211118
v 0.010003967 0.802454770 -0.082415573
v -0.061032385 0.767399311 -0.101598345
v 0.064255357 0.749067485 -0.104200363
v -0.048384979 0.725346684 0.054675013
v 0.213526756 0.729375541 -0.007527784
v -0.195489898 0.663796306 0.028119404
v -0.216587141 0.705607057 0.012060720
v -0.196315914 0.800671458 0.041662421
v 0.160816550 0.608735919 -0.065439880
v -0.201083586 0.654620469 0.001608397
v 0.125706583 0.910940528 0.064926609
v 0.218976736 0.731161952 -0.037344642
v -0.214224488 0.677830637 0.008411872
v -0.211121112 0.695079803 -0.014549931
v -0.218347386 0.713571846 -0.033879794
v 0.177709341 0.599649310 -0.049074806
v 0.204564899 0.711697161 -0.051282048
v -0.219337463 0.638771057 -0.011105908
v -0.217768192 0.806040168 0.001473541
v 0.156106293 0.874551952 -0.108291961
v -0.039418899 0.950616837 0.077729955
v 0.197526947 0.738933802 -0.054284513
v 0.199317694 0.746442676 -0.081519723
v -0.096266836 0.827273011 -0.127399713
v -0.070538625 0.825102627 -0.134381220
v 0.186538070 0.618589342 -0.065337636
v -0.222177297 0.667093635 -0.021230152
v 0.196186692 0.583608568 -0.054045599
v 0.186574176 0.719975114 -0.068083003
v -0.026262814 0.952578425 -0.132402793
v -0.047216333 0.948777497 -0.135669306
v 0.167983875 0.852856815 -0.093404375
v 0.016133269 0.770372093 0.022735516
v -0.067195520 0.941074371 -0.138605520
v -0.046944708 0.752511322 0.058011960
v 0.183655307 0.723737478 -0.090143189
v 0.169695601 0.741504312 -0.085997507
v -0.084770150 0.929599166 -0.138660699
v 0.174289808 0.880801797 -0.092288189
v -0.200655341 0.646090388 -0.029344821
v -0.082685456 0.946002781 -0.146164060
v -0.095502749 0.923573017 -0.154382646
v -0.214827627 0.811903358 -0.044999428
v -0.096551523 0.944506824 -0.133227319
v -0.115430579 0.945071697 -0.130026951
v 0.161300421 0.726753056 -0.108215854
v -0.195998251 0.708872974 -0.059278172
v -0.192483112 0.818444729 -0.066138640
v -0.190487072 0.837846398 -0.091622785
v -0.198208451 0.666265368 -0.044035308
v 0.181306094 0.865651965 -0.070164725
v 0.164193004 0.922442317 -0.078491665
v -0.181274682 0.600554466 -0.048155140
v 0.044103563 0.749065936 0.053579666
v 0.136635065 0.734967232 -0.101070523
v -0.077851720 0.806618989 -0.119971693
v -0.177137867 0.722239017 -0.080370627
v 0.181879342 0.919005096 -0.065595433
v -0.092973098 0.787848532 -0.120302871
v -0.175583214 0.593484819 -0.073228195
v 0.124075904 0.742524981 -0.118515834
v -0.178803429 0.659491181 -0.063486129
v -0.168870956 0.652063847 -0.092928246
v 0.184961826 0.916713536 -0.042663895
v -0.169121653 0.674879849 -0.076636478
v -0.170615166 0.706173778 -0.102749661
v 0.189750656 0.863971055 -0.035702489
v -0.161412448 0.624248505 -0.089396030
v -0.031144485 0.667114556 -0.053327639
v 0.079766020 0.729676604 -0.104997620
v -0.133373380 0.945323825 -0.127938643
v -0.125524670 0.930644333 -0.124007061
v -0.155896202 0.721932828 -0.089263305
v -0.151282042 0.696515858 -0.085791931
v -0.147572950 0.670091629 -0.081890181
v -0.144501880 0.643044949 -0.078190103
v -0.124520585 0.823842406 -0.119238511
v 0.067631319 0.796281874 0.068412855
v 0.206251174 0.610736370 -0.047090732
v -0.150071934 0.949122548 -0.095801309
v -0.161258370 0.951254725 -0.078883313
v 0.209949046 0.634503245 -0.032385163
v -0.019555846 0.581701338 -0.002991636
v -0.166912675 0.948468566 -0.060203612
v 0.199448287 0.872541249 -0.009378312
v -0.170351431 0.940901577 -0.042455934
v -0.172990173 0.924610496 -0.029554447
v -0.175134867 0.942626476 -0.025726095
v 0.214302629 0.755830705 -0.050002404
v 0.171252817 0.920553863 -0.027767684
v -0.169670910 0.942113698 -0.007468168
v -0.158125654 0.929041564 0.000213767
v -0.149450541 0.935752749 0.015790770
v 0.050484043 0.793436587 -0.099035546
v -0.136329040 0.932402611 0.027709177
v 0.188241124 0.917074978 -0.015022941
v -0.152717620 0.937408090 0.033593766
v -0.135144398 0.628228784 -0.100240692
v 0.189669013 0.862183690 0.014926055
v 0.013052179 0.719833672 -0.054919165
v -0.013808112 0.704485476 -0.049202677
v -0.012997727 0.723272741 -0.055070139
v 0.136192098 0.921556473 -0.118502438
v -0.139057860 0.655057311 -0.103950880
v -0.012760358 0.742479622 -0.060204588
v -0.135870576 0.710003078 -0.105947815
v 0.010579580 0.741727531 -0.060587190
v -0.012986070 0.762055218 -0.065459073
v -0.138603061 0.939262688 0.046913702
v 0.172491148 0.756834090 -0.104977451
v 0.168426603 0.910085320 -0.004089467
v -0.112731472 0.645144522 -0.107072830
v -0.143190324 0.923322797 0.039859757
v -0.125237942 0.930271506 0.041214097
v 0.159199715 0.894657969 0.021803688
v 0.043882720 0.862705886 -0.148946628
v -0.139175877 0.682730973 -0.106509686
v -0.125476450 0.727966189 -0.131033137
v 0.157775551 0.919249058 0.014223283
v -0.114459135 0.670904636 -0.115999959
v 0.184609175 0.851706028 0.039308269
v -0.120973505 0.666448832 -0.091927417
v -0.010153685 0.745233595 0.011150761
v -0.109101810 0.914864838 0.049516730
v 0.126064330 0.916040599 0.040839147
v 0.134223849 0.894753337 0.042939324
v 0.146021530 0.915818572 0.033426326
v -0.098800845 0.652155817 -0.089349806
v -0.117726728 0.692802429 -0.099737450
v -0.093322366 0.676830530 -0.098893203
v 0.048139535 0.635247946 0.027521100
v -0.112824559 0.717756391 -0.108054198
v 0.051376421 0.912006378 -0.149389997
v -0.087495320 0.701721132 -0.104705438
v 0.022970844 0.903634071 -0.146055564
v -0.042800240 0.851128697 -0.149488464
v -0.038129620 0.880954146 -0.157415852
v 0.197005898 0.628424227 0.009394525
v 0.189003453 0.636720479 0.032733358
v -0.058569830 0.691699684 -0.090368904
v -0.061511051 0.720035315 -0.102813199
v -0.138396844 0.942025363 -0.111632384
v 0.164874926 0.859570205 0.046556935
v 0.153419837 0.860877991 0.068580359
v -0.185805038 0.557214081 -0.016197912
v 0.178852424 0.596096635 0.059480190
v 0.186525241 0.625173032 0.056954212
v -0.192039773 0.538222611 -0.012425194
v 0.133409530 0.880871177 0.070501313
v -0.049051989 0.585445404 -0.039066177
v -0.052583851 0.570468068 -0.024976233
v 0.010392910 0.624464393 0.002972395
v -0.040523794 0.577369213 -0.013559567
v -0.020378176 0.932167411 0.070743687
v 0.068847626 0.898723304 -0.152686983
v -0.020928783 0.949780464 0.077987403
v -0.040209923 0.608033776 0.006445562
v 0.137129411 0.610270858 0.074864641
v 0.039179899 0.933751583 0.071628906
v 0.078631736 0.565524697 0.050149750
v 0.066749148 0.585644126 0.045638368
v 0.105657563 0.576810002 0.063446514
v 0.045533445 0.834262192 -0.141606048
v 0.130468339 0.581505418 0.075004011
v 0.058356822 0.597486973 0.024925400
v 0.186784834 0.576169729 0.016100129
v 0.128790885 0.846200943 0.063571796
v 0.113419615 0.865897655 0.057932716
v 0.190542206 0.894091725 0.008546220
v 0.109997928 0.602402449 0.071859963
v 0.177200392 0.890582919 -0.025258198
v 0.196337819 0.888582051 -0.053549867
v 0.060995024 0.928754210 0.076251954
v 0.088162474 0.618433177 0.062994190
v 0.113015987 0.632304370 0.079033054
v 0.171897233 0.894751072 -0.070932098
v 0.171990663 0.909853756 -0.094396189
v 0.086143881 0.592602134 0.059278596
v 0.162177622 0.896248698 -0.106333233
v 0.170302659 0.575366139 -0.054152947
v 0.173879445 0.585345626 -0.080964938
v 0.063585028 0.632425964 0.051495664
v 0.139513940 0.587238669 -0.071426660
v 0.145388275 0.907403648 -0.137385517
v 0.064250588 0.606577992 0.052696120
v 0.114408299 0.687708199 0.082186595
v 0.151904613 0.587828517 0.058240809
v 0.176855892 0.580369949 0.037128802
v 0.201911956 0.588282228 0.034059048
v 0.203246593 0.685148895 -0.047115501
v 0.159558147 0.695934653 -0.103317961
v 0.045001514 0.614017725 0.035182305
v 0.138769448 0.686145067 -0.088733166
v 0.189158097 0.594531476 -0.029375613
v 0.199908525 0.585456967 -0.005815633
v 0.038268119 0.655393004 0.017857423
v 0.008472199 0.681447804 0.004664029
v 0.090893641 0.874193192 0.059174456
v 0.075483561 0.918772101 0.062064953
v 0.015499128 0.704064012 0.010722131
v 0.038843237 0.817128301 0.043930404
v 0.021244340 0.794820905 0.033166759
v 0.020351749 0.620551944 -0.025194934
v 0.064793937 0.903534532 0.079263084
v 0.032643951 0.658179939 -0.057200372
v 0.040029790 0.873573303 0.069109656
v 0.055234008 0.888636470 0.062982455
v 0.017964674 0.872571290 0.069243848
v 0.041731499 0.598207772 -0.025974989
v 0.050121628 0.660045683 -0.075486690
v 0.077348195 0.772933960 0.071247019
v 0.204741746 0.689633727 0.022928568
v 0.194614410 0.799685299 -0.064604156
v 0.054417033 0.584979177 -0.050962828
v 0.159867853 0.685099006 -0.078295708
v 0.129220754 0.785713434 -0.111879684
v 0.121452510 0.693963408 -0.107470647
v 0.078202948 0.577532291 -0.072007954
v 0.042898618 0.706179738 -0.087052599
v 0.032141168 0.775291681 -0.093359835
v 0.114124082 0.587446153 -0.095652297
v 0.108372912 0.572581291 -0.072003171
v 0.106864713 0.919815898 -0.148139507
v 0.075795881 0.893275380 0.062418908
v 0.071438707 0.871469140 0.081432544
v 0.127716720 0.563345492 -0.093703672
v 0.032097641 0.853480518 0.063757531
v 0.050436296 0.840302587 0.049105078
v 0.083742507 0.920664787 -0.157958418
v 0.150849536 0.558766425 -0.070507236
v 0.180351645 0.766442001 -0.083426543
v 0.021318682 0.834196746 -0.119986460
v 0.154398173 0.628631234 -0.075142428
v 0.181526840 0.560031712 -0.073220365
v 0.014492460 0.698590398 -0.049506575
v 0.164491370 0.553636253 -0.056765027
v 0.031146403 0.800953090 -0.090239331
v 0.189658090 0.555909574 -0.052288078
v 0.182284728 0.574252367 -0.038220026
v 0.057948820 0.726980090 0.059702583
v 0.109206483 0.891435027 -0.141937077
v 0.091447778 0.896212399 -0.157305494
v 0.015618319 0.780708432 -0.074810341
v 0.199415445 0.568404913 -0.023954052
v 0.118456401 0.645763397 -0.090629913
v 0.202088907 0.637123287 -0.011202911
v 0.207693622 0.616624475 0.029572854
v 0.157807991 0.635954797 -0.094006747
v 0.141078204 0.642800391 -0.081194215
v 0.194583088 0.557702780 0.037525937
v 0.171710879 0.845069110 0.061637916
v 0.208327919 0.845379055 0.006227984
v 0.189669460 0.637524009 -0.047775488
v 0.042558443 0.612278283 -0.048946850
v 0.172475666 0.563895643 0.062464200
v 0.088738143 0.752102792 0.074876860
v 0.200951621 0.654690564 0.003384099
v 0.212396309 0.644127607 0.023019377
v 0.092872739 0.667300522 -0.092509739
v 0.144362479 0.557386160 0.059562355
v 0.128525943 0.838330448 -0.134705320
v -0.009604954 0.765362918 0.014282504
v -0.013439352 0.665722072 0.004255748
v 0.050172903 0.651891530 0.039858509
v 0.120292604 0.556193888 0.072344996
v 0.148957491 0.844993889 -0.109213151
v -0.011254516 0.725232720 0.008579899
v -0.008548843 0.785519242 0.018675467
v 0.099799968 0.554376125 0.057547670
v 0.022626951 0.833183885 0.056015413
v -0.004116190 0.833419323 0.055856682
v 0.113215581 0.890126407 0.049307920
v 0.061322521 0.571990192 0.028671762
v 0.108422443 0.915692508 0.049026676
v 0.194217220 0.559146345 -0.002641769
v 0.108573437 0.754113555 0.083322950
v 0.037041355 0.929012597 -0.143010706
v 0.037991665 0.582387686 0.018715803
v 0.068965718 0.877020001 -0.155188948
v 0.012253220 0.597596884 0.015880799
v 0.037307408 0.611162543 0.008579442
v 0.038963400 0.811392128 -0.118936732
v 0.014795028 0.819414258 0.037920356
v 0.013203291 0.652544856 0.005255799
v -0.015598093 0.646657407 0.002791659
v -0.011625064 0.705246329 0.006312779
v 0.181693286 0.556384444 -0.028080648
v -0.012184544 0.685403109 0.004708500
v 0.066343412 0.608306766 -0.072605416
v 0.090059616 0.754082799 -0.109324954
v 0.111584522 0.765827358 -0.124104917
v 0.168881729 0.745546639 0.071328349
v 0.097710848 0.709793508 0.075467668
v 0.172671363 0.716186523 0.066059716
v 0.099392697 0.600185871 -0.073797092
v 0.183771744 0.551284552 0.016198820
f 555 540 123
f 389 162 497
f 567 540 568
f 583 104 251
f 463 489 430
f 453 94 255
f 483 484 162
f 446 640 671
f 574 577 251
f 50 244 238
f 52 244 50
f 575 57 53
f 55 249 52
f 55 2 250
f 577 248 563
f 575 437 432
f 57 597 589
f 2 265 262
f 589 592 57
f 262 259 2
f 5 267 262
f 602 606 589
f 5 9 11
f 58 606 610
f 11 272 5
f 12 278 11
f 565 793 8
f 630 60 632
f 13 425 12
f 424 289 160
f 289 424 13
f 643 649 60
f 181 403 179
f 483 206 484
f 163 651 174
f 53 563 558
f 651 65 650
f 163 389 384
f 683 66 65
f 455 558 563
f 165 384 171
f 340 331 34
f 67 66 683
f 206 470 63
f 385 102 856
f 67 702 70
f 344 340 696
f 179 403 406
f 710 70 702
f 16 352 14
f 111 112 59
f 63 64 655
f 18 368 16
f 710 742 753
f 119 112 111
f 394 671 545
f 551 922 903
f 19 375 18
f 753 740 711
f 406 470 179
f 261 615 108
f 545 453 439
f 178 386 530
f 24 386 23
f 72 753 742
f 26 396 24
f 768 765 72
f 119 142 112
f 32 63 470
f 112 142 161
f 399 400 396
f 154 343 182
f 545 671 448
f 399 415 400
f 768 770 765
f 32 406 410
f 418 415 399
f 770 183 777
f 387 300 166
f 415 418 422
f 105 86 299
f 169 42 839
f 170 142 119
f 173 172 705
f 329 638 343
f 134 738 737
f 185 638 329
f 692 661 145
f 150 74 741
f 637 345 873
f 132 145 661
f 170 184 142
f 138 495 760
f 138 136 188
f 136 194 188
f 201 87 194
f 270 87 205
f 216 49 210
f 46 216 724
f 198 184 170
f 43 96 907
f 219 39 218
f 45 43 41
f 224 37 219
f 498 224 514
f 86 105 342
f 225 36 514
f 378 107 110
f 80 233 107
f 22 41 43
f 198 217 849
f 41 581 45
f 103 233 76
f 76 40 103
f 222 217 214
f 678 100 40
f 98 41 22
f 366 41 98
f 40 76 678
f 215 4 284
f 215 98 21
f 537 536 92
f 222 234 217
f 904 537 92
f 460 462 30
f 284 471 366
f 222 239 246
f 586 903 759
f 462 28 30
f 246 234 222
f 454 449 28
f 237 391 924
f 560 319 921
f 246 888 252
f 431 471 282
f 455 560 391
f 319 560 241
f 50 238 793
f 50 566 52
f 52 574 55
f 258 263 510
f 244 52 249
f 55 253 2
f 284 792 657
f 303 670 667
f 303 100 674
f 250 249 55
f 273 274 252
f 251 253 574
f 100 303 301
f 301 570 100
f 104 261 257
f 677 100 678
f 273 285 274
f 257 2 253
f 2 257 265
f 250 2 259
f 570 568 40
f 752 292 293
f 294 296 285
f 285 296 274
f 684 497 679
f 277 274 296
f 440 447 442
f 579 489 463
f 692 329 695
f 259 262 267
f 871 736 360
f 262 271 9
f 40 100 570
f 570 567 568
f 203 128 270
f 310 296 294
f 305 296 310
f 87 270 194
f 9 5 262
f 5 272 600
f 276 9 271
f 9 276 11
f 272 11 278
f 302 323 310
f 568 103 40
f 108 615 89
f 280 11 276
f 11 280 12
f 103 568 540
f 278 12 425
f 323 337 328
f 283 12 280
f 12 283 13
f 283 297 289
f 289 13 283
f 540 561 231
f 425 13 424
f 209 288 205
f 291 125 286
f 346 337 323
f 49 304 288
f 173 350 351
f 297 654 314
f 347 158 864
f 304 47 311
f 47 304 49
f 47 46 481
f 360 361 855
f 501 684 146
f 481 311 47
f 46 39 481
f 343 695 329
f 314 289 297
f 289 314 160
f 481 321 308
f 481 39 321
f 325 122 321
f 325 321 37
f 37 321 39
f 333 160 314
f 324 266 333
f 527 107 231
f 84 121 325
f 36 327 498
f 160 333 34
f 327 120 84
f 36 82 371
f 277 393 390
f 689 34 333
f 34 689 340
f 313 34 331
f 266 334 689
f 334 260 341
f 340 335 331
f 107 527 110
f 54 404 405
f 696 14 344
f 61 401 44
f 38 299 407
f 358 14 348
f 14 358 16
f 344 14 352
f 356 704 712
f 352 16 368
f 413 62 417
f 370 16 358
f 16 370 18
f 175 705 134
f 713 115 110
f 371 27 378
f 27 371 82
f 381 18 370
f 18 381 19
f 368 18 375
f 80 378 27
f 19 381 235
f 19 395 23
f 19 23 178
f 202 506 913
f 23 395 24
f 386 24 396
f 398 24 395
f 24 398 26
f 26 398 220
f 26 412 399
f 396 26 399
f 418 399 412
f 164 180 444
f 444 443 164
f 175 173 705
f 685 84 120
f 422 300 415
f 685 121 84
f 172 169 300
f 172 300 422
f 78 80 27
f 226 365 78
f 89 615 114
f 240 485 309
f 134 737 175
f 226 27 82
f 245 459 452
f 187 186 140
f 243 459 245
f 189 187 130
f 581 466 579
f 467 472 637
f 308 122 240
f 138 579 466
f 430 255 463
f 499 435 430
f 453 430 435
f 435 440 439
f 435 499 450
f 243 479 281
f 308 321 122
f 897 438 584
f 439 453 435
f 243 281 893
f 450 440 435
f 480 859 865
f 440 449 447
f 442 439 440
f 450 449 440
f 447 449 454
f 492 488 493
f 127 458 456
f 449 456 28
f 82 225 708
f 454 28 462
f 28 456 30
f 456 450 127
f 30 456 458
f 225 82 36
f 30 464 460
f 506 507 502
f 126 469 125
f 287 508 509
f 207 507 506
f 410 460 32
f 126 306 477
f 460 464 644
f 644 32 460
f 32 644 63
f 475 31 576
f 470 406 32
f 64 63 644
f 306 309 477
f 125 464 458
f 528 795 511
f 516 523 524
f 655 206 63
f 206 655 484
f 206 474 470
f 162 679 497
f 316 322 822
f 313 160 34
f 37 498 325
f 523 316 534
f 497 684 501
f 501 146 505
f 146 512 503
f 505 503 513
f 263 515 510
f 512 120 115
f 503 512 91
f 517 513 503
f 115 713 91
f 458 203 125
f 315 547 548
f 91 512 115
f 547 330 336
f 91 713 88
f 517 88 522
f 552 548 547
f 532 88 713
f 88 532 519
f 552 336 553
f 522 519 541
f 527 231 561
f 127 128 458
f 538 660 692
f 514 36 498
f 224 498 37
f 538 692 695
f 114 626 631
f 553 342 105
f 219 37 39
f 555 660 561
f 127 450 499
f 891 199 824
f 660 555 661
f 218 39 46
f 199 97 886
f 366 98 284
f 22 21 98
f 41 366 581
f 43 232 22
f 907 232 43
f 96 536 907
f 45 463 255
f 45 581 463
f 255 94 96
f 255 96 45
f 94 453 545
f 448 546 545
f 582 593 594
f 595 584 438
f 216 46 47
f 216 47 49
f 551 640 558
f 558 640 569
f 49 288 209
f 793 565 50
f 569 53 558
f 566 50 565
f 209 210 49
f 841 351 350
f 574 52 566
f 578 53 57
f 612 609 423
f 53 578 563
f 575 53 569
f 597 432 211
f 253 55 574
f 57 575 597
f 578 57 592
f 592 583 578
f 627 609 612
f 584 621 628
f 603 589 606
f 602 589 597
f 634 819 627
f 610 606 602
f 835 318 229
f 626 606 58
f 610 624 58
f 58 624 630
f 632 58 630
f 634 884 869
f 58 632 626
f 60 642 632
f 642 60 649
f 60 630 181
f 650 649 643
f 662 652 645
f 656 628 621
f 621 636 656
f 658 659 204
f 64 644 469
f 466 495 138
f 694 377 700
f 468 471 431
f 663 650 65
f 628 656 668
f 679 162 484
f 65 686 663
f 672 673 659
f 686 65 66
f 683 65 651
f 468 431 478
f 683 693 67
f 685 146 684
f 146 685 512
f 696 340 689
f 66 67 701
f 473 495 478
f 66 698 686
f 702 67 693
f 668 675 687
f 701 698 66
f 405 690 54
f 701 67 70
f 54 690 564
f 14 696 348
f 711 70 710
f 699 70 711
f 702 709 710
f 229 318 236
f 657 282 471
f 710 709 742
f 753 756 740
f 756 753 72
f 742 754 72
f 72 754 768
f 72 765 756
f 766 765 770
f 490 193 496
f 130 772 496
f 770 776 766
f 15 719 168
f 87 201 148
f 183 770 768
f 201 194 136
f 422 705 172
f 633 777 338
f 777 633 150
f 408 74 633
f 638 185 408
f 106 730 258
f 688 379 694
f 275 631 118
f 185 692 145
f 197 750 749
f 736 737 738
f 263 258 730
f 738 741 743
f 185 145 143
f 743 741 744
f 744 741 74
f 744 467 879
f 132 140 145
f 123 132 661
f 741 738 150
f 123 540 567
f 773 772 567
f 738 134 150
f 78 27 226
f 238 623 1
f 264 279 779
f 776 150 134
f 134 705 420
f 695 541 538
f 104 599 261
f 365 681 680
f 761 762 763
f 365 678 76
f 76 78 365
f 411 156 420
f 156 411 220
f 541 519 538
f 220 764 156
f 76 233 78
f 80 78 233
f 168 789 387
f 70 699 701
f 398 395 228
f 434 437 445
f 779 780 887
f 428 432 434
f 926 317 706
f 197 749 745
f 213 6 4
f 279 785 780
f 419 427 428
f 148 201 745
f 454 462 419
f 526 782 783
f 381 734 235
f 410 414 419
f 493 769 913
f 511 4 215
f 4 511 213
f 406 414 410
f 208 731 729
f 21 511 215
f 210 728 727
f 794 800 823
f 511 21 529
f 470 474 179
f 724 218 46
f 227 110 115
f 118 280 275
f 219 218 722
f 806 800 794
f 803 804 256
f 716 778 225
f 224 219 720
f 407 86 690
f 356 734 381
f 389 497 380
f 809 795 528
f 810 806 811
f 717 716 514
f 497 501 380
f 317 697 429
f 810 818 821
f 913 771 202
f 341 698 699
f 373 376 159
f 369 177 373
f 341 260 698
f 260 334 266
f 365 226 681
f 517 522 354
f 828 821 818
f 354 362 364
f 569 640 446
f 519 522 88
f 767 828 818
f 266 324 676
f 602 597 211
f 804 834 256
f 121 240 122
f 345 868 918
f 610 602 211
f 169 839 166
f 427 195 211
f 643 179 174
f 683 651 165
f 693 683 171
f 627 884 634
f 324 654 676
f 846 397 841
f 841 397 374
f 362 709 369
f 580 397 846
f 192 188 190
f 192 499 489
f 128 192 190
f 270 205 203
f 205 288 286
f 291 306 126
f 208 148 733
f 288 304 291
f 304 311 306
f 311 481 308
f 286 125 203
f 283 118 297
f 589 599 592
f 283 280 118
f 227 115 120
f 747 805 732
f 707 226 82
f 107 378 80
f 275 114 631
f 118 646 297
f 89 114 275
f 231 233 103
f 87 209 205
f 816 872 870
f 271 108 89
f 248 560 455
f 248 241 560
f 108 271 265
f 566 565 241
f 86 876 690
f 622 244 619
f 517 91 88
f 574 566 248
f 715 662 889
f 244 249 618
f 249 250 614
f 882 465 718
f 253 251 257
f 774 465 882
f 250 259 608
f 883 494 774
f 921 391 560
f 259 267 604
f 54 564 847
f 251 577 583
f 600 267 5
f 89 276 271
f 503 91 517
f 690 405 407
f 275 276 89
f 892 573 582
f 272 278 596
f 248 577 574
f 280 276 275
f 425 588 591
f 425 424 781
f 781 313 572
f 424 313 781
f 572 585 781
f 314 654 324
f 136 197 201
f 313 557 572
f 237 551 558
f 554 331 335
f 334 341 348
f 760 136 138
f 335 344 549
f 341 699 704
f 348 696 334
f 921 319 7
f 358 348 704
f 344 352 544
f 912 582 594
f 903 586 551
f 352 368 543
f 381 370 356
f 368 375 539
f 788 8 3
f 535 375 178
f 221 795 809
f 828 767 562
f 559 833 920
f 921 920 899
f 546 448 898
f 903 922 836
f 38 903 299
f 235 228 395
f 405 669 407
f 546 92 94
f 400 518 520
f 92 546 904
f 639 35 926
f 386 396 525
f 927 926 33
f 928 605 930
f 200 490 298
f 94 545 546
f 96 92 536
f 927 56 852
f 143 472 408
f 220 412 26
f 400 520 521
f 412 220 411
f 109 113 152
f 920 832 559
f 418 412 411
f 152 113 746
f 387 789 786
f 420 418 411
f 746 161 867
f 418 420 422
f 490 773 298
f 496 772 773
f 394 442 445
f 562 767 832
f 739 636 820
f 204 725 658
f 773 490 496
f 725 223 635
f 447 454 428
f 472 186 637
f 215 284 98
f 189 130 496
f 458 464 30
f 410 462 460
f 125 469 464
f 635 247 487
f 487 269 629
f 641 487 629
f 268 269 487
f 269 393 629
f 390 269 268
f 469 126 64
f 349 761 763
f 655 64 477
f 303 674 670
f 290 393 277
f 611 290 928
f 163 474 483
f 928 307 605
f 635 641 648
f 531 605 533
f 677 674 100
f 477 309 485
f 506 202 207
f 679 485 240
f 240 121 684
f 312 912 594
f 684 679 240
f 121 685 684
f 186 187 345
f 503 505 146
f 912 332 892
f 772 130 132
f 685 120 512
f 501 505 159
f 725 648 658
f 505 513 373
f 513 517 364
f 892 847 564
f 110 527 713
f 714 847 339
f 522 541 154
f 51 714 346
f 231 103 540
f 714 51 404
f 541 695 343
f 567 772 123
f 502 500 506
f 578 577 563
f 867 659 673
f 577 578 583
f 597 575 432
f 592 104 583
f 913 492 493
f 845 167 839
f 599 104 592
f 386 178 23
f 599 603 615
f 110 227 378
f 615 261 599
f 706 402 639
f 603 626 114
f 132 123 772
f 624 610 195
f 409 706 317
f 746 673 682
f 114 615 603
f 120 327 227
f 624 414 403
f 691 429 697
f 642 631 632
f 642 118 631
f 429 433 853
f 646 118 642
f 642 649 646
f 152 682 691
f 682 433 691
f 181 643 60
f 654 297 646
f 122 325 121
f 140 130 187
f 421 416 617
f 123 661 555
f 309 308 240
f 698 260 686
f 702 693 177
f 698 701 699
f 672 441 436
f 291 126 125
f 109 691 697
f 143 140 186
f 874 872 816
f 665 441 672
f 188 192 489
f 665 658 653
f 712 704 699
f 653 451 665
f 927 697 317
f 712 740 734
f 648 461 653
f 178 375 19
f 923 880 116
f 641 461 648
f 740 756 748
f 748 758 228
f 926 706 639
f 479 641 482
f 754 742 362
f 354 754 362
f 407 669 38
f 203 458 128
f 482 629 620
f 756 765 758
f 182 754 154
f 128 127 192
f 254 246 252
f 611 382 620
f 764 398 228
f 499 192 127
f 764 766 156
f 766 776 156
f 930 611 928
f 420 156 776
f 140 132 130
f 788 7 8
f 387 166 168
f 420 776 134
f 136 760 197
f 300 387 415
f 750 197 760
f 745 201 197
f 148 208 209
f 733 148 745
f 258 35 106
f 593 533 605
f 731 208 733
f 236 318 910
f 729 210 208
f 728 210 729
f 727 216 210
f 188 489 579
f 929 573 556
f 724 216 727
f 573 929 582
f 723 218 724
f 722 218 723
f 720 219 722
f 717 224 720
f 514 224 717
f 188 579 138
f 876 556 573
f 707 681 226
f 898 904 546
f 472 143 186
f 212 795 221
f 899 391 921
f 854 925 931
f 213 795 212
f 140 143 145
f 404 54 714
f 833 922 924
f 415 387 786
f 143 408 185
f 238 3 793
f 1 3 238
f 31 799 752
f 622 238 244
f 918 799 515
f 380 376 171
f 915 752 357
f 617 476 421
f 619 244 618
f 618 249 616
f 616 249 614
f 636 739 613
f 388 613 10
f 614 250 608
f 357 791 915
f 383 688 388
f 608 259 607
f 571 438 576
f 295 667 666
f 92 96 94
f 607 259 604
f 372 726 700
f 667 295 303
f 367 726 372
f 604 267 601
f 298 295 207
f 923 875 880
f 363 732 367
f 408 467 74
f 148 209 87
f 298 301 295
f 359 747 363
f 601 267 600
f 359 355 755
f 600 272 598
f 598 272 596
f 353 755 355
f 301 298 773
f 596 278 591
f 747 755 751
f 591 278 425
f 588 425 781
f 388 688 813
f 769 771 913
f 763 353 349
f 202 771 200
f 506 500 913
f 74 467 744
f 773 570 301
f 82 708 707
f 320 647 326
f 500 492 913
f 331 554 557
f 242 910 320
f 344 335 340
f 910 908 647
f 554 335 550
f 239 222 703
f 549 550 335
f 549 344 544
f 166 167 168
f 544 352 543
f 543 368 542
f 17 15 167
f 17 845 157
f 907 536 919
f 157 850 155
f 155 850 153
f 542 368 539
f 150 633 74
f 153 854 151
f 151 854 149
f 149 858 147
f 147 862 144
f 539 375 535
f 759 903 38
f 530 535 178
f 144 862 141
f 141 866 139
f 139 866 137
f 530 386 525
f 137 870 135
f 525 396 521
f 135 870 872
f 133 872 131
f 131 874 129
f 129 923 117
f 923 874 875
f 170 119 902
f 521 396 400
f 20 932 101
f 99 101 932
f 99 886 97
f 95 97 199
f 95 891 93
f 93 896 90
f 518 400 786
f 90 896 85
f 85 901 83
f 83 905 81
f 169 166 300
f 81 905 79
f 77 79 796
f 77 909 75
f 439 394 545
f 75 914 73
f 73 914 71
f 71 916 69
f 442 394 439
f 468 466 366
f 442 447 434
f 7 562 920
f 794 534 811
f 924 899 833
f 434 447 428
f 428 454 419
f 419 462 410
f 38 898 759
f 902 111 897
f 466 468 495
f 526 524 534
f 25 59 56
f 96 43 45
f 895 401 61
f 182 343 338
f 483 389 163
f 483 162 389
f 897 59 25
f 883 894 775
f 776 777 150
f 59 897 111
f 380 384 389
f 774 882 893
f 111 902 119
f 778 708 225
f 501 159 380
f 167 166 839
f 159 505 373
f 176 191 867
f 373 513 369
f 364 369 513
f 850 890 925
f 354 364 517
f 354 522 154
f 177 369 709
f 154 541 343
f 446 445 437
f 376 380 159
f 204 223 725
f 217 198 214
f 214 703 222
f 437 569 446
f 610 211 195
f 414 624 195
f 403 630 624
f 889 718 715
f 160 313 424
f 181 630 403
f 888 246 239
f 179 643 181
f 174 650 643
f 651 650 174
f 163 384 165
f 487 247 268
f 165 651 163
f 171 683 165
f 174 474 163
f 557 313 331
f 475 515 799
f 376 693 171
f 285 273 757
f 177 693 376
f 627 885 884
f 174 179 474
f 509 508 516
f 294 302 310
f 709 702 177
f 709 362 742
f 154 754 354
f 182 338 183
f 780 785 803
f 183 768 182
f 423 413 881
f 183 338 777
f 638 338 343
f 633 638 408
f 590 401 895
f 692 185 329
f 190 188 194
f 515 475 25
f 270 190 194
f 190 270 128
f 195 427 414
f 7 788 562
f 915 878 571
f 877 595 438
f 203 205 286
f 44 48 61
f 474 206 483
f 210 209 208
f 61 62 895
f 413 895 62
f 211 432 427
f 172 42 169
f 398 764 220
f 515 263 918
f 437 575 569
f 228 758 764
f 124 885 426
f 175 871 350
f 84 498 327
f 225 514 716
f 327 371 227
f 918 263 730
f 898 448 759
f 371 327 36
f 839 374 890
f 227 371 378
f 451 441 665
f 228 235 748
f 444 180 457
f 233 231 107
f 187 868 345
f 759 448 586
f 189 292 868
f 734 748 235
f 653 461 826
f 924 922 237
f 292 193 196
f 446 671 394
f 461 641 479
f 922 551 237
f 391 237 455
f 482 641 629
f 918 868 799
f 196 200 293
f 771 293 200
f 558 455 237
f 281 287 894
f 894 893 281
f 248 566 241
f 257 251 104
f 255 430 453
f 257 261 265
f 509 775 287
f 260 266 676
f 509 516 524
f 265 261 108
f 523 516 531
f 322 316 523
f 273 252 888
f 265 271 262
f 811 534 316
f 316 315 811
f 676 686 260
f 366 466 581
f 478 495 468
f 330 547 315
f 547 336 552
f 366 471 468
f 760 495 473
f 657 471 284
f 336 342 553
f 553 900 552
f 832 900 553
f 865 878 791
f 792 284 4
f 31 571 576
f 286 288 291
f 438 571 877
f 906 864 863
f 4 790 792
f 8 7 319
f 303 295 301
f 291 304 306
f 570 773 567
f 739 617 392
f 617 416 392
f 306 311 309
f 309 311 308
f 170 628 668
f 613 739 10
f 739 392 10
f 656 675 668
f 656 815 675
f 680 678 365
f 813 613 388
f 324 333 314
f 687 198 668
f 379 688 383
f 295 666 207
f 815 656 636
f 377 694 379
f 325 498 84
f 689 333 266
f 334 696 689
f 700 377 372
f 861 834 860
f 703 721 239
f 732 726 367
f 834 861 256
f 348 341 704
f 747 732 363
f 356 358 704
f 735 888 721
f 370 358 356
f 735 264 757
f 735 273 888
f 755 747 359
f 369 364 362
f 353 763 755
f 647 761 326
f 761 349 326
f 376 373 177
f 779 757 264
f 780 779 279
f 384 380 171
f 235 395 19
f 736 871 737
f 562 788 917
f 910 647 320
f 785 804 803
f 414 406 403
f 256 323 803
f 813 675 815
f 415 786 400
f 427 419 414
f 422 420 705
f 432 428 427
f 430 489 499
f 587 580 590
f 437 434 432
f 445 442 434
f 446 394 445
f 671 586 448
f 819 609 627
f 456 449 450
f 455 563 248
f 865 791 769
f 581 579 463
f 645 652 817
f 644 464 469
f 652 662 715
f 874 923 129
f 715 664 652
f 694 812 688
f 477 64 126
f 750 760 473
f 485 655 477
f 465 715 718
f 507 207 666
f 465 774 494
f 865 486 480
f 812 675 813
f 485 484 655
f 207 202 298
f 883 504 825
f 493 865 769
f 783 782 504
f 679 484 485
f 202 200 298
f 196 490 200
f 196 193 490
f 877 859 476
f 302 803 323
f 189 496 193
f 814 806 810
f 168 719 789
f 821 814 810
f 391 899 924
f 713 527 532
f 467 408 472
f 302 294 887
f 786 787 518
f 538 519 532
f 561 532 527
f 926 35 33
f 538 532 660
f 540 555 561
f 551 586 640
f 319 241 565
f 660 532 561
f 113 161 746
f 161 176 867
f 8 319 565
f 223 247 635
f 781 585 784
f 620 629 393
f 887 780 302
f 269 390 393
f 671 640 586
f 781 784 588
f 599 589 603
f 393 290 611
f 626 603 606
f 928 290 305
f 623 238 622
f 625 1 623
f 774 893 894
f 312 332 912
f 626 632 631
f 332 339 847
f 847 892 332
f 757 887 285
f 847 714 54
f 793 3 8
f 732 807 726
f 858 931 857
f 675 812 687
f 168 167 15
f 273 735 757
f 920 921 7
f 402 385 639
f 167 845 17
f 638 633 338
f 646 649 663
f 650 663 649
f 845 850 157
f 888 239 721
f 663 654 646
f 706 409 48
f 850 854 153
f 676 654 663
f 429 409 317
f 661 692 660
f 854 858 149
f 676 663 686
f 858 862 147
f 433 429 691
f 678 680 677
f 699 711 712
f 712 734 356
f 711 710 753
f 862 866 141
f 712 711 740
f 682 436 827
f 734 740 748
f 866 870 137
f 214 687 808
f 748 756 758
f 664 816 652
f 872 133 135
f 198 687 214
f 754 182 768
f 872 874 131
f 665 659 658
f 758 765 766
f 658 648 653
f 766 764 758
f 776 770 777
f 668 198 170
f 117 923 116
f 787 786 789
f 929 330 822
f 533 822 322
f 556 336 330
f 531 322 523
f 899 920 833
f 662 444 889
f 346 323 256
f 491 482 620
f 116 880 911
f 911 20 116
f 382 491 620
f 911 932 20
f 932 886 99
f 645 443 662
f 930 382 611
f 382 930 516
f 886 824 199
f 605 531 930
f 491 508 848
f 628 170 902
f 256 347 346
f 482 848 479
f 891 896 93
f 347 256 861
f 820 617 739
f 866 819 817
f 605 594 593
f 896 901 85
f 929 593 582
f 612 881 885
f 901 905 83
f 826 451 653
f 451 457 180
f 672 659 665
f 441 180 851
f 79 905 796
f 436 673 672
f 436 851 827
f 909 914 75
f 682 673 436
f 914 916 71
f 584 902 897
f 876 86 342
f 69 916 1
f 829 433 827
f 700 808 694
f 788 3 916
f 853 829 417
f 409 61 48
f 402 48 855
f 870 817 816
f 855 29 360
f 874 816 664
f 385 361 102
f 830 880 875
f 576 897 25
f 819 634 817
f 68 69 1
f 106 856 730
f 743 736 738
f 910 242 236
f 862 857 819
f 744 879 102
f 880 830 831
f 840 528 843
f 401 846 44
f 803 302 780
f 769 791 357
f 878 915 791
f 831 911 880
f 918 873 345
f 576 25 475
f 799 31 475
f 841 29 846
f 879 856 102
f 106 639 385
f 573 564 876
f 911 831 802
f 342 556 876
f 337 339 332
f 25 510 515
f 350 29 841
f 564 573 892
f 892 582 912
f 510 25 56
f 864 906 837
f 312 328 337
f 929 822 593
f 33 35 258
f 871 360 29
f 840 860 835
f 864 158 863
f 29 855 44
f 916 914 917
f 808 687 812
f 594 307 312
f 307 305 328
f 916 917 788
f 33 56 927
f 840 835 809
f 307 594 605
f 736 743 361
f 531 516 930
f 290 277 305
f 852 109 927
f 318 835 860
f 21 844 529
f 852 59 112
f 620 393 611
f 102 743 744
f 112 113 852
f 751 763 762
f 647 785 762
f 805 747 751
f 252 268 254
f 230 835 229
f 487 641 635
f 637 879 467
f 124 851 164
f 809 230 221
f 161 142 176
f 807 732 805
f 247 234 254
f 230 809 835
f 808 700 807
f 345 637 186
f 176 184 191
f 812 694 808
f 204 849 223
f 849 204 191
f 813 688 812
f 635 648 725
f 849 184 198
f 815 613 813
f 815 636 613
f 217 223 849
f 659 191 204
f 217 234 223
f 191 184 849
f 859 480 421
f 795 213 511
f 245 461 243
f 878 865 859
f 802 886 932
f 191 659 867
f 452 718 889
f 223 234 247
f 176 142 184
f 246 254 234
f 865 493 486
f 293 771 357
f 268 247 254
f 771 769 357
f 805 264 735
f 268 252 390
f 161 113 112
f 486 493 488
f 390 252 274
f 867 673 746
f 264 751 279
f 274 277 390
f 746 682 152
f 281 848 287
f 827 433 682
f 808 703 214
f 152 691 109
f 109 852 113
f 476 859 421
f 296 305 277
f 476 595 877
f 305 307 928
f 196 293 292
f 595 476 820
f 726 807 700
f 752 293 357
f 307 328 312
f 310 328 305
f 56 59 852
f 292 752 799
f 328 310 323
f 886 825 824
f 312 337 332
f 807 703 808
f 891 824 782
f 193 292 189
f 844 21 22
f 429 853 409
f 109 697 927
f 56 33 510
f 105 559 553
f 339 337 346
f 346 714 339
f 51 346 347
f 317 926 927
f 564 690 876
f 863 844 232
f 799 868 292
f 510 33 258
f 843 528 529
f 844 863 842
f 861 840 843
f 861 158 347
f 861 860 840
f 752 915 31
f 158 843 842
f 843 158 861
f 842 529 844
f 919 837 906
f 906 232 907
f 809 528 840
f 730 873 918
f 730 856 873
f 873 856 879
f 856 106 385
f 817 634 645
f 837 919 838
f 817 652 816
f 919 906 907
f 919 536 537
f 743 102 361
f 904 669 838
f 898 669 904
f 669 898 38
f 703 807 721
f 405 404 838
f 669 405 838
f 922 833 836
f 294 285 887
f 361 385 402
f 869 645 634
f 830 875 664
f 916 3 1
f 864 51 347
f 402 855 361
f 909 801 914
f 397 890 374
f 48 44 855
f 796 909 77
f 879 637 873
f 901 798 905
f 580 925 397
f 48 402 706
f 896 800 901
f 891 823 896
f 409 62 61
f 853 62 409
f 881 413 417
f 417 62 853
f 86 407 299
f 459 893 882
f 199 891 95
f 830 465 831
f 829 426 417
f 426 829 124
f 426 881 417
f 124 829 827
f 433 829 853
f 886 802 825
f 774 894 883
f 851 124 827
f 164 884 124
f 441 851 436
f 180 164 851
f 443 869 164
f 911 802 932
f 715 830 664
f 874 664 875
f 736 361 360
f 451 180 441
f 457 452 889
f 889 444 457
f 866 817 870
f 106 35 639
f 459 718 452
f 826 452 457
f 452 826 245
f 451 826 457
f 862 819 866
f 858 857 862
f 461 245 826
f 459 882 718
f 479 243 461
f 854 931 858
f 850 925 854
f 846 401 580
f 845 890 850
f 491 848 482
f 848 281 479
f 825 494 883
f 382 508 491
f 900 832 767
f 508 287 848
f 896 823 800
f 839 890 845
f 504 782 824
f 42 374 839
f 516 508 382
f 908 910 318
f 534 524 523
f 552 818 548
f 42 172 173
f 901 800 798
f 818 552 900
f 533 322 531
f 871 175 737
f 868 187 189
f 22 232 844
f 593 822 533
f 822 315 316
f 929 556 330
f 330 315 822
f 838 919 537
f 904 838 537
f 318 860 834
f 908 318 834
f 465 830 715
f 556 342 336
f 105 836 559
f 833 559 836
f 29 44 846
f 908 834 804
f 562 917 828
f 299 836 105
f 818 900 767
f 832 553 559
f 562 832 920
f 811 315 548
f 828 801 821
f 801 828 917
f 821 797 814
f 836 299 903
f 401 590 580
f 797 821 801
f 905 798 796
f 796 814 797
f 810 548 818
f 814 798 806
f 798 814 796
f 909 796 797
f 811 548 810
f 413 587 590
f 404 51 837
f 51 864 837
f 837 838 404
f 909 797 801
f 529 842 843
f 158 842 863
f 232 906 863
f 800 806 798
f 529 528 511
f 794 811 806
f 785 908 804
f 785 647 908
f 859 877 878
f 526 534 794
f 877 571 878
f 571 31 915
f 173 351 42
f 524 783 509
f 350 173 175
f 29 350 871
f 823 526 794
f 783 524 526
f 526 823 782
f 42 351 374
f 841 374 351
f 504 775 783
f 509 783 775
f 782 823 891
f 885 124 884
f 887 757 779
f 914 801 917
f 426 885 881
f 890 397 925
f 825 504 824
f 775 504 883
f 925 587 931
f 587 925 580
f 802 494 825
f 785 279 762
f 494 831 465
f 831 494 802
f 894 287 775
f 590 895 413
f 438 897 576
f 884 164 869
f 762 279 751
f 423 931 587
f 587 413 423
f 931 423 857
f 762 761 647
f 617 820 476
f 595 820 621
f 751 755 763
f 893 459 243
f 751 264 805
f 609 857 423
f 423 881 612
f 662 443 444
f 721 805 735
f 621 584 595
f 857 609 819
f 443 645 869
f 612 885 627
f 636 621 820
f 628 902 584
f 805 721 807
