# avbd fit, rung k30-i32-s300-g0.10 of Gate 6d (body space)
v -0.019072967 0.609169900 -0.001248602
v -0.111672856 0.590808392 0.082149960
v -0.017653847 0.616069674 0.017090751
v -0.004076842 0.930040061 0.069890343
v -0.166461751 0.570761144 0.064707935
v -0.005173185 0.950798154 0.070462711
v -0.021856278 0.643803895 0.017585015
v -0.016865965 0.630619764 0.005957567
v -0.164090946 0.589618444 0.052075513
v 0.142300278 0.943908513 -0.102819584
v -0.190963119 0.586806595 0.053779058
v -0.181548685 0.585209727 0.028942328
v -0.195455521 0.586898923 0.010216185
v -0.153681546 0.583069921 -0.064433336
v 0.012404568 0.584413350 0.002514886
v -0.146809220 0.573265195 -0.082334265
v 0.032241818 0.579541802 -0.002648030
v -0.126811579 0.574583352 -0.088818491
v -0.104074731 0.587656140 -0.090655237
v 0.187596902 0.532681942 -0.004110186
v -0.002567724 0.890498638 0.068813019
v -0.002670937 0.870412707 0.066529676
v -0.118269362 0.587756455 -0.074708745
v -0.098956302 0.599854350 -0.073821954
v 0.101928294 0.826786160 -0.118213020
v -0.080897719 0.611963153 -0.081149258
v -0.140565991 0.895895660 -0.138275474
v -0.149757221 0.794102252 0.069615617
v 0.033091914 0.684276700 -0.060994454
v -0.167778865 0.806220829 0.075080357
v 0.072230905 0.854337037 -0.145181075
v -0.194525957 0.777485728 0.040783331
v 0.091570355 0.779340029 -0.108897947
v -0.184138238 0.580372214 -0.032449294
v 0.072699830 0.767673254 -0.103149749
v -0.157249093 0.904344738 -0.102302000
v -0.174009234 0.903417110 -0.063316479
v 0.011737988 0.748013854 0.006324336
v -0.174236998 0.906106472 -0.038955715
v -0.085112534 0.898216605 -0.147751123
v -0.036426906 0.876529992 0.064031199
v 0.010736818 0.643263936 -0.020819120
v -0.024945529 0.851841271 0.060695648
v 0.054964285 0.685090542 -0.080557622
v -0.049932368 0.856816888 0.054816414
v -0.189523026 0.913099647 -0.022226276
v -0.192316487 0.895092785 -0.004098401
v 0.066528432 0.708084106 -0.090226538
v -0.171305090 0.890105069 0.006765304
v -0.056585919 0.602655828 0.023440551
v 0.060265951 0.820397198 0.058361135
v -0.064983584 0.594998896 0.049977068
v -0.081183769 0.693978310 0.061506547
v 0.052749135 0.772894502 0.055539995
v -0.092322096 0.592969000 0.054856937
v 0.104393922 0.795423388 -0.124102533
v -0.109369352 0.688957572 0.072395846
v -0.181135148 0.693332434 0.056008957
v 0.125923306 0.810173512 -0.125087485
v -0.198821783 0.691483498 0.030457284
v 0.080150232 0.687418342 -0.090468042
v 0.097962730 0.679479957 -0.106966950
v -0.208039194 0.791003883 0.021551389
v -0.200491264 0.814338207 0.018362429
v -0.210703582 0.688886821 -0.044010404
v -0.185498983 0.683935881 -0.059549939
v -0.170702443 0.697791457 -0.076829582
v -0.014617237 0.625944972 -0.010525991
v 0.013296722 0.619389236 -0.010126670
v -0.164756387 0.679874420 -0.098286144
v 0.033478133 0.607591748 -0.007867114
v -0.116760172 0.697831035 -0.125077784
v 0.047751527 0.588529289 -0.005410205
v -0.029108617 0.755569875 -0.071838699
v 0.055468839 0.565794110 0.002506186
v -0.106631301 0.900749087 -0.151411936
v 0.068108156 0.552443385 0.018184492
v -0.119875655 0.900778294 -0.135026395
v 0.079389915 0.543677151 0.035304192
v -0.127179593 0.881465733 -0.132948443
v 0.096974090 0.540177107 0.047629826
v -0.148645371 0.914836228 -0.126422286
v 0.114943817 0.539278150 0.056968004
v -0.187857896 0.867693424 -0.091919146
v 0.124151967 0.533935547 0.071193352
v 0.039600644 0.726619601 0.033518206
v -0.150525957 0.896736145 0.057844143
v -0.126435176 0.799715400 -0.123182878
v -0.165279508 0.624600232 0.053865604
v 0.135314867 0.532675385 0.058458455
v -0.143294662 0.810361564 -0.107342362
v -0.026632968 0.810435414 0.028362270
v 0.153562531 0.529408455 0.057250090
v -0.043311991 0.809205234 0.048412211
v 0.163790151 0.529714465 0.042345025
v -0.032591738 0.832416654 0.043797445
v 0.176320583 0.529539347 0.029444814
v -0.024231490 0.897813141 0.066835970
v 0.194320306 0.528745055 0.024282316
v -0.071239755 0.914937675 -0.158102170
v 0.181306407 0.532360911 0.012569298
v 0.023220832 0.758606791 -0.066498674
v -0.096054710 0.877708435 -0.155440822
v -0.113819860 0.643853784 0.084882952
v 0.034697153 0.703079820 0.022417627
v 0.052012913 0.769865215 -0.097618513
v -0.121053025 0.861195564 -0.134334087
v -0.146134868 0.622646093 0.066089399
v 0.130357414 0.759989202 -0.108252883
v -0.134864807 0.846502006 -0.123620749
v 0.136232615 0.825897694 -0.109823272
v 0.146590725 0.801794827 -0.105162919
v 0.148086339 0.775045574 -0.102425277
v -0.172966629 0.646533608 0.053085767
v -0.146009535 0.836565971 -0.104986630
v 0.196298137 0.532782197 -0.021605076
v 0.185863838 0.544761658 -0.016369561
v -0.190357164 0.636527419 0.029832572
v 0.156682223 0.825045466 -0.101172432
v -0.167463988 0.850411296 -0.094531968
v -0.183865041 0.848070025 -0.072081484
v -0.191748694 0.864749074 -0.056688450
v -0.063293852 0.842630386 -0.142631635
v 0.155350134 0.665656269 -0.099617638
v -0.175357193 0.839727759 0.044678465
v -0.193032429 0.836991191 0.020157132
v -0.134000480 0.831809998 0.076298729
v -0.144801781 0.846505821 0.059345078
v 0.184519738 0.534159362 -0.034194600
v -0.024778355 0.833416462 -0.126948923
v 0.179059342 0.531554103 -0.052483089
v -0.047144789 0.829974294 -0.126576602
v 0.161653847 0.539011598 -0.065457173
v -0.029397648 0.693983734 -0.061521996
v 0.178037867 0.532501161 -0.070413999
v -0.109744713 0.888510704 0.048022997
v 0.160500497 0.532699704 -0.081199594
v -0.102093019 0.899823308 0.070865892
v 0.142388016 0.536576629 -0.076763436
v -0.027836338 0.816343188 -0.109566346
v 0.125112697 0.540148735 -0.082458414
v 0.172026008 0.809715569 -0.094109200
v -0.033985045 0.806520581 -0.087417528
v 0.129736707 0.553449690 -0.070859075
v -0.052459747 0.813691735 -0.109377131
v -0.188906342 0.809145570 -0.099690542
v 0.111697868 0.545001686 -0.072825864
v -0.148928106 0.918505669 0.044989072
v 0.094416365 0.547380567 -0.066355862
v -0.032685649 0.723232865 -0.074869417
v 0.080207795 0.552841067 -0.055364650
v 0.148930654 0.751097083 -0.097754896
v 0.066171743 0.557987154 -0.044122986
v -0.117007814 0.754125118 -0.113518082
v 0.060467191 0.566576838 -0.027980734
v -0.071177103 0.664282203 -0.083514459
v 0.049317308 0.572796285 -0.013982194
v 0.057187121 0.863016963 0.057343971
v -0.179109693 0.769612312 -0.086368218
v -0.208358556 0.587900519 -0.023735760
v 0.169713631 0.785126567 -0.103382826
v -0.213850901 0.789056122 -0.040798776
v -0.218277693 0.744872451 -0.030947808
v 0.158352703 0.656214595 -0.074711323
v -0.202405617 0.730203211 -0.046565033
v -0.016484600 0.612493992 -0.022861756
v 0.015144737 0.599740446 -0.014544448
v -0.015860150 0.595254302 -0.012865019
v -0.016983703 0.632449150 -0.027358446
v 0.182452291 0.832744718 -0.109209836
v -0.189917982 0.736699104 -0.065548114
v -0.015794400 0.651114941 -0.021289231
v -0.014813651 0.667599678 -0.032138370
v -0.209465057 0.726014197 -0.009767689
v -0.015015597 0.687096715 -0.033514686
v 0.182291195 0.791114569 -0.085069291
v -0.174064279 0.731484473 -0.103759728
v -0.117150284 0.562333047 -0.074063011
v -0.207414702 0.736870646 0.020454396
v 0.181755736 0.672014952 -0.080878414
v -0.200030178 0.714983761 0.032407962
v -0.096828029 0.738963902 -0.115766451
v -0.085014865 0.725320935 -0.100553967
v 0.197856441 0.809933662 -0.091834202
v -0.053276353 0.792342067 -0.099001266
v -0.006821065 0.815671623 -0.087988786
v -0.005551170 0.825780511 -0.105277739
v -0.116433427 0.877867877 0.073410623
v -0.005151378 0.840705395 -0.117687419
v -0.127092123 0.862474263 0.057066839
v 0.201566249 0.779008746 -0.082959928
v -0.122729108 0.852723718 0.077529803
v -0.004222670 0.856806099 -0.128537685
v -0.131743312 0.883144200 0.044812687
v -0.162774354 0.724815011 0.065671615
v -0.004168964 0.875198007 -0.132610708
v -0.129565567 0.904718399 0.037314709
v 0.185568511 0.832659900 -0.074651971
v 0.173058540 0.553579867 0.034856256
v -0.004366395 0.894382119 -0.133366585
v -0.128188327 0.908559501 0.056897689
v -0.004657377 0.914040267 -0.132631406
v -0.167989790 0.858545482 0.063285984
v 0.194781065 0.768661618 -0.060818415
v -0.165002495 0.881208241 0.047628995
v -0.214821771 0.780188859 -0.000839861
v -0.004472665 0.933835983 -0.131530389
v -0.146660253 0.917206585 0.020131037
v -0.149141654 0.893864036 0.027323317
v -0.168934733 0.913961709 0.010808597
v -0.140259057 0.717856526 0.073357061
v 0.035052735 0.953058243 0.069427319
v 0.014709324 0.952520669 0.070357360
v 0.204001337 0.854295909 -0.058833629
v -0.002613026 0.910493195 0.068916418
v -0.169147581 0.905561566 -0.013321149
v 0.210431740 0.821180224 -0.056971472
v -0.184708014 0.927976966 -0.039350208
v -0.169330075 0.925928950 -0.051966645
v -0.080326393 0.638404071 -0.084126227
v 0.055242620 0.952052712 0.065630853
v 0.199712291 0.836233616 -0.037212379
v 0.215268210 0.786118388 -0.047708914
v -0.174808785 0.929295897 -0.072797932
v -0.146595523 0.926059723 -0.106949545
v -0.129184216 0.920734406 -0.140074149
v -0.153887540 0.860786319 -0.112833358
v -0.120934144 0.639209032 -0.084004261
v 0.087845832 0.940562129 0.072129682
v 0.074084267 0.947177052 0.060666800
v -0.099804662 0.858449936 -0.141333431
v -0.003666894 0.852152348 0.057856005
v -0.109371461 0.880376697 -0.140154600
v 0.205225319 0.808564186 -0.031895790
v -0.110308424 0.617795527 -0.099042356
v 0.091720521 0.935877800 0.055043869
v -0.035514586 0.691108406 0.018866256
v -0.036360621 0.587745309 0.012337187
v 0.198008239 0.848930836 -0.017315306
v -0.203819275 0.841427445 -0.047382500
v -0.052329760 0.638171613 0.029610718
v 0.109364770 0.937013805 0.047106624
v 0.204352662 0.677278638 -0.010589853
v -0.063397571 0.578725338 0.026129210
v 0.211879760 0.674714148 -0.030719955
v 0.203113437 0.825957298 -0.011704453
v 0.209368750 0.782463789 -0.019071020
v -0.054553203 0.645417452 0.053387653
v -0.079264902 0.569543302 0.051946215
v -0.109122075 0.571939528 0.059573274
v -0.102458492 0.633081377 0.064945027
v 0.210483506 0.813586831 0.015754905
v -0.105659902 0.610984504 0.063442208
v 0.208082512 0.803178787 -0.007740541
v -0.060203183 0.833209634 0.053616129
v 0.099904075 0.851729691 0.083341524
v -0.113401249 0.619063735 0.084517151
v 0.069338307 0.787367523 -0.104106858
v -0.127007753 0.566396773 0.083378926
v -0.191302553 0.641864479 -0.055606015
v -0.128398567 0.632713139 0.071663506
v -0.143043146 0.588508725 0.071971931
v 0.063613743 0.807544827 -0.101841763
v 0.173774034 0.873688340 0.029546345
v -0.128853768 0.608774722 0.068872735
v -0.187424466 0.623399854 -0.040888421
v -0.144002631 0.570236504 0.056972139
v 0.214458913 0.785459161 0.006927155
v 0.210698575 0.765881658 0.020707391
v -0.146911204 0.871836007 0.061245531
v -0.151573345 0.605972826 0.057647370
v -0.171938747 0.573969424 0.043204617
v 0.192056835 0.832139850 0.023898872
v 0.190788388 0.806887507 0.037237324
v -0.190630823 0.627210796 0.058467053
v -0.176342055 0.606170118 0.065106481
v 0.190565184 0.783106923 0.053215563
v -0.189936221 0.561564028 0.038917851
v 0.152802169 0.877211273 0.047200169
v -0.180077508 0.609805226 0.040776744
v 0.212230250 0.671669364 0.012475985
v -0.055292673 0.948271751 0.065245584
v -0.195747331 0.608953834 0.020556521
v -0.028240776 0.919100404 0.083765075
v 0.184094861 0.826970279 0.048721153
v -0.166574210 0.860423386 0.040169641
v 0.194438726 0.663759947 0.030108178
v -0.168530956 0.875905395 0.025027504
v -0.193252280 0.603141665 -0.005846544
v 0.185373142 0.760890961 0.064028785
v -0.182023168 0.857220829 0.022547811
v 0.019500993 0.852149665 -0.134571165
v 0.021537503 0.878518879 -0.139581338
v 0.166289493 0.822178483 0.062471338
v -0.033197843 0.928390145 -0.137417421
v 0.179076254 0.803480983 0.063093193
v -0.197106123 0.627626002 0.001885111
v -0.021963220 0.905829549 -0.147385076
v 0.022452474 0.726402104 0.012375621
v -0.038031798 0.626785219 -0.024472345
v -0.045994036 0.906791210 -0.145610586
v 0.145761102 0.832033992 0.064562351
v -0.057043940 0.927615047 -0.143543169
v -0.192184269 0.878624558 0.015604752
v 0.164460599 0.778858066 0.070677266
v -0.204151541 0.856539905 0.008365507
v 0.143085837 0.759014547 0.073788516
v -0.189680487 0.864685357 -0.033180531
v -0.198947102 0.846865833 -0.016808819
v 0.150499821 0.806477427 0.067981765
v -0.189235672 0.869633973 -0.008085495
v 0.121094957 0.769541979 0.084162295
v -0.202463865 0.560215414 -0.032920137
v -0.212583512 0.612854302 -0.014518334
v 0.102636240 0.663517594 0.068085186
v 0.126137823 0.660111010 0.078024298
v 0.098813541 0.734095216 -0.112643227
v 0.096037850 0.907084763 0.066419855
v -0.040574171 0.638820410 0.009795249
v 0.130503505 0.938132882 0.049933061
v -0.184157282 0.885495961 -0.048422191
v 0.135315731 0.681897521 0.073921867
v 0.124271154 0.822141945 0.084642939
v -0.197148949 0.626158237 -0.020571871
v -0.173644900 0.876896858 -0.071266964
v 0.139704376 0.924061120 0.040293675
v -0.163695216 0.878623962 -0.096081600
v 0.134782404 0.788005531 0.074662626
v -0.074078158 0.784310460 -0.104821607
v 0.088806525 0.687889040 0.064499497
v -0.175221846 0.557141125 -0.040697474
v 0.098841481 0.773445725 0.074493900
v -0.191980675 0.604260325 -0.027000379
v -0.183935076 0.617869258 -0.065633327
v -0.158545166 0.558748603 -0.060501706
v 0.064139798 0.684593797 0.054150086
v 0.109275125 0.795986056 0.084394261
v -0.071796805 0.745387673 -0.100127235
v 0.088908270 0.792486072 0.071224310
v -0.172516093 0.577268720 -0.053873401
v -0.166961998 0.636796415 -0.068681739
v 0.049447212 0.703943729 0.044740703
v -0.088145584 0.764426112 -0.113136709
v -0.166246995 0.564376533 -0.079342574
v 0.016760387 0.816271663 -0.095874131
v 0.091252498 0.820216775 0.071804114
v 0.076697081 0.845621228 0.061750848
v -0.160066396 0.611375690 -0.066526279
v 0.122608349 0.926164269 0.040193100
v 0.017791394 0.679620445 -0.034860857
v 0.020860063 0.659990430 -0.028789010
v -0.139919847 0.555521429 -0.068349704
v 0.138256624 0.933768153 0.025937492
v -0.139169484 0.752790332 -0.124015987
v 0.149012133 0.935988069 0.010806371
v -0.139908373 0.617142558 -0.074096240
v 0.045448270 0.888322532 -0.147384509
v -0.154603869 0.598469675 -0.083922789
v 0.158859223 0.938264370 -0.004180557
v 0.030007875 0.709293723 -0.057867985
v 0.029775361 0.731787741 -0.069814399
v -0.135196164 0.735918880 -0.102851436
v 0.175929576 0.944502473 -0.005399955
v -0.142519027 0.758085668 -0.102452144
v -0.107356988 0.920301616 -0.135421962
v -0.051350147 0.902423203 0.073601715
v 0.164788932 0.943176746 -0.019892499
v -0.135832891 0.552219272 -0.094453797
v -0.158648342 0.746044040 -0.092696577
v -0.137332797 0.592643261 -0.074544415
v -0.147376224 0.886993408 -0.116022013
v 0.169231132 0.945909858 -0.036326785
v -0.176626563 0.757102847 -0.105323277
v 0.037259080 0.640133619 -0.031834699
v -0.111014806 0.555967152 -0.093775585
v -0.177576929 0.746749401 -0.083432645
v 0.163588598 0.943988681 -0.054066449
v -0.143437877 0.869221985 -0.132045746
v 0.161359921 0.943983376 -0.072758451
v -0.190935671 0.765867293 -0.066496260
v -0.129271835 0.600655258 -0.093818873
v 0.193291664 0.707367659 0.059150565
v 0.153808251 0.940402985 -0.089249097
v -0.201834530 0.750097334 -0.051488079
v 0.037074968 0.750790000 -0.089048654
v -0.099966057 0.575295329 -0.068711855
v -0.035682369 0.600465834 -0.025912587
v 0.161485419 0.943979621 -0.105639316
v -0.212046385 0.768955410 -0.049007203
v 0.201083869 0.785861135 0.028855760
v -0.033446822 0.669592738 0.011328889
v 0.128162682 0.943861127 -0.114837050
v 0.197051585 0.757108808 0.040898517
v -0.068742812 0.766876578 0.061452277
v -0.119618334 0.611686110 -0.078795888
v -0.077989683 0.582922995 -0.078055076
v 0.044297375 0.634886742 -0.059171595
v -0.099279076 0.626022458 -0.081203438
v -0.069098130 0.606480658 -0.061506845
v -0.062424947 0.582365930 -0.054773528
v 0.070156209 0.665510714 -0.079794087
v 0.050660927 0.728500128 -0.090379052
v -0.203731254 0.729832470 0.051386170
v 0.041956943 0.795439363 0.050537873
v 0.034338910 0.772991300 0.035650522
v -0.202272058 0.754562080 0.046395704
v 0.029683609 0.749503613 0.023886360
v -0.030514766 0.777717590 -0.089016378
v 0.091393970 0.706936717 -0.108286381
v -0.187065691 0.768082380 0.065465927
v -0.064432591 0.646850944 -0.071472719
v -0.071858510 0.627465069 -0.069067895
v 0.098618679 0.647823215 -0.101659968
v -0.181167454 0.742560923 0.065337583
v -0.050159059 0.611497521 -0.043831367
v 0.118292019 0.932457626 -0.126498923
v 0.116408885 0.670584202 -0.094773315
v -0.050967474 0.630374908 -0.062755309
v -0.159468457 0.760439932 0.068242408
v -0.043374706 0.663824677 -0.069737554
v 0.115481257 0.951066852 -0.123766147
v -0.038527369 0.643247008 -0.043873232
v 0.107784607 0.618342221 -0.097961321
v -0.189350173 0.579530597 -0.010900584
v -0.190261334 0.562120736 0.012972849
v 0.135158241 0.663819373 -0.085969359
v -0.148061514 0.739668012 0.072243631
v -0.130615115 0.755085289 0.077487759
v 0.118285239 0.718320847 -0.110371411
v -0.080047481 0.833507419 0.074230976
v -0.075114354 0.948452830 0.060088553
v -0.120015875 0.730866253 0.088209838
v 0.138989463 0.711197317 -0.094906062
v -0.105400003 0.752683997 0.084560908
v -0.090561226 0.812085450 0.079467632
v 0.160430491 0.714128315 -0.084851161
v -0.094317235 0.734248340 0.069795400
v 0.119179584 0.867039859 -0.138414592
v -0.075907402 0.789625049 0.072316505
v -0.103893481 0.792288125 0.076776013
v 0.181556582 0.699190259 -0.085783735
v -0.091929883 0.772231936 0.078168437
v 0.167429626 0.631915212 -0.066877499
v 0.184198931 0.646022797 -0.072213367
v -0.087083302 0.754122972 0.068228133
v -0.067576677 0.741556287 0.060993075
v -0.117429592 0.774108589 0.084789984
v -0.031985391 0.762762964 0.027758658
v -0.129645273 0.794587612 0.080135509
v -0.117737234 0.812779427 0.075596943
v 0.184345275 0.692821026 -0.062274646
v 0.196306378 0.658248484 -0.037170082
v -0.068597928 0.809766948 0.060209036
v -0.141327530 0.775781989 0.073979475
v -0.049594883 0.671574473 0.035369717
v -0.143918589 0.813366890 0.068155453
v 0.184624135 0.665602326 -0.056515168
v -0.164542526 0.832924068 0.073784932
v 0.210614517 0.654978871 -0.019365992
v -0.186335772 0.793106377 0.061617773
v 0.217104435 0.702104211 -0.026537567
v -0.166983753 0.781980753 0.072662339
v -0.073247008 0.855757594 0.067501649
v -0.176733285 0.815447807 0.054864705
v 0.195005804 0.613175273 -0.017369557
v -0.077894732 0.899871528 0.060914218
v -0.011456714 0.783651710 -0.063143350
v -0.072487161 0.923604667 0.062383421
v -0.186879426 0.821529210 0.035224024
v -0.211065799 0.765007615 0.021839926
v -0.049625225 0.927707851 0.066768616
v -0.008291654 0.802861094 -0.072113365
v -0.110496148 0.936699390 0.045428552
v -0.210919812 0.753286958 -0.003658410
v 0.079741500 0.834061742 -0.135144353
v 0.122972131 0.913704574 -0.130456299
v -0.211082220 0.832272649 0.002444682
v -0.094377235 0.945632339 0.052976299
v 0.207239345 0.699309230 0.000345383
v 0.096976854 0.949345112 -0.126665384
v -0.179855168 0.886871934 -0.024236929
v 0.210569531 0.715486884 0.019351179
v -0.209774688 0.770841300 -0.024091160
v -0.208471462 0.797129273 -0.021298168
v -0.203309894 0.822253525 -0.021685053
v 0.079592235 0.947291970 -0.132807136
v 0.211951405 0.759329915 -0.001641089
v 0.072357185 0.931702316 -0.138589054
v -0.099302761 0.855270982 0.065602288
v -0.020650342 0.879486918 -0.139501795
v 0.197127730 0.704864919 0.037295733
v 0.058642007 0.946118832 -0.133349136
v 0.059600700 0.932528198 -0.152234331
v 0.192383140 0.602599382 0.010746448
v -0.095808908 0.922938168 0.064813532
v -0.022199605 0.854766488 -0.139521331
v -0.198843732 0.791708112 -0.058365494
v -0.180905506 0.901450336 -0.088747390
v -0.106968164 0.832993627 0.072194144
v 0.038309321 0.951028645 -0.128927901
v -0.185880110 0.791480184 -0.079678968
v 0.016594857 0.952669442 -0.125587538
v -0.162500635 0.796943486 -0.098511890
v 0.182900026 0.607663810 0.034312122
v -0.181952104 0.783145785 -0.104398169
v 0.015191848 0.937807560 -0.130620211
v -0.005696810 0.952553093 -0.124609113
v 0.199889749 0.681893766 0.048645377
v 0.191587731 0.654574037 0.054741401
v 0.086995937 0.804502010 -0.107757486
v 0.018756853 0.918237805 0.071051612
v -0.166705877 0.823302150 -0.097458467
v -0.159701914 0.771790743 -0.096798532
v -0.159163684 0.924973607 -0.088138461
v 0.068806343 0.818632424 -0.120798230
v 0.174757108 0.680906117 0.057507087
v -0.137374654 0.781997383 -0.108406529
v -0.062851287 0.564546764 -0.034025304
v -0.108443394 0.791013479 -0.132813290
v -0.071537122 0.559616745 -0.051754050
v -0.087753966 0.561854959 -0.060552649
v -0.124723338 0.773264289 -0.132533401
v 0.150316224 0.666545749 0.065630227
v 0.165852115 0.646768749 0.056559645
v -0.097422473 0.552282929 -0.079785123
v 0.156601220 0.617480159 0.057328455
v -0.111722991 0.839195251 -0.130674034
v 0.044087458 0.911550701 0.067162260
v 0.027291590 0.893922985 0.067276545
v -0.094810553 0.545550704 -0.063296482
v 0.154017344 0.695567906 0.068327509
v -0.111705326 0.814890385 -0.142875582
v 0.133570716 0.702429652 0.076579139
v 0.140372172 0.639184356 0.067157544
v -0.107258238 0.537186682 -0.072944440
v -0.004875424 0.819513679 0.034953319
v -0.006480479 0.805982769 0.019011360
v -0.106784239 0.806055069 -0.115279578
v -0.115227506 0.530131400 -0.087104633
v -0.082748421 0.854399502 -0.157706112
v -0.111596487 0.779979944 -0.114758417
v -0.121974945 0.544510007 -0.078051262
v -0.133150846 0.531838477 -0.085716054
v -0.150214791 0.530493855 -0.079690859
v -0.047663704 0.782964230 0.055898450
v -0.029548923 0.787396789 0.031873967
v 0.080879487 0.668336749 0.059658747
v 0.085013226 0.645685077 0.060080092
v -0.169665456 0.534726381 -0.075246312
v -0.154456496 0.542087913 -0.066994891
v -0.034329318 0.714553952 0.023214394
v 0.062593393 0.660101891 0.051001690
v 0.046523638 0.678198218 0.032757349
v -0.171463698 0.538974226 -0.057864308
v -0.083448634 0.838779747 -0.139073759
v 0.071791336 0.707273304 0.059339739
v -0.182499751 0.532828689 -0.043769568
v -0.049599938 0.697578073 0.049295787
v 0.030076548 0.680198431 0.009844117
v -0.035899904 0.652314544 0.027997985
v -0.100480832 0.836256802 -0.150654614
v 0.020458337 0.639031827 0.028176600
v -0.065049089 0.672088981 0.058774788
v 0.064928599 0.750717938 0.059559770
v -0.041971955 0.621417224 0.024536710
v -0.061961710 0.619979501 0.041046333
v -0.059300411 0.864749730 -0.154384047
v -0.077534601 0.875705123 -0.148823127
v -0.072843410 0.717534661 0.060174711
v -0.061965913 0.889888942 -0.148431495
v 0.095227689 0.871583462 -0.150142401
v -0.196978718 0.530821383 -0.031121682
v 0.079364829 0.729981780 0.064097509
v -0.077644542 0.619939625 0.063463852
v -0.101620518 0.711792111 0.071083866
v 0.101380944 0.846409023 -0.141055956
v -0.081496224 0.648960531 0.059988666
v -0.092121914 0.672134221 0.063995115
v -0.089929171 0.877589047 0.055888206
v 0.067416236 0.639984131 -0.070148550
v -0.063408576 0.878459454 0.069929346
v 0.101945423 0.733557701 0.073360018
v -0.104150712 0.654031336 0.067409262
v 0.140599057 0.865864635 -0.122054085
v -0.182829469 0.540689349 -0.028365348
v -0.033000350 0.738554597 0.024471600
v 0.091003656 0.626652360 -0.077454500
v -0.184125215 0.536043286 0.009468394
v -0.136191696 0.678089917 0.084124282
v 0.085490957 0.649533868 -0.080982201
v -0.180244789 0.537533522 0.027985085
v -0.111620270 0.667811632 0.083620235
v 0.117954113 0.717607379 0.080350950
v 0.124869883 0.742150903 0.082323171
v 0.131715089 0.888622165 -0.129758239
v -0.170369059 0.548964083 0.037712224
v -0.123469993 0.703776658 0.087877475
v -0.157964975 0.561590612 0.048891105
v -0.131245852 0.656107306 0.072659567
v -0.164696112 0.545045674 0.054321717
v -0.147376090 0.548396826 0.052494001
v -0.141159445 0.697151840 0.072157033
v -0.155259863 0.662251532 0.066629447
v -0.135178059 0.547282755 0.063893124
v 0.145022333 0.726227880 0.072602533
v -0.158343539 0.683783531 0.064213112
v -0.128378540 0.563832402 0.063940562
v -0.118216135 0.546661258 0.060536761
v 0.120832898 0.607063174 -0.078096613
v -0.161540449 0.705007672 0.064758286
v 0.190229431 0.735691428 0.062035043
v 0.123922408 0.627594590 -0.080568314
v 0.152133822 0.918725491 -0.103084266
v -0.101564869 0.547056913 0.051532932
v -0.149633974 0.641785026 0.062839419
v -0.083961867 0.548098922 0.043416716
v 0.136417404 0.932146251 -0.134930119
v -0.072583154 0.553269923 0.028140346
v -0.062058628 0.561419845 0.012169751
v 0.197843105 0.728649437 0.038785275
v 0.156351551 0.883649230 -0.131365940
v -0.052263774 0.571596026 -0.000389438
v -0.046112873 0.592406034 -0.010532663
v -0.182648882 0.717257082 0.057758600
v -0.041039873 0.613166332 -0.011276452
v -0.178098157 0.669838786 0.054098345
v 0.140327066 0.616497874 -0.084024683
v 0.168013364 0.859189212 -0.121655464
v 0.211656481 0.741561055 0.019417388
v -0.203256920 0.704176545 0.053386711
v -0.199315816 0.652263880 0.054435480
v -0.202653483 0.678596973 0.053475954
v -0.042631883 0.746175170 -0.094309717
v 0.163676232 0.610030293 -0.086481959
v 0.210039735 0.756435752 -0.026340317
v 0.145440876 0.898604512 -0.116149046
v 0.010896711 0.803833306 -0.074870326
v -0.058367301 0.767307878 -0.099113569
v 0.062443592 0.748895586 -0.097612821
v -0.047456417 0.726287603 0.047554843
v 0.209536940 0.729033530 -0.008274497
v -0.194630235 0.665513277 0.029965263
v -0.210835889 0.707504094 0.010827272
v -0.191878036 0.800989807 0.038559340
v 0.156672597 0.606501281 -0.066262931
v -0.200964451 0.654051602 0.004478398
v 0.127918884 0.909027398 0.062697463
v 0.216588646 0.730967522 -0.037007235
v -0.206920549 0.680380106 0.006877658
v -0.207213968 0.696924567 -0.015911009
v -0.216228530 0.714487135 -0.035082944
v 0.175502867 0.597637296 -0.052038573
v 0.198837876 0.712128282 -0.046952926
v -0.216516584 0.639580727 -0.012502623
v -0.214766219 0.806729496 0.000123300
v 0.156078815 0.874640584 -0.108324327
v -0.035980396 0.947116077 0.069133639
v 0.197059780 0.739115834 -0.054969411
v 0.196792632 0.746688843 -0.081384271
v -0.096176408 0.826053917 -0.124532282
v -0.070239469 0.824009717 -0.126382560
v 0.182714000 0.618028164 -0.066105023
v -0.218088463 0.668509483 -0.020693045
v 0.193762556 0.582531571 -0.055591531
v 0.184994698 0.720109105 -0.067323908
v -0.027313933 0.951144338 -0.127724394
v -0.048416123 0.947336197 -0.131269306
v 0.167820126 0.852821469 -0.093445584
v 0.016711511 0.771420240 0.014258586
v -0.068564072 0.939932466 -0.135452822
v -0.045473535 0.752987087 0.050474834
v 0.181830749 0.724105358 -0.089098185
v 0.167938113 0.742155254 -0.087012999
v -0.086253531 0.928982556 -0.138194099
v 0.174227297 0.879868865 -0.092582099
v -0.198811650 0.646304846 -0.029947504
v -0.083003975 0.945618153 -0.144598797
v -0.095870033 0.922140896 -0.154297262
v -0.210164621 0.813057542 -0.046209868
v -0.095684901 0.942494214 -0.130653456
v -0.113990285 0.944088280 -0.127677813
v 0.159357026 0.727596819 -0.108033463
v -0.191262931 0.709661603 -0.057093363
v -0.190630645 0.818964601 -0.069438674
v -0.191310436 0.837261975 -0.095560960
v -0.194744438 0.666671872 -0.043115236
v 0.179037616 0.865278244 -0.069656178
v 0.162754446 0.921100497 -0.082709365
v -0.178900853 0.600408912 -0.047882017
v 0.043220066 0.749748111 0.046134766
v 0.135358959 0.734572709 -0.101626717
v -0.079008900 0.808962822 -0.107490346
v -0.174512163 0.722047508 -0.080070078
v 0.175660670 0.918801665 -0.065457858
v -0.091960177 0.789045453 -0.112774655
v -0.175393090 0.593009830 -0.072952688
v 0.119925044 0.741736293 -0.115645967
v -0.178215787 0.659423590 -0.064242557
v -0.167054236 0.652067602 -0.092211910
v 0.181380674 0.917453587 -0.043532409
v -0.166512743 0.674741089 -0.075205676
v -0.169883788 0.705751300 -0.101674989
v 0.189244777 0.865018547 -0.036093868
v -0.159236774 0.624400496 -0.088692330
v -0.034764681 0.669792533 -0.043382484
v 0.077759407 0.729615390 -0.098751917
v -0.132120922 0.944916725 -0.126533955
v -0.123860717 0.930533409 -0.124530934
v -0.153833196 0.721481442 -0.090191439
v -0.149927616 0.696164548 -0.086313143
v -0.145653486 0.669864297 -0.082687944
v -0.143954873 0.643091321 -0.078386113
v -0.123121664 0.824061751 -0.115693867
v 0.066625215 0.796171665 0.063173823
v 0.202726603 0.610349238 -0.048389781
v -0.146735698 0.948162079 -0.093662150
v -0.155596435 0.951166153 -0.075703107
v 0.206457064 0.634134769 -0.033817627
v -0.018715475 0.586297572 0.003206116
v -0.161936209 0.950716853 -0.056783479
v 0.197925165 0.872146249 -0.009630845
v -0.165645614 0.944266021 -0.037192192
v -0.170218050 0.924458385 -0.029205656
v -0.165555313 0.940471768 -0.020145779
v 0.213036180 0.755924046 -0.049704645
v 0.171047509 0.920492053 -0.026752109
v -0.181572124 0.931516767 -0.017939087
v -0.166081741 0.926116347 -0.010176448
v -0.155364424 0.933629513 0.003147448
v 0.047890786 0.792107701 -0.097219996
v -0.143829465 0.936410725 0.017122488
v 0.186325252 0.917309463 -0.013291528
v -0.142802864 0.942115128 0.033897996
v -0.135349274 0.627065539 -0.098696619
v 0.187503934 0.860440254 0.013140978
v 0.013551029 0.721413434 -0.045586195
v -0.014124642 0.706133723 -0.039218895
v -0.013134144 0.725170135 -0.045086399
v 0.137320071 0.922270179 -0.117167607
v -0.137874633 0.654435635 -0.103454970
v -0.012805981 0.744415045 -0.050676309
v -0.131447971 0.710103273 -0.103180110
v 0.011038589 0.743384242 -0.051370502
v -0.012982266 0.763863742 -0.056558691
v -0.126153320 0.939994216 0.038404152
v 0.167896181 0.758316398 -0.105530724
v 0.165745750 0.910294235 -0.004058474
v -0.111264586 0.644488931 -0.105891012
v -0.136429444 0.925424576 0.030824289
v -0.128882945 0.925249219 0.046584629
v 0.157212242 0.892244160 0.020445654
v 0.045069955 0.862575829 -0.144387156
v -0.137138754 0.682679355 -0.105736718
v -0.122659825 0.727993488 -0.128848970
v 0.153207108 0.917089820 0.013930920
v -0.112691626 0.670318961 -0.115721509
v 0.181321055 0.849553108 0.037042320
v -0.119848743 0.666707337 -0.092208132
v -0.010270854 0.745917261 0.002976042
v -0.108850621 0.912570477 0.048684403
v 0.124414779 0.906815350 0.041188382
v 0.133184880 0.888289332 0.041850958
v 0.141021863 0.908824146 0.029999152
v -0.098077632 0.652666450 -0.088098958
v -0.114921950 0.692011952 -0.100571379
v -0.091160424 0.677987993 -0.092549346
v 0.047605310 0.635262370 0.022560019
v -0.108342394 0.716977239 -0.106994726
v 0.050923318 0.911868870 -0.144850820
v -0.084665544 0.702391505 -0.097892165
v 0.023503082 0.902862370 -0.141989172
v -0.043513570 0.852038205 -0.140338182
v -0.037983622 0.879338861 -0.154081941
v 0.196995825 0.628181338 0.007648391
v 0.188575968 0.636252999 0.033412904
v -0.056589615 0.692575336 -0.082718126
v -0.058752794 0.720484376 -0.095525593
v -0.135528788 0.941190839 -0.109905258
v 0.163431033 0.858380437 0.046081658
v 0.150889546 0.858026505 0.067321017
v -0.185730428 0.557369709 -0.013727399
v 0.174558565 0.594806135 0.057445459
v 0.183334142 0.624528885 0.056583352
v -0.187065750 0.537591577 -0.009340087
v 0.132295936 0.879151702 0.069686137
v -0.054225754 0.588179231 -0.030608553
v -0.052392788 0.571787953 -0.018564384
v 0.010271577 0.631197214 0.004953455
v -0.036271188 0.578319907 -0.005228455
v -0.023327468 0.934125543 0.068491973
v 0.068811990 0.900002599 -0.148579627
v -0.020926554 0.948599339 0.079160556
v -0.038328908 0.610915601 0.007339587
v 0.134493560 0.612052321 0.074073561
v 0.037364118 0.933694839 0.068714403
v 0.077847429 0.568383396 0.045407750
v 0.065816142 0.588511646 0.041905828
v 0.104395986 0.579787374 0.058976937
v 0.047809381 0.835399270 -0.133348078
v 0.126015067 0.584332764 0.074954435
v 0.056571566 0.602228820 0.023729537
v 0.187202901 0.576486468 0.014427597
v 0.125508994 0.846524119 0.064184166
v 0.111265853 0.866221905 0.057913028
v 0.187832862 0.892813027 0.008147812
v 0.109225050 0.605453491 0.064742297
v 0.176792949 0.891166091 -0.025566047
v 0.193249717 0.889354348 -0.054916658
v 0.059172940 0.929696858 0.073627986
v 0.087236390 0.620769501 0.057299890
v 0.110446669 0.634079456 0.074905261
v 0.169229418 0.894020677 -0.072747983
v 0.173288554 0.908891380 -0.096244849
v 0.085546106 0.595320940 0.053811979
v 0.159204096 0.895651221 -0.101588406
v 0.167638555 0.573557675 -0.057453860
v 0.170880169 0.583058715 -0.083083883
v 0.062544368 0.634112716 0.046709023
v 0.140635520 0.590214372 -0.068898425
v 0.144904360 0.908279777 -0.136329010
v 0.062981986 0.608784437 0.050687909
v 0.111830570 0.688425601 0.077396221
v 0.147361085 0.588268161 0.057803534
v 0.177473798 0.579245448 0.035458185
v 0.201868862 0.588564038 0.031993635
v 0.197567493 0.685463369 -0.043344963
v 0.158711493 0.696470380 -0.103076398
v 0.042353190 0.616298199 0.035068374
v 0.138239533 0.686498940 -0.088614941
v 0.186116636 0.593196154 -0.032481182
v 0.195984975 0.585899234 -0.008734980
v 0.038219351 0.655399740 0.011760745
v 0.008417003 0.681849718 -0.000184592
v 0.089090988 0.874614060 0.057467766
v 0.075083964 0.919988513 0.062127732
v 0.015699271 0.704672873 0.003082823
v 0.036532097 0.817854404 0.042165309
v 0.022529177 0.796157002 0.024888765
v 0.019749364 0.620035350 -0.030145828
v 0.064257376 0.904388309 0.077906653
v 0.035385747 0.660497069 -0.048059911
v 0.037922960 0.873942971 0.065217286
v 0.054311644 0.888651371 0.063117102
v 0.016596301 0.872587323 0.064382806
v 0.040461306 0.596694827 -0.025111660
v 0.048212606 0.660765409 -0.069907345
v 0.076087072 0.772953928 0.065119460
v 0.201695442 0.689253211 0.023824979
v 0.193992525 0.799662352 -0.065614305
v 0.057489276 0.587101042 -0.045483440
v 0.159506157 0.685360789 -0.078534596
v 0.126210108 0.785074115 -0.113060258
v 0.117179513 0.695366621 -0.100970782
v 0.077592112 0.577082336 -0.067597046
v 0.040719237 0.706826746 -0.080247328
v 0.032611422 0.775786281 -0.084660783
v 0.115284406 0.589403272 -0.093044721
v 0.107617460 0.572813630 -0.071668796
v 0.101728700 0.920532823 -0.137334928
v 0.074557379 0.894205570 0.061145138
v 0.070439458 0.871803880 0.079664394
v 0.130113557 0.566745639 -0.091519877
v 0.030556221 0.853966713 0.059195567
v 0.049613442 0.840431094 0.046204392
v 0.083476245 0.923441291 -0.153848335
v 0.148130625 0.560308337 -0.065680966
v 0.178735644 0.766891897 -0.085618943
v 0.020574808 0.831178308 -0.117075406
v 0.151026994 0.628961205 -0.073870525
v 0.176428512 0.555672228 -0.076711416
v 0.014813247 0.700085998 -0.040477019
v 0.164515823 0.552571654 -0.057140697
v 0.032615714 0.801662922 -0.082893446
v 0.188277349 0.555014014 -0.053540744
v 0.178583145 0.573190749 -0.040758062
v 0.055695493 0.727520525 0.054404169
v 0.109752022 0.892951846 -0.139476448
v 0.090972707 0.898128152 -0.153150156
v 0.016279902 0.782255650 -0.066311695
v 0.195609063 0.567786872 -0.025770897
v 0.117876843 0.646654010 -0.087761357
v 0.198724687 0.637345195 -0.013144225
v 0.206741139 0.617006421 0.028023962
v 0.157708794 0.636948764 -0.092665456
v 0.140959769 0.643634856 -0.079978064
v 0.196136445 0.557853103 0.034036022
v 0.169653147 0.843145370 0.060231835
v 0.206946328 0.844585061 0.005551791
v 0.185285762 0.636886358 -0.047764197
v 0.048508979 0.615187109 -0.041245922
v 0.165803403 0.562190354 0.057187356
v 0.087108426 0.752275646 0.068740644
v 0.200858623 0.653857946 0.001769043
v 0.210273266 0.644765258 0.022207517
v 0.090842091 0.667619526 -0.088690534
v 0.138921112 0.558953941 0.062798940
v 0.128912389 0.840131938 -0.132092759
v -0.009524549 0.766226292 0.006020369
v -0.013774415 0.666330159 0.000532618
v 0.051343601 0.653059125 0.032910384
v 0.114813827 0.559601068 0.072131105
v 0.148695126 0.847165942 -0.107297525
v -0.011561693 0.725712657 0.001036873
v -0.008324553 0.786481798 0.010838130
v 0.099142313 0.557811499 0.052617572
v 0.021397904 0.834225774 0.050722677
v -0.004243589 0.833169758 0.050340563
v 0.111712418 0.890018106 0.048116788
v 0.061972659 0.576919615 0.023169769
v 0.109097704 0.916455865 0.048643686
v 0.188384742 0.560028911 -0.004807727
v 0.106972896 0.754096389 0.076763153
v 0.035858069 0.927624345 -0.137874231
v 0.038145155 0.588513792 0.014479496
v 0.069588795 0.877943039 -0.149282798
v 0.012742303 0.604354441 0.013512179
v 0.037924968 0.619395792 0.009159720
v 0.040850926 0.814352155 -0.110375799
v 0.014423792 0.819431663 0.032911718
v 0.013472944 0.653034270 0.000935078
v -0.015708152 0.647417545 -0.001190554
v -0.012125045 0.705615997 -0.000005842
v 0.179525718 0.555007100 -0.031578839
v -0.012731090 0.685800254 -0.000367797
v 0.064482018 0.608699203 -0.069737017
v 0.087705091 0.753561556 -0.105240680
v 0.108082578 0.764349580 -0.122085415
v 0.165494233 0.745457232 0.066998824
v 0.095885061 0.710426152 0.069310680
v 0.169801980 0.716332436 0.062803276
v 0.097408734 0.600061476 -0.072796434
v 0.182510301 0.551981151 0.015701417
f 555 540 123
f 389 162 497
f 567 540 568
f 583 104 251
f 463 489 430
f 453 94 255
f 483 484 162
f 446 640 671
f 574 577 251
f 50 244 238
f 52 244 50
f 575 57 53
f 55 249 52
f 55 2 250
f 577 248 563
f 575 437 432
f 57 597 589
f 2 265 262
f 589 592 57
f 262 259 2
f 5 267 262
f 602 606 589
f 5 9 11
f 58 606 610
f 11 272 5
f 12 278 11
f 565 793 8
f 630 60 632
f 13 425 12
f 424 289 160
f 289 424 13
f 643 649 60
f 181 403 179
f 483 206 484
f 163 651 174
f 53 563 558
f 651 65 650
f 163 389 384
f 683 66 65
f 455 558 563
f 165 384 171
f 340 331 34
f 67 66 683
f 206 470 63
f 385 102 856
f 67 702 70
f 344 340 696
f 179 403 406
f 710 70 702
f 16 352 14
f 111 112 59
f 63 64 655
f 18 368 16
f 710 742 753
f 119 112 111
f 394 671 545
f 551 922 903
f 19 375 18
f 753 740 711
f 406 470 179
f 261 615 108
f 545 453 439
f 178 386 530
f 24 386 23
f 72 753 742
f 26 396 24
f 768 765 72
f 119 142 112
f 32 63 470
f 112 142 161
f 399 400 396
f 154 343 182
f 545 671 448
f 399 415 400
f 768 770 765
f 32 406 410
f 418 415 399
f 770 183 777
f 387 300 166
f 415 418 422
f 105 86 299
f 169 42 839
f 170 142 119
f 173 172 705
f 329 638 343
f 134 738 737
f 185 638 329
f 692 661 145
f 150 74 741
f 637 345 873
f 132 145 661
f 170 184 142
f 138 495 760
f 138 136 188
f 136 194 188
f 201 87 194
f 270 87 205
f 216 49 210
f 46 216 724
f 198 184 170
f 43 96 907
f 219 39 218
f 45 43 41
f 224 37 219
f 498 224 514
f 86 105 342
f 225 36 514
f 378 107 110
f 80 233 107
f 22 41 43
f 198 217 849
f 41 581 45
f 103 233 76
f 76 40 103
f 222 217 214
f 678 100 40
f 98 41 22
f 366 41 98
f 40 76 678
f 215 4 284
f 215 98 21
f 537 536 92
f 222 234 217
f 904 537 92
f 460 462 30
f 284 471 366
f 222 239 246
f 586 903 759
f 462 28 30
f 246 234 222
f 454 449 28
f 237 391 924
f 560 319 921
f 246 888 252
f 431 471 282
f 455 560 391
f 319 560 241
f 50 238 793
f 50 566 52
f 52 574 55
f 258 263 510
f 244 52 249
f 55 253 2
f 284 792 657
f 303 670 667
f 303 100 674
f 250 249 55
f 273 274 252
f 251 253 574
f 100 303 301
f 301 570 100
f 104 261 257
f 677 100 678
f 273 285 274
f 257 2 253
f 2 257 265
f 250 2 259
f 570 568 40
f 752 292 293
f 294 296 285
f 285 296 274
f 684 497 679
f 277 274 296
f 440 447 442
f 579 489 463
f 692 329 695
f 259 262 267
f 871 736 360
f 262 271 9
f 40 100 570
f 570 567 568
f 203 128 270
f 310 296 294
f 305 296 310
f 87 270 194
f 9 5 262
f 5 272 600
f 276 9 271
f 9 276 11
f 272 11 278
f 302 323 310
f 568 103 40
f 108 615 89
f 280 11 276
f 11 280 12
f 103 568 540
f 278 12 425
f 323 337 328
f 283 12 280
f 12 283 13
f 283 297 289
f 289 13 283
f 540 561 231
f 425 13 424
f 209 288 205
f 291 125 286
f 346 337 323
f 49 304 288
f 173 350 351
f 297 654 314
f 347 158 864
f 304 47 311
f 47 304 49
f 47 46 481
f 360 361 855
f 501 684 146
f 481 311 47
f 46 39 481
f 343 695 329
f 314 289 297
f 289 314 160
f 481 321 308
f 481 39 321
f 325 122 321
f 325 321 37
f 37 321 39
f 333 160 314
f 324 266 333
f 527 107 231
f 84 121 325
f 36 327 498
f 160 333 34
f 327 120 84
f 36 82 371
f 277 393 390
f 689 34 333
f 34 689 340
f 313 34 331
f 266 334 689
f 334 260 341
f 340 335 331
f 107 527 110
f 54 404 405
f 696 14 344
f 61 401 44
f 38 299 407
f 358 14 348
f 14 358 16
f 344 14 352
f 356 704 712
f 352 16 368
f 413 62 417
f 370 16 358
f 16 370 18
f 175 705 134
f 713 115 110
f 371 27 378
f 27 371 82
f 381 18 370
f 18 381 19
f 368 18 375
f 80 378 27
f 19 381 235
f 19 395 23
f 19 23 178
f 202 506 913
f 23 395 24
f 386 24 396
f 398 24 395
f 24 398 26
f 26 398 220
f 26 412 399
f 396 26 399
f 418 399 412
f 164 180 444
f 444 443 164
f 175 173 705
f 685 84 120
f 422 300 415
f 685 121 84
f 172 169 300
f 172 300 422
f 78 80 27
f 226 365 78
f 89 615 114
f 240 485 309
f 134 737 175
f 226 27 82
f 245 459 452
f 187 186 140
f 243 459 245
f 189 187 130
f 581 466 579
f 467 472 637
f 308 122 240
f 138 579 466
f 430 255 463
f 499 435 430
f 453 430 435
f 435 440 439
f 435 499 450
f 243 479 281
f 308 321 122
f 897 438 584
f 439 453 435
f 243 281 893
f 450 440 435
f 480 859 865
f 440 449 447
f 442 439 440
f 450 449 440
f 447 449 454
f 492 488 493
f 127 458 456
f 449 456 28
f 82 225 708
f 454 28 462
f 28 456 30
f 456 450 127
f 30 456 458
f 225 82 36
f 30 464 460
f 506 507 502
f 126 469 125
f 287 508 509
f 207 507 506
f 410 460 32
f 126 306 477
f 460 464 644
f 644 32 460
f 32 644 63
f 475 31 576
f 470 406 32
f 64 63 644
f 306 309 477
f 125 464 458
f 528 795 511
f 516 523 524
f 655 206 63
f 206 655 484
f 206 474 470
f 162 679 497
f 316 322 822
f 313 160 34
f 37 498 325
f 523 316 534
f 497 684 501
f 501 146 505
f 146 512 503
f 505 503 513
f 263 515 510
f 512 120 115
f 503 512 91
f 517 513 503
f 115 713 91
f 458 203 125
f 315 547 548
f 91 512 115
f 547 330 336
f 91 713 88
f 517 88 522
f 552 548 547
f 532 88 713
f 88 532 519
f 552 336 553
f 522 519 541
f 527 231 561
f 127 128 458
f 538 660 692
f 514 36 498
f 224 498 37
f 538 692 695
f 114 626 631
f 553 342 105
f 219 37 39
f 555 660 561
f 127 450 499
f 891 199 824
f 660 555 661
f 218 39 46
f 199 97 886
f 366 98 284
f 22 21 98
f 41 366 581
f 43 232 22
f 907 232 43
f 96 536 907
f 45 463 255
f 45 581 463
f 255 94 96
f 255 96 45
f 94 453 545
f 448 546 545
f 582 593 594
f 595 584 438
f 216 46 47
f 216 47 49
f 551 640 558
f 558 640 569
f 49 288 209
f 793 565 50
f 569 53 558
f 566 50 565
f 209 210 49
f 841 351 350
f 574 52 566
f 578 53 57
f 612 609 423
f 53 578 563
f 575 53 569
f 597 432 211
f 253 55 574
f 57 575 597
f 578 57 592
f 592 583 578
f 627 609 612
f 584 621 628
f 603 589 606
f 602 589 597
f 634 819 627
f 610 606 602
f 835 318 229
f 626 606 58
f 610 624 58
f 58 624 630
f 632 58 630
f 634 884 869
f 58 632 626
f 60 642 632
f 642 60 649
f 60 630 181
f 650 649 643
f 662 652 645
f 656 628 621
f 621 636 656
f 658 659 204
f 64 644 469
f 466 495 138
f 694 377 700
f 468 471 431
f 663 650 65
f 628 656 668
f 679 162 484
f 65 686 663
f 672 673 659
f 686 65 66
f 683 65 651
f 468 431 478
f 683 693 67
f 685 146 684
f 146 685 512
f 696 340 689
f 66 67 701
f 473 495 478
f 66 698 686
f 702 67 693
f 668 675 687
f 701 698 66
f 405 690 54
f 701 67 70
f 54 690 564
f 14 696 348
f 711 70 710
f 699 70 711
f 702 709 710
f 229 318 236
f 657 282 471
f 710 709 742
f 753 756 740
f 756 753 72
f 742 754 72
f 72 754 768
f 72 765 756
f 766 765 770
f 490 193 496
f 130 772 496
f 770 776 766
f 15 719 168
f 87 201 148
f 183 770 768
f 201 194 136
f 422 705 172
f 633 777 338
f 777 633 150
f 408 74 633
f 638 185 408
f 106 730 258
f 688 379 694
f 275 631 118
f 185 692 145
f 197 750 749
f 736 737 738
f 263 258 730
f 738 741 743
f 185 145 143
f 743 741 744
f 744 741 74
f 744 467 879
f 132 140 145
f 123 132 661
f 741 738 150
f 123 540 567
f 773 772 567
f 738 134 150
f 78 27 226
f 238 623 1
f 264 279 779
f 776 150 134
f 134 705 420
f 695 541 538
f 104 599 261
f 365 681 680
f 761 762 763
f 365 678 76
f 76 78 365
f 411 156 420
f 156 411 220
f 541 519 538
f 220 764 156
f 76 233 78
f 80 78 233
f 168 789 387
f 70 699 701
f 398 395 228
f 434 437 445
f 779 780 887
f 428 432 434
f 926 317 706
f 197 749 745
f 213 6 4
f 279 785 780
f 419 427 428
f 148 201 745
f 454 462 419
f 526 782 783
f 381 734 235
f 410 414 419
f 493 769 913
f 511 4 215
f 4 511 213
f 406 414 410
f 208 731 729
f 21 511 215
f 210 728 727
f 794 800 823
f 511 21 529
f 470 474 179
f 724 218 46
f 227 110 115
f 118 280 275
f 219 218 722
f 806 800 794
f 803 804 256
f 716 778 225
f 224 219 720
f 407 86 690
f 356 734 381
f 389 497 380
f 809 795 528
f 810 806 811
f 717 716 514
f 497 501 380
f 317 697 429
f 810 818 821
f 913 771 202
f 341 698 699
f 373 376 159
f 369 177 373
f 341 260 698
f 260 334 266
f 365 226 681
f 517 522 354
f 828 821 818
f 354 362 364
f 569 640 446
f 519 522 88
f 767 828 818
f 266 324 676
f 602 597 211
f 804 834 256
f 121 240 122
f 345 868 918
f 610 602 211
f 169 839 166
f 427 195 211
f 643 179 174
f 683 651 165
f 693 683 171
f 627 884 634
f 324 654 676
f 846 397 841
f 841 397 374
f 362 709 369
f 580 397 846
f 192 188 190
f 192 499 489
f 128 192 190
f 270 205 203
f 205 288 286
f 291 306 126
f 208 148 733
f 288 304 291
f 304 311 306
f 311 481 308
f 286 125 203
f 283 118 297
f 589 599 592
f 283 280 118
f 227 115 120
f 747 805 732
f 707 226 82
f 107 378 80
f 275 114 631
f 118 646 297
f 89 114 275
f 231 233 103
f 87 209 205
f 816 872 870
f 271 108 89
f 248 560 455
f 248 241 560
f 108 271 265
f 566 565 241
f 86 876 690
f 622 244 619
f 517 91 88
f 574 566 248
f 715 662 889
f 244 249 618
f 249 250 614
f 882 465 718
f 253 251 257
f 774 465 882
f 250 259 608
f 883 494 774
f 921 391 560
f 259 267 604
f 54 564 847
f 251 577 583
f 600 267 5
f 89 276 271
f 503 91 517
f 690 405 407
f 275 276 89
f 892 573 582
f 272 278 596
f 248 577 574
f 280 276 275
f 425 588 591
f 425 424 781
f 781 313 572
f 424 313 781
f 572 585 781
f 314 654 324
f 136 197 201
f 313 557 572
f 237 551 558
f 554 331 335
f 334 341 348
f 760 136 138
f 335 344 549
f 341 699 704
f 348 696 334
f 921 319 7
f 358 348 704
f 344 352 544
f 912 582 594
f 903 586 551
f 352 368 543
f 381 370 356
f 368 375 539
f 788 8 3
f 535 375 178
f 221 795 809
f 828 767 562
f 559 833 920
f 921 920 899
f 546 448 898
f 903 922 836
f 38 903 299
f 235 228 395
f 405 669 407
f 546 92 94
f 400 518 520
f 92 546 904
f 639 35 926
f 386 396 525
f 927 926 33
f 928 605 930
f 200 490 298
f 94 545 546
f 96 92 536
f 927 56 852
f 143 472 408
f 220 412 26
f 400 520 521
f 412 220 411
f 109 113 152
f 920 832 559
f 418 412 411
f 152 113 746
f 387 789 786
f 420 418 411
f 746 161 867
f 418 420 422
f 490 773 298
f 496 772 773
f 394 442 445
f 562 767 832
f 739 636 820
f 204 725 658
f 773 490 496
f 725 223 635
f 447 454 428
f 472 186 637
f 215 284 98
f 189 130 496
f 458 464 30
f 410 462 460
f 125 469 464
f 635 247 487
f 487 269 629
f 641 487 629
f 268 269 487
f 269 393 629
f 390 269 268
f 469 126 64
f 349 761 763
f 655 64 477
f 303 674 670
f 290 393 277
f 611 290 928
f 163 474 483
f 928 307 605
f 635 641 648
f 531 605 533
f 677 674 100
f 477 309 485
f 506 202 207
f 679 485 240
f 240 121 684
f 312 912 594
f 684 679 240
f 121 685 684
f 186 187 345
f 503 505 146
f 912 332 892
f 772 130 132
f 685 120 512
f 501 505 159
f 725 648 658
f 505 513 373
f 513 517 364
f 892 847 564
f 110 527 713
f 714 847 339
f 522 541 154
f 51 714 346
f 231 103 540
f 714 51 404
f 541 695 343
f 567 772 123
f 502 500 506
f 578 577 563
f 867 659 673
f 577 578 583
f 597 575 432
f 592 104 583
f 913 492 493
f 845 167 839
f 599 104 592
f 386 178 23
f 599 603 615
f 110 227 378
f 615 261 599
f 706 402 639
f 603 626 114
f 132 123 772
f 624 610 195
f 409 706 317
f 746 673 682
f 114 615 603
f 120 327 227
f 624 414 403
f 691 429 697
f 642 631 632
f 642 118 631
f 429 433 853
f 646 118 642
f 642 649 646
f 152 682 691
f 682 433 691
f 181 643 60
f 654 297 646
f 122 325 121
f 140 130 187
f 421 416 617
f 123 661 555
f 309 308 240
f 698 260 686
f 702 693 177
f 698 701 699
f 672 441 436
f 291 126 125
f 109 691 697
f 143 140 186
f 874 872 816
f 665 441 672
f 188 192 489
f 665 658 653
f 712 704 699
f 653 451 665
f 927 697 317
f 712 740 734
f 648 461 653
f 178 375 19
f 923 880 116
f 641 461 648
f 740 756 748
f 748 758 228
f 926 706 639
f 479 641 482
f 754 742 362
f 354 754 362
f 407 669 38
f 203 458 128
f 482 629 620
f 756 765 758
f 182 754 154
f 128 127 192
f 254 246 252
f 611 382 620
f 764 398 228
f 499 192 127
f 764 766 156
f 766 776 156
f 930 611 928
f 420 156 776
f 140 132 130
f 788 7 8
f 387 166 168
f 420 776 134
f 136 760 197
f 300 387 415
f 750 197 760
f 745 201 197
f 148 208 209
f 733 148 745
f 258 35 106
f 593 533 605
f 731 208 733
f 236 318 910
f 729 210 208
f 728 210 729
f 727 216 210
f 188 489 579
f 929 573 556
f 724 216 727
f 573 929 582
f 723 218 724
f 722 218 723
f 720 219 722
f 717 224 720
f 514 224 717
f 188 579 138
f 876 556 573
f 707 681 226
f 898 904 546
f 472 143 186
f 212 795 221
f 899 391 921
f 854 925 931
f 213 795 212
f 140 143 145
f 404 54 714
f 833 922 924
f 415 387 786
f 143 408 185
f 238 3 793
f 1 3 238
f 31 799 752
f 622 238 244
f 918 799 515
f 380 376 171
f 915 752 357
f 617 476 421
f 619 244 618
f 618 249 616
f 616 249 614
f 636 739 613
f 388 613 10
f 614 250 608
f 357 791 915
f 383 688 388
f 608 259 607
f 571 438 576
f 295 667 666
f 92 96 94
f 607 259 604
f 372 726 700
f 667 295 303
f 367 726 372
f 604 267 601
f 298 295 207
f 923 875 880
f 363 732 367
f 408 467 74
f 148 209 87
f 298 301 295
f 359 747 363
f 601 267 600
f 359 355 755
f 600 272 598
f 598 272 596
f 353 755 355
f 301 298 773
f 596 278 591
f 747 755 751
f 591 278 425
f 588 425 781
f 388 688 813
f 769 771 913
f 763 353 349
f 202 771 200
f 506 500 913
f 74 467 744
f 773 570 301
f 82 708 707
f 320 647 326
f 500 492 913
f 331 554 557
f 242 910 320
f 344 335 340
f 910 908 647
f 554 335 550
f 239 222 703
f 549 550 335
f 549 344 544
f 166 167 168
f 544 352 543
f 543 368 542
f 17 15 167
f 17 845 157
f 907 536 919
f 157 850 155
f 155 850 153
f 542 368 539
f 150 633 74
f 153 854 151
f 151 854 149
f 149 858 147
f 147 862 144
f 539 375 535
f 759 903 38
f 530 535 178
f 144 862 141
f 141 866 139
f 139 866 137
f 530 386 525
f 137 870 135
f 525 396 521
f 135 870 872
f 133 872 131
f 131 874 129
f 129 923 117
f 923 874 875
f 170 119 902
f 521 396 400
f 20 932 101
f 99 101 932
f 99 886 97
f 95 97 199
f 95 891 93
f 93 896 90
f 518 400 786
f 90 896 85
f 85 901 83
f 83 905 81
f 169 166 300
f 81 905 79
f 77 79 796
f 77 909 75
f 439 394 545
f 75 914 73
f 73 914 71
f 71 916 69
f 442 394 439
f 468 466 366
f 442 447 434
f 7 562 920
f 794 534 811
f 924 899 833
f 434 447 428
f 428 454 419
f 419 462 410
f 38 898 759
f 902 111 897
f 466 468 495
f 526 524 534
f 25 59 56
f 96 43 45
f 895 401 61
f 182 343 338
f 483 389 163
f 483 162 389
f 897 59 25
f 883 894 775
f 776 777 150
f 59 897 111
f 380 384 389
f 774 882 893
f 111 902 119
f 778 708 225
f 501 159 380
f 167 166 839
f 159 505 373
f 176 191 867
f 373 513 369
f 364 369 513
f 850 890 925
f 354 364 517
f 354 522 154
f 177 369 709
f 154 541 343
f 446 445 437
f 376 380 159
f 204 223 725
f 217 198 214
f 214 703 222
f 437 569 446
f 610 211 195
f 414 624 195
f 403 630 624
f 889 718 715
f 160 313 424
f 181 630 403
f 888 246 239
f 179 643 181
f 174 650 643
f 651 650 174
f 163 384 165
f 487 247 268
f 165 651 163
f 171 683 165
f 174 474 163
f 557 313 331
f 475 515 799
f 376 693 171
f 285 273 757
f 177 693 376
f 627 885 884
f 174 179 474
f 509 508 516
f 294 302 310
f 709 702 177
f 709 362 742
f 154 754 354
f 182 338 183
f 780 785 803
f 183 768 182
f 423 413 881
f 183 338 777
f 638 338 343
f 633 638 408
f 590 401 895
f 692 185 329
f 190 188 194
f 515 475 25
f 270 190 194
f 190 270 128
f 195 427 414
f 7 788 562
f 915 878 571
f 877 595 438
f 203 205 286
f 44 48 61
f 474 206 483
f 210 209 208
f 61 62 895
f 413 895 62
f 211 432 427
f 172 42 169
f 398 764 220
f 515 263 918
f 437 575 569
f 228 758 764
f 124 885 426
f 175 871 350
f 84 498 327
f 225 514 716
f 327 371 227
f 918 263 730
f 898 448 759
f 371 327 36
f 839 374 890
f 227 371 378
f 451 441 665
f 228 235 748
f 444 180 457
f 233 231 107
f 187 868 345
f 759 448 586
f 189 292 868
f 734 748 235
f 653 461 826
f 924 922 237
f 292 193 196
f 446 671 394
f 461 641 479
f 922 551 237
f 391 237 455
f 482 641 629
f 918 868 799
f 196 200 293
f 771 293 200
f 558 455 237
f 281 287 894
f 894 893 281
f 248 566 241
f 257 251 104
f 255 430 453
f 257 261 265
f 509 775 287
f 260 266 676
f 509 516 524
f 265 261 108
f 523 516 531
f 322 316 523
f 273 252 888
f 265 271 262
f 811 534 316
f 316 315 811
f 676 686 260
f 366 466 581
f 478 495 468
f 330 547 315
f 547 336 552
f 366 471 468
f 760 495 473
f 657 471 284
f 336 342 553
f 553 900 552
f 832 900 553
f 865 878 791
f 792 284 4
f 31 571 576
f 286 288 291
f 438 571 877
f 906 864 863
f 4 790 792
f 8 7 319
f 303 295 301
f 291 304 306
f 570 773 567
f 739 617 392
f 617 416 392
f 306 311 309
f 309 311 308
f 170 628 668
f 613 739 10
f 739 392 10
f 656 675 668
f 656 815 675
f 680 678 365
f 813 613 388
f 324 333 314
f 687 198 668
f 379 688 383
f 295 666 207
f 815 656 636
f 377 694 379
f 325 498 84
f 689 333 266
f 334 696 689
f 700 377 372
f 861 834 860
f 703 721 239
f 732 726 367
f 834 861 256
f 348 341 704
f 747 732 363
f 356 358 704
f 735 888 721
f 370 358 356
f 735 264 757
f 735 273 888
f 755 747 359
f 369 364 362
f 353 763 755
f 647 761 326
f 761 349 326
f 376 373 177
f 779 757 264
f 780 779 279
f 384 380 171
f 235 395 19
f 736 871 737
f 562 788 917
f 910 647 320
f 785 804 803
f 414 406 403
f 256 323 803
f 813 675 815
f 415 786 400
f 427 419 414
f 422 420 705
f 432 428 427
f 430 489 499
f 587 580 590
f 437 434 432
f 445 442 434
f 446 394 445
f 671 586 448
f 819 609 627
f 456 449 450
f 455 563 248
f 865 791 769
f 581 579 463
f 645 652 817
f 644 464 469
f 652 662 715
f 874 923 129
f 715 664 652
f 694 812 688
f 477 64 126
f 750 760 473
f 485 655 477
f 465 715 718
f 507 207 666
f 465 774 494
f 865 486 480
f 812 675 813
f 485 484 655
f 207 202 298
f 883 504 825
f 493 865 769
f 783 782 504
f 679 484 485
f 202 200 298
f 196 490 200
f 196 193 490
f 877 859 476
f 302 803 323
f 189 496 193
f 814 806 810
f 168 719 789
f 821 814 810
f 391 899 924
f 713 527 532
f 467 408 472
f 302 294 887
f 786 787 518
f 538 519 532
f 561 532 527
f 926 35 33
f 538 532 660
f 540 555 561
f 551 586 640
f 319 241 565
f 660 532 561
f 113 161 746
f 161 176 867
f 8 319 565
f 223 247 635
f 781 585 784
f 620 629 393
f 887 780 302
f 269 390 393
f 671 640 586
f 781 784 588
f 599 589 603
f 393 290 611
f 626 603 606
f 928 290 305
f 623 238 622
f 625 1 623
f 774 893 894
f 312 332 912
f 626 632 631
f 332 339 847
f 847 892 332
f 757 887 285
f 847 714 54
f 793 3 8
f 732 807 726
f 858 931 857
f 675 812 687
f 168 167 15
f 273 735 757
f 920 921 7
f 402 385 639
f 167 845 17
f 638 633 338
f 646 649 663
f 650 663 649
f 845 850 157
f 888 239 721
f 663 654 646
f 706 409 48
f 850 854 153
f 676 654 663
f 429 409 317
f 661 692 660
f 854 858 149
f 676 663 686
f 858 862 147
f 433 429 691
f 678 680 677
f 699 711 712
f 712 734 356
f 711 710 753
f 862 866 141
f 712 711 740
f 682 436 827
f 734 740 748
f 866 870 137
f 214 687 808
f 748 756 758
f 664 816 652
f 872 133 135
f 198 687 214
f 754 182 768
f 872 874 131
f 665 659 658
f 758 765 766
f 658 648 653
f 766 764 758
f 776 770 777
f 668 198 170
f 117 923 116
f 787 786 789
f 929 330 822
f 533 822 322
f 556 336 330
f 531 322 523
f 899 920 833
f 662 444 889
f 346 323 256
f 491 482 620
f 116 880 911
f 911 20 116
f 382 491 620
f 911 932 20
f 932 886 99
f 645 443 662
f 930 382 611
f 382 930 516
f 886 824 199
f 605 531 930
f 491 508 848
f 628 170 902
f 256 347 346
f 482 848 479
f 891 896 93
f 347 256 861
f 820 617 739
f 866 819 817
f 605 594 593
f 896 901 85
f 929 593 582
f 612 881 885
f 901 905 83
f 826 451 653
f 451 457 180
f 672 659 665
f 441 180 851
f 79 905 796
f 436 673 672
f 436 851 827
f 909 914 75
f 682 673 436
f 914 916 71
f 584 902 897
f 876 86 342
f 69 916 1
f 829 433 827
f 700 808 694
f 788 3 916
f 853 829 417
f 409 61 48
f 402 48 855
f 870 817 816
f 855 29 360
f 874 816 664
f 385 361 102
f 830 880 875
f 576 897 25
f 819 634 817
f 68 69 1
f 106 856 730
f 743 736 738
f 910 242 236
f 862 857 819
f 744 879 102
f 880 830 831
f 840 528 843
f 401 846 44
f 803 302 780
f 769 791 357
f 878 915 791
f 831 911 880
f 918 873 345
f 576 25 475
f 799 31 475
f 841 29 846
f 879 856 102
f 106 639 385
f 573 564 876
f 911 831 802
f 342 556 876
f 337 339 332
f 25 510 515
f 350 29 841
f 564 573 892
f 892 582 912
f 510 25 56
f 864 906 837
f 312 328 337
f 929 822 593
f 33 35 258
f 871 360 29
f 840 860 835
f 864 158 863
f 29 855 44
f 916 914 917
f 808 687 812
f 594 307 312
f 307 305 328
f 916 917 788
f 33 56 927
f 840 835 809
f 307 594 605
f 736 743 361
f 531 516 930
f 290 277 305
f 852 109 927
f 318 835 860
f 21 844 529
f 852 59 112
f 620 393 611
f 102 743 744
f 112 113 852
f 751 763 762
f 647 785 762
f 805 747 751
f 252 268 254
f 230 835 229
f 487 641 635
f 637 879 467
f 124 851 164
f 809 230 221
f 161 142 176
f 807 732 805
f 247 234 254
f 230 809 835
f 808 700 807
f 345 637 186
f 176 184 191
f 812 694 808
f 204 849 223
f 849 204 191
f 813 688 812
f 635 648 725
f 849 184 198
f 815 613 813
f 815 636 613
f 217 223 849
f 659 191 204
f 217 234 223
f 191 184 849
f 859 480 421
f 795 213 511
f 245 461 243
f 878 865 859
f 802 886 932
f 191 659 867
f 452 718 889
f 223 234 247
f 176 142 184
f 246 254 234
f 865 493 486
f 293 771 357
f 268 247 254
f 771 769 357
f 805 264 735
f 268 252 390
f 161 113 112
f 486 493 488
f 390 252 274
f 867 673 746
f 264 751 279
f 274 277 390
f 746 682 152
f 281 848 287
f 827 433 682
f 808 703 214
f 152 691 109
f 109 852 113
f 476 859 421
f 296 305 277
f 476 595 877
f 305 307 928
f 196 293 292
f 595 476 820
f 726 807 700
f 752 293 357
f 307 328 312
f 310 328 305
f 56 59 852
f 292 752 799
f 328 310 323
f 886 825 824
f 312 337 332
f 807 703 808
f 891 824 782
f 193 292 189
f 844 21 22
f 429 853 409
f 109 697 927
f 56 33 510
f 105 559 553
f 339 337 346
f 346 714 339
f 51 346 347
f 317 926 927
f 564 690 876
f 863 844 232
f 799 868 292
f 510 33 258
f 843 528 529
f 844 863 842
f 861 840 843
f 861 158 347
f 861 860 840
f 752 915 31
f 158 843 842
f 843 158 861
f 842 529 844
f 919 837 906
f 906 232 907
f 809 528 840
f 730 873 918
f 730 856 873
f 873 856 879
f 856 106 385
f 817 634 645
f 837 919 838
f 817 652 816
f 919 906 907
f 919 536 537
f 743 102 361
f 904 669 838
f 898 669 904
f 669 898 38
f 703 807 721
f 405 404 838
f 669 405 838
f 922 833 836
f 294 285 887
f 361 385 402
f 869 645 634
f 830 875 664
f 916 3 1
f 864 51 347
f 402 855 361
f 909 801 914
f 397 890 374
f 48 44 855
f 796 909 77
f 879 637 873
f 901 798 905
f 580 925 397
f 48 402 706
f 896 800 901
f 891 823 896
f 409 62 61
f 853 62 409
f 881 413 417
f 417 62 853
f 86 407 299
f 459 893 882
f 199 891 95
f 830 465 831
f 829 426 417
f 426 829 124
f 426 881 417
f 124 829 827
f 433 829 853
f 886 802 825
f 774 894 883
f 851 124 827
f 164 884 124
f 441 851 436
f 180 164 851
f 443 869 164
f 911 802 932
f 715 830 664
f 874 664 875
f 736 361 360
f 451 180 441
f 457 452 889
f 889 444 457
f 866 817 870
f 106 35 639
f 459 718 452
f 826 452 457
f 452 826 245
f 451 826 457
f 862 819 866
f 858 857 862
f 461 245 826
f 459 882 718
f 479 243 461
f 854 931 858
f 850 925 854
f 846 401 580
f 845 890 850
f 491 848 482
f 848 281 479
f 825 494 883
f 382 508 491
f 900 832 767
f 508 287 848
f 896 823 800
f 839 890 845
f 504 782 824
f 42 374 839
f 516 508 382
f 908 910 318
f 534 524 523
f 552 818 548
f 42 172 173
f 901 800 798
f 818 552 900
f 533 322 531
f 871 175 737
f 868 187 189
f 22 232 844
f 593 822 533
f 822 315 316
f 929 556 330
f 330 315 822
f 838 919 537
f 904 838 537
f 318 860 834
f 908 318 834
f 465 830 715
f 556 342 336
f 105 836 559
f 833 559 836
f 29 44 846
f 908 834 804
f 562 917 828
f 299 836 105
f 818 900 767
f 832 553 559
f 562 832 920
f 811 315 548
f 828 801 821
f 801 828 917
f 821 797 814
f 836 299 903
f 401 590 580
f 797 821 801
f 905 798 796
f 796 814 797
f 810 548 818
f 814 798 806
f 798 814 796
f 909 796 797
f 811 548 810
f 413 587 590
f 404 51 837
f 51 864 837
f 837 838 404
f 909 797 801
f 529 842 843
f 158 842 863
f 232 906 863
f 800 806 798
f 529 528 511
f 794 811 806
f 785 908 804
f 785 647 908
f 859 877 878
f 526 534 794
f 877 571 878
f 571 31 915
f 173 351 42
f 524 783 509
f 350 173 175
f 29 350 871
f 823 526 794
f 783 524 526
f 526 823 782
f 42 351 374
f 841 374 351
f 504 775 783
f 509 783 775
f 782 823 891
f 885 124 884
f 887 757 779
f 914 801 917
f 426 885 881
f 890 397 925
f 825 504 824
f 775 504 883
f 925 587 931
f 587 925 580
f 802 494 825
f 785 279 762
f 494 831 465
f 831 494 802
f 894 287 775
f 590 895 413
f 438 897 576
f 884 164 869
f 762 279 751
f 423 931 587
f 587 413 423
f 931 423 857
f 762 761 647
f 617 820 476
f 595 820 621
f 751 755 763
f 893 459 243
f 751 264 805
f 609 857 423
f 423 881 612
f 662 443 444
f 721 805 735
f 621 584 595
f 857 609 819
f 443 645 869
f 612 885 627
f 636 621 820
f 628 902 584
f 805 721 807
