# avbd fit, rung k10-i16-s100 of Gate 6d (body space)
v -0.017957125 0.570029199 0.055993218
v -0.127293080 0.583111227 0.103197679
v -0.016164944 0.578019977 0.074400112
v 0.002940587 0.929218769 0.083774477
v -0.178927556 0.559163213 0.068572782
v 0.010254483 0.943927944 0.071871735
v -0.015646938 0.616256833 0.082182229
v -0.015373069 0.597685218 0.075098731
v -0.170710668 0.579324186 0.058277469
v 0.141026229 0.944846511 -0.108140074
v -0.195876420 0.577849865 0.050407708
v -0.187157139 0.577812314 0.024119478
v -0.203435853 0.578937411 0.006256284
v -0.166879207 0.572953463 -0.079034910
v 0.016313625 0.538908362 -0.079425149
v -0.169391230 0.565479636 -0.099275976
v 0.041183464 0.536420703 -0.086085625
v -0.147974551 0.562453926 -0.103889383
v -0.140665129 0.574427068 -0.122818984
v 0.191434368 0.527838588 -0.006710424
v 0.001597066 0.891431034 0.095585547
v 0.001985459 0.871672153 0.092846602
v -0.124910749 0.571038604 -0.102399871
v -0.121214591 0.583295882 -0.122351348
v 0.102166817 0.822562099 -0.144026414
v -0.103718325 0.594219327 -0.116240010
v -0.138794422 0.902530193 -0.148623526
v -0.156596333 0.790366173 0.079822943
v 0.050600350 0.666790366 -0.121742941
v -0.175718695 0.804940581 0.083462343
v 0.073120452 0.860016644 -0.155796021
v -0.199985415 0.776997328 0.049441475
v 0.097787745 0.772793412 -0.150384307
v -0.194549173 0.574726462 -0.040734433
v 0.090592638 0.768104672 -0.128757939
v -0.158736736 0.906949341 -0.111615375
v -0.184690446 0.904143333 -0.065729707
v 0.018928453 0.734714627 0.077780373
v -0.179704934 0.906014800 -0.040097982
v -0.085924380 0.901341558 -0.155145973
v -0.033367924 0.877075672 0.098505005
v 0.015071188 0.610715508 -0.102968499
v -0.021057423 0.853089213 0.090376951
v 0.078589290 0.674133658 -0.130428344
v -0.048338715 0.854863644 0.094559066
v -0.195396334 0.918738663 -0.022923101
v -0.194753543 0.900085092 -0.002541156
v 0.087462589 0.701150298 -0.120502830
v -0.172057316 0.896641433 0.010023152
v -0.066865720 0.582302451 0.081813410
v 0.073155619 0.817576230 0.105583824
v -0.087787509 0.583079815 0.103096806
v -0.096590526 0.686812341 0.093877748
v 0.079091065 0.769195914 0.092488334
v -0.102145180 0.587051332 0.079003587
v 0.107879758 0.792292237 -0.137339801
v -0.122536816 0.680236042 0.082538530
v -0.176073909 0.687070489 0.057270981
v 0.128484383 0.806278825 -0.147780269
v -0.200292304 0.685725331 0.030892566
v 0.102012470 0.679720879 -0.117862605
v 0.122859895 0.672508597 -0.130817592
v -0.207470372 0.789661765 0.025916073
v -0.201230124 0.814255536 0.024054950
v -0.216715738 0.686162174 -0.044923920
v -0.193476766 0.680706620 -0.065193057
v -0.178273886 0.697373807 -0.080992803
v -0.012170463 0.578563333 0.035912767
v 0.013747794 0.575970769 0.040961720
v -0.169034868 0.681926012 -0.104365364
v 0.037841808 0.572749555 0.045831595
v -0.128948718 0.694377065 -0.136361569
v 0.059424829 0.566771865 0.050875254
v -0.030748855 0.743108690 -0.136323214
v 0.079087436 0.558266819 0.055766769
v -0.108848967 0.906026363 -0.156792685
v 0.098409638 0.552197576 0.063082382
v -0.118981384 0.904798150 -0.136135548
v 0.105366841 0.570214868 0.068752483
v -0.130354434 0.886614978 -0.135804400
v 0.117164113 0.555146098 0.065623000
v -0.152187735 0.920872509 -0.137803823
v 0.131495163 0.543295741 0.060718141
v -0.185861021 0.866563320 -0.095685877
v 0.147679076 0.536162317 0.066903278
v 0.059550561 0.718260407 0.088180088
v -0.158081010 0.900582135 0.066650167
v -0.135920286 0.799958944 -0.148280084
v -0.171421394 0.615788341 0.072501794
v 0.159438461 0.548579216 0.060326658
v -0.152303606 0.811903656 -0.129978701
v -0.021751802 0.799657941 0.081954256
v 0.164100975 0.529231906 0.064080447
v -0.047172699 0.803452611 0.092727706
v 0.154698536 0.536024451 0.049311634
v -0.028317988 0.826608002 0.092383981
v 0.173672080 0.530366600 0.045195654
v -0.020837484 0.898641288 0.092106275
v 0.185155049 0.527715802 0.029549468
v -0.072730944 0.915875733 -0.170671374
v 0.184262946 0.530494273 0.010465061
v 0.028785393 0.746334314 -0.128049418
v -0.099635586 0.882681847 -0.162928596
v -0.126696482 0.636833787 0.100294098
v 0.049252059 0.693556368 0.084513679
v 0.069045529 0.768539846 -0.132403284
v -0.124486670 0.865019441 -0.137035817
v -0.149314806 0.616491914 0.069486395
v 0.132842988 0.760716319 -0.119957998
v -0.141466945 0.851383209 -0.146863759
v 0.137466162 0.822534740 -0.132272437
v 0.154988170 0.801194370 -0.130333751
v 0.153927460 0.772691607 -0.126519665
v -0.168665320 0.637342930 0.059987653
v -0.150534272 0.838535011 -0.125903457
v 0.208641380 0.527448833 -0.016773339
v 0.191903397 0.529770970 -0.023894010
v -0.203989983 0.628580570 0.029187042
v 0.149993852 0.822869658 -0.113897182
v -0.164174080 0.852169812 -0.105418012
v -0.186222583 0.847520709 -0.072265394
v -0.197404683 0.863964915 -0.057466459
v -0.066964462 0.857376456 -0.155044839
v 0.169403374 0.661842525 -0.109903850
v -0.172427088 0.838759899 0.049308967
v -0.193269402 0.837685883 0.025695452
v -0.136449918 0.829868317 0.088954113
v -0.148342386 0.849604964 0.076530524
v 0.195974320 0.527072906 -0.042066906
v -0.028088674 0.841534436 -0.151516914
v 0.192536056 0.524176180 -0.060493112
v -0.051802237 0.835976720 -0.152122945
v 0.176146165 0.526438713 -0.073765054
v -0.036834765 0.675444484 -0.129938737
v 0.195041433 0.528376818 -0.077800222
v -0.111482166 0.895671248 0.063131869
v 0.182162136 0.525074661 -0.091428235
v -0.098620847 0.901151001 0.087582245
v 0.164450958 0.522642195 -0.099674180
v -0.030051958 0.821396232 -0.163412005
v 0.156453222 0.519603491 -0.118043780
v 0.163552910 0.808358192 -0.101134323
v -0.030657679 0.798379481 -0.154553652
v 0.151982248 0.532876372 -0.106086813
v -0.055609066 0.813324273 -0.161267772
v -0.184806898 0.808889389 -0.101439811
v 0.135052755 0.524103999 -0.104734182
v -0.150766477 0.922434926 0.052283935
v 0.136513278 0.529924333 -0.122746065
v -0.040816944 0.709686220 -0.140461385
v 0.121375740 0.535746038 -0.111833736
v 0.152454719 0.749537826 -0.116636500
v 0.101847328 0.531664252 -0.111441895
v -0.117614865 0.750875831 -0.127251953
v 0.083824418 0.534420431 -0.100823179
v -0.086924210 0.652699411 -0.125894517
v 0.063080825 0.534489274 -0.094055980
v 0.064414002 0.861084342 0.085912630
v -0.190976471 0.768338621 -0.091558442
v -0.215761185 0.581776559 -0.024602834
v 0.169893771 0.783753455 -0.111796342
v -0.216978073 0.787942469 -0.039384820
v -0.220354393 0.743018866 -0.029783761
v 0.158246845 0.651926219 -0.083602071
v -0.209780484 0.728055358 -0.050145052
v -0.012110760 0.575069189 -0.096740097
v 0.020105708 0.558089375 -0.095511302
v -0.012607003 0.554414093 -0.091015726
v -0.011492167 0.596863151 -0.099239230
v 0.177419960 0.832270741 -0.114721335
v -0.191980496 0.735106587 -0.065692574
v -0.010703001 0.618375421 -0.103673831
v -0.010529861 0.640015125 -0.107695021
v -0.212723657 0.723037541 -0.008230766
v -0.010184369 0.661530375 -0.112117149
v 0.175790817 0.790929496 -0.091882601
v -0.169679761 0.733850121 -0.099443421
v -0.133730382 0.546769738 -0.100725695
v -0.210135192 0.733285308 0.024149533
v 0.182301819 0.671182871 -0.083187476
v -0.202280402 0.709842682 0.034810472
v -0.102923475 0.732739270 -0.139288828
v -0.088954397 0.718584359 -0.124611914
v 0.191994607 0.809255779 -0.098349914
v -0.055677384 0.791443706 -0.146051437
v -0.006109746 0.811897755 -0.144802377
v -0.003916313 0.824806988 -0.160882205
v -0.113483153 0.877757430 0.088358782
v -0.003685698 0.843988121 -0.156917050
v -0.131358802 0.864839554 0.071808718
v 0.195808634 0.779049516 -0.089421913
v -0.121230081 0.850883186 0.089879081
v -0.003726416 0.863376021 -0.158822507
v -0.134661168 0.886290431 0.062490731
v -0.171029717 0.718703985 0.079088867
v -0.008547680 0.880688369 -0.167230874
v -0.123819783 0.914262474 0.050210126
v 0.187175766 0.834880471 -0.079768158
v 0.171025097 0.554333806 0.039080970
v -0.006971731 0.899509728 -0.160145968
v -0.135363191 0.912188709 0.069701105
v -0.005653556 0.916433513 -0.171281904
v -0.172183961 0.859320462 0.068566963
v 0.196169659 0.769234657 -0.064731143
v -0.158939749 0.879200816 0.053131409
v -0.216549754 0.778791130 0.003134467
v -0.003195045 0.916602015 -0.151505634
v -0.147336096 0.918873310 0.027823040
v -0.159291491 0.899582267 0.036327027
v -0.172927678 0.921586037 0.017795637
v -0.147276849 0.711389184 0.085798651
v 0.033731773 0.948335946 0.073359206
v 0.019820429 0.952139735 0.087098621
v 0.201775551 0.854931176 -0.056954127
v 0.003207204 0.909603775 0.087533280
v -0.174617559 0.917811871 -0.009209385
v 0.206075355 0.822233379 -0.055319656
v -0.186896816 0.928838909 -0.042997710
v -0.169428945 0.923703969 -0.056241494
v -0.099646151 0.624814868 -0.117295943
v 0.053526796 0.950637698 0.075700581
v 0.207374841 0.839419365 -0.033074718
v 0.212442279 0.787736773 -0.046903204
v -0.178215921 0.927531898 -0.077650830
v -0.158136696 0.931707501 -0.117016889
v -0.127117306 0.926257432 -0.143397257
v -0.152907595 0.864690661 -0.126678452
v -0.118326068 0.625819802 -0.105848230
v 0.081038244 0.942874074 0.075986415
v 0.066129990 0.941794753 0.063072182
v -0.104240097 0.861532211 -0.150113016
v 0.001228311 0.852222323 0.088730015
v -0.115776621 0.883965611 -0.149127290
v 0.210861400 0.811013877 -0.028708074
v -0.137439743 0.608587027 -0.120167516
v 0.085525855 0.929905117 0.061982870
v -0.039761294 0.681370139 0.086570829
v -0.047569264 0.561452627 0.071029909
v 0.202647239 0.850843906 -0.011642417
v -0.207248971 0.840046108 -0.047111638
v -0.063676804 0.621782184 0.079175398
v 0.104535326 0.935014606 0.055550553
v 0.206138089 0.676070333 -0.012549030
v -0.079250731 0.559869707 0.084911563
v 0.218101233 0.674938381 -0.031534057
v 0.207828119 0.827695191 -0.007358721
v 0.213194817 0.783943295 -0.016446609
v -0.077544495 0.634347558 0.099192128
v -0.110575937 0.567181528 0.096325181
v -0.129823476 0.579495788 0.073521793
v -0.112517513 0.624404848 0.081134900
v 0.208409309 0.813819587 0.020348195
v -0.119828783 0.602341473 0.081088603
v 0.213303402 0.804793179 -0.004078465
v -0.060827076 0.830532849 0.097875543
v 0.115010500 0.854732037 0.103143796
v -0.128447294 0.612276316 0.101787761
v 0.084564127 0.789830446 -0.135839999
v -0.133680969 0.555816412 0.092225865
v -0.193059087 0.637967408 -0.059573818
v -0.132566899 0.625170350 0.080301806
v -0.154512092 0.576824546 0.082041450
v 0.074668296 0.809494495 -0.146611840
v 0.177296594 0.877635121 0.040475842
v -0.141015410 0.600126386 0.083310492
v -0.189485699 0.618984580 -0.044185903
v -0.158180460 0.550663114 0.074311219
v 0.215429544 0.786130130 0.011042820
v 0.211735487 0.765850902 0.024239313
v -0.153899461 0.876064956 0.077547178
v -0.157045379 0.597109139 0.063068479
v -0.172258526 0.563737512 0.046380650
v 0.189470068 0.832487941 0.030613786
v 0.193093136 0.807809353 0.044675745
v -0.189817980 0.621129215 0.055527400
v -0.185614109 0.597521961 0.064490840
v 0.190689772 0.782660484 0.058519132
v -0.191664457 0.554127276 0.036191572
v 0.149258524 0.878053308 0.051128816
v -0.184685424 0.602481961 0.037068170
v 0.212356478 0.668082714 0.010970256
v -0.044972721 0.936451435 0.067855850
v -0.203698128 0.601089537 0.017513236
v -0.021586152 0.925874829 0.098033771
v 0.181102425 0.827182651 0.056104742
v -0.164534986 0.860077024 0.044020675
v 0.197883353 0.660150588 0.032383252
v -0.167064190 0.876803041 0.026871528
v -0.196302325 0.595653653 -0.008873743
v 0.181390077 0.759393871 0.063726567
v -0.185209677 0.859999359 0.031253539
v 0.021059066 0.858906150 -0.176167816
v 0.021846320 0.880768597 -0.160808235
v 0.160703391 0.820868134 0.068188347
v -0.029668892 0.929786086 -0.161187500
v 0.172962710 0.801827908 0.062586747
v -0.197570518 0.621257961 -0.001165790
v -0.027426079 0.908419609 -0.176403731
v 0.031720676 0.715605497 0.086935684
v -0.034140766 0.592358291 -0.102131486
v -0.044624645 0.907717228 -0.157264993
v 0.162358195 0.837328315 0.086562283
v -0.055459388 0.929745972 -0.159627169
v -0.191556096 0.880143642 0.015570241
v 0.165143341 0.778325200 0.076416783
v -0.203649640 0.856839836 0.011253962
v 0.160076097 0.758799136 0.097247750
v -0.199559122 0.866478622 -0.033333290
v -0.206082076 0.848135591 -0.015691521
v 0.164816707 0.808451831 0.088255174
v -0.201766491 0.874266982 -0.008297084
v 0.136648089 0.770293653 0.092871293
v -0.213475078 0.555068612 -0.036537968
v -0.217299029 0.606696665 -0.014648609
v 0.118046358 0.659617960 0.101657845
v 0.138546497 0.656745553 0.087072633
v 0.117819928 0.730294168 -0.142891437
v 0.096274234 0.912750423 0.085404493
v -0.038442757 0.620091200 0.078093134
v 0.123955108 0.938287139 0.052443583
v -0.190205023 0.885055244 -0.049344212
v 0.146439046 0.680702984 0.081732653
v 0.137736529 0.824267268 0.101875879
v -0.207835406 0.620000720 -0.029565286
v -0.180043966 0.877276719 -0.071930103
v 0.141157061 0.938866258 0.050039452
v -0.166033909 0.880261540 -0.110148929
v 0.151630819 0.789212346 0.101119138
v -0.078648105 0.782694161 -0.143327385
v 0.113372684 0.681795955 0.082904518
v -0.187116668 0.550680399 -0.049072955
v 0.114691496 0.773335576 0.083539143
v -0.201091811 0.598737240 -0.035196286
v -0.190101489 0.613814294 -0.070013218
v -0.173677698 0.548211813 -0.070428208
v 0.091770016 0.676660776 0.095452264
v 0.124433719 0.796299398 0.096803218
v -0.076652750 0.741126418 -0.129982799
v 0.102015771 0.792086542 0.088310577
v -0.178510681 0.570532501 -0.059883308
v -0.170344427 0.632638693 -0.074810818
v 0.075859904 0.696425259 0.089590296
v -0.094791993 0.759709358 -0.146896020
v -0.188323423 0.557106435 -0.087937720
v 0.020263987 0.815019488 -0.148547068
v 0.103986897 0.821597099 0.091898337
v 0.084520109 0.844681144 0.098685518
v -0.167732358 0.603921950 -0.075601630
v 0.130499557 0.935560584 0.036501475
v 0.022755319 0.653385818 -0.111270510
v 0.025873866 0.630709171 -0.106541023
v -0.164108306 0.543316722 -0.087293088
v 0.148308262 0.942445934 0.034587521
v -0.138222903 0.754142702 -0.144564360
v 0.143660873 0.936456800 0.017819803
v -0.150390744 0.609941959 -0.088248201
v 0.047837712 0.892514050 -0.158287227
v -0.170686871 0.593500733 -0.096551493
v 0.157545418 0.942604899 0.005512650
v 0.040194497 0.692624927 -0.119872257
v 0.042164315 0.719222844 -0.128052905
v -0.150992960 0.736850977 -0.126763001
v 0.173178002 0.948547482 -0.005141979
v -0.143120259 0.760671318 -0.122416832
v -0.104620576 0.923484802 -0.137869149
v -0.047139414 0.906133771 0.104392543
v 0.166254953 0.942528367 -0.022503417
v -0.164854139 0.540232539 -0.112417981
v -0.149013638 0.749110401 -0.102407597
v -0.152286619 0.583319366 -0.090451553
v -0.149560243 0.891771317 -0.128428936
v 0.178666756 0.948192716 -0.034677587
v -0.173719853 0.757939935 -0.103039525
v 0.044465147 0.609304249 -0.109080270
v -0.144336417 0.541040301 -0.123227730
v -0.191244081 0.745029151 -0.088969767
v 0.166567117 0.942482829 -0.049145482
v -0.144776046 0.876240849 -0.147050336
v 0.167391345 0.947672486 -0.068300553
v -0.193601921 0.764958143 -0.067258567
v -0.152668342 0.593377292 -0.108393848
v 0.189217329 0.706001222 0.059220739
v 0.157733947 0.946285069 -0.085686147
v -0.208177894 0.748237371 -0.054714322
v 0.056094080 0.744803429 -0.131619662
v -0.128508732 0.555837452 -0.120491922
v -0.037681453 0.564853251 -0.096695974
v 0.159969822 0.949042976 -0.105006650
v -0.215056688 0.767833352 -0.048135653
v 0.202529356 0.785970390 0.034357283
v -0.036116175 0.660207570 0.077026561
v 0.127554461 0.945237041 -0.122140206
v 0.201519772 0.756496727 0.046703413
v -0.081957631 0.764617085 0.092917025
v -0.123648964 0.596818924 -0.103633724
v -0.105998993 0.561561942 -0.127649695
v 0.071569480 0.614064336 -0.120361924
v -0.116099916 0.610991597 -0.126978233
v -0.085390881 0.581984758 -0.112113878
v -0.084734477 0.552840114 -0.113879241
v 0.092501953 0.653503716 -0.124566004
v 0.071565941 0.722120285 -0.129395828
v -0.201236963 0.724788845 0.055562448
v 0.063660175 0.791019082 0.090935536
v 0.052431453 0.764895320 0.088306837
v -0.202373341 0.751028001 0.052080214
v 0.044468801 0.739319623 0.081088811
v -0.034987010 0.769138217 -0.150363967
v 0.112694815 0.699988544 -0.139985606
v -0.178495675 0.764734924 0.062422466
v -0.078559123 0.630305171 -0.116841778
v -0.086883493 0.608169734 -0.110260174
v 0.120953918 0.638396740 -0.128838271
v -0.174648076 0.738674939 0.062814958
v -0.058639221 0.579976737 -0.113395952
v 0.121017858 0.930873990 -0.131736234
v 0.125059098 0.664251149 -0.105583072
v -0.068188444 0.608022988 -0.121407047
v -0.169807166 0.754505277 0.087373629
v -0.058100380 0.644838154 -0.131297395
v 0.115331784 0.949638069 -0.133262604
v -0.043986473 0.616164327 -0.113071159
v 0.128697246 0.605880916 -0.126811728
v -0.194288045 0.571242690 -0.015344833
v -0.199819893 0.553446531 0.010469925
v 0.143579558 0.656161427 -0.103856228
v -0.159000799 0.732479274 0.091695331
v -0.138943732 0.746195495 0.087048456
v 0.118455425 0.718540072 -0.117924713
v -0.090581447 0.833569527 0.103723206
v -0.063741520 0.943097472 0.068245217
v -0.130454227 0.723236620 0.106075488
v 0.143205434 0.706443489 -0.118438445
v -0.119441293 0.747638106 0.105339907
v -0.102857016 0.810039043 0.100742817
v 0.157245487 0.711397588 -0.094777100
v -0.108704761 0.731025338 0.085080273
v 0.117138766 0.865834415 -0.149310678
v -0.089129090 0.786449790 0.109802589
v -0.108133361 0.787397504 0.088760778
v 0.180509940 0.698124111 -0.089024745
v -0.107221283 0.769388258 0.106518283
v 0.169490308 0.629344046 -0.073127575
v 0.186499313 0.645480514 -0.073831931
v -0.102374777 0.753306866 0.089258544
v -0.086095184 0.738247633 0.101150572
v -0.122768976 0.766024411 0.086599477
v -0.033601426 0.751919866 0.088783786
v -0.134195298 0.788870275 0.087512828
v -0.121560380 0.808415413 0.079234555
v 0.188698500 0.692508817 -0.064848199
v 0.209914848 0.657212079 -0.045462839
v -0.073747829 0.807610512 0.104846857
v -0.149305433 0.769644380 0.083997957
v -0.062433947 0.662625372 0.092389688
v -0.149397522 0.810397267 0.082982026
v 0.189420551 0.665417671 -0.057531707
v -0.170460790 0.832945049 0.082937345
v 0.215314656 0.653561056 -0.022313509
v -0.178616077 0.789666533 0.062471680
v 0.220343947 0.702836692 -0.026077425
v -0.175657704 0.778640926 0.084722243
v -0.077061661 0.857277215 0.103466712
v -0.173125908 0.813947797 0.059664946
v 0.214234546 0.607054591 -0.018010845
v -0.070038185 0.900975704 0.082338050
v -0.008451643 0.770110846 -0.130272970
v -0.066603377 0.925778270 0.086199045
v -0.189284995 0.822452247 0.043306779
v -0.209149241 0.762642264 0.025779258
v -0.043332111 0.921000481 0.081826828
v -0.007136094 0.791938961 -0.136026114
v -0.102212943 0.941929162 0.060378082
v -0.215277165 0.750865340 -0.000549991
v 0.078498863 0.837684453 -0.152458027
v 0.124512956 0.912970901 -0.139151633
v -0.211459517 0.832095623 0.006338131
v -0.083720997 0.945156872 0.066653728
v 0.209032133 0.697862267 0.001310117
v 0.096609898 0.945668697 -0.138047621
v -0.197113961 0.892095208 -0.026706448
v 0.212100476 0.714591503 0.021084677
v -0.214275956 0.769488573 -0.021670006
v -0.211528212 0.796211302 -0.018833442
v -0.207656145 0.822210431 -0.019761212
v 0.091121152 0.926614106 -0.139892250
v 0.215528682 0.759872854 0.001106363
v 0.071840867 0.923577130 -0.144196421
v -0.094386362 0.852792084 0.079883844
v -0.026909098 0.886779785 -0.160497963
v 0.203837916 0.702943027 0.041592069
v 0.056056567 0.935833275 -0.140749365
v 0.066039905 0.934220195 -0.160873830
v 0.193725616 0.597237885 0.004528339
v -0.090293050 0.924554169 0.081357881
v -0.027994439 0.863494098 -0.160408169
v -0.201473311 0.790716350 -0.058076996
v -0.179369062 0.899410129 -0.092769921
v -0.107019737 0.829417884 0.079767875
v 0.038991328 0.925575852 -0.139063880
v -0.197112352 0.790587246 -0.083793342
v 0.018704217 0.927622199 -0.136582702
v -0.156066254 0.798472524 -0.107701682
v 0.189900234 0.604266465 0.044252578
v -0.176099390 0.783816099 -0.099789031
v 0.016979201 0.921066940 -0.150702089
v -0.002306527 0.929419041 -0.135986954
v 0.197387457 0.679763317 0.051192246
v 0.188328296 0.652508259 0.057112716
v 0.093353920 0.798735201 -0.159179091
v 0.024052341 0.918633938 0.095945120
v -0.161460102 0.824794769 -0.105169013
v -0.155688554 0.773178279 -0.108971216
v -0.161581591 0.925169945 -0.094228938
v 0.077151686 0.820293784 -0.167896420
v 0.171666726 0.679419398 0.061957248
v -0.154329941 0.782661438 -0.135316163
v -0.079704873 0.532128215 -0.096077092
v -0.115844607 0.796526313 -0.135278583
v -0.098958209 0.532092392 -0.106255412
v -0.113086857 0.529494286 -0.121767178
v -0.126356870 0.776391268 -0.138478413
v 0.164225012 0.665307879 0.086379871
v 0.163763419 0.645913243 0.067293391
v -0.119337782 0.534358859 -0.105168663
v 0.171917200 0.616634488 0.077191830
v -0.116909899 0.840722382 -0.140587315
v 0.047939733 0.909877479 0.083772086
v 0.032484513 0.893386543 0.091995843
v -0.131190330 0.526467919 -0.119849764
v 0.166327447 0.694227695 0.085431710
v -0.110796057 0.815134048 -0.152294189
v 0.144681007 0.703267932 0.085202560
v 0.159035176 0.637160122 0.092712268
v -0.133151263 0.520054162 -0.102260746
v 0.001513029 0.812841058 0.078213796
v 0.001956628 0.791905403 0.078749940
v -0.095039383 0.804015994 -0.128922030
v -0.144775182 0.514819920 -0.118258610
v -0.089312412 0.859357655 -0.170683473
v -0.104579270 0.776864171 -0.124861717
v -0.149926260 0.523845613 -0.102980092
v -0.166447207 0.515961528 -0.099982157
v -0.182112262 0.521550775 -0.092289262
v -0.058461912 0.777534664 0.099860959
v -0.029976442 0.777499199 0.087403841
v 0.104833171 0.660798430 0.082328804
v 0.110749841 0.637085319 0.086146891
v -0.195846677 0.528798461 -0.080952182
v -0.175956398 0.530290008 -0.078153238
v -0.038058035 0.704619288 0.094021760
v 0.088904016 0.651859045 0.093560308
v 0.064959809 0.669130683 0.089609101
v -0.188989744 0.530159593 -0.064382873
v -0.086089812 0.849609256 -0.147517294
v 0.100957766 0.700393677 0.098260716
v -0.195308685 0.526686192 -0.046372645
v -0.067100205 0.689829171 0.107669614
v 0.037400056 0.669709206 0.079759888
v -0.051359158 0.641273499 0.079850256
v -0.100772835 0.838152409 -0.160267681
v 0.029960250 0.616288424 0.087732062
v -0.087234013 0.663503766 0.108246639
v 0.093679592 0.746825993 0.094785340
v -0.053137034 0.602265716 0.077606663
v -0.080817409 0.605345249 0.087058403
v -0.067388587 0.873054683 -0.175209969
v -0.080139808 0.877850413 -0.157269597
v -0.093059830 0.712012053 0.102899887
v -0.062298547 0.891050160 -0.155907542
v 0.096822307 0.873734593 -0.167145222
v -0.212752819 0.526021421 -0.037521955
v 0.109466597 0.725232899 0.099690236
v -0.103465721 0.609943509 0.104675211
v -0.115799263 0.706019282 0.082388990
v 0.101327382 0.846783936 -0.162909284
v -0.104934968 0.641409218 0.101635799
v -0.100324295 0.663324893 0.082519650
v -0.082292244 0.877205372 0.080120727
v 0.094994739 0.624327779 -0.129162148
v -0.062440641 0.881076813 0.102999903
v 0.121147692 0.732208312 0.080692172
v -0.116720460 0.646669090 0.081082284
v 0.143747956 0.863878429 -0.143661246
v -0.197260484 0.527551532 -0.028203290
v -0.037582103 0.727508485 0.084374495
v 0.108734883 0.610989988 -0.107416153
v -0.185428143 0.530435383 0.008268179
v -0.146515161 0.669773161 0.099387668
v 0.103440605 0.637125790 -0.110523500
v -0.187334791 0.529257119 0.027210826
v -0.121916674 0.660807192 0.099494234
v 0.131978184 0.718273878 0.097907394
v 0.139283031 0.742908418 0.094267264
v 0.134391665 0.888502896 -0.148577675
v -0.172567546 0.537914813 0.037733410
v -0.132885098 0.695254922 0.103004493
v -0.159643874 0.547961593 0.049459863
v -0.138582826 0.650250196 0.082278624
v -0.173268735 0.533889115 0.055246662
v -0.154853761 0.535837054 0.060920767
v -0.148638517 0.689082742 0.084424593
v -0.165829048 0.652905345 0.082973868
v -0.138409346 0.540919244 0.066948213
v 0.160050705 0.724827290 0.094306938
v -0.167753384 0.675768971 0.078949913
v -0.144175038 0.562099099 0.072056353
v -0.132452652 0.555912435 0.060121886
v 0.138735548 0.590762258 -0.107095480
v -0.169793159 0.698017538 0.078511640
v 0.185919255 0.734165251 0.062122256
v 0.136267275 0.613615692 -0.101189271
v 0.154339999 0.922246337 -0.113037705
v -0.120139323 0.552163661 0.072661191
v -0.156719878 0.631764889 0.083246112
v -0.110958889 0.568984509 0.073102064
v 0.139021575 0.932648361 -0.141190246
v -0.102189168 0.551567972 0.071739905
v -0.086288355 0.560286343 0.062494773
v 0.203274697 0.727388442 0.043755196
v 0.157561451 0.884848893 -0.136043817
v -0.067800693 0.562180161 0.053575534
v -0.049250443 0.566010594 0.044982575
v -0.178288147 0.711887538 0.058779292
v -0.039594509 0.582757294 0.048613824
v -0.171945110 0.662221074 0.056298256
v 0.155821204 0.609624028 -0.110977575
v 0.167410105 0.860171914 -0.126382664
v 0.212859541 0.741199195 0.022073029
v -0.199817479 0.698021770 0.056246817
v -0.196191669 0.646039426 0.054768216
v -0.198523432 0.672105908 0.054993123
v -0.055271994 0.739837408 -0.149788097
v 0.173735365 0.603218436 -0.097280540
v 0.214474007 0.757785618 -0.024551012
v 0.144687220 0.899597824 -0.120658681
v 0.012425348 0.794591069 -0.135749117
v -0.062895387 0.764717340 -0.136602864
v 0.081211440 0.746084094 -0.124475919
v -0.064821400 0.718437612 0.096000776
v 0.212078571 0.729210138 -0.006773592
v -0.198650658 0.658670604 0.028982040
v -0.212733030 0.703306139 0.012068738
v -0.195055857 0.801265419 0.046670109
v 0.164051026 0.603268147 -0.074199244
v -0.201182559 0.648772359 0.001583103
v 0.137577489 0.918899179 0.073281713
v 0.218432635 0.732282579 -0.036769159
v -0.209166333 0.675581336 0.005711745
v -0.216790274 0.693502069 -0.015425493
v -0.221349210 0.712524951 -0.035043053
v 0.176575854 0.593073666 -0.054443073
v 0.205035299 0.712120295 -0.050722927
v -0.220523313 0.634117901 -0.013182059
v -0.215427518 0.806042969 0.004240056
v 0.156539172 0.877302289 -0.111230351
v -0.038152561 0.945732236 0.083054967
v 0.199141636 0.739413619 -0.058449656
v 0.192681551 0.747629464 -0.086270437
v -0.089248680 0.828345954 -0.137128606
v -0.075223148 0.832350731 -0.159855142
v 0.186024740 0.617519081 -0.064998887
v -0.223242164 0.663524985 -0.021775525
v 0.198767006 0.579272628 -0.059474818
v 0.191909999 0.718737125 -0.072837114
v -0.022740789 0.932604671 -0.137526408
v -0.041000880 0.923260510 -0.140629560
v 0.170581430 0.856517613 -0.097871341
v 0.025751885 0.758563638 0.083080150
v -0.060646910 0.918722808 -0.144669905
v -0.059919011 0.746113420 0.099155404
v 0.179286093 0.723277092 -0.091973677
v 0.162683815 0.740743101 -0.093419984
v -0.080693990 0.922174275 -0.143432945
v 0.177138180 0.884502113 -0.097426936
v -0.205017403 0.641552091 -0.035038732
v -0.078038342 0.941829324 -0.145615295
v -0.094946876 0.926479936 -0.158718213
v -0.213097811 0.811855793 -0.045273520
v -0.095429793 0.947104633 -0.137412459
v -0.113513067 0.946371377 -0.129038215
v 0.166678816 0.725740075 -0.117744103
v -0.197644323 0.707093000 -0.059330732
v -0.194106624 0.818008423 -0.070985660
v -0.187773317 0.836656868 -0.098028675
v -0.205234855 0.661428571 -0.051418025
v 0.183238208 0.868815422 -0.074856758
v 0.166461140 0.925753891 -0.081012577
v -0.181905180 0.595141530 -0.052794285
v 0.069715373 0.743551135 0.087557219
v 0.139706537 0.732398629 -0.123498656
v -0.083547249 0.806514919 -0.156679183
v -0.188477471 0.719790936 -0.086478554
v 0.182156399 0.921771407 -0.064843163
v -0.098609798 0.786892951 -0.145179406
v -0.188533604 0.587294698 -0.077892154
v 0.119175531 0.743774652 -0.125011116
v -0.178660959 0.657094121 -0.065908298
v -0.175695658 0.652178884 -0.099007919
v 0.191614002 0.920732379 -0.043351799
v -0.172809452 0.674202800 -0.081305966
v -0.168847948 0.708941162 -0.104436971
v 0.199255213 0.868996739 -0.030274034
v -0.173609763 0.621620297 -0.097184964
v -0.033654466 0.644343913 -0.115762472
v 0.098535083 0.724951267 -0.126680538
v -0.132237479 0.948945701 -0.130839750
v -0.128877133 0.932471097 -0.123710021
v -0.144088835 0.723231912 -0.103033461
v -0.143669322 0.695859313 -0.099931195
v -0.147051454 0.667758882 -0.093728341
v -0.149848297 0.638777316 -0.089313038
v -0.137422353 0.826289535 -0.146887615
v 0.086829580 0.793680251 0.106683016
v 0.207924172 0.607240796 -0.051442515
v -0.151546434 0.949260056 -0.098253749
v -0.161438361 0.950941086 -0.081039570
v 0.217070907 0.631283283 -0.037617132
v -0.014023671 0.539655983 -0.077065729
v -0.168827027 0.950370431 -0.062893257
v 0.202786371 0.873438239 -0.000411294
v -0.167414278 0.945341110 -0.043927439
v -0.173152387 0.933195889 -0.029149255
v -0.179506108 0.949814796 -0.023646334
v 0.212931186 0.757512927 -0.049197230
v 0.178980023 0.921579182 -0.026247824
v -0.166078538 0.944888890 -0.010343628
v -0.157829553 0.930487335 0.000060332
v -0.155793995 0.940593898 0.016807666
v 0.059556354 0.792585135 -0.140099332
v -0.138855502 0.935603023 0.024555251
v 0.186863631 0.921401620 -0.004631848
v -0.140320748 0.943462729 0.042026058
v -0.154158667 0.623387575 -0.111418389
v 0.185736984 0.861472428 0.020208601
v 0.017150398 0.701246381 -0.118092380
v -0.009974577 0.683220208 -0.115727663
v -0.009444799 0.704612136 -0.120314337
v 0.134997755 0.922457218 -0.122805856
v -0.154504865 0.652289629 -0.115558729
v -0.009422475 0.726392388 -0.122851111
v -0.151990995 0.708989024 -0.126262575
v 0.014080642 0.725534081 -0.122393325
v -0.009208404 0.748169124 -0.126359254
v -0.129938439 0.944397748 0.059198409
v 0.172542319 0.756664336 -0.112122491
v 0.167570084 0.916599572 0.009500231
v -0.134131104 0.637730241 -0.122200213
v -0.125844434 0.934173226 0.044506308
v -0.108134136 0.930474162 0.046983145
v 0.166353792 0.902982533 0.039617665
v 0.049803227 0.870695472 -0.171310589
v -0.152470559 0.680676460 -0.121562146
v -0.130394146 0.724873602 -0.143918887
v 0.150911540 0.919659019 0.025002977
v -0.130103320 0.665748656 -0.128719509
v 0.182182446 0.851387858 0.046168722
v -0.114180028 0.655512929 -0.108525649
v -0.004764207 0.731787026 0.077550337
v -0.109727547 0.919453144 0.068593264
v 0.127145424 0.920430481 0.051193099
v 0.135434225 0.898622513 0.053058971
v 0.148206070 0.921977818 0.047759317
v -0.112298906 0.640624523 -0.130703419
v -0.113496527 0.685232520 -0.112151489
v -0.106300794 0.669075787 -0.135314181
v 0.058794893 0.625899196 0.082324430
v -0.114330724 0.713898778 -0.119935751
v 0.054031026 0.913741887 -0.167258292
v -0.096760944 0.696162820 -0.135321051
v 0.025202340 0.903575122 -0.169689626
v -0.048293911 0.856248021 -0.168403164
v -0.045172118 0.885043979 -0.177614063
v 0.196813866 0.623644471 0.002053756
v 0.195751697 0.632214248 0.039112352
v -0.069697797 0.678853214 -0.144291624
v -0.074001446 0.714101553 -0.147486880
v -0.140967399 0.935878754 -0.108267501
v 0.161032215 0.859644711 0.048183553
v 0.163669765 0.863681495 0.073639184
v -0.192136317 0.548342586 -0.018434279
v 0.166089326 0.595201731 0.057678245
v 0.172528937 0.625260115 0.051076431
v -0.192682385 0.529209495 -0.009425906
v 0.146086186 0.887241185 0.081163988
v -0.061183047 0.552609563 -0.100152895
v -0.059659015 0.534423590 -0.087457463
v 0.012271581 0.593964815 0.077216551
v -0.037663240 0.534821749 -0.083815351
v -0.011337569 0.931126297 0.070090905
v 0.072349481 0.904481530 -0.158556953
v -0.018577646 0.946956754 0.079775587
v -0.041571304 0.584358990 0.071668610
v 0.154501051 0.608193278 0.098379254
v 0.038357943 0.930107951 0.079191886
v 0.106324807 0.560157657 0.093812719
v 0.094194606 0.577779472 0.083164297
v 0.122706771 0.580085695 0.074446812
v 0.054963708 0.841896176 -0.176888168
v 0.144554541 0.581423640 0.089927904
v 0.069367573 0.580731690 0.081887536
v 0.189551428 0.571159005 0.010397987
v 0.138582736 0.849340081 0.079166785
v 0.122082964 0.869595051 0.073965840
v 0.184244037 0.892783761 0.012505310
v 0.130845487 0.607109725 0.082857624
v 0.197609618 0.898111939 -0.020504249
v 0.194547236 0.890170276 -0.053280819
v 0.061343580 0.930388331 0.086591870
v 0.110197388 0.613999486 0.099867478
v 0.133226976 0.631672263 0.105210468
v 0.175196379 0.898341298 -0.075714961
v 0.173099473 0.913906753 -0.098793246
v 0.113049343 0.588648200 0.096328512
v 0.160279974 0.899327099 -0.106579505
v 0.172255486 0.566089571 -0.061425965
v 0.182786688 0.578919709 -0.087271050
v 0.084838912 0.625316978 0.093752652
v 0.161814407 0.577084839 -0.113501988
v 0.148355186 0.909493566 -0.141183972
v 0.090818532 0.600778520 0.084989525
v 0.131196141 0.686684370 0.100420222
v 0.171351954 0.585730076 0.083697870
v 0.177123919 0.579429269 0.037186623
v 0.203119129 0.584760487 0.029079389
v 0.206313163 0.685174942 -0.048186742
v 0.168418661 0.694333732 -0.113202631
v 0.062579393 0.603845298 0.087048769
v 0.144964725 0.680505812 -0.110342167
v 0.199048713 0.587241828 -0.031496160
v 0.209252760 0.578647017 -0.007576523
v 0.045132376 0.645146072 0.080159336
v 0.011931043 0.671300054 0.075163499
v 0.101217866 0.879098594 0.082293712
v 0.073666945 0.916696668 0.071236543
v 0.021360014 0.693553329 0.080836512
v 0.048979986 0.812939286 0.086452097
v 0.032103319 0.785879850 0.087435417
v 0.026750032 0.584184170 -0.103959307
v 0.070668794 0.907082200 0.095600672
v 0.049912732 0.637241781 -0.114553556
v 0.042844594 0.874355018 0.082680792
v 0.060703147 0.887422919 0.084806681
v 0.020450354 0.873968720 0.084671803
v 0.050558932 0.559669614 -0.104085885
v 0.071763024 0.644407570 -0.127680510
v 0.101889968 0.771238923 0.103455544
v 0.207812637 0.686442435 0.026738131
v 0.193570241 0.800441861 -0.070178099
v 0.082788542 0.558051229 -0.117784157
v 0.157180995 0.681774616 -0.090234205
v 0.130777106 0.786620975 -0.126088500
v 0.119399384 0.691516399 -0.111586452
v 0.114786968 0.557032585 -0.129783243
v 0.062477559 0.696316421 -0.130520090
v 0.044730175 0.769910455 -0.132209942
v 0.133144960 0.572538257 -0.126809925
v 0.131687716 0.553425014 -0.103400826
v 0.107470132 0.921603203 -0.154057354
v 0.080497518 0.892809868 0.079929069
v 0.083116844 0.875492930 0.105136417
v 0.149319008 0.546653986 -0.129893631
v 0.035845280 0.855423272 0.090842046
v 0.055825360 0.837351024 0.095852748
v 0.087359227 0.925305843 -0.169335410
v 0.166136757 0.548895955 -0.101648435
v 0.171012789 0.766669452 -0.089904889
v 0.025792414 0.836031556 -0.161744148
v 0.159295276 0.622520149 -0.087897912
v 0.189838499 0.551564574 -0.083351046
v 0.019455293 0.677182317 -0.114685155
v 0.173525795 0.542499304 -0.065805152
v 0.035505276 0.795375168 -0.138943031
v 0.197604701 0.549972296 -0.059161711
v 0.191472068 0.566643536 -0.041032754
v 0.085587017 0.721631885 0.091447853
v 0.108806908 0.892951190 -0.149311289
v 0.093805499 0.900049388 -0.168215379
v 0.018983072 0.770631611 -0.130316928
v 0.209227994 0.560840726 -0.026419545
v 0.126254499 0.635078609 -0.105134867
v 0.207522899 0.632628322 -0.016508747
v 0.207180947 0.612456918 0.023856016
v 0.173041373 0.632232308 -0.101754464
v 0.150666565 0.634559751 -0.102161631
v 0.194951937 0.555959046 0.035656180
v 0.160220951 0.841375351 0.059885353
v 0.205687165 0.844642937 0.012681879
v 0.194446430 0.636643052 -0.049578503
v 0.064305179 0.585072339 -0.114308015
v 0.174907833 0.562372565 0.062635198
v 0.116351783 0.750705123 0.097939543
v 0.200780824 0.650573850 -0.002868048
v 0.210193798 0.640378952 0.018590704
v 0.110087119 0.656875074 -0.116633058
v 0.161809236 0.555184126 0.086769603
v 0.130154356 0.838244796 -0.154909179
v -0.002236242 0.751731932 0.081142448
v -0.012235072 0.655650914 0.075155191
v 0.070400298 0.644323230 0.082885139
v 0.144621372 0.564394832 0.067591377
v 0.145419627 0.844910145 -0.125430837
v -0.005957708 0.713986754 0.087098971
v 0.001123854 0.771795988 0.082158372
v 0.126730770 0.556597412 0.081728220
v 0.029172843 0.833457828 0.083872057
v 0.001400815 0.833079636 0.081943370
v 0.118645594 0.896842837 0.068965524
v 0.080610603 0.557808340 0.080831632
v 0.112069145 0.921786487 0.068740427
v 0.193545446 0.554325163 -0.009974342
v 0.126655743 0.754508674 0.080012545
v 0.037108760 0.928752244 -0.163649365
v 0.051514428 0.560516477 0.073003575
v 0.073071033 0.883029163 -0.156060010
v 0.017617358 0.566084981 0.069337264
v 0.040960871 0.586723506 0.079679489
v 0.049498741 0.818899512 -0.154110640
v 0.023306882 0.810363472 0.079719320
v 0.015972652 0.643114686 0.079947613
v -0.013790771 0.635943770 0.078684002
v -0.008202776 0.694910169 0.080685668
v 0.191445619 0.547372460 -0.032502107
v -0.010260321 0.675703108 0.074975252
v 0.096630737 0.589392900 -0.132276624
v 0.102970041 0.750470757 -0.135330081
v 0.122924566 0.764666200 -0.145071179
v 0.163114890 0.744591713 0.073754311
v 0.118633114 0.706422210 0.081703648
v 0.166122243 0.714824796 0.068263121
v 0.116468571 0.580937326 -0.104766026
v 0.194646388 0.547164798 0.012228373
f 555 540 123
f 389 162 497
f 567 540 568
f 583 104 251
f 463 489 430
f 453 94 255
f 483 484 162
f 446 640 671
f 574 577 251
f 50 244 238
f 52 244 50
f 575 57 53
f 55 249 52
f 55 2 250
f 577 248 563
f 575 437 432
f 57 597 589
f 2 265 262
f 589 592 57
f 262 259 2
f 5 267 262
f 602 606 589
f 5 9 11
f 58 606 610
f 11 272 5
f 12 278 11
f 565 793 8
f 630 60 632
f 13 425 12
f 424 289 160
f 289 424 13
f 643 649 60
f 181 403 179
f 483 206 484
f 163 651 174
f 53 563 558
f 651 65 650
f 163 389 384
f 683 66 65
f 455 558 563
f 165 384 171
f 340 331 34
f 67 66 683
f 206 470 63
f 385 102 856
f 67 702 70
f 344 340 696
f 179 403 406
f 710 70 702
f 16 352 14
f 111 112 59
f 63 64 655
f 18 368 16
f 710 742 753
f 119 112 111
f 394 671 545
f 551 922 903
f 19 375 18
f 753 740 711
f 406 470 179
f 261 615 108
f 545 453 439
f 178 386 530
f 24 386 23
f 72 753 742
f 26 396 24
f 768 765 72
f 119 142 112
f 32 63 470
f 112 142 161
f 399 400 396
f 154 343 182
f 545 671 448
f 399 415 400
f 768 770 765
f 32 406 410
f 418 415 399
f 770 183 777
f 387 300 166
f 415 418 422
f 105 86 299
f 169 42 839
f 170 142 119
f 173 172 705
f 329 638 343
f 134 738 737
f 185 638 329
f 692 661 145
f 150 74 741
f 637 345 873
f 132 145 661
f 170 184 142
f 138 495 760
f 138 136 188
f 136 194 188
f 201 87 194
f 270 87 205
f 216 49 210
f 46 216 724
f 198 184 170
f 43 96 907
f 219 39 218
f 45 43 41
f 224 37 219
f 498 224 514
f 86 105 342
f 225 36 514
f 378 107 110
f 80 233 107
f 22 41 43
f 198 217 849
f 41 581 45
f 103 233 76
f 76 40 103
f 222 217 214
f 678 100 40
f 98 41 22
f 366 41 98
f 40 76 678
f 215 4 284
f 215 98 21
f 537 536 92
f 222 234 217
f 904 537 92
f 460 462 30
f 284 471 366
f 222 239 246
f 586 903 759
f 462 28 30
f 246 234 222
f 454 449 28
f 237 391 924
f 560 319 921
f 246 888 252
f 431 471 282
f 455 560 391
f 319 560 241
f 50 238 793
f 50 566 52
f 52 574 55
f 258 263 510
f 244 52 249
f 55 253 2
f 284 792 657
f 303 670 667
f 303 100 674
f 250 249 55
f 273 274 252
f 251 253 574
f 100 303 301
f 301 570 100
f 104 261 257
f 677 100 678
f 273 285 274
f 257 2 253
f 2 257 265
f 250 2 259
f 570 568 40
f 752 292 293
f 294 296 285
f 285 296 274
f 684 497 679
f 277 274 296
f 440 447 442
f 579 489 463
f 692 329 695
f 259 262 267
f 871 736 360
f 262 271 9
f 40 100 570
f 570 567 568
f 203 128 270
f 310 296 294
f 305 296 310
f 87 270 194
f 9 5 262
f 5 272 600
f 276 9 271
f 9 276 11
f 272 11 278
f 302 323 310
f 568 103 40
f 108 615 89
f 280 11 276
f 11 280 12
f 103 568 540
f 278 12 425
f 323 337 328
f 283 12 280
f 12 283 13
f 283 297 289
f 289 13 283
f 540 561 231
f 425 13 424
f 209 288 205
f 291 125 286
f 346 337 323
f 49 304 288
f 173 350 351
f 297 654 314
f 347 158 864
f 304 47 311
f 47 304 49
f 47 46 481
f 360 361 855
f 501 684 146
f 481 311 47
f 46 39 481
f 343 695 329
f 314 289 297
f 289 314 160
f 481 321 308
f 481 39 321
f 325 122 321
f 325 321 37
f 37 321 39
f 333 160 314
f 324 266 333
f 527 107 231
f 84 121 325
f 36 327 498
f 160 333 34
f 327 120 84
f 36 82 371
f 277 393 390
f 689 34 333
f 34 689 340
f 313 34 331
f 266 334 689
f 334 260 341
f 340 335 331
f 107 527 110
f 54 404 405
f 696 14 344
f 61 401 44
f 38 299 407
f 358 14 348
f 14 358 16
f 344 14 352
f 356 704 712
f 352 16 368
f 413 62 417
f 370 16 358
f 16 370 18
f 175 705 134
f 713 115 110
f 371 27 378
f 27 371 82
f 381 18 370
f 18 381 19
f 368 18 375
f 80 378 27
f 19 381 235
f 19 395 23
f 19 23 178
f 202 506 913
f 23 395 24
f 386 24 396
f 398 24 395
f 24 398 26
f 26 398 220
f 26 412 399
f 396 26 399
f 418 399 412
f 164 180 444
f 444 443 164
f 175 173 705
f 685 84 120
f 422 300 415
f 685 121 84
f 172 169 300
f 172 300 422
f 78 80 27
f 226 365 78
f 89 615 114
f 240 485 309
f 134 737 175
f 226 27 82
f 245 459 452
f 187 186 140
f 243 459 245
f 189 187 130
f 581 466 579
f 467 472 637
f 308 122 240
f 138 579 466
f 430 255 463
f 499 435 430
f 453 430 435
f 435 440 439
f 435 499 450
f 243 479 281
f 308 321 122
f 897 438 584
f 439 453 435
f 243 281 893
f 450 440 435
f 480 859 865
f 440 449 447
f 442 439 440
f 450 449 440
f 447 449 454
f 492 488 493
f 127 458 456
f 449 456 28
f 82 225 708
f 454 28 462
f 28 456 30
f 456 450 127
f 30 456 458
f 225 82 36
f 30 464 460
f 506 507 502
f 126 469 125
f 287 508 509
f 207 507 506
f 410 460 32
f 126 306 477
f 460 464 644
f 644 32 460
f 32 644 63
f 475 31 576
f 470 406 32
f 64 63 644
f 306 309 477
f 125 464 458
f 528 795 511
f 516 523 524
f 655 206 63
f 206 655 484
f 206 474 470
f 162 679 497
f 316 322 822
f 313 160 34
f 37 498 325
f 523 316 534
f 497 684 501
f 501 146 505
f 146 512 503
f 505 503 513
f 263 515 510
f 512 120 115
f 503 512 91
f 517 513 503
f 115 713 91
f 458 203 125
f 315 547 548
f 91 512 115
f 547 330 336
f 91 713 88
f 517 88 522
f 552 548 547
f 532 88 713
f 88 532 519
f 552 336 553
f 522 519 541
f 527 231 561
f 127 128 458
f 538 660 692
f 514 36 498
f 224 498 37
f 538 692 695
f 114 626 631
f 553 342 105
f 219 37 39
f 555 660 561
f 127 450 499
f 891 199 824
f 660 555 661
f 218 39 46
f 199 97 886
f 366 98 284
f 22 21 98
f 41 366 581
f 43 232 22
f 907 232 43
f 96 536 907
f 45 463 255
f 45 581 463
f 255 94 96
f 255 96 45
f 94 453 545
f 448 546 545
f 582 593 594
f 595 584 438
f 216 46 47
f 216 47 49
f 551 640 558
f 558 640 569
f 49 288 209
f 793 565 50
f 569 53 558
f 566 50 565
f 209 210 49
f 841 351 350
f 574 52 566
f 578 53 57
f 612 609 423
f 53 578 563
f 575 53 569
f 597 432 211
f 253 55 574
f 57 575 597
f 578 57 592
f 592 583 578
f 627 609 612
f 584 621 628
f 603 589 606
f 602 589 597
f 634 819 627
f 610 606 602
f 835 318 229
f 626 606 58
f 610 624 58
f 58 624 630
f 632 58 630
f 634 884 869
f 58 632 626
f 60 642 632
f 642 60 649
f 60 630 181
f 650 649 643
f 662 652 645
f 656 628 621
f 621 636 656
f 658 659 204
f 64 644 469
f 466 495 138
f 694 377 700
f 468 471 431
f 663 650 65
f 628 656 668
f 679 162 484
f 65 686 663
f 672 673 659
f 686 65 66
f 683 65 651
f 468 431 478
f 683 693 67
f 685 146 684
f 146 685 512
f 696 340 689
f 66 67 701
f 473 495 478
f 66 698 686
f 702 67 693
f 668 675 687
f 701 698 66
f 405 690 54
f 701 67 70
f 54 690 564
f 14 696 348
f 711 70 710
f 699 70 711
f 702 709 710
f 229 318 236
f 657 282 471
f 710 709 742
f 753 756 740
f 756 753 72
f 742 754 72
f 72 754 768
f 72 765 756
f 766 765 770
f 490 193 496
f 130 772 496
f 770 776 766
f 15 719 168
f 87 201 148
f 183 770 768
f 201 194 136
f 422 705 172
f 633 777 338
f 777 633 150
f 408 74 633
f 638 185 408
f 106 730 258
f 688 379 694
f 275 631 118
f 185 692 145
f 197 750 749
f 736 737 738
f 263 258 730
f 738 741 743
f 185 145 143
f 743 741 744
f 744 741 74
f 744 467 879
f 132 140 145
f 123 132 661
f 741 738 150
f 123 540 567
f 773 772 567
f 738 134 150
f 78 27 226
f 238 623 1
f 264 279 779
f 776 150 134
f 134 705 420
f 695 541 538
f 104 599 261
f 365 681 680
f 761 762 763
f 365 678 76
f 76 78 365
f 411 156 420
f 156 411 220
f 541 519 538
f 220 764 156
f 76 233 78
f 80 78 233
f 168 789 387
f 70 699 701
f 398 395 228
f 434 437 445
f 779 780 887
f 428 432 434
f 926 317 706
f 197 749 745
f 213 6 4
f 279 785 780
f 419 427 428
f 148 201 745
f 454 462 419
f 526 782 783
f 381 734 235
f 410 414 419
f 493 769 913
f 511 4 215
f 4 511 213
f 406 414 410
f 208 731 729
f 21 511 215
f 210 728 727
f 794 800 823
f 511 21 529
f 470 474 179
f 724 218 46
f 227 110 115
f 118 280 275
f 219 218 722
f 806 800 794
f 803 804 256
f 716 778 225
f 224 219 720
f 407 86 690
f 356 734 381
f 389 497 380
f 809 795 528
f 810 806 811
f 717 716 514
f 497 501 380
f 317 697 429
f 810 818 821
f 913 771 202
f 341 698 699
f 373 376 159
f 369 177 373
f 341 260 698
f 260 334 266
f 365 226 681
f 517 522 354
f 828 821 818
f 354 362 364
f 569 640 446
f 519 522 88
f 767 828 818
f 266 324 676
f 602 597 211
f 804 834 256
f 121 240 122
f 345 868 918
f 610 602 211
f 169 839 166
f 427 195 211
f 643 179 174
f 683 651 165
f 693 683 171
f 627 884 634
f 324 654 676
f 846 397 841
f 841 397 374
f 362 709 369
f 580 397 846
f 192 188 190
f 192 499 489
f 128 192 190
f 270 205 203
f 205 288 286
f 291 306 126
f 208 148 733
f 288 304 291
f 304 311 306
f 311 481 308
f 286 125 203
f 283 118 297
f 589 599 592
f 283 280 118
f 227 115 120
f 747 805 732
f 707 226 82
f 107 378 80
f 275 114 631
f 118 646 297
f 89 114 275
f 231 233 103
f 87 209 205
f 816 872 870
f 271 108 89
f 248 560 455
f 248 241 560
f 108 271 265
f 566 565 241
f 86 876 690
f 622 244 619
f 517 91 88
f 574 566 248
f 715 662 889
f 244 249 618
f 249 250 614
f 882 465 718
f 253 251 257
f 774 465 882
f 250 259 608
f 883 494 774
f 921 391 560
f 259 267 604
f 54 564 847
f 251 577 583
f 600 267 5
f 89 276 271
f 503 91 517
f 690 405 407
f 275 276 89
f 892 573 582
f 272 278 596
f 248 577 574
f 280 276 275
f 425 588 591
f 425 424 781
f 781 313 572
f 424 313 781
f 572 585 781
f 314 654 324
f 136 197 201
f 313 557 572
f 237 551 558
f 554 331 335
f 334 341 348
f 760 136 138
f 335 344 549
f 341 699 704
f 348 696 334
f 921 319 7
f 358 348 704
f 344 352 544
f 912 582 594
f 903 586 551
f 352 368 543
f 381 370 356
f 368 375 539
f 788 8 3
f 535 375 178
f 221 795 809
f 828 767 562
f 559 833 920
f 921 920 899
f 546 448 898
f 903 922 836
f 38 903 299
f 235 228 395
f 405 669 407
f 546 92 94
f 400 518 520
f 92 546 904
f 639 35 926
f 386 396 525
f 927 926 33
f 928 605 930
f 200 490 298
f 94 545 546
f 96 92 536
f 927 56 852
f 143 472 408
f 220 412 26
f 400 520 521
f 412 220 411
f 109 113 152
f 920 832 559
f 418 412 411
f 152 113 746
f 387 789 786
f 420 418 411
f 746 161 867
f 418 420 422
f 490 773 298
f 496 772 773
f 394 442 445
f 562 767 832
f 739 636 820
f 204 725 658
f 773 490 496
f 725 223 635
f 447 454 428
f 472 186 637
f 215 284 98
f 189 130 496
f 458 464 30
f 410 462 460
f 125 469 464
f 635 247 487
f 487 269 629
f 641 487 629
f 268 269 487
f 269 393 629
f 390 269 268
f 469 126 64
f 349 761 763
f 655 64 477
f 303 674 670
f 290 393 277
f 611 290 928
f 163 474 483
f 928 307 605
f 635 641 648
f 531 605 533
f 677 674 100
f 477 309 485
f 506 202 207
f 679 485 240
f 240 121 684
f 312 912 594
f 684 679 240
f 121 685 684
f 186 187 345
f 503 505 146
f 912 332 892
f 772 130 132
f 685 120 512
f 501 505 159
f 725 648 658
f 505 513 373
f 513 517 364
f 892 847 564
f 110 527 713
f 714 847 339
f 522 541 154
f 51 714 346
f 231 103 540
f 714 51 404
f 541 695 343
f 567 772 123
f 502 500 506
f 578 577 563
f 867 659 673
f 577 578 583
f 597 575 432
f 592 104 583
f 913 492 493
f 845 167 839
f 599 104 592
f 386 178 23
f 599 603 615
f 110 227 378
f 615 261 599
f 706 402 639
f 603 626 114
f 132 123 772
f 624 610 195
f 409 706 317
f 746 673 682
f 114 615 603
f 120 327 227
f 624 414 403
f 691 429 697
f 642 631 632
f 642 118 631
f 429 433 853
f 646 118 642
f 642 649 646
f 152 682 691
f 682 433 691
f 181 643 60
f 654 297 646
f 122 325 121
f 140 130 187
f 421 416 617
f 123 661 555
f 309 308 240
f 698 260 686
f 702 693 177
f 698 701 699
f 672 441 436
f 291 126 125
f 109 691 697
f 143 140 186
f 874 872 816
f 665 441 672
f 188 192 489
f 665 658 653
f 712 704 699
f 653 451 665
f 927 697 317
f 712 740 734
f 648 461 653
f 178 375 19
f 923 880 116
f 641 461 648
f 740 756 748
f 748 758 228
f 926 706 639
f 479 641 482
f 754 742 362
f 354 754 362
f 407 669 38
f 203 458 128
f 482 629 620
f 756 765 758
f 182 754 154
f 128 127 192
f 254 246 252
f 611 382 620
f 764 398 228
f 499 192 127
f 764 766 156
f 766 776 156
f 930 611 928
f 420 156 776
f 140 132 130
f 788 7 8
f 387 166 168
f 420 776 134
f 136 760 197
f 300 387 415
f 750 197 760
f 745 201 197
f 148 208 209
f 733 148 745
f 258 35 106
f 593 533 605
f 731 208 733
f 236 318 910
f 729 210 208
f 728 210 729
f 727 216 210
f 188 489 579
f 929 573 556
f 724 216 727
f 573 929 582
f 723 218 724
f 722 218 723
f 720 219 722
f 717 224 720
f 514 224 717
f 188 579 138
f 876 556 573
f 707 681 226
f 898 904 546
f 472 143 186
f 212 795 221
f 899 391 921
f 854 925 931
f 213 795 212
f 140 143 145
f 404 54 714
f 833 922 924
f 415 387 786
f 143 408 185
f 238 3 793
f 1 3 238
f 31 799 752
f 622 238 244
f 918 799 515
f 380 376 171
f 915 752 357
f 617 476 421
f 619 244 618
f 618 249 616
f 616 249 614
f 636 739 613
f 388 613 10
f 614 250 608
f 357 791 915
f 383 688 388
f 608 259 607
f 571 438 576
f 295 667 666
f 92 96 94
f 607 259 604
f 372 726 700
f 667 295 303
f 367 726 372
f 604 267 601
f 298 295 207
f 923 875 880
f 363 732 367
f 408 467 74
f 148 209 87
f 298 301 295
f 359 747 363
f 601 267 600
f 359 355 755
f 600 272 598
f 598 272 596
f 353 755 355
f 301 298 773
f 596 278 591
f 747 755 751
f 591 278 425
f 588 425 781
f 388 688 813
f 769 771 913
f 763 353 349
f 202 771 200
f 506 500 913
f 74 467 744
f 773 570 301
f 82 708 707
f 320 647 326
f 500 492 913
f 331 554 557
f 242 910 320
f 344 335 340
f 910 908 647
f 554 335 550
f 239 222 703
f 549 550 335
f 549 344 544
f 166 167 168
f 544 352 543
f 543 368 542
f 17 15 167
f 17 845 157
f 907 536 919
f 157 850 155
f 155 850 153
f 542 368 539
f 150 633 74
f 153 854 151
f 151 854 149
f 149 858 147
f 147 862 144
f 539 375 535
f 759 903 38
f 530 535 178
f 144 862 141
f 141 866 139
f 139 866 137
f 530 386 525
f 137 870 135
f 525 396 521
f 135 870 872
f 133 872 131
f 131 874 129
f 129 923 117
f 923 874 875
f 170 119 902
f 521 396 400
f 20 932 101
f 99 101 932
f 99 886 97
f 95 97 199
f 95 891 93
f 93 896 90
f 518 400 786
f 90 896 85
f 85 901 83
f 83 905 81
f 169 166 300
f 81 905 79
f 77 79 796
f 77 909 75
f 439 394 545
f 75 914 73
f 73 914 71
f 71 916 69
f 442 394 439
f 468 466 366
f 442 447 434
f 7 562 920
f 794 534 811
f 924 899 833
f 434 447 428
f 428 454 419
f 419 462 410
f 38 898 759
f 902 111 897
f 466 468 495
f 526 524 534
f 25 59 56
f 96 43 45
f 895 401 61
f 182 343 338
f 483 389 163
f 483 162 389
f 897 59 25
f 883 894 775
f 776 777 150
f 59 897 111
f 380 384 389
f 774 882 893
f 111 902 119
f 778 708 225
f 501 159 380
f 167 166 839
f 159 505 373
f 176 191 867
f 373 513 369
f 364 369 513
f 850 890 925
f 354 364 517
f 354 522 154
f 177 369 709
f 154 541 343
f 446 445 437
f 376 380 159
f 204 223 725
f 217 198 214
f 214 703 222
f 437 569 446
f 610 211 195
f 414 624 195
f 403 630 624
f 889 718 715
f 160 313 424
f 181 630 403
f 888 246 239
f 179 643 181
f 174 650 643
f 651 650 174
f 163 384 165
f 487 247 268
f 165 651 163
f 171 683 165
f 174 474 163
f 557 313 331
f 475 515 799
f 376 693 171
f 285 273 757
f 177 693 376
f 627 885 884
f 174 179 474
f 509 508 516
f 294 302 310
f 709 702 177
f 709 362 742
f 154 754 354
f 182 338 183
f 780 785 803
f 183 768 182
f 423 413 881
f 183 338 777
f 638 338 343
f 633 638 408
f 590 401 895
f 692 185 329
f 190 188 194
f 515 475 25
f 270 190 194
f 190 270 128
f 195 427 414
f 7 788 562
f 915 878 571
f 877 595 438
f 203 205 286
f 44 48 61
f 474 206 483
f 210 209 208
f 61 62 895
f 413 895 62
f 211 432 427
f 172 42 169
f 398 764 220
f 515 263 918
f 437 575 569
f 228 758 764
f 124 885 426
f 175 871 350
f 84 498 327
f 225 514 716
f 327 371 227
f 918 263 730
f 898 448 759
f 371 327 36
f 839 374 890
f 227 371 378
f 451 441 665
f 228 235 748
f 444 180 457
f 233 231 107
f 187 868 345
f 759 448 586
f 189 292 868
f 734 748 235
f 653 461 826
f 924 922 237
f 292 193 196
f 446 671 394
f 461 641 479
f 922 551 237
f 391 237 455
f 482 641 629
f 918 868 799
f 196 200 293
f 771 293 200
f 558 455 237
f 281 287 894
f 894 893 281
f 248 566 241
f 257 251 104
f 255 430 453
f 257 261 265
f 509 775 287
f 260 266 676
f 509 516 524
f 265 261 108
f 523 516 531
f 322 316 523
f 273 252 888
f 265 271 262
f 811 534 316
f 316 315 811
f 676 686 260
f 366 466 581
f 478 495 468
f 330 547 315
f 547 336 552
f 366 471 468
f 760 495 473
f 657 471 284
f 336 342 553
f 553 900 552
f 832 900 553
f 865 878 791
f 792 284 4
f 31 571 576
f 286 288 291
f 438 571 877
f 906 864 863
f 4 790 792
f 8 7 319
f 303 295 301
f 291 304 306
f 570 773 567
f 739 617 392
f 617 416 392
f 306 311 309
f 309 311 308
f 170 628 668
f 613 739 10
f 739 392 10
f 656 675 668
f 656 815 675
f 680 678 365
f 813 613 388
f 324 333 314
f 687 198 668
f 379 688 383
f 295 666 207
f 815 656 636
f 377 694 379
f 325 498 84
f 689 333 266
f 334 696 689
f 700 377 372
f 861 834 860
f 703 721 239
f 732 726 367
f 834 861 256
f 348 341 704
f 747 732 363
f 356 358 704
f 735 888 721
f 370 358 356
f 735 264 757
f 735 273 888
f 755 747 359
f 369 364 362
f 353 763 755
f 647 761 326
f 761 349 326
f 376 373 177
f 779 757 264
f 780 779 279
f 384 380 171
f 235 395 19
f 736 871 737
f 562 788 917
f 910 647 320
f 785 804 803
f 414 406 403
f 256 323 803
f 813 675 815
f 415 786 400
f 427 419 414
f 422 420 705
f 432 428 427
f 430 489 499
f 587 580 590
f 437 434 432
f 445 442 434
f 446 394 445
f 671 586 448
f 819 609 627
f 456 449 450
f 455 563 248
f 865 791 769
f 581 579 463
f 645 652 817
f 644 464 469
f 652 662 715
f 874 923 129
f 715 664 652
f 694 812 688
f 477 64 126
f 750 760 473
f 485 655 477
f 465 715 718
f 507 207 666
f 465 774 494
f 865 486 480
f 812 675 813
f 485 484 655
f 207 202 298
f 883 504 825
f 493 865 769
f 783 782 504
f 679 484 485
f 202 200 298
f 196 490 200
f 196 193 490
f 877 859 476
f 302 803 323
f 189 496 193
f 814 806 810
f 168 719 789
f 821 814 810
f 391 899 924
f 713 527 532
f 467 408 472
f 302 294 887
f 786 787 518
f 538 519 532
f 561 532 527
f 926 35 33
f 538 532 660
f 540 555 561
f 551 586 640
f 319 241 565
f 660 532 561
f 113 161 746
f 161 176 867
f 8 319 565
f 223 247 635
f 781 585 784
f 620 629 393
f 887 780 302
f 269 390 393
f 671 640 586
f 781 784 588
f 599 589 603
f 393 290 611
f 626 603 606
f 928 290 305
f 623 238 622
f 625 1 623
f 774 893 894
f 312 332 912
f 626 632 631
f 332 339 847
f 847 892 332
f 757 887 285
f 847 714 54
f 793 3 8
f 732 807 726
f 858 931 857
f 675 812 687
f 168 167 15
f 273 735 757
f 920 921 7
f 402 385 639
f 167 845 17
f 638 633 338
f 646 649 663
f 650 663 649
f 845 850 157
f 888 239 721
f 663 654 646
f 706 409 48
f 850 854 153
f 676 654 663
f 429 409 317
f 661 692 660
f 854 858 149
f 676 663 686
f 858 862 147
f 433 429 691
f 678 680 677
f 699 711 712
f 712 734 356
f 711 710 753
f 862 866 141
f 712 711 740
f 682 436 827
f 734 740 748
f 866 870 137
f 214 687 808
f 748 756 758
f 664 816 652
f 872 133 135
f 198 687 214
f 754 182 768
f 872 874 131
f 665 659 658
f 758 765 766
f 658 648 653
f 766 764 758
f 776 770 777
f 668 198 170
f 117 923 116
f 787 786 789
f 929 330 822
f 533 822 322
f 556 336 330
f 531 322 523
f 899 920 833
f 662 444 889
f 346 323 256
f 491 482 620
f 116 880 911
f 911 20 116
f 382 491 620
f 911 932 20
f 932 886 99
f 645 443 662
f 930 382 611
f 382 930 516
f 886 824 199
f 605 531 930
f 491 508 848
f 628 170 902
f 256 347 346
f 482 848 479
f 891 896 93
f 347 256 861
f 820 617 739
f 866 819 817
f 605 594 593
f 896 901 85
f 929 593 582
f 612 881 885
f 901 905 83
f 826 451 653
f 451 457 180
f 672 659 665
f 441 180 851
f 79 905 796
f 436 673 672
f 436 851 827
f 909 914 75
f 682 673 436
f 914 916 71
f 584 902 897
f 876 86 342
f 69 916 1
f 829 433 827
f 700 808 694
f 788 3 916
f 853 829 417
f 409 61 48
f 402 48 855
f 870 817 816
f 855 29 360
f 874 816 664
f 385 361 102
f 830 880 875
f 576 897 25
f 819 634 817
f 68 69 1
f 106 856 730
f 743 736 738
f 910 242 236
f 862 857 819
f 744 879 102
f 880 830 831
f 840 528 843
f 401 846 44
f 803 302 780
f 769 791 357
f 878 915 791
f 831 911 880
f 918 873 345
f 576 25 475
f 799 31 475
f 841 29 846
f 879 856 102
f 106 639 385
f 573 564 876
f 911 831 802
f 342 556 876
f 337 339 332
f 25 510 515
f 350 29 841
f 564 573 892
f 892 582 912
f 510 25 56
f 864 906 837
f 312 328 337
f 929 822 593
f 33 35 258
f 871 360 29
f 840 860 835
f 864 158 863
f 29 855 44
f 916 914 917
f 808 687 812
f 594 307 312
f 307 305 328
f 916 917 788
f 33 56 927
f 840 835 809
f 307 594 605
f 736 743 361
f 531 516 930
f 290 277 305
f 852 109 927
f 318 835 860
f 21 844 529
f 852 59 112
f 620 393 611
f 102 743 744
f 112 113 852
f 751 763 762
f 647 785 762
f 805 747 751
f 252 268 254
f 230 835 229
f 487 641 635
f 637 879 467
f 124 851 164
f 809 230 221
f 161 142 176
f 807 732 805
f 247 234 254
f 230 809 835
f 808 700 807
f 345 637 186
f 176 184 191
f 812 694 808
f 204 849 223
f 849 204 191
f 813 688 812
f 635 648 725
f 849 184 198
f 815 613 813
f 815 636 613
f 217 223 849
f 659 191 204
f 217 234 223
f 191 184 849
f 859 480 421
f 795 213 511
f 245 461 243
f 878 865 859
f 802 886 932
f 191 659 867
f 452 718 889
f 223 234 247
f 176 142 184
f 246 254 234
f 865 493 486
f 293 771 357
f 268 247 254
f 771 769 357
f 805 264 735
f 268 252 390
f 161 113 112
f 486 493 488
f 390 252 274
f 867 673 746
f 264 751 279
f 274 277 390
f 746 682 152
f 281 848 287
f 827 433 682
f 808 703 214
f 152 691 109
f 109 852 113
f 476 859 421
f 296 305 277
f 476 595 877
f 305 307 928
f 196 293 292
f 595 476 820
f 726 807 700
f 752 293 357
f 307 328 312
f 310 328 305
f 56 59 852
f 292 752 799
f 328 310 323
f 886 825 824
f 312 337 332
f 807 703 808
f 891 824 782
f 193 292 189
f 844 21 22
f 429 853 409
f 109 697 927
f 56 33 510
f 105 559 553
f 339 337 346
f 346 714 339
f 51 346 347
f 317 926 927
f 564 690 876
f 863 844 232
f 799 868 292
f 510 33 258
f 843 528 529
f 844 863 842
f 861 840 843
f 861 158 347
f 861 860 840
f 752 915 31
f 158 843 842
f 843 158 861
f 842 529 844
f 919 837 906
f 906 232 907
f 809 528 840
f 730 873 918
f 730 856 873
f 873 856 879
f 856 106 385
f 817 634 645
f 837 919 838
f 817 652 816
f 919 906 907
f 919 536 537
f 743 102 361
f 904 669 838
f 898 669 904
f 669 898 38
f 703 807 721
f 405 404 838
f 669 405 838
f 922 833 836
f 294 285 887
f 361 385 402
f 869 645 634
f 830 875 664
f 916 3 1
f 864 51 347
f 402 855 361
f 909 801 914
f 397 890 374
f 48 44 855
f 796 909 77
f 879 637 873
f 901 798 905
f 580 925 397
f 48 402 706
f 896 800 901
f 891 823 896
f 409 62 61
f 853 62 409
f 881 413 417
f 417 62 853
f 86 407 299
f 459 893 882
f 199 891 95
f 830 465 831
f 829 426 417
f 426 829 124
f 426 881 417
f 124 829 827
f 433 829 853
f 886 802 825
f 774 894 883
f 851 124 827
f 164 884 124
f 441 851 436
f 180 164 851
f 443 869 164
f 911 802 932
f 715 830 664
f 874 664 875
f 736 361 360
f 451 180 441
f 457 452 889
f 889 444 457
f 866 817 870
f 106 35 639
f 459 718 452
f 826 452 457
f 452 826 245
f 451 826 457
f 862 819 866
f 858 857 862
f 461 245 826
f 459 882 718
f 479 243 461
f 854 931 858
f 850 925 854
f 846 401 580
f 845 890 850
f 491 848 482
f 848 281 479
f 825 494 883
f 382 508 491
f 900 832 767
f 508 287 848
f 896 823 800
f 839 890 845
f 504 782 824
f 42 374 839
f 516 508 382
f 908 910 318
f 534 524 523
f 552 818 548
f 42 172 173
f 901 800 798
f 818 552 900
f 533 322 531
f 871 175 737
f 868 187 189
f 22 232 844
f 593 822 533
f 822 315 316
f 929 556 330
f 330 315 822
f 838 919 537
f 904 838 537
f 318 860 834
f 908 318 834
f 465 830 715
f 556 342 336
f 105 836 559
f 833 559 836
f 29 44 846
f 908 834 804
f 562 917 828
f 299 836 105
f 818 900 767
f 832 553 559
f 562 832 920
f 811 315 548
f 828 801 821
f 801 828 917
f 821 797 814
f 836 299 903
f 401 590 580
f 797 821 801
f 905 798 796
f 796 814 797
f 810 548 818
f 814 798 806
f 798 814 796
f 909 796 797
f 811 548 810
f 413 587 590
f 404 51 837
f 51 864 837
f 837 838 404
f 909 797 801
f 529 842 843
f 158 842 863
f 232 906 863
f 800 806 798
f 529 528 511
f 794 811 806
f 785 908 804
f 785 647 908
f 859 877 878
f 526 534 794
f 877 571 878
f 571 31 915
f 173 351 42
f 524 783 509
f 350 173 175
f 29 350 871
f 823 526 794
f 783 524 526
f 526 823 782
f 42 351 374
f 841 374 351
f 504 775 783
f 509 783 775
f 782 823 891
f 885 124 884
f 887 757 779
f 914 801 917
f 426 885 881
f 890 397 925
f 825 504 824
f 775 504 883
f 925 587 931
f 587 925 580
f 802 494 825
f 785 279 762
f 494 831 465
f 831 494 802
f 894 287 775
f 590 895 413
f 438 897 576
f 884 164 869
f 762 279 751
f 423 931 587
f 587 413 423
f 931 423 857
f 762 761 647
f 617 820 476
f 595 820 621
f 751 755 763
f 893 459 243
f 751 264 805
f 609 857 423
f 423 881 612
f 662 443 444
f 721 805 735
f 621 584 595
f 857 609 819
f 443 645 869
f 612 885 627
f 636 621 820
f 628 902 584
f 805 721 807
