# avbd fit, rung k3-i16-s100 of Gate 6d (body space)
v -0.005165614 0.558311224 0.112289950
v -0.133198053 0.578414619 0.122774281
v -0.005738118 0.569587111 0.129508168
v 0.002590580 0.925996482 0.118509606
v -0.170476586 0.556618392 0.076272264
v 0.009417364 0.940140903 0.104457095
v -0.006043477 0.608971238 0.137669250
v -0.005762315 0.589103222 0.133938178
v -0.170175195 0.579218745 0.076925635
v 0.146864429 0.947849870 -0.116250113
v -0.191204280 0.573763430 0.059795916
v -0.197027534 0.576997221 0.032392275
v -0.202780083 0.578499794 0.009636251
v -0.179070503 0.574962258 -0.102967404
v 0.016074616 0.527950168 -0.156586424
v -0.171951860 0.568043947 -0.126014322
v 0.038476683 0.527844548 -0.159680158
v -0.161572665 0.568873763 -0.147598654
v -0.140699282 0.575820446 -0.160465166
v 0.201069862 0.526101053 -0.007923716
v 0.001371135 0.892281532 0.141515002
v 0.001680998 0.871681035 0.141999796
v -0.122896209 0.568566024 -0.145363942
v -0.120108627 0.578694820 -0.165318191
v 0.108009443 0.818521678 -0.172643200
v -0.098102853 0.588609099 -0.164221987
v -0.148113459 0.904136837 -0.157750696
v -0.160126239 0.792422712 0.101426244
v 0.052915782 0.658001661 -0.184880465
v -0.171199635 0.805113673 0.085464031
v 0.076944232 0.856852651 -0.181382000
v -0.195292637 0.776156783 0.048597001
v 0.099995129 0.769383490 -0.174927324
v -0.207804531 0.572969437 -0.048853297
v 0.084195599 0.758196473 -0.162584886
v -0.164179295 0.907521725 -0.118113481
v -0.187709332 0.903590202 -0.068240903
v 0.018714137 0.731971681 0.130563289
v -0.191382498 0.908973217 -0.042771172
v -0.085994847 0.903827548 -0.173047155
v -0.033897895 0.876443982 0.136710614
v 0.016938409 0.600941777 -0.177139074
v -0.020235786 0.851680398 0.136297017
v 0.081225477 0.666370988 -0.178444713
v -0.046487637 0.852698326 0.131575197
v -0.201354101 0.919293225 -0.020679265
v -0.195363611 0.898400903 -0.003793079
v 0.085636921 0.692793190 -0.165842310
v -0.180973858 0.902431786 0.018478252
v -0.056081790 0.573911309 0.134431750
v 0.074450746 0.816501021 0.135530263
v -0.085260034 0.575504661 0.141647249
v -0.092474751 0.681891263 0.126512796
v 0.074851915 0.767247915 0.126371875
v -0.098493382 0.576914191 0.115865886
v 0.114673756 0.789002240 -0.164662436
v -0.119166806 0.678180039 0.113148950
v -0.173968673 0.687103808 0.066684030
v 0.136044770 0.806227505 -0.168331534
v -0.199653938 0.685370326 0.029896885
v 0.100802496 0.673004746 -0.159697294
v 0.125134394 0.668795764 -0.168223426
v -0.204876736 0.789071798 0.025940388
v -0.198649853 0.813692570 0.024088744
v -0.216681600 0.686050177 -0.046182524
v -0.198724553 0.679584920 -0.070791014
v -0.187338322 0.695246637 -0.089819290
v 0.010988841 0.567578435 0.097214334
v 0.022584984 0.551639318 0.099084511
v -0.179767907 0.681170821 -0.114807166
v 0.042733949 0.551796317 0.103840396
v -0.136774093 0.694447160 -0.160650611
v 0.062388550 0.553535104 0.108546868
v -0.026061738 0.732017159 -0.196369216
v 0.071225151 0.535247922 0.109323762
v -0.109366491 0.906398118 -0.171965271
v 0.091525748 0.535117209 0.106260017
v -0.124779500 0.907468319 -0.154777914
v 0.099738918 0.551025510 0.097962335
v -0.134209335 0.888014793 -0.152376071
v 0.117895946 0.547047019 0.090820566
v -0.156667262 0.922929406 -0.143287584
v 0.134889051 0.536748827 0.086594753
v -0.182697654 0.865044415 -0.097398445
v 0.154100507 0.530936301 0.088244162
v 0.058115475 0.715700746 0.131923959
v -0.163090929 0.902386785 0.076221600
v -0.142976418 0.800676525 -0.163614482
v -0.179724485 0.616560996 0.082430348
v 0.161937684 0.544193149 0.077736899
v -0.162175357 0.811984360 -0.146723688
v -0.021221118 0.797882855 0.132867500
v 0.171475515 0.526561618 0.078629047
v -0.046669621 0.801643372 0.139741644
v 0.167740211 0.529115558 0.059388708
v -0.028966138 0.825306237 0.140379637
v 0.182800025 0.526816785 0.046502061
v -0.020759815 0.898664951 0.136255234
v 0.189928964 0.526894689 0.028175641
v -0.075887576 0.922942936 -0.186382622
v 0.191073373 0.530460298 0.008762380
v 0.031341396 0.734391212 -0.188086838
v -0.099674106 0.883309543 -0.176249579
v -0.129191682 0.631510556 0.116636716
v 0.049596548 0.690178633 0.135015205
v 0.069274932 0.757654548 -0.178743109
v -0.130023032 0.866374671 -0.155881971
v -0.164122522 0.611442566 0.098905720
v 0.145848379 0.754651845 -0.158362582
v -0.149982214 0.852845788 -0.159506589
v 0.144812748 0.820094407 -0.150271326
v 0.160011485 0.797505021 -0.147180289
v 0.161050603 0.769476831 -0.146046609
v -0.172429353 0.638481975 0.074223325
v -0.161099285 0.838685155 -0.140987724
v 0.219314486 0.524701774 -0.015874181
v 0.205937386 0.525812984 -0.028421652
v -0.202346444 0.628260195 0.030914605
v 0.157179147 0.819683373 -0.131822497
v -0.167866156 0.851140857 -0.116270408
v -0.190334648 0.847560525 -0.074796416
v -0.196724102 0.862567246 -0.056232363
v -0.063118055 0.847708404 -0.180529326
v 0.175839663 0.660743892 -0.130816296
v -0.176454738 0.840995193 0.054182142
v -0.190788835 0.837300479 0.025940176
v -0.141316384 0.833736062 0.106254026
v -0.155781895 0.854599655 0.097909465
v 0.207795665 0.525297701 -0.048218023
v -0.024884788 0.834441841 -0.193097517
v 0.205418542 0.525014997 -0.067941017
v -0.048329107 0.829250693 -0.192524999
v 0.188904077 0.524220407 -0.078927249
v -0.032122009 0.665991843 -0.196679354
v 0.194456801 0.524358332 -0.097909994
v -0.124662384 0.905311763 0.092318885
v 0.182848290 0.523408294 -0.113806389
v -0.103256188 0.903244495 0.109017812
v 0.168166697 0.524651170 -0.127186432
v -0.027916541 0.812440038 -0.202026010
v 0.165744737 0.521197617 -0.146760494
v 0.166732058 0.804975510 -0.116731808
v -0.029627984 0.788026690 -0.204741687
v 0.153291345 0.532955050 -0.139761388
v -0.051912636 0.805232346 -0.194499612
v -0.183825776 0.808395743 -0.103753127
v 0.140375644 0.522534192 -0.149710476
v -0.148363858 0.920241237 0.063182972
v 0.128550693 0.523754776 -0.165648594
v -0.037598319 0.700286269 -0.200594470
v 0.114189386 0.535091281 -0.158114955
v 0.155454978 0.745824218 -0.139800400
v 0.098388955 0.527521133 -0.167860657
v -0.118815199 0.750518858 -0.162341431
v 0.079920456 0.531919658 -0.161128864
v -0.080529109 0.644845068 -0.177024394
v 0.059640545 0.528301239 -0.162309960
v 0.061375700 0.860368431 0.123397037
v -0.185693845 0.767716944 -0.093858890
v -0.225045949 0.581461668 -0.027527094
v 0.166762486 0.779422879 -0.124334350
v -0.213615775 0.787147105 -0.039998770
v -0.218402117 0.742629230 -0.030462405
v 0.173684642 0.651145041 -0.101767264
v -0.208065584 0.727571011 -0.051175945
v -0.007192817 0.564900339 -0.173594430
v 0.020515652 0.547332525 -0.173364088
v -0.007812701 0.543300748 -0.169540897
v -0.006765446 0.586829066 -0.174486145
v 0.177719563 0.833400249 -0.117002860
v -0.195764691 0.734391391 -0.071294293
v -0.006093619 0.608384609 -0.177225530
v -0.005834886 0.629864633 -0.179202005
v -0.211653620 0.722651601 -0.008989447
v -0.005599932 0.651174426 -0.181253120
v 0.174873352 0.787557364 -0.103556991
v -0.174760133 0.731909871 -0.110115901
v -0.136011481 0.548598409 -0.141160429
v -0.208436608 0.732886553 0.023547079
v 0.191503420 0.671856165 -0.089385785
v -0.201730847 0.709264517 0.034074314
v -0.104855254 0.730142891 -0.173934430
v -0.086737402 0.712106347 -0.168803900
v 0.188640416 0.809219837 -0.099418446
v -0.051146168 0.780070543 -0.189869210
v -0.002813806 0.797454238 -0.197241142
v -0.002123487 0.816337228 -0.203667849
v -0.118448123 0.880653262 0.108127043
v -0.002245831 0.836118102 -0.203042239
v -0.140085250 0.871970534 0.094111368
v 0.193399400 0.779216588 -0.090821706
v -0.126456589 0.854518116 0.104776345
v -0.001174694 0.854565263 -0.195431456
v -0.146453053 0.894807696 0.096037790
v -0.174558312 0.720484614 0.088156000
v -0.004090753 0.873783886 -0.200960964
v -0.130656213 0.925008416 0.078045420
v 0.188582316 0.836091042 -0.081979766
v 0.179179087 0.551437497 0.050934691
v -0.003274417 0.893756866 -0.201269478
v -0.150695711 0.920371532 0.088923641
v -0.002729237 0.913830578 -0.200553343
v -0.169722125 0.858434498 0.074593186
v 0.197244436 0.769208372 -0.066575617
v -0.163066745 0.882528961 0.061212499
v -0.213875651 0.778310657 0.003004658
v -0.001901041 0.930598140 -0.189183190
v -0.161664039 0.929548264 0.044554725
v -0.170041278 0.906379402 0.046926282
v -0.177866608 0.927507102 0.022997903
v -0.153797835 0.712100327 0.100736156
v 0.029008914 0.944860101 0.105038919
v 0.016401719 0.951588333 0.119599149
v 0.199105680 0.854808688 -0.055829652
v 0.002722707 0.908771634 0.129259333
v -0.182883039 0.921889663 -0.003430954
v 0.202983856 0.822215736 -0.054510593
v -0.194392905 0.932503998 -0.040019400
v -0.181284711 0.926959515 -0.057833899
v -0.092994839 0.618039906 -0.167413324
v 0.048170187 0.944733441 0.098466635
v 0.208912998 0.839357376 -0.033200469
v 0.209463954 0.787683129 -0.046146438
v -0.180733800 0.926410556 -0.081005089
v -0.163448423 0.932905555 -0.122891262
v -0.137316182 0.928143859 -0.158848643
v -0.160221487 0.865258038 -0.137376577
v -0.117557026 0.623823822 -0.147100002
v 0.085948870 0.948409438 0.098825417
v 0.067040622 0.945768714 0.093166851
v -0.109049655 0.862046063 -0.167974338
v 0.001231287 0.851055264 0.141664684
v -0.117749728 0.885283649 -0.164189875
v 0.210929126 0.810936093 -0.028441140
v -0.137832955 0.609606147 -0.158895224
v 0.094190866 0.936628819 0.085001417
v -0.032458663 0.674762607 0.140018076
v -0.035512235 0.553191781 0.123753287
v 0.203988388 0.850892901 -0.012106283
v -0.205620244 0.838585198 -0.047071427
v -0.052402336 0.613873065 0.129168659
v 0.112225331 0.935275435 0.075851783
v 0.211492464 0.674863458 -0.011704817
v -0.068867750 0.551607311 0.131059200
v 0.220519304 0.675431132 -0.032339495
v 0.205711514 0.827334762 -0.007526208
v 0.211217329 0.783847034 -0.015806496
v -0.072396226 0.627902448 0.141927645
v -0.102597989 0.554130912 0.130379245
v -0.119473517 0.561704040 0.102667034
v -0.107204221 0.617883563 0.110890783
v 0.204380065 0.813493133 0.020552203
v -0.112674199 0.595526576 0.110085227
v 0.211261272 0.804630160 -0.003567806
v -0.059864111 0.828789055 0.135114029
v 0.115025148 0.853822410 0.119336501
v -0.131694123 0.607007802 0.119418643
v 0.077787742 0.779487848 -0.167750210
v -0.143431172 0.551066279 0.116646454
v -0.197621748 0.635770142 -0.064778462
v -0.144540668 0.620519936 0.101761401
v -0.163635656 0.571397007 0.105205514
v 0.069535971 0.799443543 -0.176905796
v 0.177125797 0.878623366 0.041835006
v -0.148172870 0.594613254 0.102993786
v -0.199989155 0.615966439 -0.050885469
v -0.166109711 0.546472430 0.098232105
v 0.212009817 0.785953283 0.011729153
v 0.208334371 0.765708506 0.024973033
v -0.163970083 0.878649414 0.088279158
v -0.173387244 0.594245672 0.093103543
v -0.187598184 0.546965241 0.061895590
v 0.187344804 0.833216667 0.031737320
v 0.187179893 0.807135880 0.044025637
v -0.184099883 0.621842086 0.056210350
v -0.178693861 0.598128915 0.065658621
v 0.186682373 0.782433391 0.058838278
v -0.188365504 0.553233743 0.038145844
v 0.161831245 0.885040939 0.065909512
v -0.195446372 0.600325465 0.045165449
v 0.208201259 0.667592168 0.012251072
v -0.045154314 0.939716995 0.101205230
v -0.204981178 0.600857496 0.019876858
v -0.023118220 0.926241219 0.131812602
v 0.180154055 0.827538967 0.057545055
v -0.169529676 0.863750637 0.049869519
v 0.196673274 0.659892023 0.035082068
v -0.176354095 0.883096695 0.036651846
v -0.207335114 0.593701601 -0.007317101
v 0.177707165 0.759523511 0.065341488
v -0.185704276 0.860406280 0.032039177
v 0.026123274 0.853428006 -0.207059413
v 0.025586775 0.878573596 -0.197755113
v 0.164257273 0.823366165 0.075845234
v -0.031515285 0.931385338 -0.191865206
v 0.172952816 0.802780449 0.068106368
v -0.205926180 0.619633138 0.000001438
v -0.026095714 0.907108665 -0.202559158
v 0.032167397 0.712133706 0.136587948
v -0.028091932 0.582860827 -0.178809986
v -0.046763331 0.910575569 -0.187357202
v 0.162816972 0.837655663 0.096267469
v -0.054646969 0.933528244 -0.183025628
v -0.189773411 0.878768742 0.013635772
v 0.168289021 0.778710902 0.084469438
v -0.199498460 0.855242372 0.009278422
v 0.162117630 0.759355724 0.106060363
v -0.206788898 0.866946340 -0.034564178
v -0.208645061 0.847736716 -0.016316485
v 0.164722830 0.809180140 0.095272616
v -0.202714592 0.873453975 -0.009297689
v 0.137524530 0.769628465 0.108594179
v -0.223558515 0.553615987 -0.037824906
v -0.224155352 0.606991649 -0.018194987
v 0.124748208 0.657626390 0.121194087
v 0.144699201 0.655765355 0.104923025
v 0.119272128 0.727089405 -0.170430511
v 0.103728786 0.920292377 0.109596014
v -0.027785908 0.612288415 0.132786959
v 0.130401447 0.939284444 0.070100330
v -0.194921970 0.885465920 -0.050245184
v 0.151595563 0.679295659 0.097845018
v 0.138921350 0.824660182 0.112911977
v -0.218469769 0.618789077 -0.035938390
v -0.185261399 0.877016187 -0.073799394
v 0.147595033 0.945207417 0.067191653
v -0.168300003 0.879845142 -0.116033949
v 0.153669670 0.789724708 0.109558389
v -0.073466524 0.773477256 -0.183952540
v 0.110715806 0.680934250 0.110936843
v -0.204455227 0.549447119 -0.060312975
v 0.113116801 0.772534490 0.106058754
v -0.213212252 0.597181499 -0.042209219
v -0.199051991 0.611201346 -0.077365637
v -0.188625306 0.544919610 -0.080163002
v 0.091819212 0.675542116 0.127328783
v 0.126060456 0.796137810 0.113742411
v -0.073249802 0.731981099 -0.175372213
v 0.101822272 0.791655660 0.113326527
v -0.190803364 0.567811668 -0.071162745
v -0.186510459 0.630523145 -0.090816386
v 0.074431553 0.694354355 0.128884360
v -0.092406489 0.754688442 -0.179078355
v -0.197517291 0.555322230 -0.101073757
v 0.022164330 0.802371204 -0.198538512
v 0.104248717 0.820102334 0.119908847
v 0.084656760 0.843878150 0.127112657
v -0.182371885 0.603749096 -0.096557036
v 0.134313196 0.939376652 0.053107709
v 0.024922712 0.643516898 -0.180878729
v 0.027259592 0.621053219 -0.177961916
v -0.173686951 0.546835959 -0.114278339
v 0.149106324 0.945346057 0.041545376
v -0.144989252 0.753285825 -0.157225803
v 0.154028535 0.938243508 0.023517039
v -0.159486324 0.611932158 -0.127251029
v 0.050759811 0.889738679 -0.190218776
v -0.177919149 0.595329463 -0.119333744
v 0.164576560 0.946098804 0.008413911
v 0.042529050 0.682427645 -0.180551365
v 0.045075253 0.708591998 -0.187685326
v -0.162849844 0.734108806 -0.152827710
v 0.179618120 0.950080693 -0.004105194
v -0.166251808 0.757621706 -0.145202309
v -0.115622118 0.928203225 -0.160781652
v -0.049524285 0.905823886 0.133434504
v 0.180659145 0.947724700 -0.023816746
v -0.171295777 0.544060469 -0.141579673
v -0.159693196 0.744649708 -0.126664311
v -0.160047412 0.587246776 -0.130453050
v -0.158507705 0.892812610 -0.137765795
v 0.191535145 0.952210724 -0.038066156
v -0.177163154 0.756890893 -0.112707280
v 0.044176571 0.600640893 -0.181347340
v -0.151863933 0.546052873 -0.158680484
v -0.190153822 0.745029211 -0.093483031
v 0.175517917 0.948027492 -0.049223512
v -0.152428418 0.877934813 -0.156808600
v 0.171808258 0.949208736 -0.068922207
v -0.196609303 0.763740659 -0.072019055
v -0.157625869 0.596822739 -0.150014073
v 0.183612198 0.706152976 0.058206361
v 0.162582159 0.945658684 -0.086473025
v -0.206765130 0.747609496 -0.055574328
v 0.057754200 0.734216213 -0.183551103
v -0.127744257 0.550701022 -0.162608102
v -0.030945322 0.554848135 -0.176301330
v 0.163469955 0.951359093 -0.105442502
v -0.212075546 0.767152190 -0.048241928
v 0.199436739 0.785914063 0.035263907
v -0.027351638 0.653049827 0.131477326
v 0.137425542 0.947992027 -0.134176329
v 0.197057799 0.756369770 0.046978738
v -0.078311190 0.759254158 0.127244920
v -0.122430958 0.594762743 -0.144832820
v -0.103205696 0.557213306 -0.170081645
v 0.071553424 0.607124805 -0.182271928
v -0.115713775 0.607290804 -0.166662425
v -0.079248339 0.576806784 -0.176027089
v -0.080370672 0.548996806 -0.183067471
v 0.093712553 0.646716177 -0.168086141
v 0.072777167 0.712878585 -0.178427249
v -0.195570290 0.724429250 0.053598534
v 0.059857219 0.788900673 0.130339116
v 0.050329156 0.762881160 0.135262772
v -0.197123080 0.750352859 0.050681628
v 0.042354342 0.736990333 0.131123558
v -0.034453124 0.759286940 -0.204089165
v 0.116208531 0.696916699 -0.173272252
v -0.175644651 0.764726281 0.065283194
v -0.071732789 0.622336984 -0.175315261
v -0.079224452 0.600996912 -0.169563368
v 0.127610311 0.634936929 -0.166864499
v -0.173519954 0.738914728 0.069637187
v -0.053857841 0.573416650 -0.186815143
v 0.129089043 0.933596432 -0.142483547
v 0.130446166 0.659070611 -0.145898223
v -0.063368529 0.601756454 -0.185368791
v -0.170946032 0.756787419 0.093449228
v -0.055264335 0.637615442 -0.193382442
v 0.121858262 0.950300574 -0.149686083
v -0.037679590 0.607217610 -0.187558264
v 0.139224261 0.604546189 -0.163121924
v -0.210473463 0.568845809 -0.011286557
v -0.205427766 0.553650737 0.016064165
v 0.151829004 0.653181851 -0.141029447
v -0.163107648 0.734766006 0.102628291
v -0.143021226 0.749492168 0.106076181
v 0.128016025 0.713326097 -0.149864405
v -0.087275252 0.831546307 0.125497639
v -0.063802414 0.940248311 0.094279744
v -0.134837806 0.724044442 0.119088054
v 0.153626055 0.702462196 -0.150788873
v -0.120121159 0.746874452 0.120337844
v -0.100203060 0.809475541 0.120942891
v 0.169764429 0.708190382 -0.110043861
v -0.103377797 0.725395024 0.115126111
v 0.123953201 0.866526783 -0.165243119
v -0.089158192 0.784603655 0.129203930
v -0.113491535 0.789121270 0.114191987
v 0.188605085 0.697916687 -0.093931340
v -0.104901053 0.766922355 0.121148452
v 0.182996199 0.629526496 -0.089772612
v 0.195158154 0.646730244 -0.080963694
v -0.095485397 0.746642709 0.116492964
v -0.081326075 0.732653201 0.131675109
v -0.126661301 0.768524647 0.107363060
v -0.031177897 0.749610960 0.140915811
v -0.136578888 0.790857673 0.101370737
v -0.124177948 0.811703980 0.104750410
v 0.195108443 0.692081094 -0.069472268
v 0.213388711 0.657364964 -0.046699330
v -0.074199222 0.805633545 0.134105414
v -0.153051466 0.772234797 0.104366623
v -0.054513693 0.655317187 0.142639548
v -0.152761191 0.812492073 0.103933617
v 0.196435183 0.665376067 -0.063483387
v -0.169008404 0.832312107 0.087306634
v 0.220766187 0.653479695 -0.023992170
v -0.175343961 0.790031791 0.063369811
v 0.219682813 0.703201652 -0.025839100
v -0.172798708 0.780133128 0.086914726
v -0.074724376 0.855123520 0.127885461
v -0.174688429 0.815460324 0.062946543
v 0.222090170 0.606383443 -0.020900007
v -0.076176450 0.901914775 0.116729759
v -0.004221219 0.757225811 -0.190390557
v -0.069924742 0.926034629 0.115032837
v -0.186134964 0.821695685 0.042785905
v -0.206923336 0.762140453 0.025541544
v -0.047309585 0.930307388 0.120331846
v -0.004097281 0.778047144 -0.191591337
v -0.100250877 0.945236206 0.084071584
v -0.213256791 0.750494182 -0.001055533
v 0.083735622 0.834866822 -0.177353621
v 0.131629840 0.915107548 -0.159949198
v -0.208572432 0.831218839 0.006146705
v -0.082568035 0.946379364 0.092529580
v 0.207990691 0.697263420 0.001619137
v 0.102701008 0.948305309 -0.155036986
v -0.205073878 0.892871976 -0.027393749
v 0.208831385 0.714377761 0.021723842
v -0.213686109 0.769165933 -0.021935543
v -0.210277587 0.795688689 -0.019030418
v -0.209243611 0.821757793 -0.020064268
v 0.085221261 0.938970864 -0.155526042
v 0.213018209 0.759758592 0.001901567
v 0.070244893 0.928824306 -0.163483173
v -0.100339904 0.855626583 0.114274457
v -0.021754440 0.881182969 -0.193455711
v 0.200352997 0.702944398 0.042410992
v 0.053330816 0.939397216 -0.165698141
v 0.066790901 0.934671521 -0.183435887
v 0.204400092 0.595802903 0.003931011
v -0.092434272 0.926062703 0.106102064
v -0.024854301 0.858052611 -0.198924184
v -0.201338053 0.789699137 -0.061298113
v -0.179157451 0.897734523 -0.094912350
v -0.111364387 0.832682610 0.109740891
v 0.036205776 0.929415405 -0.165338516
v -0.192085981 0.789608955 -0.085820898
v 0.015859593 0.928739548 -0.166061521
v -0.163849801 0.797348738 -0.124553479
v 0.191712260 0.604038119 0.049049847
v -0.179711908 0.782713532 -0.110439464
v 0.016796615 0.930892646 -0.181900039
v -0.004895130 0.929430783 -0.168857560
v 0.191817760 0.680394769 0.051140219
v 0.186638162 0.653434098 0.059520535
v 0.094079658 0.794439018 -0.181721881
v 0.023267623 0.920110106 0.134690493
v -0.166950300 0.823790073 -0.119501293
v -0.160419255 0.771358669 -0.125918433
v -0.168773144 0.926336169 -0.101093389
v 0.078367993 0.815878510 -0.189694494
v 0.174172685 0.679016232 0.072918557
v -0.162080377 0.782730103 -0.153008878
v -0.072517104 0.530207574 -0.162815005
v -0.119846478 0.795153975 -0.157930866
v -0.092058264 0.535329938 -0.163139075
v -0.107196487 0.525488317 -0.171381816
v -0.132799655 0.775884032 -0.154326141
v 0.170489937 0.664639115 0.099110290
v 0.172123700 0.644778132 0.080983065
v -0.115942575 0.527108192 -0.153674766
v 0.176389039 0.615134120 0.089940652
v -0.124353208 0.842357278 -0.160727680
v 0.046160217 0.910295308 0.121430278
v 0.029923450 0.894117057 0.129416123
v -0.135168225 0.524039209 -0.154989049
v 0.171321943 0.694057345 0.096688353
v -0.119271323 0.817005992 -0.171651766
v 0.149365619 0.701504588 0.100162804
v 0.165368214 0.636044502 0.107378982
v -0.143425971 0.523708463 -0.137570098
v 0.000985536 0.811268449 0.130947784
v 0.001036805 0.789972126 0.129742563
v -0.097559743 0.798212051 -0.163001597
v -0.153829545 0.519147694 -0.153832346
v -0.088679865 0.860076606 -0.184919074
v -0.108370125 0.774416804 -0.163161471
v -0.160591424 0.522686660 -0.136797756
v -0.177238315 0.520974576 -0.126938894
v -0.182074741 0.522281289 -0.107833326
v -0.059578020 0.774890482 0.140776917
v -0.029245356 0.775393426 0.137689352
v 0.102686860 0.659561157 0.113189235
v 0.108365074 0.635850906 0.113966309
v -0.200402543 0.525253713 -0.100935817
v -0.188047811 0.526029706 -0.085337743
v -0.033804033 0.699501395 0.143458724
v 0.091046020 0.650056183 0.129380569
v 0.066946574 0.666282594 0.135150567
v -0.201047629 0.526033044 -0.070331745
v -0.082311586 0.840339363 -0.172314346
v 0.099998280 0.699877083 0.126937047
v -0.206179410 0.525929272 -0.051028650
v -0.065039538 0.684714139 0.145388976
v 0.039215900 0.665293336 0.133216575
v -0.041442346 0.633572102 0.132848248
v -0.105181716 0.839298546 -0.178371236
v 0.035007693 0.610430896 0.141774565
v -0.083039917 0.657931924 0.140176281
v 0.089980066 0.745480657 0.123717502
v -0.041982289 0.594181120 0.132438049
v -0.070630230 0.597648084 0.132366061
v -0.065016784 0.870441616 -0.190751836
v -0.078854345 0.880774379 -0.176102489
v -0.086491935 0.706991553 0.131840974
v -0.064744934 0.895394504 -0.184177235
v 0.100567482 0.873914361 -0.178957984
v -0.221731856 0.524769902 -0.039041989
v 0.106861867 0.724917769 0.124159411
v -0.099089213 0.603953719 0.136042312
v -0.111455902 0.701872230 0.115531065
v 0.107059523 0.847765446 -0.178138942
v -0.098472461 0.634906948 0.130934969
v -0.098596297 0.659385204 0.115825221
v -0.089053825 0.879141212 0.117563583
v 0.095115274 0.618176758 -0.175414950
v -0.061009578 0.879205227 0.127185270
v 0.119366348 0.730520368 0.104284480
v -0.109094933 0.640019894 0.108785905
v 0.150760695 0.863015652 -0.157292753
v -0.209623858 0.527178645 -0.025430065
v -0.032284297 0.724343538 0.140937343
v 0.111009136 0.605258226 -0.156306043
v -0.195193276 0.529200435 0.010262972
v -0.149816126 0.670087218 0.111288227
v 0.104911372 0.630446076 -0.156159371
v -0.194745690 0.527607799 0.029863834
v -0.126604900 0.655051351 0.113136962
v 0.137400568 0.716450334 0.112714373
v 0.142115235 0.741838336 0.107937120
v 0.141246825 0.888503432 -0.162317783
v -0.180313140 0.529193521 0.043314811
v -0.139187187 0.696239352 0.117673323
v -0.169543326 0.538858056 0.056732088
v -0.148164898 0.644825935 0.104589999
v -0.167443052 0.527600527 0.072729498
v -0.157548100 0.543227494 0.079148874
v -0.154697850 0.690352499 0.098472357
v -0.172962323 0.654415429 0.097706422
v -0.146128416 0.535613716 0.091210127
v 0.164043680 0.725078702 0.104826845
v -0.174051791 0.677273214 0.092409596
v -0.136906356 0.552800655 0.093432099
v -0.126246780 0.536372244 0.093857422
v 0.152139649 0.591340721 -0.142802447
v -0.174929738 0.699579358 0.088987216
v 0.181094915 0.734189749 0.061684083
v 0.148300797 0.613130450 -0.138365239
v 0.161434248 0.925587535 -0.117175356
v -0.110840991 0.534916878 0.105647922
v -0.169628352 0.631543577 0.100460924
v -0.100659728 0.551830828 0.106552482
v 0.146248102 0.933389843 -0.153941333
v -0.085266665 0.541117311 0.110075071
v -0.070320249 0.554032743 0.107067443
v 0.199385494 0.727320790 0.044246227
v 0.159279555 0.884045124 -0.143686816
v -0.051459007 0.548529029 0.102398738
v -0.031888310 0.549834728 0.097207561
v -0.174821287 0.712085366 0.065508068
v -0.021748658 0.566730142 0.095705621
v -0.173114255 0.662634075 0.069469221
v 0.170507893 0.608484685 -0.140918881
v 0.166825607 0.859936535 -0.130967438
v 0.209547833 0.741042912 0.022777382
v -0.194382101 0.698290467 0.054553688
v -0.192743793 0.646650374 0.054768424
v -0.194188237 0.672756076 0.053894330
v -0.053524446 0.730201066 -0.197997719
v 0.170956865 0.600408435 -0.118092202
v 0.213257581 0.757805645 -0.023825129
v 0.156416476 0.904080093 -0.129572630
v 0.014686719 0.780725539 -0.190087184
v -0.058467109 0.753826737 -0.183148399
v 0.078985251 0.736237705 -0.169241250
v -0.059886228 0.714526534 0.140091807
v 0.210615367 0.729003072 -0.006141339
v -0.200016335 0.658390462 0.029050041
v -0.211279944 0.703023136 0.010957947
v -0.191496938 0.800442040 0.046151496
v 0.183921888 0.605505824 -0.096288785
v -0.207570001 0.647112310 0.003085327
v 0.147009820 0.923530698 0.092041329
v 0.216963917 0.732520580 -0.036180995
v -0.209303543 0.675152004 0.004662395
v -0.217853263 0.693360567 -0.016251357
v -0.219881728 0.712405622 -0.036141615
v 0.190149263 0.592456162 -0.075707957
v 0.207644850 0.712083101 -0.052608252
v -0.223926231 0.634305358 -0.016563717
v -0.212797806 0.805356026 0.004331279
v 0.164016053 0.880975842 -0.118076980
v -0.032392185 0.949296832 0.113932490
v 0.201169565 0.739242077 -0.060629465
v 0.193757012 0.747629583 -0.088024817
v -0.089537941 0.820116222 -0.167612195
v -0.070927888 0.823739827 -0.186153412
v 0.195905328 0.618878245 -0.074726254
v -0.223308995 0.663609505 -0.023586389
v 0.204251140 0.578475296 -0.059894938
v 0.196074173 0.718528032 -0.075691327
v -0.021051941 0.941213429 -0.170883089
v -0.036332980 0.929271996 -0.167206779
v 0.176475838 0.859650016 -0.102655493
v 0.024470419 0.756260991 0.135391563
v -0.055954881 0.927047133 -0.164468259
v -0.058142830 0.742893100 0.139894634
v 0.184831351 0.722024083 -0.095649883
v 0.171754450 0.736792386 -0.107950367
v -0.073505670 0.934237480 -0.159012303
v 0.178296596 0.887227714 -0.098155618
v -0.215006381 0.639554858 -0.042616092
v -0.086309411 0.948926747 -0.162636220
v -0.097761191 0.927839458 -0.173136204
v -0.209648162 0.810539424 -0.045588411
v -0.101637162 0.945662320 -0.149696946
v -0.120917462 0.944280148 -0.141741827
v 0.168650478 0.722960830 -0.133720607
v -0.201553538 0.706480742 -0.065137215
v -0.194565341 0.817453265 -0.073366076
v -0.184875071 0.835671246 -0.099159911
v -0.209256530 0.660519361 -0.055732768
v 0.186359942 0.870665908 -0.076964170
v 0.178747341 0.929863930 -0.083661996
v -0.194253698 0.591907740 -0.060840815
v 0.066798754 0.741499662 0.130372003
v 0.150246531 0.727875113 -0.153741851
v -0.078033172 0.798904777 -0.185812742
v -0.191136047 0.719830155 -0.092031449
v 0.185441777 0.923132300 -0.063249931
v -0.089466065 0.779799640 -0.173362002
v -0.198722839 0.585021555 -0.088024840
v 0.129556566 0.738866985 -0.153268009
v -0.189332038 0.654479384 -0.078270108
v -0.184807330 0.652151048 -0.111785315
v 0.194818243 0.921107173 -0.042355083
v -0.183131665 0.672334790 -0.091960974
v -0.175172299 0.706676900 -0.111172423
v 0.206017211 0.869985938 -0.030399397
v -0.181644976 0.622940660 -0.116444752
v -0.027689364 0.634506583 -0.187666565
v 0.096381456 0.717455447 -0.164412245
v -0.137476087 0.952178657 -0.147905871
v -0.136809126 0.942606628 -0.132263348
v -0.159993887 0.719307065 -0.130100340
v -0.160341769 0.693256915 -0.130979404
v -0.160784021 0.666286111 -0.128024727
v -0.160671949 0.638995469 -0.126170188
v -0.145698160 0.827177882 -0.161700368
v 0.086847596 0.792461753 0.132480070
v 0.210253641 0.606916070 -0.053039096
v -0.156702414 0.949657619 -0.103450812
v -0.166048989 0.950886607 -0.085831352
v 0.219849154 0.631102145 -0.039814293
v -0.008811058 0.527913690 -0.155175537
v -0.174142703 0.951279998 -0.067873582
v 0.200881600 0.872740626 -0.000723137
v -0.176087052 0.948965728 -0.048067223
v -0.179747269 0.941539109 -0.029801875
v -0.190392822 0.952646077 -0.019171325
v 0.211609274 0.757727623 -0.048528224
v 0.197601542 0.929297447 -0.023331180
v -0.174655989 0.948554695 -0.007907404
v -0.163563788 0.939285398 0.005567009
v -0.158867195 0.944810092 0.024139589
v 0.060488194 0.780718744 -0.186292738
v -0.145973146 0.937817454 0.037761338
v 0.189440086 0.921465755 -0.003897359
v -0.139803275 0.943340898 0.054844666
v -0.159590632 0.624443352 -0.150347829
v 0.186635420 0.862731099 0.022513606
v 0.019959820 0.690262914 -0.180719838
v -0.005639111 0.672431231 -0.181955233
v -0.005004255 0.693510711 -0.184293464
v 0.148653343 0.927053630 -0.133835688
v -0.161548644 0.651773870 -0.152360067
v -0.005145050 0.714814425 -0.184065253
v -0.161874384 0.707693160 -0.156931415
v 0.017146610 0.714061737 -0.183109373
v -0.004884113 0.736131847 -0.186336637
v -0.148467064 0.950321496 0.072126307
v 0.172393009 0.753499627 -0.126943320
v 0.175062001 0.920927525 0.015313993
v -0.137395471 0.638431013 -0.157775432
v -0.131150097 0.943887055 0.069905728
v -0.112998389 0.938076973 0.070733495
v 0.173011526 0.906013846 0.044018354
v 0.052826840 0.865340829 -0.196347594
v -0.162149876 0.679571390 -0.155343294
v -0.135685340 0.725018859 -0.165566057
v 0.168529063 0.930994213 0.034826513
v -0.136939943 0.666277051 -0.157877177
v 0.180352390 0.851993859 0.047557231
v -0.113464497 0.652219832 -0.150796622
v -0.002238529 0.728648245 0.131565481
v -0.113057986 0.926200092 0.094135359
v 0.139834806 0.923923016 0.067724690
v 0.152969614 0.906702220 0.070260212
v 0.156800419 0.926862061 0.054307543
v -0.109011434 0.635955215 -0.171048492
v -0.111202791 0.679664195 -0.155368671
v -0.100151479 0.662829876 -0.176385149
v 0.060356013 0.621466100 0.129809946
v -0.111528479 0.705642641 -0.164384663
v 0.055013061 0.913111985 -0.186644822
v -0.088506117 0.687763631 -0.173517749
v 0.028542345 0.903179646 -0.199290678
v -0.047158025 0.853914261 -0.196848154
v -0.045492522 0.883696377 -0.201783016
v 0.205619410 0.621909201 0.000649248
v 0.194109768 0.632327259 0.042734440
v -0.067220889 0.671963573 -0.194998324
v -0.070139050 0.705345273 -0.191098928
v -0.145558968 0.937776268 -0.115023628
v 0.165300816 0.864157498 0.060061656
v 0.166418493 0.864798903 0.086564638
v -0.212286204 0.546074748 -0.012240309
v 0.174662650 0.593735635 0.069717690
v 0.178259730 0.623869658 0.063347116
v -0.198368564 0.530836701 -0.009131247
v 0.154365033 0.890873790 0.096933760
v -0.054477077 0.546163917 -0.174320281
v -0.052015595 0.529863954 -0.158842042
v 0.018475901 0.585669100 0.136592597
v -0.030953903 0.526733696 -0.159118682
v -0.003093535 0.928347707 0.098650053
v 0.071941778 0.901510358 -0.177860290
v -0.020035120 0.936630845 0.105304159
v -0.030036908 0.576111913 0.127003953
v 0.160980269 0.606737733 0.112580076
v 0.036397975 0.930161476 0.115823008
v 0.108769514 0.555974364 0.123616837
v 0.093235917 0.573433757 0.119030997
v 0.127465352 0.572028279 0.104765333
v 0.058729578 0.837356567 -0.201174259
v 0.154162094 0.577737451 0.110732496
v 0.072137795 0.575006425 0.131663665
v 0.201116845 0.569594860 0.009437791
v 0.143658623 0.855735481 0.102201007
v 0.127299309 0.876086831 0.098228216
v 0.187481791 0.894261837 0.014801985
v 0.133886963 0.599307239 0.106875673
v 0.202636868 0.899037838 -0.019309292
v 0.196352378 0.890594184 -0.052401006
v 0.060102176 0.929833412 0.114082262
v 0.112853542 0.610901117 0.120599665
v 0.137879744 0.628610969 0.119241491
v 0.182327583 0.901252866 -0.077595696
v 0.176255286 0.915906608 -0.100393392
v 0.115011334 0.584819674 0.123655081
v 0.163820773 0.902295232 -0.110092387
v 0.187112659 0.565690398 -0.079066411
v 0.183012649 0.576161623 -0.108030245
v 0.088617846 0.622129321 0.132306352
v 0.175873399 0.576693177 -0.142064899
v 0.153738528 0.909223199 -0.151986882
v 0.090304442 0.596181273 0.123895481
v 0.135712698 0.685258746 0.116355814
v 0.177369833 0.584405541 0.096523210
v 0.185861439 0.576267362 0.050968312
v 0.201174110 0.585401595 0.030537620
v 0.209883928 0.685243964 -0.050037581
v 0.171839714 0.692193687 -0.132339403
v 0.065439232 0.599198282 0.134531721
v 0.154695898 0.676138401 -0.146942109
v 0.220148802 0.583797276 -0.037334181
v 0.217237070 0.578038573 -0.011007099
v 0.047474034 0.640723825 0.134187937
v 0.015542626 0.665674448 0.129469380
v 0.109536983 0.887083232 0.111944258
v 0.078274027 0.922179878 0.101052687
v 0.023232598 0.688804924 0.134156555
v 0.045325104 0.810694873 0.131655544
v 0.030344728 0.783629179 0.139672965
v 0.027319793 0.574748337 -0.179891557
v 0.071328826 0.906783104 0.121868193
v 0.050545566 0.628523052 -0.182682067
v 0.039363399 0.873438001 0.122282960
v 0.057100732 0.886751771 0.120675862
v 0.017915923 0.872846961 0.129596561
v 0.049144942 0.550691843 -0.177871197
v 0.074749805 0.637654364 -0.181374043
v 0.099680617 0.770080745 0.126288265
v 0.204603106 0.686346471 0.027606741
v 0.194446117 0.800794959 -0.071890563
v 0.081891224 0.552012384 -0.181557804
v 0.171710566 0.679742813 -0.107342519
v 0.139411464 0.780187726 -0.157613173
v 0.129125878 0.686643481 -0.147591338
v 0.115368366 0.553870797 -0.179199368
v 0.066302195 0.687563896 -0.184954673
v 0.045900777 0.757884860 -0.184273243
v 0.148520723 0.573124111 -0.161859363
v 0.132398605 0.550214589 -0.152532846
v 0.110928774 0.922324359 -0.169853359
v 0.088089265 0.899094880 0.107691325
v 0.086265989 0.876061916 0.127237082
v 0.163821250 0.548162520 -0.160099000
v 0.033725012 0.853409946 0.129183918
v 0.055082403 0.836291015 0.133653492
v 0.088385269 0.923958182 -0.181574166
v 0.177718356 0.548643470 -0.130466968
v 0.174885795 0.763108253 -0.103353523
v 0.027173102 0.827047229 -0.199755609
v 0.171585068 0.622836113 -0.104503393
v 0.191372603 0.548799455 -0.103912368
v 0.022104762 0.666817904 -0.181160897
v 0.188195318 0.542393804 -0.078929134
v 0.037043139 0.782243609 -0.190428287
v 0.207214758 0.550342858 -0.062600628
v 0.206724018 0.564533353 -0.041945960
v 0.082374409 0.720030546 0.125352144
v 0.115899250 0.893743515 -0.165588275
v 0.095585279 0.899356008 -0.179102659
v 0.021482047 0.757605195 -0.189869195
v 0.222467497 0.557683647 -0.025843060
v 0.136288553 0.632625222 -0.143160477
v 0.218114346 0.631964207 -0.016313653
v 0.202307463 0.612979472 0.025361683
v 0.176759571 0.630710781 -0.123837784
v 0.161637589 0.633244157 -0.140784785
v 0.198550761 0.555210829 0.035255805
v 0.165991291 0.844543099 0.069808908
v 0.203066394 0.844110787 0.012375761
v 0.200385362 0.636913359 -0.056496538
v 0.063249841 0.577681601 -0.182920754
v 0.177277163 0.560504556 0.075100705
v 0.112476453 0.749673367 0.119317427
v 0.207035378 0.648759782 -0.004062845
v 0.206012413 0.640216589 0.020096697
v 0.111878350 0.651993394 -0.156173274
v 0.173224479 0.552816868 0.101841725
v 0.135074660 0.838432789 -0.169190928
v -0.001029518 0.749124944 0.133420870
v -0.004742860 0.648979366 0.129834920
v 0.070724860 0.640906155 0.127088860
v 0.146556690 0.553852141 0.100685045
v 0.156066209 0.840719998 -0.144216552
v -0.002174683 0.709327400 0.138684079
v 0.000397910 0.769566059 0.132732913
v 0.125186846 0.547574162 0.107993998
v 0.026364556 0.830956817 0.130721778
v 0.000972394 0.830644011 0.138799489
v 0.125395611 0.903384328 0.094171382
v 0.081953473 0.553100467 0.122844912
v 0.121348605 0.929500222 0.093911521
v 0.205171064 0.552146077 -0.010158723
v 0.123534337 0.752923548 0.101461723
v 0.039297394 0.928843975 -0.191395789
v 0.055447422 0.552188993 0.132799193
v 0.073513314 0.879781902 -0.179680005
v 0.024130704 0.557549596 0.128444254
v 0.045416497 0.579351306 0.138523668
v 0.050030369 0.808084786 -0.194308415
v 0.020682467 0.808310866 0.136380941
v 0.020470621 0.637806118 0.137564600
v -0.005306826 0.629155219 0.134791270
v -0.003228990 0.689434648 0.133851573
v 0.206430838 0.544327378 -0.035763193
v -0.004133329 0.669568300 0.128721461
v 0.097995549 0.584842026 -0.182510167
v 0.102227554 0.744558573 -0.162269413
v 0.123469993 0.759704232 -0.170278713
v 0.168486178 0.744422376 0.083748415
v 0.115756974 0.705348194 0.107844569
v 0.170679986 0.714581668 0.079084113
v 0.119221665 0.577145696 -0.156139106
v 0.203557998 0.545317590 0.012462884
f 555 540 123
f 389 162 497
f 567 540 568
f 583 104 251
f 463 489 430
f 453 94 255
f 483 484 162
f 446 640 671
f 574 577 251
f 50 244 238
f 52 244 50
f 575 57 53
f 55 249 52
f 55 2 250
f 577 248 563
f 575 437 432
f 57 597 589
f 2 265 262
f 589 592 57
f 262 259 2
f 5 267 262
f 602 606 589
f 5 9 11
f 58 606 610
f 11 272 5
f 12 278 11
f 565 793 8
f 630 60 632
f 13 425 12
f 424 289 160
f 289 424 13
f 643 649 60
f 181 403 179
f 483 206 484
f 163 651 174
f 53 563 558
f 651 65 650
f 163 389 384
f 683 66 65
f 455 558 563
f 165 384 171
f 340 331 34
f 67 66 683
f 206 470 63
f 385 102 856
f 67 702 70
f 344 340 696
f 179 403 406
f 710 70 702
f 16 352 14
f 111 112 59
f 63 64 655
f 18 368 16
f 710 742 753
f 119 112 111
f 394 671 545
f 551 922 903
f 19 375 18
f 753 740 711
f 406 470 179
f 261 615 108
f 545 453 439
f 178 386 530
f 24 386 23
f 72 753 742
f 26 396 24
f 768 765 72
f 119 142 112
f 32 63 470
f 112 142 161
f 399 400 396
f 154 343 182
f 545 671 448
f 399 415 400
f 768 770 765
f 32 406 410
f 418 415 399
f 770 183 777
f 387 300 166
f 415 418 422
f 105 86 299
f 169 42 839
f 170 142 119
f 173 172 705
f 329 638 343
f 134 738 737
f 185 638 329
f 692 661 145
f 150 74 741
f 637 345 873
f 132 145 661
f 170 184 142
f 138 495 760
f 138 136 188
f 136 194 188
f 201 87 194
f 270 87 205
f 216 49 210
f 46 216 724
f 198 184 170
f 43 96 907
f 219 39 218
f 45 43 41
f 224 37 219
f 498 224 514
f 86 105 342
f 225 36 514
f 378 107 110
f 80 233 107
f 22 41 43
f 198 217 849
f 41 581 45
f 103 233 76
f 76 40 103
f 222 217 214
f 678 100 40
f 98 41 22
f 366 41 98
f 40 76 678
f 215 4 284
f 215 98 21
f 537 536 92
f 222 234 217
f 904 537 92
f 460 462 30
f 284 471 366
f 222 239 246
f 586 903 759
f 462 28 30
f 246 234 222
f 454 449 28
f 237 391 924
f 560 319 921
f 246 888 252
f 431 471 282
f 455 560 391
f 319 560 241
f 50 238 793
f 50 566 52
f 52 574 55
f 258 263 510
f 244 52 249
f 55 253 2
f 284 792 657
f 303 670 667
f 303 100 674
f 250 249 55
f 273 274 252
f 251 253 574
f 100 303 301
f 301 570 100
f 104 261 257
f 677 100 678
f 273 285 274
f 257 2 253
f 2 257 265
f 250 2 259
f 570 568 40
f 752 292 293
f 294 296 285
f 285 296 274
f 684 497 679
f 277 274 296
f 440 447 442
f 579 489 463
f 692 329 695
f 259 262 267
f 871 736 360
f 262 271 9
f 40 100 570
f 570 567 568
f 203 128 270
f 310 296 294
f 305 296 310
f 87 270 194
f 9 5 262
f 5 272 600
f 276 9 271
f 9 276 11
f 272 11 278
f 302 323 310
f 568 103 40
f 108 615 89
f 280 11 276
f 11 280 12
f 103 568 540
f 278 12 425
f 323 337 328
f 283 12 280
f 12 283 13
f 283 297 289
f 289 13 283
f 540 561 231
f 425 13 424
f 209 288 205
f 291 125 286
f 346 337 323
f 49 304 288
f 173 350 351
f 297 654 314
f 347 158 864
f 304 47 311
f 47 304 49
f 47 46 481
f 360 361 855
f 501 684 146
f 481 311 47
f 46 39 481
f 343 695 329
f 314 289 297
f 289 314 160
f 481 321 308
f 481 39 321
f 325 122 321
f 325 321 37
f 37 321 39
f 333 160 314
f 324 266 333
f 527 107 231
f 84 121 325
f 36 327 498
f 160 333 34
f 327 120 84
f 36 82 371
f 277 393 390
f 689 34 333
f 34 689 340
f 313 34 331
f 266 334 689
f 334 260 341
f 340 335 331
f 107 527 110
f 54 404 405
f 696 14 344
f 61 401 44
f 38 299 407
f 358 14 348
f 14 358 16
f 344 14 352
f 356 704 712
f 352 16 368
f 413 62 417
f 370 16 358
f 16 370 18
f 175 705 134
f 713 115 110
f 371 27 378
f 27 371 82
f 381 18 370
f 18 381 19
f 368 18 375
f 80 378 27
f 19 381 235
f 19 395 23
f 19 23 178
f 202 506 913
f 23 395 24
f 386 24 396
f 398 24 395
f 24 398 26
f 26 398 220
f 26 412 399
f 396 26 399
f 418 399 412
f 164 180 444
f 444 443 164
f 175 173 705
f 685 84 120
f 422 300 415
f 685 121 84
f 172 169 300
f 172 300 422
f 78 80 27
f 226 365 78
f 89 615 114
f 240 485 309
f 134 737 175
f 226 27 82
f 245 459 452
f 187 186 140
f 243 459 245
f 189 187 130
f 581 466 579
f 467 472 637
f 308 122 240
f 138 579 466
f 430 255 463
f 499 435 430
f 453 430 435
f 435 440 439
f 435 499 450
f 243 479 281
f 308 321 122
f 897 438 584
f 439 453 435
f 243 281 893
f 450 440 435
f 480 859 865
f 440 449 447
f 442 439 440
f 450 449 440
f 447 449 454
f 492 488 493
f 127 458 456
f 449 456 28
f 82 225 708
f 454 28 462
f 28 456 30
f 456 450 127
f 30 456 458
f 225 82 36
f 30 464 460
f 506 507 502
f 126 469 125
f 287 508 509
f 207 507 506
f 410 460 32
f 126 306 477
f 460 464 644
f 644 32 460
f 32 644 63
f 475 31 576
f 470 406 32
f 64 63 644
f 306 309 477
f 125 464 458
f 528 795 511
f 516 523 524
f 655 206 63
f 206 655 484
f 206 474 470
f 162 679 497
f 316 322 822
f 313 160 34
f 37 498 325
f 523 316 534
f 497 684 501
f 501 146 505
f 146 512 503
f 505 503 513
f 263 515 510
f 512 120 115
f 503 512 91
f 517 513 503
f 115 713 91
f 458 203 125
f 315 547 548
f 91 512 115
f 547 330 336
f 91 713 88
f 517 88 522
f 552 548 547
f 532 88 713
f 88 532 519
f 552 336 553
f 522 519 541
f 527 231 561
f 127 128 458
f 538 660 692
f 514 36 498
f 224 498 37
f 538 692 695
f 114 626 631
f 553 342 105
f 219 37 39
f 555 660 561
f 127 450 499
f 891 199 824
f 660 555 661
f 218 39 46
f 199 97 886
f 366 98 284
f 22 21 98
f 41 366 581
f 43 232 22
f 907 232 43
f 96 536 907
f 45 463 255
f 45 581 463
f 255 94 96
f 255 96 45
f 94 453 545
f 448 546 545
f 582 593 594
f 595 584 438
f 216 46 47
f 216 47 49
f 551 640 558
f 558 640 569
f 49 288 209
f 793 565 50
f 569 53 558
f 566 50 565
f 209 210 49
f 841 351 350
f 574 52 566
f 578 53 57
f 612 609 423
f 53 578 563
f 575 53 569
f 597 432 211
f 253 55 574
f 57 575 597
f 578 57 592
f 592 583 578
f 627 609 612
f 584 621 628
f 603 589 606
f 602 589 597
f 634 819 627
f 610 606 602
f 835 318 229
f 626 606 58
f 610 624 58
f 58 624 630
f 632 58 630
f 634 884 869
f 58 632 626
f 60 642 632
f 642 60 649
f 60 630 181
f 650 649 643
f 662 652 645
f 656 628 621
f 621 636 656
f 658 659 204
f 64 644 469
f 466 495 138
f 694 377 700
f 468 471 431
f 663 650 65
f 628 656 668
f 679 162 484
f 65 686 663
f 672 673 659
f 686 65 66
f 683 65 651
f 468 431 478
f 683 693 67
f 685 146 684
f 146 685 512
f 696 340 689
f 66 67 701
f 473 495 478
f 66 698 686
f 702 67 693
f 668 675 687
f 701 698 66
f 405 690 54
f 701 67 70
f 54 690 564
f 14 696 348
f 711 70 710
f 699 70 711
f 702 709 710
f 229 318 236
f 657 282 471
f 710 709 742
f 753 756 740
f 756 753 72
f 742 754 72
f 72 754 768
f 72 765 756
f 766 765 770
f 490 193 496
f 130 772 496
f 770 776 766
f 15 719 168
f 87 201 148
f 183 770 768
f 201 194 136
f 422 705 172
f 633 777 338
f 777 633 150
f 408 74 633
f 638 185 408
f 106 730 258
f 688 379 694
f 275 631 118
f 185 692 145
f 197 750 749
f 736 737 738
f 263 258 730
f 738 741 743
f 185 145 143
f 743 741 744
f 744 741 74
f 744 467 879
f 132 140 145
f 123 132 661
f 741 738 150
f 123 540 567
f 773 772 567
f 738 134 150
f 78 27 226
f 238 623 1
f 264 279 779
f 776 150 134
f 134 705 420
f 695 541 538
f 104 599 261
f 365 681 680
f 761 762 763
f 365 678 76
f 76 78 365
f 411 156 420
f 156 411 220
f 541 519 538
f 220 764 156
f 76 233 78
f 80 78 233
f 168 789 387
f 70 699 701
f 398 395 228
f 434 437 445
f 779 780 887
f 428 432 434
f 926 317 706
f 197 749 745
f 213 6 4
f 279 785 780
f 419 427 428
f 148 201 745
f 454 462 419
f 526 782 783
f 381 734 235
f 410 414 419
f 493 769 913
f 511 4 215
f 4 511 213
f 406 414 410
f 208 731 729
f 21 511 215
f 210 728 727
f 794 800 823
f 511 21 529
f 470 474 179
f 724 218 46
f 227 110 115
f 118 280 275
f 219 218 722
f 806 800 794
f 803 804 256
f 716 778 225
f 224 219 720
f 407 86 690
f 356 734 381
f 389 497 380
f 809 795 528
f 810 806 811
f 717 716 514
f 497 501 380
f 317 697 429
f 810 818 821
f 913 771 202
f 341 698 699
f 373 376 159
f 369 177 373
f 341 260 698
f 260 334 266
f 365 226 681
f 517 522 354
f 828 821 818
f 354 362 364
f 569 640 446
f 519 522 88
f 767 828 818
f 266 324 676
f 602 597 211
f 804 834 256
f 121 240 122
f 345 868 918
f 610 602 211
f 169 839 166
f 427 195 211
f 643 179 174
f 683 651 165
f 693 683 171
f 627 884 634
f 324 654 676
f 846 397 841
f 841 397 374
f 362 709 369
f 580 397 846
f 192 188 190
f 192 499 489
f 128 192 190
f 270 205 203
f 205 288 286
f 291 306 126
f 208 148 733
f 288 304 291
f 304 311 306
f 311 481 308
f 286 125 203
f 283 118 297
f 589 599 592
f 283 280 118
f 227 115 120
f 747 805 732
f 707 226 82
f 107 378 80
f 275 114 631
f 118 646 297
f 89 114 275
f 231 233 103
f 87 209 205
f 816 872 870
f 271 108 89
f 248 560 455
f 248 241 560
f 108 271 265
f 566 565 241
f 86 876 690
f 622 244 619
f 517 91 88
f 574 566 248
f 715 662 889
f 244 249 618
f 249 250 614
f 882 465 718
f 253 251 257
f 774 465 882
f 250 259 608
f 883 494 774
f 921 391 560
f 259 267 604
f 54 564 847
f 251 577 583
f 600 267 5
f 89 276 271
f 503 91 517
f 690 405 407
f 275 276 89
f 892 573 582
f 272 278 596
f 248 577 574
f 280 276 275
f 425 588 591
f 425 424 781
f 781 313 572
f 424 313 781
f 572 585 781
f 314 654 324
f 136 197 201
f 313 557 572
f 237 551 558
f 554 331 335
f 334 341 348
f 760 136 138
f 335 344 549
f 341 699 704
f 348 696 334
f 921 319 7
f 358 348 704
f 344 352 544
f 912 582 594
f 903 586 551
f 352 368 543
f 381 370 356
f 368 375 539
f 788 8 3
f 535 375 178
f 221 795 809
f 828 767 562
f 559 833 920
f 921 920 899
f 546 448 898
f 903 922 836
f 38 903 299
f 235 228 395
f 405 669 407
f 546 92 94
f 400 518 520
f 92 546 904
f 639 35 926
f 386 396 525
f 927 926 33
f 928 605 930
f 200 490 298
f 94 545 546
f 96 92 536
f 927 56 852
f 143 472 408
f 220 412 26
f 400 520 521
f 412 220 411
f 109 113 152
f 920 832 559
f 418 412 411
f 152 113 746
f 387 789 786
f 420 418 411
f 746 161 867
f 418 420 422
f 490 773 298
f 496 772 773
f 394 442 445
f 562 767 832
f 739 636 820
f 204 725 658
f 773 490 496
f 725 223 635
f 447 454 428
f 472 186 637
f 215 284 98
f 189 130 496
f 458 464 30
f 410 462 460
f 125 469 464
f 635 247 487
f 487 269 629
f 641 487 629
f 268 269 487
f 269 393 629
f 390 269 268
f 469 126 64
f 349 761 763
f 655 64 477
f 303 674 670
f 290 393 277
f 611 290 928
f 163 474 483
f 928 307 605
f 635 641 648
f 531 605 533
f 677 674 100
f 477 309 485
f 506 202 207
f 679 485 240
f 240 121 684
f 312 912 594
f 684 679 240
f 121 685 684
f 186 187 345
f 503 505 146
f 912 332 892
f 772 130 132
f 685 120 512
f 501 505 159
f 725 648 658
f 505 513 373
f 513 517 364
f 892 847 564
f 110 527 713
f 714 847 339
f 522 541 154
f 51 714 346
f 231 103 540
f 714 51 404
f 541 695 343
f 567 772 123
f 502 500 506
f 578 577 563
f 867 659 673
f 577 578 583
f 597 575 432
f 592 104 583
f 913 492 493
f 845 167 839
f 599 104 592
f 386 178 23
f 599 603 615
f 110 227 378
f 615 261 599
f 706 402 639
f 603 626 114
f 132 123 772
f 624 610 195
f 409 706 317
f 746 673 682
f 114 615 603
f 120 327 227
f 624 414 403
f 691 429 697
f 642 631 632
f 642 118 631
f 429 433 853
f 646 118 642
f 642 649 646
f 152 682 691
f 682 433 691
f 181 643 60
f 654 297 646
f 122 325 121
f 140 130 187
f 421 416 617
f 123 661 555
f 309 308 240
f 698 260 686
f 702 693 177
f 698 701 699
f 672 441 436
f 291 126 125
f 109 691 697
f 143 140 186
f 874 872 816
f 665 441 672
f 188 192 489
f 665 658 653
f 712 704 699
f 653 451 665
f 927 697 317
f 712 740 734
f 648 461 653
f 178 375 19
f 923 880 116
f 641 461 648
f 740 756 748
f 748 758 228
f 926 706 639
f 479 641 482
f 754 742 362
f 354 754 362
f 407 669 38
f 203 458 128
f 482 629 620
f 756 765 758
f 182 754 154
f 128 127 192
f 254 246 252
f 611 382 620
f 764 398 228
f 499 192 127
f 764 766 156
f 766 776 156
f 930 611 928
f 420 156 776
f 140 132 130
f 788 7 8
f 387 166 168
f 420 776 134
f 136 760 197
f 300 387 415
f 750 197 760
f 745 201 197
f 148 208 209
f 733 148 745
f 258 35 106
f 593 533 605
f 731 208 733
f 236 318 910
f 729 210 208
f 728 210 729
f 727 216 210
f 188 489 579
f 929 573 556
f 724 216 727
f 573 929 582
f 723 218 724
f 722 218 723
f 720 219 722
f 717 224 720
f 514 224 717
f 188 579 138
f 876 556 573
f 707 681 226
f 898 904 546
f 472 143 186
f 212 795 221
f 899 391 921
f 854 925 931
f 213 795 212
f 140 143 145
f 404 54 714
f 833 922 924
f 415 387 786
f 143 408 185
f 238 3 793
f 1 3 238
f 31 799 752
f 622 238 244
f 918 799 515
f 380 376 171
f 915 752 357
f 617 476 421
f 619 244 618
f 618 249 616
f 616 249 614
f 636 739 613
f 388 613 10
f 614 250 608
f 357 791 915
f 383 688 388
f 608 259 607
f 571 438 576
f 295 667 666
f 92 96 94
f 607 259 604
f 372 726 700
f 667 295 303
f 367 726 372
f 604 267 601
f 298 295 207
f 923 875 880
f 363 732 367
f 408 467 74
f 148 209 87
f 298 301 295
f 359 747 363
f 601 267 600
f 359 355 755
f 600 272 598
f 598 272 596
f 353 755 355
f 301 298 773
f 596 278 591
f 747 755 751
f 591 278 425
f 588 425 781
f 388 688 813
f 769 771 913
f 763 353 349
f 202 771 200
f 506 500 913
f 74 467 744
f 773 570 301
f 82 708 707
f 320 647 326
f 500 492 913
f 331 554 557
f 242 910 320
f 344 335 340
f 910 908 647
f 554 335 550
f 239 222 703
f 549 550 335
f 549 344 544
f 166 167 168
f 544 352 543
f 543 368 542
f 17 15 167
f 17 845 157
f 907 536 919
f 157 850 155
f 155 850 153
f 542 368 539
f 150 633 74
f 153 854 151
f 151 854 149
f 149 858 147
f 147 862 144
f 539 375 535
f 759 903 38
f 530 535 178
f 144 862 141
f 141 866 139
f 139 866 137
f 530 386 525
f 137 870 135
f 525 396 521
f 135 870 872
f 133 872 131
f 131 874 129
f 129 923 117
f 923 874 875
f 170 119 902
f 521 396 400
f 20 932 101
f 99 101 932
f 99 886 97
f 95 97 199
f 95 891 93
f 93 896 90
f 518 400 786
f 90 896 85
f 85 901 83
f 83 905 81
f 169 166 300
f 81 905 79
f 77 79 796
f 77 909 75
f 439 394 545
f 75 914 73
f 73 914 71
f 71 916 69
f 442 394 439
f 468 466 366
f 442 447 434
f 7 562 920
f 794 534 811
f 924 899 833
f 434 447 428
f 428 454 419
f 419 462 410
f 38 898 759
f 902 111 897
f 466 468 495
f 526 524 534
f 25 59 56
f 96 43 45
f 895 401 61
f 182 343 338
f 483 389 163
f 483 162 389
f 897 59 25
f 883 894 775
f 776 777 150
f 59 897 111
f 380 384 389
f 774 882 893
f 111 902 119
f 778 708 225
f 501 159 380
f 167 166 839
f 159 505 373
f 176 191 867
f 373 513 369
f 364 369 513
f 850 890 925
f 354 364 517
f 354 522 154
f 177 369 709
f 154 541 343
f 446 445 437
f 376 380 159
f 204 223 725
f 217 198 214
f 214 703 222
f 437 569 446
f 610 211 195
f 414 624 195
f 403 630 624
f 889 718 715
f 160 313 424
f 181 630 403
f 888 246 239
f 179 643 181
f 174 650 643
f 651 650 174
f 163 384 165
f 487 247 268
f 165 651 163
f 171 683 165
f 174 474 163
f 557 313 331
f 475 515 799
f 376 693 171
f 285 273 757
f 177 693 376
f 627 885 884
f 174 179 474
f 509 508 516
f 294 302 310
f 709 702 177
f 709 362 742
f 154 754 354
f 182 338 183
f 780 785 803
f 183 768 182
f 423 413 881
f 183 338 777
f 638 338 343
f 633 638 408
f 590 401 895
f 692 185 329
f 190 188 194
f 515 475 25
f 270 190 194
f 190 270 128
f 195 427 414
f 7 788 562
f 915 878 571
f 877 595 438
f 203 205 286
f 44 48 61
f 474 206 483
f 210 209 208
f 61 62 895
f 413 895 62
f 211 432 427
f 172 42 169
f 398 764 220
f 515 263 918
f 437 575 569
f 228 758 764
f 124 885 426
f 175 871 350
f 84 498 327
f 225 514 716
f 327 371 227
f 918 263 730
f 898 448 759
f 371 327 36
f 839 374 890
f 227 371 378
f 451 441 665
f 228 235 748
f 444 180 457
f 233 231 107
f 187 868 345
f 759 448 586
f 189 292 868
f 734 748 235
f 653 461 826
f 924 922 237
f 292 193 196
f 446 671 394
f 461 641 479
f 922 551 237
f 391 237 455
f 482 641 629
f 918 868 799
f 196 200 293
f 771 293 200
f 558 455 237
f 281 287 894
f 894 893 281
f 248 566 241
f 257 251 104
f 255 430 453
f 257 261 265
f 509 775 287
f 260 266 676
f 509 516 524
f 265 261 108
f 523 516 531
f 322 316 523
f 273 252 888
f 265 271 262
f 811 534 316
f 316 315 811
f 676 686 260
f 366 466 581
f 478 495 468
f 330 547 315
f 547 336 552
f 366 471 468
f 760 495 473
f 657 471 284
f 336 342 553
f 553 900 552
f 832 900 553
f 865 878 791
f 792 284 4
f 31 571 576
f 286 288 291
f 438 571 877
f 906 864 863
f 4 790 792
f 8 7 319
f 303 295 301
f 291 304 306
f 570 773 567
f 739 617 392
f 617 416 392
f 306 311 309
f 309 311 308
f 170 628 668
f 613 739 10
f 739 392 10
f 656 675 668
f 656 815 675
f 680 678 365
f 813 613 388
f 324 333 314
f 687 198 668
f 379 688 383
f 295 666 207
f 815 656 636
f 377 694 379
f 325 498 84
f 689 333 266
f 334 696 689
f 700 377 372
f 861 834 860
f 703 721 239
f 732 726 367
f 834 861 256
f 348 341 704
f 747 732 363
f 356 358 704
f 735 888 721
f 370 358 356
f 735 264 757
f 735 273 888
f 755 747 359
f 369 364 362
f 353 763 755
f 647 761 326
f 761 349 326
f 376 373 177
f 779 757 264
f 780 779 279
f 384 380 171
f 235 395 19
f 736 871 737
f 562 788 917
f 910 647 320
f 785 804 803
f 414 406 403
f 256 323 803
f 813 675 815
f 415 786 400
f 427 419 414
f 422 420 705
f 432 428 427
f 430 489 499
f 587 580 590
f 437 434 432
f 445 442 434
f 446 394 445
f 671 586 448
f 819 609 627
f 456 449 450
f 455 563 248
f 865 791 769
f 581 579 463
f 645 652 817
f 644 464 469
f 652 662 715
f 874 923 129
f 715 664 652
f 694 812 688
f 477 64 126
f 750 760 473
f 485 655 477
f 465 715 718
f 507 207 666
f 465 774 494
f 865 486 480
f 812 675 813
f 485 484 655
f 207 202 298
f 883 504 825
f 493 865 769
f 783 782 504
f 679 484 485
f 202 200 298
f 196 490 200
f 196 193 490
f 877 859 476
f 302 803 323
f 189 496 193
f 814 806 810
f 168 719 789
f 821 814 810
f 391 899 924
f 713 527 532
f 467 408 472
f 302 294 887
f 786 787 518
f 538 519 532
f 561 532 527
f 926 35 33
f 538 532 660
f 540 555 561
f 551 586 640
f 319 241 565
f 660 532 561
f 113 161 746
f 161 176 867
f 8 319 565
f 223 247 635
f 781 585 784
f 620 629 393
f 887 780 302
f 269 390 393
f 671 640 586
f 781 784 588
f 599 589 603
f 393 290 611
f 626 603 606
f 928 290 305
f 623 238 622
f 625 1 623
f 774 893 894
f 312 332 912
f 626 632 631
f 332 339 847
f 847 892 332
f 757 887 285
f 847 714 54
f 793 3 8
f 732 807 726
f 858 931 857
f 675 812 687
f 168 167 15
f 273 735 757
f 920 921 7
f 402 385 639
f 167 845 17
f 638 633 338
f 646 649 663
f 650 663 649
f 845 850 157
f 888 239 721
f 663 654 646
f 706 409 48
f 850 854 153
f 676 654 663
f 429 409 317
f 661 692 660
f 854 858 149
f 676 663 686
f 858 862 147
f 433 429 691
f 678 680 677
f 699 711 712
f 712 734 356
f 711 710 753
f 862 866 141
f 712 711 740
f 682 436 827
f 734 740 748
f 866 870 137
f 214 687 808
f 748 756 758
f 664 816 652
f 872 133 135
f 198 687 214
f 754 182 768
f 872 874 131
f 665 659 658
f 758 765 766
f 658 648 653
f 766 764 758
f 776 770 777
f 668 198 170
f 117 923 116
f 787 786 789
f 929 330 822
f 533 822 322
f 556 336 330
f 531 322 523
f 899 920 833
f 662 444 889
f 346 323 256
f 491 482 620
f 116 880 911
f 911 20 116
f 382 491 620
f 911 932 20
f 932 886 99
f 645 443 662
f 930 382 611
f 382 930 516
f 886 824 199
f 605 531 930
f 491 508 848
f 628 170 902
f 256 347 346
f 482 848 479
f 891 896 93
f 347 256 861
f 820 617 739
f 866 819 817
f 605 594 593
f 896 901 85
f 929 593 582
f 612 881 885
f 901 905 83
f 826 451 653
f 451 457 180
f 672 659 665
f 441 180 851
f 79 905 796
f 436 673 672
f 436 851 827
f 909 914 75
f 682 673 436
f 914 916 71
f 584 902 897
f 876 86 342
f 69 916 1
f 829 433 827
f 700 808 694
f 788 3 916
f 853 829 417
f 409 61 48
f 402 48 855
f 870 817 816
f 855 29 360
f 874 816 664
f 385 361 102
f 830 880 875
f 576 897 25
f 819 634 817
f 68 69 1
f 106 856 730
f 743 736 738
f 910 242 236
f 862 857 819
f 744 879 102
f 880 830 831
f 840 528 843
f 401 846 44
f 803 302 780
f 769 791 357
f 878 915 791
f 831 911 880
f 918 873 345
f 576 25 475
f 799 31 475
f 841 29 846
f 879 856 102
f 106 639 385
f 573 564 876
f 911 831 802
f 342 556 876
f 337 339 332
f 25 510 515
f 350 29 841
f 564 573 892
f 892 582 912
f 510 25 56
f 864 906 837
f 312 328 337
f 929 822 593
f 33 35 258
f 871 360 29
f 840 860 835
f 864 158 863
f 29 855 44
f 916 914 917
f 808 687 812
f 594 307 312
f 307 305 328
f 916 917 788
f 33 56 927
f 840 835 809
f 307 594 605
f 736 743 361
f 531 516 930
f 290 277 305
f 852 109 927
f 318 835 860
f 21 844 529
f 852 59 112
f 620 393 611
f 102 743 744
f 112 113 852
f 751 763 762
f 647 785 762
f 805 747 751
f 252 268 254
f 230 835 229
f 487 641 635
f 637 879 467
f 124 851 164
f 809 230 221
f 161 142 176
f 807 732 805
f 247 234 254
f 230 809 835
f 808 700 807
f 345 637 186
f 176 184 191
f 812 694 808
f 204 849 223
f 849 204 191
f 813 688 812
f 635 648 725
f 849 184 198
f 815 613 813
f 815 636 613
f 217 223 849
f 659 191 204
f 217 234 223
f 191 184 849
f 859 480 421
f 795 213 511
f 245 461 243
f 878 865 859
f 802 886 932
f 191 659 867
f 452 718 889
f 223 234 247
f 176 142 184
f 246 254 234
f 865 493 486
f 293 771 357
f 268 247 254
f 771 769 357
f 805 264 735
f 268 252 390
f 161 113 112
f 486 493 488
f 390 252 274
f 867 673 746
f 264 751 279
f 274 277 390
f 746 682 152
f 281 848 287
f 827 433 682
f 808 703 214
f 152 691 109
f 109 852 113
f 476 859 421
f 296 305 277
f 476 595 877
f 305 307 928
f 196 293 292
f 595 476 820
f 726 807 700
f 752 293 357
f 307 328 312
f 310 328 305
f 56 59 852
f 292 752 799
f 328 310 323
f 886 825 824
f 312 337 332
f 807 703 808
f 891 824 782
f 193 292 189
f 844 21 22
f 429 853 409
f 109 697 927
f 56 33 510
f 105 559 553
f 339 337 346
f 346 714 339
f 51 346 347
f 317 926 927
f 564 690 876
f 863 844 232
f 799 868 292
f 510 33 258
f 843 528 529
f 844 863 842
f 861 840 843
f 861 158 347
f 861 860 840
f 752 915 31
f 158 843 842
f 843 158 861
f 842 529 844
f 919 837 906
f 906 232 907
f 809 528 840
f 730 873 918
f 730 856 873
f 873 856 879
f 856 106 385
f 817 634 645
f 837 919 838
f 817 652 816
f 919 906 907
f 919 536 537
f 743 102 361
f 904 669 838
f 898 669 904
f 669 898 38
f 703 807 721
f 405 404 838
f 669 405 838
f 922 833 836
f 294 285 887
f 361 385 402
f 869 645 634
f 830 875 664
f 916 3 1
f 864 51 347
f 402 855 361
f 909 801 914
f 397 890 374
f 48 44 855
f 796 909 77
f 879 637 873
f 901 798 905
f 580 925 397
f 48 402 706
f 896 800 901
f 891 823 896
f 409 62 61
f 853 62 409
f 881 413 417
f 417 62 853
f 86 407 299
f 459 893 882
f 199 891 95
f 830 465 831
f 829 426 417
f 426 829 124
f 426 881 417
f 124 829 827
f 433 829 853
f 886 802 825
f 774 894 883
f 851 124 827
f 164 884 124
f 441 851 436
f 180 164 851
f 443 869 164
f 911 802 932
f 715 830 664
f 874 664 875
f 736 361 360
f 451 180 441
f 457 452 889
f 889 444 457
f 866 817 870
f 106 35 639
f 459 718 452
f 826 452 457
f 452 826 245
f 451 826 457
f 862 819 866
f 858 857 862
f 461 245 826
f 459 882 718
f 479 243 461
f 854 931 858
f 850 925 854
f 846 401 580
f 845 890 850
f 491 848 482
f 848 281 479
f 825 494 883
f 382 508 491
f 900 832 767
f 508 287 848
f 896 823 800
f 839 890 845
f 504 782 824
f 42 374 839
f 516 508 382
f 908 910 318
f 534 524 523
f 552 818 548
f 42 172 173
f 901 800 798
f 818 552 900
f 533 322 531
f 871 175 737
f 868 187 189
f 22 232 844
f 593 822 533
f 822 315 316
f 929 556 330
f 330 315 822
f 838 919 537
f 904 838 537
f 318 860 834
f 908 318 834
f 465 830 715
f 556 342 336
f 105 836 559
f 833 559 836
f 29 44 846
f 908 834 804
f 562 917 828
f 299 836 105
f 818 900 767
f 832 553 559
f 562 832 920
f 811 315 548
f 828 801 821
f 801 828 917
f 821 797 814
f 836 299 903
f 401 590 580
f 797 821 801
f 905 798 796
f 796 814 797
f 810 548 818
f 814 798 806
f 798 814 796
f 909 796 797
f 811 548 810
f 413 587 590
f 404 51 837
f 51 864 837
f 837 838 404
f 909 797 801
f 529 842 843
f 158 842 863
f 232 906 863
f 800 806 798
f 529 528 511
f 794 811 806
f 785 908 804
f 785 647 908
f 859 877 878
f 526 534 794
f 877 571 878
f 571 31 915
f 173 351 42
f 524 783 509
f 350 173 175
f 29 350 871
f 823 526 794
f 783 524 526
f 526 823 782
f 42 351 374
f 841 374 351
f 504 775 783
f 509 783 775
f 782 823 891
f 885 124 884
f 887 757 779
f 914 801 917
f 426 885 881
f 890 397 925
f 825 504 824
f 775 504 883
f 925 587 931
f 587 925 580
f 802 494 825
f 785 279 762
f 494 831 465
f 831 494 802
f 894 287 775
f 590 895 413
f 438 897 576
f 884 164 869
f 762 279 751
f 423 931 587
f 587 413 423
f 931 423 857
f 762 761 647
f 617 820 476
f 595 820 621
f 751 755 763
f 893 459 243
f 751 264 805
f 609 857 423
f 423 881 612
f 662 443 444
f 721 805 735
f 621 584 595
f 857 609 819
f 443 645 869
f 612 885 627
f 636 621 820
f 628 902 584
f 805 721 807
